ISO-10303-21;
HEADER;
FILE_DESCRIPTION (( 'STEP AP214' ),
    '1' );
FILE_NAME ('21631_03_188_rotating bracket_3K.STEP',
    '2021-11-04T14:43:17',
    ( '' ),
    ( '' ),
    'SwSTEP 2.0',
    'SolidWorks 2018',
    '' );
FILE_SCHEMA (( 'AUTOMOTIVE_DESIGN' ));
ENDSEC;

DATA;
#1 = DIRECTION ( 'NONE',  ( 0.000000000000000000, 0.000000000000000000, 1.000000000000000000 ) ) ;
#2 = AXIS2_PLACEMENT_3D ( 'NONE', #770, #311, #461 ) ;
#3 = CARTESIAN_POINT ( 'NONE',  ( 119.0000000000000000, -8.673617379883692811E-17, 0.9999999999999603650 ) ) ;
#4 = VECTOR ( 'NONE', #71, 1000.000000000000000 ) ;
#5 = VECTOR ( 'NONE', #936, 1000.000000000000000 ) ;
#6 = EDGE_CURVE ( 'NONE', #808, #273, #252, .T. ) ;
#7 = DIRECTION ( 'NONE',  ( 8.659560562354934091E-17, -0.7071067811865474617, -0.7071067811865476838 ) ) ;
#8 = ORIENTED_EDGE ( 'NONE', *, *, #964, .F. ) ;
#9 = ORIENTED_EDGE ( 'NONE', *, *, #315, .F. ) ;
#10 = VERTEX_POINT ( 'NONE', #734 ) ;
#11 = ORIENTED_EDGE ( 'NONE', *, *, #593, .F. ) ;
#12 = AXIS2_PLACEMENT_3D ( 'NONE', #314, #537, #77 ) ;
#13 = APPLICATION_PROTOCOL_DEFINITION ( 'draft international standard', 'automotive_design', 1998, #334 ) ;
#14 = AXIS2_PLACEMENT_3D ( 'NONE', #636, #566, #885 ) ;
#15 = ORIENTED_EDGE ( 'NONE', *, *, #825, .T. ) ;
#16 = ORIENTED_EDGE ( 'NONE', *, *, #346, .T. ) ;
#17 = EDGE_LOOP ( 'NONE', ( #436, #553 ) ) ;
#18 = EDGE_CURVE ( 'NONE', #393, #152, #78, .T. ) ;
#19 = CARTESIAN_POINT ( 'NONE',  ( 69.00000000000000000, -8.673617379883692811E-17, 0.9999999999999603650 ) ) ;
#20 = AXIS2_PLACEMENT_3D ( 'NONE', #794, #682, #329 ) ;
#21 = CARTESIAN_POINT ( 'NONE',  ( 48.50000000000000000, 10.00000000000000178, 6.600000000000000533 ) ) ;
#22 = FACE_OUTER_BOUND ( 'NONE', #951, .T. ) ;
#23 = FACE_BOUND ( 'NONE', #737, .T. ) ;
#24 = VERTEX_POINT ( 'NONE', #872 ) ;
#25 = ORIENTED_EDGE ( 'NONE', *, *, #322, .F. ) ;
#26 = AXIS2_PLACEMENT_3D ( 'NONE', #729, #745, #219 ) ;
#27 = EDGE_LOOP ( 'NONE', ( #498, #9 ) ) ;
#28 = ORIENTED_EDGE ( 'NONE', *, *, #62, .T. ) ;
#29 = DIRECTION ( 'NONE',  ( -0.000000000000000000, -1.084202172485504434E-16, 1.000000000000000000 ) ) ;
#30 = CARTESIAN_POINT ( 'NONE',  ( 93.95000000000000284, -2.099999999999993872, 16.00000000000000000 ) ) ;
#31 = VECTOR ( 'NONE', #811, 1000.000000000000000 ) ;
#32 = DIRECTION ( 'NONE',  ( 0.000000000000000000, 1.000000000000000000, 8.673617379884036705E-17 ) ) ;
#33 = SURFACE_STYLE_FILL_AREA ( #119 ) ;
#34 = UNCERTAINTY_MEASURE_WITH_UNIT (LENGTH_MEASURE( 1.000000000000000082E-05 ), #514, 'distance_accuracy_value', 'NONE');
#35 = CARTESIAN_POINT ( 'NONE',  ( 69.00000000000000000, 4.000000000000003553, 3.469446951953617640E-16 ) ) ;
#36 = VERTEX_POINT ( 'NONE', #484 ) ;
#37 = ORIENTED_EDGE ( 'NONE', *, *, #744, .F. ) ;
#38 = MECHANICAL_DESIGN_GEOMETRIC_PRESENTATION_REPRESENTATION (  '', ( #369 ), #846 ) ;
#39 = VERTEX_POINT ( 'NONE', #192 ) ;
#40 = DIRECTION ( 'NONE',  ( -1.000000000000000000, -0.000000000000000000, -0.000000000000000000 ) ) ;
#41 = DIRECTION ( 'NONE',  ( 1.000000000000000000, 0.000000000000000000, 0.000000000000000000 ) ) ;
#42 = EDGE_CURVE ( 'NONE', #393, #796, #864, .T. ) ;
#43 = CONICAL_SURFACE ( 'NONE', #202, 4.000000000000003553, 1.029744258676654756 ) ;
#44 = VECTOR ( 'NONE', #274, 1000.000000000000000 ) ;
#45 = LINE ( 'NONE', #585, #198 ) ;
#46 = VERTEX_POINT ( 'NONE', #267 ) ;
#47 = VERTEX_POINT ( 'NONE', #551 ) ;
#48 = DIRECTION ( 'NONE',  ( 0.000000000000000000, 0.000000000000000000, 1.000000000000000000 ) ) ;
#49 = DIRECTION ( 'NONE',  ( -0.000000000000000000, 1.000000000000000000, -0.000000000000000000 ) ) ;
#50 = ADVANCED_FACE ( 'NONE', ( #53, #624, #853, #651 ), #196, .F. ) ;
#51 = CARTESIAN_POINT ( 'NONE',  ( 30.50000000000000000, 10.00000000000000000, 4.500000000000006217 ) ) ;
#52 = PRESENTATION_LAYER_ASSIGNMENT (  '', '', ( #212 ) ) ;
#53 = FACE_BOUND ( 'NONE', #792, .T. ) ;
#54 = ORIENTED_EDGE ( 'NONE', *, *, #18, .T. ) ;
#55 = EDGE_LOOP ( 'NONE', ( #8, #844, #187, #37 ) ) ;
#56 = CARTESIAN_POINT ( 'NONE',  ( 48.50000000000000000, 10.00000000000000000, 6.600000000000000533 ) ) ;
#57 = EDGE_CURVE ( 'NONE', #270, #163, #451, .T. ) ;
#58 = DIRECTION ( 'NONE',  ( 0.000000000000000000, 0.000000000000000000, 1.000000000000000000 ) ) ;
#59 = ADVANCED_FACE ( 'NONE', ( #818, #472, #423, #389 ), #278, .F. ) ;
#60 = CARTESIAN_POINT ( 'NONE',  ( 130.0000000000000000, 10.00000000000000178, -16.00000000000000000 ) ) ;
#61 = CIRCLE ( 'NONE', #207, 2.099999999999991651 ) ;
#62 = EDGE_CURVE ( 'NONE', #163, #270, #605, .T. ) ;
#63 = ADVANCED_FACE ( 'NONE', ( #723 ), #842, .F. ) ;
#64 = FACE_BOUND ( 'NONE', #578, .T. ) ;
#65 =( GEOMETRIC_REPRESENTATION_CONTEXT ( 3 ) GLOBAL_UNCERTAINTY_ASSIGNED_CONTEXT ( ( #772 ) ) GLOBAL_UNIT_ASSIGNED_CONTEXT ( ( #239, #173, #330 ) ) REPRESENTATION_CONTEXT ( 'NONE', 'WORKASPACE' ) );
#66 = CIRCLE ( 'NONE', #531, 2.099999999999990763 ) ;
#67 = DIRECTION ( 'NONE',  ( -0.000000000000000000, 1.084202172485504434E-16, -1.000000000000000000 ) ) ;
#68 = ORIENTED_EDGE ( 'NONE', *, *, #114, .F. ) ;
#69 = DIRECTION ( 'NONE',  ( -0.000000000000000000, 1.000000000000000000, 1.084202172485504311E-16 ) ) ;
#70 = EDGE_LOOP ( 'NONE', ( #427, #714, #141, #919 ) ) ;
#71 = DIRECTION ( 'NONE',  ( -0.000000000000000000, 1.000000000000000000, 8.673617379884036705E-17 ) ) ;
#72 = AXIS2_PLACEMENT_3D ( 'NONE', #157, #759, #379 ) ;
#73 = CARTESIAN_POINT ( 'NONE',  ( 0.000000000000000000, -10.00000000000000178, 16.00000000000000000 ) ) ;
#74 = EDGE_CURVE ( 'NONE', #809, #286, #831, .T. ) ;
#75 = SURFACE_SIDE_STYLE ('',( #603 ) ) ;
#76 = VECTOR ( 'NONE', #49, 1000.000000000000000 ) ;
#77 = DIRECTION ( 'NONE',  ( 0.000000000000000000, 1.000000000000000000, 1.084202172485503448E-16 ) ) ;
#78 = LINE ( 'NONE', #658, #589 ) ;
#79 = ORIENTED_EDGE ( 'NONE', *, *, #677, .T. ) ;
#80 = DIRECTION ( 'NONE',  ( 0.000000000000000000, 8.673617379884036705E-17, -1.000000000000000000 ) ) ;
#81 = CARTESIAN_POINT ( 'NONE',  ( 69.00000000000000000, -8.673617379884037444E-16, 10.00000000000000000 ) ) ;
#82 = VERTEX_POINT ( 'NONE', #285 ) ;
#83 = DIRECTION ( 'NONE',  ( 1.000000000000000000, 0.000000000000000000, 0.000000000000000000 ) ) ;
#84 = AXIS2_PLACEMENT_3D ( 'NONE', #98, #954, #559 ) ;
#85 = VECTOR ( 'NONE', #257, 1000.000000000000000 ) ;
#86 = VECTOR ( 'NONE', #351, 1000.000000000000000 ) ;
#87 = AXIS2_PLACEMENT_3D ( 'NONE', #930, #466, #852 ) ;
#88 = VERTEX_POINT ( 'NONE', #980 ) ;
#89 = DIRECTION ( 'NONE',  ( -0.000000000000000000, 1.000000000000000000, 8.673617379884036705E-17 ) ) ;
#90 = ORIENTED_EDGE ( 'NONE', *, *, #337, .T. ) ;
#91 = EDGE_CURVE ( 'NONE', #300, #152, #222, .T. ) ;
#92 = DIRECTION ( 'NONE',  ( 0.000000000000000000, 0.7071067811865476838, -0.7071067811865474617 ) ) ;
#93 = SURFACE_STYLE_USAGE ( .BOTH. , #75 ) ;
#94 = AXIS2_PLACEMENT_3D ( 'NONE', #644, #810, #632 ) ;
#95 = FILL_AREA_STYLE ('',( #795 ) ) ;
#96 = VECTOR ( 'NONE', #565, 1000.000000000000000 ) ;
#97 =( NAMED_UNIT ( * ) SI_UNIT ( $, .STERADIAN. ) SOLID_ANGLE_UNIT ( ) );
#98 = CARTESIAN_POINT ( 'NONE',  ( 57.90000000000000568, -10.00000000000000355, -6.505213034913032521E-16 ) ) ;
#99 = ORIENTED_EDGE ( 'NONE', *, *, #538, .T. ) ;
#100 = CARTESIAN_POINT ( 'NONE',  ( 30.50000000000000000, -10.00000000000000711, 8.699999999999995737 ) ) ;
#101 =( GEOMETRIC_REPRESENTATION_CONTEXT ( 3 ) GLOBAL_UNCERTAINTY_ASSIGNED_CONTEXT ( ( #827 ) ) GLOBAL_UNIT_ASSIGNED_CONTEXT ( ( #771, #614, #768 ) ) REPRESENTATION_CONTEXT ( 'NONE', 'WORKASPACE' ) );
#102 = EDGE_LOOP ( 'NONE', ( #607, #834 ) ) ;
#103 = VERTEX_POINT ( 'NONE', #73 ) ;
#104 = CARTESIAN_POINT ( 'NONE',  ( 30.50000000000000000, 10.00000000000000000, 8.699999999999995737 ) ) ;
#105 = CLOSED_SHELL ( 'NONE', ( #990, #823, #279, #290, #425, #124, #672, #431, #206, #268, #783, #50, #663, #59, #668, #473, #693, #747, #908, #483, #902, #63, #350, #440, #502, #981, #548, #841 ) ) ;
#106 = DIRECTION ( 'NONE',  ( 0.000000000000000000, 1.000000000000000000, 1.084202172485503448E-16 ) ) ;
#107 = CARTESIAN_POINT ( 'NONE',  ( 119.0000000000000000, -4.000000000000005329, 10.00000000000000000 ) ) ;
#108 = DIRECTION ( 'NONE',  ( -0.000000000000000000, 1.000000000000000000, 1.084202172485504311E-16 ) ) ;
#109 = CIRCLE ( 'NONE', #392, 4.000000000000003553 ) ;
#110 = VECTOR ( 'NONE', #40, 1000.000000000000000 ) ;
#111 = LINE ( 'NONE', #438, #76 ) ;
#112 = VERTEX_POINT ( 'NONE', #302 ) ;
#113 = DIRECTION ( 'NONE',  ( 0.000000000000000000, -1.084202172485504434E-16, 1.000000000000000000 ) ) ;
#114 = EDGE_CURVE ( 'NONE', #112, #656, #231, .T. ) ;
#115 = VERTEX_POINT ( 'NONE', #921 ) ;
#116 = ORIENTED_EDGE ( 'NONE', *, *, #843, .F. ) ;
#117 = PRESENTATION_LAYER_ASSIGNMENT (  '', '', ( #135 ) ) ;
#118 = ORIENTED_EDGE ( 'NONE', *, *, #706, .T. ) ;
#119 = FILL_AREA_STYLE ('',( #499 ) ) ;
#120 = DIRECTION ( 'NONE',  ( -0.000000000000000000, 1.000000000000000000, 1.084202172485504311E-16 ) ) ;
#121 = FILL_AREA_STYLE_COLOUR ( '', #549 ) ;
#122 = AXIS2_PLACEMENT_3D ( 'NONE', #419, #120, #655 ) ;
#123 = PRESENTATION_STYLE_ASSIGNMENT (( #678 ) ) ;
#124 = ADVANCED_FACE ( 'NONE', ( #240 ), #987, .F. ) ;
#125 = EDGE_LOOP ( 'NONE', ( #779, #68, #129, #211 ) ) ;
#126 = EDGE_LOOP ( 'NONE', ( #509, #364, #626, #819 ) ) ;
#127 = CARTESIAN_POINT ( 'NONE',  ( 130.0000000000000000, -9.999999999999998224, -16.00000000000000000 ) ) ;
#128 = EDGE_CURVE ( 'NONE', #10, #273, #45, .T. ) ;
#129 = ORIENTED_EDGE ( 'NONE', *, *, #542, .T. ) ;
#130 = DIRECTION ( 'NONE',  ( 0.000000000000000000, 1.084202172485504311E-16, -1.000000000000000000 ) ) ;
#131 = DIRECTION ( 'NONE',  ( 0.000000000000000000, -8.673617379884036705E-17, 1.000000000000000000 ) ) ;
#132 = CARTESIAN_POINT ( 'NONE',  ( 93.95000000000000284, -1.734723475976807094E-15, -1.504632769052528229E-31 ) ) ;
#133 = SURFACE_SIDE_STYLE ('',( #195 ) ) ;
#134 = UNCERTAINTY_MEASURE_WITH_UNIT (LENGTH_MEASURE( 1.000000000000000082E-05 ), #398, 'distance_accuracy_value', 'NONE');
#135 = STYLED_ITEM ( 'NONE', ( #123 ), #823 ) ;
#136 = VECTOR ( 'NONE', #835, 1000.000000000000000 ) ;
#137 = FACE_OUTER_BOUND ( 'NONE', #453, .T. ) ;
#138 =( NAMED_UNIT ( * ) SI_UNIT ( $, .STERADIAN. ) SOLID_ANGLE_UNIT ( ) );
#139 = VECTOR ( 'NONE', #83, 1000.000000000000000 ) ;
#140 = DIRECTION ( 'NONE',  ( 0.000000000000000000, 1.000000000000000000, 8.673617379884036705E-17 ) ) ;
#141 = ORIENTED_EDGE ( 'NONE', *, *, #812, .T. ) ;
#142 = ORIENTED_EDGE ( 'NONE', *, *, #504, .F. ) ;
#143 = CARTESIAN_POINT ( 'NONE',  ( 57.90000000000000568, -10.00000000000000178, -16.00000000000000355 ) ) ;
#144 = MECHANICAL_DESIGN_GEOMETRIC_PRESENTATION_REPRESENTATION (  '', ( #738 ), #258 ) ;
#145 = CARTESIAN_POINT ( 'NONE',  ( 69.00000000000000000, -4.000000000000003553, 0.9999999999999599209 ) ) ;
#146 = CARTESIAN_POINT ( 'NONE',  ( 9.000000000000000000, 10.00000000000000000, 4.500000000000008882 ) ) ;
#147 = LINE ( 'NONE', #348, #897 ) ;
#148 = MECHANICAL_DESIGN_GEOMETRIC_PRESENTATION_REPRESENTATION (  '', ( #464 ), #883 ) ;
#149 = VECTOR ( 'NONE', #458, 1000.000000000000000 ) ;
#150 = DIRECTION ( 'NONE',  ( -0.000000000000000000, 1.000000000000000000, 1.084202172485504311E-16 ) ) ;
#151 =( NAMED_UNIT ( * ) PLANE_ANGLE_UNIT ( ) SI_UNIT ( $, .RADIAN. ) );
#152 = VERTEX_POINT ( 'NONE', #731 ) ;
#153 = ORIENTED_EDGE ( 'NONE', *, *, #542, .F. ) ;
#154 = VERTEX_POINT ( 'NONE', #209 ) ;
#155 = SURFACE_STYLE_USAGE ( .BOTH. , #798 ) ;
#156 = DIRECTION ( 'NONE',  ( 0.000000000000000000, 1.000000000000000000, 1.084202172485503448E-16 ) ) ;
#157 = CARTESIAN_POINT ( 'NONE',  ( 48.50000000000000000, 10.00000000000000178, 6.600000000000000533 ) ) ;
#158 = PRESENTATION_STYLE_ASSIGNMENT (( #871 ) ) ;
#159 = FACE_OUTER_BOUND ( 'NONE', #256, .T. ) ;
#160 = AXIS2_PLACEMENT_3D ( 'NONE', #669, #753, #470 ) ;
#161 = CIRCLE ( 'NONE', #190, 2.099999999999996092 ) ;
#162 = FACE_OUTER_BOUND ( 'NONE', #991, .T. ) ;
#163 = VERTEX_POINT ( 'NONE', #359 ) ;
#164 = ORIENTED_EDGE ( 'NONE', *, *, #858, .T. ) ;
#165 = DIRECTION ( 'NONE',  ( 8.659560562354934091E-17, -0.7071067811865474617, -0.7071067811865476838 ) ) ;
#166 = EDGE_CURVE ( 'NONE', #592, #675, #775, .T. ) ;
#167 = AXIS2_PLACEMENT_3D ( 'NONE', #539, #790, #704 ) ;
#168 = CARTESIAN_POINT ( 'NONE',  ( 119.0000000000000000, 4.999999999999963585, 6.505213034913024632E-16 ) ) ;
#169 = CARTESIAN_POINT ( 'NONE',  ( 119.0000000000000000, 4.000000000000003553, 3.469446951953617640E-16 ) ) ;
#170 = PRESENTATION_LAYER_ASSIGNMENT (  '', '', ( #654 ) ) ;
#171 = SURFACE_SIDE_STYLE ('',( #230 ) ) ;
#172 = ORIENTED_EDGE ( 'NONE', *, *, #638, .T. ) ;
#173 =( NAMED_UNIT ( * ) PLANE_ANGLE_UNIT ( ) SI_UNIT ( $, .RADIAN. ) );
#174 = EDGE_LOOP ( 'NONE', ( #687, #99, #880, #535 ) ) ;
#175 = CARTESIAN_POINT ( 'NONE',  ( 9.000000000000000000, 10.00000000000000178, 6.600000000000000533 ) ) ;
#176 = ORIENTED_EDGE ( 'NONE', *, *, #894, .T. ) ;
#177 = FILL_AREA_STYLE ('',( #631 ) ) ;
#178 = EDGE_CURVE ( 'NONE', #618, #115, #362, .T. ) ;
#179 = DIRECTION ( 'NONE',  ( -0.000000000000000000, 8.673617379884036705E-17, -1.000000000000000000 ) ) ;
#180 = SURFACE_STYLE_FILL_AREA ( #95 ) ;
#181 = CARTESIAN_POINT ( 'NONE',  ( 130.0000000000000000, 10.00000000000000178, -16.00000000000000000 ) ) ;
#182 = VECTOR ( 'NONE', #712, 1000.000000000000000 ) ;
#183 = AXIS2_PLACEMENT_3D ( 'NONE', #824, #579, #281 ) ;
#184 = VERTEX_POINT ( 'NONE', #383 ) ;
#185 = SURFACE_SIDE_STYLE ('',( #33 ) ) ;
#186 = CARTESIAN_POINT ( 'NONE',  ( 119.0000000000000000, 4.000000000000002665, 10.00000000000000000 ) ) ;
#187 = ORIENTED_EDGE ( 'NONE', *, *, #690, .T. ) ;
#188 = FILL_AREA_STYLE ('',( #959 ) ) ;
#189 =( NAMED_UNIT ( * ) SI_UNIT ( $, .STERADIAN. ) SOLID_ANGLE_UNIT ( ) );
#190 = AXIS2_PLACEMENT_3D ( 'NONE', #227, #150, #459 ) ;
#191 =( NAMED_UNIT ( * ) SI_UNIT ( $, .STERADIAN. ) SOLID_ANGLE_UNIT ( ) );
#192 = CARTESIAN_POINT ( 'NONE',  ( 130.0000000000000000, 10.00000000000000000, 0.000000000000000000 ) ) ;
#193 = CARTESIAN_POINT ( 'NONE',  ( 0.000000000000000000, 0.000000000000000000, 0.000000000000000000 ) ) ;
#194 = DIRECTION ( 'NONE',  ( 0.000000000000000000, 0.000000000000000000, 1.000000000000000000 ) ) ;
#195 = SURFACE_STYLE_FILL_AREA ( #360 ) ;
#196 = PLANE ( 'NONE',  #26 ) ;
#197 = DIRECTION ( 'NONE',  ( 0.000000000000000000, 1.000000000000000000, 8.673617379884035472E-17 ) ) ;
#198 = VECTOR ( 'NONE', #357, 1000.000000000000000 ) ;
#199 = EDGE_CURVE ( 'NONE', #581, #88, #903, .T. ) ;
#200 = ORIENTED_EDGE ( 'NONE', *, *, #322, .T. ) ;
#201 = ORIENTED_EDGE ( 'NONE', *, *, #166, .T. ) ;
#202 = AXIS2_PLACEMENT_3D ( 'NONE', #513, #210, #836 ) ;
#203 = ORIENTED_EDGE ( 'NONE', *, *, #327, .T. ) ;
#204 = CARTESIAN_POINT ( 'NONE',  ( 119.0000000000000000, 4.000000000000003553, 0.9999999999999608091 ) ) ;
#205 =( LENGTH_UNIT ( ) NAMED_UNIT ( * ) SI_UNIT ( .MILLI., .METRE. ) );
#206 = ADVANCED_FACE ( 'NONE', ( #673 ), #283, .F. ) ;
#207 = AXIS2_PLACEMENT_3D ( 'NONE', #922, #847, #1 ) ;
#208 = DIRECTION ( 'NONE',  ( 0.000000000000000000, -1.000000000000000000, -1.084202172485503448E-16 ) ) ;
#209 = CARTESIAN_POINT ( 'NONE',  ( 57.90000000000000568, -10.00000000000000178, -16.00000000000000355 ) ) ;
#210 = DIRECTION ( 'NONE',  ( -0.000000000000000000, 8.673617379884036705E-17, -1.000000000000000000 ) ) ;
#211 = ORIENTED_EDGE ( 'NONE', *, *, #74, .T. ) ;
#212 = STYLED_ITEM ( 'NONE', ( #698 ), #279 ) ;
#213 = CARTESIAN_POINT ( 'NONE',  ( 119.0000000000000000, -4.000000000000003553, -3.469446951953617640E-16 ) ) ;
#214 = DIRECTION ( 'NONE',  ( 1.049727191138618696E-16, -0.8571673007021123336, -0.5150380749100540445 ) ) ;
#215 = EDGE_CURVE ( 'NONE', #656, #112, #960, .T. ) ;
#216 = FILL_AREA_STYLE_COLOUR ( '', #386 ) ;
#217 = CYLINDRICAL_SURFACE ( 'NONE', #917, 2.099999999999991651 ) ;
#218 = AXIS2_PLACEMENT_3D ( 'NONE', #657, #131, #434 ) ;
#219 = DIRECTION ( 'NONE',  ( 0.000000000000000000, -1.084202172485504311E-16, 1.000000000000000000 ) ) ;
#220 = CIRCLE ( 'NONE', #420, 4.999999999999963585 ) ;
#221 =( NAMED_UNIT ( * ) PLANE_ANGLE_UNIT ( ) SI_UNIT ( $, .RADIAN. ) );
#222 = CIRCLE ( 'NONE', #72, 2.099999999999991651 ) ;
#223 = ORIENTED_EDGE ( 'NONE', *, *, #42, .F. ) ;
#224 = ORIENTED_EDGE ( 'NONE', *, *, #643, .T. ) ;
#225 = ORIENTED_EDGE ( 'NONE', *, *, #18, .F. ) ;
#226 = AXIS2_PLACEMENT_3D ( 'NONE', #60, #597, #130 ) ;
#227 = CARTESIAN_POINT ( 'NONE',  ( 9.000000000000000000, -10.00000000000000711, 6.599999999999997868 ) ) ;
#228 = CARTESIAN_POINT ( 'NONE',  ( 130.0000000000000000, -10.00000000000000178, 16.00000000000000000 ) ) ;
#229 = EDGE_CURVE ( 'NONE', #796, #393, #752, .T. ) ;
#230 = SURFACE_STYLE_FILL_AREA ( #870 ) ;
#231 = CIRCLE ( 'NONE', #761, 4.000000000000003553 ) ;
#232 = DIRECTION ( 'NONE',  ( 0.000000000000000000, 1.000000000000000000, 0.000000000000000000 ) ) ;
#233 = VERTEX_POINT ( 'NONE', #228 ) ;
#234 = ORIENTED_EDGE ( 'NONE', *, *, #538, .F. ) ;
#235 = AXIS2_PLACEMENT_3D ( 'NONE', #709, #927, #611 ) ;
#236 = DIRECTION ( 'NONE',  ( 0.000000000000000000, 8.673617379884036705E-17, -1.000000000000000000 ) ) ;
#237 = MECHANICAL_DESIGN_GEOMETRIC_PRESENTATION_REPRESENTATION (  '', ( #797 ), #970 ) ;
#238 = LINE ( 'NONE', #692, #984 ) ;
#239 =( LENGTH_UNIT ( ) NAMED_UNIT ( * ) SI_UNIT ( .MILLI., .METRE. ) );
#240 = FACE_OUTER_BOUND ( 'NONE', #713, .T. ) ;
#241 = ORIENTED_EDGE ( 'NONE', *, *, #728, .T. ) ;
#242 = ORIENTED_EDGE ( 'NONE', *, *, #490, .T. ) ;
#243 = EDGE_CURVE ( 'NONE', #154, #581, #564, .T. ) ;
#244 = CARTESIAN_POINT ( 'NONE',  ( 130.0000000000000000, 9.999999999999998224, 16.00000000000000000 ) ) ;
#245 = DIRECTION ( 'NONE',  ( 0.000000000000000000, 1.000000000000000000, 0.000000000000000000 ) ) ;
#246 = PRODUCT_RELATED_PRODUCT_CATEGORY ( 'part', '', ( #520 ) ) ;
#247 = FACE_OUTER_BOUND ( 'NONE', #845, .T. ) ;
#248 = CIRCLE ( 'NONE', #837, 2.099999999999991651 ) ;
#249 = CARTESIAN_POINT ( 'NONE',  ( 9.000000000000000000, 10.00000000000000178, 8.699999999999988631 ) ) ;
#250 = AXIS2_PLACEMENT_3D ( 'NONE', #760, #375, #764 ) ;
#251 = CONICAL_SURFACE ( 'NONE', #781, 4.000000000000003553, 0.7853981633974482790 ) ;
#252 = CIRCLE ( 'NONE', #395, 2.099999999999988098 ) ;
#253 = CARTESIAN_POINT ( 'NONE',  ( 69.00000000000000000, -8.673617379884037444E-16, 10.00000000000000000 ) ) ;
#254 = VERTEX_POINT ( 'NONE', #780 ) ;
#255 = ORIENTED_EDGE ( 'NONE', *, *, #229, .T. ) ;
#256 = EDGE_LOOP ( 'NONE', ( #854, #116, #439, #805 ) ) ;
#257 = DIRECTION ( 'NONE',  ( 0.000000000000000000, 0.8571673007021124446, -0.5150380749100538225 ) ) ;
#258 =( GEOMETRIC_REPRESENTATION_CONTEXT ( 3 ) GLOBAL_UNCERTAINTY_ASSIGNED_CONTEXT ( ( #406 ) ) GLOBAL_UNIT_ASSIGNED_CONTEXT ( ( #649, #494, #189 ) ) REPRESENTATION_CONTEXT ( 'NONE', 'WORKASPACE' ) );
#259 = SURFACE_STYLE_USAGE ( .BOTH. , #185 ) ;
#260 = DIRECTION ( 'NONE',  ( -0.000000000000000000, 8.673617379884036705E-17, -1.000000000000000000 ) ) ;
#261 = PLANE ( 'NONE',  #939 ) ;
#262 = CARTESIAN_POINT ( 'NONE',  ( 69.00000000000000000, 4.000000000000003553, 0.9999999999999608091 ) ) ;
#263 = DIRECTION ( 'NONE',  ( -0.000000000000000000, 1.000000000000000000, 1.084202172485504311E-16 ) ) ;
#264 = COLOUR_RGB ( '',0.8980392156862745390, 0.9176470588235293713, 0.9294117647058823817 ) ;
#265 = EDGE_CURVE ( 'NONE', #46, #24, #937, .T. ) ;
#266 = ORIENTED_EDGE ( 'NONE', *, *, #57, .T. ) ;
#267 = CARTESIAN_POINT ( 'NONE',  ( 130.0000000000000000, 9.999999999999998224, 16.00000000000000000 ) ) ;
#268 = ADVANCED_FACE ( 'NONE', ( #162 ), #765, .F. ) ;
#269 = STYLED_ITEM ( 'NONE', ( #158 ), #981 ) ;
#270 = VERTEX_POINT ( 'NONE', #100 ) ;
#271 = CARTESIAN_POINT ( 'NONE',  ( 69.00000000000000000, -8.673617379883692811E-17, 0.9999999999999603650 ) ) ;
#272 = ORIENTED_EDGE ( 'NONE', *, *, #786, .T. ) ;
#273 = VERTEX_POINT ( 'NONE', #249 ) ;
#274 = DIRECTION ( 'NONE',  ( -0.000000000000000000, 1.000000000000000000, 1.084202172485504311E-16 ) ) ;
#275 = MECHANICAL_DESIGN_GEOMETRIC_PRESENTATION_REPRESENTATION (  '', ( #654 ), #953 ) ;
#276 = PRESENTATION_STYLE_ASSIGNMENT (( #93 ) ) ;
#277 = CIRCLE ( 'NONE', #716, 4.999999999999963585 ) ;
#278 = PLANE ( 'NONE',  #226 ) ;
#279 = ADVANCED_FACE ( 'NONE', ( #506 ), #317, .F. ) ;
#280 = VECTOR ( 'NONE', #69, 1000.000000000000000 ) ;
#281 = DIRECTION ( 'NONE',  ( -1.000000000000000000, 0.000000000000000000, -0.000000000000000000 ) ) ;
#282 = EDGE_CURVE ( 'NONE', #10, #941, #161, .T. ) ;
#283 = CYLINDRICAL_SURFACE ( 'NONE', #2, 4.000000000000003553 ) ;
#284 =( NAMED_UNIT ( * ) PLANE_ANGLE_UNIT ( ) SI_UNIT ( $, .RADIAN. ) );
#285 = CARTESIAN_POINT ( 'NONE',  ( 69.00000000000000000, -4.999999999999963585, -4.336808689942019708E-16 ) ) ;
#286 = VERTEX_POINT ( 'NONE', #301 ) ;
#287 = ORIENTED_EDGE ( 'NONE', *, *, #812, .F. ) ;
#288 = CARTESIAN_POINT ( 'NONE',  ( 69.00000000000000000, -4.000000000000003553, 0.9999999999999599209 ) ) ;
#289 = DIRECTION ( 'NONE',  ( -0.000000000000000000, 8.673617379884036705E-17, -1.000000000000000000 ) ) ;
#290 = ADVANCED_FACE ( 'NONE', ( #637 ), #388, .F. ) ;
#291 = LINE ( 'NONE', #288, #635 ) ;
#292 = CARTESIAN_POINT ( 'NONE',  ( 48.50000000000000000, -10.00000000000000711, 8.699999999999995737 ) ) ;
#293 = LINE ( 'NONE', #35, #946 ) ;
#294 = LINE ( 'NONE', #127, #86 ) ;
#295 = CARTESIAN_POINT ( 'NONE',  ( 30.50000000000000000, -10.00000000000000711, 6.599999999999997868 ) ) ;
#296 = ORIENTED_EDGE ( 'NONE', *, *, #367, .T. ) ;
#297 = CARTESIAN_POINT ( 'NONE',  ( 119.0000000000000000, -4.000000000000004441, 10.00000000000000000 ) ) ;
#298 = ORIENTED_EDGE ( 'NONE', *, *, #572, .T. ) ;
#299 = AXIS2_PLACEMENT_3D ( 'NONE', #983, #667, #732 ) ;
#300 = VERTEX_POINT ( 'NONE', #478 ) ;
#301 = CARTESIAN_POINT ( 'NONE',  ( 119.0000000000000000, -4.000000000000003553, 0.9999999999999599209 ) ) ;
#302 = CARTESIAN_POINT ( 'NONE',  ( 119.0000000000000000, 4.000000000000001776, 10.00000000000000000 ) ) ;
#303 = EDGE_CURVE ( 'NONE', #233, #103, #876, .T. ) ;
#304 =( LENGTH_UNIT ( ) NAMED_UNIT ( * ) SI_UNIT ( .MILLI., .METRE. ) );
#305 = FACE_BOUND ( 'NONE', #17, .T. ) ;
#306 = PRESENTATION_STYLE_ASSIGNMENT (( #720 ) ) ;
#307 = LINE ( 'NONE', #875, #588 ) ;
#308 = DIRECTION ( 'NONE',  ( 0.000000000000000000, 8.673617379884036705E-17, -1.000000000000000000 ) ) ;
#309 = VERTEX_POINT ( 'NONE', #784 ) ;
#310 = ORIENTED_EDGE ( 'NONE', *, *, #435, .F. ) ;
#311 = DIRECTION ( 'NONE',  ( -0.000000000000000000, 8.673617379884036705E-17, -1.000000000000000000 ) ) ;
#312 = ORIENTED_EDGE ( 'NONE', *, *, #703, .F. ) ;
#313 = DIRECTION ( 'NONE',  ( -0.000000000000000000, 8.673617379884036705E-17, -1.000000000000000000 ) ) ;
#314 = CARTESIAN_POINT ( 'NONE',  ( 119.0000000000000000, -8.673617379883692811E-17, 0.9999999999999603650 ) ) ;
#315 = EDGE_CURVE ( 'NONE', #184, #390, #707, .T. ) ;
#316 = SURFACE_STYLE_FILL_AREA ( #448 ) ;
#317 = CYLINDRICAL_SURFACE ( 'NONE', #956, 2.099999999999991651 ) ;
#318 = VECTOR ( 'NONE', #882, 1000.000000000000000 ) ;
#319 = ORIENTED_EDGE ( 'NONE', *, *, #199, .T. ) ;
#320 = DIRECTION ( 'NONE',  ( -0.000000000000000000, 8.673617379884036705E-17, -1.000000000000000000 ) ) ;
#321 = ORIENTED_EDGE ( 'NONE', *, *, #114, .T. ) ;
#322 = EDGE_CURVE ( 'NONE', #286, #36, #661, .T. ) ;
#323 = CARTESIAN_POINT ( 'NONE',  ( 69.00000000000000000, -8.673617379883692811E-17, 0.9999999999999603650 ) ) ;
#324 = MECHANICAL_DESIGN_GEOMETRIC_PRESENTATION_REPRESENTATION (  '', ( #269 ), #443 ) ;
#325 = DIRECTION ( 'NONE',  ( -0.000000000000000000, 8.673617379884036705E-17, -1.000000000000000000 ) ) ;
#326 = FACE_OUTER_BOUND ( 'NONE', #402, .T. ) ;
#327 = EDGE_CURVE ( 'NONE', #273, #808, #804, .T. ) ;
#328 = CARTESIAN_POINT ( 'NONE',  ( 93.95000000000000284, -1.734723475976807094E-15, -4.898587196589421087E-17 ) ) ;
#329 = DIRECTION ( 'NONE',  ( 0.000000000000000000, 0.000000000000000000, 1.000000000000000000 ) ) ;
#330 =( NAMED_UNIT ( * ) SI_UNIT ( $, .STERADIAN. ) SOLID_ANGLE_UNIT ( ) );
#331 = SURFACE_STYLE_FILL_AREA ( #188 ) ;
#332 = EDGE_LOOP ( 'NONE', ( #336, #467, #700, #906 ) ) ;
#333 = ORIENTED_EDGE ( 'NONE', *, *, #401, .F. ) ;
#334 = APPLICATION_CONTEXT ( 'automotive_design' ) ;
#335 = PLANE ( 'NONE',  #84 ) ;
#336 = ORIENTED_EDGE ( 'NONE', *, *, #684, .T. ) ;
#337 = EDGE_CURVE ( 'NONE', #270, #390, #374, .T. ) ;
#338 = CARTESIAN_POINT ( 'NONE',  ( 93.95000000000000284, 2.100000000000002753, 1.331600930116709716E-16 ) ) ;
#339 = DIRECTION ( 'NONE',  ( -1.000000000000000000, 0.000000000000000000, 0.000000000000000000 ) ) ;
#340 = LINE ( 'NONE', #666, #136 ) ;
#341 = DIRECTION ( 'NONE',  ( -0.000000000000000000, 1.000000000000000000, 1.084202172485504311E-16 ) ) ;
#342 = AXIS2_PLACEMENT_3D ( 'NONE', #253, #260, #562 ) ;
#343 = ORIENTED_EDGE ( 'NONE', *, *, #623, .T. ) ;
#344 = CARTESIAN_POINT ( 'NONE',  ( 48.50000000000000000, 10.00000000000000000, 4.500000000000006217 ) ) ;
#345 = DIRECTION ( 'NONE',  ( 0.000000000000000000, -1.084202172485504434E-16, 1.000000000000000000 ) ) ;
#346 = EDGE_CURVE ( 'NONE', #679, #24, #307, .T. ) ;
#347 = VERTEX_POINT ( 'NONE', #414 ) ;
#348 = CARTESIAN_POINT ( 'NONE',  ( 69.00000000000000000, 4.000000000000002665, 10.00000000000000000 ) ) ;
#349 = EDGE_LOOP ( 'NONE', ( #608, #580 ) ) ;
#350 = ADVANCED_FACE ( 'NONE', ( #137 ), #830, .F. ) ;
#351 = DIRECTION ( 'NONE',  ( -0.000000000000000000, 1.084202172485504434E-16, -1.000000000000000000 ) ) ;
#352 = ORIENTED_EDGE ( 'NONE', *, *, #367, .F. ) ;
#353 = CARTESIAN_POINT ( 'NONE',  ( 119.0000000000000000, 0.000000000000000000, 0.000000000000000000 ) ) ;
#354 = CARTESIAN_POINT ( 'NONE',  ( 93.95000000000000284, -3.122502256758253164E-15, 16.00000000000000000 ) ) ;
#355 = DIRECTION ( 'NONE',  ( 0.000000000000000000, 1.000000000000000000, 8.673617379884035472E-17 ) ) ;
#356 =( GEOMETRIC_REPRESENTATION_CONTEXT ( 3 ) GLOBAL_UNCERTAINTY_ASSIGNED_CONTEXT ( ( #34 ) ) GLOBAL_UNIT_ASSIGNED_CONTEXT ( ( #514, #911, #924 ) ) REPRESENTATION_CONTEXT ( 'NONE', 'WORKASPACE' ) );
#357 = DIRECTION ( 'NONE',  ( -0.000000000000000000, 1.000000000000000000, 1.084202172485504311E-16 ) ) ;
#358 = CIRCLE ( 'NONE', #561, 4.999999999999963585 ) ;
#359 = CARTESIAN_POINT ( 'NONE',  ( 30.50000000000000000, -10.00000000000000711, 4.500000000000000888 ) ) ;
#360 = FILL_AREA_STYLE ('',( #121 ) ) ;
#361 = AXIS2_PLACEMENT_3D ( 'NONE', #353, #742, #140 ) ;
#362 = LINE ( 'NONE', #741, #487 ) ;
#363 = SURFACE_SIDE_STYLE ('',( #407 ) ) ;
#364 = ORIENTED_EDGE ( 'NONE', *, *, #964, .T. ) ;
#365 = ORIENTED_EDGE ( 'NONE', *, *, #695, .T. ) ;
#366 = CARTESIAN_POINT ( 'NONE',  ( 57.90000000000000568, -10.00000000000000355, -6.505213034913032521E-16 ) ) ;
#367 = EDGE_CURVE ( 'NONE', #616, #675, #721, .T. ) ;
#368 = DIRECTION ( 'NONE',  ( 0.000000000000000000, 8.673617379884036705E-17, -1.000000000000000000 ) ) ;
#369 = STYLED_ITEM ( 'NONE', ( #828 ), #990 ) ;
#370 = ADVANCED_BREP_SHAPE_REPRESENTATION ( '21631_03_188_rotating bracket_3K', ( #486, #235 ), #101 ) ;
#371 = CONICAL_SURFACE ( 'NONE', #250, 4.000000000000003553, 1.029744258676654756 ) ;
#372 = FACE_OUTER_BOUND ( 'NONE', #332, .T. ) ;
#373 = LINE ( 'NONE', #213, #149 ) ;
#374 = LINE ( 'NONE', #104, #31 ) ;
#375 = DIRECTION ( 'NONE',  ( -0.000000000000000000, 8.673617379884036705E-17, -1.000000000000000000 ) ) ;
#376 = ORIENTED_EDGE ( 'NONE', *, *, #265, .T. ) ;
#377 = EDGE_CURVE ( 'NONE', #519, #679, #111, .T. ) ;
#378 = ORIENTED_EDGE ( 'NONE', *, *, #384, .F. ) ;
#379 = DIRECTION ( 'NONE',  ( 0.000000000000000000, 0.000000000000000000, 1.000000000000000000 ) ) ;
#380 = EDGE_LOOP ( 'NONE', ( #15, #510, #11, #376 ) ) ;
#381 =( NAMED_UNIT ( * ) SI_UNIT ( $, .STERADIAN. ) SOLID_ANGLE_UNIT ( ) );
#382 = DIRECTION ( 'NONE',  ( 0.000000000000000000, 1.000000000000000000, 1.084202172485503448E-16 ) ) ;
#383 = CARTESIAN_POINT ( 'NONE',  ( 30.50000000000000000, 10.00000000000000178, 4.500000000000009770 ) ) ;
#384 = EDGE_CURVE ( 'NONE', #233, #88, #294, .T. ) ;
#385 =( NAMED_UNIT ( * ) PLANE_ANGLE_UNIT ( ) SI_UNIT ( $, .RADIAN. ) );
#386 = COLOUR_RGB ( '',0.7921568627450980005, 0.8196078431372548767, 0.9333333333333333481 ) ;
#387 = VECTOR ( 'NONE', #92, 1000.000000000000000 ) ;
#388 = CONICAL_SURFACE ( 'NONE', #670, 4.000000000000003553, 0.7853981633974482790 ) ;
#389 = FACE_OUTER_BOUND ( 'NONE', #545, .T. ) ;
#390 = VERTEX_POINT ( 'NONE', #521 ) ;
#391 = ORIENTED_EDGE ( 'NONE', *, *, #873, .T. ) ;
#392 = AXIS2_PLACEMENT_3D ( 'NONE', #81, #325, #245 ) ;
#393 = VERTEX_POINT ( 'NONE', #292 ) ;
#394 = DIRECTION ( 'NONE',  ( -0.000000000000000000, 8.673617379884036705E-17, -1.000000000000000000 ) ) ;
#395 = AXIS2_PLACEMENT_3D ( 'NONE', #175, #726, #739 ) ;
#396 = SURFACE_STYLE_USAGE ( .BOTH. , #628 ) ;
#397 = LINE ( 'NONE', #715, #646 ) ;
#398 =( LENGTH_UNIT ( ) NAMED_UNIT ( * ) SI_UNIT ( .MILLI., .METRE. ) );
#399 = EDGE_LOOP ( 'NONE', ( #365, #963, #640, #437 ) ) ;
#400 = ORIENTED_EDGE ( 'NONE', *, *, #128, .T. ) ;
#401 = EDGE_CURVE ( 'NONE', #941, #808, #497, .T. ) ;
#402 = EDGE_LOOP ( 'NONE', ( #411, #965, #176, #153 ) ) ;
#403 =( LENGTH_UNIT ( ) NAMED_UNIT ( * ) SI_UNIT ( .MILLI., .METRE. ) );
#404 = CARTESIAN_POINT ( 'NONE',  ( 9.000000000000000000, 10.00000000000000000, 6.600000000000000533 ) ) ;
#405 = AXIS2_PLACEMENT_3D ( 'NONE', #967, #577, #594 ) ;
#406 = UNCERTAINTY_MEASURE_WITH_UNIT (LENGTH_MEASURE( 1.000000000000000082E-05 ), #649, 'distance_accuracy_value', 'NONE');
#407 = SURFACE_STYLE_FILL_AREA ( #750 ) ;
#408 = VECTOR ( 'NONE', #165, 1000.000000000000000 ) ;
#409 = EDGE_LOOP ( 'NONE', ( #25, #554, #609, #725 ) ) ;
#410 = DIRECTION ( 'NONE',  ( -0.000000000000000000, 8.673617379884036705E-17, -1.000000000000000000 ) ) ;
#411 = ORIENTED_EDGE ( 'NONE', *, *, #215, .F. ) ;
#412 = AXIS2_PLACEMENT_3D ( 'NONE', #787, #696, #701 ) ;
#413 = FILL_AREA_STYLE ('',( #633 ) ) ;
#414 = CARTESIAN_POINT ( 'NONE',  ( 119.0000000000000000, -1.075827142311816927E-15, 12.40344247611024286 ) ) ;
#415 = CARTESIAN_POINT ( 'NONE',  ( 69.00000000000000000, 4.999999999999963585, 6.505213034913024632E-16 ) ) ;
#416 = LINE ( 'NONE', #527, #645 ) ;
#417 = EDGE_CURVE ( 'NONE', #567, #36, #791, .T. ) ;
#418 = LINE ( 'NONE', #51, #44 ) ;
#419 = CARTESIAN_POINT ( 'NONE',  ( 48.50000000000000000, -10.00000000000000711, 6.599999999999997868 ) ) ;
#420 = AXIS2_PLACEMENT_3D ( 'NONE', #979, #511, #424 ) ;
#421 = FACE_OUTER_BOUND ( 'NONE', #949, .T. ) ;
#422 = DIRECTION ( 'NONE',  ( 0.000000000000000000, 0.000000000000000000, 1.000000000000000000 ) ) ;
#423 = FACE_BOUND ( 'NONE', #102, .T. ) ;
#424 = DIRECTION ( 'NONE',  ( 0.000000000000000000, -1.000000000000000000, -8.673617379884037937E-17 ) ) ;
#425 = ADVANCED_FACE ( 'NONE', ( #685 ), #251, .F. ) ;
#426 = ORIENTED_EDGE ( 'NONE', *, *, #401, .T. ) ;
#427 = ORIENTED_EDGE ( 'NONE', *, *, #384, .T. ) ;
#428 = CARTESIAN_POINT ( 'NONE',  ( 69.00000000000000000, -2.557875707389296523E-32, 2.168404344971006896E-16 ) ) ;
#429 =( NAMED_UNIT ( * ) SI_UNIT ( $, .STERADIAN. ) SOLID_ANGLE_UNIT ( ) );
#430 = AXIS2_PLACEMENT_3D ( 'NONE', #718, #341, #560 ) ;
#431 = ADVANCED_FACE ( 'NONE', ( #888 ), #851, .F. ) ;
#432 = CARTESIAN_POINT ( 'NONE',  ( 48.50000000000000000, -10.00000000000000711, 4.500000000000000888 ) ) ;
#433 = LINE ( 'NONE', #598, #587 ) ;
#434 = DIRECTION ( 'NONE',  ( 0.000000000000000000, -1.000000000000000000, -8.673617379884036705E-17 ) ) ;
#435 = EDGE_CURVE ( 'NONE', #675, #616, #460, .T. ) ;
#436 = ORIENTED_EDGE ( 'NONE', *, *, #610, .T. ) ;
#437 = ORIENTED_EDGE ( 'NONE', *, *, #843, .T. ) ;
#438 = CARTESIAN_POINT ( 'NONE',  ( 0.000000000000000000, 10.00000000000000178, -16.00000000000000000 ) ) ;
#439 = ORIENTED_EDGE ( 'NONE', *, *, #943, .T. ) ;
#440 = ADVANCED_FACE ( 'NONE', ( #935 ), #899, .F. ) ;
#441 = EDGE_LOOP ( 'NONE', ( #905, #223, #54, #976 ) ) ;
#442 = DIRECTION ( 'NONE',  ( 1.049727191138618696E-16, -0.8571673007021123336, -0.5150380749100540445 ) ) ;
#443 =( GEOMETRIC_REPRESENTATION_CONTEXT ( 3 ) GLOBAL_UNCERTAINTY_ASSIGNED_CONTEXT ( ( #534 ) ) GLOBAL_UNIT_ASSIGNED_CONTEXT ( ( #403, #385, #381 ) ) REPRESENTATION_CONTEXT ( 'NONE', 'WORKASPACE' ) );
#444 = DIRECTION ( 'NONE',  ( 0.000000000000000000, 0.000000000000000000, 1.000000000000000000 ) ) ;
#445 = DIRECTION ( 'NONE',  ( -0.000000000000000000, 1.000000000000000000, 8.673617379884036705E-17 ) ) ;
#446 = LINE ( 'NONE', #297, #671 ) ;
#447 = LINE ( 'NONE', #907, #762 ) ;
#448 = FILL_AREA_STYLE ('',( #839 ) ) ;
#449 =( NAMED_UNIT ( * ) SI_UNIT ( $, .STERADIAN. ) SOLID_ANGLE_UNIT ( ) );
#450 = EDGE_CURVE ( 'NONE', #941, #10, #973, .T. ) ;
#451 = CIRCLE ( 'NONE', #900, 2.099999999999997868 ) ;
#452 = ORIENTED_EDGE ( 'NONE', *, *, #62, .F. ) ;
#453 = EDGE_LOOP ( 'NONE', ( #821, #755, #918, #296 ) ) ;
#454 = CARTESIAN_POINT ( 'NONE',  ( 9.000000000000000000, -10.00000000000000711, 4.500000000000002665 ) ) ;
#455 = EDGE_CURVE ( 'NONE', #809, #567, #532, .T. ) ;
#456 = APPLICATION_PROTOCOL_DEFINITION ( 'draft international standard', 'automotive_design', 1998, #462 ) ;
#457 = COLOUR_RGB ( '',0.8980392156862745390, 0.9176470588235293713, 0.9294117647058823817 ) ;
#458 = DIRECTION ( 'NONE',  ( -0.000000000000000000, 8.673617379884036705E-17, -1.000000000000000000 ) ) ;
#459 = DIRECTION ( 'NONE',  ( 0.000000000000000000, 0.000000000000000000, 1.000000000000000000 ) ) ;
#460 = CIRCLE ( 'NONE', #501, 2.100000000000004530 ) ;
#461 = DIRECTION ( 'NONE',  ( 0.000000000000000000, 1.000000000000000000, 8.673617379884036705E-17 ) ) ;
#462 = APPLICATION_CONTEXT ( 'automotive_design' ) ;
#463 = ORIENTED_EDGE ( 'NONE', *, *, #377, .F. ) ;
#464 = STYLED_ITEM ( 'NONE', ( #600 ), #841 ) ;
#465 = ORIENTED_EDGE ( 'NONE', *, *, #178, .F. ) ;
#466 = DIRECTION ( 'NONE',  ( 0.000000000000000000, 8.673617379884036705E-17, -1.000000000000000000 ) ) ;
#467 = ORIENTED_EDGE ( 'NONE', *, *, #915, .F. ) ;
#468 = AXIS2_PLACEMENT_3D ( 'NONE', #874, #179, #558 ) ;
#469 = CARTESIAN_POINT ( 'NONE',  ( 93.95000000000000284, 2.099999999999996092, 1.821459649775644244E-16 ) ) ;
#470 = DIRECTION ( 'NONE',  ( 0.000000000000000000, 1.000000000000000000, 8.673617379884036705E-17 ) ) ;
#471 = LINE ( 'NONE', #945, #648 ) ;
#472 = FACE_BOUND ( 'NONE', #27, .T. ) ;
#473 = ADVANCED_FACE ( 'NONE', ( #971 ), #261, .T. ) ;
#474 = EDGE_CURVE ( 'NONE', #856, #989, #802, .T. ) ;
#475 = EDGE_LOOP ( 'NONE', ( #266, #28 ) ) ;
#476 = EDGE_LOOP ( 'NONE', ( #242, #881 ) ) ;
#477 = PRODUCT_DEFINITION_FORMATION_WITH_SPECIFIED_SOURCE ( 'ANY', '', #520, .NOT_KNOWN. ) ;
#478 = CARTESIAN_POINT ( 'NONE',  ( 48.50000000000000000, 10.00000000000000178, 4.500000000000009770 ) ) ;
#479 = AXIS2_PLACEMENT_3D ( 'NONE', #782, #612, #859 ) ;
#480 =( NAMED_UNIT ( * ) SI_UNIT ( $, .STERADIAN. ) SOLID_ANGLE_UNIT ( ) );
#481 = SHAPE_DEFINITION_REPRESENTATION ( #650, #370 ) ;
#482 = FACE_BOUND ( 'NONE', #476, .T. ) ;
#483 = ADVANCED_FACE ( 'NONE', ( #613 ), #829, .F. ) ;
#484 = CARTESIAN_POINT ( 'NONE',  ( 119.0000000000000000, -4.999999999999963585, -4.336808689942019708E-16 ) ) ;
#485 = SURFACE_STYLE_FILL_AREA ( #413 ) ;
#486 = MANIFOLD_SOLID_BREP ( 'M5 Gewindebohrung1', #105 ) ;
#487 = VECTOR ( 'NONE', #214, 1000.000000000000114 ) ;
#488 = CARTESIAN_POINT ( 'NONE',  ( 0.000000000000000000, 10.00000000000000178, -16.00000000000000000 ) ) ;
#489 = ORIENTED_EDGE ( 'NONE', *, *, #57, .F. ) ;
#490 = EDGE_CURVE ( 'NONE', #820, #592, #66, .T. ) ;
#491 = CARTESIAN_POINT ( 'NONE',  ( 93.95000000000000284, -2.100000000000006306, -2.311318369434594057E-16 ) ) ;
#492 = EDGE_CURVE ( 'NONE', #656, #286, #373, .T. ) ;
#493 = AXIS2_PLACEMENT_3D ( 'NONE', #717, #496, #41 ) ;
#494 =( NAMED_UNIT ( * ) PLANE_ANGLE_UNIT ( ) SI_UNIT ( $, .RADIAN. ) );
#495 = LINE ( 'NONE', #344, #529 ) ;
#496 = DIRECTION ( 'NONE',  ( -0.000000000000000000, 0.000000000000000000, 1.000000000000000000 ) ) ;
#497 = LINE ( 'NONE', #146, #280 ) ;
#498 = ORIENTED_EDGE ( 'NONE', *, *, #873, .F. ) ;
#499 = FILL_AREA_STYLE_COLOUR ( '', #877 ) ;
#500 = ORIENTED_EDGE ( 'NONE', *, *, #926, .T. ) ;
#501 = AXIS2_PLACEMENT_3D ( 'NONE', #328, #879, #32 ) ;
#502 = ADVANCED_FACE ( 'NONE', ( #863 ), #816, .F. ) ;
#503 =( NAMED_UNIT ( * ) PLANE_ANGLE_UNIT ( ) SI_UNIT ( $, .RADIAN. ) );
#504 = EDGE_CURVE ( 'NONE', #152, #300, #248, .T. ) ;
#505 = COLOUR_RGB ( '',0.7921568627450980005, 0.8196078431372548767, 0.9333333333333333481 ) ;
#506 = FACE_OUTER_BOUND ( 'NONE', #891, .T. ) ;
#507 = PLANE ( 'NONE',  #218 ) ;
#508 = ORIENTED_EDGE ( 'NONE', *, *, #435, .T. ) ;
#509 = ORIENTED_EDGE ( 'NONE', *, *, #474, .F. ) ;
#510 = ORIENTED_EDGE ( 'NONE', *, *, #303, .F. ) ;
#511 = DIRECTION ( 'NONE',  ( 0.000000000000000000, -8.673617379884036705E-17, 1.000000000000000000 ) ) ;
#512 = AXIS2_PLACEMENT_3D ( 'NONE', #271, #904, #208 ) ;
#513 = CARTESIAN_POINT ( 'NONE',  ( 69.00000000000000000, -8.673617379884037444E-16, 10.00000000000000000 ) ) ;
#514 =( LENGTH_UNIT ( ) NAMED_UNIT ( * ) SI_UNIT ( .MILLI., .METRE. ) );
#515 = LINE ( 'NONE', #262, #719 ) ;
#516 =( GEOMETRIC_REPRESENTATION_CONTEXT ( 3 ) GLOBAL_UNCERTAINTY_ASSIGNED_CONTEXT ( ( #599 ) ) GLOBAL_UNIT_ASSIGNED_CONTEXT ( ( #205, #284, #191 ) ) REPRESENTATION_CONTEXT ( 'NONE', 'WORKASPACE' ) );
#517 = VECTOR ( 'NONE', #29, 1000.000000000000000 ) ;
#518 = CARTESIAN_POINT ( 'NONE',  ( 0.000000000000000000, -9.999999999999998224, -16.00000000000000000 ) ) ;
#519 = VERTEX_POINT ( 'NONE', #604 ) ;
#520 = PRODUCT ( '21631_03_188_rotating bracket_3K', '21631_03_188_rotating bracket_3K', '', ( #691 ) ) ;
#521 = CARTESIAN_POINT ( 'NONE',  ( 30.50000000000000000, 10.00000000000000178, 8.699999999999992184 ) ) ;
#522 = EDGE_LOOP ( 'NONE', ( #452, #740, #639, #868 ) ) ;
#523 = CARTESIAN_POINT ( 'NONE',  ( 93.95000000000000284, -2.099999999999999645, -1.821459649775647203E-16 ) ) ;
#524 = EDGE_CURVE ( 'NONE', #581, #254, #238, .T. ) ;
#525 = DIRECTION ( 'NONE',  ( 0.000000000000000000, -1.000000000000000000, -1.084202172485503448E-16 ) ) ;
#526 = MECHANICAL_DESIGN_GEOMETRIC_PRESENTATION_REPRESENTATION (  '', ( #575 ), #895 ) ;
#527 = CARTESIAN_POINT ( 'NONE',  ( 130.0000000000000000, -10.00000000000000355, -6.505213034913032521E-16 ) ) ;
#528 = CARTESIAN_POINT ( 'NONE',  ( 119.0000000000000000, -8.673617379884037444E-16, 10.00000000000000000 ) ) ;
#529 = VECTOR ( 'NONE', #108, 1000.000000000000000 ) ;
#530 =( NAMED_UNIT ( * ) PLANE_ANGLE_UNIT ( ) SI_UNIT ( $, .RADIAN. ) );
#531 = AXIS2_PLACEMENT_3D ( 'NONE', #749, #289, #992 ) ;
#532 = LINE ( 'NONE', #944, #387 ) ;
#533 = EDGE_LOOP ( 'NONE', ( #793, #866, #319, #378, #664, #500 ) ) ;
#534 = UNCERTAINTY_MEASURE_WITH_UNIT (LENGTH_MEASURE( 1.000000000000000082E-05 ), #403, 'distance_accuracy_value', 'NONE');
#535 = ORIENTED_EDGE ( 'NONE', *, *, #677, .F. ) ;
#536 =( LENGTH_UNIT ( ) NAMED_UNIT ( * ) SI_UNIT ( .MILLI., .METRE. ) );
#537 = DIRECTION ( 'NONE',  ( 0.000000000000000000, 8.673617379884036705E-17, -1.000000000000000000 ) ) ;
#538 = EDGE_CURVE ( 'NONE', #115, #856, #471, .T. ) ;
#539 = CARTESIAN_POINT ( 'NONE',  ( 30.50000000000000000, 10.00000000000000000, 6.600000000000000533 ) ) ;
#540 = VECTOR ( 'NONE', #67, 1000.000000000000000 ) ;
#541 = COLOUR_RGB ( '',0.7921568627450980005, 0.8196078431372548767, 0.9333333333333333481 ) ;
#542 = EDGE_CURVE ( 'NONE', #112, #809, #840, .T. ) ;
#543 = DIRECTION ( 'NONE',  ( 0.000000000000000000, -1.000000000000000000, -8.673617379884037937E-17 ) ) ;
#544 = PRESENTATION_LAYER_ASSIGNMENT (  '', '', ( #575 ) ) ;
#545 = EDGE_LOOP ( 'NONE', ( #777, #928, #298, #16, #756, #287 ) ) ;
#546 = DIRECTION ( 'NONE',  ( 0.000000000000000000, 0.000000000000000000, 1.000000000000000000 ) ) ;
#547 = MECHANICAL_DESIGN_GEOMETRIC_PRESENTATION_REPRESENTATION (  '', ( #212 ), #516 ) ;
#548 = ADVANCED_FACE ( 'NONE', ( #421 ), #886, .F. ) ;
#549 = COLOUR_RGB ( '',0.7921568627450980005, 0.8196078431372548767, 0.9333333333333333481 ) ;
#550 = COLOUR_RGB ( '',0.7921568627450980005, 0.8196078431372548767, 0.9333333333333333481 ) ;
#551 = CARTESIAN_POINT ( 'NONE',  ( 69.00000000000000000, 4.000000000000001776, 10.00000000000000000 ) ) ;
#552 = EDGE_CURVE ( 'NONE', #820, #616, #621, .T. ) ;
#553 = ORIENTED_EDGE ( 'NONE', *, *, #744, .T. ) ;
#554 = ORIENTED_EDGE ( 'NONE', *, *, #74, .F. ) ;
#555 = UNCERTAINTY_MEASURE_WITH_UNIT (LENGTH_MEASURE( 1.000000000000000082E-05 ), #571, 'distance_accuracy_value', 'NONE');
#556 = FILL_AREA_STYLE ('',( #948 ) ) ;
#557 = ORIENTED_EDGE ( 'NONE', *, *, #128, .F. ) ;
#558 = DIRECTION ( 'NONE',  ( 0.000000000000000000, 1.000000000000000000, 0.000000000000000000 ) ) ;
#559 = DIRECTION ( 'NONE',  ( -0.000000000000000000, 0.000000000000000000, 1.000000000000000000 ) ) ;
#560 = DIRECTION ( 'NONE',  ( 0.000000000000000000, 0.000000000000000000, 1.000000000000000000 ) ) ;
#561 = AXIS2_PLACEMENT_3D ( 'NONE', #428, #586, #659 ) ;
#562 = DIRECTION ( 'NONE',  ( 0.000000000000000000, 1.000000000000000000, 0.000000000000000000 ) ) ;
#563 = CYLINDRICAL_SURFACE ( 'NONE', #94, 4.000000000000003553 ) ;
#564 = LINE ( 'NONE', #627, #517 ) ;
#565 = DIRECTION ( 'NONE',  ( 0.000000000000000000, -1.000000000000000000, 0.000000000000000000 ) ) ;
#566 = DIRECTION ( 'NONE',  ( -0.000000000000000000, 1.000000000000000000, 1.084202172485504311E-16 ) ) ;
#567 = VERTEX_POINT ( 'NONE', #168 ) ;
#568 = AXIS2_PLACEMENT_3D ( 'NONE', #652, #263, #194 ) ;
#569 = ORIENTED_EDGE ( 'NONE', *, *, #450, .F. ) ;
#570 = DIRECTION ( 'NONE',  ( 1.000000000000000000, 0.000000000000000000, 0.000000000000000000 ) ) ;
#571 =( LENGTH_UNIT ( ) NAMED_UNIT ( * ) SI_UNIT ( .MILLI., .METRE. ) );
#572 = EDGE_CURVE ( 'NONE', #309, #679, #815, .T. ) ;
#573 = CARTESIAN_POINT ( 'NONE',  ( 69.00000000000000000, -8.673617379883692811E-17, 0.9999999999999603650 ) ) ;
#574 = LINE ( 'NONE', #518, #540 ) ;
#575 = STYLED_ITEM ( 'NONE', ( #276 ), #370 ) ;
#576 = CYLINDRICAL_SURFACE ( 'NONE', #20, 2.099999999999995204 ) ;
#577 = DIRECTION ( 'NONE',  ( -0.000000000000000000, 1.000000000000000000, 1.084202172485504311E-16 ) ) ;
#578 = EDGE_LOOP ( 'NONE', ( #352, #310 ) ) ;
#579 = DIRECTION ( 'NONE',  ( 0.000000000000000000, 0.000000000000000000, -1.000000000000000000 ) ) ;
#580 = ORIENTED_EDGE ( 'NONE', *, *, #450, .T. ) ;
#581 = VERTEX_POINT ( 'NONE', #778 ) ;
#582 = AXIS2_PLACEMENT_3D ( 'NONE', #573, #80, #629 ) ;
#583 = SURFACE_STYLE_USAGE ( .BOTH. , #647 ) ;
#584 = CARTESIAN_POINT ( 'NONE',  ( 9.000000000000000000, 10.00000000000000178, 4.500000000000013323 ) ) ;
#585 = CARTESIAN_POINT ( 'NONE',  ( 9.000000000000000000, 10.00000000000000000, 8.699999999999992184 ) ) ;
#586 = DIRECTION ( 'NONE',  ( 0.000000000000000000, -8.673617379884036705E-17, 1.000000000000000000 ) ) ;
#587 = VECTOR ( 'NONE', #606, 1000.000000000000000 ) ;
#588 = VECTOR ( 'NONE', #113, 1000.000000000000000 ) ;
#589 = VECTOR ( 'NONE', #822, 1000.000000000000000 ) ;
#590 = FILL_AREA_STYLE_COLOUR ( '', #264 ) ;
#591 = ORIENTED_EDGE ( 'NONE', *, *, #6, .T. ) ;
#592 = VERTEX_POINT ( 'NONE', #30 ) ;
#593 = EDGE_CURVE ( 'NONE', #46, #233, #788, .T. ) ;
#594 = DIRECTION ( 'NONE',  ( 0.000000000000000000, 0.000000000000000000, 1.000000000000000000 ) ) ;
#595 = EDGE_LOOP ( 'NONE', ( #977, #200, #642, #710 ) ) ;
#596 = PRODUCT_DEFINITION ( 'UNKNOWN', '', #477, #681 ) ;
#597 = DIRECTION ( 'NONE',  ( 0.000000000000000000, -1.000000000000000000, -1.084202172485504311E-16 ) ) ;
#598 = CARTESIAN_POINT ( 'NONE',  ( 130.0000000000000000, -9.999999999999998224, -16.00000000000000000 ) ) ;
#599 = UNCERTAINTY_MEASURE_WITH_UNIT (LENGTH_MEASURE( 1.000000000000000082E-05 ), #205, 'distance_accuracy_value', 'NONE');
#600 = PRESENTATION_STYLE_ASSIGNMENT (( #982 ) ) ;
#601 = FACE_OUTER_BOUND ( 'NONE', #380, .T. ) ;
#602 = STYLED_ITEM ( 'NONE', ( #763 ), #548 ) ;
#603 = SURFACE_STYLE_FILL_AREA ( #556 ) ;
#604 = CARTESIAN_POINT ( 'NONE',  ( 0.000000000000000000, -9.999999999999998224, -16.00000000000000000 ) ) ;
#605 = CIRCLE ( 'NONE', #630, 2.099999999999997868 ) ;
#606 = DIRECTION ( 'NONE',  ( -1.000000000000000000, -0.000000000000000000, -0.000000000000000000 ) ) ;
#607 = ORIENTED_EDGE ( 'NONE', *, *, #327, .F. ) ;
#608 = ORIENTED_EDGE ( 'NONE', *, *, #282, .T. ) ;
#609 = ORIENTED_EDGE ( 'NONE', *, *, #455, .T. ) ;
#610 = EDGE_CURVE ( 'NONE', #617, #82, #277, .T. ) ;
#611 = DIRECTION ( 'NONE',  ( 1.000000000000000000, 0.000000000000000000, 0.000000000000000000 ) ) ;
#612 = DIRECTION ( 'NONE',  ( -0.000000000000000000, 8.673617379884036705E-17, -1.000000000000000000 ) ) ;
#613 = FACE_OUTER_BOUND ( 'NONE', #833, .T. ) ;
#614 =( NAMED_UNIT ( * ) PLANE_ANGLE_UNIT ( ) SI_UNIT ( $, .RADIAN. ) );
#615 = COLOUR_RGB ( '',0.7921568627450980005, 0.8196078431372548767, 0.9333333333333333481 ) ;
#616 = VERTEX_POINT ( 'NONE', #338 ) ;
#617 = VERTEX_POINT ( 'NONE', #415 ) ;
#618 = VERTEX_POINT ( 'NONE', #641 ) ;
#619 = AXIS2_PLACEMENT_3D ( 'NONE', #19, #942, #106 ) ;
#620 = DIRECTION ( 'NONE',  ( -0.000000000000000000, 8.673617379884036705E-17, -1.000000000000000000 ) ) ;
#621 = LINE ( 'NONE', #469, #5 ) ;
#622 = VECTOR ( 'NONE', #320, 1000.000000000000000 ) ;
#623 = EDGE_CURVE ( 'NONE', #796, #300, #495, .T. ) ;
#624 = FACE_BOUND ( 'NONE', #475, .T. ) ;
#625 = ORIENTED_EDGE ( 'NONE', *, *, #91, .F. ) ;
#626 = ORIENTED_EDGE ( 'NONE', *, *, #610, .F. ) ;
#627 = CARTESIAN_POINT ( 'NONE',  ( 57.90000000000000568, -10.00000000000000355, -6.505213034913032521E-16 ) ) ;
#628 = SURFACE_SIDE_STYLE ('',( #180 ) ) ;
#629 = DIRECTION ( 'NONE',  ( 0.000000000000000000, -1.000000000000000000, -1.084202172485503448E-16 ) ) ;
#630 = AXIS2_PLACEMENT_3D ( 'NONE', #295, #826, #901 ) ;
#631 = FILL_AREA_STYLE_COLOUR ( '', #933 ) ;
#632 = DIRECTION ( 'NONE',  ( 0.000000000000000000, 1.000000000000000000, 8.673617379884036705E-17 ) ) ;
#633 = FILL_AREA_STYLE_COLOUR ( '', #615 ) ;
#634 = UNCERTAINTY_MEASURE_WITH_UNIT (LENGTH_MEASURE( 1.000000000000000082E-05 ), #304, 'distance_accuracy_value', 'NONE');
#635 = VECTOR ( 'NONE', #7, 1000.000000000000000 ) ;
#636 = CARTESIAN_POINT ( 'NONE',  ( 9.000000000000000000, 10.00000000000000178, 6.600000000000000533 ) ) ;
#637 = FACE_OUTER_BOUND ( 'NONE', #595, .T. ) ;
#638 = EDGE_CURVE ( 'NONE', #347, #112, #914, .T. ) ;
#639 = ORIENTED_EDGE ( 'NONE', *, *, #315, .T. ) ;
#640 = ORIENTED_EDGE ( 'NONE', *, *, #243, .F. ) ;
#641 = CARTESIAN_POINT ( 'NONE',  ( 69.00000000000000000, -1.075827142311816927E-15, 12.40344247611024286 ) ) ;
#642 = ORIENTED_EDGE ( 'NONE', *, *, #417, .F. ) ;
#643 = EDGE_CURVE ( 'NONE', #47, #115, #969, .T. ) ;
#644 = CARTESIAN_POINT ( 'NONE',  ( 119.0000000000000000, 0.000000000000000000, 0.000000000000000000 ) ) ;
#645 = VECTOR ( 'NONE', #445, 1000.000000000000000 ) ;
#646 = VECTOR ( 'NONE', #801, 1000.000000000000000 ) ;
#647 = SURFACE_SIDE_STYLE ('',( #485 ) ) ;
#648 = VECTOR ( 'NONE', #620, 1000.000000000000000 ) ;
#649 =( LENGTH_UNIT ( ) NAMED_UNIT ( * ) SI_UNIT ( .MILLI., .METRE. ) );
#650 = PRODUCT_DEFINITION_SHAPE ( 'NONE', 'NONE',  #596 ) ;
#651 = FACE_OUTER_BOUND ( 'NONE', #533, .T. ) ;
#652 = CARTESIAN_POINT ( 'NONE',  ( 30.50000000000000000, 10.00000000000000178, 6.600000000000000533 ) ) ;
#653 = ORIENTED_EDGE ( 'NONE', *, *, #91, .T. ) ;
#654 = STYLED_ITEM ( 'NONE', ( #306 ), #486 ) ;
#655 = DIRECTION ( 'NONE',  ( 0.000000000000000000, 0.000000000000000000, 1.000000000000000000 ) ) ;
#656 = VERTEX_POINT ( 'NONE', #107 ) ;
#657 = CARTESIAN_POINT ( 'NONE',  ( 57.90000000000000568, -10.00000000000000355, -6.505213034913032521E-16 ) ) ;
#658 = CARTESIAN_POINT ( 'NONE',  ( 48.50000000000000000, 10.00000000000000000, 8.699999999999995737 ) ) ;
#659 = DIRECTION ( 'NONE',  ( 0.000000000000000000, -1.000000000000000000, -8.673617379884037937E-17 ) ) ;
#660 =( NAMED_UNIT ( * ) PLANE_ANGLE_UNIT ( ) SI_UNIT ( $, .RADIAN. ) );
#661 = LINE ( 'NONE', #800, #408 ) ;
#662 = ORIENTED_EDGE ( 'NONE', *, *, #417, .T. ) ;
#663 = ADVANCED_FACE ( 'NONE', ( #159 ), #955, .F. ) ;
#664 = ORIENTED_EDGE ( 'NONE', *, *, #303, .T. ) ;
#665 = PRESENTATION_LAYER_ASSIGNMENT (  '', '', ( #369 ) ) ;
#666 = CARTESIAN_POINT ( 'NONE',  ( 0.000000000000000000, 9.999999999999998224, 16.00000000000000000 ) ) ;
#667 = DIRECTION ( 'NONE',  ( -0.000000000000000000, 8.673617379884036705E-17, -1.000000000000000000 ) ) ;
#668 = ADVANCED_FACE ( 'NONE', ( #697 ), #958, .F. ) ;
#669 = CARTESIAN_POINT ( 'NONE',  ( 69.00000000000000000, 0.000000000000000000, 0.000000000000000000 ) ) ;
#670 = AXIS2_PLACEMENT_3D ( 'NONE', #857, #308, #382 ) ;
#671 = VECTOR ( 'NONE', #442, 1000.000000000000114 ) ;
#672 = ADVANCED_FACE ( 'NONE', ( #326 ), #563, .F. ) ;
#673 = FACE_OUTER_BOUND ( 'NONE', #174, .T. ) ;
#674 = CARTESIAN_POINT ( 'NONE',  ( 9.000000000000000000, 10.00000000000000000, 6.600000000000000533 ) ) ;
#675 = VERTEX_POINT ( 'NONE', #491 ) ;
#676 = ORIENTED_EDGE ( 'NONE', *, *, #552, .F. ) ;
#677 = EDGE_CURVE ( 'NONE', #47, #989, #293, .T. ) ;
#678 = SURFACE_STYLE_USAGE ( .BOTH. , #133 ) ;
#679 = VERTEX_POINT ( 'NONE', #488 ) ;
#680 = SURFACE_SIDE_STYLE ('',( #316 ) ) ;
#681 = PRODUCT_DEFINITION_CONTEXT ( 'detailed design', #334, 'design' ) ;
#682 = DIRECTION ( 'NONE',  ( -0.000000000000000000, 1.000000000000000000, 1.084202172485504311E-16 ) ) ;
#683 = CIRCLE ( 'NONE', #985, 2.099999999999990763 ) ;
#684 = EDGE_CURVE ( 'NONE', #254, #39, #925, .T. ) ;
#685 = FACE_OUTER_BOUND ( 'NONE', #126, .T. ) ;
#686 = CARTESIAN_POINT ( 'NONE',  ( 69.00000000000000000, 4.000000000000003553, 0.9999999999999608091 ) ) ;
#687 = ORIENTED_EDGE ( 'NONE', *, *, #978, .F. ) ;
#688 = ORIENTED_EDGE ( 'NONE', *, *, #825, .F. ) ;
#689 = ORIENTED_EDGE ( 'NONE', *, *, #926, .F. ) ;
#690 = EDGE_CURVE ( 'NONE', #989, #617, #515, .T. ) ;
#691 = PRODUCT_CONTEXT ( 'NONE', #462, 'mechanical' ) ;
#692 = CARTESIAN_POINT ( 'NONE',  ( 57.90000000000000568, -10.00000000000000355, -6.505213034913032521E-16 ) ) ;
#693 = ADVANCED_FACE ( 'NONE', ( #862 ), #335, .F. ) ;
#694 = CARTESIAN_POINT ( 'NONE',  ( 130.0000000000000000, 9.999999999999998224, 16.00000000000000000 ) ) ;
#695 = EDGE_CURVE ( 'NONE', #309, #254, #397, .T. ) ;
#696 = DIRECTION ( 'NONE',  ( -0.000000000000000000, 8.673617379884036705E-17, -1.000000000000000000 ) ) ;
#697 = FACE_OUTER_BOUND ( 'NONE', #70, .T. ) ;
#698 = PRESENTATION_STYLE_ASSIGNMENT (( #583 ) ) ;
#699 = PRESENTATION_STYLE_ASSIGNMENT (( #259 ) ) ;
#700 = ORIENTED_EDGE ( 'NONE', *, *, #199, .F. ) ;
#701 = DIRECTION ( 'NONE',  ( 0.000000000000000000, 1.000000000000000000, 0.000000000000000000 ) ) ;
#702 = ORIENTED_EDGE ( 'NONE', *, *, #215, .T. ) ;
#703 = EDGE_CURVE ( 'NONE', #592, #820, #683, .T. ) ;
#704 = DIRECTION ( 'NONE',  ( 0.000000000000000000, 0.000000000000000000, 1.000000000000000000 ) ) ;
#705 = FACE_OUTER_BOUND ( 'NONE', #522, .T. ) ;
#706 = EDGE_CURVE ( 'NONE', #36, #567, #220, .T. ) ;
#707 = CIRCLE ( 'NONE', #568, 2.099999999999991651 ) ;
#708 = CARTESIAN_POINT ( 'NONE',  ( 9.000000000000000000, -10.00000000000000711, 6.599999999999997868 ) ) ;
#709 = CARTESIAN_POINT ( 'NONE',  ( 0.000000000000000000, 0.000000000000000000, 0.000000000000000000 ) ) ;
#710 = ORIENTED_EDGE ( 'NONE', *, *, #455, .F. ) ;
#711 = DIRECTION ( 'NONE',  ( 0.000000000000000000, -1.000000000000000000, -8.673617379884037937E-17 ) ) ;
#712 = DIRECTION ( 'NONE',  ( -1.000000000000000000, -0.000000000000000000, -0.000000000000000000 ) ) ;
#713 = EDGE_LOOP ( 'NONE', ( #312, #201, #508, #676 ) ) ;
#714 = ORIENTED_EDGE ( 'NONE', *, *, #915, .T. ) ;
#715 = CARTESIAN_POINT ( 'NONE',  ( 57.90000000000000568, 10.00000000000000000, 1.084202172485504237E-15 ) ) ;
#716 = AXIS2_PLACEMENT_3D ( 'NONE', #813, #966, #711 ) ;
#717 = CARTESIAN_POINT ( 'NONE',  ( 130.0000000000000000, 10.00000000000000178, -16.00000000000000000 ) ) ;
#718 = CARTESIAN_POINT ( 'NONE',  ( 48.50000000000000000, -10.00000000000000711, 6.599999999999997868 ) ) ;
#719 = VECTOR ( 'NONE', #799, 1000.000000000000000 ) ;
#720 = SURFACE_STYLE_USAGE ( .BOTH. , #363 ) ;
#721 = CIRCLE ( 'NONE', #299, 2.100000000000004530 ) ;
#722 = AXIS2_PLACEMENT_3D ( 'NONE', #708, #947, #48 ) ;
#723 = FACE_OUTER_BOUND ( 'NONE', #125, .T. ) ;
#724 = ORIENTED_EDGE ( 'NONE', *, *, #858, .F. ) ;
#725 = ORIENTED_EDGE ( 'NONE', *, *, #706, .F. ) ;
#726 = DIRECTION ( 'NONE',  ( -0.000000000000000000, 1.000000000000000000, 1.084202172485504311E-16 ) ) ;
#727 = DIRECTION ( 'NONE',  ( 0.000000000000000000, 0.8571673007021124446, -0.5150380749100538225 ) ) ;
#728 = EDGE_CURVE ( 'NONE', #618, #47, #147, .T. ) ;
#729 = CARTESIAN_POINT ( 'NONE',  ( 130.0000000000000000, -9.999999999999998224, -16.00000000000000000 ) ) ;
#730 = AXIS2_PLACEMENT_3D ( 'NONE', #3, #368, #525 ) ;
#731 = CARTESIAN_POINT ( 'NONE',  ( 48.50000000000000000, 10.00000000000000178, 8.699999999999992184 ) ) ;
#732 = DIRECTION ( 'NONE',  ( 0.000000000000000000, 1.000000000000000000, 8.673617379884036705E-17 ) ) ;
#733 = CIRCLE ( 'NONE', #512, 4.000000000000003553 ) ;
#734 = CARTESIAN_POINT ( 'NONE',  ( 9.000000000000000000, -10.00000000000000711, 8.699999999999993960 ) ) ;
#735 = PLANE ( 'NONE',  #183 ) ;
#736 =( LENGTH_UNIT ( ) NAMED_UNIT ( * ) SI_UNIT ( .MILLI., .METRE. ) );
#737 = EDGE_LOOP ( 'NONE', ( #662, #118 ) ) ;
#738 = STYLED_ITEM ( 'NONE', ( #699 ), #124 ) ;
#739 = DIRECTION ( 'NONE',  ( 0.000000000000000000, 0.000000000000000000, 1.000000000000000000 ) ) ;
#740 = ORIENTED_EDGE ( 'NONE', *, *, #754, .T. ) ;
#741 = CARTESIAN_POINT ( 'NONE',  ( 69.00000000000000000, -4.000000000000004441, 10.00000000000000000 ) ) ;
#742 = DIRECTION ( 'NONE',  ( -0.000000000000000000, 8.673617379884036705E-17, -1.000000000000000000 ) ) ;
#743 = DIRECTION ( 'NONE',  ( 0.000000000000000000, 1.000000000000000000, 0.000000000000000000 ) ) ;
#744 = EDGE_CURVE ( 'NONE', #82, #617, #358, .T. ) ;
#745 = DIRECTION ( 'NONE',  ( -0.000000000000000000, 1.000000000000000000, 1.084202172485504311E-16 ) ) ;
#746 = FACE_OUTER_BOUND ( 'NONE', #766, .T. ) ;
#747 = ADVANCED_FACE ( 'NONE', ( #305, #23, #64, #372 ), #507, .F. ) ;
#748 = FACE_OUTER_BOUND ( 'NONE', #441, .T. ) ;
#749 = CARTESIAN_POINT ( 'NONE',  ( 93.95000000000000284, -3.122502256758253164E-15, 16.00000000000000000 ) ) ;
#750 = FILL_AREA_STYLE ('',( #590 ) ) ;
#751 = CARTESIAN_POINT ( 'NONE',  ( 30.50000000000000000, -10.00000000000000711, 6.599999999999997868 ) ) ;
#752 = CIRCLE ( 'NONE', #430, 2.099999999999997868 ) ;
#753 = DIRECTION ( 'NONE',  ( -0.000000000000000000, 8.673617379884036705E-17, -1.000000000000000000 ) ) ;
#754 = EDGE_CURVE ( 'NONE', #163, #184, #418, .T. ) ;
#755 = ORIENTED_EDGE ( 'NONE', *, *, #490, .F. ) ;
#756 = ORIENTED_EDGE ( 'NONE', *, *, #265, .F. ) ;
#757 = DIRECTION ( 'NONE',  ( -0.000000000000000000, 8.673617379884036705E-17, -1.000000000000000000 ) ) ;
#758 = DIRECTION ( 'NONE',  ( 0.000000000000000000, 0.000000000000000000, 1.000000000000000000 ) ) ;
#759 = DIRECTION ( 'NONE',  ( -0.000000000000000000, 1.000000000000000000, 1.084202172485504311E-16 ) ) ;
#760 = CARTESIAN_POINT ( 'NONE',  ( 119.0000000000000000, -8.673617379884037444E-16, 10.00000000000000000 ) ) ;
#761 = AXIS2_PLACEMENT_3D ( 'NONE', #528, #394, #232 ) ;
#762 = VECTOR ( 'NONE', #345, 1000.000000000000000 ) ;
#763 = PRESENTATION_STYLE_ASSIGNMENT (( #396 ) ) ;
#764 = DIRECTION ( 'NONE',  ( 0.000000000000000000, 1.000000000000000000, 0.000000000000000000 ) ) ;
#765 = CONICAL_SURFACE ( 'NONE', #468, 4.000000000000003553, 1.029744258676654756 ) ;
#766 = EDGE_LOOP ( 'NONE', ( #465, #241, #224 ) ) ;
#767 = EDGE_LOOP ( 'NONE', ( #142, #625 ) ) ;
#768 =( NAMED_UNIT ( * ) SI_UNIT ( $, .STERADIAN. ) SOLID_ANGLE_UNIT ( ) );
#769 = EDGE_LOOP ( 'NONE', ( #688, #867, #463, #689 ) ) ;
#770 = CARTESIAN_POINT ( 'NONE',  ( 69.00000000000000000, 0.000000000000000000, 0.000000000000000000 ) ) ;
#771 =( LENGTH_UNIT ( ) NAMED_UNIT ( * ) SI_UNIT ( .MILLI., .METRE. ) );
#772 = UNCERTAINTY_MEASURE_WITH_UNIT (LENGTH_MEASURE( 1.000000000000000082E-05 ), #239, 'distance_accuracy_value', 'NONE');
#773 = DIRECTION ( 'NONE',  ( 0.000000000000000000, 0.000000000000000000, 1.000000000000000000 ) ) ;
#774 = MECHANICAL_DESIGN_GEOMETRIC_PRESENTATION_REPRESENTATION (  '', ( #135 ), #356 ) ;
#775 = LINE ( 'NONE', #523, #889 ) ;
#776 = CARTESIAN_POINT ( 'NONE',  ( 119.0000000000000000, -2.557875707389296523E-32, 2.168404344971006896E-16 ) ) ;
#777 = ORIENTED_EDGE ( 'NONE', *, *, #684, .F. ) ;
#778 = CARTESIAN_POINT ( 'NONE',  ( 57.90000000000000568, -10.00000000000000355, -6.505213034913032521E-16 ) ) ;
#779 = ORIENTED_EDGE ( 'NONE', *, *, #492, .F. ) ;
#780 = CARTESIAN_POINT ( 'NONE',  ( 57.90000000000000568, 10.00000000000000000, 1.084202172485504237E-15 ) ) ;
#781 = AXIS2_PLACEMENT_3D ( 'NONE', #323, #236, #156 ) ;
#782 = CARTESIAN_POINT ( 'NONE',  ( 119.0000000000000000, -8.673617379884037444E-16, 10.00000000000000000 ) ) ;
#783 = ADVANCED_FACE ( 'NONE', ( #482, #601 ), #735, .F. ) ;
#784 = CARTESIAN_POINT ( 'NONE',  ( 57.90000000000000568, 10.00000000000000178, -16.00000000000000000 ) ) ;
#785 = CIRCLE ( 'NONE', #730, 4.000000000000003553 ) ;
#786 = EDGE_CURVE ( 'NONE', #989, #856, #733, .T. ) ;
#787 = CARTESIAN_POINT ( 'NONE',  ( 119.0000000000000000, -8.673617379884037444E-16, 10.00000000000000000 ) ) ;
#788 = LINE ( 'NONE', #694, #96 ) ;
#789 = AXIS2_PLACEMENT_3D ( 'NONE', #806, #339, #884 ) ;
#790 = DIRECTION ( 'NONE',  ( -0.000000000000000000, 1.000000000000000000, 1.084202172485504311E-16 ) ) ;
#791 = CIRCLE ( 'NONE', #923, 4.999999999999963585 ) ;
#792 = EDGE_LOOP ( 'NONE', ( #931, #255 ) ) ;
#793 = ORIENTED_EDGE ( 'NONE', *, *, #943, .F. ) ;
#794 = CARTESIAN_POINT ( 'NONE',  ( 48.50000000000000000, 10.00000000000000000, 6.600000000000000533 ) ) ;
#795 = FILL_AREA_STYLE_COLOUR ( '', #505 ) ;
#796 = VERTEX_POINT ( 'NONE', #432 ) ;
#797 = STYLED_ITEM ( 'NONE', ( #986 ), #350 ) ;
#798 = SURFACE_SIDE_STYLE ('',( #968 ) ) ;
#799 = DIRECTION ( 'NONE',  ( 0.000000000000000000, 0.7071067811865476838, -0.7071067811865474617 ) ) ;
#800 = CARTESIAN_POINT ( 'NONE',  ( 119.0000000000000000, -4.000000000000003553, 0.9999999999999599209 ) ) ;
#801 = DIRECTION ( 'NONE',  ( -0.000000000000000000, -1.084202172485504434E-16, 1.000000000000000000 ) ) ;
#802 = CIRCLE ( 'NONE', #582, 4.000000000000003553 ) ;
#803 = PRESENTATION_LAYER_ASSIGNMENT (  '', '', ( #602 ) ) ;
#804 = CIRCLE ( 'NONE', #14, 2.099999999999988098 ) ;
#805 = ORIENTED_EDGE ( 'NONE', *, *, #377, .T. ) ;
#806 = CARTESIAN_POINT ( 'NONE',  ( 130.0000000000000000, 0.000000000000000000, 0.000000000000000000 ) ) ;
#807 = ORIENTED_EDGE ( 'NONE', *, *, #178, .T. ) ;
#808 = VERTEX_POINT ( 'NONE', #584 ) ;
#809 = VERTEX_POINT ( 'NONE', #204 ) ;
#810 = DIRECTION ( 'NONE',  ( -0.000000000000000000, 8.673617379884036705E-17, -1.000000000000000000 ) ) ;
#811 = DIRECTION ( 'NONE',  ( -0.000000000000000000, 1.000000000000000000, 1.084202172485504311E-16 ) ) ;
#812 = EDGE_CURVE ( 'NONE', #39, #46, #447, .T. ) ;
#813 = CARTESIAN_POINT ( 'NONE',  ( 69.00000000000000000, -2.557875707389296523E-32, 2.168404344971006896E-16 ) ) ;
#814 = CYLINDRICAL_SURFACE ( 'NONE', #932, 2.099999999999995204 ) ;
#815 = LINE ( 'NONE', #181, #110 ) ;
#816 = CONICAL_SURFACE ( 'NONE', #12, 4.000000000000003553, 0.7853981633974482790 ) ;
#817 = PRESENTATION_LAYER_ASSIGNMENT (  '', '', ( #738 ) ) ;
#818 = FACE_BOUND ( 'NONE', #767, .T. ) ;
#819 = ORIENTED_EDGE ( 'NONE', *, *, #690, .F. ) ;
#820 = VERTEX_POINT ( 'NONE', #896 ) ;
#821 = ORIENTED_EDGE ( 'NONE', *, *, #166, .F. ) ;
#822 = DIRECTION ( 'NONE',  ( -0.000000000000000000, 1.000000000000000000, 1.084202172485504311E-16 ) ) ;
#823 = ADVANCED_FACE ( 'NONE', ( #705 ), #934, .F. ) ;
#824 = CARTESIAN_POINT ( 'NONE',  ( 130.0000000000000000, 9.999999999999998224, 16.00000000000000000 ) ) ;
#825 = EDGE_CURVE ( 'NONE', #24, #103, #340, .T. ) ;
#826 = DIRECTION ( 'NONE',  ( -0.000000000000000000, 1.000000000000000000, 1.084202172485504311E-16 ) ) ;
#827 = UNCERTAINTY_MEASURE_WITH_UNIT (LENGTH_MEASURE( 1.000000000000000082E-05 ), #771, 'distance_accuracy_value', 'NONE');
#828 = PRESENTATION_STYLE_ASSIGNMENT (( #155 ) ) ;
#829 = CYLINDRICAL_SURFACE ( 'NONE', #160, 4.000000000000003553 ) ;
#830 = CYLINDRICAL_SURFACE ( 'NONE', #848, 2.099999999999997868 ) ;
#831 = CIRCLE ( 'NONE', #87, 4.000000000000003553 ) ;
#832 = PRESENTATION_LAYER_ASSIGNMENT (  '', '', ( #464 ) ) ;
#833 = EDGE_LOOP ( 'NONE', ( #234, #890, #79, #272 ) ) ;
#834 = ORIENTED_EDGE ( 'NONE', *, *, #6, .F. ) ;
#835 = DIRECTION ( 'NONE',  ( 0.000000000000000000, -1.000000000000000000, 0.000000000000000000 ) ) ;
#836 = DIRECTION ( 'NONE',  ( 0.000000000000000000, 1.000000000000000000, 0.000000000000000000 ) ) ;
#837 = AXIS2_PLACEMENT_3D ( 'NONE', #21, #940, #546 ) ;
#838 = CARTESIAN_POINT ( 'NONE',  ( 93.95000000000000284, -1.734723475976807094E-15, -1.504632769052528229E-31 ) ) ;
#839 = FILL_AREA_STYLE_COLOUR ( '', #541 ) ;
#840 = LINE ( 'NONE', #169, #622 ) ;
#841 = ADVANCED_FACE ( 'NONE', ( #748 ), #814, .F. ) ;
#842 = CYLINDRICAL_SURFACE ( 'NONE', #361, 4.000000000000003553 ) ;
#843 = EDGE_CURVE ( 'NONE', #154, #309, #860, .T. ) ;
#844 = ORIENTED_EDGE ( 'NONE', *, *, #786, .F. ) ;
#845 = EDGE_LOOP ( 'NONE', ( #724, #172, #321 ) ) ;
#846 =( GEOMETRIC_REPRESENTATION_CONTEXT ( 3 ) GLOBAL_UNCERTAINTY_ASSIGNED_CONTEXT ( ( #972 ) ) GLOBAL_UNIT_ASSIGNED_CONTEXT ( ( #536, #530, #480 ) ) REPRESENTATION_CONTEXT ( 'NONE', 'WORKASPACE' ) );
#847 = DIRECTION ( 'NONE',  ( -0.000000000000000000, 1.000000000000000000, 1.084202172485504311E-16 ) ) ;
#848 = AXIS2_PLACEMENT_3D ( 'NONE', #132, #974, #355 ) ;
#849 = FACE_OUTER_BOUND ( 'NONE', #916, .T. ) ;
#850 = DIRECTION ( 'NONE',  ( -0.000000000000000000, 1.000000000000000000, 1.084202172485504311E-16 ) ) ;
#851 = CONICAL_SURFACE ( 'NONE', #479, 4.000000000000003553, 1.029744258676654756 ) ;
#852 = DIRECTION ( 'NONE',  ( 0.000000000000000000, -1.000000000000000000, -1.084202172485503448E-16 ) ) ;
#853 = FACE_BOUND ( 'NONE', #349, .T. ) ;
#854 = ORIENTED_EDGE ( 'NONE', *, *, #572, .F. ) ;
#855 = MECHANICAL_DESIGN_GEOMETRIC_PRESENTATION_REPRESENTATION (  '', ( #602 ), #65 ) ;
#856 = VERTEX_POINT ( 'NONE', #145 ) ;
#857 = CARTESIAN_POINT ( 'NONE',  ( 119.0000000000000000, -8.673617379883692811E-17, 0.9999999999999603650 ) ) ;
#858 = EDGE_CURVE ( 'NONE', #347, #656, #446, .T. ) ;
#859 = DIRECTION ( 'NONE',  ( 0.000000000000000000, 1.000000000000000000, 0.000000000000000000 ) ) ;
#860 = LINE ( 'NONE', #143, #4 ) ;
#861 = PRESENTATION_LAYER_ASSIGNMENT (  '', '', ( #269 ) ) ;
#862 = FACE_OUTER_BOUND ( 'NONE', #399, .T. ) ;
#863 = FACE_OUTER_BOUND ( 'NONE', #409, .T. ) ;
#864 = CIRCLE ( 'NONE', #122, 2.099999999999997868 ) ;
#865 = DIRECTION ( 'NONE',  ( 0.000000000000000000, -8.673617379884036705E-17, 1.000000000000000000 ) ) ;
#866 = ORIENTED_EDGE ( 'NONE', *, *, #243, .T. ) ;
#867 = ORIENTED_EDGE ( 'NONE', *, *, #346, .F. ) ;
#868 = ORIENTED_EDGE ( 'NONE', *, *, #337, .F. ) ;
#869 = PRESENTATION_LAYER_ASSIGNMENT (  '', '', ( #797 ) ) ;
#870 = FILL_AREA_STYLE ('',( #216 ) ) ;
#871 = SURFACE_STYLE_USAGE ( .BOTH. , #171 ) ;
#872 = CARTESIAN_POINT ( 'NONE',  ( 0.000000000000000000, 9.999999999999998224, 16.00000000000000000 ) ) ;
#873 = EDGE_CURVE ( 'NONE', #390, #184, #61, .T. ) ;
#874 = CARTESIAN_POINT ( 'NONE',  ( 69.00000000000000000, -8.673617379884037444E-16, 10.00000000000000000 ) ) ;
#875 = CARTESIAN_POINT ( 'NONE',  ( 0.000000000000000000, 10.00000000000000178, -16.00000000000000000 ) ) ;
#876 = LINE ( 'NONE', #950, #182 ) ;
#877 = COLOUR_RGB ( '',0.7921568627450980005, 0.8196078431372548767, 0.9333333333333333481 ) ;
#878 = ORIENTED_EDGE ( 'NONE', *, *, #754, .F. ) ;
#879 = DIRECTION ( 'NONE',  ( -0.000000000000000000, 8.673617379884036705E-17, -1.000000000000000000 ) ) ;
#880 = ORIENTED_EDGE ( 'NONE', *, *, #474, .T. ) ;
#881 = ORIENTED_EDGE ( 'NONE', *, *, #703, .T. ) ;
#882 = DIRECTION ( 'NONE',  ( -1.000000000000000000, -0.000000000000000000, -0.000000000000000000 ) ) ;
#883 =( GEOMETRIC_REPRESENTATION_CONTEXT ( 3 ) GLOBAL_UNCERTAINTY_ASSIGNED_CONTEXT ( ( #634 ) ) GLOBAL_UNIT_ASSIGNED_CONTEXT ( ( #304, #221, #138 ) ) REPRESENTATION_CONTEXT ( 'NONE', 'WORKASPACE' ) );
#884 = DIRECTION ( 'NONE',  ( 0.000000000000000000, 0.000000000000000000, 1.000000000000000000 ) ) ;
#885 = DIRECTION ( 'NONE',  ( 0.000000000000000000, 0.000000000000000000, 1.000000000000000000 ) ) ;
#886 = CYLINDRICAL_SURFACE ( 'NONE', #167, 2.099999999999995204 ) ;
#887 = AXIS2_PLACEMENT_3D ( 'NONE', #838, #313, #197 ) ;
#888 = FACE_OUTER_BOUND ( 'NONE', #929, .T. ) ;
#889 = VECTOR ( 'NONE', #757, 1000.000000000000000 ) ;
#890 = ORIENTED_EDGE ( 'NONE', *, *, #643, .F. ) ;
#891 = EDGE_LOOP ( 'NONE', ( #569, #426, #591, #557 ) ) ;
#892 = DIRECTION ( 'NONE',  ( -1.000000000000000000, 0.000000000000000000, 0.000000000000000000 ) ) ;
#893 = UNCERTAINTY_MEASURE_WITH_UNIT (LENGTH_MEASURE( 1.000000000000000082E-05 ), #736, 'distance_accuracy_value', 'NONE');
#894 = EDGE_CURVE ( 'NONE', #286, #809, #785, .T. ) ;
#895 =( GEOMETRIC_REPRESENTATION_CONTEXT ( 3 ) GLOBAL_UNCERTAINTY_ASSIGNED_CONTEXT ( ( #134 ) ) GLOBAL_UNIT_ASSIGNED_CONTEXT ( ( #398, #151, #97 ) ) REPRESENTATION_CONTEXT ( 'NONE', 'WORKASPACE' ) );
#896 = CARTESIAN_POINT ( 'NONE',  ( 93.95000000000000284, 2.099999999999987654, 16.00000000000000000 ) ) ;
#897 = VECTOR ( 'NONE', #727, 1000.000000000000000 ) ;
#898 = DIRECTION ( 'NONE',  ( -0.000000000000000000, 8.673617379884036705E-17, -1.000000000000000000 ) ) ;
#899 = CONICAL_SURFACE ( 'NONE', #619, 4.000000000000003553, 0.7853981633974482790 ) ;
#900 = AXIS2_PLACEMENT_3D ( 'NONE', #751, #913, #444 ) ;
#901 = DIRECTION ( 'NONE',  ( 0.000000000000000000, 0.000000000000000000, 1.000000000000000000 ) ) ;
#902 = ADVANCED_FACE ( 'NONE', ( #247 ), #371, .F. ) ;
#903 = LINE ( 'NONE', #366, #139 ) ;
#904 = DIRECTION ( 'NONE',  ( 0.000000000000000000, 8.673617379884036705E-17, -1.000000000000000000 ) ) ;
#905 = ORIENTED_EDGE ( 'NONE', *, *, #623, .F. ) ;
#906 = ORIENTED_EDGE ( 'NONE', *, *, #524, .T. ) ;
#907 = CARTESIAN_POINT ( 'NONE',  ( 130.0000000000000000, 10.00000000000000178, -16.00000000000000000 ) ) ;
#908 = ADVANCED_FACE ( 'NONE', ( #746 ), #43, .F. ) ;
#909 = SURFACE_SIDE_STYLE ('',( #331 ) ) ;
#910 = DIRECTION ( 'NONE',  ( -0.000000000000000000, 1.000000000000000000, 1.084202172485504311E-16 ) ) ;
#911 =( NAMED_UNIT ( * ) PLANE_ANGLE_UNIT ( ) SI_UNIT ( $, .RADIAN. ) );
#912 = SURFACE_STYLE_USAGE ( .BOTH. , #909 ) ;
#913 = DIRECTION ( 'NONE',  ( -0.000000000000000000, 1.000000000000000000, 1.084202172485504311E-16 ) ) ;
#914 = LINE ( 'NONE', #186, #85 ) ;
#915 = EDGE_CURVE ( 'NONE', #88, #39, #416, .T. ) ;
#916 = EDGE_LOOP ( 'NONE', ( #333, #975, #400, #203 ) ) ;
#917 = AXIS2_PLACEMENT_3D ( 'NONE', #404, #850, #773 ) ;
#918 = ORIENTED_EDGE ( 'NONE', *, *, #552, .T. ) ;
#919 = ORIENTED_EDGE ( 'NONE', *, *, #593, .T. ) ;
#920 = ORIENTED_EDGE ( 'NONE', *, *, #638, .F. ) ;
#921 = CARTESIAN_POINT ( 'NONE',  ( 69.00000000000000000, -4.000000000000005329, 10.00000000000000000 ) ) ;
#922 = CARTESIAN_POINT ( 'NONE',  ( 30.50000000000000000, 10.00000000000000178, 6.600000000000000533 ) ) ;
#923 = AXIS2_PLACEMENT_3D ( 'NONE', #776, #865, #543 ) ;
#924 =( NAMED_UNIT ( * ) SI_UNIT ( $, .STERADIAN. ) SOLID_ANGLE_UNIT ( ) );
#925 = LINE ( 'NONE', #962, #957 ) ;
#926 = EDGE_CURVE ( 'NONE', #103, #519, #574, .T. ) ;
#927 = DIRECTION ( 'NONE',  ( 0.000000000000000000, 0.000000000000000000, 1.000000000000000000 ) ) ;
#928 = ORIENTED_EDGE ( 'NONE', *, *, #695, .F. ) ;
#929 = EDGE_LOOP ( 'NONE', ( #920, #164, #702 ) ) ;
#930 = CARTESIAN_POINT ( 'NONE',  ( 119.0000000000000000, -8.673617379883692811E-17, 0.9999999999999603650 ) ) ;
#931 = ORIENTED_EDGE ( 'NONE', *, *, #42, .T. ) ;
#932 = AXIS2_PLACEMENT_3D ( 'NONE', #56, #988, #758 ) ;
#933 = COLOUR_RGB ( '',0.7921568627450980005, 0.8196078431372548767, 0.9333333333333333481 ) ;
#934 = CYLINDRICAL_SURFACE ( 'NONE', #405, 2.099999999999995204 ) ;
#935 = FACE_OUTER_BOUND ( 'NONE', #55, .T. ) ;
#936 = DIRECTION ( 'NONE',  ( -0.000000000000000000, 8.673617379884036705E-17, -1.000000000000000000 ) ) ;
#937 = LINE ( 'NONE', #244, #318 ) ;
#938 = ORIENTED_EDGE ( 'NONE', *, *, #728, .F. ) ;
#939 = AXIS2_PLACEMENT_3D ( 'NONE', #193, #892, #422 ) ;
#940 = DIRECTION ( 'NONE',  ( -0.000000000000000000, 1.000000000000000000, 1.084202172485504311E-16 ) ) ;
#941 = VERTEX_POINT ( 'NONE', #454 ) ;
#942 = DIRECTION ( 'NONE',  ( 0.000000000000000000, 8.673617379884036705E-17, -1.000000000000000000 ) ) ;
#943 = EDGE_CURVE ( 'NONE', #154, #519, #433, .T. ) ;
#944 = CARTESIAN_POINT ( 'NONE',  ( 119.0000000000000000, 4.000000000000003553, 0.9999999999999608091 ) ) ;
#945 = CARTESIAN_POINT ( 'NONE',  ( 69.00000000000000000, -4.000000000000003553, -3.469446951953617640E-16 ) ) ;
#946 = VECTOR ( 'NONE', #410, 1000.000000000000000 ) ;
#947 = DIRECTION ( 'NONE',  ( -0.000000000000000000, 1.000000000000000000, 1.084202172485504311E-16 ) ) ;
#948 = FILL_AREA_STYLE_COLOUR ( '', #457 ) ;
#949 = EDGE_LOOP ( 'NONE', ( #878, #489, #90, #391 ) ) ;
#950 = CARTESIAN_POINT ( 'NONE',  ( 130.0000000000000000, -10.00000000000000178, 16.00000000000000000 ) ) ;
#951 = EDGE_LOOP ( 'NONE', ( #952, #343, #653, #225 ) ) ;
#952 = ORIENTED_EDGE ( 'NONE', *, *, #229, .F. ) ;
#953 =( GEOMETRIC_REPRESENTATION_CONTEXT ( 3 ) GLOBAL_UNCERTAINTY_ASSIGNED_CONTEXT ( ( #555 ) ) GLOBAL_UNIT_ASSIGNED_CONTEXT ( ( #571, #660, #449 ) ) REPRESENTATION_CONTEXT ( 'NONE', 'WORKASPACE' ) );
#954 = DIRECTION ( 'NONE',  ( -1.000000000000000000, 0.000000000000000000, -0.000000000000000000 ) ) ;
#955 = PLANE ( 'NONE',  #493 ) ;
#956 = AXIS2_PLACEMENT_3D ( 'NONE', #674, #910, #58 ) ;
#957 = VECTOR ( 'NONE', #570, 1000.000000000000000 ) ;
#958 = PLANE ( 'NONE',  #789 ) ;
#959 = FILL_AREA_STYLE_COLOUR ( '', #550 ) ;
#960 = CIRCLE ( 'NONE', #412, 4.000000000000003553 ) ;
#961 = ORIENTED_EDGE ( 'NONE', *, *, #978, .T. ) ;
#962 = CARTESIAN_POINT ( 'NONE',  ( 57.90000000000000568, 10.00000000000000000, 1.084202172485504237E-15 ) ) ;
#963 = ORIENTED_EDGE ( 'NONE', *, *, #524, .F. ) ;
#964 = EDGE_CURVE ( 'NONE', #856, #82, #291, .T. ) ;
#965 = ORIENTED_EDGE ( 'NONE', *, *, #492, .T. ) ;
#966 = DIRECTION ( 'NONE',  ( 0.000000000000000000, -8.673617379884036705E-17, 1.000000000000000000 ) ) ;
#967 = CARTESIAN_POINT ( 'NONE',  ( 30.50000000000000000, 10.00000000000000000, 6.600000000000000533 ) ) ;
#968 = SURFACE_STYLE_FILL_AREA ( #177 ) ;
#969 = CIRCLE ( 'NONE', #342, 4.000000000000003553 ) ;
#970 =( GEOMETRIC_REPRESENTATION_CONTEXT ( 3 ) GLOBAL_UNCERTAINTY_ASSIGNED_CONTEXT ( ( #893 ) ) GLOBAL_UNIT_ASSIGNED_CONTEXT ( ( #736, #503, #429 ) ) REPRESENTATION_CONTEXT ( 'NONE', 'WORKASPACE' ) );
#971 = FACE_OUTER_BOUND ( 'NONE', #769, .T. ) ;
#972 = UNCERTAINTY_MEASURE_WITH_UNIT (LENGTH_MEASURE( 1.000000000000000082E-05 ), #536, 'distance_accuracy_value', 'NONE');
#973 = CIRCLE ( 'NONE', #722, 2.099999999999996092 ) ;
#974 = DIRECTION ( 'NONE',  ( -0.000000000000000000, 8.673617379884036705E-17, -1.000000000000000000 ) ) ;
#975 = ORIENTED_EDGE ( 'NONE', *, *, #282, .F. ) ;
#976 = ORIENTED_EDGE ( 'NONE', *, *, #504, .T. ) ;
#977 = ORIENTED_EDGE ( 'NONE', *, *, #894, .F. ) ;
#978 = EDGE_CURVE ( 'NONE', #115, #47, #109, .T. ) ;
#979 = CARTESIAN_POINT ( 'NONE',  ( 119.0000000000000000, -2.557875707389296523E-32, 2.168404344971006896E-16 ) ) ;
#980 = CARTESIAN_POINT ( 'NONE',  ( 130.0000000000000000, -10.00000000000000355, -6.505213034913032521E-16 ) ) ;
#981 = ADVANCED_FACE ( 'NONE', ( #849 ), #217, .F. ) ;
#982 = SURFACE_STYLE_USAGE ( .BOTH. , #680 ) ;
#983 = CARTESIAN_POINT ( 'NONE',  ( 93.95000000000000284, -1.734723475976807094E-15, -4.898587196589421087E-17 ) ) ;
#984 = VECTOR ( 'NONE', #89, 1000.000000000000000 ) ;
#985 = AXIS2_PLACEMENT_3D ( 'NONE', #354, #898, #743 ) ;
#986 = PRESENTATION_STYLE_ASSIGNMENT (( #912 ) ) ;
#987 = CYLINDRICAL_SURFACE ( 'NONE', #887, 2.099999999999997868 ) ;
#988 = DIRECTION ( 'NONE',  ( -0.000000000000000000, 1.000000000000000000, 1.084202172485504311E-16 ) ) ;
#989 = VERTEX_POINT ( 'NONE', #686 ) ;
#990 = ADVANCED_FACE ( 'NONE', ( #22 ), #576, .F. ) ;
#991 = EDGE_LOOP ( 'NONE', ( #938, #807, #961 ) ) ;
#992 = DIRECTION ( 'NONE',  ( 0.000000000000000000, 1.000000000000000000, 0.000000000000000000 ) ) ;
ENDSEC;
END-ISO-10303-21;
