ISO-10303-21;
HEADER;
FILE_DESCRIPTION (( 'STEP AP214' ),
    '1' );
FILE_NAME ('21631_03_184_vacuum adapter plate 2K_3.STEP',
    '2021-11-05T07:44:55',
    ( '' ),
    ( '' ),
    'SwSTEP 2.0',
    'SolidWorks 2018',
    '' );
FILE_SCHEMA (( 'AUTOMOTIVE_DESIGN' ));
ENDSEC;

DATA;
#1 = DIRECTION ( 'NONE',  ( -0.000000000000000000, 1.000000000000000000, -0.000000000000000000 ) ) ;
#2 = EDGE_CURVE ( 'NONE', #309, #336, #404, .T. ) ;
#3 = EDGE_CURVE ( 'NONE', #1009, #1098, #261, .T. ) ;
#4 = PRESENTATION_STYLE_ASSIGNMENT (( #1203 ) ) ;
#5 =( NAMED_UNIT ( * ) SI_UNIT ( $, .STERADIAN. ) SOLID_ANGLE_UNIT ( ) );
#6 = CYLINDRICAL_SURFACE ( 'NONE', #292, 8.500000000000000000 ) ;
#7 = CARTESIAN_POINT ( 'NONE',  ( 26.00000000000001066, 18.50000000000004619, -3.000000000000012879 ) ) ;
#8 = VECTOR ( 'NONE', #925, 1000.000000000000000 ) ;
#9 = LINE ( 'NONE', #222, #349 ) ;
#10 = EDGE_LOOP ( 'NONE', ( #866, #512, #308, #601 ) ) ;
#11 = VERTEX_POINT ( 'NONE', #665 ) ;
#12 = DIRECTION ( 'NONE',  ( -1.000000000000000000, 3.469446951953613696E-16, 0.000000000000000000 ) ) ;
#13 = ORIENTED_EDGE ( 'NONE', *, *, #58, .T. ) ;
#14 = CARTESIAN_POINT ( 'NONE',  ( 26.00000000000001066, 20.75000000000004619, -1.301042606982605321E-14 ) ) ;
#15 = EDGE_CURVE ( 'NONE', #804, #310, #644, .T. ) ;
#16 = PRESENTATION_LAYER_ASSIGNMENT (  '', '', ( #1151 ) ) ;
#17 = DIRECTION ( 'NONE',  ( -0.000000000000000000, 1.000000000000000000, -0.000000000000000000 ) ) ;
#18 = CARTESIAN_POINT ( 'NONE',  ( 16.00000000000000000, 0.000000000000000000, -18.25000000000000355 ) ) ;
#19 = CIRCLE ( 'NONE', #724, 2.249999999999995115 ) ;
#20 = ADVANCED_FACE ( 'NONE', ( #388 ), #487, .F. ) ;
#21 = VECTOR ( 'NONE', #770, 1000.000000000000000 ) ;
#22 = FACE_OUTER_BOUND ( 'NONE', #481, .T. ) ;
#23 = DIRECTION ( 'NONE',  ( -1.000000000000000000, 0.000000000000000000, -0.000000000000000000 ) ) ;
#24 = ORIENTED_EDGE ( 'NONE', *, *, #456, .T. ) ;
#25 = ORIENTED_EDGE ( 'NONE', *, *, #892, .T. ) ;
#26 = ORIENTED_EDGE ( 'NONE', *, *, #129, .T. ) ;
#27 = ORIENTED_EDGE ( 'NONE', *, *, #1105, .T. ) ;
#28 = DIRECTION ( 'NONE',  ( -1.000000000000000000, -0.000000000000000000, -0.000000000000000000 ) ) ;
#29 = EDGE_CURVE ( 'NONE', #544, #751, #451, .T. ) ;
#30 = CARTESIAN_POINT ( 'NONE',  ( 29.50000000000000711, -3.000000000000000000, -53.50000000000000000 ) ) ;
#31 = CARTESIAN_POINT ( 'NONE',  ( 0.000000000000000000, 3.035766082959412415E-14, -1.301042606982605321E-14 ) ) ;
#32 = ADVANCED_FACE ( 'NONE', ( #107, #1095, #290 ), #115, .F. ) ;
#33 = DIRECTION ( 'NONE',  ( -1.000000000000000000, 0.000000000000000000, 0.000000000000000000 ) ) ;
#34 = EDGE_CURVE ( 'NONE', #1008, #1180, #626, .T. ) ;
#35 = LINE ( 'NONE', #14, #735 ) ;
#36 = AXIS2_PLACEMENT_3D ( 'NONE', #894, #983, #348 ) ;
#37 = CYLINDRICAL_SURFACE ( 'NONE', #807, 2.249999999999998668 ) ;
#38 = VECTOR ( 'NONE', #687, 1000.000000000000000 ) ;
#39 = ADVANCED_FACE ( 'NONE', ( #932 ), #491, .F. ) ;
#40 = ORIENTED_EDGE ( 'NONE', *, *, #183, .T. ) ;
#41 = ORIENTED_EDGE ( 'NONE', *, *, #984, .T. ) ;
#42 = CARTESIAN_POINT ( 'NONE',  ( 4.000000000000000000, 25.00000000000004263, -1.301042606982605321E-14 ) ) ;
#43 = CARTESIAN_POINT ( 'NONE',  ( 26.00000000000000355, 0.000000000000000000, -18.25000000000000711 ) ) ;
#44 = PRODUCT_DEFINITION_CONTEXT ( 'detailed design', #663, 'design' ) ;
#45 = CARTESIAN_POINT ( 'NONE',  ( 26.00000000000001066, 20.75000000000004619, -1.301042606982605321E-14 ) ) ;
#46 = DIRECTION ( 'NONE',  ( 0.000000000000000000, 0.000000000000000000, 1.000000000000000000 ) ) ;
#47 = LINE ( 'NONE', #996, #972 ) ;
#48 = EDGE_CURVE ( 'NONE', #1181, #322, #1062, .T. ) ;
#49 = LINE ( 'NONE', #602, #400 ) ;
#50 = CARTESIAN_POINT ( 'NONE',  ( 26.00000000000001066, 20.75000000000004619, -3.000000000000012879 ) ) ;
#51 = LINE ( 'NONE', #1011, #375 ) ;
#52 = ORIENTED_EDGE ( 'NONE', *, *, #1113, .F. ) ;
#53 = VERTEX_POINT ( 'NONE', #224 ) ;
#54 = CARTESIAN_POINT ( 'NONE',  ( 1.387778780781445676E-14, -3.000000000000007105, -4.999999999999999112 ) ) ;
#55 = ORIENTED_EDGE ( 'NONE', *, *, #371, .F. ) ;
#56 = ORIENTED_EDGE ( 'NONE', *, *, #664, .F. ) ;
#57 = ORIENTED_EDGE ( 'NONE', *, *, #352, .F. ) ;
#58 = EDGE_CURVE ( 'NONE', #659, #370, #435, .T. ) ;
#59 = CARTESIAN_POINT ( 'NONE',  ( 23.75000000000001066, 18.50000000000004619, -1.301042606982605321E-14 ) ) ;
#60 = CARTESIAN_POINT ( 'NONE',  ( 16.00000000000000000, -3.000000000000000000, -22.75000000000000000 ) ) ;
#61 = DIRECTION ( 'NONE',  ( -0.000000000000000000, 1.000000000000000000, -0.000000000000000000 ) ) ;
#62 = CARTESIAN_POINT ( 'NONE',  ( 26.00000000000001066, 16.25000000000004974, -3.000000000000012879 ) ) ;
#63 = CARTESIAN_POINT ( 'NONE',  ( 21.00000000000000000, -3.000000000000000000, -58.50000000000000000 ) ) ;
#64 = LINE ( 'NONE', #1159, #607 ) ;
#65 = VECTOR ( 'NONE', #750, 1000.000000000000000 ) ;
#66 = DIRECTION ( 'NONE',  ( -1.000000000000000000, 0.000000000000000000, 0.000000000000000000 ) ) ;
#67 = EDGE_CURVE ( 'NONE', #713, #878, #696, .T. ) ;
#68 = VECTOR ( 'NONE', #214, 1000.000000000000000 ) ;
#69 = DIRECTION ( 'NONE',  ( -1.000000000000000000, 0.000000000000000000, 0.000000000000000000 ) ) ;
#70 = EDGE_LOOP ( 'NONE', ( #95, #1125, #351, #365 ) ) ;
#71 = ORIENTED_EDGE ( 'NONE', *, *, #324, .T. ) ;
#72 = CARTESIAN_POINT ( 'NONE',  ( 3.750000000000000000, 18.50000000000004619, -1.301042606982605321E-14 ) ) ;
#73 = EDGE_CURVE ( 'NONE', #659, #276, #658, .T. ) ;
#74 = AXIS2_PLACEMENT_3D ( 'NONE', #1053, #1143, #948 ) ;
#75 = CARTESIAN_POINT ( 'NONE',  ( 0.000000000000000000, 2.000000000000023537, -3.000000000000012879 ) ) ;
#76 = CIRCLE ( 'NONE', #457, 4.000000000000000000 ) ;
#77 = CARTESIAN_POINT ( 'NONE',  ( 5.999999999999998224, 16.25000000000004974, -1.301042606982605321E-14 ) ) ;
#78 = DIRECTION ( 'NONE',  ( 0.000000000000000000, 1.000000000000000000, -0.000000000000000000 ) ) ;
#79 = LINE ( 'NONE', #516, #21 ) ;
#80 = ORIENTED_EDGE ( 'NONE', *, *, #578, .F. ) ;
#81 = ORIENTED_EDGE ( 'NONE', *, *, #603, .T. ) ;
#82 = EDGE_CURVE ( 'NONE', #850, #562, #217, .T. ) ;
#83 = EDGE_LOOP ( 'NONE', ( #55, #789, #493, #949 ) ) ;
#84 = ORIENTED_EDGE ( 'NONE', *, *, #517, .F. ) ;
#85 = VERTEX_POINT ( 'NONE', #856 ) ;
#86 = DIRECTION ( 'NONE',  ( 0.000000000000000000, 1.000000000000000000, 0.000000000000000000 ) ) ;
#87 =( LENGTH_UNIT ( ) NAMED_UNIT ( * ) SI_UNIT ( .MILLI., .METRE. ) );
#88 = EDGE_CURVE ( 'NONE', #878, #778, #140, .T. ) ;
#89 = PRODUCT_CONTEXT ( 'NONE', #1196, 'mechanical' ) ;
#90 = FACE_BOUND ( 'NONE', #364, .T. ) ;
#91 = FACE_OUTER_BOUND ( 'NONE', #673, .T. ) ;
#92 = CYLINDRICAL_SURFACE ( 'NONE', #636, 8.500000000000000000 ) ;
#93 = ORIENTED_EDGE ( 'NONE', *, *, #501, .T. ) ;
#94 = EDGE_CURVE ( 'NONE', #1154, #804, #9, .T. ) ;
#95 = ORIENTED_EDGE ( 'NONE', *, *, #969, .T. ) ;
#96 = ORIENTED_EDGE ( 'NONE', *, *, #912, .T. ) ;
#97 = CLOSED_SHELL ( 'NONE', ( #782, #1036, #1118, #822, #39, #32, #1195, #1145, #924, #463, #827, #1114, #395, #869, #396, #1054, #923, #655, #575, #583, #606, #762, #382, #668, #124, #99, #471, #447, #848, #678, #495, #280, #196, #177, #20, #1022, #1028 ) ) ;
#98 = AXIS2_PLACEMENT_3D ( 'NONE', #775, #1141, #410 ) ;
#99 = ADVANCED_FACE ( 'NONE', ( #467 ), #672, .F. ) ;
#100 = DIRECTION ( 'NONE',  ( 0.000000000000000000, 0.000000000000000000, -1.000000000000000000 ) ) ;
#101 = CARTESIAN_POINT ( 'NONE',  ( 26.00000000000000355, -3.000000000000000000, -18.25000000000000711 ) ) ;
#102 = AXIS2_PLACEMENT_3D ( 'NONE', #935, #1025, #1035 ) ;
#103 = CARTESIAN_POINT ( 'NONE',  ( 4.000000000000000000, 25.00000000000004263, -1.301042606982605321E-14 ) ) ;
#104 = CIRCLE ( 'NONE', #207, 2.249999999999998668 ) ;
#105 = CARTESIAN_POINT ( 'NONE',  ( 12.50000000000000000, 0.000000000000000000, -53.50000000000000000 ) ) ;
#106 = LINE ( 'NONE', #836, #165 ) ;
#107 = FACE_BOUND ( 'NONE', #109, .T. ) ;
#108 = ORIENTED_EDGE ( 'NONE', *, *, #134, .T. ) ;
#109 = EDGE_LOOP ( 'NONE', ( #527, #96, #262, #146, #995 ) ) ;
#110 = CARTESIAN_POINT ( 'NONE',  ( 16.00000000000000000, 20.75000000000004263, -1.301042606982605321E-14 ) ) ;
#111 = ORIENTED_EDGE ( 'NONE', *, *, #701, .T. ) ;
#112 = ORIENTED_EDGE ( 'NONE', *, *, #73, .T. ) ;
#113 = DIRECTION ( 'NONE',  ( 0.000000000000000000, 0.000000000000000000, 1.000000000000000000 ) ) ;
#114 = EDGE_CURVE ( 'NONE', #649, #230, #683, .T. ) ;
#115 = PLANE ( 'NONE',  #257 ) ;
#116 = ORIENTED_EDGE ( 'NONE', *, *, #855, .T. ) ;
#117 = DIRECTION ( 'NONE',  ( -0.000000000000000000, -0.000000000000000000, 1.000000000000000000 ) ) ;
#118 = DIRECTION ( 'NONE',  ( 1.000000000000000000, 0.000000000000000000, 0.000000000000000000 ) ) ;
#119 = DIRECTION ( 'NONE',  ( 0.000000000000000000, 1.000000000000000000, 0.000000000000000000 ) ) ;
#120 = DIRECTION ( 'NONE',  ( 0.000000000000000000, 0.000000000000000000, -1.000000000000000000 ) ) ;
#121 =( GEOMETRIC_REPRESENTATION_CONTEXT ( 3 ) GLOBAL_UNCERTAINTY_ASSIGNED_CONTEXT ( ( #733 ) ) GLOBAL_UNIT_ASSIGNED_CONTEXT ( ( #87, #736, #5 ) ) REPRESENTATION_CONTEXT ( 'NONE', 'WORKASPACE' ) );
#122 = CIRCLE ( 'NONE', #354, 2.249999999999998668 ) ;
#123 = PLANE ( 'NONE',  #74 ) ;
#124 = ADVANCED_FACE ( 'NONE', ( #1109 ), #185, .F. ) ;
#125 = DIRECTION ( 'NONE',  ( -0.000000000000000000, -0.000000000000000000, -1.000000000000000000 ) ) ;
#126 = FACE_OUTER_BOUND ( 'NONE', #831, .T. ) ;
#127 = ORIENTED_EDGE ( 'NONE', *, *, #2, .T. ) ;
#128 = ORIENTED_EDGE ( 'NONE', *, *, #951, .F. ) ;
#129 = EDGE_CURVE ( 'NONE', #392, #296, #862, .T. ) ;
#130 = ORIENTED_EDGE ( 'NONE', *, *, #595, .T. ) ;
#131 = AXIS2_PLACEMENT_3D ( 'NONE', #693, #144, #46 ) ;
#132 = CARTESIAN_POINT ( 'NONE',  ( 16.00000000000000000, 20.75000000000004263, -3.000000000000012879 ) ) ;
#133 = CARTESIAN_POINT ( 'NONE',  ( 21.00000000000000000, 0.000000000000000000, -53.50000000000000000 ) ) ;
#134 = EDGE_CURVE ( 'NONE', #370, #333, #377, .T. ) ;
#135 = CARTESIAN_POINT ( 'NONE',  ( 38.00000000000000711, 25.00000000000004263, -1.301042606982605321E-14 ) ) ;
#136 = VECTOR ( 'NONE', #990, 1000.000000000000000 ) ;
#137 = DIRECTION ( 'NONE',  ( 0.000000000000000000, 0.000000000000000000, 1.000000000000000000 ) ) ;
#138 =( GEOMETRIC_REPRESENTATION_CONTEXT ( 3 ) GLOBAL_UNCERTAINTY_ASSIGNED_CONTEXT ( ( #885 ) ) GLOBAL_UNIT_ASSIGNED_CONTEXT ( ( #657, #193, #824 ) ) REPRESENTATION_CONTEXT ( 'NONE', 'WORKASPACE' ) );
#139 = LINE ( 'NONE', #938, #152 ) ;
#140 = LINE ( 'NONE', #499, #38 ) ;
#141 = DIRECTION ( 'NONE',  ( -1.000000000000000000, 0.000000000000000000, 0.000000000000000000 ) ) ;
#142 = ORIENTED_EDGE ( 'NONE', *, *, #15, .T. ) ;
#143 = ORIENTED_EDGE ( 'NONE', *, *, #533, .T. ) ;
#144 = DIRECTION ( 'NONE',  ( 0.000000000000000000, 1.000000000000000000, 0.000000000000000000 ) ) ;
#145 = ORIENTED_EDGE ( 'NONE', *, *, #501, .F. ) ;
#146 = ORIENTED_EDGE ( 'NONE', *, *, #838, .T. ) ;
#147 = AXIS2_PLACEMENT_3D ( 'NONE', #342, #325, #239 ) ;
#148 = DIRECTION ( 'NONE',  ( 1.000000000000000000, 0.000000000000000000, -6.938893903907231336E-16 ) ) ;
#149 = DIRECTION ( 'NONE',  ( 0.000000000000000000, 1.000000000000000000, -0.000000000000000000 ) ) ;
#150 = DIRECTION ( 'NONE',  ( -0.000000000000000000, -0.000000000000000000, -1.000000000000000000 ) ) ;
#151 = EDGE_CURVE ( 'NONE', #276, #764, #228, .T. ) ;
#152 = VECTOR ( 'NONE', #1131, 1000.000000000000000 ) ;
#153 = CIRCLE ( 'NONE', #772, 8.500000000000000000 ) ;
#154 = EDGE_LOOP ( 'NONE', ( #334, #1184, #543, #1099 ) ) ;
#155 = CARTESIAN_POINT ( 'NONE',  ( 12.50000000000000000, -3.000000000000000000, -58.50000000000000000 ) ) ;
#156 = ORIENTED_EDGE ( 'NONE', *, *, #939, .T. ) ;
#157 = VERTEX_POINT ( 'NONE', #132 ) ;
#158 = EDGE_CURVE ( 'NONE', #333, #569, #904, .T. ) ;
#159 = CARTESIAN_POINT ( 'NONE',  ( 16.00000000000000000, 18.50000000000004263, -3.000000000000012879 ) ) ;
#160 = CARTESIAN_POINT ( 'NONE',  ( 42.00000000000000000, -3.000000000000007105, -5.000000000000000000 ) ) ;
#161 = PLANE ( 'NONE',  #546 ) ;
#162 = DIRECTION ( 'NONE',  ( -0.000000000000000000, -1.000000000000000000, -0.000000000000000000 ) ) ;
#163 = CARTESIAN_POINT ( 'NONE',  ( 0.000000000000000000, -3.000000000000000000, -75.00000000000000000 ) ) ;
#164 = LINE ( 'NONE', #1129, #475 ) ;
#165 = VECTOR ( 'NONE', #17, 1000.000000000000000 ) ;
#166 = AXIS2_PLACEMENT_3D ( 'NONE', #620, #783, #970 ) ;
#167 = ORIENTED_EDGE ( 'NONE', *, *, #305, .F. ) ;
#168 = DIRECTION ( 'NONE',  ( 0.000000000000000000, 0.000000000000000000, -1.000000000000000000 ) ) ;
#169 = CARTESIAN_POINT ( 'NONE',  ( 26.00000000000000355, 0.000000000000000000, -22.75000000000000355 ) ) ;
#170 = ORIENTED_EDGE ( 'NONE', *, *, #1064, .F. ) ;
#171 = ORIENTED_EDGE ( 'NONE', *, *, #29, .T. ) ;
#172 = ORIENTED_EDGE ( 'NONE', *, *, #1188, .T. ) ;
#173 = VERTEX_POINT ( 'NONE', #425 ) ;
#174 = DIRECTION ( 'NONE',  ( 0.000000000000000000, 0.000000000000000000, 1.000000000000000000 ) ) ;
#175 = CARTESIAN_POINT ( 'NONE',  ( 12.50000000000000000, -3.000000000000000000, -53.50000000000000000 ) ) ;
#176 = DIRECTION ( 'NONE',  ( 0.000000000000000000, 1.000000000000000000, 0.000000000000000000 ) ) ;
#177 = ADVANCED_FACE ( 'NONE', ( #126 ), #1135, .F. ) ;
#178 = EDGE_CURVE ( 'NONE', #921, #978, #1018, .T. ) ;
#179 = CIRCLE ( 'NONE', #964, 2.000000000000000000 ) ;
#180 = DIRECTION ( 'NONE',  ( 0.000000000000000000, 0.000000000000000000, 1.000000000000000000 ) ) ;
#181 = FILL_AREA_STYLE ('',( #654 ) ) ;
#182 = FACE_OUTER_BOUND ( 'NONE', #70, .T. ) ;
#183 = EDGE_CURVE ( 'NONE', #936, #851, #479, .T. ) ;
#184 = SURFACE_STYLE_FILL_AREA ( #355 ) ;
#185 = CYLINDRICAL_SURFACE ( 'NONE', #460, 2.000000000000000000 ) ;
#186 = AXIS2_PLACEMENT_3D ( 'NONE', #973, #700, #141 ) ;
#187 = ORIENTED_EDGE ( 'NONE', *, *, #403, .T. ) ;
#188 = ORIENTED_EDGE ( 'NONE', *, *, #900, .F. ) ;
#189 = CARTESIAN_POINT ( 'NONE',  ( 16.00000000000000000, -3.000000000000000000, -18.25000000000000355 ) ) ;
#190 = EDGE_LOOP ( 'NONE', ( #27, #793, #24, #889 ) ) ;
#191 = ADVANCED_BREP_SHAPE_REPRESENTATION ( '21631_03_184_vacuum adapter plate 2K_3', ( #316, #1202 ), #121 ) ;
#192 = EDGE_CURVE ( 'NONE', #802, #336, #541, .T. ) ;
#193 =( NAMED_UNIT ( * ) PLANE_ANGLE_UNIT ( ) SI_UNIT ( $, .RADIAN. ) );
#194 = AXIS2_PLACEMENT_3D ( 'NONE', #880, #330, #1161 ) ;
#195 = CARTESIAN_POINT ( 'NONE',  ( 16.00000000000000000, 16.25000000000004619, -1.301042606982605321E-14 ) ) ;
#196 = ADVANCED_FACE ( 'NONE', ( #599 ), #432, .F. ) ;
#197 = VECTOR ( 'NONE', #719, 1000.000000000000000 ) ;
#198 = FACE_OUTER_BOUND ( 'NONE', #1198, .T. ) ;
#199 = CARTESIAN_POINT ( 'NONE',  ( 12.50000000000000000, -3.000000000000000000, -53.50000000000000000 ) ) ;
#200 = VECTOR ( 'NONE', #23, 1000.000000000000000 ) ;
#201 = CARTESIAN_POINT ( 'NONE',  ( 3.750000000000000000, 18.50000000000004619, -3.000000000000012879 ) ) ;
#202 = EDGE_CURVE ( 'NONE', #293, #921, #991, .T. ) ;
#203 = EDGE_LOOP ( 'NONE', ( #698, #792, #229, #545 ) ) ;
#204 = ORIENTED_EDGE ( 'NONE', *, *, #563, .F. ) ;
#205 = ORIENTED_EDGE ( 'NONE', *, *, #1000, .F. ) ;
#206 = ORIENTED_EDGE ( 'NONE', *, *, #158, .F. ) ;
#207 = AXIS2_PLACEMENT_3D ( 'NONE', #159, #646, #1175 ) ;
#208 = CARTESIAN_POINT ( 'NONE',  ( 29.50000000000000711, 0.000000000000000000, -53.50000000000000000 ) ) ;
#209 = CARTESIAN_POINT ( 'NONE',  ( 42.00000000000000000, -3.000000000000000000, 0.000000000000000000 ) ) ;
#210 = PLANE ( 'NONE',  #102 ) ;
#211 = DIRECTION ( 'NONE',  ( -1.000000000000000000, 0.000000000000000000, -0.000000000000000000 ) ) ;
#212 = AXIS2_PLACEMENT_3D ( 'NONE', #1104, #1106, #311 ) ;
#213 = DIRECTION ( 'NONE',  ( -1.000000000000000000, -0.000000000000000000, -0.000000000000000000 ) ) ;
#214 = DIRECTION ( 'NONE',  ( 0.000000000000000000, 1.000000000000000000, 0.000000000000000000 ) ) ;
#215 = FACE_BOUND ( 'NONE', #589, .T. ) ;
#216 = CYLINDRICAL_SURFACE ( 'NONE', #1157, 4.000000000000003553 ) ;
#217 = LINE ( 'NONE', #30, #1150 ) ;
#218 = DIRECTION ( 'NONE',  ( -0.000000000000000000, 1.000000000000000000, -0.000000000000000000 ) ) ;
#219 = ORIENTED_EDGE ( 'NONE', *, *, #428, .T. ) ;
#220 = ORIENTED_EDGE ( 'NONE', *, *, #1148, .F. ) ;
#221 = STYLED_ITEM ( 'NONE', ( #317 ), #316 ) ;
#222 = CARTESIAN_POINT ( 'NONE',  ( 42.00000000000000000, -3.000000000000000000, -71.00000000000000000 ) ) ;
#223 = EDGE_CURVE ( 'NONE', #482, #1008, #362, .T. ) ;
#224 = CARTESIAN_POINT ( 'NONE',  ( 26.00000000000000355, -3.000000000000000000, -22.75000000000000355 ) ) ;
#225 = FACE_OUTER_BOUND ( 'NONE', #1123, .T. ) ;
#226 = VECTOR ( 'NONE', #486, 1000.000000000000000 ) ;
#227 = DIRECTION ( 'NONE',  ( 1.000000000000000000, -0.000000000000000000, 0.000000000000000000 ) ) ;
#228 = CIRCLE ( 'NONE', #166, 5.000000000000000000 ) ;
#229 = ORIENTED_EDGE ( 'NONE', *, *, #714, .F. ) ;
#230 = VERTEX_POINT ( 'NONE', #160 ) ;
#231 = DIRECTION ( 'NONE',  ( -0.000000000000000000, -0.000000000000000000, 1.000000000000000000 ) ) ;
#232 = ORIENTED_EDGE ( 'NONE', *, *, #1048, .F. ) ;
#233 = AXIS2_PLACEMENT_3D ( 'NONE', #871, #507, #407 ) ;
#234 = CARTESIAN_POINT ( 'NONE',  ( 5.999999999999998224, 18.50000000000004619, -1.301042606982605321E-14 ) ) ;
#235 = DIRECTION ( 'NONE',  ( 0.000000000000000000, 0.000000000000000000, -1.000000000000000000 ) ) ;
#236 = CARTESIAN_POINT ( 'NONE',  ( 26.00000000000001066, 18.50000000000004619, -3.000000000000012879 ) ) ;
#237 = DIRECTION ( 'NONE',  ( -1.000000000000000000, 3.469446951953613696E-16, 0.000000000000000000 ) ) ;
#238 = EDGE_CURVE ( 'NONE', #1181, #276, #511, .T. ) ;
#239 = DIRECTION ( 'NONE',  ( 0.000000000000000000, 0.000000000000000000, 1.000000000000000000 ) ) ;
#240 = FACE_OUTER_BOUND ( 'NONE', #1051, .T. ) ;
#241 = CARTESIAN_POINT ( 'NONE',  ( 36.00000000000001421, 20.75000000000004263, -1.301042606982605321E-14 ) ) ;
#242 = PRODUCT_DEFINITION_SHAPE ( 'NONE', 'NONE',  #591 ) ;
#243 = CIRCLE ( 'NONE', #413, 2.249999999999998668 ) ;
#244 = CIRCLE ( 'NONE', #573, 2.249999999999998668 ) ;
#245 = ORIENTED_EDGE ( 'NONE', *, *, #533, .F. ) ;
#246 = ORIENTED_EDGE ( 'NONE', *, *, #94, .F. ) ;
#247 = EDGE_LOOP ( 'NONE', ( #497, #586, #893, #934 ) ) ;
#248 = VERTEX_POINT ( 'NONE', #357 ) ;
#249 = ORIENTED_EDGE ( 'NONE', *, *, #456, .F. ) ;
#250 = AXIS2_PLACEMENT_3D ( 'NONE', #498, #532, #873 ) ;
#251 = CARTESIAN_POINT ( 'NONE',  ( 5.999999999999998224, 16.25000000000004974, -1.301042606982605321E-14 ) ) ;
#252 = CARTESIAN_POINT ( 'NONE',  ( 16.00000000000000000, -3.000000000000000000, -18.25000000000000355 ) ) ;
#253 = DIRECTION ( 'NONE',  ( 0.000000000000000000, 1.000000000000000000, 0.000000000000000000 ) ) ;
#254 = CARTESIAN_POINT ( 'NONE',  ( 26.00000000000001066, 18.50000000000004619, -1.301042606982605321E-14 ) ) ;
#255 = DIRECTION ( 'NONE',  ( 0.000000000000000000, 0.000000000000000000, 1.000000000000000000 ) ) ;
#256 = DIRECTION ( 'NONE',  ( 0.000000000000000000, 0.000000000000000000, 1.000000000000000000 ) ) ;
#257 = AXIS2_PLACEMENT_3D ( 'NONE', #940, #596, #211 ) ;
#258 = LINE ( 'NONE', #359, #136 ) ;
#259 = DIRECTION ( 'NONE',  ( 0.000000000000000000, 1.000000000000000000, 0.000000000000000000 ) ) ;
#260 = CARTESIAN_POINT ( 'NONE',  ( 5.999999999999998224, 20.75000000000004619, -1.301042606982605321E-14 ) ) ;
#261 = CIRCLE ( 'NONE', #952, 2.249999999999998668 ) ;
#262 = ORIENTED_EDGE ( 'NONE', *, *, #960, .T. ) ;
#263 = ORIENTED_EDGE ( 'NONE', *, *, #997, .T. ) ;
#264 = CARTESIAN_POINT ( 'NONE',  ( 0.000000000000000000, 0.000000000000000000, 0.000000000000000000 ) ) ;
#265 = EDGE_CURVE ( 'NONE', #393, #53, #244, .T. ) ;
#266 = CARTESIAN_POINT ( 'NONE',  ( 21.00000000000000000, 0.000000000000000000, -45.00000000000000000 ) ) ;
#267 = MECHANICAL_DESIGN_GEOMETRIC_PRESENTATION_REPRESENTATION (  '', ( #1151 ), #138 ) ;
#268 = FILL_AREA_STYLE_COLOUR ( '', #477 ) ;
#269 = CARTESIAN_POINT ( 'NONE',  ( 42.00000000000000000, 21.00000000000004263, -1.301042606982605321E-14 ) ) ;
#270 = CARTESIAN_POINT ( 'NONE',  ( 21.00000000000000000, -3.000000000000000000, -53.50000000000000000 ) ) ;
#271 = CIRCLE ( 'NONE', #476, 8.500000000000007105 ) ;
#272 = VECTOR ( 'NONE', #12, 1000.000000000000000 ) ;
#273 = AXIS2_PLACEMENT_3D ( 'NONE', #536, #168, #69 ) ;
#274 = LINE ( 'NONE', #189, #289 ) ;
#275 = ORIENTED_EDGE ( 'NONE', *, *, #1172, .T. ) ;
#276 = VERTEX_POINT ( 'NONE', #910 ) ;
#277 = ORIENTED_EDGE ( 'NONE', *, *, #812, .T. ) ;
#278 = ORIENTED_EDGE ( 'NONE', *, *, #238, .F. ) ;
#279 = EDGE_CURVE ( 'NONE', #561, #248, #682, .T. ) ;
#280 = ADVANCED_FACE ( 'NONE', ( #22 ), #975, .F. ) ;
#281 = DIRECTION ( 'NONE',  ( 1.000000000000000000, 0.000000000000000000, 0.000000000000000000 ) ) ;
#282 = PRESENTATION_LAYER_ASSIGNMENT (  '', '', ( #221 ) ) ;
#283 = DIRECTION ( 'NONE',  ( 0.000000000000000000, 1.000000000000000000, 0.000000000000000000 ) ) ;
#284 = DIRECTION ( 'NONE',  ( -3.469446951953613696E-16, 0.000000000000000000, -1.000000000000000000 ) ) ;
#285 = CARTESIAN_POINT ( 'NONE',  ( 26.00000000000000355, -3.000000000000000000, -18.25000000000000711 ) ) ;
#286 = SURFACE_SIDE_STYLE ('',( #747 ) ) ;
#287 = VECTOR ( 'NONE', #898, 1000.000000000000000 ) ;
#288 = EDGE_CURVE ( 'NONE', #454, #674, #1108, .T. ) ;
#289 = VECTOR ( 'NONE', #1, 1000.000000000000000 ) ;
#290 = FACE_OUTER_BOUND ( 'NONE', #1201, .T. ) ;
#291 = DIRECTION ( 'NONE',  ( -1.000000000000000000, 0.000000000000000000, 0.000000000000000000 ) ) ;
#292 = AXIS2_PLACEMENT_3D ( 'NONE', #298, #572, #113 ) ;
#293 = VERTEX_POINT ( 'NONE', #251 ) ;
#294 = ORIENTED_EDGE ( 'NONE', *, *, #960, .F. ) ;
#295 = CARTESIAN_POINT ( 'NONE',  ( 29.50000000000000711, -3.000000000000000000, -58.50000000000000000 ) ) ;
#296 = VERTEX_POINT ( 'NONE', #627 ) ;
#297 = CARTESIAN_POINT ( 'NONE',  ( 5.999999999999998224, 16.25000000000004974, -3.000000000000012879 ) ) ;
#298 = CARTESIAN_POINT ( 'NONE',  ( 21.00000000000000000, -3.000000000000000000, -53.50000000000000000 ) ) ;
#299 = AXIS2_PLACEMENT_3D ( 'NONE', #485, #1126, #582 ) ;
#300 = DIRECTION ( 'NONE',  ( 0.000000000000000000, 1.000000000000000000, 0.000000000000000000 ) ) ;
#301 = DIRECTION ( 'NONE',  ( 1.000000000000000000, 0.000000000000000000, -3.469446951953613696E-16 ) ) ;
#302 = VECTOR ( 'NONE', #301, 1000.000000000000000 ) ;
#303 = VECTOR ( 'NONE', #231, 1000.000000000000000 ) ;
#304 = FACE_OUTER_BOUND ( 'NONE', #419, .T. ) ;
#305 = EDGE_CURVE ( 'NONE', #1065, #936, #1049, .T. ) ;
#306 = DIRECTION ( 'NONE',  ( 1.000000000000000000, 0.000000000000000000, 0.000000000000000000 ) ) ;
#307 = ORIENTED_EDGE ( 'NONE', *, *, #855, .F. ) ;
#308 = ORIENTED_EDGE ( 'NONE', *, *, #755, .T. ) ;
#309 = VERTEX_POINT ( 'NONE', #62 ) ;
#310 = VERTEX_POINT ( 'NONE', #731 ) ;
#311 = DIRECTION ( 'NONE',  ( -1.000000000000000000, 0.000000000000000000, 0.000000000000000000 ) ) ;
#312 = ORIENTED_EDGE ( 'NONE', *, *, #383, .F. ) ;
#313 = AXIS2_PLACEMENT_3D ( 'NONE', #937, #100, #837 ) ;
#314 = PLANE ( 'NONE',  #233 ) ;
#315 = LINE ( 'NONE', #480, #667 ) ;
#316 = MANIFOLD_SOLID_BREP ( 'Schnitt-Linear austragen3', #97 ) ;
#317 = PRESENTATION_STYLE_ASSIGNMENT (( #890 ) ) ;
#318 = ORIENTED_EDGE ( 'NONE', *, *, #67, .F. ) ;
#319 = ORIENTED_EDGE ( 'NONE', *, *, #1113, .T. ) ;
#320 = ORIENTED_EDGE ( 'NONE', *, *, #603, .F. ) ;
#321 = EDGE_CURVE ( 'NONE', #649, #804, #763, .T. ) ;
#322 = VERTEX_POINT ( 'NONE', #452 ) ;
#323 = DIRECTION ( 'NONE',  ( -1.000000000000000000, -0.000000000000000000, -0.000000000000000000 ) ) ;
#324 = EDGE_CURVE ( 'NONE', #310, #1112, #525, .T. ) ;
#325 = DIRECTION ( 'NONE',  ( 0.000000000000000000, 1.000000000000000000, 0.000000000000000000 ) ) ;
#326 = CARTESIAN_POINT ( 'NONE',  ( 21.00000000000000000, 0.000000000000000000, -58.50000000000000000 ) ) ;
#327 = VECTOR ( 'NONE', #897, 1000.000000000000000 ) ;
#328 = CARTESIAN_POINT ( 'NONE',  ( 26.00000000000001066, 16.25000000000004974, -1.301042606982605321E-14 ) ) ;
#329 = FACE_OUTER_BOUND ( 'NONE', #455, .T. ) ;
#330 = DIRECTION ( 'NONE',  ( -0.000000000000000000, -0.000000000000000000, 1.000000000000000000 ) ) ;
#331 = DIRECTION ( 'NONE',  ( 0.000000000000000000, 0.000000000000000000, -1.000000000000000000 ) ) ;
#332 = CIRCLE ( 'NONE', #338, 2.249999999999998668 ) ;
#333 = VERTEX_POINT ( 'NONE', #458 ) ;
#334 = ORIENTED_EDGE ( 'NONE', *, *, #178, .F. ) ;
#335 = VERTEX_POINT ( 'NONE', #1096 ) ;
#336 = VERTEX_POINT ( 'NONE', #554 ) ;
#337 = ORIENTED_EDGE ( 'NONE', *, *, #593, .T. ) ;
#338 = AXIS2_PLACEMENT_3D ( 'NONE', #662, #734, #1017 ) ;
#339 = CARTESIAN_POINT ( 'NONE',  ( 16.00000000000000000, -3.000000000000000000, -20.50000000000000000 ) ) ;
#340 = DIRECTION ( 'NONE',  ( 1.000000000000000000, -3.469446951953613696E-16, -0.000000000000000000 ) ) ;
#341 = DIRECTION ( 'NONE',  ( 0.000000000000000000, 0.000000000000000000, 1.000000000000000000 ) ) ;
#342 = CARTESIAN_POINT ( 'NONE',  ( 21.00000000000000000, -3.000000000000000000, -53.50000000000000000 ) ) ;
#343 = CARTESIAN_POINT ( 'NONE',  ( 42.00000000000000000, 0.000000000000000000, -71.00000000000000000 ) ) ;
#344 = AXIS2_PLACEMENT_3D ( 'NONE', #1045, #125, #773 ) ;
#345 = CARTESIAN_POINT ( 'NONE',  ( 42.00000000000000000, 2.000000000000023537, -3.000000000000006217 ) ) ;
#346 = VECTOR ( 'NONE', #117, 1000.000000000000000 ) ;
#347 = CIRCLE ( 'NONE', #830, 4.000000000000003553 ) ;
#348 = DIRECTION ( 'NONE',  ( -0.000000000000000000, 0.000000000000000000, 1.000000000000000000 ) ) ;
#349 = VECTOR ( 'NONE', #859, 1000.000000000000000 ) ;
#350 = ORIENTED_EDGE ( 'NONE', *, *, #505, .F. ) ;
#351 = ORIENTED_EDGE ( 'NONE', *, *, #321, .F. ) ;
#352 = EDGE_CURVE ( 'NONE', #53, #454, #776, .T. ) ;
#353 = PLANE ( 'NONE',  #688 ) ;
#354 = AXIS2_PLACEMENT_3D ( 'NONE', #1101, #1173, #66 ) ;
#355 = FILL_AREA_STYLE ('',( #268 ) ) ;
#356 = DIRECTION ( 'NONE',  ( -1.000000000000000000, 0.000000000000000000, -0.000000000000000000 ) ) ;
#357 = CARTESIAN_POINT ( 'NONE',  ( 0.000000000000000000, 0.000000000000000000, -71.00000000000000000 ) ) ;
#358 = DIRECTION ( 'NONE',  ( 1.000000000000000000, -3.469446951953613696E-16, -0.000000000000000000 ) ) ;
#359 = CARTESIAN_POINT ( 'NONE',  ( 16.00000000000000000, 0.000000000000000000, -22.75000000000000000 ) ) ;
#360 = LINE ( 'NONE', #914, #1191 ) ;
#361 = FACE_BOUND ( 'NONE', #590, .T. ) ;
#362 = CIRCLE ( 'NONE', #273, 2.249999999999998668 ) ;
#363 = CARTESIAN_POINT ( 'NONE',  ( 12.50000000000000000, -3.000000000000000000, -53.50000000000000000 ) ) ;
#364 = EDGE_LOOP ( 'NONE', ( #307, #52, #676, #513, #204 ) ) ;
#365 = ORIENTED_EDGE ( 'NONE', *, *, #114, .T. ) ;
#366 = EDGE_LOOP ( 'NONE', ( #1052, #380, #350, #206 ) ) ;
#367 = ORIENTED_EDGE ( 'NONE', *, *, #939, .F. ) ;
#368 = CARTESIAN_POINT ( 'NONE',  ( 0.000000000000000000, -6.938893903907228378E-15, -5.000000000000000000 ) ) ;
#369 = CARTESIAN_POINT ( 'NONE',  ( 29.50000000000000711, 0.000000000000000000, -53.50000000000000000 ) ) ;
#370 = VERTEX_POINT ( 'NONE', #269 ) ;
#371 = EDGE_CURVE ( 'NONE', #296, #850, #153, .T. ) ;
#372 = DIRECTION ( 'NONE',  ( 1.000000000000000000, 0.000000000000000000, 0.000000000000000000 ) ) ;
#373 = APPLICATION_PROTOCOL_DEFINITION ( 'draft international standard', 'automotive_design', 1998, #663 ) ;
#374 = FACE_OUTER_BOUND ( 'NONE', #1066, .T. ) ;
#375 = VECTOR ( 'NONE', #1103, 1000.000000000000000 ) ;
#376 = CARTESIAN_POINT ( 'NONE',  ( 4.000000000000000000, -3.000000000000000000, -75.00000000000000000 ) ) ;
#377 = CIRCLE ( 'NONE', #194, 4.000000000000003553 ) ;
#378 = EDGE_LOOP ( 'NONE', ( #116, #648, #961, #515 ) ) ;
#379 = ORIENTED_EDGE ( 'NONE', *, *, #490, .F. ) ;
#380 = ORIENTED_EDGE ( 'NONE', *, *, #535, .F. ) ;
#381 = CARTESIAN_POINT ( 'NONE',  ( 5.999999999999998224, 18.50000000000004619, -1.301042606982605321E-14 ) ) ;
#382 = ADVANCED_FACE ( 'NONE', ( #304 ), #462, .T. ) ;
#383 = EDGE_CURVE ( 'NONE', #751, #561, #1179, .T. ) ;
#384 = CARTESIAN_POINT ( 'NONE',  ( 36.00000000000001421, 16.25000000000004619, -3.000000000000012879 ) ) ;
#385 = VECTOR ( 'NONE', #1120, 1000.000000000000000 ) ;
#386 = EDGE_CURVE ( 'NONE', #293, #482, #1004, .T. ) ;
#387 = VECTOR ( 'NONE', #150, 1000.000000000000000 ) ;
#388 = FACE_OUTER_BOUND ( 'NONE', #846, .T. ) ;
#389 = ORIENTED_EDGE ( 'NONE', *, *, #29, .F. ) ;
#390 = ORIENTED_EDGE ( 'NONE', *, *, #151, .T. ) ;
#391 = CARTESIAN_POINT ( 'NONE',  ( 38.00000000000000711, 25.00000000000004263, -3.000000000000012879 ) ) ;
#392 = VERTEX_POINT ( 'NONE', #175 ) ;
#393 = VERTEX_POINT ( 'NONE', #285 ) ;
#394 = ORIENTED_EDGE ( 'NONE', *, *, #352, .T. ) ;
#395 = ADVANCED_FACE ( 'NONE', ( #957 ), #216, .T. ) ;
#396 = ADVANCED_FACE ( 'NONE', ( #749 ), #92, .F. ) ;
#397 = AXIS2_PLACEMENT_3D ( 'NONE', #825, #565, #743 ) ;
#398 = DIRECTION ( 'NONE',  ( 0.000000000000000000, 0.000000000000000000, 1.000000000000000000 ) ) ;
#399 = SHAPE_DEFINITION_REPRESENTATION ( #242, #191 ) ;
#400 = VECTOR ( 'NONE', #401, 1000.000000000000000 ) ;
#401 = DIRECTION ( 'NONE',  ( -0.000000000000000000, -0.000000000000000000, 1.000000000000000000 ) ) ;
#402 = LINE ( 'NONE', #199, #65 ) ;
#403 = EDGE_CURVE ( 'NONE', #1080, #1038, #274, .T. ) ;
#404 = CIRCLE ( 'NONE', #931, 2.249999999999998668 ) ;
#405 = ORIENTED_EDGE ( 'NONE', *, *, #563, .T. ) ;
#406 = ORIENTED_EDGE ( 'NONE', *, *, #595, .F. ) ;
#407 = DIRECTION ( 'NONE',  ( 0.000000000000000000, -0.000000000000000000, -1.000000000000000000 ) ) ;
#408 = ORIENTED_EDGE ( 'NONE', *, *, #386, .T. ) ;
#409 = CARTESIAN_POINT ( 'NONE',  ( 42.00000000000000000, 3.035766082959412415E-14, -1.301042606982605321E-14 ) ) ;
#410 = DIRECTION ( 'NONE',  ( 0.000000000000000000, 0.000000000000000000, -1.000000000000000000 ) ) ;
#411 = EDGE_CURVE ( 'NONE', #322, #764, #861, .T. ) ;
#412 = DIRECTION ( 'NONE',  ( 0.000000000000000000, 0.000000000000000000, -1.000000000000000000 ) ) ;
#413 = AXIS2_PLACEMENT_3D ( 'NONE', #621, #437, #1075 ) ;
#414 = CARTESIAN_POINT ( 'NONE',  ( 16.00000000000000000, 0.000000000000000000, -22.75000000000000000 ) ) ;
#415 = LINE ( 'NONE', #101, #385 ) ;
#416 = VECTOR ( 'NONE', #119, 1000.000000000000000 ) ;
#417 = VECTOR ( 'NONE', #865, 1000.000000000000000 ) ;
#418 = DIRECTION ( 'NONE',  ( 0.000000000000000000, 0.000000000000000000, -1.000000000000000000 ) ) ;
#419 = EDGE_LOOP ( 'NONE', ( #172, #1020, #908, #1007 ) ) ;
#420 = ORIENTED_EDGE ( 'NONE', *, *, #1164, .T. ) ;
#421 = AXIS2_PLACEMENT_3D ( 'NONE', #955, #118, #398 ) ;
#422 = ORIENTED_EDGE ( 'NONE', *, *, #178, .T. ) ;
#423 = ORIENTED_EDGE ( 'NONE', *, *, #1102, .T. ) ;
#424 = DIRECTION ( 'NONE',  ( -1.000000000000000000, 0.000000000000000000, 0.000000000000000000 ) ) ;
#425 = CARTESIAN_POINT ( 'NONE',  ( 36.00000000000001421, 16.25000000000004619, -1.301042606982605321E-14 ) ) ;
#426 = CARTESIAN_POINT ( 'NONE',  ( 16.00000000000000000, -3.000000000000000000, -18.25000000000000355 ) ) ;
#427 = CARTESIAN_POINT ( 'NONE',  ( 16.00000000000000000, 0.000000000000000000, -20.50000000000000000 ) ) ;
#428 = EDGE_CURVE ( 'NONE', #248, #544, #801, .T. ) ;
#429 = VECTOR ( 'NONE', #1187, 1000.000000000000000 ) ;
#430 = CARTESIAN_POINT ( 'NONE',  ( 16.00000000000000000, 16.25000000000004619, -1.301042606982605321E-14 ) ) ;
#431 = LINE ( 'NONE', #959, #643 ) ;
#432 = PLANE ( 'NONE',  #895 ) ;
#433 = DIRECTION ( 'NONE',  ( -6.938893903907231336E-16, 0.000000000000000000, -1.000000000000000000 ) ) ;
#434 = VECTOR ( 'NONE', #896, 1000.000000000000000 ) ;
#435 = LINE ( 'NONE', #409, #68 ) ;
#436 = EDGE_CURVE ( 'NONE', #310, #561, #51, .T. ) ;
#437 = DIRECTION ( 'NONE',  ( 0.000000000000000000, 1.000000000000000000, 0.000000000000000000 ) ) ;
#438 = EDGE_LOOP ( 'NONE', ( #1139, #612, #729, #1100, #422 ) ) ;
#439 = ORIENTED_EDGE ( 'NONE', *, *, #192, .F. ) ;
#440 = ORIENTED_EDGE ( 'NONE', *, *, #474, .F. ) ;
#441 = DIRECTION ( 'NONE',  ( 0.000000000000000000, 0.000000000000000000, 1.000000000000000000 ) ) ;
#442 = DIRECTION ( 'NONE',  ( 0.000000000000000000, 0.000000000000000000, -1.000000000000000000 ) ) ;
#443 = EDGE_CURVE ( 'NONE', #802, #766, #332, .T. ) ;
#444 = AXIS2_PLACEMENT_3D ( 'NONE', #576, #670, #754 ) ;
#445 = CARTESIAN_POINT ( 'NONE',  ( 4.000000000000000000, 0.000000000000000000, -71.00000000000000000 ) ) ;
#446 = CARTESIAN_POINT ( 'NONE',  ( 29.50000000000000711, -3.000000000000000000, -53.50000000000000000 ) ) ;
#447 = ADVANCED_FACE ( 'NONE', ( #1134 ), #37, .F. ) ;
#448 = LINE ( 'NONE', #209, #1092 ) ;
#449 = LINE ( 'NONE', #605, #974 ) ;
#450 = CARTESIAN_POINT ( 'NONE',  ( 36.00000000000001421, 18.50000000000004263, -1.301042606982605321E-14 ) ) ;
#451 = CIRCLE ( 'NONE', #1084, 4.000000000000003553 ) ;
#452 = CARTESIAN_POINT ( 'NONE',  ( 0.000000000000000000, -6.938893903907228378E-15, -5.000000000000000000 ) ) ;
#453 = ORIENTED_EDGE ( 'NONE', *, *, #738, .T. ) ;
#454 = VERTEX_POINT ( 'NONE', #821 ) ;
#455 = EDGE_LOOP ( 'NONE', ( #278, #1050, #615, #470 ) ) ;
#456 = EDGE_CURVE ( 'NONE', #1181, #1083, #829, .T. ) ;
#457 = AXIS2_PLACEMENT_3D ( 'NONE', #1127, #759, #1060 ) ;
#458 = CARTESIAN_POINT ( 'NONE',  ( 38.00000000000000711, 25.00000000000004263, -1.301042606982605321E-14 ) ) ;
#459 = DIRECTION ( 'NONE',  ( -1.000000000000000000, 0.000000000000000000, 0.000000000000000000 ) ) ;
#460 = AXIS2_PLACEMENT_3D ( 'NONE', #1166, #883, #1056 ) ;
#461 = VECTOR ( 'NONE', #628, 1000.000000000000000 ) ;
#462 = PLANE ( 'NONE',  #397 ) ;
#463 = ADVANCED_FACE ( 'NONE', ( #624 ), #787, .T. ) ;
#464 = CYLINDRICAL_SURFACE ( 'NONE', #186, 2.249999999999998668 ) ;
#465 = FACE_OUTER_BOUND ( 'NONE', #699, .T. ) ;
#466 = ORIENTED_EDGE ( 'NONE', *, *, #183, .F. ) ;
#467 = FACE_OUTER_BOUND ( 'NONE', #1039, .T. ) ;
#468 = ORIENTED_EDGE ( 'NONE', *, *, #383, .T. ) ;
#469 = ORIENTED_EDGE ( 'NONE', *, *, #619, .T. ) ;
#470 = ORIENTED_EDGE ( 'NONE', *, *, #151, .F. ) ;
#471 = ADVANCED_FACE ( 'NONE', ( #465 ), #854, .F. ) ;
#472 = CARTESIAN_POINT ( 'NONE',  ( 21.00000000000000000, -3.000000000000000000, -58.50000000000000000 ) ) ;
#473 = DIRECTION ( 'NONE',  ( 0.000000000000000000, 0.000000000000000000, -1.000000000000000000 ) ) ;
#474 = EDGE_CURVE ( 'NONE', #617, #392, #402, .T. ) ;
#475 = VECTOR ( 'NONE', #768, 1000.000000000000000 ) ;
#476 = AXIS2_PLACEMENT_3D ( 'NONE', #326, #149, #1073 ) ;
#477 = COLOUR_RGB ( '',0.7529411764705882248, 0.7529411764705882248, 0.7529411764705882248 ) ;
#478 = CARTESIAN_POINT ( 'NONE',  ( 3.999999999999998224, 0.000000000000000000, -75.00000000000000000 ) ) ;
#479 = CIRCLE ( 'NONE', #131, 8.500000000000000000 ) ;
#480 = CARTESIAN_POINT ( 'NONE',  ( 0.000000000000000000, -3.000000000000000000, -75.00000000000000000 ) ) ;
#481 = EDGE_LOOP ( 'NONE', ( #439, #600, #853, #127 ) ) ;
#482 = VERTEX_POINT ( 'NONE', #297 ) ;
#483 = ORIENTED_EDGE ( 'NONE', *, *, #1087, .F. ) ;
#484 = AXIS2_PLACEMENT_3D ( 'NONE', #339, #1072, #868 ) ;
#485 = CARTESIAN_POINT ( 'NONE',  ( 0.000000000000000000, -3.000000000000000000, 0.000000000000000000 ) ) ;
#486 = DIRECTION ( 'NONE',  ( 1.000000000000000000, -3.469446951953613696E-16, -0.000000000000000000 ) ) ;
#487 = PLANE ( 'NONE',  #1031 ) ;
#488 = CARTESIAN_POINT ( 'NONE',  ( 12.50000000000000000, -3.000000000000000000, -53.50000000000000000 ) ) ;
#489 = VECTOR ( 'NONE', #987, 1000.000000000000000 ) ;
#490 = EDGE_CURVE ( 'NONE', #296, #851, #508, .T. ) ;
#491 = PLANE ( 'NONE',  #1115 ) ;
#492 = LINE ( 'NONE', #430, #886 ) ;
#493 = ORIENTED_EDGE ( 'NONE', *, *, #578, .T. ) ;
#494 = ORIENTED_EDGE ( 'NONE', *, *, #58, .F. ) ;
#495 = ADVANCED_FACE ( 'NONE', ( #1032 ), #210, .F. ) ;
#496 = ORIENTED_EDGE ( 'NONE', *, *, #794, .F. ) ;
#497 = ORIENTED_EDGE ( 'NONE', *, *, #3, .T. ) ;
#498 = CARTESIAN_POINT ( 'NONE',  ( 5.999999999999998224, 18.50000000000004619, -1.301042606982605321E-14 ) ) ;
#499 = CARTESIAN_POINT ( 'NONE',  ( 16.00000000000000000, 16.25000000000004619, -1.301042606982605321E-14 ) ) ;
#500 = CARTESIAN_POINT ( 'NONE',  ( 4.000000000000000000, 25.00000000000004263, -3.000000000000012879 ) ) ;
#501 = EDGE_CURVE ( 'NONE', #392, #936, #1079, .T. ) ;
#502 = AXIS2_PLACEMENT_3D ( 'NONE', #534, #625, #639 ) ;
#503 = DIRECTION ( 'NONE',  ( -0.000000000000000000, -0.000000000000000000, -1.000000000000000000 ) ) ;
#504 = CARTESIAN_POINT ( 'NONE',  ( 42.00000000000000000, -6.938893903907228378E-15, -5.000000000000000000 ) ) ;
#505 = EDGE_CURVE ( 'NONE', #569, #832, #347, .T. ) ;
#506 = LINE ( 'NONE', #345, #758 ) ;
#507 = DIRECTION ( 'NONE',  ( 0.000000000000000000, -1.000000000000000000, 0.000000000000000000 ) ) ;
#508 = LINE ( 'NONE', #757, #722 ) ;
#509 = AXIS2_PLACEMENT_3D ( 'NONE', #950, #1040, #953 ) ;
#510 = DIRECTION ( 'NONE',  ( -1.000000000000000000, 0.000000000000000000, 3.469446951953613696E-16 ) ) ;
#511 = LINE ( 'NONE', #1067, #723 ) ;
#512 = ORIENTED_EDGE ( 'NONE', *, *, #1148, .T. ) ;
#513 = ORIENTED_EDGE ( 'NONE', *, *, #2, .F. ) ;
#514 = CARTESIAN_POINT ( 'NONE',  ( 3.750000000000000000, 18.50000000000004619, -1.301042606982605321E-14 ) ) ;
#515 = ORIENTED_EDGE ( 'NONE', *, *, #517, .T. ) ;
#516 = CARTESIAN_POINT ( 'NONE',  ( 36.00000000000001421, 16.25000000000004619, -1.301042606982605321E-14 ) ) ;
#517 = EDGE_CURVE ( 'NONE', #85, #616, #139, .T. ) ;
#518 = DIRECTION ( 'NONE',  ( 1.000000000000000000, -3.469446951953613696E-16, -0.000000000000000000 ) ) ;
#519 = AXIS2_PLACEMENT_3D ( 'NONE', #236, #331, #971 ) ;
#520 = CARTESIAN_POINT ( 'NONE',  ( 16.00000000000000000, 16.25000000000004619, -3.000000000000012879 ) ) ;
#521 = CARTESIAN_POINT ( 'NONE',  ( 36.00000000000001421, 16.25000000000004619, -1.301042606982605321E-14 ) ) ;
#522 = FACE_OUTER_BOUND ( 'NONE', #154, .T. ) ;
#523 = CARTESIAN_POINT ( 'NONE',  ( 16.00000000000000000, -0.000000000000000000, -18.25000000000000355 ) ) ;
#524 = VECTOR ( 'NONE', #1081, 1000.000000000000000 ) ;
#525 = LINE ( 'NONE', #1185, #567 ) ;
#526 = VERTEX_POINT ( 'NONE', #295 ) ;
#527 = ORIENTED_EDGE ( 'NONE', *, *, #1064, .T. ) ;
#528 = AXIS2_PLACEMENT_3D ( 'NONE', #985, #968, #424 ) ;
#529 = EDGE_LOOP ( 'NONE', ( #405, #660, #294, #993 ) ) ;
#530 = ORIENTED_EDGE ( 'NONE', *, *, #1105, .F. ) ;
#531 = ORIENTED_EDGE ( 'NONE', *, *, #619, .F. ) ;
#532 = DIRECTION ( 'NONE',  ( -0.000000000000000000, -0.000000000000000000, -1.000000000000000000 ) ) ;
#533 = EDGE_CURVE ( 'NONE', #697, #587, #842, .T. ) ;
#534 = CARTESIAN_POINT ( 'NONE',  ( 42.00000000000000000, 25.00000000000004263, -1.301042606982605321E-14 ) ) ;
#535 = EDGE_CURVE ( 'NONE', #832, #370, #1149, .T. ) ;
#536 = CARTESIAN_POINT ( 'NONE',  ( 5.999999999999998224, 18.50000000000004619, -3.000000000000012879 ) ) ;
#537 = CARTESIAN_POINT ( 'NONE',  ( 0.000000000000000000, 3.035766082959412415E-14, -3.000000000000012879 ) ) ;
#538 = FACE_OUTER_BOUND ( 'NONE', #247, .T. ) ;
#539 = DIRECTION ( 'NONE',  ( -0.000000000000000000, -0.000000000000000000, 1.000000000000000000 ) ) ;
#540 = VECTOR ( 'NONE', #372, 1000.000000000000000 ) ;
#541 = LINE ( 'NONE', #1058, #844 ) ;
#542 = EDGE_CURVE ( 'NONE', #1083, #832, #106, .T. ) ;
#543 = ORIENTED_EDGE ( 'NONE', *, *, #34, .T. ) ;
#544 = VERTEX_POINT ( 'NONE', #1026 ) ;
#545 = ORIENTED_EDGE ( 'NONE', *, *, #88, .T. ) ;
#546 = AXIS2_PLACEMENT_3D ( 'NONE', #363, #1001, #256 ) ;
#547 = SURFACE_SIDE_STYLE ('',( #184 ) ) ;
#548 = CARTESIAN_POINT ( 'NONE',  ( 37.99999999999999289, -3.000000000000000000, -75.00000000000000000 ) ) ;
#549 = DIRECTION ( 'NONE',  ( -1.000000000000000000, 0.000000000000000000, 0.000000000000000000 ) ) ;
#550 = DIRECTION ( 'NONE',  ( -1.000000000000000000, 0.000000000000000000, 0.000000000000000000 ) ) ;
#551 = PLANE ( 'NONE',  #815 ) ;
#552 = DIRECTION ( 'NONE',  ( 1.000000000000000000, 0.000000000000000000, -3.469446951953613696E-16 ) ) ;
#553 =( GEOMETRIC_REPRESENTATION_CONTEXT ( 3 ) GLOBAL_UNCERTAINTY_ASSIGNED_CONTEXT ( ( #1044 ) ) GLOBAL_UNIT_ASSIGNED_CONTEXT ( ( #998, #1077, #1177 ) ) REPRESENTATION_CONTEXT ( 'NONE', 'WORKASPACE' ) );
#554 = CARTESIAN_POINT ( 'NONE',  ( 23.75000000000001066, 18.50000000000004619, -3.000000000000012879 ) ) ;
#555 = PLANE ( 'NONE',  #566 ) ;
#556 = LINE ( 'NONE', #18, #302 ) ;
#557 = FACE_OUTER_BOUND ( 'NONE', #631, .T. ) ;
#558 = DIRECTION ( 'NONE',  ( 0.000000000000000000, 1.000000000000000000, 0.000000000000000000 ) ) ;
#559 = ORIENTED_EDGE ( 'NONE', *, *, #1023, .T. ) ;
#560 = ORIENTED_EDGE ( 'NONE', *, *, #403, .F. ) ;
#561 = VERTEX_POINT ( 'NONE', #478 ) ;
#562 = VERTEX_POINT ( 'NONE', #208 ) ;
#563 = EDGE_CURVE ( 'NONE', #11, #309, #1093, .T. ) ;
#564 = DIRECTION ( 'NONE',  ( 0.000000000000000000, -1.000000000000000000, 0.000000000000000000 ) ) ;
#565 = DIRECTION ( 'NONE',  ( 1.000000000000000000, 0.000000000000000000, -0.000000000000000000 ) ) ;
#566 = AXIS2_PLACEMENT_3D ( 'NONE', #163, #642, #356 ) ;
#567 = VECTOR ( 'NONE', #162, 1000.000000000000000 ) ;
#568 = ORIENTED_EDGE ( 'NONE', *, *, #279, .T. ) ;
#569 = VERTEX_POINT ( 'NONE', #391 ) ;
#570 = ORIENTED_EDGE ( 'NONE', *, *, #3, .F. ) ;
#571 = CARTESIAN_POINT ( 'NONE',  ( 21.00000000000000000, -3.000000000000000000, -53.50000000000000000 ) ) ;
#572 = DIRECTION ( 'NONE',  ( 0.000000000000000000, 1.000000000000000000, 0.000000000000000000 ) ) ;
#573 = AXIS2_PLACEMENT_3D ( 'NONE', #805, #259, #1090 ) ;
#574 = DIRECTION ( 'NONE',  ( 0.000000000000000000, 1.000000000000000000, 0.000000000000000000 ) ) ;
#575 = ADVANCED_FACE ( 'NONE', ( #198 ), #843, .T. ) ;
#576 = CARTESIAN_POINT ( 'NONE',  ( 38.00000000000000711, 0.000000000000000000, -71.00000000000000000 ) ) ;
#577 = DIRECTION ( 'NONE',  ( -1.000000000000000000, 0.000000000000000000, 0.000000000000000000 ) ) ;
#578 = EDGE_CURVE ( 'NONE', #851, #562, #1046, .T. ) ;
#579 = LINE ( 'NONE', #446, #327 ) ;
#580 = AXIS2_PLACEMENT_3D ( 'NONE', #732, #814, #174 ) ;
#581 = LINE ( 'NONE', #1147, #387 ) ;
#582 = DIRECTION ( 'NONE',  ( 0.000000000000000000, 0.000000000000000000, 1.000000000000000000 ) ) ;
#583 = ADVANCED_FACE ( 'NONE', ( #215, #609, #1003 ), #314, .F. ) ;
#584 = VECTOR ( 'NONE', #558, 1000.000000000000000 ) ;
#585 = DIRECTION ( 'NONE',  ( 0.000000000000000000, 0.000000000000000000, 1.000000000000000000 ) ) ;
#586 = ORIENTED_EDGE ( 'NONE', *, *, #593, .F. ) ;
#587 = VERTEX_POINT ( 'NONE', #42 ) ;
#588 = ORIENTED_EDGE ( 'NONE', *, *, #223, .F. ) ;
#589 = EDGE_LOOP ( 'NONE', ( #922, #1137, #818, #570 ) ) ;
#590 = EDGE_LOOP ( 'NONE', ( #26, #876, #727, #1197, #1119 ) ) ;
#591 = PRODUCT_DEFINITION ( 'UNKNOWN', '', #1010, #44 ) ;
#592 = CARTESIAN_POINT ( 'NONE',  ( 63.46440466412236958, 1.999999999999993117, -5.000000000000000000 ) ) ;
#593 = EDGE_CURVE ( 'NONE', #53, #1098, #449, .T. ) ;
#594 = DIRECTION ( 'NONE',  ( 0.000000000000000000, 1.000000000000000000, 0.000000000000000000 ) ) ;
#595 = EDGE_CURVE ( 'NONE', #526, #817, #761, .T. ) ;
#596 = DIRECTION ( 'NONE',  ( 0.000000000000000000, 0.000000000000000000, -1.000000000000000000 ) ) ;
#597 = CYLINDRICAL_SURFACE ( 'NONE', #580, 4.000000000000003553 ) ;
#598 = VECTOR ( 'NONE', #574, 1000.000000000000000 ) ;
#599 = FACE_OUTER_BOUND ( 'NONE', #529, .T. ) ;
#600 = ORIENTED_EDGE ( 'NONE', *, *, #838, .F. ) ;
#601 = ORIENTED_EDGE ( 'NONE', *, *, #238, .T. ) ;
#602 = CARTESIAN_POINT ( 'NONE',  ( 0.000000000000000000, 0.000000000000000000, 0.000000000000000000 ) ) ;
#603 = EDGE_CURVE ( 'NONE', #544, #764, #828, .T. ) ;
#604 = CARTESIAN_POINT ( 'NONE',  ( 0.000000000000000000, 2.000000000000023537, -1.301042606982605321E-14 ) ) ;
#605 = CARTESIAN_POINT ( 'NONE',  ( 26.00000000000000355, -3.000000000000000000, -22.75000000000000355 ) ) ;
#606 = ADVANCED_FACE ( 'NONE', ( #182 ), #689, .T. ) ;
#607 = VECTOR ( 'NONE', #518, 1000.000000000000000 ) ;
#608 = DIRECTION ( 'NONE',  ( -1.000000000000000000, 3.469446951953613696E-16, 0.000000000000000000 ) ) ;
#609 = FACE_BOUND ( 'NONE', #1153, .T. ) ;
#610 = DIRECTION ( 'NONE',  ( -0.000000000000000000, -0.000000000000000000, -1.000000000000000000 ) ) ;
#611 = ORIENTED_EDGE ( 'NONE', *, *, #34, .F. ) ;
#612 = ORIENTED_EDGE ( 'NONE', *, *, #67, .T. ) ;
#613 = ORIENTED_EDGE ( 'NONE', *, *, #1140, .F. ) ;
#614 = DIRECTION ( 'NONE',  ( -1.000000000000000000, 0.000000000000000000, 0.000000000000000000 ) ) ;
#615 = ORIENTED_EDGE ( 'NONE', *, *, #411, .T. ) ;
#616 = VERTEX_POINT ( 'NONE', #954 ) ;
#617 = VERTEX_POINT ( 'NONE', #857 ) ;
#618 = CARTESIAN_POINT ( 'NONE',  ( 42.00000000000000000, 2.000000000000023537, -3.000000000000012879 ) ) ;
#619 = EDGE_CURVE ( 'NONE', #1112, #1154, #695, .T. ) ;
#620 = CARTESIAN_POINT ( 'NONE',  ( 1.387778780781445676E-14, 1.999999999999993117, -5.000000000000000000 ) ) ;
#621 = CARTESIAN_POINT ( 'NONE',  ( 16.00000000000000000, -3.000000000000000000, -20.50000000000000000 ) ) ;
#622 = DIRECTION ( 'NONE',  ( -1.000000000000000000, 0.000000000000000000, 0.000000000000000000 ) ) ;
#623 = VECTOR ( 'NONE', #291, 1000.000000000000000 ) ;
#624 = FACE_OUTER_BOUND ( 'NONE', #366, .T. ) ;
#625 = DIRECTION ( 'NONE',  ( -1.000000000000000000, 0.000000000000000000, 0.000000000000000000 ) ) ;
#626 = CIRCLE ( 'NONE', #509, 2.249999999999998668 ) ;
#627 = CARTESIAN_POINT ( 'NONE',  ( 21.00000000000000000, -3.000000000000000000, -45.00000000000000000 ) ) ;
#628 = DIRECTION ( 'NONE',  ( -1.000000000000000000, -0.000000000000000000, -0.000000000000000000 ) ) ;
#629 = ORIENTED_EDGE ( 'NONE', *, *, #900, .T. ) ;
#630 = ORIENTED_EDGE ( 'NONE', *, *, #73, .F. ) ;
#631 = EDGE_LOOP ( 'NONE', ( #1097, #909, #494, #710 ) ) ;
#632 = DIRECTION ( 'NONE',  ( -1.000000000000000000, 0.000000000000000000, 0.000000000000000000 ) ) ;
#633 = CARTESIAN_POINT ( 'NONE',  ( 0.000000000000000000, 25.00000000000004263, -1.301042606982605321E-14 ) ) ;
#634 = EDGE_CURVE ( 'NONE', #248, #322, #49, .T. ) ;
#635 = DIRECTION ( 'NONE',  ( 1.000000000000000000, -3.469446951953613696E-16, 0.000000000000000000 ) ) ;
#636 = AXIS2_PLACEMENT_3D ( 'NONE', #472, #86, #180 ) ;
#637 = CARTESIAN_POINT ( 'NONE',  ( 12.50000000000000000, 0.000000000000000000, -53.50000000000000000 ) ) ;
#638 = CARTESIAN_POINT ( 'NONE',  ( 0.000000000000000000, 21.00000000000004263, -1.301042606982605321E-14 ) ) ;
#639 = DIRECTION ( 'NONE',  ( 0.000000000000000000, 0.000000000000000000, 1.000000000000000000 ) ) ;
#640 = FACE_OUTER_BOUND ( 'NONE', #946, .T. ) ;
#641 = CARTESIAN_POINT ( 'NONE',  ( 42.00000000000000000, 0.000000000000000000, 0.000000000000000000 ) ) ;
#642 = DIRECTION ( 'NONE',  ( 0.000000000000000000, 0.000000000000000000, -1.000000000000000000 ) ) ;
#643 = VECTOR ( 'NONE', #323, 1000.000000000000000 ) ;
#644 = CIRCLE ( 'NONE', #444, 4.000000000000003553 ) ;
#645 = EDGE_CURVE ( 'NONE', #173, #11, #79, .T. ) ;
#646 = DIRECTION ( 'NONE',  ( 0.000000000000000000, 0.000000000000000000, -1.000000000000000000 ) ) ;
#647 = ORIENTED_EDGE ( 'NONE', *, *, #305, .T. ) ;
#648 = ORIENTED_EDGE ( 'NONE', *, *, #645, .F. ) ;
#649 = VERTEX_POINT ( 'NONE', #1057 ) ;
#650 = ORIENTED_EDGE ( 'NONE', *, *, #664, .T. ) ;
#651 = DIRECTION ( 'NONE',  ( -0.000000000000000000, -0.000000000000000000, -1.000000000000000000 ) ) ;
#652 = CARTESIAN_POINT ( 'NONE',  ( 42.00000000000000000, -6.938893903907228378E-15, -5.000000000000000000 ) ) ;
#653 = AXIS2_PLACEMENT_3D ( 'NONE', #537, #473, #1012 ) ;
#654 = FILL_AREA_STYLE_COLOUR ( '', #858 ) ;
#655 = ADVANCED_FACE ( 'NONE', ( #917, #361, #903 ), #123, .T. ) ;
#656 = FACE_OUTER_BOUND ( 'NONE', #203, .T. ) ;
#657 =( LENGTH_UNIT ( ) NAMED_UNIT ( * ) SI_UNIT ( .MILLI., .METRE. ) );
#658 = LINE ( 'NONE', #604, #200 ) ;
#659 = VERTEX_POINT ( 'NONE', #1047 ) ;
#660 = ORIENTED_EDGE ( 'NONE', *, *, #879, .F. ) ;
#661 = AXIS2_PLACEMENT_3D ( 'NONE', #1085, #986, #550 ) ;
#662 = CARTESIAN_POINT ( 'NONE',  ( 26.00000000000001066, 18.50000000000004619, -1.301042606982605321E-14 ) ) ;
#663 = APPLICATION_CONTEXT ( 'automotive_design' ) ;
#664 = EDGE_CURVE ( 'NONE', #569, #697, #431, .T. ) ;
#665 = CARTESIAN_POINT ( 'NONE',  ( 36.00000000000001421, 16.25000000000004619, -3.000000000000012879 ) ) ;
#666 = AXIS2_PLACEMENT_3D ( 'NONE', #965, #227, #418 ) ;
#667 = VECTOR ( 'NONE', #213, 1000.000000000000000 ) ;
#668 = ADVANCED_FACE ( 'NONE', ( #737 ), #1132, .T. ) ;
#669 = CARTESIAN_POINT ( 'NONE',  ( 5.999999999999998224, 20.75000000000004619, -1.301042606982605321E-14 ) ) ;
#670 = DIRECTION ( 'NONE',  ( -0.000000000000000000, 1.000000000000000000, -0.000000000000000000 ) ) ;
#671 = CIRCLE ( 'NONE', #840, 2.249999999999998668 ) ;
#672 = CYLINDRICAL_SURFACE ( 'NONE', #344, 2.249999999999998668 ) ;
#673 = EDGE_LOOP ( 'NONE', ( #994, #920, #559, #205 ) ) ;
#674 = VERTEX_POINT ( 'NONE', #414 ) ;
#675 = DIRECTION ( 'NONE',  ( -1.000000000000000000, 3.469446951953613696E-16, 0.000000000000000000 ) ) ;
#676 = ORIENTED_EDGE ( 'NONE', *, *, #1023, .F. ) ;
#677 = CARTESIAN_POINT ( 'NONE',  ( 16.00000000000000000, -3.000000000000000000, -22.75000000000000000 ) ) ;
#678 = ADVANCED_FACE ( 'NONE', ( #681 ), #1192, .F. ) ;
#679 = EDGE_CURVE ( 'NONE', #674, #1038, #671, .T. ) ;
#680 = LINE ( 'NONE', #652, #461 ) ;
#681 = FACE_OUTER_BOUND ( 'NONE', #378, .T. ) ;
#682 = CIRCLE ( 'NONE', #1142, 4.000000000000003553 ) ;
#683 = LINE ( 'NONE', #504, #417 ) ;
#684 = ORIENTED_EDGE ( 'NONE', *, *, #223, .T. ) ;
#685 = ORIENTED_EDGE ( 'NONE', *, *, #436, .T. ) ;
#686 = CARTESIAN_POINT ( 'NONE',  ( 0.000000000000000000, -3.000000000000000000, 0.000000000000000000 ) ) ;
#687 = DIRECTION ( 'NONE',  ( -0.000000000000000000, -0.000000000000000000, -1.000000000000000000 ) ) ;
#688 = AXIS2_PLACEMENT_3D ( 'NONE', #195, #809, #635 ) ;
#689 = PLANE ( 'NONE',  #666 ) ;
#690 = EDGE_CURVE ( 'NONE', #921, #1008, #1117, .T. ) ;
#691 = DIRECTION ( 'NONE',  ( 0.000000000000000000, 0.000000000000000000, 1.000000000000000000 ) ) ;
#692 = AXIS2_PLACEMENT_3D ( 'NONE', #254, #1170, #796 ) ;
#693 = CARTESIAN_POINT ( 'NONE',  ( 21.00000000000000000, 0.000000000000000000, -53.50000000000000000 ) ) ;
#694 = LINE ( 'NONE', #241, #1116 ) ;
#695 = CIRCLE ( 'NONE', #98, 4.000000000000003553 ) ;
#696 = CIRCLE ( 'NONE', #849, 2.249999999999998668 ) ;
#697 = VERTEX_POINT ( 'NONE', #500 ) ;
#698 = ORIENTED_EDGE ( 'NONE', *, *, #721, .T. ) ;
#699 = EDGE_LOOP ( 'NONE', ( #263, #1155, #232, #423 ) ) ;
#700 = DIRECTION ( 'NONE',  ( -0.000000000000000000, -0.000000000000000000, -1.000000000000000000 ) ) ;
#701 = EDGE_CURVE ( 'NONE', #713, #157, #581, .T. ) ;
#702 = DIRECTION ( 'NONE',  ( -0.000000000000000000, -0.000000000000000000, -1.000000000000000000 ) ) ;
#703 = CARTESIAN_POINT ( 'NONE',  ( 26.00000000000000355, -3.000000000000000000, -20.50000000000000355 ) ) ;
#704 = AXIS2_PLACEMENT_3D ( 'NONE', #982, #148, #433 ) ;
#705 = PLANE ( 'NONE',  #36 ) ;
#706 = DIRECTION ( 'NONE',  ( 1.000000000000000000, -3.469446951953613696E-16, 0.000000000000000000 ) ) ;
#707 = PLANE ( 'NONE',  #704 ) ;
#708 = CYLINDRICAL_SURFACE ( 'NONE', #756, 8.500000000000000000 ) ;
#709 = CARTESIAN_POINT ( 'NONE',  ( 0.000000000000000000, 21.00000000000004263, -1.301042606982605321E-14 ) ) ;
#710 = ORIENTED_EDGE ( 'NONE', *, *, #1014, .F. ) ;
#711 = ORIENTED_EDGE ( 'NONE', *, *, #1128, .F. ) ;
#712 = EDGE_LOOP ( 'NONE', ( #906, #1167, #408, #684 ) ) ;
#713 = VERTEX_POINT ( 'NONE', #1071 ) ;
#714 = EDGE_CURVE ( 'NONE', #878, #293, #492, .T. ) ;
#715 = MECHANICAL_DESIGN_GEOMETRIC_PRESENTATION_REPRESENTATION (  '', ( #221 ), #553 ) ;
#716 = DIRECTION ( 'NONE',  ( -1.000000000000000000, -0.000000000000000000, 3.469446951953613696E-16 ) ) ;
#717 = DIRECTION ( 'NONE',  ( -1.000000000000000000, -0.000000000000000000, -0.000000000000000000 ) ) ;
#718 = CARTESIAN_POINT ( 'NONE',  ( 36.00000000000001421, 18.50000000000004263, -3.000000000000012879 ) ) ;
#719 = DIRECTION ( 'NONE',  ( -0.000000000000000000, -0.000000000000000000, -1.000000000000000000 ) ) ;
#720 = CYLINDRICAL_SURFACE ( 'NONE', #313, 4.000000000000000000 ) ;
#721 = EDGE_CURVE ( 'NONE', #778, #482, #942, .T. ) ;
#722 = VECTOR ( 'NONE', #300, 1000.000000000000000 ) ;
#723 = VECTOR ( 'NONE', #441, 1000.000000000000000 ) ;
#724 = AXIS2_PLACEMENT_3D ( 'NONE', #450, #1088, #549 ) ;
#725 = DIRECTION ( 'NONE',  ( 0.000000000000000000, 0.000000000000000000, -1.000000000000000000 ) ) ;
#726 = CARTESIAN_POINT ( 'NONE',  ( 5.999999999999998224, 20.75000000000004619, -3.000000000000012879 ) ) ;
#727 = ORIENTED_EDGE ( 'NONE', *, *, #1128, .T. ) ;
#728 = ORIENTED_EDGE ( 'NONE', *, *, #916, .T. ) ;
#729 = ORIENTED_EDGE ( 'NONE', *, *, #714, .T. ) ;
#730 = CARTESIAN_POINT ( 'NONE',  ( 0.000000000000000000, 25.00000000000004263, -1.301042606982605321E-14 ) ) ;
#731 = CARTESIAN_POINT ( 'NONE',  ( 37.99999999999999289, 0.000000000000000000, -75.00000000000000000 ) ) ;
#732 = CARTESIAN_POINT ( 'NONE',  ( 38.00000000000000711, -3.000000000000000000, -71.00000000000000000 ) ) ;
#733 = UNCERTAINTY_MEASURE_WITH_UNIT (LENGTH_MEASURE( 1.000000000000000082E-05 ), #87, 'distance_accuracy_value', 'NONE');
#734 = DIRECTION ( 'NONE',  ( 0.000000000000000000, 0.000000000000000000, -1.000000000000000000 ) ) ;
#735 = VECTOR ( 'NONE', #610, 1000.000000000000000 ) ;
#736 =( NAMED_UNIT ( * ) PLANE_ANGLE_UNIT ( ) SI_UNIT ( $, .RADIAN. ) );
#737 = FACE_OUTER_BOUND ( 'NONE', #1069, .T. ) ;
#738 = EDGE_CURVE ( 'NONE', #617, #1065, #1076, .T. ) ;
#739 = ORIENTED_EDGE ( 'NONE', *, *, #721, .F. ) ;
#740 = EDGE_LOOP ( 'NONE', ( #277, #728, #1019, #394 ) ) ;
#741 = ORIENTED_EDGE ( 'NONE', *, *, #826, .T. ) ;
#742 = VERTEX_POINT ( 'NONE', #709 ) ;
#743 = DIRECTION ( 'NONE',  ( -0.000000000000000000, 0.000000000000000000, -1.000000000000000000 ) ) ;
#744 = EDGE_LOOP ( 'NONE', ( #647, #145, #440, #453 ) ) ;
#745 = DIRECTION ( 'NONE',  ( 0.000000000000000000, 0.000000000000000000, 1.000000000000000000 ) ) ;
#746 = DIRECTION ( 'NONE',  ( 0.000000000000000000, 0.000000000000000000, -1.000000000000000000 ) ) ;
#747 = SURFACE_STYLE_FILL_AREA ( #181 ) ;
#748 = FACE_OUTER_BOUND ( 'NONE', #1111, .T. ) ;
#749 = FACE_OUTER_BOUND ( 'NONE', #1168, .T. ) ;
#750 = DIRECTION ( 'NONE',  ( -0.000000000000000000, -0.000000000000000000, 1.000000000000000000 ) ) ;
#751 = VERTEX_POINT ( 'NONE', #1160 ) ;
#752 = ORIENTED_EDGE ( 'NONE', *, *, #129, .F. ) ;
#753 = AXIS2_PLACEMENT_3D ( 'NONE', #110, #852, #675 ) ;
#754 = DIRECTION ( 'NONE',  ( 1.040834085586083310E-14, 0.000000000000000000, -1.000000000000000000 ) ) ;
#755 = EDGE_CURVE ( 'NONE', #335, #1181, #1107, .T. ) ;
#756 = AXIS2_PLACEMENT_3D ( 'NONE', #270, #176, #800 ) ;
#757 = CARTESIAN_POINT ( 'NONE',  ( 21.00000000000000000, -3.000000000000000000, -45.00000000000000000 ) ) ;
#758 = VECTOR ( 'NONE', #137, 1000.000000000000000 ) ;
#759 = DIRECTION ( 'NONE',  ( -0.000000000000000000, -0.000000000000000000, 1.000000000000000000 ) ) ;
#760 = CARTESIAN_POINT ( 'NONE',  ( 4.000000000000000000, -3.000000000000000000, -71.00000000000000000 ) ) ;
#761 = LINE ( 'NONE', #780, #416 ) ;
#762 = ADVANCED_FACE ( 'NONE', ( #329 ), #705, .T. ) ;
#763 = LINE ( 'NONE', #641, #887 ) ;
#764 = VERTEX_POINT ( 'NONE', #54 ) ;
#765 = ORIENTED_EDGE ( 'NONE', *, *, #969, .F. ) ;
#766 = VERTEX_POINT ( 'NONE', #45 ) ;
#767 = ORIENTED_EDGE ( 'NONE', *, *, #1000, .T. ) ;
#768 = DIRECTION ( 'NONE',  ( -1.000000000000000000, 3.469446951953613696E-16, 0.000000000000000000 ) ) ;
#769 = CARTESIAN_POINT ( 'NONE',  ( 16.00000000000000000, 18.50000000000004263, -1.301042606982605321E-14 ) ) ;
#770 = DIRECTION ( 'NONE',  ( -0.000000000000000000, -0.000000000000000000, -1.000000000000000000 ) ) ;
#771 = DIRECTION ( 'NONE',  ( 0.000000000000000000, 0.000000000000000000, 1.000000000000000000 ) ) ;
#772 = AXIS2_PLACEMENT_3D ( 'NONE', #571, #823, #1194 ) ;
#773 = DIRECTION ( 'NONE',  ( -1.000000000000000000, 0.000000000000000000, 0.000000000000000000 ) ) ;
#774 = FACE_OUTER_BOUND ( 'NONE', #744, .T. ) ;
#775 = CARTESIAN_POINT ( 'NONE',  ( 38.00000000000000711, -3.000000000000000000, -71.00000000000000000 ) ) ;
#776 = LINE ( 'NONE', #60, #1016 ) ;
#777 = DIRECTION ( 'NONE',  ( 0.000000000000000000, -1.000000000000000000, 0.000000000000000000 ) ) ;
#778 = VERTEX_POINT ( 'NONE', #520 ) ;
#779 = ORIENTED_EDGE ( 'NONE', *, *, #634, .F. ) ;
#780 = CARTESIAN_POINT ( 'NONE',  ( 29.50000000000000711, -3.000000000000000000, -58.50000000000000000 ) ) ;
#781 = EDGE_CURVE ( 'NONE', #230, #659, #1030, .T. ) ;
#782 = ADVANCED_FACE ( 'NONE', ( #91 ), #464, .F. ) ;
#783 = DIRECTION ( 'NONE',  ( 1.000000000000000000, 0.000000000000000000, 0.000000000000000000 ) ) ;
#784 = AXIS2_PLACEMENT_3D ( 'NONE', #1136, #503, #33 ) ;
#785 = AXIS2_PLACEMENT_3D ( 'NONE', #133, #594, #771 ) ;
#786 = CIRCLE ( 'NONE', #519, 2.249999999999998668 ) ;
#787 = CYLINDRICAL_SURFACE ( 'NONE', #212, 4.000000000000003553 ) ;
#788 = DIRECTION ( 'NONE',  ( 0.000000000000000000, 0.000000000000000000, 1.000000000000000000 ) ) ;
#789 = ORIENTED_EDGE ( 'NONE', *, *, #490, .T. ) ;
#790 = ORIENTED_EDGE ( 'NONE', *, *, #755, .F. ) ;
#791 = CARTESIAN_POINT ( 'NONE',  ( 12.50000000000000000, 0.000000000000000000, -58.50000000000000000 ) ) ;
#792 = ORIENTED_EDGE ( 'NONE', *, *, #386, .F. ) ;
#793 = ORIENTED_EDGE ( 'NONE', *, *, #48, .F. ) ;
#794 = EDGE_CURVE ( 'NONE', #335, #697, #860, .T. ) ;
#795 = DIRECTION ( 'NONE',  ( -0.000000000000000000, -1.000000000000000000, -0.000000000000000000 ) ) ;
#796 = DIRECTION ( 'NONE',  ( -1.000000000000000000, 0.000000000000000000, 0.000000000000000000 ) ) ;
#797 = CARTESIAN_POINT ( 'NONE',  ( 42.00000000000000000, 1.999999999999993117, -5.000000000000000000 ) ) ;
#798 = VECTOR ( 'NONE', #1041, 1000.000000000000000 ) ;
#799 = DIRECTION ( 'NONE',  ( -0.000000000000000000, 1.000000000000000000, -0.000000000000000000 ) ) ;
#800 = DIRECTION ( 'NONE',  ( 0.000000000000000000, 0.000000000000000000, 1.000000000000000000 ) ) ;
#801 = LINE ( 'NONE', #834, #8 ) ;
#802 = VERTEX_POINT ( 'NONE', #59 ) ;
#803 = EDGE_LOOP ( 'NONE', ( #319, #84, #170, #767 ) ) ;
#804 = VERTEX_POINT ( 'NONE', #343 ) ;
#805 = CARTESIAN_POINT ( 'NONE',  ( 26.00000000000000355, -3.000000000000000000, -20.50000000000000355 ) ) ;
#806 = CARTESIAN_POINT ( 'NONE',  ( 42.00000000000000000, 21.00000000000004263, -3.000000000000012879 ) ) ;
#807 = AXIS2_PLACEMENT_3D ( 'NONE', #381, #651, #459 ) ;
#808 = CARTESIAN_POINT ( 'NONE',  ( 42.00000000000000000, -3.000000000000000000, -71.00000000000000000 ) ) ;
#809 = DIRECTION ( 'NONE',  ( -3.469446951953613696E-16, -1.000000000000000000, 0.000000000000000000 ) ) ;
#810 = DIRECTION ( 'NONE',  ( 0.000000000000000000, 0.000000000000000000, -1.000000000000000000 ) ) ;
#811 = VECTOR ( 'NONE', #810, 1000.000000000000000 ) ;
#812 = EDGE_CURVE ( 'NONE', #454, #1080, #243, .T. ) ;
#813 = VECTOR ( 'NONE', #253, 1000.000000000000000 ) ;
#814 = DIRECTION ( 'NONE',  ( 0.000000000000000000, 1.000000000000000000, 0.000000000000000000 ) ) ;
#815 = AXIS2_PLACEMENT_3D ( 'NONE', #633, #1086, #442 ) ;
#816 = ORIENTED_EDGE ( 'NONE', *, *, #1087, .T. ) ;
#817 = VERTEX_POINT ( 'NONE', #1169 ) ;
#818 = ORIENTED_EDGE ( 'NONE', *, *, #892, .F. ) ;
#819 = EDGE_LOOP ( 'NONE', ( #275, #406, #711, #1005 ) ) ;
#820 = VERTEX_POINT ( 'NONE', #328 ) ;
#821 = CARTESIAN_POINT ( 'NONE',  ( 16.00000000000000000, -3.000000000000000000, -22.75000000000000000 ) ) ;
#822 = ADVANCED_FACE ( 'NONE', ( #557 ), #1063, .F. ) ;
#823 = DIRECTION ( 'NONE',  ( 0.000000000000000000, 1.000000000000000000, 0.000000000000000000 ) ) ;
#824 =( NAMED_UNIT ( * ) SI_UNIT ( $, .STERADIAN. ) SOLID_ANGLE_UNIT ( ) );
#825 = CARTESIAN_POINT ( 'NONE',  ( 42.00000000000000000, 1.999999999999993117, -5.000000000000000000 ) ) ;
#826 = EDGE_CURVE ( 'NONE', #333, #587, #1163, .T. ) ;
#827 = ADVANCED_FACE ( 'NONE', ( #374 ), #597, .T. ) ;
#828 = LINE ( 'NONE', #686, #303 ) ;
#829 = LINE ( 'NONE', #1190, #540 ) ;
#830 = AXIS2_PLACEMENT_3D ( 'NONE', #943, #928, #577 ) ;
#831 = EDGE_LOOP ( 'NONE', ( #875, #560, #962, #863 ) ) ;
#832 = VERTEX_POINT ( 'NONE', #806 ) ;
#833 = ORIENTED_EDGE ( 'NONE', *, *, #505, .T. ) ;
#834 = CARTESIAN_POINT ( 'NONE',  ( 0.000000000000000000, -3.000000000000000000, -71.00000000000000000 ) ) ;
#835 = EDGE_LOOP ( 'NONE', ( #389, #864, #1182, #312 ) ) ;
#836 = CARTESIAN_POINT ( 'NONE',  ( 42.00000000000000000, 25.00000000000004263, -3.000000000000012879 ) ) ;
#837 = DIRECTION ( 'NONE',  ( -1.000000000000000000, 0.000000000000000000, 0.000000000000000000 ) ) ;
#838 = EDGE_CURVE ( 'NONE', #820, #802, #122, .T. ) ;
#839 = CARTESIAN_POINT ( 'NONE',  ( 26.00000000000000355, 0.000000000000000000, -20.50000000000000355 ) ) ;
#840 = AXIS2_PLACEMENT_3D ( 'NONE', #427, #882, #788 ) ;
#841 = LINE ( 'NONE', #1162, #489 ) ;
#842 = LINE ( 'NONE', #103, #346 ) ;
#843 = PLANE ( 'NONE',  #299 ) ;
#844 = VECTOR ( 'NONE', #702, 1000.000000000000000 ) ;
#845 = DIRECTION ( 'NONE',  ( 0.000000000000000000, 0.000000000000000000, -1.000000000000000000 ) ) ;
#846 = EDGE_LOOP ( 'NONE', ( #25, #1165, #57, #337 ) ) ;
#847 = EDGE_LOOP ( 'NONE', ( #1033, #128, #891, #187 ) ) ;
#848 = ADVANCED_FACE ( 'NONE', ( #656 ), #353, .F. ) ;
#849 = AXIS2_PLACEMENT_3D ( 'NONE', #769, #412, #1043 ) ;
#850 = VERTEX_POINT ( 'NONE', #1189 ) ;
#851 = VERTEX_POINT ( 'NONE', #266 ) ;
#852 = DIRECTION ( 'NONE',  ( 3.469446951953613696E-16, 1.000000000000000000, -0.000000000000000000 ) ) ;
#853 = ORIENTED_EDGE ( 'NONE', *, *, #879, .T. ) ;
#854 = PLANE ( 'NONE',  #753 ) ;
#855 = EDGE_CURVE ( 'NONE', #616, #11, #1015, .T. ) ;
#856 = CARTESIAN_POINT ( 'NONE',  ( 36.00000000000001421, 20.75000000000004263, -1.301042606982605321E-14 ) ) ;
#857 = CARTESIAN_POINT ( 'NONE',  ( 12.50000000000000000, -3.000000000000000000, -58.50000000000000000 ) ) ;
#858 = COLOUR_RGB ( '',0.7529411764705882248, 0.7529411764705882248, 0.7529411764705882248 ) ;
#859 = DIRECTION ( 'NONE',  ( 0.000000000000000000, 1.000000000000000000, 0.000000000000000000 ) ) ;
#860 = CIRCLE ( 'NONE', #528, 4.000000000000000000 ) ;
#861 = LINE ( 'NONE', #368, #989 ) ;
#862 = CIRCLE ( 'NONE', #147, 8.500000000000000000 ) ;
#863 = ORIENTED_EDGE ( 'NONE', *, *, #288, .T. ) ;
#864 = ORIENTED_EDGE ( 'NONE', *, *, #428, .F. ) ;
#865 = DIRECTION ( 'NONE',  ( 0.000000000000000000, -1.000000000000000000, 0.000000000000000000 ) ) ;
#866 = ORIENTED_EDGE ( 'NONE', *, *, #1164, .F. ) ;
#867 = AXIS2_PLACEMENT_3D ( 'NONE', #703, #61, #884 ) ;
#868 = DIRECTION ( 'NONE',  ( 0.000000000000000000, 0.000000000000000000, 1.000000000000000000 ) ) ;
#869 = ADVANCED_FACE ( 'NONE', ( #774 ), #161, .F. ) ;
#870 = LINE ( 'NONE', #260, #197 ) ;
#871 = CARTESIAN_POINT ( 'NONE',  ( 0.000000000000000000, 0.000000000000000000, 0.000000000000000000 ) ) ;
#872 = VECTOR ( 'NONE', #795, 1000.000000000000000 ) ;
#873 = DIRECTION ( 'NONE',  ( -1.000000000000000000, 0.000000000000000000, 0.000000000000000000 ) ) ;
#874 = ORIENTED_EDGE ( 'NONE', *, *, #984, .F. ) ;
#875 = ORIENTED_EDGE ( 'NONE', *, *, #679, .T. ) ;
#876 = ORIENTED_EDGE ( 'NONE', *, *, #371, .T. ) ;
#877 = ORIENTED_EDGE ( 'NONE', *, *, #634, .T. ) ;
#878 = VERTEX_POINT ( 'NONE', #905 ) ;
#879 = EDGE_CURVE ( 'NONE', #820, #309, #901, .T. ) ;
#880 = CARTESIAN_POINT ( 'NONE',  ( 38.00000000000000711, 21.00000000000004263, -1.301042606982605321E-14 ) ) ;
#881 = DIRECTION ( 'NONE',  ( 3.469446951953613696E-16, 0.000000000000000000, 1.000000000000000000 ) ) ;
#882 = DIRECTION ( 'NONE',  ( 0.000000000000000000, 1.000000000000000000, 0.000000000000000000 ) ) ;
#883 = DIRECTION ( 'NONE',  ( -1.000000000000000000, -0.000000000000000000, -0.000000000000000000 ) ) ;
#884 = DIRECTION ( 'NONE',  ( 0.000000000000000000, 0.000000000000000000, 1.000000000000000000 ) ) ;
#885 = UNCERTAINTY_MEASURE_WITH_UNIT (LENGTH_MEASURE( 1.000000000000000082E-05 ), #657, 'distance_accuracy_value', 'NONE');
#886 = VECTOR ( 'NONE', #608, 1000.000000000000000 ) ;
#887 = VECTOR ( 'NONE', #725, 1000.000000000000000 ) ;
#888 = CARTESIAN_POINT ( 'NONE',  ( 0.000000000000000000, 3.035766082959412415E-14, -3.000000000000012879 ) ) ;
#889 = ORIENTED_EDGE ( 'NONE', *, *, #1188, .F. ) ;
#890 = SURFACE_STYLE_USAGE ( .BOTH. , #547 ) ;
#891 = ORIENTED_EDGE ( 'NONE', *, *, #916, .F. ) ;
#892 = EDGE_CURVE ( 'NONE', #1098, #674, #258, .T. ) ;
#893 = ORIENTED_EDGE ( 'NONE', *, *, #265, .F. ) ;
#894 = CARTESIAN_POINT ( 'NONE',  ( 1.387778780781445676E-14, 1.999999999999993117, -5.000000000000000000 ) ) ;
#895 = AXIS2_PLACEMENT_3D ( 'NONE', #521, #1158, #706 ) ;
#896 = DIRECTION ( 'NONE',  ( -0.000000000000000000, 1.000000000000000000, -0.000000000000000000 ) ) ;
#897 = DIRECTION ( 'NONE',  ( -6.938893903907232322E-16, 0.000000000000000000, -1.000000000000000000 ) ) ;
#898 = DIRECTION ( 'NONE',  ( -0.000000000000000000, -0.000000000000000000, -1.000000000000000000 ) ) ;
#899 = VECTOR ( 'NONE', #999, 1000.000000000000000 ) ;
#900 = EDGE_CURVE ( 'NONE', #157, #778, #104, .T. ) ;
#901 = LINE ( 'NONE', #1094, #287 ) ;
#902 = AXIS2_PLACEMENT_3D ( 'NONE', #797, #614, #341 ) ;
#903 = FACE_OUTER_BOUND ( 'NONE', #981, .T. ) ;
#904 = LINE ( 'NONE', #135, #958 ) ;
#905 = CARTESIAN_POINT ( 'NONE',  ( 16.00000000000000000, 16.25000000000004619, -1.301042606982605321E-14 ) ) ;
#906 = ORIENTED_EDGE ( 'NONE', *, *, #690, .F. ) ;
#907 = EDGE_LOOP ( 'NONE', ( #188, #1124, #611, #588, #739 ) ) ;
#908 = ORIENTED_EDGE ( 'NONE', *, *, #781, .F. ) ;
#909 = ORIENTED_EDGE ( 'NONE', *, *, #535, .T. ) ;
#910 = CARTESIAN_POINT ( 'NONE',  ( 1.387778780781445676E-14, 1.999999999999991340, 0.000000000000000000 ) ) ;
#911 = CARTESIAN_POINT ( 'NONE',  ( 0.000000000000000000, 3.035766082959412415E-14, -1.301042606982605321E-14 ) ) ;
#912 = EDGE_CURVE ( 'NONE', #85, #173, #19, .T. ) ;
#913 = DIRECTION ( 'NONE',  ( -0.000000000000000000, -0.000000000000000000, -1.000000000000000000 ) ) ;
#914 = CARTESIAN_POINT ( 'NONE',  ( 36.00000000000001421, 20.75000000000004263, -3.000000000000012879 ) ) ;
#915 = LINE ( 'NONE', #911, #429 ) ;
#916 = EDGE_CURVE ( 'NONE', #1080, #393, #47, .T. ) ;
#917 = FACE_BOUND ( 'NONE', #740, .T. ) ;
#918 = CARTESIAN_POINT ( 'NONE',  ( 4.000000000000000000, -3.000000000000000000, -71.00000000000000000 ) ) ;
#919 = APPLICATION_PROTOCOL_DEFINITION ( 'draft international standard', 'automotive_design', 1998, #1196 ) ;
#920 = ORIENTED_EDGE ( 'NONE', *, *, #192, .T. ) ;
#921 = VERTEX_POINT ( 'NONE', #72 ) ;
#922 = ORIENTED_EDGE ( 'NONE', *, *, #980, .F. ) ;
#923 = ADVANCED_FACE ( 'NONE', ( #956 ), #6, .F. ) ;
#924 = ADVANCED_FACE ( 'NONE', ( #748 ), #720, .T. ) ;
#925 = DIRECTION ( 'NONE',  ( -0.000000000000000000, -1.000000000000000000, -0.000000000000000000 ) ) ;
#926 = DIRECTION ( 'NONE',  ( 0.000000000000000000, 1.000000000000000000, 0.000000000000000000 ) ) ;
#927 = DIRECTION ( 'NONE',  ( 0.000000000000000000, 0.000000000000000000, -1.000000000000000000 ) ) ;
#928 = DIRECTION ( 'NONE',  ( 0.000000000000000000, 0.000000000000000000, -1.000000000000000000 ) ) ;
#929 = FACE_OUTER_BOUND ( 'NONE', #847, .T. ) ;
#930 = VECTOR ( 'NONE', #913, 1000.000000000000000 ) ;
#931 = AXIS2_PLACEMENT_3D ( 'NONE', #7, #746, #1121 ) ;
#932 = FACE_OUTER_BOUND ( 'NONE', #10, .T. ) ;
#933 = ORIENTED_EDGE ( 'NONE', *, *, #738, .F. ) ;
#934 = ORIENTED_EDGE ( 'NONE', *, *, #951, .T. ) ;
#935 = CARTESIAN_POINT ( 'NONE',  ( 36.00000000000001421, 20.75000000000004263, -1.301042606982605321E-14 ) ) ;
#936 = VERTEX_POINT ( 'NONE', #105 ) ;
#937 = CARTESIAN_POINT ( 'NONE',  ( 4.000000000000000000, 21.00000000000004263, -1.301042606982605321E-14 ) ) ;
#938 = CARTESIAN_POINT ( 'NONE',  ( 36.00000000000001421, 20.75000000000004263, -1.301042606982605321E-14 ) ) ;
#939 = EDGE_CURVE ( 'NONE', #1112, #751, #315, .T. ) ;
#940 = CARTESIAN_POINT ( 'NONE',  ( 0.000000000000000000, 3.035766082959412415E-14, -1.301042606982605321E-14 ) ) ;
#941 = CIRCLE ( 'NONE', #1024, 8.500000000000007105 ) ;
#942 = LINE ( 'NONE', #1156, #1061 ) ;
#943 = CARTESIAN_POINT ( 'NONE',  ( 38.00000000000000711, 21.00000000000004263, -3.000000000000012879 ) ) ;
#944 = ORIENTED_EDGE ( 'NONE', *, *, #158, .T. ) ;
#945 = AXIS2_PLACEMENT_3D ( 'NONE', #592, #28, #691 ) ;
#946 = EDGE_LOOP ( 'NONE', ( #156, #468, #963, #71 ) ) ;
#947 = ORIENTED_EDGE ( 'NONE', *, *, #1042, .F. ) ;
#948 = DIRECTION ( 'NONE',  ( 0.000000000000000000, -0.000000000000000000, -1.000000000000000000 ) ) ;
#949 = ORIENTED_EDGE ( 'NONE', *, *, #82, .F. ) ;
#950 = CARTESIAN_POINT ( 'NONE',  ( 5.999999999999998224, 18.50000000000004619, -3.000000000000012879 ) ) ;
#951 = EDGE_CURVE ( 'NONE', #393, #1009, #415, .T. ) ;
#952 = AXIS2_PLACEMENT_3D ( 'NONE', #839, #926, #585 ) ;
#953 = DIRECTION ( 'NONE',  ( -1.000000000000000000, 0.000000000000000000, 0.000000000000000000 ) ) ;
#954 = CARTESIAN_POINT ( 'NONE',  ( 36.00000000000001421, 20.75000000000004263, -3.000000000000012879 ) ) ;
#955 = CARTESIAN_POINT ( 'NONE',  ( 1.387778780781445676E-14, 1.999999999999993117, -5.000000000000000000 ) ) ;
#956 = FACE_OUTER_BOUND ( 'NONE', #1152, .T. ) ;
#957 = FACE_OUTER_BOUND ( 'NONE', #835, .T. ) ;
#958 = VECTOR ( 'NONE', #235, 1000.000000000000000 ) ;
#959 = CARTESIAN_POINT ( 'NONE',  ( 0.000000000000000000, 25.00000000000004263, -3.000000000000012879 ) ) ;
#960 = EDGE_CURVE ( 'NONE', #173, #820, #164, .T. ) ;
#961 = ORIENTED_EDGE ( 'NONE', *, *, #912, .F. ) ;
#962 = ORIENTED_EDGE ( 'NONE', *, *, #812, .F. ) ;
#963 = ORIENTED_EDGE ( 'NONE', *, *, #436, .F. ) ;
#964 = AXIS2_PLACEMENT_3D ( 'NONE', #1171, #717, #255 ) ;
#965 = CARTESIAN_POINT ( 'NONE',  ( 42.00000000000000000, -3.000000000000000000, 0.000000000000000000 ) ) ;
#966 = DIRECTION ( 'NONE',  ( 0.000000000000000000, 0.000000000000000000, -1.000000000000000000 ) ) ;
#967 = PLANE ( 'NONE',  #1089 ) ;
#968 = DIRECTION ( 'NONE',  ( 0.000000000000000000, 0.000000000000000000, -1.000000000000000000 ) ) ;
#969 = EDGE_CURVE ( 'NONE', #230, #1154, #448, .T. ) ;
#970 = DIRECTION ( 'NONE',  ( 0.000000000000000000, 0.000000000000000000, -1.000000000000000000 ) ) ;
#971 = DIRECTION ( 'NONE',  ( -1.000000000000000000, 0.000000000000000000, 0.000000000000000000 ) ) ;
#972 = VECTOR ( 'NONE', #552, 1000.000000000000000 ) ;
#973 = CARTESIAN_POINT ( 'NONE',  ( 26.00000000000001066, 18.50000000000004619, -1.301042606982605321E-14 ) ) ;
#974 = VECTOR ( 'NONE', #218, 1000.000000000000000 ) ;
#975 = CYLINDRICAL_SURFACE ( 'NONE', #692, 2.249999999999998668 ) ;
#976 = ORIENTED_EDGE ( 'NONE', *, *, #826, .F. ) ;
#977 = ORIENTED_EDGE ( 'NONE', *, *, #411, .F. ) ;
#978 = VERTEX_POINT ( 'NONE', #669 ) ;
#979 = ORIENTED_EDGE ( 'NONE', *, *, #15, .F. ) ;
#980 = EDGE_CURVE ( 'NONE', #1038, #1009, #556, .T. ) ;
#981 = EDGE_LOOP ( 'NONE', ( #320, #171, #367, #469, #765, #816 ) ) ;
#982 = CARTESIAN_POINT ( 'NONE',  ( 29.50000000000000711, -3.000000000000000000, -53.50000000000000000 ) ) ;
#983 = DIRECTION ( 'NONE',  ( -1.000000000000000000, 0.000000000000000000, -0.000000000000000000 ) ) ;
#984 = EDGE_CURVE ( 'NONE', #587, #742, #76, .T. ) ;
#985 = CARTESIAN_POINT ( 'NONE',  ( 4.000000000000000000, 21.00000000000004263, -3.000000000000012879 ) ) ;
#986 = DIRECTION ( 'NONE',  ( 0.000000000000000000, 0.000000000000000000, -1.000000000000000000 ) ) ;
#987 = DIRECTION ( 'NONE',  ( -1.000000000000000000, -0.000000000000000000, -0.000000000000000000 ) ) ;
#988 = FACE_OUTER_BOUND ( 'NONE', #83, .T. ) ;
#989 = VECTOR ( 'NONE', #564, 1000.000000000000000 ) ;
#990 = DIRECTION ( 'NONE',  ( -1.000000000000000000, -0.000000000000000000, 3.469446951953613696E-16 ) ) ;
#991 = CIRCLE ( 'NONE', #661, 2.249999999999998668 ) ;
#992 = CARTESIAN_POINT ( 'NONE',  ( 16.00000000000000000, -3.000000000000000000, -22.75000000000000000 ) ) ;
#993 = ORIENTED_EDGE ( 'NONE', *, *, #645, .T. ) ;
#994 = ORIENTED_EDGE ( 'NONE', *, *, #443, .F. ) ;
#995 = ORIENTED_EDGE ( 'NONE', *, *, #443, .T. ) ;
#996 = CARTESIAN_POINT ( 'NONE',  ( 16.00000000000000000, -3.000000000000000000, -18.25000000000000355 ) ) ;
#997 = EDGE_CURVE ( 'NONE', #1180, #157, #1027, .T. ) ;
#998 =( LENGTH_UNIT ( ) NAMED_UNIT ( * ) SI_UNIT ( .MILLI., .METRE. ) );
#999 = DIRECTION ( 'NONE',  ( -6.938893903907232322E-16, 0.000000000000000000, -1.000000000000000000 ) ) ;
#1000 = EDGE_CURVE ( 'NONE', #766, #1110, #35, .T. ) ;
#1001 = DIRECTION ( 'NONE',  ( -1.000000000000000000, 0.000000000000000000, 0.000000000000000000 ) ) ;
#1002 = CYLINDRICAL_SURFACE ( 'NONE', #250, 2.249999999999998668 ) ;
#1003 = FACE_OUTER_BOUND ( 'NONE', #1034, .T. ) ;
#1004 = LINE ( 'NONE', #77, #930 ) ;
#1005 = ORIENTED_EDGE ( 'NONE', *, *, #82, .T. ) ;
#1006 = ORIENTED_EDGE ( 'NONE', *, *, #321, .T. ) ;
#1007 = ORIENTED_EDGE ( 'NONE', *, *, #114, .F. ) ;
#1008 = VERTEX_POINT ( 'NONE', #201 ) ;
#1009 = VERTEX_POINT ( 'NONE', #43 ) ;
#1010 = PRODUCT_DEFINITION_FORMATION_WITH_SPECIFIED_SOURCE ( 'ANY', '', #1037, .NOT_KNOWN. ) ;
#1011 = CARTESIAN_POINT ( 'NONE',  ( 0.000000000000000000, 0.000000000000000000, -75.00000000000000000 ) ) ;
#1012 = DIRECTION ( 'NONE',  ( -1.000000000000000000, 0.000000000000000000, -0.000000000000000000 ) ) ;
#1013 = DIRECTION ( 'NONE',  ( 0.000000000000000000, 0.000000000000000000, 1.000000000000000000 ) ) ;
#1014 = EDGE_CURVE ( 'NONE', #1083, #659, #506, .T. ) ;
#1015 = CIRCLE ( 'NONE', #1074, 2.249999999999995115 ) ;
#1016 = VECTOR ( 'NONE', #716, 1000.000000000000000 ) ;
#1017 = DIRECTION ( 'NONE',  ( -1.000000000000000000, 0.000000000000000000, 0.000000000000000000 ) ) ;
#1018 = CIRCLE ( 'NONE', #1055, 2.249999999999998668 ) ;
#1019 = ORIENTED_EDGE ( 'NONE', *, *, #265, .T. ) ;
#1020 = ORIENTED_EDGE ( 'NONE', *, *, #1014, .T. ) ;
#1021 = CARTESIAN_POINT ( 'NONE',  ( 42.00000000000000000, 21.00000000000004263, -1.301042606982605321E-14 ) ) ;
#1022 = ADVANCED_FACE ( 'NONE', ( #538 ), #1176, .F. ) ;
#1023 = EDGE_CURVE ( 'NONE', #336, #1110, #786, .T. ) ;
#1024 = AXIS2_PLACEMENT_3D ( 'NONE', #63, #78, #1178 ) ;
#1025 = DIRECTION ( 'NONE',  ( 3.469446951953613696E-16, 1.000000000000000000, -0.000000000000000000 ) ) ;
#1026 = CARTESIAN_POINT ( 'NONE',  ( 0.000000000000000000, -3.000000000000000000, -71.00000000000000000 ) ) ;
#1027 = LINE ( 'NONE', #1029, #226 ) ;
#1028 = ADVANCED_FACE ( 'NONE', ( #929 ), #967, .F. ) ;
#1029 = CARTESIAN_POINT ( 'NONE',  ( 16.00000000000000000, 20.75000000000004263, -3.000000000000012879 ) ) ;
#1030 = CIRCLE ( 'NONE', #902, 5.000000000000000000 ) ;
#1031 = AXIS2_PLACEMENT_3D ( 'NONE', #677, #284, #510 ) ;
#1032 = FACE_OUTER_BOUND ( 'NONE', #803, .T. ) ;
#1033 = ORIENTED_EDGE ( 'NONE', *, *, #980, .T. ) ;
#1034 = EDGE_LOOP ( 'NONE', ( #685, #568, #877, #530, #1006, #142 ) ) ;
#1035 = DIRECTION ( 'NONE',  ( -1.000000000000000000, 3.469446951953613696E-16, 0.000000000000000000 ) ) ;
#1036 = ADVANCED_FACE ( 'NONE', ( #522 ), #1002, .F. ) ;
#1037 = PRODUCT ( '21631_03_184_vacuum adapter plate 2K_3', '21631_03_184_vacuum adapter plate 2K_3', '', ( #89 ) ) ;
#1038 = VERTEX_POINT ( 'NONE', #523 ) ;
#1039 = EDGE_LOOP ( 'NONE', ( #629, #1199, #318, #111 ) ) ;
#1040 = DIRECTION ( 'NONE',  ( 0.000000000000000000, 0.000000000000000000, -1.000000000000000000 ) ) ;
#1041 = DIRECTION ( 'NONE',  ( -0.000000000000000000, -0.000000000000000000, 1.000000000000000000 ) ) ;
#1042 = EDGE_CURVE ( 'NONE', #817, #1065, #271, .T. ) ;
#1043 = DIRECTION ( 'NONE',  ( -1.000000000000000000, 0.000000000000000000, 0.000000000000000000 ) ) ;
#1044 = UNCERTAINTY_MEASURE_WITH_UNIT (LENGTH_MEASURE( 1.000000000000000082E-05 ), #998, 'distance_accuracy_value', 'NONE');
#1045 = CARTESIAN_POINT ( 'NONE',  ( 16.00000000000000000, 18.50000000000004263, -1.301042606982605321E-14 ) ) ;
#1046 = CIRCLE ( 'NONE', #785, 8.500000000000000000 ) ;
#1047 = CARTESIAN_POINT ( 'NONE',  ( 42.00000000000000000, 2.000000000000023537, -1.301042606982605321E-14 ) ) ;
#1048 = EDGE_CURVE ( 'NONE', #978, #713, #64, .T. ) ;
#1049 = LINE ( 'NONE', #637, #1193 ) ;
#1050 = ORIENTED_EDGE ( 'NONE', *, *, #48, .T. ) ;
#1051 = EDGE_LOOP ( 'NONE', ( #650, #143, #976, #944 ) ) ;
#1052 = ORIENTED_EDGE ( 'NONE', *, *, #134, .F. ) ;
#1053 = CARTESIAN_POINT ( 'NONE',  ( 0.000000000000000000, -3.000000000000000000, 0.000000000000000000 ) ) ;
#1054 = ADVANCED_FACE ( 'NONE', ( #1146 ), #707, .F. ) ;
#1055 = AXIS2_PLACEMENT_3D ( 'NONE', #234, #966, #622 ) ;
#1056 = DIRECTION ( 'NONE',  ( 0.000000000000000000, 0.000000000000000000, 1.000000000000000000 ) ) ;
#1057 = CARTESIAN_POINT ( 'NONE',  ( 42.00000000000000000, -6.938893903907228378E-15, -5.000000000000000000 ) ) ;
#1058 = CARTESIAN_POINT ( 'NONE',  ( 23.75000000000001066, 18.50000000000004619, -1.301042606982605321E-14 ) ) ;
#1059 = LINE ( 'NONE', #638, #811 ) ;
#1060 = DIRECTION ( 'NONE',  ( -1.000000000000000000, 0.000000000000000000, 0.000000000000000000 ) ) ;
#1061 = VECTOR ( 'NONE', #237, 1000.000000000000000 ) ;
#1062 = CIRCLE ( 'NONE', #421, 2.000000000000000000 ) ;
#1063 = PLANE ( 'NONE',  #502 ) ;
#1064 = EDGE_CURVE ( 'NONE', #766, #85, #694, .T. ) ;
#1065 = VERTEX_POINT ( 'NONE', #791 ) ;
#1066 = EDGE_LOOP ( 'NONE', ( #531, #1082, #979, #246 ) ) ;
#1067 = CARTESIAN_POINT ( 'NONE',  ( 0.000000000000000000, 2.000000000000023537, -1.301042606982605321E-14 ) ) ;
#1068 = DIRECTION ( 'NONE',  ( 1.000000000000000000, 0.000000000000000000, -3.469446951953613696E-16 ) ) ;
#1069 = EDGE_LOOP ( 'NONE', ( #483, #1200, #112, #390 ) ) ;
#1070 = ORIENTED_EDGE ( 'NONE', *, *, #542, .F. ) ;
#1071 = CARTESIAN_POINT ( 'NONE',  ( 16.00000000000000000, 20.75000000000004263, -1.301042606982605321E-14 ) ) ;
#1072 = DIRECTION ( 'NONE',  ( -0.000000000000000000, 1.000000000000000000, -0.000000000000000000 ) ) ;
#1073 = DIRECTION ( 'NONE',  ( 0.000000000000000000, 0.000000000000000000, -1.000000000000000000 ) ) ;
#1074 = AXIS2_PLACEMENT_3D ( 'NONE', #718, #927, #632 ) ;
#1075 = DIRECTION ( 'NONE',  ( 0.000000000000000000, 0.000000000000000000, 1.000000000000000000 ) ) ;
#1076 = LINE ( 'NONE', #155, #813 ) ;
#1077 =( NAMED_UNIT ( * ) PLANE_ANGLE_UNIT ( ) SI_UNIT ( $, .RADIAN. ) );
#1078 = PLANE ( 'NONE',  #653 ) ;
#1079 = LINE ( 'NONE', #488, #598 ) ;
#1080 = VERTEX_POINT ( 'NONE', #252 ) ;
#1081 = DIRECTION ( 'NONE',  ( -0.000000000000000000, -0.000000000000000000, -1.000000000000000000 ) ) ;
#1082 = ORIENTED_EDGE ( 'NONE', *, *, #324, .F. ) ;
#1083 = VERTEX_POINT ( 'NONE', #618 ) ;
#1084 = AXIS2_PLACEMENT_3D ( 'NONE', #760, #777, #1130 ) ;
#1085 = CARTESIAN_POINT ( 'NONE',  ( 5.999999999999998224, 18.50000000000004619, -1.301042606982605321E-14 ) ) ;
#1086 = DIRECTION ( 'NONE',  ( 0.000000000000000000, -1.000000000000000000, 0.000000000000000000 ) ) ;
#1087 = EDGE_CURVE ( 'NONE', #230, #764, #841, .T. ) ;
#1088 = DIRECTION ( 'NONE',  ( 0.000000000000000000, 0.000000000000000000, -1.000000000000000000 ) ) ;
#1089 = AXIS2_PLACEMENT_3D ( 'NONE', #426, #881, #1068 ) ;
#1090 = DIRECTION ( 'NONE',  ( 0.000000000000000000, 0.000000000000000000, 1.000000000000000000 ) ) ;
#1091 = LINE ( 'NONE', #369, #899 ) ;
#1092 = VECTOR ( 'NONE', #845, 1000.000000000000000 ) ;
#1093 = LINE ( 'NONE', #384, #272 ) ;
#1094 = CARTESIAN_POINT ( 'NONE',  ( 26.00000000000001066, 16.25000000000004974, -1.301042606982605321E-14 ) ) ;
#1095 = FACE_BOUND ( 'NONE', #438, .T. ) ;
#1096 = CARTESIAN_POINT ( 'NONE',  ( 0.000000000000000000, 21.00000000000004263, -3.000000000000012879 ) ) ;
#1097 = ORIENTED_EDGE ( 'NONE', *, *, #542, .T. ) ;
#1098 = VERTEX_POINT ( 'NONE', #169 ) ;
#1099 = ORIENTED_EDGE ( 'NONE', *, *, #1102, .F. ) ;
#1100 = ORIENTED_EDGE ( 'NONE', *, *, #202, .T. ) ;
#1101 = CARTESIAN_POINT ( 'NONE',  ( 26.00000000000001066, 18.50000000000004619, -1.301042606982605321E-14 ) ) ;
#1102 = EDGE_CURVE ( 'NONE', #978, #1180, #870, .T. ) ;
#1103 = DIRECTION ( 'NONE',  ( -1.000000000000000000, -0.000000000000000000, -0.000000000000000000 ) ) ;
#1104 = CARTESIAN_POINT ( 'NONE',  ( 38.00000000000000711, 21.00000000000004263, -1.301042606982605321E-14 ) ) ;
#1105 = EDGE_CURVE ( 'NONE', #649, #322, #680, .T. ) ;
#1106 = DIRECTION ( 'NONE',  ( 0.000000000000000000, 0.000000000000000000, -1.000000000000000000 ) ) ;
#1107 = LINE ( 'NONE', #888, #872 ) ;
#1108 = LINE ( 'NONE', #992, #434 ) ;
#1109 = FACE_OUTER_BOUND ( 'NONE', #190, .T. ) ;
#1110 = VERTEX_POINT ( 'NONE', #50 ) ;
#1111 = EDGE_LOOP ( 'NONE', ( #874, #245, #496, #220 ) ) ;
#1112 = VERTEX_POINT ( 'NONE', #548 ) ;
#1113 = EDGE_CURVE ( 'NONE', #1110, #616, #360, .T. ) ;
#1114 = ADVANCED_FACE ( 'NONE', ( #640 ), #555, .T. ) ;
#1115 = AXIS2_PLACEMENT_3D ( 'NONE', #31, #306, #120 ) ;
#1116 = VECTOR ( 'NONE', #340, 1000.000000000000000 ) ;
#1117 = LINE ( 'NONE', #514, #524 ) ;
#1118 = ADVANCED_FACE ( 'NONE', ( #988 ), #708, .F. ) ;
#1119 = ORIENTED_EDGE ( 'NONE', *, *, #474, .T. ) ;
#1120 = DIRECTION ( 'NONE',  ( -0.000000000000000000, 1.000000000000000000, -0.000000000000000000 ) ) ;
#1121 = DIRECTION ( 'NONE',  ( -1.000000000000000000, 0.000000000000000000, 0.000000000000000000 ) ) ;
#1122 = ORIENTED_EDGE ( 'NONE', *, *, #1042, .T. ) ;
#1123 = EDGE_LOOP ( 'NONE', ( #790, #1183, #56, #833, #1070, #249 ) ) ;
#1124 = ORIENTED_EDGE ( 'NONE', *, *, #997, .F. ) ;
#1125 = ORIENTED_EDGE ( 'NONE', *, *, #94, .T. ) ;
#1126 = DIRECTION ( 'NONE',  ( -1.000000000000000000, 0.000000000000000000, 0.000000000000000000 ) ) ;
#1127 = CARTESIAN_POINT ( 'NONE',  ( 4.000000000000000000, 21.00000000000004263, -1.301042606982605321E-14 ) ) ;
#1128 = EDGE_CURVE ( 'NONE', #850, #526, #579, .T. ) ;
#1129 = CARTESIAN_POINT ( 'NONE',  ( 36.00000000000001421, 16.25000000000004619, -1.301042606982605321E-14 ) ) ;
#1130 = DIRECTION ( 'NONE',  ( 0.000000000000000000, 0.000000000000000000, -1.000000000000000000 ) ) ;
#1131 = DIRECTION ( 'NONE',  ( -0.000000000000000000, -0.000000000000000000, -1.000000000000000000 ) ) ;
#1132 = CYLINDRICAL_SURFACE ( 'NONE', #945, 5.000000000000000000 ) ;
#1133 = PRODUCT_RELATED_PRODUCT_CATEGORY ( 'part', '', ( #1037 ) ) ;
#1134 = FACE_OUTER_BOUND ( 'NONE', #712, .T. ) ;
#1135 = CYLINDRICAL_SURFACE ( 'NONE', #484, 2.249999999999998668 ) ;
#1136 = CARTESIAN_POINT ( 'NONE',  ( 36.00000000000001421, 18.50000000000004263, -1.301042606982605321E-14 ) ) ;
#1137 = ORIENTED_EDGE ( 'NONE', *, *, #679, .F. ) ;
#1138 = ORIENTED_EDGE ( 'NONE', *, *, #1172, .F. ) ;
#1139 = ORIENTED_EDGE ( 'NONE', *, *, #1048, .T. ) ;
#1140 = EDGE_CURVE ( 'NONE', #526, #617, #941, .T. ) ;
#1141 = DIRECTION ( 'NONE',  ( 0.000000000000000000, -1.000000000000000000, 0.000000000000000000 ) ) ;
#1142 = AXIS2_PLACEMENT_3D ( 'NONE', #445, #799, #1186 ) ;
#1143 = DIRECTION ( 'NONE',  ( 0.000000000000000000, -1.000000000000000000, 0.000000000000000000 ) ) ;
#1144 = DIRECTION ( 'NONE',  ( 0.000000000000000000, 1.000000000000000000, 0.000000000000000000 ) ) ;
#1145 = ADVANCED_FACE ( 'NONE', ( #240 ), #551, .F. ) ;
#1146 = FACE_OUTER_BOUND ( 'NONE', #819, .T. ) ;
#1147 = CARTESIAN_POINT ( 'NONE',  ( 16.00000000000000000, 20.75000000000004263, -1.301042606982605321E-14 ) ) ;
#1148 = EDGE_CURVE ( 'NONE', #742, #335, #1059, .T. ) ;
#1149 = LINE ( 'NONE', #1021, #798 ) ;
#1150 = VECTOR ( 'NONE', #1144, 1000.000000000000000 ) ;
#1151 = STYLED_ITEM ( 'NONE', ( #4 ), #191 ) ;
#1152 = EDGE_LOOP ( 'NONE', ( #379, #752, #93, #40 ) ) ;
#1153 = EDGE_LOOP ( 'NONE', ( #1138, #80, #466, #167, #947 ) ) ;
#1154 = VERTEX_POINT ( 'NONE', #808 ) ;
#1155 = ORIENTED_EDGE ( 'NONE', *, *, #701, .F. ) ;
#1156 = CARTESIAN_POINT ( 'NONE',  ( 16.00000000000000000, 16.25000000000004619, -3.000000000000012879 ) ) ;
#1157 = AXIS2_PLACEMENT_3D ( 'NONE', #918, #283, #1013 ) ;
#1158 = DIRECTION ( 'NONE',  ( -3.469446951953613696E-16, -1.000000000000000000, 0.000000000000000000 ) ) ;
#1159 = CARTESIAN_POINT ( 'NONE',  ( 16.00000000000000000, 20.75000000000004263, -1.301042606982605321E-14 ) ) ;
#1160 = CARTESIAN_POINT ( 'NONE',  ( 3.999999999999998224, -3.000000000000000000, -75.00000000000000000 ) ) ;
#1161 = DIRECTION ( 'NONE',  ( -1.000000000000000000, 0.000000000000000000, 0.000000000000000000 ) ) ;
#1162 = CARTESIAN_POINT ( 'NONE',  ( 42.00000000000000000, -3.000000000000007105, -5.000000000000000000 ) ) ;
#1163 = LINE ( 'NONE', #730, #623 ) ;
#1164 = EDGE_CURVE ( 'NONE', #742, #276, #915, .T. ) ;
#1165 = ORIENTED_EDGE ( 'NONE', *, *, #288, .F. ) ;
#1166 = CARTESIAN_POINT ( 'NONE',  ( 63.46440466412236958, 1.999999999999993117, -5.000000000000000000 ) ) ;
#1167 = ORIENTED_EDGE ( 'NONE', *, *, #202, .F. ) ;
#1168 = EDGE_LOOP ( 'NONE', ( #1122, #933, #613, #130 ) ) ;
#1169 = CARTESIAN_POINT ( 'NONE',  ( 29.50000000000000711, 0.000000000000000000, -58.50000000000000000 ) ) ;
#1170 = DIRECTION ( 'NONE',  ( -0.000000000000000000, -0.000000000000000000, -1.000000000000000000 ) ) ;
#1171 = CARTESIAN_POINT ( 'NONE',  ( 42.00000000000000000, 1.999999999999993117, -5.000000000000000000 ) ) ;
#1172 = EDGE_CURVE ( 'NONE', #562, #817, #1091, .T. ) ;
#1173 = DIRECTION ( 'NONE',  ( 0.000000000000000000, 0.000000000000000000, -1.000000000000000000 ) ) ;
#1174 = FACE_BOUND ( 'NONE', #907, .T. ) ;
#1175 = DIRECTION ( 'NONE',  ( -1.000000000000000000, 0.000000000000000000, 0.000000000000000000 ) ) ;
#1176 = CYLINDRICAL_SURFACE ( 'NONE', #867, 2.249999999999998668 ) ;
#1177 =( NAMED_UNIT ( * ) SI_UNIT ( $, .STERADIAN. ) SOLID_ANGLE_UNIT ( ) );
#1178 = DIRECTION ( 'NONE',  ( 0.000000000000000000, 0.000000000000000000, -1.000000000000000000 ) ) ;
#1179 = LINE ( 'NONE', #376, #584 ) ;
#1180 = VERTEX_POINT ( 'NONE', #726 ) ;
#1181 = VERTEX_POINT ( 'NONE', #75 ) ;
#1182 = ORIENTED_EDGE ( 'NONE', *, *, #279, .F. ) ;
#1183 = ORIENTED_EDGE ( 'NONE', *, *, #794, .T. ) ;
#1184 = ORIENTED_EDGE ( 'NONE', *, *, #690, .T. ) ;
#1185 = CARTESIAN_POINT ( 'NONE',  ( 38.00000000000000711, -3.000000000000000000, -75.00000000000000000 ) ) ;
#1186 = DIRECTION ( 'NONE',  ( 0.000000000000000000, 0.000000000000000000, -1.000000000000000000 ) ) ;
#1187 = DIRECTION ( 'NONE',  ( 0.000000000000000000, -1.000000000000000000, 0.000000000000000000 ) ) ;
#1188 = EDGE_CURVE ( 'NONE', #649, #1083, #179, .T. ) ;
#1189 = CARTESIAN_POINT ( 'NONE',  ( 29.50000000000000711, -3.000000000000000000, -53.50000000000000000 ) ) ;
#1190 = CARTESIAN_POINT ( 'NONE',  ( 0.000000000000000000, 2.000000000000023537, -3.000000000000012879 ) ) ;
#1191 = VECTOR ( 'NONE', #358, 1000.000000000000000 ) ;
#1192 = CYLINDRICAL_SURFACE ( 'NONE', #784, 2.249999999999995115 ) ;
#1193 = VECTOR ( 'NONE', #539, 1000.000000000000000 ) ;
#1194 = DIRECTION ( 'NONE',  ( 0.000000000000000000, 0.000000000000000000, 1.000000000000000000 ) ) ;
#1195 = ADVANCED_FACE ( 'NONE', ( #90, #1174, #225 ), #1078, .T. ) ;
#1196 = APPLICATION_CONTEXT ( 'automotive_design' ) ;
#1197 = ORIENTED_EDGE ( 'NONE', *, *, #1140, .T. ) ;
#1198 = EDGE_LOOP ( 'NONE', ( #779, #219, #81, #977 ) ) ;
#1199 = ORIENTED_EDGE ( 'NONE', *, *, #88, .F. ) ;
#1200 = ORIENTED_EDGE ( 'NONE', *, *, #781, .T. ) ;
#1201 = EDGE_LOOP ( 'NONE', ( #741, #41, #420, #630, #13, #108 ) ) ;
#1202 = AXIS2_PLACEMENT_3D ( 'NONE', #264, #745, #281 ) ;
#1203 = SURFACE_STYLE_USAGE ( .BOTH. , #286 ) ;
ENDSEC;
END-ISO-10303-21;
