ISO-10303-21;
HEADER;
FILE_DESCRIPTION (( 'STEP AP214' ),
    '1' );
FILE_NAME ('21631_03_020_sheetmetal_Vacuum Adapter Plate 3K_1.STEP',
    '2021-11-04T14:57:31',
    ( '' ),
    ( '' ),
    'SwSTEP 2.0',
    'SolidWorks 2018',
    '' );
FILE_SCHEMA (( 'AUTOMOTIVE_DESIGN' ));
ENDSEC;

DATA;
#1 = EDGE_LOOP ( 'NONE', ( #48, #567, #716, #679 ) ) ;
#2 = CARTESIAN_POINT ( 'NONE',  ( -319.6414255217799791, 30.03204812499521381, -3.000000000000000888 ) ) ;
#3 = AXIS2_PLACEMENT_3D ( 'NONE', #507, #950, #881 ) ;
#4 = FACE_OUTER_BOUND ( 'NONE', #489, .T. ) ;
#5 = ORIENTED_EDGE ( 'NONE', *, *, #699, .T. ) ;
#6 = LINE ( 'NONE', #835, #302 ) ;
#7 = CARTESIAN_POINT ( 'NONE',  ( -399.9725140405450929, 54.03204812499521381, -2.000000000000000000 ) ) ;
#8 = CARTESIAN_POINT ( 'NONE',  ( -369.3195676025791272, 103.0320481249952707, -15.00000000000000888 ) ) ;
#9 = VERTEX_POINT ( 'NONE', #144 ) ;
#10 = VERTEX_POINT ( 'NONE', #814 ) ;
#11 = CARTESIAN_POINT ( 'NONE',  ( -382.4725140405450361, 30.03204812499521381, -3.000000000000000888 ) ) ;
#12 = EDGE_CURVE ( 'NONE', #429, #391, #64, .T. ) ;
#13 = VECTOR ( 'NONE', #115, 1000.000000000000000 ) ;
#14 = ORIENTED_EDGE ( 'NONE', *, *, #318, .T. ) ;
#15 = FACE_OUTER_BOUND ( 'NONE', #332, .T. ) ;
#16 = LINE ( 'NONE', #122, #869 ) ;
#17 = CARTESIAN_POINT ( 'NONE',  ( -403.9725140405450929, 12.80179865423754926, -9.500000000000007105 ) ) ;
#18 = ORIENTED_EDGE ( 'NONE', *, *, #50, .F. ) ;
#19 = DIRECTION ( 'NONE',  ( 1.000000000000000000, -5.551115123125777772E-16, -0.000000000000000000 ) ) ;
#20 =( LENGTH_UNIT ( ) NAMED_UNIT ( * ) SI_UNIT ( .MILLI., .METRE. ) );
#21 = VERTEX_POINT ( 'NONE', #238 ) ;
#22 = VERTEX_POINT ( 'NONE', #385 ) ;
#23 = VECTOR ( 'NONE', #352, 1000.000000000000000 ) ;
#24 = DIRECTION ( 'NONE',  ( 0.000000000000000000, 0.000000000000000000, 1.000000000000000000 ) ) ;
#25 = AXIS2_PLACEMENT_3D ( 'NONE', #829, #35, #160 ) ;
#26 = LINE ( 'NONE', #927, #836 ) ;
#27 = ORIENTED_EDGE ( 'NONE', *, *, #914, .T. ) ;
#28 = DIRECTION ( 'NONE',  ( 1.000000000000000000, 0.000000000000000000, 0.000000000000000000 ) ) ;
#29 = DIRECTION ( 'NONE',  ( -1.000000000000000000, 0.000000000000000000, 0.000000000000000000 ) ) ;
#30 = ORIENTED_EDGE ( 'NONE', *, *, #616, .T. ) ;
#31 = EDGE_CURVE ( 'NONE', #667, #85, #174, .T. ) ;
#32 = AXIS2_PLACEMENT_3D ( 'NONE', #83, #211, #951 ) ;
#33 = CARTESIAN_POINT ( 'NONE',  ( -387.4725140405450361, 62.03204812499521381, -103.8626526259748033 ) ) ;
#34 = ORIENTED_EDGE ( 'NONE', *, *, #388, .F. ) ;
#35 = DIRECTION ( 'NONE',  ( 0.000000000000000000, 1.000000000000000000, 0.000000000000000000 ) ) ;
#36 = LINE ( 'NONE', #323, #380 ) ;
#37 = ADVANCED_FACE ( 'NONE', ( #338 ), #325, .T. ) ;
#38 = VERTEX_POINT ( 'NONE', #534 ) ;
#39 = DIRECTION ( 'NONE',  ( 1.000000000000000000, -5.551115123125777772E-16, -0.000000000000000000 ) ) ;
#40 = ADVANCED_FACE ( 'NONE', ( #417 ), #346, .F. ) ;
#41 = ORIENTED_EDGE ( 'NONE', *, *, #129, .T. ) ;
#42 = CARTESIAN_POINT ( 'NONE',  ( -382.4725140405450361, 27.03204812499521381, -2.000000000000005329 ) ) ;
#43 = VERTEX_POINT ( 'NONE', #757 ) ;
#44 = CYLINDRICAL_SURFACE ( 'NONE', #736, 8.500000000000007105 ) ;
#45 = DIRECTION ( 'NONE',  ( 1.000000000000000000, 0.000000000000000000, 0.000000000000000000 ) ) ;
#46 = EDGE_CURVE ( 'NONE', #9, #431, #670, .T. ) ;
#47 = EDGE_LOOP ( 'NONE', ( #148, #179, #802, #70 ) ) ;
#48 = ORIENTED_EDGE ( 'NONE', *, *, #512, .T. ) ;
#49 = VERTEX_POINT ( 'NONE', #165 ) ;
#50 = EDGE_CURVE ( 'NONE', #934, #797, #6, .T. ) ;
#51 = EDGE_CURVE ( 'NONE', #152, #726, #378, .T. ) ;
#52 = VERTEX_POINT ( 'NONE', #675 ) ;
#53 = CARTESIAN_POINT ( 'NONE',  ( -387.4725140405450361, 67.03204812499521381, -2.000000000000001776 ) ) ;
#54 = COLOUR_RGB ( '',0.6470588235294117974, 0.6196078431372549211, 0.5882352941176470784 ) ;
#55 = DIRECTION ( 'NONE',  ( 0.000000000000000000, 0.000000000000000000, -1.000000000000000000 ) ) ;
#56 = VECTOR ( 'NONE', #477, 1000.000000000000000 ) ;
#57 = LINE ( 'NONE', #782, #529 ) ;
#58 = CARTESIAN_POINT ( 'NONE',  ( -395.9725140405450929, 29.03204812499521381, -11.75000000000000711 ) ) ;
#59 = EDGE_CURVE ( 'NONE', #152, #68, #368, .T. ) ;
#60 = CARTESIAN_POINT ( 'NONE',  ( -382.4725140405450361, 27.03204812499521026, -2.999999999999988454 ) ) ;
#61 = DIRECTION ( 'NONE',  ( 0.000000000000000000, -1.000000000000000000, 0.000000000000000000 ) ) ;
#62 = CARTESIAN_POINT ( 'NONE',  ( -417.4725140405450929, 29.03204812499521381, -2.000000000000001776 ) ) ;
#63 = ORIENTED_EDGE ( 'NONE', *, *, #744, .T. ) ;
#64 = LINE ( 'NONE', #93, #842 ) ;
#65 = CARTESIAN_POINT ( 'NONE',  ( -387.4725140405450361, 62.03204812499521381, 0.000000000000000000 ) ) ;
#66 = DIRECTION ( 'NONE',  ( 0.000000000000000000, -0.000000000000000000, 1.000000000000000000 ) ) ;
#67 = DIRECTION ( 'NONE',  ( 1.000000000000000000, -0.000000000000000000, -0.000000000000000000 ) ) ;
#68 = VERTEX_POINT ( 'NONE', #843 ) ;
#69 = VECTOR ( 'NONE', #434, 1000.000000000000000 ) ;
#70 = ORIENTED_EDGE ( 'NONE', *, *, #826, .F. ) ;
#71 = LINE ( 'NONE', #921, #824 ) ;
#72 = VERTEX_POINT ( 'NONE', #483 ) ;
#73 = DIRECTION ( 'NONE',  ( -0.000000000000000000, -1.000000000000000000, -0.000000000000000000 ) ) ;
#74 = PLANE ( 'NONE',  #32 ) ;
#75 = EDGE_CURVE ( 'NONE', #155, #494, #722, .T. ) ;
#76 = ORIENTED_EDGE ( 'NONE', *, *, #12, .F. ) ;
#77 = CARTESIAN_POINT ( 'NONE',  ( -412.4725140405450929, 67.03204812499521381, -103.8626526259748033 ) ) ;
#78 = ORIENTED_EDGE ( 'NONE', *, *, #46, .F. ) ;
#79 = AXIS2_PLACEMENT_3D ( 'NONE', #508, #825, #28 ) ;
#80 = FACE_OUTER_BOUND ( 'NONE', #720, .T. ) ;
#81 = CARTESIAN_POINT ( 'NONE',  ( -395.9725140405450929, 12.80179865423754926, -9.500000000000007105 ) ) ;
#82 = VECTOR ( 'NONE', #345, 1000.000000000000000 ) ;
#83 = CARTESIAN_POINT ( 'NONE',  ( -408.4725140405450929, 54.03204812499521381, -2.000000000000000000 ) ) ;
#84 = AXIS2_PLACEMENT_3D ( 'NONE', #721, #268, #504 ) ;
#85 = VERTEX_POINT ( 'NONE', #284 ) ;
#86 = CARTESIAN_POINT ( 'NONE',  ( -369.3195676025791272, 27.03204812499521381, -15.00000000000000533 ) ) ;
#87 = PLANE ( 'NONE',  #771 ) ;
#88 = ORIENTED_EDGE ( 'NONE', *, *, #168, .F. ) ;
#89 = SURFACE_SIDE_STYLE ('',( #224 ) ) ;
#90 = LINE ( 'NONE', #134, #297 ) ;
#91 = LINE ( 'NONE', #848, #587 ) ;
#92 = CARTESIAN_POINT ( 'NONE',  ( -395.9725140405450929, 27.03204812499521381, -7.250000000000006217 ) ) ;
#93 = CARTESIAN_POINT ( 'NONE',  ( -382.4725140405450361, 29.03204812499521381, -2.999999999999999112 ) ) ;
#94 = ORIENTED_EDGE ( 'NONE', *, *, #769, .T. ) ;
#95 = FILL_AREA_STYLE ('',( #293 ) ) ;
#96 = VERTEX_POINT ( 'NONE', #807 ) ;
#97 = VECTOR ( 'NONE', #906, 1000.000000000000000 ) ;
#98 = ORIENTED_EDGE ( 'NONE', *, *, #181, .F. ) ;
#99 = AXIS2_PLACEMENT_3D ( 'NONE', #555, #770, #697 ) ;
#100 = LINE ( 'NONE', #125, #692 ) ;
#101 = DIRECTION ( 'NONE',  ( -0.000000000000000000, -1.000000000000000000, -0.000000000000000000 ) ) ;
#102 = ADVANCED_FACE ( 'NONE', ( #4 ), #147, .F. ) ;
#103 = DIRECTION ( 'NONE',  ( -0.000000000000000000, -0.000000000000000000, 1.000000000000000000 ) ) ;
#104 = EDGE_LOOP ( 'NONE', ( #760, #956, #272, #362 ) ) ;
#105 = ADVANCED_FACE ( 'NONE', ( #390 ), #87, .F. ) ;
#106 = ORIENTED_EDGE ( 'NONE', *, *, #550, .F. ) ;
#107 = ADVANCED_FACE ( 'NONE', ( #880 ), #664, .T. ) ;
#108 = FILL_AREA_STYLE_COLOUR ( '', #673 ) ;
#109 = EDGE_LOOP ( 'NONE', ( #932, #222, #106, #76, #694, #684 ) ) ;
#110 = VECTOR ( 'NONE', #643, 1000.000000000000000 ) ;
#111 = DIRECTION ( 'NONE',  ( 1.000000000000000000, 0.000000000000000000, 0.000000000000000000 ) ) ;
#112 = AXIS2_PLACEMENT_3D ( 'NONE', #544, #101, #169 ) ;
#113 = VECTOR ( 'NONE', #647, 1000.000000000000000 ) ;
#114 = AXIS2_PLACEMENT_3D ( 'NONE', #674, #819, #597 ) ;
#115 = DIRECTION ( 'NONE',  ( -0.000000000000000000, -1.000000000000000000, -0.000000000000000000 ) ) ;
#116 = ORIENTED_EDGE ( 'NONE', *, *, #858, .T. ) ;
#117 = CARTESIAN_POINT ( 'NONE',  ( -385.4725140405450361, 27.03204812499521026, -15.00000000000000888 ) ) ;
#118 = CARTESIAN_POINT ( 'NONE',  ( -403.9725140405450929, 27.03204812499521381, -11.75000000000000711 ) ) ;
#119 = EDGE_CURVE ( 'NONE', #546, #756, #252, .T. ) ;
#120 = ORIENTED_EDGE ( 'NONE', *, *, #699, .F. ) ;
#121 = EDGE_LOOP ( 'NONE', ( #905, #329, #474, #197 ) ) ;
#122 = CARTESIAN_POINT ( 'NONE',  ( -414.4725140405450929, 29.03204812499521381, -15.00000000000000888 ) ) ;
#123 = DIRECTION ( 'NONE',  ( 1.000000000000000000, 0.000000000000000000, -0.000000000000000000 ) ) ;
#124 = FACE_BOUND ( 'NONE', #653, .T. ) ;
#125 = CARTESIAN_POINT ( 'NONE',  ( -395.9725140405450929, 29.03204812499521381, -7.250000000000006217 ) ) ;
#126 = CARTESIAN_POINT ( 'NONE',  ( -417.4725140405450929, 27.03204812499521381, -3.000000000000002665 ) ) ;
#127 = DIRECTION ( 'NONE',  ( 1.000000000000000000, 0.000000000000000000, 0.000000000000000000 ) ) ;
#128 = DIRECTION ( 'NONE',  ( -0.000000000000000000, -0.000000000000000000, 1.000000000000000000 ) ) ;
#129 = EDGE_CURVE ( 'NONE', #234, #391, #471, .T. ) ;
#130 = ORIENTED_EDGE ( 'NONE', *, *, #896, .T. ) ;
#131 = ORIENTED_EDGE ( 'NONE', *, *, #357, .T. ) ;
#132 = ORIENTED_EDGE ( 'NONE', *, *, #928, .T. ) ;
#133 = ORIENTED_EDGE ( 'NONE', *, *, #450, .T. ) ;
#134 = CARTESIAN_POINT ( 'NONE',  ( -382.4725140405450361, 30.03204812499521381, 0.000000000000000000 ) ) ;
#135 = LINE ( 'NONE', #218, #490 ) ;
#136 = VECTOR ( 'NONE', #939, 1000.000000000000000 ) ;
#137 = PRODUCT_DEFINITION_SHAPE ( 'NONE', 'NONE',  #312 ) ;
#138 = DIRECTION ( 'NONE',  ( 0.000000000000000000, 0.000000000000000000, 1.000000000000000000 ) ) ;
#139 = CARTESIAN_POINT ( 'NONE',  ( -417.4725140405450929, 27.03204812499521381, -2.000000000000005329 ) ) ;
#140 = DIRECTION ( 'NONE',  ( -0.000000000000000000, 0.000000000000000000, -1.000000000000000000 ) ) ;
#141 = AXIS2_PLACEMENT_3D ( 'NONE', #685, #29, #300 ) ;
#142 = DIRECTION ( 'NONE',  ( 0.000000000000000000, 0.000000000000000000, 1.000000000000000000 ) ) ;
#143 = CARTESIAN_POINT ( 'NONE',  ( -399.9725140405450929, 45.03204812499521381, -2.000000000000000000 ) ) ;
#144 = CARTESIAN_POINT ( 'NONE',  ( -403.9725140405450929, 29.03204812499521381, -7.250000000000006217 ) ) ;
#145 = CARTESIAN_POINT ( 'NONE',  ( -414.4725140405450929, 27.03204812499521381, -15.00000000000000533 ) ) ;
#146 = EDGE_CURVE ( 'NONE', #403, #155, #945, .T. ) ;
#147 = PLANE ( 'NONE',  #419 ) ;
#148 = ORIENTED_EDGE ( 'NONE', *, *, #520, .T. ) ;
#149 = FACE_OUTER_BOUND ( 'NONE', #815, .T. ) ;
#150 = FACE_BOUND ( 'NONE', #178, .T. ) ;
#151 = DIRECTION ( 'NONE',  ( 1.000000000000000000, -0.000000000000000000, 0.000000000000000000 ) ) ;
#152 = VERTEX_POINT ( 'NONE', #257 ) ;
#153 = LINE ( 'NONE', #503, #899 ) ;
#154 = EDGE_LOOP ( 'NONE', ( #702, #894, #523, #392, #796, #524 ) ) ;
#155 = VERTEX_POINT ( 'NONE', #53 ) ;
#156 = VERTEX_POINT ( 'NONE', #118 ) ;
#157 = DIRECTION ( 'NONE',  ( -0.000000000000000000, 1.000000000000000000, -0.000000000000000000 ) ) ;
#158 = AXIS2_PLACEMENT_3D ( 'NONE', #577, #719, #640 ) ;
#159 = PLANE ( 'NONE',  #859 ) ;
#160 = DIRECTION ( 'NONE',  ( 0.000000000000000000, 0.000000000000000000, 1.000000000000000000 ) ) ;
#161 = ADVANCED_FACE ( 'NONE', ( #758 ), #480, .F. ) ;
#162 = FACE_OUTER_BOUND ( 'NONE', #342, .T. ) ;
#163 = ORIENTED_EDGE ( 'NONE', *, *, #769, .F. ) ;
#164 =( NAMED_UNIT ( * ) PLANE_ANGLE_UNIT ( ) SI_UNIT ( $, .RADIAN. ) );
#165 = CARTESIAN_POINT ( 'NONE',  ( -391.4725140405450361, 45.03204812499521381, 0.000000000000000000 ) ) ;
#166 = ADVANCED_FACE ( 'NONE', ( #149 ), #940, .T. ) ;
#167 = EDGE_CURVE ( 'NONE', #781, #43, #16, .T. ) ;
#168 = EDGE_CURVE ( 'NONE', #728, #253, #478, .T. ) ;
#169 = DIRECTION ( 'NONE',  ( 0.000000000000000000, 0.000000000000000000, 1.000000000000000000 ) ) ;
#170 = ORIENTED_EDGE ( 'NONE', *, *, #826, .T. ) ;
#171 = VECTOR ( 'NONE', #61, 1000.000000000000000 ) ;
#172 = VECTOR ( 'NONE', #776, 1000.000000000000000 ) ;
#173 = FILL_AREA_STYLE ('',( #108 ) ) ;
#174 = CIRCLE ( 'NONE', #205, 2.250000000000000444 ) ;
#175 = SURFACE_SIDE_STYLE ('',( #468 ) ) ;
#176 = ORIENTED_EDGE ( 'NONE', *, *, #867, .F. ) ;
#177 = CARTESIAN_POINT ( 'NONE',  ( -369.3195676025791272, 29.03204812499521381, -15.00000000000000711 ) ) ;
#178 = EDGE_LOOP ( 'NONE', ( #120, #324, #456, #547 ) ) ;
#179 = ORIENTED_EDGE ( 'NONE', *, *, #181, .T. ) ;
#180 = PLANE ( 'NONE',  #706 ) ;
#181 = EDGE_CURVE ( 'NONE', #96, #379, #215, .T. ) ;
#182 = LINE ( 'NONE', #42, #596 ) ;
#183 = ORIENTED_EDGE ( 'NONE', *, *, #732, .F. ) ;
#184 = ORIENTED_EDGE ( 'NONE', *, *, #314, .F. ) ;
#185 = PLANE ( 'NONE',  #463 ) ;
#186 = ORIENTED_EDGE ( 'NONE', *, *, #119, .F. ) ;
#187 = EDGE_CURVE ( 'NONE', #72, #49, #203, .T. ) ;
#188 = AXIS2_PLACEMENT_3D ( 'NONE', #740, #812, #286 ) ;
#189 = CARTESIAN_POINT ( 'NONE',  ( -387.4725140405450361, 67.03204812499521381, 0.000000000000000000 ) ) ;
#190 = ORIENTED_EDGE ( 'NONE', *, *, #261, .F. ) ;
#191 = EDGE_LOOP ( 'NONE', ( #133, #948, #313, #277 ) ) ;
#192 = DIRECTION ( 'NONE',  ( 1.000000000000000000, 0.000000000000000000, 0.000000000000000000 ) ) ;
#193 = ORIENTED_EDGE ( 'NONE', *, *, #59, .F. ) ;
#194 = LINE ( 'NONE', #791, #13 ) ;
#195 = EDGE_CURVE ( 'NONE', #340, #85, #470, .T. ) ;
#196 = FACE_OUTER_BOUND ( 'NONE', #618, .T. ) ;
#197 = ORIENTED_EDGE ( 'NONE', *, *, #928, .F. ) ;
#198 = CARTESIAN_POINT ( 'NONE',  ( -399.9725140405450929, 45.03204812499521381, 0.000000000000000000 ) ) ;
#199 = DIRECTION ( 'NONE',  ( -0.000000000000000000, -1.000000000000000000, -0.000000000000000000 ) ) ;
#200 = ORIENTED_EDGE ( 'NONE', *, *, #229, .T. ) ;
#201 = DIRECTION ( 'NONE',  ( 0.000000000000000000, 0.000000000000000000, -1.000000000000000000 ) ) ;
#202 = CARTESIAN_POINT ( 'NONE',  ( -386.9725140405450361, 27.03204812499521381, -7.250000000000006217 ) ) ;
#203 = LINE ( 'NONE', #347, #290 ) ;
#204 = CARTESIAN_POINT ( 'NONE',  ( -391.4725140405450361, 45.03204812499521381, -2.000000000000000000 ) ) ;
#205 = AXIS2_PLACEMENT_3D ( 'NONE', #681, #303, #827 ) ;
#206 = CARTESIAN_POINT ( 'NONE',  ( -385.4725140405450361, 27.03204812499521026, -12.00000000000000711 ) ) ;
#207 = CLOSED_SHELL ( 'NONE', ( #386, #105, #166, #693, #768, #549, #244, #542, #107, #161, #774, #236, #461, #617, #466, #473, #304, #838, #295, #40, #753, #102, #903, #911, #849, #536, #919, #557, #37, #603 ) ) ;
#208 = DIRECTION ( 'NONE',  ( -1.000000000000000000, -0.000000000000000000, -0.000000000000000000 ) ) ;
#209 = EDGE_CURVE ( 'NONE', #96, #552, #455, .T. ) ;
#210 = DIRECTION ( 'NONE',  ( 0.000000000000000000, 0.000000000000000000, 1.000000000000000000 ) ) ;
#211 = DIRECTION ( 'NONE',  ( 1.000000000000000000, 0.000000000000000000, 0.000000000000000000 ) ) ;
#212 = EDGE_LOOP ( 'NONE', ( #371, #170, #564, #193 ) ) ;
#213 = FACE_OUTER_BOUND ( 'NONE', #47, .T. ) ;
#214 = PRESENTATION_STYLE_ASSIGNMENT (( #696 ) ) ;
#215 = LINE ( 'NONE', #250, #602 ) ;
#216 = DIRECTION ( 'NONE',  ( 0.000000000000000000, 1.000000000000000000, 0.000000000000000000 ) ) ;
#217 = AXIS2_PLACEMENT_3D ( 'NONE', #65, #580, #123 ) ;
#218 = CARTESIAN_POINT ( 'NONE',  ( -395.9725140405450929, 29.03204812499521381, -11.75000000000000711 ) ) ;
#219 = ORIENTED_EDGE ( 'NONE', *, *, #31, .T. ) ;
#220 = ORIENTED_EDGE ( 'NONE', *, *, #227, .T. ) ;
#221 = DIRECTION ( 'NONE',  ( 1.000000000000000000, 0.000000000000000000, 0.000000000000000000 ) ) ;
#222 = ORIENTED_EDGE ( 'NONE', *, *, #314, .T. ) ;
#223 = ORIENTED_EDGE ( 'NONE', *, *, #195, .F. ) ;
#224 = SURFACE_STYLE_FILL_AREA ( #95 ) ;
#225 = ORIENTED_EDGE ( 'NONE', *, *, #616, .F. ) ;
#226 = FACE_OUTER_BOUND ( 'NONE', #676, .T. ) ;
#227 = EDGE_CURVE ( 'NONE', #465, #591, #957, .T. ) ;
#228 = DIRECTION ( 'NONE',  ( -0.000000000000000000, 1.000000000000000000, -0.000000000000000000 ) ) ;
#229 = EDGE_CURVE ( 'NONE', #22, #156, #262, .T. ) ;
#230 = ORIENTED_EDGE ( 'NONE', *, *, #306, .T. ) ;
#231 = CARTESIAN_POINT ( 'NONE',  ( -412.9725140405450929, 12.80179865423754926, -11.75000000000000711 ) ) ;
#232 =( NAMED_UNIT ( * ) SI_UNIT ( $, .STERADIAN. ) SOLID_ANGLE_UNIT ( ) );
#233 = EDGE_CURVE ( 'NONE', #797, #21, #778, .T. ) ;
#234 = VERTEX_POINT ( 'NONE', #442 ) ;
#235 = LINE ( 'NONE', #242, #752 ) ;
#236 = ADVANCED_FACE ( 'NONE', ( #226 ), #44, .F. ) ;
#237 = VECTOR ( 'NONE', #151, 1000.000000000000000 ) ;
#238 = CARTESIAN_POINT ( 'NONE',  ( -408.4725140405450929, 45.03204812499521381, -2.000000000000000000 ) ) ;
#239 =( GEOMETRIC_REPRESENTATION_CONTEXT ( 3 ) GLOBAL_UNCERTAINTY_ASSIGNED_CONTEXT ( ( #779 ) ) GLOBAL_UNIT_ASSIGNED_CONTEXT ( ( #20, #164, #530 ) ) REPRESENTATION_CONTEXT ( 'NONE', 'WORKASPACE' ) );
#240 = EDGE_LOOP ( 'NONE', ( #713, #955, #871, #714 ) ) ;
#241 = PLANE ( 'NONE',  #652 ) ;
#242 = CARTESIAN_POINT ( 'NONE',  ( -387.4725140405450361, 67.03204812499521381, 0.000000000000000000 ) ) ;
#243 = VERTEX_POINT ( 'NONE', #254 ) ;
#244 = ADVANCED_FACE ( 'NONE', ( #481 ), #185, .F. ) ;
#245 = EDGE_CURVE ( 'NONE', #38, #243, #57, .T. ) ;
#246 = VECTOR ( 'NONE', #518, 1000.000000000000000 ) ;
#247 = ORIENTED_EDGE ( 'NONE', *, *, #349, .T. ) ;
#248 = LINE ( 'NONE', #837, #874 ) ;
#249 = CARTESIAN_POINT ( 'NONE',  ( -417.4725140405450929, 29.03204812499521381, -2.999999999999996447 ) ) ;
#250 = CARTESIAN_POINT ( 'NONE',  ( -395.9725140405450929, 12.80179865423754926, -7.250000000000006217 ) ) ;
#251 = AXIS2_PLACEMENT_3D ( 'NONE', #2, #505, #731 ) ;
#252 = CIRCLE ( 'NONE', #492, 3.000000000000001776 ) ;
#253 = VERTEX_POINT ( 'NONE', #126 ) ;
#254 = CARTESIAN_POINT ( 'NONE',  ( -417.4725140405450929, 27.03204812499521381, -12.00000000000000711 ) ) ;
#255 = CARTESIAN_POINT ( 'NONE',  ( -382.4725140405450361, 27.03204812499521026, -2.999999999999999112 ) ) ;
#256 = PRODUCT_DEFINITION_CONTEXT ( 'detailed design', #821, 'design' ) ;
#257 = CARTESIAN_POINT ( 'NONE',  ( -386.9725140405450361, 27.03204812499521381, -11.75000000000000711 ) ) ;
#258 = FACE_OUTER_BOUND ( 'NONE', #154, .T. ) ;
#259 = ORIENTED_EDGE ( 'NONE', *, *, #780, .F. ) ;
#260 = FACE_OUTER_BOUND ( 'NONE', #513, .T. ) ;
#261 = EDGE_CURVE ( 'NONE', #391, #253, #406, .T. ) ;
#262 = LINE ( 'NONE', #519, #237 ) ;
#263 = CARTESIAN_POINT ( 'NONE',  ( -395.9725140405450929, 27.03204812499521381, -11.75000000000000711 ) ) ;
#264 = EDGE_LOOP ( 'NONE', ( #116, #923, #543, #750 ) ) ;
#265 = MECHANICAL_DESIGN_GEOMETRIC_PRESENTATION_REPRESENTATION (  '', ( #565 ), #839 ) ;
#266 = ORIENTED_EDGE ( 'NONE', *, *, #626, .T. ) ;
#267 = UNCERTAINTY_MEASURE_WITH_UNIT (LENGTH_MEASURE( 1.000000000000000082E-05 ), #773, 'distance_accuracy_value', 'NONE');
#268 = DIRECTION ( 'NONE',  ( 0.000000000000000000, 1.000000000000000000, 0.000000000000000000 ) ) ;
#269 = LINE ( 'NONE', #263, #319 ) ;
#270 = VECTOR ( 'NONE', #103, 1000.000000000000000 ) ;
#271 = PLANE ( 'NONE',  #410 ) ;
#272 = ORIENTED_EDGE ( 'NONE', *, *, #520, .F. ) ;
#273 = EDGE_CURVE ( 'NONE', #663, #9, #26, .T. ) ;
#274 = EDGE_CURVE ( 'NONE', #934, #72, #444, .T. ) ;
#275 = ORIENTED_EDGE ( 'NONE', *, *, #845, .F. ) ;
#276 = FACE_BOUND ( 'NONE', #121, .T. ) ;
#277 = ORIENTED_EDGE ( 'NONE', *, *, #359, .T. ) ;
#278 = CIRCLE ( 'NONE', #84, 2.250000000000000444 ) ;
#279 = EDGE_CURVE ( 'NONE', #10, #68, #850, .T. ) ;
#280 = AXIS2_PLACEMENT_3D ( 'NONE', #433, #447, #944 ) ;
#281 = ORIENTED_EDGE ( 'NONE', *, *, #227, .F. ) ;
#282 = DIRECTION ( 'NONE',  ( -0.000000000000000000, -1.000000000000000000, -0.000000000000000000 ) ) ;
#283 = DIRECTION ( 'NONE',  ( -0.000000000000000000, -0.000000000000000000, 1.000000000000000000 ) ) ;
#284 = CARTESIAN_POINT ( 'NONE',  ( -412.9725140405450361, 29.03204812499521381, -7.250000000000006217 ) ) ;
#285 = EDGE_LOOP ( 'NONE', ( #935, #615, #34, #738 ) ) ;
#286 = DIRECTION ( 'NONE',  ( -0.000000000000000000, 0.000000000000000000, 1.000000000000000000 ) ) ;
#287 = ORIENTED_EDGE ( 'NONE', *, *, #691, .T. ) ;
#288 = DIRECTION ( 'NONE',  ( 1.000000000000000000, 0.000000000000000000, 0.000000000000000000 ) ) ;
#289 = CARTESIAN_POINT ( 'NONE',  ( -387.4725140405450361, 62.03204812499521381, -2.000000000000000000 ) ) ;
#290 = VECTOR ( 'NONE', #876, 1000.000000000000000 ) ;
#291 = DIRECTION ( 'NONE',  ( -1.000000000000000000, -0.000000000000000000, -0.000000000000000000 ) ) ;
#292 = APPLICATION_PROTOCOL_DEFINITION ( 'draft international standard', 'automotive_design', 1998, #895 ) ;
#293 = FILL_AREA_STYLE_COLOUR ( '', #54 ) ;
#294 = VERTEX_POINT ( 'NONE', #651 ) ;
#295 = ADVANCED_FACE ( 'NONE', ( #15 ), #631, .T. ) ;
#296 = FACE_OUTER_BOUND ( 'NONE', #315, .T. ) ;
#297 = VECTOR ( 'NONE', #650, 1000.000000000000000 ) ;
#298 = MECHANICAL_DESIGN_GEOMETRIC_PRESENTATION_REPRESENTATION (  '', ( #438 ), #239 ) ;
#299 = EDGE_CURVE ( 'NONE', #243, #253, #742, .T. ) ;
#300 = DIRECTION ( 'NONE',  ( 0.000000000000000000, 0.000000000000000000, 1.000000000000000000 ) ) ;
#301 = ORIENTED_EDGE ( 'NONE', *, *, #349, .F. ) ;
#302 = VECTOR ( 'NONE', #459, 1000.000000000000000 ) ;
#303 = DIRECTION ( 'NONE',  ( 0.000000000000000000, 1.000000000000000000, 0.000000000000000000 ) ) ;
#304 = ADVANCED_FACE ( 'NONE', ( #800 ), #734, .T. ) ;
#305 = ORIENTED_EDGE ( 'NONE', *, *, #318, .F. ) ;
#306 = EDGE_CURVE ( 'NONE', #566, #889, #813, .T. ) ;
#307 =( NAMED_UNIT ( * ) PLANE_ANGLE_UNIT ( ) SI_UNIT ( $, .RADIAN. ) );
#308 = LINE ( 'NONE', #117, #491 ) ;
#309 = VECTOR ( 'NONE', #128, 1000.000000000000000 ) ;
#310 = VECTOR ( 'NONE', #765, 1000.000000000000000 ) ;
#311 = CARTESIAN_POINT ( 'NONE',  ( -412.9725140405450929, 27.03204812499521381, -7.250000000000006217 ) ) ;
#312 = PRODUCT_DEFINITION ( 'UNKNOWN', '', #428, #256 ) ;
#313 = ORIENTED_EDGE ( 'NONE', *, *, #626, .F. ) ;
#314 = EDGE_CURVE ( 'NONE', #43, #38, #414, .T. ) ;
#315 = EDGE_LOOP ( 'NONE', ( #404, #528, #14, #230 ) ) ;
#316 = AXIS2_PLACEMENT_3D ( 'NONE', #17, #228, #24 ) ;
#317 = PRODUCT ( '21631_03_020_sheetmetal_Vacuum Adapter Plate 3K_1', '21631_03_020_sheetmetal_Vacuum Adapter Plate 3K_1', '', ( #747 ) ) ;
#318 = EDGE_CURVE ( 'NONE', #21, #566, #248, .T. ) ;
#319 = VECTOR ( 'NONE', #641, 1000.000000000000000 ) ;
#320 = ORIENTED_EDGE ( 'NONE', *, *, #31, .F. ) ;
#321 = DIRECTION ( 'NONE',  ( 1.000000000000000000, -0.000000000000000000, -0.000000000000000000 ) ) ;
#322 = VECTOR ( 'NONE', #326, 1000.000000000000000 ) ;
#323 = CARTESIAN_POINT ( 'NONE',  ( -417.4725140405450929, 30.03204812499521381, -103.8626526259748033 ) ) ;
#324 = ORIENTED_EDGE ( 'NONE', *, *, #896, .F. ) ;
#325 = CYLINDRICAL_SURFACE ( 'NONE', #922, 2.999999999999999112 ) ;
#326 = DIRECTION ( 'NONE',  ( -0.000000000000000000, 1.000000000000000000, -0.000000000000000000 ) ) ;
#327 = DIRECTION ( 'NONE',  ( -0.000000000000000000, 0.000000000000000000, -1.000000000000000000 ) ) ;
#328 = AXIS2_PLACEMENT_3D ( 'NONE', #33, #389, #111 ) ;
#329 = ORIENTED_EDGE ( 'NONE', *, *, #575, .F. ) ;
#330 = DIRECTION ( 'NONE',  ( -0.000000000000000000, 0.000000000000000000, -1.000000000000000000 ) ) ;
#331 = CARTESIAN_POINT ( 'NONE',  ( -399.9725140405450929, 54.03204812499521381, -2.000000000000000000 ) ) ;
#332 = EDGE_LOOP ( 'NONE', ( #642, #830, #952, #383 ) ) ;
#333 = FACE_OUTER_BOUND ( 'NONE', #240, .T. ) ;
#334 = ORIENTED_EDGE ( 'NONE', *, *, #686, .T. ) ;
#335 = LINE ( 'NONE', #484, #764 ) ;
#336 = DIRECTION ( 'NONE',  ( 0.000000000000000000, 0.000000000000000000, 1.000000000000000000 ) ) ;
#337 = CARTESIAN_POINT ( 'NONE',  ( -386.9725140405450361, 29.03204812499521381, -9.500000000000007105 ) ) ;
#338 = FACE_OUTER_BOUND ( 'NONE', #746, .T. ) ;
#339 = CARTESIAN_POINT ( 'NONE',  ( -382.4725140405450361, 29.03204812499521381, -12.00000000000000711 ) ) ;
#340 = VERTEX_POINT ( 'NONE', #476 ) ;
#341 = DIRECTION ( 'NONE',  ( 0.000000000000000000, 0.000000000000000000, 1.000000000000000000 ) ) ;
#342 = EDGE_LOOP ( 'NONE', ( #41, #864, #88, #784 ) ) ;
#343 = DIRECTION ( 'NONE',  ( 1.000000000000000000, 0.000000000000000000, 0.000000000000000000 ) ) ;
#344 = DIRECTION ( 'NONE',  ( -0.000000000000000000, 1.000000000000000000, -0.000000000000000000 ) ) ;
#345 = DIRECTION ( 'NONE',  ( 0.000000000000000000, -1.000000000000000000, 0.000000000000000000 ) ) ;
#346 = CYLINDRICAL_SURFACE ( 'NONE', #141, 1.000000000000001776 ) ;
#347 = CARTESIAN_POINT ( 'NONE',  ( -391.4725140405450361, 54.03204812499521381, 0.000000000000000000 ) ) ;
#348 = CIRCLE ( 'NONE', #583, 2.999999999999999112 ) ;
#349 = EDGE_CURVE ( 'NONE', #797, #49, #91, .T. ) ;
#350 = EDGE_CURVE ( 'NONE', #663, #340, #865, .T. ) ;
#351 = LINE ( 'NONE', #339, #322 ) ;
#352 = DIRECTION ( 'NONE',  ( 0.000000000000000000, -0.000000000000000000, 1.000000000000000000 ) ) ;
#353 = DIRECTION ( 'NONE',  ( -0.000000000000000000, 1.000000000000000000, -0.000000000000000000 ) ) ;
#354 = DIRECTION ( 'NONE',  ( 0.000000000000000000, 0.000000000000000000, 1.000000000000000000 ) ) ;
#355 = DIRECTION ( 'NONE',  ( -0.000000000000000000, -1.000000000000000000, -0.000000000000000000 ) ) ;
#356 = ORIENTED_EDGE ( 'NONE', *, *, #793, .T. ) ;
#357 = EDGE_CURVE ( 'NONE', #234, #728, #36, .T. ) ;
#358 = DIRECTION ( 'NONE',  ( 0.000000000000000000, -1.000000000000000000, 0.000000000000000000 ) ) ;
#359 = EDGE_CURVE ( 'NONE', #494, #709, #335, .T. ) ;
#360 = CARTESIAN_POINT ( 'NONE',  ( -403.9725140405450929, 12.80179865423754926, -11.75000000000000711 ) ) ;
#361 = DIRECTION ( 'NONE',  ( 1.000000000000000000, 0.000000000000000000, 0.000000000000000000 ) ) ;
#362 = ORIENTED_EDGE ( 'NONE', *, *, #51, .F. ) ;
#363 = LINE ( 'NONE', #440, #69 ) ;
#364 = CIRCLE ( 'NONE', #787, 2.999999999999999112 ) ;
#365 = CARTESIAN_POINT ( 'NONE',  ( -395.9725140405450929, 27.03204812499521381, -9.500000000000007105 ) ) ;
#366 = CARTESIAN_POINT ( 'NONE',  ( -387.4725140405450361, 67.03204812499521381, -2.000000000000000000 ) ) ;
#367 = LINE ( 'NONE', #255, #172 ) ;
#368 = LINE ( 'NONE', #541, #310 ) ;
#369 = AXIS2_PLACEMENT_3D ( 'NONE', #289, #140, #451 ) ;
#370 = EDGE_LOOP ( 'NONE', ( #405, #882, #637, #247 ) ) ;
#371 = ORIENTED_EDGE ( 'NONE', *, *, #51, .T. ) ;
#372 = DIRECTION ( 'NONE',  ( 0.000000000000000000, 0.000000000000000000, 1.000000000000000000 ) ) ;
#373 = AXIS2_PLACEMENT_3D ( 'NONE', #526, #531, #372 ) ;
#374 = ORIENTED_EDGE ( 'NONE', *, *, #146, .T. ) ;
#375 = EDGE_LOOP ( 'NONE', ( #912, #574, #593, #334 ) ) ;
#376 =( NAMED_UNIT ( * ) SI_UNIT ( $, .STERADIAN. ) SOLID_ANGLE_UNIT ( ) );
#377 = ORIENTED_EDGE ( 'NONE', *, *, #710, .T. ) ;
#378 = CIRCLE ( 'NONE', #112, 2.250000000000000444 ) ;
#379 = VERTEX_POINT ( 'NONE', #623 ) ;
#380 = VECTOR ( 'NONE', #704, 1000.000000000000000 ) ;
#381 = EDGE_CURVE ( 'NONE', #52, #465, #71, .T. ) ;
#382 =( NAMED_UNIT ( * ) PLANE_ANGLE_UNIT ( ) SI_UNIT ( $, .RADIAN. ) );
#383 = ORIENTED_EDGE ( 'NONE', *, *, #119, .T. ) ;
#384 = DIRECTION ( 'NONE',  ( -0.000000000000000000, 1.000000000000000000, -0.000000000000000000 ) ) ;
#385 = CARTESIAN_POINT ( 'NONE',  ( -412.9725140405450929, 27.03204812499521381, -11.75000000000000711 ) ) ;
#386 = ADVANCED_FACE ( 'NONE', ( #657 ), #180, .T. ) ;
#387 = ORIENTED_EDGE ( 'NONE', *, *, #845, .T. ) ;
#388 = EDGE_CURVE ( 'NONE', #841, #43, #572, .T. ) ;
#389 = DIRECTION ( 'NONE',  ( 0.000000000000000000, -0.000000000000000000, 1.000000000000000000 ) ) ;
#390 = FACE_OUTER_BOUND ( 'NONE', #285, .T. ) ;
#391 = VERTEX_POINT ( 'NONE', #249 ) ;
#392 = ORIENTED_EDGE ( 'NONE', *, *, #811, .T. ) ;
#393 = LINE ( 'NONE', #816, #799 ) ;
#394 = LINE ( 'NONE', #581, #941 ) ;
#395 = LINE ( 'NONE', #851, #551 ) ;
#396 = EDGE_CURVE ( 'NONE', #556, #546, #182, .T. ) ;
#397 = CARTESIAN_POINT ( 'NONE',  ( -382.4725140405450361, 27.03204812499521381, -103.8626526259748033 ) ) ;
#398 = DIRECTION ( 'NONE',  ( -0.000000000000000000, 1.000000000000000000, -0.000000000000000000 ) ) ;
#399 = ORIENTED_EDGE ( 'NONE', *, *, #146, .F. ) ;
#400 = ORIENTED_EDGE ( 'NONE', *, *, #710, .F. ) ;
#401 = DIRECTION ( 'NONE',  ( -1.000000000000000000, 0.000000000000000000, 0.000000000000000000 ) ) ;
#402 = ORIENTED_EDGE ( 'NONE', *, *, #245, .T. ) ;
#403 = VERTEX_POINT ( 'NONE', #486 ) ;
#404 = ORIENTED_EDGE ( 'NONE', *, *, #512, .F. ) ;
#405 = ORIENTED_EDGE ( 'NONE', *, *, #187, .F. ) ;
#406 = LINE ( 'NONE', #573, #82 ) ;
#407 = AXIS2_PLACEMENT_3D ( 'NONE', #365, #355, #592 ) ;
#408 = ORIENTED_EDGE ( 'NONE', *, *, #625, .F. ) ;
#409 = CARTESIAN_POINT ( 'NONE',  ( -412.9725140405450929, 29.03204812499521381, -11.75000000000000711 ) ) ;
#410 = AXIS2_PLACEMENT_3D ( 'NONE', #801, #590, #138 ) ;
#411 = FACE_BOUND ( 'NONE', #104, .T. ) ;
#412 = DIRECTION ( 'NONE',  ( 0.000000000000000000, 0.000000000000000000, -1.000000000000000000 ) ) ;
#413 = LINE ( 'NONE', #680, #873 ) ;
#414 = CIRCLE ( 'NONE', #725, 2.999999999999999112 ) ;
#415 = CARTESIAN_POINT ( 'NONE',  ( -412.4725140405450929, 67.03204812499521381, 0.000000000000000000 ) ) ;
#416 = DIRECTION ( 'NONE',  ( 1.000000000000000000, -5.551115123125778758E-16, 0.000000000000000000 ) ) ;
#417 = FACE_OUTER_BOUND ( 'NONE', #264, .T. ) ;
#418 = EDGE_CURVE ( 'NONE', #546, #253, #367, .T. ) ;
#419 = AXIS2_PLACEMENT_3D ( 'NONE', #527, #890, #654 ) ;
#420 = ORIENTED_EDGE ( 'NONE', *, *, #550, .T. ) ;
#421 = CARTESIAN_POINT ( 'NONE',  ( -369.3195676025791272, 29.03204812499521381, -2.000000000000005329 ) ) ;
#422 = DIRECTION ( 'NONE',  ( 0.000000000000000000, 0.000000000000000000, -1.000000000000000000 ) ) ;
#423 = CARTESIAN_POINT ( 'NONE',  ( -385.4725140405450361, 103.0320481249952707, -12.00000000000000711 ) ) ;
#424 = CARTESIAN_POINT ( 'NONE',  ( -382.4725140405450361, 62.03204812499521381, 0.000000000000000000 ) ) ;
#425 = ORIENTED_EDGE ( 'NONE', *, *, #540, .F. ) ;
#426 = ORIENTED_EDGE ( 'NONE', *, *, #798, .T. ) ;
#427 = EDGE_LOOP ( 'NONE', ( #320, #259, #78, #400 ) ) ;
#428 = PRODUCT_DEFINITION_FORMATION_WITH_SPECIFIED_SOURCE ( 'ANY', '', #317, .NOT_KNOWN. ) ;
#429 = VERTEX_POINT ( 'NONE', #701 ) ;
#430 = ORIENTED_EDGE ( 'NONE', *, *, #632, .T. ) ;
#431 = VERTEX_POINT ( 'NONE', #560 ) ;
#432 = VECTOR ( 'NONE', #805, 1000.000000000000000 ) ;
#433 = CARTESIAN_POINT ( 'NONE',  ( -417.4725140405450929, 27.03204812499521381, -103.8626526259748033 ) ) ;
#434 = DIRECTION ( 'NONE',  ( 0.000000000000000000, 1.000000000000000000, 0.000000000000000000 ) ) ;
#435 = DIRECTION ( 'NONE',  ( 0.000000000000000000, 0.000000000000000000, 1.000000000000000000 ) ) ;
#436 = VECTOR ( 'NONE', #19, 1000.000000000000000 ) ;
#437 = EDGE_CURVE ( 'NONE', #294, #429, #395, .T. ) ;
#438 = STYLED_ITEM ( 'NONE', ( #761 ), #525 ) ;
#439 = ORIENTED_EDGE ( 'NONE', *, *, #914, .F. ) ;
#440 = CARTESIAN_POINT ( 'NONE',  ( -417.4725140405450929, 27.03204812499521381, 0.000000000000000000 ) ) ;
#441 = DIRECTION ( 'NONE',  ( -0.000000000000000000, 1.000000000000000000, -0.000000000000000000 ) ) ;
#442 = CARTESIAN_POINT ( 'NONE',  ( -417.4725140405450929, 30.03204812499521381, -1.999999999999999112 ) ) ;
#443 = AXIS2_PLACEMENT_3D ( 'NONE', #506, #73, #539 ) ;
#444 = LINE ( 'NONE', #517, #309 ) ;
#445 = CARTESIAN_POINT ( 'NONE',  ( -385.4725140405450361, 27.03204812499521381, -15.00000000000000533 ) ) ;
#446 = DIRECTION ( 'NONE',  ( 0.000000000000000000, 0.000000000000000000, 1.000000000000000000 ) ) ;
#447 = DIRECTION ( 'NONE',  ( 1.000000000000000000, 0.000000000000000000, -0.000000000000000000 ) ) ;
#448 = CARTESIAN_POINT ( 'NONE',  ( 0.000000000000000000, 0.000000000000000000, 0.000000000000000000 ) ) ;
#449 = ORIENTED_EDGE ( 'NONE', *, *, #677, .T. ) ;
#450 = EDGE_CURVE ( 'NONE', #709, #756, #153, .T. ) ;
#451 = DIRECTION ( 'NONE',  ( 1.000000000000000000, 0.000000000000000000, 0.000000000000000000 ) ) ;
#452 = SURFACE_STYLE_USAGE ( .BOTH. , #89 ) ;
#453 = CIRCLE ( 'NONE', #373, 2.999999999999999112 ) ;
#454 = APPLICATION_PROTOCOL_DEFINITION ( 'draft international standard', 'automotive_design', 1998, #821 ) ;
#455 = CIRCLE ( 'NONE', #407, 2.250000000000000444 ) ;
#456 = ORIENTED_EDGE ( 'NONE', *, *, #279, .F. ) ;
#457 = EDGE_LOOP ( 'NONE', ( #794, #426, #449, #186 ) ) ;
#458 = DIRECTION ( 'NONE',  ( -0.000000000000000000, 1.000000000000000000, -0.000000000000000000 ) ) ;
#459 = DIRECTION ( 'NONE',  ( 0.000000000000000000, -1.000000000000000000, 0.000000000000000000 ) ) ;
#460 = EDGE_LOOP ( 'NONE', ( #183, #301, #904, #287 ) ) ;
#461 = ADVANCED_FACE ( 'NONE', ( #124, #196 ), #645, .F. ) ;
#462 = DIRECTION ( 'NONE',  ( 0.000000000000000000, 0.000000000000000000, 1.000000000000000000 ) ) ;
#463 = AXIS2_PLACEMENT_3D ( 'NONE', #862, #866, #416 ) ;
#464 = DIRECTION ( 'NONE',  ( -1.000000000000000000, 0.000000000000000000, -0.000000000000000000 ) ) ;
#465 = VERTEX_POINT ( 'NONE', #500 ) ;
#466 = ADVANCED_FACE ( 'NONE', ( #646, #622 ), #795, .T. ) ;
#467 = FACE_OUTER_BOUND ( 'NONE', #212, .T. ) ;
#468 = SURFACE_STYLE_FILL_AREA ( #173 ) ;
#469 = AXIS2_PLACEMENT_3D ( 'NONE', #11, #885, #658 ) ;
#470 = LINE ( 'NONE', #724, #432 ) ;
#471 = CIRCLE ( 'NONE', #891, 1.000000000000001776 ) ;
#472 = AXIS2_PLACEMENT_3D ( 'NONE', #649, #67, #579 ) ;
#473 = ADVANCED_FACE ( 'NONE', ( #943 ), #241, .F. ) ;
#474 = ORIENTED_EDGE ( 'NONE', *, *, #350, .F. ) ;
#475 = CARTESIAN_POINT ( 'NONE',  ( -395.9725140405450929, 12.80179865423754926, -11.75000000000000711 ) ) ;
#476 = CARTESIAN_POINT ( 'NONE',  ( -412.9725140405450929, 27.03204812499521381, -7.250000000000006217 ) ) ;
#477 = DIRECTION ( 'NONE',  ( -0.000000000000000000, 1.000000000000000000, -0.000000000000000000 ) ) ;
#478 = CIRCLE ( 'NONE', #472, 3.000000000000001776 ) ;
#479 = CYLINDRICAL_SURFACE ( 'NONE', #634, 2.999999999999999112 ) ;
#480 = CYLINDRICAL_SURFACE ( 'NONE', #607, 8.500000000000007105 ) ;
#481 = FACE_OUTER_BOUND ( 'NONE', #804, .T. ) ;
#482 = DIRECTION ( 'NONE',  ( 0.000000000000000000, -0.000000000000000000, 1.000000000000000000 ) ) ;
#483 = CARTESIAN_POINT ( 'NONE',  ( -391.4725140405450361, 54.03204812499521381, 0.000000000000000000 ) ) ;
#484 = CARTESIAN_POINT ( 'NONE',  ( -382.4725140405450361, 62.03204812499521381, -103.8626526259748033 ) ) ;
#485 = CARTESIAN_POINT ( 'NONE',  ( -417.4725140405450929, 30.03204812499521381, -3.000000000000000888 ) ) ;
#486 = CARTESIAN_POINT ( 'NONE',  ( -412.4725140405450929, 67.03204812499521381, -2.000000000000000000 ) ) ;
#487 = EDGE_CURVE ( 'NONE', #552, #745, #717, .T. ) ;
#488 = AXIS2_PLACEMENT_3D ( 'NONE', #448, #672, #221 ) ;
#489 = EDGE_LOOP ( 'NONE', ( #63, #688, #130, #942 ) ) ;
#490 = VECTOR ( 'NONE', #291, 1000.000000000000000 ) ;
#491 = VECTOR ( 'NONE', #861, 1000.000000000000000 ) ;
#492 = AXIS2_PLACEMENT_3D ( 'NONE', #735, #886, #446 ) ;
#493 = DIRECTION ( 'NONE',  ( -1.000000000000000000, 0.000000000000000000, 0.000000000000000000 ) ) ;
#494 = VERTEX_POINT ( 'NONE', #554 ) ;
#495 = CARTESIAN_POINT ( 'NONE',  ( -382.4725140405450361, 103.0320481249952707, -2.999999999999999112 ) ) ;
#496 = DIRECTION ( 'NONE',  ( 0.000000000000000000, -1.000000000000000000, 6.123233995736766036E-17 ) ) ;
#497 = MANIFOLD_SOLID_BREP ( 'Verrundung1', #207 ) ;
#498 = PRESENTATION_LAYER_ASSIGNMENT (  '', '', ( #438 ) ) ;
#499 = EDGE_LOOP ( 'NONE', ( #132, #792, #900, #225 ) ) ;
#500 = CARTESIAN_POINT ( 'NONE',  ( -417.4725140405450929, 62.03204812499521381, 0.000000000000000000 ) ) ;
#501 = CARTESIAN_POINT ( 'NONE',  ( -387.4725140405450361, 67.03204812499521381, -103.8626526259748033 ) ) ;
#502 = DIRECTION ( 'NONE',  ( 0.000000000000000000, 1.000000000000000000, 0.000000000000000000 ) ) ;
#503 = CARTESIAN_POINT ( 'NONE',  ( -382.4725140405450361, 27.03204812499521381, 0.000000000000000000 ) ) ;
#504 = DIRECTION ( 'NONE',  ( 0.000000000000000000, 0.000000000000000000, 1.000000000000000000 ) ) ;
#505 = DIRECTION ( 'NONE',  ( -1.000000000000000000, 0.000000000000000000, 0.000000000000000000 ) ) ;
#506 = CARTESIAN_POINT ( 'NONE',  ( -412.9725140405450929, 27.03204812499521381, -9.500000000000007105 ) ) ;
#507 = CARTESIAN_POINT ( 'NONE',  ( -412.4725140405450929, 62.03204812499521381, -103.8626526259748033 ) ) ;
#508 = CARTESIAN_POINT ( 'NONE',  ( -387.4725140405450361, 62.03204812499521381, 0.000000000000000000 ) ) ;
#509 = ORIENTED_EDGE ( 'NONE', *, *, #793, .F. ) ;
#510 = DIRECTION ( 'NONE',  ( -0.000000000000000000, 1.000000000000000000, -0.000000000000000000 ) ) ;
#511 = ORIENTED_EDGE ( 'NONE', *, *, #274, .T. ) ;
#512 = EDGE_CURVE ( 'NONE', #628, #889, #413, .T. ) ;
#513 = EDGE_LOOP ( 'NONE', ( #220, #509, #533, #598 ) ) ;
#514 = LINE ( 'NONE', #86, #97 ) ;
#515 = LINE ( 'NONE', #578, #113 ) ;
#516 = DIRECTION ( 'NONE',  ( -0.000000000000000000, 1.000000000000000000, -0.000000000000000000 ) ) ;
#517 = CARTESIAN_POINT ( 'NONE',  ( -391.4725140405450361, 54.03204812499521381, -2.000000000000000000 ) ) ;
#518 = DIRECTION ( 'NONE',  ( 0.000000000000000000, 1.000000000000000000, 0.000000000000000000 ) ) ;
#519 = CARTESIAN_POINT ( 'NONE',  ( -412.9725140405450929, 27.03204812499521381, -11.75000000000000711 ) ) ;
#520 = EDGE_CURVE ( 'NONE', #726, #96, #571, .T. ) ;
#521 = AXIS2_PLACEMENT_3D ( 'NONE', #661, #344, #958 ) ;
#522 = CARTESIAN_POINT ( 'NONE',  ( -382.4725140405450361, 30.03204812499521381, -1.999999999999999112 ) ) ;
#523 = ORIENTED_EDGE ( 'NONE', *, *, #953, .F. ) ;
#524 = ORIENTED_EDGE ( 'NONE', *, *, #418, .T. ) ;
#525 = ADVANCED_BREP_SHAPE_REPRESENTATION ( '21631_03_020_sheetmetal_Vacuum Adapter Plate 3K_1', ( #497, #488 ), #610 ) ;
#526 = CARTESIAN_POINT ( 'NONE',  ( -414.4725140405450929, 27.03204812499521026, -12.00000000000000711 ) ) ;
#527 = CARTESIAN_POINT ( 'NONE',  ( -395.9725140405450929, 12.80179865423754926, -11.75000000000000711 ) ) ;
#528 = ORIENTED_EDGE ( 'NONE', *, *, #691, .F. ) ;
#529 = VECTOR ( 'NONE', #852, 1000.000000000000000 ) ;
#530 =( NAMED_UNIT ( * ) SI_UNIT ( $, .STERADIAN. ) SOLID_ANGLE_UNIT ( ) );
#531 = DIRECTION ( 'NONE',  ( -0.000000000000000000, -1.000000000000000000, -0.000000000000000000 ) ) ;
#532 = DIRECTION ( 'NONE',  ( 1.000000000000000000, 0.000000000000000000, 0.000000000000000000 ) ) ;
#533 = ORIENTED_EDGE ( 'NONE', *, *, #820, .F. ) ;
#534 = CARTESIAN_POINT ( 'NONE',  ( -417.4725140405450929, 29.03204812499521381, -12.00000000000000711 ) ) ;
#535 = ORIENTED_EDGE ( 'NONE', *, *, #167, .F. ) ;
#536 = ADVANCED_FACE ( 'NONE', ( #630 ), #159, .F. ) ;
#537 = CARTESIAN_POINT ( 'NONE',  ( -391.4725140405450361, 54.03204812499521381, -2.000000000000000000 ) ) ;
#538 = CIRCLE ( 'NONE', #687, 8.500000000000007105 ) ;
#539 = DIRECTION ( 'NONE',  ( 0.000000000000000000, 0.000000000000000000, 1.000000000000000000 ) ) ;
#540 = EDGE_CURVE ( 'NONE', #889, #72, #656, .T. ) ;
#541 = CARTESIAN_POINT ( 'NONE',  ( -386.9725140405450361, 12.80179865423754926, -11.75000000000000711 ) ) ;
#542 = ADVANCED_FACE ( 'NONE', ( #260 ), #594, .T. ) ;
#543 = ORIENTED_EDGE ( 'NONE', *, *, #12, .T. ) ;
#544 = CARTESIAN_POINT ( 'NONE',  ( -386.9725140405450361, 27.03204812499521381, -9.500000000000007105 ) ) ;
#545 = EDGE_CURVE ( 'NONE', #728, #756, #90, .T. ) ;
#546 = VERTEX_POINT ( 'NONE', #60 ) ;
#547 = ORIENTED_EDGE ( 'NONE', *, *, #733, .F. ) ;
#548 = LINE ( 'NONE', #712, #136 ) ;
#549 = ADVANCED_FACE ( 'NONE', ( #80 ), #671, .T. ) ;
#550 = EDGE_CURVE ( 'NONE', #391, #38, #863, .T. ) ;
#551 = VECTOR ( 'NONE', #828, 1000.000000000000000 ) ;
#552 = VERTEX_POINT ( 'NONE', #946 ) ;
#553 = EDGE_LOOP ( 'NONE', ( #854, #936, #5, #98 ) ) ;
#554 = CARTESIAN_POINT ( 'NONE',  ( -382.4725140405450361, 62.03204812499521381, -2.000000000000000000 ) ) ;
#555 = CARTESIAN_POINT ( 'NONE',  ( -412.9725140405450929, 12.80179865423754926, -7.250000000000006217 ) ) ;
#556 = VERTEX_POINT ( 'NONE', #669 ) ;
#557 = ADVANCED_FACE ( 'NONE', ( #729 ), #783, .F. ) ;
#558 = ORIENTED_EDGE ( 'NONE', *, *, #858, .F. ) ;
#559 = DIRECTION ( 'NONE',  ( -1.000000000000000000, 0.000000000000000000, 0.000000000000000000 ) ) ;
#560 = CARTESIAN_POINT ( 'NONE',  ( -403.9725140405450929, 29.03204812499521381, -11.75000000000000711 ) ) ;
#561 = LINE ( 'NONE', #648, #246 ) ;
#562 = LINE ( 'NONE', #360, #56 ) ;
#563 = CARTESIAN_POINT ( 'NONE',  ( -382.4725140405450361, 103.0320481249952707, -2.000000000000001776 ) ) ;
#564 = ORIENTED_EDGE ( 'NONE', *, *, #279, .T. ) ;
#565 = STYLED_ITEM ( 'NONE', ( #214 ), #497 ) ;
#566 = VERTEX_POINT ( 'NONE', #954 ) ;
#567 = ORIENTED_EDGE ( 'NONE', *, *, #540, .T. ) ;
#568 = AXIS2_PLACEMENT_3D ( 'NONE', #751, #665, #532 ) ;
#569 = DIRECTION ( 'NONE',  ( 0.000000000000000000, 0.000000000000000000, 1.000000000000000000 ) ) ;
#570 = ORIENTED_EDGE ( 'NONE', *, *, #273, .F. ) ;
#571 = LINE ( 'NONE', #92, #788 ) ;
#572 = LINE ( 'NONE', #177, #789 ) ;
#573 = CARTESIAN_POINT ( 'NONE',  ( -417.4725140405450929, 103.0320481249952707, -2.999999999999999112 ) ) ;
#574 = ORIENTED_EDGE ( 'NONE', *, *, #666, .T. ) ;
#575 = EDGE_CURVE ( 'NONE', #340, #22, #707, .T. ) ;
#576 = AXIS2_PLACEMENT_3D ( 'NONE', #143, #659, #888 ) ;
#577 = CARTESIAN_POINT ( 'NONE',  ( -387.4725140405450361, 62.03204812499521381, -2.000000000000000000 ) ) ;
#578 = CARTESIAN_POINT ( 'NONE',  ( -408.4725140405450929, 45.03204812499521381, -2.000000000000000000 ) ) ;
#579 = DIRECTION ( 'NONE',  ( 0.000000000000000000, 0.000000000000000000, 1.000000000000000000 ) ) ;
#580 = DIRECTION ( 'NONE',  ( 0.000000000000000000, -0.000000000000000000, 1.000000000000000000 ) ) ;
#581 = CARTESIAN_POINT ( 'NONE',  ( -412.9725140405450929, 29.03204812499521381, -7.250000000000006217 ) ) ;
#582 = ORIENTED_EDGE ( 'NONE', *, *, #759, .F. ) ;
#583 = AXIS2_PLACEMENT_3D ( 'NONE', #206, #282, #887 ) ;
#584 = ORIENTED_EDGE ( 'NONE', *, *, #780, .T. ) ;
#585 = DIRECTION ( 'NONE',  ( -0.000000000000000000, 0.000000000000000000, -1.000000000000000000 ) ) ;
#586 = CYLINDRICAL_SURFACE ( 'NONE', #711, 2.250000000000000444 ) ;
#587 = VECTOR ( 'NONE', #925, 1000.000000000000000 ) ;
#588 = CARTESIAN_POINT ( 'NONE',  ( -412.4725140405450929, 62.03204812499521381, -2.000000000000000000 ) ) ;
#589 = EDGE_CURVE ( 'NONE', #591, #655, #235, .T. ) ;
#590 = DIRECTION ( 'NONE',  ( -1.000000000000000000, -0.000000000000000000, 0.000000000000000000 ) ) ;
#591 = VERTEX_POINT ( 'NONE', #415 ) ;
#592 = DIRECTION ( 'NONE',  ( 0.000000000000000000, 0.000000000000000000, 1.000000000000000000 ) ) ;
#593 = ORIENTED_EDGE ( 'NONE', *, *, #437, .T. ) ;
#594 = CYLINDRICAL_SURFACE ( 'NONE', #3, 5.000000000000004441 ) ;
#595 = CARTESIAN_POINT ( 'NONE',  ( -385.4725140405450361, 29.03204812499521381, -15.00000000000000711 ) ) ;
#596 = VECTOR ( 'NONE', #619, 1000.000000000000000 ) ;
#597 = DIRECTION ( 'NONE',  ( 2.467162276944791751E-14, 0.000000000000000000, 1.000000000000000000 ) ) ;
#598 = ORIENTED_EDGE ( 'NONE', *, *, #381, .T. ) ;
#599 =( LENGTH_UNIT ( ) NAMED_UNIT ( * ) SI_UNIT ( .MILLI., .METRE. ) );
#600 = CYLINDRICAL_SURFACE ( 'NONE', #639, 2.250000000000000444 ) ;
#601 = ORIENTED_EDGE ( 'NONE', *, *, #589, .F. ) ;
#602 = VECTOR ( 'NONE', #510, 1000.000000000000000 ) ;
#603 = ADVANCED_FACE ( 'NONE', ( #333 ), #479, .T. ) ;
#604 = EDGE_LOOP ( 'NONE', ( #94, #856, #582, #131 ) ) ;
#605 = DIRECTION ( 'NONE',  ( -1.000000000000000000, 0.000000000000000000, 0.000000000000000000 ) ) ;
#606 = CARTESIAN_POINT ( 'NONE',  ( -408.4725140405450929, 54.03204812499521381, 0.000000000000000000 ) ) ;
#607 = AXIS2_PLACEMENT_3D ( 'NONE', #817, #700, #627 ) ;
#608 = EDGE_LOOP ( 'NONE', ( #200, #30, #584, #439 ) ) ;
#609 = CYLINDRICAL_SURFACE ( 'NONE', #316, 2.250000000000000444 ) ;
#610 =( GEOMETRIC_REPRESENTATION_CONTEXT ( 3 ) GLOBAL_UNCERTAINTY_ASSIGNED_CONTEXT ( ( #915 ) ) GLOBAL_UNIT_ASSIGNED_CONTEXT ( ( #599, #382, #376 ) ) REPRESENTATION_CONTEXT ( 'NONE', 'WORKASPACE' ) );
#611 = LINE ( 'NONE', #501, #884 ) ;
#612 = VECTOR ( 'NONE', #698, 1000.000000000000000 ) ;
#613 = DIRECTION ( 'NONE',  ( 0.000000000000000000, 0.000000000000000000, 1.000000000000000000 ) ) ;
#614 = ORIENTED_EDGE ( 'NONE', *, *, #632, .F. ) ;
#615 = ORIENTED_EDGE ( 'NONE', *, *, #167, .T. ) ;
#616 = EDGE_CURVE ( 'NONE', #156, #431, #562, .T. ) ;
#617 = ADVANCED_FACE ( 'NONE', ( #809 ), #868, .F. ) ;
#618 = EDGE_LOOP ( 'NONE', ( #558, #748, #847, #374, #929, #266 ) ) ;
#619 = DIRECTION ( 'NONE',  ( 0.000000000000000000, 0.000000000000000000, 1.000000000000000000 ) ) ;
#620 = FACE_OUTER_BOUND ( 'NONE', #737, .T. ) ;
#621 = AXIS2_PLACEMENT_3D ( 'NONE', #878, #872, #422 ) ;
#622 = FACE_OUTER_BOUND ( 'NONE', #920, .T. ) ;
#623 = CARTESIAN_POINT ( 'NONE',  ( -395.9725140405450361, 29.03204812499521381, -7.250000000000006217 ) ) ;
#624 = ORIENTED_EDGE ( 'NONE', *, *, #233, .F. ) ;
#625 = EDGE_CURVE ( 'NONE', #155, #655, #611, .T. ) ;
#626 = EDGE_CURVE ( 'NONE', #494, #772, #194, .T. ) ;
#627 = DIRECTION ( 'NONE',  ( 1.000000000000000000, 0.000000000000000000, 0.000000000000000000 ) ) ;
#628 = VERTEX_POINT ( 'NONE', #708 ) ;
#629 = LINE ( 'NONE', #730, #938 ) ;
#630 = FACE_OUTER_BOUND ( 'NONE', #608, .T. ) ;
#631 = CYLINDRICAL_SURFACE ( 'NONE', #251, 3.000000000000001776 ) ;
#632 = EDGE_CURVE ( 'NONE', #566, #934, #538, .T. ) ;
#633 = CARTESIAN_POINT ( 'NONE',  ( -399.9725140405450929, 54.03204812499521381, 0.000000000000000000 ) ) ;
#634 = AXIS2_PLACEMENT_3D ( 'NONE', #423, #216, #354 ) ;
#635 = DIRECTION ( 'NONE',  ( 0.000000000000000000, 1.000000000000000000, 0.000000000000000000 ) ) ;
#636 = CARTESIAN_POINT ( 'NONE',  ( -417.4725140405450929, 103.0320481249952707, -2.000000000000001776 ) ) ;
#637 = ORIENTED_EDGE ( 'NONE', *, *, #50, .T. ) ;
#638 = DIRECTION ( 'NONE',  ( 0.000000000000000000, 1.000000000000000000, -0.000000000000000000 ) ) ;
#639 = AXIS2_PLACEMENT_3D ( 'NONE', #81, #441, #341 ) ;
#640 = DIRECTION ( 'NONE',  ( 1.000000000000000000, 0.000000000000000000, -0.000000000000000000 ) ) ;
#641 = DIRECTION ( 'NONE',  ( 1.000000000000000000, -0.000000000000000000, 0.000000000000000000 ) ) ;
#642 = ORIENTED_EDGE ( 'NONE', *, *, #545, .F. ) ;
#643 = DIRECTION ( 'NONE',  ( 0.000000000000000000, 0.000000000000000000, 1.000000000000000000 ) ) ;
#644 = VECTOR ( 'NONE', #208, 1000.000000000000000 ) ;
#645 = PLANE ( 'NONE',  #158 ) ;
#646 = FACE_BOUND ( 'NONE', #1, .T. ) ;
#647 = DIRECTION ( 'NONE',  ( -0.000000000000000000, -0.000000000000000000, 1.000000000000000000 ) ) ;
#648 = CARTESIAN_POINT ( 'NONE',  ( -417.4725140405450929, 27.03204812499521381, -2.000000000000000000 ) ) ;
#649 = CARTESIAN_POINT ( 'NONE',  ( -417.4725140405450929, 30.03204812499521381, -3.000000000000000888 ) ) ;
#650 = DIRECTION ( 'NONE',  ( 1.000000000000000000, 0.000000000000000000, -0.000000000000000000 ) ) ;
#651 = CARTESIAN_POINT ( 'NONE',  ( -382.4725140405450361, 29.03204812499521381, -12.00000000000000711 ) ) ;
#652 = AXIS2_PLACEMENT_3D ( 'NONE', #397, #401, #767 ) ;
#653 = EDGE_LOOP ( 'NONE', ( #614, #305, #624, #18 ) ) ;
#654 = DIRECTION ( 'NONE',  ( -1.000000000000000000, 0.000000000000000000, -0.000000000000000000 ) ) ;
#655 = VERTEX_POINT ( 'NONE', #189 ) ;
#656 = CIRCLE ( 'NONE', #806, 8.500000000000007105 ) ;
#657 = FACE_OUTER_BOUND ( 'NONE', #375, .T. ) ;
#658 = DIRECTION ( 'NONE',  ( 0.000000000000000000, 0.000000000000000000, 1.000000000000000000 ) ) ;
#659 = DIRECTION ( 'NONE',  ( 0.000000000000000000, 0.000000000000000000, -1.000000000000000000 ) ) ;
#660 = EDGE_CURVE ( 'NONE', #294, #841, #364, .T. ) ;
#661 = CARTESIAN_POINT ( 'NONE',  ( -412.9725140405450929, 12.80179865423754926, -9.500000000000007105 ) ) ;
#662 = DIRECTION ( 'NONE',  ( -0.000000000000000000, 0.000000000000000000, -1.000000000000000000 ) ) ;
#663 = VERTEX_POINT ( 'NONE', #870 ) ;
#664 = PLANE ( 'NONE',  #188 ) ;
#665 = DIRECTION ( 'NONE',  ( -0.000000000000000000, 0.000000000000000000, 1.000000000000000000 ) ) ;
#666 = EDGE_CURVE ( 'NONE', #556, #294, #351, .T. ) ;
#667 = VERTEX_POINT ( 'NONE', #409 ) ;
#668 = AXIS2_PLACEMENT_3D ( 'NONE', #337, #502, #435 ) ;
#669 = CARTESIAN_POINT ( 'NONE',  ( -382.4725140405450361, 27.03204812499521381, -12.00000000000000711 ) ) ;
#670 = CIRCLE ( 'NONE', #25, 2.250000000000000444 ) ;
#671 = CYLINDRICAL_SURFACE ( 'NONE', #328, 5.000000000000004441 ) ;
#672 = DIRECTION ( 'NONE',  ( 0.000000000000000000, 0.000000000000000000, 1.000000000000000000 ) ) ;
#673 = COLOUR_RGB ( '',0.6470588235294117974, 0.6196078431372549211, 0.5882352941176470784 ) ;
#674 = CARTESIAN_POINT ( 'NONE',  ( -403.9725140405450929, 27.03204812499521381, -9.500000000000007105 ) ) ;
#675 = CARTESIAN_POINT ( 'NONE',  ( -417.4725140405450929, 62.03204812499521381, -2.000000000000000000 ) ) ;
#676 = EDGE_LOOP ( 'NONE', ( #425, #893, #430, #511 ) ) ;
#677 = EDGE_CURVE ( 'NONE', #772, #756, #548, .T. ) ;
#678 = AXIS2_PLACEMENT_3D ( 'NONE', #421, #933, #336 ) ;
#679 = ORIENTED_EDGE ( 'NONE', *, *, #732, .T. ) ;
#680 = CARTESIAN_POINT ( 'NONE',  ( -408.4725140405450929, 54.03204812499521381, 0.000000000000000000 ) ) ;
#681 = CARTESIAN_POINT ( 'NONE',  ( -412.9725140405450929, 29.03204812499521381, -9.500000000000007105 ) ) ;
#682 = LINE ( 'NONE', #803, #644 ) ;
#683 = FACE_OUTER_BOUND ( 'NONE', #109, .T. ) ;
#684 = ORIENTED_EDGE ( 'NONE', *, *, #660, .T. ) ;
#685 = CARTESIAN_POINT ( 'NONE',  ( -319.6414255217799791, 30.03204812499521381, -3.000000000000000888 ) ) ;
#686 = EDGE_CURVE ( 'NONE', #429, #546, #910, .T. ) ;
#687 = AXIS2_PLACEMENT_3D ( 'NONE', #331, #330, #790 ) ;
#688 = ORIENTED_EDGE ( 'NONE', *, *, #59, .T. ) ;
#689 = ORIENTED_EDGE ( 'NONE', *, *, #625, .T. ) ;
#690 = ORIENTED_EDGE ( 'NONE', *, *, #299, .T. ) ;
#691 = EDGE_CURVE ( 'NONE', #21, #628, #515, .T. ) ;
#692 = VECTOR ( 'NONE', #715, 1000.000000000000000 ) ;
#693 = ADVANCED_FACE ( 'NONE', ( #763, #150, #683 ), #949, .T. ) ;
#694 = ORIENTED_EDGE ( 'NONE', *, *, #437, .F. ) ;
#695 = VECTOR ( 'NONE', #844, 1000.000000000000000 ) ;
#696 = SURFACE_STYLE_USAGE ( .BOTH. , #175 ) ;
#697 = DIRECTION ( 'NONE',  ( 1.000000000000000000, 0.000000000000000000, 0.000000000000000000 ) ) ;
#698 = DIRECTION ( 'NONE',  ( -1.000000000000000000, 0.000000000000000000, -0.000000000000000000 ) ) ;
#699 = EDGE_CURVE ( 'NONE', #745, #379, #278, .T. ) ;
#700 = DIRECTION ( 'NONE',  ( -0.000000000000000000, -0.000000000000000000, 1.000000000000000000 ) ) ;
#701 = CARTESIAN_POINT ( 'NONE',  ( -382.4725140405450361, 29.03204812499521381, -2.999999999999996447 ) ) ;
#702 = ORIENTED_EDGE ( 'NONE', *, *, #299, .F. ) ;
#703 = ORIENTED_EDGE ( 'NONE', *, *, #245, .F. ) ;
#704 = DIRECTION ( 'NONE',  ( 0.000000000000000000, -0.000000000000000000, 1.000000000000000000 ) ) ;
#705 = FACE_OUTER_BOUND ( 'NONE', #553, .T. ) ;
#706 = AXIS2_PLACEMENT_3D ( 'NONE', #563, #45, #853 ) ;
#707 = CIRCLE ( 'NONE', #443, 2.250000000000000444 ) ;
#708 = CARTESIAN_POINT ( 'NONE',  ( -408.4725140405450929, 45.03204812499521381, 0.000000000000000000 ) ) ;
#709 = VERTEX_POINT ( 'NONE', #424 ) ;
#710 = EDGE_CURVE ( 'NONE', #85, #9, #394, .T. ) ;
#711 = AXIS2_PLACEMENT_3D ( 'NONE', #901, #458, #462 ) ;
#712 = CARTESIAN_POINT ( 'NONE',  ( -382.4725140405450361, 30.03204812499521381, -103.8626526259748033 ) ) ;
#713 = ORIENTED_EDGE ( 'NONE', *, *, #660, .F. ) ;
#714 = ORIENTED_EDGE ( 'NONE', *, *, #718, .F. ) ;
#715 = DIRECTION ( 'NONE',  ( 1.000000000000000000, 0.000000000000000000, 0.000000000000000000 ) ) ;
#716 = ORIENTED_EDGE ( 'NONE', *, *, #187, .T. ) ;
#717 = LINE ( 'NONE', #475, #695 ) ;
#718 = EDGE_CURVE ( 'NONE', #841, #775, #308, .T. ) ;
#719 = DIRECTION ( 'NONE',  ( 0.000000000000000000, -0.000000000000000000, 1.000000000000000000 ) ) ;
#720 = EDGE_LOOP ( 'NONE', ( #387, #766, #777, #689 ) ) ;
#721 = CARTESIAN_POINT ( 'NONE',  ( -395.9725140405450929, 29.03204812499521381, -9.500000000000007105 ) ) ;
#722 = CIRCLE ( 'NONE', #369, 5.000000000000004441 ) ;
#723 = ORIENTED_EDGE ( 'NONE', *, *, #195, .T. ) ;
#724 = CARTESIAN_POINT ( 'NONE',  ( -412.9725140405450929, 12.80179865423754926, -7.250000000000006217 ) ) ;
#725 = AXIS2_PLACEMENT_3D ( 'NONE', #918, #909, #613 ) ;
#726 = VERTEX_POINT ( 'NONE', #202 ) ;
#727 = CIRCLE ( 'NONE', #79, 5.000000000000004441 ) ;
#728 = VERTEX_POINT ( 'NONE', #931 ) ;
#729 = FACE_OUTER_BOUND ( 'NONE', #947, .T. ) ;
#730 = CARTESIAN_POINT ( 'NONE',  ( -386.9725140405450361, 12.80179865423754926, -7.250000000000006217 ) ) ;
#731 = DIRECTION ( 'NONE',  ( 0.000000000000000000, 0.000000000000000000, 1.000000000000000000 ) ) ;
#732 = EDGE_CURVE ( 'NONE', #49, #628, #916, .T. ) ;
#733 = EDGE_CURVE ( 'NONE', #379, #10, #100, .T. ) ;
#734 = PLANE ( 'NONE',  #621 ) ;
#735 = CARTESIAN_POINT ( 'NONE',  ( -382.4725140405450361, 30.03204812499521381, -3.000000000000000888 ) ) ;
#736 = AXIS2_PLACEMENT_3D ( 'NONE', #7, #283, #361 ) ;
#737 = EDGE_LOOP ( 'NONE', ( #917, #27, #219, #223 ) ) ;
#738 = ORIENTED_EDGE ( 'NONE', *, *, #718, .T. ) ;
#739 = PLANE ( 'NONE',  #930 ) ;
#740 = CARTESIAN_POINT ( 'NONE',  ( -391.4725140405450361, 54.03204812499521381, -2.000000000000000000 ) ) ;
#741 = CIRCLE ( 'NONE', #469, 1.000000000000001776 ) ;
#742 = LINE ( 'NONE', #139, #110 ) ;
#743 = CARTESIAN_POINT ( 'NONE',  ( -412.4725140405450929, 62.03204812499521381, 0.000000000000000000 ) ) ;
#744 = EDGE_CURVE ( 'NONE', #552, #152, #269, .T. ) ;
#745 = VERTEX_POINT ( 'NONE', #58 ) ;
#746 = EDGE_LOOP ( 'NONE', ( #184, #535, #176, #703 ) ) ;
#747 = PRODUCT_CONTEXT ( 'NONE', #895, 'mechanical' ) ;
#748 = ORIENTED_EDGE ( 'NONE', *, *, #759, .T. ) ;
#749 = DIRECTION ( 'NONE',  ( 1.000000000000000000, 0.000000000000000000, -0.000000000000000000 ) ) ;
#750 = ORIENTED_EDGE ( 'NONE', *, *, #129, .F. ) ;
#751 = CARTESIAN_POINT ( 'NONE',  ( -395.9725140405450929, 12.80179865423754926, -7.250000000000006217 ) ) ;
#752 = VECTOR ( 'NONE', #39, 1000.000000000000000 ) ;
#753 = ADVANCED_FACE ( 'NONE', ( #705 ), #600, .F. ) ;
#754 = ORIENTED_EDGE ( 'NONE', *, *, #589, .T. ) ;
#755 = PRESENTATION_LAYER_ASSIGNMENT (  '', '', ( #565 ) ) ;
#756 = VERTEX_POINT ( 'NONE', #877 ) ;
#757 = CARTESIAN_POINT ( 'NONE',  ( -414.4725140405450929, 29.03204812499521381, -15.00000000000000711 ) ) ;
#758 = FACE_OUTER_BOUND ( 'NONE', #460, .T. ) ;
#759 = EDGE_CURVE ( 'NONE', #234, #52, #561, .T. ) ;
#760 = ORIENTED_EDGE ( 'NONE', *, *, #744, .F. ) ;
#761 = PRESENTATION_STYLE_ASSIGNMENT (( #452 ) ) ;
#762 = ORIENTED_EDGE ( 'NONE', *, *, #350, .T. ) ;
#763 = FACE_BOUND ( 'NONE', #427, .T. ) ;
#764 = VECTOR ( 'NONE', #482, 1000.000000000000000 ) ;
#765 = DIRECTION ( 'NONE',  ( -0.000000000000000000, 1.000000000000000000, -0.000000000000000000 ) ) ;
#766 = ORIENTED_EDGE ( 'NONE', *, *, #359, .F. ) ;
#767 = DIRECTION ( 'NONE',  ( 0.000000000000000000, 0.000000000000000000, 1.000000000000000000 ) ) ;
#768 = ADVANCED_FACE ( 'NONE', ( #276, #411, #258 ), #739, .F. ) ;
#769 = EDGE_CURVE ( 'NONE', #728, #465, #363, .T. ) ;
#770 = DIRECTION ( 'NONE',  ( -0.000000000000000000, 0.000000000000000000, 1.000000000000000000 ) ) ;
#771 = AXIS2_PLACEMENT_3D ( 'NONE', #8, #210, #358 ) ;
#772 = VERTEX_POINT ( 'NONE', #522 ) ;
#773 =( LENGTH_UNIT ( ) NAMED_UNIT ( * ) SI_UNIT ( .MILLI., .METRE. ) );
#774 = ADVANCED_FACE ( 'NONE', ( #296 ), #74, .T. ) ;
#775 = VERTEX_POINT ( 'NONE', #445 ) ;
#776 = DIRECTION ( 'NONE',  ( -1.000000000000000000, 0.000000000000000000, 0.000000000000000000 ) ) ;
#777 = ORIENTED_EDGE ( 'NONE', *, *, #75, .F. ) ;
#778 = CIRCLE ( 'NONE', #576, 8.500000000000007105 ) ;
#779 = UNCERTAINTY_MEASURE_WITH_UNIT (LENGTH_MEASURE( 1.000000000000000082E-05 ), #20, 'distance_accuracy_value', 'NONE');
#780 = EDGE_CURVE ( 'NONE', #431, #667, #682, .T. ) ;
#781 = VERTEX_POINT ( 'NONE', #145 ) ;
#782 = CARTESIAN_POINT ( 'NONE',  ( -417.4725140405450929, 27.03204812499521026, -12.00000000000000711 ) ) ;
#783 = PLANE ( 'NONE',  #99 ) ;
#784 = ORIENTED_EDGE ( 'NONE', *, *, #357, .F. ) ;
#785 = LINE ( 'NONE', #77, #23 ) ;
#786 = DIRECTION ( 'NONE',  ( -1.000000000000000000, 0.000000000000000000, -0.000000000000000000 ) ) ;
#787 = AXIS2_PLACEMENT_3D ( 'NONE', #875, #635, #569 ) ;
#788 = VECTOR ( 'NONE', #464, 1000.000000000000000 ) ;
#789 = VECTOR ( 'NONE', #559, 1000.000000000000000 ) ;
#790 = DIRECTION ( 'NONE',  ( 1.000000000000000000, 0.000000000000000000, 0.000000000000000000 ) ) ;
#791 = CARTESIAN_POINT ( 'NONE',  ( -382.4725140405450361, 27.03204812499521381, -2.000000000000000000 ) ) ;
#792 = ORIENTED_EDGE ( 'NONE', *, *, #273, .T. ) ;
#793 = EDGE_CURVE ( 'NONE', #403, #591, #785, .T. ) ;
#794 = ORIENTED_EDGE ( 'NONE', *, *, #686, .F. ) ;
#795 = PLANE ( 'NONE',  #217 ) ;
#796 = ORIENTED_EDGE ( 'NONE', *, *, #396, .T. ) ;
#797 = VERTEX_POINT ( 'NONE', #204 ) ;
#798 = EDGE_CURVE ( 'NONE', #429, #772, #741, .T. ) ;
#799 = VECTOR ( 'NONE', #749, 1000.000000000000000 ) ;
#800 = FACE_OUTER_BOUND ( 'NONE', #457, .T. ) ;
#801 = CARTESIAN_POINT ( 'NONE',  ( -417.4725140405450929, 30.03204812499521381, -3.000000000000000888 ) ) ;
#802 = ORIENTED_EDGE ( 'NONE', *, *, #733, .T. ) ;
#803 = CARTESIAN_POINT ( 'NONE',  ( -412.9725140405450929, 29.03204812499521381, -11.75000000000000711 ) ) ;
#804 = EDGE_LOOP ( 'NONE', ( #754, #408, #399, #356 ) ) ;
#805 = DIRECTION ( 'NONE',  ( -0.000000000000000000, 1.000000000000000000, -0.000000000000000000 ) ) ;
#806 = AXIS2_PLACEMENT_3D ( 'NONE', #633, #327, #343 ) ;
#807 = CARTESIAN_POINT ( 'NONE',  ( -395.9725140405450929, 27.03204812499521381, -7.250000000000006217 ) ) ;
#808 = CYLINDRICAL_SURFACE ( 'NONE', #521, 2.250000000000000444 ) ;
#809 = FACE_OUTER_BOUND ( 'NONE', #604, .T. ) ;
#810 = DIRECTION ( 'NONE',  ( 0.000000000000000000, 1.000000000000000000, 0.000000000000000000 ) ) ;
#811 = EDGE_CURVE ( 'NONE', #775, #556, #348, .T. ) ;
#812 = DIRECTION ( 'NONE',  ( -1.000000000000000000, 0.000000000000000000, -0.000000000000000000 ) ) ;
#813 = LINE ( 'NONE', #913, #270 ) ;
#814 = CARTESIAN_POINT ( 'NONE',  ( -386.9725140405450361, 29.03204812499521381, -7.250000000000006217 ) ) ;
#815 = EDGE_LOOP ( 'NONE', ( #420, #402, #690, #190 ) ) ;
#816 = CARTESIAN_POINT ( 'NONE',  ( -382.4725140405450361, 30.03204812499521381, -2.000000000000001776 ) ) ;
#817 = CARTESIAN_POINT ( 'NONE',  ( -399.9725140405450929, 45.03204812499521381, -2.000000000000000000 ) ) ;
#818 = ORIENTED_EDGE ( 'NONE', *, *, #545, .T. ) ;
#819 = DIRECTION ( 'NONE',  ( -0.000000000000000000, -1.000000000000000000, -0.000000000000000000 ) ) ;
#820 = EDGE_CURVE ( 'NONE', #52, #403, #860, .T. ) ;
#821 = APPLICATION_CONTEXT ( 'automotive_design' ) ;
#822 = SHAPE_DEFINITION_REPRESENTATION ( #137, #525 ) ;
#823 = CIRCLE ( 'NONE', #114, 2.250000000000000444 ) ;
#824 = VECTOR ( 'NONE', #857, 1000.000000000000000 ) ;
#825 = DIRECTION ( 'NONE',  ( -0.000000000000000000, 0.000000000000000000, -1.000000000000000000 ) ) ;
#826 = EDGE_CURVE ( 'NONE', #726, #10, #629, .T. ) ;
#827 = DIRECTION ( 'NONE',  ( 0.000000000000000000, 0.000000000000000000, 1.000000000000000000 ) ) ;
#828 = DIRECTION ( 'NONE',  ( 0.000000000000000000, 0.000000000000000000, 1.000000000000000000 ) ) ;
#829 = CARTESIAN_POINT ( 'NONE',  ( -403.9725140405450929, 29.03204812499521381, -9.500000000000007105 ) ) ;
#830 = ORIENTED_EDGE ( 'NONE', *, *, #168, .T. ) ;
#831 = AXIS2_PLACEMENT_3D ( 'NONE', #198, #412, #493 ) ;
#832 = DIRECTION ( 'NONE',  ( 0.000000000000000000, 1.000000000000000000, -0.000000000000000000 ) ) ;
#833 = VECTOR ( 'NONE', #157, 1000.000000000000000 ) ;
#834 = VECTOR ( 'NONE', #201, 1000.000000000000000 ) ;
#835 = CARTESIAN_POINT ( 'NONE',  ( -391.4725140405450361, 54.03204812499521381, -2.000000000000000000 ) ) ;
#836 = VECTOR ( 'NONE', #353, 1000.000000000000000 ) ;
#837 = CARTESIAN_POINT ( 'NONE',  ( -408.4725140405450929, 54.03204812499521381, -2.000000000000000000 ) ) ;
#838 = ADVANCED_FACE ( 'NONE', ( #162 ), #271, .T. ) ;
#839 =( GEOMETRIC_REPRESENTATION_CONTEXT ( 3 ) GLOBAL_UNCERTAINTY_ASSIGNED_CONTEXT ( ( #267 ) ) GLOBAL_UNIT_ASSIGNED_CONTEXT ( ( #773, #307, #232 ) ) REPRESENTATION_CONTEXT ( 'NONE', 'WORKASPACE' ) );
#840 = DIRECTION ( 'NONE',  ( 0.000000000000000000, 0.000000000000000000, 1.000000000000000000 ) ) ;
#841 = VERTEX_POINT ( 'NONE', #595 ) ;
#842 = VECTOR ( 'NONE', #605, 1000.000000000000000 ) ;
#843 = CARTESIAN_POINT ( 'NONE',  ( -386.9725140405450361, 29.03204812499521381, -11.75000000000000711 ) ) ;
#844 = DIRECTION ( 'NONE',  ( -0.000000000000000000, 1.000000000000000000, -0.000000000000000000 ) ) ;
#845 = EDGE_CURVE ( 'NONE', #655, #709, #727, .T. ) ;
#846 = PRODUCT_RELATED_PRODUCT_CATEGORY ( 'part', '', ( #317 ) ) ;
#847 = ORIENTED_EDGE ( 'NONE', *, *, #820, .T. ) ;
#848 = CARTESIAN_POINT ( 'NONE',  ( -391.4725140405450361, 45.03204812499521381, -2.000000000000000000 ) ) ;
#849 = ADVANCED_FACE ( 'NONE', ( #620 ), #808, .F. ) ;
#850 = CIRCLE ( 'NONE', #668, 2.250000000000000444 ) ;
#851 = CARTESIAN_POINT ( 'NONE',  ( -382.4725140405450361, 29.03204812499521381, -2.000000000000005329 ) ) ;
#852 = DIRECTION ( 'NONE',  ( 0.000000000000000000, -1.000000000000000000, 0.000000000000000000 ) ) ;
#853 = DIRECTION ( 'NONE',  ( 0.000000000000000000, 1.000000000000000000, -6.123233995736766036E-17 ) ) ;
#854 = ORIENTED_EDGE ( 'NONE', *, *, #209, .T. ) ;
#855 = DIRECTION ( 'NONE',  ( 0.000000000000000000, 0.000000000000000000, 1.000000000000000000 ) ) ;
#856 = ORIENTED_EDGE ( 'NONE', *, *, #381, .F. ) ;
#857 = DIRECTION ( 'NONE',  ( 0.000000000000000000, -0.000000000000000000, 1.000000000000000000 ) ) ;
#858 = EDGE_CURVE ( 'NONE', #234, #772, #393, .T. ) ;
#859 = AXIS2_PLACEMENT_3D ( 'NONE', #907, #55, #786 ) ;
#860 = CIRCLE ( 'NONE', #898, 5.000000000000004441 ) ;
#861 = DIRECTION ( 'NONE',  ( 0.000000000000000000, -1.000000000000000000, 0.000000000000000000 ) ) ;
#862 = CARTESIAN_POINT ( 'NONE',  ( -387.4725140405450361, 67.03204812499521381, -103.8626526259748033 ) ) ;
#863 = LINE ( 'NONE', #62, #834 ) ;
#864 = ORIENTED_EDGE ( 'NONE', *, *, #261, .T. ) ;
#865 = LINE ( 'NONE', #311, #612 ) ;
#866 = DIRECTION ( 'NONE',  ( -5.551115123125778758E-16, -1.000000000000000000, 0.000000000000000000 ) ) ;
#867 = EDGE_CURVE ( 'NONE', #243, #781, #453, .T. ) ;
#868 = PLANE ( 'NONE',  #280 ) ;
#869 = VECTOR ( 'NONE', #638, 1000.000000000000000 ) ;
#870 = CARTESIAN_POINT ( 'NONE',  ( -403.9725140405451498, 27.03204812499521381, -7.250000000000006217 ) ) ;
#871 = ORIENTED_EDGE ( 'NONE', *, *, #811, .F. ) ;
#872 = DIRECTION ( 'NONE',  ( 1.000000000000000000, 0.000000000000000000, 0.000000000000000000 ) ) ;
#873 = VECTOR ( 'NONE', #384, 1000.000000000000000 ) ;
#874 = VECTOR ( 'NONE', #398, 1000.000000000000000 ) ;
#875 = CARTESIAN_POINT ( 'NONE',  ( -385.4725140405450361, 29.03204812499521381, -12.00000000000000711 ) ) ;
#876 = DIRECTION ( 'NONE',  ( 0.000000000000000000, -1.000000000000000000, 0.000000000000000000 ) ) ;
#877 = CARTESIAN_POINT ( 'NONE',  ( -382.4725140405450361, 30.03204812499521381, 8.673617379884035472E-16 ) ) ;
#878 = CARTESIAN_POINT ( 'NONE',  ( -382.4725140405450361, 30.03204812499521381, -3.000000000000000888 ) ) ;
#879 = AXIS2_PLACEMENT_3D ( 'NONE', #743, #662, #288 ) ;
#880 = FACE_OUTER_BOUND ( 'NONE', #370, .T. ) ;
#881 = DIRECTION ( 'NONE',  ( 1.000000000000000000, 0.000000000000000000, 0.000000000000000000 ) ) ;
#882 = ORIENTED_EDGE ( 'NONE', *, *, #274, .F. ) ;
#883 = CARTESIAN_POINT ( 'NONE',  ( -382.4725140405450361, 27.03204812499521381, -2.000000000000005329 ) ) ;
#884 = VECTOR ( 'NONE', #66, 1000.000000000000000 ) ;
#885 = DIRECTION ( 'NONE',  ( -1.000000000000000000, 0.000000000000000000, 0.000000000000000000 ) ) ;
#886 = DIRECTION ( 'NONE',  ( -1.000000000000000000, 0.000000000000000000, 0.000000000000000000 ) ) ;
#887 = DIRECTION ( 'NONE',  ( 0.000000000000000000, 0.000000000000000000, 1.000000000000000000 ) ) ;
#888 = DIRECTION ( 'NONE',  ( -1.000000000000000000, 0.000000000000000000, 0.000000000000000000 ) ) ;
#889 = VERTEX_POINT ( 'NONE', #606 ) ;
#890 = DIRECTION ( 'NONE',  ( 0.000000000000000000, 0.000000000000000000, -1.000000000000000000 ) ) ;
#891 = AXIS2_PLACEMENT_3D ( 'NONE', #485, #321, #855 ) ;
#892 = PLANE ( 'NONE',  #568 ) ;
#893 = ORIENTED_EDGE ( 'NONE', *, *, #306, .F. ) ;
#894 = ORIENTED_EDGE ( 'NONE', *, *, #867, .T. ) ;
#895 = APPLICATION_CONTEXT ( 'automotive_design' ) ;
#896 = EDGE_CURVE ( 'NONE', #68, #745, #135, .T. ) ;
#897 = ORIENTED_EDGE ( 'NONE', *, *, #450, .F. ) ;
#898 = AXIS2_PLACEMENT_3D ( 'NONE', #588, #585, #127 ) ;
#899 = VECTOR ( 'NONE', #199, 1000.000000000000000 ) ;
#900 = ORIENTED_EDGE ( 'NONE', *, *, #46, .T. ) ;
#901 = CARTESIAN_POINT ( 'NONE',  ( -386.9725140405450361, 12.80179865423754926, -9.500000000000007105 ) ) ;
#902 = CARTESIAN_POINT ( 'NONE',  ( -414.4725140405450929, 103.0320481249952707, -12.00000000000000711 ) ) ;
#903 = ADVANCED_FACE ( 'NONE', ( #467 ), #586, .F. ) ;
#904 = ORIENTED_EDGE ( 'NONE', *, *, #233, .T. ) ;
#905 = ORIENTED_EDGE ( 'NONE', *, *, #229, .F. ) ;
#906 = DIRECTION ( 'NONE',  ( -1.000000000000000000, 0.000000000000000000, 0.000000000000000000 ) ) ;
#907 = CARTESIAN_POINT ( 'NONE',  ( -412.9725140405450929, 12.80179865423754926, -11.75000000000000711 ) ) ;
#908 = FACE_OUTER_BOUND ( 'NONE', #499, .T. ) ;
#909 = DIRECTION ( 'NONE',  ( 0.000000000000000000, 1.000000000000000000, 0.000000000000000000 ) ) ;
#910 = LINE ( 'NONE', #495, #171 ) ;
#911 = ADVANCED_FACE ( 'NONE', ( #213 ), #892, .F. ) ;
#912 = ORIENTED_EDGE ( 'NONE', *, *, #396, .F. ) ;
#913 = CARTESIAN_POINT ( 'NONE',  ( -408.4725140405450929, 54.03204812499521381, -2.000000000000000000 ) ) ;
#914 = EDGE_CURVE ( 'NONE', #22, #667, #926, .T. ) ;
#915 = UNCERTAINTY_MEASURE_WITH_UNIT (LENGTH_MEASURE( 1.000000000000000082E-05 ), #599, 'distance_accuracy_value', 'NONE');
#916 = CIRCLE ( 'NONE', #831, 8.500000000000007105 ) ;
#917 = ORIENTED_EDGE ( 'NONE', *, *, #575, .T. ) ;
#918 = CARTESIAN_POINT ( 'NONE',  ( -414.4725140405450929, 29.03204812499521381, -12.00000000000000711 ) ) ;
#919 = ADVANCED_FACE ( 'NONE', ( #908 ), #609, .F. ) ;
#920 = EDGE_LOOP ( 'NONE', ( #163, #818, #897, #275, #601, #281 ) ) ;
#921 = CARTESIAN_POINT ( 'NONE',  ( -417.4725140405450929, 62.03204812499521381, -103.8626526259748033 ) ) ;
#922 = AXIS2_PLACEMENT_3D ( 'NONE', #902, #832, #840 ) ;
#923 = ORIENTED_EDGE ( 'NONE', *, *, #798, .F. ) ;
#924 = DIRECTION ( 'NONE',  ( -1.000000000000000000, 0.000000000000000000, 0.000000000000000000 ) ) ;
#925 = DIRECTION ( 'NONE',  ( -0.000000000000000000, -0.000000000000000000, 1.000000000000000000 ) ) ;
#926 = LINE ( 'NONE', #231, #833 ) ;
#927 = CARTESIAN_POINT ( 'NONE',  ( -403.9725140405450929, 12.80179865423754926, -7.250000000000006217 ) ) ;
#928 = EDGE_CURVE ( 'NONE', #156, #663, #823, .T. ) ;
#929 = ORIENTED_EDGE ( 'NONE', *, *, #75, .T. ) ;
#930 = AXIS2_PLACEMENT_3D ( 'NONE', #883, #810, #142 ) ;
#931 = CARTESIAN_POINT ( 'NONE',  ( -417.4725140405450929, 30.03204812499521381, 0.000000000000000000 ) ) ;
#932 = ORIENTED_EDGE ( 'NONE', *, *, #388, .T. ) ;
#933 = DIRECTION ( 'NONE',  ( 0.000000000000000000, 1.000000000000000000, 0.000000000000000000 ) ) ;
#934 = VERTEX_POINT ( 'NONE', #537 ) ;
#935 = ORIENTED_EDGE ( 'NONE', *, *, #953, .T. ) ;
#936 = ORIENTED_EDGE ( 'NONE', *, *, #487, .T. ) ;
#937 = AXIS2_PLACEMENT_3D ( 'NONE', #636, #924, #496 ) ;
#938 = VECTOR ( 'NONE', #516, 1000.000000000000000 ) ;
#939 = DIRECTION ( 'NONE',  ( 0.000000000000000000, -0.000000000000000000, 1.000000000000000000 ) ) ;
#940 = PLANE ( 'NONE',  #937 ) ;
#941 = VECTOR ( 'NONE', #192, 1000.000000000000000 ) ;
#942 = ORIENTED_EDGE ( 'NONE', *, *, #487, .F. ) ;
#943 = FACE_OUTER_BOUND ( 'NONE', #191, .T. ) ;
#944 = DIRECTION ( 'NONE',  ( -0.000000000000000000, 0.000000000000000000, -1.000000000000000000 ) ) ;
#945 = LINE ( 'NONE', #366, #436 ) ;
#946 = CARTESIAN_POINT ( 'NONE',  ( -395.9725140405450929, 27.03204812499521381, -11.75000000000000711 ) ) ;
#947 = EDGE_LOOP ( 'NONE', ( #762, #723, #377, #570 ) ) ;
#948 = ORIENTED_EDGE ( 'NONE', *, *, #677, .F. ) ;
#949 = PLANE ( 'NONE',  #678 ) ;
#950 = DIRECTION ( 'NONE',  ( 0.000000000000000000, -0.000000000000000000, 1.000000000000000000 ) ) ;
#951 = DIRECTION ( 'NONE',  ( 0.000000000000000000, 0.000000000000000000, -1.000000000000000000 ) ) ;
#952 = ORIENTED_EDGE ( 'NONE', *, *, #418, .F. ) ;
#953 = EDGE_CURVE ( 'NONE', #775, #781, #514, .T. ) ;
#954 = CARTESIAN_POINT ( 'NONE',  ( -408.4725140405450929, 54.03204812499521381, -2.000000000000000000 ) ) ;
#955 = ORIENTED_EDGE ( 'NONE', *, *, #666, .F. ) ;
#956 = ORIENTED_EDGE ( 'NONE', *, *, #209, .F. ) ;
#957 = CIRCLE ( 'NONE', #879, 5.000000000000004441 ) ;
#958 = DIRECTION ( 'NONE',  ( 0.000000000000000000, 0.000000000000000000, 1.000000000000000000 ) ) ;
ENDSEC;
END-ISO-10303-21;
