ISO-10303-21;
HEADER;
FILE_DESCRIPTION (( 'STEP AP214' ),
    '1' );
FILE_NAME ('21631_03_193_sheetmetal socket cover robot.STEP',
    '2021-11-08T06:18:15',
    ( '' ),
    ( '' ),
    'SwSTEP 2.0',
    'SolidWorks 2018',
    '' );
FILE_SCHEMA (( 'AUTOMOTIVE_DESIGN' ));
ENDSEC;

DATA;
#1 = DIRECTION ( 'NONE',  ( 0.000000000000000000, -1.000000000000000000, -0.000000000000000000 ) ) ;
#2 = DIRECTION ( 'NONE',  ( 0.000000000000000000, -1.000000000000000000, -0.000000000000000000 ) ) ;
#3 = EDGE_LOOP ( 'NONE', ( #292, #430, #331, #111 ) ) ;
#4 = AXIS2_PLACEMENT_3D ( 'NONE', #53, #282, #351 ) ;
#5 = CARTESIAN_POINT ( 'NONE',  ( -71.50000000000001421, 17.49999999999999645, 1.500000000000000000 ) ) ;
#6 = ORIENTED_EDGE ( 'NONE', *, *, #307, .F. ) ;
#7 = ORIENTED_EDGE ( 'NONE', *, *, #144, .T. ) ;
#8 = DIRECTION ( 'NONE',  ( 0.000000000000000000, 0.000000000000000000, -1.000000000000000000 ) ) ;
#9 = ORIENTED_EDGE ( 'NONE', *, *, #216, .F. ) ;
#10 = ADVANCED_FACE ( 'NONE', ( #28 ), #549, .T. ) ;
#11 = EDGE_CURVE ( 'NONE', #639, #655, #703, .T. ) ;
#12 = DIRECTION ( 'NONE',  ( -1.000000000000000000, 0.000000000000000000, -0.000000000000000000 ) ) ;
#13 = LINE ( 'NONE', #377, #24 ) ;
#14 = LINE ( 'NONE', #48, #680 ) ;
#15 = AXIS2_PLACEMENT_3D ( 'NONE', #20, #23, #185 ) ;
#16 = CARTESIAN_POINT ( 'NONE',  ( 66.49999999999997158, -22.50000000000000355, 0.000000000000000000 ) ) ;
#17 = ORIENTED_EDGE ( 'NONE', *, *, #538, .T. ) ;
#18 = CARTESIAN_POINT ( 'NONE',  ( 65.00000000000001421, 15.99999999999998934, 1.500000000000000000 ) ) ;
#19 = VERTEX_POINT ( 'NONE', #361 ) ;
#20 = CARTESIAN_POINT ( 'NONE',  ( -66.50000000000000000, -17.50000000000000000, 1.500000000000000000 ) ) ;
#21 = ORIENTED_EDGE ( 'NONE', *, *, #193, .F. ) ;
#22 = CARTESIAN_POINT ( 'NONE',  ( 71.49999999999998579, 22.49999999999999645, 1.500000000000000000 ) ) ;
#23 = DIRECTION ( 'NONE',  ( 0.000000000000000000, 0.000000000000000000, 1.000000000000000000 ) ) ;
#24 = VECTOR ( 'NONE', #642, 1000.000000000000000 ) ;
#25 = EDGE_CURVE ( 'NONE', #424, #448, #405, .T. ) ;
#26 = CYLINDRICAL_SURFACE ( 'NONE', #648, 4.999999999999997335 ) ;
#27 =( GEOMETRIC_REPRESENTATION_CONTEXT ( 3 ) GLOBAL_UNCERTAINTY_ASSIGNED_CONTEXT ( ( #250 ) ) GLOBAL_UNIT_ASSIGNED_CONTEXT ( ( #116, #497, #561 ) ) REPRESENTATION_CONTEXT ( 'NONE', 'WORKASPACE' ) );
#28 = FACE_OUTER_BOUND ( 'NONE', #453, .T. ) ;
#29 = CARTESIAN_POINT ( 'NONE',  ( -66.50000000000000000, 17.49999999999999645, 1.500000000000000000 ) ) ;
#30 = VECTOR ( 'NONE', #446, 1000.000000000000000 ) ;
#31 = ORIENTED_EDGE ( 'NONE', *, *, #447, .T. ) ;
#32 = EDGE_CURVE ( 'NONE', #272, #515, #321, .T. ) ;
#33 = ORIENTED_EDGE ( 'NONE', *, *, #245, .T. ) ;
#34 = ORIENTED_EDGE ( 'NONE', *, *, #87, .T. ) ;
#35 = CIRCLE ( 'NONE', #621, 4.999999999999997335 ) ;
#36 = CYLINDRICAL_SURFACE ( 'NONE', #279, 4.999999999999997335 ) ;
#37 = FACE_BOUND ( 'NONE', #583, .T. ) ;
#38 = VERTEX_POINT ( 'NONE', #83 ) ;
#39 = AXIS2_PLACEMENT_3D ( 'NONE', #562, #224, #355 ) ;
#40 = EDGE_CURVE ( 'NONE', #198, #38, #180, .T. ) ;
#41 = CARTESIAN_POINT ( 'NONE',  ( 65.00000000000001421, 15.99999999999998934, 1.500000000000000000 ) ) ;
#42 = ORIENTED_EDGE ( 'NONE', *, *, #603, .F. ) ;
#43 = FACE_BOUND ( 'NONE', #484, .T. ) ;
#44 = CARTESIAN_POINT ( 'NONE',  ( 71.49999999999998579, -17.49999999999998579, 1.500000000000000000 ) ) ;
#45 = ORIENTED_EDGE ( 'NONE', *, *, #323, .T. ) ;
#46 = ORIENTED_EDGE ( 'NONE', *, *, #87, .F. ) ;
#47 = MECHANICAL_DESIGN_GEOMETRIC_PRESENTATION_REPRESENTATION (  '', ( #191 ), #27 ) ;
#48 = CARTESIAN_POINT ( 'NONE',  ( 71.49999999999998579, -22.50000000000000355, -0.000000000000000000 ) ) ;
#49 = CARTESIAN_POINT ( 'NONE',  ( -66.50000000000000000, -17.50000000000000000, 0.000000000000000000 ) ) ;
#50 = ORIENTED_EDGE ( 'NONE', *, *, #261, .F. ) ;
#51 = EDGE_CURVE ( 'NONE', #609, #596, #221, .T. ) ;
#52 = CARTESIAN_POINT ( 'NONE',  ( -64.99999999999998579, 15.99999999999998934, 1.500000000000000000 ) ) ;
#53 = CARTESIAN_POINT ( 'NONE',  ( 0.000000000000000000, 0.000000000000000000, 0.000000000000000000 ) ) ;
#54 = DIRECTION ( 'NONE',  ( -1.000000000000000000, 0.000000000000000000, 0.000000000000000000 ) ) ;
#55 = EDGE_LOOP ( 'NONE', ( #316, #119 ) ) ;
#56 = EDGE_CURVE ( 'NONE', #393, #157, #208, .T. ) ;
#57 = DIRECTION ( 'NONE',  ( 0.000000000000000000, 0.000000000000000000, -1.000000000000000000 ) ) ;
#58 = DIRECTION ( 'NONE',  ( -0.000000000000000000, 0.000000000000000000, 1.000000000000000000 ) ) ;
#59 = VERTEX_POINT ( 'NONE', #468 ) ;
#60 = AXIS2_PLACEMENT_3D ( 'NONE', #610, #326, #156 ) ;
#61 = CARTESIAN_POINT ( 'NONE',  ( -62.74999999999998579, 15.99999999999998934, 1.500000000000000000 ) ) ;
#62 = CIRCLE ( 'NONE', #414, 2.250000000000001776 ) ;
#63 = ADVANCED_FACE ( 'NONE', ( #107 ), #129, .F. ) ;
#64 = DIRECTION ( 'NONE',  ( -1.000000000000000000, 0.000000000000000000, 0.000000000000000000 ) ) ;
#65 = EDGE_LOOP ( 'NONE', ( #614, #260, #7, #318 ) ) ;
#66 = EDGE_CURVE ( 'NONE', #322, #393, #432, .T. ) ;
#67 = CARTESIAN_POINT ( 'NONE',  ( 62.75000000000001421, 15.99999999999998934, 0.000000000000000000 ) ) ;
#68 = CLOSED_SHELL ( 'NONE', ( #584, #627, #139, #63, #502, #281, #455, #358, #75, #98, #344, #395, #559, #618, #114, #10, #563, #666, #576, #231 ) ) ;
#69 = FACE_OUTER_BOUND ( 'NONE', #85, .T. ) ;
#70 = CARTESIAN_POINT ( 'NONE',  ( -62.74999999999998579, -16.00000000000001066, 1.500000000000000000 ) ) ;
#71 = CIRCLE ( 'NONE', #39, 2.250000000000001776 ) ;
#72 = VECTOR ( 'NONE', #306, 1000.000000000000000 ) ;
#73 = DIRECTION ( 'NONE',  ( 1.000000000000000000, 0.000000000000000000, 0.000000000000000000 ) ) ;
#74 =( NAMED_UNIT ( * ) PLANE_ANGLE_UNIT ( ) SI_UNIT ( $, .RADIAN. ) );
#75 = ADVANCED_FACE ( 'NONE', ( #669 ), #480, .T. ) ;
#76 = DIRECTION ( 'NONE',  ( 1.000000000000000000, 0.000000000000000000, 0.000000000000000000 ) ) ;
#77 = AXIS2_PLACEMENT_3D ( 'NONE', #437, #105, #488 ) ;
#78 = DIRECTION ( 'NONE',  ( -0.000000000000000000, -0.000000000000000000, 1.000000000000000000 ) ) ;
#79 = EDGE_CURVE ( 'NONE', #322, #330, #387, .T. ) ;
#80 = CIRCLE ( 'NONE', #503, 5.000000000000004441 ) ;
#81 = VECTOR ( 'NONE', #617, 1000.000000000000000 ) ;
#82 = FACE_BOUND ( 'NONE', #210, .T. ) ;
#83 = CARTESIAN_POINT ( 'NONE',  ( -66.50000000000000000, 22.49999999999999645, 1.500000000000000000 ) ) ;
#84 = ORIENTED_EDGE ( 'NONE', *, *, #240, .T. ) ;
#85 = EDGE_LOOP ( 'NONE', ( #194, #528, #571, #492 ) ) ;
#86 = CIRCLE ( 'NONE', #519, 18.00000000000000000 ) ;
#87 = EDGE_CURVE ( 'NONE', #59, #19, #171, .T. ) ;
#88 = EDGE_CURVE ( 'NONE', #108, #141, #462, .T. ) ;
#89 = DIRECTION ( 'NONE',  ( -0.000000000000000000, -0.000000000000000000, -1.000000000000000000 ) ) ;
#90 = ORIENTED_EDGE ( 'NONE', *, *, #56, .F. ) ;
#91 = CARTESIAN_POINT ( 'NONE',  ( 65.00000000000001421, 15.99999999999998934, 1.500000000000000000 ) ) ;
#92 = PRESENTATION_STYLE_ASSIGNMENT (( #457 ) ) ;
#93 = DIRECTION ( 'NONE',  ( -1.000000000000000000, 0.000000000000000000, 0.000000000000000000 ) ) ;
#94 = LINE ( 'NONE', #392, #81 ) ;
#95 = EDGE_LOOP ( 'NONE', ( #595, #605 ) ) ;
#96 = EDGE_LOOP ( 'NONE', ( #143, #175 ) ) ;
#97 = AXIS2_PLACEMENT_3D ( 'NONE', #613, #57, #64 ) ;
#98 = ADVANCED_FACE ( 'NONE', ( #82, #37, #303, #368, #214, #476 ), #219, .F. ) ;
#99 = ORIENTED_EDGE ( 'NONE', *, *, #277, .F. ) ;
#100 = DIRECTION ( 'NONE',  ( -1.000000000000000000, 0.000000000000000000, 0.000000000000000000 ) ) ;
#101 = CARTESIAN_POINT ( 'NONE',  ( 71.49999999999998579, -17.49999999999999645, 1.500000000000000000 ) ) ;
#102 = ORIENTED_EDGE ( 'NONE', *, *, #307, .T. ) ;
#103 = DIRECTION ( 'NONE',  ( 0.000000000000000000, 0.000000000000000000, -1.000000000000000000 ) ) ;
#104 = DIRECTION ( 'NONE',  ( 0.000000000000000000, 0.000000000000000000, -1.000000000000000000 ) ) ;
#105 = DIRECTION ( 'NONE',  ( 0.000000000000000000, 0.000000000000000000, 1.000000000000000000 ) ) ;
#106 = VECTOR ( 'NONE', #262, 1000.000000000000000 ) ;
#107 = FACE_OUTER_BOUND ( 'NONE', #357, .T. ) ;
#108 = VERTEX_POINT ( 'NONE', #268 ) ;
#109 = DIRECTION ( 'NONE',  ( 0.000000000000000000, 0.000000000000000000, -1.000000000000000000 ) ) ;
#110 = CARTESIAN_POINT ( 'NONE',  ( 65.00000000000001421, -16.00000000000001066, 1.500000000000000000 ) ) ;
#111 = ORIENTED_EDGE ( 'NONE', *, *, #154, .T. ) ;
#112 = AXIS2_PLACEMENT_3D ( 'NONE', #379, #696, #428 ) ;
#113 = DIRECTION ( 'NONE',  ( -1.000000000000000000, 0.000000000000000000, 0.000000000000000000 ) ) ;
#114 = ADVANCED_FACE ( 'NONE', ( #259 ), #415, .F. ) ;
#115 = VECTOR ( 'NONE', #654, 1000.000000000000000 ) ;
#116 =( LENGTH_UNIT ( ) NAMED_UNIT ( * ) SI_UNIT ( .MILLI., .METRE. ) );
#117 = FACE_OUTER_BOUND ( 'NONE', #165, .T. ) ;
#118 = DIRECTION ( 'NONE',  ( 0.000000000000000000, 0.000000000000000000, -1.000000000000000000 ) ) ;
#119 = ORIENTED_EDGE ( 'NONE', *, *, #332, .T. ) ;
#120 = EDGE_CURVE ( 'NONE', #506, #186, #486, .T. ) ;
#121 = CARTESIAN_POINT ( 'NONE',  ( -64.99999999999998579, 15.99999999999998934, 1.500000000000000000 ) ) ;
#122 = DIRECTION ( 'NONE',  ( 0.000000000000000000, 0.000000000000000000, -1.000000000000000000 ) ) ;
#123 = CARTESIAN_POINT ( 'NONE',  ( 0.000000000000000000, 0.000000000000000000, -0.0009999999999999158867 ) ) ;
#124 = ORIENTED_EDGE ( 'NONE', *, *, #590, .T. ) ;
#125 = CARTESIAN_POINT ( 'NONE',  ( -67.24999999999998579, 15.99999999999998934, 1.500000000000000000 ) ) ;
#126 = AXIS2_PLACEMENT_3D ( 'NONE', #52, #490, #431 ) ;
#127 = DIRECTION ( 'NONE',  ( 0.000000000000000000, 0.000000000000000000, -1.000000000000000000 ) ) ;
#128 = CARTESIAN_POINT ( 'NONE',  ( -71.50000000000001421, -17.49999999999998579, 0.000000000000000000 ) ) ;
#129 = CYLINDRICAL_SURFACE ( 'NONE', #174, 2.250000000000001776 ) ;
#130 =( NAMED_UNIT ( * ) PLANE_ANGLE_UNIT ( ) SI_UNIT ( $, .RADIAN. ) );
#131 = ORIENTED_EDGE ( 'NONE', *, *, #616, .F. ) ;
#132 = CARTESIAN_POINT ( 'NONE',  ( 66.49999999999997158, 17.49999999999999645, 1.500000000000000000 ) ) ;
#133 = EDGE_CURVE ( 'NONE', #639, #353, #582, .T. ) ;
#134 = DIRECTION ( 'NONE',  ( -1.000000000000000000, 0.000000000000000000, 0.000000000000000000 ) ) ;
#135 = DIRECTION ( 'NONE',  ( 0.000000000000000000, 0.000000000000000000, 1.000000000000000000 ) ) ;
#136 = CARTESIAN_POINT ( 'NONE',  ( 0.000000000000000000, 0.000000000000000000, -0.0009999999999999158867 ) ) ;
#137 = CYLINDRICAL_SURFACE ( 'NONE', #633, 2.250000000000001776 ) ;
#138 = VECTOR ( 'NONE', #153, 1000.000000000000000 ) ;
#139 = ADVANCED_FACE ( 'NONE', ( #117 ), #265, .F. ) ;
#140 = CYLINDRICAL_SURFACE ( 'NONE', #269, 18.00000000000000000 ) ;
#141 = VERTEX_POINT ( 'NONE', #215 ) ;
#142 = DIRECTION ( 'NONE',  ( -1.000000000000000000, 0.000000000000000000, 0.000000000000000000 ) ) ;
#143 = ORIENTED_EDGE ( 'NONE', *, *, #211, .T. ) ;
#144 = EDGE_CURVE ( 'NONE', #694, #540, #178, .T. ) ;
#145 = DIRECTION ( 'NONE',  ( 0.000000000000000000, 0.000000000000000000, -1.000000000000000000 ) ) ;
#146 = ORIENTED_EDGE ( 'NONE', *, *, #423, .T. ) ;
#147 = VERTEX_POINT ( 'NONE', #604 ) ;
#148 = ORIENTED_EDGE ( 'NONE', *, *, #11, .F. ) ;
#149 = COLOUR_RGB ( '',0.7529411764705882248, 0.7529411764705882248, 0.7529411764705882248 ) ;
#150 = AXIS2_PLACEMENT_3D ( 'NONE', #436, #104, #438 ) ;
#151 = ORIENTED_EDGE ( 'NONE', *, *, #623, .T. ) ;
#152 = ORIENTED_EDGE ( 'NONE', *, *, #616, .T. ) ;
#153 = DIRECTION ( 'NONE',  ( 0.000000000000000000, 0.000000000000000000, -1.000000000000000000 ) ) ;
#154 = EDGE_CURVE ( 'NONE', #239, #159, #311, .T. ) ;
#155 = DIRECTION ( 'NONE',  ( -0.000000000000000000, -0.000000000000000000, -1.000000000000000000 ) ) ;
#156 = DIRECTION ( 'NONE',  ( -1.000000000000000000, 0.000000000000000000, 0.000000000000000000 ) ) ;
#157 = VERTEX_POINT ( 'NONE', #44 ) ;
#158 = ORIENTED_EDGE ( 'NONE', *, *, #697, .F. ) ;
#159 = VERTEX_POINT ( 'NONE', #712 ) ;
#160 = CIRCLE ( 'NONE', #534, 4.999999999999997335 ) ;
#161 = ORIENTED_EDGE ( 'NONE', *, *, #277, .T. ) ;
#162 = CARTESIAN_POINT ( 'NONE',  ( -66.50000000000000000, -22.50000000000000355, 1.500000000000000000 ) ) ;
#163 = AXIS2_PLACEMENT_3D ( 'NONE', #672, #238, #451 ) ;
#164 = FILL_AREA_STYLE_COLOUR ( '', #149 ) ;
#165 = EDGE_LOOP ( 'NONE', ( #463, #124, #17, #131 ) ) ;
#166 = STYLED_ITEM ( 'NONE', ( #92 ), #443 ) ;
#167 = DIRECTION ( 'NONE',  ( -0.000000000000000000, -0.000000000000000000, -1.000000000000000000 ) ) ;
#168 = ORIENTED_EDGE ( 'NONE', *, *, #467, .T. ) ;
#169 = CIRCLE ( 'NONE', #264, 5.000000000000004441 ) ;
#170 = FACE_OUTER_BOUND ( 'NONE', #246, .T. ) ;
#171 = LINE ( 'NONE', #550, #359 ) ;
#172 = EDGE_CURVE ( 'NONE', #596, #205, #681, .T. ) ;
#173 = DIRECTION ( 'NONE',  ( -0.000000000000000000, -0.000000000000000000, 1.000000000000000000 ) ) ;
#174 = AXIS2_PLACEMENT_3D ( 'NONE', #465, #413, #142 ) ;
#175 = ORIENTED_EDGE ( 'NONE', *, *, #120, .T. ) ;
#176 = FACE_OUTER_BOUND ( 'NONE', #637, .T. ) ;
#177 = DIRECTION ( 'NONE',  ( 0.000000000000000000, 0.000000000000000000, 1.000000000000000000 ) ) ;
#178 = LINE ( 'NONE', #338, #106 ) ;
#179 = CARTESIAN_POINT ( 'NONE',  ( 65.00000000000001421, -16.00000000000001066, -0.000000000000000000 ) ) ;
#180 = LINE ( 'NONE', #581, #442 ) ;
#181 = VERTEX_POINT ( 'NONE', #232 ) ;
#182 = EDGE_CURVE ( 'NONE', #141, #108, #652, .T. ) ;
#183 = CARTESIAN_POINT ( 'NONE',  ( 0.000000000000000000, 0.000000000000000000, 0.000000000000000000 ) ) ;
#184 = CARTESIAN_POINT ( 'NONE',  ( 62.75000000000001421, -16.00000000000001066, 1.500000000000000000 ) ) ;
#185 = DIRECTION ( 'NONE',  ( -1.000000000000000000, 0.000000000000000000, 0.000000000000000000 ) ) ;
#186 = VERTEX_POINT ( 'NONE', #706 ) ;
#187 = VECTOR ( 'NONE', #296, 1000.000000000000000 ) ;
#188 = DIRECTION ( 'NONE',  ( -1.000000000000000000, 0.000000000000000000, 0.000000000000000000 ) ) ;
#189 = ORIENTED_EDGE ( 'NONE', *, *, #247, .F. ) ;
#190 = ORIENTED_EDGE ( 'NONE', *, *, #447, .F. ) ;
#191 = STYLED_ITEM ( 'NONE', ( #337 ), #494 ) ;
#192 = ORIENTED_EDGE ( 'NONE', *, *, #216, .T. ) ;
#193 = EDGE_CURVE ( 'NONE', #345, #655, #397, .T. ) ;
#194 = ORIENTED_EDGE ( 'NONE', *, *, #363, .F. ) ;
#195 = CIRCLE ( 'NONE', #675, 2.250000000000001776 ) ;
#196 = LINE ( 'NONE', #70, #366 ) ;
#197 = DIRECTION ( 'NONE',  ( -1.000000000000000000, 0.000000000000000000, 0.000000000000000000 ) ) ;
#198 = VERTEX_POINT ( 'NONE', #656 ) ;
#199 = VECTOR ( 'NONE', #319, 1000.000000000000000 ) ;
#200 = EDGE_LOOP ( 'NONE', ( #201, #284, #304, #235 ) ) ;
#201 = ORIENTED_EDGE ( 'NONE', *, *, #51, .T. ) ;
#202 = UNCERTAINTY_MEASURE_WITH_UNIT (LENGTH_MEASURE( 1.000000000000000082E-05 ), #356, 'distance_accuracy_value', 'NONE');
#203 =( GEOMETRIC_REPRESENTATION_CONTEXT ( 3 ) GLOBAL_UNCERTAINTY_ASSIGNED_CONTEXT ( ( #202 ) ) GLOBAL_UNIT_ASSIGNED_CONTEXT ( ( #356, #130, #509 ) ) REPRESENTATION_CONTEXT ( 'NONE', 'WORKASPACE' ) );
#204 = CARTESIAN_POINT ( 'NONE',  ( -67.24999999999998579, -16.00000000000001066, 1.500000000000000000 ) ) ;
#205 = VERTEX_POINT ( 'NONE', #280 ) ;
#206 = AXIS2_PLACEMENT_3D ( 'NONE', #535, #421, #552 ) ;
#207 = CIRCLE ( 'NONE', #112, 2.250000000000001776 ) ;
#208 = LINE ( 'NONE', #22, #72 ) ;
#209 = ORIENTED_EDGE ( 'NONE', *, *, #32, .F. ) ;
#210 = EDGE_LOOP ( 'NONE', ( #659, #209 ) ) ;
#211 = EDGE_CURVE ( 'NONE', #186, #506, #71, .T. ) ;
#212 = DIRECTION ( 'NONE',  ( -1.000000000000000000, 0.000000000000000000, 0.000000000000000000 ) ) ;
#213 = CIRCLE ( 'NONE', #643, 2.250000000000001776 ) ;
#214 = FACE_BOUND ( 'NONE', #55, .T. ) ;
#215 = CARTESIAN_POINT ( 'NONE',  ( 18.00000000000000000, 0.000000000000000000, 0.000000000000000000 ) ) ;
#216 = EDGE_CURVE ( 'NONE', #157, #330, #422, .T. ) ;
#217 = DIRECTION ( 'NONE',  ( 0.000000000000000000, 0.000000000000000000, -1.000000000000000000 ) ) ;
#218 = CARTESIAN_POINT ( 'NONE',  ( 71.49999999999998579, -22.50000000000000355, 1.500000000000000000 ) ) ;
#219 = PLANE ( 'NONE',  #327 ) ;
#220 = ORIENTED_EDGE ( 'NONE', *, *, #182, .F. ) ;
#221 = LINE ( 'NONE', #624, #187 ) ;
#222 = ORIENTED_EDGE ( 'NONE', *, *, #245, .F. ) ;
#223 = CARTESIAN_POINT ( 'NONE',  ( 66.49999999999997158, 17.49999999999999645, 0.000000000000000000 ) ) ;
#224 = DIRECTION ( 'NONE',  ( 0.000000000000000000, 0.000000000000000000, -1.000000000000000000 ) ) ;
#225 = AXIS2_PLACEMENT_3D ( 'NONE', #555, #12, #58 ) ;
#226 = DIRECTION ( 'NONE',  ( -1.000000000000000000, 0.000000000000000000, 0.000000000000000000 ) ) ;
#227 = CIRCLE ( 'NONE', #688, 2.250000000000001776 ) ;
#228 = ORIENTED_EDGE ( 'NONE', *, *, #667, .F. ) ;
#229 = EDGE_CURVE ( 'NONE', #308, #59, #213, .T. ) ;
#230 = ORIENTED_EDGE ( 'NONE', *, *, #683, .F. ) ;
#231 = ADVANCED_FACE ( 'NONE', ( #243 ), #140, .F. ) ;
#232 = CARTESIAN_POINT ( 'NONE',  ( -67.24999999999998579, 15.99999999999998934, 0.000000000000000000 ) ) ;
#233 = ORIENTED_EDGE ( 'NONE', *, *, #40, .F. ) ;
#234 = CARTESIAN_POINT ( 'NONE',  ( 62.75000000000001421, 15.99999999999998934, 1.500000000000000000 ) ) ;
#235 = ORIENTED_EDGE ( 'NONE', *, *, #382, .T. ) ;
#236 = AXIS2_PLACEMENT_3D ( 'NONE', #41, #607, #271 ) ;
#237 =( LENGTH_UNIT ( ) NAMED_UNIT ( * ) SI_UNIT ( .MILLI., .METRE. ) );
#238 = DIRECTION ( 'NONE',  ( 0.000000000000000000, 0.000000000000000000, -1.000000000000000000 ) ) ;
#239 = VERTEX_POINT ( 'NONE', #275 ) ;
#240 = EDGE_CURVE ( 'NONE', #609, #157, #289, .T. ) ;
#241 = DIRECTION ( 'NONE',  ( -0.000000000000000000, -0.000000000000000000, 1.000000000000000000 ) ) ;
#242 = VECTOR ( 'NONE', #516, 1000.000000000000000 ) ;
#243 = FACE_OUTER_BOUND ( 'NONE', #419, .T. ) ;
#244 = DIRECTION ( 'NONE',  ( 0.000000000000000000, 0.000000000000000000, -1.000000000000000000 ) ) ;
#245 = EDGE_CURVE ( 'NONE', #353, #345, #94, .T. ) ;
#246 = EDGE_LOOP ( 'NONE', ( #665, #189, #152, #471 ) ) ;
#247 = EDGE_CURVE ( 'NONE', #570, #147, #499, .T. ) ;
#248 = DIRECTION ( 'NONE',  ( 0.000000000000000000, 0.000000000000000000, -1.000000000000000000 ) ) ;
#249 = SURFACE_STYLE_FILL_AREA ( #408 ) ;
#250 = UNCERTAINTY_MEASURE_WITH_UNIT (LENGTH_MEASURE( 1.000000000000000082E-05 ), #116, 'distance_accuracy_value', 'NONE');
#251 = ORIENTED_EDGE ( 'NONE', *, *, #416, .F. ) ;
#252 = ORIENTED_EDGE ( 'NONE', *, *, #32, .T. ) ;
#253 = DIRECTION ( 'NONE',  ( -0.000000000000000000, -0.000000000000000000, 1.000000000000000000 ) ) ;
#254 = CARTESIAN_POINT ( 'NONE',  ( 71.49999999999998579, 17.49999999999999645, 1.500000000000000000 ) ) ;
#255 = ORIENTED_EDGE ( 'NONE', *, *, #435, .T. ) ;
#256 = AXIS2_PLACEMENT_3D ( 'NONE', #18, #454, #472 ) ;
#257 = CIRCLE ( 'NONE', #150, 2.250000000000001776 ) ;
#258 = FACE_OUTER_BOUND ( 'NONE', #525, .T. ) ;
#259 = FACE_OUTER_BOUND ( 'NONE', #65, .T. ) ;
#260 = ORIENTED_EDGE ( 'NONE', *, *, #374, .F. ) ;
#261 = EDGE_CURVE ( 'NONE', #506, #341, #521, .T. ) ;
#262 = DIRECTION ( 'NONE',  ( 0.000000000000000000, 0.000000000000000000, -1.000000000000000000 ) ) ;
#263 = CARTESIAN_POINT ( 'NONE',  ( -71.50000000000001421, -17.49999999999999645, 1.500000000000000000 ) ) ;
#264 = AXIS2_PLACEMENT_3D ( 'NONE', #372, #89, #427 ) ;
#265 = CYLINDRICAL_SURFACE ( 'NONE', #60, 2.250000000000001776 ) ;
#266 = ORIENTED_EDGE ( 'NONE', *, *, #363, .T. ) ;
#267 = EDGE_LOOP ( 'NONE', ( #99, #6 ) ) ;
#268 = CARTESIAN_POINT ( 'NONE',  ( -18.00000000000000000, 2.204364238465235428E-15, 0.000000000000000000 ) ) ;
#269 = AXIS2_PLACEMENT_3D ( 'NONE', #123, #173, #556 ) ;
#270 = ORIENTED_EDGE ( 'NONE', *, *, #651, .F. ) ;
#271 = DIRECTION ( 'NONE',  ( -1.000000000000000000, 0.000000000000000000, 0.000000000000000000 ) ) ;
#272 = VERTEX_POINT ( 'NONE', #343 ) ;
#273 = CARTESIAN_POINT ( 'NONE',  ( 65.00000000000001421, -16.00000000000001066, 1.500000000000000000 ) ) ;
#274 = ORIENTED_EDGE ( 'NONE', *, *, #88, .T. ) ;
#275 = CARTESIAN_POINT ( 'NONE',  ( 66.49999999999997158, 22.49999999999999645, 1.500000000000000000 ) ) ;
#276 = FACE_BOUND ( 'NONE', #95, .T. ) ;
#277 = EDGE_CURVE ( 'NONE', #433, #19, #512, .T. ) ;
#278 = ORIENTED_EDGE ( 'NONE', *, *, #638, .T. ) ;
#279 = AXIS2_PLACEMENT_3D ( 'NONE', #409, #301, #294 ) ;
#280 = CARTESIAN_POINT ( 'NONE',  ( -66.50000000000000000, -22.50000000000000355, 0.000000000000000000 ) ) ;
#281 = ADVANCED_FACE ( 'NONE', ( #647 ), #505, .T. ) ;
#282 = DIRECTION ( 'NONE',  ( -0.000000000000000000, 0.000000000000000000, -1.000000000000000000 ) ) ;
#283 = DIRECTION ( 'NONE',  ( -1.000000000000000000, 0.000000000000000000, 0.000000000000000000 ) ) ;
#284 = ORIENTED_EDGE ( 'NONE', *, *, #172, .T. ) ;
#285 = DIRECTION ( 'NONE',  ( 1.000000000000000000, 0.000000000000000000, 0.000000000000000000 ) ) ;
#286 = DIRECTION ( 'NONE',  ( -0.000000000000000000, -0.000000000000000000, 1.000000000000000000 ) ) ;
#287 = CIRCLE ( 'NONE', #369, 2.250000000000001776 ) ;
#288 = CYLINDRICAL_SURFACE ( 'NONE', #429, 2.250000000000001776 ) ;
#289 = CIRCLE ( 'NONE', #474, 4.999999999999997335 ) ;
#290 = EDGE_CURVE ( 'NONE', #108, #272, #641, .T. ) ;
#291 = VECTOR ( 'NONE', #299, 1000.000000000000000 ) ;
#292 = ORIENTED_EDGE ( 'NONE', *, *, #435, .F. ) ;
#293 = DIRECTION ( 'NONE',  ( 0.000000000000000000, 0.000000000000000000, -1.000000000000000000 ) ) ;
#294 = DIRECTION ( 'NONE',  ( -1.000000000000000000, 0.000000000000000000, 0.000000000000000000 ) ) ;
#295 = CARTESIAN_POINT ( 'NONE',  ( 71.49999999999998579, 17.49999999999999645, 0.000000000000000000 ) ) ;
#296 = DIRECTION ( 'NONE',  ( -1.000000000000000000, 0.000000000000000000, 0.000000000000000000 ) ) ;
#297 = EDGE_LOOP ( 'NONE', ( #685, #34, #102, #619 ) ) ;
#298 = DIRECTION ( 'NONE',  ( 0.000000000000000000, 0.000000000000000000, 1.000000000000000000 ) ) ;
#299 = DIRECTION ( 'NONE',  ( -0.000000000000000000, 1.000000000000000000, -0.000000000000000000 ) ) ;
#300 = DIRECTION ( 'NONE',  ( 0.000000000000000000, 0.000000000000000000, 1.000000000000000000 ) ) ;
#301 = DIRECTION ( 'NONE',  ( 0.000000000000000000, 0.000000000000000000, -1.000000000000000000 ) ) ;
#302 = FACE_OUTER_BOUND ( 'NONE', #200, .T. ) ;
#303 = FACE_BOUND ( 'NONE', #403, .T. ) ;
#304 = ORIENTED_EDGE ( 'NONE', *, *, #623, .F. ) ;
#305 = AXIS2_PLACEMENT_3D ( 'NONE', #223, #167, #100 ) ;
#306 = DIRECTION ( 'NONE',  ( 0.000000000000000000, -1.000000000000000000, -0.000000000000000000 ) ) ;
#307 = EDGE_CURVE ( 'NONE', #19, #433, #485, .T. ) ;
#308 = VERTEX_POINT ( 'NONE', #184 ) ;
#309 = VECTOR ( 'NONE', #286, 1000.000000000000000 ) ;
#310 = LINE ( 'NONE', #371, #340 ) ;
#311 = LINE ( 'NONE', #602, #693 ) ;
#312 = CARTESIAN_POINT ( 'NONE',  ( 62.75000000000001421, -16.00000000000001066, 1.500000000000000000 ) ) ;
#313 = CYLINDRICAL_SURFACE ( 'NONE', #662, 2.250000000000001776 ) ;
#314 = UNCERTAINTY_MEASURE_WITH_UNIT (LENGTH_MEASURE( 1.000000000000000082E-05 ), #237, 'distance_accuracy_value', 'NONE');
#315 = AXIS2_PLACEMENT_3D ( 'NONE', #588, #244, #599 ) ;
#316 = ORIENTED_EDGE ( 'NONE', *, *, #229, .T. ) ;
#317 = AXIS2_PLACEMENT_3D ( 'NONE', #179, #566, #54 ) ;
#318 = ORIENTED_EDGE ( 'NONE', *, *, #695, .T. ) ;
#319 = DIRECTION ( 'NONE',  ( -0.000000000000000000, -0.000000000000000000, 1.000000000000000000 ) ) ;
#320 = FACE_BOUND ( 'NONE', #267, .T. ) ;
#321 = CIRCLE ( 'NONE', #493, 18.00000000000000000 ) ;
#322 = VERTEX_POINT ( 'NONE', #295 ) ;
#323 = EDGE_CURVE ( 'NONE', #147, #570, #195, .T. ) ;
#324 = PRODUCT_RELATED_PRODUCT_CATEGORY ( 'part', '', ( #533 ) ) ;
#325 = DIRECTION ( 'NONE',  ( -1.000000000000000000, 0.000000000000000000, 0.000000000000000000 ) ) ;
#326 = DIRECTION ( 'NONE',  ( 0.000000000000000000, 0.000000000000000000, -1.000000000000000000 ) ) ;
#327 = AXIS2_PLACEMENT_3D ( 'NONE', #335, #384, #212 ) ;
#328 = FACE_OUTER_BOUND ( 'NONE', #600, .T. ) ;
#329 = LINE ( 'NONE', #204, #138 ) ;
#330 = VERTEX_POINT ( 'NONE', #456 ) ;
#331 = ORIENTED_EDGE ( 'NONE', *, *, #487, .T. ) ;
#332 = EDGE_CURVE ( 'NONE', #59, #308, #287, .T. ) ;
#333 = CARTESIAN_POINT ( 'NONE',  ( -62.74999999999998579, -16.00000000000001066, 0.000000000000000000 ) ) ;
#334 = DIRECTION ( 'NONE',  ( 0.000000000000000000, 0.000000000000000000, -1.000000000000000000 ) ) ;
#335 = CARTESIAN_POINT ( 'NONE',  ( 0.000000000000000000, 0.000000000000000000, 1.500000000000000000 ) ) ;
#336 = VERTEX_POINT ( 'NONE', #333 ) ;
#337 = PRESENTATION_STYLE_ASSIGNMENT (( #554 ) ) ;
#338 = CARTESIAN_POINT ( 'NONE',  ( 62.75000000000001421, 15.99999999999998934, 1.500000000000000000 ) ) ;
#339 = PRODUCT_DEFINITION_FORMATION_WITH_SPECIFIED_SOURCE ( 'ANY', '', #533, .NOT_KNOWN. ) ;
#340 = VECTOR ( 'NONE', #253, 1000.000000000000000 ) ;
#341 = VERTEX_POINT ( 'NONE', #658 ) ;
#342 = AXIS2_PLACEMENT_3D ( 'NONE', #347, #127, #572 ) ;
#343 = CARTESIAN_POINT ( 'NONE',  ( -18.00000000000000000, 2.204364238465235428E-15, 1.500000000000000000 ) ) ;
#344 = ADVANCED_FACE ( 'NONE', ( #43, #625, #276, #473, #320, #557 ), #389, .T. ) ;
#345 = VERTEX_POINT ( 'NONE', #5 ) ;
#346 = CARTESIAN_POINT ( 'NONE',  ( -71.50000000000001421, 17.49999999999999645, 1.500000000000000000 ) ) ;
#347 = CARTESIAN_POINT ( 'NONE',  ( -64.99999999999998579, -16.00000000000001066, 0.000000000000000000 ) ) ;
#348 = DIRECTION ( 'NONE',  ( 0.000000000000000000, 0.000000000000000000, 1.000000000000000000 ) ) ;
#349 = EDGE_LOOP ( 'NONE', ( #270, #594, #710, #406 ) ) ;
#350 = VECTOR ( 'NONE', #632, 1000.000000000000000 ) ;
#351 = DIRECTION ( 'NONE',  ( -1.000000000000000000, 0.000000000000000000, 0.000000000000000000 ) ) ;
#352 = ORIENTED_EDGE ( 'NONE', *, *, #603, .T. ) ;
#353 = VERTEX_POINT ( 'NONE', #567 ) ;
#354 = DIRECTION ( 'NONE',  ( 0.000000000000000000, 0.000000000000000000, -1.000000000000000000 ) ) ;
#355 = DIRECTION ( 'NONE',  ( -1.000000000000000000, 0.000000000000000000, 0.000000000000000000 ) ) ;
#356 =( LENGTH_UNIT ( ) NAMED_UNIT ( * ) SI_UNIT ( .MILLI., .METRE. ) );
#357 = EDGE_LOOP ( 'NONE', ( #518, #653, #398, #228 ) ) ;
#358 = ADVANCED_FACE ( 'NONE', ( #328 ), #394, .T. ) ;
#359 = VECTOR ( 'NONE', #542, 1000.000000000000000 ) ;
#360 = APPLICATION_CONTEXT ( 'automotive_design' ) ;
#361 = CARTESIAN_POINT ( 'NONE',  ( 67.25000000000001421, -16.00000000000001066, 0.000000000000000000 ) ) ;
#362 = APPLICATION_CONTEXT ( 'automotive_design' ) ;
#363 = EDGE_CURVE ( 'NONE', #393, #239, #160, .T. ) ;
#364 = AXIS2_PLACEMENT_3D ( 'NONE', #183, #135, #404 ) ;
#365 = ORIENTED_EDGE ( 'NONE', *, *, #667, .T. ) ;
#366 = VECTOR ( 'NONE', #580, 1000.000000000000000 ) ;
#367 = VECTOR ( 'NONE', #660, 1000.000000000000000 ) ;
#368 = FACE_BOUND ( 'NONE', #96, .T. ) ;
#369 = AXIS2_PLACEMENT_3D ( 'NONE', #273, #109, #611 ) ;
#370 = ORIENTED_EDGE ( 'NONE', *, *, #25, .T. ) ;
#371 = CARTESIAN_POINT ( 'NONE',  ( 18.00000000000000000, 0.000000000000000000, -0.0009999999999999158867 ) ) ;
#372 = CARTESIAN_POINT ( 'NONE',  ( -66.50000000000000000, 17.49999999999999645, 0.000000000000000000 ) ) ;
#373 = ORIENTED_EDGE ( 'NONE', *, *, #229, .F. ) ;
#374 = EDGE_CURVE ( 'NONE', #694, #424, #679, .T. ) ;
#375 = FACE_OUTER_BOUND ( 'NONE', #349, .T. ) ;
#376 = VECTOR ( 'NONE', #8, 1000.000000000000000 ) ;
#377 = CARTESIAN_POINT ( 'NONE',  ( 71.49999999999998579, 22.49999999999999645, 0.000000000000000000 ) ) ;
#378 = CARTESIAN_POINT ( 'NONE',  ( 66.49999999999997158, -22.50000000000000355, 1.500000000000000000 ) ) ;
#379 = CARTESIAN_POINT ( 'NONE',  ( 65.00000000000001421, 15.99999999999998934, 0.000000000000000000 ) ) ;
#380 = AXIS2_PLACEMENT_3D ( 'NONE', #444, #73, #293 ) ;
#381 = FACE_OUTER_BOUND ( 'NONE', #418, .T. ) ;
#382 = EDGE_CURVE ( 'NONE', #523, #609, #460, .T. ) ;
#383 = DIRECTION ( 'NONE',  ( -0.000000000000000000, -0.000000000000000000, 1.000000000000000000 ) ) ;
#384 = DIRECTION ( 'NONE',  ( -0.000000000000000000, 0.000000000000000000, -1.000000000000000000 ) ) ;
#385 = ORIENTED_EDGE ( 'NONE', *, *, #247, .T. ) ;
#386 = PRESENTATION_LAYER_ASSIGNMENT (  '', '', ( #166 ) ) ;
#387 = LINE ( 'NONE', #470, #501 ) ;
#388 = ORIENTED_EDGE ( 'NONE', *, *, #66, .T. ) ;
#389 = PLANE ( 'NONE',  #4 ) ;
#390 = AXIS2_PLACEMENT_3D ( 'NONE', #218, #1, #334 ) ;
#391 = DIRECTION ( 'NONE',  ( -1.000000000000000000, 0.000000000000000000, 0.000000000000000000 ) ) ;
#392 = CARTESIAN_POINT ( 'NONE',  ( -71.50000000000001421, 22.49999999999999645, 1.500000000000000000 ) ) ;
#393 = VERTEX_POINT ( 'NONE', #522 ) ;
#394 = PLANE ( 'NONE',  #380 ) ;
#395 = ADVANCED_FACE ( 'NONE', ( #176 ), #137, .F. ) ;
#396 = CIRCLE ( 'NONE', #15, 5.000000000000004441 ) ;
#397 = LINE ( 'NONE', #346, #30 ) ;
#398 = ORIENTED_EDGE ( 'NONE', *, *, #477, .T. ) ;
#399 = CARTESIAN_POINT ( 'NONE',  ( -62.74999999999998579, 15.99999999999998934, 1.500000000000000000 ) ) ;
#400 = ORIENTED_EDGE ( 'NONE', *, *, #79, .F. ) ;
#401 = AXIS2_PLACEMENT_3D ( 'NONE', #466, #469, #575 ) ;
#402 = DIRECTION ( 'NONE',  ( 0.000000000000000000, 0.000000000000000000, -1.000000000000000000 ) ) ;
#403 = EDGE_LOOP ( 'NONE', ( #385, #45 ) ) ;
#404 = DIRECTION ( 'NONE',  ( 1.000000000000000000, 0.000000000000000000, 0.000000000000000000 ) ) ;
#405 = LINE ( 'NONE', #674, #350 ) ;
#406 = ORIENTED_EDGE ( 'NONE', *, *, #172, .F. ) ;
#407 = SURFACE_SIDE_STYLE ('',( #249 ) ) ;
#408 = FILL_AREA_STYLE ('',( #670 ) ) ;
#409 = CARTESIAN_POINT ( 'NONE',  ( 66.49999999999997158, 17.49999999999999645, 1.500000000000000000 ) ) ;
#410 = ORIENTED_EDGE ( 'NONE', *, *, #487, .F. ) ;
#411 = APPLICATION_PROTOCOL_DEFINITION ( 'draft international standard', 'automotive_design', 1998, #362 ) ;
#412 = CIRCLE ( 'NONE', #305, 4.999999999999997335 ) ;
#413 = DIRECTION ( 'NONE',  ( 0.000000000000000000, 0.000000000000000000, -1.000000000000000000 ) ) ;
#414 = AXIS2_PLACEMENT_3D ( 'NONE', #574, #402, #622 ) ;
#415 = CYLINDRICAL_SURFACE ( 'NONE', #236, 2.250000000000001776 ) ;
#416 = EDGE_CURVE ( 'NONE', #655, #198, #169, .T. ) ;
#417 = DIRECTION ( 'NONE',  ( 0.000000000000000000, 0.000000000000000000, 1.000000000000000000 ) ) ;
#418 = EDGE_LOOP ( 'NONE', ( #585, #370, #146, #645 ) ) ;
#419 = EDGE_LOOP ( 'NONE', ( #544, #220, #352, #527 ) ) ;
#420 = AXIS2_PLACEMENT_3D ( 'NONE', #514, #598, #644 ) ;
#421 = DIRECTION ( 'NONE',  ( 0.000000000000000000, 1.000000000000000000, 0.000000000000000000 ) ) ;
#422 = LINE ( 'NONE', #101, #376 ) ;
#423 = EDGE_CURVE ( 'NONE', #448, #540, #207, .T. ) ;
#424 = VERTEX_POINT ( 'NONE', #530 ) ;
#425 = ORIENTED_EDGE ( 'NONE', *, *, #79, .T. ) ;
#426 = DIRECTION ( 'NONE',  ( 0.000000000000000000, 0.000000000000000000, -1.000000000000000000 ) ) ;
#427 = DIRECTION ( 'NONE',  ( -1.000000000000000000, 0.000000000000000000, 0.000000000000000000 ) ) ;
#428 = DIRECTION ( 'NONE',  ( -1.000000000000000000, 0.000000000000000000, 0.000000000000000000 ) ) ;
#429 = AXIS2_PLACEMENT_3D ( 'NONE', #91, #426, #93 ) ;
#430 = ORIENTED_EDGE ( 'NONE', *, *, #40, .T. ) ;
#431 = DIRECTION ( 'NONE',  ( -1.000000000000000000, 0.000000000000000000, 0.000000000000000000 ) ) ;
#432 = LINE ( 'NONE', #254, #199 ) ;
#433 = VERTEX_POINT ( 'NONE', #690 ) ;
#434 = ORIENTED_EDGE ( 'NONE', *, *, #56, .T. ) ;
#435 = EDGE_CURVE ( 'NONE', #198, #159, #13, .T. ) ;
#436 = CARTESIAN_POINT ( 'NONE',  ( -64.99999999999998579, 15.99999999999998934, 0.000000000000000000 ) ) ;
#437 = CARTESIAN_POINT ( 'NONE',  ( 0.000000000000000000, 0.000000000000000000, 0.000000000000000000 ) ) ;
#438 = DIRECTION ( 'NONE',  ( -1.000000000000000000, 0.000000000000000000, 0.000000000000000000 ) ) ;
#439 = DIRECTION ( 'NONE',  ( 0.000000000000000000, 0.000000000000000000, -1.000000000000000000 ) ) ;
#440 = CIRCLE ( 'NONE', #315, 2.250000000000001776 ) ;
#441 = DIRECTION ( 'NONE',  ( -0.000000000000000000, -0.000000000000000000, -1.000000000000000000 ) ) ;
#442 = VECTOR ( 'NONE', #589, 1000.000000000000000 ) ;
#443 = ADVANCED_BREP_SHAPE_REPRESENTATION ( '21631_03_193_sheetmetal socket cover robot', ( #494, #364 ), #203 ) ;
#444 = CARTESIAN_POINT ( 'NONE',  ( 71.49999999999998579, 22.49999999999999645, 1.500000000000000000 ) ) ;
#445 = AXIS2_PLACEMENT_3D ( 'NONE', #496, #664, #391 ) ;
#446 = DIRECTION ( 'NONE',  ( 0.000000000000000000, 0.000000000000000000, -1.000000000000000000 ) ) ;
#447 = EDGE_CURVE ( 'NONE', #330, #523, #35, .T. ) ;
#448 = VERTEX_POINT ( 'NONE', #698 ) ;
#449 = CARTESIAN_POINT ( 'NONE',  ( -18.00000000000000000, 2.204364238465235428E-15, -0.0009999999999999158867 ) ) ;
#450 = ORIENTED_EDGE ( 'NONE', *, *, #133, .T. ) ;
#451 = DIRECTION ( 'NONE',  ( -1.000000000000000000, 0.000000000000000000, 0.000000000000000000 ) ) ;
#452 = EDGE_LOOP ( 'NONE', ( #33, #545, #148, #450 ) ) ;
#453 = EDGE_LOOP ( 'NONE', ( #230, #233, #251, #21 ) ) ;
#454 = DIRECTION ( 'NONE',  ( 0.000000000000000000, 0.000000000000000000, -1.000000000000000000 ) ) ;
#455 = ADVANCED_FACE ( 'NONE', ( #302 ), #541, .T. ) ;
#456 = CARTESIAN_POINT ( 'NONE',  ( 71.49999999999998579, -17.49999999999998579, 0.000000000000000000 ) ) ;
#457 = SURFACE_STYLE_USAGE ( .BOTH. , #407 ) ;
#458 = AXIS2_PLACEMENT_3D ( 'NONE', #565, #122, #663 ) ;
#459 =( NAMED_UNIT ( * ) SI_UNIT ( $, .STERADIAN. ) SOLID_ANGLE_UNIT ( ) );
#460 = LINE ( 'NONE', #677, #591 ) ;
#461 = CYLINDRICAL_SURFACE ( 'NONE', #705, 2.250000000000001776 ) ;
#462 = CIRCLE ( 'NONE', #77, 18.00000000000000000 ) ;
#463 = ORIENTED_EDGE ( 'NONE', *, *, #323, .F. ) ;
#464 = ORIENTED_EDGE ( 'NONE', *, *, #423, .F. ) ;
#465 = CARTESIAN_POINT ( 'NONE',  ( -64.99999999999998579, 15.99999999999998934, 1.500000000000000000 ) ) ;
#466 = CARTESIAN_POINT ( 'NONE',  ( -66.50000000000000000, -17.50000000000000000, 1.500000000000000000 ) ) ;
#467 = EDGE_CURVE ( 'NONE', #159, #322, #412, .T. ) ;
#468 = CARTESIAN_POINT ( 'NONE',  ( 67.25000000000001421, -16.00000000000001066, 1.500000000000000000 ) ) ;
#469 = DIRECTION ( 'NONE',  ( 0.000000000000000000, 0.000000000000000000, -1.000000000000000000 ) ) ;
#470 = CARTESIAN_POINT ( 'NONE',  ( 71.49999999999998579, 22.49999999999999645, 0.000000000000000000 ) ) ;
#471 = ORIENTED_EDGE ( 'NONE', *, *, #707, .T. ) ;
#472 = DIRECTION ( 'NONE',  ( -1.000000000000000000, 0.000000000000000000, 0.000000000000000000 ) ) ;
#473 = FACE_BOUND ( 'NONE', #510, .T. ) ;
#474 = AXIS2_PLACEMENT_3D ( 'NONE', #615, #348, #226 ) ;
#475 = VECTOR ( 'NONE', #118, 1000.000000000000000 ) ;
#476 = FACE_OUTER_BOUND ( 'NONE', #579, .T. ) ;
#477 = EDGE_CURVE ( 'NONE', #341, #181, #257, .T. ) ;
#478 = CARTESIAN_POINT ( 'NONE',  ( 65.00000000000001421, -16.00000000000001066, 1.500000000000000000 ) ) ;
#479 = VECTOR ( 'NONE', #248, 1000.000000000000000 ) ;
#480 = PLANE ( 'NONE',  #206 ) ;
#481 = ORIENTED_EDGE ( 'NONE', *, *, #695, .F. ) ;
#482 = PRESENTATION_LAYER_ASSIGNMENT (  '', '', ( #191 ) ) ;
#483 = CARTESIAN_POINT ( 'NONE',  ( -67.24999999999998579, -16.00000000000001066, 0.000000000000000000 ) ) ;
#484 = EDGE_LOOP ( 'NONE', ( #682, #274 ) ) ;
#485 = CIRCLE ( 'NONE', #420, 2.250000000000001776 ) ;
#486 = CIRCLE ( 'NONE', #126, 2.250000000000001776 ) ;
#487 = EDGE_CURVE ( 'NONE', #38, #239, #701, .T. ) ;
#488 = DIRECTION ( 'NONE',  ( -1.000000000000000000, 0.000000000000000000, 0.000000000000000000 ) ) ;
#489 = CARTESIAN_POINT ( 'NONE',  ( -64.99999999999998579, -16.00000000000001066, 1.500000000000000000 ) ) ;
#490 = DIRECTION ( 'NONE',  ( 0.000000000000000000, 0.000000000000000000, -1.000000000000000000 ) ) ;
#491 = CARTESIAN_POINT ( 'NONE',  ( 71.49999999999998579, 22.49999999999999645, 1.500000000000000000 ) ) ;
#492 = ORIENTED_EDGE ( 'NONE', *, *, #154, .F. ) ;
#493 = AXIS2_PLACEMENT_3D ( 'NONE', #631, #417, #76 ) ;
#494 = MANIFOLD_SOLID_BREP ( 'Schnitt-Linear austragen1', #68 ) ;
#495 = SURFACE_SIDE_STYLE ('',( #612 ) ) ;
#496 = CARTESIAN_POINT ( 'NONE',  ( 0.000000000000000000, 0.000000000000000000, 0.000000000000000000 ) ) ;
#497 =( NAMED_UNIT ( * ) PLANE_ANGLE_UNIT ( ) SI_UNIT ( $, .RADIAN. ) );
#498 = CARTESIAN_POINT ( 'NONE',  ( 18.00000000000000000, 0.000000000000000000, 1.500000000000000000 ) ) ;
#499 = CIRCLE ( 'NONE', #97, 2.250000000000001776 ) ;
#500 = DIRECTION ( 'NONE',  ( -1.000000000000000000, 0.000000000000000000, 0.000000000000000000 ) ) ;
#501 = VECTOR ( 'NONE', #2, 1000.000000000000000 ) ;
#502 = ADVANCED_FACE ( 'NONE', ( #691 ), #531, .F. ) ;
#503 = AXIS2_PLACEMENT_3D ( 'NONE', #49, #441, #113 ) ;
#504 = CARTESIAN_POINT ( 'NONE',  ( 0.000000000000000000, 0.000000000000000000, 1.500000000000000000 ) ) ;
#505 = PLANE ( 'NONE',  #225 ) ;
#506 = VERTEX_POINT ( 'NONE', #61 ) ;
#507 = CARTESIAN_POINT ( 'NONE',  ( 66.49999999999997158, -17.49999999999999645, 1.500000000000000000 ) ) ;
#508 = ORIENTED_EDGE ( 'NONE', *, *, #697, .T. ) ;
#509 =( NAMED_UNIT ( * ) SI_UNIT ( $, .STERADIAN. ) SOLID_ANGLE_UNIT ( ) );
#510 = EDGE_LOOP ( 'NONE', ( #158, #568 ) ) ;
#511 = FACE_OUTER_BOUND ( 'NONE', #699, .T. ) ;
#512 = CIRCLE ( 'NONE', #317, 2.250000000000001776 ) ;
#513 = ORIENTED_EDGE ( 'NONE', *, *, #374, .T. ) ;
#514 = CARTESIAN_POINT ( 'NONE',  ( 65.00000000000001421, -16.00000000000001066, -0.000000000000000000 ) ) ;
#515 = VERTEX_POINT ( 'NONE', #498 ) ;
#516 = DIRECTION ( 'NONE',  ( 0.000000000000000000, 0.000000000000000000, -1.000000000000000000 ) ) ;
#517 = DIRECTION ( 'NONE',  ( 1.000000000000000000, 0.000000000000000000, 0.000000000000000000 ) ) ;
#518 = ORIENTED_EDGE ( 'NONE', *, *, #120, .F. ) ;
#519 = AXIS2_PLACEMENT_3D ( 'NONE', #504, #177, #285 ) ;
#520 = CARTESIAN_POINT ( 'NONE',  ( -67.24999999999998579, -16.00000000000001066, 1.500000000000000000 ) ) ;
#521 = LINE ( 'NONE', #399, #367 ) ;
#522 = CARTESIAN_POINT ( 'NONE',  ( 71.49999999999998579, 17.49999999999999645, 1.500000000000000000 ) ) ;
#523 = VERTEX_POINT ( 'NONE', #16 ) ;
#524 = ORIENTED_EDGE ( 'NONE', *, *, #211, .F. ) ;
#525 = EDGE_LOOP ( 'NONE', ( #532, #689, #190, #9 ) ) ;
#526 = EDGE_CURVE ( 'NONE', #515, #272, #86, .T. ) ;
#527 = ORIENTED_EDGE ( 'NONE', *, *, #526, .T. ) ;
#528 = ORIENTED_EDGE ( 'NONE', *, *, #66, .F. ) ;
#529 = CARTESIAN_POINT ( 'NONE',  ( -66.50000000000000000, -22.50000000000000355, 1.500000000000000000 ) ) ;
#530 = CARTESIAN_POINT ( 'NONE',  ( 67.25000000000001421, 15.99999999999998934, 1.500000000000000000 ) ) ;
#531 = CYLINDRICAL_SURFACE ( 'NONE', #458, 2.250000000000001776 ) ;
#532 = ORIENTED_EDGE ( 'NONE', *, *, #240, .F. ) ;
#533 = PRODUCT ( '21631_03_193_sheetmetal socket cover robot', '21631_03_193_sheetmetal socket cover robot', '', ( #676 ) ) ;
#534 = AXIS2_PLACEMENT_3D ( 'NONE', #132, #298, #673 ) ;
#535 = CARTESIAN_POINT ( 'NONE',  ( 71.49999999999998579, 22.49999999999999645, 1.500000000000000000 ) ) ;
#536 = DIRECTION ( 'NONE',  ( -1.000000000000000000, 0.000000000000000000, 0.000000000000000000 ) ) ;
#537 = CARTESIAN_POINT ( 'NONE',  ( 66.49999999999997158, -17.49999999999999645, 0.000000000000000000 ) ) ;
#538 = EDGE_CURVE ( 'NONE', #336, #649, #547, .T. ) ;
#539 = EDGE_LOOP ( 'NONE', ( #481, #464 ) ) ;
#540 = VERTEX_POINT ( 'NONE', #67 ) ;
#541 = PLANE ( 'NONE',  #390 ) ;
#542 = DIRECTION ( 'NONE',  ( 0.000000000000000000, 0.000000000000000000, -1.000000000000000000 ) ) ;
#543 = AXIS2_PLACEMENT_3D ( 'NONE', #569, #300, #188 ) ;
#544 = ORIENTED_EDGE ( 'NONE', *, *, #290, .F. ) ;
#545 = ORIENTED_EDGE ( 'NONE', *, *, #193, .T. ) ;
#546 = EDGE_LOOP ( 'NONE', ( #657, #573, #255, #168, #425, #31, #151, #278 ) ) ;
#547 = CIRCLE ( 'NONE', #342, 2.250000000000001776 ) ;
#548 = SHAPE_DEFINITION_REPRESENTATION ( #635, #443 ) ;
#549 = CYLINDRICAL_SURFACE ( 'NONE', #577, 5.000000000000004441 ) ;
#550 = CARTESIAN_POINT ( 'NONE',  ( 67.25000000000001421, -16.00000000000001066, 1.500000000000000000 ) ) ;
#551 = FILL_AREA_STYLE ('',( #164 ) ) ;
#552 = DIRECTION ( 'NONE',  ( 0.000000000000000000, -0.000000000000000000, 1.000000000000000000 ) ) ;
#553 = DIRECTION ( 'NONE',  ( 0.000000000000000000, 0.000000000000000000, -1.000000000000000000 ) ) ;
#554 = SURFACE_STYLE_USAGE ( .BOTH. , #495 ) ;
#555 = CARTESIAN_POINT ( 'NONE',  ( -71.50000000000001421, 22.49999999999999645, 1.500000000000000000 ) ) ;
#556 = DIRECTION ( 'NONE',  ( 1.000000000000000000, 0.000000000000000000, 0.000000000000000000 ) ) ;
#557 = FACE_OUTER_BOUND ( 'NONE', #546, .T. ) ;
#558 = COLOUR_RGB ( '',0.7529411764705882248, 0.7529411764705882248, 0.7529411764705882248 ) ;
#559 = ADVANCED_FACE ( 'NONE', ( #511 ), #313, .F. ) ;
#560 = ORIENTED_EDGE ( 'NONE', *, *, #683, .T. ) ;
#561 =( NAMED_UNIT ( * ) SI_UNIT ( $, .STERADIAN. ) SOLID_ANGLE_UNIT ( ) );
#562 = CARTESIAN_POINT ( 'NONE',  ( -64.99999999999998579, 15.99999999999998934, 1.500000000000000000 ) ) ;
#563 = ADVANCED_FACE ( 'NONE', ( #375 ), #592, .T. ) ;
#564 = CARTESIAN_POINT ( 'NONE',  ( -71.50000000000001421, 17.49999999999999645, 0.000000000000000000 ) ) ;
#565 = CARTESIAN_POINT ( 'NONE',  ( 65.00000000000001421, -16.00000000000001066, 1.500000000000000000 ) ) ;
#566 = DIRECTION ( 'NONE',  ( 0.000000000000000000, 0.000000000000000000, -1.000000000000000000 ) ) ;
#567 = CARTESIAN_POINT ( 'NONE',  ( -71.50000000000001421, -17.49999999999998579, 1.500000000000000000 ) ) ;
#568 = ORIENTED_EDGE ( 'NONE', *, *, #477, .F. ) ;
#569 = CARTESIAN_POINT ( 'NONE',  ( -66.50000000000000000, 17.49999999999999645, 1.500000000000000000 ) ) ;
#570 = VERTEX_POINT ( 'NONE', #520 ) ;
#571 = ORIENTED_EDGE ( 'NONE', *, *, #467, .F. ) ;
#572 = DIRECTION ( 'NONE',  ( -1.000000000000000000, 0.000000000000000000, 0.000000000000000000 ) ) ;
#573 = ORIENTED_EDGE ( 'NONE', *, *, #416, .T. ) ;
#574 = CARTESIAN_POINT ( 'NONE',  ( -64.99999999999998579, 15.99999999999998934, 0.000000000000000000 ) ) ;
#575 = DIRECTION ( 'NONE',  ( -1.000000000000000000, 0.000000000000000000, 0.000000000000000000 ) ) ;
#576 = ADVANCED_FACE ( 'NONE', ( #69 ), #36, .T. ) ;
#577 = AXIS2_PLACEMENT_3D ( 'NONE', #29, #686, #629 ) ;
#578 = DIRECTION ( 'NONE',  ( 0.000000000000000000, 0.000000000000000000, -1.000000000000000000 ) ) ;
#579 = EDGE_LOOP ( 'NONE', ( #410, #560, #222, #687, #593, #84, #90, #266 ) ) ;
#580 = DIRECTION ( 'NONE',  ( 0.000000000000000000, 0.000000000000000000, -1.000000000000000000 ) ) ;
#581 = CARTESIAN_POINT ( 'NONE',  ( -66.50000000000000000, 22.49999999999999645, 1.500000000000000000 ) ) ;
#582 = LINE ( 'NONE', #263, #708 ) ;
#583 = EDGE_LOOP ( 'NONE', ( #513, #650 ) ) ;
#584 = ADVANCED_FACE ( 'NONE', ( #692 ), #661, .F. ) ;
#585 = ORIENTED_EDGE ( 'NONE', *, *, #586, .F. ) ;
#586 = EDGE_CURVE ( 'NONE', #424, #694, #440, .T. ) ;
#587 =( GEOMETRIC_REPRESENTATION_CONTEXT ( 3 ) GLOBAL_UNCERTAINTY_ASSIGNED_CONTEXT ( ( #314 ) ) GLOBAL_UNIT_ASSIGNED_CONTEXT ( ( #237, #74, #459 ) ) REPRESENTATION_CONTEXT ( 'NONE', 'WORKASPACE' ) );
#588 = CARTESIAN_POINT ( 'NONE',  ( 65.00000000000001421, 15.99999999999998934, 1.500000000000000000 ) ) ;
#589 = DIRECTION ( 'NONE',  ( -0.000000000000000000, -0.000000000000000000, 1.000000000000000000 ) ) ;
#590 = EDGE_CURVE ( 'NONE', #147, #336, #196, .T. ) ;
#591 = VECTOR ( 'NONE', #78, 1000.000000000000000 ) ;
#592 = CYLINDRICAL_SURFACE ( 'NONE', #401, 5.000000000000004441 ) ;
#593 = ORIENTED_EDGE ( 'NONE', *, *, #51, .F. ) ;
#594 = ORIENTED_EDGE ( 'NONE', *, *, #133, .F. ) ;
#595 = ORIENTED_EDGE ( 'NONE', *, *, #707, .F. ) ;
#596 = VERTEX_POINT ( 'NONE', #529 ) ;
#597 = EDGE_CURVE ( 'NONE', #308, #433, #626, .T. ) ;
#598 = DIRECTION ( 'NONE',  ( 0.000000000000000000, 0.000000000000000000, -1.000000000000000000 ) ) ;
#599 = DIRECTION ( 'NONE',  ( -1.000000000000000000, 0.000000000000000000, 0.000000000000000000 ) ) ;
#600 = EDGE_LOOP ( 'NONE', ( #434, #192, #400, #388 ) ) ;
#601 = AXIS2_PLACEMENT_3D ( 'NONE', #136, #241, #517 ) ;
#602 = CARTESIAN_POINT ( 'NONE',  ( 66.49999999999997158, 22.49999999999999645, 1.500000000000000000 ) ) ;
#603 = EDGE_CURVE ( 'NONE', #141, #515, #310, .T. ) ;
#604 = CARTESIAN_POINT ( 'NONE',  ( -62.74999999999998579, -16.00000000000001066, 1.500000000000000000 ) ) ;
#605 = ORIENTED_EDGE ( 'NONE', *, *, #538, .F. ) ;
#606 = CARTESIAN_POINT ( 'NONE',  ( -64.99999999999998579, -16.00000000000001066, 1.500000000000000000 ) ) ;
#607 = DIRECTION ( 'NONE',  ( 0.000000000000000000, 0.000000000000000000, -1.000000000000000000 ) ) ;
#608 = EDGE_LOOP ( 'NONE', ( #628, #709, #252, #42 ) ) ;
#609 = VERTEX_POINT ( 'NONE', #378 ) ;
#610 = CARTESIAN_POINT ( 'NONE',  ( -64.99999999999998579, -16.00000000000001066, 1.500000000000000000 ) ) ;
#611 = DIRECTION ( 'NONE',  ( -1.000000000000000000, 0.000000000000000000, 0.000000000000000000 ) ) ;
#612 = SURFACE_STYLE_FILL_AREA ( #551 ) ;
#613 = CARTESIAN_POINT ( 'NONE',  ( -64.99999999999998579, -16.00000000000001066, 1.500000000000000000 ) ) ;
#614 = ORIENTED_EDGE ( 'NONE', *, *, #25, .F. ) ;
#615 = CARTESIAN_POINT ( 'NONE',  ( 66.49999999999997158, -17.49999999999999645, 1.500000000000000000 ) ) ;
#616 = EDGE_CURVE ( 'NONE', #570, #649, #329, .T. ) ;
#617 = DIRECTION ( 'NONE',  ( -0.000000000000000000, 1.000000000000000000, -0.000000000000000000 ) ) ;
#618 = ADVANCED_FACE ( 'NONE', ( #170 ), #461, .F. ) ;
#619 = ORIENTED_EDGE ( 'NONE', *, *, #597, .F. ) ;
#620 = CARTESIAN_POINT ( 'NONE',  ( 65.00000000000001421, 15.99999999999998934, 0.000000000000000000 ) ) ;
#621 = AXIS2_PLACEMENT_3D ( 'NONE', #537, #155, #325 ) ;
#622 = DIRECTION ( 'NONE',  ( -1.000000000000000000, 0.000000000000000000, 0.000000000000000000 ) ) ;
#623 = EDGE_CURVE ( 'NONE', #523, #205, #14, .T. ) ;
#624 = CARTESIAN_POINT ( 'NONE',  ( 71.49999999999998579, -22.50000000000000355, 1.500000000000000000 ) ) ;
#625 = FACE_BOUND ( 'NONE', #539, .T. ) ;
#626 = LINE ( 'NONE', #312, #479 ) ;
#627 = ADVANCED_FACE ( 'NONE', ( #381 ), #288, .F. ) ;
#628 = ORIENTED_EDGE ( 'NONE', *, *, #88, .F. ) ;
#629 = DIRECTION ( 'NONE',  ( -1.000000000000000000, 0.000000000000000000, 0.000000000000000000 ) ) ;
#630 = APPLICATION_PROTOCOL_DEFINITION ( 'draft international standard', 'automotive_design', 1998, #360 ) ;
#631 = CARTESIAN_POINT ( 'NONE',  ( 0.000000000000000000, 0.000000000000000000, 1.500000000000000000 ) ) ;
#632 = DIRECTION ( 'NONE',  ( 0.000000000000000000, 0.000000000000000000, -1.000000000000000000 ) ) ;
#633 = AXIS2_PLACEMENT_3D ( 'NONE', #478, #145, #197 ) ;
#634 = PRODUCT_DEFINITION_CONTEXT ( 'detailed design', #362, 'design' ) ;
#635 = PRODUCT_DEFINITION_SHAPE ( 'NONE', 'NONE',  #640 ) ;
#636 = CIRCLE ( 'NONE', #163, 2.250000000000001776 ) ;
#637 = EDGE_LOOP ( 'NONE', ( #46, #373, #704, #161 ) ) ;
#638 = EDGE_CURVE ( 'NONE', #205, #639, #80, .T. ) ;
#639 = VERTEX_POINT ( 'NONE', #128 ) ;
#640 = PRODUCT_DEFINITION ( 'UNKNOWN', '', #339, #634 ) ;
#641 = LINE ( 'NONE', #449, #309 ) ;
#642 = DIRECTION ( 'NONE',  ( 1.000000000000000000, -0.000000000000000000, -0.000000000000000000 ) ) ;
#643 = AXIS2_PLACEMENT_3D ( 'NONE', #110, #439, #500 ) ;
#644 = DIRECTION ( 'NONE',  ( -1.000000000000000000, 0.000000000000000000, 0.000000000000000000 ) ) ;
#645 = ORIENTED_EDGE ( 'NONE', *, *, #144, .F. ) ;
#646 = CIRCLE ( 'NONE', #543, 5.000000000000004441 ) ;
#647 = FACE_OUTER_BOUND ( 'NONE', #452, .T. ) ;
#648 = AXIS2_PLACEMENT_3D ( 'NONE', #507, #668, #134 ) ;
#649 = VERTEX_POINT ( 'NONE', #483 ) ;
#650 = ORIENTED_EDGE ( 'NONE', *, *, #586, .T. ) ;
#651 = EDGE_CURVE ( 'NONE', #353, #596, #396, .T. ) ;
#652 = CIRCLE ( 'NONE', #445, 18.00000000000000000 ) ;
#653 = ORIENTED_EDGE ( 'NONE', *, *, #261, .T. ) ;
#654 = DIRECTION ( 'NONE',  ( 1.000000000000000000, -0.000000000000000000, -0.000000000000000000 ) ) ;
#655 = VERTEX_POINT ( 'NONE', #564 ) ;
#656 = CARTESIAN_POINT ( 'NONE',  ( -66.50000000000000000, 22.49999999999999645, 0.000000000000000000 ) ) ;
#657 = ORIENTED_EDGE ( 'NONE', *, *, #11, .T. ) ;
#658 = CARTESIAN_POINT ( 'NONE',  ( -62.74999999999998579, 15.99999999999998934, 0.000000000000000000 ) ) ;
#659 = ORIENTED_EDGE ( 'NONE', *, *, #526, .F. ) ;
#660 = DIRECTION ( 'NONE',  ( 0.000000000000000000, 0.000000000000000000, -1.000000000000000000 ) ) ;
#661 = CYLINDRICAL_SURFACE ( 'NONE', #601, 18.00000000000000000 ) ;
#662 = AXIS2_PLACEMENT_3D ( 'NONE', #121, #354, #678 ) ;
#663 = DIRECTION ( 'NONE',  ( -1.000000000000000000, 0.000000000000000000, 0.000000000000000000 ) ) ;
#664 = DIRECTION ( 'NONE',  ( 0.000000000000000000, 0.000000000000000000, 1.000000000000000000 ) ) ;
#665 = ORIENTED_EDGE ( 'NONE', *, *, #590, .F. ) ;
#666 = ADVANCED_FACE ( 'NONE', ( #258 ), #26, .T. ) ;
#667 = EDGE_CURVE ( 'NONE', #186, #181, #702, .T. ) ;
#668 = DIRECTION ( 'NONE',  ( 0.000000000000000000, 0.000000000000000000, -1.000000000000000000 ) ) ;
#669 = FACE_OUTER_BOUND ( 'NONE', #3, .T. ) ;
#670 = FILL_AREA_STYLE_COLOUR ( '', #558 ) ;
#671 = MECHANICAL_DESIGN_GEOMETRIC_PRESENTATION_REPRESENTATION (  '', ( #166 ), #587 ) ;
#672 = CARTESIAN_POINT ( 'NONE',  ( -64.99999999999998579, -16.00000000000001066, 0.000000000000000000 ) ) ;
#673 = DIRECTION ( 'NONE',  ( -1.000000000000000000, 0.000000000000000000, 0.000000000000000000 ) ) ;
#674 = CARTESIAN_POINT ( 'NONE',  ( 67.25000000000001421, 15.99999999999998934, 1.500000000000000000 ) ) ;
#675 = AXIS2_PLACEMENT_3D ( 'NONE', #489, #553, #711 ) ;
#676 = PRODUCT_CONTEXT ( 'NONE', #360, 'mechanical' ) ;
#677 = CARTESIAN_POINT ( 'NONE',  ( 66.49999999999997158, -22.50000000000000355, 1.500000000000000000 ) ) ;
#678 = DIRECTION ( 'NONE',  ( -1.000000000000000000, 0.000000000000000000, 0.000000000000000000 ) ) ;
#679 = CIRCLE ( 'NONE', #256, 2.250000000000001776 ) ;
#680 = VECTOR ( 'NONE', #700, 1000.000000000000000 ) ;
#681 = LINE ( 'NONE', #162, #475 ) ;
#682 = ORIENTED_EDGE ( 'NONE', *, *, #182, .T. ) ;
#683 = EDGE_CURVE ( 'NONE', #38, #345, #646, .T. ) ;
#684 = CARTESIAN_POINT ( 'NONE',  ( -71.50000000000001421, 22.49999999999999645, 0.000000000000000000 ) ) ;
#685 = ORIENTED_EDGE ( 'NONE', *, *, #332, .F. ) ;
#686 = DIRECTION ( 'NONE',  ( 0.000000000000000000, 0.000000000000000000, -1.000000000000000000 ) ) ;
#687 = ORIENTED_EDGE ( 'NONE', *, *, #651, .T. ) ;
#688 = AXIS2_PLACEMENT_3D ( 'NONE', #620, #578, #283 ) ;
#689 = ORIENTED_EDGE ( 'NONE', *, *, #382, .F. ) ;
#690 = CARTESIAN_POINT ( 'NONE',  ( 62.75000000000001421, -16.00000000000001066, -0.000000000000000000 ) ) ;
#691 = FACE_OUTER_BOUND ( 'NONE', #297, .T. ) ;
#692 = FACE_OUTER_BOUND ( 'NONE', #608, .T. ) ;
#693 = VECTOR ( 'NONE', #217, 1000.000000000000000 ) ;
#694 = VERTEX_POINT ( 'NONE', #234 ) ;
#695 = EDGE_CURVE ( 'NONE', #540, #448, #227, .T. ) ;
#696 = DIRECTION ( 'NONE',  ( 0.000000000000000000, 0.000000000000000000, -1.000000000000000000 ) ) ;
#697 = EDGE_CURVE ( 'NONE', #181, #341, #62, .T. ) ;
#698 = CARTESIAN_POINT ( 'NONE',  ( 67.25000000000001421, 15.99999999999998934, 0.000000000000000000 ) ) ;
#699 = EDGE_LOOP ( 'NONE', ( #50, #524, #365, #508 ) ) ;
#700 = DIRECTION ( 'NONE',  ( -1.000000000000000000, 0.000000000000000000, 0.000000000000000000 ) ) ;
#701 = LINE ( 'NONE', #491, #115 ) ;
#702 = LINE ( 'NONE', #125, #242 ) ;
#703 = LINE ( 'NONE', #684, #291 ) ;
#704 = ORIENTED_EDGE ( 'NONE', *, *, #597, .T. ) ;
#705 = AXIS2_PLACEMENT_3D ( 'NONE', #606, #103, #536 ) ;
#706 = CARTESIAN_POINT ( 'NONE',  ( -67.24999999999998579, 15.99999999999998934, 1.500000000000000000 ) ) ;
#707 = EDGE_CURVE ( 'NONE', #649, #336, #636, .T. ) ;
#708 = VECTOR ( 'NONE', #383, 1000.000000000000000 ) ;
#709 = ORIENTED_EDGE ( 'NONE', *, *, #290, .T. ) ;
#710 = ORIENTED_EDGE ( 'NONE', *, *, #638, .F. ) ;
#711 = DIRECTION ( 'NONE',  ( -1.000000000000000000, 0.000000000000000000, 0.000000000000000000 ) ) ;
#712 = CARTESIAN_POINT ( 'NONE',  ( 66.49999999999997158, 22.49999999999999645, 0.000000000000000000 ) ) ;
ENDSEC;
END-ISO-10303-21;
