ISO-10303-21;
HEADER;
FILE_DESCRIPTION(('FreeCAD Model'),'2;1');
FILE_NAME('Open CASCADE Shape Model','2026-02-15T17:18:25',('FreeCAD'),(
    'FreeCAD'),'Open CASCADE STEP processor 7.8','FreeCAD','Unknown');
FILE_SCHEMA((
'AP242_MANAGED_MODEL_BASED_3D_ENGINEERING_MIM_LF. {1 0 10303 442 1 1 4 
}'));
ENDSEC;
DATA;
#1 = APPLICATION_PROTOCOL_DEFINITION('international standard',
  'ap242_managed_model_based_3d_engineering',2013,#2);
#2 = APPLICATION_CONTEXT('Managed model based 3d engineering');
#3 = SHAPE_DEFINITION_REPRESENTATION(#4,#10);
#4 = PRODUCT_DEFINITION_SHAPE('','',#5);
#5 = PRODUCT_DEFINITION('design','',#6,#9);
#6 = PRODUCT_DEFINITION_FORMATION('','',#7);
#7 = PRODUCT('Open CASCADE STEP translator 7.8 3',
  'Open CASCADE STEP translator 7.8 3','',(#8));
#8 = PRODUCT_CONTEXT('',#2,'mechanical');
#9 = PRODUCT_DEFINITION_CONTEXT('part definition',#2,'design');
#10 = ADVANCED_BREP_SHAPE_REPRESENTATION('',(#11,#15),#1430);
#11 = AXIS2_PLACEMENT_3D('',#12,#13,#14);
#12 = CARTESIAN_POINT('',(0.,0.,0.));
#13 = DIRECTION('',(0.,0.,1.));
#14 = DIRECTION('',(1.,0.,-0.));
#15 = MANIFOLD_SOLID_BREP('',#16);
#16 = CLOSED_SHELL('',(#17,#194,#214,#234,#357,#480,#729,#754,#774,#917,
    #1060,#1080,#1139,#1212,#1237,#1269,#1300,#1317,#1343,#1363,#1381,
    #1401,#1413));
#17 = ADVANCED_FACE('',(#18,#45,#117),#189,.T.);
#18 = FACE_BOUND('',#19,.T.);
#19 = EDGE_LOOP('',(#20,#30,#37,#38));
#20 = ORIENTED_EDGE('',*,*,#21,.T.);
#21 = EDGE_CURVE('',#22,#24,#26,.T.);
#22 = VERTEX_POINT('',#23);
#23 = CARTESIAN_POINT('',(0.,5.878304635907E-15,24.));
#24 = VERTEX_POINT('',#25);
#25 = CARTESIAN_POINT('',(60.,5.878304635907E-15,24.));
#26 = LINE('',#27,#28);
#27 = CARTESIAN_POINT('',(0.,5.878304635907E-15,24.));
#28 = VECTOR('',#29,1.);
#29 = DIRECTION('',(1.,0.,0.));
#30 = ORIENTED_EDGE('',*,*,#31,.F.);
#31 = EDGE_CURVE('',#24,#24,#32,.T.);
#32 = CIRCLE('',#33,24.);
#33 = AXIS2_PLACEMENT_3D('',#34,#35,#36);
#34 = CARTESIAN_POINT('',(60.,0.,0.));
#35 = DIRECTION('',(1.,0.,-0.));
#36 = DIRECTION('',(0.,0.,1.));
#37 = ORIENTED_EDGE('',*,*,#21,.F.);
#38 = ORIENTED_EDGE('',*,*,#39,.T.);
#39 = EDGE_CURVE('',#22,#22,#40,.T.);
#40 = CIRCLE('',#41,24.);
#41 = AXIS2_PLACEMENT_3D('',#42,#43,#44);
#42 = CARTESIAN_POINT('',(0.,0.,0.));
#43 = DIRECTION('',(1.,0.,-0.));
#44 = DIRECTION('',(0.,0.,1.));
#45 = FACE_BOUND('',#46,.T.);
#46 = EDGE_LOOP('',(#47));
#47 = ORIENTED_EDGE('',*,*,#48,.T.);
#48 = EDGE_CURVE('',#49,#49,#51,.T.);
#49 = VERTEX_POINT('',#50);
#50 = CARTESIAN_POINT('',(40.,-23.23790007724,6.));
#51 = B_SPLINE_CURVE_WITH_KNOTS('',8,(#52,#53,#54,#55,#56,#57,#58,#59,
    #60,#61,#62,#63,#64,#65,#66,#67,#68,#69,#70,#71,#72,#73,#74,#75,#76,
    #77,#78,#79,#80,#81,#82,#83,#84,#85,#86,#87,#88,#89,#90,#91,#92,#93,
    #94,#95,#96,#97,#98,#99,#100,#101,#102,#103,#104,#105,#106,#107,#108
    ,#109,#110,#111,#112,#113,#114,#115,#116),.UNSPECIFIED.,.T.,.F.,(9,7
    ,7,7,7,7,7,7,7,9),(0.,0.107621556383,0.218129676446,0.320117135308,
    0.418869865427,0.55791485958,0.680187401299,0.782185969336,
    0.879429170034,1.),.UNSPECIFIED.);
#52 = CARTESIAN_POINT('',(40.,-23.23790007724,6.));
#53 = CARTESIAN_POINT('',(40.440363782538,-23.23790007724,6.));
#54 = CARTESIAN_POINT('',(40.88042540919,-23.24743737628,5.963063366919)
  );
#55 = CARTESIAN_POINT('',(41.318355433774,-23.26648849768,5.889275600481
    ));
#56 = CARTESIAN_POINT('',(41.752244590233,-23.29478714907,5.77831923337)
  );
#57 = CARTESIAN_POINT('',(42.179982227072,-23.33180996338,5.629514736548
    ));
#58 = CARTESIAN_POINT('',(42.599093012325,-23.37673560557,5.441865419872
    ));
#59 = CARTESIAN_POINT('',(43.006531909084,-23.42837724521,5.21410632802)
  );
#60 = CARTESIAN_POINT('',(43.800854398969,-23.54332061817,4.668183605733
    ));
#61 = CARTESIAN_POINT('',(44.189868225151,-23.60732823132,4.345713839701
    ));
#62 = CARTESIAN_POINT('',(44.55941507506,-23.67526102897,3.975612290047)
  );
#63 = CARTESIAN_POINT('',(44.902562928561,-23.74453139537,3.556678117462
    ));
#64 = CARTESIAN_POINT('',(45.211380810845,-23.81180271289,3.088465422777
    ));
#65 = CARTESIAN_POINT('',(45.476828102976,-23.87301689991,2.571478367902
    ));
#66 = CARTESIAN_POINT('',(45.688519291039,-23.92361347986,2.007557323268
    ));
#67 = CARTESIAN_POINT('',(45.968685626256,-23.99183609291,0.840580551602
    ));
#68 = CARTESIAN_POINT('',(46.044217400075,-24.01104014013,0.255252447199
    ));
#69 = CARTESIAN_POINT('',(46.053277517844,-24.01361914833,
    -0.341639224617));
#70 = CARTESIAN_POINT('',(45.993604015228,-23.99830250602,
    -0.935255601243));
#71 = CARTESIAN_POINT('',(45.867930831669,-23.96629106931,
    -1.510668419124));
#72 = CARTESIAN_POINT('',(45.683858484449,-23.92122657555,-2.05396633083
    ));
#73 = CARTESIAN_POINT('',(45.45399054446,-23.86802669053,-2.553411272995
    ));
#74 = CARTESIAN_POINT('',(44.946492133729,-23.75728145804,
    -3.432424305142));
#75 = CARTESIAN_POINT('',(44.664638355071,-23.69862480051,
    -3.825630907803));
#76 = CARTESIAN_POINT('',(44.357136176451,-23.63853353822,
    -4.180171928231));
#77 = CARTESIAN_POINT('',(44.029179704514,-23.57928921314,
    -4.497136615996));
#78 = CARTESIAN_POINT('',(43.684888399338,-23.52268886136,-4.77785827492
    ));
#79 = CARTESIAN_POINT('',(43.32751443583,-23.470112419,-5.023702820459)
  );
#80 = CARTESIAN_POINT('',(42.959595393837,-23.42262071854,
    -5.235916674948));
#81 = CARTESIAN_POINT('',(42.052909626837,-23.32245274421,
    -5.668383601653));
#82 = CARTESIAN_POINT('',(41.505550509749,-23.27555303991,
    -5.856651709523));
#83 = CARTESIAN_POINT('',(40.947159532827,-23.24268169172,
    -5.982702014533));
#84 = CARTESIAN_POINT('',(40.382549304004,-23.22523046279,
    -6.048105330998));
#85 = CARTESIAN_POINT('',(39.815925419361,-23.22382376757,
    -6.053631099454));
#86 = CARTESIAN_POINT('',(39.251312565068,-23.23840941865,
    -5.999247528542));
#87 = CARTESIAN_POINT('',(38.692943456566,-23.26824082676,
    -5.884084930378));
#88 = CARTESIAN_POINT('',(37.664840555261,-23.35001107568,-5.55003404799
    ));
#89 = CARTESIAN_POINT('',(37.193160282796,-23.39879905199,
    -5.345534709961));
#90 = CARTESIAN_POINT('',(36.733542828789,-23.4570605505,-5.091597805402
    ));
#91 = CARTESIAN_POINT('',(36.28966884244,-23.52330271337,-4.786158049508
    ));
#92 = CARTESIAN_POINT('',(35.866640521391,-23.59543297335,
    -4.426698417737));
#93 = CARTESIAN_POINT('',(35.471336546984,-23.6704698912,-4.010547639892
    ));
#94 = CARTESIAN_POINT('',(35.112935470442,-23.74431329164,
    -3.535355934938));
#95 = CARTESIAN_POINT('',(34.546009455541,-23.86802669053,
    -2.553411272996));
#96 = CARTESIAN_POINT('',(34.316141515549,-23.92122657555,
    -2.053966330826));
#97 = CARTESIAN_POINT('',(34.132069168333,-23.96629106931,
    -1.510668419131));
#98 = CARTESIAN_POINT('',(34.006395984772,-23.99830250602,
    -0.935255601234));
#99 = CARTESIAN_POINT('',(33.946722482155,-24.01361914833,
    -0.341639224624));
#100 = CARTESIAN_POINT('',(33.955782599926,-24.01104014013,
    0.255252447203));
#101 = CARTESIAN_POINT('',(34.031314373744,-23.99183609291,
    0.840580551601));
#102 = CARTESIAN_POINT('',(34.29397751584,-23.92787563923,1.934651276986
    ));
#103 = CARTESIAN_POINT('',(34.473432403077,-23.88491414955,
    2.436077617665));
#104 = CARTESIAN_POINT('',(34.696009737108,-23.83322704897,
    2.901920487023));
#105 = CARTESIAN_POINT('',(34.954472113736,-23.77593491295,
    3.330387260813));
#106 = CARTESIAN_POINT('',(35.242266862951,-23.71594078995,
    3.720597721707));
#107 = CARTESIAN_POINT('',(35.553396308417,-23.65576679487,
    4.072378642871));
#108 = CARTESIAN_POINT('',(35.882350035575,-23.59748434532,
    4.386150199882));
#109 = CARTESIAN_POINT('',(36.647782162028,-23.47471952961,
    5.005984914378));
#110 = CARTESIAN_POINT('',(37.094881361121,-23.41150158919,
    5.295183848766));
#111 = CARTESIAN_POINT('',(37.559052938064,-23.35577555213,
    5.532716270236));
#112 = CARTESIAN_POINT('',(38.035586945977,-23.30948119882,
    5.720608669436));
#113 = CARTESIAN_POINT('',(38.520792624692,-23.27392459917,
    5.860477906962));
#114 = CARTESIAN_POINT('',(39.01165004,-23.24992360408,5.953432958694));
#115 = CARTESIAN_POINT('',(39.505554286619,-23.23790007724,6.));
#116 = CARTESIAN_POINT('',(40.,-23.23790007724,6.));
#117 = FACE_BOUND('',#118,.T.);
#118 = EDGE_LOOP('',(#119));
#119 = ORIENTED_EDGE('',*,*,#120,.F.);
#120 = EDGE_CURVE('',#121,#121,#123,.T.);
#121 = VERTEX_POINT('',#122);
#122 = CARTESIAN_POINT('',(40.,23.237900077245,6.));
#123 = B_SPLINE_CURVE_WITH_KNOTS('',8,(#124,#125,#126,#127,#128,#129,
    #130,#131,#132,#133,#134,#135,#136,#137,#138,#139,#140,#141,#142,
    #143,#144,#145,#146,#147,#148,#149,#150,#151,#152,#153,#154,#155,
    #156,#157,#158,#159,#160,#161,#162,#163,#164,#165,#166,#167,#168,
    #169,#170,#171,#172,#173,#174,#175,#176,#177,#178,#179,#180,#181,
    #182,#183,#184,#185,#186,#187,#188),.UNSPECIFIED.,.T.,.F.,(9,7,7,7,7
    ,7,7,7,7,9),(0.,0.107633275268,0.218153428534,0.320151992788,
    0.442424529971,0.581469518964,0.680222245419,0.782209700498,
    0.879442306379,1.),.UNSPECIFIED.);
#124 = CARTESIAN_POINT('',(40.,23.237900077245,6.));
#125 = CARTESIAN_POINT('',(40.440363782538,23.237900077245,6.));
#126 = CARTESIAN_POINT('',(40.88042540919,23.247437376286,5.963063366919
    ));
#127 = CARTESIAN_POINT('',(41.318355433773,23.266488497688,
    5.889275600481));
#128 = CARTESIAN_POINT('',(41.752244590233,23.294787149079,5.77831923337
    ));
#129 = CARTESIAN_POINT('',(42.179982227072,23.331809963382,
    5.629514736548));
#130 = CARTESIAN_POINT('',(42.599093012325,23.376735605575,
    5.441865419872));
#131 = CARTESIAN_POINT('',(43.006531909084,23.428377245215,
    5.214106328021));
#132 = CARTESIAN_POINT('',(43.80085439897,23.543320618177,4.668183605733
    ));
#133 = CARTESIAN_POINT('',(44.189868225149,23.607328231319,
    4.345713839702));
#134 = CARTESIAN_POINT('',(44.559415075061,23.675261028974,
    3.975612290048));
#135 = CARTESIAN_POINT('',(44.902562928562,23.744531395375,
    3.556678117461));
#136 = CARTESIAN_POINT('',(45.211380810844,23.811802712897,
    3.088465422776));
#137 = CARTESIAN_POINT('',(45.476828102976,23.873016899911,
    2.571478367905));
#138 = CARTESIAN_POINT('',(45.688519291039,23.923613479864,
    2.007557323266));
#139 = CARTESIAN_POINT('',(45.968685626256,23.991836092917,
    0.840580551602));
#140 = CARTESIAN_POINT('',(46.044217400075,24.011040140135,
    0.255252447199));
#141 = CARTESIAN_POINT('',(46.053277517844,24.013619148337,
    -0.341639224617));
#142 = CARTESIAN_POINT('',(45.993604015229,23.998302506026,
    -0.935255601244));
#143 = CARTESIAN_POINT('',(45.867930831668,23.966291069313,
    -1.510668419123));
#144 = CARTESIAN_POINT('',(45.683858484449,23.921226575559,
    -2.053966330831));
#145 = CARTESIAN_POINT('',(45.45399054446,23.868026690533,
    -2.553411272995));
#146 = CARTESIAN_POINT('',(44.887064529558,23.744313291641,
    -3.535355934938));
#147 = CARTESIAN_POINT('',(44.528663453016,23.670469891203,
    -4.010547639892));
#148 = CARTESIAN_POINT('',(44.13335947861,23.595432973356,
    -4.426698417737));
#149 = CARTESIAN_POINT('',(43.71033115756,23.523302713372,
    -4.786158049508));
#150 = CARTESIAN_POINT('',(43.26645717121,23.457060550502,
    -5.091597805402));
#151 = CARTESIAN_POINT('',(42.806839717203,23.398799051995,
    -5.345534709961));
#152 = CARTESIAN_POINT('',(42.335159444739,23.350011075688,
    -5.55003404799));
#153 = CARTESIAN_POINT('',(41.307056543434,23.268240826769,
    -5.884084930378));
#154 = CARTESIAN_POINT('',(40.748687434931,23.238409418653,
    -5.999247528543));
#155 = CARTESIAN_POINT('',(40.184074580639,23.223823767573,
    -6.053631099454));
#156 = CARTESIAN_POINT('',(39.617450695996,23.225230462792,
    -6.048105330998));
#157 = CARTESIAN_POINT('',(39.052840467173,23.242681691725,
    -5.982702014533));
#158 = CARTESIAN_POINT('',(38.494449490251,23.275553039913,
    -5.856651709523));
#159 = CARTESIAN_POINT('',(37.947090373163,23.322452744212,
    -5.668383601653));
#160 = CARTESIAN_POINT('',(37.040404606164,23.422620718543,
    -5.235916674949));
#161 = CARTESIAN_POINT('',(36.672485564169,23.470112419006,
    -5.023702820459));
#162 = CARTESIAN_POINT('',(36.315111600662,23.522688861363,
    -4.77785827492));
#163 = CARTESIAN_POINT('',(35.970820295486,23.579289213141,
    -4.497136615996));
#164 = CARTESIAN_POINT('',(35.642863823548,23.638533538227,
    -4.180171928231));
#165 = CARTESIAN_POINT('',(35.33536164493,23.698624800511,
    -3.825630907804));
#166 = CARTESIAN_POINT('',(35.053507866271,23.757281458045,
    -3.432424305141));
#167 = CARTESIAN_POINT('',(34.546009455541,23.868026690533,
    -2.553411272997));
#168 = CARTESIAN_POINT('',(34.316141515549,23.921226575559,
    -2.053966330825));
#169 = CARTESIAN_POINT('',(34.132069168334,23.966291069313,
    -1.510668419135));
#170 = CARTESIAN_POINT('',(34.006395984771,23.998302506026,
    -0.935255601228));
#171 = CARTESIAN_POINT('',(33.946722482155,24.013619148338,
    -0.341639224629));
#172 = CARTESIAN_POINT('',(33.955782599926,24.011040140135,
    0.255252447205));
#173 = CARTESIAN_POINT('',(34.031314373744,23.991836092917,0.8405805516)
  );
#174 = CARTESIAN_POINT('',(34.293977515887,23.927875639225,
    1.934651277181));
#175 = CARTESIAN_POINT('',(34.473432403138,23.884914149538,2.43607761774
    ));
#176 = CARTESIAN_POINT('',(34.696009737095,23.833227048977,
    2.901920486928));
#177 = CARTESIAN_POINT('',(34.954472113636,23.775934912975,
    3.330387260657));
#178 = CARTESIAN_POINT('',(35.242266862852,23.715940789969,
    3.720597721628));
#179 = CARTESIAN_POINT('',(35.55339630844,23.655766794865,4.072378642934
    ));
#180 = CARTESIAN_POINT('',(35.882350035734,23.597484345299,4.38615020001
    ));
#181 = CARTESIAN_POINT('',(36.647782162028,23.474719529615,
    5.005984914378));
#182 = CARTESIAN_POINT('',(37.094881361122,23.411501589193,
    5.295183848768));
#183 = CARTESIAN_POINT('',(37.559052938063,23.355775552139,
    5.532716270234));
#184 = CARTESIAN_POINT('',(38.035586945976,23.309481198821,
    5.720608669435));
#185 = CARTESIAN_POINT('',(38.520792624693,23.273924599174,
    5.860477906964));
#186 = CARTESIAN_POINT('',(39.011650040001,23.249923604083,
    5.953432958693));
#187 = CARTESIAN_POINT('',(39.505554286618,23.237900077245,6.));
#188 = CARTESIAN_POINT('',(40.,23.237900077245,6.));
#189 = CYLINDRICAL_SURFACE('',#190,24.);
#190 = AXIS2_PLACEMENT_3D('',#191,#192,#193);
#191 = CARTESIAN_POINT('',(0.,0.,0.));
#192 = DIRECTION('',(1.,0.,0.));
#193 = DIRECTION('',(0.,0.,1.));
#194 = ADVANCED_FACE('',(#195,#198),#209,.F.);
#195 = FACE_BOUND('',#196,.F.);
#196 = EDGE_LOOP('',(#197));
#197 = ORIENTED_EDGE('',*,*,#39,.T.);
#198 = FACE_BOUND('',#199,.F.);
#199 = EDGE_LOOP('',(#200));
#200 = ORIENTED_EDGE('',*,*,#201,.F.);
#201 = EDGE_CURVE('',#202,#202,#204,.T.);
#202 = VERTEX_POINT('',#203);
#203 = CARTESIAN_POINT('',(0.,1.959434878636E-15,8.));
#204 = CIRCLE('',#205,8.);
#205 = AXIS2_PLACEMENT_3D('',#206,#207,#208);
#206 = CARTESIAN_POINT('',(0.,0.,0.));
#207 = DIRECTION('',(1.,0.,-0.));
#208 = DIRECTION('',(0.,0.,1.));
#209 = PLANE('',#210);
#210 = AXIS2_PLACEMENT_3D('',#211,#212,#213);
#211 = CARTESIAN_POINT('',(0.,0.,0.));
#212 = DIRECTION('',(1.,0.,0.));
#213 = DIRECTION('',(0.,0.,1.));
#214 = ADVANCED_FACE('',(#215,#218),#229,.T.);
#215 = FACE_BOUND('',#216,.T.);
#216 = EDGE_LOOP('',(#217));
#217 = ORIENTED_EDGE('',*,*,#31,.T.);
#218 = FACE_BOUND('',#219,.T.);
#219 = EDGE_LOOP('',(#220));
#220 = ORIENTED_EDGE('',*,*,#221,.F.);
#221 = EDGE_CURVE('',#222,#222,#224,.T.);
#222 = VERTEX_POINT('',#223);
#223 = CARTESIAN_POINT('',(60.,4.40872847693E-15,18.));
#224 = CIRCLE('',#225,18.);
#225 = AXIS2_PLACEMENT_3D('',#226,#227,#228);
#226 = CARTESIAN_POINT('',(60.,0.,0.));
#227 = DIRECTION('',(1.,0.,-0.));
#228 = DIRECTION('',(0.,0.,1.));
#229 = PLANE('',#230);
#230 = AXIS2_PLACEMENT_3D('',#231,#232,#233);
#231 = CARTESIAN_POINT('',(60.,0.,0.));
#232 = DIRECTION('',(1.,0.,0.));
#233 = DIRECTION('',(0.,0.,1.));
#234 = ADVANCED_FACE('',(#235),#352,.F.);
#235 = FACE_BOUND('',#236,.F.);
#236 = EDGE_LOOP('',(#237,#344,#350,#351));
#237 = ORIENTED_EDGE('',*,*,#238,.F.);
#238 = EDGE_CURVE('',#239,#239,#241,.T.);
#239 = VERTEX_POINT('',#240);
#240 = CARTESIAN_POINT('',(40.,-5.291502622129,6.));
#241 = B_SPLINE_CURVE_WITH_KNOTS('',6,(#242,#243,#244,#245,#246,#247,
    #248,#249,#250,#251,#252,#253,#254,#255,#256,#257,#258,#259,#260,
    #261,#262,#263,#264,#265,#266,#267,#268,#269,#270,#271,#272,#273,
    #274,#275,#276,#277,#278,#279,#280,#281,#282,#283,#284,#285,#286,
    #287,#288,#289,#290,#291,#292,#293,#294,#295,#296,#297,#298,#299,
    #300,#301,#302,#303,#304,#305,#306,#307,#308,#309,#310,#311,#312,
    #313,#314,#315,#316,#317,#318,#319,#320,#321,#322,#323,#324,#325,
    #326,#327,#328,#329,#330,#331,#332,#333,#334,#335,#336,#337,#338,
    #339,#340,#341,#342,#343),.UNSPECIFIED.,.T.,.F.,(7,5,5,5,5,5,5,5,5,5
    ,5,5,5,5,5,5,5,5,5,5,7),(0.,4.77474836421E-02,0.10712079519,
    0.174985933891,0.22046339313,0.271917987194,0.302766812178,
    0.327303793754,0.393532898963,0.453071799839,0.500706168506,
    0.548610037593,0.607730863073,0.675307404058,0.720591469589,
    0.771827252072,0.802544891883,0.826977529515,0.89292499429,
    0.952210704937,1.),.UNSPECIFIED.);
#242 = CARTESIAN_POINT('',(40.,-5.291502622129,6.));
#243 = CARTESIAN_POINT('',(40.275826924621,-5.291502622129,6.));
#244 = CARTESIAN_POINT('',(40.550838593982,-5.308755689238,5.98478410674
    ));
#245 = CARTESIAN_POINT('',(40.823978855492,-5.343073041171,
    5.954519589804));
#246 = CARTESIAN_POINT('',(41.094085815253,-5.393394104776,
    5.909477849651));
#247 = CARTESIAN_POINT('',(41.359698621714,-5.457779237136,
    5.850099959501));
#248 = CARTESIAN_POINT('',(41.941170874436,-5.627891593503,
    5.687168165145));
#249 = CARTESIAN_POINT('',(42.254355733955,-5.740113071753,
    5.576143496356));
#250 = CARTESIAN_POINT('',(42.5585436477,-5.866534549885,5.445201793398)
  );
#251 = CARTESIAN_POINT('',(42.853565167987,-6.003595221148,
    5.294599651493));
#252 = CARTESIAN_POINT('',(43.138990504472,-6.148153599504,
    5.124327123548));
#253 = CARTESIAN_POINT('',(43.728723885017,-6.467884097896,
    4.716241453714));
#254 = CARTESIAN_POINT('',(44.029754286606,-6.644402560878,
    4.472347865351));
#255 = CARTESIAN_POINT('',(44.317639620457,-6.823340247744,
    4.200630520241));
#256 = CARTESIAN_POINT('',(44.591261106437,-7.001413267892,
    3.898475384992));
#257 = CARTESIAN_POINT('',(44.847630389175,-7.174338051072,
    3.562788537205));
#258 = CARTESIAN_POINT('',(45.23779522925,-7.44457846025,2.941455556309)
  );
#259 = CARTESIAN_POINT('',(45.384705563929,-7.548418911402,
    2.674910799316));
#260 = CARTESIAN_POINT('',(45.519682448467,-7.645458574824,
    2.390845884883));
#261 = CARTESIAN_POINT('',(45.64018910641,-7.733265719576,2.089170313589
    ));
#262 = CARTESIAN_POINT('',(45.74339422719,-7.809192386088,1.770067783673
    ));
#263 = CARTESIAN_POINT('',(45.919663282748,-7.939676051899,
    1.053964354732));
#264 = CARTESIAN_POINT('',(45.987303358751,-7.990350344973,0.65093886008
    ));
#265 = CARTESIAN_POINT('',(46.021855577461,-8.016482941211,0.2343723317)
  );
#266 = CARTESIAN_POINT('',(46.020337128449,-8.015267533212,
    -0.185855495446));
#267 = CARTESIAN_POINT('',(45.983573329456,-7.98756213215,
    -0.599748075984));
#268 = CARTESIAN_POINT('',(45.876243183659,-7.907560604839,
    -1.236244437502));
#269 = CARTESIAN_POINT('',(45.825176051861,-7.869605164781,
    -1.468680760537));
#270 = CARTESIAN_POINT('',(45.76417881995,-7.82446797049,-1.694236458482
    ));
#271 = CARTESIAN_POINT('',(45.694239506907,-7.773036271066,
    -1.912236687024));
#272 = CARTESIAN_POINT('',(45.616438440364,-7.716279605125,
    -2.122078955427));
#273 = CARTESIAN_POINT('',(45.464766824717,-7.606675964229,
    -2.48323130206));
#274 = CARTESIAN_POINT('',(45.39324715537,-7.555331260668,-2.63797579645
    ));
#275 = CARTESIAN_POINT('',(45.317816844803,-7.501590202902,
    -2.787541288496));
#276 = CARTESIAN_POINT('',(45.238846620572,-7.4458129793,-2.932018592007
    ));
#277 = CARTESIAN_POINT('',(45.156662517028,-7.388328106117,
    -3.071514946697));
#278 = CARTESIAN_POINT('',(44.841803473223,-7.17046374107,
    -3.569564115491));
#279 = CARTESIAN_POINT('',(44.590349908363,-7.00097657916,
    -3.898131999284));
#280 = CARTESIAN_POINT('',(44.322315943632,-6.826556013983,
    -4.194513497163));
#281 = CARTESIAN_POINT('',(44.040517988487,-6.651240260474,
    -4.461616554904));
#282 = CARTESIAN_POINT('',(43.746038643304,-6.478143068315,
    -4.701910737814));
#283 = CARTESIAN_POINT('',(43.162164176255,-6.15999714064,
    -5.110233281556));
#284 = CARTESIAN_POINT('',(42.875362072386,-6.013936238181,
    -5.283038805821));
#285 = CARTESIAN_POINT('',(42.578819692713,-5.875324329411,
    -5.43588315592));
#286 = CARTESIAN_POINT('',(42.272968870631,-5.747344974464,
    -5.568798983137));
#287 = CARTESIAN_POINT('',(41.957974775886,-5.633620113162,
    -5.68153973369));
#288 = CARTESIAN_POINT('',(41.374302598291,-5.461434416086,
    -5.846706767087));
#289 = CARTESIAN_POINT('',(41.108394638917,-5.396304480245,
    -5.906844530404));
#290 = CARTESIAN_POINT('',(40.837937325328,-5.345220074811,
    -5.952610255154));
#291 = CARTESIAN_POINT('',(40.564391718876,-5.310146593701,
    -5.98355720859));
#292 = CARTESIAN_POINT('',(40.288915164136,-5.292173061811,
    -5.999408724853));
#293 = CARTESIAN_POINT('',(39.734624942876,-5.290858247406,
    -6.000568287964));
#294 = CARTESIAN_POINT('',(39.457472608468,-5.307717439098,
    -5.985699525202));
#295 = CARTESIAN_POINT('',(39.182182201864,-5.341926976649,
    -5.95554505763));
#296 = CARTESIAN_POINT('',(38.909945377635,-5.392416950783,
    -5.910379016379));
#297 = CARTESIAN_POINT('',(38.642260779178,-5.457206005479,
    -5.850648994647));
#298 = CARTESIAN_POINT('',(38.058829125565,-5.627891593503,
    -5.687168165145));
#299 = CARTESIAN_POINT('',(37.745644266045,-5.740113071753,
    -5.576143496356));
#300 = CARTESIAN_POINT('',(37.4414563523,-5.866534549885,-5.445201793398
    ));
#301 = CARTESIAN_POINT('',(37.146434832014,-6.003595221148,
    -5.294599651493));
#302 = CARTESIAN_POINT('',(36.861009495528,-6.148153599504,
    -5.124327123548));
#303 = CARTESIAN_POINT('',(36.271276114982,-6.467884097897,
    -4.716241453713));
#304 = CARTESIAN_POINT('',(35.970245713394,-6.644402560878,
    -4.472347865351));
#305 = CARTESIAN_POINT('',(35.682360379544,-6.823340247743,
    -4.200630520242));
#306 = CARTESIAN_POINT('',(35.408738893563,-7.001413267892,
    -3.898475384992));
#307 = CARTESIAN_POINT('',(35.152369610825,-7.174338051072,
    -3.562788537205));
#308 = CARTESIAN_POINT('',(34.762204770746,-7.444578460252,
    -2.941455556304));
#309 = CARTESIAN_POINT('',(34.615294436078,-7.548418911398,
    -2.674910799325));
#310 = CARTESIAN_POINT('',(34.480317551529,-7.645458574826,
    -2.390845884884));
#311 = CARTESIAN_POINT('',(34.359810893588,-7.733265719577,
    -2.089170313576));
#312 = CARTESIAN_POINT('',(34.256605772812,-7.809192386086,
    -1.770067783682));
#313 = CARTESIAN_POINT('',(34.080336717252,-7.939676051899,
    -1.053964354733));
#314 = CARTESIAN_POINT('',(34.012696641249,-7.990350344973,
    -0.65093886008));
#315 = CARTESIAN_POINT('',(33.978144422539,-8.016482941211,
    -0.234372331699));
#316 = CARTESIAN_POINT('',(33.979662871551,-8.015267533212,
    0.185855495445));
#317 = CARTESIAN_POINT('',(34.016426670544,-7.98756213215,0.599748075984
    ));
#318 = CARTESIAN_POINT('',(34.123756816351,-7.907560604832,1.23624443756
    ));
#319 = CARTESIAN_POINT('',(34.174823948141,-7.869605164779,
    1.468680760519));
#320 = CARTESIAN_POINT('',(34.235821180035,-7.824467970501,
    1.694236458429));
#321 = CARTESIAN_POINT('',(34.305760493083,-7.773036271073,
    1.912236687013));
#322 = CARTESIAN_POINT('',(34.383561559656,-7.716279605111,
    2.122078955474));
#323 = CARTESIAN_POINT('',(34.535233175277,-7.606675964234,
    2.483231302046));
#324 = CARTESIAN_POINT('',(34.606752844631,-7.555331260667,
    2.637975796454));
#325 = CARTESIAN_POINT('',(34.682183155204,-7.501590202897,
    2.787541288509));
#326 = CARTESIAN_POINT('',(34.761153379431,-7.445812979298,
    2.932018592009));
#327 = CARTESIAN_POINT('',(34.843337482964,-7.388328106122,
    3.071514946685));
#328 = CARTESIAN_POINT('',(35.158196526777,-7.17046374107,3.569564115491
    ));
#329 = CARTESIAN_POINT('',(35.409650091636,-7.00097657916,3.898131999283
    ));
#330 = CARTESIAN_POINT('',(35.677684056369,-6.826556013983,
    4.194513497164));
#331 = CARTESIAN_POINT('',(35.959482011513,-6.651240260475,
    4.461616554903));
#332 = CARTESIAN_POINT('',(36.253961356696,-6.478143068315,
    4.701910737814));
#333 = CARTESIAN_POINT('',(36.837835823718,-6.159997140654,
    5.110233281537));
#334 = CARTESIAN_POINT('',(37.12463792762,-6.013936238176,5.28303880583)
  );
#335 = CARTESIAN_POINT('',(37.421180307316,-5.875324329397,
    5.435883155933));
#336 = CARTESIAN_POINT('',(37.72703112938,-5.747344974465,5.568798983135
    ));
#337 = CARTESIAN_POINT('',(38.042025224082,-5.633620113172,
    5.681539733681));
#338 = CARTESIAN_POINT('',(38.627652641838,-5.460857612192,
    5.847260059199));
#339 = CARTESIAN_POINT('',(38.895632139669,-5.39531803149,5.907755410229
    ));
#340 = CARTESIAN_POINT('',(39.168220731698,-5.344058488272,
    5.953650528766));
#341 = CARTESIAN_POINT('',(39.443918143543,-5.309087095048,
    5.984491828294));
#342 = CARTESIAN_POINT('',(39.721536413546,-5.291502622129,6.));
#343 = CARTESIAN_POINT('',(40.,-5.291502622129,6.));
#344 = ORIENTED_EDGE('',*,*,#345,.F.);
#345 = EDGE_CURVE('',#49,#239,#346,.T.);
#346 = LINE('',#347,#348);
#347 = CARTESIAN_POINT('',(40.,-40.,6.));
#348 = VECTOR('',#349,1.);
#349 = DIRECTION('',(0.,1.,0.));
#350 = ORIENTED_EDGE('',*,*,#48,.T.);
#351 = ORIENTED_EDGE('',*,*,#345,.T.);
#352 = CYLINDRICAL_SURFACE('',#353,6.);
#353 = AXIS2_PLACEMENT_3D('',#354,#355,#356);
#354 = CARTESIAN_POINT('',(40.,-40.,0.));
#355 = DIRECTION('',(0.,1.,0.));
#356 = DIRECTION('',(0.,0.,1.));
#357 = ADVANCED_FACE('',(#358),#475,.F.);
#358 = FACE_BOUND('',#359,.F.);
#359 = EDGE_LOOP('',(#360,#361,#369,#474));
#360 = ORIENTED_EDGE('',*,*,#120,.F.);
#361 = ORIENTED_EDGE('',*,*,#362,.F.);
#362 = EDGE_CURVE('',#363,#121,#365,.T.);
#363 = VERTEX_POINT('',#364);
#364 = CARTESIAN_POINT('',(40.,5.291502622129,6.));
#365 = LINE('',#366,#367);
#366 = CARTESIAN_POINT('',(40.,-40.,6.));
#367 = VECTOR('',#368,1.);
#368 = DIRECTION('',(0.,1.,0.));
#369 = ORIENTED_EDGE('',*,*,#370,.T.);
#370 = EDGE_CURVE('',#363,#363,#371,.T.);
#371 = B_SPLINE_CURVE_WITH_KNOTS('',6,(#372,#373,#374,#375,#376,#377,
    #378,#379,#380,#381,#382,#383,#384,#385,#386,#387,#388,#389,#390,
    #391,#392,#393,#394,#395,#396,#397,#398,#399,#400,#401,#402,#403,
    #404,#405,#406,#407,#408,#409,#410,#411,#412,#413,#414,#415,#416,
    #417,#418,#419,#420,#421,#422,#423,#424,#425,#426,#427,#428,#429,
    #430,#431,#432,#433,#434,#435,#436,#437,#438,#439,#440,#441,#442,
    #443,#444,#445,#446,#447,#448,#449,#450,#451,#452,#453,#454,#455,
    #456,#457,#458,#459,#460,#461,#462,#463,#464,#465,#466,#467,#468,
    #469,#470,#471,#472,#473),.UNSPECIFIED.,.T.,.F.,(7,5,5,5,5,5,5,5,5,5
    ,5,5,5,5,5,5,5,5,5,5,7),(0.,4.774748359682E-02,0.107120795092,
    0.174985933736,0.220463392937,0.271917986982,0.302766811977,
    0.327303793564,0.3935328988,0.453071799693,0.50070616837,
    0.548610037467,0.607730862958,0.675307403957,0.720591469496,
    0.771827252014,0.802544891846,0.826977529482,0.89292499427,
    0.952210704928,1.),.UNSPECIFIED.);
#372 = CARTESIAN_POINT('',(40.,5.291502622129,6.));
#373 = CARTESIAN_POINT('',(40.275826924621,5.291502622129,6.));
#374 = CARTESIAN_POINT('',(40.550838593982,5.308755689238,5.98478410674)
  );
#375 = CARTESIAN_POINT('',(40.823978855491,5.343073041171,5.954519589804
    ));
#376 = CARTESIAN_POINT('',(41.094085815253,5.393394104776,5.909477849651
    ));
#377 = CARTESIAN_POINT('',(41.359698621714,5.457779237136,5.850099959501
    ));
#378 = CARTESIAN_POINT('',(41.941170874452,5.627891593507,5.687168165141
    ));
#379 = CARTESIAN_POINT('',(42.254355733952,5.740113071754,5.576143496355
    ));
#380 = CARTESIAN_POINT('',(42.558543647684,5.866534549877,5.445201793405
    ));
#381 = CARTESIAN_POINT('',(42.853565167983,6.003595221145,5.294599651499
    ));
#382 = CARTESIAN_POINT('',(43.138990504487,6.148153599512,5.124327123537
    ));
#383 = CARTESIAN_POINT('',(43.728723885018,6.467884097897,4.716241453713
    ));
#384 = CARTESIAN_POINT('',(44.029754286606,6.644402560878,4.472347865351
    ));
#385 = CARTESIAN_POINT('',(44.317639620456,6.823340247743,4.200630520242
    ));
#386 = CARTESIAN_POINT('',(44.591261106437,7.001413267892,3.898475384992
    ));
#387 = CARTESIAN_POINT('',(44.847630389175,7.174338051072,3.562788537205
    ));
#388 = CARTESIAN_POINT('',(45.237795229254,7.444578460252,2.941455556303
    ));
#389 = CARTESIAN_POINT('',(45.384705563922,7.548418911398,2.674910799326
    ));
#390 = CARTESIAN_POINT('',(45.519682448471,7.645458574826,2.390845884883
    ));
#391 = CARTESIAN_POINT('',(45.640189106412,7.733265719577,2.089170313577
    ));
#392 = CARTESIAN_POINT('',(45.743394227188,7.809192386086,1.770067783682
    ));
#393 = CARTESIAN_POINT('',(45.919663282793,7.939676051932,1.053964354551
    ));
#394 = CARTESIAN_POINT('',(45.987303358708,7.990350344941,0.650938860131
    ));
#395 = CARTESIAN_POINT('',(46.021855577454,8.016482941206,0.234372331882
    ));
#396 = CARTESIAN_POINT('',(46.020337128487,8.015267533241,
    -0.185855495397));
#397 = CARTESIAN_POINT('',(45.983573329425,7.987562132127,
    -0.599748076168));
#398 = CARTESIAN_POINT('',(45.876243183649,7.907560604832,-1.23624443756
    ));
#399 = CARTESIAN_POINT('',(45.825176051859,7.869605164779,
    -1.468680760519));
#400 = CARTESIAN_POINT('',(45.764178819965,7.824467970501,
    -1.694236458429));
#401 = CARTESIAN_POINT('',(45.694239506917,7.773036271073,
    -1.912236687014));
#402 = CARTESIAN_POINT('',(45.616438440344,7.716279605111,
    -2.122078955474));
#403 = CARTESIAN_POINT('',(45.464766824723,7.606675964234,
    -2.483231302046));
#404 = CARTESIAN_POINT('',(45.393247155369,7.555331260667,
    -2.637975796454));
#405 = CARTESIAN_POINT('',(45.317816844796,7.501590202897,
    -2.787541288509));
#406 = CARTESIAN_POINT('',(45.238846620569,7.445812979298,
    -2.932018592009));
#407 = CARTESIAN_POINT('',(45.156662517035,7.388328106122,
    -3.071514946686));
#408 = CARTESIAN_POINT('',(44.841803473223,7.17046374107,-3.569564115491
    ));
#409 = CARTESIAN_POINT('',(44.590349908364,7.00097657916,-3.898131999283
    ));
#410 = CARTESIAN_POINT('',(44.322315943631,6.826556013982,
    -4.194513497165));
#411 = CARTESIAN_POINT('',(44.040517988487,6.651240260475,
    -4.461616554903));
#412 = CARTESIAN_POINT('',(43.746038643304,6.478143068315,
    -4.701910737814));
#413 = CARTESIAN_POINT('',(43.162164176281,6.159997140654,
    -5.110233281537));
#414 = CARTESIAN_POINT('',(42.875362072379,6.013936238175,
    -5.283038805831));
#415 = CARTESIAN_POINT('',(42.578819692686,5.875324329398,
    -5.435883155932));
#416 = CARTESIAN_POINT('',(42.272968870621,5.747344974465,
    -5.568798983135));
#417 = CARTESIAN_POINT('',(41.957974775917,5.633620113171,
    -5.681539733681));
#418 = CARTESIAN_POINT('',(41.374302598292,5.461434416086,
    -5.846706767087));
#419 = CARTESIAN_POINT('',(41.108394638916,5.396304480245,
    -5.906844530404));
#420 = CARTESIAN_POINT('',(40.837937325329,5.345220074811,
    -5.952610255154));
#421 = CARTESIAN_POINT('',(40.564391718875,5.310146593701,-5.98355720859
    ));
#422 = CARTESIAN_POINT('',(40.288915164136,5.292173061811,
    -5.999408724853));
#423 = CARTESIAN_POINT('',(39.734624942876,5.290858247406,
    -6.000568287964));
#424 = CARTESIAN_POINT('',(39.457472608468,5.307717439098,
    -5.985699525202));
#425 = CARTESIAN_POINT('',(39.182182201864,5.341926976649,-5.95554505763
    ));
#426 = CARTESIAN_POINT('',(38.909945377635,5.392416950783,
    -5.910379016379));
#427 = CARTESIAN_POINT('',(38.642260779178,5.457206005479,
    -5.850648994647));
#428 = CARTESIAN_POINT('',(38.058829125565,5.627891593503,
    -5.687168165145));
#429 = CARTESIAN_POINT('',(37.745644266044,5.740113071753,
    -5.576143496356));
#430 = CARTESIAN_POINT('',(37.4414563523,5.866534549885,-5.445201793398)
  );
#431 = CARTESIAN_POINT('',(37.146434832013,6.003595221148,
    -5.294599651493));
#432 = CARTESIAN_POINT('',(36.861009495528,6.148153599504,
    -5.124327123548));
#433 = CARTESIAN_POINT('',(36.271276114982,6.467884097897,
    -4.716241453713));
#434 = CARTESIAN_POINT('',(35.970245713394,6.644402560878,
    -4.472347865351));
#435 = CARTESIAN_POINT('',(35.682360379543,6.823340247744,
    -4.200630520241));
#436 = CARTESIAN_POINT('',(35.408738893563,7.001413267892,
    -3.898475384992));
#437 = CARTESIAN_POINT('',(35.152369610825,7.174338051072,
    -3.562788537205));
#438 = CARTESIAN_POINT('',(34.76220477075,7.44457846025,-2.941455556309)
  );
#439 = CARTESIAN_POINT('',(34.615294436071,7.548418911402,
    -2.674910799317));
#440 = CARTESIAN_POINT('',(34.480317551532,7.645458574824,
    -2.390845884882));
#441 = CARTESIAN_POINT('',(34.35981089359,7.733265719576,-2.08917031359)
  );
#442 = CARTESIAN_POINT('',(34.25660577281,7.809192386088,-1.770067783673
    ));
#443 = CARTESIAN_POINT('',(34.080336717207,7.939676051932,
    -1.053964354551));
#444 = CARTESIAN_POINT('',(34.012696641292,7.990350344941,
    -0.650938860131));
#445 = CARTESIAN_POINT('',(33.978144422546,8.016482941206,
    -0.234372331882));
#446 = CARTESIAN_POINT('',(33.979662871513,8.015267533241,0.185855495397
    ));
#447 = CARTESIAN_POINT('',(34.016426670575,7.987562132127,0.599748076168
    ));
#448 = CARTESIAN_POINT('',(34.123756816331,7.907560604846,1.236244437444
    ));
#449 = CARTESIAN_POINT('',(34.174823948137,7.869605164782,1.468680760555
    ));
#450 = CARTESIAN_POINT('',(34.235821180065,7.824467970479,1.694236458535
    ));
#451 = CARTESIAN_POINT('',(34.305760493103,7.773036271058,1.912236687035
    ));
#452 = CARTESIAN_POINT('',(34.383561559616,7.716279605139,2.122078955379
    ));
#453 = CARTESIAN_POINT('',(34.535233175277,7.606675964234,2.483231302046
    ));
#454 = CARTESIAN_POINT('',(34.606752844631,7.555331260667,2.637975796454
    ));
#455 = CARTESIAN_POINT('',(34.682183155204,7.501590202897,2.787541288509
    ));
#456 = CARTESIAN_POINT('',(34.761153379431,7.445812979298,2.932018592009
    ));
#457 = CARTESIAN_POINT('',(34.843337482964,7.388328106122,3.071514946686
    ));
#458 = CARTESIAN_POINT('',(35.158196526777,7.17046374107,3.569564115491)
  );
#459 = CARTESIAN_POINT('',(35.409650091637,7.00097657916,3.898131999283)
  );
#460 = CARTESIAN_POINT('',(35.677684056368,6.826556013983,4.194513497164
    ));
#461 = CARTESIAN_POINT('',(35.959482011513,6.651240260474,4.461616554903
    ));
#462 = CARTESIAN_POINT('',(36.253961356696,6.478143068315,4.701910737814
    ));
#463 = CARTESIAN_POINT('',(36.837835823719,6.159997140654,5.110233281537
    ));
#464 = CARTESIAN_POINT('',(37.12463792762,6.013936238176,5.28303880583)
  );
#465 = CARTESIAN_POINT('',(37.421180307315,5.875324329398,5.435883155932
    ));
#466 = CARTESIAN_POINT('',(37.727031129379,5.747344974465,5.568798983135
    ));
#467 = CARTESIAN_POINT('',(38.042025224084,5.633620113171,5.681539733681
    ));
#468 = CARTESIAN_POINT('',(38.627652641838,5.460857612192,5.847260059199
    ));
#469 = CARTESIAN_POINT('',(38.89563213967,5.39531803149,5.907755410229)
  );
#470 = CARTESIAN_POINT('',(39.168220731697,5.344058488273,5.953650528766
    ));
#471 = CARTESIAN_POINT('',(39.443918143543,5.309087095048,5.984491828294
    ));
#472 = CARTESIAN_POINT('',(39.721536413546,5.291502622129,6.));
#473 = CARTESIAN_POINT('',(40.,5.291502622129,6.));
#474 = ORIENTED_EDGE('',*,*,#362,.T.);
#475 = CYLINDRICAL_SURFACE('',#476,6.);
#476 = AXIS2_PLACEMENT_3D('',#477,#478,#479);
#477 = CARTESIAN_POINT('',(40.,-40.,0.));
#478 = DIRECTION('',(0.,1.,0.));
#479 = DIRECTION('',(0.,0.,1.));
#480 = ADVANCED_FACE('',(#481,#500,#503,#506,#615),#724,.F.);
#481 = FACE_BOUND('',#482,.F.);
#482 = EDGE_LOOP('',(#483,#484,#492,#499));
#483 = ORIENTED_EDGE('',*,*,#201,.T.);
#484 = ORIENTED_EDGE('',*,*,#485,.T.);
#485 = EDGE_CURVE('',#202,#486,#488,.T.);
#486 = VERTEX_POINT('',#487);
#487 = CARTESIAN_POINT('',(250.,1.959434878636E-15,8.));
#488 = LINE('',#489,#490);
#489 = CARTESIAN_POINT('',(0.,1.959434878636E-15,8.));
#490 = VECTOR('',#491,1.);
#491 = DIRECTION('',(1.,0.,0.));
#492 = ORIENTED_EDGE('',*,*,#493,.F.);
#493 = EDGE_CURVE('',#486,#486,#494,.T.);
#494 = CIRCLE('',#495,8.);
#495 = AXIS2_PLACEMENT_3D('',#496,#497,#498);
#496 = CARTESIAN_POINT('',(250.,0.,0.));
#497 = DIRECTION('',(1.,0.,-0.));
#498 = DIRECTION('',(0.,0.,1.));
#499 = ORIENTED_EDGE('',*,*,#485,.F.);
#500 = FACE_BOUND('',#501,.F.);
#501 = EDGE_LOOP('',(#502));
#502 = ORIENTED_EDGE('',*,*,#238,.T.);
#503 = FACE_BOUND('',#504,.F.);
#504 = EDGE_LOOP('',(#505));
#505 = ORIENTED_EDGE('',*,*,#370,.F.);
#506 = FACE_BOUND('',#507,.F.);
#507 = EDGE_LOOP('',(#508));
#508 = ORIENTED_EDGE('',*,*,#509,.T.);
#509 = EDGE_CURVE('',#510,#510,#512,.T.);
#510 = VERTEX_POINT('',#511);
#511 = CARTESIAN_POINT('',(170.,-5.291502622129,6.));
#512 = B_SPLINE_CURVE_WITH_KNOTS('',6,(#513,#514,#515,#516,#517,#518,
    #519,#520,#521,#522,#523,#524,#525,#526,#527,#528,#529,#530,#531,
    #532,#533,#534,#535,#536,#537,#538,#539,#540,#541,#542,#543,#544,
    #545,#546,#547,#548,#549,#550,#551,#552,#553,#554,#555,#556,#557,
    #558,#559,#560,#561,#562,#563,#564,#565,#566,#567,#568,#569,#570,
    #571,#572,#573,#574,#575,#576,#577,#578,#579,#580,#581,#582,#583,
    #584,#585,#586,#587,#588,#589,#590,#591,#592,#593,#594,#595,#596,
    #597,#598,#599,#600,#601,#602,#603,#604,#605,#606,#607,#608,#609,
    #610,#611,#612,#613,#614),.UNSPECIFIED.,.T.,.F.,(7,5,5,5,5,5,5,5,5,5
    ,5,5,5,5,5,5,5,5,5,5,7),(0.,4.774748375333E-02,0.10712079544,
    0.174985934299,0.220463393644,0.271917987852,0.302766812878,
    0.32730379444,0.393532899615,0.453071800459,0.500706169101,
    0.548610038162,0.607730863609,0.675307404558,0.720591470032,
    0.771827252416,0.802544892175,0.826977529771,0.892924994449,
    0.952210705008,1.),.UNSPECIFIED.);
#513 = CARTESIAN_POINT('',(170.,-5.291502622129,6.));
#514 = CARTESIAN_POINT('',(170.27582692462,-5.291502622129,6.));
#515 = CARTESIAN_POINT('',(170.55083859398,-5.308755689238,5.98478410674
    ));
#516 = CARTESIAN_POINT('',(170.82397885549,-5.343073041171,
    5.954519589804));
#517 = CARTESIAN_POINT('',(171.09408581525,-5.393394104776,
    5.909477849651));
#518 = CARTESIAN_POINT('',(171.35969862171,-5.457779237136,
    5.850099959501));
#519 = CARTESIAN_POINT('',(171.94117087443,-5.627891593503,
    5.687168165145));
#520 = CARTESIAN_POINT('',(172.25435573395,-5.740113071753,
    5.576143496356));
#521 = CARTESIAN_POINT('',(172.5585436477,-5.866534549885,5.445201793398
    ));
#522 = CARTESIAN_POINT('',(172.85356516798,-6.003595221148,
    5.294599651494));
#523 = CARTESIAN_POINT('',(173.13899050447,-6.148153599504,
    5.124327123548));
#524 = CARTESIAN_POINT('',(173.72872388501,-6.467884097896,
    4.716241453714));
#525 = CARTESIAN_POINT('',(174.0297542866,-6.644402560878,4.472347865351
    ));
#526 = CARTESIAN_POINT('',(174.31763962045,-6.823340247743,
    4.200630520242));
#527 = CARTESIAN_POINT('',(174.59126110643,-7.001413267891,
    3.898475384993));
#528 = CARTESIAN_POINT('',(174.84763038917,-7.174338051071,
    3.562788537206));
#529 = CARTESIAN_POINT('',(175.23779522925,-7.444578460249,2.94145555631
    ));
#530 = CARTESIAN_POINT('',(175.38470556392,-7.548418911402,
    2.674910799318));
#531 = CARTESIAN_POINT('',(175.51968244846,-7.645458574823,
    2.390845884884));
#532 = CARTESIAN_POINT('',(175.6401891064,-7.733265719575,2.089170313591
    ));
#533 = CARTESIAN_POINT('',(175.74339422718,-7.809192386087,
    1.770067783676));
#534 = CARTESIAN_POINT('',(175.91966328279,-7.939676051931,
    1.053964354553));
#535 = CARTESIAN_POINT('',(175.9873033587,-7.990350344941,0.650938860133
    ));
#536 = CARTESIAN_POINT('',(176.02185557745,-8.016482941206,
    0.234372331885));
#537 = CARTESIAN_POINT('',(176.02033712848,-8.015267533241,
    -0.185855495395));
#538 = CARTESIAN_POINT('',(175.98357332942,-7.987562132127,
    -0.599748076165));
#539 = CARTESIAN_POINT('',(175.87624318373,-7.907560604897,
    -1.236244437041));
#540 = CARTESIAN_POINT('',(175.82517605187,-7.869605164791,
    -1.468680760677));
#541 = CARTESIAN_POINT('',(175.76417881983,-7.824467970403,-1.6942364589
    ));
#542 = CARTESIAN_POINT('',(175.69423950682,-7.773036271009,
    -1.912236687106));
#543 = CARTESIAN_POINT('',(175.61643844052,-7.716279605239,
    -2.122078955049));
#544 = CARTESIAN_POINT('',(175.46476682471,-7.60667596423,
    -2.483231302059));
#545 = CARTESIAN_POINT('',(175.39324715537,-7.555331260669,
    -2.637975796449));
#546 = CARTESIAN_POINT('',(175.3178168448,-7.501590202903,
    -2.787541288495));
#547 = CARTESIAN_POINT('',(175.23884662057,-7.445812979301,
    -2.932018592005));
#548 = CARTESIAN_POINT('',(175.15666251702,-7.388328106117,
    -3.071514946696));
#549 = CARTESIAN_POINT('',(174.84180347322,-7.170463741071,
    -3.56956411549));
#550 = CARTESIAN_POINT('',(174.59034990836,-7.000976579161,
    -3.898131999282));
#551 = CARTESIAN_POINT('',(174.32231594363,-6.826556013983,
    -4.194513497163));
#552 = CARTESIAN_POINT('',(174.04051798848,-6.651240260475,
    -4.461616554902));
#553 = CARTESIAN_POINT('',(173.7460386433,-6.478143068316,
    -4.701910737813));
#554 = CARTESIAN_POINT('',(173.16216417625,-6.159997140641,
    -5.110233281554));
#555 = CARTESIAN_POINT('',(172.87536207238,-6.013936238181,
    -5.283038805821));
#556 = CARTESIAN_POINT('',(172.57881969271,-5.875324329412,
    -5.435883155919));
#557 = CARTESIAN_POINT('',(172.27296887062,-5.747344974464,
    -5.568798983137));
#558 = CARTESIAN_POINT('',(171.95797477589,-5.633620113164,
    -5.681539733689));
#559 = CARTESIAN_POINT('',(171.37430259829,-5.461434416086,
    -5.846706767087));
#560 = CARTESIAN_POINT('',(171.10839463891,-5.396304480245,
    -5.906844530404));
#561 = CARTESIAN_POINT('',(170.83793732532,-5.345220074811,
    -5.952610255154));
#562 = CARTESIAN_POINT('',(170.56439171887,-5.310146593702,
    -5.98355720859));
#563 = CARTESIAN_POINT('',(170.28891516413,-5.292173061811,
    -5.999408724853));
#564 = CARTESIAN_POINT('',(169.73462494287,-5.290858247406,
    -6.000568287965));
#565 = CARTESIAN_POINT('',(169.45747260847,-5.307717439098,
    -5.985699525202));
#566 = CARTESIAN_POINT('',(169.18218220186,-5.341926976649,
    -5.95554505763));
#567 = CARTESIAN_POINT('',(168.90994537763,-5.392416950782,
    -5.910379016379));
#568 = CARTESIAN_POINT('',(168.64226077917,-5.457206005479,
    -5.850648994647));
#569 = CARTESIAN_POINT('',(168.05882912556,-5.627891593502,
    -5.687168165146));
#570 = CARTESIAN_POINT('',(167.74564426604,-5.740113071753,
    -5.576143496356));
#571 = CARTESIAN_POINT('',(167.44145635229,-5.866534549885,
    -5.445201793398));
#572 = CARTESIAN_POINT('',(167.14643483201,-6.003595221148,
    -5.294599651494));
#573 = CARTESIAN_POINT('',(166.86100949552,-6.148153599504,
    -5.124327123548));
#574 = CARTESIAN_POINT('',(166.27127611498,-6.467884097896,
    -4.716241453714));
#575 = CARTESIAN_POINT('',(165.97024571339,-6.644402560878,
    -4.472347865351));
#576 = CARTESIAN_POINT('',(165.68236037954,-6.823340247743,
    -4.200630520242));
#577 = CARTESIAN_POINT('',(165.40873889356,-7.001413267891,
    -3.898475384993));
#578 = CARTESIAN_POINT('',(165.15236961082,-7.174338051071,
    -3.562788537206));
#579 = CARTESIAN_POINT('',(164.76220477085,-7.444578460175,
    -2.941455556482));
#580 = CARTESIAN_POINT('',(164.615294436,-7.548418911444,-2.674910799259
    ));
#581 = CARTESIAN_POINT('',(164.48031755144,-7.645458574888,
    -2.390845884684));
#582 = CARTESIAN_POINT('',(164.35981089361,-7.733265719559,
    -2.089170313542));
#583 = CARTESIAN_POINT('',(164.25660577286,-7.809192386044,
    -1.770067783913));
#584 = CARTESIAN_POINT('',(164.08033671725,-7.939676051898,
    -1.053964354735));
#585 = CARTESIAN_POINT('',(164.01269664125,-7.990350344972,
    -0.650938860082));
#586 = CARTESIAN_POINT('',(163.97814442253,-8.016482941211,
    -0.234372331701));
#587 = CARTESIAN_POINT('',(163.97966287155,-8.015267533212,
    0.185855495443));
#588 = CARTESIAN_POINT('',(164.01642667054,-7.987562132151,
    0.599748075982));
#589 = CARTESIAN_POINT('',(164.12375681636,-7.907560604825,
    1.236244437613));
#590 = CARTESIAN_POINT('',(164.17482394814,-7.869605164779,1.4686807605)
  );
#591 = CARTESIAN_POINT('',(164.23582118002,-7.824467970512,
    1.694236458377));
#592 = CARTESIAN_POINT('',(164.30576049307,-7.77303627108,1.912236687002
    ));
#593 = CARTESIAN_POINT('',(164.38356155967,-7.716279605097,
    2.122078955517));
#594 = CARTESIAN_POINT('',(164.53523317527,-7.606675964234,
    2.483231302044));
#595 = CARTESIAN_POINT('',(164.60675284463,-7.555331260668,
    2.637975796453));
#596 = CARTESIAN_POINT('',(164.6821831552,-7.501590202898,2.787541288508
    ));
#597 = CARTESIAN_POINT('',(164.76115337943,-7.445812979299,
    2.932018592008));
#598 = CARTESIAN_POINT('',(164.84333748296,-7.388328106122,
    3.071514946684));
#599 = CARTESIAN_POINT('',(165.15819652677,-7.170463741071,3.56956411549
    ));
#600 = CARTESIAN_POINT('',(165.40965009163,-7.000976579161,
    3.898131999282));
#601 = CARTESIAN_POINT('',(165.67768405636,-6.826556013983,
    4.194513497163));
#602 = CARTESIAN_POINT('',(165.95948201151,-6.651240260475,
    4.461616554902));
#603 = CARTESIAN_POINT('',(166.25396135669,-6.478143068316,
    4.701910737813));
#604 = CARTESIAN_POINT('',(166.83783582371,-6.159997140655,
    5.110233281536));
#605 = CARTESIAN_POINT('',(167.12463792761,-6.013936238177,
    5.283038805829));
#606 = CARTESIAN_POINT('',(167.42118030731,-5.875324329398,
    5.435883155933));
#607 = CARTESIAN_POINT('',(167.72703112938,-5.747344974465,
    5.568798983135));
#608 = CARTESIAN_POINT('',(168.04202522408,-5.633620113172,5.68153973368
    ));
#609 = CARTESIAN_POINT('',(168.62765264183,-5.460857612193,
    5.847260059199));
#610 = CARTESIAN_POINT('',(168.89563213966,-5.39531803149,5.907755410229
    ));
#611 = CARTESIAN_POINT('',(169.16822073169,-5.344058488273,
    5.953650528766));
#612 = CARTESIAN_POINT('',(169.44391814354,-5.309087095048,
    5.984491828294));
#613 = CARTESIAN_POINT('',(169.72153641354,-5.291502622129,6.));
#614 = CARTESIAN_POINT('',(170.,-5.291502622129,6.));
#615 = FACE_BOUND('',#616,.F.);
#616 = EDGE_LOOP('',(#617));
#617 = ORIENTED_EDGE('',*,*,#618,.F.);
#618 = EDGE_CURVE('',#619,#619,#621,.T.);
#619 = VERTEX_POINT('',#620);
#620 = CARTESIAN_POINT('',(170.,5.291502622129,6.));
#621 = B_SPLINE_CURVE_WITH_KNOTS('',6,(#622,#623,#624,#625,#626,#627,
    #628,#629,#630,#631,#632,#633,#634,#635,#636,#637,#638,#639,#640,
    #641,#642,#643,#644,#645,#646,#647,#648,#649,#650,#651,#652,#653,
    #654,#655,#656,#657,#658,#659,#660,#661,#662,#663,#664,#665,#666,
    #667,#668,#669,#670,#671,#672,#673,#674,#675,#676,#677,#678,#679,
    #680,#681,#682,#683,#684,#685,#686,#687,#688,#689,#690,#691,#692,
    #693,#694,#695,#696,#697,#698,#699,#700,#701,#702,#703,#704,#705,
    #706,#707,#708,#709,#710,#711,#712,#713,#714,#715,#716,#717,#718,
    #719,#720,#721,#722,#723),.UNSPECIFIED.,.T.,.F.,(7,5,5,5,5,5,5,5,5,5
    ,5,5,5,5,5,5,5,5,5,5,7),(0.,4.774748362288E-02,0.107120795147,
    0.174985933821,0.220463393042,0.271917987109,0.302766812112,
    0.327303793701,0.393532898943,0.453071799842,0.500706168523,
    0.548610037624,0.607730863121,0.675307404125,0.720591469668,
    0.77182725216,0.802544891966,0.826977529588,0.892924994335,
    0.952210704957,1.),.UNSPECIFIED.);
#622 = CARTESIAN_POINT('',(170.,5.291502622129,6.));
#623 = CARTESIAN_POINT('',(170.27582692462,5.291502622129,6.));
#624 = CARTESIAN_POINT('',(170.55083859398,5.308755689238,5.984784106739
    ));
#625 = CARTESIAN_POINT('',(170.82397885549,5.343073041171,5.954519589804
    ));
#626 = CARTESIAN_POINT('',(171.09408581525,5.393394104776,5.909477849651
    ));
#627 = CARTESIAN_POINT('',(171.35969862171,5.457779237136,5.850099959501
    ));
#628 = CARTESIAN_POINT('',(171.94117087443,5.627891593502,5.687168165146
    ));
#629 = CARTESIAN_POINT('',(172.25435573395,5.740113071753,5.576143496356
    ));
#630 = CARTESIAN_POINT('',(172.55854364769,5.866534549884,5.445201793399
    ));
#631 = CARTESIAN_POINT('',(172.85356516798,6.003595221148,5.294599651493
    ));
#632 = CARTESIAN_POINT('',(173.13899050447,6.148153599504,5.124327123549
    ));
#633 = CARTESIAN_POINT('',(173.72872388501,6.467884097896,4.716241453714
    ));
#634 = CARTESIAN_POINT('',(174.0297542866,6.644402560878,4.472347865351)
  );
#635 = CARTESIAN_POINT('',(174.31763962045,6.823340247743,4.200630520243
    ));
#636 = CARTESIAN_POINT('',(174.59126110643,7.001413267891,3.898475384993
    ));
#637 = CARTESIAN_POINT('',(174.84763038917,7.174338051071,3.562788537206
    ));
#638 = CARTESIAN_POINT('',(175.23779522925,7.444578460252,2.941455556304
    ));
#639 = CARTESIAN_POINT('',(175.38470556392,7.548418911397,2.674910799327
    ));
#640 = CARTESIAN_POINT('',(175.51968244847,7.645458574826,2.390845884885
    ));
#641 = CARTESIAN_POINT('',(175.64018910641,7.733265719577,2.089170313578
    ));
#642 = CARTESIAN_POINT('',(175.74339422718,7.809192386086,1.770067783684
    ));
#643 = CARTESIAN_POINT('',(175.91966328279,7.939676051931,1.053964354553
    ));
#644 = CARTESIAN_POINT('',(175.9873033587,7.990350344941,0.650938860133)
  );
#645 = CARTESIAN_POINT('',(176.02185557745,8.016482941206,0.234372331885
    ));
#646 = CARTESIAN_POINT('',(176.02033712848,8.015267533241,
    -0.185855495395));
#647 = CARTESIAN_POINT('',(175.98357332942,7.987562132127,
    -0.599748076165));
#648 = CARTESIAN_POINT('',(175.87624318365,7.907560604837,
    -1.236244437516));
#649 = CARTESIAN_POINT('',(175.82517605186,7.869605164781,-1.46868076053
    ));
#650 = CARTESIAN_POINT('',(175.76417881995,7.824467970493,
    -1.694236458466));
#651 = CARTESIAN_POINT('',(175.69423950691,7.773036271068,-1.91223668702
    ));
#652 = CARTESIAN_POINT('',(175.61643844035,7.716279605121,
    -2.122078955438));
#653 = CARTESIAN_POINT('',(175.46476682472,7.606675964234,
    -2.483231302044));
#654 = CARTESIAN_POINT('',(175.39324715537,7.555331260668,
    -2.637975796453));
#655 = CARTESIAN_POINT('',(175.31781684479,7.501590202898,
    -2.787541288508));
#656 = CARTESIAN_POINT('',(175.23884662057,7.445812979299,
    -2.932018592008));
#657 = CARTESIAN_POINT('',(175.15666251703,7.388328106122,
    -3.071514946685));
#658 = CARTESIAN_POINT('',(174.84180347322,7.170463741071,
    -3.569564115489));
#659 = CARTESIAN_POINT('',(174.59034990836,7.000976579161,
    -3.898131999282));
#660 = CARTESIAN_POINT('',(174.32231594363,6.826556013983,
    -4.194513497163));
#661 = CARTESIAN_POINT('',(174.04051798848,6.651240260475,
    -4.461616554902));
#662 = CARTESIAN_POINT('',(173.7460386433,6.478143068316,-4.701910737813
    ));
#663 = CARTESIAN_POINT('',(173.16216417628,6.159997140655,
    -5.110233281536));
#664 = CARTESIAN_POINT('',(172.87536207238,6.013936238176,-5.28303880583
    ));
#665 = CARTESIAN_POINT('',(172.57881969268,5.875324329399,
    -5.435883155931));
#666 = CARTESIAN_POINT('',(172.27296887062,5.747344974465,
    -5.568798983135));
#667 = CARTESIAN_POINT('',(171.95797477591,5.633620113172,
    -5.681539733681));
#668 = CARTESIAN_POINT('',(171.37430259829,5.461434416087,
    -5.846706767087));
#669 = CARTESIAN_POINT('',(171.10839463891,5.396304480245,
    -5.906844530404));
#670 = CARTESIAN_POINT('',(170.83793732533,5.345220074811,
    -5.952610255153));
#671 = CARTESIAN_POINT('',(170.56439171887,5.310146593702,-5.98355720859
    ));
#672 = CARTESIAN_POINT('',(170.28891516413,5.292173061811,
    -5.999408724853));
#673 = CARTESIAN_POINT('',(169.73462494287,5.290858247406,
    -6.000568287965));
#674 = CARTESIAN_POINT('',(169.45747260846,5.307717439098,
    -5.985699525202));
#675 = CARTESIAN_POINT('',(169.18218220186,5.341926976649,-5.95554505763
    ));
#676 = CARTESIAN_POINT('',(168.90994537763,5.392416950783,
    -5.910379016379));
#677 = CARTESIAN_POINT('',(168.64226077917,5.457206005479,
    -5.850648994647));
#678 = CARTESIAN_POINT('',(168.05882912556,5.627891593502,
    -5.687168165146));
#679 = CARTESIAN_POINT('',(167.74564426604,5.740113071753,
    -5.576143496356));
#680 = CARTESIAN_POINT('',(167.4414563523,5.866534549885,-5.445201793398
    ));
#681 = CARTESIAN_POINT('',(167.14643483201,6.003595221148,
    -5.294599651494));
#682 = CARTESIAN_POINT('',(166.86100949552,6.148153599504,
    -5.124327123548));
#683 = CARTESIAN_POINT('',(166.27127611498,6.467884097896,
    -4.716241453714));
#684 = CARTESIAN_POINT('',(165.97024571339,6.644402560878,
    -4.472347865351));
#685 = CARTESIAN_POINT('',(165.68236037954,6.823340247743,
    -4.200630520242));
#686 = CARTESIAN_POINT('',(165.40873889356,7.001413267891,
    -3.898475384993));
#687 = CARTESIAN_POINT('',(165.15236961082,7.174338051071,
    -3.562788537206));
#688 = CARTESIAN_POINT('',(164.76220477075,7.444578460249,-2.94145555631
    ));
#689 = CARTESIAN_POINT('',(164.61529443607,7.548418911401,
    -2.674910799319));
#690 = CARTESIAN_POINT('',(164.48031755153,7.645458574824,
    -2.390845884883));
#691 = CARTESIAN_POINT('',(164.35981089359,7.733265719575,
    -2.089170313592));
#692 = CARTESIAN_POINT('',(164.25660577281,7.809192386087,
    -1.770067783675));
#693 = CARTESIAN_POINT('',(164.08033671726,7.93967605189,-1.053964354781
    ));
#694 = CARTESIAN_POINT('',(164.01269664123,7.99035034498,-0.650938860069
    ));
#695 = CARTESIAN_POINT('',(163.97814442253,8.016482941212,
    -0.234372331655));
#696 = CARTESIAN_POINT('',(163.97966287156,8.015267533204,0.185855495456
    ));
#697 = CARTESIAN_POINT('',(164.01642667053,7.987562132156,0.599748075934
    ));
#698 = CARTESIAN_POINT('',(164.12375681634,7.907560604839,1.236244437501
    ));
#699 = CARTESIAN_POINT('',(164.17482394813,7.869605164781,1.468680760535
    ));
#700 = CARTESIAN_POINT('',(164.23582118004,7.82446797049,1.69423645848)
  );
#701 = CARTESIAN_POINT('',(164.30576049309,7.773036271066,1.912236687022
    ));
#702 = CARTESIAN_POINT('',(164.38356155963,7.716279605125,2.122078955425
    ));
#703 = CARTESIAN_POINT('',(164.53523317527,7.606675964234,2.483231302044
    ));
#704 = CARTESIAN_POINT('',(164.60675284463,7.555331260668,2.637975796453
    ));
#705 = CARTESIAN_POINT('',(164.6821831552,7.501590202898,2.787541288508)
  );
#706 = CARTESIAN_POINT('',(164.76115337943,7.445812979299,2.932018592008
    ));
#707 = CARTESIAN_POINT('',(164.84333748296,7.388328106122,3.071514946684
    ));
#708 = CARTESIAN_POINT('',(165.15819652677,7.170463741071,3.56956411549)
  );
#709 = CARTESIAN_POINT('',(165.40965009163,7.000976579161,3.898131999282
    ));
#710 = CARTESIAN_POINT('',(165.67768405636,6.826556013983,4.194513497163
    ));
#711 = CARTESIAN_POINT('',(165.95948201151,6.651240260475,4.461616554902
    ));
#712 = CARTESIAN_POINT('',(166.25396135669,6.478143068316,4.701910737813
    ));
#713 = CARTESIAN_POINT('',(166.83783582371,6.159997140655,5.110233281536
    ));
#714 = CARTESIAN_POINT('',(167.12463792761,6.013936238176,5.28303880583)
  );
#715 = CARTESIAN_POINT('',(167.42118030731,5.875324329398,5.435883155932
    ));
#716 = CARTESIAN_POINT('',(167.72703112937,5.747344974465,5.568798983135
    ));
#717 = CARTESIAN_POINT('',(168.04202522408,5.633620113172,5.681539733681
    ));
#718 = CARTESIAN_POINT('',(168.62765264183,5.460857612193,5.847260059199
    ));
#719 = CARTESIAN_POINT('',(168.89563213966,5.39531803149,5.907755410229)
  );
#720 = CARTESIAN_POINT('',(169.16822073169,5.344058488273,5.953650528766
    ));
#721 = CARTESIAN_POINT('',(169.44391814354,5.309087095048,5.984491828294
    ));
#722 = CARTESIAN_POINT('',(169.72153641354,5.291502622129,6.));
#723 = CARTESIAN_POINT('',(170.,5.291502622129,6.));
#724 = CYLINDRICAL_SURFACE('',#725,8.);
#725 = AXIS2_PLACEMENT_3D('',#726,#727,#728);
#726 = CARTESIAN_POINT('',(0.,0.,0.));
#727 = DIRECTION('',(1.,0.,0.));
#728 = DIRECTION('',(0.,0.,1.));
#729 = ADVANCED_FACE('',(#730),#749,.T.);
#730 = FACE_BOUND('',#731,.T.);
#731 = EDGE_LOOP('',(#732,#741,#747,#748));
#732 = ORIENTED_EDGE('',*,*,#733,.F.);
#733 = EDGE_CURVE('',#734,#734,#736,.T.);
#734 = VERTEX_POINT('',#735);
#735 = CARTESIAN_POINT('',(82.,4.40872847693E-15,18.));
#736 = CIRCLE('',#737,18.);
#737 = AXIS2_PLACEMENT_3D('',#738,#739,#740);
#738 = CARTESIAN_POINT('',(82.,0.,0.));
#739 = DIRECTION('',(1.,0.,-0.));
#740 = DIRECTION('',(0.,0.,1.));
#741 = ORIENTED_EDGE('',*,*,#742,.F.);
#742 = EDGE_CURVE('',#222,#734,#743,.T.);
#743 = LINE('',#744,#745);
#744 = CARTESIAN_POINT('',(60.,4.40872847693E-15,18.));
#745 = VECTOR('',#746,1.);
#746 = DIRECTION('',(1.,0.,0.));
#747 = ORIENTED_EDGE('',*,*,#221,.T.);
#748 = ORIENTED_EDGE('',*,*,#742,.T.);
#749 = CYLINDRICAL_SURFACE('',#750,18.);
#750 = AXIS2_PLACEMENT_3D('',#751,#752,#753);
#751 = CARTESIAN_POINT('',(60.,0.,0.));
#752 = DIRECTION('',(1.,0.,0.));
#753 = DIRECTION('',(0.,0.,1.));
#754 = ADVANCED_FACE('',(#755,#766),#769,.T.);
#755 = FACE_BOUND('',#756,.T.);
#756 = EDGE_LOOP('',(#757));
#757 = ORIENTED_EDGE('',*,*,#758,.T.);
#758 = EDGE_CURVE('',#759,#759,#761,.T.);
#759 = VERTEX_POINT('',#760);
#760 = CARTESIAN_POINT('',(250.,3.918869757272E-15,16.));
#761 = CIRCLE('',#762,16.);
#762 = AXIS2_PLACEMENT_3D('',#763,#764,#765);
#763 = CARTESIAN_POINT('',(250.,0.,0.));
#764 = DIRECTION('',(1.,0.,-0.));
#765 = DIRECTION('',(0.,0.,1.));
#766 = FACE_BOUND('',#767,.T.);
#767 = EDGE_LOOP('',(#768));
#768 = ORIENTED_EDGE('',*,*,#493,.F.);
#769 = PLANE('',#770);
#770 = AXIS2_PLACEMENT_3D('',#771,#772,#773);
#771 = CARTESIAN_POINT('',(250.,0.,0.));
#772 = DIRECTION('',(1.,0.,0.));
#773 = DIRECTION('',(0.,0.,1.));
#774 = ADVANCED_FACE('',(#775),#912,.F.);
#775 = FACE_BOUND('',#776,.F.);
#776 = EDGE_LOOP('',(#777,#778,#786,#911));
#777 = ORIENTED_EDGE('',*,*,#509,.F.);
#778 = ORIENTED_EDGE('',*,*,#779,.F.);
#779 = EDGE_CURVE('',#780,#510,#782,.T.);
#780 = VERTEX_POINT('',#781);
#781 = CARTESIAN_POINT('',(170.,-10.39230484541,6.));
#782 = LINE('',#783,#784);
#783 = CARTESIAN_POINT('',(170.,-40.,6.));
#784 = VECTOR('',#785,1.);
#785 = DIRECTION('',(0.,1.,0.));
#786 = ORIENTED_EDGE('',*,*,#787,.T.);
#787 = EDGE_CURVE('',#780,#780,#788,.T.);
#788 = B_SPLINE_CURVE_WITH_KNOTS('',7,(#789,#790,#791,#792,#793,#794,
    #795,#796,#797,#798,#799,#800,#801,#802,#803,#804,#805,#806,#807,
    #808,#809,#810,#811,#812,#813,#814,#815,#816,#817,#818,#819,#820,
    #821,#822,#823,#824,#825,#826,#827,#828,#829,#830,#831,#832,#833,
    #834,#835,#836,#837,#838,#839,#840,#841,#842,#843,#844,#845,#846,
    #847,#848,#849,#850,#851,#852,#853,#854,#855,#856,#857,#858,#859,
    #860,#861,#862,#863,#864,#865,#866,#867,#868,#869,#870,#871,#872,
    #873,#874,#875,#876,#877,#878,#879,#880,#881,#882,#883,#884,#885,
    #886,#887,#888,#889,#890,#891,#892,#893,#894,#895,#896,#897,#898,
    #899,#900,#901,#902,#903,#904,#905,#906,#907,#908,#909,#910),
  .UNSPECIFIED.,.T.,.F.,(8,6,6,6,6,6,6,6,6,6,6,6,6,6,6,6,6,6,6,6,8),(0.,
    8.135169087972E-02,0.12897084564,0.165017686607,0.19301889221,
    0.249030233733,0.307993209367,0.335222076898,0.371778463502,
    0.417722769904,0.499424199609,0.543360582013,0.581204016023,
    0.664910790863,0.69293764489,0.749000291447,0.80801727568,
    0.835271084133,0.871860955418,0.917847345587,1.),.UNSPECIFIED.);
#789 = CARTESIAN_POINT('',(170.,-10.39230484541,6.));
#790 = CARTESIAN_POINT('',(170.38760831282,-10.39230484541,6.));
#791 = CARTESIAN_POINT('',(170.77465416327,-10.40917086982,
    5.970787089304));
#792 = CARTESIAN_POINT('',(171.15937764042,-10.44281654604,
    5.912511379194));
#793 = CARTESIAN_POINT('',(171.5399780634,-10.49251822326,5.825230565115
    ));
#794 = CARTESIAN_POINT('',(171.91453590912,-10.55691846818,
    5.708940465905));
#795 = CARTESIAN_POINT('',(172.28093859127,-10.63408182502,
    5.563656836598));
#796 = CARTESIAN_POINT('',(172.84511922105,-10.77283320386,
    5.287634236569));
#797 = CARTESIAN_POINT('',(173.04998119098,-10.82765207179,
    5.175765041131));
#798 = CARTESIAN_POINT('',(173.25113132456,-10.88564058543,
    5.053839311043));
#799 = CARTESIAN_POINT('',(173.44825264843,-10.94634557548,
    4.921709394763));
#800 = CARTESIAN_POINT('',(173.64096143417,-11.00927187994,
    4.779190074788));
#801 = CARTESIAN_POINT('',(173.82879274085,-11.07387466265,
    4.626067095796));
#802 = CARTESIAN_POINT('',(174.14925433179,-11.18926808821,
    4.337989869024));
#803 = CARTESIAN_POINT('',(174.28422960216,-11.23960821502,
    4.207642624867));
#804 = CARTESIAN_POINT('',(174.41589846742,-11.29032286118,4.07092975563
    ));
#805 = CARTESIAN_POINT('',(174.54400414602,-11.34114105637,
    3.927707688597));
#806 = CARTESIAN_POINT('',(174.66824142528,-11.3917664213,3.777829305508
    ));
#807 = CARTESIAN_POINT('',(174.78825171053,-11.44187347797,
    3.621149765064));
#808 = CARTESIAN_POINT('',(174.99323472821,-11.52934622505,
    3.330434209626));
#809 = CARTESIAN_POINT('',(175.08006830249,-11.56706772684,
    3.199122597718));
#810 = CARTESIAN_POINT('',(175.16389899415,-11.60409093349,
    3.063561159931));
#811 = CARTESIAN_POINT('',(175.24449009954,-11.64022701883,
    2.923722690565));
#812 = CARTESIAN_POINT('',(175.32158768524,-11.67527667078,
    2.779589298036));
#813 = CARTESIAN_POINT('',(175.39492025902,-11.70903089984,2.63115259493
    ));
#814 = CARTESIAN_POINT('',(175.60277689872,-11.80576402563,
    2.172887761919));
#815 = CARTESIAN_POINT('',(175.72624246949,-11.86471777439,
    1.847701257746));
#816 = CARTESIAN_POINT('',(175.83034159242,-11.91553254499,
    1.505596830754));
#817 = CARTESIAN_POINT('',(175.91177488789,-11.9559046193,1.149701419238
    ));
#818 = CARTESIAN_POINT('',(175.96811123551,-11.98405613922,
    0.783437539285));
#819 = CARTESIAN_POINT('',(175.99774571502,-11.99887287109,
    0.410428230813));
#820 = CARTESIAN_POINT('',(176.00217070302,-12.00108533783,
    -0.361452328912));
#821 = CARTESIAN_POINT('',(175.97395392277,-11.98697747769,
    -0.754577327336));
#822 = CARTESIAN_POINT('',(175.91603090941,-11.95799903046,
    -1.140632383813));
#823 = CARTESIAN_POINT('',(175.83019851289,-11.91539648844,
    -1.515379522176));
#824 = CARTESIAN_POINT('',(175.71926480304,-11.86123848463,
    -1.874821754593));
#825 = CARTESIAN_POINT('',(175.58710300678,-11.79823914186,
    -2.215326328956));
#826 = CARTESIAN_POINT('',(175.3702633507,-11.69769399747,
    -2.680780727437));
#827 = CARTESIAN_POINT('',(175.29801112482,-11.66455812644,
    -2.823756759139));
#828 = CARTESIAN_POINT('',(175.22226953773,-11.63024716469,
    -2.962671188088));
#829 = CARTESIAN_POINT('',(175.14328332811,-11.59495041442,
    -3.097536350803));
#830 = CARTESIAN_POINT('',(175.06128118772,-11.55884828819,
    -3.228372683884));
#831 = CARTESIAN_POINT('',(174.97647601884,-11.52211167815,
    -3.35520856487));
#832 = CARTESIAN_POINT('',(174.77171091734,-11.43494419609,
    -3.643042624512));
#833 = CARTESIAN_POINT('',(174.64963091862,-11.38412075071,
    -3.800900317383));
#834 = CARTESIAN_POINT('',(174.52325389289,-11.33280078495,
    -3.951796128513));
#835 = CARTESIAN_POINT('',(174.39294756789,-11.2813198008,
    -4.095880896263));
#836 = CARTESIAN_POINT('',(174.25902398617,-11.22998297316,
    -4.233307289984));
#837 = CARTESIAN_POINT('',(174.12174478953,-11.17906911672,
    -4.364223699437));
#838 = CARTESIAN_POINT('',(173.80484788066,-11.06569964888,-4.645296374)
  );
#839 = CARTESIAN_POINT('',(173.62337861429,-11.00362642851,
    -4.791788365023));
#840 = CARTESIAN_POINT('',(173.43741229322,-10.94314905564,
    -4.928451834009));
#841 = CARTESIAN_POINT('',(173.24736115926,-10.88475273204,
    -5.055476310034));
#842 = CARTESIAN_POINT('',(173.05356806787,-10.82888011644,
    -5.173026088017));
#843 = CARTESIAN_POINT('',(172.85631844877,-10.7759376438,
    -5.281233202226));
#844 = CARTESIAN_POINT('',(172.29936905972,-10.63803594024,
    -5.556163118723));
#845 = CARTESIAN_POINT('',(171.93221876041,-10.56010396999,
    -5.703129282416));
#846 = CARTESIAN_POINT('',(171.55680060458,-10.49494395455,
    -5.82092407999));
#847 = CARTESIAN_POINT('',(171.17524502033,-10.44452112996,
    -5.909535873537));
#848 = CARTESIAN_POINT('',(170.78948501863,-10.41021887156,
    -5.968971631916));
#849 = CARTESIAN_POINT('',(170.40133140933,-10.39278199371,
    -5.999173552508));
#850 = CARTESIAN_POINT('',(169.80347878458,-10.39205990689,
    -6.000424247222));
#851 = CARTESIAN_POINT('',(169.59442346908,-10.39671429575,
    -5.992362104161));
#852 = CARTESIAN_POINT('',(169.38570627335,-10.40627603502,
    -5.975804807703));
#853 = CARTESIAN_POINT('',(169.17765458634,-10.42068349959,
    -5.950759388079));
#854 = CARTESIAN_POINT('',(168.97060300602,-10.4398150675,
    -5.917237878775));
#855 = CARTESIAN_POINT('',(168.76489353697,-10.46349119122,
    -5.875259655507));
#856 = CARTESIAN_POINT('',(168.38515052812,-10.51558084324,
    -5.781438011317));
#857 = CARTESIAN_POINT('',(168.2106862082,-10.54288142079,
    -5.731771467522));
#858 = CARTESIAN_POINT('',(168.03764026082,-10.57323725836,
    -5.675856809494));
#859 = CARTESIAN_POINT('',(167.8661815073,-10.60648402941,
    -5.613689637184));
#860 = CARTESIAN_POINT('',(167.69649027462,-10.64243530558,
    -5.545259694656));
#861 = CARTESIAN_POINT('',(167.52875851233,-10.6808838382,
    -5.470552079926));
#862 = CARTESIAN_POINT('',(166.99696485299,-10.81167014953,
    -5.210374645997));
#863 = CARTESIAN_POINT('',(166.64184859241,-10.91271692633,
    -5.000653676317));
#864 = CARTESIAN_POINT('',(166.29887515142,-11.02250836503,
    -4.759795438459));
#865 = CARTESIAN_POINT('',(165.9697124074,-11.13853707465,
    -4.486644614949));
#866 = CARTESIAN_POINT('',(165.65688034966,-11.25787031213,
    -4.179660277813));
#867 = CARTESIAN_POINT('',(165.36403669223,-11.37688719232,
    -3.837131596625));
#868 = CARTESIAN_POINT('',(165.00676527177,-11.52934622506,
    -3.330434209615));
#869 = CARTESIAN_POINT('',(164.9199316975,-11.56706772684,
    -3.199122597716));
#870 = CARTESIAN_POINT('',(164.83610100584,-11.60409093349,
    -3.06356115994));
#871 = CARTESIAN_POINT('',(164.75550990046,-11.64022701883,
    -2.923722690574));
#872 = CARTESIAN_POINT('',(164.67841231475,-11.67527667078,
    -2.779589298035));
#873 = CARTESIAN_POINT('',(164.60507974097,-11.70903089984,
    -2.631152594917));
#874 = CARTESIAN_POINT('',(164.39722310127,-11.80576402563,
    -2.172887761919));
#875 = CARTESIAN_POINT('',(164.2737575305,-11.86471777439,
    -1.847701257746));
#876 = CARTESIAN_POINT('',(164.16965840757,-11.91553254499,
    -1.505596830754));
#877 = CARTESIAN_POINT('',(164.0882251121,-11.9559046193,-1.149701419238
    ));
#878 = CARTESIAN_POINT('',(164.03188876448,-11.98405613922,
    -0.783437539284));
#879 = CARTESIAN_POINT('',(164.00225428497,-11.99887287109,
    -0.410428230814));
#880 = CARTESIAN_POINT('',(163.99782929697,-12.00108533783,
    0.361452328503));
#881 = CARTESIAN_POINT('',(164.02604607716,-11.98697747773,
    0.754577327279));
#882 = CARTESIAN_POINT('',(164.0839690906,-11.95799903045,1.140632384122
    ));
#883 = CARTESIAN_POINT('',(164.16980148722,-11.91539648838,
    1.515379522496));
#884 = CARTESIAN_POINT('',(164.280735197,-11.86123848461,1.87482175457)
  );
#885 = CARTESIAN_POINT('',(164.41289699304,-11.79823914193,
    2.215326328592));
#886 = CARTESIAN_POINT('',(164.62973664928,-11.69769399747,
    2.680780727427));
#887 = CARTESIAN_POINT('',(164.70198887517,-11.66455812644,
    2.823756759138));
#888 = CARTESIAN_POINT('',(164.77773046226,-11.63024716469,
    2.962671188095));
#889 = CARTESIAN_POINT('',(164.85671667188,-11.59495041441,3.09753635081
    ));
#890 = CARTESIAN_POINT('',(164.93871881227,-11.55884828819,
    3.228372683883));
#891 = CARTESIAN_POINT('',(165.02352398115,-11.52211167815,
    3.355208564862));
#892 = CARTESIAN_POINT('',(165.22828908265,-11.43494419609,
    3.643042624512));
#893 = CARTESIAN_POINT('',(165.35036908137,-11.38412075071,
    3.800900317383));
#894 = CARTESIAN_POINT('',(165.4767461071,-11.33280078495,3.951796128513
    ));
#895 = CARTESIAN_POINT('',(165.6070524321,-11.28131980079,4.095880896263
    ));
#896 = CARTESIAN_POINT('',(165.74097601382,-11.22998297316,
    4.233307289983));
#897 = CARTESIAN_POINT('',(165.87825521046,-11.17906911672,
    4.364223699437));
#898 = CARTESIAN_POINT('',(166.19515211934,-11.06569964888,
    4.645296374001));
#899 = CARTESIAN_POINT('',(166.3766213857,-11.00362642851,4.791788365023
    ));
#900 = CARTESIAN_POINT('',(166.56258770677,-10.94314905564,
    4.928451834009));
#901 = CARTESIAN_POINT('',(166.75263884073,-10.88475273204,
    5.055476310033));
#902 = CARTESIAN_POINT('',(166.94643193212,-10.82888011644,
    5.173026088017));
#903 = CARTESIAN_POINT('',(167.14368155122,-10.7759376438,5.281233202226
    ));
#904 = CARTESIAN_POINT('',(167.70227171133,-10.63762968227,
    5.556973061347));
#905 = CARTESIAN_POINT('',(168.07116737533,-10.55938528121,
    5.704484569782));
#906 = CARTESIAN_POINT('',(168.44839938423,-10.49404194913,5.82255436636
    ));
#907 = CARTESIAN_POINT('',(168.83180604871,-10.4435911217,5.911169785308
    ));
#908 = CARTESIAN_POINT('',(169.21942626248,-10.40943024222,
    5.970337838045));
#909 = CARTESIAN_POINT('',(169.60942251704,-10.39230484541,6.));
#910 = CARTESIAN_POINT('',(170.,-10.39230484541,6.));
#911 = ORIENTED_EDGE('',*,*,#779,.T.);
#912 = CYLINDRICAL_SURFACE('',#913,6.);
#913 = AXIS2_PLACEMENT_3D('',#914,#915,#916);
#914 = CARTESIAN_POINT('',(170.,-40.,0.));
#915 = DIRECTION('',(0.,1.,0.));
#916 = DIRECTION('',(0.,0.,1.));
#917 = ADVANCED_FACE('',(#918),#1055,.F.);
#918 = FACE_BOUND('',#919,.F.);
#919 = EDGE_LOOP('',(#920,#1047,#1053,#1054));
#920 = ORIENTED_EDGE('',*,*,#921,.F.);
#921 = EDGE_CURVE('',#922,#922,#924,.T.);
#922 = VERTEX_POINT('',#923);
#923 = CARTESIAN_POINT('',(170.,10.392304845413,6.));
#924 = B_SPLINE_CURVE_WITH_KNOTS('',7,(#925,#926,#927,#928,#929,#930,
    #931,#932,#933,#934,#935,#936,#937,#938,#939,#940,#941,#942,#943,
    #944,#945,#946,#947,#948,#949,#950,#951,#952,#953,#954,#955,#956,
    #957,#958,#959,#960,#961,#962,#963,#964,#965,#966,#967,#968,#969,
    #970,#971,#972,#973,#974,#975,#976,#977,#978,#979,#980,#981,#982,
    #983,#984,#985,#986,#987,#988,#989,#990,#991,#992,#993,#994,#995,
    #996,#997,#998,#999,#1000,#1001,#1002,#1003,#1004,#1005,#1006,#1007,
    #1008,#1009,#1010,#1011,#1012,#1013,#1014,#1015,#1016,#1017,#1018,
    #1019,#1020,#1021,#1022,#1023,#1024,#1025,#1026,#1027,#1028,#1029,
    #1030,#1031,#1032,#1033,#1034,#1035,#1036,#1037,#1038,#1039,#1040,
    #1041,#1042,#1043,#1044,#1045,#1046),.UNSPECIFIED.,.T.,.F.,(8,6,6,6,
    6,6,6,6,6,6,6,6,6,6,6,6,6,6,6,6,8),(0.,8.135169061797E-02,
    0.128970846884,0.165017688423,0.193018893961,0.249030235359,
    0.3079932108,0.335222078211,0.371778464654,0.417722770854,
    0.499424200201,0.543360582412,0.581204016255,0.664910790726,
    0.692937644631,0.749000290941,0.808017274914,0.83527108325,
    0.871860954379,0.917847345804,1.),.UNSPECIFIED.);
#925 = CARTESIAN_POINT('',(170.,10.392304845413,6.));
#926 = CARTESIAN_POINT('',(170.38760831282,10.392304845413,6.));
#927 = CARTESIAN_POINT('',(170.77465416327,10.409170869826,
    5.970787089304));
#928 = CARTESIAN_POINT('',(171.15937764042,10.442816546042,
    5.912511379195));
#929 = CARTESIAN_POINT('',(171.5399780634,10.49251822326,5.825230565115)
  );
#930 = CARTESIAN_POINT('',(171.91453590912,10.556918468183,
    5.708940465904));
#931 = CARTESIAN_POINT('',(172.28093859127,10.634081825019,
    5.563656836598));
#932 = CARTESIAN_POINT('',(172.84511922831,10.772833205652,
    5.287634233018));
#933 = CARTESIAN_POINT('',(173.04998118402,10.827652069641,
    5.175765046073));
#934 = CARTESIAN_POINT('',(173.25113131877,10.885640583987,
    5.053839313947));
#935 = CARTESIAN_POINT('',(173.44825265385,10.946345577407,
    4.921709390041));
#936 = CARTESIAN_POINT('',(173.64096144123,11.00927188201,4.779190070212
    ));
#937 = CARTESIAN_POINT('',(173.82879273414,11.073874660246,
    4.626067101821));
#938 = CARTESIAN_POINT('',(174.14925433469,11.189268089264,
    4.337989866417));
#939 = CARTESIAN_POINT('',(174.28422959962,11.23960821401,4.207642627897
    ));
#940 = CARTESIAN_POINT('',(174.41589846507,11.290322860322,
    4.070929757833));
#941 = CARTESIAN_POINT('',(174.54400414779,11.341141057134,3.92770768606
    ));
#942 = CARTESIAN_POINT('',(174.66824142793,11.39176642234,3.777829302505
    ));
#943 = CARTESIAN_POINT('',(174.78825170842,11.441873477071,
    3.621149768054));
#944 = CARTESIAN_POINT('',(174.99323472822,11.52934622506,3.330434209615
    ));
#945 = CARTESIAN_POINT('',(175.08006830249,11.567067726842,
    3.199122597716));
#946 = CARTESIAN_POINT('',(175.16389899415,11.604090933496,3.06356115994
    ));
#947 = CARTESIAN_POINT('',(175.24449009953,11.640227018836,
    2.923722690574));
#948 = CARTESIAN_POINT('',(175.32158768524,11.675276670783,
    2.779589298035));
#949 = CARTESIAN_POINT('',(175.39492025903,11.709030899846,
    2.631152594917));
#950 = CARTESIAN_POINT('',(175.60277689872,11.805764025631,
    2.172887761919));
#951 = CARTESIAN_POINT('',(175.72624246949,11.864717774391,
    1.847701257746));
#952 = CARTESIAN_POINT('',(175.83034159242,11.915532544997,
    1.505596830754));
#953 = CARTESIAN_POINT('',(175.91177488789,11.955904619305,
    1.149701419238));
#954 = CARTESIAN_POINT('',(175.96811123551,11.984056139226,
    0.783437539285));
#955 = CARTESIAN_POINT('',(175.99774571502,11.998872871099,
    0.410428230813));
#956 = CARTESIAN_POINT('',(176.00217070302,12.001085337833,
    -0.361452328504));
#957 = CARTESIAN_POINT('',(175.97395392283,11.98697747773,
    -0.754577327279));
#958 = CARTESIAN_POINT('',(175.91603090939,11.957999030457,
    -1.140632384121));
#959 = CARTESIAN_POINT('',(175.83019851278,11.915396488386,
    -1.515379522496));
#960 = CARTESIAN_POINT('',(175.71926480299,11.861238484616,
    -1.87482175457));
#961 = CARTESIAN_POINT('',(175.58710300695,11.798239141939,
    -2.215326328593));
#962 = CARTESIAN_POINT('',(175.3702633507,11.697693997472,
    -2.680780727438));
#963 = CARTESIAN_POINT('',(175.29801112482,11.664558126447,
    -2.823756759139));
#964 = CARTESIAN_POINT('',(175.22226953773,11.630247164698,
    -2.962671188088));
#965 = CARTESIAN_POINT('',(175.14328332811,11.59495041442,
    -3.097536350803));
#966 = CARTESIAN_POINT('',(175.06128118772,11.558848288193,
    -3.228372683884));
#967 = CARTESIAN_POINT('',(174.97647601884,11.522111678151,
    -3.35520856487));
#968 = CARTESIAN_POINT('',(174.77171091734,11.434944196091,
    -3.643042624513));
#969 = CARTESIAN_POINT('',(174.64963091862,11.384120750717,
    -3.800900317384));
#970 = CARTESIAN_POINT('',(174.5232538929,11.332800784954,
    -3.951796128512));
#971 = CARTESIAN_POINT('',(174.39294756789,11.2813198008,-4.095880896262
    ));
#972 = CARTESIAN_POINT('',(174.25902398617,11.229982973168,
    -4.233307289983));
#973 = CARTESIAN_POINT('',(174.12174478953,11.179069116719,
    -4.364223699438));
#974 = CARTESIAN_POINT('',(173.80484788066,11.065699648887,-4.645296374)
  );
#975 = CARTESIAN_POINT('',(173.62337861429,11.003626428517,
    -4.791788365022));
#976 = CARTESIAN_POINT('',(173.43741229322,10.943149055649,
    -4.928451834009));
#977 = CARTESIAN_POINT('',(173.24736115926,10.884752732047,
    -5.055476310033));
#978 = CARTESIAN_POINT('',(173.05356806787,10.828880116441,
    -5.173026088017));
#979 = CARTESIAN_POINT('',(172.85631844877,10.775937643807,
    -5.281233202226));
#980 = CARTESIAN_POINT('',(172.29936905972,10.63803594024,
    -5.556163118722));
#981 = CARTESIAN_POINT('',(171.93221876041,10.560103969998,
    -5.703129282417));
#982 = CARTESIAN_POINT('',(171.55680060459,10.494943954554,
    -5.82092407999));
#983 = CARTESIAN_POINT('',(171.17524502033,10.444521129969,
    -5.909535873537));
#984 = CARTESIAN_POINT('',(170.78948501863,10.410218871569,
    -5.968971631916));
#985 = CARTESIAN_POINT('',(170.40133140933,10.392781993714,
    -5.999173552508));
#986 = CARTESIAN_POINT('',(169.80347878458,10.392059906891,
    -6.000424247222));
#987 = CARTESIAN_POINT('',(169.59442346908,10.396714295755,
    -5.992362104161));
#988 = CARTESIAN_POINT('',(169.38570627335,10.406276035029,
    -5.975804807703));
#989 = CARTESIAN_POINT('',(169.17765458634,10.420683499596,
    -5.950759388079));
#990 = CARTESIAN_POINT('',(168.97060300602,10.439815067506,
    -5.917237878775));
#991 = CARTESIAN_POINT('',(168.76489353697,10.463491191228,
    -5.875259655507));
#992 = CARTESIAN_POINT('',(168.38515052812,10.51558084324,
    -5.781438011317));
#993 = CARTESIAN_POINT('',(168.2106862082,10.542881420799,
    -5.731771467522));
#994 = CARTESIAN_POINT('',(168.03764026082,10.573237258368,
    -5.675856809494));
#995 = CARTESIAN_POINT('',(167.8661815073,10.606484029417,
    -5.613689637184));
#996 = CARTESIAN_POINT('',(167.69649027462,10.642435305589,
    -5.545259694656));
#997 = CARTESIAN_POINT('',(167.52875851233,10.680883838203,
    -5.470552079926));
#998 = CARTESIAN_POINT('',(166.99696485299,10.811670149538,
    -5.210374645997));
#999 = CARTESIAN_POINT('',(166.64184859241,10.912716926336,
    -5.000653676317));
#1000 = CARTESIAN_POINT('',(166.29887515142,11.022508365038,
    -4.759795438459));
#1001 = CARTESIAN_POINT('',(165.9697124074,11.138537074659,
    -4.486644614949));
#1002 = CARTESIAN_POINT('',(165.65688034966,11.257870312133,
    -4.179660277813));
#1003 = CARTESIAN_POINT('',(165.36403669223,11.376887192325,
    -3.837131596625));
#1004 = CARTESIAN_POINT('',(165.00676527177,11.52934622506,
    -3.330434209615));
#1005 = CARTESIAN_POINT('',(164.9199316975,11.567067726842,
    -3.199122597716));
#1006 = CARTESIAN_POINT('',(164.83610100584,11.604090933496,
    -3.06356115994));
#1007 = CARTESIAN_POINT('',(164.75550990046,11.640227018836,
    -2.923722690574));
#1008 = CARTESIAN_POINT('',(164.67841231475,11.675276670783,
    -2.779589298035));
#1009 = CARTESIAN_POINT('',(164.60507974097,11.709030899846,
    -2.631152594917));
#1010 = CARTESIAN_POINT('',(164.39722310127,11.805764025631,
    -2.172887761919));
#1011 = CARTESIAN_POINT('',(164.2737575305,11.864717774391,
    -1.847701257746));
#1012 = CARTESIAN_POINT('',(164.16965840757,11.915532544997,
    -1.505596830754));
#1013 = CARTESIAN_POINT('',(164.0882251121,11.955904619305,
    -1.149701419238));
#1014 = CARTESIAN_POINT('',(164.03188876448,11.984056139226,
    -0.783437539285));
#1015 = CARTESIAN_POINT('',(164.00225428497,11.998872871099,
    -0.410428230813));
#1016 = CARTESIAN_POINT('',(163.99782929697,12.001085337833,
    0.361452328503));
#1017 = CARTESIAN_POINT('',(164.02604607716,11.98697747773,
    0.754577327279));
#1018 = CARTESIAN_POINT('',(164.0839690906,11.957999030457,
    1.140632384122));
#1019 = CARTESIAN_POINT('',(164.16980148722,11.915396488386,
    1.515379522496));
#1020 = CARTESIAN_POINT('',(164.280735197,11.861238484616,1.87482175457)
  );
#1021 = CARTESIAN_POINT('',(164.41289699304,11.798239141939,
    2.215326328592));
#1022 = CARTESIAN_POINT('',(164.62973664929,11.697693997472,
    2.680780727437));
#1023 = CARTESIAN_POINT('',(164.70198887517,11.664558126447,
    2.823756759139));
#1024 = CARTESIAN_POINT('',(164.77773046226,11.630247164698,
    2.962671188088));
#1025 = CARTESIAN_POINT('',(164.85671667188,11.59495041442,
    3.097536350803));
#1026 = CARTESIAN_POINT('',(164.93871881227,11.558848288193,
    3.228372683884));
#1027 = CARTESIAN_POINT('',(165.02352398115,11.522111678151,
    3.35520856487));
#1028 = CARTESIAN_POINT('',(165.22828908265,11.434944196091,
    3.643042624512));
#1029 = CARTESIAN_POINT('',(165.35036908137,11.384120750717,
    3.800900317383));
#1030 = CARTESIAN_POINT('',(165.4767461071,11.332800784954,
    3.951796128513));
#1031 = CARTESIAN_POINT('',(165.6070524321,11.281319800799,
    4.095880896263));
#1032 = CARTESIAN_POINT('',(165.74097601382,11.229982973168,
    4.233307289983));
#1033 = CARTESIAN_POINT('',(165.87825521046,11.17906911672,
    4.364223699437));
#1034 = CARTESIAN_POINT('',(166.19515212491,11.065699646893,
    4.645296378945));
#1035 = CARTESIAN_POINT('',(166.37662137984,11.003626430229,
    4.791788361238));
#1036 = CARTESIAN_POINT('',(166.56258770227,10.943149057234,
    4.928451830133));
#1037 = CARTESIAN_POINT('',(166.75263884552,10.884752730837,
    5.055476312456));
#1038 = CARTESIAN_POINT('',(166.9464319379,10.828880114656,
    5.173026092094));
#1039 = CARTESIAN_POINT('',(167.14368154521,10.775937645294,
    5.28123319926));
#1040 = CARTESIAN_POINT('',(167.70227171133,10.637629682278,
    5.556973061347));
#1041 = CARTESIAN_POINT('',(168.07116737533,10.559385281219,
    5.704484569781));
#1042 = CARTESIAN_POINT('',(168.44839938423,10.494041949134,
    5.82255436636));
#1043 = CARTESIAN_POINT('',(168.83180604871,10.443591121706,
    5.911169785308));
#1044 = CARTESIAN_POINT('',(169.21942626248,10.409430242229,
    5.970337838044));
#1045 = CARTESIAN_POINT('',(169.60942251704,10.392304845413,6.));
#1046 = CARTESIAN_POINT('',(170.,10.392304845413,6.));
#1047 = ORIENTED_EDGE('',*,*,#1048,.F.);
#1048 = EDGE_CURVE('',#619,#922,#1049,.T.);
#1049 = LINE('',#1050,#1051);
#1050 = CARTESIAN_POINT('',(170.,-40.,6.));
#1051 = VECTOR('',#1052,1.);
#1052 = DIRECTION('',(0.,1.,0.));
#1053 = ORIENTED_EDGE('',*,*,#618,.T.);
#1054 = ORIENTED_EDGE('',*,*,#1048,.T.);
#1055 = CYLINDRICAL_SURFACE('',#1056,6.);
#1056 = AXIS2_PLACEMENT_3D('',#1057,#1058,#1059);
#1057 = CARTESIAN_POINT('',(170.,-40.,0.));
#1058 = DIRECTION('',(0.,1.,0.));
#1059 = DIRECTION('',(0.,0.,1.));
#1060 = ADVANCED_FACE('',(#1061,#1072),#1075,.F.);
#1061 = FACE_BOUND('',#1062,.F.);
#1062 = EDGE_LOOP('',(#1063));
#1063 = ORIENTED_EDGE('',*,*,#1064,.T.);
#1064 = EDGE_CURVE('',#1065,#1065,#1067,.T.);
#1065 = VERTEX_POINT('',#1066);
#1066 = CARTESIAN_POINT('',(82.,7.837739514543E-15,32.));
#1067 = CIRCLE('',#1068,32.);
#1068 = AXIS2_PLACEMENT_3D('',#1069,#1070,#1071);
#1069 = CARTESIAN_POINT('',(82.,0.,0.));
#1070 = DIRECTION('',(1.,0.,-0.));
#1071 = DIRECTION('',(0.,0.,1.));
#1072 = FACE_BOUND('',#1073,.F.);
#1073 = EDGE_LOOP('',(#1074));
#1074 = ORIENTED_EDGE('',*,*,#733,.F.);
#1075 = PLANE('',#1076);
#1076 = AXIS2_PLACEMENT_3D('',#1077,#1078,#1079);
#1077 = CARTESIAN_POINT('',(82.,0.,0.));
#1078 = DIRECTION('',(1.,0.,0.));
#1079 = DIRECTION('',(0.,0.,1.));
#1080 = ADVANCED_FACE('',(#1081),#1134,.T.);
#1081 = FACE_BOUND('',#1082,.T.);
#1082 = EDGE_LOOP('',(#1083,#1091,#1092,#1093,#1102,#1110,#1119,#1127));
#1083 = ORIENTED_EDGE('',*,*,#1084,.T.);
#1084 = EDGE_CURVE('',#1085,#759,#1087,.T.);
#1085 = VERTEX_POINT('',#1086);
#1086 = CARTESIAN_POINT('',(214.,3.918869757272E-15,16.));
#1087 = LINE('',#1088,#1089);
#1088 = CARTESIAN_POINT('',(210.,3.918869757272E-15,16.));
#1089 = VECTOR('',#1090,1.);
#1090 = DIRECTION('',(1.,0.,0.));
#1091 = ORIENTED_EDGE('',*,*,#758,.F.);
#1092 = ORIENTED_EDGE('',*,*,#1084,.F.);
#1093 = ORIENTED_EDGE('',*,*,#1094,.T.);
#1094 = EDGE_CURVE('',#1085,#1095,#1097,.T.);
#1095 = VERTEX_POINT('',#1096);
#1096 = CARTESIAN_POINT('',(214.,-5.,15.198684153571));
#1097 = CIRCLE('',#1098,16.);
#1098 = AXIS2_PLACEMENT_3D('',#1099,#1100,#1101);
#1099 = CARTESIAN_POINT('',(214.,0.,0.));
#1100 = DIRECTION('',(1.,0.,-0.));
#1101 = DIRECTION('',(0.,0.,1.));
#1102 = ORIENTED_EDGE('',*,*,#1103,.F.);
#1103 = EDGE_CURVE('',#1104,#1095,#1106,.T.);
#1104 = VERTEX_POINT('',#1105);
#1105 = CARTESIAN_POINT('',(210.,-5.,15.198684153571));
#1106 = LINE('',#1107,#1108);
#1107 = CARTESIAN_POINT('',(210.,-5.,15.198684153571));
#1108 = VECTOR('',#1109,1.);
#1109 = DIRECTION('',(1.,0.,0.));
#1110 = ORIENTED_EDGE('',*,*,#1111,.T.);
#1111 = EDGE_CURVE('',#1104,#1112,#1114,.T.);
#1112 = VERTEX_POINT('',#1113);
#1113 = CARTESIAN_POINT('',(210.,5.,15.198684153571));
#1114 = CIRCLE('',#1115,16.);
#1115 = AXIS2_PLACEMENT_3D('',#1116,#1117,#1118);
#1116 = CARTESIAN_POINT('',(210.,0.,0.));
#1117 = DIRECTION('',(1.,0.,-0.));
#1118 = DIRECTION('',(0.,0.,1.));
#1119 = ORIENTED_EDGE('',*,*,#1120,.T.);
#1120 = EDGE_CURVE('',#1112,#1121,#1123,.T.);
#1121 = VERTEX_POINT('',#1122);
#1122 = CARTESIAN_POINT('',(214.,5.,15.198684153571));
#1123 = LINE('',#1124,#1125);
#1124 = CARTESIAN_POINT('',(210.,5.,15.198684153571));
#1125 = VECTOR('',#1126,1.);
#1126 = DIRECTION('',(1.,0.,0.));
#1127 = ORIENTED_EDGE('',*,*,#1128,.T.);
#1128 = EDGE_CURVE('',#1121,#1085,#1129,.T.);
#1129 = CIRCLE('',#1130,16.);
#1130 = AXIS2_PLACEMENT_3D('',#1131,#1132,#1133);
#1131 = CARTESIAN_POINT('',(214.,0.,0.));
#1132 = DIRECTION('',(1.,0.,-0.));
#1133 = DIRECTION('',(0.,0.,1.));
#1134 = CYLINDRICAL_SURFACE('',#1135,16.);
#1135 = AXIS2_PLACEMENT_3D('',#1136,#1137,#1138);
#1136 = CARTESIAN_POINT('',(210.,0.,0.));
#1137 = DIRECTION('',(1.,0.,0.));
#1138 = DIRECTION('',(0.,0.,1.));
#1139 = ADVANCED_FACE('',(#1140,#1201,#1204),#1207,.T.);
#1140 = FACE_BOUND('',#1141,.T.);
#1141 = EDGE_LOOP('',(#1142,#1151,#1159,#1168,#1176,#1185,#1193,#1200));
#1142 = ORIENTED_EDGE('',*,*,#1143,.T.);
#1143 = EDGE_CURVE('',#1144,#1144,#1146,.T.);
#1144 = VERTEX_POINT('',#1145);
#1145 = CARTESIAN_POINT('',(140.,2.939152317954E-15,12.));
#1146 = CIRCLE('',#1147,12.);
#1147 = AXIS2_PLACEMENT_3D('',#1148,#1149,#1150);
#1148 = CARTESIAN_POINT('',(140.,0.,0.));
#1149 = DIRECTION('',(1.,0.,-0.));
#1150 = DIRECTION('',(0.,0.,1.));
#1151 = ORIENTED_EDGE('',*,*,#1152,.T.);
#1152 = EDGE_CURVE('',#1144,#1153,#1155,.T.);
#1153 = VERTEX_POINT('',#1154);
#1154 = CARTESIAN_POINT('',(148.,2.939152317954E-15,12.));
#1155 = LINE('',#1156,#1157);
#1156 = CARTESIAN_POINT('',(140.,2.939152317954E-15,12.));
#1157 = VECTOR('',#1158,1.);
#1158 = DIRECTION('',(1.,0.,0.));
#1159 = ORIENTED_EDGE('',*,*,#1160,.F.);
#1160 = EDGE_CURVE('',#1161,#1153,#1163,.T.);
#1161 = VERTEX_POINT('',#1162);
#1162 = CARTESIAN_POINT('',(148.,5.,10.908712114636));
#1163 = CIRCLE('',#1164,12.);
#1164 = AXIS2_PLACEMENT_3D('',#1165,#1166,#1167);
#1165 = CARTESIAN_POINT('',(148.,0.,0.));
#1166 = DIRECTION('',(1.,0.,-0.));
#1167 = DIRECTION('',(0.,0.,1.));
#1168 = ORIENTED_EDGE('',*,*,#1169,.T.);
#1169 = EDGE_CURVE('',#1161,#1170,#1172,.T.);
#1170 = VERTEX_POINT('',#1171);
#1171 = CARTESIAN_POINT('',(210.,5.,10.908712114636));
#1172 = LINE('',#1173,#1174);
#1173 = CARTESIAN_POINT('',(140.,5.,10.908712114636));
#1174 = VECTOR('',#1175,1.);
#1175 = DIRECTION('',(1.,0.,0.));
#1176 = ORIENTED_EDGE('',*,*,#1177,.F.);
#1177 = EDGE_CURVE('',#1178,#1170,#1180,.T.);
#1178 = VERTEX_POINT('',#1179);
#1179 = CARTESIAN_POINT('',(210.,-5.,10.908712114636));
#1180 = CIRCLE('',#1181,12.);
#1181 = AXIS2_PLACEMENT_3D('',#1182,#1183,#1184);
#1182 = CARTESIAN_POINT('',(210.,0.,0.));
#1183 = DIRECTION('',(1.,0.,-0.));
#1184 = DIRECTION('',(0.,0.,1.));
#1185 = ORIENTED_EDGE('',*,*,#1186,.F.);
#1186 = EDGE_CURVE('',#1187,#1178,#1189,.T.);
#1187 = VERTEX_POINT('',#1188);
#1188 = CARTESIAN_POINT('',(148.,-5.,10.908712114636));
#1189 = LINE('',#1190,#1191);
#1190 = CARTESIAN_POINT('',(140.,-5.,10.908712114636));
#1191 = VECTOR('',#1192,1.);
#1192 = DIRECTION('',(1.,0.,0.));
#1193 = ORIENTED_EDGE('',*,*,#1194,.F.);
#1194 = EDGE_CURVE('',#1153,#1187,#1195,.T.);
#1195 = CIRCLE('',#1196,12.);
#1196 = AXIS2_PLACEMENT_3D('',#1197,#1198,#1199);
#1197 = CARTESIAN_POINT('',(148.,0.,0.));
#1198 = DIRECTION('',(1.,0.,-0.));
#1199 = DIRECTION('',(0.,0.,1.));
#1200 = ORIENTED_EDGE('',*,*,#1152,.F.);
#1201 = FACE_BOUND('',#1202,.T.);
#1202 = EDGE_LOOP('',(#1203));
#1203 = ORIENTED_EDGE('',*,*,#921,.F.);
#1204 = FACE_BOUND('',#1205,.T.);
#1205 = EDGE_LOOP('',(#1206));
#1206 = ORIENTED_EDGE('',*,*,#787,.T.);
#1207 = CYLINDRICAL_SURFACE('',#1208,12.);
#1208 = AXIS2_PLACEMENT_3D('',#1209,#1210,#1211);
#1209 = CARTESIAN_POINT('',(140.,0.,0.));
#1210 = DIRECTION('',(1.,0.,0.));
#1211 = DIRECTION('',(0.,0.,1.));
#1212 = ADVANCED_FACE('',(#1213),#1232,.T.);
#1213 = FACE_BOUND('',#1214,.T.);
#1214 = EDGE_LOOP('',(#1215,#1224,#1230,#1231));
#1215 = ORIENTED_EDGE('',*,*,#1216,.F.);
#1216 = EDGE_CURVE('',#1217,#1217,#1219,.T.);
#1217 = VERTEX_POINT('',#1218);
#1218 = CARTESIAN_POINT('',(94.,7.837739514543E-15,32.));
#1219 = CIRCLE('',#1220,32.);
#1220 = AXIS2_PLACEMENT_3D('',#1221,#1222,#1223);
#1221 = CARTESIAN_POINT('',(94.,0.,0.));
#1222 = DIRECTION('',(1.,0.,-0.));
#1223 = DIRECTION('',(0.,0.,1.));
#1224 = ORIENTED_EDGE('',*,*,#1225,.F.);
#1225 = EDGE_CURVE('',#1065,#1217,#1226,.T.);
#1226 = LINE('',#1227,#1228);
#1227 = CARTESIAN_POINT('',(82.,7.837739514543E-15,32.));
#1228 = VECTOR('',#1229,1.);
#1229 = DIRECTION('',(1.,0.,0.));
#1230 = ORIENTED_EDGE('',*,*,#1064,.T.);
#1231 = ORIENTED_EDGE('',*,*,#1225,.T.);
#1232 = CYLINDRICAL_SURFACE('',#1233,32.);
#1233 = AXIS2_PLACEMENT_3D('',#1234,#1235,#1236);
#1234 = CARTESIAN_POINT('',(82.,0.,0.));
#1235 = DIRECTION('',(1.,0.,0.));
#1236 = DIRECTION('',(0.,0.,1.));
#1237 = ADVANCED_FACE('',(#1238),#1264,.F.);
#1238 = FACE_BOUND('',#1239,.F.);
#1239 = EDGE_LOOP('',(#1240,#1248,#1256,#1262,#1263));
#1240 = ORIENTED_EDGE('',*,*,#1241,.F.);
#1241 = EDGE_CURVE('',#1242,#1095,#1244,.T.);
#1242 = VERTEX_POINT('',#1243);
#1243 = CARTESIAN_POINT('',(214.,-5.,10.));
#1244 = LINE('',#1245,#1246);
#1245 = CARTESIAN_POINT('',(214.,-5.,10.));
#1246 = VECTOR('',#1247,1.);
#1247 = DIRECTION('',(0.,0.,1.));
#1248 = ORIENTED_EDGE('',*,*,#1249,.T.);
#1249 = EDGE_CURVE('',#1242,#1250,#1252,.T.);
#1250 = VERTEX_POINT('',#1251);
#1251 = CARTESIAN_POINT('',(214.,5.,10.));
#1252 = LINE('',#1253,#1254);
#1253 = CARTESIAN_POINT('',(214.,-5.,10.));
#1254 = VECTOR('',#1255,1.);
#1255 = DIRECTION('',(0.,1.,0.));
#1256 = ORIENTED_EDGE('',*,*,#1257,.T.);
#1257 = EDGE_CURVE('',#1250,#1121,#1258,.T.);
#1258 = LINE('',#1259,#1260);
#1259 = CARTESIAN_POINT('',(214.,5.,10.));
#1260 = VECTOR('',#1261,1.);
#1261 = DIRECTION('',(0.,0.,1.));
#1262 = ORIENTED_EDGE('',*,*,#1128,.T.);
#1263 = ORIENTED_EDGE('',*,*,#1094,.T.);
#1264 = PLANE('',#1265);
#1265 = AXIS2_PLACEMENT_3D('',#1266,#1267,#1268);
#1266 = CARTESIAN_POINT('',(214.,-5.,10.));
#1267 = DIRECTION('',(1.,0.,0.));
#1268 = DIRECTION('',(0.,0.,1.));
#1269 = ADVANCED_FACE('',(#1270),#1295,.F.);
#1270 = FACE_BOUND('',#1271,.F.);
#1271 = EDGE_LOOP('',(#1272,#1273,#1281,#1287,#1288,#1294));
#1272 = ORIENTED_EDGE('',*,*,#1257,.F.);
#1273 = ORIENTED_EDGE('',*,*,#1274,.F.);
#1274 = EDGE_CURVE('',#1275,#1250,#1277,.T.);
#1275 = VERTEX_POINT('',#1276);
#1276 = CARTESIAN_POINT('',(148.,5.,10.));
#1277 = LINE('',#1278,#1279);
#1278 = CARTESIAN_POINT('',(148.,5.,10.));
#1279 = VECTOR('',#1280,1.);
#1280 = DIRECTION('',(1.,0.,0.));
#1281 = ORIENTED_EDGE('',*,*,#1282,.T.);
#1282 = EDGE_CURVE('',#1275,#1161,#1283,.T.);
#1283 = LINE('',#1284,#1285);
#1284 = CARTESIAN_POINT('',(148.,5.,10.));
#1285 = VECTOR('',#1286,1.);
#1286 = DIRECTION('',(0.,0.,1.));
#1287 = ORIENTED_EDGE('',*,*,#1169,.T.);
#1288 = ORIENTED_EDGE('',*,*,#1289,.T.);
#1289 = EDGE_CURVE('',#1170,#1112,#1290,.T.);
#1290 = LINE('',#1291,#1292);
#1291 = CARTESIAN_POINT('',(210.,5.,5.));
#1292 = VECTOR('',#1293,1.);
#1293 = DIRECTION('',(0.,0.,1.));
#1294 = ORIENTED_EDGE('',*,*,#1120,.T.);
#1295 = PLANE('',#1296);
#1296 = AXIS2_PLACEMENT_3D('',#1297,#1298,#1299);
#1297 = CARTESIAN_POINT('',(148.,5.,10.));
#1298 = DIRECTION('',(0.,1.,0.));
#1299 = DIRECTION('',(0.,0.,1.));
#1300 = ADVANCED_FACE('',(#1301),#1312,.F.);
#1301 = FACE_BOUND('',#1302,.F.);
#1302 = EDGE_LOOP('',(#1303,#1309,#1310,#1311));
#1303 = ORIENTED_EDGE('',*,*,#1304,.T.);
#1304 = EDGE_CURVE('',#1178,#1104,#1305,.T.);
#1305 = LINE('',#1306,#1307);
#1306 = CARTESIAN_POINT('',(210.,-5.,5.));
#1307 = VECTOR('',#1308,1.);
#1308 = DIRECTION('',(0.,0.,1.));
#1309 = ORIENTED_EDGE('',*,*,#1111,.T.);
#1310 = ORIENTED_EDGE('',*,*,#1289,.F.);
#1311 = ORIENTED_EDGE('',*,*,#1177,.F.);
#1312 = PLANE('',#1313);
#1313 = AXIS2_PLACEMENT_3D('',#1314,#1315,#1316);
#1314 = CARTESIAN_POINT('',(210.,0.,0.));
#1315 = DIRECTION('',(1.,0.,0.));
#1316 = DIRECTION('',(0.,0.,1.));
#1317 = ADVANCED_FACE('',(#1318),#1338,.T.);
#1318 = FACE_BOUND('',#1319,.T.);
#1319 = EDGE_LOOP('',(#1320,#1321,#1329,#1335,#1336,#1337));
#1320 = ORIENTED_EDGE('',*,*,#1241,.F.);
#1321 = ORIENTED_EDGE('',*,*,#1322,.F.);
#1322 = EDGE_CURVE('',#1323,#1242,#1325,.T.);
#1323 = VERTEX_POINT('',#1324);
#1324 = CARTESIAN_POINT('',(148.,-5.,10.));
#1325 = LINE('',#1326,#1327);
#1326 = CARTESIAN_POINT('',(148.,-5.,10.));
#1327 = VECTOR('',#1328,1.);
#1328 = DIRECTION('',(1.,0.,0.));
#1329 = ORIENTED_EDGE('',*,*,#1330,.T.);
#1330 = EDGE_CURVE('',#1323,#1187,#1331,.T.);
#1331 = LINE('',#1332,#1333);
#1332 = CARTESIAN_POINT('',(148.,-5.,10.));
#1333 = VECTOR('',#1334,1.);
#1334 = DIRECTION('',(0.,0.,1.));
#1335 = ORIENTED_EDGE('',*,*,#1186,.T.);
#1336 = ORIENTED_EDGE('',*,*,#1304,.T.);
#1337 = ORIENTED_EDGE('',*,*,#1103,.T.);
#1338 = PLANE('',#1339);
#1339 = AXIS2_PLACEMENT_3D('',#1340,#1341,#1342);
#1340 = CARTESIAN_POINT('',(148.,-5.,10.));
#1341 = DIRECTION('',(0.,1.,0.));
#1342 = DIRECTION('',(0.,0.,1.));
#1343 = ADVANCED_FACE('',(#1344,#1355),#1358,.T.);
#1344 = FACE_BOUND('',#1345,.T.);
#1345 = EDGE_LOOP('',(#1346));
#1346 = ORIENTED_EDGE('',*,*,#1347,.T.);
#1347 = EDGE_CURVE('',#1348,#1348,#1350,.T.);
#1348 = VERTEX_POINT('',#1349);
#1349 = CARTESIAN_POINT('',(140.,4.40872847693E-15,18.));
#1350 = CIRCLE('',#1351,18.);
#1351 = AXIS2_PLACEMENT_3D('',#1352,#1353,#1354);
#1352 = CARTESIAN_POINT('',(140.,0.,0.));
#1353 = DIRECTION('',(1.,0.,-0.));
#1354 = DIRECTION('',(0.,0.,1.));
#1355 = FACE_BOUND('',#1356,.T.);
#1356 = EDGE_LOOP('',(#1357));
#1357 = ORIENTED_EDGE('',*,*,#1143,.F.);
#1358 = PLANE('',#1359);
#1359 = AXIS2_PLACEMENT_3D('',#1360,#1361,#1362);
#1360 = CARTESIAN_POINT('',(140.,0.,0.));
#1361 = DIRECTION('',(1.,0.,0.));
#1362 = DIRECTION('',(0.,0.,1.));
#1363 = ADVANCED_FACE('',(#1364),#1376,.T.);
#1364 = FACE_BOUND('',#1365,.T.);
#1365 = EDGE_LOOP('',(#1366,#1367,#1373,#1374,#1375));
#1366 = ORIENTED_EDGE('',*,*,#1330,.F.);
#1367 = ORIENTED_EDGE('',*,*,#1368,.T.);
#1368 = EDGE_CURVE('',#1323,#1275,#1369,.T.);
#1369 = LINE('',#1370,#1371);
#1370 = CARTESIAN_POINT('',(148.,-5.,10.));
#1371 = VECTOR('',#1372,1.);
#1372 = DIRECTION('',(0.,1.,0.));
#1373 = ORIENTED_EDGE('',*,*,#1282,.T.);
#1374 = ORIENTED_EDGE('',*,*,#1160,.T.);
#1375 = ORIENTED_EDGE('',*,*,#1194,.T.);
#1376 = PLANE('',#1377);
#1377 = AXIS2_PLACEMENT_3D('',#1378,#1379,#1380);
#1378 = CARTESIAN_POINT('',(148.,-5.,10.));
#1379 = DIRECTION('',(1.,0.,0.));
#1380 = DIRECTION('',(0.,0.,1.));
#1381 = ADVANCED_FACE('',(#1382,#1385),#1396,.T.);
#1382 = FACE_BOUND('',#1383,.T.);
#1383 = EDGE_LOOP('',(#1384));
#1384 = ORIENTED_EDGE('',*,*,#1216,.T.);
#1385 = FACE_BOUND('',#1386,.T.);
#1386 = EDGE_LOOP('',(#1387));
#1387 = ORIENTED_EDGE('',*,*,#1388,.F.);
#1388 = EDGE_CURVE('',#1389,#1389,#1391,.T.);
#1389 = VERTEX_POINT('',#1390);
#1390 = CARTESIAN_POINT('',(94.,4.40872847693E-15,18.));
#1391 = CIRCLE('',#1392,18.);
#1392 = AXIS2_PLACEMENT_3D('',#1393,#1394,#1395);
#1393 = CARTESIAN_POINT('',(94.,0.,0.));
#1394 = DIRECTION('',(1.,0.,-0.));
#1395 = DIRECTION('',(0.,0.,1.));
#1396 = PLANE('',#1397);
#1397 = AXIS2_PLACEMENT_3D('',#1398,#1399,#1400);
#1398 = CARTESIAN_POINT('',(94.,0.,0.));
#1399 = DIRECTION('',(1.,0.,0.));
#1400 = DIRECTION('',(0.,0.,1.));
#1401 = ADVANCED_FACE('',(#1402),#1408,.T.);
#1402 = FACE_BOUND('',#1403,.T.);
#1403 = EDGE_LOOP('',(#1404,#1405,#1406,#1407));
#1404 = ORIENTED_EDGE('',*,*,#1368,.F.);
#1405 = ORIENTED_EDGE('',*,*,#1322,.T.);
#1406 = ORIENTED_EDGE('',*,*,#1249,.T.);
#1407 = ORIENTED_EDGE('',*,*,#1274,.F.);
#1408 = PLANE('',#1409);
#1409 = AXIS2_PLACEMENT_3D('',#1410,#1411,#1412);
#1410 = CARTESIAN_POINT('',(148.,-5.,10.));
#1411 = DIRECTION('',(0.,0.,1.));
#1412 = DIRECTION('',(1.,0.,0.));
#1413 = ADVANCED_FACE('',(#1414),#1425,.T.);
#1414 = FACE_BOUND('',#1415,.T.);
#1415 = EDGE_LOOP('',(#1416,#1422,#1423,#1424));
#1416 = ORIENTED_EDGE('',*,*,#1417,.T.);
#1417 = EDGE_CURVE('',#1389,#1348,#1418,.T.);
#1418 = LINE('',#1419,#1420);
#1419 = CARTESIAN_POINT('',(60.,4.40872847693E-15,18.));
#1420 = VECTOR('',#1421,1.);
#1421 = DIRECTION('',(1.,0.,0.));
#1422 = ORIENTED_EDGE('',*,*,#1347,.F.);
#1423 = ORIENTED_EDGE('',*,*,#1417,.F.);
#1424 = ORIENTED_EDGE('',*,*,#1388,.T.);
#1425 = CYLINDRICAL_SURFACE('',#1426,18.);
#1426 = AXIS2_PLACEMENT_3D('',#1427,#1428,#1429);
#1427 = CARTESIAN_POINT('',(60.,0.,0.));
#1428 = DIRECTION('',(1.,0.,0.));
#1429 = DIRECTION('',(0.,0.,1.));
#1430 = ( GEOMETRIC_REPRESENTATION_CONTEXT(3) 
GLOBAL_UNCERTAINTY_ASSIGNED_CONTEXT((#1434)) 
GLOBAL_UNIT_ASSIGNED_CONTEXT((#1431,#1432,#1433)) REPRESENTATION_CONTEXT
('Context #1','3D Context with UNIT and UNCERTAINTY') );
#1431 = ( LENGTH_UNIT() NAMED_UNIT(*) SI_UNIT(.MILLI.,.METRE.) );
#1432 = ( NAMED_UNIT(*) PLANE_ANGLE_UNIT() SI_UNIT($,.RADIAN.) );
#1433 = ( NAMED_UNIT(*) SI_UNIT($,.STERADIAN.) SOLID_ANGLE_UNIT() );
#1434 = UNCERTAINTY_MEASURE_WITH_UNIT(LENGTH_MEASURE(1.E-07),#1431,
  'distance_accuracy_value','confusion accuracy');
#1435 = PRODUCT_RELATED_PRODUCT_CATEGORY('part',$,(#7));
ENDSEC;
END-ISO-10303-21;
