ISO-10303-21;
HEADER;
FILE_DESCRIPTION (( 'STEP AP203' ),
    '1' );
FILE_NAME ('202500145_28_productholderpin04_plate02_sp_V1.1.STEP',
    '2025-07-16T12:01:59',
    ( '' ),
    ( '' ),
    'SwSTEP 2.0',
    'SolidWorks 2021',
    '' );
FILE_SCHEMA (( 'CONFIG_CONTROL_DESIGN' ));
ENDSEC;

DATA;
#1 = FACE_OUTER_BOUND ( 'NONE', #85, .T. ) ;
#2 = APPROVAL ( #992, 'UNSPECIFIED' ) ;
#3 = VERTEX_POINT ( 'NONE', #773 ) ;
#4 = PERSON_AND_ORGANIZATION ( #225, #60 ) ;
#5 = CYLINDRICAL_SURFACE ( 'NONE', #109, 2.249999999999988010 ) ;
#6 = AXIS2_PLACEMENT_3D ( 'NONE', #696, #190, #934 ) ;
#7 = ORIENTED_EDGE ( 'NONE', *, *, #802, .F. ) ;
#8 = CARTESIAN_POINT ( 'NONE',  ( -40.00000000000000711, -5.000000000000003553, 597.0000000000000000 ) ) ;
#9 = ORIENTED_EDGE ( 'NONE', *, *, #241, .T. ) ;
#10 = CIRCLE ( 'NONE', #725, 2.249999999999995115 ) ;
#11 = EDGE_CURVE ( 'NONE', #473, #986, #625, .T. ) ;
#12 = CARTESIAN_POINT ( 'NONE',  ( -35.00000000000000000, -15.00000000000000711, 72.25000000000000000 ) ) ;
#13 = LINE ( 'NONE', #428, #787 ) ;
#14 = ORIENTED_EDGE ( 'NONE', *, *, #1000, .T. ) ;
#15 = DIRECTION ( 'NONE',  ( 1.000000000000000000, 0.000000000000000000, 0.000000000000000000 ) ) ;
#16 = CARTESIAN_POINT ( 'NONE',  ( -32.66000000000000369, -15.00000000000000178, 17.75000000000000711 ) ) ;
#17 = CARTESIAN_POINT ( 'NONE',  ( -32.66000000000000369, -15.00000000000000355, 297.7500000000000568 ) ) ;
#18 = ORIENTED_EDGE ( 'NONE', *, *, #890, .F. ) ;
#19 = DIRECTION ( 'NONE',  ( 0.000000000000000000, 0.000000000000000000, -1.000000000000000000 ) ) ;
#20 = CARTESIAN_POINT ( 'NONE',  ( -35.00000000000000000, -25.00000000000000355, 592.0000000000000000 ) ) ;
#21 = ADVANCED_FACE ( 'NONE', ( #464 ), #129, .T. ) ;
#22 = DIRECTION ( 'NONE',  ( 1.000000000000000000, 0.000000000000000000, 0.000000000000000000 ) ) ;
#23 = VECTOR ( 'NONE', #640, 1000.000000000000000 ) ;
#24 = VERTEX_POINT ( 'NONE', #459 ) ;
#25 = DIRECTION ( 'NONE',  ( 1.000000000000000000, -0.000000000000000000, -0.000000000000000000 ) ) ;
#26 =( NAMED_UNIT ( * ) SI_UNIT ( $, .STERADIAN. ) SOLID_ANGLE_UNIT ( ) );
#27 = LOCAL_TIME ( 14, 1, 59.00000000000000000, #701 ) ;
#28 = VERTEX_POINT ( 'NONE', #621 ) ;
#29 = ADVANCED_FACE ( 'NONE', ( #194 ), #789, .T. ) ;
#30 = ORIENTED_EDGE ( 'NONE', *, *, #484, .F. ) ;
#31 = LINE ( 'NONE', #266, #411 ) ;
#32 = CARTESIAN_POINT ( 'NONE',  ( -35.00000000000000000, -15.00000000000000355, 300.0000000000000568 ) ) ;
#33 = COORDINATED_UNIVERSAL_TIME_OFFSET ( 1, 0, .AHEAD. ) ;
#34 = ORIENTED_EDGE ( 'NONE', *, *, #1033, .F. ) ;
#35 = ORIENTED_EDGE ( 'NONE', *, *, #315, .T. ) ;
#36 = DIRECTION ( 'NONE',  ( -1.000000000000000000, 0.000000000000000000, 0.000000000000000000 ) ) ;
#37 = EDGE_CURVE ( 'NONE', #498, #816, #889, .T. ) ;
#38 = DIRECTION ( 'NONE',  ( -1.224646799147353207E-16, -1.000000000000000000, 0.000000000000000000 ) ) ;
#39 = DIRECTION ( 'NONE',  ( 0.000000000000000000, 0.000000000000000000, 1.000000000000000000 ) ) ;
#40 = ORIENTED_EDGE ( 'NONE', *, *, #590, .T. ) ;
#41 = AXIS2_PLACEMENT_3D ( 'NONE', #432, #713, #781 ) ;
#42 = CARTESIAN_POINT ( 'NONE',  ( -35.00000000000000000, -25.00000000000000355, 5.000000000000004441 ) ) ;
#43 = AXIS2_PLACEMENT_3D ( 'NONE', #545, #872, #461 ) ;
#44 = EDGE_CURVE ( 'NONE', #491, #24, #113, .T. ) ;
#45 =( LENGTH_UNIT ( ) NAMED_UNIT ( * ) SI_UNIT ( .MILLI., .METRE. ) );
#46 = VECTOR ( 'NONE', #252, 1000.000000000000000 ) ;
#47 = ORIENTED_EDGE ( 'NONE', *, *, #315, .F. ) ;
#48 = ORIENTED_EDGE ( 'NONE', *, *, #973, .F. ) ;
#49 = CARTESIAN_POINT ( 'NONE',  ( -35.00000000000000000, -15.00000000000000355, 300.0000000000000568 ) ) ;
#50 = ORIENTED_EDGE ( 'NONE', *, *, #435, .F. ) ;
#51 = DIRECTION ( 'NONE',  ( 1.000000000000000000, -0.000000000000000000, -0.000000000000000000 ) ) ;
#52 = CARTESIAN_POINT ( 'NONE',  ( -40.00000000000000711, 4.999999999999996447, 0.000000000000000000 ) ) ;
#53 = ORIENTED_EDGE ( 'NONE', *, *, #478, .T. ) ;
#54 = EDGE_CURVE ( 'NONE', #523, #28, #125, .T. ) ;
#55 = CARTESIAN_POINT ( 'NONE',  ( -30.00000000000000711, -15.00000000000000355, 297.7500000000000568 ) ) ;
#56 = CARTESIAN_POINT ( 'NONE',  ( -30.00000000000000711, -15.00000000000000533, 580.0000000000001137 ) ) ;
#57 = DIRECTION ( 'NONE',  ( 1.000000000000000000, 0.000000000000000000, 0.000000000000000000 ) ) ;
#58 = VERTEX_POINT ( 'NONE', #633 ) ;
#59 = AXIS2_PLACEMENT_3D ( 'NONE', #907, #158, #84 ) ;
#60 = ORGANIZATION ( 'UNSPECIFIED', 'UNSPECIFIED', '' ) ;
#61 = DIRECTION ( 'NONE',  ( -1.000000000000000000, 0.000000000000000000, 0.000000000000000000 ) ) ;
#62 = EDGE_CURVE ( 'NONE', #161, #816, #538, .T. ) ;
#63 = ORIENTED_EDGE ( 'NONE', *, *, #987, .T. ) ;
#64 = ORIENTED_EDGE ( 'NONE', *, *, #11, .T. ) ;
#65 = DIRECTION ( 'NONE',  ( -1.000000000000000000, 1.734723475976805615E-16, 0.000000000000000000 ) ) ;
#66 = ORIENTED_EDGE ( 'NONE', *, *, #987, .F. ) ;
#67 = ADVANCED_FACE ( 'NONE', ( #366 ), #281, .F. ) ;
#68 = VERTEX_POINT ( 'NONE', #1038 ) ;
#69 = DIRECTION ( 'NONE',  ( 0.000000000000000000, -1.000000000000000000, 0.000000000000000000 ) ) ;
#70 = VERTEX_POINT ( 'NONE', #55 ) ;
#71 = CIRCLE ( 'NONE', #876, 4.590000000000000746 ) ;
#72 = EDGE_CURVE ( 'NONE', #491, #1034, #256, .T. ) ;
#73 = CIRCLE ( 'NONE', #852, 2.249999999999974243 ) ;
#74 = LINE ( 'NONE', #1060, #547 ) ;
#75 = VECTOR ( 'NONE', #897, 1000.000000000000000 ) ;
#76 = VECTOR ( 'NONE', #81, 1000.000000000000000 ) ;
#77 = FACE_OUTER_BOUND ( 'NONE', #290, .T. ) ;
#78 = EDGE_LOOP ( 'NONE', ( #9, #64, #877, #1067 ) ) ;
#79 = LINE ( 'NONE', #156, #721 ) ;
#80 = ORIENTED_EDGE ( 'NONE', *, *, #214, .T. ) ;
#81 = DIRECTION ( 'NONE',  ( -1.000000000000000000, 0.000000000000000000, 0.000000000000000000 ) ) ;
#82 = EDGE_CURVE ( 'NONE', #806, #415, #573, .T. ) ;
#83 = VERTEX_POINT ( 'NONE', #298 ) ;
#84 = DIRECTION ( 'NONE',  ( -0.000000000000000000, 0.000000000000000000, -1.000000000000000000 ) ) ;
#85 = EDGE_LOOP ( 'NONE', ( #745, #740, #588, #1010 ) ) ;
#86 = CARTESIAN_POINT ( 'NONE',  ( -30.00000000000000711, -15.00000000000000355, 300.0000000000000568 ) ) ;
#87 = AXIS2_PLACEMENT_3D ( 'NONE', #730, #644, #1047 ) ;
#88 = CIRCLE ( 'NONE', #652, 4.999999999999997335 ) ;
#89 = VECTOR ( 'NONE', #69, 1000.000000000000000 ) ;
#90 = VERTEX_POINT ( 'NONE', #899 ) ;
#91 = EDGE_CURVE ( 'NONE', #651, #473, #227, .T. ) ;
#92 = CONICAL_SURFACE ( 'NONE', #602, 4.590000000000000746, 0.7853981633974487231 ) ;
#93 = DIRECTION ( 'NONE',  ( 0.000000000000000000, 0.000000000000000000, -1.000000000000000000 ) ) ;
#94 = EDGE_LOOP ( 'NONE', ( #997, #530, #995, #489 ) ) ;
#95 = DIRECTION ( 'NONE',  ( 0.000000000000000000, -1.000000000000000000, 0.000000000000000000 ) ) ;
#96 = EDGE_LOOP ( 'NONE', ( #80, #224, #601, #30 ) ) ;
#97 = ADVANCED_FACE ( 'NONE', ( #471 ), #925, .F. ) ;
#98 = CARTESIAN_POINT ( 'NONE',  ( -30.00000000000000711, -5.000000000000003553, 0.000000000000000000 ) ) ;
#99 = VERTEX_POINT ( 'NONE', #151 ) ;
#100 = FACE_OUTER_BOUND ( 'NONE', #148, .T. ) ;
#101 = ORIENTED_EDGE ( 'NONE', *, *, #203, .F. ) ;
#102 = DIRECTION ( 'NONE',  ( 0.000000000000000000, 0.000000000000000000, -1.000000000000000000 ) ) ;
#103 = ADVANCED_FACE ( 'NONE', ( #796, #891, #485, #729, #658 ), #477, .T. ) ;
#104 = EDGE_LOOP ( 'NONE', ( #912, #34, #733, #761 ) ) ;
#105 = CARTESIAN_POINT ( 'NONE',  ( -35.00000000000000000, -15.00000000000000533, 584.5900000000000318 ) ) ;
#106 = VECTOR ( 'NONE', #124, 1000.000000000000000 ) ;
#107 = ORIENTED_EDGE ( 'NONE', *, *, #305, .T. ) ;
#108 = FACE_BOUND ( 'NONE', #342, .T. ) ;
#109 = AXIS2_PLACEMENT_3D ( 'NONE', #236, #162, #177 ) ;
#110 = CARTESIAN_POINT ( 'NONE',  ( -35.00000000000000000, -15.00000000000000533, 575.4100000000000819 ) ) ;
#111 = APPROVAL_ROLE ( '' ) ;
#112 = ORIENTED_EDGE ( 'NONE', *, *, #756, .T. ) ;
#113 = LINE ( 'NONE', #445, #597 ) ;
#114 = DIRECTION ( 'NONE',  ( 0.000000000000000000, 0.000000000000000000, -1.000000000000000000 ) ) ;
#115 = COORDINATED_UNIVERSAL_TIME_OFFSET ( 1, 0, .AHEAD. ) ;
#116 = ORIENTED_EDGE ( 'NONE', *, *, #72, .T. ) ;
#117 = EDGE_LOOP ( 'NONE', ( #47, #678, #369, #320 ) ) ;
#118 = EDGE_CURVE ( 'NONE', #473, #898, #566, .T. ) ;
#119 = DIRECTION ( 'NONE',  ( 0.000000000000000000, -0.000000000000000000, -1.000000000000000000 ) ) ;
#120 = PERSON_AND_ORGANIZATION_ROLE ( 'design_supplier' ) ;
#121 = ORIENTED_EDGE ( 'NONE', *, *, #62, .T. ) ;
#122 = DIRECTION ( 'NONE',  ( 0.000000000000000000, -0.000000000000000000, -1.000000000000000000 ) ) ;
#123 = CIRCLE ( 'NONE', #630, 2.249999999999974243 ) ;
#124 = DIRECTION ( 'NONE',  ( 1.000000000000000000, 0.000000000000000000, 0.000000000000000000 ) ) ;
#125 = CIRCLE ( 'NONE', #736, 5.000000000000004441 ) ;
#126 = AXIS2_PLACEMENT_3D ( 'NONE', #738, #337, #1063 ) ;
#127 = PLANE ( 'NONE',  #689 ) ;
#128 = ORIENTED_EDGE ( 'NONE', *, *, #44, .F. ) ;
#129 = CYLINDRICAL_SURFACE ( 'NONE', #272, 4.999999999999997335 ) ;
#130 = DIRECTION ( 'NONE',  ( 1.000000000000000000, 0.000000000000000000, 0.000000000000000000 ) ) ;
#131 = FACE_OUTER_BOUND ( 'NONE', #702, .T. ) ;
#132 = EDGE_CURVE ( 'NONE', #949, #844, #1046, .T. ) ;
#133 = CARTESIAN_POINT ( 'NONE',  ( -35.00000000000000000, -15.00000000000000355, 300.0000000000000568 ) ) ;
#134 = LINE ( 'NONE', #629, #234 ) ;
#135 = DIRECTION ( 'NONE',  ( 0.000000000000000000, 0.000000000000000000, -1.000000000000000000 ) ) ;
#136 = ADVANCED_FACE ( 'NONE', ( #392 ), #1050, .F. ) ;
#137 = CARTESIAN_POINT ( 'NONE',  ( -65.00000000000000000, -6.123233995736764310E-16, 0.000000000000000000 ) ) ;
#138 = EDGE_LOOP ( 'NONE', ( #48, #171, #257, #516 ) ) ;
#139 = CARTESIAN_POINT ( 'NONE',  ( -30.00000000000000711, -15.00000000000000355, 302.2500000000000000 ) ) ;
#140 = CIRCLE ( 'NONE', #815, 5.000000000000004441 ) ;
#141 = CARTESIAN_POINT ( 'NONE',  ( -65.00000000000000000, 4.999999999999999112, 597.0000000000000000 ) ) ;
#142 = CIRCLE ( 'NONE', #189, 5.000000000000004441 ) ;
#143 = CC_DESIGN_APPROVAL ( #377, ( #181 ) ) ;
#144 = CARTESIAN_POINT ( 'NONE',  ( -70.00000000000000000, 0.000000000000000000, 597.0000000000000000 ) ) ;
#145 = EDGE_CURVE ( 'NONE', #569, #491, #74, .T. ) ;
#146 = ORIENTED_EDGE ( 'NONE', *, *, #809, .T. ) ;
#147 = LINE ( 'NONE', #397, #291 ) ;
#148 = EDGE_LOOP ( 'NONE', ( #152, #418, #324, #577 ) ) ;
#149 = EDGE_CURVE ( 'NONE', #638, #216, #71, .T. ) ;
#150 = CARTESIAN_POINT ( 'NONE',  ( -35.00000000000000000, -15.00000000000000178, 20.00000000000000355 ) ) ;
#151 = CARTESIAN_POINT ( 'NONE',  ( -30.00000000000000711, -15.00000000000000178, 17.75000000000001066 ) ) ;
#152 = ORIENTED_EDGE ( 'NONE', *, *, #765, .T. ) ;
#153 = AXIS2_PLACEMENT_3D ( 'NONE', #32, #259, #1012 ) ;
#154 = AXIS2_PLACEMENT_3D ( 'NONE', #1039, #474, #211 ) ;
#155 = VERTEX_POINT ( 'NONE', #137 ) ;
#156 = CARTESIAN_POINT ( 'NONE',  ( -35.00000000000000000, -15.00000000000000711, 74.59000000000000341 ) ) ;
#157 = VERTEX_POINT ( 'NONE', #311 ) ;
#158 = DIRECTION ( 'NONE',  ( 0.000000000000000000, -1.000000000000000000, -0.000000000000000000 ) ) ;
#159 = ORIENTED_EDGE ( 'NONE', *, *, #222, .T. ) ;
#160 = PLANE ( 'NONE',  #239 ) ;
#161 = VERTEX_POINT ( 'NONE', #302 ) ;
#162 = DIRECTION ( 'NONE',  ( -1.000000000000000000, 0.000000000000000000, 0.000000000000000000 ) ) ;
#163 = PRODUCT_DEFINITION_SHAPE ( 'NONE', 'NONE',  #181 ) ;
#164 = ADVANCED_FACE ( 'NONE', ( #643 ), #691, .F. ) ;
#165 = EDGE_LOOP ( 'NONE', ( #231, #521, #128, #609 ) ) ;
#166 = CARTESIAN_POINT ( 'NONE',  ( -30.00000000000000711, -20.00000000000000355, 5.000000000000000000 ) ) ;
#167 = ORIENTED_EDGE ( 'NONE', *, *, #285, .F. ) ;
#168 = COORDINATED_UNIVERSAL_TIME_OFFSET ( 1, 0, .AHEAD. ) ;
#169 = CIRCLE ( 'NONE', #903, 5.000000000000004441 ) ;
#170 = DIRECTION ( 'NONE',  ( -1.000000000000000000, 0.000000000000000000, 0.000000000000000000 ) ) ;
#171 = ORIENTED_EDGE ( 'NONE', *, *, #400, .T. ) ;
#172 = DIRECTION ( 'NONE',  ( -0.7071067811865472397, -8.659560562354937789E-17, 0.7071067811865479058 ) ) ;
#173 = CIRCLE ( 'NONE', #594, 2.249999999999988010 ) ;
#174 = EDGE_CURVE ( 'NONE', #569, #438, #974, .T. ) ;
#175 = DIRECTION ( 'NONE',  ( -1.000000000000000000, 0.000000000000000000, 0.000000000000000000 ) ) ;
#176 = CARTESIAN_POINT ( 'NONE',  ( -35.00000000000000000, -15.00000000000000178, 15.41000000000000369 ) ) ;
#177 = DIRECTION ( 'NONE',  ( 0.000000000000000000, 0.000000000000000000, -1.000000000000000000 ) ) ;
#178 = ORIENTED_EDGE ( 'NONE', *, *, #825, .F. ) ;
#179 = DIRECTION ( 'NONE',  ( -1.000000000000000000, 0.000000000000000000, 0.000000000000000000 ) ) ;
#180 = VERTEX_POINT ( 'NONE', #807 ) ;
#181 = PRODUCT_DEFINITION ( 'UNKNOWN', '', #905, #963 ) ;
#182 = DIRECTION ( 'NONE',  ( -1.000000000000000000, 0.000000000000000000, 0.000000000000000000 ) ) ;
#183 = CARTESIAN_POINT ( 'NONE',  ( -30.00000000000000711, -5.000000000000003553, 0.000000000000000000 ) ) ;
#184 = VERTEX_POINT ( 'NONE', #306 ) ;
#185 = DATE_AND_TIME ( #923, #417 ) ;
#186 = CYLINDRICAL_SURFACE ( 'NONE', #650, 10.00000000000000178 ) ;
#187 = DATE_AND_TIME ( #782, #894 ) ;
#188 = ORIENTED_EDGE ( 'NONE', *, *, #330, .T. ) ;
#189 = AXIS2_PLACEMENT_3D ( 'NONE', #492, #917, #513 ) ;
#190 = DIRECTION ( 'NONE',  ( -1.000000000000000000, 0.000000000000000000, 0.000000000000000000 ) ) ;
#191 = APPROVAL_DATE_TIME ( #943, #879 ) ;
#192 = ORIENTED_EDGE ( 'NONE', *, *, #54, .F. ) ;
#193 = EDGE_CURVE ( 'NONE', #1034, #759, #223, .T. ) ;
#194 = FACE_OUTER_BOUND ( 'NONE', #483, .T. ) ;
#195 = FACE_OUTER_BOUND ( 'NONE', #646, .T. ) ;
#196 = DIRECTION ( 'NONE',  ( 1.000000000000000000, -0.000000000000000000, -0.000000000000000000 ) ) ;
#197 = EDGE_CURVE ( 'NONE', #1003, #498, #147, .T. ) ;
#198 = DIRECTION ( 'NONE',  ( 1.000000000000000000, 0.000000000000000000, 0.000000000000000000 ) ) ;
#199 = DIRECTION ( 'NONE',  ( 0.000000000000000000, 0.000000000000000000, -1.000000000000000000 ) ) ;
#200 = ORIENTED_EDGE ( 'NONE', *, *, #822, .F. ) ;
#201 = CONICAL_SURFACE ( 'NONE', #653, 4.590000000000000746, 0.7853981633974487231 ) ;
#202 = CARTESIAN_POINT ( 'NONE',  ( -40.00000000000000711, -5.000000000000003553, 0.000000000000000000 ) ) ;
#203 = EDGE_CURVE ( 'NONE', #1051, #216, #340, .T. ) ;
#204 = CONICAL_SURFACE ( 'NONE', #294, 4.589999999999997193, 0.7853981633974487231 ) ;
#205 = CIRCLE ( 'NONE', #414, 2.250000000000001776 ) ;
#206 = CARTESIAN_POINT ( 'NONE',  ( -35.00000000000000000, -15.00000000000000711, 65.41000000000001080 ) ) ;
#207 = FACE_OUTER_BOUND ( 'NONE', #808, .T. ) ;
#208 = ADVANCED_FACE ( 'NONE', ( #742 ), #581, .F. ) ;
#209 = DIRECTION ( 'NONE',  ( 1.224646799147353207E-16, 1.000000000000000000, -0.000000000000000000 ) ) ;
#210 = DIRECTION ( 'NONE',  ( 0.000000000000000000, 0.000000000000000000, -1.000000000000000000 ) ) ;
#211 = DIRECTION ( 'NONE',  ( -1.000000000000000000, 0.000000000000000000, 0.000000000000000000 ) ) ;
#212 = CARTESIAN_POINT ( 'NONE',  ( -30.00000000000000711, -15.00000000000000178, 20.00000000000000355 ) ) ;
#213 = ORIENTED_EDGE ( 'NONE', *, *, #717, .F. ) ;
#214 = EDGE_CURVE ( 'NONE', #553, #180, #506, .T. ) ;
#215 = CARTESIAN_POINT ( 'NONE',  ( -35.00000000000000000, -15.00000000000000355, 302.2500000000000000 ) ) ;
#216 = VERTEX_POINT ( 'NONE', #176 ) ;
#217 = CARTESIAN_POINT ( 'NONE',  ( -32.66000000000000369, -15.00000000000000533, 580.0000000000001137 ) ) ;
#218 = AXIS2_PLACEMENT_3D ( 'NONE', #617, #38, #448 ) ;
#219 = CARTESIAN_POINT ( 'NONE',  ( -30.00000000000000711, -25.00000000000000355, 592.0000000000000000 ) ) ;
#220 = AXIS2_PLACEMENT_3D ( 'NONE', #838, #916, #512 ) ;
#221 = CIRCLE ( 'NONE', #507, 4.999999999999997335 ) ;
#222 = EDGE_CURVE ( 'NONE', #1051, #415, #486, .T. ) ;
#223 = LINE ( 'NONE', #570, #75 ) ;
#224 = ORIENTED_EDGE ( 'NONE', *, *, #750, .T. ) ;
#225 = PERSON ( 'UNSPECIFIED', 'UNSPECIFIED', 'UNSPECIFIED', ('UNSPECIFIED'), ('UNSPECIFIED'), ('UNSPECIFIED') ) ;
#226 = CARTESIAN_POINT ( 'NONE',  ( -32.66000000000000369, -15.00000000000000355, 302.2500000000000000 ) ) ;
#227 = LINE ( 'NONE', #215, #23 ) ;
#228 = ORIENTED_EDGE ( 'NONE', *, *, #82, .T. ) ;
#229 = ORIENTED_EDGE ( 'NONE', *, *, #967, .T. ) ;
#230 = DIRECTION ( 'NONE',  ( -1.000000000000000000, 0.000000000000000000, 0.000000000000000000 ) ) ;
#231 = ORIENTED_EDGE ( 'NONE', *, *, #174, .T. ) ;
#232 = ADVANCED_FACE ( 'NONE', ( #820 ), #201, .F. ) ;
#233 = AXIS2_PLACEMENT_3D ( 'NONE', #785, #1055, #720 ) ;
#234 = VECTOR ( 'NONE', #790, 1000.000000000000000 ) ;
#235 = DIRECTION ( 'NONE',  ( 0.000000000000000000, 0.000000000000000000, -1.000000000000000000 ) ) ;
#236 = CARTESIAN_POINT ( 'NONE',  ( -35.00000000000000000, -15.00000000000000711, 70.00000000000000000 ) ) ;
#237 = ORIENTED_EDGE ( 'NONE', *, *, #145, .T. ) ;
#238 = DIRECTION ( 'NONE',  ( 0.000000000000000000, 0.000000000000000000, -1.000000000000000000 ) ) ;
#239 = AXIS2_PLACEMENT_3D ( 'NONE', #767, #347, #663 ) ;
#240 = ORIENTED_EDGE ( 'NONE', *, *, #537, .F. ) ;
#241 = EDGE_CURVE ( 'NONE', #898, #473, #123, .T. ) ;
#242 = DIRECTION ( 'NONE',  ( 0.000000000000000000, 0.000000000000000000, -1.000000000000000000 ) ) ;
#243 = CARTESIAN_POINT ( 'NONE',  ( -70.00000000000000000, 5.000000000000000000, 5.000000000000004441 ) ) ;
#244 = DIRECTION ( 'NONE',  ( 0.000000000000000000, 0.000000000000000000, -1.000000000000000000 ) ) ;
#245 = EDGE_LOOP ( 'NONE', ( #116, #982, #265, #237 ) ) ;
#246 = FACE_OUTER_BOUND ( 'NONE', #249, .T. ) ;
#247 = CARTESIAN_POINT ( 'NONE',  ( -30.00000000000000711, -4.286263797015736496E-15, 0.000000000000000000 ) ) ;
#248 = FACE_OUTER_BOUND ( 'NONE', #1026, .T. ) ;
#249 = EDGE_LOOP ( 'NONE', ( #938, #674, #213, #803 ) ) ;
#250 = VECTOR ( 'NONE', #357, 1000.000000000000000 ) ;
#251 = PLANE ( 'NONE',  #813 ) ;
#252 = DIRECTION ( 'NONE',  ( -1.000000000000000000, 0.000000000000000000, 0.000000000000000000 ) ) ;
#253 = AXIS2_PLACEMENT_3D ( 'NONE', #1031, #277, #623 ) ;
#254 = DIRECTION ( 'NONE',  ( 0.000000000000000000, 0.000000000000000000, -1.000000000000000000 ) ) ;
#255 = EDGE_CURVE ( 'NONE', #898, #614, #421, .T. ) ;
#256 = CIRCLE ( 'NONE', #550, 5.000000000000004441 ) ;
#257 = ORIENTED_EDGE ( 'NONE', *, *, #825, .T. ) ;
#258 = CARTESIAN_POINT ( 'NONE',  ( -40.00000000000000711, -5.000000000000003553, 597.0000000000000000 ) ) ;
#259 = DIRECTION ( 'NONE',  ( 1.000000000000000000, -0.000000000000000000, -0.000000000000000000 ) ) ;
#260 = CARTESIAN_POINT ( 'NONE',  ( -35.00000000000000000, -15.00000000000000533, 575.4100000000000819 ) ) ;
#261 = LINE ( 'NONE', #673, #817 ) ;
#262 = VERTEX_POINT ( 'NONE', #317 ) ;
#263 = DIRECTION ( 'NONE',  ( 1.000000000000000000, -0.000000000000000000, -0.000000000000000000 ) ) ;
#264 = APPROVAL_ROLE ( '' ) ;
#265 = ORIENTED_EDGE ( 'NONE', *, *, #950, .T. ) ;
#266 = CARTESIAN_POINT ( 'NONE',  ( -30.00000000000000711, -25.00000000000000355, 597.0000000000000000 ) ) ;
#267 = ADVANCED_FACE ( 'NONE', ( #246 ), #251, .T. ) ;
#268 = PERSON_AND_ORGANIZATION ( #225, #60 ) ;
#269 = ORIENTED_EDGE ( 'NONE', *, *, #717, .T. ) ;
#270 = VECTOR ( 'NONE', #295, 1000.000000000000000 ) ;
#271 = CARTESIAN_POINT ( 'NONE',  ( -65.00000000000000000, 4.999999999999999112, 592.0000000000000000 ) ) ;
#272 = AXIS2_PLACEMENT_3D ( 'NONE', #271, #360, #532 ) ;
#273 = VECTOR ( 'NONE', #172, 999.9999999999998863 ) ;
#274 = CIRCLE ( 'NONE', #126, 4.589999999999982983 ) ;
#275 = AXIS2_PLACEMENT_3D ( 'NONE', #166, #515, #826 ) ;
#276 = FACE_BOUND ( 'NONE', #900, .T. ) ;
#277 = DIRECTION ( 'NONE',  ( 1.000000000000000000, -0.000000000000000000, -0.000000000000000000 ) ) ;
#278 = APPLICATION_PROTOCOL_DEFINITION ( 'international standard', 'config_control_design', 1994, #419 ) ;
#279 = EDGE_CURVE ( 'NONE', #374, #671, #274, .T. ) ;
#280 = EDGE_LOOP ( 'NONE', ( #959, #409, #927, #665 ) ) ;
#281 = CYLINDRICAL_SURFACE ( 'NONE', #788, 4.999999999999997335 ) ;
#282 = DIRECTION ( 'NONE',  ( 0.000000000000000000, 0.000000000000000000, -1.000000000000000000 ) ) ;
#283 = DIRECTION ( 'NONE',  ( 1.000000000000000000, -0.000000000000000000, -0.000000000000000000 ) ) ;
#284 = CALENDAR_DATE ( 2025, 16, 7 ) ;
#285 = EDGE_CURVE ( 'NONE', #262, #1003, #169, .T. ) ;
#286 = VERTEX_POINT ( 'NONE', #741 ) ;
#287 = ORIENTED_EDGE ( 'NONE', *, *, #174, .F. ) ;
#288 = PLANE ( 'NONE',  #87 ) ;
#289 = LINE ( 'NONE', #206, #458 ) ;
#290 = EDGE_LOOP ( 'NONE', ( #542, #850, #869, #424 ) ) ;
#291 = VECTOR ( 'NONE', #739, 1000.000000000000000 ) ;
#292 = EDGE_CURVE ( 'NONE', #90, #68, #173, .T. ) ;
#293 = PLANE ( 'NONE',  #578 ) ;
#294 = AXIS2_PLACEMENT_3D ( 'NONE', #615, #606, #866 ) ;
#295 = DIRECTION ( 'NONE',  ( 0.000000000000000000, -0.000000000000000000, -1.000000000000000000 ) ) ;
#296 = CONICAL_SURFACE ( 'NONE', #904, 4.589999999999982983, 0.7853981633974487231 ) ;
#297 = CC_DESIGN_APPROVAL ( #2, ( #960 ) ) ;
#298 = CARTESIAN_POINT ( 'NONE',  ( -30.00000000000000711, -15.00000000000000533, 582.2500000000000000 ) ) ;
#299 = VERTEX_POINT ( 'NONE', #454 ) ;
#300 = CARTESIAN_POINT ( 'NONE',  ( -40.00000000000000711, -3.673940397442059967E-15, 597.0000000000000000 ) ) ;
#301 = ORIENTED_EDGE ( 'NONE', *, *, #556, .T. ) ;
#302 = CARTESIAN_POINT ( 'NONE',  ( -30.00000000000000711, -5.000000000000003553, 597.0000000000000000 ) ) ;
#303 = CARTESIAN_POINT ( 'NONE',  ( -70.00000000000000000, 0.000000000000000000, 0.000000000000000000 ) ) ;
#304 = LINE ( 'NONE', #727, #874 ) ;
#305 = EDGE_CURVE ( 'NONE', #68, #90, #892, .T. ) ;
#306 = CARTESIAN_POINT ( 'NONE',  ( -30.00000000000000711, -20.00000000000000355, 0.000000000000000000 ) ) ;
#307 = CIRCLE ( 'NONE', #41, 2.249999999999991562 ) ;
#308 = EDGE_LOOP ( 'NONE', ( #840, #200, #576, #121 ) ) ;
#309 = VECTOR ( 'NONE', #371, 1000.000000000000000 ) ;
#310 = DIRECTION ( 'NONE',  ( 0.000000000000000000, 0.000000000000000000, -1.000000000000000000 ) ) ;
#311 = CARTESIAN_POINT ( 'NONE',  ( -70.00000000000000000, 0.000000000000000000, 5.000000000000004441 ) ) ;
#312 = VERTEX_POINT ( 'NONE', #353 ) ;
#313 = DIRECTION ( 'NONE',  ( -1.224646799147353207E-16, -1.000000000000000000, 0.000000000000000000 ) ) ;
#314 = DIRECTION ( 'NONE',  ( 0.000000000000000000, 0.000000000000000000, -1.000000000000000000 ) ) ;
#315 = EDGE_CURVE ( 'NONE', #415, #638, #546, .T. ) ;
#316 = ORIENTED_EDGE ( 'NONE', *, *, #91, .T. ) ;
#317 = CARTESIAN_POINT ( 'NONE',  ( -70.00000000000000000, 5.000000000000000000, 5.000000000000004441 ) ) ;
#318 = DIRECTION ( 'NONE',  ( -0.7071067811865472397, 0.000000000000000000, -0.7071067811865479058 ) ) ;
#319 = CARTESIAN_POINT ( 'NONE',  ( -35.00000000000000000, -15.00000000000000533, 580.0000000000001137 ) ) ;
#320 = ORIENTED_EDGE ( 'NONE', *, *, #149, .F. ) ;
#321 = CC_DESIGN_PERSON_AND_ORGANIZATION_ASSIGNMENT ( #520, #358, ( #847 ) ) ;
#322 = VECTOR ( 'NONE', #1040, 1000.000000000000000 ) ;
#323 = DIRECTION ( 'NONE',  ( -1.000000000000000000, 0.000000000000000000, 0.000000000000000000 ) ) ;
#324 = ORIENTED_EDGE ( 'NONE', *, *, #624, .T. ) ;
#325 = VECTOR ( 'NONE', #829, 1000.000000000000000 ) ;
#326 = CYLINDRICAL_SURFACE ( 'NONE', #709, 2.249999999999974243 ) ;
#327 = AXIS2_PLACEMENT_3D ( 'NONE', #771, #39, #1019 ) ;
#328 = ORIENTED_EDGE ( 'NONE', *, *, #1048, .T. ) ;
#329 = COORDINATED_UNIVERSAL_TIME_OFFSET ( 1, 0, .AHEAD. ) ;
#330 = EDGE_CURVE ( 'NONE', #986, #614, #344, .T. ) ;
#331 = DIRECTION ( 'NONE',  ( -0.7071067811865472397, 0.000000000000000000, -0.7071067811865479058 ) ) ;
#332 = DIRECTION ( 'NONE',  ( -1.000000000000000000, 0.000000000000000000, 0.000000000000000000 ) ) ;
#333 = ORIENTED_EDGE ( 'NONE', *, *, #657, .T. ) ;
#334 = LINE ( 'NONE', #592, #368 ) ;
#335 = ORIENTED_EDGE ( 'NONE', *, *, #361, .T. ) ;
#336 = CALENDAR_DATE ( 2025, 16, 7 ) ;
#337 = DIRECTION ( 'NONE',  ( 1.000000000000000000, -0.000000000000000000, -0.000000000000000000 ) ) ;
#338 = CARTESIAN_POINT ( 'NONE',  ( -35.00000000000000000, -15.00000000000000355, 297.7500000000000568 ) ) ;
#339 = EDGE_CURVE ( 'NONE', #99, #806, #307, .T. ) ;
#340 = LINE ( 'NONE', #672, #975 ) ;
#341 = PLANE ( 'NONE',  #384 ) ;
#342 = EDGE_LOOP ( 'NONE', ( #766, #682 ) ) ;
#343 = LINE ( 'NONE', #447, #472 ) ;
#344 = CIRCLE ( 'NONE', #153, 4.589999999999982983 ) ;
#345 = CARTESIAN_POINT ( 'NONE',  ( -35.00000000000000000, -15.00000000000000533, 580.0000000000001137 ) ) ;
#346 = AXIS2_PLACEMENT_3D ( 'NONE', #517, #700, #430 ) ;
#347 = DIRECTION ( 'NONE',  ( 0.000000000000000000, 0.000000000000000000, 1.000000000000000000 ) ) ;
#348 = AXIS2_PLACEMENT_3D ( 'NONE', #202, #381, #130 ) ;
#349 = VECTOR ( 'NONE', #660, 1000.000000000000000 ) ;
#350 = ORIENTED_EDGE ( 'NONE', *, *, #624, .F. ) ;
#351 = APPROVAL_PERSON_ORGANIZATION ( #848, #377, #264 ) ;
#352 = CARTESIAN_POINT ( 'NONE',  ( -35.00000000000000000, -15.00000000000000711, 70.00000000000000000 ) ) ;
#353 = CARTESIAN_POINT ( 'NONE',  ( -35.00000000000000000, -15.00000000000000711, 74.59000000000000341 ) ) ;
#354 = CARTESIAN_POINT ( 'NONE',  ( -35.00000000000000000, -20.00000000000000355, 592.0000000000000000 ) ) ;
#355 = EDGE_CURVE ( 'NONE', #671, #374, #648, .T. ) ;
#356 = DIRECTION ( 'NONE',  ( 0.000000000000000000, 0.000000000000000000, -1.000000000000000000 ) ) ;
#357 = DIRECTION ( 'NONE',  ( 0.000000000000000000, -0.000000000000000000, -1.000000000000000000 ) ) ;
#358 = PERSON_AND_ORGANIZATION_ROLE ( 'design_owner' ) ;
#359 = ORIENTED_EDGE ( 'NONE', *, *, #944, .T. ) ;
#360 = DIRECTION ( 'NONE',  ( 1.224646799147353207E-16, 1.000000000000000000, 0.000000000000000000 ) ) ;
#361 = EDGE_CURVE ( 'NONE', #90, #553, #607, .T. ) ;
#362 = CARTESIAN_POINT ( 'NONE',  ( -65.00000000000000000, -6.123233995736766282E-16, 597.0000000000000000 ) ) ;
#363 = CALENDAR_DATE ( 2025, 16, 7 ) ;
#364 = ORIENTED_EDGE ( 'NONE', *, *, #388, .T. ) ;
#365 = CIRCLE ( 'NONE', #346, 5.000000000000000000 ) ;
#366 = FACE_OUTER_BOUND ( 'NONE', #918, .T. ) ;
#367 = AXIS2_PLACEMENT_3D ( 'NONE', #628, #699, #859 ) ;
#368 = VECTOR ( 'NONE', #608, 1000.000000000000000 ) ;
#369 = ORIENTED_EDGE ( 'NONE', *, *, #203, .T. ) ;
#370 = VECTOR ( 'NONE', #831, 1000.000000000000000 ) ;
#371 = DIRECTION ( 'NONE',  ( -1.000000000000000000, -0.000000000000000000, -0.000000000000000000 ) ) ;
#372 = ADVANCED_FACE ( 'NONE', ( #697 ), #1018, .F. ) ;
#373 = ORIENTED_EDGE ( 'NONE', *, *, #913, .T. ) ;
#374 = VERTEX_POINT ( 'NONE', #110 ) ;
#375 = DIRECTION ( 'NONE',  ( 0.000000000000000000, 1.000000000000000000, 0.000000000000000000 ) ) ;
#376 = ORIENTED_EDGE ( 'NONE', *, *, #822, .T. ) ;
#377 = APPROVAL ( #698, 'UNSPECIFIED' ) ;
#378 = DIRECTION ( 'NONE',  ( 1.000000000000000000, -1.224646799147353207E-16, 0.000000000000000000 ) ) ;
#379 = LINE ( 'NONE', #555, #270 ) ;
#380 = DIRECTION ( 'NONE',  ( 1.000000000000000000, -0.000000000000000000, -0.000000000000000000 ) ) ;
#381 = DIRECTION ( 'NONE',  ( 0.000000000000000000, 0.000000000000000000, -1.000000000000000000 ) ) ;
#382 = VECTOR ( 'NONE', #323, 1000.000000000000000 ) ;
#383 = CARTESIAN_POINT ( 'NONE',  ( -32.66000000000000369, -15.00000000000000178, 22.25000000000000000 ) ) ;
#384 = AXIS2_PLACEMENT_3D ( 'NONE', #909, #684, #22 ) ;
#385 = ORIENTED_EDGE ( 'NONE', *, *, #241, .F. ) ;
#386 = DIRECTION ( 'NONE',  ( -1.000000000000000000, 0.000000000000000000, 0.000000000000000000 ) ) ;
#387 = DIRECTION ( 'NONE',  ( 0.000000000000000000, 0.000000000000000000, -1.000000000000000000 ) ) ;
#388 = EDGE_CURVE ( 'NONE', #949, #299, #441, .T. ) ;
#389 = EDGE_LOOP ( 'NONE', ( #514, #376, #479, #167, #50, #626 ) ) ;
#390 = ORIENTED_EDGE ( 'NONE', *, *, #750, .F. ) ;
#391 = ADVANCED_FACE ( 'NONE', ( #706 ), #1024, .T. ) ;
#392 = FACE_OUTER_BOUND ( 'NONE', #833, .T. ) ;
#393 = AXIS2_PLACEMENT_3D ( 'NONE', #352, #263, #102 ) ;
#394 = VECTOR ( 'NONE', #710, 999.9999999999998863 ) ;
#395 = EDGE_CURVE ( 'NONE', #614, #986, #433, .T. ) ;
#396 = LOCAL_TIME ( 14, 1, 59.00000000000000000, #329 ) ;
#397 = CARTESIAN_POINT ( 'NONE',  ( -70.00000000000000000, 5.000000000000000000, 0.000000000000000000 ) ) ;
#398 = ORIENTED_EDGE ( 'NONE', *, *, #635, .F. ) ;
#399 = CARTESIAN_POINT ( 'NONE',  ( -32.66000000000000369, -15.00000000000000355, 300.0000000000000568 ) ) ;
#400 = EDGE_CURVE ( 'NONE', #83, #1016, #616, .T. ) ;
#401 = ORIENTED_EDGE ( 'NONE', *, *, #255, .T. ) ;
#402 = DIRECTION ( 'NONE',  ( -0.7071067811865472397, 0.000000000000000000, -0.7071067811865479058 ) ) ;
#403 = CARTESIAN_POINT ( 'NONE',  ( -70.00000000000000000, 0.000000000000000000, 592.0000000000000000 ) ) ;
#404 = ORIENTED_EDGE ( 'NONE', *, *, #973, .T. ) ;
#405 = DIRECTION ( 'NONE',  ( -1.000000000000000000, 0.000000000000000000, 0.000000000000000000 ) ) ;
#406 = CARTESIAN_POINT ( 'NONE',  ( -65.00000000000000000, -8.673617379884035472E-16, 592.0000000000000000 ) ) ;
#407 = ORIENTED_EDGE ( 'NONE', *, *, #292, .F. ) ;
#408 = CARTESIAN_POINT ( 'NONE',  ( -35.00000000000000000, -15.00000000000000178, 20.00000000000000355 ) ) ;
#409 = ORIENTED_EDGE ( 'NONE', *, *, #744, .F. ) ;
#410 = ADVANCED_FACE ( 'NONE', ( #867 ), #1009, .F. ) ;
#411 = VECTOR ( 'NONE', #851, 1000.000000000000000 ) ;
#412 = CARTESIAN_POINT ( 'NONE',  ( -35.00000000000000000, -15.00000000000000355, 295.4100000000000819 ) ) ;
#413 = CARTESIAN_POINT ( 'NONE',  ( -70.00000000000000000, 5.000000000000000000, 592.0000000000000000 ) ) ;
#414 = AXIS2_PLACEMENT_3D ( 'NONE', #1007, #423, #254 ) ;
#415 = VERTEX_POINT ( 'NONE', #383 ) ;
#416 = LINE ( 'NONE', #105, #273 ) ;
#417 = LOCAL_TIME ( 14, 1, 59.00000000000000000, #168 ) ;
#418 = ORIENTED_EDGE ( 'NONE', *, *, #37, .T. ) ;
#419 = APPLICATION_CONTEXT ( 'configuration controlled 3d designs of mechanical parts and assemblies' ) ;
#420 = EDGE_CURVE ( 'NONE', #806, #99, #799, .T. ) ;
#421 = LINE ( 'NONE', #412, #958 ) ;
#422 = ORIENTED_EDGE ( 'NONE', *, *, #518, .T. ) ;
#423 = DIRECTION ( 'NONE',  ( 1.000000000000000000, -0.000000000000000000, -0.000000000000000000 ) ) ;
#424 = ORIENTED_EDGE ( 'NONE', *, *, #361, .F. ) ;
#425 = FACE_OUTER_BOUND ( 'NONE', #692, .T. ) ;
#426 = DIRECTION ( 'NONE',  ( -0.000000000000000000, -1.000000000000000000, -0.000000000000000000 ) ) ;
#427 = ORIENTED_EDGE ( 'NONE', *, *, #890, .T. ) ;
#428 = CARTESIAN_POINT ( 'NONE',  ( -35.00000000000000000, -4.286263797015736496E-15, 0.000000000000000000 ) ) ;
#429 = ORIENTED_EDGE ( 'NONE', *, *, #470, .F. ) ;
#430 = DIRECTION ( 'NONE',  ( 0.000000000000000000, 0.000000000000000000, -1.000000000000000000 ) ) ;
#431 = AXIS2_PLACEMENT_3D ( 'NONE', #212, #794, #310 ) ;
#432 = CARTESIAN_POINT ( 'NONE',  ( -30.00000000000000711, -15.00000000000000178, 20.00000000000000355 ) ) ;
#433 = CIRCLE ( 'NONE', #253, 4.589999999999982983 ) ;
#434 = ORIENTED_EDGE ( 'NONE', *, *, #91, .F. ) ;
#435 = EDGE_CURVE ( 'NONE', #1034, #262, #304, .T. ) ;
#436 = DIRECTION ( 'NONE',  ( 0.000000000000000000, -1.000000000000000000, 0.000000000000000000 ) ) ;
#437 = AXIS2_PLACEMENT_3D ( 'NONE', #554, #793, #719 ) ;
#438 = VERTEX_POINT ( 'NONE', #300 ) ;
#439 = CIRCLE ( 'NONE', #275, 5.000000000000000000 ) ;
#440 = DIRECTION ( 'NONE',  ( -1.224646799147353207E-16, -1.000000000000000000, 0.000000000000000000 ) ) ;
#441 = LINE ( 'NONE', #775, #250 ) ;
#442 = PERSON_AND_ORGANIZATION ( #225, #60 ) ;
#443 = ORIENTED_EDGE ( 'NONE', *, *, #149, .T. ) ;
#444 = CC_DESIGN_DATE_AND_TIME_ASSIGNMENT ( #185, #495, ( #960 ) ) ;
#445 = CARTESIAN_POINT ( 'NONE',  ( -70.00000000000000000, 5.000000000000000000, 597.0000000000000000 ) ) ;
#446 = ORIENTED_EDGE ( 'NONE', *, *, #1053, .T. ) ;
#447 = CARTESIAN_POINT ( 'NONE',  ( -65.00000000000000000, -4.999999999999999112, 0.000000000000000000 ) ) ;
#448 = DIRECTION ( 'NONE',  ( -1.000000000000000000, 1.734723475976805615E-16, 0.000000000000000000 ) ) ;
#449 = APPROVAL_DATE_TIME ( #613, #377 ) ;
#450 = ORIENTED_EDGE ( 'NONE', *, *, #339, .T. ) ;
#451 = DIRECTION ( 'NONE',  ( 0.000000000000000000, -0.000000000000000000, -1.000000000000000000 ) ) ;
#452 = CYLINDRICAL_SURFACE ( 'NONE', #596, 2.249999999999974243 ) ;
#453 = ADVANCED_FACE ( 'NONE', ( #131 ), #127, .T. ) ;
#454 = CARTESIAN_POINT ( 'NONE',  ( -35.00000000000000000, -5.000000000000003553, 0.000000000000000000 ) ) ;
#455 = PERSON_AND_ORGANIZATION ( #225, #60 ) ;
#456 = AXIS2_PLACEMENT_3D ( 'NONE', #535, #283, #114 ) ;
#457 = ORIENTED_EDGE ( 'NONE', *, *, #1000, .F. ) ;
#458 = VECTOR ( 'NONE', #466, 999.9999999999998863 ) ;
#459 = CARTESIAN_POINT ( 'NONE',  ( -40.00000000000000711, 4.999999999999996447, 597.0000000000000000 ) ) ;
#460 = AXIS2_PLACEMENT_3D ( 'NONE', #563, #386, #1066 ) ;
#461 = DIRECTION ( 'NONE',  ( 0.000000000000000000, 0.000000000000000000, -1.000000000000000000 ) ) ;
#462 = EDGE_CURVE ( 'NONE', #155, #157, #140, .T. ) ;
#463 = DIRECTION ( 'NONE',  ( 0.000000000000000000, 0.000000000000000000, 1.000000000000000000 ) ) ;
#464 = FACE_OUTER_BOUND ( 'NONE', #245, .T. ) ;
#465 = CYLINDRICAL_SURFACE ( 'NONE', #437, 2.249999999999991562 ) ;
#466 = DIRECTION ( 'NONE',  ( -0.7071067811865472397, 0.000000000000000000, -0.7071067811865479058 ) ) ;
#467 = LINE ( 'NONE', #627, #990 ) ;
#468 = CYLINDRICAL_SURFACE ( 'NONE', #525, 5.000000000000000000 ) ;
#469 = EDGE_LOOP ( 'NONE', ( #450, #228, #1014, #18 ) ) ;
#470 = EDGE_CURVE ( 'NONE', #1001, #583, #971, .T. ) ;
#471 = FACE_OUTER_BOUND ( 'NONE', #96, .T. ) ;
#472 = VECTOR ( 'NONE', #440, 1000.000000000000000 ) ;
#473 = VERTEX_POINT ( 'NONE', #226 ) ;
#474 = DIRECTION ( 'NONE',  ( -0.000000000000000000, -0.000000000000000000, -1.000000000000000000 ) ) ;
#475 = ORIENTED_EDGE ( 'NONE', *, *, #330, .F. ) ;
#476 = DIRECTION ( 'NONE',  ( 0.000000000000000000, 0.000000000000000000, -1.000000000000000000 ) ) ;
#477 = PLANE ( 'NONE',  #1030 ) ;
#478 = EDGE_CURVE ( 'NONE', #759, #157, #561, .T. ) ;
#479 = ORIENTED_EDGE ( 'NONE', *, *, #197, .F. ) ;
#480 = APPLICATION_CONTEXT ( 'configuration controlled 3d designs of mechanical parts and assemblies' ) ;
#481 = ORIENTED_EDGE ( 'NONE', *, *, #1037, .F. ) ;
#482 = CARTESIAN_POINT ( 'NONE',  ( -32.66000000000000369, -15.00000000000000355, 300.0000000000000568 ) ) ;
#483 = EDGE_LOOP ( 'NONE', ( #14, #1036, #711, #333 ) ) ;
#484 = EDGE_CURVE ( 'NONE', #553, #685, #289, .T. ) ;
#485 = FACE_BOUND ( 'NONE', #777, .T. ) ;
#486 = CIRCLE ( 'NONE', #686, 2.249999999999995115 ) ;
#487 = CC_DESIGN_PERSON_AND_ORGANIZATION_ASSIGNMENT ( #442, #707, ( #905 ) ) ;
#488 = AXIS2_PLACEMENT_3D ( 'NONE', #677, #522, #841 ) ;
#489 = ORIENTED_EDGE ( 'NONE', *, *, #935, .F. ) ;
#490 = DIRECTION ( 'NONE',  ( -0.7071067811865472397, -8.659560562354937789E-17, 0.7071067811865479058 ) ) ;
#491 = VERTEX_POINT ( 'NONE', #141 ) ;
#492 = CARTESIAN_POINT ( 'NONE',  ( -35.00000000000000000, -20.00000000000000355, 592.0000000000000000 ) ) ;
#493 = LINE ( 'NONE', #499, #370 ) ;
#494 = ORIENTED_EDGE ( 'NONE', *, *, #388, .F. ) ;
#495 = DATE_TIME_ROLE ( 'classification_date' ) ;
#496 = MANIFOLD_SOLID_BREP ( '<202500145_28_productholderpin04_plate02_V1.1>-<Verrundung1>', #723 ) ;
#497 = CARTESIAN_POINT ( 'NONE',  ( -32.66000000000000369, -15.00000000000000178, 20.00000000000000355 ) ) ;
#498 = VERTEX_POINT ( 'NONE', #52 ) ;
#499 = CARTESIAN_POINT ( 'NONE',  ( -35.00000000000000000, -25.00000000000000355, 592.0000000000000000 ) ) ;
#500 = EDGE_CURVE ( 'NONE', #438, #908, #379, .T. ) ;
#501 = ORIENTED_EDGE ( 'NONE', *, *, #420, .T. ) ;
#502 = SHAPE_DEFINITION_REPRESENTATION ( #163, #680 ) ;
#503 = AXIS2_PLACEMENT_3D ( 'NONE', #217, #1052, #560 ) ;
#504 = ORIENTED_EDGE ( 'NONE', *, *, #305, .F. ) ;
#505 = LINE ( 'NONE', #243, #751 ) ;
#506 = CIRCLE ( 'NONE', #220, 2.250000000000001776 ) ;
#507 = AXIS2_PLACEMENT_3D ( 'NONE', #839, #758, #1005 ) ;
#508 = CARTESIAN_POINT ( 'NONE',  ( -30.00000000000000711, -15.00000000000000178, 22.24999999999999645 ) ) ;
#509 = CC_DESIGN_SECURITY_CLASSIFICATION ( #960, ( #905 ) ) ;
#510 = ORIENTED_EDGE ( 'NONE', *, *, #562, .T. ) ;
#511 = CARTESIAN_POINT ( 'NONE',  ( -32.66000000000000369, -15.00000000000000711, 67.75000000000000000 ) ) ;
#512 = DIRECTION ( 'NONE',  ( 0.000000000000000000, 0.000000000000000000, -1.000000000000000000 ) ) ;
#513 = DIRECTION ( 'NONE',  ( 0.000000000000000000, 0.000000000000000000, -1.000000000000000000 ) ) ;
#514 = ORIENTED_EDGE ( 'NONE', *, *, #44, .T. ) ;
#515 = DIRECTION ( 'NONE',  ( -1.000000000000000000, 0.000000000000000000, 0.000000000000000000 ) ) ;
#516 = ORIENTED_EDGE ( 'NONE', *, *, #675, .F. ) ;
#517 = CARTESIAN_POINT ( 'NONE',  ( -35.00000000000000000, -20.00000000000000355, 5.000000000000000000 ) ) ;
#518 = EDGE_CURVE ( 'NONE', #286, #3, #832, .T. ) ;
#519 = CARTESIAN_POINT ( 'NONE',  ( -35.00000000000000000, -15.00000000000000711, 67.75000000000001421 ) ) ;
#520 = PERSON_AND_ORGANIZATION ( #225, #60 ) ;
#521 = ORIENTED_EDGE ( 'NONE', *, *, #913, .F. ) ;
#522 = DIRECTION ( 'NONE',  ( -1.000000000000000000, 0.000000000000000000, 0.000000000000000000 ) ) ;
#523 = VERTEX_POINT ( 'NONE', #219 ) ;
#524 = DIRECTION ( 'NONE',  ( 1.000000000000000000, -0.000000000000000000, -0.000000000000000000 ) ) ;
#525 = AXIS2_PLACEMENT_3D ( 'NONE', #798, #57, #1049 ) ;
#526 = DIRECTION ( 'NONE',  ( -1.224646799147353207E-16, -1.000000000000000000, 0.000000000000000000 ) ) ;
#527 = DATE_TIME_ROLE ( 'creation_date' ) ;
#528 = ADVANCED_FACE ( 'NONE', ( #568 ), #468, .T. ) ;
#529 = VECTOR ( 'NONE', #961, 1000.000000000000000 ) ;
#530 = ORIENTED_EDGE ( 'NONE', *, *, #556, .F. ) ;
#531 = AXIS2_PLACEMENT_3D ( 'NONE', #406, #584, #747 ) ;
#532 = DIRECTION ( 'NONE',  ( 1.000000000000000000, -1.734723475976808080E-16, 0.000000000000000000 ) ) ;
#533 = EDGE_LOOP ( 'NONE', ( #557, #593, #922, #574 ) ) ;
#534 = CARTESIAN_POINT ( 'NONE',  ( -35.00000000000000000, -25.00000000000000355, 5.000000000000004441 ) ) ;
#535 = CARTESIAN_POINT ( 'NONE',  ( -35.00000000000000000, -15.00000000000000533, 580.0000000000001137 ) ) ;
#536 = VERTEX_POINT ( 'NONE', #712 ) ;
#537 = EDGE_CURVE ( 'NONE', #583, #58, #365, .T. ) ;
#538 = LINE ( 'NONE', #865, #875 ) ;
#539 = FACE_OUTER_BOUND ( 'NONE', #308, .T. ) ;
#540 = DIRECTION ( 'NONE',  ( 0.000000000000000000, 0.000000000000000000, -1.000000000000000000 ) ) ;
#541 = MECHANICAL_CONTEXT ( 'NONE', #419, 'mechanical' ) ;
#542 = ORIENTED_EDGE ( 'NONE', *, *, #292, .T. ) ;
#543 = CARTESIAN_POINT ( 'NONE',  ( -40.00000000000000711, -5.000000000000003553, 597.0000000000000000 ) ) ;
#544 = ADVANCED_FACE ( 'NONE', ( #1035 ), #703, .F. ) ;
#545 = CARTESIAN_POINT ( 'NONE',  ( -35.00000000000000000, -15.00000000000000711, 70.00000000000000000 ) ) ;
#546 = LINE ( 'NONE', #612, #600 ) ;
#547 = VECTOR ( 'NONE', #985, 1000.000000000000000 ) ;
#548 = ORIENTED_EDGE ( 'NONE', *, *, #339, .F. ) ;
#549 = ORIENTED_EDGE ( 'NONE', *, *, #562, .F. ) ;
#550 = AXIS2_PLACEMENT_3D ( 'NONE', #1054, #801, #65 ) ;
#551 = VECTOR ( 'NONE', #436, 1000.000000000000000 ) ;
#552 = CARTESIAN_POINT ( 'NONE',  ( -35.00000000000000000, -15.00000000000000533, 584.5900000000000318 ) ) ;
#553 = VERTEX_POINT ( 'NONE', #511 ) ;
#554 = CARTESIAN_POINT ( 'NONE',  ( -35.00000000000000000, -15.00000000000000178, 20.00000000000000355 ) ) ;
#555 = CARTESIAN_POINT ( 'NONE',  ( -40.00000000000000711, -3.673940397442059967E-15, 597.0000000000000000 ) ) ;
#556 = EDGE_CURVE ( 'NONE', #536, #583, #924, .T. ) ;
#557 = ORIENTED_EDGE ( 'NONE', *, *, #285, .T. ) ;
#558 = DIRECTION ( 'NONE',  ( 1.000000000000000000, -0.000000000000000000, -0.000000000000000000 ) ) ;
#559 = EDGE_LOOP ( 'NONE', ( #929, #188 ) ) ;
#560 = DIRECTION ( 'NONE',  ( 0.000000000000000000, 0.000000000000000000, -1.000000000000000000 ) ) ;
#561 = LINE ( 'NONE', #880, #705 ) ;
#562 = EDGE_CURVE ( 'NONE', #312, #685, #632, .T. ) ;
#563 = CARTESIAN_POINT ( 'NONE',  ( -35.00000000000000000, -15.00000000000000711, 70.00000000000000000 ) ) ;
#564 = ORIENTED_EDGE ( 'NONE', *, *, #462, .F. ) ;
#565 = CARTESIAN_POINT ( 'NONE',  ( -70.00000000000000000, 0.000000000000000000, 597.0000000000000000 ) ) ;
#566 = CIRCLE ( 'NONE', #836, 2.249999999999974243 ) ;
#567 = AXIS2_PLACEMENT_3D ( 'NONE', #345, #170, #994 ) ;
#568 = FACE_OUTER_BOUND ( 'NONE', #728, .T. ) ;
#569 = VERTEX_POINT ( 'NONE', #362 ) ;
#570 = CARTESIAN_POINT ( 'NONE',  ( -70.00000000000000000, -2.550383384147269683E-16, 592.0000000000000000 ) ) ;
#571 = EDGE_CURVE ( 'NONE', #1003, #155, #343, .T. ) ;
#572 = ORIENTED_EDGE ( 'NONE', *, *, #834, .F. ) ;
#573 = LINE ( 'NONE', #980, #956 ) ;
#574 = ORIENTED_EDGE ( 'NONE', *, *, #1033, .T. ) ;
#575 = ADVANCED_FACE ( 'NONE', ( #1029, #108, #276, #947, #774 ), #611, .F. ) ;
#576 = ORIENTED_EDGE ( 'NONE', *, *, #683, .T. ) ;
#577 = ORIENTED_EDGE ( 'NONE', *, *, #1048, .F. ) ;
#578 = AXIS2_PLACEMENT_3D ( 'NONE', #565, #895, #634 ) ;
#579 = LINE ( 'NONE', #690, #382 ) ;
#580 = ORIENTED_EDGE ( 'NONE', *, *, #967, .F. ) ;
#581 = CYLINDRICAL_SURFACE ( 'NONE', #920, 2.249999999999991562 ) ;
#582 = DIRECTION ( 'NONE',  ( 0.000000000000000000, 0.000000000000000000, -1.000000000000000000 ) ) ;
#583 = VERTEX_POINT ( 'NONE', #42 ) ;
#584 = DIRECTION ( 'NONE',  ( 1.224646799147353207E-16, 1.000000000000000000, -0.000000000000000000 ) ) ;
#585 = ADVANCED_FACE ( 'NONE', ( #195 ), #780, .F. ) ;
#586 = ORIENTED_EDGE ( 'NONE', *, *, #944, .F. ) ;
#587 = LINE ( 'NONE', #919, #76 ) ;
#588 = ORIENTED_EDGE ( 'NONE', *, *, #1059, .T. ) ;
#589 = PLANE ( 'NONE',  #59 ) ;
#590 = EDGE_CURVE ( 'NONE', #523, #536, #31, .T. ) ;
#591 = EDGE_LOOP ( 'NONE', ( #886, #896 ) ) ;
#592 = CARTESIAN_POINT ( 'NONE',  ( -35.00000000000000000, -15.00000000000000533, 577.7500000000001137 ) ) ;
#593 = ORIENTED_EDGE ( 'NONE', *, *, #571, .T. ) ;
#594 = AXIS2_PLACEMENT_3D ( 'NONE', #1068, #988, #235 ) ;
#595 = CARTESIAN_POINT ( 'NONE',  ( -40.00000000000000711, -5.000000000000003553, 597.0000000000000000 ) ) ;
#596 = AXIS2_PLACEMENT_3D ( 'NONE', #49, #951, #282 ) ;
#597 = VECTOR ( 'NONE', #718, 1000.000000000000000 ) ;
#598 = CARTESIAN_POINT ( 'NONE',  ( -65.00000000000000000, 4.999999999999999112, 5.000000000000000000 ) ) ;
#599 = FACE_OUTER_BOUND ( 'NONE', #94, .T. ) ;
#600 = VECTOR ( 'NONE', #952, 999.9999999999998863 ) ;
#601 = ORIENTED_EDGE ( 'NONE', *, *, #783, .F. ) ;
#602 = AXIS2_PLACEMENT_3D ( 'NONE', #408, #760, #244 ) ;
#603 = DIRECTION ( 'NONE',  ( 1.000000000000000000, 0.000000000000000000, 0.000000000000000000 ) ) ;
#604 = ORIENTED_EDGE ( 'NONE', *, *, #864, .T. ) ;
#605 = ADVANCED_FACE ( 'NONE', ( #539 ), #186, .T. ) ;
#606 = DIRECTION ( 'NONE',  ( -1.000000000000000000, 0.000000000000000000, 0.000000000000000000 ) ) ;
#607 = LINE ( 'NONE', #519, #1056 ) ;
#608 = DIRECTION ( 'NONE',  ( -1.000000000000000000, 0.000000000000000000, 0.000000000000000000 ) ) ;
#609 = ORIENTED_EDGE ( 'NONE', *, *, #145, .F. ) ;
#610 = CC_DESIGN_PERSON_AND_ORGANIZATION_ASSIGNMENT ( #455, #714, ( #960 ) ) ;
#611 = PLANE ( 'NONE',  #6 ) ;
#612 = CARTESIAN_POINT ( 'NONE',  ( -35.00000000000000000, -15.00000000000000178, 24.59000000000000341 ) ) ;
#613 = DATE_AND_TIME ( #363, #977 ) ;
#614 = VERTEX_POINT ( 'NONE', #860 ) ;
#615 = CARTESIAN_POINT ( 'NONE',  ( -35.00000000000000000, -15.00000000000000711, 70.00000000000000000 ) ) ;
#616 = CIRCLE ( 'NONE', #664, 2.249999999999974243 ) ;
#617 = CARTESIAN_POINT ( 'NONE',  ( -65.00000000000000000, -4.999999999999999112, 5.000000000000000000 ) ) ;
#618 = APPLICATION_PROTOCOL_DEFINITION ( 'international standard', 'config_control_design', 1994, #480 ) ;
#619 = ADVANCED_FACE ( 'NONE', ( #425 ), #204, .F. ) ;
#620 = CIRCLE ( 'NONE', #770, 4.590000000000000746 ) ;
#621 = CARTESIAN_POINT ( 'NONE',  ( -30.00000000000000711, -20.00000000000000355, 597.0000000000000000 ) ) ;
#622 = EDGE_LOOP ( 'NONE', ( #1044, #364, #659, #240, #429, #457 ) ) ;
#623 = DIRECTION ( 'NONE',  ( 0.000000000000000000, 0.000000000000000000, -1.000000000000000000 ) ) ;
#624 = EDGE_CURVE ( 'NONE', #816, #299, #1017, .T. ) ;
#625 = LINE ( 'NONE', #953, #394 ) ;
#626 = ORIENTED_EDGE ( 'NONE', *, *, #72, .F. ) ;
#627 = CARTESIAN_POINT ( 'NONE',  ( -40.00000000000000711, -3.673940397442059967E-15, 0.000000000000000000 ) ) ;
#628 = CARTESIAN_POINT ( 'NONE',  ( -40.00000000000000711, -5.000000000000003553, 0.000000000000000000 ) ) ;
#629 = CARTESIAN_POINT ( 'NONE',  ( -30.00000000000000711, -4.286263797015736496E-15, 597.0000000000000000 ) ) ;
#630 = AXIS2_PLACEMENT_3D ( 'NONE', #399, #1004, #746 ) ;
#631 = ORIENTED_EDGE ( 'NONE', *, *, #779, .T. ) ;
#632 = CIRCLE ( 'NONE', #393, 4.589999999999997193 ) ;
#633 = CARTESIAN_POINT ( 'NONE',  ( -35.00000000000000000, -20.00000000000000355, 0.000000000000000000 ) ) ;
#634 = DIRECTION ( 'NONE',  ( -1.000000000000000000, 1.224646799147353207E-16, 0.000000000000000000 ) ) ;
#635 = EDGE_CURVE ( 'NONE', #70, #651, #73, .T. ) ;
#636 = APPROVAL_PERSON_ORGANIZATION ( #4, #2, #769 ) ;
#637 = CARTESIAN_POINT ( 'NONE',  ( -32.66000000000000369, -15.00000000000000533, 580.0000000000001137 ) ) ;
#638 = VERTEX_POINT ( 'NONE', #941 ) ;
#639 = DIRECTION ( 'NONE',  ( -1.000000000000000000, 0.000000000000000000, 0.000000000000000000 ) ) ;
#640 = DIRECTION ( 'NONE',  ( -1.000000000000000000, 0.000000000000000000, 0.000000000000000000 ) ) ;
#641 = CC_DESIGN_DATE_AND_TIME_ASSIGNMENT ( #187, #527, ( #181 ) ) ;
#642 = CARTESIAN_POINT ( 'NONE',  ( -35.00000000000000000, -5.000000000000003553, 597.0000000000000000 ) ) ;
#643 = FACE_OUTER_BOUND ( 'NONE', #78, .T. ) ;
#644 = DIRECTION ( 'NONE',  ( -1.000000000000000000, 1.224646799147353207E-16, 0.000000000000000000 ) ) ;
#645 = CARTESIAN_POINT ( 'NONE',  ( -65.00000000000000000, -8.673617379884035472E-16, 5.000000000000000000 ) ) ;
#646 = EDGE_LOOP ( 'NONE', ( #481, #107, #335, #7 ) ) ;
#647 = ADVANCED_FACE ( 'NONE', ( #846 ), #452, .F. ) ;
#648 = CIRCLE ( 'NONE', #456, 4.589999999999982983 ) ;
#649 = DIRECTION ( 'NONE',  ( 0.000000000000000000, 0.000000000000000000, -1.000000000000000000 ) ) ;
#650 = AXIS2_PLACEMENT_3D ( 'NONE', #258, #119, #843 ) ;
#651 = VERTEX_POINT ( 'NONE', #139 ) ;
#652 = AXIS2_PLACEMENT_3D ( 'NONE', #8, #754, #603 ) ;
#653 = AXIS2_PLACEMENT_3D ( 'NONE', #828, #405, #242 ) ;
#654 = VECTOR ( 'NONE', #318, 999.9999999999998863 ) ;
#655 = DIRECTION ( 'NONE',  ( 0.000000000000000000, -0.000000000000000000, -1.000000000000000000 ) ) ;
#656 = UNCERTAINTY_MEASURE_WITH_UNIT (LENGTH_MEASURE( 1.000000000000000082E-05 ), #45, 'distance_accuracy_value', 'NONE');
#657 = EDGE_CURVE ( 'NONE', #28, #844, #955, .T. ) ;
#658 = FACE_OUTER_BOUND ( 'NONE', #622, .T. ) ;
#659 = ORIENTED_EDGE ( 'NONE', *, *, #834, .T. ) ;
#660 = DIRECTION ( 'NONE',  ( 1.000000000000000000, -1.224646799147353207E-16, 0.000000000000000000 ) ) ;
#661 = ORIENTED_EDGE ( 'NONE', *, *, #500, .F. ) ;
#662 = DIRECTION ( 'NONE',  ( 1.000000000000000000, -0.000000000000000000, -0.000000000000000000 ) ) ;
#663 = DIRECTION ( 'NONE',  ( -1.000000000000000000, 0.000000000000000000, 0.000000000000000000 ) ) ;
#664 = AXIS2_PLACEMENT_3D ( 'NONE', #948, #196, #540 ) ;
#665 = ORIENTED_EDGE ( 'NONE', *, *, #657, .F. ) ;
#666 = CIRCLE ( 'NONE', #154, 10.00000000000000178 ) ;
#667 = ADVANCED_FACE ( 'NONE', ( #207 ), #1042, .T. ) ;
#668 = VECTOR ( 'NONE', #426, 1000.000000000000000 ) ;
#669 = CARTESIAN_POINT ( 'NONE',  ( -30.00000000000000711, -15.00000000000000533, 577.7500000000001137 ) ) ;
#670 = CC_DESIGN_APPROVAL ( #879, ( #905 ) ) ;
#671 = VERTEX_POINT ( 'NONE', #552 ) ;
#672 = CARTESIAN_POINT ( 'NONE',  ( -35.00000000000000000, -15.00000000000000178, 15.41000000000000369 ) ) ;
#673 = CARTESIAN_POINT ( 'NONE',  ( -40.00000000000000711, 4.999999999999996447, 597.0000000000000000 ) ) ;
#674 = ORIENTED_EDGE ( 'NONE', *, *, #765, .F. ) ;
#675 = EDGE_CURVE ( 'NONE', #3, #286, #957, .T. ) ;
#676 = LINE ( 'NONE', #247, #668 ) ;
#677 = CARTESIAN_POINT ( 'NONE',  ( -35.00000000000000000, -15.00000000000000533, 580.0000000000001137 ) ) ;
#678 = ORIENTED_EDGE ( 'NONE', *, *, #981, .T. ) ;
#679 = APPROVAL_DATE_TIME ( #687, #2 ) ;
#680 = ADVANCED_BREP_SHAPE_REPRESENTATION ( '202500145_28_productholderpin04_plate02_sp_V1.1', ( #496, #327 ), #804 ) ;
#681 = CARTESIAN_POINT ( 'NONE',  ( -40.00000000000000711, -20.00000000000000355, 0.000000000000000000 ) ) ;
#682 = ORIENTED_EDGE ( 'NONE', *, *, #400, .F. ) ;
#683 = EDGE_CURVE ( 'NONE', #24, #161, #666, .T. ) ;
#684 = DIRECTION ( 'NONE',  ( 0.000000000000000000, 0.000000000000000000, -1.000000000000000000 ) ) ;
#685 = VERTEX_POINT ( 'NONE', #878 ) ;
#686 = AXIS2_PLACEMENT_3D ( 'NONE', #998, #902, #93 ) ;
#687 = DATE_AND_TIME ( #336, #396 ) ;
#688 = DIRECTION ( 'NONE',  ( 1.000000000000000000, 0.000000000000000000, 0.000000000000000000 ) ) ;
#689 = AXIS2_PLACEMENT_3D ( 'NONE', #642, #463, #716 ) ;
#690 = CARTESIAN_POINT ( 'NONE',  ( -35.00000000000000000, -15.00000000000000533, 582.2500000000000000 ) ) ;
#691 = CONICAL_SURFACE ( 'NONE', #818, 4.589999999999982983, 0.7853981633974487231 ) ;
#692 = EDGE_LOOP ( 'NONE', ( #390, #945, #812, #549 ) ) ;
#693 = CARTESIAN_POINT ( 'NONE',  ( -40.00000000000000711, -3.673940397442059967E-15, 0.000000000000000000 ) ) ;
#694 = ADVANCED_FACE ( 'NONE', ( #743 ), #465, .F. ) ;
#695 = ORIENTED_EDGE ( 'NONE', *, *, #1053, .F. ) ;
#696 = CARTESIAN_POINT ( 'NONE',  ( -30.00000000000000711, -4.286263797015736496E-15, 597.0000000000000000 ) ) ;
#697 = FACE_OUTER_BOUND ( 'NONE', #389, .T. ) ;
#698 = APPROVAL_STATUS ( 'not_yet_approved' ) ;
#699 = DIRECTION ( 'NONE',  ( -0.000000000000000000, -0.000000000000000000, -1.000000000000000000 ) ) ;
#700 = DIRECTION ( 'NONE',  ( 1.000000000000000000, -0.000000000000000000, -0.000000000000000000 ) ) ;
#701 = COORDINATED_UNIVERSAL_TIME_OFFSET ( 1, 0, .AHEAD. ) ;
#702 = EDGE_LOOP ( 'NONE', ( #1006, #972, #373, #146 ) ) ;
#703 = PLANE ( 'NONE',  #1028 ) ;
#704 = EDGE_CURVE ( 'NONE', #216, #638, #620, .T. ) ;
#705 = VECTOR ( 'NONE', #883, 1000.000000000000000 ) ;
#706 = FACE_OUTER_BOUND ( 'NONE', #533, .T. ) ;
#707 = PERSON_AND_ORGANIZATION_ROLE ( 'creator' ) ;
#708 = CIRCLE ( 'NONE', #835, 2.249999999999974243 ) ;
#709 = AXIS2_PLACEMENT_3D ( 'NONE', #849, #179, #582 ) ;
#710 = DIRECTION ( 'NONE',  ( -0.7071067811865472397, -8.659560562354937789E-17, 0.7071067811865479058 ) ) ;
#711 = ORIENTED_EDGE ( 'NONE', *, *, #54, .T. ) ;
#712 = CARTESIAN_POINT ( 'NONE',  ( -30.00000000000000711, -25.00000000000000355, 5.000000000000004441 ) ) ;
#713 = DIRECTION ( 'NONE',  ( 1.000000000000000000, -0.000000000000000000, -0.000000000000000000 ) ) ;
#714 = PERSON_AND_ORGANIZATION_ROLE ( 'classification_officer' ) ;
#715 = DIRECTION ( 'NONE',  ( 1.000000000000000000, 0.000000000000000000, 0.000000000000000000 ) ) ;
#716 = DIRECTION ( 'NONE',  ( -1.000000000000000000, 0.000000000000000000, 0.000000000000000000 ) ) ;
#717 = EDGE_CURVE ( 'NONE', #155, #908, #887, .T. ) ;
#718 = DIRECTION ( 'NONE',  ( 1.000000000000000000, -1.224646799147353207E-16, 0.000000000000000000 ) ) ;
#719 = DIRECTION ( 'NONE',  ( 0.000000000000000000, 0.000000000000000000, -1.000000000000000000 ) ) ;
#720 = DIRECTION ( 'NONE',  ( 0.000000000000000000, 0.000000000000000000, -1.000000000000000000 ) ) ;
#721 = VECTOR ( 'NONE', #490, 999.9999999999998863 ) ;
#722 = CARTESIAN_POINT ( 'NONE',  ( -35.00000000000000000, -4.286263797015736496E-15, 597.0000000000000000 ) ) ;
#723 = CLOSED_SHELL ( 'NONE', ( #164, #858, #1022, #136, #232, #208, #97, #954, #453, #906, #901, #267, #575, #993, #103, #67, #732, #731, #372, #605, #544, #667, #585, #619, #694, #873, #842, #921, #647, #410, #29, #21, #528, #391 ) ) ;
#724 = ORIENTED_EDGE ( 'NONE', *, *, #981, .F. ) ;
#725 = AXIS2_PLACEMENT_3D ( 'NONE', #497, #662, #764 ) ;
#726 = CARTESIAN_POINT ( 'NONE',  ( -35.00000000000000000, -15.00000000000000178, 20.00000000000000355 ) ) ;
#727 = CARTESIAN_POINT ( 'NONE',  ( -70.00000000000000000, 5.000000000000000000, 597.0000000000000000 ) ) ;
#728 = EDGE_LOOP ( 'NONE', ( #786, #229, #604, #301 ) ) ;
#729 = FACE_BOUND ( 'NONE', #827, .T. ) ;
#730 = CARTESIAN_POINT ( 'NONE',  ( -70.00000000000000000, 5.000000000000000000, 597.0000000000000000 ) ) ;
#731 = ADVANCED_FACE ( 'NONE', ( #797 ), #288, .T. ) ;
#732 = ADVANCED_FACE ( 'NONE', ( #970 ), #293, .T. ) ;
#733 = ORIENTED_EDGE ( 'NONE', *, *, #478, .F. ) ;
#734 = AXIS2_PLACEMENT_3D ( 'NONE', #936, #526, #854 ) ;
#735 = DIRECTION ( 'NONE',  ( 0.000000000000000000, 0.000000000000000000, -1.000000000000000000 ) ) ;
#736 = AXIS2_PLACEMENT_3D ( 'NONE', #792, #870, #778 ) ;
#737 = ORIENTED_EDGE ( 'NONE', *, *, #635, .T. ) ;
#738 = CARTESIAN_POINT ( 'NONE',  ( -35.00000000000000000, -15.00000000000000533, 580.0000000000001137 ) ) ;
#739 = DIRECTION ( 'NONE',  ( 1.000000000000000000, -1.224646799147353207E-16, 0.000000000000000000 ) ) ;
#740 = ORIENTED_EDGE ( 'NONE', *, *, #675, .T. ) ;
#741 = CARTESIAN_POINT ( 'NONE',  ( -32.66000000000000369, -15.00000000000000533, 577.7500000000001137 ) ) ;
#742 = FACE_OUTER_BOUND ( 'NONE', #469, .T. ) ;
#743 = FACE_OUTER_BOUND ( 'NONE', #768, .T. ) ;
#744 = EDGE_CURVE ( 'NONE', #949, #161, #882, .T. ) ;
#745 = ORIENTED_EDGE ( 'NONE', *, *, #791, .F. ) ;
#746 = DIRECTION ( 'NONE',  ( 0.000000000000000000, 0.000000000000000000, -1.000000000000000000 ) ) ;
#747 = DIRECTION ( 'NONE',  ( -1.000000000000000000, 1.224646799147352221E-16, 0.000000000000000000 ) ) ;
#748 = FACE_OUTER_BOUND ( 'NONE', #280, .T. ) ;
#749 = ORIENTED_EDGE ( 'NONE', *, *, #420, .F. ) ;
#750 = EDGE_CURVE ( 'NONE', #180, #312, #79, .T. ) ;
#751 = VECTOR ( 'NONE', #1069, 1000.000000000000000 ) ;
#752 = LINE ( 'NONE', #12, #976 ) ;
#753 = ORIENTED_EDGE ( 'NONE', *, *, #118, .T. ) ;
#754 = DIRECTION ( 'NONE',  ( -0.000000000000000000, 0.000000000000000000, -1.000000000000000000 ) ) ;
#755 = ORIENTED_EDGE ( 'NONE', *, *, #704, .T. ) ;
#756 = EDGE_CURVE ( 'NONE', #161, #28, #134, .T. ) ;
#757 = DIRECTION ( 'NONE',  ( 0.000000000000000000, 0.000000000000000000, -1.000000000000000000 ) ) ;
#758 = DIRECTION ( 'NONE',  ( -0.000000000000000000, 0.000000000000000000, -1.000000000000000000 ) ) ;
#759 = VERTEX_POINT ( 'NONE', #403 ) ;
#760 = DIRECTION ( 'NONE',  ( -1.000000000000000000, 0.000000000000000000, 0.000000000000000000 ) ) ;
#761 = ORIENTED_EDGE ( 'NONE', *, *, #193, .F. ) ;
#762 = CARTESIAN_POINT ( 'NONE',  ( -30.00000000000000711, -5.000000000000003553, 0.000000000000000000 ) ) ;
#763 = DIRECTION ( 'NONE',  ( 0.000000000000000000, 0.000000000000000000, -1.000000000000000000 ) ) ;
#764 = DIRECTION ( 'NONE',  ( 0.000000000000000000, 0.000000000000000000, -1.000000000000000000 ) ) ;
#765 = EDGE_CURVE ( 'NONE', #908, #498, #467, .T. ) ;
#766 = ORIENTED_EDGE ( 'NONE', *, *, #779, .F. ) ;
#767 = CARTESIAN_POINT ( 'NONE',  ( -40.00000000000000711, 4.999999999999996447, 597.0000000000000000 ) ) ;
#768 = EDGE_LOOP ( 'NONE', ( #964, #501, #427, #724 ) ) ;
#769 = APPROVAL_ROLE ( '' ) ;
#770 = AXIS2_PLACEMENT_3D ( 'NONE', #726, #51, #387 ) ;
#771 = CARTESIAN_POINT ( 'NONE',  ( 0.000000000000000000, 0.000000000000000000, 0.000000000000000000 ) ) ;
#772 = AXIS2_PLACEMENT_3D ( 'NONE', #86, #979, #1064 ) ;
#773 = CARTESIAN_POINT ( 'NONE',  ( -32.66000000000000369, -15.00000000000000533, 582.2500000000000000 ) ) ;
#774 = FACE_OUTER_BOUND ( 'NONE', #1021, .T. ) ;
#775 = CARTESIAN_POINT ( 'NONE',  ( -35.00000000000000000, -5.000000000000003553, 597.0000000000000000 ) ) ;
#776 = PERSON_AND_ORGANIZATION ( #225, #60 ) ;
#777 = EDGE_LOOP ( 'NONE', ( #755, #443 ) ) ;
#778 = DIRECTION ( 'NONE',  ( 0.000000000000000000, 0.000000000000000000, -1.000000000000000000 ) ) ;
#779 = EDGE_CURVE ( 'NONE', #1016, #83, #708, .T. ) ;
#780 = CYLINDRICAL_SURFACE ( 'NONE', #1058, 2.249999999999988010 ) ;
#781 = DIRECTION ( 'NONE',  ( 0.000000000000000000, 0.000000000000000000, -1.000000000000000000 ) ) ;
#782 = CALENDAR_DATE ( 2025, 16, 7 ) ;
#783 = EDGE_CURVE ( 'NONE', #685, #312, #942, .T. ) ;
#784 = VECTOR ( 'NONE', #36, 1000.000000000000000 ) ;
#785 = CARTESIAN_POINT ( 'NONE',  ( -35.00000000000000000, -15.00000000000000355, 300.0000000000000568 ) ) ;
#786 = ORIENTED_EDGE ( 'NONE', *, *, #537, .T. ) ;
#787 = VECTOR ( 'NONE', #95, 1000.000000000000000 ) ;
#788 = AXIS2_PLACEMENT_3D ( 'NONE', #543, #122, #715 ) ;
#789 = CYLINDRICAL_SURFACE ( 'NONE', #853, 5.000000000000004441 ) ;
#790 = DIRECTION ( 'NONE',  ( -0.000000000000000000, -1.000000000000000000, -0.000000000000000000 ) ) ;
#791 = EDGE_CURVE ( 'NONE', #3, #671, #416, .T. ) ;
#792 = CARTESIAN_POINT ( 'NONE',  ( -30.00000000000000711, -20.00000000000000355, 592.0000000000000000 ) ) ;
#793 = DIRECTION ( 'NONE',  ( -1.000000000000000000, 0.000000000000000000, 0.000000000000000000 ) ) ;
#794 = DIRECTION ( 'NONE',  ( 1.000000000000000000, -0.000000000000000000, -0.000000000000000000 ) ) ;
#795 = CC_DESIGN_PERSON_AND_ORGANIZATION_ASSIGNMENT ( #776, #120, ( #905 ) ) ;
#796 = FACE_BOUND ( 'NONE', #559, .T. ) ;
#797 = FACE_OUTER_BOUND ( 'NONE', #104, .T. ) ;
#798 = CARTESIAN_POINT ( 'NONE',  ( -40.00000000000000711, -20.00000000000000355, 5.000000000000000000 ) ) ;
#799 = CIRCLE ( 'NONE', #431, 2.249999999999991562 ) ;
#800 = ORIENTED_EDGE ( 'NONE', *, *, #279, .F. ) ;
#801 = DIRECTION ( 'NONE',  ( -1.224646799147353207E-16, -1.000000000000000000, 0.000000000000000000 ) ) ;
#802 = EDGE_CURVE ( 'NONE', #180, #553, #205, .T. ) ;
#803 = ORIENTED_EDGE ( 'NONE', *, *, #571, .F. ) ;
#804 =( GEOMETRIC_REPRESENTATION_CONTEXT ( 3 ) GLOBAL_UNCERTAINTY_ASSIGNED_CONTEXT ( ( #656 ) ) GLOBAL_UNIT_ASSIGNED_CONTEXT ( ( #45, #862, #26 ) ) REPRESENTATION_CONTEXT ( 'NONE', 'WORKASPACE' ) );
#805 = CARTESIAN_POINT ( 'NONE',  ( -40.00000000000000711, -20.00000000000000355, 597.0000000000000000 ) ) ;
#806 = VERTEX_POINT ( 'NONE', #508 ) ;
#807 = CARTESIAN_POINT ( 'NONE',  ( -32.66000000000000369, -15.00000000000000711, 72.25000000000001421 ) ) ;
#808 = EDGE_LOOP ( 'NONE', ( #572, #350, #63, #580 ) ) ;
#809 = EDGE_CURVE ( 'NONE', #438, #949, #88, .T. ) ;
#810 = EDGE_LOOP ( 'NONE', ( #398, #586 ) ) ;
#811 = CARTESIAN_POINT ( 'NONE',  ( -35.00000000000000000, -4.286263797015736496E-15, 597.0000000000000000 ) ) ;
#812 = ORIENTED_EDGE ( 'NONE', *, *, #484, .T. ) ;
#813 = AXIS2_PLACEMENT_3D ( 'NONE', #98, #757, #15 ) ;
#814 = DIRECTION ( 'NONE',  ( -1.000000000000000000, 0.000000000000000000, 0.000000000000000000 ) ) ;
#815 = AXIS2_PLACEMENT_3D ( 'NONE', #645, #209, #978 ) ;
#816 = VERTEX_POINT ( 'NONE', #183 ) ;
#817 = VECTOR ( 'NONE', #928, 1000.000000000000000 ) ;
#818 = AXIS2_PLACEMENT_3D ( 'NONE', #133, #969, #735 ) ;
#819 = EDGE_LOOP ( 'NONE', ( #159, #35, #830, #101 ) ) ;
#820 = FACE_OUTER_BOUND ( 'NONE', #819, .T. ) ;
#821 = CARTESIAN_POINT ( 'NONE',  ( -65.00000000000000000, 4.999999999999999112, 0.000000000000000000 ) ) ;
#822 = EDGE_CURVE ( 'NONE', #24, #498, #261, .T. ) ;
#823 = CARTESIAN_POINT ( 'NONE',  ( -35.00000000000000000, -5.000000000000003553, 597.0000000000000000 ) ) ;
#824 = LINE ( 'NONE', #681, #325 ) ;
#825 = EDGE_CURVE ( 'NONE', #1016, #286, #334, .T. ) ;
#826 = DIRECTION ( 'NONE',  ( 0.000000000000000000, 0.000000000000000000, -1.000000000000000000 ) ) ;
#827 = EDGE_LOOP ( 'NONE', ( #939, #510 ) ) ;
#828 = CARTESIAN_POINT ( 'NONE',  ( -35.00000000000000000, -15.00000000000000178, 20.00000000000000355 ) ) ;
#829 = DIRECTION ( 'NONE',  ( 1.000000000000000000, 0.000000000000000000, 0.000000000000000000 ) ) ;
#830 = ORIENTED_EDGE ( 'NONE', *, *, #704, .F. ) ;
#831 = DIRECTION ( 'NONE',  ( 1.000000000000000000, 0.000000000000000000, 0.000000000000000000 ) ) ;
#832 = CIRCLE ( 'NONE', #940, 2.249999999999974243 ) ;
#833 = EDGE_LOOP ( 'NONE', ( #631, #404, #1062, #178 ) ) ;
#834 = EDGE_CURVE ( 'NONE', #299, #58, #13, .T. ) ;
#835 = AXIS2_PLACEMENT_3D ( 'NONE', #56, #966, #199 ) ;
#836 = AXIS2_PLACEMENT_3D ( 'NONE', #482, #380, #649 ) ;
#837 = ORIENTED_EDGE ( 'NONE', *, *, #500, .T. ) ;
#838 = CARTESIAN_POINT ( 'NONE',  ( -32.66000000000000369, -15.00000000000000711, 70.00000000000000000 ) ) ;
#839 = CARTESIAN_POINT ( 'NONE',  ( -40.00000000000000711, -5.000000000000003553, 0.000000000000000000 ) ) ;
#840 = ORIENTED_EDGE ( 'NONE', *, *, #37, .F. ) ;
#841 = DIRECTION ( 'NONE',  ( 0.000000000000000000, 0.000000000000000000, -1.000000000000000000 ) ) ;
#842 = ADVANCED_FACE ( 'NONE', ( #932 ), #845, .F. ) ;
#843 = DIRECTION ( 'NONE',  ( 1.000000000000000000, 0.000000000000000000, 0.000000000000000000 ) ) ;
#844 = VERTEX_POINT ( 'NONE', #1002 ) ;
#845 = CYLINDRICAL_SURFACE ( 'NONE', #488, 2.249999999999974243 ) ;
#846 = FACE_OUTER_BOUND ( 'NONE', #857, .T. ) ;
#847 = PRODUCT ( '202500145_28_productholderpin04_plate02_sp_V1.1', '202500145_28_productholderpin04_plate02_sp_V1.1', '', ( #541 ) ) ;
#848 = PERSON_AND_ORGANIZATION ( #225, #60 ) ;
#849 = CARTESIAN_POINT ( 'NONE',  ( -35.00000000000000000, -15.00000000000000355, 300.0000000000000568 ) ) ;
#850 = ORIENTED_EDGE ( 'NONE', *, *, #1037, .T. ) ;
#851 = DIRECTION ( 'NONE',  ( 0.000000000000000000, -0.000000000000000000, -1.000000000000000000 ) ) ;
#852 = AXIS2_PLACEMENT_3D ( 'NONE', #930, #524, #356 ) ;
#853 = AXIS2_PLACEMENT_3D ( 'NONE', #354, #198, #1041 ) ;
#854 = DIRECTION ( 'NONE',  ( -1.000000000000000000, 1.224646799147353207E-16, 0.000000000000000000 ) ) ;
#855 = APPROVAL_STATUS ( 'not_yet_approved' ) ;
#856 = CIRCLE ( 'NONE', #772, 2.249999999999974243 ) ;
#857 = EDGE_LOOP ( 'NONE', ( #434, #359, #446, #991 ) ) ;
#858 = ADVANCED_FACE ( 'NONE', ( #248 ), #326, .F. ) ;
#859 = DIRECTION ( 'NONE',  ( -1.000000000000000000, 0.000000000000000000, 0.000000000000000000 ) ) ;
#860 = CARTESIAN_POINT ( 'NONE',  ( -35.00000000000000000, -15.00000000000000355, 295.4100000000000819 ) ) ;
#861 = CARTESIAN_POINT ( 'NONE',  ( -30.00000000000000711, -15.00000000000000711, 70.00000000000000000 ) ) ;
#862 =( NAMED_UNIT ( * ) PLANE_ANGLE_UNIT ( ) SI_UNIT ( $, .RADIAN. ) );
#863 = ORIENTED_EDGE ( 'NONE', *, *, #1059, .F. ) ;
#864 = EDGE_CURVE ( 'NONE', #184, #536, #439, .T. ) ;
#865 = CARTESIAN_POINT ( 'NONE',  ( -30.00000000000000711, -5.000000000000003553, 597.0000000000000000 ) ) ;
#866 = DIRECTION ( 'NONE',  ( 0.000000000000000000, 0.000000000000000000, -1.000000000000000000 ) ) ;
#867 = FACE_OUTER_BOUND ( 'NONE', #1020, .T. ) ;
#868 = PERSON_AND_ORGANIZATION ( #225, #60 ) ;
#869 = ORIENTED_EDGE ( 'NONE', *, *, #214, .F. ) ;
#870 = DIRECTION ( 'NONE',  ( -1.000000000000000000, 0.000000000000000000, 0.000000000000000000 ) ) ;
#871 = ORIENTED_EDGE ( 'NONE', *, *, #11, .F. ) ;
#872 = DIRECTION ( 'NONE',  ( 1.000000000000000000, -0.000000000000000000, -0.000000000000000000 ) ) ;
#873 = ADVANCED_FACE ( 'NONE', ( #996 ), #92, .F. ) ;
#874 = VECTOR ( 'NONE', #655, 1000.000000000000000 ) ;
#875 = VECTOR ( 'NONE', #451, 1000.000000000000000 ) ;
#876 = AXIS2_PLACEMENT_3D ( 'NONE', #881, #558, #885 ) ;
#877 = ORIENTED_EDGE ( 'NONE', *, *, #395, .F. ) ;
#878 = CARTESIAN_POINT ( 'NONE',  ( -35.00000000000000000, -15.00000000000000711, 65.41000000000001080 ) ) ;
#879 = APPROVAL ( #855, 'UNSPECIFIED' ) ;
#880 = CARTESIAN_POINT ( 'NONE',  ( -70.00000000000000000, 0.000000000000000000, 597.0000000000000000 ) ) ;
#881 = CARTESIAN_POINT ( 'NONE',  ( -35.00000000000000000, -15.00000000000000178, 20.00000000000000355 ) ) ;
#882 = LINE ( 'NONE', #823, #106 ) ;
#883 = DIRECTION ( 'NONE',  ( 0.000000000000000000, -0.000000000000000000, -1.000000000000000000 ) ) ;
#884 = ORIENTED_EDGE ( 'NONE', *, *, #791, .T. ) ;
#885 = DIRECTION ( 'NONE',  ( 0.000000000000000000, 0.000000000000000000, -1.000000000000000000 ) ) ;
#886 = ORIENTED_EDGE ( 'NONE', *, *, #279, .T. ) ;
#887 = LINE ( 'NONE', #303, #1043 ) ;
#888 = CARTESIAN_POINT ( 'NONE',  ( -35.00000000000000000, -25.00000000000000355, 597.0000000000000000 ) ) ;
#889 = CIRCLE ( 'NONE', #367, 10.00000000000000178 ) ;
#890 = EDGE_CURVE ( 'NONE', #99, #1051, #587, .T. ) ;
#891 = FACE_BOUND ( 'NONE', #591, .T. ) ;
#892 = CIRCLE ( 'NONE', #1061, 2.249999999999988010 ) ;
#893 = EDGE_LOOP ( 'NONE', ( #422, #884, #800, #863 ) ) ;
#894 = LOCAL_TIME ( 14, 1, 59.00000000000000000, #33 ) ;
#895 = DIRECTION ( 'NONE',  ( -1.224646799147353207E-16, -1.000000000000000000, 0.000000000000000000 ) ) ;
#896 = ORIENTED_EDGE ( 'NONE', *, *, #355, .T. ) ;
#897 = DIRECTION ( 'NONE',  ( -1.224646799147353207E-16, -1.000000000000000000, 0.000000000000000000 ) ) ;
#898 = VERTEX_POINT ( 'NONE', #17 ) ;
#899 = CARTESIAN_POINT ( 'NONE',  ( -30.00000000000000711, -15.00000000000000711, 67.75000000000001421 ) ) ;
#900 = EDGE_LOOP ( 'NONE', ( #548, #749 ) ) ;
#901 = ADVANCED_FACE ( 'NONE', ( #100 ), #341, .T. ) ;
#902 = DIRECTION ( 'NONE',  ( 1.000000000000000000, -0.000000000000000000, -0.000000000000000000 ) ) ;
#903 = AXIS2_PLACEMENT_3D ( 'NONE', #598, #313, #983 ) ;
#904 = AXIS2_PLACEMENT_3D ( 'NONE', #319, #989, #238 ) ;
#905 = PRODUCT_DEFINITION_FORMATION_WITH_SPECIFIED_SOURCE ( 'ANY', '', #847, .NOT_KNOWN. ) ;
#906 = ADVANCED_FACE ( 'NONE', ( #748 ), #160, .T. ) ;
#907 = CARTESIAN_POINT ( 'NONE',  ( -35.00000000000000000, -25.00000000000000355, 597.0000000000000000 ) ) ;
#908 = VERTEX_POINT ( 'NONE', #693 ) ;
#909 = CARTESIAN_POINT ( 'NONE',  ( -40.00000000000000711, -3.673940397442059967E-15, 0.000000000000000000 ) ) ;
#910 = EDGE_LOOP ( 'NONE', ( #53, #564, #269, #661, #287, #933 ) ) ;
#911 = CARTESIAN_POINT ( 'NONE',  ( -35.00000000000000000, -15.00000000000000355, 304.5900000000000318 ) ) ;
#912 = ORIENTED_EDGE ( 'NONE', *, *, #435, .T. ) ;
#913 = EDGE_CURVE ( 'NONE', #24, #438, #1015, .T. ) ;
#914 = CARTESIAN_POINT ( 'NONE',  ( -40.00000000000000711, 4.999999999999996447, 597.0000000000000000 ) ) ;
#915 = ORIENTED_EDGE ( 'NONE', *, *, #62, .F. ) ;
#916 = DIRECTION ( 'NONE',  ( 1.000000000000000000, -0.000000000000000000, -0.000000000000000000 ) ) ;
#917 = DIRECTION ( 'NONE',  ( 1.000000000000000000, -0.000000000000000000, -0.000000000000000000 ) ) ;
#918 = EDGE_LOOP ( 'NONE', ( #328, #494, #931, #837 ) ) ;
#919 = CARTESIAN_POINT ( 'NONE',  ( -35.00000000000000000, -15.00000000000000178, 17.75000000000001066 ) ) ;
#920 = AXIS2_PLACEMENT_3D ( 'NONE', #150, #639, #476 ) ;
#921 = ADVANCED_FACE ( 'NONE', ( #1 ), #296, .F. ) ;
#922 = ORIENTED_EDGE ( 'NONE', *, *, #462, .T. ) ;
#923 = CALENDAR_DATE ( 2025, 16, 7 ) ;
#924 = LINE ( 'NONE', #534, #309 ) ;
#925 = CONICAL_SURFACE ( 'NONE', #460, 4.589999999999997193, 0.7853981633974487231 ) ;
#926 = LINE ( 'NONE', #260, #654 ) ;
#927 = ORIENTED_EDGE ( 'NONE', *, *, #132, .T. ) ;
#928 = DIRECTION ( 'NONE',  ( 0.000000000000000000, -0.000000000000000000, -1.000000000000000000 ) ) ;
#929 = ORIENTED_EDGE ( 'NONE', *, *, #395, .T. ) ;
#930 = CARTESIAN_POINT ( 'NONE',  ( -30.00000000000000711, -15.00000000000000355, 300.0000000000000568 ) ) ;
#931 = ORIENTED_EDGE ( 'NONE', *, *, #809, .F. ) ;
#932 = FACE_OUTER_BOUND ( 'NONE', #138, .T. ) ;
#933 = ORIENTED_EDGE ( 'NONE', *, *, #950, .F. ) ;
#934 = DIRECTION ( 'NONE',  ( 0.000000000000000000, 0.000000000000000000, -1.000000000000000000 ) ) ;
#935 = EDGE_CURVE ( 'NONE', #1001, #523, #493, .T. ) ;
#936 = CARTESIAN_POINT ( 'NONE',  ( -70.00000000000000000, 5.000000000000000000, 597.0000000000000000 ) ) ;
#937 = PERSON_AND_ORGANIZATION_ROLE ( 'creator' ) ;
#938 = ORIENTED_EDGE ( 'NONE', *, *, #197, .T. ) ;
#939 = ORIENTED_EDGE ( 'NONE', *, *, #783, .T. ) ;
#940 = AXIS2_PLACEMENT_3D ( 'NONE', #637, #962, #135 ) ;
#941 = CARTESIAN_POINT ( 'NONE',  ( -35.00000000000000000, -15.00000000000000178, 24.59000000000000341 ) ) ;
#942 = CIRCLE ( 'NONE', #43, 4.589999999999997193 ) ;
#943 = DATE_AND_TIME ( #284, #27 ) ;
#944 = EDGE_CURVE ( 'NONE', #651, #70, #856, .T. ) ;
#945 = ORIENTED_EDGE ( 'NONE', *, *, #802, .T. ) ;
#946 = APPROVAL_PERSON_ORGANIZATION ( #868, #879, #111 ) ;
#947 = FACE_BOUND ( 'NONE', #1027, .T. ) ;
#948 = CARTESIAN_POINT ( 'NONE',  ( -30.00000000000000711, -15.00000000000000533, 580.0000000000001137 ) ) ;
#949 = VERTEX_POINT ( 'NONE', #984 ) ;
#950 = EDGE_CURVE ( 'NONE', #759, #569, #1045, .T. ) ;
#951 = DIRECTION ( 'NONE',  ( -1.000000000000000000, 0.000000000000000000, 0.000000000000000000 ) ) ;
#952 = DIRECTION ( 'NONE',  ( -0.7071067811865472397, -8.659560562354937789E-17, 0.7071067811865479058 ) ) ;
#953 = CARTESIAN_POINT ( 'NONE',  ( -35.00000000000000000, -15.00000000000000355, 304.5900000000000318 ) ) ;
#954 = ADVANCED_FACE ( 'NONE', ( #77 ), #5, .F. ) ;
#955 = LINE ( 'NONE', #805, #529 ) ;
#956 = VECTOR ( 'NONE', #61, 1000.000000000000000 ) ;
#957 = CIRCLE ( 'NONE', #503, 2.249999999999974243 ) ;
#958 = VECTOR ( 'NONE', #331, 999.9999999999998863 ) ;
#959 = ORIENTED_EDGE ( 'NONE', *, *, #756, .F. ) ;
#960 = SECURITY_CLASSIFICATION ( '', '', #1025 ) ;
#961 = DIRECTION ( 'NONE',  ( -1.000000000000000000, -0.000000000000000000, -0.000000000000000000 ) ) ;
#962 = DIRECTION ( 'NONE',  ( 1.000000000000000000, -0.000000000000000000, -0.000000000000000000 ) ) ;
#963 = DESIGN_CONTEXT ( 'detailed design', #480, 'design' ) ;
#964 = ORIENTED_EDGE ( 'NONE', *, *, #82, .F. ) ;
#965 = CARTESIAN_POINT ( 'NONE',  ( -35.00000000000000000, -15.00000000000000533, 580.0000000000001137 ) ) ;
#966 = DIRECTION ( 'NONE',  ( 1.000000000000000000, -0.000000000000000000, -0.000000000000000000 ) ) ;
#967 = EDGE_CURVE ( 'NONE', #58, #184, #824, .T. ) ;
#968 = ORIENTED_EDGE ( 'NONE', *, *, #864, .F. ) ;
#969 = DIRECTION ( 'NONE',  ( -1.000000000000000000, 0.000000000000000000, 0.000000000000000000 ) ) ;
#970 = FACE_OUTER_BOUND ( 'NONE', #910, .T. ) ;
#971 = LINE ( 'NONE', #888, #322 ) ;
#972 = ORIENTED_EDGE ( 'NONE', *, *, #683, .F. ) ;
#973 = EDGE_CURVE ( 'NONE', #83, #3, #579, .T. ) ;
#974 = LINE ( 'NONE', #144, #349 ) ;
#975 = VECTOR ( 'NONE', #402, 999.9999999999998863 ) ;
#976 = VECTOR ( 'NONE', #332, 1000.000000000000000 ) ;
#977 = LOCAL_TIME ( 14, 1, 59.00000000000000000, #115 ) ;
#978 = DIRECTION ( 'NONE',  ( -1.000000000000000000, 1.224646799147352221E-16, 0.000000000000000000 ) ) ;
#979 = DIRECTION ( 'NONE',  ( 1.000000000000000000, -0.000000000000000000, -0.000000000000000000 ) ) ;
#980 = CARTESIAN_POINT ( 'NONE',  ( -35.00000000000000000, -15.00000000000000178, 22.24999999999999645 ) ) ;
#981 = EDGE_CURVE ( 'NONE', #415, #1051, #10, .T. ) ;
#982 = ORIENTED_EDGE ( 'NONE', *, *, #193, .T. ) ;
#983 = DIRECTION ( 'NONE',  ( -1.000000000000000000, 1.734723475976805615E-16, 0.000000000000000000 ) ) ;
#984 = CARTESIAN_POINT ( 'NONE',  ( -35.00000000000000000, -5.000000000000003553, 597.0000000000000000 ) ) ;
#985 = DIRECTION ( 'NONE',  ( 1.224646799147353207E-16, 1.000000000000000000, -0.000000000000000000 ) ) ;
#986 = VERTEX_POINT ( 'NONE', #911 ) ;
#987 = EDGE_CURVE ( 'NONE', #816, #184, #676, .T. ) ;
#988 = DIRECTION ( 'NONE',  ( 1.000000000000000000, -0.000000000000000000, -0.000000000000000000 ) ) ;
#989 = DIRECTION ( 'NONE',  ( -1.000000000000000000, 0.000000000000000000, 0.000000000000000000 ) ) ;
#990 = VECTOR ( 'NONE', #375, 1000.000000000000000 ) ;
#991 = ORIENTED_EDGE ( 'NONE', *, *, #118, .F. ) ;
#992 = APPROVAL_STATUS ( 'not_yet_approved' ) ;
#993 = ADVANCED_FACE ( 'NONE', ( #599 ), #589, .T. ) ;
#994 = DIRECTION ( 'NONE',  ( 0.000000000000000000, 0.000000000000000000, -1.000000000000000000 ) ) ;
#995 = ORIENTED_EDGE ( 'NONE', *, *, #590, .F. ) ;
#996 = FACE_OUTER_BOUND ( 'NONE', #117, .T. ) ;
#997 = ORIENTED_EDGE ( 'NONE', *, *, #470, .T. ) ;
#998 = CARTESIAN_POINT ( 'NONE',  ( -32.66000000000000369, -15.00000000000000178, 20.00000000000000355 ) ) ;
#999 = FACE_OUTER_BOUND ( 'NONE', #893, .T. ) ;
#1000 = EDGE_CURVE ( 'NONE', #844, #1001, #142, .T. ) ;
#1001 = VERTEX_POINT ( 'NONE', #20 ) ;
#1002 = CARTESIAN_POINT ( 'NONE',  ( -35.00000000000000000, -20.00000000000000355, 597.0000000000000000 ) ) ;
#1003 = VERTEX_POINT ( 'NONE', #821 ) ;
#1004 = DIRECTION ( 'NONE',  ( 1.000000000000000000, -0.000000000000000000, -0.000000000000000000 ) ) ;
#1005 = DIRECTION ( 'NONE',  ( 1.000000000000000000, 0.000000000000000000, 0.000000000000000000 ) ) ;
#1006 = ORIENTED_EDGE ( 'NONE', *, *, #744, .T. ) ;
#1007 = CARTESIAN_POINT ( 'NONE',  ( -32.66000000000000369, -15.00000000000000711, 70.00000000000000000 ) ) ;
#1008 = AXIS2_PLACEMENT_3D ( 'NONE', #965, #814, #210 ) ;
#1009 = CONICAL_SURFACE ( 'NONE', #233, 4.589999999999982983, 0.7853981633974487231 ) ;
#1010 = ORIENTED_EDGE ( 'NONE', *, *, #355, .F. ) ;
#1011 = CARTESIAN_POINT ( 'NONE',  ( -35.00000000000000000, -15.00000000000000711, 70.00000000000000000 ) ) ;
#1012 = DIRECTION ( 'NONE',  ( 0.000000000000000000, 0.000000000000000000, -1.000000000000000000 ) ) ;
#1013 = LINE ( 'NONE', #338, #46 ) ;
#1014 = ORIENTED_EDGE ( 'NONE', *, *, #222, .F. ) ;
#1015 = LINE ( 'NONE', #914, #551 ) ;
#1016 = VERTEX_POINT ( 'NONE', #669 ) ;
#1017 = LINE ( 'NONE', #762, #784 ) ;
#1018 = PLANE ( 'NONE',  #734 ) ;
#1019 = DIRECTION ( 'NONE',  ( 1.000000000000000000, 0.000000000000000000, 0.000000000000000000 ) ) ;
#1020 = EDGE_LOOP ( 'NONE', ( #871, #753, #401, #475 ) ) ;
#1021 = EDGE_LOOP ( 'NONE', ( #40, #968, #66, #915, #112, #192 ) ) ;
#1022 = ADVANCED_FACE ( 'NONE', ( #999 ), #1032, .F. ) ;
#1023 = DIRECTION ( 'NONE',  ( 0.000000000000000000, 0.000000000000000000, -1.000000000000000000 ) ) ;
#1024 = CYLINDRICAL_SURFACE ( 'NONE', #218, 5.000000000000004441 ) ;
#1025 = SECURITY_CLASSIFICATION_LEVEL ( 'unclassified' ) ;
#1026 = EDGE_LOOP ( 'NONE', ( #737, #316, #385, #695 ) ) ;
#1027 = EDGE_LOOP ( 'NONE', ( #407, #504 ) ) ;
#1028 = AXIS2_PLACEMENT_3D ( 'NONE', #595, #19, #688 ) ;
#1029 = FACE_BOUND ( 'NONE', #810, .T. ) ;
#1030 = AXIS2_PLACEMENT_3D ( 'NONE', #722, #230, #314 ) ;
#1031 = CARTESIAN_POINT ( 'NONE',  ( -35.00000000000000000, -15.00000000000000355, 300.0000000000000568 ) ) ;
#1032 = CONICAL_SURFACE ( 'NONE', #567, 4.589999999999982983, 0.7853981633974487231 ) ;
#1033 = EDGE_CURVE ( 'NONE', #157, #262, #505, .T. ) ;
#1034 = VERTEX_POINT ( 'NONE', #413 ) ;
#1035 = FACE_OUTER_BOUND ( 'NONE', #165, .T. ) ;
#1036 = ORIENTED_EDGE ( 'NONE', *, *, #935, .T. ) ;
#1037 = EDGE_CURVE ( 'NONE', #68, #180, #752, .T. ) ;
#1038 = CARTESIAN_POINT ( 'NONE',  ( -30.00000000000000711, -15.00000000000000711, 72.25000000000000000 ) ) ;
#1039 = CARTESIAN_POINT ( 'NONE',  ( -40.00000000000000711, -5.000000000000003553, 597.0000000000000000 ) ) ;
#1040 = DIRECTION ( 'NONE',  ( 0.000000000000000000, -0.000000000000000000, -1.000000000000000000 ) ) ;
#1041 = DIRECTION ( 'NONE',  ( 0.000000000000000000, 0.000000000000000000, 1.000000000000000000 ) ) ;
#1042 = PLANE ( 'NONE',  #348 ) ;
#1043 = VECTOR ( 'NONE', #378, 1000.000000000000000 ) ;
#1044 = ORIENTED_EDGE ( 'NONE', *, *, #132, .F. ) ;
#1045 = CIRCLE ( 'NONE', #531, 5.000000000000004441 ) ;
#1046 = LINE ( 'NONE', #811, #89 ) ;
#1047 = DIRECTION ( 'NONE',  ( 1.224646799147353207E-16, 1.000000000000000000, 0.000000000000000000 ) ) ;
#1048 = EDGE_CURVE ( 'NONE', #908, #299, #221, .T. ) ;
#1049 = DIRECTION ( 'NONE',  ( 0.000000000000000000, 0.000000000000000000, 1.000000000000000000 ) ) ;
#1050 = CYLINDRICAL_SURFACE ( 'NONE', #1008, 2.249999999999974243 ) ;
#1051 = VERTEX_POINT ( 'NONE', #16 ) ;
#1052 = DIRECTION ( 'NONE',  ( 1.000000000000000000, -0.000000000000000000, -0.000000000000000000 ) ) ;
#1053 = EDGE_CURVE ( 'NONE', #70, #898, #1013, .T. ) ;
#1054 = CARTESIAN_POINT ( 'NONE',  ( -65.00000000000000000, 4.999999999999999112, 592.0000000000000000 ) ) ;
#1055 = DIRECTION ( 'NONE',  ( -1.000000000000000000, 0.000000000000000000, 0.000000000000000000 ) ) ;
#1056 = VECTOR ( 'NONE', #182, 1000.000000000000000 ) ;
#1057 = PRODUCT_RELATED_PRODUCT_CATEGORY ( 'detail', '', ( #847 ) ) ;
#1058 = AXIS2_PLACEMENT_3D ( 'NONE', #1011, #175, #1023 ) ;
#1059 = EDGE_CURVE ( 'NONE', #286, #374, #926, .T. ) ;
#1060 = CARTESIAN_POINT ( 'NONE',  ( -65.00000000000000000, 4.999999999999999112, 597.0000000000000000 ) ) ;
#1061 = AXIS2_PLACEMENT_3D ( 'NONE', #861, #25, #763 ) ;
#1062 = ORIENTED_EDGE ( 'NONE', *, *, #518, .F. ) ;
#1063 = DIRECTION ( 'NONE',  ( 0.000000000000000000, 0.000000000000000000, -1.000000000000000000 ) ) ;
#1064 = DIRECTION ( 'NONE',  ( 0.000000000000000000, 0.000000000000000000, -1.000000000000000000 ) ) ;
#1065 = CC_DESIGN_PERSON_AND_ORGANIZATION_ASSIGNMENT ( #268, #937, ( #181 ) ) ;
#1066 = DIRECTION ( 'NONE',  ( 0.000000000000000000, 0.000000000000000000, -1.000000000000000000 ) ) ;
#1067 = ORIENTED_EDGE ( 'NONE', *, *, #255, .F. ) ;
#1068 = CARTESIAN_POINT ( 'NONE',  ( -30.00000000000000711, -15.00000000000000711, 70.00000000000000000 ) ) ;
#1069 = DIRECTION ( 'NONE',  ( 1.224646799147353207E-16, 1.000000000000000000, -0.000000000000000000 ) ) ;
ENDSEC;
END-ISO-10303-21;
