ISO-10303-21;
HEADER;
FILE_DESCRIPTION (( 'STEP AP214' ),
    '1' );
FILE_NAME ('03_033_Handle holder.STEP',
    '2020-09-16T11:25:44',
    ( '' ),
    ( '' ),
    'SwSTEP 2.0',
    'SolidWorks 2018',
    '' );
FILE_SCHEMA (( 'AUTOMOTIVE_DESIGN' ));
ENDSEC;

DATA;
#1 = LINE ( 'NONE', #391, #472 ) ;
#2 = VERTEX_POINT ( 'NONE', #399 ) ;
#3 = AXIS2_PLACEMENT_3D ( 'NONE', #868, #340, #763 ) ;
#4 = CARTESIAN_POINT ( 'NONE',  ( 32.00000000000000000, 36.00000000000000000, -1.700000000000004396 ) ) ;
#5 = UNCERTAINTY_MEASURE_WITH_UNIT (LENGTH_MEASURE( 1.000000000000000082E-05 ), #349, 'distance_accuracy_value', 'NONE');
#6 = EDGE_LOOP ( 'NONE', ( #120, #829, #207, #86 ) ) ;
#7 = DIRECTION ( 'NONE',  ( 0.0000000000000000000, -0.0000000000000000000, 1.000000000000000000 ) ) ;
#8 = DIRECTION ( 'NONE',  ( -0.0000000000000000000, 1.000000000000000000, -0.0000000000000000000 ) ) ;
#9 = ORIENTED_EDGE ( 'NONE', *, *, #217, .T. ) ;
#10 = CARTESIAN_POINT ( 'NONE',  ( 8.499999999999969802, 0.0000000000000000000, 39.08644266238615472 ) ) ;
#11 = VECTOR ( 'NONE', #89, 1000.000000000000000 ) ;
#12 = VERTEX_POINT ( 'NONE', #490 ) ;
#13 =( NAMED_UNIT ( * ) SI_UNIT ( $, .STERADIAN. ) SOLID_ANGLE_UNIT ( ) );
#14 = CARTESIAN_POINT ( 'NONE',  ( -38.50000000000000000, 28.39999999999999858, 1.700000000000004396 ) ) ;
#15 = EDGE_LOOP ( 'NONE', ( #313, #672, #895, #452 ) ) ;
#16 = FACE_OUTER_BOUND ( 'NONE', #919, .T. ) ;
#17 = DIRECTION ( 'NONE',  ( -0.0000000000000000000, 1.000000000000000000, -0.0000000000000000000 ) ) ;
#18 = ADVANCED_FACE ( 'NONE', ( #31 ), #315, .F. ) ;
#19 = DIRECTION ( 'NONE',  ( 4.336808689942017736E-17, -0.0000000000000000000, -1.000000000000000000 ) ) ;
#20 =( GEOMETRIC_REPRESENTATION_CONTEXT ( 3 ) GLOBAL_UNCERTAINTY_ASSIGNED_CONTEXT ( ( #759 ) ) GLOBAL_UNIT_ASSIGNED_CONTEXT ( ( #333, #69, #660 ) ) REPRESENTATION_CONTEXT ( 'NONE', 'WORKASPACE' ) );
#21 = AXIS2_PLACEMENT_3D ( 'NONE', #199, #205, #553 ) ;
#22 = EDGE_LOOP ( 'NONE', ( #369, #608, #273, #935 ) ) ;
#23 = FACE_BOUND ( 'NONE', #938, .T. ) ;
#24 = DIRECTION ( 'NONE',  ( -3.817613283399663938E-16, -1.000000000000000000, 0.0000000000000000000 ) ) ;
#25 = EDGE_LOOP ( 'NONE', ( #424, #872, #588, #50, #595 ) ) ;
#26 = FACE_OUTER_BOUND ( 'NONE', #715, .T. ) ;
#27 = DIRECTION ( 'NONE',  ( 0.0000000000000000000, 0.0000000000000000000, 1.000000000000000000 ) ) ;
#28 = EDGE_CURVE ( 'NONE', #772, #198, #971, .T. ) ;
#29 = ADVANCED_FACE ( 'NONE', ( #183 ), #1100, .T. ) ;
#30 = DIRECTION ( 'NONE',  ( 0.0000000000000000000, 0.0000000000000000000, 1.000000000000000000 ) ) ;
#31 = FACE_OUTER_BOUND ( 'NONE', #94, .T. ) ;
#32 = VECTOR ( 'NONE', #513, 1000.000000000000000 ) ;
#33 = AXIS2_PLACEMENT_3D ( 'NONE', #41, #881, #123 ) ;
#34 = ORIENTED_EDGE ( 'NONE', *, *, #601, .F. ) ;
#35 = ADVANCED_FACE ( 'NONE', ( #943 ), #744, .F. ) ;
#36 =( BOUNDED_CURVE ( )  B_SPLINE_CURVE ( 3, ( #380, #304, #464, #992 ),
 .UNSPECIFIED., .F., .F. ) 
 B_SPLINE_CURVE_WITH_KNOTS ( ( 4, 4 ),
 ( 5.134833099250593946, 5.142520146008914494 ),
 .UNSPECIFIED. ) 
 CURVE ( )  GEOMETRIC_REPRESENTATION_ITEM ( )  RATIONAL_B_SPLINE_CURVE ( ( 1.000000000000000000, 0.9999950757820732505, 0.9999950757820732505, 1.000000000000000000 ) ) 
 REPRESENTATION_ITEM ( '' )  );
#37 = DIRECTION ( 'NONE',  ( 0.0000000000000000000, 0.0000000000000000000, 1.000000000000000000 ) ) ;
#38 = ORIENTED_EDGE ( 'NONE', *, *, #441, .T. ) ;
#39 = DIRECTION ( 'NONE',  ( -4.438171800285562190E-16, 0.0000000000000000000, 1.000000000000000000 ) ) ;
#40 = DIRECTION ( 'NONE',  ( -0.0000000000000000000, 1.000000000000000000, -0.0000000000000000000 ) ) ;
#41 = CARTESIAN_POINT ( 'NONE',  ( -28.69999999999999929, 28.39999999999999858, -1.700000000000004396 ) ) ;
#42 = AXIS2_PLACEMENT_3D ( 'NONE', #504, #404, #76 ) ;
#43 = EDGE_CURVE ( 'NONE', #623, #787, #722, .T. ) ;
#44 = LINE ( 'NONE', #10, #435 ) ;
#45 = ORIENTED_EDGE ( 'NONE', *, *, #847, .F. ) ;
#46 = CARTESIAN_POINT ( 'NONE',  ( 32.00000000000000000, 36.00000000000000000, 1.700000000000004396 ) ) ;
#47 = ORIENTED_EDGE ( 'NONE', *, *, #850, .T. ) ;
#48 = FACE_OUTER_BOUND ( 'NONE', #22, .T. ) ;
#49 = CARTESIAN_POINT ( 'NONE',  ( 8.500000000000000000, 15.99999999999999289, 5.204748896376250699E-16 ) ) ;
#50 = ORIENTED_EDGE ( 'NONE', *, *, #847, .T. ) ;
#51 = VERTEX_POINT ( 'NONE', #657 ) ;
#52 = EDGE_CURVE ( 'NONE', #719, #1064, #524, .T. ) ;
#53 = DIRECTION ( 'NONE',  ( 0.0000000000000000000, 1.000000000000000000, 0.0000000000000000000 ) ) ;
#54 = DIRECTION ( 'NONE',  ( -0.0000000000000000000, 1.000000000000000000, -0.0000000000000000000 ) ) ;
#55 = ORIENTED_EDGE ( 'NONE', *, *, #670, .F. ) ;
#56 = FACE_OUTER_BOUND ( 'NONE', #1082, .T. ) ;
#57 = CARTESIAN_POINT ( 'NONE',  ( 32.00000000000000000, 36.00000000000000000, 5.000000000000001776 ) ) ;
#58 = ORIENTED_EDGE ( 'NONE', *, *, #363, .F. ) ;
#59 = AXIS2_PLACEMENT_3D ( 'NONE', #480, #896, #138 ) ;
#60 = EDGE_CURVE ( 'NONE', #557, #427, #352, .T. ) ;
#61 = DIRECTION ( 'NONE',  ( -0.0000000000000000000, 0.0000000000000000000, -1.000000000000000000 ) ) ;
#62 = ORIENTED_EDGE ( 'NONE', *, *, #888, .T. ) ;
#63 = CARTESIAN_POINT ( 'NONE',  ( 0.0000000000000000000, 38.00000000000000000, 0.0000000000000000000 ) ) ;
#64 = DIRECTION ( 'NONE',  ( 0.0000000000000000000, 0.0000000000000000000, 1.000000000000000000 ) ) ;
#65 = CARTESIAN_POINT ( 'NONE',  ( 35.29999999999999005, 0.0000000000000000000, 1.700000000000003952 ) ) ;
#66 = ORIENTED_EDGE ( 'NONE', *, *, #663, .F. ) ;
#67 = SURFACE_SIDE_STYLE ('',( #574 ) ) ;
#68 = DIRECTION ( 'NONE',  ( 0.0000000000000000000, 0.0000000000000000000, 1.000000000000000000 ) ) ;
#69 =( NAMED_UNIT ( * ) PLANE_ANGLE_UNIT ( ) SI_UNIT ( $, .RADIAN. ) );
#70 = VECTOR ( 'NONE', #909, 1000.000000000000000 ) ;
#71 = VECTOR ( 'NONE', #547, 1000.000000000000000 ) ;
#72 = VECTOR ( 'NONE', #669, 1000.000000000000000 ) ;
#73 = ORIENTED_EDGE ( 'NONE', *, *, #87, .F. ) ;
#74 = LINE ( 'NONE', #925, #310 ) ;
#75 = AXIS2_PLACEMENT_3D ( 'NONE', #63, #164, #668 ) ;
#76 = DIRECTION ( 'NONE',  ( 0.0000000000000000000, 0.0000000000000000000, 1.000000000000000000 ) ) ;
#77 = AXIS2_PLACEMENT_3D ( 'NONE', #1102, #81, #95 ) ;
#78 = ORIENTED_EDGE ( 'NONE', *, *, #994, .F. ) ;
#79 = VECTOR ( 'NONE', #1077, 1000.000000000000000 ) ;
#80 = EDGE_LOOP ( 'NONE', ( #1103, #434, #187, #993, #284 ) ) ;
#81 = DIRECTION ( 'NONE',  ( -0.0000000000000000000, 1.000000000000000000, -0.0000000000000000000 ) ) ;
#82 = ORIENTED_EDGE ( 'NONE', *, *, #348, .F. ) ;
#83 = APPLICATION_CONTEXT ( 'automotive_design' ) ;
#84 = DIRECTION ( 'NONE',  ( -0.0000000000000000000, -1.000000000000000000, -0.0000000000000000000 ) ) ;
#85 = EDGE_LOOP ( 'NONE', ( #904, #542, #343, #848 ) ) ;
#86 = ORIENTED_EDGE ( 'NONE', *, *, #536, .T. ) ;
#87 = EDGE_CURVE ( 'NONE', #266, #329, #551, .T. ) ;
#88 = CARTESIAN_POINT ( 'NONE',  ( -38.50000000000000000, 28.39999999999999503, -1.700000000000004396 ) ) ;
#89 = DIRECTION ( 'NONE',  ( -0.0000000000000000000, -0.0000000000000000000, -1.000000000000000000 ) ) ;
#90 = ORIENTED_EDGE ( 'NONE', *, *, #1097, .T. ) ;
#91 = LINE ( 'NONE', #102, #956 ) ;
#92 = LINE ( 'NONE', #537, #367 ) ;
#93 = CARTESIAN_POINT ( 'NONE',  ( 25.50000000000000355, 36.00000000000000000, 1.700000000000004396 ) ) ;
#94 = EDGE_LOOP ( 'NONE', ( #782, #226, #485, #600 ) ) ;
#95 = DIRECTION ( 'NONE',  ( 0.0000000000000000000, 0.0000000000000000000, 1.000000000000000000 ) ) ;
#96 = ORIENTED_EDGE ( 'NONE', *, *, #549, .T. ) ;
#97 = VERTEX_POINT ( 'NONE', #922 ) ;
#98 = EDGE_CURVE ( 'NONE', #565, #204, #495, .T. ) ;
#99 = CARTESIAN_POINT ( 'NONE',  ( -35.29999999999999716, 0.0000000000000000000, 1.700000000000003952 ) ) ;
#100 = ORIENTED_EDGE ( 'NONE', *, *, #60, .T. ) ;
#101 = ORIENTED_EDGE ( 'NONE', *, *, #519, .T. ) ;
#102 = CARTESIAN_POINT ( 'NONE',  ( -28.70000000000000995, 0.0000000000000000000, -1.700000000000004396 ) ) ;
#103 = AXIS2_PLACEMENT_3D ( 'NONE', #737, #147, #892 ) ;
#104 = EDGE_CURVE ( 'NONE', #917, #204, #808, .T. ) ;
#105 = CARTESIAN_POINT ( 'NONE',  ( 35.29999999999999005, 0.0000000000000000000, 1.700000000000003952 ) ) ;
#106 = VECTOR ( 'NONE', #756, 1000.000000000000000 ) ;
#107 = CARTESIAN_POINT ( 'NONE',  ( -28.70000000000000284, 28.40000000000000213, -1.700000000000004396 ) ) ;
#108 = LINE ( 'NONE', #49, #1074 ) ;
#109 = LINE ( 'NONE', #834, #974 ) ;
#110 = ORIENTED_EDGE ( 'NONE', *, *, #348, .T. ) ;
#111 = FACE_OUTER_BOUND ( 'NONE', #297, .T. ) ;
#112 = ORIENTED_EDGE ( 'NONE', *, *, #832, .F. ) ;
#113 = CARTESIAN_POINT ( 'NONE',  ( 10.24977327051848341, 36.00000000000000000, 38.66448173586405090 ) ) ;
#114 = CARTESIAN_POINT ( 'NONE',  ( 10.42475059757033584, 38.00000000000000000, 4.521014898202127010E-16 ) ) ;
#115 = AXIS2_PLACEMENT_3D ( 'NONE', #878, #886, #707 ) ;
#116 = EDGE_CURVE ( 'NONE', #917, #347, #289, .T. ) ;
#117 = ORIENTED_EDGE ( 'NONE', *, *, #867, .T. ) ;
#118 = FACE_OUTER_BOUND ( 'NONE', #390, .T. ) ;
#119 = VERTEX_POINT ( 'NONE', #927 ) ;
#120 = ORIENTED_EDGE ( 'NONE', *, *, #711, .T. ) ;
#121 = ORIENTED_EDGE ( 'NONE', *, *, #142, .F. ) ;
#122 = ORIENTED_EDGE ( 'NONE', *, *, #784, .T. ) ;
#123 = DIRECTION ( 'NONE',  ( 0.0000000000000000000, -0.0000000000000000000, -1.000000000000000000 ) ) ;
#124 = ADVANCED_FACE ( 'NONE', ( #208 ), #794, .F. ) ;
#125 = EDGE_CURVE ( 'NONE', #575, #167, #778, .T. ) ;
#126 = ORIENTED_EDGE ( 'NONE', *, *, #494, .F. ) ;
#127 = CARTESIAN_POINT ( 'NONE',  ( -10.24977327051848519, 36.00000000000000000, 4.445130578951998294E-16 ) ) ;
#128 = DIRECTION ( 'NONE',  ( 4.336808689942017736E-17, -0.0000000000000000000, 1.000000000000000000 ) ) ;
#129 = VECTOR ( 'NONE', #1099, 1000.000000000000000 ) ;
#130 = LINE ( 'NONE', #1037, #988 ) ;
#131 = LINE ( 'NONE', #586, #72 ) ;
#132 = CARTESIAN_POINT ( 'NONE',  ( -8.500000000000017764, 16.00000000000000000, 39.08644266238614762 ) ) ;
#133 = DIRECTION ( 'NONE',  ( -0.0000000000000000000, 1.000000000000000000, 0.0000000000000000000 ) ) ;
#134 = LINE ( 'NONE', #401, #1051 ) ;
#135 = ORIENTED_EDGE ( 'NONE', *, *, #1080, .T. ) ;
#136 = AXIS2_PLACEMENT_3D ( 'NONE', #462, #288, #377 ) ;
#137 = VERTEX_POINT ( 'NONE', #346 ) ;
#138 = DIRECTION ( 'NONE',  ( 0.0000000000000000000, 0.0000000000000000000, 1.000000000000000000 ) ) ;
#139 = CARTESIAN_POINT ( 'NONE',  ( -25.50000000000000355, 28.39999999999999858, -1.700000000000004396 ) ) ;
#140 = VERTEX_POINT ( 'NONE', #689 ) ;
#141 = LINE ( 'NONE', #742, #865 ) ;
#142 = EDGE_CURVE ( 'NONE', #575, #140, #568, .T. ) ;
#143 = VERTEX_POINT ( 'NONE', #261 ) ;
#144 = DIRECTION ( 'NONE',  ( 0.0000000000000000000, 0.0000000000000000000, 1.000000000000000000 ) ) ;
#145 = ORIENTED_EDGE ( 'NONE', *, *, #948, .T. ) ;
#146 = VECTOR ( 'NONE', #998, 1000.000000000000000 ) ;
#147 = DIRECTION ( 'NONE',  ( -0.0000000000000000000, 1.000000000000000000, -0.0000000000000000000 ) ) ;
#148 = VERTEX_POINT ( 'NONE', #419 ) ;
#149 = CARTESIAN_POINT ( 'NONE',  ( 35.29999999999999005, 0.0000000000000000000, 1.700000000000004396 ) ) ;
#150 = DIRECTION ( 'NONE',  ( 0.0000000000000000000, 0.0000000000000000000, 1.000000000000000000 ) ) ;
#151 = CARTESIAN_POINT ( 'NONE',  ( 32.00000000000000000, 0.0000000000000000000, 4.999999999999994671 ) ) ;
#152 = EDGE_CURVE ( 'NONE', #933, #51, #44, .T. ) ;
#153 = CARTESIAN_POINT ( 'NONE',  ( -35.29999999999999716, 36.00000000000000000, 1.700000000000003952 ) ) ;
#154 = DIRECTION ( 'NONE',  ( 0.0000000000000000000, 0.0000000000000000000, 1.000000000000000000 ) ) ;
#155 = ORIENTED_EDGE ( 'NONE', *, *, #308, .T. ) ;
#156 = LINE ( 'NONE', #797, #71 ) ;
#157 = VECTOR ( 'NONE', #662, 1000.000000000000000 ) ;
#158 = AXIS2_PLACEMENT_3D ( 'NONE', #499, #489, #64 ) ;
#159 = DIRECTION ( 'NONE',  ( 0.0000000000000000000, 1.000000000000000000, 0.0000000000000000000 ) ) ;
#160 = EDGE_CURVE ( 'NONE', #488, #475, #496, .T. ) ;
#161 = LINE ( 'NONE', #979, #639 ) ;
#162 = ORIENTED_EDGE ( 'NONE', *, *, #179, .F. ) ;
#163 = CARTESIAN_POINT ( 'NONE',  ( 32.00000000000000000, 28.39999999999999858, 8.200000000000004619 ) ) ;
#164 = DIRECTION ( 'NONE',  ( -0.0000000000000000000, -1.000000000000000000, -0.0000000000000000000 ) ) ;
#165 = CARTESIAN_POINT ( 'NONE',  ( 32.00000000000000000, 36.00000000000000000, -1.700000000000004396 ) ) ;
#166 = APPLICATION_PROTOCOL_DEFINITION ( 'draft international standard', 'automotive_design', 1998, #83 ) ;
#167 = VERTEX_POINT ( 'NONE', #176 ) ;
#168 = PLANE ( 'NONE',  #961 ) ;
#169 = PRESENTATION_STYLE_ASSIGNMENT (( #259 ) ) ;
#170 = VERTEX_POINT ( 'NONE', #861 ) ;
#171 = DIRECTION ( 'NONE',  ( 0.0000000000000000000, 1.000000000000000000, 0.0000000000000000000 ) ) ;
#172 = EDGE_CURVE ( 'NONE', #347, #565, #779, .T. ) ;
#173 = ORIENTED_EDGE ( 'NONE', *, *, #879, .F. ) ;
#174 = CIRCLE ( 'NONE', #193, 6.499999999999998224 ) ;
#175 = ORIENTED_EDGE ( 'NONE', *, *, #202, .F. ) ;
#176 = CARTESIAN_POINT ( 'NONE',  ( 38.50000000000000000, 28.39999999999999858, -1.700000000000004396 ) ) ;
#177 = ORIENTED_EDGE ( 'NONE', *, *, #324, .F. ) ;
#178 = AXIS2_PLACEMENT_3D ( 'NONE', #221, #652, #649 ) ;
#179 = EDGE_CURVE ( 'NONE', #933, #97, #839, .T. ) ;
#180 = DIRECTION ( 'NONE',  ( 0.0000000000000000000, 1.000000000000000000, 0.0000000000000000000 ) ) ;
#181 =( GEOMETRIC_REPRESENTATION_CONTEXT ( 3 ) GLOBAL_UNCERTAINTY_ASSIGNED_CONTEXT ( ( #1057 ) ) GLOBAL_UNIT_ASSIGNED_CONTEXT ( ( #745, #1104, #676 ) ) REPRESENTATION_CONTEXT ( 'NONE', 'WORKASPACE' ) );
#182 = DIRECTION ( 'NONE',  ( -1.000000000000000000, 0.0000000000000000000, 0.0000000000000000000 ) ) ;
#183 = FACE_OUTER_BOUND ( 'NONE', #196, .T. ) ;
#184 = VECTOR ( 'NONE', #195, 1000.000000000000000 ) ;
#185 = ADVANCED_FACE ( 'NONE', ( #483 ), #541, .T. ) ;
#186 = FACE_OUTER_BOUND ( 'NONE', #15, .T. ) ;
#187 = ORIENTED_EDGE ( 'NONE', *, *, #748, .T. ) ;
#188 = LINE ( 'NONE', #1087, #423 ) ;
#189 = DIRECTION ( 'NONE',  ( -0.0000000000000000000, 1.000000000000000000, -0.0000000000000000000 ) ) ;
#190 = CIRCLE ( 'NONE', #646, 6.499999999999999112 ) ;
#191 =( BOUNDED_CURVE ( )  B_SPLINE_CURVE ( 3, ( #921, #747, #838, #1003 ),
 .UNSPECIFIED., .F., .T. ) 
 B_SPLINE_CURVE_WITH_KNOTS ( ( 4, 4 ),
 ( 4.453254183905134944, 4.498256297310621044 ),
 .UNSPECIFIED. ) 
 CURVE ( )  GEOMETRIC_REPRESENTATION_ITEM ( )  RATIONAL_B_SPLINE_CURVE ( ( 1.000000000000000000, 0.9998312412694444484, 0.9998312412694444484, 1.000000000000000000 ) ) 
 REPRESENTATION_ITEM ( '' )  );
#192 = CARTESIAN_POINT ( 'NONE',  ( 38.50000000000000000, 28.39999999999999858, 1.700000000000004396 ) ) ;
#193 = AXIS2_PLACEMENT_3D ( 'NONE', #880, #463, #37 ) ;
#194 = EDGE_CURVE ( 'NONE', #170, #842, #686, .T. ) ;
#195 = DIRECTION ( 'NONE',  ( 0.0000000000000000000, -1.000000000000000000, 0.0000000000000000000 ) ) ;
#196 = EDGE_LOOP ( 'NONE', ( #951, #246, #884, #996, #400, #173 ) ) ;
#197 = FACE_BOUND ( 'NONE', #566, .T. ) ;
#198 = VERTEX_POINT ( 'NONE', #673 ) ;
#199 = CARTESIAN_POINT ( 'NONE',  ( 32.00000000000000000, 36.00000000000000000, 1.700000000000004396 ) ) ;
#200 = FACE_OUTER_BOUND ( 'NONE', #85, .T. ) ;
#201 = ORIENTED_EDGE ( 'NONE', *, *, #627, .F. ) ;
#202 = EDGE_CURVE ( 'NONE', #432, #505, #339, .T. ) ;
#203 =( BOUNDED_CURVE ( )  B_SPLINE_CURVE ( 3, ( #854, #429, #331, #697 ),
 .UNSPECIFIED., .F., .T. ) 
 B_SPLINE_CURVE_WITH_KNOTS ( ( 4, 4 ),
 ( 1.140665161170671960, 1.148352207928992508 ),
 .UNSPECIFIED. ) 
 CURVE ( )  GEOMETRIC_REPRESENTATION_ITEM ( )  RATIONAL_B_SPLINE_CURVE ( ( 1.000000000000000000, 0.9999950757820732505, 0.9999950757820732505, 1.000000000000000000 ) ) 
 REPRESENTATION_ITEM ( '' )  );
#204 = VERTEX_POINT ( 'NONE', #594 ) ;
#205 = DIRECTION ( 'NONE',  ( -0.0000000000000000000, 1.000000000000000000, -0.0000000000000000000 ) ) ;
#206 = EDGE_CURVE ( 'NONE', #1028, #119, #203, .T. ) ;
#207 = ORIENTED_EDGE ( 'NONE', *, *, #430, .T. ) ;
#208 = FACE_OUTER_BOUND ( 'NONE', #1041, .T. ) ;
#209 = CARTESIAN_POINT ( 'NONE',  ( 0.0000000000000000000, 15.99999999999999289, 0.0000000000000000000 ) ) ;
#210 = FACE_BOUND ( 'NONE', #25, .T. ) ;
#211 = EDGE_LOOP ( 'NONE', ( #294, #833, #907, #962 ) ) ;
#212 = ADVANCED_FACE ( 'NONE', ( #738 ), #168, .F. ) ;
#213 = DIRECTION ( 'NONE',  ( -0.0000000000000000000, 1.000000000000000000, -0.0000000000000000000 ) ) ;
#214 = VECTOR ( 'NONE', #942, 1000.000000000000000 ) ;
#215 = PLANE ( 'NONE',  #33 ) ;
#216 = STYLED_ITEM ( 'NONE', ( #169 ), #710 ) ;
#217 = EDGE_CURVE ( 'NONE', #314, #137, #271, .T. ) ;
#218 = ADVANCED_FACE ( 'NONE', ( #118 ), #237, .F. ) ;
#219 = CARTESIAN_POINT ( 'NONE',  ( -9.669729859572241182, 29.37007347501239352, 38.81824853118469321 ) ) ;
#220 = DIRECTION ( 'NONE',  ( -0.0000000000000000000, 1.000000000000000000, -0.0000000000000000000 ) ) ;
#221 = CARTESIAN_POINT ( 'NONE',  ( -32.00000000000000000, 36.00000000000000000, 1.700000000000004396 ) ) ;
#222 = ADVANCED_FACE ( 'NONE', ( #609 ), #1091, .F. ) ;
#223 = EDGE_LOOP ( 'NONE', ( #796, #825, #743, #1056 ) ) ;
#224 = CIRCLE ( 'NONE', #283, 3.300000000000004263 ) ;
#225 = DIRECTION ( 'NONE',  ( -0.0000000000000000000, -0.0000000000000000000, -1.000000000000000000 ) ) ;
#226 = ORIENTED_EDGE ( 'NONE', *, *, #615, .F. ) ;
#227 = PLANE ( 'NONE',  #924 ) ;
#228 = CYLINDRICAL_SURFACE ( 'NONE', #178, 6.499999999999998224 ) ;
#229 = CARTESIAN_POINT ( 'NONE',  ( 25.50000000000000355, 28.39999999999999503, 1.700000000000003952 ) ) ;
#230 = DIRECTION ( 'NONE',  ( 0.0000000000000000000, 0.0000000000000000000, 1.000000000000000000 ) ) ;
#231 = AXIS2_PLACEMENT_3D ( 'NONE', #406, #581, #479 ) ;
#232 = DIRECTION ( 'NONE',  ( -0.0000000000000000000, -0.0000000000000000000, -1.000000000000000000 ) ) ;
#233 = ORIENTED_EDGE ( 'NONE', *, *, #202, .T. ) ;
#234 = AXIS2_PLACEMENT_3D ( 'NONE', #501, #251, #749 ) ;
#235 = DIRECTION ( 'NONE',  ( 0.0000000000000000000, 0.0000000000000000000, 1.000000000000000000 ) ) ;
#236 = EDGE_CURVE ( 'NONE', #765, #444, #130, .T. ) ;
#237 = CYLINDRICAL_SURFACE ( 'NONE', #511, 6.499999999999999112 ) ;
#238 = MECHANICAL_DESIGN_GEOMETRIC_PRESENTATION_REPRESENTATION (  '', ( #607 ), #181 ) ;
#239 = ORIENTED_EDGE ( 'NONE', *, *, #206, .F. ) ;
#240 = ORIENTED_EDGE ( 'NONE', *, *, #194, .T. ) ;
#241 = CARTESIAN_POINT ( 'NONE',  ( 8.500000000000000000, 15.99999999999999289, 0.0000000000000000000 ) ) ;
#242 = VECTOR ( 'NONE', #585, 1000.000000000000000 ) ;
#243 = DIRECTION ( 'NONE',  ( -0.0000000000000000000, -0.0000000000000000000, -1.000000000000000000 ) ) ;
#244 = CARTESIAN_POINT ( 'NONE',  ( 0.0000000000000000000, 36.00000000000000000, 0.0000000000000000000 ) ) ;
#245 = DIRECTION ( 'NONE',  ( 0.0000000000000000000, 0.0000000000000000000, 1.000000000000000000 ) ) ;
#246 = ORIENTED_EDGE ( 'NONE', *, *, #269, .T. ) ;
#247 = COLOUR_RGB ( '',0.4980392156862745168, 0.4980392156862745168, 0.4980392156862745168 ) ;
#248 = DIRECTION ( 'NONE',  ( 0.0000000000000000000, 0.0000000000000000000, 1.000000000000000000 ) ) ;
#249 = AXIS2_PLACEMENT_3D ( 'NONE', #844, #1085, #61 ) ;
#250 = EDGE_LOOP ( 'NONE', ( #1053, #279, #457, #240 ) ) ;
#251 = DIRECTION ( 'NONE',  ( -0.0000000000000000000, 1.000000000000000000, -0.0000000000000000000 ) ) ;
#252 = EDGE_LOOP ( 'NONE', ( #651, #661, #411, #632, #728 ) ) ;
#253 = DIRECTION ( 'NONE',  ( -0.0000000000000000000, 1.000000000000000000, -0.0000000000000000000 ) ) ;
#254 = CARTESIAN_POINT ( 'NONE',  ( 28.70000000000000284, 36.00000000000000000, 1.700000000000003952 ) ) ;
#255 = ORIENTED_EDGE ( 'NONE', *, *, #647, .F. ) ;
#256 = EDGE_CURVE ( 'NONE', #1052, #787, #931, .T. ) ;
#257 = FILL_AREA_STYLE_COLOUR ( '', #247 ) ;
#258 = CARTESIAN_POINT ( 'NONE',  ( -25.50000000000000355, 28.39999999999999858, -1.700000000000004396 ) ) ;
#259 = SURFACE_STYLE_USAGE ( .BOTH. , #681 ) ;
#260 = ORIENTED_EDGE ( 'NONE', *, *, #748, .F. ) ;
#261 = CARTESIAN_POINT ( 'NONE',  ( 32.00000000000000000, 28.39999999999999858, 5.000000000000007994 ) ) ;
#262 = VECTOR ( 'NONE', #944, 1000.000000000000000 ) ;
#263 = VERTEX_POINT ( 'NONE', #443 ) ;
#264 = CARTESIAN_POINT ( 'NONE',  ( 0.0000000000000000000, 38.00000000000000000, 0.0000000000000000000 ) ) ;
#265 = AXIS2_PLACEMENT_3D ( 'NONE', #65, #484, #901 ) ;
#266 = VERTEX_POINT ( 'NONE', #952 ) ;
#267 = DIRECTION ( 'NONE',  ( 4.336808689942017736E-17, 0.0000000000000000000, -1.000000000000000000 ) ) ;
#268 = AXIS2_PLACEMENT_3D ( 'NONE', #421, #159, #248 ) ;
#269 = EDGE_CURVE ( 'NONE', #855, #785, #382, .T. ) ;
#270 = DIRECTION ( 'NONE',  ( -0.0000000000000000000, 1.000000000000000000, -0.0000000000000000000 ) ) ;
#271 = LINE ( 'NONE', #773, #905 ) ;
#272 = CARTESIAN_POINT ( 'NONE',  ( 35.29999999999999716, 0.0000000000000000000, 1.700000000000004396 ) ) ;
#273 = ORIENTED_EDGE ( 'NONE', *, *, #478, .T. ) ;
#274 = ORIENTED_EDGE ( 'NONE', *, *, #172, .F. ) ;
#275 = DIRECTION ( 'NONE',  ( 0.0000000000000000000, 0.0000000000000000000, 1.000000000000000000 ) ) ;
#276 = ORIENTED_EDGE ( 'NONE', *, *, #536, .F. ) ;
#277 = DIRECTION ( 'NONE',  ( -0.0000000000000000000, 1.000000000000000000, -0.0000000000000000000 ) ) ;
#278 = AXIS2_PLACEMENT_3D ( 'NONE', #835, #989, #656 ) ;
#279 = ORIENTED_EDGE ( 'NONE', *, *, #930, .F. ) ;
#280 = FACE_OUTER_BOUND ( 'NONE', #562, .T. ) ;
#281 = ORIENTED_EDGE ( 'NONE', *, *, #459, .T. ) ;
#282 = ORIENTED_EDGE ( 'NONE', *, *, #739, .F. ) ;
#283 = AXIS2_PLACEMENT_3D ( 'NONE', #577, #1101, #68 ) ;
#284 = ORIENTED_EDGE ( 'NONE', *, *, #1016, .F. ) ;
#285 = EDGE_CURVE ( 'NONE', #629, #329, #1059, .T. ) ;
#286 = CARTESIAN_POINT ( 'NONE',  ( 28.70000000000000284, 0.0000000000000000000, -1.700000000000004396 ) ) ;
#287 = CARTESIAN_POINT ( 'NONE',  ( 38.50000000000000000, 28.39999999999999858, 1.700000000000003952 ) ) ;
#288 = DIRECTION ( 'NONE',  ( -0.0000000000000000000, 1.000000000000000000, -0.0000000000000000000 ) ) ;
#289 = LINE ( 'NONE', #517, #321 ) ;
#290 = DIRECTION ( 'NONE',  ( 0.0000000000000000000, -1.000000000000000000, 0.0000000000000000000 ) ) ;
#291 = VECTOR ( 'NONE', #128, 1000.000000000000000 ) ;
#292 = DIRECTION ( 'NONE',  ( -0.0000000000000000000, 1.000000000000000000, -0.0000000000000000000 ) ) ;
#293 = CIRCLE ( 'NONE', #690, 40.00000000000000000 ) ;
#294 = ORIENTED_EDGE ( 'NONE', *, *, #1029, .T. ) ;
#295 = ADVANCED_FACE ( 'NONE', ( #973, #883 ), #1042, .F. ) ;
#296 = DIRECTION ( 'NONE',  ( -0.0000000000000000000, 1.000000000000000000, -0.0000000000000000000 ) ) ;
#297 = EDGE_LOOP ( 'NONE', ( #621, #837, #281, #548 ) ) ;
#298 = VECTOR ( 'NONE', #819, 1000.000000000000000 ) ;
#299 = CARTESIAN_POINT ( 'NONE',  ( -38.50000000000000000, 36.00000000000000000, 1.700000000000003952 ) ) ;
#300 = ORIENTED_EDGE ( 'NONE', *, *, #840, .F. ) ;
#301 = AXIS2_PLACEMENT_3D ( 'NONE', #980, #402, #564 ) ;
#302 = AXIS2_PLACEMENT_3D ( 'NONE', #811, #889, #638 ) ;
#303 = DIRECTION ( 'NONE',  ( 0.0000000000000000000, 1.000000000000000000, 0.0000000000000000000 ) ) ;
#304 = CARTESIAN_POINT ( 'NONE',  ( 10.30820070933567756, 36.66782868159690878, 22.77597641543055218 ) ) ;
#305 = ADVANCED_FACE ( 'NONE', ( #659 ), #622, .F. ) ;
#306 = CARTESIAN_POINT ( 'NONE',  ( 8.499999999999969802, 0.0000000000000000000, 39.08644266238615472 ) ) ;
#307 = CARTESIAN_POINT ( 'NONE',  ( 28.70000000000000284, 28.40000000000000213, 1.700000000000004396 ) ) ;
#308 = EDGE_CURVE ( 'NONE', #587, #910, #767, .T. ) ;
#309 = VERTEX_POINT ( 'NONE', #522 ) ;
#310 = VECTOR ( 'NONE', #692, 1000.000000000000000 ) ;
#311 = FACE_BOUND ( 'NONE', #252, .T. ) ;
#312 = CARTESIAN_POINT ( 'NONE',  ( -35.29999999999999716, 28.40000000000000213, 1.700000000000004396 ) ) ;
#313 = ORIENTED_EDGE ( 'NONE', *, *, #43, .F. ) ;
#314 = VERTEX_POINT ( 'NONE', #113 ) ;
#315 = PLANE ( 'NONE',  #249 ) ;
#316 = DIRECTION ( 'NONE',  ( 0.0000000000000000000, 0.0000000000000000000, 1.000000000000000000 ) ) ;
#317 = DIRECTION ( 'NONE',  ( 7.988709240514010068E-16, 0.0000000000000000000, -1.000000000000000000 ) ) ;
#318 = ORIENTED_EDGE ( 'NONE', *, *, #663, .T. ) ;
#319 = AXIS2_PLACEMENT_3D ( 'NONE', #4, #760, #336 ) ;
#320 = PLANE ( 'NONE',  #470 ) ;
#321 = VECTOR ( 'NONE', #605, 1000.000000000000000 ) ;
#322 = AXIS2_PLACEMENT_3D ( 'NONE', #770, #84, #516 ) ;
#323 = DIRECTION ( 'NONE',  ( 0.0000000000000000000, 0.0000000000000000000, 1.000000000000000000 ) ) ;
#324 = EDGE_CURVE ( 'NONE', #381, #645, #957, .T. ) ;
#325 = VECTOR ( 'NONE', #729, 1000.000000000000000 ) ;
#326 = CIRCLE ( 'NONE', #268, 40.00000000000000000 ) ;
#327 = DIRECTION ( 'NONE',  ( -0.08715574274765836016, -0.9961946980917455452, 0.0000000000000000000 ) ) ;
#328 = DIRECTION ( 'NONE',  ( -4.336808689942017736E-17, 0.0000000000000000000, 1.000000000000000000 ) ) ;
#329 = VERTEX_POINT ( 'NONE', #272 ) ;
#330 = CIRCLE ( 'NONE', #1070, 25.00000000000000000 ) ;
#331 = CARTESIAN_POINT ( 'NONE',  ( -10.30820070933567756, 36.66782868159690878, 22.77597641543055218 ) ) ;
#332 = VERTEX_POINT ( 'NONE', #14 ) ;
#333 =( LENGTH_UNIT ( ) NAMED_UNIT ( * ) SI_UNIT ( .MILLI., .METRE. ) );
#334 = DIRECTION ( 'NONE',  ( -1.000000000000000000, 0.0000000000000000000, 0.0000000000000000000 ) ) ;
#335 = CARTESIAN_POINT ( 'NONE',  ( 28.70000000000000284, 0.0000000000000000000, 1.700000000000003952 ) ) ;
#336 = DIRECTION ( 'NONE',  ( 0.0000000000000000000, 0.0000000000000000000, 1.000000000000000000 ) ) ;
#337 = VERTEX_POINT ( 'NONE', #694 ) ;
#338 = FACE_OUTER_BOUND ( 'NONE', #637, .T. ) ;
#339 = LINE ( 'NONE', #258, #1045 ) ;
#340 = DIRECTION ( 'NONE',  ( -0.0000000000000000000, 1.000000000000000000, 0.0000000000000000000 ) ) ;
#341 = AXIS2_PLACEMENT_3D ( 'NONE', #616, #534, #529 ) ;
#342 = ORIENTED_EDGE ( 'NONE', *, *, #160, .F. ) ;
#343 = ORIENTED_EDGE ( 'NONE', *, *, #954, .F. ) ;
#344 = VERTEX_POINT ( 'NONE', #350 ) ;
#345 = CARTESIAN_POINT ( 'NONE',  ( 32.00000000000000000, 36.00000000000000000, 1.700000000000004396 ) ) ;
#346 = CARTESIAN_POINT ( 'NONE',  ( 10.24977327051848341, 36.00000000000000000, 22.80223997555864912 ) ) ;
#347 = VERTEX_POINT ( 'NONE', #361 ) ;
#348 = EDGE_CURVE ( 'NONE', #337, #148, #552, .T. ) ;
#349 =( LENGTH_UNIT ( ) NAMED_UNIT ( * ) SI_UNIT ( .MILLI., .METRE. ) );
#350 = CARTESIAN_POINT ( 'NONE',  ( 25.50000000000000355, 28.39999999999999858, 1.700000000000004396 ) ) ;
#351 =( NAMED_UNIT ( * ) PLANE_ANGLE_UNIT ( ) SI_UNIT ( $, .RADIAN. ) );
#352 = LINE ( 'NONE', #997, #129 ) ;
#353 = DIRECTION ( 'NONE',  ( -0.0000000000000000000, 1.000000000000000000, -0.0000000000000000000 ) ) ;
#354 = LINE ( 'NONE', #815, #325 ) ;
#355 = FACE_OUTER_BOUND ( 'NONE', #712, .T. ) ;
#356 = DIRECTION ( 'NONE',  ( -0.0000000000000000000, 1.000000000000000000, -0.0000000000000000000 ) ) ;
#357 = EDGE_LOOP ( 'NONE', ( #1067, #584, #953, #827 ) ) ;
#358 = VECTOR ( 'NONE', #243, 1000.000000000000000 ) ;
#359 = ORIENTED_EDGE ( 'NONE', *, *, #471, .T. ) ;
#360 = ADVANCED_FACE ( 'NONE', ( #823 ), #791, .F. ) ;
#361 = CARTESIAN_POINT ( 'NONE',  ( -35.29999999999999005, 0.0000000000000000000, 1.700000000000004396 ) ) ;
#362 = ORIENTED_EDGE ( 'NONE', *, *, #954, .T. ) ;
#363 = EDGE_CURVE ( 'NONE', #347, #557, #864, .T. ) ;
#364 = DIRECTION ( 'NONE',  ( 0.0000000000000000000, 1.000000000000000000, 0.0000000000000000000 ) ) ;
#365 = ORIENTED_EDGE ( 'NONE', *, *, #619, .T. ) ;
#366 = FACE_OUTER_BOUND ( 'NONE', #1023, .T. ) ;
#367 = VECTOR ( 'NONE', #374, 1000.000000000000000 ) ;
#368 = CARTESIAN_POINT ( 'NONE',  ( 32.00000000000000000, 36.00000000000000000, 8.200000000000004619 ) ) ;
#369 = ORIENTED_EDGE ( 'NONE', *, *, #308, .F. ) ;
#370 = EDGE_CURVE ( 'NONE', #119, #309, #751, .T. ) ;
#371 = VERTEX_POINT ( 'NONE', #107 ) ;
#372 = CIRCLE ( 'NONE', #593, 3.299999999999990496 ) ;
#373 = ORIENTED_EDGE ( 'NONE', *, *, #724, .F. ) ;
#374 = DIRECTION ( 'NONE',  ( -0.0000000000000000000, -0.0000000000000000000, -1.000000000000000000 ) ) ;
#375 = ORIENTED_EDGE ( 'NONE', *, *, #385, .F. ) ;
#376 = EDGE_LOOP ( 'NONE', ( #407, #45, #318, #389 ) ) ;
#377 = DIRECTION ( 'NONE',  ( 0.0000000000000000000, 0.0000000000000000000, 1.000000000000000000 ) ) ;
#378 = ADVANCED_FACE ( 'NONE', ( #280, #311 ), #215, .F. ) ;
#379 = AXIS2_PLACEMENT_3D ( 'NONE', #937, #702, #788 ) ;
#380 = CARTESIAN_POINT ( 'NONE',  ( 10.24977327051848341, 36.00000000000000000, 22.80223997555864912 ) ) ;
#381 = VERTEX_POINT ( 'NONE', #802 ) ;
#382 = LINE ( 'NONE', #439, #636 ) ;
#383 = LINE ( 'NONE', #775, #445 ) ;
#384 = AXIS2_PLACEMENT_3D ( 'NONE', #928, #1027, #7 ) ;
#385 = EDGE_CURVE ( 'NONE', #587, #1064, #156, .T. ) ;
#386 = LINE ( 'NONE', #229, #79 ) ;
#387 = CARTESIAN_POINT ( 'NONE',  ( -10.42475059757033407, 38.00000000000000000, 8.347275117514111949E-17 ) ) ;
#388 = ADVANCED_FACE ( 'NONE', ( #810 ), #596, .F. ) ;
#389 = ORIENTED_EDGE ( 'NONE', *, *, #926, .T. ) ;
#390 = EDGE_LOOP ( 'NONE', ( #863, #175, #658, #682 ) ) ;
#391 = CARTESIAN_POINT ( 'NONE',  ( 28.70000000000000284, 36.00000000000000000, 1.700000000000004396 ) ) ;
#392 = DIRECTION ( 'NONE',  ( -0.0000000000000000000, -0.0000000000000000000, -1.000000000000000000 ) ) ;
#393 = ORIENTED_EDGE ( 'NONE', *, *, #52, .T. ) ;
#394 = FACE_OUTER_BOUND ( 'NONE', #223, .T. ) ;
#395 = ORIENTED_EDGE ( 'NONE', *, *, #405, .F. ) ;
#396 = LINE ( 'NONE', #105, #693 ) ;
#397 = CARTESIAN_POINT ( 'NONE',  ( -38.50000000000000000, 36.00000000000000000, -1.700000000000004396 ) ) ;
#398 = AXIS2_PLACEMENT_3D ( 'NONE', #630, #1066, #39 ) ;
#399 = CARTESIAN_POINT ( 'NONE',  ( -28.69999999999999929, 28.39999999999999858, 1.700000000000004396 ) ) ;
#400 = ORIENTED_EDGE ( 'NONE', *, *, #370, .T. ) ;
#401 = CARTESIAN_POINT ( 'NONE',  ( -28.70000000000000284, 28.40000000000000213, 1.700000000000003952 ) ) ;
#402 = DIRECTION ( 'NONE',  ( -0.0000000000000000000, 1.000000000000000000, -0.0000000000000000000 ) ) ;
#403 = AXIS2_PLACEMENT_3D ( 'NONE', #642, #543, #720 ) ;
#404 = DIRECTION ( 'NONE',  ( -0.0000000000000000000, 1.000000000000000000, -0.0000000000000000000 ) ) ;
#405 = EDGE_CURVE ( 'NONE', #761, #1005, #92, .T. ) ;
#406 = CARTESIAN_POINT ( 'NONE',  ( -8.500000000000000000, 15.99999999999999289, 0.0000000000000000000 ) ) ;
#407 = ORIENTED_EDGE ( 'NONE', *, *, #790, .T. ) ;
#408 = FACE_OUTER_BOUND ( 'NONE', #376, .T. ) ;
#409 = APPLICATION_CONTEXT ( 'automotive_design' ) ;
#410 = CYLINDRICAL_SURFACE ( 'NONE', #535, 3.299999999999995826 ) ;
#411 = ORIENTED_EDGE ( 'NONE', *, *, #898, .F. ) ;
#412 = CARTESIAN_POINT ( 'NONE',  ( -8.500000000000017764, 0.0000000000000000000, 39.08644266238614762 ) ) ;
#413 = PLANE ( 'NONE',  #783 ) ;
#414 = FACE_OUTER_BOUND ( 'NONE', #675, .T. ) ;
#415 = DIRECTION ( 'NONE',  ( -0.0000000000000000000, 1.000000000000000000, 0.0000000000000000000 ) ) ;
#416 = AXIS2_PLACEMENT_3D ( 'NONE', #497, #665, #836 ) ;
#417 = DIRECTION ( 'NONE',  ( 0.0000000000000000000, 0.0000000000000000000, 1.000000000000000000 ) ) ;
#418 = CARTESIAN_POINT ( 'NONE',  ( 25.50000000000000355, 36.00000000000000000, 1.700000000000003952 ) ) ;
#419 = CARTESIAN_POINT ( 'NONE',  ( 10.42475059757033407, 38.00000000000000000, 6.383318725611983687E-16 ) ) ;
#420 = AXIS2_PLACEMENT_3D ( 'NONE', #345, #17, #520 ) ;
#421 = CARTESIAN_POINT ( 'NONE',  ( 0.0000000000000000000, 0.0000000000000000000, 0.0000000000000000000 ) ) ;
#422 = EDGE_CURVE ( 'NONE', #432, #500, #1034, .T. ) ;
#423 = VECTOR ( 'NONE', #392, 1000.000000000000000 ) ;
#424 = ORIENTED_EDGE ( 'NONE', *, *, #549, .F. ) ;
#425 = EDGE_LOOP ( 'NONE', ( #597, #795, #449, #521 ) ) ;
#426 = DIRECTION ( 'NONE',  ( 0.0000000000000000000, 0.0000000000000000000, 1.000000000000000000 ) ) ;
#427 = VERTEX_POINT ( 'NONE', #965 ) ;
#428 = ORIENTED_EDGE ( 'NONE', *, *, #405, .T. ) ;
#429 = CARTESIAN_POINT ( 'NONE',  ( -10.36652677222987329, 37.33449863109171218, 22.74948848261952961 ) ) ;
#430 = EDGE_CURVE ( 'NONE', #855, #645, #1001, .T. ) ;
#431 = CARTESIAN_POINT ( 'NONE',  ( -28.70000000000000284, 0.0000000000000000000, 1.700000000000004396 ) ) ;
#432 = VERTEX_POINT ( 'NONE', #456 ) ;
#433 = DIRECTION ( 'NONE',  ( 0.0000000000000000000, 0.0000000000000000000, 1.000000000000000000 ) ) ;
#434 = ORIENTED_EDGE ( 'NONE', *, *, #647, .T. ) ;
#435 = VECTOR ( 'NONE', #603, 1000.000000000000000 ) ;
#436 = DIRECTION ( 'NONE',  ( 0.0000000000000000000, 0.0000000000000000000, 1.000000000000000000 ) ) ;
#437 = CIRCLE ( 'NONE', #1046, 10.42475059757033229 ) ;
#438 = ORIENTED_EDGE ( 'NONE', *, *, #60, .F. ) ;
#439 = CARTESIAN_POINT ( 'NONE',  ( -8.500000000000000000, 15.99999999999999289, 0.0000000000000000000 ) ) ;
#440 = EDGE_LOOP ( 'NONE', ( #1089, #300, #73, #446 ) ) ;
#441 = EDGE_CURVE ( 'NONE', #344, #623, #713, .T. ) ;
#442 = DIRECTION ( 'NONE',  ( 0.0000000000000000000, 0.0000000000000000000, 1.000000000000000000 ) ) ;
#443 = CARTESIAN_POINT ( 'NONE',  ( 28.69999999999999574, 28.39999999999999858, -1.700000000000004396 ) ) ;
#444 = VERTEX_POINT ( 'NONE', #451 ) ;
#445 = VECTOR ( 'NONE', #1035, 1000.000000000000000 ) ;
#446 = ORIENTED_EDGE ( 'NONE', *, *, #1071, .T. ) ;
#447 = DIRECTION ( 'NONE',  ( -0.0000000000000000000, 1.000000000000000000, -0.0000000000000000000 ) ) ;
#448 = CYLINDRICAL_SURFACE ( 'NONE', #75, 40.00000000000000000 ) ;
#449 = ORIENTED_EDGE ( 'NONE', *, *, #1097, .F. ) ;
#450 = CARTESIAN_POINT ( 'NONE',  ( 25.49999999999998224, 36.00000000000000000, 1.700000000000004396 ) ) ;
#451 = CARTESIAN_POINT ( 'NONE',  ( 35.29999999999999005, 0.0000000000000000000, -1.700000000000004396 ) ) ;
#452 = ORIENTED_EDGE ( 'NONE', *, *, #256, .T. ) ;
#453 = ADVANCED_FACE ( 'NONE', ( #56 ), #626, .T. ) ;
#454 = DIRECTION ( 'NONE',  ( -0.0000000000000000000, -0.0000000000000000000, -1.000000000000000000 ) ) ;
#455 = VECTOR ( 'NONE', #1011, 1000.000000000000000 ) ;
#456 = CARTESIAN_POINT ( 'NONE',  ( -25.49999999999999645, 36.00000000000000000, -1.700000000000004396 ) ) ;
#457 = ORIENTED_EDGE ( 'NONE', *, *, #940, .T. ) ;
#458 =( GEOMETRIC_REPRESENTATION_CONTEXT ( 3 ) GLOBAL_UNCERTAINTY_ASSIGNED_CONTEXT ( ( #5 ) ) GLOBAL_UNIT_ASSIGNED_CONTEXT ( ( #349, #351, #13 ) ) REPRESENTATION_CONTEXT ( 'NONE', 'WORKASPACE' ) );
#459 = EDGE_CURVE ( 'NONE', #371, #204, #1021, .T. ) ;
#460 = ORIENTED_EDGE ( 'NONE', *, *, #98, .T. ) ;
#461 = LINE ( 'NONE', #964, #214 ) ;
#462 = CARTESIAN_POINT ( 'NONE',  ( -32.00000000000000000, 36.00000000000000000, -1.700000000000004396 ) ) ;
#463 = DIRECTION ( 'NONE',  ( -0.0000000000000000000, 1.000000000000000000, -0.0000000000000000000 ) ) ;
#464 = CARTESIAN_POINT ( 'NONE',  ( 10.36652677222987151, 37.33449863109168376, 22.74948848261952961 ) ) ;
#465 = ORIENTED_EDGE ( 'NONE', *, *, #619, .F. ) ;
#466 = CYLINDRICAL_SURFACE ( 'NONE', #420, 6.499999999999998224 ) ;
#467 = CARTESIAN_POINT ( 'NONE',  ( 32.00000000000000000, 28.39999999999999858, 1.700000000000004396 ) ) ;
#468 = VERTEX_POINT ( 'NONE', #708 ) ;
#469 = DIRECTION ( 'NONE',  ( -1.000000000000000000, 0.0000000000000000000, 0.0000000000000000000 ) ) ;
#470 = AXIS2_PLACEMENT_3D ( 'NONE', #153, #1010, #493 ) ;
#471 = EDGE_CURVE ( 'NONE', #332, #587, #945, .T. ) ;
#472 = VECTOR ( 'NONE', #981, 1000.000000000000000 ) ;
#473 = ADVANCED_BREP_SHAPE_REPRESENTATION ( '03_033_Handle holder', ( #710, #416 ), #20 ) ;
#474 = DIRECTION ( 'NONE',  ( 0.0000000000000000000, 0.0000000000000000000, 1.000000000000000000 ) ) ;
#475 = VERTEX_POINT ( 'NONE', #368 ) ;
#476 = DIRECTION ( 'NONE',  ( -0.0000000000000000000, 1.000000000000000000, -0.0000000000000000000 ) ) ;
#477 = CARTESIAN_POINT ( 'NONE',  ( -32.00000000000000000, 28.39999999999999858, 8.200000000000004619 ) ) ;
#478 = EDGE_CURVE ( 'NONE', #1064, #736, #525, .T. ) ;
#479 = DIRECTION ( 'NONE',  ( -0.08715574274765836016, 0.9961946980917455452, 0.0000000000000000000 ) ) ;
#480 = CARTESIAN_POINT ( 'NONE',  ( 0.0000000000000000000, 0.0000000000000000000, 0.0000000000000000000 ) ) ;
#481 = VERTEX_POINT ( 'NONE', #717 ) ;
#482 = DIRECTION ( 'NONE',  ( 1.000000000000000000, 0.0000000000000000000, -0.0000000000000000000 ) ) ;
#483 = FACE_OUTER_BOUND ( 'NONE', #990, .T. ) ;
#484 = DIRECTION ( 'NONE',  ( 1.000000000000000000, -3.817613283399663938E-16, 0.0000000000000000000 ) ) ;
#485 = ORIENTED_EDGE ( 'NONE', *, *, #256, .F. ) ;
#486 = DIRECTION ( 'NONE',  ( -0.0000000000000000000, 1.000000000000000000, -0.0000000000000000000 ) ) ;
#487 = ORIENTED_EDGE ( 'NONE', *, *, #152, .T. ) ;
#488 = VERTEX_POINT ( 'NONE', #450 ) ;
#489 = DIRECTION ( 'NONE',  ( -0.0000000000000000000, 1.000000000000000000, -0.0000000000000000000 ) ) ;
#490 = CARTESIAN_POINT ( 'NONE',  ( -8.500000000000000000, 0.0000000000000000000, -1.040949779275250140E-15 ) ) ;
#491 = DIRECTION ( 'NONE',  ( -0.9961946980917455452, 0.08715574274765836016, -4.320305823558447760E-17 ) ) ;
#492 = PRESENTATION_LAYER_ASSIGNMENT (  '', '', ( #216 ) ) ;
#493 = DIRECTION ( 'NONE',  ( 0.0000000000000000000, 0.0000000000000000000, 1.000000000000000000 ) ) ;
#494 = EDGE_CURVE ( 'NONE', #137, #337, #36, .T. ) ;
#495 = LINE ( 'NONE', #509, #1000 ) ;
#496 = CIRCLE ( 'NONE', #77, 6.499999999999998224 ) ;
#497 = CARTESIAN_POINT ( 'NONE',  ( 0.0000000000000000000, 0.0000000000000000000, 0.0000000000000000000 ) ) ;
#498 = SURFACE_STYLE_FILL_AREA ( #602 ) ;
#499 = CARTESIAN_POINT ( 'NONE',  ( 32.00000000000000000, 36.00000000000000000, -1.700000000000004396 ) ) ;
#500 = VERTEX_POINT ( 'NONE', #397 ) ;
#501 = CARTESIAN_POINT ( 'NONE',  ( -32.00000000000000000, 36.00000000000000000, 1.700000000000004396 ) ) ;
#502 = CYLINDRICAL_SURFACE ( 'NONE', #1009, 6.499999999999998224 ) ;
#503 = ORIENTED_EDGE ( 'NONE', *, *, #732, .F. ) ;
#504 = CARTESIAN_POINT ( 'NONE',  ( 32.00000000000000000, 0.0000000000000000000, 1.700000000000004396 ) ) ;
#505 = VERTEX_POINT ( 'NONE', #139 ) ;
#506 = DIRECTION ( 'NONE',  ( 0.0000000000000000000, 1.000000000000000000, 0.0000000000000000000 ) ) ;
#507 = ORIENTED_EDGE ( 'NONE', *, *, #807, .T. ) ;
#508 = CARTESIAN_POINT ( 'NONE',  ( -32.00000000000000000, 36.00000000000000000, 1.700000000000004396 ) ) ;
#509 = CARTESIAN_POINT ( 'NONE',  ( -35.29999999999999716, 36.00000000000000000, -1.700000000000004396 ) ) ;
#510 = CARTESIAN_POINT ( 'NONE',  ( 0.0000000000000000000, 38.00000000000000000, 0.0000000000000000000 ) ) ;
#511 = AXIS2_PLACEMENT_3D ( 'NONE', #781, #353, #442 ) ;
#512 = EDGE_LOOP ( 'NONE', ( #460, #685, #591, #1093 ) ) ;
#513 = DIRECTION ( 'NONE',  ( 0.0000000000000000000, -1.000000000000000000, 0.0000000000000000000 ) ) ;
#514 = VECTOR ( 'NONE', #19, 1000.000000000000000 ) ;
#515 = ORIENTED_EDGE ( 'NONE', *, *, #711, .F. ) ;
#516 = DIRECTION ( 'NONE',  ( 0.0000000000000000000, 0.0000000000000000000, -1.000000000000000000 ) ) ;
#517 = CARTESIAN_POINT ( 'NONE',  ( -35.29999999999999716, 36.00000000000000000, 1.700000000000004396 ) ) ;
#518 = AXIS2_PLACEMENT_3D ( 'NONE', #510, #180, #436 ) ;
#519 = EDGE_CURVE ( 'NONE', #488, #140, #354, .T. ) ;
#520 = DIRECTION ( 'NONE',  ( 0.0000000000000000000, 0.0000000000000000000, 1.000000000000000000 ) ) ;
#521 = ORIENTED_EDGE ( 'NONE', *, *, #580, .T. ) ;
#522 = CARTESIAN_POINT ( 'NONE',  ( -10.24977327051848341, 36.00000000000000000, 38.66448173586405090 ) ) ;
#523 = ADVANCED_FACE ( 'NONE', ( #725 ), #227, .F. ) ;
#524 = CIRCLE ( 'NONE', #705, 6.499999999999998224 ) ;
#525 = CIRCLE ( 'NONE', #301, 6.499999999999998224 ) ;
#526 = DIRECTION ( 'NONE',  ( 0.0000000000000000000, 0.0000000000000000000, 1.000000000000000000 ) ) ;
#527 = ADVANCED_FACE ( 'NONE', ( #408 ), #982, .F. ) ;
#528 = FACE_BOUND ( 'NONE', #688, .T. ) ;
#529 = DIRECTION ( 'NONE',  ( 3.817613283399663938E-16, 1.000000000000000000, 0.0000000000000000000 ) ) ;
#530 = EDGE_LOOP ( 'NONE', ( #438, #58, #799, #803 ) ) ;
#531 = VECTOR ( 'NONE', #290, 1000.000000000000000 ) ;
#532 = PRODUCT_DEFINITION_SHAPE ( 'NONE', 'NONE',  #852 ) ;
#533 = LINE ( 'NONE', #1015, #146 ) ;
#534 = DIRECTION ( 'NONE',  ( 1.000000000000000000, -3.817613283399663938E-16, 0.0000000000000000000 ) ) ;
#535 = AXIS2_PLACEMENT_3D ( 'NONE', #508, #253, #939 ) ;
#536 = EDGE_CURVE ( 'NONE', #645, #148, #108, .T. ) ;
#537 = CARTESIAN_POINT ( 'NONE',  ( -28.70000000000000995, 0.0000000000000000000, 1.700000000000003952 ) ) ;
#538 = ORIENTED_EDGE ( 'NONE', *, *, #494, .T. ) ;
#539 = CIRCLE ( 'NONE', #3, 40.00000000000000000 ) ;
#540 = EDGE_CURVE ( 'NONE', #1052, #575, #188, .T. ) ;
#541 = CYLINDRICAL_SURFACE ( 'NONE', #1061, 25.00000000000000000 ) ;
#542 = ORIENTED_EDGE ( 'NONE', *, *, #580, .F. ) ;
#543 = DIRECTION ( 'NONE',  ( 0.0000000000000000000, 1.000000000000000000, 0.0000000000000000000 ) ) ;
#544 = EDGE_LOOP ( 'NONE', ( #866, #882, #34, #1025, #758 ) ) ;
#545 = PRESENTATION_STYLE_ASSIGNMENT (( #1012 ) ) ;
#546 = ORIENTED_EDGE ( 'NONE', *, *, #1016, .T. ) ;
#547 = DIRECTION ( 'NONE',  ( -0.0000000000000000000, 1.000000000000000000, -0.0000000000000000000 ) ) ;
#548 = ORIENTED_EDGE ( 'NONE', *, *, #98, .F. ) ;
#549 = EDGE_CURVE ( 'NONE', #736, #432, #583, .T. ) ;
#550 = DIRECTION ( 'NONE',  ( 0.0000000000000000000, 0.0000000000000000000, 1.000000000000000000 ) ) ;
#551 = LINE ( 'NONE', #149, #70 ) ;
#552 = LINE ( 'NONE', #114, #514 ) ;
#553 = DIRECTION ( 'NONE',  ( 0.0000000000000000000, 0.0000000000000000000, 1.000000000000000000 ) ) ;
#554 = LINE ( 'NONE', #667, #894 ) ;
#555 = AXIS2_PLACEMENT_3D ( 'NONE', #1073, #220, #902 ) ;
#556 = EDGE_CURVE ( 'NONE', #917, #427, #752, .T. ) ;
#557 = VERTEX_POINT ( 'NONE', #1079 ) ;
#558 = CARTESIAN_POINT ( 'NONE',  ( -32.00000000000000000, 0.0000000000000000000, 1.700000000000004396 ) ) ;
#559 = CIRCLE ( 'NONE', #723, 3.300000000000000711 ) ;
#560 = DIRECTION ( 'NONE',  ( -0.0000000000000000000, -0.0000000000000000000, -1.000000000000000000 ) ) ;
#561 = EDGE_LOOP ( 'NONE', ( #704, #38, #967, #963, #135 ) ) ;
#562 = EDGE_LOOP ( 'NONE', ( #893, #359, #155, #507, #570 ) ) ;
#563 = ADVANCED_FACE ( 'NONE', ( #210, #528, #918 ), #817, .T. ) ;
#564 = DIRECTION ( 'NONE',  ( 0.0000000000000000000, 0.0000000000000000000, 1.000000000000000000 ) ) ;
#565 = VERTEX_POINT ( 'NONE', #826 ) ;
#566 = EDGE_LOOP ( 'NONE', ( #966, #774, #768, #818, #1078 ) ) ;
#567 = CIRCLE ( 'NONE', #947, 3.299999999999990496 ) ;
#568 = CIRCLE ( 'NONE', #319, 6.499999999999999112 ) ;
#569 = CARTESIAN_POINT ( 'NONE',  ( 0.0000000000000000000, 36.00000000000000000, 0.0000000000000000000 ) ) ;
#570 = ORIENTED_EDGE ( 'NONE', *, *, #860, .T. ) ;
#571 = DIRECTION ( 'NONE',  ( 0.08715574274765838791, 0.9961946980917455452, 5.336750069161498358E-18 ) ) ;
#572 = AXIS2_PLACEMENT_3D ( 'NONE', #165, #8, #433 ) ;
#573 = VERTEX_POINT ( 'NONE', #307 ) ;
#574 = SURFACE_STYLE_FILL_AREA ( #1002 ) ;
#575 = VERTEX_POINT ( 'NONE', #900 ) ;
#576 = CARTESIAN_POINT ( 'NONE',  ( 28.70000000000000284, 36.00000000000000000, -1.700000000000004396 ) ) ;
#577 = CARTESIAN_POINT ( 'NONE',  ( 32.00000000000000000, 28.39999999999999858, 1.700000000000004396 ) ) ;
#578 = CARTESIAN_POINT ( 'NONE',  ( -32.00000000000000000, 36.00000000000000000, 8.200000000000004619 ) ) ;
#579 = CARTESIAN_POINT ( 'NONE',  ( 8.499999999999969802, 0.0000000000000000000, 39.08644266238615472 ) ) ;
#580 = EDGE_CURVE ( 'NONE', #12, #855, #1092, .T. ) ;
#581 = DIRECTION ( 'NONE',  ( 0.9961946980917455452, 0.08715574274765836016, -4.320305823558447760E-17 ) ) ;
#582 = VECTOR ( 'NONE', #54, 1000.000000000000000 ) ;
#583 = LINE ( 'NONE', #1069, #849 ) ;
#584 = ORIENTED_EDGE ( 'NONE', *, *, #1054, .T. ) ;
#585 = DIRECTION ( 'NONE',  ( -0.0000000000000000000, 1.000000000000000000, -0.0000000000000000000 ) ) ;
#586 = CARTESIAN_POINT ( 'NONE',  ( 32.00000000000000000, 36.00000000000000000, 8.200000000000002842 ) ) ;
#587 = VERTEX_POINT ( 'NONE', #477 ) ;
#588 = ORIENTED_EDGE ( 'NONE', *, *, #52, .F. ) ;
#589 = CARTESIAN_POINT ( 'NONE',  ( 8.499999999999998224, 15.99999999999999289, 40.00000000000000000 ) ) ;
#590 = ORIENTED_EDGE ( 'NONE', *, *, #940, .F. ) ;
#591 = ORIENTED_EDGE ( 'NONE', *, *, #116, .T. ) ;
#592 = FILL_AREA_STYLE_COLOUR ( '', #798 ) ;
#593 = AXIS2_PLACEMENT_3D ( 'NONE', #558, #40, #801 ) ;
#594 = CARTESIAN_POINT ( 'NONE',  ( -35.29999999999999716, 28.39999999999999858, -1.700000000000004396 ) ) ;
#595 = ORIENTED_EDGE ( 'NONE', *, *, #422, .F. ) ;
#596 = CYLINDRICAL_SURFACE ( 'NONE', #21, 3.299999999999997158 ) ;
#597 = ORIENTED_EDGE ( 'NONE', *, *, #718, .F. ) ;
#598 = CARTESIAN_POINT ( 'NONE',  ( 0.0000000000000000000, 0.0000000000000000000, 0.0000000000000000000 ) ) ;
#599 = LINE ( 'NONE', #576, #730 ) ;
#600 = ORIENTED_EDGE ( 'NONE', *, *, #540, .T. ) ;
#601 = EDGE_CURVE ( 'NONE', #143, #266, #224, .T. ) ;
#602 = FILL_AREA_STYLE ('',( #257 ) ) ;
#603 = DIRECTION ( 'NONE',  ( -0.0000000000000000000, 1.000000000000000000, -0.0000000000000000000 ) ) ;
#604 = CARTESIAN_POINT ( 'NONE',  ( -25.50000000000000355, 36.00000000000000000, 1.700000000000004396 ) ) ;
#605 = DIRECTION ( 'NONE',  ( 0.0000000000000000000, -1.000000000000000000, 0.0000000000000000000 ) ) ;
#606 = CARTESIAN_POINT ( 'NONE',  ( 32.00000000000000000, 0.0000000000000000000, -1.700000000000004396 ) ) ;
#607 = STYLED_ITEM ( 'NONE', ( #545 ), #473 ) ;
#608 = ORIENTED_EDGE ( 'NONE', *, *, #385, .T. ) ;
#609 = FACE_OUTER_BOUND ( 'NONE', #6, .T. ) ;
#610 = LINE ( 'NONE', #1090, #157 ) ;
#611 = DIRECTION ( 'NONE',  ( 0.0000000000000000000, -0.0000000000000000000, -1.000000000000000000 ) ) ;
#612 = ADVANCED_FACE ( 'NONE', ( #946 ), #1044, .F. ) ;
#613 = LINE ( 'NONE', #923, #358 ) ;
#614 = AXIS2_PLACEMENT_3D ( 'NONE', #734, #292, #230 ) ;
#615 = EDGE_CURVE ( 'NONE', #787, #167, #554, .T. ) ;
#616 = CARTESIAN_POINT ( 'NONE',  ( -28.70000000000000995, 0.0000000000000000000, 1.700000000000003952 ) ) ;
#617 = ADVANCED_FACE ( 'NONE', ( #394 ), #793, .F. ) ;
#618 = DIRECTION ( 'NONE',  ( -0.08715574274765837404, 0.9961946980917455452, 3.779777825263957277E-18 ) ) ;
#619 = EDGE_CURVE ( 'NONE', #97, #772, #326, .T. ) ;
#620 = PRODUCT_RELATED_PRODUCT_CATEGORY ( 'part', '', ( #862 ) ) ;
#621 = ORIENTED_EDGE ( 'NONE', *, *, #867, .F. ) ;
#622 = PLANE ( 'NONE',  #341 ) ;
#623 = VERTEX_POINT ( 'NONE', #163 ) ;
#624 = CIRCLE ( 'NONE', #821, 8.500000000000000000 ) ;
#625 = CLOSED_SHELL ( 'NONE', ( #1038, #1062, #706, #612, #1076, #709, #733, #563, #185, #453, #1055, #29, #222, #360, #972, #640, #124, #295, #617, #388, #978, #648, #212, #35, #18, #890, #378, #218, #700, #887, #527, #633, #305, #523 ) ) ;
#626 = PLANE ( 'NONE',  #403 ) ;
#627 = EDGE_CURVE ( 'NONE', #170, #629, #726, .T. ) ;
#628 = DIRECTION ( 'NONE',  ( 0.0000000000000000000, 0.0000000000000000000, 1.000000000000000000 ) ) ;
#629 = VERTEX_POINT ( 'NONE', #151 ) ;
#630 = CARTESIAN_POINT ( 'NONE',  ( -8.500000000000000000, 0.0000000000000000000, -1.040949779275250140E-15 ) ) ;
#631 = DIRECTION ( 'NONE',  ( 0.0000000000000000000, 0.0000000000000000000, 1.000000000000000000 ) ) ;
#632 = ORIENTED_EDGE ( 'NONE', *, *, #556, .F. ) ;
#633 = ADVANCED_FACE ( 'NONE', ( #1105 ), #320, .F. ) ;
#634 = AXIS2_PLACEMENT_3D ( 'NONE', #579, #914, #753 ) ;
#635 = EDGE_CURVE ( 'NONE', #645, #51, #766, .T. ) ;
#636 = VECTOR ( 'NONE', #618, 1000.000000000000114 ) ;
#637 = EDGE_LOOP ( 'NONE', ( #754, #255, #816, #874, #976 ) ) ;
#638 = DIRECTION ( 'NONE',  ( 0.0000000000000000000, 0.0000000000000000000, 1.000000000000000000 ) ) ;
#639 = VECTOR ( 'NONE', #232, 1000.000000000000000 ) ;
#640 = ADVANCED_FACE ( 'NONE', ( #355 ), #671, .F. ) ;
#641 = CARTESIAN_POINT ( 'NONE',  ( -32.00000000000000000, 0.0000000000000000000, -1.700000000000004396 ) ) ;
#642 = CARTESIAN_POINT ( 'NONE',  ( 0.0000000000000000000, 38.00000000000000000, 0.0000000000000000000 ) ) ;
#643 = CARTESIAN_POINT ( 'NONE',  ( -38.50000000000000000, 28.39999999999999503, 1.700000000000003952 ) ) ;
#644 = DIRECTION ( 'NONE',  ( 0.0000000000000000000, 0.0000000000000000000, 1.000000000000000000 ) ) ;
#645 = VERTEX_POINT ( 'NONE', #241 ) ;
#646 = AXIS2_PLACEMENT_3D ( 'NONE', #716, #189, #1063 ) ;
#647 = EDGE_CURVE ( 'NONE', #314, #468, #293, .T. ) ;
#648 = ADVANCED_FACE ( 'NONE', ( #1060 ), #846, .F. ) ;
#649 = DIRECTION ( 'NONE',  ( 0.0000000000000000000, 0.0000000000000000000, 1.000000000000000000 ) ) ;
#650 = LINE ( 'NONE', #643, #897 ) ;
#651 = ORIENTED_EDGE ( 'NONE', *, *, #459, .F. ) ;
#652 = DIRECTION ( 'NONE',  ( -0.0000000000000000000, 1.000000000000000000, -0.0000000000000000000 ) ) ;
#653 = CARTESIAN_POINT ( 'NONE',  ( -25.50000000000000355, 28.39999999999999858, 1.700000000000003952 ) ) ;
#654 = ORIENTED_EDGE ( 'NONE', *, *, #879, .T. ) ;
#655 = EDGE_CURVE ( 'NONE', #933, #381, #141, .T. ) ;
#656 = DIRECTION ( 'NONE',  ( 0.0000000000000000000, 0.0000000000000000000, 1.000000000000000000 ) ) ;
#657 = CARTESIAN_POINT ( 'NONE',  ( 8.499999999999969802, 16.00000000000000000, 39.08644266238615472 ) ) ;
#658 = ORIENTED_EDGE ( 'NONE', *, *, #422, .T. ) ;
#659 = FACE_OUTER_BOUND ( 'NONE', #1022, .T. ) ;
#660 =( NAMED_UNIT ( * ) SI_UNIT ( $, .STERADIAN. ) SOLID_ANGLE_UNIT ( ) );
#661 = ORIENTED_EDGE ( 'NONE', *, *, #948, .F. ) ;
#662 = DIRECTION ( 'NONE',  ( -0.0000000000000000000, -1.000000000000000000, -0.0000000000000000000 ) ) ;
#663 = EDGE_CURVE ( 'NONE', #719, #332, #109, .T. ) ;
#664 = DIRECTION ( 'NONE',  ( -0.0000000000000000000, 1.000000000000000000, -0.0000000000000000000 ) ) ;
#665 = DIRECTION ( 'NONE',  ( 0.0000000000000000000, 0.0000000000000000000, 1.000000000000000000 ) ) ;
#666 = CIRCLE ( 'NONE', #845, 6.499999999999999112 ) ;
#667 = CARTESIAN_POINT ( 'NONE',  ( 38.50000000000000000, 28.39999999999999858, 1.700000000000003952 ) ) ;
#668 = DIRECTION ( 'NONE',  ( 0.0000000000000000000, 0.0000000000000000000, -1.000000000000000000 ) ) ;
#669 = DIRECTION ( 'NONE',  ( -0.0000000000000000000, 1.000000000000000000, -0.0000000000000000000 ) ) ;
#670 = EDGE_CURVE ( 'NONE', #314, #51, #191, .T. ) ;
#671 = PLANE ( 'NONE',  #634 ) ;
#672 = ORIENTED_EDGE ( 'NONE', *, *, #677, .T. ) ;
#673 = CARTESIAN_POINT ( 'NONE',  ( -8.500000000000017764, 16.00000000000000000, 39.08644266238614762 ) ) ;
#674 = LINE ( 'NONE', #932, #873 ) ;
#675 = EDGE_LOOP ( 'NONE', ( #375, #934, #66, #393 ) ) ;
#676 =( NAMED_UNIT ( * ) SI_UNIT ( $, .STERADIAN. ) SOLID_ANGLE_UNIT ( ) );
#677 = EDGE_CURVE ( 'NONE', #623, #475, #131, .T. ) ;
#678 = DIRECTION ( 'NONE',  ( -0.0000000000000000000, 1.000000000000000000, -0.0000000000000000000 ) ) ;
#679 =( BOUNDED_CURVE ( )  B_SPLINE_CURVE ( 3, ( #132, #975, #219, #813 ),
 .UNSPECIFIED., .F., .T. ) 
 B_SPLINE_CURVE_WITH_KNOTS ( ( 4, 4 ),
 ( 1.784929009868965410, 1.829931123274451510 ),
 .UNSPECIFIED. ) 
 CURVE ( )  GEOMETRIC_REPRESENTATION_ITEM ( )  RATIONAL_B_SPLINE_CURVE ( ( 1.000000000000000000, 0.9998312412694444484, 0.9998312412694444484, 1.000000000000000000 ) ) 
 REPRESENTATION_ITEM ( '' )  );
#680 = DIRECTION ( 'NONE',  ( 0.0000000000000000000, -1.000000000000000000, 0.0000000000000000000 ) ) ;
#681 = SURFACE_SIDE_STYLE ('',( #498 ) ) ;
#682 = ORIENTED_EDGE ( 'NONE', *, *, #790, .F. ) ;
#683 = AXIS2_PLACEMENT_3D ( 'NONE', #598, #506, #858 ) ;
#684 = DIRECTION ( 'NONE',  ( -0.0000000000000000000, 1.000000000000000000, -0.0000000000000000000 ) ) ;
#685 = ORIENTED_EDGE ( 'NONE', *, *, #104, .F. ) ;
#686 = LINE ( 'NONE', #335, #11 ) ;
#687 = DIRECTION ( 'NONE',  ( 0.0000000000000000000, 0.0000000000000000000, 1.000000000000000000 ) ) ;
#688 = EDGE_LOOP ( 'NONE', ( #121, #740, #112, #342, #101 ) ) ;
#689 = CARTESIAN_POINT ( 'NONE',  ( 25.50000000000000355, 36.00000000000000000, -1.700000000000004396 ) ) ;
#690 = AXIS2_PLACEMENT_3D ( 'NONE', #244, #415, #235 ) ;
#691 = EDGE_CURVE ( 'NONE', #468, #97, #610, .T. ) ;
#692 = DIRECTION ( 'NONE',  ( 0.0000000000000000000, -1.000000000000000000, 0.0000000000000000000 ) ) ;
#693 = VECTOR ( 'NONE', #454, 1000.000000000000000 ) ;
#694 = CARTESIAN_POINT ( 'NONE',  ( 10.42475059757033407, 38.00000000000000000, 22.72277656842264193 ) ) ;
#695 = CARTESIAN_POINT ( 'NONE',  ( -32.00000000000000000, 36.00000000000000000, 1.700000000000004396 ) ) ;
#696 = SHAPE_DEFINITION_REPRESENTATION ( #532, #473 ) ;
#697 = CARTESIAN_POINT ( 'NONE',  ( -10.24977327051848341, 36.00000000000000000, 22.80223997555864912 ) ) ;
#698 = DIRECTION ( 'NONE',  ( 0.0000000000000000000, -1.000000000000000000, 0.0000000000000000000 ) ) ;
#699 = ORIENTED_EDGE ( 'NONE', *, *, #769, .F. ) ;
#700 = ADVANCED_FACE ( 'NONE', ( #841 ), #410, .F. ) ;
#701 = VERTEX_POINT ( 'NONE', #88 ) ;
#702 = DIRECTION ( 'NONE',  ( -0.0000000000000000000, 1.000000000000000000, -0.0000000000000000000 ) ) ;
#703 = AXIS2_PLACEMENT_3D ( 'NONE', #780, #270, #628 ) ;
#704 = ORIENTED_EDGE ( 'NONE', *, *, #903, .F. ) ;
#705 = AXIS2_PLACEMENT_3D ( 'NONE', #999, #664, #154 ) ;
#706 = ADVANCED_FACE ( 'NONE', ( #186 ), #466, .F. ) ;
#707 = DIRECTION ( 'NONE',  ( 0.0000000000000000000, 0.0000000000000000000, 1.000000000000000000 ) ) ;
#708 = CARTESIAN_POINT ( 'NONE',  ( 0.0000000000000000000, 36.00000000000000000, -40.00000000000000000 ) ) ;
#709 = ADVANCED_FACE ( 'NONE', ( #338 ), #1036, .T. ) ;
#710 = MANIFOLD_SOLID_BREP ( 'Stirnsenkung Langloch für M6 Flachkopfschraube mit Schlitz2', #625 ) ;
#711 = EDGE_CURVE ( 'NONE', #148, #785, #437, .T. ) ;
#712 = EDGE_LOOP ( 'NONE', ( #1019, #177, #986, #487 ) ) ;
#713 = CIRCLE ( 'NONE', #302, 6.499999999999998224 ) ;
#714 = EDGE_LOOP ( 'NONE', ( #9, #538, #110, #276, #853, #55 ) ) ;
#715 = EDGE_LOOP ( 'NONE', ( #822, #100, #1013, #1008 ) ) ;
#716 = CARTESIAN_POINT ( 'NONE',  ( -32.00000000000000000, 28.39999999999999858, -1.700000000000004396 ) ) ;
#717 = CARTESIAN_POINT ( 'NONE',  ( 25.50000000000000355, 28.39999999999999503, -1.700000000000004396 ) ) ;
#718 = EDGE_CURVE ( 'NONE', #198, #855, #383, .T. ) ;
#719 = VERTEX_POINT ( 'NONE', #859 ) ;
#720 = DIRECTION ( 'NONE',  ( 0.0000000000000000000, -0.0000000000000000000, 1.000000000000000000 ) ) ;
#721 = DIRECTION ( 'NONE',  ( 0.0000000000000000000, -0.0000000000000000000, 1.000000000000000000 ) ) ;
#722 = CIRCLE ( 'NONE', #278, 6.499999999999998224 ) ;
#723 = AXIS2_PLACEMENT_3D ( 'NONE', #899, #476, #150 ) ;
#724 = EDGE_CURVE ( 'NONE', #2, #761, #674, .T. ) ;
#725 = FACE_OUTER_BOUND ( 'NONE', #955, .T. ) ;
#726 = CIRCLE ( 'NONE', #42, 3.299999999999990496 ) ;
#727 = CARTESIAN_POINT ( 'NONE',  ( -10.42475059757033229, 38.00000000000000000, 22.72277656842264193 ) ) ;
#728 = ORIENTED_EDGE ( 'NONE', *, *, #104, .T. ) ;
#729 = DIRECTION ( 'NONE',  ( -0.0000000000000000000, -0.0000000000000000000, -1.000000000000000000 ) ) ;
#730 = VECTOR ( 'NONE', #486, 1000.000000000000000 ) ;
#731 = CARTESIAN_POINT ( 'NONE',  ( -10.42475059757033407, 38.00000000000000000, 4.521014898202126024E-16 ) ) ;
#732 = EDGE_CURVE ( 'NONE', #337, #1028, #1075, .T. ) ;
#733 = ADVANCED_FACE ( 'NONE', ( #23, #197, #366 ), #857, .F. ) ;
#734 = CARTESIAN_POINT ( 'NONE',  ( -32.00000000000000000, 28.39999999999999858, 1.700000000000004396 ) ) ;
#735 = CARTESIAN_POINT ( 'NONE',  ( -25.50000000000000355, 28.39999999999999858, 1.700000000000003952 ) ) ;
#736 = VERTEX_POINT ( 'NONE', #604 ) ;
#737 = CARTESIAN_POINT ( 'NONE',  ( 32.00000000000000000, 36.00000000000000000, 1.700000000000004396 ) ) ;
#738 = FACE_OUTER_BOUND ( 'NONE', #250, .T. ) ;
#739 = EDGE_CURVE ( 'NONE', #444, #842, #567, .T. ) ;
#740 = ORIENTED_EDGE ( 'NONE', *, *, #540, .F. ) ;
#741 = DIRECTION ( 'NONE',  ( -0.0000000000000000000, 1.000000000000000000, -0.0000000000000000000 ) ) ;
#742 = CARTESIAN_POINT ( 'NONE',  ( 8.499999999999969802, 0.0000000000000000000, 39.08644266238615472 ) ) ;
#743 = ORIENTED_EDGE ( 'NONE', *, *, #142, .T. ) ;
#744 = PLANE ( 'NONE',  #265 ) ;
#745 =( LENGTH_UNIT ( ) NAMED_UNIT ( * ) SI_UNIT ( .MILLI., .METRE. ) );
#746 = ORIENTED_EDGE ( 'NONE', *, *, #1033, .F. ) ;
#747 = CARTESIAN_POINT ( 'NONE',  ( 9.669729859572242958, 29.37007347501239352, 38.81824853118469321 ) ) ;
#748 = EDGE_CURVE ( 'NONE', #468, #309, #539, .T. ) ;
#749 = DIRECTION ( 'NONE',  ( 0.0000000000000000000, 0.0000000000000000000, 1.000000000000000000 ) ) ;
#750 = LINE ( 'NONE', #1039, #856 ) ;
#751 = LINE ( 'NONE', #127, #291 ) ;
#752 = CIRCLE ( 'NONE', #614, 3.300000000000000711 ) ;
#753 = DIRECTION ( 'NONE',  ( 7.988709240514010068E-16, 0.0000000000000000000, -1.000000000000000000 ) ) ;
#754 = ORIENTED_EDGE ( 'NONE', *, *, #691, .F. ) ;
#755 = LINE ( 'NONE', #93, #531 ) ;
#756 = DIRECTION ( 'NONE',  ( -0.0000000000000000000, -0.0000000000000000000, -1.000000000000000000 ) ) ;
#757 = VECTOR ( 'NONE', #985, 1000.000000000000000 ) ;
#758 = ORIENTED_EDGE ( 'NONE', *, *, #930, .T. ) ;
#759 = UNCERTAINTY_MEASURE_WITH_UNIT (LENGTH_MEASURE( 1.000000000000000082E-05 ), #333, 'distance_accuracy_value', 'NONE');
#760 = DIRECTION ( 'NONE',  ( -0.0000000000000000000, 1.000000000000000000, -0.0000000000000000000 ) ) ;
#761 = VERTEX_POINT ( 'NONE', #431 ) ;
#762 = AXIS2_PLACEMENT_3D ( 'NONE', #695, #1068, #526 ) ;
#763 = DIRECTION ( 'NONE',  ( 0.0000000000000000000, 0.0000000000000000000, 1.000000000000000000 ) ) ;
#764 = AXIS2_PLACEMENT_3D ( 'NONE', #941, #364, #27 ) ;
#765 = VERTEX_POINT ( 'NONE', #1017 ) ;
#766 = LINE ( 'NONE', #589, #1020 ) ;
#767 = CIRCLE ( 'NONE', #379, 6.499999999999998224 ) ;
#768 = ORIENTED_EDGE ( 'NONE', *, *, #194, .F. ) ;
#769 = EDGE_CURVE ( 'NONE', #736, #910, #74, .T. ) ;
#770 = CARTESIAN_POINT ( 'NONE',  ( 0.0000000000000000000, 38.00000000000000000, 0.0000000000000000000 ) ) ;
#771 = CARTESIAN_POINT ( 'NONE',  ( 38.50000000000000000, 28.39999999999999858, -1.700000000000004396 ) ) ;
#772 = VERTEX_POINT ( 'NONE', #851 ) ;
#773 = CARTESIAN_POINT ( 'NONE',  ( 10.24977327051848519, 36.00000000000000000, 4.445130578951998294E-16 ) ) ;
#774 = ORIENTED_EDGE ( 'NONE', *, *, #739, .T. ) ;
#775 = CARTESIAN_POINT ( 'NONE',  ( -8.500000000000000000, 15.99999999999999289, 0.0000000000000000000 ) ) ;
#776 = EDGE_CURVE ( 'NONE', #488, #344, #755, .T. ) ;
#777 = CARTESIAN_POINT ( 'NONE',  ( 35.30000000000000426, 28.39999999999999858, -1.700000000000004396 ) ) ;
#778 = LINE ( 'NONE', #771, #32 ) ;
#779 = LINE ( 'NONE', #99, #455 ) ;
#780 = CARTESIAN_POINT ( 'NONE',  ( 32.00000000000000000, 28.39999999999999858, -1.700000000000004396 ) ) ;
#781 = CARTESIAN_POINT ( 'NONE',  ( -32.00000000000000000, 36.00000000000000000, -1.700000000000004396 ) ) ;
#782 = ORIENTED_EDGE ( 'NONE', *, *, #125, .T. ) ;
#783 = AXIS2_PLACEMENT_3D ( 'NONE', #1094, #491, #327 ) ;
#784 = EDGE_CURVE ( 'NONE', #371, #1005, #91, .T. ) ;
#785 = VERTEX_POINT ( 'NONE', #387 ) ;
#786 = VECTOR ( 'NONE', #1058, 1000.000000000000000 ) ;
#787 = VERTEX_POINT ( 'NONE', #287 ) ;
#788 = DIRECTION ( 'NONE',  ( 0.0000000000000000000, 0.0000000000000000000, 1.000000000000000000 ) ) ;
#789 = ORIENTED_EDGE ( 'NONE', *, *, #691, .T. ) ;
#790 = EDGE_CURVE ( 'NONE', #701, #500, #750, .T. ) ;
#791 = PLANE ( 'NONE',  #398 ) ;
#792 = ORIENTED_EDGE ( 'NONE', *, *, #363, .T. ) ;
#793 = CYLINDRICAL_SURFACE ( 'NONE', #158, 6.499999999999999112 ) ;
#794 = CYLINDRICAL_SURFACE ( 'NONE', #572, 3.299999999999997158 ) ;
#795 = ORIENTED_EDGE ( 'NONE', *, *, #28, .F. ) ;
#796 = ORIENTED_EDGE ( 'NONE', *, *, #1080, .F. ) ;
#797 = CARTESIAN_POINT ( 'NONE',  ( -32.00000000000000000, 36.00000000000000000, 8.200000000000002842 ) ) ;
#798 = COLOUR_RGB ( '',0.4980392156862745168, 0.4980392156862745168, 0.4980392156862745168 ) ;
#799 = ORIENTED_EDGE ( 'NONE', *, *, #116, .F. ) ;
#800 = ORIENTED_EDGE ( 'NONE', *, *, #732, .T. ) ;
#801 = DIRECTION ( 'NONE',  ( 0.0000000000000000000, 0.0000000000000000000, 1.000000000000000000 ) ) ;
#802 = CARTESIAN_POINT ( 'NONE',  ( 8.500000000000000000, 0.0000000000000000000, 5.204748896376250699E-16 ) ) ;
#803 = ORIENTED_EDGE ( 'NONE', *, *, #556, .T. ) ;
#804 = CARTESIAN_POINT ( 'NONE',  ( -25.50000000000000355, 28.39999999999999858, 1.700000000000003952 ) ) ;
#805 = DIRECTION ( 'NONE',  ( -0.0000000000000000000, -1.000000000000000000, -0.0000000000000000000 ) ) ;
#806 = MECHANICAL_DESIGN_GEOMETRIC_PRESENTATION_REPRESENTATION (  '', ( #216 ), #458 ) ;
#807 = EDGE_CURVE ( 'NONE', #910, #505, #1007, .T. ) ;
#808 = LINE ( 'NONE', #1026, #106 ) ;
#809 = DIRECTION ( 'NONE',  ( -0.0000000000000000000, 1.000000000000000000, -0.0000000000000000000 ) ) ;
#810 = FACE_OUTER_BOUND ( 'NONE', #1050, .T. ) ;
#811 = CARTESIAN_POINT ( 'NONE',  ( 32.00000000000000000, 28.39999999999999858, 1.700000000000004396 ) ) ;
#812 = VECTOR ( 'NONE', #1084, 1000.000000000000000 ) ;
#813 = CARTESIAN_POINT ( 'NONE',  ( -10.24977327051848341, 36.00000000000000000, 38.66448173586405090 ) ) ;
#814 = FACE_OUTER_BOUND ( 'NONE', #714, .T. ) ;
#815 = CARTESIAN_POINT ( 'NONE',  ( 25.50000000000000355, 36.00000000000000000, 1.700000000000003952 ) ) ;
#816 = ORIENTED_EDGE ( 'NONE', *, *, #670, .T. ) ;
#817 = PLANE ( 'NONE',  #875 ) ;
#818 = ORIENTED_EDGE ( 'NONE', *, *, #627, .T. ) ;
#819 = DIRECTION ( 'NONE',  ( 4.336808689942017736E-17, -0.0000000000000000000, 1.000000000000000000 ) ) ;
#820 = DIRECTION ( 'NONE',  ( -0.0000000000000000000, 0.0000000000000000000, -1.000000000000000000 ) ) ;
#821 = AXIS2_PLACEMENT_3D ( 'NONE', #1072, #303, #144 ) ;
#822 = ORIENTED_EDGE ( 'NONE', *, *, #850, .F. ) ;
#823 = FACE_OUTER_BOUND ( 'NONE', #425, .T. ) ;
#824 = CARTESIAN_POINT ( 'NONE',  ( 38.50000000000000000, 36.00000000000000000, 1.700000000000004396 ) ) ;
#825 = ORIENTED_EDGE ( 'NONE', *, *, #125, .F. ) ;
#826 = CARTESIAN_POINT ( 'NONE',  ( -35.29999999999999716, 0.0000000000000000000, -1.700000000000004396 ) ) ;
#827 = ORIENTED_EDGE ( 'NONE', *, *, #87, .T. ) ;
#828 = FACE_OUTER_BOUND ( 'NONE', #929, .T. ) ;
#829 = ORIENTED_EDGE ( 'NONE', *, *, #269, .F. ) ;
#830 = DIRECTION ( 'NONE',  ( -0.0000000000000000000, -0.0000000000000000000, -1.000000000000000000 ) ) ;
#831 = CARTESIAN_POINT ( 'NONE',  ( 0.0000000000000000000, 36.00000000000000000, 0.0000000000000000000 ) ) ;
#832 = EDGE_CURVE ( 'NONE', #475, #1052, #174, .T. ) ;
#833 = ORIENTED_EDGE ( 'NONE', *, *, #519, .F. ) ;
#834 = CARTESIAN_POINT ( 'NONE',  ( -38.50000000000000000, 36.00000000000000000, 1.700000000000004396 ) ) ;
#835 = CARTESIAN_POINT ( 'NONE',  ( 32.00000000000000000, 28.39999999999999858, 1.700000000000004396 ) ) ;
#836 = DIRECTION ( 'NONE',  ( 1.000000000000000000, 0.0000000000000000000, 0.0000000000000000000 ) ) ;
#837 = ORIENTED_EDGE ( 'NONE', *, *, #784, .F. ) ;
#838 = CARTESIAN_POINT ( 'NONE',  ( 9.086373656280422040, 22.70228156024660038, 38.95892591389524284 ) ) ;
#839 = CIRCLE ( 'NONE', #683, 40.00000000000000000 ) ;
#840 = EDGE_CURVE ( 'NONE', #329, #444, #396, .T. ) ;
#841 = FACE_OUTER_BOUND ( 'NONE', #530, .T. ) ;
#842 = VERTEX_POINT ( 'NONE', #286 ) ;
#843 = CIRCLE ( 'NONE', #969, 3.299999999999990496 ) ;
#844 = CARTESIAN_POINT ( 'NONE',  ( 38.50000000000000000, 28.39999999999999858, 1.700000000000003952 ) ) ;
#845 = AXIS2_PLACEMENT_3D ( 'NONE', #1006, #920, #417 ) ;
#846 = PLANE ( 'NONE',  #983 ) ;
#847 = EDGE_CURVE ( 'NONE', #719, #500, #461, .T. ) ;
#848 = ORIENTED_EDGE ( 'NONE', *, *, #324, .T. ) ;
#849 = VECTOR ( 'NONE', #560, 1000.000000000000000 ) ;
#850 = EDGE_CURVE ( 'NONE', #557, #761, #372, .T. ) ;
#851 = CARTESIAN_POINT ( 'NONE',  ( -8.500000000000017764, 0.0000000000000000000, 39.08644266238614762 ) ) ;
#852 = PRODUCT_DEFINITION ( 'UNKNOWN', '', #1081, #968 ) ;
#853 = ORIENTED_EDGE ( 'NONE', *, *, #635, .T. ) ;
#854 = CARTESIAN_POINT ( 'NONE',  ( -10.42475059757033229, 38.00000000000000000, 22.72277656842264193 ) ) ;
#855 = VERTEX_POINT ( 'NONE', #891 ) ;
#856 = VECTOR ( 'NONE', #809, 1000.000000000000000 ) ;
#857 = PLANE ( 'NONE',  #384 ) ;
#858 = DIRECTION ( 'NONE',  ( 0.0000000000000000000, 0.0000000000000000000, 1.000000000000000000 ) ) ;
#859 = CARTESIAN_POINT ( 'NONE',  ( -38.49999999999999289, 36.00000000000000000, 1.700000000000004396 ) ) ;
#860 = EDGE_CURVE ( 'NONE', #505, #701, #190, .T. ) ;
#861 = CARTESIAN_POINT ( 'NONE',  ( 28.70000000000000995, 0.0000000000000000000, 1.700000000000004396 ) ) ;
#862 = PRODUCT ( '03_033_Handle holder', '03_033_Handle holder', '', ( #911 ) ) ;
#863 = ORIENTED_EDGE ( 'NONE', *, *, #860, .F. ) ;
#864 = CIRCLE ( 'NONE', #1047, 3.299999999999990496 ) ;
#865 = VECTOR ( 'NONE', #317, 1000.000000000000000 ) ;
#866 = ORIENTED_EDGE ( 'NONE', *, *, #888, .F. ) ;
#867 = EDGE_CURVE ( 'NONE', #1005, #565, #843, .T. ) ;
#868 = CARTESIAN_POINT ( 'NONE',  ( 0.0000000000000000000, 36.00000000000000000, 0.0000000000000000000 ) ) ;
#869 = CIRCLE ( 'NONE', #1095, 3.300000000000004263 ) ;
#870 = CARTESIAN_POINT ( 'NONE',  ( 8.500000000000000000, 0.0000000000000000000, 5.204748896376250699E-16 ) ) ;
#871 = DIRECTION ( 'NONE',  ( 0.0000000000000000000, 0.0000000000000000000, 1.000000000000000000 ) ) ;
#872 = ORIENTED_EDGE ( 'NONE', *, *, #478, .F. ) ;
#873 = VECTOR ( 'NONE', #936, 1000.000000000000000 ) ;
#874 = ORIENTED_EDGE ( 'NONE', *, *, #152, .F. ) ;
#875 = AXIS2_PLACEMENT_3D ( 'NONE', #831, #133, #721 ) ;
#876 = AXIS2_PLACEMENT_3D ( 'NONE', #1030, #447, #275 ) ;
#877 = ORIENTED_EDGE ( 'NONE', *, *, #677, .F. ) ;
#878 = CARTESIAN_POINT ( 'NONE',  ( -32.00000000000000000, 28.39999999999999858, -1.700000000000004396 ) ) ;
#879 = EDGE_CURVE ( 'NONE', #198, #309, #679, .T. ) ;
#880 = CARTESIAN_POINT ( 'NONE',  ( 32.00000000000000000, 36.00000000000000000, 1.700000000000004396 ) ) ;
#881 = DIRECTION ( 'NONE',  ( 0.0000000000000000000, -1.000000000000000000, 0.0000000000000000000 ) ) ;
#882 = ORIENTED_EDGE ( 'NONE', *, *, #1071, .F. ) ;
#883 = FACE_BOUND ( 'NONE', #544, .T. ) ;
#884 = ORIENTED_EDGE ( 'NONE', *, *, #994, .T. ) ;
#885 = CARTESIAN_POINT ( 'NONE',  ( -32.00000000000000000, 36.00000000000000000, -1.700000000000004396 ) ) ;
#886 = DIRECTION ( 'NONE',  ( -0.0000000000000000000, 1.000000000000000000, -0.0000000000000000000 ) ) ;
#887 = ADVANCED_FACE ( 'NONE', ( #414 ), #1098, .F. ) ;
#888 = EDGE_CURVE ( 'NONE', #765, #263, #1024, .T. ) ;
#889 = DIRECTION ( 'NONE',  ( -0.0000000000000000000, 1.000000000000000000, -0.0000000000000000000 ) ) ;
#890 = ADVANCED_FACE ( 'NONE', ( #111 ), #977, .F. ) ;
#891 = CARTESIAN_POINT ( 'NONE',  ( -8.500000000000000000, 16.00000000000000000, -1.040949779275250140E-15 ) ) ;
#892 = DIRECTION ( 'NONE',  ( 0.0000000000000000000, 0.0000000000000000000, 1.000000000000000000 ) ) ;
#893 = ORIENTED_EDGE ( 'NONE', *, *, #926, .F. ) ;
#894 = VECTOR ( 'NONE', #1096, 1000.000000000000000 ) ;
#895 = ORIENTED_EDGE ( 'NONE', *, *, #832, .T. ) ;
#896 = DIRECTION ( 'NONE',  ( -0.0000000000000000000, 1.000000000000000000, -0.0000000000000000000 ) ) ;
#897 = VECTOR ( 'NONE', #225, 1000.000000000000000 ) ;
#898 = EDGE_CURVE ( 'NONE', #427, #2, #559, .T. ) ;
#899 = CARTESIAN_POINT ( 'NONE',  ( -32.00000000000000000, 28.39999999999999858, 1.700000000000004396 ) ) ;
#900 = CARTESIAN_POINT ( 'NONE',  ( 38.49999999999999289, 36.00000000000000000, -1.700000000000004396 ) ) ;
#901 = DIRECTION ( 'NONE',  ( 3.817613283399663938E-16, 1.000000000000000000, 0.0000000000000000000 ) ) ;
#902 = DIRECTION ( 'NONE',  ( 0.0000000000000000000, 0.0000000000000000000, 1.000000000000000000 ) ) ;
#903 = EDGE_CURVE ( 'NONE', #344, #481, #386, .T. ) ;
#904 = ORIENTED_EDGE ( 'NONE', *, *, #430, .F. ) ;
#905 = VECTOR ( 'NONE', #267, 1000.000000000000000 ) ;
#906 = DIRECTION ( 'NONE',  ( 0.0000000000000000000, 0.0000000000000000000, 1.000000000000000000 ) ) ;
#907 = ORIENTED_EDGE ( 'NONE', *, *, #776, .T. ) ;
#908 = DIRECTION ( 'NONE',  ( 0.0000000000000000000, -1.000000000000000000, 0.0000000000000000000 ) ) ;
#909 = DIRECTION ( 'NONE',  ( -3.817613283399663938E-16, -1.000000000000000000, 0.0000000000000000000 ) ) ;
#910 = VERTEX_POINT ( 'NONE', #735 ) ;
#911 = PRODUCT_CONTEXT ( 'NONE', #83, 'mechanical' ) ;
#912 = CYLINDRICAL_SURFACE ( 'NONE', #59, 8.500000000000000000 ) ;
#913 = AXIS2_PLACEMENT_3D ( 'NONE', #299, #469, #474 ) ;
#914 = DIRECTION ( 'NONE',  ( 1.000000000000000000, 0.0000000000000000000, 7.988709240514010068E-16 ) ) ;
#915 = EDGE_CURVE ( 'NONE', #573, #143, #869, .T. ) ;
#916 = APPLICATION_PROTOCOL_DEFINITION ( 'draft international standard', 'automotive_design', 1998, #409 ) ;
#917 = VERTEX_POINT ( 'NONE', #312 ) ;
#918 = FACE_OUTER_BOUND ( 'NONE', #80, .T. ) ;
#919 = EDGE_LOOP ( 'NONE', ( #260, #789, #365, #1048, #654 ) ) ;
#920 = DIRECTION ( 'NONE',  ( -0.0000000000000000000, 1.000000000000000000, -0.0000000000000000000 ) ) ;
#921 = CARTESIAN_POINT ( 'NONE',  ( 10.24977327051848341, 36.00000000000000000, 38.66448173586405090 ) ) ;
#922 = CARTESIAN_POINT ( 'NONE',  ( 0.0000000000000000000, 0.0000000000000000000, -40.00000000000000000 ) ) ;
#923 = CARTESIAN_POINT ( 'NONE',  ( 35.29999999999999716, 28.40000000000000213, 1.700000000000003952 ) ) ;
#924 = AXIS2_PLACEMENT_3D ( 'NONE', #653, #482, #820 ) ;
#925 = CARTESIAN_POINT ( 'NONE',  ( -25.50000000000000355, 28.39999999999999858, 1.700000000000004396 ) ) ;
#926 = EDGE_CURVE ( 'NONE', #332, #701, #650, .T. ) ;
#927 = CARTESIAN_POINT ( 'NONE',  ( -10.24977327051848341, 36.00000000000000000, 22.80223997555864912 ) ) ;
#928 = CARTESIAN_POINT ( 'NONE',  ( 0.0000000000000000000, 0.0000000000000000000, 0.0000000000000000000 ) ) ;
#929 = EDGE_LOOP ( 'NONE', ( #877, #959, #1031, #1106 ) ) ;
#930 = EDGE_CURVE ( 'NONE', #573, #263, #161, .T. ) ;
#931 = LINE ( 'NONE', #192, #184 ) ;
#932 = CARTESIAN_POINT ( 'NONE',  ( -28.70000000000000995, 0.0000000000000000000, 1.700000000000004396 ) ) ;
#933 = VERTEX_POINT ( 'NONE', #306 ) ;
#934 = ORIENTED_EDGE ( 'NONE', *, *, #471, .F. ) ;
#935 = ORIENTED_EDGE ( 'NONE', *, *, #769, .T. ) ;
#936 = DIRECTION ( 'NONE',  ( -3.817613283399663938E-16, -1.000000000000000000, 0.0000000000000000000 ) ) ;
#937 = CARTESIAN_POINT ( 'NONE',  ( -32.00000000000000000, 28.39999999999999858, 1.700000000000004396 ) ) ;
#938 = EDGE_LOOP ( 'NONE', ( #428, #117, #274, #792, #47 ) ) ;
#939 = DIRECTION ( 'NONE',  ( 0.0000000000000000000, 0.0000000000000000000, 1.000000000000000000 ) ) ;
#940 = EDGE_CURVE ( 'NONE', #573, #170, #1, .T. ) ;
#941 = CARTESIAN_POINT ( 'NONE',  ( 0.0000000000000000000, 15.99999999999999289, 0.0000000000000000000 ) ) ;
#942 = DIRECTION ( 'NONE',  ( -0.0000000000000000000, -0.0000000000000000000, -1.000000000000000000 ) ) ;
#943 = FACE_OUTER_BOUND ( 'NONE', #440, .T. ) ;
#944 = DIRECTION ( 'NONE',  ( -0.0000000000000000000, 1.000000000000000000, -0.0000000000000000000 ) ) ;
#945 = CIRCLE ( 'NONE', #555, 6.499999999999998224 ) ;
#946 = FACE_OUTER_BOUND ( 'NONE', #357, .T. ) ;
#947 = AXIS2_PLACEMENT_3D ( 'NONE', #606, #678, #426 ) ;
#948 = EDGE_CURVE ( 'NONE', #2, #371, #134, .T. ) ;
#949 = ORIENTED_EDGE ( 'NONE', *, *, #655, .T. ) ;
#950 = LINE ( 'NONE', #731, #298 ) ;
#951 = ORIENTED_EDGE ( 'NONE', *, *, #718, .T. ) ;
#952 = CARTESIAN_POINT ( 'NONE',  ( 35.30000000000000426, 28.39999999999999858, 1.700000000000004396 ) ) ;
#953 = ORIENTED_EDGE ( 'NONE', *, *, #601, .T. ) ;
#954 = EDGE_CURVE ( 'NONE', #381, #12, #624, .T. ) ;
#955 = EDGE_LOOP ( 'NONE', ( #233, #991, #699, #96 ) ) ;
#956 = VECTOR ( 'NONE', #970, 1000.000000000000000 ) ;
#957 = LINE ( 'NONE', #870, #262 ) ;
#958 = DIRECTION ( 'NONE',  ( 0.0000000000000000000, 0.0000000000000000000, 1.000000000000000000 ) ) ;
#959 = ORIENTED_EDGE ( 'NONE', *, *, #441, .F. ) ;
#960 = ORIENTED_EDGE ( 'NONE', *, *, #236, .F. ) ;
#961 = AXIS2_PLACEMENT_3D ( 'NONE', #254, #182, #871 ) ;
#962 = ORIENTED_EDGE ( 'NONE', *, *, #903, .T. ) ;
#963 = ORIENTED_EDGE ( 'NONE', *, *, #615, .T. ) ;
#964 = CARTESIAN_POINT ( 'NONE',  ( -38.50000000000000000, 36.00000000000000000, 1.700000000000003952 ) ) ;
#965 = CARTESIAN_POINT ( 'NONE',  ( -32.00000000000000000, 28.39999999999999858, 5.000000000000005329 ) ) ;
#966 = ORIENTED_EDGE ( 'NONE', *, *, #840, .T. ) ;
#967 = ORIENTED_EDGE ( 'NONE', *, *, #43, .T. ) ;
#968 = PRODUCT_DEFINITION_CONTEXT ( 'detailed design', #409, 'design' ) ;
#969 = AXIS2_PLACEMENT_3D ( 'NONE', #641, #356, #631 ) ;
#970 = DIRECTION ( 'NONE',  ( -3.817613283399663938E-16, -1.000000000000000000, 0.0000000000000000000 ) ) ;
#971 = LINE ( 'NONE', #412, #582 ) ;
#972 = ADVANCED_FACE ( 'NONE', ( #200 ), #912, .F. ) ;
#973 = FACE_OUTER_BOUND ( 'NONE', #561, .T. ) ;
#974 = VECTOR ( 'NONE', #908, 1000.000000000000000 ) ;
#975 = CARTESIAN_POINT ( 'NONE',  ( -9.086373656280420263, 22.70228156024661459, 38.95892591389524284 ) ) ;
#976 = ORIENTED_EDGE ( 'NONE', *, *, #179, .T. ) ;
#977 = CYLINDRICAL_SURFACE ( 'NONE', #1032, 3.299999999999995826 ) ;
#978 = ADVANCED_FACE ( 'NONE', ( #828 ), #502, .F. ) ;
#979 = CARTESIAN_POINT ( 'NONE',  ( 28.69999999999999574, 28.39999999999999858, 1.700000000000003952 ) ) ;
#980 = CARTESIAN_POINT ( 'NONE',  ( -32.00000000000000000, 36.00000000000000000, 1.700000000000004396 ) ) ;
#981 = DIRECTION ( 'NONE',  ( 0.0000000000000000000, -1.000000000000000000, 0.0000000000000000000 ) ) ;
#982 = PLANE ( 'NONE',  #913 ) ;
#983 = AXIS2_PLACEMENT_3D ( 'NONE', #418, #334, #323 ) ;
#984 = AXIS2_PLACEMENT_3D ( 'NONE', #777, #698, #611 ) ;
#985 = DIRECTION ( 'NONE',  ( -0.0000000000000000000, 1.000000000000000000, -0.0000000000000000000 ) ) ;
#986 = ORIENTED_EDGE ( 'NONE', *, *, #655, .F. ) ;
#987 = CARTESIAN_POINT ( 'NONE',  ( -8.500000000000000000, 0.0000000000000000000, -1.040949779275250140E-15 ) ) ;
#988 = VECTOR ( 'NONE', #24, 1000.000000000000000 ) ;
#989 = DIRECTION ( 'NONE',  ( -0.0000000000000000000, 1.000000000000000000, -0.0000000000000000000 ) ) ;
#990 = EDGE_LOOP ( 'NONE', ( #126, #546, #239, #503 ) ) ;
#991 = ORIENTED_EDGE ( 'NONE', *, *, #807, .F. ) ;
#992 = CARTESIAN_POINT ( 'NONE',  ( 10.42475059757033407, 38.00000000000000000, 22.72277656842264193 ) ) ;
#993 = ORIENTED_EDGE ( 'NONE', *, *, #370, .F. ) ;
#994 = EDGE_CURVE ( 'NONE', #785, #1028, #950, .T. ) ;
#995 = CARTESIAN_POINT ( 'NONE',  ( -28.70000000000000995, 0.0000000000000000000, -1.700000000000004396 ) ) ;
#996 = ORIENTED_EDGE ( 'NONE', *, *, #206, .T. ) ;
#997 = CARTESIAN_POINT ( 'NONE',  ( -32.00000000000000000, 36.00000000000000000, 5.000000000000000000 ) ) ;
#998 = DIRECTION ( 'NONE',  ( -4.438171800285561697E-16, 0.0000000000000000000, 1.000000000000000000 ) ) ;
#999 = CARTESIAN_POINT ( 'NONE',  ( -32.00000000000000000, 36.00000000000000000, 1.700000000000004396 ) ) ;
#1000 = VECTOR ( 'NONE', #684, 1000.000000000000000 ) ;
#1001 = CIRCLE ( 'NONE', #1088, 8.500000000000000000 ) ;
#1002 = FILL_AREA_STYLE ('',( #592 ) ) ;
#1003 = CARTESIAN_POINT ( 'NONE',  ( 8.499999999999969802, 16.00000000000000000, 39.08644266238615472 ) ) ;
#1004 = ORIENTED_EDGE ( 'NONE', *, *, #1054, .F. ) ;
#1005 = VERTEX_POINT ( 'NONE', #995 ) ;
#1006 = CARTESIAN_POINT ( 'NONE',  ( 32.00000000000000000, 28.39999999999999858, -1.700000000000004396 ) ) ;
#1007 = LINE ( 'NONE', #804, #786 ) ;
#1008 = ORIENTED_EDGE ( 'NONE', *, *, #724, .T. ) ;
#1009 = AXIS2_PLACEMENT_3D ( 'NONE', #46, #296, #644 ) ;
#1010 = DIRECTION ( 'NONE',  ( -1.000000000000000000, 0.0000000000000000000, 0.0000000000000000000 ) ) ;
#1011 = DIRECTION ( 'NONE',  ( -0.0000000000000000000, -0.0000000000000000000, -1.000000000000000000 ) ) ;
#1012 = SURFACE_STYLE_USAGE ( .BOTH. , #67 ) ;
#1013 = ORIENTED_EDGE ( 'NONE', *, *, #898, .T. ) ;
#1014 = CARTESIAN_POINT ( 'NONE',  ( 0.0000000000000000000, 36.00000000000000000, 0.0000000000000000000 ) ) ;
#1015 = CARTESIAN_POINT ( 'NONE',  ( -8.500000000000000000, 0.0000000000000000000, -1.040949779275250140E-15 ) ) ;
#1016 = EDGE_CURVE ( 'NONE', #137, #119, #330, .T. ) ;
#1017 = CARTESIAN_POINT ( 'NONE',  ( 35.29999999999999716, 28.40000000000000213, -1.700000000000004396 ) ) ;
#1018 = PRESENTATION_LAYER_ASSIGNMENT (  '', '', ( #607 ) ) ;
#1019 = ORIENTED_EDGE ( 'NONE', *, *, #635, .F. ) ;
#1020 = VECTOR ( 'NONE', #328, 1000.000000000000000 ) ;
#1021 = CIRCLE ( 'NONE', #115, 3.300000000000000711 ) ;
#1022 = EDGE_LOOP ( 'NONE', ( #122, #395, #373, #145 ) ) ;
#1023 = EDGE_LOOP ( 'NONE', ( #362, #90, #465, #162, #949 ) ) ;
#1024 = CIRCLE ( 'NONE', #703, 3.300000000000004263 ) ;
#1025 = ORIENTED_EDGE ( 'NONE', *, *, #915, .F. ) ;
#1026 = CARTESIAN_POINT ( 'NONE',  ( -35.29999999999999716, 28.39999999999999858, 1.700000000000003952 ) ) ;
#1027 = DIRECTION ( 'NONE',  ( 0.0000000000000000000, 1.000000000000000000, 0.0000000000000000000 ) ) ;
#1028 = VERTEX_POINT ( 'NONE', #727 ) ;
#1029 = EDGE_CURVE ( 'NONE', #481, #140, #1065, .T. ) ;
#1030 = CARTESIAN_POINT ( 'NONE',  ( 32.00000000000000000, 0.0000000000000000000, 1.700000000000004396 ) ) ;
#1031 = ORIENTED_EDGE ( 'NONE', *, *, #776, .F. ) ;
#1032 = AXIS2_PLACEMENT_3D ( 'NONE', #885, #213, #30 ) ;
#1033 = EDGE_CURVE ( 'NONE', #842, #263, #599, .T. ) ;
#1034 = CIRCLE ( 'NONE', #136, 6.499999999999999112 ) ;
#1035 = DIRECTION ( 'NONE',  ( -4.336808689942017736E-17, 0.0000000000000000000, -1.000000000000000000 ) ) ;
#1036 = CYLINDRICAL_SURFACE ( 'NONE', #322, 40.00000000000000000 ) ;
#1037 = CARTESIAN_POINT ( 'NONE',  ( 35.29999999999999005, 0.0000000000000000000, -1.700000000000004396 ) ) ;
#1038 = ADVANCED_FACE ( 'NONE', ( #48 ), #228, .F. ) ;
#1039 = CARTESIAN_POINT ( 'NONE',  ( -38.50000000000000000, 36.00000000000000000, -1.700000000000004396 ) ) ;
#1040 = LINE ( 'NONE', #57, #242 ) ;
#1041 = EDGE_LOOP ( 'NONE', ( #282, #960, #62, #746 ) ) ;
#1042 = PLANE ( 'NONE',  #984 ) ;
#1043 = ORIENTED_EDGE ( 'NONE', *, *, #915, .T. ) ;
#1044 = CYLINDRICAL_SURFACE ( 'NONE', #103, 3.299999999999997158 ) ;
#1045 = VECTOR ( 'NONE', #680, 1000.000000000000000 ) ;
#1046 = AXIS2_PLACEMENT_3D ( 'NONE', #264, #171, #687 ) ;
#1047 = AXIS2_PLACEMENT_3D ( 'NONE', #1049, #277, #550 ) ;
#1048 = ORIENTED_EDGE ( 'NONE', *, *, #28, .T. ) ;
#1049 = CARTESIAN_POINT ( 'NONE',  ( -32.00000000000000000, 0.0000000000000000000, 1.700000000000004396 ) ) ;
#1050 = EDGE_LOOP ( 'NONE', ( #1004, #201, #590, #1043 ) ) ;
#1051 = VECTOR ( 'NONE', #830, 1000.000000000000000 ) ;
#1052 = VERTEX_POINT ( 'NONE', #824 ) ;
#1053 = ORIENTED_EDGE ( 'NONE', *, *, #1033, .T. ) ;
#1054 = EDGE_CURVE ( 'NONE', #629, #143, #1040, .T. ) ;
#1055 = ADVANCED_FACE ( 'NONE', ( #814 ), #413, .T. ) ;
#1056 = ORIENTED_EDGE ( 'NONE', *, *, #1029, .F. ) ;
#1057 = UNCERTAINTY_MEASURE_WITH_UNIT (LENGTH_MEASURE( 1.000000000000000082E-05 ), #745, 'distance_accuracy_value', 'NONE');
#1058 = DIRECTION ( 'NONE',  ( -0.0000000000000000000, -0.0000000000000000000, -1.000000000000000000 ) ) ;
#1059 = CIRCLE ( 'NONE', #876, 3.299999999999990496 ) ;
#1060 = FACE_OUTER_BOUND ( 'NONE', #211, .T. ) ;
#1061 = AXIS2_PLACEMENT_3D ( 'NONE', #1014, #1107, #245 ) ;
#1062 = ADVANCED_FACE ( 'NONE', ( #26 ), #1083, .F. ) ;
#1063 = DIRECTION ( 'NONE',  ( 0.0000000000000000000, 0.0000000000000000000, 1.000000000000000000 ) ) ;
#1064 = VERTEX_POINT ( 'NONE', #578 ) ;
#1065 = LINE ( 'NONE', #1086, #757 ) ;
#1066 = DIRECTION ( 'NONE',  ( -1.000000000000000000, 0.0000000000000000000, -4.438171800285562190E-16 ) ) ;
#1067 = ORIENTED_EDGE ( 'NONE', *, *, #285, .F. ) ;
#1068 = DIRECTION ( 'NONE',  ( -0.0000000000000000000, 1.000000000000000000, -0.0000000000000000000 ) ) ;
#1069 = CARTESIAN_POINT ( 'NONE',  ( -25.49999999999999645, 36.00000000000000000, 1.700000000000003952 ) ) ;
#1070 = AXIS2_PLACEMENT_3D ( 'NONE', #569, #53, #316 ) ;
#1071 = EDGE_CURVE ( 'NONE', #266, #765, #613, .T. ) ;
#1072 = CARTESIAN_POINT ( 'NONE',  ( 0.0000000000000000000, 0.0000000000000000000, 0.0000000000000000000 ) ) ;
#1073 = CARTESIAN_POINT ( 'NONE',  ( -32.00000000000000000, 28.39999999999999858, 1.700000000000004396 ) ) ;
#1074 = VECTOR ( 'NONE', #571, 1000.000000000000114 ) ;
#1075 = CIRCLE ( 'NONE', #518, 25.00000000000000000 ) ;
#1076 = ADVANCED_FACE ( 'NONE', ( #16 ), #448, .T. ) ;
#1077 = DIRECTION ( 'NONE',  ( -0.0000000000000000000, -0.0000000000000000000, -1.000000000000000000 ) ) ;
#1078 = ORIENTED_EDGE ( 'NONE', *, *, #285, .T. ) ;
#1079 = CARTESIAN_POINT ( 'NONE',  ( -32.00000000000000000, 0.0000000000000000000, 4.999999999999994671 ) ) ;
#1080 = EDGE_CURVE ( 'NONE', #167, #481, #666, .T. ) ;
#1081 = PRODUCT_DEFINITION_FORMATION_WITH_SPECIFIED_SOURCE ( 'ANY', '', #862, .NOT_KNOWN. ) ;
#1082 = EDGE_LOOP ( 'NONE', ( #82, #800, #78, #515 ) ) ;
#1083 = CYLINDRICAL_SURFACE ( 'NONE', #234, 3.299999999999995826 ) ;
#1084 = DIRECTION ( 'NONE',  ( -0.0000000000000000000, 1.000000000000000000, -0.0000000000000000000 ) ) ;
#1085 = DIRECTION ( 'NONE',  ( 1.000000000000000000, 0.0000000000000000000, -0.0000000000000000000 ) ) ;
#1086 = CARTESIAN_POINT ( 'NONE',  ( 25.50000000000000355, 36.00000000000000000, -1.700000000000004396 ) ) ;
#1087 = CARTESIAN_POINT ( 'NONE',  ( 38.49999999999999289, 36.00000000000000000, 1.700000000000003952 ) ) ;
#1088 = AXIS2_PLACEMENT_3D ( 'NONE', #209, #805, #958 ) ;
#1089 = ORIENTED_EDGE ( 'NONE', *, *, #236, .T. ) ;
#1090 = CARTESIAN_POINT ( 'NONE',  ( 0.0000000000000000000, 38.00000000000000000, -40.00000000000000000 ) ) ;
#1091 = CONICAL_SURFACE ( 'NONE', #764, 8.500000000000000000, 0.08726646259971666819 ) ;
#1092 = LINE ( 'NONE', #987, #812 ) ;
#1093 = ORIENTED_EDGE ( 'NONE', *, *, #172, .T. ) ;
#1094 = CARTESIAN_POINT ( 'NONE',  ( 8.499999999999998224, 15.99999999999999289, 40.00000000000000000 ) ) ;
#1095 = AXIS2_PLACEMENT_3D ( 'NONE', #467, #741, #906 ) ;
#1096 = DIRECTION ( 'NONE',  ( -0.0000000000000000000, -0.0000000000000000000, -1.000000000000000000 ) ) ;
#1097 = EDGE_CURVE ( 'NONE', #12, #772, #533, .T. ) ;
#1098 = CYLINDRICAL_SURFACE ( 'NONE', #762, 6.499999999999998224 ) ;
#1099 = DIRECTION ( 'NONE',  ( -0.0000000000000000000, 1.000000000000000000, -0.0000000000000000000 ) ) ;
#1100 = PLANE ( 'NONE',  #231 ) ;
#1101 = DIRECTION ( 'NONE',  ( -0.0000000000000000000, 1.000000000000000000, -0.0000000000000000000 ) ) ;
#1102 = CARTESIAN_POINT ( 'NONE',  ( 32.00000000000000000, 36.00000000000000000, 1.700000000000004396 ) ) ;
#1103 = ORIENTED_EDGE ( 'NONE', *, *, #217, .F. ) ;
#1104 =( NAMED_UNIT ( * ) PLANE_ANGLE_UNIT ( ) SI_UNIT ( $, .RADIAN. ) );
#1105 = FACE_OUTER_BOUND ( 'NONE', #512, .T. ) ;
#1106 = ORIENTED_EDGE ( 'NONE', *, *, #160, .T. ) ;
#1107 = DIRECTION ( 'NONE',  ( -0.0000000000000000000, 1.000000000000000000, -0.0000000000000000000 ) ) ;
ENDSEC;
END-ISO-10303-21;
