ISO-10303-21;
HEADER;
FILE_DESCRIPTION (( 'STEP AP214' ),
    '1' );
FILE_NAME ('03_025_bracket.STEP',
    '2020-09-17T15:34:42',
    ( '' ),
    ( '' ),
    'SwSTEP 2.0',
    'SolidWorks 2018',
    '' );
FILE_SCHEMA (( 'AUTOMOTIVE_DESIGN' ));
ENDSEC;

DATA;
#1 = EDGE_LOOP ( 'NONE', ( #134, #546, #4, #969, #748, #57, #1110, #1051, #90 ) ) ;
#2 = ORIENTED_EDGE ( 'NONE', *, *, #1007, .T. ) ;
#3 = DIRECTION ( 'NONE',  ( 0.0000000000000000000, 0.0000000000000000000, 1.000000000000000000 ) ) ;
#4 = ORIENTED_EDGE ( 'NONE', *, *, #1000, .F. ) ;
#5 = AXIS2_PLACEMENT_3D ( 'NONE', #1159, #175, #188 ) ;
#6 = FACE_OUTER_BOUND ( 'NONE', #1031, .T. ) ;
#7 = DIRECTION ( 'NONE',  ( -0.0000000000000000000, -1.000000000000000000, -0.0000000000000000000 ) ) ;
#8 = EDGE_CURVE ( 'NONE', #1120, #908, #111, .T. ) ;
#9 = LINE ( 'NONE', #913, #886 ) ;
#10 = EDGE_CURVE ( 'NONE', #63, #278, #40, .T. ) ;
#11 = EDGE_LOOP ( 'NONE', ( #799, #297 ) ) ;
#12 = ORIENTED_EDGE ( 'NONE', *, *, #8, .F. ) ;
#13 = CYLINDRICAL_SURFACE ( 'NONE', #669, 3.000000000000002665 ) ;
#14 = PRESENTATION_LAYER_ASSIGNMENT (  '', '', ( #1054 ) ) ;
#15 = ORIENTED_EDGE ( 'NONE', *, *, #470, .T. ) ;
#16 = DIRECTION ( 'NONE',  ( -1.000000000000000000, 0.0000000000000000000, 0.0000000000000000000 ) ) ;
#17 = DIRECTION ( 'NONE',  ( -0.0000000000000000000, -1.000000000000000000, -0.0000000000000000000 ) ) ;
#18 = EDGE_CURVE ( 'NONE', #224, #309, #324, .T. ) ;
#19 = CIRCLE ( 'NONE', #828, 2.999999999999988898 ) ;
#20 = EDGE_CURVE ( 'NONE', #474, #1124, #380, .T. ) ;
#21 = CIRCLE ( 'NONE', #288, 4.250000000000007105 ) ;
#22 = AXIS2_PLACEMENT_3D ( 'NONE', #361, #787, #872 ) ;
#23 = CARTESIAN_POINT ( 'NONE',  ( -14.99999999999999289, -101.2499999999999858, 1.000000000000000888 ) ) ;
#24 = COLOUR_RGB ( '',0.9098039215686274384, 0.4431372549019607643, 0.03137254901960784270 ) ;
#25 = FILL_AREA_STYLE ('',( #563 ) ) ;
#26 = VERTEX_POINT ( 'NONE', #349 ) ;
#27 = ORIENTED_EDGE ( 'NONE', *, *, #517, .F. ) ;
#28 = AXIS2_PLACEMENT_3D ( 'NONE', #1046, #1132, #331 ) ;
#29 = DIRECTION ( 'NONE',  ( 0.0000000000000000000, 1.000000000000000000, 0.0000000000000000000 ) ) ;
#30 = ORIENTED_EDGE ( 'NONE', *, *, #519, .T. ) ;
#31 = VERTEX_POINT ( 'NONE', #850 ) ;
#32 = EDGE_LOOP ( 'NONE', ( #205, #1020, #1149, #46 ) ) ;
#33 = AXIS2_PLACEMENT_3D ( 'NONE', #966, #1072, #539 ) ;
#34 = CARTESIAN_POINT ( 'NONE',  ( 14.99999999999999822, -1.000000000000000888, 100.2499999999999858 ) ) ;
#35 = VECTOR ( 'NONE', #860, 1000.000000000000000 ) ;
#36 = DIRECTION ( 'NONE',  ( -0.0000000000000000000, -1.000000000000000000, -0.0000000000000000000 ) ) ;
#37 = ORIENTED_EDGE ( 'NONE', *, *, #887, .F. ) ;
#38 = EDGE_CURVE ( 'NONE', #383, #441, #965, .T. ) ;
#39 = PRESENTATION_STYLE_ASSIGNMENT (( #1119 ) ) ;
#40 = CIRCLE ( 'NONE', #363, 4.250000000000003553 ) ;
#41 = CARTESIAN_POINT ( 'NONE',  ( 19.25000000000000711, -100.7499999999999716, 1.000000000000000888 ) ) ;
#42 = CIRCLE ( 'NONE', #185, 4.250000000000000000 ) ;
#43 = AXIS2_PLACEMENT_3D ( 'NONE', #845, #426, #522 ) ;
#44 = ORIENTED_EDGE ( 'NONE', *, *, #695, .T. ) ;
#45 = DIRECTION ( 'NONE',  ( -0.0000000000000000000, 1.220866311874433726E-16, 1.000000000000000000 ) ) ;
#46 = ORIENTED_EDGE ( 'NONE', *, *, #378, .T. ) ;
#47 =( NAMED_UNIT ( * ) PLANE_ANGLE_UNIT ( ) SI_UNIT ( $, .RADIAN. ) );
#48 = CYLINDRICAL_SURFACE ( 'NONE', #914, 13.00000000000000000 ) ;
#49 = ORIENTED_EDGE ( 'NONE', *, *, #447, .F. ) ;
#50 = CARTESIAN_POINT ( 'NONE',  ( -25.00000000000000000, -8.500000000000000000, 120.0000000000000000 ) ) ;
#51 = DIRECTION ( 'NONE',  ( 0.0000000000000000000, 0.0000000000000000000, 1.000000000000000000 ) ) ;
#52 = ORIENTED_EDGE ( 'NONE', *, *, #776, .T. ) ;
#53 = DIRECTION ( 'NONE',  ( 3.469446951953611428E-15, -1.000000000000000000, 0.0000000000000000000 ) ) ;
#54 = ORIENTED_EDGE ( 'NONE', *, *, #265, .T. ) ;
#55 = AXIS2_PLACEMENT_3D ( 'NONE', #325, #740, #500 ) ;
#56 = DIRECTION ( 'NONE',  ( 0.0000000000000000000, 0.0000000000000000000, 1.000000000000000000 ) ) ;
#57 = ORIENTED_EDGE ( 'NONE', *, *, #728, .T. ) ;
#58 = CIRCLE ( 'NONE', #992, 2.999999999999997335 ) ;
#59 = DIRECTION ( 'NONE',  ( 1.000000000000000000, 0.0000000000000000000, 0.0000000000000000000 ) ) ;
#60 = CARTESIAN_POINT ( 'NONE',  ( 11.99999999999998224, -40.74999999999997868, 1.000000000000000888 ) ) ;
#61 = LINE ( 'NONE', #792, #857 ) ;
#62 =( GEOMETRIC_REPRESENTATION_CONTEXT ( 3 ) GLOBAL_UNCERTAINTY_ASSIGNED_CONTEXT ( ( #137 ) ) GLOBAL_UNIT_ASSIGNED_CONTEXT ( ( #901, #393, #404 ) ) REPRESENTATION_CONTEXT ( 'NONE', 'WORKASPACE' ) );
#63 = VERTEX_POINT ( 'NONE', #602 ) ;
#64 = ADVANCED_FACE ( 'NONE', ( #863 ), #630, .T. ) ;
#65 = VECTOR ( 'NONE', #356, 1000.000000000000000 ) ;
#66 = PLANE ( 'NONE',  #329 ) ;
#67 = CARTESIAN_POINT ( 'NONE',  ( 25.00000000000000000, -8.500000000000000000, 113.4999999999999858 ) ) ;
#68 = CARTESIAN_POINT ( 'NONE',  ( -11.99999999999998934, -100.2499999999999716, 1.000000000000011768 ) ) ;
#69 = ORIENTED_EDGE ( 'NONE', *, *, #1026, .T. ) ;
#70 = VECTOR ( 'NONE', #132, 1000.000000000000000 ) ;
#71 = CARTESIAN_POINT ( 'NONE',  ( -25.00000000000000000, -1.000000000000000000, 120.0000000000000000 ) ) ;
#72 = EDGE_CURVE ( 'NONE', #222, #102, #82, .T. ) ;
#73 = VERTEX_POINT ( 'NONE', #607 ) ;
#74 = VERTEX_POINT ( 'NONE', #358 ) ;
#75 = VERTEX_POINT ( 'NONE', #1060 ) ;
#76 = ORIENTED_EDGE ( 'NONE', *, *, #832, .F. ) ;
#77 = DIRECTION ( 'NONE',  ( 0.0000000000000000000, 0.0000000000000000000, -1.000000000000000000 ) ) ;
#78 = DIRECTION ( 'NONE',  ( 0.0000000000000000000, 0.0000000000000000000, 1.000000000000000000 ) ) ;
#79 = CIRCLE ( 'NONE', #1073, 13.00000000000000178 ) ;
#80 = VERTEX_POINT ( 'NONE', #1157 ) ;
#81 = DIRECTION ( 'NONE',  ( -0.0000000000000000000, -1.000000000000000000, -0.0000000000000000000 ) ) ;
#82 = CIRCLE ( 'NONE', #909, 6.500000000000005329 ) ;
#83 = AXIS2_PLACEMENT_3D ( 'NONE', #543, #3, #98 ) ;
#84 = DIRECTION ( 'NONE',  ( 0.0000000000000000000, 0.0000000000000000000, 1.000000000000000000 ) ) ;
#85 = AXIS2_PLACEMENT_3D ( 'NONE', #1162, #688, #443 ) ;
#86 = CARTESIAN_POINT ( 'NONE',  ( -25.00000000000000000, -120.0000000000000000, 1.000000000000013989 ) ) ;
#87 = ORIENTED_EDGE ( 'NONE', *, *, #353, .T. ) ;
#88 = DIRECTION ( 'NONE',  ( -0.0000000000000000000, -1.000000000000000000, -0.0000000000000000000 ) ) ;
#89 = ORIENTED_EDGE ( 'NONE', *, *, #379, .F. ) ;
#90 = ORIENTED_EDGE ( 'NONE', *, *, #776, .F. ) ;
#91 = CARTESIAN_POINT ( 'NONE',  ( -25.00000000000000000, -120.0000000000000000, 8.499999999999987566 ) ) ;
#92 = DIRECTION ( 'NONE',  ( 1.000000000000000000, 0.0000000000000000000, 0.0000000000000000000 ) ) ;
#93 = VECTOR ( 'NONE', #1084, 1000.000000000000000 ) ;
#94 = ADVANCED_FACE ( 'NONE', ( #99 ), #806, .F. ) ;
#95 = CARTESIAN_POINT ( 'NONE',  ( -15.00000000000000178, -1.000000000000000888, 105.0000000000000000 ) ) ;
#96 = DIRECTION ( 'NONE',  ( 0.0000000000000000000, 0.0000000000000000000, -1.000000000000000000 ) ) ;
#97 = PRESENTATION_LAYER_ASSIGNMENT (  '', '', ( #726 ) ) ;
#98 = DIRECTION ( 'NONE',  ( 1.000000000000000000, 0.0000000000000000000, -0.0000000000000000000 ) ) ;
#99 = FACE_OUTER_BOUND ( 'NONE', #735, .T. ) ;
#100 = ADVANCED_FACE ( 'NONE', ( #307 ), #290, .F. ) ;
#101 = FACE_BOUND ( 'NONE', #937, .T. ) ;
#102 = VERTEX_POINT ( 'NONE', #1141 ) ;
#103 = VERTEX_POINT ( 'NONE', #345 ) ;
#104 = CYLINDRICAL_SURFACE ( 'NONE', #28, 2.999999999999988898 ) ;
#105 = DIRECTION ( 'NONE',  ( 1.000000000000000000, 0.0000000000000000000, 0.0000000000000000000 ) ) ;
#106 = STYLED_ITEM ( 'NONE', ( #481 ), #711 ) ;
#107 = LINE ( 'NONE', #765, #592 ) ;
#108 = EDGE_CURVE ( 'NONE', #1080, #26, #746, .T. ) ;
#109 = DIRECTION ( 'NONE',  ( 0.0000000000000000000, -1.000000000000000000, 0.0000000000000000000 ) ) ;
#110 = LINE ( 'NONE', #174, #779 ) ;
#111 = CIRCLE ( 'NONE', #848, 3.000000000000002665 ) ;
#112 = LINE ( 'NONE', #825, #484 ) ;
#113 = EDGE_LOOP ( 'NONE', ( #586, #521, #351, #431 ) ) ;
#114 = LINE ( 'NONE', #218, #1121 ) ;
#115 =( GEOMETRIC_REPRESENTATION_CONTEXT ( 3 ) GLOBAL_UNCERTAINTY_ASSIGNED_CONTEXT ( ( #1082 ) ) GLOBAL_UNIT_ASSIGNED_CONTEXT ( ( #675, #670, #759 ) ) REPRESENTATION_CONTEXT ( 'NONE', 'WORKASPACE' ) );
#116 = ORIENTED_EDGE ( 'NONE', *, *, #386, .F. ) ;
#117 = CARTESIAN_POINT ( 'NONE',  ( -10.75000000000000888, -40.74999999999997868, 15.00000000000000000 ) ) ;
#118 = VERTEX_POINT ( 'NONE', #445 ) ;
#119 = AXIS2_PLACEMENT_3D ( 'NONE', #367, #123, #723 ) ;
#120 = ORIENTED_EDGE ( 'NONE', *, *, #300, .F. ) ;
#121 = FACE_BOUND ( 'NONE', #11, .T. ) ;
#122 = CIRCLE ( 'NONE', #1065, 2.999999999999988898 ) ;
#123 = DIRECTION ( 'NONE',  ( -0.0000000000000000000, 1.129756885615147778E-16, 1.000000000000000000 ) ) ;
#124 = CARTESIAN_POINT ( 'NONE',  ( 25.00000000000000000, -27.99999999999999645, 27.99999999999999289 ) ) ;
#125 = ORIENTED_EDGE ( 'NONE', *, *, #538, .T. ) ;
#126 = EDGE_CURVE ( 'NONE', #569, #74, #1015, .T. ) ;
#127 = CARTESIAN_POINT ( 'NONE',  ( 15.00000000000000533, -1.000000000000000888, 45.00000000000000000 ) ) ;
#128 = EDGE_LOOP ( 'NONE', ( #294, #1083 ) ) ;
#129 = ORIENTED_EDGE ( 'NONE', *, *, #614, .T. ) ;
#130 =( NAMED_UNIT ( * ) SI_UNIT ( $, .STERADIAN. ) SOLID_ANGLE_UNIT ( ) );
#131 = CARTESIAN_POINT ( 'NONE',  ( 12.00000000000000000, -1.000000000000000888, 101.2499999999999858 ) ) ;
#132 = DIRECTION ( 'NONE',  ( 3.469446951953611033E-15, -1.000000000000000000, -0.0000000000000000000 ) ) ;
#133 = EDGE_LOOP ( 'NONE', ( #694, #619 ) ) ;
#134 = ORIENTED_EDGE ( 'NONE', *, *, #1089, .T. ) ;
#135 = VECTOR ( 'NONE', #302, 1000.000000000000000 ) ;
#136 = EDGE_LOOP ( 'NONE', ( #645, #544, #415, #541 ) ) ;
#137 = UNCERTAINTY_MEASURE_WITH_UNIT (LENGTH_MEASURE( 1.000000000000000082E-05 ), #901, 'distance_accuracy_value', 'NONE');
#138 = SURFACE_SIDE_STYLE ('',( #770 ) ) ;
#139 = AXIS2_PLACEMENT_3D ( 'NONE', #269, #701, #1064 ) ;
#140 = CARTESIAN_POINT ( 'NONE',  ( -14.99999999999999289, -100.2499999999999716, 1.000000000000000888 ) ) ;
#141 = DIRECTION ( 'NONE',  ( -0.0000000000000000000, -0.0000000000000000000, 1.000000000000000000 ) ) ;
#142 = CIRCLE ( 'NONE', #33, 4.250000000000003553 ) ;
#143 = DIRECTION ( 'NONE',  ( 0.0000000000000000000, 0.0000000000000000000, 1.000000000000000000 ) ) ;
#144 = APPLICATION_PROTOCOL_DEFINITION ( 'draft international standard', 'automotive_design', 1998, #419 ) ;
#145 = FACE_OUTER_BOUND ( 'NONE', #1, .T. ) ;
#146 = CARTESIAN_POINT ( 'NONE',  ( 17.99999999999999645, -40.74999999999997868, 1.000000000000000888 ) ) ;
#147 = AXIS2_PLACEMENT_3D ( 'NONE', #840, #936, #420 ) ;
#148 = CARTESIAN_POINT ( 'NONE',  ( -19.25000000000001066, -40.74999999999997868, 1.000000000000000888 ) ) ;
#149 = CARTESIAN_POINT ( 'NONE',  ( 12.00000000000000178, -1.000000000000000888, 100.2499999999999858 ) ) ;
#150 = CARTESIAN_POINT ( 'NONE',  ( -25.00000000000000000, -113.4999999999999858, 8.499999999999987566 ) ) ;
#151 = ADVANCED_FACE ( 'NONE', ( #394, #950, #556, #655, #449 ), #699, .F. ) ;
#152 = AXIS2_PLACEMENT_3D ( 'NONE', #432, #683, #59 ) ;
#153 = CARTESIAN_POINT ( 'NONE',  ( 25.00000000000000000, -8.500000000000000000, 113.4999999999999858 ) ) ;
#154 = ORIENTED_EDGE ( 'NONE', *, *, #157, .F. ) ;
#155 = CARTESIAN_POINT ( 'NONE',  ( 25.00000000000000000, -113.4999999999999858, 8.499999999999987566 ) ) ;
#156 = CARTESIAN_POINT ( 'NONE',  ( -11.99999999999999289, -101.2499999999999858, 15.00000000000000000 ) ) ;
#157 = EDGE_CURVE ( 'NONE', #1037, #176, #223, .T. ) ;
#158 = MECHANICAL_DESIGN_GEOMETRIC_PRESENTATION_REPRESENTATION (  '', ( #726 ), #62 ) ;
#159 = CIRCLE ( 'NONE', #235, 3.000000000000002665 ) ;
#160 = PLANE ( 'NONE',  #1027 ) ;
#161 = DIRECTION ( 'NONE',  ( 0.0000000000000000000, 0.0000000000000000000, -1.000000000000000000 ) ) ;
#162 = VECTOR ( 'NONE', #1025, 1000.000000000000000 ) ;
#163 = CARTESIAN_POINT ( 'NONE',  ( -11.99999999999999289, -100.2499999999999716, 15.00000000000000000 ) ) ;
#164 = EDGE_LOOP ( 'NONE', ( #251, #642, #718, #405, #385 ) ) ;
#165 = AXIS2_PLACEMENT_3D ( 'NONE', #425, #858, #866 ) ;
#166 = CARTESIAN_POINT ( 'NONE',  ( -25.00000000000000000, -1.000000000000014655, 1.000000000000000444 ) ) ;
#167 = VERTEX_POINT ( 'NONE', #166 ) ;
#168 = CARTESIAN_POINT ( 'NONE',  ( 15.00000000000000533, -1.000000000000000888, 40.74999999999999289 ) ) ;
#169 = CARTESIAN_POINT ( 'NONE',  ( -25.00000000000000000, -27.99999999999999645, 27.99999999999999289 ) ) ;
#170 = ORIENTED_EDGE ( 'NONE', *, *, #378, .F. ) ;
#171 = CARTESIAN_POINT ( 'NONE',  ( 25.00000000000000000, -15.00000000000000000, 27.99999999999999645 ) ) ;
#172 = CARTESIAN_POINT ( 'NONE',  ( 25.00000000000000000, -120.0000000000000000, 8.499999999999987566 ) ) ;
#173 = AXIS2_PLACEMENT_3D ( 'NONE', #1006, #985, #712 ) ;
#174 = CARTESIAN_POINT ( 'NONE',  ( 15.00000000000000533, -1.000000000000000888, 45.00000000000000000 ) ) ;
#175 = DIRECTION ( 'NONE',  ( 0.0000000000000000000, 0.0000000000000000000, 1.000000000000000000 ) ) ;
#176 = VERTEX_POINT ( 'NONE', #342 ) ;
#177 = LINE ( 'NONE', #807, #980 ) ;
#178 = ORIENTED_EDGE ( 'NONE', *, *, #538, .F. ) ;
#179 = LINE ( 'NONE', #1061, #542 ) ;
#180 = CARTESIAN_POINT ( 'NONE',  ( -17.99999999999999289, -100.2499999999999716, 1.000000000000000888 ) ) ;
#181 = EDGE_LOOP ( 'NONE', ( #573, #1109, #713, #654 ) ) ;
#182 = ORIENTED_EDGE ( 'NONE', *, *, #903, .T. ) ;
#183 = DIRECTION ( 'NONE',  ( -0.0000000000000000000, -0.0000000000000000000, 1.000000000000000000 ) ) ;
#184 = EDGE_CURVE ( 'NONE', #176, #26, #834, .T. ) ;
#185 = AXIS2_PLACEMENT_3D ( 'NONE', #316, #739, #1035 ) ;
#186 = ADVANCED_FACE ( 'NONE', ( #1003 ), #531, .F. ) ;
#187 = FACE_BOUND ( 'NONE', #890, .T. ) ;
#188 = DIRECTION ( 'NONE',  ( 1.000000000000000000, 0.0000000000000000000, 0.0000000000000000000 ) ) ;
#189 = ORIENTED_EDGE ( 'NONE', *, *, #1100, .T. ) ;
#190 = EDGE_LOOP ( 'NONE', ( #283, #347, #1136, #983 ) ) ;
#191 = ORIENTED_EDGE ( 'NONE', *, *, #761, .T. ) ;
#192 = DIRECTION ( 'NONE',  ( 0.0000000000000000000, 0.0000000000000000000, 1.000000000000000000 ) ) ;
#193 = ORIENTED_EDGE ( 'NONE', *, *, #946, .F. ) ;
#194 = CARTESIAN_POINT ( 'NONE',  ( -25.00000000000000000, -15.00000000000000000, 113.4999999999999858 ) ) ;
#195 = PLANE ( 'NONE',  #545 ) ;
#196 = LINE ( 'NONE', #91, #636 ) ;
#197 = LINE ( 'NONE', #1138, #1129 ) ;
#198 = DIRECTION ( 'NONE',  ( 1.000000000000000000, 0.0000000000000000000, 0.0000000000000000000 ) ) ;
#199 = SURFACE_SIDE_STYLE ('',( #948 ) ) ;
#200 = FACE_OUTER_BOUND ( 'NONE', #775, .T. ) ;
#201 = DIRECTION ( 'NONE',  ( -0.0000000000000000000, 1.000000000000000000, -1.129756885615147778E-16 ) ) ;
#202 = VECTOR ( 'NONE', #905, 1000.000000000000000 ) ;
#203 = DIRECTION ( 'NONE',  ( -1.000000000000000000, 0.0000000000000000000, 0.0000000000000000000 ) ) ;
#204 = VERTEX_POINT ( 'NONE', #308 ) ;
#205 = ORIENTED_EDGE ( 'NONE', *, *, #1148, .F. ) ;
#206 = EDGE_LOOP ( 'NONE', ( #1021, #812, #364, #1095 ) ) ;
#207 = CARTESIAN_POINT ( 'NONE',  ( 14.99999999999998934, -40.74999999999997868, 1.000000000000000888 ) ) ;
#208 = AXIS2_PLACEMENT_3D ( 'NONE', #1114, #369, #403 ) ;
#209 = ADVANCED_FACE ( 'NONE', ( #310 ), #489, .F. ) ;
#210 = DIRECTION ( 'NONE',  ( 0.0000000000000000000, -1.000000000000000000, 0.0000000000000000000 ) ) ;
#211 = ORIENTED_EDGE ( 'NONE', *, *, #841, .F. ) ;
#212 = CARTESIAN_POINT ( 'NONE',  ( -19.25000000000001066, -40.74999999999997868, 1.000000000000000888 ) ) ;
#213 = CYLINDRICAL_SURFACE ( 'NONE', #456, 3.000000000000006217 ) ;
#214 = CARTESIAN_POINT ( 'NONE',  ( 25.00000000000000000, -1.000000000000000000, 120.0000000000000000 ) ) ;
#215 = CARTESIAN_POINT ( 'NONE',  ( 17.99999999999999289, -1.000000000000000888, 100.2499999999999858 ) ) ;
#216 = LINE ( 'NONE', #215, #912 ) ;
#217 = EDGE_CURVE ( 'NONE', #422, #808, #293, .T. ) ;
#218 = CARTESIAN_POINT ( 'NONE',  ( -17.99999999999998934, -101.2499999999999858, 1.000000000000000888 ) ) ;
#219 = VECTOR ( 'NONE', #333, 1000.000000000000000 ) ;
#220 = DIRECTION ( 'NONE',  ( 0.0000000000000000000, 0.0000000000000000000, 1.000000000000000000 ) ) ;
#221 = AXIS2_PLACEMENT_3D ( 'NONE', #789, #262, #277 ) ;
#222 = VERTEX_POINT ( 'NONE', #727 ) ;
#223 = CIRCLE ( 'NONE', #371, 2.999999999999988898 ) ;
#224 = VERTEX_POINT ( 'NONE', #1107 ) ;
#225 = EDGE_LOOP ( 'NONE', ( #416, #867 ) ) ;
#226 = ORIENTED_EDGE ( 'NONE', *, *, #506, .T. ) ;
#227 = APPLICATION_CONTEXT ( 'automotive_design' ) ;
#228 = ORIENTED_EDGE ( 'NONE', *, *, #946, .T. ) ;
#229 = AXIS2_PLACEMENT_3D ( 'NONE', #551, #16, #192 ) ;
#230 = PLANE ( 'NONE',  #979 ) ;
#231 = LINE ( 'NONE', #295, #1102 ) ;
#232 =( NAMED_UNIT ( * ) SI_UNIT ( $, .STERADIAN. ) SOLID_ANGLE_UNIT ( ) );
#233 = COLOUR_RGB ( '',0.5294117647058823595, 0.5490196078431373028, 0.5490196078431373028 ) ;
#234 = VERTEX_POINT ( 'NONE', #41 ) ;
#235 = AXIS2_PLACEMENT_3D ( 'NONE', #464, #1086, #473 ) ;
#236 = DIRECTION ( 'NONE',  ( 0.0000000000000000000, 0.0000000000000000000, 1.000000000000000000 ) ) ;
#237 = CARTESIAN_POINT ( 'NONE',  ( 14.99999999999998934, -40.74999999999997868, 1.000000000000000888 ) ) ;
#238 = ORIENTED_EDGE ( 'NONE', *, *, #910, .T. ) ;
#239 = ADVANCED_FACE ( 'NONE', ( #864 ), #716, .F. ) ;
#240 = CARTESIAN_POINT ( 'NONE',  ( 11.99999999999998224, -40.74999999999997868, 15.00000000000000000 ) ) ;
#241 = DIRECTION ( 'NONE',  ( 0.0000000000000000000, 0.0000000000000000000, 1.000000000000000000 ) ) ;
#242 = CARTESIAN_POINT ( 'NONE',  ( -14.99999999999999112, -15.00000000000000000, 43.75000000000000000 ) ) ;
#243 = VECTOR ( 'NONE', #372, 1000.000000000000000 ) ;
#244 = CIRCLE ( 'NONE', #270, 6.499999999999999112 ) ;
#245 = DIRECTION ( 'NONE',  ( 1.000000000000000000, 0.0000000000000000000, 0.0000000000000000000 ) ) ;
#246 = CARTESIAN_POINT ( 'NONE',  ( 25.00000000000000000, -120.0000000000000000, 1.000000000000013989 ) ) ;
#247 = DIRECTION ( 'NONE',  ( -1.000000000000000000, 0.0000000000000000000, 0.0000000000000000000 ) ) ;
#248 = EDGE_CURVE ( 'NONE', #908, #1120, #382, .T. ) ;
#249 = FACE_OUTER_BOUND ( 'NONE', #1153, .T. ) ;
#250 = CARTESIAN_POINT ( 'NONE',  ( 14.99999999999999822, -1.000000000000000888, 97.25000000000000000 ) ) ;
#251 = ORIENTED_EDGE ( 'NONE', *, *, #653, .T. ) ;
#252 = ORIENTED_EDGE ( 'NONE', *, *, #888, .T. ) ;
#253 = DIRECTION ( 'NONE',  ( -0.0000000000000000000, -1.000000000000000000, -0.0000000000000000000 ) ) ;
#254 = CIRCLE ( 'NONE', #22, 3.000000000000006217 ) ;
#255 = DIRECTION ( 'NONE',  ( -0.0000000000000000000, -0.0000000000000000000, 1.000000000000000000 ) ) ;
#256 = LINE ( 'NONE', #250, #930 ) ;
#257 = ADVANCED_FACE ( 'NONE', ( #326 ), #984, .F. ) ;
#258 = CYLINDRICAL_SURFACE ( 'NONE', #430, 4.250000000000003553 ) ;
#259 = DIRECTION ( 'NONE',  ( 1.000000000000000000, 0.0000000000000000000, 0.0000000000000000000 ) ) ;
#260 = VECTOR ( 'NONE', #945, 1000.000000000000000 ) ;
#261 = ORIENTED_EDGE ( 'NONE', *, *, #184, .F. ) ;
#262 = DIRECTION ( 'NONE',  ( 0.0000000000000000000, -1.000000000000000000, 0.0000000000000000000 ) ) ;
#263 = ORIENTED_EDGE ( 'NONE', *, *, #379, .T. ) ;
#264 = CARTESIAN_POINT ( 'NONE',  ( -15.00000000000000178, -1.000000000000000888, 100.7499999999999858 ) ) ;
#265 = EDGE_CURVE ( 'NONE', #609, #569, #896, .T. ) ;
#266 = CARTESIAN_POINT ( 'NONE',  ( -14.99999999999999112, -15.00000000000000000, 40.74999999999999289 ) ) ;
#267 = CARTESIAN_POINT ( 'NONE',  ( -25.00000000000000000, -15.00000000000000000, 120.0000000000000000 ) ) ;
#268 = VERTEX_POINT ( 'NONE', #571 ) ;
#269 = CARTESIAN_POINT ( 'NONE',  ( 14.99999999999999822, -15.00000000000000000, 100.2499999999999858 ) ) ;
#270 = AXIS2_PLACEMENT_3D ( 'NONE', #150, #341, #84 ) ;
#271 = EDGE_CURVE ( 'NONE', #730, #31, #1057, .T. ) ;
#272 = DIRECTION ( 'NONE',  ( -1.000000000000000000, 0.0000000000000000000, 0.0000000000000000000 ) ) ;
#273 = ADVANCED_FACE ( 'NONE', ( #1161 ), #13, .F. ) ;
#274 = VECTOR ( 'NONE', #676, 1000.000000000000000 ) ;
#275 = CARTESIAN_POINT ( 'NONE',  ( -15.00000000000000178, -1.000000000000000888, 105.0000000000000000 ) ) ;
#276 = EDGE_LOOP ( 'NONE', ( #810, #462, #1059, #366, #27, #899, #935, #435, #1004 ) ) ;
#277 = DIRECTION ( 'NONE',  ( 0.0000000000000000000, 0.0000000000000000000, -1.000000000000000000 ) ) ;
#278 = VERTEX_POINT ( 'NONE', #127 ) ;
#279 = CARTESIAN_POINT ( 'NONE',  ( -11.99999999999998934, -101.2499999999999858, 14.99999999999998757 ) ) ;
#280 = VERTEX_POINT ( 'NONE', #212 ) ;
#281 = PRESENTATION_LAYER_ASSIGNMENT (  '', '', ( #106 ) ) ;
#282 = VECTOR ( 'NONE', #495, 1000.000000000000000 ) ;
#283 = ORIENTED_EDGE ( 'NONE', *, *, #744, .F. ) ;
#284 = EDGE_CURVE ( 'NONE', #167, #549, #1034, .T. ) ;
#285 = PLANE ( 'NONE',  #491 ) ;
#286 = ORIENTED_EDGE ( 'NONE', *, *, #20, .F. ) ;
#287 = EDGE_CURVE ( 'NONE', #733, #280, #515, .T. ) ;
#288 = AXIS2_PLACEMENT_3D ( 'NONE', #577, #220, #568 ) ;
#289 = CIRCLE ( 'NONE', #897, 4.250000000000003553 ) ;
#290 = CYLINDRICAL_SURFACE ( 'NONE', #732, 4.250000000000000000 ) ;
#291 = CARTESIAN_POINT ( 'NONE',  ( -14.99999999999999112, -1.000000000000000888, 43.75000000000000000 ) ) ;
#292 = VERTEX_POINT ( 'NONE', #821 ) ;
#293 = LINE ( 'NONE', #392, #434 ) ;
#294 = ORIENTED_EDGE ( 'NONE', *, *, #8, .T. ) ;
#295 = CARTESIAN_POINT ( 'NONE',  ( 17.99999999999999289, -1.000000000000000888, 101.2499999999999858 ) ) ;
#296 = ORIENTED_EDGE ( 'NONE', *, *, #927, .F. ) ;
#297 = ORIENTED_EDGE ( 'NONE', *, *, #580, .T. ) ;
#298 = SURFACE_STYLE_USAGE ( .BOTH. , #398 ) ;
#299 = VECTOR ( 'NONE', #1143, 1000.000000000000000 ) ;
#300 = EDGE_CURVE ( 'NONE', #808, #31, #114, .T. ) ;
#301 = EDGE_CURVE ( 'NONE', #309, #672, #621, .T. ) ;
#302 = DIRECTION ( 'NONE',  ( -0.0000000000000000000, -0.0000000000000000000, 1.000000000000000000 ) ) ;
#303 = FILL_AREA_STYLE_COLOUR ( '', #742 ) ;
#304 = FACE_OUTER_BOUND ( 'NONE', #846, .T. ) ;
#305 = CARTESIAN_POINT ( 'NONE',  ( -14.99999999999999112, -1.000000000000000888, 37.74999999999999289 ) ) ;
#306 = EDGE_CURVE ( 'NONE', #292, #920, #917, .T. ) ;
#307 = FACE_OUTER_BOUND ( 'NONE', #32, .T. ) ;
#308 = CARTESIAN_POINT ( 'NONE',  ( -15.00000000000000178, -15.00000000000000000, 96.49999999999998579 ) ) ;
#309 = VERTEX_POINT ( 'NONE', #591 ) ;
#310 = FACE_OUTER_BOUND ( 'NONE', #190, .T. ) ;
#311 =( NAMED_UNIT ( * ) PLANE_ANGLE_UNIT ( ) SI_UNIT ( $, .RADIAN. ) );
#312 = AXIS2_PLACEMENT_3D ( 'NONE', #1156, #253, #448 ) ;
#313 = ORIENTED_EDGE ( 'NONE', *, *, #697, .T. ) ;
#314 = ORIENTED_EDGE ( 'NONE', *, *, #370, .T. ) ;
#315 = DIRECTION ( 'NONE',  ( -0.0000000000000000000, -1.000000000000000000, -0.0000000000000000000 ) ) ;
#316 = CARTESIAN_POINT ( 'NONE',  ( -15.00000000000001066, -40.74999999999997868, 15.00000000000000000 ) ) ;
#317 = ADVANCED_FACE ( 'NONE', ( #878 ), #830, .F. ) ;
#318 = CARTESIAN_POINT ( 'NONE',  ( 10.74999999999999289, -100.7499999999999716, 1.000000000000000888 ) ) ;
#319 = APPLICATION_PROTOCOL_DEFINITION ( 'draft international standard', 'automotive_design', 1998, #227 ) ;
#320 = DIRECTION ( 'NONE',  ( 0.0000000000000000000, 0.0000000000000000000, -1.000000000000000000 ) ) ;
#321 = EDGE_LOOP ( 'NONE', ( #453, #691, #981, #1045 ) ) ;
#322 = CYLINDRICAL_SURFACE ( 'NONE', #388, 4.250000000000007105 ) ;
#323 = UNCERTAINTY_MEASURE_WITH_UNIT (LENGTH_MEASURE( 1.000000000000000082E-05 ), #649, 'distance_accuracy_value', 'NONE');
#324 = CIRCLE ( 'NONE', #884, 13.00000000000000178 ) ;
#325 = CARTESIAN_POINT ( 'NONE',  ( 0.0000000000000000000, 0.0000000000000000000, 0.0000000000000000000 ) ) ;
#326 = FACE_OUTER_BOUND ( 'NONE', #533, .T. ) ;
#327 = DIRECTION ( 'NONE',  ( -0.0000000000000000000, -0.0000000000000000000, 1.000000000000000000 ) ) ;
#328 = EDGE_LOOP ( 'NONE', ( #794, #951 ) ) ;
#329 = AXIS2_PLACEMENT_3D ( 'NONE', #511, #1039, #53 ) ;
#330 = DIRECTION ( 'NONE',  ( -0.0000000000000000000, -0.0000000000000000000, 1.000000000000000000 ) ) ;
#331 = DIRECTION ( 'NONE',  ( 0.0000000000000000000, 0.0000000000000000000, -1.000000000000000000 ) ) ;
#332 = CARTESIAN_POINT ( 'NONE',  ( 15.00000000000000000, -100.7499999999999716, 15.00000000000000000 ) ) ;
#333 = DIRECTION ( 'NONE',  ( -0.0000000000000000000, -1.000000000000000000, -0.0000000000000000000 ) ) ;
#334 = FILL_AREA_STYLE ('',( #791 ) ) ;
#335 = DIRECTION ( 'NONE',  ( 0.0000000000000000000, 0.0000000000000000000, 1.000000000000000000 ) ) ;
#336 = LINE ( 'NONE', #156, #299 ) ;
#337 = CARTESIAN_POINT ( 'NONE',  ( -17.99999999999998934, -101.2499999999999858, 1.000000000000000888 ) ) ;
#338 = ORIENTED_EDGE ( 'NONE', *, *, #614, .F. ) ;
#339 = CARTESIAN_POINT ( 'NONE',  ( -15.00000000000000178, -1.000000000000000888, 100.7499999999999858 ) ) ;
#340 = DIRECTION ( 'NONE',  ( -0.0000000000000000000, -0.0000000000000000000, 1.000000000000000000 ) ) ;
#341 = DIRECTION ( 'NONE',  ( -1.000000000000000000, 0.0000000000000000000, 0.0000000000000000000 ) ) ;
#342 = CARTESIAN_POINT ( 'NONE',  ( 12.00000000000000000, -15.00000000000000000, 101.2499999999999858 ) ) ;
#343 = ORIENTED_EDGE ( 'NONE', *, *, #512, .F. ) ;
#344 = AXIS2_PLACEMENT_3D ( 'NONE', #752, #236, #662 ) ;
#345 = CARTESIAN_POINT ( 'NONE',  ( -19.25000000000001066, -40.74999999999997868, 15.00000000000000000 ) ) ;
#346 = VERTEX_POINT ( 'NONE', #413 ) ;
#347 = ORIENTED_EDGE ( 'NONE', *, *, #633, .F. ) ;
#348 = LINE ( 'NONE', #194, #737 ) ;
#349 = CARTESIAN_POINT ( 'NONE',  ( 12.00000000000000178, -15.00000000000000000, 100.2499999999999858 ) ) ;
#350 = CARTESIAN_POINT ( 'NONE',  ( -14.99999999999999289, -101.2499999999999858, 1.000000000000000888 ) ) ;
#351 = ORIENTED_EDGE ( 'NONE', *, *, #995, .F. ) ;
#352 = DIRECTION ( 'NONE',  ( 0.0000000000000000000, -1.000000000000000000, 0.0000000000000000000 ) ) ;
#353 = EDGE_CURVE ( 'NONE', #118, #582, #381, .T. ) ;
#354 = DIRECTION ( 'NONE',  ( 1.000000000000000000, 0.0000000000000000000, 0.0000000000000000000 ) ) ;
#355 = ORIENTED_EDGE ( 'NONE', *, *, #1026, .F. ) ;
#356 = DIRECTION ( 'NONE',  ( -0.0000000000000000000, -0.0000000000000000000, 1.000000000000000000 ) ) ;
#357 = ORIENTED_EDGE ( 'NONE', *, *, #660, .T. ) ;
#358 = CARTESIAN_POINT ( 'NONE',  ( 19.25000000000000711, -100.7499999999999716, 15.00000000000000000 ) ) ;
#359 = CIRCLE ( 'NONE', #782, 4.250000000000007105 ) ;
#360 = ORIENTED_EDGE ( 'NONE', *, *, #604, .T. ) ;
#361 = CARTESIAN_POINT ( 'NONE',  ( 14.99999999999998934, -40.74999999999997868, 15.00000000000000000 ) ) ;
#362 = EDGE_LOOP ( 'NONE', ( #286, #189, #560, #178 ) ) ;
#363 = AXIS2_PLACEMENT_3D ( 'NONE', #679, #352, #855 ) ;
#364 = ORIENTED_EDGE ( 'NONE', *, *, #271, .F. ) ;
#365 = ORIENTED_EDGE ( 'NONE', *, *, #708, .T. ) ;
#366 = ORIENTED_EDGE ( 'NONE', *, *, #832, .T. ) ;
#367 = CARTESIAN_POINT ( 'NONE',  ( 25.00000000000000000, -1.000000000000014655, 1.000000000000000444 ) ) ;
#368 = CARTESIAN_POINT ( 'NONE',  ( 15.00000000000000533, -15.00000000000000000, 36.49999999999999289 ) ) ;
#369 = DIRECTION ( 'NONE',  ( 0.0000000000000000000, -1.000000000000000000, 1.220866311874433726E-16 ) ) ;
#370 = EDGE_CURVE ( 'NONE', #74, #569, #359, .T. ) ;
#371 = AXIS2_PLACEMENT_3D ( 'NONE', #402, #1116, #657 ) ;
#372 = DIRECTION ( 'NONE',  ( -1.000000000000000000, -0.0000000000000000000, -0.0000000000000000000 ) ) ;
#373 = LINE ( 'NONE', #146, #689 ) ;
#374 = ORIENTED_EDGE ( 'NONE', *, *, #446, .T. ) ;
#375 = ORIENTED_EDGE ( 'NONE', *, *, #888, .F. ) ;
#376 = MECHANICAL_DESIGN_GEOMETRIC_PRESENTATION_REPRESENTATION (  '', ( #777 ), #717 ) ;
#377 = VECTOR ( 'NONE', #141, 1000.000000000000000 ) ;
#378 = EDGE_CURVE ( 'NONE', #678, #103, #1047, .T. ) ;
#379 = EDGE_CURVE ( 'NONE', #559, #176, #1108, .T. ) ;
#380 = CIRCLE ( 'NONE', #165, 3.000000000000006217 ) ;
#381 = LINE ( 'NONE', #246, #641 ) ;
#382 = CIRCLE ( 'NONE', #957, 3.000000000000002665 ) ;
#383 = VERTEX_POINT ( 'NONE', #756 ) ;
#384 = CARTESIAN_POINT ( 'NONE',  ( 25.00000000000000000, -15.00000000000000000, 120.0000000000000000 ) ) ;
#385 = ORIENTED_EDGE ( 'NONE', *, *, #646, .T. ) ;
#386 = EDGE_CURVE ( 'NONE', #1124, #474, #596, .T. ) ;
#387 = DIRECTION ( 'NONE',  ( -0.0000000000000000000, -1.000000000000000000, -0.0000000000000000000 ) ) ;
#388 = AXIS2_PLACEMENT_3D ( 'NONE', #873, #693, #643 ) ;
#389 = CARTESIAN_POINT ( 'NONE',  ( -25.00000000000000000, -120.0000000000000000, -1.469576158976823671E-14 ) ) ;
#390 = VECTOR ( 'NONE', #790, 1000.000000000000000 ) ;
#391 = FILL_AREA_STYLE ('',( #303 ) ) ;
#392 = CARTESIAN_POINT ( 'NONE',  ( -17.99999999999998934, -101.2499999999999858, 1.000000000000000888 ) ) ;
#393 =( NAMED_UNIT ( * ) PLANE_ANGLE_UNIT ( ) SI_UNIT ( $, .RADIAN. ) );
#394 = FACE_BOUND ( 'NONE', #1048, .T. ) ;
#395 = VECTOR ( 'NONE', #753, 1000.000000000000000 ) ;
#396 = CARTESIAN_POINT ( 'NONE',  ( -14.99999999999999112, -1.000000000000000888, 40.74999999999999289 ) ) ;
#397 = EDGE_LOOP ( 'NONE', ( #554, #530 ) ) ;
#398 = SURFACE_SIDE_STYLE ('',( #859 ) ) ;
#399 = ORIENTED_EDGE ( 'NONE', *, *, #841, .T. ) ;
#400 = CARTESIAN_POINT ( 'NONE',  ( 25.00000000000000000, -1.836970198721029589E-15, 15.00000000000000000 ) ) ;
#401 = VECTOR ( 'NONE', #407, 1000.000000000000000 ) ;
#402 = CARTESIAN_POINT ( 'NONE',  ( 14.99999999999999822, -15.00000000000000000, 101.2499999999999858 ) ) ;
#403 = DIRECTION ( 'NONE',  ( 0.0000000000000000000, -1.220866311874433726E-16, -1.000000000000000000 ) ) ;
#404 =( NAMED_UNIT ( * ) SI_UNIT ( $, .STERADIAN. ) SOLID_ANGLE_UNIT ( ) );
#405 = ORIENTED_EDGE ( 'NONE', *, *, #633, .T. ) ;
#406 = CARTESIAN_POINT ( 'NONE',  ( -11.99999999999999289, -101.2499999999999858, 1.000000000000000888 ) ) ;
#407 = DIRECTION ( 'NONE',  ( 0.0000000000000000000, 0.0000000000000000000, -1.000000000000000000 ) ) ;
#408 =( GEOMETRIC_REPRESENTATION_CONTEXT ( 3 ) GLOBAL_UNCERTAINTY_ASSIGNED_CONTEXT ( ( #924 ) ) GLOBAL_UNIT_ASSIGNED_CONTEXT ( ( #755, #745, #232 ) ) REPRESENTATION_CONTEXT ( 'NONE', 'WORKASPACE' ) );
#409 = DIRECTION ( 'NONE',  ( -0.0000000000000000000, 1.000000000000000000, -1.129756885615147778E-16 ) ) ;
#410 = ORIENTED_EDGE ( 'NONE', *, *, #784, .F. ) ;
#411 = ORIENTED_EDGE ( 'NONE', *, *, #639, .T. ) ;
#412 = DIRECTION ( 'NONE',  ( 0.0000000000000000000, 0.0000000000000000000, -1.000000000000000000 ) ) ;
#413 = CARTESIAN_POINT ( 'NONE',  ( 15.00000000000000533, -15.00000000000000000, 45.00000000000000000 ) ) ;
#414 = ORIENTED_EDGE ( 'NONE', *, *, #1092, .F. ) ;
#415 = ORIENTED_EDGE ( 'NONE', *, *, #603, .F. ) ;
#416 = ORIENTED_EDGE ( 'NONE', *, *, #386, .T. ) ;
#417 = VECTOR ( 'NONE', #255, 1000.000000000000000 ) ;
#418 =( GEOMETRIC_REPRESENTATION_CONTEXT ( 3 ) GLOBAL_UNCERTAINTY_ASSIGNED_CONTEXT ( ( #323 ) ) GLOBAL_UNIT_ASSIGNED_CONTEXT ( ( #649, #311, #130 ) ) REPRESENTATION_CONTEXT ( 'NONE', 'WORKASPACE' ) );
#419 = APPLICATION_CONTEXT ( 'automotive_design' ) ;
#420 = DIRECTION ( 'NONE',  ( 1.000000000000000000, 0.0000000000000000000, 0.0000000000000000000 ) ) ;
#421 = CARTESIAN_POINT ( 'NONE',  ( -14.99999999999999289, -101.2499999999999858, 15.00000000000000000 ) ) ;
#422 = VERTEX_POINT ( 'NONE', #1042 ) ;
#423 = EDGE_LOOP ( 'NONE', ( #632, #536, #764, #87 ) ) ;
#424 = PRODUCT_CONTEXT ( 'NONE', #419, 'mechanical' ) ;
#425 = CARTESIAN_POINT ( 'NONE',  ( 14.99999999999998934, -40.74999999999997868, 1.000000000000000888 ) ) ;
#426 = DIRECTION ( 'NONE',  ( 1.000000000000000000, 0.0000000000000000000, 0.0000000000000000000 ) ) ;
#427 = FACE_OUTER_BOUND ( 'NONE', #593, .T. ) ;
#428 = CARTESIAN_POINT ( 'NONE',  ( 17.99999999999999289, -15.00000000000000000, 101.2499999999999858 ) ) ;
#429 = CIRCLE ( 'NONE', #702, 4.250000000000000000 ) ;
#430 = AXIS2_PLACEMENT_3D ( 'NONE', #168, #88, #537 ) ;
#431 = ORIENTED_EDGE ( 'NONE', *, *, #300, .T. ) ;
#432 = CARTESIAN_POINT ( 'NONE',  ( -15.00000000000001066, -40.74999999999997868, 1.000000000000000888 ) ) ;
#433 = CYLINDRICAL_SURFACE ( 'NONE', #581, 2.999999999999999112 ) ;
#434 = VECTOR ( 'NONE', #1009, 1000.000000000000000 ) ;
#435 = ORIENTED_EDGE ( 'NONE', *, *, #613, .T. ) ;
#436 = ORIENTED_EDGE ( 'NONE', *, *, #301, .T. ) ;
#437 = AXIS2_PLACEMENT_3D ( 'NONE', #207, #816, #741 ) ;
#438 = CARTESIAN_POINT ( 'NONE',  ( 25.00000000000000000, -120.0000000000000000, -1.469576158976823671E-14 ) ) ;
#439 = DIRECTION ( 'NONE',  ( 0.0000000000000000000, -1.000000000000000000, 0.0000000000000000000 ) ) ;
#440 = CARTESIAN_POINT ( 'NONE',  ( 14.99999999999999822, -15.00000000000000000, 100.2499999999999858 ) ) ;
#441 = VERTEX_POINT ( 'NONE', #856 ) ;
#442 = DIRECTION ( 'NONE',  ( 0.0000000000000000000, 0.0000000000000000000, 1.000000000000000000 ) ) ;
#443 = DIRECTION ( 'NONE',  ( 0.0000000000000000000, 0.0000000000000000000, -1.000000000000000000 ) ) ;
#444 = VECTOR ( 'NONE', #516, 1000.000000000000000 ) ;
#445 = CARTESIAN_POINT ( 'NONE',  ( 25.00000000000000000, -120.0000000000000000, 1.000000000000013989 ) ) ;
#446 = EDGE_CURVE ( 'NONE', #278, #63, #1016, .T. ) ;
#447 = EDGE_CURVE ( 'NONE', #820, #422, #1033, .T. ) ;
#448 = DIRECTION ( 'NONE',  ( 0.0000000000000000000, 0.0000000000000000000, -1.000000000000000000 ) ) ;
#449 = FACE_OUTER_BOUND ( 'NONE', #423, .T. ) ;
#450 = LINE ( 'NONE', #939, #796 ) ;
#451 = ORIENTED_EDGE ( 'NONE', *, *, #970, .F. ) ;
#452 = CARTESIAN_POINT ( 'NONE',  ( 25.00000000000000000, -1.000000000000014655, 1.000000000000000444 ) ) ;
#453 = ORIENTED_EDGE ( 'NONE', *, *, #728, .F. ) ;
#454 = ORIENTED_EDGE ( 'NONE', *, *, #847, .F. ) ;
#455 = DIRECTION ( 'NONE',  ( 0.0000000000000000000, 1.000000000000000000, 0.0000000000000000000 ) ) ;
#456 = AXIS2_PLACEMENT_3D ( 'NONE', #1069, #964, #198 ) ;
#457 = LINE ( 'NONE', #389, #524 ) ;
#458 = CARTESIAN_POINT ( 'NONE',  ( -11.99999999999999289, -101.2499999999999858, 1.000000000000000888 ) ) ;
#459 = CYLINDRICAL_SURFACE ( 'NONE', #514, 2.999999999999997335 ) ;
#460 = CARTESIAN_POINT ( 'NONE',  ( 25.00000000000000000, -15.00000000000000000, 120.0000000000000000 ) ) ;
#461 = FACE_OUTER_BOUND ( 'NONE', #652, .T. ) ;
#462 = ORIENTED_EDGE ( 'NONE', *, *, #477, .F. ) ;
#463 = ORIENTED_EDGE ( 'NONE', *, *, #1007, .F. ) ;
#464 = CARTESIAN_POINT ( 'NONE',  ( -14.99999999999999112, -15.00000000000000000, 40.74999999999999289 ) ) ;
#465 = AXIS2_PLACEMENT_3D ( 'NONE', #438, #1056, #1043 ) ;
#466 = VERTEX_POINT ( 'NONE', #749 ) ;
#467 = ORIENTED_EDGE ( 'NONE', *, *, #692, .T. ) ;
#468 = AXIS2_PLACEMENT_3D ( 'NONE', #264, #876, #972 ) ;
#469 = PRODUCT_DEFINITION_CONTEXT ( 'detailed design', #227, 'design' ) ;
#470 = EDGE_CURVE ( 'NONE', #103, #678, #42, .T. ) ;
#471 = FACE_OUTER_BOUND ( 'NONE', #1070, .T. ) ;
#472 = CIRCLE ( 'NONE', #565, 2.999999999999997335 ) ;
#473 = DIRECTION ( 'NONE',  ( 0.0000000000000000000, 0.0000000000000000000, -1.000000000000000000 ) ) ;
#474 = VERTEX_POINT ( 'NONE', #60 ) ;
#475 = VERTEX_POINT ( 'NONE', #922 ) ;
#476 = DIRECTION ( 'NONE',  ( -0.0000000000000000000, -0.0000000000000000000, 1.000000000000000000 ) ) ;
#477 = EDGE_CURVE ( 'NONE', #582, #167, #179, .T. ) ;
#478 = CARTESIAN_POINT ( 'NONE',  ( -17.99999999999998934, -101.2499999999999858, 15.00000000000000000 ) ) ;
#479 = CYLINDRICAL_SURFACE ( 'NONE', #43, 6.500000000000000000 ) ;
#480 = AXIS2_PLACEMENT_3D ( 'NONE', #67, #1055, #77 ) ;
#481 = PRESENTATION_STYLE_ASSIGNMENT (( #725 ) ) ;
#482 = EDGE_CURVE ( 'NONE', #1090, #292, #112, .T. ) ;
#483 = DIRECTION ( 'NONE',  ( 0.0000000000000000000, -1.000000000000000000, 0.0000000000000000000 ) ) ;
#484 = VECTOR ( 'NONE', #831, 1000.000000000000000 ) ;
#485 = DIRECTION ( 'NONE',  ( 0.0000000000000000000, 1.000000000000000000, 1.224646799147353207E-16 ) ) ;
#486 = VERTEX_POINT ( 'NONE', #50 ) ;
#487 = ADVANCED_FACE ( 'NONE', ( #1150, #583, #781, #101, #249 ), #230, .F. ) ;
#488 = CARTESIAN_POINT ( 'NONE',  ( 25.00000000000000000, -1.000000000000014655, 1.000000000000000444 ) ) ;
#489 = CYLINDRICAL_SURFACE ( 'NONE', #494, 2.999999999999988898 ) ;
#490 = ORIENTED_EDGE ( 'NONE', *, *, #1013, .F. ) ;
#491 = AXIS2_PLACEMENT_3D ( 'NONE', #384, #996, #714 ) ;
#492 = CARTESIAN_POINT ( 'NONE',  ( 12.00000000000000000, -15.00000000000000000, 101.2499999999999858 ) ) ;
#493 = ADVANCED_FACE ( 'NONE', ( #558 ), #160, .T. ) ;
#494 = AXIS2_PLACEMENT_3D ( 'NONE', #34, #315, #916 ) ;
#495 = DIRECTION ( 'NONE',  ( -0.0000000000000000000, -1.000000000000000000, -0.0000000000000000000 ) ) ;
#496 = DIRECTION ( 'NONE',  ( 0.0000000000000000000, 0.0000000000000000000, -1.000000000000000000 ) ) ;
#497 = ORIENTED_EDGE ( 'NONE', *, *, #1087, .F. ) ;
#498 =( LENGTH_UNIT ( ) NAMED_UNIT ( * ) SI_UNIT ( .MILLI., .METRE. ) );
#499 = ORIENTED_EDGE ( 'NONE', *, *, #868, .T. ) ;
#500 = DIRECTION ( 'NONE',  ( 1.000000000000000000, 0.0000000000000000000, 0.0000000000000000000 ) ) ;
#501 = DIRECTION ( 'NONE',  ( -0.0000000000000000000, -1.000000000000000000, -0.0000000000000000000 ) ) ;
#502 = CIRCLE ( 'NONE', #929, 4.250000000000003553 ) ;
#503 = VERTEX_POINT ( 'NONE', #406 ) ;
#504 = CARTESIAN_POINT ( 'NONE',  ( 11.99999999999998401, -40.74999999999997868, 1.000000000000000888 ) ) ;
#505 = ORIENTED_EDGE ( 'NONE', *, *, #38, .F. ) ;
#506 = EDGE_CURVE ( 'NONE', #1120, #475, #1160, .T. ) ;
#507 = ORIENTED_EDGE ( 'NONE', *, *, #353, .F. ) ;
#508 = ADVANCED_FACE ( 'NONE', ( #875 ), #433, .F. ) ;
#509 = DIRECTION ( 'NONE',  ( 1.000000000000000000, 0.0000000000000000000, 0.0000000000000000000 ) ) ;
#510 = DIRECTION ( 'NONE',  ( 0.0000000000000000000, 0.0000000000000000000, 1.000000000000000000 ) ) ;
#511 = CARTESIAN_POINT ( 'NONE',  ( -17.99999999999998934, -101.2499999999999858, 1.000000000000000888 ) ) ;
#512 = EDGE_CURVE ( 'NONE', #953, #1024, #502, .T. ) ;
#513 = CARTESIAN_POINT ( 'NONE',  ( -25.00000000000000000, 0.0000000000000000000, 0.0000000000000000000 ) ) ;
#514 = AXIS2_PLACEMENT_3D ( 'NONE', #350, #681, #1147 ) ;
#515 = CIRCLE ( 'NONE', #548, 4.250000000000000000 ) ;
#516 = DIRECTION ( 'NONE',  ( -0.0000000000000000000, -0.0000000000000000000, 1.000000000000000000 ) ) ;
#517 = EDGE_CURVE ( 'NONE', #224, #80, #680, .T. ) ;
#518 = EDGE_LOOP ( 'NONE', ( #1097, #375 ) ) ;
#519 = EDGE_CURVE ( 'NONE', #466, #309, #450, .T. ) ;
#520 = EDGE_LOOP ( 'NONE', ( #656, #193, #49, #399 ) ) ;
#521 = ORIENTED_EDGE ( 'NONE', *, *, #971, .F. ) ;
#522 = DIRECTION ( 'NONE',  ( 0.0000000000000000000, 0.0000000000000000000, -1.000000000000000000 ) ) ;
#523 = LINE ( 'NONE', #833, #282 ) ;
#524 = VECTOR ( 'NONE', #1099, 1000.000000000000000 ) ;
#525 = AXIS2_PLACEMENT_3D ( 'NONE', #977, #883, #1079 ) ;
#526 = DIRECTION ( 'NONE',  ( 0.0000000000000000000, -1.000000000000000000, 0.0000000000000000000 ) ) ;
#527 = DIRECTION ( 'NONE',  ( 0.0000000000000000000, 0.0000000000000000000, 1.000000000000000000 ) ) ;
#528 = FACE_OUTER_BOUND ( 'NONE', #968, .T. ) ;
#529 = CARTESIAN_POINT ( 'NONE',  ( 15.00000000000000533, -1.000000000000000888, 36.49999999999999289 ) ) ;
#530 = ORIENTED_EDGE ( 'NONE', *, *, #852, .T. ) ;
#531 = CYLINDRICAL_SURFACE ( 'NONE', #437, 3.000000000000006217 ) ;
#532 = PRODUCT_DEFINITION ( 'UNKNOWN', '', #1071, #469 ) ;
#533 = EDGE_LOOP ( 'NONE', ( #682, #650, #182, #1133 ) ) ;
#534 = ORIENTED_EDGE ( 'NONE', *, *, #10, .T. ) ;
#535 = DIRECTION ( 'NONE',  ( -1.000000000000000000, 0.0000000000000000000, 0.0000000000000000000 ) ) ;
#536 = ORIENTED_EDGE ( 'NONE', *, *, #925, .F. ) ;
#537 = DIRECTION ( 'NONE',  ( 0.0000000000000000000, 0.0000000000000000000, -1.000000000000000000 ) ) ;
#538 = EDGE_CURVE ( 'NONE', #1124, #836, #373, .T. ) ;
#539 = DIRECTION ( 'NONE',  ( 0.0000000000000000000, 0.0000000000000000000, -1.000000000000000000 ) ) ;
#540 = CIRCLE ( 'NONE', #956, 2.999999999999988898 ) ;
#541 = ORIENTED_EDGE ( 'NONE', *, *, #925, .T. ) ;
#542 = VECTOR ( 'NONE', #409, 1000.000000000000000 ) ;
#543 = CARTESIAN_POINT ( 'NONE',  ( 25.00000000000000000, -15.00000000000000000, 120.0000000000000000 ) ) ;
#544 = ORIENTED_EDGE ( 'NONE', *, *, #697, .F. ) ;
#545 = AXIS2_PLACEMENT_3D ( 'NONE', #893, #700, #1085 ) ;
#546 = ORIENTED_EDGE ( 'NONE', *, *, #603, .T. ) ;
#547 = ORIENTED_EDGE ( 'NONE', *, *, #217, .F. ) ;
#548 = AXIS2_PLACEMENT_3D ( 'NONE', #1127, #56, #1142 ) ;
#549 = VERTEX_POINT ( 'NONE', #71 ) ;
#550 = EDGE_CURVE ( 'NONE', #441, #1037, #570, .T. ) ;
#551 = CARTESIAN_POINT ( 'NONE',  ( 12.00000000000000000, -1.000000000000000888, 101.2499999999999858 ) ) ;
#552 = LINE ( 'NONE', #599, #444 ) ;
#553 = CARTESIAN_POINT ( 'NONE',  ( -15.00000000000000178, -1.000000000000000888, 100.7499999999999858 ) ) ;
#554 = ORIENTED_EDGE ( 'NONE', *, *, #287, .T. ) ;
#555 = CARTESIAN_POINT ( 'NONE',  ( 12.00000000000000000, -1.000000000000002442, 100.2499999999999858 ) ) ;
#556 = FACE_BOUND ( 'NONE', #997, .T. ) ;
#557 = EDGE_CURVE ( 'NONE', #751, #730, #1118, .T. ) ;
#558 = FACE_OUTER_BOUND ( 'NONE', #276, .T. ) ;
#559 = VERTEX_POINT ( 'NONE', #879 ) ;
#560 = ORIENTED_EDGE ( 'NONE', *, *, #959, .T. ) ;
#561 = CARTESIAN_POINT ( 'NONE',  ( 17.99999999999999289, -15.00000000000000000, 101.2499999999999858 ) ) ;
#562 = ORIENTED_EDGE ( 'NONE', *, *, #126, .T. ) ;
#563 = FILL_AREA_STYLE_COLOUR ( '', #233 ) ;
#564 = SHAPE_DEFINITION_REPRESENTATION ( #1126, #853 ) ;
#565 = AXIS2_PLACEMENT_3D ( 'NONE', #421, #78, #354 ) ;
#566 = CIRCLE ( 'NONE', #5, 4.250000000000007105 ) ;
#567 = DIRECTION ( 'NONE',  ( 1.000000000000000000, 0.0000000000000000000, 0.0000000000000000000 ) ) ;
#568 = DIRECTION ( 'NONE',  ( 1.000000000000000000, 0.0000000000000000000, 0.0000000000000000000 ) ) ;
#569 = VERTEX_POINT ( 'NONE', #611 ) ;
#570 = LINE ( 'NONE', #428, #1014 ) ;
#571 = CARTESIAN_POINT ( 'NONE',  ( 25.00000000000000000, -1.000000000000000000, 120.0000000000000000 ) ) ;
#572 = ORIENTED_EDGE ( 'NONE', *, *, #1100, .F. ) ;
#573 = ORIENTED_EDGE ( 'NONE', *, *, #550, .T. ) ;
#574 = DIRECTION ( 'NONE',  ( -1.000000000000000000, -0.0000000000000000000, 0.0000000000000000000 ) ) ;
#575 = DIRECTION ( 'NONE',  ( 0.0000000000000000000, 0.0000000000000000000, -1.000000000000000000 ) ) ;
#576 = VECTOR ( 'NONE', #201, 1000.000000000000000 ) ;
#577 = CARTESIAN_POINT ( 'NONE',  ( 15.00000000000000000, -100.7499999999999716, 1.000000000000000888 ) ) ;
#578 = LINE ( 'NONE', #504, #377 ) ;
#579 = CARTESIAN_POINT ( 'NONE',  ( -25.00000000000000000, -1.000000000000000000, 120.0000000000000000 ) ) ;
#580 = EDGE_CURVE ( 'NONE', #1024, #953, #1075, .T. ) ;
#581 = AXIS2_PLACEMENT_3D ( 'NONE', #673, #330, #509 ) ;
#582 = VERTEX_POINT ( 'NONE', #86 ) ;
#583 = FACE_BOUND ( 'NONE', #973, .T. ) ;
#584 = ORIENTED_EDGE ( 'NONE', *, *, #306, .F. ) ;
#585 = ORIENTED_EDGE ( 'NONE', *, *, #38, .T. ) ;
#586 = ORIENTED_EDGE ( 'NONE', *, *, #754, .T. ) ;
#587 = EDGE_LOOP ( 'NONE', ( #967, #355 ) ) ;
#588 = PRODUCT_RELATED_PRODUCT_CATEGORY ( 'part', '', ( #990 ) ) ;
#589 = CARTESIAN_POINT ( 'NONE',  ( 25.00000000000000000, -15.00000000000000000, 120.0000000000000000 ) ) ;
#590 = CARTESIAN_POINT ( 'NONE',  ( 17.99999999999999289, -1.000000000000000888, 101.2499999999999858 ) ) ;
#591 = CARTESIAN_POINT ( 'NONE',  ( -25.00000000000000000, -15.00000000000000000, 27.99999999999999645 ) ) ;
#592 = VECTOR ( 'NONE', #510, 1000.000000000000000 ) ;
#593 = EDGE_LOOP ( 'NONE', ( #598, #120, #547, #228 ) ) ;
#594 = ORIENTED_EDGE ( 'NONE', *, *, #550, .F. ) ;
#595 = ADVANCED_FACE ( 'NONE', ( #461 ), #322, .F. ) ;
#596 = CIRCLE ( 'NONE', #982, 3.000000000000006217 ) ;
#597 = ORIENTED_EDGE ( 'NONE', *, *, #265, .F. ) ;
#598 = ORIENTED_EDGE ( 'NONE', *, *, #271, .T. ) ;
#599 = CARTESIAN_POINT ( 'NONE',  ( -10.75000000000000888, -40.74999999999997868, 1.000000000000000888 ) ) ;
#600 = VECTOR ( 'NONE', #931, 1000.000000000000000 ) ;
#601 = VECTOR ( 'NONE', #412, 1000.000000000000000 ) ;
#602 = CARTESIAN_POINT ( 'NONE',  ( 15.00000000000000533, -1.000000000000000888, 36.49999999999999289 ) ) ;
#603 = EDGE_CURVE ( 'NONE', #919, #268, #640, .T. ) ;
#604 = EDGE_CURVE ( 'NONE', #475, #783, #999, .T. ) ;
#605 = DIRECTION ( 'NONE',  ( 1.000000000000000000, -0.0000000000000000000, -0.0000000000000000000 ) ) ;
#606 = DIRECTION ( 'NONE',  ( 0.0000000000000000000, 0.0000000000000000000, 1.000000000000000000 ) ) ;
#607 = CARTESIAN_POINT ( 'NONE',  ( 17.99999999999999289, -1.000000000000000888, 100.2499999999999858 ) ) ;
#608 = DIRECTION ( 'NONE',  ( 0.0000000000000000000, -1.000000000000000000, 0.0000000000000000000 ) ) ;
#609 = VERTEX_POINT ( 'NONE', #1068 ) ;
#610 = ADVANCED_FACE ( 'NONE', ( #200 ), #762, .F. ) ;
#611 = CARTESIAN_POINT ( 'NONE',  ( 10.74999999999999289, -100.7499999999999716, 15.00000000000000000 ) ) ;
#612 = DIRECTION ( 'NONE',  ( -1.000000000000000000, 0.0000000000000000000, 0.0000000000000000000 ) ) ;
#613 = EDGE_CURVE ( 'NONE', #466, #486, #1131, .T. ) ;
#614 = EDGE_CURVE ( 'NONE', #836, #1094, #1074, .T. ) ;
#615 = VECTOR ( 'NONE', #29, 1000.000000000000000 ) ;
#616 = CARTESIAN_POINT ( 'NONE',  ( -14.99999999999999112, -1.000000000000000888, 43.75000000000000000 ) ) ;
#617 = ADVANCED_FACE ( 'NONE', ( #1001 ), #258, .F. ) ;
#618 = DIRECTION ( 'NONE',  ( 0.0000000000000000000, 0.0000000000000000000, -1.000000000000000000 ) ) ;
#619 = ORIENTED_EDGE ( 'NONE', *, *, #126, .F. ) ;
#620 = CARTESIAN_POINT ( 'NONE',  ( -15.00000000000001066, -40.74999999999997868, 1.000000000000000888 ) ) ;
#621 = LINE ( 'NONE', #1023, #274 ) ;
#622 = ORIENTED_EDGE ( 'NONE', *, *, #248, .F. ) ;
#623 = ADVANCED_FACE ( 'NONE', ( #528 ), #865, .F. ) ;
#624 = PLANE ( 'NONE',  #83 ) ;
#625 = EDGE_LOOP ( 'NONE', ( #597, #451, #626, #314 ) ) ;
#626 = ORIENTED_EDGE ( 'NONE', *, *, #847, .T. ) ;
#627 = CARTESIAN_POINT ( 'NONE',  ( 25.00000000000000000, -27.99999999999999645, 27.99999999999999289 ) ) ;
#628 = CIRCLE ( 'NONE', #1088, 4.250000000000003553 ) ;
#629 = VECTOR ( 'NONE', #387, 1000.000000000000000 ) ;
#630 = CYLINDRICAL_SURFACE ( 'NONE', #480, 6.500000000000005329 ) ;
#631 = EDGE_LOOP ( 'NONE', ( #584, #410, #76, #974 ) ) ;
#632 = ORIENTED_EDGE ( 'NONE', *, *, #477, .T. ) ;
#633 = EDGE_CURVE ( 'NONE', #1080, #786, #122, .T. ) ;
#634 = ORIENTED_EDGE ( 'NONE', *, *, #447, .T. ) ;
#635 = DIRECTION ( 'NONE',  ( 0.0000000000000000000, 1.000000000000000000, 0.0000000000000000000 ) ) ;
#636 = VECTOR ( 'NONE', #535, 1000.000000000000000 ) ;
#637 = FACE_OUTER_BOUND ( 'NONE', #986, .T. ) ;
#638 = DIRECTION ( 'NONE',  ( 0.0000000000000000000, 0.0000000000000000000, -1.000000000000000000 ) ) ;
#639 = EDGE_CURVE ( 'NONE', #278, #346, #110, .T. ) ;
#640 = LINE ( 'NONE', #214, #805 ) ;
#641 = VECTOR ( 'NONE', #1032, 1000.000000000000000 ) ;
#642 = ORIENTED_EDGE ( 'NONE', *, *, #736, .T. ) ;
#643 = DIRECTION ( 'NONE',  ( 1.000000000000000000, 0.0000000000000000000, 0.0000000000000000000 ) ) ;
#644 = CARTESIAN_POINT ( 'NONE',  ( 25.00000000000000000, -1.000000000000000000, 120.0000000000000000 ) ) ;
#645 = ORIENTED_EDGE ( 'NONE', *, *, #284, .T. ) ;
#646 = EDGE_CURVE ( 'NONE', #786, #73, #540, .T. ) ;
#647 = DIRECTION ( 'NONE',  ( 0.0000000000000000000, -1.000000000000000000, 0.0000000000000000000 ) ) ;
#648 = ORIENTED_EDGE ( 'NONE', *, *, #784, .T. ) ;
#649 =( LENGTH_UNIT ( ) NAMED_UNIT ( * ) SI_UNIT ( .MILLI., .METRE. ) );
#650 = ORIENTED_EDGE ( 'NONE', *, *, #10, .F. ) ;
#651 = DIRECTION ( 'NONE',  ( 0.0000000000000000000, 1.224646799147353207E-16, -1.000000000000000000 ) ) ;
#652 = EDGE_LOOP ( 'NONE', ( #822, #54, #562, #454 ) ) ;
#653 = EDGE_CURVE ( 'NONE', #73, #75, #933, .T. ) ;
#654 = ORIENTED_EDGE ( 'NONE', *, *, #722, .T. ) ;
#655 = FACE_BOUND ( 'NONE', #397, .T. ) ;
#656 = ORIENTED_EDGE ( 'NONE', *, *, #557, .T. ) ;
#657 = DIRECTION ( 'NONE',  ( 0.0000000000000000000, 0.0000000000000000000, -1.000000000000000000 ) ) ;
#658 = ORIENTED_EDGE ( 'NONE', *, *, #446, .F. ) ;
#659 = DIRECTION ( 'NONE',  ( 1.000000000000000000, 0.0000000000000000000, 0.0000000000000000000 ) ) ;
#660 = EDGE_CURVE ( 'NONE', #346, #851, #289, .T. ) ;
#661 = ORIENTED_EDGE ( 'NONE', *, *, #506, .F. ) ;
#662 = DIRECTION ( 'NONE',  ( 1.000000000000000000, 0.0000000000000000000, 0.0000000000000000000 ) ) ;
#663 = SURFACE_STYLE_USAGE ( .BOTH. , #138 ) ;
#664 = AXIS2_PLACEMENT_3D ( 'NONE', #590, #1140, #1036 ) ;
#665 = DIRECTION ( 'NONE',  ( 1.000000000000000000, 0.0000000000000000000, 0.0000000000000000000 ) ) ;
#666 = FACE_OUTER_BOUND ( 'NONE', #958, .T. ) ;
#667 = LINE ( 'NONE', #460, #615 ) ;
#668 = FILL_AREA_STYLE ('',( #944 ) ) ;
#669 = AXIS2_PLACEMENT_3D ( 'NONE', #1111, #36, #1019 ) ;
#670 =( NAMED_UNIT ( * ) PLANE_ANGLE_UNIT ( ) SI_UNIT ( $, .RADIAN. ) );
#671 = EDGE_LOOP ( 'NONE', ( #658, #411, #357, #1077 ) ) ;
#672 = VERTEX_POINT ( 'NONE', #171 ) ;
#673 = CARTESIAN_POINT ( 'NONE',  ( -14.99999999999999289, -100.2499999999999716, 1.000000000000000888 ) ) ;
#674 = CARTESIAN_POINT ( 'NONE',  ( -15.00000000000001066, -40.74999999999997868, 1.000000000000000888 ) ) ;
#675 =( LENGTH_UNIT ( ) NAMED_UNIT ( * ) SI_UNIT ( .MILLI., .METRE. ) );
#676 = DIRECTION ( 'NONE',  ( 1.000000000000000000, -0.0000000000000000000, -0.0000000000000000000 ) ) ;
#677 = ADVANCED_FACE ( 'NONE', ( #304 ), #1093, .F. ) ;
#678 = VERTEX_POINT ( 'NONE', #117 ) ;
#679 = CARTESIAN_POINT ( 'NONE',  ( 15.00000000000000533, -1.000000000000000888, 40.74999999999999289 ) ) ;
#680 = LINE ( 'NONE', #1130, #1105 ) ;
#681 = DIRECTION ( 'NONE',  ( -0.0000000000000000000, -0.0000000000000000000, 1.000000000000000000 ) ) ;
#682 = ORIENTED_EDGE ( 'NONE', *, *, #639, .F. ) ;
#683 = DIRECTION ( 'NONE',  ( -0.0000000000000000000, -0.0000000000000000000, 1.000000000000000000 ) ) ;
#684 = AXIS2_PLACEMENT_3D ( 'NONE', #553, #710, #707 ) ;
#685 = ADVANCED_FACE ( 'NONE', ( #862, #874, #844, #1158, #829 ), #285, .F. ) ;
#686 = CARTESIAN_POINT ( 'NONE',  ( 14.99999999999999822, -1.000000000000000888, 100.2499999999999858 ) ) ;
#687 = FACE_OUTER_BOUND ( 'NONE', #631, .T. ) ;
#688 = DIRECTION ( 'NONE',  ( 1.000000000000000000, -0.0000000000000000000, 0.0000000000000000000 ) ) ;
#689 = VECTOR ( 'NONE', #1053, 1000.000000000000000 ) ;
#690 = ORIENTED_EDGE ( 'NONE', *, *, #184, .T. ) ;
#691 = ORIENTED_EDGE ( 'NONE', *, *, #301, .F. ) ;
#692 = EDGE_CURVE ( 'NONE', #1090, #224, #177, .T. ) ;
#693 = DIRECTION ( 'NONE',  ( -0.0000000000000000000, -0.0000000000000000000, 1.000000000000000000 ) ) ;
#694 = ORIENTED_EDGE ( 'NONE', *, *, #370, .F. ) ;
#695 = EDGE_CURVE ( 'NONE', #908, #783, #894, .T. ) ;
#696 = ADVANCED_FACE ( 'NONE', ( #145 ), #195, .F. ) ;
#697 = EDGE_CURVE ( 'NONE', #268, #549, #715, .T. ) ;
#698 = AXIS2_PLACEMENT_3D ( 'NONE', #1123, #476, #567 ) ;
#699 = PLANE ( 'NONE',  #119 ) ;
#700 = DIRECTION ( 'NONE',  ( -1.000000000000000000, 0.0000000000000000000, 0.0000000000000000000 ) ) ;
#701 = DIRECTION ( 'NONE',  ( 0.0000000000000000000, -1.000000000000000000, 0.0000000000000000000 ) ) ;
#702 = AXIS2_PLACEMENT_3D ( 'NONE', #620, #442, #259 ) ;
#703 = EDGE_CURVE ( 'NONE', #609, #234, #21, .T. ) ;
#704 = ORIENTED_EDGE ( 'NONE', *, *, #719, .T. ) ;
#705 = ORIENTED_EDGE ( 'NONE', *, *, #852, .F. ) ;
#706 = CARTESIAN_POINT ( 'NONE',  ( -11.99999999999999289, -101.2499999999999858, 1.000000000000000888 ) ) ;
#707 = DIRECTION ( 'NONE',  ( 0.0000000000000000000, 0.0000000000000000000, -1.000000000000000000 ) ) ;
#708 = EDGE_CURVE ( 'NONE', #204, #921, #861, .T. ) ;
#709 = EDGE_CURVE ( 'NONE', #851, #346, #628, .T. ) ;
#710 = DIRECTION ( 'NONE',  ( -0.0000000000000000000, -1.000000000000000000, -0.0000000000000000000 ) ) ;
#711 = MANIFOLD_SOLID_BREP ( 'Schnitt-Linear austragen3', #1012 ) ;
#712 = DIRECTION ( 'NONE',  ( 0.0000000000000000000, 0.0000000000000000000, -1.000000000000000000 ) ) ;
#713 = ORIENTED_EDGE ( 'NONE', *, *, #653, .F. ) ;
#714 = DIRECTION ( 'NONE',  ( 0.0000000000000000000, -0.0000000000000000000, 1.000000000000000000 ) ) ;
#715 = LINE ( 'NONE', #644, #162 ) ;
#716 = CYLINDRICAL_SURFACE ( 'NONE', #698, 4.250000000000007105 ) ;
#717 =( GEOMETRIC_REPRESENTATION_CONTEXT ( 3 ) GLOBAL_UNCERTAINTY_ASSIGNED_CONTEXT ( ( #724 ) ) GLOBAL_UNIT_ASSIGNED_CONTEXT ( ( #498, #47, #738 ) ) REPRESENTATION_CONTEXT ( 'NONE', 'WORKASPACE' ) );
#718 = ORIENTED_EDGE ( 'NONE', *, *, #1087, .T. ) ;
#719 = EDGE_CURVE ( 'NONE', #486, #222, #9, .T. ) ;
#720 = ORIENTED_EDGE ( 'NONE', *, *, #517, .T. ) ;
#721 = COLOUR_RGB ( '',0.5294117647058823595, 0.5490196078431373028, 0.5490196078431373028 ) ;
#722 = EDGE_CURVE ( 'NONE', #73, #441, #216, .T. ) ;
#723 = DIRECTION ( 'NONE',  ( 0.0000000000000000000, -1.000000000000000000, 1.129756885615147778E-16 ) ) ;
#724 = UNCERTAINTY_MEASURE_WITH_UNIT (LENGTH_MEASURE( 1.000000000000000082E-05 ), #498, 'distance_accuracy_value', 'NONE');
#725 = SURFACE_STYLE_USAGE ( .BOTH. , #199 ) ;
#726 = STYLED_ITEM ( 'NONE', ( #793 ), #729 ) ;
#727 = CARTESIAN_POINT ( 'NONE',  ( 25.00000000000000000, -8.500000000000000000, 120.0000000000000000 ) ) ;
#728 = EDGE_CURVE ( 'NONE', #672, #1090, #79, .T. ) ;
#729 = ADVANCED_FACE ( 'NONE', ( #1115, #978, #121, #187, #994 ), #1104, .F. ) ;
#730 = VERTEX_POINT ( 'NONE', #818 ) ;
#731 = ORIENTED_EDGE ( 'NONE', *, *, #1148, .T. ) ;
#732 = AXIS2_PLACEMENT_3D ( 'NONE', #674, #340, #245 ) ;
#733 = VERTEX_POINT ( 'NONE', #870 ) ;
#734 = CARTESIAN_POINT ( 'NONE',  ( 15.00000000000000533, -15.00000000000000000, 40.74999999999999289 ) ) ;
#735 = EDGE_LOOP ( 'NONE', ( #705, #731, #15, #938 ) ) ;
#736 = EDGE_CURVE ( 'NONE', #75, #559, #19, .T. ) ;
#737 = VECTOR ( 'NONE', #574, 1000.000000000000000 ) ;
#738 =( NAMED_UNIT ( * ) SI_UNIT ( $, .STERADIAN. ) SOLID_ANGLE_UNIT ( ) );
#739 = DIRECTION ( 'NONE',  ( 0.0000000000000000000, 0.0000000000000000000, 1.000000000000000000 ) ) ;
#740 = DIRECTION ( 'NONE',  ( 0.0000000000000000000, 0.0000000000000000000, 1.000000000000000000 ) ) ;
#741 = DIRECTION ( 'NONE',  ( 1.000000000000000000, 0.0000000000000000000, 0.0000000000000000000 ) ) ;
#742 = COLOUR_RGB ( '',0.9098039215686274384, 0.4431372549019607643, 0.03137254901960784270 ) ;
#743 = ORIENTED_EDGE ( 'NONE', *, *, #998, .T. ) ;
#744 = EDGE_CURVE ( 'NONE', #786, #383, #256, .T. ) ;
#745 =( NAMED_UNIT ( * ) PLANE_ANGLE_UNIT ( ) SI_UNIT ( $, .RADIAN. ) );
#746 = LINE ( 'NONE', #149, #260 ) ;
#747 = EDGE_LOOP ( 'NONE', ( #1081, #1098, #30, #436 ) ) ;
#748 = ORIENTED_EDGE ( 'NONE', *, *, #1096, .T. ) ;
#749 = CARTESIAN_POINT ( 'NONE',  ( -25.00000000000000000, -15.00000000000000000, 113.4999999999999858 ) ) ;
#750 = ADVANCED_FACE ( 'NONE', ( #687 ), #479, .T. ) ;
#751 = VERTEX_POINT ( 'NONE', #163 ) ;
#752 = CARTESIAN_POINT ( 'NONE',  ( 15.00000000000000000, -100.7499999999999716, 15.00000000000000000 ) ) ;
#753 = DIRECTION ( 'NONE',  ( -0.0000000000000000000, -1.000000000000000000, -0.0000000000000000000 ) ) ;
#754 = EDGE_CURVE ( 'NONE', #31, #1050, #472, .T. ) ;
#755 =( LENGTH_UNIT ( ) NAMED_UNIT ( * ) SI_UNIT ( .MILLI., .METRE. ) );
#756 = CARTESIAN_POINT ( 'NONE',  ( 14.99999999999999822, -15.00000000000000000, 97.25000000000000000 ) ) ;
#757 = DIRECTION ( 'NONE',  ( 0.0000000000000000000, -1.000000000000000000, -1.224646799147353207E-16 ) ) ;
#758 = ORIENTED_EDGE ( 'NONE', *, *, #482, .F. ) ;
#759 =( NAMED_UNIT ( * ) SI_UNIT ( $, .STERADIAN. ) SOLID_ANGLE_UNIT ( ) );
#760 = DIRECTION ( 'NONE',  ( 1.000000000000000000, -0.0000000000000000000, -0.0000000000000000000 ) ) ;
#761 = EDGE_CURVE ( 'NONE', #1050, #751, #336, .T. ) ;
#762 = CYLINDRICAL_SURFACE ( 'NONE', #312, 3.000000000000002665 ) ;
#763 = DIRECTION ( 'NONE',  ( -0.0000000000000000000, -0.0000000000000000000, 1.000000000000000000 ) ) ;
#764 = ORIENTED_EDGE ( 'NONE', *, *, #1089, .F. ) ;
#765 = CARTESIAN_POINT ( 'NONE',  ( 25.00000000000000000, -120.0000000000000000, -1.469576158976823671E-14 ) ) ;
#766 = EDGE_LOOP ( 'NONE', ( #918, #12, #226, #360 ) ) ;
#767 = ORIENTED_EDGE ( 'NONE', *, *, #736, .F. ) ;
#768 = DIRECTION ( 'NONE',  ( 0.0000000000000000000, -1.000000000000000000, 0.0000000000000000000 ) ) ;
#769 = ORIENTED_EDGE ( 'NONE', *, *, #157, .T. ) ;
#770 = SURFACE_STYLE_FILL_AREA ( #668 ) ;
#771 = AXIS2_PLACEMENT_3D ( 'NONE', #1078, #1066, #92 ) ;
#772 = CYLINDRICAL_SURFACE ( 'NONE', #173, 2.999999999999988898 ) ;
#773 = ADVANCED_FACE ( 'NONE', ( #814 ), #1152, .T. ) ;
#774 = CARTESIAN_POINT ( 'NONE',  ( -14.99999999999999112, -1.000000000000000888, 40.74999999999999289 ) ) ;
#775 = EDGE_LOOP ( 'NONE', ( #622, #44, #69, #661 ) ) ;
#776 = EDGE_CURVE ( 'NONE', #118, #920, #107, .T. ) ;
#777 = STYLED_ITEM ( 'NONE', ( #39 ), #151 ) ;
#778 = DIRECTION ( 'NONE',  ( 0.0000000000000000000, 0.0000000000000000000, -1.000000000000000000 ) ) ;
#779 = VECTOR ( 'NONE', #81, 1000.000000000000000 ) ;
#780 = CARTESIAN_POINT ( 'NONE',  ( 17.99999999999999645, -40.74999999999997868, 15.00000000000000000 ) ) ;
#781 = FACE_BOUND ( 'NONE', #133, .T. ) ;
#782 = AXIS2_PLACEMENT_3D ( 'NONE', #332, #926, #665 ) ;
#783 = VERTEX_POINT ( 'NONE', #242 ) ;
#784 = EDGE_CURVE ( 'NONE', #80, #292, #907, .T. ) ;
#785 = DIRECTION ( 'NONE',  ( 0.0000000000000000000, -1.000000000000000000, 0.0000000000000000000 ) ) ;
#786 = VERTEX_POINT ( 'NONE', #1154 ) ;
#787 = DIRECTION ( 'NONE',  ( 0.0000000000000000000, 0.0000000000000000000, 1.000000000000000000 ) ) ;
#788 = ORIENTED_EDGE ( 'NONE', *, *, #959, .F. ) ;
#789 = CARTESIAN_POINT ( 'NONE',  ( 15.00000000000000533, -1.000000000000000888, 40.74999999999999289 ) ) ;
#790 = DIRECTION ( 'NONE',  ( -0.0000000000000000000, -1.000000000000000000, -0.0000000000000000000 ) ) ;
#791 = FILL_AREA_STYLE_COLOUR ( '', #24 ) ;
#792 = CARTESIAN_POINT ( 'NONE',  ( 19.25000000000000711, -100.7499999999999716, 1.000000000000000888 ) ) ;
#793 = PRESENTATION_STYLE_ASSIGNMENT (( #298 ) ) ;
#794 = ORIENTED_EDGE ( 'NONE', *, *, #709, .F. ) ;
#795 = CARTESIAN_POINT ( 'NONE',  ( 17.99999999999999289, -1.000000000000000888, 101.2499999999999858 ) ) ;
#796 = VECTOR ( 'NONE', #1139, 1000.000000000000000 ) ;
#797 = AXIS2_PLACEMENT_3D ( 'NONE', #140, #1125, #659 ) ;
#798 = CARTESIAN_POINT ( 'NONE',  ( 25.00000000000000000, -1.000000000000014655, 1.000000000000000444 ) ) ;
#799 = ORIENTED_EDGE ( 'NONE', *, *, #512, .T. ) ;
#800 = CARTESIAN_POINT ( 'NONE',  ( -25.00000000000000000, -120.0000000000000000, 8.499999999999987566 ) ) ;
#801 = EDGE_CURVE ( 'NONE', #733, #678, #552, .T. ) ;
#802 = ADVANCED_FACE ( 'NONE', ( #1113 ), #459, .F. ) ;
#803 = CARTESIAN_POINT ( 'NONE',  ( 25.00000000000000000, -27.99999999999999645, 14.99999999999999645 ) ) ;
#804 = CARTESIAN_POINT ( 'NONE',  ( 15.00000000000000533, -15.00000000000000000, 40.74999999999999289 ) ) ;
#805 = VECTOR ( 'NONE', #911, 1000.000000000000000 ) ;
#806 = CYLINDRICAL_SURFACE ( 'NONE', #152, 4.250000000000000000 ) ;
#807 = CARTESIAN_POINT ( 'NONE',  ( -25.00000000000000000, -27.99999999999999645, 14.99999999999999645 ) ) ;
#808 = VERTEX_POINT ( 'NONE', #337 ) ;
#809 = ORIENTED_EDGE ( 'NONE', *, *, #108, .F. ) ;
#810 = ORIENTED_EDGE ( 'NONE', *, *, #284, .F. ) ;
#811 = DIRECTION ( 'NONE',  ( 0.0000000000000000000, 0.0000000000000000000, 1.000000000000000000 ) ) ;
#812 = ORIENTED_EDGE ( 'NONE', *, *, #754, .F. ) ;
#813 = DIRECTION ( 'NONE',  ( 1.000000000000000000, -0.0000000000000000000, -0.0000000000000000000 ) ) ;
#814 = FACE_OUTER_BOUND ( 'NONE', #898, .T. ) ;
#815 = DIRECTION ( 'NONE',  ( 0.0000000000000000000, 0.0000000000000000000, 1.000000000000000000 ) ) ;
#816 = DIRECTION ( 'NONE',  ( -0.0000000000000000000, -0.0000000000000000000, 1.000000000000000000 ) ) ;
#817 = ORIENTED_EDGE ( 'NONE', *, *, #703, .T. ) ;
#818 = CARTESIAN_POINT ( 'NONE',  ( -17.99999999999999289, -100.2499999999999716, 15.00000000000000000 ) ) ;
#819 = ORIENTED_EDGE ( 'NONE', *, *, #470, .F. ) ;
#820 = VERTEX_POINT ( 'NONE', #68 ) ;
#821 = CARTESIAN_POINT ( 'NONE',  ( 25.00000000000000000, -113.4999999999999858, 14.99999999999998579 ) ) ;
#822 = ORIENTED_EDGE ( 'NONE', *, *, #703, .F. ) ;
#823 = LINE ( 'NONE', #148, #600 ) ;
#824 = CARTESIAN_POINT ( 'NONE',  ( -15.00000000000000178, -15.00000000000000000, 100.7499999999999858 ) ) ;
#825 = CARTESIAN_POINT ( 'NONE',  ( 25.00000000000000000, -1.836970198721029589E-15, 15.00000000000000000 ) ) ;
#826 = AXIS2_PLACEMENT_3D ( 'NONE', #155, #932, #51 ) ;
#827 = CARTESIAN_POINT ( 'NONE',  ( 15.00000000000000533, -1.000000000000000888, 40.74999999999999289 ) ) ;
#828 = AXIS2_PLACEMENT_3D ( 'NONE', #941, #608, #955 ) ;
#829 = FACE_OUTER_BOUND ( 'NONE', #747, .T. ) ;
#830 = CYLINDRICAL_SURFACE ( 'NONE', #839, 4.250000000000003553 ) ;
#831 = DIRECTION ( 'NONE',  ( 0.0000000000000000000, -1.000000000000000000, -1.224646799147353207E-16 ) ) ;
#832 = EDGE_CURVE ( 'NONE', #1062, #80, #244, .T. ) ;
#833 = CARTESIAN_POINT ( 'NONE',  ( -15.00000000000000178, -1.000000000000000888, 96.49999999999998579 ) ) ;
#834 = LINE ( 'NONE', #492, #202 ) ;
#835 = DIRECTION ( 'NONE',  ( -0.0000000000000000000, -1.000000000000000000, -0.0000000000000000000 ) ) ;
#836 = VERTEX_POINT ( 'NONE', #780 ) ;
#837 = ORIENTED_EDGE ( 'NONE', *, *, #1067, .F. ) ;
#838 = ORIENTED_EDGE ( 'NONE', *, *, #744, .T. ) ;
#839 = AXIS2_PLACEMENT_3D ( 'NONE', #947, #501, #496 ) ;
#840 = CARTESIAN_POINT ( 'NONE',  ( -15.00000000000001066, -40.74999999999997868, 15.00000000000000000 ) ) ;
#841 = EDGE_CURVE ( 'NONE', #820, #751, #197, .T. ) ;
#842 = ADVANCED_FACE ( 'NONE', ( #637 ), #624, .T. ) ;
#843 = AXIS2_PLACEMENT_3D ( 'NONE', #440, #954, #1146 ) ;
#844 = FACE_BOUND ( 'NONE', #518, .T. ) ;
#845 = CARTESIAN_POINT ( 'NONE',  ( 25.00000000000000000, -113.4999999999999858, 8.499999999999987566 ) ) ;
#846 = EDGE_LOOP ( 'NONE', ( #989, #343, #900, #365 ) ) ;
#847 = EDGE_CURVE ( 'NONE', #234, #74, #61, .T. ) ;
#848 = AXIS2_PLACEMENT_3D ( 'NONE', #774, #768, #161 ) ;
#849 = ORIENTED_EDGE ( 'NONE', *, *, #722, .F. ) ;
#850 = CARTESIAN_POINT ( 'NONE',  ( -17.99999999999998934, -101.2499999999999858, 15.00000000000000000 ) ) ;
#851 = VERTEX_POINT ( 'NONE', #368 ) ;
#852 = EDGE_CURVE ( 'NONE', #280, #733, #429, .T. ) ;
#853 = ADVANCED_BREP_SHAPE_REPRESENTATION ( '03_025_bracket', ( #711, #55 ), #115 ) ;
#854 = FACE_OUTER_BOUND ( 'NONE', #321, .T. ) ;
#855 = DIRECTION ( 'NONE',  ( 0.0000000000000000000, 0.0000000000000000000, -1.000000000000000000 ) ) ;
#856 = CARTESIAN_POINT ( 'NONE',  ( 17.99999999999999289, -15.00000000000000000, 100.2499999999999858 ) ) ;
#857 = VECTOR ( 'NONE', #183, 1000.000000000000000 ) ;
#858 = DIRECTION ( 'NONE',  ( 0.0000000000000000000, 0.0000000000000000000, 1.000000000000000000 ) ) ;
#859 = SURFACE_STYLE_FILL_AREA ( #391 ) ;
#860 = DIRECTION ( 'NONE',  ( 1.000000000000000000, -0.0000000000000000000, -0.0000000000000000000 ) ) ;
#861 = CIRCLE ( 'NONE', #1022, 4.250000000000003553 ) ;
#862 = FACE_BOUND ( 'NONE', #877, .T. ) ;
#863 = FACE_OUTER_BOUND ( 'NONE', #1005, .T. ) ;
#864 = FACE_OUTER_BOUND ( 'NONE', #625, .T. ) ;
#865 = PLANE ( 'NONE',  #85 ) ;
#866 = DIRECTION ( 'NONE',  ( 1.000000000000000000, 0.0000000000000000000, 0.0000000000000000000 ) ) ;
#867 = ORIENTED_EDGE ( 'NONE', *, *, #20, .T. ) ;
#868 = EDGE_CURVE ( 'NONE', #1024, #921, #1103, .T. ) ;
#869 = CARTESIAN_POINT ( 'NONE',  ( -15.00000000000000178, -15.00000000000000000, 105.0000000000000000 ) ) ;
#870 = CARTESIAN_POINT ( 'NONE',  ( -10.75000000000000888, -40.74999999999997868, 1.000000000000000888 ) ) ;
#871 = LINE ( 'NONE', #798, #243 ) ;
#872 = DIRECTION ( 'NONE',  ( 1.000000000000000000, 0.0000000000000000000, 0.0000000000000000000 ) ) ;
#873 = CARTESIAN_POINT ( 'NONE',  ( 15.00000000000000000, -100.7499999999999716, 1.000000000000000888 ) ) ;
#874 = FACE_BOUND ( 'NONE', #587, .T. ) ;
#875 = FACE_OUTER_BOUND ( 'NONE', #520, .T. ) ;
#876 = DIRECTION ( 'NONE',  ( 0.0000000000000000000, -1.000000000000000000, 0.0000000000000000000 ) ) ;
#877 = EDGE_LOOP ( 'NONE', ( #261, #154, #594, #505, #37 ) ) ;
#878 = FACE_OUTER_BOUND ( 'NONE', #881, .T. ) ;
#879 = CARTESIAN_POINT ( 'NONE',  ( 12.00000000000000000, -1.000000000000000888, 101.2499999999999858 ) ) ;
#880 = CARTESIAN_POINT ( 'NONE',  ( -25.00000000000000000, -8.500000000000000000, 113.4999999999999858 ) ) ;
#881 = EDGE_LOOP ( 'NONE', ( #1151, #499, #252, #414 ) ) ;
#882 = ORIENTED_EDGE ( 'NONE', *, *, #995, .T. ) ;
#883 = DIRECTION ( 'NONE',  ( 0.0000000000000000000, 0.0000000000000000000, 1.000000000000000000 ) ) ;
#884 = AXIS2_PLACEMENT_3D ( 'NONE', #169, #760, #241 ) ;
#885 = VECTOR ( 'NONE', #635, 1000.000000000000000 ) ;
#886 = VECTOR ( 'NONE', #813, 1000.000000000000000 ) ;
#887 = EDGE_CURVE ( 'NONE', #26, #383, #1011, .T. ) ;
#888 = EDGE_CURVE ( 'NONE', #921, #204, #142, .T. ) ;
#889 = PLANE ( 'NONE',  #229 ) ;
#890 = EDGE_LOOP ( 'NONE', ( #534, #374 ) ) ;
#891 = DIRECTION ( 'NONE',  ( 0.0000000000000000000, 0.0000000000000000000, -1.000000000000000000 ) ) ;
#892 = DIRECTION ( 'NONE',  ( 0.0000000000000000000, 0.0000000000000000000, -1.000000000000000000 ) ) ;
#893 = CARTESIAN_POINT ( 'NONE',  ( 25.00000000000000000, 0.0000000000000000000, 0.0000000000000000000 ) ) ;
#894 = LINE ( 'NONE', #291, #629 ) ;
#895 = DIRECTION ( 'NONE',  ( -0.0000000000000000000, -1.000000000000000000, -0.0000000000000000000 ) ) ;
#896 = LINE ( 'NONE', #318, #135 ) ;
#897 = AXIS2_PLACEMENT_3D ( 'NONE', #804, #109, #891 ) ;
#898 = EDGE_LOOP ( 'NONE', ( #507, #52, #238, #490 ) ) ;
#899 = ORIENTED_EDGE ( 'NONE', *, *, #18, .T. ) ;
#900 = ORIENTED_EDGE ( 'NONE', *, *, #1092, .T. ) ;
#901 =( LENGTH_UNIT ( ) NAMED_UNIT ( * ) SI_UNIT ( .MILLI., .METRE. ) );
#902 = PRESENTATION_STYLE_ASSIGNMENT (( #663 ) ) ;
#903 = EDGE_CURVE ( 'NONE', #63, #851, #1041, .T. ) ;
#904 = FACE_OUTER_BOUND ( 'NONE', #181, .T. ) ;
#905 = DIRECTION ( 'NONE',  ( 0.0000000000000000000, 0.0000000000000000000, -1.000000000000000000 ) ) ;
#906 = AXIS2_PLACEMENT_3D ( 'NONE', #880, #612, #606 ) ;
#907 = LINE ( 'NONE', #1049, #35 ) ;
#908 = VERTEX_POINT ( 'NONE', #616 ) ;
#909 = AXIS2_PLACEMENT_3D ( 'NONE', #153, #605, #527 ) ;
#910 = EDGE_CURVE ( 'NONE', #920, #1062, #196, .T. ) ;
#911 = DIRECTION ( 'NONE',  ( -0.0000000000000000000, 1.220866311874433726E-16, 1.000000000000000000 ) ) ;
#912 = VECTOR ( 'NONE', #895, 1000.000000000000000 ) ;
#913 = CARTESIAN_POINT ( 'NONE',  ( 25.00000000000000000, -8.500000000000000000, 120.0000000000000000 ) ) ;
#914 = AXIS2_PLACEMENT_3D ( 'NONE', #627, #105, #892 ) ;
#915 = ORIENTED_EDGE ( 'NONE', *, *, #613, .F. ) ;
#916 = DIRECTION ( 'NONE',  ( 0.0000000000000000000, 0.0000000000000000000, -1.000000000000000000 ) ) ;
#917 = CIRCLE ( 'NONE', #826, 6.499999999999999112 ) ;
#918 = ORIENTED_EDGE ( 'NONE', *, *, #695, .F. ) ;
#919 = VERTEX_POINT ( 'NONE', #452 ) ;
#920 = VERTEX_POINT ( 'NONE', #172 ) ;
#921 = VERTEX_POINT ( 'NONE', #869 ) ;
#922 = CARTESIAN_POINT ( 'NONE',  ( -14.99999999999999112, -15.00000000000000000, 37.74999999999999289 ) ) ;
#923 = CARTESIAN_POINT ( 'NONE',  ( -14.99999999999999112, -1.000000000000000888, 37.74999999999999289 ) ) ;
#924 = UNCERTAINTY_MEASURE_WITH_UNIT (LENGTH_MEASURE( 1.000000000000000082E-05 ), #755, 'distance_accuracy_value', 'NONE');
#925 = EDGE_CURVE ( 'NONE', #919, #167, #871, .T. ) ;
#926 = DIRECTION ( 'NONE',  ( 0.0000000000000000000, 0.0000000000000000000, 1.000000000000000000 ) ) ;
#927 = EDGE_CURVE ( 'NONE', #486, #549, #993, .T. ) ;
#928 = LINE ( 'NONE', #458, #93 ) ;
#929 = AXIS2_PLACEMENT_3D ( 'NONE', #339, #952, #943 ) ;
#930 = VECTOR ( 'NONE', #961, 1000.000000000000000 ) ;
#931 = DIRECTION ( 'NONE',  ( -0.0000000000000000000, -0.0000000000000000000, 1.000000000000000000 ) ) ;
#932 = DIRECTION ( 'NONE',  ( 1.000000000000000000, -0.0000000000000000000, -0.0000000000000000000 ) ) ;
#933 = LINE ( 'NONE', #795, #65 ) ;
#934 = SURFACE_STYLE_FILL_AREA ( #334 ) ;
#935 = ORIENTED_EDGE ( 'NONE', *, *, #519, .F. ) ;
#936 = DIRECTION ( 'NONE',  ( 0.0000000000000000000, 0.0000000000000000000, 1.000000000000000000 ) ) ;
#937 = EDGE_LOOP ( 'NONE', ( #170, #819 ) ) ;
#938 = ORIENTED_EDGE ( 'NONE', *, *, #801, .F. ) ;
#939 = CARTESIAN_POINT ( 'NONE',  ( -25.00000000000000000, -15.00000000000000000, 120.0000000000000000 ) ) ;
#940 = DIRECTION ( 'NONE',  ( 1.000000000000000000, 0.0000000000000000000, 0.0000000000000000000 ) ) ;
#941 = CARTESIAN_POINT ( 'NONE',  ( 14.99999999999999822, -1.000000000000000888, 101.2499999999999858 ) ) ;
#942 = LINE ( 'NONE', #488, #576 ) ;
#943 = DIRECTION ( 'NONE',  ( 0.0000000000000000000, 0.0000000000000000000, -1.000000000000000000 ) ) ;
#944 = FILL_AREA_STYLE_COLOUR ( '', #721 ) ;
#945 = DIRECTION ( 'NONE',  ( -0.0000000000000000000, -1.000000000000000000, -0.0000000000000000000 ) ) ;
#946 = EDGE_CURVE ( 'NONE', #422, #730, #1128, .T. ) ;
#947 = CARTESIAN_POINT ( 'NONE',  ( -15.00000000000000178, -1.000000000000000888, 100.7499999999999858 ) ) ;
#948 = SURFACE_STYLE_FILL_AREA ( #25 ) ;
#949 = SURFACE_SIDE_STYLE ('',( #934 ) ) ;
#950 = FACE_BOUND ( 'NONE', #225, .T. ) ;
#951 = ORIENTED_EDGE ( 'NONE', *, *, #660, .F. ) ;
#952 = DIRECTION ( 'NONE',  ( 0.0000000000000000000, -1.000000000000000000, 0.0000000000000000000 ) ) ;
#953 = VERTEX_POINT ( 'NONE', #975 ) ;
#954 = DIRECTION ( 'NONE',  ( 0.0000000000000000000, -1.000000000000000000, 0.0000000000000000000 ) ) ;
#955 = DIRECTION ( 'NONE',  ( 0.0000000000000000000, 0.0000000000000000000, -1.000000000000000000 ) ) ;
#956 = AXIS2_PLACEMENT_3D ( 'NONE', #686, #439, #618 ) ;
#957 = AXIS2_PLACEMENT_3D ( 'NONE', #396, #647, #575 ) ;
#958 = EDGE_LOOP ( 'NONE', ( #1017, #838, #585, #849 ) ) ;
#959 = EDGE_CURVE ( 'NONE', #1094, #836, #254, .T. ) ;
#960 = LINE ( 'NONE', #131, #401 ) ;
#961 = DIRECTION ( 'NONE',  ( -0.0000000000000000000, -1.000000000000000000, -0.0000000000000000000 ) ) ;
#962 = VECTOR ( 'NONE', #455, 1000.000000000000000 ) ;
#963 = EDGE_LOOP ( 'NONE', ( #690, #809, #497, #263 ) ) ;
#964 = DIRECTION ( 'NONE',  ( -0.0000000000000000000, -0.0000000000000000000, 1.000000000000000000 ) ) ;
#965 = CIRCLE ( 'NONE', #843, 2.999999999999988898 ) ;
#966 = CARTESIAN_POINT ( 'NONE',  ( -15.00000000000000178, -15.00000000000000000, 100.7499999999999858 ) ) ;
#967 = ORIENTED_EDGE ( 'NONE', *, *, #604, .F. ) ;
#968 = EDGE_LOOP ( 'NONE', ( #191, #211, #463, #1137 ) ) ;
#969 = ORIENTED_EDGE ( 'NONE', *, *, #72, .T. ) ;
#970 = EDGE_CURVE ( 'NONE', #234, #609, #566, .T. ) ;
#971 = EDGE_CURVE ( 'NONE', #503, #1050, #928, .T. ) ;
#972 = DIRECTION ( 'NONE',  ( 0.0000000000000000000, 0.0000000000000000000, -1.000000000000000000 ) ) ;
#973 = EDGE_LOOP ( 'NONE', ( #338, #788 ) ) ;
#974 = ORIENTED_EDGE ( 'NONE', *, *, #910, .F. ) ;
#975 = CARTESIAN_POINT ( 'NONE',  ( -15.00000000000000178, -1.000000000000000888, 96.49999999999998579 ) ) ;
#976 = PRESENTATION_LAYER_ASSIGNMENT (  '', '', ( #777 ) ) ;
#977 = CARTESIAN_POINT ( 'NONE',  ( 14.99999999999998934, -40.74999999999997868, 15.00000000000000000 ) ) ;
#978 = FACE_BOUND ( 'NONE', #128, .T. ) ;
#979 = AXIS2_PLACEMENT_3D ( 'NONE', #400, #651, #485 ) ;
#980 = VECTOR ( 'NONE', #272, 1000.000000000000000 ) ;
#981 = ORIENTED_EDGE ( 'NONE', *, *, #18, .F. ) ;
#982 = AXIS2_PLACEMENT_3D ( 'NONE', #237, #335, #940 ) ;
#983 = ORIENTED_EDGE ( 'NONE', *, *, #887, .T. ) ;
#984 = CYLINDRICAL_SURFACE ( 'NONE', #1134, 4.250000000000003553 ) ;
#985 = DIRECTION ( 'NONE',  ( -0.0000000000000000000, -1.000000000000000000, -0.0000000000000000000 ) ) ;
#986 = EDGE_LOOP ( 'NONE', ( #313, #296, #704, #1106 ) ) ;
#987 = ORIENTED_EDGE ( 'NONE', *, *, #217, .T. ) ;
#988 = ORIENTED_EDGE ( 'NONE', *, *, #719, .F. ) ;
#989 = ORIENTED_EDGE ( 'NONE', *, *, #868, .F. ) ;
#990 = PRODUCT ( '03_025_bracket', '03_025_bracket', '', ( #424 ) ) ;
#991 = ADVANCED_FACE ( 'NONE', ( #471 ), #213, .F. ) ;
#992 = AXIS2_PLACEMENT_3D ( 'NONE', #23, #811, #1002 ) ;
#993 = LINE ( 'NONE', #267, #962 ) ;
#994 = FACE_OUTER_BOUND ( 'NONE', #136, .T. ) ;
#995 = EDGE_CURVE ( 'NONE', #808, #503, #58, .T. ) ;
#996 = DIRECTION ( 'NONE',  ( -0.0000000000000000000, 1.000000000000000000, 0.0000000000000000000 ) ) ;
#997 = EDGE_LOOP ( 'NONE', ( #1052, #817 ) ) ;
#998 = EDGE_CURVE ( 'NONE', #75, #1037, #231, .T. ) ;
#999 = CIRCLE ( 'NONE', #1091, 3.000000000000002665 ) ;
#1000 = EDGE_CURVE ( 'NONE', #222, #268, #667, .T. ) ;
#1001 = FACE_OUTER_BOUND ( 'NONE', #671, .T. ) ;
#1002 = DIRECTION ( 'NONE',  ( 1.000000000000000000, 0.0000000000000000000, 0.0000000000000000000 ) ) ;
#1003 = FACE_OUTER_BOUND ( 'NONE', #362, .T. ) ;
#1004 = ORIENTED_EDGE ( 'NONE', *, *, #927, .T. ) ;
#1005 = EDGE_LOOP ( 'NONE', ( #1122, #988, #915, #837 ) ) ;
#1006 = CARTESIAN_POINT ( 'NONE',  ( 14.99999999999999822, -1.000000000000000888, 100.2499999999999858 ) ) ;
#1007 = EDGE_CURVE ( 'NONE', #503, #820, #1010, .T. ) ;
#1008 = FACE_OUTER_BOUND ( 'NONE', #963, .T. ) ;
#1009 = DIRECTION ( 'NONE',  ( 3.469446951953611033E-15, -1.000000000000000000, -0.0000000000000000000 ) ) ;
#1010 = LINE ( 'NONE', #706, #885 ) ;
#1011 = CIRCLE ( 'NONE', #139, 2.999999999999988898 ) ;
#1012 = CLOSED_SHELL ( 'NONE', ( #1028, #610, #317, #617, #186, #595, #94, #487, #773, #842, #685, #696, #493, #1044, #64, #750, #729, #151, #100, #239, #991, #802, #1145, #508, #623, #257, #677, #273, #1144, #1155, #209, #1063 ) ) ;
#1013 = EDGE_CURVE ( 'NONE', #582, #1062, #457, .T. ) ;
#1014 = VECTOR ( 'NONE', #763, 1000.000000000000000 ) ;
#1015 = CIRCLE ( 'NONE', #344, 4.250000000000007105 ) ;
#1016 = CIRCLE ( 'NONE', #221, 4.250000000000003553 ) ;
#1017 = ORIENTED_EDGE ( 'NONE', *, *, #646, .F. ) ;
#1018 = VECTOR ( 'NONE', #45, 1000.000000000000000 ) ;
#1019 = DIRECTION ( 'NONE',  ( 0.0000000000000000000, 0.0000000000000000000, -1.000000000000000000 ) ) ;
#1020 = ORIENTED_EDGE ( 'NONE', *, *, #287, .F. ) ;
#1021 = ORIENTED_EDGE ( 'NONE', *, *, #761, .F. ) ;
#1022 = AXIS2_PLACEMENT_3D ( 'NONE', #824, #483, #638 ) ;
#1023 = CARTESIAN_POINT ( 'NONE',  ( 25.00000000000000000, -15.00000000000000000, 27.99999999999999289 ) ) ;
#1024 = VERTEX_POINT ( 'NONE', #275 ) ;
#1025 = DIRECTION ( 'NONE',  ( -1.000000000000000000, -0.0000000000000000000, -0.0000000000000000000 ) ) ;
#1026 = EDGE_CURVE ( 'NONE', #783, #475, #159, .T. ) ;
#1027 = AXIS2_PLACEMENT_3D ( 'NONE', #513, #247, #143 ) ;
#1028 = ADVANCED_FACE ( 'NONE', ( #666 ), #772, .F. ) ;
#1029 = CARTESIAN_POINT ( 'NONE',  ( 17.99999999999999645, -40.74999999999997868, 1.000000000000000888 ) ) ;
#1030 = MECHANICAL_DESIGN_GEOMETRIC_PRESENTATION_REPRESENTATION (  '', ( #1054 ), #408 ) ;
#1031 = EDGE_LOOP ( 'NONE', ( #769, #89, #767, #743 ) ) ;
#1032 = DIRECTION ( 'NONE',  ( -1.000000000000000000, -0.0000000000000000000, -0.0000000000000000000 ) ) ;
#1033 = CIRCLE ( 'NONE', #797, 2.999999999999999112 ) ;
#1034 = LINE ( 'NONE', #579, #1018 ) ;
#1035 = DIRECTION ( 'NONE',  ( 1.000000000000000000, 0.0000000000000000000, 0.0000000000000000000 ) ) ;
#1036 = DIRECTION ( 'NONE',  ( 0.0000000000000000000, 0.0000000000000000000, -1.000000000000000000 ) ) ;
#1037 = VERTEX_POINT ( 'NONE', #561 ) ;
#1038 = CARTESIAN_POINT ( 'NONE',  ( 12.00000000000000000, -1.000000000000000888, 101.2499999999999858 ) ) ;
#1039 = DIRECTION ( 'NONE',  ( -1.000000000000000000, -3.469446951953611428E-15, 0.0000000000000000000 ) ) ;
#1040 = VECTOR ( 'NONE', #7, 1000.000000000000000 ) ;
#1041 = LINE ( 'NONE', #529, #1040 ) ;
#1042 = CARTESIAN_POINT ( 'NONE',  ( -17.99999999999999289, -100.2499999999999716, 1.000000000000000888 ) ) ;
#1043 = DIRECTION ( 'NONE',  ( 0.0000000000000000000, -0.0000000000000000000, -1.000000000000000000 ) ) ;
#1044 = ADVANCED_FACE ( 'NONE', ( #854 ), #48, .F. ) ;
#1045 = ORIENTED_EDGE ( 'NONE', *, *, #692, .F. ) ;
#1046 = CARTESIAN_POINT ( 'NONE',  ( 14.99999999999999822, -1.000000000000000888, 101.2499999999999858 ) ) ;
#1047 = CIRCLE ( 'NONE', #147, 4.250000000000000000 ) ;
#1048 = EDGE_LOOP ( 'NONE', ( #987, #882, #2, #634 ) ) ;
#1049 = CARTESIAN_POINT ( 'NONE',  ( 25.00000000000000000, -113.4999999999999858, 14.99999999999998579 ) ) ;
#1050 = VERTEX_POINT ( 'NONE', #279 ) ;
#1051 = ORIENTED_EDGE ( 'NONE', *, *, #306, .T. ) ;
#1052 = ORIENTED_EDGE ( 'NONE', *, *, #970, .T. ) ;
#1053 = DIRECTION ( 'NONE',  ( -0.0000000000000000000, -0.0000000000000000000, 1.000000000000000000 ) ) ;
#1054 = STYLED_ITEM ( 'NONE', ( #902 ), #853 ) ;
#1055 = DIRECTION ( 'NONE',  ( 1.000000000000000000, 0.0000000000000000000, -0.0000000000000000000 ) ) ;
#1056 = DIRECTION ( 'NONE',  ( 0.0000000000000000000, -1.000000000000000000, 0.0000000000000000000 ) ) ;
#1057 = LINE ( 'NONE', #478, #70 ) ;
#1058 = CARTESIAN_POINT ( 'NONE',  ( 14.99999999999999822, -1.000000000000000888, 100.2499999999999858 ) ) ;
#1059 = ORIENTED_EDGE ( 'NONE', *, *, #1013, .T. ) ;
#1060 = CARTESIAN_POINT ( 'NONE',  ( 17.99999999999999289, -1.000000000000000888, 101.2499999999999858 ) ) ;
#1061 = CARTESIAN_POINT ( 'NONE',  ( -25.00000000000000000, -1.000000000000014655, 1.000000000000000444 ) ) ;
#1062 = VERTEX_POINT ( 'NONE', #800 ) ;
#1063 = ADVANCED_FACE ( 'NONE', ( #1008 ), #889, .F. ) ;
#1064 = DIRECTION ( 'NONE',  ( 0.0000000000000000000, 0.0000000000000000000, -1.000000000000000000 ) ) ;
#1065 = AXIS2_PLACEMENT_3D ( 'NONE', #1058, #526, #96 ) ;
#1066 = DIRECTION ( 'NONE',  ( 0.0000000000000000000, 0.0000000000000000000, 1.000000000000000000 ) ) ;
#1067 = EDGE_CURVE ( 'NONE', #102, #466, #348, .T. ) ;
#1068 = CARTESIAN_POINT ( 'NONE',  ( 10.74999999999999289, -100.7499999999999716, 1.000000000000000888 ) ) ;
#1069 = CARTESIAN_POINT ( 'NONE',  ( 14.99999999999998934, -40.74999999999997868, 1.000000000000000888 ) ) ;
#1070 = EDGE_LOOP ( 'NONE', ( #572, #116, #125, #129 ) ) ;
#1071 = PRODUCT_DEFINITION_FORMATION_WITH_SPECIFIED_SOURCE ( 'ANY', '', #990, .NOT_KNOWN. ) ;
#1072 = DIRECTION ( 'NONE',  ( 0.0000000000000000000, -1.000000000000000000, 0.0000000000000000000 ) ) ;
#1073 = AXIS2_PLACEMENT_3D ( 'NONE', #124, #203, #815 ) ;
#1074 = CIRCLE ( 'NONE', #525, 3.000000000000006217 ) ;
#1075 = CIRCLE ( 'NONE', #468, 4.250000000000003553 ) ;
#1076 = DIRECTION ( 'NONE',  ( -0.0000000000000000000, -0.0000000000000000000, 1.000000000000000000 ) ) ;
#1077 = ORIENTED_EDGE ( 'NONE', *, *, #903, .F. ) ;
#1078 = CARTESIAN_POINT ( 'NONE',  ( -14.99999999999999289, -100.2499999999999716, 15.00000000000000000 ) ) ;
#1079 = DIRECTION ( 'NONE',  ( 1.000000000000000000, 0.0000000000000000000, 0.0000000000000000000 ) ) ;
#1080 = VERTEX_POINT ( 'NONE', #555 ) ;
#1081 = ORIENTED_EDGE ( 'NONE', *, *, #1096, .F. ) ;
#1082 = UNCERTAINTY_MEASURE_WITH_UNIT (LENGTH_MEASURE( 1.000000000000000082E-05 ), #675, 'distance_accuracy_value', 'NONE');
#1083 = ORIENTED_EDGE ( 'NONE', *, *, #248, .T. ) ;
#1084 = DIRECTION ( 'NONE',  ( -0.0000000000000000000, -0.0000000000000000000, 1.000000000000000000 ) ) ;
#1085 = DIRECTION ( 'NONE',  ( 0.0000000000000000000, 0.0000000000000000000, 1.000000000000000000 ) ) ;
#1086 = DIRECTION ( 'NONE',  ( 0.0000000000000000000, -1.000000000000000000, 0.0000000000000000000 ) ) ;
#1087 = EDGE_CURVE ( 'NONE', #559, #1080, #960, .T. ) ;
#1088 = AXIS2_PLACEMENT_3D ( 'NONE', #734, #210, #1101 ) ;
#1089 = EDGE_CURVE ( 'NONE', #118, #919, #942, .T. ) ;
#1090 = VERTEX_POINT ( 'NONE', #803 ) ;
#1091 = AXIS2_PLACEMENT_3D ( 'NONE', #266, #785, #778 ) ;
#1092 = EDGE_CURVE ( 'NONE', #953, #204, #523, .T. ) ;
#1093 = CYLINDRICAL_SURFACE ( 'NONE', #684, 4.250000000000003553 ) ;
#1094 = VERTEX_POINT ( 'NONE', #240 ) ;
#1095 = ORIENTED_EDGE ( 'NONE', *, *, #557, .F. ) ;
#1096 = EDGE_CURVE ( 'NONE', #102, #672, #1112, .T. ) ;
#1097 = ORIENTED_EDGE ( 'NONE', *, *, #708, .F. ) ;
#1098 = ORIENTED_EDGE ( 'NONE', *, *, #1067, .T. ) ;
#1099 = DIRECTION ( 'NONE',  ( 0.0000000000000000000, 0.0000000000000000000, 1.000000000000000000 ) ) ;
#1100 = EDGE_CURVE ( 'NONE', #474, #1094, #578, .T. ) ;
#1101 = DIRECTION ( 'NONE',  ( 0.0000000000000000000, 0.0000000000000000000, -1.000000000000000000 ) ) ;
#1102 = VECTOR ( 'NONE', #17, 1000.000000000000000 ) ;
#1103 = LINE ( 'NONE', #95, #390 ) ;
#1104 = PLANE ( 'NONE',  #208 ) ;
#1105 = VECTOR ( 'NONE', #757, 1000.000000000000000 ) ;
#1106 = ORIENTED_EDGE ( 'NONE', *, *, #1000, .T. ) ;
#1107 = CARTESIAN_POINT ( 'NONE',  ( -25.00000000000000000, -27.99999999999999645, 14.99999999999999645 ) ) ;
#1108 = LINE ( 'NONE', #1038, #395 ) ;
#1109 = ORIENTED_EDGE ( 'NONE', *, *, #998, .F. ) ;
#1110 = ORIENTED_EDGE ( 'NONE', *, *, #482, .T. ) ;
#1111 = CARTESIAN_POINT ( 'NONE',  ( -14.99999999999999112, -1.000000000000000888, 40.74999999999999289 ) ) ;
#1112 = LINE ( 'NONE', #589, #601 ) ;
#1113 = FACE_OUTER_BOUND ( 'NONE', #113, .T. ) ;
#1114 = CARTESIAN_POINT ( 'NONE',  ( 25.00000000000000000, -1.000000000000000000, 120.0000000000000000 ) ) ;
#1115 = FACE_BOUND ( 'NONE', #164, .T. ) ;
#1116 = DIRECTION ( 'NONE',  ( 0.0000000000000000000, -1.000000000000000000, 0.0000000000000000000 ) ) ;
#1117 = MECHANICAL_DESIGN_GEOMETRIC_PRESENTATION_REPRESENTATION (  '', ( #106 ), #418 ) ;
#1118 = CIRCLE ( 'NONE', #771, 2.999999999999999112 ) ;
#1119 = SURFACE_STYLE_USAGE ( .BOTH. , #949 ) ;
#1120 = VERTEX_POINT ( 'NONE', #923 ) ;
#1121 = VECTOR ( 'NONE', #327, 1000.000000000000000 ) ;
#1122 = ORIENTED_EDGE ( 'NONE', *, *, #72, .F. ) ;
#1123 = CARTESIAN_POINT ( 'NONE',  ( 15.00000000000000000, -100.7499999999999716, 1.000000000000000888 ) ) ;
#1124 = VERTEX_POINT ( 'NONE', #1029 ) ;
#1125 = DIRECTION ( 'NONE',  ( 0.0000000000000000000, 0.0000000000000000000, 1.000000000000000000 ) ) ;
#1126 = PRODUCT_DEFINITION_SHAPE ( 'NONE', 'NONE',  #532 ) ;
#1127 = CARTESIAN_POINT ( 'NONE',  ( -15.00000000000001066, -40.74999999999997868, 1.000000000000000888 ) ) ;
#1128 = LINE ( 'NONE', #180, #417 ) ;
#1129 = VECTOR ( 'NONE', #1076, 1000.000000000000000 ) ;
#1130 = CARTESIAN_POINT ( 'NONE',  ( -25.00000000000000000, -1.836970198721029589E-15, 15.00000000000000000 ) ) ;
#1131 = CIRCLE ( 'NONE', #906, 6.500000000000005329 ) ;
#1132 = DIRECTION ( 'NONE',  ( -0.0000000000000000000, -1.000000000000000000, -0.0000000000000000000 ) ) ;
#1133 = ORIENTED_EDGE ( 'NONE', *, *, #709, .T. ) ;
#1134 = AXIS2_PLACEMENT_3D ( 'NONE', #827, #835, #320 ) ;
#1135 = PLANE ( 'NONE',  #664 ) ;
#1136 = ORIENTED_EDGE ( 'NONE', *, *, #108, .T. ) ;
#1137 = ORIENTED_EDGE ( 'NONE', *, *, #971, .T. ) ;
#1138 = CARTESIAN_POINT ( 'NONE',  ( -11.99999999999999289, -100.2499999999999716, 1.000000000000000888 ) ) ;
#1139 = DIRECTION ( 'NONE',  ( 0.0000000000000000000, 0.0000000000000000000, -1.000000000000000000 ) ) ;
#1140 = DIRECTION ( 'NONE',  ( 1.000000000000000000, -0.0000000000000000000, 0.0000000000000000000 ) ) ;
#1141 = CARTESIAN_POINT ( 'NONE',  ( 25.00000000000000000, -15.00000000000000000, 113.4999999999999858 ) ) ;
#1142 = DIRECTION ( 'NONE',  ( 1.000000000000000000, 0.0000000000000000000, 0.0000000000000000000 ) ) ;
#1143 = DIRECTION ( 'NONE',  ( 0.0000000000000000000, 1.000000000000000000, 0.0000000000000000000 ) ) ;
#1144 = ADVANCED_FACE ( 'NONE', ( #6 ), #104, .F. ) ;
#1145 = ADVANCED_FACE ( 'NONE', ( #427 ), #66, .F. ) ;
#1146 = DIRECTION ( 'NONE',  ( 0.0000000000000000000, 0.0000000000000000000, -1.000000000000000000 ) ) ;
#1147 = DIRECTION ( 'NONE',  ( 1.000000000000000000, 0.0000000000000000000, 0.0000000000000000000 ) ) ;
#1148 = EDGE_CURVE ( 'NONE', #280, #103, #823, .T. ) ;
#1149 = ORIENTED_EDGE ( 'NONE', *, *, #801, .T. ) ;
#1150 = FACE_BOUND ( 'NONE', #206, .T. ) ;
#1151 = ORIENTED_EDGE ( 'NONE', *, *, #580, .F. ) ;
#1152 = PLANE ( 'NONE',  #465 ) ;
#1153 = EDGE_LOOP ( 'NONE', ( #720, #648, #758, #467 ) ) ;
#1154 = CARTESIAN_POINT ( 'NONE',  ( 14.99999999999999822, -1.000000000000000888, 97.25000000000000000 ) ) ;
#1155 = ADVANCED_FACE ( 'NONE', ( #904 ), #1135, .F. ) ;
#1156 = CARTESIAN_POINT ( 'NONE',  ( -14.99999999999999112, -1.000000000000000888, 40.74999999999999289 ) ) ;
#1157 = CARTESIAN_POINT ( 'NONE',  ( -25.00000000000000000, -113.4999999999999858, 14.99999999999998579 ) ) ;
#1158 = FACE_BOUND ( 'NONE', #328, .T. ) ;
#1159 = CARTESIAN_POINT ( 'NONE',  ( 15.00000000000000000, -100.7499999999999716, 1.000000000000000888 ) ) ;
#1160 = LINE ( 'NONE', #305, #219 ) ;
#1161 = FACE_OUTER_BOUND ( 'NONE', #766, .T. ) ;
#1162 = CARTESIAN_POINT ( 'NONE',  ( -11.99999999999999289, -101.2499999999999858, 1.000000000000000888 ) ) ;
ENDSEC;
END-ISO-10303-21;
