ISO-10303-21;
HEADER;
FILE_DESCRIPTION (( 'STEP AP214' ),
    '1' );
FILE_NAME ('03_075_Reinforcing rib above.STEP',
    '2020-09-16T12:05:02',
    ( '' ),
    ( '' ),
    'SwSTEP 2.0',
    'SolidWorks 2018',
    '' );
FILE_SCHEMA (( 'AUTOMOTIVE_DESIGN' ));
ENDSEC;

DATA;
#1 = LINE ( 'NONE', #102, #575 ) ;
#2 = DIRECTION ( 'NONE',  ( 0.0000000000000000000, 0.0000000000000000000, 1.000000000000000000 ) ) ;
#3 = LINE ( 'NONE', #507, #49 ) ;
#4 = APPLICATION_CONTEXT ( 'automotive_design' ) ;
#5 = DIRECTION ( 'NONE',  ( -1.098242200618410321E-16, 0.0000000000000000000, -1.000000000000000000 ) ) ;
#6 = STYLED_ITEM ( 'NONE', ( #146 ), #71 ) ;
#7 = CARTESIAN_POINT ( 'NONE',  ( -47.49999999999996447, 0.0000000000000000000, 317.5000000000000000 ) ) ;
#8 = CARTESIAN_POINT ( 'NONE',  ( -47.49999999999997868, 0.0000000000000000000, 160.0000000000000000 ) ) ;
#9 = PRESENTATION_STYLE_ASSIGNMENT (( #652 ) ) ;
#10 = ORIENTED_EDGE ( 'NONE', *, *, #506, .F. ) ;
#11 = ORIENTED_EDGE ( 'NONE', *, *, #960, .T. ) ;
#12 = DIRECTION ( 'NONE',  ( -1.000000000000000000, -0.0000000000000000000, 1.110223024625156540E-16 ) ) ;
#13 = FACE_OUTER_BOUND ( 'NONE', #527, .T. ) ;
#14 = EDGE_CURVE ( 'NONE', #1178, #104, #699, .T. ) ;
#15 = FACE_OUTER_BOUND ( 'NONE', #687, .T. ) ;
#16 = DIRECTION ( 'NONE',  ( -1.000000000000000000, -0.0000000000000000000, 1.110223024625156540E-16 ) ) ;
#17 = FACE_OUTER_BOUND ( 'NONE', #550, .T. ) ;
#18 = PRESENTATION_LAYER_ASSIGNMENT (  '', '', ( #708 ) ) ;
#19 = CYLINDRICAL_SURFACE ( 'NONE', #727, 2.500000000000002220 ) ;
#20 = DIRECTION ( 'NONE',  ( 0.0000000000000000000, 0.0000000000000000000, 1.000000000000000000 ) ) ;
#21 = ADVANCED_BREP_SHAPE_REPRESENTATION ( '03_075_Reinforcing rib above', ( #887, #1083 ), #606 ) ;
#22 = DIRECTION ( 'NONE',  ( -0.1104315260748466587, -0.0000000000000000000, -0.9938837346736190126 ) ) ;
#23 =( NAMED_UNIT ( * ) SI_UNIT ( $, .STERADIAN. ) SOLID_ANGLE_UNIT ( ) );
#24 = FILL_AREA_STYLE_COLOUR ( '', #342 ) ;
#25 = MECHANICAL_DESIGN_GEOMETRIC_PRESENTATION_REPRESENTATION (  '', ( #473 ), #599 ) ;
#26 = FILL_AREA_STYLE ('',( #1054 ) ) ;
#27 = ORIENTED_EDGE ( 'NONE', *, *, #1000, .F. ) ;
#28 = ORIENTED_EDGE ( 'NONE', *, *, #697, .F. ) ;
#29 = FACE_OUTER_BOUND ( 'NONE', #285, .T. ) ;
#30 = DIRECTION ( 'NONE',  ( -0.0000000000000000000, -0.0000000000000000000, 1.000000000000000000 ) ) ;
#31 = EDGE_CURVE ( 'NONE', #952, #1127, #592, .T. ) ;
#32 = LINE ( 'NONE', #286, #831 ) ;
#33 = CARTESIAN_POINT ( 'NONE',  ( -38.49999999999997158, 3.061616997868377225E-16, 322.4999999999999432 ) ) ;
#34 = CIRCLE ( 'NONE', #1060, 2.500000000000002220 ) ;
#35 = AXIS2_PLACEMENT_3D ( 'NONE', #224, #512, #324 ) ;
#36 = DIRECTION ( 'NONE',  ( -0.0000000000000000000, -0.0000000000000000000, 1.000000000000000000 ) ) ;
#37 = CARTESIAN_POINT ( 'NONE',  ( -47.50000000000004263, 6.000000000000000000, -347.5000000000000000 ) ) ;
#38 = CARTESIAN_POINT ( 'NONE',  ( -24.44444444444448195, -4.999999999999984901, -320.0000000000000000 ) ) ;
#39 = CARTESIAN_POINT ( 'NONE',  ( -22.50000000000000000, 0.0000000000000000000, -2.499999999999999556 ) ) ;
#40 = STYLED_ITEM ( 'NONE', ( #529 ), #833 ) ;
#41 = EDGE_LOOP ( 'NONE', ( #390, #226, #758, #391 ) ) ;
#42 = ORIENTED_EDGE ( 'NONE', *, *, #233, .T. ) ;
#43 =( NAMED_UNIT ( * ) SI_UNIT ( $, .STERADIAN. ) SOLID_ANGLE_UNIT ( ) );
#44 = COLOUR_RGB ( '',0.5019607843137254832, 0.5019607843137254832, 0.5019607843137254832 ) ;
#45 = ORIENTED_EDGE ( 'NONE', *, *, #106, .F. ) ;
#46 = CARTESIAN_POINT ( 'NONE',  ( -47.49999999999997868, 0.0000000000000000000, 157.5000000000000000 ) ) ;
#47 = ORIENTED_EDGE ( 'NONE', *, *, #55, .T. ) ;
#48 = FACE_OUTER_BOUND ( 'NONE', #689, .T. ) ;
#49 = VECTOR ( 'NONE', #232, 1000.000000000000000 ) ;
#50 = MECHANICAL_DESIGN_GEOMETRIC_PRESENTATION_REPRESENTATION (  '', ( #6 ), #482 ) ;
#51 = DIRECTION ( 'NONE',  ( 1.000000000000000000, 0.0000000000000000000, 0.0000000000000000000 ) ) ;
#52 = UNCERTAINTY_MEASURE_WITH_UNIT (LENGTH_MEASURE( 1.000000000000000082E-05 ), #100, 'distance_accuracy_value', 'NONE');
#53 = DIRECTION ( 'NONE',  ( -1.000000000000000000, -0.0000000000000000000, 1.110223024625156540E-16 ) ) ;
#54 = DIRECTION ( 'NONE',  ( -1.000000000000000000, -0.0000000000000000000, 1.110223024625156540E-16 ) ) ;
#55 = EDGE_CURVE ( 'NONE', #1077, #556, #986, .T. ) ;
#56 = EDGE_LOOP ( 'NONE', ( #1033, #891, #11 ) ) ;
#57 = SURFACE_STYLE_USAGE ( .BOTH. , #244 ) ;
#58 = MECHANICAL_DESIGN_GEOMETRIC_PRESENTATION_REPRESENTATION (  '', ( #1140 ), #253 ) ;
#59 = ORIENTED_EDGE ( 'NONE', *, *, #717, .T. ) ;
#60 = EDGE_LOOP ( 'NONE', ( #646, #241, #837, #331 ) ) ;
#61 = CARTESIAN_POINT ( 'NONE',  ( -25.00000000000003197, 4.999999999999984901, -325.0000000000000000 ) ) ;
#62 = ORIENTED_EDGE ( 'NONE', *, *, #55, .F. ) ;
#63 = CARTESIAN_POINT ( 'NONE',  ( -22.49999999999997868, 3.061616997868377225E-16, 155.0000000000000000 ) ) ;
#64 = CARTESIAN_POINT ( 'NONE',  ( -22.49999999999997868, 0.0000000000000000000, 157.5000000000000000 ) ) ;
#65 = MECHANICAL_DESIGN_GEOMETRIC_PRESENTATION_REPRESENTATION (  '', ( #260 ), #327 ) ;
#66 =( NAMED_UNIT ( * ) SI_UNIT ( $, .STERADIAN. ) SOLID_ANGLE_UNIT ( ) );
#67 = CARTESIAN_POINT ( 'NONE',  ( 36.50000000000003553, 3.061616997868372787E-16, 347.5000000000000000 ) ) ;
#68 = ORIENTED_EDGE ( 'NONE', *, *, #645, .F. ) ;
#69 = MECHANICAL_DESIGN_GEOMETRIC_PRESENTATION_REPRESENTATION (  '', ( #653 ), #1032 ) ;
#70 = DIRECTION ( 'NONE',  ( 1.000000000000000000, 0.0000000000000000000, 0.0000000000000000000 ) ) ;
#71 = ADVANCED_FACE ( 'NONE', ( #176 ), #207, .F. ) ;
#72 = ORIENTED_EDGE ( 'NONE', *, *, #1094, .T. ) ;
#73 = CARTESIAN_POINT ( 'NONE',  ( -22.50000000000000000, 3.061616997868377225E-16, -4.999999999999994671 ) ) ;
#74 = FACE_OUTER_BOUND ( 'NONE', #711, .T. ) ;
#75 = ORIENTED_EDGE ( 'NONE', *, *, #1000, .T. ) ;
#76 = LINE ( 'NONE', #522, #626 ) ;
#77 = DIRECTION ( 'NONE',  ( 1.000000000000000000, 0.0000000000000000000, 0.0000000000000000000 ) ) ;
#78 = VECTOR ( 'NONE', #1190, 1000.000000000000114 ) ;
#79 = CARTESIAN_POINT ( 'NONE',  ( 36.50000000000002842, 3.061616997868377225E-16, 322.4999999999999432 ) ) ;
#80 = CYLINDRICAL_SURFACE ( 'NONE', #116, 2.499999999999988454 ) ;
#81 = ADVANCED_FACE ( 'NONE', ( #492 ), #1153, .F. ) ;
#82 = PLANE ( 'NONE',  #547 ) ;
#83 = AXIS2_PLACEMENT_3D ( 'NONE', #1111, #136, #869 ) ;
#84 = DIRECTION ( 'NONE',  ( -1.000000000000000000, -0.0000000000000000000, 1.110223024625156540E-16 ) ) ;
#85 = CARTESIAN_POINT ( 'NONE',  ( -47.50000000000002132, 0.0000000000000000000, -162.5000000000000000 ) ) ;
#86 = ADVANCED_FACE ( 'NONE', ( #970 ), #1171, .F. ) ;
#87 = PLANE ( 'NONE',  #345 ) ;
#88 = ORIENTED_EDGE ( 'NONE', *, *, #784, .T. ) ;
#89 = FILL_AREA_STYLE ('',( #578 ) ) ;
#90 = ORIENTED_EDGE ( 'NONE', *, *, #158, .F. ) ;
#91 = PRESENTATION_LAYER_ASSIGNMENT (  '', '', ( #373 ) ) ;
#92 = CIRCLE ( 'NONE', #939, 2.500000000000002220 ) ;
#93 = ORIENTED_EDGE ( 'NONE', *, *, #671, .F. ) ;
#94 = CIRCLE ( 'NONE', #141, 2.499999999999995115 ) ;
#95 =( NAMED_UNIT ( * ) PLANE_ANGLE_UNIT ( ) SI_UNIT ( $, .RADIAN. ) );
#96 = CIRCLE ( 'NONE', #933, 2.499999999999990230 ) ;
#97 = ADVANCED_FACE ( 'NONE', ( #743 ), #80, .F. ) ;
#98 = CYLINDRICAL_SURFACE ( 'NONE', #1108, 2.499999999999992895 ) ;
#99 = CARTESIAN_POINT ( 'NONE',  ( -22.49999999999996447, 0.0000000000000000000, 320.0000000000000000 ) ) ;
#100 =( LENGTH_UNIT ( ) NAMED_UNIT ( * ) SI_UNIT ( .MILLI., .METRE. ) );
#101 = EDGE_CURVE ( 'NONE', #458, #108, #1182, .T. ) ;
#102 = CARTESIAN_POINT ( 'NONE',  ( -47.50000000000003553, 0.0000000000000000000, -320.0000000000000000 ) ) ;
#103 = CARTESIAN_POINT ( 'NONE',  ( -35.99999999999997868, 0.0000000000000000000, 347.5000000000000000 ) ) ;
#104 = VERTEX_POINT ( 'NONE', #836 ) ;
#105 = ORIENTED_EDGE ( 'NONE', *, *, #225, .T. ) ;
#106 = EDGE_CURVE ( 'NONE', #648, #730, #217, .T. ) ;
#107 = DIRECTION ( 'NONE',  ( -1.000000000000000000, -0.0000000000000000000, 1.110223024625156540E-16 ) ) ;
#108 = VERTEX_POINT ( 'NONE', #1097 ) ;
#109 = PRESENTATION_LAYER_ASSIGNMENT (  '', '', ( #40 ) ) ;
#110 =( NAMED_UNIT ( * ) PLANE_ANGLE_UNIT ( ) SI_UNIT ( $, .RADIAN. ) );
#111 = DIRECTION ( 'NONE',  ( 1.000000000000000000, 0.0000000000000000000, -1.098242200618410321E-16 ) ) ;
#112 = CYLINDRICAL_SURFACE ( 'NONE', #131, 2.500000000000002220 ) ;
#113 =( NAMED_UNIT ( * ) PLANE_ANGLE_UNIT ( ) SI_UNIT ( $, .RADIAN. ) );
#114 = FACE_OUTER_BOUND ( 'NONE', #165, .T. ) ;
#115 = DIRECTION ( 'NONE',  ( 1.000000000000000000, 0.0000000000000000000, 0.0000000000000000000 ) ) ;
#116 = AXIS2_PLACEMENT_3D ( 'NONE', #103, #662, #1003 ) ;
#117 = DIRECTION ( 'NONE',  ( -1.000000000000000000, -0.0000000000000000000, 1.110223024625156540E-16 ) ) ;
#118 = DIRECTION ( 'NONE',  ( -0.0000000000000000000, -1.000000000000000000, -0.0000000000000000000 ) ) ;
#119 = VERTEX_POINT ( 'NONE', #656 ) ;
#120 = ORIENTED_EDGE ( 'NONE', *, *, #462, .T. ) ;
#121 = LINE ( 'NONE', #159, #1021 ) ;
#122 = EDGE_CURVE ( 'NONE', #108, #1037, #248, .T. ) ;
#123 = FACE_OUTER_BOUND ( 'NONE', #622, .T. ) ;
#124 = AXIS2_PLACEMENT_3D ( 'NONE', #440, #1073, #873 ) ;
#125 = VECTOR ( 'NONE', #924, 1000.000000000000000 ) ;
#126 = CARTESIAN_POINT ( 'NONE',  ( -25.00000000000002842, 3.061616997868373773E-16, -325.0000000000000000 ) ) ;
#127 = COLOUR_RGB ( '',0.8980392156862745390, 0.9176470588235293713, 0.9294117647058823817 ) ;
#128 = PLANE ( 'NONE',  #791 ) ;
#129 =( NAMED_UNIT ( * ) PLANE_ANGLE_UNIT ( ) SI_UNIT ( $, .RADIAN. ) );
#130 = CARTESIAN_POINT ( 'NONE',  ( -35.99999999999998579, 0.0000000000000000000, 320.9978484524310716 ) ) ;
#131 = AXIS2_PLACEMENT_3D ( 'NONE', #885, #1151, #905 ) ;
#132 = ORIENTED_EDGE ( 'NONE', *, *, #412, .T. ) ;
#133 = DIRECTION ( 'NONE',  ( -0.1104315260748466587, -0.0000000000000000000, -0.9938837346736190126 ) ) ;
#134 = VERTEX_POINT ( 'NONE', #200 ) ;
#135 = ORIENTED_EDGE ( 'NONE', *, *, #1043, .T. ) ;
#136 = DIRECTION ( 'NONE',  ( -1.000000000000000000, -0.0000000000000000000, 1.110223024625156540E-16 ) ) ;
#137 = FACE_BOUND ( 'NONE', #1018, .T. ) ;
#138 = AXIS2_PLACEMENT_3D ( 'NONE', #1147, #292, #400 ) ;
#139 = SURFACE_STYLE_FILL_AREA ( #715 ) ;
#140 = DIRECTION ( 'NONE',  ( 0.0000000000000000000, 0.0000000000000000000, 1.000000000000000000 ) ) ;
#141 = AXIS2_PLACEMENT_3D ( 'NONE', #617, #533, #240 ) ;
#142 = CARTESIAN_POINT ( 'NONE',  ( -22.49999999999997868, 0.0000000000000000000, 157.5000000000000000 ) ) ;
#143 = UNCERTAINTY_MEASURE_WITH_UNIT (LENGTH_MEASURE( 1.000000000000000082E-05 ), #1082, 'distance_accuracy_value', 'NONE');
#144 = EDGE_CURVE ( 'NONE', #287, #1004, #589, .T. ) ;
#145 = MECHANICAL_DESIGN_GEOMETRIC_PRESENTATION_REPRESENTATION (  '', ( #708 ), #1159 ) ;
#146 = PRESENTATION_STYLE_ASSIGNMENT (( #480 ) ) ;
#147 = ORIENTED_EDGE ( 'NONE', *, *, #552, .T. ) ;
#148 = CARTESIAN_POINT ( 'NONE',  ( -24.44444444444447129, 0.0000000000000000000, -320.0000000000000000 ) ) ;
#149 = ORIENTED_EDGE ( 'NONE', *, *, #725, .F. ) ;
#150 = EDGE_LOOP ( 'NONE', ( #105, #360, #551, #432 ) ) ;
#151 = CIRCLE ( 'NONE', #801, 2.499999999999995115 ) ;
#152 = UNCERTAINTY_MEASURE_WITH_UNIT (LENGTH_MEASURE( 1.000000000000000082E-05 ), #691, 'distance_accuracy_value', 'NONE');
#153 = DIRECTION ( 'NONE',  ( -1.000000000000000000, -0.0000000000000000000, 1.110223024625156540E-16 ) ) ;
#154 = EDGE_CURVE ( 'NONE', #773, #347, #1086, .T. ) ;
#155 = DIRECTION ( 'NONE',  ( -0.0000000000000000000, -0.0000000000000000000, 1.000000000000000000 ) ) ;
#156 = CARTESIAN_POINT ( 'NONE',  ( -25.00000000000002842, 3.061616997868373773E-16, -325.0000000000000000 ) ) ;
#157 = CARTESIAN_POINT ( 'NONE',  ( 47.50000000000003553, 6.000000000000000000, 327.4999999999999432 ) ) ;
#158 = EDGE_CURVE ( 'NONE', #477, #1037, #384, .T. ) ;
#159 = CARTESIAN_POINT ( 'NONE',  ( 36.50000000000002842, 3.061616997868377225E-16, 322.4999999999999432 ) ) ;
#160 = DIRECTION ( 'NONE',  ( -1.000000000000000000, -0.0000000000000000000, 1.110223024625156540E-16 ) ) ;
#161 =( GEOMETRIC_REPRESENTATION_CONTEXT ( 3 ) GLOBAL_UNCERTAINTY_ASSIGNED_CONTEXT ( ( #325 ) ) GLOBAL_UNIT_ASSIGNED_CONTEXT ( ( #1174, #545, #1080 ) ) REPRESENTATION_CONTEXT ( 'NONE', 'WORKASPACE' ) );
#162 = ORIENTED_EDGE ( 'NONE', *, *, #158, .T. ) ;
#163 = ORIENTED_EDGE ( 'NONE', *, *, #763, .F. ) ;
#164 = DIRECTION ( 'NONE',  ( -0.0000000000000000000, -0.0000000000000000000, -1.000000000000000000 ) ) ;
#165 = EDGE_LOOP ( 'NONE', ( #566, #961, #1114, #511 ) ) ;
#166 = CIRCLE ( 'NONE', #858, 2.500000000000002220 ) ;
#167 = CARTESIAN_POINT ( 'NONE',  ( 47.50000000000003553, 6.000000000000000000, 327.4999999999999432 ) ) ;
#168 = ADVANCED_FACE ( 'NONE', ( #750 ), #615, .F. ) ;
#169 = EDGE_CURVE ( 'NONE', #1127, #1132, #517, .T. ) ;
#170 = VECTOR ( 'NONE', #598, 1000.000000000000000 ) ;
#171 = FILL_AREA_STYLE_COLOUR ( '', #1117 ) ;
#172 = AXIS2_PLACEMENT_3D ( 'NONE', #649, #1011, #474 ) ;
#173 = CARTESIAN_POINT ( 'NONE',  ( -33.49999999999997868, 0.0000000000000000000, 322.4999999999999432 ) ) ;
#174 = CARTESIAN_POINT ( 'NONE',  ( 36.50000000000003553, 3.061616997868372787E-16, 347.5000000000000000 ) ) ;
#175 = CARTESIAN_POINT ( 'NONE',  ( -47.50000000000000000, 3.061616997868373773E-16, -4.999999999999989342 ) ) ;
#176 = FACE_OUTER_BOUND ( 'NONE', #1020, .T. ) ;
#177 =( GEOMETRIC_REPRESENTATION_CONTEXT ( 3 ) GLOBAL_UNCERTAINTY_ASSIGNED_CONTEXT ( ( #187 ) ) GLOBAL_UNIT_ASSIGNED_CONTEXT ( ( #206, #113, #935 ) ) REPRESENTATION_CONTEXT ( 'NONE', 'WORKASPACE' ) );
#178 = ORIENTED_EDGE ( 'NONE', *, *, #453, .F. ) ;
#179 = CARTESIAN_POINT ( 'NONE',  ( -47.49999999999996447, 6.000000000000000000, 347.5000000000000000 ) ) ;
#180 = AXIS2_PLACEMENT_3D ( 'NONE', #346, #536, #789 ) ;
#181 = VERTEX_POINT ( 'NONE', #393 ) ;
#182 =( NAMED_UNIT ( * ) SI_UNIT ( $, .STERADIAN. ) SOLID_ANGLE_UNIT ( ) );
#183 = VECTOR ( 'NONE', #823, 1000.000000000000000 ) ;
#184 = ADVANCED_FACE ( 'NONE', ( #843 ), #816, .F. ) ;
#185 = CLOSED_SHELL ( 'NONE', ( #366, #378, #81, #86, #824, #268, #1177, #549, #452, #97, #1169, #71, #372, #735, #277, #457, #719, #810, #1188, #903, #724, #833, #168, #192, #741, #984, #470, #387, #818, #643, #184, #912, #805, #564 ) ) ;
#186 = FILL_AREA_STYLE ('',( #171 ) ) ;
#187 = UNCERTAINTY_MEASURE_WITH_UNIT (LENGTH_MEASURE( 1.000000000000000082E-05 ), #206, 'distance_accuracy_value', 'NONE');
#188 = CARTESIAN_POINT ( 'NONE',  ( -47.50000000000003553, 3.061616997868373773E-16, -325.0000000000000000 ) ) ;
#189 = CIRCLE ( 'NONE', #780, 2.499999999999988454 ) ;
#190 = DIRECTION ( 'NONE',  ( -0.0000000000000000000, -0.0000000000000000000, 1.000000000000000000 ) ) ;
#191 = EDGE_CURVE ( 'NONE', #287, #674, #369, .T. ) ;
#192 = ADVANCED_FACE ( 'NONE', ( #114 ), #628, .F. ) ;
#193 = AXIS2_PLACEMENT_3D ( 'NONE', #624, #153, #1142 ) ;
#194 = DIRECTION ( 'NONE',  ( -1.000000000000000000, -0.0000000000000000000, 1.110223024625156540E-16 ) ) ;
#195 = DIRECTION ( 'NONE',  ( -0.0000000000000000000, -0.0000000000000000000, 1.000000000000000000 ) ) ;
#196 = FILL_AREA_STYLE ('',( #364 ) ) ;
#197 = ORIENTED_EDGE ( 'NONE', *, *, #784, .F. ) ;
#198 = AXIS2_PLACEMENT_3D ( 'NONE', #1179, #388, #1089 ) ;
#199 = VERTEX_POINT ( 'NONE', #686 ) ;
#200 = CARTESIAN_POINT ( 'NONE',  ( 47.50000000000003553, -6.000000000000000000, 327.4999999999999432 ) ) ;
#201 = CARTESIAN_POINT ( 'NONE',  ( -47.49999999999997868, 0.0000000000000000000, 157.5000000000000000 ) ) ;
#202 = STYLED_ITEM ( 'NONE', ( #501 ), #184 ) ;
#203 = SURFACE_STYLE_USAGE ( .BOTH. , #298 ) ;
#204 = FILL_AREA_STYLE_COLOUR ( '', #666 ) ;
#205 = UNCERTAINTY_MEASURE_WITH_UNIT (LENGTH_MEASURE( 1.000000000000000082E-05 ), #518, 'distance_accuracy_value', 'NONE');
#206 =( LENGTH_UNIT ( ) NAMED_UNIT ( * ) SI_UNIT ( .MILLI., .METRE. ) );
#207 = CYLINDRICAL_SURFACE ( 'NONE', #956, 2.499999999999988454 ) ;
#208 = EDGE_LOOP ( 'NONE', ( #768, #210, #608, #415 ) ) ;
#209 = EDGE_CURVE ( 'NONE', #269, #773, #832, .T. ) ;
#210 = ORIENTED_EDGE ( 'NONE', *, *, #293, .T. ) ;
#211 = PRESENTATION_LAYER_ASSIGNMENT (  '', '', ( #1050 ) ) ;
#212 = ORIENTED_EDGE ( 'NONE', *, *, #225, .F. ) ;
#213 = CARTESIAN_POINT ( 'NONE',  ( -47.50000000000000000, 0.0000000000000000000, -6.938893903907228378E-15 ) ) ;
#214 = SURFACE_STYLE_FILL_AREA ( #676 ) ;
#215 = CIRCLE ( 'NONE', #1088, 2.499999999999995115 ) ;
#216 = CARTESIAN_POINT ( 'NONE',  ( -33.49999999999998579, 0.0000000000000000000, 347.5000000000000000 ) ) ;
#217 = LINE ( 'NONE', #472, #681 ) ;
#218 =( NAMED_UNIT ( * ) PLANE_ANGLE_UNIT ( ) SI_UNIT ( $, .RADIAN. ) );
#219 =( NAMED_UNIT ( * ) PLANE_ANGLE_UNIT ( ) SI_UNIT ( $, .RADIAN. ) );
#220 = EDGE_CURVE ( 'NONE', #539, #755, #1072, .T. ) ;
#221 = CARTESIAN_POINT ( 'NONE',  ( -22.49999999999996447, 0.0000000000000000000, 317.5000000000000000 ) ) ;
#222 = ORIENTED_EDGE ( 'NONE', *, *, #552, .F. ) ;
#223 = ORIENTED_EDGE ( 'NONE', *, *, #431, .T. ) ;
#224 = CARTESIAN_POINT ( 'NONE',  ( 0.0000000000000000000, -6.000000000000000000, 0.0000000000000000000 ) ) ;
#225 = EDGE_CURVE ( 'NONE', #134, #839, #291, .T. ) ;
#226 = ORIENTED_EDGE ( 'NONE', *, *, #416, .F. ) ;
#227 = CYLINDRICAL_SURFACE ( 'NONE', #83, 2.499999999999992895 ) ;
#228 = CARTESIAN_POINT ( 'NONE',  ( -36.45042793126381753, 6.000000000000000000, -337.4999999999999432 ) ) ;
#229 = PRESENTATION_STYLE_ASSIGNMENT (( #313 ) ) ;
#230 = AXIS2_PLACEMENT_3D ( 'NONE', #1069, #701, #968 ) ;
#231 = FACE_BOUND ( 'NONE', #1175, .T. ) ;
#232 = DIRECTION ( 'NONE',  ( -1.000000000000000000, -0.0000000000000000000, 1.110223024625156540E-16 ) ) ;
#233 = EDGE_CURVE ( 'NONE', #1130, #199, #34, .T. ) ;
#234 = SURFACE_SIDE_STYLE ('',( #557 ) ) ;
#235 = CARTESIAN_POINT ( 'NONE',  ( 39.00000000000001421, 0.0000000000000000000, 320.9978484524310716 ) ) ;
#236 = AXIS2_PLACEMENT_3D ( 'NONE', #835, #574, #917 ) ;
#237 = DIRECTION ( 'NONE',  ( -1.000000000000000000, -0.0000000000000000000, 1.110223024625156540E-16 ) ) ;
#238 = ORIENTED_EDGE ( 'NONE', *, *, #1079, .T. ) ;
#239 = VECTOR ( 'NONE', #456, 1000.000000000000000 ) ;
#240 = DIRECTION ( 'NONE',  ( 0.0000000000000000000, 0.0000000000000000000, 1.000000000000000000 ) ) ;
#241 = ORIENTED_EDGE ( 'NONE', *, *, #1015, .T. ) ;
#242 = AXIS2_PLACEMENT_3D ( 'NONE', #392, #748, #918 ) ;
#243 = VECTOR ( 'NONE', #720, 1000.000000000000000 ) ;
#244 = SURFACE_SIDE_STYLE ('',( #1137 ) ) ;
#245 = CIRCLE ( 'NONE', #1112, 10.00000000000000888 ) ;
#246 =( BOUNDED_CURVE ( )  B_SPLINE_CURVE ( 3, ( #126, #785, #38, #953 ),
 .UNSPECIFIED., .F., .F. ) 
 B_SPLINE_CURVE_WITH_KNOTS ( ( 4, 4 ),
 ( 0.0000000000000000000, 3.141592653589793116 ),
 .UNSPECIFIED. ) 
 CURVE ( )  GEOMETRIC_REPRESENTATION_ITEM ( )  RATIONAL_B_SPLINE_CURVE ( ( 1.000000000000000000, 0.3333333333333333703, 0.3333333333333333703, 1.000000000000000000 ) ) 
 REPRESENTATION_ITEM ( '' )  );
#247 = AXIS2_PLACEMENT_3D ( 'NONE', #1181, #1085, #77 ) ;
#248 = LINE ( 'NONE', #926, #532 ) ;
#249 =( NAMED_UNIT ( * ) SI_UNIT ( $, .STERADIAN. ) SOLID_ANGLE_UNIT ( ) );
#250 = EDGE_CURVE ( 'NONE', #441, #442, #944, .T. ) ;
#251 = CARTESIAN_POINT ( 'NONE',  ( -22.49999999999996447, 0.0000000000000000000, 317.5000000000000000 ) ) ;
#252 = DIRECTION ( 'NONE',  ( 1.000000000000000000, 0.0000000000000000000, 0.0000000000000000000 ) ) ;
#253 =( GEOMETRIC_REPRESENTATION_CONTEXT ( 3 ) GLOBAL_UNCERTAINTY_ASSIGNED_CONTEXT ( ( #790 ) ) GLOBAL_UNIT_ASSIGNED_CONTEXT ( ( #922, #110, #753 ) ) REPRESENTATION_CONTEXT ( 'NONE', 'WORKASPACE' ) );
#254 = ORIENTED_EDGE ( 'NONE', *, *, #645, .T. ) ;
#255 = EDGE_LOOP ( 'NONE', ( #1052, #120, #428 ) ) ;
#256 = CARTESIAN_POINT ( 'NONE',  ( -47.50000000000002132, 0.0000000000000000000, -160.0000000000000000 ) ) ;
#257 = ORIENTED_EDGE ( 'NONE', *, *, #671, .T. ) ;
#258 = DIRECTION ( 'NONE',  ( -1.000000000000000000, -0.0000000000000000000, 1.110223024625156540E-16 ) ) ;
#259 = VECTOR ( 'NONE', #989, 1000.000000000000000 ) ;
#260 = STYLED_ITEM ( 'NONE', ( #229 ), #818 ) ;
#261 = DIRECTION ( 'NONE',  ( 1.000000000000000000, -0.0000000000000000000, -0.0000000000000000000 ) ) ;
#262 = FACE_OUTER_BOUND ( 'NONE', #685, .T. ) ;
#263 = DIRECTION ( 'NONE',  ( 0.0000000000000000000, 0.0000000000000000000, 1.000000000000000000 ) ) ;
#264 =( LENGTH_UNIT ( ) NAMED_UNIT ( * ) SI_UNIT ( .MILLI., .METRE. ) );
#265 = MECHANICAL_DESIGN_GEOMETRIC_PRESENTATION_REPRESENTATION (  '', ( #969 ), #663 ) ;
#266 = DIRECTION ( 'NONE',  ( -1.000000000000000000, -0.0000000000000000000, 1.110223024625156540E-16 ) ) ;
#267 = COLOUR_RGB ( '',0.8980392156862745390, 0.9176470588235293713, 0.9294117647058823817 ) ;
#268 = ADVANCED_FACE ( 'NONE', ( #499 ), #1165, .F. ) ;
#269 = VERTEX_POINT ( 'NONE', #130 ) ;
#270 =( NAMED_UNIT ( * ) PLANE_ANGLE_UNIT ( ) SI_UNIT ( $, .RADIAN. ) );
#271 = VERTEX_POINT ( 'NONE', #605 ) ;
#272 = SURFACE_STYLE_FILL_AREA ( #186 ) ;
#273 = VERTEX_POINT ( 'NONE', #216 ) ;
#274 = CONICAL_SURFACE ( 'NONE', #904, 2.499999999999995115, 1.029744258676656754 ) ;
#275 = EDGE_CURVE ( 'NONE', #755, #541, #245, .T. ) ;
#276 = FACE_OUTER_BOUND ( 'NONE', #60, .T. ) ;
#277 = ADVANCED_FACE ( 'NONE', ( #669, #1123, #262 ), #128, .F. ) ;
#278 = AXIS2_PLACEMENT_3D ( 'NONE', #947, #12, #845 ) ;
#279 = DIRECTION ( 'NONE',  ( -1.000000000000000000, 0.0000000000000000000, 0.0000000000000000000 ) ) ;
#280 = FILL_AREA_STYLE_COLOUR ( '', #267 ) ;
#281 =( LENGTH_UNIT ( ) NAMED_UNIT ( * ) SI_UNIT ( .MILLI., .METRE. ) );
#282 = CARTESIAN_POINT ( 'NONE',  ( -20.99784845243105735, -6.491155012649665907E-15, 317.5000000000000000 ) ) ;
#283 = FILL_AREA_STYLE_COLOUR ( '', #475 ) ;
#284 = MECHANICAL_DESIGN_GEOMETRIC_PRESENTATION_REPRESENTATION (  '', ( #373 ), #620 ) ;
#285 = EDGE_LOOP ( 'NONE', ( #1049, #1002, #988, #675 ) ) ;
#286 = CARTESIAN_POINT ( 'NONE',  ( -27.50000000000002487, -6.000000000000000000, -347.5000000000000000 ) ) ;
#287 = VERTEX_POINT ( 'NONE', #37 ) ;
#288 = CARTESIAN_POINT ( 'NONE',  ( -22.49999999999997868, 0.0000000000000000000, 157.5000000000000000 ) ) ;
#289 = CYLINDRICAL_SURFACE ( 'NONE', #198, 10.00000000000000888 ) ;
#290 = CARTESIAN_POINT ( 'NONE',  ( -47.50000000000004263, 6.000000000000000000, -347.5000000000000000 ) ) ;
#291 = LINE ( 'NONE', #422, #800 ) ;
#292 = DIRECTION ( 'NONE',  ( -0.0000000000000000000, -0.0000000000000000000, 1.000000000000000000 ) ) ;
#293 = EDGE_CURVE ( 'NONE', #350, #862, #3, .T. ) ;
#294 = PRESENTATION_LAYER_ASSIGNMENT (  '', '', ( #640 ) ) ;
#295 = DIRECTION ( 'NONE',  ( -1.000000000000000000, -0.0000000000000000000, 1.110223024625156540E-16 ) ) ;
#296 = DIRECTION ( 'NONE',  ( -0.0000000000000000000, -0.0000000000000000000, 1.000000000000000000 ) ) ;
#297 = CARTESIAN_POINT ( 'NONE',  ( -35.99999999999997868, 0.0000000000000000000, 322.4999999999999432 ) ) ;
#298 = SURFACE_SIDE_STYLE ('',( #526 ) ) ;
#299 = DIRECTION ( 'NONE',  ( -1.000000000000000000, 0.0000000000000000000, 0.0000000000000000000 ) ) ;
#300 = EDGE_CURVE ( 'NONE', #273, #347, #189, .T. ) ;
#301 = FILL_AREA_STYLE_COLOUR ( '', #559 ) ;
#302 = ORIENTED_EDGE ( 'NONE', *, *, #191, .T. ) ;
#303 = MECHANICAL_DESIGN_GEOMETRIC_PRESENTATION_REPRESENTATION (  '', ( #825 ), #694 ) ;
#304 = ORIENTED_EDGE ( 'NONE', *, *, #937, .T. ) ;
#305 = ORIENTED_EDGE ( 'NONE', *, *, #1155, .T. ) ;
#306 = DIRECTION ( 'NONE',  ( 0.0000000000000000000, 0.0000000000000000000, 1.000000000000000000 ) ) ;
#307 = CIRCLE ( 'NONE', #124, 2.500000000000002220 ) ;
#308 = ORIENTED_EDGE ( 'NONE', *, *, #612, .T. ) ;
#309 = COLOUR_RGB ( '',0.5019607843137254832, 0.5019607843137254832, 0.5019607843137254832 ) ;
#310 = VECTOR ( 'NONE', #804, 1000.000000000000114 ) ;
#311 = CONICAL_SURFACE ( 'NONE', #616, 2.499999999999995115, 1.029744258676656754 ) ;
#312 = CARTESIAN_POINT ( 'NONE',  ( -27.50000000000002487, 6.000000000000000000, -347.5000000000000000 ) ) ;
#313 = SURFACE_STYLE_USAGE ( .BOTH. , #762 ) ;
#314 = DIRECTION ( 'NONE',  ( 0.0000000000000000000, 0.0000000000000000000, -1.000000000000000000 ) ) ;
#315 =( LENGTH_UNIT ( ) NAMED_UNIT ( * ) SI_UNIT ( .MILLI., .METRE. ) );
#316 = VERTEX_POINT ( 'NONE', #503 ) ;
#317 = EDGE_CURVE ( 'NONE', #1116, #700, #1109, .T. ) ;
#318 = ORIENTED_EDGE ( 'NONE', *, *, #815, .F. ) ;
#319 = PRODUCT_RELATED_PRODUCT_CATEGORY ( 'part', '', ( #414 ) ) ;
#320 = LINE ( 'NONE', #528, #851 ) ;
#321 = SURFACE_STYLE_FILL_AREA ( #941 ) ;
#322 = VECTOR ( 'NONE', #358, 1000.000000000000114 ) ;
#323 = DIRECTION ( 'NONE',  ( 1.098242200618410321E-16, 0.0000000000000000000, 1.000000000000000000 ) ) ;
#324 = DIRECTION ( 'NONE',  ( 0.0000000000000000000, -0.0000000000000000000, -1.000000000000000000 ) ) ;
#325 = UNCERTAINTY_MEASURE_WITH_UNIT (LENGTH_MEASURE( 1.000000000000000082E-05 ), #1174, 'distance_accuracy_value', 'NONE');
#326 = SURFACE_STYLE_USAGE ( .BOTH. , #1115 ) ;
#327 =( GEOMETRIC_REPRESENTATION_CONTEXT ( 3 ) GLOBAL_UNCERTAINTY_ASSIGNED_CONTEXT ( ( #998 ) ) GLOBAL_UNIT_ASSIGNED_CONTEXT ( ( #945, #404, #23 ) ) REPRESENTATION_CONTEXT ( 'NONE', 'WORKASPACE' ) );
#328 = DIRECTION ( 'NONE',  ( -0.0000000000000000000, 1.000000000000000000, -0.0000000000000000000 ) ) ;
#329 = CARTESIAN_POINT ( 'NONE',  ( -22.49999999999997868, 3.061616997868377718E-16, 155.0000000000000000 ) ) ;
#330 = ORIENTED_EDGE ( 'NONE', *, *, #901, .T. ) ;
#331 = ORIENTED_EDGE ( 'NONE', *, *, #399, .F. ) ;
#332 = DIRECTION ( 'NONE',  ( -0.0000000000000000000, -1.000000000000000000, -0.0000000000000000000 ) ) ;
#333 = AXIS2_PLACEMENT_3D ( 'NONE', #678, #946, #1044 ) ;
#334 = ORIENTED_EDGE ( 'NONE', *, *, #914, .F. ) ;
#335 = VECTOR ( 'NONE', #630, 1000.000000000000000 ) ;
#336 = EDGE_LOOP ( 'NONE', ( #565, #147, #554, #68 ) ) ;
#337 = LINE ( 'NONE', #867, #879 ) ;
#338 = CIRCLE ( 'NONE', #236, 2.499999999999988454 ) ;
#339 =( NAMED_UNIT ( * ) SI_UNIT ( $, .STERADIAN. ) SOLID_ANGLE_UNIT ( ) );
#340 = COLOUR_RGB ( '',0.8980392156862745390, 0.9176470588235293713, 0.9294117647058823817 ) ;
#341 = DIRECTION ( 'NONE',  ( 0.0000000000000000000, 0.0000000000000000000, 1.000000000000000000 ) ) ;
#342 = COLOUR_RGB ( '',0.8980392156862745390, 0.9176470588235293713, 0.9294117647058823817 ) ;
#343 = DIRECTION ( 'NONE',  ( 0.8571673007021134438, 0.0000000000000000000, 0.5150380749100522682 ) ) ;
#344 = DIRECTION ( 'NONE',  ( 0.0000000000000000000, 0.0000000000000000000, 1.000000000000000000 ) ) ;
#345 = AXIS2_PLACEMENT_3D ( 'NONE', #997, #919, #381 ) ;
#346 = CARTESIAN_POINT ( 'NONE',  ( -22.50000000000000000, 0.0000000000000000000, -2.499999999999999556 ) ) ;
#347 = VERTEX_POINT ( 'NONE', #863 ) ;
#348 = LINE ( 'NONE', #370, #942 ) ;
#349 = DIRECTION ( 'NONE',  ( 0.0000000000000000000, 0.0000000000000000000, 1.000000000000000000 ) ) ;
#350 = VERTEX_POINT ( 'NONE', #329 ) ;
#351 = CIRCLE ( 'NONE', #1124, 2.500000000000002220 ) ;
#352 = AXIS2_PLACEMENT_3D ( 'NONE', #46, #520, #140 ) ;
#353 = DIRECTION ( 'NONE',  ( -0.0000000000000000000, -0.0000000000000000000, 1.000000000000000000 ) ) ;
#354 = LINE ( 'NONE', #819, #1163 ) ;
#355 = VECTOR ( 'NONE', #590, 1000.000000000000000 ) ;
#356 = CARTESIAN_POINT ( 'NONE',  ( 41.50000000000001421, 0.0000000000000000000, 322.4999999999999432 ) ) ;
#357 = EDGE_CURVE ( 'NONE', #862, #1132, #627, .T. ) ;
#358 = DIRECTION ( 'NONE',  ( -0.5150380749100575972, 1.049727191138616354E-16, -0.8571673007021103352 ) ) ;
#359 = MECHANICAL_DESIGN_GEOMETRIC_PRESENTATION_REPRESENTATION (  '', ( #640 ), #484 ) ;
#360 = ORIENTED_EDGE ( 'NONE', *, *, #877, .T. ) ;
#361 = DIRECTION ( 'NONE',  ( -1.000000000000000000, -0.0000000000000000000, 1.110223024625156540E-16 ) ) ;
#362 = SURFACE_STYLE_USAGE ( .BOTH. , #540 ) ;
#363 = EDGE_CURVE ( 'NONE', #541, #316, #761, .T. ) ;
#364 = FILL_AREA_STYLE_COLOUR ( '', #44 ) ;
#365 = LINE ( 'NONE', #188, #125 ) ;
#366 = ADVANCED_FACE ( 'NONE', ( #276 ), #19, .F. ) ;
#367 = DIRECTION ( 'NONE',  ( 0.8571673007021134438, 0.0000000000000000000, 0.5150380749100522682 ) ) ;
#368 = LINE ( 'NONE', #1066, #483 ) ;
#369 = LINE ( 'NONE', #417, #600 ) ;
#370 = CARTESIAN_POINT ( 'NONE',  ( 47.50000000000003553, -6.000000000000000000, 327.4999999999999432 ) ) ;
#371 = FILL_AREA_STYLE ('',( #1158 ) ) ;
#372 = ADVANCED_FACE ( 'NONE', ( #638 ), #311, .F. ) ;
#373 = STYLED_ITEM ( 'NONE', ( #9 ), #97 ) ;
#374 = DIRECTION ( 'NONE',  ( -0.5150380749100572642, 0.0000000000000000000, 0.8571673007021104462 ) ) ;
#375 =( LENGTH_UNIT ( ) NAMED_UNIT ( * ) SI_UNIT ( .MILLI., .METRE. ) );
#376 = ORIENTED_EDGE ( 'NONE', *, *, #31, .T. ) ;
#377 = ORIENTED_EDGE ( 'NONE', *, *, #1122, .F. ) ;
#378 = ADVANCED_FACE ( 'NONE', ( #932 ), #587, .F. ) ;
#379 = UNCERTAINTY_MEASURE_WITH_UNIT (LENGTH_MEASURE( 1.000000000000000082E-05 ), #957, 'distance_accuracy_value', 'NONE');
#380 = EDGE_LOOP ( 'NONE', ( #607, #1063, #976 ) ) ;
#381 = DIRECTION ( 'NONE',  ( 0.1104315260748466587, 0.0000000000000000000, 0.9938837346736190126 ) ) ;
#382 =( NAMED_UNIT ( * ) PLANE_ANGLE_UNIT ( ) SI_UNIT ( $, .RADIAN. ) );
#383 = EDGE_CURVE ( 'NONE', #347, #273, #531, .T. ) ;
#384 = CIRCLE ( 'NONE', #138, 2.499999999999988454 ) ;
#385 = CARTESIAN_POINT ( 'NONE',  ( 39.00000000000002132, 0.0000000000000000000, 322.4999999999999432 ) ) ;
#386 = DIRECTION ( 'NONE',  ( 1.000000000000000000, 0.0000000000000000000, 0.0000000000000000000 ) ) ;
#387 = ADVANCED_FACE ( 'NONE', ( #868 ), #613, .F. ) ;
#388 = DIRECTION ( 'NONE',  ( 0.0000000000000000000, -1.000000000000000000, 0.0000000000000000000 ) ) ;
#389 = PRESENTATION_LAYER_ASSIGNMENT (  '', '', ( #491 ) ) ;
#390 = ORIENTED_EDGE ( 'NONE', *, *, #293, .F. ) ;
#391 = ORIENTED_EDGE ( 'NONE', *, *, #697, .T. ) ;
#392 = CARTESIAN_POINT ( 'NONE',  ( -22.49999999999997868, 0.0000000000000000000, 157.5000000000000000 ) ) ;
#393 = CARTESIAN_POINT ( 'NONE',  ( -20.99784845243111420, -6.491155012649665907E-15, -162.5000000000000000 ) ) ;
#394 = ORIENTED_EDGE ( 'NONE', *, *, #877, .F. ) ;
#395 = FACE_OUTER_BOUND ( 'NONE', #150, .T. ) ;
#396 = FILL_AREA_STYLE ('',( #301 ) ) ;
#397 = AXIS2_PLACEMENT_3D ( 'NONE', #979, #1160, #931 ) ;
#398 = SURFACE_STYLE_USAGE ( .BOTH. , #1017 ) ;
#399 = EDGE_CURVE ( 'NONE', #659, #1116, #368, .T. ) ;
#400 = DIRECTION ( 'NONE',  ( 1.000000000000000000, 0.0000000000000000000, 0.0000000000000000000 ) ) ;
#401 = AXIS2_PLACEMENT_3D ( 'NONE', #7, #488, #1027 ) ;
#402 = EDGE_LOOP ( 'NONE', ( #583, #990 ) ) ;
#403 = VERTEX_POINT ( 'NONE', #235 ) ;
#404 =( NAMED_UNIT ( * ) PLANE_ANGLE_UNIT ( ) SI_UNIT ( $, .RADIAN. ) );
#405 = LINE ( 'NONE', #738, #183 ) ;
#406 = UNCERTAINTY_MEASURE_WITH_UNIT (LENGTH_MEASURE( 1.000000000000000082E-05 ), #375, 'distance_accuracy_value', 'NONE');
#407 = ORIENTED_EDGE ( 'NONE', *, *, #437, .T. ) ;
#408 = DIRECTION ( 'NONE',  ( -0.0000000000000000000, -0.0000000000000000000, 1.000000000000000000 ) ) ;
#409 = FACE_OUTER_BOUND ( 'NONE', #418, .T. ) ;
#410 =( NAMED_UNIT ( * ) SI_UNIT ( $, .STERADIAN. ) SOLID_ANGLE_UNIT ( ) );
#411 = VECTOR ( 'NONE', #107, 1000.000000000000000 ) ;
#412 = EDGE_CURVE ( 'NONE', #537, #648, #882, .T. ) ;
#413 = UNCERTAINTY_MEASURE_WITH_UNIT (LENGTH_MEASURE( 1.000000000000000082E-05 ), #1162, 'distance_accuracy_value', 'NONE');
#414 = PRODUCT ( '03_075_Reinforcing rib above', '03_075_Reinforcing rib above', '', ( #915 ) ) ;
#415 = ORIENTED_EDGE ( 'NONE', *, *, #169, .F. ) ;
#416 = EDGE_CURVE ( 'NONE', #1127, #350, #913, .T. ) ;
#417 = CARTESIAN_POINT ( 'NONE',  ( -47.50000000000004263, 6.000000000000000000, -347.5000000000000000 ) ) ;
#418 = EDGE_LOOP ( 'NONE', ( #875, #822, #925, #478 ) ) ;
#419 = ORIENTED_EDGE ( 'NONE', *, *, #144, .T. ) ;
#420 = FILL_AREA_STYLE_COLOUR ( '', #127 ) ;
#421 = LINE ( 'NONE', #982, #259 ) ;
#422 = CARTESIAN_POINT ( 'NONE',  ( -27.50000000000002487, -6.000000000000000000, -347.5000000000000000 ) ) ;
#423 = VECTOR ( 'NONE', #958, 1000.000000000000000 ) ;
#424 = EDGE_CURVE ( 'NONE', #108, #458, #215, .T. ) ;
#425 = DIRECTION ( 'NONE',  ( 0.0000000000000000000, 0.0000000000000000000, 1.000000000000000000 ) ) ;
#426 = DIRECTION ( 'NONE',  ( -1.000000000000000000, -0.0000000000000000000, 1.110223024625156540E-16 ) ) ;
#427 =( GEOMETRIC_REPRESENTATION_CONTEXT ( 3 ) GLOBAL_UNCERTAINTY_ASSIGNED_CONTEXT ( ( #1040 ) ) GLOBAL_UNIT_ASSIGNED_CONTEXT ( ( #519, #696, #410 ) ) REPRESENTATION_CONTEXT ( 'NONE', 'WORKASPACE' ) );
#428 = ORIENTED_EDGE ( 'NONE', *, *, #921, .T. ) ;
#429 = ORIENTED_EDGE ( 'NONE', *, *, #431, .F. ) ;
#430 = CARTESIAN_POINT ( 'NONE',  ( -47.49999999999996447, 0.0000000000000000000, 320.0000000000000000 ) ) ;
#431 = EDGE_CURVE ( 'NONE', #181, #1178, #1084, .T. ) ;
#432 = ORIENTED_EDGE ( 'NONE', *, *, #844, .T. ) ;
#433 = CARTESIAN_POINT ( 'NONE',  ( -47.49999999999996447, -6.000000000000000000, 347.5000000000000000 ) ) ;
#434 = DIRECTION ( 'NONE',  ( -1.000000000000000000, -0.0000000000000000000, 1.110223024625156540E-16 ) ) ;
#435 = SURFACE_STYLE_FILL_AREA ( #371 ) ;
#436 = DIRECTION ( 'NONE',  ( -0.5150380749100572642, 0.0000000000000000000, 0.8571673007021104462 ) ) ;
#437 = EDGE_CURVE ( 'NONE', #674, #1078, #814, .T. ) ;
#438 = CARTESIAN_POINT ( 'NONE',  ( -47.50000000000004263, -6.000000000000000000, -347.5000000000000000 ) ) ;
#439 = CARTESIAN_POINT ( 'NONE',  ( -47.49999999999996447, 0.0000000000000000000, 317.5000000000000000 ) ) ;
#440 = CARTESIAN_POINT ( 'NONE',  ( -22.50000000000002132, 0.0000000000000000000, -162.5000000000000000 ) ) ;
#441 = VERTEX_POINT ( 'NONE', #433 ) ;
#442 = VERTEX_POINT ( 'NONE', #799 ) ;
#443 = ORIENTED_EDGE ( 'NONE', *, *, #500, .F. ) ;
#444 = VERTEX_POINT ( 'NONE', #1071 ) ;
#445 = SURFACE_STYLE_FILL_AREA ( #454 ) ;
#446 = MECHANICAL_DESIGN_GEOMETRIC_PRESENTATION_REPRESENTATION (  '', ( #491 ), #635 ) ;
#447 = FACE_OUTER_BOUND ( 'NONE', #1144, .T. ) ;
#448 = CARTESIAN_POINT ( 'NONE',  ( -47.50000000000003553, 0.0000000000000000000, -322.5000000000000000 ) ) ;
#449 = LINE ( 'NONE', #63, #310 ) ;
#450 = PRESENTATION_STYLE_ASSIGNMENT (( #362 ) ) ;
#451 = FILL_AREA_STYLE_COLOUR ( '', #690 ) ;
#452 = ADVANCED_FACE ( 'NONE', ( #1025 ), #542, .F. ) ;
#453 = EDGE_CURVE ( 'NONE', #952, #350, #449, .T. ) ;
#454 = FILL_AREA_STYLE ('',( #451 ) ) ;
#455 = PLANE ( 'NONE',  #1001 ) ;
#456 = DIRECTION ( 'NONE',  ( -0.0000000000000000000, -0.0000000000000000000, 1.000000000000000000 ) ) ;
#457 = ADVANCED_FACE ( 'NONE', ( #680 ), #455, .F. ) ;
#458 = VERTEX_POINT ( 'NONE', #79 ) ;
#459 = CARTESIAN_POINT ( 'NONE',  ( -47.50000000000002132, 3.061616997868358982E-16, -165.0000000000000000 ) ) ;
#460 = ORIENTED_EDGE ( 'NONE', *, *, #220, .T. ) ;
#461 = LINE ( 'NONE', #1150, #335 ) ;
#462 = EDGE_CURVE ( 'NONE', #661, #659, #421, .T. ) ;
#463 = ORIENTED_EDGE ( 'NONE', *, *, #569, .F. ) ;
#464 = UNCERTAINTY_MEASURE_WITH_UNIT (LENGTH_MEASURE( 1.000000000000000082E-05 ), #315, 'distance_accuracy_value', 'NONE');
#465 = CYLINDRICAL_SURFACE ( 'NONE', #468, 2.499999999999988454 ) ;
#466 =( NAMED_UNIT ( * ) PLANE_ANGLE_UNIT ( ) SI_UNIT ( $, .RADIAN. ) );
#467 = COLOUR_RGB ( '',0.8980392156862745390, 0.9176470588235293713, 0.9294117647058823817 ) ;
#468 = AXIS2_PLACEMENT_3D ( 'NONE', #1035, #36, #779 ) ;
#469 = CARTESIAN_POINT ( 'NONE',  ( -47.49999999999996447, 3.061616997868358982E-16, 315.0000000000000000 ) ) ;
#470 = ADVANCED_FACE ( 'NONE', ( #930 ), #112, .F. ) ;
#471 = CARTESIAN_POINT ( 'NONE',  ( -22.50000000000002132, 0.0000000000000000000, -160.0000000000000000 ) ) ;
#472 = CARTESIAN_POINT ( 'NONE',  ( -47.50000000000000000, 0.0000000000000000000, -4.336808689942017736E-15 ) ) ;
#473 = STYLED_ITEM ( 'NONE', ( #1096 ), #366 ) ;
#474 = DIRECTION ( 'NONE',  ( 0.0000000000000000000, 0.0000000000000000000, -1.000000000000000000 ) ) ;
#475 = COLOUR_RGB ( '',0.8980392156862745390, 0.9176470588235293713, 0.9294117647058823817 ) ;
#476 =( NAMED_UNIT ( * ) SI_UNIT ( $, .STERADIAN. ) SOLID_ANGLE_UNIT ( ) );
#477 = VERTEX_POINT ( 'NONE', #67 ) ;
#478 = ORIENTED_EDGE ( 'NONE', *, *, #914, .T. ) ;
#479 = DIRECTION ( 'NONE',  ( -1.000000000000000000, -0.0000000000000000000, 1.110223024625156540E-16 ) ) ;
#480 = SURFACE_STYLE_USAGE ( .BOTH. , #568 ) ;
#481 = SURFACE_STYLE_FILL_AREA ( #673 ) ;
#482 =( GEOMETRIC_REPRESENTATION_CONTEXT ( 3 ) GLOBAL_UNCERTAINTY_ASSIGNED_CONTEXT ( ( #52 ) ) GLOBAL_UNIT_ASSIGNED_CONTEXT ( ( #100, #1014, #1180 ) ) REPRESENTATION_CONTEXT ( 'NONE', 'WORKASPACE' ) );
#483 = VECTOR ( 'NONE', #695, 1000.000000000000000 ) ;
#484 =( GEOMETRIC_REPRESENTATION_CONTEXT ( 3 ) GLOBAL_UNCERTAINTY_ASSIGNED_CONTEXT ( ( #413 ) ) GLOBAL_UNIT_ASSIGNED_CONTEXT ( ( #1162, #466, #718 ) ) REPRESENTATION_CONTEXT ( 'NONE', 'WORKASPACE' ) );
#485 =( NAMED_UNIT ( * ) PLANE_ANGLE_UNIT ( ) SI_UNIT ( $, .RADIAN. ) );
#486 =( LENGTH_UNIT ( ) NAMED_UNIT ( * ) SI_UNIT ( .MILLI., .METRE. ) );
#487 = APPLICATION_PROTOCOL_DEFINITION ( 'draft international standard', 'automotive_design', 1998, #4 ) ;
#488 = DIRECTION ( 'NONE',  ( -1.000000000000000000, -0.0000000000000000000, 1.110223024625156540E-16 ) ) ;
#489 = EDGE_CURVE ( 'NONE', #770, #923, #498, .T. ) ;
#490 = SURFACE_STYLE_USAGE ( .BOTH. , #1019 ) ;
#491 = STYLED_ITEM ( 'NONE', ( #1056 ), #470 ) ;
#492 = FACE_OUTER_BOUND ( 'NONE', #208, .T. ) ;
#493 = CARTESIAN_POINT ( 'NONE',  ( -47.50000000000004263, -6.000000000000000000, -347.5000000000000000 ) ) ;
#494 = EDGE_LOOP ( 'NONE', ( #10, #1154, #59, #47 ) ) ;
#495 = EDGE_LOOP ( 'NONE', ( #728, #1005, #781, #419 ) ) ;
#496 = FACE_OUTER_BOUND ( 'NONE', #255, .T. ) ;
#497 = PLANE ( 'NONE',  #864 ) ;
#498 = LINE ( 'NONE', #175, #1135 ) ;
#499 = FACE_OUTER_BOUND ( 'NONE', #380, .T. ) ;
#500 = EDGE_CURVE ( 'NONE', #537, #770, #611, .T. ) ;
#501 = PRESENTATION_STYLE_ASSIGNMENT (( #490 ) ) ;
#502 = CARTESIAN_POINT ( 'NONE',  ( -47.50000000000000000, 0.0000000000000000000, -2.499999999999996891 ) ) ;
#503 = CARTESIAN_POINT ( 'NONE',  ( -36.45042793126381753, -6.000000000000000000, -347.5000000000000000 ) ) ;
#504 = CARTESIAN_POINT ( 'NONE',  ( -47.49999999999997868, 3.061616997868358982E-16, 155.0000000000000000 ) ) ;
#505 = UNCERTAINTY_MEASURE_WITH_UNIT (LENGTH_MEASURE( 1.000000000000000082E-05 ), #1029, 'distance_accuracy_value', 'NONE');
#506 = EDGE_CURVE ( 'NONE', #1178, #556, #866, .T. ) ;
#507 = CARTESIAN_POINT ( 'NONE',  ( -47.49999999999997868, 3.061616997868373773E-16, 155.0000000000000000 ) ) ;
#508 = SURFACE_STYLE_FILL_AREA ( #1101 ) ;
#509 = PRODUCT_DEFINITION ( 'UNKNOWN', '', #667, #772 ) ;
#510 = ORIENTED_EDGE ( 'NONE', *, *, #317, .F. ) ;
#511 = ORIENTED_EDGE ( 'NONE', *, *, #300, .T. ) ;
#512 = DIRECTION ( 'NONE',  ( 0.0000000000000000000, -1.000000000000000000, 0.0000000000000000000 ) ) ;
#513 = ORIENTED_EDGE ( 'NONE', *, *, #1043, .F. ) ;
#514 = CARTESIAN_POINT ( 'NONE',  ( -35.99999999999997868, 0.0000000000000000000, 347.5000000000000000 ) ) ;
#515 = VECTOR ( 'NONE', #846, 1000.000000000000000 ) ;
#516 = SURFACE_STYLE_USAGE ( .BOTH. , #234 ) ;
#517 = LINE ( 'NONE', #8, #411 ) ;
#518 =( LENGTH_UNIT ( ) NAMED_UNIT ( * ) SI_UNIT ( .MILLI., .METRE. ) );
#519 =( LENGTH_UNIT ( ) NAMED_UNIT ( * ) SI_UNIT ( .MILLI., .METRE. ) );
#520 = DIRECTION ( 'NONE',  ( -1.000000000000000000, -0.0000000000000000000, 1.110223024625156540E-16 ) ) ;
#521 = UNCERTAINTY_MEASURE_WITH_UNIT (LENGTH_MEASURE( 1.000000000000000082E-05 ), #281, 'distance_accuracy_value', 'NONE');
#522 = CARTESIAN_POINT ( 'NONE',  ( -26.51159058452762807, 6.000000000000000000, -338.6043152607484217 ) ) ;
#523 = PRESENTATION_LAYER_ASSIGNMENT (  '', '', ( #6 ) ) ;
#524 = DIRECTION ( 'NONE',  ( 0.0000000000000000000, 0.0000000000000000000, 1.000000000000000000 ) ) ;
#525 = ORIENTED_EDGE ( 'NONE', *, *, #1015, .F. ) ;
#526 = SURFACE_STYLE_FILL_AREA ( #196 ) ;
#527 = EDGE_LOOP ( 'NONE', ( #460, #950, #888, #302, #407, #88 ) ) ;
#528 = CARTESIAN_POINT ( 'NONE',  ( 47.50000000000003553, 6.000000000000000000, 347.5000000000000000 ) ) ;
#529 = PRESENTATION_STYLE_ASSIGNMENT (( #684 ) ) ;
#530 = CONICAL_SURFACE ( 'NONE', #579, 2.500000000000002220, 1.029744258676650759 ) ;
#531 = CIRCLE ( 'NONE', #787, 2.499999999999988454 ) ;
#532 = VECTOR ( 'NONE', #190, 1000.000000000000000 ) ;
#533 = DIRECTION ( 'NONE',  ( -1.000000000000000000, -0.0000000000000000000, 1.110223024625156540E-16 ) ) ;
#534 = CARTESIAN_POINT ( 'NONE',  ( -47.49999999999996447, 0.0000000000000000000, 317.5000000000000000 ) ) ;
#535 = PRESENTATION_LAYER_ASSIGNMENT (  '', '', ( #775 ) ) ;
#536 = DIRECTION ( 'NONE',  ( -1.000000000000000000, -0.0000000000000000000, 1.110223024625156540E-16 ) ) ;
#537 = VERTEX_POINT ( 'NONE', #977 ) ;
#538 = EDGE_CURVE ( 'NONE', #271, #659, #813, .T. ) ;
#539 = VERTEX_POINT ( 'NONE', #167 ) ;
#540 = SURFACE_SIDE_STYLE ('',( #435 ) ) ;
#541 = VERTEX_POINT ( 'NONE', #896 ) ;
#542 = CYLINDRICAL_SURFACE ( 'NONE', #1026, 2.500000000000002220 ) ;
#543 = VECTOR ( 'NONE', #22, 999.9999999999998863 ) ;
#544 = EDGE_CURVE ( 'NONE', #269, #811, #586, .T. ) ;
#545 =( NAMED_UNIT ( * ) PLANE_ANGLE_UNIT ( ) SI_UNIT ( $, .RADIAN. ) );
#546 =( NAMED_UNIT ( * ) PLANE_ANGLE_UNIT ( ) SI_UNIT ( $, .RADIAN. ) );
#547 = AXIS2_PLACEMENT_3D ( 'NONE', #733, #1166, #987 ) ;
#548 = DIRECTION ( 'NONE',  ( -1.000000000000000000, -0.0000000000000000000, 1.110223024625156540E-16 ) ) ;
#549 = ADVANCED_FACE ( 'NONE', ( #17 ), #530, .F. ) ;
#550 = EDGE_LOOP ( 'NONE', ( #463, #223, #927 ) ) ;
#551 = ORIENTED_EDGE ( 'NONE', *, *, #220, .F. ) ;
#552 = EDGE_CURVE ( 'NONE', #444, #199, #365, .T. ) ;
#553 = DIRECTION ( 'NONE',  ( 0.0000000000000000000, 0.0000000000000000000, 1.000000000000000000 ) ) ;
#554 = ORIENTED_EDGE ( 'NONE', *, *, #1185, .T. ) ;
#555 = AXIS2_PLACEMENT_3D ( 'NONE', #812, #266, #900 ) ;
#556 = VERTEX_POINT ( 'NONE', #459 ) ;
#557 = SURFACE_STYLE_FILL_AREA ( #26 ) ;
#558 = LINE ( 'NONE', #471, #692 ) ;
#559 = COLOUR_RGB ( '',0.8980392156862745390, 0.9176470588235293713, 0.9294117647058823817 ) ;
#560 = DIRECTION ( 'NONE',  ( 0.0000000000000000000, 0.0000000000000000000, 1.000000000000000000 ) ) ;
#561 = DIRECTION ( 'NONE',  ( 1.000000000000000000, 0.0000000000000000000, 0.0000000000000000000 ) ) ;
#562 = EDGE_CURVE ( 'NONE', #661, #271, #1008, .T. ) ;
#563 = CARTESIAN_POINT ( 'NONE',  ( -47.50000000000003553, 0.0000000000000000000, -320.0000000000000000 ) ) ;
#564 = ADVANCED_FACE ( 'NONE', ( #597 ), #289, .T. ) ;
#565 = ORIENTED_EDGE ( 'NONE', *, *, #821, .F. ) ;
#566 = ORIENTED_EDGE ( 'NONE', *, *, #154, .F. ) ;
#567 = ORIENTED_EDGE ( 'NONE', *, *, #821, .T. ) ;
#568 = SURFACE_SIDE_STYLE ('',( #508 ) ) ;
#569 = EDGE_CURVE ( 'NONE', #181, #104, #558, .T. ) ;
#570 = ORIENTED_EDGE ( 'NONE', *, *, #1079, .F. ) ;
#571 = CONICAL_SURFACE ( 'NONE', #698, 2.500000000000002220, 1.029744258676650759 ) ;
#572 = PRESENTATION_STYLE_ASSIGNMENT (( #853 ) ) ;
#573 = PRESENTATION_LAYER_ASSIGNMENT (  '', '', ( #1099 ) ) ;
#574 = DIRECTION ( 'NONE',  ( -0.0000000000000000000, -0.0000000000000000000, 1.000000000000000000 ) ) ;
#575 = VECTOR ( 'NONE', #295, 1000.000000000000000 ) ;
#576 = DIRECTION ( 'NONE',  ( 0.0000000000000000000, 0.0000000000000000000, 1.000000000000000000 ) ) ;
#577 = DIRECTION ( 'NONE',  ( -0.0000000000000000000, -0.0000000000000000000, 1.000000000000000000 ) ) ;
#578 = FILL_AREA_STYLE_COLOUR ( '', #657 ) ;
#579 = AXIS2_PLACEMENT_3D ( 'NONE', #1168, #194, #560 ) ;
#580 = DIRECTION ( 'NONE',  ( 1.098242200618410321E-16, 0.0000000000000000000, 1.000000000000000000 ) ) ;
#581 = EDGE_LOOP ( 'NONE', ( #525, #1016, #886, #860 ) ) ;
#582 = ORIENTED_EDGE ( 'NONE', *, *, #209, .F. ) ;
#583 = ORIENTED_EDGE ( 'NONE', *, *, #233, .F. ) ;
#584 = SURFACE_STYLE_FILL_AREA ( #609 ) ;
#585 = PRESENTATION_LAYER_ASSIGNMENT (  '', '', ( #202 ) ) ;
#586 = LINE ( 'NONE', #173, #1023 ) ;
#587 = CONICAL_SURFACE ( 'NONE', #834, 2.500000000000002220, 1.029744258676650759 ) ;
#588 = CARTESIAN_POINT ( 'NONE',  ( 47.50000000000003553, 6.000000000000000000, 327.4999999999999432 ) ) ;
#589 = LINE ( 'NONE', #290, #1010 ) ;
#590 = DIRECTION ( 'NONE',  ( -0.8571673007021134438, 1.049727191138620051E-16, 0.5150380749100522682 ) ) ;
#591 =( GEOMETRIC_REPRESENTATION_CONTEXT ( 3 ) GLOBAL_UNCERTAINTY_ASSIGNED_CONTEXT ( ( #379 ) ) GLOBAL_UNIT_ASSIGNED_CONTEXT ( ( #957, #601, #339 ) ) REPRESENTATION_CONTEXT ( 'NONE', 'WORKASPACE' ) );
#592 = LINE ( 'NONE', #1152, #936 ) ;
#593 = DIRECTION ( 'NONE',  ( 1.000000000000000000, 0.0000000000000000000, -0.0000000000000000000 ) ) ;
#594 = ORIENTED_EDGE ( 'NONE', *, *, #424, .T. ) ;
#595 = ORIENTED_EDGE ( 'NONE', *, *, #538, .T. ) ;
#596 = LINE ( 'NONE', #356, #1176 ) ;
#597 = FACE_OUTER_BOUND ( 'NONE', #906, .T. ) ;
#598 = DIRECTION ( 'NONE',  ( 1.000000000000000000, -0.0000000000000000000, -0.0000000000000000000 ) ) ;
#599 =( GEOMETRIC_REPRESENTATION_CONTEXT ( 3 ) GLOBAL_UNCERTAINTY_ASSIGNED_CONTEXT ( ( #856 ) ) GLOBAL_UNIT_ASSIGNED_CONTEXT ( ( #971, #874, #249 ) ) REPRESENTATION_CONTEXT ( 'NONE', 'WORKASPACE' ) );
#600 = VECTOR ( 'NONE', #323, 1000.000000000000000 ) ;
#601 =( NAMED_UNIT ( * ) PLANE_ANGLE_UNIT ( ) SI_UNIT ( $, .RADIAN. ) );
#602 = CARTESIAN_POINT ( 'NONE',  ( -35.99999999999997868, 0.0000000000000000000, 347.5000000000000000 ) ) ;
#603 = FILL_AREA_STYLE_COLOUR ( '', #1119 ) ;
#604 = PRESENTATION_LAYER_ASSIGNMENT (  '', '', ( #653 ) ) ;
#605 = CARTESIAN_POINT ( 'NONE',  ( -22.49999999999996447, 3.061616997868377718E-16, 315.0000000000000000 ) ) ;
#606 =( GEOMETRIC_REPRESENTATION_CONTEXT ( 3 ) GLOBAL_UNCERTAINTY_ASSIGNED_CONTEXT ( ( #521 ) ) GLOBAL_UNIT_ASSIGNED_CONTEXT ( ( #281, #270, #66 ) ) REPRESENTATION_CONTEXT ( 'NONE', 'WORKASPACE' ) );
#607 = ORIENTED_EDGE ( 'NONE', *, *, #412, .F. ) ;
#608 = ORIENTED_EDGE ( 'NONE', *, *, #357, .T. ) ;
#609 = FILL_AREA_STYLE ('',( #603 ) ) ;
#610 = DIRECTION ( 'NONE',  ( 0.0000000000000000000, 0.0000000000000000000, 1.000000000000000000 ) ) ;
#611 = LINE ( 'NONE', #73, #322 ) ;
#612 = EDGE_CURVE ( 'NONE', #674, #441, #1070, .T. ) ;
#613 = CONICAL_SURFACE ( 'NONE', #1074, 2.499999999999995115, 1.029744258676650759 ) ;
#614 = CARTESIAN_POINT ( 'NONE',  ( 39.00000000000002132, 0.0000000000000000000, 322.4999999999999432 ) ) ;
#615 = CONICAL_SURFACE ( 'NONE', #679, 2.499999999999995115, 1.029744258676656754 ) ;
#616 = AXIS2_PLACEMENT_3D ( 'NONE', #614, #1061, #786 ) ;
#617 = CARTESIAN_POINT ( 'NONE',  ( -22.50000000000000000, 0.0000000000000000000, -2.499999999999999556 ) ) ;
#618 = FILL_AREA_STYLE ('',( #788 ) ) ;
#619 = SURFACE_STYLE_FILL_AREA ( #1012 ) ;
#620 =( GEOMETRIC_REPRESENTATION_CONTEXT ( 3 ) GLOBAL_UNCERTAINTY_ASSIGNED_CONTEXT ( ( #406 ) ) GLOBAL_UNIT_ASSIGNED_CONTEXT ( ( #375, #382, #476 ) ) REPRESENTATION_CONTEXT ( 'NONE', 'WORKASPACE' ) );
#621 = CARTESIAN_POINT ( 'NONE',  ( 39.00000000000002132, 0.0000000000000000000, 322.4999999999999432 ) ) ;
#622 = EDGE_LOOP ( 'NONE', ( #222, #513, #254, #42 ) ) ;
#623 = EDGE_LOOP ( 'NONE', ( #443, #132, #304 ) ) ;
#624 = CARTESIAN_POINT ( 'NONE',  ( -22.50000000000002132, 0.0000000000000000000, -162.5000000000000000 ) ) ;
#625 = EDGE_LOOP ( 'NONE', ( #636, #1189, #305 ) ) ;
#626 = VECTOR ( 'NONE', #328, 1000.000000000000000 ) ;
#627 = CIRCLE ( 'NONE', #352, 2.500000000000002220 ) ;
#628 = CYLINDRICAL_SURFACE ( 'NONE', #992, 2.499999999999988454 ) ;
#629 = EDGE_CURVE ( 'NONE', #316, #839, #637, .T. ) ;
#630 = DIRECTION ( 'NONE',  ( -1.000000000000000000, -0.0000000000000000000, 1.110223024625156540E-16 ) ) ;
#631 = FILL_AREA_STYLE_COLOUR ( '', #760 ) ;
#632 = CARTESIAN_POINT ( 'NONE',  ( -47.50000000000000000, 0.0000000000000000000, -2.499999999999996891 ) ) ;
#633 = DIRECTION ( 'NONE',  ( 0.0000000000000000000, 0.0000000000000000000, 1.000000000000000000 ) ) ;
#634 = ORIENTED_EDGE ( 'NONE', *, *, #357, .F. ) ;
#635 =( GEOMETRIC_REPRESENTATION_CONTEXT ( 3 ) GLOBAL_UNCERTAINTY_ASSIGNED_CONTEXT ( ( #143 ) ) GLOBAL_UNIT_ASSIGNED_CONTEXT ( ( #1082, #546, #1164 ) ) REPRESENTATION_CONTEXT ( 'NONE', 'WORKASPACE' ) );
#636 = ORIENTED_EDGE ( 'NONE', *, *, #544, .F. ) ;
#637 = CIRCLE ( 'NONE', #172, 10.00000000000000888 ) ;
#638 = FACE_OUTER_BOUND ( 'NONE', #826, .T. ) ;
#639 = AXIS2_PLACEMENT_3D ( 'NONE', #201, #16, #767 ) ;
#640 = STYLED_ITEM ( 'NONE', ( #783 ), #1188 ) ;
#641 = PRODUCT_DEFINITION_SHAPE ( 'NONE', 'NONE',  #509 ) ;
#642 = DIRECTION ( 'NONE',  ( -1.000000000000000000, -0.0000000000000000000, 1.110223024625156540E-16 ) ) ;
#643 = ADVANCED_FACE ( 'NONE', ( #668 ), #964, .F. ) ;
#644 = ORIENTED_EDGE ( 'NONE', *, *, #122, .F. ) ;
#645 = EDGE_CURVE ( 'NONE', #119, #1130, #1, .T. ) ;
#646 = ORIENTED_EDGE ( 'NONE', *, *, #538, .F. ) ;
#647 = PRESENTATION_LAYER_ASSIGNMENT (  '', '', ( #751 ) ) ;
#648 = VERTEX_POINT ( 'NONE', #1187 ) ;
#649 = CARTESIAN_POINT ( 'NONE',  ( -36.45042793126381753, -6.000000000000000000, -337.4999999999999432 ) ) ;
#650 = DIRECTION ( 'NONE',  ( -0.0000000000000000000, -0.0000000000000000000, 1.000000000000000000 ) ) ;
#651 = APPLICATION_CONTEXT ( 'automotive_design' ) ;
#652 = SURFACE_STYLE_USAGE ( .BOTH. , #827 ) ;
#653 = STYLED_ITEM ( 'NONE', ( #1031 ), #81 ) ;
#654 = DIRECTION ( 'NONE',  ( 0.0000000000000000000, 0.0000000000000000000, 1.000000000000000000 ) ) ;
#655 = CARTESIAN_POINT ( 'NONE',  ( -22.49999999999996447, 3.061616997868377225E-16, 315.0000000000000000 ) ) ;
#656 = CARTESIAN_POINT ( 'NONE',  ( -24.44444444444447129, 0.0000000000000000000, -320.0000000000000000 ) ) ;
#657 = COLOUR_RGB ( '',0.8980392156862745390, 0.9176470588235293713, 0.9294117647058823817 ) ;
#658 = DIRECTION ( 'NONE',  ( 1.000000000000000000, 0.0000000000000000000, 0.0000000000000000000 ) ) ;
#659 = VERTEX_POINT ( 'NONE', #99 ) ;
#660 = CARTESIAN_POINT ( 'NONE',  ( -47.49999999999996447, 6.000000000000000000, 347.5000000000000000 ) ) ;
#661 = VERTEX_POINT ( 'NONE', #282 ) ;
#662 = DIRECTION ( 'NONE',  ( -0.0000000000000000000, -0.0000000000000000000, 1.000000000000000000 ) ) ;
#663 =( GEOMETRIC_REPRESENTATION_CONTEXT ( 3 ) GLOBAL_UNCERTAINTY_ASSIGNED_CONTEXT ( ( #205 ) ) GLOBAL_UNIT_ASSIGNED_CONTEXT ( ( #518, #219, #764 ) ) REPRESENTATION_CONTEXT ( 'NONE', 'WORKASPACE' ) );
#664 = ORIENTED_EDGE ( 'NONE', *, *, #844, .F. ) ;
#665 = CYLINDRICAL_SURFACE ( 'NONE', #872, 2.500000000000002220 ) ;
#666 = COLOUR_RGB ( '',0.8980392156862745390, 0.9176470588235293713, 0.9294117647058823817 ) ;
#667 = PRODUCT_DEFINITION_FORMATION_WITH_SPECIFIED_SOURCE ( 'ANY', '', #414, .NOT_KNOWN. ) ;
#668 = FACE_OUTER_BOUND ( 'NONE', #1172, .T. ) ;
#669 = FACE_BOUND ( 'NONE', #757, .T. ) ;
#670 = DIRECTION ( 'NONE',  ( 0.0000000000000000000, -0.0000000000000000000, 1.000000000000000000 ) ) ;
#671 = EDGE_CURVE ( 'NONE', #316, #1004, #32, .T. ) ;
#672 = AXIS2_PLACEMENT_3D ( 'NONE', #1183, #479, #742 ) ;
#673 = FILL_AREA_STYLE ('',( #929 ) ) ;
#674 = VERTEX_POINT ( 'NONE', #179 ) ;
#675 = ORIENTED_EDGE ( 'NONE', *, *, #705, .T. ) ;
#676 = FILL_AREA_STYLE ('',( #1110 ) ) ;
#677 = LINE ( 'NONE', #174, #239 ) ;
#678 = CARTESIAN_POINT ( 'NONE',  ( -22.50000000000000000, 0.0000000000000000000, -2.499999999999999556 ) ) ;
#679 = AXIS2_PLACEMENT_3D ( 'NONE', #297, #1102, #115 ) ;
#680 = FACE_OUTER_BOUND ( 'NONE', #1034, .T. ) ;
#681 = VECTOR ( 'NONE', #1007, 1000.000000000000000 ) ;
#682 = DIRECTION ( 'NONE',  ( -0.0000000000000000000, -0.0000000000000000000, 1.000000000000000000 ) ) ;
#683 = DIRECTION ( 'NONE',  ( -2.081668171172166541E-15, 0.0000000000000000000, -1.000000000000000000 ) ) ;
#684 = SURFACE_STYLE_USAGE ( .BOTH. , #1048 ) ;
#685 = EDGE_LOOP ( 'NONE', ( #850, #27, #746, #308 ) ) ;
#686 = CARTESIAN_POINT ( 'NONE',  ( -47.50000000000003553, 3.061616997868358982E-16, -325.0000000000000000 ) ) ;
#687 = EDGE_LOOP ( 'NONE', ( #93, #1129, #212, #840, #809, #149 ) ) ;
#688 = UNCERTAINTY_MEASURE_WITH_UNIT (LENGTH_MEASURE( 1.000000000000000082E-05 ), #264, 'distance_accuracy_value', 'NONE');
#689 = EDGE_LOOP ( 'NONE', ( #794, #238, #594 ) ) ;
#690 = COLOUR_RGB ( '',0.8980392156862745390, 0.9176470588235293713, 0.9294117647058823817 ) ;
#691 =( LENGTH_UNIT ( ) NAMED_UNIT ( * ) SI_UNIT ( .MILLI., .METRE. ) );
#692 = VECTOR ( 'NONE', #374, 1000.000000000000000 ) ;
#693 = CARTESIAN_POINT ( 'NONE',  ( -27.50000000000002487, 6.000000000000000000, -347.5000000000000000 ) ) ;
#694 =( GEOMETRIC_REPRESENTATION_CONTEXT ( 3 ) GLOBAL_UNCERTAINTY_ASSIGNED_CONTEXT ( ( #505 ) ) GLOBAL_UNIT_ASSIGNED_CONTEXT ( ( #1029, #218, #1013 ) ) REPRESENTATION_CONTEXT ( 'NONE', 'WORKASPACE' ) );
#695 = DIRECTION ( 'NONE',  ( -1.000000000000000000, -0.0000000000000000000, 1.110223024625156540E-16 ) ) ;
#696 =( NAMED_UNIT ( * ) PLANE_ANGLE_UNIT ( ) SI_UNIT ( $, .RADIAN. ) );
#697 = EDGE_CURVE ( 'NONE', #1132, #862, #980, .T. ) ;
#698 = AXIS2_PLACEMENT_3D ( 'NONE', #221, #1136, #425 ) ;
#699 = CIRCLE ( 'NONE', #397, 2.500000000000002220 ) ;
#700 = VERTEX_POINT ( 'NONE', #469 ) ;
#701 = DIRECTION ( 'NONE',  ( -1.000000000000000000, -0.0000000000000000000, 1.110223024625156540E-16 ) ) ;
#702 = ORIENTED_EDGE ( 'NONE', *, *, #544, .T. ) ;
#703 = CARTESIAN_POINT ( 'NONE',  ( -35.99999999999997868, 0.0000000000000000000, 347.5000000000000000 ) ) ;
#704 = PRESENTATION_STYLE_ASSIGNMENT (( #1046 ) ) ;
#705 = EDGE_CURVE ( 'NONE', #1037, #477, #338, .T. ) ;
#706 = DIRECTION ( 'NONE',  ( -0.0000000000000000000, -1.000000000000000000, -0.0000000000000000000 ) ) ;
#707 = VECTOR ( 'NONE', #795, 1000.000000000000114 ) ;
#708 = STYLED_ITEM ( 'NONE', ( #1068 ), #887 ) ;
#709 = DIRECTION ( 'NONE',  ( 0.0000000000000000000, 0.0000000000000000000, 1.000000000000000000 ) ) ;
#710 = DIRECTION ( 'NONE',  ( -1.000000000000000000, -0.0000000000000000000, 1.110223024625156540E-16 ) ) ;
#711 = EDGE_LOOP ( 'NONE', ( #1055, #973, #1090, #959 ) ) ;
#712 = DIRECTION ( 'NONE',  ( -0.5150380749100572642, 0.0000000000000000000, 0.8571673007021104462 ) ) ;
#713 = ORIENTED_EDGE ( 'NONE', *, *, #462, .F. ) ;
#714 = EDGE_LOOP ( 'NONE', ( #582, #702, #330 ) ) ;
#715 = FILL_AREA_STYLE ('',( #631 ) ) ;
#716 = FACE_BOUND ( 'NONE', #1145, .T. ) ;
#717 = EDGE_CURVE ( 'NONE', #104, #1077, #354, .T. ) ;
#718 =( NAMED_UNIT ( * ) SI_UNIT ( $, .STERADIAN. ) SOLID_ANGLE_UNIT ( ) );
#719 = ADVANCED_FACE ( 'NONE', ( #994, #395 ), #87, .F. ) ;
#720 = DIRECTION ( 'NONE',  ( -1.000000000000000000, -0.0000000000000000000, 1.110223024625156540E-16 ) ) ;
#721 = PRESENTATION_LAYER_ASSIGNMENT (  '', '', ( #1140 ) ) ;
#722 = DIRECTION ( 'NONE',  ( 0.0000000000000000000, 0.0000000000000000000, 1.000000000000000000 ) ) ;
#723 =( NAMED_UNIT ( * ) PLANE_ANGLE_UNIT ( ) SI_UNIT ( $, .RADIAN. ) );
#724 = ADVANCED_FACE ( 'NONE', ( #48 ), #274, .F. ) ;
#725 = EDGE_CURVE ( 'NONE', #1004, #441, #1041, .T. ) ;
#726 = ORIENTED_EDGE ( 'NONE', *, *, #1098, .T. ) ;
#727 = AXIS2_PLACEMENT_3D ( 'NONE', #534, #237, #344 ) ;
#728 = ORIENTED_EDGE ( 'NONE', *, *, #725, .T. ) ;
#729 = DIRECTION ( 'NONE',  ( 0.0000000000000000000, 0.0000000000000000000, 1.000000000000000000 ) ) ;
#730 = VERTEX_POINT ( 'NONE', #213 ) ;
#731 = ORIENTED_EDGE ( 'NONE', *, *, #363, .T. ) ;
#732 = CIRCLE ( 'NONE', #898, 2.499999999999990230 ) ;
#733 = CARTESIAN_POINT ( 'NONE',  ( 0.0000000000000000000, 6.000000000000000000, 0.0000000000000000000 ) ) ;
#734 = FACE_BOUND ( 'NONE', #402, .T. ) ;
#735 = ADVANCED_FACE ( 'NONE', ( #776, #716, #231, #137, #734, #954 ), #910, .F. ) ;
#736 = DIRECTION ( 'NONE',  ( -0.0000000000000000000, -1.000000000000000000, -0.0000000000000000000 ) ) ;
#737 = PRESENTATION_LAYER_ASSIGNMENT (  '', '', ( #969 ) ) ;
#738 = CARTESIAN_POINT ( 'NONE',  ( -33.49999999999998579, 0.0000000000000000000, 347.5000000000000000 ) ) ;
#739 = DIRECTION ( 'NONE',  ( -1.000000000000000000, -0.0000000000000000000, 1.110223024625156540E-16 ) ) ;
#740 = CARTESIAN_POINT ( 'NONE',  ( -47.49999999999997868, 0.0000000000000000000, 157.5000000000000000 ) ) ;
#741 = ADVANCED_FACE ( 'NONE', ( #123 ), #830, .F. ) ;
#742 = DIRECTION ( 'NONE',  ( 0.0000000000000000000, 0.0000000000000000000, 1.000000000000000000 ) ) ;
#743 = FACE_OUTER_BOUND ( 'NONE', #938, .T. ) ;
#744 = CARTESIAN_POINT ( 'NONE',  ( 39.00000000000002132, 0.0000000000000000000, 322.4999999999999432 ) ) ;
#745 = EDGE_LOOP ( 'NONE', ( #940, #90 ) ) ;
#746 = ORIENTED_EDGE ( 'NONE', *, *, #437, .F. ) ;
#747 = ORIENTED_EDGE ( 'NONE', *, *, #562, .T. ) ;
#748 = DIRECTION ( 'NONE',  ( -1.000000000000000000, -0.0000000000000000000, 1.110223024625156540E-16 ) ) ;
#749 = FACE_OUTER_BOUND ( 'NONE', #852, .T. ) ;
#750 = FACE_OUTER_BOUND ( 'NONE', #714, .T. ) ;
#751 = STYLED_ITEM ( 'NONE', ( #450 ), #452 ) ;
#752 = APPLICATION_PROTOCOL_DEFINITION ( 'draft international standard', 'automotive_design', 1998, #651 ) ;
#753 =( NAMED_UNIT ( * ) SI_UNIT ( $, .STERADIAN. ) SOLID_ANGLE_UNIT ( ) );
#754 = CARTESIAN_POINT ( 'NONE',  ( -47.50000000000000000, 0.0000000000000000000, -2.499999999999996891 ) ) ;
#755 = VERTEX_POINT ( 'NONE', #766 ) ;
#756 = AXIS2_PLACEMENT_3D ( 'NONE', #744, #195, #386 ) ;
#757 = EDGE_LOOP ( 'NONE', ( #1091, #847 ) ) ;
#758 = ORIENTED_EDGE ( 'NONE', *, *, #169, .T. ) ;
#759 = SURFACE_SIDE_STYLE ('',( #481 ) ) ;
#760 = COLOUR_RGB ( '',0.8980392156862745390, 0.9176470588235293713, 0.9294117647058823817 ) ;
#761 = LINE ( 'NONE', #880, #423 ) ;
#762 = SURFACE_SIDE_STYLE ('',( #214 ) ) ;
#763 = EDGE_CURVE ( 'NONE', #541, #287, #865, .T. ) ;
#764 =( NAMED_UNIT ( * ) SI_UNIT ( $, .STERADIAN. ) SOLID_ANGLE_UNIT ( ) );
#765 = MECHANICAL_DESIGN_GEOMETRIC_PRESENTATION_REPRESENTATION (  '', ( #1050 ), #591 ) ;
#766 = CARTESIAN_POINT ( 'NONE',  ( -26.51159058452762807, 6.000000000000000000, -338.6043152607484217 ) ) ;
#767 = DIRECTION ( 'NONE',  ( 0.0000000000000000000, 0.0000000000000000000, 1.000000000000000000 ) ) ;
#768 = ORIENTED_EDGE ( 'NONE', *, *, #960, .F. ) ;
#769 = ORIENTED_EDGE ( 'NONE', *, *, #363, .F. ) ;
#770 = VERTEX_POINT ( 'NONE', #934 ) ;
#771 = PRESENTATION_STYLE_ASSIGNMENT (( #203 ) ) ;
#772 = PRODUCT_DEFINITION_CONTEXT ( 'detailed design', #4, 'design' ) ;
#773 = VERTEX_POINT ( 'NONE', #1106 ) ;
#774 = DIRECTION ( 'NONE',  ( -1.000000000000000000, 0.0000000000000000000, -0.0000000000000000000 ) ) ;
#775 = STYLED_ITEM ( 'NONE', ( #1081 ), #805 ) ;
#776 = FACE_BOUND ( 'NONE', #972, .T. ) ;
#777 = DIRECTION ( 'NONE',  ( 1.000000000000000000, 0.0000000000000000000, 0.0000000000000000000 ) ) ;
#778 = DIRECTION ( 'NONE',  ( -1.000000000000000000, -0.0000000000000000000, 1.110223024625156540E-16 ) ) ;
#779 = DIRECTION ( 'NONE',  ( 1.000000000000000000, 0.0000000000000000000, 0.0000000000000000000 ) ) ;
#780 = AXIS2_PLACEMENT_3D ( 'NONE', #514, #682, #252 ) ;
#781 = ORIENTED_EDGE ( 'NONE', *, *, #191, .F. ) ;
#782 = EDGE_LOOP ( 'NONE', ( #713, #747, #595 ) ) ;
#783 = PRESENTATION_STYLE_ASSIGNMENT (( #808 ) ) ;
#784 = EDGE_CURVE ( 'NONE', #1078, #539, #1107, .T. ) ;
#785 = CARTESIAN_POINT ( 'NONE',  ( -25.00000000000003197, -4.999999999999984901, -325.0000000000000000 ) ) ;
#786 = DIRECTION ( 'NONE',  ( 1.000000000000000000, 0.0000000000000000000, 0.0000000000000000000 ) ) ;
#787 = AXIS2_PLACEMENT_3D ( 'NONE', #703, #353, #51 ) ;
#788 = FILL_AREA_STYLE_COLOUR ( '', #1058 ) ;
#789 = DIRECTION ( 'NONE',  ( 0.0000000000000000000, 0.0000000000000000000, 1.000000000000000000 ) ) ;
#790 = UNCERTAINTY_MEASURE_WITH_UNIT (LENGTH_MEASURE( 1.000000000000000082E-05 ), #922, 'distance_accuracy_value', 'NONE');
#791 = AXIS2_PLACEMENT_3D ( 'NONE', #1030, #314, #774 ) ;
#792 = DIRECTION ( 'NONE',  ( -1.000000000000000000, -0.0000000000000000000, 1.110223024625156540E-16 ) ) ;
#793 = ORIENTED_EDGE ( 'NONE', *, *, #416, .T. ) ;
#794 = ORIENTED_EDGE ( 'NONE', *, *, #1094, .F. ) ;
#795 = DIRECTION ( 'NONE',  ( -0.5150380749100575972, 1.049727191138616354E-16, -0.8571673007021103352 ) ) ;
#796 = ORIENTED_EDGE ( 'NONE', *, *, #1155, .F. ) ;
#797 = FACE_OUTER_BOUND ( 'NONE', #909, .T. ) ;
#798 = COLOUR_RGB ( '',0.8980392156862745390, 0.9176470588235293713, 0.9294117647058823817 ) ;
#799 = CARTESIAN_POINT ( 'NONE',  ( 47.50000000000003553, -6.000000000000000000, 347.5000000000000000 ) ) ;
#800 = VECTOR ( 'NONE', #133, 999.9999999999998863 ) ;
#801 = AXIS2_PLACEMENT_3D ( 'NONE', #1126, #30, #777 ) ;
#802 = CARTESIAN_POINT ( 'NONE',  ( 39.00000000000002132, 0.0000000000000000000, 347.5000000000000000 ) ) ;
#803 = CARTESIAN_POINT ( 'NONE',  ( 41.50000000000000711, 0.0000000000000000000, 347.5000000000000000 ) ) ;
#804 = DIRECTION ( 'NONE',  ( -0.5150380749100575972, 1.049727191138616354E-16, -0.8571673007021103352 ) ) ;
#805 = ADVANCED_FACE ( 'NONE', ( #911 ), #1121, .F. ) ;
#806 = SURFACE_STYLE_USAGE ( .BOTH. , #995 ) ;
#807 = ORIENTED_EDGE ( 'NONE', *, *, #144, .F. ) ;
#808 = SURFACE_STYLE_USAGE ( .BOTH. , #1170 ) ;
#809 = ORIENTED_EDGE ( 'NONE', *, *, #250, .F. ) ;
#810 = ADVANCED_FACE ( 'NONE', ( #749 ), #497, .F. ) ;
#811 = VERTEX_POINT ( 'NONE', #841 ) ;
#812 = CARTESIAN_POINT ( 'NONE',  ( -22.49999999999996447, 0.0000000000000000000, 317.5000000000000000 ) ) ;
#813 = CIRCLE ( 'NONE', #555, 2.500000000000002220 ) ;
#814 = LINE ( 'NONE', #962, #897 ) ;
#815 = EDGE_CURVE ( 'NONE', #923, #730, #96, .T. ) ;
#816 = CYLINDRICAL_SURFACE ( 'NONE', #639, 2.500000000000002220 ) ;
#817 =( NAMED_UNIT ( * ) SI_UNIT ( $, .STERADIAN. ) SOLID_ANGLE_UNIT ( ) );
#818 = ADVANCED_FACE ( 'NONE', ( #409 ), #98, .F. ) ;
#819 = CARTESIAN_POINT ( 'NONE',  ( -47.50000000000002132, 0.0000000000000000000, -160.0000000000000000 ) ) ;
#820 = CARTESIAN_POINT ( 'NONE',  ( -47.50000000000002132, 0.0000000000000000000, -162.5000000000000000 ) ) ;
#821 = EDGE_CURVE ( 'NONE', #444, #119, #246, .T. ) ;
#822 = ORIENTED_EDGE ( 'NONE', *, *, #937, .F. ) ;
#823 = DIRECTION ( 'NONE',  ( -0.0000000000000000000, -0.0000000000000000000, 1.000000000000000000 ) ) ;
#824 = ADVANCED_FACE ( 'NONE', ( #447 ), #227, .F. ) ;
#825 = STYLED_ITEM ( 'NONE', ( #572 ), #741 ) ;
#826 = EDGE_LOOP ( 'NONE', ( #570, #72, #1051 ) ) ;
#827 = SURFACE_SIDE_STYLE ('',( #619 ) ) ;
#828 = CIRCLE ( 'NONE', #180, 2.499999999999995115 ) ;
#829 = ORIENTED_EDGE ( 'NONE', *, *, #974, .F. ) ;
#830 = CYLINDRICAL_SURFACE ( 'NONE', #278, 2.500000000000002220 ) ;
#831 = VECTOR ( 'NONE', #279, 1000.000000000000000 ) ;
#832 = LINE ( 'NONE', #33, #355 ) ;
#833 = ADVANCED_FACE ( 'NONE', ( #29 ), #465, .F. ) ;
#834 = AXIS2_PLACEMENT_3D ( 'NONE', #1062, #1139, #610 ) ;
#835 = CARTESIAN_POINT ( 'NONE',  ( 39.00000000000002132, 0.0000000000000000000, 347.5000000000000000 ) ) ;
#836 = CARTESIAN_POINT ( 'NONE',  ( -22.50000000000002132, 0.0000000000000000000, -160.0000000000000000 ) ) ;
#837 = ORIENTED_EDGE ( 'NONE', *, *, #974, .T. ) ;
#838 = AXIS2_PLACEMENT_3D ( 'NONE', #820, #1184, #576 ) ;
#839 = VERTEX_POINT ( 'NONE', #1125 ) ;
#840 = ORIENTED_EDGE ( 'NONE', *, *, #1098, .F. ) ;
#841 = CARTESIAN_POINT ( 'NONE',  ( -33.49999999999997868, 0.0000000000000000000, 322.4999999999999432 ) ) ;
#842 =( NAMED_UNIT ( * ) SI_UNIT ( $, .STERADIAN. ) SOLID_ANGLE_UNIT ( ) );
#843 = FACE_OUTER_BOUND ( 'NONE', #41, .T. ) ;
#844 = EDGE_CURVE ( 'NONE', #539, #134, #337, .T. ) ;
#845 = DIRECTION ( 'NONE',  ( 0.0000000000000000000, 0.0000000000000000000, 1.000000000000000000 ) ) ;
#846 = DIRECTION ( 'NONE',  ( -0.0000000000000000000, -0.0000000000000000000, -1.000000000000000000 ) ) ;
#847 = ORIENTED_EDGE ( 'NONE', *, *, #383, .F. ) ;
#848 = DIRECTION ( 'NONE',  ( 0.0000000000000000000, 0.0000000000000000000, 1.000000000000000000 ) ) ;
#849 = AXIS2_PLACEMENT_3D ( 'NONE', #439, #792, #524 ) ;
#850 = ORIENTED_EDGE ( 'NONE', *, *, #250, .T. ) ;
#851 = VECTOR ( 'NONE', #706, 1000.000000000000000 ) ;
#852 = EDGE_LOOP ( 'NONE', ( #163, #731, #257, #807 ) ) ;
#853 = SURFACE_STYLE_USAGE ( .BOTH. , #759 ) ;
#854 = DIRECTION ( 'NONE',  ( 1.000000000000000000, 0.0000000000000000000, 0.0000000000000000000 ) ) ;
#855 = SURFACE_STYLE_FILL_AREA ( #1047 ) ;
#856 = UNCERTAINTY_MEASURE_WITH_UNIT (LENGTH_MEASURE( 1.000000000000000082E-05 ), #971, 'distance_accuracy_value', 'NONE');
#857 = FILL_AREA_STYLE ('',( #420 ) ) ;
#858 = AXIS2_PLACEMENT_3D ( 'NONE', #894, #548, #553 ) ;
#859 = SURFACE_SIDE_STYLE ('',( #1134 ) ) ;
#860 = ORIENTED_EDGE ( 'NONE', *, *, #317, .T. ) ;
#861 = ORIENTED_EDGE ( 'NONE', *, *, #815, .T. ) ;
#862 = VERTEX_POINT ( 'NONE', #504 ) ;
#863 = CARTESIAN_POINT ( 'NONE',  ( -38.49999999999996447, 3.061616997868372787E-16, 347.5000000000000000 ) ) ;
#864 = AXIS2_PLACEMENT_3D ( 'NONE', #1113, #670, #593 ) ;
#865 = LINE ( 'NONE', #312, #943 ) ;
#866 = LINE ( 'NONE', #890, #243 ) ;
#867 = CARTESIAN_POINT ( 'NONE',  ( 47.50000000000003553, 6.000000000000000000, 327.4999999999999432 ) ) ;
#868 = FACE_OUTER_BOUND ( 'NONE', #623, .T. ) ;
#869 = DIRECTION ( 'NONE',  ( 0.0000000000000000000, 0.0000000000000000000, 1.000000000000000000 ) ) ;
#870 = AXIS2_PLACEMENT_3D ( 'NONE', #740, #84, #2 ) ;
#871 = DIRECTION ( 'NONE',  ( 0.0000000000000000000, 0.0000000000000000000, 1.000000000000000000 ) ) ;
#872 = AXIS2_PLACEMENT_3D ( 'NONE', #1075, #642, #263 ) ;
#873 = DIRECTION ( 'NONE',  ( 0.0000000000000000000, 0.0000000000000000000, 1.000000000000000000 ) ) ;
#874 =( NAMED_UNIT ( * ) PLANE_ANGLE_UNIT ( ) SI_UNIT ( $, .RADIAN. ) );
#875 = ORIENTED_EDGE ( 'NONE', *, *, #489, .F. ) ;
#876 = EDGE_LOOP ( 'NONE', ( #135, #567 ) ) ;
#877 = EDGE_CURVE ( 'NONE', #839, #755, #76, .T. ) ;
#878 = CARTESIAN_POINT ( 'NONE',  ( -20.99784845243107156, -6.491155012649665907E-15, 157.5000000000000000 ) ) ;
#879 = VECTOR ( 'NONE', #332, 1000.000000000000000 ) ;
#880 = CARTESIAN_POINT ( 'NONE',  ( -36.45042793126381753, 6.000000000000000000, -347.5000000000000000 ) ) ;
#881 = AXIS2_PLACEMENT_3D ( 'NONE', #1120, #111, #5 ) ;
#882 = LINE ( 'NONE', #967, #966 ) ;
#883 = CARTESIAN_POINT ( 'NONE',  ( 47.50000000000003553, 6.000000000000000000, 347.5000000000000000 ) ) ;
#884 = MECHANICAL_DESIGN_GEOMETRIC_PRESENTATION_REPRESENTATION (  '', ( #751 ), #1128 ) ;
#885 = CARTESIAN_POINT ( 'NONE',  ( -47.50000000000002132, 0.0000000000000000000, -162.5000000000000000 ) ) ;
#886 = ORIENTED_EDGE ( 'NONE', *, *, #399, .T. ) ;
#887 = MANIFOLD_SOLID_BREP ( 'Verrundung1', #185 ) ;
#888 = ORIENTED_EDGE ( 'NONE', *, *, #763, .T. ) ;
#889 = ORIENTED_EDGE ( 'NONE', *, *, #1138, .T. ) ;
#890 = CARTESIAN_POINT ( 'NONE',  ( -47.50000000000002132, 3.061616997868373773E-16, -165.0000000000000000 ) ) ;
#891 = ORIENTED_EDGE ( 'NONE', *, *, #453, .T. ) ;
#892 = CIRCLE ( 'NONE', #978, 2.499999999999995115 ) ;
#893 = PRESENTATION_LAYER_ASSIGNMENT (  '', '', ( #473 ) ) ;
#894 = CARTESIAN_POINT ( 'NONE',  ( -47.50000000000003553, 0.0000000000000000000, -322.5000000000000000 ) ) ;
#895 = VECTOR ( 'NONE', #736, 1000.000000000000000 ) ;
#896 = CARTESIAN_POINT ( 'NONE',  ( -36.45042793126381753, 6.000000000000000000, -347.5000000000000000 ) ) ;
#897 = VECTOR ( 'NONE', #261, 1000.000000000000000 ) ;
#898 = AXIS2_PLACEMENT_3D ( 'NONE', #632, #258, #709 ) ;
#899 = CARTESIAN_POINT ( 'NONE',  ( 0.0000000000000000000, 0.0000000000000000000, 0.0000000000000000000 ) ) ;
#900 = DIRECTION ( 'NONE',  ( 0.0000000000000000000, 0.0000000000000000000, 1.000000000000000000 ) ) ;
#901 = EDGE_CURVE ( 'NONE', #811, #773, #151, .T. ) ;
#902 = SURFACE_SIDE_STYLE ('',( #445 ) ) ;
#903 = ADVANCED_FACE ( 'NONE', ( #15 ), #1141, .T. ) ;
#904 = AXIS2_PLACEMENT_3D ( 'NONE', #385, #577, #1006 ) ;
#905 = DIRECTION ( 'NONE',  ( 0.0000000000000000000, 0.0000000000000000000, 1.000000000000000000 ) ) ;
#906 = EDGE_LOOP ( 'NONE', ( #1157, #394, #1105, #769 ) ) ;
#907 = CARTESIAN_POINT ( 'NONE',  ( -22.50000000000002132, 3.061616997868377718E-16, -165.0000000000000000 ) ) ;
#908 = ORIENTED_EDGE ( 'NONE', *, *, #101, .F. ) ;
#909 = EDGE_LOOP ( 'NONE', ( #429, #1118, #991 ) ) ;
#910 = PLANE ( 'NONE',  #881 ) ;
#911 = FACE_OUTER_BOUND ( 'NONE', #581, .T. ) ;
#912 = ADVANCED_FACE ( 'NONE', ( #496 ), #571, .F. ) ;
#913 = CIRCLE ( 'NONE', #1167, 2.500000000000002220 ) ;
#914 = EDGE_CURVE ( 'NONE', #730, #923, #732, .T. ) ;
#915 = PRODUCT_CONTEXT ( 'NONE', #651, 'mechanical' ) ;
#916 = PRESENTATION_STYLE_ASSIGNMENT (( #326 ) ) ;
#917 = DIRECTION ( 'NONE',  ( 1.000000000000000000, 0.0000000000000000000, 0.0000000000000000000 ) ) ;
#918 = DIRECTION ( 'NONE',  ( 0.0000000000000000000, 0.0000000000000000000, 1.000000000000000000 ) ) ;
#919 = DIRECTION ( 'NONE',  ( -0.9938837346736190126, 0.0000000000000000000, 0.1104315260748466587 ) ) ;
#920 = CARTESIAN_POINT ( 'NONE',  ( -38.49999999999996447, 3.061616997868372787E-16, 347.5000000000000000 ) ) ;
#921 = EDGE_CURVE ( 'NONE', #659, #271, #351, .T. ) ;
#922 =( LENGTH_UNIT ( ) NAMED_UNIT ( * ) SI_UNIT ( .MILLI., .METRE. ) );
#923 = VERTEX_POINT ( 'NONE', #1131 ) ;
#924 = DIRECTION ( 'NONE',  ( -1.000000000000000000, -0.0000000000000000000, 1.110223024625156540E-16 ) ) ;
#925 = ORIENTED_EDGE ( 'NONE', *, *, #106, .T. ) ;
#926 = CARTESIAN_POINT ( 'NONE',  ( 41.50000000000000711, 0.0000000000000000000, 347.5000000000000000 ) ) ;
#927 = ORIENTED_EDGE ( 'NONE', *, *, #14, .T. ) ;
#928 = FACE_OUTER_BOUND ( 'NONE', #625, .T. ) ;
#929 = FILL_AREA_STYLE_COLOUR ( '', #798 ) ;
#930 = FACE_OUTER_BOUND ( 'NONE', #494, .T. ) ;
#931 = DIRECTION ( 'NONE',  ( 0.0000000000000000000, 0.0000000000000000000, 1.000000000000000000 ) ) ;
#932 = FACE_OUTER_BOUND ( 'NONE', #782, .T. ) ;
#933 = AXIS2_PLACEMENT_3D ( 'NONE', #754, #1022, #20 ) ;
#934 = CARTESIAN_POINT ( 'NONE',  ( -22.50000000000000000, 3.061616997868377718E-16, -4.999999999999995559 ) ) ;
#935 =( NAMED_UNIT ( * ) SI_UNIT ( $, .STERADIAN. ) SOLID_ANGLE_UNIT ( ) );
#936 = VECTOR ( 'NONE', #712, 1000.000000000000000 ) ;
#937 = EDGE_CURVE ( 'NONE', #648, #770, #94, .T. ) ;
#938 = EDGE_LOOP ( 'NONE', ( #796, #1191, #1192, #377 ) ) ;
#939 = AXIS2_PLACEMENT_3D ( 'NONE', #85, #361, #722 ) ;
#940 = ORIENTED_EDGE ( 'NONE', *, *, #705, .F. ) ;
#941 = FILL_AREA_STYLE ('',( #204 ) ) ;
#942 = VECTOR ( 'NONE', #164, 1000.000000000000000 ) ;
#943 = VECTOR ( 'NONE', #299, 1000.000000000000000 ) ;
#944 = LINE ( 'NONE', #948, #170 ) ;
#945 =( LENGTH_UNIT ( ) NAMED_UNIT ( * ) SI_UNIT ( .MILLI., .METRE. ) );
#946 = DIRECTION ( 'NONE',  ( -1.000000000000000000, -0.0000000000000000000, 1.110223024625156540E-16 ) ) ;
#947 = CARTESIAN_POINT ( 'NONE',  ( -47.50000000000003553, 0.0000000000000000000, -322.5000000000000000 ) ) ;
#948 = CARTESIAN_POINT ( 'NONE',  ( 47.50000000000003553, -6.000000000000000000, 347.5000000000000000 ) ) ;
#949 = SURFACE_STYLE_FILL_AREA ( #89 ) ;
#950 = ORIENTED_EDGE ( 'NONE', *, *, #275, .T. ) ;
#951 = MECHANICAL_DESIGN_GEOMETRIC_PRESENTATION_REPRESENTATION (  '', ( #775 ), #1009 ) ;
#952 = VERTEX_POINT ( 'NONE', #878 ) ;
#953 = CARTESIAN_POINT ( 'NONE',  ( -24.44444444444447129, 0.0000000000000000000, -320.0000000000000000 ) ) ;
#954 = FACE_OUTER_BOUND ( 'NONE', #495, .T. ) ;
#955 = VECTOR ( 'NONE', #580, 1000.000000000000000 ) ;
#956 = AXIS2_PLACEMENT_3D ( 'NONE', #802, #650, #561 ) ;
#957 =( LENGTH_UNIT ( ) NAMED_UNIT ( * ) SI_UNIT ( .MILLI., .METRE. ) );
#958 = DIRECTION ( 'NONE',  ( 0.0000000000000000000, -1.000000000000000000, 0.0000000000000000000 ) ) ;
#959 = ORIENTED_EDGE ( 'NONE', *, *, #717, .F. ) ;
#960 = EDGE_CURVE ( 'NONE', #350, #1127, #1038, .T. ) ;
#961 = ORIENTED_EDGE ( 'NONE', *, *, #901, .F. ) ;
#962 = CARTESIAN_POINT ( 'NONE',  ( 47.50000000000003553, 6.000000000000000000, 347.5000000000000000 ) ) ;
#963 =( BOUNDED_CURVE ( )  B_SPLINE_CURVE ( 3, ( #148, #1059, #61, #156 ),
 .UNSPECIFIED., .F., .F. ) 
 B_SPLINE_CURVE_WITH_KNOTS ( ( 4, 4 ),
 ( 3.141592653589793116, 6.283185307179586232 ),
 .UNSPECIFIED. ) 
 CURVE ( )  GEOMETRIC_REPRESENTATION_ITEM ( )  RATIONAL_B_SPLINE_CURVE ( ( 1.000000000000000000, 0.3333333333333333703, 0.3333333333333333703, 1.000000000000000000 ) ) 
 REPRESENTATION_ITEM ( '' )  );
#964 = CONICAL_SURFACE ( 'NONE', #1193, 2.500000000000002220, 1.029744258676650759 ) ;
#965 = DIRECTION ( 'NONE',  ( -0.8571673007021134438, 1.049727191138620051E-16, 0.5150380749100522682 ) ) ;
#966 = VECTOR ( 'NONE', #436, 1000.000000000000000 ) ;
#967 = CARTESIAN_POINT ( 'NONE',  ( -22.50000000000000000, 0.0000000000000000000, -4.336808689942017736E-15 ) ) ;
#968 = DIRECTION ( 'NONE',  ( 0.0000000000000000000, 0.0000000000000000000, 1.000000000000000000 ) ) ;
#969 = STYLED_ITEM ( 'NONE', ( #916 ), #192 ) ;
#970 = FACE_OUTER_BOUND ( 'NONE', #56, .T. ) ;
#971 =( LENGTH_UNIT ( ) NAMED_UNIT ( * ) SI_UNIT ( .MILLI., .METRE. ) );
#972 = EDGE_LOOP ( 'NONE', ( #510, #829 ) ) ;
#973 = ORIENTED_EDGE ( 'NONE', *, *, #506, .T. ) ;
#974 = EDGE_CURVE ( 'NONE', #700, #1116, #1146, .T. ) ;
#975 = CARTESIAN_POINT ( 'NONE',  ( -22.49999999999997868, 0.0000000000000000000, 160.0000000000000000 ) ) ;
#976 = ORIENTED_EDGE ( 'NONE', *, *, #1024, .T. ) ;
#977 = CARTESIAN_POINT ( 'NONE',  ( -20.99784845243109288, -6.491155012649665907E-15, -2.500000000000000000 ) ) ;
#978 = AXIS2_PLACEMENT_3D ( 'NONE', #983, #1087, #70 ) ;
#979 = CARTESIAN_POINT ( 'NONE',  ( -22.50000000000002132, 0.0000000000000000000, -162.5000000000000000 ) ) ;
#980 = CIRCLE ( 'NONE', #672, 2.500000000000002220 ) ;
#981 = VECTOR ( 'NONE', #296, 1000.000000000000000 ) ;
#982 = CARTESIAN_POINT ( 'NONE',  ( -22.49999999999996447, 0.0000000000000000000, 320.0000000000000000 ) ) ;
#983 = CARTESIAN_POINT ( 'NONE',  ( -35.99999999999997868, 0.0000000000000000000, 322.4999999999999432 ) ) ;
#984 = ADVANCED_FACE ( 'NONE', ( #797 ), #1161, .F. ) ;
#985 = PRESENTATION_LAYER_ASSIGNMENT (  '', '', ( #260 ) ) ;
#986 = CIRCLE ( 'NONE', #838, 2.500000000000002220 ) ;
#987 = DIRECTION ( 'NONE',  ( 0.0000000000000000000, -0.0000000000000000000, -1.000000000000000000 ) ) ;
#988 = ORIENTED_EDGE ( 'NONE', *, *, #122, .T. ) ;
#989 = DIRECTION ( 'NONE',  ( -0.5150380749100572642, 0.0000000000000000000, 0.8571673007021104462 ) ) ;
#990 = ORIENTED_EDGE ( 'NONE', *, *, #1185, .F. ) ;
#991 = ORIENTED_EDGE ( 'NONE', *, *, #1064, .T. ) ;
#992 = AXIS2_PLACEMENT_3D ( 'NONE', #602, #408, #854 ) ;
#993 = CARTESIAN_POINT ( 'NONE',  ( -47.49999999999997868, 0.0000000000000000000, 160.0000000000000000 ) ) ;
#994 = FACE_BOUND ( 'NONE', #876, .T. ) ;
#995 = SURFACE_SIDE_STYLE ('',( #139 ) ) ;
#996 = SURFACE_STYLE_USAGE ( .BOTH. , #902 ) ;
#997 = CARTESIAN_POINT ( 'NONE',  ( -27.50000000000002487, 6.000000000000000000, -347.5000000000000000 ) ) ;
#998 = UNCERTAINTY_MEASURE_WITH_UNIT (LENGTH_MEASURE( 1.000000000000000082E-05 ), #945, 'distance_accuracy_value', 'NONE');
#999 = SURFACE_SIDE_STYLE ('',( #949 ) ) ;
#1000 = EDGE_CURVE ( 'NONE', #1078, #442, #320, .T. ) ;
#1001 = AXIS2_PLACEMENT_3D ( 'NONE', #157, #1076, #729 ) ;
#1002 = ORIENTED_EDGE ( 'NONE', *, *, #424, .F. ) ;
#1003 = DIRECTION ( 'NONE',  ( 1.000000000000000000, 0.0000000000000000000, 0.0000000000000000000 ) ) ;
#1004 = VERTEX_POINT ( 'NONE', #438 ) ;
#1005 = ORIENTED_EDGE ( 'NONE', *, *, #612, .F. ) ;
#1006 = DIRECTION ( 'NONE',  ( 1.000000000000000000, 0.0000000000000000000, 0.0000000000000000000 ) ) ;
#1007 = DIRECTION ( 'NONE',  ( -1.000000000000000000, -0.0000000000000000000, 1.110223024625156540E-16 ) ) ;
#1008 = LINE ( 'NONE', #655, #78 ) ;
#1009 =( GEOMETRIC_REPRESENTATION_CONTEXT ( 3 ) GLOBAL_UNCERTAINTY_ASSIGNED_CONTEXT ( ( #464 ) ) GLOBAL_UNIT_ASSIGNED_CONTEXT ( ( #315, #485, #842 ) ) REPRESENTATION_CONTEXT ( 'NONE', 'WORKASPACE' ) );
#1010 = VECTOR ( 'NONE', #118, 1000.000000000000000 ) ;
#1011 = DIRECTION ( 'NONE',  ( 0.0000000000000000000, -1.000000000000000000, 0.0000000000000000000 ) ) ;
#1012 = FILL_AREA_STYLE ('',( #280 ) ) ;
#1013 =( NAMED_UNIT ( * ) SI_UNIT ( $, .STERADIAN. ) SOLID_ANGLE_UNIT ( ) );
#1014 =( NAMED_UNIT ( * ) PLANE_ANGLE_UNIT ( ) SI_UNIT ( $, .RADIAN. ) );
#1015 = EDGE_CURVE ( 'NONE', #271, #700, #461, .T. ) ;
#1016 = ORIENTED_EDGE ( 'NONE', *, *, #921, .F. ) ;
#1017 = SURFACE_SIDE_STYLE ('',( #321 ) ) ;
#1018 = EDGE_LOOP ( 'NONE', ( #62, #1103 ) ) ;
#1019 = SURFACE_SIDE_STYLE ('',( #1042 ) ) ;
#1020 = EDGE_LOOP ( 'NONE', ( #908, #889, #162, #644 ) ) ;
#1021 = VECTOR ( 'NONE', #965, 1000.000000000000000 ) ;
#1022 = DIRECTION ( 'NONE',  ( -1.000000000000000000, -0.0000000000000000000, 1.110223024625156540E-16 ) ) ;
#1023 = VECTOR ( 'NONE', #367, 1000.000000000000000 ) ;
#1024 = EDGE_CURVE ( 'NONE', #770, #648, #828, .T. ) ;
#1025 = FACE_OUTER_BOUND ( 'NONE', #336, .T. ) ;
#1026 = AXIS2_PLACEMENT_3D ( 'NONE', #448, #160, #633 ) ;
#1027 = DIRECTION ( 'NONE',  ( 0.0000000000000000000, 0.0000000000000000000, 1.000000000000000000 ) ) ;
#1028 = UNCERTAINTY_MEASURE_WITH_UNIT (LENGTH_MEASURE( 1.000000000000000082E-05 ), #486, 'distance_accuracy_value', 'NONE');
#1029 =( LENGTH_UNIT ( ) NAMED_UNIT ( * ) SI_UNIT ( .MILLI., .METRE. ) );
#1030 = CARTESIAN_POINT ( 'NONE',  ( 47.50000000000003553, 6.000000000000000000, 347.5000000000000000 ) ) ;
#1031 = PRESENTATION_STYLE_ASSIGNMENT (( #1092 ) ) ;
#1032 =( GEOMETRIC_REPRESENTATION_CONTEXT ( 3 ) GLOBAL_UNCERTAINTY_ASSIGNED_CONTEXT ( ( #1028 ) ) GLOBAL_UNIT_ASSIGNED_CONTEXT ( ( #486, #95, #182 ) ) REPRESENTATION_CONTEXT ( 'NONE', 'WORKASPACE' ) );
#1033 = ORIENTED_EDGE ( 'NONE', *, *, #31, .F. ) ;
#1034 = EDGE_LOOP ( 'NONE', ( #726, #664, #197, #75 ) ) ;
#1035 = CARTESIAN_POINT ( 'NONE',  ( 39.00000000000002132, 0.0000000000000000000, 347.5000000000000000 ) ) ;
#1036 = SHAPE_DEFINITION_REPRESENTATION ( #641, #21 ) ;
#1037 = VERTEX_POINT ( 'NONE', #803 ) ;
#1038 = CIRCLE ( 'NONE', #1186, 2.500000000000002220 ) ;
#1039 = DIRECTION ( 'NONE',  ( -0.0000000000000000000, 1.000000000000000000, -0.0000000000000000000 ) ) ;
#1040 = UNCERTAINTY_MEASURE_WITH_UNIT (LENGTH_MEASURE( 1.000000000000000082E-05 ), #519, 'distance_accuracy_value', 'NONE');
#1041 = LINE ( 'NONE', #493, #955 ) ;
#1042 = SURFACE_STYLE_FILL_AREA ( #396 ) ;
#1043 = EDGE_CURVE ( 'NONE', #119, #444, #963, .T. ) ;
#1044 = DIRECTION ( 'NONE',  ( 0.0000000000000000000, 0.0000000000000000000, 1.000000000000000000 ) ) ;
#1045 = MECHANICAL_DESIGN_GEOMETRIC_PRESENTATION_REPRESENTATION (  '', ( #1099 ), #161 ) ;
#1046 = SURFACE_STYLE_USAGE ( .BOTH. , #859 ) ;
#1047 = FILL_AREA_STYLE ('',( #24 ) ) ;
#1048 = SURFACE_SIDE_STYLE ('',( #584 ) ) ;
#1049 = ORIENTED_EDGE ( 'NONE', *, *, #1138, .F. ) ;
#1050 = STYLED_ITEM ( 'NONE', ( #704 ), #824 ) ;
#1051 = ORIENTED_EDGE ( 'NONE', *, *, #101, .T. ) ;
#1052 = ORIENTED_EDGE ( 'NONE', *, *, #562, .F. ) ;
#1053 = PRESENTATION_STYLE_ASSIGNMENT (( #996 ) ) ;
#1054 = FILL_AREA_STYLE_COLOUR ( '', #309 ) ;
#1055 = ORIENTED_EDGE ( 'NONE', *, *, #14, .F. ) ;
#1056 = PRESENTATION_STYLE_ASSIGNMENT (( #806 ) ) ;
#1057 = CARTESIAN_POINT ( 'NONE',  ( -22.50000000000002132, 3.061616997868377225E-16, -165.0000000000000000 ) ) ;
#1058 = COLOUR_RGB ( '',0.8980392156862745390, 0.9176470588235293713, 0.9294117647058823817 ) ;
#1059 = CARTESIAN_POINT ( 'NONE',  ( -24.44444444444448195, 4.999999999999984901, -320.0000000000000000 ) ) ;
#1060 = AXIS2_PLACEMENT_3D ( 'NONE', #1133, #778, #848 ) ;
#1061 = DIRECTION ( 'NONE',  ( -0.0000000000000000000, -0.0000000000000000000, 1.000000000000000000 ) ) ;
#1062 = CARTESIAN_POINT ( 'NONE',  ( -22.49999999999996447, 0.0000000000000000000, 317.5000000000000000 ) ) ;
#1063 = ORIENTED_EDGE ( 'NONE', *, *, #500, .T. ) ;
#1064 = EDGE_CURVE ( 'NONE', #104, #1178, #307, .T. ) ;
#1065 = CONICAL_SURFACE ( 'NONE', #247, 2.499999999999995115, 1.029744258676656754 ) ;
#1066 = CARTESIAN_POINT ( 'NONE',  ( -47.49999999999996447, 0.0000000000000000000, 320.0000000000000000 ) ) ;
#1067 = PRESENTATION_LAYER_ASSIGNMENT (  '', '', ( #825 ) ) ;
#1068 = PRESENTATION_STYLE_ASSIGNMENT (( #516 ) ) ;
#1069 = CARTESIAN_POINT ( 'NONE',  ( -47.49999999999996447, 0.0000000000000000000, 317.5000000000000000 ) ) ;
#1070 = LINE ( 'NONE', #660, #895 ) ;
#1071 = CARTESIAN_POINT ( 'NONE',  ( -25.00000000000002842, 3.061616997868373773E-16, -325.0000000000000000 ) ) ;
#1072 = LINE ( 'NONE', #693, #543 ) ;
#1073 = DIRECTION ( 'NONE',  ( -1.000000000000000000, -0.0000000000000000000, 1.110223024625156540E-16 ) ) ;
#1074 = AXIS2_PLACEMENT_3D ( 'NONE', #39, #426, #341 ) ;
#1075 = CARTESIAN_POINT ( 'NONE',  ( -47.50000000000002132, 0.0000000000000000000, -162.5000000000000000 ) ) ;
#1076 = DIRECTION ( 'NONE',  ( -1.000000000000000000, 0.0000000000000000000, 0.0000000000000000000 ) ) ;
#1077 = VERTEX_POINT ( 'NONE', #256 ) ;
#1078 = VERTEX_POINT ( 'NONE', #883 ) ;
#1079 = EDGE_CURVE ( 'NONE', #403, #108, #596, .T. ) ;
#1080 =( NAMED_UNIT ( * ) SI_UNIT ( $, .STERADIAN. ) SOLID_ANGLE_UNIT ( ) );
#1081 = PRESENTATION_STYLE_ASSIGNMENT (( #398 ) ) ;
#1082 =( LENGTH_UNIT ( ) NAMED_UNIT ( * ) SI_UNIT ( .MILLI., .METRE. ) );
#1083 = AXIS2_PLACEMENT_3D ( 'NONE', #899, #654, #658 ) ;
#1084 = LINE ( 'NONE', #1057, #707 ) ;
#1085 = DIRECTION ( 'NONE',  ( -0.0000000000000000000, -0.0000000000000000000, 1.000000000000000000 ) ) ;
#1086 = LINE ( 'NONE', #920, #981 ) ;
#1087 = DIRECTION ( 'NONE',  ( -0.0000000000000000000, -0.0000000000000000000, 1.000000000000000000 ) ) ;
#1088 = AXIS2_PLACEMENT_3D ( 'NONE', #621, #155, #1149 ) ;
#1089 = DIRECTION ( 'NONE',  ( 0.0000000000000000000, 0.0000000000000000000, -1.000000000000000000 ) ) ;
#1090 = ORIENTED_EDGE ( 'NONE', *, *, #1173, .T. ) ;
#1091 = ORIENTED_EDGE ( 'NONE', *, *, #300, .F. ) ;
#1092 = SURFACE_STYLE_USAGE ( .BOTH. , #999 ) ;
#1093 = ORIENTED_EDGE ( 'NONE', *, *, #489, .T. ) ;
#1094 = EDGE_CURVE ( 'NONE', #403, #458, #121, .T. ) ;
#1095 = DIRECTION ( 'NONE',  ( 0.0000000000000000000, 0.0000000000000000000, 1.000000000000000000 ) ) ;
#1096 = PRESENTATION_STYLE_ASSIGNMENT (( #57 ) ) ;
#1097 = CARTESIAN_POINT ( 'NONE',  ( 41.50000000000001421, 0.0000000000000000000, 322.4999999999999432 ) ) ;
#1098 = EDGE_CURVE ( 'NONE', #442, #134, #348, .T. ) ;
#1099 = STYLED_ITEM ( 'NONE', ( #1053 ), #1177 ) ;
#1100 = DIRECTION ( 'NONE',  ( -1.000000000000000000, -0.0000000000000000000, 1.110223024625156540E-16 ) ) ;
#1101 = FILL_AREA_STYLE ('',( #283 ) ) ;
#1102 = DIRECTION ( 'NONE',  ( -0.0000000000000000000, -0.0000000000000000000, 1.000000000000000000 ) ) ;
#1103 = ORIENTED_EDGE ( 'NONE', *, *, #1173, .F. ) ;
#1104 = ORIENTED_EDGE ( 'NONE', *, *, #1024, .F. ) ;
#1105 = ORIENTED_EDGE ( 'NONE', *, *, #629, .F. ) ;
#1106 = CARTESIAN_POINT ( 'NONE',  ( -38.49999999999997158, 3.061616997868377225E-16, 322.4999999999999432 ) ) ;
#1107 = LINE ( 'NONE', #588, #515 ) ;
#1108 = AXIS2_PLACEMENT_3D ( 'NONE', #502, #117, #306 ) ;
#1109 = CIRCLE ( 'NONE', #849, 2.500000000000002220 ) ;
#1110 = FILL_AREA_STYLE_COLOUR ( '', #467 ) ;
#1111 = CARTESIAN_POINT ( 'NONE',  ( -47.50000000000000000, 0.0000000000000000000, -2.499999999999996891 ) ) ;
#1112 = AXIS2_PLACEMENT_3D ( 'NONE', #228, #1039, #683 ) ;
#1113 = CARTESIAN_POINT ( 'NONE',  ( -27.50000000000002487, 6.000000000000000000, -347.5000000000000000 ) ) ;
#1114 = ORIENTED_EDGE ( 'NONE', *, *, #1122, .T. ) ;
#1115 = SURFACE_SIDE_STYLE ('',( #855 ) ) ;
#1116 = VERTEX_POINT ( 'NONE', #430 ) ;
#1117 = COLOUR_RGB ( '',0.7960784313725489669, 0.8235294117647058432, 0.9372549019607843146 ) ;
#1118 = ORIENTED_EDGE ( 'NONE', *, *, #569, .T. ) ;
#1119 = COLOUR_RGB ( '',0.8980392156862745390, 0.9176470588235293713, 0.9294117647058823817 ) ;
#1120 = CARTESIAN_POINT ( 'NONE',  ( -47.50000000000004263, 6.000000000000000000, -347.5000000000000000 ) ) ;
#1121 = CYLINDRICAL_SURFACE ( 'NONE', #401, 2.500000000000002220 ) ;
#1122 = EDGE_CURVE ( 'NONE', #811, #273, #405, .T. ) ;
#1123 = FACE_BOUND ( 'NONE', #745, .T. ) ;
#1124 = AXIS2_PLACEMENT_3D ( 'NONE', #251, #53, #1156 ) ;
#1125 = CARTESIAN_POINT ( 'NONE',  ( -26.51159058452762807, -6.000000000000000000, -338.6043152607484217 ) ) ;
#1126 = CARTESIAN_POINT ( 'NONE',  ( -35.99999999999997868, 0.0000000000000000000, 322.4999999999999432 ) ) ;
#1127 = VERTEX_POINT ( 'NONE', #975 ) ;
#1128 =( GEOMETRIC_REPRESENTATION_CONTEXT ( 3 ) GLOBAL_UNCERTAINTY_ASSIGNED_CONTEXT ( ( #688 ) ) GLOBAL_UNIT_ASSIGNED_CONTEXT ( ( #264, #723, #817 ) ) REPRESENTATION_CONTEXT ( 'NONE', 'WORKASPACE' ) );
#1129 = ORIENTED_EDGE ( 'NONE', *, *, #629, .T. ) ;
#1130 = VERTEX_POINT ( 'NONE', #563 ) ;
#1131 = CARTESIAN_POINT ( 'NONE',  ( -47.50000000000000000, 3.061616997868371801E-16, -4.999999999999986677 ) ) ;
#1132 = VERTEX_POINT ( 'NONE', #993 ) ;
#1133 = CARTESIAN_POINT ( 'NONE',  ( -47.50000000000003553, 0.0000000000000000000, -322.5000000000000000 ) ) ;
#1134 = SURFACE_STYLE_FILL_AREA ( #857 ) ;
#1135 = VECTOR ( 'NONE', #710, 1000.000000000000000 ) ;
#1136 = DIRECTION ( 'NONE',  ( -1.000000000000000000, -0.0000000000000000000, 1.110223024625156540E-16 ) ) ;
#1137 = SURFACE_STYLE_FILL_AREA ( #618 ) ;
#1138 = EDGE_CURVE ( 'NONE', #458, #477, #677, .T. ) ;
#1139 = DIRECTION ( 'NONE',  ( -1.000000000000000000, -0.0000000000000000000, 1.110223024625156540E-16 ) ) ;
#1140 = STYLED_ITEM ( 'NONE', ( #771 ), #21 ) ;
#1141 = PLANE ( 'NONE',  #35 ) ;
#1142 = DIRECTION ( 'NONE',  ( 0.0000000000000000000, 0.0000000000000000000, 1.000000000000000000 ) ) ;
#1143 = MECHANICAL_DESIGN_GEOMETRIC_PRESENTATION_REPRESENTATION (  '', ( #40 ), #427 ) ;
#1144 = EDGE_LOOP ( 'NONE', ( #1104, #1093, #861, #45 ) ) ;
#1145 = EDGE_LOOP ( 'NONE', ( #28, #634 ) ) ;
#1146 = CIRCLE ( 'NONE', #230, 2.500000000000002220 ) ;
#1147 = CARTESIAN_POINT ( 'NONE',  ( 39.00000000000002132, 0.0000000000000000000, 347.5000000000000000 ) ) ;
#1148 = MECHANICAL_DESIGN_GEOMETRIC_PRESENTATION_REPRESENTATION (  '', ( #202 ), #177 ) ;
#1149 = DIRECTION ( 'NONE',  ( 1.000000000000000000, 0.0000000000000000000, 0.0000000000000000000 ) ) ;
#1150 = CARTESIAN_POINT ( 'NONE',  ( -47.49999999999996447, 3.061616997868373773E-16, 315.0000000000000000 ) ) ;
#1151 = DIRECTION ( 'NONE',  ( -1.000000000000000000, -0.0000000000000000000, 1.110223024625156540E-16 ) ) ;
#1152 = CARTESIAN_POINT ( 'NONE',  ( -22.49999999999997868, 0.0000000000000000000, 160.0000000000000000 ) ) ;
#1153 = CYLINDRICAL_SURFACE ( 'NONE', #870, 2.500000000000002220 ) ;
#1154 = ORIENTED_EDGE ( 'NONE', *, *, #1064, .F. ) ;
#1155 = EDGE_CURVE ( 'NONE', #773, #811, #892, .T. ) ;
#1156 = DIRECTION ( 'NONE',  ( 0.0000000000000000000, 0.0000000000000000000, 1.000000000000000000 ) ) ;
#1157 = ORIENTED_EDGE ( 'NONE', *, *, #275, .F. ) ;
#1158 = FILL_AREA_STYLE_COLOUR ( '', #340 ) ;
#1159 =( GEOMETRIC_REPRESENTATION_CONTEXT ( 3 ) GLOBAL_UNCERTAINTY_ASSIGNED_CONTEXT ( ( #152 ) ) GLOBAL_UNIT_ASSIGNED_CONTEXT ( ( #691, #129, #43 ) ) REPRESENTATION_CONTEXT ( 'NONE', 'WORKASPACE' ) );
#1160 = DIRECTION ( 'NONE',  ( -1.000000000000000000, -0.0000000000000000000, 1.110223024625156540E-16 ) ) ;
#1161 = CONICAL_SURFACE ( 'NONE', #193, 2.500000000000002220, 1.029744258676650759 ) ;
#1162 =( LENGTH_UNIT ( ) NAMED_UNIT ( * ) SI_UNIT ( .MILLI., .METRE. ) );
#1163 = VECTOR ( 'NONE', #1100, 1000.000000000000000 ) ;
#1164 =( NAMED_UNIT ( * ) SI_UNIT ( $, .STERADIAN. ) SOLID_ANGLE_UNIT ( ) );
#1165 = CONICAL_SURFACE ( 'NONE', #333, 2.499999999999995115, 1.029744258676650759 ) ;
#1166 = DIRECTION ( 'NONE',  ( 0.0000000000000000000, -1.000000000000000000, 0.0000000000000000000 ) ) ;
#1167 = AXIS2_PLACEMENT_3D ( 'NONE', #142, #54, #871 ) ;
#1168 = CARTESIAN_POINT ( 'NONE',  ( -22.50000000000002132, 0.0000000000000000000, -162.5000000000000000 ) ) ;
#1169 = ADVANCED_FACE ( 'NONE', ( #928 ), #1065, .F. ) ;
#1170 = SURFACE_SIDE_STYLE ('',( #272 ) ) ;
#1171 = CONICAL_SURFACE ( 'NONE', #242, 2.500000000000002220, 1.029744258676650759 ) ;
#1172 = EDGE_LOOP ( 'NONE', ( #178, #376, #793 ) ) ;
#1173 = EDGE_CURVE ( 'NONE', #556, #1077, #92, .T. ) ;
#1174 =( LENGTH_UNIT ( ) NAMED_UNIT ( * ) SI_UNIT ( .MILLI., .METRE. ) );
#1175 = EDGE_LOOP ( 'NONE', ( #334, #318 ) ) ;
#1176 = VECTOR ( 'NONE', #343, 1000.000000000000000 ) ;
#1177 = ADVANCED_FACE ( 'NONE', ( #74 ), #665, .F. ) ;
#1178 = VERTEX_POINT ( 'NONE', #907 ) ;
#1179 = CARTESIAN_POINT ( 'NONE',  ( -36.45042793126381753, 6.000000000000000000, -337.4999999999999432 ) ) ;
#1180 =( NAMED_UNIT ( * ) SI_UNIT ( $, .STERADIAN. ) SOLID_ANGLE_UNIT ( ) );
#1181 = CARTESIAN_POINT ( 'NONE',  ( -35.99999999999997868, 0.0000000000000000000, 322.4999999999999432 ) ) ;
#1182 = CIRCLE ( 'NONE', #756, 2.499999999999995115 ) ;
#1183 = CARTESIAN_POINT ( 'NONE',  ( -47.49999999999997868, 0.0000000000000000000, 157.5000000000000000 ) ) ;
#1184 = DIRECTION ( 'NONE',  ( -1.000000000000000000, -0.0000000000000000000, 1.110223024625156540E-16 ) ) ;
#1185 = EDGE_CURVE ( 'NONE', #199, #1130, #166, .T. ) ;
#1186 = AXIS2_PLACEMENT_3D ( 'NONE', #64, #434, #349 ) ;
#1187 = CARTESIAN_POINT ( 'NONE',  ( -22.50000000000000000, 0.0000000000000000000, -4.770489558936219510E-15 ) ) ;
#1188 = ADVANCED_FACE ( 'NONE', ( #13 ), #82, .F. ) ;
#1189 = ORIENTED_EDGE ( 'NONE', *, *, #209, .T. ) ;
#1190 = DIRECTION ( 'NONE',  ( -0.5150380749100575972, 1.049727191138616354E-16, -0.8571673007021103352 ) ) ;
#1191 = ORIENTED_EDGE ( 'NONE', *, *, #154, .T. ) ;
#1192 = ORIENTED_EDGE ( 'NONE', *, *, #383, .T. ) ;
#1193 = AXIS2_PLACEMENT_3D ( 'NONE', #288, #739, #1095 ) ;
ENDSEC;
END-ISO-10303-21;
