ISO-10303-21;
HEADER;
FILE_DESCRIPTION (( 'STEP AP214' ),
    '1' );
FILE_NAME ('03_052_MH_finger.STEP',
    '2020-09-16T11:29:10',
    ( '' ),
    ( '' ),
    'SwSTEP 2.0',
    'SolidWorks 2018',
    '' );
FILE_SCHEMA (( 'AUTOMOTIVE_DESIGN' ));
ENDSEC;

DATA;
#1 = EDGE_CURVE ( 'NONE', #323, #106, #623, .T. ) ;
#2 = ORIENTED_EDGE ( 'NONE', *, *, #265, .T. ) ;
#3 = FACE_OUTER_BOUND ( 'NONE', #518, .T. ) ;
#4 = LINE ( 'NONE', #421, #467 ) ;
#5 = ORIENTED_EDGE ( 'NONE', *, *, #591, .F. ) ;
#6 = ORIENTED_EDGE ( 'NONE', *, *, #465, .F. ) ;
#7 = DIRECTION ( 'NONE',  ( -0.0000000000000000000, 1.000000000000000000, -0.0000000000000000000 ) ) ;
#8 = FACE_BOUND ( 'NONE', #418, .T. ) ;
#9 = EDGE_CURVE ( 'NONE', #572, #367, #293, .T. ) ;
#10 = CARTESIAN_POINT ( 'NONE',  ( 0.0000000000000000000, 0.0000000000000000000, 3.750000000000000000 ) ) ;
#11 = CARTESIAN_POINT ( 'NONE',  ( -16.99999999999999645, -9.000000000000001776, -2.499999999999998668 ) ) ;
#12 = DIRECTION ( 'NONE',  ( 0.0000000000000000000, 0.0000000000000000000, 1.000000000000000000 ) ) ;
#13 = CARTESIAN_POINT ( 'NONE',  ( -24.17364817766693008, -5.611419256875668893, -3.322826997828463913 ) ) ;
#14 = ORIENTED_EDGE ( 'NONE', *, *, #553, .F. ) ;
#15 = PLANE ( 'NONE',  #129 ) ;
#16 = FACE_OUTER_BOUND ( 'NONE', #50, .T. ) ;
#17 =( BOUNDED_CURVE ( )  B_SPLINE_CURVE ( 3, ( #530, #134, #236, #329 ),
 .UNSPECIFIED., .F., .F. ) 
 B_SPLINE_CURVE_WITH_KNOTS ( ( 4, 4 ),
 ( 4.886921905584120651, 6.283185307179586232 ),
 .UNSPECIFIED. ) 
 CURVE ( )  GEOMETRIC_REPRESENTATION_ITEM ( )  RATIONAL_B_SPLINE_CURVE ( ( 1.000000000000000000, 0.8440296287459849722, 0.8440296287459849722, 1.000000000000000000 ) ) 
 REPRESENTATION_ITEM ( '' )  );
#18 = EDGE_CURVE ( 'NONE', #606, #536, #513, .T. ) ;
#19 = CARTESIAN_POINT ( 'NONE',  ( 2.553830738038187131E-15, 0.0000000000000000000, -3.750000000000000000 ) ) ;
#20 = LINE ( 'NONE', #442, #392 ) ;
#21 = FACE_OUTER_BOUND ( 'NONE', #188, .T. ) ;
#22 = CARTESIAN_POINT ( 'NONE',  ( -13.24499999999999567, 0.0000000000000000000, -1.599999999999998090 ) ) ;
#23 = ORIENTED_EDGE ( 'NONE', *, *, #427, .T. ) ;
#24 = ORIENTED_EDGE ( 'NONE', *, *, #489, .F. ) ;
#25 = EDGE_CURVE ( 'NONE', #333, #309, #4, .T. ) ;
#26 = CARTESIAN_POINT ( 'NONE',  ( -13.24499999999999567, -9.000000000000001776, 0.0000000000000000000 ) ) ;
#27 = DIRECTION ( 'NONE',  ( 0.0000000000000000000, 0.0000000000000000000, 1.000000000000000000 ) ) ;
#28 = EDGE_CURVE ( 'NONE', #341, #470, #523, .T. ) ;
#29 = ORIENTED_EDGE ( 'NONE', *, *, #18, .F. ) ;
#30 = DIRECTION ( 'NONE',  ( -0.0000000000000000000, 1.000000000000000000, -0.0000000000000000000 ) ) ;
#31 = VECTOR ( 'NONE', #90, 1000.000000000000000 ) ;
#32 = ORIENTED_EDGE ( 'NONE', *, *, #83, .F. ) ;
#33 = CARTESIAN_POINT ( 'NONE',  ( 1.473158988482930396E-15, -6.700000000000001066, -3.750000000000000000 ) ) ;
#34 = ORIENTED_EDGE ( 'NONE', *, *, #9, .T. ) ;
#35 = VECTOR ( 'NONE', #75, 1000.000000000000000 ) ;
#36 = CARTESIAN_POINT ( 'NONE',  ( -2.690488904131707493, 0.0000000000000000000, -11.14205751139514966 ) ) ;
#37 =( BOUNDED_CURVE ( )  B_SPLINE_CURVE ( 3, ( #454, #486, #249, #145 ),
 .UNSPECIFIED., .F., .F. ) 
 B_SPLINE_CURVE_WITH_KNOTS ( ( 4, 4 ),
 ( 3.141592653589792672, 4.537856055185258697 ),
 .UNSPECIFIED. ) 
 CURVE ( )  GEOMETRIC_REPRESENTATION_ITEM ( )  RATIONAL_B_SPLINE_CURVE ( ( 1.000000000000000000, 0.8440296287459847502, 0.8440296287459847502, 1.000000000000000000 ) ) 
 REPRESENTATION_ITEM ( '' )  );
#38 = AXIS2_PLACEMENT_3D ( 'NONE', #237, #241, #542 ) ;
#39 = ORIENTED_EDGE ( 'NONE', *, *, #472, .T. ) ;
#40 = AXIS2_PLACEMENT_3D ( 'NONE', #264, #216, #357 ) ;
#41 = LINE ( 'NONE', #592, #86 ) ;
#42 = DIRECTION ( 'NONE',  ( 0.9270530251925513943, -0.1634644608888480566, -0.3374197067565215535 ) ) ;
#43 = ORIENTED_EDGE ( 'NONE', *, *, #28, .T. ) ;
#44 = ORIENTED_EDGE ( 'NONE', *, *, #25, .T. ) ;
#45 = CARTESIAN_POINT ( 'NONE',  ( -17.99999999999985434, -6.700000000000001066, 3.750000000000000000 ) ) ;
#46 = VECTOR ( 'NONE', #491, 1000.000000000000000 ) ;
#47 = ADVANCED_FACE ( 'NONE', ( #87 ), #275, .F. ) ;
#48 = DIRECTION ( 'NONE',  ( -1.000000000000000000, -3.854941057726238097E-16, 0.0000000000000000000 ) ) ;
#49 = CIRCLE ( 'NONE', #285, 1.599999999999998979 ) ;
#50 = EDGE_LOOP ( 'NONE', ( #14, #94, #362, #304 ) ) ;
#51 = VERTEX_POINT ( 'NONE', #233 ) ;
#52 = FILL_AREA_STYLE ('',( #198 ) ) ;
#53 = AXIS2_PLACEMENT_3D ( 'NONE', #62, #488, #301 ) ;
#54 = DIRECTION ( 'NONE',  ( 1.000000000000000000, 0.0000000000000000000, 0.0000000000000000000 ) ) ;
#55 = DIRECTION ( 'NONE',  ( -0.0000000000000000000, 1.000000000000000000, -0.0000000000000000000 ) ) ;
#56 = FACE_OUTER_BOUND ( 'NONE', #545, .T. ) ;
#57 = LINE ( 'NONE', #175, #505 ) ;
#58 = ORIENTED_EDGE ( 'NONE', *, *, #531, .T. ) ;
#59 = FACE_OUTER_BOUND ( 'NONE', #573, .T. ) ;
#60 = AXIS2_PLACEMENT_3D ( 'NONE', #138, #480, #534 ) ;
#61 = CARTESIAN_POINT ( 'NONE',  ( -5.744999999999996554, -9.000000000000001776, 0.0000000000000000000 ) ) ;
#62 = CARTESIAN_POINT ( 'NONE',  ( -1.999999999999997113, -6.700000000000001066, 2.499999999999999556 ) ) ;
#63 = EDGE_CURVE ( 'NONE', #423, #170, #214, .T. ) ;
#64 = CARTESIAN_POINT ( 'NONE',  ( -1.999999999999998668, -9.000000000000001776, -2.499999999999998668 ) ) ;
#65 = COLOUR_RGB ( '',0.6980392156862744724, 0.6980392156862744724, 0.6980392156862744724 ) ;
#66 = ORIENTED_EDGE ( 'NONE', *, *, #440, .F. ) ;
#67 = LINE ( 'NONE', #135, #76 ) ;
#68 = CARTESIAN_POINT ( 'NONE',  ( 2.553830738038187131E-15, 0.0000000000000000000, 3.750000000000000000 ) ) ;
#69 = ORIENTED_EDGE ( 'NONE', *, *, #461, .T. ) ;
#70 = PRODUCT_DEFINITION ( 'UNKNOWN', '', #148, #492 ) ;
#71 = VECTOR ( 'NONE', #354, 1000.000000000000000 ) ;
#72 = DIRECTION ( 'NONE',  ( -0.0000000000000000000, 1.000000000000000000, -0.0000000000000000000 ) ) ;
#73 = ORIENTED_EDGE ( 'NONE', *, *, #489, .T. ) ;
#74 = VECTOR ( 'NONE', #417, 1000.000000000000000 ) ;
#75 = DIRECTION ( 'NONE',  ( 3.854941057726238097E-16, -1.000000000000000000, 0.0000000000000000000 ) ) ;
#76 = VECTOR ( 'NONE', #331, 1000.000000000000000 ) ;
#77 = ORIENTED_EDGE ( 'NONE', *, *, #531, .F. ) ;
#78 = STYLED_ITEM ( 'NONE', ( #243 ), #500 ) ;
#79 = ORIENTED_EDGE ( 'NONE', *, *, #622, .F. ) ;
#80 = ORIENTED_EDGE ( 'NONE', *, *, #224, .T. ) ;
#81 = CARTESIAN_POINT ( 'NONE',  ( -13.24499999999999567, 0.0000000000000000000, 0.0000000000000000000 ) ) ;
#82 = DIRECTION ( 'NONE',  ( -1.000000000000000000, -0.0000000000000000000, -0.0000000000000000000 ) ) ;
#83 = EDGE_CURVE ( 'NONE', #598, #217, #510, .T. ) ;
#84 = DIRECTION ( 'NONE',  ( 1.000000000000000000, 0.0000000000000000000, 0.0000000000000000000 ) ) ;
#85 = CARTESIAN_POINT ( 'NONE',  ( -1.999999999999997335, -6.700000000000001066, 2.499999999999999556 ) ) ;
#86 = VECTOR ( 'NONE', #589, 1000.000000000000000 ) ;
#87 = FACE_OUTER_BOUND ( 'NONE', #462, .T. ) ;
#88 = ORIENTED_EDGE ( 'NONE', *, *, #509, .T. ) ;
#89 = CYLINDRICAL_SURFACE ( 'NONE', #363, 1.599999999999998090 ) ;
#90 = DIRECTION ( 'NONE',  ( 0.9396926207859093161, 0.0000000000000000000, 0.3420201433256661039 ) ) ;
#91 = AXIS2_PLACEMENT_3D ( 'NONE', #583, #281, #528 ) ;
#92 = CARTESIAN_POINT ( 'NONE',  ( -22.99999999999998579, 0.0000000000000000000, -3.750000000000000000 ) ) ;
#93 = VECTOR ( 'NONE', #111, 1000.000000000000000 ) ;
#94 = ORIENTED_EDGE ( 'NONE', *, *, #364, .F. ) ;
#95 =( LENGTH_UNIT ( ) NAMED_UNIT ( * ) SI_UNIT ( .MILLI., .METRE. ) );
#96 = FACE_BOUND ( 'NONE', #496, .T. ) ;
#97 = DIRECTION ( 'NONE',  ( 3.854941057726238097E-16, -1.000000000000000000, 0.0000000000000000000 ) ) ;
#98 = ADVANCED_FACE ( 'NONE', ( #387 ), #516, .T. ) ;
#99 = PLANE ( 'NONE',  #60 ) ;
#100 = EDGE_CURVE ( 'NONE', #606, #144, #431, .T. ) ;
#101 = DIRECTION ( 'NONE',  ( 0.0000000000000000000, 0.0000000000000000000, 1.000000000000000000 ) ) ;
#102 = VECTOR ( 'NONE', #315, 1000.000000000000000 ) ;
#103 =( NAMED_UNIT ( * ) SI_UNIT ( $, .STERADIAN. ) SOLID_ANGLE_UNIT ( ) );
#104 = EDGE_CURVE ( 'NONE', #401, #443, #159, .T. ) ;
#105 = ADVANCED_FACE ( 'NONE', ( #183 ), #286, .T. ) ;
#106 = VERTEX_POINT ( 'NONE', #585 ) ;
#107 = DIRECTION ( 'NONE',  ( -0.0000000000000000000, 1.000000000000000000, -0.0000000000000000000 ) ) ;
#108 = PRESENTATION_STYLE_ASSIGNMENT (( #190 ) ) ;
#109 = UNCERTAINTY_MEASURE_WITH_UNIT (LENGTH_MEASURE( 1.000000000000000082E-05 ), #439, 'distance_accuracy_value', 'NONE');
#110 =( GEOMETRIC_REPRESENTATION_CONTEXT ( 3 ) GLOBAL_UNCERTAINTY_ASSIGNED_CONTEXT ( ( #447 ) ) GLOBAL_UNIT_ASSIGNED_CONTEXT ( ( #95, #395, #128 ) ) REPRESENTATION_CONTEXT ( 'NONE', 'WORKASPACE' ) );
#111 = DIRECTION ( 'NONE',  ( 0.0000000000000000000, 0.0000000000000000000, 1.000000000000000000 ) ) ;
#112 = AXIS2_PLACEMENT_3D ( 'NONE', #349, #12, #54 ) ;
#113 = ORIENTED_EDGE ( 'NONE', *, *, #586, .T. ) ;
#114 = CARTESIAN_POINT ( 'NONE',  ( -0.0000000000000000000, -6.700000000000001066, -3.750000000000000000 ) ) ;
#115 = CARTESIAN_POINT ( 'NONE',  ( -16.99999999999999645, -6.700000000000001066, -2.499999999999998668 ) ) ;
#116 = EDGE_CURVE ( 'NONE', #423, #396, #174, .T. ) ;
#117 = DIRECTION ( 'NONE',  ( -0.0000000000000000000, 1.000000000000000000, -0.0000000000000000000 ) ) ;
#118 = CYLINDRICAL_SURFACE ( 'NONE', #560, 1.599999999999998090 ) ;
#119 = VECTOR ( 'NONE', #567, 1000.000000000000000 ) ;
#120 = CARTESIAN_POINT ( 'NONE',  ( 2.553830738038187131E-15, 0.0000000000000000000, -3.750000000000000000 ) ) ;
#121 = CARTESIAN_POINT ( 'NONE',  ( -5.744999999999996554, 1.836970198721029441E-17, 0.0000000000000000000 ) ) ;
#122 = VECTOR ( 'NONE', #539, 1000.000000000000000 ) ;
#123 = EDGE_CURVE ( 'NONE', #576, #51, #557, .T. ) ;
#124 = ORIENTED_EDGE ( 'NONE', *, *, #359, .T. ) ;
#125 = ORIENTED_EDGE ( 'NONE', *, *, #116, .T. ) ;
#126 = CARTESIAN_POINT ( 'NONE',  ( -13.24499999999999567, -9.000000000000001776, 0.0000000000000000000 ) ) ;
#127 = CARTESIAN_POINT ( 'NONE',  ( -5.744999999999996554, -9.000000000000001776, 0.0000000000000000000 ) ) ;
#128 =( NAMED_UNIT ( * ) SI_UNIT ( $, .STERADIAN. ) SOLID_ANGLE_UNIT ( ) );
#129 = AXIS2_PLACEMENT_3D ( 'NONE', #403, #213, #555 ) ;
#130 = ORIENTED_EDGE ( 'NONE', *, *, #63, .T. ) ;
#131 = DIRECTION ( 'NONE',  ( 0.0000000000000000000, 0.0000000000000000000, 1.000000000000000000 ) ) ;
#132 = ORIENTED_EDGE ( 'NONE', *, *, #524, .F. ) ;
#133 = CIRCLE ( 'NONE', #219, 1.599999999999997202 ) ;
#134 = CARTESIAN_POINT ( 'NONE',  ( -24.67364817766693008, -5.523255766521436350, -3.140841880695364186 ) ) ;
#135 = CARTESIAN_POINT ( 'NONE',  ( -1.999999999999997113, -9.000000000000001776, 2.499999999999999556 ) ) ;
#136 = AXIS2_PLACEMENT_3D ( 'NONE', #429, #579, #234 ) ;
#137 = ADVANCED_FACE ( 'NONE', ( #319 ), #99, .F. ) ;
#138 = CARTESIAN_POINT ( 'NONE',  ( -16.99999999999999645, -6.700000000000001066, 2.500000000000001332 ) ) ;
#139 = CYLINDRICAL_SURFACE ( 'NONE', #112, 1.000000000000000888 ) ;
#140 = ADVANCED_FACE ( 'NONE', ( #56 ), #385, .T. ) ;
#141 = VECTOR ( 'NONE', #328, 1000.000000000000000 ) ;
#142 = DIRECTION ( 'NONE',  ( -2.602085213965211628E-16, -0.0000000000000000000, -1.000000000000000000 ) ) ;
#143 = CARTESIAN_POINT ( 'NONE',  ( -5.744999999999996554, 1.836970198721029441E-17, 0.0000000000000000000 ) ) ;
#144 = VERTEX_POINT ( 'NONE', #430 ) ;
#145 = CARTESIAN_POINT ( 'NONE',  ( -24.17364817766693008, -5.611419256875668893, 3.322826997828463913 ) ) ;
#146 = CARTESIAN_POINT ( 'NONE',  ( -13.24499999999999567, 0.0000000000000000000, 0.0000000000000000000 ) ) ;
#147 = ORIENTED_EDGE ( 'NONE', *, *, #359, .F. ) ;
#148 = PRODUCT_DEFINITION_FORMATION_WITH_SPECIFIED_SOURCE ( 'ANY', '', #380, .NOT_KNOWN. ) ;
#149 = VECTOR ( 'NONE', #82, 1000.000000000000000 ) ;
#150 = EDGE_CURVE ( 'NONE', #443, #189, #37, .T. ) ;
#151 = FACE_BOUND ( 'NONE', #163, .T. ) ;
#152 = EDGE_CURVE ( 'NONE', #593, #419, #502, .T. ) ;
#153 = CARTESIAN_POINT ( 'NONE',  ( 2.553830738038187131E-15, 0.0000000000000000000, 3.750000000000000000 ) ) ;
#154 = ORIENTED_EDGE ( 'NONE', *, *, #100, .F. ) ;
#155 = EDGE_CURVE ( 'NONE', #593, #559, #133, .T. ) ;
#156 = VECTOR ( 'NONE', #27, 1000.000000000000000 ) ;
#157 = FACE_BOUND ( 'NONE', #613, .T. ) ;
#158 = PLANE ( 'NONE',  #40 ) ;
#159 = LINE ( 'NONE', #581, #416 ) ;
#160 = ORIENTED_EDGE ( 'NONE', *, *, #155, .F. ) ;
#161 = ORIENTED_EDGE ( 'NONE', *, *, #327, .F. ) ;
#162 = VECTOR ( 'NONE', #504, 1000.000000000000114 ) ;
#163 = EDGE_LOOP ( 'NONE', ( #258, #551 ) ) ;
#164 = DIRECTION ( 'NONE',  ( 3.854941057726238097E-16, -1.000000000000000000, 0.0000000000000000000 ) ) ;
#165 = LINE ( 'NONE', #451, #46 ) ;
#166 = CARTESIAN_POINT ( 'NONE',  ( -5.744999999999996554, 1.836970198721029441E-17, 1.599999999999998979 ) ) ;
#167 = AXIS2_PLACEMENT_3D ( 'NONE', #127, #173, #131 ) ;
#168 = UNCERTAINTY_MEASURE_WITH_UNIT (LENGTH_MEASURE( 1.000000000000000082E-05 ), #390, 'distance_accuracy_value', 'NONE');
#169 = ORIENTED_EDGE ( 'NONE', *, *, #300, .F. ) ;
#170 = VERTEX_POINT ( 'NONE', #11 ) ;
#171 = CARTESIAN_POINT ( 'NONE',  ( -22.99999999999998579, -5.818365096457670305, -3.750000000000000000 ) ) ;
#172 = ORIENTED_EDGE ( 'NONE', *, *, #265, .F. ) ;
#173 = DIRECTION ( 'NONE',  ( -0.0000000000000000000, 1.000000000000000000, -0.0000000000000000000 ) ) ;
#174 = LINE ( 'NONE', #435, #483 ) ;
#175 = CARTESIAN_POINT ( 'NONE',  ( -1.999999999999997113, -6.700000000000001066, 2.499999999999999556 ) ) ;
#176 = SURFACE_STYLE_FILL_AREA ( #52 ) ;
#177 = LINE ( 'NONE', #412, #162 ) ;
#178 = DIRECTION ( 'NONE',  ( -1.000000000000000000, -0.0000000000000000000, -0.0000000000000000000 ) ) ;
#179 = CARTESIAN_POINT ( 'NONE',  ( -5.744999999999996554, -9.000000000000001776, -1.599999999999997202 ) ) ;
#180 = ORIENTED_EDGE ( 'NONE', *, *, #150, .T. ) ;
#181 = CARTESIAN_POINT ( 'NONE',  ( 1.473158988482930396E-15, -6.700000000000001066, 3.750000000000000000 ) ) ;
#182 = ADVANCED_FACE ( 'NONE', ( #471 ), #247, .F. ) ;
#183 = FACE_OUTER_BOUND ( 'NONE', #485, .T. ) ;
#184 = DIRECTION ( 'NONE',  ( -0.0000000000000000000, -0.0000000000000000000, 1.000000000000000000 ) ) ;
#185 = APPLICATION_PROTOCOL_DEFINITION ( 'draft international standard', 'automotive_design', 1998, #248 ) ;
#186 = EDGE_CURVE ( 'NONE', #396, #576, #311, .T. ) ;
#187 = LINE ( 'NONE', #310, #93 ) ;
#188 = EDGE_LOOP ( 'NONE', ( #296, #398, #113, #449 ) ) ;
#189 = VERTEX_POINT ( 'NONE', #547 ) ;
#190 = SURFACE_STYLE_USAGE ( .BOTH. , #192 ) ;
#191 = EDGE_CURVE ( 'NONE', #217, #598, #49, .T. ) ;
#192 = SURFACE_SIDE_STYLE ('',( #176 ) ) ;
#193 = ORIENTED_EDGE ( 'NONE', *, *, #427, .F. ) ;
#194 = ADVANCED_FACE ( 'NONE', ( #16 ), #139, .T. ) ;
#195 = CIRCLE ( 'NONE', #568, 1.599999999999998979 ) ;
#196 = LINE ( 'NONE', #495, #394 ) ;
#197 = CARTESIAN_POINT ( 'NONE',  ( -25.00000000000000355, 0.0000000000000000000, -3.022059531467594429 ) ) ;
#198 = FILL_AREA_STYLE_COLOUR ( '', #588 ) ;
#199 = EDGE_CURVE ( 'NONE', #367, #401, #407, .T. ) ;
#200 = CIRCLE ( 'NONE', #434, 1.599999999999998979 ) ;
#201 = DIRECTION ( 'NONE',  ( 0.0000000000000000000, 0.0000000000000000000, 1.000000000000000000 ) ) ;
#202 = PLANE ( 'NONE',  #212 ) ;
#203 = ORIENTED_EDGE ( 'NONE', *, *, #602, .F. ) ;
#204 = ORIENTED_EDGE ( 'NONE', *, *, #327, .T. ) ;
#205 = LINE ( 'NONE', #153, #569 ) ;
#206 = DIRECTION ( 'NONE',  ( -0.0000000000000000000, 1.000000000000000000, -0.0000000000000000000 ) ) ;
#207 = VECTOR ( 'NONE', #374, 1000.000000000000000 ) ;
#208 = LINE ( 'NONE', #370, #74 ) ;
#209 = ORIENTED_EDGE ( 'NONE', *, *, #9, .F. ) ;
#210 = CARTESIAN_POINT ( 'NONE',  ( -24.17364817766693008, -5.611419256875668893, 0.0000000000000000000 ) ) ;
#211 = FACE_OUTER_BOUND ( 'NONE', #360, .T. ) ;
#212 = AXIS2_PLACEMENT_3D ( 'NONE', #10, #255, #308 ) ;
#213 = DIRECTION ( 'NONE',  ( 1.000000000000000000, -1.612942909783965170E-16, 0.0000000000000000000 ) ) ;
#214 = LINE ( 'NONE', #277, #399 ) ;
#215 = ORIENTED_EDGE ( 'NONE', *, *, #586, .F. ) ;
#216 = DIRECTION ( 'NONE',  ( -0.0000000000000000000, 0.0000000000000000000, 1.000000000000000000 ) ) ;
#217 = VERTEX_POINT ( 'NONE', #389 ) ;
#218 = DIRECTION ( 'NONE',  ( -0.0000000000000000000, 1.000000000000000000, -0.0000000000000000000 ) ) ;
#219 = AXIS2_PLACEMENT_3D ( 'NONE', #61, #206, #549 ) ;
#220 = DIRECTION ( 'NONE',  ( 0.0000000000000000000, 0.0000000000000000000, 1.000000000000000000 ) ) ;
#221 = ORIENTED_EDGE ( 'NONE', *, *, #612, .F. ) ;
#222 = LINE ( 'NONE', #426, #326 ) ;
#223 = FACE_OUTER_BOUND ( 'NONE', #352, .T. ) ;
#224 = EDGE_CURVE ( 'NONE', #144, #470, #41, .T. ) ;
#225 = VECTOR ( 'NONE', #493, 1000.000000000000000 ) ;
#226 = CARTESIAN_POINT ( 'NONE',  ( -13.24499999999999567, 1.836970198721029441E-17, -1.599999999999998757 ) ) ;
#227 = CLOSED_SHELL ( 'NONE', ( #543, #240, #105, #437, #337, #340, #238, #584, #299, #137, #182, #47, #383, #444, #477, #140, #441, #98, #194 ) ) ;
#228 = LINE ( 'NONE', #22, #119 ) ;
#229 = PRODUCT_RELATED_PRODUCT_CATEGORY ( 'part', '', ( #380 ) ) ;
#230 = DIRECTION ( 'NONE',  ( -1.000000000000000000, 0.0000000000000000000, 2.602085213965211628E-16 ) ) ;
#231 = AXIS2_PLACEMENT_3D ( 'NONE', #343, #529, #101 ) ;
#232 = DIRECTION ( 'NONE',  ( -0.0000000000000000000, 1.000000000000000000, -0.0000000000000000000 ) ) ;
#233 = CARTESIAN_POINT ( 'NONE',  ( -1.999999999999998224, -6.700000000000001066, -2.499999999999998668 ) ) ;
#234 = DIRECTION ( 'NONE',  ( 0.0000000000000000000, -0.0000000000000000000, 1.000000000000000000 ) ) ;
#235 = LINE ( 'NONE', #575, #473 ) ;
#236 = CARTESIAN_POINT ( 'NONE',  ( -25.00000000000000000, -5.134324809806334322, -3.022059531467595317 ) ) ;
#237 = CARTESIAN_POINT ( 'NONE',  ( 0.0000000000000000000, 0.0000000000000000000, 0.0000000000000000000 ) ) ;
#238 = ADVANCED_FACE ( 'NONE', ( #3 ), #202, .F. ) ;
#239 = APPLICATION_PROTOCOL_DEFINITION ( 'draft international standard', 'automotive_design', 1998, #344 ) ;
#240 = ADVANCED_FACE ( 'NONE', ( #599 ), #494, .F. ) ;
#241 = DIRECTION ( 'NONE',  ( 0.0000000000000000000, 0.0000000000000000000, 1.000000000000000000 ) ) ;
#242 = ORIENTED_EDGE ( 'NONE', *, *, #123, .T. ) ;
#243 = PRESENTATION_STYLE_ASSIGNMENT (( #295 ) ) ;
#244 = SHAPE_DEFINITION_REPRESENTATION ( #314, #548 ) ;
#245 = ORIENTED_EDGE ( 'NONE', *, *, #348, .T. ) ;
#246 =( NAMED_UNIT ( * ) PLANE_ANGLE_UNIT ( ) SI_UNIT ( $, .RADIAN. ) );
#247 = PLANE ( 'NONE',  #53 ) ;
#248 = APPLICATION_CONTEXT ( 'automotive_design' ) ;
#249 = CARTESIAN_POINT ( 'NONE',  ( -24.67364817766693008, -5.523255766521438126, 3.140841880695363741 ) ) ;
#250 = EDGE_LOOP ( 'NONE', ( #347, #446, #607, #124 ) ) ;
#251 = CARTESIAN_POINT ( 'NONE',  ( -5.744999999999996554, 0.0000000000000000000, 1.599999999999998090 ) ) ;
#252 = FACE_OUTER_BOUND ( 'NONE', #250, .T. ) ;
#253 = CARTESIAN_POINT ( 'NONE',  ( -1.999999999999997113, -6.700000000000001066, 2.499999999999999556 ) ) ;
#254 = ORIENTED_EDGE ( 'NONE', *, *, #316, .T. ) ;
#255 = DIRECTION ( 'NONE',  ( -0.0000000000000000000, 0.0000000000000000000, -1.000000000000000000 ) ) ;
#256 = CARTESIAN_POINT ( 'NONE',  ( 2.553830738038187131E-15, 0.0000000000000000000, 3.750000000000000000 ) ) ;
#257 = EDGE_CURVE ( 'NONE', #470, #572, #358, .T. ) ;
#258 = ORIENTED_EDGE ( 'NONE', *, *, #465, .T. ) ;
#259 = CARTESIAN_POINT ( 'NONE',  ( -1.999999999999997113, -9.000000000000001776, 2.500000000000000000 ) ) ;
#260 = VECTOR ( 'NONE', #538, 1000.000000000000000 ) ;
#261 = ORIENTED_EDGE ( 'NONE', *, *, #83, .T. ) ;
#262 = CARTESIAN_POINT ( 'NONE',  ( 0.0000000000000000000, 0.0000000000000000000, -3.750000000000000000 ) ) ;
#263 = LINE ( 'NONE', #618, #561 ) ;
#264 = CARTESIAN_POINT ( 'NONE',  ( -16.99999999999999645, -6.700000000000001066, -2.499999999999998668 ) ) ;
#265 = EDGE_CURVE ( 'NONE', #559, #514, #196, .T. ) ;
#266 = CARTESIAN_POINT ( 'NONE',  ( -25.00000000000000000, -4.626611503863460761, -3.022059531467594429 ) ) ;
#267 = VERTEX_POINT ( 'NONE', #19 ) ;
#268 = FACE_OUTER_BOUND ( 'NONE', #484, .T. ) ;
#269 = CARTESIAN_POINT ( 'NONE',  ( -25.00000000000000355, 0.0000000000000000000, -3.022059531467594429 ) ) ;
#270 = ORIENTED_EDGE ( 'NONE', *, *, #152, .F. ) ;
#271 = ORIENTED_EDGE ( 'NONE', *, *, #553, .T. ) ;
#272 = VECTOR ( 'NONE', #391, 1000.000000000000000 ) ;
#273 = DIRECTION ( 'NONE',  ( 0.0000000000000000000, -0.0000000000000000000, -1.000000000000000000 ) ) ;
#274 = ORIENTED_EDGE ( 'NONE', *, *, #348, .F. ) ;
#275 = PLANE ( 'NONE',  #386 ) ;
#276 = ORIENTED_EDGE ( 'NONE', *, *, #152, .T. ) ;
#277 = CARTESIAN_POINT ( 'NONE',  ( -16.99999999999999645, -6.700000000000001066, -2.499999999999998668 ) ) ;
#278 = CARTESIAN_POINT ( 'NONE',  ( -5.100942440456213589, 0.0000000000000000000, 10.26472417309133078 ) ) ;
#279 = LINE ( 'NONE', #400, #372 ) ;
#280 = DIRECTION ( 'NONE',  ( 0.0000000000000000000, 0.0000000000000000000, 1.000000000000000000 ) ) ;
#281 = DIRECTION ( 'NONE',  ( -0.1736481776669271948, -0.9848077530122086864, 0.0000000000000000000 ) ) ;
#282 = FILL_AREA_STYLE ('',( #564 ) ) ;
#283 = VECTOR ( 'NONE', #550, 1000.000000000000000 ) ;
#284 = CARTESIAN_POINT ( 'NONE',  ( -5.744999999999996554, -9.000000000000001776, 1.599999999999997202 ) ) ;
#285 = AXIS2_PLACEMENT_3D ( 'NONE', #302, #7, #201 ) ;
#286 = PLANE ( 'NONE',  #481 ) ;
#287 = CARTESIAN_POINT ( 'NONE',  ( -5.744999999999996554, 0.0000000000000000000, 0.0000000000000000000 ) ) ;
#288 = ORIENTED_EDGE ( 'NONE', *, *, #498, .T. ) ;
#289 = VERTEX_POINT ( 'NONE', #453 ) ;
#290 = ORIENTED_EDGE ( 'NONE', *, *, #509, .F. ) ;
#291 = CARTESIAN_POINT ( 'NONE',  ( -25.00000000000000355, 0.0000000000000000000, -3.750000000000000000 ) ) ;
#292 = EDGE_CURVE ( 'NONE', #144, #433, #587, .T. ) ;
#293 = LINE ( 'NONE', #36, #141 ) ;
#294 = ORIENTED_EDGE ( 'NONE', *, *, #191, .T. ) ;
#295 = SURFACE_STYLE_USAGE ( .BOTH. , #532 ) ;
#296 = ORIENTED_EDGE ( 'NONE', *, *, #393, .F. ) ;
#297 = DIRECTION ( 'NONE',  ( -0.0000000000000000000, -0.0000000000000000000, 1.000000000000000000 ) ) ;
#298 = ORIENTED_EDGE ( 'NONE', *, *, #186, .F. ) ;
#299 = ADVANCED_FACE ( 'NONE', ( #252 ), #158, .F. ) ;
#300 = EDGE_CURVE ( 'NONE', #106, #217, #279, .T. ) ;
#301 = DIRECTION ( 'NONE',  ( -1.000000000000000000, 0.0000000000000000000, 1.156482317317871478E-16 ) ) ;
#302 = CARTESIAN_POINT ( 'NONE',  ( -13.24499999999999567, 1.836970198721029441E-17, 0.0000000000000000000 ) ) ;
#303 = VECTOR ( 'NONE', #490, 1000.000000000000000 ) ;
#304 = ORIENTED_EDGE ( 'NONE', *, *, #104, .F. ) ;
#305 = AXIS2_PLACEMENT_3D ( 'NONE', #262, #596, #361 ) ;
#306 = EDGE_LOOP ( 'NONE', ( #29, #601, #616, #456 ) ) ;
#307 = ORIENTED_EDGE ( 'NONE', *, *, #440, .T. ) ;
#308 = DIRECTION ( 'NONE',  ( -1.000000000000000000, 0.0000000000000000000, 0.0000000000000000000 ) ) ;
#309 = VERTEX_POINT ( 'NONE', #64 ) ;
#310 = CARTESIAN_POINT ( 'NONE',  ( -25.00000000000000355, 0.0000000000000000000, -3.750000000000000000 ) ) ;
#311 = LINE ( 'NONE', #253, #303 ) ;
#312 = MECHANICAL_DESIGN_GEOMETRIC_PRESENTATION_REPRESENTATION (  '', ( #78 ), #110 ) ;
#313 = ORIENTED_EDGE ( 'NONE', *, *, #25, .F. ) ;
#314 = PRODUCT_DEFINITION_SHAPE ( 'NONE', 'NONE',  #70 ) ;
#315 = DIRECTION ( 'NONE',  ( 1.612942909783965170E-16, 1.000000000000000000, -0.0000000000000000000 ) ) ;
#316 = EDGE_CURVE ( 'NONE', #536, #332, #521, .T. ) ;
#317 = EDGE_LOOP ( 'NONE', ( #603, #32 ) ) ;
#318 = CARTESIAN_POINT ( 'NONE',  ( -13.24499999999999567, -9.000000000000001776, -1.599999999999997202 ) ) ;
#319 = FACE_OUTER_BOUND ( 'NONE', #475, .T. ) ;
#320 = DIRECTION ( 'NONE',  ( 0.0000000000000000000, 0.0000000000000000000, 1.000000000000000000 ) ) ;
#321 = EDGE_LOOP ( 'NONE', ( #540, #23, #261, #169 ) ) ;
#322 = DIRECTION ( 'NONE',  ( -0.0000000000000000000, 1.000000000000000000, -0.0000000000000000000 ) ) ;
#323 = VERTEX_POINT ( 'NONE', #318 ) ;
#324 = CYLINDRICAL_SURFACE ( 'NONE', #413, 1.599999999999998090 ) ;
#325 = CARTESIAN_POINT ( 'NONE',  ( -25.00000000000000355, 0.0000000000000000000, -3.022059531467594429 ) ) ;
#326 = VECTOR ( 'NONE', #178, 1000.000000000000000 ) ;
#327 = EDGE_CURVE ( 'NONE', #367, #554, #187, .T. ) ;
#328 = DIRECTION ( 'NONE',  ( -0.9396926207859093161, 0.0000000000000000000, 0.3420201433256661039 ) ) ;
#329 = CARTESIAN_POINT ( 'NONE',  ( -25.00000000000000000, -4.626611503863460761, -3.022059531467594429 ) ) ;
#330 = VECTOR ( 'NONE', #142, 1000.000000000000000 ) ;
#331 = DIRECTION ( 'NONE',  ( 1.000000000000000000, -0.0000000000000000000, -1.156482317317871478E-16 ) ) ;
#332 = VERTEX_POINT ( 'NONE', #68 ) ;
#333 = VERTEX_POINT ( 'NONE', #259 ) ;
#334 = FACE_OUTER_BOUND ( 'NONE', #457, .T. ) ;
#335 = FACE_OUTER_BOUND ( 'NONE', #375, .T. ) ;
#336 = DIRECTION ( 'NONE',  ( -1.000000000000000000, 0.0000000000000000000, 0.0000000000000000000 ) ) ;
#337 = ADVANCED_FACE ( 'NONE', ( #21 ), #15, .T. ) ;
#338 = DIRECTION ( 'NONE',  ( 0.0000000000000000000, 0.0000000000000000000, 1.000000000000000000 ) ) ;
#339 = CARTESIAN_POINT ( 'NONE',  ( -1.999999999999998224, -6.700000000000001066, -2.499999999999998668 ) ) ;
#340 = ADVANCED_FACE ( 'NONE', ( #466 ), #499, .T. ) ;
#341 = VERTEX_POINT ( 'NONE', #13 ) ;
#342 = PRESENTATION_LAYER_ASSIGNMENT (  '', '', ( #469 ) ) ;
#343 = CARTESIAN_POINT ( 'NONE',  ( -13.24499999999999567, 1.836970198721029441E-17, 0.0000000000000000000 ) ) ;
#344 = APPLICATION_CONTEXT ( 'automotive_design' ) ;
#345 =( NAMED_UNIT ( * ) PLANE_ANGLE_UNIT ( ) SI_UNIT ( $, .RADIAN. ) );
#346 = ORIENTED_EDGE ( 'NONE', *, *, #597, .F. ) ;
#347 = ORIENTED_EDGE ( 'NONE', *, *, #594, .T. ) ;
#348 = EDGE_CURVE ( 'NONE', #332, #508, #205, .T. ) ;
#349 = CARTESIAN_POINT ( 'NONE',  ( -24.00000000000000000, -4.626611503863460761, -3.750000000000000000 ) ) ;
#350 = ORIENTED_EDGE ( 'NONE', *, *, #199, .F. ) ;
#351 = ORIENTED_EDGE ( 'NONE', *, *, #472, .F. ) ;
#352 = EDGE_LOOP ( 'NONE', ( #582, #34, #204, #408, #274, #215 ) ) ;
#353 = LINE ( 'NONE', #377, #565 ) ;
#354 = DIRECTION ( 'NONE',  ( 1.000000000000000000, 0.0000000000000000000, 0.0000000000000000000 ) ) ;
#355 = AXIS2_PLACEMENT_3D ( 'NONE', #126, #376, #280 ) ;
#356 = DIRECTION ( 'NONE',  ( -1.000000000000000000, 0.0000000000000000000, 0.0000000000000000000 ) ) ;
#357 = DIRECTION ( 'NONE',  ( 1.000000000000000000, 0.0000000000000000000, 0.0000000000000000000 ) ) ;
#358 = LINE ( 'NONE', #600, #225 ) ;
#359 = EDGE_CURVE ( 'NONE', #51, #309, #165, .T. ) ;
#360 = EDGE_LOOP ( 'NONE', ( #5, #2, #69, #270 ) ) ;
#361 = DIRECTION ( 'NONE',  ( -1.000000000000000000, 0.0000000000000000000, 0.0000000000000000000 ) ) ;
#362 = ORIENTED_EDGE ( 'NONE', *, *, #150, .F. ) ;
#363 = AXIS2_PLACEMENT_3D ( 'NONE', #81, #218, #420 ) ;
#364 = EDGE_CURVE ( 'NONE', #189, #341, #574, .T. ) ;
#365 = ORIENTED_EDGE ( 'NONE', *, *, #461, .F. ) ;
#366 = CARTESIAN_POINT ( 'NONE',  ( -22.99999999999998224, -5.465711135040741908, 3.750000000000000000 ) ) ;
#367 = VERTEX_POINT ( 'NONE', #269 ) ;
#368 = PLANE ( 'NONE',  #520 ) ;
#369 = CARTESIAN_POINT ( 'NONE',  ( -16.99999999999999645, -6.700000000000001066, 2.500000000000001332 ) ) ;
#370 = CARTESIAN_POINT ( 'NONE',  ( -25.00000000000000355, -2.888894916580853780E-31, 3.022059531467594429 ) ) ;
#371 = MECHANICAL_DESIGN_GEOMETRIC_PRESENTATION_REPRESENTATION (  '', ( #469 ), #404 ) ;
#372 = VECTOR ( 'NONE', #460, 1000.000000000000000 ) ;
#373 = CARTESIAN_POINT ( 'NONE',  ( 0.0000000000000000000, -6.700000000000001066, 3.750000000000000000 ) ) ;
#374 = DIRECTION ( 'NONE',  ( 0.9848077530122086864, -0.1736481776669271948, 0.0000000000000000000 ) ) ;
#375 = EDGE_LOOP ( 'NONE', ( #541, #313, #290, #221 ) ) ;
#376 = DIRECTION ( 'NONE',  ( -0.0000000000000000000, 1.000000000000000000, -0.0000000000000000000 ) ) ;
#377 = CARTESIAN_POINT ( 'NONE',  ( -16.99999999999999645, -9.000000000000001776, 2.500000000000001332 ) ) ;
#378 = ORIENTED_EDGE ( 'NONE', *, *, #104, .T. ) ;
#379 = PLANE ( 'NONE',  #136 ) ;
#380 = PRODUCT ( '03_052_MH_finger', '03_052_MH_finger', '', ( #590 ) ) ;
#381 = DIRECTION ( 'NONE',  ( 0.0000000000000000000, -1.000000000000000000, 0.0000000000000000000 ) ) ;
#382 = AXIS2_PLACEMENT_3D ( 'NONE', #325, #507, #164 ) ;
#383 = ADVANCED_FACE ( 'NONE', ( #157, #151, #335 ), #463, .T. ) ;
#384 = DIRECTION ( 'NONE',  ( 0.0000000000000000000, 0.0000000000000000000, 1.000000000000000000 ) ) ;
#385 = PLANE ( 'NONE',  #91 ) ;
#386 = AXIS2_PLACEMENT_3D ( 'NONE', #617, #230, #570 ) ;
#387 = FACE_OUTER_BOUND ( 'NONE', #556, .T. ) ;
#388 = ORIENTED_EDGE ( 'NONE', *, *, #562, .F. ) ;
#389 = CARTESIAN_POINT ( 'NONE',  ( -13.24499999999999567, 1.836970198721029441E-17, 1.599999999999998979 ) ) ;
#390 =( LENGTH_UNIT ( ) NAMED_UNIT ( * ) SI_UNIT ( .MILLI., .METRE. ) );
#391 = DIRECTION ( 'NONE',  ( -0.0000000000000000000, 1.000000000000000000, -0.0000000000000000000 ) ) ;
#392 = VECTOR ( 'NONE', #626, 1000.000000000000000 ) ;
#393 = EDGE_CURVE ( 'NONE', #433, #536, #397, .T. ) ;
#394 = VECTOR ( 'NONE', #72, 1000.000000000000000 ) ;
#395 =( NAMED_UNIT ( * ) PLANE_ANGLE_UNIT ( ) SI_UNIT ( $, .RADIAN. ) );
#396 = VERTEX_POINT ( 'NONE', #369 ) ;
#397 = LINE ( 'NONE', #33, #156 ) ;
#398 = ORIENTED_EDGE ( 'NONE', *, *, #524, .T. ) ;
#399 = VECTOR ( 'NONE', #381, 1000.000000000000000 ) ;
#400 = CARTESIAN_POINT ( 'NONE',  ( -13.24499999999999567, 0.0000000000000000000, 1.599999999999998090 ) ) ;
#401 = VERTEX_POINT ( 'NONE', #266 ) ;
#402 = ORIENTED_EDGE ( 'NONE', *, *, #123, .F. ) ;
#403 = CARTESIAN_POINT ( 'NONE',  ( 2.553830738038187131E-15, 0.0000000000000000000, -3.750000000000000000 ) ) ;
#404 =( GEOMETRIC_REPRESENTATION_CONTEXT ( 3 ) GLOBAL_UNCERTAINTY_ASSIGNED_CONTEXT ( ( #109 ) ) GLOBAL_UNIT_ASSIGNED_CONTEXT ( ( #439, #246, #103 ) ) REPRESENTATION_CONTEXT ( 'NONE', 'WORKASPACE' ) );
#405 = AXIS2_PLACEMENT_3D ( 'NONE', #146, #107, #445 ) ;
#406 = ORIENTED_EDGE ( 'NONE', *, *, #622, .T. ) ;
#407 = LINE ( 'NONE', #197, #122 ) ;
#408 = ORIENTED_EDGE ( 'NONE', *, *, #602, .T. ) ;
#409 = DIRECTION ( 'NONE',  ( 0.0000000000000000000, 0.0000000000000000000, 1.000000000000000000 ) ) ;
#410 = ORIENTED_EDGE ( 'NONE', *, *, #257, .F. ) ;
#411 = SURFACE_STYLE_FILL_AREA ( #282 ) ;
#412 = CARTESIAN_POINT ( 'NONE',  ( -19.74228264219396323, -6.392788562161151766, 4.935712149893720202 ) ) ;
#413 = AXIS2_PLACEMENT_3D ( 'NONE', #287, #232, #519 ) ;
#414 = CARTESIAN_POINT ( 'NONE',  ( -16.99999999999999645, -6.700000000000001066, -2.499999999999998668 ) ) ;
#415 = LINE ( 'NONE', #278, #31 ) ;
#416 = VECTOR ( 'NONE', #482, 1000.000000000000000 ) ;
#417 = DIRECTION ( 'NONE',  ( -3.854941057726238097E-16, 1.000000000000000000, 0.0000000000000000000 ) ) ;
#418 = EDGE_LOOP ( 'NONE', ( #605, #365 ) ) ;
#419 = VERTEX_POINT ( 'NONE', #166 ) ;
#420 = DIRECTION ( 'NONE',  ( 0.0000000000000000000, 0.0000000000000000000, 1.000000000000000000 ) ) ;
#421 = CARTESIAN_POINT ( 'NONE',  ( -1.999999999999998224, -9.000000000000001776, -2.499999999999998668 ) ) ;
#422 = DIRECTION ( 'NONE',  ( 0.0000000000000000000, -1.000000000000000000, 0.0000000000000000000 ) ) ;
#423 = VERTEX_POINT ( 'NONE', #115 ) ;
#424 = CARTESIAN_POINT ( 'NONE',  ( -19.74228264219396323, -6.392788562161151766, -4.935712149893720202 ) ) ;
#425 = CARTESIAN_POINT ( 'NONE',  ( -17.99999999999985434, -6.700000000000001066, 3.750000000000000000 ) ) ;
#426 = CARTESIAN_POINT ( 'NONE',  ( -16.99999999999999645, -9.000000000000001776, -2.499999999999998668 ) ) ;
#427 = EDGE_CURVE ( 'NONE', #323, #598, #228, .T. ) ;
#428 = CARTESIAN_POINT ( 'NONE',  ( -22.99999999999998579, 0.0000000000000000000, 3.750000000000000000 ) ) ;
#429 = CARTESIAN_POINT ( 'NONE',  ( -12.50000000000000000, -6.700000000000001066, 0.0000000000000000000 ) ) ;
#430 = CARTESIAN_POINT ( 'NONE',  ( -17.99999999999985434, -6.700000000000001066, -3.750000000000000000 ) ) ;
#431 = LINE ( 'NONE', #578, #260 ) ;
#432 = VECTOR ( 'NONE', #336, 1000.000000000000000 ) ;
#433 = VERTEX_POINT ( 'NONE', #563 ) ;
#434 = AXIS2_PLACEMENT_3D ( 'NONE', #121, #117, #320 ) ;
#435 = CARTESIAN_POINT ( 'NONE',  ( -16.99999999999999645, -6.700000000000001066, 2.500000000000001332 ) ) ;
#436 = DIRECTION ( 'NONE',  ( -0.3420201433256661594, -1.318467493075523001E-16, 0.9396926207859094271 ) ) ;
#437 = ADVANCED_FACE ( 'NONE', ( #8, #497, #223 ), #368, .T. ) ;
#438 = AXIS2_PLACEMENT_3D ( 'NONE', #511, #558, #273 ) ;
#439 =( LENGTH_UNIT ( ) NAMED_UNIT ( * ) SI_UNIT ( .MILLI., .METRE. ) );
#440 = EDGE_CURVE ( 'NONE', #508, #289, #595, .T. ) ;
#441 = ADVANCED_FACE ( 'NONE', ( #59 ), #611, .F. ) ;
#442 = CARTESIAN_POINT ( 'NONE',  ( -16.99999999999999645, -6.700000000000001066, 2.500000000000001332 ) ) ;
#443 = VERTEX_POINT ( 'NONE', #503 ) ;
#444 = ADVANCED_FACE ( 'NONE', ( #334 ), #89, .F. ) ;
#445 = DIRECTION ( 'NONE',  ( 0.0000000000000000000, 0.0000000000000000000, 1.000000000000000000 ) ) ;
#446 = ORIENTED_EDGE ( 'NONE', *, *, #63, .F. ) ;
#447 = UNCERTAINTY_MEASURE_WITH_UNIT (LENGTH_MEASURE( 1.000000000000000082E-05 ), #95, 'distance_accuracy_value', 'NONE');
#448 = CIRCLE ( 'NONE', #167, 1.599999999999997202 ) ;
#449 = ORIENTED_EDGE ( 'NONE', *, *, #316, .F. ) ;
#450 = AXIS2_PLACEMENT_3D ( 'NONE', #624, #436, #479 ) ;
#451 = CARTESIAN_POINT ( 'NONE',  ( -1.999999999999998224, -6.700000000000001066, -2.499999999999998668 ) ) ;
#452 = ORIENTED_EDGE ( 'NONE', *, *, #292, .F. ) ;
#453 = CARTESIAN_POINT ( 'NONE',  ( -22.99999999999998579, -5.818365096457669416, 3.750000000000000000 ) ) ;
#454 = CARTESIAN_POINT ( 'NONE',  ( -25.00000000000000000, -4.626611503863460761, 3.022059531467594429 ) ) ;
#455 = ORIENTED_EDGE ( 'NONE', *, *, #562, .T. ) ;
#456 = ORIENTED_EDGE ( 'NONE', *, *, #393, .T. ) ;
#457 = EDGE_LOOP ( 'NONE', ( #193, #6, #525, #294 ) ) ;
#458 = CIRCLE ( 'NONE', #533, 1.599999999999997202 ) ;
#459 = ORIENTED_EDGE ( 'NONE', *, *, #116, .F. ) ;
#460 = DIRECTION ( 'NONE',  ( -0.0000000000000000000, 1.000000000000000000, -0.0000000000000000000 ) ) ;
#461 = EDGE_CURVE ( 'NONE', #514, #419, #200, .T. ) ;
#462 = EDGE_LOOP ( 'NONE', ( #44, #147, #402, #58 ) ) ;
#463 = PLANE ( 'NONE',  #438 ) ;
#464 = FACE_OUTER_BOUND ( 'NONE', #306, .T. ) ;
#465 = EDGE_CURVE ( 'NONE', #106, #323, #458, .T. ) ;
#466 = FACE_OUTER_BOUND ( 'NONE', #506, .T. ) ;
#467 = VECTOR ( 'NONE', #620, 1000.000000000000000 ) ;
#468 = ORIENTED_EDGE ( 'NONE', *, *, #18, .T. ) ;
#469 = STYLED_ITEM ( 'NONE', ( #108 ), #548 ) ;
#470 = VERTEX_POINT ( 'NONE', #171 ) ;
#471 = FACE_OUTER_BOUND ( 'NONE', #615, .T. ) ;
#472 = EDGE_CURVE ( 'NONE', #289, #189, #177, .T. ) ;
#473 = VECTOR ( 'NONE', #338, 1000.000000000000000 ) ;
#474 = CARTESIAN_POINT ( 'NONE',  ( -5.744999999999996554, 1.836970198721029441E-17, -1.599999999999998757 ) ) ;
#475 = EDGE_LOOP ( 'NONE', ( #546, #79, #459, #130 ) ) ;
#476 = VECTOR ( 'NONE', #42, 1000.000000000000114 ) ;
#477 = ADVANCED_FACE ( 'NONE', ( #268 ), #118, .F. ) ;
#478 = VECTOR ( 'NONE', #84, 1000.000000000000000 ) ;
#479 = DIRECTION ( 'NONE',  ( -3.854941057726238097E-16, 1.000000000000000000, 0.0000000000000000000 ) ) ;
#480 = DIRECTION ( 'NONE',  ( 1.000000000000000000, 0.0000000000000000000, 0.0000000000000000000 ) ) ;
#481 = AXIS2_PLACEMENT_3D ( 'NONE', #291, #48, #97 ) ;
#482 = DIRECTION ( 'NONE',  ( 0.0000000000000000000, 0.0000000000000000000, 1.000000000000000000 ) ) ;
#483 = VECTOR ( 'NONE', #184, 1000.000000000000000 ) ;
#484 = EDGE_LOOP ( 'NONE', ( #172, #160, #276, #552 ) ) ;
#485 = EDGE_LOOP ( 'NONE', ( #614, #378, #73, #161 ) ) ;
#486 = CARTESIAN_POINT ( 'NONE',  ( -25.00000000000000000, -5.134324809806335210, 3.022059531467595317 ) ) ;
#487 =( NAMED_UNIT ( * ) SI_UNIT ( $, .STERADIAN. ) SOLID_ANGLE_UNIT ( ) );
#488 = DIRECTION ( 'NONE',  ( -1.156482317317871478E-16, 0.0000000000000000000, -1.000000000000000000 ) ) ;
#489 = EDGE_CURVE ( 'NONE', #443, #554, #208, .T. ) ;
#490 = DIRECTION ( 'NONE',  ( 1.000000000000000000, -0.0000000000000000000, -1.156482317317871478E-16 ) ) ;
#491 = DIRECTION ( 'NONE',  ( 0.0000000000000000000, -1.000000000000000000, 0.0000000000000000000 ) ) ;
#492 = PRODUCT_DEFINITION_CONTEXT ( 'detailed design', #344, 'design' ) ;
#493 = DIRECTION ( 'NONE',  ( -3.854941057726238097E-16, 1.000000000000000000, 0.0000000000000000000 ) ) ;
#494 = CYLINDRICAL_SURFACE ( 'NONE', #405, 1.599999999999998090 ) ;
#495 = CARTESIAN_POINT ( 'NONE',  ( -5.744999999999996554, 0.0000000000000000000, -1.599999999999998090 ) ) ;
#496 = EDGE_LOOP ( 'NONE', ( #125, #619, #242, #288 ) ) ;
#497 = FACE_BOUND ( 'NONE', #317, .T. ) ;
#498 = EDGE_CURVE ( 'NONE', #51, #423, #604, .T. ) ;
#499 = PLANE ( 'NONE',  #305 ) ;
#500 = MANIFOLD_SOLID_BREP ( 'Verrundung2', #227 ) ;
#501 = ORIENTED_EDGE ( 'NONE', *, *, #155, .T. ) ;
#502 = LINE ( 'NONE', #251, #272 ) ;
#503 = CARTESIAN_POINT ( 'NONE',  ( -25.00000000000000000, -4.626611503863460761, 3.022059531467594429 ) ) ;
#504 = DIRECTION ( 'NONE',  ( -0.9270530251925513943, 0.1634644608888480566, -0.3374197067565215535 ) ) ;
#505 = VECTOR ( 'NONE', #422, 1000.000000000000000 ) ;
#506 = EDGE_LOOP ( 'NONE', ( #80, #515, #346, #132, #452 ) ) ;
#507 = DIRECTION ( 'NONE',  ( 0.3420201433256661594, 1.318467493075523001E-16, 0.9396926207859094271 ) ) ;
#508 = VERTEX_POINT ( 'NONE', #428 ) ;
#509 = EDGE_CURVE ( 'NONE', #526, #333, #67, .T. ) ;
#510 = CIRCLE ( 'NONE', #231, 1.599999999999998979 ) ;
#511 = CARTESIAN_POINT ( 'NONE',  ( 1.102182119232618503E-15, -9.000000000000001776, -3.750000000000000000 ) ) ;
#512 = LINE ( 'NONE', #45, #207 ) ;
#513 = LINE ( 'NONE', #373, #478 ) ;
#514 = VERTEX_POINT ( 'NONE', #474 ) ;
#515 = ORIENTED_EDGE ( 'NONE', *, *, #257, .T. ) ;
#516 = PLANE ( 'NONE',  #450 ) ;
#517 = CARTESIAN_POINT ( 'NONE',  ( 2.553830738038187131E-15, 0.0000000000000000000, -3.750000000000000000 ) ) ;
#518 = EDGE_LOOP ( 'NONE', ( #245, #307, #455, #468, #254 ) ) ;
#519 = DIRECTION ( 'NONE',  ( 0.0000000000000000000, 0.0000000000000000000, 1.000000000000000000 ) ) ;
#520 = AXIS2_PLACEMENT_3D ( 'NONE', #120, #566, #409 ) ;
#521 = LINE ( 'NONE', #256, #102 ) ;
#522 = CARTESIAN_POINT ( 'NONE',  ( -25.00000000000000355, 0.0000000000000000000, 3.022059531467594429 ) ) ;
#523 = LINE ( 'NONE', #424, #476 ) ;
#524 = EDGE_CURVE ( 'NONE', #433, #267, #263, .T. ) ;
#525 = ORIENTED_EDGE ( 'NONE', *, *, #300, .T. ) ;
#526 = VERTEX_POINT ( 'NONE', #571 ) ;
#527 = DIRECTION ( 'NONE',  ( 1.612942909783965170E-16, 1.000000000000000000, -0.0000000000000000000 ) ) ;
#528 = DIRECTION ( 'NONE',  ( 0.0000000000000000000, 0.0000000000000000000, 1.000000000000000000 ) ) ;
#529 = DIRECTION ( 'NONE',  ( -0.0000000000000000000, 1.000000000000000000, -0.0000000000000000000 ) ) ;
#530 = CARTESIAN_POINT ( 'NONE',  ( -24.17364817766693008, -5.611419256875668893, -3.322826997828463913 ) ) ;
#531 = EDGE_CURVE ( 'NONE', #576, #333, #57, .T. ) ;
#532 = SURFACE_SIDE_STYLE ('',( #411 ) ) ;
#533 = AXIS2_PLACEMENT_3D ( 'NONE', #26, #30, #220 ) ;
#534 = DIRECTION ( 'NONE',  ( 0.0000000000000000000, 0.0000000000000000000, -1.000000000000000000 ) ) ;
#535 = ORIENTED_EDGE ( 'NONE', *, *, #224, .F. ) ;
#536 = VERTEX_POINT ( 'NONE', #181 ) ;
#537 = ORIENTED_EDGE ( 'NONE', *, *, #28, .F. ) ;
#538 = DIRECTION ( 'NONE',  ( 0.0000000000000000000, 0.0000000000000000000, -1.000000000000000000 ) ) ;
#539 = DIRECTION ( 'NONE',  ( 3.854941057726238097E-16, -1.000000000000000000, 0.0000000000000000000 ) ) ;
#540 = ORIENTED_EDGE ( 'NONE', *, *, #1, .F. ) ;
#541 = ORIENTED_EDGE ( 'NONE', *, *, #594, .F. ) ;
#542 = DIRECTION ( 'NONE',  ( 1.000000000000000000, 0.0000000000000000000, 0.0000000000000000000 ) ) ;
#543 = ADVANCED_FACE ( 'NONE', ( #211 ), #324, .F. ) ;
#544 = ORIENTED_EDGE ( 'NONE', *, *, #364, .T. ) ;
#545 = EDGE_LOOP ( 'NONE', ( #39, #544, #43, #535, #154, #388 ) ) ;
#546 = ORIENTED_EDGE ( 'NONE', *, *, #612, .T. ) ;
#547 = CARTESIAN_POINT ( 'NONE',  ( -24.17364817766693008, -5.611419256875668893, 3.322826997828463913 ) ) ;
#548 = ADVANCED_BREP_SHAPE_REPRESENTATION ( '03_052_MH_finger', ( #500, #38 ), #609 ) ;
#549 = DIRECTION ( 'NONE',  ( 0.0000000000000000000, 0.0000000000000000000, 1.000000000000000000 ) ) ;
#550 = DIRECTION ( 'NONE',  ( -0.0000000000000000000, -0.0000000000000000000, -1.000000000000000000 ) ) ;
#551 = ORIENTED_EDGE ( 'NONE', *, *, #1, .T. ) ;
#552 = ORIENTED_EDGE ( 'NONE', *, *, #625, .T. ) ;
#553 = EDGE_CURVE ( 'NONE', #341, #401, #17, .T. ) ;
#554 = VERTEX_POINT ( 'NONE', #522 ) ;
#555 = DIRECTION ( 'NONE',  ( 1.612942909783965170E-16, 1.000000000000000000, 0.0000000000000000000 ) ) ;
#556 = EDGE_LOOP ( 'NONE', ( #24, #180, #351, #66, #203 ) ) ;
#557 = LINE ( 'NONE', #339, #330 ) ;
#558 = DIRECTION ( 'NONE',  ( 0.0000000000000000000, -1.000000000000000000, 0.0000000000000000000 ) ) ;
#559 = VERTEX_POINT ( 'NONE', #179 ) ;
#560 = AXIS2_PLACEMENT_3D ( 'NONE', #610, #322, #608 ) ;
#561 = VECTOR ( 'NONE', #527, 1000.000000000000000 ) ;
#562 = EDGE_CURVE ( 'NONE', #289, #606, #512, .T. ) ;
#563 = CARTESIAN_POINT ( 'NONE',  ( 1.473158988482930396E-15, -6.700000000000001066, -3.750000000000000000 ) ) ;
#564 = FILL_AREA_STYLE_COLOUR ( '', #65 ) ;
#565 = VECTOR ( 'NONE', #297, 1000.000000000000000 ) ;
#566 = DIRECTION ( 'NONE',  ( 0.0000000000000000000, 1.000000000000000000, -0.0000000000000000000 ) ) ;
#567 = DIRECTION ( 'NONE',  ( -0.0000000000000000000, 1.000000000000000000, -0.0000000000000000000 ) ) ;
#568 = AXIS2_PLACEMENT_3D ( 'NONE', #143, #55, #384 ) ;
#569 = VECTOR ( 'NONE', #356, 1000.000000000000000 ) ;
#570 = DIRECTION ( 'NONE',  ( 2.602085213965211628E-16, 0.0000000000000000000, 1.000000000000000000 ) ) ;
#571 = CARTESIAN_POINT ( 'NONE',  ( -16.99999999999999645, -9.000000000000001776, 2.500000000000001332 ) ) ;
#572 = VERTEX_POINT ( 'NONE', #92 ) ;
#573 = EDGE_LOOP ( 'NONE', ( #537, #271, #350, #209, #410 ) ) ;
#574 = LINE ( 'NONE', #210, #283 ) ;
#575 = CARTESIAN_POINT ( 'NONE',  ( 2.553830738038187131E-15, 0.0000000000000000000, -3.750000000000000000 ) ) ;
#576 = VERTEX_POINT ( 'NONE', #85 ) ;
#577 = PRESENTATION_LAYER_ASSIGNMENT (  '', '', ( #78 ) ) ;
#578 = CARTESIAN_POINT ( 'NONE',  ( -17.99999999999985434, -6.700000000000001066, -3.750000000000000000 ) ) ;
#579 = DIRECTION ( 'NONE',  ( -0.0000000000000000000, 1.000000000000000000, 0.0000000000000000000 ) ) ;
#580 = LINE ( 'NONE', #517, #432 ) ;
#581 = CARTESIAN_POINT ( 'NONE',  ( -25.00000000000000000, -4.626611503863460761, -3.750000000000000000 ) ) ;
#582 = ORIENTED_EDGE ( 'NONE', *, *, #597, .T. ) ;
#583 = CARTESIAN_POINT ( 'NONE',  ( -17.99999999999985434, -6.700000000000001066, 0.0000000000000000000 ) ) ;
#584 = ADVANCED_FACE ( 'NONE', ( #464, #96 ), #379, .F. ) ;
#585 = CARTESIAN_POINT ( 'NONE',  ( -13.24499999999999567, -9.000000000000001776, 1.599999999999997202 ) ) ;
#586 = EDGE_CURVE ( 'NONE', #267, #332, #235, .T. ) ;
#587 = LINE ( 'NONE', #114, #71 ) ;
#588 = COLOUR_RGB ( '',0.6980392156862744724, 0.6980392156862744724, 0.6980392156862744724 ) ;
#589 = DIRECTION ( 'NONE',  ( -0.9848077530122086864, 0.1736481776669271948, 0.0000000000000000000 ) ) ;
#590 = PRODUCT_CONTEXT ( 'NONE', #248, 'mechanical' ) ;
#591 = EDGE_CURVE ( 'NONE', #559, #593, #448, .T. ) ;
#592 = CARTESIAN_POINT ( 'NONE',  ( -1.688533893067770686, -9.576151569563741361, -3.750000000000000000 ) ) ;
#593 = VERTEX_POINT ( 'NONE', #284 ) ;
#594 = EDGE_CURVE ( 'NONE', #309, #170, #222, .T. ) ;
#595 = LINE ( 'NONE', #366, #35 ) ;
#596 = DIRECTION ( 'NONE',  ( -0.0000000000000000000, 0.0000000000000000000, -1.000000000000000000 ) ) ;
#597 = EDGE_CURVE ( 'NONE', #267, #572, #580, .T. ) ;
#598 = VERTEX_POINT ( 'NONE', #226 ) ;
#599 = FACE_OUTER_BOUND ( 'NONE', #321, .T. ) ;
#600 = CARTESIAN_POINT ( 'NONE',  ( -22.99999999999998579, -8.866364432770341411E-15, -3.750000000000000000 ) ) ;
#601 = ORIENTED_EDGE ( 'NONE', *, *, #100, .T. ) ;
#602 = EDGE_CURVE ( 'NONE', #554, #508, #415, .T. ) ;
#603 = ORIENTED_EDGE ( 'NONE', *, *, #191, .F. ) ;
#604 = LINE ( 'NONE', #414, #149 ) ;
#605 = ORIENTED_EDGE ( 'NONE', *, *, #625, .F. ) ;
#606 = VERTEX_POINT ( 'NONE', #425 ) ;
#607 = ORIENTED_EDGE ( 'NONE', *, *, #498, .F. ) ;
#608 = DIRECTION ( 'NONE',  ( 0.0000000000000000000, 0.0000000000000000000, 1.000000000000000000 ) ) ;
#609 =( GEOMETRIC_REPRESENTATION_CONTEXT ( 3 ) GLOBAL_UNCERTAINTY_ASSIGNED_CONTEXT ( ( #168 ) ) GLOBAL_UNIT_ASSIGNED_CONTEXT ( ( #390, #345, #487 ) ) REPRESENTATION_CONTEXT ( 'NONE', 'WORKASPACE' ) );
#610 = CARTESIAN_POINT ( 'NONE',  ( -5.744999999999996554, 0.0000000000000000000, 0.0000000000000000000 ) ) ;
#611 = PLANE ( 'NONE',  #382 ) ;
#612 = EDGE_CURVE ( 'NONE', #170, #526, #353, .T. ) ;
#613 = EDGE_LOOP ( 'NONE', ( #501, #621 ) ) ;
#614 = ORIENTED_EDGE ( 'NONE', *, *, #199, .T. ) ;
#615 = EDGE_LOOP ( 'NONE', ( #88, #77, #298, #406 ) ) ;
#616 = ORIENTED_EDGE ( 'NONE', *, *, #292, .T. ) ;
#617 = CARTESIAN_POINT ( 'NONE',  ( -1.999999999999998224, -6.700000000000001066, -2.499999999999998668 ) ) ;
#618 = CARTESIAN_POINT ( 'NONE',  ( 2.553830738038187131E-15, 0.0000000000000000000, -3.750000000000000000 ) ) ;
#619 = ORIENTED_EDGE ( 'NONE', *, *, #186, .T. ) ;
#620 = DIRECTION ( 'NONE',  ( -2.602085213965211628E-16, -0.0000000000000000000, -1.000000000000000000 ) ) ;
#621 = ORIENTED_EDGE ( 'NONE', *, *, #591, .T. ) ;
#622 = EDGE_CURVE ( 'NONE', #396, #526, #20, .T. ) ;
#623 = CIRCLE ( 'NONE', #355, 1.599999999999997202 ) ;
#624 = CARTESIAN_POINT ( 'NONE',  ( -22.99999999999998579, -8.866364432770341411E-15, 3.750000000000000000 ) ) ;
#625 = EDGE_CURVE ( 'NONE', #419, #514, #195, .T. ) ;
#626 = DIRECTION ( 'NONE',  ( 0.0000000000000000000, -1.000000000000000000, 0.0000000000000000000 ) ) ;
ENDSEC;
END-ISO-10303-21;
