ISO-10303-21;
HEADER;
FILE_DESCRIPTION (( 'STEP AP214' ),
    '1' );
FILE_NAME ('03_061_gripper_bracket_1.STEP',
    '2020-09-17T14:46:49',
    ( '' ),
    ( '' ),
    'SwSTEP 2.0',
    'SolidWorks 2018',
    '' );
FILE_SCHEMA (( 'AUTOMOTIVE_DESIGN' ));
ENDSEC;

DATA;
#1 = DIRECTION ( 'NONE',  ( -0.7071067811865510144, 0.7071067811865441310, 0.0000000000000000000 ) ) ;
#2 = ORIENTED_EDGE ( 'NONE', *, *, #436, .T. ) ;
#3 = DIRECTION ( 'NONE',  ( 1.000000000000000000, 0.0000000000000000000, 0.0000000000000000000 ) ) ;
#4 = VERTEX_POINT ( 'NONE', #282 ) ;
#5 = DIRECTION ( 'NONE',  ( -0.0000000000000000000, -0.0000000000000000000, 1.000000000000000000 ) ) ;
#6 = VERTEX_POINT ( 'NONE', #344 ) ;
#7 = CARTESIAN_POINT ( 'NONE',  ( 0.0000000000000000000, 0.0000000000000000000, 8.000000000000000000 ) ) ;
#8 = EDGE_CURVE ( 'NONE', #204, #570, #243, .T. ) ;
#9 = DIRECTION ( 'NONE',  ( 0.0000000000000000000, 0.0000000000000000000, 1.000000000000000000 ) ) ;
#10 = B_SPLINE_CURVE_WITH_KNOTS ( 'NONE', 3,
 ( #312, #842, #779, #376 ),
 .UNSPECIFIED., .F., .F.,
 ( 4, 4 ),
 ( 0.04543272119298429751, 0.04717322797010327362 ),
 .UNSPECIFIED. ) ;
#11 = VERTEX_POINT ( 'NONE', #806 ) ;
#12 = DIRECTION ( 'NONE',  ( -1.000000000000000000, 0.0000000000000000000, 0.0000000000000000000 ) ) ;
#13 = FACE_BOUND ( 'NONE', #617, .T. ) ;
#14 = ORIENTED_EDGE ( 'NONE', *, *, #698, .F. ) ;
#15 = CARTESIAN_POINT ( 'NONE',  ( -14.99999999999999112, 14.99999999999984190, 19.00000000000000000 ) ) ;
#16 = LINE ( 'NONE', #58, #726 ) ;
#17 = PLANE ( 'NONE',  #702 ) ;
#18 = EDGE_LOOP ( 'NONE', ( #766, #196, #81, #209 ) ) ;
#19 = AXIS2_PLACEMENT_3D ( 'NONE', #29, #25, #577 ) ;
#20 = CARTESIAN_POINT ( 'NONE',  ( -15.00000000000000178, 12.50868324581528057, 27.94427190999915922 ) ) ;
#21 = B_SPLINE_CURVE_WITH_KNOTS ( 'NONE', 3,
 ( #120, #272, #131, #74 ),
 .UNSPECIFIED., .F., .F.,
 ( 4, 4 ),
 ( 0.01961063843118340116, 0.02133754099465368093 ),
 .UNSPECIFIED. ) ;
#22 = DIRECTION ( 'NONE',  ( 0.0000000000000000000, 0.0000000000000000000, -1.000000000000000000 ) ) ;
#23 = ORIENTED_EDGE ( 'NONE', *, *, #422, .T. ) ;
#24 = AXIS2_PLACEMENT_3D ( 'NONE', #572, #497, #642 ) ;
#25 = DIRECTION ( 'NONE',  ( 0.0000000000000000000, 0.0000000000000000000, 1.000000000000000000 ) ) ;
#26 = EDGE_LOOP ( 'NONE', ( #696, #668, #156, #515 ) ) ;
#27 = DIRECTION ( 'NONE',  ( 1.000000000000000000, 0.0000000000000000000, 0.0000000000000000000 ) ) ;
#28 = LINE ( 'NONE', #221, #264 ) ;
#29 = CARTESIAN_POINT ( 'NONE',  ( -26.00000000000000000, 21.50868324581528057, 8.000000000000000000 ) ) ;
#30 = DIRECTION ( 'NONE',  ( 0.0000000000000000000, 0.0000000000000000000, 1.000000000000000000 ) ) ;
#31 = EDGE_CURVE ( 'NONE', #238, #306, #416, .T. ) ;
#32 = EDGE_LOOP ( 'NONE', ( #488, #677, #323, #561 ) ) ;
#33 = ORIENTED_EDGE ( 'NONE', *, *, #284, .F. ) ;
#34 = PRODUCT_RELATED_PRODUCT_CATEGORY ( 'part', '', ( #703 ) ) ;
#35 = DIRECTION ( 'NONE',  ( 1.000000000000000000, 0.0000000000000000000, 0.0000000000000000000 ) ) ;
#36 = PLANE ( 'NONE',  #619 ) ;
#37 = ORIENTED_EDGE ( 'NONE', *, *, #268, .T. ) ;
#38 = ORIENTED_EDGE ( 'NONE', *, *, #739, .F. ) ;
#39 = LINE ( 'NONE', #693, #756 ) ;
#40 = CARTESIAN_POINT ( 'NONE',  ( -12.50868324581540669, 12.50868324581528057, 8.000000000000000000 ) ) ;
#41 = LINE ( 'NONE', #742, #767 ) ;
#42 = LINE ( 'NONE', #442, #858 ) ;
#43 = VERTEX_POINT ( 'NONE', #611 ) ;
#44 = DIRECTION ( 'NONE',  ( 0.0000000000000000000, 0.0000000000000000000, 1.000000000000000000 ) ) ;
#45 = EDGE_CURVE ( 'NONE', #877, #839, #760, .T. ) ;
#46 = DIRECTION ( 'NONE',  ( 1.475815091673063327E-16, -1.000000000000000000, 0.0000000000000000000 ) ) ;
#47 = CARTESIAN_POINT ( 'NONE',  ( 12.51579002700340126, 12.51579002700327337, 0.0000000000000000000 ) ) ;
#48 = ADVANCED_FACE ( 'NONE', ( #421 ), #813, .T. ) ;
#49 = CARTESIAN_POINT ( 'NONE',  ( -15.00000000000000178, 17.27466678170993930, 15.35496335109981558 ) ) ;
#50 = ORIENTED_EDGE ( 'NONE', *, *, #480, .T. ) ;
#51 = EDGE_CURVE ( 'NONE', #418, #337, #575, .T. ) ;
#52 = VERTEX_POINT ( 'NONE', #68 ) ;
#53 = AXIS2_PLACEMENT_3D ( 'NONE', #609, #598, #536 ) ;
#54 = CIRCLE ( 'NONE', #355, 21.88307641667413961 ) ;
#55 = ADVANCED_FACE ( 'NONE', ( #537 ), #350, .F. ) ;
#56 = EDGE_LOOP ( 'NONE', ( #33, #644, #117, #326 ) ) ;
#57 = CARTESIAN_POINT ( 'NONE',  ( -26.00000000000000355, 16.50868324581528057, 19.00000000000000000 ) ) ;
#58 = CARTESIAN_POINT ( 'NONE',  ( 0.0000000000000000000, 12.50868324581528057, 8.000000000000000000 ) ) ;
#59 = VERTEX_POINT ( 'NONE', #353 ) ;
#60 = ORIENTED_EDGE ( 'NONE', *, *, #750, .T. ) ;
#61 = ORIENTED_EDGE ( 'NONE', *, *, #449, .T. ) ;
#62 = DIRECTION ( 'NONE',  ( 0.0000000000000000000, 0.0000000000000000000, 1.000000000000000000 ) ) ;
#63 = EDGE_CURVE ( 'NONE', #839, #700, #706, .T. ) ;
#64 = ADVANCED_FACE ( 'NONE', ( #383, #175, #185, #824, #870 ), #550, .F. ) ;
#65 = EDGE_LOOP ( 'NONE', ( #864, #270, #423, #75 ) ) ;
#66 = FACE_OUTER_BOUND ( 'NONE', #26, .T. ) ;
#67 = VECTOR ( 'NONE', #646, 1000.000000000000000 ) ;
#68 = CARTESIAN_POINT ( 'NONE',  ( 12.50868324581540669, 12.50868324581528057, 18.98994949365911467 ) ) ;
#69 = AXIS2_PLACEMENT_3D ( 'NONE', #20, #835, #565 ) ;
#70 = ORIENTED_EDGE ( 'NONE', *, *, #63, .T. ) ;
#71 = CIRCLE ( 'NONE', #461, 16.71479193713284417 ) ;
#72 = AXIS2_PLACEMENT_3D ( 'NONE', #236, #563, #635 ) ;
#73 = DIRECTION ( 'NONE',  ( -1.000000000000000000, -1.430699774001490481E-16, 0.0000000000000000000 ) ) ;
#74 = CARTESIAN_POINT ( 'NONE',  ( -11.08679904018744189, 12.50868324581528057, 18.01479193713074523 ) ) ;
#75 = ORIENTED_EDGE ( 'NONE', *, *, #97, .F. ) ;
#76 = DIRECTION ( 'NONE',  ( -1.000000000000000000, 0.0000000000000000000, 0.0000000000000000000 ) ) ;
#77 = CARTESIAN_POINT ( 'NONE',  ( -27.50000000000000355, 16.50868324581528057, 8.000000000000000000 ) ) ;
#78 = EDGE_CURVE ( 'NONE', #316, #212, #518, .T. ) ;
#79 = CARTESIAN_POINT ( 'NONE',  ( -27.60000000000000497, 29.50868324581528057, 8.000000000000000000 ) ) ;
#80 = CARTESIAN_POINT ( 'NONE',  ( 14.99999999999999467, 38.50868324581528412, 8.000000000000000000 ) ) ;
#81 = ORIENTED_EDGE ( 'NONE', *, *, #8, .T. ) ;
#82 = EDGE_LOOP ( 'NONE', ( #279, #351, #591, #810, #168, #802, #873 ) ) ;
#83 = FACE_BOUND ( 'NONE', #427, .T. ) ;
#84 = ORIENTED_EDGE ( 'NONE', *, *, #318, .F. ) ;
#85 = CIRCLE ( 'NONE', #444, 1.600000000000000755 ) ;
#86 = CYLINDRICAL_SURFACE ( 'NONE', #334, 1.600000000000000755 ) ;
#87 = CARTESIAN_POINT ( 'NONE',  ( 12.50868324581540847, 12.50868324581528412, 0.01005050634087650829 ) ) ;
#88 = ORIENTED_EDGE ( 'NONE', *, *, #539, .F. ) ;
#89 = B_SPLINE_CURVE_WITH_KNOTS ( 'NONE', 3,
 ( #784, #392, #249, #331 ),
 .UNSPECIFIED., .F., .F.,
 ( 4, 4 ),
 ( 0.04598065818612669109, 0.04773839358550795164 ),
 .UNSPECIFIED. ) ;
#90 = PLANE ( 'NONE',  #665 ) ;
#91 = CARTESIAN_POINT ( 'NONE',  ( 12.50868324581540847, 12.50868324581528057, 8.000000000000000000 ) ) ;
#92 = EDGE_CURVE ( 'NONE', #408, #6, #342, .T. ) ;
#93 = DIRECTION ( 'NONE',  ( -1.000000000000000000, 0.0000000000000000000, 0.0000000000000000000 ) ) ;
#94 = ORIENTED_EDGE ( 'NONE', *, *, #8, .F. ) ;
#95 = CARTESIAN_POINT ( 'NONE',  ( -26.00000000000000355, 34.50868324581528412, 8.000000000000000000 ) ) ;
#96 = EDGE_CURVE ( 'NONE', #714, #775, #728, .T. ) ;
#97 = EDGE_CURVE ( 'NONE', #59, #687, #544, .T. ) ;
#98 = EDGE_LOOP ( 'NONE', ( #125, #327, #672, #155, #578 ) ) ;
#99 = DIRECTION ( 'NONE',  ( -0.7071067811865441310, -0.7071067811865510144, 0.0000000000000000000 ) ) ;
#100 = CARTESIAN_POINT ( 'NONE',  ( -17.00000000000025935, 38.50868324581527702, 8.000000000000000000 ) ) ;
#101 = CARTESIAN_POINT ( 'NONE',  ( 0.0000000000000000000, 0.0000000000000000000, 18.01479193713077720 ) ) ;
#102 = ORIENTED_EDGE ( 'NONE', *, *, #867, .T. ) ;
#103 = ORIENTED_EDGE ( 'NONE', *, *, #365, .T. ) ;
#104 = LINE ( 'NONE', #627, #620 ) ;
#105 = LINE ( 'NONE', #666, #833 ) ;
#106 = EDGE_CURVE ( 'NONE', #513, #59, #621, .T. ) ;
#107 = VERTEX_POINT ( 'NONE', #79 ) ;
#108 = CARTESIAN_POINT ( 'NONE',  ( 0.0000000000000000000, 0.0000000000000000000, 0.0000000000000000000 ) ) ;
#109 = DIRECTION ( 'NONE',  ( 0.0000000000000000000, 0.0000000000000000000, 1.000000000000000000 ) ) ;
#110 = CARTESIAN_POINT ( 'NONE',  ( 14.99999999999999645, 23.58683818485531702, 0.0000000000000000000 ) ) ;
#111 = AXIS2_PLACEMENT_3D ( 'NONE', #395, #187, #533 ) ;
#112 = ORIENTED_EDGE ( 'NONE', *, *, #92, .T. ) ;
#113 = DIRECTION ( 'NONE',  ( 0.0000000000000000000, 0.0000000000000000000, -1.000000000000000000 ) ) ;
#114 = ADVANCED_FACE ( 'NONE', ( #738 ), #632, .F. ) ;
#115 = ORIENTED_EDGE ( 'NONE', *, *, #123, .F. ) ;
#116 = CARTESIAN_POINT ( 'NONE',  ( 0.0000000000000000000, 0.0000000000000000000, 19.00000000000000000 ) ) ;
#117 = ORIENTED_EDGE ( 'NONE', *, *, #875, .T. ) ;
#118 = AXIS2_PLACEMENT_3D ( 'NONE', #630, #368, #76 ) ;
#119 = ADVANCED_FACE ( 'NONE', ( #758 ), #705, .F. ) ;
#120 = CARTESIAN_POINT ( 'NONE',  ( -12.50868324581540847, 12.50868324581528057, 18.98994949365911822 ) ) ;
#121 = DIRECTION ( 'NONE',  ( -1.000000000000000000, 0.0000000000000000000, 0.0000000000000000000 ) ) ;
#122 = ORIENTED_EDGE ( 'NONE', *, *, #867, .F. ) ;
#123 = EDGE_CURVE ( 'NONE', #877, #570, #641, .T. ) ;
#124 = ADVANCED_FACE ( 'NONE', ( #834 ), #86, .F. ) ;
#125 = ORIENTED_EDGE ( 'NONE', *, *, #106, .T. ) ;
#126 = SHAPE_DEFINITION_REPRESENTATION ( #332, #838 ) ;
#127 = VECTOR ( 'NONE', #172, 1000.000000000000114 ) ;
#128 = ORIENTED_EDGE ( 'NONE', *, *, #189, .T. ) ;
#129 = CARTESIAN_POINT ( 'NONE',  ( -27.59999999999999787, 21.50868324581528057, 19.00000000000000000 ) ) ;
#130 = ORIENTED_EDGE ( 'NONE', *, *, #614, .T. ) ;
#131 = CARTESIAN_POINT ( 'NONE',  ( -11.56591247965776326, 12.50868324581528057, 18.33258437157081389 ) ) ;
#132 = CARTESIAN_POINT ( 'NONE',  ( -11.08679904018734419, 12.50868324581528057, 0.9852080628692236886 ) ) ;
#133 = VERTEX_POINT ( 'NONE', #150 ) ;
#134 = EDGE_CURVE ( 'NONE', #339, #107, #329, .T. ) ;
#135 = ORIENTED_EDGE ( 'NONE', *, *, #648, .T. ) ;
#136 = B_SPLINE_CURVE_WITH_KNOTS ( 'NONE', 3,
 ( #259, #601, #804, #468 ),
 .UNSPECIFIED., .F., .F.,
 ( 4, 4 ),
 ( 0.0000000000000000000, 0.01165576865636679116 ),
 .UNSPECIFIED. ) ;
#137 = LINE ( 'NONE', #267, #662 ) ;
#138 = MECHANICAL_DESIGN_GEOMETRIC_PRESENTATION_REPRESENTATION (  '', ( #691 ), #205 ) ;
#139 = EDGE_LOOP ( 'NONE', ( #349, #202, #388, #590, #130, #14, #84 ) ) ;
#140 = EDGE_CURVE ( 'NONE', #846, #700, #788, .T. ) ;
#141 = AXIS2_PLACEMENT_3D ( 'NONE', #290, #425, #816 ) ;
#142 = CARTESIAN_POINT ( 'NONE',  ( -26.00000000000000355, 16.50868324581528057, 0.0000000000000000000 ) ) ;
#143 = DIRECTION ( 'NONE',  ( -1.000000000000000000, 0.0000000000000000000, 0.0000000000000000000 ) ) ;
#144 = COLOUR_RGB ( '',0.6980392156862744724, 0.6980392156862744724, 0.6980392156862744724 ) ;
#145 = VECTOR ( 'NONE', #579, 1000.000000000000000 ) ;
#146 = ORIENTED_EDGE ( 'NONE', *, *, #602, .F. ) ;
#147 = DIRECTION ( 'NONE',  ( 0.0000000000000000000, 0.0000000000000000000, 1.000000000000000000 ) ) ;
#148 = EDGE_LOOP ( 'NONE', ( #220, #576 ) ) ;
#149 = ORIENTED_EDGE ( 'NONE', *, *, #712, .F. ) ;
#150 = CARTESIAN_POINT ( 'NONE',  ( 11.08679904018744367, 12.50868324581528057, 18.01479193713074167 ) ) ;
#151 = DIRECTION ( 'NONE',  ( 0.0000000000000000000, 0.0000000000000000000, 1.000000000000000000 ) ) ;
#152 = EDGE_CURVE ( 'NONE', #687, #600, #406, .T. ) ;
#153 = CARTESIAN_POINT ( 'NONE',  ( -27.50000000000000355, 34.50868324581528412, 19.00000000000000000 ) ) ;
#154 = DIRECTION ( 'NONE',  ( 0.0000000000000000000, 0.0000000000000000000, -1.000000000000000000 ) ) ;
#155 = ORIENTED_EDGE ( 'NONE', *, *, #659, .T. ) ;
#156 = ORIENTED_EDGE ( 'NONE', *, *, #223, .T. ) ;
#157 = PRESENTATION_STYLE_ASSIGNMENT (( #435 ) ) ;
#158 = ORIENTED_EDGE ( 'NONE', *, *, #189, .F. ) ;
#159 = CARTESIAN_POINT ( 'NONE',  ( -33.50000000000000000, 11.80868324581527951, 8.000000000000000000 ) ) ;
#160 = CIRCLE ( 'NONE', #193, 17.70000000000204921 ) ;
#161 = AXIS2_PLACEMENT_3D ( 'NONE', #15, #99, #434 ) ;
#162 =( NAMED_UNIT ( * ) SI_UNIT ( $, .STERADIAN. ) SOLID_ANGLE_UNIT ( ) );
#163 = EDGE_LOOP ( 'NONE', ( #723, #50, #128, #192, #622, #60 ) ) ;
#164 = DIRECTION ( 'NONE',  ( 0.0000000000000000000, 0.0000000000000000000, 1.000000000000000000 ) ) ;
#165 = CARTESIAN_POINT ( 'NONE',  ( 11.08679904018739926, 12.50868324581528057, 0.9852080628692224673 ) ) ;
#166 = AXIS2_PLACEMENT_3D ( 'NONE', #57, #675, #473 ) ;
#167 = CARTESIAN_POINT ( 'NONE',  ( -2.453269466693386788E-15, -2.453269466693410454E-15, 1.299999999997018874 ) ) ;
#168 = ORIENTED_EDGE ( 'NONE', *, *, #796, .T. ) ;
#169 = ORIENTED_EDGE ( 'NONE', *, *, #203, .F. ) ;
#170 = CARTESIAN_POINT ( 'NONE',  ( -27.50000000000000355, 16.50868324581528057, 19.00000000000000000 ) ) ;
#171 = FACE_OUTER_BOUND ( 'NONE', #281, .T. ) ;
#172 = DIRECTION ( 'NONE',  ( -0.4999999999999903966, -0.4999999999999831801, -0.7071067811865661135 ) ) ;
#173 = FACE_OUTER_BOUND ( 'NONE', #391, .T. ) ;
#174 = EDGE_CURVE ( 'NONE', #583, #718, #827, .T. ) ;
#175 = FACE_BOUND ( 'NONE', #148, .T. ) ;
#176 = EDGE_LOOP ( 'NONE', ( #149, #553, #37, #345 ) ) ;
#177 = CARTESIAN_POINT ( 'NONE',  ( -33.50000000000000000, 12.50868324581528057, 0.0000000000000000000 ) ) ;
#178 = CARTESIAN_POINT ( 'NONE',  ( 11.08679904018739926, 12.50868324581528057, 0.9852080628692224673 ) ) ;
#179 = ORIENTED_EDGE ( 'NONE', *, *, #96, .F. ) ;
#180 = ORIENTED_EDGE ( 'NONE', *, *, #123, .T. ) ;
#181 = CARTESIAN_POINT ( 'NONE',  ( -33.50000000000000000, 12.50868324581528057, 8.000000000000000000 ) ) ;
#182 = CYLINDRICAL_SURFACE ( 'NONE', #405, 1.500000000000001332 ) ;
#183 = DIRECTION ( 'NONE',  ( 1.000000000000000000, 0.0000000000000000000, 0.0000000000000000000 ) ) ;
#184 = EDGE_CURVE ( 'NONE', #694, #6, #599, .T. ) ;
#185 = FACE_BOUND ( 'NONE', #500, .T. ) ;
#186 = ADVANCED_FACE ( 'NONE', ( #770 ), #831, .T. ) ;
#187 = DIRECTION ( 'NONE',  ( -1.000000000000000000, 0.0000000000000000000, 0.0000000000000000000 ) ) ;
#188 = CARTESIAN_POINT ( 'NONE',  ( -15.00000000000000178, 15.93326813488055116, 19.00000000000000000 ) ) ;
#189 = EDGE_CURVE ( 'NONE', #814, #808, #42, .T. ) ;
#190 = EDGE_LOOP ( 'NONE', ( #765, #446, #866, #266 ) ) ;
#191 = ADVANCED_FACE ( 'NONE', ( #452 ), #512, .T. ) ;
#192 = ORIENTED_EDGE ( 'NONE', *, *, #708, .F. ) ;
#193 = AXIS2_PLACEMENT_3D ( 'NONE', #108, #729, #715 ) ;
#194 = ORIENTED_EDGE ( 'NONE', *, *, #298, .T. ) ;
#195 = DIRECTION ( 'NONE',  ( -0.0000000000000000000, 1.369518533665900558E-16, -1.000000000000000000 ) ) ;
#196 = ORIENTED_EDGE ( 'NONE', *, *, #793, .F. ) ;
#197 = CONICAL_SURFACE ( 'NONE', #141, 16.71479193713287970, 0.7853981633974088661 ) ;
#198 = FACE_OUTER_BOUND ( 'NONE', #690, .T. ) ;
#199 = CARTESIAN_POINT ( 'NONE',  ( -33.50000000000000000, 38.50868324581527702, 0.0000000000000000000 ) ) ;
#200 =( LENGTH_UNIT ( ) NAMED_UNIT ( * ) SI_UNIT ( .MILLI., .METRE. ) );
#201 = DIRECTION ( 'NONE',  ( -0.0000000000000000000, -1.000000000000000000, -0.0000000000000000000 ) ) ;
#202 = ORIENTED_EDGE ( 'NONE', *, *, #581, .F. ) ;
#203 = EDGE_CURVE ( 'NONE', #799, #275, #656, .T. ) ;
#204 = VERTEX_POINT ( 'NONE', #309 ) ;
#205 =( GEOMETRIC_REPRESENTATION_CONTEXT ( 3 ) GLOBAL_UNCERTAINTY_ASSIGNED_CONTEXT ( ( #852 ) ) GLOBAL_UNIT_ASSIGNED_CONTEXT ( ( #200, #855, #322 ) ) REPRESENTATION_CONTEXT ( 'NONE', 'WORKASPACE' ) );
#206 = LINE ( 'NONE', #372, #253 ) ;
#207 = DIRECTION ( 'NONE',  ( 0.0000000000000000000, -0.0000000000000000000, -1.000000000000000000 ) ) ;
#208 = VECTOR ( 'NONE', #487, 1000.000000000000000 ) ;
#209 = ORIENTED_EDGE ( 'NONE', *, *, #539, .T. ) ;
#210 = CARTESIAN_POINT ( 'NONE',  ( -26.00000000000000711, 29.50868324581528057, 0.0000000000000000000 ) ) ;
#211 = AXIS2_PLACEMENT_3D ( 'NONE', #538, #605, #462 ) ;
#212 = VERTEX_POINT ( 'NONE', #445 ) ;
#213 = AXIS2_PLACEMENT_3D ( 'NONE', #262, #657, #719 ) ;
#214 = VECTOR ( 'NONE', #783, 999.9999999999998863 ) ;
#215 = ORIENTED_EDGE ( 'NONE', *, *, #698, .T. ) ;
#216 = SURFACE_STYLE_FILL_AREA ( #773 ) ;
#217 = CARTESIAN_POINT ( 'NONE',  ( 0.0000000000000000000, 0.0000000000000000000, 0.0000000000000000000 ) ) ;
#218 = CIRCLE ( 'NONE', #24, 1.500000000000001332 ) ;
#219 = DIRECTION ( 'NONE',  ( -0.0000000000000000000, 0.0000000000000000000, -1.000000000000000000 ) ) ;
#220 = ORIENTED_EDGE ( 'NONE', *, *, #240, .F. ) ;
#221 = CARTESIAN_POINT ( 'NONE',  ( -33.50000000000000000, 12.50868324581528057, 19.00000000000000000 ) ) ;
#222 = ORIENTED_EDGE ( 'NONE', *, *, #793, .T. ) ;
#223 = EDGE_CURVE ( 'NONE', #597, #408, #472, .T. ) ;
#224 = DIRECTION ( 'NONE',  ( -1.475815091673063327E-16, 1.000000000000000000, 0.0000000000000000000 ) ) ;
#225 = DIRECTION ( 'NONE',  ( -0.0000000000000000000, -0.0000000000000000000, -1.000000000000000000 ) ) ;
#226 = EDGE_LOOP ( 'NONE', ( #692, #338 ) ) ;
#227 = ORIENTED_EDGE ( 'NONE', *, *, #805, .T. ) ;
#228 = LINE ( 'NONE', #564, #127 ) ;
#229 = CARTESIAN_POINT ( 'NONE',  ( 12.03951748814646727, 12.50868324581528057, 0.3418007950891415181 ) ) ;
#230 = CYLINDRICAL_SURFACE ( 'NONE', #166, 1.500000000000001332 ) ;
#231 = CARTESIAN_POINT ( 'NONE',  ( -33.50000000000000000, 12.50868324581528057, 19.00000000000000000 ) ) ;
#232 = ORIENTED_EDGE ( 'NONE', *, *, #51, .F. ) ;
#233 = CARTESIAN_POINT ( 'NONE',  ( -24.50000000000000000, 16.50868324581528057, 19.00000000000000000 ) ) ;
#234 = SURFACE_SIDE_STYLE ('',( #216 ) ) ;
#235 = EDGE_CURVE ( 'NONE', #775, #778, #218, .T. ) ;
#236 = CARTESIAN_POINT ( 'NONE',  ( -26.00000000000000355, 34.50868324581528412, 8.000000000000000000 ) ) ;
#237 = DIRECTION ( 'NONE',  ( -1.000000000000000000, 0.0000000000000000000, -0.0000000000000000000 ) ) ;
#238 = VERTEX_POINT ( 'NONE', #701 ) ;
#239 = ORIENTED_EDGE ( 'NONE', *, *, #676, .F. ) ;
#240 = EDGE_CURVE ( 'NONE', #714, #786, #588, .T. ) ;
#241 = VECTOR ( 'NONE', #1, 1000.000000000000000 ) ;
#242 = AXIS2_PLACEMENT_3D ( 'NONE', #819, #624, #685 ) ;
#243 = LINE ( 'NONE', #753, #283 ) ;
#244 = CARTESIAN_POINT ( 'NONE',  ( -24.39999999999999858, 21.50868324581528057, 8.000000000000000000 ) ) ;
#245 = EDGE_LOOP ( 'NONE', ( #360, #785, #721, #367 ) ) ;
#246 = DIRECTION ( 'NONE',  ( 0.0000000000000000000, 0.0000000000000000000, 1.000000000000000000 ) ) ;
#247 = DIRECTION ( 'NONE',  ( -1.000000000000000000, 0.0000000000000000000, 0.0000000000000000000 ) ) ;
#248 = VERTEX_POINT ( 'NONE', #568 ) ;
#249 = CARTESIAN_POINT ( 'NONE',  ( -12.04860156409600691, 12.50868324581528057, 0.3355648575820276980 ) ) ;
#250 = FILL_AREA_STYLE_COLOUR ( '', #535 ) ;
#251 = ORIENTED_EDGE ( 'NONE', *, *, #174, .F. ) ;
#252 = DIRECTION ( 'NONE',  ( 0.0000000000000000000, 0.0000000000000000000, 1.000000000000000000 ) ) ;
#253 = VECTOR ( 'NONE', #305, 1000.000000000000114 ) ;
#254 = VECTOR ( 'NONE', #164, 1000.000000000000000 ) ;
#255 = EDGE_CURVE ( 'NONE', #786, #714, #529, .T. ) ;
#256 = LINE ( 'NONE', #776, #67 ) ;
#257 = DIRECTION ( 'NONE',  ( 0.0000000000000000000, 1.000000000000000000, 1.369518533665900558E-16 ) ) ;
#258 = FILL_AREA_STYLE ('',( #250 ) ) ;
#259 = CARTESIAN_POINT ( 'NONE',  ( 14.99999999999999822, 19.78773865244101771, 8.000000000000000000 ) ) ;
#260 = DIRECTION ( 'NONE',  ( 0.0000000000000000000, 0.0000000000000000000, -1.000000000000000000 ) ) ;
#261 = AXIS2_PLACEMENT_3D ( 'NONE', #7, #496, #768 ) ;
#262 = CARTESIAN_POINT ( 'NONE',  ( -26.00000000000000355, 34.50868324581528412, 19.00000000000000000 ) ) ;
#263 = UNCERTAINTY_MEASURE_WITH_UNIT (LENGTH_MEASURE( 1.000000000000000082E-05 ), #647, 'distance_accuracy_value', 'NONE');
#264 = VECTOR ( 'NONE', #154, 1000.000000000000000 ) ;
#265 = AXIS2_PLACEMENT_3D ( 'NONE', #333, #195, #861 ) ;
#266 = ORIENTED_EDGE ( 'NONE', *, *, #280, .F. ) ;
#267 = CARTESIAN_POINT ( 'NONE',  ( -15.00000000000000178, 12.50868324581528057, 19.00000000000000000 ) ) ;
#268 = EDGE_CURVE ( 'NONE', #107, #418, #256, .T. ) ;
#269 = ORIENTED_EDGE ( 'NONE', *, *, #708, .T. ) ;
#270 = ORIENTED_EDGE ( 'NONE', *, *, #548, .T. ) ;
#271 = ORIENTED_EDGE ( 'NONE', *, *, #466, .F. ) ;
#272 = CARTESIAN_POINT ( 'NONE',  ( -12.03948909084257757, 12.50868324581528057, 18.65817912498471642 ) ) ;
#273 = ORIENTED_EDGE ( 'NONE', *, *, #849, .T. ) ;
#274 = CYLINDRICAL_SURFACE ( 'NONE', #330, 1.600000000000000755 ) ;
#275 = VERTEX_POINT ( 'NONE', #772 ) ;
#276 = CARTESIAN_POINT ( 'NONE',  ( -26.00000000000000000, 21.50868324581528057, 0.0000000000000000000 ) ) ;
#277 = CONICAL_SURFACE ( 'NONE', #397, 16.71479193713287970, 0.7853981633974219667 ) ;
#278 = ORIENTED_EDGE ( 'NONE', *, *, #240, .T. ) ;
#279 = ORIENTED_EDGE ( 'NONE', *, *, #717, .F. ) ;
#280 = EDGE_CURVE ( 'NONE', #43, #877, #562, .T. ) ;
#281 = EDGE_LOOP ( 'NONE', ( #860, #746, #521, #296, #477, #543 ) ) ;
#282 = CARTESIAN_POINT ( 'NONE',  ( -12.52289277507128240, 12.50868324581527702, 0.0000000000000000000 ) ) ;
#283 = VECTOR ( 'NONE', #346, 1000.000000000000000 ) ;
#284 = EDGE_CURVE ( 'NONE', #799, #443, #352, .T. ) ;
#285 = ORIENTED_EDGE ( 'NONE', *, *, #96, .T. ) ;
#286 = DIRECTION ( 'NONE',  ( 0.0000000000000000000, 0.0000000000000000000, -1.000000000000000000 ) ) ;
#287 = AXIS2_PLACEMENT_3D ( 'NONE', #415, #689, #757 ) ;
#288 = B_SPLINE_CURVE_WITH_KNOTS ( 'NONE', 3,
 ( #669, #49, #410, #542 ),
 .UNSPECIFIED., .F., .F.,
 ( 4, 4 ),
 ( 0.01399558963772179823, 0.02564665162973090579 ),
 .UNSPECIFIED. ) ;
#289 = CARTESIAN_POINT ( 'NONE',  ( 0.0000000000000000000, 0.0000000000000000000, 8.000000000000000000 ) ) ;
#290 = CARTESIAN_POINT ( 'NONE',  ( 0.0000000000000000000, 0.0000000000000000000, 0.9852080628692475583 ) ) ;
#291 = FACE_OUTER_BOUND ( 'NONE', #176, .T. ) ;
#292 = LINE ( 'NONE', #764, #803 ) ;
#293 = CARTESIAN_POINT ( 'NONE',  ( -2.453269466693386788E-15, -2.453269466693410454E-15, 8.000000000000000000 ) ) ;
#294 = VECTOR ( 'NONE', #314, 1000.000000000000000 ) ;
#295 = DIRECTION ( 'NONE',  ( 0.0000000000000000000, 0.0000000000000000000, 1.000000000000000000 ) ) ;
#296 = ORIENTED_EDGE ( 'NONE', *, *, #780, .F. ) ;
#297 = CARTESIAN_POINT ( 'NONE',  ( -24.40000000000000568, 29.50868324581528057, 19.00000000000000000 ) ) ;
#298 = EDGE_CURVE ( 'NONE', #583, #52, #639, .T. ) ;
#299 = CARTESIAN_POINT ( 'NONE',  ( 11.08679904018739926, 12.50868324581528057, 0.9852080628692224673 ) ) ;
#300 = PRESENTATION_LAYER_ASSIGNMENT (  '', '', ( #417 ) ) ;
#301 = DIRECTION ( 'NONE',  ( -0.0000000000000000000, 0.0000000000000000000, -1.000000000000000000 ) ) ;
#302 = ORIENTED_EDGE ( 'NONE', *, *, #268, .F. ) ;
#303 = CARTESIAN_POINT ( 'NONE',  ( 14.99999999999999645, 14.99999999999983302, 19.00000000000000000 ) ) ;
#304 = ORIENTED_EDGE ( 'NONE', *, *, #796, .F. ) ;
#305 = DIRECTION ( 'NONE',  ( -0.7071067811865532349, -0.7071067811865416886, -0.0000000000000000000 ) ) ;
#306 = VERTEX_POINT ( 'NONE', #508 ) ;
#307 = LINE ( 'NONE', #129, #438 ) ;
#308 = AXIS2_PLACEMENT_3D ( 'NONE', #289, #219, #763 ) ;
#309 = CARTESIAN_POINT ( 'NONE',  ( -33.50000000000000000, 38.50868324581527702, 8.000000000000000000 ) ) ;
#310 = ORIENTED_EDGE ( 'NONE', *, *, #480, .F. ) ;
#311 = ORIENTED_EDGE ( 'NONE', *, *, #235, .T. ) ;
#312 = CARTESIAN_POINT ( 'NONE',  ( 11.08679904018744367, 12.50868324581528057, 18.01479193713074167 ) ) ;
#313 = AXIS2_PLACEMENT_3D ( 'NONE', #494, #225, #762 ) ;
#314 = DIRECTION ( 'NONE',  ( 0.0000000000000000000, 0.0000000000000000000, -1.000000000000000000 ) ) ;
#315 =( NAMED_UNIT ( * ) PLANE_ANGLE_UNIT ( ) SI_UNIT ( $, .RADIAN. ) );
#316 = VERTEX_POINT ( 'NONE', #303 ) ;
#317 = CARTESIAN_POINT ( 'NONE',  ( 11.80868324581540207, 11.80868324581528306, 8.000000000000000000 ) ) ;
#318 = EDGE_CURVE ( 'NONE', #238, #4, #89, .T. ) ;
#319 = CIRCLE ( 'NONE', #774, 1.500000000000001332 ) ;
#320 = PRODUCT_DEFINITION_FORMATION_WITH_SPECIFIED_SOURCE ( 'ANY', '', #703, .NOT_KNOWN. ) ;
#321 = CARTESIAN_POINT ( 'NONE',  ( 0.0000000000000000000, 0.0000000000000000000, 0.9852080628692215791 ) ) ;
#322 =( NAMED_UNIT ( * ) SI_UNIT ( $, .STERADIAN. ) SOLID_ANGLE_UNIT ( ) );
#323 = ORIENTED_EDGE ( 'NONE', *, *, #829, .F. ) ;
#324 = CARTESIAN_POINT ( 'NONE',  ( -26.00000000000000711, 29.50868324581528057, 0.0000000000000000000 ) ) ;
#325 = CARTESIAN_POINT ( 'NONE',  ( -17.00000000000026645, 38.50868324581527702, 0.0000000000000000000 ) ) ;
#326 = ORIENTED_EDGE ( 'NONE', *, *, #430, .F. ) ;
#327 = ORIENTED_EDGE ( 'NONE', *, *, #97, .T. ) ;
#328 = AXIS2_PLACEMENT_3D ( 'NONE', #743, #62, #865 ) ;
#329 = CIRCLE ( 'NONE', #595, 1.600000000000000755 ) ;
#330 = AXIS2_PLACEMENT_3D ( 'NONE', #707, #709, #498 ) ;
#331 = CARTESIAN_POINT ( 'NONE',  ( -12.52289277507128240, 12.50868324581527702, 0.0000000000000000000 ) ) ;
#332 = PRODUCT_DEFINITION_SHAPE ( 'NONE', 'NONE',  #450 ) ;
#333 = CARTESIAN_POINT ( 'NONE',  ( 0.0000000000000000000, 0.0000000000000000000, 9.500000000000079936 ) ) ;
#334 = AXIS2_PLACEMENT_3D ( 'NONE', #828, #356, #483 ) ;
#335 = EDGE_LOOP ( 'NONE', ( #807, #613, #180, #94 ) ) ;
#336 = CARTESIAN_POINT ( 'NONE',  ( -33.50000000000000000, 11.80868324581527951, 0.0000000000000000000 ) ) ;
#337 = VERTEX_POINT ( 'NONE', #399 ) ;
#338 = ORIENTED_EDGE ( 'NONE', *, *, #134, .F. ) ;
#339 = VERTEX_POINT ( 'NONE', #582 ) ;
#340 = CARTESIAN_POINT ( 'NONE',  ( 12.50868324581540847, 12.50868324581528412, 0.01005050634087650829 ) ) ;
#341 = ADVANCED_FACE ( 'NONE', ( #490 ), #277, .F. ) ;
#342 = CIRCLE ( 'NONE', #467, 1.500000000000001332 ) ;
#343 = CARTESIAN_POINT ( 'NONE',  ( -2.698596413362719156E-14, 2.698596413362757968E-14, 17.70000000000344897 ) ) ;
#344 = CARTESIAN_POINT ( 'NONE',  ( -24.50000000000000000, 16.50868324581528057, 0.0000000000000000000 ) ) ;
#345 = ORIENTED_EDGE ( 'NONE', *, *, #422, .F. ) ;
#346 = DIRECTION ( 'NONE',  ( -0.0000000000000000000, -0.0000000000000000000, -1.000000000000000000 ) ) ;
#347 =( GEOMETRIC_REPRESENTATION_CONTEXT ( 3 ) GLOBAL_UNCERTAINTY_ASSIGNED_CONTEXT ( ( #863 ) ) GLOBAL_UNIT_ASSIGNED_CONTEXT ( ( #396, #593, #458 ) ) REPRESENTATION_CONTEXT ( 'NONE', 'WORKASPACE' ) );
#348 = ORIENTED_EDGE ( 'NONE', *, *, #602, .T. ) ;
#349 = ORIENTED_EDGE ( 'NONE', *, *, #31, .T. ) ;
#350 = PLANE ( 'NONE',  #287 ) ;
#351 = ORIENTED_EDGE ( 'NONE', *, *, #581, .T. ) ;
#352 = LINE ( 'NONE', #710, #294 ) ;
#353 = CARTESIAN_POINT ( 'NONE',  ( -15.00000000000000178, 14.99999999999985256, 19.00000000000000000 ) ) ;
#354 = DIRECTION ( 'NONE',  ( 0.9063077870366512689, -0.4226182617406969433, -0.0000000000000000000 ) ) ;
#355 = AXIS2_PLACEMENT_3D ( 'NONE', #823, #5, #143 ) ;
#356 = DIRECTION ( 'NONE',  ( 0.0000000000000000000, 0.0000000000000000000, -1.000000000000000000 ) ) ;
#357 = VERTEX_POINT ( 'NONE', #177 ) ;
#358 = CARTESIAN_POINT ( 'NONE',  ( 14.99999999999999645, 23.58683818485531702, 8.000000000000000000 ) ) ;
#359 = FACE_OUTER_BOUND ( 'NONE', #163, .T. ) ;
#360 = ORIENTED_EDGE ( 'NONE', *, *, #676, .T. ) ;
#361 = DIRECTION ( 'NONE',  ( 0.0000000000000000000, 0.0000000000000000000, -1.000000000000000000 ) ) ;
#362 = CIRCLE ( 'NONE', #211, 1.600000000000000755 ) ;
#363 = DIRECTION ( 'NONE',  ( -1.000000000000000000, -1.430699774001490481E-16, 0.0000000000000000000 ) ) ;
#364 = VECTOR ( 'NONE', #354, 999.9999999999998863 ) ;
#365 = EDGE_CURVE ( 'NONE', #248, #718, #516, .T. ) ;
#366 = ORIENTED_EDGE ( 'NONE', *, *, #378, .T. ) ;
#367 = ORIENTED_EDGE ( 'NONE', *, *, #223, .F. ) ;
#368 = DIRECTION ( 'NONE',  ( 0.0000000000000000000, 0.0000000000000000000, -1.000000000000000000 ) ) ;
#369 = CARTESIAN_POINT ( 'NONE',  ( -27.50000000000000355, 34.50868324581528412, 8.000000000000000000 ) ) ;
#370 = CARTESIAN_POINT ( 'NONE',  ( 14.99999999999999467, 38.50868324581528412, 8.000000000000000000 ) ) ;
#371 = ORIENTED_EDGE ( 'NONE', *, *, #140, .T. ) ;
#372 = CARTESIAN_POINT ( 'NONE',  ( 11.80868324581540207, 11.80868324581528839, 19.00000000000000000 ) ) ;
#373 = FACE_OUTER_BOUND ( 'NONE', #402, .T. ) ;
#374 = PLANE ( 'NONE',  #781 ) ;
#375 = DIRECTION ( 'NONE',  ( 0.0000000000000000000, 0.0000000000000000000, -1.000000000000000000 ) ) ;
#376 = CARTESIAN_POINT ( 'NONE',  ( 12.50868324581540669, 12.50868324581528057, 18.98994949365911467 ) ) ;
#377 = ORIENTED_EDGE ( 'NONE', *, *, #800, .F. ) ;
#378 = EDGE_CURVE ( 'NONE', #778, #775, #319, .T. ) ;
#379 = DIRECTION ( 'NONE',  ( 0.7071067811865526798, 0.7071067811865423547, 0.0000000000000000000 ) ) ;
#380 = LINE ( 'NONE', #167, #145 ) ;
#381 = CARTESIAN_POINT ( 'NONE',  ( -24.50000000000000000, 34.50868324581528412, 8.000000000000000000 ) ) ;
#382 = FACE_OUTER_BOUND ( 'NONE', #469, .T. ) ;
#383 = FACE_OUTER_BOUND ( 'NONE', #801, .T. ) ;
#384 = EDGE_LOOP ( 'NONE', ( #841, #638 ) ) ;
#385 = CARTESIAN_POINT ( 'NONE',  ( 14.99999999999999822, 19.78773865244101771, 8.000000000000000000 ) ) ;
#386 = DIRECTION ( 'NONE',  ( 1.000000000000000000, 0.0000000000000000000, 0.0000000000000000000 ) ) ;
#387 = CARTESIAN_POINT ( 'NONE',  ( 11.20836276945961885, 12.50868324581528057, 12.33355778647578838 ) ) ;
#388 = ORIENTED_EDGE ( 'NONE', *, *, #659, .F. ) ;
#389 = ORIENTED_EDGE ( 'NONE', *, *, #318, .T. ) ;
#390 = CIRCLE ( 'NONE', #752, 1.500000000000001332 ) ;
#391 = EDGE_LOOP ( 'NONE', ( #135, #2, #103, #377 ) ) ;
#392 = CARTESIAN_POINT ( 'NONE',  ( -11.57025354905377235, 12.50868324581528057, 0.6645362289012833878 ) ) ;
#393 = ADVANCED_FACE ( 'NONE', ( #822 ), #36, .F. ) ;
#394 = VECTOR ( 'NONE', #361, 1000.000000000000000 ) ;
#395 = CARTESIAN_POINT ( 'NONE',  ( 0.0000000000000000000, -583.2247869524977659, 9.500000000000000000 ) ) ;
#396 =( LENGTH_UNIT ( ) NAMED_UNIT ( * ) SI_UNIT ( .MILLI., .METRE. ) );
#397 = AXIS2_PLACEMENT_3D ( 'NONE', #101, #44, #386 ) ;
#398 = ADVANCED_FACE ( 'NONE', ( #382 ), #429, .F. ) ;
#399 = CARTESIAN_POINT ( 'NONE',  ( -24.40000000000000568, 29.50868324581528057, 0.0000000000000000000 ) ) ;
#400 = ORIENTED_EDGE ( 'NONE', *, *, #505, .F. ) ;
#401 = DIRECTION ( 'NONE',  ( -1.000000000000000000, 0.0000000000000000000, 0.0000000000000000000 ) ) ;
#402 = EDGE_LOOP ( 'NONE', ( #485, #650, #271, #683 ) ) ;
#403 = ADVANCED_FACE ( 'NONE', ( #528 ), #182, .F. ) ;
#404 = CIRCLE ( 'NONE', #482, 16.71479193713284417 ) ;
#405 = AXIS2_PLACEMENT_3D ( 'NONE', #795, #113, #524 ) ;
#406 = LINE ( 'NONE', #626, #811 ) ;
#407 = VECTOR ( 'NONE', #9, 1000.000000000000000 ) ;
#408 = VERTEX_POINT ( 'NONE', #594 ) ;
#409 = ADVANCED_FACE ( 'NONE', ( #173 ), #655, .F. ) ;
#410 = CARTESIAN_POINT ( 'NONE',  ( -15.00000000000000178, 18.54912489805876064, 11.68378131063146519 ) ) ;
#411 = ORIENTED_EDGE ( 'NONE', *, *, #640, .T. ) ;
#412 = FACE_OUTER_BOUND ( 'NONE', #18, .T. ) ;
#413 = VECTOR ( 'NONE', #201, 1000.000000000000000 ) ;
#414 = CARTESIAN_POINT ( 'NONE',  ( -33.50000000000000000, 12.50868324581528057, 19.00000000000000000 ) ) ;
#415 = CARTESIAN_POINT ( 'NONE',  ( 14.99999999999999467, 38.50868324581528412, 8.000000000000000000 ) ) ;
#416 = B_SPLINE_CURVE_WITH_KNOTS ( 'NONE', 3,
 ( #132, #616, #748, #876 ),
 .UNSPECIFIED., .F., .F.,
 ( 4, 4 ),
 ( 0.02934631177944490785, 0.04638043817035912564 ),
 .UNSPECIFIED. ) ;
#417 = STYLED_ITEM ( 'NONE', ( #157 ), #794 ) ;
#418 = VERTEX_POINT ( 'NONE', #447 ) ;
#419 = DIRECTION ( 'NONE',  ( 0.0000000000000000000, -1.000000000000000000, 0.0000000000000000000 ) ) ;
#420 = EDGE_CURVE ( 'NONE', #814, #4, #160, .T. ) ;
#421 = FACE_OUTER_BOUND ( 'NONE', #463, .T. ) ;
#422 = EDGE_CURVE ( 'NONE', #337, #418, #85, .T. ) ;
#423 = ORIENTED_EDGE ( 'NONE', *, *, #152, .F. ) ;
#424 = DIRECTION ( 'NONE',  ( 0.0000000000000000000, 0.0000000000000000000, 1.000000000000000000 ) ) ;
#425 = DIRECTION ( 'NONE',  ( 0.0000000000000000000, 0.0000000000000000000, -1.000000000000000000 ) ) ;
#426 = DIRECTION ( 'NONE',  ( -1.000000000000000000, 0.0000000000000000000, 0.0000000000000000000 ) ) ;
#427 = EDGE_LOOP ( 'NONE', ( #311, #366 ) ) ;
#428 = FACE_BOUND ( 'NONE', #384, .T. ) ;
#429 = CYLINDRICAL_SURFACE ( 'NONE', #213, 1.500000000000001332 ) ;
#430 = EDGE_CURVE ( 'NONE', #443, #872, #681, .T. ) ;
#431 = ORIENTED_EDGE ( 'NONE', *, *, #510, .T. ) ;
#432 = AXIS2_PLACEMENT_3D ( 'NONE', #661, #792, #183 ) ;
#433 = DIRECTION ( 'NONE',  ( -0.4226182617406969433, -0.9063077870366512689, -0.0000000000000000000 ) ) ;
#434 = DIRECTION ( 'NONE',  ( 0.7071067811865510144, -0.7071067811865441310, 0.0000000000000000000 ) ) ;
#435 = SURFACE_STYLE_USAGE ( .BOTH. , #234 ) ;
#436 = EDGE_CURVE ( 'NONE', #486, #248, #551, .T. ) ;
#437 = ORIENTED_EDGE ( 'NONE', *, *, #667, .T. ) ;
#438 = VECTOR ( 'NONE', #523, 1000.000000000000000 ) ;
#439 = ORIENTED_EDGE ( 'NONE', *, *, #235, .F. ) ;
#440 = DIRECTION ( 'NONE',  ( -0.0000000000000000000, -0.0000000000000000000, -1.000000000000000000 ) ) ;
#441 = VECTOR ( 'NONE', #713, 1000.000000000000000 ) ;
#442 = CARTESIAN_POINT ( 'NONE',  ( 11.80868324581540207, 11.80868324581528306, 0.0000000000000000000 ) ) ;
#443 = VERTEX_POINT ( 'NONE', #587 ) ;
#444 = AXIS2_PLACEMENT_3D ( 'NONE', #324, #453, #722 ) ;
#445 = CARTESIAN_POINT ( 'NONE',  ( 14.99999999999999822, 15.93326813488059379, 19.00000000000000000 ) ) ;
#446 = ORIENTED_EDGE ( 'NONE', *, *, #63, .F. ) ;
#447 = CARTESIAN_POINT ( 'NONE',  ( -27.60000000000000497, 29.50868324581528057, 0.0000000000000000000 ) ) ;
#448 = CARTESIAN_POINT ( 'NONE',  ( -17.00000000000025935, 38.50868324581527702, 8.000000000000000000 ) ) ;
#449 = EDGE_CURVE ( 'NONE', #107, #339, #502, .T. ) ;
#450 = PRODUCT_DEFINITION ( 'UNKNOWN', '', #320, #541 ) ;
#451 = CARTESIAN_POINT ( 'NONE',  ( 14.99999999999999822, 14.99999999999983302, 0.0000000000000000000 ) ) ;
#452 = FACE_OUTER_BOUND ( 'NONE', #65, .T. ) ;
#453 = DIRECTION ( 'NONE',  ( 0.0000000000000000000, 0.0000000000000000000, 1.000000000000000000 ) ) ;
#454 = APPLICATION_PROTOCOL_DEFINITION ( 'draft international standard', 'automotive_design', 1998, #851 ) ;
#455 = DIRECTION ( 'NONE',  ( 1.000000000000000000, 0.0000000000000000000, 0.0000000000000000000 ) ) ;
#456 = CARTESIAN_POINT ( 'NONE',  ( 12.51579002700339949, 12.51579002700327692, 19.00000000000000000 ) ) ;
#457 = CARTESIAN_POINT ( 'NONE',  ( 14.99999999999999467, 38.50868324581528412, 8.000000000000000000 ) ) ;
#458 =( NAMED_UNIT ( * ) SI_UNIT ( $, .STERADIAN. ) SOLID_ANGLE_UNIT ( ) );
#459 = AXIS2_PLACEMENT_3D ( 'NONE', #210, #682, #3 ) ;
#460 = FACE_OUTER_BOUND ( 'NONE', #660, .T. ) ;
#461 = AXIS2_PLACEMENT_3D ( 'NONE', #658, #260, #584 ) ;
#462 = DIRECTION ( 'NONE',  ( -1.000000000000000000, 0.0000000000000000000, 0.0000000000000000000 ) ) ;
#463 = EDGE_LOOP ( 'NONE', ( #194, #304, #761, #251 ) ) ;
#464 = ADVANCED_FACE ( 'NONE', ( #198 ), #673, .F. ) ;
#465 = CARTESIAN_POINT ( 'NONE',  ( -12.51579002700340126, 12.51579002700327692, 19.00000000000000000 ) ) ;
#466 = EDGE_CURVE ( 'NONE', #846, #212, #136, .T. ) ;
#467 = AXIS2_PLACEMENT_3D ( 'NONE', #142, #147, #559 ) ;
#468 = CARTESIAN_POINT ( 'NONE',  ( 14.99999999999999822, 15.93326813488059379, 19.00000000000000000 ) ) ;
#469 = EDGE_LOOP ( 'NONE', ( #146, #679, #285, #526 ) ) ;
#470 = DIRECTION ( 'NONE',  ( 0.0000000000000000000, -1.000000000000000000, 0.0000000000000000000 ) ) ;
#471 = CIRCLE ( 'NONE', #53, 16.71479193713284417 ) ;
#472 = LINE ( 'NONE', #170, #612 ) ;
#473 = DIRECTION ( 'NONE',  ( -1.000000000000000000, 0.0000000000000000000, 0.0000000000000000000 ) ) ;
#474 = EDGE_CURVE ( 'NONE', #552, #59, #137, .T. ) ;
#475 = CARTESIAN_POINT ( 'NONE',  ( 11.71337608847834844, 25.11941608427318684, 0.0000000000000000000 ) ) ;
#476 =( GEOMETRIC_REPRESENTATION_CONTEXT ( 3 ) GLOBAL_UNCERTAINTY_ASSIGNED_CONTEXT ( ( #263 ) ) GLOBAL_UNIT_ASSIGNED_CONTEXT ( ( #647, #315, #162 ) ) REPRESENTATION_CONTEXT ( 'NONE', 'WORKASPACE' ) );
#477 = ORIENTED_EDGE ( 'NONE', *, *, #78, .T. ) ;
#478 = FACE_OUTER_BOUND ( 'NONE', #190, .T. ) ;
#479 = PRESENTATION_STYLE_ASSIGNMENT (( #607 ) ) ;
#480 = EDGE_CURVE ( 'NONE', #583, #814, #586, .T. ) ;
#481 = CARTESIAN_POINT ( 'NONE',  ( -24.50000000000000000, 16.50868324581528057, 8.000000000000000000 ) ) ;
#482 = AXIS2_PLACEMENT_3D ( 'NONE', #634, #424, #12 ) ;
#483 = DIRECTION ( 'NONE',  ( -1.000000000000000000, 0.0000000000000000000, 0.0000000000000000000 ) ) ;
#484 = PLANE ( 'NONE',  #754 ) ;
#485 = ORIENTED_EDGE ( 'NONE', *, *, #548, .F. ) ;
#486 = VERTEX_POINT ( 'NONE', #798 ) ;
#487 = DIRECTION ( 'NONE',  ( -0.7071067811865510144, 0.7071067811865441310, -0.0000000000000000000 ) ) ;
#488 = ORIENTED_EDGE ( 'NONE', *, *, #505, .T. ) ;
#489 = CARTESIAN_POINT ( 'NONE',  ( -15.00000000000000178, 19.78773865244101415, 8.000000000000000000 ) ) ;
#490 = FACE_OUTER_BOUND ( 'NONE', #82, .T. ) ;
#491 = EDGE_CURVE ( 'NONE', #513, #825, #787, .T. ) ;
#492 = MECHANICAL_DESIGN_GEOMETRIC_PRESENTATION_REPRESENTATION (  '', ( #417 ), #476 ) ;
#493 = ORIENTED_EDGE ( 'NONE', *, *, #174, .T. ) ;
#494 = CARTESIAN_POINT ( 'NONE',  ( 0.0000000000000000000, 0.0000000000000000000, 8.000000000000000000 ) ) ;
#495 = CARTESIAN_POINT ( 'NONE',  ( 15.00000000000000000, 2.213722637509594842E-15, 19.00000000000000000 ) ) ;
#496 = DIRECTION ( 'NONE',  ( -0.0000000000000000000, -0.0000000000000000000, -1.000000000000000000 ) ) ;
#497 = DIRECTION ( 'NONE',  ( 0.0000000000000000000, 0.0000000000000000000, 1.000000000000000000 ) ) ;
#498 = DIRECTION ( 'NONE',  ( -1.000000000000000000, 0.0000000000000000000, 0.0000000000000000000 ) ) ;
#499 = EDGE_LOOP ( 'NONE', ( #431, #70, #817, #571, #697, #269 ) ) ;
#500 = EDGE_LOOP ( 'NONE', ( #239, #38 ) ) ;
#501 = DIRECTION ( 'NONE',  ( 0.0000000000000000000, 0.0000000000000000000, -1.000000000000000000 ) ) ;
#502 = CIRCLE ( 'NONE', #328, 1.600000000000000755 ) ;
#503 = CARTESIAN_POINT ( 'NONE',  ( -26.00000000000000355, 16.50868324581528057, 8.000000000000000000 ) ) ;
#504 = VECTOR ( 'NONE', #73, 1000.000000000000000 ) ;
#505 = EDGE_CURVE ( 'NONE', #275, #799, #362, .T. ) ;
#506 = PRESENTATION_LAYER_ASSIGNMENT (  '', '', ( #691 ) ) ;
#507 = CARTESIAN_POINT ( 'NONE',  ( -33.50000000000000000, 11.80868324581527951, 8.000000000000000000 ) ) ;
#508 = CARTESIAN_POINT ( 'NONE',  ( -11.08679904018744189, 12.50868324581528057, 18.01479193713074523 ) ) ;
#509 = DIRECTION ( 'NONE',  ( -0.7071067811865526798, -0.7071067811865424657, 0.0000000000000000000 ) ) ;
#510 = EDGE_CURVE ( 'NONE', #808, #839, #105, .T. ) ;
#511 = EDGE_CURVE ( 'NONE', #486, #306, #471, .T. ) ;
#512 = PLANE ( 'NONE',  #69 ) ;
#513 = VERTEX_POINT ( 'NONE', #465 ) ;
#514 = CONICAL_SURFACE ( 'NONE', #313, 24.83051753341657886, 0.2617993877991566798 ) ;
#515 = ORIENTED_EDGE ( 'NONE', *, *, #849, .F. ) ;
#516 = CIRCLE ( 'NONE', #532, 16.71479193713284417 ) ;
#517 = CARTESIAN_POINT ( 'NONE',  ( -26.00000000000000000, 21.50868324581528057, 0.0000000000000000000 ) ) ;
#518 = LINE ( 'NONE', #495, #751 ) ;
#519 = CARTESIAN_POINT ( 'NONE',  ( -26.00000000000000355, 16.50868324581528057, 0.0000000000000000000 ) ) ;
#520 = ORIENTED_EDGE ( 'NONE', *, *, #420, .T. ) ;
#521 = ORIENTED_EDGE ( 'NONE', *, *, #491, .T. ) ;
#522 = CARTESIAN_POINT ( 'NONE',  ( -26.00000000000000355, 34.50868324581528412, 0.0000000000000000000 ) ) ;
#523 = DIRECTION ( 'NONE',  ( 0.0000000000000000000, 0.0000000000000000000, -1.000000000000000000 ) ) ;
#524 = DIRECTION ( 'NONE',  ( -1.000000000000000000, 0.0000000000000000000, 0.0000000000000000000 ) ) ;
#525 = APPLICATION_CONTEXT ( 'automotive_design' ) ;
#526 = ORIENTED_EDGE ( 'NONE', *, *, #378, .F. ) ;
#527 = DIRECTION ( 'NONE',  ( -1.000000000000000000, -1.475815091673063327E-16, 0.0000000000000000000 ) ) ;
#528 = FACE_OUTER_BOUND ( 'NONE', #645, .T. ) ;
#529 = CIRCLE ( 'NONE', #72, 1.500000000000001332 ) ;
#530 = ADVANCED_FACE ( 'NONE', ( #66 ), #230, .F. ) ;
#531 = VECTOR ( 'NONE', #286, 1000.000000000000000 ) ;
#532 = AXIS2_PLACEMENT_3D ( 'NONE', #321, #580, #663 ) ;
#533 = DIRECTION ( 'NONE',  ( 0.0000000000000000000, 0.0000000000000000000, 1.000000000000000000 ) ) ;
#534 = DIRECTION ( 'NONE',  ( 0.0000000000000000000, 0.0000000000000000000, -1.000000000000000000 ) ) ;
#535 = COLOUR_RGB ( '',0.6980392156862744724, 0.6980392156862744724, 0.6980392156862744724 ) ;
#536 = DIRECTION ( 'NONE',  ( -1.000000000000000000, 8.881784197001252323E-16, 0.0000000000000000000 ) ) ;
#537 = FACE_OUTER_BOUND ( 'NONE', #335, .T. ) ;
#538 = CARTESIAN_POINT ( 'NONE',  ( -26.00000000000000000, 21.50868324581528057, 8.000000000000000000 ) ) ;
#539 = EDGE_CURVE ( 'NONE', #570, #357, #610, .T. ) ;
#540 = DIRECTION ( 'NONE',  ( 0.0000000000000000000, 0.0000000000000000000, -1.000000000000000000 ) ) ;
#541 = PRODUCT_DEFINITION_CONTEXT ( 'detailed design', #525, 'design' ) ;
#542 = CARTESIAN_POINT ( 'NONE',  ( -15.00000000000000178, 19.78773865244101415, 8.000000000000000000 ) ) ;
#543 = ORIENTED_EDGE ( 'NONE', *, *, #628, .T. ) ;
#544 = LINE ( 'NONE', #684, #531 ) ;
#545 = EDGE_CURVE ( 'NONE', #854, #836, #16, .T. ) ;
#546 = AXIS2_PLACEMENT_3D ( 'NONE', #276, #109, #589 ) ;
#547 = DIRECTION ( 'NONE',  ( 0.0000000000000000000, 1.000000000000000000, 0.0000000000000000000 ) ) ;
#548 = EDGE_CURVE ( 'NONE', #552, #600, #288, .T. ) ;
#549 = LINE ( 'NONE', #297, #629 ) ;
#550 = PLANE ( 'NONE',  #308 ) ;
#551 = CIRCLE ( 'NONE', #111, 600.0000000000000000 ) ;
#552 = VERTEX_POINT ( 'NONE', #188 ) ;
#553 = ORIENTED_EDGE ( 'NONE', *, *, #134, .T. ) ;
#554 = CARTESIAN_POINT ( 'NONE',  ( 14.99999999999999645, 23.58683818485531702, 8.000000000000000000 ) ) ;
#555 = DIRECTION ( 'NONE',  ( 0.0000000000000000000, -0.0000000000000000000, -1.000000000000000000 ) ) ;
#556 = CARTESIAN_POINT ( 'NONE',  ( -26.00000000000000711, 29.50868324581528057, 8.000000000000000000 ) ) ;
#557 = DIRECTION ( 'NONE',  ( -1.000000000000000000, -0.0000000000000000000, -0.0000000000000000000 ) ) ;
#558 = ORIENTED_EDGE ( 'NONE', *, *, #511, .T. ) ;
#559 = DIRECTION ( 'NONE',  ( 1.000000000000000000, 0.0000000000000000000, 0.0000000000000000000 ) ) ;
#560 = FACE_BOUND ( 'NONE', #596, .T. ) ;
#561 = ORIENTED_EDGE ( 'NONE', *, *, #875, .F. ) ;
#562 = LINE ( 'NONE', #782, #727 ) ;
#563 = DIRECTION ( 'NONE',  ( 0.0000000000000000000, 0.0000000000000000000, 1.000000000000000000 ) ) ;
#564 = CARTESIAN_POINT ( 'NONE',  ( -2.698596413362719156E-14, 2.698596413362757968E-14, 1.299999999997018874 ) ) ;
#565 = DIRECTION ( 'NONE',  ( 0.0000000000000000000, 0.0000000000000000000, 1.000000000000000000 ) ) ;
#566 = DIRECTION ( 'NONE',  ( 0.0000000000000000000, 0.0000000000000000000, -1.000000000000000000 ) ) ;
#567 = AXIS2_PLACEMENT_3D ( 'NONE', #116, #871, #401 ) ;
#568 = CARTESIAN_POINT ( 'NONE',  ( 0.0000000000000000000, 16.71479193713284417, 0.9852080628692215791 ) ) ;
#569 = CARTESIAN_POINT ( 'NONE',  ( 0.0000000000000000000, 0.0000000000000000000, 19.00000000000000000 ) ) ;
#570 = VERTEX_POINT ( 'NONE', #199 ) ;
#571 = ORIENTED_EDGE ( 'NONE', *, *, #466, .T. ) ;
#572 = CARTESIAN_POINT ( 'NONE',  ( -26.00000000000000355, 34.50868324581528412, 0.0000000000000000000 ) ) ;
#573 = PLANE ( 'NONE',  #643 ) ;
#574 = VECTOR ( 'NONE', #826, 1000.000000000000000 ) ;
#575 = CIRCLE ( 'NONE', #459, 1.600000000000000755 ) ;
#576 = ORIENTED_EDGE ( 'NONE', *, *, #255, .F. ) ;
#577 = DIRECTION ( 'NONE',  ( -1.000000000000000000, 0.0000000000000000000, 0.0000000000000000000 ) ) ;
#578 = ORIENTED_EDGE ( 'NONE', *, *, #717, .T. ) ;
#579 = DIRECTION ( 'NONE',  ( -0.4999999999999892308, 0.4999999999999843459, 0.7071067811865662245 ) ) ;
#580 = DIRECTION ( 'NONE',  ( 0.0000000000000000000, 0.0000000000000000000, -1.000000000000000000 ) ) ;
#581 = EDGE_CURVE ( 'NONE', #11, #306, #21, .T. ) ;
#582 = CARTESIAN_POINT ( 'NONE',  ( -24.40000000000000568, 29.50868324581528057, 8.000000000000000000 ) ) ;
#583 = VERTEX_POINT ( 'NONE', #340 ) ;
#584 = DIRECTION ( 'NONE',  ( 1.000000000000000000, 0.0000000000000000000, 0.0000000000000000000 ) ) ;
#585 = LINE ( 'NONE', #80, #711 ) ;
#586 = LINE ( 'NONE', #343, #869 ) ;
#587 = CARTESIAN_POINT ( 'NONE',  ( -24.39999999999999858, 21.50868324581528057, 0.0000000000000000000 ) ) ;
#588 = CIRCLE ( 'NONE', #732, 1.500000000000001332 ) ;
#589 = DIRECTION ( 'NONE',  ( 1.000000000000000000, 0.0000000000000000000, 0.0000000000000000000 ) ) ;
#590 = ORIENTED_EDGE ( 'NONE', *, *, #545, .T. ) ;
#591 = ORIENTED_EDGE ( 'NONE', *, *, #511, .F. ) ;
#592 = ADVANCED_FACE ( 'NONE', ( #769 ), #197, .F. ) ;
#593 =( NAMED_UNIT ( * ) PLANE_ANGLE_UNIT ( ) SI_UNIT ( $, .RADIAN. ) );
#594 = CARTESIAN_POINT ( 'NONE',  ( -27.50000000000000355, 16.50868324581528057, 0.0000000000000000000 ) ) ;
#595 = AXIS2_PLACEMENT_3D ( 'NONE', #556, #295, #633 ) ;
#596 = EDGE_LOOP ( 'NONE', ( #112, #273 ) ) ;
#597 = VERTEX_POINT ( 'NONE', #77 ) ;
#598 = DIRECTION ( 'NONE',  ( 0.0000000000000000000, 0.0000000000000000000, 1.000000000000000000 ) ) ;
#599 = LINE ( 'NONE', #233, #441 ) ;
#600 = VERTEX_POINT ( 'NONE', #489 ) ;
#601 = CARTESIAN_POINT ( 'NONE',  ( 14.99999999999999822, 18.54940236670720566, 11.68295608661162888 ) ) ;
#602 = EDGE_CURVE ( 'NONE', #786, #778, #41, .T. ) ;
#603 = ORIENTED_EDGE ( 'NONE', *, *, #436, .F. ) ;
#604 = ADVANCED_FACE ( 'NONE', ( #373 ), #514, .T. ) ;
#605 = DIRECTION ( 'NONE',  ( 0.0000000000000000000, 0.0000000000000000000, 1.000000000000000000 ) ) ;
#606 = ORIENTED_EDGE ( 'NONE', *, *, #545, .F. ) ;
#607 = SURFACE_STYLE_USAGE ( .BOTH. , #789 ) ;
#608 = LINE ( 'NONE', #293, #241 ) ;
#609 = CARTESIAN_POINT ( 'NONE',  ( 0.0000000000000000000, 0.0000000000000000000, 18.01479193713074523 ) ) ;
#610 = LINE ( 'NONE', #336, #413 ) ;
#611 = CARTESIAN_POINT ( 'NONE',  ( -17.00000000000026645, 38.50868324581527702, 8.000000000000000000 ) ) ;
#612 = VECTOR ( 'NONE', #501, 1000.000000000000000 ) ;
#613 = ORIENTED_EDGE ( 'NONE', *, *, #280, .T. ) ;
#614 = EDGE_CURVE ( 'NONE', #836, #357, #28, .T. ) ;
#615 = DIRECTION ( 'NONE',  ( 0.0000000000000000000, -1.000000000000000000, 0.0000000000000000000 ) ) ;
#616 = CARTESIAN_POINT ( 'NONE',  ( -11.20836276945948740, 12.50868324581528057, 6.666442213524172544 ) ) ;
#617 = EDGE_LOOP ( 'NONE', ( #843, #23 ) ) ;
#618 = ORIENTED_EDGE ( 'NONE', *, *, #31, .F. ) ;
#619 = AXIS2_PLACEMENT_3D ( 'NONE', #457, #527, #46 ) ;
#620 = VECTOR ( 'NONE', #151, 1000.000000000000000 ) ;
#621 = LINE ( 'NONE', #818, #208 ) ;
#622 = ORIENTED_EDGE ( 'NONE', *, *, #780, .T. ) ;
#623 = CARTESIAN_POINT ( 'NONE',  ( 14.99999999999999467, 38.50868324581528412, 0.0000000000000000000 ) ) ;
#624 = DIRECTION ( 'NONE',  ( 0.0000000000000000000, 0.0000000000000000000, 1.000000000000000000 ) ) ;
#625 = AXIS2_PLACEMENT_3D ( 'NONE', #517, #853, #455 ) ;
#626 = CARTESIAN_POINT ( 'NONE',  ( -15.00000000000000178, 12.50868324581528057, 8.000000000000000000 ) ) ;
#627 = CARTESIAN_POINT ( 'NONE',  ( -12.50868324581540669, 12.50868324581528057, 19.00000000000000000 ) ) ;
#628 = EDGE_CURVE ( 'NONE', #212, #552, #54, .T. ) ;
#629 = VECTOR ( 'NONE', #771, 1000.000000000000000 ) ;
#630 = CARTESIAN_POINT ( 'NONE',  ( -26.00000000000000000, 21.50868324581528057, 19.00000000000000000 ) ) ;
#631 = DIRECTION ( 'NONE',  ( -1.000000000000000000, 0.0000000000000000000, 0.0000000000000000000 ) ) ;
#632 = CYLINDRICAL_SURFACE ( 'NONE', #856, 1.500000000000001332 ) ;
#633 = DIRECTION ( 'NONE',  ( -1.000000000000000000, 0.0000000000000000000, 0.0000000000000000000 ) ) ;
#634 = CARTESIAN_POINT ( 'NONE',  ( 0.0000000000000000000, 0.0000000000000000000, 18.01479193713074523 ) ) ;
#635 = DIRECTION ( 'NONE',  ( -1.000000000000000000, 0.0000000000000000000, 0.0000000000000000000 ) ) ;
#636 = B_SPLINE_CURVE_WITH_KNOTS ( 'NONE', 3,
 ( #859, #387, #725, #178 ),
 .UNSPECIFIED., .F., .F.,
 ( 4, 4 ),
 ( 0.02934631177944482805, 0.04638043817035904931 ),
 .UNSPECIFIED. ) ;
#637 = DIRECTION ( 'NONE',  ( -0.0000000000000000000, -1.000000000000000000, -0.0000000000000000000 ) ) ;
#638 = ORIENTED_EDGE ( 'NONE', *, *, #430, .T. ) ;
#639 = LINE ( 'NONE', #91, #254 ) ;
#640 = EDGE_CURVE ( 'NONE', #600, #846, #737, .T. ) ;
#641 = LINE ( 'NONE', #623, #504 ) ;
#642 = DIRECTION ( 'NONE',  ( 1.000000000000000000, 0.0000000000000000000, 0.0000000000000000000 ) ) ;
#643 = AXIS2_PLACEMENT_3D ( 'NONE', #317, #840, #509 ) ;
#644 = ORIENTED_EDGE ( 'NONE', *, *, #203, .T. ) ;
#645 = EDGE_LOOP ( 'NONE', ( #278, #348, #439, #179 ) ) ;
#646 = DIRECTION ( 'NONE',  ( 0.0000000000000000000, 0.0000000000000000000, -1.000000000000000000 ) ) ;
#647 =( LENGTH_UNIT ( ) NAMED_UNIT ( * ) SI_UNIT ( .MILLI., .METRE. ) );
#648 = EDGE_CURVE ( 'NONE', #133, #486, #404, .T. ) ;
#649 = AXIS2_PLACEMENT_3D ( 'NONE', #519, #848, #716 ) ;
#650 = ORIENTED_EDGE ( 'NONE', *, *, #628, .F. ) ;
#651 = CARTESIAN_POINT ( 'NONE',  ( -27.50000000000000355, 34.50868324581528412, 0.0000000000000000000 ) ) ;
#652 = DIRECTION ( 'NONE',  ( -0.0000000000000000000, 1.369518533665900558E-16, -1.000000000000000000 ) ) ;
#653 = FACE_OUTER_BOUND ( 'NONE', #139, .T. ) ;
#654 = PRODUCT_CONTEXT ( 'NONE', #851, 'mechanical' ) ;
#655 = TOROIDAL_SURFACE ( 'NONE', #878, -583.2247869524977659, 600.0000000000000000 ) ;
#656 = CIRCLE ( 'NONE', #19, 1.600000000000000755 ) ;
#657 = DIRECTION ( 'NONE',  ( 0.0000000000000000000, 0.0000000000000000000, -1.000000000000000000 ) ) ;
#658 = CARTESIAN_POINT ( 'NONE',  ( 0.0000000000000000000, 0.0000000000000000000, 0.9852080628692215791 ) ) ;
#659 = EDGE_CURVE ( 'NONE', #854, #11, #104, .T. ) ;
#660 = EDGE_LOOP ( 'NONE', ( #520, #215, #88, #115, #874, #790, #158 ) ) ;
#661 = CARTESIAN_POINT ( 'NONE',  ( 0.0000000000000000000, 0.0000000000000000000, 0.0000000000000000000 ) ) ;
#662 = VECTOR ( 'NONE', #470, 1000.000000000000000 ) ;
#663 = DIRECTION ( 'NONE',  ( 1.000000000000000000, 0.0000000000000000000, 0.0000000000000000000 ) ) ;
#664 = ADVANCED_FACE ( 'NONE', ( #653 ), #90, .T. ) ;
#665 = AXIS2_PLACEMENT_3D ( 'NONE', #231, #419, #555 ) ;
#666 = CARTESIAN_POINT ( 'NONE',  ( 14.99999999999999467, 38.50868324581528412, 0.0000000000000000000 ) ) ;
#667 = EDGE_CURVE ( 'NONE', #43, #204, #585, .T. ) ;
#668 = ORIENTED_EDGE ( 'NONE', *, *, #739, .T. ) ;
#669 = CARTESIAN_POINT ( 'NONE',  ( -15.00000000000000178, 15.93326813488055116, 19.00000000000000000 ) ) ;
#670 = CYLINDRICAL_SURFACE ( 'NONE', #850, 1.600000000000000755 ) ;
#671 = ADVANCED_FACE ( 'NONE', ( #83, #560, #428, #13, #460 ), #484, .T. ) ;
#672 = ORIENTED_EDGE ( 'NONE', *, *, #686, .F. ) ;
#673 = TOROIDAL_SURFACE ( 'NONE', #265, -583.2247869524977659, 600.0000000000000000 ) ;
#674 = ORIENTED_EDGE ( 'NONE', *, *, #420, .F. ) ;
#675 = DIRECTION ( 'NONE',  ( 0.0000000000000000000, 0.0000000000000000000, -1.000000000000000000 ) ) ;
#676 = EDGE_CURVE ( 'NONE', #597, #694, #868, .T. ) ;
#677 = ORIENTED_EDGE ( 'NONE', *, *, #284, .T. ) ;
#678 = DIRECTION ( 'NONE',  ( -1.475815091673063327E-16, 1.000000000000000000, -0.0000000000000000000 ) ) ;
#679 = ORIENTED_EDGE ( 'NONE', *, *, #255, .T. ) ;
#680 = EDGE_LOOP ( 'NONE', ( #400, #169 ) ) ;
#681 = CIRCLE ( 'NONE', #625, 1.600000000000000755 ) ;
#682 = DIRECTION ( 'NONE',  ( 0.0000000000000000000, 0.0000000000000000000, 1.000000000000000000 ) ) ;
#683 = ORIENTED_EDGE ( 'NONE', *, *, #640, .F. ) ;
#684 = CARTESIAN_POINT ( 'NONE',  ( -15.00000000000000178, 14.99999999999985256, 19.00000000000000000 ) ) ;
#685 = DIRECTION ( 'NONE',  ( -1.000000000000000000, 0.0000000000000000000, 0.0000000000000000000 ) ) ;
#686 = EDGE_CURVE ( 'NONE', #854, #687, #608, .T. ) ;
#687 = VERTEX_POINT ( 'NONE', #759 ) ;
#688 = LINE ( 'NONE', #448, #214 ) ;
#689 = DIRECTION ( 'NONE',  ( 1.430699774001490481E-16, -1.000000000000000000, 0.0000000000000000000 ) ) ;
#690 = EDGE_LOOP ( 'NONE', ( #603, #558, #618, #102 ) ) ;
#691 = STYLED_ITEM ( 'NONE', ( #479 ), #838 ) ;
#692 = ORIENTED_EDGE ( 'NONE', *, *, #449, .F. ) ;
#693 = CARTESIAN_POINT ( 'NONE',  ( 14.99999999999999822, 14.99999999999983302, 8.000000000000000000 ) ) ;
#694 = VERTEX_POINT ( 'NONE', #481 ) ;
#695 = CARTESIAN_POINT ( 'NONE',  ( 11.56594382181913794, 12.50868324581528057, 0.6673948394031735676 ) ) ;
#696 = ORIENTED_EDGE ( 'NONE', *, *, #184, .F. ) ;
#697 = ORIENTED_EDGE ( 'NONE', *, *, #78, .F. ) ;
#698 = EDGE_CURVE ( 'NONE', #4, #357, #292, .T. ) ;
#699 = CIRCLE ( 'NONE', #546, 1.600000000000000755 ) ;
#700 = VERTEX_POINT ( 'NONE', #358 ) ;
#701 = CARTESIAN_POINT ( 'NONE',  ( -11.08679904018734419, 12.50868324581528057, 0.9852080628692236886 ) ) ;
#702 = AXIS2_PLACEMENT_3D ( 'NONE', #569, #22, #237 ) ;
#703 = PRODUCT ( '03_061_gripper_bracket_1', '03_061_gripper_bracket_1', '', ( #654 ) ) ;
#704 = CARTESIAN_POINT ( 'NONE',  ( -24.50000000000000000, 34.50868324581528412, 0.0000000000000000000 ) ) ;
#705 = CYLINDRICAL_SURFACE ( 'NONE', #118, 1.600000000000000755 ) ;
#706 = LINE ( 'NONE', #554, #407 ) ;
#707 = CARTESIAN_POINT ( 'NONE',  ( -26.00000000000000000, 21.50868324581528057, 19.00000000000000000 ) ) ;
#708 = EDGE_CURVE ( 'NONE', #316, #808, #39, .T. ) ;
#709 = DIRECTION ( 'NONE',  ( 0.0000000000000000000, 0.0000000000000000000, -1.000000000000000000 ) ) ;
#710 = CARTESIAN_POINT ( 'NONE',  ( -24.39999999999999858, 21.50868324581528057, 19.00000000000000000 ) ) ;
#711 = VECTOR ( 'NONE', #363, 1000.000000000000000 ) ;
#712 = EDGE_CURVE ( 'NONE', #339, #337, #549, .T. ) ;
#713 = DIRECTION ( 'NONE',  ( 0.0000000000000000000, 0.0000000000000000000, -1.000000000000000000 ) ) ;
#714 = VERTEX_POINT ( 'NONE', #369 ) ;
#715 = DIRECTION ( 'NONE',  ( -1.000000000000000000, 0.0000000000000000000, 0.0000000000000000000 ) ) ;
#716 = DIRECTION ( 'NONE',  ( 1.000000000000000000, 0.0000000000000000000, 0.0000000000000000000 ) ) ;
#717 = EDGE_CURVE ( 'NONE', #11, #513, #380, .T. ) ;
#718 = VERTEX_POINT ( 'NONE', #165 ) ;
#719 = DIRECTION ( 'NONE',  ( -1.000000000000000000, 0.0000000000000000000, 0.0000000000000000000 ) ) ;
#720 = CARTESIAN_POINT ( 'NONE',  ( -27.59999999999999787, 21.50868324581528057, 0.0000000000000000000 ) ) ;
#721 = ORIENTED_EDGE ( 'NONE', *, *, #92, .F. ) ;
#722 = DIRECTION ( 'NONE',  ( 1.000000000000000000, 0.0000000000000000000, 0.0000000000000000000 ) ) ;
#723 = ORIENTED_EDGE ( 'NONE', *, *, #298, .F. ) ;
#724 = ADVANCED_FACE ( 'NONE', ( #359 ), #573, .F. ) ;
#725 = CARTESIAN_POINT ( 'NONE',  ( 11.20816150465968342, 12.50868324581528057, 6.657036180475516041 ) ) ;
#726 = VECTOR ( 'NONE', #121, 1000.000000000000000 ) ;
#727 = VECTOR ( 'NONE', #375, 1000.000000000000000 ) ;
#728 = LINE ( 'NONE', #153, #394 ) ;
#729 = DIRECTION ( 'NONE',  ( 0.0000000000000000000, 0.0000000000000000000, 1.000000000000000000 ) ) ;
#730 = DIRECTION ( 'NONE',  ( -1.000000000000000000, 0.0000000000000000000, 0.0000000000000000000 ) ) ;
#731 = CARTESIAN_POINT ( 'NONE',  ( 0.0000000000000000000, 0.0000000000000000000, 9.500000000000079936 ) ) ;
#732 = AXIS2_PLACEMENT_3D ( 'NONE', #95, #246, #93 ) ;
#733 = AXIS2_PLACEMENT_3D ( 'NONE', #100, #433, #832 ) ;
#734 = DIRECTION ( 'NONE',  ( 0.4999999999999838463, 0.4999999999999766298, -0.7071067811865755504 ) ) ;
#735 = EDGE_LOOP ( 'NONE', ( #61, #740, #232, #302 ) ) ;
#736 = ADVANCED_FACE ( 'NONE', ( #171 ), #17, .F. ) ;
#737 = CIRCLE ( 'NONE', #261, 24.83051753341657886 ) ;
#738 = FACE_OUTER_BOUND ( 'NONE', #245, .T. ) ;
#739 = EDGE_CURVE ( 'NONE', #694, #597, #390, .T. ) ;
#740 = ORIENTED_EDGE ( 'NONE', *, *, #712, .T. ) ;
#741 = ADVANCED_FACE ( 'NONE', ( #412 ), #374, .F. ) ;
#742 = CARTESIAN_POINT ( 'NONE',  ( -24.50000000000000000, 34.50868324581528412, 19.00000000000000000 ) ) ;
#743 = CARTESIAN_POINT ( 'NONE',  ( -26.00000000000000711, 29.50868324581528057, 8.000000000000000000 ) ) ;
#744 = CARTESIAN_POINT ( 'NONE',  ( -26.00000000000000711, 29.50868324581528057, 19.00000000000000000 ) ) ;
#745 = ORIENTED_EDGE ( 'NONE', *, *, #686, .T. ) ;
#746 = ORIENTED_EDGE ( 'NONE', *, *, #106, .F. ) ;
#747 = LINE ( 'NONE', #159, #820 ) ;
#748 = CARTESIAN_POINT ( 'NONE',  ( -11.20816150465972072, 12.50868324581528057, 12.34296381952445287 ) ) ;
#749 = SURFACE_STYLE_FILL_AREA ( #258 ) ;
#750 = EDGE_CURVE ( 'NONE', #825, #52, #228, .T. ) ;
#751 = VECTOR ( 'NONE', #224, 1000.000000000000000 ) ;
#752 = AXIS2_PLACEMENT_3D ( 'NONE', #503, #30, #247 ) ;
#753 = CARTESIAN_POINT ( 'NONE',  ( -33.50000000000000000, 38.50868324581527702, 8.000000000000000000 ) ) ;
#754 = AXIS2_PLACEMENT_3D ( 'NONE', #217, #301, #631 ) ;
#755 = EDGE_LOOP ( 'NONE', ( #310, #493, #830, #122, #389, #674 ) ) ;
#756 = VECTOR ( 'NONE', #440, 1000.000000000000000 ) ;
#757 = DIRECTION ( 'NONE',  ( 1.000000000000000000, 1.430699774001490481E-16, 0.0000000000000000000 ) ) ;
#758 = FACE_OUTER_BOUND ( 'NONE', #32, .T. ) ;
#759 = CARTESIAN_POINT ( 'NONE',  ( -15.00000000000000178, 14.99999999999985256, 8.000000000000000000 ) ) ;
#760 = LINE ( 'NONE', #475, #364 ) ;
#761 = ORIENTED_EDGE ( 'NONE', *, *, #800, .T. ) ;
#762 = DIRECTION ( 'NONE',  ( -1.000000000000000000, 0.0000000000000000000, 0.0000000000000000000 ) ) ;
#763 = DIRECTION ( 'NONE',  ( -1.000000000000000000, 0.0000000000000000000, 0.0000000000000000000 ) ) ;
#764 = CARTESIAN_POINT ( 'NONE',  ( -33.50000000000000000, 12.50868324581528057, 0.0000000000000000000 ) ) ;
#765 = ORIENTED_EDGE ( 'NONE', *, *, #805, .F. ) ;
#766 = ORIENTED_EDGE ( 'NONE', *, *, #614, .F. ) ;
#767 = VECTOR ( 'NONE', #534, 1000.000000000000000 ) ;
#768 = DIRECTION ( 'NONE',  ( -1.000000000000000000, 0.0000000000000000000, 0.0000000000000000000 ) ) ;
#769 = FACE_OUTER_BOUND ( 'NONE', #755, .T. ) ;
#770 = FACE_OUTER_BOUND ( 'NONE', #98, .T. ) ;
#771 = DIRECTION ( 'NONE',  ( 0.0000000000000000000, 0.0000000000000000000, -1.000000000000000000 ) ) ;
#772 = CARTESIAN_POINT ( 'NONE',  ( -27.59999999999999787, 21.50868324581528057, 8.000000000000000000 ) ) ;
#773 = FILL_AREA_STYLE ('',( #837 ) ) ;
#774 = AXIS2_PLACEMENT_3D ( 'NONE', #522, #252, #35 ) ;
#775 = VERTEX_POINT ( 'NONE', #651 ) ;
#776 = CARTESIAN_POINT ( 'NONE',  ( -27.60000000000000497, 29.50868324581528057, 19.00000000000000000 ) ) ;
#777 = PLANE ( 'NONE',  #733 ) ;
#778 = VERTEX_POINT ( 'NONE', #704 ) ;
#779 = CARTESIAN_POINT ( 'NONE',  ( 12.03909452726090024, 12.50868324581528057, 18.65790012640050577 ) ) ;
#780 = EDGE_CURVE ( 'NONE', #316, #825, #206, .T. ) ;
#781 = AXIS2_PLACEMENT_3D ( 'NONE', #507, #27, #566 ) ;
#782 = CARTESIAN_POINT ( 'NONE',  ( -17.00000000000026645, 38.50868324581527702, 8.000000000000000000 ) ) ;
#783 = DIRECTION ( 'NONE',  ( -0.9063077870366512689, 0.4226182617406969433, -0.0000000000000000000 ) ) ;
#784 = CARTESIAN_POINT ( 'NONE',  ( -11.08679904018734419, 12.50868324581528057, 0.9852080628692236886 ) ) ;
#785 = ORIENTED_EDGE ( 'NONE', *, *, #184, .T. ) ;
#786 = VERTEX_POINT ( 'NONE', #381 ) ;
#787 = CIRCLE ( 'NONE', #567, 17.70000000000204921 ) ;
#788 = LINE ( 'NONE', #370, #574 ) ;
#789 = SURFACE_SIDE_STYLE ('',( #749 ) ) ;
#790 = ORIENTED_EDGE ( 'NONE', *, *, #510, .F. ) ;
#791 = ADVANCED_FACE ( 'NONE', ( #845 ), #274, .F. ) ;
#792 = DIRECTION ( 'NONE',  ( 0.0000000000000000000, 0.0000000000000000000, 1.000000000000000000 ) ) ;
#793 = EDGE_CURVE ( 'NONE', #204, #836, #747, .T. ) ;
#794 = MANIFOLD_SOLID_BREP ( 'Schnitt-Linear austragen4', #844 ) ;
#795 = CARTESIAN_POINT ( 'NONE',  ( -26.00000000000000355, 34.50868324581528412, 19.00000000000000000 ) ) ;
#796 = EDGE_CURVE ( 'NONE', #133, #52, #10, .T. ) ;
#797 = ADVANCED_FACE ( 'NONE', ( #478 ), #777, .F. ) ;
#798 = CARTESIAN_POINT ( 'NONE',  ( 0.0000000000000000000, 16.71479193713284417, 18.01479193713074523 ) ) ;
#799 = VERTEX_POINT ( 'NONE', #244 ) ;
#800 = EDGE_CURVE ( 'NONE', #133, #718, #636, .T. ) ;
#801 = EDGE_LOOP ( 'NONE', ( #222, #606, #745, #862, #411, #371, #227, #437 ) ) ;
#802 = ORIENTED_EDGE ( 'NONE', *, *, #750, .F. ) ;
#803 = VECTOR ( 'NONE', #557, 1000.000000000000000 ) ;
#804 = CARTESIAN_POINT ( 'NONE',  ( 14.99999999999999822, 17.27525539799167831, 15.35336388033537247 ) ) ;
#805 = EDGE_CURVE ( 'NONE', #700, #43, #688, .T. ) ;
#806 = CARTESIAN_POINT ( 'NONE',  ( -12.50868324581540847, 12.50868324581528057, 18.98994949365911822 ) ) ;
#807 = ORIENTED_EDGE ( 'NONE', *, *, #667, .F. ) ;
#808 = VERTEX_POINT ( 'NONE', #451 ) ;
#809 = CIRCLE ( 'NONE', #649, 1.500000000000001332 ) ;
#810 = ORIENTED_EDGE ( 'NONE', *, *, #648, .F. ) ;
#811 = VECTOR ( 'NONE', #547, 1000.000000000000000 ) ;
#812 = AXIS2_PLACEMENT_3D ( 'NONE', #414, #615, #207 ) ;
#813 = PLANE ( 'NONE',  #812 ) ;
#814 = VERTEX_POINT ( 'NONE', #47 ) ;
#815 = DIRECTION ( 'NONE',  ( 0.0000000000000000000, 0.0000000000000000000, -1.000000000000000000 ) ) ;
#816 = DIRECTION ( 'NONE',  ( -1.000000000000000000, 0.0000000000000000000, 0.0000000000000000000 ) ) ;
#817 = ORIENTED_EDGE ( 'NONE', *, *, #140, .F. ) ;
#818 = CARTESIAN_POINT ( 'NONE',  ( -14.99999999999999112, 14.99999999999984190, 19.00000000000000000 ) ) ;
#819 = CARTESIAN_POINT ( 'NONE',  ( -26.00000000000000355, 16.50868324581528057, 8.000000000000000000 ) ) ;
#820 = VECTOR ( 'NONE', #637, 1000.000000000000000 ) ;
#821 = CARTESIAN_POINT ( 'NONE',  ( -26.00000000000000355, 16.50868324581528057, 19.00000000000000000 ) ) ;
#822 = FACE_OUTER_BOUND ( 'NONE', #499, .T. ) ;
#823 = CARTESIAN_POINT ( 'NONE',  ( 0.0000000000000000000, 0.0000000000000000000, 19.00000000000000000 ) ) ;
#824 = FACE_BOUND ( 'NONE', #680, .T. ) ;
#825 = VERTEX_POINT ( 'NONE', #456 ) ;
#826 = DIRECTION ( 'NONE',  ( -1.475815091673063327E-16, 1.000000000000000000, -0.0000000000000000000 ) ) ;
#827 = B_SPLINE_CURVE_WITH_KNOTS ( 'NONE', 3,
 ( #87, #229, #695, #299 ),
 .UNSPECIFIED., .F., .F.,
 ( 4, 4 ),
 ( 0.02015369424678890159, 0.02188026625866576480 ),
 .UNSPECIFIED. ) ;
#828 = CARTESIAN_POINT ( 'NONE',  ( -26.00000000000000711, 29.50868324581528057, 19.00000000000000000 ) ) ;
#829 = EDGE_CURVE ( 'NONE', #872, #443, #699, .T. ) ;
#830 = ORIENTED_EDGE ( 'NONE', *, *, #365, .F. ) ;
#831 = PLANE ( 'NONE',  #161 ) ;
#832 = DIRECTION ( 'NONE',  ( 0.0000000000000000000, 0.0000000000000000000, -1.000000000000000000 ) ) ;
#833 = VECTOR ( 'NONE', #678, 1000.000000000000000 ) ;
#834 = FACE_OUTER_BOUND ( 'NONE', #735, .T. ) ;
#835 = DIRECTION ( 'NONE',  ( -1.000000000000000000, 0.0000000000000000000, 0.0000000000000000000 ) ) ;
#836 = VERTEX_POINT ( 'NONE', #181 ) ;
#837 = FILL_AREA_STYLE_COLOUR ( '', #144 ) ;
#838 = ADVANCED_BREP_SHAPE_REPRESENTATION ( '03_061_gripper_bracket_1', ( #794, #432 ), #347 ) ;
#839 = VERTEX_POINT ( 'NONE', #110 ) ;
#840 = DIRECTION ( 'NONE',  ( -0.7071067811865424657, 0.7071067811865526798, 0.0000000000000000000 ) ) ;
#841 = ORIENTED_EDGE ( 'NONE', *, *, #829, .T. ) ;
#842 = CARTESIAN_POINT ( 'NONE',  ( 11.56547781443820355, 12.50868324581528057, 18.33229606131501654 ) ) ;
#843 = ORIENTED_EDGE ( 'NONE', *, *, #51, .T. ) ;
#844 = CLOSED_SHELL ( 'NONE', ( #403, #114, #119, #124, #409, #186, #736, #604, #724, #741, #64, #671, #464, #592, #341, #393, #55, #857, #791, #530, #398, #797, #48, #664, #191 ) ) ;
#845 = FACE_OUTER_BOUND ( 'NONE', #56, .T. ) ;
#846 = VERTEX_POINT ( 'NONE', #385 ) ;
#847 = APPLICATION_PROTOCOL_DEFINITION ( 'draft international standard', 'automotive_design', 1998, #525 ) ;
#848 = DIRECTION ( 'NONE',  ( 0.0000000000000000000, 0.0000000000000000000, 1.000000000000000000 ) ) ;
#849 = EDGE_CURVE ( 'NONE', #6, #408, #809, .T. ) ;
#850 = AXIS2_PLACEMENT_3D ( 'NONE', #744, #540, #730 ) ;
#851 = APPLICATION_CONTEXT ( 'automotive_design' ) ;
#852 = UNCERTAINTY_MEASURE_WITH_UNIT (LENGTH_MEASURE( 1.000000000000000082E-05 ), #200, 'distance_accuracy_value', 'NONE');
#853 = DIRECTION ( 'NONE',  ( 0.0000000000000000000, 0.0000000000000000000, 1.000000000000000000 ) ) ;
#854 = VERTEX_POINT ( 'NONE', #40 ) ;
#855 =( NAMED_UNIT ( * ) PLANE_ANGLE_UNIT ( ) SI_UNIT ( $, .RADIAN. ) );
#856 = AXIS2_PLACEMENT_3D ( 'NONE', #821, #815, #426 ) ;
#857 = ADVANCED_FACE ( 'NONE', ( #291 ), #670, .F. ) ;
#858 = VECTOR ( 'NONE', #379, 1000.000000000000000 ) ;
#859 = CARTESIAN_POINT ( 'NONE',  ( 11.08679904018744367, 12.50868324581528057, 18.01479193713074167 ) ) ;
#860 = ORIENTED_EDGE ( 'NONE', *, *, #474, .T. ) ;
#861 = DIRECTION ( 'NONE',  ( 0.0000000000000000000, 1.000000000000000000, 1.369518533665900558E-16 ) ) ;
#862 = ORIENTED_EDGE ( 'NONE', *, *, #152, .T. ) ;
#863 = UNCERTAINTY_MEASURE_WITH_UNIT (LENGTH_MEASURE( 1.000000000000000082E-05 ), #396, 'distance_accuracy_value', 'NONE');
#864 = ORIENTED_EDGE ( 'NONE', *, *, #474, .F. ) ;
#865 = DIRECTION ( 'NONE',  ( -1.000000000000000000, 0.0000000000000000000, 0.0000000000000000000 ) ) ;
#866 = ORIENTED_EDGE ( 'NONE', *, *, #45, .F. ) ;
#867 = EDGE_CURVE ( 'NONE', #238, #248, #71, .T. ) ;
#868 = CIRCLE ( 'NONE', #242, 1.500000000000001332 ) ;
#869 = VECTOR ( 'NONE', #734, 1000.000000000000000 ) ;
#870 = FACE_BOUND ( 'NONE', #226, .T. ) ;
#871 = DIRECTION ( 'NONE',  ( 0.0000000000000000000, 0.0000000000000000000, -1.000000000000000000 ) ) ;
#872 = VERTEX_POINT ( 'NONE', #720 ) ;
#873 = ORIENTED_EDGE ( 'NONE', *, *, #491, .F. ) ;
#874 = ORIENTED_EDGE ( 'NONE', *, *, #45, .T. ) ;
#875 = EDGE_CURVE ( 'NONE', #275, #872, #307, .T. ) ;
#876 = CARTESIAN_POINT ( 'NONE',  ( -11.08679904018744189, 12.50868324581528057, 18.01479193713074523 ) ) ;
#877 = VERTEX_POINT ( 'NONE', #325 ) ;
#878 = AXIS2_PLACEMENT_3D ( 'NONE', #731, #652, #257 ) ;
ENDSEC;
END-ISO-10303-21;
