ISO-10303-21;
HEADER;
FILE_DESCRIPTION (( 'STEP AP214' ),
    '1' );
FILE_NAME ('03_063_adapterplate.STEP',
    '2020-10-08T14:43:22',
    ( '' ),
    ( '' ),
    'SwSTEP 2.0',
    'SolidWorks 2018',
    '' );
FILE_SCHEMA (( 'AUTOMOTIVE_DESIGN' ));
ENDSEC;

DATA;
#1 = DIRECTION ( 'NONE',  ( 0.0000000000000000000, 0.0000000000000000000, -1.000000000000000000 ) ) ;
#2 =( LENGTH_UNIT ( ) NAMED_UNIT ( * ) SI_UNIT ( .MILLI., .METRE. ) );
#3 = EDGE_CURVE ( 'NONE', #877, #723, #479, .T. ) ;
#4 = ORIENTED_EDGE ( 'NONE', *, *, #300, .F. ) ;
#5 = ADVANCED_FACE ( 'NONE', ( #947 ), #835, .T. ) ;
#6 = DIRECTION ( 'NONE',  ( 0.0000000000000000000, 0.0000000000000000000, -1.000000000000000000 ) ) ;
#7 = AXIS2_PLACEMENT_3D ( 'NONE', #846, #28, #48 ) ;
#8 = ORIENTED_EDGE ( 'NONE', *, *, #170, .T. ) ;
#9 = CIRCLE ( 'NONE', #81, 2.999999999999999112 ) ;
#10 = CIRCLE ( 'NONE', #803, 2.999999999999988898 ) ;
#11 = VECTOR ( 'NONE', #1026, 1000.000000000000000 ) ;
#12 = FACE_BOUND ( 'NONE', #957, .T. ) ;
#13 = EDGE_CURVE ( 'NONE', #44, #301, #715, .T. ) ;
#14 = VERTEX_POINT ( 'NONE', #182 ) ;
#15 = ORIENTED_EDGE ( 'NONE', *, *, #494, .F. ) ;
#16 = EDGE_CURVE ( 'NONE', #305, #581, #227, .T. ) ;
#17 = CARTESIAN_POINT ( 'NONE',  ( -17.67766952966378469, 0.0000000000000000000, -13.42766952966360172 ) ) ;
#18 = VERTEX_POINT ( 'NONE', #414 ) ;
#19 = CARTESIAN_POINT ( 'NONE',  ( -3.345972796008245199E-15, -1.187907395172929833E-15, 24.00000000000000000 ) ) ;
#20 = VECTOR ( 'NONE', #158, 1000.000000000000000 ) ;
#21 = APPLICATION_CONTEXT ( 'automotive_design' ) ;
#22 = CIRCLE ( 'NONE', #519, 4.249999999999994671 ) ;
#23 = DIRECTION ( 'NONE',  ( -0.0000000000000000000, 1.000000000000000000, -0.0000000000000000000 ) ) ;
#24 = EDGE_LOOP ( 'NONE', ( #372, #106, #308, #456 ) ) ;
#25 = DIRECTION ( 'NONE',  ( -0.0000000000000000000, -1.000000000000000000, -0.0000000000000000000 ) ) ;
#26 = DIRECTION ( 'NONE',  ( 0.0000000000000000000, 0.0000000000000000000, 1.000000000000000000 ) ) ;
#27 = EDGE_CURVE ( 'NONE', #545, #437, #363, .T. ) ;
#28 = DIRECTION ( 'NONE',  ( 0.0000000000000000000, 1.000000000000000000, 0.0000000000000000000 ) ) ;
#29 = EDGE_LOOP ( 'NONE', ( #985, #341, #658, #321 ) ) ;
#30 = CARTESIAN_POINT ( 'NONE',  ( 0.0000000000000000000, 9.000000000000001776, 0.0000000000000000000 ) ) ;
#31 = CARTESIAN_POINT ( 'NONE',  ( 0.0000000000000000000, 5.000000000000000888, -31.50000000000000000 ) ) ;
#32 = ORIENTED_EDGE ( 'NONE', *, *, #368, .T. ) ;
#33 = AXIS2_PLACEMENT_3D ( 'NONE', #758, #843, #351 ) ;
#34 = CIRCLE ( 'NONE', #665, 31.50000000000000000 ) ;
#35 = DIRECTION ( 'NONE',  ( 0.0000000000000000000, -1.000000000000000000, -0.0000000000000000000 ) ) ;
#36 = PLANE ( 'NONE',  #578 ) ;
#37 = LINE ( 'NONE', #489, #190 ) ;
#38 = FACE_OUTER_BOUND ( 'NONE', #815, .T. ) ;
#39 = CARTESIAN_POINT ( 'NONE',  ( 1.836970198720964113E-16, 5.000000000000000888, -24.00000000000000000 ) ) ;
#40 = VERTEX_POINT ( 'NONE', #276 ) ;
#41 = EDGE_LOOP ( 'NONE', ( #653, #912, #221, #270 ) ) ;
#42 = DIRECTION ( 'NONE',  ( 0.0000000000000000000, 1.000000000000000000, 0.0000000000000000000 ) ) ;
#43 = DIRECTION ( 'NONE',  ( 0.0000000000000000000, 0.0000000000000000000, -1.000000000000000000 ) ) ;
#44 = VERTEX_POINT ( 'NONE', #273 ) ;
#45 = CARTESIAN_POINT ( 'NONE',  ( 0.0000000000000000000, 9.000000000000001776, 0.0000000000000000000 ) ) ;
#46 = CARTESIAN_POINT ( 'NONE',  ( -3.000000000000000000, 5.000000000000000888, -26.00000000000000355 ) ) ;
#47 = STYLED_ITEM ( 'NONE', ( #521 ), #293 ) ;
#48 = DIRECTION ( 'NONE',  ( 0.0000000000000000000, -0.0000000000000000000, 1.000000000000000000 ) ) ;
#49 = DIRECTION ( 'NONE',  ( 0.0000000000000000000, 0.0000000000000000000, 1.000000000000000000 ) ) ;
#50 = DIRECTION ( 'NONE',  ( 0.0000000000000000000, 0.0000000000000000000, 1.000000000000000000 ) ) ;
#51 = ORIENTED_EDGE ( 'NONE', *, *, #110, .T. ) ;
#52 = ORIENTED_EDGE ( 'NONE', *, *, #61, .F. ) ;
#53 = EDGE_CURVE ( 'NONE', #245, #483, #552, .T. ) ;
#54 = VECTOR ( 'NONE', #477, 1000.000000000000000 ) ;
#55 = CARTESIAN_POINT ( 'NONE',  ( -3.000000000000086153, 5.000000000000000888, -24.00000000000000000 ) ) ;
#56 = FACE_OUTER_BOUND ( 'NONE', #495, .T. ) ;
#57 = CIRCLE ( 'NONE', #735, 4.249999999999988454 ) ;
#58 = CARTESIAN_POINT ( 'NONE',  ( -17.67766952966366034, 5.000000000000001776, 17.67766952966372074 ) ) ;
#59 = VERTEX_POINT ( 'NONE', #737 ) ;
#60 = DIRECTION ( 'NONE',  ( -0.0000000000000000000, -1.000000000000000000, -0.0000000000000000000 ) ) ;
#61 = EDGE_CURVE ( 'NONE', #483, #245, #961, .T. ) ;
#62 = CARTESIAN_POINT ( 'NONE',  ( 1.836970198720964113E-16, 5.000000000000000888, -24.00000000000000000 ) ) ;
#63 = DIRECTION ( 'NONE',  ( 0.0000000000000000000, 0.0000000000000000000, 1.000000000000000000 ) ) ;
#64 = AXIS2_PLACEMENT_3D ( 'NONE', #471, #870, #382 ) ;
#65 = DIRECTION ( 'NONE',  ( -0.0000000000000000000, 1.000000000000000000, -0.0000000000000000000 ) ) ;
#66 = CARTESIAN_POINT ( 'NONE',  ( 2.999999999999998224, 2.000000000000000000, -26.00000000000000355 ) ) ;
#67 = ORIENTED_EDGE ( 'NONE', *, *, #416, .T. ) ;
#68 = EDGE_LOOP ( 'NONE', ( #678, #488, #320, #180 ) ) ;
#69 = DIRECTION ( 'NONE',  ( 0.0000000000000000000, 0.0000000000000000000, 1.000000000000000000 ) ) ;
#70 = CARTESIAN_POINT ( 'NONE',  ( 0.0000000000000000000, -13.31379493162927119, -31.50000000000000000 ) ) ;
#71 = ORIENTED_EDGE ( 'NONE', *, *, #946, .T. ) ;
#72 = CARTESIAN_POINT ( 'NONE',  ( 0.0000000000000000000, -13.31379493162927119, -15.75000000000000000 ) ) ;
#73 = AXIS2_PLACEMENT_3D ( 'NONE', #453, #1012, #538 ) ;
#74 = COLOUR_RGB ( '',0.5019607843137254832, 0.5019607843137254832, 0.5019607843137254832 ) ;
#75 = DIRECTION ( 'NONE',  ( 0.0000000000000000000, 0.0000000000000000000, 1.000000000000000000 ) ) ;
#76 = LINE ( 'NONE', #159, #225 ) ;
#77 = DIRECTION ( 'NONE',  ( -0.0000000000000000000, -1.000000000000000000, -0.0000000000000000000 ) ) ;
#78 = ORIENTED_EDGE ( 'NONE', *, *, #334, .T. ) ;
#79 = ADVANCED_FACE ( 'NONE', ( #374 ), #1049, .T. ) ;
#80 = EDGE_CURVE ( 'NONE', #59, #772, #179, .T. ) ;
#81 = AXIS2_PLACEMENT_3D ( 'NONE', #1027, #861, #63 ) ;
#82 = CARTESIAN_POINT ( 'NONE',  ( 2.999999999999998224, 2.000000000000000444, -26.00000000000000355 ) ) ;
#83 = ORIENTED_EDGE ( 'NONE', *, *, #779, .F. ) ;
#84 = CIRCLE ( 'NONE', #64, 31.50000000000000000 ) ;
#85 = EDGE_CURVE ( 'NONE', #245, #344, #990, .T. ) ;
#86 = DIRECTION ( 'NONE',  ( 0.0000000000000000000, 0.0000000000000000000, 1.000000000000000000 ) ) ;
#87 = LINE ( 'NONE', #600, #100 ) ;
#88 = CIRCLE ( 'NONE', #238, 4.249999999999993783 ) ;
#89 = AXIS2_PLACEMENT_3D ( 'NONE', #530, #617, #50 ) ;
#90 = PRODUCT ( '03_063_adapterplate', '03_063_adapterplate', '', ( #263 ) ) ;
#91 = DIRECTION ( 'NONE',  ( 1.836970198721031660E-16, -0.0000000000000000000, -1.000000000000000000 ) ) ;
#92 = ADVANCED_FACE ( 'NONE', ( #1006 ), #462, .T. ) ;
#93 = FILL_AREA_STYLE_COLOUR ( '', #240 ) ;
#94 = EDGE_CURVE ( 'NONE', #162, #581, #249, .T. ) ;
#95 = EDGE_LOOP ( 'NONE', ( #266, #177, #455, #1008 ) ) ;
#96 = DIRECTION ( 'NONE',  ( 0.0000000000000000000, 0.0000000000000000000, 1.000000000000000000 ) ) ;
#97 = CYLINDRICAL_SURFACE ( 'NONE', #720, 15.75000000000000000 ) ;
#98 = ADVANCED_FACE ( 'NONE', ( #139 ), #36, .F. ) ;
#99 = EDGE_CURVE ( 'NONE', #40, #644, #599, .T. ) ;
#100 = VECTOR ( 'NONE', #23, 1000.000000000000000 ) ;
#101 = CARTESIAN_POINT ( 'NONE',  ( 1.928818708657081344E-15, 9.000000000000001776, 15.75000000000000000 ) ) ;
#102 = ORIENTED_EDGE ( 'NONE', *, *, #220, .T. ) ;
#103 = CARTESIAN_POINT ( 'NONE',  ( 3.857637417314162689E-15, -13.31379493162927119, 31.50000000000000000 ) ) ;
#104 = ORIENTED_EDGE ( 'NONE', *, *, #816, .T. ) ;
#105 = AXIS2_PLACEMENT_3D ( 'NONE', #482, #811, #640 ) ;
#106 = ORIENTED_EDGE ( 'NONE', *, *, #85, .T. ) ;
#107 = CIRCLE ( 'NONE', #145, 2.999999999999988898 ) ;
#108 = LINE ( 'NONE', #649, #510 ) ;
#109 = DIRECTION ( 'NONE',  ( 0.0000000000000000000, 0.0000000000000000000, -1.000000000000000000 ) ) ;
#110 = EDGE_CURVE ( 'NONE', #766, #563, #119, .T. ) ;
#111 = ORIENTED_EDGE ( 'NONE', *, *, #741, .F. ) ;
#112 = EDGE_LOOP ( 'NONE', ( #554, #942 ) ) ;
#113 = CARTESIAN_POINT ( 'NONE',  ( -2.999999999999998224, 2.000000000000000444, -24.00000000000000000 ) ) ;
#114 = EDGE_CURVE ( 'NONE', #162, #1045, #22, .T. ) ;
#115 =( LENGTH_UNIT ( ) NAMED_UNIT ( * ) SI_UNIT ( .MILLI., .METRE. ) );
#116 =( GEOMETRIC_REPRESENTATION_CONTEXT ( 3 ) GLOBAL_UNCERTAINTY_ASSIGNED_CONTEXT ( ( #585 ) ) GLOBAL_UNIT_ASSIGNED_CONTEXT ( ( #115, #434, #829 ) ) REPRESENTATION_CONTEXT ( 'NONE', 'WORKASPACE' ) );
#117 = EDGE_LOOP ( 'NONE', ( #1019, #675, #330, #424, #853 ) ) ;
#118 = LINE ( 'NONE', #438, #520 ) ;
#119 = CIRCLE ( 'NONE', #346, 4.249999999999988454 ) ;
#120 = PLANE ( 'NONE',  #878 ) ;
#121 = FACE_OUTER_BOUND ( 'NONE', #652, .T. ) ;
#122 = DIRECTION ( 'NONE',  ( 0.0000000000000000000, 0.0000000000000000000, 1.000000000000000000 ) ) ;
#123 = EDGE_CURVE ( 'NONE', #345, #187, #569, .T. ) ;
#124 = ORIENTED_EDGE ( 'NONE', *, *, #189, .F. ) ;
#125 = AXIS2_PLACEMENT_3D ( 'NONE', #690, #696, #523 ) ;
#126 = CARTESIAN_POINT ( 'NONE',  ( -17.67766952966378469, 5.000000000000000888, -13.42766952966360172 ) ) ;
#127 = DIRECTION ( 'NONE',  ( 0.0000000000000000000, 0.0000000000000000000, -1.000000000000000000 ) ) ;
#128 = CARTESIAN_POINT ( 'NONE',  ( 17.67766952966365324, 0.0000000000000000000, -13.42766952966373140 ) ) ;
#129 = EDGE_CURVE ( 'NONE', #1018, #723, #945, .T. ) ;
#130 = DIRECTION ( 'NONE',  ( 0.0000000000000000000, 1.000000000000000000, 0.0000000000000000000 ) ) ;
#131 = ORIENTED_EDGE ( 'NONE', *, *, #325, .F. ) ;
#132 = AXIS2_PLACEMENT_3D ( 'NONE', #157, #781, #864 ) ;
#133 = ORIENTED_EDGE ( 'NONE', *, *, #439, .T. ) ;
#134 = CARTESIAN_POINT ( 'NONE',  ( 3.000000000000002665, 5.000000000000000888, -26.00000000000000355 ) ) ;
#135 = DIRECTION ( 'NONE',  ( 0.0000000000000000000, 0.0000000000000000000, 1.000000000000000000 ) ) ;
#136 = VECTOR ( 'NONE', #642, 1000.000000000000000 ) ;
#137 = VECTOR ( 'NONE', #283, 1000.000000000000000 ) ;
#138 = CARTESIAN_POINT ( 'NONE',  ( 2.999999999999984901, 3.000000000000002665, 26.00000000000000355 ) ) ;
#139 = FACE_OUTER_BOUND ( 'NONE', #313, .T. ) ;
#140 = ORIENTED_EDGE ( 'NONE', *, *, #881, .T. ) ;
#141 = EDGE_CURVE ( 'NONE', #364, #638, #747, .T. ) ;
#142 = VERTEX_POINT ( 'NONE', #685 ) ;
#143 = DIRECTION ( 'NONE',  ( -0.0000000000000000000, -1.000000000000000000, -0.0000000000000000000 ) ) ;
#144 = CARTESIAN_POINT ( 'NONE',  ( -17.67766952966378469, 5.000000000000001776, -13.42766952966360527 ) ) ;
#145 = AXIS2_PLACEMENT_3D ( 'NONE', #19, #903, #109 ) ;
#146 = CARTESIAN_POINT ( 'NONE',  ( -17.67766952966366034, 0.0000000000000000000, 13.42766952966372607 ) ) ;
#147 = CARTESIAN_POINT ( 'NONE',  ( -25.00000000000000711, 5.000000000000000888, -3.250000000000000444 ) ) ;
#148 = CARTESIAN_POINT ( 'NONE',  ( 0.0000000000000000000, 0.0000000000000000000, 0.0000000000000000000 ) ) ;
#149 = EDGE_CURVE ( 'NONE', #968, #687, #886, .T. ) ;
#150 = CARTESIAN_POINT ( 'NONE',  ( -25.00000000000000711, -0.001000000000000132727, 0.0000000000000000000 ) ) ;
#151 = CARTESIAN_POINT ( 'NONE',  ( -2.999999999999999112, 5.000000000000000888, -26.00000000000000355 ) ) ;
#152 = DIRECTION ( 'NONE',  ( -0.0000000000000000000, 1.000000000000000000, -0.0000000000000000000 ) ) ;
#153 = DIRECTION ( 'NONE',  ( 0.0000000000000000000, 0.0000000000000000000, 1.000000000000000000 ) ) ;
#154 = ORIENTED_EDGE ( 'NONE', *, *, #750, .F. ) ;
#155 = EDGE_CURVE ( 'NONE', #921, #531, #192, .T. ) ;
#156 = DIRECTION ( 'NONE',  ( 0.0000000000000000000, 0.0000000000000000000, 1.000000000000000000 ) ) ;
#157 = CARTESIAN_POINT ( 'NONE',  ( 0.0000000000000000000, 0.0000000000000000000, 0.0000000000000000000 ) ) ;
#158 = DIRECTION ( 'NONE',  ( -0.0000000000000000000, 1.000000000000000000, -0.0000000000000000000 ) ) ;
#159 = CARTESIAN_POINT ( 'NONE',  ( -17.67766952966378469, 5.000000000000000888, -21.92766952966358929 ) ) ;
#160 = ORIENTED_EDGE ( 'NONE', *, *, #894, .T. ) ;
#161 = DIRECTION ( 'NONE',  ( -0.0000000000000000000, -1.000000000000000000, -0.0000000000000000000 ) ) ;
#162 = VERTEX_POINT ( 'NONE', #128 ) ;
#163 = EDGE_LOOP ( 'NONE', ( #32, #647, #882, #78 ) ) ;
#164 = CIRCLE ( 'NONE', #132, 30.50000000000000000 ) ;
#165 = ADVANCED_FACE ( 'NONE', ( #319 ), #825, .F. ) ;
#166 = FACE_OUTER_BOUND ( 'NONE', #851, .T. ) ;
#167 = DIRECTION ( 'NONE',  ( -5.782411586589355667E-16, -1.000000000000000000, 0.0000000000000000000 ) ) ;
#168 = ORIENTED_EDGE ( 'NONE', *, *, #258, .T. ) ;
#169 = ORIENTED_EDGE ( 'NONE', *, *, #401, .T. ) ;
#170 = EDGE_CURVE ( 'NONE', #280, #624, #292, .T. ) ;
#171 = AXIS2_PLACEMENT_3D ( 'NONE', #871, #470, #940 ) ;
#172 = DIRECTION ( 'NONE',  ( -0.0000000000000000000, -1.000000000000000000, -0.0000000000000000000 ) ) ;
#173 = CARTESIAN_POINT ( 'NONE',  ( -1.051058757860499959E-15, 2.000000000000000444, -26.00000000000000355 ) ) ;
#174 = ORIENTED_EDGE ( 'NONE', *, *, #170, .F. ) ;
#175 = ORIENTED_EDGE ( 'NONE', *, *, #458, .F. ) ;
#176 = ADVANCED_FACE ( 'NONE', ( #394 ), #592, .F. ) ;
#177 = ORIENTED_EDGE ( 'NONE', *, *, #860, .F. ) ;
#178 = LINE ( 'NONE', #194, #897 ) ;
#179 = LINE ( 'NONE', #601, #409 ) ;
#180 = ORIENTED_EDGE ( 'NONE', *, *, #558, .T. ) ;
#181 = ADVANCED_FACE ( 'NONE', ( #166 ), #907, .F. ) ;
#182 = CARTESIAN_POINT ( 'NONE',  ( 1.867586368699713376E-15, 10.00000000000000178, 14.75000000000000000 ) ) ;
#183 = EDGE_CURVE ( 'NONE', #59, #644, #328, .T. ) ;
#184 = AXIS2_PLACEMENT_3D ( 'NONE', #797, #161, #492 ) ;
#185 = ORIENTED_EDGE ( 'NONE', *, *, #888, .T. ) ;
#186 = ADVANCED_FACE ( 'NONE', ( #537 ), #979, .F. ) ;
#187 = VERTEX_POINT ( 'NONE', #548 ) ;
#188 = FACE_OUTER_BOUND ( 'NONE', #342, .T. ) ;
#189 = EDGE_CURVE ( 'NONE', #563, #766, #57, .T. ) ;
#190 = VECTOR ( 'NONE', #813, 1000.000000000000000 ) ;
#191 = CIRCLE ( 'NONE', #399, 4.249999999999993783 ) ;
#192 = CIRCLE ( 'NONE', #677, 2.999999999999999112 ) ;
#193 = ORIENTED_EDGE ( 'NONE', *, *, #401, .F. ) ;
#194 = CARTESIAN_POINT ( 'NONE',  ( 3.735172737399427541E-15, 0.0000000000000000000, -30.50000000000000000 ) ) ;
#195 = EDGE_CURVE ( 'NONE', #376, #357, #672, .T. ) ;
#196 = DIRECTION ( 'NONE',  ( 0.0000000000000000000, 0.0000000000000000000, 1.000000000000000000 ) ) ;
#197 = PRESENTATION_LAYER_ASSIGNMENT (  '', '', ( #820 ) ) ;
#198 = CLOSED_SHELL ( 'NONE', ( #181, #497, #5, #79, #186, #721, #176, #814, #413, #92, #899, #738, #312, #890, #880, #1041, #801, #729, #165, #565, #485, #403, #725, #1046, #333, #389, #1036, #98, #818, #893, #966, #643, #575 ) ) ;
#199 = CARTESIAN_POINT ( 'NONE',  ( 0.0000000000000000000, -13.31379493162927119, 0.0000000000000000000 ) ) ;
#200 = EDGE_LOOP ( 'NONE', ( #124, #648 ) ) ;
#201 = LINE ( 'NONE', #937, #698 ) ;
#202 = AXIS2_PLACEMENT_3D ( 'NONE', #989, #517, #655 ) ;
#203 = ORIENTED_EDGE ( 'NONE', *, *, #304, .F. ) ;
#204 = CARTESIAN_POINT ( 'NONE',  ( -2.999999999999992895, 3.000000000000001332, 26.00000000000000355 ) ) ;
#205 = DIRECTION ( 'NONE',  ( 8.659560562354842879E-17, 0.7071067811865549002, -0.7071067811865401342 ) ) ;
#206 = AXIS2_PLACEMENT_3D ( 'NONE', #377, #707, #634 ) ;
#207 = ORIENTED_EDGE ( 'NONE', *, *, #16, .T. ) ;
#208 = DIRECTION ( 'NONE',  ( 0.0000000000000000000, 0.0000000000000000000, -1.000000000000000000 ) ) ;
#209 = ORIENTED_EDGE ( 'NONE', *, *, #99, .T. ) ;
#210 = FACE_OUTER_BOUND ( 'NONE', #892, .T. ) ;
#211 = CARTESIAN_POINT ( 'NONE',  ( 0.0000000000000000000, 10.00000000000000178, 0.0000000000000000000 ) ) ;
#212 = CIRCLE ( 'NONE', #560, 2.999999999999988898 ) ;
#213 = VECTOR ( 'NONE', #294, 1000.000000000000000 ) ;
#214 = EDGE_LOOP ( 'NONE', ( #975, #900, #327, #185 ) ) ;
#215 = DIRECTION ( 'NONE',  ( -0.0000000000000000000, 1.000000000000000000, -0.0000000000000000000 ) ) ;
#216 = AXIS2_PLACEMENT_3D ( 'NONE', #329, #86, #646 ) ;
#217 = CARTESIAN_POINT ( 'NONE',  ( -3.345972796008245199E-15, 0.0000000000000000000, 24.00000000000000000 ) ) ;
#218 = DIRECTION ( 'NONE',  ( 0.0000000000000000000, 0.0000000000000000000, 1.000000000000000000 ) ) ;
#219 = CARTESIAN_POINT ( 'NONE',  ( -2.999999999999999112, 5.000000000000000888, -24.00000000000000000 ) ) ;
#220 = EDGE_CURVE ( 'NONE', #1025, #921, #246, .T. ) ;
#221 = ORIENTED_EDGE ( 'NONE', *, *, #291, .T. ) ;
#222 = AXIS2_PLACEMENT_3D ( 'NONE', #365, #605, #352 ) ;
#223 = VERTEX_POINT ( 'NONE', #375 ) ;
#224 = DIRECTION ( 'NONE',  ( -0.0000000000000000000, 1.000000000000000000, -0.0000000000000000000 ) ) ;
#225 = VECTOR ( 'NONE', #579, 1000.000000000000000 ) ;
#226 = FACE_OUTER_BOUND ( 'NONE', #163, .T. ) ;
#227 = CIRCLE ( 'NONE', #595, 4.249999999999990230 ) ;
#228 = CARTESIAN_POINT ( 'NONE',  ( 3.857637417314162689E-15, 1.000000000000021760, 31.50000000000000000 ) ) ;
#229 = ORIENTED_EDGE ( 'NONE', *, *, #573, .F. ) ;
#230 = CARTESIAN_POINT ( 'NONE',  ( 1.836970198720964113E-16, 5.000000000000000888, -21.00000000000000000 ) ) ;
#231 = AXIS2_PLACEMENT_3D ( 'NONE', #522, #667, #196 ) ;
#232 = PLANE ( 'NONE',  #763 ) ;
#233 = CARTESIAN_POINT ( 'NONE',  ( 2.999999999999998668, 2.000000000000000444, -24.00000000000000000 ) ) ;
#234 = CARTESIAN_POINT ( 'NONE',  ( 3.000000000000003109, 5.000000000000000888, -24.00000000000000000 ) ) ;
#235 = ORIENTED_EDGE ( 'NONE', *, *, #664, .F. ) ;
#236 = EDGE_CURVE ( 'NONE', #18, #437, #824, .T. ) ;
#237 = CARTESIAN_POINT ( 'NONE',  ( -3.713366835752451432E-15, 3.000000000000002665, 26.00000000000000355 ) ) ;
#238 = AXIS2_PLACEMENT_3D ( 'NONE', #527, #42, #790 ) ;
#239 = PRESENTATION_STYLE_ASSIGNMENT (( #983 ) ) ;
#240 = COLOUR_RGB ( '',0.5019607843137254832, 0.5019607843137254832, 0.5019607843137254832 ) ;
#241 = DIRECTION ( 'NONE',  ( -0.0000000000000000000, -1.000000000000000000, -0.0000000000000000000 ) ) ;
#242 = ORIENTED_EDGE ( 'NONE', *, *, #967, .F. ) ;
#243 = EDGE_CURVE ( 'NONE', #345, #142, #490, .T. ) ;
#244 = DIRECTION ( 'NONE',  ( 0.0000000000000000000, 0.0000000000000000000, -1.000000000000000000 ) ) ;
#245 = VERTEX_POINT ( 'NONE', #635 ) ;
#246 = LINE ( 'NONE', #233, #136 ) ;
#247 =( GEOMETRIC_REPRESENTATION_CONTEXT ( 3 ) GLOBAL_UNCERTAINTY_ASSIGNED_CONTEXT ( ( #404 ) ) GLOBAL_UNIT_ASSIGNED_CONTEXT ( ( #2, #734, #250 ) ) REPRESENTATION_CONTEXT ( 'NONE', 'WORKASPACE' ) );
#248 = LINE ( 'NONE', #572, #277 ) ;
#249 = LINE ( 'NONE', #770, #788 ) ;
#250 =( NAMED_UNIT ( * ) SI_UNIT ( $, .STERADIAN. ) SOLID_ANGLE_UNIT ( ) );
#251 = ORIENTED_EDGE ( 'NONE', *, *, #1042, .T. ) ;
#252 = PLANE ( 'NONE',  #1039 ) ;
#253 = AXIS2_PLACEMENT_3D ( 'NONE', #349, #25, #1 ) ;
#254 = PRODUCT_DEFINITION_FORMATION_WITH_SPECIFIED_SOURCE ( 'ANY', '', #90, .NOT_KNOWN. ) ;
#255 = DIRECTION ( 'NONE',  ( 0.0000000000000000000, -1.000000000000000000, 0.0000000000000000000 ) ) ;
#256 = ORIENTED_EDGE ( 'NONE', *, *, #13, .T. ) ;
#257 = ORIENTED_EDGE ( 'NONE', *, *, #94, .F. ) ;
#258 = EDGE_CURVE ( 'NONE', #187, #223, #768, .T. ) ;
#259 = CIRCLE ( 'NONE', #433, 2.999999999999999112 ) ;
#260 = AXIS2_PLACEMENT_3D ( 'NONE', #237, #60, #550 ) ;
#261 = FACE_OUTER_BOUND ( 'NONE', #95, .T. ) ;
#262 = ORIENTED_EDGE ( 'NONE', *, *, #526, .T. ) ;
#263 = PRODUCT_CONTEXT ( 'NONE', #1050, 'mechanical' ) ;
#264 = PRODUCT_DEFINITION ( 'UNKNOWN', '', #254, #610 ) ;
#265 = ORIENTED_EDGE ( 'NONE', *, *, #982, .T. ) ;
#266 = ORIENTED_EDGE ( 'NONE', *, *, #1042, .F. ) ;
#267 = EDGE_CURVE ( 'NONE', #764, #709, #872, .T. ) ;
#268 = LINE ( 'NONE', #219, #933 ) ;
#269 = LINE ( 'NONE', #999, #137 ) ;
#270 = ORIENTED_EDGE ( 'NONE', *, *, #573, .T. ) ;
#271 = CARTESIAN_POINT ( 'NONE',  ( 2.999999999999985345, 3.000000000000002665, 26.00000000000000355 ) ) ;
#272 = FILL_AREA_STYLE ('',( #594 ) ) ;
#273 = CARTESIAN_POINT ( 'NONE',  ( 2.999999999999986677, -1.187907395172929833E-15, 26.00000000000000355 ) ) ;
#274 = DIRECTION ( 'NONE',  ( 0.0000000000000000000, 0.0000000000000000000, 1.000000000000000000 ) ) ;
#275 = EDGE_LOOP ( 'NONE', ( #612, #265 ) ) ;
#276 = CARTESIAN_POINT ( 'NONE',  ( 2.999999999999987121, -1.187907395172929833E-15, 24.00000000000000000 ) ) ;
#277 = VECTOR ( 'NONE', #91, 1000.000000000000000 ) ;
#278 = EDGE_CURVE ( 'NONE', #500, #1028, #660, .T. ) ;
#279 = EDGE_LOOP ( 'NONE', ( #287, #941, #402, #353 ) ) ;
#280 = VERTEX_POINT ( 'NONE', #310 ) ;
#281 = PRODUCT_DEFINITION_SHAPE ( 'NONE', 'NONE',  #264 ) ;
#282 = DIRECTION ( 'NONE',  ( 0.0000000000000000000, 1.000000000000000000, 0.0000000000000000000 ) ) ;
#283 = DIRECTION ( 'NONE',  ( -5.782411586589355667E-16, -1.000000000000000000, 0.0000000000000000000 ) ) ;
#284 = CARTESIAN_POINT ( 'NONE',  ( 17.67766952966365324, 5.000000000000000888, -17.67766952966372784 ) ) ;
#285 = AXIS2_PLACEMENT_3D ( 'NONE', #895, #994, #96 ) ;
#286 = CARTESIAN_POINT ( 'NONE',  ( -17.67766952966378469, 5.000000000000000888, -17.67766952966359284 ) ) ;
#287 = ORIENTED_EDGE ( 'NONE', *, *, #258, .F. ) ;
#288 = PLANE ( 'NONE',  #7 ) ;
#289 = ORIENTED_EDGE ( 'NONE', *, *, #910, .T. ) ;
#290 = LINE ( 'NONE', #70, #661 ) ;
#291 = EDGE_CURVE ( 'NONE', #545, #740, #37, .T. ) ;
#292 = CIRCLE ( 'NONE', #620, 3.250000000000000444 ) ;
#293 = ADVANCED_BREP_SHAPE_REPRESENTATION ( '03_063_adapterplate', ( #447, #216 ), #247 ) ;
#294 = DIRECTION ( 'NONE',  ( -0.0000000000000000000, 1.000000000000000000, -0.0000000000000000000 ) ) ;
#295 = CARTESIAN_POINT ( 'NONE',  ( -25.00000000000000711, 0.0000000000000000000, 0.0000000000000000000 ) ) ;
#296 = ORIENTED_EDGE ( 'NONE', *, *, #547, .T. ) ;
#297 = DIRECTION ( 'NONE',  ( -1.836970198720962388E-16, -0.0000000000000000000, -1.000000000000000000 ) ) ;
#298 = DIRECTION ( 'NONE',  ( 1.000000000000000000, -5.782411586589355667E-16, -1.836970198720962388E-16 ) ) ;
#299 = DIRECTION ( 'NONE',  ( 0.0000000000000000000, 0.0000000000000000000, 1.000000000000000000 ) ) ;
#300 = EDGE_CURVE ( 'NONE', #332, #766, #76, .T. ) ;
#301 = VERTEX_POINT ( 'NONE', #958 ) ;
#302 = LINE ( 'NONE', #101, #916 ) ;
#303 = VECTOR ( 'NONE', #659, 1000.000000000000000 ) ;
#304 = EDGE_CURVE ( 'NONE', #14, #963, #683, .T. ) ;
#305 = VERTEX_POINT ( 'NONE', #998 ) ;
#306 = DIRECTION ( 'NONE',  ( -0.0000000000000000000, -1.000000000000000000, -0.0000000000000000000 ) ) ;
#307 = DIRECTION ( 'NONE',  ( -0.0000000000000000000, 1.000000000000000000, -0.0000000000000000000 ) ) ;
#308 = ORIENTED_EDGE ( 'NONE', *, *, #584, .T. ) ;
#309 = DIRECTION ( 'NONE',  ( 0.0000000000000000000, 1.000000000000000000, 0.0000000000000000000 ) ) ;
#310 = CARTESIAN_POINT ( 'NONE',  ( -25.00000000000000711, 0.0000000000000000000, 3.250000000000000444 ) ) ;
#311 = CARTESIAN_POINT ( 'NONE',  ( -17.67766952966378469, 5.000000000000001776, -21.92766952966358218 ) ) ;
#312 = ADVANCED_FACE ( 'NONE', ( #628, #339, #670, #959, #459, #420, #441, #407 ), #689, .F. ) ;
#313 = EDGE_LOOP ( 'NONE', ( #415, #570, #507, #426 ) ) ;
#314 = PRODUCT_RELATED_PRODUCT_CATEGORY ( 'part', '', ( #90 ) ) ;
#315 = CARTESIAN_POINT ( 'NONE',  ( 0.0000000000000000000, 10.00000000000000178, -14.75000000000000000 ) ) ;
#316 = CYLINDRICAL_SURFACE ( 'NONE', #710, 2.999999999999999112 ) ;
#317 = VECTOR ( 'NONE', #297, 1000.000000000000000 ) ;
#318 = CYLINDRICAL_SURFACE ( 'NONE', #974, 4.249999999999993783 ) ;
#319 = FACE_OUTER_BOUND ( 'NONE', #68, .T. ) ;
#320 = ORIENTED_EDGE ( 'NONE', *, *, #94, .T. ) ;
#321 = ORIENTED_EDGE ( 'NONE', *, *, #750, .T. ) ;
#322 = EDGE_CURVE ( 'NONE', #1045, #305, #87, .T. ) ;
#323 = CARTESIAN_POINT ( 'NONE',  ( 0.0000000000000000000, -13.31379493162927119, 0.0000000000000000000 ) ) ;
#324 = ORIENTED_EDGE ( 'NONE', *, *, #129, .F. ) ;
#325 = EDGE_CURVE ( 'NONE', #280, #398, #918, .T. ) ;
#326 = SURFACE_SIDE_STYLE ('',( #847 ) ) ;
#327 = ORIENTED_EDGE ( 'NONE', *, *, #267, .T. ) ;
#328 = CIRCLE ( 'NONE', #771, 2.999999999999988898 ) ;
#329 = CARTESIAN_POINT ( 'NONE',  ( 0.0000000000000000000, 0.0000000000000000000, 0.0000000000000000000 ) ) ;
#330 = ORIENTED_EDGE ( 'NONE', *, *, #373, .F. ) ;
#331 = DIRECTION ( 'NONE',  ( 0.0000000000000000000, 1.000000000000000000, 0.0000000000000000000 ) ) ;
#332 = VERTEX_POINT ( 'NONE', #1010 ) ;
#333 = ADVANCED_FACE ( 'NONE', ( #210 ), #727, .F. ) ;
#334 = EDGE_CURVE ( 'NONE', #423, #531, #590, .T. ) ;
#335 = AXIS2_PLACEMENT_3D ( 'NONE', #759, #923, #452 ) ;
#336 = DIRECTION ( 'NONE',  ( -0.0000000000000000000, -1.000000000000000000, -0.0000000000000000000 ) ) ;
#337 = EDGE_LOOP ( 'NONE', ( #1051, #71, #992, #516 ) ) ;
#338 = AXIS2_PLACEMENT_3D ( 'NONE', #580, #331, #583 ) ;
#339 = FACE_BOUND ( 'NONE', #695, .T. ) ;
#340 = CYLINDRICAL_SURFACE ( 'NONE', #171, 4.249999999999993783 ) ;
#341 = ORIENTED_EDGE ( 'NONE', *, *, #512, .T. ) ;
#342 = EDGE_LOOP ( 'NONE', ( #8, #262, #922, #131 ) ) ;
#343 = EDGE_CURVE ( 'NONE', #1045, #162, #904, .T. ) ;
#344 = VERTEX_POINT ( 'NONE', #228 ) ;
#345 = VERTEX_POINT ( 'NONE', #1015 ) ;
#346 = AXIS2_PLACEMENT_3D ( 'NONE', #609, #777, #218 ) ;
#347 = EDGE_LOOP ( 'NONE', ( #789, #1030 ) ) ;
#348 = ORIENTED_EDGE ( 'NONE', *, *, #439, .F. ) ;
#349 = CARTESIAN_POINT ( 'NONE',  ( 0.0000000000000000000, 5.000000000000000888, 0.0000000000000000000 ) ) ;
#350 = EDGE_CURVE ( 'NONE', #364, #423, #268, .T. ) ;
#351 = DIRECTION ( 'NONE',  ( 0.0000000000000000000, 0.0000000000000000000, 1.000000000000000000 ) ) ;
#352 = DIRECTION ( 'NONE',  ( 0.0000000000000000000, 0.0000000000000000000, -1.000000000000000000 ) ) ;
#353 = ORIENTED_EDGE ( 'NONE', *, *, #816, .F. ) ;
#354 = DIRECTION ( 'NONE',  ( 0.0000000000000000000, 1.000000000000000000, 0.0000000000000000000 ) ) ;
#355 = CARTESIAN_POINT ( 'NONE',  ( 17.67766952966365324, 5.000000000000001776, -17.67766952966372784 ) ) ;
#356 = ORIENTED_EDGE ( 'NONE', *, *, #99, .F. ) ;
#357 = VERTEX_POINT ( 'NONE', #146 ) ;
#358 = DIRECTION ( 'NONE',  ( 0.0000000000000000000, 0.0000000000000000000, -1.000000000000000000 ) ) ;
#359 = CIRCLE ( 'NONE', #604, 3.250000000000000444 ) ;
#360 = DIRECTION ( 'NONE',  ( -0.0000000000000000000, 1.000000000000000000, -0.0000000000000000000 ) ) ;
#361 = FACE_BOUND ( 'NONE', #446, .T. ) ;
#362 = DIRECTION ( 'NONE',  ( -0.0000000000000000000, -1.000000000000000000, -0.0000000000000000000 ) ) ;
#363 = LINE ( 'NONE', #204, #493 ) ;
#364 = VERTEX_POINT ( 'NONE', #55 ) ;
#365 = CARTESIAN_POINT ( 'NONE',  ( -3.713366835752451432E-15, -1.187907395172929833E-15, 26.00000000000000355 ) ) ;
#366 = DIRECTION ( 'NONE',  ( -0.0000000000000000000, 1.000000000000000000, -0.0000000000000000000 ) ) ;
#367 = DIRECTION ( 'NONE',  ( -0.0000000000000000000, 1.000000000000000000, -0.0000000000000000000 ) ) ;
#368 = EDGE_CURVE ( 'NONE', #531, #638, #858, .T. ) ;
#369 = DIRECTION ( 'NONE',  ( -0.0000000000000000000, 1.000000000000000000, -0.0000000000000000000 ) ) ;
#370 = ORIENTED_EDGE ( 'NONE', *, *, #558, .F. ) ;
#371 = CARTESIAN_POINT ( 'NONE',  ( -17.67766952966366034, 5.000000000000001776, 13.42766952966373140 ) ) ;
#372 = ORIENTED_EDGE ( 'NONE', *, *, #61, .T. ) ;
#373 = EDGE_CURVE ( 'NONE', #301, #644, #201, .T. ) ;
#374 = FACE_OUTER_BOUND ( 'NONE', #718, .T. ) ;
#375 = CARTESIAN_POINT ( 'NONE',  ( 1.928818708657081344E-15, 5.000000000000004441, 15.75000000000000000 ) ) ;
#376 = VERTEX_POINT ( 'NONE', #542 ) ;
#377 = CARTESIAN_POINT ( 'NONE',  ( 0.0000000000000000000, 9.000000000000001776, 0.0000000000000000000 ) ) ;
#378 = AXIS2_PLACEMENT_3D ( 'NONE', #431, #752, #593 ) ;
#379 = ORIENTED_EDGE ( 'NONE', *, *, #243, .F. ) ;
#380 = CARTESIAN_POINT ( 'NONE',  ( -17.67766952966378469, 5.000000000000001776, -17.67766952966359284 ) ) ;
#381 = DIRECTION ( 'NONE',  ( 0.0000000000000000000, 1.000000000000000000, 0.0000000000000000000 ) ) ;
#382 = DIRECTION ( 'NONE',  ( 0.0000000000000000000, 0.0000000000000000000, 1.000000000000000000 ) ) ;
#383 = CARTESIAN_POINT ( 'NONE',  ( 1.928818708657081344E-15, -13.31379493162927119, 15.75000000000000000 ) ) ;
#384 = EDGE_CURVE ( 'NONE', #963, #345, #1047, .T. ) ;
#385 = CARTESIAN_POINT ( 'NONE',  ( 1.836970198720964113E-16, 5.000000000000000888, -21.00000000000000000 ) ) ;
#386 = ORIENTED_EDGE ( 'NONE', *, *, #195, .T. ) ;
#387 = EDGE_LOOP ( 'NONE', ( #289, #104 ) ) ;
#388 = DIRECTION ( 'NONE',  ( 0.0000000000000000000, 0.0000000000000000000, 1.000000000000000000 ) ) ;
#389 = ADVANCED_FACE ( 'NONE', ( #745 ), #316, .F. ) ;
#390 = LINE ( 'NONE', #539, #440 ) ;
#391 = VECTOR ( 'NONE', #719, 1000.000000000000000 ) ;
#392 = DIRECTION ( 'NONE',  ( -0.0000000000000000000, -1.000000000000000000, -0.0000000000000000000 ) ) ;
#393 = FACE_BOUND ( 'NONE', #602, .T. ) ;
#394 = FACE_OUTER_BOUND ( 'NONE', #808, .T. ) ;
#395 = DIRECTION ( 'NONE',  ( -0.0000000000000000000, 1.000000000000000000, -0.0000000000000000000 ) ) ;
#396 = ORIENTED_EDGE ( 'NONE', *, *, #195, .F. ) ;
#397 = DIRECTION ( 'NONE',  ( 0.0000000000000000000, 1.000000000000000000, 0.0000000000000000000 ) ) ;
#398 = VERTEX_POINT ( 'NONE', #553 ) ;
#399 = AXIS2_PLACEMENT_3D ( 'NONE', #466, #559, #787 ) ;
#400 = DIRECTION ( 'NONE',  ( 0.0000000000000000000, 0.0000000000000000000, -1.000000000000000000 ) ) ;
#401 = EDGE_CURVE ( 'NONE', #717, #344, #84, .T. ) ;
#402 = ORIENTED_EDGE ( 'NONE', *, *, #243, .T. ) ;
#403 = ADVANCED_FACE ( 'NONE', ( #419 ), #509, .T. ) ;
#404 = UNCERTAINTY_MEASURE_WITH_UNIT (LENGTH_MEASURE( 1.000000000000000082E-05 ), #2, 'distance_accuracy_value', 'NONE');
#405 = ORIENTED_EDGE ( 'NONE', *, *, #350, .F. ) ;
#406 = AXIS2_PLACEMENT_3D ( 'NONE', #769, #608, #536 ) ;
#407 = FACE_BOUND ( 'NONE', #800, .T. ) ;
#408 = LINE ( 'NONE', #234, #391 ) ;
#409 = VECTOR ( 'NONE', #432, 1000.000000000000000 ) ;
#410 = ORIENTED_EDGE ( 'NONE', *, *, #129, .T. ) ;
#411 = DIRECTION ( 'NONE',  ( -0.0000000000000000000, -1.000000000000000000, -0.0000000000000000000 ) ) ;
#412 = AXIS2_PLACEMENT_3D ( 'NONE', #199, #525, #208 ) ;
#413 = ADVANCED_FACE ( 'NONE', ( #188 ), #744, .F. ) ;
#414 = CARTESIAN_POINT ( 'NONE',  ( -2.999999999999993339, 0.0000000000000000000, 24.00000000000000000 ) ) ;
#415 = ORIENTED_EDGE ( 'NONE', *, *, #995, .T. ) ;
#416 = EDGE_CURVE ( 'NONE', #723, #877, #1003, .T. ) ;
#417 = ORIENTED_EDGE ( 'NONE', *, *, #799, .F. ) ;
#418 = UNCERTAINTY_MEASURE_WITH_UNIT (LENGTH_MEASURE( 1.000000000000000082E-05 ), #582, 'distance_accuracy_value', 'NONE');
#419 = FACE_OUTER_BOUND ( 'NONE', #688, .T. ) ;
#420 = FACE_BOUND ( 'NONE', #869, .T. ) ;
#421 = VECTOR ( 'NONE', #993, 1000.000000000000000 ) ;
#422 = ORIENTED_EDGE ( 'NONE', *, *, #967, .T. ) ;
#423 = VERTEX_POINT ( 'NONE', #113 ) ;
#424 = ORIENTED_EDGE ( 'NONE', *, *, #664, .T. ) ;
#425 = VERTEX_POINT ( 'NONE', #991 ) ;
#426 = ORIENTED_EDGE ( 'NONE', *, *, #1020, .T. ) ;
#427 = AXIS2_PLACEMENT_3D ( 'NONE', #138, #694, #532 ) ;
#428 = VECTOR ( 'NONE', #701, 1000.000000000000000 ) ;
#429 = CYLINDRICAL_SURFACE ( 'NONE', #841, 2.999999999999988898 ) ;
#430 = CARTESIAN_POINT ( 'NONE',  ( 17.67766952966365324, 5.000000000000001776, -17.67766952966372784 ) ) ;
#431 = CARTESIAN_POINT ( 'NONE',  ( 1.836970198720964113E-16, 2.000000000000000000, -24.00000000000000000 ) ) ;
#432 = DIRECTION ( 'NONE',  ( -0.0000000000000000000, -1.000000000000000000, -0.0000000000000000000 ) ) ;
#433 = AXIS2_PLACEMENT_3D ( 'NONE', #936, #369, #122 ) ;
#434 =( NAMED_UNIT ( * ) PLANE_ANGLE_UNIT ( ) SI_UNIT ( $, .RADIAN. ) );
#435 = EDGE_LOOP ( 'NONE', ( #782, #1044, #51, #496 ) ) ;
#436 = CARTESIAN_POINT ( 'NONE',  ( -15.75000000000000000, 5.000000000000000888, 0.0000000000000000000 ) ) ;
#437 = VERTEX_POINT ( 'NONE', #603 ) ;
#438 = CARTESIAN_POINT ( 'NONE',  ( -3.000000000000003109, 0.0000000000000000000, 26.00000000000000355 ) ) ;
#439 = EDGE_CURVE ( 'NONE', #772, #40, #107, .T. ) ;
#440 = VECTOR ( 'NONE', #1017, 1000.000000000000000 ) ;
#441 = FACE_BOUND ( 'NONE', #200, .T. ) ;
#442 = AXIS2_PLACEMENT_3D ( 'NONE', #757, #528, #925 ) ;
#443 = FACE_OUTER_BOUND ( 'NONE', #544, .T. ) ;
#444 = CARTESIAN_POINT ( 'NONE',  ( 17.67766952966379179, 5.000000000000001776, 21.92766952966357863 ) ) ;
#445 = ORIENTED_EDGE ( 'NONE', *, *, #80, .F. ) ;
#446 = EDGE_LOOP ( 'NONE', ( #842, #422, #348, #562, #229 ) ) ;
#447 = MANIFOLD_SOLID_BREP ( 'Ø6.0 (6) Durchmesser Langloch5', #198 ) ;
#448 = CARTESIAN_POINT ( 'NONE',  ( -2.999999999999999556, 5.000000000000000888, -24.00000000000000000 ) ) ;
#449 = AXIS2_PLACEMENT_3D ( 'NONE', #45, #625, #614 ) ;
#450 = DIRECTION ( 'NONE',  ( 0.0000000000000000000, 0.0000000000000000000, 1.000000000000000000 ) ) ;
#451 = AXIS2_PLACEMENT_3D ( 'NONE', #546, #77, #127 ) ;
#452 = DIRECTION ( 'NONE',  ( 0.0000000000000000000, 0.0000000000000000000, -1.000000000000000000 ) ) ;
#453 = CARTESIAN_POINT ( 'NONE',  ( 17.67766952966365324, 5.000000000000000888, -17.67766952966372784 ) ) ;
#454 = DIRECTION ( 'NONE',  ( -0.0000000000000000000, 1.000000000000000000, -0.0000000000000000000 ) ) ;
#455 = ORIENTED_EDGE ( 'NONE', *, *, #384, .T. ) ;
#456 = ORIENTED_EDGE ( 'NONE', *, *, #1011, .F. ) ;
#457 = DIRECTION ( 'NONE',  ( 0.0000000000000000000, 0.0000000000000000000, 1.000000000000000000 ) ) ;
#458 = EDGE_CURVE ( 'NONE', #465, #332, #754, .T. ) ;
#459 = FACE_BOUND ( 'NONE', #387, .T. ) ;
#460 = CYLINDRICAL_SURFACE ( 'NONE', #917, 4.249999999999993783 ) ;
#461 = CARTESIAN_POINT ( 'NONE',  ( 3.796405077356795115E-15, 0.0000000000000000000, -30.50000000000000000 ) ) ;
#462 = CYLINDRICAL_SURFACE ( 'NONE', #412, 15.75000000000000000 ) ;
#463 = DIRECTION ( 'NONE',  ( 1.836970198721031660E-16, -0.0000000000000000000, -1.000000000000000000 ) ) ;
#464 = AXIS2_PLACEMENT_3D ( 'NONE', #951, #309, #1032 ) ;
#465 = VERTEX_POINT ( 'NONE', #17 ) ;
#466 = CARTESIAN_POINT ( 'NONE',  ( 17.67766952966379179, 0.0000000000000000000, 17.67766952966358573 ) ) ;
#467 = CARTESIAN_POINT ( 'NONE',  ( -2.999999999999998668, 2.000000000000000000, -24.00000000000000000 ) ) ;
#468 = DIRECTION ( 'NONE',  ( -0.0000000000000000000, -1.000000000000000000, -0.0000000000000000000 ) ) ;
#469 = EDGE_CURVE ( 'NONE', #973, #877, #786, .T. ) ;
#470 = DIRECTION ( 'NONE',  ( -0.0000000000000000000, 1.000000000000000000, -0.0000000000000000000 ) ) ;
#471 = CARTESIAN_POINT ( 'NONE',  ( 0.0000000000000000000, 1.000000000000021760, 0.0000000000000000000 ) ) ;
#472 = ORIENTED_EDGE ( 'NONE', *, *, #373, .T. ) ;
#473 = DIRECTION ( 'NONE',  ( 0.0000000000000000000, 0.0000000000000000000, 1.000000000000000000 ) ) ;
#474 = ORIENTED_EDGE ( 'NONE', *, *, #291, .F. ) ;
#475 = CYLINDRICAL_SURFACE ( 'NONE', #863, 4.249999999999993783 ) ;
#476 = EDGE_CURVE ( 'NONE', #425, #1025, #711, .T. ) ;
#477 = DIRECTION ( 'NONE',  ( -0.0000000000000000000, -1.000000000000000000, -0.0000000000000000000 ) ) ;
#478 = CIRCLE ( 'NONE', #464, 4.249999999999993783 ) ;
#479 = CIRCLE ( 'NONE', #285, 4.249999999999990230 ) ;
#480 = PLANE ( 'NONE',  #852 ) ;
#481 = AXIS2_PLACEMENT_3D ( 'NONE', #484, #555, #954 ) ;
#482 = CARTESIAN_POINT ( 'NONE',  ( -25.00000000000000711, 5.000000000000000888, 0.0000000000000000000 ) ) ;
#483 = VERTEX_POINT ( 'NONE', #31 ) ;
#484 = CARTESIAN_POINT ( 'NONE',  ( -25.00000000000000711, 5.000000000000000888, 0.0000000000000000000 ) ) ;
#485 = ADVANCED_FACE ( 'NONE', ( #930 ), #566, .F. ) ;
#486 = MECHANICAL_DESIGN_GEOMETRIC_PRESENTATION_REPRESENTATION (  '', ( #47 ), #964 ) ;
#487 =( NAMED_UNIT ( * ) PLANE_ANGLE_UNIT ( ) SI_UNIT ( $, .RADIAN. ) );
#488 = ORIENTED_EDGE ( 'NONE', *, *, #114, .F. ) ;
#489 = CARTESIAN_POINT ( 'NONE',  ( -2.999999999999993339, 0.0000000000000000000, 26.00000000000000355 ) ) ;
#490 = LINE ( 'NONE', #72, #1033 ) ;
#491 = CONICAL_SURFACE ( 'NONE', #206, 15.75000000000000000, 0.7853981633974482790 ) ;
#492 = DIRECTION ( 'NONE',  ( 0.0000000000000000000, 0.0000000000000000000, -1.000000000000000000 ) ) ;
#493 = VECTOR ( 'NONE', #606, 1000.000000000000000 ) ;
#494 = EDGE_CURVE ( 'NONE', #500, #717, #178, .T. ) ;
#495 = EDGE_LOOP ( 'NONE', ( #856, #626, #586, #169 ) ) ;
#496 = ORIENTED_EDGE ( 'NONE', *, *, #547, .F. ) ;
#497 = ADVANCED_FACE ( 'NONE', ( #534 ), #726, .F. ) ;
#498 = SURFACE_STYLE_USAGE ( .BOTH. , #326 ) ;
#499 = AXIS2_PLACEMENT_3D ( 'NONE', #837, #663, #755 ) ;
#500 = VERTEX_POINT ( 'NONE', #461 ) ;
#501 = ORIENTED_EDGE ( 'NONE', *, *, #368, .F. ) ;
#502 = SHAPE_DEFINITION_REPRESENTATION ( #281, #293 ) ;
#503 = CYLINDRICAL_SURFACE ( 'NONE', #406, 31.50000000000000000 ) ;
#504 = EDGE_LOOP ( 'NONE', ( #154, #857 ) ) ;
#505 = EDGE_CURVE ( 'NONE', #423, #425, #259, .T. ) ;
#506 = EDGE_LOOP ( 'NONE', ( #588, #571, #981, #944, #102 ) ) ;
#507 = ORIENTED_EDGE ( 'NONE', *, *, #888, .F. ) ;
#508 = ORIENTED_EDGE ( 'NONE', *, *, #343, .F. ) ;
#509 = CONICAL_SURFACE ( 'NONE', #987, 30.50000000000000000, 0.7853981633974378429 ) ;
#510 = VECTOR ( 'NONE', #955, 1000.000000000000000 ) ;
#511 = VECTOR ( 'NONE', #1016, 1000.000000000000000 ) ;
#512 = EDGE_CURVE ( 'NONE', #624, #280, #359, .T. ) ;
#513 = DIRECTION ( 'NONE',  ( -0.0000000000000000000, 1.000000000000000000, -0.0000000000000000000 ) ) ;
#514 = AXIS2_PLACEMENT_3D ( 'NONE', #854, #705, #457 ) ;
#515 = CARTESIAN_POINT ( 'NONE',  ( -25.00000000000000711, -0.001000000000000132727, 3.250000000000000444 ) ) ;
#516 = ORIENTED_EDGE ( 'NONE', *, *, #894, .F. ) ;
#517 = DIRECTION ( 'NONE',  ( -0.0000000000000000000, -1.000000000000000000, -0.0000000000000000000 ) ) ;
#518 = ORIENTED_EDGE ( 'NONE', *, *, #267, .F. ) ;
#519 = AXIS2_PLACEMENT_3D ( 'NONE', #1000, #354, #924 ) ;
#520 = VECTOR ( 'NONE', #850, 1000.000000000000000 ) ;
#521 = PRESENTATION_STYLE_ASSIGNMENT (( #498 ) ) ;
#522 = CARTESIAN_POINT ( 'NONE',  ( -17.67766952966378469, 0.0000000000000000000, -17.67766952966359284 ) ) ;
#523 = DIRECTION ( 'NONE',  ( 0.0000000000000000000, 0.0000000000000000000, -1.000000000000000000 ) ) ;
#524 = ORIENTED_EDGE ( 'NONE', *, *, #236, .F. ) ;
#525 = DIRECTION ( 'NONE',  ( -0.0000000000000000000, -1.000000000000000000, -0.0000000000000000000 ) ) ;
#526 = EDGE_CURVE ( 'NONE', #624, #798, #390, .T. ) ;
#527 = CARTESIAN_POINT ( 'NONE',  ( -17.67766952966378469, 0.0000000000000000000, -17.67766952966359284 ) ) ;
#528 = DIRECTION ( 'NONE',  ( -0.0000000000000000000, 1.000000000000000000, -0.0000000000000000000 ) ) ;
#529 = CARTESIAN_POINT ( 'NONE',  ( -2.999999999999992895, 3.000000000000001332, 26.00000000000000355 ) ) ;
#530 = CARTESIAN_POINT ( 'NONE',  ( -1.836970198720964113E-16, 5.000000000000000888, -26.00000000000000355 ) ) ;
#531 = VERTEX_POINT ( 'NONE', #773 ) ;
#532 = DIRECTION ( 'NONE',  ( 5.782411586589349750E-16, -1.000000000000000000, 0.0000000000000000000 ) ) ;
#533 = AXIS2_PLACEMENT_3D ( 'NONE', #62, #706, #806 ) ;
#534 = FACE_OUTER_BOUND ( 'NONE', #214, .T. ) ;
#535 = CYLINDRICAL_SURFACE ( 'NONE', #793, 2.999999999999988898 ) ;
#536 = DIRECTION ( 'NONE',  ( 0.0000000000000000000, 0.0000000000000000000, -1.000000000000000000 ) ) ;
#537 = FACE_OUTER_BOUND ( 'NONE', #337, .T. ) ;
#538 = DIRECTION ( 'NONE',  ( 0.0000000000000000000, 0.0000000000000000000, 1.000000000000000000 ) ) ;
#539 = CARTESIAN_POINT ( 'NONE',  ( -25.00000000000000711, -0.001000000000000132727, -3.250000000000000444 ) ) ;
#540 = AXIS2_PLACEMENT_3D ( 'NONE', #30, #836, #6 ) ;
#541 = DIRECTION ( 'NONE',  ( 0.0000000000000000000, 0.0000000000000000000, 1.000000000000000000 ) ) ;
#542 = CARTESIAN_POINT ( 'NONE',  ( -17.67766952966366034, 0.0000000000000000000, 21.92766952966371363 ) ) ;
#543 = DIRECTION ( 'NONE',  ( 0.0000000000000000000, 0.0000000000000000000, -1.000000000000000000 ) ) ;
#544 = EDGE_LOOP ( 'NONE', ( #666, #971 ) ) ;
#545 = VERTEX_POINT ( 'NONE', #529 ) ;
#546 = CARTESIAN_POINT ( 'NONE',  ( 0.0000000000000000000, 5.000000000000004441, 0.0000000000000000000 ) ) ;
#547 = EDGE_CURVE ( 'NONE', #465, #563, #915, .T. ) ;
#548 = CARTESIAN_POINT ( 'NONE',  ( 1.928818708657081344E-15, 9.000000000000001776, 15.75000000000000000 ) ) ;
#549 = VECTOR ( 'NONE', #622, 1000.000000000000000 ) ;
#550 = DIRECTION ( 'NONE',  ( 0.0000000000000000000, 0.0000000000000000000, -1.000000000000000000 ) ) ;
#551 = AXIS2_PLACEMENT_3D ( 'NONE', #39, #611, #699 ) ;
#552 = CIRCLE ( 'NONE', #202, 31.50000000000000000 ) ;
#553 = CARTESIAN_POINT ( 'NONE',  ( -25.00000000000000711, 5.000000000000000888, 3.250000000000000444 ) ) ;
#554 = ORIENTED_EDGE ( 'NONE', *, *, #114, .T. ) ;
#555 = DIRECTION ( 'NONE',  ( 0.0000000000000000000, 1.000000000000000000, 0.0000000000000000000 ) ) ;
#556 = ORIENTED_EDGE ( 'NONE', *, *, #881, .F. ) ;
#557 = CARTESIAN_POINT ( 'NONE',  ( -3.345972796008245199E-15, 3.000000000000002665, 24.00000000000000000 ) ) ;
#558 = EDGE_CURVE ( 'NONE', #581, #305, #977, .T. ) ;
#559 = DIRECTION ( 'NONE',  ( 0.0000000000000000000, 1.000000000000000000, 0.0000000000000000000 ) ) ;
#560 = AXIS2_PLACEMENT_3D ( 'NONE', #557, #564, #645 ) ;
#561 = CARTESIAN_POINT ( 'NONE',  ( -17.67766952966366034, 5.000000000000001776, 17.67766952966372074 ) ) ;
#562 = ORIENTED_EDGE ( 'NONE', *, *, #686, .F. ) ;
#563 = VERTEX_POINT ( 'NONE', #144 ) ;
#564 = DIRECTION ( 'NONE',  ( -0.0000000000000000000, -1.000000000000000000, -0.0000000000000000000 ) ) ;
#565 = ADVANCED_FACE ( 'NONE', ( #988 ), #475, .F. ) ;
#566 = CYLINDRICAL_SURFACE ( 'NONE', #499, 4.249999999999993783 ) ;
#567 = EDGE_CURVE ( 'NONE', #1018, #973, #736, .T. ) ;
#568 = VECTOR ( 'NONE', #1037, 1000.000000000000000 ) ;
#569 = CIRCLE ( 'NONE', #449, 15.75000000000000000 ) ;
#570 = ORIENTED_EDGE ( 'NONE', *, *, #220, .F. ) ;
#571 = ORIENTED_EDGE ( 'NONE', *, *, #334, .F. ) ;
#572 = CARTESIAN_POINT ( 'NONE',  ( 2.999999999999986677, -1.187907395172929833E-15, 26.00000000000000355 ) ) ;
#573 = EDGE_CURVE ( 'NONE', #740, #18, #118, .T. ) ;
#574 = ORIENTED_EDGE ( 'NONE', *, *, #986, .F. ) ;
#575 = ADVANCED_FACE ( 'NONE', ( #970 ), #691, .F. ) ;
#576 = ORIENTED_EDGE ( 'NONE', *, *, #650, .F. ) ;
#577 = VECTOR ( 'NONE', #926, 1000.000000000000000 ) ;
#578 = AXIS2_PLACEMENT_3D ( 'NONE', #760, #298, #848 ) ;
#579 = DIRECTION ( 'NONE',  ( -0.0000000000000000000, 1.000000000000000000, -0.0000000000000000000 ) ) ;
#580 = CARTESIAN_POINT ( 'NONE',  ( 0.0000000000000000000, 0.0000000000000000000, 0.0000000000000000000 ) ) ;
#581 = VERTEX_POINT ( 'NONE', #996 ) ;
#582 =( LENGTH_UNIT ( ) NAMED_UNIT ( * ) SI_UNIT ( .MILLI., .METRE. ) );
#583 = DIRECTION ( 'NONE',  ( 0.0000000000000000000, 0.0000000000000000000, 1.000000000000000000 ) ) ;
#584 = EDGE_CURVE ( 'NONE', #344, #717, #34, .T. ) ;
#585 = UNCERTAINTY_MEASURE_WITH_UNIT (LENGTH_MEASURE( 1.000000000000000082E-05 ), #115, 'distance_accuracy_value', 'NONE');
#586 = ORIENTED_EDGE ( 'NONE', *, *, #1011, .T. ) ;
#587 = AXIS2_PLACEMENT_3D ( 'NONE', #682, #1009, #761 ) ;
#588 = ORIENTED_EDGE ( 'NONE', *, *, #155, .T. ) ;
#589 = VECTOR ( 'NONE', #1024, 1000.000000000000114 ) ;
#590 = LINE ( 'NONE', #467, #317 ) ;
#591 = FACE_OUTER_BOUND ( 'NONE', #902, .T. ) ;
#592 = CYLINDRICAL_SURFACE ( 'NONE', #73, 4.249999999999994671 ) ;
#593 = DIRECTION ( 'NONE',  ( 0.0000000000000000000, 0.0000000000000000000, 1.000000000000000000 ) ) ;
#594 = FILL_AREA_STYLE_COLOUR ( '', #74 ) ;
#595 = AXIS2_PLACEMENT_3D ( 'NONE', #430, #680, #838 ) ;
#596 = ORIENTED_EDGE ( 'NONE', *, *, #831, .T. ) ;
#597 = DIRECTION ( 'NONE',  ( 0.0000000000000000000, 0.0000000000000000000, -1.000000000000000000 ) ) ;
#598 = FACE_OUTER_BOUND ( 'NONE', #279, .T. ) ;
#599 = LINE ( 'NONE', #693, #577 ) ;
#600 = CARTESIAN_POINT ( 'NONE',  ( 17.67766952966365324, 5.000000000000000888, -21.92766952966372074 ) ) ;
#601 = CARTESIAN_POINT ( 'NONE',  ( -3.345972796008245199E-15, 0.0000000000000000000, 21.00000000000001066 ) ) ;
#602 = EDGE_LOOP ( 'NONE', ( #174, #783 ) ) ;
#603 = CARTESIAN_POINT ( 'NONE',  ( -2.999999999999992450, 3.000000000000001332, 24.00000000000000000 ) ) ;
#604 = AXIS2_PLACEMENT_3D ( 'NONE', #295, #362, #450 ) ;
#605 = DIRECTION ( 'NONE',  ( -0.0000000000000000000, -1.000000000000000000, -0.0000000000000000000 ) ) ;
#606 = DIRECTION ( 'NONE',  ( 1.836970198721031660E-16, -0.0000000000000000000, -1.000000000000000000 ) ) ;
#607 = CARTESIAN_POINT ( 'NONE',  ( 2.999999999999986233, 3.000000000000002665, 24.00000000000000000 ) ) ;
#608 = DIRECTION ( 'NONE',  ( -0.0000000000000000000, -1.000000000000000000, -0.0000000000000000000 ) ) ;
#609 = CARTESIAN_POINT ( 'NONE',  ( -17.67766952966378469, 5.000000000000001776, -17.67766952966359284 ) ) ;
#610 = PRODUCT_DEFINITION_CONTEXT ( 'detailed design', #21, 'design' ) ;
#611 = DIRECTION ( 'NONE',  ( -0.0000000000000000000, 1.000000000000000000, -0.0000000000000000000 ) ) ;
#612 = ORIENTED_EDGE ( 'NONE', *, *, #458, .T. ) ;
#613 = AXIS2_PLACEMENT_3D ( 'NONE', #822, #336, #597 ) ;
#614 = DIRECTION ( 'NONE',  ( 0.0000000000000000000, 0.0000000000000000000, -1.000000000000000000 ) ) ;
#615 = FACE_BOUND ( 'NONE', #112, .T. ) ;
#616 = CARTESIAN_POINT ( 'NONE',  ( 0.0000000000000000000, 1.000000000000021760, 0.0000000000000000000 ) ) ;
#617 = DIRECTION ( 'NONE',  ( -0.0000000000000000000, 1.000000000000000000, -0.0000000000000000000 ) ) ;
#618 = ORIENTED_EDGE ( 'NONE', *, *, #584, .F. ) ;
#619 = ORIENTED_EDGE ( 'NONE', *, *, #3, .F. ) ;
#620 = AXIS2_PLACEMENT_3D ( 'NONE', #703, #143, #49 ) ;
#621 = DIRECTION ( 'NONE',  ( -0.0000000000000000000, -1.000000000000000000, -0.0000000000000000000 ) ) ;
#622 = DIRECTION ( 'NONE',  ( -0.0000000000000000000, 1.000000000000000000, -0.0000000000000000000 ) ) ;
#623 = DIRECTION ( 'NONE',  ( 0.0000000000000000000, -1.000000000000000000, 0.0000000000000000000 ) ) ;
#624 = VERTEX_POINT ( 'NONE', #1002 ) ;
#625 = DIRECTION ( 'NONE',  ( -0.0000000000000000000, -1.000000000000000000, -0.0000000000000000000 ) ) ;
#626 = ORIENTED_EDGE ( 'NONE', *, *, #53, .T. ) ;
#627 = CARTESIAN_POINT ( 'NONE',  ( -31.50000000000000000, 0.0000000000000000000, 0.0000000000000000000 ) ) ;
#628 = FACE_BOUND ( 'NONE', #751, .T. ) ;
#629 = FACE_OUTER_BOUND ( 'NONE', #1038, .T. ) ;
#630 = CARTESIAN_POINT ( 'NONE',  ( -3.345972796008245199E-15, 3.000000000000002665, 24.00000000000000000 ) ) ;
#631 = CARTESIAN_POINT ( 'NONE',  ( 0.0000000000000000000, 1.000000000000021760, -31.50000000000000000 ) ) ;
#632 = DIRECTION ( 'NONE',  ( 0.0000000000000000000, 0.0000000000000000000, 1.000000000000000000 ) ) ;
#633 = AXIS2_PLACEMENT_3D ( 'NONE', #58, #366, #135 ) ;
#634 = DIRECTION ( 'NONE',  ( 0.0000000000000000000, 0.0000000000000000000, -1.000000000000000000 ) ) ;
#635 = CARTESIAN_POINT ( 'NONE',  ( 3.857637417314162689E-15, 5.000000000000000888, 31.50000000000000000 ) ) ;
#636 = ORIENTED_EDGE ( 'NONE', *, *, #494, .T. ) ;
#637 = CARTESIAN_POINT ( 'NONE',  ( 17.67766952966379179, 0.0000000000000000000, 21.92766952966358218 ) ) ;
#638 = VERTEX_POINT ( 'NONE', #46 ) ;
#639 = CIRCLE ( 'NONE', #442, 2.999999999999999112 ) ;
#640 = DIRECTION ( 'NONE',  ( 0.0000000000000000000, 0.0000000000000000000, 1.000000000000000000 ) ) ;
#641 = ORIENTED_EDGE ( 'NONE', *, *, #149, .F. ) ;
#642 = DIRECTION ( 'NONE',  ( -1.836970198720962388E-16, -0.0000000000000000000, -1.000000000000000000 ) ) ;
#643 = ADVANCED_FACE ( 'NONE', ( #121 ), #927, .T. ) ;
#644 = VERTEX_POINT ( 'NONE', #607 ) ;
#645 = DIRECTION ( 'NONE',  ( 0.0000000000000000000, 0.0000000000000000000, -1.000000000000000000 ) ) ;
#646 = DIRECTION ( 'NONE',  ( 1.000000000000000000, 0.0000000000000000000, 0.0000000000000000000 ) ) ;
#647 = ORIENTED_EDGE ( 'NONE', *, *, #141, .F. ) ;
#648 = ORIENTED_EDGE ( 'NONE', *, *, #110, .F. ) ;
#649 = CARTESIAN_POINT ( 'NONE',  ( 0.0000000000000000000, 0.0000000000000000000, 30.50000000000000000 ) ) ;
#650 = EDGE_CURVE ( 'NONE', #908, #638, #9, .T. ) ;
#651 = CIRCLE ( 'NONE', #613, 15.75000000000000000 ) ;
#652 = EDGE_LOOP ( 'NONE', ( #356, #242, #256, #472 ) ) ;
#653 = ORIENTED_EDGE ( 'NONE', *, *, #236, .T. ) ;
#654 = AXIS2_PLACEMENT_3D ( 'NONE', #914, #513, #274 ) ;
#655 = DIRECTION ( 'NONE',  ( 0.0000000000000000000, 0.0000000000000000000, -1.000000000000000000 ) ) ;
#656 = ORIENTED_EDGE ( 'NONE', *, *, #384, .F. ) ;
#657 =( NAMED_UNIT ( * ) SI_UNIT ( $, .STERADIAN. ) SOLID_ANGLE_UNIT ( ) );
#658 = ORIENTED_EDGE ( 'NONE', *, *, #325, .T. ) ;
#659 = DIRECTION ( 'NONE',  ( -0.0000000000000000000, -1.000000000000000000, -0.0000000000000000000 ) ) ;
#660 = CIRCLE ( 'NONE', #1052, 30.50000000000000000 ) ;
#661 = VECTOR ( 'NONE', #468, 1000.000000000000000 ) ;
#662 = ORIENTED_EDGE ( 'NONE', *, *, #938, .F. ) ;
#663 = DIRECTION ( 'NONE',  ( -0.0000000000000000000, 1.000000000000000000, -0.0000000000000000000 ) ) ;
#664 = EDGE_CURVE ( 'NONE', #301, #545, #700, .T. ) ;
#665 = AXIS2_PLACEMENT_3D ( 'NONE', #616, #130, #767 ) ;
#666 = ORIENTED_EDGE ( 'NONE', *, *, #860, .T. ) ;
#667 = DIRECTION ( 'NONE',  ( 0.0000000000000000000, 1.000000000000000000, 0.0000000000000000000 ) ) ;
#668 = APPLICATION_PROTOCOL_DEFINITION ( 'draft international standard', 'automotive_design', 1998, #21 ) ;
#669 = ORIENTED_EDGE ( 'NONE', *, *, #322, .T. ) ;
#670 = FACE_BOUND ( 'NONE', #504, .T. ) ;
#671 = CIRCLE ( 'NONE', #451, 15.75000000000000000 ) ;
#672 = CIRCLE ( 'NONE', #828, 4.249999999999993783 ) ;
#673 = SURFACE_SIDE_STYLE ('',( #1021 ) ) ;
#674 = AXIS2_PLACEMENT_3D ( 'NONE', #211, #282, #358 ) ;
#675 = ORIENTED_EDGE ( 'NONE', *, *, #183, .T. ) ;
#676 = CARTESIAN_POINT ( 'NONE',  ( 17.67766952966379179, 5.000000000000000888, 21.92766952966358218 ) ) ;
#677 = AXIS2_PLACEMENT_3D ( 'NONE', #765, #224, #780 ) ;
#678 = ORIENTED_EDGE ( 'NONE', *, *, #322, .F. ) ;
#679 = DIRECTION ( 'NONE',  ( 0.0000000000000000000, 0.0000000000000000000, -1.000000000000000000 ) ) ;
#680 = DIRECTION ( 'NONE',  ( -0.0000000000000000000, 1.000000000000000000, -0.0000000000000000000 ) ) ;
#681 = ORIENTED_EDGE ( 'NONE', *, *, #469, .T. ) ;
#682 = CARTESIAN_POINT ( 'NONE',  ( -2.999999999999993339, 0.0000000000000000000, 26.00000000000000355 ) ) ;
#683 = CIRCLE ( 'NONE', #674, 14.75000000000000000 ) ;
#684 = VECTOR ( 'NONE', #167, 1000.000000000000000 ) ;
#685 = CARTESIAN_POINT ( 'NONE',  ( 0.0000000000000000000, 5.000000000000004441, -15.75000000000000000 ) ) ;
#686 = EDGE_CURVE ( 'NONE', #18, #772, #10, .T. ) ;
#687 = VERTEX_POINT ( 'NONE', #371 ) ;
#688 = EDGE_LOOP ( 'NONE', ( #15, #83, #997, #193 ) ) ;
#689 = PLANE ( 'NONE',  #1035 ) ;
#690 = CARTESIAN_POINT ( 'NONE',  ( 0.0000000000000000000, 10.00000000000000178, 0.0000000000000000000 ) ) ;
#691 = PLANE ( 'NONE',  #587 ) ;
#692 = CARTESIAN_POINT ( 'NONE',  ( -17.67766952966366034, 5.000000000000000888, 21.92766952966371363 ) ) ;
#693 = CARTESIAN_POINT ( 'NONE',  ( 2.999999999999985345, 3.000000000000002665, 24.00000000000000000 ) ) ;
#694 = DIRECTION ( 'NONE',  ( -1.000000000000000000, -5.782411586589349750E-16, -1.836970198721031660E-16 ) ) ;
#695 = EDGE_LOOP ( 'NONE', ( #619, #928 ) ) ;
#696 = DIRECTION ( 'NONE',  ( 0.0000000000000000000, 1.000000000000000000, 0.0000000000000000000 ) ) ;
#697 = DIRECTION ( 'NONE',  ( 0.0000000000000000000, 0.0000000000000000000, -1.000000000000000000 ) ) ;
#698 = VECTOR ( 'NONE', #463, 1000.000000000000000 ) ;
#699 = DIRECTION ( 'NONE',  ( 0.0000000000000000000, 0.0000000000000000000, 1.000000000000000000 ) ) ;
#700 = CIRCLE ( 'NONE', #260, 2.999999999999988898 ) ;
#701 = DIRECTION ( 'NONE',  ( -0.0000000000000000000, 1.000000000000000000, -0.0000000000000000000 ) ) ;
#702 = ORIENTED_EDGE ( 'NONE', *, *, #189, .T. ) ;
#703 = CARTESIAN_POINT ( 'NONE',  ( -25.00000000000000711, 0.0000000000000000000, 0.0000000000000000000 ) ) ;
#704 = CARTESIAN_POINT ( 'NONE',  ( 17.67766952966379179, 5.000000000000000888, 17.67766952966358573 ) ) ;
#705 = DIRECTION ( 'NONE',  ( 0.0000000000000000000, 1.000000000000000000, 0.0000000000000000000 ) ) ;
#706 = DIRECTION ( 'NONE',  ( -0.0000000000000000000, 1.000000000000000000, -0.0000000000000000000 ) ) ;
#707 = DIRECTION ( 'NONE',  ( -0.0000000000000000000, -1.000000000000000000, -0.0000000000000000000 ) ) ;
#708 = ORIENTED_EDGE ( 'NONE', *, *, #650, .T. ) ;
#709 = VERTEX_POINT ( 'NONE', #796 ) ;
#710 = AXIS2_PLACEMENT_3D ( 'NONE', #784, #65, #632 ) ;
#711 = CIRCLE ( 'NONE', #378, 2.999999999999999112 ) ;
#712 = DIRECTION ( 'NONE',  ( 0.0000000000000000000, 1.000000000000000000, 0.0000000000000000000 ) ) ;
#713 = CARTESIAN_POINT ( 'NONE',  ( -2.999999999999998668, 5.000000000000000888, -24.00000000000000000 ) ) ;
#714 = FACE_BOUND ( 'NONE', #275, .T. ) ;
#715 = LINE ( 'NONE', #271, #874 ) ;
#716 = DIRECTION ( 'NONE',  ( -0.0000000000000000000, 1.000000000000000000, -0.0000000000000000000 ) ) ;
#717 = VERTEX_POINT ( 'NONE', #631 ) ;
#718 = EDGE_LOOP ( 'NONE', ( #774, #636, #618, #662 ) ) ;
#719 = DIRECTION ( 'NONE',  ( -1.836970198720962388E-16, -0.0000000000000000000, -1.000000000000000000 ) ) ;
#720 = AXIS2_PLACEMENT_3D ( 'NONE', #323, #411, #400 ) ;
#721 = ADVANCED_FACE ( 'NONE', ( #833 ), #318, .F. ) ;
#722 = ORIENTED_EDGE ( 'NONE', *, *, #123, .T. ) ;
#723 = VERTEX_POINT ( 'NONE', #876 ) ;
#724 = AXIS2_PLACEMENT_3D ( 'NONE', #932, #621, #697 ) ;
#725 = ADVANCED_FACE ( 'NONE', ( #261 ), #491, .T. ) ;
#726 = CYLINDRICAL_SURFACE ( 'NONE', #551, 2.999999999999999112 ) ;
#727 = CYLINDRICAL_SURFACE ( 'NONE', #89, 2.999999999999999112 ) ;
#728 = LINE ( 'NONE', #809, #20 ) ;
#729 = ADVANCED_FACE ( 'NONE', ( #38 ), #460, .F. ) ;
#730 = CARTESIAN_POINT ( 'NONE',  ( 17.67766952966365324, 0.0000000000000000000, -21.92766952966372074 ) ) ;
#731 = MECHANICAL_DESIGN_GEOMETRIC_PRESENTATION_REPRESENTATION (  '', ( #820 ), #116 ) ;
#732 = EDGE_LOOP ( 'NONE', ( #733, #396, #160, #956 ) ) ;
#733 = ORIENTED_EDGE ( 'NONE', *, *, #946, .F. ) ;
#734 =( NAMED_UNIT ( * ) PLANE_ANGLE_UNIT ( ) SI_UNIT ( $, .RADIAN. ) );
#735 = AXIS2_PLACEMENT_3D ( 'NONE', #380, #152, #156 ) ;
#736 = CIRCLE ( 'NONE', #33, 4.249999999999993783 ) ;
#737 = CARTESIAN_POINT ( 'NONE',  ( -3.345972796008245199E-15, 3.000000000000002665, 21.00000000000001066 ) ) ;
#738 = ADVANCED_FACE ( 'NONE', ( #393, #873, #615, #714, #12, #629, #361 ), #480, .F. ) ;
#739 = EDGE_LOOP ( 'NONE', ( #722, #168, #743, #379 ) ) ;
#740 = VERTEX_POINT ( 'NONE', #1023 ) ;
#741 = EDGE_CURVE ( 'NONE', #425, #764, #1022, .T. ) ;
#742 = ORIENTED_EDGE ( 'NONE', *, *, #16, .F. ) ;
#743 = ORIENTED_EDGE ( 'NONE', *, *, #910, .F. ) ;
#744 = CYLINDRICAL_SURFACE ( 'NONE', #654, 3.250000000000000444 ) ;
#745 = FACE_OUTER_BOUND ( 'NONE', #749, .T. ) ;
#746 = FACE_OUTER_BOUND ( 'NONE', #867, .T. ) ;
#747 = LINE ( 'NONE', #448, #511 ) ;
#748 = ORIENTED_EDGE ( 'NONE', *, *, #505, .F. ) ;
#749 = EDGE_LOOP ( 'NONE', ( #111, #748, #405, #140 ) ) ;
#750 = EDGE_CURVE ( 'NONE', #398, #798, #849, .T. ) ;
#751 = EDGE_LOOP ( 'NONE', ( #556, #810, #576, #756, #518 ) ) ;
#752 = DIRECTION ( 'NONE',  ( -0.0000000000000000000, 1.000000000000000000, -0.0000000000000000000 ) ) ;
#753 = EDGE_LOOP ( 'NONE', ( #52, #887 ) ) ;
#754 = CIRCLE ( 'NONE', #231, 4.249999999999993783 ) ;
#755 = DIRECTION ( 'NONE',  ( 0.0000000000000000000, 0.0000000000000000000, 1.000000000000000000 ) ) ;
#756 = ORIENTED_EDGE ( 'NONE', *, *, #1020, .F. ) ;
#757 = CARTESIAN_POINT ( 'NONE',  ( 1.836970198720964113E-16, 5.000000000000000888, -24.00000000000000000 ) ) ;
#758 = CARTESIAN_POINT ( 'NONE',  ( 17.67766952966379179, 0.0000000000000000000, 17.67766952966358573 ) ) ;
#759 = CARTESIAN_POINT ( 'NONE',  ( 0.0000000000000000000, -13.31379493162927119, 0.0000000000000000000 ) ) ;
#760 = CARTESIAN_POINT ( 'NONE',  ( 2.999999999999998668, 2.000000000000000000, -24.00000000000000000 ) ) ;
#761 = DIRECTION ( 'NONE',  ( -1.836970198721031660E-16, 0.0000000000000000000, 1.000000000000000000 ) ) ;
#762 = ORIENTED_EDGE ( 'NONE', *, *, #469, .F. ) ;
#763 = AXIS2_PLACEMENT_3D ( 'NONE', #713, #812, #891 ) ;
#764 = VERTEX_POINT ( 'NONE', #385 ) ;
#765 = CARTESIAN_POINT ( 'NONE',  ( -1.836970198720964113E-16, 2.000000000000000000, -26.00000000000000355 ) ) ;
#766 = VERTEX_POINT ( 'NONE', #311 ) ;
#767 = DIRECTION ( 'NONE',  ( 0.0000000000000000000, 0.0000000000000000000, 1.000000000000000000 ) ) ;
#768 = LINE ( 'NONE', #383, #54 ) ;
#769 = CARTESIAN_POINT ( 'NONE',  ( 0.0000000000000000000, -13.31379493162927119, 0.0000000000000000000 ) ) ;
#770 = CARTESIAN_POINT ( 'NONE',  ( 17.67766952966365324, 5.000000000000000888, -13.42766952966373140 ) ) ;
#771 = AXIS2_PLACEMENT_3D ( 'NONE', #630, #241, #244 ) ;
#772 = VERTEX_POINT ( 'NONE', #953 ) ;
#773 = CARTESIAN_POINT ( 'NONE',  ( -2.999999999999999112, 2.000000000000000000, -26.00000000000000355 ) ) ;
#774 = ORIENTED_EDGE ( 'NONE', *, *, #278, .F. ) ;
#775 = AXIS2_PLACEMENT_3D ( 'NONE', #150, #943, #75 ) ;
#776 = CARTESIAN_POINT ( 'NONE',  ( 0.0000000000000000000, 9.000000000000001776, -15.75000000000000000 ) ) ;
#777 = DIRECTION ( 'NONE',  ( -0.0000000000000000000, 1.000000000000000000, -0.0000000000000000000 ) ) ;
#778 = DIRECTION ( 'NONE',  ( 0.0000000000000000000, 0.0000000000000000000, 1.000000000000000000 ) ) ;
#779 = EDGE_CURVE ( 'NONE', #1028, #500, #164, .T. ) ;
#780 = DIRECTION ( 'NONE',  ( 0.0000000000000000000, 0.0000000000000000000, 1.000000000000000000 ) ) ;
#781 = DIRECTION ( 'NONE',  ( -0.0000000000000000000, -1.000000000000000000, -0.0000000000000000000 ) ) ;
#782 = ORIENTED_EDGE ( 'NONE', *, *, #982, .F. ) ;
#783 = ORIENTED_EDGE ( 'NONE', *, *, #512, .F. ) ;
#784 = CARTESIAN_POINT ( 'NONE',  ( 1.836970198720964113E-16, 5.000000000000000888, -24.00000000000000000 ) ) ;
#785 = DIRECTION ( 'NONE',  ( -0.0000000000000000000, -1.000000000000000000, -0.0000000000000000000 ) ) ;
#786 = LINE ( 'NONE', #676, #823 ) ;
#787 = DIRECTION ( 'NONE',  ( 0.0000000000000000000, 0.0000000000000000000, 1.000000000000000000 ) ) ;
#788 = VECTOR ( 'NONE', #360, 1000.000000000000000 ) ;
#789 = ORIENTED_EDGE ( 'NONE', *, *, #799, .T. ) ;
#790 = DIRECTION ( 'NONE',  ( 0.0000000000000000000, 0.0000000000000000000, 1.000000000000000000 ) ) ;
#791 = AXIS2_PLACEMENT_3D ( 'NONE', #284, #935, #1007 ) ;
#792 = CARTESIAN_POINT ( 'NONE',  ( -3.345972796008245199E-15, -1.187907395172929833E-15, 24.00000000000000000 ) ) ;
#793 = AXIS2_PLACEMENT_3D ( 'NONE', #217, #1005, #43 ) ;
#794 = CARTESIAN_POINT ( 'NONE',  ( 2.999999999999998668, 2.000000000000000444, -24.00000000000000000 ) ) ;
#795 = DIRECTION ( 'NONE',  ( -0.0000000000000000000, 1.000000000000000000, -0.0000000000000000000 ) ) ;
#796 = CARTESIAN_POINT ( 'NONE',  ( 3.000000000000001776, 5.000000000000000888, -24.00000000000000000 ) ) ;
#797 = CARTESIAN_POINT ( 'NONE',  ( 0.0000000000000000000, 5.000000000000004441, 0.0000000000000000000 ) ) ;
#798 = VERTEX_POINT ( 'NONE', #147 ) ;
#799 = EDGE_CURVE ( 'NONE', #973, #1018, #191, .T. ) ;
#800 = EDGE_LOOP ( 'NONE', ( #641, #574 ) ) ;
#801 = ADVANCED_FACE ( 'NONE', ( #1004 ), #807, .F. ) ;
#802 = DIRECTION ( 'NONE',  ( 0.0000000000000000000, 0.0000000000000000000, 1.000000000000000000 ) ) ;
#803 = AXIS2_PLACEMENT_3D ( 'NONE', #792, #392, #543 ) ;
#804 = CARTESIAN_POINT ( 'NONE',  ( 0.0000000000000000000, 0.0000000000000000000, 30.50000000000000000 ) ) ;
#805 = VECTOR ( 'NONE', #215, 1000.000000000000000 ) ;
#806 = DIRECTION ( 'NONE',  ( 0.0000000000000000000, 0.0000000000000000000, 1.000000000000000000 ) ) ;
#807 = CYLINDRICAL_SURFACE ( 'NONE', #775, 3.250000000000000444 ) ;
#808 = EDGE_LOOP ( 'NONE', ( #508, #669, #207, #257 ) ) ;
#809 = CARTESIAN_POINT ( 'NONE',  ( -17.67766952966366034, 5.000000000000000888, 13.42766952966372607 ) ) ;
#810 = ORIENTED_EDGE ( 'NONE', *, *, #141, .T. ) ;
#811 = DIRECTION ( 'NONE',  ( 0.0000000000000000000, 1.000000000000000000, 0.0000000000000000000 ) ) ;
#812 = DIRECTION ( 'NONE',  ( -1.000000000000000000, 0.0000000000000000000, 1.836970198720962388E-16 ) ) ;
#813 = DIRECTION ( 'NONE',  ( -0.0000000000000000000, -1.000000000000000000, -0.0000000000000000000 ) ) ;
#814 = ADVANCED_FACE ( 'NONE', ( #591 ), #340, .F. ) ;
#815 = EDGE_LOOP ( 'NONE', ( #324, #417, #681, #950 ) ) ;
#816 = EDGE_CURVE ( 'NONE', #223, #142, #671, .T. ) ;
#817 = CIRCLE ( 'NONE', #184, 15.75000000000000000 ) ;
#818 = ADVANCED_FACE ( 'NONE', ( #1048 ), #288, .F. ) ;
#819 = FILL_AREA_STYLE ('',( #93 ) ) ;
#820 = STYLED_ITEM ( 'NONE', ( #239 ), #447 ) ;
#821 = ORIENTED_EDGE ( 'NONE', *, *, #80, .T. ) ;
#822 = CARTESIAN_POINT ( 'NONE',  ( 0.0000000000000000000, 9.000000000000001776, 0.0000000000000000000 ) ) ;
#823 = VECTOR ( 'NONE', #832, 1000.000000000000000 ) ;
#824 = LINE ( 'NONE', #866, #11 ) ;
#825 = CYLINDRICAL_SURFACE ( 'NONE', #791, 4.249999999999994671 ) ;
#826 = ORIENTED_EDGE ( 'NONE', *, *, #183, .F. ) ;
#827 = ORIENTED_EDGE ( 'NONE', *, *, #278, .T. ) ;
#828 = AXIS2_PLACEMENT_3D ( 'NONE', #952, #397, #473 ) ;
#829 =( NAMED_UNIT ( * ) SI_UNIT ( $, .STERADIAN. ) SOLID_ANGLE_UNIT ( ) );
#830 = ORIENTED_EDGE ( 'NONE', *, *, #123, .F. ) ;
#831 = EDGE_CURVE ( 'NONE', #44, #740, #960, .T. ) ;
#832 = DIRECTION ( 'NONE',  ( -0.0000000000000000000, 1.000000000000000000, -0.0000000000000000000 ) ) ;
#833 = FACE_OUTER_BOUND ( 'NONE', #435, .T. ) ;
#834 = CIRCLE ( 'NONE', #896, 4.249999999999986677 ) ;
#835 = CONICAL_SURFACE ( 'NONE', #540, 15.75000000000000000, 0.7853981633974482790 ) ;
#836 = DIRECTION ( 'NONE',  ( -0.0000000000000000000, -1.000000000000000000, -0.0000000000000000000 ) ) ;
#837 = CARTESIAN_POINT ( 'NONE',  ( -17.67766952966366034, 5.000000000000000888, 17.67766952966372074 ) ) ;
#838 = DIRECTION ( 'NONE',  ( 0.0000000000000000000, 0.0000000000000000000, 1.000000000000000000 ) ) ;
#839 = CARTESIAN_POINT ( 'NONE',  ( 17.67766952966379179, 5.000000000000001776, 17.67766952966358573 ) ) ;
#840 = AXIS2_PLACEMENT_3D ( 'NONE', #879, #795, #388 ) ;
#841 = AXIS2_PLACEMENT_3D ( 'NONE', #884, #172, #965 ) ;
#842 = ORIENTED_EDGE ( 'NONE', *, *, #831, .F. ) ;
#843 = DIRECTION ( 'NONE',  ( 0.0000000000000000000, 1.000000000000000000, 0.0000000000000000000 ) ) ;
#844 = ORIENTED_EDGE ( 'NONE', *, *, #779, .T. ) ;
#845 = DIRECTION ( 'NONE',  ( 0.0000000000000000000, -1.000000000000000000, -0.0000000000000000000 ) ) ;
#846 = CARTESIAN_POINT ( 'NONE',  ( -4.213334533996649535E-15, 3.000000000000001332, 24.00000000000000000 ) ) ;
#847 = SURFACE_STYLE_FILL_AREA ( #819 ) ;
#848 = DIRECTION ( 'NONE',  ( 5.782411586589355667E-16, 1.000000000000000000, 0.0000000000000000000 ) ) ;
#849 = CIRCLE ( 'NONE', #481, 3.250000000000000444 ) ;
#850 = DIRECTION ( 'NONE',  ( 1.836970198721031660E-16, -0.0000000000000000000, -1.000000000000000000 ) ) ;
#851 = EDGE_LOOP ( 'NONE', ( #826, #821, #133, #209 ) ) ;
#852 = AXIS2_PLACEMENT_3D ( 'NONE', #627, #381, #948 ) ;
#853 = ORIENTED_EDGE ( 'NONE', *, *, #27, .T. ) ;
#854 = CARTESIAN_POINT ( 'NONE',  ( 17.67766952966365324, 0.0000000000000000000, -17.67766952966372784 ) ) ;
#855 = ORIENTED_EDGE ( 'NONE', *, *, #155, .F. ) ;
#856 = ORIENTED_EDGE ( 'NONE', *, *, #85, .F. ) ;
#857 = ORIENTED_EDGE ( 'NONE', *, *, #901, .F. ) ;
#858 = LINE ( 'NONE', #151, #428 ) ;
#859 = FACE_OUTER_BOUND ( 'NONE', #24, .T. ) ;
#860 = EDGE_CURVE ( 'NONE', #963, #14, #906, .T. ) ;
#861 = DIRECTION ( 'NONE',  ( -0.0000000000000000000, 1.000000000000000000, -0.0000000000000000000 ) ) ;
#862 = ORIENTED_EDGE ( 'NONE', *, *, #913, .F. ) ;
#863 = AXIS2_PLACEMENT_3D ( 'NONE', #1013, #367, #541 ) ;
#864 = DIRECTION ( 'NONE',  ( 0.0000000000000000000, 0.0000000000000000000, 1.000000000000000000 ) ) ;
#865 = DIRECTION ( 'NONE',  ( 0.0000000000000000000, 0.0000000000000000000, 1.000000000000000000 ) ) ;
#866 = CARTESIAN_POINT ( 'NONE',  ( -2.999999999999993339, 0.0000000000000000000, 24.00000000000000000 ) ) ;
#867 = EDGE_LOOP ( 'NONE', ( #445, #862, #524, #911 ) ) ;
#868 = AXIS2_PLACEMENT_3D ( 'NONE', #355, #454, #778 ) ;
#869 = EDGE_LOOP ( 'NONE', ( #370, #742 ) ) ;
#870 = DIRECTION ( 'NONE',  ( 0.0000000000000000000, 1.000000000000000000, 0.0000000000000000000 ) ) ;
#871 = CARTESIAN_POINT ( 'NONE',  ( 17.67766952966379179, 5.000000000000000888, 17.67766952966358573 ) ) ;
#872 = CIRCLE ( 'NONE', #533, 2.999999999999999112 ) ;
#873 = FACE_BOUND ( 'NONE', #347, .T. ) ;
#874 = VECTOR ( 'NONE', #920, 1000.000000000000000 ) ;
#875 = EDGE_LOOP ( 'NONE', ( #235, #929, #596, #474 ) ) ;
#876 = CARTESIAN_POINT ( 'NONE',  ( 17.67766952966379179, 5.000000000000001776, 13.42766952966359817 ) ) ;
#877 = VERTEX_POINT ( 'NONE', #444 ) ;
#878 = AXIS2_PLACEMENT_3D ( 'NONE', #931, #35, #679 ) ;
#879 = CARTESIAN_POINT ( 'NONE',  ( -17.67766952966366034, 5.000000000000000888, 17.67766952966372074 ) ) ;
#880 = ADVANCED_FACE ( 'NONE', ( #443 ), #120, .F. ) ;
#881 = EDGE_CURVE ( 'NONE', #364, #764, #639, .T. ) ;
#882 = ORIENTED_EDGE ( 'NONE', *, *, #350, .T. ) ;
#883 = ORIENTED_EDGE ( 'NONE', *, *, #567, .F. ) ;
#884 = CARTESIAN_POINT ( 'NONE',  ( -3.713366835752451432E-15, 0.0000000000000000000, 26.00000000000000355 ) ) ;
#885 = CYLINDRICAL_SURFACE ( 'NONE', #335, 31.50000000000000000 ) ;
#886 = CIRCLE ( 'NONE', #633, 4.249999999999986677 ) ;
#887 = ORIENTED_EDGE ( 'NONE', *, *, #53, .F. ) ;
#888 = EDGE_CURVE ( 'NONE', #709, #1025, #269, .T. ) ;
#889 = DIRECTION ( 'NONE',  ( 8.659560562354932858E-17, -0.7071067811865474617, 0.7071067811865474617 ) ) ;
#890 = ADVANCED_FACE ( 'NONE', ( #56 ), #885, .T. ) ;
#891 = DIRECTION ( 'NONE',  ( 1.836970198720962388E-16, 0.0000000000000000000, 1.000000000000000000 ) ) ;
#892 = EDGE_LOOP ( 'NONE', ( #855, #980, #708, #501 ) ) ;
#893 = ADVANCED_FACE ( 'NONE', ( #746 ), #535, .F. ) ;
#894 = EDGE_CURVE ( 'NONE', #376, #968, #978, .T. ) ;
#895 = CARTESIAN_POINT ( 'NONE',  ( 17.67766952966379179, 5.000000000000001776, 17.67766952966358573 ) ) ;
#896 = AXIS2_PLACEMENT_3D ( 'NONE', #561, #395, #865 ) ;
#897 = VECTOR ( 'NONE', #205, 1000.000000000000000 ) ;
#898 = LINE ( 'NONE', #66, #684 ) ;
#899 = ADVANCED_FACE ( 'NONE', ( #859 ), #503, .T. ) ;
#900 = ORIENTED_EDGE ( 'NONE', *, *, #741, .T. ) ;
#901 = EDGE_CURVE ( 'NONE', #798, #398, #934, .T. ) ;
#902 = EDGE_LOOP ( 'NONE', ( #883, #410, #67, #762 ) ) ;
#903 = DIRECTION ( 'NONE',  ( -0.0000000000000000000, -1.000000000000000000, -0.0000000000000000000 ) ) ;
#904 = CIRCLE ( 'NONE', #514, 4.249999999999994671 ) ;
#905 = PRESENTATION_LAYER_ASSIGNMENT (  '', '', ( #47 ) ) ;
#906 = CIRCLE ( 'NONE', #125, 14.75000000000000000 ) ;
#907 = CYLINDRICAL_SURFACE ( 'NONE', #724, 2.999999999999988898 ) ;
#908 = VERTEX_POINT ( 'NONE', #134 ) ;
#909 = DIRECTION ( 'NONE',  ( -0.0000000000000000000, 1.000000000000000000, -0.0000000000000000000 ) ) ;
#910 = EDGE_CURVE ( 'NONE', #142, #223, #817, .T. ) ;
#911 = ORIENTED_EDGE ( 'NONE', *, *, #686, .T. ) ;
#912 = ORIENTED_EDGE ( 'NONE', *, *, #27, .F. ) ;
#913 = EDGE_CURVE ( 'NONE', #437, #59, #212, .T. ) ;
#914 = CARTESIAN_POINT ( 'NONE',  ( -25.00000000000000711, -0.001000000000000132727, 0.0000000000000000000 ) ) ;
#915 = LINE ( 'NONE', #126, #549 ) ;
#916 = VECTOR ( 'NONE', #889, 1000.000000000000114 ) ;
#917 = AXIS2_PLACEMENT_3D ( 'NONE', #704, #307, #802 ) ;
#918 = LINE ( 'NONE', #515, #805 ) ;
#919 = EDGE_LOOP ( 'NONE', ( #203, #251, #830, #656 ) ) ;
#920 = DIRECTION ( 'NONE',  ( -5.782411586589349750E-16, 1.000000000000000000, -0.0000000000000000000 ) ) ;
#921 = VERTEX_POINT ( 'NONE', #82 ) ;
#922 = ORIENTED_EDGE ( 'NONE', *, *, #901, .T. ) ;
#923 = DIRECTION ( 'NONE',  ( -0.0000000000000000000, -1.000000000000000000, -0.0000000000000000000 ) ) ;
#924 = DIRECTION ( 'NONE',  ( 0.0000000000000000000, 0.0000000000000000000, 1.000000000000000000 ) ) ;
#925 = DIRECTION ( 'NONE',  ( 0.0000000000000000000, 0.0000000000000000000, 1.000000000000000000 ) ) ;
#926 = DIRECTION ( 'NONE',  ( -5.782411586589349750E-16, 1.000000000000000000, -0.0000000000000000000 ) ) ;
#927 = PLANE ( 'NONE',  #427 ) ;
#928 = ORIENTED_EDGE ( 'NONE', *, *, #416, .F. ) ;
#929 = ORIENTED_EDGE ( 'NONE', *, *, #13, .F. ) ;
#930 = FACE_OUTER_BOUND ( 'NONE', #732, .T. ) ;
#931 = CARTESIAN_POINT ( 'NONE',  ( 3.673940397442068743E-16, 10.00000000000000178, 0.0000000000000000000 ) ) ;
#932 = CARTESIAN_POINT ( 'NONE',  ( -3.345972796008245199E-15, 0.0000000000000000000, 24.00000000000000000 ) ) ;
#933 = VECTOR ( 'NONE', #623, 1000.000000000000000 ) ;
#934 = CIRCLE ( 'NONE', #105, 3.250000000000000444 ) ;
#935 = DIRECTION ( 'NONE',  ( -0.0000000000000000000, 1.000000000000000000, -0.0000000000000000000 ) ) ;
#936 = CARTESIAN_POINT ( 'NONE',  ( 1.836970198720964113E-16, 2.000000000000000000, -24.00000000000000000 ) ) ;
#937 = CARTESIAN_POINT ( 'NONE',  ( 2.999999999999985789, 3.000000000000002665, 26.00000000000000355 ) ) ;
#938 = EDGE_CURVE ( 'NONE', #1028, #344, #108, .T. ) ;
#939 = CARTESIAN_POINT ( 'NONE',  ( 17.67766952966379179, 5.000000000000000888, 13.42766952966359284 ) ) ;
#940 = DIRECTION ( 'NONE',  ( 0.0000000000000000000, 0.0000000000000000000, 1.000000000000000000 ) ) ;
#941 = ORIENTED_EDGE ( 'NONE', *, *, #972, .T. ) ;
#942 = ORIENTED_EDGE ( 'NONE', *, *, #343, .T. ) ;
#943 = DIRECTION ( 'NONE',  ( -0.0000000000000000000, 1.000000000000000000, -0.0000000000000000000 ) ) ;
#944 = ORIENTED_EDGE ( 'NONE', *, *, #476, .T. ) ;
#945 = LINE ( 'NONE', #939, #213 ) ;
#946 = EDGE_CURVE ( 'NONE', #357, #687, #728, .T. ) ;
#947 = FACE_OUTER_BOUND ( 'NONE', #919, .T. ) ;
#948 = DIRECTION ( 'NONE',  ( 0.0000000000000000000, -0.0000000000000000000, 1.000000000000000000 ) ) ;
#949 = CARTESIAN_POINT ( 'NONE',  ( 0.0000000000000000000, 0.0000000000000000000, 0.0000000000000000000 ) ) ;
#950 = ORIENTED_EDGE ( 'NONE', *, *, #3, .T. ) ;
#951 = CARTESIAN_POINT ( 'NONE',  ( -17.67766952966366034, 0.0000000000000000000, 17.67766952966372074 ) ) ;
#952 = CARTESIAN_POINT ( 'NONE',  ( -17.67766952966366034, 0.0000000000000000000, 17.67766952966372074 ) ) ;
#953 = CARTESIAN_POINT ( 'NONE',  ( -3.345972796008245199E-15, -1.187907395172929833E-15, 21.00000000000000711 ) ) ;
#954 = DIRECTION ( 'NONE',  ( 0.0000000000000000000, 0.0000000000000000000, 1.000000000000000000 ) ) ;
#955 = DIRECTION ( 'NONE',  ( 0.0000000000000000000, 0.7071067811865549002, 0.7071067811865401342 ) ) ;
#956 = ORIENTED_EDGE ( 'NONE', *, *, #149, .T. ) ;
#957 = EDGE_LOOP ( 'NONE', ( #386, #976 ) ) ;
#958 = CARTESIAN_POINT ( 'NONE',  ( 2.999999999999985789, 3.000000000000002665, 26.00000000000000355 ) ) ;
#959 = FACE_OUTER_BOUND ( 'NONE', #753, .T. ) ;
#960 = CIRCLE ( 'NONE', #222, 2.999999999999988898 ) ;
#961 = CIRCLE ( 'NONE', #253, 31.50000000000000000 ) ;
#962 = APPLICATION_PROTOCOL_DEFINITION ( 'draft international standard', 'automotive_design', 1998, #1050 ) ;
#963 = VERTEX_POINT ( 'NONE', #315 ) ;
#964 =( GEOMETRIC_REPRESENTATION_CONTEXT ( 3 ) GLOBAL_UNCERTAINTY_ASSIGNED_CONTEXT ( ( #418 ) ) GLOBAL_UNIT_ASSIGNED_CONTEXT ( ( #582, #487, #657 ) ) REPRESENTATION_CONTEXT ( 'NONE', 'WORKASPACE' ) );
#965 = DIRECTION ( 'NONE',  ( 0.0000000000000000000, 0.0000000000000000000, -1.000000000000000000 ) ) ;
#966 = ADVANCED_FACE ( 'NONE', ( #1034 ), #429, .F. ) ;
#967 = EDGE_CURVE ( 'NONE', #44, #40, #248, .T. ) ;
#968 = VERTEX_POINT ( 'NONE', #1043 ) ;
#969 = DIRECTION ( 'NONE',  ( 0.0000000000000000000, -0.0000000000000000000, -1.000000000000000000 ) ) ;
#970 = FACE_OUTER_BOUND ( 'NONE', #41, .T. ) ;
#971 = ORIENTED_EDGE ( 'NONE', *, *, #304, .T. ) ;
#972 = EDGE_CURVE ( 'NONE', #187, #345, #651, .T. ) ;
#973 = VERTEX_POINT ( 'NONE', #637 ) ;
#974 = AXIS2_PLACEMENT_3D ( 'NONE', #286, #716, #153 ) ;
#975 = ORIENTED_EDGE ( 'NONE', *, *, #476, .F. ) ;
#976 = ORIENTED_EDGE ( 'NONE', *, *, #1001, .T. ) ;
#977 = CIRCLE ( 'NONE', #868, 4.249999999999990230 ) ;
#978 = LINE ( 'NONE', #692, #421 ) ;
#979 = CYLINDRICAL_SURFACE ( 'NONE', #840, 4.249999999999993783 ) ;
#980 = ORIENTED_EDGE ( 'NONE', *, *, #995, .F. ) ;
#981 = ORIENTED_EDGE ( 'NONE', *, *, #505, .T. ) ;
#982 = EDGE_CURVE ( 'NONE', #332, #465, #88, .T. ) ;
#983 = SURFACE_STYLE_USAGE ( .BOTH. , #673 ) ;
#984 = DIRECTION ( 'NONE',  ( 0.0000000000000000000, 0.0000000000000000000, -1.000000000000000000 ) ) ;
#985 = ORIENTED_EDGE ( 'NONE', *, *, #526, .F. ) ;
#986 = EDGE_CURVE ( 'NONE', #687, #968, #834, .T. ) ;
#987 = AXIS2_PLACEMENT_3D ( 'NONE', #949, #712, #69 ) ;
#988 = FACE_OUTER_BOUND ( 'NONE', #1029, .T. ) ;
#989 = CARTESIAN_POINT ( 'NONE',  ( 0.0000000000000000000, 5.000000000000000888, 0.0000000000000000000 ) ) ;
#990 = LINE ( 'NONE', #103, #303 ) ;
#991 = CARTESIAN_POINT ( 'NONE',  ( 1.836970198720964113E-16, 2.000000000000000000, -21.00000000000000000 ) ) ;
#992 = ORIENTED_EDGE ( 'NONE', *, *, #986, .T. ) ;
#993 = DIRECTION ( 'NONE',  ( -0.0000000000000000000, 1.000000000000000000, -0.0000000000000000000 ) ) ;
#994 = DIRECTION ( 'NONE',  ( -0.0000000000000000000, 1.000000000000000000, -0.0000000000000000000 ) ) ;
#995 = EDGE_CURVE ( 'NONE', #908, #921, #898, .T. ) ;
#996 = CARTESIAN_POINT ( 'NONE',  ( 17.67766952966365324, 5.000000000000001776, -13.42766952966373672 ) ) ;
#997 = ORIENTED_EDGE ( 'NONE', *, *, #938, .T. ) ;
#998 = CARTESIAN_POINT ( 'NONE',  ( 17.67766952966365324, 5.000000000000001776, -21.92766952966371719 ) ) ;
#999 = CARTESIAN_POINT ( 'NONE',  ( 2.999999999999998224, 2.000000000000000000, -24.00000000000000000 ) ) ;
#1000 = CARTESIAN_POINT ( 'NONE',  ( 17.67766952966365324, 0.0000000000000000000, -17.67766952966372784 ) ) ;
#1001 = EDGE_CURVE ( 'NONE', #357, #376, #478, .T. ) ;
#1002 = CARTESIAN_POINT ( 'NONE',  ( -25.00000000000000711, 0.0000000000000000000, -3.250000000000000444 ) ) ;
#1003 = CIRCLE ( 'NONE', #1014, 4.249999999999990230 ) ;
#1004 = FACE_OUTER_BOUND ( 'NONE', #29, .T. ) ;
#1005 = DIRECTION ( 'NONE',  ( -0.0000000000000000000, -1.000000000000000000, -0.0000000000000000000 ) ) ;
#1006 = FACE_OUTER_BOUND ( 'NONE', #739, .T. ) ;
#1007 = DIRECTION ( 'NONE',  ( 0.0000000000000000000, 0.0000000000000000000, 1.000000000000000000 ) ) ;
#1008 = ORIENTED_EDGE ( 'NONE', *, *, #972, .F. ) ;
#1009 = DIRECTION ( 'NONE',  ( -1.000000000000000000, 0.0000000000000000000, -1.836970198721031660E-16 ) ) ;
#1010 = CARTESIAN_POINT ( 'NONE',  ( -17.67766952966378469, 0.0000000000000000000, -21.92766952966358929 ) ) ;
#1011 = EDGE_CURVE ( 'NONE', #483, #717, #290, .T. ) ;
#1012 = DIRECTION ( 'NONE',  ( -0.0000000000000000000, 1.000000000000000000, -0.0000000000000000000 ) ) ;
#1013 = CARTESIAN_POINT ( 'NONE',  ( -17.67766952966378469, 5.000000000000000888, -17.67766952966359284 ) ) ;
#1014 = AXIS2_PLACEMENT_3D ( 'NONE', #839, #909, #26 ) ;
#1015 = CARTESIAN_POINT ( 'NONE',  ( 0.0000000000000000000, 9.000000000000001776, -15.75000000000000000 ) ) ;
#1016 = DIRECTION ( 'NONE',  ( -1.836970198720962388E-16, -0.0000000000000000000, -1.000000000000000000 ) ) ;
#1017 = DIRECTION ( 'NONE',  ( -0.0000000000000000000, 1.000000000000000000, -0.0000000000000000000 ) ) ;
#1018 = VERTEX_POINT ( 'NONE', #1040 ) ;
#1019 = ORIENTED_EDGE ( 'NONE', *, *, #913, .T. ) ;
#1020 = EDGE_CURVE ( 'NONE', #709, #908, #408, .T. ) ;
#1021 = SURFACE_STYLE_FILL_AREA ( #272 ) ;
#1022 = LINE ( 'NONE', #230, #568 ) ;
#1023 = CARTESIAN_POINT ( 'NONE',  ( -2.999999999999994227, -1.187907395172929833E-15, 26.00000000000000355 ) ) ;
#1024 = DIRECTION ( 'NONE',  ( 0.0000000000000000000, -0.7071067811865474617, -0.7071067811865474617 ) ) ;
#1025 = VERTEX_POINT ( 'NONE', #794 ) ;
#1026 = DIRECTION ( 'NONE',  ( 0.0000000000000000000, 1.000000000000000000, 0.0000000000000000000 ) ) ;
#1027 = CARTESIAN_POINT ( 'NONE',  ( -1.836970198720964113E-16, 5.000000000000000888, -26.00000000000000355 ) ) ;
#1028 = VERTEX_POINT ( 'NONE', #804 ) ;
#1029 = EDGE_LOOP ( 'NONE', ( #4, #175, #296, #702 ) ) ;
#1030 = ORIENTED_EDGE ( 'NONE', *, *, #567, .T. ) ;
#1031 = FACE_OUTER_BOUND ( 'NONE', #506, .T. ) ;
#1032 = DIRECTION ( 'NONE',  ( 0.0000000000000000000, 0.0000000000000000000, 1.000000000000000000 ) ) ;
#1033 = VECTOR ( 'NONE', #306, 1000.000000000000000 ) ;
#1034 = FACE_OUTER_BOUND ( 'NONE', #875, .T. ) ;
#1035 = AXIS2_PLACEMENT_3D ( 'NONE', #436, #845, #984 ) ;
#1036 = ADVANCED_FACE ( 'NONE', ( #226 ), #232, .F. ) ;
#1037 = DIRECTION ( 'NONE',  ( -0.0000000000000000000, 1.000000000000000000, -0.0000000000000000000 ) ) ;
#1038 = EDGE_LOOP ( 'NONE', ( #844, #827 ) ) ;
#1039 = AXIS2_PLACEMENT_3D ( 'NONE', #173, #255, #969 ) ;
#1040 = CARTESIAN_POINT ( 'NONE',  ( 17.67766952966379179, 0.0000000000000000000, 13.42766952966359284 ) ) ;
#1041 = ADVANCED_FACE ( 'NONE', ( #598 ), #97, .T. ) ;
#1042 = EDGE_CURVE ( 'NONE', #14, #187, #302, .T. ) ;
#1043 = CARTESIAN_POINT ( 'NONE',  ( -17.67766952966366034, 5.000000000000001776, 21.92766952966370653 ) ) ;
#1044 = ORIENTED_EDGE ( 'NONE', *, *, #300, .T. ) ;
#1045 = VERTEX_POINT ( 'NONE', #730 ) ;
#1046 = ADVANCED_FACE ( 'NONE', ( #1031 ), #252, .F. ) ;
#1047 = LINE ( 'NONE', #776, #589 ) ;
#1048 = FACE_OUTER_BOUND ( 'NONE', #117, .T. ) ;
#1049 = CONICAL_SURFACE ( 'NONE', #338, 30.50000000000000000, 0.7853981633974378429 ) ;
#1050 = APPLICATION_CONTEXT ( 'automotive_design' ) ;
#1051 = ORIENTED_EDGE ( 'NONE', *, *, #1001, .F. ) ;
#1052 = AXIS2_PLACEMENT_3D ( 'NONE', #148, #785, #299 ) ;
ENDSEC;
END-ISO-10303-21;
