ISO-10303-21;
HEADER;
FILE_DESCRIPTION (( 'STEP AP214' ),
    '1' );
FILE_NAME ('03_128_adapter gripper camera.STEP',
    '2020-10-12T06:30:37',
    ( '' ),
    ( '' ),
    'SwSTEP 2.0',
    'SolidWorks 2018',
    '' );
FILE_SCHEMA (( 'AUTOMOTIVE_DESIGN' ));
ENDSEC;

DATA;
#1 =( LENGTH_UNIT ( ) NAMED_UNIT ( * ) SI_UNIT ( .MILLI., .METRE. ) );
#2 = UNCERTAINTY_MEASURE_WITH_UNIT (LENGTH_MEASURE( 1.000000000000000082E-05 ), #271, 'distance_accuracy_value', 'NONE');
#3 = VECTOR ( 'NONE', #274, 1000.000000000000000 ) ;
#4 = CARTESIAN_POINT ( 'NONE',  ( -7.500000000010215828, 74.45000000000005969, -9.999999999999971578 ) ) ;
#5 = CIRCLE ( 'NONE', #1014, 1.249999999999987121 ) ;
#6 = DIRECTION ( 'NONE',  ( 0.0000000000000000000, 0.0000000000000000000, 1.000000000000000000 ) ) ;
#7 = CARTESIAN_POINT ( 'NONE',  ( -3.070000000000001172, -7.650000000000004796, -9.999999999999980460 ) ) ;
#8 = AXIS2_PLACEMENT_3D ( 'NONE', #893, #723, #6 ) ;
#9 = SURFACE_STYLE_FILL_AREA ( #970 ) ;
#10 = FILL_AREA_STYLE_COLOUR ( '', #1041 ) ;
#11 = VECTOR ( 'NONE', #157, 1000.000000000000000 ) ;
#12 = DIRECTION ( 'NONE',  ( -0.0000000000000000000, 1.156482317317871478E-16, -1.000000000000000000 ) ) ;
#13 = ORIENTED_EDGE ( 'NONE', *, *, #832, .T. ) ;
#14 = EDGE_LOOP ( 'NONE', ( #995, #53 ) ) ;
#15 = DIRECTION ( 'NONE',  ( 1.000000000000000000, -0.0000000000000000000, -0.0000000000000000000 ) ) ;
#16 = CARTESIAN_POINT ( 'NONE',  ( -15.00000000000000178, 101.8499999999999517, -4.999999999999924505 ) ) ;
#17 = PRESENTATION_LAYER_ASSIGNMENT (  '', '', ( #998 ) ) ;
#18 = SURFACE_STYLE_FILL_AREA ( #126 ) ;
#19 = CARTESIAN_POINT ( 'NONE',  ( -15.00000000000000178, 101.8499999999999517, -4.999999999999924505 ) ) ;
#20 = DIRECTION ( 'NONE',  ( -1.000000000000000000, -0.0000000000000000000, -0.0000000000000000000 ) ) ;
#21 = EDGE_CURVE ( 'NONE', #1154, #359, #540, .T. ) ;
#22 = CARTESIAN_POINT ( 'NONE',  ( 15.00000000000000000, -10.00000000000000888, -9.999999999999982236 ) ) ;
#23 = SURFACE_STYLE_FILL_AREA ( #799 ) ;
#24 =( LENGTH_UNIT ( ) NAMED_UNIT ( * ) SI_UNIT ( .MILLI., .METRE. ) );
#25 = CONICAL_SURFACE ( 'NONE', #718, 1.250000000000001110, 1.029744258676654090 ) ;
#26 = AXIS2_PLACEMENT_3D ( 'NONE', #36, #875, #1038 ) ;
#27 = ORIENTED_EDGE ( 'NONE', *, *, #288, .T. ) ;
#28 = FILL_AREA_STYLE_COLOUR ( '', #521 ) ;
#29 = VERTEX_POINT ( 'NONE', #234 ) ;
#30 = ORIENTED_EDGE ( 'NONE', *, *, #673, .T. ) ;
#31 = DIRECTION ( 'NONE',  ( 0.0000000000000000000, 0.0000000000000000000, 1.000000000000000000 ) ) ;
#32 = ORIENTED_EDGE ( 'NONE', *, *, #222, .T. ) ;
#33 = CYLINDRICAL_SURFACE ( 'NONE', #452, 1.249999999999994227 ) ;
#34 = AXIS2_PLACEMENT_3D ( 'NONE', #161, #250, #78 ) ;
#35 = VECTOR ( 'NONE', #841, 1000.000000000000000 ) ;
#36 = CARTESIAN_POINT ( 'NONE',  ( 0.0000000000000000000, 0.0000000000000000000, 0.0000000000000000000 ) ) ;
#37 = AXIS2_PLACEMENT_3D ( 'NONE', #16, #384, #559 ) ;
#38 = CARTESIAN_POINT ( 'NONE',  ( -15.00000000000000000, -9.999999999999978684, 20.00000000000003197 ) ) ;
#39 = ADVANCED_BREP_SHAPE_REPRESENTATION ( '03_128_adapter gripper camera', ( #834, #26 ), #1067 ) ;
#40 = FACE_BOUND ( 'NONE', #108, .T. ) ;
#41 = ORIENTED_EDGE ( 'NONE', *, *, #912, .F. ) ;
#42 = FILL_AREA_STYLE_COLOUR ( '', #290 ) ;
#43 = ORIENTED_EDGE ( 'NONE', *, *, #1084, .T. ) ;
#44 = EDGE_CURVE ( 'NONE', #842, #346, #454, .T. ) ;
#45 = DIRECTION ( 'NONE',  ( 0.0000000000000000000, -3.686287386450715076E-16, -1.000000000000000000 ) ) ;
#46 = ORIENTED_EDGE ( 'NONE', *, *, #1094, .T. ) ;
#47 =( NAMED_UNIT ( * ) PLANE_ANGLE_UNIT ( ) SI_UNIT ( $, .RADIAN. ) );
#48 = CARTESIAN_POINT ( 'NONE',  ( -15.00000000000000000, -10.00000000000000888, -9.999999999999982236 ) ) ;
#49 = AXIS2_PLACEMENT_3D ( 'NONE', #68, #1147, #710 ) ;
#50 = DIRECTION ( 'NONE',  ( 1.000000000000000000, -0.0000000000000000000, -0.0000000000000000000 ) ) ;
#51 = COLOUR_RGB ( '',0.7921568627450980005, 0.8196078431372548767, 0.9333333333333333481 ) ;
#52 = VERTEX_POINT ( 'NONE', #948 ) ;
#53 = ORIENTED_EDGE ( 'NONE', *, *, #577, .F. ) ;
#54 = ORIENTED_EDGE ( 'NONE', *, *, #486, .F. ) ;
#55 = EDGE_CURVE ( 'NONE', #466, #965, #1127, .T. ) ;
#56 = ORIENTED_EDGE ( 'NONE', *, *, #328, .F. ) ;
#57 = PRESENTATION_STYLE_ASSIGNMENT (( #846 ) ) ;
#58 = DIRECTION ( 'NONE',  ( 0.0000000000000000000, 0.0000000000000000000, 1.000000000000000000 ) ) ;
#59 = SURFACE_STYLE_FILL_AREA ( #653 ) ;
#60 = CARTESIAN_POINT ( 'NONE',  ( 4.999999999999999112, 101.8499999999999517, -3.749999999999923617 ) ) ;
#61 = CARTESIAN_POINT ( 'NONE',  ( 15.00000000000000000, -10.00000000000000888, -9.999999999999982236 ) ) ;
#62 = LINE ( 'NONE', #223, #398 ) ;
#63 =( LENGTH_UNIT ( ) NAMED_UNIT ( * ) SI_UNIT ( .MILLI., .METRE. ) );
#64 = ORIENTED_EDGE ( 'NONE', *, *, #753, .F. ) ;
#65 = AXIS2_PLACEMENT_3D ( 'NONE', #557, #180, #360 ) ;
#66 = ORIENTED_EDGE ( 'NONE', *, *, #1119, .F. ) ;
#67 = DIRECTION ( 'NONE',  ( 0.5150380749100544886, 1.049727191138618449E-16, 0.8571673007021121116 ) ) ;
#68 = CARTESIAN_POINT ( 'NONE',  ( 4.999999999999999112, 101.8499999999999517, -4.999999999999924505 ) ) ;
#69 = VECTOR ( 'NONE', #1090, 1000.000000000000000 ) ;
#70 = DIRECTION ( 'NONE',  ( -0.0000000000000000000, 1.156482317317871478E-16, -1.000000000000000000 ) ) ;
#71 = MECHANICAL_DESIGN_GEOMETRIC_PRESENTATION_REPRESENTATION (  '', ( #998 ), #130 ) ;
#72 = ADVANCED_FACE ( 'NONE', ( #40, #572, #1113 ), #1132, .F. ) ;
#73 = DIRECTION ( 'NONE',  ( -0.0000000000000000000, 1.156482317317871478E-16, -1.000000000000000000 ) ) ;
#74 = SURFACE_STYLE_USAGE ( .BOTH. , #891 ) ;
#75 = FACE_OUTER_BOUND ( 'NONE', #968, .T. ) ;
#76 = EDGE_CURVE ( 'NONE', #631, #574, #327, .T. ) ;
#77 = FACE_BOUND ( 'NONE', #272, .T. ) ;
#78 = DIRECTION ( 'NONE',  ( 0.0000000000000000000, 1.000000000000000000, 0.0000000000000000000 ) ) ;
#79 = CYLINDRICAL_SURFACE ( 'NONE', #422, 1.249999999999994227 ) ;
#80 = ADVANCED_FACE ( 'NONE', ( #740 ), #1006, .F. ) ;
#81 = EDGE_LOOP ( 'NONE', ( #742, #394, #1131 ) ) ;
#82 = ORIENTED_EDGE ( 'NONE', *, *, #201, .F. ) ;
#83 = ORIENTED_EDGE ( 'NONE', *, *, #411, .F. ) ;
#84 =( LENGTH_UNIT ( ) NAMED_UNIT ( * ) SI_UNIT ( .MILLI., .METRE. ) );
#85 = SURFACE_STYLE_USAGE ( .BOTH. , #279 ) ;
#86 = PRODUCT_DEFINITION_CONTEXT ( 'detailed design', #509, 'design' ) ;
#87 = DIRECTION ( 'NONE',  ( 0.0000000000000000000, 2.891038145145697655E-16, -1.000000000000000000 ) ) ;
#88 = AXIS2_PLACEMENT_3D ( 'NONE', #112, #741, #666 ) ;
#89 = VECTOR ( 'NONE', #1122, 1000.000000000000000 ) ;
#90 = CARTESIAN_POINT ( 'NONE',  ( 15.00000000000000000, 0.0000000000000000000, 20.00000000000003197 ) ) ;
#91 = CIRCLE ( 'NONE', #480, 2.649999999999997691 ) ;
#92 =( NAMED_UNIT ( * ) PLANE_ANGLE_UNIT ( ) SI_UNIT ( $, .RADIAN. ) );
#93 = VERTEX_POINT ( 'NONE', #616 ) ;
#94 = VERTEX_POINT ( 'NONE', #341 ) ;
#95 = AXIS2_PLACEMENT_3D ( 'NONE', #982, #977, #971 ) ;
#96 = ORIENTED_EDGE ( 'NONE', *, *, #530, .T. ) ;
#97 = ADVANCED_FACE ( 'NONE', ( #342 ), #79, .F. ) ;
#98 = CIRCLE ( 'NONE', #65, 2.649999999999996803 ) ;
#99 = DIRECTION ( 'NONE',  ( 0.0000000000000000000, 3.686287386450715569E-16, 1.000000000000000000 ) ) ;
#100 = EDGE_CURVE ( 'NONE', #631, #181, #523, .T. ) ;
#101 = CARTESIAN_POINT ( 'NONE',  ( -3.070000000000001616, -2.350000000000012523, -9.999999999999980460 ) ) ;
#102 = DIRECTION ( 'NONE',  ( 0.0000000000000000000, 1.000000000000000000, -3.686287386450715569E-16 ) ) ;
#103 = AXIS2_PLACEMENT_3D ( 'NONE', #566, #746, #189 ) ;
#104 = VECTOR ( 'NONE', #886, 1000.000000000000000 ) ;
#105 = CARTESIAN_POINT ( 'NONE',  ( 15.00000000000000000, 0.0000000000000000000, 0.0000000000000000000 ) ) ;
#106 = FACE_OUTER_BOUND ( 'NONE', #443, .T. ) ;
#107 = FILL_AREA_STYLE ('',( #382 ) ) ;
#108 = EDGE_LOOP ( 'NONE', ( #560, #1089 ) ) ;
#109 = VERTEX_POINT ( 'NONE', #803 ) ;
#110 = CARTESIAN_POINT ( 'NONE',  ( 8.929999999999997939, -5.000000000000013323, 20.00000000000003197 ) ) ;
#111 = EDGE_CURVE ( 'NONE', #1008, #953, #539, .T. ) ;
#112 = CARTESIAN_POINT ( 'NONE',  ( 15.00000000000000000, 0.0000000000000000000, 0.0000000000000000000 ) ) ;
#113 = CARTESIAN_POINT ( 'NONE',  ( 15.00000000000000000, 101.8499999999999517, -4.999999999999924505 ) ) ;
#114 = VECTOR ( 'NONE', #547, 1000.000000000000000 ) ;
#115 = EDGE_CURVE ( 'NONE', #1143, #768, #296, .T. ) ;
#116 = DIRECTION ( 'NONE',  ( 1.000000000000000000, -0.0000000000000000000, -0.0000000000000000000 ) ) ;
#117 =( LENGTH_UNIT ( ) NAMED_UNIT ( * ) SI_UNIT ( .MILLI., .METRE. ) );
#118 = COLOUR_RGB ( '',0.7921568627450980005, 0.8196078431372548767, 0.9333333333333333481 ) ;
#119 = CARTESIAN_POINT ( 'NONE',  ( 15.00000000000000000, 0.0000000000000000000, 0.0000000000000000000 ) ) ;
#120 = ORIENTED_EDGE ( 'NONE', *, *, #692, .F. ) ;
#121 = UNCERTAINTY_MEASURE_WITH_UNIT (LENGTH_MEASURE( 1.000000000000000082E-05 ), #690, 'distance_accuracy_value', 'NONE');
#122 = ORIENTED_EDGE ( 'NONE', *, *, #1024, .F. ) ;
#123 = SURFACE_STYLE_FILL_AREA ( #425 ) ;
#124 = CARTESIAN_POINT ( 'NONE',  ( 8.929999999999997939, -7.650000000000005684, 20.00000000000003197 ) ) ;
#125 = AXIS2_PLACEMENT_3D ( 'NONE', #719, #165, #267 ) ;
#126 = FILL_AREA_STYLE ('',( #211 ) ) ;
#127 = CARTESIAN_POINT ( 'NONE',  ( 4.999999999999999112, 81.84999999999996589, -4.999999999999924505 ) ) ;
#128 =( NAMED_UNIT ( * ) SI_UNIT ( $, .STERADIAN. ) SOLID_ANGLE_UNIT ( ) );
#129 = VECTOR ( 'NONE', #140, 1000.000000000000000 ) ;
#130 =( GEOMETRIC_REPRESENTATION_CONTEXT ( 3 ) GLOBAL_UNCERTAINTY_ASSIGNED_CONTEXT ( ( #499 ) ) GLOBAL_UNIT_ASSIGNED_CONTEXT ( ( #117, #849, #310 ) ) REPRESENTATION_CONTEXT ( 'NONE', 'WORKASPACE' ) );
#131 = CYLINDRICAL_SURFACE ( 'NONE', #884, 1.249999999999994227 ) ;
#132 = CARTESIAN_POINT ( 'NONE',  ( -3.070000000000001616, -5.000000000000009770, -9.999999999999980460 ) ) ;
#133 = VECTOR ( 'NONE', #67, 1000.000000000000000 ) ;
#134 = EDGE_LOOP ( 'NONE', ( #497, #604 ) ) ;
#135 =( NAMED_UNIT ( * ) PLANE_ANGLE_UNIT ( ) SI_UNIT ( $, .RADIAN. ) );
#136 = EDGE_LOOP ( 'NONE', ( #1104, #714, #468, #456, #177, #299 ) ) ;
#137 = EDGE_CURVE ( 'NONE', #466, #289, #558, .T. ) ;
#138 = ORIENTED_EDGE ( 'NONE', *, *, #328, .T. ) ;
#139 = CIRCLE ( 'NONE', #232, 1.250000000000001110 ) ;
#140 = DIRECTION ( 'NONE',  ( -0.5150380749100544886, 1.049727191138618449E-16, -0.8571673007021121116 ) ) ;
#141 = LINE ( 'NONE', #366, #3 ) ;
#142 = CARTESIAN_POINT ( 'NONE',  ( -15.00000000000000000, 0.0000000000000000000, 0.0000000000000000000 ) ) ;
#143 = AXIS2_PLACEMENT_3D ( 'NONE', #258, #531, #790 ) ;
#144 = SURFACE_STYLE_USAGE ( .BOTH. , #445 ) ;
#145 = CONICAL_SURFACE ( 'NONE', #463, 1.250000000000001110, 1.029744258676654090 ) ;
#146 = EDGE_LOOP ( 'NONE', ( #660, #56 ) ) ;
#147 = CARTESIAN_POINT ( 'NONE',  ( 4.999999999999999112, 81.84999999999996589, -4.999999999999924505 ) ) ;
#148 = ORIENTED_EDGE ( 'NONE', *, *, #115, .F. ) ;
#149 =( NAMED_UNIT ( * ) PLANE_ANGLE_UNIT ( ) SI_UNIT ( $, .RADIAN. ) );
#150 = DIRECTION ( 'NONE',  ( -1.000000000000000000, -0.0000000000000000000, -0.0000000000000000000 ) ) ;
#151 = ADVANCED_FACE ( 'NONE', ( #646 ), #587, .F. ) ;
#152 = CARTESIAN_POINT ( 'NONE',  ( -7.500000000010215828, 76.10000000000005116, -9.999999999999971578 ) ) ;
#153 = EDGE_CURVE ( 'NONE', #93, #768, #314, .T. ) ;
#154 = CIRCLE ( 'NONE', #253, 1.649999999999998579 ) ;
#155 = DIRECTION ( 'NONE',  ( 0.0000000000000000000, 0.0000000000000000000, 1.000000000000000000 ) ) ;
#156 = ADVANCED_FACE ( 'NONE', ( #1018 ), #145, .F. ) ;
#157 = DIRECTION ( 'NONE',  ( -0.0000000000000000000, 1.156482317317871478E-16, -1.000000000000000000 ) ) ;
#158 = CYLINDRICAL_SURFACE ( 'NONE', #909, 1.649999999999998579 ) ;
#159 = ORIENTED_EDGE ( 'NONE', *, *, #867, .F. ) ;
#160 = AXIS2_PLACEMENT_3D ( 'NONE', #493, #766, #591 ) ;
#161 = CARTESIAN_POINT ( 'NONE',  ( -3.070000000000001616, -5.000000000000013323, 20.00000000000003197 ) ) ;
#162 = ORIENTED_EDGE ( 'NONE', *, *, #171, .T. ) ;
#163 = FILL_AREA_STYLE_COLOUR ( '', #916 ) ;
#164 = ADVANCED_FACE ( 'NONE', ( #1076 ), #874, .F. ) ;
#165 = DIRECTION ( 'NONE',  ( -0.0000000000000000000, 1.156482317317871478E-16, -1.000000000000000000 ) ) ;
#166 = CYLINDRICAL_SURFACE ( 'NONE', #1083, 1.649999999999998579 ) ;
#167 = CARTESIAN_POINT ( 'NONE',  ( -15.00000000000000000, 109.9999999999999858, -9.999999999999969802 ) ) ;
#168 = MECHANICAL_DESIGN_GEOMETRIC_PRESENTATION_REPRESENTATION (  '', ( #325 ), #708 ) ;
#169 = ADVANCED_FACE ( 'NONE', ( #937 ), #158, .F. ) ;
#170 = DIRECTION ( 'NONE',  ( 1.000000000000000000, -0.0000000000000000000, -0.0000000000000000000 ) ) ;
#171 = EDGE_CURVE ( 'NONE', #1078, #823, #1087, .T. ) ;
#172 = CARTESIAN_POINT ( 'NONE',  ( 15.00000000000000178, 101.8499999999999517, -6.249999999999912070 ) ) ;
#173 = LINE ( 'NONE', #184, #915 ) ;
#174 = ORIENTED_EDGE ( 'NONE', *, *, #1024, .T. ) ;
#175 = DIRECTION ( 'NONE',  ( 1.000000000000000000, -0.0000000000000000000, -0.0000000000000000000 ) ) ;
#176 = EDGE_CURVE ( 'NONE', #346, #842, #439, .T. ) ;
#177 = ORIENTED_EDGE ( 'NONE', *, *, #222, .F. ) ;
#178 = ADVANCED_FACE ( 'NONE', ( #600 ), #340, .F. ) ;
#179 = EDGE_LOOP ( 'NONE', ( #699, #865 ) ) ;
#180 = DIRECTION ( 'NONE',  ( -0.0000000000000000000, 1.156482317317871478E-16, -1.000000000000000000 ) ) ;
#181 = VERTEX_POINT ( 'NONE', #1077 ) ;
#182 = LINE ( 'NONE', #994, #69 ) ;
#183 = DIRECTION ( 'NONE',  ( -1.000000000000000000, -0.0000000000000000000, -0.0000000000000000000 ) ) ;
#184 = CARTESIAN_POINT ( 'NONE',  ( -15.00000000000000000, 81.84999999999996589, -3.749999999999930278 ) ) ;
#185 = AXIS2_PLACEMENT_3D ( 'NONE', #110, #186, #921 ) ;
#186 = DIRECTION ( 'NONE',  ( -0.0000000000000000000, 1.156482317317871478E-16, -1.000000000000000000 ) ) ;
#187 = VECTOR ( 'NONE', #569, 1000.000000000000000 ) ;
#188 = PRESENTATION_STYLE_ASSIGNMENT (( #74 ) ) ;
#189 = DIRECTION ( 'NONE',  ( 0.0000000000000000000, 0.0000000000000000000, 1.000000000000000000 ) ) ;
#190 = ORIENTED_EDGE ( 'NONE', *, *, #979, .T. ) ;
#191 = CARTESIAN_POINT ( 'NONE',  ( -7.500000000010215828, 74.45000000000005969, 2.033966041777264451E-14 ) ) ;
#192 = EDGE_LOOP ( 'NONE', ( #315, #744, #543, #285 ) ) ;
#193 = EDGE_CURVE ( 'NONE', #1154, #930, #374, .T. ) ;
#194 = ORIENTED_EDGE ( 'NONE', *, *, #753, .T. ) ;
#195 = UNCERTAINTY_MEASURE_WITH_UNIT (LENGTH_MEASURE( 1.000000000000000082E-05 ), #792, 'distance_accuracy_value', 'NONE');
#196 = CARTESIAN_POINT ( 'NONE',  ( 15.00000000000000000, -10.00000000000000888, -9.999999999999982236 ) ) ;
#197 = ORIENTED_EDGE ( 'NONE', *, *, #1061, .T. ) ;
#198 = UNCERTAINTY_MEASURE_WITH_UNIT (LENGTH_MEASURE( 1.000000000000000082E-05 ), #1, 'distance_accuracy_value', 'NONE');
#199 = PRESENTATION_STYLE_ASSIGNMENT (( #518 ) ) ;
#200 = CARTESIAN_POINT ( 'NONE',  ( -3.070000000000001172, -7.650000000000005684, 20.00000000000003197 ) ) ;
#201 = EDGE_CURVE ( 'NONE', #607, #940, #927, .T. ) ;
#202 = DIRECTION ( 'NONE',  ( 0.0000000000000000000, 0.0000000000000000000, 1.000000000000000000 ) ) ;
#203 = DIRECTION ( 'NONE',  ( -0.0000000000000000000, 1.156482317317871478E-16, -1.000000000000000000 ) ) ;
#204 = PRODUCT_RELATED_PRODUCT_CATEGORY ( 'part', '', ( #897 ) ) ;
#205 = CIRCLE ( 'NONE', #143, 1.249999999999987121 ) ;
#206 = CARTESIAN_POINT ( 'NONE',  ( 15.00000000000000000, 81.84999999999996589, -3.749999999999930278 ) ) ;
#207 = VECTOR ( 'NONE', #479, 1000.000000000000000 ) ;
#208 = VECTOR ( 'NONE', #1149, 1000.000000000000000 ) ;
#209 = ORIENTED_EDGE ( 'NONE', *, *, #733, .F. ) ;
#210 = ORIENTED_EDGE ( 'NONE', *, *, #176, .T. ) ;
#211 = FILL_AREA_STYLE_COLOUR ( '', #260 ) ;
#212 = ORIENTED_EDGE ( 'NONE', *, *, #393, .F. ) ;
#213 = CARTESIAN_POINT ( 'NONE',  ( 15.00000000000000000, 81.84999999999996589, -4.999999999999924505 ) ) ;
#214 = STYLED_ITEM ( 'NONE', ( #947 ), #811 ) ;
#215 = UNCERTAINTY_MEASURE_WITH_UNIT (LENGTH_MEASURE( 1.000000000000000082E-05 ), #24, 'distance_accuracy_value', 'NONE');
#216 =( LENGTH_UNIT ( ) NAMED_UNIT ( * ) SI_UNIT ( .MILLI., .METRE. ) );
#217 = CYLINDRICAL_SURFACE ( 'NONE', #845, 2.649999999999995026 ) ;
#218 = LINE ( 'NONE', #311, #664 ) ;
#219 = CARTESIAN_POINT ( 'NONE',  ( 7.499999999989787725, 77.75000000000005684, -9.999999999999971578 ) ) ;
#220 = COLOUR_RGB ( '',0.5019607843137254832, 0.5019607843137254832, 0.5019607843137254832 ) ;
#221 = DIRECTION ( 'NONE',  ( 1.000000000000000000, -0.0000000000000000000, -0.0000000000000000000 ) ) ;
#222 = EDGE_CURVE ( 'NONE', #1023, #770, #426, .T. ) ;
#223 = CARTESIAN_POINT ( 'NONE',  ( 15.00000000000000000, -9.999999999999978684, 70.00000000000001421 ) ) ;
#224 = FACE_OUTER_BOUND ( 'NONE', #698, .T. ) ;
#225 = CYLINDRICAL_SURFACE ( 'NONE', #736, 1.249999999999994227 ) ;
#226 = DIRECTION ( 'NONE',  ( 0.0000000000000000000, 0.0000000000000000000, 1.000000000000000000 ) ) ;
#227 = DIRECTION ( 'NONE',  ( -1.000000000000000000, -0.0000000000000000000, -0.0000000000000000000 ) ) ;
#228 = ORIENTED_EDGE ( 'NONE', *, *, #111, .F. ) ;
#229 = ORIENTED_EDGE ( 'NONE', *, *, #1084, .F. ) ;
#230 = DIRECTION ( 'NONE',  ( -1.000000000000000000, -0.0000000000000000000, -0.0000000000000000000 ) ) ;
#231 = SURFACE_STYLE_USAGE ( .BOTH. , #701 ) ;
#232 = AXIS2_PLACEMENT_3D ( 'NONE', #675, #221, #856 ) ;
#233 = CIRCLE ( 'NONE', #1029, 1.249999999999987121 ) ;
#234 = CARTESIAN_POINT ( 'NONE',  ( -4.999999999999999112, 81.84999999999996589, -3.749999999999923617 ) ) ;
#235 = AXIS2_PLACEMENT_3D ( 'NONE', #372, #170, #896 ) ;
#236 = PRESENTATION_STYLE_ASSIGNMENT (( #585 ) ) ;
#237 = VERTEX_POINT ( 'NONE', #90 ) ;
#238 = SURFACE_SIDE_STYLE ('',( #123 ) ) ;
#239 = EDGE_LOOP ( 'NONE', ( #120, #727, #332 ) ) ;
#240 = EDGE_CURVE ( 'NONE', #109, #237, #644, .T. ) ;
#241 = CARTESIAN_POINT ( 'NONE',  ( -3.070000000000001172, -7.650000000000005684, -9.999999999999980460 ) ) ;
#242 = ORIENTED_EDGE ( 'NONE', *, *, #469, .F. ) ;
#243 = DIRECTION ( 'NONE',  ( 0.0000000000000000000, 1.000000000000000000, 0.0000000000000000000 ) ) ;
#244 = ORIENTED_EDGE ( 'NONE', *, *, #427, .T. ) ;
#245 =( GEOMETRIC_REPRESENTATION_CONTEXT ( 3 ) GLOBAL_UNCERTAINTY_ASSIGNED_CONTEXT ( ( #679 ) ) GLOBAL_UNIT_ASSIGNED_CONTEXT ( ( #446, #717, #816 ) ) REPRESENTATION_CONTEXT ( 'NONE', 'WORKASPACE' ) );
#246 = FACE_OUTER_BOUND ( 'NONE', #853, .T. ) ;
#247 = CYLINDRICAL_SURFACE ( 'NONE', #1146, 1.249999999999994227 ) ;
#248 = DIRECTION ( 'NONE',  ( -0.0000000000000000000, 1.156482317317871478E-16, -1.000000000000000000 ) ) ;
#249 =( LENGTH_UNIT ( ) NAMED_UNIT ( * ) SI_UNIT ( .MILLI., .METRE. ) );
#250 = DIRECTION ( 'NONE',  ( -0.0000000000000000000, 1.156482317317871478E-16, -1.000000000000000000 ) ) ;
#251 = UNCERTAINTY_MEASURE_WITH_UNIT (LENGTH_MEASURE( 1.000000000000000082E-05 ), #63, 'distance_accuracy_value', 'NONE');
#252 = CIRCLE ( 'NONE', #37, 1.249999999999987121 ) ;
#253 = AXIS2_PLACEMENT_3D ( 'NONE', #636, #73, #1055 ) ;
#254 = ORIENTED_EDGE ( 'NONE', *, *, #1096, .T. ) ;
#255 = CARTESIAN_POINT ( 'NONE',  ( 4.999999999999999112, 81.84999999999996589, -3.749999999999923617 ) ) ;
#256 = ADVANCED_FACE ( 'NONE', ( #989, #1047, #706 ), #720, .F. ) ;
#257 = ORIENTED_EDGE ( 'NONE', *, *, #596, .T. ) ;
#258 = CARTESIAN_POINT ( 'NONE',  ( 15.00000000000000178, 101.8499999999999517, -4.999999999999924505 ) ) ;
#259 = ORIENTED_EDGE ( 'NONE', *, *, #658, .F. ) ;
#260 = COLOUR_RGB ( '',0.7921568627450980005, 0.8196078431372548767, 0.9333333333333333481 ) ;
#261 = AXIS2_PLACEMENT_3D ( 'NONE', #1046, #433, #525 ) ;
#262 = DIRECTION ( 'NONE',  ( 0.0000000000000000000, 1.000000000000000000, 0.0000000000000000000 ) ) ;
#263 = LINE ( 'NONE', #639, #114 ) ;
#264 = DIRECTION ( 'NONE',  ( 0.0000000000000000000, 1.000000000000000000, 0.0000000000000000000 ) ) ;
#265 = EDGE_CURVE ( 'NONE', #377, #346, #522, .T. ) ;
#266 = VECTOR ( 'NONE', #628, 1000.000000000000000 ) ;
#267 = DIRECTION ( 'NONE',  ( 0.0000000000000000000, 1.000000000000000000, 0.0000000000000000000 ) ) ;
#268 = DIRECTION ( 'NONE',  ( 0.0000000000000000000, 0.0000000000000000000, 1.000000000000000000 ) ) ;
#269 = CIRCLE ( 'NONE', #373, 1.250000000000001110 ) ;
#270 = ORIENTED_EDGE ( 'NONE', *, *, #773, .F. ) ;
#271 =( LENGTH_UNIT ( ) NAMED_UNIT ( * ) SI_UNIT ( .MILLI., .METRE. ) );
#272 = EDGE_LOOP ( 'NONE', ( #64, #331 ) ) ;
#273 = ORIENTED_EDGE ( 'NONE', *, *, #153, .F. ) ;
#274 = DIRECTION ( 'NONE',  ( -1.000000000000000000, -0.0000000000000000000, -0.0000000000000000000 ) ) ;
#275 = DIRECTION ( 'NONE',  ( 0.0000000000000000000, 1.000000000000000000, 2.891038145145697655E-16 ) ) ;
#276 = VECTOR ( 'NONE', #286, 1000.000000000000000 ) ;
#277 = PRESENTATION_LAYER_ASSIGNMENT (  '', '', ( #586 ) ) ;
#278 = CARTESIAN_POINT ( 'NONE',  ( 15.00000000000000000, -9.999999999999978684, 70.00000000000001421 ) ) ;
#279 = SURFACE_SIDE_STYLE ('',( #1106 ) ) ;
#280 = VECTOR ( 'NONE', #12, 1000.000000000000000 ) ;
#281 = COLOUR_RGB ( '',0.7921568627450980005, 0.8196078431372548767, 0.9333333333333333481 ) ;
#282 = CARTESIAN_POINT ( 'NONE',  ( 4.999999999999999112, 101.8499999999999517, -4.999999999999924505 ) ) ;
#283 = EDGE_CURVE ( 'NONE', #978, #842, #584, .T. ) ;
#284 = ORIENTED_EDGE ( 'NONE', *, *, #713, .T. ) ;
#285 = ORIENTED_EDGE ( 'NONE', *, *, #979, .F. ) ;
#286 = DIRECTION ( 'NONE',  ( 0.0000000000000000000, -1.000000000000000000, -2.891038145145697655E-16 ) ) ;
#287 = ORIENTED_EDGE ( 'NONE', *, *, #832, .F. ) ;
#288 = EDGE_CURVE ( 'NONE', #510, #955, #252, .T. ) ;
#289 = VERTEX_POINT ( 'NONE', #1059 ) ;
#290 = COLOUR_RGB ( '',0.7921568627450980005, 0.8196078431372548767, 0.9333333333333333481 ) ;
#291 = CARTESIAN_POINT ( 'NONE',  ( 8.929999999999997939, -2.350000000000014300, -9.999999999999980460 ) ) ;
#292 = STYLED_ITEM ( 'NONE', ( #983 ), #1148 ) ;
#293 = CARTESIAN_POINT ( 'NONE',  ( -15.00000000000000000, 109.9999999999999858, 3.180141959660267667E-14 ) ) ;
#294 = CIRCLE ( 'NONE', #519, 2.649999999999997691 ) ;
#295 = FACE_OUTER_BOUND ( 'NONE', #1088, .T. ) ;
#296 = LINE ( 'NONE', #712, #1060 ) ;
#297 = CARTESIAN_POINT ( 'NONE',  ( -15.00000000000000000, -9.999999999999978684, 20.00000000000003197 ) ) ;
#298 = CARTESIAN_POINT ( 'NONE',  ( -4.999999999999999112, 101.8499999999999517, -6.249999999999925393 ) ) ;
#299 = ORIENTED_EDGE ( 'NONE', *, *, #300, .F. ) ;
#300 = EDGE_CURVE ( 'NONE', #606, #1023, #1075, .T. ) ;
#301 = ORIENTED_EDGE ( 'NONE', *, *, #21, .F. ) ;
#302 = CARTESIAN_POINT ( 'NONE',  ( 15.00000000000000178, 101.8499999999999517, -3.749999999999937383 ) ) ;
#303 = ORIENTED_EDGE ( 'NONE', *, *, #240, .T. ) ;
#304 = DIRECTION ( 'NONE',  ( 1.000000000000000000, -0.0000000000000000000, -0.0000000000000000000 ) ) ;
#305 = FACE_OUTER_BOUND ( 'NONE', #729, .T. ) ;
#306 = EDGE_CURVE ( 'NONE', #965, #511, #1017, .T. ) ;
#307 = FACE_OUTER_BOUND ( 'NONE', #345, .T. ) ;
#308 = DIRECTION ( 'NONE',  ( 0.0000000000000000000, 0.0000000000000000000, -1.000000000000000000 ) ) ;
#309 = PRESENTATION_LAYER_ASSIGNMENT (  '', '', ( #676 ) ) ;
#310 =( NAMED_UNIT ( * ) SI_UNIT ( $, .STERADIAN. ) SOLID_ANGLE_UNIT ( ) );
#311 = CARTESIAN_POINT ( 'NONE',  ( 4.999999999999999112, 101.8499999999999517, -6.249999999999925393 ) ) ;
#312 = VECTOR ( 'NONE', #405, 1000.000000000000000 ) ;
#313 = DIRECTION ( 'NONE',  ( 1.000000000000000000, 0.0000000000000000000, -0.0000000000000000000 ) ) ;
#314 = CIRCLE ( 'NONE', #388, 1.649999999999998579 ) ;
#315 = ORIENTED_EDGE ( 'NONE', *, *, #505, .F. ) ;
#316 = FILL_AREA_STYLE ('',( #42 ) ) ;
#317 = ORIENTED_EDGE ( 'NONE', *, *, #962, .F. ) ;
#318 = DIRECTION ( 'NONE',  ( 1.000000000000000000, -0.0000000000000000000, -0.0000000000000000000 ) ) ;
#319 =( GEOMETRIC_REPRESENTATION_CONTEXT ( 3 ) GLOBAL_UNCERTAINTY_ASSIGNED_CONTEXT ( ( #198 ) ) GLOBAL_UNIT_ASSIGNED_CONTEXT ( ( #1, #981, #818 ) ) REPRESENTATION_CONTEXT ( 'NONE', 'WORKASPACE' ) );
#320 = ORIENTED_EDGE ( 'NONE', *, *, #813, .F. ) ;
#321 =( LENGTH_UNIT ( ) NAMED_UNIT ( * ) SI_UNIT ( .MILLI., .METRE. ) );
#322 = CIRCLE ( 'NONE', #802, 1.250000000000001110 ) ;
#323 = DIRECTION ( 'NONE',  ( 0.0000000000000000000, -1.000000000000000000, -1.156482317317871478E-16 ) ) ;
#324 = CARTESIAN_POINT ( 'NONE',  ( 15.00000000000000000, 109.9999999999999858, -9.999999999999969802 ) ) ;
#325 = STYLED_ITEM ( 'NONE', ( #1101 ), #97 ) ;
#326 = CARTESIAN_POINT ( 'NONE',  ( -15.00000000000000000, -9.999999999999978684, 20.00000000000003197 ) ) ;
#327 = LINE ( 'NONE', #255, #133 ) ;
#328 = EDGE_CURVE ( 'NONE', #289, #511, #91, .T. ) ;
#329 = DIRECTION ( 'NONE',  ( 0.0000000000000000000, 0.0000000000000000000, -1.000000000000000000 ) ) ;
#330 = ORIENTED_EDGE ( 'NONE', *, *, #958, .T. ) ;
#331 = ORIENTED_EDGE ( 'NONE', *, *, #171, .F. ) ;
#332 = ORIENTED_EDGE ( 'NONE', *, *, #1016, .T. ) ;
#333 = ORIENTED_EDGE ( 'NONE', *, *, #974, .F. ) ;
#334 = CARTESIAN_POINT ( 'NONE',  ( -7.500000000010215828, 76.10000000000005116, 2.081668171172168513E-14 ) ) ;
#335 = CYLINDRICAL_SURFACE ( 'NONE', #1072, 2.649999999999995026 ) ;
#336 = FILL_AREA_STYLE ('',( #351 ) ) ;
#337 =( NAMED_UNIT ( * ) SI_UNIT ( $, .STERADIAN. ) SOLID_ANGLE_UNIT ( ) );
#338 = DIRECTION ( 'NONE',  ( 0.0000000000000000000, 1.000000000000000000, 0.0000000000000000000 ) ) ;
#339 = AXIS2_PLACEMENT_3D ( 'NONE', #132, #868, #946 ) ;
#340 = CYLINDRICAL_SURFACE ( 'NONE', #235, 1.249999999999994227 ) ;
#341 = CARTESIAN_POINT ( 'NONE',  ( 7.499999999989787725, 77.75000000000005684, 2.129370300567072260E-14 ) ) ;
#342 = FACE_OUTER_BOUND ( 'NONE', #798, .T. ) ;
#343 = EDGE_LOOP ( 'NONE', ( #508, #415, #82, #903 ) ) ;
#344 = CARTESIAN_POINT ( 'NONE',  ( 15.00000000000000000, -9.999999999999978684, 20.00000000000003197 ) ) ;
#345 = EDGE_LOOP ( 'NONE', ( #431, #330, #928, #1120 ) ) ;
#346 = VERTEX_POINT ( 'NONE', #996 ) ;
#347 = EDGE_CURVE ( 'NONE', #359, #674, #898, .T. ) ;
#348 = CARTESIAN_POINT ( 'NONE',  ( 7.499999999989787725, 76.10000000000005116, -9.999999999999971578 ) ) ;
#349 = VECTOR ( 'NONE', #563, 1000.000000000000000 ) ;
#350 = ADVANCED_FACE ( 'NONE', ( #1099 ), #412, .F. ) ;
#351 = FILL_AREA_STYLE_COLOUR ( '', #281 ) ;
#352 = LINE ( 'NONE', #829, #609 ) ;
#353 = EDGE_CURVE ( 'NONE', #29, #672, #173, .T. ) ;
#354 =( LENGTH_UNIT ( ) NAMED_UNIT ( * ) SI_UNIT ( .MILLI., .METRE. ) );
#355 = DIRECTION ( 'NONE',  ( -0.0000000000000000000, 1.156482317317871478E-16, -1.000000000000000000 ) ) ;
#356 = AXIS2_PLACEMENT_3D ( 'NONE', #939, #686, #670 ) ;
#357 = ORIENTED_EDGE ( 'NONE', *, *, #240, .F. ) ;
#358 =( NAMED_UNIT ( * ) PLANE_ANGLE_UNIT ( ) SI_UNIT ( $, .RADIAN. ) );
#359 = VERTEX_POINT ( 'NONE', #200 ) ;
#360 = DIRECTION ( 'NONE',  ( 0.0000000000000000000, 1.000000000000000000, 0.0000000000000000000 ) ) ;
#361 = VERTEX_POINT ( 'NONE', #467 ) ;
#362 = ADVANCED_FACE ( 'NONE', ( #848 ), #225, .F. ) ;
#363 = DIRECTION ( 'NONE',  ( -1.000000000000000000, -0.0000000000000000000, -0.0000000000000000000 ) ) ;
#364 = EDGE_CURVE ( 'NONE', #993, #938, #269, .T. ) ;
#365 = VECTOR ( 'NONE', #1068, 1000.000000000000000 ) ;
#366 = CARTESIAN_POINT ( 'NONE',  ( 15.00000000000000000, 109.9999999999999858, 3.180141959660267667E-14 ) ) ;
#367 = CARTESIAN_POINT ( 'NONE',  ( -3.070000000000001616, -2.350000000000014300, -9.999999999999980460 ) ) ;
#368 = EDGE_CURVE ( 'NONE', #756, #29, #1141, .T. ) ;
#369 = ADVANCED_FACE ( 'NONE', ( #885 ), #654, .F. ) ;
#370 = CARTESIAN_POINT ( 'NONE',  ( -7.500000000010215828, 77.75000000000005684, -9.999999999999971578 ) ) ;
#371 = VECTOR ( 'NONE', #203, 1000.000000000000000 ) ;
#372 = CARTESIAN_POINT ( 'NONE',  ( 15.00000000000000000, 101.8499999999999517, -4.999999999999924505 ) ) ;
#373 = AXIS2_PLACEMENT_3D ( 'NONE', #827, #20, #749 ) ;
#374 = LINE ( 'NONE', #367, #739 ) ;
#375 = PRESENTATION_STYLE_ASSIGNMENT (( #1070 ) ) ;
#376 = DIRECTION ( 'NONE',  ( -0.0000000000000000000, 1.156482317317871478E-16, -1.000000000000000000 ) ) ;
#377 = VERTEX_POINT ( 'NONE', #191 ) ;
#378 = ADVANCED_FACE ( 'NONE', ( #1086 ), #131, .F. ) ;
#379 =( NAMED_UNIT ( * ) PLANE_ANGLE_UNIT ( ) SI_UNIT ( $, .RADIAN. ) );
#380 = VERTEX_POINT ( 'NONE', #934 ) ;
#381 = CIRCLE ( 'NONE', #402, 1.249999999999987121 ) ;
#382 = FILL_AREA_STYLE_COLOUR ( '', #118 ) ;
#383 = MECHANICAL_DESIGN_GEOMETRIC_PRESENTATION_REPRESENTATION (  '', ( #586 ), #785 ) ;
#384 = DIRECTION ( 'NONE',  ( -1.000000000000000000, -0.0000000000000000000, -0.0000000000000000000 ) ) ;
#385 = CYLINDRICAL_SURFACE ( 'NONE', #496, 2.649999999999995026 ) ;
#386 = CARTESIAN_POINT ( 'NONE',  ( -15.00000000000000178, 101.8499999999999517, -6.249999999999912070 ) ) ;
#387 =( NAMED_UNIT ( * ) SI_UNIT ( $, .STERADIAN. ) SOLID_ANGLE_UNIT ( ) );
#388 = AXIS2_PLACEMENT_3D ( 'NONE', #1043, #513, #1126 ) ;
#389 = VERTEX_POINT ( 'NONE', #1100 ) ;
#390 = ORIENTED_EDGE ( 'NONE', *, *, #347, .T. ) ;
#391 = ORIENTED_EDGE ( 'NONE', *, *, #904, .T. ) ;
#392 = DIRECTION ( 'NONE',  ( -0.0000000000000000000, 1.156482317317871478E-16, -1.000000000000000000 ) ) ;
#393 = EDGE_CURVE ( 'NONE', #181, #389, #694, .T. ) ;
#394 = ORIENTED_EDGE ( 'NONE', *, *, #773, .T. ) ;
#395 = CARTESIAN_POINT ( 'NONE',  ( 8.929999999999997939, -2.350000000000020517, 20.00000000000003197 ) ) ;
#396 = CIRCLE ( 'NONE', #899, 1.250000000000001110 ) ;
#397 = CARTESIAN_POINT ( 'NONE',  ( 8.929999999999997939, -2.350000000000011635, -9.999999999999980460 ) ) ;
#398 = VECTOR ( 'NONE', #45, 1000.000000000000000 ) ;
#399 = CARTESIAN_POINT ( 'NONE',  ( -15.00000000000000000, 81.84999999999996589, -6.249999999999919176 ) ) ;
#400 = CARTESIAN_POINT ( 'NONE',  ( -15.00000000000000178, 81.84999999999996589, -6.249999999999912070 ) ) ;
#401 = EDGE_LOOP ( 'NONE', ( #755, #650, #779 ) ) ;
#402 = AXIS2_PLACEMENT_3D ( 'NONE', #737, #183, #647 ) ;
#403 = VERTEX_POINT ( 'NONE', #400 ) ;
#404 = DIRECTION ( 'NONE',  ( -0.0000000000000000000, 1.156482317317871478E-16, -1.000000000000000000 ) ) ;
#405 = DIRECTION ( 'NONE',  ( 0.0000000000000000000, 1.000000000000000000, 0.0000000000000000000 ) ) ;
#406 = DIRECTION ( 'NONE',  ( -0.0000000000000000000, 1.156482317317871478E-16, -1.000000000000000000 ) ) ;
#407 = PRESENTATION_LAYER_ASSIGNMENT (  '', '', ( #594 ) ) ;
#408 = DIRECTION ( 'NONE',  ( 0.0000000000000000000, 2.891038145145697655E-16, -1.000000000000000000 ) ) ;
#409 = SURFACE_SIDE_STYLE ('',( #516 ) ) ;
#410 = CIRCLE ( 'NONE', #34, 2.649999999999993250 ) ;
#411 = EDGE_CURVE ( 'NONE', #377, #978, #535, .T. ) ;
#412 = CONICAL_SURFACE ( 'NONE', #571, 1.250000000000001110, 1.029744258676654090 ) ;
#413 = DIRECTION ( 'NONE',  ( 0.0000000000000000000, 0.0000000000000000000, -1.000000000000000000 ) ) ;
#414 = ORIENTED_EDGE ( 'NONE', *, *, #283, .T. ) ;
#415 = ORIENTED_EDGE ( 'NONE', *, *, #638, .F. ) ;
#416 = CARTESIAN_POINT ( 'NONE',  ( 15.00000000000000000, 109.9999999999999858, 3.180141959660267667E-14 ) ) ;
#417 = UNCERTAINTY_MEASURE_WITH_UNIT (LENGTH_MEASURE( 1.000000000000000082E-05 ), #84, 'distance_accuracy_value', 'NONE');
#418 = ORIENTED_EDGE ( 'NONE', *, *, #789, .T. ) ;
#419 = PRESENTATION_LAYER_ASSIGNMENT (  '', '', ( #292 ) ) ;
#420 = CIRCLE ( 'NONE', #356, 1.249999999999987121 ) ;
#421 = CARTESIAN_POINT ( 'NONE',  ( -15.00000000000000000, -9.999999999999978684, 20.00000000000003197 ) ) ;
#422 = AXIS2_PLACEMENT_3D ( 'NONE', #436, #1139, #707 ) ;
#423 = DIRECTION ( 'NONE',  ( -1.000000000000000000, 0.0000000000000000000, -0.0000000000000000000 ) ) ;
#424 =( LENGTH_UNIT ( ) NAMED_UNIT ( * ) SI_UNIT ( .MILLI., .METRE. ) );
#425 = FILL_AREA_STYLE ('',( #863 ) ) ;
#426 = LINE ( 'NONE', #167, #819 ) ;
#427 = EDGE_CURVE ( 'NONE', #94, #1143, #764, .T. ) ;
#428 = PLANE ( 'NONE',  #990 ) ;
#429 = EDGE_LOOP ( 'NONE', ( #1049, #43, #495 ) ) ;
#430 = ORIENTED_EDGE ( 'NONE', *, *, #733, .T. ) ;
#431 = ORIENTED_EDGE ( 'NONE', *, *, #364, .F. ) ;
#432 = STYLED_ITEM ( 'NONE', ( #1111 ), #378 ) ;
#433 = DIRECTION ( 'NONE',  ( -1.000000000000000000, -0.0000000000000000000, -0.0000000000000000000 ) ) ;
#434 = CIRCLE ( 'NONE', #860, 1.250000000000001110 ) ;
#435 = CARTESIAN_POINT ( 'NONE',  ( -4.999999999999999112, 81.84999999999996589, -4.999999999999924505 ) ) ;
#436 = CARTESIAN_POINT ( 'NONE',  ( 15.00000000000000000, 81.84999999999996589, -4.999999999999924505 ) ) ;
#437 = SURFACE_STYLE_FILL_AREA ( #107 ) ;
#438 = CARTESIAN_POINT ( 'NONE',  ( -7.500000000010215828, 76.10000000000005116, -9.999999999999971578 ) ) ;
#439 = CIRCLE ( 'NONE', #502, 1.649999999999998579 ) ;
#440 = ORIENTED_EDGE ( 'NONE', *, *, #447, .F. ) ;
#441 =( NAMED_UNIT ( * ) PLANE_ANGLE_UNIT ( ) SI_UNIT ( $, .RADIAN. ) );
#442 = ORIENTED_EDGE ( 'NONE', *, *, #1119, .T. ) ;
#443 = EDGE_LOOP ( 'NONE', ( #1116, #814, #30 ) ) ;
#444 = MECHANICAL_DESIGN_GEOMETRIC_PRESENTATION_REPRESENTATION (  '', ( #1036 ), #245 ) ;
#445 = SURFACE_SIDE_STYLE ('',( #23 ) ) ;
#446 =( LENGTH_UNIT ( ) NAMED_UNIT ( * ) SI_UNIT ( .MILLI., .METRE. ) );
#447 = EDGE_CURVE ( 'NONE', #94, #93, #627, .T. ) ;
#448 = ADVANCED_FACE ( 'NONE', ( #295 ), #722, .F. ) ;
#449 = CARTESIAN_POINT ( 'NONE',  ( -15.00000000000000000, 0.0000000000000000000, 0.0000000000000000000 ) ) ;
#450 = DIRECTION ( 'NONE',  ( 0.0000000000000000000, 0.0000000000000000000, 1.000000000000000000 ) ) ;
#451 = FACE_OUTER_BOUND ( 'NONE', #602, .T. ) ;
#452 = AXIS2_PLACEMENT_3D ( 'NONE', #595, #230, #226 ) ;
#453 =( NAMED_UNIT ( * ) SI_UNIT ( $, .STERADIAN. ) SOLID_ANGLE_UNIT ( ) );
#454 = CIRCLE ( 'NONE', #1151, 1.649999999999998579 ) ;
#455 = ORIENTED_EDGE ( 'NONE', *, *, #427, .F. ) ;
#456 = ORIENTED_EDGE ( 'NONE', *, *, #1002, .F. ) ;
#457 = DIRECTION ( 'NONE',  ( -0.0000000000000000000, 1.156482317317871478E-16, -1.000000000000000000 ) ) ;
#458 = AXIS2_PLACEMENT_3D ( 'NONE', #334, #951, #942 ) ;
#459 = CARTESIAN_POINT ( 'NONE',  ( -15.00000000000000000, -9.999999999999978684, 70.00000000000001421 ) ) ;
#460 = UNCERTAINTY_MEASURE_WITH_UNIT (LENGTH_MEASURE( 1.000000000000000082E-05 ), #820, 'distance_accuracy_value', 'NONE');
#461 = ADVANCED_FACE ( 'NONE', ( #643, #77, #506 ), #757, .T. ) ;
#462 = DIRECTION ( 'NONE',  ( 0.0000000000000000000, 1.000000000000000000, 0.0000000000000000000 ) ) ;
#463 = AXIS2_PLACEMENT_3D ( 'NONE', #147, #613, #797 ) ;
#464 = VECTOR ( 'NONE', #355, 1000.000000000000000 ) ;
#465 = DIRECTION ( 'NONE',  ( 1.000000000000000000, -0.0000000000000000000, -0.0000000000000000000 ) ) ;
#466 = VERTEX_POINT ( 'NONE', #124 ) ;
#467 = CARTESIAN_POINT ( 'NONE',  ( 15.00000000000000178, 81.84999999999996589, -3.749999999999937383 ) ) ;
#468 = ORIENTED_EDGE ( 'NONE', *, *, #926, .F. ) ;
#469 = EDGE_CURVE ( 'NONE', #1064, #109, #833, .T. ) ;
#470 = CARTESIAN_POINT ( 'NONE',  ( 4.999999999999999112, 101.8499999999999517, -3.749999999999923617 ) ) ;
#471 = ORIENTED_EDGE ( 'NONE', *, *, #1039, .T. ) ;
#472 = FILL_AREA_STYLE ('',( #747 ) ) ;
#473 = MECHANICAL_DESIGN_GEOMETRIC_PRESENTATION_REPRESENTATION (  '', ( #292 ), #662 ) ;
#474 = CARTESIAN_POINT ( 'NONE',  ( 15.00000000000000000, 109.9999999999999858, -9.999999999999969802 ) ) ;
#475 = SURFACE_SIDE_STYLE ('',( #437 ) ) ;
#476 = VECTOR ( 'NONE', #696, 1000.000000000000000 ) ;
#477 = CARTESIAN_POINT ( 'NONE',  ( -15.00000000000000000, 101.8499999999999517, -6.249999999999919176 ) ) ;
#478 = VECTOR ( 'NONE', #936, 1000.000000000000000 ) ;
#479 = DIRECTION ( 'NONE',  ( -0.5150380749100544886, 1.049727191138618449E-16, -0.8571673007021121116 ) ) ;
#480 = AXIS2_PLACEMENT_3D ( 'NONE', #575, #665, #462 ) ;
#481 = ORIENTED_EDGE ( 'NONE', *, *, #265, .T. ) ;
#482 = EDGE_LOOP ( 'NONE', ( #209, #254, #391, #1021 ) ) ;
#483 = DIRECTION ( 'NONE',  ( -1.000000000000000000, -0.0000000000000000000, -0.0000000000000000000 ) ) ;
#484 = ORIENTED_EDGE ( 'NONE', *, *, #44, .T. ) ;
#485 = FILL_AREA_STYLE ('',( #1015 ) ) ;
#486 = EDGE_CURVE ( 'NONE', #784, #1079, #960, .T. ) ;
#487 = CIRCLE ( 'NONE', #931, 1.249999999999987121 ) ;
#488 = DIRECTION ( 'NONE',  ( 0.0000000000000000000, -1.000000000000000000, 0.0000000000000000000 ) ) ;
#489 = PRESENTATION_STYLE_ASSIGNMENT (( #895 ) ) ;
#490 = VECTOR ( 'NONE', #578, 1000.000000000000000 ) ;
#491 = PRESENTATION_LAYER_ASSIGNMENT (  '', '', ( #432 ) ) ;
#492 = DIRECTION ( 'NONE',  ( 0.0000000000000000000, 2.891038145145697655E-16, -1.000000000000000000 ) ) ;
#493 = CARTESIAN_POINT ( 'NONE',  ( 7.499999999989787725, 76.10000000000005116, 2.081668171172168513E-14 ) ) ;
#494 = VECTOR ( 'NONE', #702, 1000.000000000000000 ) ;
#495 = ORIENTED_EDGE ( 'NONE', *, *, #486, .T. ) ;
#496 = AXIS2_PLACEMENT_3D ( 'NONE', #507, #612, #786 ) ;
#497 = ORIENTED_EDGE ( 'NONE', *, *, #1153, .F. ) ;
#498 = DIRECTION ( 'NONE',  ( 0.0000000000000000000, 1.000000000000000000, 0.0000000000000000000 ) ) ;
#499 = UNCERTAINTY_MEASURE_WITH_UNIT (LENGTH_MEASURE( 1.000000000000000082E-05 ), #117, 'distance_accuracy_value', 'NONE');
#500 = FACE_OUTER_BOUND ( 'NONE', #482, .T. ) ;
#501 = DIRECTION ( 'NONE',  ( 0.5150380749100544886, 0.0000000000000000000, -0.8571673007021121116 ) ) ;
#502 = AXIS2_PLACEMENT_3D ( 'NONE', #542, #640, #264 ) ;
#503 = CARTESIAN_POINT ( 'NONE',  ( 4.248924226215547328, 81.84999999999996589, -4.999999999999924505 ) ) ;
#504 = CIRCLE ( 'NONE', #458, 1.649999999999998579 ) ;
#505 = EDGE_CURVE ( 'NONE', #1034, #1008, #62, .T. ) ;
#506 = FACE_OUTER_BOUND ( 'NONE', #967, .T. ) ;
#507 = CARTESIAN_POINT ( 'NONE',  ( 8.929999999999997939, -5.000000000000009770, -9.999999999999980460 ) ) ;
#508 = ORIENTED_EDGE ( 'NONE', *, *, #1002, .T. ) ;
#509 = APPLICATION_CONTEXT ( 'automotive_design' ) ;
#510 = VERTEX_POINT ( 'NONE', #1109 ) ;
#511 = VERTEX_POINT ( 'NONE', #397 ) ;
#512 = PRODUCT_DEFINITION ( 'UNKNOWN', '', #620, #86 ) ;
#513 = DIRECTION ( 'NONE',  ( -0.0000000000000000000, 1.156482317317871478E-16, -1.000000000000000000 ) ) ;
#514 = ORIENTED_EDGE ( 'NONE', *, *, #789, .F. ) ;
#515 =( NAMED_UNIT ( * ) PLANE_ANGLE_UNIT ( ) SI_UNIT ( $, .RADIAN. ) );
#516 = SURFACE_STYLE_FILL_AREA ( #316 ) ;
#517 = LINE ( 'NONE', #22, #35 ) ;
#518 = SURFACE_STYLE_USAGE ( .BOTH. , #238 ) ;
#519 = AXIS2_PLACEMENT_3D ( 'NONE', #795, #1063, #1138 ) ;
#520 = DIRECTION ( 'NONE',  ( 0.0000000000000000000, 1.000000000000000000, 0.0000000000000000000 ) ) ;
#521 = COLOUR_RGB ( '',0.7921568627450980005, 0.8196078431372548767, 0.9333333333333333481 ) ;
#522 = LINE ( 'NONE', #4, #208 ) ;
#523 = LINE ( 'NONE', #788, #778 ) ;
#524 = ORIENTED_EDGE ( 'NONE', *, *, #300, .T. ) ;
#525 = DIRECTION ( 'NONE',  ( 0.0000000000000000000, 0.0000000000000000000, 1.000000000000000000 ) ) ;
#526 = PRESENTATION_LAYER_ASSIGNMENT (  '', '', ( #325 ) ) ;
#527 = CARTESIAN_POINT ( 'NONE',  ( -15.00000000000000000, 109.9999999999999858, 3.180141959660267667E-14 ) ) ;
#528 = EDGE_LOOP ( 'NONE', ( #32, #159, #1066, #888 ) ) ;
#529 = DIRECTION ( 'NONE',  ( 0.5150380749100544886, 0.0000000000000000000, -0.8571673007021121116 ) ) ;
#530 = EDGE_CURVE ( 'NONE', #380, #993, #775, .T. ) ;
#531 = DIRECTION ( 'NONE',  ( 1.000000000000000000, -0.0000000000000000000, -0.0000000000000000000 ) ) ;
#532 = STYLED_ITEM ( 'NONE', ( #774 ), #716 ) ;
#533 = CONICAL_SURFACE ( 'NONE', #49, 1.250000000000001110, 1.029744258676654090 ) ;
#534 = CARTESIAN_POINT ( 'NONE',  ( -4.248924226215547328, 81.84999999999996589, -4.999999999999924505 ) ) ;
#535 = CIRCLE ( 'NONE', #959, 1.649999999999998579 ) ;
#536 = ADVANCED_FACE ( 'NONE', ( #106 ), #25, .F. ) ;
#537 = UNCERTAINTY_MEASURE_WITH_UNIT (LENGTH_MEASURE( 1.000000000000000082E-05 ), #216, 'distance_accuracy_value', 'NONE');
#538 = CARTESIAN_POINT ( 'NONE',  ( 15.00000000000000000, 109.9999999999999858, 3.180141959660267667E-14 ) ) ;
#539 = LINE ( 'NONE', #61, #494 ) ;
#540 = CIRCLE ( 'NONE', #807, 2.649999999999993250 ) ;
#541 = EDGE_LOOP ( 'NONE', ( #648, #259, #414, #484 ) ) ;
#542 = CARTESIAN_POINT ( 'NONE',  ( -7.500000000010215828, 76.10000000000005116, -9.999999999999971578 ) ) ;
#543 = ORIENTED_EDGE ( 'NONE', *, *, #871, .T. ) ;
#544 = ORIENTED_EDGE ( 'NONE', *, *, #368, .F. ) ;
#545 = AXIS2_PLACEMENT_3D ( 'NONE', #152, #881, #520 ) ;
#546 = ADVANCED_FACE ( 'NONE', ( #555 ), #1073, .F. ) ;
#547 = DIRECTION ( 'NONE',  ( 1.000000000000000000, -0.0000000000000000000, -0.0000000000000000000 ) ) ;
#548 = CARTESIAN_POINT ( 'NONE',  ( -15.00000000000000000, 0.0000000000000000000, 20.00000000000003197 ) ) ;
#549 = LINE ( 'NONE', #344, #734 ) ;
#550 = EDGE_CURVE ( 'NONE', #953, #607, #847, .T. ) ;
#551 = DIRECTION ( 'NONE',  ( 0.0000000000000000000, 1.000000000000000000, 0.0000000000000000000 ) ) ;
#552 = ADVANCED_FACE ( 'NONE', ( #599, #1032, #805 ), #1130, .F. ) ;
#553 = SURFACE_SIDE_STYLE ('',( #629 ) ) ;
#554 =( GEOMETRIC_REPRESENTATION_CONTEXT ( 3 ) GLOBAL_UNCERTAINTY_ASSIGNED_CONTEXT ( ( #460 ) ) GLOBAL_UNIT_ASSIGNED_CONTEXT ( ( #820, #379, #988 ) ) REPRESENTATION_CONTEXT ( 'NONE', 'WORKASPACE' ) );
#555 = FACE_OUTER_BOUND ( 'NONE', #564, .T. ) ;
#556 = STYLED_ITEM ( 'NONE', ( #199 ), #39 ) ;
#557 = CARTESIAN_POINT ( 'NONE',  ( -3.070000000000001616, -5.000000000000009770, -9.999999999999980460 ) ) ;
#558 = LINE ( 'NONE', #704, #11 ) ;
#559 = DIRECTION ( 'NONE',  ( 0.0000000000000000000, 0.0000000000000000000, 1.000000000000000000 ) ) ;
#560 = ORIENTED_EDGE ( 'NONE', *, *, #850, .F. ) ;
#561 = ADVANCED_FACE ( 'NONE', ( #987, #641, #894, #751, #75 ), #428, .F. ) ;
#562 = EDGE_LOOP ( 'NONE', ( #709, #980 ) ) ;
#563 = DIRECTION ( 'NONE',  ( 0.0000000000000000000, -3.686287386450715076E-16, -1.000000000000000000 ) ) ;
#564 = EDGE_LOOP ( 'NONE', ( #320, #54, #976, #194 ) ) ;
#565 = LINE ( 'NONE', #477, #1042 ) ;
#566 = CARTESIAN_POINT ( 'NONE',  ( -4.999999999999999112, 101.8499999999999517, -4.999999999999924505 ) ) ;
#567 = CYLINDRICAL_SURFACE ( 'NONE', #651, 1.649999999999998579 ) ;
#568 = FACE_OUTER_BOUND ( 'NONE', #1025, .T. ) ;
#569 = DIRECTION ( 'NONE',  ( -0.5150380749100544886, 0.0000000000000000000, 0.8571673007021121116 ) ) ;
#570 = DIRECTION ( 'NONE',  ( -1.000000000000000000, -0.0000000000000000000, -0.0000000000000000000 ) ) ;
#571 = AXIS2_PLACEMENT_3D ( 'NONE', #282, #652, #1092 ) ;
#572 = FACE_BOUND ( 'NONE', #866, .T. ) ;
#573 = CARTESIAN_POINT ( 'NONE',  ( -7.500000000010215828, 77.75000000000005684, 2.129370300567072260E-14 ) ) ;
#574 = VERTEX_POINT ( 'NONE', #615 ) ;
#575 = CARTESIAN_POINT ( 'NONE',  ( 8.929999999999997939, -5.000000000000009770, -9.999999999999980460 ) ) ;
#576 = ORIENTED_EDGE ( 'NONE', *, *, #505, .T. ) ;
#577 = EDGE_CURVE ( 'NONE', #674, #930, #1071, .T. ) ;
#578 = DIRECTION ( 'NONE',  ( -1.000000000000000000, -0.0000000000000000000, -0.0000000000000000000 ) ) ;
#579 = ORIENTED_EDGE ( 'NONE', *, *, #858, .F. ) ;
#580 = DIRECTION ( 'NONE',  ( 0.0000000000000000000, 0.0000000000000000000, -1.000000000000000000 ) ) ;
#581 = CARTESIAN_POINT ( 'NONE',  ( 15.00000000000000000, 81.84999999999996589, -6.249999999999919176 ) ) ;
#582 = SURFACE_STYLE_USAGE ( .BOTH. , #409 ) ;
#583 = SURFACE_STYLE_FILL_AREA ( #667 ) ;
#584 = LINE ( 'NONE', #735, #464 ) ;
#585 = SURFACE_STYLE_USAGE ( .BOTH. , #859 ) ;
#586 = STYLED_ITEM ( 'NONE', ( #622 ), #834 ) ;
#587 = CONICAL_SURFACE ( 'NONE', #923, 1.250000000000001110, 1.029744258676654090 ) ;
#588 = VERTEX_POINT ( 'NONE', #1040 ) ;
#589 = EDGE_LOOP ( 'NONE', ( #544, #877, #430 ) ) ;
#590 = EDGE_LOOP ( 'NONE', ( #66, #876, #796, #440 ) ) ;
#591 = DIRECTION ( 'NONE',  ( 0.0000000000000000000, 1.000000000000000000, 2.891038145145686315E-16 ) ) ;
#592 = PRODUCT_DEFINITION_SHAPE ( 'NONE', 'NONE',  #512 ) ;
#593 = CIRCLE ( 'NONE', #185, 2.649999999999992806 ) ;
#594 = STYLED_ITEM ( 'NONE', ( #188 ), #178 ) ;
#595 = CARTESIAN_POINT ( 'NONE',  ( -15.00000000000000000, 81.84999999999996589, -4.999999999999924505 ) ) ;
#596 = EDGE_CURVE ( 'NONE', #52, #1079, #1058, .T. ) ;
#597 = DIRECTION ( 'NONE',  ( 0.0000000000000000000, 0.0000000000000000000, -1.000000000000000000 ) ) ;
#598 = LINE ( 'NONE', #608, #1110 ) ;
#599 = FACE_BOUND ( 'NONE', #179, .T. ) ;
#600 = FACE_OUTER_BOUND ( 'NONE', #632, .T. ) ;
#601 = CARTESIAN_POINT ( 'NONE',  ( -15.00000000000000178, 81.84999999999996589, -3.749999999999937383 ) ) ;
#602 = EDGE_LOOP ( 'NONE', ( #148, #455, #1117, #864 ) ) ;
#603 = AXIS2_PLACEMENT_3D ( 'NONE', #113, #50, #597 ) ;
#604 = ORIENTED_EDGE ( 'NONE', *, *, #1094, .F. ) ;
#605 =( NAMED_UNIT ( * ) SI_UNIT ( $, .STERADIAN. ) SOLID_ANGLE_UNIT ( ) );
#606 = VERTEX_POINT ( 'NONE', #48 ) ;
#607 = VERTEX_POINT ( 'NONE', #416 ) ;
#608 = CARTESIAN_POINT ( 'NONE',  ( 15.00000000000000000, 0.0000000000000000000, 0.0000000000000000000 ) ) ;
#609 = VECTOR ( 'NONE', #15, 1000.000000000000000 ) ;
#610 = PRODUCT_CONTEXT ( 'NONE', #1136, 'mechanical' ) ;
#611 = STYLED_ITEM ( 'NONE', ( #489 ), #906 ) ;
#612 = DIRECTION ( 'NONE',  ( -0.0000000000000000000, 1.156482317317871478E-16, -1.000000000000000000 ) ) ;
#613 = DIRECTION ( 'NONE',  ( 1.000000000000000000, -0.0000000000000000000, -0.0000000000000000000 ) ) ;
#614 = EDGE_CURVE ( 'NONE', #1064, #1034, #721, .T. ) ;
#615 = CARTESIAN_POINT ( 'NONE',  ( 4.999999999999999112, 81.84999999999996589, -3.749999999999923617 ) ) ;
#616 = CARTESIAN_POINT ( 'NONE',  ( 7.499999999989787725, 77.75000000000005684, -9.999999999999971578 ) ) ;
#617 = MECHANICAL_DESIGN_GEOMETRIC_PRESENTATION_REPRESENTATION (  '', ( #432 ), #554 ) ;
#618 = ORIENTED_EDGE ( 'NONE', *, *, #347, .F. ) ;
#619 = CARTESIAN_POINT ( 'NONE',  ( 7.499999999989787725, 74.45000000000005969, -9.999999999999971578 ) ) ;
#620 = PRODUCT_DEFINITION_FORMATION_WITH_SPECIFIED_SOURCE ( 'ANY', '', #897, .NOT_KNOWN. ) ;
#621 = SURFACE_SIDE_STYLE ('',( #9 ) ) ;
#622 = PRESENTATION_STYLE_ASSIGNMENT (( #85 ) ) ;
#623 = SURFACE_STYLE_USAGE ( .BOTH. , #954 ) ;
#624 = MECHANICAL_DESIGN_GEOMETRIC_PRESENTATION_REPRESENTATION (  '', ( #777 ), #1129 ) ;
#625 = FILL_AREA_STYLE_COLOUR ( '', #861 ) ;
#626 =( NAMED_UNIT ( * ) SI_UNIT ( $, .STERADIAN. ) SOLID_ANGLE_UNIT ( ) );
#627 = LINE ( 'NONE', #219, #371 ) ;
#628 = DIRECTION ( 'NONE',  ( -1.000000000000000000, -0.0000000000000000000, -0.0000000000000000000 ) ) ;
#629 = SURFACE_STYLE_FILL_AREA ( #1054 ) ;
#630 = UNCERTAINTY_MEASURE_WITH_UNIT (LENGTH_MEASURE( 1.000000000000000082E-05 ), #424, 'distance_accuracy_value', 'NONE');
#631 = VERTEX_POINT ( 'NONE', #503 ) ;
#632 = EDGE_LOOP ( 'NONE', ( #122, #1156, #162, #41 ) ) ;
#633 = AXIS2_PLACEMENT_3D ( 'NONE', #966, #70, #338 ) ;
#634 = ADVANCED_FACE ( 'NONE', ( #224 ), #385, .F. ) ;
#635 = VERTEX_POINT ( 'NONE', #1033 ) ;
#636 = CARTESIAN_POINT ( 'NONE',  ( 7.499999999989787725, 76.10000000000005116, -9.999999999999971578 ) ) ;
#637 = SHAPE_DEFINITION_REPRESENTATION ( #592, #39 ) ;
#638 = EDGE_CURVE ( 'NONE', #940, #635, #598, .T. ) ;
#639 = CARTESIAN_POINT ( 'NONE',  ( 15.00000000000000000, 101.8499999999999517, -3.749999999999930278 ) ) ;
#640 = DIRECTION ( 'NONE',  ( -0.0000000000000000000, 1.156482317317871478E-16, -1.000000000000000000 ) ) ;
#641 = FACE_BOUND ( 'NONE', #685, .T. ) ;
#642 = FILL_AREA_STYLE_COLOUR ( '', #220 ) ;
#643 = FACE_BOUND ( 'NONE', #134, .T. ) ;
#644 = LINE ( 'NONE', #548, #682 ) ;
#645 = UNCERTAINTY_MEASURE_WITH_UNIT (LENGTH_MEASURE( 1.000000000000000082E-05 ), #249, 'distance_accuracy_value', 'NONE');
#646 = FACE_OUTER_BOUND ( 'NONE', #589, .T. ) ;
#647 = DIRECTION ( 'NONE',  ( 0.0000000000000000000, 0.0000000000000000000, 1.000000000000000000 ) ) ;
#648 = ORIENTED_EDGE ( 'NONE', *, *, #265, .F. ) ;
#649 = ORIENTED_EDGE ( 'NONE', *, *, #614, .T. ) ;
#650 = ORIENTED_EDGE ( 'NONE', *, *, #76, .T. ) ;
#651 = AXIS2_PLACEMENT_3D ( 'NONE', #348, #1133, #262 ) ;
#652 = DIRECTION ( 'NONE',  ( 1.000000000000000000, -0.0000000000000000000, -0.0000000000000000000 ) ) ;
#653 = FILL_AREA_STYLE ('',( #10 ) ) ;
#654 = PLANE ( 'NONE',  #941 ) ;
#655 = FACE_OUTER_BOUND ( 'NONE', #1009, .T. ) ;
#656 = MECHANICAL_DESIGN_GEOMETRIC_PRESENTATION_REPRESENTATION (  '', ( #556 ), #697 ) ;
#657 = SURFACE_STYLE_USAGE ( .BOTH. , #475 ) ;
#658 = EDGE_CURVE ( 'NONE', #978, #377, #504, .T. ) ;
#659 = EDGE_LOOP ( 'NONE', ( #725, #418 ) ) ;
#660 = ORIENTED_EDGE ( 'NONE', *, *, #713, .F. ) ;
#661 = ORIENTED_EDGE ( 'NONE', *, *, #1140, .F. ) ;
#662 =( GEOMETRIC_REPRESENTATION_CONTEXT ( 3 ) GLOBAL_UNCERTAINTY_ASSIGNED_CONTEXT ( ( #537 ) ) GLOBAL_UNIT_ASSIGNED_CONTEXT ( ( #216, #47, #1022 ) ) REPRESENTATION_CONTEXT ( 'NONE', 'WORKASPACE' ) );
#663 = CARTESIAN_POINT ( 'NONE',  ( -4.999999999999999112, 81.84999999999996589, -4.999999999999924505 ) ) ;
#664 = VECTOR ( 'NONE', #501, 1000.000000000000000 ) ;
#665 = DIRECTION ( 'NONE',  ( -0.0000000000000000000, 1.156482317317871478E-16, -1.000000000000000000 ) ) ;
#666 = DIRECTION ( 'NONE',  ( 0.0000000000000000000, 1.574545884618025235E-16, -1.000000000000000000 ) ) ;
#667 = FILL_AREA_STYLE ('',( #28 ) ) ;
#668 = MECHANICAL_DESIGN_GEOMETRIC_PRESENTATION_REPRESENTATION (  '', ( #611 ), #319 ) ;
#669 = VECTOR ( 'NONE', #392, 1000.000000000000000 ) ;
#670 = DIRECTION ( 'NONE',  ( 0.0000000000000000000, 0.0000000000000000000, -1.000000000000000000 ) ) ;
#671 = ORIENTED_EDGE ( 'NONE', *, *, #945, .F. ) ;
#672 = VERTEX_POINT ( 'NONE', #601 ) ;
#673 = EDGE_CURVE ( 'NONE', #181, #574, #1003, .T. ) ;
#674 = VERTEX_POINT ( 'NONE', #241 ) ;
#675 = CARTESIAN_POINT ( 'NONE',  ( 4.999999999999999112, 81.84999999999996589, -4.999999999999924505 ) ) ;
#676 = STYLED_ITEM ( 'NONE', ( #794 ), #362 ) ;
#677 = CARTESIAN_POINT ( 'NONE',  ( -15.00000000000000000, 81.84999999999996589, -4.999999999999924505 ) ) ;
#678 = CARTESIAN_POINT ( 'NONE',  ( -3.070000000000001616, -5.000000000000009770, -9.999999999999980460 ) ) ;
#679 = UNCERTAINTY_MEASURE_WITH_UNIT (LENGTH_MEASURE( 1.000000000000000082E-05 ), #446, 'distance_accuracy_value', 'NONE');
#680 = CARTESIAN_POINT ( 'NONE',  ( -7.500000000010215828, 76.10000000000005116, 2.081668171172168513E-14 ) ) ;
#681 = UNCERTAINTY_MEASURE_WITH_UNIT (LENGTH_MEASURE( 1.000000000000000082E-05 ), #321, 'distance_accuracy_value', 'NONE');
#682 = VECTOR ( 'NONE', #175, 1000.000000000000000 ) ;
#683 = AXIS2_PLACEMENT_3D ( 'NONE', #326, #329, #423 ) ;
#684 = SURFACE_STYLE_FILL_AREA ( #726 ) ;
#685 = EDGE_LOOP ( 'NONE', ( #905, #836 ) ) ;
#686 = DIRECTION ( 'NONE',  ( 1.000000000000000000, -0.0000000000000000000, -0.0000000000000000000 ) ) ;
#687 = ORIENTED_EDGE ( 'NONE', *, *, #550, .T. ) ;
#688 = ORIENTED_EDGE ( 'NONE', *, *, #771, .T. ) ;
#689 =( GEOMETRIC_REPRESENTATION_CONTEXT ( 3 ) GLOBAL_UNCERTAINTY_ASSIGNED_CONTEXT ( ( #215 ) ) GLOBAL_UNIT_ASSIGNED_CONTEXT ( ( #24, #738, #387 ) ) REPRESENTATION_CONTEXT ( 'NONE', 'WORKASPACE' ) );
#690 =( LENGTH_UNIT ( ) NAMED_UNIT ( * ) SI_UNIT ( .MILLI., .METRE. ) );
#691 = APPLICATION_PROTOCOL_DEFINITION ( 'draft international standard', 'automotive_design', 1998, #509 ) ;
#692 = EDGE_CURVE ( 'NONE', #756, #588, #913, .T. ) ;
#693 = DIRECTION ( 'NONE',  ( -0.0000000000000000000, 1.156482317317871478E-16, -1.000000000000000000 ) ) ;
#694 = LINE ( 'NONE', #581, #478 ) ;
#695 = VECTOR ( 'NONE', #752, 1000.000000000000000 ) ;
#696 = DIRECTION ( 'NONE',  ( 0.5150380749100544886, 1.049727191138618449E-16, 0.8571673007021121116 ) ) ;
#697 =( GEOMETRIC_REPRESENTATION_CONTEXT ( 3 ) GLOBAL_UNCERTAINTY_ASSIGNED_CONTEXT ( ( #645 ) ) GLOBAL_UNIT_ASSIGNED_CONTEXT ( ( #249, #135, #780 ) ) REPRESENTATION_CONTEXT ( 'NONE', 'WORKASPACE' ) );
#698 = EDGE_LOOP ( 'NONE', ( #838, #671, #1035, #284 ) ) ;
#699 = ORIENTED_EDGE ( 'NONE', *, *, #945, .T. ) ;
#700 = EDGE_LOOP ( 'NONE', ( #810, #1007, #1144, #933 ) ) ;
#701 = SURFACE_SIDE_STYLE ('',( #583 ) ) ;
#702 = DIRECTION ( 'NONE',  ( 0.0000000000000000000, 1.000000000000000000, 1.156482317317871478E-16 ) ) ;
#703 = PRESENTATION_LAYER_ASSIGNMENT (  '', '', ( #611 ) ) ;
#704 = CARTESIAN_POINT ( 'NONE',  ( 8.929999999999997939, -7.650000000000004796, -9.999999999999980460 ) ) ;
#705 = FILL_AREA_STYLE_COLOUR ( '', #51 ) ;
#706 = FACE_OUTER_BOUND ( 'NONE', #343, .T. ) ;
#707 = DIRECTION ( 'NONE',  ( 0.0000000000000000000, 0.0000000000000000000, -1.000000000000000000 ) ) ;
#708 =( GEOMETRIC_REPRESENTATION_CONTEXT ( 3 ) GLOBAL_UNCERTAINTY_ASSIGNED_CONTEXT ( ( #630 ) ) GLOBAL_UNIT_ASSIGNED_CONTEXT ( ( #424, #1056, #626 ) ) REPRESENTATION_CONTEXT ( 'NONE', 'WORKASPACE' ) );
#709 = ORIENTED_EDGE ( 'NONE', *, *, #658, .T. ) ;
#710 = DIRECTION ( 'NONE',  ( 0.0000000000000000000, 0.0000000000000000000, -1.000000000000000000 ) ) ;
#711 = ORIENTED_EDGE ( 'NONE', *, *, #111, .T. ) ;
#712 = CARTESIAN_POINT ( 'NONE',  ( 7.499999999989787725, 74.45000000000005969, -9.999999999999971578 ) ) ;
#713 = EDGE_CURVE ( 'NONE', #511, #289, #294, .T. ) ;
#714 = ORIENTED_EDGE ( 'NONE', *, *, #469, .T. ) ;
#715 = CARTESIAN_POINT ( 'NONE',  ( -15.00000000000000000, 101.8499999999999517, -3.749999999999930278 ) ) ;
#716 = ADVANCED_FACE ( 'NONE', ( #1097 ), #883, .F. ) ;
#717 =( NAMED_UNIT ( * ) PLANE_ANGLE_UNIT ( ) SI_UNIT ( $, .RADIAN. ) );
#718 = AXIS2_PLACEMENT_3D ( 'NONE', #127, #843, #580 ) ;
#719 = CARTESIAN_POINT ( 'NONE',  ( 8.929999999999997939, -5.000000000000009770, -9.999999999999980460 ) ) ;
#720 = PLANE ( 'NONE',  #1114 ) ;
#721 = LINE ( 'NONE', #421, #830 ) ;
#722 = CYLINDRICAL_SURFACE ( 'NONE', #763, 1.249999999999994227 ) ;
#723 = DIRECTION ( 'NONE',  ( -1.000000000000000000, -0.0000000000000000000, -0.0000000000000000000 ) ) ;
#724 = SURFACE_STYLE_FILL_AREA ( #472 ) ;
#725 = ORIENTED_EDGE ( 'NONE', *, *, #21, .T. ) ;
#726 = FILL_AREA_STYLE ('',( #163 ) ) ;
#727 = ORIENTED_EDGE ( 'NONE', *, *, #368, .T. ) ;
#728 = AXIS2_PLACEMENT_3D ( 'NONE', #119, #313, #1026 ) ;
#729 = EDGE_LOOP ( 'NONE', ( #618, #301, #821, #902 ) ) ;
#730 = ADVANCED_FACE ( 'NONE', ( #655 ), #533, .F. ) ;
#731 = CARTESIAN_POINT ( 'NONE',  ( -7.500000000010215828, 76.10000000000005116, -9.999999999999971578 ) ) ;
#732 = COLOUR_RGB ( '',0.5019607843137254832, 0.5019607843137254832, 0.5019607843137254832 ) ;
#733 = EDGE_CURVE ( 'NONE', #588, #29, #396, .T. ) ;
#734 = VECTOR ( 'NONE', #901, 1000.000000000000000 ) ;
#735 = CARTESIAN_POINT ( 'NONE',  ( -7.500000000010215828, 77.75000000000005684, -9.999999999999971578 ) ) ;
#736 = AXIS2_PLACEMENT_3D ( 'NONE', #837, #570, #992 ) ;
#737 = CARTESIAN_POINT ( 'NONE',  ( -15.00000000000000178, 81.84999999999996589, -4.999999999999924505 ) ) ;
#738 =( NAMED_UNIT ( * ) PLANE_ANGLE_UNIT ( ) SI_UNIT ( $, .RADIAN. ) );
#739 = VECTOR ( 'NONE', #1065, 1000.000000000000000 ) ;
#740 = FACE_OUTER_BOUND ( 'NONE', #1051, .T. ) ;
#741 = DIRECTION ( 'NONE',  ( 0.0000000000000000000, -1.000000000000000000, -1.574545884618025235E-16 ) ) ;
#742 = ORIENTED_EDGE ( 'NONE', *, *, #530, .F. ) ;
#743 = CARTESIAN_POINT ( 'NONE',  ( -15.00000000000000000, -10.00000000000000888, -9.999999999999982236 ) ) ;
#744 = ORIENTED_EDGE ( 'NONE', *, *, #614, .F. ) ;
#745 =( GEOMETRIC_REPRESENTATION_CONTEXT ( 3 ) GLOBAL_UNCERTAINTY_ASSIGNED_CONTEXT ( ( #1030 ) ) GLOBAL_UNIT_ASSIGNED_CONTEXT ( ( #354, #149, #964 ) ) REPRESENTATION_CONTEXT ( 'NONE', 'WORKASPACE' ) );
#746 = DIRECTION ( 'NONE',  ( -1.000000000000000000, -0.0000000000000000000, -0.0000000000000000000 ) ) ;
#747 = FILL_AREA_STYLE_COLOUR ( '', #765 ) ;
#748 = CARTESIAN_POINT ( 'NONE',  ( -4.999999999999999112, 101.8499999999999517, -3.749999999999923617 ) ) ;
#749 = DIRECTION ( 'NONE',  ( 0.0000000000000000000, 0.0000000000000000000, 1.000000000000000000 ) ) ;
#750 = EDGE_CURVE ( 'NONE', #768, #93, #154, .T. ) ;
#751 = FACE_BOUND ( 'NONE', #14, .T. ) ;
#752 = DIRECTION ( 'NONE',  ( 0.0000000000000000000, 1.000000000000000000, 1.156482317317871478E-16 ) ) ;
#753 = EDGE_CURVE ( 'NONE', #823, #1078, #205, .T. ) ;
#754 = ORIENTED_EDGE ( 'NONE', *, *, #283, .F. ) ;
#755 = ORIENTED_EDGE ( 'NONE', *, *, #100, .F. ) ;
#756 = VERTEX_POINT ( 'NONE', #534 ) ;
#757 = PLANE ( 'NONE',  #728 ) ;
#758 = ORIENTED_EDGE ( 'NONE', *, *, #577, .T. ) ;
#759 = CARTESIAN_POINT ( 'NONE',  ( -3.070000000000001616, -2.350000000000020073, 20.00000000000003197 ) ) ;
#760 = LINE ( 'NONE', #293, #276 ) ;
#761 = DIRECTION ( 'NONE',  ( 0.0000000000000000000, 1.000000000000000000, 2.891038145145686315E-16 ) ) ;
#762 = SURFACE_SIDE_STYLE ('',( #18 ) ) ;
#763 = AXIS2_PLACEMENT_3D ( 'NONE', #213, #318, #855 ) ;
#764 = CIRCLE ( 'NONE', #793, 1.649999999999998579 ) ;
#765 = COLOUR_RGB ( '',0.7921568627450980005, 0.8196078431372548767, 0.9333333333333333481 ) ;
#766 = DIRECTION ( 'NONE',  ( 0.0000000000000000000, 2.891038145145697655E-16, -1.000000000000000000 ) ) ;
#767 = DIRECTION ( 'NONE',  ( 0.0000000000000000000, 0.0000000000000000000, -1.000000000000000000 ) ) ;
#768 = VERTEX_POINT ( 'NONE', #619 ) ;
#769 = EDGE_LOOP ( 'NONE', ( #13, #357, #242, #649 ) ) ;
#770 = VERTEX_POINT ( 'NONE', #527 ) ;
#771 = EDGE_CURVE ( 'NONE', #938, #510, #1031, .T. ) ;
#772 = VECTOR ( 'NONE', #1105, 1000.000000000000000 ) ;
#773 = EDGE_CURVE ( 'NONE', #380, #938, #1085, .T. ) ;
#774 = PRESENTATION_STYLE_ASSIGNMENT (( #961 ) ) ;
#775 = LINE ( 'NONE', #298, #207 ) ;
#776 = DIRECTION ( 'NONE',  ( 1.000000000000000000, -0.0000000000000000000, -0.0000000000000000000 ) ) ;
#777 = STYLED_ITEM ( 'NONE', ( #862 ), #546 ) ;
#778 = VECTOR ( 'NONE', #529, 1000.000000000000000 ) ;
#779 = ORIENTED_EDGE ( 'NONE', *, *, #1140, .T. ) ;
#780 =( NAMED_UNIT ( * ) SI_UNIT ( $, .STERADIAN. ) SOLID_ANGLE_UNIT ( ) );
#781 = ORIENTED_EDGE ( 'NONE', *, *, #958, .F. ) ;
#782 = DIRECTION ( 'NONE',  ( 0.0000000000000000000, -1.156482317317871478E-16, 1.000000000000000000 ) ) ;
#783 = EDGE_LOOP ( 'NONE', ( #244, #442 ) ) ;
#784 = VERTEX_POINT ( 'NONE', #972 ) ;
#785 =( GEOMETRIC_REPRESENTATION_CONTEXT ( 3 ) GLOBAL_UNCERTAINTY_ASSIGNED_CONTEXT ( ( #2 ) ) GLOBAL_UNIT_ASSIGNED_CONTEXT ( ( #271, #92, #453 ) ) REPRESENTATION_CONTEXT ( 'NONE', 'WORKASPACE' ) );
#786 = DIRECTION ( 'NONE',  ( 0.0000000000000000000, 1.000000000000000000, 0.0000000000000000000 ) ) ;
#787 = FACE_OUTER_BOUND ( 'NONE', #81, .T. ) ;
#788 = CARTESIAN_POINT ( 'NONE',  ( 4.999999999999999112, 81.84999999999996589, -6.249999999999925393 ) ) ;
#789 = EDGE_CURVE ( 'NONE', #359, #1154, #410, .T. ) ;
#790 = DIRECTION ( 'NONE',  ( 0.0000000000000000000, 0.0000000000000000000, -1.000000000000000000 ) ) ;
#791 = DIRECTION ( 'NONE',  ( 1.000000000000000000, 0.0000000000000000000, -0.0000000000000000000 ) ) ;
#792 =( LENGTH_UNIT ( ) NAMED_UNIT ( * ) SI_UNIT ( .MILLI., .METRE. ) );
#793 = AXIS2_PLACEMENT_3D ( 'NONE', #929, #492, #1020 ) ;
#794 = PRESENTATION_STYLE_ASSIGNMENT (( #657 ) ) ;
#795 = CARTESIAN_POINT ( 'NONE',  ( 8.929999999999997939, -5.000000000000009770, -9.999999999999980460 ) ) ;
#796 = ORIENTED_EDGE ( 'NONE', *, *, #750, .T. ) ;
#797 = DIRECTION ( 'NONE',  ( 0.0000000000000000000, 0.0000000000000000000, -1.000000000000000000 ) ) ;
#798 = EDGE_LOOP ( 'NONE', ( #661, #197, #46, #212 ) ) ;
#799 = FILL_AREA_STYLE ('',( #705 ) ) ;
#800 = CLOSED_SHELL ( 'NONE', ( #1152, #151, #906, #80, #97, #156, #178, #730, #1148, #169, #911, #892, #1157, #256, #986, #369, #561, #461, #72, #552, #1142, #634, #716, #811, #350, #546, #536, #448, #1081, #362, #164, #378 ) ) ;
#801 = DIRECTION ( 'NONE',  ( -0.0000000000000000000, 1.156482317317871478E-16, -1.000000000000000000 ) ) ;
#802 = AXIS2_PLACEMENT_3D ( 'NONE', #663, #1004, #202 ) ;
#803 = CARTESIAN_POINT ( 'NONE',  ( -15.00000000000000000, -3.149091769236055795E-15, 20.00000000000003197 ) ) ;
#804 = CARTESIAN_POINT ( 'NONE',  ( -4.999999999999999112, 101.8499999999999517, -3.749999999999923617 ) ) ;
#805 = FACE_OUTER_BOUND ( 'NONE', #769, .T. ) ;
#806 = CARTESIAN_POINT ( 'NONE',  ( -4.999999999999999112, 81.84999999999996589, -4.999999999999924505 ) ) ;
#807 = AXIS2_PLACEMENT_3D ( 'NONE', #1037, #693, #243 ) ;
#808 = ORIENTED_EDGE ( 'NONE', *, *, #288, .F. ) ;
#809 = CARTESIAN_POINT ( 'NONE',  ( -15.00000000000000178, 81.84999999999996589, -4.999999999999924505 ) ) ;
#810 = ORIENTED_EDGE ( 'NONE', *, *, #1096, .F. ) ;
#811 = ADVANCED_FACE ( 'NONE', ( #451 ), #567, .F. ) ;
#812 = DIRECTION ( 'NONE',  ( 0.0000000000000000000, 1.000000000000000000, 0.0000000000000000000 ) ) ;
#813 = EDGE_CURVE ( 'NONE', #1079, #1078, #263, .T. ) ;
#814 = ORIENTED_EDGE ( 'NONE', *, *, #100, .T. ) ;
#815 = CONICAL_SURFACE ( 'NONE', #103, 1.250000000000001110, 1.029744258676654090 ) ;
#816 =( NAMED_UNIT ( * ) SI_UNIT ( $, .STERADIAN. ) SOLID_ANGLE_UNIT ( ) );
#817 = MECHANICAL_DESIGN_GEOMETRIC_PRESENTATION_REPRESENTATION (  '', ( #999 ), #873 ) ;
#818 =( NAMED_UNIT ( * ) SI_UNIT ( $, .STERADIAN. ) SOLID_ANGLE_UNIT ( ) );
#819 = VECTOR ( 'NONE', #268, 1000.000000000000000 ) ;
#820 =( LENGTH_UNIT ( ) NAMED_UNIT ( * ) SI_UNIT ( .MILLI., .METRE. ) );
#821 = ORIENTED_EDGE ( 'NONE', *, *, #193, .T. ) ;
#822 = AXIS2_PLACEMENT_3D ( 'NONE', #1010, #304, #767 ) ;
#823 = VERTEX_POINT ( 'NONE', #172 ) ;
#824 = CARTESIAN_POINT ( 'NONE',  ( -15.00000000000000000, 101.8499999999999517, -4.999999999999924505 ) ) ;
#825 = LINE ( 'NONE', #449, #365 ) ;
#826 = CARTESIAN_POINT ( 'NONE',  ( -4.999999999999999112, 101.8499999999999517, -6.249999999999925393 ) ) ;
#827 = CARTESIAN_POINT ( 'NONE',  ( -4.999999999999999112, 101.8499999999999517, -4.999999999999924505 ) ) ;
#828 = MECHANICAL_DESIGN_GEOMETRIC_PRESENTATION_REPRESENTATION (  '', ( #594 ), #1057 ) ;
#829 = CARTESIAN_POINT ( 'NONE',  ( 15.00000000000000000, 101.8499999999999517, -6.249999999999919176 ) ) ;
#830 = VECTOR ( 'NONE', #776, 1000.000000000000000 ) ;
#831 = CARTESIAN_POINT ( 'NONE',  ( -4.999999999999999112, 81.84999999999996589, -3.749999999999923617 ) ) ;
#832 = EDGE_CURVE ( 'NONE', #1034, #237, #549, .T. ) ;
#833 = LINE ( 'NONE', #38, #312 ) ;
#834 = MANIFOLD_SOLID_BREP ( 'Spiegeln1', #800 ) ;
#835 = DIRECTION ( 'NONE',  ( 0.0000000000000000000, 0.0000000000000000000, -1.000000000000000000 ) ) ;
#836 = ORIENTED_EDGE ( 'NONE', *, *, #176, .F. ) ;
#837 = CARTESIAN_POINT ( 'NONE',  ( -15.00000000000000000, 101.8499999999999517, -4.999999999999924505 ) ) ;
#838 = ORIENTED_EDGE ( 'NONE', *, *, #137, .F. ) ;
#839 = ORIENTED_EDGE ( 'NONE', *, *, #55, .F. ) ;
#840 = PRESENTATION_LAYER_ASSIGNMENT (  '', '', ( #532 ) ) ;
#841 = DIRECTION ( 'NONE',  ( -1.000000000000000000, -0.0000000000000000000, -0.0000000000000000000 ) ) ;
#842 = VERTEX_POINT ( 'NONE', #370 ) ;
#843 = DIRECTION ( 'NONE',  ( 1.000000000000000000, -0.0000000000000000000, -0.0000000000000000000 ) ) ;
#844 = FACE_OUTER_BOUND ( 'NONE', #590, .T. ) ;
#845 = AXIS2_PLACEMENT_3D ( 'NONE', #985, #376, #551 ) ;
#846 = SURFACE_STYLE_USAGE ( .BOTH. , #762 ) ;
#847 = LINE ( 'NONE', #1121, #89 ) ;
#848 = FACE_OUTER_BOUND ( 'NONE', #1159, .T. ) ;
#849 =( NAMED_UNIT ( * ) PLANE_ANGLE_UNIT ( ) SI_UNIT ( $, .RADIAN. ) );
#850 = EDGE_CURVE ( 'NONE', #672, #403, #233, .T. ) ;
#851 = COLOUR_RGB ( '',0.7921568627450980005, 0.8196078431372548767, 0.9333333333333333481 ) ;
#852 = ORIENTED_EDGE ( 'NONE', *, *, #1061, .F. ) ;
#853 = EDGE_LOOP ( 'NONE', ( #514, #390, #758, #900 ) ) ;
#854 = PRESENTATION_LAYER_ASSIGNMENT (  '', '', ( #1036 ) ) ;
#855 = DIRECTION ( 'NONE',  ( 0.0000000000000000000, 0.0000000000000000000, -1.000000000000000000 ) ) ;
#856 = DIRECTION ( 'NONE',  ( 0.0000000000000000000, 0.0000000000000000000, -1.000000000000000000 ) ) ;
#857 = LINE ( 'NONE', #459, #349 ) ;
#858 = EDGE_CURVE ( 'NONE', #938, #993, #869, .T. ) ;
#859 = SURFACE_SIDE_STYLE ('',( #1005 ) ) ;
#860 = AXIS2_PLACEMENT_3D ( 'NONE', #1012, #924, #835 ) ;
#861 = COLOUR_RGB ( '',0.7921568627450980005, 0.8196078431372548767, 0.9333333333333333481 ) ;
#862 = PRESENTATION_STYLE_ASSIGNMENT (( #231 ) ) ;
#863 = FILL_AREA_STYLE_COLOUR ( '', #732 ) ;
#864 = ORIENTED_EDGE ( 'NONE', *, *, #153, .T. ) ;
#865 = ORIENTED_EDGE ( 'NONE', *, *, #55, .T. ) ;
#866 = EDGE_LOOP ( 'NONE', ( #808, #333 ) ) ;
#867 = EDGE_CURVE ( 'NONE', #607, #770, #141, .T. ) ;
#868 = DIRECTION ( 'NONE',  ( -0.0000000000000000000, 1.156482317317871478E-16, -1.000000000000000000 ) ) ;
#869 = CIRCLE ( 'NONE', #8, 1.250000000000001110 ) ;
#870 = CYLINDRICAL_SURFACE ( 'NONE', #125, 2.649999999999995026 ) ;
#871 = EDGE_CURVE ( 'NONE', #1064, #606, #857, .T. ) ;
#872 = CARTESIAN_POINT ( 'NONE',  ( -4.999999999999999112, 81.84999999999996589, -4.999999999999924505 ) ) ;
#873 =( GEOMETRIC_REPRESENTATION_CONTEXT ( 3 ) GLOBAL_UNCERTAINTY_ASSIGNED_CONTEXT ( ( #681 ) ) GLOBAL_UNIT_ASSIGNED_CONTEXT ( ( #321, #1112, #128 ) ) REPRESENTATION_CONTEXT ( 'NONE', 'WORKASPACE' ) );
#874 = CONICAL_SURFACE ( 'NONE', #1137, 1.250000000000001110, 1.029744258676654090 ) ;
#875 = DIRECTION ( 'NONE',  ( 0.0000000000000000000, 0.0000000000000000000, 1.000000000000000000 ) ) ;
#876 = ORIENTED_EDGE ( 'NONE', *, *, #115, .T. ) ;
#877 = ORIENTED_EDGE ( 'NONE', *, *, #692, .T. ) ;
#878 = DIRECTION ( 'NONE',  ( -0.0000000000000000000, 0.0000000000000000000, -1.000000000000000000 ) ) ;
#879 = ORIENTED_EDGE ( 'NONE', *, *, #393, .T. ) ;
#880 = PRESENTATION_LAYER_ASSIGNMENT (  '', '', ( #777 ) ) ;
#881 = DIRECTION ( 'NONE',  ( -0.0000000000000000000, 1.156482317317871478E-16, -1.000000000000000000 ) ) ;
#882 = DIRECTION ( 'NONE',  ( 0.0000000000000000000, 1.000000000000000000, 0.0000000000000000000 ) ) ;
#883 = CYLINDRICAL_SURFACE ( 'NONE', #545, 1.649999999999998579 ) ;
#884 = AXIS2_PLACEMENT_3D ( 'NONE', #677, #925, #1013 ) ;
#885 = FACE_OUTER_BOUND ( 'NONE', #192, .T. ) ;
#886 = DIRECTION ( 'NONE',  ( -0.5150380749100544886, 0.0000000000000000000, 0.8571673007021121116 ) ) ;
#887 = SURFACE_STYLE_FILL_AREA ( #336 ) ;
#888 = ORIENTED_EDGE ( 'NONE', *, *, #962, .T. ) ;
#889 = ORIENTED_EDGE ( 'NONE', *, *, #364, .T. ) ;
#890 = EDGE_CURVE ( 'NONE', #930, #674, #98, .T. ) ;
#891 = SURFACE_SIDE_STYLE ('',( #684 ) ) ;
#892 = ADVANCED_FACE ( 'NONE', ( #246 ), #217, .F. ) ;
#893 = CARTESIAN_POINT ( 'NONE',  ( -4.999999999999999112, 101.8499999999999517, -4.999999999999924505 ) ) ;
#894 = FACE_BOUND ( 'NONE', #146, .T. ) ;
#895 = SURFACE_STYLE_USAGE ( .BOTH. , #975 ) ;
#896 = DIRECTION ( 'NONE',  ( 0.0000000000000000000, 0.0000000000000000000, -1.000000000000000000 ) ) ;
#897 = PRODUCT ( '03_128_adapter gripper camera', '03_128_adapter gripper camera', '', ( #610 ) ) ;
#898 = LINE ( 'NONE', #7, #669 ) ;
#899 = AXIS2_PLACEMENT_3D ( 'NONE', #435, #1053, #155 ) ;
#900 = ORIENTED_EDGE ( 'NONE', *, *, #193, .F. ) ;
#901 = DIRECTION ( 'NONE',  ( 0.0000000000000000000, 1.000000000000000000, 0.0000000000000000000 ) ) ;
#902 = ORIENTED_EDGE ( 'NONE', *, *, #890, .T. ) ;
#903 = ORIENTED_EDGE ( 'NONE', *, *, #867, .T. ) ;
#904 = EDGE_CURVE ( 'NONE', #403, #672, #381, .T. ) ;
#905 = ORIENTED_EDGE ( 'NONE', *, *, #44, .F. ) ;
#906 = ADVANCED_FACE ( 'NONE', ( #307 ), #247, .F. ) ;
#907 = DIRECTION ( 'NONE',  ( -1.000000000000000000, -0.0000000000000000000, -0.0000000000000000000 ) ) ;
#908 = DIRECTION ( 'NONE',  ( -1.000000000000000000, -0.0000000000000000000, -0.0000000000000000000 ) ) ;
#909 = AXIS2_PLACEMENT_3D ( 'NONE', #731, #457, #812 ) ;
#910 = DIRECTION ( 'NONE',  ( 0.0000000000000000000, 0.0000000000000000000, 1.000000000000000000 ) ) ;
#911 = ADVANCED_FACE ( 'NONE', ( #568 ), #870, .F. ) ;
#912 = EDGE_CURVE ( 'NONE', #784, #823, #352, .T. ) ;
#913 = LINE ( 'NONE', #1028, #129 ) ;
#914 = CARTESIAN_POINT ( 'NONE',  ( 15.00000000000000000, -9.999999999999978684, 20.00000000000003197 ) ) ;
#915 = VECTOR ( 'NONE', #908, 1000.000000000000000 ) ;
#916 = COLOUR_RGB ( '',0.7921568627450980005, 0.8196078431372548767, 0.9333333333333333481 ) ;
#917 = SURFACE_SIDE_STYLE ('',( #724 ) ) ;
#918 = ORIENTED_EDGE ( 'NONE', *, *, #1039, .F. ) ;
#919 = AXIS2_PLACEMENT_3D ( 'NONE', #957, #1044, #413 ) ;
#920 = ORIENTED_EDGE ( 'NONE', *, *, #673, .F. ) ;
#921 = DIRECTION ( 'NONE',  ( 0.0000000000000000000, 1.000000000000000000, 0.0000000000000000000 ) ) ;
#922 = CARTESIAN_POINT ( 'NONE',  ( 15.00000000000000000, 109.9999999999999858, -9.999999999999969802 ) ) ;
#923 = AXIS2_PLACEMENT_3D ( 'NONE', #872, #150, #58 ) ;
#924 = DIRECTION ( 'NONE',  ( 1.000000000000000000, -0.0000000000000000000, -0.0000000000000000000 ) ) ;
#925 = DIRECTION ( 'NONE',  ( -1.000000000000000000, -0.0000000000000000000, -0.0000000000000000000 ) ) ;
#926 = EDGE_CURVE ( 'NONE', #635, #109, #825, .T. ) ;
#927 = LINE ( 'NONE', #538, #950 ) ;
#928 = ORIENTED_EDGE ( 'NONE', *, *, #974, .T. ) ;
#929 = CARTESIAN_POINT ( 'NONE',  ( 7.499999999989787725, 76.10000000000005116, 2.081668171172168513E-14 ) ) ;
#930 = VERTEX_POINT ( 'NONE', #101 ) ;
#931 = AXIS2_PLACEMENT_3D ( 'NONE', #944, #116, #308 ) ;
#932 = PLANE ( 'NONE',  #1123 ) ;
#933 = ORIENTED_EDGE ( 'NONE', *, *, #850, .T. ) ;
#934 = CARTESIAN_POINT ( 'NONE',  ( -4.248924226215547328, 101.8499999999999517, -4.999999999999924505 ) ) ;
#935 = CARTESIAN_POINT ( 'NONE',  ( 7.499999999989787725, 74.45000000000005969, 2.033966041777264451E-14 ) ) ;
#936 = DIRECTION ( 'NONE',  ( 1.000000000000000000, -0.0000000000000000000, -0.0000000000000000000 ) ) ;
#937 = FACE_OUTER_BOUND ( 'NONE', #1128, .T. ) ;
#938 = VERTEX_POINT ( 'NONE', #748 ) ;
#939 = CARTESIAN_POINT ( 'NONE',  ( 15.00000000000000178, 81.84999999999996589, -4.999999999999924505 ) ) ;
#940 = VERTEX_POINT ( 'NONE', #105 ) ;
#941 = AXIS2_PLACEMENT_3D ( 'NONE', #278, #102, #99 ) ;
#942 = DIRECTION ( 'NONE',  ( 0.0000000000000000000, 1.000000000000000000, 2.891038145145686315E-16 ) ) ;
#943 = PRESENTATION_LAYER_ASSIGNMENT (  '', '', ( #999 ) ) ;
#944 = CARTESIAN_POINT ( 'NONE',  ( 15.00000000000000178, 81.84999999999996589, -4.999999999999924505 ) ) ;
#945 = EDGE_CURVE ( 'NONE', #965, #466, #593, .T. ) ;
#946 = DIRECTION ( 'NONE',  ( 0.0000000000000000000, 1.000000000000000000, 0.0000000000000000000 ) ) ;
#947 = PRESENTATION_STYLE_ASSIGNMENT (( #144 ) ) ;
#948 = CARTESIAN_POINT ( 'NONE',  ( 4.248924226215547328, 101.8499999999999517, -4.999999999999924505 ) ) ;
#949 = COLOUR_RGB ( '',0.7921568627450980005, 0.8196078431372548767, 0.9333333333333333481 ) ;
#950 = VECTOR ( 'NONE', #1150, 1000.000000000000000 ) ;
#951 = DIRECTION ( 'NONE',  ( 0.0000000000000000000, 2.891038145145697655E-16, -1.000000000000000000 ) ) ;
#952 = EDGE_LOOP ( 'NONE', ( #273, #1050 ) ) ;
#953 = VERTEX_POINT ( 'NONE', #922 ) ;
#954 = SURFACE_SIDE_STYLE ('',( #887 ) ) ;
#955 = VERTEX_POINT ( 'NONE', #386 ) ;
#956 = MECHANICAL_DESIGN_GEOMETRIC_PRESENTATION_REPRESENTATION (  '', ( #532 ), #1052 ) ;
#957 = CARTESIAN_POINT ( 'NONE',  ( 4.999999999999999112, 81.84999999999996589, -4.999999999999924505 ) ) ;
#958 = EDGE_CURVE ( 'NONE', #993, #955, #565, .T. ) ;
#959 = AXIS2_PLACEMENT_3D ( 'NONE', #680, #408, #761 ) ;
#960 = CIRCLE ( 'NONE', #822, 1.250000000000001110 ) ;
#961 = SURFACE_STYLE_USAGE ( .BOTH. , #621 ) ;
#962 = EDGE_CURVE ( 'NONE', #953, #1023, #984, .T. ) ;
#963 = ORIENTED_EDGE ( 'NONE', *, *, #201, .T. ) ;
#964 =( NAMED_UNIT ( * ) SI_UNIT ( $, .STERADIAN. ) SOLID_ANGLE_UNIT ( ) );
#965 = VERTEX_POINT ( 'NONE', #395 ) ;
#966 = CARTESIAN_POINT ( 'NONE',  ( 8.929999999999997939, -5.000000000000013323, 20.00000000000003197 ) ) ;
#967 = EDGE_LOOP ( 'NONE', ( #287, #576, #711, #687, #963, #471 ) ) ;
#968 = EDGE_LOOP ( 'NONE', ( #524, #317, #228, #190 ) ) ;
#969 = PRESENTATION_LAYER_ASSIGNMENT (  '', '', ( #214 ) ) ;
#970 = FILL_AREA_STYLE ('',( #625 ) ) ;
#971 = DIRECTION ( 'NONE',  ( 0.0000000000000000000, 0.0000000000000000000, -1.000000000000000000 ) ) ;
#972 = CARTESIAN_POINT ( 'NONE',  ( 4.999999999999999112, 101.8499999999999517, -6.249999999999925393 ) ) ;
#973 =( NAMED_UNIT ( * ) SI_UNIT ( $, .STERADIAN. ) SOLID_ANGLE_UNIT ( ) );
#974 = EDGE_CURVE ( 'NONE', #955, #510, #5, .T. ) ;
#975 = SURFACE_SIDE_STYLE ('',( #59 ) ) ;
#976 = ORIENTED_EDGE ( 'NONE', *, *, #912, .T. ) ;
#977 = DIRECTION ( 'NONE',  ( 1.000000000000000000, -0.0000000000000000000, -0.0000000000000000000 ) ) ;
#978 = VERTEX_POINT ( 'NONE', #573 ) ;
#979 = EDGE_CURVE ( 'NONE', #1008, #606, #517, .T. ) ;
#980 = ORIENTED_EDGE ( 'NONE', *, *, #411, .T. ) ;
#981 =( NAMED_UNIT ( * ) PLANE_ANGLE_UNIT ( ) SI_UNIT ( $, .RADIAN. ) );
#982 = CARTESIAN_POINT ( 'NONE',  ( 15.00000000000000178, 101.8499999999999517, -4.999999999999924505 ) ) ;
#983 = PRESENTATION_STYLE_ASSIGNMENT (( #582 ) ) ;
#984 = LINE ( 'NONE', #474, #490 ) ;
#985 = CARTESIAN_POINT ( 'NONE',  ( -3.070000000000001616, -5.000000000000009770, -9.999999999999980460 ) ) ;
#986 = ADVANCED_FACE ( 'NONE', ( #1027 ), #1095, .F. ) ;
#987 = FACE_BOUND ( 'NONE', #952, .T. ) ;
#988 =( NAMED_UNIT ( * ) SI_UNIT ( $, .STERADIAN. ) SOLID_ANGLE_UNIT ( ) );
#989 = FACE_BOUND ( 'NONE', #783, .T. ) ;
#990 = AXIS2_PLACEMENT_3D ( 'NONE', #1125, #782, #323 ) ;
#991 = EDGE_LOOP ( 'NONE', ( #1102, #303, #918, #1062 ) ) ;
#992 = DIRECTION ( 'NONE',  ( 0.0000000000000000000, 0.0000000000000000000, 1.000000000000000000 ) ) ;
#993 = VERTEX_POINT ( 'NONE', #826 ) ;
#994 = CARTESIAN_POINT ( 'NONE',  ( 15.00000000000000000, 0.0000000000000000000, 0.0000000000000000000 ) ) ;
#995 = ORIENTED_EDGE ( 'NONE', *, *, #890, .F. ) ;
#996 = CARTESIAN_POINT ( 'NONE',  ( -7.500000000010215828, 74.45000000000005969, -9.999999999999971578 ) ) ;
#997 = VECTOR ( 'NONE', #465, 1000.000000000000000 ) ;
#998 = STYLED_ITEM ( 'NONE', ( #236 ), #448 ) ;
#999 = STYLED_ITEM ( 'NONE', ( #57 ), #1152 ) ;
#1000 = DIRECTION ( 'NONE',  ( -1.000000000000000000, -0.0000000000000000000, -0.0000000000000000000 ) ) ;
#1001 = SURFACE_STYLE_USAGE ( .BOTH. , #917 ) ;
#1002 = EDGE_CURVE ( 'NONE', #770, #635, #760, .T. ) ;
#1003 = CIRCLE ( 'NONE', #919, 1.250000000000001110 ) ;
#1004 = DIRECTION ( 'NONE',  ( -1.000000000000000000, -0.0000000000000000000, -0.0000000000000000000 ) ) ;
#1005 = SURFACE_STYLE_FILL_AREA ( #485 ) ;
#1006 = CONICAL_SURFACE ( 'NONE', #261, 1.250000000000001110, 1.029744258676654090 ) ;
#1007 = ORIENTED_EDGE ( 'NONE', *, *, #1016, .F. ) ;
#1008 = VERTEX_POINT ( 'NONE', #196 ) ;
#1009 = EDGE_LOOP ( 'NONE', ( #229, #257, #174 ) ) ;
#1010 = CARTESIAN_POINT ( 'NONE',  ( 4.999999999999999112, 101.8499999999999517, -4.999999999999924505 ) ) ;
#1011 = CIRCLE ( 'NONE', #160, 1.649999999999998579 ) ;
#1012 = CARTESIAN_POINT ( 'NONE',  ( 4.999999999999999112, 101.8499999999999517, -4.999999999999924505 ) ) ;
#1013 = DIRECTION ( 'NONE',  ( 0.0000000000000000000, 0.0000000000000000000, 1.000000000000000000 ) ) ;
#1014 = AXIS2_PLACEMENT_3D ( 'NONE', #19, #483, #31 ) ;
#1015 = FILL_AREA_STYLE_COLOUR ( '', #949 ) ;
#1016 = EDGE_CURVE ( 'NONE', #29, #588, #322, .T. ) ;
#1017 = LINE ( 'NONE', #291, #280 ) ;
#1018 = FACE_OUTER_BOUND ( 'NONE', #401, .T. ) ;
#1019 = AXIS2_PLACEMENT_3D ( 'NONE', #142, #791, #878 ) ;
#1020 = DIRECTION ( 'NONE',  ( 0.0000000000000000000, 1.000000000000000000, 2.891038145145686315E-16 ) ) ;
#1021 = ORIENTED_EDGE ( 'NONE', *, *, #353, .F. ) ;
#1022 =( NAMED_UNIT ( * ) SI_UNIT ( $, .STERADIAN. ) SOLID_ANGLE_UNIT ( ) );
#1023 = VERTEX_POINT ( 'NONE', #1098 ) ;
#1024 = EDGE_CURVE ( 'NONE', #1079, #784, #434, .T. ) ;
#1025 = EDGE_LOOP ( 'NONE', ( #839, #1091, #138, #1160 ) ) ;
#1026 = DIRECTION ( 'NONE',  ( -0.0000000000000000000, 0.0000000000000000000, -1.000000000000000000 ) ) ;
#1027 = FACE_OUTER_BOUND ( 'NONE', #991, .T. ) ;
#1028 = CARTESIAN_POINT ( 'NONE',  ( -4.999999999999999112, 81.84999999999996589, -6.249999999999925393 ) ) ;
#1029 = AXIS2_PLACEMENT_3D ( 'NONE', #809, #1080, #1074 ) ;
#1030 = UNCERTAINTY_MEASURE_WITH_UNIT (LENGTH_MEASURE( 1.000000000000000082E-05 ), #354, 'distance_accuracy_value', 'NONE');
#1031 = LINE ( 'NONE', #715, #266 ) ;
#1032 = FACE_BOUND ( 'NONE', #659, .T. ) ;
#1033 = CARTESIAN_POINT ( 'NONE',  ( -15.00000000000000000, 0.0000000000000000000, 0.0000000000000000000 ) ) ;
#1034 = VERTEX_POINT ( 'NONE', #914 ) ;
#1035 = ORIENTED_EDGE ( 'NONE', *, *, #306, .T. ) ;
#1036 = STYLED_ITEM ( 'NONE', ( #375 ), #169 ) ;
#1037 = CARTESIAN_POINT ( 'NONE',  ( -3.070000000000001616, -5.000000000000013323, 20.00000000000003197 ) ) ;
#1038 = DIRECTION ( 'NONE',  ( 1.000000000000000000, 0.0000000000000000000, 0.0000000000000000000 ) ) ;
#1039 = EDGE_CURVE ( 'NONE', #940, #237, #182, .T. ) ;
#1040 = CARTESIAN_POINT ( 'NONE',  ( -4.999999999999999112, 81.84999999999996589, -6.249999999999925393 ) ) ;
#1041 = COLOUR_RGB ( '',0.7921568627450980005, 0.8196078431372548767, 0.9333333333333333481 ) ;
#1042 = VECTOR ( 'NONE', #1000, 1000.000000000000000 ) ;
#1043 = CARTESIAN_POINT ( 'NONE',  ( 7.499999999989787725, 76.10000000000005116, -9.999999999999971578 ) ) ;
#1044 = DIRECTION ( 'NONE',  ( 1.000000000000000000, -0.0000000000000000000, -0.0000000000000000000 ) ) ;
#1045 = PRESENTATION_LAYER_ASSIGNMENT (  '', '', ( #556 ) ) ;
#1046 = CARTESIAN_POINT ( 'NONE',  ( -4.999999999999999112, 101.8499999999999517, -4.999999999999924505 ) ) ;
#1047 = FACE_BOUND ( 'NONE', #562, .T. ) ;
#1048 =( NAMED_UNIT ( * ) SI_UNIT ( $, .STERADIAN. ) SOLID_ANGLE_UNIT ( ) );
#1049 = ORIENTED_EDGE ( 'NONE', *, *, #596, .F. ) ;
#1050 = ORIENTED_EDGE ( 'NONE', *, *, #750, .F. ) ;
#1051 = EDGE_LOOP ( 'NONE', ( #270, #96, #889 ) ) ;
#1052 =( GEOMETRIC_REPRESENTATION_CONTEXT ( 3 ) GLOBAL_UNCERTAINTY_ASSIGNED_CONTEXT ( ( #251 ) ) GLOBAL_UNIT_ASSIGNED_CONTEXT ( ( #63, #441, #1048 ) ) REPRESENTATION_CONTEXT ( 'NONE', 'WORKASPACE' ) );
#1053 = DIRECTION ( 'NONE',  ( -1.000000000000000000, -0.0000000000000000000, -0.0000000000000000000 ) ) ;
#1054 = FILL_AREA_STYLE ('',( #1135 ) ) ;
#1055 = DIRECTION ( 'NONE',  ( 0.0000000000000000000, 1.000000000000000000, 0.0000000000000000000 ) ) ;
#1056 =( NAMED_UNIT ( * ) PLANE_ANGLE_UNIT ( ) SI_UNIT ( $, .RADIAN. ) );
#1057 =( GEOMETRIC_REPRESENTATION_CONTEXT ( 3 ) GLOBAL_UNCERTAINTY_ASSIGNED_CONTEXT ( ( #417 ) ) GLOBAL_UNIT_ASSIGNED_CONTEXT ( ( #84, #358, #973 ) ) REPRESENTATION_CONTEXT ( 'NONE', 'WORKASPACE' ) );
#1058 = LINE ( 'NONE', #60, #476 ) ;
#1059 = CARTESIAN_POINT ( 'NONE',  ( 8.929999999999997939, -7.650000000000007461, -9.999999999999980460 ) ) ;
#1060 = VECTOR ( 'NONE', #801, 1000.000000000000000 ) ;
#1061 = EDGE_CURVE ( 'NONE', #574, #361, #1134, .T. ) ;
#1062 = ORIENTED_EDGE ( 'NONE', *, *, #638, .T. ) ;
#1063 = DIRECTION ( 'NONE',  ( -0.0000000000000000000, 1.156482317317871478E-16, -1.000000000000000000 ) ) ;
#1064 = VERTEX_POINT ( 'NONE', #297 ) ;
#1065 = DIRECTION ( 'NONE',  ( -0.0000000000000000000, 1.156482317317871478E-16, -1.000000000000000000 ) ) ;
#1066 = ORIENTED_EDGE ( 'NONE', *, *, #550, .F. ) ;
#1067 =( GEOMETRIC_REPRESENTATION_CONTEXT ( 3 ) GLOBAL_UNCERTAINTY_ASSIGNED_CONTEXT ( ( #195 ) ) GLOBAL_UNIT_ASSIGNED_CONTEXT ( ( #792, #515, #605 ) ) REPRESENTATION_CONTEXT ( 'NONE', 'WORKASPACE' ) );
#1068 = DIRECTION ( 'NONE',  ( 0.0000000000000000000, -1.574545884618025235E-16, 1.000000000000000000 ) ) ;
#1069 = FACE_OUTER_BOUND ( 'NONE', #528, .T. ) ;
#1070 = SURFACE_STYLE_USAGE ( .BOTH. , #553 ) ;
#1071 = CIRCLE ( 'NONE', #339, 2.649999999999996803 ) ;
#1072 = AXIS2_PLACEMENT_3D ( 'NONE', #678, #406, #1118 ) ;
#1073 = CYLINDRICAL_SURFACE ( 'NONE', #603, 1.249999999999994227 ) ;
#1074 = DIRECTION ( 'NONE',  ( 0.0000000000000000000, 0.0000000000000000000, 1.000000000000000000 ) ) ;
#1075 = LINE ( 'NONE', #743, #695 ) ;
#1076 = FACE_OUTER_BOUND ( 'NONE', #239, .T. ) ;
#1077 = CARTESIAN_POINT ( 'NONE',  ( 4.999999999999999112, 81.84999999999996589, -6.249999999999925393 ) ) ;
#1078 = VERTEX_POINT ( 'NONE', #302 ) ;
#1079 = VERTEX_POINT ( 'NONE', #470 ) ;
#1080 = DIRECTION ( 'NONE',  ( -1.000000000000000000, -0.0000000000000000000, -0.0000000000000000000 ) ) ;
#1081 = ADVANCED_FACE ( 'NONE', ( #787 ), #815, .F. ) ;
#1082 = MECHANICAL_DESIGN_GEOMETRIC_PRESENTATION_REPRESENTATION (  '', ( #676 ), #689 ) ;
#1083 = AXIS2_PLACEMENT_3D ( 'NONE', #1108, #404, #498 ) ;
#1084 = EDGE_CURVE ( 'NONE', #52, #784, #218, .T. ) ;
#1085 = LINE ( 'NONE', #804, #104 ) ;
#1086 = FACE_OUTER_BOUND ( 'NONE', #700, .T. ) ;
#1087 = CIRCLE ( 'NONE', #95, 1.249999999999987121 ) ;
#1088 = EDGE_LOOP ( 'NONE', ( #852, #920, #879, #1145 ) ) ;
#1089 = ORIENTED_EDGE ( 'NONE', *, *, #904, .F. ) ;
#1090 = DIRECTION ( 'NONE',  ( 0.0000000000000000000, -1.574545884618025235E-16, 1.000000000000000000 ) ) ;
#1091 = ORIENTED_EDGE ( 'NONE', *, *, #137, .T. ) ;
#1092 = DIRECTION ( 'NONE',  ( 0.0000000000000000000, 0.0000000000000000000, -1.000000000000000000 ) ) ;
#1093 = LINE ( 'NONE', #399, #772 ) ;
#1094 = EDGE_CURVE ( 'NONE', #361, #389, #420, .T. ) ;
#1095 = PLANE ( 'NONE',  #88 ) ;
#1096 = EDGE_CURVE ( 'NONE', #588, #403, #1093, .T. ) ;
#1097 = FACE_OUTER_BOUND ( 'NONE', #541, .T. ) ;
#1098 = CARTESIAN_POINT ( 'NONE',  ( -15.00000000000000000, 109.9999999999999858, -9.999999999999969802 ) ) ;
#1099 = FACE_OUTER_BOUND ( 'NONE', #429, .T. ) ;
#1100 = CARTESIAN_POINT ( 'NONE',  ( 15.00000000000000178, 81.84999999999996589, -6.249999999999912070 ) ) ;
#1101 = PRESENTATION_STYLE_ASSIGNMENT (( #623 ) ) ;
#1102 = ORIENTED_EDGE ( 'NONE', *, *, #926, .T. ) ;
#1103 = DIRECTION ( 'NONE',  ( 0.0000000000000000000, -0.0000000000000000000, -1.000000000000000000 ) ) ;
#1104 = ORIENTED_EDGE ( 'NONE', *, *, #871, .F. ) ;
#1105 = DIRECTION ( 'NONE',  ( -1.000000000000000000, -0.0000000000000000000, -0.0000000000000000000 ) ) ;
#1106 = SURFACE_STYLE_FILL_AREA ( #1155 ) ;
#1107 = MECHANICAL_DESIGN_GEOMETRIC_PRESENTATION_REPRESENTATION (  '', ( #214 ), #745 ) ;
#1108 = CARTESIAN_POINT ( 'NONE',  ( 7.499999999989787725, 76.10000000000005116, -9.999999999999971578 ) ) ;
#1109 = CARTESIAN_POINT ( 'NONE',  ( -15.00000000000000178, 101.8499999999999517, -3.749999999999937383 ) ) ;
#1110 = VECTOR ( 'NONE', #227, 1000.000000000000000 ) ;
#1111 = PRESENTATION_STYLE_ASSIGNMENT (( #1001 ) ) ;
#1112 =( NAMED_UNIT ( * ) PLANE_ANGLE_UNIT ( ) SI_UNIT ( $, .RADIAN. ) );
#1113 = FACE_OUTER_BOUND ( 'NONE', #136, .T. ) ;
#1114 = AXIS2_PLACEMENT_3D ( 'NONE', #1158, #87, #275 ) ;
#1115 =( NAMED_UNIT ( * ) PLANE_ANGLE_UNIT ( ) SI_UNIT ( $, .RADIAN. ) );
#1116 = ORIENTED_EDGE ( 'NONE', *, *, #76, .F. ) ;
#1117 = ORIENTED_EDGE ( 'NONE', *, *, #447, .T. ) ;
#1118 = DIRECTION ( 'NONE',  ( 0.0000000000000000000, 1.000000000000000000, 0.0000000000000000000 ) ) ;
#1119 = EDGE_CURVE ( 'NONE', #1143, #94, #1011, .T. ) ;
#1120 = ORIENTED_EDGE ( 'NONE', *, *, #771, .F. ) ;
#1121 = CARTESIAN_POINT ( 'NONE',  ( 15.00000000000000000, 109.9999999999999858, -9.999999999999969802 ) ) ;
#1122 = DIRECTION ( 'NONE',  ( 0.0000000000000000000, 0.0000000000000000000, 1.000000000000000000 ) ) ;
#1123 = AXIS2_PLACEMENT_3D ( 'NONE', #324, #488, #1103 ) ;
#1124 = APPLICATION_PROTOCOL_DEFINITION ( 'draft international standard', 'automotive_design', 1998, #1136 ) ;
#1125 = CARTESIAN_POINT ( 'NONE',  ( 15.00000000000000000, -10.00000000000000888, -9.999999999999982236 ) ) ;
#1126 = DIRECTION ( 'NONE',  ( 0.0000000000000000000, 1.000000000000000000, 0.0000000000000000000 ) ) ;
#1127 = CIRCLE ( 'NONE', #633, 2.649999999999992806 ) ;
#1128 = EDGE_LOOP ( 'NONE', ( #83, #481, #210, #754 ) ) ;
#1129 =( GEOMETRIC_REPRESENTATION_CONTEXT ( 3 ) GLOBAL_UNCERTAINTY_ASSIGNED_CONTEXT ( ( #121 ) ) GLOBAL_UNIT_ASSIGNED_CONTEXT ( ( #690, #1115, #337 ) ) REPRESENTATION_CONTEXT ( 'NONE', 'WORKASPACE' ) );
#1130 = PLANE ( 'NONE',  #683 ) ;
#1131 = ORIENTED_EDGE ( 'NONE', *, *, #858, .T. ) ;
#1132 = PLANE ( 'NONE',  #1019 ) ;
#1133 = DIRECTION ( 'NONE',  ( -0.0000000000000000000, 1.156482317317871478E-16, -1.000000000000000000 ) ) ;
#1134 = LINE ( 'NONE', #206, #997 ) ;
#1135 = FILL_AREA_STYLE_COLOUR ( '', #851 ) ;
#1136 = APPLICATION_CONTEXT ( 'automotive_design' ) ;
#1137 = AXIS2_PLACEMENT_3D ( 'NONE', #806, #363, #450 ) ;
#1138 = DIRECTION ( 'NONE',  ( 0.0000000000000000000, 1.000000000000000000, 0.0000000000000000000 ) ) ;
#1139 = DIRECTION ( 'NONE',  ( 1.000000000000000000, -0.0000000000000000000, -0.0000000000000000000 ) ) ;
#1140 = EDGE_CURVE ( 'NONE', #574, #181, #139, .T. ) ;
#1141 = LINE ( 'NONE', #831, #187 ) ;
#1142 = ADVANCED_FACE ( 'NONE', ( #305 ), #335, .F. ) ;
#1143 = VERTEX_POINT ( 'NONE', #935 ) ;
#1144 = ORIENTED_EDGE ( 'NONE', *, *, #353, .T. ) ;
#1145 = ORIENTED_EDGE ( 'NONE', *, *, #1153, .T. ) ;
#1146 = AXIS2_PLACEMENT_3D ( 'NONE', #824, #907, #910 ) ;
#1147 = DIRECTION ( 'NONE',  ( 1.000000000000000000, -0.0000000000000000000, -0.0000000000000000000 ) ) ;
#1148 = ADVANCED_FACE ( 'NONE', ( #844 ), #166, .F. ) ;
#1149 = DIRECTION ( 'NONE',  ( -0.0000000000000000000, 1.156482317317871478E-16, -1.000000000000000000 ) ) ;
#1150 = DIRECTION ( 'NONE',  ( 0.0000000000000000000, -1.000000000000000000, -2.891038145145697655E-16 ) ) ;
#1151 = AXIS2_PLACEMENT_3D ( 'NONE', #438, #248, #882 ) ;
#1152 = ADVANCED_FACE ( 'NONE', ( #500 ), #33, .F. ) ;
#1153 = EDGE_CURVE ( 'NONE', #389, #361, #487, .T. ) ;
#1154 = VERTEX_POINT ( 'NONE', #759 ) ;
#1155 = FILL_AREA_STYLE ('',( #642 ) ) ;
#1156 = ORIENTED_EDGE ( 'NONE', *, *, #813, .T. ) ;
#1157 = ADVANCED_FACE ( 'NONE', ( #1069 ), #932, .F. ) ;
#1158 = CARTESIAN_POINT ( 'NONE',  ( 15.00000000000000000, 109.9999999999999858, 3.180141959660267667E-14 ) ) ;
#1159 = EDGE_LOOP ( 'NONE', ( #781, #579, #688, #27 ) ) ;
#1160 = ORIENTED_EDGE ( 'NONE', *, *, #306, .F. ) ;
ENDSEC;
END-ISO-10303-21;
