ISO-10303-21;
HEADER;
FILE_DESCRIPTION (( 'STEP AP214' ),
    '1' );
FILE_NAME ('Distanzhülse Klemmhebel 1.1.STEP',
    '2021-03-15T15:21:00',
    ( '' ),
    ( '' ),
    'SwSTEP 2.0',
    'SolidWorks 2018',
    '' );
FILE_SCHEMA (( 'AUTOMOTIVE_DESIGN' ));
ENDSEC;

DATA;
#1 = CARTESIAN_POINT ( 'NONE',  ( 5.500000000000000000, 0.000000000000000000, 0.000000000000000000 ) ) ;
#2 = VECTOR ( 'NONE', #304, 1000.000000000000000 ) ;
#3 = DIRECTION ( 'NONE',  ( 1.000000000000000000, 0.000000000000000000, 0.000000000000000000 ) ) ;
#4 = ORIENTED_EDGE ( 'NONE', *, *, #122, .F. ) ;
#5 = VERTEX_POINT ( 'NONE', #298 ) ;
#6 = CARTESIAN_POINT ( 'NONE',  ( 0.000000000000000000, 0.000000000000000000, 0.000000000000000000 ) ) ;
#7 = DIRECTION ( 'NONE',  ( 1.000000000000000000, 0.000000000000000000, 0.000000000000000000 ) ) ;
#8 = COLOUR_RGB ( '',0.5294117647058823595, 0.5490196078431373028, 0.5490196078431373028 ) ;
#9 = ORIENTED_EDGE ( 'NONE', *, *, #279, .F. ) ;
#10 = ORIENTED_EDGE ( 'NONE', *, *, #122, .T. ) ;
#11 = CIRCLE ( 'NONE', #65, 5.500000000000000000 ) ;
#12 = LINE ( 'NONE', #138, #20 ) ;
#13 = PRODUCT_DEFINITION_SHAPE ( 'NONE', 'NONE',  #305 ) ;
#14 = LINE ( 'NONE', #157, #358 ) ;
#15 = CIRCLE ( 'NONE', #357, 6.000000000000008882 ) ;
#16 = DIRECTION ( 'NONE',  ( 1.000000000000000000, 0.000000000000000000, 0.000000000000000000 ) ) ;
#17 = LINE ( 'NONE', #94, #333 ) ;
#18 = PRODUCT_DEFINITION_FORMATION_WITH_SPECIFIED_SOURCE ( 'ANY', '', #397, .NOT_KNOWN. ) ;
#19 = PRESENTATION_LAYER_ASSIGNMENT (  '', '', ( #22 ) ) ;
#20 = VECTOR ( 'NONE', #391, 1000.000000000000000 ) ;
#21 = PLANE ( 'NONE',  #70 ) ;
#22 = STYLED_ITEM ( 'NONE', ( #215 ), #265 ) ;
#23 = ORIENTED_EDGE ( 'NONE', *, *, #37, .T. ) ;
#24 = ORIENTED_EDGE ( 'NONE', *, *, #56, .F. ) ;
#25 = EDGE_LOOP ( 'NONE', ( #76, #364, #213, #9 ) ) ;
#26 = DIRECTION ( 'NONE',  ( 1.000000000000000000, 0.000000000000000000, 0.000000000000000000 ) ) ;
#27 = ADVANCED_FACE ( 'NONE', ( #43 ), #362, .T. ) ;
#28 = DIRECTION ( 'NONE',  ( -1.000000000000000000, 0.000000000000000000, 0.000000000000000000 ) ) ;
#29 = ORIENTED_EDGE ( 'NONE', *, *, #386, .F. ) ;
#30 = CARTESIAN_POINT ( 'NONE',  ( 0.000000000000000000, 0.000000000000000000, -0.5000000000000038858 ) ) ;
#31 = ADVANCED_FACE ( 'NONE', ( #196, #226 ), #21, .F. ) ;
#32 = CARTESIAN_POINT ( 'NONE',  ( 0.000000000000000000, 0.000000000000000000, -8.000000000000000000 ) ) ;
#33 =( NAMED_UNIT ( * ) SI_UNIT ( $, .STERADIAN. ) SOLID_ANGLE_UNIT ( ) );
#34 = ORIENTED_EDGE ( 'NONE', *, *, #110, .T. ) ;
#35 =( LENGTH_UNIT ( ) NAMED_UNIT ( * ) SI_UNIT ( .MILLI., .METRE. ) );
#36 =( NAMED_UNIT ( * ) PLANE_ANGLE_UNIT ( ) SI_UNIT ( $, .RADIAN. ) );
#37 = EDGE_CURVE ( 'NONE', #172, #39, #144, .T. ) ;
#38 = CARTESIAN_POINT ( 'NONE',  ( 0.000000000000000000, 0.000000000000000000, -7.499999999999989342 ) ) ;
#39 = VERTEX_POINT ( 'NONE', #79 ) ;
#40 = DIRECTION ( 'NONE',  ( -0.000000000000000000, -0.000000000000000000, 1.000000000000000000 ) ) ;
#41 = AXIS2_PLACEMENT_3D ( 'NONE', #93, #312, #283 ) ;
#42 = CARTESIAN_POINT ( 'NONE',  ( 14.49999999999999112, 1.775737858763660832E-15, 0.000000000000000000 ) ) ;
#43 = FACE_OUTER_BOUND ( 'NONE', #266, .T. ) ;
#44 = DIRECTION ( 'NONE',  ( 1.000000000000000000, 0.000000000000000000, 0.000000000000000000 ) ) ;
#45 = PRODUCT_DEFINITION_CONTEXT ( 'detailed design', #329, 'design' ) ;
#46 = VERTEX_POINT ( 'NONE', #367 ) ;
#47 = ORIENTED_EDGE ( 'NONE', *, *, #263, .T. ) ;
#48 = EDGE_LOOP ( 'NONE', ( #24, #311, #369, #356 ) ) ;
#49 = ADVANCED_BREP_SHAPE_REPRESENTATION ( 'Distanzh³lse Klemmhebel 1.1', ( #265, #366 ), #323 ) ;
#50 = CARTESIAN_POINT ( 'NONE',  ( 0.000000000000000000, 0.000000000000000000, -7.499999999999991118 ) ) ;
#51 = ORIENTED_EDGE ( 'NONE', *, *, #242, .F. ) ;
#52 = AXIS2_PLACEMENT_3D ( 'NONE', #267, #81, #16 ) ;
#53 = CARTESIAN_POINT ( 'NONE',  ( 0.000000000000000000, 0.000000000000000000, 0.000000000000000000 ) ) ;
#54 = CONICAL_SURFACE ( 'NONE', #134, 6.000000000000008882, 0.7853981633974466137 ) ;
#55 = AXIS2_PLACEMENT_3D ( 'NONE', #257, #225, #389 ) ;
#56 = EDGE_CURVE ( 'NONE', #72, #114, #404, .T. ) ;
#57 = ORIENTED_EDGE ( 'NONE', *, *, #315, .F. ) ;
#58 = CARTESIAN_POINT ( 'NONE',  ( 0.000000000000000000, 0.000000000000000000, 0.000000000000000000 ) ) ;
#59 = DIRECTION ( 'NONE',  ( -0.000000000000000000, -0.000000000000000000, 1.000000000000000000 ) ) ;
#60 = ORIENTED_EDGE ( 'NONE', *, *, #242, .T. ) ;
#61 = ORIENTED_EDGE ( 'NONE', *, *, #375, .F. ) ;
#62 = DIRECTION ( 'NONE',  ( -0.000000000000000000, -0.000000000000000000, 1.000000000000000000 ) ) ;
#63 = FACE_OUTER_BOUND ( 'NONE', #25, .T. ) ;
#64 = FILL_AREA_STYLE_COLOUR ( '', #288 ) ;
#65 = AXIS2_PLACEMENT_3D ( 'NONE', #69, #287, #289 ) ;
#66 = VERTEX_POINT ( 'NONE', #238 ) ;
#67 = DIRECTION ( 'NONE',  ( -0.000000000000000000, -0.000000000000000000, 1.000000000000000000 ) ) ;
#68 = DIRECTION ( 'NONE',  ( -0.000000000000000000, -0.000000000000000000, 1.000000000000000000 ) ) ;
#69 = CARTESIAN_POINT ( 'NONE',  ( 0.000000000000000000, 0.000000000000000000, -0.5000000000000038858 ) ) ;
#70 = AXIS2_PLACEMENT_3D ( 'NONE', #330, #235, #145 ) ;
#71 = ORIENTED_EDGE ( 'NONE', *, *, #301, .F. ) ;
#72 = VERTEX_POINT ( 'NONE', #302 ) ;
#73 = CARTESIAN_POINT ( 'NONE',  ( 0.000000000000000000, 0.000000000000000000, -8.000000000000000000 ) ) ;
#74 = SURFACE_STYLE_USAGE ( .BOTH. , #141 ) ;
#75 = FACE_OUTER_BOUND ( 'NONE', #350, .T. ) ;
#76 = ORIENTED_EDGE ( 'NONE', *, *, #339, .F. ) ;
#77 = FACE_OUTER_BOUND ( 'NONE', #219, .T. ) ;
#78 = CIRCLE ( 'NONE', #240, 5.500000000000000000 ) ;
#79 = CARTESIAN_POINT ( 'NONE',  ( -15.00000000000000000, 1.836970198721029589E-15, -7.499999999999991118 ) ) ;
#80 = ORIENTED_EDGE ( 'NONE', *, *, #56, .T. ) ;
#81 = DIRECTION ( 'NONE',  ( -0.000000000000000000, -0.000000000000000000, 1.000000000000000000 ) ) ;
#82 = EDGE_CURVE ( 'NONE', #173, #332, #15, .T. ) ;
#83 = DIRECTION ( 'NONE',  ( 0.7071067811865500152, 0.000000000000000000, 0.7071067811865451302 ) ) ;
#84 = ORIENTED_EDGE ( 'NONE', *, *, #355, .T. ) ;
#85 = CARTESIAN_POINT ( 'NONE',  ( 14.49999999999998757, 0.000000000000000000, -8.000000000000000000 ) ) ;
#86 = DIRECTION ( 'NONE',  ( 1.000000000000000000, 0.000000000000000000, 0.000000000000000000 ) ) ;
#87 = CIRCLE ( 'NONE', #41, 5.500000000000000000 ) ;
#88 = VERTEX_POINT ( 'NONE', #85 ) ;
#89 = DIRECTION ( 'NONE',  ( 1.000000000000000000, 0.000000000000000000, 0.000000000000000000 ) ) ;
#90 = ADVANCED_FACE ( 'NONE', ( #75 ), #121, .T. ) ;
#91 = VERTEX_POINT ( 'NONE', #212 ) ;
#92 = DIRECTION ( 'NONE',  ( 0.7071067811865463515, 8.659560562354918067E-17, -0.7071067811865487940 ) ) ;
#93 = CARTESIAN_POINT ( 'NONE',  ( 0.000000000000000000, 0.000000000000000000, -0.5000000000000038858 ) ) ;
#94 = CARTESIAN_POINT ( 'NONE',  ( -14.49999999999999112, 0.000000000000000000, 0.000000000000000000 ) ) ;
#95 = ORIENTED_EDGE ( 'NONE', *, *, #339, .T. ) ;
#96 = CARTESIAN_POINT ( 'NONE',  ( -5.500000000000000000, 6.735557395310442023E-16, -7.499999999999989342 ) ) ;
#97 = DIRECTION ( 'NONE',  ( 1.000000000000000000, 0.000000000000000000, 0.000000000000000000 ) ) ;
#98 = UNCERTAINTY_MEASURE_WITH_UNIT (LENGTH_MEASURE( 1.000000000000000082E-05 ), #35, 'distance_accuracy_value', 'NONE');
#99 = DIRECTION ( 'NONE',  ( 0.000000000000000000, -0.000000000000000000, 1.000000000000000000 ) ) ;
#100 = FACE_OUTER_BOUND ( 'NONE', #155, .T. ) ;
#101 = CARTESIAN_POINT ( 'NONE',  ( 0.000000000000000000, 5.500000000000000000, -8.000000000000000000 ) ) ;
#102 = ORIENTED_EDGE ( 'NONE', *, *, #143, .T. ) ;
#103 = DIRECTION ( 'NONE',  ( -0.000000000000000000, -0.000000000000000000, 1.000000000000000000 ) ) ;
#104 = CARTESIAN_POINT ( 'NONE',  ( 0.000000000000000000, 0.000000000000000000, -0.5000000000000073275 ) ) ;
#105 = FACE_OUTER_BOUND ( 'NONE', #193, .T. ) ;
#106 = CIRCLE ( 'NONE', #164, 14.49999999999999112 ) ;
#107 = ORIENTED_EDGE ( 'NONE', *, *, #259, .T. ) ;
#108 =( NAMED_UNIT ( * ) SI_UNIT ( $, .STERADIAN. ) SOLID_ANGLE_UNIT ( ) );
#109 = AXIS2_PLACEMENT_3D ( 'NONE', #383, #348, #251 ) ;
#110 = EDGE_CURVE ( 'NONE', #88, #172, #230, .T. ) ;
#111 = DIRECTION ( 'NONE',  ( 1.000000000000000000, 0.000000000000000000, 0.000000000000000000 ) ) ;
#112 = CIRCLE ( 'NONE', #349, 6.000000000000008882 ) ;
#113 = UNCERTAINTY_MEASURE_WITH_UNIT (LENGTH_MEASURE( 1.000000000000000082E-05 ), #294, 'distance_accuracy_value', 'NONE');
#114 = VERTEX_POINT ( 'NONE', #118 ) ;
#115 = PRODUCT_RELATED_PRODUCT_CATEGORY ( 'part', '', ( #397 ) ) ;
#116 = ORIENTED_EDGE ( 'NONE', *, *, #259, .F. ) ;
#117 = ORIENTED_EDGE ( 'NONE', *, *, #399, .T. ) ;
#118 = CARTESIAN_POINT ( 'NONE',  ( -6.000000000000005329, 7.347880794884125653E-16, 0.000000000000000000 ) ) ;
#119 = DIRECTION ( 'NONE',  ( -0.000000000000000000, -0.000000000000000000, 1.000000000000000000 ) ) ;
#120 = CIRCLE ( 'NONE', #390, 14.49999999999999112 ) ;
#121 = CYLINDRICAL_SURFACE ( 'NONE', #140, 15.00000000000000000 ) ;
#122 = EDGE_CURVE ( 'NONE', #189, #72, #407, .T. ) ;
#123 = ORIENTED_EDGE ( 'NONE', *, *, #221, .F. ) ;
#124 = LINE ( 'NONE', #381, #291 ) ;
#125 = ADVANCED_FACE ( 'NONE', ( #353 ), #341, .F. ) ;
#126 = FACE_OUTER_BOUND ( 'NONE', #268, .T. ) ;
#127 = DIRECTION ( 'NONE',  ( -1.000000000000000000, 0.000000000000000000, 0.000000000000000000 ) ) ;
#128 = ORIENTED_EDGE ( 'NONE', *, *, #295, .T. ) ;
#129 = DIRECTION ( 'NONE',  ( 1.000000000000000000, 0.000000000000000000, 0.000000000000000000 ) ) ;
#130 = ORIENTED_EDGE ( 'NONE', *, *, #149, .T. ) ;
#131 = CARTESIAN_POINT ( 'NONE',  ( 0.000000000000000000, 0.000000000000000000, -0.5000000000000073275 ) ) ;
#132 = EDGE_CURVE ( 'NONE', #5, #114, #181, .T. ) ;
#133 = DIRECTION ( 'NONE',  ( 1.000000000000000000, 0.000000000000000000, 0.000000000000000000 ) ) ;
#134 = AXIS2_PLACEMENT_3D ( 'NONE', #376, #405, #370 ) ;
#135 = DIRECTION ( 'NONE',  ( 0.000000000000000000, 0.000000000000000000, -1.000000000000000000 ) ) ;
#136 = DIRECTION ( 'NONE',  ( 1.000000000000000000, 0.000000000000000000, 0.000000000000000000 ) ) ;
#137 = EDGE_CURVE ( 'NONE', #39, #167, #264, .T. ) ;
#138 = CARTESIAN_POINT ( 'NONE',  ( -6.000000000000008882, 0.000000000000000000, -8.000000000000000000 ) ) ;
#139 = DIRECTION ( 'NONE',  ( 1.000000000000000000, 0.000000000000000000, 0.000000000000000000 ) ) ;
#140 = AXIS2_PLACEMENT_3D ( 'NONE', #378, #306, #150 ) ;
#141 = SURFACE_SIDE_STYLE ('',( #326 ) ) ;
#142 = FILL_AREA_STYLE ('',( #254 ) ) ;
#143 = EDGE_CURVE ( 'NONE', #114, #5, #331, .T. ) ;
#144 = CIRCLE ( 'NONE', #271, 15.00000000000000000 ) ;
#145 = DIRECTION ( 'NONE',  ( -1.000000000000000000, 0.000000000000000000, -0.000000000000000000 ) ) ;
#146 = ORIENTED_EDGE ( 'NONE', *, *, #195, .F. ) ;
#147 = ORIENTED_EDGE ( 'NONE', *, *, #180, .T. ) ;
#148 = AXIS2_PLACEMENT_3D ( 'NONE', #101, #99, #139 ) ;
#149 = EDGE_CURVE ( 'NONE', #189, #243, #78, .T. ) ;
#150 = DIRECTION ( 'NONE',  ( 1.000000000000000000, 0.000000000000000000, 0.000000000000000000 ) ) ;
#151 = ADVANCED_FACE ( 'NONE', ( #161 ), #54, .F. ) ;
#152 = AXIS2_PLACEMENT_3D ( 'NONE', #178, #206, #272 ) ;
#153 = DIRECTION ( 'NONE',  ( 0.000000000000000000, 0.000000000000000000, 1.000000000000000000 ) ) ;
#154 = ADVANCED_FACE ( 'NONE', ( #100 ), #274, .T. ) ;
#155 = EDGE_LOOP ( 'NONE', ( #123, #95, #71, #187 ) ) ;
#156 = CARTESIAN_POINT ( 'NONE',  ( 5.500000000000000000, 0.000000000000000000, -7.499999999999989342 ) ) ;
#157 = CARTESIAN_POINT ( 'NONE',  ( 6.000000000000008882, 7.347880794884129597E-16, -8.000000000000000000 ) ) ;
#158 = FILL_AREA_STYLE ('',( #64 ) ) ;
#159 = CARTESIAN_POINT ( 'NONE',  ( 0.000000000000000000, 0.000000000000000000, -7.499999999999991118 ) ) ;
#160 =( NAMED_UNIT ( * ) PLANE_ANGLE_UNIT ( ) SI_UNIT ( $, .RADIAN. ) );
#161 = FACE_OUTER_BOUND ( 'NONE', #227, .T. ) ;
#162 = AXIS2_PLACEMENT_3D ( 'NONE', #354, #103, #44 ) ;
#163 = DIRECTION ( 'NONE',  ( -0.7071067811865500152, 8.659560562354963673E-17, 0.7071067811865451302 ) ) ;
#164 = AXIS2_PLACEMENT_3D ( 'NONE', #314, #186, #344 ) ;
#165 = ORIENTED_EDGE ( 'NONE', *, *, #132, .T. ) ;
#166 = CARTESIAN_POINT ( 'NONE',  ( 6.000000000000008882, 7.347880794884129597E-16, -8.000000000000000000 ) ) ;
#167 = VERTEX_POINT ( 'NONE', #179 ) ;
#168 = CLOSED_SHELL ( 'NONE', ( #151, #380, #372, #154, #345, #309, #31, #90, #303, #125, #241, #188, #27, #209 ) ) ;
#169 = DIRECTION ( 'NONE',  ( 1.000000000000000000, 0.000000000000000000, 0.000000000000000000 ) ) ;
#170 = CONICAL_SURFACE ( 'NONE', #162, 15.00000000000000000, 0.7853981633974517207 ) ;
#171 = ORIENTED_EDGE ( 'NONE', *, *, #221, .T. ) ;
#172 = VERTEX_POINT ( 'NONE', #374 ) ;
#173 = VERTEX_POINT ( 'NONE', #211 ) ;
#174 = DIRECTION ( 'NONE',  ( -0.000000000000000000, -0.000000000000000000, 1.000000000000000000 ) ) ;
#175 = EDGE_LOOP ( 'NONE', ( #183, #107 ) ) ;
#176 =( GEOMETRIC_REPRESENTATION_CONTEXT ( 3 ) GLOBAL_UNCERTAINTY_ASSIGNED_CONTEXT ( ( #113 ) ) GLOBAL_UNIT_ASSIGNED_CONTEXT ( ( #294, #400, #108 ) ) REPRESENTATION_CONTEXT ( 'NONE', 'WORKASPACE' ) );
#177 = EDGE_LOOP ( 'NONE', ( #410, #171 ) ) ;
#178 = CARTESIAN_POINT ( 'NONE',  ( 0.000000000000000000, 0.000000000000000000, 0.000000000000000000 ) ) ;
#179 = CARTESIAN_POINT ( 'NONE',  ( -15.00000000000000000, 1.836970198721029589E-15, -0.5000000000000073275 ) ) ;
#180 = EDGE_CURVE ( 'NONE', #39, #172, #281, .T. ) ;
#181 = CIRCLE ( 'NONE', #198, 6.000000000000005329 ) ;
#182 = CARTESIAN_POINT ( 'NONE',  ( 0.000000000000000000, 0.000000000000000000, -7.499999999999989342 ) ) ;
#183 = ORIENTED_EDGE ( 'NONE', *, *, #82, .T. ) ;
#184 = DIRECTION ( 'NONE',  ( 1.000000000000000000, 0.000000000000000000, 0.000000000000000000 ) ) ;
#185 = CONICAL_SURFACE ( 'NONE', #255, 6.000000000000008882, 0.7853981633974466137 ) ;
#186 = DIRECTION ( 'NONE',  ( -0.000000000000000000, -0.000000000000000000, 1.000000000000000000 ) ) ;
#187 = ORIENTED_EDGE ( 'NONE', *, *, #269, .F. ) ;
#188 = ADVANCED_FACE ( 'NONE', ( #250 ), #327, .F. ) ;
#189 = VERTEX_POINT ( 'NONE', #96 ) ;
#190 = CARTESIAN_POINT ( 'NONE',  ( 0.000000000000000000, 0.000000000000000000, 0.000000000000000000 ) ) ;
#191 = CARTESIAN_POINT ( 'NONE',  ( 0.000000000000000000, 0.000000000000000000, -8.000000000000000000 ) ) ;
#192 = LINE ( 'NONE', #1, #346 ) ;
#193 = EDGE_LOOP ( 'NONE', ( #146, #80, #382, #29 ) ) ;
#194 = DIRECTION ( 'NONE',  ( -0.000000000000000000, -0.000000000000000000, -1.000000000000000000 ) ) ;
#195 = EDGE_CURVE ( 'NONE', #72, #66, #87, .T. ) ;
#196 = FACE_OUTER_BOUND ( 'NONE', #177, .T. ) ;
#197 = DIRECTION ( 'NONE',  ( 0.7071067811865487940, 8.659560562354950115E-17, -0.7071067811865463515 ) ) ;
#198 = AXIS2_PLACEMENT_3D ( 'NONE', #58, #342, #127 ) ;
#199 = ORIENTED_EDGE ( 'NONE', *, *, #137, .T. ) ;
#200 = VECTOR ( 'NONE', #119, 1000.000000000000000 ) ;
#201 = APPLICATION_PROTOCOL_DEFINITION ( 'draft international standard', 'automotive_design', 1998, #328 ) ;
#202 = ORIENTED_EDGE ( 'NONE', *, *, #375, .T. ) ;
#203 = ORIENTED_EDGE ( 'NONE', *, *, #315, .T. ) ;
#204 = ORIENTED_EDGE ( 'NONE', *, *, #263, .F. ) ;
#205 = MECHANICAL_DESIGN_GEOMETRIC_PRESENTATION_REPRESENTATION (  '', ( #22 ), #338 ) ;
#206 = DIRECTION ( 'NONE',  ( 0.000000000000000000, 0.000000000000000000, -1.000000000000000000 ) ) ;
#207 = CARTESIAN_POINT ( 'NONE',  ( -5.500000000000000000, 6.735557395310442023E-16, -0.5000000000000038858 ) ) ;
#208 = AXIS2_PLACEMENT_3D ( 'NONE', #159, #414, #129 ) ;
#209 = ADVANCED_FACE ( 'NONE', ( #77 ), #185, .F. ) ;
#210 = CARTESIAN_POINT ( 'NONE',  ( 15.00000000000000000, 0.000000000000000000, -7.499999999999991118 ) ) ;
#211 = CARTESIAN_POINT ( 'NONE',  ( -6.000000000000008882, 0.000000000000000000, -8.000000000000000000 ) ) ;
#212 = CARTESIAN_POINT ( 'NONE',  ( 15.00000000000000000, 0.000000000000000000, -0.5000000000000073275 ) ) ;
#213 = ORIENTED_EDGE ( 'NONE', *, *, #269, .T. ) ;
#214 = SURFACE_SIDE_STYLE ('',( #270 ) ) ;
#215 = PRESENTATION_STYLE_ASSIGNMENT (( #282 ) ) ;
#216 = FACE_OUTER_BOUND ( 'NONE', #373, .T. ) ;
#217 = DIRECTION ( 'NONE',  ( 0.000000000000000000, 0.000000000000000000, -1.000000000000000000 ) ) ;
#218 = CARTESIAN_POINT ( 'NONE',  ( -14.49999999999999112, 0.000000000000000000, 0.000000000000000000 ) ) ;
#219 = EDGE_LOOP ( 'NONE', ( #51, #236, #203, #116 ) ) ;
#220 = CARTESIAN_POINT ( 'NONE',  ( -15.00000000000000000, 1.836970198721029589E-15, -7.499999999999991118 ) ) ;
#221 = EDGE_CURVE ( 'NONE', #46, #277, #106, .T. ) ;
#222 = CIRCLE ( 'NONE', #234, 14.49999999999998757 ) ;
#223 =( NAMED_UNIT ( * ) SI_UNIT ( $, .STERADIAN. ) SOLID_ANGLE_UNIT ( ) );
#224 = STYLED_ITEM ( 'NONE', ( #229 ), #49 ) ;
#225 = DIRECTION ( 'NONE',  ( 0.000000000000000000, 0.000000000000000000, 1.000000000000000000 ) ) ;
#226 = FACE_BOUND ( 'NONE', #292, .T. ) ;
#227 = EDGE_LOOP ( 'NONE', ( #61, #60, #343, #57 ) ) ;
#228 = SHAPE_DEFINITION_REPRESENTATION ( #13, #49 ) ;
#229 = PRESENTATION_STYLE_ASSIGNMENT (( #74 ) ) ;
#230 = LINE ( 'NONE', #210, #395 ) ;
#231 = APPLICATION_PROTOCOL_DEFINITION ( 'draft international standard', 'automotive_design', 1998, #329 ) ;
#232 = AXIS2_PLACEMENT_3D ( 'NONE', #30, #153, #97 ) ;
#233 = LINE ( 'NONE', #359, #249 ) ;
#234 = AXIS2_PLACEMENT_3D ( 'NONE', #32, #385, #411 ) ;
#235 = DIRECTION ( 'NONE',  ( 0.000000000000000000, 0.000000000000000000, -1.000000000000000000 ) ) ;
#236 = ORIENTED_EDGE ( 'NONE', *, *, #149, .F. ) ;
#237 = FACE_BOUND ( 'NONE', #175, .T. ) ;
#238 = CARTESIAN_POINT ( 'NONE',  ( 5.500000000000000000, 0.000000000000000000, -0.5000000000000038858 ) ) ;
#239 = CARTESIAN_POINT ( 'NONE',  ( -5.500000000000000000, 6.735557395310442023E-16, 0.000000000000000000 ) ) ;
#240 = AXIS2_PLACEMENT_3D ( 'NONE', #182, #408, #184 ) ;
#241 = ADVANCED_FACE ( 'NONE', ( #63 ), #394, .T. ) ;
#242 = EDGE_CURVE ( 'NONE', #243, #332, #14, .T. ) ;
#243 = VERTEX_POINT ( 'NONE', #156 ) ;
#244 = CIRCLE ( 'NONE', #365, 15.00000000000000000 ) ;
#245 = EDGE_CURVE ( 'NONE', #277, #46, #120, .T. ) ;
#246 = DIRECTION ( 'NONE',  ( -0.000000000000000000, -0.000000000000000000, 1.000000000000000000 ) ) ;
#247 = ORIENTED_EDGE ( 'NONE', *, *, #195, .T. ) ;
#248 = DIRECTION ( 'NONE',  ( -0.000000000000000000, -0.000000000000000000, -1.000000000000000000 ) ) ;
#249 = VECTOR ( 'NONE', #388, 1000.000000000000000 ) ;
#250 = FACE_OUTER_BOUND ( 'NONE', #48, .T. ) ;
#251 = DIRECTION ( 'NONE',  ( -1.000000000000000000, 0.000000000000000000, 0.000000000000000000 ) ) ;
#252 = ORIENTED_EDGE ( 'NONE', *, *, #399, .F. ) ;
#253 = DIRECTION ( 'NONE',  ( -0.7071067811865487940, 0.000000000000000000, -0.7071067811865463515 ) ) ;
#254 = FILL_AREA_STYLE_COLOUR ( '', #8 ) ;
#255 = AXIS2_PLACEMENT_3D ( 'NONE', #191, #248, #316 ) ;
#256 = ORIENTED_EDGE ( 'NONE', *, *, #361, .F. ) ;
#257 = CARTESIAN_POINT ( 'NONE',  ( 0.000000000000000000, 0.000000000000000000, -0.5000000000000038858 ) ) ;
#258 = VERTEX_POINT ( 'NONE', #412 ) ;
#259 = EDGE_CURVE ( 'NONE', #332, #173, #112, .T. ) ;
#260 = CARTESIAN_POINT ( 'NONE',  ( 0.000000000000000000, 0.000000000000000000, 0.000000000000000000 ) ) ;
#261 = CARTESIAN_POINT ( 'NONE',  ( 0.000000000000000000, 0.000000000000000000, 0.000000000000000000 ) ) ;
#262 = ORIENTED_EDGE ( 'NONE', *, *, #361, .T. ) ;
#263 = EDGE_CURVE ( 'NONE', #88, #258, #222, .T. ) ;
#264 = LINE ( 'NONE', #278, #2 ) ;
#265 = MANIFOLD_SOLID_BREP ( 'Fase1', #168 ) ;
#266 = EDGE_LOOP ( 'NONE', ( #256, #204, #34, #393 ) ) ;
#267 = CARTESIAN_POINT ( 'NONE',  ( 0.000000000000000000, 0.000000000000000000, -7.499999999999991118 ) ) ;
#268 = EDGE_LOOP ( 'NONE', ( #47, #84 ) ) ;
#269 = EDGE_CURVE ( 'NONE', #277, #167, #17, .T. ) ;
#270 = SURFACE_STYLE_FILL_AREA ( #158 ) ;
#271 = AXIS2_PLACEMENT_3D ( 'NONE', #50, #174, #86 ) ;
#272 = DIRECTION ( 'NONE',  ( -1.000000000000000000, 0.000000000000000000, 0.000000000000000000 ) ) ;
#273 = VECTOR ( 'NONE', #163, 1000.000000000000114 ) ;
#274 = CONICAL_SURFACE ( 'NONE', #152, 14.49999999999999112, 0.7853981633974500554 ) ;
#275 = DIRECTION ( 'NONE',  ( 0.000000000000000000, 0.000000000000000000, -1.000000000000000000 ) ) ;
#276 = CARTESIAN_POINT ( 'NONE',  ( 0.000000000000000000, 0.000000000000000000, -8.000000000000000000 ) ) ;
#277 = VERTEX_POINT ( 'NONE', #218 ) ;
#278 = CARTESIAN_POINT ( 'NONE',  ( -15.00000000000000000, 1.836970198721029589E-15, 0.000000000000000000 ) ) ;
#279 = EDGE_CURVE ( 'NONE', #91, #167, #297, .T. ) ;
#280 = CARTESIAN_POINT ( 'NONE',  ( 0.000000000000000000, 0.000000000000000000, -8.000000000000000000 ) ) ;
#281 = CIRCLE ( 'NONE', #208, 15.00000000000000000 ) ;
#282 = SURFACE_STYLE_USAGE ( .BOTH. , #214 ) ;
#283 = DIRECTION ( 'NONE',  ( -1.000000000000000000, 0.000000000000000000, 0.000000000000000000 ) ) ;
#284 = FACE_OUTER_BOUND ( 'NONE', #392, .T. ) ;
#285 = ORIENTED_EDGE ( 'NONE', *, *, #137, .F. ) ;
#286 = EDGE_CURVE ( 'NONE', #172, #91, #124, .T. ) ;
#287 = DIRECTION ( 'NONE',  ( 0.000000000000000000, 0.000000000000000000, 1.000000000000000000 ) ) ;
#288 = COLOUR_RGB ( '',0.5294117647058823595, 0.5490196078431373028, 0.5490196078431373028 ) ;
#289 = DIRECTION ( 'NONE',  ( -1.000000000000000000, 0.000000000000000000, 0.000000000000000000 ) ) ;
#290 = ORIENTED_EDGE ( 'NONE', *, *, #37, .F. ) ;
#291 = VECTOR ( 'NONE', #62, 1000.000000000000000 ) ;
#292 = EDGE_LOOP ( 'NONE', ( #165, #102 ) ) ;
#293 = CIRCLE ( 'NONE', #299, 5.500000000000000000 ) ;
#294 =( LENGTH_UNIT ( ) NAMED_UNIT ( * ) SI_UNIT ( .MILLI., .METRE. ) );
#295 = EDGE_CURVE ( 'NONE', #66, #72, #11, .T. ) ;
#296 = PRODUCT_CONTEXT ( 'NONE', #328, 'mechanical' ) ;
#297 = CIRCLE ( 'NONE', #403, 15.00000000000000000 ) ;
#298 = CARTESIAN_POINT ( 'NONE',  ( 6.000000000000005329, 0.000000000000000000, 0.000000000000000000 ) ) ;
#299 = AXIS2_PLACEMENT_3D ( 'NONE', #38, #194, #3 ) ;
#300 = CARTESIAN_POINT ( 'NONE',  ( 0.000000000000000000, 0.000000000000000000, 0.000000000000000000 ) ) ;
#301 = EDGE_CURVE ( 'NONE', #167, #91, #244, .T. ) ;
#302 = CARTESIAN_POINT ( 'NONE',  ( -5.500000000000000000, 6.735557395310442023E-16, -0.5000000000000038858 ) ) ;
#303 = ADVANCED_FACE ( 'NONE', ( #126, #237 ), #317, .F. ) ;
#304 = DIRECTION ( 'NONE',  ( -0.000000000000000000, -0.000000000000000000, 1.000000000000000000 ) ) ;
#305 = PRODUCT_DEFINITION ( 'UNKNOWN', '', #18, #45 ) ;
#306 = DIRECTION ( 'NONE',  ( -0.000000000000000000, -0.000000000000000000, 1.000000000000000000 ) ) ;
#307 = CYLINDRICAL_SURFACE ( 'NONE', #377, 5.500000000000000000 ) ;
#308 = AXIS2_PLACEMENT_3D ( 'NONE', #73, #135, #7 ) ;
#309 = ADVANCED_FACE ( 'NONE', ( #284 ), #402, .T. ) ;
#310 = DIRECTION ( 'NONE',  ( -0.000000000000000000, -0.000000000000000000, 1.000000000000000000 ) ) ;
#311 = ORIENTED_EDGE ( 'NONE', *, *, #295, .F. ) ;
#312 = DIRECTION ( 'NONE',  ( 0.000000000000000000, 0.000000000000000000, 1.000000000000000000 ) ) ;
#313 = VECTOR ( 'NONE', #409, 1000.000000000000000 ) ;
#314 = CARTESIAN_POINT ( 'NONE',  ( 0.000000000000000000, 0.000000000000000000, 0.000000000000000000 ) ) ;
#315 = EDGE_CURVE ( 'NONE', #189, #173, #12, .T. ) ;
#316 = DIRECTION ( 'NONE',  ( -1.000000000000000000, 0.000000000000000000, 0.000000000000000000 ) ) ;
#317 = PLANE ( 'NONE',  #148 ) ;
#318 = CONICAL_SURFACE ( 'NONE', #55, 5.500000000000000000, 0.7853981633974500554 ) ;
#319 = DIRECTION ( 'NONE',  ( -1.000000000000000000, 0.000000000000000000, 0.000000000000000000 ) ) ;
#320 =( LENGTH_UNIT ( ) NAMED_UNIT ( * ) SI_UNIT ( .MILLI., .METRE. ) );
#321 = ORIENTED_EDGE ( 'NONE', *, *, #279, .T. ) ;
#322 = DIRECTION ( 'NONE',  ( 0.000000000000000000, 0.000000000000000000, -1.000000000000000000 ) ) ;
#323 =( GEOMETRIC_REPRESENTATION_CONTEXT ( 3 ) GLOBAL_UNCERTAINTY_ASSIGNED_CONTEXT ( ( #401 ) ) GLOBAL_UNIT_ASSIGNED_CONTEXT ( ( #320, #160, #223 ) ) REPRESENTATION_CONTEXT ( 'NONE', 'WORKASPACE' ) );
#324 = DIRECTION ( 'NONE',  ( -1.000000000000000000, 0.000000000000000000, 0.000000000000000000 ) ) ;
#325 = AXIS2_PLACEMENT_3D ( 'NONE', #300, #275, #28 ) ;
#326 = SURFACE_STYLE_FILL_AREA ( #142 ) ;
#327 = CONICAL_SURFACE ( 'NONE', #232, 5.500000000000000000, 0.7853981633974500554 ) ;
#328 = APPLICATION_CONTEXT ( 'automotive_design' ) ;
#329 = APPLICATION_CONTEXT ( 'automotive_design' ) ;
#330 = CARTESIAN_POINT ( 'NONE',  ( 0.000000000000000000, 5.500000000000000000, 0.000000000000000000 ) ) ;
#331 = CIRCLE ( 'NONE', #325, 6.000000000000005329 ) ;
#332 = VERTEX_POINT ( 'NONE', #166 ) ;
#333 = VECTOR ( 'NONE', #253, 1000.000000000000000 ) ;
#334 = LINE ( 'NONE', #220, #273 ) ;
#335 = EDGE_LOOP ( 'NONE', ( #202, #10, #247, #252 ) ) ;
#336 = AXIS2_PLACEMENT_3D ( 'NONE', #261, #68, #169 ) ;
#337 = ORIENTED_EDGE ( 'NONE', *, *, #110, .F. ) ;
#338 =( GEOMETRIC_REPRESENTATION_CONTEXT ( 3 ) GLOBAL_UNCERTAINTY_ASSIGNED_CONTEXT ( ( #98 ) ) GLOBAL_UNIT_ASSIGNED_CONTEXT ( ( #35, #36, #33 ) ) REPRESENTATION_CONTEXT ( 'NONE', 'WORKASPACE' ) );
#339 = EDGE_CURVE ( 'NONE', #46, #91, #384, .T. ) ;
#340 = CIRCLE ( 'NONE', #308, 14.49999999999998757 ) ;
#341 = CYLINDRICAL_SURFACE ( 'NONE', #379, 5.500000000000000000 ) ;
#342 = DIRECTION ( 'NONE',  ( 0.000000000000000000, 0.000000000000000000, -1.000000000000000000 ) ) ;
#343 = ORIENTED_EDGE ( 'NONE', *, *, #82, .F. ) ;
#344 = DIRECTION ( 'NONE',  ( -1.000000000000000000, 0.000000000000000000, 0.000000000000000000 ) ) ;
#345 = ADVANCED_FACE ( 'NONE', ( #398 ), #307, .F. ) ;
#346 = VECTOR ( 'NONE', #67, 1000.000000000000000 ) ;
#347 = PRESENTATION_LAYER_ASSIGNMENT (  '', '', ( #224 ) ) ;
#348 = DIRECTION ( 'NONE',  ( 0.000000000000000000, 0.000000000000000000, -1.000000000000000000 ) ) ;
#349 = AXIS2_PLACEMENT_3D ( 'NONE', #280, #310, #133 ) ;
#350 = EDGE_LOOP ( 'NONE', ( #285, #147, #406, #321 ) ) ;
#351 = DIRECTION ( 'NONE',  ( -0.000000000000000000, -0.000000000000000000, 1.000000000000000000 ) ) ;
#352 = DIRECTION ( 'NONE',  ( -1.000000000000000000, 0.000000000000000000, 0.000000000000000000 ) ) ;
#353 = FACE_OUTER_BOUND ( 'NONE', #360, .T. ) ;
#354 = CARTESIAN_POINT ( 'NONE',  ( 0.000000000000000000, 0.000000000000000000, -7.499999999999991118 ) ) ;
#355 = EDGE_CURVE ( 'NONE', #258, #88, #340, .T. ) ;
#356 = ORIENTED_EDGE ( 'NONE', *, *, #143, .F. ) ;
#357 = AXIS2_PLACEMENT_3D ( 'NONE', #276, #59, #89 ) ;
#358 = VECTOR ( 'NONE', #92, 1000.000000000000000 ) ;
#359 = CARTESIAN_POINT ( 'NONE',  ( 5.500000000000000000, 0.000000000000000000, -0.5000000000000038858 ) ) ;
#360 = EDGE_LOOP ( 'NONE', ( #4, #130, #117, #128 ) ) ;
#361 = EDGE_CURVE ( 'NONE', #258, #39, #334, .T. ) ;
#362 = CONICAL_SURFACE ( 'NONE', #52, 15.00000000000000000, 0.7853981633974517207 ) ;
#363 = DIRECTION ( 'NONE',  ( 0.000000000000000000, 0.000000000000000000, 1.000000000000000000 ) ) ;
#364 = ORIENTED_EDGE ( 'NONE', *, *, #245, .F. ) ;
#365 = AXIS2_PLACEMENT_3D ( 'NONE', #104, #322, #324 ) ;
#366 = AXIS2_PLACEMENT_3D ( 'NONE', #6, #363, #111 ) ;
#367 = CARTESIAN_POINT ( 'NONE',  ( 14.49999999999999112, 1.806354028742345013E-15, 0.000000000000000000 ) ) ;
#368 = MECHANICAL_DESIGN_GEOMETRIC_PRESENTATION_REPRESENTATION (  '', ( #224 ), #176 ) ;
#369 = ORIENTED_EDGE ( 'NONE', *, *, #386, .T. ) ;
#370 = DIRECTION ( 'NONE',  ( -1.000000000000000000, 0.000000000000000000, 0.000000000000000000 ) ) ;
#371 = VECTOR ( 'NONE', #197, 1000.000000000000000 ) ;
#372 = ADVANCED_FACE ( 'NONE', ( #105 ), #318, .F. ) ;
#373 = EDGE_LOOP ( 'NONE', ( #387, #262, #290, #337 ) ) ;
#374 = CARTESIAN_POINT ( 'NONE',  ( 15.00000000000000000, 0.000000000000000000, -7.499999999999991118 ) ) ;
#375 = EDGE_CURVE ( 'NONE', #243, #189, #293, .T. ) ;
#376 = CARTESIAN_POINT ( 'NONE',  ( 0.000000000000000000, 0.000000000000000000, -8.000000000000000000 ) ) ;
#377 = AXIS2_PLACEMENT_3D ( 'NONE', #260, #40, #136 ) ;
#378 = CARTESIAN_POINT ( 'NONE',  ( 0.000000000000000000, 0.000000000000000000, 0.000000000000000000 ) ) ;
#379 = AXIS2_PLACEMENT_3D ( 'NONE', #53, #246, #26 ) ;
#380 = ADVANCED_FACE ( 'NONE', ( #216 ), #170, .T. ) ;
#381 = CARTESIAN_POINT ( 'NONE',  ( 15.00000000000000000, 0.000000000000000000, 0.000000000000000000 ) ) ;
#382 = ORIENTED_EDGE ( 'NONE', *, *, #132, .F. ) ;
#383 = CARTESIAN_POINT ( 'NONE',  ( 0.000000000000000000, 0.000000000000000000, 0.000000000000000000 ) ) ;
#384 = LINE ( 'NONE', #42, #371 ) ;
#385 = DIRECTION ( 'NONE',  ( 0.000000000000000000, 0.000000000000000000, -1.000000000000000000 ) ) ;
#386 = EDGE_CURVE ( 'NONE', #66, #5, #233, .T. ) ;
#387 = ORIENTED_EDGE ( 'NONE', *, *, #355, .F. ) ;
#388 = DIRECTION ( 'NONE',  ( 0.7071067811865487940, 0.000000000000000000, 0.7071067811865463515 ) ) ;
#389 = DIRECTION ( 'NONE',  ( 1.000000000000000000, 0.000000000000000000, 0.000000000000000000 ) ) ;
#390 = AXIS2_PLACEMENT_3D ( 'NONE', #190, #351, #352 ) ;
#391 = DIRECTION ( 'NONE',  ( -0.7071067811865463515, 0.000000000000000000, -0.7071067811865487940 ) ) ;
#392 = EDGE_LOOP ( 'NONE', ( #23, #199, #413, #396 ) ) ;
#393 = ORIENTED_EDGE ( 'NONE', *, *, #180, .F. ) ;
#394 = CONICAL_SURFACE ( 'NONE', #109, 14.49999999999999112, 0.7853981633974500554 ) ;
#395 = VECTOR ( 'NONE', #83, 1000.000000000000114 ) ;
#396 = ORIENTED_EDGE ( 'NONE', *, *, #286, .F. ) ;
#397 = PRODUCT ( 'Distanzhülse Klemmhebel 1.1', 'Distanzhülse Klemmhebel 1.1', '', ( #296 ) ) ;
#398 = FACE_OUTER_BOUND ( 'NONE', #335, .T. ) ;
#399 = EDGE_CURVE ( 'NONE', #243, #66, #192, .T. ) ;
#400 =( NAMED_UNIT ( * ) PLANE_ANGLE_UNIT ( ) SI_UNIT ( $, .RADIAN. ) );
#401 = UNCERTAINTY_MEASURE_WITH_UNIT (LENGTH_MEASURE( 1.000000000000000082E-05 ), #320, 'distance_accuracy_value', 'NONE');
#402 = CYLINDRICAL_SURFACE ( 'NONE', #336, 15.00000000000000000 ) ;
#403 = AXIS2_PLACEMENT_3D ( 'NONE', #131, #217, #319 ) ;
#404 = LINE ( 'NONE', #207, #313 ) ;
#405 = DIRECTION ( 'NONE',  ( -0.000000000000000000, -0.000000000000000000, -1.000000000000000000 ) ) ;
#406 = ORIENTED_EDGE ( 'NONE', *, *, #286, .T. ) ;
#407 = LINE ( 'NONE', #239, #200 ) ;
#408 = DIRECTION ( 'NONE',  ( -0.000000000000000000, -0.000000000000000000, -1.000000000000000000 ) ) ;
#409 = DIRECTION ( 'NONE',  ( -0.7071067811865487940, 8.659560562354950115E-17, 0.7071067811865463515 ) ) ;
#410 = ORIENTED_EDGE ( 'NONE', *, *, #245, .T. ) ;
#411 = DIRECTION ( 'NONE',  ( 1.000000000000000000, 0.000000000000000000, 0.000000000000000000 ) ) ;
#412 = CARTESIAN_POINT ( 'NONE',  ( -14.49999999999998757, 1.806354028742345013E-15, -8.000000000000000000 ) ) ;
#413 = ORIENTED_EDGE ( 'NONE', *, *, #301, .T. ) ;
#414 = DIRECTION ( 'NONE',  ( -0.000000000000000000, -0.000000000000000000, 1.000000000000000000 ) ) ;
ENDSEC;
END-ISO-10303-21;
