ISO-10303-21;
HEADER;
FILE_DESCRIPTION (( 'STEP AP214' ),
    '1' );
FILE_NAME ('Distanzhülse Schneckenwelle.STEP',
    '2021-01-22T07:26:50',
    ( '' ),
    ( '' ),
    'SwSTEP 2.0',
    'SolidWorks 2018',
    '' );
FILE_SCHEMA (( 'AUTOMOTIVE_DESIGN' ));
ENDSEC;

DATA;
#1 = CARTESIAN_POINT ( 'NONE',  ( 0.000000000000000000, 0.000000000000000000, 0.000000000000000000 ) ) ;
#2 = FACE_OUTER_BOUND ( 'NONE', #328, .T. ) ;
#3 = ORIENTED_EDGE ( 'NONE', *, *, #14, .F. ) ;
#4 = CARTESIAN_POINT ( 'NONE',  ( -11.49999999999999645, 0.000000000000000000, 0.000000000000000000 ) ) ;
#5 = EDGE_CURVE ( 'NONE', #124, #350, #181, .T. ) ;
#6 = DIRECTION ( 'NONE',  ( -0.7071067811865463515, 0.000000000000000000, -0.7071067811865487940 ) ) ;
#7 = CARTESIAN_POINT ( 'NONE',  ( 12.00000000000000178, 0.000000000000000000, 0.000000000000000000 ) ) ;
#8 = ADVANCED_FACE ( 'NONE', ( #384 ), #159, .F. ) ;
#9 = COLOUR_RGB ( '',0.5294117647058823595, 0.5490196078431373028, 0.5490196078431373028 ) ;
#10 = FACE_OUTER_BOUND ( 'NONE', #189, .T. ) ;
#11 = DIRECTION ( 'NONE',  ( 0.000000000000000000, 0.000000000000000000, -1.000000000000000000 ) ) ;
#12 = ORIENTED_EDGE ( 'NONE', *, *, #173, .T. ) ;
#13 = CARTESIAN_POINT ( 'NONE',  ( 0.000000000000000000, 0.000000000000000000, -15.49999999999999822 ) ) ;
#14 = EDGE_CURVE ( 'NONE', #354, #287, #283, .T. ) ;
#15 = ADVANCED_FACE ( 'NONE', ( #10 ), #65, .F. ) ;
#16 = ADVANCED_FACE ( 'NONE', ( #260 ), #253, .T. ) ;
#17 = CARTESIAN_POINT ( 'NONE',  ( 11.49999999999999822, 0.000000000000000000, -16.00000000000000000 ) ) ;
#18 = CARTESIAN_POINT ( 'NONE',  ( 0.000000000000000000, 0.000000000000000000, 0.000000000000000000 ) ) ;
#19 = CYLINDRICAL_SURFACE ( 'NONE', #86, 8.500000000000000000 ) ;
#20 = LINE ( 'NONE', #306, #402 ) ;
#21 = DIRECTION ( 'NONE',  ( -0.000000000000000000, -0.000000000000000000, 1.000000000000000000 ) ) ;
#22 = VECTOR ( 'NONE', #70, 1000.000000000000000 ) ;
#23 = SURFACE_STYLE_FILL_AREA ( #280 ) ;
#24 = EDGE_LOOP ( 'NONE', ( #62, #412 ) ) ;
#25 = DIRECTION ( 'NONE',  ( -1.000000000000000000, 0.000000000000000000, -0.000000000000000000 ) ) ;
#26 = EDGE_CURVE ( 'NONE', #49, #198, #55, .T. ) ;
#27 = CARTESIAN_POINT ( 'NONE',  ( -12.00000000000000178, 1.469576158976824144E-15, -0.5000000000000022204 ) ) ;
#28 = EDGE_LOOP ( 'NONE', ( #38, #264, #119, #137 ) ) ;
#29 = DIRECTION ( 'NONE',  ( -1.000000000000000000, 0.000000000000000000, 0.000000000000000000 ) ) ;
#30 = DIRECTION ( 'NONE',  ( 1.000000000000000000, 0.000000000000000000, 0.000000000000000000 ) ) ;
#31 = EDGE_CURVE ( 'NONE', #340, #218, #88, .T. ) ;
#32 = CARTESIAN_POINT ( 'NONE',  ( 0.000000000000000000, 0.000000000000000000, -16.00000000000000000 ) ) ;
#33 =( LENGTH_UNIT ( ) NAMED_UNIT ( * ) SI_UNIT ( .MILLI., .METRE. ) );
#34 = FACE_OUTER_BOUND ( 'NONE', #367, .T. ) ;
#35 = ORIENTED_EDGE ( 'NONE', *, *, #249, .T. ) ;
#36 = AXIS2_PLACEMENT_3D ( 'NONE', #13, #234, #331 ) ;
#37 = DIRECTION ( 'NONE',  ( -0.000000000000000000, -0.000000000000000000, -1.000000000000000000 ) ) ;
#38 = ORIENTED_EDGE ( 'NONE', *, *, #299, .F. ) ;
#39 = CARTESIAN_POINT ( 'NONE',  ( 0.000000000000000000, 0.000000000000000000, -0.5000000000000022204 ) ) ;
#40 = AXIS2_PLACEMENT_3D ( 'NONE', #222, #93, #317 ) ;
#41 = DIRECTION ( 'NONE',  ( -1.000000000000000000, 0.000000000000000000, 0.000000000000000000 ) ) ;
#42 = CARTESIAN_POINT ( 'NONE',  ( 9.000000000000001776, 1.102182119232617911E-15, -16.00000000000000000 ) ) ;
#43 = FACE_OUTER_BOUND ( 'NONE', #44, .T. ) ;
#44 = EDGE_LOOP ( 'NONE', ( #274, #407, #237, #333 ) ) ;
#45 =( GEOMETRIC_REPRESENTATION_CONTEXT ( 3 ) GLOBAL_UNCERTAINTY_ASSIGNED_CONTEXT ( ( #394 ) ) GLOBAL_UNIT_ASSIGNED_CONTEXT ( ( #386, #233, #297 ) ) REPRESENTATION_CONTEXT ( 'NONE', 'WORKASPACE' ) );
#46 = AXIS2_PLACEMENT_3D ( 'NONE', #363, #69, #200 ) ;
#47 = CARTESIAN_POINT ( 'NONE',  ( 12.00000000000000178, 0.000000000000000000, -15.49999999999999822 ) ) ;
#48 = VECTOR ( 'NONE', #74, 1000.000000000000000 ) ;
#49 = VERTEX_POINT ( 'NONE', #106 ) ;
#50 = EDGE_CURVE ( 'NONE', #49, #154, #123, .T. ) ;
#51 = VECTOR ( 'NONE', #351, 1000.000000000000114 ) ;
#52 = AXIS2_PLACEMENT_3D ( 'NONE', #178, #21, #313 ) ;
#53 = CARTESIAN_POINT ( 'NONE',  ( 9.000000000000001776, 0.000000000000000000, 0.000000000000000000 ) ) ;
#54 = LINE ( 'NONE', #347, #366 ) ;
#55 = LINE ( 'NONE', #160, #172 ) ;
#56 = CARTESIAN_POINT ( 'NONE',  ( -9.000000000000001776, 0.000000000000000000, -16.00000000000000000 ) ) ;
#57 = CLOSED_SHELL ( 'NONE', ( #16, #15, #229, #305, #170, #364, #298, #100, #67, #392, #168, #8, #358, #303 ) ) ;
#58 =( NAMED_UNIT ( * ) PLANE_ANGLE_UNIT ( ) SI_UNIT ( $, .RADIAN. ) );
#59 = EDGE_CURVE ( 'NONE', #276, #218, #20, .T. ) ;
#60 = CARTESIAN_POINT ( 'NONE',  ( 8.500000000000000000, 0.000000000000000000, 0.000000000000000000 ) ) ;
#61 = ORIENTED_EDGE ( 'NONE', *, *, #235, .F. ) ;
#62 = ORIENTED_EDGE ( 'NONE', *, *, #205, .T. ) ;
#63 = CARTESIAN_POINT ( 'NONE',  ( 11.49999999999999645, 1.438959988998139963E-15, 0.000000000000000000 ) ) ;
#64 = SURFACE_STYLE_USAGE ( .BOTH. , #322 ) ;
#65 = CONICAL_SURFACE ( 'NONE', #94, 8.500000000000000000, 0.7853981633974466137 ) ;
#66 = AXIS2_PLACEMENT_3D ( 'NONE', #206, #398, #240 ) ;
#67 = ADVANCED_FACE ( 'NONE', ( #368, #197 ), #171, .F. ) ;
#68 = DIRECTION ( 'NONE',  ( 1.000000000000000000, 0.000000000000000000, 0.000000000000000000 ) ) ;
#69 = DIRECTION ( 'NONE',  ( -0.000000000000000000, -0.000000000000000000, -1.000000000000000000 ) ) ;
#70 = DIRECTION ( 'NONE',  ( 0.7071067811865463515, 8.659560562354918067E-17, -0.7071067811865487940 ) ) ;
#71 = ORIENTED_EDGE ( 'NONE', *, *, #319, .F. ) ;
#72 = ORIENTED_EDGE ( 'NONE', *, *, #356, .F. ) ;
#73 = AXIS2_PLACEMENT_3D ( 'NONE', #385, #37, #227 ) ;
#74 = DIRECTION ( 'NONE',  ( -0.7071067811865487940, 8.659560562354948882E-17, 0.7071067811865463515 ) ) ;
#75 = AXIS2_PLACEMENT_3D ( 'NONE', #204, #76, #346 ) ;
#76 = DIRECTION ( 'NONE',  ( 0.000000000000000000, 0.000000000000000000, -1.000000000000000000 ) ) ;
#77 = DIRECTION ( 'NONE',  ( 0.000000000000000000, 0.000000000000000000, 1.000000000000000000 ) ) ;
#78 = CIRCLE ( 'NONE', #90, 9.000000000000001776 ) ;
#79 = ORIENTED_EDGE ( 'NONE', *, *, #281, .F. ) ;
#80 = PRODUCT_DEFINITION ( 'UNKNOWN', '', #360, #99 ) ;
#81 = CARTESIAN_POINT ( 'NONE',  ( 0.000000000000000000, 8.500000000000000000, -16.00000000000000000 ) ) ;
#82 = AXIS2_PLACEMENT_3D ( 'NONE', #413, #215, #223 ) ;
#83 = ORIENTED_EDGE ( 'NONE', *, *, #173, .F. ) ;
#84 = ORIENTED_EDGE ( 'NONE', *, *, #243, .F. ) ;
#85 = DIRECTION ( 'NONE',  ( -0.000000000000000000, -0.000000000000000000, 1.000000000000000000 ) ) ;
#86 = AXIS2_PLACEMENT_3D ( 'NONE', #1, #156, #68 ) ;
#87 = CONICAL_SURFACE ( 'NONE', #82, 12.00000000000000178, 0.7853981633974500554 ) ;
#88 = CIRCLE ( 'NONE', #66, 9.000000000000001776 ) ;
#89 = DIRECTION ( 'NONE',  ( 1.000000000000000000, 0.000000000000000000, 0.000000000000000000 ) ) ;
#90 = AXIS2_PLACEMENT_3D ( 'NONE', #210, #85, #30 ) ;
#91 = STYLED_ITEM ( 'NONE', ( #301 ), #116 ) ;
#92 = ORIENTED_EDGE ( 'NONE', *, *, #290, .T. ) ;
#93 = DIRECTION ( 'NONE',  ( 0.000000000000000000, 0.000000000000000000, -1.000000000000000000 ) ) ;
#94 = AXIS2_PLACEMENT_3D ( 'NONE', #192, #134, #162 ) ;
#95 = DIRECTION ( 'NONE',  ( 0.000000000000000000, 0.000000000000000000, -1.000000000000000000 ) ) ;
#96 = AXIS2_PLACEMENT_3D ( 'NONE', #332, #11, #41 ) ;
#97 = CARTESIAN_POINT ( 'NONE',  ( 0.000000000000000000, 0.000000000000000000, -15.49999999999999822 ) ) ;
#98 =( NAMED_UNIT ( * ) SI_UNIT ( $, .STERADIAN. ) SOLID_ANGLE_UNIT ( ) );
#99 = PRODUCT_DEFINITION_CONTEXT ( 'detailed design', #357, 'design' ) ;
#100 = ADVANCED_FACE ( 'NONE', ( #314 ), #339, .T. ) ;
#101 = CONICAL_SURFACE ( 'NONE', #40, 11.49999999999999645, 0.7853981633974517207 ) ;
#102 = ORIENTED_EDGE ( 'NONE', *, *, #120, .T. ) ;
#103 = AXIS2_PLACEMENT_3D ( 'NONE', #161, #232, #261 ) ;
#104 = ORIENTED_EDGE ( 'NONE', *, *, #50, .T. ) ;
#105 = DIRECTION ( 'NONE',  ( -1.000000000000000000, 0.000000000000000000, 0.000000000000000000 ) ) ;
#106 = CARTESIAN_POINT ( 'NONE',  ( -8.500000000000000000, 1.040949779275250140E-15, -15.49999999999999822 ) ) ;
#107 = FACE_OUTER_BOUND ( 'NONE', #284, .T. ) ;
#108 = ORIENTED_EDGE ( 'NONE', *, *, #50, .F. ) ;
#109 = DIRECTION ( 'NONE',  ( -0.000000000000000000, -0.000000000000000000, 1.000000000000000000 ) ) ;
#110 = AXIS2_PLACEMENT_3D ( 'NONE', #293, #325, #382 ) ;
#111 = DIRECTION ( 'NONE',  ( -0.000000000000000000, -0.000000000000000000, 1.000000000000000000 ) ) ;
#112 = LINE ( 'NONE', #241, #185 ) ;
#113 = ORIENTED_EDGE ( 'NONE', *, *, #157, .F. ) ;
#114 = AXIS2_PLACEMENT_3D ( 'NONE', #32, #327, #191 ) ;
#115 = DIRECTION ( 'NONE',  ( 1.000000000000000000, 0.000000000000000000, 0.000000000000000000 ) ) ;
#116 = ADVANCED_BREP_SHAPE_REPRESENTATION ( 'Distanzh³lse Schneckenwelle', ( #300, #268 ), #271 ) ;
#117 = CIRCLE ( 'NONE', #136, 9.000000000000001776 ) ;
#118 = DIRECTION ( 'NONE',  ( -0.000000000000000000, -0.000000000000000000, 1.000000000000000000 ) ) ;
#119 = ORIENTED_EDGE ( 'NONE', *, *, #14, .T. ) ;
#120 = EDGE_CURVE ( 'NONE', #311, #287, #112, .T. ) ;
#121 = PRODUCT_DEFINITION_SHAPE ( 'NONE', 'NONE',  #80 ) ;
#122 = VECTOR ( 'NONE', #395, 1000.000000000000000 ) ;
#123 = LINE ( 'NONE', #164, #336 ) ;
#124 = VERTEX_POINT ( 'NONE', #169 ) ;
#125 = AXIS2_PLACEMENT_3D ( 'NONE', #39, #414, #193 ) ;
#126 = APPLICATION_CONTEXT ( 'automotive_design' ) ;
#127 = VECTOR ( 'NONE', #219, 1000.000000000000000 ) ;
#128 = DIRECTION ( 'NONE',  ( 0.000000000000000000, 0.000000000000000000, -1.000000000000000000 ) ) ;
#129 = FILL_AREA_STYLE_COLOUR ( '', #9 ) ;
#130 = AXIS2_PLACEMENT_3D ( 'NONE', #256, #95, #323 ) ;
#131 = COLOUR_RGB ( '',0.5294117647058823595, 0.5490196078431373028, 0.5490196078431373028 ) ;
#132 = ORIENTED_EDGE ( 'NONE', *, *, #290, .F. ) ;
#133 = ORIENTED_EDGE ( 'NONE', *, *, #249, .F. ) ;
#134 = DIRECTION ( 'NONE',  ( 0.000000000000000000, 0.000000000000000000, 1.000000000000000000 ) ) ;
#135 = FACE_OUTER_BOUND ( 'NONE', #334, .T. ) ;
#136 = AXIS2_PLACEMENT_3D ( 'NONE', #304, #203, #105 ) ;
#137 = ORIENTED_EDGE ( 'NONE', *, *, #138, .T. ) ;
#138 = EDGE_CURVE ( 'NONE', #287, #175, #141, .T. ) ;
#139 = DIRECTION ( 'NONE',  ( 1.000000000000000000, 0.000000000000000000, 0.000000000000000000 ) ) ;
#140 = LINE ( 'NONE', #47, #372 ) ;
#141 = CIRCLE ( 'NONE', #75, 12.00000000000000178 ) ;
#142 = EDGE_LOOP ( 'NONE', ( #309, #132, #176, #216 ) ) ;
#143 = EDGE_CURVE ( 'NONE', #263, #198, #78, .T. ) ;
#144 = ORIENTED_EDGE ( 'NONE', *, *, #338, .F. ) ;
#145 = ORIENTED_EDGE ( 'NONE', *, *, #270, .T. ) ;
#146 = PLANE ( 'NONE',  #369 ) ;
#147 = DIRECTION ( 'NONE',  ( 0.7071067811865487940, 0.000000000000000000, 0.7071067811865463515 ) ) ;
#148 = CIRCLE ( 'NONE', #52, 11.49999999999999645 ) ;
#149 =( LENGTH_UNIT ( ) NAMED_UNIT ( * ) SI_UNIT ( .MILLI., .METRE. ) );
#150 = ORIENTED_EDGE ( 'NONE', *, *, #338, .T. ) ;
#151 = AXIS2_PLACEMENT_3D ( 'NONE', #81, #174, #308 ) ;
#152 = CARTESIAN_POINT ( 'NONE',  ( -11.49999999999999645, 0.000000000000000000, 0.000000000000000000 ) ) ;
#153 = FILL_AREA_STYLE_COLOUR ( '', #131 ) ;
#154 = VERTEX_POINT ( 'NONE', #179 ) ;
#155 = DIRECTION ( 'NONE',  ( 1.000000000000000000, 0.000000000000000000, 0.000000000000000000 ) ) ;
#156 = DIRECTION ( 'NONE',  ( -0.000000000000000000, -0.000000000000000000, 1.000000000000000000 ) ) ;
#157 = EDGE_CURVE ( 'NONE', #255, #354, #140, .T. ) ;
#158 = CIRCLE ( 'NONE', #36, 12.00000000000000178 ) ;
#159 = CONICAL_SURFACE ( 'NONE', #46, 9.000000000000001776, 0.7853981633974466137 ) ;
#160 = CARTESIAN_POINT ( 'NONE',  ( -9.000000000000001776, 0.000000000000000000, -16.00000000000000000 ) ) ;
#161 = CARTESIAN_POINT ( 'NONE',  ( 0.000000000000000000, 0.000000000000000000, -15.49999999999999822 ) ) ;
#162 = DIRECTION ( 'NONE',  ( 1.000000000000000000, 0.000000000000000000, 0.000000000000000000 ) ) ;
#163 = PRESENTATION_LAYER_ASSIGNMENT (  '', '', ( #393 ) ) ;
#164 = CARTESIAN_POINT ( 'NONE',  ( -8.500000000000000000, 1.040949779275250140E-15, 0.000000000000000000 ) ) ;
#165 = ORIENTED_EDGE ( 'NONE', *, *, #254, .T. ) ;
#166 = ORIENTED_EDGE ( 'NONE', *, *, #281, .T. ) ;
#167 = CARTESIAN_POINT ( 'NONE',  ( -8.500000000000000000, 1.040949779275250140E-15, -0.5000000000000022204 ) ) ;
#168 = ADVANCED_FACE ( 'NONE', ( #43 ), #201, .T. ) ;
#169 = CARTESIAN_POINT ( 'NONE',  ( -11.49999999999999822, 1.438959988998139963E-15, -16.00000000000000000 ) ) ;
#170 = ADVANCED_FACE ( 'NONE', ( #2 ), #212, .F. ) ;
#171 = PLANE ( 'NONE',  #151 ) ;
#172 = VECTOR ( 'NONE', #6, 1000.000000000000000 ) ;
#173 = EDGE_CURVE ( 'NONE', #154, #276, #376, .T. ) ;
#174 = DIRECTION ( 'NONE',  ( 0.000000000000000000, -0.000000000000000000, 1.000000000000000000 ) ) ;
#175 = VERTEX_POINT ( 'NONE', #27 ) ;
#176 = ORIENTED_EDGE ( 'NONE', *, *, #59, .T. ) ;
#177 = MECHANICAL_DESIGN_GEOMETRIC_PRESENTATION_REPRESENTATION (  '', ( #91 ), #45 ) ;
#178 = CARTESIAN_POINT ( 'NONE',  ( 0.000000000000000000, 0.000000000000000000, 0.000000000000000000 ) ) ;
#179 = CARTESIAN_POINT ( 'NONE',  ( -8.500000000000000000, 1.040949779275250140E-15, -0.5000000000000022204 ) ) ;
#180 = DIRECTION ( 'NONE',  ( 0.000000000000000000, 0.000000000000000000, -1.000000000000000000 ) ) ;
#181 = LINE ( 'NONE', #267, #48 ) ;
#182 = EDGE_CURVE ( 'NONE', #349, #49, #292, .T. ) ;
#183 = CARTESIAN_POINT ( 'NONE',  ( 0.000000000000000000, 0.000000000000000000, -15.49999999999999822 ) ) ;
#184 = CARTESIAN_POINT ( 'NONE',  ( 12.00000000000000178, 0.000000000000000000, -15.49999999999999822 ) ) ;
#185 = VECTOR ( 'NONE', #400, 1000.000000000000114 ) ;
#186 = ORIENTED_EDGE ( 'NONE', *, *, #182, .F. ) ;
#187 = SURFACE_STYLE_USAGE ( .BOTH. , #318 ) ;
#188 = CIRCLE ( 'NONE', #194, 11.49999999999999645 ) ;
#189 = EDGE_LOOP ( 'NONE', ( #83, #165, #61, #251 ) ) ;
#190 = FILL_AREA_STYLE ('',( #129 ) ) ;
#191 = DIRECTION ( 'NONE',  ( 1.000000000000000000, 0.000000000000000000, 0.000000000000000000 ) ) ;
#192 = CARTESIAN_POINT ( 'NONE',  ( 0.000000000000000000, 0.000000000000000000, -0.5000000000000022204 ) ) ;
#193 = DIRECTION ( 'NONE',  ( 1.000000000000000000, 0.000000000000000000, 0.000000000000000000 ) ) ;
#194 = AXIS2_PLACEMENT_3D ( 'NONE', #236, #266, #302 ) ;
#195 = DIRECTION ( 'NONE',  ( -0.000000000000000000, -0.000000000000000000, 1.000000000000000000 ) ) ;
#196 = FACE_BOUND ( 'NONE', #208, .T. ) ;
#197 = FACE_BOUND ( 'NONE', #225, .T. ) ;
#198 = VERTEX_POINT ( 'NONE', #56 ) ;
#199 = CARTESIAN_POINT ( 'NONE',  ( 9.000000000000001776, 1.102182119232617911E-15, -16.00000000000000000 ) ) ;
#200 = DIRECTION ( 'NONE',  ( -1.000000000000000000, 0.000000000000000000, 0.000000000000000000 ) ) ;
#201 = CONICAL_SURFACE ( 'NONE', #365, 12.00000000000000178, 0.7853981633974500554 ) ;
#202 = ORIENTED_EDGE ( 'NONE', *, *, #381, .F. ) ;
#203 = DIRECTION ( 'NONE',  ( 0.000000000000000000, 0.000000000000000000, -1.000000000000000000 ) ) ;
#204 = CARTESIAN_POINT ( 'NONE',  ( 0.000000000000000000, 0.000000000000000000, -0.5000000000000022204 ) ) ;
#205 = EDGE_CURVE ( 'NONE', #255, #124, #286, .T. ) ;
#206 = CARTESIAN_POINT ( 'NONE',  ( 0.000000000000000000, 0.000000000000000000, 0.000000000000000000 ) ) ;
#207 = CONICAL_SURFACE ( 'NONE', #73, 9.000000000000001776, 0.7853981633974466137 ) ;
#208 = EDGE_LOOP ( 'NONE', ( #370, #361 ) ) ;
#209 = EDGE_LOOP ( 'NONE', ( #390, #102, #245, #144 ) ) ;
#210 = CARTESIAN_POINT ( 'NONE',  ( 0.000000000000000000, 0.000000000000000000, -16.00000000000000000 ) ) ;
#211 = MECHANICAL_DESIGN_GEOMETRIC_PRESENTATION_REPRESENTATION (  '', ( #393 ), #409 ) ;
#212 = CYLINDRICAL_SURFACE ( 'NONE', #217, 8.500000000000000000 ) ;
#213 = ORIENTED_EDGE ( 'NONE', *, *, #138, .F. ) ;
#214 = DIRECTION ( 'NONE',  ( -0.000000000000000000, -0.000000000000000000, 1.000000000000000000 ) ) ;
#215 = DIRECTION ( 'NONE',  ( -0.000000000000000000, -0.000000000000000000, 1.000000000000000000 ) ) ;
#216 = ORIENTED_EDGE ( 'NONE', *, *, #31, .F. ) ;
#217 = AXIS2_PLACEMENT_3D ( 'NONE', #279, #214, #89 ) ;
#218 = VERTEX_POINT ( 'NONE', #53 ) ;
#219 = DIRECTION ( 'NONE',  ( -0.000000000000000000, -0.000000000000000000, 1.000000000000000000 ) ) ;
#220 =( NAMED_UNIT ( * ) SI_UNIT ( $, .STERADIAN. ) SOLID_ANGLE_UNIT ( ) );
#221 = DIRECTION ( 'NONE',  ( 0.000000000000000000, 0.000000000000000000, 1.000000000000000000 ) ) ;
#222 = CARTESIAN_POINT ( 'NONE',  ( 0.000000000000000000, 0.000000000000000000, 0.000000000000000000 ) ) ;
#223 = DIRECTION ( 'NONE',  ( 1.000000000000000000, 0.000000000000000000, 0.000000000000000000 ) ) ;
#224 = LINE ( 'NONE', #152, #51 ) ;
#225 = EDGE_LOOP ( 'NONE', ( #166, #312 ) ) ;
#226 = DIRECTION ( 'NONE',  ( -0.000000000000000000, -0.000000000000000000, 1.000000000000000000 ) ) ;
#227 = DIRECTION ( 'NONE',  ( -1.000000000000000000, 0.000000000000000000, 0.000000000000000000 ) ) ;
#228 = EDGE_CURVE ( 'NONE', #124, #255, #359, .T. ) ;
#229 = ADVANCED_FACE ( 'NONE', ( #282 ), #207, .F. ) ;
#230 = FACE_OUTER_BOUND ( 'NONE', #396, .T. ) ;
#231 = ORIENTED_EDGE ( 'NONE', *, *, #143, .F. ) ;
#232 = DIRECTION ( 'NONE',  ( -0.000000000000000000, -0.000000000000000000, -1.000000000000000000 ) ) ;
#233 =( NAMED_UNIT ( * ) PLANE_ANGLE_UNIT ( ) SI_UNIT ( $, .RADIAN. ) );
#234 = DIRECTION ( 'NONE',  ( -0.000000000000000000, -0.000000000000000000, 1.000000000000000000 ) ) ;
#235 = EDGE_CURVE ( 'NONE', #218, #340, #117, .T. ) ;
#236 = CARTESIAN_POINT ( 'NONE',  ( 0.000000000000000000, 0.000000000000000000, 0.000000000000000000 ) ) ;
#237 = ORIENTED_EDGE ( 'NONE', *, *, #157, .T. ) ;
#238 = ORIENTED_EDGE ( 'NONE', *, *, #401, .T. ) ;
#239 = EDGE_CURVE ( 'NONE', #350, #354, #158, .T. ) ;
#240 = DIRECTION ( 'NONE',  ( -1.000000000000000000, 0.000000000000000000, 0.000000000000000000 ) ) ;
#241 = CARTESIAN_POINT ( 'NONE',  ( 11.49999999999999645, 1.408343819019455781E-15, 0.000000000000000000 ) ) ;
#242 = ORIENTED_EDGE ( 'NONE', *, *, #381, .T. ) ;
#243 = EDGE_CURVE ( 'NONE', #349, #263, #269, .T. ) ;
#244 = SHAPE_DEFINITION_REPRESENTATION ( #121, #116 ) ;
#245 = ORIENTED_EDGE ( 'NONE', *, *, #401, .F. ) ;
#246 = ORIENTED_EDGE ( 'NONE', *, *, #120, .F. ) ;
#247 = PRESENTATION_LAYER_ASSIGNMENT (  '', '', ( #91 ) ) ;
#248 = CARTESIAN_POINT ( 'NONE',  ( 8.500000000000000000, 0.000000000000000000, -0.5000000000000022204 ) ) ;
#249 = EDGE_CURVE ( 'NONE', #405, #311, #188, .T. ) ;
#250 = CIRCLE ( 'NONE', #316, 12.00000000000000178 ) ;
#251 = ORIENTED_EDGE ( 'NONE', *, *, #59, .F. ) ;
#252 = DIRECTION ( 'NONE',  ( 1.000000000000000000, 0.000000000000000000, 0.000000000000000000 ) ) ;
#253 = CONICAL_SURFACE ( 'NONE', #96, 11.49999999999999645, 0.7853981633974517207 ) ;
#254 = EDGE_CURVE ( 'NONE', #154, #340, #406, .T. ) ;
#255 = VERTEX_POINT ( 'NONE', #17 ) ;
#256 = CARTESIAN_POINT ( 'NONE',  ( 0.000000000000000000, 0.000000000000000000, -16.00000000000000000 ) ) ;
#257 = SURFACE_STYLE_FILL_AREA ( #190 ) ;
#258 = CARTESIAN_POINT ( 'NONE',  ( 0.000000000000000000, 0.000000000000000000, -0.5000000000000022204 ) ) ;
#259 = FACE_OUTER_BOUND ( 'NONE', #315, .T. ) ;
#260 = FACE_OUTER_BOUND ( 'NONE', #209, .T. ) ;
#261 = DIRECTION ( 'NONE',  ( 1.000000000000000000, 0.000000000000000000, 0.000000000000000000 ) ) ;
#262 = CIRCLE ( 'NONE', #103, 8.500000000000000000 ) ;
#263 = VERTEX_POINT ( 'NONE', #42 ) ;
#264 = ORIENTED_EDGE ( 'NONE', *, *, #239, .T. ) ;
#265 = DIRECTION ( 'NONE',  ( -0.000000000000000000, -0.000000000000000000, 1.000000000000000000 ) ) ;
#266 = DIRECTION ( 'NONE',  ( -0.000000000000000000, -0.000000000000000000, 1.000000000000000000 ) ) ;
#267 = CARTESIAN_POINT ( 'NONE',  ( -12.00000000000000178, 1.469576158976824144E-15, -15.49999999999999822 ) ) ;
#268 = AXIS2_PLACEMENT_3D ( 'NONE', #329, #391, #291 ) ;
#269 = LINE ( 'NONE', #199, #22 ) ;
#270 = EDGE_CURVE ( 'NONE', #311, #405, #148, .T. ) ;
#271 =( GEOMETRIC_REPRESENTATION_CONTEXT ( 3 ) GLOBAL_UNCERTAINTY_ASSIGNED_CONTEXT ( ( #277 ) ) GLOBAL_UNIT_ASSIGNED_CONTEXT ( ( #33, #289, #98 ) ) REPRESENTATION_CONTEXT ( 'NONE', 'WORKASPACE' ) );
#272 = CIRCLE ( 'NONE', #330, 8.500000000000000000 ) ;
#273 = ORIENTED_EDGE ( 'NONE', *, *, #356, .T. ) ;
#274 = ORIENTED_EDGE ( 'NONE', *, *, #5, .F. ) ;
#275 = CIRCLE ( 'NONE', #310, 9.000000000000001776 ) ;
#276 = VERTEX_POINT ( 'NONE', #248 ) ;
#277 = UNCERTAINTY_MEASURE_WITH_UNIT (LENGTH_MEASURE( 1.000000000000000082E-05 ), #33, 'distance_accuracy_value', 'NONE');
#278 = AXIS2_PLACEMENT_3D ( 'NONE', #97, #195, #155 ) ;
#279 = CARTESIAN_POINT ( 'NONE',  ( 0.000000000000000000, 0.000000000000000000, 0.000000000000000000 ) ) ;
#280 = FILL_AREA_STYLE ('',( #153 ) ) ;
#281 = EDGE_CURVE ( 'NONE', #198, #263, #275, .T. ) ;
#282 = FACE_OUTER_BOUND ( 'NONE', #389, .T. ) ;
#283 = LINE ( 'NONE', #7, #294 ) ;
#284 = EDGE_LOOP ( 'NONE', ( #378, #321, #202, #113 ) ) ;
#285 = DIRECTION ( 'NONE',  ( -0.000000000000000000, -0.000000000000000000, 1.000000000000000000 ) ) ;
#286 = CIRCLE ( 'NONE', #114, 11.49999999999999822 ) ;
#287 = VERTEX_POINT ( 'NONE', #343 ) ;
#288 = PRODUCT_CONTEXT ( 'NONE', #126, 'mechanical' ) ;
#289 =( NAMED_UNIT ( * ) PLANE_ANGLE_UNIT ( ) SI_UNIT ( $, .RADIAN. ) );
#290 = EDGE_CURVE ( 'NONE', #276, #154, #272, .T. ) ;
#291 = DIRECTION ( 'NONE',  ( 1.000000000000000000, 0.000000000000000000, 0.000000000000000000 ) ) ;
#292 = CIRCLE ( 'NONE', #110, 8.500000000000000000 ) ;
#293 = CARTESIAN_POINT ( 'NONE',  ( 0.000000000000000000, 0.000000000000000000, -15.49999999999999822 ) ) ;
#294 = VECTOR ( 'NONE', #265, 1000.000000000000000 ) ;
#295 = ORIENTED_EDGE ( 'NONE', *, *, #26, .F. ) ;
#296 = AXIS2_PLACEMENT_3D ( 'NONE', #355, #226, #387 ) ;
#297 =( NAMED_UNIT ( * ) SI_UNIT ( $, .STERADIAN. ) SOLID_ANGLE_UNIT ( ) );
#298 = ADVANCED_FACE ( 'NONE', ( #196, #135 ), #146, .F. ) ;
#299 = EDGE_CURVE ( 'NONE', #350, #175, #54, .T. ) ;
#300 = MANIFOLD_SOLID_BREP ( 'Fase1', #57 ) ;
#301 = PRESENTATION_STYLE_ASSIGNMENT (( #64 ) ) ;
#302 = DIRECTION ( 'NONE',  ( -1.000000000000000000, 0.000000000000000000, 0.000000000000000000 ) ) ;
#303 = ADVANCED_FACE ( 'NONE', ( #230 ), #101, .T. ) ;
#304 = CARTESIAN_POINT ( 'NONE',  ( 0.000000000000000000, 0.000000000000000000, 0.000000000000000000 ) ) ;
#305 = ADVANCED_FACE ( 'NONE', ( #107 ), #87, .T. ) ;
#306 = CARTESIAN_POINT ( 'NONE',  ( 8.500000000000000000, 0.000000000000000000, -0.5000000000000022204 ) ) ;
#307 = CYLINDRICAL_SURFACE ( 'NONE', #296, 12.00000000000000178 ) ;
#308 = DIRECTION ( 'NONE',  ( 1.000000000000000000, 0.000000000000000000, 0.000000000000000000 ) ) ;
#309 = ORIENTED_EDGE ( 'NONE', *, *, #254, .F. ) ;
#310 = AXIS2_PLACEMENT_3D ( 'NONE', #337, #118, #115 ) ;
#311 = VERTEX_POINT ( 'NONE', #63 ) ;
#312 = ORIENTED_EDGE ( 'NONE', *, *, #143, .T. ) ;
#313 = DIRECTION ( 'NONE',  ( -1.000000000000000000, 0.000000000000000000, 0.000000000000000000 ) ) ;
#314 = FACE_OUTER_BOUND ( 'NONE', #28, .T. ) ;
#315 = EDGE_LOOP ( 'NONE', ( #108, #273, #411, #92 ) ) ;
#316 = AXIS2_PLACEMENT_3D ( 'NONE', #258, #128, #324 ) ;
#317 = DIRECTION ( 'NONE',  ( -1.000000000000000000, 0.000000000000000000, 0.000000000000000000 ) ) ;
#318 = SURFACE_SIDE_STYLE ('',( #23 ) ) ;
#319 = EDGE_CURVE ( 'NONE', #349, #276, #388, .T. ) ;
#320 = ORIENTED_EDGE ( 'NONE', *, *, #243, .T. ) ;
#321 = ORIENTED_EDGE ( 'NONE', *, *, #5, .T. ) ;
#322 = SURFACE_SIDE_STYLE ('',( #257 ) ) ;
#323 = DIRECTION ( 'NONE',  ( 1.000000000000000000, 0.000000000000000000, 0.000000000000000000 ) ) ;
#324 = DIRECTION ( 'NONE',  ( -1.000000000000000000, 0.000000000000000000, 0.000000000000000000 ) ) ;
#325 = DIRECTION ( 'NONE',  ( -0.000000000000000000, -0.000000000000000000, -1.000000000000000000 ) ) ;
#326 = APPLICATION_PROTOCOL_DEFINITION ( 'draft international standard', 'automotive_design', 1998, #357 ) ;
#327 = DIRECTION ( 'NONE',  ( 0.000000000000000000, 0.000000000000000000, -1.000000000000000000 ) ) ;
#328 = EDGE_LOOP ( 'NONE', ( #362, #104, #12, #71 ) ) ;
#329 = CARTESIAN_POINT ( 'NONE',  ( 0.000000000000000000, 0.000000000000000000, 0.000000000000000000 ) ) ;
#330 = AXIS2_PLACEMENT_3D ( 'NONE', #399, #77, #373 ) ;
#331 = DIRECTION ( 'NONE',  ( 1.000000000000000000, 0.000000000000000000, 0.000000000000000000 ) ) ;
#332 = CARTESIAN_POINT ( 'NONE',  ( 0.000000000000000000, 0.000000000000000000, 0.000000000000000000 ) ) ;
#333 = ORIENTED_EDGE ( 'NONE', *, *, #239, .F. ) ;
#334 = EDGE_LOOP ( 'NONE', ( #35, #145 ) ) ;
#335 = DIRECTION ( 'NONE',  ( 0.7071067811865463515, 0.000000000000000000, 0.7071067811865487940 ) ) ;
#336 = VECTOR ( 'NONE', #109, 1000.000000000000000 ) ;
#337 = CARTESIAN_POINT ( 'NONE',  ( 0.000000000000000000, 0.000000000000000000, -16.00000000000000000 ) ) ;
#338 = EDGE_CURVE ( 'NONE', #405, #175, #224, .T. ) ;
#339 = CYLINDRICAL_SURFACE ( 'NONE', #341, 12.00000000000000178 ) ;
#340 = VERTEX_POINT ( 'NONE', #375 ) ;
#341 = AXIS2_PLACEMENT_3D ( 'NONE', #18, #111, #139 ) ;
#342 = CARTESIAN_POINT ( 'NONE',  ( 0.000000000000000000, 8.500000000000000000, 0.000000000000000000 ) ) ;
#343 = CARTESIAN_POINT ( 'NONE',  ( 12.00000000000000178, 0.000000000000000000, -0.5000000000000022204 ) ) ;
#344 = CIRCLE ( 'NONE', #278, 12.00000000000000178 ) ;
#345 = ORIENTED_EDGE ( 'NONE', *, *, #26, .T. ) ;
#346 = DIRECTION ( 'NONE',  ( -1.000000000000000000, 0.000000000000000000, 0.000000000000000000 ) ) ;
#347 = CARTESIAN_POINT ( 'NONE',  ( -12.00000000000000178, 1.469576158976824144E-15, 0.000000000000000000 ) ) ;
#348 = CONICAL_SURFACE ( 'NONE', #125, 8.500000000000000000, 0.7853981633974466137 ) ;
#349 = VERTEX_POINT ( 'NONE', #377 ) ;
#350 = VERTEX_POINT ( 'NONE', #380 ) ;
#351 = DIRECTION ( 'NONE',  ( -0.7071067811865500152, 0.000000000000000000, -0.7071067811865451302 ) ) ;
#352 = APPLICATION_PROTOCOL_DEFINITION ( 'draft international standard', 'automotive_design', 1998, #126 ) ;
#353 = PRESENTATION_STYLE_ASSIGNMENT (( #187 ) ) ;
#354 = VERTEX_POINT ( 'NONE', #184 ) ;
#355 = CARTESIAN_POINT ( 'NONE',  ( 0.000000000000000000, 0.000000000000000000, 0.000000000000000000 ) ) ;
#356 = EDGE_CURVE ( 'NONE', #49, #349, #262, .T. ) ;
#357 = APPLICATION_CONTEXT ( 'automotive_design' ) ;
#358 = ADVANCED_FACE ( 'NONE', ( #383 ), #348, .F. ) ;
#359 = CIRCLE ( 'NONE', #130, 11.49999999999999822 ) ;
#360 = PRODUCT_DEFINITION_FORMATION_WITH_SPECIFIED_SOURCE ( 'ANY', '', #374, .NOT_KNOWN. ) ;
#361 = ORIENTED_EDGE ( 'NONE', *, *, #31, .T. ) ;
#362 = ORIENTED_EDGE ( 'NONE', *, *, #182, .T. ) ;
#363 = CARTESIAN_POINT ( 'NONE',  ( 0.000000000000000000, 0.000000000000000000, -16.00000000000000000 ) ) ;
#364 = ADVANCED_FACE ( 'NONE', ( #34 ), #307, .T. ) ;
#365 = AXIS2_PLACEMENT_3D ( 'NONE', #183, #408, #252 ) ;
#366 = VECTOR ( 'NONE', #285, 1000.000000000000000 ) ;
#367 = EDGE_LOOP ( 'NONE', ( #242, #397, #238, #3 ) ) ;
#368 = FACE_OUTER_BOUND ( 'NONE', #24, .T. ) ;
#369 = AXIS2_PLACEMENT_3D ( 'NONE', #342, #180, #25 ) ;
#370 = ORIENTED_EDGE ( 'NONE', *, *, #235, .T. ) ;
#371 = UNCERTAINTY_MEASURE_WITH_UNIT (LENGTH_MEASURE( 1.000000000000000082E-05 ), #149, 'distance_accuracy_value', 'NONE');
#372 = VECTOR ( 'NONE', #147, 1000.000000000000000 ) ;
#373 = DIRECTION ( 'NONE',  ( -1.000000000000000000, 0.000000000000000000, 0.000000000000000000 ) ) ;
#374 = PRODUCT ( 'Distanzhülse Schneckenwelle', 'Distanzhülse Schneckenwelle', '', ( #288 ) ) ;
#375 = CARTESIAN_POINT ( 'NONE',  ( -9.000000000000001776, 1.102182119232617911E-15, 0.000000000000000000 ) ) ;
#376 = CIRCLE ( 'NONE', #404, 8.500000000000000000 ) ;
#377 = CARTESIAN_POINT ( 'NONE',  ( 8.500000000000000000, 0.000000000000000000, -15.49999999999999822 ) ) ;
#378 = ORIENTED_EDGE ( 'NONE', *, *, #228, .F. ) ;
#379 = PRODUCT_RELATED_PRODUCT_CATEGORY ( 'part', '', ( #374 ) ) ;
#380 = CARTESIAN_POINT ( 'NONE',  ( -12.00000000000000178, 1.469576158976824144E-15, -15.49999999999999822 ) ) ;
#381 = EDGE_CURVE ( 'NONE', #354, #350, #344, .T. ) ;
#382 = DIRECTION ( 'NONE',  ( 1.000000000000000000, 0.000000000000000000, 0.000000000000000000 ) ) ;
#383 = FACE_OUTER_BOUND ( 'NONE', #142, .T. ) ;
#384 = FACE_OUTER_BOUND ( 'NONE', #403, .T. ) ;
#385 = CARTESIAN_POINT ( 'NONE',  ( 0.000000000000000000, 0.000000000000000000, -16.00000000000000000 ) ) ;
#386 =( LENGTH_UNIT ( ) NAMED_UNIT ( * ) SI_UNIT ( .MILLI., .METRE. ) );
#387 = DIRECTION ( 'NONE',  ( 1.000000000000000000, 0.000000000000000000, 0.000000000000000000 ) ) ;
#388 = LINE ( 'NONE', #60, #127 ) ;
#389 = EDGE_LOOP ( 'NONE', ( #186, #320, #79, #295 ) ) ;
#390 = ORIENTED_EDGE ( 'NONE', *, *, #270, .F. ) ;
#391 = DIRECTION ( 'NONE',  ( 0.000000000000000000, 0.000000000000000000, 1.000000000000000000 ) ) ;
#392 = ADVANCED_FACE ( 'NONE', ( #259 ), #19, .F. ) ;
#393 = STYLED_ITEM ( 'NONE', ( #353 ), #300 ) ;
#394 = UNCERTAINTY_MEASURE_WITH_UNIT (LENGTH_MEASURE( 1.000000000000000082E-05 ), #386, 'distance_accuracy_value', 'NONE');
#395 = DIRECTION ( 'NONE',  ( -0.7071067811865463515, 8.659560562354918067E-17, 0.7071067811865487940 ) ) ;
#396 = EDGE_LOOP ( 'NONE', ( #246, #133, #150, #213 ) ) ;
#397 = ORIENTED_EDGE ( 'NONE', *, *, #299, .T. ) ;
#398 = DIRECTION ( 'NONE',  ( 0.000000000000000000, 0.000000000000000000, -1.000000000000000000 ) ) ;
#399 = CARTESIAN_POINT ( 'NONE',  ( 0.000000000000000000, 0.000000000000000000, -0.5000000000000022204 ) ) ;
#400 = DIRECTION ( 'NONE',  ( 0.7071067811865500152, 8.659560562354962440E-17, -0.7071067811865451302 ) ) ;
#401 = EDGE_CURVE ( 'NONE', #175, #287, #250, .T. ) ;
#402 = VECTOR ( 'NONE', #335, 1000.000000000000000 ) ;
#403 = EDGE_LOOP ( 'NONE', ( #84, #72, #345, #231 ) ) ;
#404 = AXIS2_PLACEMENT_3D ( 'NONE', #410, #221, #29 ) ;
#405 = VERTEX_POINT ( 'NONE', #4 ) ;
#406 = LINE ( 'NONE', #167, #122 ) ;
#407 = ORIENTED_EDGE ( 'NONE', *, *, #205, .F. ) ;
#408 = DIRECTION ( 'NONE',  ( -0.000000000000000000, -0.000000000000000000, 1.000000000000000000 ) ) ;
#409 =( GEOMETRIC_REPRESENTATION_CONTEXT ( 3 ) GLOBAL_UNCERTAINTY_ASSIGNED_CONTEXT ( ( #371 ) ) GLOBAL_UNIT_ASSIGNED_CONTEXT ( ( #149, #58, #220 ) ) REPRESENTATION_CONTEXT ( 'NONE', 'WORKASPACE' ) );
#410 = CARTESIAN_POINT ( 'NONE',  ( 0.000000000000000000, 0.000000000000000000, -0.5000000000000022204 ) ) ;
#411 = ORIENTED_EDGE ( 'NONE', *, *, #319, .T. ) ;
#412 = ORIENTED_EDGE ( 'NONE', *, *, #228, .T. ) ;
#413 = CARTESIAN_POINT ( 'NONE',  ( 0.000000000000000000, 0.000000000000000000, -15.49999999999999822 ) ) ;
#414 = DIRECTION ( 'NONE',  ( 0.000000000000000000, 0.000000000000000000, 1.000000000000000000 ) ) ;
ENDSEC;
END-ISO-10303-21;
