ISO-10303-21;
HEADER;
FILE_DESCRIPTION (( 'STEP AP214' ),
    '1' );
FILE_NAME ('Distanzhülse Klemmhebel M12.STEP',
    '2021-02-03T14:06:02',
    ( '' ),
    ( '' ),
    'SwSTEP 2.0',
    'SolidWorks 2018',
    '' );
FILE_SCHEMA (( 'AUTOMOTIVE_DESIGN' ));
ENDSEC;

DATA;
#1 =( GEOMETRIC_REPRESENTATION_CONTEXT ( 3 ) GLOBAL_UNCERTAINTY_ASSIGNED_CONTEXT ( ( #411 ) ) GLOBAL_UNIT_ASSIGNED_CONTEXT ( ( #353, #252, #164 ) ) REPRESENTATION_CONTEXT ( 'NONE', 'WORKASPACE' ) );
#2 = FACE_OUTER_BOUND ( 'NONE', #144, .T. ) ;
#3 = DIRECTION ( 'NONE',  ( -0.000000000000000000, -0.000000000000000000, 1.000000000000000000 ) ) ;
#4 = ORIENTED_EDGE ( 'NONE', *, *, #308, .F. ) ;
#5 = DIRECTION ( 'NONE',  ( 1.000000000000000000, 0.000000000000000000, 0.000000000000000000 ) ) ;
#6 = VECTOR ( 'NONE', #310, 1000.000000000000000 ) ;
#7 = AXIS2_PLACEMENT_3D ( 'NONE', #153, #309, #182 ) ;
#8 = VERTEX_POINT ( 'NONE', #217 ) ;
#9 = DIRECTION ( 'NONE',  ( -1.000000000000000000, 0.000000000000000000, 0.000000000000000000 ) ) ;
#10 = CARTESIAN_POINT ( 'NONE',  ( 0.000000000000000000, 0.000000000000000000, -7.000000000000006217 ) ) ;
#11 = VECTOR ( 'NONE', #135, 1000.000000000000000 ) ;
#12 = VERTEX_POINT ( 'NONE', #191 ) ;
#13 = AXIS2_PLACEMENT_3D ( 'NONE', #312, #123, #216 ) ;
#14 = CARTESIAN_POINT ( 'NONE',  ( 17.50000000000000000, 0.000000000000000000, -7.000000000000006217 ) ) ;
#15 = AXIS2_PLACEMENT_3D ( 'NONE', #395, #339, #147 ) ;
#16 = DIRECTION ( 'NONE',  ( 0.000000000000000000, 0.000000000000000000, -1.000000000000000000 ) ) ;
#17 = CIRCLE ( 'NONE', #200, 6.500000000000000000 ) ;
#18 = VERTEX_POINT ( 'NONE', #29 ) ;
#19 = DIRECTION ( 'NONE',  ( 1.000000000000000000, 0.000000000000000000, 0.000000000000000000 ) ) ;
#20 = EDGE_LOOP ( 'NONE', ( #133, #183 ) ) ;
#21 = CARTESIAN_POINT ( 'NONE',  ( 17.50000000000000000, 0.000000000000000000, -7.000000000000006217 ) ) ;
#22 = CARTESIAN_POINT ( 'NONE',  ( 6.500000000000000000, 0.000000000000000000, -7.000000000000006217 ) ) ;
#23 = ORIENTED_EDGE ( 'NONE', *, *, #223, .F. ) ;
#24 = AXIS2_PLACEMENT_3D ( 'NONE', #130, #161, #9 ) ;
#25 =( LENGTH_UNIT ( ) NAMED_UNIT ( * ) SI_UNIT ( .MILLI., .METRE. ) );
#26 = DIRECTION ( 'NONE',  ( 1.000000000000000000, 0.000000000000000000, 0.000000000000000000 ) ) ;
#27 = CARTESIAN_POINT ( 'NONE',  ( 16.99999999999998579, 2.081899558550499096E-15, 0.000000000000000000 ) ) ;
#28 = ADVANCED_FACE ( 'NONE', ( #48 ), #124, .T. ) ;
#29 = CARTESIAN_POINT ( 'NONE',  ( -6.500000000000000000, 7.960204194457795477E-16, -0.4999999999999882871 ) ) ;
#30 = ADVANCED_FACE ( 'NONE', ( #158 ), #368, .T. ) ;
#31 = ORIENTED_EDGE ( 'NONE', *, *, #408, .T. ) ;
#32 = EDGE_CURVE ( 'NONE', #323, #355, #201, .T. ) ;
#33 =( LENGTH_UNIT ( ) NAMED_UNIT ( * ) SI_UNIT ( .MILLI., .METRE. ) );
#34 = EDGE_CURVE ( 'NONE', #83, #273, #244, .T. ) ;
#35 = CARTESIAN_POINT ( 'NONE',  ( 0.000000000000000000, 0.000000000000000000, -7.000000000000006217 ) ) ;
#36 = CARTESIAN_POINT ( 'NONE',  ( 0.000000000000000000, 0.000000000000000000, 0.000000000000000000 ) ) ;
#37 = CARTESIAN_POINT ( 'NONE',  ( 0.000000000000000000, 0.000000000000000000, -7.000000000000006217 ) ) ;
#38 = AXIS2_PLACEMENT_3D ( 'NONE', #35, #3, #291 ) ;
#39 = LINE ( 'NONE', #304, #256 ) ;
#40 = LINE ( 'NONE', #381, #365 ) ;
#41 = ORIENTED_EDGE ( 'NONE', *, *, #109, .F. ) ;
#42 = ORIENTED_EDGE ( 'NONE', *, *, #109, .T. ) ;
#43 = ORIENTED_EDGE ( 'NONE', *, *, #231, .T. ) ;
#44 = DIRECTION ( 'NONE',  ( 1.000000000000000000, 0.000000000000000000, 0.000000000000000000 ) ) ;
#45 = CARTESIAN_POINT ( 'NONE',  ( 0.000000000000000000, 0.000000000000000000, -0.5000000000000212053 ) ) ;
#46 = AXIS2_PLACEMENT_3D ( 'NONE', #45, #49, #261 ) ;
#47 = FACE_OUTER_BOUND ( 'NONE', #219, .T. ) ;
#48 = FACE_OUTER_BOUND ( 'NONE', #89, .T. ) ;
#49 = DIRECTION ( 'NONE',  ( 0.000000000000000000, 0.000000000000000000, -1.000000000000000000 ) ) ;
#50 = CARTESIAN_POINT ( 'NONE',  ( 0.000000000000000000, 0.000000000000000000, 0.000000000000000000 ) ) ;
#51 = EDGE_CURVE ( 'NONE', #220, #12, #374, .T. ) ;
#52 = DIRECTION ( 'NONE',  ( 0.000000000000000000, -0.000000000000000000, 1.000000000000000000 ) ) ;
#53 = ORIENTED_EDGE ( 'NONE', *, *, #241, .F. ) ;
#54 = CARTESIAN_POINT ( 'NONE',  ( 0.000000000000000000, 0.000000000000000000, -7.500000000000000000 ) ) ;
#55 = ORIENTED_EDGE ( 'NONE', *, *, #168, .F. ) ;
#56 = CARTESIAN_POINT ( 'NONE',  ( -6.500000000000000000, 7.960204194457795477E-16, -7.000000000000006217 ) ) ;
#57 = PLANE ( 'NONE',  #394 ) ;
#58 = DIRECTION ( 'NONE',  ( -0.000000000000000000, -0.000000000000000000, 1.000000000000000000 ) ) ;
#59 = LINE ( 'NONE', #100, #11 ) ;
#60 = EDGE_CURVE ( 'NONE', #355, #323, #152, .T. ) ;
#61 =( NAMED_UNIT ( * ) PLANE_ANGLE_UNIT ( ) SI_UNIT ( $, .RADIAN. ) );
#62 = PRODUCT ( 'Distanzhülse Klemmhebel M12', 'Distanzhülse Klemmhebel M12', '', ( #190 ) ) ;
#63 = CARTESIAN_POINT ( 'NONE',  ( 0.000000000000000000, 0.000000000000000000, 0.000000000000000000 ) ) ;
#64 = COLOUR_RGB ( '',0.6470588235294117974, 0.6196078431372549211, 0.5882352941176470784 ) ;
#65 = FILL_AREA_STYLE ('',( #404 ) ) ;
#66 = ORIENTED_EDGE ( 'NONE', *, *, #194, .F. ) ;
#67 = ORIENTED_EDGE ( 'NONE', *, *, #308, .T. ) ;
#68 = CARTESIAN_POINT ( 'NONE',  ( 6.500000000000000000, 0.000000000000000000, 0.000000000000000000 ) ) ;
#69 = DIRECTION ( 'NONE',  ( -0.000000000000000000, -0.000000000000000000, 1.000000000000000000 ) ) ;
#70 = CIRCLE ( 'NONE', #294, 17.00000000000000711 ) ;
#71 = EDGE_CURVE ( 'NONE', #387, #167, #198, .T. ) ;
#72 = LINE ( 'NONE', #85, #197 ) ;
#73 = MANIFOLD_SOLID_BREP ( 'Fase1', #251 ) ;
#74 = VECTOR ( 'NONE', #343, 1000.000000000000000 ) ;
#75 = DIRECTION ( 'NONE',  ( -1.000000000000000000, 0.000000000000000000, 0.000000000000000000 ) ) ;
#76 = PRESENTATION_STYLE_ASSIGNMENT (( #314 ) ) ;
#77 = VECTOR ( 'NONE', #142, 1000.000000000000000 ) ;
#78 = ORIENTED_EDGE ( 'NONE', *, *, #51, .T. ) ;
#79 = CARTESIAN_POINT ( 'NONE',  ( 0.000000000000000000, 0.000000000000000000, 0.000000000000000000 ) ) ;
#80 = EDGE_CURVE ( 'NONE', #18, #83, #40, .T. ) ;
#81 = CARTESIAN_POINT ( 'NONE',  ( -6.999999999999988454, 0.000000000000000000, -7.500000000000000000 ) ) ;
#82 = CIRCLE ( 'NONE', #126, 6.999999999999988454 ) ;
#83 = VERTEX_POINT ( 'NONE', #316 ) ;
#84 = VERTEX_POINT ( 'NONE', #227 ) ;
#85 = CARTESIAN_POINT ( 'NONE',  ( 6.500000000000000000, 0.000000000000000000, -0.4999999999999882871 ) ) ;
#86 = ADVANCED_FACE ( 'NONE', ( #284 ), #138, .F. ) ;
#87 = LINE ( 'NONE', #14, #278 ) ;
#88 = CARTESIAN_POINT ( 'NONE',  ( -17.50000000000000000, 2.143131898507868248E-15, 0.000000000000000000 ) ) ;
#89 = EDGE_LOOP ( 'NONE', ( #189, #410, #297, #188 ) ) ;
#90 = DIRECTION ( 'NONE',  ( 1.000000000000000000, 0.000000000000000000, 0.000000000000000000 ) ) ;
#91 = VECTOR ( 'NONE', #399, 1000.000000000000114 ) ;
#92 = ORIENTED_EDGE ( 'NONE', *, *, #223, .T. ) ;
#93 = EDGE_LOOP ( 'NONE', ( #31, #43 ) ) ;
#94 = EDGE_CURVE ( 'NONE', #341, #163, #187, .T. ) ;
#95 = APPLICATION_CONTEXT ( 'automotive_design' ) ;
#96 = ADVANCED_FACE ( 'NONE', ( #2 ), #205, .F. ) ;
#97 = UNCERTAINTY_MEASURE_WITH_UNIT (LENGTH_MEASURE( 1.000000000000000082E-05 ), #25, 'distance_accuracy_value', 'NONE');
#98 = DIRECTION ( 'NONE',  ( -1.000000000000000000, 0.000000000000000000, 0.000000000000000000 ) ) ;
#99 = EDGE_LOOP ( 'NONE', ( #235, #139, #92, #233 ) ) ;
#100 = CARTESIAN_POINT ( 'NONE',  ( 17.50000000000000000, 0.000000000000000000, 0.000000000000000000 ) ) ;
#101 = DIRECTION ( 'NONE',  ( 0.000000000000000000, 0.000000000000000000, -1.000000000000000000 ) ) ;
#102 = EDGE_CURVE ( 'NONE', #405, #366, #396, .T. ) ;
#103 = CIRCLE ( 'NONE', #348, 6.500000000000000000 ) ;
#104 = ORIENTED_EDGE ( 'NONE', *, *, #287, .T. ) ;
#105 = ORIENTED_EDGE ( 'NONE', *, *, #203, .F. ) ;
#106 = EDGE_CURVE ( 'NONE', #405, #279, #17, .T. ) ;
#107 = SURFACE_STYLE_FILL_AREA ( #65 ) ;
#108 = DIRECTION ( 'NONE',  ( -0.000000000000000000, -0.000000000000000000, 1.000000000000000000 ) ) ;
#109 = EDGE_CURVE ( 'NONE', #366, #18, #344, .T. ) ;
#110 = DIRECTION ( 'NONE',  ( -0.000000000000000000, -0.000000000000000000, -1.000000000000000000 ) ) ;
#111 = ORIENTED_EDGE ( 'NONE', *, *, #51, .F. ) ;
#112 = DIRECTION ( 'NONE',  ( 1.000000000000000000, 0.000000000000000000, 0.000000000000000000 ) ) ;
#113 = EDGE_LOOP ( 'NONE', ( #240, #391 ) ) ;
#114 = PRODUCT_DEFINITION_SHAPE ( 'NONE', 'NONE',  #380 ) ;
#115 = CARTESIAN_POINT ( 'NONE',  ( 0.000000000000000000, 0.000000000000000000, 0.000000000000000000 ) ) ;
#116 = CARTESIAN_POINT ( 'NONE',  ( 0.000000000000000000, 0.000000000000000000, -7.500000000000000000 ) ) ;
#117 = DIRECTION ( 'NONE',  ( -0.000000000000000000, -0.000000000000000000, 1.000000000000000000 ) ) ;
#118 =( NAMED_UNIT ( * ) PLANE_ANGLE_UNIT ( ) SI_UNIT ( $, .RADIAN. ) );
#119 = FACE_OUTER_BOUND ( 'NONE', #169, .T. ) ;
#120 = SURFACE_SIDE_STYLE ('',( #107 ) ) ;
#121 = DIRECTION ( 'NONE',  ( -0.000000000000000000, -0.000000000000000000, 1.000000000000000000 ) ) ;
#122 = EDGE_CURVE ( 'NONE', #273, #83, #402, .T. ) ;
#123 = DIRECTION ( 'NONE',  ( 0.000000000000000000, 0.000000000000000000, 1.000000000000000000 ) ) ;
#124 = CYLINDRICAL_SURFACE ( 'NONE', #389, 17.50000000000000000 ) ;
#125 = ORIENTED_EDGE ( 'NONE', *, *, #106, .F. ) ;
#126 = AXIS2_PLACEMENT_3D ( 'NONE', #242, #277, #90 ) ;
#127 = DIRECTION ( 'NONE',  ( -0.7071067811865505703, 8.659560562354969836E-17, 0.7071067811865444641 ) ) ;
#128 = AXIS2_PLACEMENT_3D ( 'NONE', #272, #367, #26 ) ;
#129 = CIRCLE ( 'NONE', #406, 16.99999999999998579 ) ;
#130 = CARTESIAN_POINT ( 'NONE',  ( 0.000000000000000000, 0.000000000000000000, -7.500000000000000000 ) ) ;
#131 = ORIENTED_EDGE ( 'NONE', *, *, #106, .T. ) ;
#132 = AXIS2_PLACEMENT_3D ( 'NONE', #160, #378, #214 ) ;
#133 = ORIENTED_EDGE ( 'NONE', *, *, #122, .T. ) ;
#134 = EDGE_LOOP ( 'NONE', ( #346, #385, #359, #55 ) ) ;
#135 = DIRECTION ( 'NONE',  ( -0.000000000000000000, -0.000000000000000000, 1.000000000000000000 ) ) ;
#136 = DIRECTION ( 'NONE',  ( -0.7071067811865444641, 0.000000000000000000, -0.7071067811865505703 ) ) ;
#137 = CARTESIAN_POINT ( 'NONE',  ( 0.000000000000000000, 0.000000000000000000, 0.000000000000000000 ) ) ;
#138 = CONICAL_SURFACE ( 'NONE', #24, 6.999999999999988454, 0.7853981633974439491 ) ;
#139 = ORIENTED_EDGE ( 'NONE', *, *, #150, .F. ) ;
#140 = DIRECTION ( 'NONE',  ( -1.000000000000000000, 0.000000000000000000, 0.000000000000000000 ) ) ;
#141 = EDGE_CURVE ( 'NONE', #323, #12, #59, .T. ) ;
#142 = DIRECTION ( 'NONE',  ( -0.000000000000000000, -0.000000000000000000, 1.000000000000000000 ) ) ;
#143 = CARTESIAN_POINT ( 'NONE',  ( 0.000000000000000000, 0.000000000000000000, -0.5000000000000212053 ) ) ;
#144 = EDGE_LOOP ( 'NONE', ( #53, #211, #307, #42 ) ) ;
#145 = DIRECTION ( 'NONE',  ( 0.7071067811865505703, 0.000000000000000000, 0.7071067811865444641 ) ) ;
#146 = ORIENTED_EDGE ( 'NONE', *, *, #122, .F. ) ;
#147 = DIRECTION ( 'NONE',  ( 1.000000000000000000, 0.000000000000000000, 0.000000000000000000 ) ) ;
#148 = ADVANCED_FACE ( 'NONE', ( #271 ), #250, .T. ) ;
#149 = ADVANCED_BREP_SHAPE_REPRESENTATION ( 'Distanzh³lse Klemmhebel M12', ( #73, #13 ), #331 ) ;
#150 = EDGE_CURVE ( 'NONE', #279, #405, #103, .T. ) ;
#151 = CIRCLE ( 'NONE', #46, 17.50000000000000000 ) ;
#152 = CIRCLE ( 'NONE', #157, 17.50000000000000000 ) ;
#153 = CARTESIAN_POINT ( 'NONE',  ( 0.000000000000000000, 6.500000000000000000, 0.000000000000000000 ) ) ;
#154 = ADVANCED_FACE ( 'NONE', ( #358 ), #170, .T. ) ;
#155 = ADVANCED_FACE ( 'NONE', ( #390 ), #318, .T. ) ;
#156 = CONICAL_SURFACE ( 'NONE', #376, 6.999999999999988454, 0.7853981633974439491 ) ;
#157 = AXIS2_PLACEMENT_3D ( 'NONE', #37, #379, #249 ) ;
#158 = FACE_OUTER_BOUND ( 'NONE', #134, .T. ) ;
#159 = ORIENTED_EDGE ( 'NONE', *, *, #203, .T. ) ;
#160 = CARTESIAN_POINT ( 'NONE',  ( 0.000000000000000000, 0.000000000000000000, -7.000000000000006217 ) ) ;
#161 = DIRECTION ( 'NONE',  ( -0.000000000000000000, -0.000000000000000000, -1.000000000000000000 ) ) ;
#162 = VECTOR ( 'NONE', #136, 1000.000000000000000 ) ;
#163 = VERTEX_POINT ( 'NONE', #175 ) ;
#164 =( NAMED_UNIT ( * ) SI_UNIT ( $, .STERADIAN. ) SOLID_ANGLE_UNIT ( ) );
#165 = AXIS2_PLACEMENT_3D ( 'NONE', #414, #69, #44 ) ;
#166 = LINE ( 'NONE', #332, #77 ) ;
#167 = VERTEX_POINT ( 'NONE', #228 ) ;
#168 = EDGE_CURVE ( 'NONE', #341, #323, #87, .T. ) ;
#169 = EDGE_LOOP ( 'NONE', ( #4, #351, #146, #171 ) ) ;
#170 = CONICAL_SURFACE ( 'NONE', #321, 17.50000000000000000, 0.7853981633974482790 ) ;
#171 = ORIENTED_EDGE ( 'NONE', *, *, #276, .F. ) ;
#172 = CARTESIAN_POINT ( 'NONE',  ( 16.99999999999998579, 2.112515728529183278E-15, 0.000000000000000000 ) ) ;
#173 = EDGE_CURVE ( 'NONE', #405, #8, #39, .T. ) ;
#174 = CARTESIAN_POINT ( 'NONE',  ( 6.999999999999992006, 0.000000000000000000, 0.000000000000000000 ) ) ;
#175 = CARTESIAN_POINT ( 'NONE',  ( -17.00000000000000711, 2.112515728529184856E-15, -7.500000000000000000 ) ) ;
#176 = DIRECTION ( 'NONE',  ( -1.000000000000000000, 0.000000000000000000, 0.000000000000000000 ) ) ;
#177 = CIRCLE ( 'NONE', #259, 17.50000000000000000 ) ;
#178 = ORIENTED_EDGE ( 'NONE', *, *, #32, .T. ) ;
#179 = ORIENTED_EDGE ( 'NONE', *, *, #408, .F. ) ;
#180 = EDGE_CURVE ( 'NONE', #387, #220, #239, .T. ) ;
#181 = CARTESIAN_POINT ( 'NONE',  ( 6.500000000000000000, 0.000000000000000000, -0.4999999999999882871 ) ) ;
#182 = DIRECTION ( 'NONE',  ( -1.000000000000000000, 0.000000000000000000, -0.000000000000000000 ) ) ;
#183 = ORIENTED_EDGE ( 'NONE', *, *, #34, .T. ) ;
#184 = PRESENTATION_LAYER_ASSIGNMENT (  '', '', ( #255 ) ) ;
#185 = ADVANCED_FACE ( 'NONE', ( #311 ), #230, .T. ) ;
#186 = AXIS2_PLACEMENT_3D ( 'NONE', #262, #299, #176 ) ;
#187 = CIRCLE ( 'NONE', #325, 17.00000000000000711 ) ;
#188 = ORIENTED_EDGE ( 'NONE', *, *, #212, .T. ) ;
#189 = ORIENTED_EDGE ( 'NONE', *, *, #287, .F. ) ;
#190 = PRODUCT_CONTEXT ( 'NONE', #95, 'mechanical' ) ;
#191 = CARTESIAN_POINT ( 'NONE',  ( 17.50000000000000000, 0.000000000000000000, -0.5000000000000212053 ) ) ;
#192 = LINE ( 'NONE', #369, #91 ) ;
#193 = CARTESIAN_POINT ( 'NONE',  ( -16.99999999999998579, 0.000000000000000000, 0.000000000000000000 ) ) ;
#194 = EDGE_CURVE ( 'NONE', #220, #387, #129, .T. ) ;
#195 = DIRECTION ( 'NONE',  ( 0.000000000000000000, 0.000000000000000000, 1.000000000000000000 ) ) ;
#196 = DIRECTION ( 'NONE',  ( -0.7071067811865426878, 0.000000000000000000, -0.7071067811865524577 ) ) ;
#197 = VECTOR ( 'NONE', #145, 1000.000000000000000 ) ;
#198 = LINE ( 'NONE', #193, #397 ) ;
#199 = ORIENTED_EDGE ( 'NONE', *, *, #141, .F. ) ;
#200 = AXIS2_PLACEMENT_3D ( 'NONE', #352, #382, #5 ) ;
#201 = CIRCLE ( 'NONE', #38, 17.50000000000000000 ) ;
#202 = ORIENTED_EDGE ( 'NONE', *, *, #168, .T. ) ;
#203 = EDGE_CURVE ( 'NONE', #167, #12, #151, .T. ) ;
#204 = DIRECTION ( 'NONE',  ( 1.000000000000000000, 0.000000000000000000, 0.000000000000000000 ) ) ;
#205 = CYLINDRICAL_SURFACE ( 'NONE', #165, 6.500000000000000000 ) ;
#206 = EDGE_CURVE ( 'NONE', #163, #341, #70, .T. ) ;
#207 = DIRECTION ( 'NONE',  ( 0.7071067811865474617, 0.000000000000000000, 0.7071067811865474617 ) ) ;
#208 = CARTESIAN_POINT ( 'NONE',  ( 0.000000000000000000, 0.000000000000000000, -0.4999999999999882871 ) ) ;
#209 = CARTESIAN_POINT ( 'NONE',  ( 0.000000000000000000, 6.500000000000000000, -7.500000000000000000 ) ) ;
#210 = EDGE_LOOP ( 'NONE', ( #398, #258 ) ) ;
#211 = ORIENTED_EDGE ( 'NONE', *, *, #150, .T. ) ;
#212 = EDGE_CURVE ( 'NONE', #12, #167, #177, .T. ) ;
#213 = DIRECTION ( 'NONE',  ( 1.000000000000000000, 0.000000000000000000, 0.000000000000000000 ) ) ;
#214 = DIRECTION ( 'NONE',  ( 1.000000000000000000, 0.000000000000000000, 0.000000000000000000 ) ) ;
#215 = LINE ( 'NONE', #88, #6 ) ;
#216 = DIRECTION ( 'NONE',  ( 1.000000000000000000, 0.000000000000000000, 0.000000000000000000 ) ) ;
#217 = CARTESIAN_POINT ( 'NONE',  ( 6.999999999999988454, 8.572527594031459385E-16, -7.500000000000000000 ) ) ;
#218 = AXIS2_PLACEMENT_3D ( 'NONE', #388, #195, #288 ) ;
#219 = EDGE_LOOP ( 'NONE', ( #131, #296, #67, #330 ) ) ;
#220 = VERTEX_POINT ( 'NONE', #172 ) ;
#221 = APPLICATION_PROTOCOL_DEFINITION ( 'draft international standard', 'automotive_design', 1998, #246 ) ;
#222 = DIRECTION ( 'NONE',  ( 0.000000000000000000, 0.000000000000000000, -1.000000000000000000 ) ) ;
#223 = EDGE_CURVE ( 'NONE', #279, #84, #383, .T. ) ;
#224 = CIRCLE ( 'NONE', #357, 6.500000000000000000 ) ;
#225 = AXIS2_PLACEMENT_3D ( 'NONE', #137, #392, #75 ) ;
#226 = EDGE_LOOP ( 'NONE', ( #257, #386, #202, #315 ) ) ;
#227 = CARTESIAN_POINT ( 'NONE',  ( -6.999999999999988454, 0.000000000000000000, -7.500000000000000000 ) ) ;
#228 = CARTESIAN_POINT ( 'NONE',  ( -17.50000000000000000, 2.143131898507868248E-15, -0.5000000000000212053 ) ) ;
#229 = DIRECTION ( 'NONE',  ( -0.000000000000000000, -0.000000000000000000, 1.000000000000000000 ) ) ;
#230 = CYLINDRICAL_SURFACE ( 'NONE', #266, 17.50000000000000000 ) ;
#231 = EDGE_CURVE ( 'NONE', #8, #84, #354, .T. ) ;
#232 = COLOUR_RGB ( '',0.6470588235294117974, 0.6196078431372549211, 0.5882352941176470784 ) ;
#233 = ORIENTED_EDGE ( 'NONE', *, *, #231, .F. ) ;
#234 = DIRECTION ( 'NONE',  ( 1.000000000000000000, 0.000000000000000000, 0.000000000000000000 ) ) ;
#235 = ORIENTED_EDGE ( 'NONE', *, *, #173, .F. ) ;
#236 = AXIS2_PLACEMENT_3D ( 'NONE', #360, #222, #303 ) ;
#237 = CARTESIAN_POINT ( 'NONE',  ( -16.99999999999998579, 0.000000000000000000, 0.000000000000000000 ) ) ;
#238 =( NAMED_UNIT ( * ) SI_UNIT ( $, .STERADIAN. ) SOLID_ANGLE_UNIT ( ) );
#239 = CIRCLE ( 'NONE', #225, 16.99999999999998579 ) ;
#240 = ORIENTED_EDGE ( 'NONE', *, *, #94, .T. ) ;
#241 = EDGE_CURVE ( 'NONE', #279, #18, #166, .T. ) ;
#242 = CARTESIAN_POINT ( 'NONE',  ( 0.000000000000000000, 0.000000000000000000, -7.500000000000000000 ) ) ;
#243 = FACE_OUTER_BOUND ( 'NONE', #210, .T. ) ;
#244 = CIRCLE ( 'NONE', #384, 6.999999999999992006 ) ;
#245 = ORIENTED_EDGE ( 'NONE', *, *, #71, .T. ) ;
#246 = APPLICATION_CONTEXT ( 'automotive_design' ) ;
#247 = CARTESIAN_POINT ( 'NONE',  ( 0.000000000000000000, 0.000000000000000000, -7.500000000000000000 ) ) ;
#248 = PRODUCT_RELATED_PRODUCT_CATEGORY ( 'part', '', ( #62 ) ) ;
#249 = DIRECTION ( 'NONE',  ( 1.000000000000000000, 0.000000000000000000, 0.000000000000000000 ) ) ;
#250 = CONICAL_SURFACE ( 'NONE', #301, 16.99999999999998579, 0.7853981633974415066 ) ;
#251 = CLOSED_SHELL ( 'NONE', ( #407, #30, #280, #148, #342, #185, #403, #28, #340, #96, #155, #375, #154, #86 ) ) ;
#252 =( NAMED_UNIT ( * ) PLANE_ANGLE_UNIT ( ) SI_UNIT ( $, .RADIAN. ) );
#253 = MECHANICAL_DESIGN_GEOMETRIC_PRESENTATION_REPRESENTATION (  '', ( #327 ), #1 ) ;
#254 = CARTESIAN_POINT ( 'NONE',  ( 0.000000000000000000, 0.000000000000000000, 0.000000000000000000 ) ) ;
#255 = STYLED_ITEM ( 'NONE', ( #76 ), #149 ) ;
#256 = VECTOR ( 'NONE', #333, 1000.000000000000000 ) ;
#257 = ORIENTED_EDGE ( 'NONE', *, *, #362, .F. ) ;
#258 = ORIENTED_EDGE ( 'NONE', *, *, #194, .T. ) ;
#259 = AXIS2_PLACEMENT_3D ( 'NONE', #143, #16, #300 ) ;
#260 = EDGE_LOOP ( 'NONE', ( #66, #78, #105, #336 ) ) ;
#261 = DIRECTION ( 'NONE',  ( -1.000000000000000000, 0.000000000000000000, 0.000000000000000000 ) ) ;
#262 = CARTESIAN_POINT ( 'NONE',  ( 0.000000000000000000, 0.000000000000000000, 0.000000000000000000 ) ) ;
#263 = CARTESIAN_POINT ( 'NONE',  ( 0.000000000000000000, 0.000000000000000000, -7.000000000000006217 ) ) ;
#264 = CARTESIAN_POINT ( 'NONE',  ( 0.000000000000000000, 0.000000000000000000, -7.500000000000000000 ) ) ;
#265 = FACE_OUTER_BOUND ( 'NONE', #377, .T. ) ;
#266 = AXIS2_PLACEMENT_3D ( 'NONE', #79, #108, #393 ) ;
#267 = ORIENTED_EDGE ( 'NONE', *, *, #173, .T. ) ;
#268 = ORIENTED_EDGE ( 'NONE', *, *, #34, .F. ) ;
#269 = DIRECTION ( 'NONE',  ( -1.000000000000000000, 0.000000000000000000, 0.000000000000000000 ) ) ;
#270 = CARTESIAN_POINT ( 'NONE',  ( -17.50000000000000000, 2.143131898507868248E-15, -7.000000000000006217 ) ) ;
#271 = FACE_OUTER_BOUND ( 'NONE', #260, .T. ) ;
#272 = CARTESIAN_POINT ( 'NONE',  ( 0.000000000000000000, 0.000000000000000000, -0.4999999999999882871 ) ) ;
#273 = VERTEX_POINT ( 'NONE', #174 ) ;
#274 =( GEOMETRIC_REPRESENTATION_CONTEXT ( 3 ) GLOBAL_UNCERTAINTY_ASSIGNED_CONTEXT ( ( #337 ) ) GLOBAL_UNIT_ASSIGNED_CONTEXT ( ( #33, #61, #282 ) ) REPRESENTATION_CONTEXT ( 'NONE', 'WORKASPACE' ) );
#275 = PLANE ( 'NONE',  #7 ) ;
#276 = EDGE_CURVE ( 'NONE', #366, #273, #72, .T. ) ;
#277 = DIRECTION ( 'NONE',  ( -0.000000000000000000, -0.000000000000000000, 1.000000000000000000 ) ) ;
#278 = VECTOR ( 'NONE', #207, 1000.000000000000114 ) ;
#279 = VERTEX_POINT ( 'NONE', #56 ) ;
#280 = ADVANCED_FACE ( 'NONE', ( #119 ), #302, .F. ) ;
#281 = AXIS2_PLACEMENT_3D ( 'NONE', #115, #117, #213 ) ;
#282 =( NAMED_UNIT ( * ) SI_UNIT ( $, .STERADIAN. ) SOLID_ANGLE_UNIT ( ) );
#283 = SHAPE_DEFINITION_REPRESENTATION ( #114, #149 ) ;
#284 = FACE_OUTER_BOUND ( 'NONE', #99, .T. ) ;
#285 = DIRECTION ( 'NONE',  ( 0.000000000000000000, 0.000000000000000000, -1.000000000000000000 ) ) ;
#286 = ORIENTED_EDGE ( 'NONE', *, *, #212, .F. ) ;
#287 = EDGE_CURVE ( 'NONE', #355, #167, #215, .T. ) ;
#288 = DIRECTION ( 'NONE',  ( -1.000000000000000000, 0.000000000000000000, 0.000000000000000000 ) ) ;
#289 = FILL_AREA_STYLE ('',( #298 ) ) ;
#290 = PRODUCT_DEFINITION_FORMATION_WITH_SPECIFIED_SOURCE ( 'ANY', '', #62, .NOT_KNOWN. ) ;
#291 = DIRECTION ( 'NONE',  ( 1.000000000000000000, 0.000000000000000000, 0.000000000000000000 ) ) ;
#292 = FACE_BOUND ( 'NONE', #93, .T. ) ;
#293 = PRESENTATION_STYLE_ASSIGNMENT (( #322 ) ) ;
#294 = AXIS2_PLACEMENT_3D ( 'NONE', #264, #361, #19 ) ;
#295 = PRODUCT_DEFINITION_CONTEXT ( 'detailed design', #246, 'design' ) ;
#296 = ORIENTED_EDGE ( 'NONE', *, *, #241, .T. ) ;
#297 = ORIENTED_EDGE ( 'NONE', *, *, #141, .T. ) ;
#298 = FILL_AREA_STYLE_COLOUR ( '', #232 ) ;
#299 = DIRECTION ( 'NONE',  ( 0.000000000000000000, 0.000000000000000000, -1.000000000000000000 ) ) ;
#300 = DIRECTION ( 'NONE',  ( -1.000000000000000000, 0.000000000000000000, 0.000000000000000000 ) ) ;
#301 = AXIS2_PLACEMENT_3D ( 'NONE', #36, #101, #140 ) ;
#302 = CONICAL_SURFACE ( 'NONE', #15, 6.500000000000000000, 0.7853981633974526089 ) ;
#303 = DIRECTION ( 'NONE',  ( -1.000000000000000000, 0.000000000000000000, 0.000000000000000000 ) ) ;
#304 = CARTESIAN_POINT ( 'NONE',  ( 6.999999999999988454, 8.572527594031459385E-16, -7.500000000000000000 ) ) ;
#305 = CARTESIAN_POINT ( 'NONE',  ( 17.00000000000000711, 0.000000000000000000, -7.500000000000000000 ) ) ;
#306 = ORIENTED_EDGE ( 'NONE', *, *, #276, .T. ) ;
#307 = ORIENTED_EDGE ( 'NONE', *, *, #102, .T. ) ;
#308 = EDGE_CURVE ( 'NONE', #18, #366, #224, .T. ) ;
#309 = DIRECTION ( 'NONE',  ( 0.000000000000000000, 0.000000000000000000, -1.000000000000000000 ) ) ;
#310 = DIRECTION ( 'NONE',  ( -0.000000000000000000, -0.000000000000000000, 1.000000000000000000 ) ) ;
#311 = FACE_OUTER_BOUND ( 'NONE', #324, .T. ) ;
#312 = CARTESIAN_POINT ( 'NONE',  ( 0.000000000000000000, 0.000000000000000000, 0.000000000000000000 ) ) ;
#313 = SURFACE_STYLE_FILL_AREA ( #289 ) ;
#314 = SURFACE_STYLE_USAGE ( .BOTH. , #120 ) ;
#315 = ORIENTED_EDGE ( 'NONE', *, *, #60, .F. ) ;
#316 = CARTESIAN_POINT ( 'NONE',  ( -6.999999999999992006, 8.572527594031463329E-16, 0.000000000000000000 ) ) ;
#317 = SURFACE_SIDE_STYLE ('',( #313 ) ) ;
#318 = CONICAL_SURFACE ( 'NONE', #186, 16.99999999999998579, 0.7853981633974415066 ) ;
#319 = DIRECTION ( 'NONE',  ( 0.000000000000000000, 0.000000000000000000, -1.000000000000000000 ) ) ;
#320 = ORIENTED_EDGE ( 'NONE', *, *, #80, .F. ) ;
#321 = AXIS2_PLACEMENT_3D ( 'NONE', #263, #363, #204 ) ;
#322 = SURFACE_STYLE_USAGE ( .BOTH. , #317 ) ;
#323 = VERTEX_POINT ( 'NONE', #21 ) ;
#324 = EDGE_LOOP ( 'NONE', ( #178, #104, #159, #199 ) ) ;
#325 = AXIS2_PLACEMENT_3D ( 'NONE', #247, #319, #326 ) ;
#326 = DIRECTION ( 'NONE',  ( 1.000000000000000000, 0.000000000000000000, 0.000000000000000000 ) ) ;
#327 = STYLED_ITEM ( 'NONE', ( #293 ), #73 ) ;
#328 = DIRECTION ( 'NONE',  ( -1.000000000000000000, 0.000000000000000000, 0.000000000000000000 ) ) ;
#329 = VECTOR ( 'NONE', #413, 1000.000000000000000 ) ;
#330 = ORIENTED_EDGE ( 'NONE', *, *, #102, .F. ) ;
#331 =( GEOMETRIC_REPRESENTATION_CONTEXT ( 3 ) GLOBAL_UNCERTAINTY_ASSIGNED_CONTEXT ( ( #97 ) ) GLOBAL_UNIT_ASSIGNED_CONTEXT ( ( #25, #118, #238 ) ) REPRESENTATION_CONTEXT ( 'NONE', 'WORKASPACE' ) );
#332 = CARTESIAN_POINT ( 'NONE',  ( -6.500000000000000000, 7.960204194457795477E-16, 0.000000000000000000 ) ) ;
#333 = DIRECTION ( 'NONE',  ( 0.7071067811865444641, 8.659560562354895880E-17, -0.7071067811865505703 ) ) ;
#334 = AXIS2_PLACEMENT_3D ( 'NONE', #54, #58, #234 ) ;
#335 = FACE_OUTER_BOUND ( 'NONE', #370, .T. ) ;
#336 = ORIENTED_EDGE ( 'NONE', *, *, #71, .F. ) ;
#337 = UNCERTAINTY_MEASURE_WITH_UNIT (LENGTH_MEASURE( 1.000000000000000082E-05 ), #33, 'distance_accuracy_value', 'NONE');
#338 = DIRECTION ( 'NONE',  ( 0.000000000000000000, 0.000000000000000000, 1.000000000000000000 ) ) ;
#339 = DIRECTION ( 'NONE',  ( 0.000000000000000000, 0.000000000000000000, 1.000000000000000000 ) ) ;
#340 = ADVANCED_FACE ( 'NONE', ( #373, #292 ), #57, .F. ) ;
#341 = VERTEX_POINT ( 'NONE', #305 ) ;
#342 = ADVANCED_FACE ( 'NONE', ( #47 ), #349, .F. ) ;
#343 = DIRECTION ( 'NONE',  ( 0.7071067811865426878, 8.659560562354874926E-17, -0.7071067811865524577 ) ) ;
#344 = CIRCLE ( 'NONE', #218, 6.500000000000000000 ) ;
#345 = APPLICATION_PROTOCOL_DEFINITION ( 'draft international standard', 'automotive_design', 1998, #95 ) ;
#346 = ORIENTED_EDGE ( 'NONE', *, *, #206, .F. ) ;
#347 = DIRECTION ( 'NONE',  ( 1.000000000000000000, 0.000000000000000000, 0.000000000000000000 ) ) ;
#348 = AXIS2_PLACEMENT_3D ( 'NONE', #10, #110, #112 ) ;
#349 = CYLINDRICAL_SURFACE ( 'NONE', #281, 6.500000000000000000 ) ;
#350 = PRESENTATION_LAYER_ASSIGNMENT (  '', '', ( #327 ) ) ;
#351 = ORIENTED_EDGE ( 'NONE', *, *, #80, .T. ) ;
#352 = CARTESIAN_POINT ( 'NONE',  ( 0.000000000000000000, 0.000000000000000000, -7.000000000000006217 ) ) ;
#353 =( LENGTH_UNIT ( ) NAMED_UNIT ( * ) SI_UNIT ( .MILLI., .METRE. ) );
#354 = CIRCLE ( 'NONE', #334, 6.999999999999988454 ) ;
#355 = VERTEX_POINT ( 'NONE', #270 ) ;
#356 = EDGE_LOOP ( 'NONE', ( #111, #412, #245, #286 ) ) ;
#357 = AXIS2_PLACEMENT_3D ( 'NONE', #208, #338, #269 ) ;
#358 = FACE_OUTER_BOUND ( 'NONE', #226, .T. ) ;
#359 = ORIENTED_EDGE ( 'NONE', *, *, #32, .F. ) ;
#360 = CARTESIAN_POINT ( 'NONE',  ( 0.000000000000000000, 0.000000000000000000, 0.000000000000000000 ) ) ;
#361 = DIRECTION ( 'NONE',  ( 0.000000000000000000, 0.000000000000000000, -1.000000000000000000 ) ) ;
#362 = EDGE_CURVE ( 'NONE', #163, #355, #192, .T. ) ;
#363 = DIRECTION ( 'NONE',  ( -0.000000000000000000, -0.000000000000000000, 1.000000000000000000 ) ) ;
#364 = CONICAL_SURFACE ( 'NONE', #128, 6.500000000000000000, 0.7853981633974526089 ) ;
#365 = VECTOR ( 'NONE', #127, 1000.000000000000000 ) ;
#366 = VERTEX_POINT ( 'NONE', #181 ) ;
#367 = DIRECTION ( 'NONE',  ( 0.000000000000000000, 0.000000000000000000, 1.000000000000000000 ) ) ;
#368 = CONICAL_SURFACE ( 'NONE', #132, 17.50000000000000000, 0.7853981633974482790 ) ;
#369 = CARTESIAN_POINT ( 'NONE',  ( -17.50000000000000000, 2.143131898507868248E-15, -7.000000000000006217 ) ) ;
#370 = EDGE_LOOP ( 'NONE', ( #320, #41, #306, #268 ) ) ;
#371 = DIRECTION ( 'NONE',  ( -0.000000000000000000, -0.000000000000000000, -1.000000000000000000 ) ) ;
#372 = DIRECTION ( 'NONE',  ( 1.000000000000000000, 0.000000000000000000, 0.000000000000000000 ) ) ;
#373 = FACE_OUTER_BOUND ( 'NONE', #113, .T. ) ;
#374 = LINE ( 'NONE', #27, #74 ) ;
#375 = ADVANCED_FACE ( 'NONE', ( #335 ), #364, .F. ) ;
#376 = AXIS2_PLACEMENT_3D ( 'NONE', #116, #371, #400 ) ;
#377 = EDGE_LOOP ( 'NONE', ( #125, #267, #179, #23 ) ) ;
#378 = DIRECTION ( 'NONE',  ( -0.000000000000000000, -0.000000000000000000, 1.000000000000000000 ) ) ;
#379 = DIRECTION ( 'NONE',  ( -0.000000000000000000, -0.000000000000000000, 1.000000000000000000 ) ) ;
#380 = PRODUCT_DEFINITION ( 'UNKNOWN', '', #290, #295 ) ;
#381 = CARTESIAN_POINT ( 'NONE',  ( -6.500000000000000000, 7.960204194457795477E-16, -0.4999999999999882871 ) ) ;
#382 = DIRECTION ( 'NONE',  ( -0.000000000000000000, -0.000000000000000000, -1.000000000000000000 ) ) ;
#383 = LINE ( 'NONE', #81, #162 ) ;
#384 = AXIS2_PLACEMENT_3D ( 'NONE', #254, #285, #98 ) ;
#385 = ORIENTED_EDGE ( 'NONE', *, *, #362, .T. ) ;
#386 = ORIENTED_EDGE ( 'NONE', *, *, #94, .F. ) ;
#387 = VERTEX_POINT ( 'NONE', #237 ) ;
#388 = CARTESIAN_POINT ( 'NONE',  ( 0.000000000000000000, 0.000000000000000000, -0.4999999999999882871 ) ) ;
#389 = AXIS2_PLACEMENT_3D ( 'NONE', #63, #121, #347 ) ;
#390 = FACE_OUTER_BOUND ( 'NONE', #356, .T. ) ;
#391 = ORIENTED_EDGE ( 'NONE', *, *, #206, .T. ) ;
#392 = DIRECTION ( 'NONE',  ( -0.000000000000000000, -0.000000000000000000, 1.000000000000000000 ) ) ;
#393 = DIRECTION ( 'NONE',  ( 1.000000000000000000, 0.000000000000000000, 0.000000000000000000 ) ) ;
#394 = AXIS2_PLACEMENT_3D ( 'NONE', #209, #52, #372 ) ;
#395 = CARTESIAN_POINT ( 'NONE',  ( 0.000000000000000000, 0.000000000000000000, -0.4999999999999882871 ) ) ;
#396 = LINE ( 'NONE', #68, #329 ) ;
#397 = VECTOR ( 'NONE', #196, 1000.000000000000000 ) ;
#398 = ORIENTED_EDGE ( 'NONE', *, *, #180, .T. ) ;
#399 = DIRECTION ( 'NONE',  ( -0.7071067811865474617, 8.659560562354932858E-17, 0.7071067811865474617 ) ) ;
#400 = DIRECTION ( 'NONE',  ( -1.000000000000000000, 0.000000000000000000, 0.000000000000000000 ) ) ;
#401 = MECHANICAL_DESIGN_GEOMETRIC_PRESENTATION_REPRESENTATION (  '', ( #255 ), #274 ) ;
#402 = CIRCLE ( 'NONE', #236, 6.999999999999992006 ) ;
#403 = ADVANCED_FACE ( 'NONE', ( #243, #409 ), #275, .F. ) ;
#404 = FILL_AREA_STYLE_COLOUR ( '', #64 ) ;
#405 = VERTEX_POINT ( 'NONE', #22 ) ;
#406 = AXIS2_PLACEMENT_3D ( 'NONE', #50, #229, #328 ) ;
#407 = ADVANCED_FACE ( 'NONE', ( #265 ), #156, .F. ) ;
#408 = EDGE_CURVE ( 'NONE', #84, #8, #82, .T. ) ;
#409 = FACE_BOUND ( 'NONE', #20, .T. ) ;
#410 = ORIENTED_EDGE ( 'NONE', *, *, #60, .T. ) ;
#412 = ORIENTED_EDGE ( 'NONE', *, *, #180, .F. ) ;
#411 = UNCERTAINTY_MEASURE_WITH_UNIT (LENGTH_MEASURE( 1.000000000000000082E-05 ), #353, 'distance_accuracy_value', 'NONE');
#413 = DIRECTION ( 'NONE',  ( -0.000000000000000000, -0.000000000000000000, 1.000000000000000000 ) ) ;
#414 = CARTESIAN_POINT ( 'NONE',  ( 0.000000000000000000, 0.000000000000000000, 0.000000000000000000 ) ) ;
ENDSEC;
END-ISO-10303-21;
