ISO-10303-21;
HEADER;
FILE_DESCRIPTION (( 'STEP AP214' ),
    '1' );
FILE_NAME ('202500220_03_Welle_V1.0.STEP',
    '2025-04-28T13:43:10',
    ( '' ),
    ( '' ),
    'SwSTEP 2.0',
    'SolidWorks 2021',
    '' );
FILE_SCHEMA (( 'AUTOMOTIVE_DESIGN' ));
ENDSEC;

DATA;
#1 =( NAMED_UNIT ( * ) PLANE_ANGLE_UNIT ( ) SI_UNIT ( $, .RADIAN. ) );
#2 = CARTESIAN_POINT ( 'NONE',  ( -400.0000000000000000, 14.99999999999980993, 1.836970198721012628E-15 ) ) ;
#3 = DIRECTION ( 'NONE',  ( -1.000000000000000000, -1.214306433183765213E-16, -0.000000000000000000 ) ) ;
#4 = ORIENTED_EDGE ( 'NONE', *, *, #830, .F. ) ;
#5 =( NAMED_UNIT ( * ) PLANE_ANGLE_UNIT ( ) SI_UNIT ( $, .RADIAN. ) );
#6 = EDGE_CURVE ( 'NONE', #636, #553, #181, .T. ) ;
#7 = ORIENTED_EDGE ( 'NONE', *, *, #272, .F. ) ;
#8 = PLANE ( 'NONE',  #767 ) ;
#9 = CIRCLE ( 'NONE', #162, 14.99999999999986144 ) ;
#10 = CARTESIAN_POINT ( 'NONE',  ( -94.99999999999997158, -1.153591111524576402E-14, 0.000000000000000000 ) ) ;
#11 = AXIS2_PLACEMENT_3D ( 'NONE', #239, #759, #230 ) ;
#12 = CYLINDRICAL_SURFACE ( 'NONE', #682, 14.99999999999985967 ) ;
#13 = ORIENTED_EDGE ( 'NONE', *, *, #24, .F. ) ;
#14 = DIRECTION ( 'NONE',  ( 0.000000000000000000, 1.000000000000000000, 0.000000000000000000 ) ) ;
#15 = CARTESIAN_POINT ( 'NONE',  ( -400.0000000000000000, -4.857225732735061127E-14, 0.000000000000000000 ) ) ;
#16 = FILL_AREA_STYLE ('',( #401 ) ) ;
#17 = ORIENTED_EDGE ( 'NONE', *, *, #231, .T. ) ;
#18 = UNCERTAINTY_MEASURE_WITH_UNIT (LENGTH_MEASURE( 1.000000000000000082E-05 ), #140, 'distance_accuracy_value', 'NONE');
#19 = DIRECTION ( 'NONE',  ( 1.000000000000000000, 1.214306433183765213E-16, 0.000000000000000000 ) ) ;
#20 = DIRECTION ( 'NONE',  ( 0.000000000000000000, 1.000000000000000000, 0.000000000000000000 ) ) ;
#21 = EDGE_LOOP ( 'NONE', ( #638, #34, #545, #780 ) ) ;
#22 = DIRECTION ( 'NONE',  ( -1.000000000000000000, -1.214306433183765213E-16, -0.000000000000000000 ) ) ;
#23 = DIRECTION ( 'NONE',  ( -0.7071067811865731079, -0.7071067811865219266, 0.000000000000000000 ) ) ;
#24 = EDGE_CURVE ( 'NONE', #132, #592, #347, .T. ) ;
#25 = CYLINDRICAL_SURFACE ( 'NONE', #377, 14.99999999999982592 ) ;
#26 = AXIS2_PLACEMENT_3D ( 'NONE', #810, #565, #574 ) ;
#27 = AXIS2_PLACEMENT_3D ( 'NONE', #637, #319, #124 ) ;
#28 = VERTEX_POINT ( 'NONE', #503 ) ;
#29 = DIRECTION ( 'NONE',  ( 1.000000000000000000, 1.214306433183765213E-16, 0.000000000000000000 ) ) ;
#30 = FACE_OUTER_BOUND ( 'NONE', #291, .T. ) ;
#31 = EDGE_LOOP ( 'NONE', ( #471, #380 ) ) ;
#32 = DIRECTION ( 'NONE',  ( 0.000000000000000000, 1.000000000000000000, 0.000000000000000000 ) ) ;
#33 = DIRECTION ( 'NONE',  ( -1.000000000000000000, -1.214306433183765213E-16, -0.000000000000000000 ) ) ;
#34 = ORIENTED_EDGE ( 'NONE', *, *, #538, .F. ) ;
#35 = CARTESIAN_POINT ( 'NONE',  ( -1.387778780781444936E-16, 7.222237291451926444E-33, 0.000000000000000000 ) ) ;
#36 = CIRCLE ( 'NONE', #414, 14.99999999999985967 ) ;
#37 = DIRECTION ( 'NONE',  ( 0.000000000000000000, 1.000000000000000000, 0.000000000000000000 ) ) ;
#38 = ORIENTED_EDGE ( 'NONE', *, *, #106, .T. ) ;
#39 = CIRCLE ( 'NONE', #251, 9.999999999999991118 ) ;
#40 = AXIS2_PLACEMENT_3D ( 'NONE', #305, #297, #561 ) ;
#41 = FACE_BOUND ( 'NONE', #571, .T. ) ;
#42 = ORIENTED_EDGE ( 'NONE', *, *, #793, .T. ) ;
#43 = CARTESIAN_POINT ( 'NONE',  ( -370.0000000000000000, -4.492933802779931637E-14, 0.000000000000000000 ) ) ;
#44 = EDGE_CURVE ( 'NONE', #483, #83, #769, .T. ) ;
#45 =( NAMED_UNIT ( * ) SI_UNIT ( $, .STERADIAN. ) SOLID_ANGLE_UNIT ( ) );
#46 = ORIENTED_EDGE ( 'NONE', *, *, #412, .F. ) ;
#47 = DIRECTION ( 'NONE',  ( -1.000000000000000000, -1.214306433183765213E-16, -0.000000000000000000 ) ) ;
#48 = CARTESIAN_POINT ( 'NONE',  ( -114.9999999999999858, 14.99999999999984546, 1.836970198721012628E-15 ) ) ;
#49 = AXIS2_PLACEMENT_3D ( 'NONE', #797, #557, #426 ) ;
#50 = ORIENTED_EDGE ( 'NONE', *, *, #573, .F. ) ;
#51 = AXIS2_PLACEMENT_3D ( 'NONE', #275, #22, #14 ) ;
#52 = DIRECTION ( 'NONE',  ( -1.000000000000000000, -1.214306433183765213E-16, -0.000000000000000000 ) ) ;
#53 = ORIENTED_EDGE ( 'NONE', *, *, #625, .T. ) ;
#54 = CARTESIAN_POINT ( 'NONE',  ( -400.0000000000000000, -4.857225732735061127E-14, 0.000000000000000000 ) ) ;
#55 = ORIENTED_EDGE ( 'NONE', *, *, #434, .F. ) ;
#56 = DIRECTION ( 'NONE',  ( -1.000000000000000000, -1.214306433183765213E-16, -0.000000000000000000 ) ) ;
#57 = ADVANCED_FACE ( 'NONE', ( #760 ), #718, .F. ) ;
#58 = VERTEX_POINT ( 'NONE', #122 ) ;
#59 = SURFACE_STYLE_FILL_AREA ( #771 ) ;
#60 =( NAMED_UNIT ( * ) PLANE_ANGLE_UNIT ( ) SI_UNIT ( $, .RADIAN. ) );
#61 = VERTEX_POINT ( 'NONE', #389 ) ;
#62 = LINE ( 'NONE', #2, #112 ) ;
#63 = EDGE_CURVE ( 'NONE', #490, #765, #331, .T. ) ;
#64 = SURFACE_STYLE_USAGE ( .BOTH. , #529 ) ;
#65 = VERTEX_POINT ( 'NONE', #67 ) ;
#66 = DIRECTION ( 'NONE',  ( 0.000000000000000000, 1.000000000000000000, 0.000000000000000000 ) ) ;
#67 = CARTESIAN_POINT ( 'NONE',  ( -109.5999999999999801, 14.29999999999998650, 0.000000000000000000 ) ) ;
#68 = VERTEX_POINT ( 'NONE', #187 ) ;
#69 = VECTOR ( 'NONE', #819, 1000.000000000000000 ) ;
#70 = CARTESIAN_POINT ( 'NONE',  ( -107.9999999999999716, -1.311450947838466006E-14, 0.000000000000000000 ) ) ;
#71 = AXIS2_PLACEMENT_3D ( 'NONE', #788, #604, #811 ) ;
#72 = FACE_OUTER_BOUND ( 'NONE', #154, .T. ) ;
#73 = VERTEX_POINT ( 'NONE', #595 ) ;
#74 = DIRECTION ( 'NONE',  ( 1.214306433183765213E-16, -1.000000000000000000, 0.000000000000000000 ) ) ;
#75 = EDGE_CURVE ( 'NONE', #525, #68, #248, .T. ) ;
#76 = DIRECTION ( 'NONE',  ( -1.000000000000000000, -1.214306433183765213E-16, -0.000000000000000000 ) ) ;
#77 = CARTESIAN_POINT ( 'NONE',  ( -114.9999999999999858, -1.396452398161329869E-14, 0.000000000000000000 ) ) ;
#78 = VERTEX_POINT ( 'NONE', #456 ) ;
#79 = DIRECTION ( 'NONE',  ( -1.000000000000000000, -1.214306433183765213E-16, -0.000000000000000000 ) ) ;
#80 = ADVANCED_FACE ( 'NONE', ( #72 ), #12, .T. ) ;
#81 = DIRECTION ( 'NONE',  ( 1.214306433183764966E-16, -1.000000000000000000, 0.000000000000000000 ) ) ;
#82 = CARTESIAN_POINT ( 'NONE',  ( -400.0000000000000000, -14.99999999999990763, 0.000000000000000000 ) ) ;
#83 = VERTEX_POINT ( 'NONE', #466 ) ;
#84 = DIRECTION ( 'NONE',  ( -1.000000000000000000, -1.214306433183765213E-16, -0.000000000000000000 ) ) ;
#85 = DIRECTION ( 'NONE',  ( -1.000000000000000000, -1.214306433183765213E-16, -0.000000000000000000 ) ) ;
#86 = VECTOR ( 'NONE', #84, 1000.000000000000000 ) ;
#87 = STYLED_ITEM ( 'NONE', ( #639 ), #786 ) ;
#88 = ORIENTED_EDGE ( 'NONE', *, *, #260, .F. ) ;
#89 = CARTESIAN_POINT ( 'NONE',  ( -400.0000000000000000, -4.857225732735061127E-14, 0.000000000000000000 ) ) ;
#90 = DIRECTION ( 'NONE',  ( -1.000000000000000000, -1.214306433183765213E-16, -0.000000000000000000 ) ) ;
#91 = ADVANCED_FACE ( 'NONE', ( #452 ), #198, .T. ) ;
#92 = ORIENTED_EDGE ( 'NONE', *, *, #396, .T. ) ;
#93 = PLANE ( 'NONE',  #498 ) ;
#94 = CARTESIAN_POINT ( 'NONE',  ( -400.0000000000000000, -4.857225732735061127E-14, 0.000000000000000000 ) ) ;
#95 = ORIENTED_EDGE ( 'NONE', *, *, #201, .F. ) ;
#96 = FACE_OUTER_BOUND ( 'NONE', #575, .T. ) ;
#97 = AXIS2_PLACEMENT_3D ( 'NONE', #159, #290, #551 ) ;
#98 = DIRECTION ( 'NONE',  ( -1.000000000000000000, -1.214306433183765213E-16, -0.000000000000000000 ) ) ;
#99 = ORIENTED_EDGE ( 'NONE', *, *, #363, .T. ) ;
#100 = STYLED_ITEM ( 'NONE', ( #186 ), #504 ) ;
#101 = CIRCLE ( 'NONE', #27, 17.49999999999983658 ) ;
#102 = DIRECTION ( 'NONE',  ( -1.000000000000000000, -1.214306433183765213E-16, -0.000000000000000000 ) ) ;
#103 = ADVANCED_FACE ( 'NONE', ( #662 ), #258, .T. ) ;
#104 = ORIENTED_EDGE ( 'NONE', *, *, #333, .F. ) ;
#105 = DIRECTION ( 'NONE',  ( 1.000000000000000000, 1.214306433183765213E-16, 0.000000000000000000 ) ) ;
#106 = EDGE_CURVE ( 'NONE', #600, #742, #191, .T. ) ;
#107 = EDGE_LOOP ( 'NONE', ( #532, #719, #38, #506 ) ) ;
#108 = DIRECTION ( 'NONE',  ( 0.000000000000000000, 1.000000000000000000, 0.000000000000000000 ) ) ;
#109 = FACE_OUTER_BOUND ( 'NONE', #199, .T. ) ;
#110 = PRESENTATION_LAYER_ASSIGNMENT (  '', '', ( #709 ) ) ;
#111 = ORIENTED_EDGE ( 'NONE', *, *, #75, .F. ) ;
#112 = VECTOR ( 'NONE', #268, 1000.000000000000000 ) ;
#113 = DIRECTION ( 'NONE',  ( 0.000000000000000000, -1.000000000000000000, 0.000000000000000000 ) ) ;
#114 = CIRCLE ( 'NONE', #755, 11.99999999999988098 ) ;
#115 = ORIENTED_EDGE ( 'NONE', *, *, #747, .T. ) ;
#116 = EDGE_CURVE ( 'NONE', #28, #232, #764, .T. ) ;
#117 = APPLICATION_CONTEXT ( 'automotive_design' ) ;
#118 =( NAMED_UNIT ( * ) PLANE_ANGLE_UNIT ( ) SI_UNIT ( $, .RADIAN. ) );
#119 = ORIENTED_EDGE ( 'NONE', *, *, #385, .F. ) ;
#120 = EDGE_LOOP ( 'NONE', ( #808, #437 ) ) ;
#121 = SURFACE_SIDE_STYLE ('',( #704 ) ) ;
#122 = CARTESIAN_POINT ( 'NONE',  ( -109.5999999999999801, -14.30000000000001492, 1.751244922780715104E-15 ) ) ;
#123 = ORIENTED_EDGE ( 'NONE', *, *, #206, .F. ) ;
#124 = DIRECTION ( 'NONE',  ( 0.000000000000000000, -1.000000000000000000, 0.000000000000000000 ) ) ;
#125 = VECTOR ( 'NONE', #814, 1000.000000000000000 ) ;
#126 = SURFACE_STYLE_USAGE ( .BOTH. , #725 ) ;
#127 = AXIS2_PLACEMENT_3D ( 'NONE', #241, #47, #505 ) ;
#128 = DIRECTION ( 'NONE',  ( -1.000000000000000000, -1.214306433183765213E-16, -0.000000000000000000 ) ) ;
#129 = ORIENTED_EDGE ( 'NONE', *, *, #206, .T. ) ;
#130 = DIRECTION ( 'NONE',  ( 0.000000000000000000, -1.000000000000000000, 0.000000000000000000 ) ) ;
#131 = SURFACE_STYLE_FILL_AREA ( #16 ) ;
#132 = VERTEX_POINT ( 'NONE', #675 ) ;
#133 = CARTESIAN_POINT ( 'NONE',  ( -44.99999999999998579, -5.464378949326939981E-15, 0.000000000000000000 ) ) ;
#134 = EDGE_CURVE ( 'NONE', #520, #693, #135, .T. ) ;
#135 = CIRCLE ( 'NONE', #618, 17.49999999999983658 ) ;
#136 = ORIENTED_EDGE ( 'NONE', *, *, #712, .F. ) ;
#137 = FACE_BOUND ( 'NONE', #683, .T. ) ;
#138 = AXIS2_PLACEMENT_3D ( 'NONE', #70, #273, #775 ) ;
#139 = AXIS2_PLACEMENT_3D ( 'NONE', #668, #216, #355 ) ;
#140 =( LENGTH_UNIT ( ) NAMED_UNIT ( * ) SI_UNIT ( .MILLI., .METRE. ) );
#141 = ADVANCED_FACE ( 'NONE', ( #156 ), #734, .T. ) ;
#142 = ORIENTED_EDGE ( 'NONE', *, *, #6, .F. ) ;
#143 = ADVANCED_FACE ( 'NONE', ( #613 ), #152, .T. ) ;
#144 = CYLINDRICAL_SURFACE ( 'NONE', #197, 12.69999999999999929 ) ;
#145 = FACE_OUTER_BOUND ( 'NONE', #304, .T. ) ;
#146 = EDGE_LOOP ( 'NONE', ( #149, #99, #175, #240 ) ) ;
#147 = CARTESIAN_POINT ( 'NONE',  ( -400.0000000000000000, -4.857225732735061127E-14, 0.000000000000000000 ) ) ;
#148 = CARTESIAN_POINT ( 'NONE',  ( -94.99999999999997158, -1.153591111524576402E-14, 0.000000000000000000 ) ) ;
#149 = ORIENTED_EDGE ( 'NONE', *, *, #326, .F. ) ;
#150 = AXIS2_PLACEMENT_3D ( 'NONE', #801, #222, #489 ) ;
#151 = DIRECTION ( 'NONE',  ( 1.000000000000000000, 1.214306433183774580E-16, 0.000000000000000000 ) ) ;
#152 = CYLINDRICAL_SURFACE ( 'NONE', #442, 11.99999999999988098 ) ;
#153 = AXIS2_PLACEMENT_3D ( 'NONE', #550, #19, #289 ) ;
#154 = EDGE_LOOP ( 'NONE', ( #136, #13, #644, #104 ) ) ;
#155 = CYLINDRICAL_SURFACE ( 'NONE', #405, 14.99999999999985967 ) ;
#156 = FACE_OUTER_BOUND ( 'NONE', #285, .T. ) ;
#157 = EDGE_LOOP ( 'NONE', ( #406, #236, #634, #707 ) ) ;
#158 = DIRECTION ( 'NONE',  ( -1.000000000000000000, -1.214306433183765213E-16, -0.000000000000000000 ) ) ;
#159 = CARTESIAN_POINT ( 'NONE',  ( -25.00000000000000000, 11.99999999999975664, 0.000000000000000000 ) ) ;
#160 = ORIENTED_EDGE ( 'NONE', *, *, #168, .T. ) ;
#161 = DIRECTION ( 'NONE',  ( -1.214306433183765213E-16, 1.000000000000000000, 0.000000000000000000 ) ) ;
#162 = AXIS2_PLACEMENT_3D ( 'NONE', #599, #408, #20 ) ;
#163 = FACE_OUTER_BOUND ( 'NONE', #21, .T. ) ;
#164 = FACE_OUTER_BOUND ( 'NONE', #476, .T. ) ;
#165 = PRODUCT_CONTEXT ( 'NONE', #301, 'mechanical' ) ;
#166 = ORIENTED_EDGE ( 'NONE', *, *, #75, .T. ) ;
#167 = AXIS2_PLACEMENT_3D ( 'NONE', #195, #386, #584 ) ;
#168 = EDGE_CURVE ( 'NONE', #65, #232, #609, .T. ) ;
#169 = CIRCLE ( 'NONE', #804, 11.99999999999988098 ) ;
#170 = DIRECTION ( 'NONE',  ( -1.000000000000000000, -1.214306433183780497E-16, -0.000000000000000000 ) ) ;
#171 = EDGE_CURVE ( 'NONE', #444, #735, #807, .T. ) ;
#172 = DIRECTION ( 'NONE',  ( 0.000000000000000000, -1.000000000000000000, 0.000000000000000000 ) ) ;
#173 = DIRECTION ( 'NONE',  ( -1.000000000000000000, -1.214306433183765213E-16, -0.000000000000000000 ) ) ;
#174 = DIRECTION ( 'NONE',  ( 1.000000000000000000, 0.000000000000000000, 0.000000000000000000 ) ) ;
#175 = ORIENTED_EDGE ( 'NONE', *, *, #774, .F. ) ;
#176 = FACE_BOUND ( 'NONE', #395, .T. ) ;
#177 = ORIENTED_EDGE ( 'NONE', *, *, #272, .T. ) ;
#178 = CARTESIAN_POINT ( 'NONE',  ( -370.0000000000000000, -4.492933802779931637E-14, 0.000000000000000000 ) ) ;
#179 = CARTESIAN_POINT ( 'NONE',  ( -0.9999999999998898659, -1.214306433183646637E-16, 0.000000000000000000 ) ) ;
#180 = SHAPE_DEFINITION_REPRESENTATION ( #439, #786 ) ;
#181 = LINE ( 'NONE', #499, #69 ) ;
#182 = AXIS2_PLACEMENT_3D ( 'NONE', #243, #570, #763 ) ;
#183 = SURFACE_STYLE_USAGE ( .BOTH. , #121 ) ;
#184 = CARTESIAN_POINT ( 'NONE',  ( -400.0000000000000000, 9.999999999999943157, 1.224646799147352270E-15 ) ) ;
#185 = DIRECTION ( 'NONE',  ( 1.264902534566434494E-16, -1.000000000000000000, 0.000000000000000000 ) ) ;
#186 = PRESENTATION_STYLE_ASSIGNMENT (( #126 ) ) ;
#187 = CARTESIAN_POINT ( 'NONE',  ( -25.00000000000002132, 11.99999999999975664, 1.469576158976802056E-15 ) ) ;
#188 = EDGE_CURVE ( 'NONE', #383, #78, #36, .T. ) ;
#189 =( NAMED_UNIT ( * ) PLANE_ANGLE_UNIT ( ) SI_UNIT ( $, .RADIAN. ) );
#190 = DIRECTION ( 'NONE',  ( -1.000000000000000000, -1.214306433183765213E-16, -0.000000000000000000 ) ) ;
#191 = CIRCLE ( 'NONE', #654, 14.99999999999986144 ) ;
#192 = DIRECTION ( 'NONE',  ( 0.000000000000000000, -1.000000000000000000, 0.000000000000000000 ) ) ;
#193 = ORIENTED_EDGE ( 'NONE', *, *, #345, .T. ) ;
#194 = CIRCLE ( 'NONE', #153, 11.00000000000006395 ) ;
#195 = CARTESIAN_POINT ( 'NONE',  ( -400.0000000000000000, -4.857225732735061127E-14, 0.000000000000000000 ) ) ;
#196 = ADVANCED_FACE ( 'NONE', ( #30, #284 ), #792, .F. ) ;
#197 = AXIS2_PLACEMENT_3D ( 'NONE', #225, #542, #733 ) ;
#198 = CYLINDRICAL_SURFACE ( 'NONE', #220, 9.999999999999991118 ) ;
#199 = EDGE_LOOP ( 'NONE', ( #142, #193, #588, #55 ) ) ;
#200 = CARTESIAN_POINT ( 'NONE',  ( -114.9999999999999858, 12.69999999999998685, 1.555301434917140602E-15 ) ) ;
#201 = EDGE_CURVE ( 'NONE', #440, #553, #523, .T. ) ;
#202 = DIRECTION ( 'NONE',  ( -1.214306433183765213E-16, 1.000000000000000000, 0.000000000000000000 ) ) ;
#203 = EDGE_LOOP ( 'NONE', ( #88, #338, #160, #558 ) ) ;
#204 = FACE_BOUND ( 'NONE', #31, .T. ) ;
#205 = CARTESIAN_POINT ( 'NONE',  ( 1.196959198424004981E-15, -11.00000000000006395, 0.000000000000000000 ) ) ;
#206 = EDGE_CURVE ( 'NONE', #68, #525, #264, .T. ) ;
#207 = ORIENTED_EDGE ( 'NONE', *, *, #326, .T. ) ;
#208 = CARTESIAN_POINT ( 'NONE',  ( -370.0000000000000000, -4.492933802779931637E-14, 0.000000000000000000 ) ) ;
#209 = CIRCLE ( 'NONE', #485, 14.99999999999985967 ) ;
#210 = PRESENTATION_LAYER_ASSIGNMENT (  '', '', ( #87 ) ) ;
#211 = DIRECTION ( 'NONE',  ( 1.000000000000000000, 1.214306433183765706E-16, -0.000000000000000000 ) ) ;
#212 = EDGE_LOOP ( 'NONE', ( #342, #17, #631, #432 ) ) ;
#213 = DIRECTION ( 'NONE',  ( 0.000000000000000000, -1.000000000000000000, 0.000000000000000000 ) ) ;
#214 = CARTESIAN_POINT ( 'NONE',  ( -94.99999999999997158, 14.29999999999998828, 0.000000000000000000 ) ) ;
#215 = ORIENTED_EDGE ( 'NONE', *, *, #625, .F. ) ;
#216 = DIRECTION ( 'NONE',  ( 1.000000000000000000, 1.214306433183765706E-16, -0.000000000000000000 ) ) ;
#217 = DIRECTION ( 'NONE',  ( 0.000000000000000000, -1.000000000000000000, 0.000000000000000000 ) ) ;
#218 = DIRECTION ( 'NONE',  ( -1.000000000000000000, -1.214306433183765213E-16, -0.000000000000000000 ) ) ;
#219 = VERTEX_POINT ( 'NONE', #678 ) ;
#220 = AXIS2_PLACEMENT_3D ( 'NONE', #328, #3, #655 ) ;
#221 = CARTESIAN_POINT ( 'NONE',  ( -115.0000000000000000, 14.99999999999984546, 0.000000000000000000 ) ) ;
#222 = DIRECTION ( 'NONE',  ( -1.000000000000000000, -1.214306433183765213E-16, -0.000000000000000000 ) ) ;
#223 = AXIS2_PLACEMENT_3D ( 'NONE', #381, #770, #577 ) ;
#224 = ORIENTED_EDGE ( 'NONE', *, *, #597, .F. ) ;
#225 = CARTESIAN_POINT ( 'NONE',  ( -400.0000000000000000, -4.857225732735061127E-14, 0.000000000000000000 ) ) ;
#226 = ADVANCED_FACE ( 'NONE', ( #145 ), #25, .T. ) ;
#227 = DIRECTION ( 'NONE',  ( 0.000000000000000000, -1.000000000000000000, 0.000000000000000000 ) ) ;
#228 = EDGE_LOOP ( 'NONE', ( #427, #666 ) ) ;
#229 = DIRECTION ( 'NONE',  ( -1.000000000000000000, -1.214306433183765213E-16, -0.000000000000000000 ) ) ;
#230 = DIRECTION ( 'NONE',  ( 0.000000000000000000, 1.000000000000000000, 0.000000000000000000 ) ) ;
#231 = EDGE_CURVE ( 'NONE', #490, #716, #341, .T. ) ;
#232 = VERTEX_POINT ( 'NONE', #352 ) ;
#233 = EDGE_CURVE ( 'NONE', #742, #600, #9, .T. ) ;
#234 = DIRECTION ( 'NONE',  ( 0.000000000000000000, -1.000000000000000000, 0.000000000000000000 ) ) ;
#235 = AXIS2_PLACEMENT_3D ( 'NONE', #308, #173, #436 ) ;
#236 = ORIENTED_EDGE ( 'NONE', *, *, #63, .T. ) ;
#237 = AXIS2_PLACEMENT_3D ( 'NONE', #500, #105, #161 ) ;
#238 = CARTESIAN_POINT ( 'NONE',  ( -114.9999999999999858, -14.99999999999987210, 0.000000000000000000 ) ) ;
#239 = CARTESIAN_POINT ( 'NONE',  ( -109.5999999999999801, -1.330879850769406245E-14, 0.000000000000000000 ) ) ;
#240 = ORIENTED_EDGE ( 'NONE', *, *, #686, .F. ) ;
#241 = CARTESIAN_POINT ( 'NONE',  ( -370.0000000000000000, -4.492933802779931637E-14, 0.000000000000000000 ) ) ;
#242 = EDGE_CURVE ( 'NONE', #132, #785, #277, .T. ) ;
#243 = CARTESIAN_POINT ( 'NONE',  ( -107.9999999999999716, 0.000000000000000000, -14.99999999999986144 ) ) ;
#244 = DIRECTION ( 'NONE',  ( 0.000000000000000000, 0.000000000000000000, 1.000000000000000000 ) ) ;
#245 = VERTEX_POINT ( 'NONE', #537 ) ;
#246 = CARTESIAN_POINT ( 'NONE',  ( -0.9999999999998914202, 11.99999999999988276, 1.469576158976809551E-15 ) ) ;
#247 = CYLINDRICAL_SURFACE ( 'NONE', #350, 14.30000000000000071 ) ;
#248 = CIRCLE ( 'NONE', #388, 11.99999999999976019 ) ;
#249 = DIRECTION ( 'NONE',  ( 1.000000000000000000, 1.214306433183765706E-16, -0.000000000000000000 ) ) ;
#250 = EDGE_LOOP ( 'NONE', ( #815, #619 ) ) ;
#251 = AXIS2_PLACEMENT_3D ( 'NONE', #594, #781, #826 ) ;
#252 =( NAMED_UNIT ( * ) SI_UNIT ( $, .STERADIAN. ) SOLID_ANGLE_UNIT ( ) );
#253 = AXIS2_PLACEMENT_3D ( 'NONE', #635, #102, #234 ) ;
#254 = LINE ( 'NONE', #399, #365 ) ;
#255 = EDGE_CURVE ( 'NONE', #409, #636, #443, .T. ) ;
#256 = FILL_AREA_STYLE ('',( #647 ) ) ;
#257 = DIRECTION ( 'NONE',  ( 0.000000000000000000, 1.000000000000000000, 0.000000000000000000 ) ) ;
#258 = CYLINDRICAL_SURFACE ( 'NONE', #320, 9.999999999999991118 ) ;
#259 = EDGE_CURVE ( 'NONE', #785, #274, #497, .T. ) ;
#260 = EDGE_CURVE ( 'NONE', #58, #28, #750, .T. ) ;
#261 = EDGE_LOOP ( 'NONE', ( #824, #375 ) ) ;
#262 =( LENGTH_UNIT ( ) NAMED_UNIT ( * ) SI_UNIT ( .MILLI., .METRE. ) );
#263 = CYLINDRICAL_SURFACE ( 'NONE', #322, 14.30000000000000071 ) ;
#264 = CIRCLE ( 'NONE', #578, 11.99999999999976019 ) ;
#265 = DIRECTION ( 'NONE',  ( 0.000000000000000000, -1.000000000000000000, 0.000000000000000000 ) ) ;
#266 = EDGE_LOOP ( 'NONE', ( #357, #689, #398, #723 ) ) ;
#267 = CIRCLE ( 'NONE', #803, 11.00000000000006395 ) ;
#268 = DIRECTION ( 'NONE',  ( -1.000000000000000000, -1.214306433183765213E-16, -0.000000000000000000 ) ) ;
#269 = MECHANICAL_DESIGN_GEOMETRIC_PRESENTATION_REPRESENTATION (  '', ( #87 ), #336 ) ;
#270 = DIRECTION ( 'NONE',  ( 0.000000000000000000, -1.000000000000000000, 0.000000000000000000 ) ) ;
#271 = VERTEX_POINT ( 'NONE', #692 ) ;
#272 = EDGE_CURVE ( 'NONE', #735, #68, #630, .T. ) ;
#273 = DIRECTION ( 'NONE',  ( 1.000000000000000000, 1.214306433183765706E-16, -0.000000000000000000 ) ) ;
#274 = VERTEX_POINT ( 'NONE', #48 ) ;
#275 = CARTESIAN_POINT ( 'NONE',  ( -400.0000000000000000, -4.857225732735061127E-14, 0.000000000000000000 ) ) ;
#276 = DIRECTION ( 'NONE',  ( 1.000000000000000000, 1.214306433183765213E-16, 0.000000000000000000 ) ) ;
#277 = LINE ( 'NONE', #82, #482 ) ;
#278 = STYLED_ITEM ( 'NONE', ( #332 ), #103 ) ;
#279 = ORIENTED_EDGE ( 'NONE', *, *, #106, .F. ) ;
#280 = UNCERTAINTY_MEASURE_WITH_UNIT (LENGTH_MEASURE( 1.000000000000000082E-05 ), #581, 'distance_accuracy_value', 'NONE');
#281 = CARTESIAN_POINT ( 'NONE',  ( -94.99999999999997158, 17.49999999999982592, 2.143131898507848132E-15 ) ) ;
#282 = CONICAL_SURFACE ( 'NONE', #392, 11.99999999999988098, 0.7853981633974117527 ) ;
#283 = CIRCLE ( 'NONE', #714, 12.69999999999999929 ) ;
#284 = FACE_BOUND ( 'NONE', #384, .T. ) ;
#285 = EDGE_LOOP ( 'NONE', ( #46, #679, #790, #288 ) ) ;
#286 = DIRECTION ( 'NONE',  ( -1.000000000000000000, -1.214306433183780497E-16, -0.000000000000000000 ) ) ;
#287 = CARTESIAN_POINT ( 'NONE',  ( -107.9999999999999716, -1.311450947838466006E-14, 0.000000000000000000 ) ) ;
#288 = ORIENTED_EDGE ( 'NONE', *, *, #233, .T. ) ;
#289 = DIRECTION ( 'NONE',  ( 1.214306433183764966E-16, -1.000000000000000000, 0.000000000000000000 ) ) ;
#290 = DIRECTION ( 'NONE',  ( -1.000000000000000000, -1.214306433183765213E-16, 0.000000000000000000 ) ) ;
#291 = EDGE_LOOP ( 'NONE', ( #752, #586 ) ) ;
#292 = CYLINDRICAL_SURFACE ( 'NONE', #829, 12.69999999999999929 ) ;
#293 = CARTESIAN_POINT ( 'NONE',  ( -400.0000000000000000, -4.857225732735061127E-14, 0.000000000000000000 ) ) ;
#294 = CIRCLE ( 'NONE', #11, 14.99999999999986144 ) ;
#295 = CIRCLE ( 'NONE', #474, 14.30000000000000071 ) ;
#296 = EDGE_LOOP ( 'NONE', ( #318, #53, #372, #731 ) ) ;
#297 = DIRECTION ( 'NONE',  ( -1.000000000000000000, -1.214306433183765213E-16, -0.000000000000000000 ) ) ;
#298 = LINE ( 'NONE', #317, #125 ) ;
#299 = EDGE_CURVE ( 'NONE', #592, #132, #294, .T. ) ;
#300 = EDGE_LOOP ( 'NONE', ( #463, #676, #224, #50 ) ) ;
#301 = APPLICATION_CONTEXT ( 'automotive_design' ) ;
#302 = CARTESIAN_POINT ( 'NONE',  ( -94.99999999999997158, -17.49999999999984723, 0.000000000000000000 ) ) ;
#303 = APPLICATION_PROTOCOL_DEFINITION ( 'draft international standard', 'automotive_design', 1998, #117 ) ;
#304 = EDGE_LOOP ( 'NONE', ( #327, #539, #95, #119 ) ) ;
#305 = CARTESIAN_POINT ( 'NONE',  ( -44.99999999999998579, -5.464378949326939981E-15, 0.000000000000000000 ) ) ;
#306 = CARTESIAN_POINT ( 'NONE',  ( -400.0000000000000000, -9.000000000000110134, 1.102182119232625405E-15 ) ) ;
#307 = AXIS2_PLACEMENT_3D ( 'NONE', #179, #492, #762 ) ;
#308 = CARTESIAN_POINT ( 'NONE',  ( -114.9999999999999858, -1.396452398161329869E-14, 0.000000000000000000 ) ) ;
#309 = ADVANCED_FACE ( 'NONE', ( #164, #313 ), #364, .F. ) ;
#310 = AXIS2_PLACEMENT_3D ( 'NONE', #208, #729, #805 ) ;
#311 = LINE ( 'NONE', #629, #514 ) ;
#312 = CARTESIAN_POINT ( 'NONE',  ( -94.99999999999997158, -1.153591111524576402E-14, 0.000000000000000000 ) ) ;
#313 = FACE_BOUND ( 'NONE', #261, .T. ) ;
#314 = EDGE_LOOP ( 'NONE', ( #825, #623 ) ) ;
#315 = CARTESIAN_POINT ( 'NONE',  ( -400.0000000000000000, 14.99999999999980993, 1.836970198721012628E-15 ) ) ;
#316 = EDGE_CURVE ( 'NONE', #271, #520, #698, .T. ) ;
#317 = CARTESIAN_POINT ( 'NONE',  ( -400.0000000000000000, -14.99999999999987388, 0.000000000000000000 ) ) ;
#318 = ORIENTED_EDGE ( 'NONE', *, *, #44, .F. ) ;
#319 = DIRECTION ( 'NONE',  ( -1.000000000000000000, -1.214306433183765213E-16, -0.000000000000000000 ) ) ;
#320 = AXIS2_PLACEMENT_3D ( 'NONE', #293, #33, #665 ) ;
#321 = VERTEX_POINT ( 'NONE', #343 ) ;
#322 = AXIS2_PLACEMENT_3D ( 'NONE', #10, #469, #720 ) ;
#323 = CIRCLE ( 'NONE', #127, 9.999999999999989342 ) ;
#324 = DIRECTION ( 'NONE',  ( 1.000000000000000000, 1.214306433183774580E-16, 0.000000000000000000 ) ) ;
#325 = ADVANCED_FACE ( 'NONE', ( #667, #204 ), #8, .F. ) ;
#326 = EDGE_CURVE ( 'NONE', #415, #321, #656, .T. ) ;
#327 = ORIENTED_EDGE ( 'NONE', *, *, #255, .T. ) ;
#328 = CARTESIAN_POINT ( 'NONE',  ( -400.0000000000000000, -4.857225732735061127E-14, 0.000000000000000000 ) ) ;
#329 = EDGE_LOOP ( 'NONE', ( #92, #207 ) ) ;
#330 = DIRECTION ( 'NONE',  ( -1.000000000000000000, -1.214306433183765213E-16, -0.000000000000000000 ) ) ;
#331 = CIRCLE ( 'NONE', #724, 12.69999999999999929 ) ;
#332 = PRESENTATION_STYLE_ASSIGNMENT (( #650 ) ) ;
#333 = EDGE_CURVE ( 'NONE', #274, #785, #209, .T. ) ;
#334 = ORIENTED_EDGE ( 'NONE', *, *, #299, .F. ) ;
#335 = CARTESIAN_POINT ( 'NONE',  ( -44.99999999999998579, -14.99999999999983125, 0.000000000000000000 ) ) ;
#336 =( GEOMETRIC_REPRESENTATION_CONTEXT ( 3 ) GLOBAL_UNCERTAINTY_ASSIGNED_CONTEXT ( ( #533 ) ) GLOBAL_UNIT_ASSIGNED_CONTEXT ( ( #445, #189, #45 ) ) REPRESENTATION_CONTEXT ( 'NONE', 'WORKASPACE' ) );
#337 = DIRECTION ( 'NONE',  ( -1.000000000000000000, -1.214306433183765213E-16, -0.000000000000000000 ) ) ;
#338 = ORIENTED_EDGE ( 'NONE', *, *, #651, .T. ) ;
#339 = CARTESIAN_POINT ( 'NONE',  ( -25.00000000000002132, -3.035766082959412415E-15, 0.000000000000000000 ) ) ;
#340 = CARTESIAN_POINT ( 'NONE',  ( -44.99999999999998579, 14.99999999999982059, 1.836970198721008290E-15 ) ) ;
#341 = LINE ( 'NONE', #413, #800 ) ;
#342 = ORIENTED_EDGE ( 'NONE', *, *, #387, .T. ) ;
#343 = CARTESIAN_POINT ( 'NONE',  ( -400.0000000000000000, 9.000000000000014211, 0.000000000000000000 ) ) ;
#344 = FACE_BOUND ( 'NONE', #120, .T. ) ;
#345 = EDGE_CURVE ( 'NONE', #636, #409, #472, .T. ) ;
#346 = DIRECTION ( 'NONE',  ( -1.000000000000000000, -1.214306433183765213E-16, -0.000000000000000000 ) ) ;
#347 = CIRCLE ( 'NONE', #428, 14.99999999999986144 ) ;
#348 = ORIENTED_EDGE ( 'NONE', *, *, #774, .T. ) ;
#349 = DIRECTION ( 'NONE',  ( -1.000000000000000000, -1.214306433183765213E-16, -0.000000000000000000 ) ) ;
#350 = AXIS2_PLACEMENT_3D ( 'NONE', #312, #435, #691 ) ;
#351 = AXIS2_PLACEMENT_3D ( 'NONE', #54, #158, #113 ) ;
#352 = CARTESIAN_POINT ( 'NONE',  ( -107.9999999999999716, 14.29999999999998650, 0.000000000000000000 ) ) ;
#353 = ADVANCED_FACE ( 'NONE', ( #163 ), #740, .T. ) ;
#354 = ORIENTED_EDGE ( 'NONE', *, *, #549, .T. ) ;
#355 = DIRECTION ( 'NONE',  ( 0.000000000000000000, 1.000000000000000000, 0.000000000000000000 ) ) ;
#356 = DIRECTION ( 'NONE',  ( -0.7071067811865734409, 0.7071067811865217045, 8.659560562354617314E-17 ) ) ;
#357 = ORIENTED_EDGE ( 'NONE', *, *, #363, .F. ) ;
#358 = LINE ( 'NONE', #608, #567 ) ;
#359 = DIRECTION ( 'NONE',  ( 0.000000000000000000, 1.000000000000000000, 0.000000000000000000 ) ) ;
#360 = ORIENTED_EDGE ( 'NONE', *, *, #721, .T. ) ;
#361 = EDGE_CURVE ( 'NONE', #78, #383, #687, .T. ) ;
#362 = PLANE ( 'NONE',  #621 ) ;
#363 = EDGE_CURVE ( 'NONE', #415, #61, #749, .T. ) ;
#364 = PLANE ( 'NONE',  #182 ) ;
#365 = VECTOR ( 'NONE', #717, 1000.000000000000000 ) ;
#366 = AXIS2_PLACEMENT_3D ( 'NONE', #425, #754, #758 ) ;
#367 = VERTEX_POINT ( 'NONE', #702 ) ;
#368 = PLANE ( 'NONE',  #223 ) ;
#369 = PRODUCT_RELATED_PRODUCT_CATEGORY ( 'part', '', ( #722 ) ) ;
#370 = DIRECTION ( 'NONE',  ( -1.000000000000000000, -1.214306433183765213E-16, -0.000000000000000000 ) ) ;
#371 = DIRECTION ( 'NONE',  ( 1.000000000000000000, 1.214306433183765706E-16, -0.000000000000000000 ) ) ;
#372 = ORIENTED_EDGE ( 'NONE', *, *, #519, .T. ) ;
#373 = FACE_OUTER_BOUND ( 'NONE', #700, .T. ) ;
#374 = ADVANCED_FACE ( 'NONE', ( #756 ), #247, .T. ) ;
#375 = ORIENTED_EDGE ( 'NONE', *, *, #116, .T. ) ;
#376 = FACE_OUTER_BOUND ( 'NONE', #250, .T. ) ;
#377 = AXIS2_PLACEMENT_3D ( 'NONE', #94, #670, #617 ) ;
#378 = ORIENTED_EDGE ( 'NONE', *, *, #24, .T. ) ;
#379 = FACE_OUTER_BOUND ( 'NONE', #228, .T. ) ;
#380 = ORIENTED_EDGE ( 'NONE', *, *, #434, .T. ) ;
#381 = CARTESIAN_POINT ( 'NONE',  ( -95.00000000000000000, 17.49999999999982592, 0.000000000000000000 ) ) ;
#382 = FILL_AREA_STYLE_COLOUR ( '', #524 ) ;
#383 = VERTEX_POINT ( 'NONE', #626 ) ;
#384 = EDGE_LOOP ( 'NONE', ( #166, #129 ) ) ;
#385 = EDGE_CURVE ( 'NONE', #409, #440, #298, .T. ) ;
#386 = DIRECTION ( 'NONE',  ( -1.000000000000000000, -1.214306433183765213E-16, -0.000000000000000000 ) ) ;
#387 = EDGE_CURVE ( 'NONE', #765, #490, #541, .T. ) ;
#388 = AXIS2_PLACEMENT_3D ( 'NONE', #394, #470, #192 ) ;
#389 = CARTESIAN_POINT ( 'NONE',  ( -399.0000000000000568, -10.00000000000004086, 0.000000000000000000 ) ) ;
#390 = VECTOR ( 'NONE', #371, 1000.000000000000000 ) ;
#391 = ORIENTED_EDGE ( 'NONE', *, *, #134, .F. ) ;
#392 = AXIS2_PLACEMENT_3D ( 'NONE', #521, #583, #185 ) ;
#393 = ADVANCED_FACE ( 'NONE', ( #109 ), #823, .T. ) ;
#394 = CARTESIAN_POINT ( 'NONE',  ( -25.00000000000002132, -3.035766082959412415E-15, 0.000000000000000000 ) ) ;
#395 = EDGE_LOOP ( 'NONE', ( #560, #215 ) ) ;
#396 = EDGE_CURVE ( 'NONE', #321, #415, #555, .T. ) ;
#397 = SURFACE_SIDE_STYLE ('',( #131 ) ) ;
#398 = ORIENTED_EDGE ( 'NONE', *, *, #686, .T. ) ;
#399 = CARTESIAN_POINT ( 'NONE',  ( -400.0000000000000000, -12.70000000000004725, 0.000000000000000000 ) ) ;
#400 = VECTOR ( 'NONE', #211, 1000.000000000000000 ) ;
#401 = FILL_AREA_STYLE_COLOUR ( '', #640 ) ;
#402 = EDGE_LOOP ( 'NONE', ( #812, #568, #652, #658 ) ) ;
#403 = AXIS2_PLACEMENT_3D ( 'NONE', #502, #370, #172 ) ;
#404 = CARTESIAN_POINT ( 'NONE',  ( -400.0000000000000000, -4.857225732735061127E-14, 0.000000000000000000 ) ) ;
#405 = AXIS2_PLACEMENT_3D ( 'NONE', #147, #76, #213 ) ;
#406 = ORIENTED_EDGE ( 'NONE', *, *, #231, .F. ) ;
#407 = DIRECTION ( 'NONE',  ( -1.000000000000000000, -1.214306433183765213E-16, -0.000000000000000000 ) ) ;
#408 = DIRECTION ( 'NONE',  ( 1.000000000000000000, 1.214306433183765706E-16, -0.000000000000000000 ) ) ;
#409 = VERTEX_POINT ( 'NONE', #587 ) ;
#410 = EDGE_CURVE ( 'NONE', #61, #83, #39, .T. ) ;
#411 = CARTESIAN_POINT ( 'NONE',  ( -400.0000000000000000, -4.857225732735061127E-14, 0.000000000000000000 ) ) ;
#412 = EDGE_CURVE ( 'NONE', #78, #600, #62, .T. ) ;
#413 = CARTESIAN_POINT ( 'NONE',  ( -400.0000000000000000, 12.69999999999995133, 1.555301434917138433E-15 ) ) ;
#414 = AXIS2_PLACEMENT_3D ( 'NONE', #419, #90, #227 ) ;
#415 = VERTEX_POINT ( 'NONE', #653 ) ;
#416 = CARTESIAN_POINT ( 'NONE',  ( -109.5999999999999801, 14.99999999999984901, 1.836970198721013023E-15 ) ) ;
#417 = AXIS2_PLACEMENT_3D ( 'NONE', #89, #349, #477 ) ;
#418 = CIRCLE ( 'NONE', #366, 17.49999999999983658 ) ;
#419 = CARTESIAN_POINT ( 'NONE',  ( -94.99999999999997158, -1.153591111524576402E-14, 0.000000000000000000 ) ) ;
#420 = ORIENTED_EDGE ( 'NONE', *, *, #519, .F. ) ;
#421 = DIRECTION ( 'NONE',  ( -1.000000000000000000, -1.214306433183765706E-16, 0.000000000000000000 ) ) ;
#422 = CARTESIAN_POINT ( 'NONE',  ( -400.0000000000000000, -4.857225732735061127E-14, 0.000000000000000000 ) ) ;
#423 = ADVANCED_FACE ( 'NONE', ( #777 ), #540, .T. ) ;
#424 = EDGE_LOOP ( 'NONE', ( #334, #739, #628, #757 ) ) ;
#425 = CARTESIAN_POINT ( 'NONE',  ( -44.99999999999998579, -5.464378949326939981E-15, 0.000000000000000000 ) ) ;
#426 = DIRECTION ( 'NONE',  ( 0.000000000000000000, -1.000000000000000000, 0.000000000000000000 ) ) ;
#427 = ORIENTED_EDGE ( 'NONE', *, *, #710, .T. ) ;
#428 = AXIS2_PLACEMENT_3D ( 'NONE', #494, #249, #513 ) ;
#429 = DIRECTION ( 'NONE',  ( 0.000000000000000000, 1.000000000000000000, 0.000000000000000000 ) ) ;
#430 = VECTOR ( 'NONE', #330, 1000.000000000000000 ) ;
#431 = CIRCLE ( 'NONE', #728, 12.69999999999999929 ) ;
#432 = ORIENTED_EDGE ( 'NONE', *, *, #449, .F. ) ;
#433 = DIRECTION ( 'NONE',  ( 0.000000000000000000, -1.000000000000000000, 0.000000000000000000 ) ) ;
#434 = EDGE_CURVE ( 'NONE', #553, #440, #606, .T. ) ;
#435 = DIRECTION ( 'NONE',  ( 1.000000000000000000, 1.214306433183765706E-16, -0.000000000000000000 ) ) ;
#436 = DIRECTION ( 'NONE',  ( 0.000000000000000000, -1.000000000000000000, 0.000000000000000000 ) ) ;
#437 = ORIENTED_EDGE ( 'NONE', *, *, #63, .F. ) ;
#438 = CARTESIAN_POINT ( 'NONE',  ( -109.5999999999999801, -1.330879850769406245E-14, 0.000000000000000000 ) ) ;
#439 = PRODUCT_DEFINITION_SHAPE ( 'NONE', 'NONE',  #615 ) ;
#440 = VERTEX_POINT ( 'NONE', #335 ) ;
#441 = DIRECTION ( 'NONE',  ( 1.000000000000000000, 1.214306433183774580E-16, 0.000000000000000000 ) ) ;
#442 = AXIS2_PLACEMENT_3D ( 'NONE', #422, #730, #217 ) ;
#443 = CIRCLE ( 'NONE', #71, 14.99999999999982592 ) ;
#444 = VERTEX_POINT ( 'NONE', #784 ) ;
#445 =( LENGTH_UNIT ( ) NAMED_UNIT ( * ) SI_UNIT ( .MILLI., .METRE. ) );
#446 = DIRECTION ( 'NONE',  ( 2.312964634635769581E-16, -1.000000000000000000, 0.000000000000000000 ) ) ;
#447 = CARTESIAN_POINT ( 'NONE',  ( -400.0000000000000000, 11.99999999999983125, 1.469576158976809156E-15 ) ) ;
#448 = DIRECTION ( 'NONE',  ( -1.000000000000000000, -1.214306433183765213E-16, -0.000000000000000000 ) ) ;
#449 = EDGE_CURVE ( 'NONE', #765, #73, #254, .T. ) ;
#450 = EDGE_CURVE ( 'NONE', #232, #28, #512, .T. ) ;
#451 =( LENGTH_UNIT ( ) NAMED_UNIT ( * ) SI_UNIT ( .MILLI., .METRE. ) );
#452 = FACE_OUTER_BOUND ( 'NONE', #727, .T. ) ;
#453 = ORIENTED_EDGE ( 'NONE', *, *, #299, .T. ) ;
#454 = CARTESIAN_POINT ( 'NONE',  ( -370.0000000000000000, 9.999999999999944933, 1.224646799147352468E-15 ) ) ;
#455 = VECTOR ( 'NONE', #448, 1000.000000000000000 ) ;
#456 = CARTESIAN_POINT ( 'NONE',  ( -94.99999999999997158, 14.99999999999984723, 1.836970198721012628E-15 ) ) ;
#457 = PRESENTATION_LAYER_ASSIGNMENT (  '', '', ( #100 ) ) ;
#458 = VERTEX_POINT ( 'NONE', #205 ) ;
#459 = COLOUR_RGB ( '',0.6470588235294117974, 0.6196078431372549211, 0.5882352941176470784 ) ;
#460 = ADVANCED_FACE ( 'NONE', ( #705 ), #531, .T. ) ;
#461 = DIRECTION ( 'NONE',  ( 0.000000000000000000, -1.000000000000000000, 0.000000000000000000 ) ) ;
#462 = DIRECTION ( 'NONE',  ( 1.000000000000000000, 1.214306433183765213E-16, 0.000000000000000000 ) ) ;
#463 = ORIENTED_EDGE ( 'NONE', *, *, #549, .F. ) ;
#464 = DIRECTION ( 'NONE',  ( -1.000000000000000000, -1.214306433183765213E-16, 0.000000000000000000 ) ) ;
#465 = CARTESIAN_POINT ( 'NONE',  ( -400.0000000000000000, -4.857225732735061127E-14, 0.000000000000000000 ) ) ;
#466 = CARTESIAN_POINT ( 'NONE',  ( -399.0000000000000568, 9.999999999999943157, 1.224646799147352270E-15 ) ) ;
#467 = ORIENTED_EDGE ( 'NONE', *, *, #509, .F. ) ;
#468 = CARTESIAN_POINT ( 'NONE',  ( -45.00000000000000000, 14.99999999999982059, 0.000000000000000000 ) ) ;
#469 = DIRECTION ( 'NONE',  ( 1.000000000000000000, 1.214306433183765706E-16, -0.000000000000000000 ) ) ;
#470 = DIRECTION ( 'NONE',  ( -1.000000000000000000, -1.214306433183765213E-16, -0.000000000000000000 ) ) ;
#471 = ORIENTED_EDGE ( 'NONE', *, *, #201, .T. ) ;
#472 = CIRCLE ( 'NONE', #580, 14.99999999999982592 ) ;
#473 = FACE_OUTER_BOUND ( 'NONE', #424, .T. ) ;
#474 = AXIS2_PLACEMENT_3D ( 'NONE', #438, #685, #108 ) ;
#475 = CARTESIAN_POINT ( 'NONE',  ( -107.9999999999999716, -1.311450947838466006E-14, 0.000000000000000000 ) ) ;
#476 = EDGE_LOOP ( 'NONE', ( #487, #279 ) ) ;
#477 = DIRECTION ( 'NONE',  ( 0.000000000000000000, -1.000000000000000000, 0.000000000000000000 ) ) ;
#478 = CARTESIAN_POINT ( 'NONE',  ( -25.00000000000002132, -3.035766082959412415E-15, 0.000000000000000000 ) ) ;
#479 = ORIENTED_EDGE ( 'NONE', *, *, #597, .T. ) ;
#480 = CARTESIAN_POINT ( 'NONE',  ( -400.0000000000000000, -14.99999999999990763, 0.000000000000000000 ) ) ;
#481 = DIRECTION ( 'NONE',  ( 1.000000000000000000, 1.214306433183765706E-16, -0.000000000000000000 ) ) ;
#482 = VECTOR ( 'NONE', #346, 1000.000000000000000 ) ;
#483 = VERTEX_POINT ( 'NONE', #454 ) ;
#484 = PLANE ( 'NONE',  #607 ) ;
#485 = AXIS2_PLACEMENT_3D ( 'NONE', #601, #783, #526 ) ;
#486 = DIRECTION ( 'NONE',  ( -1.000000000000000000, -1.214306433183765213E-16, -0.000000000000000000 ) ) ;
#487 = ORIENTED_EDGE ( 'NONE', *, *, #233, .F. ) ;
#488 = CARTESIAN_POINT ( 'NONE',  ( -25.00000000000002132, -11.99999999999976374, 0.000000000000000000 ) ) ;
#489 = DIRECTION ( 'NONE',  ( 0.000000000000000000, -1.000000000000000000, 0.000000000000000000 ) ) ;
#490 = VERTEX_POINT ( 'NONE', #200 ) ;
#491 = CARTESIAN_POINT ( 'NONE',  ( -107.9999999999999716, -14.99999999999987388, 0.000000000000000000 ) ) ;
#492 = DIRECTION ( 'NONE',  ( -1.000000000000000000, -1.214306433183780497E-16, -0.000000000000000000 ) ) ;
#493 = CARTESIAN_POINT ( 'NONE',  ( 0.000000000000000000, 0.000000000000000000, 0.000000000000000000 ) ) ;
#494 = CARTESIAN_POINT ( 'NONE',  ( -109.5999999999999801, -1.330879850769406245E-14, 0.000000000000000000 ) ) ;
#495 = AXIS2_PLACEMENT_3D ( 'NONE', #287, #481, #37 ) ;
#496 = CARTESIAN_POINT ( 'NONE',  ( -370.0000000000000000, 12.69999999999995488, 1.555301434917138433E-15 ) ) ;
#497 = CIRCLE ( 'NONE', #235, 14.99999999999985967 ) ;
#498 = AXIS2_PLACEMENT_3D ( 'NONE', #221, #29, #799 ) ;
#499 = CARTESIAN_POINT ( 'NONE',  ( -400.0000000000000000, 14.99999999999977796, 1.836970198721008290E-15 ) ) ;
#500 = CARTESIAN_POINT ( 'NONE',  ( -370.0000000000000000, 12.69999999999995488, 0.000000000000000000 ) ) ;
#501 = ADVANCED_FACE ( 'NONE', ( #641 ), #263, .T. ) ;
#502 = CARTESIAN_POINT ( 'NONE',  ( -94.99999999999997158, -1.153591111524576402E-14, 0.000000000000000000 ) ) ;
#503 = CARTESIAN_POINT ( 'NONE',  ( -107.9999999999999716, -14.30000000000001492, 1.751244922780715104E-15 ) ) ;
#504 = MANIFOLD_SOLID_BREP ( 'Fase3', #696 ) ;
#505 = DIRECTION ( 'NONE',  ( 0.000000000000000000, -1.000000000000000000, 0.000000000000000000 ) ) ;
#506 = ORIENTED_EDGE ( 'NONE', *, *, #536, .F. ) ;
#507 = MECHANICAL_DESIGN_GEOMETRIC_PRESENTATION_REPRESENTATION (  '', ( #709 ), #535 ) ;
#508 = DIRECTION ( 'NONE',  ( 0.7071067811865531239, -0.7071067811865419106, 8.659560562354865065E-17 ) ) ;
#509 = EDGE_CURVE ( 'NONE', #245, #693, #711, .T. ) ;
#510 = CARTESIAN_POINT ( 'NONE',  ( -94.99999999999997158, -14.30000000000001315, 1.751244922780715104E-15 ) ) ;
#511 = ADVANCED_FACE ( 'NONE', ( #528 ), #546, .T. ) ;
#512 = CIRCLE ( 'NONE', #138, 14.30000000000000071 ) ;
#513 = DIRECTION ( 'NONE',  ( 0.000000000000000000, 1.000000000000000000, 0.000000000000000000 ) ) ;
#514 = VECTOR ( 'NONE', #820, 999.9999999999998863 ) ;
#515 = FILL_AREA_STYLE_COLOUR ( '', #459 ) ;
#516 = PRODUCT_DEFINITION_CONTEXT ( 'detailed design', #117, 'design' ) ;
#517 = DIRECTION ( 'NONE',  ( -1.000000000000000000, -1.214306433183765213E-16, -0.000000000000000000 ) ) ;
#518 =( NAMED_UNIT ( * ) SI_UNIT ( $, .STERADIAN. ) SOLID_ANGLE_UNIT ( ) );
#519 = EDGE_CURVE ( 'NONE', #219, #61, #554, .T. ) ;
#520 = VERTEX_POINT ( 'NONE', #281 ) ;
#521 = CARTESIAN_POINT ( 'NONE',  ( -0.9999999999998898659, -1.214306433183646637E-16, 0.000000000000000000 ) ) ;
#522 = CARTESIAN_POINT ( 'NONE',  ( -400.0000000000000000, -4.857225732735061127E-14, 0.000000000000000000 ) ) ;
#523 = CIRCLE ( 'NONE', #150, 14.99999999999982592 ) ;
#524 = COLOUR_RGB ( '',0.6470588235294117974, 0.6196078431372549211, 0.5882352941176470784 ) ;
#525 = VERTEX_POINT ( 'NONE', #488 ) ;
#526 = DIRECTION ( 'NONE',  ( 0.000000000000000000, -1.000000000000000000, 0.000000000000000000 ) ) ;
#527 =( GEOMETRIC_REPRESENTATION_CONTEXT ( 3 ) GLOBAL_UNCERTAINTY_ASSIGNED_CONTEXT ( ( #708 ) ) GLOBAL_UNIT_ASSIGNED_CONTEXT ( ( #262, #118, #252 ) ) REPRESENTATION_CONTEXT ( 'NONE', 'WORKASPACE' ) );
#528 = FACE_OUTER_BOUND ( 'NONE', #798, .T. ) ;
#529 = SURFACE_SIDE_STYLE ('',( #706 ) ) ;
#530 = ORIENTED_EDGE ( 'NONE', *, *, #747, .F. ) ;
#531 = CYLINDRICAL_SURFACE ( 'NONE', #827, 14.99999999999985967 ) ;
#532 = ORIENTED_EDGE ( 'NONE', *, *, #188, .T. ) ;
#533 = UNCERTAINTY_MEASURE_WITH_UNIT (LENGTH_MEASURE( 1.000000000000000082E-05 ), #445, 'distance_accuracy_value', 'NONE');
#534 = LINE ( 'NONE', #480, #566 ) ;
#535 =( GEOMETRIC_REPRESENTATION_CONTEXT ( 3 ) GLOBAL_UNCERTAINTY_ASSIGNED_CONTEXT ( ( #18 ) ) GLOBAL_UNIT_ASSIGNED_CONTEXT ( ( #140, #60, #779 ) ) REPRESENTATION_CONTEXT ( 'NONE', 'WORKASPACE' ) );
#536 = EDGE_CURVE ( 'NONE', #383, #742, #534, .T. ) ;
#537 = CARTESIAN_POINT ( 'NONE',  ( -44.99999999999998579, -17.49999999999984368, 0.000000000000000000 ) ) ;
#538 = EDGE_CURVE ( 'NONE', #458, #444, #194, .T. ) ;
#539 = ORIENTED_EDGE ( 'NONE', *, *, #6, .T. ) ;
#540 = CONICAL_SURFACE ( 'NONE', #753, 9.000000000000062172, 0.7853981633974405074 ) ;
#541 = CIRCLE ( 'NONE', #26, 12.69999999999999929 ) ;
#542 = DIRECTION ( 'NONE',  ( -1.000000000000000000, -1.214306433183765213E-16, -0.000000000000000000 ) ) ;
#543 = CIRCLE ( 'NONE', #40, 17.49999999999983658 ) ;
#544 = DIRECTION ( 'NONE',  ( -1.000000000000000000, -1.214306433183765213E-16, -0.000000000000000000 ) ) ;
#545 = ORIENTED_EDGE ( 'NONE', *, *, #573, .T. ) ;
#546 = CYLINDRICAL_SURFACE ( 'NONE', #417, 11.99999999999988098 ) ;
#547 = DIRECTION ( 'NONE',  ( 1.000000000000000000, 1.214306433183765706E-16, -0.000000000000000000 ) ) ;
#548 = ORIENTED_EDGE ( 'NONE', *, *, #361, .F. ) ;
#549 = EDGE_CURVE ( 'NONE', #444, #458, #267, .T. ) ;
#550 = CARTESIAN_POINT ( 'NONE',  ( -1.387778780781444936E-16, 7.222237291451926444E-33, 0.000000000000000000 ) ) ;
#551 = DIRECTION ( 'NONE',  ( 1.214306433183765213E-16, -1.000000000000000000, 0.000000000000000000 ) ) ;
#552 = PRESENTATION_LAYER_ASSIGNMENT (  '', '', ( #278 ) ) ;
#553 = VERTEX_POINT ( 'NONE', #340 ) ;
#554 = LINE ( 'NONE', #598, #86 ) ;
#555 = CIRCLE ( 'NONE', #633, 9.000000000000063949 ) ;
#556 = AXIS2_PLACEMENT_3D ( 'NONE', #493, #244, #174 ) ;
#557 = DIRECTION ( 'NONE',  ( -1.000000000000000000, -1.214306433183765213E-16, -0.000000000000000000 ) ) ;
#558 = ORIENTED_EDGE ( 'NONE', *, *, #116, .F. ) ;
#559 = DIRECTION ( 'NONE',  ( -1.000000000000000000, -1.214306433183765213E-16, -0.000000000000000000 ) ) ;
#560 = ORIENTED_EDGE ( 'NONE', *, *, #721, .F. ) ;
#561 = DIRECTION ( 'NONE',  ( 0.000000000000000000, -1.000000000000000000, 0.000000000000000000 ) ) ;
#562 = EDGE_LOOP ( 'NONE', ( #479, #177, #111, #611 ) ) ;
#563 = COLOUR_RGB ( '',0.6470588235294117974, 0.6196078431372549211, 0.5882352941176470784 ) ;
#564 = DIRECTION ( 'NONE',  ( -1.000000000000000000, -1.214306433183765213E-16, 0.000000000000000000 ) ) ;
#565 = DIRECTION ( 'NONE',  ( -1.000000000000000000, -1.214306433183765213E-16, -0.000000000000000000 ) ) ;
#566 = VECTOR ( 'NONE', #407, 1000.000000000000000 ) ;
#567 = VECTOR ( 'NONE', #23, 1000.000000000000114 ) ;
#568 = ORIENTED_EDGE ( 'NONE', *, *, #260, .T. ) ;
#569 = DIRECTION ( 'NONE',  ( 1.264902534566434494E-16, -1.000000000000000000, 0.000000000000000000 ) ) ;
#570 = DIRECTION ( 'NONE',  ( 1.000000000000000000, 1.214306433183765706E-16, -0.000000000000000000 ) ) ;
#571 = EDGE_LOOP ( 'NONE', ( #695, #548 ) ) ;
#572 = LINE ( 'NONE', #315, #699 ) ;
#573 = EDGE_CURVE ( 'NONE', #458, #367, #358, .T. ) ;
#574 = DIRECTION ( 'NONE',  ( 0.000000000000000000, -1.000000000000000000, 0.000000000000000000 ) ) ;
#575 = EDGE_LOOP ( 'NONE', ( #648, #354 ) ) ;
#576 = UNCERTAINTY_MEASURE_WITH_UNIT (LENGTH_MEASURE( 1.000000000000000082E-05 ), #451, 'distance_accuracy_value', 'NONE');
#577 = DIRECTION ( 'NONE',  ( -1.214306433183765213E-16, 1.000000000000000000, 0.000000000000000000 ) ) ;
#578 = AXIS2_PLACEMENT_3D ( 'NONE', #478, #486, #681 ) ;
#579 =( NAMED_UNIT ( * ) SI_UNIT ( $, .STERADIAN. ) SOLID_ANGLE_UNIT ( ) );
#580 = AXIS2_PLACEMENT_3D ( 'NONE', #339, #218, #446 ) ;
#581 =( LENGTH_UNIT ( ) NAMED_UNIT ( * ) SI_UNIT ( .MILLI., .METRE. ) );
#582 = CIRCLE ( 'NONE', #139, 14.30000000000000071 ) ;
#583 = DIRECTION ( 'NONE',  ( -1.000000000000000000, -1.214306433183780497E-16, -0.000000000000000000 ) ) ;
#584 = DIRECTION ( 'NONE',  ( 0.000000000000000000, -1.000000000000000000, 0.000000000000000000 ) ) ;
#585 = ADVANCED_FACE ( 'NONE', ( #344, #736 ), #93, .F. ) ;
#586 = ORIENTED_EDGE ( 'NONE', *, *, #345, .F. ) ;
#587 = CARTESIAN_POINT ( 'NONE',  ( -25.00000000000001776, -14.99999999999982947, 0.000000000000000000 ) ) ;
#588 = ORIENTED_EDGE ( 'NONE', *, *, #385, .T. ) ;
#589 = VECTOR ( 'NONE', #356, 1000.000000000000114 ) ;
#590 = PRESENTATION_STYLE_ASSIGNMENT (( #64 ) ) ;
#591 = MECHANICAL_DESIGN_GEOMETRIC_PRESENTATION_REPRESENTATION (  '', ( #100 ), #778 ) ;
#592 = VERTEX_POINT ( 'NONE', #416 ) ;
#593 = AXIS2_PLACEMENT_3D ( 'NONE', #411, #151, #32 ) ;
#594 = CARTESIAN_POINT ( 'NONE',  ( -399.0000000000000568, -4.845082668403224108E-14, 0.000000000000000000 ) ) ;
#595 = CARTESIAN_POINT ( 'NONE',  ( -370.0000000000000000, -12.70000000000004547, 0.000000000000000000 ) ) ;
#596 = ORIENTED_EDGE ( 'NONE', *, *, #651, .F. ) ;
#597 = EDGE_CURVE ( 'NONE', #367, #735, #114, .T. ) ;
#598 = CARTESIAN_POINT ( 'NONE',  ( -400.0000000000000000, -10.00000000000004086, 0.000000000000000000 ) ) ;
#599 = CARTESIAN_POINT ( 'NONE',  ( -107.9999999999999716, -1.311450947838466006E-14, 0.000000000000000000 ) ) ;
#600 = VERTEX_POINT ( 'NONE', #791 ) ;
#601 = CARTESIAN_POINT ( 'NONE',  ( -114.9999999999999858, -1.396452398161329869E-14, 0.000000000000000000 ) ) ;
#602 = DIRECTION ( 'NONE',  ( 1.264902534566434494E-16, -1.000000000000000000, 0.000000000000000000 ) ) ;
#603 =( GEOMETRIC_REPRESENTATION_CONTEXT ( 3 ) GLOBAL_UNCERTAINTY_ASSIGNED_CONTEXT ( ( #280 ) ) GLOBAL_UNIT_ASSIGNED_CONTEXT ( ( #581, #1, #518 ) ) REPRESENTATION_CONTEXT ( 'NONE', 'WORKASPACE' ) );
#604 = DIRECTION ( 'NONE',  ( -1.000000000000000000, -1.214306433183765213E-16, -0.000000000000000000 ) ) ;
#605 = EDGE_LOOP ( 'NONE', ( #802, #530 ) ) ;
#606 = CIRCLE ( 'NONE', #726, 14.99999999999982592 ) ;
#607 = AXIS2_PLACEMENT_3D ( 'NONE', #741, #421, #677 ) ;
#608 = CARTESIAN_POINT ( 'NONE',  ( -0.9999999999998883116, -11.99999999999988098, 0.000000000000000000 ) ) ;
#609 = LINE ( 'NONE', #214, #400 ) ;
#610 = ADVANCED_FACE ( 'NONE', ( #787 ), #688, .T. ) ;
#611 = ORIENTED_EDGE ( 'NONE', *, *, #795, .F. ) ;
#612 = FACE_OUTER_BOUND ( 'NONE', #821, .T. ) ;
#613 = FACE_OUTER_BOUND ( 'NONE', #562, .T. ) ;
#614 = ORIENTED_EDGE ( 'NONE', *, *, #316, .F. ) ;
#615 = PRODUCT_DEFINITION ( 'UNKNOWN', '', #659, #516 ) ;
#616 = FACE_OUTER_BOUND ( 'NONE', #157, .T. ) ;
#617 = DIRECTION ( 'NONE',  ( 0.000000000000000000, -1.000000000000000000, 0.000000000000000000 ) ) ;
#618 = AXIS2_PLACEMENT_3D ( 'NONE', #148, #544, #744 ) ;
#619 = ORIENTED_EDGE ( 'NONE', *, *, #134, .T. ) ;
#620 = CARTESIAN_POINT ( 'NONE',  ( -400.0000000000000000, -11.99999999999992895, 0.000000000000000000 ) ) ;
#621 = AXIS2_PLACEMENT_3D ( 'NONE', #813, #564, #694 ) ;
#622 = CARTESIAN_POINT ( 'NONE',  ( -400.0000000000000000, 17.49999999999978684, 2.143131898507848132E-15 ) ) ;
#623 = ORIENTED_EDGE ( 'NONE', *, *, #333, .T. ) ;
#624 = CARTESIAN_POINT ( 'NONE',  ( -0.9999999999998898659, -1.214306433183646637E-16, 0.000000000000000000 ) ) ;
#625 = EDGE_CURVE ( 'NONE', #483, #219, #643, .T. ) ;
#626 = CARTESIAN_POINT ( 'NONE',  ( -94.99999999999997158, -14.99999999999987033, 0.000000000000000000 ) ) ;
#627 = ADVANCED_FACE ( 'NONE', ( #473 ), #155, .T. ) ;
#628 = ORIENTED_EDGE ( 'NONE', *, *, #259, .F. ) ;
#629 = CARTESIAN_POINT ( 'NONE',  ( -400.0000000000000000, 9.000000000000012434, 0.000000000000000000 ) ) ;
#630 = LINE ( 'NONE', #447, #672 ) ;
#631 = ORIENTED_EDGE ( 'NONE', *, *, #710, .F. ) ;
#632 = CARTESIAN_POINT ( 'NONE',  ( -114.9999999999999858, -12.70000000000001350, 0.000000000000000000 ) ) ;
#633 = AXIS2_PLACEMENT_3D ( 'NONE', #522, #56, #66 ) ;
#634 = ORIENTED_EDGE ( 'NONE', *, *, #449, .T. ) ;
#635 = CARTESIAN_POINT ( 'NONE',  ( -400.0000000000000000, -4.857225732735061127E-14, 0.000000000000000000 ) ) ;
#636 = VERTEX_POINT ( 'NONE', #796 ) ;
#637 = CARTESIAN_POINT ( 'NONE',  ( -94.99999999999997158, -1.153591111524576402E-14, 0.000000000000000000 ) ) ;
#638 = ORIENTED_EDGE ( 'NONE', *, *, #171, .F. ) ;
#639 = PRESENTATION_STYLE_ASSIGNMENT (( #183 ) ) ;
#640 = COLOUR_RGB ( '',0.6470588235294117974, 0.6196078431372549211, 0.5882352941176470784 ) ;
#641 = FACE_OUTER_BOUND ( 'NONE', #402, .T. ) ;
#642 = AXIS2_PLACEMENT_3D ( 'NONE', #761, #441, #429 ) ;
#643 = CIRCLE ( 'NONE', #310, 9.999999999999989342 ) ;
#644 = ORIENTED_EDGE ( 'NONE', *, *, #242, .T. ) ;
#645 = FACE_OUTER_BOUND ( 'NONE', #300, .T. ) ;
#646 = ADVANCED_FACE ( 'NONE', ( #674 ), #144, .T. ) ;
#647 = FILL_AREA_STYLE_COLOUR ( '', #563 ) ;
#648 = ORIENTED_EDGE ( 'NONE', *, *, #538, .T. ) ;
#649 = CARTESIAN_POINT ( 'NONE',  ( -400.0000000000000000, -17.49999999999988276, 0.000000000000000000 ) ) ;
#650 = SURFACE_STYLE_USAGE ( .BOTH. , #397 ) ;
#651 = EDGE_CURVE ( 'NONE', #58, #65, #582, .T. ) ;
#652 = ORIENTED_EDGE ( 'NONE', *, *, #450, .F. ) ;
#653 = CARTESIAN_POINT ( 'NONE',  ( -400.0000000000000000, -9.000000000000111910, 1.163414459189989035E-15 ) ) ;
#654 = AXIS2_PLACEMENT_3D ( 'NONE', #475, #547, #359 ) ;
#655 = DIRECTION ( 'NONE',  ( 0.000000000000000000, -1.000000000000000000, 0.000000000000000000 ) ) ;
#656 = CIRCLE ( 'NONE', #51, 9.000000000000063949 ) ;
#657 = ADVANCED_FACE ( 'NONE', ( #137, #612 ), #484, .F. ) ;
#658 = ORIENTED_EDGE ( 'NONE', *, *, #168, .F. ) ;
#659 = PRODUCT_DEFINITION_FORMATION_WITH_SPECIFIED_SOURCE ( 'ANY', '', #722, .NOT_KNOWN. ) ;
#660 = ADVANCED_FACE ( 'NONE', ( #616 ), #292, .T. ) ;
#661 = DIRECTION ( 'NONE',  ( -1.000000000000000000, -1.214306433183765213E-16, -0.000000000000000000 ) ) ;
#662 = FACE_OUTER_BOUND ( 'NONE', #296, .T. ) ;
#663 = ORIENTED_EDGE ( 'NONE', *, *, #509, .T. ) ;
#664 = CARTESIAN_POINT ( 'NONE',  ( -0.9999999999998898659, -1.214306433183646637E-16, 0.000000000000000000 ) ) ;
#665 = DIRECTION ( 'NONE',  ( 0.000000000000000000, -1.000000000000000000, 0.000000000000000000 ) ) ;
#666 = ORIENTED_EDGE ( 'NONE', *, *, #669, .T. ) ;
#667 = FACE_OUTER_BOUND ( 'NONE', #605, .T. ) ;
#668 = CARTESIAN_POINT ( 'NONE',  ( -109.5999999999999801, -1.330879850769406245E-14, 0.000000000000000000 ) ) ;
#669 = EDGE_CURVE ( 'NONE', #716, #73, #431, .T. ) ;
#670 = DIRECTION ( 'NONE',  ( -1.000000000000000000, -1.214306433183765213E-16, -0.000000000000000000 ) ) ;
#671 = ORIENTED_EDGE ( 'NONE', *, *, #806, .F. ) ;
#672 = VECTOR ( 'NONE', #98, 1000.000000000000000 ) ;
#673 = VECTOR ( 'NONE', #52, 1000.000000000000000 ) ;
#674 = FACE_OUTER_BOUND ( 'NONE', #212, .T. ) ;
#675 = CARTESIAN_POINT ( 'NONE',  ( -109.5999999999999801, -14.99999999999987566, 0.000000000000000000 ) ) ;
#676 = ORIENTED_EDGE ( 'NONE', *, *, #171, .T. ) ;
#677 = DIRECTION ( 'NONE',  ( 1.214306433183765706E-16, -1.000000000000000000, 0.000000000000000000 ) ) ;
#678 = CARTESIAN_POINT ( 'NONE',  ( -370.0000000000000000, -10.00000000000003553, 0.000000000000000000 ) ) ;
#679 = ORIENTED_EDGE ( 'NONE', *, *, #361, .T. ) ;
#680 = LINE ( 'NONE', #620, #673 ) ;
#681 = DIRECTION ( 'NONE',  ( 0.000000000000000000, -1.000000000000000000, 0.000000000000000000 ) ) ;
#682 = AXIS2_PLACEMENT_3D ( 'NONE', #715, #128, #270 ) ;
#683 = EDGE_LOOP ( 'NONE', ( #671, #596 ) ) ;
#684 = EDGE_CURVE ( 'NONE', #735, #367, #169, .T. ) ;
#685 = DIRECTION ( 'NONE',  ( 1.000000000000000000, 1.214306433183765706E-16, -0.000000000000000000 ) ) ;
#686 = EDGE_CURVE ( 'NONE', #321, #83, #311, .T. ) ;
#687 = CIRCLE ( 'NONE', #403, 14.99999999999985967 ) ;
#688 = CONICAL_SURFACE ( 'NONE', #593, 9.000000000000062172, 0.7853981633974405074 ) ;
#689 = ORIENTED_EDGE ( 'NONE', *, *, #396, .F. ) ;
#690 = DIRECTION ( 'NONE',  ( 0.000000000000000000, -1.000000000000000000, 0.000000000000000000 ) ) ;
#691 = DIRECTION ( 'NONE',  ( 0.000000000000000000, 1.000000000000000000, 0.000000000000000000 ) ) ;
#692 = CARTESIAN_POINT ( 'NONE',  ( -44.99999999999998579, 17.49999999999982947, 2.143131898507848132E-15 ) ) ;
#693 = VERTEX_POINT ( 'NONE', #302 ) ;
#694 = DIRECTION ( 'NONE',  ( 1.214306433183765213E-16, -1.000000000000000000, 0.000000000000000000 ) ) ;
#695 = ORIENTED_EDGE ( 'NONE', *, *, #188, .F. ) ;
#696 = CLOSED_SHELL ( 'NONE', ( #610, #828, #627, #646, #91, #501, #460, #773, #226, #143, #768, #511, #196, #393, #325, #745, #816, #141, #657, #309, #374, #57, #103, #732, #660, #585, #80, #353, #423 ) ) ;
#697 = DIRECTION ( 'NONE',  ( 0.000000000000000000, -1.000000000000000000, 0.000000000000000000 ) ) ;
#698 = LINE ( 'NONE', #622, #789 ) ;
#699 = VECTOR ( 'NONE', #229, 1000.000000000000000 ) ;
#700 = EDGE_LOOP ( 'NONE', ( #614, #115, #663, #391 ) ) ;
#701 = APPLICATION_PROTOCOL_DEFINITION ( 'draft international standard', 'automotive_design', 1998, #301 ) ;
#702 = CARTESIAN_POINT ( 'NONE',  ( -0.9999999999998883116, -11.99999999999988098, 0.000000000000000000 ) ) ;
#703 = ORIENTED_EDGE ( 'NONE', *, *, #44, .T. ) ;
#704 = SURFACE_STYLE_FILL_AREA ( #766 ) ;
#705 = FACE_OUTER_BOUND ( 'NONE', #107, .T. ) ;
#706 = SURFACE_STYLE_FILL_AREA ( #256 ) ;
#707 = ORIENTED_EDGE ( 'NONE', *, *, #669, .F. ) ;
#708 = UNCERTAINTY_MEASURE_WITH_UNIT (LENGTH_MEASURE( 1.000000000000000082E-05 ), #262, 'distance_accuracy_value', 'NONE');
#709 = STYLED_ITEM ( 'NONE', ( #590 ), #91 ) ;
#710 = EDGE_CURVE ( 'NONE', #73, #716, #283, .T. ) ;
#711 = LINE ( 'NONE', #649, #430 ) ;
#712 = EDGE_CURVE ( 'NONE', #592, #274, #572, .T. ) ;
#713 = VECTOR ( 'NONE', #508, 1000.000000000000000 ) ;
#714 = AXIS2_PLACEMENT_3D ( 'NONE', #178, #809, #433 ) ;
#715 = CARTESIAN_POINT ( 'NONE',  ( -400.0000000000000000, -4.857225732735061127E-14, 0.000000000000000000 ) ) ;
#716 = VERTEX_POINT ( 'NONE', #496 ) ;
#717 = DIRECTION ( 'NONE',  ( -1.000000000000000000, -1.214306433183765213E-16, -0.000000000000000000 ) ) ;
#718 = PLANE ( 'NONE',  #751 ) ;
#719 = ORIENTED_EDGE ( 'NONE', *, *, #412, .T. ) ;
#720 = DIRECTION ( 'NONE',  ( 0.000000000000000000, 1.000000000000000000, 0.000000000000000000 ) ) ;
#721 = EDGE_CURVE ( 'NONE', #219, #483, #323, .T. ) ;
#722 = PRODUCT ( '202500220_03_Welle_V1.0', '202500220_03_Welle_V1.0', '', ( #165 ) ) ;
#723 = ORIENTED_EDGE ( 'NONE', *, *, #410, .F. ) ;
#724 = AXIS2_PLACEMENT_3D ( 'NONE', #77, #337, #265 ) ;
#725 = SURFACE_SIDE_STYLE ('',( #59 ) ) ;
#726 = AXIS2_PLACEMENT_3D ( 'NONE', #133, #517, #461 ) ;
#727 = EDGE_LOOP ( 'NONE', ( #360, #703, #348, #420 ) ) ;
#728 = AXIS2_PLACEMENT_3D ( 'NONE', #43, #559, #690 ) ;
#729 = DIRECTION ( 'NONE',  ( -1.000000000000000000, -1.214306433183765213E-16, -0.000000000000000000 ) ) ;
#730 = DIRECTION ( 'NONE',  ( -1.000000000000000000, -1.214306433183765213E-16, -0.000000000000000000 ) ) ;
#731 = ORIENTED_EDGE ( 'NONE', *, *, #410, .T. ) ;
#732 = ADVANCED_FACE ( 'NONE', ( #176, #379 ), #822, .F. ) ;
#733 = DIRECTION ( 'NONE',  ( 0.000000000000000000, -1.000000000000000000, 0.000000000000000000 ) ) ;
#734 = CYLINDRICAL_SURFACE ( 'NONE', #49, 14.99999999999985967 ) ;
#735 = VERTEX_POINT ( 'NONE', #246 ) ;
#736 = FACE_OUTER_BOUND ( 'NONE', #314, .T. ) ;
#737 = MECHANICAL_DESIGN_GEOMETRIC_PRESENTATION_REPRESENTATION (  '', ( #278 ), #603 ) ;
#738 = CARTESIAN_POINT ( 'NONE',  ( -0.9999999999998914202, 11.99999999999988098, 1.469576158976809156E-15 ) ) ;
#739 = ORIENTED_EDGE ( 'NONE', *, *, #712, .T. ) ;
#740 = CONICAL_SURFACE ( 'NONE', #307, 11.99999999999988098, 0.7853981633974117527 ) ;
#741 = CARTESIAN_POINT ( 'NONE',  ( -109.5999999999999801, 0.000000000000000000, -14.99999999999986144 ) ) ;
#742 = VERTEX_POINT ( 'NONE', #491 ) ;
#743 = CYLINDRICAL_SURFACE ( 'NONE', #351, 17.49999999999983658 ) ;
#744 = DIRECTION ( 'NONE',  ( 0.000000000000000000, -1.000000000000000000, 0.000000000000000000 ) ) ;
#745 = ADVANCED_FACE ( 'NONE', ( #373 ), #743, .T. ) ;
#746 = ORIENTED_EDGE ( 'NONE', *, *, #795, .T. ) ;
#747 = EDGE_CURVE ( 'NONE', #271, #245, #543, .T. ) ;
#748 = FACE_OUTER_BOUND ( 'NONE', #782, .T. ) ;
#749 = LINE ( 'NONE', #306, #713 ) ;
#750 = LINE ( 'NONE', #510, #390 ) ;
#751 = AXIS2_PLACEMENT_3D ( 'NONE', #772, #462, #202 ) ;
#752 = ORIENTED_EDGE ( 'NONE', *, *, #255, .F. ) ;
#753 = AXIS2_PLACEMENT_3D ( 'NONE', #15, #324, #257 ) ;
#754 = DIRECTION ( 'NONE',  ( -1.000000000000000000, -1.214306433183765213E-16, -0.000000000000000000 ) ) ;
#755 = AXIS2_PLACEMENT_3D ( 'NONE', #664, #286, #602 ) ;
#756 = FACE_OUTER_BOUND ( 'NONE', #203, .T. ) ;
#757 = ORIENTED_EDGE ( 'NONE', *, *, #242, .F. ) ;
#758 = DIRECTION ( 'NONE',  ( 0.000000000000000000, -1.000000000000000000, 0.000000000000000000 ) ) ;
#759 = DIRECTION ( 'NONE',  ( 1.000000000000000000, 1.214306433183765706E-16, -0.000000000000000000 ) ) ;
#760 = FACE_OUTER_BOUND ( 'NONE', #329, .T. ) ;
#761 = CARTESIAN_POINT ( 'NONE',  ( -399.0000000000000568, -4.845082668403224108E-14, 0.000000000000000000 ) ) ;
#762 = DIRECTION ( 'NONE',  ( 1.264902534566434494E-16, -1.000000000000000000, 0.000000000000000000 ) ) ;
#763 = DIRECTION ( 'NONE',  ( -1.214306433183765706E-16, 1.000000000000000000, 0.000000000000000000 ) ) ;
#764 = CIRCLE ( 'NONE', #495, 14.30000000000000071 ) ;
#765 = VERTEX_POINT ( 'NONE', #632 ) ;
#766 = FILL_AREA_STYLE ('',( #515 ) ) ;
#767 = AXIS2_PLACEMENT_3D ( 'NONE', #468, #464, #74 ) ;
#768 = ADVANCED_FACE ( 'NONE', ( #96 ), #362, .F. ) ;
#769 = LINE ( 'NONE', #184, #455 ) ;
#770 = DIRECTION ( 'NONE',  ( 1.000000000000000000, 1.214306433183765213E-16, 0.000000000000000000 ) ) ;
#771 = FILL_AREA_STYLE ('',( #382 ) ) ;
#772 = CARTESIAN_POINT ( 'NONE',  ( -400.0000000000000000, 9.999999999999943157, 0.000000000000000000 ) ) ;
#773 = ADVANCED_FACE ( 'NONE', ( #748 ), #817, .T. ) ;
#774 = EDGE_CURVE ( 'NONE', #83, #61, #818, .T. ) ;
#775 = DIRECTION ( 'NONE',  ( 0.000000000000000000, 1.000000000000000000, 0.000000000000000000 ) ) ;
#776 = ORIENTED_EDGE ( 'NONE', *, *, #684, .T. ) ;
#777 = FACE_OUTER_BOUND ( 'NONE', #266, .T. ) ;
#778 =( GEOMETRIC_REPRESENTATION_CONTEXT ( 3 ) GLOBAL_UNCERTAINTY_ASSIGNED_CONTEXT ( ( #576 ) ) GLOBAL_UNIT_ASSIGNED_CONTEXT ( ( #451, #5, #579 ) ) REPRESENTATION_CONTEXT ( 'NONE', 'WORKASPACE' ) );
#779 =( NAMED_UNIT ( * ) SI_UNIT ( $, .STERADIAN. ) SOLID_ANGLE_UNIT ( ) );
#780 = ORIENTED_EDGE ( 'NONE', *, *, #684, .F. ) ;
#781 = DIRECTION ( 'NONE',  ( 1.000000000000000000, 1.214306433183774580E-16, 0.000000000000000000 ) ) ;
#782 = EDGE_LOOP ( 'NONE', ( #42, #794, #4, #467 ) ) ;
#783 = DIRECTION ( 'NONE',  ( -1.000000000000000000, -1.214306433183765213E-16, -0.000000000000000000 ) ) ;
#784 = CARTESIAN_POINT ( 'NONE',  ( -1.474514954580293919E-15, 11.00000000000006395, 1.408343819019452626E-15 ) ) ;
#785 = VERTEX_POINT ( 'NONE', #238 ) ;
#786 = ADVANCED_BREP_SHAPE_REPRESENTATION ( '202500220_03_Welle_V1.0', ( #504, #556 ), #527 ) ;
#787 = FACE_OUTER_BOUND ( 'NONE', #146, .T. ) ;
#788 = CARTESIAN_POINT ( 'NONE',  ( -25.00000000000002132, -3.035766082959412415E-15, 0.000000000000000000 ) ) ;
#789 = VECTOR ( 'NONE', #79, 1000.000000000000000 ) ;
#790 = ORIENTED_EDGE ( 'NONE', *, *, #536, .T. ) ;
#791 = CARTESIAN_POINT ( 'NONE',  ( -107.9999999999999716, 14.99999999999984723, 1.836970198721012628E-15 ) ) ;
#792 = PLANE ( 'NONE',  #97 ) ;
#793 = EDGE_CURVE ( 'NONE', #245, #271, #418, .T. ) ;
#794 = ORIENTED_EDGE ( 'NONE', *, *, #316, .T. ) ;
#795 = EDGE_CURVE ( 'NONE', #367, #525, #680, .T. ) ;
#796 = CARTESIAN_POINT ( 'NONE',  ( -25.00000000000002487, 14.99999999999982236, 1.836970198721008290E-15 ) ) ;
#797 = CARTESIAN_POINT ( 'NONE',  ( -400.0000000000000000, -4.857225732735061127E-14, 0.000000000000000000 ) ) ;
#798 = EDGE_LOOP ( 'NONE', ( #7, #776, #746, #123 ) ) ;
#799 = DIRECTION ( 'NONE',  ( -1.214306433183765213E-16, 1.000000000000000000, 0.000000000000000000 ) ) ;
#800 = VECTOR ( 'NONE', #85, 1000.000000000000000 ) ;
#801 = CARTESIAN_POINT ( 'NONE',  ( -44.99999999999998579, -5.464378949326939981E-15, 0.000000000000000000 ) ) ;
#802 = ORIENTED_EDGE ( 'NONE', *, *, #793, .F. ) ;
#803 = AXIS2_PLACEMENT_3D ( 'NONE', #35, #276, #81 ) ;
#804 = AXIS2_PLACEMENT_3D ( 'NONE', #624, #170, #569 ) ;
#805 = DIRECTION ( 'NONE',  ( 0.000000000000000000, -1.000000000000000000, 0.000000000000000000 ) ) ;
#806 = EDGE_CURVE ( 'NONE', #65, #58, #295, .T. ) ;
#807 = LINE ( 'NONE', #738, #589 ) ;
#808 = ORIENTED_EDGE ( 'NONE', *, *, #387, .F. ) ;
#809 = DIRECTION ( 'NONE',  ( -1.000000000000000000, -1.214306433183765213E-16, -0.000000000000000000 ) ) ;
#810 = CARTESIAN_POINT ( 'NONE',  ( -114.9999999999999858, -1.396452398161329869E-14, 0.000000000000000000 ) ) ;
#811 = DIRECTION ( 'NONE',  ( 2.312964634635769581E-16, -1.000000000000000000, 0.000000000000000000 ) ) ;
#812 = ORIENTED_EDGE ( 'NONE', *, *, #806, .T. ) ;
#813 = CARTESIAN_POINT ( 'NONE',  ( -1.595945597898662724E-15, 12.00000000000000000, 0.000000000000000000 ) ) ;
#814 = DIRECTION ( 'NONE',  ( -1.000000000000000000, -1.214306433183765213E-16, -0.000000000000000000 ) ) ;
#815 = ORIENTED_EDGE ( 'NONE', *, *, #830, .T. ) ;
#816 = ADVANCED_FACE ( 'NONE', ( #41, #376 ), #368, .F. ) ;
#817 = CYLINDRICAL_SURFACE ( 'NONE', #253, 17.49999999999983658 ) ;
#818 = CIRCLE ( 'NONE', #642, 9.999999999999991118 ) ;
#819 = DIRECTION ( 'NONE',  ( -1.000000000000000000, -1.214306433183765213E-16, -0.000000000000000000 ) ) ;
#820 = DIRECTION ( 'NONE',  ( 0.7071067811865530128, 0.7071067811865421326, 0.000000000000000000 ) ) ;
#821 = EDGE_LOOP ( 'NONE', ( #378, #453 ) ) ;
#822 = PLANE ( 'NONE',  #237 ) ;
#823 = CYLINDRICAL_SURFACE ( 'NONE', #167, 14.99999999999982592 ) ;
#824 = ORIENTED_EDGE ( 'NONE', *, *, #450, .T. ) ;
#825 = ORIENTED_EDGE ( 'NONE', *, *, #259, .T. ) ;
#826 = DIRECTION ( 'NONE',  ( 0.000000000000000000, 1.000000000000000000, 0.000000000000000000 ) ) ;
#827 = AXIS2_PLACEMENT_3D ( 'NONE', #465, #190, #130 ) ;
#828 = ADVANCED_FACE ( 'NONE', ( #645 ), #282, .T. ) ;
#829 = AXIS2_PLACEMENT_3D ( 'NONE', #404, #661, #697 ) ;
#830 = EDGE_CURVE ( 'NONE', #693, #520, #101, .T. ) ;
ENDSEC;
END-ISO-10303-21;
