ISO-10303-21;
HEADER;
FILE_DESCRIPTION (( 'STEP AP214' ),
    '1' );
FILE_NAME ('202500220_03_Greiferfinger_V1.0.STEP',
    '2025-04-30T07:17:56',
    ( '' ),
    ( '' ),
    'SwSTEP 2.0',
    'SolidWorks 2021',
    '' );
FILE_SCHEMA (( 'AUTOMOTIVE_DESIGN' ));
ENDSEC;

DATA;
#1 = CARTESIAN_POINT ( 'NONE',  ( -6.600000000000000533, 0.000000000000000000, 5.000000000000000000 ) ) ;
#2 = PRODUCT_CONTEXT ( 'NONE', #304, 'mechanical' ) ;
#3 = SURFACE_STYLE_USAGE ( .BOTH. , #595 ) ;
#4 = EDGE_CURVE ( 'NONE', #194, #181, #332, .T. ) ;
#5 = EDGE_LOOP ( 'NONE', ( #365, #170, #489 ) ) ;
#6 = CIRCLE ( 'NONE', #107, 6.600000000000000533 ) ;
#7 = DIRECTION ( 'NONE',  ( 0.000000000000000000, 0.000000000000000000, 1.000000000000000000 ) ) ;
#8 =( NAMED_UNIT ( * ) PLANE_ANGLE_UNIT ( ) SI_UNIT ( $, .RADIAN. ) );
#9 = DIRECTION ( 'NONE',  ( 0.000000000000000000, -1.000000000000000000, 0.000000000000000000 ) ) ;
#10 = EDGE_CURVE ( 'NONE', #20, #256, #418, .T. ) ;
#11 = EDGE_CURVE ( 'NONE', #185, #400, #589, .T. ) ;
#12 = DIRECTION ( 'NONE',  ( 0.000000000000000000, -0.000000000000000000, 1.000000000000000000 ) ) ;
#13 = ORIENTED_EDGE ( 'NONE', *, *, #127, .F. ) ;
#14 = CARTESIAN_POINT ( 'NONE',  ( -4.308131845707604768, 80.00000000000000000, 5.000000000000000000 ) ) ;
#15 = VERTEX_POINT ( 'NONE', #326 ) ;
#16 = FILL_AREA_STYLE_COLOUR ( '', #487 ) ;
#17 = COLOUR_RGB ( '',0.7921568627450980005, 0.8196078431372548767, 0.9333333333333333481 ) ;
#18 = ORIENTED_EDGE ( 'NONE', *, *, #146, .F. ) ;
#19 = ORIENTED_EDGE ( 'NONE', *, *, #613, .T. ) ;
#20 = VERTEX_POINT ( 'NONE', #477 ) ;
#21 = EDGE_CURVE ( 'NONE', #288, #194, #638, .T. ) ;
#22 = CARTESIAN_POINT ( 'NONE',  ( 0.000000000000000000, 80.00000000000000000, 0.000000000000000000 ) ) ;
#23 = FACE_OUTER_BOUND ( 'NONE', #359, .T. ) ;
#24 = UNCERTAINTY_MEASURE_WITH_UNIT (LENGTH_MEASURE( 1.000000000000000082E-05 ), #353, 'distance_accuracy_value', 'NONE');
#25 = AXIS2_PLACEMENT_3D ( 'NONE', #426, #135, #620 ) ;
#26 = CIRCLE ( 'NONE', #474, 6.600000000000000533 ) ;
#27 = DIRECTION ( 'NONE',  ( 0.000000000000000000, -1.000000000000000000, 0.000000000000000000 ) ) ;
#28 = DIRECTION ( 'NONE',  ( 0.000000000000000000, -1.000000000000000000, 0.000000000000000000 ) ) ;
#29 = ADVANCED_FACE ( 'NONE', ( #140 ), #481, .T. ) ;
#30 = DIRECTION ( 'NONE',  ( 0.000000000000000000, 0.000000000000000000, -1.000000000000000000 ) ) ;
#31 = UNCERTAINTY_MEASURE_WITH_UNIT (LENGTH_MEASURE( 1.000000000000000082E-05 ), #395, 'distance_accuracy_value', 'NONE');
#32 = ORIENTED_EDGE ( 'NONE', *, *, #177, .F. ) ;
#33 = FACE_OUTER_BOUND ( 'NONE', #356, .T. ) ;
#34 = EDGE_CURVE ( 'NONE', #456, #627, #157, .T. ) ;
#35 = EDGE_LOOP ( 'NONE', ( #578, #564, #448, #586 ) ) ;
#36 = SURFACE_STYLE_FILL_AREA ( #137 ) ;
#37 = ORIENTED_EDGE ( 'NONE', *, *, #403, .F. ) ;
#38 = ORIENTED_EDGE ( 'NONE', *, *, #554, .F. ) ;
#39 = DIRECTION ( 'NONE',  ( 0.000000000000000000, 0.000000000000000000, -1.000000000000000000 ) ) ;
#40 = ORIENTED_EDGE ( 'NONE', *, *, #634, .T. ) ;
#41 = FACE_OUTER_BOUND ( 'NONE', #493, .T. ) ;
#42 = CARTESIAN_POINT ( 'NONE',  ( 8.082668874372532006E-16, 9.999999999999994671, 6.600000000000000533 ) ) ;
#43 = PRESENTATION_STYLE_ASSIGNMENT (( #3 ) ) ;
#44 =( NAMED_UNIT ( * ) SI_UNIT ( $, .STERADIAN. ) SOLID_ANGLE_UNIT ( ) );
#45 = AXIS2_PLACEMENT_3D ( 'NONE', #572, #625, #380 ) ;
#46 = VECTOR ( 'NONE', #250, 1000.000000000000000 ) ;
#47 = DIRECTION ( 'NONE',  ( -0.000000000000000000, -1.000000000000000000, -0.000000000000000000 ) ) ;
#48 = DIRECTION ( 'NONE',  ( -0.000000000000000000, -1.000000000000000000, -0.000000000000000000 ) ) ;
#49 = FILL_AREA_STYLE ('',( #552 ) ) ;
#50 = EDGE_CURVE ( 'NONE', #185, #259, #421, .T. ) ;
#51 = DIRECTION ( 'NONE',  ( -0.000000000000000000, -1.000000000000000000, -0.000000000000000000 ) ) ;
#52 = DIRECTION ( 'NONE',  ( 0.000000000000000000, 0.000000000000000000, -1.000000000000000000 ) ) ;
#53 = ORIENTED_EDGE ( 'NONE', *, *, #187, .T. ) ;
#54 = AXIS2_PLACEMENT_3D ( 'NONE', #92, #303, #604 ) ;
#55 = ORIENTED_EDGE ( 'NONE', *, *, #187, .F. ) ;
#56 = FILL_AREA_STYLE ('',( #16 ) ) ;
#57 = ORIENTED_EDGE ( 'NONE', *, *, #490, .F. ) ;
#58 = EDGE_CURVE ( 'NONE', #627, #637, #286, .T. ) ;
#59 = DIRECTION ( 'NONE',  ( -0.000000000000000000, -1.000000000000000000, -0.000000000000000000 ) ) ;
#60 = ORIENTED_EDGE ( 'NONE', *, *, #339, .T. ) ;
#61 = DIRECTION ( 'NONE',  ( 0.000000000000000000, 0.000000000000000000, -1.000000000000000000 ) ) ;
#62 = CIRCLE ( 'NONE', #251, 4.500000000000000000 ) ;
#63 = ORIENTED_EDGE ( 'NONE', *, *, #105, .F. ) ;
#64 = VECTOR ( 'NONE', #374, 1000.000000000000000 ) ;
#65 = FACE_OUTER_BOUND ( 'NONE', #214, .T. ) ;
#66 = ORIENTED_EDGE ( 'NONE', *, *, #127, .T. ) ;
#67 = EDGE_CURVE ( 'NONE', #194, #288, #6, .T. ) ;
#68 = CARTESIAN_POINT ( 'NONE',  ( 5.510910596163088569E-16, 0.000000000000000000, -4.500000000000000000 ) ) ;
#69 = ORIENTED_EDGE ( 'NONE', *, *, #248, .F. ) ;
#70 = DIRECTION ( 'NONE',  ( 0.000000000000000000, -0.000000000000000000, 1.000000000000000000 ) ) ;
#71 = CARTESIAN_POINT ( 'NONE',  ( 0.000000000000000000, 80.00000000000000000, -6.600000000000000533 ) ) ;
#72 = CARTESIAN_POINT ( 'NONE',  ( 7.595987614292084738E-16, 79.50759612349389727, 5.805189185291150800 ) ) ;
#73 = CONICAL_SURFACE ( 'NONE', #439, 5.101963570546872440, 0.9599310885968761475 ) ;
#74 = PRESENTATION_LAYER_ASSIGNMENT (  '', '', ( #557 ) ) ;
#75 = DIRECTION ( 'NONE',  ( 0.000000000000000000, 1.000000000000000000, 0.000000000000000000 ) ) ;
#76 = EDGE_LOOP ( 'NONE', ( #78, #561, #478 ) ) ;
#77 = EDGE_CURVE ( 'NONE', #136, #162, #195, .T. ) ;
#78 = ORIENTED_EDGE ( 'NONE', *, *, #339, .F. ) ;
#79 = ORIENTED_EDGE ( 'NONE', *, *, #67, .F. ) ;
#80 = DIRECTION ( 'NONE',  ( 0.000000000000000000, -1.000000000000000000, 0.000000000000000000 ) ) ;
#81 = DIRECTION ( 'NONE',  ( 0.000000000000000000, 0.000000000000000000, -1.000000000000000000 ) ) ;
#82 = EDGE_LOOP ( 'NONE', ( #409, #141, #53, #310 ) ) ;
#83 = CIRCLE ( 'NONE', #54, 5.805189185291150800 ) ;
#84 = DIRECTION ( 'NONE',  ( 0.000000000000000000, 1.000000000000000000, 0.000000000000000000 ) ) ;
#85 = AXIS2_PLACEMENT_3D ( 'NONE', #255, #445, #204 ) ;
#86 = DIRECTION ( 'NONE',  ( -0.000000000000000000, -1.000000000000000000, -0.000000000000000000 ) ) ;
#87 = ORIENTED_EDGE ( 'NONE', *, *, #4, .F. ) ;
#88 = DIRECTION ( 'NONE',  ( -1.000000000000000000, 0.000000000000000000, -0.000000000000000000 ) ) ;
#89 = CARTESIAN_POINT ( 'NONE',  ( 3.061616997868378704E-16, -5.000000000000000000, 2.499999999999996447 ) ) ;
#90 = DIRECTION ( 'NONE',  ( 1.003171929053521049E-16, -0.5735764363510502672, 0.8191520442889888010 ) ) ;
#91 = CARTESIAN_POINT ( 'NONE',  ( 3.061616997868374760E-16, 24.99999999999999645, 2.499999999999992895 ) ) ;
#92 = CARTESIAN_POINT ( 'NONE',  ( 0.000000000000000000, 79.50759612349389727, 0.000000000000000000 ) ) ;
#93 = DIRECTION ( 'NONE',  ( 0.000000000000000000, -1.084202172485504040E-15, 1.000000000000000000 ) ) ;
#94 = VECTOR ( 'NONE', #467, 1000.000000000000000 ) ;
#95 = DIRECTION ( 'NONE',  ( 0.000000000000000000, 0.000000000000000000, -1.000000000000000000 ) ) ;
#96 = VECTOR ( 'NONE', #485, 1000.000000000000000 ) ;
#97 =( NAMED_UNIT ( * ) SI_UNIT ( $, .STERADIAN. ) SOLID_ANGLE_UNIT ( ) );
#98 = VECTOR ( 'NONE', #587, 1000.000000000000000 ) ;
#99 = FACE_OUTER_BOUND ( 'NONE', #76, .T. ) ;
#100 = EDGE_LOOP ( 'NONE', ( #18, #464, #38, #206 ) ) ;
#101 = CARTESIAN_POINT ( 'NONE',  ( 0.000000000000000000, 9.999999999999987566, -6.600000000000000533 ) ) ;
#102 = LINE ( 'NONE', #198, #257 ) ;
#103 = PLANE ( 'NONE',  #85 ) ;
#104 = CARTESIAN_POINT ( 'NONE',  ( 0.000000000000000000, 0.000000000000000000, 0.000000000000000000 ) ) ;
#105 = EDGE_CURVE ( 'NONE', #106, #362, #242, .T. ) ;
#106 = VERTEX_POINT ( 'NONE', #322 ) ;
#107 = AXIS2_PLACEMENT_3D ( 'NONE', #183, #133, #531 ) ;
#108 = DIRECTION ( 'NONE',  ( 0.000000000000000000, 1.000000000000000000, 0.000000000000000000 ) ) ;
#109 = CIRCLE ( 'NONE', #119, 4.500000000000000000 ) ;
#110 = CIRCLE ( 'NONE', #410, 5.805189185291150800 ) ;
#111 = ORIENTED_EDGE ( 'NONE', *, *, #518, .F. ) ;
#112 = DIRECTION ( 'NONE',  ( -0.000000000000000000, -1.000000000000000000, -0.000000000000000000 ) ) ;
#113 = CARTESIAN_POINT ( 'NONE',  ( 0.000000000000000000, 0.000000000000000000, 4.500000000000000000 ) ) ;
#114 = EDGE_LOOP ( 'NONE', ( #462, #611, #79, #55 ) ) ;
#115 = ADVANCED_FACE ( 'NONE', ( #33 ), #236, .T. ) ;
#116 = CARTESIAN_POINT ( 'NONE',  ( -4.308131845707604768, 0.000000000000000000, 5.000000000000000000 ) ) ;
#117 = CLOSED_SHELL ( 'NONE', ( #218, #150, #437, #434, #29, #508, #156, #115, #369, #210, #608, #173, #352, #292, #168, #130, #502, #624, #264, #565, #472 ) ) ;
#118 = ORIENTED_EDGE ( 'NONE', *, *, #569, .F. ) ;
#119 = AXIS2_PLACEMENT_3D ( 'NONE', #253, #553, #441 ) ;
#120 = ORIENTED_EDGE ( 'NONE', *, *, #639, .F. ) ;
#121 = CONICAL_SURFACE ( 'NONE', #513, 2.499999999999992895, 1.029744258676650093 ) ;
#122 = CARTESIAN_POINT ( 'NONE',  ( -7.715801811797019755E-15, 26.50215154756890357, 0.000000000000000000 ) ) ;
#123 = PRODUCT_DEFINITION ( 'UNKNOWN', '', #470, #180 ) ;
#124 = EDGE_LOOP ( 'NONE', ( #270, #66, #459, #179 ) ) ;
#125 = LINE ( 'NONE', #480, #241 ) ;
#126 = DIRECTION ( 'NONE',  ( 0.000000000000000000, 0.000000000000000000, 1.000000000000000000 ) ) ;
#127 = EDGE_CURVE ( 'NONE', #400, #185, #274, .T. ) ;
#128 = DIRECTION ( 'NONE',  ( 0.000000000000000000, 1.000000000000000000, 1.084202172485504040E-15 ) ) ;
#129 = CARTESIAN_POINT ( 'NONE',  ( 0.000000000000000000, 80.00000000000000000, 0.000000000000000000 ) ) ;
#130 = ADVANCED_FACE ( 'NONE', ( #383 ), #230, .F. ) ;
#131 = AXIS2_PLACEMENT_3D ( 'NONE', #598, #84, #289 ) ;
#132 = CARTESIAN_POINT ( 'NONE',  ( 0.000000000000000000, 0.000000000000000000, -5.000000000000000000 ) ) ;
#133 = DIRECTION ( 'NONE',  ( 0.000000000000000000, -1.000000000000000000, 0.000000000000000000 ) ) ;
#134 = ORIENTED_EDGE ( 'NONE', *, *, #139, .F. ) ;
#135 = DIRECTION ( 'NONE',  ( 0.000000000000000000, 1.000000000000000000, 0.000000000000000000 ) ) ;
#136 = VERTEX_POINT ( 'NONE', #188 ) ;
#137 = FILL_AREA_STYLE ('',( #588 ) ) ;
#138 = CIRCLE ( 'NONE', #336, 2.499999999999992895 ) ;
#139 = EDGE_CURVE ( 'NONE', #288, #466, #176, .T. ) ;
#140 = FACE_OUTER_BOUND ( 'NONE', #361, .T. ) ;
#141 = ORIENTED_EDGE ( 'NONE', *, *, #160, .T. ) ;
#142 = CARTESIAN_POINT ( 'NONE',  ( 0.000000000000000000, 80.00000000000000000, -5.101963570546872440 ) ) ;
#143 = AXIS2_PLACEMENT_3D ( 'NONE', #406, #108, #562 ) ;
#144 = STYLED_ITEM ( 'NONE', ( #388 ), #437 ) ;
#145 = CARTESIAN_POINT ( 'NONE',  ( 0.000000000000000000, -5.000000000000000000, 0.000000000000000000 ) ) ;
#146 = EDGE_CURVE ( 'NONE', #246, #314, #574, .T. ) ;
#147 = VECTOR ( 'NONE', #376, 999.9999999999998863 ) ;
#148 = DIRECTION ( 'NONE',  ( 0.000000000000000000, 0.000000000000000000, -1.000000000000000000 ) ) ;
#149 = CARTESIAN_POINT ( 'NONE',  ( 0.000000000000000000, -5.000000000000000000, 3.999999999999996447 ) ) ;
#150 = ADVANCED_FACE ( 'NONE', ( #23 ), #349, .T. ) ;
#151 = FACE_OUTER_BOUND ( 'NONE', #114, .T. ) ;
#152 = DIRECTION ( 'NONE',  ( -0.000000000000000000, -1.000000000000000000, -0.000000000000000000 ) ) ;
#153 = DIRECTION ( 'NONE',  ( 1.000000000000000000, 0.000000000000000000, 0.000000000000000000 ) ) ;
#154 = CIRCLE ( 'NONE', #205, 2.500000000000000000 ) ;
#155 = FACE_OUTER_BOUND ( 'NONE', #223, .T. ) ;
#156 = ADVANCED_FACE ( 'NONE', ( #355 ), #295, .T. ) ;
#157 = CIRCLE ( 'NONE', #425, 6.600000000000000533 ) ;
#158 = CARTESIAN_POINT ( 'NONE',  ( 0.000000000000000000, -5.000000000000000000, 0.000000000000000000 ) ) ;
#159 = VERTEX_POINT ( 'NONE', #495 ) ;
#160 = EDGE_CURVE ( 'NONE', #558, #616, #83, .T. ) ;
#161 = CARTESIAN_POINT ( 'NONE',  ( 0.000000000000000000, 24.99999999999999645, 0.000000000000000000 ) ) ;
#162 = VERTEX_POINT ( 'NONE', #149 ) ;
#163 = ORIENTED_EDGE ( 'NONE', *, *, #330, .F. ) ;
#164 = VECTOR ( 'NONE', #560, 1000.000000000000000 ) ;
#165 = VECTOR ( 'NONE', #317, 1000.000000000000000 ) ;
#166 = ORIENTED_EDGE ( 'NONE', *, *, #77, .T. ) ;
#167 = DIRECTION ( 'NONE',  ( 0.000000000000000000, -1.000000000000000000, 0.000000000000000000 ) ) ;
#168 = ADVANCED_FACE ( 'NONE', ( #438 ), #551, .F. ) ;
#169 = LINE ( 'NONE', #366, #94 ) ;
#170 = ORIENTED_EDGE ( 'NONE', *, *, #146, .T. ) ;
#171 = CARTESIAN_POINT ( 'NONE',  ( -6.600000000000000533, 0.000000000000000000, -5.000000000000000000 ) ) ;
#172 = VECTOR ( 'NONE', #254, 999.9999999999998863 ) ;
#173 = ADVANCED_FACE ( 'NONE', ( #245 ), #503, .T. ) ;
#174 = CARTESIAN_POINT ( 'NONE',  ( 8.082668874372532006E-16, 80.00000000000000000, 6.600000000000000533 ) ) ;
#175 = CARTESIAN_POINT ( 'NONE',  ( 7.002977511732852202E-16, 80.00000000000000000, 5.718365096457686647 ) ) ;
#176 = LINE ( 'NONE', #174, #315 ) ;
#177 = EDGE_CURVE ( 'NONE', #259, #581, #109, .T. ) ;
#178 = PRODUCT ( '202500220_03_Greiferfinger_V1.0', '202500220_03_Greiferfinger_V1.0', '', ( #2 ) ) ;
#179 = ORIENTED_EDGE ( 'NONE', *, *, #177, .T. ) ;
#180 = PRODUCT_DEFINITION_CONTEXT ( 'detailed design', #605, 'design' ) ;
#181 = VERTEX_POINT ( 'NONE', #101 ) ;
#182 = PLANE ( 'NONE',  #199 ) ;
#183 = CARTESIAN_POINT ( 'NONE',  ( 0.000000000000000000, 74.99999999999995737, 0.000000000000000000 ) ) ;
#184 = CARTESIAN_POINT ( 'NONE',  ( 0.000000000000000000, -5.000000000000000000, 0.000000000000000000 ) ) ;
#185 = VERTEX_POINT ( 'NONE', #345 ) ;
#186 = LINE ( 'NONE', #142, #592 ) ;
#187 = EDGE_CURVE ( 'NONE', #616, #194, #635, .T. ) ;
#188 = CARTESIAN_POINT ( 'NONE',  ( 5.204748896376249713E-16, -5.000000000000000000, -3.999999999999996447 ) ) ;
#189 = ORIENTED_EDGE ( 'NONE', *, *, #248, .T. ) ;
#190 = FACE_OUTER_BOUND ( 'NONE', #100, .T. ) ;
#191 = AXIS2_PLACEMENT_3D ( 'NONE', #184, #486, #81 ) ;
#192 = CARTESIAN_POINT ( 'NONE',  ( 0.000000000000000000, 74.99999999999995737, -6.600000000000000533 ) ) ;
#193 = SURFACE_SIDE_STYLE ('',( #596 ) ) ;
#194 = VERTEX_POINT ( 'NONE', #192 ) ;
#195 = CIRCLE ( 'NONE', #307, 3.999999999999996447 ) ;
#196 = CARTESIAN_POINT ( 'NONE',  ( 0.000000000000000000, 80.00000000000000000, 0.000000000000000000 ) ) ;
#197 =( NAMED_UNIT ( * ) PLANE_ANGLE_UNIT ( ) SI_UNIT ( $, .RADIAN. ) );
#198 = CARTESIAN_POINT ( 'NONE',  ( 6.248103356036628201E-16, 80.00000000000000000, 5.101963570546872440 ) ) ;
#199 = AXIS2_PLACEMENT_3D ( 'NONE', #321, #27, #222 ) ;
#200 = CARTESIAN_POINT ( 'NONE',  ( 0.000000000000000000, 80.00000000000000000, -5.718365096457686647 ) ) ;
#201 = SHAPE_DEFINITION_REPRESENTATION ( #280, #545 ) ;
#202 = EDGE_CURVE ( 'NONE', #219, #159, #543, .T. ) ;
#203 = CARTESIAN_POINT ( 'NONE',  ( 0.000000000000000000, 79.50759612349389727, 0.000000000000000000 ) ) ;
#204 = DIRECTION ( 'NONE',  ( 0.000000000000000000, -0.000000000000000000, 1.000000000000000000 ) ) ;
#205 = AXIS2_PLACEMENT_3D ( 'NONE', #496, #389, #52 ) ;
#206 = ORIENTED_EDGE ( 'NONE', *, *, #417, .F. ) ;
#207 = VECTOR ( 'NONE', #152, 1000.000000000000000 ) ;
#208 = DIRECTION ( 'NONE',  ( 0.000000000000000000, 1.000000000000000000, 0.000000000000000000 ) ) ;
#209 = ORIENTED_EDGE ( 'NONE', *, *, #160, .F. ) ;
#210 = ADVANCED_FACE ( 'NONE', ( #599, #548 ), #103, .F. ) ;
#211 = ORIENTED_EDGE ( 'NONE', *, *, #50, .F. ) ;
#212 = ORIENTED_EDGE ( 'NONE', *, *, #330, .T. ) ;
#213 = PRESENTATION_LAYER_ASSIGNMENT (  '', '', ( #424 ) ) ;
#214 = EDGE_LOOP ( 'NONE', ( #555, #272, #429, #163 ) ) ;
#215 = DIRECTION ( 'NONE',  ( 0.000000000000000000, 0.000000000000000000, -1.000000000000000000 ) ) ;
#216 = AXIS2_PLACEMENT_3D ( 'NONE', #196, #433, #392 ) ;
#217 = UNCERTAINTY_MEASURE_WITH_UNIT (LENGTH_MEASURE( 1.000000000000000082E-05 ), #440, 'distance_accuracy_value', 'NONE');
#218 = ADVANCED_FACE ( 'NONE', ( #602 ), #379, .T. ) ;
#219 = VERTEX_POINT ( 'NONE', #401 ) ;
#220 = SURFACE_STYLE_FILL_AREA ( #56 ) ;
#221 = ORIENTED_EDGE ( 'NONE', *, *, #77, .F. ) ;
#222 = DIRECTION ( 'NONE',  ( 0.000000000000000000, -0.000000000000000000, -1.000000000000000000 ) ) ;
#223 = EDGE_LOOP ( 'NONE', ( #525, #263, #515, #13 ) ) ;
#224 = FACE_OUTER_BOUND ( 'NONE', #82, .T. ) ;
#225 =( GEOMETRIC_REPRESENTATION_CONTEXT ( 3 ) GLOBAL_UNCERTAINTY_ASSIGNED_CONTEXT ( ( #316 ) ) GLOBAL_UNIT_ASSIGNED_CONTEXT ( ( #591, #296, #97 ) ) REPRESENTATION_CONTEXT ( 'NONE', 'WORKASPACE' ) );
#226 = EDGE_CURVE ( 'NONE', #219, #106, #484, .T. ) ;
#227 = CARTESIAN_POINT ( 'NONE',  ( 0.000000000000000000, 0.000000000000000000, 0.000000000000000000 ) ) ;
#228 = LINE ( 'NONE', #175, #147 ) ;
#229 = DIRECTION ( 'NONE',  ( 0.000000000000000000, 0.000000000000000000, 1.000000000000000000 ) ) ;
#230 = PLANE ( 'NONE',  #340 ) ;
#231 = DIRECTION ( 'NONE',  ( -0.000000000000000000, -1.000000000000000000, -0.000000000000000000 ) ) ;
#232 = EDGE_LOOP ( 'NONE', ( #37, #60, #387 ) ) ;
#233 = CARTESIAN_POINT ( 'NONE',  ( 0.000000000000000000, -5.000000000000000000, -2.500000000000000000 ) ) ;
#234 = AXIS2_PLACEMENT_3D ( 'NONE', #327, #231, #284 ) ;
#235 = FACE_BOUND ( 'NONE', #266, .T. ) ;
#236 = CYLINDRICAL_SURFACE ( 'NONE', #390, 6.600000000000000533 ) ;
#237 = ORIENTED_EDGE ( 'NONE', *, *, #258, .F. ) ;
#238 = EDGE_CURVE ( 'NONE', #581, #259, #62, .T. ) ;
#239 = CARTESIAN_POINT ( 'NONE',  ( -6.600000000000000533, 9.999999999999998224, -5.000000000000000000 ) ) ;
#240 = DIRECTION ( 'NONE',  ( 0.000000000000000000, 0.000000000000000000, -1.000000000000000000 ) ) ;
#241 = VECTOR ( 'NONE', #524, 999.9999999999998863 ) ;
#242 = LINE ( 'NONE', #338, #520 ) ;
#243 = EDGE_LOOP ( 'NONE', ( #221, #283, #632, #111 ) ) ;
#244 = CARTESIAN_POINT ( 'NONE',  ( 6.678704855124133328E-16, 80.00000000000000000, 5.101963570546872440 ) ) ;
#245 = FACE_OUTER_BOUND ( 'NONE', #124, .T. ) ;
#246 = VERTEX_POINT ( 'NONE', #455 ) ;
#247 = LINE ( 'NONE', #436, #299 ) ;
#248 = EDGE_CURVE ( 'NONE', #530, #402, #370, .T. ) ;
#249 = FILL_AREA_STYLE ('',( #394 ) ) ;
#250 = DIRECTION ( 'NONE',  ( -0.000000000000000000, 1.000000000000000000, -0.000000000000000000 ) ) ;
#251 = AXIS2_PLACEMENT_3D ( 'NONE', #415, #167, #265 ) ;
#252 = AXIS2_PLACEMENT_3D ( 'NONE', #347, #601, #351 ) ;
#253 = CARTESIAN_POINT ( 'NONE',  ( 0.000000000000000000, 0.000000000000000000, 0.000000000000000000 ) ) ;
#254 = DIRECTION ( 'NONE',  ( 1.049727191138615984E-16, -0.5150380749100580413, 0.8571673007021101132 ) ) ;
#255 = CARTESIAN_POINT ( 'NONE',  ( 0.000000000000000000, 0.000000000000000000, 0.000000000000000000 ) ) ;
#256 = VERTEX_POINT ( 'NONE', #116 ) ;
#257 = VECTOR ( 'NONE', #90, 1000.000000000000227 ) ;
#258 = EDGE_CURVE ( 'NONE', #637, #181, #451, .T. ) ;
#259 = VERTEX_POINT ( 'NONE', #113 ) ;
#260 = AXIS2_PLACEMENT_3D ( 'NONE', #171, #12, #516 ) ;
#261 =( GEOMETRIC_REPRESENTATION_CONTEXT ( 3 ) GLOBAL_UNCERTAINTY_ASSIGNED_CONTEXT ( ( #617 ) ) GLOBAL_UNIT_ASSIGNED_CONTEXT ( ( #614, #465, #371 ) ) REPRESENTATION_CONTEXT ( 'NONE', 'WORKASPACE' ) );
#262 = ORIENTED_EDGE ( 'NONE', *, *, #268, .T. ) ;
#263 = ORIENTED_EDGE ( 'NONE', *, *, #618, .F. ) ;
#264 = ADVANCED_FACE ( 'NONE', ( #65 ), #311, .F. ) ;
#265 = DIRECTION ( 'NONE',  ( 0.000000000000000000, 0.000000000000000000, -1.000000000000000000 ) ) ;
#266 = EDGE_LOOP ( 'NONE', ( #535, #522 ) ) ;
#267 = CARTESIAN_POINT ( 'NONE',  ( 4.308131845707605656, 9.999999999999998224, 5.000000000000000000 ) ) ;
#268 = EDGE_CURVE ( 'NONE', #466, #314, #342, .T. ) ;
#269 = EDGE_LOOP ( 'NONE', ( #363, #568, #262, #454, #541, #291, #281, #87 ) ) ;
#270 = ORIENTED_EDGE ( 'NONE', *, *, #463, .F. ) ;
#271 = CARTESIAN_POINT ( 'NONE',  ( 8.082668874372532006E-16, 74.99999999999995737, 6.600000000000000533 ) ) ;
#272 = ORIENTED_EDGE ( 'NONE', *, *, #58, .F. ) ;
#273 = DIRECTION ( 'NONE',  ( -0.000000000000000000, -1.000000000000000000, -0.000000000000000000 ) ) ;
#274 = CIRCLE ( 'NONE', #25, 4.500000000000000000 ) ;
#275 = DIRECTION ( 'NONE',  ( -0.000000000000000000, 1.000000000000000000, -0.000000000000000000 ) ) ;
#276 = DIRECTION ( 'NONE',  ( 0.000000000000000000, -1.000000000000000000, 0.000000000000000000 ) ) ;
#277 = CONICAL_SURFACE ( 'NONE', #252, 5.718365096457686647, 0.1745329251994292563 ) ;
#278 = DIRECTION ( 'NONE',  ( 1.000000000000000000, -0.000000000000000000, -0.000000000000000000 ) ) ;
#279 = CARTESIAN_POINT ( 'NONE',  ( 4.308131845707604768, 80.00000000000000000, -5.000000000000000000 ) ) ;
#280 = PRODUCT_DEFINITION_SHAPE ( 'NONE', 'NONE',  #123 ) ;
#281 = ORIENTED_EDGE ( 'NONE', *, *, #258, .T. ) ;
#282 = EDGE_CURVE ( 'NONE', #246, #466, #26, .T. ) ;
#283 = ORIENTED_EDGE ( 'NONE', *, *, #597, .T. ) ;
#284 = DIRECTION ( 'NONE',  ( 0.000000000000000000, 0.000000000000000000, -1.000000000000000000 ) ) ;
#285 = ORIENTED_EDGE ( 'NONE', *, *, #4, .T. ) ;
#286 = LINE ( 'NONE', #279, #96 ) ;
#287 = CARTESIAN_POINT ( 'NONE',  ( -6.600000000000000533, 10.00000000000000000, -6.600000000000000533 ) ) ;
#288 = VERTEX_POINT ( 'NONE', #271 ) ;
#289 = DIRECTION ( 'NONE',  ( 0.000000000000000000, 0.000000000000000000, 1.000000000000000000 ) ) ;
#290 = DIRECTION ( 'NONE',  ( -0.000000000000000000, -1.000000000000000000, -0.000000000000000000 ) ) ;
#291 = ORIENTED_EDGE ( 'NONE', *, *, #58, .T. ) ;
#292 = ADVANCED_FACE ( 'NONE', ( #309 ), #510, .F. ) ;
#293 = CARTESIAN_POINT ( 'NONE',  ( 4.308131845707604768, 80.00000000000000000, 5.000000000000000000 ) ) ;
#294 = MANIFOLD_SOLID_BREP ( 'Fase2', #117 ) ;
#295 = CYLINDRICAL_SURFACE ( 'NONE', #368, 6.600000000000000533 ) ;
#296 =( NAMED_UNIT ( * ) PLANE_ANGLE_UNIT ( ) SI_UNIT ( $, .RADIAN. ) );
#297 = DIRECTION ( 'NONE',  ( -0.000000000000000000, -1.000000000000000000, -0.000000000000000000 ) ) ;
#298 = DIRECTION ( 'NONE',  ( 0.000000000000000000, 0.000000000000000000, -1.000000000000000000 ) ) ;
#299 = VECTOR ( 'NONE', #514, 1000.000000000000000 ) ;
#300 = SURFACE_STYLE_FILL_AREA ( #249 ) ;
#301 = LINE ( 'NONE', #293, #419 ) ;
#302 = ORIENTED_EDGE ( 'NONE', *, *, #238, .T. ) ;
#303 = DIRECTION ( 'NONE',  ( 0.000000000000000000, -1.000000000000000000, 0.000000000000000000 ) ) ;
#304 = APPLICATION_CONTEXT ( 'automotive_design' ) ;
#305 = VERTEX_POINT ( 'NONE', #122 ) ;
#306 = MECHANICAL_DESIGN_GEOMETRIC_PRESENTATION_REPRESENTATION (  '', ( #424 ), #225 ) ;
#307 = AXIS2_PLACEMENT_3D ( 'NONE', #579, #28, #30 ) ;
#308 = ORIENTED_EDGE ( 'NONE', *, *, #526, .F. ) ;
#309 = FACE_OUTER_BOUND ( 'NONE', #232, .T. ) ;
#310 = ORIENTED_EDGE ( 'NONE', *, *, #21, .F. ) ;
#311 = PLANE ( 'NONE',  #260 ) ;
#312 = CARTESIAN_POINT ( 'NONE',  ( 0.000000000000000000, 9.999999999999994671, 0.000000000000000000 ) ) ;
#313 = AXIS2_PLACEMENT_3D ( 'NONE', #104, #446, #153 ) ;
#314 = VERTEX_POINT ( 'NONE', #267 ) ;
#315 = VECTOR ( 'NONE', #86, 1000.000000000000000 ) ;
#316 = UNCERTAINTY_MEASURE_WITH_UNIT (LENGTH_MEASURE( 1.000000000000000082E-05 ), #591, 'distance_accuracy_value', 'NONE');
#317 = DIRECTION ( 'NONE',  ( 1.000000000000000000, 0.000000000000000000, -0.000000000000000000 ) ) ;
#318 = EDGE_LOOP ( 'NONE', ( #118, #308, #237 ) ) ;
#319 = EDGE_CURVE ( 'NONE', #20, #627, #324, .T. ) ;
#320 = LINE ( 'NONE', #239, #640 ) ;
#321 = CARTESIAN_POINT ( 'NONE',  ( 0.000000000000000000, -5.000000000000000000, 0.000000000000000000 ) ) ;
#322 = CARTESIAN_POINT ( 'NONE',  ( 0.000000000000000000, 24.99999999999999645, -2.499999999999992895 ) ) ;
#323 = DIRECTION ( 'NONE',  ( 0.000000000000000000, -1.051347561198064810E-15, 1.000000000000000000 ) ) ;
#324 = LINE ( 'NONE', #132, #165 ) ;
#325 = AXIS2_PLACEMENT_3D ( 'NONE', #375, #348, #39 ) ;
#326 = CARTESIAN_POINT ( 'NONE',  ( -4.308131845707604768, 9.999999999999985789, -5.000000000000000000 ) ) ;
#327 = CARTESIAN_POINT ( 'NONE',  ( 0.000000000000000000, -5.000000000000000000, 0.000000000000000000 ) ) ;
#328 = CIRCLE ( 'NONE', #216, 5.101963570546872440 ) ;
#329 = EDGE_LOOP ( 'NONE', ( #335, #435, #40, #63 ) ) ;
#330 = EDGE_CURVE ( 'NONE', #15, #20, #528, .T. ) ;
#331 = CARTESIAN_POINT ( 'NONE',  ( -4.308131845707604768, 80.00000000000000000, -5.000000000000000000 ) ) ;
#332 = LINE ( 'NONE', #71, #507 ) ;
#333 = ORIENTED_EDGE ( 'NONE', *, *, #202, .F. ) ;
#334 = CARTESIAN_POINT ( 'NONE',  ( 0.000000000000000000, 0.000000000000000000, 0.000000000000000000 ) ) ;
#335 = ORIENTED_EDGE ( 'NONE', *, *, #226, .F. ) ;
#336 = AXIS2_PLACEMENT_3D ( 'NONE', #469, #273, #215 ) ;
#337 = DIRECTION ( 'NONE',  ( 0.000000000000000000, -1.000000000000000000, 0.000000000000000000 ) ) ;
#338 = CARTESIAN_POINT ( 'NONE',  ( 0.000000000000000000, -5.000000000000000000, -2.499999999999996447 ) ) ;
#339 = EDGE_CURVE ( 'NONE', #305, #106, #125, .T. ) ;
#340 = AXIS2_PLACEMENT_3D ( 'NONE', #430, #630, #422 ) ;
#341 = ORIENTED_EDGE ( 'NONE', *, *, #282, .T. ) ;
#342 = CIRCLE ( 'NONE', #509, 6.600000000000000533 ) ;
#343 = PLANE ( 'NONE',  #360 ) ;
#344 = COLOUR_RGB ( '',0.7921568627450980005, 0.8196078431372548767, 0.9333333333333333481 ) ;
#345 = CARTESIAN_POINT ( 'NONE',  ( 0.000000000000000000, -4.499999999999995559, 4.500000000000000000 ) ) ;
#346 = CARTESIAN_POINT ( 'NONE',  ( 0.000000000000000000, 80.00000000000000000, 0.000000000000000000 ) ) ;
#347 = CARTESIAN_POINT ( 'NONE',  ( 0.000000000000000000, 80.00000000000000000, 0.000000000000000000 ) ) ;
#348 = DIRECTION ( 'NONE',  ( 0.000000000000000000, -1.000000000000000000, 0.000000000000000000 ) ) ;
#349 = CONICAL_SURFACE ( 'NONE', #325, 5.101963570546872440, 0.9599310885968761475 ) ;
#350 = AXIS2_PLACEMENT_3D ( 'NONE', #158, #208, #492 ) ;
#351 = DIRECTION ( 'NONE',  ( 0.000000000000000000, 0.000000000000000000, -1.000000000000000000 ) ) ;
#352 = ADVANCED_FACE ( 'NONE', ( #475, #235 ), #182, .T. ) ;
#353 =( LENGTH_UNIT ( ) NAMED_UNIT ( * ) SI_UNIT ( .MILLI., .METRE. ) );
#354 = ORIENTED_EDGE ( 'NONE', *, *, #238, .F. ) ;
#355 = FACE_OUTER_BOUND ( 'NONE', #269, .T. ) ;
#356 = EDGE_LOOP ( 'NONE', ( #134, #607, #285, #623, #212, #367, #566, #341 ) ) ;
#357 = DIRECTION ( 'NONE',  ( 0.000000000000000000, 1.000000000000000000, 0.000000000000000000 ) ) ;
#358 = AXIS2_PLACEMENT_3D ( 'NONE', #287, #631, #93 ) ;
#359 = EDGE_LOOP ( 'NONE', ( #57, #423, #612, #382 ) ) ;
#360 = AXIS2_PLACEMENT_3D ( 'NONE', #1, #148, #88 ) ;
#361 = EDGE_LOOP ( 'NONE', ( #413, #532, #302, #211 ) ) ;
#362 = VERTEX_POINT ( 'NONE', #233 ) ;
#363 = ORIENTED_EDGE ( 'NONE', *, *, #67, .T. ) ;
#364 = CARTESIAN_POINT ( 'NONE',  ( 0.000000000000000000, 9.999999999999980460, 0.000000000000000000 ) ) ;
#365 = ORIENTED_EDGE ( 'NONE', *, *, #282, .F. ) ;
#366 = CARTESIAN_POINT ( 'NONE',  ( 4.898587196589408884E-16, -5.000000000000000000, -3.999999999999996447 ) ) ;
#367 = ORIENTED_EDGE ( 'NONE', *, *, #10, .T. ) ;
#368 = AXIS2_PLACEMENT_3D ( 'NONE', #346, #48, #298 ) ;
#369 = ADVANCED_FACE ( 'NONE', ( #414 ), #468, .T. ) ;
#370 = CIRCLE ( 'NONE', #143, 5.101963570546872440 ) ;
#371 =( NAMED_UNIT ( * ) SI_UNIT ( $, .STERADIAN. ) SOLID_ANGLE_UNIT ( ) );
#372 = EDGE_LOOP ( 'NONE', ( #32, #354 ) ) ;
#373 = CARTESIAN_POINT ( 'NONE',  ( 0.000000000000000000, 80.00000000000000000, 0.000000000000000000 ) ) ;
#374 = DIRECTION ( 'NONE',  ( -0.000000000000000000, -1.000000000000000000, -0.000000000000000000 ) ) ;
#375 = CARTESIAN_POINT ( 'NONE',  ( 0.000000000000000000, 80.00000000000000000, 0.000000000000000000 ) ) ;
#376 = DIRECTION ( 'NONE',  ( 2.126576849575726925E-17, -0.9848077530122087975, 0.1736481776669267230 ) ) ;
#377 = DIRECTION ( 'NONE',  ( 0.000000000000000000, 0.000000000000000000, -1.000000000000000000 ) ) ;
#378 = MECHANICAL_DESIGN_GEOMETRIC_PRESENTATION_REPRESENTATION (  '', ( #408 ), #450 ) ;
#379 = CONICAL_SURFACE ( 'NONE', #350, 3.999999999999996447, 0.7853981633974466137 ) ;
#380 = DIRECTION ( 'NONE',  ( 0.000000000000000000, 0.000000000000000000, -1.000000000000000000 ) ) ;
#381 = AXIS2_PLACEMENT_3D ( 'NONE', #563, #128, #323 ) ;
#382 = ORIENTED_EDGE ( 'NONE', *, *, #443, .F. ) ;
#383 = FACE_OUTER_BOUND ( 'NONE', #5, .T. ) ;
#384 = ORIENTED_EDGE ( 'NONE', *, *, #618, .T. ) ;
#385 = CARTESIAN_POINT ( 'NONE',  ( 4.308131845707605656, 0.000000000000000000, 5.000000000000000000 ) ) ;
#386 = CARTESIAN_POINT ( 'NONE',  ( -6.600000000000000533, 9.999999999999998224, 5.000000000000000000 ) ) ;
#387 = ORIENTED_EDGE ( 'NONE', *, *, #583, .T. ) ;
#388 = PRESENTATION_STYLE_ASSIGNMENT (( #629 ) ) ;
#389 = DIRECTION ( 'NONE',  ( -0.000000000000000000, -1.000000000000000000, -0.000000000000000000 ) ) ;
#390 = AXIS2_PLACEMENT_3D ( 'NONE', #129, #619, #377 ) ;
#391 = AXIS2_PLACEMENT_3D ( 'NONE', #542, #297, #240 ) ;
#392 = DIRECTION ( 'NONE',  ( 0.000000000000000000, 0.000000000000000000, 1.000000000000000000 ) ) ;
#393 = MECHANICAL_DESIGN_GEOMETRIC_PRESENTATION_REPRESENTATION (  '', ( #144 ), #550 ) ;
#394 = FILL_AREA_STYLE_COLOUR ( '', #17 ) ;
#395 =( LENGTH_UNIT ( ) NAMED_UNIT ( * ) SI_UNIT ( .MILLI., .METRE. ) );
#396 = DIRECTION ( 'NONE',  ( 0.000000000000000000, -0.9848077530122087975, -0.1736481776669267230 ) ) ;
#397 =( NAMED_UNIT ( * ) SI_UNIT ( $, .STERADIAN. ) SOLID_ANGLE_UNIT ( ) );
#398 = EDGE_CURVE ( 'NONE', #558, #288, #228, .T. ) ;
#399 = DIRECTION ( 'NONE',  ( 0.000000000000000000, 0.000000000000000000, 1.000000000000000000 ) ) ;
#400 = VERTEX_POINT ( 'NONE', #501 ) ;
#401 = CARTESIAN_POINT ( 'NONE',  ( 3.061616997868374760E-16, 24.99999999999999645, 2.499999999999992895 ) ) ;
#402 = VERTEX_POINT ( 'NONE', #244 ) ;
#403 = EDGE_CURVE ( 'NONE', #305, #219, #444, .T. ) ;
#404 = CARTESIAN_POINT ( 'NONE',  ( 0.000000000000000000, 9.999999999999994671, 0.000000000000000000 ) ) ;
#405 = ORIENTED_EDGE ( 'NONE', *, *, #583, .F. ) ;
#406 = CARTESIAN_POINT ( 'NONE',  ( 0.000000000000000000, 80.00000000000000000, 0.000000000000000000 ) ) ;
#407 = CONICAL_SURFACE ( 'NONE', #458, 5.718365096457686647, 0.1745329251994292563 ) ;
#408 = STYLED_ITEM ( 'NONE', ( #43 ), #168 ) ;
#409 = ORIENTED_EDGE ( 'NONE', *, *, #398, .F. ) ;
#410 = AXIS2_PLACEMENT_3D ( 'NONE', #203, #337, #399 ) ;
#411 = SURFACE_STYLE_USAGE ( .BOTH. , #523 ) ;
#412 = EDGE_LOOP ( 'NONE', ( #333, #405, #517, #19 ) ) ;
#413 = ORIENTED_EDGE ( 'NONE', *, *, #11, .T. ) ;
#414 = FACE_OUTER_BOUND ( 'NONE', #482, .T. ) ;
#415 = CARTESIAN_POINT ( 'NONE',  ( 0.000000000000000000, 0.000000000000000000, 0.000000000000000000 ) ) ;
#416 = COLOUR_RGB ( '',0.8980392156862745390, 0.9176470588235293713, 0.9294117647058823817 ) ;
#417 = EDGE_CURVE ( 'NONE', #314, #456, #301, .T. ) ;
#418 = CIRCLE ( 'NONE', #473, 6.600000000000000533 ) ;
#419 = VECTOR ( 'NONE', #633, 1000.000000000000000 ) ;
#420 = DIRECTION ( 'NONE',  ( -0.000000000000000000, -1.000000000000000000, -0.000000000000000000 ) ) ;
#421 = LINE ( 'NONE', #577, #537 ) ;
#422 = DIRECTION ( 'NONE',  ( 0.000000000000000000, -0.000000000000000000, 1.000000000000000000 ) ) ;
#423 = ORIENTED_EDGE ( 'NONE', *, *, #639, .T. ) ;
#424 = STYLED_ITEM ( 'NONE', ( #636 ), #545 ) ;
#425 = AXIS2_PLACEMENT_3D ( 'NONE', #227, #75, #539 ) ;
#426 = CARTESIAN_POINT ( 'NONE',  ( 0.000000000000000000, -4.499999999999995559, 0.000000000000000000 ) ) ;
#427 = DIRECTION ( 'NONE',  ( 0.000000000000000000, 0.000000000000000000, -1.000000000000000000 ) ) ;
#428 = AXIS2_PLACEMENT_3D ( 'NONE', #457, #59, #61 ) ;
#429 = ORIENTED_EDGE ( 'NONE', *, *, #319, .F. ) ;
#430 = CARTESIAN_POINT ( 'NONE',  ( -6.600000000000000533, 9.999999999999998224, 6.600000000000000533 ) ) ;
#431 = ORIENTED_EDGE ( 'NONE', *, *, #443, .T. ) ;
#432 = CARTESIAN_POINT ( 'NONE',  ( 0.000000000000000000, 0.000000000000000000, 5.000000000000000000 ) ) ;
#433 = DIRECTION ( 'NONE',  ( 0.000000000000000000, 1.000000000000000000, 0.000000000000000000 ) ) ;
#434 = ADVANCED_FACE ( 'NONE', ( #99 ), #121, .F. ) ;
#435 = ORIENTED_EDGE ( 'NONE', *, *, #202, .T. ) ;
#436 = CARTESIAN_POINT ( 'NONE',  ( 0.000000000000000000, -5.000000000000000000, 3.999999999999996447 ) ) ;
#437 = ADVANCED_FACE ( 'NONE', ( #546 ), #536, .F. ) ;
#438 = FACE_OUTER_BOUND ( 'NONE', #412, .T. ) ;
#439 = AXIS2_PLACEMENT_3D ( 'NONE', #447, #9, #471 ) ;
#440 =( LENGTH_UNIT ( ) NAMED_UNIT ( * ) SI_UNIT ( .MILLI., .METRE. ) );
#441 = DIRECTION ( 'NONE',  ( 0.000000000000000000, 0.000000000000000000, -1.000000000000000000 ) ) ;
#442 = APPLICATION_PROTOCOL_DEFINITION ( 'draft international standard', 'automotive_design', 1998, #304 ) ;
#443 = EDGE_CURVE ( 'NONE', #530, #616, #186, .T. ) ;
#444 = LINE ( 'NONE', #91, #172 ) ;
#445 = DIRECTION ( 'NONE',  ( 0.000000000000000000, 1.000000000000000000, 0.000000000000000000 ) ) ;
#446 = DIRECTION ( 'NONE',  ( 0.000000000000000000, 0.000000000000000000, 1.000000000000000000 ) ) ;
#447 = CARTESIAN_POINT ( 'NONE',  ( 0.000000000000000000, 80.00000000000000000, 0.000000000000000000 ) ) ;
#448 = ORIENTED_EDGE ( 'NONE', *, *, #34, .F. ) ;
#449 = DIRECTION ( 'NONE',  ( -0.000000000000000000, 1.000000000000000000, -0.000000000000000000 ) ) ;
#450 =( GEOMETRIC_REPRESENTATION_CONTEXT ( 3 ) GLOBAL_UNCERTAINTY_ASSIGNED_CONTEXT ( ( #24 ) ) GLOBAL_UNIT_ASSIGNED_CONTEXT ( ( #353, #197, #505 ) ) REPRESENTATION_CONTEXT ( 'NONE', 'WORKASPACE' ) );
#451 = CIRCLE ( 'NONE', #538, 6.600000000000000533 ) ;
#452 = EDGE_CURVE ( 'NONE', #616, #558, #110, .T. ) ;
#453 = DIRECTION ( 'NONE',  ( 0.000000000000000000, 1.000000000000000000, 0.000000000000000000 ) ) ;
#454 = ORIENTED_EDGE ( 'NONE', *, *, #417, .T. ) ;
#455 = CARTESIAN_POINT ( 'NONE',  ( -4.308131845707604768, 9.999999999999998224, 5.000000000000000000 ) ) ;
#456 = VERTEX_POINT ( 'NONE', #385 ) ;
#457 = CARTESIAN_POINT ( 'NONE',  ( 0.000000000000000000, 24.99999999999999645, 0.000000000000000000 ) ) ;
#458 = AXIS2_PLACEMENT_3D ( 'NONE', #373, #276, #427 ) ;
#459 = ORIENTED_EDGE ( 'NONE', *, *, #50, .T. ) ;
#460 = CIRCLE ( 'NONE', #381, 6.600000000000000533 ) ;
#461 = DIRECTION ( 'NONE',  ( 0.000000000000000000, 0.000000000000000000, 1.000000000000000000 ) ) ;
#462 = ORIENTED_EDGE ( 'NONE', *, *, #452, .T. ) ;
#463 = EDGE_CURVE ( 'NONE', #400, #581, #582, .T. ) ;
#464 = ORIENTED_EDGE ( 'NONE', *, *, #573, .F. ) ;
#465 =( NAMED_UNIT ( * ) PLANE_ANGLE_UNIT ( ) SI_UNIT ( $, .RADIAN. ) );
#466 = VERTEX_POINT ( 'NONE', #42 ) ;
#467 = DIRECTION ( 'NONE',  ( 8.659560562354919300E-17, 0.7071067811865487940, -0.7071067811865463515 ) ) ;
#468 = PLANE ( 'NONE',  #593 ) ;
#469 = CARTESIAN_POINT ( 'NONE',  ( 0.000000000000000000, 24.99999999999999645, 0.000000000000000000 ) ) ;
#470 = PRODUCT_DEFINITION_FORMATION_WITH_SPECIFIED_SOURCE ( 'ANY', '', #178, .NOT_KNOWN. ) ;
#471 = DIRECTION ( 'NONE',  ( 0.000000000000000000, 0.000000000000000000, -1.000000000000000000 ) ) ;
#472 = ADVANCED_FACE ( 'NONE', ( #155 ), #500, .T. ) ;
#473 = AXIS2_PLACEMENT_3D ( 'NONE', #334, #476, #533 ) ;
#474 = AXIS2_PLACEMENT_3D ( 'NONE', #312, #453, #512 ) ;
#475 = FACE_OUTER_BOUND ( 'NONE', #511, .T. ) ;
#476 = DIRECTION ( 'NONE',  ( 0.000000000000000000, 1.000000000000000000, 0.000000000000000000 ) ) ;
#477 = CARTESIAN_POINT ( 'NONE',  ( -4.308131845707604768, 0.000000000000000000, -5.000000000000000000 ) ) ;
#478 = ORIENTED_EDGE ( 'NONE', *, *, #226, .T. ) ;
#479 = CARTESIAN_POINT ( 'NONE',  ( 0.000000000000000000, 80.00000000000000000, -5.101963570546872440 ) ) ;
#480 = CARTESIAN_POINT ( 'NONE',  ( 0.000000000000000000, 24.99999999999999645, -2.499999999999992895 ) ) ;
#481 = CYLINDRICAL_SURFACE ( 'NONE', #556, 4.500000000000000000 ) ;
#482 = EDGE_LOOP ( 'NONE', ( #189, #615 ) ) ;
#483 = AXIS2_PLACEMENT_3D ( 'NONE', #529, #80, #126 ) ;
#484 = CIRCLE ( 'NONE', #567, 2.499999999999992895 ) ;
#485 = DIRECTION ( 'NONE',  ( 0.000000000000000000, 1.000000000000000000, 0.000000000000000000 ) ) ;
#486 = DIRECTION ( 'NONE',  ( 0.000000000000000000, -1.000000000000000000, 0.000000000000000000 ) ) ;
#487 = COLOUR_RGB ( '',0.8980392156862745390, 0.9176470588235293713, 0.9294117647058823817 ) ;
#488 = MECHANICAL_DESIGN_GEOMETRIC_PRESENTATION_REPRESENTATION (  '', ( #557 ), #261 ) ;
#489 = ORIENTED_EDGE ( 'NONE', *, *, #268, .F. ) ;
#490 = EDGE_CURVE ( 'NONE', #402, #530, #328, .T. ) ;
#491 = SURFACE_SIDE_STYLE ('',( #36 ) ) ;
#492 = DIRECTION ( 'NONE',  ( 0.000000000000000000, 0.000000000000000000, 1.000000000000000000 ) ) ;
#493 = EDGE_LOOP ( 'NONE', ( #120, #69, #431, #209 ) ) ;
#494 = CARTESIAN_POINT ( 'NONE',  ( 0.000000000000000000, 24.99999999999999645, 0.000000000000000000 ) ) ;
#495 = CARTESIAN_POINT ( 'NONE',  ( 3.061616997868382648E-16, -5.000000000000000000, 2.500000000000000000 ) ) ;
#496 = CARTESIAN_POINT ( 'NONE',  ( 0.000000000000000000, -5.000000000000000000, 0.000000000000000000 ) ) ;
#497 =( NAMED_UNIT ( * ) PLANE_ANGLE_UNIT ( ) SI_UNIT ( $, .RADIAN. ) );
#498 = DIRECTION ( 'NONE',  ( 0.000000000000000000, 0.000000000000000000, -1.000000000000000000 ) ) ;
#499 = SURFACE_STYLE_USAGE ( .BOTH. , #193 ) ;
#500 = CONICAL_SURFACE ( 'NONE', #131, 3.999999999999996447, 0.7853981633974466137 ) ;
#501 = CARTESIAN_POINT ( 'NONE',  ( 5.510910596163088569E-16, -4.499999999999995559, -4.500000000000000000 ) ) ;
#502 = ADVANCED_FACE ( 'NONE', ( #190 ), #343, .F. ) ;
#503 = CYLINDRICAL_SURFACE ( 'NONE', #521, 4.500000000000000000 ) ;
#504 = APPLICATION_PROTOCOL_DEFINITION ( 'draft international standard', 'automotive_design', 1998, #605 ) ;
#505 =( NAMED_UNIT ( * ) SI_UNIT ( $, .STERADIAN. ) SOLID_ANGLE_UNIT ( ) );
#506 = DIRECTION ( 'NONE',  ( 0.000000000000000000, 1.000000000000000000, 1.084202172485504040E-15 ) ) ;
#507 = VECTOR ( 'NONE', #290, 1000.000000000000000 ) ;
#508 = ADVANCED_FACE ( 'NONE', ( #151 ), #277, .T. ) ;
#509 = AXIS2_PLACEMENT_3D ( 'NONE', #404, #357, #461 ) ;
#510 = CONICAL_SURFACE ( 'NONE', #428, 2.499999999999992895, 1.029744258676650093 ) ;
#511 = EDGE_LOOP ( 'NONE', ( #384, #166 ) ) ;
#512 = DIRECTION ( 'NONE',  ( 0.000000000000000000, 0.000000000000000000, 1.000000000000000000 ) ) ;
#513 = AXIS2_PLACEMENT_3D ( 'NONE', #494, #47, #95 ) ;
#514 = DIRECTION ( 'NONE',  ( 0.000000000000000000, 0.7071067811865487940, 0.7071067811865463515 ) ) ;
#515 = ORIENTED_EDGE ( 'NONE', *, *, #518, .T. ) ;
#516 = DIRECTION ( 'NONE',  ( 1.000000000000000000, 0.000000000000000000, -0.000000000000000000 ) ) ;
#517 = ORIENTED_EDGE ( 'NONE', *, *, #105, .T. ) ;
#518 = EDGE_CURVE ( 'NONE', #162, #185, #247, .T. ) ;
#519 = CIRCLE ( 'NONE', #234, 2.500000000000000000 ) ;
#520 = VECTOR ( 'NONE', #420, 1000.000000000000000 ) ;
#521 = AXIS2_PLACEMENT_3D ( 'NONE', #145, #449, #7 ) ;
#522 = ORIENTED_EDGE ( 'NONE', *, *, #634, .F. ) ;
#523 = SURFACE_SIDE_STYLE ('',( #220 ) ) ;
#524 = DIRECTION ( 'NONE',  ( 0.000000000000000000, -0.5150380749100580413, -0.8571673007021101132 ) ) ;
#525 = ORIENTED_EDGE ( 'NONE', *, *, #597, .F. ) ;
#526 = EDGE_CURVE ( 'NONE', #181, #15, #460, .T. ) ;
#527 = DIRECTION ( 'NONE',  ( -0.000000000000000000, 1.000000000000000000, -0.000000000000000000 ) ) ;
#528 = LINE ( 'NONE', #331, #64 ) ;
#529 = CARTESIAN_POINT ( 'NONE',  ( 0.000000000000000000, 74.99999999999995737, 0.000000000000000000 ) ) ;
#530 = VERTEX_POINT ( 'NONE', #479 ) ;
#531 = DIRECTION ( 'NONE',  ( 0.000000000000000000, 0.000000000000000000, 1.000000000000000000 ) ) ;
#532 = ORIENTED_EDGE ( 'NONE', *, *, #463, .T. ) ;
#533 = DIRECTION ( 'NONE',  ( 0.000000000000000000, 0.000000000000000000, 1.000000000000000000 ) ) ;
#534 = PLANE ( 'NONE',  #358 ) ;
#535 = ORIENTED_EDGE ( 'NONE', *, *, #613, .F. ) ;
#536 = CYLINDRICAL_SURFACE ( 'NONE', #391, 2.499999999999996447 ) ;
#537 = VECTOR ( 'NONE', #275, 1000.000000000000000 ) ;
#538 = AXIS2_PLACEMENT_3D ( 'NONE', #364, #506, #559 ) ;
#539 = DIRECTION ( 'NONE',  ( 0.000000000000000000, 0.000000000000000000, 1.000000000000000000 ) ) ;
#540 = PRODUCT_RELATED_PRODUCT_CATEGORY ( 'part', '', ( #178 ) ) ;
#541 = ORIENTED_EDGE ( 'NONE', *, *, #34, .T. ) ;
#542 = CARTESIAN_POINT ( 'NONE',  ( 0.000000000000000000, -5.000000000000000000, 0.000000000000000000 ) ) ;
#543 = LINE ( 'NONE', #89, #207 ) ;
#544 = CARTESIAN_POINT ( 'NONE',  ( 4.308131845707604768, 9.999999999999985789, -5.000000000000000000 ) ) ;
#545 = ADVANCED_BREP_SHAPE_REPRESENTATION ( '202500220_03_Greiferfinger_V1.0', ( #294, #313 ), #585 ) ;
#546 = FACE_OUTER_BOUND ( 'NONE', #329, .T. ) ;
#547 = VECTOR ( 'NONE', #584, 1000.000000000000000 ) ;
#548 = FACE_OUTER_BOUND ( 'NONE', #35, .T. ) ;
#549 = DIRECTION ( 'NONE',  ( 0.000000000000000000, -0.5735764363510502672, -0.8191520442889888010 ) ) ;
#550 =( GEOMETRIC_REPRESENTATION_CONTEXT ( 3 ) GLOBAL_UNCERTAINTY_ASSIGNED_CONTEXT ( ( #217 ) ) GLOBAL_UNIT_ASSIGNED_CONTEXT ( ( #440, #497, #44 ) ) REPRESENTATION_CONTEXT ( 'NONE', 'WORKASPACE' ) );
#551 = CYLINDRICAL_SURFACE ( 'NONE', #576, 2.499999999999996447 ) ;
#552 = FILL_AREA_STYLE_COLOUR ( '', #416 ) ;
#553 = DIRECTION ( 'NONE',  ( 0.000000000000000000, -1.000000000000000000, 0.000000000000000000 ) ) ;
#554 = EDGE_CURVE ( 'NONE', #456, #256, #628, .T. ) ;
#555 = ORIENTED_EDGE ( 'NONE', *, *, #569, .T. ) ;
#556 = AXIS2_PLACEMENT_3D ( 'NONE', #622, #527, #229 ) ;
#557 = STYLED_ITEM ( 'NONE', ( #610 ), #294 ) ;
#558 = VERTEX_POINT ( 'NONE', #72 ) ;
#559 = DIRECTION ( 'NONE',  ( 0.000000000000000000, -1.051347561198064810E-15, 1.000000000000000000 ) ) ;
#560 = DIRECTION ( 'NONE',  ( 0.000000000000000000, 1.000000000000000000, 0.000000000000000000 ) ) ;
#561 = ORIENTED_EDGE ( 'NONE', *, *, #403, .T. ) ;
#562 = DIRECTION ( 'NONE',  ( 0.000000000000000000, 0.000000000000000000, 1.000000000000000000 ) ) ;
#563 = CARTESIAN_POINT ( 'NONE',  ( 0.000000000000000000, 9.999999999999980460, 0.000000000000000000 ) ) ;
#564 = ORIENTED_EDGE ( 'NONE', *, *, #319, .T. ) ;
#565 = ADVANCED_FACE ( 'NONE', ( #41 ), #73, .T. ) ;
#566 = ORIENTED_EDGE ( 'NONE', *, *, #573, .T. ) ;
#567 = AXIS2_PLACEMENT_3D ( 'NONE', #161, #112, #609 ) ;
#568 = ORIENTED_EDGE ( 'NONE', *, *, #139, .T. ) ;
#569 = EDGE_CURVE ( 'NONE', #15, #637, #320, .T. ) ;
#570 = PRESENTATION_LAYER_ASSIGNMENT (  '', '', ( #144 ) ) ;
#571 = DIRECTION ( 'NONE',  ( 0.000000000000000000, 1.000000000000000000, 0.000000000000000000 ) ) ;
#572 = CARTESIAN_POINT ( 'NONE',  ( 0.000000000000000000, -4.499999999999995559, 0.000000000000000000 ) ) ;
#573 = EDGE_CURVE ( 'NONE', #256, #246, #606, .T. ) ;
#574 = LINE ( 'NONE', #386, #547 ) ;
#575 = PRESENTATION_LAYER_ASSIGNMENT (  '', '', ( #408 ) ) ;
#576 = AXIS2_PLACEMENT_3D ( 'NONE', #590, #51, #498 ) ;
#577 = CARTESIAN_POINT ( 'NONE',  ( 0.000000000000000000, -5.000000000000000000, 4.500000000000000000 ) ) ;
#578 = ORIENTED_EDGE ( 'NONE', *, *, #10, .F. ) ;
#579 = CARTESIAN_POINT ( 'NONE',  ( 0.000000000000000000, -5.000000000000000000, 0.000000000000000000 ) ) ;
#580 = FACE_OUTER_BOUND ( 'NONE', #318, .T. ) ;
#581 = VERTEX_POINT ( 'NONE', #68 ) ;
#582 = LINE ( 'NONE', #594, #46 ) ;
#583 = EDGE_CURVE ( 'NONE', #106, #219, #138, .T. ) ;
#584 = DIRECTION ( 'NONE',  ( 1.000000000000000000, -0.000000000000000000, -0.000000000000000000 ) ) ;
#585 =( GEOMETRIC_REPRESENTATION_CONTEXT ( 3 ) GLOBAL_UNCERTAINTY_ASSIGNED_CONTEXT ( ( #31 ) ) GLOBAL_UNIT_ASSIGNED_CONTEXT ( ( #395, #8, #397 ) ) REPRESENTATION_CONTEXT ( 'NONE', 'WORKASPACE' ) );
#586 = ORIENTED_EDGE ( 'NONE', *, *, #554, .T. ) ;
#587 = DIRECTION ( 'NONE',  ( -1.000000000000000000, 0.000000000000000000, 0.000000000000000000 ) ) ;
#588 = FILL_AREA_STYLE_COLOUR ( '', #344 ) ;
#589 = CIRCLE ( 'NONE', #45, 4.500000000000000000 ) ;
#590 = CARTESIAN_POINT ( 'NONE',  ( 0.000000000000000000, -5.000000000000000000, 0.000000000000000000 ) ) ;
#591 =( LENGTH_UNIT ( ) NAMED_UNIT ( * ) SI_UNIT ( .MILLI., .METRE. ) );
#592 = VECTOR ( 'NONE', #549, 1000.000000000000227 ) ;
#593 = AXIS2_PLACEMENT_3D ( 'NONE', #22, #571, #70 ) ;
#594 = CARTESIAN_POINT ( 'NONE',  ( 5.510910596163088569E-16, -5.000000000000000000, -4.500000000000000000 ) ) ;
#595 = SURFACE_SIDE_STYLE ('',( #300 ) ) ;
#596 = SURFACE_STYLE_FILL_AREA ( #49 ) ;
#597 = EDGE_CURVE ( 'NONE', #136, #400, #169, .T. ) ;
#598 = CARTESIAN_POINT ( 'NONE',  ( 0.000000000000000000, -5.000000000000000000, 0.000000000000000000 ) ) ;
#599 = FACE_BOUND ( 'NONE', #372, .T. ) ;
#600 = CARTESIAN_POINT ( 'NONE',  ( 4.308131845707604768, 0.000000000000000000, -5.000000000000000000 ) ) ;
#601 = DIRECTION ( 'NONE',  ( 0.000000000000000000, -1.000000000000000000, 0.000000000000000000 ) ) ;
#602 = FACE_OUTER_BOUND ( 'NONE', #243, .T. ) ;
#603 = VECTOR ( 'NONE', #396, 999.9999999999998863 ) ;
#604 = DIRECTION ( 'NONE',  ( 0.000000000000000000, 0.000000000000000000, 1.000000000000000000 ) ) ;
#605 = APPLICATION_CONTEXT ( 'automotive_design' ) ;
#606 = LINE ( 'NONE', #14, #164 ) ;
#607 = ORIENTED_EDGE ( 'NONE', *, *, #21, .T. ) ;
#608 = ADVANCED_FACE ( 'NONE', ( #224 ), #407, .T. ) ;
#609 = DIRECTION ( 'NONE',  ( 0.000000000000000000, 0.000000000000000000, -1.000000000000000000 ) ) ;
#610 = PRESENTATION_STYLE_ASSIGNMENT (( #411 ) ) ;
#611 = ORIENTED_EDGE ( 'NONE', *, *, #398, .T. ) ;
#612 = ORIENTED_EDGE ( 'NONE', *, *, #452, .F. ) ;
#613 = EDGE_CURVE ( 'NONE', #362, #159, #519, .T. ) ;
#614 =( LENGTH_UNIT ( ) NAMED_UNIT ( * ) SI_UNIT ( .MILLI., .METRE. ) );
#615 = ORIENTED_EDGE ( 'NONE', *, *, #490, .T. ) ;
#616 = VERTEX_POINT ( 'NONE', #626 ) ;
#617 = UNCERTAINTY_MEASURE_WITH_UNIT (LENGTH_MEASURE( 1.000000000000000082E-05 ), #614, 'distance_accuracy_value', 'NONE');
#618 = EDGE_CURVE ( 'NONE', #162, #136, #621, .T. ) ;
#619 = DIRECTION ( 'NONE',  ( -0.000000000000000000, -1.000000000000000000, -0.000000000000000000 ) ) ;
#620 = DIRECTION ( 'NONE',  ( 0.000000000000000000, 0.000000000000000000, -1.000000000000000000 ) ) ;
#621 = CIRCLE ( 'NONE', #191, 3.999999999999996447 ) ;
#622 = CARTESIAN_POINT ( 'NONE',  ( 0.000000000000000000, -5.000000000000000000, 0.000000000000000000 ) ) ;
#623 = ORIENTED_EDGE ( 'NONE', *, *, #526, .T. ) ;
#624 = ADVANCED_FACE ( 'NONE', ( #580 ), #534, .F. ) ;
#625 = DIRECTION ( 'NONE',  ( 0.000000000000000000, 1.000000000000000000, 0.000000000000000000 ) ) ;
#626 = CARTESIAN_POINT ( 'NONE',  ( 0.000000000000000000, 79.50759612349389727, -5.805189185291150800 ) ) ;
#627 = VERTEX_POINT ( 'NONE', #600 ) ;
#628 = LINE ( 'NONE', #432, #98 ) ;
#629 = SURFACE_STYLE_USAGE ( .BOTH. , #491 ) ;
#630 = DIRECTION ( 'NONE',  ( 0.000000000000000000, 1.000000000000000000, 0.000000000000000000 ) ) ;
#631 = DIRECTION ( 'NONE',  ( 0.000000000000000000, 1.000000000000000000, 1.084202172485504040E-15 ) ) ;
#632 = ORIENTED_EDGE ( 'NONE', *, *, #11, .F. ) ;
#633 = DIRECTION ( 'NONE',  ( -0.000000000000000000, -1.000000000000000000, -0.000000000000000000 ) ) ;
#634 = EDGE_CURVE ( 'NONE', #159, #362, #154, .T. ) ;
#635 = LINE ( 'NONE', #200, #603 ) ;
#636 = PRESENTATION_STYLE_ASSIGNMENT (( #499 ) ) ;
#637 = VERTEX_POINT ( 'NONE', #544 ) ;
#638 = CIRCLE ( 'NONE', #483, 6.600000000000000533 ) ;
#639 = EDGE_CURVE ( 'NONE', #402, #558, #102, .T. ) ;
#640 = VECTOR ( 'NONE', #278, 1000.000000000000000 ) ;
ENDSEC;
END-ISO-10303-21;
