ISO-10303-21;
HEADER;
FILE_DESCRIPTION (( 'STEP AP214' ),
    '1' );
FILE_NAME ('Aufnahme Drehpunkt.STEP',
    '2021-02-03T14:12:55',
    ( '' ),
    ( '' ),
    'SwSTEP 2.0',
    'SolidWorks 2018',
    '' );
FILE_SCHEMA (( 'AUTOMOTIVE_DESIGN' ));
ENDSEC;

DATA;
#1 = CARTESIAN_POINT ( 'NONE',  ( 0.000000000000000000, 18.00000000000000000, 0.000000000000000000 ) ) ;
#2 = DIRECTION ( 'NONE',  ( -0.000000000000000000, -0.000000000000000000, 1.000000000000000000 ) ) ;
#3 = EDGE_CURVE ( 'NONE', #419, #217, #24, .T. ) ;
#4 = DIRECTION ( 'NONE',  ( 1.000000000000000000, 0.000000000000000000, 0.000000000000000000 ) ) ;
#5 = EDGE_CURVE ( 'NONE', #218, #250, #604, .T. ) ;
#6 = FACE_OUTER_BOUND ( 'NONE', #224, .T. ) ;
#7 = ADVANCED_FACE ( 'NONE', ( #380 ), #252, .T. ) ;
#8 = AXIS2_PLACEMENT_3D ( 'NONE', #170, #432, #66 ) ;
#9 = CONICAL_SURFACE ( 'NONE', #256, 12.49999999999999645, 0.7853981633974500554 ) ;
#10 = SURFACE_STYLE_USAGE ( .BOTH. , #524 ) ;
#11 = LINE ( 'NONE', #626, #226 ) ;
#12 = EDGE_LOOP ( 'NONE', ( #130, #674, #624, #409, #276, #636 ) ) ;
#13 = FILL_AREA_STYLE_COLOUR ( '', #147 ) ;
#14 = EDGE_CURVE ( 'NONE', #217, #623, #458, .T. ) ;
#15 = DIRECTION ( 'NONE',  ( 0.000000000000000000, -1.000000000000000000, 0.000000000000000000 ) ) ;
#16 = SURFACE_STYLE_FILL_AREA ( #534 ) ;
#17 = DIRECTION ( 'NONE',  ( -0.000000000000000000, 0.000000000000000000, 1.000000000000000000 ) ) ;
#18 = EDGE_LOOP ( 'NONE', ( #648, #588, #248, #150 ) ) ;
#19 = ORIENTED_EDGE ( 'NONE', *, *, #430, .F. ) ;
#20 = DIRECTION ( 'NONE',  ( 0.7071067811865487940, 8.659560562354948882E-17, -0.7071067811865463515 ) ) ;
#21 = UNCERTAINTY_MEASURE_WITH_UNIT (LENGTH_MEASURE( 1.000000000000000082E-05 ), #414, 'distance_accuracy_value', 'NONE');
#22 = CIRCLE ( 'NONE', #659, 8.025000000000000355 ) ;
#23 = EDGE_CURVE ( 'NONE', #366, #685, #332, .T. ) ;
#24 = CIRCLE ( 'NONE', #384, 10.00000000000000533 ) ;
#25 = SURFACE_STYLE_USAGE ( .BOTH. , #124 ) ;
#26 = ORIENTED_EDGE ( 'NONE', *, *, #14, .T. ) ;
#27 = CARTESIAN_POINT ( 'NONE',  ( 0.000000000000000000, 18.00000000000000000, 0.000000000000000000 ) ) ;
#28 = CARTESIAN_POINT ( 'NONE',  ( 0.000000000000000000, 18.00000000000000000, -11.00000000000000000 ) ) ;
#29 = STYLED_ITEM ( 'NONE', ( #37 ), #578 ) ;
#30 = DIRECTION ( 'NONE',  ( 1.000000000000000000, 0.000000000000000000, 0.000000000000000000 ) ) ;
#31 = VECTOR ( 'NONE', #292, 1000.000000000000114 ) ;
#32 = FACE_OUTER_BOUND ( 'NONE', #48, .T. ) ;
#33 = ORIENTED_EDGE ( 'NONE', *, *, #538, .T. ) ;
#34 = DIRECTION ( 'NONE',  ( 1.000000000000000000, 0.000000000000000000, 0.000000000000000000 ) ) ;
#35 = ORIENTED_EDGE ( 'NONE', *, *, #529, .T. ) ;
#36 = STYLED_ITEM ( 'NONE', ( #684 ), #298 ) ;
#37 = PRESENTATION_STYLE_ASSIGNMENT (( #10 ) ) ;
#38 = DIRECTION ( 'NONE',  ( -0.000000000000000000, -0.000000000000000000, -1.000000000000000000 ) ) ;
#39 = VERTEX_POINT ( 'NONE', #517 ) ;
#40 = ORIENTED_EDGE ( 'NONE', *, *, #169, .F. ) ;
#41 = DIRECTION ( 'NONE',  ( 0.000000000000000000, 0.000000000000000000, 1.000000000000000000 ) ) ;
#42 = CARTESIAN_POINT ( 'NONE',  ( 15.00000000000000000, 33.00000000000000000, -35.00000000000000000 ) ) ;
#43 = PLANE ( 'NONE',  #125 ) ;
#44 = CARTESIAN_POINT ( 'NONE',  ( 9.999999999999998224, 28.00000000000000000, -35.00000000000000000 ) ) ;
#45 = EDGE_CURVE ( 'NONE', #335, #250, #158, .T. ) ;
#46 = DIRECTION ( 'NONE',  ( 1.000000000000000000, 0.000000000000000000, 0.000000000000000000 ) ) ;
#47 = LINE ( 'NONE', #644, #587 ) ;
#48 = EDGE_LOOP ( 'NONE', ( #555, #582, #138, #203 ) ) ;
#49 = VERTEX_POINT ( 'NONE', #54 ) ;
#50 = CARTESIAN_POINT ( 'NONE',  ( 6.999999999999997335, 18.00000000000000000, -12.02499999999999680 ) ) ;
#51 = ORIENTED_EDGE ( 'NONE', *, *, #421, .F. ) ;
#52 = DIRECTION ( 'NONE',  ( 0.000000000000000000, 0.000000000000000000, 1.000000000000000000 ) ) ;
#53 = DIRECTION ( 'NONE',  ( -0.000000000000000000, 0.000000000000000000, -1.000000000000000000 ) ) ;
#54 = CARTESIAN_POINT ( 'NONE',  ( 9.999999999999998224, 33.00000000000000000, -5.000000000000000000 ) ) ;
#55 = LINE ( 'NONE', #306, #272 ) ;
#56 = CARTESIAN_POINT ( 'NONE',  ( -10.00000000000000533, 18.00000000000000000, -11.00000000000000000 ) ) ;
#57 = ORIENTED_EDGE ( 'NONE', *, *, #225, .F. ) ;
#58 = ORIENTED_EDGE ( 'NONE', *, *, #329, .F. ) ;
#59 = CARTESIAN_POINT ( 'NONE',  ( 0.000000000000000000, 18.00000000000000000, -11.00000000000000000 ) ) ;
#60 = EDGE_CURVE ( 'NONE', #650, #407, #613, .T. ) ;
#61 = CIRCLE ( 'NONE', #422, 10.50000000000001599 ) ;
#62 = ORIENTED_EDGE ( 'NONE', *, *, #240, .T. ) ;
#63 = ORIENTED_EDGE ( 'NONE', *, *, #504, .T. ) ;
#64 = ORIENTED_EDGE ( 'NONE', *, *, #540, .F. ) ;
#65 =( NAMED_UNIT ( * ) PLANE_ANGLE_UNIT ( ) SI_UNIT ( $, .RADIAN. ) );
#66 = DIRECTION ( 'NONE',  ( 1.000000000000000000, 0.000000000000000000, 0.000000000000000000 ) ) ;
#67 = PRESENTATION_LAYER_ASSIGNMENT (  '', '', ( #36 ) ) ;
#68 = CIRCLE ( 'NONE', #219, 12.49999999999999645 ) ;
#69 = UNCERTAINTY_MEASURE_WITH_UNIT (LENGTH_MEASURE( 1.000000000000000082E-05 ), #126, 'distance_accuracy_value', 'NONE');
#70 = DIRECTION ( 'NONE',  ( 0.7071067811865474617, 0.000000000000000000, 0.7071067811865474617 ) ) ;
#71 = VECTOR ( 'NONE', #2, 1000.000000000000000 ) ;
#72 = EDGE_LOOP ( 'NONE', ( #63, #348 ) ) ;
#73 = CARTESIAN_POINT ( 'NONE',  ( 15.00000000000000000, 33.00000000000000000, -5.000000000000000000 ) ) ;
#74 = AXIS2_PLACEMENT_3D ( 'NONE', #153, #619, #406 ) ;
#75 = ADVANCED_BREP_SHAPE_REPRESENTATION ( 'Aufnahme Drehpunkt', ( #323, #677 ), #499 ) ;
#76 = EDGE_CURVE ( 'NONE', #545, #374, #405, .T. ) ;
#77 = VECTOR ( 'NONE', #149, 1000.000000000000000 ) ;
#78 = CARTESIAN_POINT ( 'NONE',  ( 13.00000000000000000, 18.00000000000000000, -5.000000000000000000 ) ) ;
#79 = ORIENTED_EDGE ( 'NONE', *, *, #433, .T. ) ;
#80 = ORIENTED_EDGE ( 'NONE', *, *, #316, .T. ) ;
#81 = AXIS2_PLACEMENT_3D ( 'NONE', #268, #427, #645 ) ;
#82 = CARTESIAN_POINT ( 'NONE',  ( -9.999999999999998224, 28.00000000000000000, -35.00000000000000000 ) ) ;
#83 = CIRCLE ( 'NONE', #121, 13.00000000000000000 ) ;
#84 = ORIENTED_EDGE ( 'NONE', *, *, #93, .F. ) ;
#85 = DIRECTION ( 'NONE',  ( -0.000000000000000000, -0.000000000000000000, 1.000000000000000000 ) ) ;
#86 = CARTESIAN_POINT ( 'NONE',  ( -10.00000000000000533, 18.00000000000000000, -0.5000000000000108802 ) ) ;
#87 = AXIS2_PLACEMENT_3D ( 'NONE', #154, #145, #242 ) ;
#88 = DIRECTION ( 'NONE',  ( 0.000000000000000000, 0.000000000000000000, -1.000000000000000000 ) ) ;
#89 = CONICAL_SURFACE ( 'NONE', #81, 10.00000000000000533, 0.7853981633974482790 ) ;
#90 = CONICAL_SURFACE ( 'NONE', #576, 12.49999999999999645, 0.7853981633974500554 ) ;
#91 = DIRECTION ( 'NONE',  ( -0.000000000000000000, 0.000000000000000000, 1.000000000000000000 ) ) ;
#92 = VERTEX_POINT ( 'NONE', #573 ) ;
#93 = EDGE_CURVE ( 'NONE', #545, #685, #11, .T. ) ;
#94 = EDGE_LOOP ( 'NONE', ( #137, #537, #166, #282 ) ) ;
#95 = AXIS2_PLACEMENT_3D ( 'NONE', #457, #352, #97 ) ;
#96 = DIRECTION ( 'NONE',  ( -0.000000000000000000, -0.000000000000000000, 1.000000000000000000 ) ) ;
#97 = DIRECTION ( 'NONE',  ( 1.000000000000000000, 0.000000000000000000, 0.000000000000000000 ) ) ;
#98 = CARTESIAN_POINT ( 'NONE',  ( 0.000000000000000000, 18.00000000000000000, -11.00000000000000000 ) ) ;
#99 = ADVANCED_FACE ( 'NONE', ( #32 ), #672, .F. ) ;
#100 = CARTESIAN_POINT ( 'NONE',  ( 0.000000000000000000, 18.00000000000000000, 0.000000000000000000 ) ) ;
#101 = FACE_BOUND ( 'NONE', #487, .T. ) ;
#102 = VERTEX_POINT ( 'NONE', #400 ) ;
#103 = EDGE_LOOP ( 'NONE', ( #574, #231, #257, #165 ) ) ;
#104 =( GEOMETRIC_REPRESENTATION_CONTEXT ( 3 ) GLOBAL_UNCERTAINTY_ASSIGNED_CONTEXT ( ( #69 ) ) GLOBAL_UNIT_ASSIGNED_CONTEXT ( ( #126, #330, #283 ) ) REPRESENTATION_CONTEXT ( 'NONE', 'WORKASPACE' ) );
#105 = DIRECTION ( 'NONE',  ( 0.000000000000000000, 0.000000000000000000, -1.000000000000000000 ) ) ;
#106 = CARTESIAN_POINT ( 'NONE',  ( 13.00000000000000000, 18.00000000000000000, -0.5000000000000004441 ) ) ;
#107 = AXIS2_PLACEMENT_3D ( 'NONE', #59, #476, #253 ) ;
#108 = VECTOR ( 'NONE', #615, 1000.000000000000114 ) ;
#109 = DIRECTION ( 'NONE',  ( 1.000000000000000000, 0.000000000000000000, 0.000000000000000000 ) ) ;
#110 = ADVANCED_FACE ( 'NONE', ( #449 ), #122, .F. ) ;
#111 = VERTEX_POINT ( 'NONE', #50 ) ;
#112 = ORIENTED_EDGE ( 'NONE', *, *, #675, .T. ) ;
#113 = EDGE_CURVE ( 'NONE', #650, #275, #597, .T. ) ;
#114 = CARTESIAN_POINT ( 'NONE',  ( 8.025000000000000355, 18.00000000000000000, -11.00000000000000000 ) ) ;
#115 = CARTESIAN_POINT ( 'NONE',  ( 12.49999999999999645, 18.00000000000000000, 0.000000000000000000 ) ) ;
#116 = VECTOR ( 'NONE', #260, 1000.000000000000000 ) ;
#117 = VECTOR ( 'NONE', #437, 1000.000000000000000 ) ;
#118 = ORIENTED_EDGE ( 'NONE', *, *, #675, .F. ) ;
#119 = VERTEX_POINT ( 'NONE', #536 ) ;
#120 = CARTESIAN_POINT ( 'NONE',  ( -15.00000000000000000, 0.000000000000000000, -35.00000000000000000 ) ) ;
#121 = AXIS2_PLACEMENT_3D ( 'NONE', #286, #41, #662 ) ;
#122 = CONICAL_SURFACE ( 'NONE', #87, 8.025000000000000355, 0.7853981633974508325 ) ;
#123 = ORIENTED_EDGE ( 'NONE', *, *, #421, .T. ) ;
#124 = SURFACE_SIDE_STYLE ('',( #671 ) ) ;
#125 = AXIS2_PLACEMENT_3D ( 'NONE', #398, #91, #454 ) ;
#126 =( LENGTH_UNIT ( ) NAMED_UNIT ( * ) SI_UNIT ( .MILLI., .METRE. ) );
#127 = LINE ( 'NONE', #234, #31 ) ;
#128 = LINE ( 'NONE', #377, #117 ) ;
#129 = CARTESIAN_POINT ( 'NONE',  ( 0.000000000000000000, 18.00000000000000000, -35.00000000000000000 ) ) ;
#130 = ORIENTED_EDGE ( 'NONE', *, *, #113, .F. ) ;
#131 = ORIENTED_EDGE ( 'NONE', *, *, #489, .F. ) ;
#132 =( LENGTH_UNIT ( ) NAMED_UNIT ( * ) SI_UNIT ( .MILLI., .METRE. ) );
#133 = CARTESIAN_POINT ( 'NONE',  ( 12.49999999999999645, 18.00000000000000000, 0.000000000000000000 ) ) ;
#134 = VECTOR ( 'NONE', #85, 1000.000000000000000 ) ;
#135 = EDGE_CURVE ( 'NONE', #607, #650, #237, .T. ) ;
#136 = LINE ( 'NONE', #115, #310 ) ;
#137 = ORIENTED_EDGE ( 'NONE', *, *, #14, .F. ) ;
#138 = ORIENTED_EDGE ( 'NONE', *, *, #657, .T. ) ;
#139 = FILL_AREA_STYLE_COLOUR ( '', #533 ) ;
#140 = CARTESIAN_POINT ( 'NONE',  ( 15.00000000000000000, -4.074106171571863088E-15, -35.00000000000000000 ) ) ;
#141 = CARTESIAN_POINT ( 'NONE',  ( 0.000000000000000000, 18.00000000000000000, -0.5000000000000004441 ) ) ;
#142 = ADVANCED_FACE ( 'NONE', ( #642, #216 ), #630, .T. ) ;
#143 = EDGE_CURVE ( 'NONE', #218, #407, #528, .T. ) ;
#144 = DIRECTION ( 'NONE',  ( 0.000000000000000000, 0.000000000000000000, 1.000000000000000000 ) ) ;
#145 = DIRECTION ( 'NONE',  ( -0.000000000000000000, -0.000000000000000000, 1.000000000000000000 ) ) ;
#146 = SHAPE_DEFINITION_REPRESENTATION ( #482, #75 ) ;
#147 = COLOUR_RGB ( '',0.8901960784313724950, 0.9137254901960784048, 0.9333333333333333481 ) ;
#148 = ORIENTED_EDGE ( 'NONE', *, *, #297, .T. ) ;
#149 = DIRECTION ( 'NONE',  ( -0.7071067811865487940, 0.000000000000000000, -0.7071067811865463515 ) ) ;
#150 = ORIENTED_EDGE ( 'NONE', *, *, #627, .F. ) ;
#151 = ORIENTED_EDGE ( 'NONE', *, *, #23, .T. ) ;
#152 = CARTESIAN_POINT ( 'NONE',  ( 0.000000000000000000, 0.000000000000000000, 0.000000000000000000 ) ) ;
#153 = CARTESIAN_POINT ( 'NONE',  ( 9.999999999999998224, 28.00000000000000000, -35.00000000000000000 ) ) ;
#154 = CARTESIAN_POINT ( 'NONE',  ( 0.000000000000000000, 18.00000000000000000, -11.00000000000000000 ) ) ;
#155 = FACE_OUTER_BOUND ( 'NONE', #302, .T. ) ;
#156 = COLOUR_RGB ( '',0.8901960784313724950, 0.9137254901960784048, 0.9333333333333333481 ) ;
#157 = DIRECTION ( 'NONE',  ( 1.000000000000000000, 0.000000000000000000, 0.000000000000000000 ) ) ;
#158 = LINE ( 'NONE', #140, #439 ) ;
#159 = EDGE_LOOP ( 'NONE', ( #84, #265, #80, #317 ) ) ;
#160 = AXIS2_PLACEMENT_3D ( 'NONE', #617, #673, #669 ) ;
#161 = PLANE ( 'NONE',  #401 ) ;
#162 = CARTESIAN_POINT ( 'NONE',  ( 15.00000000000000000, -4.074106171571863088E-15, -35.00000000000000000 ) ) ;
#163 = AXIS2_PLACEMENT_3D ( 'NONE', #141, #88, #664 ) ;
#164 = FACE_BOUND ( 'NONE', #520, .T. ) ;
#165 = ORIENTED_EDGE ( 'NONE', *, *, #491, .T. ) ;
#166 = ORIENTED_EDGE ( 'NONE', *, *, #475, .T. ) ;
#167 = ORIENTED_EDGE ( 'NONE', *, *, #541, .F. ) ;
#168 = DIRECTION ( 'NONE',  ( 0.000000000000000000, -0.000000000000000000, 1.000000000000000000 ) ) ;
#169 = EDGE_CURVE ( 'NONE', #511, #606, #326, .T. ) ;
#170 = CARTESIAN_POINT ( 'NONE',  ( 0.000000000000000000, 18.00000000000000000, -11.00000000000000000 ) ) ;
#171 = AXIS2_PLACEMENT_3D ( 'NONE', #625, #301, #680 ) ;
#172 = FACE_OUTER_BOUND ( 'NONE', #318, .T. ) ;
#173 = SURFACE_STYLE_FILL_AREA ( #277 ) ;
#174 = ORIENTED_EDGE ( 'NONE', *, *, #378, .F. ) ;
#175 = ORIENTED_EDGE ( 'NONE', *, *, #473, .T. ) ;
#176 = PRODUCT_DEFINITION_CONTEXT ( 'detailed design', #211, 'design' ) ;
#177 = DIRECTION ( 'NONE',  ( 0.000000000000000000, 0.000000000000000000, 1.000000000000000000 ) ) ;
#178 = AXIS2_PLACEMENT_3D ( 'NONE', #44, #208, #465 ) ;
#179 = CARTESIAN_POINT ( 'NONE',  ( 0.000000000000000000, 18.00000000000000000, -11.00000000000000000 ) ) ;
#180 = FACE_OUTER_BOUND ( 'NONE', #213, .T. ) ;
#181 = ORIENTED_EDGE ( 'NONE', *, *, #351, .F. ) ;
#182 = ORIENTED_EDGE ( 'NONE', *, *, #538, .F. ) ;
#183 = ORIENTED_EDGE ( 'NONE', *, *, #627, .T. ) ;
#184 = SURFACE_SIDE_STYLE ('',( #173 ) ) ;
#185 = AXIS2_PLACEMENT_3D ( 'NONE', #417, #639, #157 ) ;
#186 = DIRECTION ( 'NONE',  ( 0.000000000000000000, 0.000000000000000000, 1.000000000000000000 ) ) ;
#187 = DIRECTION ( 'NONE',  ( 0.000000000000000000, 0.000000000000000000, 1.000000000000000000 ) ) ;
#188 = CIRCLE ( 'NONE', #579, 6.999999999999994671 ) ;
#189 = FACE_OUTER_BOUND ( 'NONE', #589, .T. ) ;
#190 = LINE ( 'NONE', #194, #289 ) ;
#191 = CARTESIAN_POINT ( 'NONE',  ( 10.00000000000000533, 18.00000000000000000, -11.00000000000000000 ) ) ;
#192 = EDGE_LOOP ( 'NONE', ( #214, #496, #151, #461 ) ) ;
#193 = ORIENTED_EDGE ( 'NONE', *, *, #345, .T. ) ;
#194 = CARTESIAN_POINT ( 'NONE',  ( 9.999999999999998224, 33.00000000000000000, -35.00000000000000000 ) ) ;
#195 = MECHANICAL_DESIGN_GEOMETRIC_PRESENTATION_REPRESENTATION (  '', ( #36 ), #104 ) ;
#196 = DIRECTION ( 'NONE',  ( 1.000000000000000000, 0.000000000000000000, 0.000000000000000000 ) ) ;
#197 = ADVANCED_FACE ( 'NONE', ( #230 ), #90, .T. ) ;
#198 = DIRECTION ( 'NONE',  ( -0.000000000000000000, -0.000000000000000000, 1.000000000000000000 ) ) ;
#199 = FACE_OUTER_BOUND ( 'NONE', #303, .T. ) ;
#200 = EDGE_LOOP ( 'NONE', ( #546, #396 ) ) ;
#201 =( GEOMETRIC_REPRESENTATION_CONTEXT ( 3 ) GLOBAL_UNCERTAINTY_ASSIGNED_CONTEXT ( ( #21 ) ) GLOBAL_UNIT_ASSIGNED_CONTEXT ( ( #414, #243, #296 ) ) REPRESENTATION_CONTEXT ( 'NONE', 'WORKASPACE' ) );
#202 = DIRECTION ( 'NONE',  ( 1.000000000000000000, 0.000000000000000000, 0.000000000000000000 ) ) ;
#203 = ORIENTED_EDGE ( 'NONE', *, *, #640, .T. ) ;
#204 = CARTESIAN_POINT ( 'NONE',  ( -15.00000000000000000, 0.000000000000000000, -35.00000000000000000 ) ) ;
#205 = CARTESIAN_POINT ( 'NONE',  ( -15.00000000000000000, 0.000000000000000000, -35.00000000000000000 ) ) ;
#206 = DIRECTION ( 'NONE',  ( -0.000000000000000000, -0.000000000000000000, 1.000000000000000000 ) ) ;
#207 = ADVANCED_FACE ( 'NONE', ( #641 ), #365, .F. ) ;
#208 = DIRECTION ( 'NONE',  ( -0.000000000000000000, 0.000000000000000000, -1.000000000000000000 ) ) ;
#209 = CYLINDRICAL_SURFACE ( 'NONE', #107, 6.999999999999995559 ) ;
#210 = VECTOR ( 'NONE', #445, 1000.000000000000114 ) ;
#211 = APPLICATION_CONTEXT ( 'automotive_design' ) ;
#212 = STYLED_ITEM ( 'NONE', ( #634 ), #323 ) ;
#213 = EDGE_LOOP ( 'NONE', ( #131, #562, #181, #570 ) ) ;
#214 = ORIENTED_EDGE ( 'NONE', *, *, #233, .F. ) ;
#215 = CARTESIAN_POINT ( 'NONE',  ( -6.999999999999995559, 18.00000000000000000, -11.00000000000000000 ) ) ;
#216 = FACE_BOUND ( 'NONE', #200, .T. ) ;
#217 = VERTEX_POINT ( 'NONE', #56 ) ;
#218 = VERTEX_POINT ( 'NONE', #266 ) ;
#219 = AXIS2_PLACEMENT_3D ( 'NONE', #1, #307, #402 ) ;
#220 = SURFACE_STYLE_FILL_AREA ( #565 ) ;
#221 = VECTOR ( 'NONE', #683, 1000.000000000000000 ) ;
#222 = CARTESIAN_POINT ( 'NONE',  ( 10.00000000000000533, 18.00000000000000000, -0.5000000000000108802 ) ) ;
#223 = FACE_OUTER_BOUND ( 'NONE', #598, .T. ) ;
#224 = EDGE_LOOP ( 'NONE', ( #361, #26, #312, #333 ) ) ;
#225 = EDGE_CURVE ( 'NONE', #238, #607, #612, .T. ) ;
#226 = VECTOR ( 'NONE', #349, 1000.000000000000000 ) ;
#227 = SURFACE_STYLE_USAGE ( .BOTH. , #184 ) ;
#228 = VERTEX_POINT ( 'NONE', #484 ) ;
#229 = LINE ( 'NONE', #241, #594 ) ;
#230 = FACE_OUTER_BOUND ( 'NONE', #232, .T. ) ;
#231 = ORIENTED_EDGE ( 'NONE', *, *, #135, .T. ) ;
#232 = EDGE_LOOP ( 'NONE', ( #502, #373, #167, #572 ) ) ;
#233 = EDGE_CURVE ( 'NONE', #424, #614, #136, .T. ) ;
#234 = CARTESIAN_POINT ( 'NONE',  ( -8.025000000000000355, 18.00000000000000000, -11.00000000000000000 ) ) ;
#235 = CARTESIAN_POINT ( 'NONE',  ( 0.000000000000000000, 18.00000000000000000, -35.00000000000000000 ) ) ;
#236 = DIRECTION ( 'NONE',  ( 1.000000000000000000, 0.000000000000000000, 0.000000000000000000 ) ) ;
#237 = LINE ( 'NONE', #354, #291 ) ;
#238 = VERTEX_POINT ( 'NONE', #320 ) ;
#239 = DIRECTION ( 'NONE',  ( 1.000000000000000000, 0.000000000000000000, 0.000000000000000000 ) ) ;
#240 = EDGE_CURVE ( 'NONE', #643, #327, #339, .T. ) ;
#241 = CARTESIAN_POINT ( 'NONE',  ( 10.00000000000000533, 18.00000000000000000, -11.00000000000000000 ) ) ;
#242 = DIRECTION ( 'NONE',  ( 1.000000000000000000, 0.000000000000000000, 0.000000000000000000 ) ) ;
#243 =( NAMED_UNIT ( * ) PLANE_ANGLE_UNIT ( ) SI_UNIT ( $, .RADIAN. ) );
#244 = LINE ( 'NONE', #162, #116 ) ;
#245 = ADVANCED_FACE ( 'NONE', ( #393 ), #661, .T. ) ;
#246 = COLOUR_RGB ( '',0.8901960784313724950, 0.9137254901960784048, 0.9333333333333333481 ) ;
#247 = MECHANICAL_DESIGN_GEOMETRIC_PRESENTATION_REPRESENTATION (  '', ( #29 ), #493 ) ;
#248 = ORIENTED_EDGE ( 'NONE', *, *, #364, .F. ) ;
#249 = CARTESIAN_POINT ( 'NONE',  ( -10.00000000000000533, 18.00000000000000000, -11.00000000000000000 ) ) ;
#250 = VERTEX_POINT ( 'NONE', #280 ) ;
#251 = PLANE ( 'NONE',  #261 ) ;
#252 = PLANE ( 'NONE',  #637 ) ;
#253 = DIRECTION ( 'NONE',  ( 1.000000000000000000, 0.000000000000000000, 0.000000000000000000 ) ) ;
#254 = CIRCLE ( 'NONE', #382, 10.00000000000000533 ) ;
#255 = CIRCLE ( 'NONE', #448, 6.999999999999994671 ) ;
#256 = AXIS2_PLACEMENT_3D ( 'NONE', #27, #495, #549 ) ;
#257 = ORIENTED_EDGE ( 'NONE', *, *, #113, .T. ) ;
#258 = ORIENTED_EDGE ( 'NONE', *, *, #364, .T. ) ;
#259 = CARTESIAN_POINT ( 'NONE',  ( 0.000000000000000000, 18.00000000000000000, -0.5000000000000108802 ) ) ;
#260 = DIRECTION ( 'NONE',  ( 0.000000000000000000, 0.000000000000000000, 1.000000000000000000 ) ) ;
#261 = AXIS2_PLACEMENT_3D ( 'NONE', #413, #346, #105 ) ;
#262 = CARTESIAN_POINT ( 'NONE',  ( 0.000000000000000000, 18.00000000000000000, -11.00000000000000000 ) ) ;
#263 = LINE ( 'NONE', #575, #446 ) ;
#264 = LINE ( 'NONE', #444, #325 ) ;
#265 = ORIENTED_EDGE ( 'NONE', *, *, #76, .T. ) ;
#266 = CARTESIAN_POINT ( 'NONE',  ( 9.999999999999998224, 33.00000000000000000, -35.00000000000000000 ) ) ;
#267 = ORIENTED_EDGE ( 'NONE', *, *, #397, .T. ) ;
#268 = CARTESIAN_POINT ( 'NONE',  ( 0.000000000000000000, 18.00000000000000000, -0.5000000000000108802 ) ) ;
#269 = DIRECTION ( 'NONE',  ( -0.000000000000000000, -0.000000000000000000, 1.000000000000000000 ) ) ;
#270 = AXIS2_PLACEMENT_3D ( 'NONE', #679, #52, #568 ) ;
#271 = DIRECTION ( 'NONE',  ( -1.000000000000000000, 0.000000000000000000, 0.000000000000000000 ) ) ;
#272 = VECTOR ( 'NONE', #522, 1000.000000000000000 ) ;
#273 = DIRECTION ( 'NONE',  ( -0.000000000000000000, -0.000000000000000000, 1.000000000000000000 ) ) ;
#274 = CIRCLE ( 'NONE', #523, 12.49999999999999645 ) ;
#275 = VERTEX_POINT ( 'NONE', #120 ) ;
#276 = ORIENTED_EDGE ( 'NONE', *, *, #45, .F. ) ;
#277 = FILL_AREA_STYLE ('',( #601 ) ) ;
#278 = CARTESIAN_POINT ( 'NONE',  ( 10.50000000000001599, 18.00000000000000000, 0.000000000000000000 ) ) ;
#279 = EDGE_CURVE ( 'NONE', #275, #335, #507, .T. ) ;
#280 = CARTESIAN_POINT ( 'NONE',  ( 15.00000000000000000, 28.00000000000000000, -35.00000000000000000 ) ) ;
#281 = CIRCLE ( 'NONE', #287, 6.999999999999997335 ) ;
#282 = ORIENTED_EDGE ( 'NONE', *, *, #540, .T. ) ;
#283 =( NAMED_UNIT ( * ) SI_UNIT ( $, .STERADIAN. ) SOLID_ANGLE_UNIT ( ) );
#284 = ORIENTED_EDGE ( 'NONE', *, *, #473, .F. ) ;
#285 = ORIENTED_EDGE ( 'NONE', *, *, #135, .F. ) ;
#286 = CARTESIAN_POINT ( 'NONE',  ( 0.000000000000000000, 18.00000000000000000, -5.000000000000000000 ) ) ;
#287 = AXIS2_PLACEMENT_3D ( 'NONE', #420, #638, #109 ) ;
#288 = CARTESIAN_POINT ( 'NONE',  ( -9.999999999999998224, 33.00000000000000000, -35.00000000000000000 ) ) ;
#289 = VECTOR ( 'NONE', #38, 1000.000000000000000 ) ;
#290 = VECTOR ( 'NONE', #273, 1000.000000000000000 ) ;
#291 = VECTOR ( 'NONE', #600, 1000.000000000000000 ) ;
#292 = DIRECTION ( 'NONE',  ( -0.7071067811865492381, 8.659560562354955045E-17, 0.7071067811865457964 ) ) ;
#293 = AXIS2_PLACEMENT_3D ( 'NONE', #28, #385, #331 ) ;
#294 = CARTESIAN_POINT ( 'NONE',  ( 6.999999999999995559, 18.00000000000000000, -11.00000000000000000 ) ) ;
#295 = APPLICATION_PROTOCOL_DEFINITION ( 'draft international standard', 'automotive_design', 1998, #453 ) ;
#296 =( NAMED_UNIT ( * ) SI_UNIT ( $, .STERADIAN. ) SOLID_ANGLE_UNIT ( ) );
#297 = EDGE_CURVE ( 'NONE', #102, #119, #255, .T. ) ;
#298 = ADVANCED_FACE ( 'NONE', ( #596 ), #525, .F. ) ;
#299 = AXIS2_PLACEMENT_3D ( 'NONE', #82, #186, #196 ) ;
#300 = VECTOR ( 'NONE', #585, 1000.000000000000000 ) ;
#301 = DIRECTION ( 'NONE',  ( 0.000000000000000000, 0.000000000000000000, 1.000000000000000000 ) ) ;
#302 = EDGE_LOOP ( 'NONE', ( #174, #64, #62, #340 ) ) ;
#303 = EDGE_LOOP ( 'NONE', ( #304, #450, #342, #193, #258, #33 ) ) ;
#304 = ORIENTED_EDGE ( 'NONE', *, *, #466, .T. ) ;
#305 = ADVANCED_FACE ( 'NONE', ( #379 ), #9, .T. ) ;
#306 = CARTESIAN_POINT ( 'NONE',  ( -9.999999999999998224, 33.00000000000000000, -35.00000000000000000 ) ) ;
#307 = DIRECTION ( 'NONE',  ( 0.000000000000000000, -0.000000000000000000, 1.000000000000000000 ) ) ;
#308 = DIRECTION ( 'NONE',  ( -1.000000000000000000, 0.000000000000000000, 0.000000000000000000 ) ) ;
#309 = AXIS2_PLACEMENT_3D ( 'NONE', #651, #595, #593 ) ;
#310 = VECTOR ( 'NONE', #20, 1000.000000000000000 ) ;
#311 = CARTESIAN_POINT ( 'NONE',  ( 15.00000000000000000, -4.074106171571863088E-15, -35.00000000000000000 ) ) ;
#312 = ORIENTED_EDGE ( 'NONE', *, *, #489, .T. ) ;
#313 = CARTESIAN_POINT ( 'NONE',  ( 10.00000000000000533, 18.00000000000000000, -0.5000000000000108802 ) ) ;
#314 = DIRECTION ( 'NONE',  ( 1.000000000000000000, -1.358035390523954675E-16, 0.000000000000000000 ) ) ;
#315 =( NAMED_UNIT ( * ) SI_UNIT ( $, .STERADIAN. ) SOLID_ANGLE_UNIT ( ) );
#316 = EDGE_CURVE ( 'NONE', #374, #614, #560, .T. ) ;
#317 = ORIENTED_EDGE ( 'NONE', *, *, #653, .T. ) ;
#318 = EDGE_LOOP ( 'NONE', ( #118, #494, #442, #51 ) ) ;
#319 = ORIENTED_EDGE ( 'NONE', *, *, #316, .F. ) ;
#320 = CARTESIAN_POINT ( 'NONE',  ( -9.999999999999998224, 33.00000000000000000, -5.000000000000000000 ) ) ;
#321 = CARTESIAN_POINT ( 'NONE',  ( 0.000000000000000000, 0.000000000000000000, -35.00000000000000000 ) ) ;
#322 = DIRECTION ( 'NONE',  ( 1.000000000000000000, 0.000000000000000000, 0.000000000000000000 ) ) ;
#323 = MANIFOLD_SOLID_BREP ( 'Verrundung1', #665 ) ;
#324 = CONICAL_SURFACE ( 'NONE', #547, 10.00000000000000533, 0.7853981633974482790 ) ;
#325 = VECTOR ( 'NONE', #658, 1000.000000000000000 ) ;
#326 = CIRCLE ( 'NONE', #8, 8.025000000000000355 ) ;
#327 = VERTEX_POINT ( 'NONE', #278 ) ;
#328 = FILL_AREA_STYLE ('',( #381 ) ) ;
#329 = EDGE_CURVE ( 'NONE', #250, #92, #128, .T. ) ;
#330 =( NAMED_UNIT ( * ) PLANE_ANGLE_UNIT ( ) SI_UNIT ( $, .RADIAN. ) );
#331 = DIRECTION ( 'NONE',  ( 1.000000000000000000, 0.000000000000000000, 0.000000000000000000 ) ) ;
#332 = LINE ( 'NONE', #515, #77 ) ;
#333 = ORIENTED_EDGE ( 'NONE', *, *, #475, .F. ) ;
#334 = CARTESIAN_POINT ( 'NONE',  ( -15.00000000000000000, 0.000000000000000000, -5.000000000000000000 ) ) ;
#335 = VERTEX_POINT ( 'NONE', #554 ) ;
#336 = PRODUCT_DEFINITION ( 'UNKNOWN', '', #480, #176 ) ;
#337 = DIRECTION ( 'NONE',  ( 0.000000000000000000, -0.000000000000000000, 1.000000000000000000 ) ) ;
#338 = CARTESIAN_POINT ( 'NONE',  ( -15.00000000000000000, 28.00000000000000000, -35.00000000000000000 ) ) ;
#339 = LINE ( 'NONE', #222, #498 ) ;
#340 = ORIENTED_EDGE ( 'NONE', *, *, #479, .F. ) ;
#341 = DIRECTION ( 'NONE',  ( 1.000000000000000000, 0.000000000000000000, 0.000000000000000000 ) ) ;
#342 = ORIENTED_EDGE ( 'NONE', *, *, #599, .T. ) ;
#343 = EDGE_CURVE ( 'NONE', #424, #366, #274, .T. ) ;
#344 =( NAMED_UNIT ( * ) SI_UNIT ( $, .STERADIAN. ) SOLID_ANGLE_UNIT ( ) );
#345 = EDGE_CURVE ( 'NONE', #350, #39, #264, .T. ) ;
#346 = DIRECTION ( 'NONE',  ( 1.000000000000000000, 0.000000000000000000, 0.000000000000000000 ) ) ;
#347 = ADVANCED_FACE ( 'NONE', ( #101, #518 ), #490, .T. ) ;
#348 = ORIENTED_EDGE ( 'NONE', *, *, #343, .T. ) ;
#349 = DIRECTION ( 'NONE',  ( -0.000000000000000000, -0.000000000000000000, 1.000000000000000000 ) ) ;
#350 = VERTEX_POINT ( 'NONE', #334 ) ;
#351 = EDGE_CURVE ( 'NONE', #327, #564, #387, .T. ) ;
#352 = DIRECTION ( 'NONE',  ( -0.000000000000000000, 0.000000000000000000, 1.000000000000000000 ) ) ;
#353 = CARTESIAN_POINT ( 'NONE',  ( 0.000000000000000000, 18.00000000000000000, -0.5000000000000108802 ) ) ;
#354 = CARTESIAN_POINT ( 'NONE',  ( -15.00000000000000000, 28.00000000000000000, -35.00000000000000000 ) ) ;
#355 = UNCERTAINTY_MEASURE_WITH_UNIT (LENGTH_MEASURE( 1.000000000000000082E-05 ), #440, 'distance_accuracy_value', 'NONE');
#356 = LINE ( 'NONE', #556, #108 ) ;
#357 = STYLED_ITEM ( 'NONE', ( #567 ), #75 ) ;
#358 = CIRCLE ( 'NONE', #160, 6.999999999999997335 ) ;
#359 = VECTOR ( 'NONE', #548, 1000.000000000000000 ) ;
#360 = DIRECTION ( 'NONE',  ( 1.000000000000000000, 0.000000000000000000, 0.000000000000000000 ) ) ;
#361 = ORIENTED_EDGE ( 'NONE', *, *, #529, .F. ) ;
#362 = ORIENTED_EDGE ( 'NONE', *, *, #279, .T. ) ;
#363 = DIRECTION ( 'NONE',  ( 0.000000000000000000, 0.000000000000000000, 1.000000000000000000 ) ) ;
#364 = EDGE_CURVE ( 'NONE', #39, #92, #646, .T. ) ;
#365 = CYLINDRICAL_SURFACE ( 'NONE', #647, 10.00000000000000533 ) ;
#366 = VERTEX_POINT ( 'NONE', #436 ) ;
#367 = ORIENTED_EDGE ( 'NONE', *, *, #169, .T. ) ;
#368 = CARTESIAN_POINT ( 'NONE',  ( -15.00000000000000000, 28.00000000000000000, -5.000000000000000000 ) ) ;
#369 =( LENGTH_UNIT ( ) NAMED_UNIT ( * ) SI_UNIT ( .MILLI., .METRE. ) );
#370 = CARTESIAN_POINT ( 'NONE',  ( 0.000000000000000000, 18.00000000000000000, 0.000000000000000000 ) ) ;
#371 = CYLINDRICAL_SURFACE ( 'NONE', #516, 10.00000000000000533 ) ;
#372 = CARTESIAN_POINT ( 'NONE',  ( 0.000000000000000000, 18.00000000000000000, -5.000000000000000000 ) ) ;
#373 = ORIENTED_EDGE ( 'NONE', *, *, #233, .T. ) ;
#374 = VERTEX_POINT ( 'NONE', #666 ) ;
#375 = MECHANICAL_DESIGN_GEOMETRIC_PRESENTATION_REPRESENTATION (  '', ( #212 ), #415 ) ;
#376 = DIRECTION ( 'NONE',  ( 0.000000000000000000, 0.000000000000000000, -1.000000000000000000 ) ) ;
#377 = CARTESIAN_POINT ( 'NONE',  ( 15.00000000000000000, 28.00000000000000000, -35.00000000000000000 ) ) ;
#378 = EDGE_CURVE ( 'NONE', #623, #564, #486, .T. ) ;
#379 = FACE_OUTER_BOUND ( 'NONE', #192, .T. ) ;
#380 = FACE_OUTER_BOUND ( 'NONE', #103, .T. ) ;
#381 = FILL_AREA_STYLE_COLOUR ( '', #246 ) ;
#382 = AXIS2_PLACEMENT_3D ( 'NONE', #259, #363, #532 ) ;
#383 = ORIENTED_EDGE ( 'NONE', *, *, #76, .F. ) ;
#384 = AXIS2_PLACEMENT_3D ( 'NONE', #98, #632, #399 ) ;
#385 = DIRECTION ( 'NONE',  ( -0.000000000000000000, -0.000000000000000000, 1.000000000000000000 ) ) ;
#386 =( NAMED_UNIT ( * ) PLANE_ANGLE_UNIT ( ) SI_UNIT ( $, .RADIAN. ) );
#387 = CIRCLE ( 'NONE', #668, 10.50000000000001599 ) ;
#388 = EDGE_LOOP ( 'NONE', ( #423, #552, #182, #58 ) ) ;
#389 = PRESENTATION_LAYER_ASSIGNMENT (  '', '', ( #357 ) ) ;
#390 = EDGE_CURVE ( 'NONE', #374, #545, #83, .T. ) ;
#391 = DIRECTION ( 'NONE',  ( -0.000000000000000000, 0.000000000000000000, -1.000000000000000000 ) ) ;
#392 = LINE ( 'NONE', #629, #221 ) ;
#393 = FACE_OUTER_BOUND ( 'NONE', #159, .T. ) ;
#394 = DIRECTION ( 'NONE',  ( 0.000000000000000000, 0.000000000000000000, 1.000000000000000000 ) ) ;
#395 = VECTOR ( 'NONE', #681, 1000.000000000000000 ) ;
#396 = ORIENTED_EDGE ( 'NONE', *, *, #479, .T. ) ;
#397 = EDGE_CURVE ( 'NONE', #49, #218, #190, .T. ) ;
#398 = CARTESIAN_POINT ( 'NONE',  ( 0.000000000000000000, 0.000000000000000000, -5.000000000000000000 ) ) ;
#399 = DIRECTION ( 'NONE',  ( 1.000000000000000000, 0.000000000000000000, 0.000000000000000000 ) ) ;
#400 = CARTESIAN_POINT ( 'NONE',  ( 6.999999999999994671, 18.00000000000000000, -35.00000000000000000 ) ) ;
#401 = AXIS2_PLACEMENT_3D ( 'NONE', #311, #526, #314 ) ;
#402 = DIRECTION ( 'NONE',  ( 1.000000000000000000, 0.000000000000000000, 0.000000000000000000 ) ) ;
#403 = DIRECTION ( 'NONE',  ( -1.000000000000000000, 0.000000000000000000, 0.000000000000000000 ) ) ;
#404 = CYLINDRICAL_SURFACE ( 'NONE', #299, 5.000000000000000000 ) ;
#405 = CIRCLE ( 'NONE', #270, 13.00000000000000000 ) ;
#406 = DIRECTION ( 'NONE',  ( 1.000000000000000000, 0.000000000000000000, 0.000000000000000000 ) ) ;
#407 = VERTEX_POINT ( 'NONE', #288 ) ;
#408 = CARTESIAN_POINT ( 'NONE',  ( -9.999999999999998224, 28.00000000000000000, -35.00000000000000000 ) ) ;
#409 = ORIENTED_EDGE ( 'NONE', *, *, #5, .T. ) ;
#410 = ADVANCED_FACE ( 'NONE', ( #223 ), #569, .T. ) ;
#411 = CARTESIAN_POINT ( 'NONE',  ( -8.025000000000000355, 18.00000000000000000, -11.00000000000000000 ) ) ;
#412 = SURFACE_SIDE_STYLE ('',( #220 ) ) ;
#413 = CARTESIAN_POINT ( 'NONE',  ( 15.00000000000000000, -4.074106171571863088E-15, -35.00000000000000000 ) ) ;
#414 =( LENGTH_UNIT ( ) NAMED_UNIT ( * ) SI_UNIT ( .MILLI., .METRE. ) );
#415 =( GEOMETRIC_REPRESENTATION_CONTEXT ( 3 ) GLOBAL_UNCERTAINTY_ASSIGNED_CONTEXT ( ( #355 ) ) GLOBAL_UNIT_ASSIGNED_CONTEXT ( ( #440, #386, #602 ) ) REPRESENTATION_CONTEXT ( 'NONE', 'WORKASPACE' ) );
#416 = FACE_BOUND ( 'NONE', #509, .T. ) ;
#417 = CARTESIAN_POINT ( 'NONE',  ( 0.000000000000000000, 18.00000000000000000, -0.5000000000000004441 ) ) ;
#418 = ORIENTED_EDGE ( 'NONE', *, *, #345, .F. ) ;
#419 = VERTEX_POINT ( 'NONE', #191 ) ;
#420 = CARTESIAN_POINT ( 'NONE',  ( 0.000000000000000000, 18.00000000000000000, -12.02499999999999680 ) ) ;
#421 = EDGE_CURVE ( 'NONE', #102, #111, #543, .T. ) ;
#422 = AXIS2_PLACEMENT_3D ( 'NONE', #100, #53, #4 ) ;
#423 = ORIENTED_EDGE ( 'NONE', *, *, #5, .F. ) ;
#424 = VERTEX_POINT ( 'NONE', #133 ) ;
#425 = DIRECTION ( 'NONE',  ( 1.000000000000000000, 0.000000000000000000, 0.000000000000000000 ) ) ;
#426 = EDGE_LOOP ( 'NONE', ( #183, #418, #590, #362 ) ) ;
#427 = DIRECTION ( 'NONE',  ( 0.000000000000000000, 0.000000000000000000, 1.000000000000000000 ) ) ;
#428 = CARTESIAN_POINT ( 'NONE',  ( -9.999999999999998224, 28.00000000000000000, -5.000000000000000888 ) ) ;
#429 = CARTESIAN_POINT ( 'NONE',  ( 15.00000000000000000, -4.074106171571863088E-15, -35.00000000000000000 ) ) ;
#430 = EDGE_CURVE ( 'NONE', #228, #111, #358, .T. ) ;
#431 = FACE_OUTER_BOUND ( 'NONE', #388, .T. ) ;
#432 = DIRECTION ( 'NONE',  ( -0.000000000000000000, -0.000000000000000000, 1.000000000000000000 ) ) ;
#433 = EDGE_CURVE ( 'NONE', #228, #511, #127, .T. ) ;
#434 = ORIENTED_EDGE ( 'NONE', *, *, #390, .F. ) ;
#435 = PRESENTATION_LAYER_ASSIGNMENT (  '', '', ( #212 ) ) ;
#436 = CARTESIAN_POINT ( 'NONE',  ( -12.49999999999999645, 18.00000000000000000, 0.000000000000000000 ) ) ;
#437 = DIRECTION ( 'NONE',  ( -0.000000000000000000, 0.000000000000000000, 1.000000000000000000 ) ) ;
#438 = CIRCLE ( 'NONE', #163, 13.00000000000000000 ) ;
#439 = VECTOR ( 'NONE', #459, 1000.000000000000000 ) ;
#440 =( LENGTH_UNIT ( ) NAMED_UNIT ( * ) SI_UNIT ( .MILLI., .METRE. ) );
#441 = AXIS2_PLACEMENT_3D ( 'NONE', #321, #168, #592 ) ;
#442 = ORIENTED_EDGE ( 'NONE', *, *, #430, .T. ) ;
#443 = ORIENTED_EDGE ( 'NONE', *, *, #93, .T. ) ;
#444 = CARTESIAN_POINT ( 'NONE',  ( -15.00000000000000000, 0.000000000000000000, -5.000000000000000000 ) ) ;
#445 = DIRECTION ( 'NONE',  ( -0.7071067811865474617, 8.659560562354932858E-17, 0.7071067811865474617 ) ) ;
#446 = VECTOR ( 'NONE', #678, 1000.000000000000000 ) ;
#447 = DIRECTION ( 'NONE',  ( 0.000000000000000000, 1.000000000000000000, -0.000000000000000000 ) ) ;
#448 = AXIS2_PLACEMENT_3D ( 'NONE', #129, #654, #30 ) ;
#449 = FACE_OUTER_BOUND ( 'NONE', #635, .T. ) ;
#450 = ORIENTED_EDGE ( 'NONE', *, *, #225, .T. ) ;
#451 = DIRECTION ( 'NONE',  ( 1.000000000000000000, 0.000000000000000000, 0.000000000000000000 ) ) ;
#452 = CARTESIAN_POINT ( 'NONE',  ( 0.000000000000000000, 18.00000000000000000, 0.000000000000000000 ) ) ;
#453 = APPLICATION_CONTEXT ( 'automotive_design' ) ;
#454 = DIRECTION ( 'NONE',  ( 1.000000000000000000, 0.000000000000000000, 0.000000000000000000 ) ) ;
#455 = ADVANCED_FACE ( 'NONE', ( #155 ), #324, .F. ) ;
#456 = CIRCLE ( 'NONE', #171, 10.00000000000000533 ) ;
#457 = CARTESIAN_POINT ( 'NONE',  ( 9.999999999999998224, 28.00000000000000000, -5.000000000000000888 ) ) ;
#458 = LINE ( 'NONE', #249, #71 ) ;
#459 = DIRECTION ( 'NONE',  ( 0.000000000000000000, 1.000000000000000000, 0.000000000000000000 ) ) ;
#460 = ADVANCED_FACE ( 'NONE', ( #416, #199 ), #43, .T. ) ;
#461 = ORIENTED_EDGE ( 'NONE', *, *, #653, .F. ) ;
#462 = ORIENTED_EDGE ( 'NONE', *, *, #390, .T. ) ;
#463 = CARTESIAN_POINT ( 'NONE',  ( -13.00000000000000000, 18.00000000000000000, -5.000000000000000000 ) ) ;
#464 = ADVANCED_FACE ( 'NONE', ( #189 ), #404, .T. ) ;
#465 = DIRECTION ( 'NONE',  ( 1.000000000000000000, 0.000000000000000000, 0.000000000000000000 ) ) ;
#466 = EDGE_CURVE ( 'NONE', #49, #238, #392, .T. ) ;
#467 = AXIS2_PLACEMENT_3D ( 'NONE', #353, #144, #239 ) ;
#468 = DIRECTION ( 'NONE',  ( 0.000000000000000000, 0.000000000000000000, 1.000000000000000000 ) ) ;
#469 = CIRCLE ( 'NONE', #95, 5.000000000000000888 ) ;
#470 = VECTOR ( 'NONE', #308, 1000.000000000000000 ) ;
#471 = DIRECTION ( 'NONE',  ( -0.000000000000000000, -0.000000000000000000, 1.000000000000000000 ) ) ;
#472 = ORIENTED_EDGE ( 'NONE', *, *, #297, .F. ) ;
#473 = EDGE_CURVE ( 'NONE', #407, #238, #55, .T. ) ;
#474 = ADVANCED_FACE ( 'NONE', ( #431 ), #559, .T. ) ;
#475 = EDGE_CURVE ( 'NONE', #419, #643, #229, .T. ) ;
#476 = DIRECTION ( 'NONE',  ( -0.000000000000000000, -0.000000000000000000, 1.000000000000000000 ) ) ;
#477 = EDGE_LOOP ( 'NONE', ( #656, #472, #123, #621 ) ) ;
#478 = ORIENTED_EDGE ( 'NONE', *, *, #541, .T. ) ;
#479 = EDGE_CURVE ( 'NONE', #564, #327, #61, .T. ) ;
#480 = PRODUCT_DEFINITION_FORMATION_WITH_SPECIFIED_SOURCE ( 'ANY', '', #577, .NOT_KNOWN. ) ;
#481 = CARTESIAN_POINT ( 'NONE',  ( 15.00000000000000000, 33.00000000000000000, -35.00000000000000000 ) ) ;
#482 = PRODUCT_DEFINITION_SHAPE ( 'NONE', 'NONE',  #336 ) ;
#483 = PLANE ( 'NONE',  #441 ) ;
#484 = CARTESIAN_POINT ( 'NONE',  ( -6.999999999999997335, 18.00000000000000000, -12.02499999999999680 ) ) ;
#485 = LINE ( 'NONE', #215, #300 ) ;
#486 = LINE ( 'NONE', #86, #210 ) ;
#487 = EDGE_LOOP ( 'NONE', ( #530, #40 ) ) ;
#488 = ORIENTED_EDGE ( 'NONE', *, *, #466, .F. ) ;
#489 = EDGE_CURVE ( 'NONE', #623, #643, #535, .T. ) ;
#490 = PLANE ( 'NONE',  #508 ) ;
#491 = EDGE_CURVE ( 'NONE', #275, #350, #263, .T. ) ;
#492 = CARTESIAN_POINT ( 'NONE',  ( 0.000000000000000000, 18.00000000000000000, 0.000000000000000000 ) ) ;
#493 =( GEOMETRIC_REPRESENTATION_CONTEXT ( 3 ) GLOBAL_UNCERTAINTY_ASSIGNED_CONTEXT ( ( #542 ) ) GLOBAL_UNIT_ASSIGNED_CONTEXT ( ( #369, #65, #315 ) ) REPRESENTATION_CONTEXT ( 'NONE', 'WORKASPACE' ) );
#494 = ORIENTED_EDGE ( 'NONE', *, *, #616, .T. ) ;
#495 = DIRECTION ( 'NONE',  ( 0.000000000000000000, 0.000000000000000000, -1.000000000000000000 ) ) ;
#496 = ORIENTED_EDGE ( 'NONE', *, *, #504, .F. ) ;
#497 = AXIS2_PLACEMENT_3D ( 'NONE', #521, #198, #46 ) ;
#498 = VECTOR ( 'NONE', #70, 1000.000000000000114 ) ;
#499 =( GEOMETRIC_REPRESENTATION_CONTEXT ( 3 ) GLOBAL_UNCERTAINTY_ASSIGNED_CONTEXT ( ( #503 ) ) GLOBAL_UNIT_ASSIGNED_CONTEXT ( ( #132, #667, #344 ) ) REPRESENTATION_CONTEXT ( 'NONE', 'WORKASPACE' ) );
#500 = ORIENTED_EDGE ( 'NONE', *, *, #3, .T. ) ;
#501 = DIRECTION ( 'NONE',  ( -0.000000000000000000, -0.000000000000000000, 1.000000000000000000 ) ) ;
#502 = ORIENTED_EDGE ( 'NONE', *, *, #343, .F. ) ;
#503 = UNCERTAINTY_MEASURE_WITH_UNIT (LENGTH_MEASURE( 1.000000000000000082E-05 ), #132, 'distance_accuracy_value', 'NONE');
#504 = EDGE_CURVE ( 'NONE', #366, #424, #68, .T. ) ;
#505 = AXIS2_PLACEMENT_3D ( 'NONE', #428, #17, #425 ) ;
#506 = CARTESIAN_POINT ( 'NONE',  ( 0.000000000000000000, 18.00000000000000000, -0.5000000000000108802 ) ) ;
#507 = LINE ( 'NONE', #429, #544 ) ;
#508 = AXIS2_PLACEMENT_3D ( 'NONE', #179, #177, #605 ) ;
#509 = EDGE_LOOP ( 'NONE', ( #434, #383 ) ) ;
#510 = CARTESIAN_POINT ( 'NONE',  ( 0.000000000000000000, 18.00000000000000000, -5.000000000000000000 ) ) ;
#511 = VERTEX_POINT ( 'NONE', #411 ) ;
#512 = DIRECTION ( 'NONE',  ( 1.000000000000000000, 0.000000000000000000, 0.000000000000000000 ) ) ;
#513 = CARTESIAN_POINT ( 'NONE',  ( 0.000000000000000000, 18.00000000000000000, -11.00000000000000000 ) ) ;
#514 = ADVANCED_FACE ( 'NONE', ( #611 ), #251, .T. ) ;
#515 = CARTESIAN_POINT ( 'NONE',  ( -12.49999999999999645, 18.00000000000000000, 0.000000000000000000 ) ) ;
#516 = AXIS2_PLACEMENT_3D ( 'NONE', #513, #206, #202 ) ;
#517 = CARTESIAN_POINT ( 'NONE',  ( 15.00000000000000000, 0.000000000000000000, -5.000000000000000000 ) ) ;
#518 = FACE_OUTER_BOUND ( 'NONE', #584, .T. ) ;
#519 = DIRECTION ( 'NONE',  ( -0.000000000000000000, 0.000000000000000000, -1.000000000000000000 ) ) ;
#520 = EDGE_LOOP ( 'NONE', ( #148, #112 ) ) ;
#521 = CARTESIAN_POINT ( 'NONE',  ( 0.000000000000000000, 18.00000000000000000, -11.00000000000000000 ) ) ;
#522 = DIRECTION ( 'NONE',  ( 0.000000000000000000, 0.000000000000000000, 1.000000000000000000 ) ) ;
#523 = AXIS2_PLACEMENT_3D ( 'NONE', #492, #337, #34 ) ;
#524 = SURFACE_SIDE_STYLE ('',( #16 ) ) ;
#525 = CYLINDRICAL_SURFACE ( 'NONE', #293, 6.999999999999995559 ) ;
#526 = DIRECTION ( 'NONE',  ( -1.358035390523954675E-16, -1.000000000000000000, 0.000000000000000000 ) ) ;
#527 = ADVANCED_FACE ( 'NONE', ( #6 ), #371, .F. ) ;
#528 = LINE ( 'NONE', #481, #470 ) ;
#529 = EDGE_CURVE ( 'NONE', #217, #419, #456, .T. ) ;
#530 = ORIENTED_EDGE ( 'NONE', *, *, #640, .F. ) ;
#531 = CARTESIAN_POINT ( 'NONE',  ( -10.00000000000000533, 18.00000000000000000, -0.5000000000000108802 ) ) ;
#532 = DIRECTION ( 'NONE',  ( 1.000000000000000000, 0.000000000000000000, 0.000000000000000000 ) ) ;
#533 = COLOUR_RGB ( '',0.8901960784313724950, 0.9137254901960784048, 0.9333333333333333481 ) ;
#534 = FILL_AREA_STYLE ('',( #13 ) ) ;
#535 = CIRCLE ( 'NONE', #467, 10.00000000000000533 ) ;
#536 = CARTESIAN_POINT ( 'NONE',  ( -6.999999999999994671, 18.00000000000000000, -35.00000000000000000 ) ) ;
#537 = ORIENTED_EDGE ( 'NONE', *, *, #3, .F. ) ;
#538 = EDGE_CURVE ( 'NONE', #92, #49, #469, .T. ) ;
#539 = MECHANICAL_DESIGN_GEOMETRIC_PRESENTATION_REPRESENTATION (  '', ( #357 ), #201 ) ;
#540 = EDGE_CURVE ( 'NONE', #643, #623, #254, .T. ) ;
#541 = EDGE_CURVE ( 'NONE', #685, #614, #603, .T. ) ;
#542 = UNCERTAINTY_MEASURE_WITH_UNIT (LENGTH_MEASURE( 1.000000000000000082E-05 ), #369, 'distance_accuracy_value', 'NONE');
#543 = LINE ( 'NONE', #294, #134 ) ;
#544 = VECTOR ( 'NONE', #652, 1000.000000000000000 ) ;
#545 = VERTEX_POINT ( 'NONE', #463 ) ;
#546 = ORIENTED_EDGE ( 'NONE', *, *, #351, .T. ) ;
#547 = AXIS2_PLACEMENT_3D ( 'NONE', #506, #394, #561 ) ;
#548 = DIRECTION ( 'NONE',  ( -0.000000000000000000, 1.000000000000000000, -0.000000000000000000 ) ) ;
#549 = DIRECTION ( 'NONE',  ( -1.000000000000000000, 0.000000000000000000, 0.000000000000000000 ) ) ;
#550 = PRODUCT_RELATED_PRODUCT_CATEGORY ( 'part', '', ( #577 ) ) ;
#551 = FACE_OUTER_BOUND ( 'NONE', #426, .T. ) ;
#552 = ORIENTED_EDGE ( 'NONE', *, *, #397, .F. ) ;
#553 = ORIENTED_EDGE ( 'NONE', *, *, #60, .F. ) ;
#554 = CARTESIAN_POINT ( 'NONE',  ( 15.00000000000000000, -4.074106171571863088E-15, -35.00000000000000000 ) ) ;
#555 = ORIENTED_EDGE ( 'NONE', *, *, #433, .F. ) ;
#556 = CARTESIAN_POINT ( 'NONE',  ( 8.025000000000000355, 18.00000000000000000, -11.00000000000000000 ) ) ;
#557 = DIRECTION ( 'NONE',  ( -0.000000000000000000, -0.000000000000000000, 1.000000000000000000 ) ) ;
#558 = CARTESIAN_POINT ( 'NONE',  ( -13.00000000000000000, 18.00000000000000000, -0.5000000000000004441 ) ) ;
#559 = CYLINDRICAL_SURFACE ( 'NONE', #74, 5.000000000000000888 ) ;
#560 = LINE ( 'NONE', #78, #290 ) ;
#561 = DIRECTION ( 'NONE',  ( 1.000000000000000000, 0.000000000000000000, 0.000000000000000000 ) ) ;
#562 = ORIENTED_EDGE ( 'NONE', *, *, #378, .T. ) ;
#563 = CARTESIAN_POINT ( 'NONE',  ( 0.000000000000000000, 18.00000000000000000, -11.00000000000000000 ) ) ;
#564 = VERTEX_POINT ( 'NONE', #571 ) ;
#565 = FILL_AREA_STYLE ('',( #139 ) ) ;
#566 = DIRECTION ( 'NONE',  ( 1.000000000000000000, 0.000000000000000000, 0.000000000000000000 ) ) ;
#567 = PRESENTATION_STYLE_ASSIGNMENT (( #682 ) ) ;
#568 = DIRECTION ( 'NONE',  ( -1.000000000000000000, 0.000000000000000000, 0.000000000000000000 ) ) ;
#569 = CYLINDRICAL_SURFACE ( 'NONE', #618, 13.00000000000000000 ) ;
#570 = ORIENTED_EDGE ( 'NONE', *, *, #240, .F. ) ;
#571 = CARTESIAN_POINT ( 'NONE',  ( -10.50000000000001599, 18.00000000000000000, 0.000000000000000000 ) ) ;
#572 = ORIENTED_EDGE ( 'NONE', *, *, #23, .F. ) ;
#573 = CARTESIAN_POINT ( 'NONE',  ( 15.00000000000000000, 28.00000000000000000, -5.000000000000000000 ) ) ;
#574 = ORIENTED_EDGE ( 'NONE', *, *, #599, .F. ) ;
#575 = CARTESIAN_POINT ( 'NONE',  ( -15.00000000000000000, 0.000000000000000000, -35.00000000000000000 ) ) ;
#576 = AXIS2_PLACEMENT_3D ( 'NONE', #370, #376, #271 ) ;
#577 = PRODUCT ( 'Aufnahme Drehpunkt', 'Aufnahme Drehpunkt', '', ( #633 ) ) ;
#578 = ADVANCED_FACE ( 'NONE', ( #172 ), #209, .F. ) ;
#579 = AXIS2_PLACEMENT_3D ( 'NONE', #235, #670, #341 ) ;
#580 = APPLICATION_PROTOCOL_DEFINITION ( 'draft international standard', 'automotive_design', 1998, #211 ) ;
#581 = FACE_OUTER_BOUND ( 'NONE', #12, .T. ) ;
#582 = ORIENTED_EDGE ( 'NONE', *, *, #609, .F. ) ;
#583 = AXIS2_PLACEMENT_3D ( 'NONE', #372, #269, #649 ) ;
#584 = EDGE_LOOP ( 'NONE', ( #500, #35 ) ) ;
#585 = DIRECTION ( 'NONE',  ( -0.000000000000000000, -0.000000000000000000, 1.000000000000000000 ) ) ;
#586 = AXIS2_PLACEMENT_3D ( 'NONE', #408, #519, #360 ) ;
#587 = VECTOR ( 'NONE', #15, 1000.000000000000000 ) ;
#588 = ORIENTED_EDGE ( 'NONE', *, *, #329, .T. ) ;
#589 = EDGE_LOOP ( 'NONE', ( #553, #285, #57, #284 ) ) ;
#590 = ORIENTED_EDGE ( 'NONE', *, *, #491, .F. ) ;
#591 = PRESENTATION_LAYER_ASSIGNMENT (  '', '', ( #29 ) ) ;
#592 = DIRECTION ( 'NONE',  ( 1.000000000000000000, 0.000000000000000000, -0.000000000000000000 ) ) ;
#593 = DIRECTION ( 'NONE',  ( 1.000000000000000000, 0.000000000000000000, -0.000000000000000000 ) ) ;
#594 = VECTOR ( 'NONE', #96, 1000.000000000000000 ) ;
#595 = DIRECTION ( 'NONE',  ( 0.000000000000000000, -0.000000000000000000, 1.000000000000000000 ) ) ;
#596 = FACE_OUTER_BOUND ( 'NONE', #477, .T. ) ;
#597 = LINE ( 'NONE', #205, #395 ) ;
#598 = EDGE_LOOP ( 'NONE', ( #462, #443, #478, #319 ) ) ;
#599 = EDGE_CURVE ( 'NONE', #607, #350, #47, .T. ) ;
#600 = DIRECTION ( 'NONE',  ( -0.000000000000000000, -0.000000000000000000, -1.000000000000000000 ) ) ;
#601 = FILL_AREA_STYLE_COLOUR ( '', #156 ) ;
#602 =( NAMED_UNIT ( * ) SI_UNIT ( $, .STERADIAN. ) SOLID_ANGLE_UNIT ( ) );
#603 = CIRCLE ( 'NONE', #185, 13.00000000000000000 ) ;
#604 = CIRCLE ( 'NONE', #178, 5.000000000000000888 ) ;
#605 = DIRECTION ( 'NONE',  ( 1.000000000000000000, 0.000000000000000000, -0.000000000000000000 ) ) ;
#606 = VERTEX_POINT ( 'NONE', #114 ) ;
#607 = VERTEX_POINT ( 'NONE', #368 ) ;
#608 = PLANE ( 'NONE',  #610 ) ;
#609 = EDGE_CURVE ( 'NONE', #111, #228, #281, .T. ) ;
#610 = AXIS2_PLACEMENT_3D ( 'NONE', #42, #447, #187 ) ;
#611 = FACE_OUTER_BOUND ( 'NONE', #18, .T. ) ;
#612 = CIRCLE ( 'NONE', #505, 5.000000000000000000 ) ;
#613 = CIRCLE ( 'NONE', #586, 5.000000000000000000 ) ;
#614 = VERTEX_POINT ( 'NONE', #106 ) ;
#615 = DIRECTION ( 'NONE',  ( 0.7071067811865492381, 0.000000000000000000, 0.7071067811865457964 ) ) ;
#616 = EDGE_CURVE ( 'NONE', #119, #228, #485, .T. ) ;
#617 = CARTESIAN_POINT ( 'NONE',  ( 0.000000000000000000, 18.00000000000000000, -12.02499999999999680 ) ) ;
#618 = AXIS2_PLACEMENT_3D ( 'NONE', #510, #557, #236 ) ;
#619 = DIRECTION ( 'NONE',  ( -0.000000000000000000, 0.000000000000000000, 1.000000000000000000 ) ) ;
#620 = ADVANCED_FACE ( 'NONE', ( #551 ), #161, .T. ) ;
#621 = ORIENTED_EDGE ( 'NONE', *, *, #609, .T. ) ;
#622 = DIRECTION ( 'NONE',  ( 0.000000000000000000, 0.000000000000000000, 1.000000000000000000 ) ) ;
#623 = VERTEX_POINT ( 'NONE', #531 ) ;
#624 = ORIENTED_EDGE ( 'NONE', *, *, #143, .F. ) ;
#625 = CARTESIAN_POINT ( 'NONE',  ( 0.000000000000000000, 18.00000000000000000, -11.00000000000000000 ) ) ;
#626 = CARTESIAN_POINT ( 'NONE',  ( -13.00000000000000000, 18.00000000000000000, -5.000000000000000000 ) ) ;
#627 = EDGE_CURVE ( 'NONE', #335, #39, #244, .T. ) ;
#628 = ADVANCED_FACE ( 'NONE', ( #164, #581 ), #483, .F. ) ;
#629 = CARTESIAN_POINT ( 'NONE',  ( 15.00000000000000000, 33.00000000000000000, -5.000000000000000000 ) ) ;
#630 = PLANE ( 'NONE',  #309 ) ;
#631 = ADVANCED_FACE ( 'NONE', ( #180 ), #89, .F. ) ;
#632 = DIRECTION ( 'NONE',  ( 0.000000000000000000, 0.000000000000000000, 1.000000000000000000 ) ) ;
#633 = PRODUCT_CONTEXT ( 'NONE', #453, 'mechanical' ) ;
#634 = PRESENTATION_STYLE_ASSIGNMENT (( #25 ) ) ;
#635 = EDGE_LOOP ( 'NONE', ( #19, #79, #367, #686 ) ) ;
#636 = ORIENTED_EDGE ( 'NONE', *, *, #279, .F. ) ;
#637 = AXIS2_PLACEMENT_3D ( 'NONE', #204, #403, #622 ) ;
#638 = DIRECTION ( 'NONE',  ( -0.000000000000000000, -0.000000000000000000, 1.000000000000000000 ) ) ;
#639 = DIRECTION ( 'NONE',  ( 0.000000000000000000, 0.000000000000000000, -1.000000000000000000 ) ) ;
#640 = EDGE_CURVE ( 'NONE', #606, #511, #22, .T. ) ;
#641 = FACE_OUTER_BOUND ( 'NONE', #94, .T. ) ;
#642 = FACE_OUTER_BOUND ( 'NONE', #72, .T. ) ;
#643 = VERTEX_POINT ( 'NONE', #313 ) ;
#644 = CARTESIAN_POINT ( 'NONE',  ( -15.00000000000000000, 33.00000000000000000, -5.000000000000000000 ) ) ;
#645 = DIRECTION ( 'NONE',  ( 1.000000000000000000, 0.000000000000000000, 0.000000000000000000 ) ) ;
#646 = LINE ( 'NONE', #73, #359 ) ;
#647 = AXIS2_PLACEMENT_3D ( 'NONE', #262, #471, #322 ) ;
#648 = ORIENTED_EDGE ( 'NONE', *, *, #45, .T. ) ;
#649 = DIRECTION ( 'NONE',  ( 1.000000000000000000, 0.000000000000000000, 0.000000000000000000 ) ) ;
#650 = VERTEX_POINT ( 'NONE', #338 ) ;
#651 = CARTESIAN_POINT ( 'NONE',  ( 0.000000000000000000, 0.000000000000000000, 0.000000000000000000 ) ) ;
#652 = DIRECTION ( 'NONE',  ( 1.000000000000000000, -1.358035390523954675E-16, -0.000000000000000000 ) ) ;
#653 = EDGE_CURVE ( 'NONE', #614, #685, #438, .T. ) ;
#654 = DIRECTION ( 'NONE',  ( -0.000000000000000000, -0.000000000000000000, 1.000000000000000000 ) ) ;
#655 = ORIENTED_EDGE ( 'NONE', *, *, #143, .T. ) ;
#656 = ORIENTED_EDGE ( 'NONE', *, *, #616, .F. ) ;
#657 = EDGE_CURVE ( 'NONE', #111, #606, #356, .T. ) ;
#658 = DIRECTION ( 'NONE',  ( 1.000000000000000000, 0.000000000000000000, 0.000000000000000000 ) ) ;
#659 = AXIS2_PLACEMENT_3D ( 'NONE', #563, #501, #451 ) ;
#660 = FACE_OUTER_BOUND ( 'NONE', #663, .T. ) ;
#661 = CYLINDRICAL_SURFACE ( 'NONE', #583, 13.00000000000000000 ) ;
#662 = DIRECTION ( 'NONE',  ( -1.000000000000000000, 0.000000000000000000, 0.000000000000000000 ) ) ;
#663 = EDGE_LOOP ( 'NONE', ( #655, #175, #488, #267 ) ) ;
#664 = DIRECTION ( 'NONE',  ( 1.000000000000000000, 0.000000000000000000, 0.000000000000000000 ) ) ;
#665 = CLOSED_SHELL ( 'NONE', ( #631, #197, #410, #110, #578, #527, #514, #620, #7, #676, #142, #628, #207, #347, #298, #99, #460, #245, #305, #455, #464, #474 ) ) ;
#666 = CARTESIAN_POINT ( 'NONE',  ( 13.00000000000000000, 18.00000000000000000, -5.000000000000000000 ) ) ;
#667 =( NAMED_UNIT ( * ) PLANE_ANGLE_UNIT ( ) SI_UNIT ( $, .RADIAN. ) );
#668 = AXIS2_PLACEMENT_3D ( 'NONE', #452, #391, #566 ) ;
#669 = DIRECTION ( 'NONE',  ( 1.000000000000000000, 0.000000000000000000, 0.000000000000000000 ) ) ;
#670 = DIRECTION ( 'NONE',  ( -0.000000000000000000, -0.000000000000000000, 1.000000000000000000 ) ) ;
#671 = SURFACE_STYLE_FILL_AREA ( #328 ) ;
#672 = CONICAL_SURFACE ( 'NONE', #497, 8.025000000000000355, 0.7853981633974508325 ) ;
#673 = DIRECTION ( 'NONE',  ( -0.000000000000000000, -0.000000000000000000, 1.000000000000000000 ) ) ;
#674 = ORIENTED_EDGE ( 'NONE', *, *, #60, .T. ) ;
#675 = EDGE_CURVE ( 'NONE', #119, #102, #188, .T. ) ;
#676 = ADVANCED_FACE ( 'NONE', ( #660 ), #608, .T. ) ;
#677 = AXIS2_PLACEMENT_3D ( 'NONE', #152, #468, #512 ) ;
#678 = DIRECTION ( 'NONE',  ( 0.000000000000000000, 0.000000000000000000, 1.000000000000000000 ) ) ;
#679 = CARTESIAN_POINT ( 'NONE',  ( 0.000000000000000000, 18.00000000000000000, -5.000000000000000000 ) ) ;
#680 = DIRECTION ( 'NONE',  ( 1.000000000000000000, 0.000000000000000000, 0.000000000000000000 ) ) ;
#681 = DIRECTION ( 'NONE',  ( -0.000000000000000000, -1.000000000000000000, -0.000000000000000000 ) ) ;
#682 = SURFACE_STYLE_USAGE ( .BOTH. , #412 ) ;
#683 = DIRECTION ( 'NONE',  ( -1.000000000000000000, 0.000000000000000000, 0.000000000000000000 ) ) ;
#684 = PRESENTATION_STYLE_ASSIGNMENT (( #227 ) ) ;
#685 = VERTEX_POINT ( 'NONE', #558 ) ;
#686 = ORIENTED_EDGE ( 'NONE', *, *, #657, .F. ) ;
ENDSEC;
END-ISO-10303-21;
