ISO-10303-21;
HEADER;
FILE_DESCRIPTION (( 'STEP AP214' ),
    '1' );
FILE_NAME ('202500614-10106P01.STEP',
    '2026-02-10T10:18:13',
    ( '' ),
    ( '' ),
    'SwSTEP 2.0',
    'SolidWorks 2021',
    '' );
FILE_SCHEMA (( 'AUTOMOTIVE_DESIGN' ));
ENDSEC;

DATA;
#1 = CYLINDRICAL_SURFACE ( 'NONE', #410, 3.000000000000000000 ) ;
#2 = AXIS2_PLACEMENT_3D ( 'NONE', #726, #312, #669 ) ;
#3 = ORIENTED_EDGE ( 'NONE', *, *, #622, .T. ) ;
#4 = VECTOR ( 'NONE', #50, 1000.000000000000000 ) ;
#5 = AXIS2_PLACEMENT_3D ( 'NONE', #166, #466, #512 ) ;
#6 = CARTESIAN_POINT ( 'NONE',  ( 0.000000000000000000, 0.000000000000000000, -10.74852813742385749 ) ) ;
#7 = ORIENTED_EDGE ( 'NONE', *, *, #199, .T. ) ;
#8 = EDGE_CURVE ( 'NONE', #378, #251, #352, .T. ) ;
#9 = CARTESIAN_POINT ( 'NONE',  ( 0.000000000000000000, 0.000000000000000000, -10.74852813742385749 ) ) ;
#10 = CARTESIAN_POINT ( 'NONE',  ( -2.999999999999988898, 0.000000000000000000, 0.000000000000000000 ) ) ;
#11 = ORIENTED_EDGE ( 'NONE', *, *, #34, .F. ) ;
#12 = EDGE_CURVE ( 'NONE', #158, #748, #29, .T. ) ;
#13 = CARTESIAN_POINT ( 'NONE',  ( 0.000000000000000000, 0.000000000000000000, 950.0000000000000000 ) ) ;
#14 = CARTESIAN_POINT ( 'NONE',  ( 6.000000000000001776, 7.347880794884121708E-16, -24.99999999999999645 ) ) ;
#15 = ORIENTED_EDGE ( 'NONE', *, *, #395, .T. ) ;
#16 = AXIS2_PLACEMENT_3D ( 'NONE', #315, #747, #82 ) ;
#17 = AXIS2_PLACEMENT_3D ( 'NONE', #9, #135, #619 ) ;
#18 = DIRECTION ( 'NONE',  ( 1.000000000000000000, 0.000000000000000000, 0.000000000000000000 ) ) ;
#19 = CIRCLE ( 'NONE', #453, 0.5999999999999998668 ) ;
#20 = EDGE_CURVE ( 'NONE', #519, #183, #530, .T. ) ;
#21 = DIRECTION ( 'NONE',  ( -0.000000000000000000, -0.000000000000000000, -1.000000000000000000 ) ) ;
#22 = EDGE_LOOP ( 'NONE', ( #523, #649 ) ) ;
#23 = CARTESIAN_POINT ( 'NONE',  ( 0.000000000000000000, 0.000000000000000000, -10.32426406871192803 ) ) ;
#24 = CARTESIAN_POINT ( 'NONE',  ( 0.000000000000000000, 0.000000000000000000, -24.99999999999999645 ) ) ;
#25 = ORIENTED_EDGE ( 'NONE', *, *, #379, .T. ) ;
#26 = DIRECTION ( 'NONE',  ( -1.000000000000000000, 1.776356839400250465E-15, 0.000000000000000000 ) ) ;
#27 = CARTESIAN_POINT ( 'NONE',  ( 0.000000000000000000, 0.000000000000000000, -50.00000000000000000 ) ) ;
#28 = VERTEX_POINT ( 'NONE', #528 ) ;
#29 = CIRCLE ( 'NONE', #269, 6.000000000000001776 ) ;
#30 = CARTESIAN_POINT ( 'NONE',  ( 5.000000000000000000, -6.000000000000001776, -19.00000000000000000 ) ) ;
#31 = VECTOR ( 'NONE', #156, 1000.000000000000000 ) ;
#32 = CARTESIAN_POINT ( 'NONE',  ( -4.999999999999999112, -3.316624790355404695, -19.00000000000000000 ) ) ;
#33 = ORIENTED_EDGE ( 'NONE', *, *, #407, .F. ) ;
#34 = EDGE_CURVE ( 'NONE', #293, #733, #220, .T. ) ;
#35 = DIRECTION ( 'NONE',  ( -0.000000000000000000, 1.000000000000000000, -0.000000000000000000 ) ) ;
#36 = LINE ( 'NONE', #95, #573 ) ;
#37 = ORIENTED_EDGE ( 'NONE', *, *, #336, .T. ) ;
#38 = EDGE_CURVE ( 'NONE', #193, #727, #254, .T. ) ;
#39 = DIRECTION ( 'NONE',  ( -1.000000000000000000, 0.000000000000000000, 0.000000000000000000 ) ) ;
#40 = CARTESIAN_POINT ( 'NONE',  ( 0.000000000000000000, 0.000000000000000000, -19.00000000000000000 ) ) ;
#41 = CARTESIAN_POINT ( 'NONE',  ( 0.000000000000000000, 0.000000000000000000, -24.99999999999999645 ) ) ;
#42 = AXIS2_PLACEMENT_3D ( 'NONE', #255, #500, #677 ) ;
#43 = CIRCLE ( 'NONE', #712, 3.600000000000000089 ) ;
#44 = ADVANCED_FACE ( 'NONE', ( #480 ), #604, .F. ) ;
#45 = CIRCLE ( 'NONE', #766, 2.999999999999988898 ) ;
#46 = DIRECTION ( 'NONE',  ( 0.000000000000000000, -0.000000000000000000, -1.000000000000000000 ) ) ;
#47 =( NAMED_UNIT ( * ) SI_UNIT ( $, .STERADIAN. ) SOLID_ANGLE_UNIT ( ) );
#48 = LINE ( 'NONE', #593, #4 ) ;
#49 = DIRECTION ( 'NONE',  ( -0.000000000000000000, -0.000000000000000000, -1.000000000000000000 ) ) ;
#50 = DIRECTION ( 'NONE',  ( 0.000000000000000000, 0.000000000000000000, 1.000000000000000000 ) ) ;
#51 = ORIENTED_EDGE ( 'NONE', *, *, #422, .F. ) ;
#52 = SURFACE_STYLE_USAGE ( .BOTH. , #419 ) ;
#53 = CARTESIAN_POINT ( 'NONE',  ( 0.000000000000000000, 0.000000000000000000, -14.29999999999998472 ) ) ;
#54 = AXIS2_PLACEMENT_3D ( 'NONE', #544, #551, #488 ) ;
#55 = ORIENTED_EDGE ( 'NONE', *, *, #12, .F. ) ;
#56 = EDGE_CURVE ( 'NONE', #598, #251, #373, .T. ) ;
#57 = CARTESIAN_POINT ( 'NONE',  ( 5.000000000000000000, 3.316624790355402919, 0.000000000000000000 ) ) ;
#58 = ORIENTED_EDGE ( 'NONE', *, *, #688, .T. ) ;
#59 = PRODUCT_DEFINITION_SHAPE ( 'NONE', 'NONE',  #245 ) ;
#60 = FACE_OUTER_BOUND ( 'NONE', #303, .T. ) ;
#61 = ORIENTED_EDGE ( 'NONE', *, *, #281, .F. ) ;
#62 = ADVANCED_FACE ( 'NONE', ( #60 ), #300, .T. ) ;
#63 = CARTESIAN_POINT ( 'NONE',  ( 0.000000000000000000, 0.000000000000000000, 0.000000000000000000 ) ) ;
#64 = AXIS2_PLACEMENT_3D ( 'NONE', #718, #358, #541 ) ;
#65 = ORIENTED_EDGE ( 'NONE', *, *, #34, .T. ) ;
#66 = AXIS2_PLACEMENT_3D ( 'NONE', #586, #765, #225 ) ;
#67 = PRODUCT_DEFINITION_FORMATION_WITH_SPECIFIED_SOURCE ( 'ANY', '', #133, .NOT_KNOWN. ) ;
#68 = CARTESIAN_POINT ( 'NONE',  ( -4.000000000000000000, 0.000000000000000000, 0.000000000000000000 ) ) ;
#69 = CARTESIAN_POINT ( 'NONE',  ( 6.000000000000001776, 7.347880794884121708E-16, -19.00000000000000000 ) ) ;
#70 = ADVANCED_FACE ( 'NONE', ( #243 ), #1, .T. ) ;
#71 = ORIENTED_EDGE ( 'NONE', *, *, #618, .F. ) ;
#72 = CARTESIAN_POINT ( 'NONE',  ( 6.000000000000001776, 7.347880794884121708E-16, 0.000000000000000000 ) ) ;
#73 = DIRECTION ( 'NONE',  ( 0.000000000000000000, 0.000000000000000000, -1.000000000000000000 ) ) ;
#74 = VERTEX_POINT ( 'NONE', #69 ) ;
#75 = DIRECTION ( 'NONE',  ( -1.000000000000000000, 0.000000000000000000, 0.000000000000000000 ) ) ;
#76 = DIRECTION ( 'NONE',  ( -0.000000000000000000, -0.000000000000000000, -1.000000000000000000 ) ) ;
#77 = ORIENTED_EDGE ( 'NONE', *, *, #595, .T. ) ;
#78 = VECTOR ( 'NONE', #49, 1000.000000000000000 ) ;
#79 = CIRCLE ( 'NONE', #109, 3.175735931288071523 ) ;
#80 = FACE_OUTER_BOUND ( 'NONE', #106, .T. ) ;
#81 = COLOUR_RGB ( '',0.6470588235294117974, 0.6196078431372549211, 0.5882352941176470784 ) ;
#82 = DIRECTION ( 'NONE',  ( -1.445602896647339903E-16, 0.000000000000000000, -1.000000000000000000 ) ) ;
#83 = ORIENTED_EDGE ( 'NONE', *, *, #699, .T. ) ;
#84 = CARTESIAN_POINT ( 'NONE',  ( 3.600000000000000089, 0.000000000000000000, -13.40000000000000036 ) ) ;
#85 = ORIENTED_EDGE ( 'NONE', *, *, #369, .F. ) ;
#86 = FILL_AREA_STYLE ('',( #385 ) ) ;
#87 =( NAMED_UNIT ( * ) SI_UNIT ( $, .STERADIAN. ) SOLID_ANGLE_UNIT ( ) );
#88 = DIRECTION ( 'NONE',  ( 1.000000000000000000, 0.000000000000000000, 0.000000000000000000 ) ) ;
#89 = EDGE_CURVE ( 'NONE', #433, #753, #546, .T. ) ;
#90 = ORIENTED_EDGE ( 'NONE', *, *, #557, .T. ) ;
#91 = AXIS2_PLACEMENT_3D ( 'NONE', #616, #483, #732 ) ;
#92 = CARTESIAN_POINT ( 'NONE',  ( 5.000000000000000000, 3.316624790355402919, -24.99999999999999645 ) ) ;
#93 = AXIS2_PLACEMENT_3D ( 'NONE', #493, #434, #615 ) ;
#94 =( GEOMETRIC_REPRESENTATION_CONTEXT ( 3 ) GLOBAL_UNCERTAINTY_ASSIGNED_CONTEXT ( ( #587 ) ) GLOBAL_UNIT_ASSIGNED_CONTEXT ( ( #152, #567, #87 ) ) REPRESENTATION_CONTEXT ( 'NONE', 'WORKASPACE' ) );
#95 = CARTESIAN_POINT ( 'NONE',  ( 6.000000000000001776, 7.347880794884121708E-16, 0.000000000000000000 ) ) ;
#96 = UNCERTAINTY_MEASURE_WITH_UNIT (LENGTH_MEASURE( 1.000000000000000082E-05 ), #169, 'distance_accuracy_value', 'NONE');
#97 = EDGE_LOOP ( 'NONE', ( #154, #15 ) ) ;
#98 = CARTESIAN_POINT ( 'NONE',  ( 0.000000000000000000, 0.000000000000000000, 0.000000000000000000 ) ) ;
#99 = DIRECTION ( 'NONE',  ( -1.000000000000000000, -1.224646799147353207E-16, 0.000000000000000000 ) ) ;
#100 = DIRECTION ( 'NONE',  ( -0.000000000000000000, -0.000000000000000000, -1.000000000000000000 ) ) ;
#101 = ORIENTED_EDGE ( 'NONE', *, *, #431, .F. ) ;
#102 = DIRECTION ( 'NONE',  ( -1.000000000000000000, 0.000000000000000000, -0.000000000000000000 ) ) ;
#103 = EDGE_CURVE ( 'NONE', #516, #276, #761, .T. ) ;
#104 = LINE ( 'NONE', #274, #111 ) ;
#105 = CARTESIAN_POINT ( 'NONE',  ( -3.600000000000000089, 0.000000000000000000, -10.74852813742385749 ) ) ;
#106 = EDGE_LOOP ( 'NONE', ( #711, #340, #349, #61 ) ) ;
#107 = PRODUCT_RELATED_PRODUCT_CATEGORY ( 'part', '', ( #133 ) ) ;
#108 = VECTOR ( 'NONE', #186, 1000.000000000000000 ) ;
#109 = AXIS2_PLACEMENT_3D ( 'NONE', #23, #262, #506 ) ;
#110 = FACE_OUTER_BOUND ( 'NONE', #476, .T. ) ;
#111 = VECTOR ( 'NONE', #329, 1000.000000000000000 ) ;
#112 = ORIENTED_EDGE ( 'NONE', *, *, #379, .F. ) ;
#113 = DIRECTION ( 'NONE',  ( 1.000000000000000000, 0.000000000000000000, 0.000000000000000000 ) ) ;
#114 = ORIENTED_EDGE ( 'NONE', *, *, #538, .F. ) ;
#115 = FILL_AREA_STYLE ('',( #470 ) ) ;
#116 = ADVANCED_BREP_SHAPE_REPRESENTATION ( '202500614-10106P01', ( #713, #751 ), #94 ) ;
#117 = DIRECTION ( 'NONE',  ( -0.000000000000000000, -0.000000000000000000, -1.000000000000000000 ) ) ;
#118 = ORIENTED_EDGE ( 'NONE', *, *, #622, .F. ) ;
#119 = EDGE_CURVE ( 'NONE', #228, #193, #607, .T. ) ;
#120 = DIRECTION ( 'NONE',  ( 1.000000000000000000, 0.000000000000000000, 0.000000000000000000 ) ) ;
#121 = AXIS2_PLACEMENT_3D ( 'NONE', #319, #21, #741 ) ;
#122 = CARTESIAN_POINT ( 'NONE',  ( -4.000000000000000000, 0.000000000000000000, -9.500000000000001776 ) ) ;
#123 = EDGE_CURVE ( 'NONE', #293, #681, #449, .T. ) ;
#124 = ORIENTED_EDGE ( 'NONE', *, *, #643, .F. ) ;
#125 = CARTESIAN_POINT ( 'NONE',  ( 0.000000000000000000, 0.000000000000000000, -14.29999999999998472 ) ) ;
#126 = ORIENTED_EDGE ( 'NONE', *, *, #231, .T. ) ;
#127 = EDGE_CURVE ( 'NONE', #74, #378, #396, .T. ) ;
#128 = DIRECTION ( 'NONE',  ( -0.000000000000000000, 1.000000000000000000, -0.000000000000000000 ) ) ;
#129 = ORIENTED_EDGE ( 'NONE', *, *, #181, .F. ) ;
#130 = DIRECTION ( 'NONE',  ( 0.000000000000000000, 0.000000000000000000, 1.000000000000000000 ) ) ;
#131 = AXIS2_PLACEMENT_3D ( 'NONE', #426, #370, #781 ) ;
#132 = DIRECTION ( 'NONE',  ( -0.000000000000000000, -0.000000000000000000, -1.000000000000000000 ) ) ;
#133 = PRODUCT ( '202500614-10106P01', '202500614-10106P01', '', ( #474 ) ) ;
#134 = CIRCLE ( 'NONE', #559, 5.700000000000009948 ) ;
#135 = DIRECTION ( 'NONE',  ( -0.000000000000000000, -0.000000000000000000, -1.000000000000000000 ) ) ;
#136 = CARTESIAN_POINT ( 'NONE',  ( -6.000000000000001776, 0.000000000000000000, -14.29999999999998472 ) ) ;
#137 = EDGE_LOOP ( 'NONE', ( #7, #545, #71, #284, #423, #472, #101, #621, #579, #658, #55, #438 ) ) ;
#138 = CARTESIAN_POINT ( 'NONE',  ( 6.000000000000001776, 7.347880794884121708E-16, -14.29999999999998472 ) ) ;
#139 = PLANE ( 'NONE',  #16 ) ;
#140 = ORIENTED_EDGE ( 'NONE', *, *, #103, .F. ) ;
#141 = EDGE_CURVE ( 'NONE', #492, #733, #588, .T. ) ;
#142 = CARTESIAN_POINT ( 'NONE',  ( 5.000000000000000000, -3.316624790355402919, 0.000000000000000000 ) ) ;
#143 = CARTESIAN_POINT ( 'NONE',  ( -4.999999999999996447, 3.316624790355408248, 7.228014483236694583E-16 ) ) ;
#144 = VERTEX_POINT ( 'NONE', #192 ) ;
#145 = VECTOR ( 'NONE', #163, 1000.000000000000000 ) ;
#146 = DIRECTION ( 'NONE',  ( -1.000000000000000000, 0.000000000000000000, 0.000000000000000000 ) ) ;
#147 = VECTOR ( 'NONE', #219, 1000.000000000000000 ) ;
#148 = CARTESIAN_POINT ( 'NONE',  ( 5.000000000000000000, 3.316624790355402919, -19.00000000000000000 ) ) ;
#149 = VERTEX_POINT ( 'NONE', #10 ) ;
#150 = CARTESIAN_POINT ( 'NONE',  ( 0.000000000000000000, 0.000000000000000000, -50.00000000000000000 ) ) ;
#151 = ADVANCED_FACE ( 'NONE', ( #247 ), #171, .T. ) ;
#152 =( LENGTH_UNIT ( ) NAMED_UNIT ( * ) SI_UNIT ( .MILLI., .METRE. ) );
#153 = FACE_OUTER_BOUND ( 'NONE', #755, .T. ) ;
#154 = ORIENTED_EDGE ( 'NONE', *, *, #731, .T. ) ;
#155 = LINE ( 'NONE', #403, #147 ) ;
#156 = DIRECTION ( 'NONE',  ( -0.000000000000000000, -0.000000000000000000, -1.000000000000000000 ) ) ;
#157 = CARTESIAN_POINT ( 'NONE',  ( -8.000000000000000000, -6.000000000000001776, -24.99999999999999645 ) ) ;
#158 = VERTEX_POINT ( 'NONE', #304 ) ;
#159 = CIRCLE ( 'NONE', #355, 4.000000000000000000 ) ;
#160 = DIRECTION ( 'NONE',  ( 1.000000000000000000, 0.000000000000000000, 0.000000000000000000 ) ) ;
#161 = PRESENTATION_LAYER_ASSIGNMENT (  '', '', ( #662 ) ) ;
#162 = COLOUR_RGB ( '',0.6470588235294117974, 0.6196078431372549211, 0.5882352941176470784 ) ;
#163 = DIRECTION ( 'NONE',  ( 0.7071067811865484609, 0.000000000000000000, 0.7071067811865465735 ) ) ;
#164 = EDGE_LOOP ( 'NONE', ( #542, #65, #37, #371 ) ) ;
#165 = EDGE_CURVE ( 'NONE', #681, #293, #462, .T. ) ;
#166 = CARTESIAN_POINT ( 'NONE',  ( 0.000000000000000000, 0.000000000000000000, -19.00000000000000000 ) ) ;
#167 = CARTESIAN_POINT ( 'NONE',  ( 5.700000000000009948, 7.164183775012023325E-16, -14.00000000000000000 ) ) ;
#168 = DIRECTION ( 'NONE',  ( 1.000000000000000000, 0.000000000000000000, 0.000000000000000000 ) ) ;
#169 =( LENGTH_UNIT ( ) NAMED_UNIT ( * ) SI_UNIT ( .MILLI., .METRE. ) );
#170 = ORIENTED_EDGE ( 'NONE', *, *, #543, .T. ) ;
#171 = CONICAL_SURFACE ( 'NONE', #54, 3.000000000000000000, 0.7853981633974496113 ) ;
#172 = SHAPE_DEFINITION_REPRESENTATION ( #59, #116 ) ;
#173 = PRESENTATION_STYLE_ASSIGNMENT (( #479 ) ) ;
#174 = VECTOR ( 'NONE', #638, 1000.000000000000000 ) ;
#175 = DIRECTION ( 'NONE',  ( -1.000000000000000000, 1.776356839400250465E-15, 0.000000000000000000 ) ) ;
#176 = ADVANCED_FACE ( 'NONE', ( #182 ), #709, .T. ) ;
#177 = FACE_OUTER_BOUND ( 'NONE', #456, .T. ) ;
#178 = ORIENTED_EDGE ( 'NONE', *, *, #89, .F. ) ;
#179 = FILL_AREA_STYLE ('',( #652 ) ) ;
#180 = DIRECTION ( 'NONE',  ( 1.000000000000000000, 0.000000000000000000, 0.000000000000000000 ) ) ;
#181 = EDGE_CURVE ( 'NONE', #28, #753, #674, .T. ) ;
#182 = FACE_OUTER_BOUND ( 'NONE', #261, .T. ) ;
#183 = VERTEX_POINT ( 'NONE', #659 ) ;
#184 = VECTOR ( 'NONE', #631, 1000.000000000000114 ) ;
#185 = AXIS2_PLACEMENT_3D ( 'NONE', #521, #639, #467 ) ;
#186 = DIRECTION ( 'NONE',  ( 0.000000000000000000, 0.000000000000000000, 1.000000000000000000 ) ) ;
#187 = AXIS2_PLACEMENT_3D ( 'NONE', #30, #102, #341 ) ;
#188 = VERTEX_POINT ( 'NONE', #122 ) ;
#189 = ADVANCED_FACE ( 'NONE', ( #363 ), #297, .F. ) ;
#190 = DIRECTION ( 'NONE',  ( -0.000000000000000000, -0.000000000000000000, -1.000000000000000000 ) ) ;
#191 = ORIENTED_EDGE ( 'NONE', *, *, #395, .F. ) ;
#192 = CARTESIAN_POINT ( 'NONE',  ( 3.175735931288071523, 0.000000000000000000, -10.32426406871192803 ) ) ;
#193 = VERTEX_POINT ( 'NONE', #783 ) ;
#194 = PLANE ( 'NONE',  #367 ) ;
#195 = DIRECTION ( 'NONE',  ( 1.000000000000000000, 0.000000000000000000, 0.000000000000000000 ) ) ;
#196 = AXIS2_PLACEMENT_3D ( 'NONE', #758, #334, #578 ) ;
#197 = EDGE_LOOP ( 'NONE', ( #508, #266, #397 ) ) ;
#198 = CARTESIAN_POINT ( 'NONE',  ( 0.000000000000000000, 0.000000000000000000, -0.9999999999999974465 ) ) ;
#199 = EDGE_CURVE ( 'NONE', #753, #433, #424, .T. ) ;
#200 = DIRECTION ( 'NONE',  ( 0.000000000000000000, -1.000000000000000000, 0.000000000000000000 ) ) ;
#201 = UNCERTAINTY_MEASURE_WITH_UNIT (LENGTH_MEASURE( 1.000000000000000082E-05 ), #457, 'distance_accuracy_value', 'NONE');
#202 = ORIENTED_EDGE ( 'NONE', *, *, #576, .F. ) ;
#203 = DIRECTION ( 'NONE',  ( -0.000000000000000000, -0.000000000000000000, 1.000000000000000000 ) ) ;
#204 = ADVANCED_FACE ( 'NONE', ( #564 ), #139, .F. ) ;
#205 = ORIENTED_EDGE ( 'NONE', *, *, #374, .F. ) ;
#206 = CYLINDRICAL_SURFACE ( 'NONE', #288, 4.000000000000000000 ) ;
#207 = CARTESIAN_POINT ( 'NONE',  ( -4.999999999999999112, 3.316624790355404695, -19.00000000000000000 ) ) ;
#208 = DIRECTION ( 'NONE',  ( -0.000000000000000000, -0.000000000000000000, -1.000000000000000000 ) ) ;
#209 = ORIENTED_EDGE ( 'NONE', *, *, #123, .F. ) ;
#210 = VECTOR ( 'NONE', #345, 1000.000000000000000 ) ;
#211 = AXIS2_PLACEMENT_3D ( 'NONE', #745, #311, #417 ) ;
#212 = EDGE_CURVE ( 'NONE', #335, #598, #571, .T. ) ;
#213 = STYLED_ITEM ( 'NONE', ( #768 ), #116 ) ;
#214 = CARTESIAN_POINT ( 'NONE',  ( -3.600000000000000089, 4.408728476930471151E-16, -14.00000000000000000 ) ) ;
#215 = ORIENTED_EDGE ( 'NONE', *, *, #56, .T. ) ;
#216 = LINE ( 'NONE', #513, #348 ) ;
#217 = CARTESIAN_POINT ( 'NONE',  ( 3.000000000000000000, 3.673940397442059868E-16, -10.74852813742385749 ) ) ;
#218 = ORIENTED_EDGE ( 'NONE', *, *, #490, .T. ) ;
#219 = DIRECTION ( 'NONE',  ( -0.7071067811865484609, 8.659560562354943952E-17, 0.7071067811865465735 ) ) ;
#220 = LINE ( 'NONE', #230, #78 ) ;
#221 = VECTOR ( 'NONE', #208, 1000.000000000000000 ) ;
#222 = CIRCLE ( 'NONE', #612, 4.000000000000000000 ) ;
#223 =( GEOMETRIC_REPRESENTATION_CONTEXT ( 3 ) GLOBAL_UNCERTAINTY_ASSIGNED_CONTEXT ( ( #201 ) ) GLOBAL_UNIT_ASSIGNED_CONTEXT ( ( #457, #272, #328 ) ) REPRESENTATION_CONTEXT ( 'NONE', 'WORKASPACE' ) );
#224 = CARTESIAN_POINT ( 'NONE',  ( -6.000000000000001776, 0.000000000000000000, -14.29999999999998472 ) ) ;
#225 = DIRECTION ( 'NONE',  ( 1.000000000000000000, 0.000000000000000000, 0.000000000000000000 ) ) ;
#226 = ORIENTED_EDGE ( 'NONE', *, *, #20, .T. ) ;
#227 = DIRECTION ( 'NONE',  ( -1.000000000000000000, 0.000000000000000000, 0.000000000000000000 ) ) ;
#228 = VERTEX_POINT ( 'NONE', #752 ) ;
#229 = SURFACE_STYLE_FILL_AREA ( #471 ) ;
#230 = CARTESIAN_POINT ( 'NONE',  ( 3.000000000000000000, 3.673940397442059868E-16, 0.000000000000000000 ) ) ;
#231 = EDGE_CURVE ( 'NONE', #681, #492, #260, .T. ) ;
#232 = AXIS2_PLACEMENT_3D ( 'NONE', #24, #203, #444 ) ;
#233 = CIRCLE ( 'NONE', #764, 2.999999999999988898 ) ;
#234 = COLOUR_RGB ( '',0.6470588235294117974, 0.6196078431372549211, 0.5882352941176470784 ) ;
#235 = CARTESIAN_POINT ( 'NONE',  ( 4.000000000000000000, 4.898587196589412829E-16, -9.500000000000001776 ) ) ;
#236 = VERTEX_POINT ( 'NONE', #32 ) ;
#237 = DIRECTION ( 'NONE',  ( 0.000000000000000000, 0.000000000000000000, 1.000000000000000000 ) ) ;
#238 = DIRECTION ( 'NONE',  ( 1.000000000000000000, 0.000000000000000000, 0.000000000000000000 ) ) ;
#239 = ADVANCED_FACE ( 'NONE', ( #620 ), #558, .F. ) ;
#240 = CARTESIAN_POINT ( 'NONE',  ( 0.000000000000000000, 0.000000000000000000, -13.40000000000000036 ) ) ;
#241 = ORIENTED_EDGE ( 'NONE', *, *, #427, .F. ) ;
#242 = AXIS2_PLACEMENT_3D ( 'NONE', #496, #597, #717 ) ;
#243 = FACE_OUTER_BOUND ( 'NONE', #164, .T. ) ;
#244 = AXIS2_PLACEMENT_3D ( 'NONE', #749, #754, #687 ) ;
#245 = PRODUCT_DEFINITION ( 'UNKNOWN', '', #67, #445 ) ;
#246 = ORIENTED_EDGE ( 'NONE', *, *, #688, .F. ) ;
#247 = FACE_OUTER_BOUND ( 'NONE', #569, .T. ) ;
#248 = ORIENTED_EDGE ( 'NONE', *, *, #8, .F. ) ;
#249 = CARTESIAN_POINT ( 'NONE',  ( 3.600000000000000089, 0.000000000000000000, -14.00000000000000000 ) ) ;
#250 = DIRECTION ( 'NONE',  ( -1.000000000000000000, 0.000000000000000000, 0.000000000000000000 ) ) ;
#251 = VERTEX_POINT ( 'NONE', #148 ) ;
#252 = DIRECTION ( 'NONE',  ( 0.000000000000000000, 0.000000000000000000, 1.000000000000000000 ) ) ;
#253 = ADVANCED_FACE ( 'NONE', ( #264 ), #326, .T. ) ;
#254 = CIRCLE ( 'NONE', #599, 6.000000000000001776 ) ;
#255 = CARTESIAN_POINT ( 'NONE',  ( 0.000000000000000000, 0.000000000000000000, -13.40000000000000036 ) ) ;
#256 = CIRCLE ( 'NONE', #196, 4.000000000000000000 ) ;
#257 = ORIENTED_EDGE ( 'NONE', *, *, #127, .T. ) ;
#258 = CARTESIAN_POINT ( 'NONE',  ( -3.175735931288071523, 4.393871019889294177E-16, -10.32426406871192803 ) ) ;
#259 = EDGE_CURVE ( 'NONE', #748, #193, #685, .T. ) ;
#260 = LINE ( 'NONE', #394, #671 ) ;
#261 = EDGE_LOOP ( 'NONE', ( #391, #416, #90 ) ) ;
#262 = DIRECTION ( 'NONE',  ( 0.000000000000000000, 0.000000000000000000, 1.000000000000000000 ) ) ;
#263 = LINE ( 'NONE', #746, #174 ) ;
#264 = FACE_OUTER_BOUND ( 'NONE', #767, .T. ) ;
#265 = ADVANCED_FACE ( 'NONE', ( #382 ), #776, .F. ) ;
#266 = ORIENTED_EDGE ( 'NONE', *, *, #538, .T. ) ;
#267 = CARTESIAN_POINT ( 'NONE',  ( 0.000000000000000000, 0.000000000000000000, 0.000000000000000000 ) ) ;
#268 = DIRECTION ( 'NONE',  ( 0.000000000000000000, 0.000000000000000000, -1.000000000000000000 ) ) ;
#269 = AXIS2_PLACEMENT_3D ( 'NONE', #40, #46, #168 ) ;
#270 = ORIENTED_EDGE ( 'NONE', *, *, #518, .F. ) ;
#271 = CONICAL_SURFACE ( 'NONE', #464, 4.000000000000000000, 0.7853981633974552734 ) ;
#272 =( NAMED_UNIT ( * ) PLANE_ANGLE_UNIT ( ) SI_UNIT ( $, .RADIAN. ) );
#273 = AXIS2_PLACEMENT_3D ( 'NONE', #98, #337, #325 ) ;
#274 = CARTESIAN_POINT ( 'NONE',  ( -6.000000000000001776, 0.000000000000000000, 0.000000000000000000 ) ) ;
#275 = CARTESIAN_POINT ( 'NONE',  ( 0.000000000000000000, 0.000000000000000000, -0.9999999999999974465 ) ) ;
#276 = VERTEX_POINT ( 'NONE', #214 ) ;
#277 = FACE_OUTER_BOUND ( 'NONE', #331, .T. ) ;
#278 = LINE ( 'NONE', #461, #145 ) ;
#279 = ORIENTED_EDGE ( 'NONE', *, *, #520, .F. ) ;
#280 = SURFACE_SIDE_STYLE ('',( #389 ) ) ;
#281 = EDGE_CURVE ( 'NONE', #183, #690, #159, .T. ) ;
#282 = DIRECTION ( 'NONE',  ( -1.224646799147353207E-16, 1.000000000000000000, 0.000000000000000000 ) ) ;
#283 = LINE ( 'NONE', #292, #723 ) ;
#284 = ORIENTED_EDGE ( 'NONE', *, *, #56, .F. ) ;
#285 = AXIS2_PLACEMENT_3D ( 'NONE', #157, #73, #554 ) ;
#286 = CARTESIAN_POINT ( 'NONE',  ( -4.000000000000000000, 0.000000000000000000, -0.9999999999999974465 ) ) ;
#287 = CONICAL_SURFACE ( 'NONE', #487, 999.9999999999889724, 0.7853981633974428389 ) ;
#288 = AXIS2_PLACEMENT_3D ( 'NONE', #756, #447, #146 ) ;
#289 =( NAMED_UNIT ( * ) SI_UNIT ( $, .STERADIAN. ) SOLID_ANGLE_UNIT ( ) );
#290 = CARTESIAN_POINT ( 'NONE',  ( 5.000000000000000000, -3.316624790355402919, -19.00000000000000000 ) ) ;
#291 = ORIENTED_EDGE ( 'NONE', *, *, #600, .F. ) ;
#292 = CARTESIAN_POINT ( 'NONE',  ( 5.000000000000000000, -6.000000000000001776, -24.99999999999999645 ) ) ;
#293 = VERTEX_POINT ( 'NONE', #217 ) ;
#294 = EDGE_CURVE ( 'NONE', #605, #354, #387, .T. ) ;
#295 = CARTESIAN_POINT ( 'NONE',  ( 0.000000000000000000, 0.000000000000000000, -14.00000000000000000 ) ) ;
#296 = ORIENTED_EDGE ( 'NONE', *, *, #427, .T. ) ;
#297 = TOROIDAL_SURFACE ( 'NONE', #381, 3.600000000000000089, 0.5999999999999999778 ) ;
#298 = VECTOR ( 'NONE', #633, 1000.000000000000114 ) ;
#299 = CARTESIAN_POINT ( 'NONE',  ( -3.000000000000000000, 0.000000000000000000, -13.40000000000000036 ) ) ;
#300 = CYLINDRICAL_SURFACE ( 'NONE', #131, 3.000000000000000000 ) ;
#301 = EDGE_CURVE ( 'NONE', #733, #516, #660, .T. ) ;
#302 = DIRECTION ( 'NONE',  ( 0.000000000000000000, 0.000000000000000000, 1.000000000000000000 ) ) ;
#303 = EDGE_LOOP ( 'NONE', ( #11, #316, #126, #310 ) ) ;
#304 = CARTESIAN_POINT ( 'NONE',  ( -6.000000000000001776, 0.000000000000000000, -19.00000000000000000 ) ) ;
#305 = VERTEX_POINT ( 'NONE', #455 ) ;
#306 = VECTOR ( 'NONE', #759, 1000.000000000000000 ) ;
#307 = CONICAL_SURFACE ( 'NONE', #750, 6.000000000000001776, 0.7853981633974612686 ) ;
#308 = DIRECTION ( 'NONE',  ( 1.000000000000000000, 0.000000000000000000, 0.000000000000000000 ) ) ;
#309 =( GEOMETRIC_REPRESENTATION_CONTEXT ( 3 ) GLOBAL_UNCERTAINTY_ASSIGNED_CONTEXT ( ( #743 ) ) GLOBAL_UNIT_ASSIGNED_CONTEXT ( ( #707, #539, #289 ) ) REPRESENTATION_CONTEXT ( 'NONE', 'WORKASPACE' ) );
#310 = ORIENTED_EDGE ( 'NONE', *, *, #141, .T. ) ;
#311 = DIRECTION ( 'NONE',  ( -0.000000000000000000, -0.000000000000000000, -1.000000000000000000 ) ) ;
#312 = DIRECTION ( 'NONE',  ( 0.000000000000000000, 0.000000000000000000, 1.000000000000000000 ) ) ;
#313 = ADVANCED_FACE ( 'NONE', ( #153 ), #390, .F. ) ;
#314 = DIRECTION ( 'NONE',  ( -1.000000000000000000, 0.000000000000000000, 0.000000000000000000 ) ) ;
#315 = CARTESIAN_POINT ( 'NONE',  ( -5.000000000000000000, -6.000000000000001776, -24.99999999999999645 ) ) ;
#316 = ORIENTED_EDGE ( 'NONE', *, *, #123, .T. ) ;
#317 = DIRECTION ( 'NONE',  ( -1.000000000000000000, 0.000000000000000000, 0.000000000000000000 ) ) ;
#318 = AXIS2_PLACEMENT_3D ( 'NONE', #84, #200, #268 ) ;
#319 = CARTESIAN_POINT ( 'NONE',  ( 0.000000000000000000, 0.000000000000000000, -14.29999999999998472 ) ) ;
#320 = AXIS2_PLACEMENT_3D ( 'NONE', #475, #351, #227 ) ;
#321 = ORIENTED_EDGE ( 'NONE', *, *, #301, .F. ) ;
#322 = DIRECTION ( 'NONE',  ( 0.000000000000000000, 0.000000000000000000, 1.000000000000000000 ) ) ;
#323 = ADVANCED_FACE ( 'NONE', ( #459 ), #574, .F. ) ;
#324 = VERTEX_POINT ( 'NONE', #560 ) ;
#325 = DIRECTION ( 'NONE',  ( -1.000000000000000000, 0.000000000000000000, 0.000000000000000000 ) ) ;
#326 = CYLINDRICAL_SURFACE ( 'NONE', #695, 6.000000000000001776 ) ;
#327 = EDGE_LOOP ( 'NONE', ( #401, #3, #784, #561 ) ) ;
#328 =( NAMED_UNIT ( * ) SI_UNIT ( $, .STERADIAN. ) SOLID_ANGLE_UNIT ( ) );
#329 = DIRECTION ( 'NONE',  ( -0.000000000000000000, -0.000000000000000000, -1.000000000000000000 ) ) ;
#330 = CARTESIAN_POINT ( 'NONE',  ( 0.000000000000000000, 0.000000000000000000, -10.74852813742385749 ) ) ;
#331 = EDGE_LOOP ( 'NONE', ( #661, #706, #270, #505 ) ) ;
#332 = CIRCLE ( 'NONE', #93, 0.5999999999999998668 ) ;
#333 = LINE ( 'NONE', #526, #591 ) ;
#334 = DIRECTION ( 'NONE',  ( -0.000000000000000000, -0.000000000000000000, -1.000000000000000000 ) ) ;
#335 = VERTEX_POINT ( 'NONE', #14 ) ;
#336 = EDGE_CURVE ( 'NONE', #733, #492, #721, .T. ) ;
#337 = DIRECTION ( 'NONE',  ( -0.000000000000000000, -0.000000000000000000, -1.000000000000000000 ) ) ;
#338 = DIRECTION ( 'NONE',  ( 0.000000000000000000, 0.000000000000000000, 1.000000000000000000 ) ) ;
#339 = CARTESIAN_POINT ( 'NONE',  ( 0.000000000000000000, 0.000000000000000000, -43.99999999999993605 ) ) ;
#340 = ORIENTED_EDGE ( 'NONE', *, *, #731, .F. ) ;
#341 = DIRECTION ( 'NONE',  ( -0.000000000000000000, 0.000000000000000000, 1.000000000000000000 ) ) ;
#342 = ADVANCED_FACE ( 'NONE', ( #377 ), #498, .T. ) ;
#343 = CARTESIAN_POINT ( 'NONE',  ( -6.000000000000001776, 0.000000000000000000, 0.000000000000000000 ) ) ;
#344 = FACE_BOUND ( 'NONE', #22, .T. ) ;
#345 = DIRECTION ( 'NONE',  ( 0.7071067811865524577, 8.659560562354993255E-17, -0.7071067811865426878 ) ) ;
#346 = CIRCLE ( 'NONE', #535, 0.5999999999999998668 ) ;
#347 = AXIS2_PLACEMENT_3D ( 'NONE', #623, #657, #314 ) ;
#348 = VECTOR ( 'NONE', #702, 1000.000000000000000 ) ;
#349 = ORIENTED_EDGE ( 'NONE', *, *, #606, .T. ) ;
#350 =( NAMED_UNIT ( * ) PLANE_ANGLE_UNIT ( ) SI_UNIT ( $, .RADIAN. ) );
#351 = DIRECTION ( 'NONE',  ( -0.000000000000000000, -0.000000000000000000, -1.000000000000000000 ) ) ;
#352 = LINE ( 'NONE', #583, #306 ) ;
#353 = FACE_OUTER_BOUND ( 'NONE', #636, .T. ) ;
#354 = VERTEX_POINT ( 'NONE', #708 ) ;
#355 = AXIS2_PLACEMENT_3D ( 'NONE', #275, #76, #88 ) ;
#356 = VECTOR ( 'NONE', #439, 1000.000000000000000 ) ;
#357 = SURFACE_SIDE_STYLE ('',( #531 ) ) ;
#358 = DIRECTION ( 'NONE',  ( -0.000000000000000000, -0.000000000000000000, -1.000000000000000000 ) ) ;
#359 = VERTEX_POINT ( 'NONE', #167 ) ;
#360 = EDGE_CURVE ( 'NONE', #681, #446, #346, .T. ) ;
#361 = CARTESIAN_POINT ( 'NONE',  ( 5.000000000000000000, -6.000000000000001776, -19.00000000000000000 ) ) ;
#362 = VERTEX_POINT ( 'NONE', #235 ) ;
#363 = FACE_OUTER_BOUND ( 'NONE', #555, .T. ) ;
#364 = ORIENTED_EDGE ( 'NONE', *, *, #742, .F. ) ;
#365 = DIRECTION ( 'NONE',  ( 1.000000000000000000, 0.000000000000000000, -0.000000000000000000 ) ) ;
#366 = VECTOR ( 'NONE', #421, 1000.000000000000000 ) ;
#367 = AXIS2_PLACEMENT_3D ( 'NONE', #420, #130, #365 ) ;
#368 = CIRCLE ( 'NONE', #347, 6.000000000000001776 ) ;
#369 = EDGE_CURVE ( 'NONE', #28, #359, #412, .T. ) ;
#370 = DIRECTION ( 'NONE',  ( -0.000000000000000000, -0.000000000000000000, -1.000000000000000000 ) ) ;
#371 = ORIENTED_EDGE ( 'NONE', *, *, #231, .F. ) ;
#372 = DIRECTION ( 'NONE',  ( -0.000000000000000000, -0.000000000000000000, -1.000000000000000000 ) ) ;
#373 = LINE ( 'NONE', #57, #108 ) ;
#374 = EDGE_CURVE ( 'NONE', #433, #74, #36, .T. ) ;
#375 = ORIENTED_EDGE ( 'NONE', *, *, #127, .F. ) ;
#376 = FACE_OUTER_BOUND ( 'NONE', #383, .T. ) ;
#377 = FACE_OUTER_BOUND ( 'NONE', #665, .T. ) ;
#378 = VERTEX_POINT ( 'NONE', #290 ) ;
#379 = EDGE_CURVE ( 'NONE', #324, #598, #283, .T. ) ;
#380 = DIRECTION ( 'NONE',  ( -0.000000000000000000, -0.000000000000000000, -1.000000000000000000 ) ) ;
#381 = AXIS2_PLACEMENT_3D ( 'NONE', #240, #664, #485 ) ;
#382 = FACE_OUTER_BOUND ( 'NONE', #744, .T. ) ;
#383 = EDGE_LOOP ( 'NONE', ( #209, #675, #667, #632 ) ) ;
#384 = CIRCLE ( 'NONE', #602, 6.000000000000001776 ) ;
#385 = FILL_AREA_STYLE_COLOUR ( '', #162 ) ;
#386 = ADVANCED_FACE ( 'NONE', ( #344, #110 ), #529, .T. ) ;
#387 = LINE ( 'NONE', #27, #184 ) ;
#388 = ORIENTED_EDGE ( 'NONE', *, *, #782, .F. ) ;
#389 = SURFACE_STYLE_FILL_AREA ( #86 ) ;
#390 = PLANE ( 'NONE',  #624 ) ;
#391 = ORIENTED_EDGE ( 'NONE', *, *, #294, .F. ) ;
#392 = LINE ( 'NONE', #286, #735 ) ;
#393 = FACE_OUTER_BOUND ( 'NONE', #614, .T. ) ;
#394 = CARTESIAN_POINT ( 'NONE',  ( -3.000000000000000000, 0.000000000000000000, 0.000000000000000000 ) ) ;
#395 = EDGE_CURVE ( 'NONE', #519, #149, #233, .T. ) ;
#396 = CIRCLE ( 'NONE', #509, 6.000000000000001776 ) ;
#397 = ORIENTED_EDGE ( 'NONE', *, *, #119, .T. ) ;
#398 = AXIS2_PLACEMENT_3D ( 'NONE', #502, #117, #75 ) ;
#399 = DIRECTION ( 'NONE',  ( -0.000000000000000000, 0.000000000000000000, 1.000000000000000000 ) ) ;
#400 = DIRECTION ( 'NONE',  ( 0.000000000000000000, 0.000000000000000000, -1.000000000000000000 ) ) ;
#401 = ORIENTED_EDGE ( 'NONE', *, *, #407, .T. ) ;
#402 = ADVANCED_FACE ( 'NONE', ( #177 ), #415, .T. ) ;
#403 = CARTESIAN_POINT ( 'NONE',  ( -3.000000000000000000, 3.673940397442059868E-16, -10.49999999999999822 ) ) ;
#404 = CARTESIAN_POINT ( 'NONE',  ( 0.000000000000000000, 0.000000000000000000, -10.49999999999999822 ) ) ;
#405 = DIRECTION ( 'NONE',  ( 0.000000000000000000, -1.000000000000000000, 0.000000000000000000 ) ) ;
#406 = CARTESIAN_POINT ( 'NONE',  ( 4.000000000000000000, 4.898587196589412829E-16, -0.9999999999999974465 ) ) ;
#407 = EDGE_CURVE ( 'NONE', #228, #236, #48, .T. ) ;
#408 =( NAMED_UNIT ( * ) SI_UNIT ( $, .STERADIAN. ) SOLID_ANGLE_UNIT ( ) );
#409 = ORIENTED_EDGE ( 'NONE', *, *, #774, .T. ) ;
#410 = AXIS2_PLACEMENT_3D ( 'NONE', #63, #609, #432 ) ;
#411 = DIRECTION ( 'NONE',  ( 0.000000000000000000, 0.000000000000000000, 1.000000000000000000 ) ) ;
#412 = CIRCLE ( 'NONE', #66, 5.700000000000009948 ) ;
#413 = MECHANICAL_DESIGN_GEOMETRIC_PRESENTATION_REPRESENTATION (  '', ( #724 ), #223 ) ;
#414 = EDGE_CURVE ( 'NONE', #276, #516, #43, .T. ) ;
#415 = CYLINDRICAL_SURFACE ( 'NONE', #320, 4.000000000000000000 ) ;
#416 = ORIENTED_EDGE ( 'NONE', *, *, #600, .T. ) ;
#417 = DIRECTION ( 'NONE',  ( -1.000000000000000000, 0.000000000000000000, 0.000000000000000000 ) ) ;
#418 = ORIENTED_EDGE ( 'NONE', *, *, #414, .F. ) ;
#419 = SURFACE_SIDE_STYLE ('',( #656 ) ) ;
#420 = CARTESIAN_POINT ( 'NONE',  ( 0.000000000000000000, 0.000000000000000000, 0.000000000000000000 ) ) ;
#421 = DIRECTION ( 'NONE',  ( -0.7071067811865566766, 0.000000000000000000, -0.7071067811865383579 ) ) ;
#422 = EDGE_CURVE ( 'NONE', #362, #188, #256, .T. ) ;
#423 = ORIENTED_EDGE ( 'NONE', *, *, #212, .F. ) ;
#424 = CIRCLE ( 'NONE', #637, 6.000000000000001776 ) ;
#425 = AXIS2_PLACEMENT_3D ( 'NONE', #404, #338, #645 ) ;
#426 = CARTESIAN_POINT ( 'NONE',  ( 0.000000000000000000, 0.000000000000000000, 0.000000000000000000 ) ) ;
#427 = EDGE_CURVE ( 'NONE', #144, #362, #278, .T. ) ;
#428 = EDGE_LOOP ( 'NONE', ( #291, #678, #463 ) ) ;
#429 = DIRECTION ( 'NONE',  ( 1.000000000000000000, 0.000000000000000000, 0.000000000000000000 ) ) ;
#430 = ORIENTED_EDGE ( 'NONE', *, *, #165, .F. ) ;
#431 = EDGE_CURVE ( 'NONE', #354, #305, #683, .T. ) ;
#432 = DIRECTION ( 'NONE',  ( -1.000000000000000000, 0.000000000000000000, 0.000000000000000000 ) ) ;
#433 = VERTEX_POINT ( 'NONE', #138 ) ;
#434 = DIRECTION ( 'NONE',  ( 1.224646799147353207E-16, 1.000000000000000000, -0.000000000000000000 ) ) ;
#435 = AXIS2_PLACEMENT_3D ( 'NONE', #330, #450, #568 ) ;
#436 = COLOUR_RGB ( '',0.6470588235294117974, 0.6196078431372549211, 0.5882352941176470784 ) ;
#437 = CARTESIAN_POINT ( 'NONE',  ( 0.000000000000000000, 0.000000000000000000, -14.29999999999998472 ) ) ;
#438 = ORIENTED_EDGE ( 'NONE', *, *, #774, .F. ) ;
#439 = DIRECTION ( 'NONE',  ( -0.000000000000000000, -0.000000000000000000, -1.000000000000000000 ) ) ;
#440 = CARTESIAN_POINT ( 'NONE',  ( 5.000000000000000000, -6.000000000000001776, -24.99999999999999645 ) ) ;
#441 = EDGE_CURVE ( 'NONE', #690, #188, #443, .T. ) ;
#442 = ORIENTED_EDGE ( 'NONE', *, *, #595, .F. ) ;
#443 = LINE ( 'NONE', #68, #356 ) ;
#444 = DIRECTION ( 'NONE',  ( -1.000000000000000000, 0.000000000000000000, 0.000000000000000000 ) ) ;
#445 = PRODUCT_DEFINITION_CONTEXT ( 'detailed design', #725, 'design' ) ;
#446 = VERTEX_POINT ( 'NONE', #258 ) ;
#447 = DIRECTION ( 'NONE',  ( -0.000000000000000000, -0.000000000000000000, -1.000000000000000000 ) ) ;
#448 = CARTESIAN_POINT ( 'NONE',  ( 3.000000000000000000, 3.673940397442059868E-16, -13.40000000000000036 ) ) ;
#449 = CIRCLE ( 'NONE', #64, 3.000000000000000000 ) ;
#450 = DIRECTION ( 'NONE',  ( -0.000000000000000000, -0.000000000000000000, -1.000000000000000000 ) ) ;
#451 = VECTOR ( 'NONE', #380, 1000.000000000000000 ) ;
#452 = ORIENTED_EDGE ( 'NONE', *, *, #757, .T. ) ;
#453 = AXIS2_PLACEMENT_3D ( 'NONE', #763, #282, #99 ) ;
#454 = DIRECTION ( 'NONE',  ( -0.7071067811865524577, 0.000000000000000000, -0.7071067811865426878 ) ) ;
#455 = CARTESIAN_POINT ( 'NONE',  ( 6.000000000000001776, 7.347880794884121708E-16, -43.99999999999993605 ) ) ;
#456 = EDGE_LOOP ( 'NONE', ( #388, #704, #510, #51 ) ) ;
#457 =( LENGTH_UNIT ( ) NAMED_UNIT ( * ) SI_UNIT ( .MILLI., .METRE. ) );
#458 = ADVANCED_FACE ( 'NONE', ( #80 ), #696, .T. ) ;
#459 = FACE_OUTER_BOUND ( 'NONE', #197, .T. ) ;
#460 = ORIENTED_EDGE ( 'NONE', *, *, #503, .F. ) ;
#461 = CARTESIAN_POINT ( 'NONE',  ( 3.000000000000000000, 0.000000000000000000, -10.49999999999999822 ) ) ;
#462 = CIRCLE ( 'NONE', #610, 3.000000000000000000 ) ;
#463 = ORIENTED_EDGE ( 'NONE', *, *, #431, .T. ) ;
#464 = AXIS2_PLACEMENT_3D ( 'NONE', #679, #672, #317 ) ;
#465 = STYLED_ITEM ( 'NONE', ( #772 ), #713 ) ;
#466 = DIRECTION ( 'NONE',  ( 0.000000000000000000, -0.000000000000000000, -1.000000000000000000 ) ) ;
#467 = DIRECTION ( 'NONE',  ( 1.000000000000000000, 0.000000000000000000, -0.000000000000000000 ) ) ;
#468 = ORIENTED_EDGE ( 'NONE', *, *, #12, .T. ) ;
#469 = EDGE_CURVE ( 'NONE', #335, #305, #740, .T. ) ;
#470 = FILL_AREA_STYLE_COLOUR ( '', #234 ) ;
#471 = FILL_AREA_STYLE ('',( #654 ) ) ;
#472 = ORIENTED_EDGE ( 'NONE', *, *, #469, .T. ) ;
#473 = CARTESIAN_POINT ( 'NONE',  ( -6.000000000000001776, 0.000000000000000000, -24.99999999999999645 ) ) ;
#474 = PRODUCT_CONTEXT ( 'NONE', #634, 'mechanical' ) ;
#475 = CARTESIAN_POINT ( 'NONE',  ( 0.000000000000000000, 0.000000000000000000, 0.000000000000000000 ) ) ;
#476 = EDGE_LOOP ( 'NONE', ( #700, #218 ) ) ;
#477 = AXIS2_PLACEMENT_3D ( 'NONE', #361, #720, #308 ) ;
#478 =( GEOMETRIC_REPRESENTATION_CONTEXT ( 3 ) GLOBAL_UNCERTAINTY_ASSIGNED_CONTEXT ( ( #96 ) ) GLOBAL_UNIT_ASSIGNED_CONTEXT ( ( #169, #775, #408 ) ) REPRESENTATION_CONTEXT ( 'NONE', 'WORKASPACE' ) );
#479 = SURFACE_STYLE_USAGE ( .BOTH. , #705 ) ;
#480 = FACE_OUTER_BOUND ( 'NONE', #686, .T. ) ;
#481 = ADVANCED_FACE ( 'NONE', ( #376 ), #625, .F. ) ;
#482 = FACE_OUTER_BOUND ( 'NONE', #501, .T. ) ;
#483 = DIRECTION ( 'NONE',  ( -0.000000000000000000, -0.000000000000000000, -1.000000000000000000 ) ) ;
#484 = ADVANCED_FACE ( 'NONE', ( #482 ), #271, .T. ) ;
#485 = DIRECTION ( 'NONE',  ( 1.000000000000000000, 0.000000000000000000, 0.000000000000000000 ) ) ;
#486 = ORIENTED_EDGE ( 'NONE', *, *, #520, .T. ) ;
#487 = AXIS2_PLACEMENT_3D ( 'NONE', #13, #322, #18 ) ;
#488 = DIRECTION ( 'NONE',  ( 1.000000000000000000, 0.000000000000000000, 0.000000000000000000 ) ) ;
#489 = ORIENTED_EDGE ( 'NONE', *, *, #771, .T. ) ;
#490 = EDGE_CURVE ( 'NONE', #359, #28, #134, .T. ) ;
#491 = DIRECTION ( 'NONE',  ( -0.000000000000000000, -0.000000000000000000, -1.000000000000000000 ) ) ;
#492 = VERTEX_POINT ( 'NONE', #299 ) ;
#493 = CARTESIAN_POINT ( 'NONE',  ( -3.600000000000000089, 4.408728476930471151E-16, -13.40000000000000036 ) ) ;
#494 = CARTESIAN_POINT ( 'NONE',  ( 0.000000000000000000, 0.000000000000000000, 950.0000000000000000 ) ) ;
#495 = ORIENTED_EDGE ( 'NONE', *, *, #490, .F. ) ;
#496 = CARTESIAN_POINT ( 'NONE',  ( 0.000000000000000000, 0.000000000000000000, -9.500000000000001776 ) ) ;
#497 = AXIS2_PLACEMENT_3D ( 'NONE', #494, #302, #195 ) ;
#498 = CONICAL_SURFACE ( 'NONE', #121, 6.000000000000001776, 0.7853981633974612686 ) ;
#499 = CIRCLE ( 'NONE', #244, 6.000000000000001776 ) ;
#500 = DIRECTION ( 'NONE',  ( 0.000000000000000000, 0.000000000000000000, 1.000000000000000000 ) ) ;
#501 = EDGE_LOOP ( 'NONE', ( #191, #226, #460, #770 ) ) ;
#502 = CARTESIAN_POINT ( 'NONE',  ( 0.000000000000000000, 0.000000000000000000, -0.9999999999999974465 ) ) ;
#503 = EDGE_CURVE ( 'NONE', #690, #183, #222, .T. ) ;
#504 = DIRECTION ( 'NONE',  ( 0.000000000000000000, 0.000000000000000000, -1.000000000000000000 ) ) ;
#505 = ORIENTED_EDGE ( 'NONE', *, *, #441, .F. ) ;
#506 = DIRECTION ( 'NONE',  ( 1.000000000000000000, 0.000000000000000000, 0.000000000000000000 ) ) ;
#507 = DIRECTION ( 'NONE',  ( -0.000000000000000000, -0.000000000000000000, -1.000000000000000000 ) ) ;
#508 = ORIENTED_EDGE ( 'NONE', *, *, #38, .T. ) ;
#509 = AXIS2_PLACEMENT_3D ( 'NONE', #728, #548, #666 ) ;
#510 = ORIENTED_EDGE ( 'NONE', *, *, #441, .T. ) ;
#511 = ADVANCED_FACE ( 'NONE', ( #550 ), #287, .T. ) ;
#512 = DIRECTION ( 'NONE',  ( 1.000000000000000000, 1.776356839400250465E-15, 0.000000000000000000 ) ) ;
#513 = CARTESIAN_POINT ( 'NONE',  ( 6.000000000000001776, 7.347880794884121708E-16, -14.29999999999998472 ) ) ;
#514 = DIRECTION ( 'NONE',  ( 1.000000000000000000, 0.000000000000000000, 0.000000000000000000 ) ) ;
#515 = UNCERTAINTY_MEASURE_WITH_UNIT (LENGTH_MEASURE( 1.000000000000000082E-05 ), #536, 'distance_accuracy_value', 'NONE');
#516 = VERTEX_POINT ( 'NONE', #249 ) ;
#517 = SURFACE_STYLE_USAGE ( .BOTH. , #280 ) ;
#518 = EDGE_CURVE ( 'NONE', #188, #362, #590, .T. ) ;
#519 = VERTEX_POINT ( 'NONE', #562 ) ;
#520 = EDGE_CURVE ( 'NONE', #378, #324, #730, .T. ) ;
#521 = CARTESIAN_POINT ( 'NONE',  ( 0.000000000000000000, 3.000000000000000000, -14.00000000000000000 ) ) ;
#522 = AXIS2_PLACEMENT_3D ( 'NONE', #689, #627, #514 ) ;
#523 = ORIENTED_EDGE ( 'NONE', *, *, #103, .T. ) ;
#524 = VECTOR ( 'NONE', #668, 1000.000000000000000 ) ;
#525 = MECHANICAL_DESIGN_GEOMETRIC_PRESENTATION_REPRESENTATION (  '', ( #213 ), #309 ) ;
#526 = CARTESIAN_POINT ( 'NONE',  ( -4.999999999999999112, -6.000000000000001776, -19.00000000000000000 ) ) ;
#527 = DIRECTION ( 'NONE',  ( 1.000000000000000000, 0.000000000000000000, 0.000000000000000000 ) ) ;
#528 = CARTESIAN_POINT ( 'NONE',  ( -5.700000000000009948, 0.000000000000000000, -14.00000000000000000 ) ) ;
#529 = PLANE ( 'NONE',  #185 ) ;
#530 = LINE ( 'NONE', #406, #210 ) ;
#531 = SURFACE_STYLE_FILL_AREA ( #115 ) ;
#532 = DIRECTION ( 'NONE',  ( 1.000000000000000000, 0.000000000000000000, 0.000000000000000000 ) ) ;
#533 = CARTESIAN_POINT ( 'NONE',  ( 0.000000000000000000, 0.000000000000000000, -24.99999999999999645 ) ) ;
#534 = CLOSED_SHELL ( 'NONE', ( #481, #189, #342, #484, #511, #663, #70, #762, #630, #581, #402, #151, #62, #386, #253, #176, #458, #563, #239, #265, #673, #313, #44, #323, #204, #653 ) ) ;
#535 = AXIS2_PLACEMENT_3D ( 'NONE', #105, #405, #400 ) ;
#536 =( LENGTH_UNIT ( ) NAMED_UNIT ( * ) SI_UNIT ( .MILLI., .METRE. ) );
#537 = PRESENTATION_LAYER_ASSIGNMENT (  '', '', ( #213 ) ) ;
#538 = EDGE_CURVE ( 'NONE', #727, #228, #368, .T. ) ;
#539 =( NAMED_UNIT ( * ) PLANE_ANGLE_UNIT ( ) SI_UNIT ( $, .RADIAN. ) );
#540 = DIRECTION ( 'NONE',  ( -1.000000000000000000, 0.000000000000000000, 0.000000000000000000 ) ) ;
#541 = DIRECTION ( 'NONE',  ( -1.000000000000000000, 0.000000000000000000, 0.000000000000000000 ) ) ;
#542 = ORIENTED_EDGE ( 'NONE', *, *, #165, .T. ) ;
#543 = EDGE_CURVE ( 'NONE', #446, #144, #79, .T. ) ;
#544 = CARTESIAN_POINT ( 'NONE',  ( 0.000000000000000000, 0.000000000000000000, -10.49999999999999822 ) ) ;
#545 = ORIENTED_EDGE ( 'NONE', *, *, #374, .T. ) ;
#546 = CIRCLE ( 'NONE', #734, 6.000000000000001776 ) ;
#547 = CIRCLE ( 'NONE', #211, 6.000000000000001776 ) ;
#548 = DIRECTION ( 'NONE',  ( 0.000000000000000000, -0.000000000000000000, -1.000000000000000000 ) ) ;
#549 = EDGE_LOOP ( 'NONE', ( #442, #722, #729, #418 ) ) ;
#550 = FACE_OUTER_BOUND ( 'NONE', #428, .T. ) ;
#551 = DIRECTION ( 'NONE',  ( 0.000000000000000000, 0.000000000000000000, 1.000000000000000000 ) ) ;
#552 = ORIENTED_EDGE ( 'NONE', *, *, #181, .T. ) ;
#553 = FACE_OUTER_BOUND ( 'NONE', #97, .T. ) ;
#554 = DIRECTION ( 'NONE',  ( -1.000000000000000000, 0.000000000000000000, -0.000000000000000000 ) ) ;
#555 = EDGE_LOOP ( 'NONE', ( #773, #77, #140, #321 ) ) ;
#556 = DIRECTION ( 'NONE',  ( 1.000000000000000000, 0.000000000000000000, 0.000000000000000000 ) ) ;
#557 = EDGE_CURVE ( 'NONE', #305, #354, #547, .T. ) ;
#558 = TOROIDAL_SURFACE ( 'NONE', #522, 3.600000000000000089, 0.5999999999999999778 ) ;
#559 = AXIS2_PLACEMENT_3D ( 'NONE', #611, #252, #736 ) ;
#560 = CARTESIAN_POINT ( 'NONE',  ( 5.000000000000000000, -3.316624790355402919, -24.99999999999999645 ) ) ;
#561 = ORIENTED_EDGE ( 'NONE', *, *, #119, .F. ) ;
#562 = CARTESIAN_POINT ( 'NONE',  ( 2.999999999999988898, 4.286263797015729199E-16, 0.000000000000000000 ) ) ;
#563 = ADVANCED_FACE ( 'NONE', ( #353 ), #307, .T. ) ;
#564 = FACE_OUTER_BOUND ( 'NONE', #327, .T. ) ;
#565 = ORIENTED_EDGE ( 'NONE', *, *, #89, .T. ) ;
#566 = DIRECTION ( 'NONE',  ( -0.000000000000000000, -0.000000000000000000, 1.000000000000000000 ) ) ;
#567 =( NAMED_UNIT ( * ) PLANE_ANGLE_UNIT ( ) SI_UNIT ( $, .RADIAN. ) );
#568 = DIRECTION ( 'NONE',  ( -1.000000000000000000, 0.000000000000000000, 0.000000000000000000 ) ) ;
#569 = EDGE_LOOP ( 'NONE', ( #124, #170, #296, #670 ) ) ;
#570 = PLANE ( 'NONE',  #187 ) ;
#571 = CIRCLE ( 'NONE', #232, 6.000000000000001776 ) ;
#572 = LINE ( 'NONE', #343, #31 ) ;
#573 = VECTOR ( 'NONE', #703, 1000.000000000000000 ) ;
#574 = PLANE ( 'NONE',  #285 ) ;
#575 = ORIENTED_EDGE ( 'NONE', *, *, #199, .F. ) ;
#576 = EDGE_CURVE ( 'NONE', #144, #446, #650, .T. ) ;
#577 = CARTESIAN_POINT ( 'NONE',  ( 0.000000000000000000, 0.000000000000000000, -50.00000000000000000 ) ) ;
#578 = DIRECTION ( 'NONE',  ( -1.000000000000000000, 0.000000000000000000, 0.000000000000000000 ) ) ;
#579 = ORIENTED_EDGE ( 'NONE', *, *, #38, .F. ) ;
#580 = CARTESIAN_POINT ( 'NONE',  ( -4.000000000000000000, 0.000000000000000000, -0.9999999999999974465 ) ) ;
#581 = ADVANCED_FACE ( 'NONE', ( #553 ), #194, .T. ) ;
#582 = DIRECTION ( 'NONE',  ( -0.000000000000000000, -0.000000000000000000, -1.000000000000000000 ) ) ;
#583 = CARTESIAN_POINT ( 'NONE',  ( 5.000000000000000000, -6.000000000000001776, -19.00000000000000000 ) ) ;
#584 = CARTESIAN_POINT ( 'NONE',  ( -3.000000000000000000, 0.000000000000000000, -10.74852813742385749 ) ) ;
#585 = DIRECTION ( 'NONE',  ( 0.000000000000000000, 0.000000000000000000, 1.000000000000000000 ) ) ;
#586 = CARTESIAN_POINT ( 'NONE',  ( 0.000000000000000000, 0.000000000000000000, -14.00000000000000000 ) ) ;
#587 = UNCERTAINTY_MEASURE_WITH_UNIT (LENGTH_MEASURE( 1.000000000000000082E-05 ), #152, 'distance_accuracy_value', 'NONE');
#588 = CIRCLE ( 'NONE', #2, 3.000000000000000000 ) ;
#589 = ORIENTED_EDGE ( 'NONE', *, *, #469, .F. ) ;
#590 = CIRCLE ( 'NONE', #242, 4.000000000000000000 ) ;
#591 = VECTOR ( 'NONE', #35, 1000.000000000000000 ) ;
#592 = EDGE_LOOP ( 'NONE', ( #215, #248, #486, #25 ) ) ;
#593 = CARTESIAN_POINT ( 'NONE',  ( -4.999999999999996447, -3.316624790355408248, 7.228014483236694583E-16 ) ) ;
#594 = ORIENTED_EDGE ( 'NONE', *, *, #557, .F. ) ;
#595 = EDGE_CURVE ( 'NONE', #492, #276, #332, .T. ) ;
#596 = CARTESIAN_POINT ( 'NONE',  ( 0.000000000000000000, 0.000000000000000000, 0.000000000000000000 ) ) ;
#597 = DIRECTION ( 'NONE',  ( -0.000000000000000000, -0.000000000000000000, -1.000000000000000000 ) ) ;
#598 = VERTEX_POINT ( 'NONE', #92 ) ;
#599 = AXIS2_PLACEMENT_3D ( 'NONE', #533, #778, #175 ) ;
#600 = EDGE_CURVE ( 'NONE', #605, #305, #691, .T. ) ;
#601 = MECHANICAL_DESIGN_GEOMETRIC_PRESENTATION_REPRESENTATION (  '', ( #662 ), #478 ) ;
#602 = AXIS2_PLACEMENT_3D ( 'NONE', #41, #566, #26 ) ;
#603 = SURFACE_STYLE_USAGE ( .BOTH. , #357 ) ;
#604 = PLANE ( 'NONE',  #477 ) ;
#605 = VERTEX_POINT ( 'NONE', #577 ) ;
#606 = EDGE_CURVE ( 'NONE', #149, #690, #392, .T. ) ;
#607 = LINE ( 'NONE', #613, #648 ) ;
#608 = ORIENTED_EDGE ( 'NONE', *, *, #699, .F. ) ;
#609 = DIRECTION ( 'NONE',  ( -0.000000000000000000, -0.000000000000000000, -1.000000000000000000 ) ) ;
#610 = AXIS2_PLACEMENT_3D ( 'NONE', #6, #491, #250 ) ;
#611 = CARTESIAN_POINT ( 'NONE',  ( 0.000000000000000000, 0.000000000000000000, -14.00000000000000000 ) ) ;
#612 = AXIS2_PLACEMENT_3D ( 'NONE', #198, #676, #556 ) ;
#613 = CARTESIAN_POINT ( 'NONE',  ( -5.000000000000000000, -6.000000000000001776, -24.99999999999999645 ) ) ;
#614 = EDGE_LOOP ( 'NONE', ( #642, #655, #628, #241 ) ) ;
#615 = DIRECTION ( 'NONE',  ( -1.000000000000000000, 1.224646799147353207E-16, 0.000000000000000000 ) ) ;
#616 = CARTESIAN_POINT ( 'NONE',  ( 0.000000000000000000, 0.000000000000000000, -14.00000000000000000 ) ) ;
#617 = ORIENTED_EDGE ( 'NONE', *, *, #618, .T. ) ;
#618 = EDGE_CURVE ( 'NONE', #251, #74, #698, .T. ) ;
#619 = DIRECTION ( 'NONE',  ( -1.000000000000000000, 0.000000000000000000, 0.000000000000000000 ) ) ;
#620 = FACE_OUTER_BOUND ( 'NONE', #549, .T. ) ;
#621 = ORIENTED_EDGE ( 'NONE', *, *, #771, .F. ) ;
#622 = EDGE_CURVE ( 'NONE', #236, #748, #333, .T. ) ;
#623 = CARTESIAN_POINT ( 'NONE',  ( 0.000000000000000000, 0.000000000000000000, -24.99999999999999645 ) ) ;
#624 = AXIS2_PLACEMENT_3D ( 'NONE', #440, #504, #635 ) ;
#625 = TOROIDAL_SURFACE ( 'NONE', #17, 3.600000000000000089, 0.5999999999999999778 ) ;
#626 =( GEOMETRIC_REPRESENTATION_CONTEXT ( 3 ) GLOBAL_UNCERTAINTY_ASSIGNED_CONTEXT ( ( #515 ) ) GLOBAL_UNIT_ASSIGNED_CONTEXT ( ( #536, #350, #47 ) ) REPRESENTATION_CONTEXT ( 'NONE', 'WORKASPACE' ) );
#627 = DIRECTION ( 'NONE',  ( 0.000000000000000000, 0.000000000000000000, 1.000000000000000000 ) ) ;
#628 = ORIENTED_EDGE ( 'NONE', *, *, #518, .T. ) ;
#629 = FACE_OUTER_BOUND ( 'NONE', #647, .T. ) ;
#630 = ADVANCED_FACE ( 'NONE', ( #277 ), #206, .T. ) ;
#631 = DIRECTION ( 'NONE',  ( -0.7071067811865435759, 8.659560562354884787E-17, 0.7071067811865513475 ) ) ;
#632 = ORIENTED_EDGE ( 'NONE', *, *, #360, .F. ) ;
#633 = DIRECTION ( 'NONE',  ( 0.7071067811865435759, 0.000000000000000000, 0.7071067811865513475 ) ) ;
#634 = APPLICATION_CONTEXT ( 'automotive_design' ) ;
#635 = DIRECTION ( 'NONE',  ( -1.000000000000000000, 0.000000000000000000, -0.000000000000000000 ) ) ;
#636 = EDGE_LOOP ( 'NONE', ( #716, #85, #552, #178 ) ) ;
#637 = AXIS2_PLACEMENT_3D ( 'NONE', #125, #190, #429 ) ;
#638 = DIRECTION ( 'NONE',  ( -0.000000000000000000, -0.000000000000000000, -1.000000000000000000 ) ) ;
#639 = DIRECTION ( 'NONE',  ( 0.000000000000000000, 0.000000000000000000, 1.000000000000000000 ) ) ;
#640 = ORIENTED_EDGE ( 'NONE', *, *, #360, .T. ) ;
#641 = CYLINDRICAL_SURFACE ( 'NONE', #273, 6.000000000000001776 ) ;
#642 = ORIENTED_EDGE ( 'NONE', *, *, #576, .T. ) ;
#643 = EDGE_CURVE ( 'NONE', #446, #188, #155, .T. ) ;
#644 = FACE_OUTER_BOUND ( 'NONE', #592, .T. ) ;
#645 = DIRECTION ( 'NONE',  ( 1.000000000000000000, 0.000000000000000000, 0.000000000000000000 ) ) ;
#646 = DIRECTION ( 'NONE',  ( 0.000000000000000000, 0.000000000000000000, 1.000000000000000000 ) ) ;
#647 = EDGE_LOOP ( 'NONE', ( #58, #468, #118 ) ) ;
#648 = VECTOR ( 'NONE', #128, 1000.000000000000000 ) ;
#649 = ORIENTED_EDGE ( 'NONE', *, *, #414, .T. ) ;
#650 = CIRCLE ( 'NONE', #710, 3.175735931288071523 ) ;
#651 = AXIS2_PLACEMENT_3D ( 'NONE', #760, #399, #160 ) ;
#652 = FILL_AREA_STYLE_COLOUR ( '', #81 ) ;
#653 = ADVANCED_FACE ( 'NONE', ( #629 ), #694, .F. ) ;
#654 = FILL_AREA_STYLE_COLOUR ( '', #436 ) ;
#655 = ORIENTED_EDGE ( 'NONE', *, *, #643, .T. ) ;
#656 = SURFACE_STYLE_FILL_AREA ( #179 ) ;
#657 = DIRECTION ( 'NONE',  ( -0.000000000000000000, -0.000000000000000000, 1.000000000000000000 ) ) ;
#658 = ORIENTED_EDGE ( 'NONE', *, *, #259, .F. ) ;
#659 = CARTESIAN_POINT ( 'NONE',  ( 4.000000000000000000, 4.898587196589412829E-16, -0.9999999999999974465 ) ) ;
#660 = CIRCLE ( 'NONE', #318, 0.5999999999999998668 ) ;
#661 = ORIENTED_EDGE ( 'NONE', *, *, #503, .T. ) ;
#662 = STYLED_ITEM ( 'NONE', ( #173 ), #402 ) ;
#663 = ADVANCED_FACE ( 'NONE', ( #701 ), #641, .T. ) ;
#664 = DIRECTION ( 'NONE',  ( 0.000000000000000000, 0.000000000000000000, 1.000000000000000000 ) ) ;
#665 = EDGE_LOOP ( 'NONE', ( #495, #452, #575, #129 ) ) ;
#666 = DIRECTION ( 'NONE',  ( 1.000000000000000000, 0.000000000000000000, 0.000000000000000000 ) ) ;
#667 = ORIENTED_EDGE ( 'NONE', *, *, #543, .F. ) ;
#668 = DIRECTION ( 'NONE',  ( -0.000000000000000000, -0.000000000000000000, -1.000000000000000000 ) ) ;
#669 = DIRECTION ( 'NONE',  ( 1.000000000000000000, 0.000000000000000000, 0.000000000000000000 ) ) ;
#670 = ORIENTED_EDGE ( 'NONE', *, *, #422, .T. ) ;
#671 = VECTOR ( 'NONE', #507, 1000.000000000000000 ) ;
#672 = DIRECTION ( 'NONE',  ( -0.000000000000000000, -0.000000000000000000, -1.000000000000000000 ) ) ;
#673 = ADVANCED_FACE ( 'NONE', ( #644 ), #570, .F. ) ;
#674 = LINE ( 'NONE', #136, #366 ) ;
#675 = ORIENTED_EDGE ( 'NONE', *, *, #742, .T. ) ;
#676 = DIRECTION ( 'NONE',  ( -0.000000000000000000, -0.000000000000000000, -1.000000000000000000 ) ) ;
#677 = DIRECTION ( 'NONE',  ( 1.000000000000000000, 0.000000000000000000, 0.000000000000000000 ) ) ;
#678 = ORIENTED_EDGE ( 'NONE', *, *, #294, .T. ) ;
#679 = CARTESIAN_POINT ( 'NONE',  ( 0.000000000000000000, 0.000000000000000000, -0.9999999999999974465 ) ) ;
#680 = DIRECTION ( 'NONE',  ( -0.000000000000000000, -0.000000000000000000, -1.000000000000000000 ) ) ;
#681 = VERTEX_POINT ( 'NONE', #584 ) ;
#682 = PRESENTATION_STYLE_ASSIGNMENT (( #517 ) ) ;
#683 = CIRCLE ( 'NONE', #777, 6.000000000000001776 ) ;
#684 = PRESENTATION_LAYER_ASSIGNMENT (  '', '', ( #724 ) ) ;
#685 = LINE ( 'NONE', #143, #221 ) ;
#686 = EDGE_LOOP ( 'NONE', ( #617, #257, #693 ) ) ;
#687 = DIRECTION ( 'NONE',  ( 1.000000000000000000, 0.000000000000000000, 0.000000000000000000 ) ) ;
#688 = EDGE_CURVE ( 'NONE', #236, #158, #499, .T. ) ;
#689 = CARTESIAN_POINT ( 'NONE',  ( 0.000000000000000000, 0.000000000000000000, -13.40000000000000036 ) ) ;
#690 = VERTEX_POINT ( 'NONE', #580 ) ;
#691 = LINE ( 'NONE', #150, #298 ) ;
#692 = CARTESIAN_POINT ( 'NONE',  ( 0.000000000000000000, 0.000000000000000000, 0.000000000000000000 ) ) ;
#693 = ORIENTED_EDGE ( 'NONE', *, *, #8, .T. ) ;
#694 = PLANE ( 'NONE',  #651 ) ;
#695 = AXIS2_PLACEMENT_3D ( 'NONE', #692, #680, #738 ) ;
#696 = CONICAL_SURFACE ( 'NONE', #398, 4.000000000000000000, 0.7853981633974552734 ) ;
#697 = DIRECTION ( 'NONE',  ( -0.000000000000000000, 1.000000000000000000, -0.000000000000000000 ) ) ;
#698 = CIRCLE ( 'NONE', #5, 6.000000000000001776 ) ;
#699 = EDGE_CURVE ( 'NONE', #324, #335, #384, .T. ) ;
#700 = ORIENTED_EDGE ( 'NONE', *, *, #369, .T. ) ;
#701 = FACE_OUTER_BOUND ( 'NONE', #137, .T. ) ;
#702 = DIRECTION ( 'NONE',  ( 0.7071067811865566766, 8.659560562355045024E-17, -0.7071067811865383579 ) ) ;
#703 = DIRECTION ( 'NONE',  ( -0.000000000000000000, -0.000000000000000000, -1.000000000000000000 ) ) ;
#704 = ORIENTED_EDGE ( 'NONE', *, *, #281, .T. ) ;
#705 = SURFACE_SIDE_STYLE ('',( #229 ) ) ;
#706 = ORIENTED_EDGE ( 'NONE', *, *, #782, .T. ) ;
#707 =( LENGTH_UNIT ( ) NAMED_UNIT ( * ) SI_UNIT ( .MILLI., .METRE. ) );
#708 = CARTESIAN_POINT ( 'NONE',  ( -6.000000000000001776, 0.000000000000000000, -43.99999999999993605 ) ) ;
#709 = CONICAL_SURFACE ( 'NONE', #497, 999.9999999999889724, 0.7853981633974428389 ) ;
#710 = AXIS2_PLACEMENT_3D ( 'NONE', #780, #237, #180 ) ;
#711 = ORIENTED_EDGE ( 'NONE', *, *, #20, .F. ) ;
#712 = AXIS2_PLACEMENT_3D ( 'NONE', #295, #100, #532 ) ;
#713 = MANIFOLD_SOLID_BREP ( 'Schnitt-Linear austragen1', #534 ) ;
#714 = PRESENTATION_LAYER_ASSIGNMENT (  '', '', ( #465 ) ) ;
#715 = APPLICATION_PROTOCOL_DEFINITION ( 'draft international standard', 'automotive_design', 1998, #634 ) ;
#716 = ORIENTED_EDGE ( 'NONE', *, *, #757, .F. ) ;
#717 = DIRECTION ( 'NONE',  ( -1.000000000000000000, 0.000000000000000000, 0.000000000000000000 ) ) ;
#718 = CARTESIAN_POINT ( 'NONE',  ( 0.000000000000000000, 0.000000000000000000, -10.74852813742385749 ) ) ;
#719 = APPLICATION_PROTOCOL_DEFINITION ( 'draft international standard', 'automotive_design', 1998, #725 ) ;
#720 = DIRECTION ( 'NONE',  ( -0.000000000000000000, 0.000000000000000000, 1.000000000000000000 ) ) ;
#721 = CIRCLE ( 'NONE', #42, 3.000000000000000000 ) ;
#722 = ORIENTED_EDGE ( 'NONE', *, *, #336, .F. ) ;
#723 = VECTOR ( 'NONE', #697, 1000.000000000000000 ) ;
#724 = STYLED_ITEM ( 'NONE', ( #682 ), #630 ) ;
#725 = APPLICATION_CONTEXT ( 'automotive_design' ) ;
#726 = CARTESIAN_POINT ( 'NONE',  ( 0.000000000000000000, 0.000000000000000000, -13.40000000000000036 ) ) ;
#727 = VERTEX_POINT ( 'NONE', #473 ) ;
#728 = CARTESIAN_POINT ( 'NONE',  ( 0.000000000000000000, 0.000000000000000000, -19.00000000000000000 ) ) ;
#729 = ORIENTED_EDGE ( 'NONE', *, *, #301, .T. ) ;
#730 = LINE ( 'NONE', #142, #451 ) ;
#731 = EDGE_CURVE ( 'NONE', #149, #519, #45, .T. ) ;
#732 = DIRECTION ( 'NONE',  ( 1.000000000000000000, 0.000000000000000000, 0.000000000000000000 ) ) ;
#733 = VERTEX_POINT ( 'NONE', #448 ) ;
#734 = AXIS2_PLACEMENT_3D ( 'NONE', #437, #132, #238 ) ;
#735 = VECTOR ( 'NONE', #454, 1000.000000000000000 ) ;
#736 = DIRECTION ( 'NONE',  ( 1.000000000000000000, 0.000000000000000000, 0.000000000000000000 ) ) ;
#737 = MECHANICAL_DESIGN_GEOMETRIC_PRESENTATION_REPRESENTATION (  '', ( #465 ), #626 ) ;
#738 = DIRECTION ( 'NONE',  ( -1.000000000000000000, 0.000000000000000000, 0.000000000000000000 ) ) ;
#739 = ORIENTED_EDGE ( 'NONE', *, *, #212, .T. ) ;
#740 = LINE ( 'NONE', #72, #524 ) ;
#741 = DIRECTION ( 'NONE',  ( -1.000000000000000000, 0.000000000000000000, 0.000000000000000000 ) ) ;
#742 = EDGE_CURVE ( 'NONE', #293, #144, #19, .T. ) ;
#743 = UNCERTAINTY_MEASURE_WITH_UNIT (LENGTH_MEASURE( 1.000000000000000082E-05 ), #707, 'distance_accuracy_value', 'NONE');
#744 = EDGE_LOOP ( 'NONE', ( #364, #430, #640, #202 ) ) ;
#745 = CARTESIAN_POINT ( 'NONE',  ( 0.000000000000000000, 0.000000000000000000, -43.99999999999993605 ) ) ;
#746 = CARTESIAN_POINT ( 'NONE',  ( 4.000000000000000000, 4.898587196589412829E-16, 0.000000000000000000 ) ) ;
#747 = DIRECTION ( 'NONE',  ( 1.000000000000000000, 0.000000000000000000, -1.445602896647339903E-16 ) ) ;
#748 = VERTEX_POINT ( 'NONE', #207 ) ;
#749 = CARTESIAN_POINT ( 'NONE',  ( 0.000000000000000000, 0.000000000000000000, -19.00000000000000000 ) ) ;
#750 = AXIS2_PLACEMENT_3D ( 'NONE', #53, #372, #540 ) ;
#751 = AXIS2_PLACEMENT_3D ( 'NONE', #596, #585, #120 ) ;
#752 = CARTESIAN_POINT ( 'NONE',  ( -5.000000000000000000, -3.316624790355408248, -24.99999999999999645 ) ) ;
#753 = VERTEX_POINT ( 'NONE', #224 ) ;
#754 = DIRECTION ( 'NONE',  ( 0.000000000000000000, -0.000000000000000000, -1.000000000000000000 ) ) ;
#755 = EDGE_LOOP ( 'NONE', ( #83, #739, #112 ) ) ;
#756 = CARTESIAN_POINT ( 'NONE',  ( 0.000000000000000000, 0.000000000000000000, 0.000000000000000000 ) ) ;
#757 = EDGE_CURVE ( 'NONE', #359, #433, #216, .T. ) ;
#758 = CARTESIAN_POINT ( 'NONE',  ( 0.000000000000000000, 0.000000000000000000, -9.500000000000001776 ) ) ;
#759 = DIRECTION ( 'NONE',  ( -0.000000000000000000, 1.000000000000000000, -0.000000000000000000 ) ) ;
#760 = CARTESIAN_POINT ( 'NONE',  ( -8.000000000000000000, -6.000000000000001776, -19.00000000000000000 ) ) ;
#761 = CIRCLE ( 'NONE', #91, 3.600000000000000089 ) ;
#762 = ADVANCED_FACE ( 'NONE', ( #393 ), #779, .T. ) ;
#763 = CARTESIAN_POINT ( 'NONE',  ( 3.600000000000000089, 4.408728476930471151E-16, -10.74852813742385749 ) ) ;
#764 = AXIS2_PLACEMENT_3D ( 'NONE', #769, #646, #527 ) ;
#765 = DIRECTION ( 'NONE',  ( 0.000000000000000000, 0.000000000000000000, 1.000000000000000000 ) ) ;
#766 = AXIS2_PLACEMENT_3D ( 'NONE', #267, #411, #113 ) ;
#767 = EDGE_LOOP ( 'NONE', ( #205, #565, #409, #246, #33, #114, #489, #594, #589, #608, #279, #375 ) ) ;
#768 = PRESENTATION_STYLE_ASSIGNMENT (( #603 ) ) ;
#769 = CARTESIAN_POINT ( 'NONE',  ( 0.000000000000000000, 0.000000000000000000, 0.000000000000000000 ) ) ;
#770 = ORIENTED_EDGE ( 'NONE', *, *, #606, .F. ) ;
#771 = EDGE_CURVE ( 'NONE', #727, #354, #104, .T. ) ;
#772 = PRESENTATION_STYLE_ASSIGNMENT (( #52 ) ) ;
#773 = ORIENTED_EDGE ( 'NONE', *, *, #141, .F. ) ;
#774 = EDGE_CURVE ( 'NONE', #753, #158, #572, .T. ) ;
#775 =( NAMED_UNIT ( * ) PLANE_ANGLE_UNIT ( ) SI_UNIT ( $, .RADIAN. ) );
#776 = TOROIDAL_SURFACE ( 'NONE', #435, 3.600000000000000089, 0.5999999999999999778 ) ;
#777 = AXIS2_PLACEMENT_3D ( 'NONE', #339, #582, #39 ) ;
#778 = DIRECTION ( 'NONE',  ( -0.000000000000000000, -0.000000000000000000, 1.000000000000000000 ) ) ;
#779 = CONICAL_SURFACE ( 'NONE', #425, 3.000000000000000000, 0.7853981633974496113 ) ;
#780 = CARTESIAN_POINT ( 'NONE',  ( 0.000000000000000000, 0.000000000000000000, -10.32426406871192803 ) ) ;
#781 = DIRECTION ( 'NONE',  ( -1.000000000000000000, 0.000000000000000000, 0.000000000000000000 ) ) ;
#782 = EDGE_CURVE ( 'NONE', #183, #362, #263, .T. ) ;
#783 = CARTESIAN_POINT ( 'NONE',  ( -5.000000000000000000, 3.316624790355408692, -24.99999999999999645 ) ) ;
#784 = ORIENTED_EDGE ( 'NONE', *, *, #259, .T. ) ;
ENDSEC;
END-ISO-10303-21;
