ISO-10303-21;
HEADER;
FILE_DESCRIPTION (( 'STEP AP214' ),
    '1' );
FILE_NAME ('202500614-10206P01.STEP',
    '2026-02-25T08:44:08',
    ( '' ),
    ( '' ),
    'SwSTEP 2.0',
    'SolidWorks 2021',
    '' );
FILE_SCHEMA (( 'AUTOMOTIVE_DESIGN' ));
ENDSEC;

DATA;
#1 = DIRECTION ( 'NONE',  ( 0.000000000000000000, 0.000000000000000000, 1.000000000000000000 ) ) ;
#2 = DIRECTION ( 'NONE',  ( -1.000000000000000000, 0.000000000000000000, 0.000000000000000000 ) ) ;
#3 = ADVANCED_FACE ( 'NONE', ( #450 ), #31, .T. ) ;
#4 = ORIENTED_EDGE ( 'NONE', *, *, #212, .T. ) ;
#5 = CONICAL_SURFACE ( 'NONE', #267, 12.50000000000000000, 0.7853981633974291832 ) ;
#6 = CIRCLE ( 'NONE', #82, 34.00000000000000000 ) ;
#7 = DIRECTION ( 'NONE',  ( 1.224646799147353207E-16, 1.000000000000000000, -0.000000000000000000 ) ) ;
#8 = ORIENTED_EDGE ( 'NONE', *, *, #128, .T. ) ;
#9 =( LENGTH_UNIT ( ) NAMED_UNIT ( * ) SI_UNIT ( .MILLI., .METRE. ) );
#10 = DIRECTION ( 'NONE',  ( 0.000000000000000000, 0.000000000000000000, 1.000000000000000000 ) ) ;
#11 = ORIENTED_EDGE ( 'NONE', *, *, #671, .T. ) ;
#12 = PRODUCT_RELATED_PRODUCT_CATEGORY ( 'part', '', ( #682 ) ) ;
#13 = DIRECTION ( 'NONE',  ( -0.000000000000000000, -0.000000000000000000, -1.000000000000000000 ) ) ;
#14 = CARTESIAN_POINT ( 'NONE',  ( 35.00000000000007105, 0.000000000000000000, 33.00000000000000000 ) ) ;
#15 = ORIENTED_EDGE ( 'NONE', *, *, #765, .F. ) ;
#16 = CIRCLE ( 'NONE', #719, 38.04999999999999716 ) ;
#17 = DIRECTION ( 'NONE',  ( -1.000000000000000000, 0.000000000000000000, 0.000000000000000000 ) ) ;
#18 = AXIS2_PLACEMENT_3D ( 'NONE', #747, #322, #154 ) ;
#19 = AXIS2_PLACEMENT_3D ( 'NONE', #738, #508, #89 ) ;
#20 = ORIENTED_EDGE ( 'NONE', *, *, #391, .F. ) ;
#21 = VECTOR ( 'NONE', #611, 1000.000000000000000 ) ;
#22 =( LENGTH_UNIT ( ) NAMED_UNIT ( * ) SI_UNIT ( .MILLI., .METRE. ) );
#23 = DIRECTION ( 'NONE',  ( 1.000000000000000000, 0.000000000000000000, 0.000000000000000000 ) ) ;
#24 = EDGE_CURVE ( 'NONE', #539, #240, #509, .T. ) ;
#25 = ORIENTED_EDGE ( 'NONE', *, *, #498, .F. ) ;
#26 = CARTESIAN_POINT ( 'NONE',  ( -5.209813981864140855E-18, 0.000000000000000000, 3.000000000000000000 ) ) ;
#27 = CARTESIAN_POINT ( 'NONE',  ( 53.00000000000000711, 6.490628035480973107E-15, 3.000000000000000000 ) ) ;
#28 = VERTEX_POINT ( 'NONE', #100 ) ;
#29 =( NAMED_UNIT ( * ) PLANE_ANGLE_UNIT ( ) SI_UNIT ( $, .RADIAN. ) );
#30 = CARTESIAN_POINT ( 'NONE',  ( 0.000000000000000000, 0.000000000000000000, 1.000000000000014655 ) ) ;
#31 = TOROIDAL_SURFACE ( 'NONE', #422, 13.00000000000000178, 0.5000000000000000000 ) ;
#32 = DIRECTION ( 'NONE',  ( -1.000000000000000000, 0.000000000000000000, 0.000000000000000000 ) ) ;
#33 = AXIS2_PLACEMENT_3D ( 'NONE', #143, #77, #438 ) ;
#34 = AXIS2_PLACEMENT_3D ( 'NONE', #425, #540, #657 ) ;
#35 = EDGE_CURVE ( 'NONE', #328, #28, #690, .T. ) ;
#36 = DIRECTION ( 'NONE',  ( 0.000000000000000000, -1.000000000000000000, 0.000000000000000000 ) ) ;
#37 = DIRECTION ( 'NONE',  ( 1.000000000000000000, 0.000000000000000000, 0.000000000000000000 ) ) ;
#38 = CARTESIAN_POINT ( 'NONE',  ( -13.00000000000000178, 0.000000000000000000, 17.29289321881343255 ) ) ;
#39 = CARTESIAN_POINT ( 'NONE',  ( 0.000000000000000000, 0.000000000000000000, 17.29289321881343255 ) ) ;
#40 = UNCERTAINTY_MEASURE_WITH_UNIT (LENGTH_MEASURE( 1.000000000000000082E-05 ), #531, 'distance_accuracy_value', 'NONE');
#41 = DIRECTION ( 'NONE',  ( 1.000000000000000000, 0.000000000000000000, -0.000000000000000000 ) ) ;
#42 = DIRECTION ( 'NONE',  ( 1.000000000000000000, 0.000000000000000000, 0.000000000000000000 ) ) ;
#43 = CIRCLE ( 'NONE', #231, 12.64644660940673049 ) ;
#44 = AXIS2_PLACEMENT_3D ( 'NONE', #217, #681, #621 ) ;
#45 = AXIS2_PLACEMENT_3D ( 'NONE', #310, #250, #131 ) ;
#46 = DIRECTION ( 'NONE',  ( -0.000000000000000000, -0.000000000000000000, 1.000000000000000000 ) ) ;
#47 = DIRECTION ( 'NONE',  ( -0.000000000000000000, -0.000000000000000000, -1.000000000000000000 ) ) ;
#48 = EDGE_CURVE ( 'NONE', #87, #640, #102, .T. ) ;
#49 = ORIENTED_EDGE ( 'NONE', *, *, #761, .F. ) ;
#50 = DIRECTION ( 'NONE',  ( -0.000000000000000000, -0.000000000000000000, -1.000000000000000000 ) ) ;
#51 = ORIENTED_EDGE ( 'NONE', *, *, #142, .F. ) ;
#52 = PLANE ( 'NONE',  #507 ) ;
#53 = CARTESIAN_POINT ( 'NONE',  ( -53.00000000000000711, 0.000000000000000000, 3.000000000000000000 ) ) ;
#54 = ORIENTED_EDGE ( 'NONE', *, *, #383, .F. ) ;
#55 = ADVANCED_FACE ( 'NONE', ( #153 ), #632, .F. ) ;
#56 = VECTOR ( 'NONE', #384, 1000.000000000000000 ) ;
#57 = DIRECTION ( 'NONE',  ( 0.003490651415223739937, 0.000000000000000000, -0.9999939076577903929 ) ) ;
#58 = CONICAL_SURFACE ( 'NONE', #593, 34.00000000000000000, 0.7853981633974587151 ) ;
#59 = FACE_OUTER_BOUND ( 'NONE', #549, .T. ) ;
#60 = EDGE_LOOP ( 'NONE', ( #600, #380, #397, #537 ) ) ;
#61 = CARTESIAN_POINT ( 'NONE',  ( 0.000000000000000000, 0.000000000000000000, 17.29289321881343255 ) ) ;
#62 = EDGE_LOOP ( 'NONE', ( #183, #159, #526, #291 ) ) ;
#63 = DIRECTION ( 'NONE',  ( 1.000000000000000000, 0.000000000000000000, 0.000000000000000000 ) ) ;
#64 = DIRECTION ( 'NONE',  ( -1.000000000000000000, 0.000000000000000000, 0.000000000000000000 ) ) ;
#65 = EDGE_CURVE ( 'NONE', #533, #414, #294, .T. ) ;
#66 = ORIENTED_EDGE ( 'NONE', *, *, #502, .F. ) ;
#67 = TOROIDAL_SURFACE ( 'NONE', #721, 13.00000000000000178, 0.5000000000000000000 ) ;
#68 = DIRECTION ( 'NONE',  ( 0.000000000000000000, 0.000000000000000000, -1.000000000000000000 ) ) ;
#69 = CIRCLE ( 'NONE', #149, 12.64644660940671983 ) ;
#70 = AXIS2_PLACEMENT_3D ( 'NONE', #762, #525, #226 ) ;
#71 = DIRECTION ( 'NONE',  ( -0.000000000000000000, -0.000000000000000000, -1.000000000000000000 ) ) ;
#72 = EDGE_LOOP ( 'NONE', ( #218, #636, #180, #170 ) ) ;
#73 = DIRECTION ( 'NONE',  ( -1.000000000000000000, 0.000000000000000000, 0.000000000000000000 ) ) ;
#74 = DIRECTION ( 'NONE',  ( 0.000000000000000000, 0.000000000000000000, 1.000000000000000000 ) ) ;
#75 = ORIENTED_EDGE ( 'NONE', *, *, #48, .T. ) ;
#76 = DIRECTION ( 'NONE',  ( 1.000000000000000000, 0.000000000000000000, 0.000000000000000000 ) ) ;
#77 = DIRECTION ( 'NONE',  ( -0.000000000000000000, -0.000000000000000000, -1.000000000000000000 ) ) ;
#78 = ORIENTED_EDGE ( 'NONE', *, *, #65, .T. ) ;
#79 = FILL_AREA_STYLE ('',( #211 ) ) ;
#80 = ADVANCED_FACE ( 'NONE', ( #625 ), #435, .F. ) ;
#81 = CARTESIAN_POINT ( 'NONE',  ( 36.94177080567227733, 4.524062137200170146E-15, 33.00000000000000000 ) ) ;
#82 = AXIS2_PLACEMENT_3D ( 'NONE', #669, #480, #728 ) ;
#83 = PRODUCT_DEFINITION_FORMATION_WITH_SPECIFIED_SOURCE ( 'ANY', '', #682, .NOT_KNOWN. ) ;
#84 = VERTEX_POINT ( 'NONE', #274 ) ;
#85 = EDGE_CURVE ( 'NONE', #84, #374, #513, .T. ) ;
#86 = CARTESIAN_POINT ( 'NONE',  ( 53.00000000000000711, 6.490628035480973107E-15, 1.999999999999978462 ) ) ;
#87 = VERTEX_POINT ( 'NONE', #693 ) ;
#88 = ORIENTED_EDGE ( 'NONE', *, *, #740, .F. ) ;
#89 = DIRECTION ( 'NONE',  ( 1.000000000000000000, 0.000000000000000000, 0.000000000000000000 ) ) ;
#90 = DIRECTION ( 'NONE',  ( 0.000000000000000000, 0.000000000000000000, 1.000000000000000000 ) ) ;
#91 = EDGE_CURVE ( 'NONE', #414, #524, #396, .T. ) ;
#92 = APPLICATION_PROTOCOL_DEFINITION ( 'draft international standard', 'automotive_design', 1998, #444 ) ;
#93 = DIRECTION ( 'NONE',  ( 1.000000000000000000, 0.000000000000000000, 0.000000000000000000 ) ) ;
#94 = MECHANICAL_DESIGN_GEOMETRIC_PRESENTATION_REPRESENTATION (  '', ( #481 ), #107 ) ;
#95 = ORIENTED_EDGE ( 'NONE', *, *, #484, .T. ) ;
#96 = CIRCLE ( 'NONE', #171, 0.5000000000000004441 ) ;
#97 = ORIENTED_EDGE ( 'NONE', *, *, #614, .T. ) ;
#98 = CIRCLE ( 'NONE', #698, 35.00000000000007105 ) ;
#99 = CARTESIAN_POINT ( 'NONE',  ( 0.000000000000000000, 0.000000000000000000, 0.000000000000000000 ) ) ;
#100 = CARTESIAN_POINT ( 'NONE',  ( 12.99999999999999822, 1.592040838891558898E-15, 0.000000000000000000 ) ) ;
#101 = LINE ( 'NONE', #286, #209 ) ;
#102 = LINE ( 'NONE', #569, #206 ) ;
#103 = EDGE_LOOP ( 'NONE', ( #112, #477, #715, #97 ) ) ;
#104 = ADVANCED_FACE ( 'NONE', ( #575 ), #158, .T. ) ;
#105 = CARTESIAN_POINT ( 'NONE',  ( 34.00000000000000000, 0.000000000000000000, 31.99999999999995381 ) ) ;
#106 = LINE ( 'NONE', #230, #147 ) ;
#107 =( GEOMETRIC_REPRESENTATION_CONTEXT ( 3 ) GLOBAL_UNCERTAINTY_ASSIGNED_CONTEXT ( ( #40 ) ) GLOBAL_UNIT_ASSIGNED_CONTEXT ( ( #531, #352, #421 ) ) REPRESENTATION_CONTEXT ( 'NONE', 'WORKASPACE' ) );
#108 = EDGE_LOOP ( 'NONE', ( #737, #369, #724, #25 ) ) ;
#109 = DIRECTION ( 'NONE',  ( 0.000000000000000000, 0.000000000000000000, 1.000000000000000000 ) ) ;
#110 = ADVANCED_FACE ( 'NONE', ( #462 ), #5, .F. ) ;
#111 = DIRECTION ( 'NONE',  ( -0.000000000000000000, -0.000000000000000000, -1.000000000000000000 ) ) ;
#112 = ORIENTED_EDGE ( 'NONE', *, *, #694, .F. ) ;
#113 = DIRECTION ( 'NONE',  ( 0.000000000000000000, 0.000000000000000000, 1.000000000000000000 ) ) ;
#114 = FILL_AREA_STYLE ('',( #639 ) ) ;
#115 = ORIENTED_EDGE ( 'NONE', *, *, #478, .F. ) ;
#116 = EDGE_CURVE ( 'NONE', #328, #87, #43, .T. ) ;
#117 = FACE_BOUND ( 'NONE', #673, .T. ) ;
#118 = DIRECTION ( 'NONE',  ( 1.000000000000000000, 0.000000000000000000, 0.000000000000000000 ) ) ;
#119 = VERTEX_POINT ( 'NONE', #325 ) ;
#120 = CONICAL_SURFACE ( 'NONE', #446, 34.00000000000000000, 0.7853981633974587151 ) ;
#121 = AXIS2_PLACEMENT_3D ( 'NONE', #541, #10, #679 ) ;
#122 = AXIS2_PLACEMENT_3D ( 'NONE', #392, #276, #216 ) ;
#123 =( NAMED_UNIT ( * ) PLANE_ANGLE_UNIT ( ) SI_UNIT ( $, .RADIAN. ) );
#124 = COLOUR_RGB ( '',0.6470588235294117974, 0.6196078431372549211, 0.5882352941176470784 ) ;
#125 = DIRECTION ( 'NONE',  ( 1.000000000000000000, 0.000000000000000000, 0.000000000000000000 ) ) ;
#126 = ORIENTED_EDGE ( 'NONE', *, *, #85, .F. ) ;
#127 = DIRECTION ( 'NONE',  ( 0.000000000000000000, 0.000000000000000000, 1.000000000000000000 ) ) ;
#128 = EDGE_CURVE ( 'NONE', #119, #539, #567, .T. ) ;
#129 = FACE_OUTER_BOUND ( 'NONE', #160, .T. ) ;
#130 = EDGE_LOOP ( 'NONE', ( #144, #377 ) ) ;
#131 = DIRECTION ( 'NONE',  ( -1.000000000000000000, 0.000000000000000000, 0.000000000000000000 ) ) ;
#132 = CARTESIAN_POINT ( 'NONE',  ( -5.209813981864140855E-18, 0.000000000000000000, 32.00000609234218274 ) ) ;
#133 = ORIENTED_EDGE ( 'NONE', *, *, #610, .T. ) ;
#134 = AXIS2_PLACEMENT_3D ( 'NONE', #456, #90, #336 ) ;
#135 = DIRECTION ( 'NONE',  ( 1.000000000000000000, 0.000000000000000000, 0.000000000000000000 ) ) ;
#136 = TOROIDAL_SURFACE ( 'NONE', #121, 13.00000000000000178, 0.5000000000000000000 ) ;
#137 = DIRECTION ( 'NONE',  ( -1.000000000000000000, -1.224646799147353454E-16, 0.000000000000000000 ) ) ;
#138 = ORIENTED_EDGE ( 'NONE', *, *, #359, .T. ) ;
#139 = LINE ( 'NONE', #367, #309 ) ;
#140 = DIRECTION ( 'NONE',  ( 1.000000000000000000, 0.000000000000000000, 0.000000000000000000 ) ) ;
#141 = ORIENTED_EDGE ( 'NONE', *, *, #523, .T. ) ;
#142 = EDGE_CURVE ( 'NONE', #374, #295, #329, .T. ) ;
#143 = CARTESIAN_POINT ( 'NONE',  ( 0.000000000000000000, 0.000000000000000000, 17.64644660940670207 ) ) ;
#144 = ORIENTED_EDGE ( 'NONE', *, *, #146, .F. ) ;
#145 = MANIFOLD_SOLID_BREP ( 'Verrundung1', #505 ) ;
#146 = EDGE_CURVE ( 'NONE', #617, #562, #16, .T. ) ;
#147 = VECTOR ( 'NONE', #660, 1000.000000000000114 ) ;
#148 = DIRECTION ( 'NONE',  ( 1.000000000000000000, 0.000000000000000000, 0.000000000000000000 ) ) ;
#149 = AXIS2_PLACEMENT_3D ( 'NONE', #631, #265, #213 ) ;
#150 = CIRCLE ( 'NONE', #34, 38.04999999999999716 ) ;
#151 = CARTESIAN_POINT ( 'NONE',  ( 0.000000000000000000, 0.000000000000000000, 17.49999999999997513 ) ) ;
#152 = DIRECTION ( 'NONE',  ( 0.000000000000000000, 0.000000000000000000, -1.000000000000000000 ) ) ;
#153 = FACE_OUTER_BOUND ( 'NONE', #103, .T. ) ;
#154 = DIRECTION ( 'NONE',  ( 1.000000000000000000, 0.000000000000000000, -0.000000000000000000 ) ) ;
#155 = DIRECTION ( 'NONE',  ( 0.7071067811865487940, 8.659560562354950115E-17, -0.7071067811865463515 ) ) ;
#156 = EDGE_LOOP ( 'NONE', ( #399, #424, #141, #353 ) ) ;
#157 = FACE_OUTER_BOUND ( 'NONE', #520, .T. ) ;
#158 = CONICAL_SURFACE ( 'NONE', #616, 53.00000000000000711, 0.7853981633974482790 ) ;
#159 = ORIENTED_EDGE ( 'NONE', *, *, #694, .T. ) ;
#160 = EDGE_LOOP ( 'NONE', ( #8, #553, #366, #566 ) ) ;
#161 = CIRCLE ( 'NONE', #45, 37.94877047096733236 ) ;
#162 = CARTESIAN_POINT ( 'NONE',  ( 0.000000000000000000, 0.000000000000000000, 33.00000000000000000 ) ) ;
#163 = DIRECTION ( 'NONE',  ( 0.000000000000000000, 0.000000000000000000, 1.000000000000000000 ) ) ;
#164 = EDGE_CURVE ( 'NONE', #312, #418, #257, .T. ) ;
#165 = PLANE ( 'NONE',  #495 ) ;
#166 = LINE ( 'NONE', #53, #529 ) ;
#167 = ORIENTED_EDGE ( 'NONE', *, *, #179, .T. ) ;
#168 = CARTESIAN_POINT ( 'NONE',  ( 0.000000000000000000, 0.000000000000000000, 0.000000000000000000 ) ) ;
#169 = CARTESIAN_POINT ( 'NONE',  ( 53.00000000000000711, 6.490628035480973107E-15, 1.000000000000014655 ) ) ;
#170 = ORIENTED_EDGE ( 'NONE', *, *, #610, .F. ) ;
#171 = AXIS2_PLACEMENT_3D ( 'NONE', #38, #36, #750 ) ;
#172 = CIRCLE ( 'NONE', #270, 52.00000000000000711 ) ;
#173 = CARTESIAN_POINT ( 'NONE',  ( 38.04999999999999716, 0.000000000000000000, 3.000000000000000000 ) ) ;
#174 = EDGE_CURVE ( 'NONE', #119, #275, #166, .T. ) ;
#175 = CARTESIAN_POINT ( 'NONE',  ( 0.000000000000000000, 0.000000000000000000, 18.00000000000000355 ) ) ;
#176 = ORIENTED_EDGE ( 'NONE', *, *, #765, .T. ) ;
#177 = CARTESIAN_POINT ( 'NONE',  ( 0.000000000000000000, 0.000000000000000000, 3.000000000000000000 ) ) ;
#178 = CARTESIAN_POINT ( 'NONE',  ( 0.000000000000000000, 0.000000000000000000, 0.7071067811865424657 ) ) ;
#179 = EDGE_CURVE ( 'NONE', #539, #119, #193, .T. ) ;
#180 = ORIENTED_EDGE ( 'NONE', *, *, #776, .T. ) ;
#181 = DIRECTION ( 'NONE',  ( 0.000000000000000000, 0.000000000000000000, 1.000000000000000000 ) ) ;
#182 = DIRECTION ( 'NONE',  ( -0.000000000000000000, -0.000000000000000000, 1.000000000000000000 ) ) ;
#183 = ORIENTED_EDGE ( 'NONE', *, *, #475, .T. ) ;
#184 = CIRCLE ( 'NONE', #296, 0.5000000000000004441 ) ;
#185 = DIRECTION ( 'NONE',  ( 1.000000000000000000, 0.000000000000000000, 0.000000000000000000 ) ) ;
#186 = DIRECTION ( 'NONE',  ( -0.000000000000000000, -0.000000000000000000, -1.000000000000000000 ) ) ;
#187 = EDGE_LOOP ( 'NONE', ( #54, #300, #564, #237 ) ) ;
#188 = LINE ( 'NONE', #375, #21 ) ;
#189 = CARTESIAN_POINT ( 'NONE',  ( 13.00000000000000178, 1.592040838891559293E-15, 17.29289321881343255 ) ) ;
#190 = ORIENTED_EDGE ( 'NONE', *, *, #585, .F. ) ;
#191 = CARTESIAN_POINT ( 'NONE',  ( 0.000000000000000000, 0.000000000000000000, 3.000000000000000000 ) ) ;
#192 = ORIENTED_EDGE ( 'NONE', *, *, #401, .F. ) ;
#193 = CIRCLE ( 'NONE', #457, 53.00000000000000711 ) ;
#194 = DIRECTION ( 'NONE',  ( 0.7071067811865401342, 8.659560562354842879E-17, -0.7071067811865549002 ) ) ;
#195 = AXIS2_PLACEMENT_3D ( 'NONE', #500, #556, #692 ) ;
#196 = AXIS2_PLACEMENT_3D ( 'NONE', #665, #181, #76 ) ;
#197 = CARTESIAN_POINT ( 'NONE',  ( 12.50000000000000000, 1.530808498934191521E-15, 17.29289321881343255 ) ) ;
#198 = EDGE_CURVE ( 'NONE', #572, #240, #106, .T. ) ;
#199 = EDGE_LOOP ( 'NONE', ( #439, #4 ) ) ;
#200 = DIRECTION ( 'NONE',  ( -1.000000000000000000, 0.000000000000000000, 0.000000000000000000 ) ) ;
#201 = EDGE_LOOP ( 'NONE', ( #362, #192, #337, #584 ) ) ;
#202 = ADVANCED_FACE ( 'NONE', ( #349 ), #120, .F. ) ;
#203 = DIRECTION ( 'NONE',  ( -0.000000000000000000, -0.000000000000000000, -1.000000000000000000 ) ) ;
#204 = VERTEX_POINT ( 'NONE', #464 ) ;
#205 = ADVANCED_FACE ( 'NONE', ( #59 ), #577, .T. ) ;
#206 = VECTOR ( 'NONE', #688, 1000.000000000000000 ) ;
#207 = CARTESIAN_POINT ( 'NONE',  ( 0.000000000000000000, 0.000000000000000000, 17.29289321881343255 ) ) ;
#208 = AXIS2_PLACEMENT_3D ( 'NONE', #663, #365, #64 ) ;
#209 = VECTOR ( 'NONE', #57, 1000.000000000000000 ) ;
#210 = ORIENTED_EDGE ( 'NONE', *, *, #116, .T. ) ;
#211 = FILL_AREA_STYLE_COLOUR ( '', #124 ) ;
#212 = EDGE_CURVE ( 'NONE', #729, #572, #732, .T. ) ;
#213 = DIRECTION ( 'NONE',  ( -1.000000000000000000, 0.000000000000000000, 0.000000000000000000 ) ) ;
#214 = EDGE_LOOP ( 'NONE', ( #88, #11, #748, #594 ) ) ;
#215 = ORIENTED_EDGE ( 'NONE', *, *, #442, .T. ) ;
#216 = DIRECTION ( 'NONE',  ( 1.000000000000000000, 0.000000000000000000, 0.000000000000000000 ) ) ;
#217 = CARTESIAN_POINT ( 'NONE',  ( 0.000000000000000000, 0.000000000000000000, 0.000000000000000000 ) ) ;
#218 = ORIENTED_EDGE ( 'NONE', *, *, #419, .T. ) ;
#219 = DIRECTION ( 'NONE',  ( 0.7095707365365171437, 8.689735312680756411E-17, -0.7046342099635984901 ) ) ;
#220 = CIRCLE ( 'NONE', #331, 52.00000000000000711 ) ;
#221 = DIRECTION ( 'NONE',  ( 1.000000000000000000, 0.000000000000000000, 0.000000000000000000 ) ) ;
#222 = CONICAL_SURFACE ( 'NONE', #532, 36.94177080567227733, 0.7888888219014316139 ) ;
#223 = CARTESIAN_POINT ( 'NONE',  ( 0.000000000000000000, 0.000000000000000000, 18.00000000000000355 ) ) ;
#224 = CARTESIAN_POINT ( 'NONE',  ( -5.209813981864140855E-18, 0.000000000000000000, 3.000000000000000000 ) ) ;
#225 = ADVANCED_FACE ( 'NONE', ( #361 ), #403, .F. ) ;
#226 = DIRECTION ( 'NONE',  ( -1.000000000000000000, 0.000000000000000000, 0.000000000000000000 ) ) ;
#227 = CARTESIAN_POINT ( 'NONE',  ( 0.000000000000000000, 0.000000000000000000, 18.00000000000000355 ) ) ;
#228 = EDGE_LOOP ( 'NONE', ( #326, #764, #133, #280 ) ) ;
#229 = DIRECTION ( 'NONE',  ( 0.000000000000000000, 0.000000000000000000, 1.000000000000000000 ) ) ;
#230 = CARTESIAN_POINT ( 'NONE',  ( 53.00000000000000711, 0.000000000000000000, 1.000000000000014655 ) ) ;
#231 = AXIS2_PLACEMENT_3D ( 'NONE', #501, #739, #445 ) ;
#232 = EDGE_LOOP ( 'NONE', ( #560, #176 ) ) ;
#233 = CIRCLE ( 'NONE', #530, 12.50000000000000000 ) ;
#234 = CONICAL_SURFACE ( 'NONE', #619, 52.00000000000000711, 0.7853981633974378429 ) ;
#235 = CARTESIAN_POINT ( 'NONE',  ( -53.00000000000000711, 6.490628035480973107E-15, 1.000000000000014655 ) ) ;
#236 = DIRECTION ( 'NONE',  ( 1.000000000000000000, 0.000000000000000000, 0.000000000000000000 ) ) ;
#237 = ORIENTED_EDGE ( 'NONE', *, *, #709, .F. ) ;
#238 = FACE_BOUND ( 'NONE', #707, .T. ) ;
#239 = SURFACE_STYLE_FILL_AREA ( #114 ) ;
#240 = VERTEX_POINT ( 'NONE', #169 ) ;
#241 = CARTESIAN_POINT ( 'NONE',  ( -35.00000000000007105, 4.286263797015745174E-15, 33.00000000000000000 ) ) ;
#242 = CARTESIAN_POINT ( 'NONE',  ( -13.00000000000001066, 1.592040838891560279E-15, 18.00000000000000355 ) ) ;
#243 = VERTEX_POINT ( 'NONE', #409 ) ;
#244 = ADVANCED_FACE ( 'NONE', ( #760 ), #342, .T. ) ;
#245 = AXIS2_PLACEMENT_3D ( 'NONE', #299, #182, #536 ) ;
#246 = AXIS2_PLACEMENT_3D ( 'NONE', #162, #515, #687 ) ;
#247 = CARTESIAN_POINT ( 'NONE',  ( 12.50000000000000000, 1.530808498934191521E-15, 3.000000000000000000 ) ) ;
#248 = CARTESIAN_POINT ( 'NONE',  ( 0.000000000000000000, 0.000000000000000000, 3.000000000000000000 ) ) ;
#249 = ORIENTED_EDGE ( 'NONE', *, *, #91, .F. ) ;
#250 = DIRECTION ( 'NONE',  ( -0.000000000000000000, -0.000000000000000000, -1.000000000000000000 ) ) ;
#251 = CARTESIAN_POINT ( 'NONE',  ( -5.209813981864140855E-18, 0.000000000000000000, 33.00000000000000000 ) ) ;
#252 = EDGE_LOOP ( 'NONE', ( #733, #609, #514, #249 ) ) ;
#253 = DIRECTION ( 'NONE',  ( 0.000000000000000000, 0.000000000000000000, 1.000000000000000000 ) ) ;
#254 = EDGE_CURVE ( 'NONE', #613, #272, #650, .T. ) ;
#255 = FACE_OUTER_BOUND ( 'NONE', #201, .T. ) ;
#256 = ORIENTED_EDGE ( 'NONE', *, *, #338, .T. ) ;
#257 = CIRCLE ( 'NONE', #381, 12.50000000000000000 ) ;
#258 = DIRECTION ( 'NONE',  ( -0.000000000000000000, -0.000000000000000000, -1.000000000000000000 ) ) ;
#259 = CIRCLE ( 'NONE', #543, 34.00000000000000000 ) ;
#260 = CARTESIAN_POINT ( 'NONE',  ( -12.64644660940671983, 1.570391937485672225E-15, 17.64644660940670207 ) ) ;
#261 = ORIENTED_EDGE ( 'NONE', *, *, #254, .F. ) ;
#262 = CARTESIAN_POINT ( 'NONE',  ( -34.00000000000000000, 4.163799117101000559E-15, 18.00000000000000355 ) ) ;
#263 = ORIENTED_EDGE ( 'NONE', *, *, #620, .T. ) ;
#264 = ADVANCED_FACE ( 'NONE', ( #492 ), #602, .T. ) ;
#265 = DIRECTION ( 'NONE',  ( -0.000000000000000000, -0.000000000000000000, -1.000000000000000000 ) ) ;
#266 = EDGE_LOOP ( 'NONE', ( #664, #623, #483, #661 ) ) ;
#267 = AXIS2_PLACEMENT_3D ( 'NONE', #151, #163, #42 ) ;
#268 = DIRECTION ( 'NONE',  ( 0.000000000000000000, 0.000000000000000000, 1.000000000000000000 ) ) ;
#269 = CIRCLE ( 'NONE', #19, 13.00000000000001066 ) ;
#270 = AXIS2_PLACEMENT_3D ( 'NONE', #431, #607, #63 ) ;
#271 = ORIENTED_EDGE ( 'NONE', *, *, #646, .F. ) ;
#272 = VERTEX_POINT ( 'NONE', #373 ) ;
#273 = DIRECTION ( 'NONE',  ( -0.000000000000000000, -0.000000000000000000, -1.000000000000000000 ) ) ;
#274 = CARTESIAN_POINT ( 'NONE',  ( 12.64644660940671983, 0.000000000000000000, 17.64644660940670207 ) ) ;
#275 = VERTEX_POINT ( 'NONE', #599 ) ;
#276 = DIRECTION ( 'NONE',  ( 0.000000000000000000, 0.000000000000000000, 1.000000000000000000 ) ) ;
#277 = ADVANCED_FACE ( 'NONE', ( #129 ), #545, .T. ) ;
#278 = CARTESIAN_POINT ( 'NONE',  ( -12.50000000000000000, 1.530808498934191521E-15, 17.49999999999997513 ) ) ;
#279 = CARTESIAN_POINT ( 'NONE',  ( 34.00000000000000000, 0.000000000000000000, 18.00000000000000355 ) ) ;
#280 = ORIENTED_EDGE ( 'NONE', *, *, #146, .T. ) ;
#281 = LINE ( 'NONE', #474, #496 ) ;
#282 = CONICAL_SURFACE ( 'NONE', #44, 12.99999999999999822, 0.7853981633974500554 ) ;
#283 = DIRECTION ( 'NONE',  ( 1.000000000000000000, 0.000000000000000000, 0.000000000000000000 ) ) ;
#284 = TOROIDAL_SURFACE ( 'NONE', #395, 13.00000000000000178, 0.5000000000000000000 ) ;
#285 = EDGE_LOOP ( 'NONE', ( #95, #743, #51, #126 ) ) ;
#286 = CARTESIAN_POINT ( 'NONE',  ( 38.04999999999999716, 0.000000000000000000, 3.000000000000000000 ) ) ;
#287 = DIRECTION ( 'NONE',  ( 0.000000000000000000, 0.000000000000000000, -1.000000000000000000 ) ) ;
#288 = VERTEX_POINT ( 'NONE', #14 ) ;
#289 = ADVANCED_FACE ( 'NONE', ( #736 ), #67, .T. ) ;
#290 = CARTESIAN_POINT ( 'NONE',  ( -36.94177080567227733, 0.000000000000000000, 33.00000000000000000 ) ) ;
#291 = ORIENTED_EDGE ( 'NONE', *, *, #589, .F. ) ;
#292 = DIRECTION ( 'NONE',  ( 1.000000000000000000, 0.000000000000000000, 0.000000000000000000 ) ) ;
#293 = DIRECTION ( 'NONE',  ( 0.000000000000000000, 0.000000000000000000, 1.000000000000000000 ) ) ;
#294 = CIRCLE ( 'NONE', #756, 34.00000000000000000 ) ;
#295 = VERTEX_POINT ( 'NONE', #242 ) ;
#296 = AXIS2_PLACEMENT_3D ( 'NONE', #548, #7, #306 ) ;
#297 = CIRCLE ( 'NONE', #630, 51.99999999999999289 ) ;
#298 = DIRECTION ( 'NONE',  ( 1.000000000000000000, 0.000000000000000000, -0.000000000000000000 ) ) ;
#299 = CARTESIAN_POINT ( 'NONE',  ( 0.000000000000000000, 0.000000000000000000, 1.000000000000014655 ) ) ;
#300 = ORIENTED_EDGE ( 'NONE', *, *, #662, .F. ) ;
#301 = CARTESIAN_POINT ( 'NONE',  ( 0.000000000000000000, 0.000000000000000000, 31.99999999999995381 ) ) ;
#302 = ADVANCED_FACE ( 'NONE', ( #311 ), #136, .T. ) ;
#303 = DIRECTION ( 'NONE',  ( 0.000000000000000000, 0.000000000000000000, -1.000000000000000000 ) ) ;
#304 = ORIENTED_EDGE ( 'NONE', *, *, #488, .T. ) ;
#305 = DIRECTION ( 'NONE',  ( -0.7071067811865401342, 0.000000000000000000, -0.7071067811865549002 ) ) ;
#306 = DIRECTION ( 'NONE',  ( -1.000000000000000000, 1.224646799147353454E-16, 0.000000000000000000 ) ) ;
#307 = EDGE_LOOP ( 'NONE', ( #581, #256, #441, #713 ) ) ;
#308 = AXIS2_PLACEMENT_3D ( 'NONE', #248, #303, #731 ) ;
#309 = VECTOR ( 'NONE', #305, 1000.000000000000000 ) ;
#310 = CARTESIAN_POINT ( 'NONE',  ( -5.209813981864140855E-18, 0.000000000000000000, 32.00000609234218274 ) ) ;
#311 = FACE_OUTER_BOUND ( 'NONE', #307, .T. ) ;
#312 = VERTEX_POINT ( 'NONE', #429 ) ;
#313 = FACE_OUTER_BOUND ( 'NONE', #187, .T. ) ;
#314 = CARTESIAN_POINT ( 'NONE',  ( 0.000000000000000000, 0.000000000000000000, 3.000000000000000000 ) ) ;
#315 = ORIENTED_EDGE ( 'NONE', *, *, #142, .T. ) ;
#316 = DIRECTION ( 'NONE',  ( -0.000000000000000000, -0.000000000000000000, -1.000000000000000000 ) ) ;
#317 = DIRECTION ( 'NONE',  ( 1.000000000000000000, 0.000000000000000000, 0.000000000000000000 ) ) ;
#318 = ORIENTED_EDGE ( 'NONE', *, *, #432, .F. ) ;
#319 = AXIS2_PLACEMENT_3D ( 'NONE', #571, #387, #32 ) ;
#320 = AXIS2_PLACEMENT_3D ( 'NONE', #99, #273, #330 ) ;
#321 = AXIS2_PLACEMENT_3D ( 'NONE', #466, #229, #710 ) ;
#322 = DIRECTION ( 'NONE',  ( 0.000000000000000000, 0.000000000000000000, 1.000000000000000000 ) ) ;
#323 = VERTEX_POINT ( 'NONE', #260 ) ;
#324 = CARTESIAN_POINT ( 'NONE',  ( 37.94877047096733236, 0.000000000000000000, 32.00000609234218274 ) ) ;
#325 = CARTESIAN_POINT ( 'NONE',  ( -53.00000000000000711, 0.000000000000000000, 1.999999999999978462 ) ) ;
#326 = ORIENTED_EDGE ( 'NONE', *, *, #637, .F. ) ;
#327 = DIRECTION ( 'NONE',  ( -1.000000000000000000, 0.000000000000000000, 0.000000000000000000 ) ) ;
#328 = VERTEX_POINT ( 'NONE', #612 ) ;
#329 = CIRCLE ( 'NONE', #642, 13.00000000000001066 ) ;
#330 = DIRECTION ( 'NONE',  ( -1.000000000000000000, 0.000000000000000000, 0.000000000000000000 ) ) ;
#331 = AXIS2_PLACEMENT_3D ( 'NONE', #191, #74, #317 ) ;
#332 = STYLED_ITEM ( 'NONE', ( #678 ), #416 ) ;
#333 = CARTESIAN_POINT ( 'NONE',  ( 0.000000000000000000, 0.000000000000000000, 18.00000000000000355 ) ) ;
#334 = EDGE_CURVE ( 'NONE', #613, #243, #517, .T. ) ;
#335 = PLANE ( 'NONE',  #18 ) ;
#336 = DIRECTION ( 'NONE',  ( 1.000000000000000000, 0.000000000000000000, 0.000000000000000000 ) ) ;
#337 = ORIENTED_EDGE ( 'NONE', *, *, #718, .T. ) ;
#338 = EDGE_CURVE ( 'NONE', #418, #87, #184, .T. ) ;
#339 = LINE ( 'NONE', #235, #758 ) ;
#340 = DIRECTION ( 'NONE',  ( 0.7071067811865340280, 0.000000000000000000, 0.7071067811865610064 ) ) ;
#341 = DIRECTION ( 'NONE',  ( 0.7071067811865549002, 0.000000000000000000, 0.7071067811865402453 ) ) ;
#342 = CONICAL_SURFACE ( 'NONE', #542, 38.04999999999999716, 0.003490658503988666988 ) ;
#343 = ADVANCED_FACE ( 'NONE', ( #255 ), #618, .T. ) ;
#344 = AXIS2_PLACEMENT_3D ( 'NONE', #415, #398, #406 ) ;
#345 = DIRECTION ( 'NONE',  ( 1.000000000000000000, 0.000000000000000000, 0.000000000000000000 ) ) ;
#346 = PRESENTATION_LAYER_ASSIGNMENT (  '', '', ( #332 ) ) ;
#347 = VERTEX_POINT ( 'NONE', #440 ) ;
#348 = DIRECTION ( 'NONE',  ( -1.000000000000000000, 0.000000000000000000, 0.000000000000000000 ) ) ;
#349 = FACE_OUTER_BOUND ( 'NONE', #656, .T. ) ;
#350 = VERTEX_POINT ( 'NONE', #197 ) ;
#351 = CYLINDRICAL_SURFACE ( 'NONE', #460, 34.00000000000000000 ) ;
#352 =( NAMED_UNIT ( * ) PLANE_ANGLE_UNIT ( ) SI_UNIT ( $, .RADIAN. ) );
#353 = ORIENTED_EDGE ( 'NONE', *, *, #484, .F. ) ;
#354 = FACE_BOUND ( 'NONE', #430, .T. ) ;
#355 = DIRECTION ( 'NONE',  ( 0.000000000000000000, 0.000000000000000000, -1.000000000000000000 ) ) ;
#356 = EDGE_LOOP ( 'NONE', ( #468, #78 ) ) ;
#357 = VECTOR ( 'NONE', #490, 1000.000000000000114 ) ;
#358 = AXIS2_PLACEMENT_3D ( 'NONE', #469, #50, #463 ) ;
#359 = EDGE_CURVE ( 'NONE', #323, #84, #423, .T. ) ;
#360 = LINE ( 'NONE', #247, #461 ) ;
#361 = FACE_OUTER_BOUND ( 'NONE', #546, .T. ) ;
#362 = ORIENTED_EDGE ( 'NONE', *, *, #671, .F. ) ;
#363 = EDGE_CURVE ( 'NONE', #350, #84, #554, .T. ) ;
#364 = CARTESIAN_POINT ( 'NONE',  ( -51.99999999999999289, 6.429395695523603956E-15, 0.000000000000000000 ) ) ;
#365 = DIRECTION ( 'NONE',  ( -0.000000000000000000, -0.000000000000000000, -1.000000000000000000 ) ) ;
#366 = ORIENTED_EDGE ( 'NONE', *, *, #502, .T. ) ;
#367 = CARTESIAN_POINT ( 'NONE',  ( -52.00000000000000711, 0.000000000000000000, 3.000000000000000000 ) ) ;
#368 = LINE ( 'NONE', #379, #357 ) ;
#369 = ORIENTED_EDGE ( 'NONE', *, *, #704, .F. ) ;
#370 = VECTOR ( 'NONE', #390, 1000.000000000000000 ) ;
#371 = CIRCLE ( 'NONE', #658, 37.94877047096733236 ) ;
#372 = AXIS2_PLACEMENT_3D ( 'NONE', #61, #253, #73 ) ;
#373 = CARTESIAN_POINT ( 'NONE',  ( -37.94877047096733236, -4.653582549820226993E-15, 32.00000609234218274 ) ) ;
#374 = VERTEX_POINT ( 'NONE', #608 ) ;
#375 = CARTESIAN_POINT ( 'NONE',  ( -34.00000000000000000, 4.163799117101000559E-15, 18.00000000000000355 ) ) ;
#376 = CARTESIAN_POINT ( 'NONE',  ( 0.000000000000000000, 0.000000000000000000, 17.29289321881343255 ) ) ;
#377 = ORIENTED_EDGE ( 'NONE', *, *, #776, .F. ) ;
#378 = SURFACE_STYLE_FILL_AREA ( #79 ) ;
#379 = CARTESIAN_POINT ( 'NONE',  ( -34.00000000000000000, 4.163799117101000559E-15, 31.99999999999995381 ) ) ;
#380 = ORIENTED_EDGE ( 'NONE', *, *, #334, .F. ) ;
#381 = AXIS2_PLACEMENT_3D ( 'NONE', #178, #47, #767 ) ;
#382 = AXIS2_PLACEMENT_3D ( 'NONE', #725, #186, #17 ) ;
#383 = EDGE_CURVE ( 'NONE', #204, #717, #368, .T. ) ;
#384 = DIRECTION ( 'NONE',  ( -0.7071067811865340280, 8.659560562354767690E-17, 0.7071067811865610064 ) ) ;
#385 = ORIENTED_EDGE ( 'NONE', *, *, #534, .F. ) ;
#386 = DIRECTION ( 'NONE',  ( -0.000000000000000000, -0.000000000000000000, 1.000000000000000000 ) ) ;
#387 = DIRECTION ( 'NONE',  ( -0.000000000000000000, -0.000000000000000000, -1.000000000000000000 ) ) ;
#388 = ORIENTED_EDGE ( 'NONE', *, *, #585, .T. ) ;
#389 = FACE_OUTER_BOUND ( 'NONE', #491, .T. ) ;
#390 = DIRECTION ( 'NONE',  ( -0.000000000000000000, -0.000000000000000000, -1.000000000000000000 ) ) ;
#391 = EDGE_CURVE ( 'NONE', #204, #524, #6, .T. ) ;
#392 = CARTESIAN_POINT ( 'NONE',  ( 0.000000000000000000, 0.000000000000000000, 0.000000000000000000 ) ) ;
#393 = DIRECTION ( 'NONE',  ( 0.000000000000000000, 0.000000000000000000, 1.000000000000000000 ) ) ;
#394 = CIRCLE ( 'NONE', #757, 0.5000000000000000000 ) ;
#395 = AXIS2_PLACEMENT_3D ( 'NONE', #730, #127, #185 ) ;
#396 = LINE ( 'NONE', #279, #670 ) ;
#397 = ORIENTED_EDGE ( 'NONE', *, *, #254, .T. ) ;
#398 = DIRECTION ( 'NONE',  ( 0.000000000000000000, 0.000000000000000000, 1.000000000000000000 ) ) ;
#399 = ORIENTED_EDGE ( 'NONE', *, *, #363, .F. ) ;
#400 = ORIENTED_EDGE ( 'NONE', *, *, #338, .F. ) ;
#401 = EDGE_CURVE ( 'NONE', #493, #347, #220, .T. ) ;
#402 = CARTESIAN_POINT ( 'NONE',  ( -12.50000000000000000, 0.000000000000000000, 3.000000000000000000 ) ) ;
#403 = CYLINDRICAL_SURFACE ( 'NONE', #683, 34.00000000000000000 ) ;
#404 = ORIENTED_EDGE ( 'NONE', *, *, #709, .T. ) ;
#405 = ADVANCED_FACE ( 'NONE', ( #675 ), #551, .F. ) ;
#406 = DIRECTION ( 'NONE',  ( 1.000000000000000000, 0.000000000000000000, -0.000000000000000000 ) ) ;
#407 = AXIS2_PLACEMENT_3D ( 'NONE', #314, #538, #2 ) ;
#408 = CIRCLE ( 'NONE', #246, 35.00000000000007105 ) ;
#409 = CARTESIAN_POINT ( 'NONE',  ( 36.94177080567227733, 4.585723083042471770E-15, 33.00000000000000000 ) ) ;
#410 = CIRCLE ( 'NONE', #196, 36.94177080567227733 ) ;
#411 = ORIENTED_EDGE ( 'NONE', *, *, #383, .T. ) ;
#412 = DIRECTION ( 'NONE',  ( -0.7071067811865474617, 8.659560562354932858E-17, 0.7071067811865474617 ) ) ;
#413 = DIRECTION ( 'NONE',  ( 1.000000000000000000, 0.000000000000000000, 0.000000000000000000 ) ) ;
#414 = VERTEX_POINT ( 'NONE', #497 ) ;
#415 = CARTESIAN_POINT ( 'NONE',  ( 0.000000000000000000, 0.000000000000000000, 0.000000000000000000 ) ) ;
#416 = ADVANCED_BREP_SHAPE_REPRESENTATION ( '202500614-10206P01', ( #145, #122 ), #471 ) ;
#417 = CARTESIAN_POINT ( 'NONE',  ( 0.000000000000000000, 0.000000000000000000, 1.999999999999978462 ) ) ;
#418 = VERTEX_POINT ( 'NONE', #666 ) ;
#419 = EDGE_CURVE ( 'NONE', #544, #272, #371, .T. ) ;
#420 = LINE ( 'NONE', #597, #645 ) ;
#421 =( NAMED_UNIT ( * ) SI_UNIT ( $, .STERADIAN. ) SOLID_ANGLE_UNIT ( ) );
#422 = AXIS2_PLACEMENT_3D ( 'NONE', #39, #684, #452 ) ;
#423 = CIRCLE ( 'NONE', #33, 12.64644660940671983 ) ;
#424 = ORIENTED_EDGE ( 'NONE', *, *, #475, .F. ) ;
#425 = CARTESIAN_POINT ( 'NONE',  ( -5.209813981864140855E-18, 0.000000000000000000, 3.000000000000000000 ) ) ;
#426 = ORIENTED_EDGE ( 'NONE', *, *, #35, .F. ) ;
#427 = CARTESIAN_POINT ( 'NONE',  ( -5.209813981864140855E-18, 0.000000000000000000, 33.00000000000000000 ) ) ;
#428 = EDGE_CURVE ( 'NONE', #312, #328, #394, .T. ) ;
#429 = CARTESIAN_POINT ( 'NONE',  ( 12.50000000000000000, 1.530808498934191521E-15, 0.7071067811865424657 ) ) ;
#430 = EDGE_LOOP ( 'NONE', ( #315, #768 ) ) ;
#431 = CARTESIAN_POINT ( 'NONE',  ( 0.000000000000000000, 0.000000000000000000, 3.000000000000000000 ) ) ;
#432 = EDGE_CURVE ( 'NONE', #288, #717, #408, .T. ) ;
#433 = DIRECTION ( 'NONE',  ( -1.224646799147353207E-16, 1.000000000000000000, 0.000000000000000000 ) ) ;
#434 = ORIENTED_EDGE ( 'NONE', *, *, #432, .T. ) ;
#435 = CONICAL_SURFACE ( 'NONE', #134, 12.50000000000000000, 0.7853981633974291832 ) ;
#436 = VECTOR ( 'NONE', #582, 1000.000000000000000 ) ;
#437 = DIRECTION ( 'NONE',  ( -1.000000000000000000, 0.000000000000000000, 0.000000000000000000 ) ) ;
#438 = DIRECTION ( 'NONE',  ( -1.000000000000000000, 0.000000000000000000, 0.000000000000000000 ) ) ;
#439 = ORIENTED_EDGE ( 'NONE', *, *, #704, .T. ) ;
#440 = CARTESIAN_POINT ( 'NONE',  ( 52.00000000000000711, 6.429395695523605533E-15, 3.000000000000000000 ) ) ;
#441 = ORIENTED_EDGE ( 'NONE', *, *, #116, .F. ) ;
#442 = EDGE_CURVE ( 'NONE', #243, #544, #753, .T. ) ;
#443 = DIRECTION ( 'NONE',  ( 0.000000000000000000, 0.000000000000000000, 1.000000000000000000 ) ) ;
#444 = APPLICATION_CONTEXT ( 'automotive_design' ) ;
#445 = DIRECTION ( 'NONE',  ( 1.000000000000000000, 0.000000000000000000, 0.000000000000000000 ) ) ;
#446 = AXIS2_PLACEMENT_3D ( 'NONE', #763, #293, #706 ) ;
#447 = CONICAL_SURFACE ( 'NONE', #708, 38.04999999999999716, 0.003490658503988666988 ) ;
#448 = PRODUCT_CONTEXT ( 'NONE', #444, 'mechanical' ) ;
#449 = DIRECTION ( 'NONE',  ( 1.000000000000000000, 0.000000000000000000, 0.000000000000000000 ) ) ;
#450 = FACE_OUTER_BOUND ( 'NONE', #156, .T. ) ;
#451 = CARTESIAN_POINT ( 'NONE',  ( 13.00000000000000178, 0.000000000000000000, 0.7071067811865423547 ) ) ;
#452 = DIRECTION ( 'NONE',  ( -1.000000000000000000, 0.000000000000000000, 0.000000000000000000 ) ) ;
#453 = ORIENTED_EDGE ( 'NONE', *, *, #662, .T. ) ;
#454 = DIRECTION ( 'NONE',  ( 1.000000000000000000, 0.000000000000000000, 0.000000000000000000 ) ) ;
#455 = EDGE_CURVE ( 'NONE', #295, #374, #269, .T. ) ;
#456 = CARTESIAN_POINT ( 'NONE',  ( 0.000000000000000000, 0.000000000000000000, 17.49999999999997513 ) ) ;
#457 = AXIS2_PLACEMENT_3D ( 'NONE', #467, #287, #118 ) ;
#458 = CIRCLE ( 'NONE', #773, 12.99999999999999822 ) ;
#459 = CARTESIAN_POINT ( 'NONE',  ( -52.00000000000000711, 0.000000000000000000, 3.000000000000000000 ) ) ;
#460 = AXIS2_PLACEMENT_3D ( 'NONE', #586, #46, #292 ) ;
#461 = VECTOR ( 'NONE', #258, 1000.000000000000000 ) ;
#462 = FACE_OUTER_BOUND ( 'NONE', #285, .T. ) ;
#463 = DIRECTION ( 'NONE',  ( 1.000000000000000000, 0.000000000000000000, 0.000000000000000000 ) ) ;
#464 = CARTESIAN_POINT ( 'NONE',  ( -34.00000000000000000, 4.163799117101000559E-15, 31.99999999999995381 ) ) ;
#465 = ADVANCED_FACE ( 'NONE', ( #389 ), #282, .F. ) ;
#466 = CARTESIAN_POINT ( 'NONE',  ( 0.000000000000000000, 0.000000000000000000, 31.99999999999995381 ) ) ;
#467 = CARTESIAN_POINT ( 'NONE',  ( 0.000000000000000000, 0.000000000000000000, 1.999999999999978462 ) ) ;
#468 = ORIENTED_EDGE ( 'NONE', *, *, #519, .T. ) ;
#469 = CARTESIAN_POINT ( 'NONE',  ( 0.000000000000000000, 0.000000000000000000, 0.7071067811865424657 ) ) ;
#470 = VECTOR ( 'NONE', #219, 1000.000000000000000 ) ;
#471 =( GEOMETRIC_REPRESENTATION_CONTEXT ( 3 ) GLOBAL_UNCERTAINTY_ASSIGNED_CONTEXT ( ( #769 ) ) GLOBAL_UNIT_ASSIGNED_CONTEXT ( ( #9, #123, #485 ) ) REPRESENTATION_CONTEXT ( 'NONE', 'WORKASPACE' ) );
#472 = ORIENTED_EDGE ( 'NONE', *, *, #35, .T. ) ;
#473 = PRODUCT_DEFINITION_CONTEXT ( 'detailed design', #654, 'design' ) ;
#474 = CARTESIAN_POINT ( 'NONE',  ( -38.04999999999999716, -4.659781070755679014E-15, 3.000000000000000000 ) ) ;
#475 = EDGE_CURVE ( 'NONE', #635, #350, #233, .T. ) ;
#476 = DIRECTION ( 'NONE',  ( -0.000000000000000000, -0.000000000000000000, -1.000000000000000000 ) ) ;
#477 = ORIENTED_EDGE ( 'NONE', *, *, #749, .T. ) ;
#478 = EDGE_CURVE ( 'NONE', #87, #328, #482, .T. ) ;
#479 = ORIENTED_EDGE ( 'NONE', *, *, #677, .F. ) ;
#480 = DIRECTION ( 'NONE',  ( 0.000000000000000000, 0.000000000000000000, 1.000000000000000000 ) ) ;
#481 = STYLED_ITEM ( 'NONE', ( #583 ), #145 ) ;
#482 = CIRCLE ( 'NONE', #195, 12.64644660940673049 ) ;
#483 = ORIENTED_EDGE ( 'NONE', *, *, #359, .F. ) ;
#484 = EDGE_CURVE ( 'NONE', #84, #323, #69, .T. ) ;
#485 =( NAMED_UNIT ( * ) SI_UNIT ( $, .STERADIAN. ) SOLID_ANGLE_UNIT ( ) );
#486 = DIRECTION ( 'NONE',  ( -0.7095707365365171437, 0.000000000000000000, -0.7046342099635984901 ) ) ;
#487 = ORIENTED_EDGE ( 'NONE', *, *, #401, .T. ) ;
#488 = EDGE_CURVE ( 'NONE', #640, #28, #578, .T. ) ;
#489 = FACE_OUTER_BOUND ( 'NONE', #605, .T. ) ;
#490 = DIRECTION ( 'NONE',  ( -0.7071067811865549002, 8.659560562355021605E-17, 0.7071067811865402453 ) ) ;
#491 = EDGE_LOOP ( 'NONE', ( #426, #210, #75, #190 ) ) ;
#492 = FACE_OUTER_BOUND ( 'NONE', #648, .T. ) ;
#493 = VERTEX_POINT ( 'NONE', #459 ) ;
#494 = COLOUR_RGB ( '',0.6470588235294117974, 0.6196078431372549211, 0.5882352941176470784 ) ;
#495 = AXIS2_PLACEMENT_3D ( 'NONE', #714, #113, #298 ) ;
#496 = VECTOR ( 'NONE', #702, 1000.000000000000000 ) ;
#497 = CARTESIAN_POINT ( 'NONE',  ( 34.00000000000000000, 0.000000000000000000, 18.00000000000000355 ) ) ;
#498 = EDGE_CURVE ( 'NONE', #275, #240, #771, .T. ) ;
#499 = ORIENTED_EDGE ( 'NONE', *, *, #174, .T. ) ;
#500 = CARTESIAN_POINT ( 'NONE',  ( 0.000000000000000000, 0.000000000000000000, 0.3535533905932655707 ) ) ;
#501 = CARTESIAN_POINT ( 'NONE',  ( 0.000000000000000000, 0.000000000000000000, 0.3535533905932655707 ) ) ;
#502 = EDGE_CURVE ( 'NONE', #240, #275, #604, .T. ) ;
#503 = DIRECTION ( 'NONE',  ( -0.000000000000000000, -0.000000000000000000, -1.000000000000000000 ) ) ;
#504 = CARTESIAN_POINT ( 'NONE',  ( 12.99999999999999822, 1.592040838891558898E-15, 0.000000000000000000 ) ) ;
#505 = CLOSED_SHELL ( 'NONE', ( #302, #289, #511, #110, #205, #580, #727, #202, #573, #550, #277, #405, #55, #527, #561, #264, #565, #244, #225, #598, #701, #651, #343, #104, #80, #465, #3, #754 ) ) ;
#506 = SURFACE_SIDE_STYLE ('',( #378 ) ) ;
#507 = AXIS2_PLACEMENT_3D ( 'NONE', #223, #109, #41 ) ;
#508 = DIRECTION ( 'NONE',  ( -0.000000000000000000, -0.000000000000000000, -1.000000000000000000 ) ) ;
#509 = LINE ( 'NONE', #27, #370 ) ;
#510 = ORIENTED_EDGE ( 'NONE', *, *, #519, .F. ) ;
#511 = ADVANCED_FACE ( 'NONE', ( #157 ), #629, .F. ) ;
#512 = DIRECTION ( 'NONE',  ( -0.000000000000000000, -0.000000000000000000, 1.000000000000000000 ) ) ;
#513 = LINE ( 'NONE', #751, #603 ) ;
#514 = ORIENTED_EDGE ( 'NONE', *, *, #391, .T. ) ;
#515 = DIRECTION ( 'NONE',  ( -0.000000000000000000, -0.000000000000000000, -1.000000000000000000 ) ) ;
#516 = CARTESIAN_POINT ( 'NONE',  ( 0.000000000000000000, 0.000000000000000000, 1.000000000000014655 ) ) ;
#517 = CIRCLE ( 'NONE', #643, 36.94177080567227733 ) ;
#518 = CARTESIAN_POINT ( 'NONE',  ( -12.50000000000000000, 0.000000000000000000, 17.29289321881343255 ) ) ;
#519 = EDGE_CURVE ( 'NONE', #414, #533, #259, .T. ) ;
#520 = EDGE_LOOP ( 'NONE', ( #676, #472, #628, #588 ) ) ;
#521 = FACE_OUTER_BOUND ( 'NONE', #60, .T. ) ;
#522 = SURFACE_STYLE_USAGE ( .BOTH. , #703 ) ;
#523 = EDGE_CURVE ( 'NONE', #635, #323, #96, .T. ) ;
#524 = VERTEX_POINT ( 'NONE', #742 ) ;
#525 = DIRECTION ( 'NONE',  ( 0.000000000000000000, 0.000000000000000000, -1.000000000000000000 ) ) ;
#526 = ORIENTED_EDGE ( 'NONE', *, *, #164, .T. ) ;
#527 = ADVANCED_FACE ( 'NONE', ( #615, #689 ), #335, .T. ) ;
#528 = CARTESIAN_POINT ( 'NONE',  ( -38.04999999999999716, -4.659781070755679014E-15, 3.000000000000000000 ) ) ;
#529 = VECTOR ( 'NONE', #655, 1000.000000000000000 ) ;
#530 = AXIS2_PLACEMENT_3D ( 'NONE', #207, #443, #327 ) ;
#531 =( LENGTH_UNIT ( ) NAMED_UNIT ( * ) SI_UNIT ( .MILLI., .METRE. ) );
#532 = AXIS2_PLACEMENT_3D ( 'NONE', #427, #68, #437 ) ;
#533 = VERTEX_POINT ( 'NONE', #262 ) ;
#534 = EDGE_CURVE ( 'NONE', #323, #295, #626, .T. ) ;
#535 = LINE ( 'NONE', #105, #722 ) ;
#536 = DIRECTION ( 'NONE',  ( 1.000000000000000000, 0.000000000000000000, 0.000000000000000000 ) ) ;
#537 = ORIENTED_EDGE ( 'NONE', *, *, #419, .F. ) ;
#538 = DIRECTION ( 'NONE',  ( -0.000000000000000000, -0.000000000000000000, -1.000000000000000000 ) ) ;
#539 = VERTEX_POINT ( 'NONE', #86 ) ;
#540 = DIRECTION ( 'NONE',  ( 0.000000000000000000, 0.000000000000000000, 1.000000000000000000 ) ) ;
#541 = CARTESIAN_POINT ( 'NONE',  ( 0.000000000000000000, 0.000000000000000000, 0.7071067811865423547 ) ) ;
#542 = AXIS2_PLACEMENT_3D ( 'NONE', #224, #111, #413 ) ;
#543 = AXIS2_PLACEMENT_3D ( 'NONE', #568, #268, #23 ) ;
#544 = VERTEX_POINT ( 'NONE', #324 ) ;
#545 = CYLINDRICAL_SURFACE ( 'NONE', #208, 53.00000000000000711 ) ;
#546 = EDGE_LOOP ( 'NONE', ( #49, #510, #680, #453 ) ) ;
#547 = CARTESIAN_POINT ( 'NONE',  ( 0.000000000000000000, 0.000000000000000000, 33.00000000000000000 ) ) ;
#548 = CARTESIAN_POINT ( 'NONE',  ( -13.00000000000000178, 1.592040838891559293E-15, 0.7071067811865423547 ) ) ;
#549 = EDGE_LOOP ( 'NONE', ( #557, #263, #66, #778 ) ) ;
#550 = ADVANCED_FACE ( 'NONE', ( #559 ), #447, .T. ) ;
#551 = CYLINDRICAL_SURFACE ( 'NONE', #382, 12.50000000000000000 ) ;
#552 = AXIS2_PLACEMENT_3D ( 'NONE', #417, #355, #345 ) ;
#553 = ORIENTED_EDGE ( 'NONE', *, *, #24, .T. ) ;
#554 = CIRCLE ( 'NONE', #744, 0.5000000000000004441 ) ;
#555 = CONICAL_SURFACE ( 'NONE', #70, 36.94177080567227733, 0.7888888219014316139 ) ;
#556 = DIRECTION ( 'NONE',  ( 0.000000000000000000, 0.000000000000000000, 1.000000000000000000 ) ) ;
#557 = ORIENTED_EDGE ( 'NONE', *, *, #212, .F. ) ;
#558 = PRODUCT_DEFINITION_SHAPE ( 'NONE', 'NONE',  #686 ) ;
#559 = FACE_OUTER_BOUND ( 'NONE', #72, .T. ) ;
#560 = ORIENTED_EDGE ( 'NONE', *, *, #334, .T. ) ;
#561 = ADVANCED_FACE ( 'NONE', ( #238, #649 ), #705, .F. ) ;
#562 = VERTEX_POINT ( 'NONE', #528 ) ;
#563 = CARTESIAN_POINT ( 'NONE',  ( 0.000000000000000000, 0.000000000000000000, 1.000000000000014655 ) ) ;
#564 = ORIENTED_EDGE ( 'NONE', *, *, #646, .T. ) ;
#565 = ADVANCED_FACE ( 'NONE', ( #117, #759 ), #165, .T. ) ;
#566 = ORIENTED_EDGE ( 'NONE', *, *, #174, .F. ) ;
#567 = CIRCLE ( 'NONE', #552, 53.00000000000000711 ) ;
#568 = CARTESIAN_POINT ( 'NONE',  ( 0.000000000000000000, 0.000000000000000000, 18.00000000000000355 ) ) ;
#569 = CARTESIAN_POINT ( 'NONE',  ( -12.99999999999999822, 0.000000000000000000, 0.000000000000000000 ) ) ;
#570 = DIRECTION ( 'NONE',  ( -1.000000000000000000, 0.000000000000000000, 0.000000000000000000 ) ) ;
#571 = CARTESIAN_POINT ( 'NONE',  ( 0.000000000000000000, 0.000000000000000000, 3.000000000000000000 ) ) ;
#572 = VERTEX_POINT ( 'NONE', #766 ) ;
#573 = ADVANCED_FACE ( 'NONE', ( #772 ), #351, .F. ) ;
#574 = DIRECTION ( 'NONE',  ( 0.000000000000000000, 0.000000000000000000, -1.000000000000000000 ) ) ;
#575 = FACE_OUTER_BOUND ( 'NONE', #108, .T. ) ;
#576 = ORIENTED_EDGE ( 'NONE', *, *, #428, .T. ) ;
#577 = CONICAL_SURFACE ( 'NONE', #245, 53.00000000000000711, 0.7853981633974482790 ) ;
#578 = CIRCLE ( 'NONE', #672, 12.99999999999999822 ) ;
#579 = LINE ( 'NONE', #402, #436 ) ;
#580 = ADVANCED_FACE ( 'NONE', ( #590 ), #234, .T. ) ;
#581 = ORIENTED_EDGE ( 'NONE', *, *, #614, .F. ) ;
#582 = DIRECTION ( 'NONE',  ( -0.000000000000000000, -0.000000000000000000, -1.000000000000000000 ) ) ;
#583 = PRESENTATION_STYLE_ASSIGNMENT (( #522 ) ) ;
#584 = ORIENTED_EDGE ( 'NONE', *, *, #179, .F. ) ;
#585 = EDGE_CURVE ( 'NONE', #28, #640, #458, .T. ) ;
#586 = CARTESIAN_POINT ( 'NONE',  ( 0.000000000000000000, 0.000000000000000000, 18.00000000000000355 ) ) ;
#587 = CARTESIAN_POINT ( 'NONE',  ( -36.94177080567227733, 0.000000000000000000, 33.00000000000000000 ) ) ;
#588 = ORIENTED_EDGE ( 'NONE', *, *, #48, .F. ) ;
#589 = EDGE_CURVE ( 'NONE', #635, #418, #579, .T. ) ;
#590 = FACE_OUTER_BOUND ( 'NONE', #214, .T. ) ;
#591 = VECTOR ( 'NONE', #486, 1000.000000000000000 ) ;
#592 = AXIS2_PLACEMENT_3D ( 'NONE', #563, #512, #148 ) ;
#593 = AXIS2_PLACEMENT_3D ( 'NONE', #301, #1, #135 ) ;
#594 = ORIENTED_EDGE ( 'NONE', *, *, #718, .F. ) ;
#595 = DIRECTION ( 'NONE',  ( -0.000000000000000000, -0.000000000000000000, 1.000000000000000000 ) ) ;
#596 = EDGE_LOOP ( 'NONE', ( #385, #138, #700, #633 ) ) ;
#597 = CARTESIAN_POINT ( 'NONE',  ( 52.00000000000000711, 6.368163355566237170E-15, 3.000000000000000000 ) ) ;
#598 = ADVANCED_FACE ( 'NONE', ( #354, #644 ), #52, .T. ) ;
#599 = CARTESIAN_POINT ( 'NONE',  ( -53.00000000000000711, 0.000000000000000000, 1.000000000000014655 ) ) ;
#600 = ORIENTED_EDGE ( 'NONE', *, *, #442, .F. ) ;
#601 = FACE_OUTER_BOUND ( 'NONE', #752, .T. ) ;
#602 = CYLINDRICAL_SURFACE ( 'NONE', #407, 53.00000000000000711 ) ;
#603 = VECTOR ( 'NONE', #340, 1000.000000000000000 ) ;
#604 = CIRCLE ( 'NONE', #685, 53.00000000000000711 ) ;
#605 = EDGE_LOOP ( 'NONE', ( #400, #775, #576, #115 ) ) ;
#606 = CIRCLE ( 'NONE', #358, 12.50000000000000000 ) ;
#607 = DIRECTION ( 'NONE',  ( 0.000000000000000000, 0.000000000000000000, 1.000000000000000000 ) ) ;
#608 = CARTESIAN_POINT ( 'NONE',  ( 13.00000000000001066, 0.000000000000000000, 18.00000000000000355 ) ) ;
#609 = ORIENTED_EDGE ( 'NONE', *, *, #761, .T. ) ;
#610 = EDGE_CURVE ( 'NONE', #544, #617, #101, .T. ) ;
#611 = DIRECTION ( 'NONE',  ( -0.000000000000000000, -0.000000000000000000, 1.000000000000000000 ) ) ;
#612 = CARTESIAN_POINT ( 'NONE',  ( 12.64644660940673049, 1.570391937485672028E-15, 0.3535533905932655707 ) ) ;
#613 = VERTEX_POINT ( 'NONE', #290 ) ;
#614 = EDGE_CURVE ( 'NONE', #418, #312, #606, .T. ) ;
#615 = FACE_OUTER_BOUND ( 'NONE', #652, .T. ) ;
#616 = AXIS2_PLACEMENT_3D ( 'NONE', #516, #755, #221 ) ;
#617 = VERTEX_POINT ( 'NONE', #173 ) ;
#618 = CONICAL_SURFACE ( 'NONE', #308, 52.00000000000000711, 0.7853981633974378429 ) ;
#619 = AXIS2_PLACEMENT_3D ( 'NONE', #177, #574, #348 ) ;
#620 = EDGE_CURVE ( 'NONE', #729, #275, #339, .T. ) ;
#621 = DIRECTION ( 'NONE',  ( -1.000000000000000000, 0.000000000000000000, 0.000000000000000000 ) ) ;
#622 = DIRECTION ( 'NONE',  ( -0.000000000000000000, -0.000000000000000000, 1.000000000000000000 ) ) ;
#623 = ORIENTED_EDGE ( 'NONE', *, *, #363, .T. ) ;
#624 = DIRECTION ( 'NONE',  ( 0.000000000000000000, -1.000000000000000000, 0.000000000000000000 ) ) ;
#625 = FACE_OUTER_BOUND ( 'NONE', #596, .T. ) ;
#626 = LINE ( 'NONE', #278, #56 ) ;
#627 = DIRECTION ( 'NONE',  ( 0.000000000000000000, 0.000000000000000000, 1.000000000000000000 ) ) ;
#628 = ORIENTED_EDGE ( 'NONE', *, *, #488, .F. ) ;
#629 = CONICAL_SURFACE ( 'NONE', #320, 12.99999999999999822, 0.7853981633974500554 ) ;
#630 = AXIS2_PLACEMENT_3D ( 'NONE', #668, #316, #720 ) ;
#631 = CARTESIAN_POINT ( 'NONE',  ( 0.000000000000000000, 0.000000000000000000, 17.64644660940670207 ) ) ;
#632 = CYLINDRICAL_SURFACE ( 'NONE', #319, 12.50000000000000000 ) ;
#633 = ORIENTED_EDGE ( 'NONE', *, *, #455, .F. ) ;
#634 = DIRECTION ( 'NONE',  ( 1.000000000000000000, 0.000000000000000000, 0.000000000000000000 ) ) ;
#635 = VERTEX_POINT ( 'NONE', #518 ) ;
#636 = ORIENTED_EDGE ( 'NONE', *, *, #637, .T. ) ;
#637 = EDGE_CURVE ( 'NONE', #272, #562, #281, .T. ) ;
#638 = CARTESIAN_POINT ( 'NONE',  ( -12.99999999999999822, 0.000000000000000000, 0.000000000000000000 ) ) ;
#639 = FILL_AREA_STYLE_COLOUR ( '', #494 ) ;
#640 = VERTEX_POINT ( 'NONE', #638 ) ;
#641 = UNCERTAINTY_MEASURE_WITH_UNIT (LENGTH_MEASURE( 1.000000000000000082E-05 ), #22, 'distance_accuracy_value', 'NONE');
#642 = AXIS2_PLACEMENT_3D ( 'NONE', #227, #476, #647 ) ;
#643 = AXIS2_PLACEMENT_3D ( 'NONE', #251, #723, #140 ) ;
#644 = FACE_OUTER_BOUND ( 'NONE', #356, .T. ) ;
#645 = VECTOR ( 'NONE', #194, 1000.000000000000000 ) ;
#646 = EDGE_CURVE ( 'NONE', #524, #288, #535, .T. ) ;
#647 = DIRECTION ( 'NONE',  ( 1.000000000000000000, 0.000000000000000000, 0.000000000000000000 ) ) ;
#648 = EDGE_LOOP ( 'NONE', ( #726, #167, #499, #667 ) ) ;
#649 = FACE_OUTER_BOUND ( 'NONE', #199, .T. ) ;
#650 = LINE ( 'NONE', #587, #591 ) ;
#651 = ADVANCED_FACE ( 'NONE', ( #521 ), #555, .T. ) ;
#652 = EDGE_LOOP ( 'NONE', ( #487, #696 ) ) ;
#653 = DIRECTION ( 'NONE',  ( 0.000000000000000000, 0.000000000000000000, 1.000000000000000000 ) ) ;
#654 = APPLICATION_CONTEXT ( 'automotive_design' ) ;
#655 = DIRECTION ( 'NONE',  ( -0.000000000000000000, -0.000000000000000000, -1.000000000000000000 ) ) ;
#656 = EDGE_LOOP ( 'NONE', ( #20, #411, #318, #271 ) ) ;
#657 = DIRECTION ( 'NONE',  ( 1.000000000000000000, 0.000000000000000000, 0.000000000000000000 ) ) ;
#658 = AXIS2_PLACEMENT_3D ( 'NONE', #132, #203, #570 ) ;
#659 =( GEOMETRIC_REPRESENTATION_CONTEXT ( 3 ) GLOBAL_UNCERTAINTY_ASSIGNED_CONTEXT ( ( #641 ) ) GLOBAL_UNIT_ASSIGNED_CONTEXT ( ( #22, #29, #741 ) ) REPRESENTATION_CONTEXT ( 'NONE', 'WORKASPACE' ) );
#660 = DIRECTION ( 'NONE',  ( 0.7071067811865474617, 0.000000000000000000, 0.7071067811865474617 ) ) ;
#661 = ORIENTED_EDGE ( 'NONE', *, *, #523, .F. ) ;
#662 = EDGE_CURVE ( 'NONE', #524, #204, #711, .T. ) ;
#663 = CARTESIAN_POINT ( 'NONE',  ( 0.000000000000000000, 0.000000000000000000, 3.000000000000000000 ) ) ;
#664 = ORIENTED_EDGE ( 'NONE', *, *, #749, .F. ) ;
#665 = CARTESIAN_POINT ( 'NONE',  ( -5.209813981864140855E-18, 0.000000000000000000, 33.00000000000000000 ) ) ;
#666 = CARTESIAN_POINT ( 'NONE',  ( -12.50000000000000000, 0.000000000000000000, 0.7071067811865424657 ) ) ;
#667 = ORIENTED_EDGE ( 'NONE', *, *, #498, .T. ) ;
#668 = CARTESIAN_POINT ( 'NONE',  ( 0.000000000000000000, 0.000000000000000000, 0.000000000000000000 ) ) ;
#669 = CARTESIAN_POINT ( 'NONE',  ( 0.000000000000000000, 0.000000000000000000, 31.99999999999995381 ) ) ;
#670 = VECTOR ( 'NONE', #622, 1000.000000000000000 ) ;
#671 = EDGE_CURVE ( 'NONE', #347, #539, #420, .T. ) ;
#672 = AXIS2_PLACEMENT_3D ( 'NONE', #699, #393, #93 ) ;
#673 = EDGE_LOOP ( 'NONE', ( #434, #404 ) ) ;
#674 = DIRECTION ( 'NONE',  ( 1.000000000000000000, 0.000000000000000000, 0.000000000000000000 ) ) ;
#675 = FACE_OUTER_BOUND ( 'NONE', #62, .T. ) ;
#676 = ORIENTED_EDGE ( 'NONE', *, *, #478, .T. ) ;
#677 = EDGE_CURVE ( 'NONE', #272, #544, #161, .T. ) ;
#678 = PRESENTATION_STYLE_ASSIGNMENT (( #746 ) ) ;
#679 = DIRECTION ( 'NONE',  ( 1.000000000000000000, 0.000000000000000000, 0.000000000000000000 ) ) ;
#680 = ORIENTED_EDGE ( 'NONE', *, *, #91, .T. ) ;
#681 = DIRECTION ( 'NONE',  ( -0.000000000000000000, -0.000000000000000000, -1.000000000000000000 ) ) ;
#682 = PRODUCT ( '202500614-10206P01', '202500614-10206P01', '', ( #448 ) ) ;
#683 = AXIS2_PLACEMENT_3D ( 'NONE', #175, #595, #283 ) ;
#684 = DIRECTION ( 'NONE',  ( -0.000000000000000000, -0.000000000000000000, -1.000000000000000000 ) ) ;
#685 = AXIS2_PLACEMENT_3D ( 'NONE', #30, #386, #454 ) ;
#686 = PRODUCT_DEFINITION ( 'UNKNOWN', '', #83, #473 ) ;
#687 = DIRECTION ( 'NONE',  ( 1.000000000000000000, 0.000000000000000000, 0.000000000000000000 ) ) ;
#688 = DIRECTION ( 'NONE',  ( -0.7071067811865487940, 0.000000000000000000, -0.7071067811865463515 ) ) ;
#689 = FACE_BOUND ( 'NONE', #130, .T. ) ;
#690 = LINE ( 'NONE', #504, #695 ) ;
#691 = APPLICATION_PROTOCOL_DEFINITION ( 'draft international standard', 'automotive_design', 1998, #654 ) ;
#692 = DIRECTION ( 'NONE',  ( 1.000000000000000000, 0.000000000000000000, 0.000000000000000000 ) ) ;
#693 = CARTESIAN_POINT ( 'NONE',  ( -12.64644660940673049, 0.000000000000000000, 0.3535533905932655707 ) ) ;
#694 = EDGE_CURVE ( 'NONE', #350, #312, #360, .T. ) ;
#695 = VECTOR ( 'NONE', #155, 1000.000000000000000 ) ;
#696 = ORIENTED_EDGE ( 'NONE', *, *, #740, .T. ) ;
#697 = AXIS2_PLACEMENT_3D ( 'NONE', #777, #712, #125 ) ;
#698 = AXIS2_PLACEMENT_3D ( 'NONE', #547, #13, #674 ) ;
#699 = CARTESIAN_POINT ( 'NONE',  ( 0.000000000000000000, 0.000000000000000000, 0.000000000000000000 ) ) ;
#700 = ORIENTED_EDGE ( 'NONE', *, *, #85, .T. ) ;
#701 = ADVANCED_FACE ( 'NONE', ( #313 ), #58, .F. ) ;
#702 = DIRECTION ( 'NONE',  ( -0.003490651415223739937, -4.274815082592931898E-19, -0.9999939076577903929 ) ) ;
#703 = SURFACE_SIDE_STYLE ('',( #239 ) ) ;
#704 = EDGE_CURVE ( 'NONE', #572, #729, #297, .T. ) ;
#705 = PLANE ( 'NONE',  #344 ) ;
#706 = DIRECTION ( 'NONE',  ( 1.000000000000000000, 0.000000000000000000, 0.000000000000000000 ) ) ;
#707 = EDGE_LOOP ( 'NONE', ( #304, #388 ) ) ;
#708 = AXIS2_PLACEMENT_3D ( 'NONE', #26, #503, #449 ) ;
#709 = EDGE_CURVE ( 'NONE', #717, #288, #98, .T. ) ;
#710 = DIRECTION ( 'NONE',  ( 1.000000000000000000, 0.000000000000000000, 0.000000000000000000 ) ) ;
#711 = CIRCLE ( 'NONE', #321, 34.00000000000000000 ) ;
#712 = DIRECTION ( 'NONE',  ( -0.000000000000000000, -0.000000000000000000, -1.000000000000000000 ) ) ;
#713 = ORIENTED_EDGE ( 'NONE', *, *, #428, .F. ) ;
#714 = CARTESIAN_POINT ( 'NONE',  ( -5.209813981864140855E-18, 0.000000000000000000, 33.00000000000000000 ) ) ;
#715 = ORIENTED_EDGE ( 'NONE', *, *, #589, .T. ) ;
#716 = DIRECTION ( 'NONE',  ( 0.000000000000000000, 0.000000000000000000, 1.000000000000000000 ) ) ;
#717 = VERTEX_POINT ( 'NONE', #241 ) ;
#718 = EDGE_CURVE ( 'NONE', #493, #119, #139, .T. ) ;
#719 = AXIS2_PLACEMENT_3D ( 'NONE', #774, #716, #236 ) ;
#720 = DIRECTION ( 'NONE',  ( 1.000000000000000000, 0.000000000000000000, 0.000000000000000000 ) ) ;
#721 = AXIS2_PLACEMENT_3D ( 'NONE', #376, #71, #200 ) ;
#722 = VECTOR ( 'NONE', #341, 1000.000000000000114 ) ;
#723 = DIRECTION ( 'NONE',  ( 0.000000000000000000, 0.000000000000000000, 1.000000000000000000 ) ) ;
#724 = ORIENTED_EDGE ( 'NONE', *, *, #198, .T. ) ;
#725 = CARTESIAN_POINT ( 'NONE',  ( 0.000000000000000000, 0.000000000000000000, 3.000000000000000000 ) ) ;
#726 = ORIENTED_EDGE ( 'NONE', *, *, #24, .F. ) ;
#727 = ADVANCED_FACE ( 'NONE', ( #601 ), #222, .T. ) ;
#728 = DIRECTION ( 'NONE',  ( 1.000000000000000000, 0.000000000000000000, 0.000000000000000000 ) ) ;
#729 = VERTEX_POINT ( 'NONE', #364 ) ;
#730 = CARTESIAN_POINT ( 'NONE',  ( 0.000000000000000000, 0.000000000000000000, 0.7071067811865423547 ) ) ;
#731 = DIRECTION ( 'NONE',  ( -1.000000000000000000, 0.000000000000000000, 0.000000000000000000 ) ) ;
#732 = CIRCLE ( 'NONE', #697, 51.99999999999999289 ) ;
#733 = ORIENTED_EDGE ( 'NONE', *, *, #65, .F. ) ;
#734 = MECHANICAL_DESIGN_GEOMETRIC_PRESENTATION_REPRESENTATION (  '', ( #332 ), #659 ) ;
#735 = SHAPE_DEFINITION_REPRESENTATION ( #558, #416 ) ;
#736 = FACE_OUTER_BOUND ( 'NONE', #266, .T. ) ;
#737 = ORIENTED_EDGE ( 'NONE', *, *, #620, .F. ) ;
#738 = CARTESIAN_POINT ( 'NONE',  ( 0.000000000000000000, 0.000000000000000000, 18.00000000000000355 ) ) ;
#739 = DIRECTION ( 'NONE',  ( 0.000000000000000000, 0.000000000000000000, 1.000000000000000000 ) ) ;
#740 = EDGE_CURVE ( 'NONE', #347, #493, #172, .T. ) ;
#741 =( NAMED_UNIT ( * ) SI_UNIT ( $, .STERADIAN. ) SOLID_ANGLE_UNIT ( ) );
#742 = CARTESIAN_POINT ( 'NONE',  ( 34.00000000000000000, 0.000000000000000000, 31.99999999999995381 ) ) ;
#743 = ORIENTED_EDGE ( 'NONE', *, *, #534, .T. ) ;
#744 = AXIS2_PLACEMENT_3D ( 'NONE', #189, #433, #137 ) ;
#745 = CIRCLE ( 'NONE', #372, 12.50000000000000000 ) ;
#746 = SURFACE_STYLE_USAGE ( .BOTH. , #506 ) ;
#747 = CARTESIAN_POINT ( 'NONE',  ( 0.000000000000000000, 0.000000000000000000, 3.000000000000000000 ) ) ;
#748 = ORIENTED_EDGE ( 'NONE', *, *, #128, .F. ) ;
#749 = EDGE_CURVE ( 'NONE', #350, #635, #745, .T. ) ;
#750 = DIRECTION ( 'NONE',  ( 0.000000000000000000, 0.000000000000000000, -1.000000000000000000 ) ) ;
#751 = CARTESIAN_POINT ( 'NONE',  ( 12.50000000000000000, 0.000000000000000000, 17.49999999999997513 ) ) ;
#752 = EDGE_LOOP ( 'NONE', ( #15, #215, #479, #261 ) ) ;
#753 = LINE ( 'NONE', #81, #470 ) ;
#754 = ADVANCED_FACE ( 'NONE', ( #489 ), #284, .T. ) ;
#755 = DIRECTION ( 'NONE',  ( -0.000000000000000000, -0.000000000000000000, 1.000000000000000000 ) ) ;
#756 = AXIS2_PLACEMENT_3D ( 'NONE', #333, #627, #37 ) ;
#757 = AXIS2_PLACEMENT_3D ( 'NONE', #451, #624, #152 ) ;
#758 = VECTOR ( 'NONE', #412, 1000.000000000000114 ) ;
#759 = FACE_OUTER_BOUND ( 'NONE', #232, .T. ) ;
#760 = FACE_OUTER_BOUND ( 'NONE', #228, .T. ) ;
#761 = EDGE_CURVE ( 'NONE', #533, #204, #188, .T. ) ;
#762 = CARTESIAN_POINT ( 'NONE',  ( -5.209813981864140855E-18, 0.000000000000000000, 33.00000000000000000 ) ) ;
#763 = CARTESIAN_POINT ( 'NONE',  ( 0.000000000000000000, 0.000000000000000000, 31.99999999999995381 ) ) ;
#764 = ORIENTED_EDGE ( 'NONE', *, *, #677, .T. ) ;
#765 = EDGE_CURVE ( 'NONE', #243, #613, #410, .T. ) ;
#766 = CARTESIAN_POINT ( 'NONE',  ( 51.99999999999999289, 0.000000000000000000, 0.000000000000000000 ) ) ;
#767 = DIRECTION ( 'NONE',  ( 1.000000000000000000, 0.000000000000000000, 0.000000000000000000 ) ) ;
#768 = ORIENTED_EDGE ( 'NONE', *, *, #455, .T. ) ;
#769 = UNCERTAINTY_MEASURE_WITH_UNIT (LENGTH_MEASURE( 1.000000000000000082E-05 ), #9, 'distance_accuracy_value', 'NONE');
#770 = PRESENTATION_LAYER_ASSIGNMENT (  '', '', ( #481 ) ) ;
#771 = CIRCLE ( 'NONE', #592, 53.00000000000000711 ) ;
#772 = FACE_OUTER_BOUND ( 'NONE', #252, .T. ) ;
#773 = AXIS2_PLACEMENT_3D ( 'NONE', #168, #653, #634 ) ;
#774 = CARTESIAN_POINT ( 'NONE',  ( -5.209813981864140855E-18, 0.000000000000000000, 3.000000000000000000 ) ) ;
#775 = ORIENTED_EDGE ( 'NONE', *, *, #164, .F. ) ;
#776 = EDGE_CURVE ( 'NONE', #562, #617, #150, .T. ) ;
#777 = CARTESIAN_POINT ( 'NONE',  ( 0.000000000000000000, 0.000000000000000000, 0.000000000000000000 ) ) ;
#778 = ORIENTED_EDGE ( 'NONE', *, *, #198, .F. ) ;
ENDSEC;
END-ISO-10303-21;
