ISO-10303-21;
HEADER;
FILE_DESCRIPTION (( 'STEP AP214' ),
    '1' );
FILE_NAME ('21631_03_089_gripper bracket_1 2K.STEP',
    '2021-07-26T13:56:37',
    ( '' ),
    ( '' ),
    'SwSTEP 2.0',
    'SolidWorks 2018',
    '' );
FILE_SCHEMA (( 'AUTOMOTIVE_DESIGN' ));
ENDSEC;

DATA;
#1 = ORIENTED_EDGE ( 'NONE', *, *, #321, .T. ) ;
#2 = EDGE_CURVE ( 'NONE', #736, #378, #897, .T. ) ;
#3 = CARTESIAN_POINT ( 'NONE',  ( -29.63188015908391293, 5.000000000000000000, 61.25000000000000000 ) ) ;
#4 = EDGE_CURVE ( 'NONE', #367, #278, #323, .T. ) ;
#5 = VECTOR ( 'NONE', #241, 1000.000000000000000 ) ;
#6 =( LENGTH_UNIT ( ) NAMED_UNIT ( * ) SI_UNIT ( .MILLI., .METRE. ) );
#7 = DIRECTION ( 'NONE',  ( -1.000000000000000000, -0.000000000000000000, -0.000000000000000000 ) ) ;
#8 = DIRECTION ( 'NONE',  ( -0.000000000000000000, -1.000000000000000000, 0.000000000000000000 ) ) ;
#9 = EDGE_LOOP ( 'NONE', ( #336, #802, #349, #660 ) ) ;
#10 = ORIENTED_EDGE ( 'NONE', *, *, #381, .T. ) ;
#11 = AXIS2_PLACEMENT_3D ( 'NONE', #269, #703, #71 ) ;
#12 = CARTESIAN_POINT ( 'NONE',  ( -39.63188015908392003, 5.000000000000000000, 54.00000000000000711 ) ) ;
#13 = DIRECTION ( 'NONE',  ( -1.000000000000000000, -0.000000000000000000, -0.000000000000000000 ) ) ;
#14 = DIRECTION ( 'NONE',  ( 0.000000000000000000, 0.000000000000000000, -1.000000000000000000 ) ) ;
#15 = EDGE_CURVE ( 'NONE', #521, #311, #455, .T. ) ;
#16 = DIRECTION ( 'NONE',  ( 0.000000000000000000, 0.000000000000000000, -1.000000000000000000 ) ) ;
#17 = CYLINDRICAL_SURFACE ( 'NONE', #741, 1.500000000000001332 ) ;
#18 = FACE_OUTER_BOUND ( 'NONE', #66, .T. ) ;
#19 = ORIENTED_EDGE ( 'NONE', *, *, #899, .F. ) ;
#20 = VERTEX_POINT ( 'NONE', #839 ) ;
#21 = CARTESIAN_POINT ( 'NONE',  ( -39.63188015908392003, 5.000000000000000000, 61.25000000000000000 ) ) ;
#22 = ORIENTED_EDGE ( 'NONE', *, *, #42, .T. ) ;
#23 = DIRECTION ( 'NONE',  ( -1.000000000000000000, 0.000000000000000000, 0.000000000000000000 ) ) ;
#24 = AXIS2_PLACEMENT_3D ( 'NONE', #411, #345, #72 ) ;
#25 = CIRCLE ( 'NONE', #285, 1.500000000000001332 ) ;
#26 = VECTOR ( 'NONE', #753, 1000.000000000000000 ) ;
#27 = PLANE ( 'NONE',  #410 ) ;
#28 = PRESENTATION_STYLE_ASSIGNMENT (( #162 ) ) ;
#29 = ORIENTED_EDGE ( 'NONE', *, *, #709, .F. ) ;
#30 = EDGE_LOOP ( 'NONE', ( #396, #774, #571, #818 ) ) ;
#31 = ORIENTED_EDGE ( 'NONE', *, *, #173, .T. ) ;
#32 = EDGE_CURVE ( 'NONE', #700, #459, #816, .T. ) ;
#33 = CARTESIAN_POINT ( 'NONE',  ( -29.63188015908391648, 5.000000000000000000, 42.00000000000000711 ) ) ;
#34 = EDGE_CURVE ( 'NONE', #365, #458, #511, .T. ) ;
#35 = DIRECTION ( 'NONE',  ( -0.000000000000000000, -1.000000000000000000, 0.000000000000000000 ) ) ;
#36 = LINE ( 'NONE', #294, #317 ) ;
#37 =( GEOMETRIC_REPRESENTATION_CONTEXT ( 3 ) GLOBAL_UNCERTAINTY_ASSIGNED_CONTEXT ( ( #465 ) ) GLOBAL_UNIT_ASSIGNED_CONTEXT ( ( #894, #193, #474 ) ) REPRESENTATION_CONTEXT ( 'NONE', 'WORKASPACE' ) );
#38 = VECTOR ( 'NONE', #125, 1000.000000000000000 ) ;
#39 = ORIENTED_EDGE ( 'NONE', *, *, #327, .F. ) ;
#40 = EDGE_LOOP ( 'NONE', ( #498, #200, #689, #124 ) ) ;
#41 = CARTESIAN_POINT ( 'NONE',  ( -31.63188015908392714, 1.000000000000000222, 40.99999999999999289 ) ) ;
#42 = EDGE_CURVE ( 'NONE', #810, #626, #851, .T. ) ;
#43 = CARTESIAN_POINT ( 'NONE',  ( -39.63188015908392003, 5.000000000000000000, 46.75000000000000000 ) ) ;
#44 = FACE_BOUND ( 'NONE', #812, .T. ) ;
#45 = EDGE_CURVE ( 'NONE', #364, #166, #877, .T. ) ;
#46 = FACE_OUTER_BOUND ( 'NONE', #115, .T. ) ;
#47 = CARTESIAN_POINT ( 'NONE',  ( -34.63188015908392714, 14.80832611206852256, 35.99999999999999289 ) ) ;
#48 = VERTEX_POINT ( 'NONE', #266 ) ;
#49 = VERTEX_POINT ( 'NONE', #61 ) ;
#50 = SURFACE_STYLE_USAGE ( .BOTH. , #462 ) ;
#51 = AXIS2_PLACEMENT_3D ( 'NONE', #293, #372, #874 ) ;
#52 = DIRECTION ( 'NONE',  ( 0.000000000000000000, 0.000000000000000000, 1.000000000000000000 ) ) ;
#53 = FILL_AREA_STYLE ('',( #896 ) ) ;
#54 = CIRCLE ( 'NONE', #426, 1.700000000000000178 ) ;
#55 = PLANE ( 'NONE',  #677 ) ;
#56 = EDGE_LOOP ( 'NONE', ( #255, #179, #22, #77 ) ) ;
#57 = EDGE_CURVE ( 'NONE', #598, #638, #744, .T. ) ;
#58 = ORIENTED_EDGE ( 'NONE', *, *, #883, .F. ) ;
#59 = CARTESIAN_POINT ( 'NONE',  ( -34.63188015908392714, 1.000000000000000222, 35.99999999999999289 ) ) ;
#60 = ORIENTED_EDGE ( 'NONE', *, *, #158, .F. ) ;
#61 = CARTESIAN_POINT ( 'NONE',  ( -37.63188015908393425, 2.449293598294712824E-16, -4.000000000000010658 ) ) ;
#62 = DIRECTION ( 'NONE',  ( 1.000000000000000000, -0.000000000000000000, -1.005636797667714040E-16 ) ) ;
#63 = DIRECTION ( 'NONE',  ( 0.000000000000000000, 0.000000000000000000, 1.000000000000000000 ) ) ;
#64 = VECTOR ( 'NONE', #301, 1000.000000000000000 ) ;
#65 = VERTEX_POINT ( 'NONE', #699 ) ;
#66 = EDGE_LOOP ( 'NONE', ( #448, #748, #60, #129 ) ) ;
#67 = ORIENTED_EDGE ( 'NONE', *, *, #734, .T. ) ;
#68 = AXIS2_PLACEMENT_3D ( 'NONE', #640, #477, #904 ) ;
#69 = ADVANCED_FACE ( 'NONE', ( #440 ), #55, .F. ) ;
#70 = EDGE_LOOP ( 'NONE', ( #39, #143, #67, #514 ) ) ;
#71 = DIRECTION ( 'NONE',  ( 0.000000000000000000, 0.000000000000000000, 1.000000000000000000 ) ) ;
#72 = DIRECTION ( 'NONE',  ( 0.000000000000000000, 0.000000000000000000, 1.000000000000000000 ) ) ;
#73 = AXIS2_PLACEMENT_3D ( 'NONE', #138, #562, #339 ) ;
#74 =( NAMED_UNIT ( * ) SI_UNIT ( $, .STERADIAN. ) SOLID_ANGLE_UNIT ( ) );
#75 = SURFACE_STYLE_USAGE ( .BOTH. , #855 ) ;
#76 = VECTOR ( 'NONE', #892, 1000.000000000000000 ) ;
#77 = ORIENTED_EDGE ( 'NONE', *, *, #123, .T. ) ;
#78 = ORIENTED_EDGE ( 'NONE', *, *, #146, .F. ) ;
#79 = FILL_AREA_STYLE_COLOUR ( '', #108 ) ;
#80 = EDGE_CURVE ( 'NONE', #758, #714, #798, .T. ) ;
#81 = ORIENTED_EDGE ( 'NONE', *, *, #123, .F. ) ;
#82 = AXIS2_PLACEMENT_3D ( 'NONE', #428, #419, #579 ) ;
#83 = CARTESIAN_POINT ( 'NONE',  ( -29.63188015908392003, 10.00000000000000000, -4.000000000000005329 ) ) ;
#84 = PLANE ( 'NONE',  #725 ) ;
#85 = DIRECTION ( 'NONE',  ( 0.000000000000000000, 0.000000000000000000, 1.000000000000000000 ) ) ;
#86 = FILL_AREA_STYLE_COLOUR ( '', #773 ) ;
#87 = DIRECTION ( 'NONE',  ( 0.000000000000000000, -0.000000000000000000, 1.000000000000000000 ) ) ;
#88 = EDGE_CURVE ( 'NONE', #49, #311, #189, .T. ) ;
#89 = CIRCLE ( 'NONE', #230, 1.250000000000001110 ) ;
#90 = COLOUR_RGB ( '',0.6470588235294117974, 0.6196078431372549211, 0.5882352941176470784 ) ;
#91 = SURFACE_STYLE_FILL_AREA ( #869 ) ;
#92 = CARTESIAN_POINT ( 'NONE',  ( -34.63188015908392714, 1.000000000000000222, 40.99999999999999289 ) ) ;
#93 = EDGE_LOOP ( 'NONE', ( #731, #829 ) ) ;
#94 = CARTESIAN_POINT ( 'NONE',  ( -34.63188015908392714, 14.80832611206852256, 22.49999999999999289 ) ) ;
#95 = ORIENTED_EDGE ( 'NONE', *, *, #280, .T. ) ;
#96 = ORIENTED_EDGE ( 'NONE', *, *, #184, .F. ) ;
#97 = EDGE_CURVE ( 'NONE', #747, #758, #414, .T. ) ;
#98 = AXIS2_PLACEMENT_3D ( 'NONE', #258, #330, #460 ) ;
#99 = VECTOR ( 'NONE', #152, 1000.000000000000000 ) ;
#100 = CIRCLE ( 'NONE', #564, 1.500000000000001332 ) ;
#101 = ORIENTED_EDGE ( 'NONE', *, *, #106, .F. ) ;
#102 = CARTESIAN_POINT ( 'NONE',  ( -34.63188015908392714, 1.000000000000000222, 40.99999999999999289 ) ) ;
#103 = ORIENTED_EDGE ( 'NONE', *, *, #131, .T. ) ;
#104 = ORIENTED_EDGE ( 'NONE', *, *, #446, .T. ) ;
#105 = DIRECTION ( 'NONE',  ( -0.000000000000000000, -1.000000000000000000, -0.000000000000000000 ) ) ;
#106 = EDGE_CURVE ( 'NONE', #458, #569, #284, .T. ) ;
#107 = DIRECTION ( 'NONE',  ( -0.000000000000000000, -1.000000000000000000, -0.000000000000000000 ) ) ;
#108 = COLOUR_RGB ( '',0.5019607843137254832, 0.5019607843137254832, 0.5019607843137254832 ) ;
#109 = CARTESIAN_POINT ( 'NONE',  ( -29.63188015908392003, 10.00000000000000000, -4.000000000000005329 ) ) ;
#110 = PRESENTATION_STYLE_ASSIGNMENT (( #341 ) ) ;
#111 = DIRECTION ( 'NONE',  ( 0.000000000000000000, 0.000000000000000000, -1.000000000000000000 ) ) ;
#112 = PRESENTATION_LAYER_ASSIGNMENT (  '', '', ( #391 ) ) ;
#113 = LINE ( 'NONE', #352, #635 ) ;
#114 = LINE ( 'NONE', #480, #599 ) ;
#115 = EDGE_LOOP ( 'NONE', ( #443, #708, #889, #304 ) ) ;
#116 = ORIENTED_EDGE ( 'NONE', *, *, #547, .F. ) ;
#117 = DIRECTION ( 'NONE',  ( 0.000000000000000000, 0.000000000000000000, -1.000000000000000000 ) ) ;
#118 = CARTESIAN_POINT ( 'NONE',  ( -34.63188015908392714, 10.00000000000000000, 22.49999999999999289 ) ) ;
#119 = CARTESIAN_POINT ( 'NONE',  ( -39.63188015908392003, 0.000000000000000000, -4.000000000000003553 ) ) ;
#120 = CARTESIAN_POINT ( 'NONE',  ( -31.63188015908393425, 2.449293598294712824E-16, -4.000000000000010658 ) ) ;
#121 = ADVANCED_FACE ( 'NONE', ( #868 ), #777, .F. ) ;
#122 = EDGE_LOOP ( 'NONE', ( #431, #909, #31, #214 ) ) ;
#123 = EDGE_CURVE ( 'NONE', #626, #913, #299, .T. ) ;
#124 = ORIENTED_EDGE ( 'NONE', *, *, #295, .T. ) ;
#125 = DIRECTION ( 'NONE',  ( 0.000000000000000000, 0.000000000000000000, 1.000000000000000000 ) ) ;
#126 = CARTESIAN_POINT ( 'NONE',  ( -29.63188015908392003, 10.00000000000000000, -4.000000000000005329 ) ) ;
#127 = VERTEX_POINT ( 'NONE', #342 ) ;
#128 = CARTESIAN_POINT ( 'NONE',  ( -34.63188015908392714, 14.80832611206852256, 16.29999999999999005 ) ) ;
#129 = ORIENTED_EDGE ( 'NONE', *, *, #763, .T. ) ;
#130 = CARTESIAN_POINT ( 'NONE',  ( 0.000000000000000000, 0.000000000000000000, 0.000000000000000000 ) ) ;
#131 = EDGE_CURVE ( 'NONE', #534, #367, #113, .T. ) ;
#132 = DIRECTION ( 'NONE',  ( -1.000000000000000000, -0.000000000000000000, -0.000000000000000000 ) ) ;
#133 =( GEOMETRIC_REPRESENTATION_CONTEXT ( 3 ) GLOBAL_UNCERTAINTY_ASSIGNED_CONTEXT ( ( #488 ) ) GLOBAL_UNIT_ASSIGNED_CONTEXT ( ( #192, #901, #619 ) ) REPRESENTATION_CONTEXT ( 'NONE', 'WORKASPACE' ) );
#134 = DIRECTION ( 'NONE',  ( -1.000000000000000000, 0.000000000000000000, 1.005636797667714040E-16 ) ) ;
#135 = ADVANCED_FACE ( 'NONE', ( #374 ), #695, .F. ) ;
#136 = CARTESIAN_POINT ( 'NONE',  ( -39.63188015908392003, 5.000000000000000000, 58.75000000000000000 ) ) ;
#137 = CIRCLE ( 'NONE', #557, 1.700000000000000178 ) ;
#138 = CARTESIAN_POINT ( 'NONE',  ( -29.63188015908391293, 5.000000000000000000, 54.00000000000000711 ) ) ;
#139 = FACE_OUTER_BOUND ( 'NONE', #286, .T. ) ;
#140 = EDGE_CURVE ( 'NONE', #364, #789, #656, .T. ) ;
#141 = ORIENTED_EDGE ( 'NONE', *, *, #899, .T. ) ;
#142 = CARTESIAN_POINT ( 'NONE',  ( -39.63188015908392003, 0.000000000000000000, -4.000000000000003553 ) ) ;
#143 = ORIENTED_EDGE ( 'NONE', *, *, #468, .T. ) ;
#144 = DIRECTION ( 'NONE',  ( -0.000000000000000000, -1.000000000000000000, -0.000000000000000000 ) ) ;
#145 = DIRECTION ( 'NONE',  ( -1.005636797667714163E-16, -0.000000000000000000, -1.000000000000000000 ) ) ;
#146 = EDGE_CURVE ( 'NONE', #714, #278, #439, .T. ) ;
#147 = CARTESIAN_POINT ( 'NONE',  ( -34.63188015908392714, 1.000000000000000222, 34.29999999999999005 ) ) ;
#148 = VECTOR ( 'NONE', #145, 1000.000000000000000 ) ;
#149 = DIRECTION ( 'NONE',  ( 0.000000000000000000, 0.000000000000000000, 1.000000000000000000 ) ) ;
#150 = COLOUR_RGB ( '',0.6470588235294117974, 0.6196078431372549211, 0.5882352941176470784 ) ;
#151 = ORIENTED_EDGE ( 'NONE', *, *, #693, .T. ) ;
#152 = DIRECTION ( 'NONE',  ( -1.000000000000000000, -0.000000000000000000, -0.000000000000000000 ) ) ;
#153 = MECHANICAL_DESIGN_GEOMETRIC_PRESENTATION_REPRESENTATION (  '', ( #398 ), #133 ) ;
#154 = SURFACE_SIDE_STYLE ('',( #91 ) ) ;
#155 = DIRECTION ( 'NONE',  ( 0.000000000000000000, 0.000000000000000000, 1.000000000000000000 ) ) ;
#156 = PRODUCT_CONTEXT ( 'NONE', #587, 'mechanical' ) ;
#157 = FILL_AREA_STYLE ('',( #417 ) ) ;
#158 = EDGE_CURVE ( 'NONE', #190, #543, #509, .T. ) ;
#159 = DIRECTION ( 'NONE',  ( 0.000000000000000000, 0.000000000000000000, 1.000000000000000000 ) ) ;
#160 = FILL_AREA_STYLE ('',( #79 ) ) ;
#161 = CIRCLE ( 'NONE', #315, 1.500000000000001332 ) ;
#162 = SURFACE_STYLE_USAGE ( .BOTH. , #154 ) ;
#163 = EDGE_LOOP ( 'NONE', ( #760, #245 ) ) ;
#164 = EDGE_LOOP ( 'NONE', ( #276, #78, #229, #842, #560, #730, #328, #151 ) ) ;
#165 =( NAMED_UNIT ( * ) PLANE_ANGLE_UNIT ( ) SI_UNIT ( $, .RADIAN. ) );
#166 = VERTEX_POINT ( 'NONE', #641 ) ;
#167 = CYLINDRICAL_SURFACE ( 'NONE', #754, 1.250000000000001110 ) ;
#168 = EDGE_LOOP ( 'NONE', ( #567, #289, #442, #104 ) ) ;
#169 = ORIENTED_EDGE ( 'NONE', *, *, #763, .F. ) ;
#170 = DIRECTION ( 'NONE',  ( 0.000000000000000000, -1.000000000000000000, 0.000000000000000000 ) ) ;
#171 = EDGE_CURVE ( 'NONE', #588, #166, #622, .T. ) ;
#172 = CARTESIAN_POINT ( 'NONE',  ( -34.63188015908392714, 10.00000000000000000, 34.29999999999999005 ) ) ;
#173 = EDGE_CURVE ( 'NONE', #459, #700, #596, .T. ) ;
#174 = DIRECTION ( 'NONE',  ( 0.000000000000000000, 0.000000000000000000, -1.000000000000000000 ) ) ;
#175 =( GEOMETRIC_REPRESENTATION_CONTEXT ( 3 ) GLOBAL_UNCERTAINTY_ASSIGNED_CONTEXT ( ( #577 ) ) GLOBAL_UNIT_ASSIGNED_CONTEXT ( ( #303, #654, #233 ) ) REPRESENTATION_CONTEXT ( 'NONE', 'WORKASPACE' ) );
#176 = PRESENTATION_STYLE_ASSIGNMENT (( #227 ) ) ;
#177 = VECTOR ( 'NONE', #337, 1000.000000000000000 ) ;
#178 = LINE ( 'NONE', #516, #413 ) ;
#179 = ORIENTED_EDGE ( 'NONE', *, *, #314, .F. ) ;
#180 = FACE_BOUND ( 'NONE', #658, .T. ) ;
#181 = CARTESIAN_POINT ( 'NONE',  ( -37.63188015908393425, 1.000000000000000222, -4.000000000000010658 ) ) ;
#182 = ORIENTED_EDGE ( 'NONE', *, *, #4, .F. ) ;
#183 = ORIENTED_EDGE ( 'NONE', *, *, #606, .F. ) ;
#184 = EDGE_CURVE ( 'NONE', #819, #278, #36, .T. ) ;
#185 = DIRECTION ( 'NONE',  ( 0.000000000000000000, 0.000000000000000000, 1.000000000000000000 ) ) ;
#186 = DIRECTION ( 'NONE',  ( -0.000000000000000000, -1.000000000000000000, -0.000000000000000000 ) ) ;
#187 = AXIS2_PLACEMENT_3D ( 'NONE', #627, #196, #281 ) ;
#188 = DIRECTION ( 'NONE',  ( 0.000000000000000000, 0.000000000000000000, -1.000000000000000000 ) ) ;
#189 = LINE ( 'NONE', #705, #614 ) ;
#190 = VERTEX_POINT ( 'NONE', #875 ) ;
#191 = ORIENTED_EDGE ( 'NONE', *, *, #589, .T. ) ;
#192 =( LENGTH_UNIT ( ) NAMED_UNIT ( * ) SI_UNIT ( .MILLI., .METRE. ) );
#193 =( NAMED_UNIT ( * ) PLANE_ANGLE_UNIT ( ) SI_UNIT ( $, .RADIAN. ) );
#194 = AXIS2_PLACEMENT_3D ( 'NONE', #565, #7, #711 ) ;
#195 = DIRECTION ( 'NONE',  ( 0.000000000000000000, 0.000000000000000000, 1.000000000000000000 ) ) ;
#196 = DIRECTION ( 'NONE',  ( -1.000000000000000000, -0.000000000000000000, -0.000000000000000000 ) ) ;
#197 = AXIS2_PLACEMENT_3D ( 'NONE', #757, #628, #63 ) ;
#198 = EDGE_LOOP ( 'NONE', ( #602, #313 ) ) ;
#199 = ORIENTED_EDGE ( 'NONE', *, *, #388, .T. ) ;
#200 = ORIENTED_EDGE ( 'NONE', *, *, #715, .F. ) ;
#201 = EDGE_LOOP ( 'NONE', ( #872, #828 ) ) ;
#202 = DIRECTION ( 'NONE',  ( 0.000000000000000000, 0.000000000000000000, -1.000000000000000000 ) ) ;
#203 = FILL_AREA_STYLE_COLOUR ( '', #696 ) ;
#204 = CARTESIAN_POINT ( 'NONE',  ( -34.63188015908392714, 1.000000000000000222, 22.49999999999999289 ) ) ;
#205 = CARTESIAN_POINT ( 'NONE',  ( -34.63188015908392714, 10.00000000000000000, 35.99999999999999289 ) ) ;
#206 = CARTESIAN_POINT ( 'NONE',  ( -39.63188015908392003, 5.000000000000000000, 60.00000000000000000 ) ) ;
#207 = ADVANCED_FACE ( 'NONE', ( #271 ), #17, .F. ) ;
#208 = SURFACE_SIDE_STYLE ('',( #633 ) ) ;
#209 = FACE_OUTER_BOUND ( 'NONE', #70, .T. ) ;
#210 = DIRECTION ( 'NONE',  ( 0.000000000000000000, 0.000000000000000000, -1.000000000000000000 ) ) ;
#211 = ORIENTED_EDGE ( 'NONE', *, *, #648, .T. ) ;
#212 = FACE_OUTER_BOUND ( 'NONE', #347, .T. ) ;
#213 = AXIS2_PLACEMENT_3D ( 'NONE', #205, #701, #766 ) ;
#214 = ORIENTED_EDGE ( 'NONE', *, *, #749, .F. ) ;
#215 = DIRECTION ( 'NONE',  ( -1.000000000000000000, 0.000000000000000000, 0.000000000000000000 ) ) ;
#216 = ORIENTED_EDGE ( 'NONE', *, *, #589, .F. ) ;
#217 = DIRECTION ( 'NONE',  ( -0.000000000000000000, -0.000000000000000000, -1.000000000000000000 ) ) ;
#218 = UNCERTAINTY_MEASURE_WITH_UNIT (LENGTH_MEASURE( 1.000000000000000082E-05 ), #6, 'distance_accuracy_value', 'NONE');
#219 = CARTESIAN_POINT ( 'NONE',  ( -34.63188015908392714, 1.000000000000000222, 35.99999999999999289 ) ) ;
#220 = DIRECTION ( 'NONE',  ( -1.000000000000000000, -0.000000000000000000, -0.000000000000000000 ) ) ;
#221 = CARTESIAN_POINT ( 'NONE',  ( -29.63188015908392003, 0.000000000000000000, -4.000000000000005329 ) ) ;
#222 = EDGE_CURVE ( 'NONE', #879, #810, #137, .T. ) ;
#223 = DIRECTION ( 'NONE',  ( 0.000000000000000000, 0.000000000000000000, 1.000000000000000000 ) ) ;
#224 = CARTESIAN_POINT ( 'NONE',  ( -29.63188015908392003, 10.00000000000000000, -4.000000000000005329 ) ) ;
#225 = CIRCLE ( 'NONE', #306, 1.700000000000000178 ) ;
#226 = LINE ( 'NONE', #384, #5 ) ;
#227 = SURFACE_STYLE_USAGE ( .BOTH. , #574 ) ;
#228 = EDGE_CURVE ( 'NONE', #856, #638, #885, .T. ) ;
#229 = ORIENTED_EDGE ( 'NONE', *, *, #80, .F. ) ;
#230 = AXIS2_PLACEMENT_3D ( 'NONE', #471, #742, #52 ) ;
#231 = DIRECTION ( 'NONE',  ( 0.000000000000000000, 1.000000000000000000, 0.000000000000000000 ) ) ;
#232 = APPLICATION_CONTEXT ( 'automotive_design' ) ;
#233 =( NAMED_UNIT ( * ) SI_UNIT ( $, .STERADIAN. ) SOLID_ANGLE_UNIT ( ) );
#234 = AXIS2_PLACEMENT_3D ( 'NONE', #573, #14, #493 ) ;
#235 = FACE_OUTER_BOUND ( 'NONE', #408, .T. ) ;
#236 = CARTESIAN_POINT ( 'NONE',  ( -37.63188015908393425, 1.000000000000000222, 40.99999999999999289 ) ) ;
#237 = ORIENTED_EDGE ( 'NONE', *, *, #452, .F. ) ;
#238 = PRESENTATION_LAYER_ASSIGNMENT (  '', '', ( #530 ) ) ;
#239 = EDGE_LOOP ( 'NONE', ( #664, #649 ) ) ;
#240 = CARTESIAN_POINT ( 'NONE',  ( -39.63188015908392003, 5.000000000000000000, 61.25000000000000000 ) ) ;
#241 = DIRECTION ( 'NONE',  ( -0.000000000000000000, -1.000000000000000000, -0.000000000000000000 ) ) ;
#242 = VECTOR ( 'NONE', #220, 1000.000000000000000 ) ;
#243 = CIRCLE ( 'NONE', #11, 1.700000000000000178 ) ;
#244 = CIRCLE ( 'NONE', #268, 1.500000000000001332 ) ;
#245 = ORIENTED_EDGE ( 'NONE', *, *, #785, .F. ) ;
#246 = ORIENTED_EDGE ( 'NONE', *, *, #850, .F. ) ;
#247 = ORIENTED_EDGE ( 'NONE', *, *, #709, .T. ) ;
#248 = EDGE_CURVE ( 'NONE', #554, #598, #427, .T. ) ;
#249 = DIRECTION ( 'NONE',  ( 0.000000000000000000, -0.000000000000000000, 1.000000000000000000 ) ) ;
#250 = DIRECTION ( 'NONE',  ( -1.000000000000000000, -0.000000000000000000, -0.000000000000000000 ) ) ;
#251 = LINE ( 'NONE', #690, #679 ) ;
#252 = SURFACE_STYLE_FILL_AREA ( #157 ) ;
#253 = LINE ( 'NONE', #83, #394 ) ;
#254 = ORIENTED_EDGE ( 'NONE', *, *, #693, .F. ) ;
#255 = ORIENTED_EDGE ( 'NONE', *, *, #272, .F. ) ;
#256 = ORIENTED_EDGE ( 'NONE', *, *, #222, .F. ) ;
#257 = FILL_AREA_STYLE_COLOUR ( '', #150 ) ;
#258 = CARTESIAN_POINT ( 'NONE',  ( -39.63188015908392003, 10.00000000000000000, -4.000000000000003553 ) ) ;
#259 = CARTESIAN_POINT ( 'NONE',  ( -37.63188015908393425, 2.449293598294712824E-16, -4.000000000000010658 ) ) ;
#260 = EDGE_CURVE ( 'NONE', #913, #626, #225, .T. ) ;
#261 = CYLINDRICAL_SURFACE ( 'NONE', #685, 1.500000000000001332 ) ;
#262 = EDGE_LOOP ( 'NONE', ( #10, #854, #616, #533 ) ) ;
#263 = ORIENTED_EDGE ( 'NONE', *, *, #32, .T. ) ;
#264 = EDGE_LOOP ( 'NONE', ( #96, #790, #103, #429 ) ) ;
#265 = ADVANCED_FACE ( 'NONE', ( #756, #412, #735, #784 ), #794, .F. ) ;
#266 = CARTESIAN_POINT ( 'NONE',  ( -39.63188015908392003, 5.000000000000000000, 52.50000000000000711 ) ) ;
#267 = EDGE_CURVE ( 'NONE', #378, #736, #583, .T. ) ;
#268 = AXIS2_PLACEMENT_3D ( 'NONE', #825, #822, #406 ) ;
#269 = CARTESIAN_POINT ( 'NONE',  ( -34.63188015908392714, 10.00000000000000000, 17.99999999999999289 ) ) ;
#270 = ADVANCED_FACE ( 'NONE', ( #838 ), #684, .F. ) ;
#271 = FACE_OUTER_BOUND ( 'NONE', #168, .T. ) ;
#272 = EDGE_CURVE ( 'NONE', #879, #913, #385, .T. ) ;
#273 = CYLINDRICAL_SURFACE ( 'NONE', #800, 0.9999999999999974465 ) ;
#274 = VECTOR ( 'NONE', #694, 1000.000000000000000 ) ;
#275 = CYLINDRICAL_SURFACE ( 'NONE', #778, 1.700000000000000178 ) ;
#276 = ORIENTED_EDGE ( 'NONE', *, *, #184, .T. ) ;
#277 = ORIENTED_EDGE ( 'NONE', *, *, #57, .F. ) ;
#278 = VERTEX_POINT ( 'NONE', #120 ) ;
#279 = DIRECTION ( 'NONE',  ( 0.000000000000000000, 1.000000000000000000, 0.000000000000000000 ) ) ;
#280 = EDGE_CURVE ( 'NONE', #521, #127, #768, .T. ) ;
#281 = DIRECTION ( 'NONE',  ( 0.000000000000000000, 0.000000000000000000, 1.000000000000000000 ) ) ;
#282 = CARTESIAN_POINT ( 'NONE',  ( -39.63188015908392003, 5.000000000000000000, 55.50000000000000711 ) ) ;
#283 = CARTESIAN_POINT ( 'NONE',  ( -34.63188015908392714, 1.000000000000000222, 17.99999999999999289 ) ) ;
#284 = LINE ( 'NONE', #346, #99 ) ;
#285 = AXIS2_PLACEMENT_3D ( 'NONE', #33, #524, #672 ) ;
#286 = EDGE_LOOP ( 'NONE', ( #216, #739, #405, #237 ) ) ;
#287 = CARTESIAN_POINT ( 'NONE',  ( -25.38923947196462194, 5.000000000000000000, 54.00000000000000711 ) ) ;
#288 = CARTESIAN_POINT ( 'NONE',  ( -37.63188015908393425, 1.000000000000000222, -4.000000000000010658 ) ) ;
#289 = ORIENTED_EDGE ( 'NONE', *, *, #34, .T. ) ;
#290 = PRODUCT_DEFINITION_SHAPE ( 'NONE', 'NONE',  #436 ) ;
#291 = EDGE_LOOP ( 'NONE', ( #687, #247, #639, #726 ) ) ;
#292 = CARTESIAN_POINT ( 'NONE',  ( -39.63188015908392003, 0.000000000000000000, 65.00000000000000000 ) ) ;
#293 = CARTESIAN_POINT ( 'NONE',  ( -39.63188015908392003, 5.000000000000000000, 48.00000000000000000 ) ) ;
#294 = CARTESIAN_POINT ( 'NONE',  ( -31.63188015908393425, 2.449293598294712824E-16, -4.000000000000010658 ) ) ;
#295 = EDGE_CURVE ( 'NONE', #389, #65, #89, .T. ) ;
#296 = CARTESIAN_POINT ( 'NONE',  ( -29.63188015908391293, 5.000000000000000000, 46.75000000000000000 ) ) ;
#297 = LINE ( 'NONE', #841, #177 ) ;
#298 = FACE_BOUND ( 'NONE', #523, .T. ) ;
#299 = CIRCLE ( 'NONE', #371, 1.700000000000000178 ) ;
#300 = CYLINDRICAL_SURFACE ( 'NONE', #194, 1.500000000000001332 ) ;
#301 = DIRECTION ( 'NONE',  ( -1.000000000000000000, -0.000000000000000000, -0.000000000000000000 ) ) ;
#302 = VERTEX_POINT ( 'NONE', #625 ) ;
#303 =( LENGTH_UNIT ( ) NAMED_UNIT ( * ) SI_UNIT ( .MILLI., .METRE. ) );
#304 = ORIENTED_EDGE ( 'NONE', *, *, #435, .T. ) ;
#305 = CARTESIAN_POINT ( 'NONE',  ( -25.38923947196462194, 5.000000000000000000, 54.00000000000000711 ) ) ;
#306 = AXIS2_PLACEMENT_3D ( 'NONE', #727, #594, #111 ) ;
#307 = CARTESIAN_POINT ( 'NONE',  ( -31.63188015908393425, 1.000000000000000222, -4.000000000000010658 ) ) ;
#308 = SURFACE_STYLE_FILL_AREA ( #160 ) ;
#309 = ORIENTED_EDGE ( 'NONE', *, *, #2, .T. ) ;
#310 = CIRCLE ( 'NONE', #527, 1.700000000000000178 ) ;
#311 = VERTEX_POINT ( 'NONE', #119 ) ;
#312 = EDGE_CURVE ( 'NONE', #458, #365, #161, .T. ) ;
#313 = ORIENTED_EDGE ( 'NONE', *, *, #331, .F. ) ;
#314 = EDGE_CURVE ( 'NONE', #810, #879, #243, .T. ) ;
#315 = AXIS2_PLACEMENT_3D ( 'NONE', #620, #62, #637 ) ;
#316 = DIRECTION ( 'NONE',  ( -0.000000000000000000, -1.000000000000000000, -0.000000000000000000 ) ) ;
#317 = VECTOR ( 'NONE', #717, 1000.000000000000000 ) ;
#318 = VECTOR ( 'NONE', #430, 1000.000000000000000 ) ;
#319 = ORIENTED_EDGE ( 'NONE', *, *, #171, .F. ) ;
#320 = EDGE_CURVE ( 'NONE', #48, #569, #759, .T. ) ;
#321 = EDGE_CURVE ( 'NONE', #127, #747, #251, .T. ) ;
#322 = DIRECTION ( 'NONE',  ( -0.000000000000000000, -1.000000000000000000, -0.000000000000000000 ) ) ;
#323 = LINE ( 'NONE', #765, #537 ) ;
#324 = LINE ( 'NONE', #350, #335 ) ;
#325 = ORIENTED_EDGE ( 'NONE', *, *, #32, .F. ) ;
#326 = ORIENTED_EDGE ( 'NONE', *, *, #248, .F. ) ;
#327 = EDGE_CURVE ( 'NONE', #688, #740, #478, .T. ) ;
#328 = ORIENTED_EDGE ( 'NONE', *, *, #831, .T. ) ;
#329 = MECHANICAL_DESIGN_GEOMETRIC_PRESENTATION_REPRESENTATION (  '', ( #860 ), #37 ) ;
#330 = DIRECTION ( 'NONE',  ( 1.734723475976806848E-16, -0.000000000000000000, 1.000000000000000000 ) ) ;
#331 = EDGE_CURVE ( 'NONE', #20, #338, #54, .T. ) ;
#332 = VECTOR ( 'NONE', #712, 1000.000000000000000 ) ;
#333 = VECTOR ( 'NONE', #195, 1000.000000000000000 ) ;
#334 = ADVANCED_FACE ( 'NONE', ( #44, #865, #585, #607, #180 ), #767, .F. ) ;
#335 = VECTOR ( 'NONE', #107, 1000.000000000000000 ) ;
#336 = ORIENTED_EDGE ( 'NONE', *, *, #131, .F. ) ;
#337 = DIRECTION ( 'NONE',  ( -0.000000000000000000, -1.000000000000000000, 0.000000000000000000 ) ) ;
#338 = VERTEX_POINT ( 'NONE', #147 ) ;
#339 = DIRECTION ( 'NONE',  ( 0.000000000000000000, 0.000000000000000000, 1.000000000000000000 ) ) ;
#340 = DIRECTION ( 'NONE',  ( -1.000000000000000000, 0.000000000000000000, 0.000000000000000000 ) ) ;
#341 = SURFACE_STYLE_USAGE ( .BOTH. , #208 ) ;
#342 = CARTESIAN_POINT ( 'NONE',  ( -39.63188015908392003, 10.00000000000000000, 65.00000000000000000 ) ) ;
#343 = AXIS2_PLACEMENT_3D ( 'NONE', #219, #170, #861 ) ;
#344 = FACE_OUTER_BOUND ( 'NONE', #467, .T. ) ;
#345 = DIRECTION ( 'NONE',  ( -1.000000000000000000, -0.000000000000000000, -0.000000000000000000 ) ) ;
#346 = CARTESIAN_POINT ( 'NONE',  ( -25.38923947196462194, 5.000000000000000000, 55.50000000000000711 ) ) ;
#347 = EDGE_LOOP ( 'NONE', ( #326, #19, #830, #775 ) ) ;
#348 = CARTESIAN_POINT ( 'NONE',  ( -34.63188015908392714, 2.449293598294712824E-16, 40.99999999999999289 ) ) ;
#349 = ORIENTED_EDGE ( 'NONE', *, *, #500, .F. ) ;
#350 = CARTESIAN_POINT ( 'NONE',  ( -34.63188015908392714, 14.80832611206852256, 34.29999999999999005 ) ) ;
#351 =( NAMED_UNIT ( * ) SI_UNIT ( $, .STERADIAN. ) SOLID_ANGLE_UNIT ( ) );
#352 = CARTESIAN_POINT ( 'NONE',  ( -31.63188015908393425, 1.000000000000000222, -4.000000000000010658 ) ) ;
#353 = EDGE_CURVE ( 'NONE', #449, #49, #297, .T. ) ;
#354 = CARTESIAN_POINT ( 'NONE',  ( -25.38923947196462194, 5.000000000000000000, 40.50000000000000711 ) ) ;
#355 = DIRECTION ( 'NONE',  ( -0.000000000000000000, -1.000000000000000000, -0.000000000000000000 ) ) ;
#356 = DIRECTION ( 'NONE',  ( -1.005636797667714163E-16, -0.000000000000000000, -1.000000000000000000 ) ) ;
#357 = CARTESIAN_POINT ( 'NONE',  ( -34.63188015908392714, 1.000000000000000222, 16.29999999999999005 ) ) ;
#358 = CARTESIAN_POINT ( 'NONE',  ( -39.63188015908392003, 5.000000000000000000, 42.00000000000000711 ) ) ;
#359 = LINE ( 'NONE', #605, #332 ) ;
#360 = STYLED_ITEM ( 'NONE', ( #110 ), #844 ) ;
#361 = ORIENTED_EDGE ( 'NONE', *, *, #312, .T. ) ;
#362 = VECTOR ( 'NONE', #363, 1000.000000000000000 ) ;
#363 = DIRECTION ( 'NONE',  ( 0.000000000000000000, 0.000000000000000000, 1.000000000000000000 ) ) ;
#364 = VERTEX_POINT ( 'NONE', #550 ) ;
#365 = VERTEX_POINT ( 'NONE', #849 ) ;
#366 = DIRECTION ( 'NONE',  ( 0.000000000000000000, 0.000000000000000000, -1.000000000000000000 ) ) ;
#367 = VERTEX_POINT ( 'NONE', #761 ) ;
#368 = CARTESIAN_POINT ( 'NONE',  ( -29.63188015908392003, 0.000000000000000000, -4.000000000000005329 ) ) ;
#369 = DIRECTION ( 'NONE',  ( 0.000000000000000000, 0.000000000000000000, 1.000000000000000000 ) ) ;
#370 = DIRECTION ( 'NONE',  ( 0.000000000000000000, -1.000000000000000000, 0.000000000000000000 ) ) ;
#371 = AXIS2_PLACEMENT_3D ( 'NONE', #283, #582, #210 ) ;
#372 = DIRECTION ( 'NONE',  ( -1.000000000000000000, -0.000000000000000000, -0.000000000000000000 ) ) ;
#373 = CIRCLE ( 'NONE', #51, 1.250000000000001110 ) ;
#374 = FACE_OUTER_BOUND ( 'NONE', #30, .T. ) ;
#375 = MECHANICAL_DESIGN_GEOMETRIC_PRESENTATION_REPRESENTATION (  '', ( #530 ), #461 ) ;
#376 = ORIENTED_EDGE ( 'NONE', *, *, #424, .T. ) ;
#377 = ORIENTED_EDGE ( 'NONE', *, *, #42, .F. ) ;
#378 = VERTEX_POINT ( 'NONE', #846 ) ;
#379 = ADVANCED_BREP_SHAPE_REPRESENTATION ( '21631_03_089_gripper bracket_1 2K', ( #806, #890 ), #595 ) ;
#380 = DIRECTION ( 'NONE',  ( -0.000000000000000000, -1.000000000000000000, -0.000000000000000000 ) ) ;
#381 = EDGE_CURVE ( 'NONE', #311, #747, #387, .T. ) ;
#382 = CARTESIAN_POINT ( 'NONE',  ( -37.63188015908393425, 1.000000000000000222, 40.99999999999999289 ) ) ;
#383 = AXIS2_PLACEMENT_3D ( 'NONE', #857, #13, #501 ) ;
#384 = CARTESIAN_POINT ( 'NONE',  ( -29.63188015908391293, 10.00000000000000000, 65.00000000000000000 ) ) ;
#385 = LINE ( 'NONE', #402, #796 ) ;
#386 = ORIENTED_EDGE ( 'NONE', *, *, #776, .F. ) ;
#387 = LINE ( 'NONE', #142, #362 ) ;
#388 = EDGE_CURVE ( 'NONE', #554, #856, #719, .T. ) ;
#389 = VERTEX_POINT ( 'NONE', #482 ) ;
#390 = EDGE_LOOP ( 'NONE', ( #141, #199 ) ) ;
#391 = STYLED_ITEM ( 'NONE', ( #176 ), #379 ) ;
#392 = UNCERTAINTY_MEASURE_WITH_UNIT (LENGTH_MEASURE( 1.000000000000000082E-05 ), #593, 'distance_accuracy_value', 'NONE');
#393 = CIRCLE ( 'NONE', #732, 3.000000000000002665 ) ;
#394 = VECTOR ( 'NONE', #791, 1000.000000000000000 ) ;
#395 = ORIENTED_EDGE ( 'NONE', *, *, #267, .F. ) ;
#396 = ORIENTED_EDGE ( 'NONE', *, *, #388, .F. ) ;
#397 = SURFACE_STYLE_USAGE ( .BOTH. , #746 ) ;
#398 = STYLED_ITEM ( 'NONE', ( #809 ), #559 ) ;
#399 = DIRECTION ( 'NONE',  ( 0.000000000000000000, 0.000000000000000000, 1.000000000000000000 ) ) ;
#400 = ADVANCED_FACE ( 'NONE', ( #235 ), #555, .F. ) ;
#401 = EDGE_CURVE ( 'NONE', #338, #20, #723, .T. ) ;
#402 = CARTESIAN_POINT ( 'NONE',  ( -34.63188015908392714, 14.80832611206852256, 19.69999999999999218 ) ) ;
#403 = VECTOR ( 'NONE', #805, 1000.000000000000000 ) ;
#404 = LINE ( 'NONE', #618, #797 ) ;
#405 = ORIENTED_EDGE ( 'NONE', *, *, #331, .T. ) ;
#406 = DIRECTION ( 'NONE',  ( 0.000000000000000000, 0.000000000000000000, 1.000000000000000000 ) ) ;
#407 = ORIENTED_EDGE ( 'NONE', *, *, #452, .T. ) ;
#408 = EDGE_LOOP ( 'NONE', ( #256, #898, #558, #377 ) ) ;
#409 = ADVANCED_FACE ( 'NONE', ( #529 ), #737, .F. ) ;
#410 = AXIS2_PLACEMENT_3D ( 'NONE', #307, #666, #876 ) ;
#411 = CARTESIAN_POINT ( 'NONE',  ( -39.63188015908392003, 5.000000000000000000, 48.00000000000000000 ) ) ;
#412 = FACE_BOUND ( 'NONE', #532, .T. ) ;
#413 = VECTOR ( 'NONE', #380, 1000.000000000000000 ) ;
#414 = LINE ( 'NONE', #292, #318 ) ;
#415 = VECTOR ( 'NONE', #250, 1000.000000000000000 ) ;
#416 = DIRECTION ( 'NONE',  ( 0.000000000000000000, 0.000000000000000000, 1.000000000000000000 ) ) ;
#417 = FILL_AREA_STYLE_COLOUR ( '', #90 ) ;
#418 = EDGE_CURVE ( 'NONE', #801, #534, #393, .T. ) ;
#419 = DIRECTION ( 'NONE',  ( -0.000000000000000000, -1.000000000000000000, -0.000000000000000000 ) ) ;
#420 = DIRECTION ( 'NONE',  ( -1.000000000000000000, -0.000000000000000000, -0.000000000000000000 ) ) ;
#421 = DIRECTION ( 'NONE',  ( 0.000000000000000000, -0.000000000000000000, 1.000000000000000000 ) ) ;
#422 = CARTESIAN_POINT ( 'NONE',  ( -34.63188015908392714, 1.000000000000000222, 40.99999999999999289 ) ) ;
#423 = DIRECTION ( 'NONE',  ( 1.000000000000000000, 0.000000000000000000, 0.000000000000000000 ) ) ;
#424 = EDGE_CURVE ( 'NONE', #365, #48, #359, .T. ) ;
#425 = DIRECTION ( 'NONE',  ( -1.000000000000000000, -0.000000000000000000, -0.000000000000000000 ) ) ;
#426 = AXIS2_PLACEMENT_3D ( 'NONE', #59, #630, #910 ) ;
#427 = LINE ( 'NONE', #603, #64 ) ;
#428 = CARTESIAN_POINT ( 'NONE',  ( -34.63188015908392714, 14.80832611206852256, 22.49999999999999289 ) ) ;
#429 = ORIENTED_EDGE ( 'NONE', *, *, #4, .T. ) ;
#430 = DIRECTION ( 'NONE',  ( 1.000000000000000000, 0.000000000000000000, 0.000000000000000000 ) ) ;
#431 = ORIENTED_EDGE ( 'NONE', *, *, #2, .F. ) ;
#432 = DIRECTION ( 'NONE',  ( -1.000000000000000000, -0.000000000000000000, -0.000000000000000000 ) ) ;
#433 = EDGE_LOOP ( 'NONE', ( #325, #520 ) ) ;
#434 =( NAMED_UNIT ( * ) PLANE_ANGLE_UNIT ( ) SI_UNIT ( $, .RADIAN. ) );
#435 = EDGE_CURVE ( 'NONE', #801, #891, #906, .T. ) ;
#436 = PRODUCT_DEFINITION ( 'UNKNOWN', '', #884, #497 ) ;
#437 = CARTESIAN_POINT ( 'NONE',  ( -34.63188015908392714, 10.00000000000000000, 17.99999999999999289 ) ) ;
#438 = DIRECTION ( 'NONE',  ( 0.000000000000000000, 1.000000000000000000, 0.000000000000000000 ) ) ;
#439 = LINE ( 'NONE', #781, #911 ) ;
#440 = FACE_OUTER_BOUND ( 'NONE', #164, .T. ) ;
#441 = LINE ( 'NONE', #548, #76 ) ;
#442 = ORIENTED_EDGE ( 'NONE', *, *, #106, .T. ) ;
#443 = ORIENTED_EDGE ( 'NONE', *, *, #831, .F. ) ;
#444 = DIRECTION ( 'NONE',  ( -1.000000000000000000, -0.000000000000000000, 1.734723475976806848E-16 ) ) ;
#445 = AXIS2_PLACEMENT_3D ( 'NONE', #348, #231, #223 ) ;
#446 = EDGE_CURVE ( 'NONE', #569, #48, #100, .T. ) ;
#447 = FACE_OUTER_BOUND ( 'NONE', #291, .T. ) ;
#448 = ORIENTED_EDGE ( 'NONE', *, *, #80, .T. ) ;
#449 = VERTEX_POINT ( 'NONE', #288 ) ;
#450 = CARTESIAN_POINT ( 'NONE',  ( -34.63188015908392714, 14.80832611206852256, 35.99999999999999289 ) ) ;
#451 = DIRECTION ( 'NONE',  ( 0.000000000000000000, 1.000000000000000000, 0.000000000000000000 ) ) ;
#452 = EDGE_CURVE ( 'NONE', #513, #338, #324, .T. ) ;
#453 = AXIS2_PLACEMENT_3D ( 'NONE', #126, #134, #691 ) ;
#454 = CARTESIAN_POINT ( 'NONE',  ( -37.63188015908393425, 1.000000000000000222, -4.000000000000010658 ) ) ;
#455 = LINE ( 'NONE', #561, #274 ) ;
#456 = FACE_OUTER_BOUND ( 'NONE', #56, .T. ) ;
#457 = MECHANICAL_DESIGN_GEOMETRIC_PRESENTATION_REPRESENTATION (  '', ( #360 ), #515 ) ;
#458 = VERTEX_POINT ( 'NONE', #526 ) ;
#459 = VERTEX_POINT ( 'NONE', #505 ) ;
#460 = DIRECTION ( 'NONE',  ( 1.000000000000000000, 0.000000000000000000, -1.734723475976806848E-16 ) ) ;
#461 =( GEOMETRIC_REPRESENTATION_CONTEXT ( 3 ) GLOBAL_UNCERTAINTY_ASSIGNED_CONTEXT ( ( #218 ) ) GLOBAL_UNIT_ASSIGNED_CONTEXT ( ( #6, #434, #490 ) ) REPRESENTATION_CONTEXT ( 'NONE', 'WORKASPACE' ) );
#462 = SURFACE_SIDE_STYLE ('',( #720 ) ) ;
#463 = FACE_BOUND ( 'NONE', #495, .T. ) ;
#464 = PLANE ( 'NONE',  #453 ) ;
#465 = UNCERTAINTY_MEASURE_WITH_UNIT (LENGTH_MEASURE( 1.000000000000000082E-05 ), #894, 'distance_accuracy_value', 'NONE');
#466 = CYLINDRICAL_SURFACE ( 'NONE', #716, 1.700000000000000178 ) ;
#467 = EDGE_LOOP ( 'NONE', ( #29, #661, #469, #485 ) ) ;
#468 = EDGE_CURVE ( 'NONE', #688, #65, #745, .T. ) ;
#469 = ORIENTED_EDGE ( 'NONE', *, *, #45, .T. ) ;
#470 = AXIS2_PLACEMENT_3D ( 'NONE', #102, #35, #174 ) ;
#471 = CARTESIAN_POINT ( 'NONE',  ( -39.63188015908392003, 5.000000000000000000, 48.00000000000000000 ) ) ;
#472 = ORIENTED_EDGE ( 'NONE', *, *, #776, .T. ) ;
#473 = CARTESIAN_POINT ( 'NONE',  ( -34.63188015908392714, 14.80832611206852256, 17.99999999999999289 ) ) ;
#474 =( NAMED_UNIT ( * ) SI_UNIT ( $, .STERADIAN. ) SOLID_ANGLE_UNIT ( ) );
#475 = ADVANCED_FACE ( 'NONE', ( #887 ), #275, .F. ) ;
#476 = AXIS2_PLACEMENT_3D ( 'NONE', #204, #621, #835 ) ;
#477 = DIRECTION ( 'NONE',  ( -1.000000000000000000, -0.000000000000000000, -0.000000000000000000 ) ) ;
#478 = CIRCLE ( 'NONE', #68, 1.250000000000001110 ) ;
#479 = CIRCLE ( 'NONE', #383, 1.250000000000001110 ) ;
#480 = CARTESIAN_POINT ( 'NONE',  ( -34.63188015908392714, 14.80832611206852256, 37.69999999999998863 ) ) ;
#481 = ORIENTED_EDGE ( 'NONE', *, *, #575, .T. ) ;
#482 = CARTESIAN_POINT ( 'NONE',  ( -39.63188015908392003, 5.000000000000000000, 49.25000000000000000 ) ) ;
#483 = ORIENTED_EDGE ( 'NONE', *, *, #815, .T. ) ;
#484 = ORIENTED_EDGE ( 'NONE', *, *, #295, .F. ) ;
#485 = ORIENTED_EDGE ( 'NONE', *, *, #804, .T. ) ;
#486 = CARTESIAN_POINT ( 'NONE',  ( -37.63188015908393425, 2.449293598294712824E-16, 40.99999999999999289 ) ) ;
#487 = ADVANCED_FACE ( 'NONE', ( #697 ), #636, .F. ) ;
#488 = UNCERTAINTY_MEASURE_WITH_UNIT (LENGTH_MEASURE( 1.000000000000000082E-05 ), #192, 'distance_accuracy_value', 'NONE');
#489 = DIRECTION ( 'NONE',  ( 1.000000000000000000, 0.000000000000000000, 0.000000000000000000 ) ) ;
#490 =( NAMED_UNIT ( * ) SI_UNIT ( $, .STERADIAN. ) SOLID_ANGLE_UNIT ( ) );
#491 = STYLED_ITEM ( 'NONE', ( #28 ), #704 ) ;
#492 = DIRECTION ( 'NONE',  ( 0.000000000000000000, 0.000000000000000000, -1.000000000000000000 ) ) ;
#493 = DIRECTION ( 'NONE',  ( -1.000000000000000000, 0.000000000000000000, -0.000000000000000000 ) ) ;
#494 = VECTOR ( 'NONE', #340, 1000.000000000000000 ) ;
#495 = EDGE_LOOP ( 'NONE', ( #710, #191 ) ) ;
#496 = CARTESIAN_POINT ( 'NONE',  ( -34.63188015908392714, 14.80832611206852256, 17.99999999999999289 ) ) ;
#497 = PRODUCT_DEFINITION_CONTEXT ( 'detailed design', #232, 'design' ) ;
#498 = ORIENTED_EDGE ( 'NONE', *, *, #468, .F. ) ;
#499 = CARTESIAN_POINT ( 'NONE',  ( -29.63188015908391648, 5.000000000000000000, 42.00000000000000711 ) ) ;
#500 = EDGE_CURVE ( 'NONE', #449, #801, #817, .T. ) ;
#501 = DIRECTION ( 'NONE',  ( 0.000000000000000000, 0.000000000000000000, 1.000000000000000000 ) ) ;
#502 = CARTESIAN_POINT ( 'NONE',  ( -29.63188015908391293, 5.000000000000000000, 60.00000000000000000 ) ) ;
#503 = DIRECTION ( 'NONE',  ( 0.000000000000000000, 0.000000000000000000, 1.000000000000000000 ) ) ;
#504 = CARTESIAN_POINT ( 'NONE',  ( -39.63188015908392003, 5.000000000000000000, 60.00000000000000000 ) ) ;
#505 = CARTESIAN_POINT ( 'NONE',  ( -34.63188015908392714, 1.000000000000000222, 23.49999999999998934 ) ) ;
#506 = CARTESIAN_POINT ( 'NONE',  ( -34.63188015908392714, 1.000000000000000222, 19.69999999999999218 ) ) ;
#507 = DIRECTION ( 'NONE',  ( -0.000000000000000000, -1.000000000000000000, -0.000000000000000000 ) ) ;
#508 = PRESENTATION_LAYER_ASSIGNMENT (  '', '', ( #360 ) ) ;
#509 = LINE ( 'NONE', #224, #632 ) ;
#510 = CARTESIAN_POINT ( 'NONE',  ( 0.000000000000000000, 10.00000000000000000, 0.000000000000000000 ) ) ;
#511 = CIRCLE ( 'NONE', #73, 1.500000000000001332 ) ;
#512 = SURFACE_STYLE_FILL_AREA ( #545 ) ;
#513 = VERTEX_POINT ( 'NONE', #172 ) ;
#514 = ORIENTED_EDGE ( 'NONE', *, *, #866, .F. ) ;
#515 =( GEOMETRIC_REPRESENTATION_CONTEXT ( 3 ) GLOBAL_UNCERTAINTY_ASSIGNED_CONTEXT ( ( #563 ) ) GLOBAL_UNIT_ASSIGNED_CONTEXT ( ( #643, #631, #847 ) ) REPRESENTATION_CONTEXT ( 'NONE', 'WORKASPACE' ) );
#516 = CARTESIAN_POINT ( 'NONE',  ( -34.63188015908392714, 14.80832611206852256, 21.49999999999999645 ) ) ;
#517 = AXIS2_PLACEMENT_3D ( 'NONE', #499, #576, #155 ) ;
#518 = DIRECTION ( 'NONE',  ( -1.000000000000000000, -0.000000000000000000, -0.000000000000000000 ) ) ;
#519 = COLOUR_RGB ( '',0.5019607843137254832, 0.5019607843137254832, 0.5019607843137254832 ) ;
#520 = ORIENTED_EDGE ( 'NONE', *, *, #173, .F. ) ;
#521 = VERTEX_POINT ( 'NONE', #676 ) ;
#522 = DIRECTION ( 'NONE',  ( 0.000000000000000000, 1.000000000000000000, 0.000000000000000000 ) ) ;
#523 = EDGE_LOOP ( 'NONE', ( #651, #738 ) ) ;
#524 = DIRECTION ( 'NONE',  ( 1.000000000000000000, -0.000000000000000000, -1.005636797667714040E-16 ) ) ;
#525 = EDGE_CURVE ( 'NONE', #513, #302, #310, .T. ) ;
#526 = CARTESIAN_POINT ( 'NONE',  ( -29.63188015908391293, 5.000000000000000000, 55.50000000000000711 ) ) ;
#527 = AXIS2_PLACEMENT_3D ( 'NONE', #611, #316, #814 ) ;
#528 = CARTESIAN_POINT ( 'NONE',  ( -39.63188015908392003, 10.00000000000000000, -4.000000000000003553 ) ) ;
#529 = FACE_OUTER_BOUND ( 'NONE', #122, .T. ) ;
#530 = STYLED_ITEM ( 'NONE', ( #669 ), #135 ) ;
#531 = VECTOR ( 'NONE', #795, 1000.000000000000000 ) ;
#532 = EDGE_LOOP ( 'NONE', ( #81, #681 ) ) ;
#533 = ORIENTED_EDGE ( 'NONE', *, *, #15, .T. ) ;
#534 = VERTEX_POINT ( 'NONE', #41 ) ;
#535 = DIRECTION ( 'NONE',  ( 0.000000000000000000, 0.000000000000000000, -1.000000000000000000 ) ) ;
#536 = LINE ( 'NONE', #259, #333 ) ;
#537 = VECTOR ( 'NONE', #553, 1000.000000000000000 ) ;
#538 = CYLINDRICAL_SURFACE ( 'NONE', #702, 1.700000000000000178 ) ;
#539 = CARTESIAN_POINT ( 'NONE',  ( -39.63188015908392003, 5.000000000000000000, 48.00000000000000000 ) ) ;
#540 = ADVANCED_FACE ( 'NONE', ( #46 ), #610, .T. ) ;
#541 = PRESENTATION_LAYER_ASSIGNMENT (  '', '', ( #860 ) ) ;
#542 = EDGE_LOOP ( 'NONE', ( #95, #671, #762, #472 ) ) ;
#543 = VERTEX_POINT ( 'NONE', #109 ) ;
#544 = ORIENTED_EDGE ( 'NONE', *, *, #734, .F. ) ;
#545 = FILL_AREA_STYLE ('',( #257 ) ) ;
#546 = CARTESIAN_POINT ( 'NONE',  ( -39.63188015908392003, 10.00000000000000000, -4.000000000000003553 ) ) ;
#547 = EDGE_CURVE ( 'NONE', #127, #190, #441, .T. ) ;
#548 = CARTESIAN_POINT ( 'NONE',  ( -39.63188015908392003, 10.00000000000000000, 65.00000000000000000 ) ) ;
#549 = ADVANCED_FACE ( 'NONE', ( #139 ), #538, .F. ) ;
#550 = CARTESIAN_POINT ( 'NONE',  ( -29.63188015908391648, 5.000000000000000000, 43.50000000000001421 ) ) ;
#551 = DIRECTION ( 'NONE',  ( -1.000000000000000000, -0.000000000000000000, -0.000000000000000000 ) ) ;
#552 = LINE ( 'NONE', #354, #531 ) ;
#553 = DIRECTION ( 'NONE',  ( -0.000000000000000000, -1.000000000000000000, 0.000000000000000000 ) ) ;
#554 = VERTEX_POINT ( 'NONE', #683 ) ;
#555 = CYLINDRICAL_SURFACE ( 'NONE', #612, 1.700000000000000178 ) ;
#556 = ORIENTED_EDGE ( 'NONE', *, *, #353, .T. ) ;
#557 = AXIS2_PLACEMENT_3D ( 'NONE', #437, #507, #85 ) ;
#558 = ORIENTED_EDGE ( 'NONE', *, *, #260, .T. ) ;
#559 = ADVANCED_FACE ( 'NONE', ( #840 ), #167, .F. ) ;
#560 = ORIENTED_EDGE ( 'NONE', *, *, #381, .F. ) ;
#561 = CARTESIAN_POINT ( 'NONE',  ( -39.63188015908392003, 10.00000000000000000, -4.000000000000003553 ) ) ;
#562 = DIRECTION ( 'NONE',  ( 1.000000000000000000, -0.000000000000000000, -1.005636797667714040E-16 ) ) ;
#563 = UNCERTAINTY_MEASURE_WITH_UNIT (LENGTH_MEASURE( 1.000000000000000082E-05 ), #643, 'distance_accuracy_value', 'NONE');
#564 = AXIS2_PLACEMENT_3D ( 'NONE', #12, #813, #888 ) ;
#565 = CARTESIAN_POINT ( 'NONE',  ( -25.38923947196462194, 5.000000000000000000, 42.00000000000000711 ) ) ;
#566 = ADVANCED_FACE ( 'NONE', ( #447 ), #300, .F. ) ;
#567 = ORIENTED_EDGE ( 'NONE', *, *, #424, .F. ) ;
#568 = CARTESIAN_POINT ( 'NONE',  ( -39.63188015908392003, 10.00000000000000000, -4.000000000000003553 ) ) ;
#569 = VERTEX_POINT ( 'NONE', #282 ) ;
#570 = AXIS2_PLACEMENT_3D ( 'NONE', #358, #23, #655 ) ;
#571 = ORIENTED_EDGE ( 'NONE', *, *, #57, .T. ) ;
#572 = CARTESIAN_POINT ( 'NONE',  ( -39.63188015908392003, 5.000000000000000000, 49.25000000000000000 ) ) ;
#573 = CARTESIAN_POINT ( 'NONE',  ( -39.63188015908392003, 10.00000000000000000, 65.00000000000000000 ) ) ;
#574 = SURFACE_SIDE_STYLE ('',( #308 ) ) ;
#575 = EDGE_CURVE ( 'NONE', #367, #449, #670, .T. ) ;
#576 = DIRECTION ( 'NONE',  ( 1.000000000000000000, -0.000000000000000000, -1.005636797667714040E-16 ) ) ;
#577 = UNCERTAINTY_MEASURE_WITH_UNIT (LENGTH_MEASURE( 1.000000000000000082E-05 ), #303, 'distance_accuracy_value', 'NONE');
#578 = AXIS2_PLACEMENT_3D ( 'NONE', #502, #792, #783 ) ;
#579 = DIRECTION ( 'NONE',  ( 0.000000000000000000, 0.000000000000000000, -1.000000000000000000 ) ) ;
#580 = CARTESIAN_POINT ( 'NONE',  ( -29.63188015908391293, 5.000000000000000000, 60.00000000000000000 ) ) ;
#581 = CYLINDRICAL_SURFACE ( 'NONE', #24, 1.250000000000001110 ) ;
#582 = DIRECTION ( 'NONE',  ( 0.000000000000000000, -1.000000000000000000, 0.000000000000000000 ) ) ;
#583 = CIRCLE ( 'NONE', #674, 0.9999999999999974465 ) ;
#584 = DIRECTION ( 'NONE',  ( -1.000000000000000000, -0.000000000000000000, -0.000000000000000000 ) ) ;
#585 = FACE_BOUND ( 'NONE', #820, .T. ) ;
#586 = PRODUCT ( '21631_03_089_gripper bracket_1 2K', '21631_03_089_gripper bracket_1 2K', '', ( #156 ) ) ;
#587 = APPLICATION_CONTEXT ( 'automotive_design' ) ;
#588 = VERTEX_POINT ( 'NONE', #908 ) ;
#589 = EDGE_CURVE ( 'NONE', #302, #513, #852, .T. ) ;
#590 = DIRECTION ( 'NONE',  ( 0.000000000000000000, 0.000000000000000000, 1.000000000000000000 ) ) ;
#591 = DIRECTION ( 'NONE',  ( -0.000000000000000000, -1.000000000000000000, -0.000000000000000000 ) ) ;
#592 = CARTESIAN_POINT ( 'NONE',  ( -29.63188015908391293, 5.000000000000000000, 49.25000000000000000 ) ) ;
#593 =( LENGTH_UNIT ( ) NAMED_UNIT ( * ) SI_UNIT ( .MILLI., .METRE. ) );
#594 = DIRECTION ( 'NONE',  ( 0.000000000000000000, -1.000000000000000000, 0.000000000000000000 ) ) ;
#595 =( GEOMETRIC_REPRESENTATION_CONTEXT ( 3 ) GLOBAL_UNCERTAINTY_ASSIGNED_CONTEXT ( ( #392 ) ) GLOBAL_UNIT_ASSIGNED_CONTEXT ( ( #593, #165, #74 ) ) REPRESENTATION_CONTEXT ( 'NONE', 'WORKASPACE' ) );
#596 = CIRCLE ( 'NONE', #667, 0.9999999999999974465 ) ;
#597 = FACE_OUTER_BOUND ( 'NONE', #713, .T. ) ;
#598 = VERTEX_POINT ( 'NONE', #136 ) ;
#599 = VECTOR ( 'NONE', #788, 1000.000000000000000 ) ;
#600 = ORIENTED_EDGE ( 'NONE', *, *, #267, .T. ) ;
#601 = DIRECTION ( 'NONE',  ( -0.000000000000000000, -1.000000000000000000, -0.000000000000000000 ) ) ;
#602 = ORIENTED_EDGE ( 'NONE', *, *, #401, .F. ) ;
#603 = CARTESIAN_POINT ( 'NONE',  ( -39.63188015908392003, 5.000000000000000000, 58.75000000000000000 ) ) ;
#604 = AXIS2_PLACEMENT_3D ( 'NONE', #92, #451, #249 ) ;
#605 = CARTESIAN_POINT ( 'NONE',  ( -25.38923947196462194, 5.000000000000000000, 52.50000000000000711 ) ) ;
#606 = EDGE_CURVE ( 'NONE', #302, #20, #114, .T. ) ;
#607 = FACE_OUTER_BOUND ( 'NONE', #262, .T. ) ;
#608 = FACE_BOUND ( 'NONE', #163, .T. ) ;
#609 = ORIENTED_EDGE ( 'NONE', *, *, #15, .F. ) ;
#610 = PLANE ( 'NONE',  #642 ) ;
#611 = CARTESIAN_POINT ( 'NONE',  ( -34.63188015908392714, 10.00000000000000000, 35.99999999999999289 ) ) ;
#612 = AXIS2_PLACEMENT_3D ( 'NONE', #473, #355, #492 ) ;
#613 = PRESENTATION_LAYER_ASSIGNMENT (  '', '', ( #398 ) ) ;
#614 = VECTOR ( 'NONE', #862, 1000.000000000000000 ) ;
#615 = CIRCLE ( 'NONE', #445, 3.000000000000002665 ) ;
#616 = ORIENTED_EDGE ( 'NONE', *, *, #280, .F. ) ;
#617 = AXIS2_PLACEMENT_3D ( 'NONE', #848, #425, #503 ) ;
#618 = CARTESIAN_POINT ( 'NONE',  ( -31.63188015908392714, 1.000000000000000222, 40.99999999999999289 ) ) ;
#619 =( NAMED_UNIT ( * ) SI_UNIT ( $, .STERADIAN. ) SOLID_ANGLE_UNIT ( ) );
#620 = CARTESIAN_POINT ( 'NONE',  ( -29.63188015908391293, 5.000000000000000000, 54.00000000000000711 ) ) ;
#621 = DIRECTION ( 'NONE',  ( 0.000000000000000000, -1.000000000000000000, 0.000000000000000000 ) ) ;
#622 = CIRCLE ( 'NONE', #570, 1.500000000000001332 ) ;
#623 = PRESENTATION_LAYER_ASSIGNMENT (  '', '', ( #491 ) ) ;
#624 = ORIENTED_EDGE ( 'NONE', *, *, #418, .T. ) ;
#625 = CARTESIAN_POINT ( 'NONE',  ( -34.63188015908392714, 10.00000000000000000, 37.69999999999998863 ) ) ;
#626 = VERTEX_POINT ( 'NONE', #357 ) ;
#627 = CARTESIAN_POINT ( 'NONE',  ( -39.63188015908392003, 5.000000000000000000, 60.00000000000000000 ) ) ;
#628 = DIRECTION ( 'NONE',  ( -0.000000000000000000, -1.000000000000000000, -0.000000000000000000 ) ) ;
#629 = ADVANCED_FACE ( 'NONE', ( #659 ), #261, .F. ) ;
#630 = DIRECTION ( 'NONE',  ( 0.000000000000000000, -1.000000000000000000, 0.000000000000000000 ) ) ;
#631 =( NAMED_UNIT ( * ) PLANE_ANGLE_UNIT ( ) SI_UNIT ( $, .RADIAN. ) );
#632 = VECTOR ( 'NONE', #356, 1000.000000000000000 ) ;
#633 = SURFACE_STYLE_FILL_AREA ( #706 ) ;
#634 = ADVANCED_FACE ( 'NONE', ( #456 ), #466, .F. ) ;
#635 = VECTOR ( 'NONE', #217, 1000.000000000000000 ) ;
#636 = CYLINDRICAL_SURFACE ( 'NONE', #470, 3.000000000000002665 ) ;
#637 = DIRECTION ( 'NONE',  ( 0.000000000000000000, 0.000000000000000000, 1.000000000000000000 ) ) ;
#638 = VERTEX_POINT ( 'NONE', #21 ) ;
#639 = ORIENTED_EDGE ( 'NONE', *, *, #171, .T. ) ;
#640 = CARTESIAN_POINT ( 'NONE',  ( -29.63188015908391293, 5.000000000000000000, 48.00000000000000000 ) ) ;
#641 = CARTESIAN_POINT ( 'NONE',  ( -39.63188015908392003, 5.000000000000000000, 43.50000000000001421 ) ) ;
#642 = AXIS2_PLACEMENT_3D ( 'NONE', #454, #675, #188 ) ;
#643 =( LENGTH_UNIT ( ) NAMED_UNIT ( * ) SI_UNIT ( .MILLI., .METRE. ) );
#644 = FACE_BOUND ( 'NONE', #201, .T. ) ;
#645 = EDGE_LOOP ( 'NONE', ( #183, #787, #407, #873 ) ) ;
#646 = ORIENTED_EDGE ( 'NONE', *, *, #97, .T. ) ;
#647 = DIRECTION ( 'NONE',  ( -1.000000000000000000, -0.000000000000000000, 1.734723475976806848E-16 ) ) ;
#648 = EDGE_CURVE ( 'NONE', #543, #714, #253, .T. ) ;
#649 = ORIENTED_EDGE ( 'NONE', *, *, #320, .F. ) ;
#650 = CARTESIAN_POINT ( 'NONE',  ( -39.63188015908392003, 0.000000000000000000, 65.00000000000000000 ) ) ;
#651 = ORIENTED_EDGE ( 'NONE', *, *, #312, .F. ) ;
#652 =( NAMED_UNIT ( * ) PLANE_ANGLE_UNIT ( ) SI_UNIT ( $, .RADIAN. ) );
#653 = DIRECTION ( 'NONE',  ( -0.000000000000000000, -1.000000000000000000, -0.000000000000000000 ) ) ;
#654 =( NAMED_UNIT ( * ) PLANE_ANGLE_UNIT ( ) SI_UNIT ( $, .RADIAN. ) );
#655 = DIRECTION ( 'NONE',  ( 0.000000000000000000, 0.000000000000000000, 1.000000000000000000 ) ) ;
#656 = CIRCLE ( 'NONE', #517, 1.500000000000001332 ) ;
#657 = FACE_BOUND ( 'NONE', #390, .T. ) ;
#658 = EDGE_LOOP ( 'NONE', ( #484, #544 ) ) ;
#659 = FACE_OUTER_BOUND ( 'NONE', #880, .T. ) ;
#660 = ORIENTED_EDGE ( 'NONE', *, *, #575, .F. ) ;
#661 = ORIENTED_EDGE ( 'NONE', *, *, #785, .T. ) ;
#662 = DIRECTION ( 'NONE',  ( 0.000000000000000000, 0.000000000000000000, 1.000000000000000000 ) ) ;
#663 = AXIS2_PLACEMENT_3D ( 'NONE', #206, #420, #843 ) ;
#664 = ORIENTED_EDGE ( 'NONE', *, *, #446, .F. ) ;
#665 = CARTESIAN_POINT ( 'NONE',  ( -34.63188015908392714, 1.000000000000000222, 22.49999999999999289 ) ) ;
#666 = DIRECTION ( 'NONE',  ( -1.000000000000000000, 0.000000000000000000, 0.000000000000000000 ) ) ;
#667 = AXIS2_PLACEMENT_3D ( 'NONE', #665, #370, #366 ) ;
#668 = CIRCLE ( 'NONE', #893, 1.250000000000001110 ) ;
#669 = PRESENTATION_STYLE_ASSIGNMENT (( #75 ) ) ;
#670 = LINE ( 'NONE', #779, #494 ) ;
#671 = ORIENTED_EDGE ( 'NONE', *, *, #547, .T. ) ;
#672 = DIRECTION ( 'NONE',  ( 0.000000000000000000, 0.000000000000000000, 1.000000000000000000 ) ) ;
#673 = EDGE_LOOP ( 'NONE', ( #254, #724, #624, #483 ) ) ;
#674 = AXIS2_PLACEMENT_3D ( 'NONE', #118, #186, #751 ) ;
#675 = DIRECTION ( 'NONE',  ( 1.000000000000000000, -0.000000000000000000, 0.000000000000000000 ) ) ;
#676 = CARTESIAN_POINT ( 'NONE',  ( -39.63188015908392003, 10.00000000000000000, -4.000000000000003553 ) ) ;
#677 = AXIS2_PLACEMENT_3D ( 'NONE', #130, #279, #421 ) ;
#678 = LINE ( 'NONE', #572, #242 ) ;
#679 = VECTOR ( 'NONE', #834, 1000.000000000000000 ) ;
#680 = VECTOR ( 'NONE', #185, 1000.000000000000000 ) ;
#681 = ORIENTED_EDGE ( 'NONE', *, *, #260, .F. ) ;
#682 = CLOSED_SHELL ( 'NONE', ( #844, #135, #629, #566, #549, #400, #409, #334, #270, #121, #833, #914, #69, #764, #540, #487, #265, #752, #634, #475, #823, #207, #704, #559 ) ) ;
#683 = CARTESIAN_POINT ( 'NONE',  ( -29.63188015908391293, 5.000000000000000000, 58.75000000000000000 ) ) ;
#684 = PLANE ( 'NONE',  #98 ) ;
#685 = AXIS2_PLACEMENT_3D ( 'NONE', #287, #432, #159 ) ;
#686 = DIRECTION ( 'NONE',  ( -0.000000000000000000, -1.000000000000000000, 0.000000000000000000 ) ) ;
#687 = ORIENTED_EDGE ( 'NONE', *, *, #140, .T. ) ;
#688 = VERTEX_POINT ( 'NONE', #296 ) ;
#689 = ORIENTED_EDGE ( 'NONE', *, *, #866, .T. ) ;
#690 = CARTESIAN_POINT ( 'NONE',  ( -39.63188015908392003, 10.00000000000000000, 65.00000000000000000 ) ) ;
#691 = DIRECTION ( 'NONE',  ( 1.005636797667714040E-16, 0.000000000000000000, 1.000000000000000000 ) ) ;
#692 = CARTESIAN_POINT ( 'NONE',  ( -25.38923947196462194, 5.000000000000000000, 43.50000000000001421 ) ) ;
#693 = EDGE_CURVE ( 'NONE', #891, #819, #615, .T. ) ;
#694 = DIRECTION ( 'NONE',  ( -0.000000000000000000, -1.000000000000000000, -0.000000000000000000 ) ) ;
#695 = CYLINDRICAL_SURFACE ( 'NONE', #617, 1.250000000000001110 ) ;
#696 = COLOUR_RGB ( '',0.6470588235294117974, 0.6196078431372549211, 0.5882352941176470784 ) ;
#697 = FACE_OUTER_BOUND ( 'NONE', #673, .T. ) ;
#698 = EDGE_LOOP ( 'NONE', ( #182, #481, #556, #900, #609, #386, #211, #722 ) ) ;
#699 = CARTESIAN_POINT ( 'NONE',  ( -39.63188015908392003, 5.000000000000000000, 46.75000000000000000 ) ) ;
#700 = VERTEX_POINT ( 'NONE', #782 ) ;
#701 = DIRECTION ( 'NONE',  ( -0.000000000000000000, -1.000000000000000000, -0.000000000000000000 ) ) ;
#702 = AXIS2_PLACEMENT_3D ( 'NONE', #47, #827, #535 ) ;
#703 = DIRECTION ( 'NONE',  ( -0.000000000000000000, -1.000000000000000000, -0.000000000000000000 ) ) ;
#704 = ADVANCED_FACE ( 'NONE', ( #212 ), #707, .F. ) ;
#705 = CARTESIAN_POINT ( 'NONE',  ( -39.63188015908392003, 0.000000000000000000, -4.000000000000003553 ) ) ;
#706 = FILL_AREA_STYLE ('',( #203 ) ) ;
#707 = CYLINDRICAL_SURFACE ( 'NONE', #811, 1.250000000000001110 ) ;
#708 = ORIENTED_EDGE ( 'NONE', *, *, #353, .F. ) ;
#709 = EDGE_CURVE ( 'NONE', #789, #588, #552, .T. ) ;
#710 = ORIENTED_EDGE ( 'NONE', *, *, #525, .T. ) ;
#711 = DIRECTION ( 'NONE',  ( 0.000000000000000000, 0.000000000000000000, 1.000000000000000000 ) ) ;
#712 = DIRECTION ( 'NONE',  ( -1.000000000000000000, -0.000000000000000000, -0.000000000000000000 ) ) ;
#713 = EDGE_LOOP ( 'NONE', ( #58, #395, #881, #263 ) ) ;
#714 = VERTEX_POINT ( 'NONE', #368 ) ;
#715 = EDGE_CURVE ( 'NONE', #740, #688, #479, .T. ) ;
#716 = AXIS2_PLACEMENT_3D ( 'NONE', #496, #653, #16 ) ;
#717 = DIRECTION ( 'NONE',  ( -0.000000000000000000, -0.000000000000000000, -1.000000000000000000 ) ) ;
#718 = VECTOR ( 'NONE', #591, 1000.000000000000000 ) ;
#719 = CIRCLE ( 'NONE', #578, 1.250000000000001110 ) ;
#720 = SURFACE_STYLE_FILL_AREA ( #53 ) ;
#721 = APPLICATION_PROTOCOL_DEFINITION ( 'draft international standard', 'automotive_design', 1998, #232 ) ;
#722 = ORIENTED_EDGE ( 'NONE', *, *, #146, .T. ) ;
#723 = CIRCLE ( 'NONE', #343, 1.700000000000000178 ) ;
#724 = ORIENTED_EDGE ( 'NONE', *, *, #435, .F. ) ;
#725 = AXIS2_PLACEMENT_3D ( 'NONE', #510, #438, #87 ) ;
#726 = ORIENTED_EDGE ( 'NONE', *, *, #45, .F. ) ;
#727 = CARTESIAN_POINT ( 'NONE',  ( -34.63188015908392714, 1.000000000000000222, 17.99999999999999289 ) ) ;
#728 = CARTESIAN_POINT ( 'NONE',  ( -34.63188015908392714, 10.00000000000000000, 23.49999999999998934 ) ) ;
#729 = DIRECTION ( 'NONE',  ( 0.000000000000000000, 0.000000000000000000, -1.000000000000000000 ) ) ;
#730 = ORIENTED_EDGE ( 'NONE', *, *, #88, .F. ) ;
#731 = ORIENTED_EDGE ( 'NONE', *, *, #715, .T. ) ;
#732 = AXIS2_PLACEMENT_3D ( 'NONE', #422, #522, #149 ) ;
#733 = CARTESIAN_POINT ( 'NONE',  ( -34.63188015908392714, 10.00000000000000000, 16.29999999999999005 ) ) ;
#734 = EDGE_CURVE ( 'NONE', #65, #389, #373, .T. ) ;
#735 = FACE_BOUND ( 'NONE', #433, .T. ) ;
#736 = VERTEX_POINT ( 'NONE', #728 ) ;
#737 = CYLINDRICAL_SURFACE ( 'NONE', #82, 0.9999999999999974465 ) ;
#738 = ORIENTED_EDGE ( 'NONE', *, *, #34, .F. ) ;
#739 = ORIENTED_EDGE ( 'NONE', *, *, #606, .T. ) ;
#740 = VERTEX_POINT ( 'NONE', #592 ) ;
#741 = AXIS2_PLACEMENT_3D ( 'NONE', #305, #518, #662 ) ;
#742 = DIRECTION ( 'NONE',  ( -1.000000000000000000, -0.000000000000000000, -0.000000000000000000 ) ) ;
#743 = VECTOR ( 'NONE', #444, 1000.000000000000000 ) ;
#744 = CIRCLE ( 'NONE', #187, 1.250000000000001110 ) ;
#745 = LINE ( 'NONE', #43, #415 ) ;
#746 = SURFACE_SIDE_STYLE ('',( #512 ) ) ;
#747 = VERTEX_POINT ( 'NONE', #650 ) ;
#748 = ORIENTED_EDGE ( 'NONE', *, *, #648, .F. ) ;
#749 = EDGE_CURVE ( 'NONE', #378, #700, #178, .T. ) ;
#750 = CARTESIAN_POINT ( 'NONE',  ( -31.63188015908392714, 0.000000000000000000, 40.99999999999999289 ) ) ;
#751 = DIRECTION ( 'NONE',  ( 0.000000000000000000, 0.000000000000000000, 1.000000000000000000 ) ) ;
#752 = ADVANCED_FACE ( 'NONE', ( #597 ), #273, .F. ) ;
#753 = DIRECTION ( 'NONE',  ( -1.000000000000000000, -0.000000000000000000, -0.000000000000000000 ) ) ;
#754 = AXIS2_PLACEMENT_3D ( 'NONE', #539, #132, #416 ) ;
#755 = FACE_OUTER_BOUND ( 'NONE', #542, .T. ) ;
#756 = FACE_BOUND ( 'NONE', #198, .T. ) ;
#757 = CARTESIAN_POINT ( 'NONE',  ( -34.63188015908392714, 10.00000000000000000, 22.49999999999999289 ) ) ;
#758 = VERTEX_POINT ( 'NONE', #803 ) ;
#759 = CIRCLE ( 'NONE', #824, 1.500000000000001332 ) ;
#760 = ORIENTED_EDGE ( 'NONE', *, *, #140, .F. ) ;
#761 = CARTESIAN_POINT ( 'NONE',  ( -31.63188015908393425, 1.000000000000000222, -4.000000000000010658 ) ) ;
#762 = ORIENTED_EDGE ( 'NONE', *, *, #158, .T. ) ;
#763 = EDGE_CURVE ( 'NONE', #190, #758, #226, .T. ) ;
#764 = ADVANCED_FACE ( 'NONE', ( #907 ), #27, .T. ) ;
#765 = CARTESIAN_POINT ( 'NONE',  ( -31.63188015908393425, 1.000000000000000222, -4.000000000000010658 ) ) ;
#766 = DIRECTION ( 'NONE',  ( 0.000000000000000000, 0.000000000000000000, 1.000000000000000000 ) ) ;
#767 = PLANE ( 'NONE',  #903 ) ;
#768 = LINE ( 'NONE', #546, #38 ) ;
#769 = FACE_BOUND ( 'NONE', #93, .T. ) ;
#770 = PRODUCT_RELATED_PRODUCT_CATEGORY ( 'part', '', ( #586 ) ) ;
#771 = VECTOR ( 'NONE', #144, 1000.000000000000000 ) ;
#772 = CARTESIAN_POINT ( 'NONE',  ( -39.63188015908392003, 5.000000000000000000, 54.00000000000000711 ) ) ;
#773 = COLOUR_RGB ( '',0.6470588235294117974, 0.6196078431372549211, 0.5882352941176470784 ) ;
#774 = ORIENTED_EDGE ( 'NONE', *, *, #248, .T. ) ;
#775 = ORIENTED_EDGE ( 'NONE', *, *, #850, .T. ) ;
#776 = EDGE_CURVE ( 'NONE', #543, #521, #867, .T. ) ;
#777 = PLANE ( 'NONE',  #234 ) ;
#778 = AXIS2_PLACEMENT_3D ( 'NONE', #450, #105, #117 ) ;
#779 = CARTESIAN_POINT ( 'NONE',  ( -31.63188015908393425, 1.000000000000000222, -4.000000000000010658 ) ) ;
#780 =( LENGTH_UNIT ( ) NAMED_UNIT ( * ) SI_UNIT ( .MILLI., .METRE. ) );
#781 = CARTESIAN_POINT ( 'NONE',  ( -39.63188015908392003, 0.000000000000000000, -4.000000000000003553 ) ) ;
#782 = CARTESIAN_POINT ( 'NONE',  ( -34.63188015908392714, 1.000000000000000222, 21.49999999999999645 ) ) ;
#783 = DIRECTION ( 'NONE',  ( 0.000000000000000000, 0.000000000000000000, 1.000000000000000000 ) ) ;
#784 = FACE_OUTER_BOUND ( 'NONE', #9, .T. ) ;
#785 = EDGE_CURVE ( 'NONE', #789, #364, #25, .T. ) ;
#786 = CYLINDRICAL_SURFACE ( 'NONE', #845, 1.500000000000001332 ) ;
#787 = ORIENTED_EDGE ( 'NONE', *, *, #525, .F. ) ;
#788 = DIRECTION ( 'NONE',  ( -0.000000000000000000, -1.000000000000000000, -0.000000000000000000 ) ) ;
#789 = VERTEX_POINT ( 'NONE', #882 ) ;
#790 = ORIENTED_EDGE ( 'NONE', *, *, #815, .F. ) ;
#791 = DIRECTION ( 'NONE',  ( -0.000000000000000000, -1.000000000000000000, -0.000000000000000000 ) ) ;
#792 = DIRECTION ( 'NONE',  ( -1.000000000000000000, -0.000000000000000000, -0.000000000000000000 ) ) ;
#793 = CARTESIAN_POINT ( 'NONE',  ( -34.63188015908392714, 14.80832611206852256, 23.49999999999998934 ) ) ;
#794 = PLANE ( 'NONE',  #604 ) ;
#795 = DIRECTION ( 'NONE',  ( -1.000000000000000000, -0.000000000000000000, -0.000000000000000000 ) ) ;
#796 = VECTOR ( 'NONE', #322, 1000.000000000000000 ) ;
#797 = VECTOR ( 'NONE', #686, 1000.000000000000000 ) ;
#798 = LINE ( 'NONE', #221, #148 ) ;
#799 = VECTOR ( 'NONE', #8, 1000.000000000000000 ) ;
#800 = AXIS2_PLACEMENT_3D ( 'NONE', #94, #601, #729 ) ;
#801 = VERTEX_POINT ( 'NONE', #236 ) ;
#802 = ORIENTED_EDGE ( 'NONE', *, *, #418, .F. ) ;
#803 = CARTESIAN_POINT ( 'NONE',  ( -29.63188015908391293, 0.000000000000000000, 65.00000000000000000 ) ) ;
#804 = EDGE_CURVE ( 'NONE', #166, #588, #244, .T. ) ;
#805 = DIRECTION ( 'NONE',  ( -1.000000000000000000, -0.000000000000000000, -0.000000000000000000 ) ) ;
#806 = MANIFOLD_SOLID_BREP ( 'M3 Gewindebohrung1', #682 ) ;
#807 = SHAPE_DEFINITION_REPRESENTATION ( #290, #379 ) ;
#808 = FACE_BOUND ( 'NONE', #826, .T. ) ;
#809 = PRESENTATION_STYLE_ASSIGNMENT (( #397 ) ) ;
#810 = VERTEX_POINT ( 'NONE', #733 ) ;
#811 = AXIS2_PLACEMENT_3D ( 'NONE', #504, #584, #590 ) ;
#812 = EDGE_LOOP ( 'NONE', ( #246, #277 ) ) ;
#813 = DIRECTION ( 'NONE',  ( -1.000000000000000000, 0.000000000000000000, 0.000000000000000000 ) ) ;
#814 = DIRECTION ( 'NONE',  ( 0.000000000000000000, 0.000000000000000000, 1.000000000000000000 ) ) ;
#815 = EDGE_CURVE ( 'NONE', #534, #819, #404, .T. ) ;
#816 = CIRCLE ( 'NONE', #476, 0.9999999999999974465 ) ;
#817 = LINE ( 'NONE', #181, #680 ) ;
#818 = ORIENTED_EDGE ( 'NONE', *, *, #228, .F. ) ;
#819 = VERTEX_POINT ( 'NONE', #750 ) ;
#820 = EDGE_LOOP ( 'NONE', ( #870, #319 ) ) ;
#821 = MECHANICAL_DESIGN_GEOMETRIC_PRESENTATION_REPRESENTATION (  '', ( #391 ), #895 ) ;
#822 = DIRECTION ( 'NONE',  ( -1.000000000000000000, 0.000000000000000000, 0.000000000000000000 ) ) ;
#823 = ADVANCED_FACE ( 'NONE', ( #344 ), #786, .F. ) ;
#824 = AXIS2_PLACEMENT_3D ( 'NONE', #772, #215, #837 ) ;
#825 = CARTESIAN_POINT ( 'NONE',  ( -39.63188015908392003, 5.000000000000000000, 42.00000000000000711 ) ) ;
#826 = EDGE_LOOP ( 'NONE', ( #600, #309 ) ) ;
#827 = DIRECTION ( 'NONE',  ( -0.000000000000000000, -1.000000000000000000, -0.000000000000000000 ) ) ;
#828 = ORIENTED_EDGE ( 'NONE', *, *, #222, .T. ) ;
#829 = ORIENTED_EDGE ( 'NONE', *, *, #327, .T. ) ;
#830 = ORIENTED_EDGE ( 'NONE', *, *, #228, .T. ) ;
#831 = EDGE_CURVE ( 'NONE', #49, #891, #536, .T. ) ;
#832 = CARTESIAN_POINT ( 'NONE',  ( -25.38923947196462194, 5.000000000000000000, 42.00000000000000711 ) ) ;
#833 = ADVANCED_FACE ( 'NONE', ( #769, #657, #298, #608, #18 ), #464, .F. ) ;
#834 = DIRECTION ( 'NONE',  ( -0.000000000000000000, -1.000000000000000000, -0.000000000000000000 ) ) ;
#835 = DIRECTION ( 'NONE',  ( 0.000000000000000000, 0.000000000000000000, -1.000000000000000000 ) ) ;
#836 = LINE ( 'NONE', #793, #718 ) ;
#837 = DIRECTION ( 'NONE',  ( 0.000000000000000000, 0.000000000000000000, 1.000000000000000000 ) ) ;
#838 = FACE_OUTER_BOUND ( 'NONE', #698, .T. ) ;
#839 = CARTESIAN_POINT ( 'NONE',  ( -34.63188015908392714, 1.000000000000000222, 37.69999999999998863 ) ) ;
#840 = FACE_OUTER_BOUND ( 'NONE', #40, .T. ) ;
#841 = CARTESIAN_POINT ( 'NONE',  ( -37.63188015908393425, 1.000000000000000222, -4.000000000000010658 ) ) ;
#842 = ORIENTED_EDGE ( 'NONE', *, *, #97, .F. ) ;
#843 = DIRECTION ( 'NONE',  ( 0.000000000000000000, 0.000000000000000000, 1.000000000000000000 ) ) ;
#844 = ADVANCED_FACE ( 'NONE', ( #209 ), #581, .F. ) ;
#845 = AXIS2_PLACEMENT_3D ( 'NONE', #832, #551, #399 ) ;
#846 = CARTESIAN_POINT ( 'NONE',  ( -34.63188015908392714, 10.00000000000000000, 21.49999999999999645 ) ) ;
#847 =( NAMED_UNIT ( * ) SI_UNIT ( $, .STERADIAN. ) SOLID_ANGLE_UNIT ( ) );
#848 = CARTESIAN_POINT ( 'NONE',  ( -39.63188015908392003, 5.000000000000000000, 60.00000000000000000 ) ) ;
#849 = CARTESIAN_POINT ( 'NONE',  ( -29.63188015908391293, 5.000000000000000000, 52.50000000000000711 ) ) ;
#850 = EDGE_CURVE ( 'NONE', #638, #598, #905, .T. ) ;
#851 = LINE ( 'NONE', #128, #771 ) ;
#852 = CIRCLE ( 'NONE', #213, 1.700000000000000178 ) ;
#853 = DIRECTION ( 'NONE',  ( 0.000000000000000000, 0.000000000000000000, 1.000000000000000000 ) ) ;
#854 = ORIENTED_EDGE ( 'NONE', *, *, #321, .F. ) ;
#855 = SURFACE_SIDE_STYLE ('',( #252 ) ) ;
#856 = VERTEX_POINT ( 'NONE', #3 ) ;
#857 = CARTESIAN_POINT ( 'NONE',  ( -29.63188015908391293, 5.000000000000000000, 48.00000000000000000 ) ) ;
#858 = EDGE_LOOP ( 'NONE', ( #646, #169, #116, #1 ) ) ;
#859 = DIRECTION ( 'NONE',  ( -1.000000000000000000, -0.000000000000000000, -0.000000000000000000 ) ) ;
#860 = STYLED_ITEM ( 'NONE', ( #886 ), #806 ) ;
#861 = DIRECTION ( 'NONE',  ( 0.000000000000000000, 0.000000000000000000, -1.000000000000000000 ) ) ;
#862 = DIRECTION ( 'NONE',  ( -1.000000000000000000, -0.000000000000000000, 1.734723475976806848E-16 ) ) ;
#863 = UNCERTAINTY_MEASURE_WITH_UNIT (LENGTH_MEASURE( 1.000000000000000082E-05 ), #780, 'distance_accuracy_value', 'NONE');
#864 = APPLICATION_PROTOCOL_DEFINITION ( 'draft international standard', 'automotive_design', 1998, #587 ) ;
#865 = FACE_BOUND ( 'NONE', #239, .T. ) ;
#866 = EDGE_CURVE ( 'NONE', #740, #389, #678, .T. ) ;
#867 = LINE ( 'NONE', #528, #743 ) ;
#868 = FACE_OUTER_BOUND ( 'NONE', #858, .T. ) ;
#869 = FILL_AREA_STYLE ('',( #86 ) ) ;
#870 = ORIENTED_EDGE ( 'NONE', *, *, #804, .F. ) ;
#871 = CARTESIAN_POINT ( 'NONE',  ( 0.000000000000000000, 0.000000000000000000, 0.000000000000000000 ) ) ;
#872 = ORIENTED_EDGE ( 'NONE', *, *, #314, .T. ) ;
#873 = ORIENTED_EDGE ( 'NONE', *, *, #401, .T. ) ;
#874 = DIRECTION ( 'NONE',  ( 0.000000000000000000, 0.000000000000000000, 1.000000000000000000 ) ) ;
#875 = CARTESIAN_POINT ( 'NONE',  ( -29.63188015908391293, 10.00000000000000000, 65.00000000000000000 ) ) ;
#876 = DIRECTION ( 'NONE',  ( 0.000000000000000000, 0.000000000000000000, 1.000000000000000000 ) ) ;
#877 = LINE ( 'NONE', #692, #26 ) ;
#878 = MECHANICAL_DESIGN_GEOMETRIC_PRESENTATION_REPRESENTATION (  '', ( #491 ), #175 ) ;
#879 = VERTEX_POINT ( 'NONE', #912 ) ;
#880 = EDGE_LOOP ( 'NONE', ( #361, #376, #902, #101 ) ) ;
#881 = ORIENTED_EDGE ( 'NONE', *, *, #749, .T. ) ;
#882 = CARTESIAN_POINT ( 'NONE',  ( -29.63188015908391648, 5.000000000000000000, 40.50000000000000711 ) ) ;
#883 = EDGE_CURVE ( 'NONE', #736, #459, #836, .T. ) ;
#884 = PRODUCT_DEFINITION_FORMATION_WITH_SPECIFIED_SOURCE ( 'ANY', '', #586, .NOT_KNOWN. ) ;
#885 = LINE ( 'NONE', #240, #403 ) ;
#886 = PRESENTATION_STYLE_ASSIGNMENT (( #50 ) ) ;
#887 = FACE_OUTER_BOUND ( 'NONE', #645, .T. ) ;
#888 = DIRECTION ( 'NONE',  ( 0.000000000000000000, 0.000000000000000000, 1.000000000000000000 ) ) ;
#889 = ORIENTED_EDGE ( 'NONE', *, *, #500, .T. ) ;
#890 = AXIS2_PLACEMENT_3D ( 'NONE', #871, #853, #423 ) ;
#891 = VERTEX_POINT ( 'NONE', #486 ) ;
#892 = DIRECTION ( 'NONE',  ( 1.000000000000000000, 0.000000000000000000, 0.000000000000000000 ) ) ;
#893 = AXIS2_PLACEMENT_3D ( 'NONE', #580, #859, #369 ) ;
#894 =( LENGTH_UNIT ( ) NAMED_UNIT ( * ) SI_UNIT ( .MILLI., .METRE. ) );
#895 =( GEOMETRIC_REPRESENTATION_CONTEXT ( 3 ) GLOBAL_UNCERTAINTY_ASSIGNED_CONTEXT ( ( #863 ) ) GLOBAL_UNIT_ASSIGNED_CONTEXT ( ( #780, #652, #351 ) ) REPRESENTATION_CONTEXT ( 'NONE', 'WORKASPACE' ) );
#896 = FILL_AREA_STYLE_COLOUR ( '', #519 ) ;
#897 = CIRCLE ( 'NONE', #197, 0.9999999999999974465 ) ;
#898 = ORIENTED_EDGE ( 'NONE', *, *, #272, .T. ) ;
#899 = EDGE_CURVE ( 'NONE', #856, #554, #668, .T. ) ;
#900 = ORIENTED_EDGE ( 'NONE', *, *, #88, .T. ) ;
#901 =( NAMED_UNIT ( * ) PLANE_ANGLE_UNIT ( ) SI_UNIT ( $, .RADIAN. ) );
#902 = ORIENTED_EDGE ( 'NONE', *, *, #320, .T. ) ;
#903 = AXIS2_PLACEMENT_3D ( 'NONE', #568, #489, #202 ) ;
#904 = DIRECTION ( 'NONE',  ( 0.000000000000000000, 0.000000000000000000, 1.000000000000000000 ) ) ;
#905 = CIRCLE ( 'NONE', #663, 1.250000000000001110 ) ;
#906 = LINE ( 'NONE', #382, #799 ) ;
#907 = FACE_OUTER_BOUND ( 'NONE', #264, .T. ) ;
#908 = CARTESIAN_POINT ( 'NONE',  ( -39.63188015908392003, 5.000000000000000000, 40.50000000000000711 ) ) ;
#909 = ORIENTED_EDGE ( 'NONE', *, *, #883, .T. ) ;
#910 = DIRECTION ( 'NONE',  ( 0.000000000000000000, 0.000000000000000000, -1.000000000000000000 ) ) ;
#911 = VECTOR ( 'NONE', #647, 1000.000000000000000 ) ;
#912 = CARTESIAN_POINT ( 'NONE',  ( -34.63188015908392714, 10.00000000000000000, 19.69999999999999218 ) ) ;
#913 = VERTEX_POINT ( 'NONE', #506 ) ;
#914 = ADVANCED_FACE ( 'NONE', ( #463, #644, #808, #755 ), #84, .T. ) ;
ENDSEC;
END-ISO-10303-21;
