ISO-10303-21;
HEADER;
FILE_DESCRIPTION (( 'STEP AP214' ),
    '1' );
FILE_NAME ('21631_03_088_gripper bracket_2 3K.STEP',
    '2021-07-26T10:33:53',
    ( '' ),
    ( '' ),
    'SwSTEP 2.0',
    'SolidWorks 2018',
    '' );
FILE_SCHEMA (( 'AUTOMOTIVE_DESIGN' ));
ENDSEC;

DATA;
#1 = AXIS2_PLACEMENT_3D ( 'NONE', #531, #701, #295 ) ;
#2 = CARTESIAN_POINT ( 'NONE',  ( -26.63188015908393780, 0.000000000000000000, 0.000000000000000000 ) ) ;
#3 = CARTESIAN_POINT ( 'NONE',  ( -39.63188015908393425, 10.00000000000000000, 0.000000000000000000 ) ) ;
#4 = CARTESIAN_POINT ( 'NONE',  ( -31.63188015908392714, 10.00000000000000178, 113.7499999999999858 ) ) ;
#5 = DIRECTION ( 'NONE',  ( 0.000000000000000000, -0.000000000000000000, 1.000000000000000000 ) ) ;
#6 = EDGE_CURVE ( 'NONE', #465, #557, #355, .T. ) ;
#7 = FACE_BOUND ( 'NONE', #176, .T. ) ;
#8 = CYLINDRICAL_SURFACE ( 'NONE', #734, 1.700000000000000178 ) ;
#9 = ORIENTED_EDGE ( 'NONE', *, *, #88, .T. ) ;
#10 = UNCERTAINTY_MEASURE_WITH_UNIT (LENGTH_MEASURE( 1.000000000000000082E-05 ), #571, 'distance_accuracy_value', 'NONE');
#11 = VECTOR ( 'NONE', #647, 1000.000000000000000 ) ;
#12 = ORIENTED_EDGE ( 'NONE', *, *, #624, .T. ) ;
#13 = CARTESIAN_POINT ( 'NONE',  ( -31.63188015908392714, 10.00000000000000178, 112.5000000000000000 ) ) ;
#14 = STYLED_ITEM ( 'NONE', ( #280 ), #294 ) ;
#15 = DIRECTION ( 'NONE',  ( -0.000000000000000000, 1.000000000000000000, -0.000000000000000000 ) ) ;
#16 = DIRECTION ( 'NONE',  ( -0.000000000000000000, -1.000000000000000000, -0.000000000000000000 ) ) ;
#17 = CARTESIAN_POINT ( 'NONE',  ( -29.63188015908393425, 14.80832611206852434, 25.49999999999985079 ) ) ;
#18 =( GEOMETRIC_REPRESENTATION_CONTEXT ( 3 ) GLOBAL_UNCERTAINTY_ASSIGNED_CONTEXT ( ( #405 ) ) GLOBAL_UNIT_ASSIGNED_CONTEXT ( ( #178, #362, #762 ) ) REPRESENTATION_CONTEXT ( 'NONE', 'WORKASPACE' ) );
#19 = COLOUR_RGB ( '',0.5019607843137254832, 0.5019607843137254832, 0.5019607843137254832 ) ;
#20 = CIRCLE ( 'NONE', #641, 1.250000000000001110 ) ;
#21 = EDGE_LOOP ( 'NONE', ( #221, #100 ) ) ;
#22 = ORIENTED_EDGE ( 'NONE', *, *, #111, .F. ) ;
#23 = CARTESIAN_POINT ( 'NONE',  ( -31.63188015908392714, 0.000000000000000000, 112.5000000000000000 ) ) ;
#24 = EDGE_LOOP ( 'NONE', ( #718, #676 ) ) ;
#25 = CARTESIAN_POINT ( 'NONE',  ( -29.63188015908393780, 1.000000000000000000, 45.00000000000000000 ) ) ;
#26 =( GEOMETRIC_REPRESENTATION_CONTEXT ( 3 ) GLOBAL_UNCERTAINTY_ASSIGNED_CONTEXT ( ( #156 ) ) GLOBAL_UNIT_ASSIGNED_CONTEXT ( ( #384, #262, #208 ) ) REPRESENTATION_CONTEXT ( 'NONE', 'WORKASPACE' ) );
#27 = FACE_OUTER_BOUND ( 'NONE', #78, .T. ) ;
#28 = CIRCLE ( 'NONE', #82, 1.700000000000000178 ) ;
#29 =( LENGTH_UNIT ( ) NAMED_UNIT ( * ) SI_UNIT ( .MILLI., .METRE. ) );
#30 = ORIENTED_EDGE ( 'NONE', *, *, #331, .T. ) ;
#31 = DIRECTION ( 'NONE',  ( 0.000000000000000000, 0.000000000000000000, -1.000000000000000000 ) ) ;
#32 =( NAMED_UNIT ( * ) PLANE_ANGLE_UNIT ( ) SI_UNIT ( $, .RADIAN. ) );
#33 = AXIS2_PLACEMENT_3D ( 'NONE', #756, #109, #349 ) ;
#34 = VECTOR ( 'NONE', #601, 1000.000000000000000 ) ;
#35 = VECTOR ( 'NONE', #430, 1000.000000000000000 ) ;
#36 = ORIENTED_EDGE ( 'NONE', *, *, #723, .T. ) ;
#37 = ORIENTED_EDGE ( 'NONE', *, *, #43, .F. ) ;
#38 = DIRECTION ( 'NONE',  ( -0.000000000000000000, 1.000000000000000000, -0.000000000000000000 ) ) ;
#39 = AXIS2_PLACEMENT_3D ( 'NONE', #372, #249, #667 ) ;
#40 = CARTESIAN_POINT ( 'NONE',  ( -31.63188015908393425, 10.00000000000000178, 124.5000000000000000 ) ) ;
#41 = FACE_OUTER_BOUND ( 'NONE', #87, .T. ) ;
#42 = CIRCLE ( 'NONE', #694, 1.700000000000000178 ) ;
#43 = EDGE_CURVE ( 'NONE', #494, #530, #112, .T. ) ;
#44 = ORIENTED_EDGE ( 'NONE', *, *, #261, .T. ) ;
#45 = ORIENTED_EDGE ( 'NONE', *, *, #276, .T. ) ;
#46 = STYLED_ITEM ( 'NONE', ( #504 ), #596 ) ;
#47 = CARTESIAN_POINT ( 'NONE',  ( -31.63188015908392714, 0.000000000000000000, 113.7500000000000000 ) ) ;
#48 = CARTESIAN_POINT ( 'NONE',  ( -19.63188015908391648, 0.000000000000000000, 130.0000000000000000 ) ) ;
#49 = CYLINDRICAL_SURFACE ( 'NONE', #154, 1.250000000000001110 ) ;
#50 = VECTOR ( 'NONE', #713, 1000.000000000000000 ) ;
#51 = FACE_BOUND ( 'NONE', #24, .T. ) ;
#52 = ORIENTED_EDGE ( 'NONE', *, *, #187, .T. ) ;
#53 = VERTEX_POINT ( 'NONE', #48 ) ;
#54 = DIRECTION ( 'NONE',  ( -0.000000000000000000, 1.000000000000000000, -0.000000000000000000 ) ) ;
#55 = CARTESIAN_POINT ( 'NONE',  ( 0.000000000000000000, 10.00000000000000000, 0.000000000000000000 ) ) ;
#56 = DIRECTION ( 'NONE',  ( -1.000000000000000000, 0.000000000000000000, 1.334402673828313093E-16 ) ) ;
#57 = SURFACE_SIDE_STYLE ('',( #418 ) ) ;
#58 = MECHANICAL_DESIGN_GEOMETRIC_PRESENTATION_REPRESENTATION (  '', ( #375 ), #165 ) ;
#59 = CARTESIAN_POINT ( 'NONE',  ( -26.63188015908393780, 1.000000000000000000, 45.00000000000000000 ) ) ;
#60 = DIRECTION ( 'NONE',  ( 0.000000000000000000, 0.000000000000000000, -1.000000000000000000 ) ) ;
#61 = VECTOR ( 'NONE', #577, 1000.000000000000000 ) ;
#62 = ORIENTED_EDGE ( 'NONE', *, *, #297, .T. ) ;
#63 = ORIENTED_EDGE ( 'NONE', *, *, #739, .F. ) ;
#64 = LINE ( 'NONE', #705, #11 ) ;
#65 = SURFACE_SIDE_STYLE ('',( #200 ) ) ;
#66 = ORIENTED_EDGE ( 'NONE', *, *, #261, .F. ) ;
#67 = DIRECTION ( 'NONE',  ( -0.000000000000000000, -1.000000000000000000, 0.000000000000000000 ) ) ;
#68 = ADVANCED_FACE ( 'NONE', ( #520 ), #281, .F. ) ;
#69 = AXIS2_PLACEMENT_3D ( 'NONE', #620, #84, #431 ) ;
#70 = CARTESIAN_POINT ( 'NONE',  ( -39.63188015908392714, 0.000000000000000000, 130.0000000000000000 ) ) ;
#71 = CARTESIAN_POINT ( 'NONE',  ( -32.63188015908393425, 1.000000000000000000, 45.00000000000000000 ) ) ;
#72 = EDGE_CURVE ( 'NONE', #425, #182, #228, .T. ) ;
#73 = CARTESIAN_POINT ( 'NONE',  ( -29.63188015908393425, 1.000000000000000000, 21.99999999999999645 ) ) ;
#74 = CYLINDRICAL_SURFACE ( 'NONE', #464, 1.249999999999987121 ) ;
#75 = CARTESIAN_POINT ( 'NONE',  ( -39.63188015908393425, 0.000000000000000000, 0.000000000000000000 ) ) ;
#76 = FACE_OUTER_BOUND ( 'NONE', #716, .T. ) ;
#77 = VERTEX_POINT ( 'NONE', #422 ) ;
#78 = EDGE_LOOP ( 'NONE', ( #282, #367, #358, #602 ) ) ;
#79 = DIRECTION ( 'NONE',  ( 0.000000000000000000, 0.000000000000000000, -1.000000000000000000 ) ) ;
#80 = CARTESIAN_POINT ( 'NONE',  ( -26.63188015908393780, 1.000000000000000000, 0.000000000000000000 ) ) ;
#81 = CARTESIAN_POINT ( 'NONE',  ( -31.63188015908393425, 10.00000000000000000, 124.5000000000000000 ) ) ;
#82 = AXIS2_PLACEMENT_3D ( 'NONE', #186, #481, #305 ) ;
#83 = FACE_OUTER_BOUND ( 'NONE', #277, .T. ) ;
#84 = DIRECTION ( 'NONE',  ( 0.000000000000000000, -1.000000000000000000, 0.000000000000000000 ) ) ;
#85 = ORIENTED_EDGE ( 'NONE', *, *, #523, .F. ) ;
#86 = COLOUR_RGB ( '',0.5019607843137254832, 0.5019607843137254832, 0.5019607843137254832 ) ;
#87 = EDGE_LOOP ( 'NONE', ( #458, #289, #44, #665 ) ) ;
#88 = EDGE_CURVE ( 'NONE', #496, #107, #64, .T. ) ;
#89 = DIRECTION ( 'NONE',  ( 0.000000000000000000, -1.000000000000000000, 0.000000000000000000 ) ) ;
#90 = FILL_AREA_STYLE_COLOUR ( '', #519 ) ;
#91 = EDGE_CURVE ( 'NONE', #193, #220, #98, .T. ) ;
#92 = APPLICATION_CONTEXT ( 'automotive_design' ) ;
#93 = CIRCLE ( 'NONE', #529, 1.700000000000000178 ) ;
#94 = PLANE ( 'NONE',  #192 ) ;
#95 =( GEOMETRIC_REPRESENTATION_CONTEXT ( 3 ) GLOBAL_UNCERTAINTY_ASSIGNED_CONTEXT ( ( #336 ) ) GLOBAL_UNIT_ASSIGNED_CONTEXT ( ( #328, #500, #563 ) ) REPRESENTATION_CONTEXT ( 'NONE', 'WORKASPACE' ) );
#96 = FACE_OUTER_BOUND ( 'NONE', #456, .T. ) ;
#97 = VERTEX_POINT ( 'NONE', #359 ) ;
#98 = LINE ( 'NONE', #533, #675 ) ;
#99 = DIRECTION ( 'NONE',  ( 0.000000000000000000, -1.000000000000000000, 0.000000000000000000 ) ) ;
#100 = ORIENTED_EDGE ( 'NONE', *, *, #420, .F. ) ;
#101 = EDGE_LOOP ( 'NONE', ( #455, #115, #427, #257 ) ) ;
#102 = EDGE_CURVE ( 'NONE', #698, #465, #444, .T. ) ;
#103 = CARTESIAN_POINT ( 'NONE',  ( -29.63188015908393425, 1.000000000000000000, 21.99999999999999645 ) ) ;
#104 = ADVANCED_FACE ( 'NONE', ( #683 ), #370, .F. ) ;
#105 = DIRECTION ( 'NONE',  ( 0.000000000000000000, 0.000000000000000000, 1.000000000000000000 ) ) ;
#106 = PLANE ( 'NONE',  #348 ) ;
#107 = VERTEX_POINT ( 'NONE', #595 ) ;
#108 =( GEOMETRIC_REPRESENTATION_CONTEXT ( 3 ) GLOBAL_UNCERTAINTY_ASSIGNED_CONTEXT ( ( #10 ) ) GLOBAL_UNIT_ASSIGNED_CONTEXT ( ( #571, #32, #738 ) ) REPRESENTATION_CONTEXT ( 'NONE', 'WORKASPACE' ) );
#109 = DIRECTION ( 'NONE',  ( -0.000000000000000000, -1.000000000000000000, 0.000000000000000000 ) ) ;
#110 = LINE ( 'NONE', #360, #337 ) ;
#111 = EDGE_CURVE ( 'NONE', #53, #290, #512, .T. ) ;
#112 = LINE ( 'NONE', #230, #389 ) ;
#113 = ORIENTED_EDGE ( 'NONE', *, *, #286, .T. ) ;
#114 = DIRECTION ( 'NONE',  ( 0.000000000000000000, 0.000000000000000000, 1.000000000000000000 ) ) ;
#115 = ORIENTED_EDGE ( 'NONE', *, *, #223, .F. ) ;
#116 = ADVANCED_FACE ( 'NONE', ( #51, #590, #191, #717, #742, #368 ), #535, .T. ) ;
#117 = DIRECTION ( 'NONE',  ( -0.000000000000000000, 1.000000000000000000, -0.000000000000000000 ) ) ;
#118 = VECTOR ( 'NONE', #381, 1000.000000000000000 ) ;
#119 = CARTESIAN_POINT ( 'NONE',  ( -29.63188015908393425, 14.80832611206852434, 41.69999999999999574 ) ) ;
#120 = DIRECTION ( 'NONE',  ( 0.000000000000000000, 1.000000000000000000, 0.000000000000000000 ) ) ;
#121 = ADVANCED_FACE ( 'NONE', ( #159 ), #122, .F. ) ;
#122 = CYLINDRICAL_SURFACE ( 'NONE', #594, 1.700000000000000178 ) ;
#123 =( GEOMETRIC_REPRESENTATION_CONTEXT ( 3 ) GLOBAL_UNCERTAINTY_ASSIGNED_CONTEXT ( ( #316 ) ) GLOBAL_UNIT_ASSIGNED_CONTEXT ( ( #732, #561, #727 ) ) REPRESENTATION_CONTEXT ( 'NONE', 'WORKASPACE' ) );
#124 = ORIENTED_EDGE ( 'NONE', *, *, #43, .T. ) ;
#125 = DIRECTION ( 'NONE',  ( -0.000000000000000000, 1.000000000000000000, -0.000000000000000000 ) ) ;
#126 = ADVANCED_FACE ( 'NONE', ( #565 ), #505, .F. ) ;
#127 = CARTESIAN_POINT ( 'NONE',  ( -39.63188015908392714, 10.00000000000000000, 130.0000000000000000 ) ) ;
#128 = DIRECTION ( 'NONE',  ( 0.000000000000000000, 0.000000000000000000, -1.000000000000000000 ) ) ;
#129 = EDGE_CURVE ( 'NONE', #735, #325, #643, .T. ) ;
#130 = CARTESIAN_POINT ( 'NONE',  ( -31.63188015908392714, 10.00000000000000000, 111.2500000000000142 ) ) ;
#131 = VECTOR ( 'NONE', #264, 1000.000000000000000 ) ;
#132 = LINE ( 'NONE', #75, #471 ) ;
#133 = EDGE_LOOP ( 'NONE', ( #473, #323, #158, #37 ) ) ;
#134 = VECTOR ( 'NONE', #659, 1000.000000000000000 ) ;
#135 = EDGE_CURVE ( 'NONE', #325, #592, #242, .T. ) ;
#136 = ORIENTED_EDGE ( 'NONE', *, *, #318, .F. ) ;
#137 = FILL_AREA_STYLE ('',( #609 ) ) ;
#138 = ORIENTED_EDGE ( 'NONE', *, *, #248, .F. ) ;
#139 = AXIS2_PLACEMENT_3D ( 'NONE', #73, #374, #681 ) ;
#140 = CARTESIAN_POINT ( 'NONE',  ( -39.63188015908392714, 10.00000000000000000, 130.0000000000000000 ) ) ;
#141 = ORIENTED_EDGE ( 'NONE', *, *, #719, .T. ) ;
#142 = CARTESIAN_POINT ( 'NONE',  ( -32.63188015908393425, 1.000000000000000000, 45.00000000000000000 ) ) ;
#143 = EDGE_CURVE ( 'NONE', #576, #182, #628, .T. ) ;
#144 = DIRECTION ( 'NONE',  ( -0.000000000000000000, -1.000000000000000000, -0.000000000000000000 ) ) ;
#145 = PRESENTATION_STYLE_ASSIGNMENT (( #487 ) ) ;
#146 = DIRECTION ( 'NONE',  ( -0.000000000000000000, 1.000000000000000000, -0.000000000000000000 ) ) ;
#147 = SURFACE_STYLE_FILL_AREA ( #137 ) ;
#148 = EDGE_LOOP ( 'NONE', ( #113, #181, #674, #141 ) ) ;
#149 = DIRECTION ( 'NONE',  ( -0.000000000000000000, -1.000000000000000000, -0.000000000000000000 ) ) ;
#150 = ORIENTED_EDGE ( 'NONE', *, *, #197, .F. ) ;
#151 = CARTESIAN_POINT ( 'NONE',  ( -19.63188015908391648, 10.00000000000000000, 130.0000000000000000 ) ) ;
#152 = DIRECTION ( 'NONE',  ( 0.000000000000000000, 1.000000000000000000, 0.000000000000000000 ) ) ;
#153 = CARTESIAN_POINT ( 'NONE',  ( -29.63188015908393425, 10.00000000000000000, 21.99999999999999645 ) ) ;
#154 = AXIS2_PLACEMENT_3D ( 'NONE', #251, #125, #492 ) ;
#155 = CYLINDRICAL_SURFACE ( 'NONE', #292, 1.700000000000000178 ) ;
#156 = UNCERTAINTY_MEASURE_WITH_UNIT (LENGTH_MEASURE( 1.000000000000000082E-05 ), #384, 'distance_accuracy_value', 'NONE');
#157 = CIRCLE ( 'NONE', #310, 1.249999999999987121 ) ;
#158 = ORIENTED_EDGE ( 'NONE', *, *, #408, .T. ) ;
#159 = FACE_OUTER_BOUND ( 'NONE', #707, .T. ) ;
#160 = CARTESIAN_POINT ( 'NONE',  ( -31.63188015908393425, 0.000000000000000000, 125.7500000000000000 ) ) ;
#161 = ORIENTED_EDGE ( 'NONE', *, *, #461, .T. ) ;
#162 = EDGE_CURVE ( 'NONE', #476, #496, #28, .T. ) ;
#163 = CARTESIAN_POINT ( 'NONE',  ( -26.63188015908393780, 1.000000000000000000, 0.000000000000000000 ) ) ;
#164 = DIRECTION ( 'NONE',  ( 0.000000000000000000, 0.000000000000000000, 1.000000000000000000 ) ) ;
#165 =( GEOMETRIC_REPRESENTATION_CONTEXT ( 3 ) GLOBAL_UNCERTAINTY_ASSIGNED_CONTEXT ( ( #459 ) ) GLOBAL_UNIT_ASSIGNED_CONTEXT ( ( #29, #391, #693 ) ) REPRESENTATION_CONTEXT ( 'NONE', 'WORKASPACE' ) );
#166 = VECTOR ( 'NONE', #343, 1000.000000000000000 ) ;
#167 = CIRCLE ( 'NONE', #490, 0.9999999999999974465 ) ;
#168 = EDGE_LOOP ( 'NONE', ( #335, #697, #369, #12 ) ) ;
#169 = ORIENTED_EDGE ( 'NONE', *, *, #318, .T. ) ;
#170 = ORIENTED_EDGE ( 'NONE', *, *, #72, .F. ) ;
#171 = ADVANCED_FACE ( 'NONE', ( #76 ), #663, .F. ) ;
#172 = AXIS2_PLACEMENT_3D ( 'NONE', #274, #688, #394 ) ;
#173 = CARTESIAN_POINT ( 'NONE',  ( 0.000000000000000000, 0.000000000000000000, 0.000000000000000000 ) ) ;
#174 = EDGE_CURVE ( 'NONE', #621, #425, #233, .T. ) ;
#175 = VECTOR ( 'NONE', #301, 1000.000000000000000 ) ;
#176 = EDGE_LOOP ( 'NONE', ( #752, #764 ) ) ;
#177 = AXIS2_PLACEMENT_3D ( 'NONE', #25, #434, #556 ) ;
#178 =( LENGTH_UNIT ( ) NAMED_UNIT ( * ) SI_UNIT ( .MILLI., .METRE. ) );
#179 = CYLINDRICAL_SURFACE ( 'NONE', #39, 0.9999999999999974465 ) ;
#180 = EDGE_CURVE ( 'NONE', #494, #390, #690, .T. ) ;
#181 = ORIENTED_EDGE ( 'NONE', *, *, #467, .F. ) ;
#182 = VERTEX_POINT ( 'NONE', #414 ) ;
#183 = PRODUCT_DEFINITION_SHAPE ( 'NONE', 'NONE',  #516 ) ;
#184 = CARTESIAN_POINT ( 'NONE',  ( -32.63188015908393425, 1.000000000000000000, 0.000000000000000000 ) ) ;
#185 = DIRECTION ( 'NONE',  ( 1.000000000000000000, -0.000000000000000000, 0.000000000000000000 ) ) ;
#186 = CARTESIAN_POINT ( 'NONE',  ( -29.63188015908393425, 10.00000000000000000, 39.99999999999999289 ) ) ;
#187 = EDGE_CURVE ( 'NONE', #507, #497, #288, .T. ) ;
#188 = CARTESIAN_POINT ( 'NONE',  ( -19.63188015908393425, 10.00000000000000000, 0.000000000000000000 ) ) ;
#189 = DIRECTION ( 'NONE',  ( 0.000000000000000000, 0.000000000000000000, 1.000000000000000000 ) ) ;
#190 = FILL_AREA_STYLE ('',( #296 ) ) ;
#191 = FACE_BOUND ( 'NONE', #446, .T. ) ;
#192 = AXIS2_PLACEMENT_3D ( 'NONE', #163, #574, #216 ) ;
#193 = VERTEX_POINT ( 'NONE', #672 ) ;
#194 = DIRECTION ( 'NONE',  ( -0.000000000000000000, 1.000000000000000000, -0.000000000000000000 ) ) ;
#195 = CARTESIAN_POINT ( 'NONE',  ( -26.63188015908393780, 0.000000000000000000, 0.000000000000000000 ) ) ;
#196 = DIRECTION ( 'NONE',  ( -0.000000000000000000, -1.000000000000000000, -0.000000000000000000 ) ) ;
#197 = EDGE_CURVE ( 'NONE', #465, #425, #599, .T. ) ;
#198 = DIRECTION ( 'NONE',  ( 0.000000000000000000, 0.000000000000000000, 1.000000000000000000 ) ) ;
#199 = LINE ( 'NONE', #730, #553 ) ;
#200 = SURFACE_STYLE_FILL_AREA ( #478 ) ;
#201 = ORIENTED_EDGE ( 'NONE', *, *, #162, .F. ) ;
#202 = LINE ( 'NONE', #140, #35 ) ;
#203 = CARTESIAN_POINT ( 'NONE',  ( -29.63188015908393425, 10.00000000000000000, 39.99999999999999289 ) ) ;
#204 = ORIENTED_EDGE ( 'NONE', *, *, #224, .T. ) ;
#205 = DIRECTION ( 'NONE',  ( 0.000000000000000000, 0.000000000000000000, 1.000000000000000000 ) ) ;
#206 = ORIENTED_EDGE ( 'NONE', *, *, #385, .T. ) ;
#207 = CARTESIAN_POINT ( 'NONE',  ( -19.63188015908391648, 10.00000000000000000, 130.0000000000000000 ) ) ;
#208 =( NAMED_UNIT ( * ) SI_UNIT ( $, .STERADIAN. ) SOLID_ANGLE_UNIT ( ) );
#209 = DIRECTION ( 'NONE',  ( 0.000000000000000000, 0.000000000000000000, 1.000000000000000000 ) ) ;
#210 = AXIS2_PLACEMENT_3D ( 'NONE', #704, #54, #236 ) ;
#211 = VECTOR ( 'NONE', #469, 1000.000000000000000 ) ;
#212 = ORIENTED_EDGE ( 'NONE', *, *, #102, .F. ) ;
#213 = EDGE_CURVE ( 'NONE', #592, #229, #202, .T. ) ;
#214 = PLANE ( 'NONE',  #172 ) ;
#215 = DIRECTION ( 'NONE',  ( 0.000000000000000000, 0.000000000000000000, 1.000000000000000000 ) ) ;
#216 = DIRECTION ( 'NONE',  ( 0.000000000000000000, 0.000000000000000000, 1.000000000000000000 ) ) ;
#217 = SURFACE_STYLE_FILL_AREA ( #627 ) ;
#218 = FACE_OUTER_BOUND ( 'NONE', #748, .T. ) ;
#219 = EDGE_LOOP ( 'NONE', ( #575, #514 ) ) ;
#220 = VERTEX_POINT ( 'NONE', #548 ) ;
#221 = ORIENTED_EDGE ( 'NONE', *, *, #624, .F. ) ;
#222 = APPLICATION_PROTOCOL_DEFINITION ( 'draft international standard', 'automotive_design', 1998, #445 ) ;
#223 = EDGE_CURVE ( 'NONE', #339, #97, #20, .T. ) ;
#224 = EDGE_CURVE ( 'NONE', #97, #339, #322, .T. ) ;
#225 = DIRECTION ( 'NONE',  ( 0.000000000000000000, 1.000000000000000000, 0.000000000000000000 ) ) ;
#226 = FACE_BOUND ( 'NONE', #303, .T. ) ;
#227 = CIRCLE ( 'NONE', #720, 1.249999999999973355 ) ;
#228 = CIRCLE ( 'NONE', #749, 3.000000000000002665 ) ;
#229 = VERTEX_POINT ( 'NONE', #207 ) ;
#230 = CARTESIAN_POINT ( 'NONE',  ( -31.63188015908392714, 10.00000000000000000, 113.7499999999999858 ) ) ;
#231 = EDGE_CURVE ( 'NONE', #193, #507, #167, .T. ) ;
#232 = FACE_OUTER_BOUND ( 'NONE', #133, .T. ) ;
#233 = LINE ( 'NONE', #71, #253 ) ;
#234 = ORIENTED_EDGE ( 'NONE', *, *, #6, .F. ) ;
#235 = ORIENTED_EDGE ( 'NONE', *, *, #129, .F. ) ;
#236 = DIRECTION ( 'NONE',  ( 0.000000000000000000, 0.000000000000000000, 1.000000000000000000 ) ) ;
#237 = DIRECTION ( 'NONE',  ( 0.000000000000000000, 0.000000000000000000, 1.000000000000000000 ) ) ;
#238 = CARTESIAN_POINT ( 'NONE',  ( -31.63188015908392714, 10.00000000000000000, 112.5000000000000000 ) ) ;
#239 = ADVANCED_BREP_SHAPE_REPRESENTATION ( '21631_03_088_gripper bracket_2 3K', ( #268, #626 ), #108 ) ;
#240 = AXIS2_PLACEMENT_3D ( 'NONE', #540, #56, #765 ) ;
#241 = VECTOR ( 'NONE', #439, 1000.000000000000000 ) ;
#242 = LINE ( 'NONE', #3, #424 ) ;
#243 =( NAMED_UNIT ( * ) PLANE_ANGLE_UNIT ( ) SI_UNIT ( $, .RADIAN. ) );
#244 = EDGE_LOOP ( 'NONE', ( #726, #169 ) ) ;
#245 = CARTESIAN_POINT ( 'NONE',  ( -31.63188015908392714, 10.00000000000000000, 112.5000000000000000 ) ) ;
#246 = VERTEX_POINT ( 'NONE', #612 ) ;
#247 = DIRECTION ( 'NONE',  ( -0.000000000000000000, -1.000000000000000000, -0.000000000000000000 ) ) ;
#248 = EDGE_CURVE ( 'NONE', #390, #513, #581, .T. ) ;
#249 = DIRECTION ( 'NONE',  ( -0.000000000000000000, -1.000000000000000000, -0.000000000000000000 ) ) ;
#250 = DIRECTION ( 'NONE',  ( -0.000000000000000000, -1.000000000000000000, -0.000000000000000000 ) ) ;
#251 = CARTESIAN_POINT ( 'NONE',  ( -31.63188015908393425, 10.00000000000000000, 124.5000000000000000 ) ) ;
#252 = LINE ( 'NONE', #119, #539 ) ;
#253 = VECTOR ( 'NONE', #258, 1000.000000000000000 ) ;
#254 = AXIS2_PLACEMENT_3D ( 'NONE', #614, #16, #269 ) ;
#255 = ORIENTED_EDGE ( 'NONE', *, *, #543, .F. ) ;
#256 = DIRECTION ( 'NONE',  ( 0.000000000000000000, 0.000000000000000000, 1.000000000000000000 ) ) ;
#257 = ORIENTED_EDGE ( 'NONE', *, *, #371, .T. ) ;
#258 = DIRECTION ( 'NONE',  ( -0.000000000000000000, -1.000000000000000000, 0.000000000000000000 ) ) ;
#259 = CARTESIAN_POINT ( 'NONE',  ( -29.63188015908393425, 14.80832611206852434, 23.69999999999999574 ) ) ;
#260 = DIRECTION ( 'NONE',  ( -0.000000000000000000, 1.000000000000000000, -0.000000000000000000 ) ) ;
#261 = EDGE_CURVE ( 'NONE', #220, #497, #650, .T. ) ;
#262 =( NAMED_UNIT ( * ) PLANE_ANGLE_UNIT ( ) SI_UNIT ( $, .RADIAN. ) );
#263 = CIRCLE ( 'NONE', #340, 0.9999999999999974465 ) ;
#264 = DIRECTION ( 'NONE',  ( -0.000000000000000000, -1.000000000000000000, -0.000000000000000000 ) ) ;
#265 = EDGE_CURVE ( 'NONE', #290, #545, #636, .T. ) ;
#266 = CARTESIAN_POINT ( 'NONE',  ( -19.63188015908393425, 10.00000000000000000, 0.000000000000000000 ) ) ;
#267 = ORIENTED_EDGE ( 'NONE', *, *, #6, .T. ) ;
#268 = MANIFOLD_SOLID_BREP ( 'M3 Gewindebohrung1', #302 ) ;
#269 = DIRECTION ( 'NONE',  ( 0.000000000000000000, 0.000000000000000000, 1.000000000000000000 ) ) ;
#270 = CARTESIAN_POINT ( 'NONE',  ( -39.63188015908393425, 10.00000000000000000, 0.000000000000000000 ) ) ;
#271 = DIRECTION ( 'NONE',  ( 1.000000000000000000, 0.000000000000000000, 0.000000000000000000 ) ) ;
#272 = DIRECTION ( 'NONE',  ( 0.000000000000000000, 0.000000000000000000, 1.000000000000000000 ) ) ;
#273 = AXIS2_PLACEMENT_3D ( 'NONE', #503, #152, #625 ) ;
#274 = CARTESIAN_POINT ( 'NONE',  ( -39.63188015908393425, 10.00000000000000000, 0.000000000000000000 ) ) ;
#275 = ORIENTED_EDGE ( 'NONE', *, *, #566, .F. ) ;
#276 = EDGE_CURVE ( 'NONE', #182, #545, #463, .T. ) ;
#277 = EDGE_LOOP ( 'NONE', ( #357, #376, #314, #267, #652, #235, #62, #411 ) ) ;
#278 = CARTESIAN_POINT ( 'NONE',  ( -31.63188015908392714, 0.000000000000000000, 111.2500000000000000 ) ) ;
#279 = FILL_AREA_STYLE_COLOUR ( '', #551 ) ;
#280 = PRESENTATION_STYLE_ASSIGNMENT (( #436 ) ) ;
#281 = CYLINDRICAL_SURFACE ( 'NONE', #33, 3.000000000000002665 ) ;
#282 = ORIENTED_EDGE ( 'NONE', *, *, #276, .F. ) ;
#283 = AXIS2_PLACEMENT_3D ( 'NONE', #23, #146, #382 ) ;
#284 = ORIENTED_EDGE ( 'NONE', *, *, #660, .T. ) ;
#285 = DIRECTION ( 'NONE',  ( -0.000000000000000000, 1.000000000000000000, -0.000000000000000000 ) ) ;
#286 = EDGE_CURVE ( 'NONE', #557, #591, #132, .T. ) ;
#287 = PLANE ( 'NONE',  #604 ) ;
#288 = LINE ( 'NONE', #17, #680 ) ;
#289 = ORIENTED_EDGE ( 'NONE', *, *, #91, .T. ) ;
#290 = VERTEX_POINT ( 'NONE', #398 ) ;
#291 = EDGE_LOOP ( 'NONE', ( #691, #639, #491, #638 ) ) ;
#292 = AXIS2_PLACEMENT_3D ( 'NONE', #623, #149, #562 ) ;
#293 = CARTESIAN_POINT ( 'NONE',  ( -29.63188015908393425, 10.00000000000000000, 25.49999999999985079 ) ) ;
#294 = ADVANCED_FACE ( 'NONE', ( #300 ), #714, .F. ) ;
#295 = DIRECTION ( 'NONE',  ( 0.000000000000000000, 0.000000000000000000, -1.000000000000000000 ) ) ;
#296 = FILL_AREA_STYLE_COLOUR ( '', #86 ) ;
#297 = EDGE_CURVE ( 'NONE', #735, #290, #345, .T. ) ;
#298 = FACE_OUTER_BOUND ( 'NONE', #399, .T. ) ;
#299 = VECTOR ( 'NONE', #475, 1000.000000000000000 ) ;
#300 = FACE_OUTER_BOUND ( 'NONE', #101, .T. ) ;
#301 = DIRECTION ( 'NONE',  ( -1.000000000000000000, -0.000000000000000000, -0.000000000000000000 ) ) ;
#302 = CLOSED_SHELL ( 'NONE', ( #596, #593, #121, #350, #579, #352, #470, #104, #515, #116, #457, #361, #588, #68, #655, #171, #661, #474, #126, #294 ) ) ;
#303 = EDGE_LOOP ( 'NONE', ( #651, #204 ) ) ;
#304 = DIRECTION ( 'NONE',  ( 0.000000000000000000, 0.000000000000000000, 1.000000000000000000 ) ) ;
#305 = DIRECTION ( 'NONE',  ( 0.000000000000000000, 0.000000000000000000, 1.000000000000000000 ) ) ;
#306 = EDGE_CURVE ( 'NONE', #621, #576, #564, .T. ) ;
#307 = CARTESIAN_POINT ( 'NONE',  ( -39.63188015908393425, 10.00000000000000000, 0.000000000000000000 ) ) ;
#308 = DIRECTION ( 'NONE',  ( 0.000000000000000000, 1.000000000000000000, 0.000000000000000000 ) ) ;
#309 = FACE_BOUND ( 'NONE', #450, .T. ) ;
#310 = AXIS2_PLACEMENT_3D ( 'NONE', #403, #38, #105 ) ;
#311 = CIRCLE ( 'NONE', #587, 1.700000000000000178 ) ;
#312 = ORIENTED_EDGE ( 'NONE', *, *, #72, .T. ) ;
#313 = PLANE ( 'NONE',  #743 ) ;
#314 = ORIENTED_EDGE ( 'NONE', *, *, #102, .T. ) ;
#315 = CARTESIAN_POINT ( 'NONE',  ( -31.63188015908393425, 0.000000000000000000, 124.5000000000000000 ) ) ;
#316 = UNCERTAINTY_MEASURE_WITH_UNIT (LENGTH_MEASURE( 1.000000000000000082E-05 ), #732, 'distance_accuracy_value', 'NONE');
#317 = FILL_AREA_STYLE_COLOUR ( '', #662 ) ;
#318 = EDGE_CURVE ( 'NONE', #555, #677, #311, .T. ) ;
#319 = CARTESIAN_POINT ( 'NONE',  ( -32.63188015908393425, 1.000000000000000000, 0.000000000000000000 ) ) ;
#320 = DIRECTION ( 'NONE',  ( 0.000000000000000000, 0.000000000000000000, 1.000000000000000000 ) ) ;
#321 = CARTESIAN_POINT ( 'NONE',  ( -39.63188015908393425, 0.000000000000000000, 0.000000000000000000 ) ) ;
#322 = CIRCLE ( 'NONE', #684, 1.250000000000001110 ) ;
#323 = ORIENTED_EDGE ( 'NONE', *, *, #248, .T. ) ;
#324 = DIRECTION ( 'NONE',  ( -0.000000000000000000, -1.000000000000000000, -0.000000000000000000 ) ) ;
#325 = VERTEX_POINT ( 'NONE', #270 ) ;
#326 = CARTESIAN_POINT ( 'NONE',  ( -31.63188015908393425, 0.000000000000000000, 124.5000000000000000 ) ) ;
#327 = DIRECTION ( 'NONE',  ( -0.000000000000000000, -1.000000000000000000, -0.000000000000000000 ) ) ;
#328 =( LENGTH_UNIT ( ) NAMED_UNIT ( * ) SI_UNIT ( .MILLI., .METRE. ) );
#329 = CARTESIAN_POINT ( 'NONE',  ( -29.63188015908393425, 10.00000000000000000, 21.99999999999999645 ) ) ;
#330 = VECTOR ( 'NONE', #498, 1000.000000000000000 ) ;
#331 = EDGE_CURVE ( 'NONE', #107, #246, #42, .T. ) ;
#332 = CARTESIAN_POINT ( 'NONE',  ( -29.63188015908393425, 14.80832611206852434, 21.99999999999999645 ) ) ;
#333 = ORIENTED_EDGE ( 'NONE', *, *, #180, .F. ) ;
#334 = DIRECTION ( 'NONE',  ( 0.000000000000000000, 0.000000000000000000, -1.000000000000000000 ) ) ;
#335 = ORIENTED_EDGE ( 'NONE', *, *, #709, .F. ) ;
#336 = UNCERTAINTY_MEASURE_WITH_UNIT (LENGTH_MEASURE( 1.000000000000000082E-05 ), #328, 'distance_accuracy_value', 'NONE');
#337 = VECTOR ( 'NONE', #645, 1000.000000000000000 ) ;
#338 = COLOUR_RGB ( '',0.5019607843137254832, 0.5019607843137254832, 0.5019607843137254832 ) ;
#339 = VERTEX_POINT ( 'NONE', #160 ) ;
#340 = AXIS2_PLACEMENT_3D ( 'NONE', #509, #99, #334 ) ;
#341 = ORIENTED_EDGE ( 'NONE', *, *, #408, .F. ) ;
#342 = CARTESIAN_POINT ( 'NONE',  ( -26.63188015908393780, 1.000000000000000000, 0.000000000000000000 ) ) ;
#343 = DIRECTION ( 'NONE',  ( -0.000000000000000000, -0.000000000000000000, -1.000000000000000000 ) ) ;
#344 = EDGE_CURVE ( 'NONE', #677, #555, #541, .T. ) ;
#345 = LINE ( 'NONE', #266, #241 ) ;
#346 = PRODUCT ( '21631_03_088_gripper bracket_2 3K', '21631_03_088_gripper bracket_2 3K', '', ( #635 ) ) ;
#347 = EDGE_LOOP ( 'NONE', ( #85, #341 ) ) ;
#348 = AXIS2_PLACEMENT_3D ( 'NONE', #173, #225, #640 ) ;
#349 = DIRECTION ( 'NONE',  ( 0.000000000000000000, 0.000000000000000000, -1.000000000000000000 ) ) ;
#350 = ADVANCED_FACE ( 'NONE', ( #696 ), #8, .F. ) ;
#351 = CARTESIAN_POINT ( 'NONE',  ( -31.63188015908393425, 10.00000000000000178, 123.2500000000000142 ) ) ;
#352 = ADVANCED_FACE ( 'NONE', ( #83 ), #214, .F. ) ;
#353 = CARTESIAN_POINT ( 'NONE',  ( -31.63188015908392714, 10.00000000000000178, 111.2500000000000142 ) ) ;
#354 = LINE ( 'NONE', #365, #299 ) ;
#355 = LINE ( 'NONE', #526, #582 ) ;
#356 = EDGE_LOOP ( 'NONE', ( #644, #161 ) ) ;
#357 = ORIENTED_EDGE ( 'NONE', *, *, #486, .F. ) ;
#358 = ORIENTED_EDGE ( 'NONE', *, *, #442, .T. ) ;
#359 = CARTESIAN_POINT ( 'NONE',  ( -31.63188015908393425, 0.000000000000000000, 123.2500000000000000 ) ) ;
#360 = CARTESIAN_POINT ( 'NONE',  ( -26.63188015908393780, 1.000000000000000000, 0.000000000000000000 ) ) ;
#361 = ADVANCED_FACE ( 'NONE', ( #27 ), #94, .T. ) ;
#362 =( NAMED_UNIT ( * ) PLANE_ANGLE_UNIT ( ) SI_UNIT ( $, .RADIAN. ) );
#363 = STYLED_ITEM ( 'NONE', ( #145 ), #593 ) ;
#364 = VECTOR ( 'NONE', #114, 1000.000000000000000 ) ;
#365 = CARTESIAN_POINT ( 'NONE',  ( -39.63188015908392714, 0.000000000000000000, 130.0000000000000000 ) ) ;
#366 = DIRECTION ( 'NONE',  ( -0.000000000000000000, -1.000000000000000000, -0.000000000000000000 ) ) ;
#367 = ORIENTED_EDGE ( 'NONE', *, *, #143, .F. ) ;
#368 = FACE_OUTER_BOUND ( 'NONE', #291, .T. ) ;
#369 = ORIENTED_EDGE ( 'NONE', *, *, #673, .T. ) ;
#370 = PLANE ( 'NONE',  #687 ) ;
#371 = EDGE_CURVE ( 'NONE', #435, #488, #443, .T. ) ;
#372 = CARTESIAN_POINT ( 'NONE',  ( -29.63188015908393425, 14.80832611206852434, 26.49999999999984723 ) ) ;
#373 = SURFACE_SIDE_STYLE ('',( #147 ) ) ;
#374 = DIRECTION ( 'NONE',  ( 0.000000000000000000, -1.000000000000000000, 0.000000000000000000 ) ) ;
#375 = STYLED_ITEM ( 'NONE', ( #462 ), #239 ) ;
#376 = ORIENTED_EDGE ( 'NONE', *, *, #699, .T. ) ;
#377 = CARTESIAN_POINT ( 'NONE',  ( -19.63188015908393425, 10.00000000000000000, 0.000000000000000000 ) ) ;
#378 = ORIENTED_EDGE ( 'NONE', *, *, #523, .T. ) ;
#379 = DIRECTION ( 'NONE',  ( 5.337610695313252124E-17, 0.000000000000000000, 1.000000000000000000 ) ) ;
#380 = VERTEX_POINT ( 'NONE', #454 ) ;
#381 = DIRECTION ( 'NONE',  ( -1.000000000000000000, 0.000000000000000000, 0.000000000000000000 ) ) ;
#382 = DIRECTION ( 'NONE',  ( 0.000000000000000000, 0.000000000000000000, 1.000000000000000000 ) ) ;
#383 = PRESENTATION_LAYER_ASSIGNMENT (  '', '', ( #375 ) ) ;
#384 =( LENGTH_UNIT ( ) NAMED_UNIT ( * ) SI_UNIT ( .MILLI., .METRE. ) );
#385 = EDGE_CURVE ( 'NONE', #488, #435, #227, .T. ) ;
#386 = CIRCLE ( 'NONE', #631, 1.700000000000000178 ) ;
#387 = DIRECTION ( 'NONE',  ( -0.000000000000000000, 1.000000000000000000, -0.000000000000000000 ) ) ;
#388 = SURFACE_STYLE_FILL_AREA ( #747 ) ;
#389 = VECTOR ( 'NONE', #285, 1000.000000000000000 ) ;
#390 = VERTEX_POINT ( 'NONE', #278 ) ;
#391 =( NAMED_UNIT ( * ) PLANE_ANGLE_UNIT ( ) SI_UNIT ( $, .RADIAN. ) );
#392 = DIRECTION ( 'NONE',  ( -0.000000000000000000, -1.000000000000000000, -0.000000000000000000 ) ) ;
#393 = MECHANICAL_DESIGN_GEOMETRIC_PRESENTATION_REPRESENTATION (  '', ( #14 ), #95 ) ;
#394 = DIRECTION ( 'NONE',  ( 1.000000000000000000, 0.000000000000000000, -0.000000000000000000 ) ) ;
#395 = FACE_OUTER_BOUND ( 'NONE', #168, .T. ) ;
#396 = EDGE_CURVE ( 'NONE', #97, #488, #608, .T. ) ;
#397 = ORIENTED_EDGE ( 'NONE', *, *, #502, .F. ) ;
#398 = CARTESIAN_POINT ( 'NONE',  ( -19.63188015908393425, 0.000000000000000000, 0.000000000000000000 ) ) ;
#399 = EDGE_LOOP ( 'NONE', ( #729, #573, #397, #728 ) ) ;
#400 = VERTEX_POINT ( 'NONE', #449 ) ;
#401 = ORIENTED_EDGE ( 'NONE', *, *, #91, .F. ) ;
#402 = CARTESIAN_POINT ( 'NONE',  ( -31.63188015908393425, 10.00000000000000178, 124.5000000000000000 ) ) ;
#403 = CARTESIAN_POINT ( 'NONE',  ( -31.63188015908392714, 10.00000000000000178, 112.5000000000000000 ) ) ;
#404 = LINE ( 'NONE', #188, #50 ) ;
#405 = UNCERTAINTY_MEASURE_WITH_UNIT (LENGTH_MEASURE( 1.000000000000000082E-05 ), #178, 'distance_accuracy_value', 'NONE');
#406 = AXIS2_PLACEMENT_3D ( 'NONE', #477, #606, #60 ) ;
#407 = ORIENTED_EDGE ( 'NONE', *, *, #569, .T. ) ;
#408 = EDGE_CURVE ( 'NONE', #513, #530, #157, .T. ) ;
#409 = FACE_OUTER_BOUND ( 'NONE', #702, .T. ) ;
#410 = PRESENTATION_STYLE_ASSIGNMENT (( #657 ) ) ;
#411 = ORIENTED_EDGE ( 'NONE', *, *, #265, .T. ) ;
#412 = ORIENTED_EDGE ( 'NONE', *, *, #111, .T. ) ;
#413 = AXIS2_PLACEMENT_3D ( 'NONE', #238, #117, #237 ) ;
#414 = CARTESIAN_POINT ( 'NONE',  ( -26.63188015908393780, 0.000000000000000000, 45.00000000000000000 ) ) ;
#415 = PRESENTATION_LAYER_ASSIGNMENT (  '', '', ( #14 ) ) ;
#416 = CARTESIAN_POINT ( 'NONE',  ( -32.63188015908393425, 1.000000000000000000, 0.000000000000000000 ) ) ;
#417 = LINE ( 'NONE', #649, #364 ) ;
#418 = SURFACE_STYLE_FILL_AREA ( #190 ) ;
#419 = ORIENTED_EDGE ( 'NONE', *, *, #197, .T. ) ;
#420 = EDGE_CURVE ( 'NONE', #77, #380, #386, .T. ) ;
#421 = PRODUCT_RELATED_PRODUCT_CATEGORY ( 'part', '', ( #346 ) ) ;
#422 = CARTESIAN_POINT ( 'NONE',  ( -29.63188015908393425, 1.000000000000000000, 23.69999999999999574 ) ) ;
#423 = PRESENTATION_LAYER_ASSIGNMENT (  '', '', ( #536 ) ) ;
#424 = VECTOR ( 'NONE', #711, 1000.000000000000000 ) ;
#425 = VERTEX_POINT ( 'NONE', #637 ) ;
#426 = SURFACE_SIDE_STYLE ('',( #695 ) ) ;
#427 = ORIENTED_EDGE ( 'NONE', *, *, #585, .T. ) ;
#428 = DIRECTION ( 'NONE',  ( -1.000000000000000000, -0.000000000000000000, -0.000000000000000000 ) ) ;
#429 = STYLED_ITEM ( 'NONE', ( #410 ), #126 ) ;
#430 = DIRECTION ( 'NONE',  ( 1.000000000000000000, 0.000000000000000000, 0.000000000000000000 ) ) ;
#431 = DIRECTION ( 'NONE',  ( 0.000000000000000000, 0.000000000000000000, -1.000000000000000000 ) ) ;
#432 = LINE ( 'NONE', #678, #451 ) ;
#433 = FACE_BOUND ( 'NONE', #356, .T. ) ;
#434 = DIRECTION ( 'NONE',  ( 0.000000000000000000, 1.000000000000000000, 0.000000000000000000 ) ) ;
#435 = VERTEX_POINT ( 'NONE', #753 ) ;
#436 = SURFACE_STYLE_USAGE ( .BOTH. , #506 ) ;
#437 = ORIENTED_EDGE ( 'NONE', *, *, #761, .T. ) ;
#438 = SURFACE_STYLE_USAGE ( .BOTH. , #426 ) ;
#439 = DIRECTION ( 'NONE',  ( -0.000000000000000000, -1.000000000000000000, -0.000000000000000000 ) ) ;
#440 = AXIS2_PLACEMENT_3D ( 'NONE', #40, #511, #164 ) ;
#441 = CARTESIAN_POINT ( 'NONE',  ( -29.63188015908393425, 1.000000000000000000, 39.99999999999999289 ) ) ;
#442 = EDGE_CURVE ( 'NONE', #576, #400, #758, .T. ) ;
#443 = CIRCLE ( 'NONE', #440, 1.249999999999973355 ) ;
#444 = LINE ( 'NONE', #184, #482 ) ;
#445 = APPLICATION_CONTEXT ( 'automotive_design' ) ;
#446 = EDGE_LOOP ( 'NONE', ( #284, #682 ) ) ;
#447 = ORIENTED_EDGE ( 'NONE', *, *, #88, .F. ) ;
#448 = MECHANICAL_DESIGN_GEOMETRIC_PRESENTATION_REPRESENTATION (  '', ( #46 ), #26 ) ;
#449 = CARTESIAN_POINT ( 'NONE',  ( -26.63188015908393780, 1.000000000000000000, 0.000000000000000000 ) ) ;
#450 = EDGE_LOOP ( 'NONE', ( #559, #66 ) ) ;
#451 = VECTOR ( 'NONE', #615, 1000.000000000000000 ) ;
#452 = AXIS2_PLACEMENT_3D ( 'NONE', #485, #722, #79 ) ;
#453 = VECTOR ( 'NONE', #260, 1000.000000000000000 ) ;
#454 = CARTESIAN_POINT ( 'NONE',  ( -29.63188015908393425, 1.000000000000000000, 20.29999999999999361 ) ) ;
#455 = ORIENTED_EDGE ( 'NONE', *, *, #396, .F. ) ;
#456 = EDGE_LOOP ( 'NONE', ( #150, #212, #544, #572 ) ) ;
#457 = ADVANCED_FACE ( 'NONE', ( #226, #433, #218 ), #106, .F. ) ;
#458 = ORIENTED_EDGE ( 'NONE', *, *, #231, .F. ) ;
#459 = UNCERTAINTY_MEASURE_WITH_UNIT (LENGTH_MEASURE( 1.000000000000000082E-05 ), #29, 'distance_accuracy_value', 'NONE');
#460 = CARTESIAN_POINT ( 'NONE',  ( -32.63188015908393425, 0.000000000000000000, 0.000000000000000000 ) ) ;
#461 = EDGE_CURVE ( 'NONE', #390, #494, #731, .T. ) ;
#462 = PRESENTATION_STYLE_ASSIGNMENT (( #746 ) ) ;
#463 = LINE ( 'NONE', #195, #619 ) ;
#464 = AXIS2_PLACEMENT_3D ( 'NONE', #245, #550, #304 ) ;
#465 = VERTEX_POINT ( 'NONE', #460 ) ;
#466 = ORIENTED_EDGE ( 'NONE', *, *, #224, .F. ) ;
#467 = EDGE_CURVE ( 'NONE', #592, #591, #679, .T. ) ;
#468 = UNCERTAINTY_MEASURE_WITH_UNIT (LENGTH_MEASURE( 1.000000000000000082E-05 ), #605, 'distance_accuracy_value', 'NONE');
#469 = DIRECTION ( 'NONE',  ( -1.334402673828313093E-16, -0.000000000000000000, -1.000000000000000000 ) ) ;
#470 = ADVANCED_FACE ( 'NONE', ( #517 ), #287, .F. ) ;
#471 = VECTOR ( 'NONE', #379, 1000.000000000000000 ) ;
#472 = ORIENTED_EDGE ( 'NONE', *, *, #610, .T. ) ;
#473 = ORIENTED_EDGE ( 'NONE', *, *, #461, .F. ) ;
#474 = ADVANCED_FACE ( 'NONE', ( #570 ), #689, .F. ) ;
#475 = DIRECTION ( 'NONE',  ( 1.000000000000000000, 0.000000000000000000, 0.000000000000000000 ) ) ;
#476 = VERTEX_POINT ( 'NONE', #534 ) ;
#477 = CARTESIAN_POINT ( 'NONE',  ( -29.63188015908393425, 14.80832611206852434, 26.49999999999984723 ) ) ;
#478 = FILL_AREA_STYLE ('',( #721 ) ) ;
#479 = CARTESIAN_POINT ( 'NONE',  ( -19.63188015908393425, 0.000000000000000000, 0.000000000000000000 ) ) ;
#480 = PRESENTATION_LAYER_ASSIGNMENT (  '', '', ( #363 ) ) ;
#481 = DIRECTION ( 'NONE',  ( -0.000000000000000000, -1.000000000000000000, -0.000000000000000000 ) ) ;
#482 = VECTOR ( 'NONE', #67, 1000.000000000000000 ) ;
#483 = CARTESIAN_POINT ( 'NONE',  ( -39.63188015908393425, 0.000000000000000000, 0.000000000000000000 ) ) ;
#484 = ORIENTED_EDGE ( 'NONE', *, *, #420, .T. ) ;
#485 = CARTESIAN_POINT ( 'NONE',  ( -29.63188015908393425, 1.000000000000000000, 26.49999999999984723 ) ) ;
#486 = EDGE_CURVE ( 'NONE', #400, #545, #110, .T. ) ;
#487 = SURFACE_STYLE_USAGE ( .BOTH. , #65 ) ;
#488 = VERTEX_POINT ( 'NONE', #351 ) ;
#489 = CARTESIAN_POINT ( 'NONE',  ( 0.000000000000000000, 0.000000000000000000, 0.000000000000000000 ) ) ;
#490 = AXIS2_PLACEMENT_3D ( 'NONE', #560, #196, #198 ) ;
#491 = ORIENTED_EDGE ( 'NONE', *, *, #566, .T. ) ;
#492 = DIRECTION ( 'NONE',  ( 0.000000000000000000, 0.000000000000000000, 1.000000000000000000 ) ) ;
#493 = CIRCLE ( 'NONE', #654, 1.249999999999987121 ) ;
#494 = VERTEX_POINT ( 'NONE', #47 ) ;
#495 = VECTOR ( 'NONE', #428, 1000.000000000000000 ) ;
#496 = VERTEX_POINT ( 'NONE', #646 ) ;
#497 = VERTEX_POINT ( 'NONE', #759 ) ;
#498 = DIRECTION ( 'NONE',  ( 0.000000000000000000, 0.000000000000000000, 1.000000000000000000 ) ) ;
#499 = AXIS2_PLACEMENT_3D ( 'NONE', #81, #387, #272 ) ;
#500 =( NAMED_UNIT ( * ) PLANE_ANGLE_UNIT ( ) SI_UNIT ( $, .RADIAN. ) );
#501 = CARTESIAN_POINT ( 'NONE',  ( -29.63188015908393425, 10.00000000000000000, 20.29999999999999361 ) ) ;
#502 = EDGE_CURVE ( 'NONE', #698, #621, #417, .T. ) ;
#503 = CARTESIAN_POINT ( 'NONE',  ( -29.63188015908393780, 1.000000000000000000, 45.00000000000000000 ) ) ;
#504 = PRESENTATION_STYLE_ASSIGNMENT (( #438 ) ) ;
#505 = CYLINDRICAL_SURFACE ( 'NONE', #413, 1.249999999999987121 ) ;
#506 = SURFACE_SIDE_STYLE ('',( #388 ) ) ;
#507 = VERTEX_POINT ( 'NONE', #293 ) ;
#508 = SHAPE_DEFINITION_REPRESENTATION ( #183, #239 ) ;
#509 = CARTESIAN_POINT ( 'NONE',  ( -29.63188015908393425, 1.000000000000000000, 26.49999999999984723 ) ) ;
#510 = AXIS2_PLACEMENT_3D ( 'NONE', #55, #120, #5 ) ;
#511 = DIRECTION ( 'NONE',  ( -0.000000000000000000, 1.000000000000000000, -0.000000000000000000 ) ) ;
#512 = LINE ( 'NONE', #479, #211 ) ;
#513 = VERTEX_POINT ( 'NONE', #353 ) ;
#514 = ORIENTED_EDGE ( 'NONE', *, *, #231, .T. ) ;
#515 = ADVANCED_FACE ( 'NONE', ( #409 ), #537, .F. ) ;
#516 = PRODUCT_DEFINITION ( 'UNKNOWN', '', #525, #750 ) ;
#517 = FACE_OUTER_BOUND ( 'NONE', #148, .T. ) ;
#518 =( GEOMETRIC_REPRESENTATION_CONTEXT ( 3 ) GLOBAL_UNCERTAINTY_ASSIGNED_CONTEXT ( ( #468 ) ) GLOBAL_UNIT_ASSIGNED_CONTEXT ( ( #605, #243, #658 ) ) REPRESENTATION_CONTEXT ( 'NONE', 'WORKASPACE' ) );
#519 = COLOUR_RGB ( '',0.5019607843137254832, 0.5019607843137254832, 0.5019607843137254832 ) ;
#520 = FACE_OUTER_BOUND ( 'NONE', #622, .T. ) ;
#521 = ORIENTED_EDGE ( 'NONE', *, *, #543, .T. ) ;
#522 = DIRECTION ( 'NONE',  ( -0.000000000000000000, -1.000000000000000000, -0.000000000000000000 ) ) ;
#523 = EDGE_CURVE ( 'NONE', #530, #513, #493, .T. ) ;
#524 = DIRECTION ( 'NONE',  ( -5.337610695313252124E-17, 0.000000000000000000, -1.000000000000000000 ) ) ;
#525 = PRODUCT_DEFINITION_FORMATION_WITH_SPECIFIED_SOURCE ( 'ANY', '', #346, .NOT_KNOWN. ) ;
#526 = CARTESIAN_POINT ( 'NONE',  ( -39.63188015908393425, 0.000000000000000000, 0.000000000000000000 ) ) ;
#527 = CARTESIAN_POINT ( 'NONE',  ( -39.63188015908393425, 10.00000000000000000, 0.000000000000000000 ) ) ;
#528 = FACE_OUTER_BOUND ( 'NONE', #600, .T. ) ;
#529 = AXIS2_PLACEMENT_3D ( 'NONE', #203, #144, #256 ) ;
#530 = VERTEX_POINT ( 'NONE', #4 ) ;
#531 = CARTESIAN_POINT ( 'NONE',  ( -29.63188015908393425, 14.80832611206852434, 39.99999999999999289 ) ) ;
#532 = ORIENTED_EDGE ( 'NONE', *, *, #286, .F. ) ;
#533 = CARTESIAN_POINT ( 'NONE',  ( -29.63188015908393425, 14.80832611206852434, 27.49999999999984368 ) ) ;
#534 = CARTESIAN_POINT ( 'NONE',  ( -29.63188015908393425, 10.00000000000000000, 41.69999999999999574 ) ) ;
#535 = PLANE ( 'NONE',  #510 ) ;
#536 = STYLED_ITEM ( 'NONE', ( #763 ), #268 ) ;
#537 = PLANE ( 'NONE',  #240 ) ;
#538 = DIRECTION ( 'NONE',  ( -1.000000000000000000, 0.000000000000000000, -0.000000000000000000 ) ) ;
#539 = VECTOR ( 'NONE', #656, 1000.000000000000000 ) ;
#540 = CARTESIAN_POINT ( 'NONE',  ( -19.63188015908393425, 10.00000000000000000, 0.000000000000000000 ) ) ;
#541 = CIRCLE ( 'NONE', #549, 1.700000000000000178 ) ;
#542 = DIRECTION ( 'NONE',  ( 0.000000000000000000, 0.000000000000000000, -1.000000000000000000 ) ) ;
#543 = EDGE_CURVE ( 'NONE', #476, #246, #252, .T. ) ;
#544 = ORIENTED_EDGE ( 'NONE', *, *, #502, .T. ) ;
#545 = VERTEX_POINT ( 'NONE', #2 ) ;
#546 = CARTESIAN_POINT ( 'NONE',  ( -31.63188015908393425, 10.00000000000000000, 125.7500000000000000 ) ) ;
#547 = DIRECTION ( 'NONE',  ( 0.000000000000000000, 0.000000000000000000, 1.000000000000000000 ) ) ;
#548 = CARTESIAN_POINT ( 'NONE',  ( -29.63188015908393425, 1.000000000000000000, 27.49999999999984368 ) ) ;
#549 = AXIS2_PLACEMENT_3D ( 'NONE', #153, #632, #209 ) ;
#550 = DIRECTION ( 'NONE',  ( -0.000000000000000000, 1.000000000000000000, -0.000000000000000000 ) ) ;
#551 = COLOUR_RGB ( '',0.5019607843137254832, 0.5019607843137254832, 0.5019607843137254832 ) ;
#552 = DIRECTION ( 'NONE',  ( -0.000000000000000000, -0.000000000000000000, -1.000000000000000000 ) ) ;
#553 = VECTOR ( 'NONE', #327, 1000.000000000000000 ) ;
#554 = EDGE_LOOP ( 'NONE', ( #255, #744, #9, #30 ) ) ;
#555 = VERTEX_POINT ( 'NONE', #725 ) ;
#556 = DIRECTION ( 'NONE',  ( 0.000000000000000000, -0.000000000000000000, 1.000000000000000000 ) ) ;
#557 = VERTEX_POINT ( 'NONE', #483 ) ;
#558 = PRESENTATION_LAYER_ASSIGNMENT (  '', '', ( #429 ) ) ;
#559 = ORIENTED_EDGE ( 'NONE', *, *, #761, .F. ) ;
#560 = CARTESIAN_POINT ( 'NONE',  ( -29.63188015908393425, 10.00000000000000000, 26.49999999999984723 ) ) ;
#561 =( NAMED_UNIT ( * ) PLANE_ANGLE_UNIT ( ) SI_UNIT ( $, .RADIAN. ) );
#562 = DIRECTION ( 'NONE',  ( 0.000000000000000000, 0.000000000000000000, -1.000000000000000000 ) ) ;
#563 =( NAMED_UNIT ( * ) SI_UNIT ( $, .STERADIAN. ) SOLID_ANGLE_UNIT ( ) );
#564 = CIRCLE ( 'NONE', #273, 3.000000000000002665 ) ;
#565 = FACE_OUTER_BOUND ( 'NONE', #751, .T. ) ;
#566 = EDGE_CURVE ( 'NONE', #229, #735, #404, .T. ) ;
#567 = ORIENTED_EDGE ( 'NONE', *, *, #709, .T. ) ;
#568 = APPLICATION_PROTOCOL_DEFINITION ( 'draft international standard', 'automotive_design', 1998, #92 ) ;
#569 = EDGE_CURVE ( 'NONE', #591, #53, #354, .T. ) ;
#570 = FACE_OUTER_BOUND ( 'NONE', #554, .T. ) ;
#571 =( LENGTH_UNIT ( ) NAMED_UNIT ( * ) SI_UNIT ( .MILLI., .METRE. ) );
#572 = ORIENTED_EDGE ( 'NONE', *, *, #174, .T. ) ;
#573 = ORIENTED_EDGE ( 'NONE', *, *, #306, .F. ) ;
#574 = DIRECTION ( 'NONE',  ( -1.000000000000000000, 0.000000000000000000, 0.000000000000000000 ) ) ;
#575 = ORIENTED_EDGE ( 'NONE', *, *, #739, .T. ) ;
#576 = VERTEX_POINT ( 'NONE', #59 ) ;
#577 = DIRECTION ( 'NONE',  ( -0.000000000000000000, 1.000000000000000000, -0.000000000000000000 ) ) ;
#578 = DIRECTION ( 'NONE',  ( 0.000000000000000000, 0.000000000000000000, 1.000000000000000000 ) ) ;
#579 = ADVANCED_FACE ( 'NONE', ( #41 ), #179, .F. ) ;
#580 = DIRECTION ( 'NONE',  ( 0.000000000000000000, -1.000000000000000000, 0.000000000000000000 ) ) ;
#581 = LINE ( 'NONE', #130, #453 ) ;
#582 = VECTOR ( 'NONE', #586, 1000.000000000000000 ) ;
#583 = ORIENTED_EDGE ( 'NONE', *, *, #723, .F. ) ;
#584 = DIRECTION ( 'NONE',  ( 0.000000000000000000, 0.000000000000000000, -1.000000000000000000 ) ) ;
#585 = EDGE_CURVE ( 'NONE', #339, #435, #634, .T. ) ;
#586 = DIRECTION ( 'NONE',  ( -1.000000000000000000, -0.000000000000000000, -0.000000000000000000 ) ) ;
#587 = AXIS2_PLACEMENT_3D ( 'NONE', #329, #740, #215 ) ;
#588 = ADVANCED_FACE ( 'NONE', ( #96 ), #313, .T. ) ;
#589 = DIRECTION ( 'NONE',  ( 1.000000000000000000, 0.000000000000000000, -5.337610695313252124E-17 ) ) ;
#590 = FACE_BOUND ( 'NONE', #347, .T. ) ;
#591 = VERTEX_POINT ( 'NONE', #70 ) ;
#592 = VERTEX_POINT ( 'NONE', #127 ) ;
#593 = ADVANCED_FACE ( 'NONE', ( #232 ), #74, .F. ) ;
#594 = AXIS2_PLACEMENT_3D ( 'NONE', #710, #247, #542 ) ;
#595 = CARTESIAN_POINT ( 'NONE',  ( -29.63188015908393425, 1.000000000000000000, 38.29999999999999716 ) ) ;
#596 = ADVANCED_FACE ( 'NONE', ( #528 ), #49, .F. ) ;
#597 = LINE ( 'NONE', #80, #118 ) ;
#598 = CIRCLE ( 'NONE', #69, 1.700000000000000178 ) ;
#599 = LINE ( 'NONE', #668, #330 ) ;
#600 = EDGE_LOOP ( 'NONE', ( #466, #708, #206, #630 ) ) ;
#601 = DIRECTION ( 'NONE',  ( -0.000000000000000000, 1.000000000000000000, -0.000000000000000000 ) ) ;
#602 = ORIENTED_EDGE ( 'NONE', *, *, #486, .T. ) ;
#603 = DIRECTION ( 'NONE',  ( 0.000000000000000000, 0.000000000000000000, -1.000000000000000000 ) ) ;
#604 = AXIS2_PLACEMENT_3D ( 'NONE', #527, #589, #524 ) ;
#605 =( LENGTH_UNIT ( ) NAMED_UNIT ( * ) SI_UNIT ( .MILLI., .METRE. ) );
#606 = DIRECTION ( 'NONE',  ( -0.000000000000000000, -1.000000000000000000, -0.000000000000000000 ) ) ;
#607 = CIRCLE ( 'NONE', #254, 0.9999999999999974465 ) ;
#608 = LINE ( 'NONE', #754, #61 ) ;
#609 = FILL_AREA_STYLE_COLOUR ( '', #338 ) ;
#610 = EDGE_CURVE ( 'NONE', #246, #107, #598, .T. ) ;
#611 = ORIENTED_EDGE ( 'NONE', *, *, #467, .T. ) ;
#612 = CARTESIAN_POINT ( 'NONE',  ( -29.63188015908393425, 1.000000000000000000, 41.69999999999999574 ) ) ;
#613 = ORIENTED_EDGE ( 'NONE', *, *, #265, .F. ) ;
#614 = CARTESIAN_POINT ( 'NONE',  ( -29.63188015908393425, 10.00000000000000000, 26.49999999999984723 ) ) ;
#615 = DIRECTION ( 'NONE',  ( -0.000000000000000000, -1.000000000000000000, -0.000000000000000000 ) ) ;
#616 = ORIENTED_EDGE ( 'NONE', *, *, #174, .F. ) ;
#617 = DIRECTION ( 'NONE',  ( -0.000000000000000000, 1.000000000000000000, -0.000000000000000000 ) ) ;
#618 = FACE_BOUND ( 'NONE', #21, .T. ) ;
#619 = VECTOR ( 'NONE', #552, 1000.000000000000000 ) ;
#620 = CARTESIAN_POINT ( 'NONE',  ( -29.63188015908393425, 1.000000000000000000, 39.99999999999999289 ) ) ;
#621 = VERTEX_POINT ( 'NONE', #142 ) ;
#622 = EDGE_LOOP ( 'NONE', ( #170, #616, #737, #766 ) ) ;
#623 = CARTESIAN_POINT ( 'NONE',  ( -29.63188015908393425, 14.80832611206852434, 21.99999999999999645 ) ) ;
#624 = EDGE_CURVE ( 'NONE', #380, #77, #712, .T. ) ;
#625 = DIRECTION ( 'NONE',  ( 0.000000000000000000, 0.000000000000000000, 1.000000000000000000 ) ) ;
#626 = AXIS2_PLACEMENT_3D ( 'NONE', #489, #629, #271 ) ;
#627 = FILL_AREA_STYLE ('',( #279 ) ) ;
#628 = LINE ( 'NONE', #653, #134 ) ;
#629 = DIRECTION ( 'NONE',  ( 0.000000000000000000, 0.000000000000000000, 1.000000000000000000 ) ) ;
#630 = ORIENTED_EDGE ( 'NONE', *, *, #585, .F. ) ;
#631 = AXIS2_PLACEMENT_3D ( 'NONE', #103, #580, #584 ) ;
#632 = DIRECTION ( 'NONE',  ( -0.000000000000000000, -1.000000000000000000, -0.000000000000000000 ) ) ;
#633 = MECHANICAL_DESIGN_GEOMETRIC_PRESENTATION_REPRESENTATION (  '', ( #429 ), #18 ) ;
#634 = LINE ( 'NONE', #546, #34 ) ;
#635 = PRODUCT_CONTEXT ( 'NONE', #445, 'mechanical' ) ;
#636 = LINE ( 'NONE', #321, #495 ) ;
#637 = CARTESIAN_POINT ( 'NONE',  ( -32.63188015908393425, 0.000000000000000000, 45.00000000000000000 ) ) ;
#638 = ORIENTED_EDGE ( 'NONE', *, *, #129, .T. ) ;
#639 = ORIENTED_EDGE ( 'NONE', *, *, #213, .T. ) ;
#640 = DIRECTION ( 'NONE',  ( 0.000000000000000000, -0.000000000000000000, 1.000000000000000000 ) ) ;
#641 = AXIS2_PLACEMENT_3D ( 'NONE', #315, #15, #320 ) ;
#642 = CARTESIAN_POINT ( 'NONE',  ( -39.63188015908392714, 10.00000000000000000, 130.0000000000000000 ) ) ;
#643 = LINE ( 'NONE', #307, #175 ) ;
#644 = ORIENTED_EDGE ( 'NONE', *, *, #180, .T. ) ;
#645 = DIRECTION ( 'NONE',  ( -0.000000000000000000, -1.000000000000000000, 0.000000000000000000 ) ) ;
#646 = CARTESIAN_POINT ( 'NONE',  ( -29.63188015908393425, 10.00000000000000000, 38.29999999999999716 ) ) ;
#647 = DIRECTION ( 'NONE',  ( -0.000000000000000000, -1.000000000000000000, -0.000000000000000000 ) ) ;
#648 = VECTOR ( 'NONE', #324, 1000.000000000000000 ) ;
#649 = CARTESIAN_POINT ( 'NONE',  ( -32.63188015908393425, 1.000000000000000000, 0.000000000000000000 ) ) ;
#650 = CIRCLE ( 'NONE', #452, 0.9999999999999974465 ) ;
#651 = ORIENTED_EDGE ( 'NONE', *, *, #223, .T. ) ;
#652 = ORIENTED_EDGE ( 'NONE', *, *, #719, .F. ) ;
#653 = CARTESIAN_POINT ( 'NONE',  ( -26.63188015908393780, 1.000000000000000000, 45.00000000000000000 ) ) ;
#654 = AXIS2_PLACEMENT_3D ( 'NONE', #13, #194, #547 ) ;
#655 = ADVANCED_FACE ( 'NONE', ( #7, #618, #309, #298 ), #736, .F. ) ;
#656 = DIRECTION ( 'NONE',  ( -0.000000000000000000, -1.000000000000000000, -0.000000000000000000 ) ) ;
#657 = SURFACE_STYLE_USAGE ( .BOTH. , #57 ) ;
#658 =( NAMED_UNIT ( * ) SI_UNIT ( $, .STERADIAN. ) SOLID_ANGLE_UNIT ( ) );
#659 = DIRECTION ( 'NONE',  ( -0.000000000000000000, -1.000000000000000000, 0.000000000000000000 ) ) ;
#660 = EDGE_CURVE ( 'NONE', #496, #476, #93, .T. ) ;
#661 = ADVANCED_FACE ( 'NONE', ( #395 ), #155, .F. ) ;
#662 = COLOUR_RGB ( '',0.5019607843137254832, 0.5019607843137254832, 0.5019607843137254832 ) ;
#663 = CYLINDRICAL_SURFACE ( 'NONE', #406, 0.9999999999999974465 ) ;
#664 = FILL_AREA_STYLE ('',( #317 ) ) ;
#665 = ORIENTED_EDGE ( 'NONE', *, *, #187, .F. ) ;
#666 = CARTESIAN_POINT ( 'NONE',  ( -29.63188015908393780, 0.000000000000000000, 45.00000000000000000 ) ) ;
#667 = DIRECTION ( 'NONE',  ( 0.000000000000000000, 0.000000000000000000, -1.000000000000000000 ) ) ;
#668 = CARTESIAN_POINT ( 'NONE',  ( -32.63188015908393425, 0.000000000000000000, 0.000000000000000000 ) ) ;
#669 = PRESENTATION_LAYER_ASSIGNMENT (  '', '', ( #46 ) ) ;
#670 = SURFACE_STYLE_USAGE ( .BOTH. , #373 ) ;
#671 = LINE ( 'NONE', #259, #131 ) ;
#672 = CARTESIAN_POINT ( 'NONE',  ( -29.63188015908393425, 10.00000000000000000, 27.49999999999984368 ) ) ;
#673 = EDGE_CURVE ( 'NONE', #677, #380, #432, .T. ) ;
#674 = ORIENTED_EDGE ( 'NONE', *, *, #135, .F. ) ;
#675 = VECTOR ( 'NONE', #366, 1000.000000000000000 ) ;
#676 = ORIENTED_EDGE ( 'NONE', *, *, #385, .F. ) ;
#677 = VERTEX_POINT ( 'NONE', #501 ) ;
#678 = CARTESIAN_POINT ( 'NONE',  ( -29.63188015908393425, 14.80832611206852434, 20.29999999999999361 ) ) ;
#679 = LINE ( 'NONE', #642, #724 ) ;
#680 = VECTOR ( 'NONE', #250, 1000.000000000000000 ) ;
#681 = DIRECTION ( 'NONE',  ( 0.000000000000000000, 0.000000000000000000, -1.000000000000000000 ) ) ;
#682 = ORIENTED_EDGE ( 'NONE', *, *, #162, .T. ) ;
#683 = FACE_OUTER_BOUND ( 'NONE', #692, .T. ) ;
#684 = AXIS2_PLACEMENT_3D ( 'NONE', #326, #617, #205 ) ;
#685 = EDGE_LOOP ( 'NONE', ( #136, #567, #484, #760 ) ) ;
#686 = DIRECTION ( 'NONE',  ( 0.000000000000000000, 0.000000000000000000, -1.000000000000000000 ) ) ;
#687 = AXIS2_PLACEMENT_3D ( 'NONE', #715, #128, #538 ) ;
#688 = DIRECTION ( 'NONE',  ( 0.000000000000000000, 0.000000000000000000, 1.000000000000000000 ) ) ;
#689 = CYLINDRICAL_SURFACE ( 'NONE', #1, 1.700000000000000178 ) ;
#690 = CIRCLE ( 'NONE', #283, 1.250000000000001110 ) ;
#691 = ORIENTED_EDGE ( 'NONE', *, *, #135, .T. ) ;
#692 = EDGE_LOOP ( 'NONE', ( #407, #583, #733, #611 ) ) ;
#693 =( NAMED_UNIT ( * ) SI_UNIT ( $, .STERADIAN. ) SOLID_ANGLE_UNIT ( ) );
#694 = AXIS2_PLACEMENT_3D ( 'NONE', #441, #89, #686 ) ;
#695 = SURFACE_STYLE_FILL_AREA ( #664 ) ;
#696 = FACE_OUTER_BOUND ( 'NONE', #685, .T. ) ;
#697 = ORIENTED_EDGE ( 'NONE', *, *, #344, .F. ) ;
#698 = VERTEX_POINT ( 'NONE', #319 ) ;
#699 = EDGE_CURVE ( 'NONE', #400, #698, #597, .T. ) ;
#700 = DIRECTION ( 'NONE',  ( -0.000000000000000000, 1.000000000000000000, -0.000000000000000000 ) ) ;
#701 = DIRECTION ( 'NONE',  ( -0.000000000000000000, -1.000000000000000000, -0.000000000000000000 ) ) ;
#702 = EDGE_LOOP ( 'NONE', ( #412, #745, #275, #36 ) ) ;
#703 = MECHANICAL_DESIGN_GEOMETRIC_PRESENTATION_REPRESENTATION (  '', ( #536 ), #123 ) ;
#704 = CARTESIAN_POINT ( 'NONE',  ( -31.63188015908392714, 0.000000000000000000, 112.5000000000000000 ) ) ;
#705 = CARTESIAN_POINT ( 'NONE',  ( -29.63188015908393425, 14.80832611206852434, 38.29999999999999716 ) ) ;
#706 = ORIENTED_EDGE ( 'NONE', *, *, #569, .F. ) ;
#707 = EDGE_LOOP ( 'NONE', ( #201, #521, #472, #447 ) ) ;
#708 = ORIENTED_EDGE ( 'NONE', *, *, #396, .T. ) ;
#709 = EDGE_CURVE ( 'NONE', #555, #77, #671, .T. ) ;
#710 = CARTESIAN_POINT ( 'NONE',  ( -29.63188015908393425, 14.80832611206852434, 39.99999999999999289 ) ) ;
#711 = DIRECTION ( 'NONE',  ( 5.337610695313252124E-17, 0.000000000000000000, 1.000000000000000000 ) ) ;
#712 = CIRCLE ( 'NONE', #139, 1.700000000000000178 ) ;
#713 = DIRECTION ( 'NONE',  ( -1.334402673828313093E-16, -0.000000000000000000, -1.000000000000000000 ) ) ;
#714 = CYLINDRICAL_SURFACE ( 'NONE', #499, 1.250000000000001110 ) ;
#715 = CARTESIAN_POINT ( 'NONE',  ( -39.63188015908392714, 10.00000000000000000, 130.0000000000000000 ) ) ;
#716 = EDGE_LOOP ( 'NONE', ( #401, #63, #52, #437 ) ) ;
#717 = FACE_BOUND ( 'NONE', #244, .T. ) ;
#718 = ORIENTED_EDGE ( 'NONE', *, *, #371, .F. ) ;
#719 = EDGE_CURVE ( 'NONE', #325, #557, #199, .T. ) ;
#720 = AXIS2_PLACEMENT_3D ( 'NONE', #402, #700, #578 ) ;
#721 = FILL_AREA_STYLE_COLOUR ( '', #19 ) ;
#722 = DIRECTION ( 'NONE',  ( 0.000000000000000000, -1.000000000000000000, 0.000000000000000000 ) ) ;
#723 = EDGE_CURVE ( 'NONE', #229, #53, #757, .T. ) ;
#724 = VECTOR ( 'NONE', #522, 1000.000000000000000 ) ;
#725 = CARTESIAN_POINT ( 'NONE',  ( -29.63188015908393425, 10.00000000000000000, 23.69999999999999574 ) ) ;
#726 = ORIENTED_EDGE ( 'NONE', *, *, #344, .T. ) ;
#727 =( NAMED_UNIT ( * ) SI_UNIT ( $, .STERADIAN. ) SOLID_ANGLE_UNIT ( ) );
#728 = ORIENTED_EDGE ( 'NONE', *, *, #699, .F. ) ;
#729 = ORIENTED_EDGE ( 'NONE', *, *, #442, .F. ) ;
#730 = CARTESIAN_POINT ( 'NONE',  ( -39.63188015908393425, 10.00000000000000000, 0.000000000000000000 ) ) ;
#731 = CIRCLE ( 'NONE', #210, 1.250000000000001110 ) ;
#732 =( LENGTH_UNIT ( ) NAMED_UNIT ( * ) SI_UNIT ( .MILLI., .METRE. ) );
#733 = ORIENTED_EDGE ( 'NONE', *, *, #213, .F. ) ;
#734 = AXIS2_PLACEMENT_3D ( 'NONE', #332, #392, #31 ) ;
#735 = VERTEX_POINT ( 'NONE', #377 ) ;
#736 = PLANE ( 'NONE',  #177 ) ;
#737 = ORIENTED_EDGE ( 'NONE', *, *, #306, .T. ) ;
#738 =( NAMED_UNIT ( * ) SI_UNIT ( $, .STERADIAN. ) SOLID_ANGLE_UNIT ( ) );
#739 = EDGE_CURVE ( 'NONE', #507, #193, #607, .T. ) ;
#740 = DIRECTION ( 'NONE',  ( -0.000000000000000000, -1.000000000000000000, -0.000000000000000000 ) ) ;
#741 = SURFACE_SIDE_STYLE ('',( #217 ) ) ;
#742 = FACE_BOUND ( 'NONE', #219, .T. ) ;
#743 = AXIS2_PLACEMENT_3D ( 'NONE', #416, #185, #603 ) ;
#744 = ORIENTED_EDGE ( 'NONE', *, *, #660, .F. ) ;
#745 = ORIENTED_EDGE ( 'NONE', *, *, #297, .F. ) ;
#746 = SURFACE_STYLE_USAGE ( .BOTH. , #741 ) ;
#747 = FILL_AREA_STYLE ('',( #90 ) ) ;
#748 = EDGE_LOOP ( 'NONE', ( #45, #613, #22, #706, #532, #234, #419, #312 ) ) ;
#749 = AXIS2_PLACEMENT_3D ( 'NONE', #666, #308, #189 ) ;
#750 = PRODUCT_DEFINITION_CONTEXT ( 'detailed design', #92, 'design' ) ;
#751 = EDGE_LOOP ( 'NONE', ( #138, #333, #124, #378 ) ) ;
#752 = ORIENTED_EDGE ( 'NONE', *, *, #331, .F. ) ;
#753 = CARTESIAN_POINT ( 'NONE',  ( -31.63188015908393425, 10.00000000000000178, 125.7499999999999716 ) ) ;
#754 = CARTESIAN_POINT ( 'NONE',  ( -31.63188015908393425, 10.00000000000000000, 123.2500000000000142 ) ) ;
#755 = MECHANICAL_DESIGN_GEOMETRIC_PRESENTATION_REPRESENTATION (  '', ( #363 ), #518 ) ;
#756 = CARTESIAN_POINT ( 'NONE',  ( -29.63188015908393780, 1.000000000000000000, 45.00000000000000000 ) ) ;
#757 = LINE ( 'NONE', #151, #648 ) ;
#758 = LINE ( 'NONE', #342, #166 ) ;
#759 = CARTESIAN_POINT ( 'NONE',  ( -29.63188015908393425, 1.000000000000000000, 25.49999999999985079 ) ) ;
#760 = ORIENTED_EDGE ( 'NONE', *, *, #673, .F. ) ;
#761 = EDGE_CURVE ( 'NONE', #497, #220, #263, .T. ) ;
#762 =( NAMED_UNIT ( * ) SI_UNIT ( $, .STERADIAN. ) SOLID_ANGLE_UNIT ( ) );
#763 = PRESENTATION_STYLE_ASSIGNMENT (( #670 ) ) ;
#764 = ORIENTED_EDGE ( 'NONE', *, *, #610, .F. ) ;
#765 = DIRECTION ( 'NONE',  ( 1.334402673828313093E-16, 0.000000000000000000, 1.000000000000000000 ) ) ;
#766 = ORIENTED_EDGE ( 'NONE', *, *, #143, .T. ) ;
ENDSEC;
END-ISO-10303-21;
