ISO-10303-21;
HEADER;
FILE_DESCRIPTION (( 'STEP AP214' ),
    '1' );
FILE_NAME ('202500614-10211P01.STEP',
    '2026-02-11T08:00:38',
    ( '' ),
    ( '' ),
    'SwSTEP 2.0',
    'SolidWorks 2021',
    '' );
FILE_SCHEMA (( 'AUTOMOTIVE_DESIGN' ));
ENDSEC;

DATA;
#1 = CARTESIAN_POINT ( 'NONE',  ( 0.000000000000000000, 0.000000000000000000, 80.00000000000000000 ) ) ;
#2 = CARTESIAN_POINT ( 'NONE',  ( 0.000000000000000000, 0.000000000000000000, 0.000000000000000000 ) ) ;
#3 = PRODUCT ( '202500614-10211P01', '202500614-10211P01', '', ( #133 ) ) ;
#4 = CARTESIAN_POINT ( 'NONE',  ( 0.000000000000000000, 0.000000000000000000, 0.000000000000000000 ) ) ;
#5 = ORIENTED_EDGE ( 'NONE', *, *, #7, .F. ) ;
#6 = ORIENTED_EDGE ( 'NONE', *, *, #234, .T. ) ;
#7 = EDGE_CURVE ( 'NONE', #118, #221, #120, .T. ) ;
#8 = PRODUCT_DEFINITION_FORMATION_WITH_SPECIFIED_SOURCE ( 'ANY', '', #3, .NOT_KNOWN. ) ;
#9 =( NAMED_UNIT ( * ) PLANE_ANGLE_UNIT ( ) SI_UNIT ( $, .RADIAN. ) );
#10 = ORIENTED_EDGE ( 'NONE', *, *, #185, .F. ) ;
#11 = ORIENTED_EDGE ( 'NONE', *, *, #185, .T. ) ;
#12 = EDGE_CURVE ( 'NONE', #194, #260, #161, .T. ) ;
#13 = DIRECTION ( 'NONE',  ( 0.000000000000000000, 0.000000000000000000, -1.000000000000000000 ) ) ;
#14 = PLANE ( 'NONE',  #95 ) ;
#15 = FILL_AREA_STYLE ('',( #268 ) ) ;
#16 = EDGE_CURVE ( 'NONE', #118, #196, #188, .T. ) ;
#17 = CYLINDRICAL_SURFACE ( 'NONE', #243, 4.000000000000000000 ) ;
#18 = MECHANICAL_DESIGN_GEOMETRIC_PRESENTATION_REPRESENTATION (  '', ( #135 ), #129 ) ;
#19 = DIRECTION ( 'NONE',  ( 0.000000000000000000, 0.000000000000000000, 1.000000000000000000 ) ) ;
#20 = FACE_OUTER_BOUND ( 'NONE', #53, .T. ) ;
#21 = CARTESIAN_POINT ( 'NONE',  ( -4.000000000000000000, 0.000000000000000000, 80.00000000000000000 ) ) ;
#22 = VECTOR ( 'NONE', #253, 1000.000000000000000 ) ;
#23 = DIRECTION ( 'NONE',  ( -1.000000000000000000, 0.000000000000000000, 0.000000000000000000 ) ) ;
#24 = CARTESIAN_POINT ( 'NONE',  ( 4.000000000000000000, 4.898587196589412829E-16, 79.00000000000000000 ) ) ;
#25 = DIRECTION ( 'NONE',  ( 0.000000000000000000, 0.000000000000000000, -1.000000000000000000 ) ) ;
#26 = STYLED_ITEM ( 'NONE', ( #235 ), #262 ) ;
#27 = ORIENTED_EDGE ( 'NONE', *, *, #16, .F. ) ;
#28 = ORIENTED_EDGE ( 'NONE', *, *, #207, .T. ) ;
#29 = DIRECTION ( 'NONE',  ( -0.000000000000000000, -0.000000000000000000, -1.000000000000000000 ) ) ;
#30 = MECHANICAL_DESIGN_GEOMETRIC_PRESENTATION_REPRESENTATION (  '', ( #26 ), #255 ) ;
#31 = ORIENTED_EDGE ( 'NONE', *, *, #72, .T. ) ;
#32 = ORIENTED_EDGE ( 'NONE', *, *, #211, .F. ) ;
#33 = ORIENTED_EDGE ( 'NONE', *, *, #226, .T. ) ;
#34 = SURFACE_SIDE_STYLE ('',( #251 ) ) ;
#35 =( NAMED_UNIT ( * ) PLANE_ANGLE_UNIT ( ) SI_UNIT ( $, .RADIAN. ) );
#36 = ADVANCED_FACE ( 'NONE', ( #136 ), #89, .T. ) ;
#37 = CARTESIAN_POINT ( 'NONE',  ( -3.000000000000009770, 0.000000000000000000, 80.00000000000000000 ) ) ;
#38 = SHAPE_DEFINITION_REPRESENTATION ( #150, #168 ) ;
#39 = FILL_AREA_STYLE_COLOUR ( '', #227 ) ;
#40 = PRODUCT_RELATED_PRODUCT_CATEGORY ( 'part', '', ( #3 ) ) ;
#41 = UNCERTAINTY_MEASURE_WITH_UNIT (LENGTH_MEASURE( 1.000000000000000082E-05 ), #217, 'distance_accuracy_value', 'NONE');
#42 = CARTESIAN_POINT ( 'NONE',  ( 0.000000000000000000, 0.000000000000000000, 1.000000000000000888 ) ) ;
#43 = CIRCLE ( 'NONE', #80, 4.000000000000000000 ) ;
#44 = ADVANCED_FACE ( 'NONE', ( #225 ), #265, .T. ) ;
#45 = UNCERTAINTY_MEASURE_WITH_UNIT (LENGTH_MEASURE( 1.000000000000000082E-05 ), #203, 'distance_accuracy_value', 'NONE');
#46 = MECHANICAL_DESIGN_GEOMETRIC_PRESENTATION_REPRESENTATION (  '', ( #270 ), #147 ) ;
#47 = STYLED_ITEM ( 'NONE', ( #202 ), #158 ) ;
#48 =( LENGTH_UNIT ( ) NAMED_UNIT ( * ) SI_UNIT ( .MILLI., .METRE. ) );
#49 = ORIENTED_EDGE ( 'NONE', *, *, #144, .T. ) ;
#50 = APPLICATION_PROTOCOL_DEFINITION ( 'draft international standard', 'automotive_design', 1998, #180 ) ;
#51 = ORIENTED_EDGE ( 'NONE', *, *, #12, .F. ) ;
#52 =( NAMED_UNIT ( * ) SI_UNIT ( $, .STERADIAN. ) SOLID_ANGLE_UNIT ( ) );
#53 = EDGE_LOOP ( 'NONE', ( #94, #31, #11, #119 ) ) ;
#54 = AXIS2_PLACEMENT_3D ( 'NONE', #1, #213, #23 ) ;
#55 = VERTEX_POINT ( 'NONE', #206 ) ;
#56 =( NAMED_UNIT ( * ) SI_UNIT ( $, .STERADIAN. ) SOLID_ANGLE_UNIT ( ) );
#57 = SURFACE_SIDE_STYLE ('',( #193 ) ) ;
#58 = AXIS2_PLACEMENT_3D ( 'NONE', #65, #232, #233 ) ;
#59 = DIRECTION ( 'NONE',  ( 1.000000000000000000, 0.000000000000000000, -0.000000000000000000 ) ) ;
#60 = FACE_OUTER_BOUND ( 'NONE', #190, .T. ) ;
#61 = DIRECTION ( 'NONE',  ( -1.000000000000000000, 0.000000000000000000, 0.000000000000000000 ) ) ;
#62 = AXIS2_PLACEMENT_3D ( 'NONE', #128, #25, #108 ) ;
#63 = LINE ( 'NONE', #167, #104 ) ;
#64 = CARTESIAN_POINT ( 'NONE',  ( -2.999999999999995559, 4.286263797015733637E-16, 0.000000000000000000 ) ) ;
#65 = CARTESIAN_POINT ( 'NONE',  ( 0.000000000000000000, 0.000000000000000000, 1.000000000000000888 ) ) ;
#66 = AXIS2_PLACEMENT_3D ( 'NONE', #148, #269, #69 ) ;
#67 =( GEOMETRIC_REPRESENTATION_CONTEXT ( 3 ) GLOBAL_UNCERTAINTY_ASSIGNED_CONTEXT ( ( #41 ) ) GLOBAL_UNIT_ASSIGNED_CONTEXT ( ( #217, #152, #131 ) ) REPRESENTATION_CONTEXT ( 'NONE', 'WORKASPACE' ) );
#68 = DIRECTION ( 'NONE',  ( -0.7071067811865487940, 8.659560562354948882E-17, 0.7071067811865463515 ) ) ;
#69 = DIRECTION ( 'NONE',  ( 1.000000000000000000, 0.000000000000000000, 0.000000000000000000 ) ) ;
#70 = EDGE_LOOP ( 'NONE', ( #157, #28 ) ) ;
#71 = ORIENTED_EDGE ( 'NONE', *, *, #91, .T. ) ;
#72 = EDGE_CURVE ( 'NONE', #194, #221, #101, .T. ) ;
#73 = CARTESIAN_POINT ( 'NONE',  ( 0.000000000000000000, 0.000000000000000000, 0.000000000000000000 ) ) ;
#74 = CIRCLE ( 'NONE', #62, 4.000000000000000000 ) ;
#75 = EDGE_LOOP ( 'NONE', ( #113, #241, #10, #5 ) ) ;
#76 =( NAMED_UNIT ( * ) PLANE_ANGLE_UNIT ( ) SI_UNIT ( $, .RADIAN. ) );
#77 = ADVANCED_FACE ( 'NONE', ( #250 ), #14, .T. ) ;
#78 = SURFACE_SIDE_STYLE ('',( #102 ) ) ;
#79 =( NAMED_UNIT ( * ) SI_UNIT ( $, .STERADIAN. ) SOLID_ANGLE_UNIT ( ) );
#80 = AXIS2_PLACEMENT_3D ( 'NONE', #42, #173, #127 ) ;
#81 = APPLICATION_CONTEXT ( 'automotive_design' ) ;
#82 = DIRECTION ( 'NONE',  ( -1.000000000000000000, 0.000000000000000000, 0.000000000000000000 ) ) ;
#83 = CARTESIAN_POINT ( 'NONE',  ( 2.999999999999995559, 0.000000000000000000, 0.000000000000000000 ) ) ;
#84 = CONICAL_SURFACE ( 'NONE', #54, 3.000000000000009770, 0.7853981633974430610 ) ;
#85 = CARTESIAN_POINT ( 'NONE',  ( 0.000000000000000000, 0.000000000000000000, 0.000000000000000000 ) ) ;
#86 = MANIFOLD_SOLID_BREP ( 'Fase1', #186 ) ;
#87 = FACE_OUTER_BOUND ( 'NONE', #70, .T. ) ;
#88 = DIRECTION ( 'NONE',  ( -0.000000000000000000, -0.000000000000000000, -1.000000000000000000 ) ) ;
#89 = CONICAL_SURFACE ( 'NONE', #124, 4.000000000000000000, 0.7853981633974500554 ) ;
#90 = DIRECTION ( 'NONE',  ( 1.000000000000000000, 0.000000000000000000, 0.000000000000000000 ) ) ;
#91 = EDGE_CURVE ( 'NONE', #178, #92, #162, .T. ) ;
#92 = VERTEX_POINT ( 'NONE', #37 ) ;
#93 =( LENGTH_UNIT ( ) NAMED_UNIT ( * ) SI_UNIT ( .MILLI., .METRE. ) );
#94 = ORIENTED_EDGE ( 'NONE', *, *, #195, .T. ) ;
#95 = AXIS2_PLACEMENT_3D ( 'NONE', #163, #228, #59 ) ;
#96 = PRESENTATION_LAYER_ASSIGNMENT (  '', '', ( #135 ) ) ;
#97 = APPLICATION_PROTOCOL_DEFINITION ( 'draft international standard', 'automotive_design', 1998, #81 ) ;
#98 = ORIENTED_EDGE ( 'NONE', *, *, #7, .T. ) ;
#99 = ORIENTED_EDGE ( 'NONE', *, *, #72, .F. ) ;
#100 = CONICAL_SURFACE ( 'NONE', #66, 4.000000000000000000, 0.7853981633974500554 ) ;
#101 = LINE ( 'NONE', #184, #209 ) ;
#102 = SURFACE_STYLE_FILL_AREA ( #15 ) ;
#103 = LINE ( 'NONE', #164, #165 ) ;
#104 = VECTOR ( 'NONE', #143, 999.9999999999998863 ) ;
#105 = DIRECTION ( 'NONE',  ( -0.000000000000000000, -0.000000000000000000, -1.000000000000000000 ) ) ;
#106 = CYLINDRICAL_SURFACE ( 'NONE', #176, 4.000000000000000000 ) ;
#107 = PLANE ( 'NONE',  #116 ) ;
#108 = DIRECTION ( 'NONE',  ( 1.000000000000000000, 0.000000000000000000, 0.000000000000000000 ) ) ;
#109 = CARTESIAN_POINT ( 'NONE',  ( 3.000000000000009770, 4.286263797015742018E-16, 80.00000000000000000 ) ) ;
#110 = PRODUCT_DEFINITION_CONTEXT ( 'detailed design', #81, 'design' ) ;
#111 = DIRECTION ( 'NONE',  ( 0.000000000000000000, 0.000000000000000000, 1.000000000000000000 ) ) ;
#112 = SURFACE_STYLE_FILL_AREA ( #224 ) ;
#113 = ORIENTED_EDGE ( 'NONE', *, *, #207, .F. ) ;
#114 = ORIENTED_EDGE ( 'NONE', *, *, #211, .T. ) ;
#115 = PRODUCT_DEFINITION ( 'UNKNOWN', '', #8, #110 ) ;
#116 = AXIS2_PLACEMENT_3D ( 'NONE', #2, #111, #145 ) ;
#117 = DIRECTION ( 'NONE',  ( -1.000000000000000000, 0.000000000000000000, 0.000000000000000000 ) ) ;
#118 = VERTEX_POINT ( 'NONE', #83 ) ;
#119 = ORIENTED_EDGE ( 'NONE', *, *, #160, .F. ) ;
#120 = LINE ( 'NONE', #174, #141 ) ;
#121 = AXIS2_PLACEMENT_3D ( 'NONE', #230, #256, #130 ) ;
#122 = DIRECTION ( 'NONE',  ( -0.000000000000000000, -0.000000000000000000, -1.000000000000000000 ) ) ;
#123 = FILL_AREA_STYLE ('',( #39 ) ) ;
#124 = AXIS2_PLACEMENT_3D ( 'NONE', #220, #126, #139 ) ;
#125 = PRESENTATION_LAYER_ASSIGNMENT (  '', '', ( #26 ) ) ;
#126 = DIRECTION ( 'NONE',  ( -0.000000000000000000, -0.000000000000000000, 1.000000000000000000 ) ) ;
#127 = DIRECTION ( 'NONE',  ( 1.000000000000000000, 0.000000000000000000, 0.000000000000000000 ) ) ;
#128 = CARTESIAN_POINT ( 'NONE',  ( 0.000000000000000000, 0.000000000000000000, 79.00000000000000000 ) ) ;
#129 =( GEOMETRIC_REPRESENTATION_CONTEXT ( 3 ) GLOBAL_UNCERTAINTY_ASSIGNED_CONTEXT ( ( #169 ) ) GLOBAL_UNIT_ASSIGNED_CONTEXT ( ( #93, #35, #201 ) ) REPRESENTATION_CONTEXT ( 'NONE', 'WORKASPACE' ) );
#130 = DIRECTION ( 'NONE',  ( 1.000000000000000000, 0.000000000000000000, 0.000000000000000000 ) ) ;
#131 =( NAMED_UNIT ( * ) SI_UNIT ( $, .STERADIAN. ) SOLID_ANGLE_UNIT ( ) );
#132 = EDGE_LOOP ( 'NONE', ( #261, #27, #98, #154 ) ) ;
#133 = PRODUCT_CONTEXT ( 'NONE', #180, 'mechanical' ) ;
#134 = EDGE_LOOP ( 'NONE', ( #32, #215, #49, #51 ) ) ;
#135 = STYLED_ITEM ( 'NONE', ( #189 ), #168 ) ;
#136 = FACE_OUTER_BOUND ( 'NONE', #75, .T. ) ;
#137 = ORIENTED_EDGE ( 'NONE', *, *, #12, .T. ) ;
#138 = FILL_AREA_STYLE_COLOUR ( '', #259 ) ;
#139 = DIRECTION ( 'NONE',  ( 1.000000000000000000, 0.000000000000000000, 0.000000000000000000 ) ) ;
#140 =( LENGTH_UNIT ( ) NAMED_UNIT ( * ) SI_UNIT ( .MILLI., .METRE. ) );
#141 = VECTOR ( 'NONE', #175, 1000.000000000000000 ) ;
#142 = CIRCLE ( 'NONE', #236, 2.999999999999995559 ) ;
#143 = DIRECTION ( 'NONE',  ( 0.7071067811865439090, 8.659560562354888485E-17, -0.7071067811865512365 ) ) ;
#144 = EDGE_CURVE ( 'NONE', #92, #260, #103, .T. ) ;
#145 = DIRECTION ( 'NONE',  ( 1.000000000000000000, 0.000000000000000000, -0.000000000000000000 ) ) ;
#146 = AXIS2_PLACEMENT_3D ( 'NONE', #73, #155, #242 ) ;
#147 =( GEOMETRIC_REPRESENTATION_CONTEXT ( 3 ) GLOBAL_UNCERTAINTY_ASSIGNED_CONTEXT ( ( #45 ) ) GLOBAL_UNIT_ASSIGNED_CONTEXT ( ( #203, #183, #56 ) ) REPRESENTATION_CONTEXT ( 'NONE', 'WORKASPACE' ) );
#148 = CARTESIAN_POINT ( 'NONE',  ( 0.000000000000000000, 0.000000000000000000, 1.000000000000000888 ) ) ;
#149 = DIRECTION ( 'NONE',  ( 1.000000000000000000, 0.000000000000000000, 0.000000000000000000 ) ) ;
#150 = PRODUCT_DEFINITION_SHAPE ( 'NONE', 'NONE',  #115 ) ;
#151 = DIRECTION ( 'NONE',  ( 0.000000000000000000, 0.000000000000000000, -1.000000000000000000 ) ) ;
#152 =( NAMED_UNIT ( * ) PLANE_ANGLE_UNIT ( ) SI_UNIT ( $, .RADIAN. ) );
#153 = ORIENTED_EDGE ( 'NONE', *, *, #91, .F. ) ;
#154 = ORIENTED_EDGE ( 'NONE', *, *, #234, .F. ) ;
#155 = DIRECTION ( 'NONE',  ( -0.000000000000000000, -0.000000000000000000, -1.000000000000000000 ) ) ;
#156 = AXIS2_PLACEMENT_3D ( 'NONE', #249, #13, #61 ) ;
#157 = ORIENTED_EDGE ( 'NONE', *, *, #16, .T. ) ;
#158 = ADVANCED_FACE ( 'NONE', ( #60 ), #17, .T. ) ;
#159 = SURFACE_STYLE_USAGE ( .BOTH. , #177 ) ;
#160 = EDGE_CURVE ( 'NONE', #260, #55, #170, .T. ) ;
#161 = CIRCLE ( 'NONE', #204, 4.000000000000000000 ) ;
#162 = CIRCLE ( 'NONE', #219, 3.000000000000009770 ) ;
#163 = CARTESIAN_POINT ( 'NONE',  ( 0.000000000000000000, 0.000000000000000000, 80.00000000000000000 ) ) ;
#164 = CARTESIAN_POINT ( 'NONE',  ( -3.000000000000009770, 0.000000000000000000, 80.00000000000000000 ) ) ;
#165 = VECTOR ( 'NONE', #197, 999.9999999999998863 ) ;
#166 = FILL_AREA_STYLE_COLOUR ( '', #266 ) ;
#167 = CARTESIAN_POINT ( 'NONE',  ( 3.000000000000009770, 3.673940397442071208E-16, 80.00000000000000000 ) ) ;
#168 = ADVANCED_BREP_SHAPE_REPRESENTATION ( '202500614-10211P01', ( #86, #248 ), #67 ) ;
#169 = UNCERTAINTY_MEASURE_WITH_UNIT (LENGTH_MEASURE( 1.000000000000000082E-05 ), #93, 'distance_accuracy_value', 'NONE');
#170 = LINE ( 'NONE', #21, #22 ) ;
#171 = ADVANCED_FACE ( 'NONE', ( #210 ), #84, .T. ) ;
#172 = CARTESIAN_POINT ( 'NONE',  ( 4.000000000000000000, 4.898587196589412829E-16, 1.000000000000000888 ) ) ;
#173 = DIRECTION ( 'NONE',  ( -0.000000000000000000, -0.000000000000000000, 1.000000000000000000 ) ) ;
#174 = CARTESIAN_POINT ( 'NONE',  ( 4.000000000000000000, 0.000000000000000000, 1.000000000000000888 ) ) ;
#175 = DIRECTION ( 'NONE',  ( 0.7071067811865487940, 0.000000000000000000, 0.7071067811865463515 ) ) ;
#176 = AXIS2_PLACEMENT_3D ( 'NONE', #264, #29, #117 ) ;
#177 = SURFACE_SIDE_STYLE ('',( #112 ) ) ;
#178 = VERTEX_POINT ( 'NONE', #109 ) ;
#179 = MECHANICAL_DESIGN_GEOMETRIC_PRESENTATION_REPRESENTATION (  '', ( #47 ), #192 ) ;
#180 = APPLICATION_CONTEXT ( 'automotive_design' ) ;
#181 = PRESENTATION_STYLE_ASSIGNMENT (( #267 ) ) ;
#182 = DIRECTION ( 'NONE',  ( 1.000000000000000000, 0.000000000000000000, 0.000000000000000000 ) ) ;
#183 =( NAMED_UNIT ( * ) PLANE_ANGLE_UNIT ( ) SI_UNIT ( $, .RADIAN. ) );
#184 = CARTESIAN_POINT ( 'NONE',  ( 4.000000000000000000, 4.898587196589412829E-16, 80.00000000000000000 ) ) ;
#185 = EDGE_CURVE ( 'NONE', #221, #55, #223, .T. ) ;
#186 = CLOSED_SHELL ( 'NONE', ( #171, #36, #262, #158, #77, #199, #245, #44 ) ) ;
#187 = CARTESIAN_POINT ( 'NONE',  ( -4.000000000000000000, 4.898587196589412829E-16, 1.000000000000000888 ) ) ;
#188 = CIRCLE ( 'NONE', #146, 2.999999999999995559 ) ;
#189 = PRESENTATION_STYLE_ASSIGNMENT (( #159 ) ) ;
#190 = EDGE_LOOP ( 'NONE', ( #99, #137, #239, #6 ) ) ;
#191 = DIRECTION ( 'NONE',  ( 1.000000000000000000, 0.000000000000000000, 0.000000000000000000 ) ) ;
#192 =( GEOMETRIC_REPRESENTATION_CONTEXT ( 3 ) GLOBAL_UNCERTAINTY_ASSIGNED_CONTEXT ( ( #229 ) ) GLOBAL_UNIT_ASSIGNED_CONTEXT ( ( #140, #76, #79 ) ) REPRESENTATION_CONTEXT ( 'NONE', 'WORKASPACE' ) );
#193 = SURFACE_STYLE_FILL_AREA ( #252 ) ;
#194 = VERTEX_POINT ( 'NONE', #24 ) ;
#195 = EDGE_CURVE ( 'NONE', #260, #194, #74, .T. ) ;
#196 = VERTEX_POINT ( 'NONE', #64 ) ;
#197 = DIRECTION ( 'NONE',  ( -0.7071067811865439090, 0.000000000000000000, -0.7071067811865512365 ) ) ;
#198 = PRESENTATION_LAYER_ASSIGNMENT (  '', '', ( #47 ) ) ;
#199 = ADVANCED_FACE ( 'NONE', ( #87 ), #107, .F. ) ;
#200 = SURFACE_STYLE_USAGE ( .BOTH. , #34 ) ;
#201 =( NAMED_UNIT ( * ) SI_UNIT ( $, .STERADIAN. ) SOLID_ANGLE_UNIT ( ) );
#202 = PRESENTATION_STYLE_ASSIGNMENT (( #200 ) ) ;
#203 =( LENGTH_UNIT ( ) NAMED_UNIT ( * ) SI_UNIT ( .MILLI., .METRE. ) );
#204 = AXIS2_PLACEMENT_3D ( 'NONE', #258, #151, #191 ) ;
#205 = CIRCLE ( 'NONE', #121, 3.000000000000009770 ) ;
#206 = CARTESIAN_POINT ( 'NONE',  ( -4.000000000000000000, 0.000000000000000000, 1.000000000000000888 ) ) ;
#207 = EDGE_CURVE ( 'NONE', #196, #118, #142, .T. ) ;
#208 = CARTESIAN_POINT ( 'NONE',  ( -4.000000000000000000, 0.000000000000000000, 79.00000000000000000 ) ) ;
#209 = VECTOR ( 'NONE', #122, 1000.000000000000000 ) ;
#210 = FACE_OUTER_BOUND ( 'NONE', #218, .T. ) ;
#211 = EDGE_CURVE ( 'NONE', #178, #194, #63, .T. ) ;
#212 = UNCERTAINTY_MEASURE_WITH_UNIT (LENGTH_MEASURE( 1.000000000000000082E-05 ), #48, 'distance_accuracy_value', 'NONE');
#213 = DIRECTION ( 'NONE',  ( 0.000000000000000000, 0.000000000000000000, -1.000000000000000000 ) ) ;
#214 = COLOUR_RGB ( '',0.6470588235294117974, 0.6196078431372549211, 0.5882352941176470784 ) ;
#215 = ORIENTED_EDGE ( 'NONE', *, *, #226, .F. ) ;
#216 = ORIENTED_EDGE ( 'NONE', *, *, #144, .F. ) ;
#217 =( LENGTH_UNIT ( ) NAMED_UNIT ( * ) SI_UNIT ( .MILLI., .METRE. ) );
#218 = EDGE_LOOP ( 'NONE', ( #153, #114, #237, #216 ) ) ;
#219 = AXIS2_PLACEMENT_3D ( 'NONE', #263, #19, #182 ) ;
#220 = CARTESIAN_POINT ( 'NONE',  ( 0.000000000000000000, 0.000000000000000000, 1.000000000000000888 ) ) ;
#221 = VERTEX_POINT ( 'NONE', #172 ) ;
#222 = PRESENTATION_LAYER_ASSIGNMENT (  '', '', ( #270 ) ) ;
#223 = CIRCLE ( 'NONE', #58, 4.000000000000000000 ) ;
#224 = FILL_AREA_STYLE ('',( #138 ) ) ;
#225 = FACE_OUTER_BOUND ( 'NONE', #134, .T. ) ;
#226 = EDGE_CURVE ( 'NONE', #92, #178, #205, .T. ) ;
#227 = COLOUR_RGB ( '',0.6470588235294117974, 0.6196078431372549211, 0.5882352941176470784 ) ;
#228 = DIRECTION ( 'NONE',  ( 0.000000000000000000, 0.000000000000000000, 1.000000000000000000 ) ) ;
#229 = UNCERTAINTY_MEASURE_WITH_UNIT (LENGTH_MEASURE( 1.000000000000000082E-05 ), #140, 'distance_accuracy_value', 'NONE');
#230 = CARTESIAN_POINT ( 'NONE',  ( 0.000000000000000000, 0.000000000000000000, 80.00000000000000000 ) ) ;
#231 = VECTOR ( 'NONE', #68, 1000.000000000000000 ) ;
#232 = DIRECTION ( 'NONE',  ( -0.000000000000000000, -0.000000000000000000, 1.000000000000000000 ) ) ;
#233 = DIRECTION ( 'NONE',  ( 1.000000000000000000, 0.000000000000000000, 0.000000000000000000 ) ) ;
#234 = EDGE_CURVE ( 'NONE', #55, #221, #43, .T. ) ;
#235 = PRESENTATION_STYLE_ASSIGNMENT (( #246 ) ) ;
#236 = AXIS2_PLACEMENT_3D ( 'NONE', #85, #88, #149 ) ;
#237 = ORIENTED_EDGE ( 'NONE', *, *, #195, .F. ) ;
#238 = DIRECTION ( 'NONE',  ( 0.000000000000000000, 0.000000000000000000, 1.000000000000000000 ) ) ;
#239 = ORIENTED_EDGE ( 'NONE', *, *, #160, .T. ) ;
#240 = EDGE_CURVE ( 'NONE', #196, #55, #254, .T. ) ;
#241 = ORIENTED_EDGE ( 'NONE', *, *, #240, .T. ) ;
#242 = DIRECTION ( 'NONE',  ( 1.000000000000000000, 0.000000000000000000, 0.000000000000000000 ) ) ;
#243 = AXIS2_PLACEMENT_3D ( 'NONE', #247, #105, #82 ) ;
#244 = EDGE_LOOP ( 'NONE', ( #33, #71 ) ) ;
#245 = ADVANCED_FACE ( 'NONE', ( #257 ), #100, .T. ) ;
#246 = SURFACE_STYLE_USAGE ( .BOTH. , #57 ) ;
#247 = CARTESIAN_POINT ( 'NONE',  ( 0.000000000000000000, 0.000000000000000000, 80.00000000000000000 ) ) ;
#248 = AXIS2_PLACEMENT_3D ( 'NONE', #4, #238, #90 ) ;
#249 = CARTESIAN_POINT ( 'NONE',  ( 0.000000000000000000, 0.000000000000000000, 80.00000000000000000 ) ) ;
#250 = FACE_OUTER_BOUND ( 'NONE', #244, .T. ) ;
#251 = SURFACE_STYLE_FILL_AREA ( #123 ) ;
#252 = FILL_AREA_STYLE ('',( #166 ) ) ;
#253 = DIRECTION ( 'NONE',  ( -0.000000000000000000, -0.000000000000000000, -1.000000000000000000 ) ) ;
#254 = LINE ( 'NONE', #187, #231 ) ;
#255 =( GEOMETRIC_REPRESENTATION_CONTEXT ( 3 ) GLOBAL_UNCERTAINTY_ASSIGNED_CONTEXT ( ( #212 ) ) GLOBAL_UNIT_ASSIGNED_CONTEXT ( ( #48, #9, #52 ) ) REPRESENTATION_CONTEXT ( 'NONE', 'WORKASPACE' ) );
#256 = DIRECTION ( 'NONE',  ( 0.000000000000000000, 0.000000000000000000, 1.000000000000000000 ) ) ;
#257 = FACE_OUTER_BOUND ( 'NONE', #132, .T. ) ;
#258 = CARTESIAN_POINT ( 'NONE',  ( 0.000000000000000000, 0.000000000000000000, 79.00000000000000000 ) ) ;
#259 = COLOUR_RGB ( '',0.6470588235294117974, 0.6196078431372549211, 0.5882352941176470784 ) ;
#260 = VERTEX_POINT ( 'NONE', #208 ) ;
#261 = ORIENTED_EDGE ( 'NONE', *, *, #240, .F. ) ;
#262 = ADVANCED_FACE ( 'NONE', ( #20 ), #106, .T. ) ;
#263 = CARTESIAN_POINT ( 'NONE',  ( 0.000000000000000000, 0.000000000000000000, 80.00000000000000000 ) ) ;
#264 = CARTESIAN_POINT ( 'NONE',  ( 0.000000000000000000, 0.000000000000000000, 80.00000000000000000 ) ) ;
#265 = CONICAL_SURFACE ( 'NONE', #156, 3.000000000000009770, 0.7853981633974430610 ) ;
#266 = COLOUR_RGB ( '',0.6470588235294117974, 0.6196078431372549211, 0.5882352941176470784 ) ;
#267 = SURFACE_STYLE_USAGE ( .BOTH. , #78 ) ;
#268 = FILL_AREA_STYLE_COLOUR ( '', #214 ) ;
#269 = DIRECTION ( 'NONE',  ( -0.000000000000000000, -0.000000000000000000, 1.000000000000000000 ) ) ;
#270 = STYLED_ITEM ( 'NONE', ( #181 ), #86 ) ;
ENDSEC;
END-ISO-10303-21;
