ISO-10303-21;
HEADER;
FILE_DESCRIPTION (( 'STEP AP214' ),
    '1' );
FILE_NAME ('202500614-10105P01.STEP',
    '2026-02-10T10:16:41',
    ( '' ),
    ( '' ),
    'SwSTEP 2.0',
    'SolidWorks 2021',
    '' );
FILE_SCHEMA (( 'AUTOMOTIVE_DESIGN' ));
ENDSEC;

DATA;
#1 = CARTESIAN_POINT ( 'NONE',  ( 0.000000000000000000, 0.000000000000000000, -3.000000000000000000 ) ) ;
#2 = ORIENTED_EDGE ( 'NONE', *, *, #720, .T. ) ;
#3 = PRODUCT_DEFINITION ( 'UNKNOWN', '', #893, #510 ) ;
#4 = EDGE_LOOP ( 'NONE', ( #126, #751, #405, #820 ) ) ;
#5 = LINE ( 'NONE', #1321, #869 ) ;
#6 = DIRECTION ( 'NONE',  ( 1.000000000000000000, -0.000000000000000000, -0.000000000000000000 ) ) ;
#7 = FACE_OUTER_BOUND ( 'NONE', #814, .T. ) ;
#8 = VECTOR ( 'NONE', #1192, 1000.000000000000000 ) ;
#9 = EDGE_LOOP ( 'NONE', ( #635, #836, #959, #597 ) ) ;
#10 = VECTOR ( 'NONE', #344, 1000.000000000000000 ) ;
#11 = VERTEX_POINT ( 'NONE', #846 ) ;
#12 = CIRCLE ( 'NONE', #1283, 7.500000000000001776 ) ;
#13 = DIRECTION ( 'NONE',  ( -0.000000000000000000, -1.000000000000000000, -0.000000000000000000 ) ) ;
#14 = AXIS2_PLACEMENT_3D ( 'NONE', #936, #388, #728 ) ;
#15 = EDGE_CURVE ( 'NONE', #1046, #448, #832, .T. ) ;
#16 = LINE ( 'NONE', #91, #1029 ) ;
#17 = DIRECTION ( 'NONE',  ( 1.000000000000000000, 0.000000000000000000, -0.000000000000000000 ) ) ;
#18 = ORIENTED_EDGE ( 'NONE', *, *, #328, .T. ) ;
#19 = VERTEX_POINT ( 'NONE', #110 ) ;
#20 = CARTESIAN_POINT ( 'NONE',  ( 17.99999999999999289, 3.741657386773943550, -6.500000000000000888 ) ) ;
#21 = SURFACE_STYLE_USAGE ( .BOTH. , #541 ) ;
#22 = EDGE_CURVE ( 'NONE', #1226, #252, #1222, .T. ) ;
#23 = DIRECTION ( 'NONE',  ( 0.000000000000000000, 0.000000000000000000, 1.000000000000000000 ) ) ;
#24 = DIRECTION ( 'NONE',  ( 0.000000000000000000, 0.000000000000000000, 1.000000000000000000 ) ) ;
#25 = ORIENTED_EDGE ( 'NONE', *, *, #1218, .F. ) ;
#26 =( NAMED_UNIT ( * ) SI_UNIT ( $, .STERADIAN. ) SOLID_ANGLE_UNIT ( ) );
#27 = ADVANCED_FACE ( 'NONE', ( #939 ), #841, .T. ) ;
#28 = CARTESIAN_POINT ( 'NONE',  ( 12.00000000000000000, 0.000000000000000000, 0.000000000000000000 ) ) ;
#29 = ADVANCED_FACE ( 'NONE', ( #426 ), #742, .T. ) ;
#30 = LINE ( 'NONE', #865, #225 ) ;
#31 = VECTOR ( 'NONE', #1066, 1000.000000000000000 ) ;
#32 = PRESENTATION_LAYER_ASSIGNMENT (  '', '', ( #1194 ) ) ;
#33 = ORIENTED_EDGE ( 'NONE', *, *, #585, .T. ) ;
#34 = DIRECTION ( 'NONE',  ( -0.000000000000000000, 1.597519642372721818E-16, 1.000000000000000000 ) ) ;
#35 = AXIS2_PLACEMENT_3D ( 'NONE', #340, #46, #130 ) ;
#36 = CIRCLE ( 'NONE', #180, 0.5999999999999998668 ) ;
#37 = AXIS2_PLACEMENT_3D ( 'NONE', #735, #298, #633 ) ;
#38 = DIRECTION ( 'NONE',  ( -1.000000000000000000, 0.000000000000000000, 0.000000000000000000 ) ) ;
#39 = EDGE_CURVE ( 'NONE', #557, #363, #645, .T. ) ;
#40 = EDGE_LOOP ( 'NONE', ( #1104, #641 ) ) ;
#41 =( NAMED_UNIT ( * ) PLANE_ANGLE_UNIT ( ) SI_UNIT ( $, .RADIAN. ) );
#42 = CARTESIAN_POINT ( 'NONE',  ( 39.00000000000000711, 0.000000000000000000, 1.900000000000005906 ) ) ;
#43 = MANIFOLD_SOLID_BREP ( 'Fase5', #700 ) ;
#44 = VERTEX_POINT ( 'NONE', #861 ) ;
#45 =( LENGTH_UNIT ( ) NAMED_UNIT ( * ) SI_UNIT ( .MILLI., .METRE. ) );
#46 = DIRECTION ( 'NONE',  ( 1.000000000000000000, 0.000000000000000000, -0.000000000000000000 ) ) ;
#47 = VERTEX_POINT ( 'NONE', #1284 ) ;
#48 = AXIS2_PLACEMENT_3D ( 'NONE', #885, #255, #1061 ) ;
#49 = CARTESIAN_POINT ( 'NONE',  ( 39.00000000000000711, 0.000000000000000000, 0.000000000000000000 ) ) ;
#50 = EDGE_CURVE ( 'NONE', #375, #19, #30, .T. ) ;
#51 = AXIS2_PLACEMENT_3D ( 'NONE', #1237, #1024, #1056 ) ;
#52 = ORIENTED_EDGE ( 'NONE', *, *, #407, .F. ) ;
#53 = DIRECTION ( 'NONE',  ( -1.000000000000000000, 0.000000000000000000, 0.000000000000000000 ) ) ;
#54 = CARTESIAN_POINT ( 'NONE',  ( 32.00000000000000000, 0.000000000000000000, 0.000000000000000000 ) ) ;
#55 = FILL_AREA_STYLE_COLOUR ( '', #651 ) ;
#56 = ORIENTED_EDGE ( 'NONE', *, *, #686, .T. ) ;
#57 = DIRECTION ( 'NONE',  ( 0.000000000000000000, 0.000000000000000000, 1.000000000000000000 ) ) ;
#58 = VERTEX_POINT ( 'NONE', #653 ) ;
#59 = DIRECTION ( 'NONE',  ( -1.000000000000000000, 0.000000000000000000, 0.000000000000000000 ) ) ;
#60 = EDGE_CURVE ( 'NONE', #448, #1046, #413, .T. ) ;
#61 = LINE ( 'NONE', #1120, #805 ) ;
#62 = PRESENTATION_STYLE_ASSIGNMENT (( #226 ) ) ;
#63 = EDGE_LOOP ( 'NONE', ( #765, #827, #289, #509 ) ) ;
#64 = DIRECTION ( 'NONE',  ( 0.000000000000000000, 0.000000000000000000, -1.000000000000000000 ) ) ;
#65 = ORIENTED_EDGE ( 'NONE', *, *, #369, .T. ) ;
#66 = CARTESIAN_POINT ( 'NONE',  ( 39.00000000000000711, 0.000000000000000000, 1.900000000000005906 ) ) ;
#67 = EDGE_CURVE ( 'NONE', #89, #990, #1264, .T. ) ;
#68 = DIRECTION ( 'NONE',  ( 0.000000000000000000, 1.000000000000000000, -1.224646799147353207E-16 ) ) ;
#69 = ORIENTED_EDGE ( 'NONE', *, *, #400, .F. ) ;
#70 = PLANE ( 'NONE',  #1306 ) ;
#71 = VECTOR ( 'NONE', #396, 1000.000000000000000 ) ;
#72 = CIRCLE ( 'NONE', #697, 2.500000000000004441 ) ;
#73 = ORIENTED_EDGE ( 'NONE', *, *, #629, .T. ) ;
#74 = CARTESIAN_POINT ( 'NONE',  ( 12.50000000000001066, 0.000000000000000000, 0.000000000000000000 ) ) ;
#75 = AXIS2_PLACEMENT_3D ( 'NONE', #493, #1110, #1324 ) ;
#76 = CARTESIAN_POINT ( 'NONE',  ( 12.14472730107585718, -2.988015160451066077, 6.500000000000000888 ) ) ;
#77 = CARTESIAN_POINT ( 'NONE',  ( 18.50000000000000000, 0.000000000000000000, 0.000000000000000000 ) ) ;
#78 = EDGE_LOOP ( 'NONE', ( #331, #2, #257, #732 ) ) ;
#79 = EDGE_CURVE ( 'NONE', #927, #1190, #910, .T. ) ;
#80 = DIRECTION ( 'NONE',  ( 0.000000000000000000, 0.000000000000000000, 1.000000000000000000 ) ) ;
#81 = CARTESIAN_POINT ( 'NONE',  ( 12.50000000000001066, -3.741657386773941774, 6.500000000000000888 ) ) ;
#82 = CARTESIAN_POINT ( 'NONE',  ( 32.00000000000000000, 0.000000000000000000, 0.000000000000000000 ) ) ;
#83 = VERTEX_POINT ( 'NONE', #969 ) ;
#84 = EDGE_CURVE ( 'NONE', #204, #1130, #309, .T. ) ;
#85 = CARTESIAN_POINT ( 'NONE',  ( 12.31289182655052450, -3.366606665713384405, -6.499999999999999112 ) ) ;
#86 = DIRECTION ( 'NONE',  ( -0.7071067811865474617, 8.659560562354932858E-17, -0.7071067811865474617 ) ) ;
#87 = CYLINDRICAL_SURFACE ( 'NONE', #987, 3.000000000000002665 ) ;
#88 = DIRECTION ( 'NONE',  ( 0.000000000000000000, 0.000000000000000000, -1.000000000000000000 ) ) ;
#89 = VERTEX_POINT ( 'NONE', #1182 ) ;
#90 = DIRECTION ( 'NONE',  ( 0.000000000000000000, 0.000000000000000000, -1.000000000000000000 ) ) ;
#91 = CARTESIAN_POINT ( 'NONE',  ( 1.000000000000004441, 4.898587196589412829E-16, 4.000000000000000000 ) ) ;
#92 = EDGE_CURVE ( 'NONE', #322, #478, #351, .T. ) ;
#93 = CIRCLE ( 'NONE', #264, 6.000000000000001776 ) ;
#94 = TOROIDAL_SURFACE ( 'NONE', #804, 2.250000000000003997, 0.4000000000000000222 ) ;
#95 = DIRECTION ( 'NONE',  ( -0.000000000000000000, 1.000000000000000000, -1.597519642372721571E-16 ) ) ;
#96 = APPLICATION_PROTOCOL_DEFINITION ( 'draft international standard', 'automotive_design', 1998, #740 ) ;
#97 = PRESENTATION_LAYER_ASSIGNMENT (  '', '', ( #854 ) ) ;
#98 = AXIS2_PLACEMENT_3D ( 'NONE', #233, #550, #1276 ) ;
#99 = ORIENTED_EDGE ( 'NONE', *, *, #588, .T. ) ;
#100 = VECTOR ( 'NONE', #1043, 1000.000000000000000 ) ;
#101 = ORIENTED_EDGE ( 'NONE', *, *, #819, .T. ) ;
#102 = DIRECTION ( 'NONE',  ( 0.000000000000000000, 0.000000000000000000, -1.000000000000000000 ) ) ;
#103 = DIRECTION ( 'NONE',  ( 0.7071067811865463515, 8.659560562354948882E-17, 0.7071067811865487940 ) ) ;
#104 = ADVANCED_FACE ( 'NONE', ( #261, #334 ), #1273, .T. ) ;
#105 = SHAPE_DEFINITION_REPRESENTATION ( #464, #796 ) ;
#106 = EDGE_LOOP ( 'NONE', ( #1269, #757, #792, #661 ) ) ;
#107 = EDGE_LOOP ( 'NONE', ( #1308, #131, #847, #1153 ) ) ;
#108 = DIRECTION ( 'NONE',  ( 1.000000000000000000, -0.000000000000000000, -0.000000000000000000 ) ) ;
#109 = CARTESIAN_POINT ( 'NONE',  ( 1.000000000000004441, 4.898587196589412829E-16, 4.000000000000000000 ) ) ;
#110 = CARTESIAN_POINT ( 'NONE',  ( 12.00000000000000000, -2.598076211353292031, 6.500000000000000888 ) ) ;
#111 = ADVANCED_FACE ( 'NONE', ( #1168 ), #919, .T. ) ;
#112 = ORIENTED_EDGE ( 'NONE', *, *, #328, .F. ) ;
#113 = CARTESIAN_POINT ( 'NONE',  ( 29.50000000000000000, 0.000000000000000000, 0.000000000000000000 ) ) ;
#114 = FACE_OUTER_BOUND ( 'NONE', #444, .T. ) ;
#115 = FACE_BOUND ( 'NONE', #1164, .T. ) ;
#116 = CIRCLE ( 'NONE', #694, 3.000000000000002220 ) ;
#117 = VERTEX_POINT ( 'NONE', #453 ) ;
#118 = AXIS2_PLACEMENT_3D ( 'NONE', #183, #59, #1005 ) ;
#119 = VECTOR ( 'NONE', #754, 1000.000000000000000 ) ;
#120 = ORIENTED_EDGE ( 'NONE', *, *, #958, .F. ) ;
#121 = EDGE_CURVE ( 'NONE', #117, #361, #1076, .T. ) ;
#122 = AXIS2_PLACEMENT_3D ( 'NONE', #251, #1189, #660 ) ;
#123 = DIRECTION ( 'NONE',  ( 1.000000000000000000, -0.000000000000000000, -0.000000000000000000 ) ) ;
#124 = CARTESIAN_POINT ( 'NONE',  ( 18.50000000000000000, 6.000000000000001776, 0.000000000000000000 ) ) ;
#125 = CARTESIAN_POINT ( 'NONE',  ( 0.000000000000000000, 0.000000000000000000, 0.000000000000000000 ) ) ;
#126 = ORIENTED_EDGE ( 'NONE', *, *, #720, .F. ) ;
#127 = CARTESIAN_POINT ( 'NONE',  ( 20.00000000000000000, 7.041719095097280880E-16, -5.499999999999998224 ) ) ;
#128 = CARTESIAN_POINT ( 'NONE',  ( 8.300000000000000711, 4.898587196589412829E-16, 4.000000000000000000 ) ) ;
#129 = DIRECTION ( 'NONE',  ( -1.000000000000000000, 0.000000000000000000, 0.000000000000000000 ) ) ;
#130 = DIRECTION ( 'NONE',  ( -0.000000000000000000, 0.000000000000000000, -1.000000000000000000 ) ) ;
#131 = ORIENTED_EDGE ( 'NONE', *, *, #876, .F. ) ;
#132 = CARTESIAN_POINT ( 'NONE',  ( 18.50000000000000000, 0.000000000000000000, 0.000000000000000000 ) ) ;
#133 = SURFACE_STYLE_FILL_AREA ( #1067 ) ;
#134 = B_SPLINE_CURVE_WITH_KNOTS ( 'NONE', 3,
 ( #292, #76, #393, #810 ),
 .UNSPECIFIED., .F., .F.,
 ( 4, 4 ),
 ( 0.006503922416289771406, 0.007730315640286007130 ),
 .UNSPECIFIED. ) ;
#135 = DIRECTION ( 'NONE',  ( 0.000000000000000000, 0.000000000000000000, 1.000000000000000000 ) ) ;
#136 = EDGE_CURVE ( 'NONE', #44, #941, #443, .T. ) ;
#137 = DIRECTION ( 'NONE',  ( -1.000000000000000000, 0.000000000000000000, 0.000000000000000000 ) ) ;
#138 = AXIS2_PLACEMENT_3D ( 'NONE', #457, #1286, #771 ) ;
#139 = TOROIDAL_SURFACE ( 'NONE', #590, 3.600000000000000089, 0.5999999999999999778 ) ;
#140 = VERTEX_POINT ( 'NONE', #166 ) ;
#141 = COLOUR_RGB ( '',0.6470588235294117974, 0.6196078431372549211, 0.5882352941176470784 ) ;
#142 = AXIS2_PLACEMENT_3D ( 'NONE', #378, #906, #793 ) ;
#143 = ADVANCED_FACE ( 'NONE', ( #1198 ), #1000, .T. ) ;
#144 = FILL_AREA_STYLE ('',( #664 ) ) ;
#145 = ORIENTED_EDGE ( 'NONE', *, *, #1171, .F. ) ;
#146 = FILL_AREA_STYLE_COLOUR ( '', #675 ) ;
#147 = SURFACE_STYLE_USAGE ( .BOTH. , #1278 ) ;
#148 = EDGE_LOOP ( 'NONE', ( #1115, #1027 ) ) ;
#149 = EDGE_CURVE ( 'NONE', #917, #896, #615, .T. ) ;
#150 = CARTESIAN_POINT ( 'NONE',  ( 17.99999999999999289, -3.741657386773941774, 6.500000000000000888 ) ) ;
#151 = EDGE_LOOP ( 'NONE', ( #273, #681, #99, #25 ) ) ;
#152 = CYLINDRICAL_SURFACE ( 'NONE', #1260, 4.000000000000000000 ) ;
#153 = CARTESIAN_POINT ( 'NONE',  ( 39.00000000000000711, 7.539491415784396189, -6.500000000000000888 ) ) ;
#154 = ORIENTED_EDGE ( 'NONE', *, *, #812, .F. ) ;
#155 = CONICAL_SURFACE ( 'NONE', #944, 7.500000000000001776, 0.7853981633974466137 ) ;
#156 = ADVANCED_FACE ( 'NONE', ( #692 ), #947, .T. ) ;
#157 = FACE_OUTER_BOUND ( 'NONE', #1045, .T. ) ;
#158 = AXIS2_PLACEMENT_3D ( 'NONE', #949, #506, #617 ) ;
#159 = DIRECTION ( 'NONE',  ( -1.000000000000000000, 0.000000000000000000, 0.000000000000000000 ) ) ;
#160 = CARTESIAN_POINT ( 'NONE',  ( 19.49999999999998934, 0.000000000000000000, -6.000000000000001776 ) ) ;
#161 = EDGE_LOOP ( 'NONE', ( #395, #230, #866, #1287 ) ) ;
#162 = CARTESIAN_POINT ( 'NONE',  ( 0.000000000000000000, 0.000000000000000000, 0.000000000000000000 ) ) ;
#163 = ADVANCED_FACE ( 'NONE', ( #365 ), #915, .T. ) ;
#164 = DIRECTION ( 'NONE',  ( -1.000000000000000000, 0.000000000000000000, 0.000000000000000000 ) ) ;
#165 = EDGE_CURVE ( 'NONE', #1145, #1015, #723, .T. ) ;
#166 = CARTESIAN_POINT ( 'NONE',  ( 31.18431457505076310, 2.265596578422608031E-16, 1.850000000000004086 ) ) ;
#167 = ORIENTED_EDGE ( 'NONE', *, *, #407, .T. ) ;
#168 = CARTESIAN_POINT ( 'NONE',  ( 0.000000000000000000, 3.673940397442059868E-16, 3.000000000000000000 ) ) ;
#169 = ORIENTED_EDGE ( 'NONE', *, *, #149, .F. ) ;
#170 = DIRECTION ( 'NONE',  ( 0.000000000000000000, 0.000000000000000000, -1.000000000000000000 ) ) ;
#171 = EDGE_CURVE ( 'NONE', #19, #623, #134, .T. ) ;
#172 = DIRECTION ( 'NONE',  ( 0.000000000000000000, 0.000000000000000000, 1.000000000000000000 ) ) ;
#173 =( NAMED_UNIT ( * ) SI_UNIT ( $, .STERADIAN. ) SOLID_ANGLE_UNIT ( ) );
#174 = ORIENTED_EDGE ( 'NONE', *, *, #15, .F. ) ;
#175 = DIRECTION ( 'NONE',  ( 0.000000000000000000, 0.000000000000000000, -1.000000000000000000 ) ) ;
#176 = AXIS2_PLACEMENT_3D ( 'NONE', #132, #1270, #1170 ) ;
#177 = DIRECTION ( 'NONE',  ( 1.000000000000000000, -0.000000000000000000, -0.000000000000000000 ) ) ;
#178 = AXIS2_PLACEMENT_3D ( 'NONE', #1305, #801, #498 ) ;
#179 = CARTESIAN_POINT ( 'NONE',  ( 9.124264068711955389, 4.393871019889290233E-16, -3.175735931288065750 ) ) ;
#180 = AXIS2_PLACEMENT_3D ( 'NONE', #522, #13, #1032 ) ;
#181 = EDGE_LOOP ( 'NONE', ( #636, #210, #798, #368 ) ) ;
#182 = LINE ( 'NONE', #920, #71 ) ;
#183 = CARTESIAN_POINT ( 'NONE',  ( 20.00000000000000000, 0.000000000000000000, 0.000000000000000000 ) ) ;
#184 = DIRECTION ( 'NONE',  ( 1.000000000000000000, -0.000000000000000000, -0.000000000000000000 ) ) ;
#185 = FACE_OUTER_BOUND ( 'NONE', #603, .T. ) ;
#186 = ORIENTED_EDGE ( 'NONE', *, *, #60, .T. ) ;
#187 = CARTESIAN_POINT ( 'NONE',  ( 9.548528137423877737, 0.000000000000000000, 0.000000000000000000 ) ) ;
#188 = DIRECTION ( 'NONE',  ( 1.000000000000000000, -0.000000000000000000, -0.000000000000000000 ) ) ;
#189 = CARTESIAN_POINT ( 'NONE',  ( 20.00000000000000000, 3.000000000000002220, 0.000000000000000000 ) ) ;
#190 = DIRECTION ( 'NONE',  ( 0.000000000000000000, 0.000000000000000000, -1.000000000000000000 ) ) ;
#191 = EDGE_LOOP ( 'NONE', ( #335, #56, #1040, #1071 ) ) ;
#192 = UNCERTAINTY_MEASURE_WITH_UNIT (LENGTH_MEASURE( 1.000000000000000082E-05 ), #45, 'distance_accuracy_value', 'NONE');
#193 = ORIENTED_EDGE ( 'NONE', *, *, #897, .T. ) ;
#194 = CARTESIAN_POINT ( 'NONE',  ( 29.89999999999999858, 2.265596578422608031E-16, 1.850000000000004086 ) ) ;
#195 = EDGE_CURVE ( 'NONE', #252, #1226, #1116, .T. ) ;
#196 = CARTESIAN_POINT ( 'NONE',  ( 32.00000000000000000, 3.061616997868387579E-16, 2.500000000000003997 ) ) ;
#197 =( GEOMETRIC_REPRESENTATION_CONTEXT ( 3 ) GLOBAL_UNCERTAINTY_ASSIGNED_CONTEXT ( ( #709 ) ) GLOBAL_UNIT_ASSIGNED_CONTEXT ( ( #1319, #1026, #173 ) ) REPRESENTATION_CONTEXT ( 'NONE', 'WORKASPACE' ) );
#198 = VECTOR ( 'NONE', #907, 1000.000000000000000 ) ;
#199 = CARTESIAN_POINT ( 'NONE',  ( 12.50000000000001066, -3.741657386773945326, -6.499999999999999112 ) ) ;
#200 = AXIS2_PLACEMENT_3D ( 'NONE', #877, #774, #1175 ) ;
#201 = AXIS2_PLACEMENT_3D ( 'NONE', #162, #881, #175 ) ;
#202 = ORIENTED_EDGE ( 'NONE', *, *, #976, .F. ) ;
#203 = CIRCLE ( 'NONE', #1095, 6.999999999999992006 ) ;
#204 = VERTEX_POINT ( 'NONE', #376 ) ;
#205 = CARTESIAN_POINT ( 'NONE',  ( 39.00000000000000711, 2.694222958124183416E-16, -1.900000000000005906 ) ) ;
#206 = DIRECTION ( 'NONE',  ( -1.000000000000000000, 0.000000000000000000, 0.000000000000000000 ) ) ;
#207 = PLANE ( 'NONE',  #1266 ) ;
#208 = ADVANCED_FACE ( 'NONE', ( #1313 ), #965, .T. ) ;
#209 = VERTEX_POINT ( 'NONE', #179 ) ;
#210 = ORIENTED_EDGE ( 'NONE', *, *, #932, .T. ) ;
#211 = DIRECTION ( 'NONE',  ( 1.000000000000000000, -0.000000000000000000, -0.000000000000000000 ) ) ;
#212 = FACE_OUTER_BOUND ( 'NONE', #770, .T. ) ;
#213 = CARTESIAN_POINT ( 'NONE',  ( 0.000000000000000000, 0.000000000000000000, -3.000000000000002665 ) ) ;
#214 = EDGE_CURVE ( 'NONE', #282, #140, #1180, .T. ) ;
#215 = ORIENTED_EDGE ( 'NONE', *, *, #826, .T. ) ;
#216 = ORIENTED_EDGE ( 'NONE', *, *, #967, .T. ) ;
#217 = DIRECTION ( 'NONE',  ( 1.000000000000000000, -0.000000000000000000, -0.000000000000000000 ) ) ;
#218 = CARTESIAN_POINT ( 'NONE',  ( 9.548528137423877737, 0.000000000000000000, 0.000000000000000000 ) ) ;
#219 = CARTESIAN_POINT ( 'NONE',  ( 18.50000000000000000, 6.000000000000002665, 6.500000000000000000 ) ) ;
#220 = ORIENTED_EDGE ( 'NONE', *, *, #250, .F. ) ;
#221 = AXIS2_PLACEMENT_3D ( 'NONE', #1078, #972, #227 ) ;
#222 = EDGE_CURVE ( 'NONE', #458, #529, #527, .T. ) ;
#223 = AXIS2_PLACEMENT_3D ( 'NONE', #908, #68, #680 ) ;
#224 = EDGE_LOOP ( 'NONE', ( #666, #357 ) ) ;
#225 = VECTOR ( 'NONE', #562, 1000.000000000000000 ) ;
#226 = SURFACE_STYLE_USAGE ( .BOTH. , #461 ) ;
#227 = DIRECTION ( 'NONE',  ( 0.000000000000000000, 0.000000000000000000, -1.000000000000000000 ) ) ;
#228 = APPLICATION_PROTOCOL_DEFINITION ( 'draft international standard', 'automotive_design', 1998, #1118 ) ;
#229 = ORIENTED_EDGE ( 'NONE', *, *, #676, .T. ) ;
#230 = ORIENTED_EDGE ( 'NONE', *, *, #195, .F. ) ;
#231 = LINE ( 'NONE', #642, #31 ) ;
#232 = ADVANCED_FACE ( 'NONE', ( #1225 ), #1101, .T. ) ;
#233 = CARTESIAN_POINT ( 'NONE',  ( 0.000000000000000000, 0.000000000000000000, 0.000000000000000000 ) ) ;
#234 = PRESENTATION_STYLE_ASSIGNMENT (( #875 ) ) ;
#235 = CARTESIAN_POINT ( 'NONE',  ( 18.35527269892414282, 2.988015160451079844, 6.500000000000000888 ) ) ;
#236 = ORIENTED_EDGE ( 'NONE', *, *, #786, .T. ) ;
#237 = CARTESIAN_POINT ( 'NONE',  ( 11.40000000000000036, 0.000000000000000000, 0.000000000000000000 ) ) ;
#238 = EDGE_CURVE ( 'NONE', #1190, #327, #12, .T. ) ;
#239 = DIRECTION ( 'NONE',  ( -0.000000000000000000, 0.000000000000000000, -1.000000000000000000 ) ) ;
#240 = B_SPLINE_CURVE_WITH_KNOTS ( 'NONE', 3,
 ( #1126, #513, #730, #1250 ),
 .UNSPECIFIED., .F., .F.,
 ( 4, 4 ),
 ( 1.545027413700337903E-06, 0.001240642113537718857 ),
 .UNSPECIFIED. ) ;
#241 =( NAMED_UNIT ( * ) SI_UNIT ( $, .STERADIAN. ) SOLID_ANGLE_UNIT ( ) );
#242 = CIRCLE ( 'NONE', #408, 6.999999999999999112 ) ;
#243 = CIRCLE ( 'NONE', #176, 6.000000000000001776 ) ;
#244 = AXIS2_PLACEMENT_3D ( 'NONE', #705, #524, #946 ) ;
#245 = ORIENTED_EDGE ( 'NONE', *, *, #39, .F. ) ;
#246 = VECTOR ( 'NONE', #766, 1000.000000000000000 ) ;
#247 = STYLED_ITEM ( 'NONE', ( #670 ), #43 ) ;
#248 = CIRCLE ( 'NONE', #437, 1.850000000000004086 ) ;
#249 = DIRECTION ( 'NONE',  ( -1.000000000000000000, 0.000000000000000000, 0.000000000000000000 ) ) ;
#250 = EDGE_CURVE ( 'NONE', #478, #117, #465, .T. ) ;
#251 = CARTESIAN_POINT ( 'NONE',  ( 18.50000000000000000, 0.000000000000000000, 0.000000000000000000 ) ) ;
#252 = VERTEX_POINT ( 'NONE', #993 ) ;
#253 = FACE_OUTER_BOUND ( 'NONE', #40, .T. ) ;
#254 = CARTESIAN_POINT ( 'NONE',  ( 18.18627375673498037, 3.368279220068807867, 6.500000000000000000 ) ) ;
#255 = DIRECTION ( 'NONE',  ( 1.000000000000000000, -0.000000000000000000, -0.000000000000000000 ) ) ;
#256 = EDGE_CURVE ( 'NONE', #1021, #1085, #287, .T. ) ;
#257 = ORIENTED_EDGE ( 'NONE', *, *, #981, .F. ) ;
#258 = CARTESIAN_POINT ( 'NONE',  ( 18.35599130333231344, -2.986079023691411649, 6.500000000000000888 ) ) ;
#259 = ORIENTED_EDGE ( 'NONE', *, *, #683, .F. ) ;
#260 = CARTESIAN_POINT ( 'NONE',  ( 0.000000000000000000, 0.000000000000000000, 0.000000000000000000 ) ) ;
#261 = FACE_OUTER_BOUND ( 'NONE', #276, .T. ) ;
#262 = CYLINDRICAL_SURFACE ( 'NONE', #502, 2.500000000000004441 ) ;
#263 = ORIENTED_EDGE ( 'NONE', *, *, #748, .F. ) ;
#264 = AXIS2_PLACEMENT_3D ( 'NONE', #77, #1325, #88 ) ;
#265 = CONICAL_SURFACE ( 'NONE', #244, 6.999999999999999112, 0.7853981633974431720 ) ;
#266 = DIRECTION ( 'NONE',  ( 0.000000000000000000, 0.000000000000000000, -1.000000000000000000 ) ) ;
#267 = AXIS2_PLACEMENT_3D ( 'NONE', #891, #579, #172 ) ;
#268 = B_SPLINE_CURVE_WITH_KNOTS ( 'NONE', 3,
 ( #497, #1288, #364, #1089 ),
 .UNSPECIFIED., .F., .F.,
 ( 4, 4 ),
 ( 0.006503922416289778345, 0.007730315640286013201 ),
 .UNSPECIFIED. ) ;
#269 = AXIS2_PLACEMENT_3D ( 'NONE', #441, #325, #867 ) ;
#270 = ORIENTED_EDGE ( 'NONE', *, *, #1309, .F. ) ;
#271 = VECTOR ( 'NONE', #1148, 1000.000000000000000 ) ;
#272 = DIRECTION ( 'NONE',  ( 1.000000000000000000, -0.000000000000000000, -0.000000000000000000 ) ) ;
#273 = ORIENTED_EDGE ( 'NONE', *, *, #1316, .F. ) ;
#274 = DIRECTION ( 'NONE',  ( 1.000000000000000000, -0.000000000000000000, -0.000000000000000000 ) ) ;
#275 = EDGE_CURVE ( 'NONE', #1145, #140, #61, .T. ) ;
#276 = EDGE_LOOP ( 'NONE', ( #534, #299 ) ) ;
#277 = DIRECTION ( 'NONE',  ( 0.000000000000000000, 1.000000000000000000, -1.224646799147353207E-16 ) ) ;
#278 = SURFACE_SIDE_STYLE ('',( #508 ) ) ;
#279 = ORIENTED_EDGE ( 'NONE', *, *, #1271, .T. ) ;
#280 = DIRECTION ( 'NONE',  ( 0.000000000000000000, 0.000000000000000000, -1.000000000000000000 ) ) ;
#281 = DIRECTION ( 'NONE',  ( 0.000000000000000000, 0.000000000000000000, -1.000000000000000000 ) ) ;
#282 = VERTEX_POINT ( 'NONE', #601 ) ;
#283 = CARTESIAN_POINT ( 'NONE',  ( 0.000000000000000000, 3.673940397442062826E-16, 3.000000000000002665 ) ) ;
#284 = AXIS2_PLACEMENT_3D ( 'NONE', #1022, #211, #1146 ) ;
#285 = DIRECTION ( 'NONE',  ( -1.000000000000000000, 0.000000000000000000, 0.000000000000000000 ) ) ;
#286 = MECHANICAL_DESIGN_GEOMETRIC_PRESENTATION_REPRESENTATION (  '', ( #854 ), #851 ) ;
#287 = LINE ( 'NONE', #1107, #872 ) ;
#288 = ADVANCED_FACE ( 'NONE', ( #1019 ), #87, .T. ) ;
#289 = ORIENTED_EDGE ( 'NONE', *, *, #768, .F. ) ;
#290 = DIRECTION ( 'NONE',  ( -1.000000000000000000, 0.000000000000000000, 0.000000000000000000 ) ) ;
#291 = DIRECTION ( 'NONE',  ( 0.000000000000000000, 0.000000000000000000, -1.000000000000000000 ) ) ;
#292 = CARTESIAN_POINT ( 'NONE',  ( 12.00000000000000000, -2.598076211353292031, 6.500000000000000888 ) ) ;
#293 = ORIENTED_EDGE ( 'NONE', *, *, #256, .T. ) ;
#294 = EDGE_CURVE ( 'NONE', #1130, #204, #1159, .T. ) ;
#295 = VERTEX_POINT ( 'NONE', #109 ) ;
#296 = CARTESIAN_POINT ( 'NONE',  ( 12.00000000000000000, -2.598076211353296472, -6.500000000000000000 ) ) ;
#297 = CARTESIAN_POINT ( 'NONE',  ( 12.00000000000000000, 0.000000000000000000, 0.000000000000000000 ) ) ;
#298 = DIRECTION ( 'NONE',  ( -1.000000000000000000, 0.000000000000000000, 0.000000000000000000 ) ) ;
#299 = ORIENTED_EDGE ( 'NONE', *, *, #468, .T. ) ;
#300 = ADVANCED_FACE ( 'NONE', ( #519, #925 ), #207, .T. ) ;
#301 = UNCERTAINTY_MEASURE_WITH_UNIT (LENGTH_MEASURE( 1.000000000000000082E-05 ), #1079, 'distance_accuracy_value', 'NONE');
#302 = ORIENTED_EDGE ( 'NONE', *, *, #1218, .T. ) ;
#303 = DIRECTION ( 'NONE',  ( 0.000000000000000000, 0.000000000000000000, -1.000000000000000000 ) ) ;
#304 = CIRCLE ( 'NONE', #138, 4.000000000000000000 ) ;
#305 = DIRECTION ( 'NONE',  ( 0.000000000000000000, 0.000000000000000000, 1.000000000000000000 ) ) ;
#306 = CIRCLE ( 'NONE', #347, 4.000000000000000000 ) ;
#307 = LINE ( 'NONE', #725, #968 ) ;
#308 = AXIS2_PLACEMENT_3D ( 'NONE', #418, #188, #605 ) ;
#309 = CIRCLE ( 'NONE', #655, 2.500000000000003997 ) ;
#310 = CONICAL_SURFACE ( 'NONE', #523, 1.900000000000005906, 0.7853981633974445042 ) ;
#311 = EDGE_LOOP ( 'NONE', ( #646, #1334, #65, #1176 ) ) ;
#312 = ORIENTED_EDGE ( 'NONE', *, *, #942, .T. ) ;
#313 = DIRECTION ( 'NONE',  ( 0.000000000000000000, 0.000000000000000000, -1.000000000000000000 ) ) ;
#314 = DIRECTION ( 'NONE',  ( -0.7071067811865524577, 0.000000000000000000, 0.7071067811865426878 ) ) ;
#315 = EDGE_CURVE ( 'NONE', #669, #375, #240, .T. ) ;
#316 = LINE ( 'NONE', #219, #271 ) ;
#317 = ORIENTED_EDGE ( 'NONE', *, *, #1333, .F. ) ;
#318 = EDGE_LOOP ( 'NONE', ( #640, #1195, #455, #955, #1081, #18, #574, #279 ) ) ;
#319 = FACE_OUTER_BOUND ( 'NONE', #107, .T. ) ;
#320 = EDGE_CURVE ( 'NONE', #549, #47, #989, .T. ) ;
#321 = FACE_OUTER_BOUND ( 'NONE', #63, .T. ) ;
#322 = VERTEX_POINT ( 'NONE', #833 ) ;
#323 = ORIENTED_EDGE ( 'NONE', *, *, #1191, .F. ) ;
#324 =( LENGTH_UNIT ( ) NAMED_UNIT ( * ) SI_UNIT ( .MILLI., .METRE. ) );
#325 = DIRECTION ( 'NONE',  ( 1.000000000000000000, -0.000000000000000000, -0.000000000000000000 ) ) ;
#326 = AXIS2_PLACEMENT_3D ( 'NONE', #602, #1127, #1020 ) ;
#327 = VERTEX_POINT ( 'NONE', #533 ) ;
#328 = EDGE_CURVE ( 'NONE', #322, #927, #316, .T. ) ;
#329 = AXIS2_PLACEMENT_3D ( 'NONE', #1059, #628, #933 ) ;
#330 = VECTOR ( 'NONE', #1230, 1000.000000000000000 ) ;
#331 = ORIENTED_EDGE ( 'NONE', *, *, #585, .F. ) ;
#332 = CIRCLE ( 'NONE', #568, 3.175735931288065750 ) ;
#333 = DIRECTION ( 'NONE',  ( 1.000000000000000000, -0.000000000000000000, -0.000000000000000000 ) ) ;
#334 = FACE_BOUND ( 'NONE', #224, .T. ) ;
#335 = ORIENTED_EDGE ( 'NONE', *, *, #886, .F. ) ;
#336 = ADVANCED_FACE ( 'NONE', ( #321 ), #616, .F. ) ;
#337 = DIRECTION ( 'NONE',  ( 0.000000000000000000, 0.000000000000000000, 1.000000000000000000 ) ) ;
#338 = FACE_OUTER_BOUND ( 'NONE', #181, .T. ) ;
#339 = CARTESIAN_POINT ( 'NONE',  ( 0.000000000000000000, 0.000000000000000000, 0.000000000000000000 ) ) ;
#340 = CARTESIAN_POINT ( 'NONE',  ( 29.50000000000000000, 1.850000000000003864, 0.000000000000000000 ) ) ;
#341 = ORIENTED_EDGE ( 'NONE', *, *, #1044, .F. ) ;
#342 = ADVANCED_FACE ( 'NONE', ( #1231, #115 ), #419, .T. ) ;
#343 = ADVANCED_FACE ( 'NONE', ( #7 ), #439, .T. ) ;
#344 = DIRECTION ( 'NONE',  ( 1.000000000000000000, -0.000000000000000000, -0.000000000000000000 ) ) ;
#345 = CARTESIAN_POINT ( 'NONE',  ( 18.50000000000000000, 2.598076211353313347, 6.500000000000000888 ) ) ;
#346 = VECTOR ( 'NONE', #778, 1000.000000000000114 ) ;
#347 = AXIS2_PLACEMENT_3D ( 'NONE', #1157, #217, #337 ) ;
#348 = CONICAL_SURFACE ( 'NONE', #118, 5.499999999999998224, 0.7853981633974415066 ) ;
#349 = ORIENTED_EDGE ( 'NONE', *, *, #932, .F. ) ;
#350 = AXIS2_PLACEMENT_3D ( 'NONE', #957, #962, #971 ) ;
#351 = CIRCLE ( 'NONE', #122, 6.999999999999999112 ) ;
#352 = DIRECTION ( 'NONE',  ( 0.000000000000000000, 0.000000000000000000, -1.000000000000000000 ) ) ;
#353 = EDGE_CURVE ( 'NONE', #549, #1046, #1152, .T. ) ;
#354 = CARTESIAN_POINT ( 'NONE',  ( 0.000000000000000000, 0.000000000000000000, 0.000000000000000000 ) ) ;
#355 = ORIENTED_EDGE ( 'NONE', *, *, #1203, .T. ) ;
#356 = LINE ( 'NONE', #799, #346 ) ;
#357 = ORIENTED_EDGE ( 'NONE', *, *, #504, .T. ) ;
#358 = FACE_OUTER_BOUND ( 'NONE', #589, .T. ) ;
#359 = DIRECTION ( 'NONE',  ( -1.000000000000000000, 0.000000000000000000, 0.000000000000000000 ) ) ;
#360 = CARTESIAN_POINT ( 'NONE',  ( 17.99999999999999289, 3.741657386773943550, 6.500000000000000000 ) ) ;
#361 = VERTEX_POINT ( 'NONE', #199 ) ;
#362 = CARTESIAN_POINT ( 'NONE',  ( 19.49999999999998934, 7.347880794884121708E-16, 6.000000000000001776 ) ) ;
#363 = VERTEX_POINT ( 'NONE', #714 ) ;
#364 = CARTESIAN_POINT ( 'NONE',  ( 12.31372624326502319, 3.368279220068800761, -6.500000000000000000 ) ) ;
#365 = FACE_OUTER_BOUND ( 'NONE', #710, .T. ) ;
#366 = DIRECTION ( 'NONE',  ( 1.000000000000000000, -0.000000000000000000, -0.000000000000000000 ) ) ;
#367 = CONICAL_SURFACE ( 'NONE', #648, 2.500000000000003997, 0.7853981633974499443 ) ;
#368 = ORIENTED_EDGE ( 'NONE', *, *, #1123, .F. ) ;
#369 = EDGE_CURVE ( 'NONE', #997, #1134, #744, .T. ) ;
#370 = AXIS2_PLACEMENT_3D ( 'NONE', #573, #1254, #1295 ) ;
#371 = CIRCLE ( 'NONE', #918, 3.175735931288065750 ) ;
#372 = CARTESIAN_POINT ( 'NONE',  ( 11.40000000000000036, 0.000000000000000000, -3.000000000000000000 ) ) ;
#373 = CIRCLE ( 'NONE', #1328, 6.999999999999992006 ) ;
#374 = AXIS2_PLACEMENT_3D ( 'NONE', #797, #884, #790 ) ;
#375 = VERTEX_POINT ( 'NONE', #823 ) ;
#376 = CARTESIAN_POINT ( 'NONE',  ( 32.00000000000000000, 3.061616997868387579E-16, 2.500000000000003997 ) ) ;
#377 = ORIENTED_EDGE ( 'NONE', *, *, #748, .T. ) ;
#378 = CARTESIAN_POINT ( 'NONE',  ( 39.00000000000000711, 7.539491415784396189, 6.500000000000000000 ) ) ;
#379 = ORIENTED_EDGE ( 'NONE', *, *, #121, .F. ) ;
#380 = DIRECTION ( 'NONE',  ( 0.000000000000000000, 0.000000000000000000, -1.000000000000000000 ) ) ;
#381 = DIRECTION ( 'NONE',  ( 0.000000000000000000, 0.000000000000000000, -1.000000000000000000 ) ) ;
#382 = ORIENTED_EDGE ( 'NONE', *, *, #222, .F. ) ;
#383 = DIRECTION ( 'NONE',  ( 1.000000000000000000, -0.000000000000000000, -0.000000000000000000 ) ) ;
#384 = DIRECTION ( 'NONE',  ( 0.000000000000000000, 0.000000000000000000, 1.000000000000000000 ) ) ;
#385 = EDGE_CURVE ( 'NONE', #415, #540, #1201, .T. ) ;
#386 = CARTESIAN_POINT ( 'NONE',  ( 18.18627375673498037, -3.368279220068808755, -6.499999999999999112 ) ) ;
#387 = ORIENTED_EDGE ( 'NONE', *, *, #385, .F. ) ;
#388 = DIRECTION ( 'NONE',  ( 1.000000000000000000, -0.000000000000000000, -0.000000000000000000 ) ) ;
#389 = VECTOR ( 'NONE', #904, 1000.000000000000000 ) ;
#390 = CYLINDRICAL_SURFACE ( 'NONE', #456, 3.000000000000000000 ) ;
#391 = VECTOR ( 'NONE', #937, 999.9999999999998863 ) ;
#392 = EDGE_CURVE ( 'NONE', #209, #529, #332, .T. ) ;
#393 = CARTESIAN_POINT ( 'NONE',  ( 12.31372624326502319, -3.368279220068798985, 6.500000000000000888 ) ) ;
#394 = CARTESIAN_POINT ( 'NONE',  ( 12.50000000000001066, 0.000000000000000000, 0.000000000000000000 ) ) ;
#395 = ORIENTED_EDGE ( 'NONE', *, *, #676, .F. ) ;
#396 = DIRECTION ( 'NONE',  ( 1.000000000000000000, -0.000000000000000000, -0.000000000000000000 ) ) ;
#397 = LINE ( 'NONE', #196, #391 ) ;
#398 = DIRECTION ( 'NONE',  ( -0.000000000000000000, 0.000000000000000000, -1.000000000000000000 ) ) ;
#399 = ORIENTED_EDGE ( 'NONE', *, *, #876, .T. ) ;
#400 = EDGE_CURVE ( 'NONE', #438, #917, #424, .T. ) ;
#401 = ORIENTED_EDGE ( 'NONE', *, *, #1075, .F. ) ;
#402 = CARTESIAN_POINT ( 'NONE',  ( 8.300000000000000711, 0.000000000000000000, -4.000000000000000000 ) ) ;
#403 = DIRECTION ( 'NONE',  ( 0.000000000000000000, 0.000000000000000000, -1.000000000000000000 ) ) ;
#404 = CARTESIAN_POINT ( 'NONE',  ( 31.46715728752538155, 0.000000000000000000, -1.967157287525382658 ) ) ;
#405 = ORIENTED_EDGE ( 'NONE', *, *, #538, .T. ) ;
#406 = ORIENTED_EDGE ( 'NONE', *, *, #786, .F. ) ;
#407 = EDGE_CURVE ( 'NONE', #485, #466, #1256, .T. ) ;
#408 = AXIS2_PLACEMENT_3D ( 'NONE', #712, #1131, #303 ) ;
#409 = FACE_OUTER_BOUND ( 'NONE', #4, .T. ) ;
#410 = CIRCLE ( 'NONE', #564, 3.000000000000000000 ) ;
#411 = CARTESIAN_POINT ( 'NONE',  ( 20.00000000000000000, 0.000000000000000000, 0.000000000000000000 ) ) ;
#412 = MECHANICAL_DESIGN_GEOMETRIC_PRESENTATION_REPRESENTATION (  '', ( #1010 ), #592 ) ;
#413 = CIRCLE ( 'NONE', #1091, 3.000000000000002665 ) ;
#414 = CONICAL_SURFACE ( 'NONE', #1181, 7.500000000000001776, 0.7853981633974466137 ) ;
#415 = VERTEX_POINT ( 'NONE', #404 ) ;
#416 = ORIENTED_EDGE ( 'NONE', *, *, #449, .F. ) ;
#417 = FACE_OUTER_BOUND ( 'NONE', #1065, .T. ) ;
#418 = CARTESIAN_POINT ( 'NONE',  ( 8.300000000000000711, 0.000000000000000000, 0.000000000000000000 ) ) ;
#419 = PLANE ( 'NONE',  #677 ) ;
#420 = ORIENTED_EDGE ( 'NONE', *, *, #1038, .T. ) ;
#421 = EDGE_LOOP ( 'NONE', ( #1314, #624, #738, #684 ) ) ;
#422 = CARTESIAN_POINT ( 'NONE',  ( 12.50000000000001066, 3.741657386773943550, -6.500000000000000000 ) ) ;
#423 =( LENGTH_UNIT ( ) NAMED_UNIT ( * ) SI_UNIT ( .MILLI., .METRE. ) );
#424 = LINE ( 'NONE', #1, #785 ) ;
#425 = EDGE_CURVE ( 'NONE', #1240, #327, #307, .T. ) ;
#426 = FACE_OUTER_BOUND ( 'NONE', #489, .T. ) ;
#427 = EDGE_LOOP ( 'NONE', ( #259, #101, #193, #733 ) ) ;
#428 = CARTESIAN_POINT ( 'NONE',  ( 0.000000000000000000, 0.000000000000000000, 0.000000000000000000 ) ) ;
#429 = SURFACE_STYLE_USAGE ( .BOTH. , #977 ) ;
#430 = FACE_OUTER_BOUND ( 'NONE', #1214, .T. ) ;
#431 = CIRCLE ( 'NONE', #1054, 3.600000000000000089 ) ;
#432 = AXIS2_PLACEMENT_3D ( 'NONE', #339, #1069, #352 ) ;
#433 = EDGE_CURVE ( 'NONE', #375, #466, #203, .T. ) ;
#434 = SURFACE_STYLE_FILL_AREA ( #144 ) ;
#435 = AXIS2_PLACEMENT_3D ( 'NONE', #722, #913, #403 ) ;
#436 = VECTOR ( 'NONE', #586, 1000.000000000000000 ) ;
#437 = AXIS2_PLACEMENT_3D ( 'NONE', #815, #290, #1047 ) ;
#438 = VERTEX_POINT ( 'NONE', #864 ) ;
#439 = CONICAL_SURFACE ( 'NONE', #37, 2.800000000000007372, 0.7853981633974482790 ) ;
#440 = DIRECTION ( 'NONE',  ( 0.000000000000000000, 0.000000000000000000, -1.000000000000000000 ) ) ;
#441 = CARTESIAN_POINT ( 'NONE',  ( 0.000000000000000000, 0.000000000000000000, 0.000000000000000000 ) ) ;
#442 =( NAMED_UNIT ( * ) PLANE_ANGLE_UNIT ( ) SI_UNIT ( $, .RADIAN. ) );
#443 = LINE ( 'NONE', #551, #436 ) ;
#444 = EDGE_LOOP ( 'NONE', ( #1221, #1202, #1185, #69 ) ) ;
#445 = ADVANCED_FACE ( 'NONE', ( #852 ), #663, .T. ) ;
#446 = DIRECTION ( 'NONE',  ( 0.000000000000000000, 0.000000000000000000, -1.000000000000000000 ) ) ;
#447 = CARTESIAN_POINT ( 'NONE',  ( 17.99999999999999289, 3.741657386773943550, 6.500000000000000000 ) ) ;
#448 = VERTEX_POINT ( 'NONE', #860 ) ;
#449 = EDGE_CURVE ( 'NONE', #1130, #1085, #870, .T. ) ;
#450 = DIRECTION ( 'NONE',  ( 0.000000000000000000, 0.000000000000000000, 1.000000000000000000 ) ) ;
#451 = FACE_OUTER_BOUND ( 'NONE', #311, .T. ) ;
#452 = B_SPLINE_CURVE_WITH_KNOTS ( 'NONE', 3,
 ( #150, #569, #258, #591 ),
 .UNSPECIFIED., .F., .F.,
 ( 4, 4 ),
 ( 1.545027413697845932E-06, 0.001240642113537696739 ),
 .UNSPECIFIED. ) ;
#453 = CARTESIAN_POINT ( 'NONE',  ( 17.99999999999999289, -3.741657386773945770, -6.499999999999999112 ) ) ;
#454 = CIRCLE ( 'NONE', #479, 2.500000000000004441 ) ;
#455 = ORIENTED_EDGE ( 'NONE', *, *, #171, .T. ) ;
#456 = AXIS2_PLACEMENT_3D ( 'NONE', #1141, #108, #632 ) ;
#457 = CARTESIAN_POINT ( 'NONE',  ( 1.000000000000004441, 0.000000000000000000, 0.000000000000000000 ) ) ;
#458 = VERTEX_POINT ( 'NONE', #767 ) ;
#459 = SURFACE_SIDE_STYLE ('',( #543 ) ) ;
#460 = DIRECTION ( 'NONE',  ( 0.000000000000000000, 0.000000000000000000, -1.000000000000000000 ) ) ;
#461 = SURFACE_SIDE_STYLE ('',( #960 ) ) ;
#462 = ORIENTED_EDGE ( 'NONE', *, *, #121, .T. ) ;
#463 = PLANE ( 'NONE',  #142 ) ;
#464 = PRODUCT_DEFINITION_SHAPE ( 'NONE', 'NONE',  #3 ) ;
#465 = B_SPLINE_CURVE_WITH_KNOTS ( 'NONE', 3,
 ( #1014, #1092, #386, #1219 ),
 .UNSPECIFIED., .F., .F.,
 ( 4, 4 ),
 ( 0.006503922416289794825, 0.007730315640286011467 ),
 .UNSPECIFIED. ) ;
#466 = VERTEX_POINT ( 'NONE', #1184 ) ;
#467 = DIRECTION ( 'NONE',  ( 1.000000000000000000, -0.000000000000000000, -0.000000000000000000 ) ) ;
#468 = EDGE_CURVE ( 'NONE', #1149, #58, #782, .T. ) ;
#469 = CARTESIAN_POINT ( 'NONE',  ( 0.000000000000000000, 0.000000000000000000, 0.000000000000000000 ) ) ;
#470 = ORIENTED_EDGE ( 'NONE', *, *, #294, .T. ) ;
#471 = CARTESIAN_POINT ( 'NONE',  ( 29.50000000000000000, 2.755455298081549215E-16, 2.250000000000003997 ) ) ;
#472 = ORIENTED_EDGE ( 'NONE', *, *, #84, .T. ) ;
#473 = DIRECTION ( 'NONE',  ( 0.000000000000000000, -1.000000000000000000, 0.000000000000000000 ) ) ;
#474 = DIRECTION ( 'NONE',  ( 1.000000000000000000, -0.000000000000000000, -0.000000000000000000 ) ) ;
#475 = DIRECTION ( 'NONE',  ( 0.000000000000000000, 0.000000000000000000, -1.000000000000000000 ) ) ;
#476 = EDGE_CURVE ( 'NONE', #529, #209, #371, .T. ) ;
#477 = CONICAL_SURFACE ( 'NONE', #14, 4.000000000000000000, 0.7853981633974500554 ) ;
#478 = VERTEX_POINT ( 'NONE', #1167 ) ;
#479 = AXIS2_PLACEMENT_3D ( 'NONE', #1213, #607, #190 ) ;
#480 = CIRCLE ( 'NONE', #652, 2.999999999999992450 ) ;
#481 = LINE ( 'NONE', #1186, #1033 ) ;
#482 = AXIS2_PLACEMENT_3D ( 'NONE', #218, #1125, #831 ) ;
#483 = AXIS2_PLACEMENT_3D ( 'NONE', #528, #950, #520 ) ;
#484 = VECTOR ( 'NONE', #806, 1000.000000000000000 ) ;
#485 = VERTEX_POINT ( 'NONE', #1073 ) ;
#486 = CARTESIAN_POINT ( 'NONE',  ( 1.000000000000004441, 0.000000000000000000, -4.000000000000000000 ) ) ;
#487 = CARTESIAN_POINT ( 'NONE',  ( 20.00000000000000000, 0.000000000000000000, 0.000000000000000000 ) ) ;
#488 = FILL_AREA_STYLE ('',( #892 ) ) ;
#489 = EDGE_LOOP ( 'NONE', ( #779, #835, #236, #420 ) ) ;
#490 = ADVANCED_FACE ( 'NONE', ( #253 ), #1174, .T. ) ;
#491 = CYLINDRICAL_SURFACE ( 'NONE', #201, 3.000000000000002665 ) ;
#492 = DIRECTION ( 'NONE',  ( -1.000000000000000000, 0.000000000000000000, 0.000000000000000000 ) ) ;
#493 = CARTESIAN_POINT ( 'NONE',  ( 0.000000000000000000, 0.000000000000000000, 0.000000000000000000 ) ) ;
#494 = ORIENTED_EDGE ( 'NONE', *, *, #558, .F. ) ;
#495 = CARTESIAN_POINT ( 'NONE',  ( 29.50000000000000000, 0.000000000000000000, -2.250000000000003997 ) ) ;
#496 = ADVANCED_FACE ( 'NONE', ( #451 ), #94, .F. ) ;
#497 = CARTESIAN_POINT ( 'NONE',  ( 12.00000000000000000, 2.598076211353294696, -6.500000000000000000 ) ) ;
#498 = DIRECTION ( 'NONE',  ( 0.000000000000000000, 0.000000000000000000, -1.000000000000000000 ) ) ;
#499 = LINE ( 'NONE', #693, #389 ) ;
#500 = ORIENTED_EDGE ( 'NONE', *, *, #558, .T. ) ;
#501 = LINE ( 'NONE', #625, #484 ) ;
#502 = AXIS2_PLACEMENT_3D ( 'NONE', #428, #878, #440 ) ;
#503 = CARTESIAN_POINT ( 'NONE',  ( 29.50000000000000000, 0.000000000000000000, 0.000000000000000000 ) ) ;
#504 = EDGE_CURVE ( 'NONE', #1015, #1134, #945, .T. ) ;
#505 = AXIS2_PLACEMENT_3D ( 'NONE', #125, #954, #24 ) ;
#506 = DIRECTION ( 'NONE',  ( -0.000000000000000000, -1.000000000000000000, -0.000000000000000000 ) ) ;
#507 = ADVANCED_FACE ( 'NONE', ( #639 ), #1113, .T. ) ;
#508 = SURFACE_STYLE_FILL_AREA ( #488 ) ;
#509 = ORIENTED_EDGE ( 'NONE', *, *, #369, .F. ) ;
#510 = PRODUCT_DEFINITION_CONTEXT ( 'detailed design', #1118, 'design' ) ;
#511 = DIRECTION ( 'NONE',  ( 0.000000000000000000, 0.000000000000000000, -1.000000000000000000 ) ) ;
#512 = CARTESIAN_POINT ( 'NONE',  ( 1.000000000000004441, 0.000000000000000000, 0.000000000000000000 ) ) ;
#513 = CARTESIAN_POINT ( 'NONE',  ( 12.31289182655052450, 3.366606665713382185, 6.500000000000000000 ) ) ;
#514 = ADVANCED_FACE ( 'NONE', ( #430 ), #152, .T. ) ;
#515 = EDGE_LOOP ( 'NONE', ( #1247, #302 ) ) ;
#516 = VERTEX_POINT ( 'NONE', #690 ) ;
#517 = DIRECTION ( 'NONE',  ( -1.000000000000000000, 0.000000000000000000, 0.000000000000000000 ) ) ;
#518 = DIRECTION ( 'NONE',  ( 1.000000000000000000, -0.000000000000000000, -0.000000000000000000 ) ) ;
#519 = FACE_OUTER_BOUND ( 'NONE', #857, .T. ) ;
#520 = DIRECTION ( 'NONE',  ( 0.000000000000000000, 0.000000000000000000, -1.000000000000000000 ) ) ;
#521 = EDGE_LOOP ( 'NONE', ( #1169, #33 ) ) ;
#522 = CARTESIAN_POINT ( 'NONE',  ( 9.548528137423877737, 0.000000000000000000, -3.600000000000000089 ) ) ;
#523 = AXIS2_PLACEMENT_3D ( 'NONE', #49, #559, #1103 ) ;
#524 = DIRECTION ( 'NONE',  ( -1.000000000000000000, 0.000000000000000000, 0.000000000000000000 ) ) ;
#525 =( GEOMETRIC_REPRESENTATION_CONTEXT ( 3 ) GLOBAL_UNCERTAINTY_ASSIGNED_CONTEXT ( ( #1227 ) ) GLOBAL_UNIT_ASSIGNED_CONTEXT ( ( #324, #1084, #26 ) ) REPRESENTATION_CONTEXT ( 'NONE', 'WORKASPACE' ) );
#526 = DIRECTION ( 'NONE',  ( 1.000000000000000000, -0.000000000000000000, -0.000000000000000000 ) ) ;
#527 = CIRCLE ( 'NONE', #1138, 0.5999999999999998668 ) ;
#528 = CARTESIAN_POINT ( 'NONE',  ( 20.00000000000000000, 0.000000000000000000, 0.000000000000000000 ) ) ;
#529 = VERTEX_POINT ( 'NONE', #773 ) ;
#530 = DIRECTION ( 'NONE',  ( 0.000000000000000000, 0.000000000000000000, 1.000000000000000000 ) ) ;
#531 = EDGE_CURVE ( 'NONE', #896, #917, #410, .T. ) ;
#532 = CARTESIAN_POINT ( 'NONE',  ( 9.300000000000025580, 0.000000000000000000, 3.000000000000000000 ) ) ;
#533 = CARTESIAN_POINT ( 'NONE',  ( 17.99999999999999289, 3.741657386773943550, -6.500000000000000888 ) ) ;
#534 = ORIENTED_EDGE ( 'NONE', *, *, #1072, .T. ) ;
#535 = ORIENTED_EDGE ( 'NONE', *, *, #686, .F. ) ;
#536 = CARTESIAN_POINT ( 'NONE',  ( 18.18710817344947728, 3.366606665713388402, -6.500000000000000000 ) ) ;
#537 = FACE_OUTER_BOUND ( 'NONE', #151, .T. ) ;
#538 = EDGE_CURVE ( 'NONE', #89, #516, #1196, .T. ) ;
#539 =( NAMED_UNIT ( * ) SI_UNIT ( $, .STERADIAN. ) SOLID_ANGLE_UNIT ( ) );
#540 = VERTEX_POINT ( 'NONE', #1312 ) ;
#541 = SURFACE_SIDE_STYLE ('',( #133 ) ) ;
#542 = TOROIDAL_SURFACE ( 'NONE', #1299, 3.600000000000000089, 0.5999999999999999778 ) ;
#543 = SURFACE_STYLE_FILL_AREA ( #985 ) ;
#544 = AXIS2_PLACEMENT_3D ( 'NONE', #580, #1001, #834 ) ;
#545 = ADVANCED_FACE ( 'NONE', ( #358 ), #139, .F. ) ;
#546 = DIRECTION ( 'NONE',  ( 0.000000000000000000, 0.000000000000000000, -1.000000000000000000 ) ) ;
#547 = CIRCLE ( 'NONE', #308, 4.000000000000000000 ) ;
#548 = PRESENTATION_LAYER_ASSIGNMENT (  '', '', ( #247 ) ) ;
#549 = VERTEX_POINT ( 'NONE', #577 ) ;
#550 = DIRECTION ( 'NONE',  ( 1.000000000000000000, -0.000000000000000000, -0.000000000000000000 ) ) ;
#551 = CARTESIAN_POINT ( 'NONE',  ( 0.000000000000000000, 7.347880794884121708E-16, 6.000000000000001776 ) ) ;
#552 = EDGE_CURVE ( 'NONE', #1021, #557, #1177, .T. ) ;
#553 = EDGE_LOOP ( 'NONE', ( #52, #745, #1122, #935 ) ) ;
#554 = SURFACE_STYLE_FILL_AREA ( #1265 ) ;
#555 = DIRECTION ( 'NONE',  ( 1.000000000000000000, 0.000000000000000000, -0.000000000000000000 ) ) ;
#556 = DIRECTION ( 'NONE',  ( -0.7071067811865503483, 0.000000000000000000, 0.7071067811865446862 ) ) ;
#557 = VERTEX_POINT ( 'NONE', #66 ) ;
#558 = EDGE_CURVE ( 'NONE', #623, #361, #1028, .T. ) ;
#559 = DIRECTION ( 'NONE',  ( -1.000000000000000000, 0.000000000000000000, 0.000000000000000000 ) ) ;
#560 = ORIENTED_EDGE ( 'NONE', *, *, #476, .F. ) ;
#561 = DIRECTION ( 'NONE',  ( 0.000000000000000000, 0.000000000000000000, -1.000000000000000000 ) ) ;
#562 = DIRECTION ( 'NONE',  ( 0.000000000000000000, -1.000000000000000000, 1.065013094915147714E-16 ) ) ;
#563 = MECHANICAL_DESIGN_GEOMETRIC_PRESENTATION_REPRESENTATION (  '', ( #1008 ), #916 ) ;
#564 = AXIS2_PLACEMENT_3D ( 'NONE', #795, #492, #1100 ) ;
#565 = ORIENTED_EDGE ( 'NONE', *, *, #637, .T. ) ;
#566 = AXIS2_PLACEMENT_3D ( 'NONE', #1070, #137, #756 ) ;
#567 = AXIS2_PLACEMENT_3D ( 'NONE', #816, #1151, #291 ) ;
#568 = AXIS2_PLACEMENT_3D ( 'NONE', #1037, #931, #23 ) ;
#569 = CARTESIAN_POINT ( 'NONE',  ( 18.18710817344947728, -3.366606665713386626, 6.500000000000000888 ) ) ;
#570 = ORIENTED_EDGE ( 'NONE', *, *, #15, .T. ) ;
#571 = DIRECTION ( 'NONE',  ( -1.000000000000000000, 0.000000000000000000, 0.000000000000000000 ) ) ;
#572 = CARTESIAN_POINT ( 'NONE',  ( 9.548528137423877737, 4.408728476930471151E-16, 3.600000000000000089 ) ) ;
#573 = CARTESIAN_POINT ( 'NONE',  ( 31.18431457505076310, 0.000000000000000000, 0.000000000000000000 ) ) ;
#574 = ORIENTED_EDGE ( 'NONE', *, *, #79, .T. ) ;
#575 = CARTESIAN_POINT ( 'NONE',  ( 20.00000000000000000, 0.000000000000000000, 0.000000000000000000 ) ) ;
#576 = ORIENTED_EDGE ( 'NONE', *, *, #1289, .F. ) ;
#577 = CARTESIAN_POINT ( 'NONE',  ( 20.00000000000000000, 0.000000000000000000, -3.000000000000002220 ) ) ;
#578 = ADVANCED_FACE ( 'NONE', ( #789 ), #611, .T. ) ;
#579 = DIRECTION ( 'NONE',  ( -1.000000000000000000, 0.000000000000000000, 0.000000000000000000 ) ) ;
#580 = CARTESIAN_POINT ( 'NONE',  ( 0.000000000000000000, 0.000000000000000000, 0.000000000000000000 ) ) ;
#581 = ORIENTED_EDGE ( 'NONE', *, *, #1333, .T. ) ;
#582 = CARTESIAN_POINT ( 'NONE',  ( 0.000000000000000000, 4.286263797015731665E-16, 2.999999999999992450 ) ) ;
#583 = ORIENTED_EDGE ( 'NONE', *, *, #711, .T. ) ;
#584 = FACE_OUTER_BOUND ( 'NONE', #618, .T. ) ;
#585 = EDGE_CURVE ( 'NONE', #990, #89, #480, .T. ) ;
#586 = DIRECTION ( 'NONE',  ( 1.000000000000000000, -0.000000000000000000, -0.000000000000000000 ) ) ;
#587 = CARTESIAN_POINT ( 'NONE',  ( 0.000000000000000000, 3.741657386773943550, 6.500000000000000888 ) ) ;
#588 = EDGE_CURVE ( 'NONE', #896, #1187, #1263, .T. ) ;
#589 = EDGE_LOOP ( 'NONE', ( #169, #1291, #154, #1088 ) ) ;
#590 = AXIS2_PLACEMENT_3D ( 'NONE', #902, #164, #1211 ) ;
#591 = CARTESIAN_POINT ( 'NONE',  ( 18.50000000000000000, -2.598076211353311571, 6.500000000000000888 ) ) ;
#592 =( GEOMETRIC_REPRESENTATION_CONTEXT ( 3 ) GLOBAL_UNCERTAINTY_ASSIGNED_CONTEXT ( ( #1335 ) ) GLOBAL_UNIT_ASSIGNED_CONTEXT ( ( #749, #1272, #1160 ) ) REPRESENTATION_CONTEXT ( 'NONE', 'WORKASPACE' ) );
#593 = AXIS2_PLACEMENT_3D ( 'NONE', #487, #474, #281 ) ;
#594 = CIRCLE ( 'NONE', #940, 6.000000000000001776 ) ;
#595 = CARTESIAN_POINT ( 'NONE',  ( 11.40000000000000036, 0.000000000000000000, 3.600000000000000089 ) ) ;
#596 = DIRECTION ( 'NONE',  ( 0.000000000000000000, 0.000000000000000000, -1.000000000000000000 ) ) ;
#597 = ORIENTED_EDGE ( 'NONE', *, *, #238, .T. ) ;
#598 = EDGE_CURVE ( 'NONE', #363, #1085, #72, .T. ) ;
#599 = DIRECTION ( 'NONE',  ( 1.000000000000000000, -0.000000000000000000, -0.000000000000000000 ) ) ;
#600 = LINE ( 'NONE', #1018, #963 ) ;
#601 = CARTESIAN_POINT ( 'NONE',  ( 31.46715728752538155, 2.735344936727868951E-16, 1.967157287525382658 ) ) ;
#602 = CARTESIAN_POINT ( 'NONE',  ( 29.89999999999999858, 0.000000000000000000, 0.000000000000000000 ) ) ;
#603 = EDGE_LOOP ( 'NONE', ( #980, #494, #662, #1144 ) ) ;
#604 = FACE_OUTER_BOUND ( 'NONE', #78, .T. ) ;
#605 = DIRECTION ( 'NONE',  ( 0.000000000000000000, 0.000000000000000000, -1.000000000000000000 ) ) ;
#606 = DIRECTION ( 'NONE',  ( 0.000000000000000000, 0.000000000000000000, -1.000000000000000000 ) ) ;
#607 = DIRECTION ( 'NONE',  ( -1.000000000000000000, 0.000000000000000000, 0.000000000000000000 ) ) ;
#608 = EDGE_LOOP ( 'NONE', ( #1096, #167, #565, #887, #951, #581, #818, #462 ) ) ;
#609 = ORIENTED_EDGE ( 'NONE', *, *, #392, .F. ) ;
#610 = DIRECTION ( 'NONE',  ( 1.000000000000000000, -0.000000000000000000, -0.000000000000000000 ) ) ;
#611 = CONICAL_SURFACE ( 'NONE', #894, 6.999999999999999112, 0.7853981633974431720 ) ;
#612 = CIRCLE ( 'NONE', #807, 3.600000000000000089 ) ;
#613 = CARTESIAN_POINT ( 'NONE',  ( 20.00000000000000000, 0.000000000000000000, 5.499999999999998224 ) ) ;
#614 = ADVANCED_FACE ( 'NONE', ( #584 ), #348, .T. ) ;
#615 = CIRCLE ( 'NONE', #267, 3.000000000000000000 ) ;
#616 = TOROIDAL_SURFACE ( 'NONE', #855, 2.250000000000003997, 0.4000000000000000222 ) ;
#617 = DIRECTION ( 'NONE',  ( 0.000000000000000000, 0.000000000000000000, -1.000000000000000000 ) ) ;
#618 = EDGE_LOOP ( 'NONE', ( #619, #229, #824, #688 ) ) ;
#619 = ORIENTED_EDGE ( 'NONE', *, *, #22, .F. ) ;
#620 = DIRECTION ( 'NONE',  ( 1.000000000000000000, -0.000000000000000000, -0.000000000000000000 ) ) ;
#621 = DIRECTION ( 'NONE',  ( 0.000000000000000000, 0.000000000000000000, -1.000000000000000000 ) ) ;
#622 = DIRECTION ( 'NONE',  ( 0.000000000000000000, 0.000000000000000000, -1.000000000000000000 ) ) ;
#623 = VERTEX_POINT ( 'NONE', #81 ) ;
#624 = ORIENTED_EDGE ( 'NONE', *, *, #1275, .T. ) ;
#625 = CARTESIAN_POINT ( 'NONE',  ( 0.000000000000000000, -3.741657386773941774, 6.500000000000000888 ) ) ;
#626 = CARTESIAN_POINT ( 'NONE',  ( 20.00000000000000000, 6.735557395310440051E-16, -5.499999999999998224 ) ) ;
#627 = DIRECTION ( 'NONE',  ( -0.000000000000000000, 0.000000000000000000, -1.000000000000000000 ) ) ;
#628 = DIRECTION ( 'NONE',  ( -1.000000000000000000, 0.000000000000000000, 0.000000000000000000 ) ) ;
#629 = EDGE_CURVE ( 'NONE', #1149, #1046, #600, .T. ) ;
#630 = ORIENTED_EDGE ( 'NONE', *, *, #1142, .F. ) ;
#631 = DIRECTION ( 'NONE',  ( 0.000000000000000000, -1.000000000000000000, 1.597519642372721818E-16 ) ) ;
#632 = DIRECTION ( 'NONE',  ( 0.000000000000000000, 0.000000000000000000, -1.000000000000000000 ) ) ;
#633 = DIRECTION ( 'NONE',  ( 0.000000000000000000, 0.000000000000000000, 1.000000000000000000 ) ) ;
#634 = CONICAL_SURFACE ( 'NONE', #721, 4.000000000000000000, 0.7853981633974500554 ) ;
#635 = ORIENTED_EDGE ( 'NONE', *, *, #425, .F. ) ;
#636 = ORIENTED_EDGE ( 'NONE', *, *, #981, .T. ) ;
#637 = EDGE_CURVE ( 'NONE', #466, #1240, #268, .T. ) ;
#638 = DIRECTION ( 'NONE',  ( 0.000000000000000000, 0.000000000000000000, 1.000000000000000000 ) ) ;
#639 = FACE_OUTER_BOUND ( 'NONE', #772, .T. ) ;
#640 = ORIENTED_EDGE ( 'NONE', *, *, #315, .T. ) ;
#641 = ORIENTED_EDGE ( 'NONE', *, *, #552, .T. ) ;
#642 = CARTESIAN_POINT ( 'NONE',  ( 0.000000000000000000, 0.000000000000000000, -6.000000000000001776 ) ) ;
#643 = LINE ( 'NONE', #1183, #119 ) ;
#644 = ADVANCED_FACE ( 'NONE', ( #883 ), #265, .T. ) ;
#645 = LINE ( 'NONE', #42, #1012 ) ;
#646 = ORIENTED_EDGE ( 'NONE', *, *, #165, .F. ) ;
#647 = CARTESIAN_POINT ( 'NONE',  ( 12.00000000000000000, 0.000000000000000000, 0.000000000000000000 ) ) ;
#648 = AXIS2_PLACEMENT_3D ( 'NONE', #1223, #1242, #102 ) ;
#649 = FILL_AREA_STYLE_COLOUR ( '', #672 ) ;
#650 = ADVANCED_FACE ( 'NONE', ( #212 ), #1009, .F. ) ;
#651 = COLOUR_RGB ( '',0.6470588235294117974, 0.6196078431372549211, 0.5882352941176470784 ) ;
#652 = AXIS2_PLACEMENT_3D ( 'NONE', #260, #285, #1216 ) ;
#653 = CARTESIAN_POINT ( 'NONE',  ( 29.50000000000000000, 0.000000000000000000, 2.800000000000007372 ) ) ;
#654 = TOROIDAL_SURFACE ( 'NONE', #567, 3.600000000000000089, 0.5999999999999999778 ) ;
#655 = AXIS2_PLACEMENT_3D ( 'NONE', #54, #761, #460 ) ;
#656 = AXIS2_PLACEMENT_3D ( 'NONE', #1097, #996, #64 ) ;
#657 = ORIENTED_EDGE ( 'NONE', *, *, #195, .T. ) ;
#658 = CYLINDRICAL_SURFACE ( 'NONE', #269, 2.500000000000004441 ) ;
#659 = ADVANCED_FACE ( 'NONE', ( #729 ), #654, .F. ) ;
#660 = DIRECTION ( 'NONE',  ( 0.000000000000000000, 0.000000000000000000, -1.000000000000000000 ) ) ;
#661 = ORIENTED_EDGE ( 'NONE', *, *, #1098, .T. ) ;
#662 = ORIENTED_EDGE ( 'NONE', *, *, #171, .F. ) ;
#663 = CYLINDRICAL_SURFACE ( 'NONE', #432, 6.000000000000001776 ) ;
#664 = FILL_AREA_STYLE_COLOUR ( '', #141 ) ;
#665 = LINE ( 'NONE', #587, #781 ) ;
#666 = ORIENTED_EDGE ( 'NONE', *, *, #768, .T. ) ;
#667 = EDGE_CURVE ( 'NONE', #252, #941, #734, .T. ) ;
#668 = DIRECTION ( 'NONE',  ( 0.000000000000000000, 0.000000000000000000, -1.000000000000000000 ) ) ;
#669 = VERTEX_POINT ( 'NONE', #1147 ) ;
#670 = PRESENTATION_STYLE_ASSIGNMENT (( #147 ) ) ;
#671 = CARTESIAN_POINT ( 'NONE',  ( 12.50000000000001066, 0.000000000000000000, 0.000000000000000000 ) ) ;
#672 = COLOUR_RGB ( '',0.6470588235294117974, 0.6196078431372549211, 0.5882352941176470784 ) ;
#673 = AXIS2_PLACEMENT_3D ( 'NONE', #595, #473, #1206 ) ;
#674 = VECTOR ( 'NONE', #38, 1000.000000000000000 ) ;
#675 = COLOUR_RGB ( '',0.6470588235294117974, 0.6196078431372549211, 0.5882352941176470784 ) ;
#676 = EDGE_CURVE ( 'NONE', #1226, #1156, #1331, .T. ) ;
#677 = AXIS2_PLACEMENT_3D ( 'NONE', #189, #1332, #398 ) ;
#678 = CARTESIAN_POINT ( 'NONE',  ( 29.89999999999999858, 0.000000000000000000, -1.850000000000004086 ) ) ;
#679 = ORIENTED_EDGE ( 'NONE', *, *, #1282, .T. ) ;
#680 = DIRECTION ( 'NONE',  ( 0.000000000000000000, 1.224646799147351975E-16, 1.000000000000000000 ) ) ;
#681 = ORIENTED_EDGE ( 'NONE', *, *, #531, .F. ) ;
#682 = CARTESIAN_POINT ( 'NONE',  ( 12.00000000000000000, 4.408728476930471151E-16, -3.600000000000000089 ) ) ;
#683 = EDGE_CURVE ( 'NONE', #282, #204, #397, .T. ) ;
#684 = ORIENTED_EDGE ( 'NONE', *, *, #1171, .T. ) ;
#685 = DIRECTION ( 'NONE',  ( 1.000000000000000000, -0.000000000000000000, -0.000000000000000000 ) ) ;
#686 = EDGE_CURVE ( 'NONE', #458, #438, #895, .T. ) ;
#687 = CARTESIAN_POINT ( 'NONE',  ( 0.000000000000000000, 0.000000000000000000, 0.000000000000000000 ) ) ;
#688 = ORIENTED_EDGE ( 'NONE', *, *, #667, .F. ) ;
#689 = DIRECTION ( 'NONE',  ( 0.7071067811865463515, 0.000000000000000000, -0.7071067811865487940 ) ) ;
#690 = CARTESIAN_POINT ( 'NONE',  ( 1.000000000000004441, 0.000000000000000000, -4.000000000000000000 ) ) ;
#691 = EDGE_CURVE ( 'NONE', #485, #19, #373, .T. ) ;
#692 = FACE_OUTER_BOUND ( 'NONE', #746, .T. ) ;
#693 = CARTESIAN_POINT ( 'NONE',  ( 18.50000000000000000, 6.000000000000000888, -6.500000000000000888 ) ) ;
#694 = AXIS2_PLACEMENT_3D ( 'NONE', #575, #787, #266 ) ;
#695 = ORIENTED_EDGE ( 'NONE', *, *, #294, .F. ) ;
#696 = CIRCLE ( 'NONE', #48, 1.850000000000004086 ) ;
#697 = AXIS2_PLACEMENT_3D ( 'NONE', #1105, #1303, #170 ) ;
#698 = LINE ( 'NONE', #168, #825 ) ;
#699 = PRESENTATION_LAYER_ASSIGNMENT (  '', '', ( #1010 ) ) ;
#700 = CLOSED_SHELL ( 'NONE', ( #208, #614, #507, #1023, #545, #1114, #336, #650, #839, #156, #163, #914, #445, #753, #111, #794, #143, #644, #1296, #27, #514, #29, #731, #934, #758, #300, #232, #342, #288, #104, #1243, #1016, #1173, #490, #578, #1080, #924, #1165, #1062, #496, #659, #856, #736, #974, #1154, #343 ) ) ;
#701 = DIRECTION ( 'NONE',  ( -0.7071067811865503483, 8.659560562354899578E-17, -0.7071067811865446862 ) ) ;
#702 = DIRECTION ( 'NONE',  ( 0.000000000000000000, 1.000000000000000000, 1.224646799147353207E-16 ) ) ;
#703 = ORIENTED_EDGE ( 'NONE', *, *, #320, .T. ) ;
#704 = CARTESIAN_POINT ( 'NONE',  ( 38.40000000000000568, 0.000000000000000000, -2.500000000000004441 ) ) ;
#705 = CARTESIAN_POINT ( 'NONE',  ( 18.50000000000000000, 0.000000000000000000, 0.000000000000000000 ) ) ;
#706 = DIRECTION ( 'NONE',  ( 1.000000000000000000, -0.000000000000000000, -0.000000000000000000 ) ) ;
#707 = DIRECTION ( 'NONE',  ( 1.000000000000000000, -0.000000000000000000, -0.000000000000000000 ) ) ;
#708 = EDGE_LOOP ( 'NONE', ( #220, #1279, #120, #263 ) ) ;
#709 = UNCERTAINTY_MEASURE_WITH_UNIT (LENGTH_MEASURE( 1.000000000000000082E-05 ), #1319, 'distance_accuracy_value', 'NONE');
#710 = EDGE_LOOP ( 'NONE', ( #355, #1205, #1261, #905 ) ) ;
#711 = EDGE_CURVE ( 'NONE', #1052, #813, #547, .T. ) ;
#712 = CARTESIAN_POINT ( 'NONE',  ( 18.50000000000000000, 0.000000000000000000, 0.000000000000000000 ) ) ;
#713 = DIRECTION ( 'NONE',  ( 0.000000000000000000, 0.000000000000000000, -1.000000000000000000 ) ) ;
#714 = CARTESIAN_POINT ( 'NONE',  ( 38.40000000000000568, 3.061616997868388072E-16, 2.500000000000004441 ) ) ;
#715 = ORIENTED_EDGE ( 'NONE', *, *, #1036, .T. ) ;
#716 = AXIS2_PLACEMENT_3D ( 'NONE', #113, #620, #90 ) ;
#717 = EDGE_LOOP ( 'NONE', ( #727, #73, #879, #777 ) ) ;
#718 = CARTESIAN_POINT ( 'NONE',  ( 12.14400869666768656, -2.986079023691403211, -6.499999999999999112 ) ) ;
#719 = CIRCLE ( 'NONE', #1239, 1.900000000000005906 ) ;
#720 = EDGE_CURVE ( 'NONE', #990, #295, #16, .T. ) ;
#721 = AXIS2_PLACEMENT_3D ( 'NONE', #512, #1048, #930 ) ;
#722 = CARTESIAN_POINT ( 'NONE',  ( 0.000000000000000000, 0.000000000000000000, 0.000000000000000000 ) ) ;
#723 = CIRCLE ( 'NONE', #223, 0.4000000000000001887 ) ;
#724 = CIRCLE ( 'NONE', #284, 4.000000000000000000 ) ;
#725 = CARTESIAN_POINT ( 'NONE',  ( 0.000000000000000000, 3.741657386773943550, -6.500000000000000888 ) ) ;
#726 = ORIENTED_EDGE ( 'NONE', *, *, #868, .T. ) ;
#727 = ORIENTED_EDGE ( 'NONE', *, *, #468, .F. ) ;
#728 = DIRECTION ( 'NONE',  ( 0.000000000000000000, 0.000000000000000000, -1.000000000000000000 ) ) ;
#729 = FACE_OUTER_BOUND ( 'NONE', #1064, .T. ) ;
#730 = CARTESIAN_POINT ( 'NONE',  ( 12.14400869666768834, 2.986079023691400547, 6.500000000000000888 ) ) ;
#731 = ADVANCED_FACE ( 'NONE', ( #1249 ), #390, .T. ) ;
#732 = ORIENTED_EDGE ( 'NONE', *, *, #538, .F. ) ;
#733 = ORIENTED_EDGE ( 'NONE', *, *, #84, .F. ) ;
#734 = LINE ( 'NONE', #613, #964 ) ;
#735 = CARTESIAN_POINT ( 'NONE',  ( 29.50000000000000000, 0.000000000000000000, 0.000000000000000000 ) ) ;
#736 = ADVANCED_FACE ( 'NONE', ( #409 ), #634, .T. ) ;
#737 = ORIENTED_EDGE ( 'NONE', *, *, #79, .F. ) ;
#738 = ORIENTED_EDGE ( 'NONE', *, *, #776, .T. ) ;
#739 = PRESENTATION_STYLE_ASSIGNMENT (( #429 ) ) ;
#740 = APPLICATION_CONTEXT ( 'automotive_design' ) ;
#741 = DIRECTION ( 'NONE',  ( -1.000000000000000000, 0.000000000000000000, 0.000000000000000000 ) ) ;
#742 = CONICAL_SURFACE ( 'NONE', #200, 3.000000000000000000, 0.7853981633974357335 ) ;
#743 = AXIS2_PLACEMENT_3D ( 'NONE', #822, #6, #1224 ) ;
#744 = CIRCLE ( 'NONE', #158, 0.4000000000000001887 ) ;
#745 = ORIENTED_EDGE ( 'NONE', *, *, #691, .T. ) ;
#746 = EDGE_LOOP ( 'NONE', ( #399, #1234, #695, #1297 ) ) ;
#747 = DIRECTION ( 'NONE',  ( 0.000000000000000000, 0.000000000000000000, -1.000000000000000000 ) ) ;
#748 = EDGE_CURVE ( 'NONE', #117, #83, #1093, .T. ) ;
#749 =( LENGTH_UNIT ( ) NAMED_UNIT ( * ) SI_UNIT ( .MILLI., .METRE. ) );
#750 = CARTESIAN_POINT ( 'NONE',  ( 9.124264068711955389, 0.000000000000000000, 0.000000000000000000 ) ) ;
#751 = ORIENTED_EDGE ( 'NONE', *, *, #67, .F. ) ;
#752 = CARTESIAN_POINT ( 'NONE',  ( 18.50000000000000000, 2.598076211353314235, -6.500000000000000000 ) ) ;
#753 = ADVANCED_FACE ( 'NONE', ( #114 ), #1338, .T. ) ;
#754 = DIRECTION ( 'NONE',  ( -0.7071067811865564545, 8.659560562354824390E-17, -0.7071067811865386910 ) ) ;
#755 = CARTESIAN_POINT ( 'NONE',  ( 0.000000000000000000, 0.000000000000000000, -2.500000000000004441 ) ) ;
#756 = DIRECTION ( 'NONE',  ( 0.000000000000000000, 0.000000000000000000, 1.000000000000000000 ) ) ;
#757 = ORIENTED_EDGE ( 'NONE', *, *, #1257, .T. ) ;
#758 = ADVANCED_FACE ( 'NONE', ( #838 ), #809, .T. ) ;
#759 = DIRECTION ( 'NONE',  ( 0.000000000000000000, 0.000000000000000000, 1.000000000000000000 ) ) ;
#760 = AXIS2_PLACEMENT_3D ( 'NONE', #153, #34, #631 ) ;
#761 = DIRECTION ( 'NONE',  ( 1.000000000000000000, -0.000000000000000000, -0.000000000000000000 ) ) ;
#762 = CIRCLE ( 'NONE', #350, 1.967157287525382658 ) ;
#763 = AXIS2_PLACEMENT_3D ( 'NONE', #687, #1318, #380 ) ;
#764 = TOROIDAL_SURFACE ( 'NONE', #1051, 2.250000000000003997, 0.4000000000000000222 ) ;
#765 = ORIENTED_EDGE ( 'NONE', *, *, #1275, .F. ) ;
#766 = DIRECTION ( 'NONE',  ( -0.7071067811865564545, 0.000000000000000000, 0.7071067811865386910 ) ) ;
#767 = CARTESIAN_POINT ( 'NONE',  ( 9.548528137423877737, 3.673940397442059868E-16, 3.000000000000000000 ) ) ;
#768 = EDGE_CURVE ( 'NONE', #1134, #1015, #830, .T. ) ;
#769 = CARTESIAN_POINT ( 'NONE',  ( 0.000000000000000000, -3.741657386773945326, -6.499999999999999112 ) ) ;
#770 = EDGE_LOOP ( 'NONE', ( #995, #1258, #145, #387 ) ) ;
#771 = DIRECTION ( 'NONE',  ( 0.000000000000000000, 0.000000000000000000, 1.000000000000000000 ) ) ;
#772 = EDGE_LOOP ( 'NONE', ( #1302, #293, #1128, #245 ) ) ;
#773 = CARTESIAN_POINT ( 'NONE',  ( 9.124264068711955389, 0.000000000000000000, 3.175735931288065750 ) ) ;
#774 = DIRECTION ( 'NONE',  ( -1.000000000000000000, 0.000000000000000000, 0.000000000000000000 ) ) ;
#775 = FACE_OUTER_BOUND ( 'NONE', #1252, .T. ) ;
#776 = EDGE_CURVE ( 'NONE', #997, #540, #923, .T. ) ;
#777 = ORIENTED_EDGE ( 'NONE', *, *, #942, .F. ) ;
#778 = DIRECTION ( 'NONE',  ( -0.7071067811865474617, 0.000000000000000000, 0.7071067811865474617 ) ) ;
#779 = ORIENTED_EDGE ( 'NONE', *, *, #826, .F. ) ;
#780 = DIRECTION ( 'NONE',  ( 0.000000000000000000, 1.224646799147353207E-16, 1.000000000000000000 ) ) ;
#781 = VECTOR ( 'NONE', #791, 1000.000000000000000 ) ;
#782 = CIRCLE ( 'NONE', #221, 2.800000000000007372 ) ;
#783 = ORIENTED_EDGE ( 'NONE', *, *, #136, .T. ) ;
#784 = TOROIDAL_SURFACE ( 'NONE', #899, 3.600000000000000089, 0.5999999999999999778 ) ;
#785 = VECTOR ( 'NONE', #844, 1000.000000000000000 ) ;
#786 = EDGE_CURVE ( 'NONE', #529, #813, #1244, .T. ) ;
#787 = DIRECTION ( 'NONE',  ( 1.000000000000000000, -0.000000000000000000, -0.000000000000000000 ) ) ;
#788 = ORIENTED_EDGE ( 'NONE', *, *, #315, .F. ) ;
#789 = FACE_OUTER_BOUND ( 'NONE', #708, .T. ) ;
#790 = DIRECTION ( 'NONE',  ( 0.000000000000000000, 0.000000000000000000, 1.000000000000000000 ) ) ;
#791 = DIRECTION ( 'NONE',  ( -1.000000000000000000, 0.000000000000000000, 0.000000000000000000 ) ) ;
#792 = ORIENTED_EDGE ( 'NONE', *, *, #1251, .T. ) ;
#793 = DIRECTION ( 'NONE',  ( 0.000000000000000000, 1.000000000000000000, -1.065013094915147837E-16 ) ) ;
#794 = ADVANCED_FACE ( 'NONE', ( #338 ), #952, .T. ) ;
#795 = CARTESIAN_POINT ( 'NONE',  ( 11.40000000000000036, 0.000000000000000000, 0.000000000000000000 ) ) ;
#796 = ADVANCED_BREP_SHAPE_REPRESENTATION ( '202500614-10105P01', ( #43, #544 ), #197 ) ;
#797 = CARTESIAN_POINT ( 'NONE',  ( 29.50000000000000000, 0.000000000000000000, 0.000000000000000000 ) ) ;
#798 = ORIENTED_EDGE ( 'NONE', *, *, #711, .F. ) ;
#799 = CARTESIAN_POINT ( 'NONE',  ( 29.50000000000000000, 0.000000000000000000, 2.800000000000007372 ) ) ;
#800 = CARTESIAN_POINT ( 'NONE',  ( 18.50000000000000000, 0.000000000000000000, 0.000000000000000000 ) ) ;
#801 = DIRECTION ( 'NONE',  ( 1.000000000000000000, -0.000000000000000000, -0.000000000000000000 ) ) ;
#802 =( NAMED_UNIT ( * ) SI_UNIT ( $, .STERADIAN. ) SOLID_ANGLE_UNIT ( ) );
#803 = EDGE_LOOP ( 'NONE', ( #1209, #1246, #1336, #570 ) ) ;
#804 = AXIS2_PLACEMENT_3D ( 'NONE', #978, #1083, #561 ) ;
#805 = VECTOR ( 'NONE', #184, 1000.000000000000000 ) ;
#806 = DIRECTION ( 'NONE',  ( 1.000000000000000000, -0.000000000000000000, -0.000000000000000000 ) ) ;
#807 = AXIS2_PLACEMENT_3D ( 'NONE', #647, #1063, #450 ) ;
#808 = AXIS2_PLACEMENT_3D ( 'NONE', #938, #1245, #1058 ) ;
#809 = CYLINDRICAL_SURFACE ( 'NONE', #743, 7.500000000000001776 ) ;
#810 = CARTESIAN_POINT ( 'NONE',  ( 12.50000000000001066, -3.741657386773941774, 6.500000000000000888 ) ) ;
#811 = CARTESIAN_POINT ( 'NONE',  ( 18.50000000000000000, 0.000000000000000000, -6.000000000000001776 ) ) ;
#812 = EDGE_CURVE ( 'NONE', #1187, #911, #612, .T. ) ;
#813 = VERTEX_POINT ( 'NONE', #128 ) ;
#814 = EDGE_LOOP ( 'NONE', ( #1002, #1311, #312, #174 ) ) ;
#815 = CARTESIAN_POINT ( 'NONE',  ( 31.18431457505076310, 0.000000000000000000, 0.000000000000000000 ) ) ;
#816 = CARTESIAN_POINT ( 'NONE',  ( 9.548528137423877737, 0.000000000000000000, 0.000000000000000000 ) ) ;
#817 = DIRECTION ( 'NONE',  ( 0.000000000000000000, 0.000000000000000000, -1.000000000000000000 ) ) ;
#818 = ORIENTED_EDGE ( 'NONE', *, *, #250, .T. ) ;
#819 = EDGE_CURVE ( 'NONE', #282, #415, #762, .T. ) ;
#820 = ORIENTED_EDGE ( 'NONE', *, *, #1179, .F. ) ;
#821 = CARTESIAN_POINT ( 'NONE',  ( 20.00000000000000000, 0.000000000000000000, 0.000000000000000000 ) ) ;
#822 = CARTESIAN_POINT ( 'NONE',  ( 0.000000000000000000, 0.000000000000000000, 0.000000000000000000 ) ) ;
#823 = CARTESIAN_POINT ( 'NONE',  ( 12.00000000000000000, 2.598076211353293807, 6.500000000000000888 ) ) ;
#824 = ORIENTED_EDGE ( 'NONE', *, *, #868, .F. ) ;
#825 = VECTOR ( 'NONE', #383, 1000.000000000000000 ) ;
#826 = EDGE_CURVE ( 'NONE', #209, #1052, #643, .T. ) ;
#827 = ORIENTED_EDGE ( 'NONE', *, *, #165, .T. ) ;
#828 = DIRECTION ( 'NONE',  ( 1.000000000000000000, -0.000000000000000000, -0.000000000000000000 ) ) ;
#829 = AXIS2_PLACEMENT_3D ( 'NONE', #858, #333, #747 ) ;
#830 = CIRCLE ( 'NONE', #921, 2.250000000000003997 ) ;
#831 = DIRECTION ( 'NONE',  ( 0.000000000000000000, 0.000000000000000000, -1.000000000000000000 ) ) ;
#832 = CIRCLE ( 'NONE', #329, 3.000000000000002665 ) ;
#833 = CARTESIAN_POINT ( 'NONE',  ( 18.50000000000000000, -2.598076211353311571, 6.500000000000000888 ) ) ;
#834 = DIRECTION ( 'NONE',  ( 1.000000000000000000, 0.000000000000000000, 0.000000000000000000 ) ) ;
#835 = ORIENTED_EDGE ( 'NONE', *, *, #392, .T. ) ;
#836 = ORIENTED_EDGE ( 'NONE', *, *, #1191, .T. ) ;
#837 = CARTESIAN_POINT ( 'NONE',  ( 12.50000000000001066, 0.000000000000000000, 0.000000000000000000 ) ) ;
#838 = FACE_OUTER_BOUND ( 'NONE', #9, .T. ) ;
#839 = ADVANCED_FACE ( 'NONE', ( #1082 ), #658, .T. ) ;
#840 = CARTESIAN_POINT ( 'NONE',  ( 31.18431457505076310, 0.000000000000000000, -2.250000000000003997 ) ) ;
#841 = PLANE ( 'NONE',  #505 ) ;
#842 = ORIENTED_EDGE ( 'NONE', *, *, #353, .F. ) ;
#843 = PLANE ( 'NONE',  #760 ) ;
#844 = DIRECTION ( 'NONE',  ( 1.000000000000000000, -0.000000000000000000, -0.000000000000000000 ) ) ;
#845 = PRODUCT_CONTEXT ( 'NONE', #740, 'mechanical' ) ;
#846 = CARTESIAN_POINT ( 'NONE',  ( 18.50000000000000000, 2.598076211353314235, -6.500000000000000000 ) ) ;
#847 = ORIENTED_EDGE ( 'NONE', *, *, #385, .T. ) ;
#848 = FACE_OUTER_BOUND ( 'NONE', #421, .T. ) ;
#849 = CIRCLE ( 'NONE', #1300, 7.500000000000001776 ) ;
#850 = AXIS2_PLACEMENT_3D ( 'NONE', #1322, #1132, #713 ) ;
#851 =( GEOMETRIC_REPRESENTATION_CONTEXT ( 3 ) GLOBAL_UNCERTAINTY_ASSIGNED_CONTEXT ( ( #1136 ) ) GLOBAL_UNIT_ASSIGNED_CONTEXT ( ( #423, #41, #1255 ) ) REPRESENTATION_CONTEXT ( 'NONE', 'WORKASPACE' ) );
#852 = FACE_OUTER_BOUND ( 'NONE', #1232, .T. ) ;
#853 = AXIS2_PLACEMENT_3D ( 'NONE', #1207, #277, #903 ) ;
#854 = STYLED_ITEM ( 'NONE', ( #1172 ), #839 ) ;
#855 = AXIS2_PLACEMENT_3D ( 'NONE', #1049, #1238, #622 ) ;
#856 = ADVANCED_FACE ( 'NONE', ( #537 ), #784, .F. ) ;
#857 = EDGE_LOOP ( 'NONE', ( #317, #1285, #112, #889 ) ) ;
#858 = CARTESIAN_POINT ( 'NONE',  ( 0.000000000000000000, 0.000000000000000000, 0.000000000000000000 ) ) ;
#859 = CARTESIAN_POINT ( 'NONE',  ( 19.49999999999998934, 0.000000000000000000, 0.000000000000000000 ) ) ;
#860 = CARTESIAN_POINT ( 'NONE',  ( 29.30000000000000426, 3.673940397442062826E-16, 3.000000000000002665 ) ) ;
#861 = CARTESIAN_POINT ( 'NONE',  ( 18.50000000000000000, 7.347880794884121708E-16, 6.000000000000001776 ) ) ;
#862 = ORIENTED_EDGE ( 'NONE', *, *, #1235, .F. ) ;
#863 = B_SPLINE_CURVE_WITH_KNOTS ( 'NONE', 3,
 ( #20, #536, #1166, #752 ),
 .UNSPECIFIED., .F., .F.,
 ( 4, 4 ),
 ( 1.545027413697015416E-06, 0.001240642113537695004 ),
 .UNSPECIFIED. ) ;
#864 = CARTESIAN_POINT ( 'NONE',  ( 9.548528137423877737, 0.000000000000000000, -3.000000000000000000 ) ) ;
#865 = CARTESIAN_POINT ( 'NONE',  ( 12.00000000000000000, 7.539491415784396189, 6.500000000000000000 ) ) ;
#866 = ORIENTED_EDGE ( 'NONE', *, *, #667, .T. ) ;
#867 = DIRECTION ( 'NONE',  ( 0.000000000000000000, 0.000000000000000000, -1.000000000000000000 ) ) ;
#868 = EDGE_CURVE ( 'NONE', #941, #1156, #594, .T. ) ;
#869 = VECTOR ( 'NONE', #610, 1000.000000000000000 ) ;
#870 = LINE ( 'NONE', #755, #10 ) ;
#871 = COLOUR_RGB ( '',0.6470588235294117974, 0.6196078431372549211, 0.5882352941176470784 ) ;
#872 = VECTOR ( 'NONE', #701, 1000.000000000000114 ) ;
#873 = ORIENTED_EDGE ( 'NONE', *, *, #476, .T. ) ;
#874 = CARTESIAN_POINT ( 'NONE',  ( 31.46715728752538155, 0.000000000000000000, 0.000000000000000000 ) ) ;
#875 = SURFACE_STYLE_USAGE ( .BOTH. , #459 ) ;
#876 = EDGE_CURVE ( 'NONE', #415, #282, #1199, .T. ) ;
#877 = CARTESIAN_POINT ( 'NONE',  ( 9.300000000000025580, 0.000000000000000000, 0.000000000000000000 ) ) ;
#878 = DIRECTION ( 'NONE',  ( 1.000000000000000000, -0.000000000000000000, -0.000000000000000000 ) ) ;
#879 = ORIENTED_EDGE ( 'NONE', *, *, #60, .F. ) ;
#880 = PRODUCT ( '202500614-10105P01', '202500614-10105P01', '', ( #845 ) ) ;
#881 = DIRECTION ( 'NONE',  ( 1.000000000000000000, -0.000000000000000000, -0.000000000000000000 ) ) ;
#882 = ORIENTED_EDGE ( 'NONE', *, *, #39, .T. ) ;
#883 = FACE_OUTER_BOUND ( 'NONE', #1031, .T. ) ;
#884 = DIRECTION ( 'NONE',  ( -1.000000000000000000, 0.000000000000000000, 0.000000000000000000 ) ) ;
#885 = CARTESIAN_POINT ( 'NONE',  ( 29.89999999999999858, 0.000000000000000000, 0.000000000000000000 ) ) ;
#886 = EDGE_CURVE ( 'NONE', #458, #896, #698, .T. ) ;
#887 = ORIENTED_EDGE ( 'NONE', *, *, #425, .T. ) ;
#888 = FACE_OUTER_BOUND ( 'NONE', #1039, .T. ) ;
#889 = ORIENTED_EDGE ( 'NONE', *, *, #92, .T. ) ;
#890 = CIRCLE ( 'NONE', #716, 2.800000000000007372 ) ;
#891 = CARTESIAN_POINT ( 'NONE',  ( 11.40000000000000036, 0.000000000000000000, 0.000000000000000000 ) ) ;
#892 = FILL_AREA_STYLE_COLOUR ( '', #983 ) ;
#893 = PRODUCT_DEFINITION_FORMATION_WITH_SPECIFIED_SOURCE ( 'ANY', '', #880, .NOT_KNOWN. ) ;
#894 = AXIS2_PLACEMENT_3D ( 'NONE', #800, #571, #992 ) ;
#895 = CIRCLE ( 'NONE', #482, 3.000000000000000000 ) ;
#896 = VERTEX_POINT ( 'NONE', #1109 ) ;
#897 = EDGE_CURVE ( 'NONE', #415, #1130, #1292, .T. ) ;
#898 = AXIS2_PLACEMENT_3D ( 'NONE', #354, #359, #1268 ) ;
#899 = AXIS2_PLACEMENT_3D ( 'NONE', #237, #1003, #57 ) ;
#900 = DIRECTION ( 'NONE',  ( -1.000000000000000000, 0.000000000000000000, 0.000000000000000000 ) ) ;
#901 = EDGE_LOOP ( 'NONE', ( #873, #215, #583, #406 ) ) ;
#902 = CARTESIAN_POINT ( 'NONE',  ( 11.40000000000000036, 0.000000000000000000, 0.000000000000000000 ) ) ;
#903 = DIRECTION ( 'NONE',  ( 0.000000000000000000, 1.224646799147351975E-16, 1.000000000000000000 ) ) ;
#904 = DIRECTION ( 'NONE',  ( 0.000000000000000000, -1.000000000000000000, 1.597519642372721818E-16 ) ) ;
#905 = ORIENTED_EDGE ( 'NONE', *, *, #776, .F. ) ;
#906 = DIRECTION ( 'NONE',  ( 0.000000000000000000, -1.065013094915147837E-16, -1.000000000000000000 ) ) ;
#907 = DIRECTION ( 'NONE',  ( 0.7071067811865463515, 0.000000000000000000, -0.7071067811865487940 ) ) ;
#908 = CARTESIAN_POINT ( 'NONE',  ( 29.89999999999999858, 2.755455298081549708E-16, 2.250000000000003997 ) ) ;
#909 = CARTESIAN_POINT ( 'NONE',  ( 39.00000000000000711, 0.000000000000000000, 0.000000000000000000 ) ) ;
#910 = B_SPLINE_CURVE_WITH_KNOTS ( 'NONE', 3,
 ( #345, #235, #254, #447 ),
 .UNSPECIFIED., .F., .F.,
 ( 4, 4 ),
 ( 0.006503922416289793090, 0.007730315640286011467 ),
 .UNSPECIFIED. ) ;
#911 = VERTEX_POINT ( 'NONE', #682 ) ;
#912 = FACE_OUTER_BOUND ( 'NONE', #161, .T. ) ;
#913 = DIRECTION ( 'NONE',  ( 1.000000000000000000, -0.000000000000000000, -0.000000000000000000 ) ) ;
#914 = ADVANCED_FACE ( 'NONE', ( #157 ), #491, .T. ) ;
#915 = CYLINDRICAL_SURFACE ( 'NONE', #75, 1.850000000000004086 ) ;
#916 =( GEOMETRIC_REPRESENTATION_CONTEXT ( 3 ) GLOBAL_UNCERTAINTY_ASSIGNED_CONTEXT ( ( #1030 ) ) GLOBAL_UNIT_ASSIGNED_CONTEXT ( ( #1200, #1208, #802 ) ) REPRESENTATION_CONTEXT ( 'NONE', 'WORKASPACE' ) );
#917 = VERTEX_POINT ( 'NONE', #372 ) ;
#918 = AXIS2_PLACEMENT_3D ( 'NONE', #750, #249, #759 ) ;
#919 = CONICAL_SURFACE ( 'NONE', #566, 3.000000000000000000, 0.7853981633974357335 ) ;
#920 = CARTESIAN_POINT ( 'NONE',  ( 0.000000000000000000, 0.000000000000000000, -4.000000000000000000 ) ) ;
#921 = AXIS2_PLACEMENT_3D ( 'NONE', #503, #206, #621 ) ;
#922 = VECTOR ( 'NONE', #95, 1000.000000000000000 ) ;
#923 = LINE ( 'NONE', #1042, #1197 ) ;
#924 = ADVANCED_FACE ( 'NONE', ( #991 ), #463, .F. ) ;
#925 = FACE_BOUND ( 'NONE', #148, .T. ) ;
#926 = PRESENTATION_STYLE_ASSIGNMENT (( #1111 ) ) ;
#927 = VERTEX_POINT ( 'NONE', #1298 ) ;
#928 = ORIENTED_EDGE ( 'NONE', *, *, #238, .F. ) ;
#929 = CARTESIAN_POINT ( 'NONE',  ( 29.30000000000000426, 0.000000000000000000, -3.000000000000002665 ) ) ;
#930 = DIRECTION ( 'NONE',  ( 0.000000000000000000, 0.000000000000000000, -1.000000000000000000 ) ) ;
#931 = DIRECTION ( 'NONE',  ( -1.000000000000000000, 0.000000000000000000, 0.000000000000000000 ) ) ;
#932 = EDGE_CURVE ( 'NONE', #295, #813, #481, .T. ) ;
#933 = DIRECTION ( 'NONE',  ( 0.000000000000000000, 0.000000000000000000, -1.000000000000000000 ) ) ;
#934 = ADVANCED_FACE ( 'NONE', ( #1315, #1013 ), #70, .T. ) ;
#935 = ORIENTED_EDGE ( 'NONE', *, *, #433, .T. ) ;
#936 = CARTESIAN_POINT ( 'NONE',  ( 1.000000000000004441, 0.000000000000000000, 0.000000000000000000 ) ) ;
#937 = DIRECTION ( 'NONE',  ( 0.7071067811865463515, 8.659560562354948882E-17, 0.7071067811865487940 ) ) ;
#938 = CARTESIAN_POINT ( 'NONE',  ( 32.00000000000000000, 0.000000000000000000, 0.000000000000000000 ) ) ;
#939 = FACE_OUTER_BOUND ( 'NONE', #521, .T. ) ;
#940 = AXIS2_PLACEMENT_3D ( 'NONE', #859, #1210, #280 ) ;
#941 = VERTEX_POINT ( 'NONE', #362 ) ;
#942 = EDGE_CURVE ( 'NONE', #58, #448, #356, .T. ) ;
#943 = CARTESIAN_POINT ( 'NONE',  ( 31.18431457505076310, 0.000000000000000000, 0.000000000000000000 ) ) ;
#944 = AXIS2_PLACEMENT_3D ( 'NONE', #394, #366, #475 ) ;
#945 = CIRCLE ( 'NONE', #1055, 2.250000000000003997 ) ;
#946 = DIRECTION ( 'NONE',  ( 0.000000000000000000, 0.000000000000000000, 1.000000000000000000 ) ) ;
#947 = CONICAL_SURFACE ( 'NONE', #1327, 2.500000000000003997, 0.7853981633974499443 ) ;
#948 = CIRCLE ( 'NONE', #966, 6.000000000000001776 ) ;
#949 = CARTESIAN_POINT ( 'NONE',  ( 29.89999999999999858, 0.000000000000000000, -2.250000000000003997 ) ) ;
#950 = DIRECTION ( 'NONE',  ( 1.000000000000000000, -0.000000000000000000, -0.000000000000000000 ) ) ;
#951 = ORIENTED_EDGE ( 'NONE', *, *, #1235, .T. ) ;
#952 = CYLINDRICAL_SURFACE ( 'NONE', #98, 4.000000000000000000 ) ;
#953 = DIRECTION ( 'NONE',  ( -0.000000000000000000, -1.000000000000000000, -0.000000000000000000 ) ) ;
#954 = DIRECTION ( 'NONE',  ( -1.000000000000000000, 0.000000000000000000, 0.000000000000000000 ) ) ;
#955 = ORIENTED_EDGE ( 'NONE', *, *, #1044, .T. ) ;
#956 = FILL_AREA_STYLE ('',( #55 ) ) ;
#957 = CARTESIAN_POINT ( 'NONE',  ( 31.46715728752538155, 0.000000000000000000, 0.000000000000000000 ) ) ;
#958 = EDGE_CURVE ( 'NONE', #83, #322, #452, .T. ) ;
#959 = ORIENTED_EDGE ( 'NONE', *, *, #1271, .F. ) ;
#960 = SURFACE_STYLE_FILL_AREA ( #956 ) ;
#961 = CIRCLE ( 'NONE', #370, 1.850000000000004086 ) ;
#962 = DIRECTION ( 'NONE',  ( 1.000000000000000000, -0.000000000000000000, -0.000000000000000000 ) ) ;
#963 = VECTOR ( 'NONE', #86, 1000.000000000000114 ) ;
#964 = VECTOR ( 'NONE', #314, 1000.000000000000000 ) ;
#965 = CONICAL_SURFACE ( 'NONE', #374, 2.800000000000007372, 0.7853981633974482790 ) ;
#966 = AXIS2_PLACEMENT_3D ( 'NONE', #1139, #517, #511 ) ;
#967 = EDGE_CURVE ( 'NONE', #47, #448, #1215, .T. ) ;
#968 = VECTOR ( 'NONE', #1143, 1000.000000000000000 ) ;
#969 = CARTESIAN_POINT ( 'NONE',  ( 17.99999999999999289, -3.741657386773941774, 6.500000000000000888 ) ) ;
#970 = ORIENTED_EDGE ( 'NONE', *, *, #222, .T. ) ;
#971 = DIRECTION ( 'NONE',  ( 0.000000000000000000, 0.000000000000000000, -1.000000000000000000 ) ) ;
#972 = DIRECTION ( 'NONE',  ( 1.000000000000000000, -0.000000000000000000, -0.000000000000000000 ) ) ;
#973 = DIRECTION ( 'NONE',  ( -1.000000000000000000, 0.000000000000000000, 0.000000000000000000 ) ) ;
#974 = ADVANCED_FACE ( 'NONE', ( #888 ), #310, .T. ) ;
#975 = ORIENTED_EDGE ( 'NONE', *, *, #1075, .T. ) ;
#976 = EDGE_CURVE ( 'NONE', #47, #549, #116, .T. ) ;
#977 = SURFACE_SIDE_STYLE ('',( #554 ) ) ;
#978 = CARTESIAN_POINT ( 'NONE',  ( 29.89999999999999858, 0.000000000000000000, 0.000000000000000000 ) ) ;
#979 =( NAMED_UNIT ( * ) PLANE_ANGLE_UNIT ( ) SI_UNIT ( $, .RADIAN. ) );
#980 = ORIENTED_EDGE ( 'NONE', *, *, #1129, .F. ) ;
#981 = EDGE_CURVE ( 'NONE', #516, #295, #304, .T. ) ;
#982 = CARTESIAN_POINT ( 'NONE',  ( 12.00000000000000000, 3.000000000000000000, 0.000000000000000000 ) ) ;
#983 = COLOUR_RGB ( '',0.6470588235294117974, 0.6196078431372549211, 0.5882352941176470784 ) ;
#984 = ORIENTED_EDGE ( 'NONE', *, *, #22, .T. ) ;
#985 = FILL_AREA_STYLE ('',( #649 ) ) ;
#986 = AXIS2_PLACEMENT_3D ( 'NONE', #1178, #555, #239 ) ;
#987 = AXIS2_PLACEMENT_3D ( 'NONE', #469, #706, #817 ) ;
#988 = CARTESIAN_POINT ( 'NONE',  ( 29.30000000000000426, 0.000000000000000000, 0.000000000000000000 ) ) ;
#989 = CIRCLE ( 'NONE', #1161, 3.000000000000002220 ) ;
#990 = VERTEX_POINT ( 'NONE', #582 ) ;
#991 = FACE_OUTER_BOUND ( 'NONE', #318, .T. ) ;
#992 = DIRECTION ( 'NONE',  ( 0.000000000000000000, 0.000000000000000000, 1.000000000000000000 ) ) ;
#993 = CARTESIAN_POINT ( 'NONE',  ( 20.00000000000000000, 0.000000000000000000, 5.499999999999998224 ) ) ;
#994 = DIRECTION ( 'NONE',  ( 1.000000000000000000, -0.000000000000000000, -0.000000000000000000 ) ) ;
#995 = ORIENTED_EDGE ( 'NONE', *, *, #819, .F. ) ;
#996 = DIRECTION ( 'NONE',  ( 1.000000000000000000, -0.000000000000000000, -0.000000000000000000 ) ) ;
#997 = VERTEX_POINT ( 'NONE', #678 ) ;
#998 = DIRECTION ( 'NONE',  ( 0.000000000000000000, 0.000000000000000000, -1.000000000000000000 ) ) ;
#999 = EDGE_CURVE ( 'NONE', #438, #458, #1074, .T. ) ;
#1000 = CYLINDRICAL_SURFACE ( 'NONE', #178, 7.500000000000001776 ) ;
#1001 = DIRECTION ( 'NONE',  ( 0.000000000000000000, 0.000000000000000000, 1.000000000000000000 ) ) ;
#1002 = ORIENTED_EDGE ( 'NONE', *, *, #629, .F. ) ;
#1003 = DIRECTION ( 'NONE',  ( -1.000000000000000000, 0.000000000000000000, 0.000000000000000000 ) ) ;
#1004 = ORIENTED_EDGE ( 'NONE', *, *, #598, .T. ) ;
#1005 = DIRECTION ( 'NONE',  ( 0.000000000000000000, 0.000000000000000000, 1.000000000000000000 ) ) ;
#1006 = AXIS2_PLACEMENT_3D ( 'NONE', #874, #274, #668 ) ;
#1007 = DIRECTION ( 'NONE',  ( 0.000000000000000000, 0.000000000000000000, -1.000000000000000000 ) ) ;
#1008 = STYLED_ITEM ( 'NONE', ( #926 ), #796 ) ;
#1009 = TOROIDAL_SURFACE ( 'NONE', #850, 2.250000000000003997, 0.4000000000000000222 ) ;
#1010 = STYLED_ITEM ( 'NONE', ( #739 ), #794 ) ;
#1011 = EDGE_LOOP ( 'NONE', ( #470, #715, #1004, #416 ) ) ;
#1012 = VECTOR ( 'NONE', #556, 1000.000000000000114 ) ;
#1013 = FACE_OUTER_BOUND ( 'NONE', #553, .T. ) ;
#1014 = CARTESIAN_POINT ( 'NONE',  ( 18.50000000000000000, -2.598076211353316012, -6.500000000000000000 ) ) ;
#1015 = VERTEX_POINT ( 'NONE', #471 ) ;
#1016 = ADVANCED_FACE ( 'NONE', ( #1204 ), #367, .T. ) ;
#1017 = CARTESIAN_POINT ( 'NONE',  ( 32.00000000000000000, 0.000000000000000000, -2.500000000000003997 ) ) ;
#1018 = CARTESIAN_POINT ( 'NONE',  ( 29.50000000000000000, 3.429011037612598151E-16, -2.800000000000007372 ) ) ;
#1019 = FACE_OUTER_BOUND ( 'NONE', #803, .T. ) ;
#1020 = DIRECTION ( 'NONE',  ( 0.000000000000000000, 0.000000000000000000, -1.000000000000000000 ) ) ;
#1021 = VERTEX_POINT ( 'NONE', #205 ) ;
#1022 = CARTESIAN_POINT ( 'NONE',  ( 8.300000000000000711, 0.000000000000000000, 0.000000000000000000 ) ) ;
#1023 = ADVANCED_FACE ( 'NONE', ( #604 ), #477, .T. ) ;
#1024 = DIRECTION ( 'NONE',  ( -1.000000000000000000, 0.000000000000000000, 0.000000000000000000 ) ) ;
#1025 = CARTESIAN_POINT ( 'NONE',  ( 12.00000000000000000, 7.539491415784396189, -6.500000000000000888 ) ) ;
#1026 =( NAMED_UNIT ( * ) PLANE_ANGLE_UNIT ( ) SI_UNIT ( $, .RADIAN. ) );
#1027 = ORIENTED_EDGE ( 'NONE', *, *, #1257, .F. ) ;
#1028 = CIRCLE ( 'NONE', #1326, 7.500000000000001776 ) ;
#1029 = VECTOR ( 'NONE', #103, 1000.000000000000000 ) ;
#1030 = UNCERTAINTY_MEASURE_WITH_UNIT (LENGTH_MEASURE( 1.000000000000000082E-05 ), #1200, 'distance_accuracy_value', 'NONE');
#1031 = EDGE_LOOP ( 'NONE', ( #862, #928, #737, #630 ) ) ;
#1032 = DIRECTION ( 'NONE',  ( 0.000000000000000000, 0.000000000000000000, -1.000000000000000000 ) ) ;
#1033 = VECTOR ( 'NONE', #1310, 1000.000000000000000 ) ;
#1034 = AXIS2_PLACEMENT_3D ( 'NONE', #840, #953, #606 ) ;
#1035 = DIRECTION ( 'NONE',  ( -1.000000000000000000, 0.000000000000000000, 0.000000000000000000 ) ) ;
#1036 = EDGE_CURVE ( 'NONE', #204, #363, #5, .T. ) ;
#1037 = CARTESIAN_POINT ( 'NONE',  ( 9.124264068711955389, 0.000000000000000000, 0.000000000000000000 ) ) ;
#1038 = EDGE_CURVE ( 'NONE', #813, #1052, #724, .T. ) ;
#1039 = EDGE_LOOP ( 'NONE', ( #1102, #270, #882, #576 ) ) ;
#1040 = ORIENTED_EDGE ( 'NONE', *, *, #400, .T. ) ;
#1041 = DIRECTION ( 'NONE',  ( 0.000000000000000000, 0.000000000000000000, 1.000000000000000000 ) ) ;
#1042 = CARTESIAN_POINT ( 'NONE',  ( 0.000000000000000000, 0.000000000000000000, -1.850000000000004086 ) ) ;
#1043 = DIRECTION ( 'NONE',  ( 1.000000000000000000, -0.000000000000000000, -0.000000000000000000 ) ) ;
#1044 = EDGE_CURVE ( 'NONE', #623, #83, #501, .T. ) ;
#1045 = EDGE_LOOP ( 'NONE', ( #703, #216, #186, #842 ) ) ;
#1046 = VERTEX_POINT ( 'NONE', #929 ) ;
#1047 = DIRECTION ( 'NONE',  ( 0.000000000000000000, 0.000000000000000000, -1.000000000000000000 ) ) ;
#1048 = DIRECTION ( 'NONE',  ( 1.000000000000000000, -0.000000000000000000, -0.000000000000000000 ) ) ;
#1049 = CARTESIAN_POINT ( 'NONE',  ( 29.89999999999999858, 0.000000000000000000, 0.000000000000000000 ) ) ;
#1050 = ORIENTED_EDGE ( 'NONE', *, *, #1123, .T. ) ;
#1051 = AXIS2_PLACEMENT_3D ( 'NONE', #943, #828, #313 ) ;
#1052 = VERTEX_POINT ( 'NONE', #402 ) ;
#1053 = CARTESIAN_POINT ( 'NONE',  ( 12.00000000000000000, 0.000000000000000000, 0.000000000000000000 ) ) ;
#1054 = AXIS2_PLACEMENT_3D ( 'NONE', #1053, #123, #530 ) ;
#1055 = AXIS2_PLACEMENT_3D ( 'NONE', #1162, #53, #446 ) ;
#1056 = DIRECTION ( 'NONE',  ( 0.000000000000000000, 0.000000000000000000, -1.000000000000000000 ) ) ;
#1057 = MECHANICAL_DESIGN_GEOMETRIC_PRESENTATION_REPRESENTATION (  '', ( #247 ), #1304 ) ;
#1058 = DIRECTION ( 'NONE',  ( 0.000000000000000000, 0.000000000000000000, -1.000000000000000000 ) ) ;
#1059 = CARTESIAN_POINT ( 'NONE',  ( 29.30000000000000426, 0.000000000000000000, 0.000000000000000000 ) ) ;
#1060 = ORIENTED_EDGE ( 'NONE', *, *, #320, .F. ) ;
#1061 = DIRECTION ( 'NONE',  ( 0.000000000000000000, 0.000000000000000000, -1.000000000000000000 ) ) ;
#1062 = ADVANCED_FACE ( 'NONE', ( #319 ), #764, .F. ) ;
#1063 = DIRECTION ( 'NONE',  ( 1.000000000000000000, -0.000000000000000000, -0.000000000000000000 ) ) ;
#1064 = EDGE_LOOP ( 'NONE', ( #382, #1137, #975, #560 ) ) ;
#1065 = EDGE_LOOP ( 'NONE', ( #1228, #1108, #788, #323 ) ) ;
#1066 = DIRECTION ( 'NONE',  ( 1.000000000000000000, -0.000000000000000000, -0.000000000000000000 ) ) ;
#1067 = FILL_AREA_STYLE ('',( #1281 ) ) ;
#1068 = EDGE_CURVE ( 'NONE', #140, #540, #248, .T. ) ;
#1069 = DIRECTION ( 'NONE',  ( 1.000000000000000000, -0.000000000000000000, -0.000000000000000000 ) ) ;
#1070 = CARTESIAN_POINT ( 'NONE',  ( 9.300000000000025580, 0.000000000000000000, 0.000000000000000000 ) ) ;
#1071 = ORIENTED_EDGE ( 'NONE', *, *, #149, .T. ) ;
#1072 = EDGE_CURVE ( 'NONE', #58, #1149, #890, .T. ) ;
#1073 = CARTESIAN_POINT ( 'NONE',  ( 12.00000000000000000, -2.598076211353296472, -6.500000000000000000 ) ) ;
#1074 = CIRCLE ( 'NONE', #656, 3.000000000000000000 ) ;
#1075 = EDGE_CURVE ( 'NONE', #438, #209, #36, .T. ) ;
#1076 = LINE ( 'NONE', #769, #674 ) ;
#1077 = EDGE_LOOP ( 'NONE', ( #657, #984 ) ) ;
#1078 = CARTESIAN_POINT ( 'NONE',  ( 29.50000000000000000, 0.000000000000000000, 0.000000000000000000 ) ) ;
#1079 =( LENGTH_UNIT ( ) NAMED_UNIT ( * ) SI_UNIT ( .MILLI., .METRE. ) );
#1080 = ADVANCED_FACE ( 'NONE', ( #417 ), #414, .T. ) ;
#1081 = ORIENTED_EDGE ( 'NONE', *, *, #958, .T. ) ;
#1082 = FACE_OUTER_BOUND ( 'NONE', #1011, .T. ) ;
#1083 = DIRECTION ( 'NONE',  ( 1.000000000000000000, -0.000000000000000000, -0.000000000000000000 ) ) ;
#1084 =( NAMED_UNIT ( * ) PLANE_ANGLE_UNIT ( ) SI_UNIT ( $, .RADIAN. ) );
#1085 = VERTEX_POINT ( 'NONE', #704 ) ;
#1086 = CARTESIAN_POINT ( 'NONE',  ( 32.00000000000000000, 0.000000000000000000, -2.500000000000003997 ) ) ;
#1087 = STYLED_ITEM ( 'NONE', ( #62 ), #1173 ) ;
#1088 = ORIENTED_EDGE ( 'NONE', *, *, #588, .F. ) ;
#1089 = CARTESIAN_POINT ( 'NONE',  ( 12.50000000000001066, 3.741657386773943550, -6.500000000000000000 ) ) ;
#1090 = AXIS2_PLACEMENT_3D ( 'NONE', #1188, #177, #998 ) ;
#1091 = AXIS2_PLACEMENT_3D ( 'NONE', #988, #973, #546 ) ;
#1092 = CARTESIAN_POINT ( 'NONE',  ( 18.35527269892414282, -2.988015160451082064, -6.499999999999999112 ) ) ;
#1093 = CIRCLE ( 'NONE', #51, 7.500000000000001776 ) ;
#1094 = CARTESIAN_POINT ( 'NONE',  ( 12.00000000000000000, 0.000000000000000000, 3.600000000000000089 ) ) ;
#1095 = AXIS2_PLACEMENT_3D ( 'NONE', #28, #741, #135 ) ;
#1096 = ORIENTED_EDGE ( 'NONE', *, *, #1129, .T. ) ;
#1097 = CARTESIAN_POINT ( 'NONE',  ( 9.548528137423877737, 0.000000000000000000, 0.000000000000000000 ) ) ;
#1098 = EDGE_CURVE ( 'NONE', #1156, #941, #948, .T. ) ;
#1099 = EDGE_LOOP ( 'NONE', ( #535, #970, #609, #401 ) ) ;
#1100 = DIRECTION ( 'NONE',  ( 0.000000000000000000, 0.000000000000000000, 1.000000000000000000 ) ) ;
#1101 = CYLINDRICAL_SURFACE ( 'NONE', #763, 6.000000000000001776 ) ;
#1102 = ORIENTED_EDGE ( 'NONE', *, *, #256, .F. ) ;
#1103 = DIRECTION ( 'NONE',  ( 0.000000000000000000, 0.000000000000000000, 1.000000000000000000 ) ) ;
#1104 = ORIENTED_EDGE ( 'NONE', *, *, #1309, .T. ) ;
#1105 = CARTESIAN_POINT ( 'NONE',  ( 38.40000000000000568, 0.000000000000000000, 0.000000000000000000 ) ) ;
#1106 = PRODUCT_RELATED_PRODUCT_CATEGORY ( 'part', '', ( #880 ) ) ;
#1107 = CARTESIAN_POINT ( 'NONE',  ( 39.00000000000000711, 2.326828918379978267E-16, -1.900000000000005906 ) ) ;
#1108 = ORIENTED_EDGE ( 'NONE', *, *, #433, .F. ) ;
#1109 = CARTESIAN_POINT ( 'NONE',  ( 11.40000000000000036, 3.673940397442059868E-16, 3.000000000000000000 ) ) ;
#1110 = DIRECTION ( 'NONE',  ( 1.000000000000000000, -0.000000000000000000, -0.000000000000000000 ) ) ;
#1111 = SURFACE_STYLE_USAGE ( .BOTH. , #278 ) ;
#1112 = MECHANICAL_DESIGN_GEOMETRIC_PRESENTATION_REPRESENTATION (  '', ( #1087 ), #525 ) ;
#1113 = CONICAL_SURFACE ( 'NONE', #1158, 1.900000000000005906, 0.7853981633974445042 ) ;
#1114 = ADVANCED_FACE ( 'NONE', ( #1124 ), #542, .F. ) ;
#1115 = ORIENTED_EDGE ( 'NONE', *, *, #1282, .F. ) ;
#1116 = CIRCLE ( 'NONE', #593, 5.499999999999998224 ) ;
#1117 = DIRECTION ( 'NONE',  ( 0.000000000000000000, 0.000000000000000000, -1.000000000000000000 ) ) ;
#1118 = APPLICATION_CONTEXT ( 'automotive_design' ) ;
#1119 = DIRECTION ( 'NONE',  ( 0.000000000000000000, 0.000000000000000000, -1.000000000000000000 ) ) ;
#1120 = CARTESIAN_POINT ( 'NONE',  ( 0.000000000000000000, 2.265596578422608031E-16, 1.850000000000004086 ) ) ;
#1121 = DIRECTION ( 'NONE',  ( 0.000000000000000000, -1.224646799147353207E-16, 1.000000000000000000 ) ) ;
#1122 = ORIENTED_EDGE ( 'NONE', *, *, #50, .F. ) ;
#1123 = EDGE_CURVE ( 'NONE', #516, #1052, #182, .T. ) ;
#1124 = FACE_OUTER_BOUND ( 'NONE', #1099, .T. ) ;
#1125 = DIRECTION ( 'NONE',  ( 1.000000000000000000, -0.000000000000000000, -0.000000000000000000 ) ) ;
#1126 = CARTESIAN_POINT ( 'NONE',  ( 12.50000000000001066, 3.741657386773943550, 6.500000000000000888 ) ) ;
#1127 = DIRECTION ( 'NONE',  ( 1.000000000000000000, -0.000000000000000000, -0.000000000000000000 ) ) ;
#1128 = ORIENTED_EDGE ( 'NONE', *, *, #598, .F. ) ;
#1129 = EDGE_CURVE ( 'NONE', #361, #485, #1233, .T. ) ;
#1130 = VERTEX_POINT ( 'NONE', #1017 ) ;
#1131 = DIRECTION ( 'NONE',  ( 1.000000000000000000, -0.000000000000000000, -0.000000000000000000 ) ) ;
#1132 = DIRECTION ( 'NONE',  ( 1.000000000000000000, -0.000000000000000000, -0.000000000000000000 ) ) ;
#1133 = DIRECTION ( 'NONE',  ( 0.000000000000000000, 0.000000000000000000, -1.000000000000000000 ) ) ;
#1134 = VERTEX_POINT ( 'NONE', #495 ) ;
#1135 =( GEOMETRIC_REPRESENTATION_CONTEXT ( 3 ) GLOBAL_UNCERTAINTY_ASSIGNED_CONTEXT ( ( #192 ) ) GLOBAL_UNIT_ASSIGNED_CONTEXT ( ( #45, #442, #539 ) ) REPRESENTATION_CONTEXT ( 'NONE', 'WORKASPACE' ) );
#1136 = UNCERTAINTY_MEASURE_WITH_UNIT (LENGTH_MEASURE( 1.000000000000000082E-05 ), #423, 'distance_accuracy_value', 'NONE');
#1137 = ORIENTED_EDGE ( 'NONE', *, *, #999, .F. ) ;
#1138 = AXIS2_PLACEMENT_3D ( 'NONE', #572, #1294, #780 ) ;
#1139 = CARTESIAN_POINT ( 'NONE',  ( 19.49999999999998934, 0.000000000000000000, 0.000000000000000000 ) ) ;
#1140 = VECTOR ( 'NONE', #689, 999.9999999999998863 ) ;
#1141 = CARTESIAN_POINT ( 'NONE',  ( 0.000000000000000000, 0.000000000000000000, 0.000000000000000000 ) ) ;
#1142 = EDGE_CURVE ( 'NONE', #11, #927, #242, .T. ) ;
#1143 = DIRECTION ( 'NONE',  ( 1.000000000000000000, -0.000000000000000000, -0.000000000000000000 ) ) ;
#1144 = ORIENTED_EDGE ( 'NONE', *, *, #691, .F. ) ;
#1145 = VERTEX_POINT ( 'NONE', #194 ) ;
#1146 = DIRECTION ( 'NONE',  ( 0.000000000000000000, 0.000000000000000000, -1.000000000000000000 ) ) ;
#1147 = CARTESIAN_POINT ( 'NONE',  ( 12.50000000000001066, 3.741657386773943550, 6.500000000000000888 ) ) ;
#1148 = DIRECTION ( 'NONE',  ( 0.000000000000000000, 1.000000000000000000, -1.065013094915147837E-16 ) ) ;
#1149 = VERTEX_POINT ( 'NONE', #1337 ) ;
#1150 = ORIENTED_EDGE ( 'NONE', *, *, #1289, .T. ) ;
#1151 = DIRECTION ( 'NONE',  ( 1.000000000000000000, -0.000000000000000000, -0.000000000000000000 ) ) ;
#1152 = LINE ( 'NONE', #213, #100 ) ;
#1153 = ORIENTED_EDGE ( 'NONE', *, *, #1068, .F. ) ;
#1154 = ADVANCED_FACE ( 'NONE', ( #912 ), #1280, .T. ) ;
#1155 = PRESENTATION_LAYER_ASSIGNMENT (  '', '', ( #1008 ) ) ;
#1156 = VERTEX_POINT ( 'NONE', #160 ) ;
#1157 = CARTESIAN_POINT ( 'NONE',  ( 1.000000000000004441, 0.000000000000000000, 0.000000000000000000 ) ) ;
#1158 = AXIS2_PLACEMENT_3D ( 'NONE', #1267, #129, #1277 ) ;
#1159 = CIRCLE ( 'NONE', #808, 2.500000000000003997 ) ;
#1160 =( NAMED_UNIT ( * ) SI_UNIT ( $, .STERADIAN. ) SOLID_ANGLE_UNIT ( ) );
#1161 = AXIS2_PLACEMENT_3D ( 'NONE', #411, #526, #1133 ) ;
#1162 = CARTESIAN_POINT ( 'NONE',  ( 29.50000000000000000, 0.000000000000000000, 0.000000000000000000 ) ) ;
#1163 = ORIENTED_EDGE ( 'NONE', *, *, #449, .T. ) ;
#1164 = EDGE_LOOP ( 'NONE', ( #1060, #202 ) ) ;
#1165 = ADVANCED_FACE ( 'NONE', ( #1290 ), #843, .F. ) ;
#1166 = CARTESIAN_POINT ( 'NONE',  ( 18.35599130333231344, 2.986079023691413870, -6.500000000000000000 ) ) ;
#1167 = CARTESIAN_POINT ( 'NONE',  ( 18.50000000000000000, -2.598076211353316012, -6.500000000000000000 ) ) ;
#1168 = FACE_OUTER_BOUND ( 'NONE', #901, .T. ) ;
#1169 = ORIENTED_EDGE ( 'NONE', *, *, #67, .T. ) ;
#1170 = DIRECTION ( 'NONE',  ( 0.000000000000000000, 0.000000000000000000, -1.000000000000000000 ) ) ;
#1171 = EDGE_CURVE ( 'NONE', #540, #140, #961, .T. ) ;
#1172 = PRESENTATION_STYLE_ASSIGNMENT (( #21 ) ) ;
#1173 = ADVANCED_FACE ( 'NONE', ( #775 ), #262, .T. ) ;
#1174 = PLANE ( 'NONE',  #986 ) ;
#1175 = DIRECTION ( 'NONE',  ( 0.000000000000000000, 0.000000000000000000, 1.000000000000000000 ) ) ;
#1176 = ORIENTED_EDGE ( 'NONE', *, *, #504, .F. ) ;
#1177 = CIRCLE ( 'NONE', #1090, 1.900000000000005906 ) ;
#1178 = CARTESIAN_POINT ( 'NONE',  ( 39.00000000000000711, 0.000000000000000000, 0.000000000000000000 ) ) ;
#1179 = EDGE_CURVE ( 'NONE', #295, #516, #306, .T. ) ;
#1180 = CIRCLE ( 'NONE', #853, 0.4000000000000001887 ) ;
#1181 = AXIS2_PLACEMENT_3D ( 'NONE', #837, #1248, #1117 ) ;
#1182 = CARTESIAN_POINT ( 'NONE',  ( 0.000000000000000000, 0.000000000000000000, -2.999999999999992450 ) ) ;
#1183 = CARTESIAN_POINT ( 'NONE',  ( 9.300000000000025580, 3.673940397442059868E-16, -3.000000000000000000 ) ) ;
#1184 = CARTESIAN_POINT ( 'NONE',  ( 12.00000000000000000, 2.598076211353294696, -6.500000000000000000 ) ) ;
#1185 = ORIENTED_EDGE ( 'NONE', *, *, #531, .T. ) ;
#1186 = CARTESIAN_POINT ( 'NONE',  ( 0.000000000000000000, 4.898587196589412829E-16, 4.000000000000000000 ) ) ;
#1187 = VERTEX_POINT ( 'NONE', #1094 ) ;
#1188 = CARTESIAN_POINT ( 'NONE',  ( 39.00000000000000711, 0.000000000000000000, 0.000000000000000000 ) ) ;
#1189 = DIRECTION ( 'NONE',  ( 1.000000000000000000, -0.000000000000000000, -0.000000000000000000 ) ) ;
#1190 = VERTEX_POINT ( 'NONE', #360 ) ;
#1191 = EDGE_CURVE ( 'NONE', #1240, #669, #849, .T. ) ;
#1192 = DIRECTION ( 'NONE',  ( 1.000000000000000000, -0.000000000000000000, -0.000000000000000000 ) ) ;
#1193 = CIRCLE ( 'NONE', #1217, 0.5999999999999998668 ) ;
#1194 = STYLED_ITEM ( 'NONE', ( #234 ), #514 ) ;
#1195 = ORIENTED_EDGE ( 'NONE', *, *, #50, .T. ) ;
#1196 = LINE ( 'NONE', #486, #198 ) ;
#1197 = VECTOR ( 'NONE', #518, 1000.000000000000000 ) ;
#1198 = FACE_OUTER_BOUND ( 'NONE', #1253, .T. ) ;
#1199 = CIRCLE ( 'NONE', #1006, 1.967157287525382658 ) ;
#1200 =( LENGTH_UNIT ( ) NAMED_UNIT ( * ) SI_UNIT ( .MILLI., .METRE. ) );
#1201 = CIRCLE ( 'NONE', #1034, 0.4000000000000001887 ) ;
#1202 = ORIENTED_EDGE ( 'NONE', *, *, #886, .T. ) ;
#1203 = EDGE_CURVE ( 'NONE', #997, #1145, #696, .T. ) ;
#1204 = FACE_OUTER_BOUND ( 'NONE', #427, .T. ) ;
#1205 = ORIENTED_EDGE ( 'NONE', *, *, #275, .T. ) ;
#1206 = DIRECTION ( 'NONE',  ( 0.000000000000000000, 0.000000000000000000, -1.000000000000000000 ) ) ;
#1207 = CARTESIAN_POINT ( 'NONE',  ( 31.18431457505076310, 2.755455298081549708E-16, 2.250000000000003997 ) ) ;
#1208 =( NAMED_UNIT ( * ) PLANE_ANGLE_UNIT ( ) SI_UNIT ( $, .RADIAN. ) );
#1209 = ORIENTED_EDGE ( 'NONE', *, *, #967, .F. ) ;
#1210 = DIRECTION ( 'NONE',  ( -1.000000000000000000, 0.000000000000000000, 0.000000000000000000 ) ) ;
#1211 = DIRECTION ( 'NONE',  ( 0.000000000000000000, 0.000000000000000000, 1.000000000000000000 ) ) ;
#1212 = CARTESIAN_POINT ( 'NONE',  ( 17.99999999999999289, 0.000000000000000000, 0.000000000000000000 ) ) ;
#1213 = CARTESIAN_POINT ( 'NONE',  ( 38.40000000000000568, 0.000000000000000000, 0.000000000000000000 ) ) ;
#1214 = EDGE_LOOP ( 'NONE', ( #349, #1241, #1050, #1274 ) ) ;
#1215 = LINE ( 'NONE', #283, #8 ) ;
#1216 = DIRECTION ( 'NONE',  ( 0.000000000000000000, 0.000000000000000000, 1.000000000000000000 ) ) ;
#1217 = AXIS2_PLACEMENT_3D ( 'NONE', #1307, #702, #1121 ) ;
#1218 = EDGE_CURVE ( 'NONE', #911, #1187, #431, .T. ) ;
#1219 = CARTESIAN_POINT ( 'NONE',  ( 17.99999999999999289, -3.741657386773945770, -6.499999999999999112 ) ) ;
#1220 = AXIS2_PLACEMENT_3D ( 'NONE', #821, #1236, #1041 ) ;
#1221 = ORIENTED_EDGE ( 'NONE', *, *, #999, .T. ) ;
#1222 = CIRCLE ( 'NONE', #483, 5.499999999999998224 ) ;
#1223 = CARTESIAN_POINT ( 'NONE',  ( 32.00000000000000000, 0.000000000000000000, 0.000000000000000000 ) ) ;
#1224 = DIRECTION ( 'NONE',  ( 0.000000000000000000, 0.000000000000000000, -1.000000000000000000 ) ) ;
#1225 = FACE_OUTER_BOUND ( 'NONE', #106, .T. ) ;
#1226 = VERTEX_POINT ( 'NONE', #127 ) ;
#1227 = UNCERTAINTY_MEASURE_WITH_UNIT (LENGTH_MEASURE( 1.000000000000000082E-05 ), #324, 'distance_accuracy_value', 'NONE');
#1228 = ORIENTED_EDGE ( 'NONE', *, *, #637, .F. ) ;
#1229 = CARTESIAN_POINT ( 'NONE',  ( 12.50000000000001066, -3.741657386773945326, -6.499999999999999112 ) ) ;
#1230 = DIRECTION ( 'NONE',  ( -0.7071067811865524577, 8.659560562354873694E-17, -0.7071067811865426878 ) ) ;
#1231 = FACE_OUTER_BOUND ( 'NONE', #1077, .T. ) ;
#1232 = EDGE_LOOP ( 'NONE', ( #679, #783, #726, #1320 ) ) ;
#1233 = B_SPLINE_CURVE_WITH_KNOTS ( 'NONE', 3,
 ( #1229, #85, #718, #296 ),
 .UNSPECIFIED., .F., .F.,
 ( 4, 4 ),
 ( 1.545027413701584100E-06, 0.001240642113537719724 ),
 .UNSPECIFIED. ) ;
#1234 = ORIENTED_EDGE ( 'NONE', *, *, #683, .T. ) ;
#1235 = EDGE_CURVE ( 'NONE', #327, #11, #863, .T. ) ;
#1236 = DIRECTION ( 'NONE',  ( -1.000000000000000000, 0.000000000000000000, 0.000000000000000000 ) ) ;
#1237 = CARTESIAN_POINT ( 'NONE',  ( 17.99999999999999289, 0.000000000000000000, 0.000000000000000000 ) ) ;
#1238 = DIRECTION ( 'NONE',  ( 1.000000000000000000, -0.000000000000000000, -0.000000000000000000 ) ) ;
#1239 = AXIS2_PLACEMENT_3D ( 'NONE', #909, #707, #381 ) ;
#1240 = VERTEX_POINT ( 'NONE', #422 ) ;
#1241 = ORIENTED_EDGE ( 'NONE', *, *, #1179, .T. ) ;
#1242 = DIRECTION ( 'NONE',  ( 1.000000000000000000, -0.000000000000000000, -0.000000000000000000 ) ) ;
#1243 = ADVANCED_FACE ( 'NONE', ( #848 ), #1262, .T. ) ;
#1244 = LINE ( 'NONE', #532, #246 ) ;
#1245 = DIRECTION ( 'NONE',  ( 1.000000000000000000, -0.000000000000000000, -0.000000000000000000 ) ) ;
#1246 = ORIENTED_EDGE ( 'NONE', *, *, #976, .T. ) ;
#1247 = ORIENTED_EDGE ( 'NONE', *, *, #812, .T. ) ;
#1248 = DIRECTION ( 'NONE',  ( 1.000000000000000000, -0.000000000000000000, -0.000000000000000000 ) ) ;
#1249 = FACE_OUTER_BOUND ( 'NONE', #191, .T. ) ;
#1250 = CARTESIAN_POINT ( 'NONE',  ( 12.00000000000000000, 2.598076211353293807, 6.500000000000000888 ) ) ;
#1251 = EDGE_CURVE ( 'NONE', #1329, #1156, #231, .T. ) ;
#1252 = EDGE_LOOP ( 'NONE', ( #1293, #472, #1163, #1150 ) ) ;
#1253 = EDGE_LOOP ( 'NONE', ( #379, #377, #341, #500 ) ) ;
#1254 = DIRECTION ( 'NONE',  ( -1.000000000000000000, 0.000000000000000000, 0.000000000000000000 ) ) ;
#1255 =( NAMED_UNIT ( * ) SI_UNIT ( $, .STERADIAN. ) SOLID_ANGLE_UNIT ( ) );
#1256 = LINE ( 'NONE', #1025, #922 ) ;
#1257 = EDGE_CURVE ( 'NONE', #44, #1329, #243, .T. ) ;
#1258 = ORIENTED_EDGE ( 'NONE', *, *, #214, .T. ) ;
#1259 = CIRCLE ( 'NONE', #326, 1.850000000000004086 ) ;
#1260 = AXIS2_PLACEMENT_3D ( 'NONE', #1317, #685, #1119 ) ;
#1261 = ORIENTED_EDGE ( 'NONE', *, *, #1068, .T. ) ;
#1262 = CYLINDRICAL_SURFACE ( 'NONE', #829, 1.850000000000004086 ) ;
#1263 = CIRCLE ( 'NONE', #673, 0.5999999999999998668 ) ;
#1264 = CIRCLE ( 'NONE', #898, 2.999999999999992450 ) ;
#1265 = FILL_AREA_STYLE ('',( #146 ) ) ;
#1266 = AXIS2_PLACEMENT_3D ( 'NONE', #124, #17, #627 ) ;
#1267 = CARTESIAN_POINT ( 'NONE',  ( 39.00000000000000711, 0.000000000000000000, 0.000000000000000000 ) ) ;
#1268 = DIRECTION ( 'NONE',  ( 0.000000000000000000, 0.000000000000000000, 1.000000000000000000 ) ) ;
#1269 = ORIENTED_EDGE ( 'NONE', *, *, #136, .F. ) ;
#1270 = DIRECTION ( 'NONE',  ( 1.000000000000000000, -0.000000000000000000, -0.000000000000000000 ) ) ;
#1271 = EDGE_CURVE ( 'NONE', #1190, #669, #665, .T. ) ;
#1272 =( NAMED_UNIT ( * ) PLANE_ANGLE_UNIT ( ) SI_UNIT ( $, .RADIAN. ) );
#1273 = PLANE ( 'NONE',  #35 ) ;
#1274 = ORIENTED_EDGE ( 'NONE', *, *, #1038, .F. ) ;
#1275 = EDGE_CURVE ( 'NONE', #1145, #997, #1259, .T. ) ;
#1276 = DIRECTION ( 'NONE',  ( 0.000000000000000000, 0.000000000000000000, -1.000000000000000000 ) ) ;
#1277 = DIRECTION ( 'NONE',  ( 0.000000000000000000, 0.000000000000000000, 1.000000000000000000 ) ) ;
#1278 = SURFACE_SIDE_STYLE ('',( #434 ) ) ;
#1279 = ORIENTED_EDGE ( 'NONE', *, *, #92, .F. ) ;
#1280 = CONICAL_SURFACE ( 'NONE', #1220, 5.499999999999998224, 0.7853981633974415066 ) ;
#1281 = FILL_AREA_STYLE_COLOUR ( '', #871 ) ;
#1282 = EDGE_CURVE ( 'NONE', #1329, #44, #93, .T. ) ;
#1283 = AXIS2_PLACEMENT_3D ( 'NONE', #1212, #159, #596 ) ;
#1284 = CARTESIAN_POINT ( 'NONE',  ( 20.00000000000000000, 3.673940397442062333E-16, 3.000000000000002220 ) ) ;
#1285 = ORIENTED_EDGE ( 'NONE', *, *, #1142, .T. ) ;
#1286 = DIRECTION ( 'NONE',  ( 1.000000000000000000, -0.000000000000000000, -0.000000000000000000 ) ) ;
#1287 = ORIENTED_EDGE ( 'NONE', *, *, #1098, .F. ) ;
#1288 = CARTESIAN_POINT ( 'NONE',  ( 12.14472730107585718, 2.988015160451067853, -6.500000000000000000 ) ) ;
#1289 = EDGE_CURVE ( 'NONE', #1085, #363, #454, .T. ) ;
#1290 = FACE_OUTER_BOUND ( 'NONE', #608, .T. ) ;
#1291 = ORIENTED_EDGE ( 'NONE', *, *, #1316, .T. ) ;
#1292 = LINE ( 'NONE', #1086, #1140 ) ;
#1293 = ORIENTED_EDGE ( 'NONE', *, *, #1036, .F. ) ;
#1294 = DIRECTION ( 'NONE',  ( 0.000000000000000000, 1.000000000000000000, -1.224646799147353207E-16 ) ) ;
#1295 = DIRECTION ( 'NONE',  ( 0.000000000000000000, 0.000000000000000000, -1.000000000000000000 ) ) ;
#1296 = ADVANCED_FACE ( 'NONE', ( #185 ), #155, .T. ) ;
#1297 = ORIENTED_EDGE ( 'NONE', *, *, #897, .F. ) ;
#1298 = CARTESIAN_POINT ( 'NONE',  ( 18.50000000000000000, 2.598076211353313347, 6.500000000000000888 ) ) ;
#1299 = AXIS2_PLACEMENT_3D ( 'NONE', #187, #599, #1330 ) ;
#1300 = AXIS2_PLACEMENT_3D ( 'NONE', #671, #994, #638 ) ;
#1301 = MECHANICAL_DESIGN_GEOMETRIC_PRESENTATION_REPRESENTATION (  '', ( #1194 ), #1135 ) ;
#1302 = ORIENTED_EDGE ( 'NONE', *, *, #552, .F. ) ;
#1303 = DIRECTION ( 'NONE',  ( -1.000000000000000000, 0.000000000000000000, 0.000000000000000000 ) ) ;
#1304 =( GEOMETRIC_REPRESENTATION_CONTEXT ( 3 ) GLOBAL_UNCERTAINTY_ASSIGNED_CONTEXT ( ( #301 ) ) GLOBAL_UNIT_ASSIGNED_CONTEXT ( ( #1079, #979, #241 ) ) REPRESENTATION_CONTEXT ( 'NONE', 'WORKASPACE' ) );
#1305 = CARTESIAN_POINT ( 'NONE',  ( 0.000000000000000000, 0.000000000000000000, 0.000000000000000000 ) ) ;
#1306 = AXIS2_PLACEMENT_3D ( 'NONE', #982, #900, #80 ) ;
#1307 = CARTESIAN_POINT ( 'NONE',  ( 11.40000000000000036, 4.408728476930471151E-16, -3.600000000000000089 ) ) ;
#1308 = ORIENTED_EDGE ( 'NONE', *, *, #214, .F. ) ;
#1309 = EDGE_CURVE ( 'NONE', #557, #1021, #719, .T. ) ;
#1310 = DIRECTION ( 'NONE',  ( 1.000000000000000000, -0.000000000000000000, -0.000000000000000000 ) ) ;
#1311 = ORIENTED_EDGE ( 'NONE', *, *, #1072, .F. ) ;
#1312 = CARTESIAN_POINT ( 'NONE',  ( 31.18431457505076310, 0.000000000000000000, -1.850000000000004086 ) ) ;
#1313 = FACE_OUTER_BOUND ( 'NONE', #717, .T. ) ;
#1314 = ORIENTED_EDGE ( 'NONE', *, *, #275, .F. ) ;
#1315 = FACE_BOUND ( 'NONE', #515, .T. ) ;
#1316 = EDGE_CURVE ( 'NONE', #917, #911, #1193, .T. ) ;
#1317 = CARTESIAN_POINT ( 'NONE',  ( 0.000000000000000000, 0.000000000000000000, 0.000000000000000000 ) ) ;
#1318 = DIRECTION ( 'NONE',  ( 1.000000000000000000, -0.000000000000000000, -0.000000000000000000 ) ) ;
#1319 =( LENGTH_UNIT ( ) NAMED_UNIT ( * ) SI_UNIT ( .MILLI., .METRE. ) );
#1320 = ORIENTED_EDGE ( 'NONE', *, *, #1251, .F. ) ;
#1321 = CARTESIAN_POINT ( 'NONE',  ( 0.000000000000000000, 3.061616997868388072E-16, 2.500000000000004441 ) ) ;
#1322 = CARTESIAN_POINT ( 'NONE',  ( 31.18431457505076310, 0.000000000000000000, 0.000000000000000000 ) ) ;
#1323 = PRESENTATION_LAYER_ASSIGNMENT (  '', '', ( #1087 ) ) ;
#1324 = DIRECTION ( 'NONE',  ( 0.000000000000000000, 0.000000000000000000, -1.000000000000000000 ) ) ;
#1325 = DIRECTION ( 'NONE',  ( 1.000000000000000000, -0.000000000000000000, -0.000000000000000000 ) ) ;
#1326 = AXIS2_PLACEMENT_3D ( 'NONE', #74, #467, #384 ) ;
#1327 = AXIS2_PLACEMENT_3D ( 'NONE', #82, #272, #1007 ) ;
#1328 = AXIS2_PLACEMENT_3D ( 'NONE', #297, #1035, #305 ) ;
#1329 = VERTEX_POINT ( 'NONE', #811 ) ;
#1330 = DIRECTION ( 'NONE',  ( 0.000000000000000000, 0.000000000000000000, -1.000000000000000000 ) ) ;
#1331 = LINE ( 'NONE', #626, #330 ) ;
#1332 = DIRECTION ( 'NONE',  ( 1.000000000000000000, 0.000000000000000000, -0.000000000000000000 ) ) ;
#1333 = EDGE_CURVE ( 'NONE', #11, #478, #499, .T. ) ;
#1334 = ORIENTED_EDGE ( 'NONE', *, *, #1203, .F. ) ;
#1335 = UNCERTAINTY_MEASURE_WITH_UNIT (LENGTH_MEASURE( 1.000000000000000082E-05 ), #749, 'distance_accuracy_value', 'NONE');
#1336 = ORIENTED_EDGE ( 'NONE', *, *, #353, .T. ) ;
#1337 = CARTESIAN_POINT ( 'NONE',  ( 29.50000000000000000, 3.551475717527330242E-16, -2.800000000000007372 ) ) ;
#1338 = CYLINDRICAL_SURFACE ( 'NONE', #435, 3.000000000000000000 ) ;
ENDSEC;
END-ISO-10303-21;
