ISO-10303-21;
HEADER;
FILE_DESCRIPTION (( 'STEP AP214' ),
    '1' );
FILE_NAME ('Distanzhülse Schneckenwelle 1.1.STEP',
    '2021-03-15T15:50:04',
    ( '' ),
    ( '' ),
    'SwSTEP 2.0',
    'SolidWorks 2018',
    '' );
FILE_SCHEMA (( 'AUTOMOTIVE_DESIGN' ));
ENDSEC;

DATA;
#1 = EDGE_CURVE ( 'NONE', #15, #167, #21, .T. ) ;
#2 = PRODUCT ( 'Distanzhülse Schneckenwelle 1.1', 'Distanzhülse Schneckenwelle 1.1', '', ( #340 ) ) ;
#3 = DIRECTION ( 'NONE',  ( 1.000000000000000000, 0.000000000000000000, 0.000000000000000000 ) ) ;
#4 = CYLINDRICAL_SURFACE ( 'NONE', #160, 12.00000000000000178 ) ;
#5 = ORIENTED_EDGE ( 'NONE', *, *, #29, .T. ) ;
#6 = ORIENTED_EDGE ( 'NONE', *, *, #89, .F. ) ;
#7 = DIRECTION ( 'NONE',  ( -1.000000000000000000, 0.000000000000000000, 0.000000000000000000 ) ) ;
#8 = AXIS2_PLACEMENT_3D ( 'NONE', #292, #296, #171 ) ;
#9 = CARTESIAN_POINT ( 'NONE',  ( 0.000000000000000000, 0.000000000000000000, 0.000000000000000000 ) ) ;
#10 = LINE ( 'NONE', #309, #289 ) ;
#11 = DIRECTION ( 'NONE',  ( 0.000000000000000000, 0.000000000000000000, -1.000000000000000000 ) ) ;
#12 = EDGE_LOOP ( 'NONE', ( #407, #23, #246, #134 ) ) ;
#13 = VECTOR ( 'NONE', #209, 1000.000000000000114 ) ;
#14 = AXIS2_PLACEMENT_3D ( 'NONE', #232, #69, #362 ) ;
#15 = VERTEX_POINT ( 'NONE', #130 ) ;
#16 = DIRECTION ( 'NONE',  ( 1.000000000000000000, 0.000000000000000000, 0.000000000000000000 ) ) ;
#17 = CARTESIAN_POINT ( 'NONE',  ( -9.000000000000001776, 0.000000000000000000, -17.00000000000000000 ) ) ;
#18 = CARTESIAN_POINT ( 'NONE',  ( 0.000000000000000000, 0.000000000000000000, -17.00000000000000000 ) ) ;
#19 = ADVANCED_FACE ( 'NONE', ( #125 ), #253, .F. ) ;
#20 = EDGE_CURVE ( 'NONE', #91, #65, #276, .T. ) ;
#21 = CIRCLE ( 'NONE', #263, 11.49999999999999822 ) ;
#22 =( NAMED_UNIT ( * ) SI_UNIT ( $, .STERADIAN. ) SOLID_ANGLE_UNIT ( ) );
#23 = ORIENTED_EDGE ( 'NONE', *, *, #124, .T. ) ;
#24 = FILL_AREA_STYLE ('',( #405 ) ) ;
#25 = DIRECTION ( 'NONE',  ( -0.7071067811865500152, 8.659560562354962440E-17, 0.7071067811865451302 ) ) ;
#26 = DIRECTION ( 'NONE',  ( -1.000000000000000000, 0.000000000000000000, 0.000000000000000000 ) ) ;
#27 = ADVANCED_FACE ( 'NONE', ( #319 ), #4, .T. ) ;
#28 = VECTOR ( 'NONE', #241, 1000.000000000000114 ) ;
#29 = EDGE_CURVE ( 'NONE', #145, #42, #192, .T. ) ;
#30 = FACE_OUTER_BOUND ( 'NONE', #12, .T. ) ;
#31 = VERTEX_POINT ( 'NONE', #206 ) ;
#32 = VECTOR ( 'NONE', #138, 1000.000000000000000 ) ;
#33 = ORIENTED_EDGE ( 'NONE', *, *, #389, .T. ) ;
#34 = EDGE_CURVE ( 'NONE', #219, #65, #200, .T. ) ;
#35 = PRODUCT_DEFINITION_CONTEXT ( 'detailed design', #150, 'design' ) ;
#36 = FILL_AREA_STYLE_COLOUR ( '', #327 ) ;
#37 = VECTOR ( 'NONE', #122, 1000.000000000000000 ) ;
#38 = EDGE_LOOP ( 'NONE', ( #189, #259 ) ) ;
#39 = AXIS2_PLACEMENT_3D ( 'NONE', #176, #374, #45 ) ;
#40 = EDGE_CURVE ( 'NONE', #145, #94, #57, .T. ) ;
#41 = DIRECTION ( 'NONE',  ( -0.000000000000000000, -0.000000000000000000, 1.000000000000000000 ) ) ;
#42 = VERTEX_POINT ( 'NONE', #394 ) ;
#43 = CARTESIAN_POINT ( 'NONE',  ( 0.000000000000000000, 0.000000000000000000, -0.5000000000000056621 ) ) ;
#44 = ORIENTED_EDGE ( 'NONE', *, *, #238, .T. ) ;
#45 = DIRECTION ( 'NONE',  ( -1.000000000000000000, 0.000000000000000000, 0.000000000000000000 ) ) ;
#46 = DIRECTION ( 'NONE',  ( 1.000000000000000000, 0.000000000000000000, 0.000000000000000000 ) ) ;
#47 = SURFACE_SIDE_STYLE ('',( #199 ) ) ;
#48 = AXIS2_PLACEMENT_3D ( 'NONE', #9, #222, #162 ) ;
#49 = ORIENTED_EDGE ( 'NONE', *, *, #40, .T. ) ;
#50 = DIRECTION ( 'NONE',  ( -0.000000000000000000, -0.000000000000000000, 1.000000000000000000 ) ) ;
#51 = EDGE_CURVE ( 'NONE', #94, #129, #314, .T. ) ;
#52 = DIRECTION ( 'NONE',  ( -1.000000000000000000, 0.000000000000000000, 0.000000000000000000 ) ) ;
#53 =( NAMED_UNIT ( * ) SI_UNIT ( $, .STERADIAN. ) SOLID_ANGLE_UNIT ( ) );
#54 = CARTESIAN_POINT ( 'NONE',  ( 0.000000000000000000, 0.000000000000000000, 0.000000000000000000 ) ) ;
#55 = CIRCLE ( 'NONE', #245, 11.49999999999999645 ) ;
#56 = CARTESIAN_POINT ( 'NONE',  ( 0.000000000000000000, 0.000000000000000000, 0.000000000000000000 ) ) ;
#57 = LINE ( 'NONE', #81, #32 ) ;
#58 = ORIENTED_EDGE ( 'NONE', *, *, #205, .F. ) ;
#59 = ADVANCED_FACE ( 'NONE', ( #107, #231 ), #76, .F. ) ;
#60 = AXIS2_PLACEMENT_3D ( 'NONE', #75, #300, #140 ) ;
#61 = ORIENTED_EDGE ( 'NONE', *, *, #1, .F. ) ;
#62 = DIRECTION ( 'NONE',  ( 0.7071067811865439090, 0.000000000000000000, 0.7071067811865512365 ) ) ;
#63 = AXIS2_PLACEMENT_3D ( 'NONE', #86, #144, #404 ) ;
#64 = ORIENTED_EDGE ( 'NONE', *, *, #20, .F. ) ;
#65 = VERTEX_POINT ( 'NONE', #331 ) ;
#66 = CARTESIAN_POINT ( 'NONE',  ( 0.000000000000000000, 0.000000000000000000, -17.00000000000000000 ) ) ;
#67 = LINE ( 'NONE', #349, #37 ) ;
#68 = ORIENTED_EDGE ( 'NONE', *, *, #85, .F. ) ;
#69 = DIRECTION ( 'NONE',  ( -0.000000000000000000, -0.000000000000000000, 1.000000000000000000 ) ) ;
#70 = EDGE_CURVE ( 'NONE', #408, #91, #252, .T. ) ;
#71 = CARTESIAN_POINT ( 'NONE',  ( 12.00000000000000178, 0.000000000000000000, -16.50000000000000000 ) ) ;
#72 = CONICAL_SURFACE ( 'NONE', #149, 8.500000000000000000, 0.7853981633974430610 ) ;
#73 = ORIENTED_EDGE ( 'NONE', *, *, #131, .F. ) ;
#74 = ORIENTED_EDGE ( 'NONE', *, *, #379, .F. ) ;
#75 = CARTESIAN_POINT ( 'NONE',  ( 0.000000000000000000, 0.000000000000000000, -0.5000000000000022204 ) ) ;
#76 = PLANE ( 'NONE',  #280 ) ;
#77 = CARTESIAN_POINT ( 'NONE',  ( 8.500000000000000000, 0.000000000000000000, -0.5000000000000056621 ) ) ;
#78 = AXIS2_PLACEMENT_3D ( 'NONE', #406, #50, #84 ) ;
#79 = LINE ( 'NONE', #211, #95 ) ;
#80 = DIRECTION ( 'NONE',  ( 1.000000000000000000, 0.000000000000000000, 0.000000000000000000 ) ) ;
#81 = CARTESIAN_POINT ( 'NONE',  ( 8.500000000000000000, 0.000000000000000000, 0.000000000000000000 ) ) ;
#82 = PRODUCT_RELATED_PRODUCT_CATEGORY ( 'part', '', ( #2 ) ) ;
#83 = CARTESIAN_POINT ( 'NONE',  ( 0.000000000000000000, 0.000000000000000000, 0.000000000000000000 ) ) ;
#84 = DIRECTION ( 'NONE',  ( 1.000000000000000000, 0.000000000000000000, 0.000000000000000000 ) ) ;
#85 = EDGE_CURVE ( 'NONE', #167, #15, #279, .T. ) ;
#86 = CARTESIAN_POINT ( 'NONE',  ( 0.000000000000000000, 8.500000000000000000, 0.000000000000000000 ) ) ;
#87 = ORIENTED_EDGE ( 'NONE', *, *, #97, .F. ) ;
#88 = ORIENTED_EDGE ( 'NONE', *, *, #92, .T. ) ;
#89 = EDGE_CURVE ( 'NONE', #65, #91, #386, .T. ) ;
#90 = CARTESIAN_POINT ( 'NONE',  ( -11.49999999999999822, 1.438959988998139963E-15, -17.00000000000000000 ) ) ;
#91 = VERTEX_POINT ( 'NONE', #172 ) ;
#92 = EDGE_CURVE ( 'NONE', #167, #258, #158, .T. ) ;
#93 = CIRCLE ( 'NONE', #39, 9.000000000000001776 ) ;
#94 = VERTEX_POINT ( 'NONE', #77 ) ;
#95 = VECTOR ( 'NONE', #179, 1000.000000000000114 ) ;
#96 = VERTEX_POINT ( 'NONE', #218 ) ;
#97 = EDGE_CURVE ( 'NONE', #129, #94, #213, .T. ) ;
#98 = ORIENTED_EDGE ( 'NONE', *, *, #131, .T. ) ;
#99 = EDGE_CURVE ( 'NONE', #145, #220, #79, .T. ) ;
#100 = FACE_OUTER_BOUND ( 'NONE', #38, .T. ) ;
#101 = ORIENTED_EDGE ( 'NONE', *, *, #195, .F. ) ;
#102 = ORIENTED_EDGE ( 'NONE', *, *, #326, .T. ) ;
#103 = AXIS2_PLACEMENT_3D ( 'NONE', #367, #11, #227 ) ;
#104 = DIRECTION ( 'NONE',  ( -0.000000000000000000, -0.000000000000000000, 1.000000000000000000 ) ) ;
#105 = DIRECTION ( 'NONE',  ( -0.000000000000000000, -0.000000000000000000, 1.000000000000000000 ) ) ;
#106 = LINE ( 'NONE', #147, #208 ) ;
#107 = FACE_OUTER_BOUND ( 'NONE', #355, .T. ) ;
#108 = ORIENTED_EDGE ( 'NONE', *, *, #109, .T. ) ;
#109 = EDGE_CURVE ( 'NONE', #42, #380, #354, .T. ) ;
#110 = DIRECTION ( 'NONE',  ( 1.000000000000000000, 0.000000000000000000, 0.000000000000000000 ) ) ;
#111 = STYLED_ITEM ( 'NONE', ( #376 ), #364 ) ;
#112 = ADVANCED_FACE ( 'NONE', ( #191 ), #304, .T. ) ;
#113 = CARTESIAN_POINT ( 'NONE',  ( 0.000000000000000000, 0.000000000000000000, -16.50000000000000000 ) ) ;
#114 = EDGE_LOOP ( 'NONE', ( #87, #267, #294, #315 ) ) ;
#115 = DIRECTION ( 'NONE',  ( -0.000000000000000000, -0.000000000000000000, 1.000000000000000000 ) ) ;
#116 = CARTESIAN_POINT ( 'NONE',  ( 0.000000000000000000, 0.000000000000000000, -0.5000000000000022204 ) ) ;
#117 = APPLICATION_PROTOCOL_DEFINITION ( 'draft international standard', 'automotive_design', 1998, #403 ) ;
#118 = FACE_OUTER_BOUND ( 'NONE', #173, .T. ) ;
#119 = PRESENTATION_STYLE_ASSIGNMENT (( #210 ) ) ;
#120 = VECTOR ( 'NONE', #135, 1000.000000000000114 ) ;
#121 = ORIENTED_EDGE ( 'NONE', *, *, #326, .F. ) ;
#122 = DIRECTION ( 'NONE',  ( -0.000000000000000000, -0.000000000000000000, 1.000000000000000000 ) ) ;
#123 = AXIS2_PLACEMENT_3D ( 'NONE', #18, #311, #80 ) ;
#124 = EDGE_CURVE ( 'NONE', #258, #65, #10, .T. ) ;
#125 = FACE_OUTER_BOUND ( 'NONE', #247, .T. ) ;
#126 = CARTESIAN_POINT ( 'NONE',  ( 0.000000000000000000, 0.000000000000000000, -16.50000000000000000 ) ) ;
#127 = AXIS2_PLACEMENT_3D ( 'NONE', #226, #197, #203 ) ;
#128 = ORIENTED_EDGE ( 'NONE', *, *, #352, .F. ) ;
#129 = VERTEX_POINT ( 'NONE', #343 ) ;
#130 = CARTESIAN_POINT ( 'NONE',  ( 11.49999999999999822, 0.000000000000000000, -17.00000000000000000 ) ) ;
#131 = EDGE_CURVE ( 'NONE', #137, #91, #412, .T. ) ;
#132 = CYLINDRICAL_SURFACE ( 'NONE', #248, 8.500000000000000000 ) ;
#133 = MECHANICAL_DESIGN_GEOMETRIC_PRESENTATION_REPRESENTATION (  '', ( #111 ), #291 ) ;
#134 = ORIENTED_EDGE ( 'NONE', *, *, #70, .F. ) ;
#135 = DIRECTION ( 'NONE',  ( -0.7071067811865500152, 0.000000000000000000, -0.7071067811865451302 ) ) ;
#136 = CONICAL_SURFACE ( 'NONE', #48, 11.49999999999999645, 0.7853981633974517207 ) ;
#137 = VERTEX_POINT ( 'NONE', #271 ) ;
#138 = DIRECTION ( 'NONE',  ( -0.000000000000000000, -0.000000000000000000, 1.000000000000000000 ) ) ;
#139 = CARTESIAN_POINT ( 'NONE',  ( -11.49999999999999645, 0.000000000000000000, 0.000000000000000000 ) ) ;
#140 = DIRECTION ( 'NONE',  ( -1.000000000000000000, 0.000000000000000000, 0.000000000000000000 ) ) ;
#141 = AXIS2_PLACEMENT_3D ( 'NONE', #301, #237, #330 ) ;
#142 = DIRECTION ( 'NONE',  ( 1.000000000000000000, 0.000000000000000000, 0.000000000000000000 ) ) ;
#143 = CIRCLE ( 'NONE', #186, 8.500000000000000000 ) ;
#144 = DIRECTION ( 'NONE',  ( 0.000000000000000000, 0.000000000000000000, -1.000000000000000000 ) ) ;
#145 = VERTEX_POINT ( 'NONE', #335 ) ;
#146 = CARTESIAN_POINT ( 'NONE',  ( 8.500000000000000000, 0.000000000000000000, -0.5000000000000056621 ) ) ;
#147 = CARTESIAN_POINT ( 'NONE',  ( -8.500000000000000000, 1.040949779275250140E-15, -0.5000000000000056621 ) ) ;
#148 = CARTESIAN_POINT ( 'NONE',  ( 11.49999999999999645, 1.408343819019455781E-15, 0.000000000000000000 ) ) ;
#149 = AXIS2_PLACEMENT_3D ( 'NONE', #174, #261, #142 ) ;
#150 = APPLICATION_CONTEXT ( 'automotive_design' ) ;
#151 = DIRECTION ( 'NONE',  ( -0.7071067811865439090, 8.659560562354888485E-17, 0.7071067811865512365 ) ) ;
#152 = ADVANCED_FACE ( 'NONE', ( #359 ), #224, .F. ) ;
#153 = ORIENTED_EDGE ( 'NONE', *, *, #51, .F. ) ;
#154 = ORIENTED_EDGE ( 'NONE', *, *, #109, .F. ) ;
#155 = EDGE_CURVE ( 'NONE', #129, #96, #106, .T. ) ;
#156 = ADVANCED_FACE ( 'NONE', ( #382 ), #372, .F. ) ;
#157 = DIRECTION ( 'NONE',  ( -1.000000000000000000, 0.000000000000000000, 0.000000000000000000 ) ) ;
#158 = LINE ( 'NONE', #409, #194 ) ;
#159 = ORIENTED_EDGE ( 'NONE', *, *, #85, .T. ) ;
#160 = AXIS2_PLACEMENT_3D ( 'NONE', #329, #104, #46 ) ;
#161 = ORIENTED_EDGE ( 'NONE', *, *, #34, .T. ) ;
#162 = DIRECTION ( 'NONE',  ( -1.000000000000000000, 0.000000000000000000, 0.000000000000000000 ) ) ;
#163 = VECTOR ( 'NONE', #105, 1000.000000000000000 ) ;
#164 = AXIS2_PLACEMENT_3D ( 'NONE', #371, #115, #342 ) ;
#165 = EDGE_LOOP ( 'NONE', ( #68, #88, #306, #193 ) ) ;
#166 = FACE_OUTER_BOUND ( 'NONE', #242, .T. ) ;
#167 = VERTEX_POINT ( 'NONE', #90 ) ;
#168 = ORIENTED_EDGE ( 'NONE', *, *, #366, .T. ) ;
#169 = DIRECTION ( 'NONE',  ( -1.000000000000000000, 0.000000000000000000, 0.000000000000000000 ) ) ;
#170 = CARTESIAN_POINT ( 'NONE',  ( 12.00000000000000178, 0.000000000000000000, -16.50000000000000000 ) ) ;
#171 = DIRECTION ( 'NONE',  ( 1.000000000000000000, 0.000000000000000000, 0.000000000000000000 ) ) ;
#172 = CARTESIAN_POINT ( 'NONE',  ( 12.00000000000000178, 0.000000000000000000, -0.5000000000000022204 ) ) ;
#173 = EDGE_LOOP ( 'NONE', ( #251, #153, #33, #221 ) ) ;
#174 = CARTESIAN_POINT ( 'NONE',  ( 0.000000000000000000, 0.000000000000000000, -0.5000000000000056621 ) ) ;
#175 = DIRECTION ( 'NONE',  ( -0.000000000000000000, -0.000000000000000000, -1.000000000000000000 ) ) ;
#176 = CARTESIAN_POINT ( 'NONE',  ( 0.000000000000000000, 0.000000000000000000, 0.000000000000000000 ) ) ;
#177 = DIRECTION ( 'NONE',  ( 0.000000000000000000, 0.000000000000000000, 1.000000000000000000 ) ) ;
#178 = AXIS2_PLACEMENT_3D ( 'NONE', #54, #268, #26 ) ;
#179 = DIRECTION ( 'NONE',  ( 0.7071067811865474617, 8.659560562354932858E-17, -0.7071067811865474617 ) ) ;
#180 = CARTESIAN_POINT ( 'NONE',  ( 0.000000000000000000, 0.000000000000000000, -0.5000000000000056621 ) ) ;
#181 = APPLICATION_PROTOCOL_DEFINITION ( 'draft international standard', 'automotive_design', 1998, #150 ) ;
#182 = DIRECTION ( 'NONE',  ( -0.000000000000000000, -0.000000000000000000, -1.000000000000000000 ) ) ;
#183 = CIRCLE ( 'NONE', #229, 12.00000000000000178 ) ;
#184 = ORIENTED_EDGE ( 'NONE', *, *, #20, .T. ) ;
#185 = EDGE_LOOP ( 'NONE', ( #73, #74, #161, #64 ) ) ;
#186 = AXIS2_PLACEMENT_3D ( 'NONE', #113, #334, #240 ) ;
#187 = CIRCLE ( 'NONE', #103, 9.000000000000001776 ) ;
#188 = DIRECTION ( 'NONE',  ( -0.000000000000000000, -0.000000000000000000, 1.000000000000000000 ) ) ;
#189 = ORIENTED_EDGE ( 'NONE', *, *, #379, .T. ) ;
#190 = AXIS2_PLACEMENT_3D ( 'NONE', #180, #177, #52 ) ;
#191 = FACE_OUTER_BOUND ( 'NONE', #277, .T. ) ;
#192 = CIRCLE ( 'NONE', #233, 8.500000000000000000 ) ;
#193 = ORIENTED_EDGE ( 'NONE', *, *, #238, .F. ) ;
#194 = VECTOR ( 'NONE', #25, 1000.000000000000114 ) ;
#195 = EDGE_CURVE ( 'NONE', #42, #129, #67, .T. ) ;
#196 = EDGE_LOOP ( 'NONE', ( #101, #254, #49, #216 ) ) ;
#197 = DIRECTION ( 'NONE',  ( -0.000000000000000000, -0.000000000000000000, 1.000000000000000000 ) ) ;
#198 =( NAMED_UNIT ( * ) PLANE_ANGLE_UNIT ( ) SI_UNIT ( $, .RADIAN. ) );
#199 = SURFACE_STYLE_FILL_AREA ( #24 ) ;
#200 = LINE ( 'NONE', #395, #120 ) ;
#201 = ORIENTED_EDGE ( 'NONE', *, *, #360, .F. ) ;
#202 = CARTESIAN_POINT ( 'NONE',  ( 0.000000000000000000, 0.000000000000000000, 0.000000000000000000 ) ) ;
#203 = DIRECTION ( 'NONE',  ( 1.000000000000000000, 0.000000000000000000, 0.000000000000000000 ) ) ;
#204 = DIRECTION ( 'NONE',  ( 0.000000000000000000, 0.000000000000000000, -1.000000000000000000 ) ) ;
#205 = EDGE_CURVE ( 'NONE', #380, #220, #264, .T. ) ;
#206 = CARTESIAN_POINT ( 'NONE',  ( 9.000000000000001776, 0.000000000000000000, 0.000000000000000000 ) ) ;
#207 = SURFACE_STYLE_USAGE ( .BOTH. , #239 ) ;
#208 = VECTOR ( 'NONE', #151, 999.9999999999998863 ) ;
#209 = DIRECTION ( 'NONE',  ( 0.7071067811865500152, 8.659560562354962440E-17, -0.7071067811865451302 ) ) ;
#210 = SURFACE_STYLE_USAGE ( .BOTH. , #47 ) ;
#211 = CARTESIAN_POINT ( 'NONE',  ( 9.000000000000001776, 1.102182119232617911E-15, -17.00000000000000000 ) ) ;
#212 = LINE ( 'NONE', #146, #347 ) ;
#213 = CIRCLE ( 'NONE', #190, 8.500000000000000000 ) ;
#214 = UNCERTAINTY_MEASURE_WITH_UNIT (LENGTH_MEASURE( 1.000000000000000082E-05 ), #266, 'distance_accuracy_value', 'NONE');
#215 = DIRECTION ( 'NONE',  ( -0.000000000000000000, -0.000000000000000000, 1.000000000000000000 ) ) ;
#216 = ORIENTED_EDGE ( 'NONE', *, *, #51, .T. ) ;
#217 = EDGE_CURVE ( 'NONE', #96, #31, #187, .T. ) ;
#218 = CARTESIAN_POINT ( 'NONE',  ( -9.000000000000001776, 1.102182119232617911E-15, 0.000000000000000000 ) ) ;
#219 = VERTEX_POINT ( 'NONE', #139 ) ;
#220 = VERTEX_POINT ( 'NONE', #411 ) ;
#221 = ORIENTED_EDGE ( 'NONE', *, *, #217, .F. ) ;
#222 = DIRECTION ( 'NONE',  ( 0.000000000000000000, 0.000000000000000000, -1.000000000000000000 ) ) ;
#223 = AXIS2_PLACEMENT_3D ( 'NONE', #83, #313, #282 ) ;
#224 = CYLINDRICAL_SURFACE ( 'NONE', #78, 8.500000000000000000 ) ;
#225 = EDGE_LOOP ( 'NONE', ( #387, #290 ) ) ;
#226 = CARTESIAN_POINT ( 'NONE',  ( 0.000000000000000000, 0.000000000000000000, -16.50000000000000000 ) ) ;
#227 = DIRECTION ( 'NONE',  ( -1.000000000000000000, 0.000000000000000000, 0.000000000000000000 ) ) ;
#228 = CIRCLE ( 'NONE', #223, 11.49999999999999645 ) ;
#229 = AXIS2_PLACEMENT_3D ( 'NONE', #396, #41, #255 ) ;
#230 = DIRECTION ( 'NONE',  ( 0.7071067811865500152, 0.000000000000000000, 0.7071067811865451302 ) ) ;
#231 = FACE_BOUND ( 'NONE', #356, .T. ) ;
#232 = CARTESIAN_POINT ( 'NONE',  ( 0.000000000000000000, 0.000000000000000000, -17.00000000000000000 ) ) ;
#233 = AXIS2_PLACEMENT_3D ( 'NONE', #302, #175, #368 ) ;
#234 = FACE_OUTER_BOUND ( 'NONE', #165, .T. ) ;
#235 = PRODUCT_DEFINITION_FORMATION_WITH_SPECIFIED_SOURCE ( 'ANY', '', #2, .NOT_KNOWN. ) ;
#236 = ORIENTED_EDGE ( 'NONE', *, *, #99, .T. ) ;
#237 = DIRECTION ( 'NONE',  ( 0.000000000000000000, 0.000000000000000000, 1.000000000000000000 ) ) ;
#238 = EDGE_CURVE ( 'NONE', #15, #408, #323, .T. ) ;
#239 = SURFACE_SIDE_STYLE ('',( #274 ) ) ;
#240 = DIRECTION ( 'NONE',  ( 1.000000000000000000, 0.000000000000000000, 0.000000000000000000 ) ) ;
#241 = DIRECTION ( 'NONE',  ( -0.7071067811865474617, 0.000000000000000000, -0.7071067811865474617 ) ) ;
#242 = EDGE_LOOP ( 'NONE', ( #5, #320, #281, #400 ) ) ;
#243 = ORIENTED_EDGE ( 'NONE', *, *, #29, .F. ) ;
#244 = CARTESIAN_POINT ( 'NONE',  ( -9.000000000000001776, 0.000000000000000000, -17.00000000000000000 ) ) ;
#245 = AXIS2_PLACEMENT_3D ( 'NONE', #287, #384, #7 ) ;
#246 = ORIENTED_EDGE ( 'NONE', *, *, #89, .T. ) ;
#247 = EDGE_LOOP ( 'NONE', ( #383, #128, #108, #121 ) ) ;
#248 = AXIS2_PLACEMENT_3D ( 'NONE', #56, #215, #3 ) ;
#249 = MECHANICAL_DESIGN_GEOMETRIC_PRESENTATION_REPRESENTATION (  '', ( #321 ), #410 ) ;
#250 = SHAPE_DEFINITION_REPRESENTATION ( #278, #364 ) ;
#251 = ORIENTED_EDGE ( 'NONE', *, *, #155, .F. ) ;
#252 = LINE ( 'NONE', #391, #163 ) ;
#253 = CONICAL_SURFACE ( 'NONE', #275, 9.000000000000001776, 0.7853981633974482790 ) ;
#254 = ORIENTED_EDGE ( 'NONE', *, *, #352, .T. ) ;
#255 = DIRECTION ( 'NONE',  ( 1.000000000000000000, 0.000000000000000000, 0.000000000000000000 ) ) ;
#256 = CIRCLE ( 'NONE', #123, 9.000000000000001776 ) ;
#257 = VECTOR ( 'NONE', #230, 1000.000000000000114 ) ;
#258 = VERTEX_POINT ( 'NONE', #388 ) ;
#259 = ORIENTED_EDGE ( 'NONE', *, *, #360, .T. ) ;
#260 =( LENGTH_UNIT ( ) NAMED_UNIT ( * ) SI_UNIT ( .MILLI., .METRE. ) );
#261 = DIRECTION ( 'NONE',  ( 0.000000000000000000, 0.000000000000000000, 1.000000000000000000 ) ) ;
#262 = UNCERTAINTY_MEASURE_WITH_UNIT (LENGTH_MEASURE( 1.000000000000000082E-05 ), #370, 'distance_accuracy_value', 'NONE');
#263 = AXIS2_PLACEMENT_3D ( 'NONE', #288, #324, #358 ) ;
#264 = CIRCLE ( 'NONE', #14, 9.000000000000001776 ) ;
#265 = AXIS2_PLACEMENT_3D ( 'NONE', #202, #369, #310 ) ;
#266 =( LENGTH_UNIT ( ) NAMED_UNIT ( * ) SI_UNIT ( .MILLI., .METRE. ) );
#267 = ORIENTED_EDGE ( 'NONE', *, *, #155, .T. ) ;
#268 = DIRECTION ( 'NONE',  ( 0.000000000000000000, 0.000000000000000000, -1.000000000000000000 ) ) ;
#269 = ADVANCED_FACE ( 'NONE', ( #348 ), #399, .T. ) ;
#270 = PLANE ( 'NONE',  #63 ) ;
#271 = CARTESIAN_POINT ( 'NONE',  ( 11.49999999999999645, 1.438959988998139963E-15, 0.000000000000000000 ) ) ;
#272 = PRESENTATION_LAYER_ASSIGNMENT (  '', '', ( #111 ) ) ;
#273 = ADVANCED_FACE ( 'NONE', ( #234 ), #293, .T. ) ;
#274 = SURFACE_STYLE_FILL_AREA ( #401 ) ;
#275 = AXIS2_PLACEMENT_3D ( 'NONE', #66, #322, #357 ) ;
#276 = CIRCLE ( 'NONE', #60, 12.00000000000000178 ) ;
#277 = EDGE_LOOP ( 'NONE', ( #201, #98, #6, #339 ) ) ;
#278 = PRODUCT_DEFINITION_SHAPE ( 'NONE', 'NONE',  #317 ) ;
#279 = CIRCLE ( 'NONE', #351, 11.49999999999999822 ) ;
#280 = AXIS2_PLACEMENT_3D ( 'NONE', #298, #363, #110 ) ;
#281 = ORIENTED_EDGE ( 'NONE', *, *, #97, .T. ) ;
#282 = DIRECTION ( 'NONE',  ( -1.000000000000000000, 0.000000000000000000, 0.000000000000000000 ) ) ;
#283 = UNCERTAINTY_MEASURE_WITH_UNIT (LENGTH_MEASURE( 1.000000000000000082E-05 ), #260, 'distance_accuracy_value', 'NONE');
#284 = FACE_BOUND ( 'NONE', #225, .T. ) ;
#285 = EDGE_LOOP ( 'NONE', ( #365, #168, #325, #184 ) ) ;
#286 =( GEOMETRIC_REPRESENTATION_CONTEXT ( 3 ) GLOBAL_UNCERTAINTY_ASSIGNED_CONTEXT ( ( #283 ) ) GLOBAL_UNIT_ASSIGNED_CONTEXT ( ( #260, #198, #295 ) ) REPRESENTATION_CONTEXT ( 'NONE', 'WORKASPACE' ) );
#287 = CARTESIAN_POINT ( 'NONE',  ( 0.000000000000000000, 0.000000000000000000, 0.000000000000000000 ) ) ;
#288 = CARTESIAN_POINT ( 'NONE',  ( 0.000000000000000000, 0.000000000000000000, -17.00000000000000000 ) ) ;
#289 = VECTOR ( 'NONE', #307, 1000.000000000000000 ) ;
#290 = ORIENTED_EDGE ( 'NONE', *, *, #217, .T. ) ;
#291 =( GEOMETRIC_REPRESENTATION_CONTEXT ( 3 ) GLOBAL_UNCERTAINTY_ASSIGNED_CONTEXT ( ( #214 ) ) GLOBAL_UNIT_ASSIGNED_CONTEXT ( ( #266, #336, #22 ) ) REPRESENTATION_CONTEXT ( 'NONE', 'WORKASPACE' ) );
#292 = CARTESIAN_POINT ( 'NONE',  ( 0.000000000000000000, 0.000000000000000000, -16.50000000000000000 ) ) ;
#293 = CONICAL_SURFACE ( 'NONE', #127, 12.00000000000000178, 0.7853981633974517207 ) ;
#294 = ORIENTED_EDGE ( 'NONE', *, *, #308, .F. ) ;
#295 =( NAMED_UNIT ( * ) SI_UNIT ( $, .STERADIAN. ) SOLID_ANGLE_UNIT ( ) );
#296 = DIRECTION ( 'NONE',  ( -0.000000000000000000, -0.000000000000000000, 1.000000000000000000 ) ) ;
#297 = ORIENTED_EDGE ( 'NONE', *, *, #1, .T. ) ;
#298 = CARTESIAN_POINT ( 'NONE',  ( 0.000000000000000000, 8.500000000000000000, -17.00000000000000000 ) ) ;
#299 = AXIS2_PLACEMENT_3D ( 'NONE', #116, #344, #338 ) ;
#300 = DIRECTION ( 'NONE',  ( 0.000000000000000000, 0.000000000000000000, -1.000000000000000000 ) ) ;
#301 = CARTESIAN_POINT ( 'NONE',  ( 0.000000000000000000, 0.000000000000000000, -0.5000000000000056621 ) ) ;
#302 = CARTESIAN_POINT ( 'NONE',  ( 0.000000000000000000, 0.000000000000000000, -16.50000000000000000 ) ) ;
#303 = CONICAL_SURFACE ( 'NONE', #141, 8.500000000000000000, 0.7853981633974430610 ) ;
#304 = CONICAL_SURFACE ( 'NONE', #178, 11.49999999999999645, 0.7853981633974517207 ) ;
#305 = ADVANCED_FACE ( 'NONE', ( #30 ), #377, .T. ) ;
#306 = ORIENTED_EDGE ( 'NONE', *, *, #414, .F. ) ;
#307 = DIRECTION ( 'NONE',  ( -0.000000000000000000, -0.000000000000000000, 1.000000000000000000 ) ) ;
#308 = EDGE_CURVE ( 'NONE', #31, #96, #93, .T. ) ;
#309 = CARTESIAN_POINT ( 'NONE',  ( -12.00000000000000178, 1.469576158976824144E-15, 0.000000000000000000 ) ) ;
#310 = DIRECTION ( 'NONE',  ( 1.000000000000000000, 0.000000000000000000, 0.000000000000000000 ) ) ;
#311 = DIRECTION ( 'NONE',  ( -0.000000000000000000, -0.000000000000000000, 1.000000000000000000 ) ) ;
#312 = MANIFOLD_SOLID_BREP ( 'Fase1', #341 ) ;
#313 = DIRECTION ( 'NONE',  ( -0.000000000000000000, -0.000000000000000000, 1.000000000000000000 ) ) ;
#314 = CIRCLE ( 'NONE', #346, 8.500000000000000000 ) ;
#315 = ORIENTED_EDGE ( 'NONE', *, *, #389, .F. ) ;
#316 = ADVANCED_FACE ( 'NONE', ( #284, #100 ), #270, .F. ) ;
#317 = PRODUCT_DEFINITION ( 'UNKNOWN', '', #235, #35 ) ;
#318 = AXIS2_PLACEMENT_3D ( 'NONE', #373, #182, #157 ) ;
#319 = FACE_OUTER_BOUND ( 'NONE', #285, .T. ) ;
#320 = ORIENTED_EDGE ( 'NONE', *, *, #195, .T. ) ;
#321 = STYLED_ITEM ( 'NONE', ( #119 ), #312 ) ;
#322 = DIRECTION ( 'NONE',  ( -0.000000000000000000, -0.000000000000000000, -1.000000000000000000 ) ) ;
#323 = LINE ( 'NONE', #71, #257 ) ;
#324 = DIRECTION ( 'NONE',  ( 0.000000000000000000, 0.000000000000000000, -1.000000000000000000 ) ) ;
#325 = ORIENTED_EDGE ( 'NONE', *, *, #70, .T. ) ;
#326 = EDGE_CURVE ( 'NONE', #220, #380, #256, .T. ) ;
#327 = COLOUR_RGB ( '',0.5294117647058823595, 0.5490196078431373028, 0.5490196078431373028 ) ;
#328 = DIRECTION ( 'NONE',  ( 0.000000000000000000, 0.000000000000000000, 1.000000000000000000 ) ) ;
#329 = CARTESIAN_POINT ( 'NONE',  ( 0.000000000000000000, 0.000000000000000000, 0.000000000000000000 ) ) ;
#330 = DIRECTION ( 'NONE',  ( 1.000000000000000000, 0.000000000000000000, 0.000000000000000000 ) ) ;
#331 = CARTESIAN_POINT ( 'NONE',  ( -12.00000000000000178, 1.469576158976824144E-15, -0.5000000000000022204 ) ) ;
#332 = AXIS2_PLACEMENT_3D ( 'NONE', #126, #188, #381 ) ;
#333 = ADVANCED_FACE ( 'NONE', ( #118 ), #303, .F. ) ;
#334 = DIRECTION ( 'NONE',  ( -0.000000000000000000, -0.000000000000000000, -1.000000000000000000 ) ) ;
#335 = CARTESIAN_POINT ( 'NONE',  ( 8.500000000000000000, 0.000000000000000000, -16.50000000000000000 ) ) ;
#336 =( NAMED_UNIT ( * ) PLANE_ANGLE_UNIT ( ) SI_UNIT ( $, .RADIAN. ) );
#337 = CIRCLE ( 'NONE', #332, 12.00000000000000178 ) ;
#338 = DIRECTION ( 'NONE',  ( -1.000000000000000000, 0.000000000000000000, 0.000000000000000000 ) ) ;
#339 = ORIENTED_EDGE ( 'NONE', *, *, #34, .F. ) ;
#340 = PRODUCT_CONTEXT ( 'NONE', #403, 'mechanical' ) ;
#341 = CLOSED_SHELL ( 'NONE', ( #112, #345, #156, #273, #375, #305, #316, #27, #59, #152, #269, #19, #333, #398 ) ) ;
#342 = DIRECTION ( 'NONE',  ( 1.000000000000000000, 0.000000000000000000, 0.000000000000000000 ) ) ;
#343 = CARTESIAN_POINT ( 'NONE',  ( -8.500000000000000000, 1.040949779275250140E-15, -0.5000000000000056621 ) ) ;
#344 = DIRECTION ( 'NONE',  ( 0.000000000000000000, 0.000000000000000000, -1.000000000000000000 ) ) ;
#345 = ADVANCED_FACE ( 'NONE', ( #353 ), #72, .F. ) ;
#346 = AXIS2_PLACEMENT_3D ( 'NONE', #43, #328, #169 ) ;
#347 = VECTOR ( 'NONE', #62, 999.9999999999998863 ) ;
#348 = FACE_OUTER_BOUND ( 'NONE', #393, .T. ) ;
#349 = CARTESIAN_POINT ( 'NONE',  ( -8.500000000000000000, 1.040949779275250140E-15, 0.000000000000000000 ) ) ;
#350 = COLOUR_RGB ( '',0.5294117647058823595, 0.5490196078431373028, 0.5490196078431373028 ) ;
#351 = AXIS2_PLACEMENT_3D ( 'NONE', #397, #204, #16 ) ;
#352 = EDGE_CURVE ( 'NONE', #42, #145, #143, .T. ) ;
#353 = FACE_OUTER_BOUND ( 'NONE', #114, .T. ) ;
#354 = LINE ( 'NONE', #244, #28 ) ;
#355 = EDGE_LOOP ( 'NONE', ( #297, #159 ) ) ;
#356 = EDGE_LOOP ( 'NONE', ( #361, #102 ) ) ;
#357 = DIRECTION ( 'NONE',  ( -1.000000000000000000, 0.000000000000000000, 0.000000000000000000 ) ) ;
#358 = DIRECTION ( 'NONE',  ( 1.000000000000000000, 0.000000000000000000, 0.000000000000000000 ) ) ;
#359 = FACE_OUTER_BOUND ( 'NONE', #196, .T. ) ;
#360 = EDGE_CURVE ( 'NONE', #137, #219, #228, .T. ) ;
#361 = ORIENTED_EDGE ( 'NONE', *, *, #205, .T. ) ;
#362 = DIRECTION ( 'NONE',  ( 1.000000000000000000, 0.000000000000000000, 0.000000000000000000 ) ) ;
#363 = DIRECTION ( 'NONE',  ( 0.000000000000000000, -0.000000000000000000, 1.000000000000000000 ) ) ;
#364 = ADVANCED_BREP_SHAPE_REPRESENTATION ( 'Distanzh³lse Schneckenwelle 1.1', ( #312, #265 ), #286 ) ;
#365 = ORIENTED_EDGE ( 'NONE', *, *, #124, .F. ) ;
#366 = EDGE_CURVE ( 'NONE', #258, #408, #337, .T. ) ;
#367 = CARTESIAN_POINT ( 'NONE',  ( 0.000000000000000000, 0.000000000000000000, 0.000000000000000000 ) ) ;
#368 = DIRECTION ( 'NONE',  ( 1.000000000000000000, 0.000000000000000000, 0.000000000000000000 ) ) ;
#369 = DIRECTION ( 'NONE',  ( 0.000000000000000000, 0.000000000000000000, 1.000000000000000000 ) ) ;
#370 =( LENGTH_UNIT ( ) NAMED_UNIT ( * ) SI_UNIT ( .MILLI., .METRE. ) );
#371 = CARTESIAN_POINT ( 'NONE',  ( 0.000000000000000000, 0.000000000000000000, 0.000000000000000000 ) ) ;
#372 = CONICAL_SURFACE ( 'NONE', #318, 9.000000000000001776, 0.7853981633974482790 ) ;
#373 = CARTESIAN_POINT ( 'NONE',  ( 0.000000000000000000, 0.000000000000000000, -17.00000000000000000 ) ) ;
#374 = DIRECTION ( 'NONE',  ( 0.000000000000000000, 0.000000000000000000, -1.000000000000000000 ) ) ;
#375 = ADVANCED_FACE ( 'NONE', ( #166 ), #132, .F. ) ;
#376 = PRESENTATION_STYLE_ASSIGNMENT (( #207 ) ) ;
#377 = CYLINDRICAL_SURFACE ( 'NONE', #164, 12.00000000000000178 ) ;
#378 = ORIENTED_EDGE ( 'NONE', *, *, #366, .F. ) ;
#379 = EDGE_CURVE ( 'NONE', #219, #137, #55, .T. ) ;
#380 = VERTEX_POINT ( 'NONE', #17 ) ;
#381 = DIRECTION ( 'NONE',  ( 1.000000000000000000, 0.000000000000000000, 0.000000000000000000 ) ) ;
#382 = FACE_OUTER_BOUND ( 'NONE', #413, .T. ) ;
#383 = ORIENTED_EDGE ( 'NONE', *, *, #99, .F. ) ;
#384 = DIRECTION ( 'NONE',  ( -0.000000000000000000, -0.000000000000000000, 1.000000000000000000 ) ) ;
#385 = PRESENTATION_LAYER_ASSIGNMENT (  '', '', ( #321 ) ) ;
#386 = CIRCLE ( 'NONE', #299, 12.00000000000000178 ) ;
#387 = ORIENTED_EDGE ( 'NONE', *, *, #308, .T. ) ;
#388 = CARTESIAN_POINT ( 'NONE',  ( -12.00000000000000178, 1.469576158976824144E-15, -16.50000000000000000 ) ) ;
#389 = EDGE_CURVE ( 'NONE', #94, #31, #212, .T. ) ;
#390 = FACE_OUTER_BOUND ( 'NONE', #185, .T. ) ;
#391 = CARTESIAN_POINT ( 'NONE',  ( 12.00000000000000178, 0.000000000000000000, 0.000000000000000000 ) ) ;
#392 = ORIENTED_EDGE ( 'NONE', *, *, #92, .F. ) ;
#393 = EDGE_LOOP ( 'NONE', ( #392, #61, #44, #378 ) ) ;
#394 = CARTESIAN_POINT ( 'NONE',  ( -8.500000000000000000, 1.040949779275250140E-15, -16.50000000000000000 ) ) ;
#395 = CARTESIAN_POINT ( 'NONE',  ( -11.49999999999999645, 0.000000000000000000, 0.000000000000000000 ) ) ;
#396 = CARTESIAN_POINT ( 'NONE',  ( 0.000000000000000000, 0.000000000000000000, -16.50000000000000000 ) ) ;
#397 = CARTESIAN_POINT ( 'NONE',  ( 0.000000000000000000, 0.000000000000000000, -17.00000000000000000 ) ) ;
#398 = ADVANCED_FACE ( 'NONE', ( #390 ), #136, .T. ) ;
#399 = CONICAL_SURFACE ( 'NONE', #8, 12.00000000000000178, 0.7853981633974517207 ) ;
#400 = ORIENTED_EDGE ( 'NONE', *, *, #40, .F. ) ;
#401 = FILL_AREA_STYLE ('',( #36 ) ) ;
#402 =( NAMED_UNIT ( * ) PLANE_ANGLE_UNIT ( ) SI_UNIT ( $, .RADIAN. ) );
#403 = APPLICATION_CONTEXT ( 'automotive_design' ) ;
#404 = DIRECTION ( 'NONE',  ( -1.000000000000000000, 0.000000000000000000, -0.000000000000000000 ) ) ;
#405 = FILL_AREA_STYLE_COLOUR ( '', #350 ) ;
#406 = CARTESIAN_POINT ( 'NONE',  ( 0.000000000000000000, 0.000000000000000000, 0.000000000000000000 ) ) ;
#407 = ORIENTED_EDGE ( 'NONE', *, *, #414, .T. ) ;
#408 = VERTEX_POINT ( 'NONE', #170 ) ;
#409 = CARTESIAN_POINT ( 'NONE',  ( -12.00000000000000178, 1.469576158976824144E-15, -16.50000000000000000 ) ) ;
#410 =( GEOMETRIC_REPRESENTATION_CONTEXT ( 3 ) GLOBAL_UNCERTAINTY_ASSIGNED_CONTEXT ( ( #262 ) ) GLOBAL_UNIT_ASSIGNED_CONTEXT ( ( #370, #402, #53 ) ) REPRESENTATION_CONTEXT ( 'NONE', 'WORKASPACE' ) );
#411 = CARTESIAN_POINT ( 'NONE',  ( 9.000000000000001776, 1.102182119232617911E-15, -17.00000000000000000 ) ) ;
#412 = LINE ( 'NONE', #148, #13 ) ;
#413 = EDGE_LOOP ( 'NONE', ( #243, #236, #58, #154 ) ) ;
#414 = EDGE_CURVE ( 'NONE', #408, #258, #183, .T. ) ;
ENDSEC;
END-ISO-10303-21;
