ISO-10303-21;
HEADER;
FILE_DESCRIPTION (( 'STEP AP214' ),
    '1' );
FILE_NAME ('E.Flex_01_LEDHalteblech1_V1.0.STEP',
    '2025-09-01T13:47:11',
    ( '' ),
    ( '' ),
    'SwSTEP 2.0',
    'SolidWorks 2021',
    '' );
FILE_SCHEMA (( 'AUTOMOTIVE_DESIGN' ));
ENDSEC;

DATA;
#1 = CARTESIAN_POINT ( 'NONE',  ( 2.000000000000000000, 38.00000000000000000, 30.00000000000000000 ) ) ;
#2 = VECTOR ( 'NONE', #940, 1000.000000000000000 ) ;
#3 = ORIENTED_EDGE ( 'NONE', *, *, #380, .F. ) ;
#4 = AXIS2_PLACEMENT_3D ( 'NONE', #244, #920, #317 ) ;
#5 = LINE ( 'NONE', #815, #344 ) ;
#6 = CARTESIAN_POINT ( 'NONE',  ( -25.00000000000000000, 40.00000000000000000, 30.00000000000000000 ) ) ;
#7 = FACE_OUTER_BOUND ( 'NONE', #486, .T. ) ;
#8 = ORIENTED_EDGE ( 'NONE', *, *, #23, .T. ) ;
#9 = UNCERTAINTY_MEASURE_WITH_UNIT (LENGTH_MEASURE( 1.000000000000000082E-05 ), #213, 'distance_accuracy_value', 'NONE');
#10 = CARTESIAN_POINT ( 'NONE',  ( -12.50000000000000355, 42.00000000000000000, 7.050000000000002487 ) ) ;
#11 = EDGE_CURVE ( 'NONE', #26, #262, #941, .T. ) ;
#12 = DIRECTION ( 'NONE',  ( -0.000000000000000000, -1.000000000000000000, -0.000000000000000000 ) ) ;
#13 = ORIENTED_EDGE ( 'NONE', *, *, #40, .F. ) ;
#14 = DIRECTION ( 'NONE',  ( 0.000000000000000000, 0.000000000000000000, 1.000000000000000000 ) ) ;
#15 = EDGE_CURVE ( 'NONE', #474, #283, #41, .T. ) ;
#16 = AXIS2_PLACEMENT_3D ( 'NONE', #281, #918, #267 ) ;
#17 = ORIENTED_EDGE ( 'NONE', *, *, #536, .F. ) ;
#18 = CIRCLE ( 'NONE', #143, 2.749999999999995559 ) ;
#19 = CIRCLE ( 'NONE', #814, 1.700000000000000178 ) ;
#20 = CARTESIAN_POINT ( 'NONE',  ( 2.000000000000000000, 0.000000000000000000, 2.000000000000001776 ) ) ;
#21 = PRODUCT ( 'E.Flex_01_LEDHalteblech1_V1.0', 'E.Flex_01_LEDHalteblech1_V1.0', '', ( #345 ) ) ;
#22 = CARTESIAN_POINT ( 'NONE',  ( -23.00000000000000000, 38.00000000000000000, 30.00000000000000000 ) ) ;
#23 = EDGE_CURVE ( 'NONE', #553, #391, #771, .T. ) ;
#24 = ORIENTED_EDGE ( 'NONE', *, *, #284, .F. ) ;
#25 = DIRECTION ( 'NONE',  ( 0.000000000000000000, 0.000000000000000000, -1.000000000000000000 ) ) ;
#26 = VERTEX_POINT ( 'NONE', #402 ) ;
#27 = EDGE_CURVE ( 'NONE', #927, #593, #361, .T. ) ;
#28 = FACE_OUTER_BOUND ( 'NONE', #782, .T. ) ;
#29 = CARTESIAN_POINT ( 'NONE',  ( -25.00000000000000000, 6.249999999999998224, 6.999999999999995559 ) ) ;
#30 = DIRECTION ( 'NONE',  ( 0.000000000000000000, 0.000000000000000000, -1.000000000000000000 ) ) ;
#31 = PLANE ( 'NONE',  #128 ) ;
#32 = VECTOR ( 'NONE', #499, 1000.000000000000000 ) ;
#33 = CARTESIAN_POINT ( 'NONE',  ( -12.50000000000000355, 42.00000000000000000, 21.24999999999999645 ) ) ;
#34 = AXIS2_PLACEMENT_3D ( 'NONE', #412, #860, #190 ) ;
#35 = DIRECTION ( 'NONE',  ( 0.000000000000000000, -1.000000000000000000, 0.000000000000000000 ) ) ;
#36 = DIRECTION ( 'NONE',  ( 0.000000000000000000, -3.154042683594193641E-16, 1.000000000000000000 ) ) ;
#37 = FACE_OUTER_BOUND ( 'NONE', #331, .T. ) ;
#38 = VERTEX_POINT ( 'NONE', #335 ) ;
#39 = DIRECTION ( 'NONE',  ( 0.000000000000000000, 0.000000000000000000, -1.000000000000000000 ) ) ;
#40 = EDGE_CURVE ( 'NONE', #582, #737, #325, .T. ) ;
#41 = LINE ( 'NONE', #934, #746 ) ;
#42 = ORIENTED_EDGE ( 'NONE', *, *, #428, .F. ) ;
#43 = FILL_AREA_STYLE_COLOUR ( '', #590 ) ;
#44 =( NAMED_UNIT ( * ) PLANE_ANGLE_UNIT ( ) SI_UNIT ( $, .RADIAN. ) );
#45 = EDGE_CURVE ( 'NONE', #687, #368, #376, .T. ) ;
#46 = CARTESIAN_POINT ( 'NONE',  ( 0.000000000000000000, 6.249999999999998224, 6.999999999999995559 ) ) ;
#47 = EDGE_LOOP ( 'NONE', ( #437, #826, #279, #480 ) ) ;
#48 = CARTESIAN_POINT ( 'NONE',  ( -25.00000000000000000, 33.74999999999999289, 7.000000000000004441 ) ) ;
#49 = VECTOR ( 'NONE', #425, 1000.000000000000000 ) ;
#50 = AXIS2_PLACEMENT_3D ( 'NONE', #320, #259, #836 ) ;
#51 = CARTESIAN_POINT ( 'NONE',  ( 2.000000000000000000, 0.000000000000000000, 2.000000000000001776 ) ) ;
#52 = CARTESIAN_POINT ( 'NONE',  ( 2.000000000000001776, 6.249999999999998224, 6.999999999999995559 ) ) ;
#53 = EDGE_CURVE ( 'NONE', #262, #593, #409, .T. ) ;
#54 = EDGE_LOOP ( 'NONE', ( #780, #958, #233, #755 ) ) ;
#55 = DIRECTION ( 'NONE',  ( -0.000000000000000000, -1.000000000000000000, -0.000000000000000000 ) ) ;
#56 = EDGE_LOOP ( 'NONE', ( #194, #937, #3, #81 ) ) ;
#57 = DIRECTION ( 'NONE',  ( -0.000000000000000000, -1.000000000000000000, -0.000000000000000000 ) ) ;
#58 = DIRECTION ( 'NONE',  ( 1.000000000000000000, -0.000000000000000000, -0.000000000000000000 ) ) ;
#59 = DIRECTION ( 'NONE',  ( 0.000000000000000000, 0.000000000000000000, 1.000000000000000000 ) ) ;
#60 = FACE_OUTER_BOUND ( 'NONE', #217, .T. ) ;
#61 = ORIENTED_EDGE ( 'NONE', *, *, #623, .T. ) ;
#62 = EDGE_CURVE ( 'NONE', #183, #440, #573, .T. ) ;
#63 = CARTESIAN_POINT ( 'NONE',  ( -2.000000000000000000, 40.00000000000000000, 30.00000000000000000 ) ) ;
#64 = ORIENTED_EDGE ( 'NONE', *, *, #910, .T. ) ;
#65 = DIRECTION ( 'NONE',  ( 0.000000000000000000, 1.000000000000000000, 3.154042683594193641E-16 ) ) ;
#66 = DIRECTION ( 'NONE',  ( 0.000000000000000000, -0.000000000000000000, -1.000000000000000000 ) ) ;
#67 = ORIENTED_EDGE ( 'NONE', *, *, #633, .T. ) ;
#68 = DIRECTION ( 'NONE',  ( 0.000000000000000000, 1.000000000000000000, 3.154042683594193641E-16 ) ) ;
#69 = ADVANCED_FACE ( 'NONE', ( #708 ), #329, .T. ) ;
#70 = CARTESIAN_POINT ( 'NONE',  ( -25.00000000000000000, 6.249999999999992006, 9.749999999999991118 ) ) ;
#71 = AXIS2_PLACEMENT_3D ( 'NONE', #419, #947, #140 ) ;
#72 = ADVANCED_BREP_SHAPE_REPRESENTATION ( 'E.Flex_01_LEDHalteblech1_V1.0', ( #898, #917 ), #275 ) ;
#73 = AXIS2_PLACEMENT_3D ( 'NONE', #650, #502, #865 ) ;
#74 = CARTESIAN_POINT ( 'NONE',  ( 0.000000000000000000, 40.00000000000000000, 30.00000000000000000 ) ) ;
#75 = EDGE_LOOP ( 'NONE', ( #395, #640, #819, #91 ) ) ;
#76 = DIRECTION ( 'NONE',  ( 0.000000000000000000, -1.000000000000000000, 0.000000000000000000 ) ) ;
#77 = ORIENTED_EDGE ( 'NONE', *, *, #899, .T. ) ;
#78 = CARTESIAN_POINT ( 'NONE',  ( -12.50000000000000355, 40.00000000000000000, 7.050000000000002487 ) ) ;
#79 = EDGE_LOOP ( 'NONE', ( #657, #896, #587, #712 ) ) ;
#80 = AXIS2_PLACEMENT_3D ( 'NONE', #253, #692, #164 ) ;
#81 = ORIENTED_EDGE ( 'NONE', *, *, #53, .T. ) ;
#82 = AXIS2_PLACEMENT_3D ( 'NONE', #843, #911, #476 ) ;
#83 = EDGE_CURVE ( 'NONE', #447, #964, #204, .T. ) ;
#84 = PLANE ( 'NONE',  #750 ) ;
#85 = ORIENTED_EDGE ( 'NONE', *, *, #909, .T. ) ;
#86 = DIRECTION ( 'NONE',  ( 0.000000000000000000, 0.000000000000000000, -1.000000000000000000 ) ) ;
#87 = LINE ( 'NONE', #532, #291 ) ;
#88 = DIRECTION ( 'NONE',  ( 0.000000000000000000, 0.000000000000000000, 1.000000000000000000 ) ) ;
#89 = DIRECTION ( 'NONE',  ( -0.000000000000000000, -0.000000000000000000, -1.000000000000000000 ) ) ;
#90 = VERTEX_POINT ( 'NONE', #489 ) ;
#91 = ORIENTED_EDGE ( 'NONE', *, *, #117, .F. ) ;
#92 = DIRECTION ( 'NONE',  ( -1.000000000000000000, 0.000000000000000000, -0.000000000000000000 ) ) ;
#93 = VECTOR ( 'NONE', #89, 1000.000000000000000 ) ;
#94 = VECTOR ( 'NONE', #488, 1000.000000000000000 ) ;
#95 = ORIENTED_EDGE ( 'NONE', *, *, #266, .F. ) ;
#96 = CARTESIAN_POINT ( 'NONE',  ( -12.50000000000000355, 40.00000000000000000, 8.750000000000000000 ) ) ;
#97 = CARTESIAN_POINT ( 'NONE',  ( -25.00000000000000000, 40.00000000000000000, 30.00000000000000000 ) ) ;
#98 = ORIENTED_EDGE ( 'NONE', *, *, #595, .F. ) ;
#99 = DIRECTION ( 'NONE',  ( 0.000000000000000000, 0.000000000000000000, -1.000000000000000000 ) ) ;
#100 = LINE ( 'NONE', #357, #423 ) ;
#101 = EDGE_CURVE ( 'NONE', #627, #474, #695, .T. ) ;
#102 = VERTEX_POINT ( 'NONE', #635 ) ;
#103 = CARTESIAN_POINT ( 'NONE',  ( -25.00000000000000000, 40.00000000000000000, 2.000000000000001776 ) ) ;
#104 = SHAPE_DEFINITION_REPRESENTATION ( #477, #72 ) ;
#105 = CARTESIAN_POINT ( 'NONE',  ( 0.000000000000000000, 0.000000000000000000, 30.00000000000000000 ) ) ;
#106 = PLANE ( 'NONE',  #579 ) ;
#107 = VECTOR ( 'NONE', #35, 1000.000000000000000 ) ;
#108 = EDGE_LOOP ( 'NONE', ( #142, #565, #641, #95 ) ) ;
#109 = EDGE_CURVE ( 'NONE', #813, #690, #483, .T. ) ;
#110 = FACE_OUTER_BOUND ( 'NONE', #470, .T. ) ;
#111 = CIRCLE ( 'NONE', #129, 2.749999999999999112 ) ;
#112 = LINE ( 'NONE', #118, #235 ) ;
#113 = CARTESIAN_POINT ( 'NONE',  ( -25.00000000000000000, 40.00000000000000000, 2.000000000000001776 ) ) ;
#114 = EDGE_LOOP ( 'NONE', ( #42, #243 ) ) ;
#115 = CYLINDRICAL_SURFACE ( 'NONE', #591, 1.699999999999998401 ) ;
#116 = ORIENTED_EDGE ( 'NONE', *, *, #935, .T. ) ;
#117 = EDGE_CURVE ( 'NONE', #440, #950, #112, .T. ) ;
#118 = CARTESIAN_POINT ( 'NONE',  ( 0.000000000000000000, 8.121659910255048528E-15, 4.250000000000000000 ) ) ;
#119 = ORIENTED_EDGE ( 'NONE', *, *, #850, .F. ) ;
#120 = SURFACE_STYLE_FILL_AREA ( #639 ) ;
#121 = CARTESIAN_POINT ( 'NONE',  ( 2.000000000000000000, 0.000000000000000000, 0.000000000000000000 ) ) ;
#122 = EDGE_CURVE ( 'NONE', #950, #742, #556, .T. ) ;
#123 = CARTESIAN_POINT ( 'NONE',  ( 2.000000000000001776, 33.75000000000000000, 23.00000000000000355 ) ) ;
#124 = ORIENTED_EDGE ( 'NONE', *, *, #11, .T. ) ;
#125 = LINE ( 'NONE', #203, #891 ) ;
#126 = VERTEX_POINT ( 'NONE', #51 ) ;
#127 = DIRECTION ( 'NONE',  ( 1.000000000000000000, 0.000000000000000000, -0.000000000000000000 ) ) ;
#128 = AXIS2_PLACEMENT_3D ( 'NONE', #311, #535, #326 ) ;
#129 = AXIS2_PLACEMENT_3D ( 'NONE', #427, #336, #195 ) ;
#130 = AXIS2_PLACEMENT_3D ( 'NONE', #946, #570, #432 ) ;
#131 = VERTEX_POINT ( 'NONE', #347 ) ;
#132 = EDGE_LOOP ( 'NONE', ( #649, #944, #147, #219 ) ) ;
#133 = CARTESIAN_POINT ( 'NONE',  ( 2.000000000000000000, 38.00000000000000000, 30.00000000000000000 ) ) ;
#134 = FILL_AREA_STYLE ('',( #740 ) ) ;
#135 = FACE_OUTER_BOUND ( 'NONE', #108, .T. ) ;
#136 = FACE_BOUND ( 'NONE', #460, .T. ) ;
#137 = ORIENTED_EDGE ( 'NONE', *, *, #536, .T. ) ;
#138 = DIRECTION ( 'NONE',  ( -0.000000000000000000, -1.000000000000000000, -0.000000000000000000 ) ) ;
#139 = ORIENTED_EDGE ( 'NONE', *, *, #11, .F. ) ;
#140 = DIRECTION ( 'NONE',  ( 0.000000000000000000, 0.000000000000000000, -1.000000000000000000 ) ) ;
#141 = CARTESIAN_POINT ( 'NONE',  ( -12.50000000000000355, 40.00000000000000000, 22.94999999999999929 ) ) ;
#142 = ORIENTED_EDGE ( 'NONE', *, *, #62, .T. ) ;
#143 = AXIS2_PLACEMENT_3D ( 'NONE', #52, #415, #949 ) ;
#144 = VECTOR ( 'NONE', #282, 1000.000000000000000 ) ;
#145 = CARTESIAN_POINT ( 'NONE',  ( -2.000000000000000000, 42.00000000000000000, 0.000000000000000000 ) ) ;
#146 = AXIS2_PLACEMENT_3D ( 'NONE', #493, #418, #792 ) ;
#147 = ORIENTED_EDGE ( 'NONE', *, *, #45, .F. ) ;
#148 = DIRECTION ( 'NONE',  ( -1.000000000000000000, 0.000000000000000000, 0.000000000000000000 ) ) ;
#149 = ORIENTED_EDGE ( 'NONE', *, *, #472, .F. ) ;
#150 = VERTEX_POINT ( 'NONE', #200 ) ;
#151 = DIRECTION ( 'NONE',  ( 0.000000000000000000, 0.000000000000000000, -1.000000000000000000 ) ) ;
#152 = PRODUCT_DEFINITION ( 'UNKNOWN', '', #171, #765 ) ;
#153 = EDGE_CURVE ( 'NONE', #690, #737, #933, .T. ) ;
#154 = DIRECTION ( 'NONE',  ( -1.000000000000000000, 0.000000000000000000, 0.000000000000000000 ) ) ;
#155 = ORIENTED_EDGE ( 'NONE', *, *, #216, .F. ) ;
#156 = DIRECTION ( 'NONE',  ( 1.000000000000000000, 0.000000000000000000, 0.000000000000000000 ) ) ;
#157 = VECTOR ( 'NONE', #676, 1000.000000000000000 ) ;
#158 = VECTOR ( 'NONE', #721, 1000.000000000000000 ) ;
#159 = ORIENTED_EDGE ( 'NONE', *, *, #153, .F. ) ;
#160 = VECTOR ( 'NONE', #355, 1000.000000000000000 ) ;
#161 = DIRECTION ( 'NONE',  ( 1.000000000000000000, 0.000000000000000000, 0.000000000000000000 ) ) ;
#162 = ORIENTED_EDGE ( 'NONE', *, *, #388, .F. ) ;
#163 = EDGE_CURVE ( 'NONE', #263, #102, #446, .T. ) ;
#164 = DIRECTION ( 'NONE',  ( 0.000000000000000000, 0.000000000000000000, 1.000000000000000000 ) ) ;
#165 = ADVANCED_FACE ( 'NONE', ( #584, #586, #736 ), #439, .T. ) ;
#166 = ORIENTED_EDGE ( 'NONE', *, *, #691, .T. ) ;
#167 = PLANE ( 'NONE',  #4 ) ;
#168 = ORIENTED_EDGE ( 'NONE', *, *, #580, .T. ) ;
#169 = CIRCLE ( 'NONE', #903, 2.000000000000001776 ) ;
#170 = LINE ( 'NONE', #628, #697 ) ;
#171 = PRODUCT_DEFINITION_FORMATION_WITH_SPECIFIED_SOURCE ( 'ANY', '', #21, .NOT_KNOWN. ) ;
#172 = ADVANCED_FACE ( 'NONE', ( #887 ), #665, .T. ) ;
#173 = CYLINDRICAL_SURFACE ( 'NONE', #795, 2.000000000000000000 ) ;
#174 = ORIENTED_EDGE ( 'NONE', *, *, #706, .T. ) ;
#175 = CARTESIAN_POINT ( 'NONE',  ( -2.000000000000000000, 38.00000000000000000, 30.00000000000000000 ) ) ;
#176 = ADVANCED_FACE ( 'NONE', ( #303, #136, #370 ), #574, .F. ) ;
#177 = ORIENTED_EDGE ( 'NONE', *, *, #693, .F. ) ;
#178 = ORIENTED_EDGE ( 'NONE', *, *, #616, .T. ) ;
#179 = LINE ( 'NONE', #332, #186 ) ;
#180 = ORIENTED_EDGE ( 'NONE', *, *, #365, .F. ) ;
#181 = EDGE_CURVE ( 'NONE', #752, #38, #874, .T. ) ;
#182 = LINE ( 'NONE', #261, #401 ) ;
#183 = VERTEX_POINT ( 'NONE', #739 ) ;
#184 = AXIS2_PLACEMENT_3D ( 'NONE', #145, #883, #726 ) ;
#185 = DIRECTION ( 'NONE',  ( 0.000000000000000000, -2.523234146875360041E-15, -1.000000000000000000 ) ) ;
#186 = VECTOR ( 'NONE', #549, 1000.000000000000000 ) ;
#187 = DIRECTION ( 'NONE',  ( -1.000000000000000000, 0.000000000000000000, 0.000000000000000000 ) ) ;
#188 = CARTESIAN_POINT ( 'NONE',  ( 2.000000000000000000, 0.000000000000000000, 30.00000000000000000 ) ) ;
#189 = VERTEX_POINT ( 'NONE', #823 ) ;
#190 = DIRECTION ( 'NONE',  ( 0.000000000000000000, 0.000000000000000000, -1.000000000000000000 ) ) ;
#191 = EDGE_CURVE ( 'NONE', #678, #799, #817, .T. ) ;
#192 = PRESENTATION_STYLE_ASSIGNMENT (( #926 ) ) ;
#193 = CYLINDRICAL_SURFACE ( 'NONE', #761, 2.749999999999999112 ) ;
#194 = ORIENTED_EDGE ( 'NONE', *, *, #550, .T. ) ;
#195 = DIRECTION ( 'NONE',  ( 0.000000000000000000, 0.000000000000000000, 1.000000000000000000 ) ) ;
#196 = ORIENTED_EDGE ( 'NONE', *, *, #550, .F. ) ;
#197 = CARTESIAN_POINT ( 'NONE',  ( 0.000000000000000000, 2.000000000000001776, 2.000000000000000000 ) ) ;
#198 = PLANE ( 'NONE',  #146 ) ;
#199 = DIRECTION ( 'NONE',  ( -1.000000000000000000, 0.000000000000000000, 0.000000000000000000 ) ) ;
#200 = CARTESIAN_POINT ( 'NONE',  ( 2.000000000000000000, 2.000000000000000000, 30.00000000000000000 ) ) ;
#201 = CARTESIAN_POINT ( 'NONE',  ( 2.000000000000001776, 6.249999999999995559, 4.250000000000005329 ) ) ;
#202 = EDGE_LOOP ( 'NONE', ( #722, #371, #8, #768 ) ) ;
#203 = CARTESIAN_POINT ( 'NONE',  ( 2.000000000000000000, 0.000000000000000000, 4.250000000000010658 ) ) ;
#204 = CIRCLE ( 'NONE', #452, 2.000000000000001776 ) ;
#205 = LINE ( 'NONE', #121, #589 ) ;
#206 = CIRCLE ( 'NONE', #290, 4.000000000000000000 ) ;
#207 = EDGE_CURVE ( 'NONE', #912, #560, #228, .T. ) ;
#208 = AXIS2_PLACEMENT_3D ( 'NONE', #197, #929, #349 ) ;
#209 = DIRECTION ( 'NONE',  ( -1.000000000000000000, 0.000000000000000000, 0.000000000000000000 ) ) ;
#210 = FACE_OUTER_BOUND ( 'NONE', #602, .T. ) ;
#211 = ORIENTED_EDGE ( 'NONE', *, *, #408, .F. ) ;
#212 = LINE ( 'NONE', #852, #828 ) ;
#213 =( LENGTH_UNIT ( ) NAMED_UNIT ( * ) SI_UNIT ( .MILLI., .METRE. ) );
#214 = DIRECTION ( 'NONE',  ( 0.000000000000000000, 0.000000000000000000, -1.000000000000000000 ) ) ;
#215 = DIRECTION ( 'NONE',  ( -0.000000000000000000, 1.000000000000000000, 0.000000000000000000 ) ) ;
#216 = EDGE_CURVE ( 'NONE', #305, #288, #811, .T. ) ;
#217 = EDGE_LOOP ( 'NONE', ( #174, #624, #270, #116 ) ) ;
#218 = FACE_OUTER_BOUND ( 'NONE', #337, .T. ) ;
#219 = ORIENTED_EDGE ( 'NONE', *, *, #608, .F. ) ;
#220 = ORIENTED_EDGE ( 'NONE', *, *, #566, .F. ) ;
#221 = VECTOR ( 'NONE', #962, 1000.000000000000000 ) ;
#222 = AXIS2_PLACEMENT_3D ( 'NONE', #96, #57, #604 ) ;
#223 = CARTESIAN_POINT ( 'NONE',  ( 0.000000000000000000, 42.00000000000000000, 30.00000000000000000 ) ) ;
#224 = ORIENTED_EDGE ( 'NONE', *, *, #334, .T. ) ;
#225 = DIRECTION ( 'NONE',  ( 1.000000000000000000, -0.000000000000000000, -0.000000000000000000 ) ) ;
#226 = CARTESIAN_POINT ( 'NONE',  ( 2.000000000000001332, 6.250000000000000000, 20.25000000000000355 ) ) ;
#227 = ADVANCED_FACE ( 'NONE', ( #592 ), #956, .T. ) ;
#228 = LINE ( 'NONE', #1, #529 ) ;
#229 = ORIENTED_EDGE ( 'NONE', *, *, #840, .T. ) ;
#230 = CARTESIAN_POINT ( 'NONE',  ( -25.00000000000000000, 42.00000000000000000, 27.99999999999999645 ) ) ;
#231 = CARTESIAN_POINT ( 'NONE',  ( -2.000000000000000000, 40.00000000000000000, 30.00000000000000000 ) ) ;
#232 = PLANE ( 'NONE',  #669 ) ;
#233 = ORIENTED_EDGE ( 'NONE', *, *, #284, .T. ) ;
#234 = FACE_OUTER_BOUND ( 'NONE', #276, .T. ) ;
#235 = VECTOR ( 'NONE', #414, 1000.000000000000000 ) ;
#236 = VECTOR ( 'NONE', #538, 1000.000000000000000 ) ;
#237 = DIRECTION ( 'NONE',  ( 0.000000000000000000, 0.000000000000000000, 1.000000000000000000 ) ) ;
#238 = VECTOR ( 'NONE', #308, 1000.000000000000000 ) ;
#239 = EDGE_LOOP ( 'NONE', ( #534, #577, #837, #638 ) ) ;
#240 = CARTESIAN_POINT ( 'NONE',  ( 0.000000000000000000, 38.00000000000000000, 30.00000000000000000 ) ) ;
#241 = CARTESIAN_POINT ( 'NONE',  ( -12.50000000000000355, 42.00000000000000000, 10.44999999999999929 ) ) ;
#242 = EDGE_CURVE ( 'NONE', #737, #687, #875, .T. ) ;
#243 = ORIENTED_EDGE ( 'NONE', *, *, #466, .F. ) ;
#244 = CARTESIAN_POINT ( 'NONE',  ( -2.000000000000000000, 38.00000000000000000, 30.00000000000000000 ) ) ;
#245 = CARTESIAN_POINT ( 'NONE',  ( -25.00000000000000000, 42.00000000000000000, 30.00000000000000000 ) ) ;
#246 = ORIENTED_EDGE ( 'NONE', *, *, #322, .F. ) ;
#247 = PLANE ( 'NONE',  #80 ) ;
#248 = ORIENTED_EDGE ( 'NONE', *, *, #428, .T. ) ;
#249 = FACE_OUTER_BOUND ( 'NONE', #733, .T. ) ;
#250 = DIRECTION ( 'NONE',  ( 1.000000000000000000, 0.000000000000000000, 0.000000000000000000 ) ) ;
#251 = VECTOR ( 'NONE', #857, 1000.000000000000000 ) ;
#252 = ORIENTED_EDGE ( 'NONE', *, *, #40, .T. ) ;
#253 = CARTESIAN_POINT ( 'NONE',  ( 2.000000000000000000, 0.000000000000000000, 30.00000000000000000 ) ) ;
#254 = AXIS2_PLACEMENT_3D ( 'NONE', #632, #800, #656 ) ;
#255 = PRODUCT_RELATED_PRODUCT_CATEGORY ( 'part', '', ( #21 ) ) ;
#256 = DIRECTION ( 'NONE',  ( -0.000000000000000000, -0.000000000000000000, 1.000000000000000000 ) ) ;
#257 = EDGE_CURVE ( 'NONE', #818, #447, #524, .T. ) ;
#258 = CARTESIAN_POINT ( 'NONE',  ( -23.00000000000000000, 40.00000000000000000, 27.99999999999999645 ) ) ;
#259 = DIRECTION ( 'NONE',  ( 0.000000000000000000, 1.000000000000000000, 0.000000000000000000 ) ) ;
#260 = DIRECTION ( 'NONE',  ( -0.000000000000000000, -0.000000000000000000, -1.000000000000000000 ) ) ;
#261 = CARTESIAN_POINT ( 'NONE',  ( 0.000000000000000000, -1.230076646601735205E-15, 20.25000000000000355 ) ) ;
#262 = VERTEX_POINT ( 'NONE', #802 ) ;
#263 = VERTEX_POINT ( 'NONE', #434 ) ;
#264 = CARTESIAN_POINT ( 'NONE',  ( -12.50000000000000355, 40.00000000000000000, 7.050000000000002487 ) ) ;
#265 = APPLICATION_PROTOCOL_DEFINITION ( 'draft international standard', 'automotive_design', 1998, #713 ) ;
#266 = EDGE_CURVE ( 'NONE', #183, #288, #358, .T. ) ;
#267 = DIRECTION ( 'NONE',  ( -1.000000000000000000, 0.000000000000000000, 0.000000000000000000 ) ) ;
#268 = CARTESIAN_POINT ( 'NONE',  ( -25.00000000000000000, 6.249999999999992006, 4.250000000000000888 ) ) ;
#269 = EDGE_CURVE ( 'NONE', #927, #189, #294, .T. ) ;
#270 = ORIENTED_EDGE ( 'NONE', *, *, #257, .F. ) ;
#271 = DIRECTION ( 'NONE',  ( 0.000000000000000000, 0.000000000000000000, -1.000000000000000000 ) ) ;
#272 = VECTOR ( 'NONE', #660, 1000.000000000000000 ) ;
#273 = CIRCLE ( 'NONE', #82, 1.699999999999998401 ) ;
#274 = DIRECTION ( 'NONE',  ( 1.000000000000000000, -0.000000000000000000, -0.000000000000000000 ) ) ;
#275 =( GEOMETRIC_REPRESENTATION_CONTEXT ( 3 ) GLOBAL_UNCERTAINTY_ASSIGNED_CONTEXT ( ( #749 ) ) GLOBAL_UNIT_ASSIGNED_CONTEXT ( ( #724, #44, #363 ) ) REPRESENTATION_CONTEXT ( 'NONE', 'WORKASPACE' ) );
#276 = EDGE_LOOP ( 'NONE', ( #785, #67, #381, #342 ) ) ;
#277 = ORIENTED_EDGE ( 'NONE', *, *, #872, .T. ) ;
#278 = PRESENTATION_STYLE_ASSIGNMENT (( #938 ) ) ;
#279 = ORIENTED_EDGE ( 'NONE', *, *, #889, .T. ) ;
#280 = DIRECTION ( 'NONE',  ( 0.000000000000000000, 0.000000000000000000, 1.000000000000000000 ) ) ;
#281 = CARTESIAN_POINT ( 'NONE',  ( -2.000000000000000000, 38.00000000000000000, 0.000000000000000000 ) ) ;
#282 = DIRECTION ( 'NONE',  ( -0.000000000000000000, -0.000000000000000000, -1.000000000000000000 ) ) ;
#283 = VERTEX_POINT ( 'NONE', #141 ) ;
#284 = EDGE_CURVE ( 'NONE', #102, #927, #731, .T. ) ;
#285 = CARTESIAN_POINT ( 'NONE',  ( 2.000000000000000000, 2.000000000000000000, 30.00000000000000000 ) ) ;
#286 = DIRECTION ( 'NONE',  ( -0.000000000000000000, -1.000000000000000000, -0.000000000000000000 ) ) ;
#287 = DIRECTION ( 'NONE',  ( 1.000000000000000000, 0.000000000000000000, 0.000000000000000000 ) ) ;
#288 = VERTEX_POINT ( 'NONE', #297 ) ;
#289 = FACE_OUTER_BOUND ( 'NONE', #924, .T. ) ;
#290 = AXIS2_PLACEMENT_3D ( 'NONE', #699, #936, #500 ) ;
#291 = VECTOR ( 'NONE', #605, 1000.000000000000000 ) ;
#292 = VECTOR ( 'NONE', #723, 1000.000000000000000 ) ;
#293 = ADVANCED_FACE ( 'NONE', ( #218 ), #318, .F. ) ;
#294 = LINE ( 'NONE', #581, #272 ) ;
#295 = ORIENTED_EDGE ( 'NONE', *, *, #779, .F. ) ;
#296 = CARTESIAN_POINT ( 'NONE',  ( -23.00000000000000000, 40.00000000000000000, 0.000000000000000000 ) ) ;
#297 = CARTESIAN_POINT ( 'NONE',  ( 2.000000000000001776, 33.75000000000000000, 9.749999999999998224 ) ) ;
#298 = ORIENTED_EDGE ( 'NONE', *, *, #921, .T. ) ;
#299 = CARTESIAN_POINT ( 'NONE',  ( -2.000000000000000000, 2.000000000000001776, 0.000000000000000000 ) ) ;
#300 = EDGE_CURVE ( 'NONE', #90, #447, #754, .T. ) ;
#301 = ORIENTED_EDGE ( 'NONE', *, *, #691, .F. ) ;
#302 = CIRCLE ( 'NONE', #71, 1.699999999999998401 ) ;
#303 = FACE_BOUND ( 'NONE', #316, .T. ) ;
#304 = MECHANICAL_DESIGN_GEOMETRIC_PRESENTATION_REPRESENTATION (  '', ( #829 ), #876 ) ;
#305 = VERTEX_POINT ( 'NONE', #611 ) ;
#306 = CARTESIAN_POINT ( 'NONE',  ( -23.00000000000000000, 40.00000000000000000, 2.000000000000000000 ) ) ;
#307 = ORIENTED_EDGE ( 'NONE', *, *, #300, .F. ) ;
#308 = DIRECTION ( 'NONE',  ( 0.000000000000000000, 1.000000000000000000, 0.000000000000000000 ) ) ;
#309 = CARTESIAN_POINT ( 'NONE',  ( 0.000000000000000000, 0.000000000000000000, 30.00000000000000000 ) ) ;
#310 = EDGE_LOOP ( 'NONE', ( #527, #531, #457, #64, #923, #124 ) ) ;
#311 = CARTESIAN_POINT ( 'NONE',  ( 2.000000000000000000, 0.000000000000000000, 30.00000000000000000 ) ) ;
#312 = FACE_OUTER_BOUND ( 'NONE', #769, .T. ) ;
#313 = AXIS2_PLACEMENT_3D ( 'NONE', #48, #952, #725 ) ;
#314 = CARTESIAN_POINT ( 'NONE',  ( -12.50000000000000355, 40.00000000000000000, 19.54999999999999716 ) ) ;
#315 = AXIS2_PLACEMENT_3D ( 'NONE', #175, #256, #685 ) ;
#316 = EDGE_LOOP ( 'NONE', ( #869, #77 ) ) ;
#317 = DIRECTION ( 'NONE',  ( -1.000000000000000000, 0.000000000000000000, -0.000000000000000000 ) ) ;
#318 = CYLINDRICAL_SURFACE ( 'NONE', #680, 1.700000000000000178 ) ;
#319 = ORIENTED_EDGE ( 'NONE', *, *, #572, .T. ) ;
#320 = CARTESIAN_POINT ( 'NONE',  ( -23.00000000000000000, 40.00000000000000000, 27.99999999999999645 ) ) ;
#321 = ORIENTED_EDGE ( 'NONE', *, *, #207, .T. ) ;
#322 = EDGE_CURVE ( 'NONE', #627, #131, #833, .T. ) ;
#323 = CYLINDRICAL_SURFACE ( 'NONE', #390, 2.749999999999999112 ) ;
#324 = AXIS2_PLACEMENT_3D ( 'NONE', #922, #260, #563 ) ;
#325 = LINE ( 'NONE', #557, #251 ) ;
#326 = DIRECTION ( 'NONE',  ( 0.000000000000000000, -0.000000000000000000, -1.000000000000000000 ) ) ;
#327 = AXIS2_PLACEMENT_3D ( 'NONE', #787, #127, #280 ) ;
#328 = VECTOR ( 'NONE', #670, 1000.000000000000000 ) ;
#329 = CYLINDRICAL_SURFACE ( 'NONE', #324, 4.000000000000000000 ) ;
#330 = DIRECTION ( 'NONE',  ( 0.000000000000000000, -1.000000000000000000, -3.154042683594193641E-16 ) ) ;
#331 = EDGE_LOOP ( 'NONE', ( #966, #211, #539, #162 ) ) ;
#332 = CARTESIAN_POINT ( 'NONE',  ( -23.00000000000000000, 38.00000000000000000, 0.000000000000000000 ) ) ;
#333 = EDGE_CURVE ( 'NONE', #844, #38, #459, .T. ) ;
#334 = EDGE_CURVE ( 'NONE', #964, #745, #763, .T. ) ;
#335 = CARTESIAN_POINT ( 'NONE',  ( -25.00000000000000000, 42.00000000000000000, 2.000000000000001776 ) ) ;
#336 = DIRECTION ( 'NONE',  ( -1.000000000000000000, 0.000000000000000000, 0.000000000000000000 ) ) ;
#337 = EDGE_LOOP ( 'NONE', ( #501, #597, #859, #508 ) ) ;
#338 =( NAMED_UNIT ( * ) SI_UNIT ( $, .STERADIAN. ) SOLID_ANGLE_UNIT ( ) );
#339 = CARTESIAN_POINT ( 'NONE',  ( -25.00000000000000000, 40.00000000000000000, 27.99999999999999645 ) ) ;
#340 = DIRECTION ( 'NONE',  ( -0.000000000000000000, -0.000000000000000000, -1.000000000000000000 ) ) ;
#341 = DIRECTION ( 'NONE',  ( 0.000000000000000000, 0.000000000000000000, 1.000000000000000000 ) ) ;
#342 = ORIENTED_EDGE ( 'NONE', *, *, #832, .F. ) ;
#343 = AXIS2_PLACEMENT_3D ( 'NONE', #511, #76, #66 ) ;
#344 = VECTOR ( 'NONE', #225, 1000.000000000000000 ) ;
#345 = PRODUCT_CONTEXT ( 'NONE', #713, 'mechanical' ) ;
#346 = LINE ( 'NONE', #807, #873 ) ;
#347 = CARTESIAN_POINT ( 'NONE',  ( -12.50000000000000355, 40.00000000000000000, 19.54999999999999716 ) ) ;
#348 = ORIENTED_EDGE ( 'NONE', *, *, #506, .F. ) ;
#349 = DIRECTION ( 'NONE',  ( 0.000000000000000000, 0.000000000000000000, 1.000000000000000000 ) ) ;
#350 = ORIENTED_EDGE ( 'NONE', *, *, #945, .T. ) ;
#351 = CARTESIAN_POINT ( 'NONE',  ( 0.000000000000000000, 0.000000000000000000, 2.000000000000001776 ) ) ;
#352 = CARTESIAN_POINT ( 'NONE',  ( 2.000000000000000000, 0.000000000000000000, 9.749999999999994671 ) ) ;
#353 = CARTESIAN_POINT ( 'NONE',  ( 0.000000000000000000, 33.75000000000000000, 20.25000000000000000 ) ) ;
#354 = ORIENTED_EDGE ( 'NONE', *, *, #242, .T. ) ;
#355 = DIRECTION ( 'NONE',  ( 0.000000000000000000, 1.000000000000000000, 0.000000000000000000 ) ) ;
#356 = EDGE_CURVE ( 'NONE', #818, #593, #384, .T. ) ;
#357 = CARTESIAN_POINT ( 'NONE',  ( 0.000000000000000000, 42.00000000000000000, 0.000000000000000000 ) ) ;
#358 = LINE ( 'NONE', #653, #827 ) ;
#359 = VERTEX_POINT ( 'NONE', #614 ) ;
#360 =( LENGTH_UNIT ( ) NAMED_UNIT ( * ) SI_UNIT ( .MILLI., .METRE. ) );
#361 = CIRCLE ( 'NONE', #16, 2.000000000000000000 ) ;
#362 = AXIS2_PLACEMENT_3D ( 'NONE', #494, #99, #92 ) ;
#363 =( NAMED_UNIT ( * ) SI_UNIT ( $, .STERADIAN. ) SOLID_ANGLE_UNIT ( ) );
#364 = DIRECTION ( 'NONE',  ( -0.000000000000000000, 1.000000000000000000, 0.000000000000000000 ) ) ;
#365 = EDGE_CURVE ( 'NONE', #912, #26, #634, .T. ) ;
#366 = AXIS2_PLACEMENT_3D ( 'NONE', #825, #156, #151 ) ;
#367 = CARTESIAN_POINT ( 'NONE',  ( 0.000000000000000000, 0.000000000000000000, 0.000000000000000000 ) ) ;
#368 = VERTEX_POINT ( 'NONE', #542 ) ;
#369 = ADVANCED_FACE ( 'NONE', ( #841, #751, #7 ), #232, .T. ) ;
#370 = FACE_OUTER_BOUND ( 'NONE', #310, .T. ) ;
#371 = ORIENTED_EDGE ( 'NONE', *, *, #388, .T. ) ;
#372 = CARTESIAN_POINT ( 'NONE',  ( -25.00000000000000000, 40.00000000000000000, 27.99999999999999645 ) ) ;
#373 = DIRECTION ( 'NONE',  ( -1.000000000000000000, 0.000000000000000000, 0.000000000000000000 ) ) ;
#374 = ORIENTED_EDGE ( 'NONE', *, *, #720, .F. ) ;
#375 = DIRECTION ( 'NONE',  ( 0.000000000000000000, 0.000000000000000000, -1.000000000000000000 ) ) ;
#376 = CIRCLE ( 'NONE', #913, 2.749999999999999112 ) ;
#377 = AXIS2_PLACEMENT_3D ( 'NONE', #719, #948, #59 ) ;
#378 = VECTOR ( 'NONE', #863, 1000.000000000000000 ) ;
#379 = ORIENTED_EDGE ( 'NONE', *, *, #566, .T. ) ;
#380 = EDGE_CURVE ( 'NONE', #262, #752, #100, .T. ) ;
#381 = ORIENTED_EDGE ( 'NONE', *, *, #889, .F. ) ;
#382 = CARTESIAN_POINT ( 'NONE',  ( 0.000000000000000000, 40.00000000000000000, 0.000000000000000000 ) ) ;
#383 = ADVANCED_FACE ( 'NONE', ( #689 ), #193, .F. ) ;
#384 = LINE ( 'NONE', #393, #747 ) ;
#385 = EDGE_LOOP ( 'NONE', ( #177, #789, #885, #809 ) ) ;
#386 = CARTESIAN_POINT ( 'NONE',  ( 0.000000000000000000, 38.00000000000000000, 0.000000000000000000 ) ) ;
#387 = CARTESIAN_POINT ( 'NONE',  ( 0.000000000000000000, 6.249999999999992006, 9.749999999999992895 ) ) ;
#388 = EDGE_CURVE ( 'NONE', #359, #553, #871, .T. ) ;
#389 = VECTOR ( 'NONE', #965, 1000.000000000000000 ) ;
#390 = AXIS2_PLACEMENT_3D ( 'NONE', #613, #407, #701 ) ;
#391 = VERTEX_POINT ( 'NONE', #351 ) ;
#392 = FACE_OUTER_BOUND ( 'NONE', #901, .T. ) ;
#393 = CARTESIAN_POINT ( 'NONE',  ( -2.000000000000000000, 40.00000000000000000, 30.00000000000000000 ) ) ;
#394 = EDGE_CURVE ( 'NONE', #150, #359, #503, .T. ) ;
#395 = ORIENTED_EDGE ( 'NONE', *, *, #62, .F. ) ;
#396 = CARTESIAN_POINT ( 'NONE',  ( -12.50000000000000355, 40.00000000000000000, 21.24999999999999645 ) ) ;
#397 = ORIENTED_EDGE ( 'NONE', *, *, #181, .F. ) ;
#398 = FACE_BOUND ( 'NONE', #47, .T. ) ;
#399 = DIRECTION ( 'NONE',  ( 1.000000000000000000, 0.000000000000000000, -0.000000000000000000 ) ) ;
#400 = AXIS2_PLACEMENT_3D ( 'NONE', #702, #187, #341 ) ;
#401 = VECTOR ( 'NONE', #772, 1000.000000000000000 ) ;
#402 = CARTESIAN_POINT ( 'NONE',  ( -2.000000000000000000, 42.00000000000000000, 30.00000000000000000 ) ) ;
#403 = CARTESIAN_POINT ( 'NONE',  ( -25.00000000000000000, 33.75000000000000000, 9.750000000000000000 ) ) ;
#404 = CIRCLE ( 'NONE', #955, 2.000000000000001776 ) ;
#405 = CIRCLE ( 'NONE', #34, 1.700000000000000178 ) ;
#406 = ORIENTED_EDGE ( 'NONE', *, *, #935, .F. ) ;
#407 = DIRECTION ( 'NONE',  ( 1.000000000000000000, -0.000000000000000000, -0.000000000000000000 ) ) ;
#408 = EDGE_CURVE ( 'NONE', #569, #150, #801, .T. ) ;
#409 = LINE ( 'NONE', #698, #107 ) ;
#410 = CARTESIAN_POINT ( 'NONE',  ( 0.000000000000000000, 38.00000000000000000, 30.00000000000000000 ) ) ;
#411 = ORIENTED_EDGE ( 'NONE', *, *, #109, .T. ) ;
#412 = CARTESIAN_POINT ( 'NONE',  ( -12.50000000000000355, 40.00000000000000000, 21.24999999999999645 ) ) ;
#413 = EDGE_LOOP ( 'NONE', ( #862, #643, #521, #704 ) ) ;
#414 = DIRECTION ( 'NONE',  ( 0.000000000000000000, -1.000000000000000000, -3.154042683594193641E-16 ) ) ;
#415 = DIRECTION ( 'NONE',  ( -1.000000000000000000, 0.000000000000000000, 0.000000000000000000 ) ) ;
#416 = ORIENTED_EDGE ( 'NONE', *, *, #580, .F. ) ;
#417 = LINE ( 'NONE', #63, #160 ) ;
#418 = DIRECTION ( 'NONE',  ( 0.000000000000000000, 1.261617073437677752E-16, 1.000000000000000000 ) ) ;
#419 = CARTESIAN_POINT ( 'NONE',  ( -12.50000000000000355, 40.00000000000000000, 8.750000000000000000 ) ) ;
#420 = DIRECTION ( 'NONE',  ( 0.000000000000000000, 0.000000000000000000, 1.000000000000000000 ) ) ;
#421 = LINE ( 'NONE', #113, #619 ) ;
#422 = EDGE_LOOP ( 'NONE', ( #224, #166, #196, #939, #609, #810 ) ) ;
#423 = VECTOR ( 'NONE', #879, 1000.000000000000000 ) ;
#424 = FACE_OUTER_BOUND ( 'NONE', #544, .T. ) ;
#425 = DIRECTION ( 'NONE',  ( 1.000000000000000000, -0.000000000000000000, -0.000000000000000000 ) ) ;
#426 = CARTESIAN_POINT ( 'NONE',  ( -2.000000000000000000, 42.00000000000000000, 30.00000000000000000 ) ) ;
#427 = CARTESIAN_POINT ( 'NONE',  ( 0.000000000000000000, 6.250000000000000888, 23.00000000000000711 ) ) ;
#428 = EDGE_CURVE ( 'NONE', #799, #450, #775, .T. ) ;
#429 = ORIENTED_EDGE ( 'NONE', *, *, #45, .T. ) ;
#430 = LINE ( 'NONE', #786, #292 ) ;
#431 = SURFACE_STYLE_FILL_AREA ( #134 ) ;
#432 = DIRECTION ( 'NONE',  ( 0.000000000000000000, 0.000000000000000000, -1.000000000000000000 ) ) ;
#433 = CARTESIAN_POINT ( 'NONE',  ( -12.50000000000000355, 40.00000000000000000, 10.44999999999999929 ) ) ;
#434 = CARTESIAN_POINT ( 'NONE',  ( 2.000000000000000000, 2.000000000000001776, 0.000000000000000000 ) ) ;
#435 = ORIENTED_EDGE ( 'NONE', *, *, #101, .T. ) ;
#436 = CARTESIAN_POINT ( 'NONE',  ( 0.000000000000000000, 6.249999999999992006, 4.250000000000000888 ) ) ;
#437 = ORIENTED_EDGE ( 'NONE', *, *, #216, .T. ) ;
#438 = LINE ( 'NONE', #70, #2 ) ;
#439 = PLANE ( 'NONE',  #343 ) ;
#440 = VERTEX_POINT ( 'NONE', #659 ) ;
#441 = VECTOR ( 'NONE', #373, 1000.000000000000000 ) ;
#442 = AXIS2_PLACEMENT_3D ( 'NONE', #396, #774, #39 ) ;
#443 = EDGE_CURVE ( 'NONE', #263, #189, #205, .T. ) ;
#444 = DIRECTION ( 'NONE',  ( 0.000000000000000000, 0.000000000000000000, -1.000000000000000000 ) ) ;
#445 = ORIENTED_EDGE ( 'NONE', *, *, #729, .F. ) ;
#446 = LINE ( 'NONE', #299, #441 ) ;
#447 = VERTEX_POINT ( 'NONE', #505 ) ;
#448 = CARTESIAN_POINT ( 'NONE',  ( 0.000000000000000000, 33.75000000000000000, 25.75000000000000000 ) ) ;
#449 = ADVANCED_FACE ( 'NONE', ( #135 ), #567, .F. ) ;
#450 = VERTEX_POINT ( 'NONE', #433 ) ;
#451 = LINE ( 'NONE', #372, #238 ) ;
#452 = AXIS2_PLACEMENT_3D ( 'NONE', #258, #848, #551 ) ;
#453 = CARTESIAN_POINT ( 'NONE',  ( 2.000000000000001332, 33.75000000000000000, 25.75000000000000355 ) ) ;
#454 = VECTOR ( 'NONE', #468, 1000.000000000000000 ) ;
#455 = AXIS2_PLACEMENT_3D ( 'NONE', #306, #533, #375 ) ;
#456 = CARTESIAN_POINT ( 'NONE',  ( -2.000000000000000000, 38.00000000000000000, 30.00000000000000000 ) ) ;
#457 = ORIENTED_EDGE ( 'NONE', *, *, #333, .F. ) ;
#458 = EDGE_CURVE ( 'NONE', #742, #183, #346, .T. ) ;
#459 = LINE ( 'NONE', #245, #236 ) ;
#460 = EDGE_LOOP ( 'NONE', ( #435, #705 ) ) ;
#461 = CARTESIAN_POINT ( 'NONE',  ( 2.000000000000000000, 0.000000000000000000, 20.25000000000000000 ) ) ;
#462 = ADVANCED_FACE ( 'NONE', ( #710 ), #718, .F. ) ;
#463 = DIRECTION ( 'NONE',  ( -1.000000000000000000, 0.000000000000000000, 0.000000000000000000 ) ) ;
#464 = ORIENTED_EDGE ( 'NONE', *, *, #707, .F. ) ;
#465 = FACE_OUTER_BOUND ( 'NONE', #239, .T. ) ;
#466 = EDGE_CURVE ( 'NONE', #450, #799, #302, .T. ) ;
#467 = AXIS2_PLACEMENT_3D ( 'NONE', #456, #672, #250 ) ;
#468 = DIRECTION ( 'NONE',  ( -0.000000000000000000, -1.000000000000000000, -0.000000000000000000 ) ) ;
#469 = CIRCLE ( 'NONE', #442, 1.700000000000000178 ) ;
#470 = EDGE_LOOP ( 'NONE', ( #61, #252, #159, #895 ) ) ;
#471 = FACE_OUTER_BOUND ( 'NONE', #759, .T. ) ;
#472 = EDGE_CURVE ( 'NONE', #742, #305, #438, .T. ) ;
#473 = CARTESIAN_POINT ( 'NONE',  ( -2.000000000000000000, 38.00000000000000000, 30.00000000000000000 ) ) ;
#474 = VERTEX_POINT ( 'NONE', #959 ) ;
#475 = VERTEX_POINT ( 'NONE', #296 ) ;
#476 = DIRECTION ( 'NONE',  ( 0.000000000000000000, 0.000000000000000000, -1.000000000000000000 ) ) ;
#477 = PRODUCT_DEFINITION_SHAPE ( 'NONE', 'NONE',  #152 ) ;
#478 = EDGE_LOOP ( 'NONE', ( #354, #429, #137, #547 ) ) ;
#479 = LINE ( 'NONE', #382, #157 ) ;
#480 = ORIENTED_EDGE ( 'NONE', *, *, #595, .T. ) ;
#481 = DIRECTION ( 'NONE',  ( 0.000000000000000000, 0.000000000000000000, 1.000000000000000000 ) ) ;
#482 = CLOSED_SHELL ( 'NONE', ( #816, #961, #683, #637, #522, #227, #176, #681, #165, #512, #369, #526, #517, #69, #735, #514, #172, #783, #822, #767, #293, #943, #449, #880, #462, #667, #383, #886, #794, #960 ) ) ;
#483 = LINE ( 'NONE', #495, #652 ) ;
#484 = CARTESIAN_POINT ( 'NONE',  ( -25.00000000000000000, 33.75000000000000000, 25.75000000000000000 ) ) ;
#485 = AXIS2_PLACEMENT_3D ( 'NONE', #6, #463, #14 ) ;
#486 = EDGE_LOOP ( 'NONE', ( #525, #277, #229, #178, #24, #85 ) ) ;
#487 = DIRECTION ( 'NONE',  ( 0.000000000000000000, -1.000000000000000000, -0.000000000000000000 ) ) ;
#488 = DIRECTION ( 'NONE',  ( 1.000000000000000000, -0.000000000000000000, -0.000000000000000000 ) ) ;
#489 = CARTESIAN_POINT ( 'NONE',  ( -23.00000000000000000, 42.00000000000000000, 30.00000000000000000 ) ) ;
#490 = ORIENTED_EDGE ( 'NONE', *, *, #394, .T. ) ;
#491 = CARTESIAN_POINT ( 'NONE',  ( -12.50000000000000355, 40.00000000000000000, 8.750000000000000000 ) ) ;
#492 =( NAMED_UNIT ( * ) SI_UNIT ( $, .STERADIAN. ) SOLID_ANGLE_UNIT ( ) );
#493 = CARTESIAN_POINT ( 'NONE',  ( -25.00000000000000000, 33.75000000000000000, 25.75000000000000000 ) ) ;
#494 = CARTESIAN_POINT ( 'NONE',  ( -2.000000000000000000, 38.00000000000000000, 0.000000000000000000 ) ) ;
#495 = CARTESIAN_POINT ( 'NONE',  ( -25.00000000000000000, 6.249999999999999112, 20.25000000000000355 ) ) ;
#496 = ORIENTED_EDGE ( 'NONE', *, *, #122, .T. ) ;
#497 = ORIENTED_EDGE ( 'NONE', *, *, #458, .T. ) ;
#498 = DIRECTION ( 'NONE',  ( 0.000000000000000000, 0.000000000000000000, -1.000000000000000000 ) ) ;
#499 = DIRECTION ( 'NONE',  ( -0.000000000000000000, -0.000000000000000000, -1.000000000000000000 ) ) ;
#500 = DIRECTION ( 'NONE',  ( 1.000000000000000000, 0.000000000000000000, 0.000000000000000000 ) ) ;
#501 = ORIENTED_EDGE ( 'NONE', *, *, #15, .F. ) ;
#502 = DIRECTION ( 'NONE',  ( 0.000000000000000000, -1.261617073437677752E-16, -1.000000000000000000 ) ) ;
#503 = CIRCLE ( 'NONE', #327, 2.000000000000001776 ) ;
#504 = AXIS2_PLACEMENT_3D ( 'NONE', #231, #897, #161 ) ;
#505 = CARTESIAN_POINT ( 'NONE',  ( -23.00000000000000000, 40.00000000000000000, 30.00000000000000000 ) ) ;
#506 = EDGE_CURVE ( 'NONE', #615, #368, #866, .T. ) ;
#507 = DIRECTION ( 'NONE',  ( 0.000000000000000000, 0.000000000000000000, -1.000000000000000000 ) ) ;
#508 = ORIENTED_EDGE ( 'NONE', *, *, #720, .T. ) ;
#509 = EDGE_LOOP ( 'NONE', ( #168, #139, #180, #379 ) ) ;
#510 = CARTESIAN_POINT ( 'NONE',  ( -25.00000000000000000, 33.75000000000000000, 23.00000000000000355 ) ) ;
#511 = CARTESIAN_POINT ( 'NONE',  ( 0.000000000000000000, 40.00000000000000000, 30.00000000000000000 ) ) ;
#512 = ADVANCED_FACE ( 'NONE', ( #583 ), #173, .F. ) ;
#513 = ORIENTED_EDGE ( 'NONE', *, *, #365, .T. ) ;
#514 = ADVANCED_FACE ( 'NONE', ( #562 ), #861, .T. ) ;
#515 = DIRECTION ( 'NONE',  ( 0.000000000000000000, -0.000000000000000000, -1.000000000000000000 ) ) ;
#516 = ORIENTED_EDGE ( 'NONE', *, *, #333, .T. ) ;
#517 = ADVANCED_FACE ( 'NONE', ( #835, #398, #392 ), #247, .F. ) ;
#518 = AXIS2_PLACEMENT_3D ( 'NONE', #662, #520, #507 ) ;
#519 = PRESENTATION_LAYER_ASSIGNMENT (  '', '', ( #829 ) ) ;
#520 = DIRECTION ( 'NONE',  ( 0.000000000000000000, 1.000000000000000000, -0.000000000000000000 ) ) ;
#521 = ORIENTED_EDGE ( 'NONE', *, *, #738, .T. ) ;
#522 = ADVANCED_FACE ( 'NONE', ( #471 ), #540, .T. ) ;
#523 = CARTESIAN_POINT ( 'NONE',  ( 0.000000000000000000, 33.75000000000000000, 23.00000000000000355 ) ) ;
#524 = LINE ( 'NONE', #74, #888 ) ;
#525 = ORIENTED_EDGE ( 'NONE', *, *, #23, .F. ) ;
#526 = ADVANCED_FACE ( 'NONE', ( #845 ), #31, .T. ) ;
#527 = ORIENTED_EDGE ( 'NONE', *, *, #380, .T. ) ;
#528 = CARTESIAN_POINT ( 'NONE',  ( -25.00000000000000000, 33.75000000000000000, 4.250000000000009770 ) ) ;
#529 = VECTOR ( 'NONE', #148, 1000.000000000000000 ) ;
#530 = AXIS2_PLACEMENT_3D ( 'NONE', #523, #821, #88 ) ;
#531 = ORIENTED_EDGE ( 'NONE', *, *, #181, .T. ) ;
#532 = CARTESIAN_POINT ( 'NONE',  ( 0.000000000000000000, 0.000000000000000000, 30.00000000000000000 ) ) ;
#533 = DIRECTION ( 'NONE',  ( 0.000000000000000000, -1.000000000000000000, 0.000000000000000000 ) ) ;
#534 = ORIENTED_EDGE ( 'NONE', *, *, #899, .F. ) ;
#535 = DIRECTION ( 'NONE',  ( 0.000000000000000000, -1.000000000000000000, 0.000000000000000000 ) ) ;
#536 = EDGE_CURVE ( 'NONE', #368, #690, #919, .T. ) ;
#537 = CYLINDRICAL_SURFACE ( 'NONE', #50, 2.000000000000001776 ) ;
#538 = DIRECTION ( 'NONE',  ( -0.000000000000000000, -0.000000000000000000, -1.000000000000000000 ) ) ;
#539 = ORIENTED_EDGE ( 'NONE', *, *, #872, .F. ) ;
#540 = PLANE ( 'NONE',  #541 ) ;
#541 = AXIS2_PLACEMENT_3D ( 'NONE', #386, #86, #545 ) ;
#542 = CARTESIAN_POINT ( 'NONE',  ( 2.000000000000001332, 33.75000000000000000, 20.25000000000000000 ) ) ;
#543 =( GEOMETRIC_REPRESENTATION_CONTEXT ( 3 ) GLOBAL_UNCERTAINTY_ASSIGNED_CONTEXT ( ( #599 ) ) GLOBAL_UNIT_ASSIGNED_CONTEXT ( ( #360, #790, #338 ) ) REPRESENTATION_CONTEXT ( 'NONE', 'WORKASPACE' ) );
#544 = EDGE_LOOP ( 'NONE', ( #295, #585, #350, #246 ) ) ;
#545 = DIRECTION ( 'NONE',  ( -1.000000000000000000, 0.000000000000000000, -0.000000000000000000 ) ) ;
#546 = DIRECTION ( 'NONE',  ( -0.000000000000000000, -1.000000000000000000, 0.000000000000000000 ) ) ;
#547 = ORIENTED_EDGE ( 'NONE', *, *, #153, .T. ) ;
#548 = DIRECTION ( 'NONE',  ( 0.000000000000000000, -1.000000000000000000, -0.000000000000000000 ) ) ;
#549 = DIRECTION ( 'NONE',  ( 0.000000000000000000, 1.000000000000000000, 0.000000000000000000 ) ) ;
#550 = EDGE_CURVE ( 'NONE', #593, #475, #479, .T. ) ;
#551 = DIRECTION ( 'NONE',  ( 0.000000000000000000, 0.000000000000000000, -1.000000000000000000 ) ) ;
#552 = CARTESIAN_POINT ( 'NONE',  ( 0.000000000000000000, 2.000000000000000000, 30.00000000000000000 ) ) ;
#553 = VERTEX_POINT ( 'NONE', #603 ) ;
#554 = DIRECTION ( 'NONE',  ( 0.000000000000000000, 1.000000000000000000, -0.000000000000000000 ) ) ;
#555 = LINE ( 'NONE', #20, #94 ) ;
#556 = CIRCLE ( 'NONE', #954, 2.749999999999995559 ) ;
#557 = CARTESIAN_POINT ( 'NONE',  ( -25.00000000000000000, 6.250000000000000888, 25.75000000000000711 ) ) ;
#558 = LINE ( 'NONE', #410, #144 ) ;
#559 = AXIS2_PLACEMENT_3D ( 'NONE', #858, #648, #287 ) ;
#560 = VERTEX_POINT ( 'NONE', #240 ) ;
#561 = DIRECTION ( 'NONE',  ( 0.000000000000000000, 0.000000000000000000, -1.000000000000000000 ) ) ;
#562 = FACE_OUTER_BOUND ( 'NONE', #56, .T. ) ;
#563 = DIRECTION ( 'NONE',  ( -1.000000000000000000, 0.000000000000000000, 0.000000000000000000 ) ) ;
#564 = CARTESIAN_POINT ( 'NONE',  ( 0.000000000000000000, 6.250000000000000888, 25.75000000000000355 ) ) ;
#565 = ORIENTED_EDGE ( 'NONE', *, *, #832, .T. ) ;
#566 = EDGE_CURVE ( 'NONE', #912, #189, #756, .T. ) ;
#567 = CYLINDRICAL_SURFACE ( 'NONE', #313, 2.749999999999995559 ) ;
#568 = DIRECTION ( 'NONE',  ( -1.000000000000000000, 0.000000000000000000, 0.000000000000000000 ) ) ;
#569 = VERTEX_POINT ( 'NONE', #552 ) ;
#570 = DIRECTION ( 'NONE',  ( -0.000000000000000000, -1.000000000000000000, -0.000000000000000000 ) ) ;
#571 = DIRECTION ( 'NONE',  ( -0.000000000000000000, -1.000000000000000000, -0.000000000000000000 ) ) ;
#572 = EDGE_CURVE ( 'NONE', #38, #745, #421, .T. ) ;
#573 = CIRCLE ( 'NONE', #400, 2.749999999999995559 ) ;
#574 = PLANE ( 'NONE',  #812 ) ;
#575 = CARTESIAN_POINT ( 'NONE',  ( 2.000000000000001332, 33.75000000000000000, 4.250000000000010658 ) ) ;
#576 = AXIS2_PLACEMENT_3D ( 'NONE', #881, #154, #444 ) ;
#577 = ORIENTED_EDGE ( 'NONE', *, *, #904, .T. ) ;
#578 = CIRCLE ( 'NONE', #254, 1.699999999999998401 ) ;
#579 = AXIS2_PLACEMENT_3D ( 'NONE', #403, #36, #330 ) ;
#580 = EDGE_CURVE ( 'NONE', #189, #262, #206, .T. ) ;
#581 = CARTESIAN_POINT ( 'NONE',  ( 0.000000000000000000, 38.00000000000000000, 0.000000000000000000 ) ) ;
#582 = VERTEX_POINT ( 'NONE', #564 ) ;
#583 = FACE_OUTER_BOUND ( 'NONE', #413, .T. ) ;
#584 = FACE_BOUND ( 'NONE', #114, .T. ) ;
#585 = ORIENTED_EDGE ( 'NONE', *, *, #15, .T. ) ;
#586 = FACE_BOUND ( 'NONE', #684, .T. ) ;
#587 = ORIENTED_EDGE ( 'NONE', *, *, #909, .F. ) ;
#588 = EDGE_CURVE ( 'NONE', #615, #813, #182, .T. ) ;
#589 = VECTOR ( 'NONE', #364, 1000.000000000000000 ) ;
#590 = COLOUR_RGB ( '',0.5294117647058823595, 0.5490196078431373028, 0.5490196078431373028 ) ;
#591 = AXIS2_PLACEMENT_3D ( 'NONE', #491, #138, #561 ) ;
#592 = FACE_OUTER_BOUND ( 'NONE', #54, .T. ) ;
#593 = VERTEX_POINT ( 'NONE', #868 ) ;
#594 = CARTESIAN_POINT ( 'NONE',  ( 0.000000000000000000, 42.00000000000000000, 30.00000000000000000 ) ) ;
#595 = EDGE_CURVE ( 'NONE', #631, #305, #18, .T. ) ;
#596 = CARTESIAN_POINT ( 'NONE',  ( -12.50000000000000355, 40.00000000000000000, 21.24999999999999645 ) ) ;
#597 = ORIENTED_EDGE ( 'NONE', *, *, #101, .F. ) ;
#598 = CARTESIAN_POINT ( 'NONE',  ( 0.000000000000000000, 2.000000000000000000, 27.99999999999999645 ) ) ;
#599 = UNCERTAINTY_MEASURE_WITH_UNIT (LENGTH_MEASURE( 1.000000000000000082E-05 ), #360, 'distance_accuracy_value', 'NONE');
#600 = PLANE ( 'NONE',  #504 ) ;
#601 = DIRECTION ( 'NONE',  ( 0.000000000000000000, 0.000000000000000000, -1.000000000000000000 ) ) ;
#602 = EDGE_LOOP ( 'NONE', ( #497, #882, #155, #149 ) ) ;
#603 = CARTESIAN_POINT ( 'NONE',  ( 0.000000000000000000, 0.000000000000000000, 27.99999999999999645 ) ) ;
#604 = DIRECTION ( 'NONE',  ( 0.000000000000000000, 0.000000000000000000, -1.000000000000000000 ) ) ;
#605 = DIRECTION ( 'NONE',  ( 0.000000000000000000, 1.000000000000000000, 0.000000000000000000 ) ) ;
#606 = VECTOR ( 'NONE', #942, 1000.000000000000000 ) ;
#607 = CIRCLE ( 'NONE', #315, 2.000000000000000000 ) ;
#608 = EDGE_CURVE ( 'NONE', #700, #687, #642, .T. ) ;
#609 = ORIENTED_EDGE ( 'NONE', *, *, #257, .T. ) ;
#610 = CARTESIAN_POINT ( 'NONE',  ( 0.000000000000000000, 6.249999999999999112, 20.25000000000000355 ) ) ;
#611 = CARTESIAN_POINT ( 'NONE',  ( 2.000000000000001776, 6.249999999999995559, 9.749999999999992895 ) ) ;
#612 = ORIENTED_EDGE ( 'NONE', *, *, #191, .T. ) ;
#613 = CARTESIAN_POINT ( 'NONE',  ( -25.00000000000000000, 6.250000000000000888, 23.00000000000000711 ) ) ;
#614 = CARTESIAN_POINT ( 'NONE',  ( 2.000000000000000000, 0.000000000000000000, 27.99999999999999645 ) ) ;
#615 = VERTEX_POINT ( 'NONE', #353 ) ;
#616 = EDGE_CURVE ( 'NONE', #560, #927, #558, .T. ) ;
#617 = ORIENTED_EDGE ( 'NONE', *, *, #850, .T. ) ;
#618 = CYLINDRICAL_SURFACE ( 'NONE', #839, 2.000000000000000000 ) ;
#619 = VECTOR ( 'NONE', #849, 1000.000000000000000 ) ;
#620 = AXIS2_PLACEMENT_3D ( 'NONE', #853, #622, #185 ) ;
#621 = DIRECTION ( 'NONE',  ( -0.000000000000000000, -1.000000000000000000, -0.000000000000000000 ) ) ;
#622 = DIRECTION ( 'NONE',  ( -1.000000000000000000, 0.000000000000000000, 0.000000000000000000 ) ) ;
#623 = EDGE_CURVE ( 'NONE', #813, #582, #111, .T. ) ;
#624 = ORIENTED_EDGE ( 'NONE', *, *, #300, .T. ) ;
#625 = LINE ( 'NONE', #188, #916 ) ;
#626 = ORIENTED_EDGE ( 'NONE', *, *, #945, .F. ) ;
#627 = VERTEX_POINT ( 'NONE', #630 ) ;
#628 = CARTESIAN_POINT ( 'NONE',  ( 2.000000000000000000, 0.000000000000000000, 30.00000000000000000 ) ) ;
#629 = DIRECTION ( 'NONE',  ( -0.000000000000000000, -0.000000000000000000, -1.000000000000000000 ) ) ;
#630 = CARTESIAN_POINT ( 'NONE',  ( -12.50000000000000355, 42.00000000000000000, 19.54999999999999716 ) ) ;
#631 = VERTEX_POINT ( 'NONE', #201 ) ;
#632 = CARTESIAN_POINT ( 'NONE',  ( -12.50000000000000355, 42.00000000000000000, 8.750000000000000000 ) ) ;
#633 = EDGE_CURVE ( 'NONE', #950, #631, #797, .T. ) ;
#634 = CIRCLE ( 'NONE', #467, 4.000000000000000000 ) ;
#635 = CARTESIAN_POINT ( 'NONE',  ( 0.000000000000000000, 2.000000000000001776, 0.000000000000000000 ) ) ;
#636 = CIRCLE ( 'NONE', #455, 2.000000000000000000 ) ;
#637 = ADVANCED_FACE ( 'NONE', ( #60 ), #703, .T. ) ;
#638 = ORIENTED_EDGE ( 'NONE', *, *, #191, .F. ) ;
#639 = FILL_AREA_STYLE ('',( #43 ) ) ;
#640 = ORIENTED_EDGE ( 'NONE', *, *, #458, .F. ) ;
#641 = ORIENTED_EDGE ( 'NONE', *, *, #762, .F. ) ;
#642 = LINE ( 'NONE', #484, #378 ) ;
#643 = ORIENTED_EDGE ( 'NONE', *, *, #616, .F. ) ;
#644 = CARTESIAN_POINT ( 'NONE',  ( -23.00000000000000000, 42.00000000000000000, 27.99999999999999645 ) ) ;
#645 = ORIENTED_EDGE ( 'NONE', *, *, #472, .T. ) ;
#646 = DIRECTION ( 'NONE',  ( 1.000000000000000000, -0.000000000000000000, -0.000000000000000000 ) ) ;
#647 = DIRECTION ( 'NONE',  ( 0.000000000000000000, -1.000000000000000000, 0.000000000000000000 ) ) ;
#648 = DIRECTION ( 'NONE',  ( 0.000000000000000000, -0.000000000000000000, 1.000000000000000000 ) ) ;
#649 = ORIENTED_EDGE ( 'NONE', *, *, #693, .T. ) ;
#650 = CARTESIAN_POINT ( 'NONE',  ( -25.00000000000000000, 33.75000000000000000, 20.25000000000000000 ) ) ;
#651 = DIRECTION ( 'NONE',  ( 0.000000000000000000, 0.000000000000000000, -1.000000000000000000 ) ) ;
#652 = VECTOR ( 'NONE', #777, 1000.000000000000000 ) ;
#653 = CARTESIAN_POINT ( 'NONE',  ( -25.00000000000000000, 33.75000000000000000, 9.750000000000000000 ) ) ;
#654 = AXIS2_PLACEMENT_3D ( 'NONE', #932, #571, #651 ) ;
#655 = EDGE_LOOP ( 'NONE', ( #877, #464, #612, #248 ) ) ;
#656 = DIRECTION ( 'NONE',  ( 0.000000000000000000, 0.000000000000000000, -1.000000000000000000 ) ) ;
#657 = ORIENTED_EDGE ( 'NONE', *, *, #753, .F. ) ;
#658 = CIRCLE ( 'NONE', #530, 2.749999999999999112 ) ;
#659 = CARTESIAN_POINT ( 'NONE',  ( 0.000000000000000000, 33.75000000000000000, 4.250000000000009770 ) ) ;
#660 = DIRECTION ( 'NONE',  ( 1.000000000000000000, 0.000000000000000000, 0.000000000000000000 ) ) ;
#661 = EDGE_LOOP ( 'NONE', ( #301, #675, #397, #445 ) ) ;
#662 = CARTESIAN_POINT ( 'NONE',  ( -23.00000000000000000, 42.00000000000000000, 2.000000000000000000 ) ) ;
#663 = EDGE_LOOP ( 'NONE', ( #298, #715, #804, #13 ) ) ;
#664 = DIRECTION ( 'NONE',  ( -1.000000000000000000, 0.000000000000000000, 0.000000000000000000 ) ) ;
#665 = CYLINDRICAL_SURFACE ( 'NONE', #377, 2.000000000000000000 ) ;
#666 = VERTEX_POINT ( 'NONE', #575 ) ;
#667 = ADVANCED_FACE ( 'NONE', ( #210 ), #106, .F. ) ;
#668 = VECTOR ( 'NONE', #629, 1000.000000000000000 ) ;
#669 = AXIS2_PLACEMENT_3D ( 'NONE', #309, #900, #237 ) ;
#670 = DIRECTION ( 'NONE',  ( -1.000000000000000000, 0.000000000000000000, -0.000000000000000000 ) ) ;
#671 = MECHANICAL_DESIGN_GEOMETRIC_PRESENTATION_REPRESENTATION (  '', ( #776 ), #543 ) ;
#672 = DIRECTION ( 'NONE',  ( 0.000000000000000000, 0.000000000000000000, 1.000000000000000000 ) ) ;
#673 = ORIENTED_EDGE ( 'NONE', *, *, #744, .T. ) ;
#674 = PLANE ( 'NONE',  #485 ) ;
#675 = ORIENTED_EDGE ( 'NONE', *, *, #572, .F. ) ;
#676 = DIRECTION ( 'NONE',  ( -1.000000000000000000, 0.000000000000000000, 0.000000000000000000 ) ) ;
#677 = EDGE_CURVE ( 'NONE', #150, #912, #625, .T. ) ;
#678 = VERTEX_POINT ( 'NONE', #10 ) ;
#679 = CARTESIAN_POINT ( 'NONE',  ( 2.000000000000000000, 2.000000000000001776, 2.000000000000000000 ) ) ;
#680 = AXIS2_PLACEMENT_3D ( 'NONE', #596, #12, #601 ) ;
#681 = ADVANCED_FACE ( 'NONE', ( #893 ), #674, .T. ) ;
#682 = CIRCLE ( 'NONE', #620, 2.749999999999995559 ) ;
#683 = ADVANCED_FACE ( 'NONE', ( #312 ), #600, .T. ) ;
#684 = EDGE_LOOP ( 'NONE', ( #374, #626 ) ) ;
#685 = DIRECTION ( 'NONE',  ( -1.000000000000000000, 0.000000000000000000, 0.000000000000000000 ) ) ;
#686 = DIRECTION ( 'NONE',  ( -0.000000000000000000, -0.000000000000000000, -1.000000000000000000 ) ) ;
#687 = VERTEX_POINT ( 'NONE', #453 ) ;
#688 = CARTESIAN_POINT ( 'NONE',  ( -23.00000000000000000, 42.00000000000000000, 0.000000000000000000 ) ) ;
#689 = FACE_OUTER_BOUND ( 'NONE', #132, .T. ) ;
#690 = VERTEX_POINT ( 'NONE', #226 ) ;
#691 = EDGE_CURVE ( 'NONE', #745, #475, #636, .T. ) ;
#692 = DIRECTION ( 'NONE',  ( -1.000000000000000000, -0.000000000000000000, 0.000000000000000000 ) ) ;
#693 = EDGE_CURVE ( 'NONE', #700, #615, #658, .T. ) ;
#694 = DIRECTION ( 'NONE',  ( 0.000000000000000000, 0.000000000000000000, 1.000000000000000000 ) ) ;
#695 = CIRCLE ( 'NONE', #953, 1.700000000000000178 ) ;
#696 = VECTOR ( 'NONE', #274, 1000.000000000000000 ) ;
#697 = VECTOR ( 'NONE', #847, 1000.000000000000000 ) ;
#698 = CARTESIAN_POINT ( 'NONE',  ( -2.000000000000000000, 42.00000000000000000, 0.000000000000000000 ) ) ;
#699 = CARTESIAN_POINT ( 'NONE',  ( -2.000000000000000000, 38.00000000000000000, 0.000000000000000000 ) ) ;
#700 = VERTEX_POINT ( 'NONE', #448 ) ;
#701 = DIRECTION ( 'NONE',  ( 0.000000000000000000, 0.000000000000000000, -1.000000000000000000 ) ) ;
#702 = CARTESIAN_POINT ( 'NONE',  ( 0.000000000000000000, 33.74999999999999289, 7.000000000000004441 ) ) ;
#703 = PLANE ( 'NONE',  #559 ) ;
#704 = ORIENTED_EDGE ( 'NONE', *, *, #356, .T. ) ;
#705 = ORIENTED_EDGE ( 'NONE', *, *, #779, .T. ) ;
#706 = EDGE_CURVE ( 'NONE', #26, #90, #743, .T. ) ;
#707 = EDGE_CURVE ( 'NONE', #678, #846, #273, .T. ) ;
#708 = FACE_OUTER_BOUND ( 'NONE', #509, .T. ) ;
#709 = ORIENTED_EDGE ( 'NONE', *, *, #408, .T. ) ;
#710 = FACE_OUTER_BOUND ( 'NONE', #831, .T. ) ;
#711 = AXIS2_PLACEMENT_3D ( 'NONE', #29, #58, #214 ) ;
#712 = ORIENTED_EDGE ( 'NONE', *, *, #163, .F. ) ;
#713 = APPLICATION_CONTEXT ( 'automotive_design' ) ;
#714 = PRESENTATION_LAYER_ASSIGNMENT (  '', '', ( #776 ) ) ;
#715 = ORIENTED_EDGE ( 'NONE', *, *, #608, .T. ) ;
#716 = SURFACE_SIDE_STYLE ('',( #120 ) ) ;
#717 = CYLINDRICAL_SURFACE ( 'NONE', #130, 1.700000000000000178 ) ;
#718 = CYLINDRICAL_SURFACE ( 'NONE', #711, 2.749999999999995559 ) ;
#719 = CARTESIAN_POINT ( 'NONE',  ( -23.00000000000000000, 38.00000000000000000, 2.000000000000000000 ) ) ;
#720 = EDGE_CURVE ( 'NONE', #131, #283, #469, .T. ) ;
#721 = DIRECTION ( 'NONE',  ( 1.000000000000000000, -0.000000000000000000, -0.000000000000000000 ) ) ;
#722 = ORIENTED_EDGE ( 'NONE', *, *, #744, .F. ) ;
#723 = DIRECTION ( 'NONE',  ( 0.000000000000000000, 1.000000000000000000, -1.261617073437677752E-16 ) ) ;
#724 =( LENGTH_UNIT ( ) NAMED_UNIT ( * ) SI_UNIT ( .MILLI., .METRE. ) );
#725 = DIRECTION ( 'NONE',  ( 0.000000000000000000, 0.000000000000000000, -1.000000000000000000 ) ) ;
#726 = DIRECTION ( 'NONE',  ( -1.000000000000000000, 0.000000000000000000, -0.000000000000000000 ) ) ;
#727 = ORIENTED_EDGE ( 'NONE', *, *, #269, .F. ) ;
#728 = FACE_OUTER_BOUND ( 'NONE', #663, .T. ) ;
#729 = EDGE_CURVE ( 'NONE', #475, #752, #179, .T. ) ;
#730 = CARTESIAN_POINT ( 'NONE',  ( 0.000000000000000000, 0.000000000000000000, 27.99999999999999645 ) ) ;
#731 = LINE ( 'NONE', #367, #221 ) ;
#732 = VECTOR ( 'NONE', #907, 1000.000000000000000 ) ;
#733 = EDGE_LOOP ( 'NONE', ( #851, #709, #741, #321 ) ) ;
#734 = AXIS2_PLACEMENT_3D ( 'NONE', #679, #399, #694 ) ;
#735 = ADVANCED_FACE ( 'NONE', ( #249 ), #167, .F. ) ;
#736 = FACE_OUTER_BOUND ( 'NONE', #422, .T. ) ;
#737 = VERTEX_POINT ( 'NONE', #770 ) ;
#738 = EDGE_CURVE ( 'NONE', #560, #818, #607, .T. ) ;
#739 = CARTESIAN_POINT ( 'NONE',  ( 0.000000000000000000, 33.75000000000000000, 9.750000000000000000 ) ) ;
#740 = FILL_AREA_STYLE_COLOUR ( '', #957 ) ;
#741 = ORIENTED_EDGE ( 'NONE', *, *, #677, .T. ) ;
#742 = VERTEX_POINT ( 'NONE', #387 ) ;
#743 = LINE ( 'NONE', #594, #328 ) ;
#744 = EDGE_CURVE ( 'NONE', #359, #126, #170, .T. ) ;
#745 = VERTEX_POINT ( 'NONE', #103 ) ;
#746 = VECTOR ( 'NONE', #621, 1000.000000000000000 ) ;
#747 = VECTOR ( 'NONE', #686, 1000.000000000000000 ) ;
#748 = DIRECTION ( 'NONE',  ( 0.000000000000000000, 0.000000000000000000, 1.000000000000000000 ) ) ;
#749 = UNCERTAINTY_MEASURE_WITH_UNIT (LENGTH_MEASURE( 1.000000000000000082E-05 ), #724, 'distance_accuracy_value', 'NONE');
#750 = AXIS2_PLACEMENT_3D ( 'NONE', #528, #758, #68 ) ;
#751 = FACE_BOUND ( 'NONE', #75, .T. ) ;
#752 = VERTEX_POINT ( 'NONE', #688 ) ;
#753 = EDGE_CURVE ( 'NONE', #126, #263, #856, .T. ) ;
#754 = LINE ( 'NONE', #22, #454 ) ;
#755 = ORIENTED_EDGE ( 'NONE', *, *, #269, .T. ) ;
#756 = LINE ( 'NONE', #778, #606 ) ;
#757 = CYLINDRICAL_SURFACE ( 'NONE', #366, 2.000000000000001776 ) ;
#758 = DIRECTION ( 'NONE',  ( 0.000000000000000000, 3.154042683594193641E-16, -1.000000000000000000 ) ) ;
#759 = EDGE_LOOP ( 'NONE', ( #727, #928, #842, #416 ) ) ;
#760 = CYLINDRICAL_SURFACE ( 'NONE', #222, 1.699999999999998401 ) ;
#761 = AXIS2_PLACEMENT_3D ( 'NONE', #510, #646, #498 ) ;
#762 = EDGE_CURVE ( 'NONE', #288, #666, #682, .T. ) ;
#763 = LINE ( 'NONE', #97, #93 ) ;
#764 = ORIENTED_EDGE ( 'NONE', *, *, #588, .T. ) ;
#765 = PRODUCT_DEFINITION_CONTEXT ( 'detailed design', #820, 'design' ) ;
#766 = DIRECTION ( 'NONE',  ( -1.000000000000000000, 0.000000000000000000, 0.000000000000000000 ) ) ;
#767 = ADVANCED_FACE ( 'NONE', ( #925 ), #618, .T. ) ;
#768 = ORIENTED_EDGE ( 'NONE', *, *, #803, .T. ) ;
#769 = EDGE_LOOP ( 'NONE', ( #406, #773, #908, #513 ) ) ;
#770 = CARTESIAN_POINT ( 'NONE',  ( 2.000000000000001332, 6.250000000000000888, 25.75000000000000355 ) ) ;
#771 = LINE ( 'NONE', #105, #668 ) ;
#772 = DIRECTION ( 'NONE',  ( 0.000000000000000000, -1.000000000000000000, 1.261617073437677752E-16 ) ) ;
#773 = ORIENTED_EDGE ( 'NONE', *, *, #738, .F. ) ;
#774 = DIRECTION ( 'NONE',  ( -0.000000000000000000, -1.000000000000000000, -0.000000000000000000 ) ) ;
#775 = CIRCLE ( 'NONE', #654, 1.699999999999998401 ) ;
#776 = STYLED_ITEM ( 'NONE', ( #278 ), #898 ) ;
#777 = DIRECTION ( 'NONE',  ( 1.000000000000000000, -0.000000000000000000, -0.000000000000000000 ) ) ;
#778 = CARTESIAN_POINT ( 'NONE',  ( 2.000000000000000000, 38.00000000000000000, 30.00000000000000000 ) ) ;
#779 = EDGE_CURVE ( 'NONE', #474, #627, #19, .T. ) ;
#780 = ORIENTED_EDGE ( 'NONE', *, *, #443, .F. ) ;
#781 = CARTESIAN_POINT ( 'NONE',  ( 0.000000000000000000, 38.00000000000000000, 0.000000000000000000 ) ) ;
#782 = EDGE_LOOP ( 'NONE', ( #834, #307, #824, #119 ) ) ;
#783 = ADVANCED_FACE ( 'NONE', ( #28 ), #537, .T. ) ;
#784 = DIRECTION ( 'NONE',  ( 0.000000000000000000, 0.000000000000000000, -1.000000000000000000 ) ) ;
#785 = ORIENTED_EDGE ( 'NONE', *, *, #117, .T. ) ;
#786 = CARTESIAN_POINT ( 'NONE',  ( 0.000000000000000000, -5.361872562110124654E-16, 25.75000000000000355 ) ) ;
#787 = CARTESIAN_POINT ( 'NONE',  ( 2.000000000000000000, 2.000000000000000000, 27.99999999999999645 ) ) ;
#788 = DIRECTION ( 'NONE',  ( -1.000000000000000000, 0.000000000000000000, 0.000000000000000000 ) ) ;
#789 = ORIENTED_EDGE ( 'NONE', *, *, #921, .F. ) ;
#790 =( NAMED_UNIT ( * ) PLANE_ANGLE_UNIT ( ) SI_UNIT ( $, .RADIAN. ) );
#791 = CARTESIAN_POINT ( 'NONE',  ( 0.000000000000000000, 0.000000000000000000, 0.000000000000000000 ) ) ;
#792 = DIRECTION ( 'NONE',  ( 0.000000000000000000, -1.000000000000000000, 1.261617073437677752E-16 ) ) ;
#793 = CARTESIAN_POINT ( 'NONE',  ( -25.00000000000000000, 33.75000000000000000, 20.25000000000000000 ) ) ;
#794 = ADVANCED_FACE ( 'NONE', ( #110 ), #323, .F. ) ;
#795 = AXIS2_PLACEMENT_3D ( 'NONE', #473, #340, #766 ) ;
#796 = DIRECTION ( 'NONE',  ( -0.000000000000000000, -1.000000000000000000, 0.000000000000000000 ) ) ;
#797 = LINE ( 'NONE', #268, #158 ) ;
#798 = CIRCLE ( 'NONE', #208, 2.000000000000000000 ) ;
#799 = VERTEX_POINT ( 'NONE', #264 ) ;
#800 = DIRECTION ( 'NONE',  ( -0.000000000000000000, -1.000000000000000000, 0.000000000000000000 ) ) ;
#801 = LINE ( 'NONE', #285, #49 ) ;
#802 = CARTESIAN_POINT ( 'NONE',  ( -2.000000000000000000, 42.00000000000000000, 0.000000000000000000 ) ) ;
#803 = EDGE_CURVE ( 'NONE', #391, #126, #555, .T. ) ;
#804 = ORIENTED_EDGE ( 'NONE', *, *, #242, .F. ) ;
#805 = FACE_OUTER_BOUND ( 'NONE', #655, .T. ) ;
#806 = DIRECTION ( 'NONE',  ( 1.000000000000000000, 0.000000000000000000, 0.000000000000000000 ) ) ;
#807 = CARTESIAN_POINT ( 'NONE',  ( 0.000000000000000000, 6.386936434278244589E-15, 9.749999999999991118 ) ) ;
#808 = DIRECTION ( 'NONE',  ( 1.000000000000000000, -0.000000000000000000, -0.000000000000000000 ) ) ;
#809 = ORIENTED_EDGE ( 'NONE', *, *, #588, .F. ) ;
#810 = ORIENTED_EDGE ( 'NONE', *, *, #83, .T. ) ;
#811 = LINE ( 'NONE', #352, #389 ) ;
#812 = AXIS2_PLACEMENT_3D ( 'NONE', #223, #647, #515 ) ;
#813 = VERTEX_POINT ( 'NONE', #610 ) ;
#814 = AXIS2_PLACEMENT_3D ( 'NONE', #33, #546, #25 ) ;
#815 = CARTESIAN_POINT ( 'NONE',  ( -25.00000000000000000, 33.75000000000000000, 4.250000000000009770 ) ) ;
#816 = ADVANCED_FACE ( 'NONE', ( #465 ), #760, .F. ) ;
#817 = LINE ( 'NONE', #78, #902 ) ;
#818 = VERTEX_POINT ( 'NONE', #892 ) ;
#819 = ORIENTED_EDGE ( 'NONE', *, *, #122, .F. ) ;
#820 = APPLICATION_CONTEXT ( 'automotive_design' ) ;
#821 = DIRECTION ( 'NONE',  ( -1.000000000000000000, 0.000000000000000000, 0.000000000000000000 ) ) ;
#822 = ADVANCED_FACE ( 'NONE', ( #37 ), #757, .T. ) ;
#823 = CARTESIAN_POINT ( 'NONE',  ( 2.000000000000000000, 38.00000000000000000, 0.000000000000000000 ) ) ;
#824 = ORIENTED_EDGE ( 'NONE', *, *, #910, .F. ) ;
#825 = CARTESIAN_POINT ( 'NONE',  ( 2.000000000000000000, 2.000000000000000000, 27.99999999999999645 ) ) ;
#826 = ORIENTED_EDGE ( 'NONE', *, *, #762, .T. ) ;
#827 = VECTOR ( 'NONE', #808, 1000.000000000000000 ) ;
#828 = VECTOR ( 'NONE', #55, 1000.000000000000000 ) ;
#829 = STYLED_ITEM ( 'NONE', ( #192 ), #72 ) ;
#830 = DIRECTION ( 'NONE',  ( -0.000000000000000000, 1.000000000000000000, 0.000000000000000000 ) ) ;
#831 = EDGE_LOOP ( 'NONE', ( #496, #645, #98, #905 ) ) ;
#832 = EDGE_CURVE ( 'NONE', #440, #666, #5, .T. ) ;
#833 = LINE ( 'NONE', #314, #732 ) ;
#834 = ORIENTED_EDGE ( 'NONE', *, *, #83, .F. ) ;
#835 = FACE_BOUND ( 'NONE', #478, .T. ) ;
#836 = DIRECTION ( 'NONE',  ( 0.000000000000000000, 0.000000000000000000, 1.000000000000000000 ) ) ;
#837 = ORIENTED_EDGE ( 'NONE', *, *, #466, .T. ) ;
#838 = VECTOR ( 'NONE', #215, 1000.000000000000000 ) ;
#839 = AXIS2_PLACEMENT_3D ( 'NONE', #906, #914, #481 ) ;
#840 = EDGE_CURVE ( 'NONE', #569, #560, #87, .T. ) ;
#841 = FACE_BOUND ( 'NONE', #385, .T. ) ;
#842 = ORIENTED_EDGE ( 'NONE', *, *, #53, .F. ) ;
#843 = CARTESIAN_POINT ( 'NONE',  ( -12.50000000000000355, 42.00000000000000000, 8.750000000000000000 ) ) ;
#844 = VERTEX_POINT ( 'NONE', #230 ) ;
#845 = FACE_OUTER_BOUND ( 'NONE', #202, .T. ) ;
#846 = VERTEX_POINT ( 'NONE', #241 ) ;
#847 = DIRECTION ( 'NONE',  ( -0.000000000000000000, -0.000000000000000000, -1.000000000000000000 ) ) ;
#848 = DIRECTION ( 'NONE',  ( 0.000000000000000000, -1.000000000000000000, 0.000000000000000000 ) ) ;
#849 = DIRECTION ( 'NONE',  ( -0.000000000000000000, -1.000000000000000000, -0.000000000000000000 ) ) ;
#850 = EDGE_CURVE ( 'NONE', #964, #844, #451, .T. ) ;
#851 = ORIENTED_EDGE ( 'NONE', *, *, #840, .F. ) ;
#852 = CARTESIAN_POINT ( 'NONE',  ( -12.50000000000000355, 40.00000000000000000, 10.44999999999999929 ) ) ;
#853 = CARTESIAN_POINT ( 'NONE',  ( 2.000000000000001776, 33.74999999999999289, 7.000000000000004441 ) ) ;
#854 = APPLICATION_PROTOCOL_DEFINITION ( 'draft international standard', 'automotive_design', 1998, #820 ) ;
#855 = VECTOR ( 'NONE', #548, 1000.000000000000000 ) ;
#856 = CIRCLE ( 'NONE', #734, 2.000000000000000000 ) ;
#857 = DIRECTION ( 'NONE',  ( 1.000000000000000000, -0.000000000000000000, -0.000000000000000000 ) ) ;
#858 = CARTESIAN_POINT ( 'NONE',  ( 2.000000000000000000, 38.00000000000000000, 30.00000000000000000 ) ) ;
#859 = ORIENTED_EDGE ( 'NONE', *, *, #322, .T. ) ;
#860 = DIRECTION ( 'NONE',  ( -0.000000000000000000, -1.000000000000000000, -0.000000000000000000 ) ) ;
#861 = PLANE ( 'NONE',  #362 ) ;
#862 = ORIENTED_EDGE ( 'NONE', *, *, #27, .F. ) ;
#863 = DIRECTION ( 'NONE',  ( 1.000000000000000000, -0.000000000000000000, -0.000000000000000000 ) ) ;
#864 = EDGE_LOOP ( 'NONE', ( #516, #319, #930, #617 ) ) ;
#865 = DIRECTION ( 'NONE',  ( 0.000000000000000000, 1.000000000000000000, -1.261617073437677752E-16 ) ) ;
#866 = LINE ( 'NONE', #793, #696 ) ;
#867 = CARTESIAN_POINT ( 'NONE',  ( -12.50000000000000355, 42.00000000000000000, 21.24999999999999645 ) ) ;
#868 = CARTESIAN_POINT ( 'NONE',  ( -2.000000000000000000, 40.00000000000000000, 0.000000000000000000 ) ) ;
#869 = ORIENTED_EDGE ( 'NONE', *, *, #707, .T. ) ;
#870 = PLANE ( 'NONE',  #73 ) ;
#871 = LINE ( 'NONE', #730, #915 ) ;
#872 = EDGE_CURVE ( 'NONE', #553, #569, #169, .T. ) ;
#873 = VECTOR ( 'NONE', #65, 1000.000000000000000 ) ;
#874 = CIRCLE ( 'NONE', #518, 2.000000000000000000 ) ;
#875 = LINE ( 'NONE', #894, #838 ) ;
#876 =( GEOMETRIC_REPRESENTATION_CONTEXT ( 3 ) GLOBAL_UNCERTAINTY_ASSIGNED_CONTEXT ( ( #9 ) ) GLOBAL_UNIT_ASSIGNED_CONTEXT ( ( #213, #931, #492 ) ) REPRESENTATION_CONTEXT ( 'NONE', 'WORKASPACE' ) );
#877 = ORIENTED_EDGE ( 'NONE', *, *, #904, .F. ) ;
#878 = SURFACE_SIDE_STYLE ('',( #431 ) ) ;
#879 = DIRECTION ( 'NONE',  ( -1.000000000000000000, 0.000000000000000000, -0.000000000000000000 ) ) ;
#880 = ADVANCED_FACE ( 'NONE', ( #234 ), #84, .F. ) ;
#881 = CARTESIAN_POINT ( 'NONE',  ( 2.000000000000001776, 6.250000000000000888, 23.00000000000000711 ) ) ;
#882 = ORIENTED_EDGE ( 'NONE', *, *, #266, .T. ) ;
#883 = DIRECTION ( 'NONE',  ( 0.000000000000000000, 0.000000000000000000, -1.000000000000000000 ) ) ;
#884 = ORIENTED_EDGE ( 'NONE', *, *, #677, .F. ) ;
#885 = ORIENTED_EDGE ( 'NONE', *, *, #623, .F. ) ;
#886 = ADVANCED_FACE ( 'NONE', ( #289 ), #870, .F. ) ;
#887 = FACE_OUTER_BOUND ( 'NONE', #661, .T. ) ;
#888 = VECTOR ( 'NONE', #209, 1000.000000000000000 ) ;
#889 = EDGE_CURVE ( 'NONE', #666, #631, #125, .T. ) ;
#890 = ORIENTED_EDGE ( 'NONE', *, *, #753, .T. ) ;
#891 = VECTOR ( 'NONE', #487, 1000.000000000000000 ) ;
#892 = CARTESIAN_POINT ( 'NONE',  ( -2.000000000000000000, 40.00000000000000000, 30.00000000000000000 ) ) ;
#893 = FACE_OUTER_BOUND ( 'NONE', #864, .T. ) ;
#894 = CARTESIAN_POINT ( 'NONE',  ( 2.000000000000000000, 0.000000000000000000, 25.75000000000000355 ) ) ;
#895 = ORIENTED_EDGE ( 'NONE', *, *, #109, .F. ) ;
#896 = ORIENTED_EDGE ( 'NONE', *, *, #803, .F. ) ;
#897 = DIRECTION ( 'NONE',  ( 0.000000000000000000, -0.000000000000000000, 1.000000000000000000 ) ) ;
#898 = MANIFOLD_SOLID_BREP ( 'Schnitt-Linear austragen1', #482 ) ;
#899 = EDGE_CURVE ( 'NONE', #846, #678, #578, .T. ) ;
#900 = DIRECTION ( 'NONE',  ( -1.000000000000000000, 0.000000000000000000, 0.000000000000000000 ) ) ;
#901 = EDGE_LOOP ( 'NONE', ( #884, #490, #673, #890, #963, #220 ) ) ;
#902 = VECTOR ( 'NONE', #286, 1000.000000000000000 ) ;
#903 = AXIS2_PLACEMENT_3D ( 'NONE', #598, #664, #748 ) ;
#904 = EDGE_CURVE ( 'NONE', #846, #450, #212, .T. ) ;
#905 = ORIENTED_EDGE ( 'NONE', *, *, #633, .F. ) ;
#906 = CARTESIAN_POINT ( 'NONE',  ( -2.000000000000000000, 2.000000000000001776, 2.000000000000000000 ) ) ;
#907 = DIRECTION ( 'NONE',  ( -0.000000000000000000, -1.000000000000000000, -0.000000000000000000 ) ) ;
#908 = ORIENTED_EDGE ( 'NONE', *, *, #207, .F. ) ;
#909 = EDGE_CURVE ( 'NONE', #102, #391, #798, .T. ) ;
#910 = EDGE_CURVE ( 'NONE', #844, #90, #404, .T. ) ;
#911 = DIRECTION ( 'NONE',  ( -0.000000000000000000, -1.000000000000000000, 0.000000000000000000 ) ) ;
#912 = VERTEX_POINT ( 'NONE', #133 ) ;
#913 = AXIS2_PLACEMENT_3D ( 'NONE', #123, #568, #30 ) ;
#914 = DIRECTION ( 'NONE',  ( -1.000000000000000000, 0.000000000000000000, 0.000000000000000000 ) ) ;
#915 = VECTOR ( 'NONE', #199, 1000.000000000000000 ) ;
#916 = VECTOR ( 'NONE', #830, 1000.000000000000000 ) ;
#917 = AXIS2_PLACEMENT_3D ( 'NONE', #791, #951, #806 ) ;
#918 = DIRECTION ( 'NONE',  ( -0.000000000000000000, -0.000000000000000000, 1.000000000000000000 ) ) ;
#919 = LINE ( 'NONE', #461, #855 ) ;
#920 = DIRECTION ( 'NONE',  ( 0.000000000000000000, 0.000000000000000000, -1.000000000000000000 ) ) ;
#921 = EDGE_CURVE ( 'NONE', #582, #700, #430, .T. ) ;
#922 = CARTESIAN_POINT ( 'NONE',  ( -2.000000000000000000, 38.00000000000000000, 30.00000000000000000 ) ) ;
#923 = ORIENTED_EDGE ( 'NONE', *, *, #706, .F. ) ;
#924 = EDGE_LOOP ( 'NONE', ( #764, #411, #17, #348 ) ) ;
#925 = FACE_OUTER_BOUND ( 'NONE', #79, .T. ) ;
#926 = SURFACE_STYLE_USAGE ( .BOTH. , #878 ) ;
#927 = VERTEX_POINT ( 'NONE', #781 ) ;
#928 = ORIENTED_EDGE ( 'NONE', *, *, #27, .T. ) ;
#929 = DIRECTION ( 'NONE',  ( -1.000000000000000000, 0.000000000000000000, 0.000000000000000000 ) ) ;
#930 = ORIENTED_EDGE ( 'NONE', *, *, #334, .F. ) ;
#931 =( NAMED_UNIT ( * ) PLANE_ANGLE_UNIT ( ) SI_UNIT ( $, .RADIAN. ) );
#932 = CARTESIAN_POINT ( 'NONE',  ( -12.50000000000000355, 40.00000000000000000, 8.750000000000000000 ) ) ;
#933 = CIRCLE ( 'NONE', #576, 2.749999999999999112 ) ;
#934 = CARTESIAN_POINT ( 'NONE',  ( -12.50000000000000355, 40.00000000000000000, 22.94999999999999929 ) ) ;
#935 = EDGE_CURVE ( 'NONE', #818, #26, #417, .T. ) ;
#936 = DIRECTION ( 'NONE',  ( 0.000000000000000000, 0.000000000000000000, 1.000000000000000000 ) ) ;
#937 = ORIENTED_EDGE ( 'NONE', *, *, #729, .T. ) ;
#938 = SURFACE_STYLE_USAGE ( .BOTH. , #716 ) ;
#939 = ORIENTED_EDGE ( 'NONE', *, *, #356, .F. ) ;
#940 = DIRECTION ( 'NONE',  ( 1.000000000000000000, -0.000000000000000000, -0.000000000000000000 ) ) ;
#941 = LINE ( 'NONE', #426, #32 ) ;
#942 = DIRECTION ( 'NONE',  ( -0.000000000000000000, -0.000000000000000000, -1.000000000000000000 ) ) ;
#943 = ADVANCED_FACE ( 'NONE', ( #805 ), #115, .F. ) ;
#944 = ORIENTED_EDGE ( 'NONE', *, *, #506, .T. ) ;
#945 = EDGE_CURVE ( 'NONE', #283, #131, #405, .T. ) ;
#946 = CARTESIAN_POINT ( 'NONE',  ( -12.50000000000000355, 40.00000000000000000, 21.24999999999999645 ) ) ;
#947 = DIRECTION ( 'NONE',  ( -0.000000000000000000, -1.000000000000000000, -0.000000000000000000 ) ) ;
#948 = DIRECTION ( 'NONE',  ( 0.000000000000000000, 1.000000000000000000, 0.000000000000000000 ) ) ;
#949 = DIRECTION ( 'NONE',  ( 0.000000000000000000, -9.462128050782598674E-16, -1.000000000000000000 ) ) ;
#950 = VERTEX_POINT ( 'NONE', #436 ) ;
#951 = DIRECTION ( 'NONE',  ( 0.000000000000000000, 0.000000000000000000, 1.000000000000000000 ) ) ;
#952 = DIRECTION ( 'NONE',  ( 1.000000000000000000, -0.000000000000000000, -0.000000000000000000 ) ) ;
#953 = AXIS2_PLACEMENT_3D ( 'NONE', #867, #796, #784 ) ;
#954 = AXIS2_PLACEMENT_3D ( 'NONE', #46, #788, #420 ) ;
#955 = AXIS2_PLACEMENT_3D ( 'NONE', #644, #554, #271 ) ;
#956 = PLANE ( 'NONE',  #184 ) ;
#957 = COLOUR_RGB ( '',0.5294117647058823595, 0.5490196078431373028, 0.5490196078431373028 ) ;
#958 = ORIENTED_EDGE ( 'NONE', *, *, #163, .T. ) ;
#959 = CARTESIAN_POINT ( 'NONE',  ( -12.50000000000000355, 42.00000000000000000, 22.94999999999999929 ) ) ;
#960 = ADVANCED_FACE ( 'NONE', ( #728 ), #198, .F. ) ;
#961 = ADVANCED_FACE ( 'NONE', ( #424 ), #717, .F. ) ;
#962 = DIRECTION ( 'NONE',  ( 0.000000000000000000, 1.000000000000000000, 0.000000000000000000 ) ) ;
#963 = ORIENTED_EDGE ( 'NONE', *, *, #443, .T. ) ;
#964 = VERTEX_POINT ( 'NONE', #339 ) ;
#965 = DIRECTION ( 'NONE',  ( -0.000000000000000000, 1.000000000000000000, 0.000000000000000000 ) ) ;
#966 = ORIENTED_EDGE ( 'NONE', *, *, #394, .F. ) ;
ENDSEC;
END-ISO-10303-21;
