ISO-10303-21;
HEADER;
FILE_DESCRIPTION (( 'STEP AP214' ),
    '1' );
FILE_NAME ('E.Flex_01_Versteifung_Tür_lang_V1.1.STEP',
    '2025-08-29T10:26:52',
    ( '' ),
    ( '' ),
    'SwSTEP 2.0',
    'SolidWorks 2021',
    '' );
FILE_SCHEMA (( 'AUTOMOTIVE_DESIGN' ));
ENDSEC;

DATA;
#1 = VERTEX_POINT ( 'NONE', #66 ) ;
#2 =( LENGTH_UNIT ( ) NAMED_UNIT ( * ) SI_UNIT ( .MILLI., .METRE. ) );
#3 = VERTEX_POINT ( 'NONE', #45 ) ;
#4 = CARTESIAN_POINT ( 'NONE',  ( -400.0000000000004547, 1.499999999999945821, 13.00000000000000000 ) ) ;
#5 = CARTESIAN_POINT ( 'NONE',  ( -400.0000000000004547, -1.500000000000056843, 0.000000000000000000 ) ) ;
#6 = DIRECTION ( 'NONE',  ( -0.000000000000000000, -0.000000000000000000, -1.000000000000000000 ) ) ;
#7 = CARTESIAN_POINT ( 'NONE',  ( -398.0000000000004547, -1.500000000000056843, 15.00000000000000000 ) ) ;
#8 = ADVANCED_FACE ( 'NONE', ( #87 ), #138, .T. ) ;
#9 = DIRECTION ( 'NONE',  ( -1.000000000000000000, -1.387778780781445676E-16, 0.000000000000000000 ) ) ;
#10 = VECTOR ( 'NONE', #246, 1000.000000000000000 ) ;
#11 = CARTESIAN_POINT ( 'NONE',  ( 399.9999999999996021, 1.500000000000056843, 13.00000000000000000 ) ) ;
#12 = CARTESIAN_POINT ( 'NONE',  ( -400.0000000000004547, -1.500000000000056843, 15.00000000000000000 ) ) ;
#13 = FILL_AREA_STYLE ('',( #267 ) ) ;
#14 = ORIENTED_EDGE ( 'NONE', *, *, #176, .F. ) ;
#15 = DIRECTION ( 'NONE',  ( -0.000000000000000000, -1.000000000000000000, -0.000000000000000000 ) ) ;
#16 = VECTOR ( 'NONE', #92, 1000.000000000000000 ) ;
#17 = EDGE_LOOP ( 'NONE', ( #103, #115, #153, #155 ) ) ;
#18 = ADVANCED_FACE ( 'NONE', ( #117 ), #271, .F. ) ;
#19 = EDGE_LOOP ( 'NONE', ( #215, #90, #110, #156 ) ) ;
#20 = AXIS2_PLACEMENT_3D ( 'NONE', #220, #217, #122 ) ;
#21 = PRESENTATION_LAYER_ASSIGNMENT (  '', '', ( #57 ) ) ;
#22 = PRESENTATION_STYLE_ASSIGNMENT (( #133 ) ) ;
#23 = ORIENTED_EDGE ( 'NONE', *, *, #70, .F. ) ;
#24 = EDGE_CURVE ( 'NONE', #64, #196, #130, .T. ) ;
#25 = DIRECTION ( 'NONE',  ( 0.000000000000000000, 0.000000000000000000, -1.000000000000000000 ) ) ;
#26 = EDGE_CURVE ( 'NONE', #224, #132, #174, .T. ) ;
#27 = CARTESIAN_POINT ( 'NONE',  ( -398.0000000000004547, 1.499999999999946043, 13.00000000000000000 ) ) ;
#28 = AXIS2_PLACEMENT_3D ( 'NONE', #30, #258, #160 ) ;
#29 = DIRECTION ( 'NONE',  ( 1.000000000000000000, 1.084202172485503448E-16, 0.000000000000000000 ) ) ;
#30 = CARTESIAN_POINT ( 'NONE',  ( 397.9999999999996021, -1.499999999999946043, 13.00000000000000000 ) ) ;
#31 = ADVANCED_FACE ( 'NONE', ( #241 ), #182, .F. ) ;
#32 = DIRECTION ( 'NONE',  ( 0.000000000000000000, -0.000000000000000000, 1.000000000000000000 ) ) ;
#33 = LINE ( 'NONE', #143, #149 ) ;
#34 = MECHANICAL_DESIGN_GEOMETRIC_PRESENTATION_REPRESENTATION (  '', ( #57 ), #97 ) ;
#35 = CARTESIAN_POINT ( 'NONE',  ( 399.9999999999996021, 1.500000000000056843, 15.00000000000000000 ) ) ;
#36 = EDGE_LOOP ( 'NONE', ( #42, #148, #134, #244 ) ) ;
#37 = EDGE_LOOP ( 'NONE', ( #213, #78, #178, #23 ) ) ;
#38 = ORIENTED_EDGE ( 'NONE', *, *, #70, .T. ) ;
#39 = UNCERTAINTY_MEASURE_WITH_UNIT (LENGTH_MEASURE( 1.000000000000000082E-05 ), #185, 'distance_accuracy_value', 'NONE');
#40 = AXIS2_PLACEMENT_3D ( 'NONE', #199, #123, #68 ) ;
#41 = ORIENTED_EDGE ( 'NONE', *, *, #72, .T. ) ;
#42 = ORIENTED_EDGE ( 'NONE', *, *, #157, .F. ) ;
#43 = VERTEX_POINT ( 'NONE', #96 ) ;
#44 = PRESENTATION_LAYER_ASSIGNMENT (  '', '', ( #168 ) ) ;
#45 = CARTESIAN_POINT ( 'NONE',  ( -398.0000000000004547, -1.500000000000056621, 15.00000000000000000 ) ) ;
#46 = FACE_OUTER_BOUND ( 'NONE', #232, .T. ) ;
#47 = PRODUCT_DEFINITION_SHAPE ( 'NONE', 'NONE',  #211 ) ;
#48 = DIRECTION ( 'NONE',  ( -0.000000000000000000, -1.000000000000000000, -0.000000000000000000 ) ) ;
#49 = VECTOR ( 'NONE', #202, 1000.000000000000000 ) ;
#50 = CARTESIAN_POINT ( 'NONE',  ( 399.9999999999996021, -1.499999999999945821, 15.00000000000000000 ) ) ;
#51 = CARTESIAN_POINT ( 'NONE',  ( 397.9999999999996021, 1.500000000000056621, 15.00000000000000000 ) ) ;
#52 = DIRECTION ( 'NONE',  ( -0.000000000000000000, 1.000000000000000000, 0.000000000000000000 ) ) ;
#53 = VECTOR ( 'NONE', #48, 1000.000000000000000 ) ;
#54 = ADVANCED_FACE ( 'NONE', ( #161 ), #201, .T. ) ;
#55 =( NAMED_UNIT ( * ) PLANE_ANGLE_UNIT ( ) SI_UNIT ( $, .RADIAN. ) );
#56 = AXIS2_PLACEMENT_3D ( 'NONE', #50, #142, #204 ) ;
#57 = STYLED_ITEM ( 'NONE', ( #22 ), #266 ) ;
#58 = CARTESIAN_POINT ( 'NONE',  ( 397.9999999999996021, -1.499999999999946043, 15.00000000000000000 ) ) ;
#59 = ADVANCED_FACE ( 'NONE', ( #75 ), #71, .F. ) ;
#60 = DIRECTION ( 'NONE',  ( 1.387778780781445676E-16, -1.000000000000000000, 0.000000000000000000 ) ) ;
#61 = EDGE_CURVE ( 'NONE', #82, #253, #164, .T. ) ;
#62 = CARTESIAN_POINT ( 'NONE',  ( 397.9999999999996021, 0.000000000000000000, 13.00000000000000000 ) ) ;
#63 = VECTOR ( 'NONE', #262, 1000.000000000000000 ) ;
#64 = VERTEX_POINT ( 'NONE', #198 ) ;
#65 = ORIENTED_EDGE ( 'NONE', *, *, #191, .T. ) ;
#66 = CARTESIAN_POINT ( 'NONE',  ( 399.9999999999996021, 1.500000000000056843, 0.000000000000000000 ) ) ;
#67 =( GEOMETRIC_REPRESENTATION_CONTEXT ( 3 ) GLOBAL_UNCERTAINTY_ASSIGNED_CONTEXT ( ( #84 ) ) GLOBAL_UNIT_ASSIGNED_CONTEXT ( ( #188, #102, #146 ) ) REPRESENTATION_CONTEXT ( 'NONE', 'WORKASPACE' ) );
#68 = DIRECTION ( 'NONE',  ( 1.000000000000000000, 1.084202172485503448E-16, 0.000000000000000000 ) ) ;
#69 = DIRECTION ( 'NONE',  ( -1.387778780781445676E-16, 1.000000000000000000, -0.000000000000000000 ) ) ;
#70 = EDGE_CURVE ( 'NONE', #43, #3, #184, .T. ) ;
#71 = PLANE ( 'NONE',  #20 ) ;
#72 = EDGE_CURVE ( 'NONE', #1, #228, #158, .T. ) ;
#73 = AXIS2_PLACEMENT_3D ( 'NONE', #128, #81, #169 ) ;
#74 = DIRECTION ( 'NONE',  ( -0.000000000000000000, -0.000000000000000000, -1.000000000000000000 ) ) ;
#75 = FACE_OUTER_BOUND ( 'NONE', #250, .T. ) ;
#76 = CARTESIAN_POINT ( 'NONE',  ( 399.9999999999996021, 1.500000000000056843, 15.00000000000000000 ) ) ;
#77 = APPLICATION_PROTOCOL_DEFINITION ( 'draft international standard', 'automotive_design', 1998, #187 ) ;
#78 = ORIENTED_EDGE ( 'NONE', *, *, #26, .F. ) ;
#79 = EDGE_CURVE ( 'NONE', #132, #228, #259, .T. ) ;
#80 = CARTESIAN_POINT ( 'NONE',  ( 399.9999999999996021, -1.499999999999945821, 0.000000000000000000 ) ) ;
#81 = DIRECTION ( 'NONE',  ( 1.387778780781445676E-16, -1.000000000000000000, -0.000000000000000000 ) ) ;
#82 = VERTEX_POINT ( 'NONE', #51 ) ;
#83 = EDGE_CURVE ( 'NONE', #3, #270, #33, .T. ) ;
#84 = UNCERTAINTY_MEASURE_WITH_UNIT (LENGTH_MEASURE( 1.000000000000000082E-05 ), #188, 'distance_accuracy_value', 'NONE');
#85 = APPLICATION_PROTOCOL_DEFINITION ( 'draft international standard', 'automotive_design', 1998, #101 ) ;
#86 = CARTESIAN_POINT ( 'NONE',  ( 399.9999999999996021, -1.499999999999945821, 15.00000000000000000 ) ) ;
#87 = FACE_OUTER_BOUND ( 'NONE', #36, .T. ) ;
#88 = AXIS2_PLACEMENT_3D ( 'NONE', #119, #52, #93 ) ;
#89 = AXIS2_PLACEMENT_3D ( 'NONE', #12, #227, #127 ) ;
#90 = ORIENTED_EDGE ( 'NONE', *, *, #26, .T. ) ;
#91 = ORIENTED_EDGE ( 'NONE', *, *, #94, .T. ) ;
#92 = DIRECTION ( 'NONE',  ( -0.000000000000000000, 1.000000000000000000, -0.000000000000000000 ) ) ;
#93 = DIRECTION ( 'NONE',  ( 0.000000000000000000, 0.000000000000000000, 1.000000000000000000 ) ) ;
#94 = EDGE_CURVE ( 'NONE', #270, #82, #179, .T. ) ;
#95 = DIRECTION ( 'NONE',  ( 1.000000000000000000, 1.387778780781445676E-16, -0.000000000000000000 ) ) ;
#96 = CARTESIAN_POINT ( 'NONE',  ( -398.0000000000004547, 1.499999999999946043, 15.00000000000000000 ) ) ;
#97 =( GEOMETRIC_REPRESENTATION_CONTEXT ( 3 ) GLOBAL_UNCERTAINTY_ASSIGNED_CONTEXT ( ( #195 ) ) GLOBAL_UNIT_ASSIGNED_CONTEXT ( ( #2, #231, #112 ) ) REPRESENTATION_CONTEXT ( 'NONE', 'WORKASPACE' ) );
#98 = DIRECTION ( 'NONE',  ( 0.000000000000000000, 1.000000000000000000, 0.000000000000000000 ) ) ;
#99 = FILL_AREA_STYLE_COLOUR ( '', #240 ) ;
#100 = FILL_AREA_STYLE ('',( #99 ) ) ;
#101 = APPLICATION_CONTEXT ( 'automotive_design' ) ;
#102 =( NAMED_UNIT ( * ) PLANE_ANGLE_UNIT ( ) SI_UNIT ( $, .RADIAN. ) );
#103 = ORIENTED_EDGE ( 'NONE', *, *, #129, .F. ) ;
#104 = CARTESIAN_POINT ( 'NONE',  ( -400.0000000000004547, -1.500000000000056843, 13.00000000000000000 ) ) ;
#105 = VERTEX_POINT ( 'NONE', #5 ) ;
#106 = SURFACE_STYLE_FILL_AREA ( #100 ) ;
#107 = EDGE_CURVE ( 'NONE', #105, #196, #162, .T. ) ;
#108 = COLOUR_RGB ( '',0.5294117647058823595, 0.5490196078431373028, 0.5490196078431373028 ) ;
#109 = DIRECTION ( 'NONE',  ( 1.000000000000000000, 0.000000000000000000, 0.000000000000000000 ) ) ;
#110 = ORIENTED_EDGE ( 'NONE', *, *, #79, .T. ) ;
#111 = DIRECTION ( 'NONE',  ( 1.000000000000000000, 1.387778780781445676E-16, 0.000000000000000000 ) ) ;
#112 =( NAMED_UNIT ( * ) SI_UNIT ( $, .STERADIAN. ) SOLID_ANGLE_UNIT ( ) );
#113 = PRODUCT_DEFINITION_CONTEXT ( 'detailed design', #101, 'design' ) ;
#114 = AXIS2_PLACEMENT_3D ( 'NONE', #210, #60, #111 ) ;
#115 = ORIENTED_EDGE ( 'NONE', *, *, #72, .F. ) ;
#116 = ADVANCED_FACE ( 'NONE', ( #46 ), #139, .T. ) ;
#117 = FACE_OUTER_BOUND ( 'NONE', #255, .T. ) ;
#118 = EDGE_CURVE ( 'NONE', #132, #43, #205, .T. ) ;
#119 = CARTESIAN_POINT ( 'NONE',  ( -398.0000000000004547, 0.000000000000000000, 13.00000000000000000 ) ) ;
#120 = VECTOR ( 'NONE', #9, 1000.000000000000000 ) ;
#121 = LINE ( 'NONE', #200, #209 ) ;
#122 = DIRECTION ( 'NONE',  ( 0.000000000000000000, 0.000000000000000000, 1.000000000000000000 ) ) ;
#123 = DIRECTION ( 'NONE',  ( -1.387778780781445676E-16, 1.000000000000000000, -0.000000000000000000 ) ) ;
#124 = PRODUCT_RELATED_PRODUCT_CATEGORY ( 'part', '', ( #154 ) ) ;
#125 = SURFACE_SIDE_STYLE ('',( #106 ) ) ;
#126 = CARTESIAN_POINT ( 'NONE',  ( 399.9999999999996021, -1.499999999999945821, 0.000000000000000000 ) ) ;
#127 = DIRECTION ( 'NONE',  ( 0.000000000000000000, 0.000000000000000000, -1.000000000000000000 ) ) ;
#128 = CARTESIAN_POINT ( 'NONE',  ( -398.0000000000004547, -1.500000000000056621, 13.00000000000000000 ) ) ;
#129 = EDGE_CURVE ( 'NONE', #228, #105, #159, .T. ) ;
#130 = LINE ( 'NONE', #86, #173 ) ;
#131 = CARTESIAN_POINT ( 'NONE',  ( 0.000000000000000000, 0.000000000000000000, 0.000000000000000000 ) ) ;
#132 = VERTEX_POINT ( 'NONE', #140 ) ;
#133 = SURFACE_STYLE_USAGE ( .BOTH. , #135 ) ;
#134 = ORIENTED_EDGE ( 'NONE', *, *, #61, .F. ) ;
#135 = SURFACE_SIDE_STYLE ('',( #150 ) ) ;
#136 = ORIENTED_EDGE ( 'NONE', *, *, #157, .T. ) ;
#137 = VECTOR ( 'NONE', #15, 1000.000000000000000 ) ;
#138 = CYLINDRICAL_SURFACE ( 'NONE', #226, 2.000000000000000000 ) ;
#139 = PLANE ( 'NONE',  #252 ) ;
#140 = CARTESIAN_POINT ( 'NONE',  ( -400.0000000000004547, 1.499999999999945821, 13.00000000000000000 ) ) ;
#141 = PRODUCT_DEFINITION_FORMATION_WITH_SPECIFIED_SOURCE ( 'ANY', '', #154, .NOT_KNOWN. ) ;
#142 = DIRECTION ( 'NONE',  ( -1.387778780781445676E-16, 1.000000000000000000, 0.000000000000000000 ) ) ;
#143 = CARTESIAN_POINT ( 'NONE',  ( 399.9999999999996021, -1.499999999999945821, 15.00000000000000000 ) ) ;
#144 = DIRECTION ( 'NONE',  ( 1.000000000000000000, 0.000000000000000000, -0.000000000000000000 ) ) ;
#145 = VECTOR ( 'NONE', #236, 1000.000000000000000 ) ;
#146 =( NAMED_UNIT ( * ) SI_UNIT ( $, .STERADIAN. ) SOLID_ANGLE_UNIT ( ) );
#147 = EDGE_CURVE ( 'NONE', #224, #105, #121, .T. ) ;
#148 = ORIENTED_EDGE ( 'NONE', *, *, #191, .F. ) ;
#149 = VECTOR ( 'NONE', #95, 1000.000000000000000 ) ;
#150 = SURFACE_STYLE_FILL_AREA ( #13 ) ;
#151 = ORIENTED_EDGE ( 'NONE', *, *, #107, .T. ) ;
#152 = DIRECTION ( 'NONE',  ( -0.000000000000000000, -0.000000000000000000, -1.000000000000000000 ) ) ;
#153 = ORIENTED_EDGE ( 'NONE', *, *, #229, .F. ) ;
#154 = PRODUCT ( 'E.Flex_01_Versteifung_Tür_lang_V1.1', 'E.Flex_01_Versteifung_Tür_lang_V1.1', '', ( #172 ) ) ;
#155 = ORIENTED_EDGE ( 'NONE', *, *, #107, .F. ) ;
#156 = ORIENTED_EDGE ( 'NONE', *, *, #129, .T. ) ;
#157 = EDGE_CURVE ( 'NONE', #64, #270, #183, .T. ) ;
#158 = LINE ( 'NONE', #219, #120 ) ;
#159 = LINE ( 'NONE', #237, #53 ) ;
#160 = DIRECTION ( 'NONE',  ( -1.000000000000000000, -1.084202172485503448E-16, 0.000000000000000000 ) ) ;
#161 = FACE_OUTER_BOUND ( 'NONE', #37, .T. ) ;
#162 = LINE ( 'NONE', #221, #145 ) ;
#163 = DIRECTION ( 'NONE',  ( -0.000000000000000000, -0.000000000000000000, -1.000000000000000000 ) ) ;
#164 = CIRCLE ( 'NONE', #40, 2.000000000000001776 ) ;
#165 = FACE_OUTER_BOUND ( 'NONE', #19, .T. ) ;
#166 = ADVANCED_FACE ( 'NONE', ( #181 ), #239, .F. ) ;
#167 = LINE ( 'NONE', #76, #218 ) ;
#168 = STYLED_ITEM ( 'NONE', ( #225 ), #233 ) ;
#169 = DIRECTION ( 'NONE',  ( -1.000000000000000000, -1.084202172485503448E-16, 0.000000000000000000 ) ) ;
#170 = ORIENTED_EDGE ( 'NONE', *, *, #24, .F. ) ;
#171 = DIRECTION ( 'NONE',  ( 0.000000000000000000, -1.000000000000000000, 0.000000000000000000 ) ) ;
#172 = PRODUCT_CONTEXT ( 'NONE', #187, 'mechanical' ) ;
#173 = VECTOR ( 'NONE', #152, 1000.000000000000000 ) ;
#174 = LINE ( 'NONE', #4, #16 ) ;
#175 = ORIENTED_EDGE ( 'NONE', *, *, #79, .F. ) ;
#176 = EDGE_CURVE ( 'NONE', #82, #43, #247, .T. ) ;
#177 = DIRECTION ( 'NONE',  ( 0.000000000000000000, 0.000000000000000000, 1.000000000000000000 ) ) ;
#178 = ORIENTED_EDGE ( 'NONE', *, *, #238, .F. ) ;
#179 = LINE ( 'NONE', #256, #265 ) ;
#180 = DIRECTION ( 'NONE',  ( 0.000000000000000000, -0.000000000000000000, 1.000000000000000000 ) ) ;
#181 = FACE_OUTER_BOUND ( 'NONE', #251, .T. ) ;
#182 = PLANE ( 'NONE',  #248 ) ;
#183 = CIRCLE ( 'NONE', #28, 2.000000000000001776 ) ;
#184 = LINE ( 'NONE', #7, #49 ) ;
#185 =( LENGTH_UNIT ( ) NAMED_UNIT ( * ) SI_UNIT ( .MILLI., .METRE. ) );
#186 = AXIS2_PLACEMENT_3D ( 'NONE', #27, #69, #29 ) ;
#187 = APPLICATION_CONTEXT ( 'automotive_design' ) ;
#188 =( LENGTH_UNIT ( ) NAMED_UNIT ( * ) SI_UNIT ( .MILLI., .METRE. ) );
#189 = CLOSED_SHELL ( 'NONE', ( #264, #166, #59, #18, #116, #31, #8, #54 ) ) ;
#190 = AXIS2_PLACEMENT_3D ( 'NONE', #131, #177, #109 ) ;
#191 = EDGE_CURVE ( 'NONE', #253, #64, #268, .T. ) ;
#192 = ORIENTED_EDGE ( 'NONE', *, *, #118, .T. ) ;
#193 = SHAPE_DEFINITION_REPRESENTATION ( #47, #266 ) ;
#194 = ORIENTED_EDGE ( 'NONE', *, *, #61, .T. ) ;
#195 = UNCERTAINTY_MEASURE_WITH_UNIT (LENGTH_MEASURE( 1.000000000000000082E-05 ), #2, 'distance_accuracy_value', 'NONE');
#196 = VERTEX_POINT ( 'NONE', #80 ) ;
#197 = ORIENTED_EDGE ( 'NONE', *, *, #208, .T. ) ;
#198 = CARTESIAN_POINT ( 'NONE',  ( 399.9999999999996021, -1.499999999999945821, 13.00000000000000000 ) ) ;
#199 = CARTESIAN_POINT ( 'NONE',  ( 397.9999999999996021, 1.500000000000056621, 13.00000000000000000 ) ) ;
#200 = CARTESIAN_POINT ( 'NONE',  ( -400.0000000000004547, -1.500000000000056843, 15.00000000000000000 ) ) ;
#201 = CYLINDRICAL_SURFACE ( 'NONE', #88, 2.000000000000000000 ) ;
#202 = DIRECTION ( 'NONE',  ( 0.000000000000000000, -1.000000000000000000, -0.000000000000000000 ) ) ;
#203 = MECHANICAL_DESIGN_GEOMETRIC_PRESENTATION_REPRESENTATION (  '', ( #168 ), #67 ) ;
#204 = DIRECTION ( 'NONE',  ( -1.000000000000000000, -1.387778780781445676E-16, 0.000000000000000000 ) ) ;
#205 = CIRCLE ( 'NONE', #186, 2.000000000000001776 ) ;
#206 = ORIENTED_EDGE ( 'NONE', *, *, #208, .F. ) ;
#207 = CARTESIAN_POINT ( 'NONE',  ( 399.9999999999996021, -1.499999999999945821, 13.00000000000000000 ) ) ;
#208 = EDGE_CURVE ( 'NONE', #253, #1, #167, .T. ) ;
#209 = VECTOR ( 'NONE', #6, 1000.000000000000000 ) ;
#210 = CARTESIAN_POINT ( 'NONE',  ( 399.9999999999996021, 1.500000000000056843, 15.00000000000000000 ) ) ;
#211 = PRODUCT_DEFINITION ( 'UNKNOWN', '', #141, #113 ) ;
#212 = ORIENTED_EDGE ( 'NONE', *, *, #176, .T. ) ;
#213 = ORIENTED_EDGE ( 'NONE', *, *, #118, .F. ) ;
#214 = ORIENTED_EDGE ( 'NONE', *, *, #147, .T. ) ;
#215 = ORIENTED_EDGE ( 'NONE', *, *, #147, .F. ) ;
#216 = CARTESIAN_POINT ( 'NONE',  ( 0.000000000000000000, 0.000000000000000000, 15.00000000000000000 ) ) ;
#217 = DIRECTION ( 'NONE',  ( -1.000000000000000000, 0.000000000000000000, 0.000000000000000000 ) ) ;
#218 = VECTOR ( 'NONE', #163, 1000.000000000000000 ) ;
#219 = CARTESIAN_POINT ( 'NONE',  ( 399.9999999999996021, 1.500000000000056843, 0.000000000000000000 ) ) ;
#220 = CARTESIAN_POINT ( 'NONE',  ( 399.9999999999996021, -1.499999999999945821, 15.00000000000000000 ) ) ;
#221 = CARTESIAN_POINT ( 'NONE',  ( 399.9999999999996021, -1.499999999999945821, 0.000000000000000000 ) ) ;
#222 =( GEOMETRIC_REPRESENTATION_CONTEXT ( 3 ) GLOBAL_UNCERTAINTY_ASSIGNED_CONTEXT ( ( #39 ) ) GLOBAL_UNIT_ASSIGNED_CONTEXT ( ( #185, #55, #263 ) ) REPRESENTATION_CONTEXT ( 'NONE', 'WORKASPACE' ) );
#223 = SURFACE_STYLE_USAGE ( .BOTH. , #125 ) ;
#224 = VERTEX_POINT ( 'NONE', #104 ) ;
#225 = PRESENTATION_STYLE_ASSIGNMENT (( #223 ) ) ;
#226 = AXIS2_PLACEMENT_3D ( 'NONE', #62, #171, #25 ) ;
#227 = DIRECTION ( 'NONE',  ( 1.000000000000000000, 0.000000000000000000, 0.000000000000000000 ) ) ;
#228 = VERTEX_POINT ( 'NONE', #243 ) ;
#229 = EDGE_CURVE ( 'NONE', #196, #1, #245, .T. ) ;
#230 = ORIENTED_EDGE ( 'NONE', *, *, #83, .T. ) ;
#231 =( NAMED_UNIT ( * ) PLANE_ANGLE_UNIT ( ) SI_UNIT ( $, .RADIAN. ) );
#232 = EDGE_LOOP ( 'NONE', ( #230, #91, #212, #38 ) ) ;
#233 = MANIFOLD_SOLID_BREP ( 'Verrundung1', #189 ) ;
#234 = ORIENTED_EDGE ( 'NONE', *, *, #83, .F. ) ;
#235 = ORIENTED_EDGE ( 'NONE', *, *, #229, .T. ) ;
#236 = DIRECTION ( 'NONE',  ( 1.000000000000000000, 1.387778780781445676E-16, -0.000000000000000000 ) ) ;
#237 = CARTESIAN_POINT ( 'NONE',  ( -400.0000000000004547, -1.500000000000056843, 0.000000000000000000 ) ) ;
#238 = EDGE_CURVE ( 'NONE', #3, #224, #269, .T. ) ;
#239 = PLANE ( 'NONE',  #56 ) ;
#240 = COLOUR_RGB ( '',0.5294117647058823595, 0.5490196078431373028, 0.5490196078431373028 ) ;
#241 = FACE_OUTER_BOUND ( 'NONE', #17, .T. ) ;
#242 = CARTESIAN_POINT ( 'NONE',  ( 0.000000000000000000, 0.000000000000000000, 0.000000000000000000 ) ) ;
#243 = CARTESIAN_POINT ( 'NONE',  ( -400.0000000000004547, 1.499999999999945821, 0.000000000000000000 ) ) ;
#244 = ORIENTED_EDGE ( 'NONE', *, *, #94, .F. ) ;
#245 = LINE ( 'NONE', #126, #10 ) ;
#246 = DIRECTION ( 'NONE',  ( 0.000000000000000000, 1.000000000000000000, 0.000000000000000000 ) ) ;
#247 = LINE ( 'NONE', #35, #63 ) ;
#248 = AXIS2_PLACEMENT_3D ( 'NONE', #242, #32, #144 ) ;
#249 = PLANE ( 'NONE',  #89 ) ;
#250 = EDGE_LOOP ( 'NONE', ( #206, #65, #254, #235 ) ) ;
#251 = EDGE_LOOP ( 'NONE', ( #170, #136, #234, #272, #214, #151 ) ) ;
#252 = AXIS2_PLACEMENT_3D ( 'NONE', #216, #180, #257 ) ;
#253 = VERTEX_POINT ( 'NONE', #11 ) ;
#254 = ORIENTED_EDGE ( 'NONE', *, *, #24, .T. ) ;
#255 = EDGE_LOOP ( 'NONE', ( #14, #194, #197, #41, #175, #192 ) ) ;
#256 = CARTESIAN_POINT ( 'NONE',  ( 397.9999999999996021, 1.500000000000056843, 15.00000000000000000 ) ) ;
#257 = DIRECTION ( 'NONE',  ( 1.000000000000000000, 0.000000000000000000, -0.000000000000000000 ) ) ;
#258 = DIRECTION ( 'NONE',  ( 1.387778780781445676E-16, -1.000000000000000000, -0.000000000000000000 ) ) ;
#259 = LINE ( 'NONE', #261, #260 ) ;
#260 = VECTOR ( 'NONE', #74, 1000.000000000000000 ) ;
#261 = CARTESIAN_POINT ( 'NONE',  ( -400.0000000000004547, 1.499999999999945821, 15.00000000000000000 ) ) ;
#262 = DIRECTION ( 'NONE',  ( -1.000000000000000000, -1.387778780781445676E-16, 0.000000000000000000 ) ) ;
#263 =( NAMED_UNIT ( * ) SI_UNIT ( $, .STERADIAN. ) SOLID_ANGLE_UNIT ( ) );
#264 = ADVANCED_FACE ( 'NONE', ( #165 ), #249, .F. ) ;
#265 = VECTOR ( 'NONE', #98, 1000.000000000000000 ) ;
#266 = ADVANCED_BREP_SHAPE_REPRESENTATION ( 'E.Flex_01_Versteifung_T³r_lang_V1.1', ( #233, #190 ), #222 ) ;
#267 = FILL_AREA_STYLE_COLOUR ( '', #108 ) ;
#268 = LINE ( 'NONE', #207, #137 ) ;
#269 = CIRCLE ( 'NONE', #73, 2.000000000000001776 ) ;
#270 = VERTEX_POINT ( 'NONE', #58 ) ;
#271 = PLANE ( 'NONE',  #114 ) ;
#272 = ORIENTED_EDGE ( 'NONE', *, *, #238, .T. ) ;
ENDSEC;
END-ISO-10303-21;
