ISO-10303-21;
HEADER;
FILE_DESCRIPTION (( 'STEP AP214' ),
    '1' );
FILE_NAME ('E.Flex_01_AbdeckblechEck1_V1.1.STEP',
    '2025-08-29T10:02:02',
    ( '' ),
    ( '' ),
    'SwSTEP 2.0',
    'SolidWorks 2021',
    '' );
FILE_SCHEMA (( 'AUTOMOTIVE_DESIGN' ));
ENDSEC;

DATA;
#1 = ORIENTED_EDGE ( 'NONE', *, *, #139, .T. ) ;
#2 = STYLED_ITEM ( 'NONE', ( #77 ), #123 ) ;
#3 = ADVANCED_FACE ( 'NONE', ( #402 ), #372, .T. ) ;
#4 = DIRECTION ( 'NONE',  ( 1.000000000000000000, 0.000000000000000000, 0.000000000000000000 ) ) ;
#5 = ORIENTED_EDGE ( 'NONE', *, *, #14, .T. ) ;
#6 = AXIS2_PLACEMENT_3D ( 'NONE', #536, #462, #334 ) ;
#7 = DIRECTION ( 'NONE',  ( 0.000000000000000000, 0.000000000000000000, 1.000000000000000000 ) ) ;
#8 = DIRECTION ( 'NONE',  ( -0.000000000000000000, 0.000000000000000000, -1.000000000000000000 ) ) ;
#9 = AXIS2_PLACEMENT_3D ( 'NONE', #287, #283, #497 ) ;
#10 = ORIENTED_EDGE ( 'NONE', *, *, #290, .F. ) ;
#11 = AXIS2_PLACEMENT_3D ( 'NONE', #199, #494, #414 ) ;
#12 = DIRECTION ( 'NONE',  ( -0.000000000000000000, 1.000000000000000000, 0.000000000000000000 ) ) ;
#13 = ORIENTED_EDGE ( 'NONE', *, *, #41, .T. ) ;
#14 = EDGE_CURVE ( 'NONE', #327, #18, #487, .T. ) ;
#15 = CARTESIAN_POINT ( 'NONE',  ( -2.449293598294706414E-16, 2.000000000000000000, -764.0000000000000000 ) ) ;
#16 = DIRECTION ( 'NONE',  ( 1.000000000000000000, 0.000000000000000000, 0.000000000000000000 ) ) ;
#17 = CARTESIAN_POINT ( 'NONE',  ( -150.0000000000000000, 119.9999999999999858, -765.0000000000000000 ) ) ;
#18 = VERTEX_POINT ( 'NONE', #449 ) ;
#19 = ADVANCED_FACE ( 'NONE', ( #492 ), #281, .T. ) ;
#20 = PLANE ( 'NONE',  #328 ) ;
#21 =( NAMED_UNIT ( * ) PLANE_ANGLE_UNIT ( ) SI_UNIT ( $, .RADIAN. ) );
#22 = DIRECTION ( 'NONE',  ( 0.000000000000000000, 0.000000000000000000, -1.000000000000000000 ) ) ;
#23 = ORIENTED_EDGE ( 'NONE', *, *, #197, .T. ) ;
#24 = APPLICATION_PROTOCOL_DEFINITION ( 'draft international standard', 'automotive_design', 1998, #198 ) ;
#25 = PLANE ( 'NONE',  #397 ) ;
#26 = EDGE_CURVE ( 'NONE', #433, #519, #382, .T. ) ;
#27 = DIRECTION ( 'NONE',  ( 1.000000000000000000, 0.000000000000000000, 0.000000000000000000 ) ) ;
#28 = AXIS2_PLACEMENT_3D ( 'NONE', #191, #371, #76 ) ;
#29 = FACE_OUTER_BOUND ( 'NONE', #379, .T. ) ;
#30 = VERTEX_POINT ( 'NONE', #284 ) ;
#31 = CARTESIAN_POINT ( 'NONE',  ( -72.00000000000000000, 79.99999999999998579, -765.0000000000000000 ) ) ;
#32 = EDGE_CURVE ( 'NONE', #36, #30, #315, .T. ) ;
#33 = VECTOR ( 'NONE', #301, 1000.000000000000000 ) ;
#34 =( NAMED_UNIT ( * ) SI_UNIT ( $, .STERADIAN. ) SOLID_ANGLE_UNIT ( ) );
#35 = FACE_OUTER_BOUND ( 'NONE', #190, .T. ) ;
#36 = VERTEX_POINT ( 'NONE', #289 ) ;
#37 = DIRECTION ( 'NONE',  ( 1.000000000000000000, 0.000000000000000000, 0.000000000000000000 ) ) ;
#38 = CARTESIAN_POINT ( 'NONE',  ( -152.0000000000000000, 118.9999999999999858, 0.000000000000000000 ) ) ;
#39 = CARTESIAN_POINT ( 'NONE',  ( -150.0000000000000000, 119.9999999999999858, -764.0000000000000000 ) ) ;
#40 = VERTEX_POINT ( 'NONE', #200 ) ;
#41 = EDGE_CURVE ( 'NONE', #40, #221, #339, .T. ) ;
#42 = CARTESIAN_POINT ( 'NONE',  ( -152.0000000000000000, 79.99999999999998579, 0.000000000000000000 ) ) ;
#43 = DIRECTION ( 'NONE',  ( -0.000000000000000000, -0.000000000000000000, -1.000000000000000000 ) ) ;
#44 = ORIENTED_EDGE ( 'NONE', *, *, #41, .F. ) ;
#45 = VECTOR ( 'NONE', #213, 1000.000000000000000 ) ;
#46 = DIRECTION ( 'NONE',  ( 0.000000000000000000, 0.000000000000000000, 1.000000000000000000 ) ) ;
#47 = DIRECTION ( 'NONE',  ( 1.000000000000000000, 0.000000000000000000, 0.000000000000000000 ) ) ;
#48 = EDGE_LOOP ( 'NONE', ( #331, #57, #392, #5 ) ) ;
#49 = FACE_OUTER_BOUND ( 'NONE', #71, .T. ) ;
#50 = VERTEX_POINT ( 'NONE', #413 ) ;
#51 = EDGE_CURVE ( 'NONE', #18, #50, #156, .T. ) ;
#52 = FACE_OUTER_BOUND ( 'NONE', #362, .T. ) ;
#53 = FACE_OUTER_BOUND ( 'NONE', #235, .T. ) ;
#54 = ORIENTED_EDGE ( 'NONE', *, *, #197, .F. ) ;
#55 = LINE ( 'NONE', #407, #451 ) ;
#56 = DIRECTION ( 'NONE',  ( -1.224646799147353207E-16, 1.000000000000000000, 0.000000000000000000 ) ) ;
#57 = ORIENTED_EDGE ( 'NONE', *, *, #502, .T. ) ;
#58 = DIRECTION ( 'NONE',  ( -1.000000000000000000, 0.000000000000000000, 0.000000000000000000 ) ) ;
#59 = ORIENTED_EDGE ( 'NONE', *, *, #84, .T. ) ;
#60 = ADVANCED_FACE ( 'NONE', ( #241 ), #25, .T. ) ;
#61 = DIRECTION ( 'NONE',  ( 0.000000000000000000, 0.000000000000000000, -1.000000000000000000 ) ) ;
#62 = ORIENTED_EDGE ( 'NONE', *, *, #144, .F. ) ;
#63 = PLANE ( 'NONE',  #530 ) ;
#64 = DIRECTION ( 'NONE',  ( 1.224646799147353207E-16, -1.000000000000000000, 0.000000000000000000 ) ) ;
#65 = ORIENTED_EDGE ( 'NONE', *, *, #290, .T. ) ;
#66 = PRODUCT_DEFINITION_SHAPE ( 'NONE', 'NONE',  #264 ) ;
#67 = ORIENTED_EDGE ( 'NONE', *, *, #375, .T. ) ;
#68 = CARTESIAN_POINT ( 'NONE',  ( -72.00000000000000000, 79.99999999999998579, 0.000000000000000000 ) ) ;
#69 = CARTESIAN_POINT ( 'NONE',  ( 0.000000000000000000, 1.224646799147353207E-16, -1.000000000000000888 ) ) ;
#70 = AXIS2_PLACEMENT_3D ( 'NONE', #441, #56, #520 ) ;
#71 = EDGE_LOOP ( 'NONE', ( #429, #383, #450, #110 ) ) ;
#72 = DIRECTION ( 'NONE',  ( 0.000000000000000000, 1.000000000000000000, 0.000000000000000000 ) ) ;
#73 = PRODUCT ( 'E.Flex_01_AbdeckblechEck1_V1.1', 'E.Flex_01_AbdeckblechEck1_V1.1', '', ( #491 ) ) ;
#74 = EDGE_LOOP ( 'NONE', ( #114, #126, #437, #23 ) ) ;
#75 = ADVANCED_FACE ( 'NONE', ( #529 ), #203, .F. ) ;
#76 = DIRECTION ( 'NONE',  ( -1.000000000000000000, -1.224646799147353207E-16, 0.000000000000000000 ) ) ;
#77 = PRESENTATION_STYLE_ASSIGNMENT (( #122 ) ) ;
#78 =( NAMED_UNIT ( * ) PLANE_ANGLE_UNIT ( ) SI_UNIT ( $, .RADIAN. ) );
#79 = UNCERTAINTY_MEASURE_WITH_UNIT (LENGTH_MEASURE( 1.000000000000000082E-05 ), #538, 'distance_accuracy_value', 'NONE');
#80 = DIRECTION ( 'NONE',  ( -0.000000000000000000, 0.000000000000000000, -1.000000000000000000 ) ) ;
#81 = AXIS2_PLACEMENT_3D ( 'NONE', #89, #340, #300 ) ;
#82 = SURFACE_STYLE_USAGE ( .BOTH. , #280 ) ;
#83 =( GEOMETRIC_REPRESENTATION_CONTEXT ( 3 ) GLOBAL_UNCERTAINTY_ASSIGNED_CONTEXT ( ( #79 ) ) GLOBAL_UNIT_ASSIGNED_CONTEXT ( ( #538, #78, #34 ) ) REPRESENTATION_CONTEXT ( 'NONE', 'WORKASPACE' ) );
#84 = EDGE_CURVE ( 'NONE', #178, #479, #419, .T. ) ;
#85 = DIRECTION ( 'NONE',  ( -1.000000000000000000, 0.000000000000000000, 0.000000000000000000 ) ) ;
#86 = CARTESIAN_POINT ( 'NONE',  ( -1.000000000000000222, 2.000000000000000000, 0.000000000000000000 ) ) ;
#87 = DIRECTION ( 'NONE',  ( -1.000000000000000000, -1.224646799147353207E-16, 0.000000000000000000 ) ) ;
#88 = ORIENTED_EDGE ( 'NONE', *, *, #531, .F. ) ;
#89 = CARTESIAN_POINT ( 'NONE',  ( -72.00000000000000000, 79.99999999999998579, -765.0000000000000000 ) ) ;
#90 = CYLINDRICAL_SURFACE ( 'NONE', #285, 1.000000000000000888 ) ;
#91 = EDGE_LOOP ( 'NONE', ( #476, #120, #257, #206 ) ) ;
#92 = AXIS2_PLACEMENT_3D ( 'NONE', #258, #435, #58 ) ;
#93 = CARTESIAN_POINT ( 'NONE',  ( -0.9999999999999913403, 2.000000000000000000, -765.0000000000000000 ) ) ;
#94 = DIRECTION ( 'NONE',  ( -1.000000000000000000, -1.224646799147353207E-16, 0.000000000000000000 ) ) ;
#95 = ORIENTED_EDGE ( 'NONE', *, *, #474, .F. ) ;
#96 = EDGE_CURVE ( 'NONE', #30, #443, #460, .T. ) ;
#97 = CARTESIAN_POINT ( 'NONE',  ( -152.0000000000000000, 79.99999999999998579, -765.0000000000000000 ) ) ;
#98 = EDGE_LOOP ( 'NONE', ( #288, #59, #95, #167 ) ) ;
#99 = DIRECTION ( 'NONE',  ( 0.000000000000000000, 0.000000000000000000, 1.000000000000000000 ) ) ;
#100 = PLANE ( 'NONE',  #160 ) ;
#101 = VECTOR ( 'NONE', #117, 1000.000000000000000 ) ;
#102 = ORIENTED_EDGE ( 'NONE', *, *, #434, .T. ) ;
#103 = CARTESIAN_POINT ( 'NONE',  ( -152.0000000000000000, 118.9999999999999858, -765.0000000000000000 ) ) ;
#104 = EDGE_CURVE ( 'NONE', #273, #175, #521, .T. ) ;
#105 = EDGE_LOOP ( 'NONE', ( #246, #325, #411, #298 ) ) ;
#106 = LINE ( 'NONE', #145, #228 ) ;
#107 = DIRECTION ( 'NONE',  ( -1.387778780781448042E-14, 1.000000000000000000, 0.000000000000000000 ) ) ;
#108 = VECTOR ( 'NONE', #107, 1000.000000000000000 ) ;
#109 = DIRECTION ( 'NONE',  ( -1.000000000000000000, -1.224646799147353207E-16, 0.000000000000000000 ) ) ;
#110 = ORIENTED_EDGE ( 'NONE', *, *, #363, .T. ) ;
#111 = MECHANICAL_DESIGN_GEOMETRIC_PRESENTATION_REPRESENTATION (  '', ( #2 ), #320 ) ;
#112 = CARTESIAN_POINT ( 'NONE',  ( -152.0000000000000000, 119.9999999999999858, -764.0000000000000000 ) ) ;
#113 = VECTOR ( 'NONE', #229, 1000.000000000000000 ) ;
#114 = ORIENTED_EDGE ( 'NONE', *, *, #32, .T. ) ;
#115 = EDGE_CURVE ( 'NONE', #519, #138, #416, .T. ) ;
#116 = CARTESIAN_POINT ( 'NONE',  ( -72.00000000000000000, 79.99999999999998579, -765.0000000000000000 ) ) ;
#117 = DIRECTION ( 'NONE',  ( 0.000000000000000000, 0.000000000000000000, 1.000000000000000000 ) ) ;
#118 = CIRCLE ( 'NONE', #204, 80.00000000000000000 ) ;
#119 = ADVANCED_FACE ( 'NONE', ( #29 ), #533, .T. ) ;
#120 = ORIENTED_EDGE ( 'NONE', *, *, #242, .T. ) ;
#121 = DIRECTION ( 'NONE',  ( 0.000000000000000000, 0.000000000000000000, 1.000000000000000000 ) ) ;
#122 = SURFACE_STYLE_USAGE ( .BOTH. , #496 ) ;
#123 = MANIFOLD_SOLID_BREP ( 'Verrundung2', #454 ) ;
#124 = FILL_AREA_STYLE_COLOUR ( '', #415 ) ;
#125 = VECTOR ( 'NONE', #332, 1000.000000000000000 ) ;
#126 = ORIENTED_EDGE ( 'NONE', *, *, #495, .F. ) ;
#127 = CARTESIAN_POINT ( 'NONE',  ( -72.00000000000001421, 1.999999999999988010, 0.000000000000000000 ) ) ;
#128 = ORIENTED_EDGE ( 'NONE', *, *, #537, .F. ) ;
#129 = VECTOR ( 'NONE', #94, 1000.000000000000000 ) ;
#130 = SURFACE_STYLE_FILL_AREA ( #202 ) ;
#131 = LINE ( 'NONE', #38, #249 ) ;
#132 = CARTESIAN_POINT ( 'NONE',  ( 0.000000000000000000, 0.000000000000000000, -764.0000000000000000 ) ) ;
#133 = EDGE_LOOP ( 'NONE', ( #88, #244, #1, #302 ) ) ;
#134 = LINE ( 'NONE', #304, #389 ) ;
#135 = CYLINDRICAL_SURFACE ( 'NONE', #522, 1.000000000000000000 ) ;
#136 = VERTEX_POINT ( 'NONE', #166 ) ;
#137 = CARTESIAN_POINT ( 'NONE',  ( -2.449293598294706414E-16, 2.000000000000000000, 0.000000000000000000 ) ) ;
#138 = VERTEX_POINT ( 'NONE', #170 ) ;
#139 = EDGE_CURVE ( 'NONE', #18, #433, #155, .T. ) ;
#140 = CIRCLE ( 'NONE', #188, 1.000000000000000000 ) ;
#141 = DIRECTION ( 'NONE',  ( -1.000000000000000000, 0.000000000000000000, 0.000000000000000000 ) ) ;
#142 =( NAMED_UNIT ( * ) SI_UNIT ( $, .STERADIAN. ) SOLID_ANGLE_UNIT ( ) );
#143 = ORIENTED_EDGE ( 'NONE', *, *, #474, .T. ) ;
#144 = EDGE_CURVE ( 'NONE', #238, #338, #214, .T. ) ;
#145 = CARTESIAN_POINT ( 'NONE',  ( -150.0000000000000000, -1.861463134703976776E-14, -765.0000000000000000 ) ) ;
#146 =( GEOMETRIC_REPRESENTATION_CONTEXT ( 3 ) GLOBAL_UNCERTAINTY_ASSIGNED_CONTEXT ( ( #291 ) ) GLOBAL_UNIT_ASSIGNED_CONTEXT ( ( #528, #21, #209 ) ) REPRESENTATION_CONTEXT ( 'NONE', 'WORKASPACE' ) );
#147 = VECTOR ( 'NONE', #535, 1000.000000000000000 ) ;
#148 = LINE ( 'NONE', #176, #485 ) ;
#149 = ORIENTED_EDGE ( 'NONE', *, *, #357, .T. ) ;
#150 = FACE_OUTER_BOUND ( 'NONE', #171, .T. ) ;
#151 = ORIENTED_EDGE ( 'NONE', *, *, #311, .T. ) ;
#152 = APPLICATION_PROTOCOL_DEFINITION ( 'draft international standard', 'automotive_design', 1998, #468 ) ;
#153 = CARTESIAN_POINT ( 'NONE',  ( -72.00000000000000000, 79.99999999999998579, -765.0000000000000000 ) ) ;
#154 = ADVANCED_FACE ( 'NONE', ( #49 ), #428, .T. ) ;
#155 = CIRCLE ( 'NONE', #319, 78.00000000000000000 ) ;
#156 = LINE ( 'NONE', #329, #101 ) ;
#157 = FILL_AREA_STYLE ('',( #376 ) ) ;
#158 = ADVANCED_FACE ( 'NONE', ( #510 ), #135, .T. ) ;
#159 = CARTESIAN_POINT ( 'NONE',  ( -150.0000000000000000, -1.861463134703976776E-14, -765.0000000000000000 ) ) ;
#160 = AXIS2_PLACEMENT_3D ( 'NONE', #233, #225, #266 ) ;
#161 = ORIENTED_EDGE ( 'NONE', *, *, #218, .T. ) ;
#162 = DIRECTION ( 'NONE',  ( 0.000000000000000000, -0.000000000000000000, 1.000000000000000000 ) ) ;
#163 = ORIENTED_EDGE ( 'NONE', *, *, #208, .T. ) ;
#164 = DIRECTION ( 'NONE',  ( -0.000000000000000000, -0.000000000000000000, -1.000000000000000000 ) ) ;
#165 = PLANE ( 'NONE',  #81 ) ;
#166 = CARTESIAN_POINT ( 'NONE',  ( -152.0000000000000000, 79.99999999999998579, -765.0000000000000000 ) ) ;
#167 = ORIENTED_EDGE ( 'NONE', *, *, #412, .T. ) ;
#168 = PRODUCT_RELATED_PRODUCT_CATEGORY ( 'part', '', ( #73 ) ) ;
#169 = DIRECTION ( 'NONE',  ( -1.000000000000000000, -0.000000000000000000, 0.000000000000000000 ) ) ;
#170 = CARTESIAN_POINT ( 'NONE',  ( -150.0000000000000000, 118.9999999999999858, 0.000000000000000000 ) ) ;
#171 = EDGE_LOOP ( 'NONE', ( #143, #102, #231, #54, #184, #388 ) ) ;
#172 = AXIS2_PLACEMENT_3D ( 'NONE', #469, #345, #427 ) ;
#173 = ADVANCED_FACE ( 'NONE', ( #303 ), #309, .T. ) ;
#174 = CARTESIAN_POINT ( 'NONE',  ( -2.449293598294706414E-16, 2.000000000000000000, -1.000000000000000888 ) ) ;
#175 = VERTEX_POINT ( 'NONE', #132 ) ;
#176 = CARTESIAN_POINT ( 'NONE',  ( 0.000000000000000000, 0.000000000000000000, 0.000000000000000000 ) ) ;
#177 = DIRECTION ( 'NONE',  ( 1.000000000000000000, 0.000000000000000000, 0.000000000000000000 ) ) ;
#178 = VERTEX_POINT ( 'NONE', #174 ) ;
#179 = CIRCLE ( 'NONE', #70, 0.9999999999999997780 ) ;
#180 = DIRECTION ( 'NONE',  ( 1.224646799147353207E-16, -1.000000000000000000, 0.000000000000000000 ) ) ;
#181 = ADVANCED_FACE ( 'NONE', ( #35 ), #90, .T. ) ;
#182 = DIRECTION ( 'NONE',  ( -1.224646799147353207E-16, 1.000000000000000000, -0.000000000000000000 ) ) ;
#183 = CARTESIAN_POINT ( 'NONE',  ( -152.0000000000000000, 118.9999999999999858, -1.000000000000000888 ) ) ;
#184 = ORIENTED_EDGE ( 'NONE', *, *, #452, .F. ) ;
#185 = DIRECTION ( 'NONE',  ( 0.000000000000000000, 1.000000000000000000, 0.000000000000000000 ) ) ;
#186 = DIRECTION ( 'NONE',  ( -1.000000000000000000, 0.000000000000000000, 0.000000000000000000 ) ) ;
#187 = ORIENTED_EDGE ( 'NONE', *, *, #490, .F. ) ;
#188 = AXIS2_PLACEMENT_3D ( 'NONE', #404, #234, #189 ) ;
#189 = DIRECTION ( 'NONE',  ( -1.000000000000000000, 0.000000000000000000, 0.000000000000000000 ) ) ;
#190 = EDGE_LOOP ( 'NONE', ( #251, #128, #44, #534 ) ) ;
#191 = CARTESIAN_POINT ( 'NONE',  ( 0.000000000000000000, 0.000000000000000000, -765.0000000000000000 ) ) ;
#192 = EDGE_CURVE ( 'NONE', #406, #40, #432, .T. ) ;
#193 = ORIENTED_EDGE ( 'NONE', *, *, #403, .T. ) ;
#194 = CARTESIAN_POINT ( 'NONE',  ( -72.00000000000000000, 79.99999999999998579, 0.000000000000000000 ) ) ;
#195 = SURFACE_STYLE_FILL_AREA ( #157 ) ;
#196 = AXIS2_PLACEMENT_3D ( 'NONE', #477, #308, #61 ) ;
#197 = EDGE_CURVE ( 'NONE', #327, #36, #341, .T. ) ;
#198 = APPLICATION_CONTEXT ( 'automotive_design' ) ;
#199 = CARTESIAN_POINT ( 'NONE',  ( -0.9999999999999911182, 0.000000000000000000, -764.0000000000000000 ) ) ;
#200 = CARTESIAN_POINT ( 'NONE',  ( -150.0000000000000000, 118.9999999999999858, -765.0000000000000000 ) ) ;
#201 = ORIENTED_EDGE ( 'NONE', *, *, #509, .T. ) ;
#202 = FILL_AREA_STYLE ('',( #124 ) ) ;
#203 = CYLINDRICAL_SURFACE ( 'NONE', #482, 78.00000000000000000 ) ;
#204 = AXIS2_PLACEMENT_3D ( 'NONE', #222, #8, #177 ) ;
#205 = ADVANCED_BREP_SHAPE_REPRESENTATION ( 'E.Flex_01_AbdeckblechEck1_V1.1', ( #123, #410 ), #146 ) ;
#206 = ORIENTED_EDGE ( 'NONE', *, *, #139, .F. ) ;
#207 = LINE ( 'NONE', #112, #147 ) ;
#208 = EDGE_CURVE ( 'NONE', #348, #18, #295, .T. ) ;
#209 =( NAMED_UNIT ( * ) SI_UNIT ( $, .STERADIAN. ) SOLID_ANGLE_UNIT ( ) );
#210 = DIRECTION ( 'NONE',  ( -1.000000000000000000, 0.000000000000000000, 0.000000000000000000 ) ) ;
#211 = VERTEX_POINT ( 'NONE', #466 ) ;
#212 = VECTOR ( 'NONE', #72, 1000.000000000000000 ) ;
#213 = DIRECTION ( 'NONE',  ( 1.000000000000000000, 0.000000000000000000, 0.000000000000000000 ) ) ;
#214 = LINE ( 'NONE', #516, #458 ) ;
#215 = VECTOR ( 'NONE', #47, 1000.000000000000000 ) ;
#216 = VECTOR ( 'NONE', #384, 1000.000000000000000 ) ;
#217 = EDGE_LOOP ( 'NONE', ( #356, #342, #314, #151 ) ) ;
#218 = EDGE_CURVE ( 'NONE', #267, #211, #220, .T. ) ;
#219 = FACE_OUTER_BOUND ( 'NONE', #310, .T. ) ;
#220 = LINE ( 'NONE', #86, #355 ) ;
#221 = VERTEX_POINT ( 'NONE', #39 ) ;
#222 = CARTESIAN_POINT ( 'NONE',  ( -72.00000000000000000, 79.99999999999998579, -765.0000000000000000 ) ) ;
#223 = ORIENTED_EDGE ( 'NONE', *, *, #218, .F. ) ;
#224 = CARTESIAN_POINT ( 'NONE',  ( -0.9999999999999911182, 0.000000000000000000, -765.0000000000000000 ) ) ;
#225 = DIRECTION ( 'NONE',  ( 0.000000000000000000, -1.000000000000000000, 0.000000000000000000 ) ) ;
#226 = ORIENTED_EDGE ( 'NONE', *, *, #236, .T. ) ;
#227 = AXIS2_PLACEMENT_3D ( 'NONE', #470, #259, #507 ) ;
#228 = VECTOR ( 'NONE', #12, 1000.000000000000000 ) ;
#229 = DIRECTION ( 'NONE',  ( 0.000000000000000000, 0.000000000000000000, 1.000000000000000000 ) ) ;
#230 = CARTESIAN_POINT ( 'NONE',  ( -0.9999999999999911182, -1.224646799147342360E-16, -765.0000000000000000 ) ) ;
#231 = ORIENTED_EDGE ( 'NONE', *, *, #418, .T. ) ;
#232 = DIRECTION ( 'NONE',  ( 1.000000000000000000, 0.000000000000000000, -0.000000000000000000 ) ) ;
#233 = CARTESIAN_POINT ( 'NONE',  ( -152.0000000000000000, 119.9999999999999858, -765.0000000000000000 ) ) ;
#234 = DIRECTION ( 'NONE',  ( -1.224646799147353207E-16, 1.000000000000000000, 0.000000000000000000 ) ) ;
#235 = EDGE_LOOP ( 'NONE', ( #67, #293, #360, #277 ) ) ;
#236 = EDGE_CURVE ( 'NONE', #211, #50, #391, .T. ) ;
#237 = DIRECTION ( 'NONE',  ( 1.000000000000000000, 0.000000000000000000, 0.000000000000000000 ) ) ;
#238 = VERTEX_POINT ( 'NONE', #436 ) ;
#239 = PRESENTATION_STYLE_ASSIGNMENT (( #82 ) ) ;
#240 = ORIENTED_EDGE ( 'NONE', *, *, #344, .F. ) ;
#241 = FACE_OUTER_BOUND ( 'NONE', #511, .T. ) ;
#242 = EDGE_CURVE ( 'NONE', #327, #136, #118, .T. ) ;
#243 = DIRECTION ( 'NONE',  ( 1.224646799147353207E-16, -1.000000000000000000, 0.000000000000000000 ) ) ;
#244 = ORIENTED_EDGE ( 'NONE', *, *, #51, .F. ) ;
#245 = DIRECTION ( 'NONE',  ( -0.000000000000000000, 0.000000000000000000, -1.000000000000000000 ) ) ;
#246 = ORIENTED_EDGE ( 'NONE', *, *, #509, .F. ) ;
#247 = CARTESIAN_POINT ( 'NONE',  ( 0.000000000000000000, 0.000000000000000000, 0.000000000000000000 ) ) ;
#248 = ADVANCED_FACE ( 'NONE', ( #353 ), #20, .F. ) ;
#249 = VECTOR ( 'NONE', #169, 1000.000000000000000 ) ;
#250 = DIRECTION ( 'NONE',  ( 1.000000000000000000, 0.000000000000000000, -0.000000000000000000 ) ) ;
#251 = ORIENTED_EDGE ( 'NONE', *, *, #357, .F. ) ;
#252 = DIRECTION ( 'NONE',  ( 1.000000000000000000, 0.000000000000000000, 0.000000000000000000 ) ) ;
#253 = ADVANCED_FACE ( 'NONE', ( #445 ), #326, .F. ) ;
#254 = LINE ( 'NONE', #127, #381 ) ;
#255 = CARTESIAN_POINT ( 'NONE',  ( -72.00000000000000000, 118.9999999999999858, -764.0000000000000000 ) ) ;
#256 = PRESENTATION_LAYER_ASSIGNMENT (  '', '', ( #459 ) ) ;
#257 = ORIENTED_EDGE ( 'NONE', *, *, #311, .F. ) ;
#258 = CARTESIAN_POINT ( 'NONE',  ( -1.000000000000000222, 2.000000000000000000, -1.000000000000000888 ) ) ;
#259 = DIRECTION ( 'NONE',  ( 0.000000000000000000, -0.000000000000000000, 1.000000000000000000 ) ) ;
#260 = ORIENTED_EDGE ( 'NONE', *, *, #465, .F. ) ;
#261 = LINE ( 'NONE', #17, #514 ) ;
#262 = DIRECTION ( 'NONE',  ( 0.000000000000000000, 0.000000000000000000, -1.000000000000000000 ) ) ;
#263 = ORIENTED_EDGE ( 'NONE', *, *, #96, .T. ) ;
#264 = PRODUCT_DEFINITION ( 'UNKNOWN', '', #297, #423 ) ;
#265 = LINE ( 'NONE', #518, #113 ) ;
#266 = DIRECTION ( 'NONE',  ( 0.000000000000000000, -0.000000000000000000, -1.000000000000000000 ) ) ;
#267 = VERTEX_POINT ( 'NONE', #359 ) ;
#268 = VECTOR ( 'NONE', #180, 1000.000000000000000 ) ;
#269 = DIRECTION ( 'NONE',  ( 1.224646799147353207E-16, -1.000000000000000000, -0.000000000000000000 ) ) ;
#270 = EDGE_LOOP ( 'NONE', ( #370, #240, #187, #62 ) ) ;
#271 = CARTESIAN_POINT ( 'NONE',  ( -152.0000000000000000, 118.9999999999999858, 0.000000000000000000 ) ) ;
#272 = FACE_OUTER_BOUND ( 'NONE', #105, .T. ) ;
#273 = VERTEX_POINT ( 'NONE', #230 ) ;
#274 = EDGE_CURVE ( 'NONE', #443, #238, #333, .T. ) ;
#275 = CARTESIAN_POINT ( 'NONE',  ( 0.000000000000000000, 0.000000000000000000, -765.0000000000000000 ) ) ;
#276 = CARTESIAN_POINT ( 'NONE',  ( -2.449293598294706414E-16, 2.000000000000000000, -765.0000000000000000 ) ) ;
#277 = ORIENTED_EDGE ( 'NONE', *, *, #537, .T. ) ;
#278 = AXIS2_PLACEMENT_3D ( 'NONE', #159, #330, #245 ) ;
#279 = VECTOR ( 'NONE', #398, 1000.000000000000000 ) ;
#280 = SURFACE_SIDE_STYLE ('',( #130 ) ) ;
#281 = PLANE ( 'NONE',  #6 ) ;
#282 = ADVANCED_FACE ( 'NONE', ( #53 ), #100, .F. ) ;
#283 = DIRECTION ( 'NONE',  ( 1.000000000000000000, 0.000000000000000000, -0.000000000000000000 ) ) ;
#284 = CARTESIAN_POINT ( 'NONE',  ( -152.0000000000000000, 79.99999999999998579, 0.000000000000000000 ) ) ;
#285 = AXIS2_PLACEMENT_3D ( 'NONE', #255, #252, #425 ) ;
#286 = AXIS2_PLACEMENT_3D ( 'NONE', #317, #16, #262 ) ;
#287 = CARTESIAN_POINT ( 'NONE',  ( -150.0000000000000000, 118.9999999999999858, -764.0000000000000000 ) ) ;
#288 = ORIENTED_EDGE ( 'NONE', *, *, #465, .T. ) ;
#289 = CARTESIAN_POINT ( 'NONE',  ( -71.99999999999998579, -8.817456953860940133E-15, 0.000000000000000000 ) ) ;
#290 = EDGE_CURVE ( 'NONE', #211, #178, #179, .T. ) ;
#291 = UNCERTAINTY_MEASURE_WITH_UNIT (LENGTH_MEASURE( 1.000000000000000082E-05 ), #528, 'distance_accuracy_value', 'NONE');
#292 = FACE_OUTER_BOUND ( 'NONE', #217, .T. ) ;
#293 = ORIENTED_EDGE ( 'NONE', *, *, #144, .T. ) ;
#294 = AXIS2_PLACEMENT_3D ( 'NONE', #472, #478, #87 ) ;
#295 = LINE ( 'NONE', #504, #33 ) ;
#296 = CIRCLE ( 'NONE', #196, 1.000000000000000000 ) ;
#297 = PRODUCT_DEFINITION_FORMATION_WITH_SPECIFIED_SOURCE ( 'ANY', '', #73, .NOT_KNOWN. ) ;
#298 = ORIENTED_EDGE ( 'NONE', *, *, #502, .F. ) ;
#299 = ADVANCED_FACE ( 'NONE', ( #272 ), #484, .T. ) ;
#300 = DIRECTION ( 'NONE',  ( 1.000000000000000000, 0.000000000000000000, -0.000000000000000000 ) ) ;
#301 = DIRECTION ( 'NONE',  ( -1.000000000000000000, -1.224646799147353207E-16, 0.000000000000000000 ) ) ;
#302 = ORIENTED_EDGE ( 'NONE', *, *, #26, .T. ) ;
#303 = FACE_OUTER_BOUND ( 'NONE', #505, .T. ) ;
#304 = CARTESIAN_POINT ( 'NONE',  ( -152.0000000000000000, 119.9999999999999858, -765.0000000000000000 ) ) ;
#305 =( NAMED_UNIT ( * ) PLANE_ANGLE_UNIT ( ) SI_UNIT ( $, .RADIAN. ) );
#306 = MECHANICAL_DESIGN_GEOMETRIC_PRESENTATION_REPRESENTATION (  '', ( #459 ), #83 ) ;
#307 = ORIENTED_EDGE ( 'NONE', *, *, #236, .F. ) ;
#308 = DIRECTION ( 'NONE',  ( 1.000000000000000000, 0.000000000000000000, -0.000000000000000000 ) ) ;
#309 = PLANE ( 'NONE',  #294 ) ;
#310 = EDGE_LOOP ( 'NONE', ( #10, #223, #498, #366 ) ) ;
#311 = EDGE_CURVE ( 'NONE', #433, #136, #448, .T. ) ;
#312 = AXIS2_PLACEMENT_3D ( 'NONE', #153, #318, #322 ) ;
#313 = CARTESIAN_POINT ( 'NONE',  ( -72.00000000000000000, 79.99999999999998579, 0.000000000000000000 ) ) ;
#314 = ORIENTED_EDGE ( 'NONE', *, *, #403, .F. ) ;
#315 = CIRCLE ( 'NONE', #386, 80.00000000000000000 ) ;
#316 = CARTESIAN_POINT ( 'NONE',  ( -152.0000000000000000, -1.861463134703976776E-14, -765.0000000000000000 ) ) ;
#317 = CARTESIAN_POINT ( 'NONE',  ( -152.0000000000000000, -1.861463134703976776E-14, -765.0000000000000000 ) ) ;
#318 = DIRECTION ( 'NONE',  ( 0.000000000000000000, 0.000000000000000000, 1.000000000000000000 ) ) ;
#319 = AXIS2_PLACEMENT_3D ( 'NONE', #116, #43, #4 ) ;
#320 =( GEOMETRIC_REPRESENTATION_CONTEXT ( 3 ) GLOBAL_UNCERTAINTY_ASSIGNED_CONTEXT ( ( #501 ) ) GLOBAL_UNIT_ASSIGNED_CONTEXT ( ( #421, #305, #142 ) ) REPRESENTATION_CONTEXT ( 'NONE', 'WORKASPACE' ) );
#321 = ADVANCED_FACE ( 'NONE', ( #292 ), #165, .F. ) ;
#322 = DIRECTION ( 'NONE',  ( 1.000000000000000000, 0.000000000000000000, 0.000000000000000000 ) ) ;
#323 = CARTESIAN_POINT ( 'NONE',  ( -1.000000000000000000, 0.000000000000000000, -1.000000000000000888 ) ) ;
#324 = DIRECTION ( 'NONE',  ( -1.000000000000000000, -1.224646799147353207E-16, 0.000000000000000000 ) ) ;
#325 = ORIENTED_EDGE ( 'NONE', *, *, #412, .F. ) ;
#326 = PLANE ( 'NONE',  #286 ) ;
#327 = VERTEX_POINT ( 'NONE', #503 ) ;
#328 = AXIS2_PLACEMENT_3D ( 'NONE', #276, #324, #64 ) ;
#329 = CARTESIAN_POINT ( 'NONE',  ( -72.00000000000001421, 1.999999999999988010, -765.0000000000000000 ) ) ;
#330 = DIRECTION ( 'NONE',  ( 1.000000000000000000, 0.000000000000000000, -0.000000000000000000 ) ) ;
#331 = ORIENTED_EDGE ( 'NONE', *, *, #208, .F. ) ;
#332 = DIRECTION ( 'NONE',  ( 0.000000000000000000, 0.000000000000000000, 1.000000000000000000 ) ) ;
#333 = CIRCLE ( 'NONE', #422, 1.000000000000000000 ) ;
#334 = DIRECTION ( 'NONE',  ( -1.000000000000000000, 0.000000000000000000, 0.000000000000000000 ) ) ;
#335 = EDGE_CURVE ( 'NONE', #50, #36, #254, .T. ) ;
#336 = ORIENTED_EDGE ( 'NONE', *, *, #32, .F. ) ;
#337 = CARTESIAN_POINT ( 'NONE',  ( -152.0000000000000000, -1.861463134703976776E-14, 0.000000000000000000 ) ) ;
#338 = VERTEX_POINT ( 'NONE', #424 ) ;
#339 = CIRCLE ( 'NONE', #9, 1.000000000000000888 ) ;
#340 = DIRECTION ( 'NONE',  ( 0.000000000000000000, -0.000000000000000000, 1.000000000000000000 ) ) ;
#341 = LINE ( 'NONE', #346, #216 ) ;
#342 = ORIENTED_EDGE ( 'NONE', *, *, #192, .T. ) ;
#343 = VECTOR ( 'NONE', #243, 1000.000000000000000 ) ;
#344 = EDGE_CURVE ( 'NONE', #138, #443, #131, .T. ) ;
#345 = DIRECTION ( 'NONE',  ( -1.000000000000000000, -0.000000000000000000, -0.000000000000000000 ) ) ;
#346 = CARTESIAN_POINT ( 'NONE',  ( -71.99999999999998579, -8.817456953860940133E-15, -765.0000000000000000 ) ) ;
#347 = AXIS2_PLACEMENT_3D ( 'NONE', #194, #164, #37 ) ;
#348 = VERTEX_POINT ( 'NONE', #93 ) ;
#349 = DIRECTION ( 'NONE',  ( 1.387778780781448042E-14, -1.000000000000000000, 0.000000000000000000 ) ) ;
#350 = CARTESIAN_POINT ( 'NONE',  ( -150.0000000000000000, 79.99999999999998579, -765.0000000000000000 ) ) ;
#351 = DIRECTION ( 'NONE',  ( 0.000000000000000000, 0.000000000000000000, 1.000000000000000000 ) ) ;
#352 = CARTESIAN_POINT ( 'NONE',  ( -150.0000000000000000, 79.99999999999998579, -765.0000000000000000 ) ) ;
#353 = FACE_OUTER_BOUND ( 'NONE', #98, .T. ) ;
#354 = PRESENTATION_LAYER_ASSIGNMENT (  '', '', ( #2 ) ) ;
#355 = VECTOR ( 'NONE', #512, 1000.000000000000000 ) ;
#356 = ORIENTED_EDGE ( 'NONE', *, *, #385, .T. ) ;
#357 = EDGE_CURVE ( 'NONE', #400, #406, #399, .T. ) ;
#358 = LINE ( 'NONE', #488, #493 ) ;
#359 = CARTESIAN_POINT ( 'NONE',  ( -1.000000000000000000, -1.224646799147353207E-16, 0.000000000000000000 ) ) ;
#360 = ORIENTED_EDGE ( 'NONE', *, *, #393, .F. ) ;
#361 = DIRECTION ( 'NONE',  ( 0.000000000000000000, 0.000000000000000000, 1.000000000000000000 ) ) ;
#362 = EDGE_LOOP ( 'NONE', ( #489, #161, #226, #446 ) ) ;
#363 = EDGE_CURVE ( 'NONE', #30, #519, #431, .T. ) ;
#364 = PLANE ( 'NONE',  #409 ) ;
#365 = CARTESIAN_POINT ( 'NONE',  ( -1.000000000000000888, 80.00000000000000000, -764.0000000000000000 ) ) ;
#366 = ORIENTED_EDGE ( 'NONE', *, *, #84, .F. ) ;
#367 = VECTOR ( 'NONE', #185, 1000.000000000000000 ) ;
#368 = CARTESIAN_POINT ( 'NONE',  ( -150.0000000000000000, 79.99999999999998579, 0.000000000000000000 ) ) ;
#369 = DIRECTION ( 'NONE',  ( -1.000000000000000000, -0.000000000000000000, -0.000000000000000000 ) ) ;
#370 = ORIENTED_EDGE ( 'NONE', *, *, #274, .F. ) ;
#371 = DIRECTION ( 'NONE',  ( -1.224646799147353207E-16, 1.000000000000000000, 0.000000000000000000 ) ) ;
#372 = CYLINDRICAL_SURFACE ( 'NONE', #312, 80.00000000000000000 ) ;
#373 = SHAPE_DEFINITION_REPRESENTATION ( #66, #205 ) ;
#374 = CARTESIAN_POINT ( 'NONE',  ( -150.0000000000000000, 79.99999999999998579, -765.0000000000000000 ) ) ;
#375 = EDGE_CURVE ( 'NONE', #400, #238, #134, .T. ) ;
#376 = FILL_AREA_STYLE_COLOUR ( '', #463 ) ;
#377 = ADVANCED_FACE ( 'NONE', ( #219 ), #475, .T. ) ;
#378 = DIRECTION ( 'NONE',  ( 0.000000000000000000, 0.000000000000000000, 1.000000000000000000 ) ) ;
#379 = EDGE_LOOP ( 'NONE', ( #467, #525, #396, #481, #193, #13 ) ) ;
#380 = VECTOR ( 'NONE', #532, 1000.000000000000000 ) ;
#381 = VECTOR ( 'NONE', #349, 1000.000000000000000 ) ;
#382 = LINE ( 'NONE', #374, #125 ) ;
#383 = ORIENTED_EDGE ( 'NONE', *, *, #344, .T. ) ;
#384 = DIRECTION ( 'NONE',  ( 0.000000000000000000, 0.000000000000000000, 1.000000000000000000 ) ) ;
#385 = EDGE_CURVE ( 'NONE', #136, #406, #486, .T. ) ;
#386 = AXIS2_PLACEMENT_3D ( 'NONE', #68, #80, #27 ) ;
#387 = CARTESIAN_POINT ( 'NONE',  ( -72.00000000000000000, 118.9999999999999858, -765.0000000000000000 ) ) ;
#388 = ORIENTED_EDGE ( 'NONE', *, *, #104, .T. ) ;
#389 = VECTOR ( 'NONE', #46, 1000.000000000000000 ) ;
#390 = ORIENTED_EDGE ( 'NONE', *, *, #51, .T. ) ;
#391 = LINE ( 'NONE', #137, #129 ) ;
#392 = ORIENTED_EDGE ( 'NONE', *, *, #452, .T. ) ;
#393 = EDGE_CURVE ( 'NONE', #221, #338, #261, .T. ) ;
#394 = DIRECTION ( 'NONE',  ( -1.000000000000000000, -1.224646799147353207E-16, 0.000000000000000000 ) ) ;
#395 = CARTESIAN_POINT ( 'NONE',  ( -152.0000000000000000, 118.9999999999999858, -1.000000000000000888 ) ) ;
#396 = ORIENTED_EDGE ( 'NONE', *, *, #115, .F. ) ;
#397 = AXIS2_PLACEMENT_3D ( 'NONE', #455, #162, #500 ) ;
#398 = DIRECTION ( 'NONE',  ( -1.000000000000000000, -1.224646799147353207E-16, 0.000000000000000000 ) ) ;
#399 = CIRCLE ( 'NONE', #172, 1.000000000000000888 ) ;
#400 = VERTEX_POINT ( 'NONE', #483 ) ;
#401 = LINE ( 'NONE', #97, #506 ) ;
#402 = FACE_OUTER_BOUND ( 'NONE', #74, .T. ) ;
#403 = EDGE_CURVE ( 'NONE', #433, #40, #106, .T. ) ;
#404 = CARTESIAN_POINT ( 'NONE',  ( -0.9999999999999913403, 2.000000000000001776, -764.0000000000000000 ) ) ;
#405 = DIRECTION ( 'NONE',  ( -1.224646799147353207E-16, 1.000000000000000000, 0.000000000000000000 ) ) ;
#406 = VERTEX_POINT ( 'NONE', #103 ) ;
#407 = CARTESIAN_POINT ( 'NONE',  ( 0.000000000000000000, 0.000000000000000000, -765.0000000000000000 ) ) ;
#408 = EDGE_LOOP ( 'NONE', ( #263, #473, #517, #149, #417, #513 ) ) ;
#409 = AXIS2_PLACEMENT_3D ( 'NONE', #313, #444, #232 ) ;
#410 = AXIS2_PLACEMENT_3D ( 'NONE', #247, #121, #237 ) ;
#411 = ORIENTED_EDGE ( 'NONE', *, *, #104, .F. ) ;
#412 = EDGE_CURVE ( 'NONE', #175, #508, #358, .T. ) ;
#413 = CARTESIAN_POINT ( 'NONE',  ( -72.00000000000001421, 1.999999999999988010, 0.000000000000000000 ) ) ;
#414 = DIRECTION ( 'NONE',  ( -1.000000000000000000, -1.224646799147352961E-16, 0.000000000000000000 ) ) ;
#415 = COLOUR_RGB ( '',0.5294117647058823595, 0.5490196078431373028, 0.5490196078431373028 ) ;
#416 = LINE ( 'NONE', #456, #380 ) ;
#417 = ORIENTED_EDGE ( 'NONE', *, *, #385, .F. ) ;
#418 = EDGE_CURVE ( 'NONE', #267, #36, #148, .T. ) ;
#419 = LINE ( 'NONE', #69, #343 ) ;
#420 = PLANE ( 'NONE',  #28 ) ;
#421 =( LENGTH_UNIT ( ) NAMED_UNIT ( * ) SI_UNIT ( .MILLI., .METRE. ) );
#422 = AXIS2_PLACEMENT_3D ( 'NONE', #183, #369, #22 ) ;
#423 = PRODUCT_DEFINITION_CONTEXT ( 'detailed design', #198, 'design' ) ;
#424 = CARTESIAN_POINT ( 'NONE',  ( -150.0000000000000000, 119.9999999999999858, -1.000000000000000888 ) ) ;
#425 = DIRECTION ( 'NONE',  ( 0.000000000000000000, 0.000000000000000000, -1.000000000000000000 ) ) ;
#426 = ORIENTED_EDGE ( 'NONE', *, *, #335, .F. ) ;
#427 = DIRECTION ( 'NONE',  ( 0.000000000000000000, 0.000000000000000000, -1.000000000000000000 ) ) ;
#428 = PLANE ( 'NONE',  #227 ) ;
#429 = ORIENTED_EDGE ( 'NONE', *, *, #115, .T. ) ;
#430 = CIRCLE ( 'NONE', #442, 1.000000000000000000 ) ;
#431 = LINE ( 'NONE', #42, #45 ) ;
#432 = LINE ( 'NONE', #387, #215 ) ;
#433 = VERTEX_POINT ( 'NONE', #526 ) ;
#434 = EDGE_CURVE ( 'NONE', #479, #267, #430, .T. ) ;
#435 = DIRECTION ( 'NONE',  ( -1.224646799147353207E-16, 1.000000000000000000, 0.000000000000000000 ) ) ;
#436 = CARTESIAN_POINT ( 'NONE',  ( -152.0000000000000000, 119.9999999999999858, -1.000000000000000888 ) ) ;
#437 = ORIENTED_EDGE ( 'NONE', *, *, #242, .F. ) ;
#438 = LINE ( 'NONE', #224, #268 ) ;
#439 = ORIENTED_EDGE ( 'NONE', *, *, #531, .T. ) ;
#440 = FACE_OUTER_BOUND ( 'NONE', #48, .T. ) ;
#441 = CARTESIAN_POINT ( 'NONE',  ( -1.000000000000000222, 2.000000000000000000, -1.000000000000000888 ) ) ;
#442 = AXIS2_PLACEMENT_3D ( 'NONE', #323, #269, #109 ) ;
#443 = VERTEX_POINT ( 'NONE', #271 ) ;
#444 = DIRECTION ( 'NONE',  ( 0.000000000000000000, -0.000000000000000000, 1.000000000000000000 ) ) ;
#445 = FACE_OUTER_BOUND ( 'NONE', #408, .T. ) ;
#446 = ORIENTED_EDGE ( 'NONE', *, *, #335, .T. ) ;
#447 = CARTESIAN_POINT ( 'NONE',  ( 0.000000000000000000, 0.000000000000000000, -1.000000000000000888 ) ) ;
#448 = LINE ( 'NONE', #350, #464 ) ;
#449 = CARTESIAN_POINT ( 'NONE',  ( -72.00000000000001421, 1.999999999999988010, -765.0000000000000000 ) ) ;
#450 = ORIENTED_EDGE ( 'NONE', *, *, #96, .F. ) ;
#451 = VECTOR ( 'NONE', #99, 1000.000000000000000 ) ;
#452 = EDGE_CURVE ( 'NONE', #273, #327, #523, .T. ) ;
#453 = CARTESIAN_POINT ( 'NONE',  ( -71.99999999999998579, -8.817456953860940133E-15, -765.0000000000000000 ) ) ;
#454 = CLOSED_SHELL ( 'NONE', ( #19, #480, #60, #154, #119, #75, #173, #248, #527, #3, #253, #282, #321, #457, #158, #377, #181, #299 ) ) ;
#455 = CARTESIAN_POINT ( 'NONE',  ( -152.0000000000000000, 79.99999999999998579, 0.000000000000000000 ) ) ;
#456 = CARTESIAN_POINT ( 'NONE',  ( -150.0000000000000000, -1.861463134703976776E-14, 0.000000000000000000 ) ) ;
#457 = ADVANCED_FACE ( 'NONE', ( #52 ), #364, .T. ) ;
#458 = VECTOR ( 'NONE', #250, 1000.000000000000000 ) ;
#459 = STYLED_ITEM ( 'NONE', ( #239 ), #205 ) ;
#460 = LINE ( 'NONE', #337, #212 ) ;
#461 = DIRECTION ( 'NONE',  ( 1.000000000000000000, 0.000000000000000000, 0.000000000000000000 ) ) ;
#462 = DIRECTION ( 'NONE',  ( 0.000000000000000000, 0.000000000000000000, -1.000000000000000000 ) ) ;
#463 = COLOUR_RGB ( '',0.5294117647058823595, 0.5490196078431373028, 0.5490196078431373028 ) ;
#464 = VECTOR ( 'NONE', #85, 1000.000000000000000 ) ;
#465 = EDGE_CURVE ( 'NONE', #508, #178, #265, .T. ) ;
#466 = CARTESIAN_POINT ( 'NONE',  ( -1.000000000000000222, 2.000000000000000000, 0.000000000000000000 ) ) ;
#467 = ORIENTED_EDGE ( 'NONE', *, *, #393, .T. ) ;
#468 = APPLICATION_CONTEXT ( 'automotive_design' ) ;
#469 = CARTESIAN_POINT ( 'NONE',  ( -152.0000000000000000, 118.9999999999999858, -764.0000000000000000 ) ) ;
#470 = CARTESIAN_POINT ( 'NONE',  ( -72.00000000000001421, 1.999999999999988010, 0.000000000000000000 ) ) ;
#471 = ORIENTED_EDGE ( 'NONE', *, *, #363, .F. ) ;
#472 = CARTESIAN_POINT ( 'NONE',  ( -2.449293598294706414E-16, 2.000000000000000000, -765.0000000000000000 ) ) ;
#473 = ORIENTED_EDGE ( 'NONE', *, *, #274, .T. ) ;
#474 = EDGE_CURVE ( 'NONE', #175, #479, #55, .T. ) ;
#475 = CYLINDRICAL_SURFACE ( 'NONE', #92, 0.9999999999999997780 ) ;
#476 = ORIENTED_EDGE ( 'NONE', *, *, #14, .F. ) ;
#477 = CARTESIAN_POINT ( 'NONE',  ( -150.0000000000000000, 118.9999999999999858, -1.000000000000000888 ) ) ;
#478 = DIRECTION ( 'NONE',  ( -1.224646799147353207E-16, 1.000000000000000000, 0.000000000000000000 ) ) ;
#479 = VERTEX_POINT ( 'NONE', #447 ) ;
#480 = ADVANCED_FACE ( 'NONE', ( #440 ), #63, .T. ) ;
#481 = ORIENTED_EDGE ( 'NONE', *, *, #26, .F. ) ;
#482 = AXIS2_PLACEMENT_3D ( 'NONE', #31, #378, #461 ) ;
#483 = CARTESIAN_POINT ( 'NONE',  ( -152.0000000000000000, 119.9999999999999858, -764.0000000000000000 ) ) ;
#484 = CYLINDRICAL_SURFACE ( 'NONE', #524, 1.000000000000000000 ) ;
#485 = VECTOR ( 'NONE', #394, 1000.000000000000000 ) ;
#486 = LINE ( 'NONE', #316, #367 ) ;
#487 = LINE ( 'NONE', #453, #108 ) ;
#488 = CARTESIAN_POINT ( 'NONE',  ( -2.168404344971008868E-16, 2.000000000000001776, -764.0000000000000000 ) ) ;
#489 = ORIENTED_EDGE ( 'NONE', *, *, #418, .F. ) ;
#490 = EDGE_CURVE ( 'NONE', #338, #138, #296, .T. ) ;
#491 = PRODUCT_CONTEXT ( 'NONE', #468, 'mechanical' ) ;
#492 = FACE_OUTER_BOUND ( 'NONE', #91, .T. ) ;
#493 = VECTOR ( 'NONE', #182, 1000.000000000000000 ) ;
#494 = DIRECTION ( 'NONE',  ( 1.224646799147353207E-16, -1.000000000000000000, -0.000000000000000000 ) ) ;
#495 = EDGE_CURVE ( 'NONE', #136, #30, #401, .T. ) ;
#496 = SURFACE_SIDE_STYLE ('',( #195 ) ) ;
#497 = DIRECTION ( 'NONE',  ( 0.000000000000000000, 0.000000000000000000, -1.000000000000000000 ) ) ;
#498 = ORIENTED_EDGE ( 'NONE', *, *, #434, .F. ) ;
#499 = CIRCLE ( 'NONE', #347, 78.00000000000000000 ) ;
#500 = DIRECTION ( 'NONE',  ( 1.000000000000000000, 0.000000000000000000, -0.000000000000000000 ) ) ;
#501 = UNCERTAINTY_MEASURE_WITH_UNIT (LENGTH_MEASURE( 1.000000000000000082E-05 ), #421, 'distance_accuracy_value', 'NONE');
#502 = EDGE_CURVE ( 'NONE', #348, #273, #438, .T. ) ;
#503 = CARTESIAN_POINT ( 'NONE',  ( -71.99999999999998579, -8.817456953860940133E-15, -765.0000000000000000 ) ) ;
#504 = CARTESIAN_POINT ( 'NONE',  ( -2.449293598294706414E-16, 2.000000000000000000, -765.0000000000000000 ) ) ;
#505 = EDGE_LOOP ( 'NONE', ( #307, #65, #260, #201, #163, #390 ) ) ;
#506 = VECTOR ( 'NONE', #361, 1000.000000000000000 ) ;
#507 = DIRECTION ( 'NONE',  ( 1.000000000000000000, 0.000000000000000000, -0.000000000000000000 ) ) ;
#508 = VERTEX_POINT ( 'NONE', #15 ) ;
#509 = EDGE_CURVE ( 'NONE', #508, #348, #140, .T. ) ;
#510 = FACE_OUTER_BOUND ( 'NONE', #270, .T. ) ;
#511 = EDGE_LOOP ( 'NONE', ( #471, #336, #426, #439 ) ) ;
#512 = DIRECTION ( 'NONE',  ( -1.224646799147353207E-16, 1.000000000000000000, 0.000000000000000000 ) ) ;
#513 = ORIENTED_EDGE ( 'NONE', *, *, #495, .T. ) ;
#514 = VECTOR ( 'NONE', #7, 1000.000000000000000 ) ;
#515 = DIRECTION ( 'NONE',  ( 0.000000000000000000, 0.000000000000000000, -1.000000000000000000 ) ) ;
#516 = CARTESIAN_POINT ( 'NONE',  ( -150.0000000000000000, 119.9999999999999858, -1.000000000000000888 ) ) ;
#517 = ORIENTED_EDGE ( 'NONE', *, *, #375, .F. ) ;
#518 = CARTESIAN_POINT ( 'NONE',  ( -2.449293598294706414E-16, 2.000000000000000000, -765.0000000000000000 ) ) ;
#519 = VERTEX_POINT ( 'NONE', #368 ) ;
#520 = DIRECTION ( 'NONE',  ( -1.000000000000000000, 0.000000000000000000, 0.000000000000000000 ) ) ;
#521 = CIRCLE ( 'NONE', #11, 1.000000000000000222 ) ;
#522 = AXIS2_PLACEMENT_3D ( 'NONE', #395, #210, #351 ) ;
#523 = LINE ( 'NONE', #275, #279 ) ;
#524 = AXIS2_PLACEMENT_3D ( 'NONE', #365, #405, #186 ) ;
#525 = ORIENTED_EDGE ( 'NONE', *, *, #490, .T. ) ;
#526 = CARTESIAN_POINT ( 'NONE',  ( -150.0000000000000000, 79.99999999999998579, -765.0000000000000000 ) ) ;
#527 = ADVANCED_FACE ( 'NONE', ( #150 ), #420, .F. ) ;
#528 =( LENGTH_UNIT ( ) NAMED_UNIT ( * ) SI_UNIT ( .MILLI., .METRE. ) );
#529 = FACE_OUTER_BOUND ( 'NONE', #133, .T. ) ;
#530 = AXIS2_PLACEMENT_3D ( 'NONE', #352, #515, #141 ) ;
#531 = EDGE_CURVE ( 'NONE', #50, #519, #499, .T. ) ;
#532 = DIRECTION ( 'NONE',  ( -0.000000000000000000, 1.000000000000000000, 0.000000000000000000 ) ) ;
#533 = PLANE ( 'NONE',  #278 ) ;
#534 = ORIENTED_EDGE ( 'NONE', *, *, #192, .F. ) ;
#535 = DIRECTION ( 'NONE',  ( -1.000000000000000000, -0.000000000000000000, -0.000000000000000000 ) ) ;
#536 = CARTESIAN_POINT ( 'NONE',  ( -71.99999999999998579, -8.817456953860940133E-15, -765.0000000000000000 ) ) ;
#537 = EDGE_CURVE ( 'NONE', #221, #400, #207, .T. ) ;
#538 =( LENGTH_UNIT ( ) NAMED_UNIT ( * ) SI_UNIT ( .MILLI., .METRE. ) );
ENDSEC;
END-ISO-10303-21;
