ISO-10303-21;
HEADER;
FILE_DESCRIPTION (( 'STEP AP214' ),
    '1' );
FILE_NAME ('202500614-10207P01.STEP',
    '2026-02-11T07:50:20',
    ( '' ),
    ( '' ),
    'SwSTEP 2.0',
    'SolidWorks 2021',
    '' );
FILE_SCHEMA (( 'AUTOMOTIVE_DESIGN' ));
ENDSEC;

DATA;
#1 = LINE ( 'NONE', #284, #170 ) ;
#2 = VERTEX_POINT ( 'NONE', #176 ) ;
#3 = LINE ( 'NONE', #192, #204 ) ;
#4 = ORIENTED_EDGE ( 'NONE', *, *, #178, .F. ) ;
#5 = APPLICATION_PROTOCOL_DEFINITION ( 'draft international standard', 'automotive_design', 1998, #273 ) ;
#6 = EDGE_LOOP ( 'NONE', ( #193, #167, #283, #195 ) ) ;
#7 = FACE_OUTER_BOUND ( 'NONE', #6, .T. ) ;
#8 = DIRECTION ( 'NONE',  ( -1.000000000000000000, -0.000000000000000000, -0.000000000000000000 ) ) ;
#9 = VECTOR ( 'NONE', #64, 1000.000000000000000 ) ;
#10 = CIRCLE ( 'NONE', #238, 2.499999999999998668 ) ;
#11 = CARTESIAN_POINT ( 'NONE',  ( 0.000000000000000000, -28.00000000000000000, -1.738998454789241313E-14 ) ) ;
#12 = CARTESIAN_POINT ( 'NONE',  ( 0.000000000000000000, 28.00000000000000711, -6.999999999999987566 ) ) ;
#13 = CIRCLE ( 'NONE', #185, 6.999999999999998224 ) ;
#14 = VECTOR ( 'NONE', #95, 1000.000000000000000 ) ;
#15 = CARTESIAN_POINT ( 'NONE',  ( 0.000000000000000000, 0.000000000000000000, 0.000000000000000000 ) ) ;
#16 = EDGE_CURVE ( 'NONE', #25, #82, #30, .T. ) ;
#17 =( NAMED_UNIT ( * ) PLANE_ANGLE_UNIT ( ) SI_UNIT ( $, .RADIAN. ) );
#18 = EDGE_LOOP ( 'NONE', ( #159, #20, #307, #78 ) ) ;
#19 = DIRECTION ( 'NONE',  ( 0.000000000000000000, -3.097720492815726673E-16, 1.000000000000000000 ) ) ;
#20 = ORIENTED_EDGE ( 'NONE', *, *, #211, .F. ) ;
#21 = MECHANICAL_DESIGN_GEOMETRIC_PRESENTATION_REPRESENTATION (  '', ( #291 ), #244 ) ;
#22 = DIRECTION ( 'NONE',  ( 0.000000000000000000, 1.000000000000000000, 3.097720492815728152E-16 ) ) ;
#23 = CARTESIAN_POINT ( 'NONE',  ( 0.000000000000000000, 28.00000000000000000, -2.449293598294700991E-16 ) ) ;
#24 = DIRECTION ( 'NONE',  ( 1.000000000000000000, 0.000000000000000000, 0.000000000000000000 ) ) ;
#25 = VERTEX_POINT ( 'NONE', #293 ) ;
#26 = CARTESIAN_POINT ( 'NONE',  ( 9.000000000000000000, 0.000000000000000000, 0.000000000000000000 ) ) ;
#27 = ORIENTED_EDGE ( 'NONE', *, *, #119, .T. ) ;
#28 = VERTEX_POINT ( 'NONE', #87 ) ;
#29 = ORIENTED_EDGE ( 'NONE', *, *, #255, .T. ) ;
#30 = CIRCLE ( 'NONE', #91, 6.999999999999998224 ) ;
#31 = UNCERTAINTY_MEASURE_WITH_UNIT (LENGTH_MEASURE( 1.000000000000000082E-05 ), #225, 'distance_accuracy_value', 'NONE');
#32 =( NAMED_UNIT ( * ) SI_UNIT ( $, .STERADIAN. ) SOLID_ANGLE_UNIT ( ) );
#33 = SHAPE_DEFINITION_REPRESENTATION ( #231, #113 ) ;
#34 = DIRECTION ( 'NONE',  ( 1.000000000000000000, 0.000000000000000000, 0.000000000000000000 ) ) ;
#35 = FACE_OUTER_BOUND ( 'NONE', #18, .T. ) ;
#36 = STYLED_ITEM ( 'NONE', ( #277 ), #179 ) ;
#37 =( GEOMETRIC_REPRESENTATION_CONTEXT ( 3 ) GLOBAL_UNCERTAINTY_ASSIGNED_CONTEXT ( ( #89 ) ) GLOBAL_UNIT_ASSIGNED_CONTEXT ( ( #257, #190, #48 ) ) REPRESENTATION_CONTEXT ( 'NONE', 'WORKASPACE' ) );
#38 = CARTESIAN_POINT ( 'NONE',  ( 0.000000000000000000, 3.061616997868381169E-16, -2.499999999999998224 ) ) ;
#39 = FACE_OUTER_BOUND ( 'NONE', #201, .T. ) ;
#40 = ADVANCED_FACE ( 'NONE', ( #35 ), #294, .T. ) ;
#41 = DIRECTION ( 'NONE',  ( 0.000000000000000000, 0.000000000000000000, 1.000000000000000000 ) ) ;
#42 = ORIENTED_EDGE ( 'NONE', *, *, #267, .F. ) ;
#43 = DIRECTION ( 'NONE',  ( 0.000000000000000000, 0.000000000000000000, 1.000000000000000000 ) ) ;
#44 = EDGE_LOOP ( 'NONE', ( #114, #52 ) ) ;
#45 = FACE_OUTER_BOUND ( 'NONE', #280, .T. ) ;
#46 = FACE_OUTER_BOUND ( 'NONE', #80, .T. ) ;
#47 = AXIS2_PLACEMENT_3D ( 'NONE', #121, #212, #77 ) ;
#48 =( NAMED_UNIT ( * ) SI_UNIT ( $, .STERADIAN. ) SOLID_ANGLE_UNIT ( ) );
#49 = DIRECTION ( 'NONE',  ( 0.000000000000000000, 0.000000000000000000, -1.000000000000000000 ) ) ;
#50 = ORIENTED_EDGE ( 'NONE', *, *, #66, .F. ) ;
#51 = FACE_OUTER_BOUND ( 'NONE', #236, .T. ) ;
#52 = ORIENTED_EDGE ( 'NONE', *, *, #217, .F. ) ;
#53 = AXIS2_PLACEMENT_3D ( 'NONE', #139, #203, #228 ) ;
#54 = FACE_OUTER_BOUND ( 'NONE', #171, .T. ) ;
#55 = ORIENTED_EDGE ( 'NONE', *, *, #275, .T. ) ;
#56 = DIRECTION ( 'NONE',  ( 0.000000000000000000, 0.000000000000000000, 1.000000000000000000 ) ) ;
#57 = CARTESIAN_POINT ( 'NONE',  ( 9.000000000000000000, 0.000000000000000000, 0.000000000000000000 ) ) ;
#58 = PRODUCT_CONTEXT ( 'NONE', #104, 'mechanical' ) ;
#59 = SURFACE_SIDE_STYLE ('',( #246 ) ) ;
#60 = DIRECTION ( 'NONE',  ( 1.000000000000000000, 0.000000000000000000, 0.000000000000000000 ) ) ;
#61 = FILL_AREA_STYLE_COLOUR ( '', #146 ) ;
#62 = EDGE_CURVE ( 'NONE', #94, #122, #258, .T. ) ;
#63 = DIRECTION ( 'NONE',  ( -1.000000000000000000, -0.000000000000000000, -0.000000000000000000 ) ) ;
#64 = DIRECTION ( 'NONE',  ( -1.000000000000000000, -0.000000000000000000, -0.000000000000000000 ) ) ;
#65 = SURFACE_SIDE_STYLE ('',( #141 ) ) ;
#66 = EDGE_CURVE ( 'NONE', #94, #137, #131, .T. ) ;
#67 = PRODUCT_DEFINITION_CONTEXT ( 'detailed design', #273, 'design' ) ;
#68 = ORIENTED_EDGE ( 'NONE', *, *, #62, .T. ) ;
#69 = MECHANICAL_DESIGN_GEOMETRIC_PRESENTATION_REPRESENTATION (  '', ( #208 ), #218 ) ;
#70 = STYLED_ITEM ( 'NONE', ( #120 ), #113 ) ;
#71 =( NAMED_UNIT ( * ) PLANE_ANGLE_UNIT ( ) SI_UNIT ( $, .RADIAN. ) );
#72 = EDGE_LOOP ( 'NONE', ( #265, #287, #261, #124 ) ) ;
#73 = PRESENTATION_STYLE_ASSIGNMENT (( #207 ) ) ;
#74 = CARTESIAN_POINT ( 'NONE',  ( 0.000000000000000000, 0.000000000000000000, 2.499999999999998224 ) ) ;
#75 = AXIS2_PLACEMENT_3D ( 'NONE', #57, #177, #243 ) ;
#76 = PLANE ( 'NONE',  #297 ) ;
#77 = DIRECTION ( 'NONE',  ( 0.000000000000000000, 0.000000000000000000, 1.000000000000000000 ) ) ;
#78 = ORIENTED_EDGE ( 'NONE', *, *, #178, .T. ) ;
#79 = DIRECTION ( 'NONE',  ( -1.000000000000000000, -0.000000000000000000, -0.000000000000000000 ) ) ;
#80 = EDGE_LOOP ( 'NONE', ( #188, #240, #116, #42 ) ) ;
#81 = CLOSED_SHELL ( 'NONE', ( #129, #292, #296, #40, #164, #213, #249, #197 ) ) ;
#82 = VERTEX_POINT ( 'NONE', #270 ) ;
#83 =( GEOMETRIC_REPRESENTATION_CONTEXT ( 3 ) GLOBAL_UNCERTAINTY_ASSIGNED_CONTEXT ( ( #274 ) ) GLOBAL_UNIT_ASSIGNED_CONTEXT ( ( #125, #128, #107 ) ) REPRESENTATION_CONTEXT ( 'NONE', 'WORKASPACE' ) );
#84 = PRESENTATION_STYLE_ASSIGNMENT (( #153 ) ) ;
#85 = CYLINDRICAL_SURFACE ( 'NONE', #117, 2.499999999999998224 ) ;
#86 = AXIS2_PLACEMENT_3D ( 'NONE', #248, #272, #149 ) ;
#87 = CARTESIAN_POINT ( 'NONE',  ( 9.000000000000000000, -28.00000000000000000, 6.999999999999981348 ) ) ;
#88 = DIRECTION ( 'NONE',  ( -0.000000000000000000, 1.000000000000000000, 3.097720492815726673E-16 ) ) ;
#89 = UNCERTAINTY_MEASURE_WITH_UNIT (LENGTH_MEASURE( 1.000000000000000082E-05 ), #257, 'distance_accuracy_value', 'NONE');
#90 = DIRECTION ( 'NONE',  ( -1.000000000000000000, -0.000000000000000000, -0.000000000000000000 ) ) ;
#91 = AXIS2_PLACEMENT_3D ( 'NONE', #103, #224, #105 ) ;
#92 = PLANE ( 'NONE',  #196 ) ;
#93 = DIRECTION ( 'NONE',  ( -1.000000000000000000, -0.000000000000000000, -0.000000000000000000 ) ) ;
#94 = VERTEX_POINT ( 'NONE', #152 ) ;
#95 = DIRECTION ( 'NONE',  ( -1.000000000000000000, -0.000000000000000000, -0.000000000000000000 ) ) ;
#96 = COLOUR_RGB ( '',0.6470588235294117974, 0.6196078431372549211, 0.5882352941176470784 ) ;
#97 = DIRECTION ( 'NONE',  ( 0.000000000000000000, 0.000000000000000000, -1.000000000000000000 ) ) ;
#98 = EDGE_CURVE ( 'NONE', #263, #161, #252, .T. ) ;
#99 = DIRECTION ( 'NONE',  ( -1.000000000000000000, -0.000000000000000000, -0.000000000000000000 ) ) ;
#100 = EDGE_LOOP ( 'NONE', ( #289, #209 ) ) ;
#101 = ORIENTED_EDGE ( 'NONE', *, *, #143, .F. ) ;
#102 = CARTESIAN_POINT ( 'NONE',  ( 0.000000000000000000, 0.000000000000000000, 0.000000000000000000 ) ) ;
#103 = CARTESIAN_POINT ( 'NONE',  ( 9.000000000000000000, 28.00000000000000000, -2.449293598294700991E-16 ) ) ;
#104 = APPLICATION_CONTEXT ( 'automotive_design' ) ;
#105 = DIRECTION ( 'NONE',  ( 0.000000000000000000, 0.000000000000000000, -1.000000000000000000 ) ) ;
#106 = AXIS2_PLACEMENT_3D ( 'NONE', #26, #308, #49 ) ;
#107 =( NAMED_UNIT ( * ) SI_UNIT ( $, .STERADIAN. ) SOLID_ANGLE_UNIT ( ) );
#108 = FILL_AREA_STYLE ('',( #61 ) ) ;
#109 = EDGE_CURVE ( 'NONE', #227, #2, #13, .T. ) ;
#110 = CIRCLE ( 'NONE', #53, 6.999999999999998224 ) ;
#111 = AXIS2_PLACEMENT_3D ( 'NONE', #147, #194, #22 ) ;
#112 = PRODUCT ( '202500614-10207P01', '202500614-10207P01', '', ( #58 ) ) ;
#113 = ADVANCED_BREP_SHAPE_REPRESENTATION ( '202500614-10207P01', ( #179, #279 ), #37 ) ;
#114 = ORIENTED_EDGE ( 'NONE', *, *, #155, .F. ) ;
#115 = CARTESIAN_POINT ( 'NONE',  ( 4.898587196589405680E-17, 0.000000000000000000, 0.000000000000000000 ) ) ;
#116 = ORIENTED_EDGE ( 'NONE', *, *, #109, .F. ) ;
#117 = AXIS2_PLACEMENT_3D ( 'NONE', #102, #126, #127 ) ;
#118 = FILL_AREA_STYLE_COLOUR ( '', #174 ) ;
#119 = EDGE_CURVE ( 'NONE', #2, #263, #295, .T. ) ;
#120 = PRESENTATION_STYLE_ASSIGNMENT (( #259 ) ) ;
#121 = CARTESIAN_POINT ( 'NONE',  ( 9.000000000000000000, 28.00000000000000000, -2.449293598294700991E-16 ) ) ;
#122 = VERTEX_POINT ( 'NONE', #268 ) ;
#123 = DIRECTION ( 'NONE',  ( 0.000000000000000000, 0.000000000000000000, 1.000000000000000000 ) ) ;
#124 = ORIENTED_EDGE ( 'NONE', *, *, #143, .T. ) ;
#125 =( LENGTH_UNIT ( ) NAMED_UNIT ( * ) SI_UNIT ( .MILLI., .METRE. ) );
#126 = DIRECTION ( 'NONE',  ( -1.000000000000000000, -0.000000000000000000, -0.000000000000000000 ) ) ;
#127 = DIRECTION ( 'NONE',  ( 0.000000000000000000, 0.000000000000000000, 1.000000000000000000 ) ) ;
#128 =( NAMED_UNIT ( * ) PLANE_ANGLE_UNIT ( ) SI_UNIT ( $, .RADIAN. ) );
#129 = ADVANCED_FACE ( 'NONE', ( #7 ), #85, .F. ) ;
#130 = LINE ( 'NONE', #221, #191 ) ;
#131 = LINE ( 'NONE', #38, #199 ) ;
#132 = FACE_BOUND ( 'NONE', #100, .T. ) ;
#133 = DIRECTION ( 'NONE',  ( 0.000000000000000000, -1.000000000000000000, -3.097720492815726673E-16 ) ) ;
#134 =( GEOMETRIC_REPRESENTATION_CONTEXT ( 3 ) GLOBAL_UNCERTAINTY_ASSIGNED_CONTEXT ( ( #290 ) ) GLOBAL_UNIT_ASSIGNED_CONTEXT ( ( #251, #17, #206 ) ) REPRESENTATION_CONTEXT ( 'NONE', 'WORKASPACE' ) );
#135 = CARTESIAN_POINT ( 'NONE',  ( 9.000000000000000000, 28.00000000000000711, -6.999999999999987566 ) ) ;
#136 = UNCERTAINTY_MEASURE_WITH_UNIT (LENGTH_MEASURE( 1.000000000000000082E-05 ), #219, 'distance_accuracy_value', 'NONE');
#137 = VERTEX_POINT ( 'NONE', #220 ) ;
#138 = EDGE_CURVE ( 'NONE', #25, #263, #202, .T. ) ;
#139 = CARTESIAN_POINT ( 'NONE',  ( 9.000000000000000000, -28.00000000000000000, -1.738998454789241313E-14 ) ) ;
#140 = VERTEX_POINT ( 'NONE', #151 ) ;
#141 = SURFACE_STYLE_FILL_AREA ( #282 ) ;
#142 = FACE_BOUND ( 'NONE', #44, .T. ) ;
#143 = EDGE_CURVE ( 'NONE', #140, #25, #130, .T. ) ;
#144 = CARTESIAN_POINT ( 'NONE',  ( 0.000000000000000000, 27.99999999999999289, 7.000000000000008882 ) ) ;
#145 = ORIENTED_EDGE ( 'NONE', *, *, #211, .T. ) ;
#146 = COLOUR_RGB ( '',0.6470588235294117974, 0.6196078431372549211, 0.5882352941176470784 ) ;
#147 = CARTESIAN_POINT ( 'NONE',  ( 9.000000000000000000, 27.99999999999999289, 7.000000000000008882 ) ) ;
#148 = ORIENTED_EDGE ( 'NONE', *, *, #309, .F. ) ;
#149 = DIRECTION ( 'NONE',  ( 0.000000000000000000, 0.000000000000000000, 1.000000000000000000 ) ) ;
#150 = PRODUCT_DEFINITION ( 'UNKNOWN', '', #247, #67 ) ;
#151 = CARTESIAN_POINT ( 'NONE',  ( 9.000000000000000000, -28.00000000000000000, -7.000000000000005329 ) ) ;
#152 = CARTESIAN_POINT ( 'NONE',  ( 9.000000000000000000, 3.061616997868381169E-16, -2.499999999999998224 ) ) ;
#153 = SURFACE_STYLE_USAGE ( .BOTH. , #59 ) ;
#154 = VECTOR ( 'NONE', #8, 1000.000000000000000 ) ;
#155 = EDGE_CURVE ( 'NONE', #229, #137, #158, .T. ) ;
#156 = LINE ( 'NONE', #250, #223 ) ;
#157 = SURFACE_STYLE_FILL_AREA ( #305 ) ;
#158 = CIRCLE ( 'NONE', #237, 2.499999999999998668 ) ;
#159 = ORIENTED_EDGE ( 'NONE', *, *, #109, .T. ) ;
#160 = PLANE ( 'NONE',  #278 ) ;
#161 = VERTEX_POINT ( 'NONE', #162 ) ;
#162 = CARTESIAN_POINT ( 'NONE',  ( 0.000000000000000000, 27.99999999999999289, 7.000000000000008882 ) ) ;
#163 = DIRECTION ( 'NONE',  ( 0.000000000000000000, -1.000000000000000000, -3.097720492815727659E-16 ) ) ;
#164 = ADVANCED_FACE ( 'NONE', ( #39 ), #160, .F. ) ;
#165 = SURFACE_SIDE_STYLE ('',( #285 ) ) ;
#166 = LINE ( 'NONE', #74, #14 ) ;
#167 = ORIENTED_EDGE ( 'NONE', *, *, #66, .T. ) ;
#168 = CARTESIAN_POINT ( 'NONE',  ( 0.000000000000000000, 28.00000000000000711, -6.999999999999987566 ) ) ;
#169 = ORIENTED_EDGE ( 'NONE', *, *, #275, .F. ) ;
#170 = VECTOR ( 'NONE', #163, 1000.000000000000000 ) ;
#171 = EDGE_LOOP ( 'NONE', ( #173, #169, #186, #214 ) ) ;
#172 = CARTESIAN_POINT ( 'NONE',  ( 0.000000000000000000, 28.00000000000000000, -2.449293598294700991E-16 ) ) ;
#173 = ORIENTED_EDGE ( 'NONE', *, *, #98, .T. ) ;
#174 = COLOUR_RGB ( '',0.6470588235294117974, 0.6196078431372549211, 0.5882352941176470784 ) ;
#175 = CARTESIAN_POINT ( 'NONE',  ( 9.000000000000000000, 28.00000000000000711, -6.999999999999987566 ) ) ;
#176 = CARTESIAN_POINT ( 'NONE',  ( 0.000000000000000000, -28.00000000000000000, -7.000000000000005329 ) ) ;
#177 = DIRECTION ( 'NONE',  ( 1.000000000000000000, 0.000000000000000000, 0.000000000000000000 ) ) ;
#178 = EDGE_CURVE ( 'NONE', #28, #227, #230, .T. ) ;
#179 = MANIFOLD_SOLID_BREP ( 'M6 Gewindebohrung1', #81 ) ;
#180 = PRESENTATION_LAYER_ASSIGNMENT (  '', '', ( #208 ) ) ;
#181 = MECHANICAL_DESIGN_GEOMETRIC_PRESENTATION_REPRESENTATION (  '', ( #70 ), #83 ) ;
#182 = CARTESIAN_POINT ( 'NONE',  ( 9.000000000000000000, 28.00000000000000000, -2.449293598294700991E-16 ) ) ;
#183 = CYLINDRICAL_SURFACE ( 'NONE', #306, 2.499999999999998224 ) ;
#184 = FILL_AREA_STYLE_COLOUR ( '', #226 ) ;
#185 = AXIS2_PLACEMENT_3D ( 'NONE', #11, #299, #198 ) ;
#186 = ORIENTED_EDGE ( 'NONE', *, *, #16, .F. ) ;
#187 = CARTESIAN_POINT ( 'NONE',  ( 9.000000000000000000, -28.00000000000000000, 6.999999999999981348 ) ) ;
#188 = ORIENTED_EDGE ( 'NONE', *, *, #98, .F. ) ;
#189 = PLANE ( 'NONE',  #111 ) ;
#190 =( NAMED_UNIT ( * ) PLANE_ANGLE_UNIT ( ) SI_UNIT ( $, .RADIAN. ) );
#191 = VECTOR ( 'NONE', #88, 1000.000000000000000 ) ;
#192 = CARTESIAN_POINT ( 'NONE',  ( 9.000000000000000000, 27.99999999999999289, 7.000000000000008882 ) ) ;
#193 = ORIENTED_EDGE ( 'NONE', *, *, #242, .T. ) ;
#194 = DIRECTION ( 'NONE',  ( 0.000000000000000000, 3.097720492815728152E-16, -1.000000000000000000 ) ) ;
#195 = ORIENTED_EDGE ( 'NONE', *, *, #255, .F. ) ;
#196 = AXIS2_PLACEMENT_3D ( 'NONE', #182, #234, #260 ) ;
#197 = ADVANCED_FACE ( 'NONE', ( #45 ), #183, .F. ) ;
#198 = DIRECTION ( 'NONE',  ( 0.000000000000000000, 0.000000000000000000, -1.000000000000000000 ) ) ;
#199 = VECTOR ( 'NONE', #63, 1000.000000000000000 ) ;
#200 = CIRCLE ( 'NONE', #106, 2.499999999999998224 ) ;
#201 = EDGE_LOOP ( 'NONE', ( #27, #253, #101, #145 ) ) ;
#202 = LINE ( 'NONE', #175, #154 ) ;
#203 = DIRECTION ( 'NONE',  ( 1.000000000000000000, 0.000000000000000000, 0.000000000000000000 ) ) ;
#204 = VECTOR ( 'NONE', #99, 1000.000000000000000 ) ;
#205 = EDGE_CURVE ( 'NONE', #28, #140, #110, .T. ) ;
#206 =( NAMED_UNIT ( * ) SI_UNIT ( $, .STERADIAN. ) SOLID_ANGLE_UNIT ( ) );
#207 = SURFACE_STYLE_USAGE ( .BOTH. , #304 ) ;
#208 = STYLED_ITEM ( 'NONE', ( #84 ), #129 ) ;
#209 = ORIENTED_EDGE ( 'NONE', *, *, #62, .F. ) ;
#210 = FILL_AREA_STYLE ('',( #118 ) ) ;
#211 = EDGE_CURVE ( 'NONE', #140, #2, #156, .T. ) ;
#212 = DIRECTION ( 'NONE',  ( -1.000000000000000000, -0.000000000000000000, -0.000000000000000000 ) ) ;
#213 = ADVANCED_FACE ( 'NONE', ( #132, #303 ), #92, .T. ) ;
#214 = ORIENTED_EDGE ( 'NONE', *, *, #138, .T. ) ;
#215 = DIRECTION ( 'NONE',  ( 0.000000000000000000, -1.000000000000000000, -3.097720492815727659E-16 ) ) ;
#216 = ORIENTED_EDGE ( 'NONE', *, *, #155, .T. ) ;
#217 = EDGE_CURVE ( 'NONE', #137, #229, #10, .T. ) ;
#218 =( GEOMETRIC_REPRESENTATION_CONTEXT ( 3 ) GLOBAL_UNCERTAINTY_ASSIGNED_CONTEXT ( ( #136 ) ) GLOBAL_UNIT_ASSIGNED_CONTEXT ( ( #219, #298, #32 ) ) REPRESENTATION_CONTEXT ( 'NONE', 'WORKASPACE' ) );
#219 =( LENGTH_UNIT ( ) NAMED_UNIT ( * ) SI_UNIT ( .MILLI., .METRE. ) );
#220 = CARTESIAN_POINT ( 'NONE',  ( 4.898587196589405680E-17, 3.061616997868381662E-16, -2.499999999999998668 ) ) ;
#221 = CARTESIAN_POINT ( 'NONE',  ( 9.000000000000000000, 28.00000000000000711, -6.999999999999987566 ) ) ;
#222 = AXIS2_PLACEMENT_3D ( 'NONE', #172, #34, #245 ) ;
#223 = VECTOR ( 'NONE', #300, 1000.000000000000000 ) ;
#224 = DIRECTION ( 'NONE',  ( 1.000000000000000000, 0.000000000000000000, 0.000000000000000000 ) ) ;
#225 =( LENGTH_UNIT ( ) NAMED_UNIT ( * ) SI_UNIT ( .MILLI., .METRE. ) );
#226 = COLOUR_RGB ( '',0.6470588235294117974, 0.6196078431372549211, 0.5882352941176470784 ) ;
#227 = VERTEX_POINT ( 'NONE', #239 ) ;
#228 = DIRECTION ( 'NONE',  ( 0.000000000000000000, 0.000000000000000000, -1.000000000000000000 ) ) ;
#229 = VERTEX_POINT ( 'NONE', #262 ) ;
#230 = LINE ( 'NONE', #187, #9 ) ;
#231 = PRODUCT_DEFINITION_SHAPE ( 'NONE', 'NONE',  #150 ) ;
#232 = PRESENTATION_LAYER_ASSIGNMENT (  '', '', ( #291 ) ) ;
#233 = LINE ( 'NONE', #144, #264 ) ;
#234 = DIRECTION ( 'NONE',  ( 1.000000000000000000, 0.000000000000000000, 0.000000000000000000 ) ) ;
#235 = CARTESIAN_POINT ( 'NONE',  ( 4.898587196589405680E-17, 0.000000000000000000, 0.000000000000000000 ) ) ;
#236 = EDGE_LOOP ( 'NONE', ( #241, #4, #148, #55 ) ) ;
#237 = AXIS2_PLACEMENT_3D ( 'NONE', #115, #90, #41 ) ;
#238 = AXIS2_PLACEMENT_3D ( 'NONE', #235, #79, #123 ) ;
#239 = CARTESIAN_POINT ( 'NONE',  ( 0.000000000000000000, -28.00000000000000000, 6.999999999999981348 ) ) ;
#240 = ORIENTED_EDGE ( 'NONE', *, *, #119, .F. ) ;
#241 = ORIENTED_EDGE ( 'NONE', *, *, #267, .T. ) ;
#242 = EDGE_CURVE ( 'NONE', #122, #94, #200, .T. ) ;
#243 = DIRECTION ( 'NONE',  ( 0.000000000000000000, 0.000000000000000000, -1.000000000000000000 ) ) ;
#244 =( GEOMETRIC_REPRESENTATION_CONTEXT ( 3 ) GLOBAL_UNCERTAINTY_ASSIGNED_CONTEXT ( ( #31 ) ) GLOBAL_UNIT_ASSIGNED_CONTEXT ( ( #225, #71, #256 ) ) REPRESENTATION_CONTEXT ( 'NONE', 'WORKASPACE' ) );
#245 = DIRECTION ( 'NONE',  ( 0.000000000000000000, 0.000000000000000000, -1.000000000000000000 ) ) ;
#246 = SURFACE_STYLE_FILL_AREA ( #108 ) ;
#247 = PRODUCT_DEFINITION_FORMATION_WITH_SPECIFIED_SOURCE ( 'ANY', '', #112, .NOT_KNOWN. ) ;
#248 = CARTESIAN_POINT ( 'NONE',  ( 9.000000000000000000, -28.00000000000000000, -1.738998454789241313E-14 ) ) ;
#249 = ADVANCED_FACE ( 'NONE', ( #142, #46 ), #76, .F. ) ;
#250 = CARTESIAN_POINT ( 'NONE',  ( 9.000000000000000000, -28.00000000000000000, -7.000000000000005329 ) ) ;
#251 =( LENGTH_UNIT ( ) NAMED_UNIT ( * ) SI_UNIT ( .MILLI., .METRE. ) );
#252 = CIRCLE ( 'NONE', #222, 6.999999999999998224 ) ;
#253 = ORIENTED_EDGE ( 'NONE', *, *, #138, .F. ) ;
#254 = FILL_AREA_STYLE_COLOUR ( '', #96 ) ;
#255 = EDGE_CURVE ( 'NONE', #122, #229, #166, .T. ) ;
#256 =( NAMED_UNIT ( * ) SI_UNIT ( $, .STERADIAN. ) SOLID_ANGLE_UNIT ( ) );
#257 =( LENGTH_UNIT ( ) NAMED_UNIT ( * ) SI_UNIT ( .MILLI., .METRE. ) );
#258 = CIRCLE ( 'NONE', #75, 2.499999999999998224 ) ;
#259 = SURFACE_STYLE_USAGE ( .BOTH. , #165 ) ;
#260 = DIRECTION ( 'NONE',  ( 0.000000000000000000, 0.000000000000000000, -1.000000000000000000 ) ) ;
#261 = ORIENTED_EDGE ( 'NONE', *, *, #205, .T. ) ;
#262 = CARTESIAN_POINT ( 'NONE',  ( 4.898587196589405680E-17, 0.000000000000000000, 2.499999999999998668 ) ) ;
#263 = VERTEX_POINT ( 'NONE', #168 ) ;
#264 = VECTOR ( 'NONE', #215, 1000.000000000000000 ) ;
#265 = ORIENTED_EDGE ( 'NONE', *, *, #16, .T. ) ;
#266 = CARTESIAN_POINT ( 'NONE',  ( 0.000000000000000000, 0.000000000000000000, 0.000000000000000000 ) ) ;
#267 = EDGE_CURVE ( 'NONE', #161, #227, #233, .T. ) ;
#268 = CARTESIAN_POINT ( 'NONE',  ( 9.000000000000000000, 0.000000000000000000, 2.499999999999998224 ) ) ;
#269 = PRESENTATION_LAYER_ASSIGNMENT (  '', '', ( #70 ) ) ;
#270 = CARTESIAN_POINT ( 'NONE',  ( 9.000000000000000000, 27.99999999999999289, 7.000000000000008882 ) ) ;
#271 = DIRECTION ( 'NONE',  ( -0.000000000000000000, 1.000000000000000000, 3.097720492815726673E-16 ) ) ;
#272 = DIRECTION ( 'NONE',  ( -1.000000000000000000, -0.000000000000000000, -0.000000000000000000 ) ) ;
#273 = APPLICATION_CONTEXT ( 'automotive_design' ) ;
#274 = UNCERTAINTY_MEASURE_WITH_UNIT (LENGTH_MEASURE( 1.000000000000000082E-05 ), #125, 'distance_accuracy_value', 'NONE');
#275 = EDGE_CURVE ( 'NONE', #82, #161, #3, .T. ) ;
#276 = SURFACE_STYLE_USAGE ( .BOTH. , #65 ) ;
#277 = PRESENTATION_STYLE_ASSIGNMENT (( #276 ) ) ;
#278 = AXIS2_PLACEMENT_3D ( 'NONE', #135, #19, #133 ) ;
#279 = AXIS2_PLACEMENT_3D ( 'NONE', #266, #56, #60 ) ;
#280 = EDGE_LOOP ( 'NONE', ( #50, #68, #29, #216 ) ) ;
#281 = PRODUCT_RELATED_PRODUCT_CATEGORY ( 'part', '', ( #112 ) ) ;
#282 = FILL_AREA_STYLE ('',( #184 ) ) ;
#283 = ORIENTED_EDGE ( 'NONE', *, *, #217, .T. ) ;
#284 = CARTESIAN_POINT ( 'NONE',  ( 9.000000000000000000, 27.99999999999999289, 7.000000000000008882 ) ) ;
#285 = SURFACE_STYLE_FILL_AREA ( #210 ) ;
#286 = VECTOR ( 'NONE', #271, 1000.000000000000000 ) ;
#287 = ORIENTED_EDGE ( 'NONE', *, *, #309, .T. ) ;
#288 = CYLINDRICAL_SURFACE ( 'NONE', #47, 6.999999999999998224 ) ;
#289 = ORIENTED_EDGE ( 'NONE', *, *, #242, .F. ) ;
#290 = UNCERTAINTY_MEASURE_WITH_UNIT (LENGTH_MEASURE( 1.000000000000000082E-05 ), #251, 'distance_accuracy_value', 'NONE');
#291 = STYLED_ITEM ( 'NONE', ( #73 ), #197 ) ;
#292 = ADVANCED_FACE ( 'NONE', ( #54 ), #288, .T. ) ;
#293 = CARTESIAN_POINT ( 'NONE',  ( 9.000000000000000000, 28.00000000000000711, -6.999999999999987566 ) ) ;
#294 = CYLINDRICAL_SURFACE ( 'NONE', #86, 6.999999999999998224 ) ;
#295 = LINE ( 'NONE', #12, #286 ) ;
#296 = ADVANCED_FACE ( 'NONE', ( #51 ), #189, .F. ) ;
#297 = AXIS2_PLACEMENT_3D ( 'NONE', #23, #24, #97 ) ;
#298 =( NAMED_UNIT ( * ) PLANE_ANGLE_UNIT ( ) SI_UNIT ( $, .RADIAN. ) );
#299 = DIRECTION ( 'NONE',  ( 1.000000000000000000, 0.000000000000000000, 0.000000000000000000 ) ) ;
#300 = DIRECTION ( 'NONE',  ( -1.000000000000000000, -0.000000000000000000, -0.000000000000000000 ) ) ;
#301 = PRESENTATION_LAYER_ASSIGNMENT (  '', '', ( #36 ) ) ;
#302 = MECHANICAL_DESIGN_GEOMETRIC_PRESENTATION_REPRESENTATION (  '', ( #36 ), #134 ) ;
#303 = FACE_OUTER_BOUND ( 'NONE', #72, .T. ) ;
#304 = SURFACE_SIDE_STYLE ('',( #157 ) ) ;
#305 = FILL_AREA_STYLE ('',( #254 ) ) ;
#306 = AXIS2_PLACEMENT_3D ( 'NONE', #15, #93, #43 ) ;
#307 = ORIENTED_EDGE ( 'NONE', *, *, #205, .F. ) ;
#308 = DIRECTION ( 'NONE',  ( 1.000000000000000000, 0.000000000000000000, 0.000000000000000000 ) ) ;
#309 = EDGE_CURVE ( 'NONE', #82, #28, #1, .T. ) ;
#310 = APPLICATION_PROTOCOL_DEFINITION ( 'draft international standard', 'automotive_design', 1998, #104 ) ;
ENDSEC;
END-ISO-10303-21;
