ISO-10303-21;
HEADER;
FILE_DESCRIPTION (( 'STEP AP214' ),
    '1' );
FILE_NAME ('202500614-10205P01.STEP',
    '2026-02-11T07:48:26',
    ( '' ),
    ( '' ),
    'SwSTEP 2.0',
    'SolidWorks 2021',
    '' );
FILE_SCHEMA (( 'AUTOMOTIVE_DESIGN' ));
ENDSEC;

DATA;
#1 = CARTESIAN_POINT ( 'NONE',  ( -45.00000000000000000, 15.00000000000000000, -6.499999999999992006 ) ) ;
#2 = ORIENTED_EDGE ( 'NONE', *, *, #456, .F. ) ;
#3 = CIRCLE ( 'NONE', #141, 6.499999999999999112 ) ;
#4 = DIRECTION ( 'NONE',  ( 0.000000000000000000, 0.000000000000000000, 1.000000000000000000 ) ) ;
#5 = CARTESIAN_POINT ( 'NONE',  ( 45.00000000000000000, 8.599999999999999645, -4.082927288418950733E-15 ) ) ;
#6 = ORIENTED_EDGE ( 'NONE', *, *, #449, .F. ) ;
#7 = CIRCLE ( 'NONE', #663, 3.299999999999997158 ) ;
#8 = CIRCLE ( 'NONE', #561, 6.499999999999999112 ) ;
#9 = UNCERTAINTY_MEASURE_WITH_UNIT (LENGTH_MEASURE( 1.000000000000000082E-05 ), #471, 'distance_accuracy_value', 'NONE');
#10 =( NAMED_UNIT ( * ) PLANE_ANGLE_UNIT ( ) SI_UNIT ( $, .RADIAN. ) );
#11 = CARTESIAN_POINT ( 'NONE',  ( 45.00000000000000000, 15.00000000000000000, 6.499999999999994671 ) ) ;
#12 = VERTEX_POINT ( 'NONE', #29 ) ;
#13 = EDGE_CURVE ( 'NONE', #626, #241, #8, .T. ) ;
#14 = DIRECTION ( 'NONE',  ( 0.000000000000000000, 0.000000000000000000, -1.000000000000000000 ) ) ;
#15 = ORIENTED_EDGE ( 'NONE', *, *, #627, .T. ) ;
#16 = DIRECTION ( 'NONE',  ( 0.000000000000000000, 0.000000000000000000, -1.000000000000000000 ) ) ;
#17 = LINE ( 'NONE', #209, #106 ) ;
#18 = ORIENTED_EDGE ( 'NONE', *, *, #762, .F. ) ;
#19 = AXIS2_PLACEMENT_3D ( 'NONE', #125, #600, #231 ) ;
#20 = AXIS2_PLACEMENT_3D ( 'NONE', #108, #354, #157 ) ;
#21 = CARTESIAN_POINT ( 'NONE',  ( -27.00000000000000000, 15.00000000000000000, 0.000000000000000000 ) ) ;
#22 = DIRECTION ( 'NONE',  ( 0.000000000000000000, 0.000000000000000000, 1.000000000000000000 ) ) ;
#23 = ORIENTED_EDGE ( 'NONE', *, *, #396, .F. ) ;
#24 = EDGE_CURVE ( 'NONE', #497, #39, #612, .T. ) ;
#25 = CARTESIAN_POINT ( 'NONE',  ( 27.00000000000000000, 15.00000000000000000, 6.505213034913026604E-15 ) ) ;
#26 = VERTEX_POINT ( 'NONE', #164 ) ;
#27 = PRESENTATION_STYLE_ASSIGNMENT (( #713 ) ) ;
#28 = CARTESIAN_POINT ( 'NONE',  ( -45.00000000000000000, 8.599999999999999645, 6.500000000000005329 ) ) ;
#29 = CARTESIAN_POINT ( 'NONE',  ( 27.00000000000000000, 6.000769315822029754E-16, 5.500000000000007994 ) ) ;
#30 = ORIENTED_EDGE ( 'NONE', *, *, #699, .F. ) ;
#31 = EDGE_CURVE ( 'NONE', #300, #492, #413, .T. ) ;
#32 = AXIS2_PLACEMENT_3D ( 'NONE', #751, #195, #319 ) ;
#33 = DIRECTION ( 'NONE',  ( -0.000000000000000000, -1.000000000000000000, -0.000000000000000000 ) ) ;
#34 = DIRECTION ( 'NONE',  ( -0.000000000000000000, 1.000000000000000000, -0.000000000000000000 ) ) ;
#35 = EDGE_LOOP ( 'NONE', ( #329, #578, #245, #793 ) ) ;
#36 = PLANE ( 'NONE',  #351 ) ;
#37 = ADVANCED_FACE ( 'NONE', ( #222 ), #774, .F. ) ;
#38 = DIRECTION ( 'NONE',  ( -0.000000000000000000, 1.000000000000000000, -0.000000000000000000 ) ) ;
#39 = VERTEX_POINT ( 'NONE', #399 ) ;
#40 = CARTESIAN_POINT ( 'NONE',  ( 57.99999999999997868, 15.00000000000000000, -10.50000000000000178 ) ) ;
#41 = LINE ( 'NONE', #525, #390 ) ;
#42 = EDGE_LOOP ( 'NONE', ( #603, #220, #190, #761 ) ) ;
#43 = LINE ( 'NONE', #647, #93 ) ;
#44 = AXIS2_PLACEMENT_3D ( 'NONE', #723, #232, #148 ) ;
#45 = CARTESIAN_POINT ( 'NONE',  ( -45.00000000000000000, 15.00000000000000000, 6.938893903907228378E-15 ) ) ;
#46 = EDGE_LOOP ( 'NONE', ( #557, #260, #712, #544 ) ) ;
#47 = EDGE_CURVE ( 'NONE', #406, #368, #535, .T. ) ;
#48 = CARTESIAN_POINT ( 'NONE',  ( 45.00000000000000000, 15.00000000000000000, 3.299999999999993605 ) ) ;
#49 = LINE ( 'NONE', #591, #326 ) ;
#50 = ORIENTED_EDGE ( 'NONE', *, *, #330, .T. ) ;
#51 = CARTESIAN_POINT ( 'NONE',  ( 59.99999999999998579, 15.00000000000000000, 10.49999999999999645 ) ) ;
#52 = FACE_OUTER_BOUND ( 'NONE', #692, .T. ) ;
#53 = ORIENTED_EDGE ( 'NONE', *, *, #379, .F. ) ;
#54 = CARTESIAN_POINT ( 'NONE',  ( -45.00000000000000000, 8.599999999999999645, 3.300000000000004263 ) ) ;
#55 = VECTOR ( 'NONE', #118, 1000.000000000000000 ) ;
#56 = DIRECTION ( 'NONE',  ( -0.000000000000000000, 1.000000000000000000, -0.000000000000000000 ) ) ;
#57 = CIRCLE ( 'NONE', #791, 3.299999999999997158 ) ;
#58 = AXIS2_PLACEMENT_3D ( 'NONE', #445, #139, #258 ) ;
#59 = ORIENTED_EDGE ( 'NONE', *, *, #795, .F. ) ;
#60 = CARTESIAN_POINT ( 'NONE',  ( 45.00000000000000000, 8.599999999999999645, -3.300000000000001155 ) ) ;
#61 = CARTESIAN_POINT ( 'NONE',  ( 45.00000000000000000, 15.00000000000000000, -6.500000000000003553 ) ) ;
#62 = ORIENTED_EDGE ( 'NONE', *, *, #752, .F. ) ;
#63 = DIRECTION ( 'NONE',  ( 0.000000000000000000, -1.000000000000000000, 0.000000000000000000 ) ) ;
#64 = CARTESIAN_POINT ( 'NONE',  ( 59.99999999999998579, 15.00000000000000000, -12.50000000000000178 ) ) ;
#65 = ORIENTED_EDGE ( 'NONE', *, *, #633, .T. ) ;
#66 = CARTESIAN_POINT ( 'NONE',  ( -45.00000000000000000, 15.00000000000000000, 6.938893903907228378E-15 ) ) ;
#67 = AXIS2_PLACEMENT_3D ( 'NONE', #21, #376, #16 ) ;
#68 = ORIENTED_EDGE ( 'NONE', *, *, #186, .F. ) ;
#69 = APPLICATION_CONTEXT ( 'automotive_design' ) ;
#70 = AXIS2_PLACEMENT_3D ( 'NONE', #477, #126, #178 ) ;
#71 = EDGE_CURVE ( 'NONE', #145, #262, #49, .T. ) ;
#72 = AXIS2_PLACEMENT_3D ( 'NONE', #519, #276, #342 ) ;
#73 = FILL_AREA_STYLE_COLOUR ( '', #452 ) ;
#74 = FACE_OUTER_BOUND ( 'NONE', #252, .T. ) ;
#75 = DIRECTION ( 'NONE',  ( 0.000000000000000000, -1.000000000000000000, 0.000000000000000000 ) ) ;
#76 = ORIENTED_EDGE ( 'NONE', *, *, #556, .T. ) ;
#77 = VERTEX_POINT ( 'NONE', #226 ) ;
#78 = EDGE_CURVE ( 'NONE', #787, #624, #41, .T. ) ;
#79 = DIRECTION ( 'NONE',  ( 0.000000000000000000, 0.000000000000000000, 1.000000000000000000 ) ) ;
#80 = VERTEX_POINT ( 'NONE', #103 ) ;
#81 = AXIS2_PLACEMENT_3D ( 'NONE', #498, #750, #79 ) ;
#82 = FILL_AREA_STYLE ('',( #73 ) ) ;
#83 = DIRECTION ( 'NONE',  ( 0.000000000000000000, -1.000000000000000000, 0.000000000000000000 ) ) ;
#84 = ORIENTED_EDGE ( 'NONE', *, *, #236, .T. ) ;
#85 = ORIENTED_EDGE ( 'NONE', *, *, #775, .F. ) ;
#86 = EDGE_CURVE ( 'NONE', #12, #422, #703, .T. ) ;
#87 = DIRECTION ( 'NONE',  ( 0.000000000000000000, 0.000000000000000000, -1.000000000000000000 ) ) ;
#88 = CARTESIAN_POINT ( 'NONE',  ( 27.00000000000000000, 6.000769315822029754E-16, 6.505213034913026604E-15 ) ) ;
#89 = AXIS2_PLACEMENT_3D ( 'NONE', #315, #757, #562 ) ;
#90 = AXIS2_PLACEMENT_3D ( 'NONE', #432, #63, #242 ) ;
#91 = ADVANCED_FACE ( 'NONE', ( #219, #708 ), #720, .F. ) ;
#92 = VECTOR ( 'NONE', #278, 1000.000000000000000 ) ;
#93 = VECTOR ( 'NONE', #404, 1000.000000000000000 ) ;
#94 = CARTESIAN_POINT ( 'NONE',  ( 59.99999999999998579, 0.000000000000000000, 12.49999999999999822 ) ) ;
#95 = CARTESIAN_POINT ( 'NONE',  ( -45.00000000000000000, 15.00000000000000000, -6.499999999999992006 ) ) ;
#96 = ORIENTED_EDGE ( 'NONE', *, *, #204, .T. ) ;
#97 = CARTESIAN_POINT ( 'NONE',  ( 59.99999999999998579, 0.000000000000000000, 10.49999999999999645 ) ) ;
#98 = DIRECTION ( 'NONE',  ( 0.000000000000000000, 0.000000000000000000, 1.000000000000000000 ) ) ;
#99 = ORIENTED_EDGE ( 'NONE', *, *, #159, .F. ) ;
#100 = ADVANCED_FACE ( 'NONE', ( #654 ), #409, .F. ) ;
#101 = FACE_OUTER_BOUND ( 'NONE', #532, .T. ) ;
#102 = EDGE_CURVE ( 'NONE', #291, #325, #352, .T. ) ;
#103 = CARTESIAN_POINT ( 'NONE',  ( 45.00000000000000000, 15.00000000000000000, 6.499999999999994671 ) ) ;
#104 = ORIENTED_EDGE ( 'NONE', *, *, #447, .F. ) ;
#105 = DIRECTION ( 'NONE',  ( 0.000000000000000000, 0.000000000000000000, -1.000000000000000000 ) ) ;
#106 = VECTOR ( 'NONE', #500, 1000.000000000000000 ) ;
#107 = AXIS2_PLACEMENT_3D ( 'NONE', #711, #531, #538 ) ;
#108 = CARTESIAN_POINT ( 'NONE',  ( -27.00000000000000000, 6.000769315822029754E-16, 0.000000000000000000 ) ) ;
#109 = ORIENTED_EDGE ( 'NONE', *, *, #388, .F. ) ;
#110 = LINE ( 'NONE', #177, #766 ) ;
#111 = DIRECTION ( 'NONE',  ( -0.000000000000000000, -1.000000000000000000, -0.000000000000000000 ) ) ;
#112 = ADVANCED_FACE ( 'NONE', ( #287 ), #229, .T. ) ;
#113 = EDGE_LOOP ( 'NONE', ( #779, #197 ) ) ;
#114 = FACE_BOUND ( 'NONE', #797, .T. ) ;
#115 = DIRECTION ( 'NONE',  ( -0.000000000000000000, 1.000000000000000000, -0.000000000000000000 ) ) ;
#116 = ORIENTED_EDGE ( 'NONE', *, *, #302, .T. ) ;
#117 = EDGE_CURVE ( 'NONE', #336, #526, #285, .T. ) ;
#118 = DIRECTION ( 'NONE',  ( 0.000000000000000000, 0.000000000000000000, 1.000000000000000000 ) ) ;
#119 = CARTESIAN_POINT ( 'NONE',  ( -58.00000000000000711, 15.00000000000000000, 12.50000000000001066 ) ) ;
#120 = VECTOR ( 'NONE', #796, 1000.000000000000000 ) ;
#121 = ORIENTED_EDGE ( 'NONE', *, *, #188, .F. ) ;
#122 = CYLINDRICAL_SURFACE ( 'NONE', #635, 3.299999999999997158 ) ;
#123 = CARTESIAN_POINT ( 'NONE',  ( 59.99999999999998579, 0.000000000000000000, -12.50000000000000178 ) ) ;
#124 = ORIENTED_EDGE ( 'NONE', *, *, #540, .F. ) ;
#125 = CARTESIAN_POINT ( 'NONE',  ( 59.99999999999998579, 15.00000000000000000, -12.50000000000000178 ) ) ;
#126 = DIRECTION ( 'NONE',  ( -0.000000000000000000, 1.000000000000000000, -0.000000000000000000 ) ) ;
#127 = EDGE_CURVE ( 'NONE', #438, #787, #57, .T. ) ;
#128 = ORIENTED_EDGE ( 'NONE', *, *, #47, .F. ) ;
#129 = CARTESIAN_POINT ( 'NONE',  ( -60.00000000000001421, 15.00000000000000000, 10.50000000000001066 ) ) ;
#130 = AXIS2_PLACEMENT_3D ( 'NONE', #770, #218, #360 ) ;
#131 = EDGE_LOOP ( 'NONE', ( #676, #745 ) ) ;
#132 = VECTOR ( 'NONE', #469, 1000.000000000000000 ) ;
#133 = CIRCLE ( 'NONE', #507, 6.499999999999999112 ) ;
#134 = DIRECTION ( 'NONE',  ( 0.000000000000000000, 0.000000000000000000, 1.000000000000000000 ) ) ;
#135 = DIRECTION ( 'NONE',  ( -0.000000000000000000, 1.000000000000000000, -0.000000000000000000 ) ) ;
#136 = ORIENTED_EDGE ( 'NONE', *, *, #328, .F. ) ;
#137 = ORIENTED_EDGE ( 'NONE', *, *, #169, .T. ) ;
#138 = DIRECTION ( 'NONE',  ( 0.000000000000000000, -1.000000000000000000, 0.000000000000000000 ) ) ;
#139 = DIRECTION ( 'NONE',  ( -0.000000000000000000, 1.000000000000000000, -0.000000000000000000 ) ) ;
#140 = EDGE_LOOP ( 'NONE', ( #458, #680, #724, #668 ) ) ;
#141 = AXIS2_PLACEMENT_3D ( 'NONE', #565, #444, #134 ) ;
#142 = FACE_BOUND ( 'NONE', #113, .T. ) ;
#143 = PRODUCT_DEFINITION ( 'UNKNOWN', '', #272, #180 ) ;
#144 = DIRECTION ( 'NONE',  ( 0.000000000000000000, -0.000000000000000000, -1.000000000000000000 ) ) ;
#145 = VERTEX_POINT ( 'NONE', #161 ) ;
#146 = PRODUCT_CONTEXT ( 'NONE', #716, 'mechanical' ) ;
#147 = CARTESIAN_POINT ( 'NONE',  ( -27.00000000000000000, 6.000769315822029754E-16, 0.000000000000000000 ) ) ;
#148 = DIRECTION ( 'NONE',  ( 0.000000000000000000, 0.000000000000000000, -1.000000000000000000 ) ) ;
#149 = EDGE_CURVE ( 'NONE', #687, #241, #474, .T. ) ;
#150 = DIRECTION ( 'NONE',  ( 0.000000000000000000, -1.000000000000000000, 0.000000000000000000 ) ) ;
#151 = DIRECTION ( 'NONE',  ( 0.000000000000000000, 0.000000000000000000, -1.000000000000000000 ) ) ;
#152 = ORIENTED_EDGE ( 'NONE', *, *, #259, .F. ) ;
#153 = AXIS2_PLACEMENT_3D ( 'NONE', #722, #156, #780 ) ;
#154 =( NAMED_UNIT ( * ) SI_UNIT ( $, .STERADIAN. ) SOLID_ANGLE_UNIT ( ) );
#155 = CIRCLE ( 'NONE', #649, 3.299999999999997158 ) ;
#156 = DIRECTION ( 'NONE',  ( -0.000000000000000000, -1.000000000000000000, -0.000000000000000000 ) ) ;
#157 = DIRECTION ( 'NONE',  ( 0.000000000000000000, 0.000000000000000000, -1.000000000000000000 ) ) ;
#158 = VERTEX_POINT ( 'NONE', #786 ) ;
#159 = EDGE_CURVE ( 'NONE', #393, #406, #742, .T. ) ;
#160 = CARTESIAN_POINT ( 'NONE',  ( 45.00000000000000000, 15.00000000000000000, -4.082927288418950733E-15 ) ) ;
#161 = CARTESIAN_POINT ( 'NONE',  ( -60.00000000000001421, 15.00000000000000000, -10.49999999999998934 ) ) ;
#162 = VERTEX_POINT ( 'NONE', #644 ) ;
#163 = DIRECTION ( 'NONE',  ( -0.000000000000000000, -1.000000000000000000, -0.000000000000000000 ) ) ;
#164 = CARTESIAN_POINT ( 'NONE',  ( 27.00000000000000000, 15.00000000000000000, -5.499999999999991118 ) ) ;
#165 = EDGE_LOOP ( 'NONE', ( #446, #223 ) ) ;
#166 = VECTOR ( 'NONE', #234, 1000.000000000000000 ) ;
#167 = CARTESIAN_POINT ( 'NONE',  ( -58.00000000000000711, 0.000000000000000000, -10.49999999999998934 ) ) ;
#168 = AXIS2_PLACEMENT_3D ( 'NONE', #25, #83, #380 ) ;
#169 = EDGE_CURVE ( 'NONE', #77, #492, #240, .T. ) ;
#170 = DIRECTION ( 'NONE',  ( 0.000000000000000000, -1.000000000000000000, 0.000000000000000000 ) ) ;
#171 = ORIENTED_EDGE ( 'NONE', *, *, #159, .T. ) ;
#172 = UNCERTAINTY_MEASURE_WITH_UNIT (LENGTH_MEASURE( 1.000000000000000082E-05 ), #622, 'distance_accuracy_value', 'NONE');
#173 = DIRECTION ( 'NONE',  ( 0.000000000000000000, -0.000000000000000000, -1.000000000000000000 ) ) ;
#174 = CARTESIAN_POINT ( 'NONE',  ( 59.99999999999998579, 15.00000000000000000, -12.50000000000000178 ) ) ;
#175 = ORIENTED_EDGE ( 'NONE', *, *, #292, .F. ) ;
#176 = EDGE_CURVE ( 'NONE', #77, #305, #552, .T. ) ;
#177 = CARTESIAN_POINT ( 'NONE',  ( 59.99999999999998579, 15.00000000000000000, 10.49999999999999645 ) ) ;
#178 = DIRECTION ( 'NONE',  ( 0.000000000000000000, 0.000000000000000000, 1.000000000000000000 ) ) ;
#179 = EDGE_LOOP ( 'NONE', ( #576, #50, #137, #631, #233, #171, #346, #431 ) ) ;
#180 = PRODUCT_DEFINITION_CONTEXT ( 'detailed design', #69, 'design' ) ;
#181 = LINE ( 'NONE', #734, #182 ) ;
#182 = VECTOR ( 'NONE', #289, 1000.000000000000000 ) ;
#183 = CARTESIAN_POINT ( 'NONE',  ( 45.00000000000000000, 15.00000000000000000, -4.082927288418950733E-15 ) ) ;
#184 = AXIS2_PLACEMENT_3D ( 'NONE', #398, #464, #714 ) ;
#185 = VERTEX_POINT ( 'NONE', #61 ) ;
#186 = EDGE_CURVE ( 'NONE', #305, #300, #674, .T. ) ;
#187 = FACE_BOUND ( 'NONE', #131, .T. ) ;
#188 = EDGE_CURVE ( 'NONE', #26, #422, #370, .T. ) ;
#189 = DIRECTION ( 'NONE',  ( -0.000000000000000000, -1.000000000000000000, -0.000000000000000000 ) ) ;
#190 = ORIENTED_EDGE ( 'NONE', *, *, #691, .F. ) ;
#191 = SURFACE_SIDE_STYLE ('',( #510 ) ) ;
#192 = DIRECTION ( 'NONE',  ( 0.000000000000000000, -1.000000000000000000, 0.000000000000000000 ) ) ;
#193 = EDGE_LOOP ( 'NONE', ( #59, #529, #630, #448 ) ) ;
#194 = LINE ( 'NONE', #571, #740 ) ;
#195 = DIRECTION ( 'NONE',  ( -0.000000000000000000, 1.000000000000000000, -0.000000000000000000 ) ) ;
#196 = ADVANCED_FACE ( 'NONE', ( #430 ), #486, .F. ) ;
#197 = ORIENTED_EDGE ( 'NONE', *, *, #127, .F. ) ;
#198 = AXIS2_PLACEMENT_3D ( 'NONE', #5, #115, #243 ) ;
#199 = VECTOR ( 'NONE', #577, 1000.000000000000000 ) ;
#200 = EDGE_LOOP ( 'NONE', ( #76, #84 ) ) ;
#201 = PLANE ( 'NONE',  #543 ) ;
#202 = LINE ( 'NONE', #704, #199 ) ;
#203 = EDGE_LOOP ( 'NONE', ( #384, #475, #6, #589 ) ) ;
#204 = EDGE_CURVE ( 'NONE', #406, #336, #615, .T. ) ;
#205 = ORIENTED_EDGE ( 'NONE', *, *, #78, .F. ) ;
#206 = LINE ( 'NONE', #317, #675 ) ;
#207 = ORIENTED_EDGE ( 'NONE', *, *, #620, .T. ) ;
#208 = LINE ( 'NONE', #263, #308 ) ;
#209 = CARTESIAN_POINT ( 'NONE',  ( -60.00000000000001421, 15.00000000000000000, -12.49999999999998934 ) ) ;
#210 = CIRCLE ( 'NONE', #130, 6.499999999999999112 ) ;
#211 = AXIS2_PLACEMENT_3D ( 'NONE', #451, #192, #14 ) ;
#212 = AXIS2_PLACEMENT_3D ( 'NONE', #601, #650, #282 ) ;
#213 = CARTESIAN_POINT ( 'NONE',  ( 45.00000000000000000, 0.000000000000000000, -4.082927288418950733E-15 ) ) ;
#214 = ADVANCED_FACE ( 'NONE', ( #496 ), #619, .F. ) ;
#215 = ORIENTED_EDGE ( 'NONE', *, *, #149, .F. ) ;
#216 = ORIENTED_EDGE ( 'NONE', *, *, #268, .T. ) ;
#217 = APPLICATION_PROTOCOL_DEFINITION ( 'draft international standard', 'automotive_design', 1998, #716 ) ;
#218 = DIRECTION ( 'NONE',  ( -0.000000000000000000, 1.000000000000000000, -0.000000000000000000 ) ) ;
#219 = FACE_BOUND ( 'NONE', #672, .T. ) ;
#220 = ORIENTED_EDGE ( 'NONE', *, *, #31, .F. ) ;
#221 = CYLINDRICAL_SURFACE ( 'NONE', #296, 2.000000000000000000 ) ;
#222 = FACE_OUTER_BOUND ( 'NONE', #341, .T. ) ;
#223 = ORIENTED_EDGE ( 'NONE', *, *, #752, .T. ) ;
#224 = AXIS2_PLACEMENT_3D ( 'NONE', #167, #138, #567 ) ;
#225 = FACE_OUTER_BOUND ( 'NONE', #641, .T. ) ;
#226 = CARTESIAN_POINT ( 'NONE',  ( 57.99999999999997868, 15.00000000000000000, -12.50000000000000178 ) ) ;
#227 = ORIENTED_EDGE ( 'NONE', *, *, #318, .T. ) ;
#228 = FACE_OUTER_BOUND ( 'NONE', #736, .T. ) ;
#229 = CYLINDRICAL_SURFACE ( 'NONE', #428, 2.000000000000000000 ) ;
#230 = VERTEX_POINT ( 'NONE', #667 ) ;
#231 = DIRECTION ( 'NONE',  ( 1.000000000000000000, 0.000000000000000000, -1.156482317317871478E-16 ) ) ;
#232 = DIRECTION ( 'NONE',  ( -0.000000000000000000, 1.000000000000000000, -0.000000000000000000 ) ) ;
#233 = ORIENTED_EDGE ( 'NONE', *, *, #379, .T. ) ;
#234 = DIRECTION ( 'NONE',  ( -0.000000000000000000, 1.000000000000000000, -0.000000000000000000 ) ) ;
#235 = VECTOR ( 'NONE', #316, 1000.000000000000000 ) ;
#236 = EDGE_CURVE ( 'NONE', #687, #536, #572, .T. ) ;
#237 = CARTESIAN_POINT ( 'NONE',  ( 57.99999999999997868, 15.00000000000000000, -12.50000000000000178 ) ) ;
#238 = VERTEX_POINT ( 'NONE', #731 ) ;
#239 = CARTESIAN_POINT ( 'NONE',  ( 59.99999999999998579, 15.00000000000000000, 12.49999999999999822 ) ) ;
#240 = LINE ( 'NONE', #174, #664 ) ;
#241 = VERTEX_POINT ( 'NONE', #1 ) ;
#242 = DIRECTION ( 'NONE',  ( 0.000000000000000000, 0.000000000000000000, -1.000000000000000000 ) ) ;
#243 = DIRECTION ( 'NONE',  ( 0.000000000000000000, 0.000000000000000000, 1.000000000000000000 ) ) ;
#244 = MECHANICAL_DESIGN_GEOMETRIC_PRESENTATION_REPRESENTATION (  '', ( #280 ), #416 ) ;
#245 = ORIENTED_EDGE ( 'NONE', *, *, #186, .T. ) ;
#246 = PRODUCT_RELATED_PRODUCT_CATEGORY ( 'part', '', ( #484 ) ) ;
#247 = FACE_OUTER_BOUND ( 'NONE', #35, .T. ) ;
#248 = CARTESIAN_POINT ( 'NONE',  ( 45.00000000000000000, 8.599999999999999645, 3.299999999999993605 ) ) ;
#249 = AXIS2_PLACEMENT_3D ( 'NONE', #707, #777, #353 ) ;
#250 = ORIENTED_EDGE ( 'NONE', *, *, #188, .T. ) ;
#251 = DIRECTION ( 'NONE',  ( 0.000000000000000000, 0.000000000000000000, -1.000000000000000000 ) ) ;
#252 = EDGE_LOOP ( 'NONE', ( #62, #759, #332, #175 ) ) ;
#253 = EDGE_CURVE ( 'NONE', #238, #162, #735, .T. ) ;
#254 = PRESENTATION_STYLE_ASSIGNMENT (( #435 ) ) ;
#255 = DIRECTION ( 'NONE',  ( 0.000000000000000000, 0.000000000000000000, -1.000000000000000000 ) ) ;
#256 = ORIENTED_EDGE ( 'NONE', *, *, #13, .F. ) ;
#257 = FACE_BOUND ( 'NONE', #454, .T. ) ;
#258 = DIRECTION ( 'NONE',  ( 0.000000000000000000, 0.000000000000000000, -1.000000000000000000 ) ) ;
#259 = EDGE_CURVE ( 'NONE', #616, #275, #545, .T. ) ;
#260 = ORIENTED_EDGE ( 'NONE', *, *, #328, .T. ) ;
#261 = AXIS2_PLACEMENT_3D ( 'NONE', #575, #75, #144 ) ;
#262 = VERTEX_POINT ( 'NONE', #605 ) ;
#263 = CARTESIAN_POINT ( 'NONE',  ( -45.00000000000000000, 15.00000000000000000, -3.299999999999990496 ) ) ;
#264 = CARTESIAN_POINT ( 'NONE',  ( 45.00000000000000000, 0.000000000000000000, 3.299999999999993605 ) ) ;
#265 =( LENGTH_UNIT ( ) NAMED_UNIT ( * ) SI_UNIT ( .MILLI., .METRE. ) );
#266 = CARTESIAN_POINT ( 'NONE',  ( -27.00000000000000000, 0.000000000000000000, 0.000000000000000000 ) ) ;
#267 = ORIENTED_EDGE ( 'NONE', *, *, #669, .T. ) ;
#268 = EDGE_CURVE ( 'NONE', #787, #438, #271, .T. ) ;
#269 = DIRECTION ( 'NONE',  ( 0.000000000000000000, 0.000000000000000000, -1.000000000000000000 ) ) ;
#270 = ORIENTED_EDGE ( 'NONE', *, *, #236, .F. ) ;
#271 = CIRCLE ( 'NONE', #613, 3.299999999999997158 ) ;
#272 = PRODUCT_DEFINITION_FORMATION_WITH_SPECIFIED_SOURCE ( 'ANY', '', #484, .NOT_KNOWN. ) ;
#273 = DIRECTION ( 'NONE',  ( 0.000000000000000000, -1.000000000000000000, 0.000000000000000000 ) ) ;
#274 = DIRECTION ( 'NONE',  ( 0.000000000000000000, -1.000000000000000000, -0.000000000000000000 ) ) ;
#275 = VERTEX_POINT ( 'NONE', #248 ) ;
#276 = DIRECTION ( 'NONE',  ( 0.000000000000000000, 0.000000000000000000, 1.000000000000000000 ) ) ;
#277 = CARTESIAN_POINT ( 'NONE',  ( -45.00000000000000000, 15.00000000000000000, 6.938893903907228378E-15 ) ) ;
#278 = DIRECTION ( 'NONE',  ( -0.000000000000000000, 1.000000000000000000, 0.000000000000000000 ) ) ;
#279 = ORIENTED_EDGE ( 'NONE', *, *, #783, .F. ) ;
#280 = STYLED_ITEM ( 'NONE', ( #27 ), #511 ) ;
#281 = DIRECTION ( 'NONE',  ( 0.000000000000000000, 0.000000000000000000, -1.000000000000000000 ) ) ;
#282 = DIRECTION ( 'NONE',  ( 0.000000000000000000, 0.000000000000000000, -1.000000000000000000 ) ) ;
#283 = ADVANCED_FACE ( 'NONE', ( #52 ), #311, .F. ) ;
#284 = ORIENTED_EDGE ( 'NONE', *, *, #253, .F. ) ;
#285 = CIRCLE ( 'NONE', #107, 2.000000000000000000 ) ;
#286 = DIRECTION ( 'NONE',  ( 1.000000000000000000, 0.000000000000000000, 0.000000000000000000 ) ) ;
#287 = FACE_OUTER_BOUND ( 'NONE', #42, .T. ) ;
#288 = VERTEX_POINT ( 'NONE', #744 ) ;
#289 = DIRECTION ( 'NONE',  ( -0.000000000000000000, 1.000000000000000000, -0.000000000000000000 ) ) ;
#290 = CARTESIAN_POINT ( 'NONE',  ( -58.00000000000000711, 15.00000000000000000, -10.49999999999998934 ) ) ;
#291 = VERTEX_POINT ( 'NONE', #727 ) ;
#292 = EDGE_CURVE ( 'NONE', #645, #291, #623, .T. ) ;
#293 = DIRECTION ( 'NONE',  ( -1.000000000000000000, 0.000000000000000000, 1.156482317317871478E-16 ) ) ;
#294 = ORIENTED_EDGE ( 'NONE', *, *, #304, .T. ) ;
#295 = CIRCLE ( 'NONE', #67, 5.499999999999996447 ) ;
#296 = AXIS2_PLACEMENT_3D ( 'NONE', #527, #273, #595 ) ;
#297 = VECTOR ( 'NONE', #340, 1000.000000000000000 ) ;
#298 = DIRECTION ( 'NONE',  ( 0.000000000000000000, 0.000000000000000000, -1.000000000000000000 ) ) ;
#299 = LINE ( 'NONE', #11, #479 ) ;
#300 = VERTEX_POINT ( 'NONE', #609 ) ;
#301 = DIRECTION ( 'NONE',  ( -1.000000000000000000, 0.000000000000000000, 1.011922027653137513E-16 ) ) ;
#302 = EDGE_CURVE ( 'NONE', #80, #185, #728, .T. ) ;
#303 = DIRECTION ( 'NONE',  ( 0.000000000000000000, 0.000000000000000000, 1.000000000000000000 ) ) ;
#304 = EDGE_CURVE ( 'NONE', #241, #626, #133, .T. ) ;
#305 = VERTEX_POINT ( 'NONE', #563 ) ;
#306 = DIRECTION ( 'NONE',  ( -0.000000000000000000, 1.000000000000000000, -0.000000000000000000 ) ) ;
#307 = DIRECTION ( 'NONE',  ( -1.000000000000000000, 0.000000000000000000, 0.000000000000000000 ) ) ;
#308 = VECTOR ( 'NONE', #628, 1000.000000000000000 ) ;
#309 = ORIENTED_EDGE ( 'NONE', *, *, #556, .F. ) ;
#310 = AXIS2_PLACEMENT_3D ( 'NONE', #490, #730, #666 ) ;
#311 = CYLINDRICAL_SURFACE ( 'NONE', #415, 6.499999999999999112 ) ;
#312 = CIRCLE ( 'NONE', #211, 5.499999999999996447 ) ;
#313 = ORIENTED_EDGE ( 'NONE', *, *, #117, .F. ) ;
#314 = EDGE_CURVE ( 'NONE', #39, #80, #299, .T. ) ;
#315 = CARTESIAN_POINT ( 'NONE',  ( 27.00000000000000000, 15.00000000000000000, 6.505213034913026604E-15 ) ) ;
#316 = DIRECTION ( 'NONE',  ( -0.000000000000000000, -0.000000000000000000, -1.000000000000000000 ) ) ;
#317 = CARTESIAN_POINT ( 'NONE',  ( 27.00000000000000000, 0.000000000000000000, 5.500000000000005329 ) ) ;
#318 = EDGE_CURVE ( 'NONE', #185, #80, #792, .T. ) ;
#319 = DIRECTION ( 'NONE',  ( 0.000000000000000000, 0.000000000000000000, 1.000000000000000000 ) ) ;
#320 = ORIENTED_EDGE ( 'NONE', *, *, #24, .T. ) ;
#321 = ORIENTED_EDGE ( 'NONE', *, *, #620, .F. ) ;
#322 = DIRECTION ( 'NONE',  ( -0.000000000000000000, -1.000000000000000000, -0.000000000000000000 ) ) ;
#323 = PLANE ( 'NONE',  #261 ) ;
#324 = CIRCLE ( 'NONE', #81, 3.299999999999997158 ) ;
#325 = VERTEX_POINT ( 'NONE', #748 ) ;
#326 = VECTOR ( 'NONE', #274, 1000.000000000000000 ) ;
#327 = FACE_BOUND ( 'NONE', #359, .T. ) ;
#328 = EDGE_CURVE ( 'NONE', #741, #616, #202, .T. ) ;
#329 = ORIENTED_EDGE ( 'NONE', *, *, #169, .F. ) ;
#330 = EDGE_CURVE ( 'NONE', #162, #77, #584, .T. ) ;
#331 = CARTESIAN_POINT ( 'NONE',  ( 27.00000000000000000, 6.000769315822029754E-16, -5.499999999999994671 ) ) ;
#332 = ORIENTED_EDGE ( 'NONE', *, *, #456, .T. ) ;
#333 = FACE_OUTER_BOUND ( 'NONE', #705, .T. ) ;
#334 = DIRECTION ( 'NONE',  ( -0.000000000000000000, 1.000000000000000000, -0.000000000000000000 ) ) ;
#335 = VECTOR ( 'NONE', #555, 1000.000000000000000 ) ;
#336 = VERTEX_POINT ( 'NONE', #566 ) ;
#337 = CIRCLE ( 'NONE', #168, 5.499999999999998224 ) ;
#338 = EDGE_CURVE ( 'NONE', #288, #325, #383, .T. ) ;
#339 = CYLINDRICAL_SURFACE ( 'NONE', #715, 6.499999999999999112 ) ;
#340 = DIRECTION ( 'NONE',  ( -0.000000000000000000, 1.000000000000000000, -0.000000000000000000 ) ) ;
#341 = EDGE_LOOP ( 'NONE', ( #355, #23, #659, #371 ) ) ;
#342 = DIRECTION ( 'NONE',  ( 1.000000000000000000, 0.000000000000000000, 0.000000000000000000 ) ) ;
#343 = CYLINDRICAL_SURFACE ( 'NONE', #493, 2.000000000000000000 ) ;
#344 = EDGE_CURVE ( 'NONE', #492, #145, #689, .T. ) ;
#345 = DIRECTION ( 'NONE',  ( 0.000000000000000000, 0.000000000000000000, 1.000000000000000000 ) ) ;
#346 = ORIENTED_EDGE ( 'NONE', *, *, #47, .T. ) ;
#347 = CARTESIAN_POINT ( 'NONE',  ( 45.00000000000000000, 8.599999999999999645, -6.500000000000003553 ) ) ;
#348 = DIRECTION ( 'NONE',  ( 0.000000000000000000, 0.000000000000000000, -1.000000000000000000 ) ) ;
#349 = ORIENTED_EDGE ( 'NONE', *, *, #462, .F. ) ;
#350 = AXIS2_PLACEMENT_3D ( 'NONE', #213, #150, #269 ) ;
#351 = AXIS2_PLACEMENT_3D ( 'NONE', #660, #286, #468 ) ;
#352 = CIRCLE ( 'NONE', #20, 5.499999999999998224 ) ;
#353 = DIRECTION ( 'NONE',  ( 0.000000000000000000, 0.000000000000000000, -1.000000000000000000 ) ) ;
#354 = DIRECTION ( 'NONE',  ( -0.000000000000000000, -1.000000000000000000, -0.000000000000000000 ) ) ;
#355 = ORIENTED_EDGE ( 'NONE', *, *, #338, .F. ) ;
#356 = EDGE_CURVE ( 'NONE', #275, #616, #155, .T. ) ;
#357 = FACE_OUTER_BOUND ( 'NONE', #179, .T. ) ;
#358 = DIRECTION ( 'NONE',  ( -0.000000000000000000, 1.000000000000000000, -0.000000000000000000 ) ) ;
#359 = EDGE_LOOP ( 'NONE', ( #732, #522 ) ) ;
#360 = DIRECTION ( 'NONE',  ( 0.000000000000000000, 0.000000000000000000, 1.000000000000000000 ) ) ;
#361 = DIRECTION ( 'NONE',  ( 0.000000000000000000, -1.000000000000000000, 0.000000000000000000 ) ) ;
#362 = ORIENTED_EDGE ( 'NONE', *, *, #204, .F. ) ;
#363 = VECTOR ( 'NONE', #798, 1000.000000000000000 ) ;
#364 = CIRCLE ( 'NONE', #184, 3.299999999999997158 ) ;
#365 = AXIS2_PLACEMENT_3D ( 'NONE', #661, #781, #461 ) ;
#366 = LINE ( 'NONE', #48, #166 ) ;
#367 = CARTESIAN_POINT ( 'NONE',  ( -45.00000000000000000, 8.599999999999999645, 6.938893903907228378E-15 ) ) ;
#368 = VERTEX_POINT ( 'NONE', #392 ) ;
#369 = CARTESIAN_POINT ( 'NONE',  ( -60.00000000000001421, 0.000000000000000000, -12.49999999999998934 ) ) ;
#370 = LINE ( 'NONE', #790, #756 ) ;
#371 = ORIENTED_EDGE ( 'NONE', *, *, #102, .T. ) ;
#372 =( NAMED_UNIT ( * ) SI_UNIT ( $, .STERADIAN. ) SOLID_ANGLE_UNIT ( ) );
#373 = CARTESIAN_POINT ( 'NONE',  ( -45.00000000000000000, 0.000000000000000000, 6.938893903907228378E-15 ) ) ;
#374 = EDGE_CURVE ( 'NONE', #514, #238, #690, .T. ) ;
#375 = ORIENTED_EDGE ( 'NONE', *, *, #533, .T. ) ;
#376 = DIRECTION ( 'NONE',  ( 0.000000000000000000, -1.000000000000000000, 0.000000000000000000 ) ) ;
#377 = CARTESIAN_POINT ( 'NONE',  ( -45.00000000000000000, 8.599999999999999645, 6.938893903907228378E-15 ) ) ;
#378 = CARTESIAN_POINT ( 'NONE',  ( -45.00000000000000000, 15.00000000000000000, 6.938893903907228378E-15 ) ) ;
#379 = EDGE_CURVE ( 'NONE', #145, #393, #17, .T. ) ;
#380 = DIRECTION ( 'NONE',  ( 0.000000000000000000, 0.000000000000000000, -1.000000000000000000 ) ) ;
#381 = ORIENTED_EDGE ( 'NONE', *, *, #447, .T. ) ;
#382 = FACE_BOUND ( 'NONE', #718, .T. ) ;
#383 = LINE ( 'NONE', #516, #453 ) ;
#384 = ORIENTED_EDGE ( 'NONE', *, *, #374, .T. ) ;
#385 = STYLED_ITEM ( 'NONE', ( #254 ), #785 ) ;
#386 = DIRECTION ( 'NONE',  ( -0.000000000000000000, 1.000000000000000000, -0.000000000000000000 ) ) ;
#387 = DIRECTION ( 'NONE',  ( 0.000000000000000000, 0.000000000000000000, 1.000000000000000000 ) ) ;
#388 = EDGE_CURVE ( 'NONE', #26, #158, #337, .T. ) ;
#389 = ORIENTED_EDGE ( 'NONE', *, *, #314, .T. ) ;
#390 = VECTOR ( 'NONE', #334, 1000.000000000000000 ) ;
#391 = APPLICATION_PROTOCOL_DEFINITION ( 'draft international standard', 'automotive_design', 1998, #69 ) ;
#392 = CARTESIAN_POINT ( 'NONE',  ( 57.99999999999997868, 15.00000000000000000, 12.49999999999999822 ) ) ;
#393 = VERTEX_POINT ( 'NONE', #129 ) ;
#394 = DIRECTION ( 'NONE',  ( 0.000000000000000000, 0.000000000000000000, -1.000000000000000000 ) ) ;
#395 = DIRECTION ( 'NONE',  ( 0.000000000000000000, -1.000000000000000000, -0.000000000000000000 ) ) ;
#396 = EDGE_CURVE ( 'NONE', #645, #288, #312, .T. ) ;
#397 = SHAPE_DEFINITION_REPRESENTATION ( #733, #511 ) ;
#398 = CARTESIAN_POINT ( 'NONE',  ( 45.00000000000000000, 0.000000000000000000, -4.082927288418950733E-15 ) ) ;
#399 = CARTESIAN_POINT ( 'NONE',  ( 45.00000000000000000, 8.599999999999999645, 6.499999999999994671 ) ) ;
#400 = AXIS2_PLACEMENT_3D ( 'NONE', #418, #358, #303 ) ;
#401 = ORIENTED_EDGE ( 'NONE', *, *, #524, .T. ) ;
#402 = AXIS2_PLACEMENT_3D ( 'NONE', #629, #694, #387 ) ;
#403 = ADVANCED_FACE ( 'NONE', ( #327, #758 ), #323, .F. ) ;
#404 = DIRECTION ( 'NONE',  ( -0.000000000000000000, -0.000000000000000000, -1.000000000000000000 ) ) ;
#405 = DIRECTION ( 'NONE',  ( 0.000000000000000000, 0.000000000000000000, -1.000000000000000000 ) ) ;
#406 = VERTEX_POINT ( 'NONE', #512 ) ;
#407 = UNCERTAINTY_MEASURE_WITH_UNIT (LENGTH_MEASURE( 1.000000000000000082E-05 ), #265, 'distance_accuracy_value', 'NONE');
#408 = DIRECTION ( 'NONE',  ( 1.000000000000000000, -0.000000000000000000, -1.011922027653137513E-16 ) ) ;
#409 = CYLINDRICAL_SURFACE ( 'NONE', #494, 6.499999999999999112 ) ;
#410 = ORIENTED_EDGE ( 'NONE', *, *, #330, .F. ) ;
#411 = CARTESIAN_POINT ( 'NONE',  ( -45.00000000000000000, 0.000000000000000000, -3.299999999999990496 ) ) ;
#412 = EDGE_CURVE ( 'NONE', #624, #695, #7, .T. ) ;
#413 = LINE ( 'NONE', #657, #92 ) ;
#414 = VERTEX_POINT ( 'NONE', #264 ) ;
#415 = AXIS2_PLACEMENT_3D ( 'NONE', #183, #679, #542 ) ;
#416 =( GEOMETRIC_REPRESENTATION_CONTEXT ( 3 ) GLOBAL_UNCERTAINTY_ASSIGNED_CONTEXT ( ( #9 ) ) GLOBAL_UNIT_ASSIGNED_CONTEXT ( ( #471, #709, #154 ) ) REPRESENTATION_CONTEXT ( 'NONE', 'WORKASPACE' ) );
#417 = FACE_BOUND ( 'NONE', #165, .T. ) ;
#418 = CARTESIAN_POINT ( 'NONE',  ( -45.00000000000000000, 15.00000000000000000, 6.938893903907228378E-15 ) ) ;
#419 = EDGE_LOOP ( 'NONE', ( #256, #729 ) ) ;
#420 = CYLINDRICAL_SURFACE ( 'NONE', #610, 3.299999999999997158 ) ;
#421 = DIRECTION ( 'NONE',  ( -0.000000000000000000, 1.000000000000000000, -0.000000000000000000 ) ) ;
#422 = VERTEX_POINT ( 'NONE', #331 ) ;
#423 = PLANE ( 'NONE',  #521 ) ;
#424 = DIRECTION ( 'NONE',  ( 0.000000000000000000, 0.000000000000000000, 1.000000000000000000 ) ) ;
#425 = EDGE_LOOP ( 'NONE', ( #99, #279, #313, #362 ) ) ;
#426 = AXIS2_PLACEMENT_3D ( 'NONE', #480, #608, #298 ) ;
#427 = ADVANCED_FACE ( 'NONE', ( #74 ), #760, .F. ) ;
#428 = AXIS2_PLACEMENT_3D ( 'NONE', #290, #395, #405 ) ;
#429 = DIRECTION ( 'NONE',  ( 0.000000000000000000, 0.000000000000000000, 1.000000000000000000 ) ) ;
#430 = FACE_OUTER_BOUND ( 'NONE', #203, .T. ) ;
#431 = ORIENTED_EDGE ( 'NONE', *, *, #558, .T. ) ;
#432 = CARTESIAN_POINT ( 'NONE',  ( 57.99999999999997868, 0.000000000000000000, 10.49999999999999645 ) ) ;
#433 = DIRECTION ( 'NONE',  ( 0.000000000000000000, 0.000000000000000000, 1.000000000000000000 ) ) ;
#434 = ORIENTED_EDGE ( 'NONE', *, *, #86, .T. ) ;
#435 = SURFACE_STYLE_USAGE ( .BOTH. , #191 ) ;
#436 = CARTESIAN_POINT ( 'NONE',  ( 45.00000000000000000, 8.599999999999999645, -4.082927288418950733E-15 ) ) ;
#437 = ADVANCED_FACE ( 'NONE', ( #765 ), #503, .F. ) ;
#438 = VERTEX_POINT ( 'NONE', #411 ) ;
#439 = FACE_BOUND ( 'NONE', #470, .T. ) ;
#440 = DIRECTION ( 'NONE',  ( -0.000000000000000000, -1.000000000000000000, -0.000000000000000000 ) ) ;
#441 = VECTOR ( 'NONE', #408, 1000.000000000000000 ) ;
#442 = ORIENTED_EDGE ( 'NONE', *, *, #746, .T. ) ;
#443 = ORIENTED_EDGE ( 'NONE', *, *, #318, .F. ) ;
#444 = DIRECTION ( 'NONE',  ( -0.000000000000000000, 1.000000000000000000, -0.000000000000000000 ) ) ;
#445 = CARTESIAN_POINT ( 'NONE',  ( 57.99999999999997868, 15.00000000000000000, -10.50000000000000178 ) ) ;
#446 = ORIENTED_EDGE ( 'NONE', *, *, #396, .T. ) ;
#447 = EDGE_CURVE ( 'NONE', #336, #230, #587, .T. ) ;
#448 = ORIENTED_EDGE ( 'NONE', *, *, #412, .T. ) ;
#449 = EDGE_CURVE ( 'NONE', #665, #162, #43, .T. ) ;
#450 = FACE_OUTER_BOUND ( 'NONE', #651, .T. ) ;
#451 = CARTESIAN_POINT ( 'NONE',  ( -27.00000000000000000, 15.00000000000000000, 0.000000000000000000 ) ) ;
#452 = COLOUR_RGB ( '',0.8980392156862745390, 0.9176470588235293713, 0.9294117647058823817 ) ;
#453 = VECTOR ( 'NONE', #639, 1000.000000000000000 ) ;
#454 = EDGE_LOOP ( 'NONE', ( #553, #2 ) ) ;
#455 = CLOSED_SHELL ( 'NONE', ( #100, #678, #283, #618, #642, #427, #472, #652, #196, #686, #602, #769, #37, #513, #481, #91, #437, #214, #403, #488, #518, #112, #548, #499 ) ) ;
#456 = EDGE_CURVE ( 'NONE', #325, #291, #755, .T. ) ;
#457 = CYLINDRICAL_SURFACE ( 'NONE', #153, 5.499999999999998224 ) ;
#458 = ORIENTED_EDGE ( 'NONE', *, *, #558, .F. ) ;
#459 =( NAMED_UNIT ( * ) SI_UNIT ( $, .STERADIAN. ) SOLID_ANGLE_UNIT ( ) );
#460 = FACE_OUTER_BOUND ( 'NONE', #425, .T. ) ;
#461 = DIRECTION ( 'NONE',  ( 0.000000000000000000, -0.000000000000000000, -1.000000000000000000 ) ) ;
#462 = EDGE_CURVE ( 'NONE', #414, #741, #364, .T. ) ;
#463 = ORIENTED_EDGE ( 'NONE', *, *, #86, .F. ) ;
#464 = DIRECTION ( 'NONE',  ( 0.000000000000000000, -1.000000000000000000, 0.000000000000000000 ) ) ;
#465 = CIRCLE ( 'NONE', #90, 2.000000000000000000 ) ;
#466 = AXIS2_PLACEMENT_3D ( 'NONE', #64, #307, #491 ) ;
#467 = EDGE_LOOP ( 'NONE', ( #606, #320 ) ) ;
#468 = DIRECTION ( 'NONE',  ( 0.000000000000000000, 0.000000000000000000, -1.000000000000000000 ) ) ;
#469 = DIRECTION ( 'NONE',  ( 1.000000000000000000, -0.000000000000000000, -1.011922027653137513E-16 ) ) ;
#470 = EDGE_LOOP ( 'NONE', ( #349, #124 ) ) ;
#471 =( LENGTH_UNIT ( ) NAMED_UNIT ( * ) SI_UNIT ( .MILLI., .METRE. ) );
#472 = ADVANCED_FACE ( 'NONE', ( #643 ), #36, .F. ) ;
#473 = DIRECTION ( 'NONE',  ( 0.000000000000000000, -1.000000000000000000, 0.000000000000000000 ) ) ;
#474 = LINE ( 'NONE', #95, #297 ) ;
#475 = ORIENTED_EDGE ( 'NONE', *, *, #253, .T. ) ;
#476 = CARTESIAN_POINT ( 'NONE',  ( -45.00000000000000000, 8.599999999999999645, -6.499999999999992006 ) ) ;
#477 = CARTESIAN_POINT ( 'NONE',  ( 45.00000000000000000, 15.00000000000000000, -4.082927288418950733E-15 ) ) ;
#478 = ORIENTED_EDGE ( 'NONE', *, *, #783, .T. ) ;
#479 = VECTOR ( 'NONE', #482, 1000.000000000000000 ) ;
#480 = CARTESIAN_POINT ( 'NONE',  ( 27.00000000000000000, 0.000000000000000000, 6.505213034913026604E-15 ) ) ;
#481 = ADVANCED_FACE ( 'NONE', ( #225 ), #534, .F. ) ;
#482 = DIRECTION ( 'NONE',  ( -0.000000000000000000, 1.000000000000000000, -0.000000000000000000 ) ) ;
#483 = ORIENTED_EDGE ( 'NONE', *, *, #633, .F. ) ;
#484 = PRODUCT ( '202500614-10205P01', '202500614-10205P01', '', ( #146 ) ) ;
#485 = CARTESIAN_POINT ( 'NONE',  ( 45.00000000000000000, 15.00000000000000000, -6.500000000000003553 ) ) ;
#486 = PLANE ( 'NONE',  #466 ) ;
#487 = EDGE_LOOP ( 'NONE', ( #270, #539, #294, #321 ) ) ;
#488 = ADVANCED_FACE ( 'NONE', ( #101 ), #339, .F. ) ;
#489 = COLOUR_RGB ( '',0.8980392156862745390, 0.9176470588235293713, 0.9294117647058823817 ) ;
#490 = CARTESIAN_POINT ( 'NONE',  ( 57.99999999999997868, 15.00000000000000000, 10.49999999999999645 ) ) ;
#491 = DIRECTION ( 'NONE',  ( 0.000000000000000000, 0.000000000000000000, 1.000000000000000000 ) ) ;
#492 = VERTEX_POINT ( 'NONE', #719 ) ;
#493 = AXIS2_PLACEMENT_3D ( 'NONE', #40, #473, #281 ) ;
#494 = AXIS2_PLACEMENT_3D ( 'NONE', #45, #34, #98 ) ;
#495 = CARTESIAN_POINT ( 'NONE',  ( -27.00000000000000000, 15.00000000000000000, -5.499999999999996447 ) ) ;
#496 = FACE_OUTER_BOUND ( 'NONE', #193, .T. ) ;
#497 = VERTEX_POINT ( 'NONE', #347 ) ;
#498 = CARTESIAN_POINT ( 'NONE',  ( -45.00000000000000000, 8.599999999999999645, 6.938893903907228378E-15 ) ) ;
#499 = ADVANCED_FACE ( 'NONE', ( #710 ), #221, .T. ) ;
#500 = DIRECTION ( 'NONE',  ( 0.000000000000000000, 0.000000000000000000, 1.000000000000000000 ) ) ;
#501 = ORIENTED_EDGE ( 'NONE', *, *, #302, .F. ) ;
#502 = CARTESIAN_POINT ( 'NONE',  ( -45.00000000000000000, 0.000000000000000000, 3.300000000000004263 ) ) ;
#503 = CYLINDRICAL_SURFACE ( 'NONE', #32, 6.499999999999999112 ) ;
#504 = CARTESIAN_POINT ( 'NONE',  ( 45.00000000000000000, 0.000000000000000000, -3.300000000000001155 ) ) ;
#505 = VECTOR ( 'NONE', #671, 1000.000000000000000 ) ;
#506 = CARTESIAN_POINT ( 'NONE',  ( 59.99999999999998579, 0.000000000000000000, -12.50000000000000178 ) ) ;
#507 = AXIS2_PLACEMENT_3D ( 'NONE', #66, #56, #433 ) ;
#508 = EDGE_LOOP ( 'NONE', ( #216, #772, #634, #205 ) ) ;
#509 = ORIENTED_EDGE ( 'NONE', *, *, #13, .T. ) ;
#510 = SURFACE_STYLE_FILL_AREA ( #82 ) ;
#511 = ADVANCED_BREP_SHAPE_REPRESENTATION ( '202500614-10205P01', ( #785, #72 ), #517 ) ;
#512 = CARTESIAN_POINT ( 'NONE',  ( -58.00000000000000711, 15.00000000000000000, 12.50000000000001066 ) ) ;
#513 = ADVANCED_FACE ( 'NONE', ( #333 ), #457, .F. ) ;
#514 = VERTEX_POINT ( 'NONE', #97 ) ;
#515 = DIRECTION ( 'NONE',  ( -0.000000000000000000, 1.000000000000000000, -0.000000000000000000 ) ) ;
#516 = CARTESIAN_POINT ( 'NONE',  ( -27.00000000000000000, 0.000000000000000000, 5.499999999999996447 ) ) ;
#517 =( GEOMETRIC_REPRESENTATION_CONTEXT ( 3 ) GLOBAL_UNCERTAINTY_ASSIGNED_CONTEXT ( ( #172 ) ) GLOBAL_UNIT_ASSIGNED_CONTEXT ( ( #622, #10, #459 ) ) REPRESENTATION_CONTEXT ( 'NONE', 'WORKASPACE' ) );
#518 = ADVANCED_FACE ( 'NONE', ( #228 ), #343, .T. ) ;
#519 = CARTESIAN_POINT ( 'NONE',  ( 0.000000000000000000, 0.000000000000000000, 0.000000000000000000 ) ) ;
#520 = CARTESIAN_POINT ( 'NONE',  ( -58.00000000000000711, 15.00000000000000000, 10.50000000000001066 ) ) ;
#521 = AXIS2_PLACEMENT_3D ( 'NONE', #784, #725, #173 ) ;
#522 = ORIENTED_EDGE ( 'NONE', *, *, #726, .F. ) ;
#523 = CYLINDRICAL_SURFACE ( 'NONE', #582, 2.000000000000000000 ) ;
#524 = EDGE_CURVE ( 'NONE', #422, #12, #637, .T. ) ;
#525 = CARTESIAN_POINT ( 'NONE',  ( -45.00000000000000000, 15.00000000000000000, 3.300000000000004263 ) ) ;
#526 = VERTEX_POINT ( 'NONE', #581 ) ;
#527 = CARTESIAN_POINT ( 'NONE',  ( 57.99999999999997868, 15.00000000000000000, 10.49999999999999645 ) ) ;
#528 = CARTESIAN_POINT ( 'NONE',  ( 59.99999999999998579, 15.00000000000000000, 12.49999999999999822 ) ) ;
#529 = ORIENTED_EDGE ( 'NONE', *, *, #127, .T. ) ;
#530 = CARTESIAN_POINT ( 'NONE',  ( 27.00000000000000000, 6.000769315822029754E-16, 6.505213034913026604E-15 ) ) ;
#531 = DIRECTION ( 'NONE',  ( 0.000000000000000000, -1.000000000000000000, 0.000000000000000000 ) ) ;
#532 = EDGE_LOOP ( 'NONE', ( #215, #309, #207, #509 ) ) ;
#533 = EDGE_CURVE ( 'NONE', #305, #238, #597, .T. ) ;
#534 = CYLINDRICAL_SURFACE ( 'NONE', #702, 3.299999999999997158 ) ;
#535 = LINE ( 'NONE', #528, #132 ) ;
#536 = VERTEX_POINT ( 'NONE', #28 ) ;
#537 = FACE_OUTER_BOUND ( 'NONE', #655, .T. ) ;
#538 = DIRECTION ( 'NONE',  ( 0.000000000000000000, 0.000000000000000000, -1.000000000000000000 ) ) ;
#539 = ORIENTED_EDGE ( 'NONE', *, *, #149, .T. ) ;
#540 = EDGE_CURVE ( 'NONE', #741, #414, #700, .T. ) ;
#541 = DIRECTION ( 'NONE',  ( 0.000000000000000000, -1.000000000000000000, 0.000000000000000000 ) ) ;
#542 = DIRECTION ( 'NONE',  ( 0.000000000000000000, 0.000000000000000000, 1.000000000000000000 ) ) ;
#543 = AXIS2_PLACEMENT_3D ( 'NONE', #701, #693, #636 ) ;
#544 = ORIENTED_EDGE ( 'NONE', *, *, #607, .F. ) ;
#545 = CIRCLE ( 'NONE', #198, 3.299999999999997158 ) ;
#546 = AXIS2_PLACEMENT_3D ( 'NONE', #685, #568, #251 ) ;
#547 = FACE_OUTER_BOUND ( 'NONE', #569, .T. ) ;
#548 = ADVANCED_FACE ( 'NONE', ( #460 ), #523, .T. ) ;
#549 = CARTESIAN_POINT ( 'NONE',  ( -27.00000000000000000, 0.000000000000000000, -5.499999999999996447 ) ) ;
#550 = ORIENTED_EDGE ( 'NONE', *, *, #356, .T. ) ;
#551 = CARTESIAN_POINT ( 'NONE',  ( -45.00000000000000000, 15.00000000000000000, 6.500000000000005329 ) ) ;
#552 = LINE ( 'NONE', #237, #583 ) ;
#553 = ORIENTED_EDGE ( 'NONE', *, *, #102, .F. ) ;
#554 = PLANE ( 'NONE',  #646 ) ;
#555 = DIRECTION ( 'NONE',  ( -0.000000000000000000, 1.000000000000000000, -0.000000000000000000 ) ) ;
#556 = EDGE_CURVE ( 'NONE', #536, #687, #210, .T. ) ;
#557 = ORIENTED_EDGE ( 'NONE', *, *, #462, .T. ) ;
#558 = EDGE_CURVE ( 'NONE', #368, #665, #662, .T. ) ;
#559 = AXIS2_PLACEMENT_3D ( 'NONE', #530, #163, #105 ) ;
#560 = VECTOR ( 'NONE', #189, 1000.000000000000000 ) ;
#561 = AXIS2_PLACEMENT_3D ( 'NONE', #378, #588, #345 ) ;
#562 = DIRECTION ( 'NONE',  ( 0.000000000000000000, 0.000000000000000000, -1.000000000000000000 ) ) ;
#563 = CARTESIAN_POINT ( 'NONE',  ( 57.99999999999997868, 0.000000000000000000, -12.50000000000000178 ) ) ;
#564 = ORIENTED_EDGE ( 'NONE', *, *, #607, .T. ) ;
#565 = CARTESIAN_POINT ( 'NONE',  ( 45.00000000000000000, 8.599999999999999645, -4.082927288418950733E-15 ) ) ;
#566 = CARTESIAN_POINT ( 'NONE',  ( -58.00000000000000711, 0.000000000000000000, 12.50000000000001066 ) ) ;
#567 = DIRECTION ( 'NONE',  ( 0.000000000000000000, 0.000000000000000000, -1.000000000000000000 ) ) ;
#568 = DIRECTION ( 'NONE',  ( -0.000000000000000000, 1.000000000000000000, -0.000000000000000000 ) ) ;
#569 = EDGE_LOOP ( 'NONE', ( #128, #96, #381, #442 ) ) ;
#570 = CIRCLE ( 'NONE', #224, 2.000000000000000000 ) ;
#571 = CARTESIAN_POINT ( 'NONE',  ( 57.99999999999997868, 15.00000000000000000, 12.49999999999999822 ) ) ;
#572 = CIRCLE ( 'NONE', #688, 6.499999999999999112 ) ;
#573 = DIRECTION ( 'NONE',  ( -0.000000000000000000, 1.000000000000000000, -0.000000000000000000 ) ) ;
#574 = ORIENTED_EDGE ( 'NONE', *, *, #524, .F. ) ;
#575 = CARTESIAN_POINT ( 'NONE',  ( -41.70000000000000284, 8.599999999999999645, 6.938893903907228378E-15 ) ) ;
#576 = ORIENTED_EDGE ( 'NONE', *, *, #449, .T. ) ;
#577 = DIRECTION ( 'NONE',  ( -0.000000000000000000, 1.000000000000000000, -0.000000000000000000 ) ) ;
#578 = ORIENTED_EDGE ( 'NONE', *, *, #176, .T. ) ;
#579 = EDGE_CURVE ( 'NONE', #665, #514, #110, .T. ) ;
#580 = FILL_AREA_STYLE_COLOUR ( '', #489 ) ;
#581 = CARTESIAN_POINT ( 'NONE',  ( -60.00000000000001421, 0.000000000000000000, 10.50000000000001066 ) ) ;
#582 = AXIS2_PLACEMENT_3D ( 'NONE', #520, #767, #394 ) ;
#583 = VECTOR ( 'NONE', #170, 1000.000000000000000 ) ;
#584 = CIRCLE ( 'NONE', #58, 2.000000000000000000 ) ;
#585 = DIRECTION ( 'NONE',  ( 0.000000000000000000, -1.000000000000000000, 0.000000000000000000 ) ) ;
#586 = EDGE_LOOP ( 'NONE', ( #53, #768, #65, #478 ) ) ;
#587 = LINE ( 'NONE', #94, #441 ) ;
#588 = DIRECTION ( 'NONE',  ( -0.000000000000000000, 1.000000000000000000, -0.000000000000000000 ) ) ;
#589 = ORIENTED_EDGE ( 'NONE', *, *, #579, .T. ) ;
#590 = DIRECTION ( 'NONE',  ( -0.000000000000000000, 1.000000000000000000, -0.000000000000000000 ) ) ;
#591 = CARTESIAN_POINT ( 'NONE',  ( -60.00000000000001421, 15.00000000000000000, -10.49999999999998934 ) ) ;
#592 = PRESENTATION_LAYER_ASSIGNMENT (  '', '', ( #280 ) ) ;
#593 = ORIENTED_EDGE ( 'NONE', *, *, #24, .F. ) ;
#594 = SURFACE_STYLE_FILL_AREA ( #640 ) ;
#595 = DIRECTION ( 'NONE',  ( 0.000000000000000000, 0.000000000000000000, -1.000000000000000000 ) ) ;
#596 = CARTESIAN_POINT ( 'NONE',  ( 45.00000000000000000, 8.599999999999999645, -4.082927288418950733E-15 ) ) ;
#597 = CIRCLE ( 'NONE', #249, 2.000000000000000000 ) ;
#598 = AXIS2_PLACEMENT_3D ( 'NONE', #88, #717, #348 ) ;
#599 = ORIENTED_EDGE ( 'NONE', *, *, #699, .T. ) ;
#600 = DIRECTION ( 'NONE',  ( 1.156482317317871478E-16, -0.000000000000000000, 1.000000000000000000 ) ) ;
#601 = CARTESIAN_POINT ( 'NONE',  ( -27.00000000000000000, 0.000000000000000000, 0.000000000000000000 ) ) ;
#602 = ADVANCED_FACE ( 'NONE', ( #738, #114, #187, #417, #357 ), #423, .F. ) ;
#603 = ORIENTED_EDGE ( 'NONE', *, *, #344, .F. ) ;
#604 = CARTESIAN_POINT ( 'NONE',  ( 45.00000000000000000, 15.00000000000000000, -4.082927288418950733E-15 ) ) ;
#605 = CARTESIAN_POINT ( 'NONE',  ( -60.00000000000001421, 0.000000000000000000, -10.49999999999998934 ) ) ;
#606 = ORIENTED_EDGE ( 'NONE', *, *, #775, .T. ) ;
#607 = EDGE_CURVE ( 'NONE', #414, #275, #366, .T. ) ;
#608 = DIRECTION ( 'NONE',  ( -0.000000000000000000, -1.000000000000000000, -0.000000000000000000 ) ) ;
#609 = CARTESIAN_POINT ( 'NONE',  ( -58.00000000000000711, 0.000000000000000000, -12.49999999999998934 ) ) ;
#610 = AXIS2_PLACEMENT_3D ( 'NONE', #604, #681, #429 ) ;
#611 = EDGE_LOOP ( 'NONE', ( #782, #85, #389, #116 ) ) ;
#612 = CIRCLE ( 'NONE', #638, 6.499999999999999112 ) ;
#613 = AXIS2_PLACEMENT_3D ( 'NONE', #373, #361, #739 ) ;
#614 = LINE ( 'NONE', #485, #363 ) ;
#615 = LINE ( 'NONE', #119, #120 ) ;
#616 = VERTEX_POINT ( 'NONE', #60 ) ;
#617 = CARTESIAN_POINT ( 'NONE',  ( -45.00000000000000000, 15.00000000000000000, 6.938893903907228378E-15 ) ) ;
#618 = ADVANCED_FACE ( 'NONE', ( #673 ), #420, .F. ) ;
#619 = CYLINDRICAL_SURFACE ( 'NONE', #400, 3.299999999999997158 ) ;
#620 = EDGE_CURVE ( 'NONE', #536, #626, #181, .T. ) ;
#621 = ORIENTED_EDGE ( 'NONE', *, *, #314, .F. ) ;
#622 =( LENGTH_UNIT ( ) NAMED_UNIT ( * ) SI_UNIT ( .MILLI., .METRE. ) );
#623 = LINE ( 'NONE', #549, #560 ) ;
#624 = VERTEX_POINT ( 'NONE', #54 ) ;
#625 = AXIS2_PLACEMENT_3D ( 'NONE', #266, #440, #255 ) ;
#626 = VERTEX_POINT ( 'NONE', #551 ) ;
#627 = EDGE_CURVE ( 'NONE', #514, #230, #465, .T. ) ;
#628 = DIRECTION ( 'NONE',  ( -0.000000000000000000, 1.000000000000000000, -0.000000000000000000 ) ) ;
#629 = CARTESIAN_POINT ( 'NONE',  ( 45.00000000000000000, 15.00000000000000000, -4.082927288418950733E-15 ) ) ;
#630 = ORIENTED_EDGE ( 'NONE', *, *, #78, .T. ) ;
#631 = ORIENTED_EDGE ( 'NONE', *, *, #344, .T. ) ;
#632 = CARTESIAN_POINT ( 'NONE',  ( -45.00000000000000000, 8.599999999999999645, -3.299999999999990496 ) ) ;
#633 = EDGE_CURVE ( 'NONE', #262, #526, #670, .T. ) ;
#634 = ORIENTED_EDGE ( 'NONE', *, *, #726, .T. ) ;
#635 = AXIS2_PLACEMENT_3D ( 'NONE', #617, #306, #4 ) ;
#636 = DIRECTION ( 'NONE',  ( 0.000000000000000000, -0.000000000000000000, -1.000000000000000000 ) ) ;
#637 = CIRCLE ( 'NONE', #559, 5.500000000000001776 ) ;
#638 = AXIS2_PLACEMENT_3D ( 'NONE', #596, #38, #771 ) ;
#639 = DIRECTION ( 'NONE',  ( -0.000000000000000000, -1.000000000000000000, -0.000000000000000000 ) ) ;
#640 = FILL_AREA_STYLE ('',( #580 ) ) ;
#641 = EDGE_LOOP ( 'NONE', ( #136, #721, #564, #550 ) ) ;
#642 = ADVANCED_FACE ( 'NONE', ( #537 ), #789, .F. ) ;
#643 = FACE_OUTER_BOUND ( 'NONE', #586, .T. ) ;
#644 = CARTESIAN_POINT ( 'NONE',  ( 59.99999999999998579, 15.00000000000000000, -10.50000000000000178 ) ) ;
#645 = VERTEX_POINT ( 'NONE', #495 ) ;
#646 = AXIS2_PLACEMENT_3D ( 'NONE', #239, #794, #301 ) ;
#647 = CARTESIAN_POINT ( 'NONE',  ( 59.99999999999998579, 15.00000000000000000, -12.50000000000000178 ) ) ;
#648 = AXIS2_PLACEMENT_3D ( 'NONE', #147, #33, #87 ) ;
#649 = AXIS2_PLACEMENT_3D ( 'NONE', #436, #135, #697 ) ;
#650 = DIRECTION ( 'NONE',  ( -0.000000000000000000, -1.000000000000000000, -0.000000000000000000 ) ) ;
#651 = EDGE_LOOP ( 'NONE', ( #68, #375, #749, #15, #104, #754, #483, #753 ) ) ;
#652 = ADVANCED_FACE ( 'NONE', ( #547 ), #554, .F. ) ;
#653 = DIRECTION ( 'NONE',  ( 0.000000000000000000, 0.000000000000000000, 1.000000000000000000 ) ) ;
#654 = FACE_OUTER_BOUND ( 'NONE', #487, .T. ) ;
#655 = EDGE_LOOP ( 'NONE', ( #18, #599, #434, #121 ) ) ;
#656 = DIRECTION ( 'NONE',  ( -0.000000000000000000, 1.000000000000000000, -0.000000000000000000 ) ) ;
#657 = CARTESIAN_POINT ( 'NONE',  ( -58.00000000000000711, 15.00000000000000000, -12.49999999999998934 ) ) ;
#658 = VECTOR ( 'NONE', #386, 1000.000000000000000 ) ;
#659 = ORIENTED_EDGE ( 'NONE', *, *, #292, .T. ) ;
#660 = CARTESIAN_POINT ( 'NONE',  ( -60.00000000000001421, 15.00000000000000000, -12.49999999999998934 ) ) ;
#661 = CARTESIAN_POINT ( 'NONE',  ( 48.29999999999999716, 8.599999999999999645, -4.082927288418950733E-15 ) ) ;
#662 = CIRCLE ( 'NONE', #310, 2.000000000000000000 ) ;
#663 = AXIS2_PLACEMENT_3D ( 'NONE', #377, #573, #22 ) ;
#664 = VECTOR ( 'NONE', #293, 1000.000000000000000 ) ;
#665 = VERTEX_POINT ( 'NONE', #51 ) ;
#666 = DIRECTION ( 'NONE',  ( 0.000000000000000000, 0.000000000000000000, -1.000000000000000000 ) ) ;
#667 = CARTESIAN_POINT ( 'NONE',  ( 57.99999999999997868, 0.000000000000000000, 12.49999999999999822 ) ) ;
#668 = ORIENTED_EDGE ( 'NONE', *, *, #579, .F. ) ;
#669 = EDGE_CURVE ( 'NONE', #497, #185, #614, .T. ) ;
#670 = LINE ( 'NONE', #369, #55 ) ;
#671 = DIRECTION ( 'NONE',  ( -1.000000000000000000, 0.000000000000000000, 1.156482317317871478E-16 ) ) ;
#672 = EDGE_LOOP ( 'NONE', ( #698, #152 ) ) ;
#673 = FACE_OUTER_BOUND ( 'NONE', #46, .T. ) ;
#674 = LINE ( 'NONE', #123, #505 ) ;
#675 = VECTOR ( 'NONE', #322, 1000.000000000000000 ) ;
#676 = ORIENTED_EDGE ( 'NONE', *, *, #388, .T. ) ;
#677 = FACE_OUTER_BOUND ( 'NONE', #508, .T. ) ;
#678 = ADVANCED_FACE ( 'NONE', ( #677 ), #122, .F. ) ;
#679 = DIRECTION ( 'NONE',  ( -0.000000000000000000, 1.000000000000000000, -0.000000000000000000 ) ) ;
#680 = ORIENTED_EDGE ( 'NONE', *, *, #746, .F. ) ;
#681 = DIRECTION ( 'NONE',  ( -0.000000000000000000, 1.000000000000000000, -0.000000000000000000 ) ) ;
#682 = CARTESIAN_POINT ( 'NONE',  ( 59.99999999999998579, 15.00000000000000000, -10.50000000000000178 ) ) ;
#683 = ORIENTED_EDGE ( 'NONE', *, *, #176, .F. ) ;
#684 = LINE ( 'NONE', #763, #658 ) ;
#685 = CARTESIAN_POINT ( 'NONE',  ( -58.00000000000000711, 15.00000000000000000, -10.49999999999998934 ) ) ;
#686 = ADVANCED_FACE ( 'NONE', ( #247 ), #743, .F. ) ;
#687 = VERTEX_POINT ( 'NONE', #476 ) ;
#688 = AXIS2_PLACEMENT_3D ( 'NONE', #367, #421, #424 ) ;
#689 = CIRCLE ( 'NONE', #546, 2.000000000000000000 ) ;
#690 = LINE ( 'NONE', #506, #235 ) ;
#691 = EDGE_CURVE ( 'NONE', #262, #300, #570, .T. ) ;
#692 = EDGE_LOOP ( 'NONE', ( #593, #267, #227, #621 ) ) ;
#693 = DIRECTION ( 'NONE',  ( 0.000000000000000000, -1.000000000000000000, 0.000000000000000000 ) ) ;
#694 = DIRECTION ( 'NONE',  ( -0.000000000000000000, 1.000000000000000000, -0.000000000000000000 ) ) ;
#695 = VERTEX_POINT ( 'NONE', #632 ) ;
#696 = MECHANICAL_DESIGN_GEOMETRIC_PRESENTATION_REPRESENTATION (  '', ( #385 ), #764 ) ;
#697 = DIRECTION ( 'NONE',  ( 0.000000000000000000, 0.000000000000000000, 1.000000000000000000 ) ) ;
#698 = ORIENTED_EDGE ( 'NONE', *, *, #356, .F. ) ;
#699 = EDGE_CURVE ( 'NONE', #158, #12, #206, .T. ) ;
#700 = CIRCLE ( 'NONE', #350, 3.299999999999997158 ) ;
#701 = CARTESIAN_POINT ( 'NONE',  ( 0.000000000000000000, 0.000000000000000000, 0.000000000000000000 ) ) ;
#702 = AXIS2_PLACEMENT_3D ( 'NONE', #160, #590, #653 ) ;
#703 = CIRCLE ( 'NONE', #598, 5.500000000000001776 ) ;
#704 = CARTESIAN_POINT ( 'NONE',  ( 45.00000000000000000, 15.00000000000000000, -3.300000000000001155 ) ) ;
#705 = EDGE_LOOP ( 'NONE', ( #30, #109, #250, #401 ) ) ;
#706 = SURFACE_SIDE_STYLE ('',( #594 ) ) ;
#707 = CARTESIAN_POINT ( 'NONE',  ( 57.99999999999997868, 0.000000000000000000, -10.50000000000000178 ) ) ;
#708 = FACE_OUTER_BOUND ( 'NONE', #467, .T. ) ;
#709 =( NAMED_UNIT ( * ) PLANE_ANGLE_UNIT ( ) SI_UNIT ( $, .RADIAN. ) );
#710 = FACE_OUTER_BOUND ( 'NONE', #140, .T. ) ;
#711 = CARTESIAN_POINT ( 'NONE',  ( -58.00000000000000711, 0.000000000000000000, 10.50000000000001066 ) ) ;
#712 = ORIENTED_EDGE ( 'NONE', *, *, #259, .T. ) ;
#713 = SURFACE_STYLE_USAGE ( .BOTH. , #706 ) ;
#714 = DIRECTION ( 'NONE',  ( 0.000000000000000000, 0.000000000000000000, -1.000000000000000000 ) ) ;
#715 = AXIS2_PLACEMENT_3D ( 'NONE', #277, #656, #773 ) ;
#716 = APPLICATION_CONTEXT ( 'automotive_design' ) ;
#717 = DIRECTION ( 'NONE',  ( -0.000000000000000000, -1.000000000000000000, -0.000000000000000000 ) ) ;
#718 = EDGE_LOOP ( 'NONE', ( #574, #463 ) ) ;
#719 = CARTESIAN_POINT ( 'NONE',  ( -58.00000000000000711, 15.00000000000000000, -12.49999999999998934 ) ) ;
#720 = PLANE ( 'NONE',  #365 ) ;
#721 = ORIENTED_EDGE ( 'NONE', *, *, #540, .T. ) ;
#722 = CARTESIAN_POINT ( 'NONE',  ( 27.00000000000000000, 0.000000000000000000, 6.505213034913026604E-15 ) ) ;
#723 = CARTESIAN_POINT ( 'NONE',  ( -58.00000000000000711, 15.00000000000000000, 10.50000000000001066 ) ) ;
#724 = ORIENTED_EDGE ( 'NONE', *, *, #627, .F. ) ;
#725 = DIRECTION ( 'NONE',  ( 0.000000000000000000, -1.000000000000000000, 0.000000000000000000 ) ) ;
#726 = EDGE_CURVE ( 'NONE', #695, #624, #324, .T. ) ;
#727 = CARTESIAN_POINT ( 'NONE',  ( -27.00000000000000000, 6.000769315822029754E-16, -5.499999999999998224 ) ) ;
#728 = CIRCLE ( 'NONE', #70, 6.499999999999999112 ) ;
#729 = ORIENTED_EDGE ( 'NONE', *, *, #304, .F. ) ;
#730 = DIRECTION ( 'NONE',  ( -0.000000000000000000, 1.000000000000000000, -0.000000000000000000 ) ) ;
#731 = CARTESIAN_POINT ( 'NONE',  ( 59.99999999999998579, 0.000000000000000000, -10.50000000000000178 ) ) ;
#732 = ORIENTED_EDGE ( 'NONE', *, *, #412, .F. ) ;
#733 = PRODUCT_DEFINITION_SHAPE ( 'NONE', 'NONE',  #143 ) ;
#734 = CARTESIAN_POINT ( 'NONE',  ( -45.00000000000000000, 15.00000000000000000, 6.500000000000005329 ) ) ;
#735 = LINE ( 'NONE', #682, #335 ) ;
#736 = EDGE_LOOP ( 'NONE', ( #410, #284, #776, #683 ) ) ;
#737 = PRESENTATION_LAYER_ASSIGNMENT (  '', '', ( #385 ) ) ;
#738 = FACE_BOUND ( 'NONE', #419, .T. ) ;
#739 = DIRECTION ( 'NONE',  ( 0.000000000000000000, 0.000000000000000000, -1.000000000000000000 ) ) ;
#740 = VECTOR ( 'NONE', #515, 1000.000000000000000 ) ;
#741 = VERTEX_POINT ( 'NONE', #504 ) ;
#742 = CIRCLE ( 'NONE', #44, 2.000000000000000000 ) ;
#743 = PLANE ( 'NONE',  #19 ) ;
#744 = CARTESIAN_POINT ( 'NONE',  ( -27.00000000000000000, 15.00000000000000000, 5.499999999999996447 ) ) ;
#745 = ORIENTED_EDGE ( 'NONE', *, *, #762, .T. ) ;
#746 = EDGE_CURVE ( 'NONE', #230, #368, #194, .T. ) ;
#747 =( NAMED_UNIT ( * ) PLANE_ANGLE_UNIT ( ) SI_UNIT ( $, .RADIAN. ) );
#748 = CARTESIAN_POINT ( 'NONE',  ( -27.00000000000000000, 6.000769315822029754E-16, 5.499999999999997335 ) ) ;
#749 = ORIENTED_EDGE ( 'NONE', *, *, #374, .F. ) ;
#750 = DIRECTION ( 'NONE',  ( -0.000000000000000000, 1.000000000000000000, -0.000000000000000000 ) ) ;
#751 = CARTESIAN_POINT ( 'NONE',  ( 45.00000000000000000, 15.00000000000000000, -4.082927288418950733E-15 ) ) ;
#752 = EDGE_CURVE ( 'NONE', #288, #645, #295, .T. ) ;
#753 = ORIENTED_EDGE ( 'NONE', *, *, #691, .T. ) ;
#754 = ORIENTED_EDGE ( 'NONE', *, *, #117, .T. ) ;
#755 = CIRCLE ( 'NONE', #648, 5.499999999999998224 ) ;
#756 = VECTOR ( 'NONE', #111, 1000.000000000000000 ) ;
#757 = DIRECTION ( 'NONE',  ( 0.000000000000000000, -1.000000000000000000, 0.000000000000000000 ) ) ;
#758 = FACE_OUTER_BOUND ( 'NONE', #200, .T. ) ;
#759 = ORIENTED_EDGE ( 'NONE', *, *, #338, .T. ) ;
#760 = CYLINDRICAL_SURFACE ( 'NONE', #625, 5.499999999999996447 ) ;
#761 = ORIENTED_EDGE ( 'NONE', *, *, #71, .F. ) ;
#762 = EDGE_CURVE ( 'NONE', #158, #26, #788, .T. ) ;
#763 = CARTESIAN_POINT ( 'NONE',  ( -60.00000000000001421, 15.00000000000000000, 10.50000000000001066 ) ) ;
#764 =( GEOMETRIC_REPRESENTATION_CONTEXT ( 3 ) GLOBAL_UNCERTAINTY_ASSIGNED_CONTEXT ( ( #407 ) ) GLOBAL_UNIT_ASSIGNED_CONTEXT ( ( #265, #747, #372 ) ) REPRESENTATION_CONTEXT ( 'NONE', 'WORKASPACE' ) );
#765 = FACE_OUTER_BOUND ( 'NONE', #611, .T. ) ;
#766 = VECTOR ( 'NONE', #541, 1000.000000000000000 ) ;
#767 = DIRECTION ( 'NONE',  ( 0.000000000000000000, -1.000000000000000000, 0.000000000000000000 ) ) ;
#768 = ORIENTED_EDGE ( 'NONE', *, *, #71, .T. ) ;
#769 = ADVANCED_FACE ( 'NONE', ( #142, #439, #382, #257, #450 ), #201, .T. ) ;
#770 = CARTESIAN_POINT ( 'NONE',  ( -45.00000000000000000, 8.599999999999999645, 6.938893903907228378E-15 ) ) ;
#771 = DIRECTION ( 'NONE',  ( 0.000000000000000000, 0.000000000000000000, 1.000000000000000000 ) ) ;
#772 = ORIENTED_EDGE ( 'NONE', *, *, #795, .T. ) ;
#773 = DIRECTION ( 'NONE',  ( 0.000000000000000000, 0.000000000000000000, 1.000000000000000000 ) ) ;
#774 = CYLINDRICAL_SURFACE ( 'NONE', #212, 5.499999999999996447 ) ;
#775 = EDGE_CURVE ( 'NONE', #39, #497, #3, .T. ) ;
#776 = ORIENTED_EDGE ( 'NONE', *, *, #533, .F. ) ;
#777 = DIRECTION ( 'NONE',  ( 0.000000000000000000, -1.000000000000000000, 0.000000000000000000 ) ) ;
#778 = CARTESIAN_POINT ( 'NONE',  ( -45.00000000000000000, 0.000000000000000000, 6.938893903907228378E-15 ) ) ;
#779 = ORIENTED_EDGE ( 'NONE', *, *, #268, .F. ) ;
#780 = DIRECTION ( 'NONE',  ( 0.000000000000000000, 0.000000000000000000, -1.000000000000000000 ) ) ;
#781 = DIRECTION ( 'NONE',  ( 0.000000000000000000, -1.000000000000000000, 0.000000000000000000 ) ) ;
#782 = ORIENTED_EDGE ( 'NONE', *, *, #669, .F. ) ;
#783 = EDGE_CURVE ( 'NONE', #526, #393, #684, .T. ) ;
#784 = CARTESIAN_POINT ( 'NONE',  ( 0.000000000000000000, 15.00000000000000000, 0.000000000000000000 ) ) ;
#785 = MANIFOLD_SOLID_BREP ( 'Verrundung1', #455 ) ;
#786 = CARTESIAN_POINT ( 'NONE',  ( 27.00000000000000000, 15.00000000000000000, 5.500000000000005329 ) ) ;
#787 = VERTEX_POINT ( 'NONE', #502 ) ;
#788 = CIRCLE ( 'NONE', #89, 5.499999999999998224 ) ;
#789 = CYLINDRICAL_SURFACE ( 'NONE', #426, 5.499999999999998224 ) ;
#790 = CARTESIAN_POINT ( 'NONE',  ( 27.00000000000000000, 0.000000000000000000, -5.499999999999991118 ) ) ;
#791 = AXIS2_PLACEMENT_3D ( 'NONE', #778, #585, #151 ) ;
#792 = CIRCLE ( 'NONE', #402, 6.499999999999999112 ) ;
#793 = ORIENTED_EDGE ( 'NONE', *, *, #31, .T. ) ;
#794 = DIRECTION ( 'NONE',  ( -1.011922027653137513E-16, 0.000000000000000000, -1.000000000000000000 ) ) ;
#795 = EDGE_CURVE ( 'NONE', #438, #695, #208, .T. ) ;
#796 = DIRECTION ( 'NONE',  ( 0.000000000000000000, -1.000000000000000000, 0.000000000000000000 ) ) ;
#797 = EDGE_LOOP ( 'NONE', ( #501, #443 ) ) ;
#798 = DIRECTION ( 'NONE',  ( -0.000000000000000000, 1.000000000000000000, -0.000000000000000000 ) ) ;
ENDSEC;
END-ISO-10303-21;
