ISO-10303-21;
HEADER;
FILE_DESCRIPTION (( 'STEP AP203' ),
    '1' );
FILE_NAME ('202500145_01_Frame01Assembly_plate02_V1.0.STEP',
    '2025-06-26T13:03:10',
    ( '' ),
    ( '' ),
    'SwSTEP 2.0',
    'SolidWorks 2021',
    '' );
FILE_SCHEMA (( 'CONFIG_CONTROL_DESIGN' ));
ENDSEC;

DATA;
#1 = ORIENTED_EDGE ( 'NONE', *, *, #749, .T. ) ;
#2 = DIRECTION ( 'NONE',  ( 0.000000000000000000, -1.000000000000000000, 0.000000000000000000 ) ) ;
#3 = ADVANCED_FACE ( 'NONE', ( #885 ), #113, .F. ) ;
#4 = VERTEX_POINT ( 'NONE', #1056 ) ;
#5 = CARTESIAN_POINT ( 'NONE',  ( -90.00000000000000000, 0.000000000000000000, 79.75000000000009948 ) ) ;
#6 = DIRECTION ( 'NONE',  ( -0.000000000000000000, 1.000000000000000000, -0.000000000000000000 ) ) ;
#7 = PERSON_AND_ORGANIZATION_ROLE ( 'classification_officer' ) ;
#8 = DIRECTION ( 'NONE',  ( 0.000000000000000000, 0.000000000000000000, -1.000000000000000000 ) ) ;
#9 = EDGE_CURVE ( 'NONE', #895, #866, #704, .T. ) ;
#10 = VERTEX_POINT ( 'NONE', #897 ) ;
#11 = CARTESIAN_POINT ( 'NONE',  ( -83.00000000000000000, 3.000000000000000000, 111.0000000000000995 ) ) ;
#12 = CYLINDRICAL_SURFACE ( 'NONE', #784, 3.000000000000002665 ) ;
#13 = VERTEX_POINT ( 'NONE', #1150 ) ;
#14 = COORDINATED_UNIVERSAL_TIME_OFFSET ( 1, 0, .AHEAD. ) ;
#15 = AXIS2_PLACEMENT_3D ( 'NONE', #878, #699, #786 ) ;
#16 = DIRECTION ( 'NONE',  ( -0.000000000000000000, 1.000000000000000000, -0.000000000000000000 ) ) ;
#17 = AXIS2_PLACEMENT_3D ( 'NONE', #716, #141, #168 ) ;
#18 = ORIENTED_EDGE ( 'NONE', *, *, #1101, .T. ) ;
#19 = DIRECTION ( 'NONE',  ( 0.000000000000000000, 0.000000000000000000, -1.000000000000000000 ) ) ;
#20 = CARTESIAN_POINT ( 'NONE',  ( 100.0000000000000000, 3.000000000000000000, 206.5000000000001137 ) ) ;
#21 = CC_DESIGN_DATE_AND_TIME_ASSIGNMENT ( #767, #966, ( #35 ) ) ;
#22 = ORIENTED_EDGE ( 'NONE', *, *, #994, .T. ) ;
#23 = DIRECTION ( 'NONE',  ( 0.000000000000000000, 0.000000000000000000, -1.000000000000000000 ) ) ;
#24 = ORIENTED_EDGE ( 'NONE', *, *, #204, .F. ) ;
#25 = CARTESIAN_POINT ( 'NONE',  ( 81.00000000000000000, 3.000000000000000000, -184.4999999999998579 ) ) ;
#26 = DIRECTION ( 'NONE',  ( 0.000000000000000000, -1.000000000000000000, 0.000000000000000000 ) ) ;
#27 = ADVANCED_FACE ( 'NONE', ( #203 ), #1078, .F. ) ;
#28 = CYLINDRICAL_SURFACE ( 'NONE', #1222, 3.299999999999997158 ) ;
#29 = EDGE_LOOP ( 'NONE', ( #791, #648, #753, #283 ) ) ;
#30 = FACE_OUTER_BOUND ( 'NONE', #237, .T. ) ;
#31 = CARTESIAN_POINT ( 'NONE',  ( -13.99999999999999822, 0.000000000000000000, 79.00000000000009948 ) ) ;
#32 = EDGE_LOOP ( 'NONE', ( #215, #118, #420, #484 ) ) ;
#33 = EDGE_CURVE ( 'NONE', #468, #903, #223, .T. ) ;
#34 = DIRECTION ( 'NONE',  ( -0.000000000000000000, 1.000000000000000000, -0.000000000000000000 ) ) ;
#35 = PRODUCT_DEFINITION ( 'UNKNOWN', '', #42, #781 ) ;
#36 = AXIS2_PLACEMENT_3D ( 'NONE', #290, #6, #405 ) ;
#37 = ORIENTED_EDGE ( 'NONE', *, *, #104, .F. ) ;
#38 = DIRECTION ( 'NONE',  ( 1.000000000000000000, 0.000000000000000000, 0.000000000000000000 ) ) ;
#39 = AXIS2_PLACEMENT_3D ( 'NONE', #469, #362, #635 ) ;
#40 = AXIS2_PLACEMENT_3D ( 'NONE', #1006, #722, #1187 ) ;
#41 = FACE_OUTER_BOUND ( 'NONE', #159, .T. ) ;
#42 = PRODUCT_DEFINITION_FORMATION_WITH_SPECIFIED_SOURCE ( 'ANY', '', #759, .NOT_KNOWN. ) ;
#43 = ORIENTED_EDGE ( 'NONE', *, *, #489, .T. ) ;
#44 = DIRECTION ( 'NONE',  ( 0.000000000000000000, 0.000000000000000000, 1.000000000000000000 ) ) ;
#45 = VERTEX_POINT ( 'NONE', #305 ) ;
#46 = EDGE_CURVE ( 'NONE', #817, #294, #498, .T. ) ;
#47 = CARTESIAN_POINT ( 'NONE',  ( 81.00000000000000000, 3.000000000000000000, 187.8000000000001251 ) ) ;
#48 = DIRECTION ( 'NONE',  ( 0.000000000000000000, -1.000000000000000000, 0.000000000000000000 ) ) ;
#49 = EDGE_LOOP ( 'NONE', ( #755, #73, #968, #392, #812, #1063, #1170, #825 ) ) ;
#50 = DIRECTION ( 'NONE',  ( -0.000000000000000000, 1.000000000000000000, -0.000000000000000000 ) ) ;
#51 = ADVANCED_FACE ( 'NONE', ( #585 ), #12, .F. ) ;
#52 = CARTESIAN_POINT ( 'NONE',  ( 39.00000000000000000, 0.000000000000000000, 181.2000000000001307 ) ) ;
#53 = PERSON_AND_ORGANIZATION ( #938, #261 ) ;
#54 = CARTESIAN_POINT ( 'NONE',  ( -90.00000000000000000, 3.000000000000000000, 79.75000000000009948 ) ) ;
#55 = ORIENTED_EDGE ( 'NONE', *, *, #1156, .T. ) ;
#56 = DIRECTION ( 'NONE',  ( 0.000000000000000000, 0.000000000000000000, -1.000000000000000000 ) ) ;
#57 = CIRCLE ( 'NONE', #298, 2.250000000000001776 ) ;
#58 = AXIS2_PLACEMENT_3D ( 'NONE', #190, #396, #483 ) ;
#59 = EDGE_CURVE ( 'NONE', #903, #1134, #336, .T. ) ;
#60 = CARTESIAN_POINT ( 'NONE',  ( -100.0000000000000000, 3.000000000000000000, 209.5000000000001137 ) ) ;
#61 = VERTEX_POINT ( 'NONE', #101 ) ;
#62 = DIRECTION ( 'NONE',  ( 0.000000000000000000, 0.000000000000000000, -1.000000000000000000 ) ) ;
#63 = CARTESIAN_POINT ( 'NONE',  ( -6.999999999999992006, 3.000000000000000000, 111.7500000000000853 ) ) ;
#64 = ADVANCED_FACE ( 'NONE', ( #399 ), #687, .F. ) ;
#65 = CARTESIAN_POINT ( 'NONE',  ( 38.99999999999995737, 3.000000000000000000, -187.7999999999998977 ) ) ;
#66 = ORIENTED_EDGE ( 'NONE', *, *, #334, .F. ) ;
#67 = DIRECTION ( 'NONE',  ( 0.000000000000000000, 0.000000000000000000, 1.000000000000000000 ) ) ;
#68 = DIRECTION ( 'NONE',  ( 0.000000000000000000, 0.000000000000000000, 1.000000000000000000 ) ) ;
#69 = ORIENTED_EDGE ( 'NONE', *, *, #749, .F. ) ;
#70 = DIRECTION ( 'NONE',  ( 0.000000000000000000, 0.000000000000000000, 1.000000000000000000 ) ) ;
#71 = CARTESIAN_POINT ( 'NONE',  ( 97.00000000000000000, 0.000000000000000000, -206.4999999999998863 ) ) ;
#72 = CARTESIAN_POINT ( 'NONE',  ( -80.00000000000000000, 3.000000000000000000, 108.0000000000000995 ) ) ;
#73 = ORIENTED_EDGE ( 'NONE', *, *, #443, .T. ) ;
#74 = AXIS2_PLACEMENT_3D ( 'NONE', #72, #462, #561 ) ;
#75 = AXIS2_PLACEMENT_3D ( 'NONE', #1161, #205, #501 ) ;
#76 = DIRECTION ( 'NONE',  ( 0.000000000000000000, 0.000000000000000000, -1.000000000000000000 ) ) ;
#77 = DIRECTION ( 'NONE',  ( -0.000000000000000000, 1.000000000000000000, -0.000000000000000000 ) ) ;
#78 = ADVANCED_FACE ( 'NONE', ( #694 ), #1172, .F. ) ;
#79 = CARTESIAN_POINT ( 'NONE',  ( -90.00000000000000000, 3.000000000000000000, 111.7500000000000995 ) ) ;
#80 = ORIENTED_EDGE ( 'NONE', *, *, #1125, .T. ) ;
#81 =( NAMED_UNIT ( * ) SI_UNIT ( $, .STERADIAN. ) SOLID_ANGLE_UNIT ( ) );
#82 = DIRECTION ( 'NONE',  ( 0.000000000000000000, 0.000000000000000000, -1.000000000000000000 ) ) ;
#83 = DIRECTION ( 'NONE',  ( 0.000000000000000000, -1.000000000000000000, -0.000000000000000000 ) ) ;
#84 = EDGE_CURVE ( 'NONE', #450, #1164, #987, .T. ) ;
#85 = ORIENTED_EDGE ( 'NONE', *, *, #735, .F. ) ;
#86 = VERTEX_POINT ( 'NONE', #1072 ) ;
#87 = DIRECTION ( 'NONE',  ( 0.000000000000000000, 0.000000000000000000, 1.000000000000000000 ) ) ;
#88 = DIRECTION ( 'NONE',  ( 0.000000000000000000, 0.000000000000000000, -1.000000000000000000 ) ) ;
#89 = ORIENTED_EDGE ( 'NONE', *, *, #708, .F. ) ;
#90 = CARTESIAN_POINT ( 'NONE',  ( -90.00000000000000000, 3.000000000000000000, 109.5000000000000995 ) ) ;
#91 = VERTEX_POINT ( 'NONE', #208 ) ;
#92 = EDGE_CURVE ( 'NONE', #793, #817, #758, .T. ) ;
#93 = VERTEX_POINT ( 'NONE', #1010 ) ;
#94 = VECTOR ( 'NONE', #38, 1000.000000000000000 ) ;
#95 = CALENDAR_DATE ( 2025, 26, 6 ) ;
#96 = FACE_BOUND ( 'NONE', #384, .T. ) ;
#97 = CIRCLE ( 'NONE', #763, 2.250000000000001776 ) ;
#98 = LOCAL_TIME ( 15, 3, 10.00000000000000000, #1240 ) ;
#99 = ORIENTED_EDGE ( 'NONE', *, *, #33, .T. ) ;
#100 = CARTESIAN_POINT ( 'NONE',  ( -100.0000000000000000, 0.000000000000000000, 206.5000000000001137 ) ) ;
#101 = CARTESIAN_POINT ( 'NONE',  ( 97.00000000000000000, 3.000000000000000000, 209.5000000000001137 ) ) ;
#102 = EDGE_LOOP ( 'NONE', ( #1243, #1154 ) ) ;
#103 = SECURITY_CLASSIFICATION_LEVEL ( 'unclassified' ) ;
#104 = EDGE_CURVE ( 'NONE', #563, #1143, #632, .T. ) ;
#105 = FACE_BOUND ( 'NONE', #1096, .T. ) ;
#106 = ORIENTED_EDGE ( 'NONE', *, *, #1125, .F. ) ;
#107 = DIRECTION ( 'NONE',  ( -0.000000000000000000, 1.000000000000000000, -0.000000000000000000 ) ) ;
#108 = CARTESIAN_POINT ( 'NONE',  ( -17.00000000000000000, 3.000000000000000000, 76.00000000000009948 ) ) ;
#109 = PERSON_AND_ORGANIZATION ( #938, #261 ) ;
#110 = DIRECTION ( 'NONE',  ( 0.000000000000000000, 0.000000000000000000, 1.000000000000000000 ) ) ;
#111 = ORIENTED_EDGE ( 'NONE', *, *, #359, .F. ) ;
#112 = CARTESIAN_POINT ( 'NONE',  ( -83.00000000000000000, 0.000000000000000000, 76.00000000000009948 ) ) ;
#113 = CYLINDRICAL_SURFACE ( 'NONE', #36, 2.250000000000001776 ) ;
#114 = AXIS2_PLACEMENT_3D ( 'NONE', #925, #349, #946 ) ;
#115 = DIRECTION ( 'NONE',  ( 0.000000000000000000, 1.000000000000000000, 0.000000000000000000 ) ) ;
#116 = AXIS2_PLACEMENT_3D ( 'NONE', #911, #50, #992 ) ;
#117 = AXIS2_PLACEMENT_3D ( 'NONE', #706, #408, #130 ) ;
#118 = ORIENTED_EDGE ( 'NONE', *, *, #452, .T. ) ;
#119 = CARTESIAN_POINT ( 'NONE',  ( -80.00000000000000000, 3.000000000000000000, 111.0000000000000995 ) ) ;
#120 = AXIS2_PLACEMENT_3D ( 'NONE', #451, #175, #1131 ) ;
#121 = EDGE_CURVE ( 'NONE', #1021, #570, #1105, .T. ) ;
#122 = ORIENTED_EDGE ( 'NONE', *, *, #940, .F. ) ;
#123 = ORIENTED_EDGE ( 'NONE', *, *, #169, .T. ) ;
#124 = CARTESIAN_POINT ( 'NONE',  ( -6.999999999999992006, 0.000000000000000000, 79.75000000000009948 ) ) ;
#125 = UNCERTAINTY_MEASURE_WITH_UNIT (LENGTH_MEASURE( 1.000000000000000082E-05 ), #487, 'distance_accuracy_value', 'NONE');
#126 = ORIENTED_EDGE ( 'NONE', *, *, #531, .T. ) ;
#127 = CARTESIAN_POINT ( 'NONE',  ( -90.00000000000000000, 0.000000000000000000, 109.5000000000000995 ) ) ;
#128 = VERTEX_POINT ( 'NONE', #999 ) ;
#129 = EDGE_CURVE ( 'NONE', #450, #1197, #661, .T. ) ;
#130 = DIRECTION ( 'NONE',  ( 0.000000000000000000, 0.000000000000000000, 1.000000000000000000 ) ) ;
#131 = ORIENTED_EDGE ( 'NONE', *, *, #129, .T. ) ;
#132 = CARTESIAN_POINT ( 'NONE',  ( 38.99999999999995737, 0.000000000000000000, -184.4999999999998863 ) ) ;
#133 = EDGE_CURVE ( 'NONE', #1227, #533, #433, .T. ) ;
#134 = DIRECTION ( 'NONE',  ( -0.000000000000000000, 1.000000000000000000, -0.000000000000000000 ) ) ;
#135 = ORIENTED_EDGE ( 'NONE', *, *, #46, .T. ) ;
#136 = CARTESIAN_POINT ( 'NONE',  ( -13.99999999999999822, 3.000000000000000000, 108.0000000000000995 ) ) ;
#137 = VECTOR ( 'NONE', #864, 1000.000000000000000 ) ;
#138 = AXIS2_PLACEMENT_3D ( 'NONE', #1191, #329, #620 ) ;
#139 = DIRECTION ( 'NONE',  ( -0.000000000000000000, 1.000000000000000000, -0.000000000000000000 ) ) ;
#140 = AXIS2_PLACEMENT_3D ( 'NONE', #639, #1106, #830 ) ;
#141 = DIRECTION ( 'NONE',  ( -0.000000000000000000, 1.000000000000000000, -0.000000000000000000 ) ) ;
#142 = EDGE_CURVE ( 'NONE', #570, #900, #540, .T. ) ;
#143 = ORIENTED_EDGE ( 'NONE', *, *, #688, .F. ) ;
#144 = DIRECTION ( 'NONE',  ( -0.000000000000000000, -0.000000000000000000, -1.000000000000000000 ) ) ;
#145 = DIRECTION ( 'NONE',  ( -0.000000000000000000, 1.000000000000000000, -0.000000000000000000 ) ) ;
#146 = ORIENTED_EDGE ( 'NONE', *, *, #194, .F. ) ;
#147 = DIRECTION ( 'NONE',  ( 0.000000000000000000, 0.000000000000000000, 1.000000000000000000 ) ) ;
#148 = DIRECTION ( 'NONE',  ( 0.000000000000000000, -1.000000000000000000, 0.000000000000000000 ) ) ;
#149 = CARTESIAN_POINT ( 'NONE',  ( -17.00000000000000000, 0.000000000000000000, 79.00000000000009948 ) ) ;
#150 = ORIENTED_EDGE ( 'NONE', *, *, #472, .F. ) ;
#151 = DIRECTION ( 'NONE',  ( -0.000000000000000000, 1.000000000000000000, -0.000000000000000000 ) ) ;
#152 = ORIENTED_EDGE ( 'NONE', *, *, #452, .F. ) ;
#153 = DIRECTION ( 'NONE',  ( -0.000000000000000000, -1.000000000000000000, -0.000000000000000000 ) ) ;
#154 = EDGE_CURVE ( 'NONE', #309, #793, #227, .T. ) ;
#155 = VECTOR ( 'NONE', #485, 1000.000000000000000 ) ;
#156 = CIRCLE ( 'NONE', #239, 2.250000000000001776 ) ;
#157 = VECTOR ( 'NONE', #552, 1000.000000000000000 ) ;
#158 = CARTESIAN_POINT ( 'NONE',  ( 38.99999999999995737, 0.000000000000000000, -181.1999999999998749 ) ) ;
#159 = EDGE_LOOP ( 'NONE', ( #364, #1076, #1070, #1245 ) ) ;
#160 = CARTESIAN_POINT ( 'NONE',  ( -90.00000000000000000, 3.000000000000000000, 109.5000000000000995 ) ) ;
#161 = CARTESIAN_POINT ( 'NONE',  ( -100.0000000000000000, 3.000000000000000000, 209.5000000000001137 ) ) ;
#162 = CC_DESIGN_PERSON_AND_ORGANIZATION_ASSIGNMENT ( #874, #7, ( #867 ) ) ;
#163 = ORIENTED_EDGE ( 'NONE', *, *, #994, .F. ) ;
#164 = CARTESIAN_POINT ( 'NONE',  ( -6.999999999999992006, 3.000000000000000000, 109.5000000000000853 ) ) ;
#165 = CARTESIAN_POINT ( 'NONE',  ( -97.00000000000000000, 3.000000000000000000, -209.4999999999998863 ) ) ;
#166 = FACE_BOUND ( 'NONE', #438, .T. ) ;
#167 = VERTEX_POINT ( 'NONE', #731 ) ;
#168 = DIRECTION ( 'NONE',  ( 0.000000000000000000, 0.000000000000000000, 1.000000000000000000 ) ) ;
#169 = EDGE_CURVE ( 'NONE', #10, #180, #638, .T. ) ;
#170 = LINE ( 'NONE', #553, #395 ) ;
#171 = DIRECTION ( 'NONE',  ( 0.000000000000000000, 0.000000000000000000, -1.000000000000000000 ) ) ;
#172 = ORIENTED_EDGE ( 'NONE', *, *, #799, .F. ) ;
#173 = CIRCLE ( 'NONE', #500, 3.000000000000002665 ) ;
#174 = AXIS2_PLACEMENT_3D ( 'NONE', #924, #466, #62 ) ;
#175 = DIRECTION ( 'NONE',  ( 0.000000000000000000, -1.000000000000000000, 0.000000000000000000 ) ) ;
#176 = CIRCLE ( 'NONE', #260, 3.000000000000002665 ) ;
#177 = ADVANCED_FACE ( 'NONE', ( #41 ), #522, .F. ) ;
#178 = CARTESIAN_POINT ( 'NONE',  ( -13.99999999999999822, 3.000000000000000000, 108.0000000000000995 ) ) ;
#179 = DIRECTION ( 'NONE',  ( 0.000000000000000000, -1.000000000000000000, 0.000000000000000000 ) ) ;
#180 = VERTEX_POINT ( 'NONE', #1194 ) ;
#181 = EDGE_LOOP ( 'NONE', ( #397, #697, #525, #857 ) ) ;
#182 = APPROVAL_ROLE ( '' ) ;
#183 = CARTESIAN_POINT ( 'NONE',  ( 100.0000000000000000, 3.000000000000000000, 206.5000000000001137 ) ) ;
#184 = ORIENTED_EDGE ( 'NONE', *, *, #1014, .T. ) ;
#185 = CYLINDRICAL_SURFACE ( 'NONE', #114, 2.250000000000001776 ) ;
#186 = ADVANCED_FACE ( 'NONE', ( #527 ), #1004, .F. ) ;
#187 = ORIENTED_EDGE ( 'NONE', *, *, #728, .T. ) ;
#188 = VERTEX_POINT ( 'NONE', #993 ) ;
#189 = PERSON_AND_ORGANIZATION_ROLE ( 'creator' ) ;
#190 = CARTESIAN_POINT ( 'NONE',  ( -83.00000000000000000, 0.000000000000000000, 111.0000000000000995 ) ) ;
#191 = ORIENTED_EDGE ( 'NONE', *, *, #417, .F. ) ;
#192 = CARTESIAN_POINT ( 'NONE',  ( -13.99999999999999822, 0.000000000000000000, 76.00000000000009948 ) ) ;
#193 = DIRECTION ( 'NONE',  ( 0.000000000000000000, -1.000000000000000000, 0.000000000000000000 ) ) ;
#194 = EDGE_CURVE ( 'NONE', #541, #1176, #460, .T. ) ;
#195 = AXIS2_PLACEMENT_3D ( 'NONE', #378, #1157, #316 ) ;
#196 = AXIS2_PLACEMENT_3D ( 'NONE', #497, #383, #1175 ) ;
#197 = COORDINATED_UNIVERSAL_TIME_OFFSET ( 1, 0, .AHEAD. ) ;
#198 = VECTOR ( 'NONE', #1088, 1000.000000000000000 ) ;
#199 = DIRECTION ( 'NONE',  ( 1.000000000000000000, 0.000000000000000000, -0.000000000000000000 ) ) ;
#200 = LOCAL_TIME ( 15, 3, 10.00000000000000000, #14 ) ;
#201 = ORIENTED_EDGE ( 'NONE', *, *, #668, .F. ) ;
#202 = CARTESIAN_POINT ( 'NONE',  ( -17.00000000000000000, 3.000000000000000000, 111.0000000000000995 ) ) ;
#203 = FACE_OUTER_BOUND ( 'NONE', #430, .T. ) ;
#204 = EDGE_CURVE ( 'NONE', #1176, #520, #616, .T. ) ;
#205 = DIRECTION ( 'NONE',  ( 0.000000000000000000, -1.000000000000000000, 0.000000000000000000 ) ) ;
#206 = VERTEX_POINT ( 'NONE', #514 ) ;
#207 = CARTESIAN_POINT ( 'NONE',  ( -97.00000000000000000, 3.000000000000000000, -206.4999999999998863 ) ) ;
#208 = CARTESIAN_POINT ( 'NONE',  ( -80.00000000000000000, 3.000000000000000000, 76.00000000000009948 ) ) ;
#209 = APPROVAL_STATUS ( 'not_yet_approved' ) ;
#210 = PLANE ( 'NONE',  #58 ) ;
#211 = EDGE_CURVE ( 'NONE', #690, #1021, #391, .T. ) ;
#212 = ORIENTED_EDGE ( 'NONE', *, *, #659, .T. ) ;
#213 = CARTESIAN_POINT ( 'NONE',  ( -6.999999999999992006, 0.000000000000000000, 111.7500000000000853 ) ) ;
#214 = EDGE_LOOP ( 'NONE', ( #43, #18, #1109, #679, #591, #382, #605, #444 ) ) ;
#215 = ORIENTED_EDGE ( 'NONE', *, *, #972, .F. ) ;
#216 = VECTOR ( 'NONE', #810, 1000.000000000000000 ) ;
#217 = CARTESIAN_POINT ( 'NONE',  ( -97.00000000000000000, 3.000000000000000000, 209.5000000000001137 ) ) ;
#218 = EDGE_CURVE ( 'NONE', #10, #13, #908, .T. ) ;
#219 = AXIS2_PLACEMENT_3D ( 'NONE', #1092, #894, #230 ) ;
#220 = EDGE_LOOP ( 'NONE', ( #672, #1232 ) ) ;
#221 = DIRECTION ( 'NONE',  ( -0.000000000000000000, 1.000000000000000000, -0.000000000000000000 ) ) ;
#222 = AXIS2_PLACEMENT_3D ( 'NONE', #164, #361, #252 ) ;
#223 = LINE ( 'NONE', #296, #236 ) ;
#224 = LINE ( 'NONE', #1095, #961 ) ;
#225 = ORIENTED_EDGE ( 'NONE', *, *, #560, .F. ) ;
#226 = CARTESIAN_POINT ( 'NONE',  ( -90.00000000000000000, 3.000000000000000000, 111.7500000000000995 ) ) ;
#227 = LINE ( 'NONE', #31, #958 ) ;
#228 = EDGE_CURVE ( 'NONE', #250, #259, #554, .T. ) ;
#229 = ORIENTED_EDGE ( 'NONE', *, *, #1025, .T. ) ;
#230 = DIRECTION ( 'NONE',  ( 0.000000000000000000, 0.000000000000000000, 1.000000000000000000 ) ) ;
#231 = EDGE_LOOP ( 'NONE', ( #66, #910 ) ) ;
#232 = CARTESIAN_POINT ( 'NONE',  ( -90.00000000000000000, 3.000000000000000000, 77.50000000000009948 ) ) ;
#233 = DIRECTION ( 'NONE',  ( 0.000000000000000000, 0.000000000000000000, -1.000000000000000000 ) ) ;
#234 = EDGE_CURVE ( 'NONE', #744, #309, #1098, .T. ) ;
#235 = DIRECTION ( 'NONE',  ( 0.000000000000000000, 0.000000000000000000, 1.000000000000000000 ) ) ;
#236 = VECTOR ( 'NONE', #505, 1000.000000000000000 ) ;
#237 = EDGE_LOOP ( 'NONE', ( #834, #566, #975, #1130 ) ) ;
#238 = AXIS2_PLACEMENT_3D ( 'NONE', #127, #509, #896 ) ;
#239 = AXIS2_PLACEMENT_3D ( 'NONE', #160, #286, #1169 ) ;
#240 = CARTESIAN_POINT ( 'NONE',  ( -13.99999999999999822, 3.000000000000000000, 76.00000000000009948 ) ) ;
#241 = DIRECTION ( 'NONE',  ( -0.000000000000000000, 1.000000000000000000, -0.000000000000000000 ) ) ;
#242 = EDGE_CURVE ( 'NONE', #536, #426, #625, .T. ) ;
#243 = EDGE_LOOP ( 'NONE', ( #1048, #135, #772, #409 ) ) ;
#244 = DIRECTION ( 'NONE',  ( 0.000000000000000000, -1.000000000000000000, 0.000000000000000000 ) ) ;
#245 = DIRECTION ( 'NONE',  ( -0.000000000000000000, 1.000000000000000000, -0.000000000000000000 ) ) ;
#246 = DIRECTION ( 'NONE',  ( -1.000000000000000000, -0.000000000000000000, -0.000000000000000000 ) ) ;
#247 = VERTEX_POINT ( 'NONE', #52 ) ;
#248 = EDGE_CURVE ( 'NONE', #866, #188, #340, .T. ) ;
#249 = CARTESIAN_POINT ( 'NONE',  ( 39.00000000000000000, 3.000000000000000000, 181.2000000000001307 ) ) ;
#250 = VERTEX_POINT ( 'NONE', #63 ) ;
#251 = DIRECTION ( 'NONE',  ( 0.000000000000000000, 0.000000000000000000, 1.000000000000000000 ) ) ;
#252 = DIRECTION ( 'NONE',  ( 0.000000000000000000, 0.000000000000000000, 1.000000000000000000 ) ) ;
#253 = ORIENTED_EDGE ( 'NONE', *, *, #1168, .F. ) ;
#254 = DIRECTION ( 'NONE',  ( -0.000000000000000000, 1.000000000000000000, -0.000000000000000000 ) ) ;
#255 = AXIS2_PLACEMENT_3D ( 'NONE', #671, #1028, #743 ) ;
#256 = ADVANCED_FACE ( 'NONE', ( #455 ), #185, .F. ) ;
#257 = VECTOR ( 'NONE', #606, 1000.000000000000000 ) ;
#258 = CARTESIAN_POINT ( 'NONE',  ( -80.00000000000000000, 0.000000000000000000, 76.00000000000009948 ) ) ;
#259 = VERTEX_POINT ( 'NONE', #1226 ) ;
#260 = AXIS2_PLACEMENT_3D ( 'NONE', #649, #1112, #1019 ) ;
#261 = ORGANIZATION ( 'UNSPECIFIED', 'UNSPECIFIED', '' ) ;
#262 = LINE ( 'NONE', #272, #724 ) ;
#263 = DIRECTION ( 'NONE',  ( 0.000000000000000000, 0.000000000000000000, 1.000000000000000000 ) ) ;
#264 = CYLINDRICAL_SURFACE ( 'NONE', #437, 2.250000000000001776 ) ;
#265 = ORIENTED_EDGE ( 'NONE', *, *, #1082, .T. ) ;
#266 = ADVANCED_FACE ( 'NONE', ( #358 ), #929, .F. ) ;
#267 = CARTESIAN_POINT ( 'NONE',  ( -97.00000000000000000, 0.000000000000000000, -209.4999999999998863 ) ) ;
#268 = CARTESIAN_POINT ( 'NONE',  ( -6.999999999999992006, 3.000000000000000000, 79.75000000000009948 ) ) ;
#269 = FACE_BOUND ( 'NONE', #828, .T. ) ;
#270 = ORIENTED_EDGE ( 'NONE', *, *, #769, .T. ) ;
#271 = ADVANCED_FACE ( 'NONE', ( #448 ), #264, .F. ) ;
#272 = CARTESIAN_POINT ( 'NONE',  ( -6.999999999999992006, 3.000000000000000000, 111.7500000000000853 ) ) ;
#273 = LINE ( 'NONE', #268, #1183 ) ;
#274 = DIRECTION ( 'NONE',  ( -0.000000000000000000, 1.000000000000000000, -0.000000000000000000 ) ) ;
#275 = AXIS2_PLACEMENT_3D ( 'NONE', #71, #941, #751 ) ;
#276 = VECTOR ( 'NONE', #985, 1000.000000000000000 ) ;
#277 = ORIENTED_EDGE ( 'NONE', *, *, #918, .T. ) ;
#278 = COORDINATED_UNIVERSAL_TIME_OFFSET ( 1, 0, .AHEAD. ) ;
#279 = CIRCLE ( 'NONE', #302, 2.250000000000001776 ) ;
#280 = CARTESIAN_POINT ( 'NONE',  ( 97.00000000000000000, 3.000000000000000000, -206.4999999999998863 ) ) ;
#281 = VERTEX_POINT ( 'NONE', #79 ) ;
#282 = FACE_OUTER_BOUND ( 'NONE', #49, .T. ) ;
#283 = ORIENTED_EDGE ( 'NONE', *, *, #1025, .F. ) ;
#284 = ORIENTED_EDGE ( 'NONE', *, *, #9, .F. ) ;
#285 =( NAMED_UNIT ( * ) PLANE_ANGLE_UNIT ( ) SI_UNIT ( $, .RADIAN. ) );
#286 = DIRECTION ( 'NONE',  ( -0.000000000000000000, 1.000000000000000000, -0.000000000000000000 ) ) ;
#287 = ADVANCED_FACE ( 'NONE', ( #1129, #368, #762, #747, #847, #269, #839, #166, #1023, #282 ), #1213, .T. ) ;
#288 = ORIENTED_EDGE ( 'NONE', *, *, #92, .F. ) ;
#289 = FACE_OUTER_BOUND ( 'NONE', #551, .T. ) ;
#290 = CARTESIAN_POINT ( 'NONE',  ( -6.999999999999992006, 3.000000000000000000, 109.5000000000000853 ) ) ;
#291 = ORIENTED_EDGE ( 'NONE', *, *, #472, .T. ) ;
#292 = MECHANICAL_CONTEXT ( 'NONE', #414, 'mechanical' ) ;
#293 = FACE_BOUND ( 'NONE', #231, .T. ) ;
#294 = VERTEX_POINT ( 'NONE', #1235 ) ;
#295 = DIRECTION ( 'NONE',  ( -0.000000000000000000, 1.000000000000000000, -0.000000000000000000 ) ) ;
#296 = CARTESIAN_POINT ( 'NONE',  ( -16.99999999999999645, 0.000000000000000000, 111.0000000000000995 ) ) ;
#297 = VECTOR ( 'NONE', #1167, 1000.000000000000000 ) ;
#298 = AXIS2_PLACEMENT_3D ( 'NONE', #1155, #974, #19 ) ;
#299 = DIRECTION ( 'NONE',  ( 1.000000000000000000, 0.000000000000000000, 0.000000000000000000 ) ) ;
#300 = AXIS2_PLACEMENT_3D ( 'NONE', #351, #459, #67 ) ;
#301 = CARTESIAN_POINT ( 'NONE',  ( 97.00000000000000000, 3.000000000000000000, 206.5000000000001137 ) ) ;
#302 = AXIS2_PLACEMENT_3D ( 'NONE', #385, #695, #950 ) ;
#303 = ORIENTED_EDGE ( 'NONE', *, *, #121, .F. ) ;
#304 = LINE ( 'NONE', #590, #980 ) ;
#305 = CARTESIAN_POINT ( 'NONE',  ( -83.00000000000000000, 0.000000000000000000, 79.00000000000009948 ) ) ;
#306 = EDGE_CURVE ( 'NONE', #91, #167, #663, .T. ) ;
#307 = CALENDAR_DATE ( 2025, 26, 6 ) ;
#308 = CARTESIAN_POINT ( 'NONE',  ( -13.99999999999999822, 0.000000000000000000, 76.00000000000009948 ) ) ;
#309 = VERTEX_POINT ( 'NONE', #645 ) ;
#310 = DIRECTION ( 'NONE',  ( 0.000000000000000000, 0.000000000000000000, 1.000000000000000000 ) ) ;
#311 = CARTESIAN_POINT ( 'NONE',  ( -16.99999999999999645, 0.000000000000000000, 108.0000000000000995 ) ) ;
#312 = ADVANCED_FACE ( 'NONE', ( #856 ), #354, .T. ) ;
#313 = CARTESIAN_POINT ( 'NONE',  ( 39.00000000000000000, 0.000000000000000000, 187.8000000000001251 ) ) ;
#314 = ORIENTED_EDGE ( 'NONE', *, *, #121, .T. ) ;
#315 = DIRECTION ( 'NONE',  ( 0.000000000000000000, 0.000000000000000000, -1.000000000000000000 ) ) ;
#316 = DIRECTION ( 'NONE',  ( -1.000000000000000000, 0.000000000000000000, -0.000000000000000000 ) ) ;
#317 = VECTOR ( 'NONE', #324, 1000.000000000000000 ) ;
#318 = CARTESIAN_POINT ( 'NONE',  ( 81.00000000000000000, 3.000000000000000000, 184.5000000000001421 ) ) ;
#319 = VECTOR ( 'NONE', #611, 1000.000000000000000 ) ;
#320 = VECTOR ( 'NONE', #16, 1000.000000000000000 ) ;
#321 = ORIENTED_EDGE ( 'NONE', *, *, #1216, .T. ) ;
#322 = EDGE_CURVE ( 'NONE', #1021, #61, #467, .T. ) ;
#323 = CARTESIAN_POINT ( 'NONE',  ( 38.99999999999995737, 3.000000000000000000, -184.4999999999998863 ) ) ;
#324 = DIRECTION ( 'NONE',  ( 1.000000000000000000, 0.000000000000000000, 0.000000000000000000 ) ) ;
#325 = DIRECTION ( 'NONE',  ( -0.000000000000000000, 1.000000000000000000, -0.000000000000000000 ) ) ;
#326 = ORIENTED_EDGE ( 'NONE', *, *, #678, .T. ) ;
#327 = EDGE_CURVE ( 'NONE', #1197, #450, #413, .T. ) ;
#328 = CARTESIAN_POINT ( 'NONE',  ( -83.00000000000000000, 0.000000000000000000, 108.0000000000000995 ) ) ;
#329 = DIRECTION ( 'NONE',  ( -0.000000000000000000, 1.000000000000000000, -0.000000000000000000 ) ) ;
#330 = ORIENTED_EDGE ( 'NONE', *, *, #400, .F. ) ;
#331 = LINE ( 'NONE', #226, #319 ) ;
#332 = CARTESIAN_POINT ( 'NONE',  ( -6.999999999999992006, 3.000000000000000000, 109.5000000000000853 ) ) ;
#333 = CC_DESIGN_PERSON_AND_ORGANIZATION_ASSIGNMENT ( #1052, #189, ( #35 ) ) ;
#334 = EDGE_CURVE ( 'NONE', #840, #1164, #353, .T. ) ;
#335 = CARTESIAN_POINT ( 'NONE',  ( -90.00000000000000000, 3.000000000000000000, 77.50000000000009948 ) ) ;
#336 = CIRCLE ( 'NONE', #1059, 3.000000000000002665 ) ;
#337 = ORIENTED_EDGE ( 'NONE', *, *, #636, .F. ) ;
#338 = CIRCLE ( 'NONE', #640, 2.250000000000001776 ) ;
#339 = VECTOR ( 'NONE', #2, 1000.000000000000000 ) ;
#340 = LINE ( 'NONE', #1142, #1136 ) ;
#341 = CARTESIAN_POINT ( 'NONE',  ( -100.0000000000000000, 0.000000000000000000, -209.4999999999998863 ) ) ;
#342 = ORIENTED_EDGE ( 'NONE', *, *, #346, .T. ) ;
#343 = DIRECTION ( 'NONE',  ( 0.000000000000000000, -1.000000000000000000, 0.000000000000000000 ) ) ;
#344 = COORDINATED_UNIVERSAL_TIME_OFFSET ( 1, 0, .AHEAD. ) ;
#345 = DIRECTION ( 'NONE',  ( -1.000000000000000000, 0.000000000000000000, 0.000000000000000000 ) ) ;
#346 = EDGE_CURVE ( 'NONE', #406, #981, #921, .T. ) ;
#347 = VERTEX_POINT ( 'NONE', #934 ) ;
#348 = CARTESIAN_POINT ( 'NONE',  ( 81.00000000000000000, 3.000000000000000000, 184.5000000000001421 ) ) ;
#349 = DIRECTION ( 'NONE',  ( -0.000000000000000000, 1.000000000000000000, -0.000000000000000000 ) ) ;
#350 = PLANE ( 'NONE',  #140 ) ;
#351 = CARTESIAN_POINT ( 'NONE',  ( -90.00000000000000000, 3.000000000000000000, 77.50000000000009948 ) ) ;
#352 = EDGE_CURVE ( 'NONE', #376, #1227, #1037, .T. ) ;
#353 = CIRCLE ( 'NONE', #393, 3.299999999999997158 ) ;
#354 = CYLINDRICAL_SURFACE ( 'NONE', #255, 3.000000000000002665 ) ;
#355 = ORIENTED_EDGE ( 'NONE', *, *, #1008, .F. ) ;
#356 = FACE_OUTER_BOUND ( 'NONE', #1007, .T. ) ;
#357 = DIRECTION ( 'NONE',  ( 0.000000000000000000, 0.000000000000000000, -1.000000000000000000 ) ) ;
#358 = FACE_OUTER_BOUND ( 'NONE', #996, .T. ) ;
#359 = EDGE_CURVE ( 'NONE', #871, #91, #1018, .T. ) ;
#360 = ORIENTED_EDGE ( 'NONE', *, *, #495, .T. ) ;
#361 = DIRECTION ( 'NONE',  ( -0.000000000000000000, 1.000000000000000000, -0.000000000000000000 ) ) ;
#362 = DIRECTION ( 'NONE',  ( -0.000000000000000000, 1.000000000000000000, -0.000000000000000000 ) ) ;
#363 = CARTESIAN_POINT ( 'NONE',  ( -6.999999999999992006, 0.000000000000000000, 109.5000000000000853 ) ) ;
#364 = ORIENTED_EDGE ( 'NONE', *, *, #618, .T. ) ;
#365 = ORIENTED_EDGE ( 'NONE', *, *, #211, .T. ) ;
#366 = DIRECTION ( 'NONE',  ( -0.000000000000000000, 1.000000000000000000, -0.000000000000000000 ) ) ;
#367 = VERTEX_POINT ( 'NONE', #556 ) ;
#368 = FACE_BOUND ( 'NONE', #1086, .T. ) ;
#369 = ORIENTED_EDGE ( 'NONE', *, *, #883, .T. ) ;
#370 = AXIS2_PLACEMENT_3D ( 'NONE', #546, #851, #1229 ) ;
#371 = AXIS2_PLACEMENT_3D ( 'NONE', #348, #736, #1022 ) ;
#372 = ORIENTED_EDGE ( 'NONE', *, *, #607, .T. ) ;
#373 = DIRECTION ( 'NONE',  ( 0.000000000000000000, -1.000000000000000000, 0.000000000000000000 ) ) ;
#374 = EDGE_CURVE ( 'NONE', #456, #536, #57, .T. ) ;
#375 = DIRECTION ( 'NONE',  ( 0.000000000000000000, -1.000000000000000000, 0.000000000000000000 ) ) ;
#376 = VERTEX_POINT ( 'NONE', #119 ) ;
#377 = DIRECTION ( 'NONE',  ( 0.000000000000000000, 0.000000000000000000, 1.000000000000000000 ) ) ;
#378 = CARTESIAN_POINT ( 'NONE',  ( -100.0000000000000000, 3.000000000000000000, 209.5000000000001137 ) ) ;
#379 = ORIENTED_EDGE ( 'NONE', *, *, #636, .T. ) ;
#380 = APPROVAL ( #879, 'UNSPECIFIED' ) ;
#381 = FACE_BOUND ( 'NONE', #1151, .T. ) ;
#382 = ORIENTED_EDGE ( 'NONE', *, *, #59, .T. ) ;
#383 = DIRECTION ( 'NONE',  ( -0.000000000000000000, 1.000000000000000000, -0.000000000000000000 ) ) ;
#384 = EDGE_LOOP ( 'NONE', ( #225, #69 ) ) ;
#385 = CARTESIAN_POINT ( 'NONE',  ( -6.999999999999992006, 0.000000000000000000, 77.50000000000009948 ) ) ;
#386 = LINE ( 'NONE', #775, #1020 ) ;
#387 = ORIENTED_EDGE ( 'NONE', *, *, #400, .T. ) ;
#388 = DIRECTION ( 'NONE',  ( -0.000000000000000000, -0.000000000000000000, -1.000000000000000000 ) ) ;
#389 = ADVANCED_FACE ( 'NONE', ( #289 ), #797, .F. ) ;
#390 = DIRECTION ( 'NONE',  ( -0.000000000000000000, 1.000000000000000000, -0.000000000000000000 ) ) ;
#391 = CIRCLE ( 'NONE', #1097, 3.000000000000002665 ) ;
#392 = ORIENTED_EDGE ( 'NONE', *, *, #688, .T. ) ;
#393 = AXIS2_PLACEMENT_3D ( 'NONE', #752, #274, #1042 ) ;
#394 = CARTESIAN_POINT ( 'NONE',  ( 97.00000000000000000, 3.000000000000000000, 206.5000000000001137 ) ) ;
#395 = VECTOR ( 'NONE', #77, 1000.000000000000000 ) ;
#396 = DIRECTION ( 'NONE',  ( -0.000000000000000000, 0.000000000000000000, 1.000000000000000000 ) ) ;
#397 = ORIENTED_EDGE ( 'NONE', *, *, #720, .F. ) ;
#398 = LINE ( 'NONE', #112, #1061 ) ;
#399 = FACE_OUTER_BOUND ( 'NONE', #29, .T. ) ;
#400 = EDGE_CURVE ( 'NONE', #128, #563, #555, .T. ) ;
#401 = ORIENTED_EDGE ( 'NONE', *, *, #1008, .T. ) ;
#402 = CARTESIAN_POINT ( 'NONE',  ( 81.00000000000000000, 3.000000000000000000, -184.4999999999998579 ) ) ;
#403 = ORIENTED_EDGE ( 'NONE', *, *, #9, .T. ) ;
#404 = DIRECTION ( 'NONE',  ( 0.000000000000000000, 0.000000000000000000, -1.000000000000000000 ) ) ;
#405 = DIRECTION ( 'NONE',  ( 0.000000000000000000, 0.000000000000000000, 1.000000000000000000 ) ) ;
#406 = VERTEX_POINT ( 'NONE', #213 ) ;
#407 = EDGE_CURVE ( 'NONE', #900, #61, #703, .T. ) ;
#408 = DIRECTION ( 'NONE',  ( -0.000000000000000000, 1.000000000000000000, -0.000000000000000000 ) ) ;
#409 = ORIENTED_EDGE ( 'NONE', *, *, #306, .T. ) ;
#410 = CARTESIAN_POINT ( 'NONE',  ( -100.0000000000000000, 0.000000000000000000, -206.4999999999998863 ) ) ;
#411 = DIRECTION ( 'NONE',  ( -0.000000000000000000, 1.000000000000000000, -0.000000000000000000 ) ) ;
#412 = EDGE_LOOP ( 'NONE', ( #984, #583 ) ) ;
#413 = CIRCLE ( 'NONE', #370, 3.299999999999997158 ) ;
#414 = APPLICATION_CONTEXT ( 'configuration controlled 3d designs of mechanical parts and assemblies' ) ;
#415 = VECTOR ( 'NONE', #953, 1000.000000000000000 ) ;
#416 = DIRECTION ( 'NONE',  ( -0.000000000000000000, -0.000000000000000000, 1.000000000000000000 ) ) ;
#417 = EDGE_CURVE ( 'NONE', #871, #1227, #304, .T. ) ;
#418 = VECTOR ( 'NONE', #909, 1000.000000000000000 ) ;
#419 = AXIS2_PLACEMENT_3D ( 'NONE', #1011, #1026, #927 ) ;
#420 = ORIENTED_EDGE ( 'NONE', *, *, #701, .T. ) ;
#421 = FACE_OUTER_BOUND ( 'NONE', #670, .T. ) ;
#422 = CARTESIAN_POINT ( 'NONE',  ( -100.0000000000000000, 3.000000000000000000, -209.4999999999998863 ) ) ;
#423 = ORIENTED_EDGE ( 'NONE', *, *, #495, .F. ) ;
#424 = DIRECTION ( 'NONE',  ( -0.000000000000000000, 1.000000000000000000, -0.000000000000000000 ) ) ;
#425 = EDGE_CURVE ( 'NONE', #45, #533, #398, .T. ) ;
#426 = VERTEX_POINT ( 'NONE', #567 ) ;
#427 = CARTESIAN_POINT ( 'NONE',  ( -83.00000000000000000, 0.000000000000000000, 108.0000000000000995 ) ) ;
#428 = CC_DESIGN_DATE_AND_TIME_ASSIGNMENT ( #449, #601, ( #867 ) ) ;
#429 = DIRECTION ( 'NONE',  ( -0.000000000000000000, 1.000000000000000000, -0.000000000000000000 ) ) ;
#430 = EDGE_LOOP ( 'NONE', ( #923, #773, #1211, #314 ) ) ;
#431 = DIRECTION ( 'NONE',  ( 0.000000000000000000, 0.000000000000000000, 1.000000000000000000 ) ) ;
#432 = ORIENTED_EDGE ( 'NONE', *, *, #443, .F. ) ;
#433 = LINE ( 'NONE', #328, #1219 ) ;
#434 = APPROVAL_DATE_TIME ( #593, #653 ) ;
#435 = EDGE_CURVE ( 'NONE', #294, #91, #890, .T. ) ;
#436 = CARTESIAN_POINT ( 'NONE',  ( -97.00000000000000000, 3.000000000000000000, -209.4999999999998863 ) ) ;
#437 = AXIS2_PLACEMENT_3D ( 'NONE', #1124, #1218, #68 ) ;
#438 = EDGE_LOOP ( 'NONE', ( #1188, #1024 ) ) ;
#439 = VECTOR ( 'NONE', #660, 1000.000000000000000 ) ;
#440 = CARTESIAN_POINT ( 'NONE',  ( -100.0000000000000000, 0.000000000000000000, 209.5000000000001137 ) ) ;
#441 = APPROVAL_STATUS ( 'not_yet_approved' ) ;
#442 = AXIS2_PLACEMENT_3D ( 'NONE', #1152, #87, #299 ) ;
#443 = EDGE_CURVE ( 'NONE', #610, #1126, #1000, .T. ) ;
#444 = ORIENTED_EDGE ( 'NONE', *, *, #92, .T. ) ;
#445 = PLANE ( 'NONE',  #964 ) ;
#446 = VERTEX_POINT ( 'NONE', #100 ) ;
#447 = CARTESIAN_POINT ( 'NONE',  ( -13.99999999999999822, 0.000000000000000000, 79.00000000000009948 ) ) ;
#448 = FACE_OUTER_BOUND ( 'NONE', #657, .T. ) ;
#449 = DATE_AND_TIME ( #307, #200 ) ;
#450 = VERTEX_POINT ( 'NONE', #491 ) ;
#451 = CARTESIAN_POINT ( 'NONE',  ( 39.00000000000000000, 0.000000000000000000, 184.5000000000001421 ) ) ;
#452 = EDGE_CURVE ( 'NONE', #4, #610, #677, .T. ) ;
#453 = LINE ( 'NONE', #1225, #539 ) ;
#454 = ORIENTED_EDGE ( 'NONE', *, *, #458, .T. ) ;
#455 = FACE_OUTER_BOUND ( 'NONE', #181, .T. ) ;
#456 = VERTEX_POINT ( 'NONE', #5 ) ;
#457 = PLANE ( 'NONE',  #723 ) ;
#458 = EDGE_CURVE ( 'NONE', #1148, #520, #1241, .T. ) ;
#459 = DIRECTION ( 'NONE',  ( -0.000000000000000000, 1.000000000000000000, -0.000000000000000000 ) ) ;
#460 = CIRCLE ( 'NONE', #936, 3.299999999999997158 ) ;
#461 = VECTOR ( 'NONE', #584, 1000.000000000000000 ) ;
#462 = DIRECTION ( 'NONE',  ( 0.000000000000000000, -1.000000000000000000, 0.000000000000000000 ) ) ;
#463 = CIRCLE ( 'NONE', #75, 3.299999999999997158 ) ;
#464 = EDGE_LOOP ( 'NONE', ( #748, #496, #80, #1214 ) ) ;
#465 = LINE ( 'NONE', #341, #578 ) ;
#466 = DIRECTION ( 'NONE',  ( 0.000000000000000000, -1.000000000000000000, 0.000000000000000000 ) ) ;
#467 = LINE ( 'NONE', #161, #802 ) ;
#468 = VERTEX_POINT ( 'NONE', #202 ) ;
#469 = CARTESIAN_POINT ( 'NONE',  ( -6.999999999999992006, 3.000000000000000000, 77.50000000000009948 ) ) ;
#470 = DIRECTION ( 'NONE',  ( 0.000000000000000000, -1.000000000000000000, 0.000000000000000000 ) ) ;
#471 = ORIENTED_EDGE ( 'NONE', *, *, #852, .F. ) ;
#472 = EDGE_CURVE ( 'NONE', #294, #309, #173, .T. ) ;
#473 = ORIENTED_EDGE ( 'NONE', *, *, #607, .F. ) ;
#474 = FACE_BOUND ( 'NONE', #801, .T. ) ;
#475 = EDGE_LOOP ( 'NONE', ( #935, #777, #1051, #1034 ) ) ;
#476 = DIRECTION ( 'NONE',  ( 0.000000000000000000, 0.000000000000000000, 1.000000000000000000 ) ) ;
#477 = AXIS2_PLACEMENT_3D ( 'NONE', #1193, #244, #718 ) ;
#478 = VECTOR ( 'NONE', #151, 1000.000000000000000 ) ;
#479 = EDGE_CURVE ( 'NONE', #281, #347, #1221, .T. ) ;
#480 = AXIS2_PLACEMENT_3D ( 'NONE', #691, #888, #23 ) ;
#481 = ORIENTED_EDGE ( 'NONE', *, *, #776, .T. ) ;
#482 = PERSON_AND_ORGANIZATION_ROLE ( 'design_supplier' ) ;
#483 = DIRECTION ( 'NONE',  ( 1.000000000000000000, 0.000000000000000000, 0.000000000000000000 ) ) ;
#484 = ORIENTED_EDGE ( 'NONE', *, *, #947, .T. ) ;
#485 = DIRECTION ( 'NONE',  ( -0.000000000000000000, -1.000000000000000000, 0.000000000000000000 ) ) ;
#486 = EDGE_LOOP ( 'NONE', ( #665, #1067, #111, #831 ) ) ;
#487 =( LENGTH_UNIT ( ) NAMED_UNIT ( * ) SI_UNIT ( .MILLI., .METRE. ) );
#488 = FACE_OUTER_BOUND ( 'NONE', #853, .T. ) ;
#489 = EDGE_CURVE ( 'NONE', #817, #167, #504, .T. ) ;
#490 = ORIENTED_EDGE ( 'NONE', *, *, #417, .T. ) ;
#491 = CARTESIAN_POINT ( 'NONE',  ( 81.00000000000000000, 0.000000000000000000, -187.7999999999998693 ) ) ;
#492 = DIRECTION ( 'NONE',  ( 0.000000000000000000, 0.000000000000000000, -1.000000000000000000 ) ) ;
#493 = CALENDAR_DATE ( 2025, 26, 6 ) ;
#494 = LINE ( 'NONE', #880, #320 ) ;
#495 = EDGE_CURVE ( 'NONE', #376, #468, #877, .T. ) ;
#496 = ORIENTED_EDGE ( 'NONE', *, *, #1115, .T. ) ;
#497 = CARTESIAN_POINT ( 'NONE',  ( 38.99999999999995737, 3.000000000000000000, -184.4999999999998863 ) ) ;
#498 = LINE ( 'NONE', #108, #1117 ) ;
#499 = VECTOR ( 'NONE', #144, 1000.000000000000000 ) ;
#500 = AXIS2_PLACEMENT_3D ( 'NONE', #969, #1083, #404 ) ;
#501 = DIRECTION ( 'NONE',  ( 0.000000000000000000, 0.000000000000000000, -1.000000000000000000 ) ) ;
#502 = CIRCLE ( 'NONE', #519, 2.250000000000001776 ) ;
#503 = ORIENTED_EDGE ( 'NONE', *, *, #374, .T. ) ;
#504 = LINE ( 'NONE', #684, #804 ) ;
#505 = DIRECTION ( 'NONE',  ( -0.000000000000000000, -1.000000000000000000, 0.000000000000000000 ) ) ;
#506 = EDGE_CURVE ( 'NONE', #1134, #793, #1055, .T. ) ;
#507 = CYLINDRICAL_SURFACE ( 'NONE', #644, 2.250000000000001776 ) ;
#508 = ORIENTED_EDGE ( 'NONE', *, *, #531, .F. ) ;
#509 = DIRECTION ( 'NONE',  ( 0.000000000000000000, -1.000000000000000000, 0.000000000000000000 ) ) ;
#510 = EDGE_LOOP ( 'NONE', ( #22, #270, #454, #24 ) ) ;
#511 = EDGE_CURVE ( 'NONE', #954, #1158, #698, .T. ) ;
#512 = CARTESIAN_POINT ( 'NONE',  ( -100.0000000000000000, 3.000000000000000000, 206.5000000000001137 ) ) ;
#513 = ORIENTED_EDGE ( 'NONE', *, *, #46, .F. ) ;
#514 = CARTESIAN_POINT ( 'NONE',  ( -6.999999999999992006, 3.000000000000000000, 79.75000000000009948 ) ) ;
#515 = AXIS2_PLACEMENT_3D ( 'NONE', #726, #411, #803 ) ;
#516 = AXIS2_PLACEMENT_3D ( 'NONE', #363, #179, #550 ) ;
#517 = LINE ( 'NONE', #512, #198 ) ;
#518 = CIRCLE ( 'NONE', #480, 3.000000000000002665 ) ;
#519 = AXIS2_PLACEMENT_3D ( 'NONE', #1204, #922, #76 ) ;
#520 = VERTEX_POINT ( 'NONE', #693 ) ;
#521 = CARTESIAN_POINT ( 'NONE',  ( -90.00000000000000000, 0.000000000000000000, 75.25000000000009948 ) ) ;
#522 = CYLINDRICAL_SURFACE ( 'NONE', #1084, 2.250000000000001776 ) ;
#523 = ORIENTED_EDGE ( 'NONE', *, *, #154, .T. ) ;
#524 = DIRECTION ( 'NONE',  ( 0.000000000000000000, 0.000000000000000000, 1.000000000000000000 ) ) ;
#525 = ORIENTED_EDGE ( 'NONE', *, *, #547, .T. ) ;
#526 = ADVANCED_FACE ( 'NONE', ( #1165 ), #1071, .T. ) ;
#527 = FACE_OUTER_BOUND ( 'NONE', #1012, .T. ) ;
#528 = CARTESIAN_POINT ( 'NONE',  ( -97.00000000000000000, 3.000000000000000000, -206.4999999999998863 ) ) ;
#529 = ORIENTED_EDGE ( 'NONE', *, *, #858, .T. ) ;
#530 = CARTESIAN_POINT ( 'NONE',  ( -90.00000000000000000, 3.000000000000000000, 79.75000000000009948 ) ) ;
#531 = EDGE_CURVE ( 'NONE', #1134, #744, #1077, .T. ) ;
#532 = DIRECTION ( 'NONE',  ( 0.000000000000000000, 0.000000000000000000, -1.000000000000000000 ) ) ;
#533 = VERTEX_POINT ( 'NONE', #427 ) ;
#534 = FACE_OUTER_BOUND ( 'NONE', #1044, .T. ) ;
#535 = VECTOR ( 'NONE', #913, 1000.000000000000000 ) ;
#536 = VERTEX_POINT ( 'NONE', #521 ) ;
#537 = DIRECTION ( 'NONE',  ( -0.000000000000000000, 1.000000000000000000, -0.000000000000000000 ) ) ;
#538 = VECTOR ( 'NONE', #366, 1000.000000000000000 ) ;
#539 = VECTOR ( 'NONE', #642, 1000.000000000000000 ) ;
#540 = LINE ( 'NONE', #440, #317 ) ;
#541 = VERTEX_POINT ( 'NONE', #1189 ) ;
#542 = ADVANCED_FACE ( 'NONE', ( #1206 ), #813, .F. ) ;
#543 = FACE_OUTER_BOUND ( 'NONE', #859, .T. ) ;
#544 = ORIENTED_EDGE ( 'NONE', *, *, #1108, .T. ) ;
#545 = FACE_OUTER_BOUND ( 'NONE', #764, .T. ) ;
#546 = CARTESIAN_POINT ( 'NONE',  ( 81.00000000000000000, 0.000000000000000000, -184.4999999999998579 ) ) ;
#547 = EDGE_CURVE ( 'NONE', #680, #281, #331, .T. ) ;
#548 = CARTESIAN_POINT ( 'NONE',  ( -83.00000000000000000, 3.000000000000000000, 108.0000000000000995 ) ) ;
#549 = DIRECTION ( 'NONE',  ( -0.000000000000000000, 1.000000000000000000, -0.000000000000000000 ) ) ;
#550 = DIRECTION ( 'NONE',  ( 0.000000000000000000, 0.000000000000000000, -1.000000000000000000 ) ) ;
#551 = EDGE_LOOP ( 'NONE', ( #782, #131, #372, #589 ) ) ;
#552 = DIRECTION ( 'NONE',  ( -0.000000000000000000, 1.000000000000000000, -0.000000000000000000 ) ) ;
#553 = CARTESIAN_POINT ( 'NONE',  ( 38.99999999999995737, 3.000000000000000000, -187.7999999999998977 ) ) ;
#554 = CIRCLE ( 'NONE', #721, 2.250000000000001776 ) ;
#555 = CIRCLE ( 'NONE', #902, 3.000000000000002665 ) ;
#556 = CARTESIAN_POINT ( 'NONE',  ( 39.00000000000000000, 3.000000000000000000, 181.2000000000001307 ) ) ;
#557 = CIRCLE ( 'NONE', #1185, 3.299999999999997158 ) ;
#558 = LINE ( 'NONE', #822, #1186 ) ;
#559 = DIRECTION ( 'NONE',  ( 0.000000000000000000, 0.000000000000000000, 1.000000000000000000 ) ) ;
#560 = EDGE_CURVE ( 'NONE', #599, #426, #1201, .T. ) ;
#561 = DIRECTION ( 'NONE',  ( 0.000000000000000000, 0.000000000000000000, -1.000000000000000000 ) ) ;
#562 = ORIENTED_EDGE ( 'NONE', *, *, #322, .T. ) ;
#563 = VERTEX_POINT ( 'NONE', #624 ) ;
#564 = APPROVAL_DATE_TIME ( #1159, #380 ) ;
#565 = FACE_BOUND ( 'NONE', #1135, .T. ) ;
#566 = ORIENTED_EDGE ( 'NONE', *, *, #194, .T. ) ;
#567 = CARTESIAN_POINT ( 'NONE',  ( -90.00000000000000000, 3.000000000000000000, 75.25000000000009948 ) ) ;
#568 = EDGE_CURVE ( 'NONE', #533, #978, #1085, .T. ) ;
#569 = ORIENTED_EDGE ( 'NONE', *, *, #932, .T. ) ;
#570 = VERTEX_POINT ( 'NONE', #615 ) ;
#571 = CALENDAR_DATE ( 2025, 26, 6 ) ;
#572 = CARTESIAN_POINT ( 'NONE',  ( 97.00000000000000000, 0.000000000000000000, 209.5000000000001137 ) ) ;
#573 = ORIENTED_EDGE ( 'NONE', *, *, #458, .F. ) ;
#574 = CARTESIAN_POINT ( 'NONE',  ( 97.00000000000000000, 3.000000000000000000, -206.4999999999998863 ) ) ;
#575 = CIRCLE ( 'NONE', #884, 3.000000000000002665 ) ;
#576 = CARTESIAN_POINT ( 'NONE',  ( -16.99999999999999645, 0.000000000000000000, 108.0000000000000995 ) ) ;
#577 = AXIS2_PLACEMENT_3D ( 'NONE', #318, #241, #990 ) ;
#578 = VECTOR ( 'NONE', #246, 1000.000000000000000 ) ;
#579 = EDGE_CURVE ( 'NONE', #978, #903, #713, .T. ) ;
#580 = ORIENTED_EDGE ( 'NONE', *, *, #1156, .F. ) ;
#581 = PERSON_AND_ORGANIZATION ( #938, #261 ) ;
#582 = CARTESIAN_POINT ( 'NONE',  ( 0.000000000000000000, 3.000000000000000000, 0.000000000000000000 ) ) ;
#583 = ORIENTED_EDGE ( 'NONE', *, *, #129, .F. ) ;
#584 = DIRECTION ( 'NONE',  ( -1.000000000000000000, -0.000000000000000000, -0.000000000000000000 ) ) ;
#585 = FACE_OUTER_BOUND ( 'NONE', #1141, .T. ) ;
#586 = DIRECTION ( 'NONE',  ( 0.000000000000000000, 0.000000000000000000, -1.000000000000000000 ) ) ;
#587 = ADVANCED_FACE ( 'NONE', ( #421 ), #1104, .F. ) ;
#588 = FACE_BOUND ( 'NONE', #673, .T. ) ;
#589 = ORIENTED_EDGE ( 'NONE', *, *, #334, .T. ) ;
#590 = CARTESIAN_POINT ( 'NONE',  ( -83.00000000000000000, 3.000000000000000000, 76.00000000000009948 ) ) ;
#591 = ORIENTED_EDGE ( 'NONE', *, *, #579, .T. ) ;
#592 = ORIENTED_EDGE ( 'NONE', *, *, #59, .F. ) ;
#593 = DATE_AND_TIME ( #819, #1166 ) ;
#594 = DIRECTION ( 'NONE',  ( -0.000000000000000000, 0.000000000000000000, -1.000000000000000000 ) ) ;
#595 = EDGE_LOOP ( 'NONE', ( #634, #712, #991, #473 ) ) ;
#596 = CARTESIAN_POINT ( 'NONE',  ( 97.00000000000000000, 3.000000000000000000, 209.5000000000001137 ) ) ;
#597 = ORIENTED_EDGE ( 'NONE', *, *, #988, .T. ) ;
#598 = AXIS2_PLACEMENT_3D ( 'NONE', #833, #470, #1033 ) ;
#599 = VERTEX_POINT ( 'NONE', #530 ) ;
#600 = VECTOR ( 'NONE', #549, 1000.000000000000000 ) ;
#601 = DATE_TIME_ROLE ( 'classification_date' ) ;
#602 = AXIS2_PLACEMENT_3D ( 'NONE', #402, #1080, #431 ) ;
#603 = LINE ( 'NONE', #711, #276 ) ;
#604 = CC_DESIGN_SECURITY_CLASSIFICATION ( #867, ( #42 ) ) ;
#605 = ORIENTED_EDGE ( 'NONE', *, *, #506, .T. ) ;
#606 = DIRECTION ( 'NONE',  ( -0.000000000000000000, 1.000000000000000000, -0.000000000000000000 ) ) ;
#607 = EDGE_CURVE ( 'NONE', #1197, #840, #916, .T. ) ;
#608 = DIRECTION ( 'NONE',  ( 0.000000000000000000, -1.000000000000000000, 0.000000000000000000 ) ) ;
#609 = CARTESIAN_POINT ( 'NONE',  ( -90.00000000000000000, 0.000000000000000000, 109.5000000000000995 ) ) ;
#610 = VERTEX_POINT ( 'NONE', #410 ) ;
#611 = DIRECTION ( 'NONE',  ( -0.000000000000000000, 1.000000000000000000, -0.000000000000000000 ) ) ;
#612 = DIRECTION ( 'NONE',  ( -0.000000000000000000, 1.000000000000000000, -0.000000000000000000 ) ) ;
#613 = FACE_OUTER_BOUND ( 'NONE', #510, .T. ) ;
#614 = ORIENTED_EDGE ( 'NONE', *, *, #1178, .T. ) ;
#615 = CARTESIAN_POINT ( 'NONE',  ( -97.00000000000000000, 0.000000000000000000, 209.5000000000001137 ) ) ;
#616 = LINE ( 'NONE', #1184, #998 ) ;
#617 = EDGE_LOOP ( 'NONE', ( #490, #930, #717, #529 ) ) ;
#618 = EDGE_CURVE ( 'NONE', #680, #1180, #842, .T. ) ;
#619 = AXIS2_PLACEMENT_3D ( 'NONE', #232, #221, #631 ) ;
#620 = DIRECTION ( 'NONE',  ( 0.000000000000000000, 0.000000000000000000, 1.000000000000000000 ) ) ;
#621 = AXIS2_PLACEMENT_3D ( 'NONE', #1110, #254, #559 ) ;
#622 = CC_DESIGN_APPROVAL ( #653, ( #867 ) ) ;
#623 = ORIENTED_EDGE ( 'NONE', *, *, #1237, .T. ) ;
#624 = CARTESIAN_POINT ( 'NONE',  ( 97.00000000000000000, 3.000000000000000000, -209.4999999999998863 ) ) ;
#625 = LINE ( 'NONE', #818, #535 ) ;
#626 = EDGE_LOOP ( 'NONE', ( #580, #1236 ) ) ;
#627 = CARTESIAN_POINT ( 'NONE',  ( 100.0000000000000000, 3.000000000000000000, -206.4999999999998863 ) ) ;
#628 = ADVANCED_FACE ( 'NONE', ( #30 ), #1181, .F. ) ;
#629 = ORIENTED_EDGE ( 'NONE', *, *, #211, .F. ) ;
#630 = APPLICATION_CONTEXT ( 'configuration controlled 3d designs of mechanical parts and assemblies' ) ;
#631 = DIRECTION ( 'NONE',  ( 0.000000000000000000, 0.000000000000000000, 1.000000000000000000 ) ) ;
#632 = LINE ( 'NONE', #714, #216 ) ;
#633 = CYLINDRICAL_SURFACE ( 'NONE', #646, 3.000000000000002665 ) ;
#634 = ORIENTED_EDGE ( 'NONE', *, *, #327, .T. ) ;
#635 = DIRECTION ( 'NONE',  ( 0.000000000000000000, 0.000000000000000000, 1.000000000000000000 ) ) ;
#636 = EDGE_CURVE ( 'NONE', #247, #367, #1233, .T. ) ;
#637 = DIRECTION ( 'NONE',  ( 1.000000000000000000, 0.000000000000000000, -0.000000000000000000 ) ) ;
#638 = CIRCLE ( 'NONE', #920, 3.299999999999997158 ) ;
#639 = CARTESIAN_POINT ( 'NONE',  ( -83.00000000000000000, 0.000000000000000000, 76.00000000000009948 ) ) ;
#640 = AXIS2_PLACEMENT_3D ( 'NONE', #1027, #1132, #357 ) ;
#641 = ORIENTED_EDGE ( 'NONE', *, *, #814, .T. ) ;
#642 = DIRECTION ( 'NONE',  ( -0.000000000000000000, 1.000000000000000000, -0.000000000000000000 ) ) ;
#643 = CIRCLE ( 'NONE', #174, 2.250000000000001776 ) ;
#644 = AXIS2_PLACEMENT_3D ( 'NONE', #335, #34, #524 ) ;
#645 = CARTESIAN_POINT ( 'NONE',  ( -13.99999999999999822, 3.000000000000000000, 79.00000000000009948 ) ) ;
#646 = AXIS2_PLACEMENT_3D ( 'NONE', #149, #937, #1228 ) ;
#647 = EDGE_CURVE ( 'NONE', #866, #900, #575, .T. ) ;
#648 = ORIENTED_EDGE ( 'NONE', *, *, #133, .F. ) ;
#649 = CARTESIAN_POINT ( 'NONE',  ( -97.00000000000000000, 0.000000000000000000, 206.5000000000001137 ) ) ;
#650 = CARTESIAN_POINT ( 'NONE',  ( -90.00000000000000000, 0.000000000000000000, 111.7500000000000995 ) ) ;
#651 = CARTESIAN_POINT ( 'NONE',  ( -6.999999999999992006, 3.000000000000000000, 77.50000000000009948 ) ) ;
#652 = EDGE_LOOP ( 'NONE', ( #629, #1050, #1073, #303 ) ) ;
#653 = APPROVAL ( #441, 'UNSPECIFIED' ) ;
#654 = CARTESIAN_POINT ( 'NONE',  ( 39.00000000000000000, 3.000000000000000000, 187.8000000000001251 ) ) ;
#655 = CARTESIAN_POINT ( 'NONE',  ( -6.999999999999992006, 3.000000000000000000, 75.25000000000009948 ) ) ;
#656 = CARTESIAN_POINT ( 'NONE',  ( -80.00000000000000000, 3.000000000000000000, 79.00000000000009948 ) ) ;
#657 = EDGE_LOOP ( 'NONE', ( #253, #481, #544, #893 ) ) ;
#658 = DIRECTION ( 'NONE',  ( -1.000000000000000000, 0.000000000000000000, 0.000000000000000000 ) ) ;
#659 = EDGE_CURVE ( 'NONE', #948, #1005, #338, .T. ) ;
#660 = DIRECTION ( 'NONE',  ( -0.000000000000000000, -0.000000000000000000, 1.000000000000000000 ) ) ;
#661 = CIRCLE ( 'NONE', #1179, 3.299999999999997158 ) ;
#662 = VECTOR ( 'NONE', #388, 1000.000000000000000 ) ;
#663 = LINE ( 'NONE', #258, #1239 ) ;
#664 = AXIS2_PLACEMENT_3D ( 'NONE', #280, #669, #1046 ) ;
#665 = ORIENTED_EDGE ( 'NONE', *, *, #1101, .F. ) ;
#666 = CC_DESIGN_APPROVAL ( #380, ( #42 ) ) ;
#667 = ORIENTED_EDGE ( 'NONE', *, *, #154, .F. ) ;
#668 = EDGE_CURVE ( 'NONE', #948, #206, #273, .T. ) ;
#669 = DIRECTION ( 'NONE',  ( 0.000000000000000000, -1.000000000000000000, 0.000000000000000000 ) ) ;
#670 = EDGE_LOOP ( 'NONE', ( #55, #379, #569, #956 ) ) ;
#671 = CARTESIAN_POINT ( 'NONE',  ( -97.00000000000000000, 3.000000000000000000, 206.5000000000001137 ) ) ;
#672 = ORIENTED_EDGE ( 'NONE', *, *, #346, .F. ) ;
#673 = EDGE_LOOP ( 'NONE', ( #122, #1089 ) ) ;
#674 = PERSON_AND_ORGANIZATION ( #938, #261 ) ;
#675 = DIRECTION ( 'NONE',  ( 0.000000000000000000, -0.000000000000000000, -1.000000000000000000 ) ) ;
#676 = EDGE_LOOP ( 'NONE', ( #732, #184, #725, #365, #562, #989, #1054, #387 ) ) ;
#677 = LINE ( 'NONE', #1149, #155 ) ;
#678 = EDGE_CURVE ( 'NONE', #206, #702, #821, .T. ) ;
#679 = ORIENTED_EDGE ( 'NONE', *, *, #568, .T. ) ;
#680 = VERTEX_POINT ( 'NONE', #650 ) ;
#681 = DATE_AND_TIME ( #493, #1140 ) ;
#682 = CARTESIAN_POINT ( 'NONE',  ( 81.00000000000000000, 0.000000000000000000, 184.5000000000001421 ) ) ;
#683 = ORIENTED_EDGE ( 'NONE', *, *, #869, .T. ) ;
#684 = CARTESIAN_POINT ( 'NONE',  ( -83.00000000000000000, 0.000000000000000000, 76.00000000000009948 ) ) ;
#685 = AXIS2_PLACEMENT_3D ( 'NONE', #422, #901, #637 ) ;
#686 = AXIS2_PLACEMENT_3D ( 'NONE', #90, #295, #476 ) ;
#687 = CYLINDRICAL_SURFACE ( 'NONE', #861, 3.000000000000002665 ) ;
#688 = EDGE_CURVE ( 'NONE', #86, #188, #739, .T. ) ;
#689 = CIRCLE ( 'NONE', #138, 3.299999999999997158 ) ;
#690 = VERTEX_POINT ( 'NONE', #928 ) ;
#691 = CARTESIAN_POINT ( 'NONE',  ( -16.99999999999999645, 3.000000000000000000, 108.0000000000000995 ) ) ;
#692 = ORIENTED_EDGE ( 'NONE', *, *, #678, .F. ) ;
#693 = CARTESIAN_POINT ( 'NONE',  ( 38.99999999999995737, 3.000000000000000000, -181.1999999999998749 ) ) ;
#694 = FACE_OUTER_BOUND ( 'NONE', #1043, .T. ) ;
#695 = DIRECTION ( 'NONE',  ( 0.000000000000000000, -1.000000000000000000, 0.000000000000000000 ) ) ;
#696 = CARTESIAN_POINT ( 'NONE',  ( 100.0000000000000000, 0.000000000000000000, 206.5000000000001137 ) ) ;
#697 = ORIENTED_EDGE ( 'NONE', *, *, #977, .T. ) ;
#698 = LINE ( 'NONE', #783, #960 ) ;
#699 = DIRECTION ( 'NONE',  ( -0.000000000000000000, 1.000000000000000000, -0.000000000000000000 ) ) ;
#700 = DIRECTION ( 'NONE',  ( 0.000000000000000000, 0.000000000000000000, -1.000000000000000000 ) ) ;
#701 = EDGE_CURVE ( 'NONE', #610, #446, #843, .T. ) ;
#702 = VERTEX_POINT ( 'NONE', #655 ) ;
#703 = LINE ( 'NONE', #596, #415 ) ;
#704 = LINE ( 'NONE', #20, #1160 ) ;
#705 = CIRCLE ( 'NONE', #621, 3.299999999999997158 ) ;
#706 = CARTESIAN_POINT ( 'NONE',  ( 39.00000000000000000, 3.000000000000000000, 184.5000000000001421 ) ) ;
#707 = CIRCLE ( 'NONE', #419, 3.000000000000002665 ) ;
#708 = EDGE_CURVE ( 'NONE', #1126, #1143, #837, .T. ) ;
#709 = ORIENTED_EDGE ( 'NONE', *, *, #359, .T. ) ;
#710 = CARTESIAN_POINT ( 'NONE',  ( 81.00000000000000000, 0.000000000000000000, -184.4999999999998579 ) ) ;
#711 = CARTESIAN_POINT ( 'NONE',  ( -80.00000000000000000, 3.000000000000000000, 111.0000000000000995 ) ) ;
#712 = ORIENTED_EDGE ( 'NONE', *, *, #84, .T. ) ;
#713 = LINE ( 'NONE', #997, #94 ) ;
#714 = CARTESIAN_POINT ( 'NONE',  ( -100.0000000000000000, 3.000000000000000000, -209.4999999999998863 ) ) ;
#715 = ADVANCED_FACE ( 'NONE', ( #545 ), #933, .F. ) ;
#716 = CARTESIAN_POINT ( 'NONE',  ( -6.999999999999992006, 3.000000000000000000, 77.50000000000009948 ) ) ;
#717 = ORIENTED_EDGE ( 'NONE', *, *, #425, .F. ) ;
#718 = DIRECTION ( 'NONE',  ( 0.000000000000000000, 0.000000000000000000, -1.000000000000000000 ) ) ;
#719 = DIRECTION ( 'NONE',  ( 0.000000000000000000, 0.000000000000000000, 1.000000000000000000 ) ) ;
#720 = EDGE_CURVE ( 'NONE', #1180, #347, #740, .T. ) ;
#721 = AXIS2_PLACEMENT_3D ( 'NONE', #332, #815, #719 ) ;
#722 = DIRECTION ( 'NONE',  ( 0.000000000000000000, -1.000000000000000000, 0.000000000000000000 ) ) ;
#723 = AXIS2_PLACEMENT_3D ( 'NONE', #750, #658, #733 ) ;
#724 = VECTOR ( 'NONE', #1127, 1000.000000000000000 ) ;
#725 = ORIENTED_EDGE ( 'NONE', *, *, #972, .T. ) ;
#726 = CARTESIAN_POINT ( 'NONE',  ( -17.00000000000000000, 0.000000000000000000, 79.00000000000009948 ) ) ;
#727 = LINE ( 'NONE', #54, #157 ) ;
#728 = EDGE_CURVE ( 'NONE', #180, #93, #453, .T. ) ;
#729 = EDGE_LOOP ( 'NONE', ( #360, #99, #863, #229 ) ) ;
#730 = ADVANCED_BREP_SHAPE_REPRESENTATION ( '202500145_01_Frame01Assembly_plate02_V1.0', ( #1094, #442 ), #1122 ) ;
#731 = CARTESIAN_POINT ( 'NONE',  ( -80.00000000000000000, 0.000000000000000000, 76.00000000000009948 ) ) ;
#732 = ORIENTED_EDGE ( 'NONE', *, *, #104, .T. ) ;
#733 = DIRECTION ( 'NONE',  ( 0.000000000000000000, 0.000000000000000000, 1.000000000000000000 ) ) ;
#734 = ORIENTED_EDGE ( 'NONE', *, *, #940, .T. ) ;
#735 = EDGE_CURVE ( 'NONE', #895, #128, #1038, .T. ) ;
#736 = DIRECTION ( 'NONE',  ( -0.000000000000000000, 1.000000000000000000, -0.000000000000000000 ) ) ;
#737 = DIRECTION ( 'NONE',  ( 1.000000000000000000, 0.000000000000000000, 0.000000000000000000 ) ) ;
#738 = CARTESIAN_POINT ( 'NONE',  ( 81.00000000000000000, 0.000000000000000000, -181.1999999999998749 ) ) ;
#739 = CIRCLE ( 'NONE', #275, 3.000000000000002665 ) ;
#740 = LINE ( 'NONE', #1114, #538 ) ;
#741 = CIRCLE ( 'NONE', #1087, 3.000000000000002665 ) ;
#742 = APPROVAL_PERSON_ORGANIZATION ( #109, #912, #1137 ) ;
#743 = DIRECTION ( 'NONE',  ( 0.000000000000000000, 0.000000000000000000, -1.000000000000000000 ) ) ;
#744 = VERTEX_POINT ( 'NONE', #178 ) ;
#745 = FACE_OUTER_BOUND ( 'NONE', #617, .T. ) ;
#746 = DIRECTION ( 'NONE',  ( 0.000000000000000000, 0.000000000000000000, -1.000000000000000000 ) ) ;
#747 = FACE_BOUND ( 'NONE', #796, .T. ) ;
#748 = ORIENTED_EDGE ( 'NONE', *, *, #242, .F. ) ;
#749 = EDGE_CURVE ( 'NONE', #426, #599, #823, .T. ) ;
#750 = CARTESIAN_POINT ( 'NONE',  ( -83.00000000000000000, 0.000000000000000000, 76.00000000000009948 ) ) ;
#751 = DIRECTION ( 'NONE',  ( 0.000000000000000000, 0.000000000000000000, -1.000000000000000000 ) ) ;
#752 = CARTESIAN_POINT ( 'NONE',  ( 81.00000000000000000, 3.000000000000000000, -184.4999999999998579 ) ) ;
#753 = ORIENTED_EDGE ( 'NONE', *, *, #352, .F. ) ;
#754 = EDGE_CURVE ( 'NONE', #520, #1148, #705, .T. ) ;
#755 = ORIENTED_EDGE ( 'NONE', *, *, #701, .F. ) ;
#756 = APPLICATION_PROTOCOL_DEFINITION ( 'international standard', 'config_control_design', 1994, #630 ) ;
#757 = CARTESIAN_POINT ( 'NONE',  ( 97.00000000000000000, 3.000000000000000000, -209.4999999999998863 ) ) ;
#758 = CIRCLE ( 'NONE', #515, 3.000000000000002665 ) ;
#759 = PRODUCT ( '202500145_01_Frame01Assembly_plate02_V1.0', '202500145_01_Frame01Assembly_plate02_V1.0', '', ( #292 ) ) ;
#760 = VECTOR ( 'NONE', #809, 1000.000000000000000 ) ;
#761 = ORIENTED_EDGE ( 'NONE', *, *, #352, .T. ) ;
#762 = FACE_BOUND ( 'NONE', #626, .T. ) ;
#763 = AXIS2_PLACEMENT_3D ( 'NONE', #609, #48, #806 ) ;
#764 = EDGE_LOOP ( 'NONE', ( #503, #1081, #1, #106 ) ) ;
#765 = CIRCLE ( 'NONE', #222, 2.250000000000001776 ) ;
#766 = ORIENTED_EDGE ( 'NONE', *, *, #479, .F. ) ;
#767 = DATE_AND_TIME ( #571, #98 ) ;
#768 = CYLINDRICAL_SURFACE ( 'NONE', #664, 3.000000000000002665 ) ;
#769 = EDGE_CURVE ( 'NONE', #541, #1148, #170, .T. ) ;
#770 = ORIENTED_EDGE ( 'NONE', *, *, #218, .F. ) ;
#771 = DIRECTION ( 'NONE',  ( -0.000000000000000000, 1.000000000000000000, -0.000000000000000000 ) ) ;
#772 = ORIENTED_EDGE ( 'NONE', *, *, #435, .T. ) ;
#773 = ORIENTED_EDGE ( 'NONE', *, *, #407, .T. ) ;
#774 = PERSON_AND_ORGANIZATION_ROLE ( 'design_owner' ) ;
#775 = CARTESIAN_POINT ( 'NONE',  ( -83.00000000000000000, 3.000000000000000000, 79.00000000000009948 ) ) ;
#776 = EDGE_CURVE ( 'NONE', #981, #406, #643, .T. ) ;
#777 = ORIENTED_EDGE ( 'NONE', *, *, #846, .T. ) ;
#778 = CARTESIAN_POINT ( 'NONE',  ( -97.00000000000000000, 0.000000000000000000, -206.4999999999998863 ) ) ;
#779 = ORIENTED_EDGE ( 'NONE', *, *, #33, .F. ) ;
#780 = CARTESIAN_POINT ( 'NONE',  ( 81.00000000000000000, 3.000000000000000000, 184.5000000000001421 ) ) ;
#781 = DESIGN_CONTEXT ( 'detailed design', #630, 'design' ) ;
#782 = ORIENTED_EDGE ( 'NONE', *, *, #84, .F. ) ;
#783 = CARTESIAN_POINT ( 'NONE',  ( 39.00000000000000000, 3.000000000000000000, 187.8000000000001251 ) ) ;
#784 = AXIS2_PLACEMENT_3D ( 'NONE', #576, #26, #891 ) ;
#785 = AXIS2_PLACEMENT_3D ( 'NONE', #207, #882, #1171 ) ;
#786 = DIRECTION ( 'NONE',  ( 0.000000000000000000, 0.000000000000000000, 1.000000000000000000 ) ) ;
#787 = CIRCLE ( 'NONE', #117, 3.299999999999997158 ) ;
#788 = CC_DESIGN_APPROVAL ( #912, ( #35 ) ) ;
#789 = APPLICATION_PROTOCOL_DEFINITION ( 'international standard', 'config_control_design', 1994, #414 ) ;
#790 = DIRECTION ( 'NONE',  ( 0.000000000000000000, -1.000000000000000000, 0.000000000000000000 ) ) ;
#791 = ORIENTED_EDGE ( 'NONE', *, *, #568, .F. ) ;
#792 = DIRECTION ( 'NONE',  ( -0.000000000000000000, 1.000000000000000000, -0.000000000000000000 ) ) ;
#793 = VERTEX_POINT ( 'NONE', #447 ) ;
#794 = ADVANCED_FACE ( 'NONE', ( #832 ), #1212, .F. ) ;
#795 = CARTESIAN_POINT ( 'NONE',  ( -6.999999999999992006, 0.000000000000000000, 107.2500000000000853 ) ) ;
#796 = EDGE_LOOP ( 'NONE', ( #163, #146 ) ) ;
#797 = CYLINDRICAL_SURFACE ( 'NONE', #862, 3.299999999999997158 ) ;
#798 = CARTESIAN_POINT ( 'NONE',  ( 81.00000000000000000, 3.000000000000000000, -187.7999999999998693 ) ) ;
#799 = EDGE_CURVE ( 'NONE', #347, #281, #156, .T. ) ;
#800 = FACE_OUTER_BOUND ( 'NONE', #915, .T. ) ;
#801 = EDGE_LOOP ( 'NONE', ( #692, #986 ) ) ;
#802 = VECTOR ( 'NONE', #737, 1000.000000000000000 ) ;
#803 = DIRECTION ( 'NONE',  ( 0.000000000000000000, 0.000000000000000000, -1.000000000000000000 ) ) ;
#804 = VECTOR ( 'NONE', #1064, 1000.000000000000000 ) ;
#805 = AXIS2_PLACEMENT_3D ( 'NONE', #682, #790, #8 ) ;
#806 = DIRECTION ( 'NONE',  ( 0.000000000000000000, 0.000000000000000000, -1.000000000000000000 ) ) ;
#807 = ORIENTED_EDGE ( 'NONE', *, *, #435, .F. ) ;
#808 = ADVANCED_FACE ( 'NONE', ( #976 ), #210, .F. ) ;
#809 = DIRECTION ( 'NONE',  ( -0.000000000000000000, 1.000000000000000000, 0.000000000000000000 ) ) ;
#810 = DIRECTION ( 'NONE',  ( -1.000000000000000000, -0.000000000000000000, -0.000000000000000000 ) ) ;
#811 = CARTESIAN_POINT ( 'NONE',  ( 38.99999999999995737, 3.000000000000000000, -184.4999999999998863 ) ) ;
#812 = ORIENTED_EDGE ( 'NONE', *, *, #248, .F. ) ;
#813 = CYLINDRICAL_SURFACE ( 'NONE', #477, 3.000000000000002665 ) ;
#814 = EDGE_CURVE ( 'NONE', #247, #954, #463, .T. ) ;
#815 = DIRECTION ( 'NONE',  ( -0.000000000000000000, 1.000000000000000000, -0.000000000000000000 ) ) ;
#816 = CARTESIAN_POINT ( 'NONE',  ( 39.00000000000000000, 3.000000000000000000, 184.5000000000001421 ) ) ;
#817 = VERTEX_POINT ( 'NONE', #1053 ) ;
#818 = CARTESIAN_POINT ( 'NONE',  ( -90.00000000000000000, 3.000000000000000000, 75.25000000000009948 ) ) ;
#819 = CALENDAR_DATE ( 2025, 26, 6 ) ;
#820 = CC_DESIGN_PERSON_AND_ORGANIZATION_ASSIGNMENT ( #581, #1145, ( #42 ) ) ;
#821 = CIRCLE ( 'NONE', #39, 2.250000000000001776 ) ;
#822 = CARTESIAN_POINT ( 'NONE',  ( -6.999999999999992006, 3.000000000000000000, 107.2500000000000853 ) ) ;
#823 = CIRCLE ( 'NONE', #1001, 2.250000000000001776 ) ;
#824 = LOCAL_TIME ( 15, 3, 10.00000000000000000, #197 ) ;
#825 = ORIENTED_EDGE ( 'NONE', *, *, #1146, .T. ) ;
#826 = CARTESIAN_POINT ( 'NONE',  ( 81.00000000000000000, 3.000000000000000000, -181.1999999999998749 ) ) ;
#827 = CARTESIAN_POINT ( 'NONE',  ( 81.00000000000000000, 0.000000000000000000, 184.5000000000001421 ) ) ;
#828 = EDGE_LOOP ( 'NONE', ( #1234, #887 ) ) ;
#829 = ADVANCED_FACE ( 'NONE', ( #870 ), #967, .F. ) ;
#830 = DIRECTION ( 'NONE',  ( -1.000000000000000000, 0.000000000000000000, -0.000000000000000000 ) ) ;
#831 = ORIENTED_EDGE ( 'NONE', *, *, #858, .F. ) ;
#832 = FACE_OUTER_BOUND ( 'NONE', #475, .T. ) ;
#833 = CARTESIAN_POINT ( 'NONE',  ( 0.000000000000000000, 0.000000000000000000, 0.000000000000000000 ) ) ;
#834 = ORIENTED_EDGE ( 'NONE', *, *, #769, .F. ) ;
#835 = DIRECTION ( 'NONE',  ( 1.000000000000000000, -0.000000000000000000, 0.000000000000000000 ) ) ;
#836 = CC_DESIGN_PERSON_AND_ORGANIZATION_ASSIGNMENT ( #674, #774, ( #759 ) ) ;
#837 = LINE ( 'NONE', #165, #600 ) ;
#838 = CC_DESIGN_PERSON_AND_ORGANIZATION_ASSIGNMENT ( #1068, #482, ( #42 ) ) ;
#839 = FACE_BOUND ( 'NONE', #220, .T. ) ;
#840 = VERTEX_POINT ( 'NONE', #951 ) ;
#841 = DIRECTION ( 'NONE',  ( -0.000000000000000000, 1.000000000000000000, -0.000000000000000000 ) ) ;
#842 = CIRCLE ( 'NONE', #238, 2.250000000000001776 ) ;
#843 = LINE ( 'NONE', #1217, #439 ) ;
#844 = CIRCLE ( 'NONE', #17, 2.250000000000001776 ) ;
#845 = APPROVAL_PERSON_ORGANIZATION ( #53, #653, #1208 ) ;
#846 = EDGE_CURVE ( 'NONE', #180, #10, #886, .T. ) ;
#847 = FACE_BOUND ( 'NONE', #412, .T. ) ;
#848 = ORIENTED_EDGE ( 'NONE', *, *, #169, .F. ) ;
#849 = FACE_OUTER_BOUND ( 'NONE', #243, .T. ) ;
#850 = DIRECTION ( 'NONE',  ( -0.000000000000000000, 1.000000000000000000, -0.000000000000000000 ) ) ;
#851 = DIRECTION ( 'NONE',  ( 0.000000000000000000, -1.000000000000000000, 0.000000000000000000 ) ) ;
#852 = EDGE_CURVE ( 'NONE', #61, #895, #1100, .T. ) ;
#853 = EDGE_LOOP ( 'NONE', ( #123, #187, #401, #770 ) ) ;
#854 = ORIENTED_EDGE ( 'NONE', *, *, #668, .T. ) ;
#855 = DIRECTION ( 'NONE',  ( 0.000000000000000000, 0.000000000000000000, 1.000000000000000000 ) ) ;
#856 = FACE_OUTER_BOUND ( 'NONE', #652, .T. ) ;
#857 = ORIENTED_EDGE ( 'NONE', *, *, #479, .T. ) ;
#858 = EDGE_CURVE ( 'NONE', #45, #871, #386, .T. ) ;
#859 = EDGE_LOOP ( 'NONE', ( #471, #1113, #962, #284 ) ) ;
#860 = FACE_OUTER_BOUND ( 'NONE', #676, .T. ) ;
#861 = AXIS2_PLACEMENT_3D ( 'NONE', #873, #608, #492 ) ;
#862 = AXIS2_PLACEMENT_3D ( 'NONE', #25, #771, #377 ) ;
#863 = ORIENTED_EDGE ( 'NONE', *, *, #579, .F. ) ;
#864 = DIRECTION ( 'NONE',  ( 1.000000000000000000, 0.000000000000000000, 0.000000000000000000 ) ) ;
#865 = AXIS2_PLACEMENT_3D ( 'NONE', #301, #1075, #88 ) ;
#866 = VERTEX_POINT ( 'NONE', #696 ) ;
#867 = SECURITY_CLASSIFICATION ( '', '', #103 ) ;
#868 = ORIENTED_EDGE ( 'NONE', *, *, #228, .F. ) ;
#869 = EDGE_CURVE ( 'NONE', #744, #468, #518, .T. ) ;
#870 = FACE_OUTER_BOUND ( 'NONE', #1144, .T. ) ;
#871 = VERTEX_POINT ( 'NONE', #1139 ) ;
#872 = DIRECTION ( 'NONE',  ( 0.000000000000000000, -1.000000000000000000, 0.000000000000000000 ) ) ;
#873 = CARTESIAN_POINT ( 'NONE',  ( -80.00000000000000000, 0.000000000000000000, 108.0000000000000995 ) ) ;
#874 = PERSON_AND_ORGANIZATION ( #938, #261 ) ;
#875 = CYLINDRICAL_SURFACE ( 'NONE', #1203, 3.299999999999997158 ) ;
#876 = ORIENTED_EDGE ( 'NONE', *, *, #1216, .F. ) ;
#877 = LINE ( 'NONE', #11, #137 ) ;
#878 = CARTESIAN_POINT ( 'NONE',  ( -6.999999999999992006, 3.000000000000000000, 77.50000000000009948 ) ) ;
#879 = APPROVAL_STATUS ( 'not_yet_approved' ) ;
#880 = CARTESIAN_POINT ( 'NONE',  ( -6.999999999999992006, 3.000000000000000000, 75.25000000000009948 ) ) ;
#881 = ORIENTED_EDGE ( 'NONE', *, *, #708, .T. ) ;
#882 = DIRECTION ( 'NONE',  ( -0.000000000000000000, -1.000000000000000000, 0.000000000000000000 ) ) ;
#883 = EDGE_CURVE ( 'NONE', #563, #86, #1069, .T. ) ;
#884 = AXIS2_PLACEMENT_3D ( 'NONE', #945, #1032, #82 ) ;
#885 = FACE_OUTER_BOUND ( 'NONE', #919, .T. ) ;
#886 = CIRCLE ( 'NONE', #805, 3.299999999999997158 ) ;
#887 = ORIENTED_EDGE ( 'NONE', *, *, #1115, .F. ) ;
#888 = DIRECTION ( 'NONE',  ( 0.000000000000000000, -1.000000000000000000, 0.000000000000000000 ) ) ;
#889 = ORIENTED_EDGE ( 'NONE', *, *, #754, .F. ) ;
#890 = LINE ( 'NONE', #979, #461 ) ;
#891 = DIRECTION ( 'NONE',  ( 0.000000000000000000, 0.000000000000000000, -1.000000000000000000 ) ) ;
#892 = ADVANCED_FACE ( 'NONE', ( #1153 ), #768, .T. ) ;
#893 = ORIENTED_EDGE ( 'NONE', *, *, #228, .T. ) ;
#894 = DIRECTION ( 'NONE',  ( -0.000000000000000000, 1.000000000000000000, -0.000000000000000000 ) ) ;
#895 = VERTEX_POINT ( 'NONE', #183 ) ;
#896 = DIRECTION ( 'NONE',  ( 0.000000000000000000, 0.000000000000000000, -1.000000000000000000 ) ) ;
#897 = CARTESIAN_POINT ( 'NONE',  ( 81.00000000000000000, 0.000000000000000000, 187.8000000000001251 ) ) ;
#898 = ADVANCED_FACE ( 'NONE', ( #1242, #381, #293, #96, #565, #474, #860, #105, #588, #1147 ), #1060, .F. ) ;
#899 = DIRECTION ( 'NONE',  ( 0.000000000000000000, 0.000000000000000000, 1.000000000000000000 ) ) ;
#900 = VERTEX_POINT ( 'NONE', #572 ) ;
#901 = DIRECTION ( 'NONE',  ( 0.000000000000000000, 0.000000000000000000, 1.000000000000000000 ) ) ;
#902 = AXIS2_PLACEMENT_3D ( 'NONE', #574, #107, #315 ) ;
#903 = VERTEX_POINT ( 'NONE', #959 ) ;
#904 = CIRCLE ( 'NONE', #219, 3.299999999999997158 ) ;
#905 = CARTESIAN_POINT ( 'NONE',  ( 39.00000000000000000, 3.000000000000000000, 184.5000000000001421 ) ) ;
#906 = ADVANCED_FACE ( 'NONE', ( #488 ), #875, .F. ) ;
#907 = EDGE_LOOP ( 'NONE', ( #1230, #89, #432, #152 ) ) ;
#908 = LINE ( 'NONE', #47, #1035 ) ;
#909 = DIRECTION ( 'NONE',  ( -0.000000000000000000, 1.000000000000000000, -0.000000000000000000 ) ) ;
#910 = ORIENTED_EDGE ( 'NONE', *, *, #1074, .F. ) ;
#911 = CARTESIAN_POINT ( 'NONE',  ( -80.00000000000000000, 0.000000000000000000, 108.0000000000000995 ) ) ;
#912 = APPROVAL ( #209, 'UNSPECIFIED' ) ;
#913 = DIRECTION ( 'NONE',  ( -0.000000000000000000, 1.000000000000000000, -0.000000000000000000 ) ) ;
#914 = CYLINDRICAL_SURFACE ( 'NONE', #602, 3.299999999999997158 ) ;
#915 = EDGE_LOOP ( 'NONE', ( #337, #641, #949, #734 ) ) ;
#916 = LINE ( 'NONE', #826, #257 ) ;
#917 = DIRECTION ( 'NONE',  ( 0.000000000000000000, -1.000000000000000000, 0.000000000000000000 ) ) ;
#918 = EDGE_CURVE ( 'NONE', #1005, #702, #494, .T. ) ;
#919 = EDGE_LOOP ( 'NONE', ( #342, #1205, #321, #1093 ) ) ;
#920 = AXIS2_PLACEMENT_3D ( 'NONE', #827, #148, #233 ) ;
#921 = CIRCLE ( 'NONE', #516, 2.250000000000001776 ) ;
#922 = DIRECTION ( 'NONE',  ( 0.000000000000000000, -1.000000000000000000, 0.000000000000000000 ) ) ;
#923 = ORIENTED_EDGE ( 'NONE', *, *, #142, .T. ) ;
#924 = CARTESIAN_POINT ( 'NONE',  ( -6.999999999999992006, 0.000000000000000000, 109.5000000000000853 ) ) ;
#925 = CARTESIAN_POINT ( 'NONE',  ( -90.00000000000000000, 3.000000000000000000, 109.5000000000000995 ) ) ;
#926 = ADVANCED_FACE ( 'NONE', ( #1177 ), #914, .F. ) ;
#927 = DIRECTION ( 'NONE',  ( 0.000000000000000000, 0.000000000000000000, -1.000000000000000000 ) ) ;
#928 = CARTESIAN_POINT ( 'NONE',  ( -100.0000000000000000, 3.000000000000000000, 206.5000000000001137 ) ) ;
#929 = CYLINDRICAL_SURFACE ( 'NONE', #1017, 2.250000000000001776 ) ;
#930 = ORIENTED_EDGE ( 'NONE', *, *, #133, .T. ) ;
#931 = CARTESIAN_POINT ( 'NONE',  ( -13.99999999999999822, 0.000000000000000000, 108.0000000000000995 ) ) ;
#932 = EDGE_CURVE ( 'NONE', #367, #1158, #787, .T. ) ;
#933 = CYLINDRICAL_SURFACE ( 'NONE', #300, 2.250000000000001776 ) ;
#934 = CARTESIAN_POINT ( 'NONE',  ( -90.00000000000000000, 3.000000000000000000, 107.2500000000000995 ) ) ;
#935 = ORIENTED_EDGE ( 'NONE', *, *, #728, .F. ) ;
#936 = AXIS2_PLACEMENT_3D ( 'NONE', #132, #917, #532 ) ;
#937 = DIRECTION ( 'NONE',  ( 0.000000000000000000, -1.000000000000000000, 0.000000000000000000 ) ) ;
#938 = PERSON ( 'UNSPECIFIED', 'UNSPECIFIED', 'UNSPECIFIED', ('UNSPECIFIED'), ('UNSPECIFIED'), ('UNSPECIFIED') ) ;
#939 = AXIS2_PLACEMENT_3D ( 'NONE', #323, #1013, #263 ) ;
#940 = EDGE_CURVE ( 'NONE', #1158, #367, #557, .T. ) ;
#941 = DIRECTION ( 'NONE',  ( 0.000000000000000000, -1.000000000000000000, 0.000000000000000000 ) ) ;
#942 = CIRCLE ( 'NONE', #577, 3.299999999999997158 ) ;
#943 = AXIS2_PLACEMENT_3D ( 'NONE', #394, #373, #586 ) ;
#944 = DIRECTION ( 'NONE',  ( -0.000000000000000000, 1.000000000000000000, -0.000000000000000000 ) ) ;
#945 = CARTESIAN_POINT ( 'NONE',  ( 97.00000000000000000, 0.000000000000000000, 206.5000000000001137 ) ) ;
#946 = DIRECTION ( 'NONE',  ( 0.000000000000000000, 0.000000000000000000, 1.000000000000000000 ) ) ;
#947 = EDGE_CURVE ( 'NONE', #446, #690, #517, .T. ) ;
#948 = VERTEX_POINT ( 'NONE', #124 ) ;
#949 = ORIENTED_EDGE ( 'NONE', *, *, #511, .T. ) ;
#950 = DIRECTION ( 'NONE',  ( 0.000000000000000000, 0.000000000000000000, -1.000000000000000000 ) ) ;
#951 = CARTESIAN_POINT ( 'NONE',  ( 81.00000000000000000, 3.000000000000000000, -181.1999999999998749 ) ) ;
#952 = ORIENTED_EDGE ( 'NONE', *, *, #1030, .F. ) ;
#953 = DIRECTION ( 'NONE',  ( -0.000000000000000000, 1.000000000000000000, -0.000000000000000000 ) ) ;
#954 = VERTEX_POINT ( 'NONE', #313 ) ;
#955 = ADVANCED_FACE ( 'NONE', ( #1196 ), #507, .F. ) ;
#956 = ORIENTED_EDGE ( 'NONE', *, *, #511, .F. ) ;
#957 = CYLINDRICAL_SURFACE ( 'NONE', #943, 3.000000000000002665 ) ;
#958 = VECTOR ( 'NONE', #1200, 1000.000000000000000 ) ;
#959 = CARTESIAN_POINT ( 'NONE',  ( -17.00000000000000000, 0.000000000000000000, 111.0000000000000995 ) ) ;
#960 = VECTOR ( 'NONE', #792, 1000.000000000000000 ) ;
#961 = VECTOR ( 'NONE', #416, 1000.000000000000000 ) ;
#962 = ORIENTED_EDGE ( 'NONE', *, *, #647, .F. ) ;
#963 = DIRECTION ( 'NONE',  ( 0.000000000000000000, 0.000000000000000000, -1.000000000000000000 ) ) ;
#964 = AXIS2_PLACEMENT_3D ( 'NONE', #1209, #345, #70 ) ;
#965 = DIRECTION ( 'NONE',  ( 0.000000000000000000, 0.000000000000000000, -1.000000000000000000 ) ) ;
#966 = DATE_TIME_ROLE ( 'creation_date' ) ;
#967 = PLANE ( 'NONE',  #982 ) ;
#968 = ORIENTED_EDGE ( 'NONE', *, *, #1178, .F. ) ;
#969 = CARTESIAN_POINT ( 'NONE',  ( -17.00000000000000000, 3.000000000000000000, 79.00000000000009948 ) ) ;
#970 = ORIENTED_EDGE ( 'NONE', *, *, #248, .T. ) ;
#971 = DIRECTION ( 'NONE',  ( -0.000000000000000000, 1.000000000000000000, -0.000000000000000000 ) ) ;
#972 = EDGE_CURVE ( 'NONE', #4, #690, #224, .T. ) ;
#973 = ORIENTED_EDGE ( 'NONE', *, *, #918, .F. ) ;
#974 = DIRECTION ( 'NONE',  ( 0.000000000000000000, -1.000000000000000000, 0.000000000000000000 ) ) ;
#975 = ORIENTED_EDGE ( 'NONE', *, *, #204, .T. ) ;
#976 = FACE_OUTER_BOUND ( 'NONE', #729, .T. ) ;
#977 = EDGE_CURVE ( 'NONE', #1180, #680, #97, .T. ) ;
#978 = VERTEX_POINT ( 'NONE', #1002 ) ;
#979 = CARTESIAN_POINT ( 'NONE',  ( -83.00000000000000000, 3.000000000000000000, 76.00000000000009948 ) ) ;
#980 = VECTOR ( 'NONE', #1244, 1000.000000000000000 ) ;
#981 = VERTEX_POINT ( 'NONE', #795 ) ;
#982 = AXIS2_PLACEMENT_3D ( 'NONE', #308, #199, #594 ) ;
#983 = APPROVAL_PERSON_ORGANIZATION ( #1045, #380, #182 ) ;
#984 = ORIENTED_EDGE ( 'NONE', *, *, #327, .F. ) ;
#985 = DIRECTION ( 'NONE',  ( 0.000000000000000000, 1.000000000000000000, -0.000000000000000000 ) ) ;
#986 = ORIENTED_EDGE ( 'NONE', *, *, #1082, .F. ) ;
#987 = LINE ( 'NONE', #798, #297 ) ;
#988 = EDGE_CURVE ( 'NONE', #188, #128, #1173, .T. ) ;
#989 = ORIENTED_EDGE ( 'NONE', *, *, #852, .T. ) ;
#990 = DIRECTION ( 'NONE',  ( 0.000000000000000000, 0.000000000000000000, 1.000000000000000000 ) ) ;
#991 = ORIENTED_EDGE ( 'NONE', *, *, #1074, .T. ) ;
#992 = DIRECTION ( 'NONE',  ( 0.000000000000000000, 0.000000000000000000, -1.000000000000000000 ) ) ;
#993 = CARTESIAN_POINT ( 'NONE',  ( 100.0000000000000000, 0.000000000000000000, -206.4999999999998863 ) ) ;
#994 = EDGE_CURVE ( 'NONE', #1176, #541, #1120, .T. ) ;
#995 = CYLINDRICAL_SURFACE ( 'NONE', #1062, 3.299999999999997158 ) ;
#996 = EDGE_LOOP ( 'NONE', ( #973, #623, #854, #326 ) ) ;
#997 = CARTESIAN_POINT ( 'NONE',  ( -83.00000000000000000, 0.000000000000000000, 111.0000000000000995 ) ) ;
#998 = VECTOR ( 'NONE', #245, 1000.000000000000000 ) ;
#999 = CARTESIAN_POINT ( 'NONE',  ( 100.0000000000000000, 3.000000000000000000, -206.4999999999998863 ) ) ;
#1000 = CIRCLE ( 'NONE', #1162, 3.000000000000002665 ) ;
#1001 = AXIS2_PLACEMENT_3D ( 'NONE', #1128, #537, #855 ) ;
#1002 = CARTESIAN_POINT ( 'NONE',  ( -80.00000000000000000, 0.000000000000000000, 111.0000000000000995 ) ) ;
#1003 = EDGE_LOOP ( 'NONE', ( #423, #761, #191, #709, #807, #291, #1118, #683 ) ) ;
#1004 = PLANE ( 'NONE',  #685 ) ;
#1005 = VERTEX_POINT ( 'NONE', #1102 ) ;
#1006 = CARTESIAN_POINT ( 'NONE',  ( 38.99999999999995737, 0.000000000000000000, -184.4999999999998863 ) ) ;
#1007 = EDGE_LOOP ( 'NONE', ( #288, #667, #150, #513 ) ) ;
#1008 = EDGE_CURVE ( 'NONE', #93, #13, #942, .T. ) ;
#1009 = DIRECTION ( 'NONE',  ( -0.000000000000000000, 1.000000000000000000, -0.000000000000000000 ) ) ;
#1010 = CARTESIAN_POINT ( 'NONE',  ( 81.00000000000000000, 3.000000000000000000, 181.2000000000001307 ) ) ;
#1011 = CARTESIAN_POINT ( 'NONE',  ( -80.00000000000000000, 0.000000000000000000, 79.00000000000009948 ) ) ;
#1012 = EDGE_LOOP ( 'NONE', ( #614, #881, #37, #369 ) ) ;
#1013 = DIRECTION ( 'NONE',  ( -0.000000000000000000, 1.000000000000000000, -0.000000000000000000 ) ) ;
#1014 = EDGE_CURVE ( 'NONE', #1143, #4, #741, .T. ) ;
#1015 = CARTESIAN_POINT ( 'NONE',  ( -97.00000000000000000, 3.000000000000000000, 209.5000000000001137 ) ) ;
#1016 = CLOSED_SHELL ( 'NONE', ( #906, #587, #1047, #926, #715, #3, #177, #78, #898, #1210, #186, #1138, #27, #287, #266, #256, #271, #955, #389, #628, #1066, #794, #526, #1231, #312, #892, #1090, #1195, #829, #808, #1202, #51, #64, #542 ) ) ;
#1017 = AXIS2_PLACEMENT_3D ( 'NONE', #651, #944, #1049 ) ;
#1018 = CIRCLE ( 'NONE', #1182, 3.000000000000002665 ) ;
#1019 = DIRECTION ( 'NONE',  ( 0.000000000000000000, 0.000000000000000000, -1.000000000000000000 ) ) ;
#1020 = VECTOR ( 'NONE', #115, 1000.000000000000000 ) ;
#1021 = VERTEX_POINT ( 'NONE', #217 ) ;
#1022 = DIRECTION ( 'NONE',  ( 0.000000000000000000, 0.000000000000000000, 1.000000000000000000 ) ) ;
#1023 = FACE_BOUND ( 'NONE', #102, .T. ) ;
#1024 = ORIENTED_EDGE ( 'NONE', *, *, #977, .F. ) ;
#1025 = EDGE_CURVE ( 'NONE', #978, #376, #603, .T. ) ;
#1026 = DIRECTION ( 'NONE',  ( -0.000000000000000000, 1.000000000000000000, -0.000000000000000000 ) ) ;
#1027 = CARTESIAN_POINT ( 'NONE',  ( -6.999999999999992006, 0.000000000000000000, 77.50000000000009948 ) ) ;
#1028 = DIRECTION ( 'NONE',  ( 0.000000000000000000, -1.000000000000000000, 0.000000000000000000 ) ) ;
#1029 = ORIENTED_EDGE ( 'NONE', *, *, #883, .F. ) ;
#1030 = EDGE_CURVE ( 'NONE', #13, #93, #904, .T. ) ;
#1031 = CARTESIAN_POINT ( 'NONE',  ( -90.00000000000000000, 0.000000000000000000, 107.2500000000000995 ) ) ;
#1032 = DIRECTION ( 'NONE',  ( 0.000000000000000000, -1.000000000000000000, 0.000000000000000000 ) ) ;
#1033 = DIRECTION ( 'NONE',  ( 0.000000000000000000, -0.000000000000000000, -1.000000000000000000 ) ) ;
#1034 = ORIENTED_EDGE ( 'NONE', *, *, #1030, .T. ) ;
#1035 = VECTOR ( 'NONE', #429, 1000.000000000000000 ) ;
#1036 = DIRECTION ( 'NONE',  ( 0.000000000000000000, 0.000000000000000000, -1.000000000000000000 ) ) ;
#1037 = CIRCLE ( 'NONE', #74, 3.000000000000002665 ) ;
#1038 = LINE ( 'NONE', #1123, #1163 ) ;
#1039 = AXIS2_PLACEMENT_3D ( 'NONE', #582, #375, #675 ) ;
#1040 = PRODUCT_RELATED_PRODUCT_CATEGORY ( 'detail', '', ( #759 ) ) ;
#1041 = CIRCLE ( 'NONE', #120, 3.299999999999997158 ) ;
#1042 = DIRECTION ( 'NONE',  ( 0.000000000000000000, 0.000000000000000000, 1.000000000000000000 ) ) ;
#1043 = EDGE_LOOP ( 'NONE', ( #212, #277, #265, #201 ) ) ;
#1044 = EDGE_LOOP ( 'NONE', ( #85, #403, #970, #597 ) ) ;
#1045 = PERSON_AND_ORGANIZATION ( #938, #261 ) ;
#1046 = DIRECTION ( 'NONE',  ( 0.000000000000000000, 0.000000000000000000, -1.000000000000000000 ) ) ;
#1047 = ADVANCED_FACE ( 'NONE', ( #613 ), #28, .F. ) ;
#1048 = ORIENTED_EDGE ( 'NONE', *, *, #489, .F. ) ;
#1049 = DIRECTION ( 'NONE',  ( 0.000000000000000000, 0.000000000000000000, 1.000000000000000000 ) ) ;
#1050 = ORIENTED_EDGE ( 'NONE', *, *, #947, .F. ) ;
#1051 = ORIENTED_EDGE ( 'NONE', *, *, #218, .T. ) ;
#1052 = PERSON_AND_ORGANIZATION ( #938, #261 ) ;
#1053 = CARTESIAN_POINT ( 'NONE',  ( -17.00000000000000000, 0.000000000000000000, 76.00000000000009948 ) ) ;
#1054 = ORIENTED_EDGE ( 'NONE', *, *, #735, .T. ) ;
#1055 = LINE ( 'NONE', #192, #662 ) ;
#1056 = CARTESIAN_POINT ( 'NONE',  ( -100.0000000000000000, 3.000000000000000000, -206.4999999999998863 ) ) ;
#1057 = EDGE_LOOP ( 'NONE', ( #952, #355 ) ) ;
#1058 = APPROVAL_DATE_TIME ( #681, #912 ) ;
#1059 = AXIS2_PLACEMENT_3D ( 'NONE', #311, #390, #965 ) ;
#1060 = PLANE ( 'NONE',  #1039 ) ;
#1061 = VECTOR ( 'NONE', #310, 1000.000000000000000 ) ;
#1062 = AXIS2_PLACEMENT_3D ( 'NONE', #905, #134, #44 ) ;
#1063 = ORIENTED_EDGE ( 'NONE', *, *, #647, .T. ) ;
#1064 = DIRECTION ( 'NONE',  ( -1.000000000000000000, -0.000000000000000000, -0.000000000000000000 ) ) ;
#1065 = DIRECTION ( 'NONE',  ( -0.000000000000000000, 1.000000000000000000, 0.000000000000000000 ) ) ;
#1066 = ADVANCED_FACE ( 'NONE', ( #800 ), #995, .F. ) ;
#1067 = ORIENTED_EDGE ( 'NONE', *, *, #306, .F. ) ;
#1068 = PERSON_AND_ORGANIZATION ( #938, #261 ) ;
#1069 = LINE ( 'NONE', #757, #339 ) ;
#1070 = ORIENTED_EDGE ( 'NONE', *, *, #799, .T. ) ;
#1071 = CYLINDRICAL_SURFACE ( 'NONE', #785, 3.000000000000002665 ) ;
#1072 = CARTESIAN_POINT ( 'NONE',  ( 97.00000000000000000, 0.000000000000000000, -209.4999999999998863 ) ) ;
#1073 = ORIENTED_EDGE ( 'NONE', *, *, #1146, .F. ) ;
#1074 = EDGE_CURVE ( 'NONE', #1164, #840, #689, .T. ) ;
#1075 = DIRECTION ( 'NONE',  ( -0.000000000000000000, 1.000000000000000000, -0.000000000000000000 ) ) ;
#1076 = ORIENTED_EDGE ( 'NONE', *, *, #720, .T. ) ;
#1077 = LINE ( 'NONE', #136, #760 ) ;
#1078 = PLANE ( 'NONE',  #195 ) ;
#1079 = SHAPE_DEFINITION_REPRESENTATION ( #1107, #730 ) ;
#1080 = DIRECTION ( 'NONE',  ( -0.000000000000000000, 1.000000000000000000, -0.000000000000000000 ) ) ;
#1081 = ORIENTED_EDGE ( 'NONE', *, *, #242, .T. ) ;
#1082 = EDGE_CURVE ( 'NONE', #702, #206, #844, .T. ) ;
#1083 = DIRECTION ( 'NONE',  ( 0.000000000000000000, -1.000000000000000000, 0.000000000000000000 ) ) ;
#1084 = AXIS2_PLACEMENT_3D ( 'NONE', #1207, #612, #251 ) ;
#1085 = CIRCLE ( 'NONE', #116, 3.000000000000002665 ) ;
#1086 = EDGE_LOOP ( 'NONE', ( #848, #1192 ) ) ;
#1087 = AXIS2_PLACEMENT_3D ( 'NONE', #528, #325, #700 ) ;
#1088 = DIRECTION ( 'NONE',  ( 0.000000000000000000, 1.000000000000000000, -0.000000000000000000 ) ) ;
#1089 = ORIENTED_EDGE ( 'NONE', *, *, #932, .F. ) ;
#1090 = ADVANCED_FACE ( 'NONE', ( #745 ), #457, .F. ) ;
#1091 = DIRECTION ( 'NONE',  ( 0.000000000000000000, -1.000000000000000000, 0.000000000000000000 ) ) ;
#1092 = CARTESIAN_POINT ( 'NONE',  ( 81.00000000000000000, 3.000000000000000000, 184.5000000000001421 ) ) ;
#1093 = ORIENTED_EDGE ( 'NONE', *, *, #1108, .F. ) ;
#1094 = MANIFOLD_SOLID_BREP ( 'Verrundung2', #1016 ) ;
#1095 = CARTESIAN_POINT ( 'NONE',  ( -100.0000000000000000, 3.000000000000000000, 209.5000000000001137 ) ) ;
#1096 = EDGE_LOOP ( 'NONE', ( #868, #876 ) ) ;
#1097 = AXIS2_PLACEMENT_3D ( 'NONE', #1190, #139, #56 ) ;
#1098 = LINE ( 'NONE', #240, #499 ) ;
#1099 = ORIENTED_EDGE ( 'NONE', *, *, #988, .F. ) ;
#1100 = CIRCLE ( 'NONE', #865, 3.000000000000002665 ) ;
#1101 = EDGE_CURVE ( 'NONE', #167, #45, #707, .T. ) ;
#1102 = CARTESIAN_POINT ( 'NONE',  ( -6.999999999999992006, 0.000000000000000000, 75.25000000000009948 ) ) ;
#1103 = ORIENTED_EDGE ( 'NONE', *, *, #506, .F. ) ;
#1104 = CYLINDRICAL_SURFACE ( 'NONE', #1119, 3.299999999999997158 ) ;
#1105 = LINE ( 'NONE', #1015, #1199 ) ;
#1106 = DIRECTION ( 'NONE',  ( 0.000000000000000000, 0.000000000000000000, -1.000000000000000000 ) ) ;
#1107 = PRODUCT_DEFINITION_SHAPE ( 'NONE', 'NONE',  #35 ) ;
#1108 = EDGE_CURVE ( 'NONE', #406, #250, #262, .T. ) ;
#1109 = ORIENTED_EDGE ( 'NONE', *, *, #425, .T. ) ;
#1110 = CARTESIAN_POINT ( 'NONE',  ( 38.99999999999995737, 3.000000000000000000, -184.4999999999998863 ) ) ;
#1111 = DIRECTION ( 'NONE',  ( 0.000000000000000000, 0.000000000000000000, -1.000000000000000000 ) ) ;
#1112 = DIRECTION ( 'NONE',  ( 0.000000000000000000, -1.000000000000000000, 0.000000000000000000 ) ) ;
#1113 = ORIENTED_EDGE ( 'NONE', *, *, #407, .F. ) ;
#1114 = CARTESIAN_POINT ( 'NONE',  ( -90.00000000000000000, 3.000000000000000000, 107.2500000000000995 ) ) ;
#1115 = EDGE_CURVE ( 'NONE', #536, #456, #502, .T. ) ;
#1116 = DIRECTION ( 'NONE',  ( 0.000000000000000000, 0.000000000000000000, -1.000000000000000000 ) ) ;
#1117 = VECTOR ( 'NONE', #1065, 1000.000000000000000 ) ;
#1118 = ORIENTED_EDGE ( 'NONE', *, *, #234, .F. ) ;
#1119 = AXIS2_PLACEMENT_3D ( 'NONE', #1198, #1009, #147 ) ;
#1120 = CIRCLE ( 'NONE', #40, 3.299999999999997158 ) ;
#1121 = PLANE ( 'NONE',  #1224 ) ;
#1122 =( GEOMETRIC_REPRESENTATION_CONTEXT ( 3 ) GLOBAL_UNCERTAINTY_ASSIGNED_CONTEXT ( ( #125 ) ) GLOBAL_UNIT_ASSIGNED_CONTEXT ( ( #487, #285, #81 ) ) REPRESENTATION_CONTEXT ( 'NONE', 'WORKASPACE' ) );
#1123 = CARTESIAN_POINT ( 'NONE',  ( 100.0000000000000000, 3.000000000000000000, 209.5000000000001137 ) ) ;
#1124 = CARTESIAN_POINT ( 'NONE',  ( -6.999999999999992006, 3.000000000000000000, 109.5000000000000853 ) ) ;
#1125 = EDGE_CURVE ( 'NONE', #456, #599, #727, .T. ) ;
#1126 = VERTEX_POINT ( 'NONE', #267 ) ;
#1127 = DIRECTION ( 'NONE',  ( -0.000000000000000000, 1.000000000000000000, -0.000000000000000000 ) ) ;
#1128 = CARTESIAN_POINT ( 'NONE',  ( -90.00000000000000000, 3.000000000000000000, 77.50000000000009948 ) ) ;
#1129 = FACE_BOUND ( 'NONE', #214, .T. ) ;
#1130 = ORIENTED_EDGE ( 'NONE', *, *, #754, .T. ) ;
#1131 = DIRECTION ( 'NONE',  ( 0.000000000000000000, 0.000000000000000000, -1.000000000000000000 ) ) ;
#1132 = DIRECTION ( 'NONE',  ( 0.000000000000000000, -1.000000000000000000, 0.000000000000000000 ) ) ;
#1133 = DIRECTION ( 'NONE',  ( 0.000000000000000000, -1.000000000000000000, 0.000000000000000000 ) ) ;
#1134 = VERTEX_POINT ( 'NONE', #931 ) ;
#1135 = EDGE_LOOP ( 'NONE', ( #766, #172 ) ) ;
#1136 = VECTOR ( 'NONE', #1116, 1000.000000000000000 ) ;
#1137 = APPROVAL_ROLE ( '' ) ;
#1138 = ADVANCED_FACE ( 'NONE', ( #1223 ), #1121, .F. ) ;
#1139 = CARTESIAN_POINT ( 'NONE',  ( -83.00000000000000000, 3.000000000000000000, 79.00000000000009948 ) ) ;
#1140 = LOCAL_TIME ( 15, 3, 10.00000000000000000, #278 ) ;
#1141 = EDGE_LOOP ( 'NONE', ( #592, #779, #1174, #508 ) ) ;
#1142 = CARTESIAN_POINT ( 'NONE',  ( 100.0000000000000000, 0.000000000000000000, 209.5000000000001137 ) ) ;
#1143 = VERTEX_POINT ( 'NONE', #436 ) ;
#1144 = EDGE_LOOP ( 'NONE', ( #1238, #523, #1103, #126 ) ) ;
#1145 = PERSON_AND_ORGANIZATION_ROLE ( 'creator' ) ;
#1146 = EDGE_CURVE ( 'NONE', #570, #446, #176, .T. ) ;
#1147 = FACE_BOUND ( 'NONE', #1057, .T. ) ;
#1148 = VERTEX_POINT ( 'NONE', #65 ) ;
#1149 = CARTESIAN_POINT ( 'NONE',  ( -100.0000000000000000, 3.000000000000000000, -206.4999999999998863 ) ) ;
#1150 = CARTESIAN_POINT ( 'NONE',  ( 81.00000000000000000, 3.000000000000000000, 187.8000000000001251 ) ) ;
#1151 = EDGE_LOOP ( 'NONE', ( #889, #573 ) ) ;
#1152 = CARTESIAN_POINT ( 'NONE',  ( 0.000000000000000000, 0.000000000000000000, 0.000000000000000000 ) ) ;
#1153 = FACE_OUTER_BOUND ( 'NONE', #1220, .T. ) ;
#1154 = ORIENTED_EDGE ( 'NONE', *, *, #1237, .F. ) ;
#1155 = CARTESIAN_POINT ( 'NONE',  ( -90.00000000000000000, 0.000000000000000000, 77.50000000000009948 ) ) ;
#1156 = EDGE_CURVE ( 'NONE', #954, #247, #1041, .T. ) ;
#1157 = DIRECTION ( 'NONE',  ( 0.000000000000000000, 0.000000000000000000, -1.000000000000000000 ) ) ;
#1158 = VERTEX_POINT ( 'NONE', #654 ) ;
#1159 = DATE_AND_TIME ( #95, #824 ) ;
#1160 = VECTOR ( 'NONE', #193, 1000.000000000000000 ) ;
#1161 = CARTESIAN_POINT ( 'NONE',  ( 39.00000000000000000, 0.000000000000000000, 184.5000000000001421 ) ) ;
#1162 = AXIS2_PLACEMENT_3D ( 'NONE', #778, #872, #963 ) ;
#1163 = VECTOR ( 'NONE', #746, 1000.000000000000000 ) ;
#1164 = VERTEX_POINT ( 'NONE', #1215 ) ;
#1165 = FACE_OUTER_BOUND ( 'NONE', #907, .T. ) ;
#1166 = LOCAL_TIME ( 15, 3, 10.00000000000000000, #344 ) ;
#1167 = DIRECTION ( 'NONE',  ( -0.000000000000000000, 1.000000000000000000, -0.000000000000000000 ) ) ;
#1168 = EDGE_CURVE ( 'NONE', #981, #259, #558, .T. ) ;
#1169 = DIRECTION ( 'NONE',  ( 0.000000000000000000, 0.000000000000000000, 1.000000000000000000 ) ) ;
#1170 = ORIENTED_EDGE ( 'NONE', *, *, #142, .F. ) ;
#1171 = DIRECTION ( 'NONE',  ( 0.000000000000000000, 0.000000000000000000, -1.000000000000000000 ) ) ;
#1172 = CYLINDRICAL_SURFACE ( 'NONE', #15, 2.250000000000001776 ) ;
#1173 = LINE ( 'NONE', #627, #418 ) ;
#1174 = ORIENTED_EDGE ( 'NONE', *, *, #869, .F. ) ;
#1175 = DIRECTION ( 'NONE',  ( 0.000000000000000000, 0.000000000000000000, 1.000000000000000000 ) ) ;
#1176 = VERTEX_POINT ( 'NONE', #158 ) ;
#1177 = FACE_OUTER_BOUND ( 'NONE', #595, .T. ) ;
#1178 = EDGE_CURVE ( 'NONE', #86, #1126, #465, .T. ) ;
#1179 = AXIS2_PLACEMENT_3D ( 'NONE', #710, #343, #1111 ) ;
#1180 = VERTEX_POINT ( 'NONE', #1031 ) ;
#1181 = CYLINDRICAL_SURFACE ( 'NONE', #939, 3.299999999999997158 ) ;
#1182 = AXIS2_PLACEMENT_3D ( 'NONE', #656, #1133, #171 ) ;
#1183 = VECTOR ( 'NONE', #850, 1000.000000000000000 ) ;
#1184 = CARTESIAN_POINT ( 'NONE',  ( 38.99999999999995737, 3.000000000000000000, -181.1999999999998749 ) ) ;
#1185 = AXIS2_PLACEMENT_3D ( 'NONE', #816, #145, #899 ) ;
#1186 = VECTOR ( 'NONE', #841, 1000.000000000000000 ) ;
#1187 = DIRECTION ( 'NONE',  ( 0.000000000000000000, 0.000000000000000000, -1.000000000000000000 ) ) ;
#1188 = ORIENTED_EDGE ( 'NONE', *, *, #618, .F. ) ;
#1189 = CARTESIAN_POINT ( 'NONE',  ( 38.99999999999995737, 0.000000000000000000, -187.7999999999998977 ) ) ;
#1190 = CARTESIAN_POINT ( 'NONE',  ( -97.00000000000000000, 3.000000000000000000, 206.5000000000001137 ) ) ;
#1191 = CARTESIAN_POINT ( 'NONE',  ( 81.00000000000000000, 3.000000000000000000, -184.4999999999998579 ) ) ;
#1192 = ORIENTED_EDGE ( 'NONE', *, *, #846, .F. ) ;
#1193 = CARTESIAN_POINT ( 'NONE',  ( -80.00000000000000000, 0.000000000000000000, 79.00000000000009948 ) ) ;
#1194 = CARTESIAN_POINT ( 'NONE',  ( 81.00000000000000000, 0.000000000000000000, 181.2000000000001307 ) ) ;
#1195 = ADVANCED_FACE ( 'NONE', ( #849 ), #350, .F. ) ;
#1196 = FACE_OUTER_BOUND ( 'NONE', #464, .T. ) ;
#1197 = VERTEX_POINT ( 'NONE', #738 ) ;
#1198 = CARTESIAN_POINT ( 'NONE',  ( 39.00000000000000000, 3.000000000000000000, 184.5000000000001421 ) ) ;
#1199 = VECTOR ( 'NONE', #1091, 1000.000000000000000 ) ;
#1200 = DIRECTION ( 'NONE',  ( 0.000000000000000000, -1.000000000000000000, -0.000000000000000000 ) ) ;
#1201 = CIRCLE ( 'NONE', #619, 2.250000000000001776 ) ;
#1202 = ADVANCED_FACE ( 'NONE', ( #356 ), #633, .F. ) ;
#1203 = AXIS2_PLACEMENT_3D ( 'NONE', #780, #971, #110 ) ;
#1204 = CARTESIAN_POINT ( 'NONE',  ( -90.00000000000000000, 0.000000000000000000, 77.50000000000009948 ) ) ;
#1205 = ORIENTED_EDGE ( 'NONE', *, *, #1168, .T. ) ;
#1206 = FACE_OUTER_BOUND ( 'NONE', #486, .T. ) ;
#1207 = CARTESIAN_POINT ( 'NONE',  ( -90.00000000000000000, 3.000000000000000000, 109.5000000000000995 ) ) ;
#1208 = APPROVAL_ROLE ( '' ) ;
#1209 = CARTESIAN_POINT ( 'NONE',  ( 100.0000000000000000, 3.000000000000000000, 209.5000000000001137 ) ) ;
#1210 = ADVANCED_FACE ( 'NONE', ( #534 ), #445, .F. ) ;
#1211 = ORIENTED_EDGE ( 'NONE', *, *, #322, .F. ) ;
#1212 = CYLINDRICAL_SURFACE ( 'NONE', #371, 3.299999999999997158 ) ;
#1213 = PLANE ( 'NONE',  #598 ) ;
#1214 = ORIENTED_EDGE ( 'NONE', *, *, #560, .T. ) ;
#1215 = CARTESIAN_POINT ( 'NONE',  ( 81.00000000000000000, 3.000000000000000000, -187.7999999999998693 ) ) ;
#1216 = EDGE_CURVE ( 'NONE', #259, #250, #765, .T. ) ;
#1217 = CARTESIAN_POINT ( 'NONE',  ( -100.0000000000000000, 0.000000000000000000, 209.5000000000001137 ) ) ;
#1218 = DIRECTION ( 'NONE',  ( -0.000000000000000000, 1.000000000000000000, -0.000000000000000000 ) ) ;
#1219 = VECTOR ( 'NONE', #153, 1000.000000000000000 ) ;
#1220 = EDGE_LOOP ( 'NONE', ( #330, #1099, #143, #1029 ) ) ;
#1221 = CIRCLE ( 'NONE', #686, 2.250000000000001776 ) ;
#1222 = AXIS2_PLACEMENT_3D ( 'NONE', #811, #424, #235 ) ;
#1223 = FACE_OUTER_BOUND ( 'NONE', #32, .T. ) ;
#1224 = AXIS2_PLACEMENT_3D ( 'NONE', #60, #835, #1036 ) ;
#1225 = CARTESIAN_POINT ( 'NONE',  ( 81.00000000000000000, 3.000000000000000000, 181.2000000000001307 ) ) ;
#1226 = CARTESIAN_POINT ( 'NONE',  ( -6.999999999999992006, 3.000000000000000000, 107.2500000000000853 ) ) ;
#1227 = VERTEX_POINT ( 'NONE', #548 ) ;
#1228 = DIRECTION ( 'NONE',  ( 0.000000000000000000, 0.000000000000000000, -1.000000000000000000 ) ) ;
#1229 = DIRECTION ( 'NONE',  ( 0.000000000000000000, 0.000000000000000000, -1.000000000000000000 ) ) ;
#1230 = ORIENTED_EDGE ( 'NONE', *, *, #1014, .F. ) ;
#1231 = ADVANCED_FACE ( 'NONE', ( #543 ), #957, .T. ) ;
#1232 = ORIENTED_EDGE ( 'NONE', *, *, #776, .F. ) ;
#1233 = LINE ( 'NONE', #249, #478 ) ;
#1234 = ORIENTED_EDGE ( 'NONE', *, *, #374, .F. ) ;
#1235 = CARTESIAN_POINT ( 'NONE',  ( -17.00000000000000000, 3.000000000000000000, 76.00000000000009948 ) ) ;
#1236 = ORIENTED_EDGE ( 'NONE', *, *, #814, .F. ) ;
#1237 = EDGE_CURVE ( 'NONE', #1005, #948, #279, .T. ) ;
#1238 = ORIENTED_EDGE ( 'NONE', *, *, #234, .T. ) ;
#1239 = VECTOR ( 'NONE', #83, 1000.000000000000000 ) ;
#1240 = COORDINATED_UNIVERSAL_TIME_OFFSET ( 1, 0, .AHEAD. ) ;
#1241 = CIRCLE ( 'NONE', #196, 3.299999999999997158 ) ;
#1242 = FACE_BOUND ( 'NONE', #1003, .T. ) ;
#1243 = ORIENTED_EDGE ( 'NONE', *, *, #659, .F. ) ;
#1244 = DIRECTION ( 'NONE',  ( 0.000000000000000000, 0.000000000000000000, 1.000000000000000000 ) ) ;
#1245 = ORIENTED_EDGE ( 'NONE', *, *, #547, .F. ) ;
ENDSEC;
END-ISO-10303-21;
