ISO-10303-21;
HEADER;
FILE_DESCRIPTION (( 'STEP AP203' ),
    '1' );
FILE_NAME ('202500145_09_trolleybase_bracket02_V1.0.STEP',
    '2025-06-26T12:59:04',
    ( '' ),
    ( '' ),
    'SwSTEP 2.0',
    'SolidWorks 2021',
    '' );
FILE_SCHEMA (( 'CONFIG_CONTROL_DESIGN' ));
ENDSEC;

DATA;
#1 = CARTESIAN_POINT ( 'NONE',  ( -12.49999999999999289, -8.000000000000000000, 60.00000000000000000 ) ) ;
#2 = VERTEX_POINT ( 'NONE', #105 ) ;
#3 = VECTOR ( 'NONE', #152, 1000.000000000000000 ) ;
#4 = ADVANCED_FACE ( 'NONE', ( #421 ), #648, .T. ) ;
#5 = CARTESIAN_POINT ( 'NONE',  ( -12.50000000000000711, 0.000000000000000000, -55.50000000000000000 ) ) ;
#6 = DIRECTION ( 'NONE',  ( 0.000000000000000000, -1.000000000000000000, 0.000000000000000000 ) ) ;
#7 = VERTEX_POINT ( 'NONE', #587 ) ;
#8 = DIRECTION ( 'NONE',  ( 0.000000000000000000, -1.000000000000000000, 0.000000000000000000 ) ) ;
#9 = FACE_BOUND ( 'NONE', #33, .T. ) ;
#10 = ORIENTED_EDGE ( 'NONE', *, *, #329, .T. ) ;
#11 = DIRECTION ( 'NONE',  ( 0.000000000000000000, -1.000000000000000000, 0.000000000000000000 ) ) ;
#12 = CARTESIAN_POINT ( 'NONE',  ( -12.49999999999999289, 0.000000000000000000, 60.00000000000000000 ) ) ;
#13 = ORIENTED_EDGE ( 'NONE', *, *, #228, .F. ) ;
#14 = CIRCLE ( 'NONE', #28, 16.00000000000000000 ) ;
#15 = CIRCLE ( 'NONE', #625, 4.500000000000003553 ) ;
#16 = CARTESIAN_POINT ( 'NONE',  ( 16.50000000000002132, -8.000000000000000000, 100.0000000000000284 ) ) ;
#17 = PLANE ( 'NONE',  #232 ) ;
#18 = VERTEX_POINT ( 'NONE', #180 ) ;
#19 = EDGE_CURVE ( 'NONE', #611, #620, #54, .T. ) ;
#20 = CARTESIAN_POINT ( 'NONE',  ( 32.50000000000026290, -85.00000000000001421, 94.99999999999997158 ) ) ;
#21 = CARTESIAN_POINT ( 'NONE',  ( 16.50000000000002132, -16.00000000000000000, 100.0000000000000284 ) ) ;
#22 = PRODUCT ( '202500145_09_trolleybase_bracket02_V1.0', '202500145_09_trolleybase_bracket02_V1.0', '', ( #296 ) ) ;
#23 = ORIENTED_EDGE ( 'NONE', *, *, #532, .F. ) ;
#24 = EDGE_CURVE ( 'NONE', #258, #18, #110, .T. ) ;
#25 = DIRECTION ( 'NONE',  ( 1.000000000000000000, -0.000000000000000000, -0.000000000000000000 ) ) ;
#26 = DIRECTION ( 'NONE',  ( -1.000000000000000000, -3.514504704576386581E-15, -0.000000000000000000 ) ) ;
#27 = ORIENTED_EDGE ( 'NONE', *, *, #584, .F. ) ;
#28 = AXIS2_PLACEMENT_3D ( 'NONE', #21, #84, #697 ) ;
#29 = DIRECTION ( 'NONE',  ( -1.000000000000000000, -3.491481338843133355E-15, 0.000000000000000000 ) ) ;
#30 = AXIS2_PLACEMENT_3D ( 'NONE', #1, #8, #360 ) ;
#31 = EDGE_CURVE ( 'NONE', #319, #482, #775, .T. ) ;
#32 = CARTESIAN_POINT ( 'NONE',  ( -32.50000000000000711, 0.000000000000000000, 100.0000000000000284 ) ) ;
#33 = EDGE_LOOP ( 'NONE', ( #130, #183 ) ) ;
#34 = CARTESIAN_POINT ( 'NONE',  ( 16.50000000000002132, -16.00000000000000000, -99.99999999999997158 ) ) ;
#35 = DIRECTION ( 'NONE',  ( -1.000000000000000000, -3.491481338843133355E-15, 0.000000000000000000 ) ) ;
#36 = ORIENTED_EDGE ( 'NONE', *, *, #642, .T. ) ;
#37 = PERSON_AND_ORGANIZATION ( #175, #333 ) ;
#38 = LINE ( 'NONE', #443, #369 ) ;
#39 = ORIENTED_EDGE ( 'NONE', *, *, #458, .T. ) ;
#40 = DATE_AND_TIME ( #766, #235 ) ;
#41 = VECTOR ( 'NONE', #737, 1000.000000000000000 ) ;
#42 = CARTESIAN_POINT ( 'NONE',  ( 24.50000000000028066, -89.99999999999992895, -90.00000000000004263 ) ) ;
#43 = AXIS2_PLACEMENT_3D ( 'NONE', #162, #404, #401 ) ;
#44 = ORIENTED_EDGE ( 'NONE', *, *, #736, .T. ) ;
#45 = CC_DESIGN_APPROVAL ( #223, ( #578 ) ) ;
#46 = ADVANCED_FACE ( 'NONE', ( #772 ), #119, .F. ) ;
#47 = ORIENTED_EDGE ( 'NONE', *, *, #750, .F. ) ;
#48 = CARTESIAN_POINT ( 'NONE',  ( -32.50000000000000711, -8.000000000000000000, 100.0000000000000284 ) ) ;
#49 = CYLINDRICAL_SURFACE ( 'NONE', #448, 4.499999999999997335 ) ;
#50 = VERTEX_POINT ( 'NONE', #657 ) ;
#51 = CC_DESIGN_PERSON_AND_ORGANIZATION_ASSIGNMENT ( #655, #520, ( #135 ) ) ;
#52 = PERSON_AND_ORGANIZATION ( #175, #333 ) ;
#53 = CARTESIAN_POINT ( 'NONE',  ( 32.50000000000013500, -47.00000000000002132, 60.00000000000003553 ) ) ;
#54 = LINE ( 'NONE', #468, #382 ) ;
#55 = ORIENTED_EDGE ( 'NONE', *, *, #692, .T. ) ;
#56 = ADVANCED_FACE ( 'NONE', ( #240 ), #49, .F. ) ;
#57 = FACE_OUTER_BOUND ( 'NONE', #402, .T. ) ;
#58 = ORIENTED_EDGE ( 'NONE', *, *, #524, .F. ) ;
#59 = VECTOR ( 'NONE', #699, 1000.000000000000000 ) ;
#60 = AXIS2_PLACEMENT_3D ( 'NONE', #763, #143, #215 ) ;
#61 = CARTESIAN_POINT ( 'NONE',  ( 32.50000000000013500, -47.00000000000002132, 60.00000000000003553 ) ) ;
#62 = CARTESIAN_POINT ( 'NONE',  ( 32.49999999999999289, -7.999999999999972466, -99.99999999999997158 ) ) ;
#63 = ORIENTED_EDGE ( 'NONE', *, *, #24, .F. ) ;
#64 = CARTESIAN_POINT ( 'NONE',  ( 24.50000000000002132, -15.99999999999997335, -99.99999999999997158 ) ) ;
#65 = FACE_OUTER_BOUND ( 'NONE', #738, .T. ) ;
#66 = ORIENTED_EDGE ( 'NONE', *, *, #161, .T. ) ;
#67 = CARTESIAN_POINT ( 'NONE',  ( 24.49999999999996447, 1.142214028987324469E-13, 0.000000000000000000 ) ) ;
#68 = LINE ( 'NONE', #308, #462 ) ;
#69 = ORIENTED_EDGE ( 'NONE', *, *, #466, .F. ) ;
#70 = CIRCLE ( 'NONE', #473, 16.00000000000000000 ) ;
#71 = AXIS2_PLACEMENT_3D ( 'NONE', #34, #632, #566 ) ;
#72 = LINE ( 'NONE', #64, #288 ) ;
#73 = CARTESIAN_POINT ( 'NONE',  ( 24.50000000000002132, -15.99999999999997335, 100.0000000000000284 ) ) ;
#74 = VERTEX_POINT ( 'NONE', #122 ) ;
#75 = DIRECTION ( 'NONE',  ( 0.000000000000000000, 1.000000000000000000, 3.604620209821934815E-16 ) ) ;
#76 = DIRECTION ( 'NONE',  ( 0.000000000000000000, -0.000000000000000000, -1.000000000000000000 ) ) ;
#77 = VERTEX_POINT ( 'NONE', #359 ) ;
#78 = CARTESIAN_POINT ( 'NONE',  ( -27.49999999999997158, -8.000000000000000000, -99.99999999999997158 ) ) ;
#79 = ADVANCED_FACE ( 'NONE', ( #115 ), #604, .F. ) ;
#80 = ORIENTED_EDGE ( 'NONE', *, *, #646, .F. ) ;
#81 = AXIS2_PLACEMENT_3D ( 'NONE', #649, #663, #169 ) ;
#82 = APPROVAL_PERSON_ORGANIZATION ( #224, #528, #711 ) ;
#83 = LINE ( 'NONE', #579, #309 ) ;
#84 = DIRECTION ( 'NONE',  ( 0.000000000000000000, 0.000000000000000000, 1.000000000000000000 ) ) ;
#85 = EDGE_CURVE ( 'NONE', #7, #337, #94, .T. ) ;
#86 = ORIENTED_EDGE ( 'NONE', *, *, #256, .T. ) ;
#87 = CARTESIAN_POINT ( 'NONE',  ( -12.49999999999999289, -1.469576158976824785E-16, 55.50000000000000000 ) ) ;
#88 = ORIENTED_EDGE ( 'NONE', *, *, #31, .T. ) ;
#89 = EDGE_CURVE ( 'NONE', #482, #494, #374, .T. ) ;
#90 = DIRECTION ( 'NONE',  ( -0.000000000000000000, -0.000000000000000000, 1.000000000000000000 ) ) ;
#91 = FACE_OUTER_BOUND ( 'NONE', #191, .T. ) ;
#92 = ORIENTED_EDGE ( 'NONE', *, *, #139, .T. ) ;
#93 = CC_DESIGN_PERSON_AND_ORGANIZATION_ASSIGNMENT ( #166, #409, ( #22 ) ) ;
#94 = CIRCLE ( 'NONE', #486, 8.000000000000000000 ) ;
#95 = LINE ( 'NONE', #570, #59 ) ;
#96 = VECTOR ( 'NONE', #188, 1000.000000000000000 ) ;
#97 = LINE ( 'NONE', #327, #274 ) ;
#98 = EDGE_LOOP ( 'NONE', ( #237, #55, #698, #138 ) ) ;
#99 = PERSON_AND_ORGANIZATION ( #175, #333 ) ;
#100 = CARTESIAN_POINT ( 'NONE',  ( 32.50000000000002132, -15.99999999999994493, 100.0000000000000284 ) ) ;
#101 = ORIENTED_EDGE ( 'NONE', *, *, #85, .F. ) ;
#102 = DATE_AND_TIME ( #645, #640 ) ;
#103 = DIRECTION ( 'NONE',  ( 0.000000000000000000, 0.000000000000000000, -1.000000000000000000 ) ) ;
#104 = ADVANCED_FACE ( 'NONE', ( #9, #610, #248 ), #371, .F. ) ;
#105 = CARTESIAN_POINT ( 'NONE',  ( -12.49999999999999289, -1.469576158976824785E-16, 64.50000000000000000 ) ) ;
#106 = CALENDAR_DATE ( 2025, 26, 6 ) ;
#107 = AXIS2_PLACEMENT_3D ( 'NONE', #381, #26, #272 ) ;
#108 = DIRECTION ( 'NONE',  ( 0.000000000000000000, 0.000000000000000000, 1.000000000000000000 ) ) ;
#109 = AXIS2_PLACEMENT_3D ( 'NONE', #157, #330, #561 ) ;
#110 = LINE ( 'NONE', #343, #434 ) ;
#111 = CC_DESIGN_DATE_AND_TIME_ASSIGNMENT ( #777, #716, ( #177 ) ) ;
#112 = VERTEX_POINT ( 'NONE', #606 ) ;
#113 = APPROVAL_DATE_TIME ( #708, #673 ) ;
#114 = DIRECTION ( 'NONE',  ( -0.000000000000000000, 1.000000000000000000, -0.000000000000000000 ) ) ;
#115 = FACE_OUTER_BOUND ( 'NONE', #417, .T. ) ;
#116 = ADVANCED_FACE ( 'NONE', ( #313, #257, #316 ), #125, .T. ) ;
#117 = APPROVAL_STATUS ( 'not_yet_approved' ) ;
#118 = CARTESIAN_POINT ( 'NONE',  ( -12.50000000000000711, 0.000000000000000000, -60.00000000000000000 ) ) ;
#119 = PLANE ( 'NONE',  #498 ) ;
#120 = ADVANCED_FACE ( 'NONE', ( #65 ), #17, .F. ) ;
#121 = PLANE ( 'NONE',  #706 ) ;
#122 = CARTESIAN_POINT ( 'NONE',  ( 24.50000000000013145, -47.00000000000002132, 55.50000000000003553 ) ) ;
#123 = AXIS2_PLACEMENT_3D ( 'NONE', #61, #609, #302 ) ;
#124 = DIRECTION ( 'NONE',  ( -0.000000000000000000, 1.000000000000000000, -0.000000000000000000 ) ) ;
#125 = PLANE ( 'NONE',  #729 ) ;
#126 = ORIENTED_EDGE ( 'NONE', *, *, #466, .T. ) ;
#127 = DIRECTION ( 'NONE',  ( 0.000000000000000000, 0.000000000000000000, 1.000000000000000000 ) ) ;
#128 = DIRECTION ( 'NONE',  ( 0.000000000000000000, -1.000000000000000000, 0.000000000000000000 ) ) ;
#129 = ADVANCED_FACE ( 'NONE', ( #745 ), #489, .F. ) ;
#130 = ORIENTED_EDGE ( 'NONE', *, *, #785, .F. ) ;
#131 = DIRECTION ( 'NONE',  ( 0.000000000000000000, 0.000000000000000000, 1.000000000000000000 ) ) ;
#132 = DIRECTION ( 'NONE',  ( 0.000000000000000000, 0.000000000000000000, 1.000000000000000000 ) ) ;
#133 = EDGE_LOOP ( 'NONE', ( #23, #27 ) ) ;
#134 = VECTOR ( 'NONE', #556, 1000.000000000000000 ) ;
#135 = PRODUCT_DEFINITION_FORMATION_WITH_SPECIFIED_SOURCE ( 'ANY', '', #22, .NOT_KNOWN. ) ;
#136 = CARTESIAN_POINT ( 'NONE',  ( -32.50000000000000711, -8.000000000000000000, -99.99999999999997158 ) ) ;
#137 = LINE ( 'NONE', #554, #167 ) ;
#138 = ORIENTED_EDGE ( 'NONE', *, *, #736, .F. ) ;
#139 = EDGE_CURVE ( 'NONE', #484, #2, #615, .T. ) ;
#140 = DIRECTION ( 'NONE',  ( 3.514504704576386581E-15, -1.000000000000000000, 0.000000000000000000 ) ) ;
#141 = VERTEX_POINT ( 'NONE', #73 ) ;
#142 = APPLICATION_CONTEXT ( 'configuration controlled 3d designs of mechanical parts and assemblies' ) ;
#143 = DIRECTION ( 'NONE',  ( -1.000000000000000000, -3.514504704576386581E-15, -0.000000000000000000 ) ) ;
#144 = CARTESIAN_POINT ( 'NONE',  ( 16.50000000000002132, -16.00000000000000000, -99.99999999999997158 ) ) ;
#145 = VERTEX_POINT ( 'NONE', #428 ) ;
#146 = AXIS2_PLACEMENT_3D ( 'NONE', #12, #431, #132 ) ;
#147 = CIRCLE ( 'NONE', #742, 4.499999999999990230 ) ;
#148 = LINE ( 'NONE', #574, #638 ) ;
#149 = DIRECTION ( 'NONE',  ( 1.000000000000000000, -1.062518129035794345E-14, 0.000000000000000000 ) ) ;
#150 = EDGE_CURVE ( 'NONE', #414, #241, #137, .T. ) ;
#151 = ORIENTED_EDGE ( 'NONE', *, *, #24, .T. ) ;
#152 = DIRECTION ( 'NONE',  ( 1.000000000000000000, 3.514504704576386581E-15, -0.000000000000000000 ) ) ;
#153 = ORIENTED_EDGE ( 'NONE', *, *, #569, .T. ) ;
#154 = LINE ( 'NONE', #334, #3 ) ;
#155 = CARTESIAN_POINT ( 'NONE',  ( 16.50000000000002132, -16.00000000000000000, 100.0000000000000284 ) ) ;
#156 = ORIENTED_EDGE ( 'NONE', *, *, #712, .T. ) ;
#157 = CARTESIAN_POINT ( 'NONE',  ( -12.50000000000000711, -8.000000000000000000, -60.00000000000000000 ) ) ;
#158 = LINE ( 'NONE', #580, #205 ) ;
#159 = EDGE_LOOP ( 'NONE', ( #678, #391, #63, #332 ) ) ;
#160 = CALENDAR_DATE ( 2025, 26, 6 ) ;
#161 = EDGE_CURVE ( 'NONE', #414, #457, #727, .T. ) ;
#162 = CARTESIAN_POINT ( 'NONE',  ( 32.49999999999996447, 1.421532536094775138E-13, 0.000000000000000000 ) ) ;
#163 = APPLICATION_PROTOCOL_DEFINITION ( 'international standard', 'config_control_design', 1994, #142 ) ;
#164 = DIRECTION ( 'NONE',  ( -0.000000000000000000, 1.000000000000000000, -0.000000000000000000 ) ) ;
#165 = EDGE_LOOP ( 'NONE', ( #555, #101, #36, #658 ) ) ;
#166 = PERSON_AND_ORGANIZATION ( #175, #333 ) ;
#167 = VECTOR ( 'NONE', #683, 1000.000000000000000 ) ;
#168 = VECTOR ( 'NONE', #771, 1000.000000000000000 ) ;
#169 = DIRECTION ( 'NONE',  ( -1.000000000000000000, 0.000000000000000000, 0.000000000000000000 ) ) ;
#170 = VECTOR ( 'NONE', #529, 999.9999999999998863 ) ;
#171 = ORIENTED_EDGE ( 'NONE', *, *, #491, .T. ) ;
#172 = EDGE_CURVE ( 'NONE', #141, #254, #68, .T. ) ;
#173 = VERTEX_POINT ( 'NONE', #260 ) ;
#174 = APPROVAL_DATE_TIME ( #353, #528 ) ;
#175 = PERSON ( 'UNSPECIFIED', 'UNSPECIFIED', 'UNSPECIFIED', ('UNSPECIFIED'), ('UNSPECIFIED'), ('UNSPECIFIED') ) ;
#176 = CYLINDRICAL_SURFACE ( 'NONE', #370, 4.499999999999990230 ) ;
#177 = PRODUCT_DEFINITION ( 'UNKNOWN', '', #135, #557 ) ;
#178 = ORIENTED_EDGE ( 'NONE', *, *, #573, .T. ) ;
#179 = FACE_BOUND ( 'NONE', #133, .T. ) ;
#180 = CARTESIAN_POINT ( 'NONE',  ( -27.49999999999997158, 0.000000000000000000, -99.99999999999997158 ) ) ;
#181 = DIRECTION ( 'NONE',  ( 0.000000000000000000, 0.000000000000000000, -1.000000000000000000 ) ) ;
#182 = AXIS2_PLACEMENT_3D ( 'NONE', #770, #783, #293 ) ;
#183 = ORIENTED_EDGE ( 'NONE', *, *, #651, .F. ) ;
#184 = ADVANCED_FACE ( 'NONE', ( #377 ), #190, .F. ) ;
#185 = CARTESIAN_POINT ( 'NONE',  ( -12.49999999999999289, 0.000000000000000000, 55.50000000000000000 ) ) ;
#186 = DIRECTION ( 'NONE',  ( 0.000000000000000000, 1.000000000000000000, -0.000000000000000000 ) ) ;
#187 = ORIENTED_EDGE ( 'NONE', *, *, #325, .T. ) ;
#188 = DIRECTION ( 'NONE',  ( -0.000000000000000000, -0.000000000000000000, -1.000000000000000000 ) ) ;
#189 = EDGE_CURVE ( 'NONE', #18, #173, #499, .T. ) ;
#190 = CYLINDRICAL_SURFACE ( 'NONE', #146, 4.499999999999990230 ) ;
#191 = EDGE_LOOP ( 'NONE', ( #650, #596, #10, #479 ) ) ;
#192 = CARTESIAN_POINT ( 'NONE',  ( 24.49999999999999289, -8.000000000000000000, -99.99999999999997158 ) ) ;
#193 = DIRECTION ( 'NONE',  ( -2.468850131082265738E-15, 0.7071067811865475727, -0.7071067811865475727 ) ) ;
#194 = EDGE_LOOP ( 'NONE', ( #749, #581, #432, #58 ) ) ;
#195 = VECTOR ( 'NONE', #373, 1000.000000000000114 ) ;
#196 = EDGE_CURVE ( 'NONE', #241, #620, #210, .T. ) ;
#197 = CARTESIAN_POINT ( 'NONE',  ( -12.50000000000000711, -8.000000000000000000, -60.00000000000000000 ) ) ;
#198 = CARTESIAN_POINT ( 'NONE',  ( -27.49999999999997158, 0.000000000000000000, -99.99999999999997158 ) ) ;
#199 = ORIENTED_EDGE ( 'NONE', *, *, #303, .T. ) ;
#200 = CYLINDRICAL_SURFACE ( 'NONE', #704, 4.499999999999997335 ) ;
#201 = ORIENTED_EDGE ( 'NONE', *, *, #785, .T. ) ;
#202 = DIRECTION ( 'NONE',  ( 0.000000000000000000, 0.000000000000000000, -1.000000000000000000 ) ) ;
#203 = DIRECTION ( 'NONE',  ( 0.000000000000000000, 0.000000000000000000, 1.000000000000000000 ) ) ;
#204 = ORIENTED_EDGE ( 'NONE', *, *, #19, .F. ) ;
#205 = VECTOR ( 'NONE', #323, 999.9999999999998863 ) ;
#206 = VECTOR ( 'NONE', #29, 1000.000000000000000 ) ;
#207 =( GEOMETRIC_REPRESENTATION_CONTEXT ( 3 ) GLOBAL_UNCERTAINTY_ASSIGNED_CONTEXT ( ( #672 ) ) GLOBAL_UNIT_ASSIGNED_CONTEXT ( ( #747, #451, #397 ) ) REPRESENTATION_CONTEXT ( 'NONE', 'WORKASPACE' ) );
#208 = CARTESIAN_POINT ( 'NONE',  ( 32.50000000000013500, -47.00000000000002132, 55.50000000000003553 ) ) ;
#209 = ADVANCED_FACE ( 'NONE', ( #336 ), #511, .F. ) ;
#210 = LINE ( 'NONE', #515, #665 ) ;
#211 = VERTEX_POINT ( 'NONE', #506 ) ;
#212 = DIRECTION ( 'NONE',  ( -0.000000000000000000, 1.000000000000000000, -0.000000000000000000 ) ) ;
#213 = DIRECTION ( 'NONE',  ( 1.000000000000000000, 3.491481338843133355E-15, 0.000000000000000000 ) ) ;
#214 = ORIENTED_EDGE ( 'NONE', *, *, #419, .T. ) ;
#215 = DIRECTION ( 'NONE',  ( 3.854941057726240267E-15, -1.000000000000000000, 0.000000000000000000 ) ) ;
#216 = DIRECTION ( 'NONE',  ( -2.485130109117986646E-15, 0.7071067811865474617, -0.7071067811865474617 ) ) ;
#217 = ORIENTED_EDGE ( 'NONE', *, *, #256, .F. ) ;
#218 = EDGE_CURVE ( 'NONE', #254, #585, #759, .T. ) ;
#219 = COORDINATED_UNIVERSAL_TIME_OFFSET ( 1, 0, .AHEAD. ) ;
#220 = VECTOR ( 'NONE', #124, 1000.000000000000000 ) ;
#221 = DIRECTION ( 'NONE',  ( 0.000000000000000000, 0.000000000000000000, 1.000000000000000000 ) ) ;
#222 = VERTEX_POINT ( 'NONE', #390 ) ;
#223 = APPROVAL ( #659, 'UNSPECIFIED' ) ;
#224 = PERSON_AND_ORGANIZATION ( #175, #333 ) ;
#225 = LINE ( 'NONE', #239, #263 ) ;
#226 = ORIENTED_EDGE ( 'NONE', *, *, #392, .F. ) ;
#227 = ORIENTED_EDGE ( 'NONE', *, *, #692, .F. ) ;
#228 = EDGE_CURVE ( 'NONE', #620, #317, #97, .T. ) ;
#229 = DIRECTION ( 'NONE',  ( -0.000000000000000000, -0.000000000000000000, 1.000000000000000000 ) ) ;
#230 = ORIENTED_EDGE ( 'NONE', *, *, #196, .T. ) ;
#231 = ORIENTED_EDGE ( 'NONE', *, *, #501, .F. ) ;
#232 = AXIS2_PLACEMENT_3D ( 'NONE', #551, #193, #265 ) ;
#233 = AXIS2_PLACEMENT_3D ( 'NONE', #53, #342, #103 ) ;
#234 = DIRECTION ( 'NONE',  ( 1.000000000000000000, 0.000000000000000000, -0.000000000000000000 ) ) ;
#235 = LOCAL_TIME ( 14, 59, 4.000000000000000000, #341 ) ;
#236 = EDGE_CURVE ( 'NONE', #141, #145, #247, .T. ) ;
#237 = ORIENTED_EDGE ( 'NONE', *, *, #270, .T. ) ;
#238 = ORIENTED_EDGE ( 'NONE', *, *, #367, .F. ) ;
#239 = CARTESIAN_POINT ( 'NONE',  ( -27.49999999999997158, -8.000000000000000000, -99.99999999999997158 ) ) ;
#240 = FACE_OUTER_BOUND ( 'NONE', #500, .T. ) ;
#241 = VERTEX_POINT ( 'NONE', #456 ) ;
#242 = LINE ( 'NONE', #312, #134 ) ;
#243 = DIRECTION ( 'NONE',  ( 1.000000000000000000, -0.000000000000000000, -0.000000000000000000 ) ) ;
#244 = EDGE_LOOP ( 'NONE', ( #324, #301 ) ) ;
#245 = EDGE_CURVE ( 'NONE', #211, #437, #700, .T. ) ;
#246 = LINE ( 'NONE', #192, #463 ) ;
#247 = CIRCLE ( 'NONE', #690, 8.000000000000000000 ) ;
#248 = FACE_BOUND ( 'NONE', #454, .T. ) ;
#249 = VECTOR ( 'NONE', #758, 1000.000000000000000 ) ;
#250 = APPROVAL_PERSON_ORGANIZATION ( #99, #673, #470 ) ;
#251 = ORIENTED_EDGE ( 'NONE', *, *, #679, .T. ) ;
#252 = LINE ( 'NONE', #744, #96 ) ;
#253 = DIRECTION ( 'NONE',  ( -0.000000000000000000, -0.000000000000000000, -1.000000000000000000 ) ) ;
#254 = VERTEX_POINT ( 'NONE', #100 ) ;
#255 = LINE ( 'NONE', #423, #195 ) ;
#256 = EDGE_CURVE ( 'NONE', #254, #112, #567, .T. ) ;
#257 = FACE_BOUND ( 'NONE', #244, .T. ) ;
#258 = VERTEX_POINT ( 'NONE', #339 ) ;
#259 = CARTESIAN_POINT ( 'NONE',  ( 32.50000000000026290, -85.00000000000001421, 94.99999999999997158 ) ) ;
#260 = CARTESIAN_POINT ( 'NONE',  ( -32.50000000000000711, 0.000000000000000000, -94.99999999999994316 ) ) ;
#261 = CLOSED_SHELL ( 'NONE', ( #380, #311, #357, #104, #387, #116, #558, #514, #668, #348, #4, #413, #509, #79, #441, #546, #46, #120, #129, #209, #773, #184, #405, #56 ) ) ;
#262 = ORIENTED_EDGE ( 'NONE', *, *, #478, .F. ) ;
#263 = VECTOR ( 'NONE', #480, 1000.000000000000000 ) ;
#264 = DIRECTION ( 'NONE',  ( 0.000000000000000000, 0.000000000000000000, 1.000000000000000000 ) ) ;
#265 = DIRECTION ( 'NONE',  ( -1.000000000000000000, -3.491481338843133355E-15, 0.000000000000000000 ) ) ;
#266 = EDGE_LOOP ( 'NONE', ( #552, #681, #752, #251 ) ) ;
#267 = LINE ( 'NONE', #208, #755 ) ;
#268 = DIRECTION ( 'NONE',  ( -0.000000000000000000, -0.000000000000000000, -1.000000000000000000 ) ) ;
#269 = EDGE_LOOP ( 'NONE', ( #776, #661, #39, #178 ) ) ;
#270 = EDGE_CURVE ( 'NONE', #74, #278, #536, .T. ) ;
#271 = CARTESIAN_POINT ( 'NONE',  ( -12.50000000000000711, -1.469576158976824785E-16, -60.00000000000000000 ) ) ;
#272 = DIRECTION ( 'NONE',  ( 3.854941057726240267E-15, -1.000000000000000000, 0.000000000000000000 ) ) ;
#273 = EDGE_LOOP ( 'NONE', ( #291, #372, #565, #507 ) ) ;
#274 = VECTOR ( 'NONE', #216, 1000.000000000000114 ) ;
#275 = APPROVAL_PERSON_ORGANIZATION ( #415, #223, #597 ) ;
#276 = DIRECTION ( 'NONE',  ( 3.514504704576386581E-15, -1.000000000000000000, -3.604620209821934815E-16 ) ) ;
#277 = DIRECTION ( 'NONE',  ( -0.000000000000000000, 1.000000000000000000, -0.000000000000000000 ) ) ;
#278 = VERTEX_POINT ( 'NONE', #503 ) ;
#279 = CARTESIAN_POINT ( 'NONE',  ( -12.49999999999999289, -1.469576158976824785E-16, 60.00000000000000000 ) ) ;
#280 = ADVANCED_BREP_SHAPE_REPRESENTATION ( '202500145_09_trolleybase_bracket02_V1.0', ( #762, #182 ), #207 ) ;
#281 = DIRECTION ( 'NONE',  ( -0.000000000000000000, -0.000000000000000000, -1.000000000000000000 ) ) ;
#282 = EDGE_CURVE ( 'NONE', #222, #484, #547, .T. ) ;
#283 = ORIENTED_EDGE ( 'NONE', *, *, #236, .T. ) ;
#284 = PERSON_AND_ORGANIZATION_ROLE ( 'creator' ) ;
#285 = DIRECTION ( 'NONE',  ( 0.000000000000000000, 0.000000000000000000, 1.000000000000000000 ) ) ;
#286 = ORIENTED_EDGE ( 'NONE', *, *, #505, .F. ) ;
#287 = VECTOR ( 'NONE', #527, 999.9999999999998863 ) ;
#288 = VECTOR ( 'NONE', #127, 1000.000000000000000 ) ;
#289 = DIRECTION ( 'NONE',  ( 2.485130109117986646E-15, -0.7071067811865474617, 0.7071067811865474617 ) ) ;
#290 = CARTESIAN_POINT ( 'NONE',  ( -32.50000000000000711, 0.000000000000000000, 95.00000000000000000 ) ) ;
#291 = ORIENTED_EDGE ( 'NONE', *, *, #419, .F. ) ;
#292 = EDGE_CURVE ( 'NONE', #366, #465, #158, .T. ) ;
#293 = DIRECTION ( 'NONE',  ( 1.000000000000000000, 0.000000000000000000, 0.000000000000000000 ) ) ;
#294 = FACE_OUTER_BOUND ( 'NONE', #768, .T. ) ;
#295 = VERTEX_POINT ( 'NONE', #87 ) ;
#296 = MECHANICAL_CONTEXT ( 'NONE', #142, 'mechanical' ) ;
#297 = CARTESIAN_POINT ( 'NONE',  ( 32.49999999999996447, 1.421532536094775138E-13, -99.99999999999997158 ) ) ;
#298 = APPROVAL_DATE_TIME ( #40, #223 ) ;
#299 = AXIS2_PLACEMENT_3D ( 'NONE', #460, #756, #705 ) ;
#300 = DIRECTION ( 'NONE',  ( 1.000000000000000000, 3.469446951953614189E-15, 0.000000000000000000 ) ) ;
#301 = ORIENTED_EDGE ( 'NONE', *, *, #282, .F. ) ;
#302 = DIRECTION ( 'NONE',  ( 0.000000000000000000, 0.000000000000000000, -1.000000000000000000 ) ) ;
#303 = EDGE_CURVE ( 'NONE', #317, #741, #38, .T. ) ;
#304 = DIRECTION ( 'NONE',  ( -3.514504704576386581E-15, 1.000000000000000000, -0.000000000000000000 ) ) ;
#305 = CARTESIAN_POINT ( 'NONE',  ( -27.49999999999997158, -8.000000000000000000, 100.0000000000000284 ) ) ;
#306 = ORIENTED_EDGE ( 'NONE', *, *, #617, .F. ) ;
#307 = LINE ( 'NONE', #5, #730 ) ;
#308 = CARTESIAN_POINT ( 'NONE',  ( 24.50000000000002132, -15.99999999999997335, 100.0000000000000284 ) ) ;
#309 = VECTOR ( 'NONE', #276, 1000.000000000000000 ) ;
#310 = ORIENTED_EDGE ( 'NONE', *, *, #732, .F. ) ;
#311 = ADVANCED_FACE ( 'NONE', ( #398 ), #200, .F. ) ;
#312 = CARTESIAN_POINT ( 'NONE',  ( -32.50000000000000711, -8.000000000000000000, -99.99999999999997158 ) ) ;
#313 = FACE_BOUND ( 'NONE', #653, .T. ) ;
#314 = ORIENTED_EDGE ( 'NONE', *, *, #725, .T. ) ;
#315 = FACE_OUTER_BOUND ( 'NONE', #159, .T. ) ;
#316 = FACE_OUTER_BOUND ( 'NONE', #412, .T. ) ;
#317 = VERTEX_POINT ( 'NONE', #583 ) ;
#318 = DIRECTION ( 'NONE',  ( 0.000000000000000000, 1.000000000000000000, 0.000000000000000000 ) ) ;
#319 = VERTEX_POINT ( 'NONE', #629 ) ;
#320 = VECTOR ( 'NONE', #455, 1000.000000000000000 ) ;
#321 = AXIS2_PLACEMENT_3D ( 'NONE', #279, #754, #517 ) ;
#322 = DIRECTION ( 'NONE',  ( 0.000000000000000000, 0.000000000000000000, 1.000000000000000000 ) ) ;
#323 = DIRECTION ( 'NONE',  ( 0.7071067811865479058, -0.000000000000000000, -0.7071067811865472397 ) ) ;
#324 = ORIENTED_EDGE ( 'NONE', *, *, #491, .F. ) ;
#325 = EDGE_CURVE ( 'NONE', #482, #734, #686, .T. ) ;
#326 = LINE ( 'NONE', #624, #590 ) ;
#327 = CARTESIAN_POINT ( 'NONE',  ( 32.50000000000024158, -79.99999999999998579, -99.99999999999997158 ) ) ;
#328 = EDGE_LOOP ( 'NONE', ( #153, #535, #126, #283 ) ) ;
#329 = EDGE_CURVE ( 'NONE', #254, #734, #14, .T. ) ;
#330 = DIRECTION ( 'NONE',  ( 0.000000000000000000, -1.000000000000000000, 0.000000000000000000 ) ) ;
#331 = PLANE ( 'NONE',  #81 ) ;
#332 = ORIENTED_EDGE ( 'NONE', *, *, #642, .F. ) ;
#333 = ORGANIZATION ( 'UNSPECIFIED', 'UNSPECIFIED', '' ) ;
#334 = CARTESIAN_POINT ( 'NONE',  ( 32.50000000000002132, -15.99999999999994493, -99.99999999999997158 ) ) ;
#335 = EDGE_CURVE ( 'NONE', #258, #112, #70, .T. ) ;
#336 = FACE_OUTER_BOUND ( 'NONE', #628, .T. ) ;
#337 = VERTEX_POINT ( 'NONE', #386 ) ;
#338 = CALENDAR_DATE ( 2025, 26, 6 ) ;
#339 = CARTESIAN_POINT ( 'NONE',  ( 16.50000000000002132, 0.000000000000000000, -99.99999999999997158 ) ) ;
#340 = VERTEX_POINT ( 'NONE', #633 ) ;
#341 = COORDINATED_UNIVERSAL_TIME_OFFSET ( 1, 0, .AHEAD. ) ;
#342 = DIRECTION ( 'NONE',  ( 1.000000000000000000, -0.000000000000000000, -0.000000000000000000 ) ) ;
#343 = CARTESIAN_POINT ( 'NONE',  ( -32.50000000000000711, 0.000000000000000000, -99.99999999999997158 ) ) ;
#344 = VECTOR ( 'NONE', #281, 1000.000000000000000 ) ;
#345 = CIRCLE ( 'NONE', #396, 4.499999999999997335 ) ;
#346 = CARTESIAN_POINT ( 'NONE',  ( 24.50000000000024869, -80.00000000000001421, 100.0000000000000000 ) ) ;
#347 = CARTESIAN_POINT ( 'NONE',  ( 32.50000000000026290, -85.00000000000001421, -99.99999999999997158 ) ) ;
#348 = ADVANCED_FACE ( 'NONE', ( #91 ), #331, .F. ) ;
#349 = ORIENTED_EDGE ( 'NONE', *, *, #702, .T. ) ;
#350 = APPLICATION_PROTOCOL_DEFINITION ( 'international standard', 'config_control_design', 1994, #696 ) ;
#351 = FACE_OUTER_BOUND ( 'NONE', #266, .T. ) ;
#352 = DIRECTION ( 'NONE',  ( -0.000000000000000000, 0.000000000000000000, 1.000000000000000000 ) ) ;
#353 = DATE_AND_TIME ( #106, #654 ) ;
#354 = FACE_OUTER_BOUND ( 'NONE', #328, .T. ) ;
#355 = EDGE_LOOP ( 'NONE', ( #644, #634, #710, #444 ) ) ;
#356 = VECTOR ( 'NONE', #452, 1000.000000000000000 ) ;
#357 = ADVANCED_FACE ( 'NONE', ( #57 ), #176, .F. ) ;
#358 = CARTESIAN_POINT ( 'NONE',  ( 24.50000000000026290, -85.00000000000004263, 94.99999999999997158 ) ) ;
#359 = CARTESIAN_POINT ( 'NONE',  ( -32.50000000000000711, -8.000000000000000000, 95.00000000000000000 ) ) ;
#360 = DIRECTION ( 'NONE',  ( 0.000000000000000000, 0.000000000000000000, -1.000000000000000000 ) ) ;
#361 = EDGE_CURVE ( 'NONE', #734, #258, #586, .T. ) ;
#362 = CARTESIAN_POINT ( 'NONE',  ( 0.000000000000000000, -8.000000000000000000, 0.000000000000000000 ) ) ;
#363 = EDGE_LOOP ( 'NONE', ( #151, #630, #684, #88, #187, #707 ) ) ;
#364 = DIRECTION ( 'NONE',  ( -0.000000000000000000, 1.000000000000000000, -0.000000000000000000 ) ) ;
#365 = DIRECTION ( 'NONE',  ( -2.485130109117986646E-15, 0.7071067811865474617, 0.7071067811865474617 ) ) ;
#366 = VERTEX_POINT ( 'NONE', #416 ) ;
#367 = EDGE_CURVE ( 'NONE', #457, #585, #717, .T. ) ;
#368 = CARTESIAN_POINT ( 'NONE',  ( -32.50000000000000711, -8.000000000000000000, 95.00000000000000000 ) ) ;
#369 = VECTOR ( 'NONE', #637, 1000.000000000000000 ) ;
#370 = AXIS2_PLACEMENT_3D ( 'NONE', #464, #114, #285 ) ;
#371 = PLANE ( 'NONE',  #636 ) ;
#372 = ORIENTED_EDGE ( 'NONE', *, *, #89, .F. ) ;
#373 = DIRECTION ( 'NONE',  ( 2.485130109117986646E-15, -0.7071067811865474617, -0.7071067811865474617 ) ) ;
#374 = LINE ( 'NONE', #305, #510 ) ;
#375 = ORIENTED_EDGE ( 'NONE', *, *, #732, .T. ) ;
#376 = CARTESIAN_POINT ( 'NONE',  ( -32.50000000000000711, -8.000000000000000000, 100.0000000000000284 ) ) ;
#377 = FACE_OUTER_BOUND ( 'NONE', #378, .T. ) ;
#378 = EDGE_LOOP ( 'NONE', ( #286, #568, #92, #519 ) ) ;
#379 = DIRECTION ( 'NONE',  ( -0.000000000000000000, 1.000000000000000000, -0.000000000000000000 ) ) ;
#380 = ADVANCED_FACE ( 'NONE', ( #526 ), #660, .F. ) ;
#381 = CARTESIAN_POINT ( 'NONE',  ( 24.50000000000013145, -47.00000000000002132, 60.00000000000003553 ) ) ;
#382 = VECTOR ( 'NONE', #406, 1000.000000000000000 ) ;
#383 = ORIENTED_EDGE ( 'NONE', *, *, #139, .F. ) ;
#384 = CIRCLE ( 'NONE', #123, 4.499999999999997335 ) ;
#385 = FACE_OUTER_BOUND ( 'NONE', #165, .T. ) ;
#386 = CARTESIAN_POINT ( 'NONE',  ( 24.50000000000002132, -15.99999999999997335, -99.99999999999997158 ) ) ;
#387 = ADVANCED_FACE ( 'NONE', ( #351 ), #121, .T. ) ;
#388 = ORIENTED_EDGE ( 'NONE', *, *, #329, .F. ) ;
#389 = CARTESIAN_POINT ( 'NONE',  ( 32.50000000000026290, -85.00000000000001421, -94.99999999999994316 ) ) ;
#390 = CARTESIAN_POINT ( 'NONE',  ( -12.49999999999999289, -8.000000000000000000, 55.50000000000000000 ) ) ;
#391 = ORIENTED_EDGE ( 'NONE', *, *, #427, .T. ) ;
#392 = EDGE_CURVE ( 'NONE', #317, #112, #533, .T. ) ;
#393 = DIRECTION ( 'NONE',  ( 0.000000000000000000, -1.000000000000000000, 0.000000000000000000 ) ) ;
#394 = CARTESIAN_POINT ( 'NONE',  ( 32.50000000000002132, -15.99999999999994493, -99.99999999999997158 ) ) ;
#395 = VERTEX_POINT ( 'NONE', #656 ) ;
#396 = AXIS2_PLACEMENT_3D ( 'NONE', #508, #212, #322 ) ;
#397 =( NAMED_UNIT ( * ) SI_UNIT ( $, .STERADIAN. ) SOLID_ANGLE_UNIT ( ) );
#398 = FACE_OUTER_BOUND ( 'NONE', #194, .T. ) ;
#399 = ORIENTED_EDGE ( 'NONE', *, *, #218, .F. ) ;
#400 = COORDINATED_UNIVERSAL_TIME_OFFSET ( 1, 0, .AHEAD. ) ;
#401 = DIRECTION ( 'NONE',  ( 3.514504704576386581E-15, -1.000000000000000000, 0.000000000000000000 ) ) ;
#402 = EDGE_LOOP ( 'NONE', ( #171, #440, #761, #383 ) ) ;
#403 = APPROVAL_STATUS ( 'not_yet_approved' ) ;
#404 = DIRECTION ( 'NONE',  ( -1.000000000000000000, -3.514504704576386581E-15, 0.000000000000000000 ) ) ;
#405 = ADVANCED_FACE ( 'NONE', ( #521 ), #767, .F. ) ;
#406 = DIRECTION ( 'NONE',  ( 0.000000000000000000, 0.000000000000000000, -1.000000000000000000 ) ) ;
#407 = ORIENTED_EDGE ( 'NONE', *, *, #292, .T. ) ;
#408 = VECTOR ( 'NONE', #575, 999.9999999999998863 ) ;
#409 = PERSON_AND_ORGANIZATION_ROLE ( 'design_owner' ) ;
#410 = CIRCLE ( 'NONE', #321, 4.500000000000003553 ) ;
#411 = CARTESIAN_POINT ( 'NONE',  ( 32.50000000000024158, -79.99999999999998579, 100.0000000000000000 ) ) ;
#412 = EDGE_LOOP ( 'NONE', ( #757, #407, #231, #662, #80, #214 ) ) ;
#413 = ADVANCED_FACE ( 'NONE', ( #354 ), #722, .F. ) ;
#414 = VERTEX_POINT ( 'NONE', #358 ) ;
#415 = PERSON_AND_ORGANIZATION ( #175, #333 ) ;
#416 = CARTESIAN_POINT ( 'NONE',  ( -32.50000000000000711, -8.000000000000000000, -94.99999999999994316 ) ) ;
#417 = EDGE_LOOP ( 'NONE', ( #226, #199, #429, #349 ) ) ;
#418 = ORIENTED_EDGE ( 'NONE', *, *, #196, .F. ) ;
#419 = EDGE_CURVE ( 'NONE', #494, #77, #784, .T. ) ;
#420 = PLANE ( 'NONE',  #43 ) ;
#421 = FACE_OUTER_BOUND ( 'NONE', #545, .T. ) ;
#422 = VECTOR ( 'NONE', #591, 1000.000000000000000 ) ;
#423 = CARTESIAN_POINT ( 'NONE',  ( 32.50000000000026290, -85.00000000000001421, 94.99999999999997158 ) ) ;
#424 = LOCAL_TIME ( 14, 59, 4.000000000000000000, #400 ) ;
#425 = EDGE_LOOP ( 'NONE', ( #577, #156, #715, #201 ) ) ;
#426 = DIRECTION ( 'NONE',  ( 0.000000000000000000, 0.000000000000000000, -1.000000000000000000 ) ) ;
#427 = EDGE_CURVE ( 'NONE', #465, #18, #225, .T. ) ;
#428 = CARTESIAN_POINT ( 'NONE',  ( 16.50000000000002132, -8.000000000000000000, 100.0000000000000284 ) ) ;
#429 = ORIENTED_EDGE ( 'NONE', *, *, #478, .T. ) ;
#430 = CARTESIAN_POINT ( 'NONE',  ( 32.50000000000026290, -85.00000000000001421, 100.0000000000000000 ) ) ;
#431 = DIRECTION ( 'NONE',  ( -0.000000000000000000, 1.000000000000000000, -0.000000000000000000 ) ) ;
#432 = ORIENTED_EDGE ( 'NONE', *, *, #651, .T. ) ;
#433 = DIRECTION ( 'NONE',  ( -1.258546419621010478E-30, 3.604620209821934815E-16, -1.000000000000000000 ) ) ;
#434 = VECTOR ( 'NONE', #714, 1000.000000000000000 ) ;
#435 = AXIS2_PLACEMENT_3D ( 'NONE', #430, #433, #75 ) ;
#436 = CARTESIAN_POINT ( 'NONE',  ( -32.50000000000000711, -8.000000000000000000, 95.00000000000000000 ) ) ;
#437 = VERTEX_POINT ( 'NONE', #723 ) ;
#438 = DIRECTION ( 'NONE',  ( 0.000000000000000000, 1.000000000000000000, 0.000000000000000000 ) ) ;
#439 = DIRECTION ( 'NONE',  ( 0.7071067811865472397, -0.000000000000000000, -0.7071067811865479058 ) ) ;
#440 = ORIENTED_EDGE ( 'NONE', *, *, #505, .T. ) ;
#441 = ADVANCED_FACE ( 'NONE', ( #179, #294 ), #420, .F. ) ;
#442 = PLANE ( 'NONE',  #71 ) ;
#443 = CARTESIAN_POINT ( 'NONE',  ( 32.50000000000024158, -79.99999999999998579, -99.99999999999997158 ) ) ;
#444 = ORIENTED_EDGE ( 'NONE', *, *, #427, .F. ) ;
#445 = EDGE_CURVE ( 'NONE', #741, #241, #647, .T. ) ;
#446 = PLANE ( 'NONE',  #769 ) ;
#447 = CARTESIAN_POINT ( 'NONE',  ( -12.50000000000000711, 0.000000000000000000, -64.49999999999998579 ) ) ;
#448 = AXIS2_PLACEMENT_3D ( 'NONE', #472, #243, #719 ) ;
#449 = ORIENTED_EDGE ( 'NONE', *, *, #392, .T. ) ;
#450 = CIRCLE ( 'NONE', #109, 4.499999999999990230 ) ;
#451 =( NAMED_UNIT ( * ) PLANE_ANGLE_UNIT ( ) SI_UNIT ( $, .RADIAN. ) );
#452 = DIRECTION ( 'NONE',  ( 1.000000000000000000, 0.000000000000000000, 0.000000000000000000 ) ) ;
#453 = EDGE_CURVE ( 'NONE', #2, #295, #15, .T. ) ;
#454 = EDGE_LOOP ( 'NONE', ( #522, #47 ) ) ;
#455 = DIRECTION ( 'NONE',  ( 0.000000000000000000, 1.000000000000000000, 0.000000000000000000 ) ) ;
#456 = CARTESIAN_POINT ( 'NONE',  ( 24.50000000000026290, -85.00000000000004263, -94.99999999999994316 ) ) ;
#457 = VERTEX_POINT ( 'NONE', #346 ) ;
#458 = EDGE_CURVE ( 'NONE', #366, #77, #774, .T. ) ;
#459 = FACE_OUTER_BOUND ( 'NONE', #355, .T. ) ;
#460 = CARTESIAN_POINT ( 'NONE',  ( -12.49999999999999289, -8.000000000000000000, 60.00000000000000000 ) ) ;
#461 = ORIENTED_EDGE ( 'NONE', *, *, #172, .F. ) ;
#462 = VECTOR ( 'NONE', #619, 1000.000000000000000 ) ;
#463 = VECTOR ( 'NONE', #304, 1000.000000000000000 ) ;
#464 = CARTESIAN_POINT ( 'NONE',  ( -12.49999999999999289, 0.000000000000000000, 60.00000000000000000 ) ) ;
#465 = VERTEX_POINT ( 'NONE', #471 ) ;
#466 = EDGE_CURVE ( 'NONE', #337, #141, #72, .T. ) ;
#467 = CARTESIAN_POINT ( 'NONE',  ( -12.49999999999999289, -1.469576158976824785E-16, 60.00000000000000000 ) ) ;
#468 = CARTESIAN_POINT ( 'NONE',  ( 32.50000000000026290, -85.00000000000001421, 0.000000000000000000 ) ) ;
#469 = EDGE_LOOP ( 'NONE', ( #375, #687, #399, #461 ) ) ;
#470 = APPROVAL_ROLE ( '' ) ;
#471 = CARTESIAN_POINT ( 'NONE',  ( -27.49999999999997158, -8.000000000000000000, -99.99999999999997158 ) ) ;
#472 = CARTESIAN_POINT ( 'NONE',  ( 32.50000000000013500, -47.00000000000002132, 60.00000000000003553 ) ) ;
#473 = AXIS2_PLACEMENT_3D ( 'NONE', #144, #268, #149 ) ;
#474 = CIRCLE ( 'NONE', #30, 4.499999999999997335 ) ;
#475 = PERSON_AND_ORGANIZATION ( #175, #333 ) ;
#476 = DIRECTION ( 'NONE',  ( 0.000000000000000000, 0.000000000000000000, 1.000000000000000000 ) ) ;
#477 = DIRECTION ( 'NONE',  ( -1.000000000000000000, -3.491481338843133355E-15, 0.000000000000000000 ) ) ;
#478 = EDGE_CURVE ( 'NONE', #741, #337, #246, .T. ) ;
#479 = ORIENTED_EDGE ( 'NONE', *, *, #679, .F. ) ;
#480 = DIRECTION ( 'NONE',  ( 0.000000000000000000, 1.000000000000000000, 0.000000000000000000 ) ) ;
#481 = ORIENTED_EDGE ( 'NONE', *, *, #725, .F. ) ;
#482 = VERTEX_POINT ( 'NONE', #488 ) ;
#483 = PLANE ( 'NONE',  #487 ) ;
#484 = VERTEX_POINT ( 'NONE', #544 ) ;
#485 = ORIENTED_EDGE ( 'NONE', *, *, #303, .F. ) ;
#486 = AXIS2_PLACEMENT_3D ( 'NONE', #534, #253, #493 ) ;
#487 = AXIS2_PLACEMENT_3D ( 'NONE', #136, #426, #543 ) ;
#488 = CARTESIAN_POINT ( 'NONE',  ( -27.49999999999997158, 0.000000000000000000, 100.0000000000000284 ) ) ;
#489 = PLANE ( 'NONE',  #523 ) ;
#490 = ORIENTED_EDGE ( 'NONE', *, *, #218, .T. ) ;
#491 = EDGE_CURVE ( 'NONE', #484, #222, #474, .T. ) ;
#492 = FACE_OUTER_BOUND ( 'NONE', #469, .T. ) ;
#493 = DIRECTION ( 'NONE',  ( 1.000000000000000000, -1.084202172485504434E-14, 0.000000000000000000 ) ) ;
#494 = VERTEX_POINT ( 'NONE', #680 ) ;
#495 = PLANE ( 'NONE',  #780 ) ;
#496 = EDGE_LOOP ( 'NONE', ( #504, #765 ) ) ;
#497 = FACE_OUTER_BOUND ( 'NONE', #269, .T. ) ;
#498 = AXIS2_PLACEMENT_3D ( 'NONE', #347, #664, #477 ) ;
#499 = LINE ( 'NONE', #198, #408 ) ;
#500 = EDGE_LOOP ( 'NONE', ( #227, #512, #44, #608 ) ) ;
#501 = EDGE_CURVE ( 'NONE', #7, #465, #242, .T. ) ;
#502 = LINE ( 'NONE', #703, #249 ) ;
#503 = CARTESIAN_POINT ( 'NONE',  ( 24.50000000000013145, -47.00000000000002132, 64.50000000000002842 ) ) ;
#504 = ORIENTED_EDGE ( 'NONE', *, *, #270, .F. ) ;
#505 = EDGE_CURVE ( 'NONE', #222, #295, #733, .T. ) ;
#506 = CARTESIAN_POINT ( 'NONE',  ( -12.50000000000000711, -8.000000000000000000, -64.49999999999998579 ) ) ;
#507 = ORIENTED_EDGE ( 'NONE', *, *, #573, .F. ) ;
#508 = CARTESIAN_POINT ( 'NONE',  ( -12.50000000000000711, -1.469576158976824785E-16, -60.00000000000000000 ) ) ;
#509 = ADVANCED_FACE ( 'NONE', ( #492 ), #726, .F. ) ;
#510 = VECTOR ( 'NONE', #128, 1000.000000000000000 ) ;
#511 = PLANE ( 'NONE',  #718 ) ;
#512 = ORIENTED_EDGE ( 'NONE', *, *, #760, .T. ) ;
#513 = DIRECTION ( 'NONE',  ( 0.000000000000000000, 1.000000000000000000, 0.000000000000000000 ) ) ;
#514 = ADVANCED_FACE ( 'NONE', ( #315 ), #483, .T. ) ;
#515 = CARTESIAN_POINT ( 'NONE',  ( 32.50000000000026290, -85.00000000000001421, -94.99999999999994316 ) ) ;
#516 = VERTEX_POINT ( 'NONE', #671 ) ;
#517 = DIRECTION ( 'NONE',  ( 0.000000000000000000, 0.000000000000000000, 1.000000000000000000 ) ) ;
#518 = CARTESIAN_POINT ( 'NONE',  ( 32.50000000000024158, -79.99999999999998579, -99.99999999999997158 ) ) ;
#519 = ORIENTED_EDGE ( 'NONE', *, *, #453, .T. ) ;
#520 = PERSON_AND_ORGANIZATION_ROLE ( 'design_supplier' ) ;
#521 = FACE_OUTER_BOUND ( 'NONE', #425, .T. ) ;
#522 = ORIENTED_EDGE ( 'NONE', *, *, #453, .F. ) ;
#523 = AXIS2_PLACEMENT_3D ( 'NONE', #436, #439, #186 ) ;
#524 = EDGE_CURVE ( 'NONE', #395, #516, #307, .T. ) ;
#525 = SECURITY_CLASSIFICATION_LEVEL ( 'unclassified' ) ;
#526 = FACE_OUTER_BOUND ( 'NONE', #98, .T. ) ;
#527 = DIRECTION ( 'NONE',  ( 0.7071067811865479058, -0.000000000000000000, 0.7071067811865472397 ) ) ;
#528 = APPROVAL ( #403, 'UNSPECIFIED' ) ;
#529 = DIRECTION ( 'NONE',  ( -0.7071067811865479058, -0.000000000000000000, -0.7071067811865472397 ) ) ;
#530 = CARTESIAN_POINT ( 'NONE',  ( 16.50000000000002132, -16.00000000000000000, 100.0000000000000284 ) ) ;
#531 = PERSON_AND_ORGANIZATION_ROLE ( 'classification_officer' ) ;
#532 = EDGE_CURVE ( 'NONE', #50, #340, #384, .T. ) ;
#533 = LINE ( 'NONE', #297, #168 ) ;
#534 = CARTESIAN_POINT ( 'NONE',  ( 16.50000000000002132, -16.00000000000000000, -99.99999999999997158 ) ) ;
#535 = ORIENTED_EDGE ( 'NONE', *, *, #85, .T. ) ;
#536 = CIRCLE ( 'NONE', #107, 4.499999999999997335 ) ;
#537 = CIRCLE ( 'NONE', #652, 4.499999999999997335 ) ;
#538 = SHAPE_DEFINITION_REPRESENTATION ( #688, #280 ) ;
#539 = CIRCLE ( 'NONE', #60, 4.499999999999997335 ) ;
#540 = CARTESIAN_POINT ( 'NONE',  ( 16.50000000000002132, 0.000000000000000000, 100.0000000000000284 ) ) ;
#541 = DIRECTION ( 'NONE',  ( 0.000000000000000000, 0.000000000000000000, 1.000000000000000000 ) ) ;
#542 = ORIENTED_EDGE ( 'NONE', *, *, #445, .F. ) ;
#543 = DIRECTION ( 'NONE',  ( -1.000000000000000000, 0.000000000000000000, -0.000000000000000000 ) ) ;
#544 = CARTESIAN_POINT ( 'NONE',  ( -12.49999999999999289, -8.000000000000000000, 64.49999999999998579 ) ) ;
#545 = EDGE_LOOP ( 'NONE', ( #560, #388, #86, #623 ) ) ;
#546 = ADVANCED_FACE ( 'NONE', ( #605, #553 ), #682, .T. ) ;
#547 = CIRCLE ( 'NONE', #299, 4.499999999999997335 ) ;
#548 = AXIS2_PLACEMENT_3D ( 'NONE', #118, #709, #476 ) ;
#549 = DIRECTION ( 'NONE',  ( -1.000000000000000000, 0.000000000000000000, 0.000000000000000000 ) ) ;
#550 = AXIS2_PLACEMENT_3D ( 'NONE', #271, #379, #264 ) ;
#551 = CARTESIAN_POINT ( 'NONE',  ( 32.50000000000026290, -85.00000000000001421, 94.99999999999997158 ) ) ;
#552 = ORIENTED_EDGE ( 'NONE', *, *, #325, .F. ) ;
#553 = FACE_OUTER_BOUND ( 'NONE', #616, .T. ) ;
#554 = CARTESIAN_POINT ( 'NONE',  ( 24.50000000000026290, -85.00000000000004263, -99.99999999999997158 ) ) ;
#555 = ORIENTED_EDGE ( 'NONE', *, *, #702, .F. ) ;
#556 = DIRECTION ( 'NONE',  ( -1.000000000000000000, -0.000000000000000000, -0.000000000000000000 ) ) ;
#557 = DESIGN_CONTEXT ( 'detailed design', #696, 'design' ) ;
#558 = ADVANCED_FACE ( 'NONE', ( #497 ), #495, .T. ) ;
#559 = DIRECTION ( 'NONE',  ( 0.000000000000000000, -1.000000000000000000, 0.000000000000000000 ) ) ;
#560 = ORIENTED_EDGE ( 'NONE', *, *, #361, .F. ) ;
#561 = DIRECTION ( 'NONE',  ( 0.000000000000000000, 0.000000000000000000, -1.000000000000000000 ) ) ;
#562 = AXIS2_PLACEMENT_3D ( 'NONE', #530, #541, #600 ) ;
#563 = VECTOR ( 'NONE', #289, 1000.000000000000114 ) ;
#564 = DIRECTION ( 'NONE',  ( 0.000000000000000000, -0.000000000000000000, -1.000000000000000000 ) ) ;
#565 = ORIENTED_EDGE ( 'NONE', *, *, #31, .F. ) ;
#566 = DIRECTION ( 'NONE',  ( -1.000000000000000000, 0.000000000000000000, 0.000000000000000000 ) ) ;
#567 = LINE ( 'NONE', #394, #344 ) ;
#568 = ORIENTED_EDGE ( 'NONE', *, *, #282, .T. ) ;
#569 = EDGE_CURVE ( 'NONE', #145, #7, #252, .T. ) ;
#570 = CARTESIAN_POINT ( 'NONE',  ( 32.50000000000013500, -47.00000000000002132, 64.50000000000002842 ) ) ;
#571 = DIRECTION ( 'NONE',  ( 3.514504704576386581E-15, -1.000000000000000000, -3.604620209821934815E-16 ) ) ;
#572 = ORIENTED_EDGE ( 'NONE', *, *, #592, .F. ) ;
#573 = EDGE_CURVE ( 'NONE', #77, #319, #786, .T. ) ;
#574 = CARTESIAN_POINT ( 'NONE',  ( 16.50000000000002132, -8.000000000000000000, -99.99999999999997158 ) ) ;
#575 = DIRECTION ( 'NONE',  ( -0.7071067811865479058, -0.000000000000000000, 0.7071067811865472397 ) ) ;
#576 = AXIS2_PLACEMENT_3D ( 'NONE', #67, #676, #140 ) ;
#577 = ORIENTED_EDGE ( 'NONE', *, *, #245, .F. ) ;
#578 = SECURITY_CLASSIFICATION ( '', '', #525 ) ;
#579 = CARTESIAN_POINT ( 'NONE',  ( 24.50000000000026290, -85.00000000000004263, 100.0000000000000000 ) ) ;
#580 = CARTESIAN_POINT ( 'NONE',  ( -63.74999999999995737, -8.000000000000000000, -63.75000000000001421 ) ) ;
#581 = ORIENTED_EDGE ( 'NONE', *, *, #245, .T. ) ;
#582 = COORDINATED_UNIVERSAL_TIME_OFFSET ( 1, 0, .AHEAD. ) ;
#583 = CARTESIAN_POINT ( 'NONE',  ( 32.50000000000024869, -79.99999999999998579, -99.99999999999997158 ) ) ;
#584 = EDGE_CURVE ( 'NONE', #340, #50, #537, .T. ) ;
#585 = VERTEX_POINT ( 'NONE', #614 ) ;
#586 = LINE ( 'NONE', #540, #422 ) ;
#587 = CARTESIAN_POINT ( 'NONE',  ( 16.50000000000002132, -8.000000000000000000, -99.99999999999997158 ) ) ;
#588 = CC_DESIGN_PERSON_AND_ORGANIZATION_ASSIGNMENT ( #37, #284, ( #135 ) ) ;
#589 = VECTOR ( 'NONE', #571, 1000.000000000000000 ) ;
#590 = VECTOR ( 'NONE', #90, 1000.000000000000000 ) ;
#591 = DIRECTION ( 'NONE',  ( -0.000000000000000000, -0.000000000000000000, -1.000000000000000000 ) ) ;
#592 = EDGE_CURVE ( 'NONE', #585, #611, #255, .T. ) ;
#593 = COORDINATED_UNIVERSAL_TIME_OFFSET ( 1, 0, .AHEAD. ) ;
#594 = DIRECTION ( 'NONE',  ( 1.000000000000000000, 3.491481338843133355E-15, 0.000000000000000000 ) ) ;
#595 = DIRECTION ( 'NONE',  ( 1.000000000000000000, 0.000000000000000000, 0.000000000000000000 ) ) ;
#596 = ORIENTED_EDGE ( 'NONE', *, *, #172, .T. ) ;
#597 = APPROVAL_ROLE ( '' ) ;
#598 = CC_DESIGN_PERSON_AND_ORGANIZATION_ASSIGNMENT ( #52, #531, ( #578 ) ) ;
#599 = CARTESIAN_POINT ( 'NONE',  ( 16.50000000000002132, -16.00000000000000000, 100.0000000000000284 ) ) ;
#600 = DIRECTION ( 'NONE',  ( 1.000000000000000000, 3.469446951953614189E-15, 0.000000000000000000 ) ) ;
#601 = AXIS2_PLACEMENT_3D ( 'NONE', #62, #352, #595 ) ;
#602 = AXIS2_PLACEMENT_3D ( 'NONE', #599, #221, #300 ) ;
#603 = CARTESIAN_POINT ( 'NONE',  ( -32.50000000000000711, -8.000000000000000000, 100.0000000000000284 ) ) ;
#604 = PLANE ( 'NONE',  #601 ) ;
#605 = FACE_BOUND ( 'NONE', #496, .T. ) ;
#606 = CARTESIAN_POINT ( 'NONE',  ( 32.50000000000002132, -15.99999999999994493, -99.99999999999997158 ) ) ;
#607 = EDGE_CURVE ( 'NONE', #173, #366, #669, .T. ) ;
#608 = ORIENTED_EDGE ( 'NONE', *, *, #532, .T. ) ;
#609 = DIRECTION ( 'NONE',  ( 1.000000000000000000, -0.000000000000000000, -0.000000000000000000 ) ) ;
#610 = FACE_OUTER_BOUND ( 'NONE', #363, .T. ) ;
#611 = VERTEX_POINT ( 'NONE', #259 ) ;
#612 = VECTOR ( 'NONE', #365, 1000.000000000000114 ) ;
#613 = VECTOR ( 'NONE', #594, 1000.000000000000000 ) ;
#614 = CARTESIAN_POINT ( 'NONE',  ( 32.50000000000024869, -79.99999999999998579, 100.0000000000000000 ) ) ;
#615 = LINE ( 'NONE', #677, #41 ) ;
#616 = EDGE_LOOP ( 'NONE', ( #262, #787, #782, #66, #310, #69 ) ) ;
#617 = EDGE_CURVE ( 'NONE', #395, #211, #147, .T. ) ;
#618 = CARTESIAN_POINT ( 'NONE',  ( -32.50000000000000711, -8.000000000000000000, -94.99999999999994316 ) ) ;
#619 = DIRECTION ( 'NONE',  ( 1.000000000000000000, 3.514504704576386581E-15, 8.299048942020607868E-33 ) ) ;
#620 = VERTEX_POINT ( 'NONE', #389 ) ;
#621 = PRODUCT_RELATED_PRODUCT_CATEGORY ( 'detail', '', ( #22 ) ) ;
#622 = LINE ( 'NONE', #20, #206 ) ;
#623 = ORIENTED_EDGE ( 'NONE', *, *, #335, .F. ) ;
#624 = CARTESIAN_POINT ( 'NONE',  ( -32.50000000000000711, 0.000000000000000000, 100.0000000000000284 ) ) ;
#625 = AXIS2_PLACEMENT_3D ( 'NONE', #467, #164, #108 ) ;
#626 = CARTESIAN_POINT ( 'NONE',  ( -12.50000000000000711, 0.000000000000000000, -60.00000000000000000 ) ) ;
#627 = CIRCLE ( 'NONE', #550, 4.499999999999997335 ) ;
#628 = EDGE_LOOP ( 'NONE', ( #13, #418, #542, #485 ) ) ;
#629 = CARTESIAN_POINT ( 'NONE',  ( -32.50000000000000711, 0.000000000000000000, 95.00000000000000000 ) ) ;
#630 = ORIENTED_EDGE ( 'NONE', *, *, #189, .T. ) ;
#631 = EDGE_CURVE ( 'NONE', #173, #319, #326, .T. ) ;
#632 = DIRECTION ( 'NONE',  ( -0.000000000000000000, 0.000000000000000000, -1.000000000000000000 ) ) ;
#633 = CARTESIAN_POINT ( 'NONE',  ( 32.50000000000013500, -47.00000000000002132, 64.50000000000002842 ) ) ;
#634 = ORIENTED_EDGE ( 'NONE', *, *, #607, .F. ) ;
#635 = LINE ( 'NONE', #16, #320 ) ;
#636 = AXIS2_PLACEMENT_3D ( 'NONE', #670, #559, #76 ) ;
#637 = DIRECTION ( 'NONE',  ( -1.000000000000000000, -3.491481338843133355E-15, 0.000000000000000000 ) ) ;
#638 = VECTOR ( 'NONE', #513, 1000.000000000000000 ) ;
#639 = EDGE_LOOP ( 'NONE', ( #746, #230, #204, #314 ) ) ;
#640 = LOCAL_TIME ( 14, 59, 4.000000000000000000, #593 ) ;
#641 = PERSON_AND_ORGANIZATION_ROLE ( 'creator' ) ;
#642 = EDGE_CURVE ( 'NONE', #7, #258, #148, .T. ) ;
#643 = DIRECTION ( 'NONE',  ( 0.000000000000000000, 0.000000000000000000, 1.000000000000000000 ) ) ;
#644 = ORIENTED_EDGE ( 'NONE', *, *, #292, .F. ) ;
#645 = CALENDAR_DATE ( 2025, 26, 6 ) ;
#646 = EDGE_CURVE ( 'NONE', #494, #145, #502, .T. ) ;
#647 = LINE ( 'NONE', #42, #563 ) ;
#648 = CYLINDRICAL_SURFACE ( 'NONE', #562, 16.00000000000000000 ) ;
#649 = CARTESIAN_POINT ( 'NONE',  ( 16.50000000000002132, -16.00000000000000000, 100.0000000000000284 ) ) ;
#650 = ORIENTED_EDGE ( 'NONE', *, *, #236, .F. ) ;
#651 = EDGE_CURVE ( 'NONE', #437, #516, #345, .T. ) ;
#652 = AXIS2_PLACEMENT_3D ( 'NONE', #739, #735, #181 ) ;
#653 = EDGE_LOOP ( 'NONE', ( #306, #728 ) ) ;
#654 = LOCAL_TIME ( 14, 59, 4.000000000000000000, #582 ) ;
#655 = PERSON_AND_ORGANIZATION ( #175, #333 ) ;
#656 = CARTESIAN_POINT ( 'NONE',  ( -12.50000000000000711, -8.000000000000000000, -55.50000000000000000 ) ) ;
#657 = CARTESIAN_POINT ( 'NONE',  ( 32.50000000000013500, -47.00000000000002132, 55.50000000000003553 ) ) ;
#658 = ORIENTED_EDGE ( 'NONE', *, *, #335, .T. ) ;
#659 = APPROVAL_STATUS ( 'not_yet_approved' ) ;
#660 = CYLINDRICAL_SURFACE ( 'NONE', #233, 4.499999999999997335 ) ;
#661 = ORIENTED_EDGE ( 'NONE', *, *, #607, .T. ) ;
#662 = ORIENTED_EDGE ( 'NONE', *, *, #569, .F. ) ;
#663 = DIRECTION ( 'NONE',  ( -0.000000000000000000, 0.000000000000000000, -1.000000000000000000 ) ) ;
#664 = DIRECTION ( 'NONE',  ( -3.491481338843133355E-15, 1.000000000000000000, 0.000000000000000000 ) ) ;
#665 = VECTOR ( 'NONE', #213, 1000.000000000000000 ) ;
#666 = VECTOR ( 'NONE', #11, 1000.000000000000000 ) ;
#667 = CC_DESIGN_SECURITY_CLASSIFICATION ( #578, ( #135 ) ) ;
#668 = ADVANCED_FACE ( 'NONE', ( #385 ), #442, .T. ) ;
#669 = LINE ( 'NONE', #618, #666 ) ;
#670 = CARTESIAN_POINT ( 'NONE',  ( 0.000000000000000000, 0.000000000000000000, 0.000000000000000000 ) ) ;
#671 = CARTESIAN_POINT ( 'NONE',  ( -12.50000000000000711, -1.469576158976824785E-16, -55.50000000000000000 ) ) ;
#672 = UNCERTAINTY_MEASURE_WITH_UNIT (LENGTH_MEASURE( 1.000000000000000082E-05 ), #747, 'distance_accuracy_value', 'NONE');
#673 = APPROVAL ( #117, 'UNSPECIFIED' ) ;
#674 = CARTESIAN_POINT ( 'NONE',  ( 24.50000000000028066, -89.99999999999995737, 90.00000000000007105 ) ) ;
#675 = ORIENTED_EDGE ( 'NONE', *, *, #19, .T. ) ;
#676 = DIRECTION ( 'NONE',  ( -1.000000000000000000, -3.514504704576386581E-15, 0.000000000000000000 ) ) ;
#677 = CARTESIAN_POINT ( 'NONE',  ( -12.49999999999999289, 0.000000000000000000, 64.49999999999998579 ) ) ;
#678 = ORIENTED_EDGE ( 'NONE', *, *, #501, .T. ) ;
#679 = EDGE_CURVE ( 'NONE', #145, #734, #635, .T. ) ;
#680 = CARTESIAN_POINT ( 'NONE',  ( -27.49999999999997158, -8.000000000000000000, 100.0000000000000284 ) ) ;
#681 = ORIENTED_EDGE ( 'NONE', *, *, #89, .T. ) ;
#682 = PLANE ( 'NONE',  #576 ) ;
#683 = DIRECTION ( 'NONE',  ( -0.000000000000000000, -0.000000000000000000, -1.000000000000000000 ) ) ;
#684 = ORIENTED_EDGE ( 'NONE', *, *, #631, .T. ) ;
#685 = CARTESIAN_POINT ( 'NONE',  ( 16.50000000000002132, 0.000000000000000000, 100.0000000000000284 ) ) ;
#686 = LINE ( 'NONE', #32, #356 ) ;
#687 = ORIENTED_EDGE ( 'NONE', *, *, #367, .T. ) ;
#688 = PRODUCT_DEFINITION_SHAPE ( 'NONE', 'NONE',  #177 ) ;
#689 = DIRECTION ( 'NONE',  ( 0.7071067811865472397, -0.000000000000000000, 0.7071067811865479058 ) ) ;
#690 = AXIS2_PLACEMENT_3D ( 'NONE', #155, #203, #748 ) ;
#691 = VECTOR ( 'NONE', #438, 1000.000000000000000 ) ;
#692 = EDGE_CURVE ( 'NONE', #278, #340, #95, .T. ) ;
#693 = DIRECTION ( 'NONE',  ( -0.000000000000000000, 1.000000000000000000, -0.000000000000000000 ) ) ;
#694 = ORIENTED_EDGE ( 'NONE', *, *, #592, .T. ) ;
#695 = CARTESIAN_POINT ( 'NONE',  ( 24.50000000000024869, -80.00000000000001421, -99.99999999999997158 ) ) ;
#696 = APPLICATION_CONTEXT ( 'configuration controlled 3d designs of mechanical parts and assemblies' ) ;
#697 = DIRECTION ( 'NONE',  ( 1.000000000000000000, 0.000000000000000000, 0.000000000000000000 ) ) ;
#698 = ORIENTED_EDGE ( 'NONE', *, *, #584, .T. ) ;
#699 = DIRECTION ( 'NONE',  ( 1.000000000000000000, -0.000000000000000000, -0.000000000000000000 ) ) ;
#700 = LINE ( 'NONE', #447, #779 ) ;
#701 = ORIENTED_EDGE ( 'NONE', *, *, #161, .F. ) ;
#702 = EDGE_CURVE ( 'NONE', #337, #112, #154, .T. ) ;
#703 = CARTESIAN_POINT ( 'NONE',  ( -32.50000000000000711, -8.000000000000000000, 100.0000000000000284 ) ) ;
#704 = AXIS2_PLACEMENT_3D ( 'NONE', #626, #693, #643 ) ;
#705 = DIRECTION ( 'NONE',  ( 0.000000000000000000, 0.000000000000000000, -1.000000000000000000 ) ) ;
#706 = AXIS2_PLACEMENT_3D ( 'NONE', #603, #778, #234 ) ;
#707 = ORIENTED_EDGE ( 'NONE', *, *, #361, .T. ) ;
#708 = DATE_AND_TIME ( #338, #731 ) ;
#709 = DIRECTION ( 'NONE',  ( -0.000000000000000000, 1.000000000000000000, -0.000000000000000000 ) ) ;
#710 = ORIENTED_EDGE ( 'NONE', *, *, #189, .F. ) ;
#711 = APPROVAL_ROLE ( '' ) ;
#712 = EDGE_CURVE ( 'NONE', #211, #395, #450, .T. ) ;
#713 = CARTESIAN_POINT ( 'NONE',  ( -63.74999999999998579, -8.000000000000000000, 63.75000000000004263 ) ) ;
#714 = DIRECTION ( 'NONE',  ( -1.000000000000000000, -0.000000000000000000, -0.000000000000000000 ) ) ;
#715 = ORIENTED_EDGE ( 'NONE', *, *, #524, .T. ) ;
#716 = DATE_TIME_ROLE ( 'creation_date' ) ;
#717 = LINE ( 'NONE', #411, #613 ) ;
#718 = AXIS2_PLACEMENT_3D ( 'NONE', #518, #764, #35 ) ;
#719 = DIRECTION ( 'NONE',  ( 0.000000000000000000, 0.000000000000000000, -1.000000000000000000 ) ) ;
#720 = VECTOR ( 'NONE', #229, 1000.000000000000000 ) ;
#721 = DATE_TIME_ROLE ( 'classification_date' ) ;
#722 = CYLINDRICAL_SURFACE ( 'NONE', #602, 8.000000000000000000 ) ;
#723 = CARTESIAN_POINT ( 'NONE',  ( -12.50000000000000711, -1.469576158976824785E-16, -64.50000000000000000 ) ) ;
#724 = ORIENTED_EDGE ( 'NONE', *, *, #228, .T. ) ;
#725 = EDGE_CURVE ( 'NONE', #611, #414, #622, .T. ) ;
#726 = PLANE ( 'NONE',  #435 ) ;
#727 = LINE ( 'NONE', #674, #612 ) ;
#728 = ORIENTED_EDGE ( 'NONE', *, *, #712, .F. ) ;
#729 = AXIS2_PLACEMENT_3D ( 'NONE', #362, #6, #564 ) ;
#730 = VECTOR ( 'NONE', #364, 1000.000000000000000 ) ;
#731 = LOCAL_TIME ( 14, 59, 4.000000000000000000, #219 ) ;
#732 = EDGE_CURVE ( 'NONE', #141, #457, #83, .T. ) ;
#733 = LINE ( 'NONE', #185, #220 ) ;
#734 = VERTEX_POINT ( 'NONE', #685 ) ;
#735 = DIRECTION ( 'NONE',  ( 1.000000000000000000, -0.000000000000000000, -0.000000000000000000 ) ) ;
#736 = EDGE_CURVE ( 'NONE', #74, #50, #267, .T. ) ;
#737 = DIRECTION ( 'NONE',  ( -0.000000000000000000, 1.000000000000000000, -0.000000000000000000 ) ) ;
#738 = EDGE_LOOP ( 'NONE', ( #572, #238, #701, #481 ) ) ;
#739 = CARTESIAN_POINT ( 'NONE',  ( 32.50000000000013500, -47.00000000000002132, 60.00000000000003553 ) ) ;
#740 = CC_DESIGN_PERSON_AND_ORGANIZATION_ASSIGNMENT ( #475, #641, ( #177 ) ) ;
#741 = VERTEX_POINT ( 'NONE', #695 ) ;
#742 = AXIS2_PLACEMENT_3D ( 'NONE', #197, #393, #202 ) ;
#743 = CC_DESIGN_APPROVAL ( #528, ( #135 ) ) ;
#744 = CARTESIAN_POINT ( 'NONE',  ( 16.50000000000002132, -8.000000000000000000, 100.0000000000000284 ) ) ;
#745 = FACE_OUTER_BOUND ( 'NONE', #273, .T. ) ;
#746 = ORIENTED_EDGE ( 'NONE', *, *, #150, .T. ) ;
#747 =( LENGTH_UNIT ( ) NAMED_UNIT ( * ) SI_UNIT ( .MILLI., .METRE. ) );
#748 = DIRECTION ( 'NONE',  ( 1.000000000000000000, 0.000000000000000000, 0.000000000000000000 ) ) ;
#749 = ORIENTED_EDGE ( 'NONE', *, *, #617, .T. ) ;
#750 = EDGE_CURVE ( 'NONE', #295, #2, #410, .T. ) ;
#751 = CARTESIAN_POINT ( 'NONE',  ( 32.49999999999996447, 1.061070515112581362E-13, 100.0000000000000284 ) ) ;
#752 = ORIENTED_EDGE ( 'NONE', *, *, #646, .T. ) ;
#753 = CC_DESIGN_DATE_AND_TIME_ASSIGNMENT ( #102, #721, ( #578 ) ) ;
#754 = DIRECTION ( 'NONE',  ( -0.000000000000000000, 1.000000000000000000, -0.000000000000000000 ) ) ;
#755 = VECTOR ( 'NONE', #25, 1000.000000000000000 ) ;
#756 = DIRECTION ( 'NONE',  ( 0.000000000000000000, -1.000000000000000000, 0.000000000000000000 ) ) ;
#757 = ORIENTED_EDGE ( 'NONE', *, *, #458, .F. ) ;
#758 = DIRECTION ( 'NONE',  ( 1.000000000000000000, 0.000000000000000000, 0.000000000000000000 ) ) ;
#759 = LINE ( 'NONE', #751, #589 ) ;
#760 = EDGE_CURVE ( 'NONE', #278, #74, #539, .T. ) ;
#761 = ORIENTED_EDGE ( 'NONE', *, *, #750, .T. ) ;
#762 = MANIFOLD_SOLID_BREP ( 'Durchgangsloch für M82', #261 ) ;
#763 = CARTESIAN_POINT ( 'NONE',  ( 24.50000000000013145, -47.00000000000002132, 60.00000000000003553 ) ) ;
#764 = DIRECTION ( 'NONE',  ( -2.468850131082265738E-15, 0.7071067811865475727, 0.7071067811865475727 ) ) ;
#765 = ORIENTED_EDGE ( 'NONE', *, *, #760, .F. ) ;
#766 = CALENDAR_DATE ( 2025, 26, 6 ) ;
#767 = CYLINDRICAL_SURFACE ( 'NONE', #548, 4.499999999999997335 ) ;
#768 = EDGE_LOOP ( 'NONE', ( #675, #724, #449, #217, #490, #694 ) ) ;
#769 = AXIS2_PLACEMENT_3D ( 'NONE', #78, #689, #318 ) ;
#770 = CARTESIAN_POINT ( 'NONE',  ( 0.000000000000000000, 0.000000000000000000, 0.000000000000000000 ) ) ;
#771 = DIRECTION ( 'NONE',  ( -3.514504704576386581E-15, 1.000000000000000000, 0.000000000000000000 ) ) ;
#772 = FACE_OUTER_BOUND ( 'NONE', #639, .T. ) ;
#773 = ADVANCED_FACE ( 'NONE', ( #459 ), #446, .F. ) ;
#774 = LINE ( 'NONE', #48, #720 ) ;
#775 = LINE ( 'NONE', #290, #287 ) ;
#776 = ORIENTED_EDGE ( 'NONE', *, *, #631, .F. ) ;
#777 = DATE_AND_TIME ( #160, #424 ) ;
#778 = DIRECTION ( 'NONE',  ( 0.000000000000000000, 0.000000000000000000, 1.000000000000000000 ) ) ;
#779 = VECTOR ( 'NONE', #277, 1000.000000000000000 ) ;
#780 = AXIS2_PLACEMENT_3D ( 'NONE', #376, #549, #131 ) ;
#781 = CC_DESIGN_APPROVAL ( #673, ( #177 ) ) ;
#782 = ORIENTED_EDGE ( 'NONE', *, *, #150, .F. ) ;
#783 = DIRECTION ( 'NONE',  ( 0.000000000000000000, 0.000000000000000000, 1.000000000000000000 ) ) ;
#784 = LINE ( 'NONE', #713, #170 ) ;
#785 = EDGE_CURVE ( 'NONE', #516, #437, #627, .T. ) ;
#786 = LINE ( 'NONE', #368, #691 ) ;
#787 = ORIENTED_EDGE ( 'NONE', *, *, #445, .T. ) ;
ENDSEC;
END-ISO-10303-21;
