ISO-10303-21;
HEADER;
FILE_DESCRIPTION (( 'STEP AP214' ),
    '1' );
FILE_NAME ('202500614-10302P01.STEP',
    '2026-02-11T08:19:25',
    ( '' ),
    ( '' ),
    'SwSTEP 2.0',
    'SolidWorks 2021',
    '' );
FILE_SCHEMA (( 'AUTOMOTIVE_DESIGN' ));
ENDSEC;

DATA;
#1 = CARTESIAN_POINT ( 'NONE',  ( -60.00000000000000000, 3.500000000000000000, 12.49999999999999645 ) ) ;
#2 = VECTOR ( 'NONE', #402, 1000.000000000000000 ) ;
#3 = ORIENTED_EDGE ( 'NONE', *, *, #868, .F. ) ;
#4 = CIRCLE ( 'NONE', #279, 2.499999999999995115 ) ;
#5 = ORIENTED_EDGE ( 'NONE', *, *, #742, .F. ) ;
#6 = EDGE_CURVE ( 'NONE', #854, #976, #395, .T. ) ;
#7 = DIRECTION ( 'NONE',  ( 0.000000000000000000, 0.000000000000000000, -1.000000000000000000 ) ) ;
#8 = CARTESIAN_POINT ( 'NONE',  ( 60.00000000000000000, 3.499999999999999556, 10.49999999999999112 ) ) ;
#9 = CARTESIAN_POINT ( 'NONE',  ( 57.99999999999999289, 15.00000000000000000, 12.49999999999999289 ) ) ;
#10 = EDGE_CURVE ( 'NONE', #667, #349, #454, .T. ) ;
#11 = SURFACE_SIDE_STYLE ('',( #819 ) ) ;
#12 = APPLICATION_CONTEXT ( 'automotive_design' ) ;
#13 = DIRECTION ( 'NONE',  ( 0.000000000000000000, 0.000000000000000000, 1.000000000000000000 ) ) ;
#14 = VECTOR ( 'NONE', #88, 1000.000000000000000 ) ;
#15 = CARTESIAN_POINT ( 'NONE',  ( -21.50000000000000000, 7.500000000000000000, 0.000000000000000000 ) ) ;
#16 = VECTOR ( 'NONE', #174, 1000.000000000000000 ) ;
#17 = EDGE_CURVE ( 'NONE', #266, #502, #151, .T. ) ;
#18 = PLANE ( 'NONE',  #32 ) ;
#19 = VECTOR ( 'NONE', #659, 1000.000000000000000 ) ;
#20 = DIRECTION ( 'NONE',  ( 0.000000000000000000, -1.000000000000000000, -0.000000000000000000 ) ) ;
#21 = LINE ( 'NONE', #166, #694 ) ;
#22 = CARTESIAN_POINT ( 'NONE',  ( -38.00000000000000000, 0.000000000000000000, -12.50000000000001066 ) ) ;
#23 = EDGE_LOOP ( 'NONE', ( #537, #683, #491, #451 ) ) ;
#24 = DIRECTION ( 'NONE',  ( -0.000000000000000000, 1.000000000000000000, -0.000000000000000000 ) ) ;
#25 = CYLINDRICAL_SURFACE ( 'NONE', #277, 9.000000000000005329 ) ;
#26 = DIRECTION ( 'NONE',  ( 0.000000000000000000, 0.000000000000000000, -1.000000000000000000 ) ) ;
#27 = EDGE_LOOP ( 'NONE', ( #674, #555 ) ) ;
#28 = EDGE_CURVE ( 'NONE', #110, #292, #177, .T. ) ;
#29 = FACE_BOUND ( 'NONE', #204, .T. ) ;
#30 = CARTESIAN_POINT ( 'NONE',  ( 38.00000000000000711, 3.499999999999997335, -12.50000000000001066 ) ) ;
#31 = DIRECTION ( 'NONE',  ( 0.000000000000000000, -1.000000000000000000, -0.000000000000000000 ) ) ;
#32 = AXIS2_PLACEMENT_3D ( 'NONE', #373, #447, #743 ) ;
#33 = CIRCLE ( 'NONE', #109, 9.000000000000001776 ) ;
#34 = VECTOR ( 'NONE', #381, 1000.000000000000000 ) ;
#35 = ORIENTED_EDGE ( 'NONE', *, *, #841, .F. ) ;
#36 = CARTESIAN_POINT ( 'NONE',  ( -50.00000000000000000, 15.00000000000000000, 7.041719095097280485E-15 ) ) ;
#37 = DIRECTION ( 'NONE',  ( 0.000000000000000000, 0.000000000000000000, -1.000000000000000000 ) ) ;
#38 = CARTESIAN_POINT ( 'NONE',  ( 50.00000000000000000, 15.00000000000000000, 2.499999999999972022 ) ) ;
#39 = EDGE_LOOP ( 'NONE', ( #760, #74, #372, #278 ) ) ;
#40 = DIRECTION ( 'NONE',  ( 0.000000000000000000, 0.000000000000000000, -1.000000000000000000 ) ) ;
#41 = EDGE_LOOP ( 'NONE', ( #3, #818, #613, #360 ) ) ;
#42 = EDGE_CURVE ( 'NONE', #222, #854, #859, .T. ) ;
#43 = CARTESIAN_POINT ( 'NONE',  ( 60.00000000000000000, 3.500000000000000000, -12.50000000000001066 ) ) ;
#44 = ORIENTED_EDGE ( 'NONE', *, *, #520, .F. ) ;
#45 = CARTESIAN_POINT ( 'NONE',  ( 27.00000000000000000, 15.00000000000000000, 6.505213034913026604E-15 ) ) ;
#46 = ORIENTED_EDGE ( 'NONE', *, *, #937, .T. ) ;
#47 = AXIS2_PLACEMENT_3D ( 'NONE', #697, #20, #327 ) ;
#48 = ORIENTED_EDGE ( 'NONE', *, *, #539, .F. ) ;
#49 = VECTOR ( 'NONE', #269, 1000.000000000000000 ) ;
#50 = AXIS2_PLACEMENT_3D ( 'NONE', #15, #564, #568 ) ;
#51 = CARTESIAN_POINT ( 'NONE',  ( 60.00000000000000000, 15.00000000000000000, -12.50000000000000888 ) ) ;
#52 = AXIS2_PLACEMENT_3D ( 'NONE', #252, #856, #483 ) ;
#53 = SURFACE_STYLE_FILL_AREA ( #435 ) ;
#54 = ORIENTED_EDGE ( 'NONE', *, *, #432, .T. ) ;
#55 = APPLICATION_PROTOCOL_DEFINITION ( 'draft international standard', 'automotive_design', 1998, #724 ) ;
#56 = ORIENTED_EDGE ( 'NONE', *, *, #291, .T. ) ;
#57 = CARTESIAN_POINT ( 'NONE',  ( 50.00000000000000000, 15.00000000000000000, 2.499999999999972022 ) ) ;
#58 = EDGE_CURVE ( 'NONE', #782, #763, #549, .T. ) ;
#59 = DIRECTION ( 'NONE',  ( 0.000000000000000000, 0.000000000000000000, -1.000000000000000000 ) ) ;
#60 = VERTEX_POINT ( 'NONE', #144 ) ;
#61 = VERTEX_POINT ( 'NONE', #9 ) ;
#62 = CARTESIAN_POINT ( 'NONE',  ( 27.00000000000000000, 0.000000000000000000, -8.999999999999998224 ) ) ;
#63 = ADVANCED_FACE ( 'NONE', ( #472 ), #919, .F. ) ;
#64 = CARTESIAN_POINT ( 'NONE',  ( -27.00000000000000000, 7.500000000000000000, 0.000000000000000000 ) ) ;
#65 = VERTEX_POINT ( 'NONE', #687 ) ;
#66 =( LENGTH_UNIT ( ) NAMED_UNIT ( * ) SI_UNIT ( .MILLI., .METRE. ) );
#67 = EDGE_LOOP ( 'NONE', ( #975, #5, #801, #609 ) ) ;
#68 = MECHANICAL_DESIGN_GEOMETRIC_PRESENTATION_REPRESENTATION (  '', ( #107 ), #958 ) ;
#69 = DIRECTION ( 'NONE',  ( 0.000000000000000000, -1.000000000000000000, 0.000000000000000000 ) ) ;
#70 = FACE_BOUND ( 'NONE', #27, .T. ) ;
#71 = AXIS2_PLACEMENT_3D ( 'NONE', #114, #594, #499 ) ;
#72 = CARTESIAN_POINT ( 'NONE',  ( 27.00000000000000000, 0.000000000000000000, 5.500000000000005329 ) ) ;
#73 = SURFACE_STYLE_USAGE ( .BOTH. , #209 ) ;
#74 = ORIENTED_EDGE ( 'NONE', *, *, #922, .F. ) ;
#75 = EDGE_LOOP ( 'NONE', ( #506, #198, #461, #326 ) ) ;
#76 = EDGE_CURVE ( 'NONE', #344, #681, #622, .T. ) ;
#77 = ORIENTED_EDGE ( 'NONE', *, *, #149, .T. ) ;
#78 = LINE ( 'NONE', #759, #34 ) ;
#79 = ORIENTED_EDGE ( 'NONE', *, *, #175, .F. ) ;
#80 = AXIS2_PLACEMENT_3D ( 'NONE', #36, #869, #496 ) ;
#81 = VERTEX_POINT ( 'NONE', #615 ) ;
#82 = CIRCLE ( 'NONE', #638, 5.499999999999998224 ) ;
#83 = DIRECTION ( 'NONE',  ( 1.000000000000000000, -0.000000000000000000, -1.011922027653137513E-16 ) ) ;
#84 = EDGE_CURVE ( 'NONE', #512, #916, #239, .T. ) ;
#85 = CARTESIAN_POINT ( 'NONE',  ( -60.00000000000000000, 3.500000000000000000, -12.50000000000001066 ) ) ;
#86 = ORIENTED_EDGE ( 'NONE', *, *, #928, .T. ) ;
#87 = DIRECTION ( 'NONE',  ( -0.000000000000000000, -0.000000000000000000, 1.000000000000000000 ) ) ;
#88 = DIRECTION ( 'NONE',  ( 0.000000000000000000, -1.000000000000000000, 0.000000000000000000 ) ) ;
#89 = EDGE_CURVE ( 'NONE', #541, #860, #754, .T. ) ;
#90 = DIRECTION ( 'NONE',  ( 1.182766006347823602E-16, -1.000000000000000000, -0.000000000000000000 ) ) ;
#91 = DIRECTION ( 'NONE',  ( 0.000000000000000000, 0.000000000000000000, -1.000000000000000000 ) ) ;
#92 = AXIS2_PLACEMENT_3D ( 'NONE', #738, #966, #40 ) ;
#93 = CARTESIAN_POINT ( 'NONE',  ( 60.00000000000000000, 15.00000000000000000, 12.49999999999999289 ) ) ;
#94 = DIRECTION ( 'NONE',  ( 0.000000000000000000, -1.000000000000000000, 0.000000000000000000 ) ) ;
#95 = VECTOR ( 'NONE', #97, 1000.000000000000000 ) ;
#96 = ORIENTED_EDGE ( 'NONE', *, *, #887, .F. ) ;
#97 = DIRECTION ( 'NONE',  ( -0.000000000000000000, 1.000000000000000000, -0.000000000000000000 ) ) ;
#98 = CARTESIAN_POINT ( 'NONE',  ( 27.00000000000000000, 0.000000000000000000, 9.000000000000010658 ) ) ;
#99 = LINE ( 'NONE', #411, #419 ) ;
#100 = EDGE_CURVE ( 'NONE', #601, #61, #78, .T. ) ;
#101 = DIRECTION ( 'NONE',  ( 0.000000000000000000, -0.000000000000000000, -1.000000000000000000 ) ) ;
#102 = LINE ( 'NONE', #98, #16 ) ;
#103 = DIRECTION ( 'NONE',  ( 0.000000000000000000, 0.000000000000000000, -1.000000000000000000 ) ) ;
#104 = EDGE_CURVE ( 'NONE', #662, #976, #295, .T. ) ;
#105 = CARTESIAN_POINT ( 'NONE',  ( 57.99999999999999289, 3.499999999999999556, 10.49999999999999112 ) ) ;
#106 = CYLINDRICAL_SURFACE ( 'NONE', #374, 9.000000000000003553 ) ;
#107 = STYLED_ITEM ( 'NONE', ( #320 ), #794 ) ;
#108 = LINE ( 'NONE', #333, #752 ) ;
#109 = AXIS2_PLACEMENT_3D ( 'NONE', #329, #485, #786 ) ;
#110 = VERTEX_POINT ( 'NONE', #540 ) ;
#111 = COLOUR_RGB ( '',0.8980392156862745390, 0.9176470588235293713, 0.9294117647058823817 ) ;
#112 = PLANE ( 'NONE',  #534 ) ;
#113 = ADVANCED_FACE ( 'NONE', ( #837, #154 ), #463, .F. ) ;
#114 = CARTESIAN_POINT ( 'NONE',  ( -50.00000000000000000, 15.00000000000000000, 7.041719095097280485E-15 ) ) ;
#115 = ORIENTED_EDGE ( 'NONE', *, *, #58, .T. ) ;
#116 = CARTESIAN_POINT ( 'NONE',  ( 0.000000000000000000, 0.000000000000000000, 0.000000000000000000 ) ) ;
#117 = ORIENTED_EDGE ( 'NONE', *, *, #6, .F. ) ;
#118 = SURFACE_SIDE_STYLE ('',( #804 ) ) ;
#119 = CARTESIAN_POINT ( 'NONE',  ( 57.99999999999999289, 3.499999999999999556, -12.50000000000001066 ) ) ;
#120 = EDGE_CURVE ( 'NONE', #581, #441, #337, .T. ) ;
#121 = ORIENTED_EDGE ( 'NONE', *, *, #573, .T. ) ;
#122 = DIRECTION ( 'NONE',  ( -0.000000000000000000, -1.000000000000000000, -0.000000000000000000 ) ) ;
#123 = VERTEX_POINT ( 'NONE', #30 ) ;
#124 = CARTESIAN_POINT ( 'NONE',  ( 27.00000000000000000, 0.000000000000000000, -5.499999999999991118 ) ) ;
#125 = DIRECTION ( 'NONE',  ( -0.000000000000000000, -0.000000000000000000, 1.000000000000000000 ) ) ;
#126 = ORIENTED_EDGE ( 'NONE', *, *, #810, .T. ) ;
#127 = CARTESIAN_POINT ( 'NONE',  ( 50.00000000000000000, 15.00000000000000000, -2.500000000000018652 ) ) ;
#128 = EDGE_CURVE ( 'NONE', #982, #292, #102, .T. ) ;
#129 = VECTOR ( 'NONE', #24, 1000.000000000000000 ) ;
#130 = ORIENTED_EDGE ( 'NONE', *, *, #76, .T. ) ;
#131 = LINE ( 'NONE', #880, #813 ) ;
#132 =( GEOMETRIC_REPRESENTATION_CONTEXT ( 3 ) GLOBAL_UNCERTAINTY_ASSIGNED_CONTEXT ( ( #987 ) ) GLOBAL_UNIT_ASSIGNED_CONTEXT ( ( #196, #882, #312 ) ) REPRESENTATION_CONTEXT ( 'NONE', 'WORKASPACE' ) );
#133 = VERTEX_POINT ( 'NONE', #332 ) ;
#134 = FILL_AREA_STYLE_COLOUR ( '', #310 ) ;
#135 = PRODUCT_RELATED_PRODUCT_CATEGORY ( 'part', '', ( #391 ) ) ;
#136 = ORIENTED_EDGE ( 'NONE', *, *, #637, .F. ) ;
#137 = CARTESIAN_POINT ( 'NONE',  ( -27.00000000000000000, 0.000000000000000000, 5.499999999999996447 ) ) ;
#138 = SURFACE_STYLE_FILL_AREA ( #206 ) ;
#139 = UNCERTAINTY_MEASURE_WITH_UNIT (LENGTH_MEASURE( 1.000000000000000082E-05 ), #732, 'distance_accuracy_value', 'NONE');
#140 = ORIENTED_EDGE ( 'NONE', *, *, #155, .T. ) ;
#141 = ORIENTED_EDGE ( 'NONE', *, *, #817, .F. ) ;
#142 = CARTESIAN_POINT ( 'NONE',  ( 57.99999999999999289, 15.00000000000000000, 10.49999999999999112 ) ) ;
#143 = DIRECTION ( 'NONE',  ( 0.000000000000000000, 0.000000000000000000, 1.000000000000000000 ) ) ;
#144 = CARTESIAN_POINT ( 'NONE',  ( -27.00000000000000000, 7.500000000000000000, -9.000000000000001776 ) ) ;
#145 = FILL_AREA_STYLE ('',( #134 ) ) ;
#146 = ORIENTED_EDGE ( 'NONE', *, *, #965, .T. ) ;
#147 = CIRCLE ( 'NONE', #797, 9.000000000000005329 ) ;
#148 = CARTESIAN_POINT ( 'NONE',  ( -50.00000000000000000, 15.00000000000000000, 2.500000000000002220 ) ) ;
#149 = EDGE_CURVE ( 'NONE', #392, #502, #698, .T. ) ;
#150 = AXIS2_PLACEMENT_3D ( 'NONE', #280, #189, #651 ) ;
#151 = LINE ( 'NONE', #676, #832 ) ;
#152 = ORIENTED_EDGE ( 'NONE', *, *, #387, .F. ) ;
#153 = CYLINDRICAL_SURFACE ( 'NONE', #261, 5.499999999999998224 ) ;
#154 = FACE_OUTER_BOUND ( 'NONE', #347, .T. ) ;
#155 = EDGE_CURVE ( 'NONE', #681, #61, #777, .T. ) ;
#156 = ORIENTED_EDGE ( 'NONE', *, *, #311, .T. ) ;
#157 = FACE_OUTER_BOUND ( 'NONE', #772, .T. ) ;
#158 = ORIENTED_EDGE ( 'NONE', *, *, #778, .T. ) ;
#159 = CARTESIAN_POINT ( 'NONE',  ( 27.00000000000000000, 7.500000000000000000, -8.999999999999998224 ) ) ;
#160 = ADVANCED_FACE ( 'NONE', ( #398 ), #25, .F. ) ;
#161 = DIRECTION ( 'NONE',  ( -0.000000000000000000, 1.000000000000000000, -0.000000000000000000 ) ) ;
#162 = CARTESIAN_POINT ( 'NONE',  ( -57.99999999999999289, 3.499999999999999556, 10.50000000000000355 ) ) ;
#163 = SURFACE_STYLE_USAGE ( .BOTH. , #11 ) ;
#164 = EDGE_CURVE ( 'NONE', #123, #392, #21, .T. ) ;
#165 = LINE ( 'NONE', #563, #480 ) ;
#166 = CARTESIAN_POINT ( 'NONE',  ( 38.00000000000000711, 3.499999999999997335, -12.50000000000001066 ) ) ;
#167 = LINE ( 'NONE', #931, #388 ) ;
#168 = VERTEX_POINT ( 'NONE', #405 ) ;
#169 = LINE ( 'NONE', #477, #2 ) ;
#170 = DIRECTION ( 'NONE',  ( -0.000000000000000000, 1.000000000000000000, -0.000000000000000000 ) ) ;
#171 = LINE ( 'NONE', #43, #709 ) ;
#172 = ORIENTED_EDGE ( 'NONE', *, *, #990, .F. ) ;
#173 = CARTESIAN_POINT ( 'NONE',  ( 27.00000000000000000, 15.00000000000000000, -5.499999999999991118 ) ) ;
#174 = DIRECTION ( 'NONE',  ( -0.000000000000000000, -1.000000000000000000, -0.000000000000000000 ) ) ;
#175 = EDGE_CURVE ( 'NONE', #286, #951, #913, .T. ) ;
#176 = VECTOR ( 'NONE', #122, 1000.000000000000000 ) ;
#177 = CIRCLE ( 'NONE', #894, 9.000000000000005329 ) ;
#178 = DIRECTION ( 'NONE',  ( -0.000000000000000000, 1.000000000000000000, -0.000000000000000000 ) ) ;
#179 = ORIENTED_EDGE ( 'NONE', *, *, #548, .T. ) ;
#180 = CARTESIAN_POINT ( 'NONE',  ( 60.00000000000000000, 15.00000000000000000, -12.50000000000000888 ) ) ;
#181 = CARTESIAN_POINT ( 'NONE',  ( -27.00000000000000000, 0.000000000000000000, 9.000000000000003553 ) ) ;
#182 = EDGE_CURVE ( 'NONE', #587, #286, #414, .T. ) ;
#183 = CARTESIAN_POINT ( 'NONE',  ( -57.99999999999999289, 15.00000000000000000, -12.49999999999999467 ) ) ;
#184 = DIRECTION ( 'NONE',  ( 0.000000000000000000, -1.000000000000000000, -0.000000000000000000 ) ) ;
#185 = DIRECTION ( 'NONE',  ( -0.000000000000000000, -1.000000000000000000, -0.000000000000000000 ) ) ;
#186 = CYLINDRICAL_SURFACE ( 'NONE', #535, 9.000000000000005329 ) ;
#187 = EDGE_CURVE ( 'NONE', #376, #202, #536, .T. ) ;
#188 = ORIENTED_EDGE ( 'NONE', *, *, #155, .F. ) ;
#189 = DIRECTION ( 'NONE',  ( 1.182766006347823602E-16, -1.000000000000000000, -0.000000000000000000 ) ) ;
#190 = DIRECTION ( 'NONE',  ( 0.000000000000000000, 0.000000000000000000, -1.000000000000000000 ) ) ;
#191 = DIRECTION ( 'NONE',  ( 0.000000000000000000, 0.000000000000000000, 1.000000000000000000 ) ) ;
#192 = ORIENTED_EDGE ( 'NONE', *, *, #573, .F. ) ;
#193 = MECHANICAL_DESIGN_GEOMETRIC_PRESENTATION_REPRESENTATION (  '', ( #501 ), #355 ) ;
#194 = ADVANCED_FACE ( 'NONE', ( #493, #323 ), #263, .F. ) ;
#195 = CARTESIAN_POINT ( 'NONE',  ( -27.00000000000000000, 7.500000000000000000, 9.000000000000001776 ) ) ;
#196 =( LENGTH_UNIT ( ) NAMED_UNIT ( * ) SI_UNIT ( .MILLI., .METRE. ) );
#197 = ORIENTED_EDGE ( 'NONE', *, *, #270, .F. ) ;
#198 = ORIENTED_EDGE ( 'NONE', *, *, #182, .T. ) ;
#199 = DIRECTION ( 'NONE',  ( -0.000000000000000000, -1.000000000000000000, -0.000000000000000000 ) ) ;
#200 = PRESENTATION_STYLE_ASSIGNMENT (( #510 ) ) ;
#201 = PRODUCT_DEFINITION_SHAPE ( 'NONE', 'NONE',  #490 ) ;
#202 = VERTEX_POINT ( 'NONE', #866 ) ;
#203 = DIRECTION ( 'NONE',  ( 1.000000000000000000, 0.000000000000000000, 0.000000000000000000 ) ) ;
#204 = EDGE_LOOP ( 'NONE', ( #803, #525 ) ) ;
#205 = CARTESIAN_POINT ( 'NONE',  ( 27.00000000000000000, 7.500000000000000000, 6.505213034913026604E-15 ) ) ;
#206 = FILL_AREA_STYLE ('',( #359 ) ) ;
#207 = ORIENTED_EDGE ( 'NONE', *, *, #285, .T. ) ;
#208 = ADVANCED_FACE ( 'NONE', ( #625 ), #775, .F. ) ;
#209 = SURFACE_SIDE_STYLE ('',( #899 ) ) ;
#210 = VECTOR ( 'NONE', #663, 1000.000000000000000 ) ;
#211 = ORIENTED_EDGE ( 'NONE', *, *, #484, .F. ) ;
#212 = CIRCLE ( 'NONE', #831, 5.499999999999996447 ) ;
#213 = CARTESIAN_POINT ( 'NONE',  ( 60.00000000000000000, 3.500000000000000000, -10.50000000000000888 ) ) ;
#214 = AXIS2_PLACEMENT_3D ( 'NONE', #849, #90, #692 ) ;
#215 = CARTESIAN_POINT ( 'NONE',  ( 27.00000000000000000, 8.673617379884035472E-16, 9.000000000000010658 ) ) ;
#216 = ORIENTED_EDGE ( 'NONE', *, *, #520, .T. ) ;
#217 = CARTESIAN_POINT ( 'NONE',  ( 0.000000000000000000, 0.000000000000000000, 0.000000000000000000 ) ) ;
#218 = EDGE_LOOP ( 'NONE', ( #121, #428, #720, #820 ) ) ;
#219 = DIRECTION ( 'NONE',  ( -0.000000000000000000, 1.000000000000000000, -0.000000000000000000 ) ) ;
#220 = DIRECTION ( 'NONE',  ( -0.000000000000000000, 1.000000000000000000, -0.000000000000000000 ) ) ;
#221 = UNCERTAINTY_MEASURE_WITH_UNIT (LENGTH_MEASURE( 1.000000000000000082E-05 ), #614, 'distance_accuracy_value', 'NONE');
#222 = VERTEX_POINT ( 'NONE', #557 ) ;
#223 = VERTEX_POINT ( 'NONE', #560 ) ;
#224 = CYLINDRICAL_SURFACE ( 'NONE', #418, 2.000000000000000000 ) ;
#225 = ADVANCED_FACE ( 'NONE', ( #793 ), #106, .F. ) ;
#226 = DIRECTION ( 'NONE',  ( -1.000000000000000000, -1.182766006347823602E-16, 0.000000000000000000 ) ) ;
#227 = DIRECTION ( 'NONE',  ( -0.000000000000000000, -1.000000000000000000, -0.000000000000000000 ) ) ;
#228 = ORIENTED_EDGE ( 'NONE', *, *, #432, .F. ) ;
#229 = AXIS2_PLACEMENT_3D ( 'NONE', #105, #358, #885 ) ;
#230 = VECTOR ( 'NONE', #853, 1000.000000000000000 ) ;
#231 = VECTOR ( 'NONE', #785, 1000.000000000000000 ) ;
#232 = CARTESIAN_POINT ( 'NONE',  ( -50.00000000000000000, 3.499999999999999556, 2.500000000000002220 ) ) ;
#233 = EDGE_LOOP ( 'NONE', ( #957, #48, #424, #152 ) ) ;
#234 = ORIENTED_EDGE ( 'NONE', *, *, #28, .F. ) ;
#235 = CARTESIAN_POINT ( 'NONE',  ( 27.00000000000000000, 0.000000000000000000, 6.505213034913026604E-15 ) ) ;
#236 = EDGE_CURVE ( 'NONE', #313, #658, #423, .T. ) ;
#237 = ORIENTED_EDGE ( 'NONE', *, *, #677, .F. ) ;
#238 = DIRECTION ( 'NONE',  ( -0.000000000000000000, 1.000000000000000000, -0.000000000000000000 ) ) ;
#239 = LINE ( 'NONE', #618, #421 ) ;
#240 = CARTESIAN_POINT ( 'NONE',  ( 50.00000000000000000, 15.00000000000000000, -2.357445088358655073E-14 ) ) ;
#241 = CIRCLE ( 'NONE', #47, 2.499999999999995115 ) ;
#242 = CARTESIAN_POINT ( 'NONE',  ( -57.99999999999999289, 3.500000000000000000, -12.50000000000001066 ) ) ;
#243 = PRESENTATION_LAYER_ASSIGNMENT (  '', '', ( #768 ) ) ;
#244 = DIRECTION ( 'NONE',  ( 0.000000000000000000, 0.000000000000000000, -1.000000000000000000 ) ) ;
#245 = VECTOR ( 'NONE', #125, 1000.000000000000000 ) ;
#246 = ORIENTED_EDGE ( 'NONE', *, *, #164, .T. ) ;
#247 = DIRECTION ( 'NONE',  ( -0.000000000000000000, 1.000000000000000000, -0.000000000000000000 ) ) ;
#248 = DIRECTION ( 'NONE',  ( 0.000000000000000000, 0.000000000000000000, -1.000000000000000000 ) ) ;
#249 = ORIENTED_EDGE ( 'NONE', *, *, #817, .T. ) ;
#250 = EDGE_CURVE ( 'NONE', #61, #581, #799, .T. ) ;
#251 = DIRECTION ( 'NONE',  ( -0.000000000000000000, -1.000000000000000000, -0.000000000000000000 ) ) ;
#252 = CARTESIAN_POINT ( 'NONE',  ( -27.00000000000000000, 0.000000000000000000, 0.000000000000000000 ) ) ;
#253 = CARTESIAN_POINT ( 'NONE',  ( -27.00000000000000000, 15.00000000000000000, -5.499999999999996447 ) ) ;
#254 = ORIENTED_EDGE ( 'NONE', *, *, #315, .F. ) ;
#255 = CARTESIAN_POINT ( 'NONE',  ( 27.00000000000000000, 15.00000000000000000, 5.500000000000005329 ) ) ;
#256 = ADVANCED_FACE ( 'NONE', ( #627 ), #933, .F. ) ;
#257 = CIRCLE ( 'NONE', #150, 2.499999999999995115 ) ;
#258 = DIRECTION ( 'NONE',  ( 0.000000000000000000, 0.000000000000000000, 1.000000000000000000 ) ) ;
#259 = VECTOR ( 'NONE', #265, 1000.000000000000000 ) ;
#260 = DIRECTION ( 'NONE',  ( -1.000000000000000000, 0.000000000000000000, -0.000000000000000000 ) ) ;
#261 = AXIS2_PLACEMENT_3D ( 'NONE', #757, #910, #462 ) ;
#262 = CARTESIAN_POINT ( 'NONE',  ( 50.00000000000000000, 15.00000000000000000, -2.357445088358655073E-14 ) ) ;
#263 = PLANE ( 'NONE',  #50 ) ;
#264 = ADVANCED_FACE ( 'NONE', ( #273 ), #268, .F. ) ;
#265 = DIRECTION ( 'NONE',  ( -0.000000000000000000, -1.000000000000000000, -0.000000000000000000 ) ) ;
#266 = VERTEX_POINT ( 'NONE', #350 ) ;
#267 = DIRECTION ( 'NONE',  ( 0.000000000000000000, -1.000000000000000000, -0.000000000000000000 ) ) ;
#268 = PLANE ( 'NONE',  #847 ) ;
#269 = DIRECTION ( 'NONE',  ( -1.000000000000000000, -0.000000000000000000, -0.000000000000000000 ) ) ;
#270 = EDGE_CURVE ( 'NONE', #292, #110, #770, .T. ) ;
#271 = ORIENTED_EDGE ( 'NONE', *, *, #377, .F. ) ;
#272 = DIRECTION ( 'NONE',  ( 0.000000000000000000, 0.000000000000000000, 1.000000000000000000 ) ) ;
#273 = FACE_OUTER_BOUND ( 'NONE', #303, .T. ) ;
#274 = CIRCLE ( 'NONE', #455, 9.000000000000005329 ) ;
#275 = EDGE_LOOP ( 'NONE', ( #735, #426, #416, #237 ) ) ;
#276 =( NAMED_UNIT ( * ) SI_UNIT ( $, .STERADIAN. ) SOLID_ANGLE_UNIT ( ) );
#277 = AXIS2_PLACEMENT_3D ( 'NONE', #631, #714, #244 ) ;
#278 = ORIENTED_EDGE ( 'NONE', *, *, #619, .F. ) ;
#279 = AXIS2_PLACEMENT_3D ( 'NONE', #262, #247, #567 ) ;
#280 = CARTESIAN_POINT ( 'NONE',  ( 50.00000000000000000, 3.499999999999997780, -2.357445088358655073E-14 ) ) ;
#281 = EDGE_LOOP ( 'NONE', ( #305, #288 ) ) ;
#282 =( NAMED_UNIT ( * ) SI_UNIT ( $, .STERADIAN. ) SOLID_ANGLE_UNIT ( ) );
#283 = EDGE_LOOP ( 'NONE', ( #524, #796, #298, #146, #722, #901 ) ) ;
#284 = CARTESIAN_POINT ( 'NONE',  ( 57.99999999999999289, 3.499999999999999556, 12.49999999999999645 ) ) ;
#285 = EDGE_CURVE ( 'NONE', #541, #495, #82, .T. ) ;
#286 = VERTEX_POINT ( 'NONE', #579 ) ;
#287 = PRODUCT_CONTEXT ( 'NONE', #12, 'mechanical' ) ;
#288 = ORIENTED_EDGE ( 'NONE', *, *, #704, .F. ) ;
#289 = CARTESIAN_POINT ( 'NONE',  ( -50.00000000000000000, 15.00000000000000000, 2.500000000000002220 ) ) ;
#290 = ADVANCED_BREP_SHAPE_REPRESENTATION ( '202500614-10302P01', ( #794, #893 ), #636 ) ;
#291 = EDGE_CURVE ( 'NONE', #349, #763, #739, .T. ) ;
#292 = VERTEX_POINT ( 'NONE', #215 ) ;
#293 = AXIS2_PLACEMENT_3D ( 'NONE', #707, #628, #103 ) ;
#294 = ORIENTED_EDGE ( 'NONE', *, *, #937, .F. ) ;
#295 = CIRCLE ( 'NONE', #753, 2.499999999999995115 ) ;
#296 = LINE ( 'NONE', #137, #767 ) ;
#297 = STYLED_ITEM ( 'NONE', ( #973 ), #304 ) ;
#298 = ORIENTED_EDGE ( 'NONE', *, *, #616, .T. ) ;
#299 =( LENGTH_UNIT ( ) NAMED_UNIT ( * ) SI_UNIT ( .MILLI., .METRE. ) );
#300 = EDGE_CURVE ( 'NONE', #446, #168, #364, .T. ) ;
#301 = ORIENTED_EDGE ( 'NONE', *, *, #377, .T. ) ;
#302 = CARTESIAN_POINT ( 'NONE',  ( -50.00000000000000000, 15.00000000000000000, 7.041719095097280485E-15 ) ) ;
#303 = EDGE_LOOP ( 'NONE', ( #54, #877, #96, #46 ) ) ;
#304 = ADVANCED_FACE ( 'NONE', ( #949 ), #647, .F. ) ;
#305 = ORIENTED_EDGE ( 'NONE', *, *, #187, .F. ) ;
#306 = SURFACE_SIDE_STYLE ('',( #471 ) ) ;
#307 = DIRECTION ( 'NONE',  ( -0.000000000000000000, 1.000000000000000000, -0.000000000000000000 ) ) ;
#308 = ORIENTED_EDGE ( 'NONE', *, *, #467, .F. ) ;
#309 = VECTOR ( 'NONE', #571, 1000.000000000000000 ) ;
#310 = COLOUR_RGB ( '',0.8980392156862745390, 0.9176470588235293713, 0.9294117647058823817 ) ;
#311 = EDGE_CURVE ( 'NONE', #266, #133, #800, .T. ) ;
#312 =( NAMED_UNIT ( * ) SI_UNIT ( $, .STERADIAN. ) SOLID_ANGLE_UNIT ( ) );
#313 = VERTEX_POINT ( 'NONE', #119 ) ;
#314 = ORIENTED_EDGE ( 'NONE', *, *, #17, .T. ) ;
#315 = EDGE_CURVE ( 'NONE', #81, #65, #980, .T. ) ;
#316 = DIRECTION ( 'NONE',  ( -0.000000000000000000, 1.000000000000000000, -0.000000000000000000 ) ) ;
#317 =( NAMED_UNIT ( * ) SI_UNIT ( $, .STERADIAN. ) SOLID_ANGLE_UNIT ( ) );
#318 = LINE ( 'NONE', #180, #684 ) ;
#319 = DIRECTION ( 'NONE',  ( 0.000000000000000000, 0.000000000000000000, -1.000000000000000000 ) ) ;
#320 = PRESENTATION_STYLE_ASSIGNMENT (( #163 ) ) ;
#321 = CIRCLE ( 'NONE', #370, 9.000000000000005329 ) ;
#322 = CYLINDRICAL_SURFACE ( 'NONE', #977, 2.000000000000000000 ) ;
#323 = FACE_OUTER_BOUND ( 'NONE', #521, .T. ) ;
#324 = VECTOR ( 'NONE', #542, 1000.000000000000000 ) ;
#325 = ADVANCED_FACE ( 'NONE', ( #876 ), #655, .F. ) ;
#326 = ORIENTED_EDGE ( 'NONE', *, *, #778, .F. ) ;
#327 = DIRECTION ( 'NONE',  ( 0.000000000000000000, 0.000000000000000000, 1.000000000000000000 ) ) ;
#328 = DIRECTION ( 'NONE',  ( 0.000000000000000000, 0.000000000000000000, -1.000000000000000000 ) ) ;
#329 = CARTESIAN_POINT ( 'NONE',  ( -27.00000000000000000, 7.500000000000000000, 0.000000000000000000 ) ) ;
#330 = EDGE_LOOP ( 'NONE', ( #234, #197 ) ) ;
#331 = CARTESIAN_POINT ( 'NONE',  ( 27.00000000000000000, 7.500000000000000000, 6.505213034913026604E-15 ) ) ;
#332 = CARTESIAN_POINT ( 'NONE',  ( -38.00000000000000000, 0.000000000000000000, -12.50000000000001066 ) ) ;
#333 = CARTESIAN_POINT ( 'NONE',  ( -38.00000000000000000, 3.500000000000000000, -12.50000000000001066 ) ) ;
#334 = ORIENTED_EDGE ( 'NONE', *, *, #823, .F. ) ;
#335 = DIRECTION ( 'NONE',  ( 0.000000000000000000, 0.000000000000000000, -1.000000000000000000 ) ) ;
#336 = AXIS2_PLACEMENT_3D ( 'NONE', #620, #219, #693 ) ;
#337 = LINE ( 'NONE', #639, #456 ) ;
#338 = DIRECTION ( 'NONE',  ( -0.000000000000000000, -1.000000000000000000, -0.000000000000000000 ) ) ;
#339 = PRESENTATION_LAYER_ASSIGNMENT (  '', '', ( #297 ) ) ;
#340 = EDGE_LOOP ( 'NONE', ( #44, #530, #369, #141 ) ) ;
#341 = CARTESIAN_POINT ( 'NONE',  ( 60.00000000000000000, 15.00000000000000000, 10.49999999999999112 ) ) ;
#342 = CARTESIAN_POINT ( 'NONE',  ( -27.00000000000000000, 8.673617379884035472E-16, 0.000000000000000000 ) ) ;
#343 = LINE ( 'NONE', #38, #844 ) ;
#344 = VERTEX_POINT ( 'NONE', #761 ) ;
#345 = LINE ( 'NONE', #812, #19 ) ;
#346 = DIRECTION ( 'NONE',  ( -0.000000000000000000, -1.000000000000000000, -0.000000000000000000 ) ) ;
#347 = EDGE_LOOP ( 'NONE', ( #385, #216 ) ) ;
#348 = CARTESIAN_POINT ( 'NONE',  ( 27.00000000000000000, 0.000000000000000000, 6.505213034913026604E-15 ) ) ;
#349 = VERTEX_POINT ( 'NONE', #538 ) ;
#350 = CARTESIAN_POINT ( 'NONE',  ( 38.00000000000000711, -3.306546357697854128E-15, -12.50000000000001066 ) ) ;
#351 = CIRCLE ( 'NONE', #336, 2.000000000000000000 ) ;
#352 = ORIENTED_EDGE ( 'NONE', *, *, #291, .F. ) ;
#353 = VECTOR ( 'NONE', #489, 1000.000000000000000 ) ;
#354 = VECTOR ( 'NONE', #543, 1000.000000000000000 ) ;
#355 =( GEOMETRIC_REPRESENTATION_CONTEXT ( 3 ) GLOBAL_UNCERTAINTY_ASSIGNED_CONTEXT ( ( #221 ) ) GLOBAL_UNIT_ASSIGNED_CONTEXT ( ( #614, #771, #824 ) ) REPRESENTATION_CONTEXT ( 'NONE', 'WORKASPACE' ) );
#356 = ADVANCED_FACE ( 'NONE', ( #979 ), #917, .F. ) ;
#357 = VERTEX_POINT ( 'NONE', #232 ) ;
#358 = DIRECTION ( 'NONE',  ( 1.182766006347823602E-16, -1.000000000000000000, -0.000000000000000000 ) ) ;
#359 = FILL_AREA_STYLE_COLOUR ( '', #458 ) ;
#360 = ORIENTED_EDGE ( 'NONE', *, *, #84, .F. ) ;
#361 = CARTESIAN_POINT ( 'NONE',  ( -27.00000000000000000, 0.000000000000000000, -5.499999999999996447 ) ) ;
#362 = EDGE_LOOP ( 'NONE', ( #920, #465, #604, #816, #179, #130, #140, #508 ) ) ;
#363 = CARTESIAN_POINT ( 'NONE',  ( -60.00000000000000000, 15.00000000000000000, -10.49999999999999467 ) ) ;
#364 = LINE ( 'NONE', #430, #245 ) ;
#365 = ORIENTED_EDGE ( 'NONE', *, *, #887, .T. ) ;
#366 = ORIENTED_EDGE ( 'NONE', *, *, #28, .T. ) ;
#367 = CARTESIAN_POINT ( 'NONE',  ( 60.00000000000000000, 3.500000000000000000, -12.50000000000001066 ) ) ;
#368 = ADVANCED_FACE ( 'NONE', ( #682 ), #153, .F. ) ;
#369 = ORIENTED_EDGE ( 'NONE', *, *, #270, .T. ) ;
#370 = AXIS2_PLACEMENT_3D ( 'NONE', #331, #630, #936 ) ;
#371 = CIRCLE ( 'NONE', #608, 2.000000000000000000 ) ;
#372 = ORIENTED_EDGE ( 'NONE', *, *, #76, .F. ) ;
#373 = CARTESIAN_POINT ( 'NONE',  ( -60.00000000000000000, 15.00000000000000000, -12.49999999999999467 ) ) ;
#374 = AXIS2_PLACEMENT_3D ( 'NONE', #420, #552, #37 ) ;
#375 = PLANE ( 'NONE',  #915 ) ;
#376 = VERTEX_POINT ( 'NONE', #148 ) ;
#377 = EDGE_CURVE ( 'NONE', #168, #782, #842, .T. ) ;
#378 = CARTESIAN_POINT ( 'NONE',  ( -38.00000000000000000, 0.000000000000000000, 12.49999999999999645 ) ) ;
#379 = EDGE_LOOP ( 'NONE', ( #904, #207 ) ) ;
#380 = CYLINDRICAL_SURFACE ( 'NONE', #656, 2.000000000000000000 ) ;
#381 = DIRECTION ( 'NONE',  ( -0.000000000000000000, 1.000000000000000000, -0.000000000000000000 ) ) ;
#382 = ORIENTED_EDGE ( 'NONE', *, *, #965, .F. ) ;
#383 = CARTESIAN_POINT ( 'NONE',  ( 50.00000000000000000, 15.00000000000000000, -2.357445088358655073E-14 ) ) ;
#384 = ORIENTED_EDGE ( 'NONE', *, *, #643, .T. ) ;
#385 = ORIENTED_EDGE ( 'NONE', *, *, #719, .T. ) ;
#386 = AXIS2_PLACEMENT_3D ( 'NONE', #522, #267, #874 ) ;
#387 = EDGE_CURVE ( 'NONE', #658, #935, #599, .T. ) ;
#388 = VECTOR ( 'NONE', #83, 1000.000000000000000 ) ;
#389 = AXIS2_PLACEMENT_3D ( 'NONE', #984, #316, #319 ) ;
#390 = AXIS2_PLACEMENT_3D ( 'NONE', #635, #556, #335 ) ;
#391 = PRODUCT ( '202500614-10302P01', '202500614-10302P01', '', ( #287 ) ) ;
#392 = VERTEX_POINT ( 'NONE', #983 ) ;
#393 = FACE_OUTER_BOUND ( 'NONE', #756, .T. ) ;
#394 = DIRECTION ( 'NONE',  ( -1.011922027653137513E-16, 0.000000000000000000, -1.000000000000000000 ) ) ;
#395 = LINE ( 'NONE', #840, #846 ) ;
#396 = LINE ( 'NONE', #367, #547 ) ;
#397 = FACE_OUTER_BOUND ( 'NONE', #835, .T. ) ;
#398 = FACE_OUTER_BOUND ( 'NONE', #340, .T. ) ;
#399 = ADVANCED_FACE ( 'NONE', ( #157, #602 ), #903, .F. ) ;
#400 = CARTESIAN_POINT ( 'NONE',  ( 27.00000000000000000, 7.500000000000000000, 6.505213034913026604E-15 ) ) ;
#401 = CIRCLE ( 'NONE', #386, 2.499999999999995115 ) ;
#402 = DIRECTION ( 'NONE',  ( 0.000000000000000000, -1.000000000000000000, 0.000000000000000000 ) ) ;
#403 = AXIS2_PLACEMENT_3D ( 'NONE', #342, #789, #862 ) ;
#404 = PRESENTATION_LAYER_ASSIGNMENT (  '', '', ( #834 ) ) ;
#405 = CARTESIAN_POINT ( 'NONE',  ( -38.00000000000000000, 3.500000000000000000, 12.49999999999999645 ) ) ;
#406 = ADVANCED_FACE ( 'NONE', ( #749, #70 ), #375, .F. ) ;
#407 = LINE ( 'NONE', #22, #353 ) ;
#408 = VERTEX_POINT ( 'NONE', #532 ) ;
#409 = FACE_OUTER_BOUND ( 'NONE', #437, .T. ) ;
#410 = DIRECTION ( 'NONE',  ( 1.000000000000000000, -0.000000000000000000, -1.011922027653137513E-16 ) ) ;
#411 = CARTESIAN_POINT ( 'NONE',  ( 60.00000000000000000, 3.500000000000000000, 12.49999999999999645 ) ) ;
#412 = ADVANCED_FACE ( 'NONE', ( #829 ), #380, .T. ) ;
#413 = CYLINDRICAL_SURFACE ( 'NONE', #390, 9.000000000000003553 ) ;
#414 = LINE ( 'NONE', #181, #959 ) ;
#415 = FACE_OUTER_BOUND ( 'NONE', #898, .T. ) ;
#416 = ORIENTED_EDGE ( 'NONE', *, *, #629, .T. ) ;
#417 = DIRECTION ( 'NONE',  ( -1.000000000000000000, 0.000000000000000000, 0.000000000000000000 ) ) ;
#418 = AXIS2_PLACEMENT_3D ( 'NONE', #142, #69, #978 ) ;
#419 = VECTOR ( 'NONE', #878, 1000.000000000000000 ) ;
#420 = CARTESIAN_POINT ( 'NONE',  ( -27.00000000000000000, 0.000000000000000000, 0.000000000000000000 ) ) ;
#421 = VECTOR ( 'NONE', #926, 1000.000000000000000 ) ;
#422 = CARTESIAN_POINT ( 'NONE',  ( 50.00000000000000000, 3.499999999999997780, -2.500000000000018652 ) ) ;
#423 = CIRCLE ( 'NONE', #214, 2.000000000000001776 ) ;
#424 = ORIENTED_EDGE ( 'NONE', *, *, #764, .F. ) ;
#425 = CYLINDRICAL_SURFACE ( 'NONE', #925, 2.499999999999995115 ) ;
#426 = ORIENTED_EDGE ( 'NONE', *, *, #89, .T. ) ;
#427 = DIRECTION ( 'NONE',  ( 0.000000000000000000, -1.000000000000000000, 0.000000000000000000 ) ) ;
#428 = ORIENTED_EDGE ( 'NONE', *, *, #484, .T. ) ;
#429 = SURFACE_STYLE_USAGE ( .BOTH. , #118 ) ;
#430 = CARTESIAN_POINT ( 'NONE',  ( -38.00000000000000000, 3.500000000000000000, -12.50000000000001066 ) ) ;
#431 = ORIENTED_EDGE ( 'NONE', *, *, #120, .F. ) ;
#432 = EDGE_CURVE ( 'NONE', #985, #168, #855, .T. ) ;
#433 = VERTEX_POINT ( 'NONE', #474 ) ;
#434 = LINE ( 'NONE', #289, #309 ) ;
#435 = FILL_AREA_STYLE ('',( #718 ) ) ;
#436 = PRESENTATION_LAYER_ASSIGNMENT (  '', '', ( #750 ) ) ;
#437 = EDGE_LOOP ( 'NONE', ( #747, #271, #228, #126, #884, #382, #657, #188 ) ) ;
#438 = AXIS2_PLACEMENT_3D ( 'NONE', #235, #466, #7 ) ;
#439 = ADVANCED_FACE ( 'NONE', ( #397 ), #413, .F. ) ;
#440 = AXIS2_PLACEMENT_3D ( 'NONE', #302, #238, #544 ) ;
#441 = VERTEX_POINT ( 'NONE', #8 ) ;
#442 = DIRECTION ( 'NONE',  ( -0.000000000000000000, -1.000000000000000000, -0.000000000000000000 ) ) ;
#443 =( NAMED_UNIT ( * ) PLANE_ANGLE_UNIT ( ) SI_UNIT ( $, .RADIAN. ) );
#444 = ORIENTED_EDGE ( 'NONE', *, *, #605, .T. ) ;
#445 = LINE ( 'NONE', #361, #176 ) ;
#446 = VERTEX_POINT ( 'NONE', #788 ) ;
#447 = DIRECTION ( 'NONE',  ( 1.000000000000000000, 0.000000000000000000, 0.000000000000000000 ) ) ;
#448 = ADVANCED_FACE ( 'NONE', ( #29, #481, #626, #705, #701 ), #774, .F. ) ;
#449 =( NAMED_UNIT ( * ) SI_UNIT ( $, .STERADIAN. ) SOLID_ANGLE_UNIT ( ) );
#450 = ORIENTED_EDGE ( 'NONE', *, *, #810, .F. ) ;
#451 = ORIENTED_EDGE ( 'NONE', *, *, #850, .F. ) ;
#452 = DIRECTION ( 'NONE',  ( -0.000000000000000000, -1.000000000000000000, -0.000000000000000000 ) ) ;
#453 = DIRECTION ( 'NONE',  ( 0.000000000000000000, -0.000000000000000000, 1.000000000000000000 ) ) ;
#454 = LINE ( 'NONE', #833, #354 ) ;
#455 = AXIS2_PLACEMENT_3D ( 'NONE', #400, #822, #598 ) ;
#456 = VECTOR ( 'NONE', #945, 1000.000000000000000 ) ;
#457 = ORIENTED_EDGE ( 'NONE', *, *, #182, .F. ) ;
#458 = COLOUR_RGB ( '',0.8980392156862745390, 0.9176470588235293713, 0.9294117647058823817 ) ;
#459 = VECTOR ( 'NONE', #161, 1000.000000000000000 ) ;
#460 = DIRECTION ( 'NONE',  ( 1.182766006347823602E-16, -1.000000000000000000, -0.000000000000000000 ) ) ;
#461 = ORIENTED_EDGE ( 'NONE', *, *, #175, .T. ) ;
#462 = DIRECTION ( 'NONE',  ( 0.000000000000000000, 0.000000000000000000, -1.000000000000000000 ) ) ;
#463 = PLANE ( 'NONE',  #873 ) ;
#464 = EDGE_CURVE ( 'NONE', #976, #662, #4, .T. ) ;
#465 = ORIENTED_EDGE ( 'NONE', *, *, #764, .T. ) ;
#466 = DIRECTION ( 'NONE',  ( -0.000000000000000000, -1.000000000000000000, -0.000000000000000000 ) ) ;
#467 = EDGE_CURVE ( 'NONE', #65, #81, #621, .T. ) ;
#468 = CIRCLE ( 'NONE', #830, 5.500000000000001776 ) ;
#469 = AXIS2_PLACEMENT_3D ( 'NONE', #162, #825, #528 ) ;
#470 = MECHANICAL_DESIGN_GEOMETRIC_PRESENTATION_REPRESENTATION (  '', ( #834 ), #132 ) ;
#471 = SURFACE_STYLE_FILL_AREA ( #606 ) ;
#472 = FACE_OUTER_BOUND ( 'NONE', #275, .T. ) ;
#473 =( LENGTH_UNIT ( ) NAMED_UNIT ( * ) SI_UNIT ( .MILLI., .METRE. ) );
#474 = CARTESIAN_POINT ( 'NONE',  ( -27.00000000000000000, 15.00000000000000000, 5.499999999999996447 ) ) ;
#475 = DIRECTION ( 'NONE',  ( 0.000000000000000000, -0.000000000000000000, 1.000000000000000000 ) ) ;
#476 = LINE ( 'NONE', #62, #259 ) ;
#477 = CARTESIAN_POINT ( 'NONE',  ( 38.00000000000000711, 3.499999999999997335, -12.50000000000001066 ) ) ;
#478 = DIRECTION ( 'NONE',  ( -0.000000000000000000, -0.000000000000000000, 1.000000000000000000 ) ) ;
#479 = DIRECTION ( 'NONE',  ( -1.000000000000000000, -1.182766006347823602E-16, 0.000000000000000000 ) ) ;
#480 = VECTOR ( 'NONE', #13, 1000.000000000000000 ) ;
#481 = FACE_BOUND ( 'NONE', #379, .T. ) ;
#482 = AXIS2_PLACEMENT_3D ( 'NONE', #642, #938, #258 ) ;
#483 = DIRECTION ( 'NONE',  ( 0.000000000000000000, 0.000000000000000000, -1.000000000000000000 ) ) ;
#484 = EDGE_CURVE ( 'NONE', #408, #202, #861, .T. ) ;
#485 = DIRECTION ( 'NONE',  ( -0.000000000000000000, -1.000000000000000000, -0.000000000000000000 ) ) ;
#486 = ORIENTED_EDGE ( 'NONE', *, *, #751, .F. ) ;
#487 = DIRECTION ( 'NONE',  ( 0.000000000000000000, 0.000000000000000000, -1.000000000000000000 ) ) ;
#488 = CARTESIAN_POINT ( 'NONE',  ( 38.00000000000000711, 3.499999999999997335, 12.49999999999999645 ) ) ;
#489 = DIRECTION ( 'NONE',  ( -0.000000000000000000, -0.000000000000000000, 1.000000000000000000 ) ) ;
#490 = PRODUCT_DEFINITION ( 'UNKNOWN', '', #730, #758 ) ;
#491 = ORIENTED_EDGE ( 'NONE', *, *, #464, .T. ) ;
#492 = CARTESIAN_POINT ( 'NONE',  ( 38.00000000000000711, -3.306546357697854128E-15, 12.49999999999999645 ) ) ;
#493 = FACE_BOUND ( 'NONE', #838, .T. ) ;
#494 = FACE_BOUND ( 'NONE', #971, .T. ) ;
#495 = VERTEX_POINT ( 'NONE', #173 ) ;
#496 = DIRECTION ( 'NONE',  ( 0.000000000000000000, 0.000000000000000000, 1.000000000000000000 ) ) ;
#497 = AXIS2_PLACEMENT_3D ( 'NONE', #932, #251, #865 ) ;
#498 = AXIS2_PLACEMENT_3D ( 'NONE', #116, #427, #721 ) ;
#499 = DIRECTION ( 'NONE',  ( 0.000000000000000000, 0.000000000000000000, 1.000000000000000000 ) ) ;
#500 = CARTESIAN_POINT ( 'NONE',  ( 38.00000000000000711, 3.499999999999997335, -12.50000000000001066 ) ) ;
#501 = STYLED_ITEM ( 'NONE', ( #527 ), #356 ) ;
#502 = VERTEX_POINT ( 'NONE', #492 ) ;
#503 = FILL_AREA_STYLE ('',( #717 ) ) ;
#504 = ADVANCED_FACE ( 'NONE', ( #409 ), #691, .F. ) ;
#505 = DIRECTION ( 'NONE',  ( -0.000000000000000000, -1.000000000000000000, -0.000000000000000000 ) ) ;
#506 = ORIENTED_EDGE ( 'NONE', *, *, #956, .F. ) ;
#507 = DIRECTION ( 'NONE',  ( -0.000000000000000000, 1.000000000000000000, -0.000000000000000000 ) ) ;
#508 = ORIENTED_EDGE ( 'NONE', *, *, #250, .T. ) ;
#509 = CARTESIAN_POINT ( 'NONE',  ( -27.00000000000000000, 7.500000000000000000, 0.000000000000000000 ) ) ;
#510 = SURFACE_STYLE_USAGE ( .BOTH. , #962 ) ;
#511 = EDGE_CURVE ( 'NONE', #581, #935, #318, .T. ) ;
#512 = VERTEX_POINT ( 'NONE', #242 ) ;
#513 = APPLICATION_PROTOCOL_DEFINITION ( 'draft international standard', 'automotive_design', 1998, #12 ) ;
#514 = EDGE_LOOP ( 'NONE', ( #883, #545 ) ) ;
#515 = DIRECTION ( 'NONE',  ( -0.000000000000000000, -1.000000000000000000, -0.000000000000000000 ) ) ;
#516 = DIRECTION ( 'NONE',  ( -0.000000000000000000, -0.000000000000000000, 1.000000000000000000 ) ) ;
#517 = AXIS2_PLACEMENT_3D ( 'NONE', #51, #948, #891 ) ;
#518 = EDGE_LOOP ( 'NONE', ( #77, #766, #821, #246 ) ) ;
#519 = AXIS2_PLACEMENT_3D ( 'NONE', #715, #94, #867 ) ;
#520 = EDGE_CURVE ( 'NONE', #982, #805, #321, .T. ) ;
#521 = EDGE_LOOP ( 'NONE', ( #384, #737 ) ) ;
#522 = CARTESIAN_POINT ( 'NONE',  ( -50.00000000000000000, 3.499999999999999556, 7.041719095097280485E-15 ) ) ;
#523 = DIRECTION ( 'NONE',  ( 0.000000000000000000, 0.000000000000000000, -1.000000000000000000 ) ) ;
#524 = ORIENTED_EDGE ( 'NONE', *, *, #236, .T. ) ;
#525 = ORIENTED_EDGE ( 'NONE', *, *, #464, .F. ) ;
#526 = CARTESIAN_POINT ( 'NONE',  ( -27.00000000000000000, 0.000000000000000000, -9.000000000000003553 ) ) ;
#527 = PRESENTATION_STYLE_ASSIGNMENT (( #765 ) ) ;
#528 = DIRECTION ( 'NONE',  ( 0.000000000000000000, 0.000000000000000000, 1.000000000000000000 ) ) ;
#529 =( NAMED_UNIT ( * ) PLANE_ANGLE_UNIT ( ) SI_UNIT ( $, .RADIAN. ) );
#530 = ORIENTED_EDGE ( 'NONE', *, *, #128, .T. ) ;
#531 =( LENGTH_UNIT ( ) NAMED_UNIT ( * ) SI_UNIT ( .MILLI., .METRE. ) );
#532 = CARTESIAN_POINT ( 'NONE',  ( -50.00000000000000000, 3.499999999999999556, -2.499999999999988454 ) ) ;
#533 = ORIENTED_EDGE ( 'NONE', *, *, #918, .T. ) ;
#534 = AXIS2_PLACEMENT_3D ( 'NONE', #952, #417, #272 ) ;
#535 = AXIS2_PLACEMENT_3D ( 'NONE', #348, #644, #870 ) ;
#536 = CIRCLE ( 'NONE', #482, 2.499999999999995115 ) ;
#537 = ORIENTED_EDGE ( 'NONE', *, *, #42, .T. ) ;
#538 = CARTESIAN_POINT ( 'NONE',  ( -60.00000000000000000, 3.499999999999999556, -10.49999999999999467 ) ) ;
#539 = EDGE_CURVE ( 'NONE', #223, #313, #551, .T. ) ;
#540 = CARTESIAN_POINT ( 'NONE',  ( 27.00000000000000000, 8.673617379884035472E-16, -8.999999999999998224 ) ) ;
#541 = VERTEX_POINT ( 'NONE', #255 ) ;
#542 = DIRECTION ( 'NONE',  ( -1.000000000000000000, -0.000000000000000000, -0.000000000000000000 ) ) ;
#543 = DIRECTION ( 'NONE',  ( 0.000000000000000000, -1.000000000000000000, -0.000000000000000000 ) ) ;
#544 = DIRECTION ( 'NONE',  ( 0.000000000000000000, 0.000000000000000000, 1.000000000000000000 ) ) ;
#545 = ORIENTED_EDGE ( 'NONE', *, *, #629, .F. ) ;
#546 = DIRECTION ( 'NONE',  ( 0.000000000000000000, 0.000000000000000000, 1.000000000000000000 ) ) ;
#547 = VECTOR ( 'NONE', #87, 1000.000000000000000 ) ;
#548 = EDGE_CURVE ( 'NONE', #667, #344, #165, .T. ) ;
#549 = CIRCLE ( 'NONE', #469, 2.000000000000000000 ) ;
#550 = AXIS2_PLACEMENT_3D ( 'NONE', #852, #170, #328 ) ;
#551 = LINE ( 'NONE', #848, #14 ) ;
#552 = DIRECTION ( 'NONE',  ( -0.000000000000000000, -1.000000000000000000, -0.000000000000000000 ) ) ;
#553 = FILL_AREA_STYLE_COLOUR ( '', #595 ) ;
#554 = ADVANCED_FACE ( 'NONE', ( #624 ), #322, .T. ) ;
#555 = ORIENTED_EDGE ( 'NONE', *, *, #605, .F. ) ;
#556 = DIRECTION ( 'NONE',  ( -0.000000000000000000, -1.000000000000000000, -0.000000000000000000 ) ) ;
#557 = CARTESIAN_POINT ( 'NONE',  ( 50.00000000000000000, 3.499999999999997780, 2.499999999999972022 ) ) ;
#558 = CARTESIAN_POINT ( 'NONE',  ( -57.99999999999999289, 15.00000000000000000, 12.50000000000000355 ) ) ;
#559 = CARTESIAN_POINT ( 'NONE',  ( -38.00000000000000000, 3.500000000000000000, 12.49999999999999645 ) ) ;
#560 = CARTESIAN_POINT ( 'NONE',  ( 57.99999999999999289, 15.00000000000000000, -12.50000000000000888 ) ) ;
#561 = FACE_OUTER_BOUND ( 'NONE', #518, .T. ) ;
#562 = MECHANICAL_DESIGN_GEOMETRIC_PRESENTATION_REPRESENTATION (  '', ( #750 ), #780 ) ;
#563 = CARTESIAN_POINT ( 'NONE',  ( -60.00000000000000000, 15.00000000000000000, -12.49999999999999467 ) ) ;
#564 = DIRECTION ( 'NONE',  ( 0.000000000000000000, 1.000000000000000000, 0.000000000000000000 ) ) ;
#565 = EDGE_CURVE ( 'NONE', #123, #266, #169, .T. ) ;
#566 = FACE_OUTER_BOUND ( 'NONE', #947, .T. ) ;
#567 = DIRECTION ( 'NONE',  ( 0.000000000000000000, 0.000000000000000000, 1.000000000000000000 ) ) ;
#568 = DIRECTION ( 'NONE',  ( 0.000000000000000000, -0.000000000000000000, 1.000000000000000000 ) ) ;
#569 = LINE ( 'NONE', #640, #49 ) ;
#570 = ORIENTED_EDGE ( 'NONE', *, *, #250, .F. ) ;
#571 = DIRECTION ( 'NONE',  ( -0.000000000000000000, 1.000000000000000000, -0.000000000000000000 ) ) ;
#572 = DIRECTION ( 'NONE',  ( -0.000000000000000000, 1.000000000000000000, -0.000000000000000000 ) ) ;
#573 = EDGE_CURVE ( 'NONE', #357, #408, #241, .T. ) ;
#574 = ORIENTED_EDGE ( 'NONE', *, *, #590, .F. ) ;
#575 = DIRECTION ( 'NONE',  ( -1.000000000000000000, 0.000000000000000000, 1.156482317317871478E-16 ) ) ;
#576 = CIRCLE ( 'NONE', #80, 2.499999999999995115 ) ;
#577 = MECHANICAL_DESIGN_GEOMETRIC_PRESENTATION_REPRESENTATION (  '', ( #768 ), #872 ) ;
#578 = VECTOR ( 'NONE', #410, 1000.000000000000000 ) ;
#579 = CARTESIAN_POINT ( 'NONE',  ( -27.00000000000000000, 8.673617379884035472E-16, 9.000000000000005329 ) ) ;
#580 = AXIS2_PLACEMENT_3D ( 'NONE', #953, #346, #59 ) ;
#581 = VERTEX_POINT ( 'NONE', #341 ) ;
#582 = CIRCLE ( 'NONE', #229, 2.000000000000001776 ) ;
#583 = ORIENTED_EDGE ( 'NONE', *, *, #751, .T. ) ;
#584 = EDGE_CURVE ( 'NONE', #596, #860, #468, .T. ) ;
#585 = DIRECTION ( 'NONE',  ( 0.000000000000000000, 0.000000000000000000, -1.000000000000000000 ) ) ;
#586 = ORIENTED_EDGE ( 'NONE', *, *, #823, .T. ) ;
#587 = VERTEX_POINT ( 'NONE', #195 ) ;
#588 = CARTESIAN_POINT ( 'NONE',  ( 27.00000000000000000, 7.500000000000000000, -5.499999999999994671 ) ) ;
#589 = CARTESIAN_POINT ( 'NONE',  ( -38.00000000000000000, 3.500000000000000000, -12.50000000000001066 ) ) ;
#590 = EDGE_CURVE ( 'NONE', #879, #433, #634, .T. ) ;
#591 = ORIENTED_EDGE ( 'NONE', *, *, #467, .T. ) ;
#592 = ORIENTED_EDGE ( 'NONE', *, *, #84, .T. ) ;
#593 = PLANE ( 'NONE',  #517 ) ;
#594 = DIRECTION ( 'NONE',  ( -0.000000000000000000, 1.000000000000000000, -0.000000000000000000 ) ) ;
#595 = COLOUR_RGB ( '',0.8980392156862745390, 0.9176470588235293713, 0.9294117647058823817 ) ;
#596 = VERTEX_POINT ( 'NONE', #588 ) ;
#597 = ORIENTED_EDGE ( 'NONE', *, *, #311, .F. ) ;
#598 = DIRECTION ( 'NONE',  ( 0.000000000000000000, 0.000000000000000000, -1.000000000000000000 ) ) ;
#599 = LINE ( 'NONE', #839, #459 ) ;
#600 = ORIENTED_EDGE ( 'NONE', *, *, #565, .T. ) ;
#601 = VERTEX_POINT ( 'NONE', #284 ) ;
#602 = FACE_BOUND ( 'NONE', #685, .T. ) ;
#603 = DIRECTION ( 'NONE',  ( 0.000000000000000000, 0.000000000000000000, -1.000000000000000000 ) ) ;
#604 = ORIENTED_EDGE ( 'NONE', *, *, #637, .T. ) ;
#605 = EDGE_CURVE ( 'NONE', #854, #222, #257, .T. ) ;
#606 = FILL_AREA_STYLE ('',( #611 ) ) ;
#607 = DIRECTION ( 'NONE',  ( 0.000000000000000000, 0.000000000000000000, 1.000000000000000000 ) ) ;
#608 = AXIS2_PLACEMENT_3D ( 'NONE', #950, #31, #191 ) ;
#609 = ORIENTED_EDGE ( 'NONE', *, *, #511, .F. ) ;
#610 = VECTOR ( 'NONE', #516, 1000.000000000000000 ) ;
#611 = FILL_AREA_STYLE_COLOUR ( '', #673 ) ;
#612 = DIRECTION ( 'NONE',  ( -0.000000000000000000, -1.000000000000000000, -0.000000000000000000 ) ) ;
#613 = ORIENTED_EDGE ( 'NONE', *, *, #974, .F. ) ;
#614 =( LENGTH_UNIT ( ) NAMED_UNIT ( * ) SI_UNIT ( .MILLI., .METRE. ) );
#615 = CARTESIAN_POINT ( 'NONE',  ( -27.00000000000000000, 7.500000000000000000, 5.499999999999997335 ) ) ;
#616 = EDGE_CURVE ( 'NONE', #441, #601, #582, .T. ) ;
#617 = CARTESIAN_POINT ( 'NONE',  ( 0.000000000000000000, 15.00000000000000000, 0.000000000000000000 ) ) ;
#618 = CARTESIAN_POINT ( 'NONE',  ( -57.99999999999999289, 15.00000000000000000, -12.49999999999999467 ) ) ;
#619 = EDGE_CURVE ( 'NONE', #763, #344, #345, .T. ) ;
#620 = CARTESIAN_POINT ( 'NONE',  ( 57.99999999999999289, 15.00000000000000000, -10.50000000000000888 ) ) ;
#621 = CIRCLE ( 'NONE', #497, 5.499999999999998224 ) ;
#622 = CIRCLE ( 'NONE', #389, 2.000000000000000000 ) ;
#623 = PRESENTATION_LAYER_ASSIGNMENT (  '', '', ( #501 ) ) ;
#624 = FACE_OUTER_BOUND ( 'NONE', #233, .T. ) ;
#625 = FACE_OUTER_BOUND ( 'NONE', #645, .T. ) ;
#626 = FACE_BOUND ( 'NONE', #989, .T. ) ;
#627 = FACE_OUTER_BOUND ( 'NONE', #807, .T. ) ;
#628 = DIRECTION ( 'NONE',  ( 0.000000000000000000, -1.000000000000000000, 0.000000000000000000 ) ) ;
#629 = EDGE_CURVE ( 'NONE', #860, #596, #858, .T. ) ;
#630 = DIRECTION ( 'NONE',  ( -0.000000000000000000, -1.000000000000000000, -0.000000000000000000 ) ) ;
#631 = CARTESIAN_POINT ( 'NONE',  ( 27.00000000000000000, 0.000000000000000000, 6.505213034913026604E-15 ) ) ;
#632 = PLANE ( 'NONE',  #653 ) ;
#633 = EDGE_LOOP ( 'NONE', ( #365, #726, #592, #136, #787, #533, #600, #156 ) ) ;
#634 = CIRCLE ( 'NONE', #92, 5.499999999999996447 ) ;
#635 = CARTESIAN_POINT ( 'NONE',  ( -27.00000000000000000, 0.000000000000000000, 0.000000000000000000 ) ) ;
#636 =( GEOMETRIC_REPRESENTATION_CONTEXT ( 3 ) GLOBAL_UNCERTAINTY_ASSIGNED_CONTEXT ( ( #968 ) ) GLOBAL_UNIT_ASSIGNED_CONTEXT ( ( #66, #826, #276 ) ) REPRESENTATION_CONTEXT ( 'NONE', 'WORKASPACE' ) );
#637 = EDGE_CURVE ( 'NONE', #223, #916, #131, .T. ) ;
#638 = AXIS2_PLACEMENT_3D ( 'NONE', #45, #660, #886 ) ;
#639 = CARTESIAN_POINT ( 'NONE',  ( 60.00000000000000000, 15.00000000000000000, 10.49999999999999112 ) ) ;
#640 = CARTESIAN_POINT ( 'NONE',  ( -60.00000000000000000, 3.500000000000000000, -12.50000000000001066 ) ) ;
#641 = LINE ( 'NONE', #124, #210 ) ;
#642 = CARTESIAN_POINT ( 'NONE',  ( -50.00000000000000000, 15.00000000000000000, 7.041719095097280485E-15 ) ) ;
#643 = EDGE_CURVE ( 'NONE', #60, #587, #729, .T. ) ;
#644 = DIRECTION ( 'NONE',  ( -0.000000000000000000, -1.000000000000000000, -0.000000000000000000 ) ) ;
#645 = EDGE_LOOP ( 'NONE', ( #486, #574, #708, #591 ) ) ;
#646 = CARTESIAN_POINT ( 'NONE',  ( 27.00000000000000000, 7.500000000000000000, 6.505213034913026604E-15 ) ) ;
#647 = CYLINDRICAL_SURFACE ( 'NONE', #71, 2.499999999999995115 ) ;
#648 = ORIENTED_EDGE ( 'NONE', *, *, #719, .F. ) ;
#649 = CARTESIAN_POINT ( 'NONE',  ( 27.00000000000000000, 7.500000000000000000, 5.500000000000007994 ) ) ;
#650 = ORIENTED_EDGE ( 'NONE', *, *, #590, .T. ) ;
#651 = DIRECTION ( 'NONE',  ( -1.000000000000000000, -1.734723475976810546E-16, 0.000000000000000000 ) ) ;
#652 = COLOUR_RGB ( '',0.8980392156862745390, 0.9176470588235293713, 0.9294117647058823817 ) ;
#653 = AXIS2_PLACEMENT_3D ( 'NONE', #500, #260, #939 ) ;
#654 = CLOSED_SHELL ( 'NONE', ( #304, #712, #160, #63, #225, #256, #448, #791, #504, #680, #700, #905, #208, #194, #439, #368, #113, #863, #325, #356, #554, #412, #881, #736, #406, #900, #399, #264 ) ) ;
#655 = CYLINDRICAL_SURFACE ( 'NONE', #713, 2.499999999999995115 ) ;
#656 = AXIS2_PLACEMENT_3D ( 'NONE', #986, #184, #487 ) ;
#657 = ORIENTED_EDGE ( 'NONE', *, *, #100, .T. ) ;
#658 = VERTEX_POINT ( 'NONE', #213 ) ;
#659 = DIRECTION ( 'NONE',  ( -0.000000000000000000, 1.000000000000000000, -0.000000000000000000 ) ) ;
#660 = DIRECTION ( 'NONE',  ( 0.000000000000000000, -1.000000000000000000, 0.000000000000000000 ) ) ;
#661 = ORIENTED_EDGE ( 'NONE', *, *, #187, .T. ) ;
#662 = VERTEX_POINT ( 'NONE', #57 ) ;
#663 = DIRECTION ( 'NONE',  ( -0.000000000000000000, -1.000000000000000000, -0.000000000000000000 ) ) ;
#664 = EDGE_CURVE ( 'NONE', #408, #357, #401, .T. ) ;
#665 = SURFACE_SIDE_STYLE ('',( #138 ) ) ;
#666 = ORIENTED_EDGE ( 'NONE', *, *, #850, .T. ) ;
#667 = VERTEX_POINT ( 'NONE', #363 ) ;
#668 = DIRECTION ( 'NONE',  ( -0.000000000000000000, -1.000000000000000000, -0.000000000000000000 ) ) ;
#669 = DIRECTION ( 'NONE',  ( -0.000000000000000000, 1.000000000000000000, 0.000000000000000000 ) ) ;
#670 = PRESENTATION_LAYER_ASSIGNMENT (  '', '', ( #107 ) ) ;
#671 = ORIENTED_EDGE ( 'NONE', *, *, #300, .T. ) ;
#672 = DIRECTION ( 'NONE',  ( 0.000000000000000000, 0.000000000000000000, 1.000000000000000000 ) ) ;
#673 = COLOUR_RGB ( '',0.8980392156862745390, 0.9176470588235293713, 0.9294117647058823817 ) ;
#674 = ORIENTED_EDGE ( 'NONE', *, *, #42, .F. ) ;
#675 = CARTESIAN_POINT ( 'NONE',  ( 60.00000000000000000, 3.500000000000000000, -12.50000000000001066 ) ) ;
#676 = CARTESIAN_POINT ( 'NONE',  ( 38.00000000000000711, -3.306546357697854128E-15, -12.50000000000001066 ) ) ;
#677 = EDGE_CURVE ( 'NONE', #495, #596, #641, .T. ) ;
#678 = EDGE_LOOP ( 'NONE', ( #809, #56, #716, #727 ) ) ;
#679 = CARTESIAN_POINT ( 'NONE',  ( 50.00000000000000000, 15.00000000000000000, -2.357445088358655073E-14 ) ) ;
#680 = ADVANCED_FACE ( 'NONE', ( #972 ), #112, .F. ) ;
#681 = VERTEX_POINT ( 'NONE', #710 ) ;
#682 = FACE_OUTER_BOUND ( 'NONE', #827, .T. ) ;
#683 = ORIENTED_EDGE ( 'NONE', *, *, #6, .T. ) ;
#684 = VECTOR ( 'NONE', #924, 1000.000000000000000 ) ;
#685 = EDGE_LOOP ( 'NONE', ( #192, #811 ) ) ;
#686 = EDGE_CURVE ( 'NONE', #357, #376, #434, .T. ) ;
#687 = CARTESIAN_POINT ( 'NONE',  ( -27.00000000000000000, 7.500000000000000000, -5.499999999999998224 ) ) ;
#688 = DIRECTION ( 'NONE',  ( -1.000000000000000000, 0.000000000000000000, 1.011922027653137513E-16 ) ) ;
#689 = CARTESIAN_POINT ( 'NONE',  ( 50.00000000000000000, 3.499999999999997780, -2.357445088358655073E-14 ) ) ;
#690 = LINE ( 'NONE', #526, #892 ) ;
#691 = PLANE ( 'NONE',  #911 ) ;
#692 = DIRECTION ( 'NONE',  ( -1.000000000000000000, -2.168404344971006896E-16, 0.000000000000000000 ) ) ;
#693 = DIRECTION ( 'NONE',  ( 0.000000000000000000, 0.000000000000000000, -1.000000000000000000 ) ) ;
#694 = VECTOR ( 'NONE', #478, 1000.000000000000000 ) ;
#695 = ORIENTED_EDGE ( 'NONE', *, *, #100, .F. ) ;
#696 = AXIS2_PLACEMENT_3D ( 'NONE', #646, #515, #960 ) ;
#697 = CARTESIAN_POINT ( 'NONE',  ( -50.00000000000000000, 3.499999999999999556, 7.041719095097280485E-15 ) ) ;
#698 = LINE ( 'NONE', #488, #231 ) ;
#699 = CARTESIAN_POINT ( 'NONE',  ( -27.00000000000000000, 15.00000000000000000, 0.000000000000000000 ) ) ;
#700 = ADVANCED_FACE ( 'NONE', ( #728 ), #593, .F. ) ;
#701 = FACE_BOUND ( 'NONE', #281, .T. ) ;
#702 = DIRECTION ( 'NONE',  ( -0.000000000000000000, -1.000000000000000000, -0.000000000000000000 ) ) ;
#703 = FACE_OUTER_BOUND ( 'NONE', #39, .T. ) ;
#704 = EDGE_CURVE ( 'NONE', #202, #376, #576, .T. ) ;
#705 = FACE_OUTER_BOUND ( 'NONE', #362, .T. ) ;
#706 = DIRECTION ( 'NONE',  ( 0.000000000000000000, 1.000000000000000000, 0.000000000000000000 ) ) ;
#707 = CARTESIAN_POINT ( 'NONE',  ( 27.00000000000000000, 15.00000000000000000, 6.505213034913026604E-15 ) ) ;
#708 = ORIENTED_EDGE ( 'NONE', *, *, #990, .T. ) ;
#709 = VECTOR ( 'NONE', #479, 1000.000000000000000 ) ;
#710 = CARTESIAN_POINT ( 'NONE',  ( -57.99999999999999289, 15.00000000000000000, 12.50000000000000355 ) ) ;
#711 = VECTOR ( 'NONE', #227, 1000.000000000000000 ) ;
#712 = ADVANCED_FACE ( 'NONE', ( #798 ), #425, .F. ) ;
#713 = AXIS2_PLACEMENT_3D ( 'NONE', #383, #220, #143 ) ;
#714 = DIRECTION ( 'NONE',  ( -0.000000000000000000, -1.000000000000000000, -0.000000000000000000 ) ) ;
#715 = CARTESIAN_POINT ( 'NONE',  ( -57.99999999999999289, 15.00000000000000000, 10.50000000000000355 ) ) ;
#716 = ORIENTED_EDGE ( 'NONE', *, *, #619, .T. ) ;
#717 = FILL_AREA_STYLE_COLOUR ( '', #652 ) ;
#718 = FILL_AREA_STYLE_COLOUR ( '', #111 ) ;
#719 = EDGE_CURVE ( 'NONE', #805, #982, #274, .T. ) ;
#720 = ORIENTED_EDGE ( 'NONE', *, *, #704, .T. ) ;
#721 = DIRECTION ( 'NONE',  ( 0.000000000000000000, -0.000000000000000000, -1.000000000000000000 ) ) ;
#722 = ORIENTED_EDGE ( 'NONE', *, *, #164, .F. ) ;
#723 = PRESENTATION_STYLE_ASSIGNMENT (( #429 ) ) ;
#724 = APPLICATION_CONTEXT ( 'automotive_design' ) ;
#725 = SURFACE_STYLE_USAGE ( .BOTH. , #665 ) ;
#726 = ORIENTED_EDGE ( 'NONE', *, *, #841, .T. ) ;
#727 = ORIENTED_EDGE ( 'NONE', *, *, #548, .F. ) ;
#728 = FACE_OUTER_BOUND ( 'NONE', #633, .T. ) ;
#729 = CIRCLE ( 'NONE', #940, 9.000000000000001776 ) ;
#730 = PRODUCT_DEFINITION_FORMATION_WITH_SPECIFIED_SOURCE ( 'ANY', '', #391, .NOT_KNOWN. ) ;
#731 = AXIS2_PLACEMENT_3D ( 'NONE', #689, #460, #908 ) ;
#732 =( LENGTH_UNIT ( ) NAMED_UNIT ( * ) SI_UNIT ( .MILLI., .METRE. ) );
#733 = UNCERTAINTY_MEASURE_WITH_UNIT (LENGTH_MEASURE( 1.000000000000000082E-05 ), #531, 'distance_accuracy_value', 'NONE');
#734 = AXIS2_PLACEMENT_3D ( 'NONE', #64, #505, #190 ) ;
#735 = ORIENTED_EDGE ( 'NONE', *, *, #285, .F. ) ;
#736 = ADVANCED_FACE ( 'NONE', ( #393 ), #224, .T. ) ;
#737 = ORIENTED_EDGE ( 'NONE', *, *, #956, .T. ) ;
#738 = CARTESIAN_POINT ( 'NONE',  ( -27.00000000000000000, 15.00000000000000000, 0.000000000000000000 ) ) ;
#739 = LINE ( 'NONE', #967, #610 ) ;
#740 = ORIENTED_EDGE ( 'NONE', *, *, #584, .T. ) ;
#741 = ORIENTED_EDGE ( 'NONE', *, *, #89, .F. ) ;
#742 = EDGE_CURVE ( 'NONE', #658, #441, #396, .T. ) ;
#743 = DIRECTION ( 'NONE',  ( 0.000000000000000000, 0.000000000000000000, -1.000000000000000000 ) ) ;
#744 = DIRECTION ( 'NONE',  ( -1.000000000000000000, 0.000000000000000000, 1.156482317317871478E-16 ) ) ;
#745 = EDGE_LOOP ( 'NONE', ( #117, #444, #666, #921 ) ) ;
#746 = CARTESIAN_POINT ( 'NONE',  ( -57.99999999999999289, 15.00000000000000000, -10.49999999999999467 ) ) ;
#747 = ORIENTED_EDGE ( 'NONE', *, *, #922, .T. ) ;
#748 = CARTESIAN_POINT ( 'NONE',  ( -57.99999999999999289, 3.499999999999999556, 12.50000000000000355 ) ) ;
#749 = FACE_OUTER_BOUND ( 'NONE', #283, .T. ) ;
#750 = STYLED_ITEM ( 'NONE', ( #723 ), #712 ) ;
#751 = EDGE_CURVE ( 'NONE', #433, #81, #296, .T. ) ;
#752 = VECTOR ( 'NONE', #178, 1000.000000000000000 ) ;
#753 = AXIS2_PLACEMENT_3D ( 'NONE', #679, #307, #607 ) ;
#754 = LINE ( 'NONE', #72, #711 ) ;
#755 = SHAPE_DEFINITION_REPRESENTATION ( #201, #290 ) ;
#756 = EDGE_LOOP ( 'NONE', ( #871, #431, #570, #695 ) ) ;
#757 = CARTESIAN_POINT ( 'NONE',  ( 27.00000000000000000, 0.000000000000000000, 6.505213034913026604E-15 ) ) ;
#758 = PRODUCT_DEFINITION_CONTEXT ( 'detailed design', #724, 'design' ) ;
#759 = CARTESIAN_POINT ( 'NONE',  ( 57.99999999999999289, 15.00000000000000000, 12.49999999999999289 ) ) ;
#760 = ORIENTED_EDGE ( 'NONE', *, *, #58, .F. ) ;
#761 = CARTESIAN_POINT ( 'NONE',  ( -60.00000000000000000, 15.00000000000000000, 10.50000000000000355 ) ) ;
#762 = CARTESIAN_POINT ( 'NONE',  ( 32.50000000000000000, 7.500000000000000000, 6.505213034913026604E-15 ) ) ;
#763 = VERTEX_POINT ( 'NONE', #902 ) ;
#764 = EDGE_CURVE ( 'NONE', #935, #223, #351, .T. ) ;
#765 = SURFACE_STYLE_USAGE ( .BOTH. , #306 ) ;
#766 = ORIENTED_EDGE ( 'NONE', *, *, #17, .F. ) ;
#767 = VECTOR ( 'NONE', #668, 1000.000000000000000 ) ;
#768 = STYLED_ITEM ( 'NONE', ( #889 ), #290 ) ;
#769 =( NAMED_UNIT ( * ) SI_UNIT ( $, .STERADIAN. ) SOLID_ANGLE_UNIT ( ) );
#770 = CIRCLE ( 'NONE', #580, 9.000000000000005329 ) ;
#771 =( NAMED_UNIT ( * ) PLANE_ANGLE_UNIT ( ) SI_UNIT ( $, .RADIAN. ) );
#772 = EDGE_LOOP ( 'NONE', ( #963, #35, #671, #301, #115, #352 ) ) ;
#773 = DIRECTION ( 'NONE',  ( -0.000000000000000000, 1.000000000000000000, -0.000000000000000000 ) ) ;
#774 = PLANE ( 'NONE',  #943 ) ;
#775 = CYLINDRICAL_SURFACE ( 'NONE', #875, 5.499999999999996447 ) ;
#776 =( NAMED_UNIT ( * ) PLANE_ANGLE_UNIT ( ) SI_UNIT ( $, .RADIAN. ) );
#777 = LINE ( 'NONE', #93, #578 ) ;
#778 = EDGE_CURVE ( 'NONE', #60, #951, #690, .T. ) ;
#779 = CARTESIAN_POINT ( 'NONE',  ( 60.00000000000000000, 15.00000000000000000, -10.50000000000000888 ) ) ;
#780 =( GEOMETRIC_REPRESENTATION_CONTEXT ( 3 ) GLOBAL_UNCERTAINTY_ASSIGNED_CONTEXT ( ( #896 ) ) GLOBAL_UNIT_ASSIGNED_CONTEXT ( ( #473, #776, #769 ) ) REPRESENTATION_CONTEXT ( 'NONE', 'WORKASPACE' ) );
#781 = CIRCLE ( 'NONE', #912, 2.000000000000000000 ) ;
#782 = VERTEX_POINT ( 'NONE', #748 ) ;
#783 =( GEOMETRIC_REPRESENTATION_CONTEXT ( 3 ) GLOBAL_UNCERTAINTY_ASSIGNED_CONTEXT ( ( #139 ) ) GLOBAL_UNIT_ASSIGNED_CONTEXT ( ( #732, #443, #449 ) ) REPRESENTATION_CONTEXT ( 'NONE', 'WORKASPACE' ) );
#784 = CARTESIAN_POINT ( 'NONE',  ( -50.00000000000000000, 15.00000000000000000, -2.499999999999988454 ) ) ;
#785 = DIRECTION ( 'NONE',  ( 0.000000000000000000, -1.000000000000000000, 0.000000000000000000 ) ) ;
#786 = DIRECTION ( 'NONE',  ( 0.000000000000000000, 0.000000000000000000, -1.000000000000000000 ) ) ;
#787 = ORIENTED_EDGE ( 'NONE', *, *, #539, .T. ) ;
#788 = CARTESIAN_POINT ( 'NONE',  ( -38.00000000000000000, 3.500000000000000000, -12.50000000000001066 ) ) ;
#789 = DIRECTION ( 'NONE',  ( -0.000000000000000000, -1.000000000000000000, -0.000000000000000000 ) ) ;
#790 = CARTESIAN_POINT ( 'NONE',  ( -27.00000000000000000, 8.673617379884035472E-16, -9.000000000000005329 ) ) ;
#791 = ADVANCED_FACE ( 'NONE', ( #845 ), #18, .F. ) ;
#792 = CARTESIAN_POINT ( 'NONE',  ( 60.00000000000000000, 15.00000000000000000, 12.49999999999999289 ) ) ;
#793 = FACE_OUTER_BOUND ( 'NONE', #75, .T. ) ;
#794 = MANIFOLD_SOLID_BREP ( 'Schnitt-Linear austragen1', #654 ) ;
#795 = CARTESIAN_POINT ( 'NONE',  ( -27.00000000000000000, 8.673617379884035472E-16, 0.000000000000000000 ) ) ;
#796 = ORIENTED_EDGE ( 'NONE', *, *, #742, .T. ) ;
#797 = AXIS2_PLACEMENT_3D ( 'NONE', #795, #338, #26 ) ;
#798 = FACE_OUTER_BOUND ( 'NONE', #23, .T. ) ;
#799 = CIRCLE ( 'NONE', #550, 2.000000000000000000 ) ;
#800 = LINE ( 'NONE', #895, #897 ) ;
#801 = ORIENTED_EDGE ( 'NONE', *, *, #387, .T. ) ;
#802 = PLANE ( 'NONE',  #498 ) ;
#803 = ORIENTED_EDGE ( 'NONE', *, *, #104, .F. ) ;
#804 = SURFACE_STYLE_FILL_AREA ( #503 ) ;
#805 = VERTEX_POINT ( 'NONE', #159 ) ;
#806 = CARTESIAN_POINT ( 'NONE',  ( 27.00000000000000000, 7.500000000000000000, 9.000000000000010658 ) ) ;
#807 = EDGE_LOOP ( 'NONE', ( #964, #583, #954, #172 ) ) ;
#808 = DIRECTION ( 'NONE',  ( 0.000000000000000000, 0.000000000000000000, -1.000000000000000000 ) ) ;
#809 = ORIENTED_EDGE ( 'NONE', *, *, #10, .T. ) ;
#810 = EDGE_CURVE ( 'NONE', #985, #502, #167, .T. ) ;
#811 = ORIENTED_EDGE ( 'NONE', *, *, #664, .F. ) ;
#812 = CARTESIAN_POINT ( 'NONE',  ( -60.00000000000000000, 15.00000000000000000, 10.50000000000000355 ) ) ;
#813 = VECTOR ( 'NONE', #575, 1000.000000000000000 ) ;
#814 = DIRECTION ( 'NONE',  ( 1.000000000000000000, 0.000000000000000000, 0.000000000000000000 ) ) ;
#815 = MECHANICAL_DESIGN_GEOMETRIC_PRESENTATION_REPRESENTATION (  '', ( #297 ), #783 ) ;
#816 = ORIENTED_EDGE ( 'NONE', *, *, #974, .T. ) ;
#817 = EDGE_CURVE ( 'NONE', #805, #110, #476, .T. ) ;
#818 = ORIENTED_EDGE ( 'NONE', *, *, #10, .F. ) ;
#819 = SURFACE_STYLE_FILL_AREA ( #923 ) ;
#820 = ORIENTED_EDGE ( 'NONE', *, *, #686, .F. ) ;
#821 = ORIENTED_EDGE ( 'NONE', *, *, #565, .F. ) ;
#822 = DIRECTION ( 'NONE',  ( -0.000000000000000000, -1.000000000000000000, -0.000000000000000000 ) ) ;
#823 = EDGE_CURVE ( 'NONE', #951, #286, #147, .T. ) ;
#824 =( NAMED_UNIT ( * ) SI_UNIT ( $, .STERADIAN. ) SOLID_ANGLE_UNIT ( ) );
#825 = DIRECTION ( 'NONE',  ( 0.000000000000000000, -1.000000000000000000, -0.000000000000000000 ) ) ;
#826 =( NAMED_UNIT ( * ) PLANE_ANGLE_UNIT ( ) SI_UNIT ( $, .RADIAN. ) );
#827 = EDGE_LOOP ( 'NONE', ( #741, #890, #942, #740 ) ) ;
#828 = EDGE_CURVE ( 'NONE', #495, #541, #941, .T. ) ;
#829 = FACE_OUTER_BOUND ( 'NONE', #41, .T. ) ;
#830 = AXIS2_PLACEMENT_3D ( 'NONE', #205, #442, #585 ) ;
#831 = AXIS2_PLACEMENT_3D ( 'NONE', #699, #934, #857 ) ;
#832 = VECTOR ( 'NONE', #988, 1000.000000000000000 ) ;
#833 = CARTESIAN_POINT ( 'NONE',  ( -60.00000000000000000, 15.00000000000000000, -10.49999999999999467 ) ) ;
#834 = STYLED_ITEM ( 'NONE', ( #200 ), #325 ) ;
#835 = EDGE_LOOP ( 'NONE', ( #457, #888, #158, #586 ) ) ;
#836 = UNCERTAINTY_MEASURE_WITH_UNIT (LENGTH_MEASURE( 1.000000000000000082E-05 ), #299, 'distance_accuracy_value', 'NONE');
#837 = FACE_BOUND ( 'NONE', #514, .T. ) ;
#838 = EDGE_LOOP ( 'NONE', ( #308, #254 ) ) ;
#839 = CARTESIAN_POINT ( 'NONE',  ( 60.00000000000000000, 15.00000000000000000, -10.50000000000000888 ) ) ;
#840 = CARTESIAN_POINT ( 'NONE',  ( 50.00000000000000000, 15.00000000000000000, -2.500000000000018652 ) ) ;
#841 = EDGE_CURVE ( 'NONE', #446, #512, #569, .T. ) ;
#842 = LINE ( 'NONE', #1, #324 ) ;
#843 = DIRECTION ( 'NONE',  ( -0.000000000000000000, 1.000000000000000000, -0.000000000000000000 ) ) ;
#844 = VECTOR ( 'NONE', #572, 1000.000000000000000 ) ;
#845 = FACE_OUTER_BOUND ( 'NONE', #678, .T. ) ;
#846 = VECTOR ( 'NONE', #843, 1000.000000000000000 ) ;
#847 = AXIS2_PLACEMENT_3D ( 'NONE', #589, #814, #523 ) ;
#848 = CARTESIAN_POINT ( 'NONE',  ( 57.99999999999999289, 15.00000000000000000, -12.50000000000000888 ) ) ;
#849 = CARTESIAN_POINT ( 'NONE',  ( 57.99999999999999289, 3.499999999999999556, -10.50000000000000888 ) ) ;
#850 = EDGE_CURVE ( 'NONE', #222, #662, #343, .T. ) ;
#851 = DIRECTION ( 'NONE',  ( 0.000000000000000000, -1.000000000000000000, 0.000000000000000000 ) ) ;
#852 = CARTESIAN_POINT ( 'NONE',  ( 57.99999999999999289, 15.00000000000000000, 10.49999999999999112 ) ) ;
#853 = DIRECTION ( 'NONE',  ( 0.000000000000000000, -1.000000000000000000, 0.000000000000000000 ) ) ;
#854 = VERTEX_POINT ( 'NONE', #422 ) ;
#855 = LINE ( 'NONE', #559, #95 ) ;
#856 = DIRECTION ( 'NONE',  ( -0.000000000000000000, -1.000000000000000000, -0.000000000000000000 ) ) ;
#857 = DIRECTION ( 'NONE',  ( 0.000000000000000000, 0.000000000000000000, -1.000000000000000000 ) ) ;
#858 = CIRCLE ( 'NONE', #696, 5.500000000000001776 ) ;
#859 = CIRCLE ( 'NONE', #731, 2.499999999999995115 ) ;
#860 = VERTEX_POINT ( 'NONE', #649 ) ;
#861 = LINE ( 'NONE', #784, #129 ) ;
#862 = DIRECTION ( 'NONE',  ( 0.000000000000000000, 0.000000000000000000, -1.000000000000000000 ) ) ;
#863 = ADVANCED_FACE ( 'NONE', ( #566 ), #186, .F. ) ;
#864 = FACE_BOUND ( 'NONE', #330, .T. ) ;
#865 = DIRECTION ( 'NONE',  ( 0.000000000000000000, 0.000000000000000000, -1.000000000000000000 ) ) ;
#866 = CARTESIAN_POINT ( 'NONE',  ( -50.00000000000000000, 15.00000000000000000, -2.499999999999988454 ) ) ;
#867 = DIRECTION ( 'NONE',  ( 0.000000000000000000, 0.000000000000000000, -1.000000000000000000 ) ) ;
#868 = EDGE_CURVE ( 'NONE', #349, #512, #371, .T. ) ;
#869 = DIRECTION ( 'NONE',  ( -0.000000000000000000, 1.000000000000000000, -0.000000000000000000 ) ) ;
#870 = DIRECTION ( 'NONE',  ( 0.000000000000000000, 0.000000000000000000, -1.000000000000000000 ) ) ;
#871 = ORIENTED_EDGE ( 'NONE', *, *, #616, .F. ) ;
#872 =( GEOMETRIC_REPRESENTATION_CONTEXT ( 3 ) GLOBAL_UNCERTAINTY_ASSIGNED_CONTEXT ( ( #836 ) ) GLOBAL_UNIT_ASSIGNED_CONTEXT ( ( #299, #529, #282 ) ) REPRESENTATION_CONTEXT ( 'NONE', 'WORKASPACE' ) );
#873 = AXIS2_PLACEMENT_3D ( 'NONE', #762, #706, #475 ) ;
#874 = DIRECTION ( 'NONE',  ( 0.000000000000000000, 0.000000000000000000, 1.000000000000000000 ) ) ;
#875 = AXIS2_PLACEMENT_3D ( 'NONE', #930, #185, #248 ) ;
#876 = FACE_OUTER_BOUND ( 'NONE', #745, .T. ) ;
#877 = ORIENTED_EDGE ( 'NONE', *, *, #300, .F. ) ;
#878 = DIRECTION ( 'NONE',  ( -1.000000000000000000, -1.182766006347823602E-16, 0.000000000000000000 ) ) ;
#879 = VERTEX_POINT ( 'NONE', #253 ) ;
#880 = CARTESIAN_POINT ( 'NONE',  ( 60.00000000000000000, 15.00000000000000000, -12.50000000000000888 ) ) ;
#881 = ADVANCED_FACE ( 'NONE', ( #703 ), #946, .T. ) ;
#882 =( NAMED_UNIT ( * ) PLANE_ANGLE_UNIT ( ) SI_UNIT ( $, .RADIAN. ) );
#883 = ORIENTED_EDGE ( 'NONE', *, *, #584, .F. ) ;
#884 = ORIENTED_EDGE ( 'NONE', *, *, #149, .F. ) ;
#885 = DIRECTION ( 'NONE',  ( -1.000000000000000000, -2.168404344971006896E-16, 0.000000000000000000 ) ) ;
#886 = DIRECTION ( 'NONE',  ( 0.000000000000000000, 0.000000000000000000, -1.000000000000000000 ) ) ;
#887 = EDGE_CURVE ( 'NONE', #133, #446, #108, .T. ) ;
#888 = ORIENTED_EDGE ( 'NONE', *, *, #643, .F. ) ;
#889 = PRESENTATION_STYLE_ASSIGNMENT (( #73 ) ) ;
#890 = ORIENTED_EDGE ( 'NONE', *, *, #828, .F. ) ;
#891 = DIRECTION ( 'NONE',  ( 1.000000000000000000, 0.000000000000000000, -1.156482317317871478E-16 ) ) ;
#892 = VECTOR ( 'NONE', #452, 1000.000000000000000 ) ;
#893 = AXIS2_PLACEMENT_3D ( 'NONE', #217, #672, #203 ) ;
#894 = AXIS2_PLACEMENT_3D ( 'NONE', #914, #612, #603 ) ;
#895 = CARTESIAN_POINT ( 'NONE',  ( 60.00000000000000000, 0.000000000000000000, -12.50000000000000888 ) ) ;
#896 = UNCERTAINTY_MEASURE_WITH_UNIT (LENGTH_MEASURE( 1.000000000000000082E-05 ), #473, 'distance_accuracy_value', 'NONE');
#897 = VECTOR ( 'NONE', #744, 1000.000000000000000 ) ;
#898 = EDGE_LOOP ( 'NONE', ( #294, #597, #314, #450 ) ) ;
#899 = SURFACE_STYLE_FILL_AREA ( #145 ) ;
#900 = ADVANCED_FACE ( 'NONE', ( #561 ), #632, .F. ) ;
#901 = ORIENTED_EDGE ( 'NONE', *, *, #918, .F. ) ;
#902 = CARTESIAN_POINT ( 'NONE',  ( -60.00000000000000000, 3.499999999999999556, 10.50000000000000355 ) ) ;
#903 = PLANE ( 'NONE',  #961 ) ;
#904 = ORIENTED_EDGE ( 'NONE', *, *, #828, .T. ) ;
#905 = ADVANCED_FACE ( 'NONE', ( #415, #864, #494 ), #802, .T. ) ;
#906 = ORIENTED_EDGE ( 'NONE', *, *, #128, .F. ) ;
#907 = DIRECTION ( 'NONE',  ( -1.182766006347823602E-16, 1.000000000000000000, 0.000000000000000000 ) ) ;
#908 = DIRECTION ( 'NONE',  ( -1.000000000000000000, -1.734723475976810546E-16, 0.000000000000000000 ) ) ;
#909 = ORIENTED_EDGE ( 'NONE', *, *, #664, .T. ) ;
#910 = DIRECTION ( 'NONE',  ( -0.000000000000000000, -1.000000000000000000, -0.000000000000000000 ) ) ;
#911 = AXIS2_PLACEMENT_3D ( 'NONE', #792, #394, #688 ) ;
#912 = AXIS2_PLACEMENT_3D ( 'NONE', #746, #507, #970 ) ;
#913 = CIRCLE ( 'NONE', #403, 9.000000000000005329 ) ;
#914 = CARTESIAN_POINT ( 'NONE',  ( 27.00000000000000000, 8.673617379884035472E-16, 6.505213034913026604E-15 ) ) ;
#915 = AXIS2_PLACEMENT_3D ( 'NONE', #675, #907, #226 ) ;
#916 = VERTEX_POINT ( 'NONE', #183 ) ;
#917 = CYLINDRICAL_SURFACE ( 'NONE', #440, 2.499999999999995115 ) ;
#918 = EDGE_CURVE ( 'NONE', #313, #123, #171, .T. ) ;
#919 = CYLINDRICAL_SURFACE ( 'NONE', #438, 5.499999999999998224 ) ;
#920 = ORIENTED_EDGE ( 'NONE', *, *, #511, .T. ) ;
#921 = ORIENTED_EDGE ( 'NONE', *, *, #104, .T. ) ;
#922 = EDGE_CURVE ( 'NONE', #681, #782, #955, .T. ) ;
#923 = FILL_AREA_STYLE ('',( #553 ) ) ;
#924 = DIRECTION ( 'NONE',  ( -0.000000000000000000, -0.000000000000000000, -1.000000000000000000 ) ) ;
#925 = AXIS2_PLACEMENT_3D ( 'NONE', #240, #773, #546 ) ;
#926 = DIRECTION ( 'NONE',  ( -0.000000000000000000, 1.000000000000000000, 0.000000000000000000 ) ) ;
#927 =( NAMED_UNIT ( * ) PLANE_ANGLE_UNIT ( ) SI_UNIT ( $, .RADIAN. ) );
#928 = EDGE_CURVE ( 'NONE', #433, #879, #212, .T. ) ;
#929 = CARTESIAN_POINT ( 'NONE',  ( 57.99999999999999289, 15.00000000000000000, -10.50000000000000888 ) ) ;
#930 = CARTESIAN_POINT ( 'NONE',  ( -27.00000000000000000, 0.000000000000000000, 0.000000000000000000 ) ) ;
#931 = CARTESIAN_POINT ( 'NONE',  ( 60.00000000000000000, 0.000000000000000000, 12.49999999999999289 ) ) ;
#932 = CARTESIAN_POINT ( 'NONE',  ( -27.00000000000000000, 7.500000000000000000, 0.000000000000000000 ) ) ;
#933 = CYLINDRICAL_SURFACE ( 'NONE', #52, 5.499999999999996447 ) ;
#934 = DIRECTION ( 'NONE',  ( 0.000000000000000000, -1.000000000000000000, 0.000000000000000000 ) ) ;
#935 = VERTEX_POINT ( 'NONE', #779 ) ;
#936 = DIRECTION ( 'NONE',  ( 0.000000000000000000, 0.000000000000000000, -1.000000000000000000 ) ) ;
#937 = EDGE_CURVE ( 'NONE', #133, #985, #407, .T. ) ;
#938 = DIRECTION ( 'NONE',  ( -0.000000000000000000, 1.000000000000000000, -0.000000000000000000 ) ) ;
#939 = DIRECTION ( 'NONE',  ( -0.000000000000000000, 0.000000000000000000, 1.000000000000000000 ) ) ;
#940 = AXIS2_PLACEMENT_3D ( 'NONE', #509, #199, #808 ) ;
#941 = CIRCLE ( 'NONE', #293, 5.499999999999998224 ) ;
#942 = ORIENTED_EDGE ( 'NONE', *, *, #677, .T. ) ;
#943 = AXIS2_PLACEMENT_3D ( 'NONE', #617, #944, #101 ) ;
#944 = DIRECTION ( 'NONE',  ( 0.000000000000000000, -1.000000000000000000, 0.000000000000000000 ) ) ;
#945 = DIRECTION ( 'NONE',  ( 0.000000000000000000, -1.000000000000000000, 0.000000000000000000 ) ) ;
#946 = CYLINDRICAL_SURFACE ( 'NONE', #519, 2.000000000000000000 ) ;
#947 = EDGE_LOOP ( 'NONE', ( #906, #648, #249, #366 ) ) ;
#948 = DIRECTION ( 'NONE',  ( 1.156482317317871478E-16, -0.000000000000000000, 1.000000000000000000 ) ) ;
#949 = FACE_OUTER_BOUND ( 'NONE', #218, .T. ) ;
#950 = CARTESIAN_POINT ( 'NONE',  ( -57.99999999999999289, 3.499999999999999556, -10.49999999999999467 ) ) ;
#951 = VERTEX_POINT ( 'NONE', #790 ) ;
#952 = CARTESIAN_POINT ( 'NONE',  ( 60.00000000000000000, 15.00000000000000000, -12.50000000000000888 ) ) ;
#953 = CARTESIAN_POINT ( 'NONE',  ( 27.00000000000000000, 8.673617379884035472E-16, 6.505213034913026604E-15 ) ) ;
#954 = ORIENTED_EDGE ( 'NONE', *, *, #315, .T. ) ;
#955 = LINE ( 'NONE', #558, #230 ) ;
#956 = EDGE_CURVE ( 'NONE', #587, #60, #33, .T. ) ;
#957 = ORIENTED_EDGE ( 'NONE', *, *, #236, .F. ) ;
#958 =( GEOMETRIC_REPRESENTATION_CONTEXT ( 3 ) GLOBAL_UNCERTAINTY_ASSIGNED_CONTEXT ( ( #733 ) ) GLOBAL_UNIT_ASSIGNED_CONTEXT ( ( #531, #927, #317 ) ) REPRESENTATION_CONTEXT ( 'NONE', 'WORKASPACE' ) );
#959 = VECTOR ( 'NONE', #702, 1000.000000000000000 ) ;
#960 = DIRECTION ( 'NONE',  ( 0.000000000000000000, 0.000000000000000000, -1.000000000000000000 ) ) ;
#961 = AXIS2_PLACEMENT_3D ( 'NONE', #85, #669, #453 ) ;
#962 = SURFACE_SIDE_STYLE ('',( #53 ) ) ;
#963 = ORIENTED_EDGE ( 'NONE', *, *, #868, .T. ) ;
#964 = ORIENTED_EDGE ( 'NONE', *, *, #928, .F. ) ;
#965 = EDGE_CURVE ( 'NONE', #601, #392, #99, .T. ) ;
#966 = DIRECTION ( 'NONE',  ( 0.000000000000000000, -1.000000000000000000, 0.000000000000000000 ) ) ;
#967 = CARTESIAN_POINT ( 'NONE',  ( -60.00000000000000000, 3.500000000000000000, -12.50000000000001066 ) ) ;
#968 = UNCERTAINTY_MEASURE_WITH_UNIT (LENGTH_MEASURE( 1.000000000000000082E-05 ), #66, 'distance_accuracy_value', 'NONE');
#969 = EDGE_LOOP ( 'NONE', ( #211, #909, #981, #661 ) ) ;
#970 = DIRECTION ( 'NONE',  ( 0.000000000000000000, 0.000000000000000000, -1.000000000000000000 ) ) ;
#971 = EDGE_LOOP ( 'NONE', ( #334, #79 ) ) ;
#972 = FACE_OUTER_BOUND ( 'NONE', #67, .T. ) ;
#973 = PRESENTATION_STYLE_ASSIGNMENT (( #725 ) ) ;
#974 = EDGE_CURVE ( 'NONE', #916, #667, #781, .T. ) ;
#975 = ORIENTED_EDGE ( 'NONE', *, *, #120, .T. ) ;
#976 = VERTEX_POINT ( 'NONE', #127 ) ;
#977 = AXIS2_PLACEMENT_3D ( 'NONE', #929, #851, #91 ) ;
#978 = DIRECTION ( 'NONE',  ( 0.000000000000000000, 0.000000000000000000, -1.000000000000000000 ) ) ;
#979 = FACE_OUTER_BOUND ( 'NONE', #969, .T. ) ;
#980 = CIRCLE ( 'NONE', #734, 5.499999999999998224 ) ;
#981 = ORIENTED_EDGE ( 'NONE', *, *, #686, .T. ) ;
#982 = VERTEX_POINT ( 'NONE', #806 ) ;
#983 = CARTESIAN_POINT ( 'NONE',  ( 38.00000000000000711, 3.499999999999997335, 12.49999999999999645 ) ) ;
#984 = CARTESIAN_POINT ( 'NONE',  ( -57.99999999999999289, 15.00000000000000000, 10.50000000000000355 ) ) ;
#985 = VERTEX_POINT ( 'NONE', #378 ) ;
#986 = CARTESIAN_POINT ( 'NONE',  ( -57.99999999999999289, 15.00000000000000000, -10.49999999999999467 ) ) ;
#987 = UNCERTAINTY_MEASURE_WITH_UNIT (LENGTH_MEASURE( 1.000000000000000082E-05 ), #196, 'distance_accuracy_value', 'NONE');
#988 = DIRECTION ( 'NONE',  ( -0.000000000000000000, -0.000000000000000000, 1.000000000000000000 ) ) ;
#989 = EDGE_LOOP ( 'NONE', ( #650, #86 ) ) ;
#990 = EDGE_CURVE ( 'NONE', #879, #65, #445, .T. ) ;
ENDSEC;
END-ISO-10303-21;
