ISO-10303-21;
HEADER;
FILE_DESCRIPTION (( 'STEP AP214' ),
    '1' );
FILE_NAME ('202500614-10212P01.STEP',
    '2026-02-11T08:02:54',
    ( '' ),
    ( '' ),
    'SwSTEP 2.0',
    'SolidWorks 2021',
    '' );
FILE_SCHEMA (( 'AUTOMOTIVE_DESIGN' ));
ENDSEC;

DATA;
#1 = AXIS2_PLACEMENT_3D ( 'NONE', #464, #296, #830 ) ;
#2 = VECTOR ( 'NONE', #168, 1000.000000000000000 ) ;
#3 = DIRECTION ( 'NONE',  ( 1.000000000000000000, -0.000000000000000000, 0.000000000000000000 ) ) ;
#4 = ORIENTED_EDGE ( 'NONE', *, *, #1006, .F. ) ;
#5 = CARTESIAN_POINT ( 'NONE',  ( -100.0000000000003837, 76.99999999999998579, 0.001000000000292433633 ) ) ;
#6 = ORIENTED_EDGE ( 'NONE', *, *, #868, .T. ) ;
#7 = LINE ( 'NONE', #991, #309 ) ;
#8 = DIRECTION ( 'NONE',  ( 0.000000000000000000, 0.000000000000000000, -1.000000000000000000 ) ) ;
#9 = ADVANCED_FACE ( 'NONE', ( #671 ), #472, .F. ) ;
#10 = ORIENTED_EDGE ( 'NONE', *, *, #556, .T. ) ;
#11 = DIRECTION ( 'NONE',  ( 1.000000000000000000, -0.000000000000000000, -0.000000000000000000 ) ) ;
#12 = ORIENTED_EDGE ( 'NONE', *, *, #1026, .T. ) ;
#13 = CARTESIAN_POINT ( 'NONE',  ( -6.999999999999992006, -80.00000000000001421, -111.0000000000000000 ) ) ;
#14 = LINE ( 'NONE', #1101, #669 ) ;
#15 = ADVANCED_FACE ( 'NONE', ( #485 ), #1025, .T. ) ;
#16 = ORIENTED_EDGE ( 'NONE', *, *, #1040, .T. ) ;
#17 = DIRECTION ( 'NONE',  ( -1.000000000000000000, -9.050731179009427836E-17, -3.499616055883645479E-15 ) ) ;
#18 = DIRECTION ( 'NONE',  ( 0.000000000000000000, -1.000000000000000000, 0.000000000000000000 ) ) ;
#19 = VECTOR ( 'NONE', #445, 1000.000000000000000 ) ;
#20 = CARTESIAN_POINT ( 'NONE',  ( -96.99999999999995737, 79.99999999999998579, -118.0000000000003268 ) ) ;
#21 = CIRCLE ( 'NONE', #1, 3.499999999999989342 ) ;
#22 = VECTOR ( 'NONE', #700, 1000.000000000000000 ) ;
#23 = DIRECTION ( 'NONE',  ( 1.000000000000000000, 0.000000000000000000, 3.469446951953615372E-15 ) ) ;
#24 = DIRECTION ( 'NONE',  ( 1.000000000000000000, 0.000000000000000000, 0.000000000000000000 ) ) ;
#25 = AXIS2_PLACEMENT_3D ( 'NONE', #639, #994, #730 ) ;
#26 = ORIENTED_EDGE ( 'NONE', *, *, #1026, .F. ) ;
#27 = CARTESIAN_POINT ( 'NONE',  ( -6.999999999999968026, 80.00000000000001421, -118.0000000000000142 ) ) ;
#28 = CYLINDRICAL_SURFACE ( 'NONE', #112, 19.00000000000000355 ) ;
#29 = ORIENTED_EDGE ( 'NONE', *, *, #575, .T. ) ;
#30 =( LENGTH_UNIT ( ) NAMED_UNIT ( * ) SI_UNIT ( .MILLI., .METRE. ) );
#31 = ORIENTED_EDGE ( 'NONE', *, *, #507, .T. ) ;
#32 = CARTESIAN_POINT ( 'NONE',  ( -100.0000000000003837, -80.00000000000001421, 0.001000000000292433633 ) ) ;
#33 = EDGE_CURVE ( 'NONE', #1087, #821, #583, .T. ) ;
#34 = ORIENTED_EDGE ( 'NONE', *, *, #1111, .F. ) ;
#35 = ORIENTED_EDGE ( 'NONE', *, *, #918, .F. ) ;
#36 = CARTESIAN_POINT ( 'NONE',  ( 0.000000000000000000, 74.00000000000002842, -28.50000000000000355 ) ) ;
#37 = ORIENTED_EDGE ( 'NONE', *, *, #670, .T. ) ;
#38 = FILL_AREA_STYLE_COLOUR ( '', #799 ) ;
#39 = VECTOR ( 'NONE', #696, 1000.000000000000000 ) ;
#40 = VERTEX_POINT ( 'NONE', #239 ) ;
#41 = VECTOR ( 'NONE', #456, 1000.000000000000000 ) ;
#42 = FACE_OUTER_BOUND ( 'NONE', #482, .T. ) ;
#43 = AXIS2_PLACEMENT_3D ( 'NONE', #804, #11, #373 ) ;
#44 = FACE_OUTER_BOUND ( 'NONE', #341, .T. ) ;
#45 = EDGE_CURVE ( 'NONE', #751, #578, #410, .T. ) ;
#46 = VERTEX_POINT ( 'NONE', #228 ) ;
#47 = CARTESIAN_POINT ( 'NONE',  ( -3.000000000000000000, 80.00000000000000000, -118.0000000000000000 ) ) ;
#48 = CARTESIAN_POINT ( 'NONE',  ( -100.0000000000003837, -76.99999999999998579, 0.001000000000292433633 ) ) ;
#49 = DIRECTION ( 'NONE',  ( 0.000000000000000000, 1.176083712526648949E-16, 1.000000000000000000 ) ) ;
#50 = EDGE_CURVE ( 'NONE', #689, #1102, #502, .T. ) ;
#51 = VERTEX_POINT ( 'NONE', #942 ) ;
#52 = DIRECTION ( 'NONE',  ( 0.000000000000000000, 0.000000000000000000, -1.000000000000000000 ) ) ;
#53 = DIRECTION ( 'NONE',  ( -0.000000000000000000, 1.000000000000000000, -0.000000000000000000 ) ) ;
#54 = DIRECTION ( 'NONE',  ( 3.469446951953615372E-15, 3.416631795843794575E-33, -1.000000000000000000 ) ) ;
#55 = EDGE_LOOP ( 'NONE', ( #567, #893, #418, #915 ) ) ;
#56 = SURFACE_SIDE_STYLE ('',( #867 ) ) ;
#57 = CIRCLE ( 'NONE', #1037, 3.500000000000003109 ) ;
#58 = AXIS2_PLACEMENT_3D ( 'NONE', #1061, #1145, #611 ) ;
#59 = DIRECTION ( 'NONE',  ( 1.000000000000000000, -0.000000000000000000, -0.000000000000000000 ) ) ;
#60 = EDGE_CURVE ( 'NONE', #353, #644, #1128, .T. ) ;
#61 = DIRECTION ( 'NONE',  ( 1.000000000000000000, 0.000000000000000000, 0.000000000000000000 ) ) ;
#62 = ORIENTED_EDGE ( 'NONE', *, *, #1106, .T. ) ;
#63 = DIRECTION ( 'NONE',  ( -1.000000000000000000, 0.000000000000000000, -3.491469808582222842E-15 ) ) ;
#64 = LINE ( 'NONE', #251, #132 ) ;
#65 = ADVANCED_FACE ( 'NONE', ( #692 ), #966, .T. ) ;
#66 = FACE_OUTER_BOUND ( 'NONE', #481, .T. ) ;
#67 = ORIENTED_EDGE ( 'NONE', *, *, #556, .F. ) ;
#68 = LINE ( 'NONE', #886, #76 ) ;
#69 = CARTESIAN_POINT ( 'NONE',  ( -2.999999999999989786, 80.00000000000000000, -118.0000000000000000 ) ) ;
#70 = CARTESIAN_POINT ( 'NONE',  ( -3.000000000000000000, -73.99999999999998579, -93.50000000000002842 ) ) ;
#71 = ORIENTED_EDGE ( 'NONE', *, *, #987, .F. ) ;
#72 = FACE_OUTER_BOUND ( 'NONE', #508, .T. ) ;
#73 = CIRCLE ( 'NONE', #1093, 3.499999999999989342 ) ;
#74 = DIRECTION ( 'NONE',  ( 1.000000000000000000, 1.508455196501571429E-16, 3.499616055883645479E-15 ) ) ;
#75 = AXIS2_PLACEMENT_3D ( 'NONE', #111, #53, #912 ) ;
#76 = VECTOR ( 'NONE', #968, 1000.000000000000000 ) ;
#77 = AXIS2_PLACEMENT_3D ( 'NONE', #659, #107, #385 ) ;
#78 = CARTESIAN_POINT ( 'NONE',  ( -6.999999999999992006, -80.00000000000000000, -118.0000000000000142 ) ) ;
#79 = ADVANCED_FACE ( 'NONE', ( #1033 ), #958, .F. ) ;
#80 = EDGE_LOOP ( 'NONE', ( #35, #938, #253, #258 ) ) ;
#81 = VERTEX_POINT ( 'NONE', #131 ) ;
#82 = DIRECTION ( 'NONE',  ( 1.000000000000000000, -0.000000000000000000, -0.000000000000000000 ) ) ;
#83 = DIRECTION ( 'NONE',  ( 1.000000000000000000, 0.000000000000000000, -0.000000000000000000 ) ) ;
#84 = ORIENTED_EDGE ( 'NONE', *, *, #1165, .T. ) ;
#85 = CARTESIAN_POINT ( 'NONE',  ( -2.999999999999988898, -80.00000000000001421, -111.0000000000000000 ) ) ;
#86 = EDGE_CURVE ( 'NONE', #792, #89, #416, .T. ) ;
#87 = CARTESIAN_POINT ( 'NONE',  ( -96.99999999999997158, 79.99999999999998579, -115.0000000000003268 ) ) ;
#88 = DIRECTION ( 'NONE',  ( 1.000000000000000000, -0.000000000000000000, -0.000000000000000000 ) ) ;
#89 = VERTEX_POINT ( 'NONE', #679 ) ;
#90 =( LENGTH_UNIT ( ) NAMED_UNIT ( * ) SI_UNIT ( .MILLI., .METRE. ) );
#91 = CARTESIAN_POINT ( 'NONE',  ( -3.000000000000000000, -79.99999999999998579, 0.000000000000000000 ) ) ;
#92 = EDGE_CURVE ( 'NONE', #573, #215, #1092, .T. ) ;
#93 = VECTOR ( 'NONE', #642, 1000.000000000000000 ) ;
#94 = AXIS2_PLACEMENT_3D ( 'NONE', #232, #752, #135 ) ;
#95 = CYLINDRICAL_SURFACE ( 'NONE', #1073, 3.499999999999996003 ) ;
#96 = PRESENTATION_LAYER_ASSIGNMENT (  '', '', ( #479 ) ) ;
#97 = EDGE_LOOP ( 'NONE', ( #348, #177 ) ) ;
#98 = CYLINDRICAL_SURFACE ( 'NONE', #382, 7.000000000000006217 ) ;
#99 = EDGE_CURVE ( 'NONE', #976, #1078, #415, .T. ) ;
#100 = PLANE ( 'NONE',  #587 ) ;
#101 = VERTEX_POINT ( 'NONE', #770 ) ;
#102 =( NAMED_UNIT ( * ) PLANE_ANGLE_UNIT ( ) SI_UNIT ( $, .RADIAN. ) );
#103 = ORIENTED_EDGE ( 'NONE', *, *, #137, .T. ) ;
#104 = LINE ( 'NONE', #996, #192 ) ;
#105 = DIRECTION ( 'NONE',  ( 0.000000000000000000, 0.000000000000000000, -1.000000000000000000 ) ) ;
#106 = ORIENTED_EDGE ( 'NONE', *, *, #766, .F. ) ;
#107 = DIRECTION ( 'NONE',  ( 3.488829337160059774E-15, -0.000000000000000000, -1.000000000000000000 ) ) ;
#108 = ORIENTED_EDGE ( 'NONE', *, *, #797, .T. ) ;
#109 = DIRECTION ( 'NONE',  ( 0.000000000000000000, 0.000000000000000000, -1.000000000000000000 ) ) ;
#110 = AXIS2_PLACEMENT_3D ( 'NONE', #796, #1156, #624 ) ;
#111 = CARTESIAN_POINT ( 'NONE',  ( -6.999999999999992006, 80.00000000000001421, -111.0000000000000000 ) ) ;
#112 = AXIS2_PLACEMENT_3D ( 'NONE', #142, #1007, #774 ) ;
#113 = STYLED_ITEM ( 'NONE', ( #783 ), #997 ) ;
#114 = EDGE_LOOP ( 'NONE', ( #230, #978, #655, #442 ) ) ;
#115 = DIRECTION ( 'NONE',  ( 0.000000000000000000, 0.000000000000000000, -1.000000000000000000 ) ) ;
#116 = AXIS2_PLACEMENT_3D ( 'NONE', #1088, #197, #894 ) ;
#117 = ADVANCED_FACE ( 'NONE', ( #44 ), #244, .F. ) ;
#118 = VERTEX_POINT ( 'NONE', #518 ) ;
#119 = LINE ( 'NONE', #306, #533 ) ;
#120 = DIRECTION ( 'NONE',  ( 3.469446951953615372E-15, 0.000000000000000000, -1.000000000000000000 ) ) ;
#121 = APPLICATION_PROTOCOL_DEFINITION ( 'draft international standard', 'automotive_design', 1998, #941 ) ;
#122 = VERTEX_POINT ( 'NONE', #948 ) ;
#123 = DIRECTION ( 'NONE',  ( 0.000000000000000000, 1.176083712526648949E-16, 1.000000000000000000 ) ) ;
#124 = EDGE_CURVE ( 'NONE', #215, #626, #422, .T. ) ;
#125 = VERTEX_POINT ( 'NONE', #688 ) ;
#126 = FACE_OUTER_BOUND ( 'NONE', #407, .T. ) ;
#127 = DIRECTION ( 'NONE',  ( 1.000000000000000000, -0.000000000000000000, -0.000000000000000000 ) ) ;
#128 = ADVANCED_FACE ( 'NONE', ( #66 ), #790, .F. ) ;
#129 = EDGE_CURVE ( 'NONE', #743, #514, #739, .T. ) ;
#130 = AXIS2_PLACEMENT_3D ( 'NONE', #235, #857, #144 ) ;
#131 = CARTESIAN_POINT ( 'NONE',  ( -3.000000000000000000, 80.00000000000001421, -3.000000000000002665 ) ) ;
#132 = VECTOR ( 'NONE', #1146, 1000.000000000000000 ) ;
#133 = EDGE_LOOP ( 'NONE', ( #593, #782 ) ) ;
#134 = PRESENTATION_LAYER_ASSIGNMENT (  '', '', ( #113 ) ) ;
#135 = DIRECTION ( 'NONE',  ( 0.000000000000000000, 0.000000000000000000, -1.000000000000000000 ) ) ;
#136 = DIRECTION ( 'NONE',  ( 1.000000000000000000, -0.000000000000000000, -0.000000000000000000 ) ) ;
#137 = EDGE_CURVE ( 'NONE', #578, #89, #1147, .T. ) ;
#138 = DIRECTION ( 'NONE',  ( 1.000000000000000000, -0.000000000000000000, -0.000000000000000000 ) ) ;
#139 = UNCERTAINTY_MEASURE_WITH_UNIT (LENGTH_MEASURE( 1.000000000000000082E-05 ), #90, 'distance_accuracy_value', 'NONE');
#140 = ORIENTED_EDGE ( 'NONE', *, *, #276, .T. ) ;
#141 = FILL_AREA_STYLE_COLOUR ( '', #628 ) ;
#142 = CARTESIAN_POINT ( 'NONE',  ( -67.00000000000038369, -8.812762986109021191E-15, 0.001000000000403455935 ) ) ;
#143 = EDGE_CURVE ( 'NONE', #1167, #81, #646, .T. ) ;
#144 = DIRECTION ( 'NONE',  ( 0.000000000000000000, 0.000000000000000000, -1.000000000000000000 ) ) ;
#145 = ORIENTED_EDGE ( 'NONE', *, *, #33, .F. ) ;
#146 = DIRECTION ( 'NONE',  ( -1.000000000000000000, -0.000000000000000000, -0.000000000000000000 ) ) ;
#147 = DIRECTION ( 'NONE',  ( 1.000000000000000000, 0.000000000000000000, 0.000000000000000000 ) ) ;
#148 = APPLICATION_CONTEXT ( 'automotive_design' ) ;
#149 = DIRECTION ( 'NONE',  ( 1.692413147294445723E-16, 1.000000000000000000, 5.871737635326938085E-31 ) ) ;
#150 = VECTOR ( 'NONE', #221, 1000.000000000000000 ) ;
#151 = ORIENTED_EDGE ( 'NONE', *, *, #426, .F. ) ;
#152 = CARTESIAN_POINT ( 'NONE',  ( -179.0000000000000284, -19.00000000000001421, -115.0000000000005969 ) ) ;
#153 = AXIS2_PLACEMENT_3D ( 'NONE', #992, #441, #352 ) ;
#154 = EDGE_CURVE ( 'NONE', #273, #815, #970, .T. ) ;
#155 = VECTOR ( 'NONE', #17, 1000.000000000000000 ) ;
#156 = CARTESIAN_POINT ( 'NONE',  ( -100.0000000000003837, -67.70000000000000284, 0.001000000000292433633 ) ) ;
#157 = DIRECTION ( 'NONE',  ( -1.000000000000000000, 1.692413147294445723E-16, 0.000000000000000000 ) ) ;
#158 = ORIENTED_EDGE ( 'NONE', *, *, #640, .T. ) ;
#159 = FACE_OUTER_BOUND ( 'NONE', #828, .T. ) ;
#160 = DIRECTION ( 'NONE',  ( -3.491481338843133750E-15, -1.994273124313229697E-33, 1.000000000000000000 ) ) ;
#161 = DIRECTION ( 'NONE',  ( -1.000000000000000000, 1.692413147294446463E-16, -3.488829337160060168E-15 ) ) ;
#162 = VERTEX_POINT ( 'NONE', #1160 ) ;
#163 = CARTESIAN_POINT ( 'NONE',  ( 1.127570259384924611E-14, -80.00000000000001421, -111.0000000000000000 ) ) ;
#164 = DIRECTION ( 'NONE',  ( 0.000000000000000000, 0.000000000000000000, -1.000000000000000000 ) ) ;
#165 = EDGE_CURVE ( 'NONE', #122, #815, #263, .T. ) ;
#166 = CARTESIAN_POINT ( 'NONE',  ( -3.000000000000000000, 80.00000000000001421, -3.000000000000002665 ) ) ;
#167 = ORIENTED_EDGE ( 'NONE', *, *, #718, .F. ) ;
#168 = DIRECTION ( 'NONE',  ( 3.469446951953615372E-15, -1.708315897921897288E-33, -1.000000000000000000 ) ) ;
#169 = VECTOR ( 'NONE', #719, 1000.000000000000000 ) ;
#170 = EDGE_LOOP ( 'NONE', ( #562, #106, #267, #787 ) ) ;
#171 = CIRCLE ( 'NONE', #648, 3.000000000000002665 ) ;
#172 = CARTESIAN_POINT ( 'NONE',  ( -66.99999999999997158, -19.00000000000000355, -115.0000000000002132 ) ) ;
#173 = VECTOR ( 'NONE', #483, 1000.000000000000000 ) ;
#174 = CIRCLE ( 'NONE', #25, 19.00000000000000355 ) ;
#175 = LINE ( 'NONE', #166, #625 ) ;
#176 = EDGE_CURVE ( 'NONE', #101, #531, #542, .T. ) ;
#177 = ORIENTED_EDGE ( 'NONE', *, *, #276, .F. ) ;
#178 = CARTESIAN_POINT ( 'NONE',  ( 1.126675055215562456E-15, 74.00000000000001421, -97.00000000000000000 ) ) ;
#179 = ORIENTED_EDGE ( 'NONE', *, *, #316, .T. ) ;
#180 = DIRECTION ( 'NONE',  ( 0.000000000000000000, -1.000000000000000000, 0.000000000000000000 ) ) ;
#181 = DIRECTION ( 'NONE',  ( 3.469446951953615372E-15, -1.708315897921897288E-33, -1.000000000000000000 ) ) ;
#182 = VERTEX_POINT ( 'NONE', #813 ) ;
#183 = LINE ( 'NONE', #909, #816 ) ;
#184 = ADVANCED_FACE ( 'NONE', ( #431 ), #897, .T. ) ;
#185 = ORIENTED_EDGE ( 'NONE', *, *, #1170, .T. ) ;
#186 = FACE_OUTER_BOUND ( 'NONE', #1065, .T. ) ;
#187 = CARTESIAN_POINT ( 'NONE',  ( -66.99999999999997158, -19.00000000000000355, -115.0000000000003837 ) ) ;
#188 = ORIENTED_EDGE ( 'NONE', *, *, #50, .T. ) ;
#189 = CARTESIAN_POINT ( 'NONE',  ( -3.000000000000000000, 74.00000000000002842, -32.00000000000000000 ) ) ;
#190 = DIRECTION ( 'NONE',  ( 1.000000000000000000, 7.752954082577909869E-17, 3.488829337160059774E-15 ) ) ;
#191 = EDGE_CURVE ( 'NONE', #540, #792, #347, .T. ) ;
#192 = VECTOR ( 'NONE', #190, 1000.000000000000000 ) ;
#193 = AXIS2_PLACEMENT_3D ( 'NONE', #1131, #800, #52 ) ;
#194 = CARTESIAN_POINT ( 'NONE',  ( 0.000000000000000000, -80.00000000000000000, -118.0000000000000000 ) ) ;
#195 = VECTOR ( 'NONE', #259, 1000.000000000000000 ) ;
#196 = ORIENTED_EDGE ( 'NONE', *, *, #883, .T. ) ;
#197 = DIRECTION ( 'NONE',  ( -1.692413147294446463E-16, -1.000000000000000000, -5.871737635326939837E-31 ) ) ;
#198 = EDGE_LOOP ( 'NONE', ( #29, #179, #310, #826 ) ) ;
#199 = DIRECTION ( 'NONE',  ( 0.000000000000000000, 0.000000000000000000, -1.000000000000000000 ) ) ;
#200 = FACE_OUTER_BOUND ( 'NONE', #1027, .T. ) ;
#201 = ORIENTED_EDGE ( 'NONE', *, *, #900, .F. ) ;
#202 = SURFACE_SIDE_STYLE ('',( #665 ) ) ;
#203 = VERTEX_POINT ( 'NONE', #371 ) ;
#204 = CARTESIAN_POINT ( 'NONE',  ( -3.000000000000000000, -73.99999999999998579, -100.5000000000000284 ) ) ;
#205 = LINE ( 'NONE', #572, #324 ) ;
#206 = EDGE_CURVE ( 'NONE', #921, #466, #432, .T. ) ;
#207 = ORIENTED_EDGE ( 'NONE', *, *, #698, .F. ) ;
#208 = LINE ( 'NONE', #1030, #747 ) ;
#209 = VERTEX_POINT ( 'NONE', #358 ) ;
#210 = DIRECTION ( 'NONE',  ( 0.000000000000000000, 0.000000000000000000, 1.000000000000000000 ) ) ;
#211 = FACE_OUTER_BOUND ( 'NONE', #585, .T. ) ;
#212 = AXIS2_PLACEMENT_3D ( 'NONE', #69, #600, #510 ) ;
#213 = EDGE_CURVE ( 'NONE', #976, #209, #884, .T. ) ;
#214 = ORIENTED_EDGE ( 'NONE', *, *, #1062, .F. ) ;
#215 = VERTEX_POINT ( 'NONE', #70 ) ;
#216 = DIRECTION ( 'NONE',  ( 1.000000000000000000, -0.000000000000000000, -0.000000000000000000 ) ) ;
#217 = ORIENTED_EDGE ( 'NONE', *, *, #623, .T. ) ;
#218 = ORIENTED_EDGE ( 'NONE', *, *, #99, .T. ) ;
#219 = FACE_OUTER_BOUND ( 'NONE', #331, .T. ) ;
#220 = EDGE_CURVE ( 'NONE', #874, #118, #981, .T. ) ;
#221 = DIRECTION ( 'NONE',  ( 0.000000000000000000, -1.000000000000000000, 0.000000000000000000 ) ) ;
#222 = CARTESIAN_POINT ( 'NONE',  ( -182.0000000000000000, -79.99999999999997158, -115.0000000000006111 ) ) ;
#223 = VERTEX_POINT ( 'NONE', #275 ) ;
#224 = CARTESIAN_POINT ( 'NONE',  ( 0.000000000000000000, 77.00000000000001421, 0.000000000000000000 ) ) ;
#225 = ADVANCED_FACE ( 'NONE', ( #451 ), #95, .F. ) ;
#226 = VECTOR ( 'NONE', #1064, 1000.000000000000000 ) ;
#227 = VECTOR ( 'NONE', #839, 1000.000000000000000 ) ;
#228 = CARTESIAN_POINT ( 'NONE',  ( 1.126675055215562456E-15, -73.99999999999998579, -100.5000000000000142 ) ) ;
#229 = VECTOR ( 'NONE', #682, 1000.000000000000000 ) ;
#230 = ORIENTED_EDGE ( 'NONE', *, *, #1075, .F. ) ;
#231 = AXIS2_PLACEMENT_3D ( 'NONE', #875, #412, #63 ) ;
#232 = CARTESIAN_POINT ( 'NONE',  ( 0.000000000000000000, 77.00000000000001421, -3.000000000000002665 ) ) ;
#233 =( GEOMETRIC_REPRESENTATION_CONTEXT ( 3 ) GLOBAL_UNCERTAINTY_ASSIGNED_CONTEXT ( ( #791 ) ) GLOBAL_UNIT_ASSIGNED_CONTEXT ( ( #1120, #473, #497 ) ) REPRESENTATION_CONTEXT ( 'NONE', 'WORKASPACE' ) );
#234 = CARTESIAN_POINT ( 'NONE',  ( -3.000000000000000000, 74.00000000000001421, -97.00000000000000000 ) ) ;
#235 = CARTESIAN_POINT ( 'NONE',  ( -3.000000000000000000, -73.99999999999998579, -32.00000000000002132 ) ) ;
#236 = ORIENTED_EDGE ( 'NONE', *, *, #124, .T. ) ;
#237 = PLANE ( 'NONE',  #193 ) ;
#238 = CARTESIAN_POINT ( 'NONE',  ( -99.99999999999997158, -67.70000000000000284, -115.0000000000004405 ) ) ;
#239 = CARTESIAN_POINT ( 'NONE',  ( 1.126675055215562456E-15, 74.00000000000002842, -28.50000000000001066 ) ) ;
#240 = EDGE_CURVE ( 'NONE', #40, #568, #924, .T. ) ;
#241 = ORIENTED_EDGE ( 'NONE', *, *, #220, .T. ) ;
#242 = DIRECTION ( 'NONE',  ( 0.000000000000000000, 0.000000000000000000, -1.000000000000000000 ) ) ;
#243 = FACE_BOUND ( 'NONE', #862, .T. ) ;
#244 = CYLINDRICAL_SURFACE ( 'NONE', #286, 3.499999999999996003 ) ;
#245 = AXIS2_PLACEMENT_3D ( 'NONE', #952, #865, #1143 ) ;
#246 = EDGE_CURVE ( 'NONE', #540, #578, #986, .T. ) ;
#247 = ORIENTED_EDGE ( 'NONE', *, *, #154, .T. ) ;
#248 = DIRECTION ( 'NONE',  ( 1.000000000000000000, -0.000000000000000000, -0.000000000000000000 ) ) ;
#249 = VECTOR ( 'NONE', #1010, 1000.000000000000000 ) ;
#250 = AXIS2_PLACEMENT_3D ( 'NONE', #569, #930, #300 ) ;
#251 = CARTESIAN_POINT ( 'NONE',  ( -66.99999999999997158, 19.00000000000000000, -115.0000000000002132 ) ) ;
#252 = CARTESIAN_POINT ( 'NONE',  ( -96.99999999999995737, 76.99999999999998579, -118.0000000000003126 ) ) ;
#253 = ORIENTED_EDGE ( 'NONE', *, *, #271, .F. ) ;
#254 = DIRECTION ( 'NONE',  ( -3.488829337160059774E-15, 0.000000000000000000, 1.000000000000000000 ) ) ;
#255 = CYLINDRICAL_SURFACE ( 'NONE', #795, 3.000000000000002665 ) ;
#256 = EDGE_CURVE ( 'NONE', #81, #392, #175, .T. ) ;
#257 = DIRECTION ( 'NONE',  ( 0.000000000000000000, 0.000000000000000000, -1.000000000000000000 ) ) ;
#258 = ORIENTED_EDGE ( 'NONE', *, *, #1011, .F. ) ;
#259 = DIRECTION ( 'NONE',  ( 1.000000000000000000, 7.752954082577909869E-17, 3.488829337160059774E-15 ) ) ;
#260 = EDGE_LOOP ( 'NONE', ( #1115, #386, #299, #369, #37, #768, #1163, #1023, #990, #460, #847, #759, #549, #390, #1008, #1054 ) ) ;
#261 = LINE ( 'NONE', #794, #362 ) ;
#262 = ADVANCED_FACE ( 'NONE', ( #365 ), #632, .T. ) ;
#263 = LINE ( 'NONE', #802, #434 ) ;
#264 = EDGE_LOOP ( 'NONE', ( #756, #740, #26, #960 ) ) ;
#265 = DIRECTION ( 'NONE',  ( 0.000000000000000000, 0.000000000000000000, -1.000000000000000000 ) ) ;
#266 = VECTOR ( 'NONE', #161, 1000.000000000000000 ) ;
#267 = ORIENTED_EDGE ( 'NONE', *, *, #603, .T. ) ;
#268 = DIRECTION ( 'NONE',  ( 1.000000000000000000, -1.692413147294445723E-16, 3.488829337160060168E-15 ) ) ;
#269 = AXIS2_PLACEMENT_3D ( 'NONE', #773, #842, #945 ) ;
#270 = CARTESIAN_POINT ( 'NONE',  ( 0.000000000000000000, 74.00000000000002842, -32.00000000000000000 ) ) ;
#271 = EDGE_CURVE ( 'NONE', #751, #803, #999, .T. ) ;
#272 = ORIENTED_EDGE ( 'NONE', *, *, #246, .T. ) ;
#273 = VERTEX_POINT ( 'NONE', #78 ) ;
#274 = CARTESIAN_POINT ( 'NONE',  ( -6.999999999999992006, 79.99999999999998579, -115.0000000000000000 ) ) ;
#275 = CARTESIAN_POINT ( 'NONE',  ( -182.0000000000000000, -67.69999999999998863, -115.0000000000006111 ) ) ;
#276 = EDGE_CURVE ( 'NONE', #376, #821, #494, .T. ) ;
#277 = ORIENTED_EDGE ( 'NONE', *, *, #1045, .T. ) ;
#278 = CARTESIAN_POINT ( 'NONE',  ( -6.999999999999992006, -80.00000000000001421, -115.0000000000000000 ) ) ;
#279 = ORIENTED_EDGE ( 'NONE', *, *, #191, .T. ) ;
#280 = CARTESIAN_POINT ( 'NONE',  ( 1.126675055215562456E-15, 74.00000000000002842, -35.49999999999999289 ) ) ;
#281 = DIRECTION ( 'NONE',  ( 0.000000000000000000, 0.000000000000000000, -1.000000000000000000 ) ) ;
#282 = VERTEX_POINT ( 'NONE', #187 ) ;
#283 = CARTESIAN_POINT ( 'NONE',  ( -3.000000000000000000, -80.00000000000000000, -118.0000000000000000 ) ) ;
#284 = ORIENTED_EDGE ( 'NONE', *, *, #50, .F. ) ;
#285 = DIRECTION ( 'NONE',  ( 3.469446951953615372E-15, -0.000000000000000000, -1.000000000000000000 ) ) ;
#286 = AXIS2_PLACEMENT_3D ( 'NONE', #1123, #319, #1046 ) ;
#287 = AXIS2_PLACEMENT_3D ( 'NONE', #480, #501, #389 ) ;
#288 = CIRCLE ( 'NONE', #1154, 3.499999999999989342 ) ;
#289 = LINE ( 'NONE', #20, #227 ) ;
#290 = MECHANICAL_DESIGN_GEOMETRIC_PRESENTATION_REPRESENTATION (  '', ( #479 ), #233 ) ;
#291 = ORIENTED_EDGE ( 'NONE', *, *, #301, .F. ) ;
#292 = DIRECTION ( 'NONE',  ( -3.491481338843134539E-15, -1.994273124313273488E-33, 1.000000000000000000 ) ) ;
#293 = ORIENTED_EDGE ( 'NONE', *, *, #959, .T. ) ;
#294 = CARTESIAN_POINT ( 'NONE',  ( 0.000000000000000000, 80.00000000000000000, -111.0000000000000000 ) ) ;
#295 = ADVANCED_FACE ( 'NONE', ( #459 ), #1059, .T. ) ;
#296 = DIRECTION ( 'NONE',  ( 1.000000000000000000, -0.000000000000000000, -0.000000000000000000 ) ) ;
#297 = EDGE_LOOP ( 'NONE', ( #866, #218 ) ) ;
#298 = CARTESIAN_POINT ( 'NONE',  ( -6.999999999999992006, -80.00000000000001421, -111.0000000000000000 ) ) ;
#299 = ORIENTED_EDGE ( 'NONE', *, *, #1062, .T. ) ;
#300 = DIRECTION ( 'NONE',  ( -1.062518129035793399E-14, 0.000000000000000000, -1.000000000000000000 ) ) ;
#301 = EDGE_CURVE ( 'NONE', #689, #928, #657, .T. ) ;
#302 = CARTESIAN_POINT ( 'NONE',  ( -6.999999999999992006, -80.00000000000001421, -111.0000000000000000 ) ) ;
#303 = VERTEX_POINT ( 'NONE', #557 ) ;
#304 = DIRECTION ( 'NONE',  ( 3.469446951953611033E-15, 0.000000000000000000, -1.000000000000000000 ) ) ;
#305 = ORIENTED_EDGE ( 'NONE', *, *, #246, .F. ) ;
#306 = CARTESIAN_POINT ( 'NONE',  ( 0.000000000000000000, 80.00000000000000000, -118.0000000000000000 ) ) ;
#307 = CLOSED_SHELL ( 'NONE', ( #1082, #612, #819, #545, #413, #596, #457, #882, #849, #65, #295, #311, #678, #1134, #940, #553, #953, #925, #400, #388, #395, #1148, #1089, #9, #805, #79, #843, #117, #128, #225, #262, #15, #936, #523, #683, #184 ) ) ;
#308 = VECTOR ( 'NONE', #1086, 1000.000000000000000 ) ;
#309 = VECTOR ( 'NONE', #380, 1000.000000000000000 ) ;
#310 = ORIENTED_EDGE ( 'NONE', *, *, #537, .F. ) ;
#311 = ADVANCED_FACE ( 'NONE', ( #211 ), #100, .F. ) ;
#312 =( NAMED_UNIT ( * ) SI_UNIT ( $, .STERADIAN. ) SOLID_ANGLE_UNIT ( ) );
#313 = ORIENTED_EDGE ( 'NONE', *, *, #987, .T. ) ;
#314 = CARTESIAN_POINT ( 'NONE',  ( -3.000000000000000000, -73.99999999999998579, -32.00000000000002132 ) ) ;
#315 = EDGE_LOOP ( 'NONE', ( #934, #401 ) ) ;
#316 = EDGE_CURVE ( 'NONE', #101, #1094, #14, .T. ) ;
#317 = ORIENTED_EDGE ( 'NONE', *, *, #1006, .T. ) ;
#318 = FACE_OUTER_BOUND ( 'NONE', #1124, .T. ) ;
#319 = DIRECTION ( 'NONE',  ( 1.000000000000000000, -0.000000000000000000, -0.000000000000000000 ) ) ;
#320 = ORIENTED_EDGE ( 'NONE', *, *, #764, .F. ) ;
#321 = DIRECTION ( 'NONE',  ( 3.491481338843133355E-15, 1.994273124313229697E-33, -1.000000000000000000 ) ) ;
#322 = CARTESIAN_POINT ( 'NONE',  ( 1.126675055215562456E-15, -73.99999999999998579, -97.00000000000002842 ) ) ;
#323 = AXIS2_PLACEMENT_3D ( 'NONE', #832, #23, #120 ) ;
#324 = VECTOR ( 'NONE', #643, 1000.000000000000000 ) ;
#325 = CARTESIAN_POINT ( 'NONE',  ( 0.000000000000000000, -73.99999999999998579, -93.50000000000002842 ) ) ;
#326 = ORIENTED_EDGE ( 'NONE', *, *, #650, .T. ) ;
#327 = CIRCLE ( 'NONE', #1097, 3.499999999999989342 ) ;
#328 = DIRECTION ( 'NONE',  ( -1.000000000000000000, -0.000000000000000000, -0.000000000000000000 ) ) ;
#329 = CYLINDRICAL_SURFACE ( 'NONE', #511, 3.500000000000003109 ) ;
#330 = DIRECTION ( 'NONE',  ( 1.000000000000000000, -0.000000000000000000, -0.000000000000000000 ) ) ;
#331 = EDGE_LOOP ( 'NONE', ( #1042, #638, #694, #672 ) ) ;
#332 = CARTESIAN_POINT ( 'NONE',  ( 1.126675055215562456E-15, -73.99999999999998579, -32.00000000000002132 ) ) ;
#333 = CARTESIAN_POINT ( 'NONE',  ( -99.99999999999995737, -80.00000000000001421, -118.0000000000003268 ) ) ;
#334 = EDGE_CURVE ( 'NONE', #644, #815, #1153, .T. ) ;
#335 = DIRECTION ( 'NONE',  ( -1.000000000000000000, 1.692413147294445970E-16, -3.554067609318336832E-15 ) ) ;
#336 = ORIENTED_EDGE ( 'NONE', *, *, #517, .F. ) ;
#337 = DIRECTION ( 'NONE',  ( 1.000000000000000000, 0.000000000000000000, 3.488829337160059774E-15 ) ) ;
#338 = CARTESIAN_POINT ( 'NONE',  ( -67.00000000000038369, 19.00000000000000000, 0.001000000000403455935 ) ) ;
#339 = DIRECTION ( 'NONE',  ( -1.000000000000000000, -0.000000000000000000, -0.000000000000000000 ) ) ;
#340 = EDGE_CURVE ( 'NONE', #568, #40, #21, .T. ) ;
#341 = EDGE_LOOP ( 'NONE', ( #1000, #320, #462, #84 ) ) ;
#342 = CARTESIAN_POINT ( 'NONE',  ( -3.000000000000000000, 74.00000000000001421, -97.00000000000000000 ) ) ;
#343 = CIRCLE ( 'NONE', #927, 19.00000000000000355 ) ;
#344 = CIRCLE ( 'NONE', #744, 3.500000000000003109 ) ;
#345 = LINE ( 'NONE', #172, #399 ) ;
#346 = VECTOR ( 'NONE', #360, 1000.000000000000000 ) ;
#347 = LINE ( 'NONE', #975, #266 ) ;
#348 = ORIENTED_EDGE ( 'NONE', *, *, #1100, .F. ) ;
#349 = PLANE ( 'NONE',  #58 ) ;
#350 = EDGE_CURVE ( 'NONE', #803, #666, #289, .T. ) ;
#351 = CARTESIAN_POINT ( 'NONE',  ( -99.99999999999997158, 67.69999999999997442, -115.0000000000003268 ) ) ;
#352 = DIRECTION ( 'NONE',  ( 0.000000000000000000, 0.000000000000000000, -1.000000000000000000 ) ) ;
#353 = VERTEX_POINT ( 'NONE', #662 ) ;
#354 = LINE ( 'NONE', #283, #706 ) ;
#355 = ORIENTED_EDGE ( 'NONE', *, *, #995, .F. ) ;
#356 = PRODUCT_DEFINITION ( 'UNKNOWN', '', #629, #602 ) ;
#357 = CARTESIAN_POINT ( 'NONE',  ( -182.0000000000000284, -67.69999999999998863, -115.0000000000006111 ) ) ;
#358 = CARTESIAN_POINT ( 'NONE',  ( 1.126675055215562456E-15, -73.99999999999998579, -28.50000000000003197 ) ) ;
#359 = ORIENTED_EDGE ( 'NONE', *, *, #394, .T. ) ;
#360 = DIRECTION ( 'NONE',  ( -0.000000000000000000, 1.000000000000000000, -0.000000000000000000 ) ) ;
#361 = ORIENTED_EDGE ( 'NONE', *, *, #582, .T. ) ;
#362 = VECTOR ( 'NONE', #74, 1000.000000000000000 ) ;
#363 = DIRECTION ( 'NONE',  ( 1.000000000000000000, -0.000000000000000000, 0.000000000000000000 ) ) ;
#364 = EDGE_CURVE ( 'NONE', #411, #1087, #57, .T. ) ;
#365 = FACE_OUTER_BOUND ( 'NONE', #80, .T. ) ;
#366 = PRODUCT_DEFINITION_SHAPE ( 'NONE', 'NONE',  #356 ) ;
#367 = ORIENTED_EDGE ( 'NONE', *, *, #1020, .T. ) ;
#368 = DIRECTION ( 'NONE',  ( -3.488829337160059774E-15, 0.000000000000000000, 1.000000000000000000 ) ) ;
#369 = ORIENTED_EDGE ( 'NONE', *, *, #154, .F. ) ;
#370 = LINE ( 'NONE', #404, #229 ) ;
#371 = CARTESIAN_POINT ( 'NONE',  ( -66.99999999999997158, 19.00000000000000000, -115.0000000000003837 ) ) ;
#372 = ORIENTED_EDGE ( 'NONE', *, *, #165, .F. ) ;
#373 = DIRECTION ( 'NONE',  ( 0.000000000000000000, 0.000000000000000000, -1.000000000000000000 ) ) ;
#374 = DIRECTION ( 'NONE',  ( 3.469446951953611033E-15, 0.000000000000000000, -1.000000000000000000 ) ) ;
#375 = DIRECTION ( 'NONE',  ( -1.000000000000000000, -1.508455196501571676E-16, 0.000000000000000000 ) ) ;
#376 = VERTEX_POINT ( 'NONE', #595 ) ;
#377 = CARTESIAN_POINT ( 'NONE',  ( -66.99999999999995737, -19.00000000000000355, -118.0000000000002132 ) ) ;
#378 = EDGE_CURVE ( 'NONE', #282, #558, #951, .T. ) ;
#379 = EDGE_LOOP ( 'NONE', ( #898, #236, #435, #67 ) ) ;
#380 = DIRECTION ( 'NONE',  ( -1.000000000000000000, 1.550590816515581974E-16, -3.488829337160059774E-15 ) ) ;
#381 = VECTOR ( 'NONE', #409, 1000.000000000000000 ) ;
#382 = AXIS2_PLACEMENT_3D ( 'NONE', #13, #18, #374 ) ;
#383 = CARTESIAN_POINT ( 'NONE',  ( -67.00000000000038369, -19.00000000000000355, 0.001000000000403455935 ) ) ;
#384 = ORIENTED_EDGE ( 'NONE', *, *, #92, .F. ) ;
#385 = DIRECTION ( 'NONE',  ( 1.000000000000000000, 0.000000000000000000, 4.625929269271481378E-15 ) ) ;
#386 = ORIENTED_EDGE ( 'NONE', *, *, #271, .T. ) ;
#387 = CARTESIAN_POINT ( 'NONE',  ( 0.000000000000000000, -73.99999999999998579, -35.50000000000001421 ) ) ;
#388 = ADVANCED_FACE ( 'NONE', ( #825 ), #28, .F. ) ;
#389 = DIRECTION ( 'NONE',  ( 3.491481338843133355E-15, 0.000000000000000000, -1.000000000000000000 ) ) ;
#390 = ORIENTED_EDGE ( 'NONE', *, *, #129, .T. ) ;
#391 = DIRECTION ( 'NONE',  ( 1.000000000000000000, -0.000000000000000000, -0.000000000000000000 ) ) ;
#392 = VERTEX_POINT ( 'NONE', #1012 ) ;
#393 = DIRECTION ( 'NONE',  ( 3.469446951953615372E-15, 0.000000000000000000, -1.000000000000000000 ) ) ;
#394 = EDGE_CURVE ( 'NONE', #1121, #928, #205, .T. ) ;
#395 = ADVANCED_FACE ( 'NONE', ( #200 ), #565, .F. ) ;
#396 = ORIENTED_EDGE ( 'NONE', *, *, #143, .T. ) ;
#397 = EDGE_LOOP ( 'NONE', ( #62, #503, #658, #1109 ) ) ;
#398 = DIRECTION ( 'NONE',  ( 0.000000000000000000, 0.000000000000000000, -1.000000000000000000 ) ) ;
#399 = VECTOR ( 'NONE', #979, 1000.000000000000000 ) ;
#400 = ADVANCED_FACE ( 'NONE', ( #1127 ), #470, .F. ) ;
#401 = ORIENTED_EDGE ( 'NONE', *, *, #240, .F. ) ;
#402 = PRESENTATION_STYLE_ASSIGNMENT (( #1021 ) ) ;
#403 = ORIENTED_EDGE ( 'NONE', *, *, #350, .T. ) ;
#404 = CARTESIAN_POINT ( 'NONE',  ( -182.0000000000000000, 21.99999999999997868, -118.0000000000006253 ) ) ;
#405 = CARTESIAN_POINT ( 'NONE',  ( -3.000000000000000000, -73.99999999999998579, -97.00000000000002842 ) ) ;
#406 = CARTESIAN_POINT ( 'NONE',  ( -3.000000000000000000, -73.99999999999998579, -97.00000000000002842 ) ) ;
#407 = EDGE_LOOP ( 'NONE', ( #367, #185, #1031, #988 ) ) ;
#408 = DIRECTION ( 'NONE',  ( 1.000000000000000000, 0.000000000000000000, 0.000000000000000000 ) ) ;
#409 = DIRECTION ( 'NONE',  ( 3.469446951953615372E-15, -0.000000000000000000, -1.000000000000000000 ) ) ;
#410 = LINE ( 'NONE', #601, #150 ) ;
#411 = VERTEX_POINT ( 'NONE', #748 ) ;
#412 = DIRECTION ( 'NONE',  ( 3.491481338843133750E-15, 3.323788540522064207E-33, -1.000000000000000000 ) ) ;
#413 = ADVANCED_FACE ( 'NONE', ( #917 ), #923, .F. ) ;
#414 = FACE_OUTER_BOUND ( 'NONE', #1029, .T. ) ;
#415 = CIRCLE ( 'NONE', #130, 3.499999999999996003 ) ;
#416 = LINE ( 'NONE', #703, #869 ) ;
#417 = AXIS2_PLACEMENT_3D ( 'NONE', #677, #487, #761 ) ;
#418 = ORIENTED_EDGE ( 'NONE', *, *, #868, .F. ) ;
#419 = SURFACE_STYLE_USAGE ( .BOTH. , #56 ) ;
#420 = EDGE_CURVE ( 'NONE', #626, #46, #73, .T. ) ;
#421 = FACE_OUTER_BOUND ( 'NONE', #615, .T. ) ;
#422 = LINE ( 'NONE', #325, #551 ) ;
#423 = ORIENTED_EDGE ( 'NONE', *, *, #974, .F. ) ;
#424 = DIRECTION ( 'NONE',  ( 1.550590816515581974E-16, 1.000000000000000000, 5.413858900045691274E-31 ) ) ;
#425 = CARTESIAN_POINT ( 'NONE',  ( -179.0000000000003979, -22.00000000000001421, 0.001000000000012410016 ) ) ;
#426 = EDGE_CURVE ( 'NONE', #630, #51, #860, .T. ) ;
#427 = CARTESIAN_POINT ( 'NONE',  ( -2.999999999999988898, 80.00000000000001421, -111.0000000000000000 ) ) ;
#428 = ORIENTED_EDGE ( 'NONE', *, *, #33, .T. ) ;
#429 = FACE_OUTER_BOUND ( 'NONE', #844, .T. ) ;
#430 = FACE_BOUND ( 'NONE', #297, .T. ) ;
#431 = FACE_OUTER_BOUND ( 'NONE', #634, .T. ) ;
#432 = CIRCLE ( 'NONE', #110, 3.000000000000002665 ) ;
#433 = EDGE_CURVE ( 'NONE', #46, #626, #964, .T. ) ;
#434 = VECTOR ( 'NONE', #1166, 1000.000000000000000 ) ;
#435 = ORIENTED_EDGE ( 'NONE', *, *, #420, .T. ) ;
#436 = FACE_BOUND ( 'NONE', #315, .T. ) ;
#437 = CIRCLE ( 'NONE', #589, 7.000000000000006217 ) ;
#438 = AXIS2_PLACEMENT_3D ( 'NONE', #939, #216, #109 ) ;
#439 = LINE ( 'NONE', #778, #834 ) ;
#440 = AXIS2_PLACEMENT_3D ( 'NONE', #943, #1014, #574 ) ;
#441 = DIRECTION ( 'NONE',  ( 1.000000000000000000, -0.000000000000000000, -0.000000000000000000 ) ) ;
#442 = ORIENTED_EDGE ( 'NONE', *, *, #603, .F. ) ;
#443 = ORIENTED_EDGE ( 'NONE', *, *, #471, .T. ) ;
#444 = CYLINDRICAL_SURFACE ( 'NONE', #742, 3.500000000000003109 ) ;
#445 = DIRECTION ( 'NONE',  ( -0.000000000000000000, 1.000000000000000000, -0.000000000000000000 ) ) ;
#446 = ORIENTED_EDGE ( 'NONE', *, *, #1141, .F. ) ;
#447 = DIRECTION ( 'NONE',  ( -0.000000000000000000, 5.413858900045691274E-31, -1.000000000000000000 ) ) ;
#448 = ORIENTED_EDGE ( 'NONE', *, *, #364, .T. ) ;
#449 = CYLINDRICAL_SURFACE ( 'NONE', #609, 3.000000000000000000 ) ;
#450 = EDGE_CURVE ( 'NONE', #743, #1048, #261, .T. ) ;
#451 = FACE_OUTER_BOUND ( 'NONE', #170, .T. ) ;
#452 = ORIENTED_EDGE ( 'NONE', *, *, #797, .F. ) ;
#453 =( NAMED_UNIT ( * ) SI_UNIT ( $, .STERADIAN. ) SOLID_ANGLE_UNIT ( ) );
#454 = AXIS2_PLACEMENT_3D ( 'NONE', #697, #339, #8 ) ;
#455 = VECTOR ( 'NONE', #59, 1000.000000000000000 ) ;
#456 = DIRECTION ( 'NONE',  ( -0.000000000000000000, -1.000000000000000000, -0.000000000000000000 ) ) ;
#457 = ADVANCED_FACE ( 'NONE', ( #243, #896, #430, #606, #1056 ), #1067, .F. ) ;
#458 = CIRCLE ( 'NONE', #856, 3.499999999999989342 ) ;
#459 = FACE_OUTER_BOUND ( 'NONE', #619, .T. ) ;
#460 = ORIENTED_EDGE ( 'NONE', *, *, #465, .T. ) ;
#461 = FACE_OUTER_BOUND ( 'NONE', #114, .T. ) ;
#462 = ORIENTED_EDGE ( 'NONE', *, *, #728, .T. ) ;
#463 = CARTESIAN_POINT ( 'NONE',  ( -6.999999999999992006, -80.00000000000001421, -111.0000000000000000 ) ) ;
#464 = CARTESIAN_POINT ( 'NONE',  ( 1.126675055215562456E-15, 74.00000000000002842, -32.00000000000000000 ) ) ;
#465 = EDGE_CURVE ( 'NONE', #531, #182, #171, .T. ) ;
#466 = VERTEX_POINT ( 'NONE', #1152 ) ;
#467 = LINE ( 'NONE', #5, #2 ) ;
#468 = ORIENTED_EDGE ( 'NONE', *, *, #1142, .T. ) ;
#469 = LINE ( 'NONE', #274, #946 ) ;
#470 = PLANE ( 'NONE',  #1022 ) ;
#471 = EDGE_CURVE ( 'NONE', #411, #376, #439, .T. ) ;
#472 = PLANE ( 'NONE',  #323 ) ;
#473 =( NAMED_UNIT ( * ) PLANE_ANGLE_UNIT ( ) SI_UNIT ( $, .RADIAN. ) );
#474 = ORIENTED_EDGE ( 'NONE', *, *, #753, .F. ) ;
#475 = PLANE ( 'NONE',  #929 ) ;
#476 = AXIS2_PLACEMENT_3D ( 'NONE', #1137, #330, #597 ) ;
#477 = VECTOR ( 'NONE', #1063, 1000.000000000000000 ) ;
#478 = CIRCLE ( 'NONE', #417, 4.000000000000003553 ) ;
#479 = STYLED_ITEM ( 'NONE', ( #402 ), #845 ) ;
#480 = CARTESIAN_POINT ( 'NONE',  ( -182.0000000000000000, 79.99999999999998579, -118.0000000000006253 ) ) ;
#481 = EDGE_LOOP ( 'NONE', ( #1130, #384, #10, #499 ) ) ;
#482 = EDGE_LOOP ( 'NONE', ( #903, #798, #729, #217 ) ) ;
#483 = DIRECTION ( 'NONE',  ( 1.000000000000000000, -0.000000000000000000, -0.000000000000000000 ) ) ;
#484 = EDGE_CURVE ( 'NONE', #125, #540, #969, .T. ) ;
#485 = FACE_OUTER_BOUND ( 'NONE', #538, .T. ) ;
#486 = ORIENTED_EDGE ( 'NONE', *, *, #1126, .T. ) ;
#487 = DIRECTION ( 'NONE',  ( 0.000000000000000000, -1.000000000000000000, 0.000000000000000000 ) ) ;
#488 = EDGE_CURVE ( 'NONE', #1144, #203, #64, .T. ) ;
#489 = ORIENTED_EDGE ( 'NONE', *, *, #566, .T. ) ;
#490 = ORIENTED_EDGE ( 'NONE', *, *, #1040, .F. ) ;
#491 = CARTESIAN_POINT ( 'NONE',  ( -182.0000000000000000, -22.00000000000002132, -118.0000000000006253 ) ) ;
#492 = VECTOR ( 'NONE', #138, 1000.000000000000000 ) ;
#493 = PRODUCT_RELATED_PRODUCT_CATEGORY ( 'part', '', ( #726 ) ) ;
#494 = CIRCLE ( 'NONE', #153, 3.499999999999989342 ) ;
#495 = AXIS2_PLACEMENT_3D ( 'NONE', #777, #254, #599 ) ;
#496 = CARTESIAN_POINT ( 'NONE',  ( -182.0000000000003979, -67.69999999999998863, 0.001000000000001000089 ) ) ;
#497 =( NAMED_UNIT ( * ) SI_UNIT ( $, .STERADIAN. ) SOLID_ANGLE_UNIT ( ) );
#498 = CIRCLE ( 'NONE', #77, 3.000000000000002665 ) ;
#499 = ORIENTED_EDGE ( 'NONE', *, *, #433, .T. ) ;
#500 = DIRECTION ( 'NONE',  ( 1.000000000000000000, -0.000000000000000000, 3.469446951953615372E-15 ) ) ;
#501 = DIRECTION ( 'NONE',  ( 1.000000000000000000, 0.000000000000000000, 3.491481338843133355E-15 ) ) ;
#502 = LINE ( 'NONE', #872, #762 ) ;
#503 = ORIENTED_EDGE ( 'NONE', *, *, #771, .T. ) ;
#504 = CARTESIAN_POINT ( 'NONE',  ( 1.127570259384924611E-14, -80.00000000000001421, -111.0000000000000000 ) ) ;
#505 = CARTESIAN_POINT ( 'NONE',  ( -67.00000000000038369, 19.00000000000000000, 0.001000000000403455935 ) ) ;
#506 = CARTESIAN_POINT ( 'NONE',  ( 0.000000000000000000, 74.00000000000001421, -100.5000000000000000 ) ) ;
#507 = EDGE_CURVE ( 'NONE', #282, #921, #345, .T. ) ;
#508 = EDGE_LOOP ( 'NONE', ( #610, #1079, #944, #279, #967, #16, #1083, #850, #31, #520, #993, #736, #12, #293, #823, #840 ) ) ;
#509 = FILL_AREA_STYLE ('',( #141 ) ) ;
#510 = DIRECTION ( 'NONE',  ( 1.000000000000000000, 7.752954082577909869E-17, 0.000000000000000000 ) ) ;
#511 = AXIS2_PLACEMENT_3D ( 'NONE', #712, #691, #164 ) ;
#512 = CARTESIAN_POINT ( 'NONE',  ( -3.000000000000000000, 80.00000000000000000, -118.0000000000000000 ) ) ;
#513 = VECTOR ( 'NONE', #447, 1000.000000000000000 ) ;
#514 = VERTEX_POINT ( 'NONE', #963 ) ;
#515 = DIRECTION ( 'NONE',  ( 0.000000000000000000, 0.000000000000000000, -1.000000000000000000 ) ) ;
#516 = LINE ( 'NONE', #870, #455 ) ;
#517 = EDGE_CURVE ( 'NONE', #203, #282, #343, .T. ) ;
#518 = CARTESIAN_POINT ( 'NONE',  ( 0.000000000000000000, -76.99999999999998579, 0.000000000000000000 ) ) ;
#519 = DIRECTION ( 'NONE',  ( 0.000000000000000000, 0.000000000000000000, 1.000000000000000000 ) ) ;
#520 = ORIENTED_EDGE ( 'NONE', *, *, #206, .T. ) ;
#521 = CARTESIAN_POINT ( 'NONE',  ( -3.000000000000000000, -76.99999999999998579, -3.000000000000000000 ) ) ;
#522 = CARTESIAN_POINT ( 'NONE',  ( -182.0000000000000000, -22.00000000000001421, -118.0000000000006253 ) ) ;
#523 = ADVANCED_FACE ( 'NONE', ( #414 ), #255, .T. ) ;
#524 = CARTESIAN_POINT ( 'NONE',  ( -100.0000000000003837, 67.69999999999997442, 0.001000000000292433633 ) ) ;
#525 = ORIENTED_EDGE ( 'NONE', *, *, #906, .T. ) ;
#526 = LINE ( 'NONE', #1066, #1133 ) ;
#527 = FACE_OUTER_BOUND ( 'NONE', #716, .T. ) ;
#528 = CARTESIAN_POINT ( 'NONE',  ( -97.00000000000038369, 76.99999999999998579, 0.001000000000302841974 ) ) ;
#529 = AXIS2_PLACEMENT_3D ( 'NONE', #1041, #54, #608 ) ;
#530 = AXIS2_PLACEMENT_3D ( 'NONE', #505, #561, #375 ) ;
#531 = VERTEX_POINT ( 'NONE', #522 ) ;
#532 = DIRECTION ( 'NONE',  ( 0.000000000000000000, -1.000000000000000000, 0.000000000000000000 ) ) ;
#533 = VECTOR ( 'NONE', #667, 1000.000000000000000 ) ;
#534 =( GEOMETRIC_REPRESENTATION_CONTEXT ( 3 ) GLOBAL_UNCERTAINTY_ASSIGNED_CONTEXT ( ( #954 ) ) GLOBAL_UNIT_ASSIGNED_CONTEXT ( ( #30, #654, #312 ) ) REPRESENTATION_CONTEXT ( 'NONE', 'WORKASPACE' ) );
#535 = CARTESIAN_POINT ( 'NONE',  ( -66.99999999999997158, -8.812762986109021191E-15, -115.0000000000002132 ) ) ;
#536 = DIRECTION ( 'NONE',  ( -0.000000000000000000, 1.000000000000000000, 0.000000000000000000 ) ) ;
#537 = EDGE_CURVE ( 'NONE', #546, #1094, #617, .T. ) ;
#538 = EDGE_LOOP ( 'NONE', ( #1149, #151, #446, #201 ) ) ;
#539 = DIRECTION ( 'NONE',  ( -0.000000000000000000, 1.000000000000000000, -0.000000000000000000 ) ) ;
#540 = VERTEX_POINT ( 'NONE', #351 ) ;
#541 = CARTESIAN_POINT ( 'NONE',  ( -179.0000000000003979, 18.99999999999998224, 0.001000000000012410016 ) ) ;
#542 = LINE ( 'NONE', #1077, #226 ) ;
#543 = EDGE_LOOP ( 'NONE', ( #489, #710, #910, #336 ) ) ;
#544 = CARTESIAN_POINT ( 'NONE',  ( -3.000000000000000000, -73.99999999999998579, -35.50000000000001421 ) ) ;
#545 = ADVANCED_FACE ( 'NONE', ( #421 ), #329, .F. ) ;
#546 = VERTEX_POINT ( 'NONE', #238 ) ;
#547 = DIRECTION ( 'NONE',  ( 0.000000000000000000, 0.000000000000000000, -1.000000000000000000 ) ) ;
#548 = CARTESIAN_POINT ( 'NONE',  ( 0.000000000000000000, -73.99999999999998579, -28.50000000000002487 ) ) ;
#549 = ORIENTED_EDGE ( 'NONE', *, *, #450, .F. ) ;
#550 = DIRECTION ( 'NONE',  ( 1.000000000000000000, 0.000000000000000000, 0.000000000000000000 ) ) ;
#551 = VECTOR ( 'NONE', #786, 1000.000000000000000 ) ;
#552 = AXIS2_PLACEMENT_3D ( 'NONE', #1169, #636, #1072 ) ;
#553 = ADVANCED_FACE ( 'NONE', ( #527 ), #881, .F. ) ;
#554 = LINE ( 'NONE', #559, #249 ) ;
#555 = CIRCLE ( 'NONE', #250, 4.000000000000003553 ) ;
#556 = EDGE_CURVE ( 'NONE', #573, #46, #516, .T. ) ;
#557 = CARTESIAN_POINT ( 'NONE',  ( -6.999999999999978684, -80.00000000000001421, -115.0000000000000000 ) ) ;
#558 = VERTEX_POINT ( 'NONE', #784 ) ;
#559 = CARTESIAN_POINT ( 'NONE',  ( -3.000000000000000000, -76.99999999999998579, 0.000000000000000000 ) ) ;
#560 = EDGE_CURVE ( 'NONE', #1094, #630, #1140, .T. ) ;
#561 = DIRECTION ( 'NONE',  ( -1.508455196501571676E-16, 1.000000000000000000, -5.233505283660968591E-31 ) ) ;
#562 = ORIENTED_EDGE ( 'NONE', *, *, #733, .F. ) ;
#563 = VERTEX_POINT ( 'NONE', #877 ) ;
#564 = LINE ( 'NONE', #745, #93 ) ;
#565 = PLANE ( 'NONE',  #530 ) ;
#566 = EDGE_CURVE ( 'NONE', #203, #1048, #1050, .T. ) ;
#567 = ORIENTED_EDGE ( 'NONE', *, *, #753, .T. ) ;
#568 = VERTEX_POINT ( 'NONE', #280 ) ;
#569 = CARTESIAN_POINT ( 'NONE',  ( -6.999999999999992006, 80.00000000000001421, -111.0000000000000000 ) ) ;
#570 = VECTOR ( 'NONE', #1085, 1000.000000000000000 ) ;
#571 = AXIS2_PLACEMENT_3D ( 'NONE', #521, #328, #242 ) ;
#572 = CARTESIAN_POINT ( 'NONE',  ( -2.999999999999988898, -80.00000000000001421, -111.0000000000000000 ) ) ;
#573 = VERTEX_POINT ( 'NONE', #204 ) ;
#574 = DIRECTION ( 'NONE',  ( 1.000000000000000000, 9.050731179009429069E-17, 0.000000000000000000 ) ) ;
#575 = EDGE_CURVE ( 'NONE', #223, #101, #649, .T. ) ;
#576 = EDGE_LOOP ( 'NONE', ( #885, #468 ) ) ;
#577 = DIRECTION ( 'NONE',  ( 0.000000000000000000, 0.000000000000000000, -1.000000000000000000 ) ) ;
#578 = VERTEX_POINT ( 'NONE', #901 ) ;
#579 = CARTESIAN_POINT ( 'NONE',  ( -3.000000000000000000, -76.99999999999998579, 0.000000000000000000 ) ) ;
#580 = ORIENTED_EDGE ( 'NONE', *, *, #86, .F. ) ;
#581 = CARTESIAN_POINT ( 'NONE',  ( 1.126675055215562456E-15, 74.00000000000001421, -100.4999999999999858 ) ) ;
#582 = EDGE_CURVE ( 'NONE', #118, #689, #607, .T. ) ;
#583 = LINE ( 'NONE', #506, #492 ) ;
#584 = DIRECTION ( 'NONE',  ( 0.000000000000000000, 0.000000000000000000, -1.000000000000000000 ) ) ;
#585 = EDGE_LOOP ( 'NONE', ( #705, #317, #1035, #806 ) ) ;
#586 = LINE ( 'NONE', #36, #173 ) ;
#587 = AXIS2_PLACEMENT_3D ( 'NONE', #302, #998, #754 ) ;
#588 = EDGE_CURVE ( 'NONE', #1144, #743, #1005, .T. ) ;
#589 = AXIS2_PLACEMENT_3D ( 'NONE', #463, #180, #911 ) ;
#590 = AXIS2_PLACEMENT_3D ( 'NONE', #605, #880, #690 ) ;
#591 = DIRECTION ( 'NONE',  ( 0.000000000000000000, 1.000000000000000000, -1.176083712526648949E-16 ) ) ;
#592 = AXIS2_PLACEMENT_3D ( 'NONE', #298, #851, #304 ) ;
#593 = ORIENTED_EDGE ( 'NONE', *, *, #433, .F. ) ;
#594 = CARTESIAN_POINT ( 'NONE',  ( -182.0000000000000000, -79.99999999999997158, -118.0000000000006253 ) ) ;
#595 = CARTESIAN_POINT ( 'NONE',  ( 1.126675055215562456E-15, 74.00000000000001421, -93.50000000000001421 ) ) ;
#596 = ADVANCED_FACE ( 'NONE', ( #737 ), #916, .T. ) ;
#597 = DIRECTION ( 'NONE',  ( 0.000000000000000000, 0.000000000000000000, -1.000000000000000000 ) ) ;
#598 = ORIENTED_EDGE ( 'NONE', *, *, #1011, .T. ) ;
#599 = DIRECTION ( 'NONE',  ( 1.000000000000000000, 0.000000000000000000, 4.625929269271481378E-15 ) ) ;
#600 = DIRECTION ( 'NONE',  ( 7.752954082577909869E-17, -1.000000000000000000, 2.706929450022845637E-31 ) ) ;
#601 = CARTESIAN_POINT ( 'NONE',  ( -99.99999999999995737, 79.99999999999997158, -118.0000000000003268 ) ) ;
#602 = PRODUCT_DEFINITION_CONTEXT ( 'detailed design', #148, 'design' ) ;
#603 = EDGE_CURVE ( 'NONE', #563, #568, #564, .T. ) ;
#604 = ORIENTED_EDGE ( 'NONE', *, *, #785, .T. ) ;
#605 = CARTESIAN_POINT ( 'NONE',  ( -96.99999999999997158, 76.99999999999998579, -115.0000000000003126 ) ) ;
#606 = FACE_BOUND ( 'NONE', #1098, .T. ) ;
#607 = CIRCLE ( 'NONE', #552, 3.000000000000000000 ) ;
#608 = DIRECTION ( 'NONE',  ( -1.000000000000000000, 0.000000000000000000, -4.625929269271481378E-15 ) ) ;
#609 = AXIS2_PLACEMENT_3D ( 'NONE', #811, #363, #547 ) ;
#610 = ORIENTED_EDGE ( 'NONE', *, *, #640, .F. ) ;
#611 = DIRECTION ( 'NONE',  ( 1.000000000000000000, 0.000000000000000000, 3.488829337160059774E-15 ) ) ;
#612 = ADVANCED_FACE ( 'NONE', ( #1090 ), #444, .F. ) ;
#613 = DIRECTION ( 'NONE',  ( 3.488829337160059774E-15, -0.000000000000000000, -1.000000000000000000 ) ) ;
#614 = CARTESIAN_POINT ( 'NONE',  ( -6.999999999999992006, 80.00000000000001421, -111.0000000000000000 ) ) ;
#615 = EDGE_LOOP ( 'NONE', ( #765, #443, #140, #145 ) ) ;
#616 = FACE_BOUND ( 'NONE', #937, .T. ) ;
#617 = LINE ( 'NONE', #156, #814 ) ;
#618 = DIRECTION ( 'NONE',  ( 0.000000000000000000, 0.000000000000000000, -1.000000000000000000 ) ) ;
#619 = EDGE_LOOP ( 'NONE', ( #372, #664, #1138, #1015 ) ) ;
#620 = CARTESIAN_POINT ( 'NONE',  ( -96.99999999999997158, -79.99999999999998579, -115.0000000000003268 ) ) ;
#621 = ORIENTED_EDGE ( 'NONE', *, *, #129, .F. ) ;
#622 = CARTESIAN_POINT ( 'NONE',  ( -99.99999999999997158, 79.99999999999997158, -115.0000000000003268 ) ) ;
#623 = EDGE_CURVE ( 'NONE', #1157, #118, #554, .T. ) ;
#624 = DIRECTION ( 'NONE',  ( 1.000000000000000000, 0.000000000000000000, 4.625929269271481378E-15 ) ) ;
#625 = VECTOR ( 'NONE', #3, 1000.000000000000000 ) ;
#626 = VERTEX_POINT ( 'NONE', #824 ) ;
#627 = LINE ( 'NONE', #984, #1118 ) ;
#628 = COLOUR_RGB ( '',0.8980392156862745390, 0.9176470588235293713, 0.9294117647058823817 ) ;
#629 = PRODUCT_DEFINITION_FORMATION_WITH_SPECIFIED_SOURCE ( 'ANY', '', #726, .NOT_KNOWN. ) ;
#630 = VERTEX_POINT ( 'NONE', #807 ) ;
#631 = LINE ( 'NONE', #357, #702 ) ;
#632 = CYLINDRICAL_SURFACE ( 'NONE', #1057, 3.000000000000002665 ) ;
#633 = EDGE_CURVE ( 'NONE', #223, #546, #631, .T. ) ;
#634 = EDGE_LOOP ( 'NONE', ( #949, #284, #904, #749 ) ) ;
#635 = VERTEX_POINT ( 'NONE', #1080 ) ;
#636 = DIRECTION ( 'NONE',  ( 1.000000000000000000, 0.000000000000000000, 0.000000000000000000 ) ) ;
#637 = CARTESIAN_POINT ( 'NONE',  ( 1.126675055215562456E-15, 74.00000000000002842, -32.00000000000000000 ) ) ;
#638 = ORIENTED_EDGE ( 'NONE', *, *, #213, .T. ) ;
#639 = CARTESIAN_POINT ( 'NONE',  ( -66.99999999999995737, -8.812762986109021191E-15, -118.0000000000002132 ) ) ;
#640 = EDGE_CURVE ( 'NONE', #666, #122, #104, .T. ) ;
#641 = ORIENTED_EDGE ( 'NONE', *, *, #484, .F. ) ;
#642 = DIRECTION ( 'NONE',  ( 1.000000000000000000, -0.000000000000000000, -0.000000000000000000 ) ) ;
#643 = DIRECTION ( 'NONE',  ( 1.000000000000000000, 0.000000000000000000, 0.000000000000000000 ) ) ;
#644 = VERTEX_POINT ( 'NONE', #294 ) ;
#645 = DIRECTION ( 'NONE',  ( 1.000000000000000000, 0.000000000000000000, 4.625929269271481378E-15 ) ) ;
#646 = CIRCLE ( 'NONE', #454, 3.000000000000000000 ) ;
#647 = ORIENTED_EDGE ( 'NONE', *, *, #86, .T. ) ;
#648 = AXIS2_PLACEMENT_3D ( 'NONE', #887, #708, #1159 ) ;
#649 = LINE ( 'NONE', #1164, #1114 ) ;
#650 = EDGE_CURVE ( 'NONE', #122, #303, #469, .T. ) ;
#651 = MECHANICAL_DESIGN_GEOMETRIC_PRESENTATION_REPRESENTATION (  '', ( #113 ), #746 ) ;
#652 = DIRECTION ( 'NONE',  ( 0.000000000000000000, 0.000000000000000000, 1.000000000000000000 ) ) ;
#653 = ORIENTED_EDGE ( 'NONE', *, *, #450, .T. ) ;
#654 =( NAMED_UNIT ( * ) PLANE_ANGLE_UNIT ( ) SI_UNIT ( $, .RADIAN. ) );
#655 = ORIENTED_EDGE ( 'NONE', *, *, #240, .T. ) ;
#656 = CARTESIAN_POINT ( 'NONE',  ( -3.000000000000000000, -80.00000000000000000, -118.0000000000000000 ) ) ;
#657 = LINE ( 'NONE', #194, #889 ) ;
#658 = ORIENTED_EDGE ( 'NONE', *, *, #176, .F. ) ;
#659 = CARTESIAN_POINT ( 'NONE',  ( -96.99999999999995737, -76.99999999999998579, -118.0000000000003126 ) ) ;
#660 = ORIENTED_EDGE ( 'NONE', *, *, #471, .F. ) ;
#661 = DIRECTION ( 'NONE',  ( 1.000000000000000000, -0.000000000000000000, -0.000000000000000000 ) ) ;
#662 = CARTESIAN_POINT ( 'NONE',  ( -2.999999999999988898, 80.00000000000001421, -111.0000000000000000 ) ) ;
#663 = EDGE_CURVE ( 'NONE', #273, #928, #437, .T. ) ;
#664 = ORIENTED_EDGE ( 'NONE', *, *, #758, .F. ) ;
#665 = SURFACE_STYLE_FILL_AREA ( #1113 ) ;
#666 = VERTEX_POINT ( 'NONE', #87 ) ;
#667 = DIRECTION ( 'NONE',  ( 0.000000000000000000, 1.176083712526648949E-16, 1.000000000000000000 ) ) ;
#668 = AXIS2_PLACEMENT_3D ( 'NONE', #512, #591, #49 ) ;
#669 = VECTOR ( 'NONE', #1039, 1000.000000000000000 ) ;
#670 = EDGE_CURVE ( 'NONE', #273, #1112, #7, .T. ) ;
#671 = FACE_OUTER_BOUND ( 'NONE', #1019, .T. ) ;
#672 = ORIENTED_EDGE ( 'NONE', *, *, #728, .F. ) ;
#673 = CARTESIAN_POINT ( 'NONE',  ( -179.0000000000000000, 18.99999999999998224, -118.0000000000006111 ) ) ;
#674 = ORIENTED_EDGE ( 'NONE', *, *, #900, .T. ) ;
#675 = DIRECTION ( 'NONE',  ( -1.000000000000000000, 1.550590816515581974E-16, -3.488829337160059774E-15 ) ) ;
#676 = ORIENTED_EDGE ( 'NONE', *, *, #191, .F. ) ;
#677 = CARTESIAN_POINT ( 'NONE',  ( -6.999999999999992006, -80.00000000000001421, -111.0000000000000000 ) ) ;
#678 = ADVANCED_FACE ( 'NONE', ( #829 ), #98, .T. ) ;
#679 = CARTESIAN_POINT ( 'NONE',  ( -182.0000000000000000, 67.69999999999997442, -118.0000000000006253 ) ) ;
#680 = PRODUCT_CONTEXT ( 'NONE', #941, 'mechanical' ) ;
#681 = ORIENTED_EDGE ( 'NONE', *, *, #588, .T. ) ;
#682 = DIRECTION ( 'NONE',  ( -3.491481338843133355E-15, -3.323788540522064207E-33, 1.000000000000000000 ) ) ;
#683 = ADVANCED_FACE ( 'NONE', ( #186 ), #449, .T. ) ;
#684 = DIRECTION ( 'NONE',  ( 1.000000000000000000, -0.000000000000000000, -0.000000000000000000 ) ) ;
#685 = VECTOR ( 'NONE', #1068, 1000.000000000000000 ) ;
#686 = CIRCLE ( 'NONE', #495, 3.000000000000002665 ) ;
#687 = AXIS2_PLACEMENT_3D ( 'NONE', #189, #550, #1084 ) ;
#688 = CARTESIAN_POINT ( 'NONE',  ( -99.99999999999997158, 76.99999999999998579, -115.0000000000003268 ) ) ;
#689 = VERTEX_POINT ( 'NONE', #725 ) ;
#690 = DIRECTION ( 'NONE',  ( 1.000000000000000000, 0.000000000000000000, 4.625929269271481378E-15 ) ) ;
#691 = DIRECTION ( 'NONE',  ( 1.000000000000000000, -0.000000000000000000, -0.000000000000000000 ) ) ;
#692 = FACE_OUTER_BOUND ( 'NONE', #55, .T. ) ;
#693 = SHAPE_DEFINITION_REPRESENTATION ( #366, #845 ) ;
#694 = ORIENTED_EDGE ( 'NONE', *, *, #974, .T. ) ;
#695 = CYLINDRICAL_SURFACE ( 'NONE', #231, 3.000000000000002665 ) ;
#696 = DIRECTION ( 'NONE',  ( -0.000000000000000000, -1.000000000000000000, -0.000000000000000000 ) ) ;
#697 = CARTESIAN_POINT ( 'NONE',  ( -3.000000000000000000, 77.00000000000001421, -3.000000000000002665 ) ) ;
#698 = EDGE_CURVE ( 'NONE', #1167, #1157, #905, .T. ) ;
#699 = VERTEX_POINT ( 'NONE', #818 ) ;
#700 = DIRECTION ( 'NONE',  ( -0.000000000000000000, 1.000000000000000000, -0.000000000000000000 ) ) ;
#701 = DIRECTION ( 'NONE',  ( 3.469446951953615372E-15, -0.000000000000000000, -1.000000000000000000 ) ) ;
#702 = VECTOR ( 'NONE', #268, 1000.000000000000000 ) ;
#703 = CARTESIAN_POINT ( 'NONE',  ( -182.0000000000003979, 67.69999999999998863, 0.001000000000001000089 ) ) ;
#704 = VECTOR ( 'NONE', #1110, 1000.000000000000000 ) ;
#705 = ORIENTED_EDGE ( 'NONE', *, *, #785, .F. ) ;
#706 = VECTOR ( 'NONE', #914, 1000.000000000000000 ) ;
#707 = DIRECTION ( 'NONE',  ( -1.000000000000000000, 1.550590816515581974E-16, 0.000000000000000000 ) ) ;
#708 = DIRECTION ( 'NONE',  ( 3.488829337160059774E-15, -0.000000000000000000, -1.000000000000000000 ) ) ;
#709 = CARTESIAN_POINT ( 'NONE',  ( -6.999999999999992006, 79.99999999999998579, -118.0000000000000142 ) ) ;
#710 = ORIENTED_EDGE ( 'NONE', *, *, #1053, .T. ) ;
#711 = DIRECTION ( 'NONE',  ( -0.000000000000000000, 1.000000000000000000, -0.000000000000000000 ) ) ;
#712 = CARTESIAN_POINT ( 'NONE',  ( 0.000000000000000000, 74.00000000000001421, -97.00000000000000000 ) ) ;
#713 = DIRECTION ( 'NONE',  ( -0.000000000000000000, -1.000000000000000000, -0.000000000000000000 ) ) ;
#714 = ORIENTED_EDGE ( 'NONE', *, *, #45, .T. ) ;
#715 = LINE ( 'NONE', #1001, #195 ) ;
#716 = EDGE_LOOP ( 'NONE', ( #214, #403, #158, #721 ) ) ;
#717 = DIRECTION ( 'NONE',  ( 0.000000000000000000, -1.176083712526648949E-16, -1.000000000000000000 ) ) ;
#718 = EDGE_CURVE ( 'NONE', #514, #162, #370, .T. ) ;
#719 = DIRECTION ( 'NONE',  ( 1.000000000000000000, -0.000000000000000000, -0.000000000000000000 ) ) ;
#720 = AXIS2_PLACEMENT_3D ( 'NONE', #656, #731, #717 ) ;
#721 = ORIENTED_EDGE ( 'NONE', *, *, #165, .T. ) ;
#722 = CARTESIAN_POINT ( 'NONE',  ( -96.99999999999995737, -79.99999999999998579, -118.0000000000003126 ) ) ;
#723 = VECTOR ( 'NONE', #711, 1000.000000000000000 ) ;
#724 = ORIENTED_EDGE ( 'NONE', *, *, #334, .F. ) ;
#725 = CARTESIAN_POINT ( 'NONE',  ( 0.000000000000000000, -79.99999999999998579, -3.000000000000002665 ) ) ;
#726 = PRODUCT ( '202500614-10212P01', '202500614-10212P01', '', ( #680 ) ) ;
#727 = DIRECTION ( 'NONE',  ( -1.000000000000000000, 0.000000000000000000, -3.469446951953611033E-15 ) ) ;
#728 = EDGE_CURVE ( 'NONE', #1078, #635, #848, .T. ) ;
#729 = ORIENTED_EDGE ( 'NONE', *, *, #698, .T. ) ;
#730 = DIRECTION ( 'NONE',  ( -1.000000000000000000, 0.000000000000000000, -3.652049423109067235E-15 ) ) ;
#731 = DIRECTION ( 'NONE',  ( 0.000000000000000000, -1.000000000000000000, 1.176083712526648949E-16 ) ) ;
#732 = DIRECTION ( 'NONE',  ( 1.000000000000000000, 0.000000000000000000, 0.000000000000000000 ) ) ;
#733 = EDGE_CURVE ( 'NONE', #699, #40, #586, .T. ) ;
#734 = ORIENTED_EDGE ( 'NONE', *, *, #256, .F. ) ;
#735 = CARTESIAN_POINT ( 'NONE',  ( -3.000000000000000000, 74.00000000000001421, -100.5000000000000000 ) ) ;
#736 = ORIENTED_EDGE ( 'NONE', *, *, #633, .T. ) ;
#737 = FACE_OUTER_BOUND ( 'NONE', #908, .T. ) ;
#738 = DIRECTION ( 'NONE',  ( 1.000000000000000000, 0.000000000000000000, 3.491481338843133355E-15 ) ) ;
#739 = CIRCLE ( 'NONE', #245, 3.000000000000002665 ) ;
#740 = ORIENTED_EDGE ( 'NONE', *, *, #426, .T. ) ;
#741 = CARTESIAN_POINT ( 'NONE',  ( -66.99999999999995737, 19.00000000000000000, -118.0000000000002132 ) ) ;
#742 = AXIS2_PLACEMENT_3D ( 'NONE', #1099, #82, #199 ) ;
#743 = VERTEX_POINT ( 'NONE', #673 ) ;
#744 = AXIS2_PLACEMENT_3D ( 'NONE', #342, #1158, #515 ) ;
#745 = CARTESIAN_POINT ( 'NONE',  ( 0.000000000000000000, 74.00000000000002842, -35.50000000000000000 ) ) ;
#746 =( GEOMETRIC_REPRESENTATION_CONTEXT ( 3 ) GLOBAL_UNCERTAINTY_ASSIGNED_CONTEXT ( ( #139 ) ) GLOBAL_UNIT_ASSIGNED_CONTEXT ( ( #90, #102, #453 ) ) REPRESENTATION_CONTEXT ( 'NONE', 'WORKASPACE' ) );
#747 = VECTOR ( 'NONE', #292, 1000.000000000000000 ) ;
#748 = CARTESIAN_POINT ( 'NONE',  ( -3.000000000000000000, 74.00000000000001421, -93.50000000000000000 ) ) ;
#749 = ORIENTED_EDGE ( 'NONE', *, *, #623, .F. ) ;
#750 = CARTESIAN_POINT ( 'NONE',  ( -2.999999999999988898, -80.00000000000001421, -111.0000000000000000 ) ) ;
#751 = VERTEX_POINT ( 'NONE', #1117 ) ;
#752 = DIRECTION ( 'NONE',  ( 1.000000000000000000, 0.000000000000000000, 0.000000000000000000 ) ) ;
#753 = EDGE_CURVE ( 'NONE', #353, #81, #757, .T. ) ;
#754 = DIRECTION ( 'NONE',  ( 0.000000000000000000, 0.000000000000000000, 1.000000000000000000 ) ) ;
#755 = ORIENTED_EDGE ( 'NONE', *, *, #143, .F. ) ;
#756 = ORIENTED_EDGE ( 'NONE', *, *, #560, .T. ) ;
#757 = LINE ( 'NONE', #47, #763 ) ;
#758 = EDGE_CURVE ( 'NONE', #353, #122, #555, .T. ) ;
#759 = ORIENTED_EDGE ( 'NONE', *, *, #1053, .F. ) ;
#760 = EDGE_LOOP ( 'NONE', ( #207, #396, #474, #34, #1060, #196 ) ) ;
#761 = DIRECTION ( 'NONE',  ( 0.000000000000000000, 0.000000000000000000, -1.000000000000000000 ) ) ;
#762 = VECTOR ( 'NONE', #878, 1000.000000000000000 ) ;
#763 = VECTOR ( 'NONE', #123, 1000.000000000000000 ) ;
#764 = EDGE_CURVE ( 'NONE', #1078, #976, #871, .T. ) ;
#765 = ORIENTED_EDGE ( 'NONE', *, *, #364, .F. ) ;
#766 = EDGE_CURVE ( 'NONE', #563, #699, #1116, .T. ) ;
#767 = CARTESIAN_POINT ( 'NONE',  ( -179.0000000000000000, 18.99999999999998224, -115.0000000000005969 ) ) ;
#768 = ORIENTED_EDGE ( 'NONE', *, *, #1141, .T. ) ;
#769 = CYLINDRICAL_SURFACE ( 'NONE', #1076, 3.499999999999996003 ) ;
#770 = CARTESIAN_POINT ( 'NONE',  ( -182.0000000000000000, -67.69999999999998863, -118.0000000000006253 ) ) ;
#771 = EDGE_CURVE ( 'NONE', #466, #531, #1125, .T. ) ;
#772 = ORIENTED_EDGE ( 'NONE', *, *, #1170, .F. ) ;
#773 = CARTESIAN_POINT ( 'NONE',  ( -3.000000000000000000, 74.00000000000002842, -32.00000000000000000 ) ) ;
#774 = DIRECTION ( 'NONE',  ( -1.000000000000000000, 0.000000000000000000, -3.469446951953613400E-15 ) ) ;
#775 = DIRECTION ( 'NONE',  ( 0.000000000000000000, 0.000000000000000000, -1.000000000000000000 ) ) ;
#776 = EDGE_LOOP ( 'NONE', ( #955, #1004, #817, #647 ) ) ;
#777 = CARTESIAN_POINT ( 'NONE',  ( -96.99999999999997158, -76.99999999999998579, -115.0000000000003126 ) ) ;
#778 = CARTESIAN_POINT ( 'NONE',  ( 0.000000000000000000, 74.00000000000001421, -93.50000000000000000 ) ) ;
#779 = AXIS2_PLACEMENT_3D ( 'NONE', #957, #147, #789 ) ;
#780 = AXIS2_PLACEMENT_3D ( 'NONE', #1139, #863, #337 ) ;
#781 = DIRECTION ( 'NONE',  ( 3.469446951953615372E-15, -0.000000000000000000, -1.000000000000000000 ) ) ;
#782 = ORIENTED_EDGE ( 'NONE', *, *, #420, .F. ) ;
#783 = PRESENTATION_STYLE_ASSIGNMENT (( #419 ) ) ;
#784 = CARTESIAN_POINT ( 'NONE',  ( -66.99999999999995737, -19.00000000000000355, -118.0000000000002132 ) ) ;
#785 = EDGE_CURVE ( 'NONE', #303, #1121, #478, .T. ) ;
#786 = DIRECTION ( 'NONE',  ( 1.000000000000000000, -0.000000000000000000, -0.000000000000000000 ) ) ;
#787 = ORIENTED_EDGE ( 'NONE', *, *, #340, .T. ) ;
#788 = FACE_OUTER_BOUND ( 'NONE', #260, .T. ) ;
#789 = DIRECTION ( 'NONE',  ( 0.000000000000000000, 0.000000000000000000, -1.000000000000000000 ) ) ;
#790 = CYLINDRICAL_SURFACE ( 'NONE', #476, 3.500000000000003109 ) ;
#791 = UNCERTAINTY_MEASURE_WITH_UNIT (LENGTH_MEASURE( 1.000000000000000082E-05 ), #1120, 'distance_accuracy_value', 'NONE');
#792 = VERTEX_POINT ( 'NONE', #1036 ) ;
#793 = PLANE ( 'NONE',  #890 ) ;
#794 = CARTESIAN_POINT ( 'NONE',  ( -66.99999999999995737, 19.00000000000000000, -118.0000000000002132 ) ) ;
#795 = AXIS2_PLACEMENT_3D ( 'NONE', #425, #160, #1135 ) ;
#796 = CARTESIAN_POINT ( 'NONE',  ( -179.0000000000000284, -22.00000000000001421, -115.0000000000005969 ) ) ;
#797 = EDGE_CURVE ( 'NONE', #392, #874, #947, .T. ) ;
#798 = ORIENTED_EDGE ( 'NONE', *, *, #995, .T. ) ;
#799 = COLOUR_RGB ( '',0.8980392156862745390, 0.9176470588235293713, 0.9294117647058823817 ) ;
#800 = DIRECTION ( 'NONE',  ( 1.000000000000000000, 0.000000000000000000, 0.000000000000000000 ) ) ;
#801 = DIRECTION ( 'NONE',  ( 1.000000000000000000, -0.000000000000000000, -0.000000000000000000 ) ) ;
#802 = CARTESIAN_POINT ( 'NONE',  ( -6.999999999999992006, 80.00000000000000000, -118.0000000000000000 ) ) ;
#803 = VERTEX_POINT ( 'NONE', #922 ) ;
#804 = CARTESIAN_POINT ( 'NONE',  ( 0.000000000000000000, 74.00000000000002842, -32.00000000000000000 ) ) ;
#805 = ADVANCED_FACE ( 'NONE', ( #1028 ), #1122, .F. ) ;
#806 = ORIENTED_EDGE ( 'NONE', *, *, #394, .F. ) ;
#807 = CARTESIAN_POINT ( 'NONE',  ( -99.99999999999995737, -76.99999999999998579, -118.0000000000003268 ) ) ;
#808 = CARTESIAN_POINT ( 'NONE',  ( -3.000000000000000000, -76.99999999999998579, -3.000000000000000000 ) ) ;
#809 = ORIENTED_EDGE ( 'NONE', *, *, #301, .T. ) ;
#810 = DIRECTION ( 'NONE',  ( 1.000000000000000000, -0.000000000000000000, -0.000000000000000000 ) ) ;
#811 = CARTESIAN_POINT ( 'NONE',  ( -3.000000000000000000, 77.00000000000001421, -3.000000000000002665 ) ) ;
#812 = EDGE_CURVE ( 'NONE', #514, #89, #837, .T. ) ;
#813 = CARTESIAN_POINT ( 'NONE',  ( -179.0000000000000284, -19.00000000000001421, -118.0000000000006111 ) ) ;
#814 = VECTOR ( 'NONE', #973, 1000.000000000000000 ) ;
#815 = VERTEX_POINT ( 'NONE', #27 ) ;
#816 = VECTOR ( 'NONE', #532, 1000.000000000000000 ) ;
#817 = ORIENTED_EDGE ( 'NONE', *, *, #876, .T. ) ;
#818 = CARTESIAN_POINT ( 'NONE',  ( -3.000000000000000000, 74.00000000000002842, -28.50000000000000355 ) ) ;
#819 = ADVANCED_FACE ( 'NONE', ( #219 ), #769, .F. ) ;
#820 = CARTESIAN_POINT ( 'NONE',  ( 0.000000000000000000, -79.99999999999998579, 0.000000000000000000 ) ) ;
#821 = VERTEX_POINT ( 'NONE', #581 ) ;
#822 = CYLINDRICAL_SURFACE ( 'NONE', #43, 3.499999999999996003 ) ;
#823 = ORIENTED_EDGE ( 'NONE', *, *, #1126, .F. ) ;
#824 = CARTESIAN_POINT ( 'NONE',  ( 1.126675055215562456E-15, -73.99999999999998579, -93.50000000000004263 ) ) ;
#825 = FACE_OUTER_BOUND ( 'NONE', #543, .T. ) ;
#826 = ORIENTED_EDGE ( 'NONE', *, *, #633, .F. ) ;
#827 = LINE ( 'NONE', #377, #155 ) ;
#828 = EDGE_LOOP ( 'NONE', ( #490, #167, #621, #895 ) ) ;
#829 = FACE_OUTER_BOUND ( 'NONE', #858, .T. ) ;
#830 = DIRECTION ( 'NONE',  ( 0.000000000000000000, 0.000000000000000000, -1.000000000000000000 ) ) ;
#831 = VECTOR ( 'NONE', #713, 1000.000000000000000 ) ;
#832 = CARTESIAN_POINT ( 'NONE',  ( -100.0000000000003837, 79.99999999999997158, 0.001000000000292433633 ) ) ;
#833 = LINE ( 'NONE', #222, #1003 ) ;
#834 = VECTOR ( 'NONE', #801, 1000.000000000000000 ) ;
#835 = ORIENTED_EDGE ( 'NONE', *, *, #488, .F. ) ;
#836 = AXIS2_PLACEMENT_3D ( 'NONE', #32, #500, #393 ) ;
#837 = LINE ( 'NONE', #859, #704 ) ;
#838 = CIRCLE ( 'NONE', #687, 3.499999999999996003 ) ;
#839 = DIRECTION ( 'NONE',  ( -3.469446951953615372E-15, 1.708315897921896946E-33, 1.000000000000000000 ) ) ;
#840 = ORIENTED_EDGE ( 'NONE', *, *, #650, .F. ) ;
#841 = ORIENTED_EDGE ( 'NONE', *, *, #1075, .T. ) ;
#842 = DIRECTION ( 'NONE',  ( 1.000000000000000000, 0.000000000000000000, 0.000000000000000000 ) ) ;
#843 = ADVANCED_FACE ( 'NONE', ( #318 ), #1105, .F. ) ;
#844 = EDGE_LOOP ( 'NONE', ( #486, #674, #1119, #4 ) ) ;
#845 = ADVANCED_BREP_SHAPE_REPRESENTATION ( '202500614-10212P01', ( #997, #1136 ), #534 ) ;
#846 = CARTESIAN_POINT ( 'NONE',  ( 1.126675055215562456E-15, -73.99999999999998579, -32.00000000000002132 ) ) ;
#847 = ORIENTED_EDGE ( 'NONE', *, *, #1020, .F. ) ;
#848 = LINE ( 'NONE', #387, #1038 ) ;
#849 = ADVANCED_FACE ( 'NONE', ( #42 ), #475, .T. ) ;
#850 = ORIENTED_EDGE ( 'NONE', *, *, #517, .T. ) ;
#851 = DIRECTION ( 'NONE',  ( 0.000000000000000000, -1.000000000000000000, 0.000000000000000000 ) ) ;
#852 = ORIENTED_EDGE ( 'NONE', *, *, #566, .F. ) ;
#853 = CARTESIAN_POINT ( 'NONE',  ( 0.000000000000000000, -73.99999999999998579, -32.00000000000002132 ) ) ;
#854 = AXIS2_PLACEMENT_3D ( 'NONE', #252, #891, #1081 ) ;
#855 = CIRCLE ( 'NONE', #571, 3.000000000000000000 ) ;
#856 = AXIS2_PLACEMENT_3D ( 'NONE', #178, #810, #265 ) ;
#857 = DIRECTION ( 'NONE',  ( 1.000000000000000000, 0.000000000000000000, 0.000000000000000000 ) ) ;
#858 = EDGE_LOOP ( 'NONE', ( #71, #1009, #247, #724 ) ) ;
#859 = CARTESIAN_POINT ( 'NONE',  ( -182.0000000000000000, 0.000000000000000000, -118.0000000000006253 ) ) ;
#860 = LINE ( 'NONE', #48, #308 ) ;
#861 = DIRECTION ( 'NONE',  ( 1.000000000000000000, 0.000000000000000000, 0.000000000000000000 ) ) ;
#862 = EDGE_LOOP ( 'NONE', ( #919, #841 ) ) ;
#863 = DIRECTION ( 'NONE',  ( -3.488829337160059774E-15, 0.000000000000000000, 1.000000000000000000 ) ) ;
#864 = DIRECTION ( 'NONE',  ( 0.000000000000000000, 0.000000000000000000, -1.000000000000000000 ) ) ;
#865 = DIRECTION ( 'NONE',  ( 3.488829337160059774E-15, -0.000000000000000000, -1.000000000000000000 ) ) ;
#866 = ORIENTED_EDGE ( 'NONE', *, *, #764, .T. ) ;
#867 = SURFACE_STYLE_FILL_AREA ( #509 ) ;
#868 = EDGE_CURVE ( 'NONE', #644, #392, #119, .T. ) ;
#869 = VECTOR ( 'NONE', #781, 1000.000000000000000 ) ;
#870 = CARTESIAN_POINT ( 'NONE',  ( 0.000000000000000000, -73.99999999999998579, -100.5000000000000284 ) ) ;
#871 = CIRCLE ( 'NONE', #1096, 3.499999999999996003 ) ;
#872 = CARTESIAN_POINT ( 'NONE',  ( -3.000000000000000000, -79.99999999999998579, -3.000000000000002665 ) ) ;
#873 = CARTESIAN_POINT ( 'NONE',  ( 0.000000000000000000, 0.000000000000000000, 0.000000000000000000 ) ) ;
#874 = VERTEX_POINT ( 'NONE', #224 ) ;
#875 = CARTESIAN_POINT ( 'NONE',  ( -179.0000000000003979, 21.99999999999998224, 0.001000000000012410016 ) ) ;
#876 = EDGE_CURVE ( 'NONE', #162, #792, #1024, .T. ) ;
#877 = CARTESIAN_POINT ( 'NONE',  ( -3.000000000000000000, 74.00000000000002842, -35.50000000000000000 ) ) ;
#878 = DIRECTION ( 'NONE',  ( -1.000000000000000000, -0.000000000000000000, -0.000000000000000000 ) ) ;
#879 = ORIENTED_EDGE ( 'NONE', *, *, #758, .T. ) ;
#880 = DIRECTION ( 'NONE',  ( -3.488829337160059774E-15, 0.000000000000000000, 1.000000000000000000 ) ) ;
#881 = PLANE ( 'NONE',  #212 ) ;
#882 = ADVANCED_FACE ( 'NONE', ( #436, #961, #616, #1150, #1055 ), #237, .T. ) ;
#883 = EDGE_CURVE ( 'NONE', #1102, #1157, #855, .T. ) ;
#884 = LINE ( 'NONE', #548, #169 ) ;
#885 = ORIENTED_EDGE ( 'NONE', *, *, #92, .T. ) ;
#886 = CARTESIAN_POINT ( 'NONE',  ( -96.99999999999995737, -79.99999999999998579, -118.0000000000003268 ) ) ;
#887 = CARTESIAN_POINT ( 'NONE',  ( -179.0000000000000000, -22.00000000000001421, -118.0000000000006111 ) ) ;
#888 = AXIS2_PLACEMENT_3D ( 'NONE', #808, #83, #902 ) ;
#889 = VECTOR ( 'NONE', #1107, 1000.000000000000000 ) ;
#890 = AXIS2_PLACEMENT_3D ( 'NONE', #594, #424, #707 ) ;
#891 = DIRECTION ( 'NONE',  ( 3.488829337160059774E-15, -0.000000000000000000, -1.000000000000000000 ) ) ;
#892 = CIRCLE ( 'NONE', #1155, 3.500000000000003109 ) ;
#893 = ORIENTED_EDGE ( 'NONE', *, *, #256, .T. ) ;
#894 = DIRECTION ( 'NONE',  ( 1.000000000000000000, -1.692413147294446463E-16, 0.000000000000000000 ) ) ;
#895 = ORIENTED_EDGE ( 'NONE', *, *, #588, .F. ) ;
#896 = FACE_BOUND ( 'NONE', #576, .T. ) ;
#897 = CYLINDRICAL_SURFACE ( 'NONE', #888, 3.000000000000000000 ) ;
#898 = ORIENTED_EDGE ( 'NONE', *, *, #1142, .F. ) ;
#899 = LINE ( 'NONE', #85, #346 ) ;
#900 = EDGE_CURVE ( 'NONE', #1071, #1112, #68, .T. ) ;
#901 = CARTESIAN_POINT ( 'NONE',  ( -99.99999999999995737, 67.69999999999997442, -118.0000000000003268 ) ) ;
#902 = DIRECTION ( 'NONE',  ( 0.000000000000000000, 0.000000000000000000, -1.000000000000000000 ) ) ;
#903 = ORIENTED_EDGE ( 'NONE', *, *, #220, .F. ) ;
#904 = ORIENTED_EDGE ( 'NONE', *, *, #582, .F. ) ;
#905 = LINE ( 'NONE', #91, #41 ) ;
#906 = EDGE_CURVE ( 'NONE', #1087, #411, #344, .T. ) ;
#907 = DIRECTION ( 'NONE',  ( 1.000000000000000000, -0.000000000000000000, -0.000000000000000000 ) ) ;
#908 = EDGE_LOOP ( 'NONE', ( #291, #188, #277, #359 ) ) ;
#909 = CARTESIAN_POINT ( 'NONE',  ( -99.99999999999997158, -80.00000000000001421, -115.0000000000003268 ) ) ;
#910 = ORIENTED_EDGE ( 'NONE', *, *, #378, .F. ) ;
#911 = DIRECTION ( 'NONE',  ( 0.000000000000000000, 0.000000000000000000, -1.000000000000000000 ) ) ;
#912 = DIRECTION ( 'NONE',  ( -1.065615849528609171E-14, 0.000000000000000000, -1.000000000000000000 ) ) ;
#913 = ORIENTED_EDGE ( 'NONE', *, *, #465, .F. ) ;
#914 = DIRECTION ( 'NONE',  ( -0.000000000000000000, -1.176083712526648949E-16, -1.000000000000000000 ) ) ;
#915 = ORIENTED_EDGE ( 'NONE', *, *, #60, .F. ) ;
#916 = PLANE ( 'NONE',  #720 ) ;
#917 = FACE_OUTER_BOUND ( 'NONE', #776, .T. ) ;
#918 = EDGE_CURVE ( 'NONE', #666, #125, #1002, .T. ) ;
#919 = ORIENTED_EDGE ( 'NONE', *, *, #766, .T. ) ;
#920 = CYLINDRICAL_SURFACE ( 'NONE', #592, 4.000000000000003553 ) ;
#921 = VERTEX_POINT ( 'NONE', #152 ) ;
#922 = CARTESIAN_POINT ( 'NONE',  ( -96.99999999999995737, 79.99999999999998579, -118.0000000000003126 ) ) ;
#923 = PLANE ( 'NONE',  #287 ) ;
#924 = CIRCLE ( 'NONE', #1018, 3.499999999999989342 ) ;
#925 = ADVANCED_FACE ( 'NONE', ( #72 ), #1043, .T. ) ;
#926 = ORIENTED_EDGE ( 'NONE', *, *, #1100, .T. ) ;
#927 = AXIS2_PLACEMENT_3D ( 'NONE', #535, #613, #1044 ) ;
#928 = VERTEX_POINT ( 'NONE', #504 ) ;
#929 = AXIS2_PLACEMENT_3D ( 'NONE', #1016, #210, #1032 ) ;
#930 = DIRECTION ( 'NONE',  ( -0.000000000000000000, 1.000000000000000000, -0.000000000000000000 ) ) ;
#931 = CARTESIAN_POINT ( 'NONE',  ( -182.0000000000000000, 79.99999999999998579, -118.0000000000006253 ) ) ;
#932 = ORIENTED_EDGE ( 'NONE', *, *, #206, .F. ) ;
#933 = PLANE ( 'NONE',  #440 ) ;
#934 = ORIENTED_EDGE ( 'NONE', *, *, #340, .F. ) ;
#935 = CARTESIAN_POINT ( 'NONE',  ( -182.0000000000000000, 79.99999999999998579, -115.0000000000006111 ) ) ;
#936 = ADVANCED_FACE ( 'NONE', ( #159 ), #695, .T. ) ;
#937 = EDGE_LOOP ( 'NONE', ( #1104, #423 ) ) ;
#938 = ORIENTED_EDGE ( 'NONE', *, *, #350, .F. ) ;
#939 = CARTESIAN_POINT ( 'NONE',  ( 0.000000000000000000, 74.00000000000001421, -97.00000000000000000 ) ) ;
#940 = ADVANCED_FACE ( 'NONE', ( #429 ), #793, .F. ) ;
#941 = APPLICATION_CONTEXT ( 'automotive_design' ) ;
#942 = CARTESIAN_POINT ( 'NONE',  ( -99.99999999999997158, -76.99999999999998579, -115.0000000000003268 ) ) ;
#943 = CARTESIAN_POINT ( 'NONE',  ( -67.00000000000038369, -19.00000000000000355, 0.001000000000403455935 ) ) ;
#944 = ORIENTED_EDGE ( 'NONE', *, *, #484, .T. ) ;
#945 = DIRECTION ( 'NONE',  ( 0.000000000000000000, 0.000000000000000000, -1.000000000000000000 ) ) ;
#946 = VECTOR ( 'NONE', #985, 1000.000000000000000 ) ;
#947 = CIRCLE ( 'NONE', #94, 3.000000000000000000 ) ;
#948 = CARTESIAN_POINT ( 'NONE',  ( -6.999999999999978684, 80.00000000000001421, -115.0000000000000000 ) ) ;
#949 = ORIENTED_EDGE ( 'NONE', *, *, #883, .F. ) ;
#950 = LINE ( 'NONE', #278, #513 ) ;
#951 = LINE ( 'NONE', #383, #381 ) ;
#952 = CARTESIAN_POINT ( 'NONE',  ( -179.0000000000000000, 21.99999999999998224, -118.0000000000006111 ) ) ;
#953 = ADVANCED_FACE ( 'NONE', ( #788 ), #349, .F. ) ;
#954 = UNCERTAINTY_MEASURE_WITH_UNIT (LENGTH_MEASURE( 1.000000000000000082E-05 ), #30, 'distance_accuracy_value', 'NONE');
#955 = ORIENTED_EDGE ( 'NONE', *, *, #812, .F. ) ;
#956 = DIRECTION ( 'NONE',  ( 0.000000000000000000, 0.000000000000000000, -1.000000000000000000 ) ) ;
#957 = CARTESIAN_POINT ( 'NONE',  ( -3.000000000000000000, 0.000000000000000000, 0.000000000000000000 ) ) ;
#958 = PLANE ( 'NONE',  #1034 ) ;
#959 = EDGE_CURVE ( 'NONE', #51, #1071, #686, .T. ) ;
#960 = ORIENTED_EDGE ( 'NONE', *, *, #537, .T. ) ;
#961 = FACE_BOUND ( 'NONE', #133, .T. ) ;
#962 = VECTOR ( 'NONE', #861, 1000.000000000000000 ) ;
#963 = CARTESIAN_POINT ( 'NONE',  ( -182.0000000000000000, 21.99999999999998224, -118.0000000000006253 ) ) ;
#964 = CIRCLE ( 'NONE', #980, 3.499999999999989342 ) ;
#965 = CIRCLE ( 'NONE', #982, 3.000000000000002665 ) ;
#966 = PLANE ( 'NONE',  #668 ) ;
#967 = ORIENTED_EDGE ( 'NONE', *, *, #876, .F. ) ;
#968 = DIRECTION ( 'NONE',  ( 3.469446951953615372E-15, 3.416631795843793891E-33, -1.000000000000000000 ) ) ;
#969 = LINE ( 'NONE', #622, #477 ) ;
#970 = LINE ( 'NONE', #709, #19 ) ;
#971 = EDGE_LOOP ( 'NONE', ( #272, #103, #580, #676 ) ) ;
#972 = LINE ( 'NONE', #163, #723 ) ;
#973 = DIRECTION ( 'NONE',  ( 3.469446951953615372E-15, -0.000000000000000000, -1.000000000000000000 ) ) ;
#974 = EDGE_CURVE ( 'NONE', #209, #635, #288, .T. ) ;
#975 = CARTESIAN_POINT ( 'NONE',  ( -182.0000000000000000, 67.69999999999998863, -115.0000000000006111 ) ) ;
#976 = VERTEX_POINT ( 'NONE', #1049 ) ;
#977 = FACE_OUTER_BOUND ( 'NONE', #971, .T. ) ;
#978 = ORIENTED_EDGE ( 'NONE', *, *, #733, .T. ) ;
#979 = DIRECTION ( 'NONE',  ( -1.000000000000000000, -9.050731179009429069E-17, -3.488829337160060168E-15 ) ) ;
#980 = AXIS2_PLACEMENT_3D ( 'NONE', #322, #684, #281 ) ;
#981 = LINE ( 'NONE', #820, #831 ) ;
#982 = AXIS2_PLACEMENT_3D ( 'NONE', #989, #368, #645 ) ;
#983 = ORIENTED_EDGE ( 'NONE', *, *, #1111, .T. ) ;
#984 = CARTESIAN_POINT ( 'NONE',  ( -182.0000000000000000, 79.99999999999998579, -115.0000000000006111 ) ) ;
#985 = DIRECTION ( 'NONE',  ( 0.000000000000000000, -1.000000000000000000, 0.000000000000000000 ) ) ;
#986 = LINE ( 'NONE', #524, #685 ) ;
#987 = EDGE_CURVE ( 'NONE', #928, #644, #972, .T. ) ;
#988 = ORIENTED_EDGE ( 'NONE', *, *, #378, .T. ) ;
#989 = CARTESIAN_POINT ( 'NONE',  ( -179.0000000000000284, 21.99999999999998224, -115.0000000000005969 ) ) ;
#990 = ORIENTED_EDGE ( 'NONE', *, *, #176, .T. ) ;
#991 = CARTESIAN_POINT ( 'NONE',  ( 4.097515792692917388E-13, -80.00000000000000000, -117.9999999999999858 ) ) ;
#992 = CARTESIAN_POINT ( 'NONE',  ( 1.126675055215562456E-15, 74.00000000000001421, -97.00000000000000000 ) ) ;
#993 = ORIENTED_EDGE ( 'NONE', *, *, #1106, .F. ) ;
#994 = DIRECTION ( 'NONE',  ( 3.469446951953614978E-15, 0.000000000000000000, -1.000000000000000000 ) ) ;
#995 = EDGE_CURVE ( 'NONE', #874, #1167, #526, .T. ) ;
#996 = CARTESIAN_POINT ( 'NONE',  ( -3.000000000000000000, 80.00000000000000000, -114.9999999999999858 ) ) ;
#997 = MANIFOLD_SOLID_BREP ( 'Verrundung1', #307 ) ;
#998 = DIRECTION ( 'NONE',  ( -0.000000000000000000, 1.000000000000000000, 0.000000000000000000 ) ) ;
#999 = CIRCLE ( 'NONE', #854, 3.000000000000002665 ) ;
#1000 = ORIENTED_EDGE ( 'NONE', *, *, #213, .F. ) ;
#1001 = CARTESIAN_POINT ( 'NONE',  ( 4.159539425353540484E-13, 80.00000000000000000, -117.9999999999999858 ) ) ;
#1002 = CIRCLE ( 'NONE', #590, 3.000000000000002665 ) ;
#1003 = VECTOR ( 'NONE', #675, 1000.000000000000000 ) ;
#1004 = ORIENTED_EDGE ( 'NONE', *, *, #718, .T. ) ;
#1005 = LINE ( 'NONE', #541, #570 ) ;
#1006 = EDGE_CURVE ( 'NONE', #303, #273, #950, .T. ) ;
#1007 = DIRECTION ( 'NONE',  ( 3.469446951953615372E-15, -0.000000000000000000, -1.000000000000000000 ) ) ;
#1008 = ORIENTED_EDGE ( 'NONE', *, *, #812, .T. ) ;
#1009 = ORIENTED_EDGE ( 'NONE', *, *, #663, .F. ) ;
#1010 = DIRECTION ( 'NONE',  ( 1.000000000000000000, 0.000000000000000000, -0.000000000000000000 ) ) ;
#1011 = EDGE_CURVE ( 'NONE', #125, #751, #467, .T. ) ;
#1012 = CARTESIAN_POINT ( 'NONE',  ( 0.000000000000000000, 80.00000000000001421, -3.000000000000002665 ) ) ;
#1013 = ORIENTED_EDGE ( 'NONE', *, *, #771, .F. ) ;
#1014 = DIRECTION ( 'NONE',  ( 9.050731179009429069E-17, -1.000000000000000000, 3.140103170196580804E-31 ) ) ;
#1015 = ORIENTED_EDGE ( 'NONE', *, *, #334, .T. ) ;
#1016 = CARTESIAN_POINT ( 'NONE',  ( -3.000000000000000000, -79.99999999999998579, 0.000000000000000000 ) ) ;
#1017 = CARTESIAN_POINT ( 'NONE',  ( 1.126675055215562456E-15, -73.99999999999998579, -97.00000000000002842 ) ) ;
#1018 = AXIS2_PLACEMENT_3D ( 'NONE', #637, #88, #257 ) ;
#1019 = EDGE_LOOP ( 'NONE', ( #641, #598, #714, #305 ) ) ;
#1020 = EDGE_CURVE ( 'NONE', #558, #182, #827, .T. ) ;
#1021 = SURFACE_STYLE_USAGE ( .BOTH. , #202 ) ;
#1022 = AXIS2_PLACEMENT_3D ( 'NONE', #931, #738, #1091 ) ;
#1023 = ORIENTED_EDGE ( 'NONE', *, *, #316, .F. ) ;
#1024 = LINE ( 'NONE', #935, #22 ) ;
#1025 = CYLINDRICAL_SURFACE ( 'NONE', #529, 3.000000000000002665 ) ;
#1026 = EDGE_CURVE ( 'NONE', #546, #51, #183, .T. ) ;
#1027 = EDGE_LOOP ( 'NONE', ( #835, #681, #653, #852 ) ) ;
#1028 = FACE_OUTER_BOUND ( 'NONE', #264, .T. ) ;
#1029 = EDGE_LOOP ( 'NONE', ( #913, #1013, #932, #772 ) ) ;
#1030 = CARTESIAN_POINT ( 'NONE',  ( -179.0000000000004263, -19.00000000000001421, 0.001000000000012410016 ) ) ;
#1031 = ORIENTED_EDGE ( 'NONE', *, *, #507, .F. ) ;
#1032 = DIRECTION ( 'NONE',  ( 1.000000000000000000, 0.000000000000000000, -0.000000000000000000 ) ) ;
#1033 = FACE_OUTER_BOUND ( 'NONE', #198, .T. ) ;
#1034 = AXIS2_PLACEMENT_3D ( 'NONE', #496, #149, #157 ) ;
#1035 = ORIENTED_EDGE ( 'NONE', *, *, #663, .T. ) ;
#1036 = CARTESIAN_POINT ( 'NONE',  ( -182.0000000000000000, 67.69999999999998863, -115.0000000000006111 ) ) ;
#1037 = AXIS2_PLACEMENT_3D ( 'NONE', #234, #732, #105 ) ;
#1038 = VECTOR ( 'NONE', #127, 1000.000000000000000 ) ;
#1039 = DIRECTION ( 'NONE',  ( 1.000000000000000000, -1.692413147294445230E-16, 3.554067609318335255E-15 ) ) ;
#1040 = EDGE_CURVE ( 'NONE', #162, #1144, #965, .T. ) ;
#1041 = CARTESIAN_POINT ( 'NONE',  ( -96.99999999999995737, -76.99999999999998579, -118.0000000000003268 ) ) ;
#1042 = ORIENTED_EDGE ( 'NONE', *, *, #99, .F. ) ;
#1043 = PLANE ( 'NONE',  #780 ) ;
#1044 = DIRECTION ( 'NONE',  ( 1.000000000000000000, 0.000000000000000000, 3.652049423109067235E-15 ) ) ;
#1045 = EDGE_CURVE ( 'NONE', #1102, #1121, #354, .T. ) ;
#1046 = DIRECTION ( 'NONE',  ( 0.000000000000000000, 0.000000000000000000, -1.000000000000000000 ) ) ;
#1047 = APPLICATION_PROTOCOL_DEFINITION ( 'draft international standard', 'automotive_design', 1998, #148 ) ;
#1048 = VERTEX_POINT ( 'NONE', #741 ) ;
#1049 = CARTESIAN_POINT ( 'NONE',  ( -3.000000000000000000, -73.99999999999998579, -28.50000000000002487 ) ) ;
#1050 = LINE ( 'NONE', #338, #1074 ) ;
#1051 = CARTESIAN_POINT ( 'NONE',  ( -181.9999999999999716, 67.69999999999998863, -118.0000000000006253 ) ) ;
#1052 = DIRECTION ( 'NONE',  ( 1.000000000000000000, 0.000000000000000000, 0.000000000000000000 ) ) ;
#1053 = EDGE_CURVE ( 'NONE', #1048, #558, #174, .T. ) ;
#1054 = ORIENTED_EDGE ( 'NONE', *, *, #137, .F. ) ;
#1055 = FACE_OUTER_BOUND ( 'NONE', #1161, .T. ) ;
#1056 = FACE_OUTER_BOUND ( 'NONE', #760, .T. ) ;
#1057 = AXIS2_PLACEMENT_3D ( 'NONE', #528, #181, #727 ) ;
#1058 = VECTOR ( 'NONE', #321, 1000.000000000000000 ) ;
#1059 = PLANE ( 'NONE',  #1132 ) ;
#1060 = ORIENTED_EDGE ( 'NONE', *, *, #1045, .F. ) ;
#1061 = CARTESIAN_POINT ( 'NONE',  ( 4.221563058014163579E-13, 0.000000000000000000, -117.9999999999999858 ) ) ;
#1062 = EDGE_CURVE ( 'NONE', #803, #815, #715, .T. ) ;
#1063 = DIRECTION ( 'NONE',  ( 0.000000000000000000, -1.000000000000000000, 0.000000000000000000 ) ) ;
#1064 = DIRECTION ( 'NONE',  ( 0.000000000000000000, 1.000000000000000000, -0.000000000000000000 ) ) ;
#1065 = EDGE_LOOP ( 'NONE', ( #755, #355, #452, #734 ) ) ;
#1066 = CARTESIAN_POINT ( 'NONE',  ( -3.000000000000000000, 77.00000000000001421, 0.000000000000000000 ) ) ;
#1067 = PLANE ( 'NONE',  #779 ) ;
#1068 = DIRECTION ( 'NONE',  ( 3.469446951953615372E-15, -0.000000000000000000, -1.000000000000000000 ) ) ;
#1069 = EDGE_LOOP ( 'NONE', ( #983, #879, #326, #604 ) ) ;
#1070 = CARTESIAN_POINT ( 'NONE',  ( -99.99999999999995737, -67.70000000000000284, -118.0000000000003268 ) ) ;
#1071 = VERTEX_POINT ( 'NONE', #620 ) ;
#1072 = DIRECTION ( 'NONE',  ( 0.000000000000000000, 0.000000000000000000, -1.000000000000000000 ) ) ;
#1073 = AXIS2_PLACEMENT_3D ( 'NONE', #270, #907, #618 ) ;
#1074 = VECTOR ( 'NONE', #701, 1000.000000000000000 ) ;
#1075 = EDGE_CURVE ( 'NONE', #699, #563, #838, .T. ) ;
#1076 = AXIS2_PLACEMENT_3D ( 'NONE', #853, #661, #577 ) ;
#1077 = CARTESIAN_POINT ( 'NONE',  ( -182.0000000000000000, 0.000000000000000000, -118.0000000000006253 ) ) ;
#1078 = VERTEX_POINT ( 'NONE', #544 ) ;
#1079 = ORIENTED_EDGE ( 'NONE', *, *, #918, .T. ) ;
#1080 = CARTESIAN_POINT ( 'NONE',  ( 1.126675055215562456E-15, -73.99999999999998579, -35.50000000000001421 ) ) ;
#1081 = DIRECTION ( 'NONE',  ( 1.000000000000000000, 0.000000000000000000, 4.625929269271481378E-15 ) ) ;
#1082 = ADVANCED_FACE ( 'NONE', ( #461 ), #822, .F. ) ;
#1083 = ORIENTED_EDGE ( 'NONE', *, *, #488, .T. ) ;
#1084 = DIRECTION ( 'NONE',  ( 0.000000000000000000, 0.000000000000000000, -1.000000000000000000 ) ) ;
#1085 = DIRECTION ( 'NONE',  ( 3.491481338843134539E-15, 3.323788540522239369E-33, -1.000000000000000000 ) ) ;
#1086 = DIRECTION ( 'NONE',  ( -3.469446951953615372E-15, -3.416631795843794575E-33, 1.000000000000000000 ) ) ;
#1087 = VERTEX_POINT ( 'NONE', #735 ) ;
#1088 = CARTESIAN_POINT ( 'NONE',  ( -182.0000000000003979, 67.69999999999998863, 0.001000000000001000089 ) ) ;
#1089 = ADVANCED_FACE ( 'NONE', ( #977 ), #1162, .F. ) ;
#1090 = FACE_OUTER_BOUND ( 'NONE', #379, .T. ) ;
#1091 = DIRECTION ( 'NONE',  ( 3.491481338843133355E-15, 0.000000000000000000, -1.000000000000000000 ) ) ;
#1092 = CIRCLE ( 'NONE', #1151, 3.500000000000003109 ) ;
#1093 = AXIS2_PLACEMENT_3D ( 'NONE', #1017, #136, #864 ) ;
#1094 = VERTEX_POINT ( 'NONE', #1070 ) ;
#1095 = CARTESIAN_POINT ( 'NONE',  ( -3.000000000000000000, 77.00000000000001421, 0.000000000000000000 ) ) ;
#1096 = AXIS2_PLACEMENT_3D ( 'NONE', #314, #408, #398 ) ;
#1097 = AXIS2_PLACEMENT_3D ( 'NONE', #846, #391, #584 ) ;
#1098 = EDGE_LOOP ( 'NONE', ( #525, #448 ) ) ;
#1099 = CARTESIAN_POINT ( 'NONE',  ( 0.000000000000000000, -73.99999999999998579, -97.00000000000002842 ) ) ;
#1100 = EDGE_CURVE ( 'NONE', #821, #376, #458, .T. ) ;
#1101 = CARTESIAN_POINT ( 'NONE',  ( -182.0000000000000000, -67.69999999999998863, -118.0000000000006253 ) ) ;
#1102 = VERTEX_POINT ( 'NONE', #1168 ) ;
#1103 = FACE_OUTER_BOUND ( 'NONE', #1069, .T. ) ;
#1104 = ORIENTED_EDGE ( 'NONE', *, *, #1165, .F. ) ;
#1105 = CYLINDRICAL_SURFACE ( 'NONE', #438, 3.500000000000003109 ) ;
#1106 = EDGE_CURVE ( 'NONE', #223, #466, #627, .T. ) ;
#1107 = DIRECTION ( 'NONE',  ( -0.000000000000000000, -1.176083712526648949E-16, -1.000000000000000000 ) ) ;
#1108 = ORIENTED_EDGE ( 'NONE', *, *, #906, .F. ) ;
#1109 = ORIENTED_EDGE ( 'NONE', *, *, #575, .F. ) ;
#1110 = DIRECTION ( 'NONE',  ( 0.000000000000000000, 1.000000000000000000, -0.000000000000000000 ) ) ;
#1111 = EDGE_CURVE ( 'NONE', #1121, #353, #899, .T. ) ;
#1112 = VERTEX_POINT ( 'NONE', #722 ) ;
#1113 = FILL_AREA_STYLE ('',( #38 ) ) ;
#1114 = VECTOR ( 'NONE', #285, 1000.000000000000000 ) ;
#1115 = ORIENTED_EDGE ( 'NONE', *, *, #45, .F. ) ;
#1116 = CIRCLE ( 'NONE', #269, 3.499999999999996003 ) ;
#1117 = CARTESIAN_POINT ( 'NONE',  ( -99.99999999999995737, 76.99999999999998579, -118.0000000000003268 ) ) ;
#1118 = VECTOR ( 'NONE', #539, 1000.000000000000000 ) ;
#1119 = ORIENTED_EDGE ( 'NONE', *, *, #670, .F. ) ;
#1120 =( LENGTH_UNIT ( ) NAMED_UNIT ( * ) SI_UNIT ( .MILLI., .METRE. ) );
#1121 = VERTEX_POINT ( 'NONE', #750 ) ;
#1122 = PLANE ( 'NONE',  #836 ) ;
#1123 = CARTESIAN_POINT ( 'NONE',  ( 0.000000000000000000, -73.99999999999998579, -32.00000000000002132 ) ) ;
#1124 = EDGE_LOOP ( 'NONE', ( #660, #1108, #428, #926 ) ) ;
#1125 = LINE ( 'NONE', #491, #1058 ) ;
#1126 = EDGE_CURVE ( 'NONE', #303, #1071, #833, .T. ) ;
#1127 = FACE_OUTER_BOUND ( 'NONE', #397, .T. ) ;
#1128 = LINE ( 'NONE', #427, #962 ) ;
#1129 = VECTOR ( 'NONE', #335, 1000.000000000000000 ) ;
#1130 = ORIENTED_EDGE ( 'NONE', *, *, #124, .F. ) ;
#1131 = CARTESIAN_POINT ( 'NONE',  ( 0.000000000000000000, 0.000000000000000000, 0.000000000000000000 ) ) ;
#1132 = AXIS2_PLACEMENT_3D ( 'NONE', #614, #536, #652 ) ;
#1133 = VECTOR ( 'NONE', #146, 1000.000000000000000 ) ;
#1134 = ADVANCED_FACE ( 'NONE', ( #1103 ), #920, .F. ) ;
#1135 = DIRECTION ( 'NONE',  ( 1.000000000000000000, 0.000000000000000000, 3.491469808582222842E-15 ) ) ;
#1136 = AXIS2_PLACEMENT_3D ( 'NONE', #873, #519, #1052 ) ;
#1137 = CARTESIAN_POINT ( 'NONE',  ( 0.000000000000000000, -73.99999999999998579, -97.00000000000002842 ) ) ;
#1138 = ORIENTED_EDGE ( 'NONE', *, *, #60, .T. ) ;
#1139 = CARTESIAN_POINT ( 'NONE',  ( 4.116818617848869452E-13, 0.000000000000000000, -114.9999999999999716 ) ) ;
#1140 = LINE ( 'NONE', #333, #39 ) ;
#1141 = EDGE_CURVE ( 'NONE', #1112, #630, #498, .T. ) ;
#1142 = EDGE_CURVE ( 'NONE', #215, #573, #892, .T. ) ;
#1143 = DIRECTION ( 'NONE',  ( 1.000000000000000000, 0.000000000000000000, 4.625929269271481378E-15 ) ) ;
#1144 = VERTEX_POINT ( 'NONE', #767 ) ;
#1145 = DIRECTION ( 'NONE',  ( -3.488829337160059774E-15, 0.000000000000000000, 1.000000000000000000 ) ) ;
#1146 = DIRECTION ( 'NONE',  ( 1.000000000000000000, 1.508455196501571676E-16, 3.488829337160060168E-15 ) ) ;
#1147 = LINE ( 'NONE', #1051, #1129 ) ;
#1148 = ADVANCED_FACE ( 'NONE', ( #126 ), #933, .F. ) ;
#1149 = ORIENTED_EDGE ( 'NONE', *, *, #959, .F. ) ;
#1150 = FACE_BOUND ( 'NONE', #97, .T. ) ;
#1151 = AXIS2_PLACEMENT_3D ( 'NONE', #405, #61, #775 ) ;
#1152 = CARTESIAN_POINT ( 'NONE',  ( -182.0000000000000000, -22.00000000000002132, -115.0000000000006111 ) ) ;
#1153 = CIRCLE ( 'NONE', #75, 7.000000000000006217 ) ;
#1154 = AXIS2_PLACEMENT_3D ( 'NONE', #332, #248, #956 ) ;
#1155 = AXIS2_PLACEMENT_3D ( 'NONE', #406, #24, #115 ) ;
#1156 = DIRECTION ( 'NONE',  ( -3.488829337160059774E-15, 0.000000000000000000, 1.000000000000000000 ) ) ;
#1157 = VERTEX_POINT ( 'NONE', #579 ) ;
#1158 = DIRECTION ( 'NONE',  ( 1.000000000000000000, 0.000000000000000000, 0.000000000000000000 ) ) ;
#1159 = DIRECTION ( 'NONE',  ( 1.000000000000000000, -2.312964634635740689E-15, 4.625929269271481378E-15 ) ) ;
#1160 = CARTESIAN_POINT ( 'NONE',  ( -182.0000000000000000, 21.99999999999997868, -115.0000000000006111 ) ) ;
#1161 = EDGE_LOOP ( 'NONE', ( #6, #108, #241, #361, #809, #313 ) ) ;
#1162 = PLANE ( 'NONE',  #116 ) ;
#1163 = ORIENTED_EDGE ( 'NONE', *, *, #560, .F. ) ;
#1164 = CARTESIAN_POINT ( 'NONE',  ( -182.0000000000003979, -67.69999999999998863, 0.001000000000001000089 ) ) ;
#1165 = EDGE_CURVE ( 'NONE', #635, #209, #327, .T. ) ;
#1166 = DIRECTION ( 'NONE',  ( 0.000000000000000000, -2.706929450022845637E-31, -1.000000000000000000 ) ) ;
#1167 = VERTEX_POINT ( 'NONE', #1095 ) ;
#1168 = CARTESIAN_POINT ( 'NONE',  ( -3.000000000000000000, -79.99999999999998579, -3.000000000000002665 ) ) ;
#1169 = CARTESIAN_POINT ( 'NONE',  ( 0.000000000000000000, -76.99999999999998579, -3.000000000000000000 ) ) ;
#1170 = EDGE_CURVE ( 'NONE', #182, #921, #208, .T. ) ;
ENDSEC;
END-ISO-10303-21;
