ISO-10303-21;
HEADER;
FILE_DESCRIPTION (( 'STEP AP214' ),
    '1' );
FILE_NAME ('202500614-10209P01.STEP',
    '2026-02-11T07:57:58',
    ( '' ),
    ( '' ),
    'SwSTEP 2.0',
    'SolidWorks 2021',
    '' );
FILE_SCHEMA (( 'AUTOMOTIVE_DESIGN' ));
ENDSEC;

DATA;
#1 = ORIENTED_EDGE ( 'NONE', *, *, #726, .T. ) ;
#2 = CARTESIAN_POINT ( 'NONE',  ( 9.548528137423877737, 0.000000000000000000, 0.000000000000000000 ) ) ;
#3 = CIRCLE ( 'NONE', #274, 6.000000000000001776 ) ;
#4 = CARTESIAN_POINT ( 'NONE',  ( 17.80000000000000426, 0.000000000000000000, -6.000000000000001776 ) ) ;
#5 = DIRECTION ( 'NONE',  ( 0.000000000000000000, 0.000000000000000000, 1.000000000000000000 ) ) ;
#6 = AXIS2_PLACEMENT_3D ( 'NONE', #916, #287, #1004 ) ;
#7 = LINE ( 'NONE', #1142, #236 ) ;
#8 = LINE ( 'NONE', #940, #644 ) ;
#9 = SURFACE_STYLE_USAGE ( .BOTH. , #632 ) ;
#10 = AXIS2_PLACEMENT_3D ( 'NONE', #23, #619, #322 ) ;
#11 = DIRECTION ( 'NONE',  ( 0.000000000000000000, 0.000000000000000000, 1.000000000000000000 ) ) ;
#12 = ORIENTED_EDGE ( 'NONE', *, *, #453, .F. ) ;
#13 =( LENGTH_UNIT ( ) NAMED_UNIT ( * ) SI_UNIT ( .MILLI., .METRE. ) );
#14 = EDGE_CURVE ( 'NONE', #685, #1217, #304, .T. ) ;
#15 = CARTESIAN_POINT ( 'NONE',  ( 0.000000000000000000, 0.000000000000000000, -4.000000000000000000 ) ) ;
#16 = ORIENTED_EDGE ( 'NONE', *, *, #996, .T. ) ;
#17 = FACE_OUTER_BOUND ( 'NONE', #788, .T. ) ;
#18 = CYLINDRICAL_SURFACE ( 'NONE', #1176, 3.000000000000003109 ) ;
#19 = ADVANCED_FACE ( 'NONE', ( #1223 ), #97, .T. ) ;
#20 = ORIENTED_EDGE ( 'NONE', *, *, #471, .T. ) ;
#21 = DIRECTION ( 'NONE',  ( -1.000000000000000000, 0.000000000000000000, 0.000000000000000000 ) ) ;
#22 = CIRCLE ( 'NONE', #690, 5.500000000000005329 ) ;
#23 = CARTESIAN_POINT ( 'NONE',  ( 9.548528137423877737, 0.000000000000000000, 0.000000000000000000 ) ) ;
#24 = ORIENTED_EDGE ( 'NONE', *, *, #290, .F. ) ;
#25 = CARTESIAN_POINT ( 'NONE',  ( 0.000000000000000000, 3.741657386773943550, -6.500000000000000888 ) ) ;
#26 = VERTEX_POINT ( 'NONE', #1333 ) ;
#27 = CARTESIAN_POINT ( 'NONE',  ( 30.80000000000000071, 3.551475717527333200E-16, -2.800000000000010925 ) ) ;
#28 = DIRECTION ( 'NONE',  ( 0.000000000000000000, 0.000000000000000000, -1.000000000000000000 ) ) ;
#29 = AXIS2_PLACEMENT_3D ( 'NONE', #330, #416, #1245 ) ;
#30 = VECTOR ( 'NONE', #744, 1000.000000000000000 ) ;
#31 = ORIENTED_EDGE ( 'NONE', *, *, #155, .T. ) ;
#32 =( LENGTH_UNIT ( ) NAMED_UNIT ( * ) SI_UNIT ( .MILLI., .METRE. ) );
#33 = ORIENTED_EDGE ( 'NONE', *, *, #489, .F. ) ;
#34 = ADVANCED_FACE ( 'NONE', ( #187 ), #282, .T. ) ;
#35 = CARTESIAN_POINT ( 'NONE',  ( 33.30000000000001137, 0.000000000000000000, 0.000000000000000000 ) ) ;
#36 = DIRECTION ( 'NONE',  ( 0.000000000000000000, 0.000000000000000000, 1.000000000000000000 ) ) ;
#37 = EDGE_CURVE ( 'NONE', #391, #714, #1041, .T. ) ;
#38 = ORIENTED_EDGE ( 'NONE', *, *, #180, .F. ) ;
#39 = PLANE ( 'NONE',  #41 ) ;
#40 = DIRECTION ( 'NONE',  ( 1.000000000000000000, -0.000000000000000000, -0.000000000000000000 ) ) ;
#41 = AXIS2_PLACEMENT_3D ( 'NONE', #255, #1088, #556 ) ;
#42 = DIRECTION ( 'NONE',  ( 0.000000000000000000, 0.000000000000000000, 1.000000000000000000 ) ) ;
#43 = STYLED_ITEM ( 'NONE', ( #721 ), #965 ) ;
#44 = ORIENTED_EDGE ( 'NONE', *, *, #352, .F. ) ;
#45 = CIRCLE ( 'NONE', #555, 6.999999999999999112 ) ;
#46 = CARTESIAN_POINT ( 'NONE',  ( 1.000000000000007772, 0.000000000000000000, 0.000000000000000000 ) ) ;
#47 = EDGE_LOOP ( 'NONE', ( #782, #657, #222, #837 ) ) ;
#48 = CYLINDRICAL_SURFACE ( 'NONE', #1056, 3.000000000000000000 ) ;
#49 = FACE_BOUND ( 'NONE', #786, .T. ) ;
#50 = VERTEX_POINT ( 'NONE', #589 ) ;
#51 = AXIS2_PLACEMENT_3D ( 'NONE', #785, #357, #1098 ) ;
#52 = CARTESIAN_POINT ( 'NONE',  ( 9.300000000000025580, 0.000000000000000000, 0.000000000000000000 ) ) ;
#53 = PLANE ( 'NONE',  #1167 ) ;
#54 = DIRECTION ( 'NONE',  ( -1.000000000000000000, 0.000000000000000000, 0.000000000000000000 ) ) ;
#55 = VERTEX_POINT ( 'NONE', #803 ) ;
#56 = ADVANCED_FACE ( 'NONE', ( #817 ), #296, .T. ) ;
#57 = CARTESIAN_POINT ( 'NONE',  ( 32.76715728752540002, 0.000000000000000000, 0.000000000000000000 ) ) ;
#58 = ORIENTED_EDGE ( 'NONE', *, *, #904, .T. ) ;
#59 = PRODUCT_DEFINITION ( 'UNKNOWN', '', #1100, #952 ) ;
#60 = LINE ( 'NONE', #885, #729 ) ;
#61 = FACE_OUTER_BOUND ( 'NONE', #1166, .T. ) ;
#62 = ORIENTED_EDGE ( 'NONE', *, *, #1318, .T. ) ;
#63 = COLOUR_RGB ( '',0.6470588235294117974, 0.6196078431372549211, 0.5882352941176470784 ) ;
#64 = DIRECTION ( 'NONE',  ( 0.000000000000000000, 0.000000000000000000, -1.000000000000000000 ) ) ;
#65 = VERTEX_POINT ( 'NONE', #81 ) ;
#66 = FACE_OUTER_BOUND ( 'NONE', #724, .T. ) ;
#67 = CARTESIAN_POINT ( 'NONE',  ( 12.31289182655052095, 3.366606665713381741, 6.500000000000000000 ) ) ;
#68 = EDGE_LOOP ( 'NONE', ( #571, #1093, #663, #843 ) ) ;
#69 = STYLED_ITEM ( 'NONE', ( #608 ), #115 ) ;
#70 = FACE_OUTER_BOUND ( 'NONE', #89, .T. ) ;
#71 = AXIS2_PLACEMENT_3D ( 'NONE', #281, #587, #925 ) ;
#72 = VERTEX_POINT ( 'NONE', #912 ) ;
#73 = ADVANCED_FACE ( 'NONE', ( #615 ), #347, .F. ) ;
#74 = DIRECTION ( 'NONE',  ( 0.000000000000000000, 1.000000000000000000, -1.224646799147353207E-16 ) ) ;
#75 = CARTESIAN_POINT ( 'NONE',  ( 16.29999999999999716, 0.000000000000000000, 0.000000000000000000 ) ) ;
#76 = ADVANCED_FACE ( 'NONE', ( #926 ), #958, .T. ) ;
#77 = DIRECTION ( 'NONE',  ( 0.000000000000000000, 1.000000000000000000, -1.065013094915147591E-16 ) ) ;
#78 = ORIENTED_EDGE ( 'NONE', *, *, #352, .T. ) ;
#79 = LINE ( 'NONE', #493, #1322 ) ;
#80 = CYLINDRICAL_SURFACE ( 'NONE', #873, 4.000000000000000000 ) ;
#81 = CARTESIAN_POINT ( 'NONE',  ( 9.124264068711955389, 4.393871019889290233E-16, -3.175735931288065750 ) ) ;
#82 = CIRCLE ( 'NONE', #277, 0.4000000000000001887 ) ;
#83 = EDGE_CURVE ( 'NONE', #943, #765, #496, .T. ) ;
#84 = AXIS2_PLACEMENT_3D ( 'NONE', #85, #1195, #499 ) ;
#85 = CARTESIAN_POINT ( 'NONE',  ( 16.80000000000000071, 0.000000000000000000, 0.000000000000000000 ) ) ;
#86 = AXIS2_PLACEMENT_3D ( 'NONE', #402, #184, #703 ) ;
#87 = VERTEX_POINT ( 'NONE', #405 ) ;
#88 = CARTESIAN_POINT ( 'NONE',  ( 31.20000000000000284, 2.265596578422607538E-16, 1.850000000000003642 ) ) ;
#89 = EDGE_LOOP ( 'NONE', ( #896, #750, #852, #242 ) ) ;
#90 = CARTESIAN_POINT ( 'NONE',  ( 8.300000000000000711, 0.000000000000000000, -4.000000000000000000 ) ) ;
#91 = DIRECTION ( 'NONE',  ( 1.000000000000000000, -0.000000000000000000, -0.000000000000000000 ) ) ;
#92 = SURFACE_STYLE_USAGE ( .BOTH. , #1025 ) ;
#93 = CARTESIAN_POINT ( 'NONE',  ( 40.30000000000000426, 0.000000000000000000, 0.000000000000000000 ) ) ;
#94 = EDGE_CURVE ( 'NONE', #860, #1273, #716, .T. ) ;
#95 = AXIS2_PLACEMENT_3D ( 'NONE', #335, #205, #1159 ) ;
#96 = MECHANICAL_DESIGN_GEOMETRIC_PRESENTATION_REPRESENTATION (  '', ( #506 ), #437 ) ;
#97 = CYLINDRICAL_SURFACE ( 'NONE', #327, 7.500000000000001776 ) ;
#98 = DIRECTION ( 'NONE',  ( -0.000000000000000000, 0.000000000000000000, -1.000000000000000000 ) ) ;
#99 = SURFACE_STYLE_USAGE ( .BOTH. , #1237 ) ;
#100 = DIRECTION ( 'NONE',  ( 1.000000000000000000, -0.000000000000000000, -0.000000000000000000 ) ) ;
#101 = CARTESIAN_POINT ( 'NONE',  ( 0.000000000000000000, 0.000000000000000000, 0.000000000000000000 ) ) ;
#102 = FACE_OUTER_BOUND ( 'NONE', #140, .T. ) ;
#103 = MECHANICAL_DESIGN_GEOMETRIC_PRESENTATION_REPRESENTATION (  '', ( #1083 ), #1017 ) ;
#104 = AXIS2_PLACEMENT_3D ( 'NONE', #1243, #112, #303 ) ;
#105 = CARTESIAN_POINT ( 'NONE',  ( 9.124264068711955389, 0.000000000000000000, 0.000000000000000000 ) ) ;
#106 = B_SPLINE_CURVE_WITH_KNOTS ( 'NONE', 3,
 ( #494, #67, #385, #792 ),
 .UNSPECIFIED., .F., .F.,
 ( 4, 4 ),
 ( 1.545027413700337903E-06, 0.001240642113537716472 ),
 .UNSPECIFIED. ) ;
#107 = AXIS2_PLACEMENT_3D ( 'NONE', #410, #738, #612 ) ;
#108 = CARTESIAN_POINT ( 'NONE',  ( 0.000000000000000000, 0.000000000000000000, -1.850000000000003642 ) ) ;
#109 = CIRCLE ( 'NONE', #710, 3.175735931288065750 ) ;
#110 = ADVANCED_FACE ( 'NONE', ( #1137 ), #903, .T. ) ;
#111 = ORIENTED_EDGE ( 'NONE', *, *, #627, .T. ) ;
#112 = DIRECTION ( 'NONE',  ( -1.000000000000000000, 0.000000000000000000, 0.000000000000000000 ) ) ;
#113 = DIRECTION ( 'NONE',  ( 1.000000000000000000, -0.000000000000000000, -0.000000000000000000 ) ) ;
#114 = CIRCLE ( 'NONE', #1089, 1.850000000000003642 ) ;
#115 = ADVANCED_FACE ( 'NONE', ( #514 ), #194, .T. ) ;
#116 = COLOUR_RGB ( '',0.6470588235294117974, 0.6196078431372549211, 0.5882352941176470784 ) ;
#117 = DIRECTION ( 'NONE',  ( 1.000000000000000000, -0.000000000000000000, -0.000000000000000000 ) ) ;
#118 = EDGE_CURVE ( 'NONE', #373, #574, #565, .T. ) ;
#119 = EDGE_LOOP ( 'NONE', ( #122, #326, #779, #876 ) ) ;
#120 = DIRECTION ( 'NONE',  ( 0.000000000000000000, 0.000000000000000000, -1.000000000000000000 ) ) ;
#121 = FACE_OUTER_BOUND ( 'NONE', #600, .T. ) ;
#122 = ORIENTED_EDGE ( 'NONE', *, *, #211, .F. ) ;
#123 = CARTESIAN_POINT ( 'NONE',  ( 12.00000000000000000, 0.000000000000000000, 3.600000000000000089 ) ) ;
#124 = CARTESIAN_POINT ( 'NONE',  ( 12.50000000000000355, 0.000000000000000000, 0.000000000000000000 ) ) ;
#125 = VERTEX_POINT ( 'NONE', #1241 ) ;
#126 = CARTESIAN_POINT ( 'NONE',  ( 18.30000000000000071, 0.000000000000000000, 0.000000000000000000 ) ) ;
#127 = ORIENTED_EDGE ( 'NONE', *, *, #748, .T. ) ;
#128 = EDGE_CURVE ( 'NONE', #26, #1011, #734, .T. ) ;
#129 = CARTESIAN_POINT ( 'NONE',  ( 12.00000000000000000, 3.000000000000000000, 0.000000000000000000 ) ) ;
#130 = AXIS2_PLACEMENT_3D ( 'NONE', #1327, #504, #291 ) ;
#131 = CARTESIAN_POINT ( 'NONE',  ( 16.80000000000000071, 2.598076211353314235, -6.500000000000000000 ) ) ;
#132 = CIRCLE ( 'NONE', #920, 7.500000000000001776 ) ;
#133 = ORIENTED_EDGE ( 'NONE', *, *, #481, .T. ) ;
#134 = DIRECTION ( 'NONE',  ( 0.000000000000000000, 0.000000000000000000, -1.000000000000000000 ) ) ;
#135 = DIRECTION ( 'NONE',  ( 0.7071067811865463515, 0.000000000000000000, -0.7071067811865487940 ) ) ;
#136 = EDGE_CURVE ( 'NONE', #735, #391, #712, .T. ) ;
#137 = DIRECTION ( 'NONE',  ( 1.000000000000000000, -0.000000000000000000, -0.000000000000000000 ) ) ;
#138 = EDGE_LOOP ( 'NONE', ( #1115, #773, #158, #341 ) ) ;
#139 = DIRECTION ( 'NONE',  ( 0.000000000000000000, 0.000000000000000000, -1.000000000000000000 ) ) ;
#140 = EDGE_LOOP ( 'NONE', ( #1059, #695, #620, #950 ) ) ;
#141 = ORIENTED_EDGE ( 'NONE', *, *, #295, .T. ) ;
#142 = DIRECTION ( 'NONE',  ( 0.000000000000000000, 0.000000000000000000, -1.000000000000000000 ) ) ;
#143 = AXIS2_PLACEMENT_3D ( 'NONE', #789, #1215, #1320 ) ;
#144 = FACE_OUTER_BOUND ( 'NONE', #68, .T. ) ;
#145 = AXIS2_PLACEMENT_3D ( 'NONE', #228, #1185, #457 ) ;
#146 = ORIENTED_EDGE ( 'NONE', *, *, #1216, .F. ) ;
#147 = EDGE_CURVE ( 'NONE', #592, #1192, #230, .T. ) ;
#148 = VECTOR ( 'NONE', #284, 1000.000000000000000 ) ;
#149 = DIRECTION ( 'NONE',  ( -0.000000000000000000, -1.000000000000000000, -0.000000000000000000 ) ) ;
#150 = CARTESIAN_POINT ( 'NONE',  ( 12.14472730107585541, -2.988015160451065189, 6.500000000000000888 ) ) ;
#151 = CARTESIAN_POINT ( 'NONE',  ( 0.000000000000000000, 0.000000000000000000, 0.000000000000000000 ) ) ;
#152 = ADVANCED_FACE ( 'NONE', ( #1047 ), #830, .F. ) ;
#153 = ORIENTED_EDGE ( 'NONE', *, *, #694, .T. ) ;
#154 = CIRCLE ( 'NONE', #590, 0.5999999999999998668 ) ;
#155 = EDGE_CURVE ( 'NONE', #444, #206, #1240, .T. ) ;
#156 =( GEOMETRIC_REPRESENTATION_CONTEXT ( 3 ) GLOBAL_UNCERTAINTY_ASSIGNED_CONTEXT ( ( #818 ) ) GLOBAL_UNIT_ASSIGNED_CONTEXT ( ( #1131, #1232, #1000 ) ) REPRESENTATION_CONTEXT ( 'NONE', 'WORKASPACE' ) );
#157 = LINE ( 'NONE', #25, #423 ) ;
#158 = ORIENTED_EDGE ( 'NONE', *, *, #794, .T. ) ;
#159 = CARTESIAN_POINT ( 'NONE',  ( 30.80000000000000071, 0.000000000000000000, -2.250000000000003553 ) ) ;
#160 = ORIENTED_EDGE ( 'NONE', *, *, #497, .F. ) ;
#161 = FACE_OUTER_BOUND ( 'NONE', #479, .T. ) ;
#162 = ORIENTED_EDGE ( 'NONE', *, *, #489, .T. ) ;
#163 = DIRECTION ( 'NONE',  ( 1.000000000000000000, -0.000000000000000000, -0.000000000000000000 ) ) ;
#164 = DIRECTION ( 'NONE',  ( -0.7071067811865474617, 8.659560562354932858E-17, -0.7071067811865474617 ) ) ;
#165 = COLOUR_RGB ( '',0.6470588235294117974, 0.6196078431372549211, 0.5882352941176470784 ) ;
#166 = ORIENTED_EDGE ( 'NONE', *, *, #923, .F. ) ;
#167 = CIRCLE ( 'NONE', #932, 1.967157287525385989 ) ;
#168 = DIRECTION ( 'NONE',  ( 1.000000000000000000, -0.000000000000000000, -0.000000000000000000 ) ) ;
#169 = ORIENTED_EDGE ( 'NONE', *, *, #118, .T. ) ;
#170 = CARTESIAN_POINT ( 'NONE',  ( 30.80000000000000071, 0.000000000000000000, 2.800000000000010925 ) ) ;
#171 = ADVANCED_FACE ( 'NONE', ( #1261 ), #1148, .T. ) ;
#172 = CARTESIAN_POINT ( 'NONE',  ( 9.300000000000025580, 0.000000000000000000, 0.000000000000000000 ) ) ;
#173 = EDGE_LOOP ( 'NONE', ( #16, #536, #334, #332 ) ) ;
#174 = DIRECTION ( 'NONE',  ( 0.000000000000000000, 0.000000000000000000, -1.000000000000000000 ) ) ;
#175 = DIRECTION ( 'NONE',  ( 0.000000000000000000, 1.224646799147353207E-16, 1.000000000000000000 ) ) ;
#176 = ORIENTED_EDGE ( 'NONE', *, *, #310, .F. ) ;
#177 = DIRECTION ( 'NONE',  ( 1.000000000000000000, -0.000000000000000000, -0.000000000000000000 ) ) ;
#178 = CARTESIAN_POINT ( 'NONE',  ( 16.80000000000000071, 0.000000000000000000, 0.000000000000000000 ) ) ;
#179 = ORIENTED_EDGE ( 'NONE', *, *, #535, .F. ) ;
#180 = EDGE_CURVE ( 'NONE', #637, #542, #397, .T. ) ;
#181 = DIRECTION ( 'NONE',  ( 0.000000000000000000, 0.000000000000000000, -1.000000000000000000 ) ) ;
#182 = DIRECTION ( 'NONE',  ( 1.000000000000000000, -0.000000000000000000, -0.000000000000000000 ) ) ;
#183 = ORIENTED_EDGE ( 'NONE', *, *, #678, .T. ) ;
#184 = DIRECTION ( 'NONE',  ( -1.000000000000000000, 0.000000000000000000, 0.000000000000000000 ) ) ;
#185 = DIRECTION ( 'NONE',  ( 1.000000000000000000, -0.000000000000000000, -0.000000000000000000 ) ) ;
#186 = ADVANCED_FACE ( 'NONE', ( #121 ), #18, .T. ) ;
#187 = FACE_OUTER_BOUND ( 'NONE', #580, .T. ) ;
#188 = PRESENTATION_LAYER_ASSIGNMENT (  '', '', ( #1083 ) ) ;
#189 = EDGE_CURVE ( 'NONE', #500, #820, #114, .T. ) ;
#190 = FACE_OUTER_BOUND ( 'NONE', #350, .T. ) ;
#191 = CIRCLE ( 'NONE', #107, 6.000000000000001776 ) ;
#192 = CARTESIAN_POINT ( 'NONE',  ( 40.30000000000000426, 0.000000000000000000, 1.899999999999999023 ) ) ;
#193 = CARTESIAN_POINT ( 'NONE',  ( 16.48710817344948154, -3.366606665713385738, 6.500000000000000888 ) ) ;
#194 = CYLINDRICAL_SURFACE ( 'NONE', #737, 2.500000000000004441 ) ;
#195 = EDGE_CURVE ( 'NONE', #890, #72, #283, .T. ) ;
#196 = EDGE_CURVE ( 'NONE', #391, #55, #219, .T. ) ;
#197 = DIRECTION ( 'NONE',  ( 0.000000000000000000, 0.000000000000000000, -1.000000000000000000 ) ) ;
#198 = AXIS2_PLACEMENT_3D ( 'NONE', #472, #887, #36 ) ;
#199 = CARTESIAN_POINT ( 'NONE',  ( 16.29999999999999716, 3.741657386773943550, 6.500000000000000000 ) ) ;
#200 = DIRECTION ( 'NONE',  ( -1.000000000000000000, 0.000000000000000000, 0.000000000000000000 ) ) ;
#201 = LINE ( 'NONE', #616, #364 ) ;
#202 = UNCERTAINTY_MEASURE_WITH_UNIT (LENGTH_MEASURE( 1.000000000000000082E-05 ), #518, 'distance_accuracy_value', 'NONE');
#203 = FACE_OUTER_BOUND ( 'NONE', #474, .T. ) ;
#204 = CARTESIAN_POINT ( 'NONE',  ( 0.000000000000000000, -3.741657386773941774, 6.500000000000000888 ) ) ;
#205 = DIRECTION ( 'NONE',  ( 1.000000000000000000, -0.000000000000000000, -0.000000000000000000 ) ) ;
#206 = VERTEX_POINT ( 'NONE', #1165 ) ;
#207 = CARTESIAN_POINT ( 'NONE',  ( 18.30000000000000071, 0.000000000000000000, 0.000000000000000000 ) ) ;
#208 = CONICAL_SURFACE ( 'NONE', #86, 1.899999999999999023, 0.7853981633974442822 ) ;
#209 = DIRECTION ( 'NONE',  ( 1.000000000000000000, -0.000000000000000000, -0.000000000000000000 ) ) ;
#210 = CIRCLE ( 'NONE', #143, 2.999999999999988898 ) ;
#211 = EDGE_CURVE ( 'NONE', #65, #466, #640, .T. ) ;
#212 = CARTESIAN_POINT ( 'NONE',  ( 0.000000000000000000, 0.000000000000000000, -6.000000000000001776 ) ) ;
#213 = B_SPLINE_CURVE_WITH_KNOTS ( 'NONE', 3,
 ( #346, #150, #1287, #861 ),
 .UNSPECIFIED., .F., .F.,
 ( 4, 4 ),
 ( 0.006503922416289765335, 0.007730315640285997589 ),
 .UNSPECIFIED. ) ;
#214 = ORIENTED_EDGE ( 'NONE', *, *, #1158, .T. ) ;
#215 = CARTESIAN_POINT ( 'NONE',  ( 0.000000000000000000, 0.000000000000000000, 0.000000000000000000 ) ) ;
#216 = CIRCLE ( 'NONE', #629, 2.500000000000004441 ) ;
#217 = LINE ( 'NONE', #108, #1221 ) ;
#218 = CIRCLE ( 'NONE', #983, 3.000000000000002220 ) ;
#219 = LINE ( 'NONE', #429, #505 ) ;
#220 = EDGE_LOOP ( 'NONE', ( #907, #960, #648, #1312 ) ) ;
#221 = DIRECTION ( 'NONE',  ( 1.000000000000000000, -0.000000000000000000, -0.000000000000000000 ) ) ;
#222 = ORIENTED_EDGE ( 'NONE', *, *, #746, .F. ) ;
#223 = CARTESIAN_POINT ( 'NONE',  ( 0.000000000000000000, 0.000000000000000000, 0.000000000000000000 ) ) ;
#224 = EDGE_CURVE ( 'NONE', #680, #651, #306, .T. ) ;
#225 = VERTEX_POINT ( 'NONE', #131 ) ;
#226 = ORIENTED_EDGE ( 'NONE', *, *, #694, .F. ) ;
#227 = DIRECTION ( 'NONE',  ( 1.000000000000000000, -0.000000000000000000, -0.000000000000000000 ) ) ;
#228 = CARTESIAN_POINT ( 'NONE',  ( 9.548528137423877737, 0.000000000000000000, -3.600000000000000089 ) ) ;
#229 = AXIS2_PLACEMENT_3D ( 'NONE', #1199, #1111, #265 ) ;
#230 = LINE ( 'NONE', #438, #349 ) ;
#231 = ORIENTED_EDGE ( 'NONE', *, *, #433, .F. ) ;
#232 = FACE_OUTER_BOUND ( 'NONE', #702, .T. ) ;
#233 = EDGE_CURVE ( 'NONE', #225, #735, #7, .T. ) ;
#234 = CARTESIAN_POINT ( 'NONE',  ( 18.30000000000000071, 0.000000000000000000, 5.500000000000005329 ) ) ;
#235 = CARTESIAN_POINT ( 'NONE',  ( 16.29999999999999716, -3.741657386773945770, -6.499999999999999112 ) ) ;
#236 = VECTOR ( 'NONE', #1036, 1000.000000000000000 ) ;
#237 = AXIS2_PLACEMENT_3D ( 'NONE', #502, #579, #404 ) ;
#238 = ORIENTED_EDGE ( 'NONE', *, *, #37, .F. ) ;
#239 = ORIENTED_EDGE ( 'NONE', *, *, #1179, .F. ) ;
#240 = CYLINDRICAL_SURFACE ( 'NONE', #1248, 4.000000000000000000 ) ;
#241 = ORIENTED_EDGE ( 'NONE', *, *, #816, .T. ) ;
#242 = ORIENTED_EDGE ( 'NONE', *, *, #613, .F. ) ;
#243 = CARTESIAN_POINT ( 'NONE',  ( 12.00000000000000000, 0.000000000000000000, 0.000000000000000000 ) ) ;
#244 = EDGE_CURVE ( 'NONE', #798, #125, #700, .T. ) ;
#245 = CARTESIAN_POINT ( 'NONE',  ( 17.80000000000000426, 7.347880794884121708E-16, 6.000000000000001776 ) ) ;
#246 = ORIENTED_EDGE ( 'NONE', *, *, #814, .T. ) ;
#247 = FILL_AREA_STYLE_COLOUR ( '', #1319 ) ;
#248 = EDGE_CURVE ( 'NONE', #1173, #463, #1262, .T. ) ;
#249 = CARTESIAN_POINT ( 'NONE',  ( 16.80000000000000071, -2.598076211353316012, -6.500000000000000000 ) ) ;
#250 = CONICAL_SURFACE ( 'NONE', #665, 7.500000000000001776, 0.7853981633974533860 ) ;
#251 = CARTESIAN_POINT ( 'NONE',  ( 16.65527269892414353, 2.988015160451080732, 6.500000000000000888 ) ) ;
#252 = EDGE_CURVE ( 'NONE', #1173, #637, #154, .T. ) ;
#253 = AXIS2_PLACEMENT_3D ( 'NONE', #464, #1292, #1190 ) ;
#254 = ORIENTED_EDGE ( 'NONE', *, *, #904, .F. ) ;
#255 = CARTESIAN_POINT ( 'NONE',  ( 40.30000000000000426, 7.539491415784396189, -6.500000000000000888 ) ) ;
#256 = ORIENTED_EDGE ( 'NONE', *, *, #393, .T. ) ;
#257 = DIRECTION ( 'NONE',  ( 0.000000000000000000, 0.000000000000000000, -1.000000000000000000 ) ) ;
#258 = FACE_OUTER_BOUND ( 'NONE', #138, .T. ) ;
#259 = AXIS2_PLACEMENT_3D ( 'NONE', #1023, #91, #174 ) ;
#260 = ORIENTED_EDGE ( 'NONE', *, *, #796, .F. ) ;
#261 = AXIS2_PLACEMENT_3D ( 'NONE', #970, #670, #1086 ) ;
#262 = AXIS2_PLACEMENT_3D ( 'NONE', #919, #74, #487 ) ;
#263 = CARTESIAN_POINT ( 'NONE',  ( 12.00000000000000000, 2.598076211353294696, -6.500000000000000000 ) ) ;
#264 = EDGE_LOOP ( 'NONE', ( #957, #323 ) ) ;
#265 = DIRECTION ( 'NONE',  ( -0.000000000000000000, 0.000000000000000000, -1.000000000000000000 ) ) ;
#266 = CARTESIAN_POINT ( 'NONE',  ( 18.30000000000000071, 6.735557395310448926E-16, -5.500000000000005329 ) ) ;
#267 = ORIENTED_EDGE ( 'NONE', *, *, #37, .T. ) ;
#268 = ORIENTED_EDGE ( 'NONE', *, *, #917, .F. ) ;
#269 = LINE ( 'NONE', #686, #148 ) ;
#270 = EDGE_CURVE ( 'NONE', #50, #596, #358, .T. ) ;
#271 = ORIENTED_EDGE ( 'NONE', *, *, #248, .T. ) ;
#272 = DIRECTION ( 'NONE',  ( -0.7071067811865530128, 8.659560562354868763E-17, -0.7071067811865421326 ) ) ;
#273 = CONICAL_SURFACE ( 'NONE', #446, 3.000000000000000000, 0.7853981633974357335 ) ;
#274 = AXIS2_PLACEMENT_3D ( 'NONE', #939, #1236, #718 ) ;
#275 = CARTESIAN_POINT ( 'NONE',  ( 18.30000000000000071, 0.000000000000000000, 0.000000000000000000 ) ) ;
#276 = VECTOR ( 'NONE', #1027, 1000.000000000000000 ) ;
#277 = AXIS2_PLACEMENT_3D ( 'NONE', #804, #368, #1306 ) ;
#278 = CARTESIAN_POINT ( 'NONE',  ( 30.80000000000000071, 2.755455298081549215E-16, 2.250000000000003553 ) ) ;
#279 = ORIENTED_EDGE ( 'NONE', *, *, #561, .T. ) ;
#280 = FACE_OUTER_BOUND ( 'NONE', #220, .T. ) ;
#281 = CARTESIAN_POINT ( 'NONE',  ( 32.48431457505078157, 2.755455298081549215E-16, 2.250000000000003553 ) ) ;
#282 = CONICAL_SURFACE ( 'NONE', #1260, 5.500000000000005329, 0.7853981633974482790 ) ;
#283 = CIRCLE ( 'NONE', #10, 3.000000000000000000 ) ;
#284 = DIRECTION ( 'NONE',  ( 0.7071067811865424657, 0.000000000000000000, -0.7071067811865526798 ) ) ;
#285 = PRESENTATION_LAYER_ASSIGNMENT (  '', '', ( #307 ) ) ;
#286 = EDGE_LOOP ( 'NONE', ( #1066, #214 ) ) ;
#287 = DIRECTION ( 'NONE',  ( 0.000000000000000000, -1.000000000000000000, 0.000000000000000000 ) ) ;
#288 = ORIENTED_EDGE ( 'NONE', *, *, #418, .F. ) ;
#289 = CARTESIAN_POINT ( 'NONE',  ( 16.65599130333231415, 2.986079023691412981, -6.500000000000000000 ) ) ;
#290 = EDGE_CURVE ( 'NONE', #596, #394, #1044, .T. ) ;
#291 = DIRECTION ( 'NONE',  ( 0.000000000000000000, 0.000000000000000000, -1.000000000000000000 ) ) ;
#292 = DIRECTION ( 'NONE',  ( 0.000000000000000000, 0.000000000000000000, 1.000000000000000000 ) ) ;
#293 = PRODUCT_DEFINITION_SHAPE ( 'NONE', 'NONE',  #59 ) ;
#294 = CARTESIAN_POINT ( 'NONE',  ( 0.000000000000000000, 0.000000000000000000, 0.000000000000000000 ) ) ;
#295 = EDGE_CURVE ( 'NONE', #542, #637, #937, .T. ) ;
#296 = CYLINDRICAL_SURFACE ( 'NONE', #853, 6.000000000000001776 ) ;
#297 = ADVANCED_FACE ( 'NONE', ( #144 ), #784, .F. ) ;
#298 = AXIS2_PLACEMENT_3D ( 'NONE', #377, #781, #475 ) ;
#299 = PRESENTATION_STYLE_ASSIGNMENT (( #92 ) ) ;
#300 = VECTOR ( 'NONE', #1012, 1000.000000000000114 ) ;
#301 = DIRECTION ( 'NONE',  ( 1.000000000000000000, -0.000000000000000000, -0.000000000000000000 ) ) ;
#302 = DIRECTION ( 'NONE',  ( -1.000000000000000000, 0.000000000000000000, 0.000000000000000000 ) ) ;
#303 = DIRECTION ( 'NONE',  ( 0.000000000000000000, 0.000000000000000000, -1.000000000000000000 ) ) ;
#304 = CIRCLE ( 'NONE', #1238, 2.250000000000003553 ) ;
#305 = FACE_OUTER_BOUND ( 'NONE', #881, .T. ) ;
#306 = CIRCLE ( 'NONE', #809, 7.500000000000001776 ) ;
#307 = STYLED_ITEM ( 'NONE', ( #822 ), #513 ) ;
#308 = CARTESIAN_POINT ( 'NONE',  ( 40.30000000000000426, 0.000000000000000000, 0.000000000000000000 ) ) ;
#309 = DIRECTION ( 'NONE',  ( -0.000000000000000000, 1.000000000000000000, -1.597519642372721571E-16 ) ) ;
#310 = EDGE_CURVE ( 'NONE', #444, #1011, #1191, .T. ) ;
#311 = EDGE_LOOP ( 'NONE', ( #1062, #1160, #1001, #1201 ) ) ;
#312 = DIRECTION ( 'NONE',  ( 0.000000000000000000, 0.000000000000000000, -1.000000000000000000 ) ) ;
#313 = EDGE_CURVE ( 'NONE', #463, #1173, #435, .T. ) ;
#314 = DIRECTION ( 'NONE',  ( 0.000000000000000000, 0.000000000000000000, -1.000000000000000000 ) ) ;
#315 = ORIENTED_EDGE ( 'NONE', *, *, #313, .F. ) ;
#316 = AXIS2_PLACEMENT_3D ( 'NONE', #576, #168, #64 ) ;
#317 = AXIS2_PLACEMENT_3D ( 'NONE', #490, #693, #175 ) ;
#318 = CARTESIAN_POINT ( 'NONE',  ( 16.80000000000000071, 0.000000000000000000, 0.000000000000000000 ) ) ;
#319 = PRODUCT_RELATED_PRODUCT_CATEGORY ( 'part', '', ( #503 ) ) ;
#320 = DIRECTION ( 'NONE',  ( 0.000000000000000000, 0.000000000000000000, -1.000000000000000000 ) ) ;
#321 = CIRCLE ( 'NONE', #1149, 3.000000000000002220 ) ;
#322 = DIRECTION ( 'NONE',  ( 0.000000000000000000, 0.000000000000000000, -1.000000000000000000 ) ) ;
#323 = ORIENTED_EDGE ( 'NONE', *, *, #525, .T. ) ;
#324 = FILL_AREA_STYLE_COLOUR ( '', #165 ) ;
#325 = FILL_AREA_STYLE_COLOUR ( '', #63 ) ;
#326 = ORIENTED_EDGE ( 'NONE', *, *, #871, .T. ) ;
#327 = AXIS2_PLACEMENT_3D ( 'NONE', #715, #824, #181 ) ;
#328 = VECTOR ( 'NONE', #991, 1000.000000000000000 ) ;
#329 = CARTESIAN_POINT ( 'NONE',  ( 12.00000000000000000, -2.598076211353296472, -6.500000000000000000 ) ) ;
#330 = CARTESIAN_POINT ( 'NONE',  ( 18.30000000000000071, 0.000000000000000000, 0.000000000000000000 ) ) ;
#331 = ADVANCED_FACE ( 'NONE', ( #684 ), #977, .T. ) ;
#332 = ORIENTED_EDGE ( 'NONE', *, *, #999, .F. ) ;
#333 = PRESENTATION_STYLE_ASSIGNMENT (( #440 ) ) ;
#334 = ORIENTED_EDGE ( 'NONE', *, *, #497, .T. ) ;
#335 = CARTESIAN_POINT ( 'NONE',  ( 12.00000000000000000, 0.000000000000000000, 0.000000000000000000 ) ) ;
#336 = VERTEX_POINT ( 'NONE', #245 ) ;
#337 = PRODUCT_CONTEXT ( 'NONE', #1030, 'mechanical' ) ;
#338 = CARTESIAN_POINT ( 'NONE',  ( 0.000000000000000000, 0.000000000000000000, 0.000000000000000000 ) ) ;
#339 = AXIS2_PLACEMENT_3D ( 'NONE', #1067, #470, #990 ) ;
#340 = DIRECTION ( 'NONE',  ( 0.000000000000000000, 0.000000000000000000, -1.000000000000000000 ) ) ;
#341 = ORIENTED_EDGE ( 'NONE', *, *, #1321, .F. ) ;
#342 = CARTESIAN_POINT ( 'NONE',  ( 0.000000000000000000, 0.000000000000000000, 0.000000000000000000 ) ) ;
#343 =( NAMED_UNIT ( * ) PLANE_ANGLE_UNIT ( ) SI_UNIT ( $, .RADIAN. ) );
#344 = EDGE_LOOP ( 'NONE', ( #954, #762, #1163, #687 ) ) ;
#345 = ORIENTED_EDGE ( 'NONE', *, *, #471, .F. ) ;
#346 = CARTESIAN_POINT ( 'NONE',  ( 12.00000000000000000, -2.598076211353292031, 6.500000000000000888 ) ) ;
#347 = TOROIDAL_SURFACE ( 'NONE', #259, 3.600000000000000089, 0.5999999999999999778 ) ;
#348 = DIRECTION ( 'NONE',  ( -1.000000000000000000, 0.000000000000000000, 0.000000000000000000 ) ) ;
#349 = VECTOR ( 'NONE', #309, 1000.000000000000000 ) ;
#350 = EDGE_LOOP ( 'NONE', ( #133, #62, #1, #549, #1286, #1018, #1096, #246 ) ) ;
#351 =( LENGTH_UNIT ( ) NAMED_UNIT ( * ) SI_UNIT ( .MILLI., .METRE. ) );
#352 = EDGE_CURVE ( 'NONE', #531, #1263, #216, .T. ) ;
#353 = SURFACE_STYLE_FILL_AREA ( #1177 ) ;
#354 = ORIENTED_EDGE ( 'NONE', *, *, #270, .F. ) ;
#355 = EDGE_CURVE ( 'NONE', #1058, #55, #132, .T. ) ;
#356 = DIRECTION ( 'NONE',  ( -1.000000000000000000, 0.000000000000000000, 0.000000000000000000 ) ) ;
#357 = DIRECTION ( 'NONE',  ( 1.000000000000000000, 0.000000000000000000, -0.000000000000000000 ) ) ;
#358 = B_SPLINE_CURVE_WITH_KNOTS ( 'NONE', 3,
 ( #1186, #251, #566, #754 ),
 .UNSPECIFIED., .F., .F.,
 ( 4, 4 ),
 ( 0.006503922416289785284, 0.007730315640285999323 ),
 .UNSPECIFIED. ) ;
#359 = ORIENTED_EDGE ( 'NONE', *, *, #1053, .F. ) ;
#360 = DIRECTION ( 'NONE',  ( 1.000000000000000000, -0.000000000000000000, -0.000000000000000000 ) ) ;
#361 = EDGE_LOOP ( 'NONE', ( #254, #1054, #492, #271 ) ) ;
#362 = CARTESIAN_POINT ( 'NONE',  ( 12.00000000000000000, -2.598076211353292031, 6.500000000000000888 ) ) ;
#363 = AXIS2_PLACEMENT_3D ( 'NONE', #46, #227, #134 ) ;
#364 = VECTOR ( 'NONE', #1029, 1000.000000000000000 ) ;
#365 = DIRECTION ( 'NONE',  ( 1.000000000000000000, -0.000000000000000000, -0.000000000000000000 ) ) ;
#366 = AXIS2_PLACEMENT_3D ( 'NONE', #1218, #177, #900 ) ;
#367 = VERTEX_POINT ( 'NONE', #1280 ) ;
#368 = DIRECTION ( 'NONE',  ( -0.000000000000000000, -1.000000000000000000, -0.000000000000000000 ) ) ;
#369 = VERTEX_POINT ( 'NONE', #662 ) ;
#370 = DIRECTION ( 'NONE',  ( 0.000000000000000000, 0.000000000000000000, -1.000000000000000000 ) ) ;
#371 = CARTESIAN_POINT ( 'NONE',  ( 16.29999999999999716, 0.000000000000000000, 0.000000000000000000 ) ) ;
#372 = VERTEX_POINT ( 'NONE', #880 ) ;
#373 = VERTEX_POINT ( 'NONE', #1076 ) ;
#374 = ADVANCED_FACE ( 'NONE', ( #258 ), #1136, .T. ) ;
#375 = CIRCLE ( 'NONE', #71, 0.4000000000000001887 ) ;
#376 = CIRCLE ( 'NONE', #865, 6.999999999999992006 ) ;
#377 = CARTESIAN_POINT ( 'NONE',  ( 30.80000000000000071, 0.000000000000000000, 0.000000000000000000 ) ) ;
#378 = ORIENTED_EDGE ( 'NONE', *, *, #1158, .F. ) ;
#379 = CARTESIAN_POINT ( 'NONE',  ( 0.000000000000000000, 3.673940397442059868E-16, 3.000000000000000000 ) ) ;
#380 = CARTESIAN_POINT ( 'NONE',  ( 1.000000000000007772, 0.000000000000000000, 0.000000000000000000 ) ) ;
#381 = ORIENTED_EDGE ( 'NONE', *, *, #136, .T. ) ;
#382 = DIRECTION ( 'NONE',  ( 0.000000000000000000, 0.000000000000000000, -1.000000000000000000 ) ) ;
#383 = ORIENTED_EDGE ( 'NONE', *, *, #652, .F. ) ;
#384 = CARTESIAN_POINT ( 'NONE',  ( 33.30000000000001137, 3.061616997868387579E-16, 2.500000000000003997 ) ) ;
#385 = CARTESIAN_POINT ( 'NONE',  ( 12.14400869666768656, 2.986079023691399659, 6.500000000000000888 ) ) ;
#386 = CIRCLE ( 'NONE', #389, 6.999999999999999112 ) ;
#387 = SURFACE_STYLE_USAGE ( .BOTH. , #793 ) ;
#388 = AXIS2_PLACEMENT_3D ( 'NONE', #984, #1085, #370 ) ;
#389 = AXIS2_PLACEMENT_3D ( 'NONE', #318, #510, #638 ) ;
#390 = CARTESIAN_POINT ( 'NONE',  ( 33.30000000000001137, 0.000000000000000000, -2.500000000000003997 ) ) ;
#391 = VERTEX_POINT ( 'NONE', #235 ) ;
#392 = CARTESIAN_POINT ( 'NONE',  ( 0.000000000000000000, 3.673940397442063319E-16, 3.000000000000003109 ) ) ;
#393 = EDGE_CURVE ( 'NONE', #1257, #798, #1294, .T. ) ;
#394 = VERTEX_POINT ( 'NONE', #777 ) ;
#395 = CARTESIAN_POINT ( 'NONE',  ( 32.48431457505078157, 0.000000000000000000, 0.000000000000000000 ) ) ;
#396 =( LENGTH_UNIT ( ) NAMED_UNIT ( * ) SI_UNIT ( .MILLI., .METRE. ) );
#397 = CIRCLE ( 'NONE', #95, 3.600000000000000089 ) ;
#398 = CARTESIAN_POINT ( 'NONE',  ( 1.000000000000007772, 0.000000000000000000, 0.000000000000000000 ) ) ;
#399 = ADVANCED_FACE ( 'NONE', ( #677, #49 ), #1272, .T. ) ;
#400 = AXIS2_PLACEMENT_3D ( 'NONE', #1266, #100, #1239 ) ;
#401 = ORIENTED_EDGE ( 'NONE', *, *, #189, .F. ) ;
#402 = CARTESIAN_POINT ( 'NONE',  ( 40.30000000000000426, 0.000000000000000000, 0.000000000000000000 ) ) ;
#403 = ADVANCED_FACE ( 'NONE', ( #61 ), #1196, .T. ) ;
#404 = DIRECTION ( 'NONE',  ( 0.000000000000000000, 0.000000000000000000, -1.000000000000000000 ) ) ;
#405 = CARTESIAN_POINT ( 'NONE',  ( 40.30000000000000426, 2.694222958124178486E-16, -1.899999999999999023 ) ) ;
#406 = SURFACE_STYLE_FILL_AREA ( #419 ) ;
#407 = CARTESIAN_POINT ( 'NONE',  ( 16.48710817344948154, 3.366606665713388402, -6.500000000000000000 ) ) ;
#408 = DIRECTION ( 'NONE',  ( 0.000000000000000000, 0.000000000000000000, -1.000000000000000000 ) ) ;
#409 = DIRECTION ( 'NONE',  ( 1.000000000000000000, -0.000000000000000000, -0.000000000000000000 ) ) ;
#410 = CARTESIAN_POINT ( 'NONE',  ( 17.80000000000000426, 0.000000000000000000, 0.000000000000000000 ) ) ;
#411 = ORIENTED_EDGE ( 'NONE', *, *, #1074, .F. ) ;
#412 = CARTESIAN_POINT ( 'NONE',  ( 16.65527269892414353, -2.988015160451082508, -6.499999999999999112 ) ) ;
#413 = EDGE_CURVE ( 'NONE', #856, #367, #543, .T. ) ;
#414 = CYLINDRICAL_SURFACE ( 'NONE', #864, 7.500000000000001776 ) ;
#415 = CARTESIAN_POINT ( 'NONE',  ( 0.000000000000000000, 4.286263797015729199E-16, 2.999999999999988898 ) ) ;
#416 = DIRECTION ( 'NONE',  ( 1.000000000000000000, -0.000000000000000000, -0.000000000000000000 ) ) ;
#417 = ORIENTED_EDGE ( 'NONE', *, *, #1275, .T. ) ;
#418 = EDGE_CURVE ( 'NONE', #714, #1045, #1127, .T. ) ;
#419 = FILL_AREA_STYLE ('',( #325 ) ) ;
#420 = LINE ( 'NONE', #1153, #1090 ) ;
#421 = CARTESIAN_POINT ( 'NONE',  ( 16.48627375673498463, -3.368279220068808311, -6.499999999999999112 ) ) ;
#422 = ORIENTED_EDGE ( 'NONE', *, *, #633, .F. ) ;
#423 = VECTOR ( 'NONE', #431, 1000.000000000000000 ) ;
#424 = PRESENTATION_LAYER_ASSIGNMENT (  '', '', ( #994 ) ) ;
#425 = DIRECTION ( 'NONE',  ( 0.000000000000000000, 0.000000000000000000, 1.000000000000000000 ) ) ;
#426 = CIRCLE ( 'NONE', #622, 1.899999999999999023 ) ;
#427 = EDGE_CURVE ( 'NONE', #1182, #367, #375, .T. ) ;
#428 = CARTESIAN_POINT ( 'NONE',  ( 39.69999999999999574, 3.061616997868388072E-16, 2.500000000000004441 ) ) ;
#429 = CARTESIAN_POINT ( 'NONE',  ( 0.000000000000000000, -3.741657386773945326, -6.499999999999999112 ) ) ;
#430 = ORIENTED_EDGE ( 'NONE', *, *, #427, .F. ) ;
#431 = DIRECTION ( 'NONE',  ( 1.000000000000000000, -0.000000000000000000, -0.000000000000000000 ) ) ;
#432 = ORIENTED_EDGE ( 'NONE', *, *, #224, .F. ) ;
#433 = EDGE_CURVE ( 'NONE', #765, #1007, #698, .T. ) ;
#434 = VERTEX_POINT ( 'NONE', #1006 ) ;
#435 = CIRCLE ( 'NONE', #458, 3.000000000000000000 ) ;
#436 = CARTESIAN_POINT ( 'NONE',  ( 12.00000000000000000, 2.598076211353294696, -6.500000000000000000 ) ) ;
#437 =( GEOMETRIC_REPRESENTATION_CONTEXT ( 3 ) GLOBAL_UNCERTAINTY_ASSIGNED_CONTEXT ( ( #927 ) ) GLOBAL_UNIT_ASSIGNED_CONTEXT ( ( #1244, #850, #639 ) ) REPRESENTATION_CONTEXT ( 'NONE', 'WORKASPACE' ) );
#438 = CARTESIAN_POINT ( 'NONE',  ( 12.00000000000000000, 7.539491415784396189, -6.500000000000000888 ) ) ;
#439 = ORIENTED_EDGE ( 'NONE', *, *, #1212, .T. ) ;
#440 = SURFACE_STYLE_USAGE ( .BOTH. , #541 ) ;
#441 = ORIENTED_EDGE ( 'NONE', *, *, #252, .T. ) ;
#442 = DIRECTION ( 'NONE',  ( -0.000000000000000000, 0.000000000000000000, -1.000000000000000000 ) ) ;
#443 = CARTESIAN_POINT ( 'NONE',  ( 12.00000000000000000, 0.000000000000000000, 0.000000000000000000 ) ) ;
#444 = VERTEX_POINT ( 'NONE', #1206 ) ;
#445 =( NAMED_UNIT ( * ) SI_UNIT ( $, .STERADIAN. ) SOLID_ANGLE_UNIT ( ) );
#446 = AXIS2_PLACEMENT_3D ( 'NONE', #52, #1269, #462 ) ;
#447 = DIRECTION ( 'NONE',  ( 1.000000000000000000, -0.000000000000000000, -0.000000000000000000 ) ) ;
#448 = ORIENTED_EDGE ( 'NONE', *, *, #355, .T. ) ;
#449 = DIRECTION ( 'NONE',  ( 1.000000000000000000, 0.000000000000000000, -0.000000000000000000 ) ) ;
#450 = AXIS2_PLACEMENT_3D ( 'NONE', #969, #674, #879 ) ;
#451 = CIRCLE ( 'NONE', #298, 2.250000000000003553 ) ;
#452 = DIRECTION ( 'NONE',  ( 0.000000000000000000, 0.000000000000000000, 1.000000000000000000 ) ) ;
#453 = EDGE_CURVE ( 'NONE', #26, #372, #1307, .T. ) ;
#454 = ORIENTED_EDGE ( 'NONE', *, *, #836, .T. ) ;
#455 = EDGE_CURVE ( 'NONE', #890, #1162, #545, .T. ) ;
#456 = ORIENTED_EDGE ( 'NONE', *, *, #313, .T. ) ;
#457 = DIRECTION ( 'NONE',  ( 0.000000000000000000, 0.000000000000000000, -1.000000000000000000 ) ) ;
#458 = AXIS2_PLACEMENT_3D ( 'NONE', #1200, #862, #656 ) ;
#459 = CARTESIAN_POINT ( 'NONE',  ( 40.30000000000000426, 0.000000000000000000, 0.000000000000000000 ) ) ;
#460 = VECTOR ( 'NONE', #209, 1000.000000000000000 ) ;
#461 = ORIENTED_EDGE ( 'NONE', *, *, #1049, .F. ) ;
#462 = DIRECTION ( 'NONE',  ( 0.000000000000000000, 0.000000000000000000, 1.000000000000000000 ) ) ;
#463 = VERTEX_POINT ( 'NONE', #595 ) ;
#464 = CARTESIAN_POINT ( 'NONE',  ( 30.60000000000000497, 0.000000000000000000, 0.000000000000000000 ) ) ;
#465 = DIRECTION ( 'NONE',  ( 0.000000000000000000, 1.000000000000000000, 1.224646799147353207E-16 ) ) ;
#466 = VERTEX_POINT ( 'NONE', #90 ) ;
#467 = CARTESIAN_POINT ( 'NONE',  ( 0.000000000000000000, 0.000000000000000000, 0.000000000000000000 ) ) ;
#468 = EDGE_CURVE ( 'NONE', #765, #1289, #655, .T. ) ;
#469 = ORIENTED_EDGE ( 'NONE', *, *, #468, .F. ) ;
#470 = DIRECTION ( 'NONE',  ( 1.000000000000000000, -0.000000000000000000, -0.000000000000000000 ) ) ;
#471 = EDGE_CURVE ( 'NONE', #1257, #1038, #218, .T. ) ;
#472 = CARTESIAN_POINT ( 'NONE',  ( 18.30000000000000071, 0.000000000000000000, 0.000000000000000000 ) ) ;
#473 = VECTOR ( 'NONE', #272, 999.9999999999998863 ) ;
#474 = EDGE_LOOP ( 'NONE', ( #1048, #987, #78, #1265 ) ) ;
#475 = DIRECTION ( 'NONE',  ( 0.000000000000000000, 0.000000000000000000, -1.000000000000000000 ) ) ;
#476 = EDGE_LOOP ( 'NONE', ( #540, #58, #456, #752 ) ) ;
#477 = CARTESIAN_POINT ( 'NONE',  ( 30.60000000000000497, 0.000000000000000000, -3.000000000000003109 ) ) ;
#478 = DIRECTION ( 'NONE',  ( 0.000000000000000000, 0.000000000000000000, -1.000000000000000000 ) ) ;
#479 = EDGE_LOOP ( 'NONE', ( #169, #241 ) ) ;
#480 = DIRECTION ( 'NONE',  ( 0.000000000000000000, 0.000000000000000000, 1.000000000000000000 ) ) ;
#481 = EDGE_CURVE ( 'NONE', #651, #434, #106, .T. ) ;
#482 = ORIENTED_EDGE ( 'NONE', *, *, #180, .T. ) ;
#483 = CIRCLE ( 'NONE', #922, 1.899999999999999023 ) ;
#484 = FACE_OUTER_BOUND ( 'NONE', #575, .T. ) ;
#485 = ORIENTED_EDGE ( 'NONE', *, *, #1249, .T. ) ;
#486 = CYLINDRICAL_SURFACE ( 'NONE', #751, 3.000000000000000000 ) ;
#487 = DIRECTION ( 'NONE',  ( 0.000000000000000000, 1.224646799147353207E-16, 1.000000000000000000 ) ) ;
#488 = DIRECTION ( 'NONE',  ( 0.7071067811865463515, 8.659560562354950115E-17, 0.7071067811865487940 ) ) ;
#489 = EDGE_CURVE ( 'NONE', #394, #225, #635, .T. ) ;
#490 = CARTESIAN_POINT ( 'NONE',  ( 31.20000000000000284, 2.755455298081549215E-16, 2.250000000000003553 ) ) ;
#491 = ADVANCED_BREP_SHAPE_REPRESENTATION ( '202500614-10209P01', ( #581, #823 ), #1020 ) ;
#492 = ORIENTED_EDGE ( 'NONE', *, *, #1024, .T. ) ;
#493 = CARTESIAN_POINT ( 'NONE',  ( 0.000000000000000000, 3.741657386773943550, 6.500000000000000888 ) ) ;
#494 = CARTESIAN_POINT ( 'NONE',  ( 12.50000000000000355, 3.741657386773943550, 6.500000000000000888 ) ) ;
#495 = AXIS2_PLACEMENT_3D ( 'NONE', #105, #826, #1050 ) ;
#496 = LINE ( 'NONE', #709, #1305 ) ;
#497 = EDGE_CURVE ( 'NONE', #466, #1007, #631, .T. ) ;
#498 = AXIS2_PLACEMENT_3D ( 'NONE', #129, #356, #661 ) ;
#499 = DIRECTION ( 'NONE',  ( 0.000000000000000000, 0.000000000000000000, 1.000000000000000000 ) ) ;
#500 = VERTEX_POINT ( 'NONE', #1013 ) ;
#501 = FACE_OUTER_BOUND ( 'NONE', #361, .T. ) ;
#502 = CARTESIAN_POINT ( 'NONE',  ( 8.300000000000000711, 0.000000000000000000, 0.000000000000000000 ) ) ;
#503 = PRODUCT ( '202500614-10209P01', '202500614-10209P01', '', ( #337 ) ) ;
#504 = DIRECTION ( 'NONE',  ( 1.000000000000000000, -0.000000000000000000, -0.000000000000000000 ) ) ;
#505 = VECTOR ( 'NONE', #1267, 1000.000000000000000 ) ;
#506 = STYLED_ITEM ( 'NONE', ( #941 ), #581 ) ;
#507 = DIRECTION ( 'NONE',  ( 1.000000000000000000, -0.000000000000000000, -0.000000000000000000 ) ) ;
#508 = DIRECTION ( 'NONE',  ( -1.000000000000000000, 0.000000000000000000, 0.000000000000000000 ) ) ;
#509 = CARTESIAN_POINT ( 'NONE',  ( 0.000000000000000000, 0.000000000000000000, 0.000000000000000000 ) ) ;
#510 = DIRECTION ( 'NONE',  ( 1.000000000000000000, -0.000000000000000000, -0.000000000000000000 ) ) ;
#511 = ADVANCED_FACE ( 'NONE', ( #601 ), #895, .T. ) ;
#512 = DIRECTION ( 'NONE',  ( 1.000000000000000000, -0.000000000000000000, -0.000000000000000000 ) ) ;
#513 = ADVANCED_FACE ( 'NONE', ( #1123 ), #80, .T. ) ;
#514 = FACE_OUTER_BOUND ( 'NONE', #975, .T. ) ;
#515 = AXIS2_PLACEMENT_3D ( 'NONE', #883, #812, #382 ) ;
#516 =( NAMED_UNIT ( * ) SI_UNIT ( $, .STERADIAN. ) SOLID_ANGLE_UNIT ( ) );
#517 = AXIS2_PLACEMENT_3D ( 'NONE', #35, #760, #142 ) ;
#518 =( LENGTH_UNIT ( ) NAMED_UNIT ( * ) SI_UNIT ( .MILLI., .METRE. ) );
#519 = LINE ( 'NONE', #739, #30 ) ;
#520 = CARTESIAN_POINT ( 'NONE',  ( 30.60000000000000497, 0.000000000000000000, 0.000000000000000000 ) ) ;
#521 = ORIENTED_EDGE ( 'NONE', *, *, #1008, .T. ) ;
#522 = DIRECTION ( 'NONE',  ( 0.000000000000000000, 0.000000000000000000, -1.000000000000000000 ) ) ;
#523 = AXIS2_PLACEMENT_3D ( 'NONE', #443, #985, #1172 ) ;
#524 = CARTESIAN_POINT ( 'NONE',  ( 30.80000000000000071, 0.000000000000000000, 0.000000000000000000 ) ) ;
#525 = EDGE_CURVE ( 'NONE', #87, #1207, #483, .T. ) ;
#526 = ORIENTED_EDGE ( 'NONE', *, *, #1155, .T. ) ;
#527 = EDGE_CURVE ( 'NONE', #1058, #714, #857, .T. ) ;
#528 =( NAMED_UNIT ( * ) PLANE_ANGLE_UNIT ( ) SI_UNIT ( $, .RADIAN. ) );
#529 = DIRECTION ( 'NONE',  ( 1.000000000000000000, -0.000000000000000000, -0.000000000000000000 ) ) ;
#530 = EDGE_CURVE ( 'NONE', #1273, #1263, #420, .T. ) ;
#531 = VERTEX_POINT ( 'NONE', #428 ) ;
#532 = TOROIDAL_SURFACE ( 'NONE', #618, 2.250000000000003553, 0.4000000000000000222 ) ;
#533 = MECHANICAL_DESIGN_GEOMETRIC_PRESENTATION_REPRESENTATION (  '', ( #994 ), #1130 ) ;
#534 = DIRECTION ( 'NONE',  ( 0.000000000000000000, 0.000000000000000000, -1.000000000000000000 ) ) ;
#535 = EDGE_CURVE ( 'NONE', #1192, #680, #1252, .T. ) ;
#536 = ORIENTED_EDGE ( 'NONE', *, *, #211, .T. ) ;
#537 = CIRCLE ( 'NONE', #1035, 2.800000000000010925 ) ;
#538 = ORIENTED_EDGE ( 'NONE', *, *, #594, .F. ) ;
#539 = CARTESIAN_POINT ( 'NONE',  ( 12.14472730107585541, 2.988015160451067853, -6.500000000000000000 ) ) ;
#540 = ORIENTED_EDGE ( 'NONE', *, *, #1303, .T. ) ;
#541 = SURFACE_SIDE_STYLE ('',( #353 ) ) ;
#542 = VERTEX_POINT ( 'NONE', #123 ) ;
#543 = CIRCLE ( 'NONE', #959, 1.850000000000003642 ) ;
#544 = CARTESIAN_POINT ( 'NONE',  ( 16.29999999999999716, -3.741657386773941774, 6.500000000000000888 ) ) ;
#545 = CIRCLE ( 'NONE', #262, 0.5999999999999998668 ) ;
#546 = CARTESIAN_POINT ( 'NONE',  ( 0.000000000000000000, 0.000000000000000000, 0.000000000000000000 ) ) ;
#547 = EDGE_LOOP ( 'NONE', ( #1329, #1304, #1296, #1107 ) ) ;
#548 = CARTESIAN_POINT ( 'NONE',  ( 16.80000000000000071, -2.598076211353311571, 6.500000000000000888 ) ) ;
#549 = ORIENTED_EDGE ( 'NONE', *, *, #527, .T. ) ;
#550 = ADVANCED_FACE ( 'NONE', ( #1040 ), #567, .F. ) ;
#551 = DIRECTION ( 'NONE',  ( 0.000000000000000000, 0.000000000000000000, -1.000000000000000000 ) ) ;
#552 = DIRECTION ( 'NONE',  ( -1.000000000000000000, 0.000000000000000000, 0.000000000000000000 ) ) ;
#553 = EDGE_CURVE ( 'NONE', #55, #592, #1205, .T. ) ;
#554 = EDGE_LOOP ( 'NONE', ( #538, #153, #1323, #997 ) ) ;
#555 = AXIS2_PLACEMENT_3D ( 'NONE', #643, #968, #855 ) ;
#556 = DIRECTION ( 'NONE',  ( 0.000000000000000000, -1.000000000000000000, 1.597519642372721571E-16 ) ) ;
#557 = ORIENTED_EDGE ( 'NONE', *, *, #1275, .F. ) ;
#558 = PLANE ( 'NONE',  #498 ) ;
#559 = AXIS2_PLACEMENT_3D ( 'NONE', #1164, #564, #654 ) ;
#560 = CARTESIAN_POINT ( 'NONE',  ( 39.69999999999999574, 0.000000000000000000, 0.000000000000000000 ) ) ;
#561 = EDGE_CURVE ( 'NONE', #500, #856, #217, .T. ) ;
#562 = ORIENTED_EDGE ( 'NONE', *, *, #1212, .F. ) ;
#563 = DIRECTION ( 'NONE',  ( 0.000000000000000000, 0.000000000000000000, -1.000000000000000000 ) ) ;
#564 = DIRECTION ( 'NONE',  ( 1.000000000000000000, -0.000000000000000000, -0.000000000000000000 ) ) ;
#565 = CIRCLE ( 'NONE', #854, 2.800000000000010925 ) ;
#566 = CARTESIAN_POINT ( 'NONE',  ( 16.48627375673498463, 3.368279220068807867, 6.500000000000000000 ) ) ;
#567 = TOROIDAL_SURFACE ( 'NONE', #1198, 3.600000000000000089, 0.5999999999999999778 ) ;
#568 = EDGE_LOOP ( 'NONE', ( #1120, #741, #704, #992, #162, #967, #381, #963 ) ) ;
#569 = ADVANCED_FACE ( 'NONE', ( #17 ), #787, .T. ) ;
#570 = ADVANCED_FACE ( 'NONE', ( #946 ), #611, .T. ) ;
#571 = ORIENTED_EDGE ( 'NONE', *, *, #195, .F. ) ;
#572 = FACE_BOUND ( 'NONE', #878, .T. ) ;
#573 = DIRECTION ( 'NONE',  ( 0.000000000000000000, 0.000000000000000000, 1.000000000000000000 ) ) ;
#574 = VERTEX_POINT ( 'NONE', #27 ) ;
#575 = EDGE_LOOP ( 'NONE', ( #179, #1314, #743, #432 ) ) ;
#576 = CARTESIAN_POINT ( 'NONE',  ( 1.000000000000007772, 0.000000000000000000, 0.000000000000000000 ) ) ;
#577 = DIRECTION ( 'NONE',  ( -1.000000000000000000, 0.000000000000000000, 0.000000000000000000 ) ) ;
#578 = AXIS2_PLACEMENT_3D ( 'NONE', #2, #409, #522 ) ;
#579 = DIRECTION ( 'NONE',  ( 1.000000000000000000, -0.000000000000000000, -0.000000000000000000 ) ) ;
#580 = EDGE_LOOP ( 'NONE', ( #176, #166, #1143, #1203 ) ) ;
#581 = MANIFOLD_SOLID_BREP ( 'Fase5', #918 ) ;
#582 = CIRCLE ( 'NONE', #145, 0.5999999999999998668 ) ;
#583 = ORIENTED_EDGE ( 'NONE', *, *, #955, .T. ) ;
#584 = CARTESIAN_POINT ( 'NONE',  ( 11.40000000000000036, 0.000000000000000000, -3.000000000000000000 ) ) ;
#585 = ORIENTED_EDGE ( 'NONE', *, *, #1321, .T. ) ;
#586 = CARTESIAN_POINT ( 'NONE',  ( 30.80000000000000071, 3.429011037612602588E-16, -2.800000000000010925 ) ) ;
#587 = DIRECTION ( 'NONE',  ( 0.000000000000000000, 1.000000000000000000, -1.224646799147353207E-16 ) ) ;
#588 = ORIENTED_EDGE ( 'NONE', *, *, #244, .F. ) ;
#589 = CARTESIAN_POINT ( 'NONE',  ( 16.80000000000000071, 2.598076211353313347, 6.500000000000000888 ) ) ;
#590 = AXIS2_PLACEMENT_3D ( 'NONE', #1092, #465, #1181 ) ;
#591 = FACE_OUTER_BOUND ( 'NONE', #1188, .T. ) ;
#592 = VERTEX_POINT ( 'NONE', #329 ) ;
#593 = CARTESIAN_POINT ( 'NONE',  ( 32.76715728752540002, 0.000000000000000000, -1.967157287525385989 ) ) ;
#594 = EDGE_CURVE ( 'NONE', #372, #336, #519, .T. ) ;
#595 = CARTESIAN_POINT ( 'NONE',  ( 11.40000000000000036, 3.673940397442059868E-16, 3.000000000000000000 ) ) ;
#596 = VERTEX_POINT ( 'NONE', #199 ) ;
#597 = CYLINDRICAL_SURFACE ( 'NONE', #797, 1.850000000000003642 ) ;
#598 = ORIENTED_EDGE ( 'NONE', *, *, #1155, .F. ) ;
#599 = DIRECTION ( 'NONE',  ( 0.000000000000000000, 0.000000000000000000, 1.000000000000000000 ) ) ;
#600 = EDGE_LOOP ( 'NONE', ( #20, #127, #872, #945 ) ) ;
#601 = FACE_OUTER_BOUND ( 'NONE', #119, .T. ) ;
#602 = VECTOR ( 'NONE', #749, 1000.000000000000000 ) ;
#603 = CIRCLE ( 'NONE', #317, 0.4000000000000001887 ) ;
#604 = CARTESIAN_POINT ( 'NONE',  ( 0.000000000000000000, 0.000000000000000000, 0.000000000000000000 ) ) ;
#605 = VECTOR ( 'NONE', #933, 1000.000000000000000 ) ;
#606 = DIRECTION ( 'NONE',  ( 0.000000000000000000, 0.000000000000000000, 1.000000000000000000 ) ) ;
#607 = CARTESIAN_POINT ( 'NONE',  ( 16.29999999999999716, -3.741657386773941774, 6.500000000000000888 ) ) ;
#608 = PRESENTATION_STYLE_ASSIGNMENT (( #387 ) ) ;
#609 = EDGE_CURVE ( 'NONE', #1045, #50, #614, .T. ) ;
#610 = CARTESIAN_POINT ( 'NONE',  ( 30.80000000000000071, 1.850000000000003642, 0.000000000000000000 ) ) ;
#611 = CONICAL_SURFACE ( 'NONE', #811, 6.999999999999999112, 0.7853981633974500554 ) ;
#612 = DIRECTION ( 'NONE',  ( 0.000000000000000000, 0.000000000000000000, -1.000000000000000000 ) ) ;
#613 = EDGE_CURVE ( 'NONE', #592, #660, #376, .T. ) ;
#614 = LINE ( 'NONE', #1180, #962 ) ;
#615 = FACE_OUTER_BOUND ( 'NONE', #547, .T. ) ;
#616 = CARTESIAN_POINT ( 'NONE',  ( 0.000000000000000000, 2.265596578422607538E-16, 1.850000000000003642 ) ) ;
#617 = CARTESIAN_POINT ( 'NONE',  ( 0.000000000000000000, 0.000000000000000000, 0.000000000000000000 ) ) ;
#618 = AXIS2_PLACEMENT_3D ( 'NONE', #1290, #360, #139 ) ;
#619 = DIRECTION ( 'NONE',  ( 1.000000000000000000, -0.000000000000000000, -0.000000000000000000 ) ) ;
#620 = ORIENTED_EDGE ( 'NONE', *, *, #814, .F. ) ;
#621 = DIRECTION ( 'NONE',  ( 0.000000000000000000, -1.000000000000000000, 1.065013094915147714E-16 ) ) ;
#622 = AXIS2_PLACEMENT_3D ( 'NONE', #93, #1204, #891 ) ;
#623 = AXIS2_PLACEMENT_3D ( 'NONE', #1032, #221, #120 ) ;
#624 = LINE ( 'NONE', #15, #951 ) ;
#625 = CARTESIAN_POINT ( 'NONE',  ( 12.50000000000000178, 3.741657386773943550, -6.500000000000000000 ) ) ;
#626 = DIRECTION ( 'NONE',  ( 1.000000000000000000, -0.000000000000000000, -0.000000000000000000 ) ) ;
#627 = EDGE_CURVE ( 'NONE', #369, #1289, #60, .T. ) ;
#628 = EDGE_LOOP ( 'NONE', ( #649, #401, #1069, #598 ) ) ;
#629 = AXIS2_PLACEMENT_3D ( 'NONE', #560, #54, #1302 ) ;
#630 = DIRECTION ( 'NONE',  ( 1.000000000000000000, -0.000000000000000000, -0.000000000000000000 ) ) ;
#631 = CIRCLE ( 'NONE', #237, 4.000000000000000000 ) ;
#632 = SURFACE_SIDE_STYLE ('',( #733 ) ) ;
#633 = EDGE_CURVE ( 'NONE', #367, #856, #1081, .T. ) ;
#634 = DIRECTION ( 'NONE',  ( 0.000000000000000000, 0.000000000000000000, -1.000000000000000000 ) ) ;
#635 = B_SPLINE_CURVE_WITH_KNOTS ( 'NONE', 3,
 ( #705, #407, #289, #1106 ),
 .UNSPECIFIED., .F., .F.,
 ( 4, 4 ),
 ( 1.545027413698261190E-06, 0.001240642113537693920 ),
 .UNSPECIFIED. ) ;
#636 = ADVANCED_FACE ( 'NONE', ( #976 ), #48, .T. ) ;
#637 = VERTEX_POINT ( 'NONE', #874 ) ;
#638 = DIRECTION ( 'NONE',  ( 0.000000000000000000, 0.000000000000000000, -1.000000000000000000 ) ) ;
#639 =( NAMED_UNIT ( * ) SI_UNIT ( $, .STERADIAN. ) SOLID_ANGLE_UNIT ( ) );
#640 = LINE ( 'NONE', #723, #1282 ) ;
#641 = ORIENTED_EDGE ( 'NONE', *, *, #767, .T. ) ;
#642 = AXIS2_PLACEMENT_3D ( 'NONE', #1010, #1328, #77 ) ;
#643 = CARTESIAN_POINT ( 'NONE',  ( 16.80000000000000071, 0.000000000000000000, 0.000000000000000000 ) ) ;
#644 = VECTOR ( 'NONE', #1139, 1000.000000000000114 ) ;
#645 = ORIENTED_EDGE ( 'NONE', *, *, #433, .T. ) ;
#646 = DIRECTION ( 'NONE',  ( -0.7071067811865474617, 0.000000000000000000, 0.7071067811865474617 ) ) ;
#647 = DIRECTION ( 'NONE',  ( 1.000000000000000000, -0.000000000000000000, -0.000000000000000000 ) ) ;
#648 = ORIENTED_EDGE ( 'NONE', *, *, #609, .F. ) ;
#649 = ORIENTED_EDGE ( 'NONE', *, *, #1249, .F. ) ;
#650 = AXIS2_PLACEMENT_3D ( 'NONE', #101, #1132, #1228 ) ;
#651 = VERTEX_POINT ( 'NONE', #868 ) ;
#652 = EDGE_CURVE ( 'NONE', #1182, #790, #167, .T. ) ;
#653 = AXIS2_PLACEMENT_3D ( 'NONE', #459, #348, #452 ) ;
#654 = DIRECTION ( 'NONE',  ( 0.000000000000000000, 0.000000000000000000, -1.000000000000000000 ) ) ;
#655 = CIRCLE ( 'NONE', #833, 4.000000000000000000 ) ;
#656 = DIRECTION ( 'NONE',  ( 0.000000000000000000, 0.000000000000000000, 1.000000000000000000 ) ) ;
#657 = ORIENTED_EDGE ( 'NONE', *, *, #859, .T. ) ;
#658 = CARTESIAN_POINT ( 'NONE',  ( 0.000000000000000000, 0.000000000000000000, 0.000000000000000000 ) ) ;
#659 = ORIENTED_EDGE ( 'NONE', *, *, #1216, .T. ) ;
#660 = VERTEX_POINT ( 'NONE', #362 ) ;
#661 = DIRECTION ( 'NONE',  ( 0.000000000000000000, 0.000000000000000000, 1.000000000000000000 ) ) ;
#662 = CARTESIAN_POINT ( 'NONE',  ( 0.000000000000000000, 0.000000000000000000, -2.999999999999988898 ) ) ;
#663 = ORIENTED_EDGE ( 'NONE', *, *, #871, .F. ) ;
#664 = AXIS2_PLACEMENT_3D ( 'NONE', #1119, #1126, #292 ) ;
#665 = AXIS2_PLACEMENT_3D ( 'NONE', #701, #707, #1313 ) ;
#666 = ORIENTED_EDGE ( 'NONE', *, *, #118, .F. ) ;
#667 = DIRECTION ( 'NONE',  ( -1.000000000000000000, 0.000000000000000000, 0.000000000000000000 ) ) ;
#668 = EDGE_CURVE ( 'NONE', #206, #336, #753, .T. ) ;
#669 = CIRCLE ( 'NONE', #495, 3.175735931288065750 ) ;
#670 = DIRECTION ( 'NONE',  ( 1.000000000000000000, -0.000000000000000000, -0.000000000000000000 ) ) ;
#671 = ORIENTED_EDGE ( 'NONE', *, *, #155, .F. ) ;
#672 = ADVANCED_FACE ( 'NONE', ( #572, #766 ), #558, .T. ) ;
#673 = FACE_OUTER_BOUND ( 'NONE', #568, .T. ) ;
#674 = DIRECTION ( 'NONE',  ( -1.000000000000000000, 0.000000000000000000, 0.000000000000000000 ) ) ;
#675 = AXIS2_PLACEMENT_3D ( 'NONE', #75, #508, #1014 ) ;
#676 = AXIS2_PLACEMENT_3D ( 'NONE', #371, #869, #1288 ) ;
#677 = FACE_OUTER_BOUND ( 'NONE', #1170, .T. ) ;
#678 = EDGE_CURVE ( 'NONE', #820, #500, #886, .T. ) ;
#679 = AXIS2_PLACEMENT_3D ( 'NONE', #172, #1214, #893 ) ;
#680 = VERTEX_POINT ( 'NONE', #1279 ) ;
#681 = PLANE ( 'NONE',  #1080 ) ;
#682 = ORIENTED_EDGE ( 'NONE', *, *, #525, .F. ) ;
#683 = LINE ( 'NONE', #586, #473 ) ;
#684 = FACE_OUTER_BOUND ( 'NONE', #554, .T. ) ;
#685 = VERTEX_POINT ( 'NONE', #159 ) ;
#686 = CARTESIAN_POINT ( 'NONE',  ( 33.30000000000001137, 0.000000000000000000, -2.500000000000003997 ) ) ;
#687 = ORIENTED_EDGE ( 'NONE', *, *, #128, .F. ) ;
#688 = LINE ( 'NONE', #392, #276 ) ;
#689 = CARTESIAN_POINT ( 'NONE',  ( 16.65599130333231415, -2.986079023691410317, 6.500000000000000888 ) ) ;
#690 = AXIS2_PLACEMENT_3D ( 'NONE', #207, #113, #197 ) ;
#691 = CIRCLE ( 'NONE', #1022, 2.999999999999988898 ) ;
#692 = CARTESIAN_POINT ( 'NONE',  ( 30.80000000000000071, 0.000000000000000000, 0.000000000000000000 ) ) ;
#693 = DIRECTION ( 'NONE',  ( 0.000000000000000000, 1.000000000000000000, -1.224646799147353207E-16 ) ) ;
#694 = EDGE_CURVE ( 'NONE', #372, #26, #1253, .T. ) ;
#695 = ORIENTED_EDGE ( 'NONE', *, *, #224, .T. ) ;
#696 = FACE_BOUND ( 'NONE', #1291, .T. ) ;
#697 = ADVANCED_FACE ( 'NONE', ( #1301 ), #775, .T. ) ;
#698 = LINE ( 'NONE', #1337, #981 ) ;
#699 = FILL_AREA_STYLE_COLOUR ( '', #1063 ) ;
#700 = CIRCLE ( 'NONE', #1005, 3.000000000000003109 ) ;
#701 = CARTESIAN_POINT ( 'NONE',  ( 12.50000000000000355, 0.000000000000000000, 0.000000000000000000 ) ) ;
#702 = EDGE_LOOP ( 'NONE', ( #430, #557, #1003, #422 ) ) ;
#703 = DIRECTION ( 'NONE',  ( 0.000000000000000000, 0.000000000000000000, 1.000000000000000000 ) ) ;
#704 = ORIENTED_EDGE ( 'NONE', *, *, #535, .T. ) ;
#705 = CARTESIAN_POINT ( 'NONE',  ( 16.29999999999999716, 3.741657386773943550, -6.500000000000000888 ) ) ;
#706 =( NAMED_UNIT ( * ) PLANE_ANGLE_UNIT ( ) SI_UNIT ( $, .RADIAN. ) );
#707 = DIRECTION ( 'NONE',  ( 1.000000000000000000, -0.000000000000000000, -0.000000000000000000 ) ) ;
#708 = DIRECTION ( 'NONE',  ( 0.000000000000000000, 0.000000000000000000, -1.000000000000000000 ) ) ;
#709 = CARTESIAN_POINT ( 'NONE',  ( 1.000000000000007772, 4.898587196589412829E-16, 4.000000000000000000 ) ) ;
#710 = AXIS2_PLACEMENT_3D ( 'NONE', #799, #1211, #606 ) ;
#711 = EDGE_CURVE ( 'NONE', #72, #65, #582, .T. ) ;
#712 = B_SPLINE_CURVE_WITH_KNOTS ( 'NONE', 3,
 ( #942, #412, #421, #1042 ),
 .UNSPECIFIED., .F., .F.,
 ( 4, 4 ),
 ( 0.006503922416289792223, 0.007730315640286005395 ),
 .UNSPECIFIED. ) ;
#713 = DIRECTION ( 'NONE',  ( 1.000000000000000000, -0.000000000000000000, -0.000000000000000000 ) ) ;
#714 = VERTEX_POINT ( 'NONE', #544 ) ;
#715 = CARTESIAN_POINT ( 'NONE',  ( 0.000000000000000000, 0.000000000000000000, 0.000000000000000000 ) ) ;
#716 = CIRCLE ( 'NONE', #130, 2.500000000000003997 ) ;
#717 = AXIS2_PLACEMENT_3D ( 'NONE', #178, #185, #478 ) ;
#718 = DIRECTION ( 'NONE',  ( 0.000000000000000000, 0.000000000000000000, -1.000000000000000000 ) ) ;
#719 = ADVANCED_FACE ( 'NONE', ( #1075 ), #53, .T. ) ;
#720 = MECHANICAL_DESIGN_GEOMETRIC_PRESENTATION_REPRESENTATION (  '', ( #307 ), #156 ) ;
#721 = PRESENTATION_STYLE_ASSIGNMENT (( #99 ) ) ;
#722 = DIRECTION ( 'NONE',  ( -1.000000000000000000, 0.000000000000000000, 0.000000000000000000 ) ) ;
#723 = CARTESIAN_POINT ( 'NONE',  ( 9.300000000000025580, 3.673940397442059868E-16, -3.000000000000000000 ) ) ;
#724 = EDGE_LOOP ( 'NONE', ( #682, #583, #44, #938 ) ) ;
#725 = CARTESIAN_POINT ( 'NONE',  ( 31.20000000000000284, 0.000000000000000000, 0.000000000000000000 ) ) ;
#726 = EDGE_CURVE ( 'NONE', #660, #1058, #213, .T. ) ;
#727 = DIRECTION ( 'NONE',  ( 1.000000000000000000, -0.000000000000000000, -0.000000000000000000 ) ) ;
#728 = ORIENTED_EDGE ( 'NONE', *, *, #774, .F. ) ;
#729 = VECTOR ( 'NONE', #135, 1000.000000000000000 ) ;
#730 =( GEOMETRIC_REPRESENTATION_CONTEXT ( 3 ) GLOBAL_UNCERTAINTY_ASSIGNED_CONTEXT ( ( #202 ) ) GLOBAL_UNIT_ASSIGNED_CONTEXT ( ( #518, #528, #1039 ) ) REPRESENTATION_CONTEXT ( 'NONE', 'WORKASPACE' ) );
#731 = LINE ( 'NONE', #1152, #911 ) ;
#732 = EDGE_CURVE ( 'NONE', #1273, #860, #1105, .T. ) ;
#733 = SURFACE_STYLE_FILL_AREA ( #934 ) ;
#734 = LINE ( 'NONE', #212, #892 ) ;
#735 = VERTEX_POINT ( 'NONE', #249 ) ;
#736 = SURFACE_STYLE_FILL_AREA ( #1229 ) ;
#737 = AXIS2_PLACEMENT_3D ( 'NONE', #858, #948, #634 ) ;
#738 = DIRECTION ( 'NONE',  ( -1.000000000000000000, 0.000000000000000000, 0.000000000000000000 ) ) ;
#739 = CARTESIAN_POINT ( 'NONE',  ( 0.000000000000000000, 7.347880794884121708E-16, 6.000000000000001776 ) ) ;
#740 = DIRECTION ( 'NONE',  ( -1.000000000000000000, 0.000000000000000000, 0.000000000000000000 ) ) ;
#741 = ORIENTED_EDGE ( 'NONE', *, *, #147, .T. ) ;
#742 = CARTESIAN_POINT ( 'NONE',  ( 33.30000000000001137, 3.061616997868387579E-16, 2.500000000000003997 ) ) ;
#743 = ORIENTED_EDGE ( 'NONE', *, *, #481, .F. ) ;
#744 = DIRECTION ( 'NONE',  ( 1.000000000000000000, -0.000000000000000000, -0.000000000000000000 ) ) ;
#745 = CARTESIAN_POINT ( 'NONE',  ( 31.20000000000000284, 0.000000000000000000, 0.000000000000000000 ) ) ;
#746 = EDGE_CURVE ( 'NONE', #125, #798, #1274, .T. ) ;
#747 = EDGE_LOOP ( 'NONE', ( #659, #645, #160, #1084 ) ) ;
#748 = EDGE_CURVE ( 'NONE', #1038, #125, #688, .T. ) ;
#749 = DIRECTION ( 'NONE',  ( 0.7071067811865424657, 8.659560562354995721E-17, 0.7071067811865526798 ) ) ;
#750 = ORIENTED_EDGE ( 'NONE', *, *, #355, .F. ) ;
#751 = AXIS2_PLACEMENT_3D ( 'NONE', #294, #507, #708 ) ;
#752 = ORIENTED_EDGE ( 'NONE', *, *, #1024, .F. ) ;
#753 = LINE ( 'NONE', #234, #776 ) ;
#754 = CARTESIAN_POINT ( 'NONE',  ( 16.29999999999999716, 3.741657386773943550, 6.500000000000000000 ) ) ;
#755 = ORIENTED_EDGE ( 'NONE', *, *, #1318, .F. ) ;
#756 = DIRECTION ( 'NONE',  ( 1.000000000000000000, 0.000000000000000000, 0.000000000000000000 ) ) ;
#757 = ORIENTED_EDGE ( 'NONE', *, *, #83, .F. ) ;
#758 = ORIENTED_EDGE ( 'NONE', *, *, #668, .F. ) ;
#759 = AXIS2_PLACEMENT_3D ( 'NONE', #223, #740, #835 ) ;
#760 = DIRECTION ( 'NONE',  ( 1.000000000000000000, -0.000000000000000000, -0.000000000000000000 ) ) ;
#761 = CARTESIAN_POINT ( 'NONE',  ( 0.000000000000000000, 0.000000000000000000, -3.000000000000003109 ) ) ;
#762 = ORIENTED_EDGE ( 'NONE', *, *, #594, .T. ) ;
#763 = APPLICATION_PROTOCOL_DEFINITION ( 'draft international standard', 'automotive_design', 1998, #846 ) ;
#764 = ADVANCED_FACE ( 'NONE', ( #66 ), #208, .T. ) ;
#765 = VERTEX_POINT ( 'NONE', #813 ) ;
#766 = FACE_OUTER_BOUND ( 'NONE', #870, .T. ) ;
#767 = EDGE_CURVE ( 'NONE', #463, #542, #910, .T. ) ;
#768 = DIRECTION ( 'NONE',  ( 0.000000000000000000, 0.000000000000000000, -1.000000000000000000 ) ) ;
#769 = ORIENTED_EDGE ( 'NONE', *, *, #14, .T. ) ;
#770 = AXIS2_PLACEMENT_3D ( 'NONE', #974, #149, #563 ) ;
#771 = CARTESIAN_POINT ( 'NONE',  ( 32.48431457505078157, 0.000000000000000000, 0.000000000000000000 ) ) ;
#772 = CIRCLE ( 'NONE', #104, 2.500000000000004441 ) ;
#773 = ORIENTED_EDGE ( 'NONE', *, *, #806, .F. ) ;
#774 = EDGE_CURVE ( 'NONE', #1007, #466, #973, .T. ) ;
#775 = CYLINDRICAL_SURFACE ( 'NONE', #388, 1.850000000000003642 ) ;
#776 = VECTOR ( 'NONE', #646, 1000.000000000000114 ) ;
#777 = CARTESIAN_POINT ( 'NONE',  ( 16.29999999999999716, 3.741657386773943550, -6.500000000000000888 ) ) ;
#778 = ADVANCED_FACE ( 'NONE', ( #1226 ), #1147, .F. ) ;
#779 = ORIENTED_EDGE ( 'NONE', *, *, #999, .T. ) ;
#780 = ORIENTED_EDGE ( 'NONE', *, *, #295, .F. ) ;
#781 = DIRECTION ( 'NONE',  ( -1.000000000000000000, 0.000000000000000000, 0.000000000000000000 ) ) ;
#782 = ORIENTED_EDGE ( 'NONE', *, *, #816, .F. ) ;
#783 = DIRECTION ( 'NONE',  ( -0.7071067811865530128, 0.000000000000000000, 0.7071067811865421326 ) ) ;
#784 = TOROIDAL_SURFACE ( 'NONE', #261, 3.600000000000000089, 0.5999999999999999778 ) ;
#785 = CARTESIAN_POINT ( 'NONE',  ( 18.30000000000000071, 3.000000000000002220, 0.000000000000000000 ) ) ;
#786 = EDGE_LOOP ( 'NONE', ( #345, #359 ) ) ;
#787 = CONICAL_SURFACE ( 'NONE', #400, 2.500000000000003997, 0.7853981633974554954 ) ;
#788 = EDGE_LOOP ( 'NONE', ( #461, #1242, #439, #1156 ) ) ;
#789 = CARTESIAN_POINT ( 'NONE',  ( 0.000000000000000000, 0.000000000000000000, 0.000000000000000000 ) ) ;
#790 = VERTEX_POINT ( 'NONE', #593 ) ;
#791 = LINE ( 'NONE', #1247, #605 ) ;
#792 = CARTESIAN_POINT ( 'NONE',  ( 12.00000000000000000, 2.598076211353293807, 6.500000000000000888 ) ) ;
#793 = SURFACE_SIDE_STYLE ('',( #931 ) ) ;
#794 = EDGE_CURVE ( 'NONE', #1207, #531, #1315, .T. ) ;
#795 = CARTESIAN_POINT ( 'NONE',  ( 9.124264068711955389, 0.000000000000000000, 3.175735931288065750 ) ) ;
#796 = EDGE_CURVE ( 'NONE', #369, #943, #691, .T. ) ;
#797 = AXIS2_PLACEMENT_3D ( 'NONE', #467, #988, #1002 ) ;
#798 = VERTEX_POINT ( 'NONE', #477 ) ;
#799 = CARTESIAN_POINT ( 'NONE',  ( 9.124264068711955389, 0.000000000000000000, 0.000000000000000000 ) ) ;
#800 = DIRECTION ( 'NONE',  ( 0.000000000000000000, 0.000000000000000000, -1.000000000000000000 ) ) ;
#801 = MECHANICAL_DESIGN_GEOMETRIC_PRESENTATION_REPRESENTATION (  '', ( #43 ), #730 ) ;
#802 = AXIS2_PLACEMENT_3D ( 'NONE', #771, #447, #1189 ) ;
#803 = CARTESIAN_POINT ( 'NONE',  ( 12.50000000000000355, -3.741657386773945326, -6.499999999999999112 ) ) ;
#804 = CARTESIAN_POINT ( 'NONE',  ( 32.48431457505078157, 0.000000000000000000, -2.250000000000003553 ) ) ;
#805 = ORIENTED_EDGE ( 'NONE', *, *, #468, .T. ) ;
#806 = EDGE_CURVE ( 'NONE', #1207, #87, #426, .T. ) ;
#807 = CARTESIAN_POINT ( 'NONE',  ( 30.80000000000000071, 0.000000000000000000, 0.000000000000000000 ) ) ;
#808 = DIRECTION ( 'NONE',  ( 1.000000000000000000, -0.000000000000000000, -0.000000000000000000 ) ) ;
#809 = AXIS2_PLACEMENT_3D ( 'NONE', #124, #647, #1061 ) ;
#810 = ORIENTED_EDGE ( 'NONE', *, *, #530, .T. ) ;
#811 = AXIS2_PLACEMENT_3D ( 'NONE', #1250, #722, #5 ) ;
#812 = DIRECTION ( 'NONE',  ( 1.000000000000000000, -0.000000000000000000, -0.000000000000000000 ) ) ;
#813 = CARTESIAN_POINT ( 'NONE',  ( 1.000000000000007772, 4.898587196589412829E-16, 4.000000000000000000 ) ) ;
#814 = EDGE_CURVE ( 'NONE', #596, #651, #79, .T. ) ;
#815 = SURFACE_STYLE_FILL_AREA ( #1021 ) ;
#816 = EDGE_CURVE ( 'NONE', #574, #373, #537, .T. ) ;
#817 = FACE_OUTER_BOUND ( 'NONE', #344, .T. ) ;
#818 = UNCERTAINTY_MEASURE_WITH_UNIT (LENGTH_MEASURE( 1.000000000000000082E-05 ), #1131, 'distance_accuracy_value', 'NONE');
#819 = LINE ( 'NONE', #1231, #1145 ) ;
#820 = VERTEX_POINT ( 'NONE', #88 ) ;
#821 = ORIENTED_EDGE ( 'NONE', *, *, #923, .T. ) ;
#822 = PRESENTATION_STYLE_ASSIGNMENT (( #1311 ) ) ;
#823 = AXIS2_PLACEMENT_3D ( 'NONE', #342, #480, #756 ) ;
#824 = DIRECTION ( 'NONE',  ( 1.000000000000000000, -0.000000000000000000, -0.000000000000000000 ) ) ;
#825 = LINE ( 'NONE', #844, #949 ) ;
#826 = DIRECTION ( 'NONE',  ( -1.000000000000000000, 0.000000000000000000, 0.000000000000000000 ) ) ;
#827 = CARTESIAN_POINT ( 'NONE',  ( 12.31289182655052095, -3.366606665713384405, -6.499999999999999112 ) ) ;
#828 =( NAMED_UNIT ( * ) SI_UNIT ( $, .STERADIAN. ) SOLID_ANGLE_UNIT ( ) );
#829 = MECHANICAL_DESIGN_GEOMETRIC_PRESENTATION_REPRESENTATION (  '', ( #69 ), #1331 ) ;
#830 = TOROIDAL_SURFACE ( 'NONE', #1113, 3.600000000000000089, 0.5999999999999999778 ) ;
#831 = EDGE_LOOP ( 'NONE', ( #383, #915, #986, #239 ) ) ;
#832 = DIRECTION ( 'NONE',  ( 1.000000000000000000, -0.000000000000000000, -0.000000000000000000 ) ) ;
#833 = AXIS2_PLACEMENT_3D ( 'NONE', #380, #1326, #901 ) ;
#834 = DIRECTION ( 'NONE',  ( 0.000000000000000000, 0.000000000000000000, -1.000000000000000000 ) ) ;
#835 = DIRECTION ( 'NONE',  ( 0.000000000000000000, 0.000000000000000000, 1.000000000000000000 ) ) ;
#836 = EDGE_CURVE ( 'NONE', #373, #125, #1104, .T. ) ;
#837 = ORIENTED_EDGE ( 'NONE', *, *, #836, .F. ) ;
#838 = ADVANCED_FACE ( 'NONE', ( #501 ), #486, .T. ) ;
#839 = ORIENTED_EDGE ( 'NONE', *, *, #732, .F. ) ;
#840 = FILL_AREA_STYLE_COLOUR ( '', #1309 ) ;
#841 = DIRECTION ( 'NONE',  ( 1.000000000000000000, -0.000000000000000000, -0.000000000000000000 ) ) ;
#842 = CIRCLE ( 'NONE', #578, 3.000000000000000000 ) ;
#843 = ORIENTED_EDGE ( 'NONE', *, *, #711, .F. ) ;
#844 = CARTESIAN_POINT ( 'NONE',  ( 12.00000000000000000, 7.539491415784396189, 6.500000000000000000 ) ) ;
#845 = AXIS2_PLACEMENT_3D ( 'NONE', #1129, #998, #1121 ) ;
#847 = UNCERTAINTY_MEASURE_WITH_UNIT (LENGTH_MEASURE( 1.000000000000000082E-05 ), #396, 'distance_accuracy_value', 'NONE');
#846 = APPLICATION_CONTEXT ( 'automotive_design' ) ;
#848 = FACE_OUTER_BOUND ( 'NONE', #1178, .T. ) ;
#849 = ORIENTED_EDGE ( 'NONE', *, *, #244, .T. ) ;
#850 =( NAMED_UNIT ( * ) PLANE_ANGLE_UNIT ( ) SI_UNIT ( $, .RADIAN. ) );
#851 = CARTESIAN_POINT ( 'NONE',  ( 11.40000000000000036, 0.000000000000000000, 0.000000000000000000 ) ) ;
#852 = ORIENTED_EDGE ( 'NONE', *, *, #726, .F. ) ;
#853 = AXIS2_PLACEMENT_3D ( 'NONE', #604, #1108, #921 ) ;
#854 = AXIS2_PLACEMENT_3D ( 'NONE', #524, #626, #28 ) ;
#855 = DIRECTION ( 'NONE',  ( 0.000000000000000000, 0.000000000000000000, -1.000000000000000000 ) ) ;
#856 = VERTEX_POINT ( 'NONE', #1310 ) ;
#857 = LINE ( 'NONE', #204, #460 ) ;
#858 = CARTESIAN_POINT ( 'NONE',  ( 0.000000000000000000, 0.000000000000000000, 0.000000000000000000 ) ) ;
#859 = EDGE_CURVE ( 'NONE', #574, #798, #683, .T. ) ;
#860 = VERTEX_POINT ( 'NONE', #384 ) ;
#861 = CARTESIAN_POINT ( 'NONE',  ( 12.50000000000000355, -3.741657386773941774, 6.500000000000000888 ) ) ;
#862 = DIRECTION ( 'NONE',  ( -1.000000000000000000, 0.000000000000000000, 0.000000000000000000 ) ) ;
#863 = ORIENTED_EDGE ( 'NONE', *, *, #978, .F. ) ;
#864 = AXIS2_PLACEMENT_3D ( 'NONE', #509, #832, #312 ) ;
#865 = AXIS2_PLACEMENT_3D ( 'NONE', #243, #667, #1270 ) ;
#866 = ORIENTED_EDGE ( 'NONE', *, *, #936, .T. ) ;
#867 = TOROIDAL_SURFACE ( 'NONE', #802, 2.250000000000003553, 0.4000000000000000222 ) ;
#868 = CARTESIAN_POINT ( 'NONE',  ( 12.50000000000000355, 3.741657386773943550, 6.500000000000000888 ) ) ;
#869 = DIRECTION ( 'NONE',  ( -1.000000000000000000, 0.000000000000000000, 0.000000000000000000 ) ) ;
#870 = EDGE_LOOP ( 'NONE', ( #1278, #1281, #755, #521 ) ) ;
#871 = EDGE_CURVE ( 'NONE', #65, #1162, #109, .T. ) ;
#872 = ORIENTED_EDGE ( 'NONE', *, *, #746, .T. ) ;
#873 = AXIS2_PLACEMENT_3D ( 'NONE', #617, #727, #834 ) ;
#874 = CARTESIAN_POINT ( 'NONE',  ( 12.00000000000000000, 4.408728476930471151E-16, -3.600000000000000089 ) ) ;
#875 = CARTESIAN_POINT ( 'NONE',  ( 11.40000000000000036, 0.000000000000000000, 0.000000000000000000 ) ) ;
#876 = ORIENTED_EDGE ( 'NONE', *, *, #774, .T. ) ;
#877 = FACE_OUTER_BOUND ( 'NONE', #628, .T. ) ;
#878 = EDGE_LOOP ( 'NONE', ( #141, #482 ) ) ;
#879 = DIRECTION ( 'NONE',  ( 0.000000000000000000, 0.000000000000000000, -1.000000000000000000 ) ) ;
#880 = CARTESIAN_POINT ( 'NONE',  ( 16.80000000000000071, 7.347880794884121708E-16, 6.000000000000001776 ) ) ;
#881 = EDGE_LOOP ( 'NONE', ( #417, #1117, #839, #562 ) ) ;
#882 = CONICAL_SURFACE ( 'NONE', #316, 4.000000000000000000, 0.7853981633974500554 ) ;
#883 = CARTESIAN_POINT ( 'NONE',  ( 12.50000000000000355, 0.000000000000000000, 0.000000000000000000 ) ) ;
#884 = EDGE_LOOP ( 'NONE', ( #231, #805, #866, #728 ) ) ;
#885 = CARTESIAN_POINT ( 'NONE',  ( 1.000000000000007772, 0.000000000000000000, -4.000000000000000000 ) ) ;
#886 = CIRCLE ( 'NONE', #559, 1.850000000000003642 ) ;
#887 = DIRECTION ( 'NONE',  ( -1.000000000000000000, 0.000000000000000000, 0.000000000000000000 ) ) ;
#888 = ORIENTED_EDGE ( 'NONE', *, *, #1338, .F. ) ;
#889 = FACE_OUTER_BOUND ( 'NONE', #311, .T. ) ;
#890 = VERTEX_POINT ( 'NONE', #924 ) ;
#891 = DIRECTION ( 'NONE',  ( 0.000000000000000000, 0.000000000000000000, -1.000000000000000000 ) ) ;
#892 = VECTOR ( 'NONE', #529, 1000.000000000000000 ) ;
#893 = DIRECTION ( 'NONE',  ( 0.000000000000000000, 0.000000000000000000, 1.000000000000000000 ) ) ;
#894 = ORIENTED_EDGE ( 'NONE', *, *, #248, .F. ) ;
#895 = CONICAL_SURFACE ( 'NONE', #679, 3.000000000000000000, 0.7853981633974357335 ) ;
#896 = ORIENTED_EDGE ( 'NONE', *, *, #553, .F. ) ;
#897 = ADVANCED_FACE ( 'NONE', ( #280, #696 ), #1335, .T. ) ;
#898 = DIRECTION ( 'NONE',  ( 0.000000000000000000, 0.000000000000000000, 1.000000000000000000 ) ) ;
#899 = ORIENTED_EDGE ( 'NONE', *, *, #527, .F. ) ;
#900 = DIRECTION ( 'NONE',  ( 0.000000000000000000, 0.000000000000000000, -1.000000000000000000 ) ) ;
#901 = DIRECTION ( 'NONE',  ( 0.000000000000000000, 0.000000000000000000, 1.000000000000000000 ) ) ;
#902 = EDGE_LOOP ( 'NONE', ( #769, #526 ) ) ;
#903 = CYLINDRICAL_SURFACE ( 'NONE', #650, 3.000000000000003109 ) ;
#904 = EDGE_CURVE ( 'NONE', #890, #463, #1097, .T. ) ;
#905 = CARTESIAN_POINT ( 'NONE',  ( 39.69999999999999574, 0.000000000000000000, -2.500000000000004441 ) ) ;
#906 = AXIS2_PLACEMENT_3D ( 'NONE', #725, #1144, #534 ) ;
#907 = ORIENTED_EDGE ( 'NONE', *, *, #233, .F. ) ;
#908 = DIRECTION ( 'NONE',  ( -1.000000000000000000, 0.000000000000000000, 0.000000000000000000 ) ) ;
#909 = FILL_AREA_STYLE_COLOUR ( '', #116 ) ;
#910 = CIRCLE ( 'NONE', #6, 0.5999999999999998668 ) ;
#911 = VECTOR ( 'NONE', #928, 1000.000000000000000 ) ;
#912 = CARTESIAN_POINT ( 'NONE',  ( 9.548528137423877737, 0.000000000000000000, -3.000000000000000000 ) ) ;
#913 = CARTESIAN_POINT ( 'NONE',  ( 1.000000000000007772, 0.000000000000000000, -4.000000000000000000 ) ) ;
#914 = UNCERTAINTY_MEASURE_WITH_UNIT (LENGTH_MEASURE( 1.000000000000000082E-05 ), #13, 'distance_accuracy_value', 'NONE');
#915 = ORIENTED_EDGE ( 'NONE', *, *, #427, .T. ) ;
#916 = CARTESIAN_POINT ( 'NONE',  ( 11.40000000000000036, 0.000000000000000000, 3.600000000000000089 ) ) ;
#917 = EDGE_CURVE ( 'NONE', #860, #531, #791, .T. ) ;
#918 = CLOSED_SHELL ( 'NONE', ( #76, #403, #764, #1140, #550, #297, #1015, #778, #965, #972, #1175, #186, #56, #636, #1095, #1077, #19, #570, #1220, #171, #513, #511, #838, #672, #1300, #897, #331, #399, #110, #1293, #697, #569, #115, #719, #1285, #1235, #1258, #1122, #1116, #1103, #73, #152, #1043, #374, #34, #1194 ) ) ;
#919 = CARTESIAN_POINT ( 'NONE',  ( 9.548528137423877737, 4.408728476930471151E-16, 3.600000000000000089 ) ) ;
#920 = AXIS2_PLACEMENT_3D ( 'NONE', #966, #365, #42 ) ;
#921 = DIRECTION ( 'NONE',  ( 0.000000000000000000, 0.000000000000000000, -1.000000000000000000 ) ) ;
#922 = AXIS2_PLACEMENT_3D ( 'NONE', #308, #1146, #320 ) ;
#923 = EDGE_CURVE ( 'NONE', #206, #444, #22, .T. ) ;
#924 = CARTESIAN_POINT ( 'NONE',  ( 9.548528137423877737, 3.673940397442059868E-16, 3.000000000000000000 ) ) ;
#925 = DIRECTION ( 'NONE',  ( 0.000000000000000000, 1.224646799147353207E-16, 1.000000000000000000 ) ) ;
#926 = FACE_OUTER_BOUND ( 'NONE', #47, .T. ) ;
#927 = UNCERTAINTY_MEASURE_WITH_UNIT (LENGTH_MEASURE( 1.000000000000000082E-05 ), #1244, 'distance_accuracy_value', 'NONE');
#928 = DIRECTION ( 'NONE',  ( -0.7071067811865564545, 0.000000000000000000, 0.7071067811865386910 ) ) ;
#929 = CARTESIAN_POINT ( 'NONE',  ( 11.40000000000000036, 0.000000000000000000, 0.000000000000000000 ) ) ;
#930 = AXIS2_PLACEMENT_3D ( 'NONE', #57, #182, #995 ) ;
#931 = SURFACE_STYLE_FILL_AREA ( #1317 ) ;
#932 = AXIS2_PLACEMENT_3D ( 'NONE', #1091, #40, #551 ) ;
#933 = DIRECTION ( 'NONE',  ( 1.000000000000000000, -0.000000000000000000, -0.000000000000000000 ) ) ;
#934 = FILL_AREA_STYLE ('',( #840 ) ) ;
#935 = EDGE_CURVE ( 'NONE', #1011, #336, #191, .T. ) ;
#936 = EDGE_CURVE ( 'NONE', #1289, #466, #624, .T. ) ;
#937 = CIRCLE ( 'NONE', #523, 3.600000000000000089 ) ;
#938 = ORIENTED_EDGE ( 'NONE', *, *, #794, .F. ) ;
#939 = CARTESIAN_POINT ( 'NONE',  ( 17.80000000000000426, 0.000000000000000000, 0.000000000000000000 ) ) ;
#940 = CARTESIAN_POINT ( 'NONE',  ( 40.30000000000000426, 2.326828918379969393E-16, -1.899999999999999023 ) ) ;
#941 = PRESENTATION_STYLE_ASSIGNMENT (( #9 ) ) ;
#942 = CARTESIAN_POINT ( 'NONE',  ( 16.80000000000000071, -2.598076211353316012, -6.500000000000000000 ) ) ;
#943 = VERTEX_POINT ( 'NONE', #415 ) ;
#944 = CARTESIAN_POINT ( 'NONE',  ( 12.00000000000000000, 0.000000000000000000, 0.000000000000000000 ) ) ;
#945 = ORIENTED_EDGE ( 'NONE', *, *, #393, .F. ) ;
#946 = FACE_OUTER_BOUND ( 'NONE', #1150, .T. ) ;
#947 = TOROIDAL_SURFACE ( 'NONE', #906, 2.250000000000003553, 0.4000000000000000222 ) ;
#948 = DIRECTION ( 'NONE',  ( 1.000000000000000000, -0.000000000000000000, -0.000000000000000000 ) ) ;
#949 = VECTOR ( 'NONE', #621, 1000.000000000000000 ) ;
#950 = ORIENTED_EDGE ( 'NONE', *, *, #290, .T. ) ;
#951 = VECTOR ( 'NONE', #713, 1000.000000000000000 ) ;
#952 = PRODUCT_DEFINITION_CONTEXT ( 'detailed design', #846, 'design' ) ;
#953 = CARTESIAN_POINT ( 'NONE',  ( 8.300000000000000711, 4.898587196589412829E-16, 4.000000000000000000 ) ) ;
#954 = ORIENTED_EDGE ( 'NONE', *, *, #453, .T. ) ;
#955 = EDGE_CURVE ( 'NONE', #87, #1263, #8, .T. ) ;
#956 = CARTESIAN_POINT ( 'NONE',  ( 12.00000000000000000, -2.598076211353296472, -6.500000000000000000 ) ) ;
#957 = ORIENTED_EDGE ( 'NONE', *, *, #806, .T. ) ;
#958 = CONICAL_SURFACE ( 'NONE', #1134, 2.800000000000010925, 0.7853981633974407295 ) ;
#959 = AXIS2_PLACEMENT_3D ( 'NONE', #395, #1332, #800 ) ;
#960 = ORIENTED_EDGE ( 'NONE', *, *, #1026, .T. ) ;
#961 = FACE_OUTER_BOUND ( 'NONE', #173, .T. ) ;
#962 = VECTOR ( 'NONE', #1171, 1000.000000000000000 ) ;
#963 = ORIENTED_EDGE ( 'NONE', *, *, #196, .T. ) ;
#964 = CARTESIAN_POINT ( 'NONE',  ( 40.30000000000000426, 0.000000000000000000, 0.000000000000000000 ) ) ;
#965 = ADVANCED_FACE ( 'NONE', ( #203 ), #1046, .T. ) ;
#966 = CARTESIAN_POINT ( 'NONE',  ( 12.50000000000000355, 0.000000000000000000, 0.000000000000000000 ) ) ;
#967 = ORIENTED_EDGE ( 'NONE', *, *, #233, .T. ) ;
#968 = DIRECTION ( 'NONE',  ( 1.000000000000000000, -0.000000000000000000, -0.000000000000000000 ) ) ;
#969 = CARTESIAN_POINT ( 'NONE',  ( 32.48431457505078157, 0.000000000000000000, 0.000000000000000000 ) ) ;
#970 = CARTESIAN_POINT ( 'NONE',  ( 9.548528137423877737, 0.000000000000000000, 0.000000000000000000 ) ) ;
#971 = ORIENTED_EDGE ( 'NONE', *, *, #859, .F. ) ;
#972 = ADVANCED_FACE ( 'NONE', ( #305 ), #1255, .T. ) ;
#973 = CIRCLE ( 'NONE', #366, 4.000000000000000000 ) ;
#974 = CARTESIAN_POINT ( 'NONE',  ( 31.20000000000000284, 0.000000000000000000, -2.250000000000003553 ) ) ;
#975 = EDGE_LOOP ( 'NONE', ( #268, #993, #810, #585 ) ) ;
#976 = FACE_OUTER_BOUND ( 'NONE', #476, .T. ) ;
#977 = CYLINDRICAL_SURFACE ( 'NONE', #1219, 6.000000000000001776 ) ;
#978 = EDGE_CURVE ( 'NONE', #1045, #735, #386, .T. ) ;
#979 = ORIENTED_EDGE ( 'NONE', *, *, #14, .F. ) ;
#980 = DIRECTION ( 'NONE',  ( 1.000000000000000000, -0.000000000000000000, -0.000000000000000000 ) ) ;
#981 = VECTOR ( 'NONE', #808, 1000.000000000000000 ) ;
#982 = ORIENTED_EDGE ( 'NONE', *, *, #252, .F. ) ;
#983 = AXIS2_PLACEMENT_3D ( 'NONE', #1222, #1316, #1135 ) ;
#984 = CARTESIAN_POINT ( 'NONE',  ( 0.000000000000000000, 0.000000000000000000, 0.000000000000000000 ) ) ;
#985 = DIRECTION ( 'NONE',  ( 1.000000000000000000, -0.000000000000000000, -0.000000000000000000 ) ) ;
#986 = ORIENTED_EDGE ( 'NONE', *, *, #413, .F. ) ;
#987 = ORIENTED_EDGE ( 'NONE', *, *, #917, .T. ) ;
#988 = DIRECTION ( 'NONE',  ( 1.000000000000000000, -0.000000000000000000, -0.000000000000000000 ) ) ;
#989 = EDGE_LOOP ( 'NONE', ( #888, #183, #279, #1079 ) ) ;
#990 = DIRECTION ( 'NONE',  ( 0.000000000000000000, 0.000000000000000000, -1.000000000000000000 ) ) ;
#991 = DIRECTION ( 'NONE',  ( 1.000000000000000000, -0.000000000000000000, -0.000000000000000000 ) ) ;
#992 = ORIENTED_EDGE ( 'NONE', *, *, #1125, .T. ) ;
#993 = ORIENTED_EDGE ( 'NONE', *, *, #94, .T. ) ;
#994 = STYLED_ITEM ( 'NONE', ( #299 ), #491 ) ;
#995 = DIRECTION ( 'NONE',  ( 0.000000000000000000, 0.000000000000000000, -1.000000000000000000 ) ) ;
#996 = EDGE_CURVE ( 'NONE', #1162, #65, #669, .T. ) ;
#997 = ORIENTED_EDGE ( 'NONE', *, *, #935, .T. ) ;
#998 = DIRECTION ( 'NONE',  ( 1.000000000000000000, -0.000000000000000000, -0.000000000000000000 ) ) ;
#999 = EDGE_CURVE ( 'NONE', #1162, #1007, #731, .T. ) ;
#1000 =( NAMED_UNIT ( * ) SI_UNIT ( $, .STERADIAN. ) SOLID_ANGLE_UNIT ( ) );
#1001 = ORIENTED_EDGE ( 'NONE', *, *, #633, .T. ) ;
#1002 = DIRECTION ( 'NONE',  ( 0.000000000000000000, 0.000000000000000000, -1.000000000000000000 ) ) ;
#1003 = ORIENTED_EDGE ( 'NONE', *, *, #1179, .T. ) ;
#1004 = DIRECTION ( 'NONE',  ( 0.000000000000000000, 0.000000000000000000, -1.000000000000000000 ) ) ;
#1005 = AXIS2_PLACEMENT_3D ( 'NONE', #520, #552, #768 ) ;
#1006 = CARTESIAN_POINT ( 'NONE',  ( 12.00000000000000000, 2.598076211353293807, 6.500000000000000888 ) ) ;
#1007 = VERTEX_POINT ( 'NONE', #953 ) ;
#1008 = EDGE_CURVE ( 'NONE', #434, #1192, #1295, .T. ) ;
#1009 = CARTESIAN_POINT ( 'NONE',  ( 30.80000000000000071, 0.000000000000000000, 0.000000000000000000 ) ) ;
#1010 = CARTESIAN_POINT ( 'NONE',  ( 40.30000000000000426, 7.539491415784396189, 6.500000000000000000 ) ) ;
#1011 = VERTEX_POINT ( 'NONE', #4 ) ;
#1012 = DIRECTION ( 'NONE',  ( -0.7071067811865503483, 0.000000000000000000, 0.7071067811865446862 ) ) ;
#1013 = CARTESIAN_POINT ( 'NONE',  ( 31.20000000000000284, 0.000000000000000000, -1.850000000000003642 ) ) ;
#1014 = DIRECTION ( 'NONE',  ( 0.000000000000000000, 0.000000000000000000, -1.000000000000000000 ) ) ;
#1015 = ADVANCED_FACE ( 'NONE', ( #848 ), #947, .F. ) ;
#1016 = CARTESIAN_POINT ( 'NONE',  ( 18.30000000000000071, 0.000000000000000000, -3.000000000000002220 ) ) ;
#1017 =( GEOMETRIC_REPRESENTATION_CONTEXT ( 3 ) GLOBAL_UNCERTAINTY_ASSIGNED_CONTEXT ( ( #1031 ) ) GLOBAL_UNIT_ASSIGNED_CONTEXT ( ( #32, #343, #1284 ) ) REPRESENTATION_CONTEXT ( 'NONE', 'WORKASPACE' ) );
#1018 = ORIENTED_EDGE ( 'NONE', *, *, #609, .T. ) ;
#1019 = DIRECTION ( 'NONE',  ( 1.000000000000000000, -0.000000000000000000, -0.000000000000000000 ) ) ;
#1020 =( GEOMETRIC_REPRESENTATION_CONTEXT ( 3 ) GLOBAL_UNCERTAINTY_ASSIGNED_CONTEXT ( ( #914 ) ) GLOBAL_UNIT_ASSIGNED_CONTEXT ( ( #13, #1334, #516 ) ) REPRESENTATION_CONTEXT ( 'NONE', 'WORKASPACE' ) );
#1021 = FILL_AREA_STYLE ('',( #909 ) ) ;
#1022 = AXIS2_PLACEMENT_3D ( 'NONE', #1324, #908, #599 ) ;
#1023 = CARTESIAN_POINT ( 'NONE',  ( 9.548528137423877737, 0.000000000000000000, 0.000000000000000000 ) ) ;
#1024 = EDGE_CURVE ( 'NONE', #72, #1173, #819, .T. ) ;
#1025 = SURFACE_SIDE_STYLE ('',( #736 ) ) ;
#1026 = EDGE_CURVE ( 'NONE', #225, #50, #45, .T. ) ;
#1027 = DIRECTION ( 'NONE',  ( 1.000000000000000000, -0.000000000000000000, -0.000000000000000000 ) ) ;
#1028 = DIRECTION ( 'NONE',  ( 0.000000000000000000, 0.000000000000000000, 1.000000000000000000 ) ) ;
#1029 = DIRECTION ( 'NONE',  ( 1.000000000000000000, -0.000000000000000000, -0.000000000000000000 ) ) ;
#1031 = UNCERTAINTY_MEASURE_WITH_UNIT (LENGTH_MEASURE( 1.000000000000000082E-05 ), #32, 'distance_accuracy_value', 'NONE');
#1030 = APPLICATION_CONTEXT ( 'automotive_design' ) ;
#1032 = CARTESIAN_POINT ( 'NONE',  ( 33.30000000000001137, 0.000000000000000000, 0.000000000000000000 ) ) ;
#1033 = AXIS2_PLACEMENT_3D ( 'NONE', #944, #21, #425 ) ;
#1034 = CARTESIAN_POINT ( 'NONE',  ( 12.50000000000000355, -3.741657386773945326, -6.499999999999999112 ) ) ;
#1035 = AXIS2_PLACEMENT_3D ( 'NONE', #807, #1019, #1330 ) ;
#1036 = DIRECTION ( 'NONE',  ( 0.000000000000000000, -1.000000000000000000, 1.597519642372721571E-16 ) ) ;
#1037 = CONICAL_SURFACE ( 'NONE', #363, 4.000000000000000000, 0.7853981633974500554 ) ;
#1038 = VERTEX_POINT ( 'NONE', #1057 ) ;
#1039 =( NAMED_UNIT ( * ) SI_UNIT ( $, .STERADIAN. ) SOLID_ANGLE_UNIT ( ) );
#1040 = FACE_OUTER_BOUND ( 'NONE', #1184, .T. ) ;
#1041 = CIRCLE ( 'NONE', #675, 7.500000000000001776 ) ;
#1042 = CARTESIAN_POINT ( 'NONE',  ( 16.29999999999999716, -3.741657386773945770, -6.499999999999999112 ) ) ;
#1043 = ADVANCED_FACE ( 'NONE', ( #1082 ), #1037, .T. ) ;
#1044 = CIRCLE ( 'NONE', #676, 7.500000000000001776 ) ;
#1045 = VERTEX_POINT ( 'NONE', #548 ) ;
#1046 = CYLINDRICAL_SURFACE ( 'NONE', #1213, 2.500000000000004441 ) ;
#1047 = FACE_OUTER_BOUND ( 'NONE', #1110, .T. ) ;
#1048 = ORIENTED_EDGE ( 'NONE', *, *, #732, .T. ) ;
#1049 = EDGE_CURVE ( 'NONE', #1182, #860, #1276, .T. ) ;
#1050 = DIRECTION ( 'NONE',  ( 0.000000000000000000, 0.000000000000000000, 1.000000000000000000 ) ) ;
#1051 = DIRECTION ( 'NONE',  ( 1.000000000000000000, -0.000000000000000000, -0.000000000000000000 ) ) ;
#1052 = DIRECTION ( 'NONE',  ( -0.7071067811865564545, 8.659560562354824390E-17, -0.7071067811865386910 ) ) ;
#1053 = EDGE_CURVE ( 'NONE', #1038, #1257, #321, .T. ) ;
#1054 = ORIENTED_EDGE ( 'NONE', *, *, #195, .T. ) ;
#1055 =( NAMED_UNIT ( * ) PLANE_ANGLE_UNIT ( ) SI_UNIT ( $, .RADIAN. ) );
#1056 = AXIS2_PLACEMENT_3D ( 'NONE', #338, #1060, #257 ) ;
#1057 = CARTESIAN_POINT ( 'NONE',  ( 18.30000000000000071, 3.673940397442062826E-16, 3.000000000000002220 ) ) ;
#1058 = VERTEX_POINT ( 'NONE', #1071 ) ;
#1059 = ORIENTED_EDGE ( 'NONE', *, *, #1125, .F. ) ;
#1060 = DIRECTION ( 'NONE',  ( 1.000000000000000000, -0.000000000000000000, -0.000000000000000000 ) ) ;
#1061 = DIRECTION ( 'NONE',  ( 0.000000000000000000, 0.000000000000000000, 1.000000000000000000 ) ) ;
#1062 = ORIENTED_EDGE ( 'NONE', *, *, #189, .T. ) ;
#1063 = COLOUR_RGB ( '',0.6470588235294117974, 0.6196078431372549211, 0.5882352941176470784 ) ;
#1064 = AXIS2_PLACEMENT_3D ( 'NONE', #875, #1068, #573 ) ;
#1065 = PRESENTATION_LAYER_ASSIGNMENT (  '', '', ( #506 ) ) ;
#1066 = ORIENTED_EDGE ( 'NONE', *, *, #796, .T. ) ;
#1067 = CARTESIAN_POINT ( 'NONE',  ( 16.80000000000000071, 0.000000000000000000, 0.000000000000000000 ) ) ;
#1068 = DIRECTION ( 'NONE',  ( -1.000000000000000000, 0.000000000000000000, 0.000000000000000000 ) ) ;
#1069 = ORIENTED_EDGE ( 'NONE', *, *, #1074, .T. ) ;
#1070 = SHAPE_DEFINITION_REPRESENTATION ( #293, #491 ) ;
#1071 = CARTESIAN_POINT ( 'NONE',  ( 12.50000000000000355, -3.741657386773941774, 6.500000000000000888 ) ) ;
#1072 = ORIENTED_EDGE ( 'NONE', *, *, #136, .F. ) ;
#1073 = ORIENTED_EDGE ( 'NONE', *, *, #1053, .T. ) ;
#1074 = EDGE_CURVE ( 'NONE', #500, #685, #1128, .T. ) ;
#1075 = FACE_OUTER_BOUND ( 'NONE', #264, .T. ) ;
#1076 = CARTESIAN_POINT ( 'NONE',  ( 30.80000000000000071, 0.000000000000000000, 2.800000000000010925 ) ) ;
#1077 = ADVANCED_FACE ( 'NONE', ( #1183 ), #240, .T. ) ;
#1078 = AXIS2_PLACEMENT_3D ( 'NONE', #398, #1101, #898 ) ;
#1079 = ORIENTED_EDGE ( 'NONE', *, *, #413, .T. ) ;
#1080 = AXIS2_PLACEMENT_3D ( 'NONE', #610, #1138, #98 ) ;
#1081 = CIRCLE ( 'NONE', #450, 1.850000000000003642 ) ;
#1082 = FACE_OUTER_BOUND ( 'NONE', #1169, .T. ) ;
#1083 = STYLED_ITEM ( 'NONE', ( #333 ), #1077 ) ;
#1084 = ORIENTED_EDGE ( 'NONE', *, *, #936, .F. ) ;
#1085 = DIRECTION ( 'NONE',  ( 1.000000000000000000, -0.000000000000000000, -0.000000000000000000 ) ) ;
#1086 = DIRECTION ( 'NONE',  ( 0.000000000000000000, 0.000000000000000000, -1.000000000000000000 ) ) ;
#1087 = ORIENTED_EDGE ( 'NONE', *, *, #196, .F. ) ;
#1088 = DIRECTION ( 'NONE',  ( -0.000000000000000000, 1.597519642372721571E-16, 1.000000000000000000 ) ) ;
#1089 = AXIS2_PLACEMENT_3D ( 'NONE', #745, #117, #1254 ) ;
#1090 = VECTOR ( 'NONE', #512, 1000.000000000000000 ) ;
#1091 = CARTESIAN_POINT ( 'NONE',  ( 32.76715728752540002, 0.000000000000000000, 0.000000000000000000 ) ) ;
#1092 = CARTESIAN_POINT ( 'NONE',  ( 11.40000000000000036, 4.408728476930471151E-16, -3.600000000000000089 ) ) ;
#1093 = ORIENTED_EDGE ( 'NONE', *, *, #455, .T. ) ;
#1094 = FACE_OUTER_BOUND ( 'NONE', #1210, .T. ) ;
#1095 = ADVANCED_FACE ( 'NONE', ( #961 ), #273, .T. ) ;
#1096 = ORIENTED_EDGE ( 'NONE', *, *, #270, .T. ) ;
#1097 = LINE ( 'NONE', #379, #1233 ) ;
#1098 = DIRECTION ( 'NONE',  ( -0.000000000000000000, 0.000000000000000000, -1.000000000000000000 ) ) ;
#1099 = ORIENTED_EDGE ( 'NONE', *, *, #767, .F. ) ;
#1100 = PRODUCT_DEFINITION_FORMATION_WITH_SPECIFIED_SOURCE ( 'ANY', '', #503, .NOT_KNOWN. ) ;
#1101 = DIRECTION ( 'NONE',  ( 1.000000000000000000, -0.000000000000000000, -0.000000000000000000 ) ) ;
#1102 = ORIENTED_EDGE ( 'NONE', *, *, #1026, .F. ) ;
#1103 = ADVANCED_FACE ( 'NONE', ( #877 ), #532, .F. ) ;
#1104 = LINE ( 'NONE', #170, #1297 ) ;
#1105 = CIRCLE ( 'NONE', #517, 2.500000000000003997 ) ;
#1106 = CARTESIAN_POINT ( 'NONE',  ( 16.80000000000000071, 2.598076211353314235, -6.500000000000000000 ) ) ;
#1107 = ORIENTED_EDGE ( 'NONE', *, *, #996, .F. ) ;
#1108 = DIRECTION ( 'NONE',  ( 1.000000000000000000, -0.000000000000000000, -0.000000000000000000 ) ) ;
#1109 = PLANE ( 'NONE',  #642 ) ;
#1110 = EDGE_LOOP ( 'NONE', ( #982, #315, #641, #38 ) ) ;
#1111 = DIRECTION ( 'NONE',  ( 1.000000000000000000, 0.000000000000000000, -0.000000000000000000 ) ) ;
#1112 = PRESENTATION_LAYER_ASSIGNMENT (  '', '', ( #69 ) ) ;
#1113 = AXIS2_PLACEMENT_3D ( 'NONE', #851, #1154, #11 ) ;
#1114 = CARTESIAN_POINT ( 'NONE',  ( 16.80000000000000071, -2.598076211353311571, 6.500000000000000888 ) ) ;
#1115 = ORIENTED_EDGE ( 'NONE', *, *, #955, .F. ) ;
#1116 = ADVANCED_FACE ( 'NONE', ( #232 ), #867, .F. ) ;
#1117 = ORIENTED_EDGE ( 'NONE', *, *, #1049, .T. ) ;
#1118 = DIRECTION ( 'NONE',  ( -1.000000000000000000, 0.000000000000000000, 0.000000000000000000 ) ) ;
#1119 = CARTESIAN_POINT ( 'NONE',  ( 30.80000000000000071, 0.000000000000000000, 0.000000000000000000 ) ) ;
#1120 = ORIENTED_EDGE ( 'NONE', *, *, #553, .T. ) ;
#1121 = DIRECTION ( 'NONE',  ( 0.000000000000000000, 0.000000000000000000, -1.000000000000000000 ) ) ;
#1122 = ADVANCED_FACE ( 'NONE', ( #673 ), #39, .F. ) ;
#1123 = FACE_OUTER_BOUND ( 'NONE', #884, .T. ) ;
#1124 = DIRECTION ( 'NONE',  ( 0.000000000000000000, 0.000000000000000000, 1.000000000000000000 ) ) ;
#1125 = EDGE_CURVE ( 'NONE', #680, #394, #157, .T. ) ;
#1126 = DIRECTION ( 'NONE',  ( -1.000000000000000000, 0.000000000000000000, 0.000000000000000000 ) ) ;
#1127 = B_SPLINE_CURVE_WITH_KNOTS ( 'NONE', 3,
 ( #607, #193, #689, #1114 ),
 .UNSPECIFIED., .F., .F.,
 ( 4, 4 ),
 ( 1.545027413697845932E-06, 0.001240642113537694788 ),
 .UNSPECIFIED. ) ;
#1128 = CIRCLE ( 'NONE', #770, 0.4000000000000001887 ) ;
#1129 = CARTESIAN_POINT ( 'NONE',  ( 32.48431457505078157, 0.000000000000000000, 0.000000000000000000 ) ) ;
#1130 =( GEOMETRIC_REPRESENTATION_CONTEXT ( 3 ) GLOBAL_UNCERTAINTY_ASSIGNED_CONTEXT ( ( #1225 ) ) GLOBAL_UNIT_ASSIGNED_CONTEXT ( ( #351, #1055, #445 ) ) REPRESENTATION_CONTEXT ( 'NONE', 'WORKASPACE' ) );
#1131 =( LENGTH_UNIT ( ) NAMED_UNIT ( * ) SI_UNIT ( .MILLI., .METRE. ) );
#1132 = DIRECTION ( 'NONE',  ( 1.000000000000000000, -0.000000000000000000, -0.000000000000000000 ) ) ;
#1133 = DIRECTION ( 'NONE',  ( 0.000000000000000000, 0.000000000000000000, -1.000000000000000000 ) ) ;
#1134 = AXIS2_PLACEMENT_3D ( 'NONE', #1009, #1118, #1234 ) ;
#1135 = DIRECTION ( 'NONE',  ( 0.000000000000000000, 0.000000000000000000, -1.000000000000000000 ) ) ;
#1136 = CONICAL_SURFACE ( 'NONE', #653, 1.899999999999999023, 0.7853981633974442822 ) ;
#1137 = FACE_OUTER_BOUND ( 'NONE', #1193, .T. ) ;
#1138 = DIRECTION ( 'NONE',  ( 1.000000000000000000, 0.000000000000000000, -0.000000000000000000 ) ) ;
#1139 = DIRECTION ( 'NONE',  ( -0.7071067811865503483, 8.659560562354898346E-17, -0.7071067811865446862 ) ) ;
#1140 = ADVANCED_FACE ( 'NONE', ( #1094 ), #882, .T. ) ;
#1141 = CARTESIAN_POINT ( 'NONE',  ( 12.31372624326501786, 3.368279220068800761, -6.500000000000000000 ) ) ;
#1142 = CARTESIAN_POINT ( 'NONE',  ( 16.80000000000000071, 6.000000000000000888, -6.500000000000000888 ) ) ;
#1143 = ORIENTED_EDGE ( 'NONE', *, *, #668, .T. ) ;
#1144 = DIRECTION ( 'NONE',  ( 1.000000000000000000, -0.000000000000000000, -0.000000000000000000 ) ) ;
#1145 = VECTOR ( 'NONE', #301, 1000.000000000000000 ) ;
#1146 = DIRECTION ( 'NONE',  ( 1.000000000000000000, -0.000000000000000000, -0.000000000000000000 ) ) ;
#1147 = TOROIDAL_SURFACE ( 'NONE', #845, 2.250000000000003553, 0.4000000000000000222 ) ;
#1148 = PLANE ( 'NONE',  #759 ) ;
#1149 = AXIS2_PLACEMENT_3D ( 'NONE', #126, #1264, #1168 ) ;
#1150 = EDGE_LOOP ( 'NONE', ( #33, #24, #354, #1102 ) ) ;
#1151 = APPLICATION_PROTOCOL_DEFINITION ( 'draft international standard', 'automotive_design', 1998, #1030 ) ;
#1152 = CARTESIAN_POINT ( 'NONE',  ( 9.300000000000025580, 0.000000000000000000, 3.000000000000000000 ) ) ;
#1153 = CARTESIAN_POINT ( 'NONE',  ( 0.000000000000000000, 0.000000000000000000, -2.500000000000004441 ) ) ;
#1154 = DIRECTION ( 'NONE',  ( -1.000000000000000000, 0.000000000000000000, 0.000000000000000000 ) ) ;
#1155 = EDGE_CURVE ( 'NONE', #1217, #685, #451, .T. ) ;
#1156 = ORIENTED_EDGE ( 'NONE', *, *, #94, .F. ) ;
#1157 = DIRECTION ( 'NONE',  ( -1.000000000000000000, 0.000000000000000000, 0.000000000000000000 ) ) ;
#1158 = EDGE_CURVE ( 'NONE', #943, #369, #210, .T. ) ;
#1159 = DIRECTION ( 'NONE',  ( 0.000000000000000000, 0.000000000000000000, 1.000000000000000000 ) ) ;
#1160 = ORIENTED_EDGE ( 'NONE', *, *, #1338, .T. ) ;
#1161 = DIRECTION ( 'NONE',  ( 0.000000000000000000, 0.000000000000000000, -1.000000000000000000 ) ) ;
#1162 = VERTEX_POINT ( 'NONE', #795 ) ;
#1163 = ORIENTED_EDGE ( 'NONE', *, *, #1336, .T. ) ;
#1164 = CARTESIAN_POINT ( 'NONE',  ( 31.20000000000000284, 0.000000000000000000, 0.000000000000000000 ) ) ;
#1165 = CARTESIAN_POINT ( 'NONE',  ( 18.30000000000000071, 0.000000000000000000, 5.500000000000005329 ) ) ;
#1166 = EDGE_LOOP ( 'NONE', ( #671, #1277, #1268, #758 ) ) ;
#1167 = AXIS2_PLACEMENT_3D ( 'NONE', #964, #449, #442 ) ;
#1168 = DIRECTION ( 'NONE',  ( 0.000000000000000000, 0.000000000000000000, -1.000000000000000000 ) ) ;
#1169 = EDGE_LOOP ( 'NONE', ( #757, #260, #111, #469 ) ) ;
#1170 = EDGE_LOOP ( 'NONE', ( #821, #31 ) ) ;
#1171 = DIRECTION ( 'NONE',  ( 0.000000000000000000, 1.000000000000000000, -1.065013094915147591E-16 ) ) ;
#1172 = DIRECTION ( 'NONE',  ( 0.000000000000000000, 0.000000000000000000, 1.000000000000000000 ) ) ;
#1173 = VERTEX_POINT ( 'NONE', #584 ) ;
#1174 = EDGE_LOOP ( 'NONE', ( #1072, #863, #288, #238 ) ) ;
#1175 = ADVANCED_FACE ( 'NONE', ( #889 ), #597, .T. ) ;
#1176 = AXIS2_PLACEMENT_3D ( 'NONE', #546, #841, #314 ) ;
#1177 = FILL_AREA_STYLE ('',( #247 ) ) ;
#1178 = EDGE_LOOP ( 'NONE', ( #1308, #485, #979, #411 ) ) ;
#1179 = EDGE_CURVE ( 'NONE', #790, #856, #82, .T. ) ;
#1180 = CARTESIAN_POINT ( 'NONE',  ( 16.80000000000000071, 6.000000000000002665, 6.500000000000000000 ) ) ;
#1181 = DIRECTION ( 'NONE',  ( 0.000000000000000000, -1.224646799147353207E-16, 1.000000000000000000 ) ) ;
#1182 = VERTEX_POINT ( 'NONE', #1202 ) ;
#1183 = FACE_OUTER_BOUND ( 'NONE', #747, .T. ) ;
#1184 = EDGE_LOOP ( 'NONE', ( #894, #441, #780, #1099 ) ) ;
#1185 = DIRECTION ( 'NONE',  ( -0.000000000000000000, -1.000000000000000000, -0.000000000000000000 ) ) ;
#1186 = CARTESIAN_POINT ( 'NONE',  ( 16.80000000000000071, 2.598076211353313347, 6.500000000000000888 ) ) ;
#1187 = CONICAL_SURFACE ( 'NONE', #664, 2.800000000000010925, 0.7853981633974407295 ) ;
#1188 = EDGE_LOOP ( 'NONE', ( #971, #666, #454, #588 ) ) ;
#1189 = DIRECTION ( 'NONE',  ( 0.000000000000000000, 0.000000000000000000, -1.000000000000000000 ) ) ;
#1190 = DIRECTION ( 'NONE',  ( 0.000000000000000000, 0.000000000000000000, -1.000000000000000000 ) ) ;
#1191 = LINE ( 'NONE', #266, #1283 ) ;
#1192 = VERTEX_POINT ( 'NONE', #263 ) ;
#1193 = EDGE_LOOP ( 'NONE', ( #1197, #1073, #256, #849 ) ) ;
#1194 = ADVANCED_FACE ( 'NONE', ( #591 ), #1187, .T. ) ;
#1195 = DIRECTION ( 'NONE',  ( -1.000000000000000000, 0.000000000000000000, 0.000000000000000000 ) ) ;
#1196 = CONICAL_SURFACE ( 'NONE', #198, 5.500000000000005329, 0.7853981633974482790 ) ;
#1197 = ORIENTED_EDGE ( 'NONE', *, *, #748, .F. ) ;
#1198 = AXIS2_PLACEMENT_3D ( 'NONE', #929, #1157, #1028 ) ;
#1199 = CARTESIAN_POINT ( 'NONE',  ( 16.80000000000000071, 6.000000000000001776, 0.000000000000000000 ) ) ;
#1200 = CARTESIAN_POINT ( 'NONE',  ( 11.40000000000000036, 0.000000000000000000, 0.000000000000000000 ) ) ;
#1201 = ORIENTED_EDGE ( 'NONE', *, *, #561, .F. ) ;
#1202 = CARTESIAN_POINT ( 'NONE',  ( 32.76715728752540002, 2.735344936727870923E-16, 1.967157287525385989 ) ) ;
#1203 = ORIENTED_EDGE ( 'NONE', *, *, #935, .F. ) ;
#1204 = DIRECTION ( 'NONE',  ( 1.000000000000000000, -0.000000000000000000, -0.000000000000000000 ) ) ;
#1205 = B_SPLINE_CURVE_WITH_KNOTS ( 'NONE', 3,
 ( #1034, #827, #1259, #956 ),
 .UNSPECIFIED., .F., .F.,
 ( 4, 4 ),
 ( 1.545027413701168630E-06, 0.001240642113537716038 ),
 .UNSPECIFIED. ) ;
#1206 = CARTESIAN_POINT ( 'NONE',  ( 18.30000000000000071, 7.041719095097284824E-16, -5.500000000000005329 ) ) ;
#1207 = VERTEX_POINT ( 'NONE', #1208 ) ;
#1208 = CARTESIAN_POINT ( 'NONE',  ( 40.30000000000000426, 0.000000000000000000, 1.899999999999999023 ) ) ;
#1209 = PRESENTATION_LAYER_ASSIGNMENT (  '', '', ( #43 ) ) ;
#1210 = EDGE_LOOP ( 'NONE', ( #378, #1299, #146, #1256 ) ) ;
#1211 = DIRECTION ( 'NONE',  ( -1.000000000000000000, 0.000000000000000000, 0.000000000000000000 ) ) ;
#1212 = EDGE_CURVE ( 'NONE', #790, #1273, #269, .T. ) ;
#1213 = AXIS2_PLACEMENT_3D ( 'NONE', #215, #630, #1133 ) ;
#1214 = DIRECTION ( 'NONE',  ( -1.000000000000000000, 0.000000000000000000, 0.000000000000000000 ) ) ;
#1215 = DIRECTION ( 'NONE',  ( -1.000000000000000000, 0.000000000000000000, 0.000000000000000000 ) ) ;
#1216 = EDGE_CURVE ( 'NONE', #1289, #765, #1325, .T. ) ;
#1217 = VERTEX_POINT ( 'NONE', #278 ) ;
#1218 = CARTESIAN_POINT ( 'NONE',  ( 8.300000000000000711, 0.000000000000000000, 0.000000000000000000 ) ) ;
#1219 = AXIS2_PLACEMENT_3D ( 'NONE', #151, #137, #340 ) ;
#1220 = ADVANCED_FACE ( 'NONE', ( #70 ), #1230, .T. ) ;
#1221 = VECTOR ( 'NONE', #1051, 1000.000000000000000 ) ;
#1222 = CARTESIAN_POINT ( 'NONE',  ( 18.30000000000000071, 0.000000000000000000, 0.000000000000000000 ) ) ;
#1223 = FACE_OUTER_BOUND ( 'NONE', #1246, .T. ) ;
#1224 = FACE_BOUND ( 'NONE', #902, .T. ) ;
#1225 = UNCERTAINTY_MEASURE_WITH_UNIT (LENGTH_MEASURE( 1.000000000000000082E-05 ), #351, 'distance_accuracy_value', 'NONE');
#1226 = FACE_OUTER_BOUND ( 'NONE', #831, .T. ) ;
#1227 = SURFACE_SIDE_STYLE ('',( #815 ) ) ;
#1228 = DIRECTION ( 'NONE',  ( 0.000000000000000000, 0.000000000000000000, -1.000000000000000000 ) ) ;
#1229 = FILL_AREA_STYLE ('',( #324 ) ) ;
#1230 = CONICAL_SURFACE ( 'NONE', #515, 7.500000000000001776, 0.7853981633974533860 ) ;
#1231 = CARTESIAN_POINT ( 'NONE',  ( 0.000000000000000000, 0.000000000000000000, -3.000000000000000000 ) ) ;
#1232 =( NAMED_UNIT ( * ) PLANE_ANGLE_UNIT ( ) SI_UNIT ( $, .RADIAN. ) );
#1233 = VECTOR ( 'NONE', #163, 1000.000000000000000 ) ;
#1234 = DIRECTION ( 'NONE',  ( 0.000000000000000000, 0.000000000000000000, 1.000000000000000000 ) ) ;
#1235 = ADVANCED_FACE ( 'NONE', ( #484 ), #250, .T. ) ;
#1236 = DIRECTION ( 'NONE',  ( -1.000000000000000000, 0.000000000000000000, 0.000000000000000000 ) ) ;
#1237 = SURFACE_SIDE_STYLE ('',( #406 ) ) ;
#1238 = AXIS2_PLACEMENT_3D ( 'NONE', #692, #302, #408 ) ;
#1239 = DIRECTION ( 'NONE',  ( 0.000000000000000000, 0.000000000000000000, -1.000000000000000000 ) ) ;
#1240 = CIRCLE ( 'NONE', #29, 5.500000000000005329 ) ;
#1241 = CARTESIAN_POINT ( 'NONE',  ( 30.60000000000000497, 3.673940397442063319E-16, 3.000000000000003109 ) ) ;
#1242 = ORIENTED_EDGE ( 'NONE', *, *, #652, .T. ) ;
#1243 = CARTESIAN_POINT ( 'NONE',  ( 39.69999999999999574, 0.000000000000000000, 0.000000000000000000 ) ) ;
#1244 =( LENGTH_UNIT ( ) NAMED_UNIT ( * ) SI_UNIT ( .MILLI., .METRE. ) );
#1245 = DIRECTION ( 'NONE',  ( 0.000000000000000000, 0.000000000000000000, -1.000000000000000000 ) ) ;
#1246 = EDGE_LOOP ( 'NONE', ( #1087, #267, #899, #448 ) ) ;
#1247 = CARTESIAN_POINT ( 'NONE',  ( 0.000000000000000000, 3.061616997868388072E-16, 2.500000000000004441 ) ) ;
#1248 = AXIS2_PLACEMENT_3D ( 'NONE', #658, #980, #1161 ) ;
#1249 = EDGE_CURVE ( 'NONE', #820, #1217, #603, .T. ) ;
#1250 = CARTESIAN_POINT ( 'NONE',  ( 16.80000000000000071, 0.000000000000000000, 0.000000000000000000 ) ) ;
#1251 = CIRCLE ( 'NONE', #930, 1.967157287525385989 ) ;
#1252 = B_SPLINE_CURVE_WITH_KNOTS ( 'NONE', 3,
 ( #436, #539, #1141, #625 ),
 .UNSPECIFIED., .F., .F.,
 ( 4, 4 ),
 ( 0.006503922416289770539, 0.007730315640286001058 ),
 .UNSPECIFIED. ) ;
#1253 = CIRCLE ( 'NONE', #339, 6.000000000000001776 ) ;
#1254 = DIRECTION ( 'NONE',  ( 0.000000000000000000, 0.000000000000000000, -1.000000000000000000 ) ) ;
#1255 = CONICAL_SURFACE ( 'NONE', #623, 2.500000000000003997, 0.7853981633974554954 ) ;
#1256 = ORIENTED_EDGE ( 'NONE', *, *, #627, .F. ) ;
#1257 = VERTEX_POINT ( 'NONE', #1016 ) ;
#1258 = ADVANCED_FACE ( 'NONE', ( #190 ), #1109, .F. ) ;
#1259 = CARTESIAN_POINT ( 'NONE',  ( 12.14400869666768479, -2.986079023691403211, -6.499999999999999112 ) ) ;
#1260 = AXIS2_PLACEMENT_3D ( 'NONE', #275, #200, #1124 ) ;
#1261 = FACE_OUTER_BOUND ( 'NONE', #286, .T. ) ;
#1262 = CIRCLE ( 'NONE', #1064, 3.000000000000000000 ) ;
#1263 = VERTEX_POINT ( 'NONE', #905 ) ;
#1264 = DIRECTION ( 'NONE',  ( 1.000000000000000000, -0.000000000000000000, -0.000000000000000000 ) ) ;
#1265 = ORIENTED_EDGE ( 'NONE', *, *, #530, .F. ) ;
#1266 = CARTESIAN_POINT ( 'NONE',  ( 33.30000000000001137, 0.000000000000000000, 0.000000000000000000 ) ) ;
#1267 = DIRECTION ( 'NONE',  ( -1.000000000000000000, 0.000000000000000000, 0.000000000000000000 ) ) ;
#1268 = ORIENTED_EDGE ( 'NONE', *, *, #1336, .F. ) ;
#1269 = DIRECTION ( 'NONE',  ( -1.000000000000000000, 0.000000000000000000, 0.000000000000000000 ) ) ;
#1270 = DIRECTION ( 'NONE',  ( 0.000000000000000000, 0.000000000000000000, 1.000000000000000000 ) ) ;
#1271 = CONICAL_SURFACE ( 'NONE', #84, 6.999999999999999112, 0.7853981633974500554 ) ;
#1272 = PLANE ( 'NONE',  #51 ) ;
#1273 = VERTEX_POINT ( 'NONE', #390 ) ;
#1274 = CIRCLE ( 'NONE', #253, 3.000000000000003109 ) ;
#1275 = EDGE_CURVE ( 'NONE', #790, #1182, #1251, .T. ) ;
#1276 = LINE ( 'NONE', #742, #602 ) ;
#1277 = ORIENTED_EDGE ( 'NONE', *, *, #310, .T. ) ;
#1278 = ORIENTED_EDGE ( 'NONE', *, *, #147, .F. ) ;
#1279 = CARTESIAN_POINT ( 'NONE',  ( 12.50000000000000178, 3.741657386773943550, -6.500000000000000000 ) ) ;
#1280 = CARTESIAN_POINT ( 'NONE',  ( 32.48431457505078157, 2.265596578422607538E-16, 1.850000000000003642 ) ) ;
#1281 = ORIENTED_EDGE ( 'NONE', *, *, #613, .T. ) ;
#1282 = VECTOR ( 'NONE', #1052, 1000.000000000000000 ) ;
#1283 = VECTOR ( 'NONE', #164, 1000.000000000000114 ) ;
#1284 =( NAMED_UNIT ( * ) SI_UNIT ( $, .STERADIAN. ) SOLID_ANGLE_UNIT ( ) );
#1285 = ADVANCED_FACE ( 'NONE', ( #1298 ), #1271, .T. ) ;
#1286 = ORIENTED_EDGE ( 'NONE', *, *, #418, .T. ) ;
#1287 = CARTESIAN_POINT ( 'NONE',  ( 12.31372624326501786, -3.368279220068798541, 6.500000000000000888 ) ) ;
#1288 = DIRECTION ( 'NONE',  ( 0.000000000000000000, 0.000000000000000000, -1.000000000000000000 ) ) ;
#1289 = VERTEX_POINT ( 'NONE', #913 ) ;
#1290 = CARTESIAN_POINT ( 'NONE',  ( 31.20000000000000284, 0.000000000000000000, 0.000000000000000000 ) ) ;
#1291 = EDGE_LOOP ( 'NONE', ( #12, #226 ) ) ;
#1292 = DIRECTION ( 'NONE',  ( -1.000000000000000000, 0.000000000000000000, 0.000000000000000000 ) ) ;
#1293 = ADVANCED_FACE ( 'NONE', ( #161, #1224 ), #681, .T. ) ;
#1294 = LINE ( 'NONE', #761, #328 ) ;
#1295 = CIRCLE ( 'NONE', #1033, 6.999999999999992006 ) ;
#1296 = ORIENTED_EDGE ( 'NONE', *, *, #711, .T. ) ;
#1297 = VECTOR ( 'NONE', #783, 999.9999999999998863 ) ;
#1298 = FACE_OUTER_BOUND ( 'NONE', #1174, .T. ) ;
#1299 = ORIENTED_EDGE ( 'NONE', *, *, #83, .T. ) ;
#1300 = ADVANCED_FACE ( 'NONE', ( #102 ), #414, .T. ) ;
#1301 = FACE_OUTER_BOUND ( 'NONE', #989, .T. ) ;
#1302 = DIRECTION ( 'NONE',  ( 0.000000000000000000, 0.000000000000000000, -1.000000000000000000 ) ) ;
#1303 = EDGE_CURVE ( 'NONE', #72, #890, #842, .T. ) ;
#1304 = ORIENTED_EDGE ( 'NONE', *, *, #1303, .F. ) ;
#1305 = VECTOR ( 'NONE', #488, 1000.000000000000000 ) ;
#1306 = DIRECTION ( 'NONE',  ( 0.000000000000000000, 0.000000000000000000, -1.000000000000000000 ) ) ;
#1307 = CIRCLE ( 'NONE', #717, 6.000000000000001776 ) ;
#1308 = ORIENTED_EDGE ( 'NONE', *, *, #678, .F. ) ;
#1309 = COLOUR_RGB ( '',0.6470588235294117974, 0.6196078431372549211, 0.5882352941176470784 ) ;
#1310 = CARTESIAN_POINT ( 'NONE',  ( 32.48431457505078157, 0.000000000000000000, -1.850000000000003642 ) ) ;
#1311 = SURFACE_STYLE_USAGE ( .BOTH. , #1227 ) ;
#1312 = ORIENTED_EDGE ( 'NONE', *, *, #978, .T. ) ;
#1313 = DIRECTION ( 'NONE',  ( 0.000000000000000000, 0.000000000000000000, -1.000000000000000000 ) ) ;
#1314 = ORIENTED_EDGE ( 'NONE', *, *, #1008, .F. ) ;
#1315 = LINE ( 'NONE', #192, #300 ) ;
#1316 = DIRECTION ( 'NONE',  ( 1.000000000000000000, -0.000000000000000000, -0.000000000000000000 ) ) ;
#1317 = FILL_AREA_STYLE ('',( #699 ) ) ;
#1318 = EDGE_CURVE ( 'NONE', #434, #660, #825, .T. ) ;
#1319 = COLOUR_RGB ( '',0.6470588235294117974, 0.6196078431372549211, 0.5882352941176470784 ) ;
#1320 = DIRECTION ( 'NONE',  ( 0.000000000000000000, 0.000000000000000000, 1.000000000000000000 ) ) ;
#1321 = EDGE_CURVE ( 'NONE', #1263, #531, #772, .T. ) ;
#1322 = VECTOR ( 'NONE', #577, 1000.000000000000000 ) ;
#1323 = ORIENTED_EDGE ( 'NONE', *, *, #128, .T. ) ;
#1324 = CARTESIAN_POINT ( 'NONE',  ( 0.000000000000000000, 0.000000000000000000, 0.000000000000000000 ) ) ;
#1325 = CIRCLE ( 'NONE', #1078, 4.000000000000000000 ) ;
#1326 = DIRECTION ( 'NONE',  ( 1.000000000000000000, -0.000000000000000000, -0.000000000000000000 ) ) ;
#1327 = CARTESIAN_POINT ( 'NONE',  ( 33.30000000000001137, 0.000000000000000000, 0.000000000000000000 ) ) ;
#1328 = DIRECTION ( 'NONE',  ( 0.000000000000000000, -1.065013094915147591E-16, -1.000000000000000000 ) ) ;
#1329 = ORIENTED_EDGE ( 'NONE', *, *, #455, .F. ) ;
#1330 = DIRECTION ( 'NONE',  ( 0.000000000000000000, 0.000000000000000000, -1.000000000000000000 ) ) ;
#1331 =( GEOMETRIC_REPRESENTATION_CONTEXT ( 3 ) GLOBAL_UNCERTAINTY_ASSIGNED_CONTEXT ( ( #847 ) ) GLOBAL_UNIT_ASSIGNED_CONTEXT ( ( #396, #706, #828 ) ) REPRESENTATION_CONTEXT ( 'NONE', 'WORKASPACE' ) );
#1332 = DIRECTION ( 'NONE',  ( -1.000000000000000000, 0.000000000000000000, 0.000000000000000000 ) ) ;
#1333 = CARTESIAN_POINT ( 'NONE',  ( 16.80000000000000071, 0.000000000000000000, -6.000000000000001776 ) ) ;
#1334 =( NAMED_UNIT ( * ) PLANE_ANGLE_UNIT ( ) SI_UNIT ( $, .RADIAN. ) );
#1335 = PLANE ( 'NONE',  #229 ) ;
#1336 = EDGE_CURVE ( 'NONE', #336, #1011, #3, .T. ) ;
#1337 = CARTESIAN_POINT ( 'NONE',  ( 0.000000000000000000, 4.898587196589412829E-16, 4.000000000000000000 ) ) ;
#1338 = EDGE_CURVE ( 'NONE', #820, #367, #201, .T. ) ;
ENDSEC;
END-ISO-10303-21;
