ISO-10303-21;
HEADER;
FILE_DESCRIPTION (( 'STEP AP214' ),
    '1' );
FILE_NAME ('202500614-10103P01.STEP',
    '2026-02-10T10:12:30',
    ( '' ),
    ( '' ),
    'SwSTEP 2.0',
    'SolidWorks 2021',
    '' );
FILE_SCHEMA (( 'AUTOMOTIVE_DESIGN' ));
ENDSEC;

DATA;
#1 = ORIENTED_EDGE ( 'NONE', *, *, #582, .F. ) ;
#2 = ADVANCED_FACE ( 'NONE', ( #313, #877 ), #859, .F. ) ;
#3 = ORIENTED_EDGE ( 'NONE', *, *, #879, .F. ) ;
#4 = LINE ( 'NONE', #271, #733 ) ;
#5 = CARTESIAN_POINT ( 'NONE',  ( 3.789270720970718376, 7.713431276090074284, 1.665271496300007481 ) ) ;
#6 = ORIENTED_EDGE ( 'NONE', *, *, #436, .T. ) ;
#7 = CARTESIAN_POINT ( 'NONE',  ( 3.404506230274921830, 11.09984222307691581, -0.1424433318432423989 ) ) ;
#8 = UNCERTAINTY_MEASURE_WITH_UNIT (LENGTH_MEASURE( 1.000000000000000082E-05 ), #613, 'distance_accuracy_value', 'NONE');
#9 = COLOUR_RGB ( '',0.8980392156862745390, 0.9176470588235293713, 0.9294117647058823817 ) ;
#10 = AXIS2_PLACEMENT_3D ( 'NONE', #905, #359, #170 ) ;
#11 = ORIENTED_EDGE ( 'NONE', *, *, #1080, .T. ) ;
#12 = VECTOR ( 'NONE', #874, 1000.000000000000000 ) ;
#13 = AXIS2_PLACEMENT_3D ( 'NONE', #897, #350, #69 ) ;
#14 = FACE_OUTER_BOUND ( 'NONE', #487, .T. ) ;
#15 = SURFACE_STYLE_USAGE ( .BOTH. , #462 ) ;
#16 = EDGE_CURVE ( 'NONE', #467, #36, #767, .T. ) ;
#17 = ORIENTED_EDGE ( 'NONE', *, *, #1004, .F. ) ;
#18 = FACE_OUTER_BOUND ( 'NONE', #920, .T. ) ;
#19 = FACE_OUTER_BOUND ( 'NONE', #999, .T. ) ;
#20 = EDGE_CURVE ( 'NONE', #269, #346, #405, .T. ) ;
#21 = VERTEX_POINT ( 'NONE', #1030 ) ;
#22 = CARTESIAN_POINT ( 'NONE',  ( 3.999999999999996447, 9.000000000000001776, -7.500000000000000000 ) ) ;
#23 = DIRECTION ( 'NONE',  ( -0.7071067811865509034, -0.7071067811865441310, 8.177564888978038544E-17 ) ) ;
#24 = MECHANICAL_DESIGN_GEOMETRIC_PRESENTATION_REPRESENTATION (  '', ( #1127 ), #1166 ) ;
#25 = ORIENTED_EDGE ( 'NONE', *, *, #1092, .F. ) ;
#26 = EDGE_CURVE ( 'NONE', #308, #634, #391, .T. ) ;
#27 = CIRCLE ( 'NONE', #143, 2.499999999999996891 ) ;
#28 = ORIENTED_EDGE ( 'NONE', *, *, #672, .F. ) ;
#29 = VECTOR ( 'NONE', #499, 999.9999999999998863 ) ;
#30 = CARTESIAN_POINT ( 'NONE',  ( 3.789400859625304374, 10.29702118385947074, -1.673324206256560087 ) ) ;
#31 = AXIS2_PLACEMENT_3D ( 'NONE', #367, #293, #203 ) ;
#32 = DIRECTION ( 'NONE',  ( 1.000000000000000000, 0.000000000000000000, 0.000000000000000000 ) ) ;
#33 = LINE ( 'NONE', #306, #1001 ) ;
#34 = ORIENTED_EDGE ( 'NONE', *, *, #667, .T. ) ;
#35 = EDGE_CURVE ( 'NONE', #894, #445, #220, .T. ) ;
#36 = VERTEX_POINT ( 'NONE', #970 ) ;
#37 =( LENGTH_UNIT ( ) NAMED_UNIT ( * ) SI_UNIT ( .MILLI., .METRE. ) );
#38 = CARTESIAN_POINT ( 'NONE',  ( 12.00000000000000000, 1.000000000000000888, 7.500000000000001776 ) ) ;
#39 = DIRECTION ( 'NONE',  ( 9.637352644315605104E-17, 1.000000000000000000, -1.114542791890763197E-32 ) ) ;
#40 = ORIENTED_EDGE ( 'NONE', *, *, #20, .F. ) ;
#41 = CARTESIAN_POINT ( 'NONE',  ( 28.00000000000001066, 25.00000000000000000, -5.500000000000003553 ) ) ;
#42 = SURFACE_STYLE_USAGE ( .BOTH. , #416 ) ;
#43 = MANIFOLD_SOLID_BREP ( 'M5 Gewindebohrung1', #318 ) ;
#44 = LINE ( 'NONE', #1136, #343 ) ;
#45 = CONICAL_SURFACE ( 'NONE', #389, 3.999999999999996447, 0.7853981633974344012 ) ;
#46 = ORIENTED_EDGE ( 'NONE', *, *, #641, .T. ) ;
#47 = DIRECTION ( 'NONE',  ( 0.000000000000000000, -1.000000000000000000, 0.000000000000000000 ) ) ;
#48 = CIRCLE ( 'NONE', #523, 2.499999999999998668 ) ;
#49 = AXIS2_PLACEMENT_3D ( 'NONE', #286, #1025, #654 ) ;
#50 = PRESENTATION_STYLE_ASSIGNMENT (( #1122 ) ) ;
#51 = EDGE_CURVE ( 'NONE', #141, #674, #919, .T. ) ;
#52 =( LENGTH_UNIT ( ) NAMED_UNIT ( * ) SI_UNIT ( .MILLI., .METRE. ) );
#53 = VERTEX_POINT ( 'NONE', #272 ) ;
#54 = CARTESIAN_POINT ( 'NONE',  ( 4.000000000000034639, 9.139869065156149830, 2.100000000000066702 ) ) ;
#55 = CARTESIAN_POINT ( 'NONE',  ( -8.673617379884037444E-16, 9.000000000000001776, -7.500000000000000000 ) ) ;
#56 = EDGE_CURVE ( 'NONE', #493, #872, #912, .T. ) ;
#57 = CARTESIAN_POINT ( 'NONE',  ( -10.99999999999998934, 2.168404344971010840E-16, 7.499999999999999112 ) ) ;
#58 = DIRECTION ( 'NONE',  ( 0.000000000000000000, -1.000000000000000000, 0.000000000000000000 ) ) ;
#59 = VERTEX_POINT ( 'NONE', #538 ) ;
#60 = CARTESIAN_POINT ( 'NONE',  ( 3.999999999999995559, 9.000000000000001776, 7.249999999999992895 ) ) ;
#61 = DIRECTION ( 'NONE',  ( -1.000000000000000000, 9.637352644315605104E-17, 0.000000000000000000 ) ) ;
#62 =( NAMED_UNIT ( * ) PLANE_ANGLE_UNIT ( ) SI_UNIT ( $, .RADIAN. ) );
#63 = EDGE_LOOP ( 'NONE', ( #235, #992, #240, #452 ) ) ;
#64 = EDGE_CURVE ( 'NONE', #560, #427, #1077, .T. ) ;
#65 = CIRCLE ( 'NONE', #1078, 2.499999999999996891 ) ;
#66 = DIRECTION ( 'NONE',  ( -0.000000000000000000, 1.000000000000000000, -0.000000000000000000 ) ) ;
#67 = SURFACE_SIDE_STYLE ('',( #344 ) ) ;
#68 = VECTOR ( 'NONE', #864, 1000.000000000000000 ) ;
#69 = DIRECTION ( 'NONE',  ( -1.000000000000000000, 0.000000000000000000, 0.000000000000000000 ) ) ;
#70 = CIRCLE ( 'NONE', #267, 3.999999999999996447 ) ;
#71 = CYLINDRICAL_SURFACE ( 'NONE', #390, 3.999999999999997335 ) ;
#72 = ORIENTED_EDGE ( 'NONE', *, *, #51, .T. ) ;
#73 = ADVANCED_FACE ( 'NONE', ( #1174 ), #458, .F. ) ;
#74 = CARTESIAN_POINT ( 'NONE',  ( 10.99999999999999289, 0.000000000000000000, 7.499999999999997335 ) ) ;
#75 = DIRECTION ( 'NONE',  ( 1.000000000000000000, 0.000000000000000000, -1.156482317317871971E-16 ) ) ;
#76 = DIRECTION ( 'NONE',  ( 0.000000000000000000, 0.000000000000000000, -1.000000000000000000 ) ) ;
#77 = CARTESIAN_POINT ( 'NONE',  ( -29.99999999999997868, 25.00000000000000000, 5.500000000000001776 ) ) ;
#78 = VERTEX_POINT ( 'NONE', #172 ) ;
#79 = DIRECTION ( 'NONE',  ( -9.637352644315605104E-17, -1.000000000000000000, 1.114542791890763197E-32 ) ) ;
#80 = DIRECTION ( 'NONE',  ( -1.156482317317871971E-16, -0.000000000000000000, -1.000000000000000000 ) ) ;
#81 = CARTESIAN_POINT ( 'NONE',  ( 3.529115083666794384, 7.116132041948866060, 0.9378243726494667198 ) ) ;
#82 = UNCERTAINTY_MEASURE_WITH_UNIT (LENGTH_MEASURE( 1.000000000000000082E-05 ), #995, 'distance_accuracy_value', 'NONE');
#83 = LINE ( 'NONE', #443, #530 ) ;
#84 = CARTESIAN_POINT ( 'NONE',  ( 30.00000000000001421, 0.000000000000000000, -7.500000000000003553 ) ) ;
#85 = EDGE_LOOP ( 'NONE', ( #505, #1096, #1045, #1101 ) ) ;
#86 = CARTESIAN_POINT ( 'NONE',  ( 3.751589088945905370, 7.608559509473520777, -1.578633229499410096 ) ) ;
#87 = MECHANICAL_DESIGN_GEOMETRIC_PRESENTATION_REPRESENTATION (  '', ( #773 ), #903 ) ;
#88 = EDGE_CURVE ( 'NONE', #619, #53, #325, .T. ) ;
#89 =( GEOMETRIC_REPRESENTATION_CONTEXT ( 3 ) GLOBAL_UNCERTAINTY_ASSIGNED_CONTEXT ( ( #8 ) ) GLOBAL_UNIT_ASSIGNED_CONTEXT ( ( #613, #62, #421 ) ) REPRESENTATION_CONTEXT ( 'NONE', 'WORKASPACE' ) );
#90 = VECTOR ( 'NONE', #357, 1000.000000000000000 ) ;
#91 = CARTESIAN_POINT ( 'NONE',  ( 22.99999999999999645, 25.00000000000000000, 2.500000000000002220 ) ) ;
#92 = VERTEX_POINT ( 'NONE', #649 ) ;
#93 = SURFACE_SIDE_STYLE ('',( #176 ) ) ;
#94 = DIRECTION ( 'NONE',  ( -0.000000000000000000, -1.000000000000000000, -0.000000000000000000 ) ) ;
#95 = CARTESIAN_POINT ( 'NONE',  ( 3.404291556141059605, 6.899809758186714603, -0.1362566041503875947 ) ) ;
#96 = DIRECTION ( 'NONE',  ( 0.000000000000000000, 0.000000000000000000, -1.000000000000000000 ) ) ;
#97 = ORIENTED_EDGE ( 'NONE', *, *, #230, .T. ) ;
#98 = LINE ( 'NONE', #381, #481 ) ;
#99 = DIRECTION ( 'NONE',  ( 0.000000000000000000, -1.000000000000000000, 0.000000000000000000 ) ) ;
#100 =( LENGTH_UNIT ( ) NAMED_UNIT ( * ) SI_UNIT ( .MILLI., .METRE. ) );
#101 = VERTEX_POINT ( 'NONE', #558 ) ;
#102 = CARTESIAN_POINT ( 'NONE',  ( 3.964002887706201239, 9.552642103146746777, -2.030732518880820958 ) ) ;
#103 = VECTOR ( 'NONE', #567, 1000.000000000000000 ) ;
#104 = DIRECTION ( 'NONE',  ( 1.000000000000000000, 0.000000000000000000, 0.000000000000000000 ) ) ;
#105 = AXIS2_PLACEMENT_3D ( 'NONE', #678, #765, #150 ) ;
#106 = MECHANICAL_DESIGN_GEOMETRIC_PRESENTATION_REPRESENTATION (  '', ( #1000 ), #89 ) ;
#107 = EDGE_LOOP ( 'NONE', ( #484, #175, #585, #707 ) ) ;
#108 = AXIS2_PLACEMENT_3D ( 'NONE', #610, #966, #151 ) ;
#109 = CARTESIAN_POINT ( 'NONE',  ( 11.99999999999999822, 13.00000000000000000, -7.500000000000001776 ) ) ;
#110 = ADVANCED_FACE ( 'NONE', ( #256 ), #45, .F. ) ;
#111 = SURFACE_STYLE_FILL_AREA ( #575 ) ;
#112 = CARTESIAN_POINT ( 'NONE',  ( -27.99999999999997513, 25.00000000000000000, 5.500000000000000000 ) ) ;
#113 = DIRECTION ( 'NONE',  ( 1.000000000000000000, 0.000000000000000000, 0.000000000000000000 ) ) ;
#114 = EDGE_LOOP ( 'NONE', ( #195, #685, #159, #25 ) ) ;
#115 = CARTESIAN_POINT ( 'NONE',  ( -29.99999999999998579, 25.00000000000000000, -5.499999999999995559 ) ) ;
#116 =( NAMED_UNIT ( * ) SI_UNIT ( $, .STERADIAN. ) SOLID_ANGLE_UNIT ( ) );
#117 = SURFACE_SIDE_STYLE ('',( #870 ) ) ;
#118 = CARTESIAN_POINT ( 'NONE',  ( -23.00000000000000355, 25.00000000000000000, 0.000000000000000000 ) ) ;
#119 = ORIENTED_EDGE ( 'NONE', *, *, #742, .T. ) ;
#120 = DIRECTION ( 'NONE',  ( -0.000000000000000000, 1.000000000000000000, -0.000000000000000000 ) ) ;
#121 = FACE_OUTER_BOUND ( 'NONE', #114, .T. ) ;
#122 = FACE_BOUND ( 'NONE', #787, .T. ) ;
#123 = VECTOR ( 'NONE', #846, 1000.000000000000000 ) ;
#124 = ORIENTED_EDGE ( 'NONE', *, *, #1080, .F. ) ;
#125 = AXIS2_PLACEMENT_3D ( 'NONE', #799, #1163, #548 ) ;
#126 = VERTEX_POINT ( 'NONE', #376 ) ;
#127 = CYLINDRICAL_SURFACE ( 'NONE', #125, 2.099999999999992539 ) ;
#128 = AXIS2_PLACEMENT_3D ( 'NONE', #652, #290, #113 ) ;
#129 = DIRECTION ( 'NONE',  ( 0.000000000000000000, 0.000000000000000000, 1.000000000000000000 ) ) ;
#130 = CARTESIAN_POINT ( 'NONE',  ( -4.250000000000000888, 9.000000000000001776, -7.500000000000000000 ) ) ;
#131 = ORIENTED_EDGE ( 'NONE', *, *, #641, .F. ) ;
#132 = EDGE_LOOP ( 'NONE', ( #899, #769, #97, #951 ) ) ;
#133 = FACE_OUTER_BOUND ( 'NONE', #865, .T. ) ;
#134 =( LENGTH_UNIT ( ) NAMED_UNIT ( * ) SI_UNIT ( .MILLI., .METRE. ) );
#135 = ORIENTED_EDGE ( 'NONE', *, *, #289, .F. ) ;
#136 = ORIENTED_EDGE ( 'NONE', *, *, #582, .T. ) ;
#137 = DIRECTION ( 'NONE',  ( -0.000000000000000000, -1.000000000000000000, -0.000000000000000000 ) ) ;
#138 = ADVANCED_FACE ( 'NONE', ( #213, #1012, #569 ), #659, .F. ) ;
#139 = FILL_AREA_STYLE_COLOUR ( '', #393 ) ;
#140 = PRESENTATION_LAYER_ASSIGNMENT (  '', '', ( #336 ) ) ;
#141 = VERTEX_POINT ( 'NONE', #397 ) ;
#142 = SURFACE_SIDE_STYLE ('',( #763 ) ) ;
#143 = AXIS2_PLACEMENT_3D ( 'NONE', #708, #1076, #440 ) ;
#144 = DIRECTION ( 'NONE',  ( -0.7071067811865376918, 8.659560562354813296E-17, 0.7071067811865574537 ) ) ;
#145 = EDGE_CURVE ( 'NONE', #101, #459, #677, .T. ) ;
#146 = VECTOR ( 'NONE', #1125, 1000.000000000000000 ) ;
#147 = CARTESIAN_POINT ( 'NONE',  ( 28.00000000000001066, 13.00000000000000000, -7.500000000000003553 ) ) ;
#148 = DIRECTION ( 'NONE',  ( -0.000000000000000000, 1.000000000000000000, -0.000000000000000000 ) ) ;
#149 = EDGE_LOOP ( 'NONE', ( #591, #472 ) ) ;
#150 = DIRECTION ( 'NONE',  ( 0.000000000000000000, 0.000000000000000000, -1.000000000000000000 ) ) ;
#151 = DIRECTION ( 'NONE',  ( 0.000000000000000000, -0.000000000000000000, -1.000000000000000000 ) ) ;
#152 = ADVANCED_FACE ( 'NONE', ( #1008 ), #940, .T. ) ;
#153 = CARTESIAN_POINT ( 'NONE',  ( 12.00000000000000000, 9.000000000000001776, 2.099999999999985878 ) ) ;
#154 = ORIENTED_EDGE ( 'NONE', *, *, #914, .F. ) ;
#155 = ORIENTED_EDGE ( 'NONE', *, *, #828, .F. ) ;
#156 = CARTESIAN_POINT ( 'NONE',  ( 28.00000000000001066, 25.00000000000000000, -7.500000000000003553 ) ) ;
#157 = ADVANCED_FACE ( 'NONE', ( #121 ), #385, .T. ) ;
#158 = FACE_OUTER_BOUND ( 'NONE', #1063, .T. ) ;
#159 = ORIENTED_EDGE ( 'NONE', *, *, #26, .F. ) ;
#160 = SURFACE_STYLE_USAGE ( .BOTH. , #93 ) ;
#161 = AXIS2_PLACEMENT_3D ( 'NONE', #1106, #581, #925 ) ;
#162 = AXIS2_PLACEMENT_3D ( 'NONE', #353, #260, #1159 ) ;
#163 = FACE_OUTER_BOUND ( 'NONE', #1104, .T. ) ;
#164 = AXIS2_PLACEMENT_3D ( 'NONE', #891, #79, #247 ) ;
#165 =( NAMED_UNIT ( * ) SI_UNIT ( $, .STERADIAN. ) SOLID_ANGLE_UNIT ( ) );
#166 = AXIS2_PLACEMENT_3D ( 'NONE', #1043, #1139, #1022 ) ;
#167 = CIRCLE ( 'NONE', #13, 2.000000000000001776 ) ;
#168 = CARTESIAN_POINT ( 'NONE',  ( 12.00000000000000000, 13.00000000000000000, 7.500000000000001776 ) ) ;
#169 = EDGE_LOOP ( 'NONE', ( #968, #328, #517, #1090 ) ) ;
#170 = DIRECTION ( 'NONE',  ( 1.734723475976807094E-15, 0.000000000000000000, 1.000000000000000000 ) ) ;
#171 = PRESENTATION_STYLE_ASSIGNMENT (( #984 ) ) ;
#172 = CARTESIAN_POINT ( 'NONE',  ( -4.249999999999997335, 9.000000000000001776, 7.500000000000000000 ) ) ;
#173 = DIRECTION ( 'NONE',  ( 0.000000000000000000, 0.000000000000000000, -1.000000000000000000 ) ) ;
#174 = DIRECTION ( 'NONE',  ( 1.000000000000000000, -0.000000000000000000, -5.782411586589357392E-17 ) ) ;
#175 = ORIENTED_EDGE ( 'NONE', *, *, #326, .T. ) ;
#176 = SURFACE_STYLE_FILL_AREA ( #254 ) ;
#177 = SURFACE_SIDE_STYLE ('',( #255 ) ) ;
#178 = ADVANCED_FACE ( 'NONE', ( #19 ), #338, .F. ) ;
#179 = CARTESIAN_POINT ( 'NONE',  ( 3.446054261581331435, 6.968808587850987557, -0.5510620485155665049 ) ) ;
#180 = UNCERTAINTY_MEASURE_WITH_UNIT (LENGTH_MEASURE( 1.000000000000000082E-05 ), #535, 'distance_accuracy_value', 'NONE');
#181 = EDGE_LOOP ( 'NONE', ( #320, #72 ) ) ;
#182 = COLOUR_RGB ( '',0.000000000000000000, 1.000000000000000000, 1.000000000000000000 ) ;
#183 = CARTESIAN_POINT ( 'NONE',  ( 11.99999999999999822, 0.000000000000000000, -7.500000000000001776 ) ) ;
#184 = ADVANCED_FACE ( 'NONE', ( #687 ), #692, .F. ) ;
#185 = CIRCLE ( 'NONE', #162, 3.999999999999996447 ) ;
#186 = COLOUR_RGB ( '',0.000000000000000000, 1.000000000000000000, 1.000000000000000000 ) ;
#187 = STYLED_ITEM ( 'NONE', ( #816 ), #737 ) ;
#188 = ORIENTED_EDGE ( 'NONE', *, *, #509, .T. ) ;
#189 = DIRECTION ( 'NONE',  ( 0.000000000000000000, -1.000000000000000000, 0.000000000000000000 ) ) ;
#190 = CARTESIAN_POINT ( 'NONE',  ( 3.636845387450830192, 7.332539787861669822, 1.283739501367481939 ) ) ;
#191 = UNCERTAINTY_MEASURE_WITH_UNIT (LENGTH_MEASURE( 1.000000000000000082E-05 ), #100, 'distance_accuracy_value', 'NONE');
#192 = ORIENTED_EDGE ( 'NONE', *, *, #289, .T. ) ;
#193 = LINE ( 'NONE', #22, #123 ) ;
#194 = CARTESIAN_POINT ( 'NONE',  ( 12.00000000000000000, 0.000000000000000000, 7.500000000000001776 ) ) ;
#195 = ORIENTED_EDGE ( 'NONE', *, *, #996, .F. ) ;
#196 = EDGE_CURVE ( 'NONE', #619, #695, #857, .T. ) ;
#197 = CARTESIAN_POINT ( 'NONE',  ( 3.413197645058835938, 11.08593110270126481, 0.2795714853585198334 ) ) ;
#198 = STYLED_ITEM ( 'NONE', ( #469 ), #953 ) ;
#199 = DIRECTION ( 'NONE',  ( -0.000000000000000000, -0.000000000000000000, -1.000000000000000000 ) ) ;
#200 =( NAMED_UNIT ( * ) PLANE_ANGLE_UNIT ( ) SI_UNIT ( $, .RADIAN. ) );
#201 = VECTOR ( 'NONE', #991, 1000.000000000000000 ) ;
#202 =( GEOMETRIC_REPRESENTATION_CONTEXT ( 3 ) GLOBAL_UNCERTAINTY_ASSIGNED_CONTEXT ( ( #1084 ) ) GLOBAL_UNIT_ASSIGNED_CONTEXT ( ( #447, #640, #994 ) ) REPRESENTATION_CONTEXT ( 'NONE', 'WORKASPACE' ) );
#203 = DIRECTION ( 'NONE',  ( -1.000000000000000000, 0.000000000000000000, 0.000000000000000000 ) ) ;
#204 = ORIENTED_EDGE ( 'NONE', *, *, #456, .T. ) ;
#205 = CIRCLE ( 'NONE', #1040, 4.250000000000000000 ) ;
#206 = PLANE ( 'NONE',  #360 ) ;
#207 =( LENGTH_UNIT ( ) NAMED_UNIT ( * ) SI_UNIT ( .MILLI., .METRE. ) );
#208 =( LENGTH_UNIT ( ) NAMED_UNIT ( * ) SI_UNIT ( .MILLI., .METRE. ) );
#209 = FILL_AREA_STYLE ('',( #139 ) ) ;
#210 = EDGE_LOOP ( 'NONE', ( #331, #657, #279, #413 ) ) ;
#211 = CARTESIAN_POINT ( 'NONE',  ( 3.999999999999995559, 9.141621028100805901, -2.099999999999992983 ) ) ;
#212 = DIRECTION ( 'NONE',  ( -1.000000000000000000, 0.000000000000000000, 0.000000000000000000 ) ) ;
#213 = FACE_BOUND ( 'NONE', #926, .T. ) ;
#214 = EDGE_CURVE ( 'NONE', #1075, #493, #921, .T. ) ;
#215 = DIRECTION ( 'NONE',  ( 0.7071067811865502373, 0.7071067811865447972, -4.088782444489014342E-17 ) ) ;
#216 = ORIENTED_EDGE ( 'NONE', *, *, #64, .F. ) ;
#217 = ORIENTED_EDGE ( 'NONE', *, *, #703, .T. ) ;
#218 = CARTESIAN_POINT ( 'NONE',  ( 3.964020370400107574, 9.552783969679694565, 2.030768157051793033 ) ) ;
#219 = UNCERTAINTY_MEASURE_WITH_UNIT (LENGTH_MEASURE( 1.000000000000000082E-05 ), #1020, 'distance_accuracy_value', 'NONE');
#220 = CIRCLE ( 'NONE', #958, 4.250000000000000000 ) ;
#221 = DIRECTION ( 'NONE',  ( -1.000000000000000000, 0.000000000000000000, 1.156482317317871971E-16 ) ) ;
#222 = AXIS2_PLACEMENT_3D ( 'NONE', #1064, #604, #959 ) ;
#223 = VERTEX_POINT ( 'NONE', #342 ) ;
#224 = ORIENTED_EDGE ( 'NONE', *, *, #1108, .F. ) ;
#225 = DIRECTION ( 'NONE',  ( -5.782411586589358625E-17, 0.000000000000000000, -1.000000000000000000 ) ) ;
#226 = AXIS2_PLACEMENT_3D ( 'NONE', #605, #616, #76 ) ;
#227 = SURFACE_STYLE_FILL_AREA ( #1132 ) ;
#228 = FACE_OUTER_BOUND ( 'NONE', #85, .T. ) ;
#229 = CARTESIAN_POINT ( 'NONE',  ( 30.00000000000001776, 13.00000000000000000, 7.500000000000000000 ) ) ;
#230 = EDGE_CURVE ( 'NONE', #695, #1009, #375, .T. ) ;
#231 = ORIENTED_EDGE ( 'NONE', *, *, #774, .T. ) ;
#232 = FACE_OUTER_BOUND ( 'NONE', #132, .T. ) ;
#233 = LINE ( 'NONE', #577, #68 ) ;
#234 = ADVANCED_FACE ( 'NONE', ( #232 ), #237, .F. ) ;
#235 = ORIENTED_EDGE ( 'NONE', *, *, #1108, .T. ) ;
#236 = CARTESIAN_POINT ( 'NONE',  ( 3.864186264490061085, 10.06508014072075419, 1.830410980768463203 ) ) ;
#237 = CYLINDRICAL_SURFACE ( 'NONE', #222, 2.099999999999992539 ) ;
#238 =( NAMED_UNIT ( * ) SI_UNIT ( $, .STERADIAN. ) SOLID_ANGLE_UNIT ( ) );
#239 = STYLED_ITEM ( 'NONE', ( #282 ), #43 ) ;
#240 = ORIENTED_EDGE ( 'NONE', *, *, #1018, .F. ) ;
#241 = SURFACE_STYLE_USAGE ( .BOTH. , #329 ) ;
#242 = VECTOR ( 'NONE', #1082, 1000.000000000000114 ) ;
#243 = EDGE_CURVE ( 'NONE', #1120, #78, #784, .T. ) ;
#244 = DIRECTION ( 'NONE',  ( -0.000000000000000000, -1.000000000000000000, 0.000000000000000000 ) ) ;
#245 = DIRECTION ( 'NONE',  ( -1.156482317317871971E-16, -0.000000000000000000, -1.000000000000000000 ) ) ;
#246 = ORIENTED_EDGE ( 'NONE', *, *, #392, .F. ) ;
#247 = DIRECTION ( 'NONE',  ( -1.000000000000000000, 0.000000000000000000, 0.000000000000000000 ) ) ;
#248 = DIRECTION ( 'NONE',  ( -1.000000000000000000, 0.000000000000000000, 4.625929269271486900E-16 ) ) ;
#249 = ORIENTED_EDGE ( 'NONE', *, *, #672, .T. ) ;
#250 = ADVANCED_FACE ( 'NONE', ( #1143 ), #514, .F. ) ;
#251 = DIRECTION ( 'NONE',  ( -0.000000000000000000, -0.000000000000000000, -1.000000000000000000 ) ) ;
#252 = LINE ( 'NONE', #84, #941 ) ;
#253 = ORIENTED_EDGE ( 'NONE', *, *, #486, .F. ) ;
#254 = FILL_AREA_STYLE ('',( #988 ) ) ;
#255 = SURFACE_STYLE_FILL_AREA ( #635 ) ;
#256 = FACE_OUTER_BOUND ( 'NONE', #973, .T. ) ;
#257 = CARTESIAN_POINT ( 'NONE',  ( 30.00000000000001421, 25.00000000000000000, -5.500000000000004441 ) ) ;
#258 = DIRECTION ( 'NONE',  ( 4.625929269271486900E-16, 0.000000000000000000, 1.000000000000000000 ) ) ;
#259 = ORIENTED_EDGE ( 'NONE', *, *, #51, .F. ) ;
#260 = DIRECTION ( 'NONE',  ( -0.000000000000000000, -0.000000000000000000, -1.000000000000000000 ) ) ;
#261 = COLOUR_RGB ( '',0.8980392156862745390, 0.9176470588235293713, 0.9294117647058823817 ) ;
#262 = CARTESIAN_POINT ( 'NONE',  ( -12.00000000000000000, -2.204364238465235822E-15, 7.500000000000005329 ) ) ;
#263 = VECTOR ( 'NONE', #148, 1000.000000000000000 ) ;
#264 = UNCERTAINTY_MEASURE_WITH_UNIT (LENGTH_MEASURE( 1.000000000000000082E-05 ), #134, 'distance_accuracy_value', 'NONE');
#265 = APPLICATION_CONTEXT ( 'automotive_design' ) ;
#266 = CARTESIAN_POINT ( 'NONE',  ( -3.999999999999997335, 9.000000000000001776, 7.249999999999992895 ) ) ;
#267 = AXIS2_PLACEMENT_3D ( 'NONE', #887, #873, #791 ) ;
#268 = LINE ( 'NONE', #633, #721 ) ;
#269 = VERTEX_POINT ( 'NONE', #620 ) ;
#270 = EDGE_CURVE ( 'NONE', #1120, #945, #4, .T. ) ;
#271 = CARTESIAN_POINT ( 'NONE',  ( -3.999999999999998224, 9.000000000000001776, -7.500000000000000000 ) ) ;
#272 = CARTESIAN_POINT ( 'NONE',  ( 3.999999999999996447, 9.000000000000001776, -2.099999999999992983 ) ) ;
#273 = CARTESIAN_POINT ( 'NONE',  ( 11.99999999999999822, 9.000000000000001776, -2.099999999999993872 ) ) ;
#274 = ORIENTED_EDGE ( 'NONE', *, *, #1042, .T. ) ;
#275 = EDGE_CURVE ( 'NONE', #455, #619, #714, .T. ) ;
#276 = CARTESIAN_POINT ( 'NONE',  ( -12.00000000000000178, 12.99999999999999822, -7.499999999999998224 ) ) ;
#277 = CARTESIAN_POINT ( 'NONE',  ( 3.999999999999995559, 8.858673929962581184, -2.099999999999993872 ) ) ;
#278 = ORIENTED_EDGE ( 'NONE', *, *, #56, .T. ) ;
#279 = ORIENTED_EDGE ( 'NONE', *, *, #726, .T. ) ;
#280 = AXIS2_PLACEMENT_3D ( 'NONE', #262, #75, #349 ) ;
#281 = VECTOR ( 'NONE', #750, 1000.000000000000000 ) ;
#282 = PRESENTATION_STYLE_ASSIGNMENT (( #431 ) ) ;
#283 = VECTOR ( 'NONE', #1119, 1000.000000000000000 ) ;
#284 = AXIS2_PLACEMENT_3D ( 'NONE', #437, #251, #1072 ) ;
#285 = ORIENTED_EDGE ( 'NONE', *, *, #26, .T. ) ;
#286 = CARTESIAN_POINT ( 'NONE',  ( -27.99999999999998224, 25.00000000000000000, -5.499999999999996447 ) ) ;
#287 =( LENGTH_UNIT ( ) NAMED_UNIT ( * ) SI_UNIT ( .MILLI., .METRE. ) );
#288 =( NAMED_UNIT ( * ) PLANE_ANGLE_UNIT ( ) SI_UNIT ( $, .RADIAN. ) );
#289 = EDGE_CURVE ( 'NONE', #126, #615, #27, .T. ) ;
#290 = DIRECTION ( 'NONE',  ( 0.000000000000000000, 0.000000000000000000, 1.000000000000000000 ) ) ;
#291 = ORIENTED_EDGE ( 'NONE', *, *, #230, .F. ) ;
#292 = CARTESIAN_POINT ( 'NONE',  ( 28.00000000000001776, 25.00000000000000000, 5.499999999999995559 ) ) ;
#293 = DIRECTION ( 'NONE',  ( -0.000000000000000000, -0.000000000000000000, -1.000000000000000000 ) ) ;
#294 = EDGE_LOOP ( 'NONE', ( #1047, #547, #249, #1038 ) ) ;
#295 = CARTESIAN_POINT ( 'NONE',  ( 30.00000000000001776, 13.00000000000000000, 7.500000000000000000 ) ) ;
#296 = FILL_AREA_STYLE_COLOUR ( '', #411 ) ;
#297 = VECTOR ( 'NONE', #930, 1000.000000000000000 ) ;
#298 = SURFACE_STYLE_FILL_AREA ( #643 ) ;
#299 = CIRCLE ( 'NONE', #10, 2.000000000000000000 ) ;
#300 = ORIENTED_EDGE ( 'NONE', *, *, #780, .F. ) ;
#301 = CONICAL_SURFACE ( 'NONE', #128, 3.999999999999996447, 0.7853981633974344012 ) ;
#302 = EDGE_CURVE ( 'NONE', #875, #739, #65, .T. ) ;
#303 = DIRECTION ( 'NONE',  ( -1.156482317317871971E-16, 0.000000000000000000, -1.000000000000000000 ) ) ;
#304 = FILL_AREA_STYLE_COLOUR ( '', #824 ) ;
#305 = DIRECTION ( 'NONE',  ( -0.000000000000000000, -0.000000000000000000, -1.000000000000000000 ) ) ;
#306 = CARTESIAN_POINT ( 'NONE',  ( 4.249999999999999112, 9.000000000000001776, -7.500000000000000000 ) ) ;
#307 = DIRECTION ( 'NONE',  ( 1.000000000000000000, -0.000000000000000000, -9.637352644315585382E-17 ) ) ;
#308 = VERTEX_POINT ( 'NONE', #974 ) ;
#309 = CARTESIAN_POINT ( 'NONE',  ( 3.446311031588329410, 11.03075624247913744, -0.5525330532892355206 ) ) ;
#310 = PRESENTATION_STYLE_ASSIGNMENT (( #746 ) ) ;
#311 = SURFACE_SIDE_STYLE ('',( #463 ) ) ;
#312 = CARTESIAN_POINT ( 'NONE',  ( -12.00000000000000000, 1.000000000000021316, 7.500000000000005329 ) ) ;
#313 = FACE_OUTER_BOUND ( 'NONE', #761, .T. ) ;
#314 = VERTEX_POINT ( 'NONE', #453 ) ;
#315 = CYLINDRICAL_SURFACE ( 'NONE', #377, 2.499999999999996891 ) ;
#316 = UNCERTAINTY_MEASURE_WITH_UNIT (LENGTH_MEASURE( 1.000000000000000082E-05 ), #207, 'distance_accuracy_value', 'NONE');
#317 = EDGE_CURVE ( 'NONE', #560, #754, #537, .T. ) ;
#318 = CLOSED_SHELL ( 'NONE', ( #234, #1123, #184, #737, #536, #755, #402, #554, #250, #661, #138, #1055, #983, #374, #526, #624, #152, #474, #110, #609, #178, #450, #908, #2, #73, #157, #689, #588 ) ) ;
#319 = CARTESIAN_POINT ( 'NONE',  ( -27.99999999999998224, 25.00000000000000000, -7.499999999999996447 ) ) ;
#320 = ORIENTED_EDGE ( 'NONE', *, *, #965, .T. ) ;
#321 = ORIENTED_EDGE ( 'NONE', *, *, #410, .T. ) ;
#322 = CARTESIAN_POINT ( 'NONE',  ( 4.000000000002709832, 8.999999999999412026, 2.100000000005159961 ) ) ;
#323 = VECTOR ( 'NONE', #532, 1000.000000000000000 ) ;
#324 = DIRECTION ( 'NONE',  ( -0.000000000000000000, -0.000000000000000000, -1.000000000000000000 ) ) ;
#325 = B_SPLINE_CURVE_WITH_KNOTS ( 'NONE', 3,
 ( #1003, #552, #907, #801, #728, #441, #723, #5, #544, #975, #190, #896, #81, #1093, #636, #95, #354, #179, #806, #709, #449, #902, #715, #86, #814, #1071, #819, #1167, #370, #1089, #277, #642 ),
 .UNSPECIFIED., .F., .F.,
 ( 4, 2, 2, 2, 2, 2, 2, 2, 2, 2, 2, 2, 2, 2, 2, 4 ),
 ( 0.006693395432361935737, 0.007110861364305331132, 0.007528327296248726527, 0.007945793228192121055, 0.008363259160135517317, 0.008780725092078911845, 0.009198191024022306372, 0.01003312288790909716, 0.01045058881985249169, 0.01086805475179588795, 0.01128552068373928248, 0.01170298661568267701, 0.01212045254762607327, 0.01253791847956946780, 0.01295538441151286232, 0.01337285034345625859 ),
 .UNSPECIFIED. ) ;
#326 = EDGE_CURVE ( 'NONE', #223, #987, #883, .T. ) ;
#327 = CARTESIAN_POINT ( 'NONE',  ( 22.99999999999999645, 25.00000000000000000, 5.204170427930421283E-15 ) ) ;
#328 = ORIENTED_EDGE ( 'NONE', *, *, #1087, .T. ) ;
#329 = SURFACE_SIDE_STYLE ('',( #1054 ) ) ;
#330 = DIRECTION ( 'NONE',  ( -1.156482317317871971E-16, 0.000000000000000000, -1.000000000000000000 ) ) ;
#331 = ORIENTED_EDGE ( 'NONE', *, *, #196, .F. ) ;
#332 = DIRECTION ( 'NONE',  ( -1.000000000000000000, 0.000000000000000000, 5.782411586589358625E-17 ) ) ;
#333 = EDGE_CURVE ( 'NONE', #945, #937, #503, .T. ) ;
#334 = DIRECTION ( 'NONE',  ( 1.000000000000000000, -0.000000000000000000, -1.156482317317871971E-16 ) ) ;
#335 = DIRECTION ( 'NONE',  ( -0.000000000000000000, -0.000000000000000000, -1.000000000000000000 ) ) ;
#336 = STYLED_ITEM ( 'NONE', ( #576 ), #110 ) ;
#337 = CARTESIAN_POINT ( 'NONE',  ( -12.00000000000000178, 1.000000000000021316, -7.499999999999998224 ) ) ;
#338 = CONICAL_SURFACE ( 'NONE', #844, 4.250000000000000000, 0.7853981633974482790 ) ;
#339 = ORIENTED_EDGE ( 'NONE', *, *, #486, .T. ) ;
#340 = MECHANICAL_DESIGN_GEOMETRIC_PRESENTATION_REPRESENTATION (  '', ( #1168 ), #202 ) ;
#341 = EDGE_CURVE ( 'NONE', #406, #860, #48, .T. ) ;
#342 = CARTESIAN_POINT ( 'NONE',  ( 30.00000000000002132, 13.00000000000000000, 5.499999999999994671 ) ) ;
#343 = VECTOR ( 'NONE', #417, 1000.000000000000000 ) ;
#344 = SURFACE_STYLE_FILL_AREA ( #666 ) ;
#345 = DIRECTION ( 'NONE',  ( 0.7071067811865441310, -0.7071067811865509034, -4.088782444488979213E-17 ) ) ;
#346 = VERTEX_POINT ( 'NONE', #276 ) ;
#347 =( NAMED_UNIT ( * ) SI_UNIT ( $, .STERADIAN. ) SOLID_ANGLE_UNIT ( ) );
#348 = DIRECTION ( 'NONE',  ( -0.7071067811865502373, -0.7071067811865447972, 8.177564888978028683E-17 ) ) ;
#349 = DIRECTION ( 'NONE',  ( -1.156482317317871971E-16, 0.000000000000000000, -1.000000000000000000 ) ) ;
#350 = DIRECTION ( 'NONE',  ( -9.637352644315605104E-17, -1.000000000000000000, 1.114542791890763197E-32 ) ) ;
#351 = CARTESIAN_POINT ( 'NONE',  ( 12.00000000000000000, 1.000000000000000888, 7.500000000000001776 ) ) ;
#352 = VERTEX_POINT ( 'NONE', #74 ) ;
#353 = CARTESIAN_POINT ( 'NONE',  ( -8.673617379884037444E-16, 9.000000000000001776, 7.249999999999992895 ) ) ;
#354 = CARTESIAN_POINT ( 'NONE',  ( 3.413042525096297020, 6.913814665847003660, -0.2779184874509501024 ) ) ;
#355 = CARTESIAN_POINT ( 'NONE',  ( 28.00000000000001776, 25.00000000000000000, 5.499999999999995559 ) ) ;
#356 = EDGE_CURVE ( 'NONE', #1120, #455, #185, .T. ) ;
#357 = DIRECTION ( 'NONE',  ( 0.000000000000000000, -1.000000000000000000, 0.000000000000000000 ) ) ;
#358 = ORIENTED_EDGE ( 'NONE', *, *, #214, .T. ) ;
#359 = DIRECTION ( 'NONE',  ( -0.000000000000000000, -1.000000000000000000, 0.000000000000000000 ) ) ;
#360 = AXIS2_PLACEMENT_3D ( 'NONE', #460, #387, #457 ) ;
#361 = DIRECTION ( 'NONE',  ( -9.637352644315605104E-17, -1.000000000000000000, 1.114542791890763197E-32 ) ) ;
#362 = VECTOR ( 'NONE', #47, 1000.000000000000000 ) ;
#363 = MECHANICAL_DESIGN_GEOMETRIC_PRESENTATION_REPRESENTATION (  '', ( #187 ), #1170 ) ;
#364 = CARTESIAN_POINT ( 'NONE',  ( -10.99999999999998934, 0.000000000000000000, 7.499999999999999112 ) ) ;
#365 = ORIENTED_EDGE ( 'NONE', *, *, #326, .F. ) ;
#366 =( NAMED_UNIT ( * ) PLANE_ANGLE_UNIT ( ) SI_UNIT ( $, .RADIAN. ) );
#367 = CARTESIAN_POINT ( 'NONE',  ( -8.673617379884037444E-16, 9.000000000000001776, -7.249999999999997335 ) ) ;
#368 = ORIENTED_EDGE ( 'NONE', *, *, #456, .F. ) ;
#369 = EDGE_CURVE ( 'NONE', #739, #615, #529, .T. ) ;
#370 = CARTESIAN_POINT ( 'NONE',  ( 3.963397767785237669, 8.442804149226869725, -2.029555480128257816 ) ) ;
#371 = PRESENTATION_STYLE_ASSIGNMENT (( #559 ) ) ;
#372 = EDGE_LOOP ( 'NONE', ( #542, #729, #1086, #821 ) ) ;
#373 = DIRECTION ( 'NONE',  ( 0.000000000000000000, 1.000000000000000000, -0.000000000000000000 ) ) ;
#374 = ADVANCED_FACE ( 'NONE', ( #163 ), #818, .F. ) ;
#375 = CIRCLE ( 'NONE', #105, 2.099999999999987210 ) ;
#376 = CARTESIAN_POINT ( 'NONE',  ( 22.99999999999999645, 13.00000000000000000, -2.499999999999992006 ) ) ;
#377 = AXIS2_PLACEMENT_3D ( 'NONE', #602, #866, #506 ) ;
#378 = AXIS2_PLACEMENT_3D ( 'NONE', #1035, #221, #589 ) ;
#379 = PRESENTATION_LAYER_ASSIGNMENT (  '', '', ( #430 ) ) ;
#380 = ORIENTED_EDGE ( 'NONE', *, *, #828, .T. ) ;
#381 = CARTESIAN_POINT ( 'NONE',  ( 28.00000000000001776, 25.00000000000000000, 7.499999999999996447 ) ) ;
#382 =( LENGTH_UNIT ( ) NAMED_UNIT ( * ) SI_UNIT ( .MILLI., .METRE. ) );
#383 = EDGE_LOOP ( 'NONE', ( #259, #1053, #762, #394 ) ) ;
#384 = CYLINDRICAL_SURFACE ( 'NONE', #551, 2.000000000000000000 ) ;
#385 = PLANE ( 'NONE',  #1147 ) ;
#386 = EDGE_LOOP ( 'NONE', ( #515, #154 ) ) ;
#387 = DIRECTION ( 'NONE',  ( 1.000000000000000000, 0.000000000000000000, -4.625929269271486900E-16 ) ) ;
#388 = SURFACE_SIDE_STYLE ('',( #1021 ) ) ;
#389 = AXIS2_PLACEMENT_3D ( 'NONE', #1028, #129, #104 ) ;
#390 = AXIS2_PLACEMENT_3D ( 'NONE', #972, #809, #1085 ) ;
#391 = LINE ( 'NONE', #1126, #1094 ) ;
#392 = EDGE_CURVE ( 'NONE', #987, #1031, #648, .T. ) ;
#393 = COLOUR_RGB ( '',0.8980392156862745390, 0.9176470588235293713, 0.9294117647058823817 ) ;
#394 = ORIENTED_EDGE ( 'NONE', *, *, #862, .F. ) ;
#395 = CARTESIAN_POINT ( 'NONE',  ( 3.563227255947078564, 10.81946789731601122, -1.057325633133811893 ) ) ;
#396 = APPLICATION_PROTOCOL_DEFINITION ( 'draft international standard', 'automotive_design', 1998, #265 ) ;
#397 = CARTESIAN_POINT ( 'NONE',  ( -23.00000000000000355, 25.00000000000000000, 2.499999999999996891 ) ) ;
#398 = DIRECTION ( 'NONE',  ( 0.000000000000000000, 0.000000000000000000, -1.000000000000000000 ) ) ;
#399 = EDGE_LOOP ( 'NONE', ( #434, #1, #1036, #28 ) ) ;
#400 = EDGE_LOOP ( 'NONE', ( #843, #660, #690, #645, #743, #1149, #1068, #519, #136, #1121 ) ) ;
#401 = PRESENTATION_STYLE_ASSIGNMENT (( #496 ) ) ;
#402 = ADVANCED_FACE ( 'NONE', ( #429 ), #206, .F. ) ;
#403 = CARTESIAN_POINT ( 'NONE',  ( -27.99999999999997513, 13.00000000000000000, 5.500000000000000000 ) ) ;
#404 = CARTESIAN_POINT ( 'NONE',  ( -3.999999999999999112, 9.000000000000001776, -7.249999999999997335 ) ) ;
#405 = LINE ( 'NONE', #669, #297 ) ;
#406 = VERTEX_POINT ( 'NONE', #911 ) ;
#407 = CARTESIAN_POINT ( 'NONE',  ( 28.00000000000001066, 25.00000000000000000, -7.500000000000003553 ) ) ;
#408 = FILL_AREA_STYLE_COLOUR ( '', #1109 ) ;
#409 = PRODUCT_DEFINITION_FORMATION_WITH_SPECIFIED_SOURCE ( 'ANY', '', #1050, .NOT_KNOWN. ) ;
#410 = EDGE_CURVE ( 'NONE', #1031, #556, #626, .T. ) ;
#411 = COLOUR_RGB ( '',0.000000000000000000, 1.000000000000000000, 1.000000000000000000 ) ;
#412 = PRESENTATION_LAYER_ASSIGNMENT (  '', '', ( #773 ) ) ;
#413 = ORIENTED_EDGE ( 'NONE', *, *, #1073, .T. ) ;
#414 = AXIS2_PLACEMENT_3D ( 'NONE', #351, #803, #712 ) ;
#415 = FILL_AREA_STYLE_COLOUR ( '', #261 ) ;
#416 = SURFACE_SIDE_STYLE ('',( #227 ) ) ;
#417 = DIRECTION ( 'NONE',  ( -0.000000000000000000, -1.000000000000000000, -0.000000000000000000 ) ) ;
#418 = ORIENTED_EDGE ( 'NONE', *, *, #471, .F. ) ;
#419 = FILL_AREA_STYLE ('',( #408 ) ) ;
#420 = LINE ( 'NONE', #156, #323 ) ;
#421 =( NAMED_UNIT ( * ) SI_UNIT ( $, .STERADIAN. ) SOLID_ANGLE_UNIT ( ) );
#422 = VERTEX_POINT ( 'NONE', #115 ) ;
#423 = CARTESIAN_POINT ( 'NONE',  ( 30.00000000000001421, 25.00000000000000000, -7.500000000000003553 ) ) ;
#424 = DIRECTION ( 'NONE',  ( -0.000000000000000000, -0.000000000000000000, -1.000000000000000000 ) ) ;
#425 = DIRECTION ( 'NONE',  ( 0.000000000000000000, 0.000000000000000000, 1.000000000000000000 ) ) ;
#426 = LINE ( 'NONE', #1161, #924 ) ;
#427 = VERTEX_POINT ( 'NONE', #109 ) ;
#428 = CIRCLE ( 'NONE', #735, 2.000000000000000000 ) ;
#429 = FACE_OUTER_BOUND ( 'NONE', #294, .T. ) ;
#430 = STYLED_ITEM ( 'NONE', ( #310 ), #1123 ) ;
#431 = SURFACE_STYLE_USAGE ( .BOTH. , #67 ) ;
#432 = LINE ( 'NONE', #510, #631 ) ;
#433 = CARTESIAN_POINT ( 'NONE',  ( -27.99999999999998224, 25.00000000000000000, -5.499999999999996447 ) ) ;
#434 = ORIENTED_EDGE ( 'NONE', *, *, #214, .F. ) ;
#435 = FILL_AREA_STYLE_COLOUR ( '', #9 ) ;
#436 = EDGE_CURVE ( 'NONE', #910, #956, #834, .T. ) ;
#437 = CARTESIAN_POINT ( 'NONE',  ( -8.673617379884037444E-16, 9.000000000000001776, 7.500000000000000000 ) ) ;
#438 = PLANE ( 'NONE',  #414 ) ;
#439 = ORIENTED_EDGE ( 'NONE', *, *, #1042, .F. ) ;
#440 = DIRECTION ( 'NONE',  ( 0.000000000000000000, 0.000000000000000000, 1.000000000000000000 ) ) ;
#441 = CARTESIAN_POINT ( 'NONE',  ( 3.889687791556442509, 8.057998161417126326, 1.881981588237635838 ) ) ;
#442 = EDGE_CURVE ( 'NONE', #36, #21, #98, .T. ) ;
#443 = CARTESIAN_POINT ( 'NONE',  ( -23.00000000000000355, 0.000000000000000000, 2.499999999999996891 ) ) ;
#444 = LINE ( 'NONE', #898, #483 ) ;
#445 = VERTEX_POINT ( 'NONE', #580 ) ;
#446 = AXIS2_PLACEMENT_3D ( 'NONE', #403, #497, #614 ) ;
#447 =( LENGTH_UNIT ( ) NAMED_UNIT ( * ) SI_UNIT ( .MILLI., .METRE. ) );
#448 = PRESENTATION_LAYER_ASSIGNMENT (  '', '', ( #1019 ) ) ;
#449 = CARTESIAN_POINT ( 'NONE',  ( 3.563320600973992835, 7.180731053154846499, -1.057597814618640220 ) ) ;
#450 = ADVANCED_FACE ( 'NONE', ( #14, #468 ), #915, .F. ) ;
#451 =( NAMED_UNIT ( * ) SI_UNIT ( $, .STERADIAN. ) SOLID_ANGLE_UNIT ( ) );
#452 = ORIENTED_EDGE ( 'NONE', *, *, #574, .F. ) ;
#453 = CARTESIAN_POINT ( 'NONE',  ( 4.249999999999995559, 9.000000000000001776, 7.500000000000000000 ) ) ;
#454 = CARTESIAN_POINT ( 'NONE',  ( -29.99999999999998224, 13.00000000000000000, 7.500000000000007105 ) ) ;
#455 = VERTEX_POINT ( 'NONE', #1110 ) ;
#456 = EDGE_CURVE ( 'NONE', #53, #937, #193, .T. ) ;
#457 = DIRECTION ( 'NONE',  ( -4.625929269271486900E-16, 0.000000000000000000, -1.000000000000000000 ) ) ;
#458 = PLANE ( 'NONE',  #280 ) ;
#459 = VERTEX_POINT ( 'NONE', #557 ) ;
#460 = CARTESIAN_POINT ( 'NONE',  ( -29.99999999999998579, 25.00000000000000000, -7.499999999999996447 ) ) ;
#461 = VECTOR ( 'NONE', #531, 1000.000000000000000 ) ;
#462 = SURFACE_SIDE_STYLE ('',( #111 ) ) ;
#463 = SURFACE_STYLE_FILL_AREA ( #840 ) ;
#464 = VECTOR ( 'NONE', #137, 1000.000000000000000 ) ;
#465 = CIRCLE ( 'NONE', #226, 2.099999999999987210 ) ;
#466 =( NAMED_UNIT ( * ) SI_UNIT ( $, .STERADIAN. ) SOLID_ANGLE_UNIT ( ) );
#467 = VERTEX_POINT ( 'NONE', #662 ) ;
#468 = FACE_BOUND ( 'NONE', #1113, .T. ) ;
#469 = PRESENTATION_STYLE_ASSIGNMENT (( #15 ) ) ;
#470 = FILL_AREA_STYLE_COLOUR ( '', #549 ) ;
#471 = EDGE_CURVE ( 'NONE', #427, #1024, #566, .T. ) ;
#472 = ORIENTED_EDGE ( 'NONE', *, *, #603, .F. ) ;
#473 = LINE ( 'NONE', #1115, #647 ) ;
#474 = ADVANCED_FACE ( 'NONE', ( #18 ), #384, .T. ) ;
#475 =( NAMED_UNIT ( * ) PLANE_ANGLE_UNIT ( ) SI_UNIT ( $, .RADIAN. ) );
#476 = FILL_AREA_STYLE_COLOUR ( '', #884 ) ;
#477 = CARTESIAN_POINT ( 'NONE',  ( 3.863532590202054529, 10.06779945617734384, -1.829065672771394313 ) ) ;
#478 = CARTESIAN_POINT ( 'NONE',  ( 0.000000000000000000, 0.000000000000000000, 0.000000000000000000 ) ) ;
#479 = CARTESIAN_POINT ( 'NONE',  ( -10.99999999999998934, 0.000000000000000000, 1.272130549049657813E-15 ) ) ;
#480 = AXIS2_PLACEMENT_3D ( 'NONE', #423, #248, #805 ) ;
#481 = VECTOR ( 'NONE', #1105, 1000.000000000000000 ) ;
#482 = CARTESIAN_POINT ( 'NONE',  ( -29.99999999999998224, 13.00000000000000000, -5.499999999999996447 ) ) ;
#483 = VECTOR ( 'NONE', #541, 1000.000000000000000 ) ;
#484 = ORIENTED_EDGE ( 'NONE', *, *, #1116, .T. ) ;
#485 = VECTOR ( 'NONE', #680, 1000.000000000000000 ) ;
#486 = EDGE_CURVE ( 'NONE', #92, #560, #473, .T. ) ;
#487 = EDGE_LOOP ( 'NONE', ( #380, #365, #498, #1162, #46, #962 ) ) ;
#488 = FILL_AREA_STYLE ('',( #686 ) ) ;
#489 = UNCERTAINTY_MEASURE_WITH_UNIT (LENGTH_MEASURE( 1.000000000000000082E-05 ), #52, 'distance_accuracy_value', 'NONE');
#490 =( NAMED_UNIT ( * ) PLANE_ANGLE_UNIT ( ) SI_UNIT ( $, .RADIAN. ) );
#491 = CARTESIAN_POINT ( 'NONE',  ( -3.999999999999997335, 9.000000000000001776, 7.249999999999992895 ) ) ;
#492 = FACE_OUTER_BOUND ( 'NONE', #627, .T. ) ;
#493 = VERTEX_POINT ( 'NONE', #562 ) ;
#494 = EDGE_CURVE ( 'NONE', #956, #422, #504, .T. ) ;
#495 = EDGE_LOOP ( 'NONE', ( #1158, #776 ) ) ;
#496 = SURFACE_STYLE_USAGE ( .BOTH. , #142 ) ;
#497 = DIRECTION ( 'NONE',  ( -9.637352644315605104E-17, -1.000000000000000000, 1.114542791890763197E-32 ) ) ;
#498 = ORIENTED_EDGE ( 'NONE', *, *, #600, .T. ) ;
#499 = DIRECTION ( 'NONE',  ( 0.7071067811865376918, 0.000000000000000000, 0.7071067811865574537 ) ) ;
#500 =( LENGTH_UNIT ( ) NAMED_UNIT ( * ) SI_UNIT ( .MILLI., .METRE. ) );
#501 =( GEOMETRIC_REPRESENTATION_CONTEXT ( 3 ) GLOBAL_UNCERTAINTY_ASSIGNED_CONTEXT ( ( #595 ) ) GLOBAL_UNIT_ASSIGNED_CONTEXT ( ( #287, #758, #741 ) ) REPRESENTATION_CONTEXT ( 'NONE', 'WORKASPACE' ) );
#502 = PLANE ( 'NONE',  #378 ) ;
#503 = CIRCLE ( 'NONE', #568, 3.999999999999998224 ) ;
#504 = CIRCLE ( 'NONE', #49, 2.000000000000000000 ) ;
#505 = ORIENTED_EDGE ( 'NONE', *, *, #1034, .F. ) ;
#506 = DIRECTION ( 'NONE',  ( 0.000000000000000000, 0.000000000000000000, -1.000000000000000000 ) ) ;
#507 = SHAPE_DEFINITION_REPRESENTATION ( #744, #953 ) ;
#508 = FILL_AREA_STYLE_COLOUR ( '', #182 ) ;
#509 = EDGE_CURVE ( 'NONE', #53, #619, #597, .T. ) ;
#510 = CARTESIAN_POINT ( 'NONE',  ( -12.00000000000000000, 1.000000000000021760, 7.500000000000005329 ) ) ;
#511 = LINE ( 'NONE', #980, #242 ) ;
#512 = EDGE_LOOP ( 'NONE', ( #885, #826, #981, #1137 ) ) ;
#513 = CYLINDRICAL_SURFACE ( 'NONE', #869, 2.000000000000000000 ) ;
#514 = PLANE ( 'NONE',  #480 ) ;
#515 = ORIENTED_EDGE ( 'NONE', *, *, #35, .F. ) ;
#516 = DIRECTION ( 'NONE',  ( 1.156482317317871971E-16, 0.000000000000000000, 1.000000000000000000 ) ) ;
#517 = ORIENTED_EDGE ( 'NONE', *, *, #617, .F. ) ;
#518 = CARTESIAN_POINT ( 'NONE',  ( 30.00000000000001421, 25.00000000000000000, -5.500000000000004441 ) ) ;
#519 = ORIENTED_EDGE ( 'NONE', *, *, #710, .F. ) ;
#520 = DIRECTION ( 'NONE',  ( 1.734723475976807094E-15, 0.000000000000000000, -1.000000000000000000 ) ) ;
#521 = MECHANICAL_DESIGN_GEOMETRIC_PRESENTATION_REPRESENTATION (  '', ( #336 ), #623 ) ;
#522 = DIRECTION ( 'NONE',  ( -1.000000000000000000, 0.000000000000000000, 1.156482317317871478E-16 ) ) ;
#523 = AXIS2_PLACEMENT_3D ( 'NONE', #1088, #361, #722 ) ;
#524 = ORIENTED_EDGE ( 'NONE', *, *, #600, .F. ) ;
#525 = PRESENTATION_STYLE_ASSIGNMENT (( #160 ) ) ;
#526 = ADVANCED_FACE ( 'NONE', ( #691 ), #513, .T. ) ;
#527 = PRESENTATION_LAYER_ASSIGNMENT (  '', '', ( #570 ) ) ;
#528 = AXIS2_PLACEMENT_3D ( 'NONE', #433, #58, #1062 ) ;
#529 = LINE ( 'NONE', #1154, #849 ) ;
#530 = VECTOR ( 'NONE', #1060, 1000.000000000000000 ) ;
#531 = DIRECTION ( 'NONE',  ( 0.000000000000000000, 1.000000000000000000, 0.000000000000000000 ) ) ;
#532 = DIRECTION ( 'NONE',  ( 0.000000000000000000, -1.000000000000000000, 0.000000000000000000 ) ) ;
#533 = PLANE ( 'NONE',  #871 ) ;
#534 = ORIENTED_EDGE ( 'NONE', *, *, #270, .F. ) ;
#535 =( LENGTH_UNIT ( ) NAMED_UNIT ( * ) SI_UNIT ( .MILLI., .METRE. ) );
#536 = ADVANCED_FACE ( 'NONE', ( #133 ), #315, .F. ) ;
#537 = LINE ( 'NONE', #900, #719 ) ;
#538 = CARTESIAN_POINT ( 'NONE',  ( 30.00000000000002132, 25.00000000000000000, 5.499999999999994671 ) ) ;
#539 = UNCERTAINTY_MEASURE_WITH_UNIT (LENGTH_MEASURE( 1.000000000000000082E-05 ), #500, 'distance_accuracy_value', 'NONE');
#540 = CARTESIAN_POINT ( 'NONE',  ( -29.99999999999998224, 13.00000000000000000, 7.500000000000007105 ) ) ;
#541 = DIRECTION ( 'NONE',  ( -0.000000000000000000, -1.000000000000000000, -0.000000000000000000 ) ) ;
#542 = ORIENTED_EDGE ( 'NONE', *, *, #742, .F. ) ;
#543 = DIRECTION ( 'NONE',  ( -0.000000000000000000, -0.000000000000000000, -1.000000000000000000 ) ) ;
#544 = CARTESIAN_POINT ( 'NONE',  ( 3.751279383545010226, 7.607746678053053380, 1.577886469859813179 ) ) ;
#545 = EDGE_CURVE ( 'NONE', #346, #634, #783, .T. ) ;
#546 = DIRECTION ( 'NONE',  ( -0.000000000000000000, -1.000000000000000000, -0.000000000000000000 ) ) ;
#547 = ORIENTED_EDGE ( 'NONE', *, *, #56, .F. ) ;
#548 = DIRECTION ( 'NONE',  ( 0.000000000000000000, 0.000000000000000000, -1.000000000000000000 ) ) ;
#549 = COLOUR_RGB ( '',0.000000000000000000, 1.000000000000000000, 1.000000000000000000 ) ;
#550 =( GEOMETRIC_REPRESENTATION_CONTEXT ( 3 ) GLOBAL_UNCERTAINTY_ASSIGNED_CONTEXT ( ( #264 ) ) GLOBAL_UNIT_ASSIGNED_CONTEXT ( ( #134, #1148, #947 ) ) REPRESENTATION_CONTEXT ( 'NONE', 'WORKASPACE' ) );
#551 = AXIS2_PLACEMENT_3D ( 'NONE', #292, #189, #927 ) ;
#552 = CARTESIAN_POINT ( 'NONE',  ( 3.999999999999960032, 8.860422244042990059, 2.099999999999922373 ) ) ;
#553 = AXIS2_PLACEMENT_3D ( 'NONE', #698, #1160, #173 ) ;
#554 = ADVANCED_FACE ( 'NONE', ( #586, #1142 ), #607, .F. ) ;
#555 = CARTESIAN_POINT ( 'NONE',  ( 10.99999999999998934, 0.000000000000000000, -7.500000000000000888 ) ) ;
#556 = VERTEX_POINT ( 'NONE', #407 ) ;
#557 = CARTESIAN_POINT ( 'NONE',  ( -27.99999999999997513, 25.00000000000000000, 7.500000000000000000 ) ) ;
#558 = CARTESIAN_POINT ( 'NONE',  ( -29.99999999999997868, 25.00000000000000000, 5.500000000000001776 ) ) ;
#559 = SURFACE_STYLE_USAGE ( .BOTH. , #1100 ) ;
#560 = VERTEX_POINT ( 'NONE', #696 ) ;
#561 = PRODUCT_RELATED_PRODUCT_CATEGORY ( 'part', '', ( #1050 ) ) ;
#562 = CARTESIAN_POINT ( 'NONE',  ( -29.99999999999998224, 13.00000000000000000, 5.500000000000000000 ) ) ;
#563 = DIRECTION ( 'NONE',  ( 0.000000000000000000, -1.000000000000000000, 0.000000000000000000 ) ) ;
#564 = FILL_AREA_STYLE_COLOUR ( '', #794 ) ;
#565 = EDGE_LOOP ( 'NONE', ( #1083, #1114, #756, #579, #368, #188 ) ) ;
#566 = LINE ( 'NONE', #740, #790 ) ;
#567 = DIRECTION ( 'NONE',  ( 1.000000000000000000, -0.000000000000000000, -5.782411586589357392E-17 ) ) ;
#568 = AXIS2_PLACEMENT_3D ( 'NONE', #800, #727, #795 ) ;
#569 = FACE_OUTER_BOUND ( 'NONE', #713, .T. ) ;
#570 = STYLED_ITEM ( 'NONE', ( #401 ), #536 ) ;
#571 =( GEOMETRIC_REPRESENTATION_CONTEXT ( 3 ) GLOBAL_UNCERTAINTY_ASSIGNED_CONTEXT ( ( #191 ) ) GLOBAL_UNIT_ASSIGNED_CONTEXT ( ( #100, #825, #466 ) ) REPRESENTATION_CONTEXT ( 'NONE', 'WORKASPACE' ) );
#572 = ORIENTED_EDGE ( 'NONE', *, *, #333, .F. ) ;
#573 = DIRECTION ( 'NONE',  ( -1.734723475976807094E-15, 0.000000000000000000, -1.000000000000000000 ) ) ;
#574 = EDGE_CURVE ( 'NONE', #455, #314, #770, .T. ) ;
#575 = FILL_AREA_STYLE ('',( #304 ) ) ;
#576 = PRESENTATION_STYLE_ASSIGNMENT (( #917 ) ) ;
#577 = CARTESIAN_POINT ( 'NONE',  ( -23.00000000000000355, 0.000000000000000000, -2.499999999999996891 ) ) ;
#578 = ORIENTED_EDGE ( 'NONE', *, *, #780, .T. ) ;
#579 = ORIENTED_EDGE ( 'NONE', *, *, #333, .T. ) ;
#580 = CARTESIAN_POINT ( 'NONE',  ( 4.249999999999999112, 9.000000000000001776, -7.500000000000000000 ) ) ;
#581 = DIRECTION ( 'NONE',  ( -0.000000000000000000, 1.000000000000000000, -0.000000000000000000 ) ) ;
#582 = EDGE_CURVE ( 'NONE', #459, #1075, #1129, .T. ) ;
#583 = DIRECTION ( 'NONE',  ( 0.7071067811865474617, 8.659560562354932858E-17, -0.7071067811865474617 ) ) ;
#584 = ORIENTED_EDGE ( 'NONE', *, *, #868, .F. ) ;
#585 = ORIENTED_EDGE ( 'NONE', *, *, #392, .T. ) ;
#586 = FACE_BOUND ( 'NONE', #495, .T. ) ;
#587 = AXIS2_PLACEMENT_3D ( 'NONE', #55, #324, #608 ) ;
#588 = ADVANCED_FACE ( 'NONE', ( #777 ), #127, .F. ) ;
#589 = DIRECTION ( 'NONE',  ( 1.156482317317871971E-16, 0.000000000000000000, 1.000000000000000000 ) ) ;
#590 = PRESENTATION_LAYER_ASSIGNMENT (  '', '', ( #681 ) ) ;
#591 = ORIENTED_EDGE ( 'NONE', *, *, #341, .F. ) ;
#592 = VECTOR ( 'NONE', #977, 1000.000000000000000 ) ;
#593 = ORIENTED_EDGE ( 'NONE', *, *, #88, .T. ) ;
#594 = DIRECTION ( 'NONE',  ( 0.000000000000000000, 0.000000000000000000, -1.000000000000000000 ) ) ;
#595 = UNCERTAINTY_MEASURE_WITH_UNIT (LENGTH_MEASURE( 1.000000000000000082E-05 ), #287, 'distance_accuracy_value', 'NONE');
#596 = SURFACE_STYLE_USAGE ( .BOTH. , #117 ) ;
#597 = B_SPLINE_CURVE_WITH_KNOTS ( 'NONE', 3,
 ( #923, #211, #932, #102, #1102, #477, #30, #1099, #827, #395, #757, #658, #309, #1002, #7, #1007, #197, #1010, #946, #788, #671, #963, #1138, #1032, #236, #957, #218, #676, #54, #322 ),
 .UNSPECIFIED., .F., .F.,
 ( 4, 2, 2, 2, 2, 2, 2, 2, 2, 2, 2, 2, 2, 2, 4 ),
 ( 0.000000000000000000, 0.0004183372145226204415, 0.0008366744290452408830, 0.001673348858090481766, 0.002091686072613101882, 0.002510023287135722432, 0.002928360501658342982, 0.003346697716180963532, 0.003765034930703583648, 0.004183372145226203764, 0.004601709359748825182, 0.005020046574271444864, 0.005856721003316690301, 0.006275058217839313453, 0.006693395432361935737 ),
 .UNSPECIFIED. ) ;
#598 = DIRECTION ( 'NONE',  ( -0.7071067811865441310, 0.7071067811865509034, 8.177564888977958425E-17 ) ) ;
#599 = ORIENTED_EDGE ( 'NONE', *, *, #1049, .T. ) ;
#600 = EDGE_CURVE ( 'NONE', #223, #36, #299, .T. ) ;
#601 = DIRECTION ( 'NONE',  ( -1.000000000000000000, 0.000000000000000000, 0.000000000000000000 ) ) ;
#602 = CARTESIAN_POINT ( 'NONE',  ( 22.99999999999999645, 0.000000000000000000, 5.204170427930421283E-15 ) ) ;
#603 = EDGE_CURVE ( 'NONE', #860, #406, #679, .T. ) ;
#604 = DIRECTION ( 'NONE',  ( 1.000000000000000000, -0.000000000000000000, -1.156482317317871971E-16 ) ) ;
#605 = CARTESIAN_POINT ( 'NONE',  ( 12.00000000000000000, 9.000000000000001776, -1.387778780781446267E-15 ) ) ;
#606 = ORIENTED_EDGE ( 'NONE', *, *, #410, .F. ) ;
#607 = PLANE ( 'NONE',  #922 ) ;
#608 = DIRECTION ( 'NONE',  ( -1.000000000000000000, 0.000000000000000000, 0.000000000000000000 ) ) ;
#609 = ADVANCED_FACE ( 'NONE', ( #1069 ), #71, .F. ) ;
#610 = CARTESIAN_POINT ( 'NONE',  ( 0.000000000000000000, 0.000000000000000000, 0.000000000000000000 ) ) ;
#611 = DIRECTION ( 'NONE',  ( 1.156482317317871725E-16, -0.000000000000000000, 1.000000000000000000 ) ) ;
#612 = ORIENTED_EDGE ( 'NONE', *, *, #317, .T. ) ;
#613 =( LENGTH_UNIT ( ) NAMED_UNIT ( * ) SI_UNIT ( .MILLI., .METRE. ) );
#614 = DIRECTION ( 'NONE',  ( -1.000000000000000000, 0.000000000000000000, 0.000000000000000000 ) ) ;
#615 = VERTEX_POINT ( 'NONE', #986 ) ;
#616 = DIRECTION ( 'NONE',  ( 1.000000000000000000, -0.000000000000000000, -1.156482317317871971E-16 ) ) ;
#617 = EDGE_CURVE ( 'NONE', #269, #904, #444, .T. ) ;
#618 = LINE ( 'NONE', #77, #263 ) ;
#619 = VERTEX_POINT ( 'NONE', #792 ) ;
#620 = CARTESIAN_POINT ( 'NONE',  ( -12.00000000000000000, 12.99999999999999822, 7.500000000000005329 ) ) ;
#621 = PRESENTATION_LAYER_ASSIGNMENT (  '', '', ( #198 ) ) ;
#622 = LINE ( 'NONE', #807, #775 ) ;
#623 =( GEOMETRIC_REPRESENTATION_CONTEXT ( 3 ) GLOBAL_UNCERTAINTY_ASSIGNED_CONTEXT ( ( #1175 ) ) GLOBAL_UNIT_ASSIGNED_CONTEXT ( ( #382, #200, #928 ) ) REPRESENTATION_CONTEXT ( 'NONE', 'WORKASPACE' ) );
#624 = ADVANCED_FACE ( 'NONE', ( #718 ), #706, .T. ) ;
#625 = FACE_OUTER_BOUND ( 'NONE', #793, .T. ) ;
#626 = CIRCLE ( 'NONE', #810, 2.000000000000000000 ) ;
#627 = EDGE_LOOP ( 'NONE', ( #1016, #339, #1107, #131 ) ) ;
#628 = PRESENTATION_LAYER_ASSIGNMENT (  '', '', ( #1000 ) ) ;
#629 = AXIS2_PLACEMENT_3D ( 'NONE', #748, #546, #96 ) ;
#630 = CARTESIAN_POINT ( 'NONE',  ( 22.99999999999999645, 0.000000000000000000, 5.204170427930421283E-15 ) ) ;
#631 = VECTOR ( 'NONE', #516, 1000.000000000000000 ) ;
#632 = CARTESIAN_POINT ( 'NONE',  ( 12.00000000000000000, 9.000000000000001776, -2.099999999999988542 ) ) ;
#633 = CARTESIAN_POINT ( 'NONE',  ( 30.00000000000002132, 25.00000000000000000, 7.499999999999996447 ) ) ;
#634 = VERTEX_POINT ( 'NONE', #337 ) ;
#635 = FILL_AREA_STYLE ('',( #435 ) ) ;
#636 = CARTESIAN_POINT ( 'NONE',  ( 3.404647314442921235, 6.900386495485189897, 0.2812166203987361279 ) ) ;
#637 = UNCERTAINTY_MEASURE_WITH_UNIT (LENGTH_MEASURE( 1.000000000000000082E-05 ), #37, 'distance_accuracy_value', 'NONE');
#638 = CARTESIAN_POINT ( 'NONE',  ( -23.00000000000000355, 25.00000000000000000, -2.499999999999996891 ) ) ;
#639 = EDGE_LOOP ( 'NONE', ( #155, #439, #606, #246 ) ) ;
#640 =( NAMED_UNIT ( * ) PLANE_ANGLE_UNIT ( ) SI_UNIT ( $, .RADIAN. ) );
#641 = EDGE_CURVE ( 'NONE', #467, #427, #1157, .T. ) ;
#642 = CARTESIAN_POINT ( 'NONE',  ( 3.999999999999996447, 9.000000000000001776, -2.099999999999992983 ) ) ;
#643 = FILL_AREA_STYLE ('',( #564 ) ) ;
#644 = PRESENTATION_LAYER_ASSIGNMENT (  '', '', ( #1127 ) ) ;
#645 = ORIENTED_EDGE ( 'NONE', *, *, #879, .T. ) ;
#646 = AXIS2_PLACEMENT_3D ( 'NONE', #295, #373, #822 ) ;
#647 = VECTOR ( 'NONE', #303, 1000.000000000000000 ) ;
#648 = LINE ( 'NONE', #518, #976 ) ;
#649 = CARTESIAN_POINT ( 'NONE',  ( 12.00000000000000000, 1.000000000000000444, 7.500000000000001776 ) ) ;
#650 =( GEOMETRIC_REPRESENTATION_CONTEXT ( 3 ) GLOBAL_UNCERTAINTY_ASSIGNED_CONTEXT ( ( #489 ) ) GLOBAL_UNIT_ASSIGNED_CONTEXT ( ( #52, #475, #238 ) ) REPRESENTATION_CONTEXT ( 'NONE', 'WORKASPACE' ) );
#651 = EDGE_CURVE ( 'NONE', #910, #346, #426, .T. ) ;
#652 = CARTESIAN_POINT ( 'NONE',  ( -8.673617379884037444E-16, 9.000000000000001776, 7.249999999999992895 ) ) ;
#653 = ORIENTED_EDGE ( 'NONE', *, *, #651, .F. ) ;
#654 = DIRECTION ( 'NONE',  ( 0.000000000000000000, 0.000000000000000000, -1.000000000000000000 ) ) ;
#655 =( NAMED_UNIT ( * ) SI_UNIT ( $, .STERADIAN. ) SOLID_ANGLE_UNIT ( ) );
#656 = EDGE_CURVE ( 'NONE', #422, #872, #880, .T. ) ;
#657 = ORIENTED_EDGE ( 'NONE', *, *, #509, .F. ) ;
#658 = CARTESIAN_POINT ( 'NONE',  ( 3.470882499929178966, 10.98912294343205609, -0.6870041462071666549 ) ) ;
#659 = PLANE ( 'NONE',  #1015 ) ;
#660 = ORIENTED_EDGE ( 'NONE', *, *, #996, .T. ) ;
#661 = ADVANCED_FACE ( 'NONE', ( #1152, #625 ), #533, .F. ) ;
#662 = CARTESIAN_POINT ( 'NONE',  ( 12.00000000000000000, 13.00000000000000000, 7.500000000000001776 ) ) ;
#663 = DIRECTION ( 'NONE',  ( 1.156482317317871971E-16, 0.000000000000000000, 1.000000000000000000 ) ) ;
#664 = AXIS2_PLACEMENT_3D ( 'NONE', #327, #853, #398 ) ;
#665 = CARTESIAN_POINT ( 'NONE',  ( -27.99999999999998224, 13.00000000000000000, -7.499999999999996447 ) ) ;
#666 = FILL_AREA_STYLE ('',( #476 ) ) ;
#667 = EDGE_CURVE ( 'NONE', #754, #308, #252, .T. ) ;
#668 = DIRECTION ( 'NONE',  ( -0.000000000000000000, -1.000000000000000000, 0.000000000000000000 ) ) ;
#669 = CARTESIAN_POINT ( 'NONE',  ( -12.00000000000000000, 12.99999999999999822, 7.500000000000005329 ) ) ;
#670 = ORIENTED_EDGE ( 'NONE', *, *, #545, .F. ) ;
#671 = CARTESIAN_POINT ( 'NONE',  ( 3.563613463990148666, 10.81871903629403775, 1.058629679461281503 ) ) ;
#672 = EDGE_CURVE ( 'NONE', #493, #101, #618, .T. ) ;
#673 = CARTESIAN_POINT ( 'NONE',  ( 22.99999999999999645, 25.00000000000000000, -2.499999999999992006 ) ) ;
#674 = VERTEX_POINT ( 'NONE', #638 ) ;
#675 = ORIENTED_EDGE ( 'NONE', *, *, #815, .F. ) ;
#676 = CARTESIAN_POINT ( 'NONE',  ( 3.992683733146419112, 9.278395799447171299, 2.086165190889863741 ) ) ;
#677 = CIRCLE ( 'NONE', #161, 2.000000000000000000 ) ;
#678 = CARTESIAN_POINT ( 'NONE',  ( 12.00000000000000000, 9.000000000000001776, -1.387778780781446267E-15 ) ) ;
#679 = CIRCLE ( 'NONE', #164, 2.499999999999998668 ) ;
#680 = DIRECTION ( 'NONE',  ( -1.000000000000000000, 0.000000000000000000, 1.156482317317871478E-16 ) ) ;
#681 = STYLED_ITEM ( 'NONE', ( #371 ), #755 ) ;
#682 = PRODUCT_DEFINITION ( 'UNKNOWN', '', #409, #764 ) ;
#683 = ORIENTED_EDGE ( 'NONE', *, *, #574, .T. ) ;
#684 = CIRCLE ( 'NONE', #890, 4.249999999999996447 ) ;
#685 = ORIENTED_EDGE ( 'NONE', *, *, #1087, .F. ) ;
#686 = FILL_AREA_STYLE_COLOUR ( '', #1169 ) ;
#687 = FACE_OUTER_BOUND ( 'NONE', #845, .T. ) ;
#688 = CARTESIAN_POINT ( 'NONE',  ( -23.00000000000000355, 13.00000000000000000, 2.499999999999996891 ) ) ;
#689 = ADVANCED_FACE ( 'NONE', ( #158 ), #438, .T. ) ;
#690 = ORIENTED_EDGE ( 'NONE', *, *, #1140, .T. ) ;
#691 = FACE_OUTER_BOUND ( 'NONE', #639, .T. ) ;
#692 = CYLINDRICAL_SURFACE ( 'NONE', #587, 3.999999999999997335 ) ;
#693 = CARTESIAN_POINT ( 'NONE',  ( -8.673617379884037444E-16, 9.000000000000001776, -7.500000000000000000 ) ) ;
#694 = EDGE_CURVE ( 'NONE', #422, #101, #967, .T. ) ;
#695 = VERTEX_POINT ( 'NONE', #153 ) ;
#696 = CARTESIAN_POINT ( 'NONE',  ( 11.99999999999999822, 1.000000000000000444, -7.500000000000001776 ) ) ;
#697 = PRESENTATION_STYLE_ASSIGNMENT (( #42 ) ) ;
#698 = CARTESIAN_POINT ( 'NONE',  ( -23.00000000000000355, 0.000000000000000000, 0.000000000000000000 ) ) ;
#699 = VECTOR ( 'NONE', #80, 1000.000000000000000 ) ;
#700 = DIRECTION ( 'NONE',  ( 1.000000000000000000, -9.637352644315605104E-17, -9.637352644315605104E-17 ) ) ;
#701 = ORIENTED_EDGE ( 'NONE', *, *, #1073, .F. ) ;
#702 = VECTOR ( 'NONE', #258, 1000.000000000000000 ) ;
#703 = EDGE_CURVE ( 'NONE', #945, #894, #511, .T. ) ;
#704 = ORIENTED_EDGE ( 'NONE', *, *, #989, .F. ) ;
#705 = DIRECTION ( 'NONE',  ( -1.000000000000000000, 0.000000000000000000, 0.000000000000000000 ) ) ;
#706 = CYLINDRICAL_SURFACE ( 'NONE', #528, 2.000000000000000000 ) ;
#707 = ORIENTED_EDGE ( 'NONE', *, *, #950, .F. ) ;
#708 = CARTESIAN_POINT ( 'NONE',  ( 22.99999999999999645, 13.00000000000000000, 5.204170427930421283E-15 ) ) ;
#709 = CARTESIAN_POINT ( 'NONE',  ( 3.528911520687451731, 7.115727641640575918, -0.9373070684413888909 ) ) ;
#710 = EDGE_CURVE ( 'NONE', #459, #21, #268, .T. ) ;
#711 = FACE_OUTER_BOUND ( 'NONE', #1153, .T. ) ;
#712 = DIRECTION ( 'NONE',  ( 1.156482317317871971E-16, 0.000000000000000000, 1.000000000000000000 ) ) ;
#713 = EDGE_LOOP ( 'NONE', ( #935, #321, #889, #720, #913, #854, #1065, #11 ) ) ;
#714 = LINE ( 'NONE', #1165, #1130 ) ;
#715 = CARTESIAN_POINT ( 'NONE',  ( 3.675319660539954292, 7.418054133725488164, -1.387673156090183824 ) ) ;
#716 = UNCERTAINTY_MEASURE_WITH_UNIT (LENGTH_MEASURE( 1.000000000000000082E-05 ), #208, 'distance_accuracy_value', 'NONE');
#717 = CARTESIAN_POINT ( 'NONE',  ( 30.00000000000002132, 25.00000000000000000, 5.499999999999994671 ) ) ;
#718 = FACE_OUTER_BOUND ( 'NONE', #512, .T. ) ;
#719 = VECTOR ( 'NONE', #348, 1000.000000000000000 ) ;
#720 = ORIENTED_EDGE ( 'NONE', *, *, #494, .T. ) ;
#721 = VECTOR ( 'NONE', #174, 1000.000000000000000 ) ;
#722 = DIRECTION ( 'NONE',  ( -1.000000000000000000, 0.000000000000000000, 0.000000000000000000 ) ) ;
#723 = CARTESIAN_POINT ( 'NONE',  ( 3.858315023953452272, 7.938285888723225270, 1.816907092739814322 ) ) ;
#724 = LINE ( 'NONE', #273, #12 ) ;
#725 = VERTEX_POINT ( 'NONE', #364 ) ;
#726 = EDGE_CURVE ( 'NONE', #53, #1009, #724, .T. ) ;
#727 = DIRECTION ( 'NONE',  ( -0.000000000000000000, -0.000000000000000000, -1.000000000000000000 ) ) ;
#728 = CARTESIAN_POINT ( 'NONE',  ( 3.942827507931291109, 8.313596458067793904, 1.989490472453158132 ) ) ;
#729 = ORIENTED_EDGE ( 'NONE', *, *, #815, .T. ) ;
#730 = DIRECTION ( 'NONE',  ( -0.000000000000000000, -1.000000000000000000, -0.000000000000000000 ) ) ;
#731 = AXIS2_PLACEMENT_3D ( 'NONE', #478, #848, #32 ) ;
#732 = ORIENTED_EDGE ( 'NONE', *, *, #841, .F. ) ;
#733 = VECTOR ( 'NONE', #543, 1000.000000000000000 ) ;
#734 = CARTESIAN_POINT ( 'NONE',  ( -27.99999999999998224, 25.00000000000000000, -7.499999999999996447 ) ) ;
#735 = AXIS2_PLACEMENT_3D ( 'NONE', #1112, #668, #929 ) ;
#736 = COLOUR_RGB ( '',0.000000000000000000, 1.000000000000000000, 1.000000000000000000 ) ;
#737 = ADVANCED_FACE ( 'NONE', ( #786 ), #301, .F. ) ;
#738 = UNCERTAINTY_MEASURE_WITH_UNIT (LENGTH_MEASURE( 1.000000000000000082E-05 ), #1005, 'distance_accuracy_value', 'NONE');
#739 = VERTEX_POINT ( 'NONE', #91 ) ;
#740 = CARTESIAN_POINT ( 'NONE',  ( 30.00000000000001421, 13.00000000000000000, -7.500000000000003553 ) ) ;
#741 =( NAMED_UNIT ( * ) SI_UNIT ( $, .STERADIAN. ) SOLID_ANGLE_UNIT ( ) );
#742 = EDGE_CURVE ( 'NONE', #937, #945, #888, .T. ) ;
#743 = ORIENTED_EDGE ( 'NONE', *, *, #1145, .T. ) ;
#744 = PRODUCT_DEFINITION_SHAPE ( 'NONE', 'NONE',  #682 ) ;
#745 = CARTESIAN_POINT ( 'NONE',  ( 28.00000000000001066, 25.00000000000000000, -5.500000000000003553 ) ) ;
#746 = SURFACE_STYLE_USAGE ( .BOTH. , #835 ) ;
#747 = DIRECTION ( 'NONE',  ( 0.000000000000000000, -0.000000000000000000, -1.000000000000000000 ) ) ;
#748 = CARTESIAN_POINT ( 'NONE',  ( -23.00000000000000355, 0.000000000000000000, 0.000000000000000000 ) ) ;
#749 = ORIENTED_EDGE ( 'NONE', *, *, #774, .F. ) ;
#750 = DIRECTION ( 'NONE',  ( -0.000000000000000000, 1.000000000000000000, -0.000000000000000000 ) ) ;
#751 =( NAMED_UNIT ( * ) SI_UNIT ( $, .STERADIAN. ) SOLID_ANGLE_UNIT ( ) );
#752 = STYLED_ITEM ( 'NONE', ( #697 ), #184 ) ;
#753 = LINE ( 'NONE', #934, #283 ) ;
#754 = VERTEX_POINT ( 'NONE', #555 ) ;
#755 = ADVANCED_FACE ( 'NONE', ( #909 ), #1103, .F. ) ;
#756 = ORIENTED_EDGE ( 'NONE', *, *, #270, .T. ) ;
#757 = CARTESIAN_POINT ( 'NONE',  ( 3.529258443466082529, 10.88360565183527306, -0.9384106400546902149 ) ) ;
#758 =( NAMED_UNIT ( * ) PLANE_ANGLE_UNIT ( ) SI_UNIT ( $, .RADIAN. ) );
#759 = DIRECTION ( 'NONE',  ( 0.000000000000000000, -1.000000000000000000, 0.000000000000000000 ) ) ;
#760 = LINE ( 'NONE', #38, #1097 ) ;
#761 = EDGE_LOOP ( 'NONE', ( #855, #944, #40, #704, #358, #278 ) ) ;
#762 = ORIENTED_EDGE ( 'NONE', *, *, #603, .T. ) ;
#763 = SURFACE_STYLE_FILL_AREA ( #856 ) ;
#764 = PRODUCT_DEFINITION_CONTEXT ( 'detailed design', #1134, 'design' ) ;
#765 = DIRECTION ( 'NONE',  ( 1.000000000000000000, -0.000000000000000000, -1.156482317317871971E-16 ) ) ;
#766 = LINE ( 'NONE', #842, #146 ) ;
#767 = LINE ( 'NONE', #229, #771 ) ;
#768 = MECHANICAL_DESIGN_GEOMETRIC_PRESENTATION_REPRESENTATION (  '', ( #198 ), #918 ) ;
#769 = ORIENTED_EDGE ( 'NONE', *, *, #196, .T. ) ;
#770 = LINE ( 'NONE', #60, #29 ) ;
#771 = VECTOR ( 'NONE', #307, 1000.000000000000000 ) ;
#772 = SURFACE_STYLE_FILL_AREA ( #419 ) ;
#773 = STYLED_ITEM ( 'NONE', ( #50 ), #234 ) ;
#774 = EDGE_CURVE ( 'NONE', #754, #352, #753, .T. ) ;
#775 = VECTOR ( 'NONE', #330, 1000.000000000000000 ) ;
#776 = ORIENTED_EDGE ( 'NONE', *, *, #1004, .T. ) ;
#777 = FACE_OUTER_BOUND ( 'NONE', #210, .T. ) ;
#778 = APPLICATION_PROTOCOL_DEFINITION ( 'draft international standard', 'automotive_design', 1998, #1134 ) ;
#779 =( NAMED_UNIT ( * ) PLANE_ANGLE_UNIT ( ) SI_UNIT ( $, .RADIAN. ) );
#780 = EDGE_CURVE ( 'NONE', #875, #126, #44, .T. ) ;
#781 = CARTESIAN_POINT ( 'NONE',  ( 3.999999999999997335, 9.000000000000001776, -7.249999999999997335 ) ) ;
#782 = ORIENTED_EDGE ( 'NONE', *, *, #275, .T. ) ;
#783 = LINE ( 'NONE', #876, #464 ) ;
#784 = LINE ( 'NONE', #491, #1058 ) ;
#785 = LINE ( 'NONE', #57, #831 ) ;
#786 = FACE_OUTER_BOUND ( 'NONE', #63, .T. ) ;
#787 = EDGE_LOOP ( 'NONE', ( #701, #291 ) ) ;
#788 = CARTESIAN_POINT ( 'NONE',  ( 3.529424264879548190, 10.88331263368117696, 0.9391906047112943412 ) ) ;
#789 = DIRECTION ( 'NONE',  ( -1.000000000000000000, 0.000000000000000000, 0.000000000000000000 ) ) ;
#790 = VECTOR ( 'NONE', #839, 1000.000000000000000 ) ;
#791 = DIRECTION ( 'NONE',  ( -1.000000000000000000, 0.000000000000000000, 0.000000000000000000 ) ) ;
#792 = CARTESIAN_POINT ( 'NONE',  ( 4.000000000002709832, 8.999999999999412026, 2.100000000005159961 ) ) ;
#793 = EDGE_LOOP ( 'NONE', ( #34, #285, #670, #653, #6, #732, #274, #418, #216, #612 ) ) ;
#794 = COLOUR_RGB ( '',0.000000000000000000, 1.000000000000000000, 1.000000000000000000 ) ;
#795 = DIRECTION ( 'NONE',  ( -1.000000000000000000, 0.000000000000000000, 0.000000000000000000 ) ) ;
#796 = ORIENTED_EDGE ( 'NONE', *, *, #317, .F. ) ;
#797 = LINE ( 'NONE', #717, #592 ) ;
#798 = ORIENTED_EDGE ( 'NONE', *, *, #356, .T. ) ;
#799 = CARTESIAN_POINT ( 'NONE',  ( 11.99999999999999822, 9.000000000000001776, -1.387778780781446070E-15 ) ) ;
#800 = CARTESIAN_POINT ( 'NONE',  ( -8.673617379884037444E-16, 9.000000000000001776, -7.249999999999997335 ) ) ;
#801 = CARTESIAN_POINT ( 'NONE',  ( 3.963838645902743707, 8.446168516688732808, 2.030412784445501106 ) ) ;
#802 = CARTESIAN_POINT ( 'NONE',  ( -27.99999999999997513, 12.99999999999999822, 7.500000000000000000 ) ) ;
#803 = DIRECTION ( 'NONE',  ( 0.7071067811865447972, -0.7071067811865502373, -8.177564888977967054E-17 ) ) ;
#804 = ORIENTED_EDGE ( 'NONE', *, *, #1140, .F. ) ;
#805 = DIRECTION ( 'NONE',  ( 4.625929269271486900E-16, 0.000000000000000000, 1.000000000000000000 ) ) ;
#806 = CARTESIAN_POINT ( 'NONE',  ( 3.469994597933178770, 7.009312598213228718, -0.6827814653276780277 ) ) ;
#807 = CARTESIAN_POINT ( 'NONE',  ( -10.99999999999999112, 0.000000000000000000, -7.499999999999998224 ) ) ;
#808 =( GEOMETRIC_REPRESENTATION_CONTEXT ( 3 ) GLOBAL_UNCERTAINTY_ASSIGNED_CONTEXT ( ( #82 ) ) GLOBAL_UNIT_ASSIGNED_CONTEXT ( ( #995, #366, #165 ) ) REPRESENTATION_CONTEXT ( 'NONE', 'WORKASPACE' ) );
#809 = DIRECTION ( 'NONE',  ( -0.000000000000000000, -0.000000000000000000, -1.000000000000000000 ) ) ;
#810 = AXIS2_PLACEMENT_3D ( 'NONE', #745, #120, #573 ) ;
#811 = ORIENTED_EDGE ( 'NONE', *, *, #1092, .T. ) ;
#812 =( GEOMETRIC_REPRESENTATION_CONTEXT ( 3 ) GLOBAL_UNCERTAINTY_ASSIGNED_CONTEXT ( ( #180 ) ) GLOBAL_UNIT_ASSIGNED_CONTEXT ( ( #535, #969, #347 ) ) REPRESENTATION_CONTEXT ( 'NONE', 'WORKASPACE' ) );
#813 = CIRCLE ( 'NONE', #166, 2.499999999999996891 ) ;
#814 = CARTESIAN_POINT ( 'NONE',  ( 3.788837721613382836, 7.712152657999386207, -1.664291254403869491 ) ) ;
#815 = EDGE_CURVE ( 'NONE', #937, #445, #33, .T. ) ;
#816 = PRESENTATION_STYLE_ASSIGNMENT (( #997 ) ) ;
#817 = ORIENTED_EDGE ( 'NONE', *, *, #302, .F. ) ;
#818 = CYLINDRICAL_SURFACE ( 'NONE', #939, 2.499999999999996891 ) ;
#819 = CARTESIAN_POINT ( 'NONE',  ( 3.889921394555533318, 8.059197149353419576, -1.882450131850490704 ) ) ;
#820 = FILL_AREA_STYLE ('',( #837 ) ) ;
#821 = ORIENTED_EDGE ( 'NONE', *, *, #703, .F. ) ;
#822 = DIRECTION ( 'NONE',  ( 0.000000000000000000, 0.000000000000000000, 1.000000000000000000 ) ) ;
#823 = FILL_AREA_STYLE ('',( #470 ) ) ;
#824 = COLOUR_RGB ( '',0.8980392156862745390, 0.9176470588235293713, 0.9294117647058823817 ) ;
#825 =( NAMED_UNIT ( * ) PLANE_ANGLE_UNIT ( ) SI_UNIT ( $, .RADIAN. ) );
#826 = ORIENTED_EDGE ( 'NONE', *, *, #656, .F. ) ;
#827 = CARTESIAN_POINT ( 'NONE',  ( 3.636449524233929420, 10.66831854409956293, -1.282620036978546985 ) ) ;
#828 = EDGE_CURVE ( 'NONE', #1024, #987, #428, .T. ) ;
#829 = STYLED_ITEM ( 'NONE', ( #948 ), #983 ) ;
#830 =( NAMED_UNIT ( * ) PLANE_ANGLE_UNIT ( ) SI_UNIT ( $, .RADIAN. ) );
#831 = VECTOR ( 'NONE', #345, 1000.000000000000114 ) ;
#832 = SURFACE_STYLE_FILL_AREA ( #820 ) ;
#833 = ORIENTED_EDGE ( 'NONE', *, *, #369, .F. ) ;
#834 = LINE ( 'NONE', #734, #281 ) ;
#835 = SURFACE_SIDE_STYLE ('',( #1011 ) ) ;
#836 = CARTESIAN_POINT ( 'NONE',  ( 0.000000000000000000, 25.00000000000000000, 0.000000000000000000 ) ) ;
#837 = FILL_AREA_STYLE_COLOUR ( '', #1133 ) ;
#838 = ORIENTED_EDGE ( 'NONE', *, *, #243, .F. ) ;
#839 = DIRECTION ( 'NONE',  ( 1.000000000000000000, -0.000000000000000000, -9.637352644315585382E-17 ) ) ;
#840 = FILL_AREA_STYLE ('',( #296 ) ) ;
#841 = EDGE_CURVE ( 'NONE', #556, #956, #955, .T. ) ;
#842 = CARTESIAN_POINT ( 'NONE',  ( 30.00000000000001421, 25.00000000000000000, -7.500000000000003553 ) ) ;
#843 = ORIENTED_EDGE ( 'NONE', *, *, #617, .T. ) ;
#844 = AXIS2_PLACEMENT_3D ( 'NONE', #1118, #305, #863 ) ;
#845 = EDGE_LOOP ( 'NONE', ( #224, #782, #593, #204, #119, #534 ) ) ;
#846 = DIRECTION ( 'NONE',  ( -0.000000000000000000, -0.000000000000000000, -1.000000000000000000 ) ) ;
#847 = MECHANICAL_DESIGN_GEOMETRIC_PRESENTATION_REPRESENTATION (  '', ( #239 ), #808 ) ;
#848 = DIRECTION ( 'NONE',  ( 0.000000000000000000, 0.000000000000000000, 1.000000000000000000 ) ) ;
#849 = VECTOR ( 'NONE', #94, 1000.000000000000000 ) ;
#850 = SURFACE_STYLE_USAGE ( .BOTH. , #388 ) ;
#851 = MECHANICAL_DESIGN_GEOMETRIC_PRESENTATION_REPRESENTATION (  '', ( #570 ), #978 ) ;
#852 = MECHANICAL_DESIGN_GEOMETRIC_PRESENTATION_REPRESENTATION (  '', ( #681 ), #571 ) ;
#853 = DIRECTION ( 'NONE',  ( 0.000000000000000000, -1.000000000000000000, 0.000000000000000000 ) ) ;
#854 = ORIENTED_EDGE ( 'NONE', *, *, #145, .T. ) ;
#855 = ORIENTED_EDGE ( 'NONE', *, *, #1026, .T. ) ;
#856 = FILL_AREA_STYLE ('',( #415 ) ) ;
#857 = LINE ( 'NONE', #964, #1017 ) ;
#858 = DIRECTION ( 'NONE',  ( -0.000000000000000000, -0.000000000000000000, -1.000000000000000000 ) ) ;
#859 = PLANE ( 'NONE',  #936 ) ;
#860 = VERTEX_POINT ( 'NONE', #688 ) ;
#861 =( NAMED_UNIT ( * ) SI_UNIT ( $, .STERADIAN. ) SOLID_ANGLE_UNIT ( ) );
#862 = EDGE_CURVE ( 'NONE', #674, #406, #233, .T. ) ;
#863 = DIRECTION ( 'NONE',  ( -1.000000000000000000, 0.000000000000000000, 0.000000000000000000 ) ) ;
#864 = DIRECTION ( 'NONE',  ( -0.000000000000000000, -1.000000000000000000, -0.000000000000000000 ) ) ;
#865 = EDGE_LOOP ( 'NONE', ( #584, #1023, #599, #300 ) ) ;
#866 = DIRECTION ( 'NONE',  ( -0.000000000000000000, -1.000000000000000000, -0.000000000000000000 ) ) ;
#867 = PRESENTATION_LAYER_ASSIGNMENT (  '', '', ( #239 ) ) ;
#868 = EDGE_CURVE ( 'NONE', #739, #875, #906, .T. ) ;
#869 = AXIS2_PLACEMENT_3D ( 'NONE', #41, #1048, #594 ) ;
#870 = SURFACE_STYLE_FILL_AREA ( #209 ) ;
#871 = AXIS2_PLACEMENT_3D ( 'NONE', #1067, #611, #893 ) ;
#872 = VERTEX_POINT ( 'NONE', #482 ) ;
#873 = DIRECTION ( 'NONE',  ( -0.000000000000000000, -0.000000000000000000, -1.000000000000000000 ) ) ;
#874 = DIRECTION ( 'NONE',  ( 1.000000000000000000, -0.000000000000000000, -1.156482317317871971E-16 ) ) ;
#875 = VERTEX_POINT ( 'NONE', #673 ) ;
#876 = CARTESIAN_POINT ( 'NONE',  ( -12.00000000000000178, -2.204364238465235822E-15, -7.499999999999998224 ) ) ;
#877 = FACE_BOUND ( 'NONE', #149, .T. ) ;
#878 = PLANE ( 'NONE',  #108 ) ;
#879 = EDGE_CURVE ( 'NONE', #352, #92, #760, .T. ) ;
#880 = LINE ( 'NONE', #1171, #90 ) ;
#881 = ORIENTED_EDGE ( 'NONE', *, *, #1116, .F. ) ;
#882 =( GEOMETRIC_REPRESENTATION_CONTEXT ( 3 ) GLOBAL_UNCERTAINTY_ASSIGNED_CONTEXT ( ( #316 ) ) GLOBAL_UNIT_ASSIGNED_CONTEXT ( ( #207, #830, #751 ) ) REPRESENTATION_CONTEXT ( 'NONE', 'WORKASPACE' ) );
#883 = LINE ( 'NONE', #990, #699 ) ;
#884 = COLOUR_RGB ( '',0.8980392156862745390, 0.9176470588235293713, 0.9294117647058823817 ) ;
#885 = ORIENTED_EDGE ( 'NONE', *, *, #1026, .F. ) ;
#886 = PRESENTATION_LAYER_ASSIGNMENT (  '', '', ( #752 ) ) ;
#887 = CARTESIAN_POINT ( 'NONE',  ( -8.673617379884037444E-16, 9.000000000000001776, 7.249999999999992895 ) ) ;
#888 = CIRCLE ( 'NONE', #31, 3.999999999999998224 ) ;
#889 = ORIENTED_EDGE ( 'NONE', *, *, #841, .T. ) ;
#890 = AXIS2_PLACEMENT_3D ( 'NONE', #1144, #335, #705 ) ;
#891 = CARTESIAN_POINT ( 'NONE',  ( -23.00000000000000355, 13.00000000000000000, 0.000000000000000000 ) ) ;
#892 = DIRECTION ( 'NONE',  ( 0.000000000000000000, 0.000000000000000000, -1.000000000000000000 ) ) ;
#893 = DIRECTION ( 'NONE',  ( 1.000000000000000000, 0.000000000000000000, -1.156482317317871725E-16 ) ) ;
#894 = VERTEX_POINT ( 'NONE', #130 ) ;
#895 = DIRECTION ( 'NONE',  ( -0.000000000000000000, -0.000000000000000000, -1.000000000000000000 ) ) ;
#896 = CARTESIAN_POINT ( 'NONE',  ( 3.563572118890886209, 7.181203231597792502, 1.058484285044103190 ) ) ;
#897 = CARTESIAN_POINT ( 'NONE',  ( -27.99999999999998224, 13.00000000000000000, -5.499999999999996447 ) ) ;
#898 = CARTESIAN_POINT ( 'NONE',  ( -12.00000000000000000, -2.204364238465235822E-15, 7.500000000000005329 ) ) ;
#899 = ORIENTED_EDGE ( 'NONE', *, *, #88, .F. ) ;
#900 = CARTESIAN_POINT ( 'NONE',  ( 11.99999999999999822, 1.000000000000000888, -7.500000000000001776 ) ) ;
#901 = CONICAL_SURFACE ( 'NONE', #1164, 4.250000000000000000, 0.7853981633974482790 ) ;
#902 = CARTESIAN_POINT ( 'NONE',  ( 3.636242389079688664, 7.331247623480114939, -1.281997716183782332 ) ) ;
#903 =( GEOMETRIC_REPRESENTATION_CONTEXT ( 3 ) GLOBAL_UNCERTAINTY_ASSIGNED_CONTEXT ( ( #539 ) ) GLOBAL_UNIT_ASSIGNED_CONTEXT ( ( #500, #779, #1051 ) ) REPRESENTATION_CONTEXT ( 'NONE', 'WORKASPACE' ) );
#904 = VERTEX_POINT ( 'NONE', #312 ) ;
#905 = CARTESIAN_POINT ( 'NONE',  ( 28.00000000000001776, 13.00000000000000000, 5.499999999999995559 ) ) ;
#906 = CIRCLE ( 'NONE', #664, 2.499999999999996891 ) ;
#907 = CARTESIAN_POINT ( 'NONE',  ( 3.992431149079175512, 8.718504631439150998, 2.085681122469416060 ) ) ;
#908 = ADVANCED_FACE ( 'NONE', ( #122, #492 ), #502, .F. ) ;
#909 = FACE_OUTER_BOUND ( 'NONE', #383, .T. ) ;
#910 = VERTEX_POINT ( 'NONE', #665 ) ;
#911 = CARTESIAN_POINT ( 'NONE',  ( -23.00000000000000355, 13.00000000000000000, -2.499999999999996891 ) ) ;
#912 = LINE ( 'NONE', #454, #201 ) ;
#913 = ORIENTED_EDGE ( 'NONE', *, *, #694, .T. ) ;
#914 = EDGE_CURVE ( 'NONE', #445, #894, #205, .T. ) ;
#915 = PLANE ( 'NONE',  #646 ) ;
#916 = CARTESIAN_POINT ( 'NONE',  ( 30.00000000000002132, 0.000000000000000000, 7.499999999999996447 ) ) ;
#917 = SURFACE_STYLE_USAGE ( .BOTH. , #311 ) ;
#918 =( GEOMETRIC_REPRESENTATION_CONTEXT ( 3 ) GLOBAL_UNCERTAINTY_ASSIGNED_CONTEXT ( ( #219 ) ) GLOBAL_UNIT_ASSIGNED_CONTEXT ( ( #1020, #490, #116 ) ) REPRESENTATION_CONTEXT ( 'NONE', 'WORKASPACE' ) );
#919 = CIRCLE ( 'NONE', #1037, 2.499999999999996891 ) ;
#920 = EDGE_LOOP ( 'NONE', ( #524, #881, #124, #1006 ) ) ;
#921 = CIRCLE ( 'NONE', #446, 2.000000000000001776 ) ;
#922 = AXIS2_PLACEMENT_3D ( 'NONE', #1039, #225, #332 ) ;
#923 = CARTESIAN_POINT ( 'NONE',  ( 3.999999999999996447, 9.000000000000001776, -2.099999999999992983 ) ) ;
#924 = VECTOR ( 'NONE', #700, 1000.000000000000000 ) ;
#925 = DIRECTION ( 'NONE',  ( 0.000000000000000000, 0.000000000000000000, -1.000000000000000000 ) ) ;
#926 = EDGE_LOOP ( 'NONE', ( #1128, #1141 ) ) ;
#927 = DIRECTION ( 'NONE',  ( 0.000000000000000000, 0.000000000000000000, -1.000000000000000000 ) ) ;
#928 =( NAMED_UNIT ( * ) SI_UNIT ( $, .STERADIAN. ) SOLID_ANGLE_UNIT ( ) );
#929 = DIRECTION ( 'NONE',  ( 0.000000000000000000, 0.000000000000000000, 1.000000000000000000 ) ) ;
#930 = DIRECTION ( 'NONE',  ( -1.156482317317871971E-16, -0.000000000000000000, -1.000000000000000000 ) ) ;
#931 = ORIENTED_EDGE ( 'NONE', *, *, #1049, .F. ) ;
#932 = CARTESIAN_POINT ( 'NONE',  ( 3.992506552756170723, 9.280399026589984501, -2.085824595525207492 ) ) ;
#933 = DIRECTION ( 'NONE',  ( 0.000000000000000000, 0.000000000000000000, -1.000000000000000000 ) ) ;
#934 = CARTESIAN_POINT ( 'NONE',  ( 10.99999999999999289, 0.000000000000000000, 7.500000000000001776 ) ) ;
#935 = ORIENTED_EDGE ( 'NONE', *, *, #950, .T. ) ;
#936 = AXIS2_PLACEMENT_3D ( 'NONE', #1044, #39, #61 ) ;
#937 = VERTEX_POINT ( 'NONE', #781 ) ;
#938 = CARTESIAN_POINT ( 'NONE',  ( -27.99999999999997513, 25.00000000000000000, 7.500000000000000000 ) ) ;
#939 = AXIS2_PLACEMENT_3D ( 'NONE', #630, #730, #1091 ) ;
#940 = CYLINDRICAL_SURFACE ( 'NONE', #1057, 2.000000000000000000 ) ;
#941 = VECTOR ( 'NONE', #522, 1000.000000000000000 ) ;
#942 = AXIS2_PLACEMENT_3D ( 'NONE', #971, #244, #425 ) ;
#943 = CARTESIAN_POINT ( 'NONE',  ( -8.673617379884037444E-16, 9.000000000000001776, -7.500000000000000000 ) ) ;
#944 = ORIENTED_EDGE ( 'NONE', *, *, #651, .T. ) ;
#945 = VERTEX_POINT ( 'NONE', #404 ) ;
#946 = CARTESIAN_POINT ( 'NONE',  ( 3.470509496646007719, 10.98979042901345338, 0.6853316837616318935 ) ) ;
#947 =( NAMED_UNIT ( * ) SI_UNIT ( $, .STERADIAN. ) SOLID_ANGLE_UNIT ( ) );
#948 = PRESENTATION_STYLE_ASSIGNMENT (( #596 ) ) ;
#949 = CARTESIAN_POINT ( 'NONE',  ( -8.673617379884037444E-16, 9.000000000000001776, -7.500000000000000000 ) ) ;
#950 = EDGE_CURVE ( 'NONE', #59, #1031, #766, .T. ) ;
#951 = ORIENTED_EDGE ( 'NONE', *, *, #726, .F. ) ;
#952 =( NAMED_UNIT ( * ) PLANE_ANGLE_UNIT ( ) SI_UNIT ( $, .RADIAN. ) );
#953 = ADVANCED_BREP_SHAPE_REPRESENTATION ( '202500614-10103P01', ( #43, #731 ), #882 ) ;
#954 = SURFACE_SIDE_STYLE ('',( #772 ) ) ;
#955 = LINE ( 'NONE', #1029, #485 ) ;
#956 = VERTEX_POINT ( 'NONE', #319 ) ;
#957 = CARTESIAN_POINT ( 'NONE',  ( 3.942697291987975472, 9.686819380884459818, 1.989215713342910252 ) ) ;
#958 = AXIS2_PLACEMENT_3D ( 'NONE', #949, #424, #789 ) ;
#959 = DIRECTION ( 'NONE',  ( 0.000000000000000000, 0.000000000000000000, -1.000000000000000000 ) ) ;
#960 = MECHANICAL_DESIGN_GEOMETRIC_PRESENTATION_REPRESENTATION (  '', ( #752 ), #550 ) ;
#961 = FILL_AREA_STYLE ('',( #1052 ) ) ;
#962 = ORIENTED_EDGE ( 'NONE', *, *, #471, .T. ) ;
#963 = CARTESIAN_POINT ( 'NONE',  ( 3.636942491057319149, 10.66725198169081956, 1.284019688619549404 ) ) ;
#964 = CARTESIAN_POINT ( 'NONE',  ( 11.99999999999999822, 9.000000000000001776, 2.099999999999991207 ) ) ;
#965 = EDGE_CURVE ( 'NONE', #674, #141, #813, .T. ) ;
#966 = DIRECTION ( 'NONE',  ( 0.000000000000000000, -1.000000000000000000, 0.000000000000000000 ) ) ;
#967 = LINE ( 'NONE', #1074, #702 ) ;
#968 = ORIENTED_EDGE ( 'NONE', *, *, #545, .T. ) ;
#969 =( NAMED_UNIT ( * ) PLANE_ANGLE_UNIT ( ) SI_UNIT ( $, .RADIAN. ) );
#970 = CARTESIAN_POINT ( 'NONE',  ( 28.00000000000001776, 13.00000000000000000, 7.500000000000000000 ) ) ;
#971 = CARTESIAN_POINT ( 'NONE',  ( 22.99999999999999645, 13.00000000000000000, 5.204170427930421283E-15 ) ) ;
#972 = CARTESIAN_POINT ( 'NONE',  ( -8.673617379884037444E-16, 9.000000000000001776, -7.500000000000000000 ) ) ;
#973 = EDGE_LOOP ( 'NONE', ( #838, #798, #683, #17 ) ) ;
#974 = CARTESIAN_POINT ( 'NONE',  ( -10.99999999999998934, 0.000000000000000000, -7.499999999999999112 ) ) ;
#975 = CARTESIAN_POINT ( 'NONE',  ( 3.675204101981440541, 7.417804963141104047, 1.387354997676528701 ) ) ;
#976 = VECTOR ( 'NONE', #66, 1000.000000000000000 ) ;
#977 = DIRECTION ( 'NONE',  ( 0.000000000000000000, -1.000000000000000000, 0.000000000000000000 ) ) ;
#978 =( GEOMETRIC_REPRESENTATION_CONTEXT ( 3 ) GLOBAL_UNCERTAINTY_ASSIGNED_CONTEXT ( ( #637 ) ) GLOBAL_UNIT_ASSIGNED_CONTEXT ( ( #37, #952, #861 ) ) REPRESENTATION_CONTEXT ( 'NONE', 'WORKASPACE' ) );
#979 = PRESENTATION_LAYER_ASSIGNMENT (  '', '', ( #829 ) ) ;
#980 = CARTESIAN_POINT ( 'NONE',  ( -4.250000000000000888, 9.000000000000001776, -7.500000000000000000 ) ) ;
#981 = ORIENTED_EDGE ( 'NONE', *, *, #494, .F. ) ;
#982 = CIRCLE ( 'NONE', #942, 2.499999999999996891 ) ;
#983 = ADVANCED_FACE ( 'NONE', ( #228 ), #1046, .F. ) ;
#984 = SURFACE_STYLE_USAGE ( .BOTH. , #177 ) ;
#985 = DIRECTION ( 'NONE',  ( 1.000000000000000000, -9.637352644315605104E-17, -9.637352644315605104E-17 ) ) ;
#986 = CARTESIAN_POINT ( 'NONE',  ( 22.99999999999999645, 13.00000000000000000, 2.500000000000002220 ) ) ;
#987 = VERTEX_POINT ( 'NONE', #1150 ) ;
#988 = FILL_AREA_STYLE_COLOUR ( '', #186 ) ;
#989 = EDGE_CURVE ( 'NONE', #1075, #269, #1156, .T. ) ;
#990 = CARTESIAN_POINT ( 'NONE',  ( 30.00000000000001776, 13.00000000000000000, 7.500000000000000000 ) ) ;
#991 = DIRECTION ( 'NONE',  ( -1.156482317317871971E-16, -0.000000000000000000, -1.000000000000000000 ) ) ;
#992 = ORIENTED_EDGE ( 'NONE', *, *, #243, .T. ) ;
#993 = PRESENTATION_STYLE_ASSIGNMENT (( #241 ) ) ;
#994 =( NAMED_UNIT ( * ) SI_UNIT ( $, .STERADIAN. ) SOLID_ANGLE_UNIT ( ) );
#995 =( LENGTH_UNIT ( ) NAMED_UNIT ( * ) SI_UNIT ( .MILLI., .METRE. ) );
#996 = EDGE_CURVE ( 'NONE', #904, #725, #785, .T. ) ;
#997 = SURFACE_STYLE_USAGE ( .BOTH. , #1014 ) ;
#998 = PRESENTATION_LAYER_ASSIGNMENT (  '', '', ( #1168 ) ) ;
#999 = EDGE_LOOP ( 'NONE', ( #675, #572, #217, #1172 ) ) ;
#1000 = STYLED_ITEM ( 'NONE', ( #525 ), #609 ) ;
#1001 = VECTOR ( 'NONE', #583, 1000.000000000000114 ) ;
#1002 = CARTESIAN_POINT ( 'NONE',  ( 3.413271850690478448, 11.08581061367023146, -0.2804599351881092995 ) ) ;
#1003 = CARTESIAN_POINT ( 'NONE',  ( 4.000000000002709832, 8.999999999999412026, 2.100000000005159961 ) ) ;
#1004 = EDGE_CURVE ( 'NONE', #78, #314, #1041, .T. ) ;
#1005 =( LENGTH_UNIT ( ) NAMED_UNIT ( * ) SI_UNIT ( .MILLI., .METRE. ) );
#1006 = ORIENTED_EDGE ( 'NONE', *, *, #442, .F. ) ;
#1007 = CARTESIAN_POINT ( 'NONE',  ( 3.404313197714106121, 11.10015515752215265, 0.1377526004701934703 ) ) ;
#1008 = FACE_OUTER_BOUND ( 'NONE', #399, .T. ) ;
#1009 = VERTEX_POINT ( 'NONE', #632 ) ;
#1010 = CARTESIAN_POINT ( 'NONE',  ( 3.446176823054038163, 11.03098302151861532, 0.5517034954984457729 ) ) ;
#1011 = SURFACE_STYLE_FILL_AREA ( #961 ) ;
#1012 = FACE_BOUND ( 'NONE', #181, .T. ) ;
#1013 = MECHANICAL_DESIGN_GEOMETRIC_PRESENTATION_REPRESENTATION (  '', ( #430 ), #501 ) ;
#1014 = SURFACE_SIDE_STYLE ('',( #298 ) ) ;
#1015 = AXIS2_PLACEMENT_3D ( 'NONE', #836, #563, #747 ) ;
#1016 = ORIENTED_EDGE ( 'NONE', *, *, #1145, .F. ) ;
#1017 = VECTOR ( 'NONE', #334, 1000.000000000000000 ) ;
#1018 = EDGE_CURVE ( 'NONE', #314, #78, #684, .T. ) ;
#1019 = STYLED_ITEM ( 'NONE', ( #993 ), #588 ) ;
#1020 =( LENGTH_UNIT ( ) NAMED_UNIT ( * ) SI_UNIT ( .MILLI., .METRE. ) );
#1021 = SURFACE_STYLE_FILL_AREA ( #823 ) ;
#1022 = DIRECTION ( 'NONE',  ( 0.000000000000000000, 0.000000000000000000, -1.000000000000000000 ) ) ;
#1023 = ORIENTED_EDGE ( 'NONE', *, *, #369, .T. ) ;
#1024 = VERTEX_POINT ( 'NONE', #147 ) ;
#1025 = DIRECTION ( 'NONE',  ( -0.000000000000000000, 1.000000000000000000, -0.000000000000000000 ) ) ;
#1026 = EDGE_CURVE ( 'NONE', #872, #910, #167, .T. ) ;
#1027 = LINE ( 'NONE', #916, #103 ) ;
#1028 = CARTESIAN_POINT ( 'NONE',  ( -8.673617379884037444E-16, 9.000000000000001776, 7.249999999999992895 ) ) ;
#1029 = CARTESIAN_POINT ( 'NONE',  ( 30.00000000000001421, 25.00000000000000000, -7.500000000000003553 ) ) ;
#1030 = CARTESIAN_POINT ( 'NONE',  ( 28.00000000000001776, 25.00000000000000000, 7.499999999999996447 ) ) ;
#1031 = VERTEX_POINT ( 'NONE', #257 ) ;
#1032 = CARTESIAN_POINT ( 'NONE',  ( 3.790001567557417683, 10.29530280983929913, 1.674669591581278372 ) ) ;
#1033 = LINE ( 'NONE', #194, #1124 ) ;
#1034 = EDGE_CURVE ( 'NONE', #141, #860, #83, .T. ) ;
#1035 = CARTESIAN_POINT ( 'NONE',  ( 12.00000000000000000, 0.000000000000000000, 7.500000000000001776 ) ) ;
#1036 = ORIENTED_EDGE ( 'NONE', *, *, #145, .F. ) ;
#1037 = AXIS2_PLACEMENT_3D ( 'NONE', #118, #99, #1155 ) ;
#1038 = ORIENTED_EDGE ( 'NONE', *, *, #694, .F. ) ;
#1039 = CARTESIAN_POINT ( 'NONE',  ( 30.00000000000002132, 25.00000000000000000, 7.499999999999996447 ) ) ;
#1040 = AXIS2_PLACEMENT_3D ( 'NONE', #943, #858, #601 ) ;
#1041 = CIRCLE ( 'NONE', #284, 4.249999999999996447 ) ;
#1042 = EDGE_CURVE ( 'NONE', #556, #1024, #420, .T. ) ;
#1043 = CARTESIAN_POINT ( 'NONE',  ( -23.00000000000000355, 25.00000000000000000, 0.000000000000000000 ) ) ;
#1044 = CARTESIAN_POINT ( 'NONE',  ( -29.99999999999998224, 13.00000000000000000, 7.500000000000007105 ) ) ;
#1045 = ORIENTED_EDGE ( 'NONE', *, *, #862, .T. ) ;
#1046 = CYLINDRICAL_SURFACE ( 'NONE', #553, 2.499999999999996891 ) ;
#1047 = ORIENTED_EDGE ( 'NONE', *, *, #656, .T. ) ;
#1048 = DIRECTION ( 'NONE',  ( 0.000000000000000000, -1.000000000000000000, 0.000000000000000000 ) ) ;
#1049 = EDGE_CURVE ( 'NONE', #615, #126, #982, .T. ) ;
#1050 = PRODUCT ( '202500614-10103P01', '202500614-10103P01', '', ( #1056 ) ) ;
#1051 =( NAMED_UNIT ( * ) SI_UNIT ( $, .STERADIAN. ) SOLID_ANGLE_UNIT ( ) );
#1052 = FILL_AREA_STYLE_COLOUR ( '', #736 ) ;
#1053 = ORIENTED_EDGE ( 'NONE', *, *, #1034, .T. ) ;
#1054 = SURFACE_STYLE_FILL_AREA ( #488 ) ;
#1055 = ADVANCED_FACE ( 'NONE', ( #711 ), #878, .T. ) ;
#1056 = PRODUCT_CONTEXT ( 'NONE', #265, 'mechanical' ) ;
#1057 = AXIS2_PLACEMENT_3D ( 'NONE', #112, #759, #933 ) ;
#1058 = VECTOR ( 'NONE', #144, 999.9999999999998863 ) ;
#1059 = VECTOR ( 'NONE', #245, 1000.000000000000000 ) ;
#1060 = DIRECTION ( 'NONE',  ( -0.000000000000000000, -1.000000000000000000, -0.000000000000000000 ) ) ;
#1061 = VECTOR ( 'NONE', #985, 1000.000000000000000 ) ;
#1062 = DIRECTION ( 'NONE',  ( 0.000000000000000000, 0.000000000000000000, -1.000000000000000000 ) ) ;
#1063 = EDGE_LOOP ( 'NONE', ( #3, #749, #796, #253 ) ) ;
#1064 = CARTESIAN_POINT ( 'NONE',  ( 11.99999999999999822, 9.000000000000001776, -1.387778780781446070E-15 ) ) ;
#1065 = ORIENTED_EDGE ( 'NONE', *, *, #710, .T. ) ;
#1066 = DIRECTION ( 'NONE',  ( -0.000000000000000000, 1.000000000000000000, -0.000000000000000000 ) ) ;
#1067 = CARTESIAN_POINT ( 'NONE',  ( 30.00000000000001421, 25.00000000000000000, -7.500000000000003553 ) ) ;
#1068 = ORIENTED_EDGE ( 'NONE', *, *, #442, .T. ) ;
#1069 = FACE_OUTER_BOUND ( 'NONE', #565, .T. ) ;
#1070 = CARTESIAN_POINT ( 'NONE',  ( 22.99999999999999645, 25.00000000000000000, 5.204170427930421283E-15 ) ) ;
#1071 = CARTESIAN_POINT ( 'NONE',  ( 3.857981322683420977, 7.937069065816400482, -1.816203178319769851 ) ) ;
#1072 = DIRECTION ( 'NONE',  ( -1.000000000000000000, 0.000000000000000000, 0.000000000000000000 ) ) ;
#1073 = EDGE_CURVE ( 'NONE', #1009, #695, #465, .T. ) ;
#1074 = CARTESIAN_POINT ( 'NONE',  ( -29.99999999999998579, 25.00000000000000000, -7.499999999999996447 ) ) ;
#1075 = VERTEX_POINT ( 'NONE', #802 ) ;
#1076 = DIRECTION ( 'NONE',  ( -0.000000000000000000, -1.000000000000000000, 0.000000000000000000 ) ) ;
#1077 = LINE ( 'NONE', #183, #461 ) ;
#1078 = AXIS2_PLACEMENT_3D ( 'NONE', #1070, #1173, #892 ) ;
#1079 = FACE_OUTER_BOUND ( 'NONE', #372, .T. ) ;
#1080 = EDGE_CURVE ( 'NONE', #21, #59, #1098, .T. ) ;
#1081 = PRESENTATION_LAYER_ASSIGNMENT (  '', '', ( #187 ) ) ;
#1082 = DIRECTION ( 'NONE',  ( -0.7071067811865474617, 0.000000000000000000, -0.7071067811865474617 ) ) ;
#1083 = ORIENTED_EDGE ( 'NONE', *, *, #275, .F. ) ;
#1084 = UNCERTAINTY_MEASURE_WITH_UNIT (LENGTH_MEASURE( 1.000000000000000082E-05 ), #447, 'distance_accuracy_value', 'NONE');
#1085 = DIRECTION ( 'NONE',  ( -1.000000000000000000, 0.000000000000000000, 0.000000000000000000 ) ) ;
#1086 = ORIENTED_EDGE ( 'NONE', *, *, #914, .T. ) ;
#1087 = EDGE_CURVE ( 'NONE', #634, #904, #432, .T. ) ;
#1088 = CARTESIAN_POINT ( 'NONE',  ( -23.00000000000000355, 13.00000000000000000, 0.000000000000000000 ) ) ;
#1089 = CARTESIAN_POINT ( 'NONE',  ( 3.992346788574630878, 8.716881294221627385, -2.085523066637195999 ) ) ;
#1090 = ORIENTED_EDGE ( 'NONE', *, *, #20, .T. ) ;
#1091 = DIRECTION ( 'NONE',  ( 0.000000000000000000, 0.000000000000000000, -1.000000000000000000 ) ) ;
#1092 = EDGE_CURVE ( 'NONE', #725, #308, #622, .T. ) ;
#1093 = CARTESIAN_POINT ( 'NONE',  ( 3.441832478055743216, 6.958374123022126767, 0.5618326509583492223 ) ) ;
#1094 = VECTOR ( 'NONE', #598, 1000.000000000000114 ) ;
#1095 =( NAMED_UNIT ( * ) PLANE_ANGLE_UNIT ( ) SI_UNIT ( $, .RADIAN. ) );
#1096 = ORIENTED_EDGE ( 'NONE', *, *, #965, .F. ) ;
#1097 = VECTOR ( 'NONE', #215, 1000.000000000000000 ) ;
#1098 = CIRCLE ( 'NONE', #1135, 2.000000000000000000 ) ;
#1099 = CARTESIAN_POINT ( 'NONE',  ( 3.675372721266954024, 10.58179994510810928, -1.387796237317296066 ) ) ;
#1100 = SURFACE_SIDE_STYLE ('',( #832 ) ) ;
#1101 = ORIENTED_EDGE ( 'NONE', *, *, #341, .T. ) ;
#1102 = CARTESIAN_POINT ( 'NONE',  ( 3.942613402697793923, 9.687436902856704890, -1.989057498684134506 ) ) ;
#1103 = CYLINDRICAL_SURFACE ( 'NONE', #629, 2.499999999999996891 ) ;
#1104 = EDGE_LOOP ( 'NONE', ( #833, #817, #578, #192 ) ) ;
#1105 = DIRECTION ( 'NONE',  ( -0.000000000000000000, 1.000000000000000000, -0.000000000000000000 ) ) ;
#1106 = CARTESIAN_POINT ( 'NONE',  ( -27.99999999999997513, 25.00000000000000000, 5.500000000000000000 ) ) ;
#1107 = ORIENTED_EDGE ( 'NONE', *, *, #64, .T. ) ;
#1108 = EDGE_CURVE ( 'NONE', #455, #1120, #70, .T. ) ;
#1109 = COLOUR_RGB ( '',0.8980392156862745390, 0.9176470588235293713, 0.9294117647058823817 ) ;
#1110 = CARTESIAN_POINT ( 'NONE',  ( 3.999999999999995559, 9.000000000000001776, 7.249999999999992895 ) ) ;
#1111 = PRESENTATION_STYLE_ASSIGNMENT (( #850 ) ) ;
#1112 = CARTESIAN_POINT ( 'NONE',  ( 28.00000000000001066, 13.00000000000000000, -5.500000000000003553 ) ) ;
#1113 = EDGE_LOOP ( 'NONE', ( #135, #931 ) ) ;
#1114 = ORIENTED_EDGE ( 'NONE', *, *, #356, .F. ) ;
#1115 = CARTESIAN_POINT ( 'NONE',  ( 11.99999999999999822, 1.000000000000000888, -7.500000000000001776 ) ) ;
#1116 = EDGE_CURVE ( 'NONE', #59, #223, #797, .T. ) ;
#1117 = DIRECTION ( 'NONE',  ( 0.000000000000000000, 1.000000000000000000, 0.000000000000000000 ) ) ;
#1118 = CARTESIAN_POINT ( 'NONE',  ( -8.673617379884037444E-16, 9.000000000000001776, -7.500000000000000000 ) ) ;
#1119 = DIRECTION ( 'NONE',  ( 1.156482317317871971E-16, 0.000000000000000000, 1.000000000000000000 ) ) ;
#1120 = VERTEX_POINT ( 'NONE', #266 ) ;
#1121 = ORIENTED_EDGE ( 'NONE', *, *, #989, .T. ) ;
#1122 = SURFACE_STYLE_USAGE ( .BOTH. , #954 ) ;
#1123 = ADVANCED_FACE ( 'NONE', ( #1079 ), #901, .F. ) ;
#1124 = VECTOR ( 'NONE', #1117, 1000.000000000000000 ) ;
#1125 = DIRECTION ( 'NONE',  ( -4.625929269271485914E-16, -0.000000000000000000, -1.000000000000000000 ) ) ;
#1126 = CARTESIAN_POINT ( 'NONE',  ( -10.99999999999999112, -1.848892746611745981E-31, -7.499999999999999112 ) ) ;
#1127 = STYLED_ITEM ( 'NONE', ( #1111 ), #178 ) ;
#1128 = ORIENTED_EDGE ( 'NONE', *, *, #302, .T. ) ;
#1129 = LINE ( 'NONE', #938, #362 ) ;
#1130 = VECTOR ( 'NONE', #895, 1000.000000000000000 ) ;
#1131 = MECHANICAL_DESIGN_GEOMETRIC_PRESENTATION_REPRESENTATION (  '', ( #1019 ), #812 ) ;
#1132 = FILL_AREA_STYLE ('',( #508 ) ) ;
#1133 = COLOUR_RGB ( '',0.8980392156862745390, 0.9176470588235293713, 0.9294117647058823817 ) ;
#1134 = APPLICATION_CONTEXT ( 'automotive_design' ) ;
#1135 = AXIS2_PLACEMENT_3D ( 'NONE', #355, #1066, #520 ) ;
#1136 = CARTESIAN_POINT ( 'NONE',  ( 22.99999999999999645, 0.000000000000000000, -2.499999999999992006 ) ) ;
#1137 = ORIENTED_EDGE ( 'NONE', *, *, #436, .F. ) ;
#1138 = CARTESIAN_POINT ( 'NONE',  ( 3.675951822555247439, 10.58046148674019982, 1.389324796966883380 ) ) ;
#1139 = DIRECTION ( 'NONE',  ( 0.000000000000000000, -1.000000000000000000, 0.000000000000000000 ) ) ;
#1140 = EDGE_CURVE ( 'NONE', #725, #352, #1027, .T. ) ;
#1141 = ORIENTED_EDGE ( 'NONE', *, *, #868, .T. ) ;
#1142 = FACE_OUTER_BOUND ( 'NONE', #400, .T. ) ;
#1143 = FACE_OUTER_BOUND ( 'NONE', #107, .T. ) ;
#1144 = CARTESIAN_POINT ( 'NONE',  ( -8.673617379884037444E-16, 9.000000000000001776, 7.500000000000000000 ) ) ;
#1145 = EDGE_CURVE ( 'NONE', #92, #467, #1033, .T. ) ;
#1146 = ORIENTED_EDGE ( 'NONE', *, *, #667, .F. ) ;
#1147 = AXIS2_PLACEMENT_3D ( 'NONE', #479, #23, #663 ) ;
#1148 =( NAMED_UNIT ( * ) PLANE_ANGLE_UNIT ( ) SI_UNIT ( $, .RADIAN. ) );
#1149 = ORIENTED_EDGE ( 'NONE', *, *, #16, .T. ) ;
#1150 = CARTESIAN_POINT ( 'NONE',  ( 30.00000000000001776, 13.00000000000000000, -5.500000000000003553 ) ) ;
#1151 = MECHANICAL_DESIGN_GEOMETRIC_PRESENTATION_REPRESENTATION (  '', ( #829 ), #650 ) ;
#1152 = FACE_BOUND ( 'NONE', #386, .T. ) ;
#1153 = EDGE_LOOP ( 'NONE', ( #804, #811, #1146, #231 ) ) ;
#1154 = CARTESIAN_POINT ( 'NONE',  ( 22.99999999999999645, 0.000000000000000000, 2.500000000000002220 ) ) ;
#1155 = DIRECTION ( 'NONE',  ( 0.000000000000000000, 0.000000000000000000, -1.000000000000000000 ) ) ;
#1156 = LINE ( 'NONE', #540, #1061 ) ;
#1157 = LINE ( 'NONE', #168, #1059 ) ;
#1158 = ORIENTED_EDGE ( 'NONE', *, *, #1018, .T. ) ;
#1159 = DIRECTION ( 'NONE',  ( -1.000000000000000000, 0.000000000000000000, 0.000000000000000000 ) ) ;
#1160 = DIRECTION ( 'NONE',  ( -0.000000000000000000, -1.000000000000000000, -0.000000000000000000 ) ) ;
#1161 = CARTESIAN_POINT ( 'NONE',  ( -29.99999999999998579, 13.00000000000000000, -7.499999999999996447 ) ) ;
#1162 = ORIENTED_EDGE ( 'NONE', *, *, #16, .F. ) ;
#1163 = DIRECTION ( 'NONE',  ( 1.000000000000000000, -0.000000000000000000, -1.156482317317871971E-16 ) ) ;
#1164 = AXIS2_PLACEMENT_3D ( 'NONE', #693, #199, #212 ) ;
#1165 = CARTESIAN_POINT ( 'NONE',  ( 3.999999999999996447, 9.000000000000001776, -7.500000000000000000 ) ) ;
#1166 =( GEOMETRIC_REPRESENTATION_CONTEXT ( 3 ) GLOBAL_UNCERTAINTY_ASSIGNED_CONTEXT ( ( #716 ) ) GLOBAL_UNIT_ASSIGNED_CONTEXT ( ( #208, #288, #655 ) ) REPRESENTATION_CONTEXT ( 'NONE', 'WORKASPACE' ) );
#1167 = CARTESIAN_POINT ( 'NONE',  ( 3.942400286842690615, 8.311466458399975110, -1.988630198096265067 ) ) ;
#1168 = STYLED_ITEM ( 'NONE', ( #171 ), #374 ) ;
#1169 = COLOUR_RGB ( '',0.8980392156862745390, 0.9176470588235293713, 0.9294117647058823817 ) ;
#1170 =( GEOMETRIC_REPRESENTATION_CONTEXT ( 3 ) GLOBAL_UNCERTAINTY_ASSIGNED_CONTEXT ( ( #738 ) ) GLOBAL_UNIT_ASSIGNED_CONTEXT ( ( #1005, #1095, #451 ) ) REPRESENTATION_CONTEXT ( 'NONE', 'WORKASPACE' ) );
#1171 = CARTESIAN_POINT ( 'NONE',  ( -29.99999999999998579, 25.00000000000000000, -5.499999999999995559 ) ) ;
#1172 = ORIENTED_EDGE ( 'NONE', *, *, #35, .T. ) ;
#1173 = DIRECTION ( 'NONE',  ( 0.000000000000000000, -1.000000000000000000, 0.000000000000000000 ) ) ;
#1174 = FACE_OUTER_BOUND ( 'NONE', #169, .T. ) ;
#1175 = UNCERTAINTY_MEASURE_WITH_UNIT (LENGTH_MEASURE( 1.000000000000000082E-05 ), #382, 'distance_accuracy_value', 'NONE');
ENDSEC;
END-ISO-10303-21;
