ISO-10303-21;
HEADER;
FILE_DESCRIPTION (( 'STEP AP214' ),
    '1' );
FILE_NAME ('202500521_Abdeckblech Motorstecker 2_V1.0.STEP',
    '2026-02-19T15:56:07',
    ( '' ),
    ( '' ),
    'SwSTEP 2.0',
    'SolidWorks 2021',
    '' );
FILE_SCHEMA (( 'AUTOMOTIVE_DESIGN' ));
ENDSEC;

DATA;
#1 =( NAMED_UNIT ( * ) PLANE_ANGLE_UNIT ( ) SI_UNIT ( $, .RADIAN. ) );
#2 = ORIENTED_EDGE ( 'NONE', *, *, #1030, .T. ) ;
#3 = FACE_OUTER_BOUND ( 'NONE', #533, .T. ) ;
#4 = ORIENTED_EDGE ( 'NONE', *, *, #35, .F. ) ;
#5 = EDGE_LOOP ( 'NONE', ( #1093, #430, #644, #1033 ) ) ;
#6 = EDGE_CURVE ( 'NONE', #316, #1016, #959, .T. ) ;
#7 = FACE_BOUND ( 'NONE', #1028, .T. ) ;
#8 = DIRECTION ( 'NONE',  ( 3.304235192336784189E-15, 0.000000000000000000, -1.000000000000000000 ) ) ;
#9 = DIRECTION ( 'NONE',  ( -0.000000000000000000, -1.000000000000000000, -0.000000000000000000 ) ) ;
#10 = PRESENTATION_STYLE_ASSIGNMENT (( #979 ) ) ;
#11 = AXIS2_PLACEMENT_3D ( 'NONE', #932, #488, #144 ) ;
#12 = ORIENTED_EDGE ( 'NONE', *, *, #828, .T. ) ;
#13 = CARTESIAN_POINT ( 'NONE',  ( 52.50000000000009237, 0.000000000000000000, 30.00000000000000711 ) ) ;
#14 = DIRECTION ( 'NONE',  ( -1.000000000000000000, 0.000000000000000000, -3.491481338843133355E-15 ) ) ;
#15 = ORIENTED_EDGE ( 'NONE', *, *, #774, .T. ) ;
#16 = AXIS2_PLACEMENT_3D ( 'NONE', #257, #609, #275 ) ;
#17 = PRESENTATION_LAYER_ASSIGNMENT (  '', '', ( #416 ) ) ;
#18 = EDGE_CURVE ( 'NONE', #917, #1002, #840, .T. ) ;
#19 = DIRECTION ( 'NONE',  ( 1.000000000000000000, 0.000000000000000000, -3.469446951953611033E-15 ) ) ;
#20 = FACE_BOUND ( 'NONE', #179, .T. ) ;
#21 =( GEOMETRIC_REPRESENTATION_CONTEXT ( 3 ) GLOBAL_UNCERTAINTY_ASSIGNED_CONTEXT ( ( #741 ) ) GLOBAL_UNIT_ASSIGNED_CONTEXT ( ( #729, #128, #1089 ) ) REPRESENTATION_CONTEXT ( 'NONE', 'WORKASPACE' ) );
#22 = ORIENTED_EDGE ( 'NONE', *, *, #384, .F. ) ;
#23 = CARTESIAN_POINT ( 'NONE',  ( 52.50000000000007816, 95.00000000000000000, 25.69046515733024449 ) ) ;
#24 = EDGE_CURVE ( 'NONE', #923, #972, #788, .T. ) ;
#25 = STYLED_ITEM ( 'NONE', ( #906 ), #943 ) ;
#26 = LINE ( 'NONE', #895, #473 ) ;
#27 =( NAMED_UNIT ( * ) SI_UNIT ( $, .STERADIAN. ) SOLID_ANGLE_UNIT ( ) );
#28 = VECTOR ( 'NONE', #44, 1000.000000000000000 ) ;
#29 = EDGE_LOOP ( 'NONE', ( #913, #832, #1078, #63 ) ) ;
#30 = CARTESIAN_POINT ( 'NONE',  ( 50.50000000000009237, 0.000000000000000000, 30.00000000000001421 ) ) ;
#31 = VECTOR ( 'NONE', #649, 1000.000000000000000 ) ;
#32 = DIRECTION ( 'NONE',  ( 1.000000000000000000, 0.000000000000000000, 0.000000000000000000 ) ) ;
#33 = ORIENTED_EDGE ( 'NONE', *, *, #472, .T. ) ;
#34 = DIRECTION ( 'NONE',  ( 4.163336342344339393E-15, 0.000000000000000000, 1.000000000000000000 ) ) ;
#35 = EDGE_CURVE ( 'NONE', #697, #291, #966, .T. ) ;
#36 = VECTOR ( 'NONE', #194, 1000.000000000000000 ) ;
#37 = DIRECTION ( 'NONE',  ( -1.000000000000000000, -0.000000000000000000, -3.574581708073419723E-15 ) ) ;
#38 = EDGE_LOOP ( 'NONE', ( #759, #946 ) ) ;
#39 = DIRECTION ( 'NONE',  ( -1.000000000000000000, 0.000000000000000000, -3.491481338843133355E-15 ) ) ;
#40 = EDGE_CURVE ( 'NONE', #143, #325, #509, .T. ) ;
#41 = CARTESIAN_POINT ( 'NONE',  ( -50.50000000000000000, 115.0000000000000000, 3.999999999999996447 ) ) ;
#42 =( GEOMETRIC_REPRESENTATION_CONTEXT ( 3 ) GLOBAL_UNCERTAINTY_ASSIGNED_CONTEXT ( ( #1127 ) ) GLOBAL_UNIT_ASSIGNED_CONTEXT ( ( #81, #1, #887 ) ) REPRESENTATION_CONTEXT ( 'NONE', 'WORKASPACE' ) );
#43 = ORIENTED_EDGE ( 'NONE', *, *, #730, .F. ) ;
#44 = DIRECTION ( 'NONE',  ( -1.000000000000000000, -0.000000000000000000, -3.491481338843133355E-15 ) ) ;
#45 = AXIS2_PLACEMENT_3D ( 'NONE', #274, #114, #846 ) ;
#46 = UNCERTAINTY_MEASURE_WITH_UNIT (LENGTH_MEASURE( 1.000000000000000082E-05 ), #534, 'distance_accuracy_value', 'NONE');
#47 = FILL_AREA_STYLE ('',( #1100 ) ) ;
#48 = AXIS2_PLACEMENT_3D ( 'NONE', #335, #1043, #171 ) ;
#49 = DIRECTION ( 'NONE',  ( -3.574581708073419723E-15, -0.000000000000000000, -1.000000000000000000 ) ) ;
#50 = EDGE_CURVE ( 'NONE', #764, #408, #355, .T. ) ;
#51 = FILL_AREA_STYLE_COLOUR ( '', #140 ) ;
#52 = ORIENTED_EDGE ( 'NONE', *, *, #546, .F. ) ;
#53 = CARTESIAN_POINT ( 'NONE',  ( 52.50000000000007816, 20.00000000000000355, 25.69046515733024449 ) ) ;
#54 = ORIENTED_EDGE ( 'NONE', *, *, #24, .F. ) ;
#55 = DIRECTION ( 'NONE',  ( 0.000000000000000000, 0.000000000000000000, -1.000000000000000000 ) ) ;
#56 = APPLICATION_CONTEXT ( 'automotive_design' ) ;
#57 = ORIENTED_EDGE ( 'NONE', *, *, #285, .T. ) ;
#58 = LINE ( 'NONE', #309, #994 ) ;
#59 = EDGE_LOOP ( 'NONE', ( #1088, #253, #948, #405 ) ) ;
#60 = UNCERTAINTY_MEASURE_WITH_UNIT (LENGTH_MEASURE( 1.000000000000000082E-05 ), #604, 'distance_accuracy_value', 'NONE');
#61 = SURFACE_STYLE_FILL_AREA ( #153 ) ;
#62 = DIRECTION ( 'NONE',  ( 1.000000000000000000, -0.000000000000000000, -3.574581708073419723E-15 ) ) ;
#63 = ORIENTED_EDGE ( 'NONE', *, *, #546, .T. ) ;
#64 = CARTESIAN_POINT ( 'NONE',  ( 52.50000000000007105, 20.00000000000000355, 23.59046515733025018 ) ) ;
#65 = ORIENTED_EDGE ( 'NONE', *, *, #679, .T. ) ;
#66 = SURFACE_SIDE_STYLE ('',( #61 ) ) ;
#67 = STYLED_ITEM ( 'NONE', ( #794 ), #801 ) ;
#68 = CARTESIAN_POINT ( 'NONE',  ( 52.50000000000007105, 95.00000000000000000, 23.59046515733024663 ) ) ;
#69 = ORIENTED_EDGE ( 'NONE', *, *, #1024, .F. ) ;
#70 = CARTESIAN_POINT ( 'NONE',  ( 48.50000000000000000, 115.0000000000000000, 1.734723475976807094E-15 ) ) ;
#71 = ADVANCED_FACE ( 'NONE', ( #855, #952, #159 ), #784, .F. ) ;
#72 = DIRECTION ( 'NONE',  ( -3.304235192336778667E-15, 0.000000000000000000, 1.000000000000000000 ) ) ;
#73 = DIRECTION ( 'NONE',  ( -1.000000000000000000, -0.000000000000000000, -0.000000000000000000 ) ) ;
#74 = AXIS2_PLACEMENT_3D ( 'NONE', #271, #991, #19 ) ;
#75 = FACE_OUTER_BOUND ( 'NONE', #960, .T. ) ;
#76 = LINE ( 'NONE', #856, #612 ) ;
#77 = CIRCLE ( 'NONE', #916, 2.000000000000001776 ) ;
#78 = ADVANCED_FACE ( 'NONE', ( #75 ), #180, .F. ) ;
#79 = FILL_AREA_STYLE_COLOUR ( '', #198 ) ;
#80 = MECHANICAL_DESIGN_GEOMETRIC_PRESENTATION_REPRESENTATION (  '', ( #607 ), #21 ) ;
#81 =( LENGTH_UNIT ( ) NAMED_UNIT ( * ) SI_UNIT ( .MILLI., .METRE. ) );
#82 = ORIENTED_EDGE ( 'NONE', *, *, #368, .F. ) ;
#83 = CARTESIAN_POINT ( 'NONE',  ( 52.50000000000011369, 0.000000000000000000, 35.00000000000000000 ) ) ;
#84 = CARTESIAN_POINT ( 'NONE',  ( -50.50000000000009237, 110.0000000000000000, 30.00000000000001421 ) ) ;
#85 = EDGE_CURVE ( 'NONE', #457, #357, #440, .T. ) ;
#86 = PRESENTATION_LAYER_ASSIGNMENT (  '', '', ( #189 ) ) ;
#87 = DIRECTION ( 'NONE',  ( 1.000000000000000000, 0.000000000000000000, -3.469446951953611033E-15 ) ) ;
#88 = ORIENTED_EDGE ( 'NONE', *, *, #217, .F. ) ;
#89 = AXIS2_PLACEMENT_3D ( 'NONE', #676, #1017, #216 ) ;
#90 = ADVANCED_FACE ( 'NONE', ( #1146 ), #700, .F. ) ;
#91 = DIRECTION ( 'NONE',  ( 3.304235192336784189E-15, 0.000000000000000000, -1.000000000000000000 ) ) ;
#92 = DIRECTION ( 'NONE',  ( 1.000000000000000000, -0.000000000000000000, -3.574581708073419723E-15 ) ) ;
#93 = CIRCLE ( 'NONE', #166, 4.000000000000001776 ) ;
#94 = VERTEX_POINT ( 'NONE', #187 ) ;
#95 = CARTESIAN_POINT ( 'NONE',  ( -50.50000000000011369, 115.0000000000000000, 35.00000000000000711 ) ) ;
#96 = DIRECTION ( 'NONE',  ( 1.000000000000000000, 0.000000000000000000, 3.574581708073419723E-15 ) ) ;
#97 = CARTESIAN_POINT ( 'NONE',  ( 48.50000000000000000, 115.0000000000000000, 4.000000000000003553 ) ) ;
#98 = DIRECTION ( 'NONE',  ( 0.000000000000000000, -1.000000000000000000, 0.000000000000000000 ) ) ;
#99 = EDGE_CURVE ( 'NONE', #862, #123, #484, .T. ) ;
#100 = LINE ( 'NONE', #444, #199 ) ;
#101 = CARTESIAN_POINT ( 'NONE',  ( -50.50000000000009237, 115.0000000000000000, 30.00000000000001421 ) ) ;
#102 = CARTESIAN_POINT ( 'NONE',  ( -52.50000000000009237, 0.000000000000000000, 30.00000000000000355 ) ) ;
#103 = VECTOR ( 'NONE', #598, 1000.000000000000000 ) ;
#104 = CARTESIAN_POINT ( 'NONE',  ( -50.50000000000008527, 20.00000000000000355, 27.79046515733024592 ) ) ;
#105 = VERTEX_POINT ( 'NONE', #625 ) ;
#106 = VECTOR ( 'NONE', #1110, 1000.000000000000000 ) ;
#107 = ORIENTED_EDGE ( 'NONE', *, *, #993, .T. ) ;
#108 = DIRECTION ( 'NONE',  ( -0.000000000000000000, 1.000000000000000000, 0.000000000000000000 ) ) ;
#109 = EDGE_CURVE ( 'NONE', #143, #123, #369, .T. ) ;
#110 = DIRECTION ( 'NONE',  ( 0.000000000000000000, 0.000000000000000000, 1.000000000000000000 ) ) ;
#111 = DIRECTION ( 'NONE',  ( -1.000000000000000000, 0.000000000000000000, 3.574581708073419723E-15 ) ) ;
#112 = DIRECTION ( 'NONE',  ( -0.000000000000000000, 1.000000000000000000, -0.000000000000000000 ) ) ;
#113 = ORIENTED_EDGE ( 'NONE', *, *, #139, .F. ) ;
#114 = DIRECTION ( 'NONE',  ( 1.000000000000000000, -0.000000000000000000, -3.574581708073419723E-15 ) ) ;
#115 = CIRCLE ( 'NONE', #806, 2.099999999999990763 ) ;
#116 = LINE ( 'NONE', #736, #915 ) ;
#117 = APPLICATION_CONTEXT ( 'automotive_design' ) ;
#118 = CARTESIAN_POINT ( 'NONE',  ( 48.50000000000000000, 115.0000000000000000, 4.000000000000003553 ) ) ;
#119 = VERTEX_POINT ( 'NONE', #903 ) ;
#120 = PRESENTATION_LAYER_ASSIGNMENT (  '', '', ( #25 ) ) ;
#121 = EDGE_CURVE ( 'NONE', #481, #330, #116, .T. ) ;
#122 = LINE ( 'NONE', #195, #375 ) ;
#123 = VERTEX_POINT ( 'NONE', #385 ) ;
#124 = FACE_OUTER_BOUND ( 'NONE', #1084, .T. ) ;
#125 = CARTESIAN_POINT ( 'NONE',  ( -52.50000000000007816, 20.00000000000000355, 25.69046515733024449 ) ) ;
#126 = EDGE_CURVE ( 'NONE', #795, #105, #212, .T. ) ;
#127 = ORIENTED_EDGE ( 'NONE', *, *, #109, .F. ) ;
#128 =( NAMED_UNIT ( * ) PLANE_ANGLE_UNIT ( ) SI_UNIT ( $, .RADIAN. ) );
#129 = CIRCLE ( 'NONE', #766, 5.000000000000000888 ) ;
#130 = PLANE ( 'NONE',  #692 ) ;
#131 = VERTEX_POINT ( 'NONE', #835 ) ;
#132 = DIRECTION ( 'NONE',  ( 0.000000000000000000, -1.000000000000000000, 0.000000000000000000 ) ) ;
#133 = SURFACE_SIDE_STYLE ('',( #219 ) ) ;
#134 = DIRECTION ( 'NONE',  ( 0.000000000000000000, 0.000000000000000000, -1.000000000000000000 ) ) ;
#135 = DIRECTION ( 'NONE',  ( -0.000000000000000000, 1.000000000000000000, -0.000000000000000000 ) ) ;
#136 = ORIENTED_EDGE ( 'NONE', *, *, #302, .T. ) ;
#137 = PLANE ( 'NONE',  #11 ) ;
#138 = VECTOR ( 'NONE', #188, 1000.000000000000000 ) ;
#139 = EDGE_CURVE ( 'NONE', #986, #346, #542, .T. ) ;
#140 = COLOUR_RGB ( '',0.7921568627450980005, 0.8196078431372548767, 0.9333333333333333481 ) ;
#141 = DIRECTION ( 'NONE',  ( -1.000000000000000000, -0.000000000000000000, -3.574581708073419723E-15 ) ) ;
#142 = DIRECTION ( 'NONE',  ( -3.491481338843133355E-15, 0.000000000000000000, -1.000000000000000000 ) ) ;
#143 = VERTEX_POINT ( 'NONE', #634 ) ;
#144 = DIRECTION ( 'NONE',  ( 0.000000000000000000, 0.000000000000000000, 1.000000000000000000 ) ) ;
#145 = ORIENTED_EDGE ( 'NONE', *, *, #224, .T. ) ;
#146 = DIRECTION ( 'NONE',  ( 0.000000000000000000, -1.000000000000000000, 0.000000000000000000 ) ) ;
#147 = VECTOR ( 'NONE', #653, 1000.000000000000000 ) ;
#148 = CARTESIAN_POINT ( 'NONE',  ( 52.50000000000007816, 20.00000000000000355, 25.69046515733024449 ) ) ;
#149 = AXIS2_PLACEMENT_3D ( 'NONE', #825, #910, #464 ) ;
#150 = EDGE_LOOP ( 'NONE', ( #813, #297, #145, #467 ) ) ;
#151 = LINE ( 'NONE', #230, #520 ) ;
#152 = ORIENTED_EDGE ( 'NONE', *, *, #360, .F. ) ;
#153 = FILL_AREA_STYLE ('',( #748 ) ) ;
#154 = CARTESIAN_POINT ( 'NONE',  ( 50.50000000000007816, 95.00000000000000000, 25.69046515733025160 ) ) ;
#155 = ORIENTED_EDGE ( 'NONE', *, *, #1030, .F. ) ;
#156 = FACE_OUTER_BOUND ( 'NONE', #371, .T. ) ;
#157 = EDGE_LOOP ( 'NONE', ( #12, #2, #616, #586 ) ) ;
#158 = CIRCLE ( 'NONE', #426, 2.000000000000001776 ) ;
#159 = FACE_BOUND ( 'NONE', #845, .T. ) ;
#160 = CARTESIAN_POINT ( 'NONE',  ( 52.50000000000009237, 0.000000000000000000, 30.00000000000000711 ) ) ;
#161 = ADVANCED_FACE ( 'NONE', ( #183 ), #1082, .T. ) ;
#162 = PRODUCT_DEFINITION_SHAPE ( 'NONE', 'NONE',  #1037 ) ;
#163 = UNCERTAINTY_MEASURE_WITH_UNIT (LENGTH_MEASURE( 1.000000000000000082E-05 ), #393, 'distance_accuracy_value', 'NONE');
#164 = CARTESIAN_POINT ( 'NONE',  ( -48.50000000000000000, 0.000000000000000000, 1.734723475976807094E-15 ) ) ;
#165 = DIRECTION ( 'NONE',  ( -3.304235192336784189E-15, 0.000000000000000000, 1.000000000000000000 ) ) ;
#166 = AXIS2_PLACEMENT_3D ( 'NONE', #1018, #294, #888 ) ;
#167 = ORIENTED_EDGE ( 'NONE', *, *, #50, .T. ) ;
#168 =( NAMED_UNIT ( * ) SI_UNIT ( $, .STERADIAN. ) SOLID_ANGLE_UNIT ( ) );
#169 = ORIENTED_EDGE ( 'NONE', *, *, #99, .T. ) ;
#170 = DIRECTION ( 'NONE',  ( 1.000000000000000000, 0.000000000000000000, 3.574581708073419723E-15 ) ) ;
#171 = DIRECTION ( 'NONE',  ( 4.163336342344336238E-15, 0.000000000000000000, -1.000000000000000000 ) ) ;
#172 = ORIENTED_EDGE ( 'NONE', *, *, #783, .F. ) ;
#173 = VERTEX_POINT ( 'NONE', #811 ) ;
#174 = CARTESIAN_POINT ( 'NONE',  ( 52.50000000000000711, 0.000000000000000000, 3.999999999999989786 ) ) ;
#175 = CARTESIAN_POINT ( 'NONE',  ( -48.50000000000000000, 0.000000000000000000, 1.734723475976807094E-15 ) ) ;
#176 = EDGE_CURVE ( 'NONE', #728, #795, #26, .T. ) ;
#177 = DIRECTION ( 'NONE',  ( 4.163336342344339393E-15, 0.000000000000000000, 1.000000000000000000 ) ) ;
#178 = ORIENTED_EDGE ( 'NONE', *, *, #126, .F. ) ;
#179 = EDGE_LOOP ( 'NONE', ( #240, #273 ) ) ;
#180 = CYLINDRICAL_SURFACE ( 'NONE', #1132, 2.000000000000001776 ) ;
#181 = VECTOR ( 'NONE', #935, 1000.000000000000000 ) ;
#182 = CARTESIAN_POINT ( 'NONE',  ( -50.50000000000000000, 0.000000000000000000, 3.999999999999996447 ) ) ;
#183 = FACE_OUTER_BOUND ( 'NONE', #797, .T. ) ;
#184 = DIRECTION ( 'NONE',  ( -1.000000000000000000, 0.000000000000000000, -3.469446951953611033E-15 ) ) ;
#185 = EDGE_CURVE ( 'NONE', #697, #923, #129, .T. ) ;
#186 = CARTESIAN_POINT ( 'NONE',  ( -50.50000000000000000, 0.000000000000000000, 3.999999999999996447 ) ) ;
#187 = CARTESIAN_POINT ( 'NONE',  ( -52.50000000000011369, 110.0000000000000000, 35.00000000000000000 ) ) ;
#188 = DIRECTION ( 'NONE',  ( 1.000000000000000000, 0.000000000000000000, 0.000000000000000000 ) ) ;
#189 = STYLED_ITEM ( 'NONE', ( #322 ), #1015 ) ;
#190 = ORIENTED_EDGE ( 'NONE', *, *, #799, .F. ) ;
#191 = ADVANCED_FACE ( 'NONE', ( #996 ), #568, .F. ) ;
#192 = DIRECTION ( 'NONE',  ( -3.304235192336778667E-15, 0.000000000000000000, -1.000000000000000000 ) ) ;
#193 = DIRECTION ( 'NONE',  ( 1.000000000000000000, -0.000000000000000000, -3.574581708073419723E-15 ) ) ;
#194 = DIRECTION ( 'NONE',  ( 1.000000000000000000, 0.000000000000000000, 3.491481338843133355E-15 ) ) ;
#195 = CARTESIAN_POINT ( 'NONE',  ( 52.50000000000000711, 0.000000000000000000, 3.999999999999989786 ) ) ;
#196 = ORIENTED_EDGE ( 'NONE', *, *, #685, .F. ) ;
#197 = SURFACE_SIDE_STYLE ('',( #726 ) ) ;
#198 = COLOUR_RGB ( '',0.7921568627450980005, 0.8196078431372548767, 0.9333333333333333481 ) ;
#199 = VECTOR ( 'NONE', #798, 1000.000000000000000 ) ;
#200 = ADVANCED_FACE ( 'NONE', ( #1103 ), #921, .T. ) ;
#201 = VERTEX_POINT ( 'NONE', #659 ) ;
#202 = PRESENTATION_STYLE_ASSIGNMENT (( #898 ) ) ;
#203 = EDGE_CURVE ( 'NONE', #318, #357, #93, .T. ) ;
#204 = DIRECTION ( 'NONE',  ( 0.000000000000000000, 0.000000000000000000, 1.000000000000000000 ) ) ;
#205 = DIRECTION ( 'NONE',  ( -3.304235192336790106E-15, 0.000000000000000000, 1.000000000000000000 ) ) ;
#206 = ORIENTED_EDGE ( 'NONE', *, *, #217, .T. ) ;
#207 = PLANE ( 'NONE',  #660 ) ;
#208 = CIRCLE ( 'NONE', #332, 2.099999999999987210 ) ;
#209 =( NAMED_UNIT ( * ) PLANE_ANGLE_UNIT ( ) SI_UNIT ( $, .RADIAN. ) );
#210 = ORIENTED_EDGE ( 'NONE', *, *, #281, .T. ) ;
#211 = FACE_OUTER_BOUND ( 'NONE', #29, .T. ) ;
#212 = CIRCLE ( 'NONE', #981, 2.099999999999990763 ) ;
#213 = CARTESIAN_POINT ( 'NONE',  ( 52.50000000000011369, 115.0000000000000000, 35.00000000000000000 ) ) ;
#214 = CARTESIAN_POINT ( 'NONE',  ( 52.50000000000011369, 0.000000000000000000, 35.00000000000000000 ) ) ;
#215 = VERTEX_POINT ( 'NONE', #1011 ) ;
#216 = DIRECTION ( 'NONE',  ( 4.163336342344336238E-15, 0.000000000000000000, 1.000000000000000000 ) ) ;
#217 = EDGE_CURVE ( 'NONE', #677, #349, #880, .T. ) ;
#218 = AXIS2_PLACEMENT_3D ( 'NONE', #389, #132, #909 ) ;
#219 = SURFACE_STYLE_FILL_AREA ( #47 ) ;
#220 = CARTESIAN_POINT ( 'NONE',  ( -52.50000000000007816, 95.00000000000000000, 25.69046515733024449 ) ) ;
#221 = CARTESIAN_POINT ( 'NONE',  ( 52.50000000000009237, 115.0000000000000000, 30.00000000000000355 ) ) ;
#222 = ORIENTED_EDGE ( 'NONE', *, *, #613, .T. ) ;
#223 = LINE ( 'NONE', #740, #758 ) ;
#224 = EDGE_CURVE ( 'NONE', #917, #215, #710, .T. ) ;
#225 = UNCERTAINTY_MEASURE_WITH_UNIT (LENGTH_MEASURE( 1.000000000000000082E-05 ), #338, 'distance_accuracy_value', 'NONE');
#226 = COLOUR_RGB ( '',0.7921568627450980005, 0.8196078431372548767, 0.9333333333333333481 ) ;
#227 = VECTOR ( 'NONE', #345, 1000.000000000000000 ) ;
#228 = DIRECTION ( 'NONE',  ( 0.000000000000000000, -1.000000000000000000, -0.000000000000000000 ) ) ;
#229 = ORIENTED_EDGE ( 'NONE', *, *, #702, .T. ) ;
#230 = CARTESIAN_POINT ( 'NONE',  ( 48.50000000000000000, 115.0000000000000000, 2.000000000000001776 ) ) ;
#231 = EDGE_CURVE ( 'NONE', #744, #954, #115, .T. ) ;
#232 = AXIS2_PLACEMENT_3D ( 'NONE', #1062, #978, #531 ) ;
#233 = CYLINDRICAL_SURFACE ( 'NONE', #633, 2.099999999999994316 ) ;
#234 = ORIENTED_EDGE ( 'NONE', *, *, #866, .T. ) ;
#235 = DIRECTION ( 'NONE',  ( -1.000000000000000000, 0.000000000000000000, -0.000000000000000000 ) ) ;
#236 = ADVANCED_FACE ( 'NONE', ( #300 ), #573, .F. ) ;
#237 = DIRECTION ( 'NONE',  ( 3.304235192336778667E-15, 0.000000000000000000, 1.000000000000000000 ) ) ;
#238 = CARTESIAN_POINT ( 'NONE',  ( 52.49999999999999289, 0.000000000000000000, -1.946485023515407675E-13 ) ) ;
#239 = PLANE ( 'NONE',  #312 ) ;
#240 = ORIENTED_EDGE ( 'NONE', *, *, #852, .F. ) ;
#241 = CIRCLE ( 'NONE', #870, 4.000000000000001776 ) ;
#242 = CARTESIAN_POINT ( 'NONE',  ( 50.50000000000000000, 0.000000000000000000, 3.999999999999996447 ) ) ;
#243 = CIRCLE ( 'NONE', #1102, 2.099999999999987210 ) ;
#244 =( LENGTH_UNIT ( ) NAMED_UNIT ( * ) SI_UNIT ( .MILLI., .METRE. ) );
#245 = CARTESIAN_POINT ( 'NONE',  ( 50.50000000000011369, 0.000000000000000000, 35.00000000000000711 ) ) ;
#246 = CARTESIAN_POINT ( 'NONE',  ( -48.50000000000000000, 0.000000000000000000, 4.000000000000003553 ) ) ;
#247 = EDGE_LOOP ( 'NONE', ( #250, #470, #778, #886 ) ) ;
#248 = ADVANCED_FACE ( 'NONE', ( #984 ), #666, .T. ) ;
#249 = VECTOR ( 'NONE', #684, 1000.000000000000000 ) ;
#250 = ORIENTED_EDGE ( 'NONE', *, *, #270, .F. ) ;
#251 = AXIS2_PLACEMENT_3D ( 'NONE', #1065, #962, #358 ) ;
#252 = ORIENTED_EDGE ( 'NONE', *, *, #437, .F. ) ;
#253 = ORIENTED_EDGE ( 'NONE', *, *, #40, .F. ) ;
#254 = EDGE_CURVE ( 'NONE', #1002, #871, #1128, .T. ) ;
#255 = DIRECTION ( 'NONE',  ( -1.000000000000000000, 0.000000000000000000, -3.491481338843133355E-15 ) ) ;
#256 = CARTESIAN_POINT ( 'NONE',  ( -50.49999999999998579, 0.000000000000000000, -1.876655396738545008E-13 ) ) ;
#257 = CARTESIAN_POINT ( 'NONE',  ( -52.50000000000000000, 0.000000000000000000, 2.000000000000000000 ) ) ;
#258 = PRODUCT_RELATED_PRODUCT_CATEGORY ( 'part', '', ( #751 ) ) ;
#259 = SURFACE_SIDE_STYLE ('',( #867 ) ) ;
#260 = DIRECTION ( 'NONE',  ( 1.000000000000000000, 0.000000000000000000, 3.574581708073419723E-15 ) ) ;
#261 = DIRECTION ( 'NONE',  ( 3.304235192336784189E-15, 0.000000000000000000, 1.000000000000000000 ) ) ;
#262 = LINE ( 'NONE', #617, #492 ) ;
#263 = EDGE_CURVE ( 'NONE', #809, #487, #397, .T. ) ;
#264 = SURFACE_SIDE_STYLE ('',( #540 ) ) ;
#265 = DIRECTION ( 'NONE',  ( 1.000000000000000000, -0.000000000000000000, -3.574581708073419723E-15 ) ) ;
#266 = FACE_OUTER_BOUND ( 'NONE', #59, .T. ) ;
#267 = VECTOR ( 'NONE', #511, 1000.000000000000000 ) ;
#268 = COLOUR_RGB ( '',0.7921568627450980005, 0.8196078431372548767, 0.9333333333333333481 ) ;
#269 = ORIENTED_EDGE ( 'NONE', *, *, #530, .F. ) ;
#270 = EDGE_CURVE ( 'NONE', #423, #537, #940, .T. ) ;
#271 = CARTESIAN_POINT ( 'NONE',  ( 48.50000000000000000, 115.0000000000000000, 4.000000000000003553 ) ) ;
#272 = DIRECTION ( 'NONE',  ( -3.304235192336784189E-15, 0.000000000000000000, 1.000000000000000000 ) ) ;
#273 = ORIENTED_EDGE ( 'NONE', *, *, #993, .F. ) ;
#274 = CARTESIAN_POINT ( 'NONE',  ( 52.50000000000007816, 95.00000000000000000, 25.69046515733024449 ) ) ;
#275 = DIRECTION ( 'NONE',  ( 0.000000000000000000, -0.000000000000000000, 1.000000000000000000 ) ) ;
#276 = CIRCLE ( 'NONE', #1026, 5.000000000000000888 ) ;
#277 = SURFACE_SIDE_STYLE ('',( #907 ) ) ;
#278 = MECHANICAL_DESIGN_GEOMETRIC_PRESENTATION_REPRESENTATION (  '', ( #189 ), #595 ) ;
#279 = ORIENTED_EDGE ( 'NONE', *, *, #295, .T. ) ;
#280 = DIRECTION ( 'NONE',  ( 0.000000000000000000, -1.000000000000000000, 0.000000000000000000 ) ) ;
#281 = EDGE_CURVE ( 'NONE', #537, #487, #414, .T. ) ;
#282 = DIRECTION ( 'NONE',  ( -1.000000000000000000, -0.000000000000000000, -3.574581708073419723E-15 ) ) ;
#283 = ORIENTED_EDGE ( 'NONE', *, *, #722, .T. ) ;
#284 = DIRECTION ( 'NONE',  ( 0.000000000000000000, 0.000000000000000000, 1.000000000000000000 ) ) ;
#285 = EDGE_CURVE ( 'NONE', #330, #552, #516, .T. ) ;
#286 = CARTESIAN_POINT ( 'NONE',  ( 0.000000000000000000, 0.000000000000000000, 0.000000000000000000 ) ) ;
#287 = SURFACE_STYLE_USAGE ( .BOTH. , #277 ) ;
#288 = ORIENTED_EDGE ( 'NONE', *, *, #254, .T. ) ;
#289 = PLANE ( 'NONE',  #611 ) ;
#290 = CARTESIAN_POINT ( 'NONE',  ( -52.50000000000007105, 20.00000000000000355, 23.59046515733025728 ) ) ;
#291 = VERTEX_POINT ( 'NONE', #326 ) ;
#292 = CARTESIAN_POINT ( 'NONE',  ( 48.50000000000000000, 0.000000000000000000, 2.000000000000001776 ) ) ;
#293 = VECTOR ( 'NONE', #112, 1000.000000000000000 ) ;
#294 = DIRECTION ( 'NONE',  ( -0.000000000000000000, 1.000000000000000000, -0.000000000000000000 ) ) ;
#295 = EDGE_CURVE ( 'NONE', #325, #318, #497, .T. ) ;
#296 = LINE ( 'NONE', #404, #483 ) ;
#297 = ORIENTED_EDGE ( 'NONE', *, *, #1140, .T. ) ;
#298 = DIRECTION ( 'NONE',  ( 0.000000000000000000, -1.000000000000000000, 0.000000000000000000 ) ) ;
#299 = AXIS2_PLACEMENT_3D ( 'NONE', #478, #535, #829 ) ;
#300 = FACE_OUTER_BOUND ( 'NONE', #344, .T. ) ;
#301 = CARTESIAN_POINT ( 'NONE',  ( -52.50000000000009237, 115.0000000000000000, 30.00000000000000711 ) ) ;
#302 = EDGE_CURVE ( 'NONE', #349, #677, #415, .T. ) ;
#303 = ORIENTED_EDGE ( 'NONE', *, *, #774, .F. ) ;
#304 = CARTESIAN_POINT ( 'NONE',  ( 50.50000000000007105, 95.00000000000000000, 23.59046515733025373 ) ) ;
#305 = ORIENTED_EDGE ( 'NONE', *, *, #637, .F. ) ;
#306 = CARTESIAN_POINT ( 'NONE',  ( 50.50000000000007105, 20.00000000000000355, 23.59046515733025728 ) ) ;
#307 = ORIENTED_EDGE ( 'NONE', *, *, #961, .T. ) ;
#308 = CIRCLE ( 'NONE', #45, 2.099999999999990763 ) ;
#309 = CARTESIAN_POINT ( 'NONE',  ( 52.50000000000000711, 0.000000000000000000, 3.999999999999989786 ) ) ;
#310 = ORIENTED_EDGE ( 'NONE', *, *, #900, .F. ) ;
#311 = ADVANCED_FACE ( 'NONE', ( #842 ), #949, .F. ) ;
#312 = AXIS2_PLACEMENT_3D ( 'NONE', #317, #587, #235 ) ;
#313 = VECTOR ( 'NONE', #62, 1000.000000000000000 ) ;
#314 = CARTESIAN_POINT ( 'NONE',  ( -48.50000000000000000, 0.000000000000000000, 4.000000000000003553 ) ) ;
#315 = CARTESIAN_POINT ( 'NONE',  ( 52.50000000000000000, 0.000000000000000000, 1.999999999999993117 ) ) ;
#316 = VERTEX_POINT ( 'NONE', #768 ) ;
#317 = CARTESIAN_POINT ( 'NONE',  ( 0.000000000000000000, 0.000000000000000000, 2.000000000000000000 ) ) ;
#318 = VERTEX_POINT ( 'NONE', #1134 ) ;
#319 = ADVANCED_FACE ( 'NONE', ( #508 ), #860, .F. ) ;
#320 = DIRECTION ( 'NONE',  ( -0.000000000000000000, -1.000000000000000000, -0.000000000000000000 ) ) ;
#321 = AXIS2_PLACEMENT_3D ( 'NONE', #504, #853, #72 ) ;
#322 = PRESENTATION_STYLE_ASSIGNMENT (( #837 ) ) ;
#323 = ORIENTED_EDGE ( 'NONE', *, *, #515, .T. ) ;
#324 = DIRECTION ( 'NONE',  ( 1.000000000000000000, -0.000000000000000000, -3.574581708073419723E-15 ) ) ;
#325 = VERTEX_POINT ( 'NONE', #175 ) ;
#326 = CARTESIAN_POINT ( 'NONE',  ( 50.50000000000011369, 5.000000000000000000, 35.00000000000000711 ) ) ;
#327 = FILL_AREA_STYLE_COLOUR ( '', #646 ) ;
#328 = EDGE_LOOP ( 'NONE', ( #565, #1143, #850, #877, #451, #731 ) ) ;
#329 = CARTESIAN_POINT ( 'NONE',  ( 48.50000000000000000, 115.0000000000000000, 2.000000000000001776 ) ) ;
#330 = VERTEX_POINT ( 'NONE', #1080 ) ;
#331 = MECHANICAL_DESIGN_GEOMETRIC_PRESENTATION_REPRESENTATION (  '', ( #773 ), #1097 ) ;
#332 = AXIS2_PLACEMENT_3D ( 'NONE', #125, #37, #1004 ) ;
#333 = SURFACE_STYLE_USAGE ( .BOTH. , #1139 ) ;
#334 = AXIS2_PLACEMENT_3D ( 'NONE', #529, #429, #769 ) ;
#335 = CARTESIAN_POINT ( 'NONE',  ( -52.50000000000009237, 5.000000000000004441, 30.00000000000000355 ) ) ;
#336 = EDGE_CURVE ( 'NONE', #864, #762, #894, .T. ) ;
#337 = DIRECTION ( 'NONE',  ( 0.000000000000000000, 1.000000000000000000, 0.000000000000000000 ) ) ;
#338 =( LENGTH_UNIT ( ) NAMED_UNIT ( * ) SI_UNIT ( .MILLI., .METRE. ) );
#339 = CARTESIAN_POINT ( 'NONE',  ( -48.50000000000000000, 0.000000000000000000, 2.000000000000001776 ) ) ;
#340 = FACE_OUTER_BOUND ( 'NONE', #1118, .T. ) ;
#341 = CARTESIAN_POINT ( 'NONE',  ( -50.50000000000007816, 20.00000000000000355, 25.69046515733025160 ) ) ;
#342 = CARTESIAN_POINT ( 'NONE',  ( 52.50000000000009237, 115.0000000000000000, 30.00000000000000355 ) ) ;
#343 = SURFACE_STYLE_FILL_AREA ( #347 ) ;
#344 = EDGE_LOOP ( 'NONE', ( #222, #169, #127, #1114 ) ) ;
#345 = DIRECTION ( 'NONE',  ( 0.000000000000000000, 0.000000000000000000, -1.000000000000000000 ) ) ;
#346 = VERTEX_POINT ( 'NONE', #101 ) ;
#347 = FILL_AREA_STYLE ('',( #1063 ) ) ;
#348 = ORIENTED_EDGE ( 'NONE', *, *, #702, .F. ) ;
#349 = VERTEX_POINT ( 'NONE', #624 ) ;
#350 =( NAMED_UNIT ( * ) SI_UNIT ( $, .STERADIAN. ) SOLID_ANGLE_UNIT ( ) );
#351 = EDGE_CURVE ( 'NONE', #764, #481, #547, .T. ) ;
#352 = CARTESIAN_POINT ( 'NONE',  ( -52.50000000000009237, 5.000000000000004441, 30.00000000000000355 ) ) ;
#353 =( NAMED_UNIT ( * ) PLANE_ANGLE_UNIT ( ) SI_UNIT ( $, .RADIAN. ) );
#354 = STYLED_ITEM ( 'NONE', ( #1096 ), #836 ) ;
#355 = LINE ( 'NONE', #238, #1090 ) ;
#356 = SURFACE_SIDE_STYLE ('',( #441 ) ) ;
#357 = VERTEX_POINT ( 'NONE', #1073 ) ;
#358 = DIRECTION ( 'NONE',  ( -3.304235192336778667E-15, 0.000000000000000000, 1.000000000000000000 ) ) ;
#359 =( NAMED_UNIT ( * ) PLANE_ANGLE_UNIT ( ) SI_UNIT ( $, .RADIAN. ) );
#360 = EDGE_CURVE ( 'NONE', #552, #809, #77, .T. ) ;
#361 = CARTESIAN_POINT ( 'NONE',  ( 52.50000000000007816, 95.00000000000000000, 25.69046515733024449 ) ) ;
#362 = LINE ( 'NONE', #370, #138 ) ;
#363 = AXIS2_PLACEMENT_3D ( 'NONE', #802, #55, #460 ) ;
#364 = CIRCLE ( 'NONE', #640, 4.999999999999997335 ) ;
#365 = EDGE_LOOP ( 'NONE', ( #998, #663, #1041, #210 ) ) ;
#366 = DIRECTION ( 'NONE',  ( -1.000000000000000000, -0.000000000000000000, -3.574581708073419723E-15 ) ) ;
#367 = AXIS2_PLACEMENT_3D ( 'NONE', #642, #651, #558 ) ;
#368 = EDGE_CURVE ( 'NONE', #349, #744, #1144, .T. ) ;
#369 = LINE ( 'NONE', #723, #147 ) ;
#370 = CARTESIAN_POINT ( 'NONE',  ( -52.50000000000000000, 0.000000000000000000, 0.000000000000000000 ) ) ;
#371 = EDGE_LOOP ( 'NONE', ( #671, #718, #980, #593 ) ) ;
#372 = FILL_AREA_STYLE_COLOUR ( '', #920 ) ;
#373 = DIRECTION ( 'NONE',  ( 1.000000000000000000, -0.000000000000000000, 3.491481338843133355E-15 ) ) ;
#374 = ADVANCED_FACE ( 'NONE', ( #340 ), #521, .T. ) ;
#375 = VECTOR ( 'NONE', #550, 1000.000000000000000 ) ;
#376 = EDGE_LOOP ( 'NONE', ( #628, #348, #489, #513 ) ) ;
#377 = CYLINDRICAL_SURFACE ( 'NONE', #218, 2.000000000000001776 ) ;
#378 = EDGE_LOOP ( 'NONE', ( #82, #136, #689, #1121 ) ) ;
#379 = LINE ( 'NONE', #1094, #28 ) ;
#380 = FACE_OUTER_BOUND ( 'NONE', #683, .T. ) ;
#381 = ORIENTED_EDGE ( 'NONE', *, *, #936, .T. ) ;
#382 = LINE ( 'NONE', #1079, #539 ) ;
#383 = UNCERTAINTY_MEASURE_WITH_UNIT (LENGTH_MEASURE( 1.000000000000000082E-05 ), #555, 'distance_accuracy_value', 'NONE');
#384 = EDGE_CURVE ( 'NONE', #481, #291, #364, .T. ) ;
#385 = CARTESIAN_POINT ( 'NONE',  ( -52.50000000000009237, 0.000000000000000000, 30.00000000000000355 ) ) ;
#386 = DIRECTION ( 'NONE',  ( -1.000000000000000000, 0.000000000000000000, 3.491481338843133355E-15 ) ) ;
#387 = AXIS2_PLACEMENT_3D ( 'NONE', #1069, #985, #958 ) ;
#388 = ORIENTED_EDGE ( 'NONE', *, *, #599, .T. ) ;
#389 = CARTESIAN_POINT ( 'NONE',  ( -48.50000000000000000, 0.000000000000000000, 4.000000000000003553 ) ) ;
#390 = AXIS2_PLACEMENT_3D ( 'NONE', #154, #922, #237 ) ;
#391 = CARTESIAN_POINT ( 'NONE',  ( -52.50000000000008527, 20.00000000000000355, 27.79046515733023881 ) ) ;
#392 = ADVANCED_FACE ( 'NONE', ( #7, #708, #618 ), #553, .T. ) ;
#393 =( LENGTH_UNIT ( ) NAMED_UNIT ( * ) SI_UNIT ( .MILLI., .METRE. ) );
#394 = EDGE_LOOP ( 'NONE', ( #310, #754, #65, #591 ) ) ;
#395 = CARTESIAN_POINT ( 'NONE',  ( -52.50000000000000000, 115.0000000000000000, 2.000000000000000000 ) ) ;
#396 = AXIS2_PLACEMENT_3D ( 'NONE', #955, #170, #1042 ) ;
#397 = LINE ( 'NONE', #944, #746 ) ;
#398 = DIRECTION ( 'NONE',  ( 1.000000000000000000, -0.000000000000000000, -3.574581708073419723E-15 ) ) ;
#399 = ADVANCED_FACE ( 'NONE', ( #820 ), #652, .F. ) ;
#400 = ORIENTED_EDGE ( 'NONE', *, *, #884, .F. ) ;
#401 = CARTESIAN_POINT ( 'NONE',  ( 48.50000000000000000, 0.000000000000000000, 4.000000000000003553 ) ) ;
#402 = VERTEX_POINT ( 'NONE', #514 ) ;
#403 = PRESENTATION_STYLE_ASSIGNMENT (( #410 ) ) ;
#404 = CARTESIAN_POINT ( 'NONE',  ( -48.50000000000000000, 0.000000000000000000, 2.000000000000001776 ) ) ;
#405 = ORIENTED_EDGE ( 'NONE', *, *, #203, .F. ) ;
#406 = DIRECTION ( 'NONE',  ( -3.574581708073419723E-15, -0.000000000000000000, 1.000000000000000000 ) ) ;
#407 = EDGE_CURVE ( 'NONE', #346, #762, #1001, .T. ) ;
#408 = VERTEX_POINT ( 'NONE', #174 ) ;
#409 = CIRCLE ( 'NONE', #1064, 2.099999999999990763 ) ;
#410 = SURFACE_STYLE_USAGE ( .BOTH. , #66 ) ;
#411 = CARTESIAN_POINT ( 'NONE',  ( 50.50000000000000000, 115.0000000000000000, 3.999999999999996447 ) ) ;
#412 = EDGE_LOOP ( 'NONE', ( #838, #33, #303, #381 ) ) ;
#413 = CARTESIAN_POINT ( 'NONE',  ( 48.50000000000000000, 115.0000000000000000, 4.000000000000003553 ) ) ;
#414 = LINE ( 'NONE', #580, #181 ) ;
#415 = CIRCLE ( 'NONE', #396, 2.099999999999997868 ) ;
#416 = STYLED_ITEM ( 'NONE', ( #665 ), #399 ) ;
#417 = DIRECTION ( 'NONE',  ( 3.574581708073419723E-15, 0.000000000000000000, -1.000000000000000000 ) ) ;
#418 = CARTESIAN_POINT ( 'NONE',  ( -52.50000000000000711, 115.0000000000000000, 3.999999999999989786 ) ) ;
#419 = ORIENTED_EDGE ( 'NONE', *, *, #422, .T. ) ;
#420 = ORIENTED_EDGE ( 'NONE', *, *, #176, .F. ) ;
#421 = FILL_AREA_STYLE ('',( #79 ) ) ;
#422 = EDGE_CURVE ( 'NONE', #402, #94, #262, .T. ) ;
#423 = VERTEX_POINT ( 'NONE', #182 ) ;
#424 = DIRECTION ( 'NONE',  ( 0.000000000000000000, -1.000000000000000000, 0.000000000000000000 ) ) ;
#425 = DIRECTION ( 'NONE',  ( 1.000000000000000000, 0.000000000000000000, 3.574581708073419723E-15 ) ) ;
#426 = AXIS2_PLACEMENT_3D ( 'NONE', #401, #662, #1021 ) ;
#427 = VECTOR ( 'NONE', #556, 1000.000000000000000 ) ;
#428 = EDGE_CURVE ( 'NONE', #537, #325, #719, .T. ) ;
#429 = DIRECTION ( 'NONE',  ( -0.000000000000000000, -1.000000000000000000, -0.000000000000000000 ) ) ;
#430 = ORIENTED_EDGE ( 'NONE', *, *, #351, .T. ) ;
#431 = CARTESIAN_POINT ( 'NONE',  ( -52.50000000000009237, 110.0000000000000000, 30.00000000000000711 ) ) ;
#432 = EDGE_LOOP ( 'NONE', ( #733, #897, #475, #234 ) ) ;
#433 = CARTESIAN_POINT ( 'NONE',  ( 50.50000000000009237, 5.000000000000000000, 30.00000000000001421 ) ) ;
#434 = CYLINDRICAL_SURFACE ( 'NONE', #735, 2.099999999999994316 ) ;
#435 = CLOSED_SHELL ( 'NONE', ( #319, #810, #399, #836, #71, #891, #90, #590, #743, #161, #493, #715, #767, #522, #236, #485, #1147, #554, #248, #919, #200, #78, #1008, #191, #392, #976, #1120, #311, #1015, #477, #374, #1111, #750, #1095 ) ) ;
#436 = ORIENTED_EDGE ( 'NONE', *, *, #1104, .F. ) ;
#437 = EDGE_CURVE ( 'NONE', #552, #923, #100, .T. ) ;
#438 = ORIENTED_EDGE ( 'NONE', *, *, #945, .T. ) ;
#439 = DIRECTION ( 'NONE',  ( -1.000000000000000000, -0.000000000000000000, 3.491481338843133355E-15 ) ) ;
#440 = LINE ( 'NONE', #418, #584 ) ;
#441 = SURFACE_STYLE_FILL_AREA ( #889 ) ;
#442 = ORIENTED_EDGE ( 'NONE', *, *, #805, .T. ) ;
#443 = EDGE_CURVE ( 'NONE', #986, #357, #969, .T. ) ;
#444 = CARTESIAN_POINT ( 'NONE',  ( 50.50000000000011369, 115.0000000000000000, 35.00000000000000711 ) ) ;
#445 = DIRECTION ( 'NONE',  ( 4.163336342344336238E-15, 0.000000000000000000, -1.000000000000000000 ) ) ;
#446 = AXIS2_PLACEMENT_3D ( 'NONE', #476, #468, #34 ) ;
#447 = CIRCLE ( 'NONE', #1141, 2.099999999999987210 ) ;
#448 = AXIS2_PLACEMENT_3D ( 'NONE', #561, #724, #635 ) ;
#449 = DIRECTION ( 'NONE',  ( -3.304235192336790106E-15, 0.000000000000000000, -1.000000000000000000 ) ) ;
#450 = DIRECTION ( 'NONE',  ( -1.000000000000000000, -0.000000000000000000, -3.574581708073419723E-15 ) ) ;
#451 = ORIENTED_EDGE ( 'NONE', *, *, #805, .F. ) ;
#452 = DIRECTION ( 'NONE',  ( 3.574581708073419723E-15, 0.000000000000000000, -1.000000000000000000 ) ) ;
#453 = DIRECTION ( 'NONE',  ( 1.000000000000000000, -0.000000000000000000, -3.574581708073419723E-15 ) ) ;
#454 = CARTESIAN_POINT ( 'NONE',  ( -52.50000000000000711, 115.0000000000000000, 3.999999999999989786 ) ) ;
#455 = VECTOR ( 'NONE', #14, 1000.000000000000000 ) ;
#456 = VECTOR ( 'NONE', #366, 1000.000000000000000 ) ;
#457 = VERTEX_POINT ( 'NONE', #1071 ) ;
#458 = EDGE_CURVE ( 'NONE', #423, #143, #987, .T. ) ;
#459 = VECTOR ( 'NONE', #255, 1000.000000000000000 ) ;
#460 = DIRECTION ( 'NONE',  ( -1.000000000000000000, 0.000000000000000000, -0.000000000000000000 ) ) ;
#461 = CARTESIAN_POINT ( 'NONE',  ( 50.50000000000009237, 115.0000000000000000, 30.00000000000001066 ) ) ;
#462 = ORIENTED_EDGE ( 'NONE', *, *, #899, .F. ) ;
#463 = FACE_OUTER_BOUND ( 'NONE', #500, .T. ) ;
#464 = DIRECTION ( 'NONE',  ( 3.574581708073419723E-15, 0.000000000000000000, 1.000000000000000000 ) ) ;
#465 = PRESENTATION_LAYER_ASSIGNMENT (  '', '', ( #354 ) ) ;
#466 = CARTESIAN_POINT ( 'NONE',  ( -52.50000000000011369, 5.000000000000004441, 35.00000000000000000 ) ) ;
#467 = ORIENTED_EDGE ( 'NONE', *, *, #852, .T. ) ;
#468 = DIRECTION ( 'NONE',  ( 1.000000000000000000, -0.000000000000000000, -3.574581708073419723E-15 ) ) ;
#469 = LINE ( 'NONE', #821, #31 ) ;
#470 = ORIENTED_EDGE ( 'NONE', *, *, #458, .T. ) ;
#471 = CARTESIAN_POINT ( 'NONE',  ( 50.50000000000000000, 115.0000000000000000, 3.999999999999996447 ) ) ;
#472 = EDGE_CURVE ( 'NONE', #291, #562, #538, .T. ) ;
#473 = VECTOR ( 'NONE', #265, 1000.000000000000000 ) ;
#474 = FACE_OUTER_BOUND ( 'NONE', #412, .T. ) ;
#475 = ORIENTED_EDGE ( 'NONE', *, *, #428, .T. ) ;
#476 = CARTESIAN_POINT ( 'NONE',  ( 52.50000000000009237, 5.000000000000000000, 30.00000000000000711 ) ) ;
#477 = ADVANCED_FACE ( 'NONE', ( #734 ), #814, .F. ) ;
#478 = CARTESIAN_POINT ( 'NONE',  ( -50.50000000000007816, 95.00000000000000000, 25.69046515733025160 ) ) ;
#479 =( NAMED_UNIT ( * ) PLANE_ANGLE_UNIT ( ) SI_UNIT ( $, .RADIAN. ) );
#480 = AXIS2_PLACEMENT_3D ( 'NONE', #246, #98, #184 ) ;
#481 = VERTEX_POINT ( 'NONE', #30 ) ;
#482 = CARTESIAN_POINT ( 'NONE',  ( -50.50000000000009237, 5.000000000000004441, 30.00000000000001066 ) ) ;
#483 = VECTOR ( 'NONE', #135, 1000.000000000000000 ) ;
#484 = LINE ( 'NONE', #102, #455 ) ;
#485 = ADVANCED_FACE ( 'NONE', ( #1006 ), #1099, .F. ) ;
#486 = SURFACE_SIDE_STYLE ('',( #1129 ) ) ;
#487 = VERTEX_POINT ( 'NONE', #292 ) ;
#488 = DIRECTION ( 'NONE',  ( -0.000000000000000000, 1.000000000000000000, 0.000000000000000000 ) ) ;
#489 = ORIENTED_EDGE ( 'NONE', *, *, #685, .T. ) ;
#490 = PRESENTATION_LAYER_ASSIGNMENT (  '', '', ( #1072 ) ) ;
#491 = DIRECTION ( 'NONE',  ( 0.000000000000000000, 0.000000000000000000, -1.000000000000000000 ) ) ;
#492 = VECTOR ( 'NONE', #108, 1000.000000000000000 ) ;
#493 = ADVANCED_FACE ( 'NONE', ( #463 ), #207, .T. ) ;
#494 = LINE ( 'NONE', #1124, #313 ) ;
#495 = ORIENTED_EDGE ( 'NONE', *, *, #608, .T. ) ;
#496 = FACE_OUTER_BOUND ( 'NONE', #365, .T. ) ;
#497 = LINE ( 'NONE', #164, #901 ) ;
#498 = LINE ( 'NONE', #41, #106 ) ;
#499 = CIRCLE ( 'NONE', #990, 2.099999999999994316 ) ;
#500 = EDGE_LOOP ( 'NONE', ( #804, #69, #661, #524 ) ) ;
#501 = DIRECTION ( 'NONE',  ( 0.000000000000000000, -0.000000000000000000, -1.000000000000000000 ) ) ;
#502 = ORIENTED_EDGE ( 'NONE', *, *, #368, .T. ) ;
#503 = PRESENTATION_LAYER_ASSIGNMENT (  '', '', ( #737 ) ) ;
#504 = CARTESIAN_POINT ( 'NONE',  ( -52.50000000000007816, 95.00000000000000000, 25.69046515733024449 ) ) ;
#505 = FACE_OUTER_BOUND ( 'NONE', #328, .T. ) ;
#506 = DIRECTION ( 'NONE',  ( 3.304235192336784189E-15, 0.000000000000000000, 1.000000000000000000 ) ) ;
#507 = DIRECTION ( 'NONE',  ( 0.000000000000000000, 1.000000000000000000, 0.000000000000000000 ) ) ;
#508 = FACE_OUTER_BOUND ( 'NONE', #1009, .T. ) ;
#509 = CIRCLE ( 'NONE', #619, 4.000000000000001776 ) ;
#510 = COLOUR_RGB ( '',0.7921568627450980005, 0.8196078431372548767, 0.9333333333333333481 ) ;
#511 = DIRECTION ( 'NONE',  ( 1.000000000000000000, -0.000000000000000000, -3.491481338843133355E-15 ) ) ;
#512 = FACE_OUTER_BOUND ( 'NONE', #157, .T. ) ;
#513 = ORIENTED_EDGE ( 'NONE', *, *, #1061, .F. ) ;
#514 = CARTESIAN_POINT ( 'NONE',  ( -52.50000000000011369, 5.000000000000004441, 35.00000000000000000 ) ) ;
#515 = EDGE_CURVE ( 'NONE', #728, #712, #770, .T. ) ;
#516 = LINE ( 'NONE', #242, #249 ) ;
#517 = VERTEX_POINT ( 'NONE', #1010 ) ;
#518 = ORIENTED_EDGE ( 'NONE', *, *, #559, .F. ) ;
#519 = ORIENTED_EDGE ( 'NONE', *, *, #515, .F. ) ;
#520 = VECTOR ( 'NONE', #583, 1000.000000000000000 ) ;
#521 = CYLINDRICAL_SURFACE ( 'NONE', #1150, 5.000000000000000888 ) ;
#522 = ADVANCED_FACE ( 'NONE', ( #124 ), #377, .F. ) ;
#523 = FACE_OUTER_BOUND ( 'NONE', #739, .T. ) ;
#524 = ORIENTED_EDGE ( 'NONE', *, *, #203, .T. ) ;
#525 = LINE ( 'NONE', #621, #103 ) ;
#526 = ORIENTED_EDGE ( 'NONE', *, *, #647, .F. ) ;
#527 =( NAMED_UNIT ( * ) PLANE_ANGLE_UNIT ( ) SI_UNIT ( $, .RADIAN. ) );
#528 = CARTESIAN_POINT ( 'NONE',  ( 52.50000000000007816, 95.00000000000000000, 25.69046515733024449 ) ) ;
#529 = CARTESIAN_POINT ( 'NONE',  ( 48.50000000000000000, 0.000000000000000000, 4.000000000000003553 ) ) ;
#530 = EDGE_CURVE ( 'NONE', #562, #764, #720, .T. ) ;
#531 = DIRECTION ( 'NONE',  ( 3.574581708073419723E-15, 0.000000000000000000, 1.000000000000000000 ) ) ;
#532 = CARTESIAN_POINT ( 'NONE',  ( 52.50000000000007816, 20.00000000000000355, 25.69046515733024449 ) ) ;
#533 = EDGE_LOOP ( 'NONE', ( #688, #288, #107, #706 ) ) ;
#534 =( LENGTH_UNIT ( ) NAMED_UNIT ( * ) SI_UNIT ( .MILLI., .METRE. ) );
#535 = DIRECTION ( 'NONE',  ( 1.000000000000000000, 0.000000000000000000, 3.574581708073419723E-15 ) ) ;
#536 = CARTESIAN_POINT ( 'NONE',  ( 52.50000000000008527, 95.00000000000000000, 27.79046515733023526 ) ) ;
#537 = VERTEX_POINT ( 'NONE', #629 ) ;
#538 = LINE ( 'NONE', #606, #1115 ) ;
#539 = VECTOR ( 'NONE', #566, 1000.000000000000000 ) ;
#540 = SURFACE_STYLE_FILL_AREA ( #1091 ) ;
#541 = AXIS2_PLACEMENT_3D ( 'NONE', #1137, #694, #1067 ) ;
#542 = LINE ( 'NONE', #717, #36 ) ;
#543 = FACE_BOUND ( 'NONE', #38, .T. ) ;
#544 = ORIENTED_EDGE ( 'NONE', *, *, #443, .T. ) ;
#545 = CARTESIAN_POINT ( 'NONE',  ( 52.50000000000011369, 5.000000000000000000, 35.00000000000000000 ) ) ;
#546 = EDGE_CURVE ( 'NONE', #762, #94, #379, .T. ) ;
#547 = LINE ( 'NONE', #13, #1014 ) ;
#548 = FILL_AREA_STYLE_COLOUR ( '', #970 ) ;
#549 = DIRECTION ( 'NONE',  ( 0.000000000000000000, -1.000000000000000000, 0.000000000000000000 ) ) ;
#550 = DIRECTION ( 'NONE',  ( 1.000000000000000000, 0.000000000000000000, -3.491481338843133355E-15 ) ) ;
#551 = MECHANICAL_DESIGN_GEOMETRIC_PRESENTATION_REPRESENTATION (  '', ( #714 ), #822 ) ;
#552 = VERTEX_POINT ( 'NONE', #471 ) ;
#553 = PLANE ( 'NONE',  #149 ) ;
#554 = ADVANCED_FACE ( 'NONE', ( #211 ), #289, .F. ) ;
#555 =( LENGTH_UNIT ( ) NAMED_UNIT ( * ) SI_UNIT ( .MILLI., .METRE. ) );
#556 = DIRECTION ( 'NONE',  ( -1.000000000000000000, 0.000000000000000000, 3.491481338843133355E-15 ) ) ;
#557 = ORIENTED_EDGE ( 'NONE', *, *, #24, .T. ) ;
#558 = DIRECTION ( 'NONE',  ( 3.304235192336778667E-15, 0.000000000000000000, 1.000000000000000000 ) ) ;
#559 = EDGE_CURVE ( 'NONE', #677, #954, #382, .T. ) ;
#560 = AXIS2_PLACEMENT_3D ( 'NONE', #953, #763, #682 ) ;
#561 = CARTESIAN_POINT ( 'NONE',  ( -52.49999999999999289, 0.000000000000000000, -1.946485023515407675E-13 ) ) ;
#562 = VERTEX_POINT ( 'NONE', #545 ) ;
#563 = DIRECTION ( 'NONE',  ( -0.000000000000000000, 1.000000000000000000, 0.000000000000000000 ) ) ;
#564 = DIRECTION ( 'NONE',  ( 0.000000000000000000, -1.000000000000000000, -0.000000000000000000 ) ) ;
#565 = ORIENTED_EDGE ( 'NONE', *, *, #336, .F. ) ;
#566 = DIRECTION ( 'NONE',  ( -1.000000000000000000, -0.000000000000000000, -3.574581708073419723E-15 ) ) ;
#567 = VECTOR ( 'NONE', #9, 1000.000000000000000 ) ;
#568 = PLANE ( 'NONE',  #657 ) ;
#569 = LINE ( 'NONE', #68, #780 ) ;
#570 = EDGE_LOOP ( 'NONE', ( #15, #1020, #167, #196, #1106, #1125 ) ) ;
#571 = DIRECTION ( 'NONE',  ( -3.304235192336795628E-15, 0.000000000000000000, -1.000000000000000000 ) ) ;
#572 = EDGE_CURVE ( 'NONE', #105, #795, #308, .T. ) ;
#573 = PLANE ( 'NONE',  #1000 ) ;
#574 = FACE_OUTER_BOUND ( 'NONE', #819, .T. ) ;
#575 = VECTOR ( 'NONE', #424, 1000.000000000000000 ) ;
#576 = ORIENTED_EDGE ( 'NONE', *, *, #384, .T. ) ;
#577 = CARTESIAN_POINT ( 'NONE',  ( 50.50000000000011369, 110.0000000000000000, 35.00000000000000711 ) ) ;
#578 = VECTOR ( 'NONE', #373, 1000.000000000000000 ) ;
#579 = EDGE_CURVE ( 'NONE', #972, #975, #761, .T. ) ;
#580 = CARTESIAN_POINT ( 'NONE',  ( -52.50000000000000000, 0.000000000000000000, 2.000000000000000000 ) ) ;
#581 = DIRECTION ( 'NONE',  ( -0.000000000000000000, 1.000000000000000000, -0.000000000000000000 ) ) ;
#582 = EDGE_LOOP ( 'NONE', ( #941, #858, #419, #1133, #544, #400 ) ) ;
#583 = DIRECTION ( 'NONE',  ( 0.000000000000000000, 0.000000000000000000, -1.000000000000000000 ) ) ;
#584 = VECTOR ( 'NONE', #957, 1000.000000000000000 ) ;
#585 = DIRECTION ( 'NONE',  ( -3.304235192336795628E-15, 0.000000000000000000, 1.000000000000000000 ) ) ;
#586 = ORIENTED_EDGE ( 'NONE', *, *, #599, .F. ) ;
#587 = DIRECTION ( 'NONE',  ( 0.000000000000000000, 0.000000000000000000, -1.000000000000000000 ) ) ;
#588 = VECTOR ( 'NONE', #73, 1000.000000000000000 ) ;
#589 = DIRECTION ( 'NONE',  ( -1.000000000000000000, -0.000000000000000000, 3.491481338843133355E-15 ) ) ;
#590 = ADVANCED_FACE ( 'NONE', ( #156 ), #592, .F. ) ;
#591 = ORIENTED_EDGE ( 'NONE', *, *, #1061, .T. ) ;
#592 = PLANE ( 'NONE',  #847 ) ;
#593 = ORIENTED_EDGE ( 'NONE', *, *, #1135, .F. ) ;
#594 = AXIS2_PLACEMENT_3D ( 'NONE', #431, #704, #615 ) ;
#595 =( GEOMETRIC_REPRESENTATION_CONTEXT ( 3 ) GLOBAL_UNCERTAINTY_ASSIGNED_CONTEXT ( ( #163 ) ) GLOBAL_UNIT_ASSIGNED_CONTEXT ( ( #393, #479, #674 ) ) REPRESENTATION_CONTEXT ( 'NONE', 'WORKASPACE' ) );
#596 = CYLINDRICAL_SURFACE ( 'NONE', #541, 5.000000000000000888 ) ;
#597 = ORIENTED_EDGE ( 'NONE', *, *, #270, .T. ) ;
#598 = DIRECTION ( 'NONE',  ( 3.574581708073419723E-15, -0.000000000000000000, -1.000000000000000000 ) ) ;
#599 = EDGE_CURVE ( 'NONE', #1016, #517, #753, .T. ) ;
#600 = EDGE_LOOP ( 'NONE', ( #875, #882 ) ) ;
#601 = AXIS2_PLACEMENT_3D ( 'NONE', #314, #146, #491 ) ;
#602 = LINE ( 'NONE', #1145, #588 ) ;
#603 = CARTESIAN_POINT ( 'NONE',  ( -50.50000000000007816, 20.00000000000000355, 25.69046515733025160 ) ) ;
#604 =( LENGTH_UNIT ( ) NAMED_UNIT ( * ) SI_UNIT ( .MILLI., .METRE. ) );
#605 = ORIENTED_EDGE ( 'NONE', *, *, #360, .T. ) ;
#606 = CARTESIAN_POINT ( 'NONE',  ( 52.50000000000011369, 5.000000000000000000, 35.00000000000000000 ) ) ;
#607 = STYLED_ITEM ( 'NONE', ( #202 ), #477 ) ;
#608 = EDGE_CURVE ( 'NONE', #487, #330, #158, .T. ) ;
#609 = DIRECTION ( 'NONE',  ( 0.000000000000000000, 1.000000000000000000, 0.000000000000000000 ) ) ;
#610 = AXIS2_PLACEMENT_3D ( 'NONE', #971, #589, #177 ) ;
#611 = AXIS2_PLACEMENT_3D ( 'NONE', #645, #824, #39 ) ;
#612 = VECTOR ( 'NONE', #833, 1000.000000000000000 ) ;
#613 = EDGE_CURVE ( 'NONE', #423, #862, #223, .T. ) ;
#614 = ORIENTED_EDGE ( 'NONE', *, *, #302, .F. ) ;
#615 = DIRECTION ( 'NONE',  ( 4.163336342344336238E-15, 0.000000000000000000, -1.000000000000000000 ) ) ;
#616 = ORIENTED_EDGE ( 'NONE', *, *, #627, .T. ) ;
#617 = CARTESIAN_POINT ( 'NONE',  ( -52.50000000000011369, 0.000000000000000000, 35.00000000000000000 ) ) ;
#618 = FACE_OUTER_BOUND ( 'NONE', #1112, .T. ) ;
#619 = AXIS2_PLACEMENT_3D ( 'NONE', #1142, #771, #868 ) ;
#620 = DIRECTION ( 'NONE',  ( 0.000000000000000000, -0.000000000000000000, 1.000000000000000000 ) ) ;
#621 = CARTESIAN_POINT ( 'NONE',  ( -50.49999999999999289, 115.0000000000000000, 2.000000000000000000 ) ) ;
#622 = CARTESIAN_POINT ( 'NONE',  ( -52.49999999999999289, 115.0000000000000000, -1.946485023515407675E-13 ) ) ;
#623 = AXIS2_PLACEMENT_3D ( 'NONE', #23, #1003, #192 ) ;
#624 = CARTESIAN_POINT ( 'NONE',  ( -50.50000000000007105, 95.00000000000000000, 23.59046515733025373 ) ) ;
#625 = CARTESIAN_POINT ( 'NONE',  ( 52.50000000000007105, 95.00000000000000000, 23.59046515733025373 ) ) ;
#626 = CARTESIAN_POINT ( 'NONE',  ( -50.50000000000009237, 0.000000000000000000, 30.00000000000001066 ) ) ;
#627 = EDGE_CURVE ( 'NONE', #173, #517, #447, .T. ) ;
#628 = ORIENTED_EDGE ( 'NONE', *, *, #722, .F. ) ;
#629 = CARTESIAN_POINT ( 'NONE',  ( -48.50000000000000000, 0.000000000000000000, 2.000000000000001776 ) ) ;
#630 = MECHANICAL_DESIGN_GEOMETRIC_PRESENTATION_REPRESENTATION (  '', ( #25 ), #796 ) ;
#631 =( NAMED_UNIT ( * ) SI_UNIT ( $, .STERADIAN. ) SOLID_ANGLE_UNIT ( ) );
#632 = MECHANICAL_DESIGN_GEOMETRIC_PRESENTATION_REPRESENTATION (  '', ( #67 ), #1101 ) ;
#633 = AXIS2_PLACEMENT_3D ( 'NONE', #148, #398, #680 ) ;
#634 = CARTESIAN_POINT ( 'NONE',  ( -52.50000000000000711, 0.000000000000000000, 3.999999999999989786 ) ) ;
#635 = DIRECTION ( 'NONE',  ( 3.574581708073419723E-15, 0.000000000000000000, -1.000000000000000000 ) ) ;
#636 = ORIENTED_EDGE ( 'NONE', *, *, #263, .T. ) ;
#637 = EDGE_CURVE ( 'NONE', #864, #862, #276, .T. ) ;
#638 = DIRECTION ( 'NONE',  ( 0.000000000000000000, -0.000000000000000000, -1.000000000000000000 ) ) ;
#639 = CARTESIAN_POINT ( 'NONE',  ( -52.50000000000007816, 95.00000000000000000, 25.69046515733024449 ) ) ;
#640 = AXIS2_PLACEMENT_3D ( 'NONE', #433, #786, #791 ) ;
#641 = ORIENTED_EDGE ( 'NONE', *, *, #351, .F. ) ;
#642 = CARTESIAN_POINT ( 'NONE',  ( 50.50000000000007816, 95.00000000000000000, 25.69046515733025160 ) ) ;
#643 = APPLICATION_PROTOCOL_DEFINITION ( 'draft international standard', 'automotive_design', 1998, #56 ) ;
#644 = ORIENTED_EDGE ( 'NONE', *, *, #121, .T. ) ;
#645 = CARTESIAN_POINT ( 'NONE',  ( -52.50000000000011369, 115.0000000000000000, 35.00000000000000000 ) ) ;
#646 = COLOUR_RGB ( '',0.7921568627450980005, 0.8196078431372548767, 0.9333333333333333481 ) ;
#647 = EDGE_CURVE ( 'NONE', #119, #318, #76, .T. ) ;
#648 = PRESENTATION_LAYER_ASSIGNMENT (  '', '', ( #67 ) ) ;
#649 = DIRECTION ( 'NONE',  ( 3.574581708073419723E-15, 0.000000000000000000, 1.000000000000000000 ) ) ;
#650 = ORIENTED_EDGE ( 'NONE', *, *, #126, .T. ) ;
#651 = DIRECTION ( 'NONE',  ( -1.000000000000000000, 0.000000000000000000, 3.574581708073419723E-15 ) ) ;
#652 = CYLINDRICAL_SURFACE ( 'NONE', #251, 2.099999999999997868 ) ;
#653 = DIRECTION ( 'NONE',  ( -3.574581708073419723E-15, 0.000000000000000000, 1.000000000000000000 ) ) ;
#654 = DIRECTION ( 'NONE',  ( 0.000000000000000000, 0.000000000000000000, -1.000000000000000000 ) ) ;
#655 = EDGE_LOOP ( 'NONE', ( #703, #54, #992, #1149 ) ) ;
#656 = DIRECTION ( 'NONE',  ( 4.163336342344336238E-15, 0.000000000000000000, -1.000000000000000000 ) ) ;
#657 = AXIS2_PLACEMENT_3D ( 'NONE', #213, #549, #134 ) ;
#658 = MECHANICAL_DESIGN_GEOMETRIC_PRESENTATION_REPRESENTATION (  '', ( #416 ), #716 ) ;
#659 = CARTESIAN_POINT ( 'NONE',  ( 48.50000000000000711, 0.000000000000000000, 0.000000000000000000 ) ) ;
#660 = AXIS2_PLACEMENT_3D ( 'NONE', #914, #563, #284 ) ;
#661 = ORIENTED_EDGE ( 'NONE', *, *, #1066, .T. ) ;
#662 = DIRECTION ( 'NONE',  ( -0.000000000000000000, -1.000000000000000000, -0.000000000000000000 ) ) ;
#663 = ORIENTED_EDGE ( 'NONE', *, *, #1135, .T. ) ;
#664 = UNCERTAINTY_MEASURE_WITH_UNIT (LENGTH_MEASURE( 1.000000000000000082E-05 ), #1116, 'distance_accuracy_value', 'NONE');
#665 = PRESENTATION_STYLE_ASSIGNMENT (( #942 ) ) ;
#666 = PLANE ( 'NONE',  #1109 ) ;
#667 = CARTESIAN_POINT ( 'NONE',  ( -48.50000000000000000, 115.0000000000000000, 4.000000000000003553 ) ) ;
#668 = AXIS2_PLACEMENT_3D ( 'NONE', #711, #789, #261 ) ;
#669 = ORIENTED_EDGE ( 'NONE', *, *, #437, .T. ) ;
#670 = DIRECTION ( 'NONE',  ( 1.000000000000000000, 0.000000000000000000, 3.574581708073419723E-15 ) ) ;
#671 = ORIENTED_EDGE ( 'NONE', *, *, #730, .T. ) ;
#672 = CIRCLE ( 'NONE', #334, 4.000000000000001776 ) ;
#673 =( NAMED_UNIT ( * ) SI_UNIT ( $, .STERADIAN. ) SOLID_ANGLE_UNIT ( ) );
#674 =( NAMED_UNIT ( * ) SI_UNIT ( $, .STERADIAN. ) SOLID_ANGLE_UNIT ( ) );
#675 = EDGE_LOOP ( 'NONE', ( #931, #1039, #442, #823 ) ) ;
#676 = CARTESIAN_POINT ( 'NONE',  ( 52.50000000000009237, 110.0000000000000000, 30.00000000000000355 ) ) ;
#677 = VERTEX_POINT ( 'NONE', #745 ) ;
#678 = VECTOR ( 'NONE', #1050, 1000.000000000000000 ) ;
#679 = EDGE_CURVE ( 'NONE', #487, #201, #760, .T. ) ;
#680 = DIRECTION ( 'NONE',  ( -3.304235192336784189E-15, 0.000000000000000000, -1.000000000000000000 ) ) ;
#681 = ORIENTED_EDGE ( 'NONE', *, *, #627, .F. ) ;
#682 = DIRECTION ( 'NONE',  ( 4.163336342344336238E-15, 0.000000000000000000, -1.000000000000000000 ) ) ;
#683 = EDGE_LOOP ( 'NONE', ( #152, #438, #229, #43 ) ) ;
#684 = DIRECTION ( 'NONE',  ( 0.000000000000000000, 1.000000000000000000, 0.000000000000000000 ) ) ;
#685 = EDGE_CURVE ( 'NONE', #1035, #408, #58, .T. ) ;
#686 = AXIS2_PLACEMENT_3D ( 'NONE', #286, #204, #32 ) ;
#687 =( NAMED_UNIT ( * ) SI_UNIT ( $, .STERADIAN. ) SOLID_ANGLE_UNIT ( ) );
#688 = ORIENTED_EDGE ( 'NONE', *, *, #18, .T. ) ;
#689 = ORIENTED_EDGE ( 'NONE', *, *, #559, .T. ) ;
#690 = VECTOR ( 'NONE', #1034, 1000.000000000000000 ) ;
#691 = UNCERTAINTY_MEASURE_WITH_UNIT (LENGTH_MEASURE( 1.000000000000000082E-05 ), #926, 'distance_accuracy_value', 'NONE');
#692 = AXIS2_PLACEMENT_3D ( 'NONE', #214, #142, #386 ) ;
#693 = PRESENTATION_STYLE_ASSIGNMENT (( #333 ) ) ;
#694 = DIRECTION ( 'NONE',  ( -1.000000000000000000, 0.000000000000000000, 3.491481338843133355E-15 ) ) ;
#695 = ORIENTED_EDGE ( 'NONE', *, *, #121, .F. ) ;
#696 = SURFACE_SIDE_STYLE ('',( #343 ) ) ;
#697 = VERTEX_POINT ( 'NONE', #577 ) ;
#698 = AXIS2_PLACEMENT_3D ( 'NONE', #528, #193, #879 ) ;
#699 = FACE_OUTER_BOUND ( 'NONE', #150, .T. ) ;
#700 = PLANE ( 'NONE',  #16 ) ;
#701 = ORIENTED_EDGE ( 'NONE', *, *, #1140, .F. ) ;
#702 = EDGE_CURVE ( 'NONE', #1035, #119, #241, .T. ) ;
#703 = ORIENTED_EDGE ( 'NONE', *, *, #579, .F. ) ;
#704 = DIRECTION ( 'NONE',  ( -1.000000000000000000, -0.000000000000000000, -3.574581708073419723E-15 ) ) ;
#705 = ORIENTED_EDGE ( 'NONE', *, *, #572, .T. ) ;
#706 = ORIENTED_EDGE ( 'NONE', *, *, #224, .F. ) ;
#707 =( GEOMETRIC_REPRESENTATION_CONTEXT ( 3 ) GLOBAL_UNCERTAINTY_ASSIGNED_CONTEXT ( ( #60 ) ) GLOBAL_UNIT_ASSIGNED_CONTEXT ( ( #604, #869, #973 ) ) REPRESENTATION_CONTEXT ( 'NONE', 'WORKASPACE' ) );
#708 = FACE_BOUND ( 'NONE', #600, .T. ) ;
#709 = PLANE ( 'NONE',  #756 ) ;
#710 = LINE ( 'NONE', #391, #787 ) ;
#711 = CARTESIAN_POINT ( 'NONE',  ( 50.50000000000007816, 20.00000000000000355, 25.69046515733025160 ) ) ;
#712 = VERTEX_POINT ( 'NONE', #304 ) ;
#713 = DIRECTION ( 'NONE',  ( -0.000000000000000000, 1.000000000000000000, -0.000000000000000000 ) ) ;
#714 = STYLED_ITEM ( 'NONE', ( #403 ), #311 ) ;
#715 = ADVANCED_FACE ( 'NONE', ( #1107 ), #137, .F. ) ;
#716 =( GEOMETRIC_REPRESENTATION_CONTEXT ( 3 ) GLOBAL_UNCERTAINTY_ASSIGNED_CONTEXT ( ( #691 ) ) GLOBAL_UNIT_ASSIGNED_CONTEXT ( ( #926, #527, #350 ) ) REPRESENTATION_CONTEXT ( 'NONE', 'WORKASPACE' ) );
#717 = CARTESIAN_POINT ( 'NONE',  ( -52.50000000000009237, 115.0000000000000000, 30.00000000000000711 ) ) ;
#718 = ORIENTED_EDGE ( 'NONE', *, *, #647, .T. ) ;
#719 = LINE ( 'NONE', #339, #1057 ) ;
#720 = CIRCLE ( 'NONE', #446, 4.999999999999997335 ) ;
#721 = SURFACE_STYLE_USAGE ( .BOTH. , #264 ) ;
#722 = EDGE_CURVE ( 'NONE', #119, #201, #839, .T. ) ;
#723 = CARTESIAN_POINT ( 'NONE',  ( -52.49999999999999289, 0.000000000000000000, -1.946485023515407675E-13 ) ) ;
#724 = DIRECTION ( 'NONE',  ( 1.000000000000000000, 0.000000000000000000, 3.574581708073419723E-15 ) ) ;
#725 = ORIENTED_EDGE ( 'NONE', *, *, #983, .T. ) ;
#726 = SURFACE_STYLE_FILL_AREA ( #918 ) ;
#727 = DIRECTION ( 'NONE',  ( 0.000000000000000000, 0.000000000000000000, -1.000000000000000000 ) ) ;
#728 = VERTEX_POINT ( 'NONE', #939 ) ;
#729 =( LENGTH_UNIT ( ) NAMED_UNIT ( * ) SI_UNIT ( .MILLI., .METRE. ) );
#730 = EDGE_CURVE ( 'NONE', #809, #119, #151, .T. ) ;
#731 = ORIENTED_EDGE ( 'NONE', *, *, #407, .T. ) ;
#732 = LINE ( 'NONE', #1087, #427 ) ;
#733 = ORIENTED_EDGE ( 'NONE', *, *, #679, .F. ) ;
#734 = FACE_OUTER_BOUND ( 'NONE', #752, .T. ) ;
#735 = AXIS2_PLACEMENT_3D ( 'NONE', #782, #956, #165 ) ;
#736 = CARTESIAN_POINT ( 'NONE',  ( 50.49999999999999289, 0.000000000000000000, 2.000000000000000000 ) ) ;
#737 = STYLED_ITEM ( 'NONE', ( #10 ), #810 ) ;
#738 = DIRECTION ( 'NONE',  ( -1.000000000000000000, -0.000000000000000000, -3.574581708073419723E-15 ) ) ;
#739 = EDGE_LOOP ( 'NONE', ( #269, #1130, #22, #641 ) ) ;
#740 = CARTESIAN_POINT ( 'NONE',  ( -50.50000000000011369, 0.000000000000000000, 35.00000000000000711 ) ) ;
#741 = UNCERTAINTY_MEASURE_WITH_UNIT (LENGTH_MEASURE( 1.000000000000000082E-05 ), #729, 'distance_accuracy_value', 'NONE');
#742 = DIRECTION ( 'NONE',  ( -1.000000000000000000, -0.000000000000000000, -3.574581708073419723E-15 ) ) ;
#743 = ADVANCED_FACE ( 'NONE', ( #496 ), #239, .F. ) ;
#744 = VERTEX_POINT ( 'NONE', #947 ) ;
#745 = CARTESIAN_POINT ( 'NONE',  ( -50.50000000000008527, 95.00000000000000000, 27.79046515733024947 ) ) ;
#746 = VECTOR ( 'NONE', #320, 1000.000000000000000 ) ;
#747 = ORIENTED_EDGE ( 'NONE', *, *, #285, .F. ) ;
#748 = FILL_AREA_STYLE_COLOUR ( '', #268 ) ;
#749 = PLANE ( 'NONE',  #1027 ) ;
#750 = ADVANCED_FACE ( 'NONE', ( #851 ), #1131, .T. ) ;
#751 = PRODUCT ( '202500521_Abdeckblech Motorstecker 2_V1.0', '202500521_Abdeckblech Motorstecker 2_V1.0', '', ( #902 ) ) ;
#752 = EDGE_LOOP ( 'NONE', ( #420, #323, #826, #705 ) ) ;
#753 = LINE ( 'NONE', #64, #911 ) ;
#754 = ORIENTED_EDGE ( 'NONE', *, *, #608, .F. ) ;
#755 = DIRECTION ( 'NONE',  ( 0.000000000000000000, 0.000000000000000000, -1.000000000000000000 ) ) ;
#756 = AXIS2_PLACEMENT_3D ( 'NONE', #256, #854, #417 ) ;
#757 = DIRECTION ( 'NONE',  ( 1.000000000000000000, -0.000000000000000000, -3.574581708073419723E-15 ) ) ;
#758 = VECTOR ( 'NONE', #406, 1000.000000000000000 ) ;
#759 = ORIENTED_EDGE ( 'NONE', *, *, #844, .F. ) ;
#760 = LINE ( 'NONE', #924, #690 ) ;
#761 = CIRCLE ( 'NONE', #89, 5.000000000000000888 ) ;
#762 = VERTEX_POINT ( 'NONE', #1040 ) ;
#763 = DIRECTION ( 'NONE',  ( 1.000000000000000000, 0.000000000000000000, 3.491481338843133355E-15 ) ) ;
#764 = VERTEX_POINT ( 'NONE', #160 ) ;
#765 = UNCERTAINTY_MEASURE_WITH_UNIT (LENGTH_MEASURE( 1.000000000000000082E-05 ), #818, 'distance_accuracy_value', 'NONE');
#766 = AXIS2_PLACEMENT_3D ( 'NONE', #1075, #111, #807 ) ;
#767 = ADVANCED_FACE ( 'NONE', ( #266 ), #863, .T. ) ;
#768 = CARTESIAN_POINT ( 'NONE',  ( 50.50000000000008527, 20.00000000000000355, 27.79046515733024592 ) ) ;
#769 = DIRECTION ( 'NONE',  ( 0.000000000000000000, 0.000000000000000000, 1.000000000000000000 ) ) ;
#770 = CIRCLE ( 'NONE', #367, 2.099999999999997868 ) ;
#771 = DIRECTION ( 'NONE',  ( 0.000000000000000000, -1.000000000000000000, 0.000000000000000000 ) ) ;
#772 = SURFACE_STYLE_FILL_AREA ( #421 ) ;
#773 = STYLED_ITEM ( 'NONE', ( #950 ), #1120 ) ;
#774 = EDGE_CURVE ( 'NONE', #975, #562, #1052, .T. ) ;
#775 = LINE ( 'NONE', #964, #227 ) ;
#776 = ORIENTED_EDGE ( 'NONE', *, *, #925, .F. ) ;
#777 =( NAMED_UNIT ( * ) PLANE_ANGLE_UNIT ( ) SI_UNIT ( $, .RADIAN. ) );
#778 = ORIENTED_EDGE ( 'NONE', *, *, #40, .T. ) ;
#779 = DIRECTION ( 'NONE',  ( 4.163336342344336238E-15, 0.000000000000000000, -1.000000000000000000 ) ) ;
#780 = VECTOR ( 'NONE', #757, 1000.000000000000000 ) ;
#781 = CARTESIAN_POINT ( 'NONE',  ( 48.50000000000000000, 115.0000000000000000, 4.000000000000003553 ) ) ;
#782 = CARTESIAN_POINT ( 'NONE',  ( -52.50000000000007816, 20.00000000000000355, 25.69046515733024449 ) ) ;
#783 = EDGE_CURVE ( 'NONE', #517, #173, #928, .T. ) ;
#784 = PLANE ( 'NONE',  #232 ) ;
#785 = ORIENTED_EDGE ( 'NONE', *, *, #231, .T. ) ;
#786 = DIRECTION ( 'NONE',  ( -1.000000000000000000, 0.000000000000000000, 3.574581708073419723E-15 ) ) ;
#787 = VECTOR ( 'NONE', #742, 1000.000000000000000 ) ;
#788 = LINE ( 'NONE', #342, #267 ) ;
#789 = DIRECTION ( 'NONE',  ( -1.000000000000000000, 0.000000000000000000, 3.574581708073419723E-15 ) ) ;
#790 = ORIENTED_EDGE ( 'NONE', *, *, #185, .T. ) ;
#791 = DIRECTION ( 'NONE',  ( 4.163336342344339393E-15, 0.000000000000000000, 1.000000000000000000 ) ) ;
#792 = CYLINDRICAL_SURFACE ( 'NONE', #610, 4.999999999999997335 ) ;
#793 = ORIENTED_EDGE ( 'NONE', *, *, #945, .F. ) ;
#794 = PRESENTATION_STYLE_ASSIGNMENT (( #1047 ) ) ;
#795 = VERTEX_POINT ( 'NONE', #536 ) ;
#796 =( GEOMETRIC_REPRESENTATION_CONTEXT ( 3 ) GLOBAL_UNCERTAINTY_ASSIGNED_CONTEXT ( ( #383 ) ) GLOBAL_UNIT_ASSIGNED_CONTEXT ( ( #555, #1081, #816 ) ) REPRESENTATION_CONTEXT ( 'NONE', 'WORKASPACE' ) );
#797 = EDGE_LOOP ( 'NONE', ( #526, #283, #890, #279 ) ) ;
#798 = DIRECTION ( 'NONE',  ( 3.574581708073419723E-15, -0.000000000000000000, 1.000000000000000000 ) ) ;
#799 = EDGE_CURVE ( 'NONE', #94, #986, #815, .T. ) ;
#800 =( GEOMETRIC_REPRESENTATION_CONTEXT ( 3 ) GLOBAL_UNCERTAINTY_ASSIGNED_CONTEXT ( ( #765 ) ) GLOBAL_UNIT_ASSIGNED_CONTEXT ( ( #818, #209, #27 ) ) REPRESENTATION_CONTEXT ( 'NONE', 'WORKASPACE' ) );
#801 = MANIFOLD_SOLID_BREP ( 'Verrundung1', #435 ) ;
#802 = CARTESIAN_POINT ( 'NONE',  ( 0.000000000000000000, 0.000000000000000000, 0.000000000000000000 ) ) ;
#803 = FILL_AREA_STYLE_COLOUR ( '', #974 ) ;
#804 = ORIENTED_EDGE ( 'NONE', *, *, #85, .F. ) ;
#805 = EDGE_CURVE ( 'NONE', #346, #457, #525, .T. ) ;
#806 = AXIS2_PLACEMENT_3D ( 'NONE', #220, #141, #1108 ) ;
#807 = DIRECTION ( 'NONE',  ( 4.163336342344336238E-15, 0.000000000000000000, 1.000000000000000000 ) ) ;
#808 = PLANE ( 'NONE',  #448 ) ;
#809 = VERTEX_POINT ( 'NONE', #329 ) ;
#810 = ADVANCED_FACE ( 'NONE', ( #512 ), #876, .F. ) ;
#811 = CARTESIAN_POINT ( 'NONE',  ( 52.50000000000008527, 20.00000000000000355, 27.79046515733023170 ) ) ;
#812 = LINE ( 'NONE', #466, #578 ) ;
#813 = ORIENTED_EDGE ( 'NONE', *, *, #254, .F. ) ;
#814 = CYLINDRICAL_SURFACE ( 'NONE', #623, 2.099999999999997868 ) ;
#815 = CIRCLE ( 'NONE', #594, 5.000000000000000888 ) ;
#816 =( NAMED_UNIT ( * ) SI_UNIT ( $, .STERADIAN. ) SOLID_ANGLE_UNIT ( ) );
#817 = CIRCLE ( 'NONE', #48, 5.000000000000000888 ) ;
#818 =( LENGTH_UNIT ( ) NAMED_UNIT ( * ) SI_UNIT ( .MILLI., .METRE. ) );
#819 = EDGE_LOOP ( 'NONE', ( #155, #1070, #388, #841 ) ) ;
#820 = FACE_OUTER_BOUND ( 'NONE', #938, .T. ) ;
#821 = CARTESIAN_POINT ( 'NONE',  ( 52.49999999999999289, 115.0000000000000000, -1.946485023515407675E-13 ) ) ;
#822 =( GEOMETRIC_REPRESENTATION_CONTEXT ( 3 ) GLOBAL_UNCERTAINTY_ASSIGNED_CONTEXT ( ( #664 ) ) GLOBAL_UNIT_ASSIGNED_CONTEXT ( ( #1116, #1036, #673 ) ) REPRESENTATION_CONTEXT ( 'NONE', 'WORKASPACE' ) );
#823 = ORIENTED_EDGE ( 'NONE', *, *, #85, .T. ) ;
#824 = DIRECTION ( 'NONE',  ( 3.491481338843133355E-15, 0.000000000000000000, -1.000000000000000000 ) ) ;
#825 = CARTESIAN_POINT ( 'NONE',  ( 50.49999999999998579, 0.000000000000000000, -1.876655396738545008E-13 ) ) ;
#826 = ORIENTED_EDGE ( 'NONE', *, *, #1045, .T. ) ;
#827 = CARTESIAN_POINT ( 'NONE',  ( -52.50000000000000000, 115.0000000000000000, 1.999999999999993117 ) ) ;
#828 = EDGE_CURVE ( 'NONE', #1016, #316, #892, .T. ) ;
#829 = DIRECTION ( 'NONE',  ( 3.304235192336778667E-15, 0.000000000000000000, -1.000000000000000000 ) ) ;
#830 = CIRCLE ( 'NONE', #390, 2.099999999999997868 ) ;
#831 = CARTESIAN_POINT ( 'NONE',  ( 52.50000000000011369, 110.0000000000000000, 35.00000000000000000 ) ) ;
#832 = ORIENTED_EDGE ( 'NONE', *, *, #925, .T. ) ;
#833 = DIRECTION ( 'NONE',  ( -1.000000000000000000, -0.000000000000000000, -0.000000000000000000 ) ) ;
#834 = ORIENTED_EDGE ( 'NONE', *, *, #176, .T. ) ;
#835 = CARTESIAN_POINT ( 'NONE',  ( -48.50000000000000000, 115.0000000000000000, 2.000000000000001776 ) ) ;
#836 = ADVANCED_FACE ( 'NONE', ( #3 ), #997, .F. ) ;
#837 = SURFACE_STYLE_USAGE ( .BOTH. , #486 ) ;
#838 = ORIENTED_EDGE ( 'NONE', *, *, #35, .T. ) ;
#839 = LINE ( 'NONE', #70, #951 ) ;
#840 = CIRCLE ( 'NONE', #857, 2.099999999999994316 ) ;
#841 = ORIENTED_EDGE ( 'NONE', *, *, #783, .T. ) ;
#842 = FACE_OUTER_BOUND ( 'NONE', #378, .T. ) ;
#843 = DIRECTION ( 'NONE',  ( -0.000000000000000000, 1.000000000000000000, 0.000000000000000000 ) ) ;
#844 = EDGE_CURVE ( 'NONE', #954, #744, #409, .T. ) ;
#845 = EDGE_LOOP ( 'NONE', ( #172, #681 ) ) ;
#846 = DIRECTION ( 'NONE',  ( -3.304235192336790106E-15, 0.000000000000000000, -1.000000000000000000 ) ) ;
#847 = AXIS2_PLACEMENT_3D ( 'NONE', #395, #298, #501 ) ;
#848 = LINE ( 'NONE', #411, #1086 ) ;
#849 = AXIS2_PLACEMENT_3D ( 'NONE', #532, #92, #883 ) ;
#850 = ORIENTED_EDGE ( 'NONE', *, *, #613, .F. ) ;
#851 = FACE_OUTER_BOUND ( 'NONE', #933, .T. ) ;
#852 = EDGE_CURVE ( 'NONE', #215, #871, #208, .T. ) ;
#853 = DIRECTION ( 'NONE',  ( -1.000000000000000000, -0.000000000000000000, -3.574581708073419723E-15 ) ) ;
#854 = DIRECTION ( 'NONE',  ( 1.000000000000000000, 0.000000000000000000, 3.574581708073419723E-15 ) ) ;
#855 = FACE_BOUND ( 'NONE', #1048, .T. ) ;
#856 = CARTESIAN_POINT ( 'NONE',  ( -52.50000000000000000, 115.0000000000000000, 0.000000000000000000 ) ) ;
#857 = AXIS2_PLACEMENT_3D ( 'NONE', #603, #260, #91 ) ;
#858 = ORIENTED_EDGE ( 'NONE', *, *, #1104, .T. ) ;
#859 = AXIS2_PLACEMENT_3D ( 'NONE', #84, #425, #779 ) ;
#860 = CYLINDRICAL_SURFACE ( 'NONE', #698, 2.099999999999997868 ) ;
#861 = SURFACE_STYLE_USAGE ( .BOTH. , #259 ) ;
#862 = VERTEX_POINT ( 'NONE', #626 ) ;
#863 = CYLINDRICAL_SURFACE ( 'NONE', #480, 4.000000000000003553 ) ;
#864 = VERTEX_POINT ( 'NONE', #896 ) ;
#865 = DIRECTION ( 'NONE',  ( -0.000000000000000000, 1.000000000000000000, -0.000000000000000000 ) ) ;
#866 = EDGE_CURVE ( 'NONE', #325, #201, #362, .T. ) ;
#867 = SURFACE_STYLE_FILL_AREA ( #874 ) ;
#868 = DIRECTION ( 'NONE',  ( 0.000000000000000000, 0.000000000000000000, -1.000000000000000000 ) ) ;
#869 =( NAMED_UNIT ( * ) PLANE_ANGLE_UNIT ( ) SI_UNIT ( $, .RADIAN. ) );
#870 = AXIS2_PLACEMENT_3D ( 'NONE', #413, #507, #1113 ) ;
#871 = VERTEX_POINT ( 'NONE', #290 ) ;
#872 = UNCERTAINTY_MEASURE_WITH_UNIT (LENGTH_MEASURE( 1.000000000000000082E-05 ), #244, 'distance_accuracy_value', 'NONE');
#873 = DIRECTION ( 'NONE',  ( 1.000000000000000000, -0.000000000000000000, 3.491481338843133355E-15 ) ) ;
#874 = FILL_AREA_STYLE ('',( #327 ) ) ;
#875 = ORIENTED_EDGE ( 'NONE', *, *, #828, .F. ) ;
#876 = CYLINDRICAL_SURFACE ( 'NONE', #849, 2.099999999999994316 ) ;
#877 = ORIENTED_EDGE ( 'NONE', *, *, #961, .F. ) ;
#878 = ORIENTED_EDGE ( 'NONE', *, *, #1053, .F. ) ;
#879 = DIRECTION ( 'NONE',  ( -3.304235192336778667E-15, 0.000000000000000000, -1.000000000000000000 ) ) ;
#880 = CIRCLE ( 'NONE', #299, 2.099999999999997868 ) ;
#881 = FACE_BOUND ( 'NONE', #1098, .T. ) ;
#882 = ORIENTED_EDGE ( 'NONE', *, *, #6, .F. ) ;
#883 = DIRECTION ( 'NONE',  ( -3.304235192336784189E-15, 0.000000000000000000, -1.000000000000000000 ) ) ;
#884 = EDGE_CURVE ( 'NONE', #143, #357, #1083, .T. ) ;
#885 = PRESENTATION_LAYER_ASSIGNMENT (  '', '', ( #607 ) ) ;
#886 = ORIENTED_EDGE ( 'NONE', *, *, #428, .F. ) ;
#887 =( NAMED_UNIT ( * ) SI_UNIT ( $, .STERADIAN. ) SOLID_ANGLE_UNIT ( ) );
#888 = DIRECTION ( 'NONE',  ( 0.000000000000000000, 0.000000000000000000, -1.000000000000000000 ) ) ;
#889 = FILL_AREA_STYLE ('',( #967 ) ) ;
#890 = ORIENTED_EDGE ( 'NONE', *, *, #866, .F. ) ;
#891 = ADVANCED_FACE ( 'NONE', ( #20, #912, #543 ), #808, .F. ) ;
#892 = CIRCLE ( 'NONE', #668, 2.099999999999994316 ) ;
#893 = AXIS2_PLACEMENT_3D ( 'NONE', #667, #581, #654 ) ;
#894 = LINE ( 'NONE', #95, #963 ) ;
#895 = CARTESIAN_POINT ( 'NONE',  ( 52.50000000000008527, 95.00000000000000000, 27.79046515733024236 ) ) ;
#896 = CARTESIAN_POINT ( 'NONE',  ( -50.50000000000011369, 5.000000000000004441, 35.00000000000000711 ) ) ;
#897 = ORIENTED_EDGE ( 'NONE', *, *, #281, .F. ) ;
#898 = SURFACE_STYLE_USAGE ( .BOTH. , #197 ) ;
#899 = EDGE_CURVE ( 'NONE', #1035, #972, #469, .T. ) ;
#900 = EDGE_CURVE ( 'NONE', #330, #408, #122, .T. ) ;
#901 = VECTOR ( 'NONE', #865, 1000.000000000000000 ) ;
#902 = PRODUCT_CONTEXT ( 'NONE', #56, 'mechanical' ) ;
#903 = CARTESIAN_POINT ( 'NONE',  ( 48.50000000000000000, 115.0000000000000000, 1.734723475976807094E-15 ) ) ;
#904 = PLANE ( 'NONE',  #929 ) ;
#905 = ORIENTED_EDGE ( 'NONE', *, *, #407, .F. ) ;
#906 = PRESENTATION_STYLE_ASSIGNMENT (( #721 ) ) ;
#907 = SURFACE_STYLE_FILL_AREA ( #1076 ) ;
#908 = ORIENTED_EDGE ( 'NONE', *, *, #572, .F. ) ;
#909 = DIRECTION ( 'NONE',  ( -1.000000000000000000, 0.000000000000000000, -3.469446951953611033E-15 ) ) ;
#910 = DIRECTION ( 'NONE',  ( -1.000000000000000000, 0.000000000000000000, 3.574581708073419723E-15 ) ) ;
#911 = VECTOR ( 'NONE', #324, 1000.000000000000000 ) ;
#912 = FACE_OUTER_BOUND ( 'NONE', #582, .T. ) ;
#913 = ORIENTED_EDGE ( 'NONE', *, *, #422, .F. ) ;
#914 = CARTESIAN_POINT ( 'NONE',  ( -48.50000000000000000, 115.0000000000000000, 4.000000000000003553 ) ) ;
#915 = VECTOR ( 'NONE', #49, 1000.000000000000000 ) ;
#916 = AXIS2_PLACEMENT_3D ( 'NONE', #781, #1058, #110 ) ;
#917 = VERTEX_POINT ( 'NONE', #104 ) ;
#918 = FILL_AREA_STYLE ('',( #372 ) ) ;
#919 = ADVANCED_FACE ( 'NONE', ( #380 ), #904, .F. ) ;
#920 = COLOUR_RGB ( '',0.7921568627450980005, 0.8196078431372548767, 0.9333333333333333481 ) ;
#921 = CYLINDRICAL_SURFACE ( 'NONE', #74, 4.000000000000003553 ) ;
#922 = DIRECTION ( 'NONE',  ( -1.000000000000000000, 0.000000000000000000, 3.574581708073419723E-15 ) ) ;
#923 = VERTEX_POINT ( 'NONE', #461 ) ;
#924 = CARTESIAN_POINT ( 'NONE',  ( 48.50000000000000000, 0.000000000000000000, 2.000000000000001776 ) ) ;
#925 = EDGE_CURVE ( 'NONE', #402, #864, #812, .T. ) ;
#926 =( LENGTH_UNIT ( ) NAMED_UNIT ( * ) SI_UNIT ( .MILLI., .METRE. ) );
#927 = CARTESIAN_POINT ( 'NONE',  ( -52.50000000000011369, 0.000000000000000000, 35.00000000000000000 ) ) ;
#928 = CIRCLE ( 'NONE', #387, 2.099999999999987210 ) ;
#929 = AXIS2_PLACEMENT_3D ( 'NONE', #118, #564, #727 ) ;
#930 = CARTESIAN_POINT ( 'NONE',  ( -52.50000000000008527, 95.00000000000000000, 27.79046515733023526 ) ) ;
#931 = ORIENTED_EDGE ( 'NONE', *, *, #443, .F. ) ;
#932 = CARTESIAN_POINT ( 'NONE',  ( -48.50000000000000000, 0.000000000000000000, 4.000000000000003553 ) ) ;
#933 = EDGE_LOOP ( 'NONE', ( #190, #52, #905, #113 ) ) ;
#934 = PRODUCT_DEFINITION_CONTEXT ( 'detailed design', #117, 'design' ) ;
#935 = DIRECTION ( 'NONE',  ( 1.000000000000000000, 0.000000000000000000, 0.000000000000000000 ) ) ;
#936 = EDGE_CURVE ( 'NONE', #975, #697, #732, .T. ) ;
#937 = FILL_AREA_STYLE ('',( #51 ) ) ;
#938 = EDGE_LOOP ( 'NONE', ( #206, #502, #785, #518 ) ) ;
#939 = CARTESIAN_POINT ( 'NONE',  ( 50.50000000000008527, 95.00000000000000000, 27.79046515733024947 ) ) ;
#940 = CIRCLE ( 'NONE', #601, 2.000000000000001776 ) ;
#941 = ORIENTED_EDGE ( 'NONE', *, *, #109, .T. ) ;
#942 = SURFACE_STYLE_USAGE ( .BOTH. , #133 ) ;
#943 = ADVANCED_BREP_SHAPE_REPRESENTATION ( '202500521_Abdeckblech Motorstecker 2_V1.0', ( #801, #686 ), #42 ) ;
#944 = CARTESIAN_POINT ( 'NONE',  ( 48.50000000000000000, 115.0000000000000000, 2.000000000000001776 ) ) ;
#945 = EDGE_CURVE ( 'NONE', #552, #1035, #848, .T. ) ;
#946 = ORIENTED_EDGE ( 'NONE', *, *, #231, .F. ) ;
#947 = CARTESIAN_POINT ( 'NONE',  ( -52.50000000000007105, 95.00000000000000000, 23.59046515733025373 ) ) ;
#948 = ORIENTED_EDGE ( 'NONE', *, *, #884, .T. ) ;
#949 = CYLINDRICAL_SURFACE ( 'NONE', #321, 2.099999999999997868 ) ;
#950 = PRESENTATION_STYLE_ASSIGNMENT (( #861 ) ) ;
#951 = VECTOR ( 'NONE', #1029, 1000.000000000000000 ) ;
#952 = FACE_OUTER_BOUND ( 'NONE', #570, .T. ) ;
#953 = CARTESIAN_POINT ( 'NONE',  ( -52.50000000000009237, 110.0000000000000000, 30.00000000000000711 ) ) ;
#954 = VERTEX_POINT ( 'NONE', #930 ) ;
#955 = CARTESIAN_POINT ( 'NONE',  ( -50.50000000000007816, 95.00000000000000000, 25.69046515733025160 ) ) ;
#956 = DIRECTION ( 'NONE',  ( -1.000000000000000000, -0.000000000000000000, -3.574581708073419723E-15 ) ) ;
#957 = DIRECTION ( 'NONE',  ( -1.000000000000000000, -0.000000000000000000, -3.491481338843133355E-15 ) ) ;
#958 = DIRECTION ( 'NONE',  ( -3.304235192336795628E-15, 0.000000000000000000, -1.000000000000000000 ) ) ;
#959 = CIRCLE ( 'NONE', #1012, 2.099999999999994316 ) ;
#960 = EDGE_LOOP ( 'NONE', ( #636, #495, #57, #605 ) ) ;
#961 = EDGE_CURVE ( 'NONE', #457, #423, #498, .T. ) ;
#962 = DIRECTION ( 'NONE',  ( -1.000000000000000000, -0.000000000000000000, -3.574581708073419723E-15 ) ) ;
#963 = VECTOR ( 'NONE', #713, 1000.000000000000000 ) ;
#964 = CARTESIAN_POINT ( 'NONE',  ( -48.50000000000000000, 115.0000000000000000, 2.000000000000001776 ) ) ;
#965 = VECTOR ( 'NONE', #452, 1000.000000000000000 ) ;
#966 = LINE ( 'NONE', #245, #567 ) ;
#967 = FILL_AREA_STYLE_COLOUR ( '', #1085 ) ;
#968 = ORIENTED_EDGE ( 'NONE', *, *, #18, .F. ) ;
#969 = LINE ( 'NONE', #622, #965 ) ;
#970 = COLOUR_RGB ( '',0.5294117647058823595, 0.5490196078431373028, 0.5490196078431373028 ) ;
#971 = CARTESIAN_POINT ( 'NONE',  ( 52.50000000000009237, 5.000000000000000000, 30.00000000000000711 ) ) ;
#972 = VERTEX_POINT ( 'NONE', #221 ) ;
#973 =( NAMED_UNIT ( * ) SI_UNIT ( $, .STERADIAN. ) SOLID_ANGLE_UNIT ( ) );
#974 = COLOUR_RGB ( '',0.7921568627450980005, 0.8196078431372548767, 0.9333333333333333481 ) ;
#975 = VERTEX_POINT ( 'NONE', #831 ) ;
#976 = ADVANCED_FACE ( 'NONE', ( #474 ), #130, .F. ) ;
#977 = FACE_OUTER_BOUND ( 'NONE', #655, .T. ) ;
#978 = DIRECTION ( 'NONE',  ( -1.000000000000000000, 0.000000000000000000, 3.574581708073419723E-15 ) ) ;
#979 = SURFACE_STYLE_USAGE ( .BOTH. , #696 ) ;
#980 = ORIENTED_EDGE ( 'NONE', *, *, #1066, .F. ) ;
#981 = AXIS2_PLACEMENT_3D ( 'NONE', #361, #453, #449 ) ;
#982 = SHAPE_DEFINITION_REPRESENTATION ( #162, #943 ) ;
#983 = EDGE_CURVE ( 'NONE', #537, #131, #296, .T. ) ;
#984 = FACE_OUTER_BOUND ( 'NONE', #394, .T. ) ;
#985 = DIRECTION ( 'NONE',  ( 1.000000000000000000, -0.000000000000000000, -3.574581708073419723E-15 ) ) ;
#986 = VERTEX_POINT ( 'NONE', #301 ) ;
#987 = LINE ( 'NONE', #186, #459 ) ;
#988 = CARTESIAN_POINT ( 'NONE',  ( -52.50000000000007105, 95.00000000000000000, 23.59046515733024663 ) ) ;
#989 = APPLICATION_PROTOCOL_DEFINITION ( 'draft international standard', 'automotive_design', 1998, #117 ) ;
#990 = AXIS2_PLACEMENT_3D ( 'NONE', #341, #96, #8 ) ;
#991 = DIRECTION ( 'NONE',  ( 0.000000000000000000, 1.000000000000000000, 0.000000000000000000 ) ) ;
#992 = ORIENTED_EDGE ( 'NONE', *, *, #185, .F. ) ;
#993 = EDGE_CURVE ( 'NONE', #871, #215, #243, .T. ) ;
#994 = VECTOR ( 'NONE', #1126, 1000.000000000000000 ) ;
#995 = CIRCLE ( 'NONE', #893, 2.000000000000001776 ) ;
#996 = FACE_OUTER_BOUND ( 'NONE', #1060, .T. ) ;
#997 = CYLINDRICAL_SURFACE ( 'NONE', #1007, 2.099999999999994316 ) ;
#998 = ORIENTED_EDGE ( 'NONE', *, *, #263, .F. ) ;
#999 = DIRECTION ( 'NONE',  ( 1.000000000000000000, -0.000000000000000000, -3.491481338843133355E-15 ) ) ;
#1000 = AXIS2_PLACEMENT_3D ( 'NONE', #927, #1068, #620 ) ;
#1001 = CIRCLE ( 'NONE', #859, 5.000000000000000888 ) ;
#1002 = VERTEX_POINT ( 'NONE', #1032 ) ;
#1003 = DIRECTION ( 'NONE',  ( 1.000000000000000000, -0.000000000000000000, -3.574581708073419723E-15 ) ) ;
#1004 = DIRECTION ( 'NONE',  ( -3.304235192336795628E-15, 0.000000000000000000, 1.000000000000000000 ) ) ;
#1005 = ORIENTED_EDGE ( 'NONE', *, *, #1053, .T. ) ;
#1006 = FACE_OUTER_BOUND ( 'NONE', #675, .T. ) ;
#1007 = AXIS2_PLACEMENT_3D ( 'NONE', #1092, #282, #272 ) ;
#1008 = ADVANCED_FACE ( 'NONE', ( #1019 ), #749, .F. ) ;
#1009 = EDGE_LOOP ( 'NONE', ( #1005, #834, #650, #1022 ) ) ;
#1010 = CARTESIAN_POINT ( 'NONE',  ( 52.50000000000007105, 20.00000000000000355, 23.59046515733025728 ) ) ;
#1011 = CARTESIAN_POINT ( 'NONE',  ( -52.50000000000008527, 20.00000000000000355, 27.79046515733023170 ) ) ;
#1012 = AXIS2_PLACEMENT_3D ( 'NONE', #1051, #1046, #506 ) ;
#1013 = CARTESIAN_POINT ( 'NONE',  ( 52.50000000000000711, 115.0000000000000000, 3.999999999999989786 ) ) ;
#1014 = VECTOR ( 'NONE', #439, 1000.000000000000000 ) ;
#1015 = ADVANCED_FACE ( 'NONE', ( #574 ), #233, .F. ) ;
#1016 = VERTEX_POINT ( 'NONE', #306 ) ;
#1017 = DIRECTION ( 'NONE',  ( 1.000000000000000000, -0.000000000000000000, -3.574581708073419723E-15 ) ) ;
#1018 = CARTESIAN_POINT ( 'NONE',  ( -48.50000000000000000, 115.0000000000000000, 4.000000000000003553 ) ) ;
#1019 = FACE_OUTER_BOUND ( 'NONE', #5, .T. ) ;
#1020 = ORIENTED_EDGE ( 'NONE', *, *, #530, .T. ) ;
#1021 = DIRECTION ( 'NONE',  ( 0.000000000000000000, 0.000000000000000000, 1.000000000000000000 ) ) ;
#1022 = ORIENTED_EDGE ( 'NONE', *, *, #1045, .F. ) ;
#1023 = PRODUCT_DEFINITION_FORMATION_WITH_SPECIFIED_SOURCE ( 'ANY', '', #751, .NOT_KNOWN. ) ;
#1024 = EDGE_CURVE ( 'NONE', #131, #457, #995, .T. ) ;
#1025 = CARTESIAN_POINT ( 'NONE',  ( 48.50000000000000000, 0.000000000000000000, 4.000000000000003553 ) ) ;
#1026 = AXIS2_PLACEMENT_3D ( 'NONE', #482, #670, #656 ) ;
#1027 = AXIS2_PLACEMENT_3D ( 'NONE', #315, #843, #1105 ) ;
#1028 = EDGE_LOOP ( 'NONE', ( #878, #519 ) ) ;
#1029 = DIRECTION ( 'NONE',  ( -0.000000000000000000, -1.000000000000000000, -0.000000000000000000 ) ) ;
#1030 = EDGE_CURVE ( 'NONE', #316, #173, #494, .T. ) ;
#1031 = CARTESIAN_POINT ( 'NONE',  ( -52.50000000000007105, 20.00000000000000355, 23.59046515733025018 ) ) ;
#1032 = CARTESIAN_POINT ( 'NONE',  ( -50.50000000000007105, 20.00000000000000355, 23.59046515733025728 ) ) ;
#1033 = ORIENTED_EDGE ( 'NONE', *, *, #900, .T. ) ;
#1034 = DIRECTION ( 'NONE',  ( 0.000000000000000000, 0.000000000000000000, -1.000000000000000000 ) ) ;
#1035 = VERTEX_POINT ( 'NONE', #1013 ) ;
#1036 =( NAMED_UNIT ( * ) PLANE_ANGLE_UNIT ( ) SI_UNIT ( $, .RADIAN. ) );
#1037 = PRODUCT_DEFINITION ( 'UNKNOWN', '', #1023, #934 ) ;
#1038 = CARTESIAN_POINT ( 'NONE',  ( -52.50000000000007816, 20.00000000000000355, 25.69046515733024449 ) ) ;
#1039 = ORIENTED_EDGE ( 'NONE', *, *, #139, .T. ) ;
#1040 = CARTESIAN_POINT ( 'NONE',  ( -50.50000000000011369, 110.0000000000000000, 35.00000000000000711 ) ) ;
#1041 = ORIENTED_EDGE ( 'NONE', *, *, #983, .F. ) ;
#1042 = DIRECTION ( 'NONE',  ( 3.304235192336778667E-15, 0.000000000000000000, -1.000000000000000000 ) ) ;
#1043 = DIRECTION ( 'NONE',  ( -1.000000000000000000, -0.000000000000000000, -3.574581708073419723E-15 ) ) ;
#1044 = MECHANICAL_DESIGN_GEOMETRIC_PRESENTATION_REPRESENTATION (  '', ( #737 ), #707 ) ;
#1045 = EDGE_CURVE ( 'NONE', #712, #105, #569, .T. ) ;
#1046 = DIRECTION ( 'NONE',  ( -1.000000000000000000, 0.000000000000000000, 3.574581708073419723E-15 ) ) ;
#1047 = SURFACE_STYLE_USAGE ( .BOTH. , #356 ) ;
#1048 = EDGE_LOOP ( 'NONE', ( #908, #178 ) ) ;
#1049 = EDGE_LOOP ( 'NONE', ( #968, #701 ) ) ;
#1050 = DIRECTION ( 'NONE',  ( -1.000000000000000000, -0.000000000000000000, -3.574581708073419723E-15 ) ) ;
#1051 = CARTESIAN_POINT ( 'NONE',  ( 50.50000000000007816, 20.00000000000000355, 25.69046515733025160 ) ) ;
#1052 = LINE ( 'NONE', #83, #575 ) ;
#1053 = EDGE_CURVE ( 'NONE', #712, #728, #830, .T. ) ;
#1054 = PRESENTATION_LAYER_ASSIGNMENT (  '', '', ( #714 ) ) ;
#1055 = ORIENTED_EDGE ( 'NONE', *, *, #1024, .T. ) ;
#1056 = DIRECTION ( 'NONE',  ( 0.000000000000000000, 0.000000000000000000, -1.000000000000000000 ) ) ;
#1057 = VECTOR ( 'NONE', #1056, 1000.000000000000000 ) ;
#1058 = DIRECTION ( 'NONE',  ( 0.000000000000000000, 1.000000000000000000, 0.000000000000000000 ) ) ;
#1059 = FACE_BOUND ( 'NONE', #1049, .T. ) ;
#1060 = EDGE_LOOP ( 'NONE', ( #669, #557, #462, #793 ) ) ;
#1061 = EDGE_CURVE ( 'NONE', #201, #408, #672, .T. ) ;
#1062 = CARTESIAN_POINT ( 'NONE',  ( 52.49999999999999289, 0.000000000000000000, -1.946485023515407675E-13 ) ) ;
#1063 = FILL_AREA_STYLE_COLOUR ( '', #226 ) ;
#1064 = AXIS2_PLACEMENT_3D ( 'NONE', #639, #450, #205 ) ;
#1065 = CARTESIAN_POINT ( 'NONE',  ( -52.50000000000007816, 95.00000000000000000, 25.69046515733024449 ) ) ;
#1066 = EDGE_CURVE ( 'NONE', #131, #318, #775, .T. ) ;
#1067 = DIRECTION ( 'NONE',  ( 4.163336342344336238E-15, 0.000000000000000000, 1.000000000000000000 ) ) ;
#1068 = DIRECTION ( 'NONE',  ( 0.000000000000000000, 1.000000000000000000, 0.000000000000000000 ) ) ;
#1069 = CARTESIAN_POINT ( 'NONE',  ( 52.50000000000007816, 20.00000000000000355, 25.69046515733024449 ) ) ;
#1070 = ORIENTED_EDGE ( 'NONE', *, *, #6, .T. ) ;
#1071 = CARTESIAN_POINT ( 'NONE',  ( -50.50000000000000000, 115.0000000000000000, 3.999999999999996447 ) ) ;
#1072 = STYLED_ITEM ( 'NONE', ( #693 ), #319 ) ;
#1073 = CARTESIAN_POINT ( 'NONE',  ( -52.50000000000000711, 115.0000000000000000, 3.999999999999989786 ) ) ;
#1074 =( GEOMETRIC_REPRESENTATION_CONTEXT ( 3 ) GLOBAL_UNCERTAINTY_ASSIGNED_CONTEXT ( ( #46 ) ) GLOBAL_UNIT_ASSIGNED_CONTEXT ( ( #534, #359, #631 ) ) REPRESENTATION_CONTEXT ( 'NONE', 'WORKASPACE' ) );
#1075 = CARTESIAN_POINT ( 'NONE',  ( 50.50000000000009237, 110.0000000000000000, 30.00000000000001066 ) ) ;
#1076 = FILL_AREA_STYLE ('',( #803 ) ) ;
#1077 = ORIENTED_EDGE ( 'NONE', *, *, #99, .F. ) ;
#1078 = ORIENTED_EDGE ( 'NONE', *, *, #336, .T. ) ;
#1079 = CARTESIAN_POINT ( 'NONE',  ( -52.50000000000008527, 95.00000000000000000, 27.79046515733024236 ) ) ;
#1080 = CARTESIAN_POINT ( 'NONE',  ( 50.50000000000000000, 0.000000000000000000, 3.999999999999996447 ) ) ;
#1081 =( NAMED_UNIT ( * ) PLANE_ANGLE_UNIT ( ) SI_UNIT ( $, .RADIAN. ) );
#1082 = PLANE ( 'NONE',  #363 ) ;
#1083 = LINE ( 'NONE', #454, #293 ) ;
#1084 = EDGE_LOOP ( 'NONE', ( #725, #1055, #307, #597 ) ) ;
#1085 = COLOUR_RGB ( '',0.5294117647058823595, 0.5490196078431373028, 0.5490196078431373028 ) ;
#1086 = VECTOR ( 'NONE', #1117, 1000.000000000000000 ) ;
#1087 = CARTESIAN_POINT ( 'NONE',  ( 52.50000000000011369, 110.0000000000000000, 35.00000000000000000 ) ) ;
#1088 = ORIENTED_EDGE ( 'NONE', *, *, #295, .F. ) ;
#1089 =( NAMED_UNIT ( * ) SI_UNIT ( $, .STERADIAN. ) SOLID_ANGLE_UNIT ( ) );
#1090 = VECTOR ( 'NONE', #1138, 1000.000000000000000 ) ;
#1091 = FILL_AREA_STYLE ('',( #548 ) ) ;
#1092 = CARTESIAN_POINT ( 'NONE',  ( -52.50000000000007816, 20.00000000000000355, 25.69046515733024449 ) ) ;
#1093 = ORIENTED_EDGE ( 'NONE', *, *, #50, .F. ) ;
#1094 = CARTESIAN_POINT ( 'NONE',  ( -52.50000000000011369, 110.0000000000000000, 35.00000000000000000 ) ) ;
#1095 = ADVANCED_FACE ( 'NONE', ( #977 ), #596, .T. ) ;
#1096 = PRESENTATION_STYLE_ASSIGNMENT (( #287 ) ) ;
#1097 =( GEOMETRIC_REPRESENTATION_CONTEXT ( 3 ) GLOBAL_UNCERTAINTY_ASSIGNED_CONTEXT ( ( #872 ) ) GLOBAL_UNIT_ASSIGNED_CONTEXT ( ( #244, #353, #687 ) ) REPRESENTATION_CONTEXT ( 'NONE', 'WORKASPACE' ) );
#1098 = EDGE_LOOP ( 'NONE', ( #88, #614 ) ) ;
#1099 = PLANE ( 'NONE',  #1136 ) ;
#1100 = FILL_AREA_STYLE_COLOUR ( '', #510 ) ;
#1101 =( GEOMETRIC_REPRESENTATION_CONTEXT ( 3 ) GLOBAL_UNCERTAINTY_ASSIGNED_CONTEXT ( ( #225 ) ) GLOBAL_UNIT_ASSIGNED_CONTEXT ( ( #338, #777, #168 ) ) REPRESENTATION_CONTEXT ( 'NONE', 'WORKASPACE' ) );
#1102 = AXIS2_PLACEMENT_3D ( 'NONE', #1038, #738, #585 ) ;
#1103 = FACE_OUTER_BOUND ( 'NONE', #376, .T. ) ;
#1104 = EDGE_CURVE ( 'NONE', #123, #402, #817, .T. ) ;
#1105 = DIRECTION ( 'NONE',  ( 0.000000000000000000, -0.000000000000000000, 1.000000000000000000 ) ) ;
#1106 = ORIENTED_EDGE ( 'NONE', *, *, #899, .T. ) ;
#1107 = FACE_OUTER_BOUND ( 'NONE', #247, .T. ) ;
#1108 = DIRECTION ( 'NONE',  ( -3.304235192336790106E-15, 0.000000000000000000, 1.000000000000000000 ) ) ;
#1109 = AXIS2_PLACEMENT_3D ( 'NONE', #1025, #228, #755 ) ;
#1110 = DIRECTION ( 'NONE',  ( 0.000000000000000000, -1.000000000000000000, 0.000000000000000000 ) ) ;
#1111 = ADVANCED_FACE ( 'NONE', ( #523 ), #792, .T. ) ;
#1112 = EDGE_LOOP ( 'NONE', ( #695, #576, #4, #790, #252, #747 ) ) ;
#1113 = DIRECTION ( 'NONE',  ( 0.000000000000000000, 0.000000000000000000, 1.000000000000000000 ) ) ;
#1114 = ORIENTED_EDGE ( 'NONE', *, *, #458, .F. ) ;
#1115 = VECTOR ( 'NONE', #999, 1000.000000000000000 ) ;
#1116 =( LENGTH_UNIT ( ) NAMED_UNIT ( * ) SI_UNIT ( .MILLI., .METRE. ) );
#1117 = DIRECTION ( 'NONE',  ( 1.000000000000000000, -0.000000000000000000, -3.491481338843133355E-15 ) ) ;
#1118 = EDGE_LOOP ( 'NONE', ( #436, #1077, #305, #776 ) ) ;
#1119 = DIRECTION ( 'NONE',  ( 1.000000000000000000, -0.000000000000000000, -3.574581708073419723E-15 ) ) ;
#1120 = ADVANCED_FACE ( 'NONE', ( #699 ), #434, .F. ) ;
#1121 = ORIENTED_EDGE ( 'NONE', *, *, #844, .T. ) ;
#1122 = PRESENTATION_LAYER_ASSIGNMENT (  '', '', ( #773 ) ) ;
#1123 = MECHANICAL_DESIGN_GEOMETRIC_PRESENTATION_REPRESENTATION (  '', ( #354 ), #800 ) ;
#1124 = CARTESIAN_POINT ( 'NONE',  ( 52.50000000000008527, 20.00000000000000355, 27.79046515733023881 ) ) ;
#1125 = ORIENTED_EDGE ( 'NONE', *, *, #579, .T. ) ;
#1126 = DIRECTION ( 'NONE',  ( -0.000000000000000000, -1.000000000000000000, -0.000000000000000000 ) ) ;
#1127 = UNCERTAINTY_MEASURE_WITH_UNIT (LENGTH_MEASURE( 1.000000000000000082E-05 ), #81, 'distance_accuracy_value', 'NONE');
#1128 = LINE ( 'NONE', #1031, #678 ) ;
#1129 = SURFACE_STYLE_FILL_AREA ( #937 ) ;
#1130 = ORIENTED_EDGE ( 'NONE', *, *, #472, .F. ) ;
#1131 = CYLINDRICAL_SURFACE ( 'NONE', #560, 5.000000000000000888 ) ;
#1132 = AXIS2_PLACEMENT_3D ( 'NONE', #97, #337, #87 ) ;
#1133 = ORIENTED_EDGE ( 'NONE', *, *, #799, .T. ) ;
#1134 = CARTESIAN_POINT ( 'NONE',  ( -48.50000000000000000, 115.0000000000000000, 0.000000000000000000 ) ) ;
#1135 = EDGE_CURVE ( 'NONE', #809, #131, #602, .T. ) ;
#1136 = AXIS2_PLACEMENT_3D ( 'NONE', #827, #280, #638 ) ;
#1137 = CARTESIAN_POINT ( 'NONE',  ( 52.50000000000009237, 110.0000000000000000, 30.00000000000000355 ) ) ;
#1138 = DIRECTION ( 'NONE',  ( -3.574581708073419723E-15, 0.000000000000000000, -1.000000000000000000 ) ) ;
#1139 = SURFACE_SIDE_STYLE ('',( #772 ) ) ;
#1140 = EDGE_CURVE ( 'NONE', #1002, #917, #499, .T. ) ;
#1141 = AXIS2_PLACEMENT_3D ( 'NONE', #53, #1119, #571 ) ;
#1142 = CARTESIAN_POINT ( 'NONE',  ( -48.50000000000000000, 0.000000000000000000, 4.000000000000003553 ) ) ;
#1143 = ORIENTED_EDGE ( 'NONE', *, *, #637, .T. ) ;
#1144 = LINE ( 'NONE', #988, #456 ) ;
#1145 = CARTESIAN_POINT ( 'NONE',  ( -52.50000000000000000, 115.0000000000000000, 2.000000000000000000 ) ) ;
#1146 = FACE_OUTER_BOUND ( 'NONE', #432, .T. ) ;
#1147 = ADVANCED_FACE ( 'NONE', ( #881, #1059, #505 ), #709, .T. ) ;
#1148 = MECHANICAL_DESIGN_GEOMETRIC_PRESENTATION_REPRESENTATION (  '', ( #1072 ), #1074 ) ;
#1149 = ORIENTED_EDGE ( 'NONE', *, *, #936, .F. ) ;
#1150 = AXIS2_PLACEMENT_3D ( 'NONE', #352, #873, #445 ) ;
ENDSEC;
END-ISO-10303-21;
