ISO-10303-21;
HEADER;
FILE_DESCRIPTION (( 'STEP AP214' ),
    '1' );
FILE_NAME ('logiBOT_02_Aufschweiﬂblech_V1.0.STEP',
    '2024-07-12T04:25:17',
    ( '' ),
    ( '' ),
    'SwSTEP 2.0',
    'SolidWorks 2021',
    '' );
FILE_SCHEMA (( 'AUTOMOTIVE_DESIGN' ));
ENDSEC;

DATA;
#1 =( NAMED_UNIT ( * ) PLANE_ANGLE_UNIT ( ) SI_UNIT ( $, .RADIAN. ) );
#2 = EDGE_LOOP ( 'NONE', ( #134, #387, #186, #470 ) ) ;
#3 =( NAMED_UNIT ( * ) SI_UNIT ( $, .STERADIAN. ) SOLID_ANGLE_UNIT ( ) );
#4 = ORIENTED_EDGE ( 'NONE', *, *, #18, .F. ) ;
#5 = VECTOR ( 'NONE', #408, 1000.000000000000000 ) ;
#6 = DIRECTION ( 'NONE',  ( 6.183429423743666432E-33, -4.493435458810130738E-63, -1.000000000000000000 ) ) ;
#7 = ORIENTED_EDGE ( 'NONE', *, *, #152, .T. ) ;
#8 = EDGE_CURVE ( 'NONE', #455, #426, #273, .T. ) ;
#9 = FACE_OUTER_BOUND ( 'NONE', #330, .T. ) ;
#10 = EDGE_CURVE ( 'NONE', #344, #309, #525, .T. ) ;
#11 = ORIENTED_EDGE ( 'NONE', *, *, #434, .F. ) ;
#12 =( NAMED_UNIT ( * ) PLANE_ANGLE_UNIT ( ) SI_UNIT ( $, .RADIAN. ) );
#13 = DIRECTION ( 'NONE',  ( -6.183429423743666432E-33, 4.493435458810130738E-63, 1.000000000000000000 ) ) ;
#14 = EDGE_LOOP ( 'NONE', ( #260 ) ) ;
#15 = SURFACE_STYLE_USAGE ( .BOTH. , #421 ) ;
#16 = SURFACE_SIDE_STYLE ('',( #511 ) ) ;
#17 = ORIENTED_EDGE ( 'NONE', *, *, #258, .F. ) ;
#18 = EDGE_CURVE ( 'NONE', #39, #39, #437, .T. ) ;
#19 = UNCERTAINTY_MEASURE_WITH_UNIT (LENGTH_MEASURE( 1.000000000000000082E-05 ), #68, 'distance_accuracy_value', 'NONE');
#20 = CARTESIAN_POINT ( 'NONE',  ( -20.00000000000001776, 16.00000000000000000, -5.000000000000000000 ) ) ;
#21 = ORIENTED_EDGE ( 'NONE', *, *, #8, .T. ) ;
#22 = PRODUCT_DEFINITION_CONTEXT ( 'detailed design', #252, 'design' ) ;
#23 = FACE_BOUND ( 'NONE', #449, .T. ) ;
#24 = CARTESIAN_POINT ( 'NONE',  ( -16.99999999999996092, -6.500000000000005329, 1.734723475976807094E-15 ) ) ;
#25 = SURFACE_SIDE_STYLE ('',( #32 ) ) ;
#26 = MECHANICAL_DESIGN_GEOMETRIC_PRESENTATION_REPRESENTATION (  '', ( #67 ), #138 ) ;
#27 = DIRECTION ( 'NONE',  ( 6.183429423743666432E-33, -4.493435458810130738E-63, -1.000000000000000000 ) ) ;
#28 = AXIS2_PLACEMENT_3D ( 'NONE', #86, #251, #469 ) ;
#29 = DIRECTION ( 'NONE',  ( 6.183429423743666432E-33, -4.493435458810130738E-63, -1.000000000000000000 ) ) ;
#30 =( GEOMETRIC_REPRESENTATION_CONTEXT ( 3 ) GLOBAL_UNCERTAINTY_ASSIGNED_CONTEXT ( ( #146 ) ) GLOBAL_UNIT_ASSIGNED_CONTEXT ( ( #295, #486, #44 ) ) REPRESENTATION_CONTEXT ( 'NONE', 'WORKASPACE' ) );
#31 = DIRECTION ( 'NONE',  ( -6.183429423743666432E-33, 4.493435458810130738E-63, 1.000000000000000000 ) ) ;
#32 = SURFACE_STYLE_FILL_AREA ( #444 ) ;
#33 = AXIS2_PLACEMENT_3D ( 'NONE', #441, #276, #457 ) ;
#34 = DIRECTION ( 'NONE',  ( 1.000000000000000000, 0.000000000000000000, 0.000000000000000000 ) ) ;
#35 = PRESENTATION_LAYER_ASSIGNMENT (  '', '', ( #419 ) ) ;
#36 = ADVANCED_FACE ( 'NONE', ( #485, #198 ), #365, .F. ) ;
#37 = CARTESIAN_POINT ( 'NONE',  ( 18.24999999999995737, 6.500000000000000888, -5.000000000000000000 ) ) ;
#38 = CARTESIAN_POINT ( 'NONE',  ( 24.99999999999999289, -16.00000000000000000, -5.000000000000000000 ) ) ;
#39 = VERTEX_POINT ( 'NONE', #160 ) ;
#40 = DIRECTION ( 'NONE',  ( -1.661005393010403502E-30, 1.000000000000000000, 4.493435458810130738E-63 ) ) ;
#41 = VERTEX_POINT ( 'NONE', #115 ) ;
#42 = CARTESIAN_POINT ( 'NONE',  ( -24.99999999999999289, 16.00000000000000000, 0.000000000000000000 ) ) ;
#43 = DIRECTION ( 'NONE',  ( 1.000000000000000000, -1.661005393010403502E-30, 6.183429423743666432E-33 ) ) ;
#44 =( NAMED_UNIT ( * ) SI_UNIT ( $, .STERADIAN. ) SOLID_ANGLE_UNIT ( ) );
#45 = CARTESIAN_POINT ( 'NONE',  ( -24.99999999999999289, -16.00000000000000000, 0.000000000000000000 ) ) ;
#46 = VECTOR ( 'NONE', #40, 1000.000000000000000 ) ;
#47 = EDGE_LOOP ( 'NONE', ( #468 ) ) ;
#48 = SURFACE_STYLE_USAGE ( .BOTH. , #290 ) ;
#49 = VERTEX_POINT ( 'NONE', #110 ) ;
#50 = AXIS2_PLACEMENT_3D ( 'NONE', #473, #31, #319 ) ;
#51 = EDGE_CURVE ( 'NONE', #407, #407, #406, .T. ) ;
#52 = ORIENTED_EDGE ( 'NONE', *, *, #303, .T. ) ;
#53 = DIRECTION ( 'NONE',  ( -1.000000000000000000, 0.000000000000000000, 6.183429423743665064E-33 ) ) ;
#54 = ORIENTED_EDGE ( 'NONE', *, *, #10, .T. ) ;
#55 = FILL_AREA_STYLE_COLOUR ( '', #368 ) ;
#56 = EDGE_LOOP ( 'NONE', ( #128 ) ) ;
#57 =( NAMED_UNIT ( * ) PLANE_ANGLE_UNIT ( ) SI_UNIT ( $, .RADIAN. ) );
#58 = ORIENTED_EDGE ( 'NONE', *, *, #284, .T. ) ;
#59 = DIRECTION ( 'NONE',  ( -1.000000000000000000, 0.000000000000000000, 6.183429423743665064E-33 ) ) ;
#60 = AXIS2_PLACEMENT_3D ( 'NONE', #179, #346, #300 ) ;
#61 = CARTESIAN_POINT ( 'NONE',  ( 19.99999999999998934, -11.00000000000000000, 0.000000000000000000 ) ) ;
#62 = STYLED_ITEM ( 'NONE', ( #66 ), #36 ) ;
#63 = DIRECTION ( 'NONE',  ( 1.661005393010403502E-30, -1.000000000000000000, -4.493435458810130738E-63 ) ) ;
#64 = ADVANCED_FACE ( 'NONE', ( #151 ), #195, .T. ) ;
#65 = DIRECTION ( 'NONE',  ( -1.000000000000000000, 1.661005393010403502E-30, 6.183429423743666432E-33 ) ) ;
#66 = PRESENTATION_STYLE_ASSIGNMENT (( #107 ) ) ;
#67 = STYLED_ITEM ( 'NONE', ( #182 ), #267 ) ;
#68 =( LENGTH_UNIT ( ) NAMED_UNIT ( * ) SI_UNIT ( .MILLI., .METRE. ) );
#69 = DIRECTION ( 'NONE',  ( 1.661005393010403502E-30, -1.000000000000000000, 1.476414507894757181E-62 ) ) ;
#70 = COLOUR_RGB ( '',0.5294117647058823595, 0.5490196078431373028, 0.5490196078431373028 ) ;
#71 = DIRECTION ( 'NONE',  ( -6.183429423743666432E-33, 4.493435458810130738E-63, 1.000000000000000000 ) ) ;
#72 = EDGE_LOOP ( 'NONE', ( #4 ) ) ;
#73 = EDGE_CURVE ( 'NONE', #426, #416, #443, .T. ) ;
#74 = CARTESIAN_POINT ( 'NONE',  ( 18.24999999999995737, -6.500000000000005329, -5.000000000000000000 ) ) ;
#75 = VECTOR ( 'NONE', #232, 1000.000000000000000 ) ;
#76 =( NAMED_UNIT ( * ) SI_UNIT ( $, .STERADIAN. ) SOLID_ANGLE_UNIT ( ) );
#77 = EDGE_LOOP ( 'NONE', ( #475, #217, #148, #393 ) ) ;
#78 = CARTESIAN_POINT ( 'NONE',  ( 18.24999999999994671, 6.500000000000000888, 1.734723475976807094E-15 ) ) ;
#79 = FILL_AREA_STYLE_COLOUR ( '', #112 ) ;
#80 = EDGE_LOOP ( 'NONE', ( #54, #52, #266, #312 ) ) ;
#81 = DIRECTION ( 'NONE',  ( 6.183429423743666432E-33, -4.493435458810130738E-63, -1.000000000000000000 ) ) ;
#82 = LINE ( 'NONE', #458, #143 ) ;
#83 = EDGE_LOOP ( 'NONE', ( #17 ) ) ;
#84 = MANIFOLD_SOLID_BREP ( 'Verrundung1', #370 ) ;
#85 = VERTEX_POINT ( 'NONE', #246 ) ;
#86 = CARTESIAN_POINT ( 'NONE',  ( -24.99999999999999289, 16.00000000000000000, -5.000000000000000000 ) ) ;
#87 = DIRECTION ( 'NONE',  ( 0.000000000000000000, 0.000000000000000000, 1.000000000000000000 ) ) ;
#88 = DIRECTION ( 'NONE',  ( 1.000000000000000000, 0.000000000000000000, 0.000000000000000000 ) ) ;
#89 = EDGE_LOOP ( 'NONE', ( #420 ) ) ;
#90 = EDGE_CURVE ( 'NONE', #178, #416, #210, .T. ) ;
#91 = ADVANCED_FACE ( 'NONE', ( #323 ), #204, .T. ) ;
#92 = DIRECTION ( 'NONE',  ( 1.000000000000000000, 0.000000000000000000, 0.000000000000000000 ) ) ;
#93 = ORIENTED_EDGE ( 'NONE', *, *, #513, .T. ) ;
#94 = CIRCLE ( 'NONE', #489, 1.249999999999987121 ) ;
#95 = LINE ( 'NONE', #429, #233 ) ;
#96 = ORIENTED_EDGE ( 'NONE', *, *, #10, .F. ) ;
#97 = LINE ( 'NONE', #304, #278 ) ;
#98 = ORIENTED_EDGE ( 'NONE', *, *, #242, .T. ) ;
#99 = UNCERTAINTY_MEASURE_WITH_UNIT (LENGTH_MEASURE( 1.000000000000000082E-05 ), #283, 'distance_accuracy_value', 'NONE');
#100 = CYLINDRICAL_SURFACE ( 'NONE', #399, 1.249999999999994227 ) ;
#101 = ORIENTED_EDGE ( 'NONE', *, *, #488, .F. ) ;
#102 = CIRCLE ( 'NONE', #472, 5.000000000000000888 ) ;
#103 = MECHANICAL_DESIGN_GEOMETRIC_PRESENTATION_REPRESENTATION (  '', ( #419 ), #241 ) ;
#104 = CARTESIAN_POINT ( 'NONE',  ( -20.00000000000001776, 16.00000000000000000, -5.000000000000000000 ) ) ;
#105 = ORIENTED_EDGE ( 'NONE', *, *, #243, .T. ) ;
#106 = SURFACE_STYLE_USAGE ( .BOTH. , #25 ) ;
#107 = SURFACE_STYLE_USAGE ( .BOTH. , #483 ) ;
#108 = EDGE_CURVE ( 'NONE', #183, #455, #336, .T. ) ;
#109 = PLANE ( 'NONE',  #265 ) ;
#110 = CARTESIAN_POINT ( 'NONE',  ( -24.99999999999999289, 11.00000000000000000, 0.000000000000000000 ) ) ;
#111 = DIRECTION ( 'NONE',  ( -6.183429423743666432E-33, 4.493435458810130738E-63, 1.000000000000000000 ) ) ;
#112 = COLOUR_RGB ( '',0.7921568627450980005, 0.8196078431372548767, 0.9333333333333333481 ) ;
#113 = DIRECTION ( 'NONE',  ( -6.183429423743666432E-33, 4.493435458810130738E-63, 1.000000000000000000 ) ) ;
#114 = CARTESIAN_POINT ( 'NONE',  ( 0.000000000000000000, 0.000000000000000000, -5.000000000000000000 ) ) ;
#115 = CARTESIAN_POINT ( 'NONE',  ( 19.99999999999998934, -16.00000000000000000, -5.000000000000000000 ) ) ;
#116 = AXIS2_PLACEMENT_3D ( 'NONE', #61, #113, #231 ) ;
#117 = CARTESIAN_POINT ( 'NONE',  ( -20.00000000000001776, 16.00000000000000000, 0.000000000000000000 ) ) ;
#118 = ORIENTED_EDGE ( 'NONE', *, *, #529, .F. ) ;
#119 = FACE_OUTER_BOUND ( 'NONE', #213, .T. ) ;
#120 = DIRECTION ( 'NONE',  ( -6.183429423743666432E-33, 4.493435458810130738E-63, 1.000000000000000000 ) ) ;
#121 = ORIENTED_EDGE ( 'NONE', *, *, #284, .F. ) ;
#122 = CARTESIAN_POINT ( 'NONE',  ( -15.74999999999997158, 6.500000000000000888, 1.734723475976807094E-15 ) ) ;
#123 = AXIS2_PLACEMENT_3D ( 'NONE', #448, #371, #282 ) ;
#124 = DIRECTION ( 'NONE',  ( 1.000000000000000000, 0.000000000000000000, -6.183429423743656853E-33 ) ) ;
#125 = ORIENTED_EDGE ( 'NONE', *, *, #258, .T. ) ;
#126 = CARTESIAN_POINT ( 'NONE',  ( 24.99999999999999289, -16.00000000000000000, 0.000000000000000000 ) ) ;
#127 = AXIS2_PLACEMENT_3D ( 'NONE', #114, #453, #244 ) ;
#128 = ORIENTED_EDGE ( 'NONE', *, *, #51, .F. ) ;
#129 = DIRECTION ( 'NONE',  ( 6.183429423743666432E-33, -4.493435458810130738E-63, -1.000000000000000000 ) ) ;
#130 = EDGE_CURVE ( 'NONE', #41, #495, #446, .T. ) ;
#131 = ORIENTED_EDGE ( 'NONE', *, *, #363, .F. ) ;
#132 = CARTESIAN_POINT ( 'NONE',  ( -20.00000000000001776, 11.00000000000000000, -5.000000000000000000 ) ) ;
#133 = STYLED_ITEM ( 'NONE', ( #197 ), #341 ) ;
#134 = ORIENTED_EDGE ( 'NONE', *, *, #188, .T. ) ;
#135 = VECTOR ( 'NONE', #63, 1000.000000000000000 ) ;
#136 = DIRECTION ( 'NONE',  ( -6.183429423743666432E-33, 4.493435458810130738E-63, 1.000000000000000000 ) ) ;
#137 = ORIENTED_EDGE ( 'NONE', *, *, #383, .F. ) ;
#138 =( GEOMETRIC_REPRESENTATION_CONTEXT ( 3 ) GLOBAL_UNCERTAINTY_ASSIGNED_CONTEXT ( ( #224 ) ) GLOBAL_UNIT_ASSIGNED_CONTEXT ( ( #177, #57, #215 ) ) REPRESENTATION_CONTEXT ( 'NONE', 'WORKASPACE' ) );
#139 =( LENGTH_UNIT ( ) NAMED_UNIT ( * ) SI_UNIT ( .MILLI., .METRE. ) );
#140 = MECHANICAL_DESIGN_GEOMETRIC_PRESENTATION_REPRESENTATION (  '', ( #442 ), #191 ) ;
#141 = DIRECTION ( 'NONE',  ( -6.183429423743666432E-33, 4.493435458810130738E-63, 1.000000000000000000 ) ) ;
#142 = ORIENTED_EDGE ( 'NONE', *, *, #152, .F. ) ;
#143 = VECTOR ( 'NONE', #533, 1000.000000000000000 ) ;
#144 = DIRECTION ( 'NONE',  ( 1.000000000000000000, 0.000000000000000000, -6.183429423743656853E-33 ) ) ;
#145 = EDGE_LOOP ( 'NONE', ( #142 ) ) ;
#146 = UNCERTAINTY_MEASURE_WITH_UNIT (LENGTH_MEASURE( 1.000000000000000082E-05 ), #295, 'distance_accuracy_value', 'NONE');
#147 = DIRECTION ( 'NONE',  ( 1.000000000000000000, 0.000000000000000000, 0.000000000000000000 ) ) ;
#148 = ORIENTED_EDGE ( 'NONE', *, *, #285, .F. ) ;
#149 = AXIS2_PLACEMENT_3D ( 'NONE', #517, #310, #482 ) ;
#150 = AXIS2_PLACEMENT_3D ( 'NONE', #361, #356, #404 ) ;
#151 = FACE_OUTER_BOUND ( 'NONE', #2, .T. ) ;
#152 = EDGE_CURVE ( 'NONE', #85, #85, #189, .T. ) ;
#153 = EDGE_CURVE ( 'NONE', #527, #527, #447, .T. ) ;
#154 = PRODUCT ( 'logiBOT_02_Aufschweiﬂblech_V1.0', 'logiBOT_02_Aufschweiﬂblech_V1.0', '', ( #503 ) ) ;
#155 =( LENGTH_UNIT ( ) NAMED_UNIT ( * ) SI_UNIT ( .MILLI., .METRE. ) );
#156 =( NAMED_UNIT ( * ) PLANE_ANGLE_UNIT ( ) SI_UNIT ( $, .RADIAN. ) );
#157 = FILL_AREA_STYLE_COLOUR ( '', #506 ) ;
#158 = DIRECTION ( 'NONE',  ( 1.000000000000000000, 0.000000000000000000, 0.000000000000000000 ) ) ;
#159 = DIRECTION ( 'NONE',  ( 6.183429423743666432E-33, -4.493435458810130738E-63, -1.000000000000000000 ) ) ;
#160 = CARTESIAN_POINT ( 'NONE',  ( -15.74999999999997158, -6.500000000000005329, 1.734723475976807094E-15 ) ) ;
#161 = PLANE ( 'NONE',  #28 ) ;
#162 = ADVANCED_FACE ( 'NONE', ( #200, #172 ), #208, .F. ) ;
#163 = ORIENTED_EDGE ( 'NONE', *, *, #18, .T. ) ;
#164 = COLOUR_RGB ( '',0.7921568627450980005, 0.8196078431372548767, 0.9333333333333333481 ) ;
#165 = FACE_OUTER_BOUND ( 'NONE', #80, .T. ) ;
#166 = CARTESIAN_POINT ( 'NONE',  ( -16.99999999999996092, -6.500000000000005329, -5.000000000000000000 ) ) ;
#167 = ORIENTED_EDGE ( 'NONE', *, *, #171, .F. ) ;
#168 = CARTESIAN_POINT ( 'NONE',  ( -20.00000000000001776, -16.00000000000000000, -5.000000000000000000 ) ) ;
#169 = DIRECTION ( 'NONE',  ( -6.183429423743666432E-33, 4.493435458810130738E-63, 1.000000000000000000 ) ) ;
#170 = ORIENTED_EDGE ( 'NONE', *, *, #153, .T. ) ;
#171 = EDGE_CURVE ( 'NONE', #294, #309, #440, .T. ) ;
#172 = FACE_OUTER_BOUND ( 'NONE', #512, .T. ) ;
#173 = AXIS2_PLACEMENT_3D ( 'NONE', #431, #271, #59 ) ;
#174 = VECTOR ( 'NONE', #159, 1000.000000000000000 ) ;
#175 = CYLINDRICAL_SURFACE ( 'NONE', #60, 5.000000000000000888 ) ;
#176 = ORIENTED_EDGE ( 'NONE', *, *, #303, .F. ) ;
#177 =( LENGTH_UNIT ( ) NAMED_UNIT ( * ) SI_UNIT ( .MILLI., .METRE. ) );
#178 = VERTEX_POINT ( 'NONE', #245 ) ;
#179 = CARTESIAN_POINT ( 'NONE',  ( 19.99999999999998934, 11.00000000000000000, -5.000000000000000000 ) ) ;
#180 = ORIENTED_EDGE ( 'NONE', *, *, #108, .T. ) ;
#181 = DIRECTION ( 'NONE',  ( 1.000000000000000000, 0.000000000000000000, 0.000000000000000000 ) ) ;
#182 = PRESENTATION_STYLE_ASSIGNMENT (( #225 ) ) ;
#183 = VERTEX_POINT ( 'NONE', #296 ) ;
#184 = CARTESIAN_POINT ( 'NONE',  ( -20.00000000000001776, -16.00000000000000000, -5.000000000000000000 ) ) ;
#185 = EDGE_CURVE ( 'NONE', #49, #452, #410, .T. ) ;
#186 = ORIENTED_EDGE ( 'NONE', *, *, #242, .F. ) ;
#187 = EDGE_CURVE ( 'NONE', #350, #426, #494, .T. ) ;
#188 = EDGE_CURVE ( 'NONE', #294, #41, #82, .T. ) ;
#189 = CIRCLE ( 'NONE', #385, 1.249999999999997558 ) ;
#190 = DIRECTION ( 'NONE',  ( 1.000000000000000000, 0.000000000000000000, -6.183429423743656853E-33 ) ) ;
#191 =( GEOMETRIC_REPRESENTATION_CONTEXT ( 3 ) GLOBAL_UNCERTAINTY_ASSIGNED_CONTEXT ( ( #351 ) ) GLOBAL_UNIT_ASSIGNED_CONTEXT ( ( #333, #1, #76 ) ) REPRESENTATION_CONTEXT ( 'NONE', 'WORKASPACE' ) );
#192 = FILL_AREA_STYLE ('',( #523 ) ) ;
#193 = DIRECTION ( 'NONE',  ( -6.183429423743666432E-33, 4.493435458810130738E-63, 1.000000000000000000 ) ) ;
#194 = DIRECTION ( 'NONE',  ( 6.183429423743666432E-33, -4.493435458810130738E-63, -1.000000000000000000 ) ) ;
#195 = PLANE ( 'NONE',  #268 ) ;
#196 = AXIS2_PLACEMENT_3D ( 'NONE', #279, #111, #147 ) ;
#197 = PRESENTATION_STYLE_ASSIGNMENT (( #106 ) ) ;
#198 = FACE_OUTER_BOUND ( 'NONE', #288, .T. ) ;
#199 = CARTESIAN_POINT ( 'NONE',  ( -15.74999999999996270, 6.500000000000000888, -5.000000000000000000 ) ) ;
#200 = FACE_OUTER_BOUND ( 'NONE', #463, .T. ) ;
#201 = PRODUCT_RELATED_PRODUCT_CATEGORY ( 'part', '', ( #154 ) ) ;
#202 = VERTEX_POINT ( 'NONE', #490 ) ;
#203 = ADVANCED_FACE ( 'NONE', ( #248 ), #161, .T. ) ;
#204 = PLANE ( 'NONE',  #313 ) ;
#205 = PRESENTATION_LAYER_ASSIGNMENT (  '', '', ( #62 ) ) ;
#206 = ORIENTED_EDGE ( 'NONE', *, *, #433, .F. ) ;
#207 = CARTESIAN_POINT ( 'NONE',  ( 19.99999999999998934, -16.00000000000000000, 0.000000000000000000 ) ) ;
#208 = CYLINDRICAL_SURFACE ( 'NONE', #536, 1.249999999999994227 ) ;
#209 = APPLICATION_PROTOCOL_DEFINITION ( 'draft international standard', 'automotive_design', 1998, #456 ) ;
#210 = LINE ( 'NONE', #126, #5 ) ;
#211 = STYLED_ITEM ( 'NONE', ( #380 ), #257 ) ;
#212 = CARTESIAN_POINT ( 'NONE',  ( -16.99999999999996092, 6.500000000000000888, 0.000000000000000000 ) ) ;
#213 = EDGE_LOOP ( 'NONE', ( #305, #338, #430, #381, #96, #530, #118, #21 ) ) ;
#214 = CIRCLE ( 'NONE', #149, 5.000000000000000888 ) ;
#215 =( NAMED_UNIT ( * ) SI_UNIT ( $, .STERADIAN. ) SOLID_ANGLE_UNIT ( ) );
#216 = ORIENTED_EDGE ( 'NONE', *, *, #459, .T. ) ;
#217 = ORIENTED_EDGE ( 'NONE', *, *, #108, .F. ) ;
#218 = LINE ( 'NONE', #388, #229 ) ;
#219 =( GEOMETRIC_REPRESENTATION_CONTEXT ( 3 ) GLOBAL_UNCERTAINTY_ASSIGNED_CONTEXT ( ( #476 ) ) GLOBAL_UNIT_ASSIGNED_CONTEXT ( ( #139, #12, #3 ) ) REPRESENTATION_CONTEXT ( 'NONE', 'WORKASPACE' ) );
#220 = EDGE_LOOP ( 'NONE', ( #347, #121, #509, #223 ) ) ;
#221 = APPLICATION_PROTOCOL_DEFINITION ( 'draft international standard', 'automotive_design', 1998, #252 ) ;
#222 = DIRECTION ( 'NONE',  ( -6.183429423743666432E-33, 4.493435458810130738E-63, 1.000000000000000000 ) ) ;
#223 = ORIENTED_EDGE ( 'NONE', *, *, #130, .F. ) ;
#224 = UNCERTAINTY_MEASURE_WITH_UNIT (LENGTH_MEASURE( 1.000000000000000082E-05 ), #177, 'distance_accuracy_value', 'NONE');
#225 = SURFACE_STYLE_USAGE ( .BOTH. , #16 ) ;
#226 = ORIENTED_EDGE ( 'NONE', *, *, #227, .T. ) ;
#227 = EDGE_CURVE ( 'NONE', #202, #202, #94, .T. ) ;
#228 = LINE ( 'NONE', #394, #405 ) ;
#229 = VECTOR ( 'NONE', #13, 1000.000000000000000 ) ;
#230 =( NAMED_UNIT ( * ) SI_UNIT ( $, .STERADIAN. ) SOLID_ANGLE_UNIT ( ) );
#231 = DIRECTION ( 'NONE',  ( -1.000000000000000000, 0.000000000000000000, 6.183429423743665064E-33 ) ) ;
#232 = DIRECTION ( 'NONE',  ( -6.183429423743666432E-33, 4.493435458810130738E-63, 1.000000000000000000 ) ) ;
#233 = VECTOR ( 'NONE', #392, 1000.000000000000000 ) ;
#234 = CARTESIAN_POINT ( 'NONE',  ( -24.99999999999999289, -11.00000000000000000, 0.000000000000000000 ) ) ;
#235 = FACE_OUTER_BOUND ( 'NONE', #413, .T. ) ;
#236 = CARTESIAN_POINT ( 'NONE',  ( 24.99999999999999289, 11.00000000000000000, -5.000000000000000000 ) ) ;
#237 = CARTESIAN_POINT ( 'NONE',  ( 19.99999999999998934, -11.00000000000000000, -5.000000000000000000 ) ) ;
#238 =( NAMED_UNIT ( * ) PLANE_ANGLE_UNIT ( ) SI_UNIT ( $, .RADIAN. ) );
#239 = PRODUCT_DEFINITION ( 'UNKNOWN', '', #424, #22 ) ;
#240 = DIRECTION ( 'NONE',  ( -1.000000000000000000, 1.661005393010403502E-30, 6.183429423743666432E-33 ) ) ;
#241 =( GEOMETRIC_REPRESENTATION_CONTEXT ( 3 ) GLOBAL_UNCERTAINTY_ASSIGNED_CONTEXT ( ( #99 ) ) GLOBAL_UNIT_ASSIGNED_CONTEXT ( ( #283, #156, #230 ) ) REPRESENTATION_CONTEXT ( 'NONE', 'WORKASPACE' ) );
#242 = EDGE_CURVE ( 'NONE', #369, #495, #97, .T. ) ;
#243 = EDGE_CURVE ( 'NONE', #423, #502, #298, .T. ) ;
#244 = DIRECTION ( 'NONE',  ( -1.000000000000000000, 1.661005393010403502E-30, 6.183429423743666432E-33 ) ) ;
#245 = CARTESIAN_POINT ( 'NONE',  ( 24.99999999999999289, -11.00000000000000000, 0.000000000000000000 ) ) ;
#246 = CARTESIAN_POINT ( 'NONE',  ( -15.74999999999996270, -6.500000000000005329, -5.000000000000000000 ) ) ;
#247 = VERTEX_POINT ( 'NONE', #199 ) ;
#248 = FACE_OUTER_BOUND ( 'NONE', #505, .T. ) ;
#249 = ORIENTED_EDGE ( 'NONE', *, *, #187, .T. ) ;
#250 = VERTEX_POINT ( 'NONE', #78 ) ;
#251 = DIRECTION ( 'NONE',  ( -1.661005393010403502E-30, 1.000000000000000000, -1.476414507894757181E-62 ) ) ;
#252 = APPLICATION_CONTEXT ( 'automotive_design' ) ;
#253 = FACE_OUTER_BOUND ( 'NONE', #56, .T. ) ;
#254 = SHAPE_DEFINITION_REPRESENTATION ( #378, #257 ) ;
#255 = ORIENTED_EDGE ( 'NONE', *, *, #90, .T. ) ;
#256 = CIRCLE ( 'NONE', #329, 1.249999999999997558 ) ;
#257 = ADVANCED_BREP_SHAPE_REPRESENTATION ( 'logiBOT_02_AufschweiØblech_V1.0', ( #84, #521 ), #30 ) ;
#258 = EDGE_CURVE ( 'NONE', #493, #493, #256, .T. ) ;
#259 = FILL_AREA_STYLE ('',( #460 ) ) ;
#260 = ORIENTED_EDGE ( 'NONE', *, *, #363, .T. ) ;
#261 = CYLINDRICAL_SURFACE ( 'NONE', #286, 1.249999999999994227 ) ;
#262 = MECHANICAL_DESIGN_GEOMETRIC_PRESENTATION_REPRESENTATION (  '', ( #211 ), #219 ) ;
#263 = ORIENTED_EDGE ( 'NONE', *, *, #383, .T. ) ;
#264 = DIRECTION ( 'NONE',  ( -1.000000000000000000, 0.000000000000000000, 0.000000000000000000 ) ) ;
#265 = AXIS2_PLACEMENT_3D ( 'NONE', #274, #438, #65 ) ;
#266 = ORIENTED_EDGE ( 'NONE', *, *, #185, .F. ) ;
#267 = ADVANCED_FACE ( 'NONE', ( #253, #9 ), #100, .F. ) ;
#268 = AXIS2_PLACEMENT_3D ( 'NONE', #439, #69, #27 ) ;
#269 = CARTESIAN_POINT ( 'NONE',  ( 24.99999999999999289, 11.00000000000000000, -5.000000000000000000 ) ) ;
#270 = ORIENTED_EDGE ( 'NONE', *, *, #90, .F. ) ;
#271 = DIRECTION ( 'NONE',  ( -6.183429423743666432E-33, 4.493435458810130738E-63, 1.000000000000000000 ) ) ;
#272 = AXIS2_PLACEMENT_3D ( 'NONE', #132, #462, #92 ) ;
#273 = CIRCLE ( 'NONE', #531, 5.000000000000000888 ) ;
#274 = CARTESIAN_POINT ( 'NONE',  ( 0.000000000000000000, 0.000000000000000000, 0.000000000000000000 ) ) ;
#275 =( NAMED_UNIT ( * ) SI_UNIT ( $, .STERADIAN. ) SOLID_ANGLE_UNIT ( ) );
#276 = DIRECTION ( 'NONE',  ( -6.183429423743666432E-33, 4.493435458810130738E-63, 1.000000000000000000 ) ) ;
#277 = CARTESIAN_POINT ( 'NONE',  ( 16.99999999999996092, -6.500000000000005329, -5.000000000000000000 ) ) ;
#278 = VECTOR ( 'NONE', #352, 1000.000000000000000 ) ;
#279 = CARTESIAN_POINT ( 'NONE',  ( -20.00000000000001776, -11.00000000000000000, -5.000000000000000000 ) ) ;
#280 = CARTESIAN_POINT ( 'NONE',  ( 19.99999999999998934, 11.00000000000000000, -5.000000000000000000 ) ) ;
#281 = EDGE_CURVE ( 'NONE', #344, #423, #464, .T. ) ;
#282 = DIRECTION ( 'NONE',  ( -6.183429423743666432E-33, 4.493435458810130738E-63, 1.000000000000000000 ) ) ;
#283 =( LENGTH_UNIT ( ) NAMED_UNIT ( * ) SI_UNIT ( .MILLI., .METRE. ) );
#284 = EDGE_CURVE ( 'NONE', #178, #350, #95, .T. ) ;
#285 = EDGE_CURVE ( 'NONE', #416, #183, #373, .T. ) ;
#286 = AXIS2_PLACEMENT_3D ( 'NONE', #316, #71, #190 ) ;
#287 = AXIS2_PLACEMENT_3D ( 'NONE', #325, #367, #374 ) ;
#288 = EDGE_LOOP ( 'NONE', ( #216 ) ) ;
#289 = PLANE ( 'NONE',  #127 ) ;
#290 = SURFACE_SIDE_STYLE ('',( #372 ) ) ;
#291 = EDGE_LOOP ( 'NONE', ( #125 ) ) ;
#292 = VECTOR ( 'NONE', #240, 1000.000000000000000 ) ;
#293 = DIRECTION ( 'NONE',  ( 1.000000000000000000, 0.000000000000000000, 0.000000000000000000 ) ) ;
#294 = VERTEX_POINT ( 'NONE', #184 ) ;
#295 =( LENGTH_UNIT ( ) NAMED_UNIT ( * ) SI_UNIT ( .MILLI., .METRE. ) );
#296 = CARTESIAN_POINT ( 'NONE',  ( 19.99999999999998934, 16.00000000000000000, 0.000000000000000000 ) ) ;
#297 = ORIENTED_EDGE ( 'NONE', *, *, #73, .T. ) ;
#298 = LINE ( 'NONE', #20, #306 ) ;
#299 = PRESENTATION_LAYER_ASSIGNMENT (  '', '', ( #133 ) ) ;
#300 = DIRECTION ( 'NONE',  ( 1.000000000000000000, 0.000000000000000000, 0.000000000000000000 ) ) ;
#301 = ORIENTED_EDGE ( 'NONE', *, *, #513, .F. ) ;
#302 = AXIS2_PLACEMENT_3D ( 'NONE', #24, #193, #34 ) ;
#303 = EDGE_CURVE ( 'NONE', #309, #452, #218, .T. ) ;
#304 = CARTESIAN_POINT ( 'NONE',  ( -24.99999999999999289, -16.00000000000000000, 0.000000000000000000 ) ) ;
#305 = ORIENTED_EDGE ( 'NONE', *, *, #187, .F. ) ;
#306 = VECTOR ( 'NONE', #384, 1000.000000000000000 ) ;
#307 = CYLINDRICAL_SURFACE ( 'NONE', #272, 5.000000000000000888 ) ;
#308 = ORIENTED_EDGE ( 'NONE', *, *, #433, .T. ) ;
#309 = VERTEX_POINT ( 'NONE', #339 ) ;
#310 = DIRECTION ( 'NONE',  ( -6.183429423743666432E-33, 4.493435458810130738E-63, 1.000000000000000000 ) ) ;
#311 = CIRCLE ( 'NONE', #50, 1.249999999999997558 ) ;
#312 = ORIENTED_EDGE ( 'NONE', *, *, #434, .T. ) ;
#313 = AXIS2_PLACEMENT_3D ( 'NONE', #38, #43, #415 ) ;
#314 = DIRECTION ( 'NONE',  ( -6.183429423743666432E-33, 4.493435458810130738E-63, 1.000000000000000000 ) ) ;
#315 = PRESENTATION_STYLE_ASSIGNMENT (( #318 ) ) ;
#316 = CARTESIAN_POINT ( 'NONE',  ( -16.99999999999996092, -6.500000000000005329, 0.000000000000000000 ) ) ;
#317 = SURFACE_STYLE_FILL_AREA ( #192 ) ;
#318 = SURFACE_STYLE_USAGE ( .BOTH. , #402 ) ;
#319 = DIRECTION ( 'NONE',  ( 1.000000000000000000, 0.000000000000000000, 0.000000000000000000 ) ) ;
#320 = DIRECTION ( 'NONE',  ( -1.000000000000000000, 0.000000000000000000, 0.000000000000000000 ) ) ;
#321 = FACE_BOUND ( 'NONE', #391, .T. ) ;
#322 = ADVANCED_FACE ( 'NONE', ( #425 ), #175, .T. ) ;
#323 = FACE_OUTER_BOUND ( 'NONE', #507, .T. ) ;
#324 = LINE ( 'NONE', #42, #362 ) ;
#325 = CARTESIAN_POINT ( 'NONE',  ( -16.99999999999996092, 6.500000000000000888, 1.734723475976807094E-15 ) ) ;
#326 = AXIS2_PLACEMENT_3D ( 'NONE', #422, #141, #53 ) ;
#327 = LINE ( 'NONE', #168, #334 ) ;
#328 = CARTESIAN_POINT ( 'NONE',  ( 19.99999999999998934, 16.00000000000000000, -5.000000000000000000 ) ) ;
#329 = AXIS2_PLACEMENT_3D ( 'NONE', #395, #390, #343 ) ;
#330 = EDGE_LOOP ( 'NONE', ( #226 ) ) ;
#331 = DIRECTION ( 'NONE',  ( 1.661005393010403502E-30, -1.000000000000000000, -4.493435458810130738E-63 ) ) ;
#332 = FILL_AREA_STYLE_COLOUR ( '', #70 ) ;
#333 =( LENGTH_UNIT ( ) NAMED_UNIT ( * ) SI_UNIT ( .MILLI., .METRE. ) );
#334 = VECTOR ( 'NONE', #409, 1000.000000000000000 ) ;
#335 = SURFACE_STYLE_FILL_AREA ( #496 ) ;
#336 = LINE ( 'NONE', #328, #174 ) ;
#337 = AXIS2_PLACEMENT_3D ( 'NONE', #277, #478, #158 ) ;
#338 = ORIENTED_EDGE ( 'NONE', *, *, #508, .T. ) ;
#339 = CARTESIAN_POINT ( 'NONE',  ( -24.99999999999999289, -11.00000000000000000, -5.000000000000000000 ) ) ;
#340 = ADVANCED_FACE ( 'NONE', ( #504 ), #307, .T. ) ;
#341 = ADVANCED_FACE ( 'NONE', ( #418, #467 ), #261, .F. ) ;
#342 = EDGE_LOOP ( 'NONE', ( #353, #11, #206, #498 ) ) ;
#343 = DIRECTION ( 'NONE',  ( 1.000000000000000000, 0.000000000000000000, 0.000000000000000000 ) ) ;
#344 = VERTEX_POINT ( 'NONE', #520 ) ;
#345 = MECHANICAL_DESIGN_GEOMETRIC_PRESENTATION_REPRESENTATION (  '', ( #62 ), #500 ) ;
#346 = DIRECTION ( 'NONE',  ( -6.183429423743666432E-33, 4.493435458810130738E-63, 1.000000000000000000 ) ) ;
#347 = ORIENTED_EDGE ( 'NONE', *, *, #508, .F. ) ;
#348 = PRESENTATION_LAYER_ASSIGNMENT (  '', '', ( #442 ) ) ;
#349 = CARTESIAN_POINT ( 'NONE',  ( 16.99999999999996092, -6.500000000000005329, 0.000000000000000000 ) ) ;
#350 = VERTEX_POINT ( 'NONE', #360 ) ;
#351 = UNCERTAINTY_MEASURE_WITH_UNIT (LENGTH_MEASURE( 1.000000000000000082E-05 ), #333, 'distance_accuracy_value', 'NONE');
#352 = DIRECTION ( 'NONE',  ( 1.000000000000000000, -1.661005393010403502E-30, -6.183429423743666432E-33 ) ) ;
#353 = ORIENTED_EDGE ( 'NONE', *, *, #281, .F. ) ;
#354 = CARTESIAN_POINT ( 'NONE',  ( 24.99999999999999289, 11.00000000000000000, 0.000000000000000000 ) ) ;
#355 = CIRCLE ( 'NONE', #116, 5.000000000000000888 ) ;
#356 = DIRECTION ( 'NONE',  ( -6.183429423743666432E-33, 4.493435458810130738E-63, 1.000000000000000000 ) ) ;
#357 = CARTESIAN_POINT ( 'NONE',  ( -20.00000000000001776, -16.00000000000000000, 0.000000000000000000 ) ) ;
#358 = ADVANCED_FACE ( 'NONE', ( #403 ), #524, .T. ) ;
#359 = CYLINDRICAL_SURFACE ( 'NONE', #196, 5.000000000000000888 ) ;
#360 = CARTESIAN_POINT ( 'NONE',  ( 24.99999999999999289, -11.00000000000000000, -5.000000000000000000 ) ) ;
#361 = CARTESIAN_POINT ( 'NONE',  ( 16.99999999999996092, 6.500000000000000888, 0.000000000000000000 ) ) ;
#362 = VECTOR ( 'NONE', #526, 1000.000000000000000 ) ;
#363 = EDGE_CURVE ( 'NONE', #247, #247, #311, .T. ) ;
#364 =( NAMED_UNIT ( * ) PLANE_ANGLE_UNIT ( ) SI_UNIT ( $, .RADIAN. ) );
#365 = CYLINDRICAL_SURFACE ( 'NONE', #150, 1.249999999999994227 ) ;
#366 = FACE_BOUND ( 'NONE', #89, .T. ) ;
#367 = DIRECTION ( 'NONE',  ( -6.183429423743666432E-33, 4.493435458810130738E-63, 1.000000000000000000 ) ) ;
#368 = COLOUR_RGB ( '',0.7921568627450980005, 0.8196078431372548767, 0.9333333333333333481 ) ;
#369 = VERTEX_POINT ( 'NONE', #357 ) ;
#370 = CLOSED_SHELL ( 'NONE', ( #91, #64, #528, #203, #471, #450, #341, #267, #36, #162, #358, #417, #322, #340 ) ) ;
#371 = DIRECTION ( 'NONE',  ( -1.000000000000000000, 1.661005393010403502E-30, -6.183429423743666432E-33 ) ) ;
#372 = SURFACE_STYLE_FILL_AREA ( #491 ) ;
#373 = CIRCLE ( 'NONE', #326, 5.000000000000000888 ) ;
#374 = DIRECTION ( 'NONE',  ( 1.000000000000000000, 0.000000000000000000, 0.000000000000000000 ) ) ;
#375 = PRESENTATION_LAYER_ASSIGNMENT (  '', '', ( #67 ) ) ;
#376 = PLANE ( 'NONE',  #123 ) ;
#377 = CARTESIAN_POINT ( 'NONE',  ( 19.99999999999998934, -16.00000000000000000, -5.000000000000000000 ) ) ;
#378 = PRODUCT_DEFINITION_SHAPE ( 'NONE', 'NONE',  #239 ) ;
#379 = PRESENTATION_LAYER_ASSIGNMENT (  '', '', ( #211 ) ) ;
#380 = PRESENTATION_STYLE_ASSIGNMENT (( #15 ) ) ;
#381 = ORIENTED_EDGE ( 'NONE', *, *, #171, .T. ) ;
#382 = AXIS2_PLACEMENT_3D ( 'NONE', #237, #314, #481 ) ;
#383 = EDGE_CURVE ( 'NONE', #452, #369, #214, .T. ) ;
#384 = DIRECTION ( 'NONE',  ( -6.183429423743666432E-33, 4.493435458810130738E-63, 1.000000000000000000 ) ) ;
#385 = AXIS2_PLACEMENT_3D ( 'NONE', #166, #169, #293 ) ;
#386 = EDGE_LOOP ( 'NONE', ( #98, #389, #255, #466, #93, #308, #432, #263 ) ) ;
#387 = ORIENTED_EDGE ( 'NONE', *, *, #130, .T. ) ;
#388 = CARTESIAN_POINT ( 'NONE',  ( -24.99999999999999289, -11.00000000000000000, -5.000000000000000000 ) ) ;
#389 = ORIENTED_EDGE ( 'NONE', *, *, #396, .T. ) ;
#390 = DIRECTION ( 'NONE',  ( -6.183429423743666432E-33, 4.493435458810130738E-63, 1.000000000000000000 ) ) ;
#391 = EDGE_LOOP ( 'NONE', ( #7 ) ) ;
#392 = DIRECTION ( 'NONE',  ( 6.183429423743666432E-33, -4.493435458810130738E-63, -1.000000000000000000 ) ) ;
#393 = ORIENTED_EDGE ( 'NONE', *, *, #73, .F. ) ;
#394 = CARTESIAN_POINT ( 'NONE',  ( -24.99999999999999289, 11.00000000000000000, -5.000000000000000000 ) ) ;
#395 = CARTESIAN_POINT ( 'NONE',  ( 16.99999999999996092, 6.500000000000000888, -5.000000000000000000 ) ) ;
#396 = EDGE_CURVE ( 'NONE', #495, #178, #355, .T. ) ;
#397 = FACE_BOUND ( 'NONE', #72, .T. ) ;
#398 = SURFACE_STYLE_FILL_AREA ( #519 ) ;
#399 = AXIS2_PLACEMENT_3D ( 'NONE', #349, #136, #144 ) ;
#400 = AXIS2_PLACEMENT_3D ( 'NONE', #497, #129, #538 ) ;
#401 = FACE_BOUND ( 'NONE', #47, .T. ) ;
#402 = SURFACE_SIDE_STYLE ('',( #317 ) ) ;
#403 = FACE_OUTER_BOUND ( 'NONE', #220, .T. ) ;
#404 = DIRECTION ( 'NONE',  ( 1.000000000000000000, 0.000000000000000000, -6.183429423743656853E-33 ) ) ;
#405 = VECTOR ( 'NONE', #194, 1000.000000000000000 ) ;
#406 = CIRCLE ( 'NONE', #337, 1.249999999999997558 ) ;
#407 = VERTEX_POINT ( 'NONE', #74 ) ;
#408 = DIRECTION ( 'NONE',  ( -1.661005393010403502E-30, 1.000000000000000000, 4.493435458810130738E-63 ) ) ;
#409 = DIRECTION ( 'NONE',  ( 6.183429423743666432E-33, -4.493435458810130738E-63, -1.000000000000000000 ) ) ;
#410 = LINE ( 'NONE', #45, #510 ) ;
#411 = ORIENTED_EDGE ( 'NONE', *, *, #459, .F. ) ;
#412 = EDGE_LOOP ( 'NONE', ( #492 ) ) ;
#413 = EDGE_LOOP ( 'NONE', ( #167, #101, #137, #176 ) ) ;
#414 = CARTESIAN_POINT ( 'NONE',  ( -24.99999999999999289, 16.00000000000000000, -5.000000000000000000 ) ) ;
#415 = DIRECTION ( 'NONE',  ( 6.183429423743666432E-33, -4.493435458810130738E-63, -1.000000000000000000 ) ) ;
#416 = VERTEX_POINT ( 'NONE', #354 ) ;
#417 = ADVANCED_FACE ( 'NONE', ( #235 ), #359, .T. ) ;
#418 = FACE_OUTER_BOUND ( 'NONE', #145, .T. ) ;
#419 = STYLED_ITEM ( 'NONE', ( #315 ), #84 ) ;
#420 = ORIENTED_EDGE ( 'NONE', *, *, #51, .T. ) ;
#421 = SURFACE_SIDE_STYLE ('',( #335 ) ) ;
#422 = CARTESIAN_POINT ( 'NONE',  ( 19.99999999999998934, 11.00000000000000000, 0.000000000000000000 ) ) ;
#423 = VERTEX_POINT ( 'NONE', #104 ) ;
#424 = PRODUCT_DEFINITION_FORMATION_WITH_SPECIFIED_SOURCE ( 'ANY', '', #154, .NOT_KNOWN. ) ;
#425 = FACE_OUTER_BOUND ( 'NONE', #77, .T. ) ;
#426 = VERTEX_POINT ( 'NONE', #269 ) ;
#427 = UNCERTAINTY_MEASURE_WITH_UNIT (LENGTH_MEASURE( 1.000000000000000082E-05 ), #155, 'distance_accuracy_value', 'NONE');
#428 = CIRCLE ( 'NONE', #33, 1.249999999999987121 ) ;
#429 = CARTESIAN_POINT ( 'NONE',  ( 24.99999999999999289, -11.00000000000000000, -5.000000000000000000 ) ) ;
#430 = ORIENTED_EDGE ( 'NONE', *, *, #188, .F. ) ;
#431 = CARTESIAN_POINT ( 'NONE',  ( -20.00000000000001776, 11.00000000000000000, 0.000000000000000000 ) ) ;
#432 = ORIENTED_EDGE ( 'NONE', *, *, #185, .T. ) ;
#433 = EDGE_CURVE ( 'NONE', #502, #49, #499, .T. ) ;
#434 = EDGE_CURVE ( 'NONE', #49, #344, #228, .T. ) ;
#435 = MECHANICAL_DESIGN_GEOMETRIC_PRESENTATION_REPRESENTATION (  '', ( #133 ), #516 ) ;
#436 = FACE_BOUND ( 'NONE', #412, .T. ) ;
#437 = CIRCLE ( 'NONE', #302, 1.249999999999987121 ) ;
#438 = DIRECTION ( 'NONE',  ( -6.183429423743666432E-33, 1.604798378146475140E-62, -1.000000000000000000 ) ) ;
#439 = CARTESIAN_POINT ( 'NONE',  ( -24.99999999999999289, -16.00000000000000000, -5.000000000000000000 ) ) ;
#440 = CIRCLE ( 'NONE', #400, 5.000000000000000888 ) ;
#441 = CARTESIAN_POINT ( 'NONE',  ( 16.99999999999996092, 6.500000000000000888, 1.734723475976807094E-15 ) ) ;
#442 = STYLED_ITEM ( 'NONE', ( #501 ), #162 ) ;
#443 = LINE ( 'NONE', #236, #75 ) ;
#444 = FILL_AREA_STYLE ('',( #55 ) ) ;
#445 = CARTESIAN_POINT ( 'NONE',  ( 19.99999999999998934, -11.00000000000000000, -5.000000000000000000 ) ) ;
#446 = LINE ( 'NONE', #377, #518 ) ;
#447 = CIRCLE ( 'NONE', #287, 1.249999999999987121 ) ;
#448 = CARTESIAN_POINT ( 'NONE',  ( -24.99999999999999289, -16.00000000000000000, -5.000000000000000000 ) ) ;
#449 = EDGE_LOOP ( 'NONE', ( #411 ) ) ;
#450 = ADVANCED_FACE ( 'NONE', ( #401, #23, #436, #397, #479 ), #109, .F. ) ;
#451 = LINE ( 'NONE', #414, #292 ) ;
#452 = VERTEX_POINT ( 'NONE', #234 ) ;
#453 = DIRECTION ( 'NONE',  ( -6.183429423743666432E-33, 1.604798378146475140E-62, -1.000000000000000000 ) ) ;
#454 = CARTESIAN_POINT ( 'NONE',  ( 24.99999999999999289, -16.00000000000000000, -5.000000000000000000 ) ) ;
#455 = VERTEX_POINT ( 'NONE', #522 ) ;
#456 = APPLICATION_CONTEXT ( 'automotive_design' ) ;
#457 = DIRECTION ( 'NONE',  ( 1.000000000000000000, 0.000000000000000000, 0.000000000000000000 ) ) ;
#458 = CARTESIAN_POINT ( 'NONE',  ( -24.99999999999999289, -16.00000000000000000, -5.000000000000000000 ) ) ;
#459 = EDGE_CURVE ( 'NONE', #250, #250, #428, .T. ) ;
#460 = FILL_AREA_STYLE_COLOUR ( '', #164 ) ;
#461 = CARTESIAN_POINT ( 'NONE',  ( 0.000000000000000000, 0.000000000000000000, 0.000000000000000000 ) ) ;
#462 = DIRECTION ( 'NONE',  ( -6.183429423743666432E-33, 4.493435458810130738E-63, 1.000000000000000000 ) ) ;
#463 = EDGE_LOOP ( 'NONE', ( #131 ) ) ;
#464 = CIRCLE ( 'NONE', #535, 5.000000000000000888 ) ;
#465 = CARTESIAN_POINT ( 'NONE',  ( -20.00000000000001776, 11.00000000000000000, -5.000000000000000000 ) ) ;
#466 = ORIENTED_EDGE ( 'NONE', *, *, #285, .T. ) ;
#467 = FACE_OUTER_BOUND ( 'NONE', #515, .T. ) ;
#468 = ORIENTED_EDGE ( 'NONE', *, *, #153, .F. ) ;
#469 = DIRECTION ( 'NONE',  ( -6.183429423743666432E-33, 4.493435458810130738E-63, 1.000000000000000000 ) ) ;
#470 = ORIENTED_EDGE ( 'NONE', *, *, #488, .T. ) ;
#471 = ADVANCED_FACE ( 'NONE', ( #484, #537, #366, #321, #119 ), #289, .T. ) ;
#472 = AXIS2_PLACEMENT_3D ( 'NONE', #445, #81, #532 ) ;
#473 = CARTESIAN_POINT ( 'NONE',  ( -16.99999999999996092, 6.500000000000000888, -5.000000000000000000 ) ) ;
#474 = COLOUR_RGB ( '',0.5294117647058823595, 0.5490196078431373028, 0.5490196078431373028 ) ;
#475 = ORIENTED_EDGE ( 'NONE', *, *, #8, .F. ) ;
#476 = UNCERTAINTY_MEASURE_WITH_UNIT (LENGTH_MEASURE( 1.000000000000000082E-05 ), #139, 'distance_accuracy_value', 'NONE');
#477 =( NAMED_UNIT ( * ) SI_UNIT ( $, .STERADIAN. ) SOLID_ANGLE_UNIT ( ) );
#478 = DIRECTION ( 'NONE',  ( -6.183429423743666432E-33, 4.493435458810130738E-63, 1.000000000000000000 ) ) ;
#479 = FACE_OUTER_BOUND ( 'NONE', #386, .T. ) ;
#480 = CARTESIAN_POINT ( 'NONE',  ( -24.99999999999999289, -16.00000000000000000, -5.000000000000000000 ) ) ;
#481 = DIRECTION ( 'NONE',  ( 1.000000000000000000, 0.000000000000000000, 0.000000000000000000 ) ) ;
#482 = DIRECTION ( 'NONE',  ( -1.000000000000000000, 0.000000000000000000, 6.183429423743665064E-33 ) ) ;
#483 = SURFACE_SIDE_STYLE ('',( #398 ) ) ;
#484 = FACE_BOUND ( 'NONE', #14, .T. ) ;
#485 = FACE_OUTER_BOUND ( 'NONE', #83, .T. ) ;
#486 =( NAMED_UNIT ( * ) PLANE_ANGLE_UNIT ( ) SI_UNIT ( $, .RADIAN. ) );
#487 = DIRECTION ( 'NONE',  ( -6.183429423743666432E-33, 4.493435458810130738E-63, 1.000000000000000000 ) ) ;
#488 = EDGE_CURVE ( 'NONE', #369, #294, #327, .T. ) ;
#489 = AXIS2_PLACEMENT_3D ( 'NONE', #514, #222, #88 ) ;
#490 = CARTESIAN_POINT ( 'NONE',  ( 18.24999999999994671, -6.500000000000005329, 1.734723475976807094E-15 ) ) ;
#491 = FILL_AREA_STYLE ('',( #79 ) ) ;
#492 = ORIENTED_EDGE ( 'NONE', *, *, #227, .F. ) ;
#493 = VERTEX_POINT ( 'NONE', #37 ) ;
#494 = LINE ( 'NONE', #454, #46 ) ;
#495 = VERTEX_POINT ( 'NONE', #207 ) ;
#496 = FILL_AREA_STYLE ('',( #332 ) ) ;
#497 = CARTESIAN_POINT ( 'NONE',  ( -20.00000000000001776, -11.00000000000000000, -5.000000000000000000 ) ) ;
#498 = ORIENTED_EDGE ( 'NONE', *, *, #243, .F. ) ;
#499 = CIRCLE ( 'NONE', #173, 5.000000000000000888 ) ;
#500 =( GEOMETRIC_REPRESENTATION_CONTEXT ( 3 ) GLOBAL_UNCERTAINTY_ASSIGNED_CONTEXT ( ( #427 ) ) GLOBAL_UNIT_ASSIGNED_CONTEXT ( ( #155, #238, #275 ) ) REPRESENTATION_CONTEXT ( 'NONE', 'WORKASPACE' ) );
#501 = PRESENTATION_STYLE_ASSIGNMENT (( #48 ) ) ;
#502 = VERTEX_POINT ( 'NONE', #117 ) ;
#503 = PRODUCT_CONTEXT ( 'NONE', #456, 'mechanical' ) ;
#504 = FACE_OUTER_BOUND ( 'NONE', #342, .T. ) ;
#505 = EDGE_LOOP ( 'NONE', ( #301, #180, #534, #105 ) ) ;
#506 = COLOUR_RGB ( '',0.7921568627450980005, 0.8196078431372548767, 0.9333333333333333481 ) ;
#507 = EDGE_LOOP ( 'NONE', ( #270, #58, #249, #297 ) ) ;
#508 = EDGE_CURVE ( 'NONE', #350, #41, #102, .T. ) ;
#509 = ORIENTED_EDGE ( 'NONE', *, *, #396, .F. ) ;
#510 = VECTOR ( 'NONE', #331, 1000.000000000000000 ) ;
#511 = SURFACE_STYLE_FILL_AREA ( #259 ) ;
#512 = EDGE_LOOP ( 'NONE', ( #170 ) ) ;
#513 = EDGE_CURVE ( 'NONE', #183, #502, #324, .T. ) ;
#514 = CARTESIAN_POINT ( 'NONE',  ( 16.99999999999996092, -6.500000000000005329, 1.734723475976807094E-15 ) ) ;
#515 = EDGE_LOOP ( 'NONE', ( #163 ) ) ;
#516 =( GEOMETRIC_REPRESENTATION_CONTEXT ( 3 ) GLOBAL_UNCERTAINTY_ASSIGNED_CONTEXT ( ( #19 ) ) GLOBAL_UNIT_ASSIGNED_CONTEXT ( ( #68, #364, #477 ) ) REPRESENTATION_CONTEXT ( 'NONE', 'WORKASPACE' ) );
#517 = CARTESIAN_POINT ( 'NONE',  ( -20.00000000000001776, -11.00000000000000000, 0.000000000000000000 ) ) ;
#518 = VECTOR ( 'NONE', #120, 1000.000000000000000 ) ;
#519 = FILL_AREA_STYLE ('',( #157 ) ) ;
#520 = CARTESIAN_POINT ( 'NONE',  ( -24.99999999999999289, 11.00000000000000000, -5.000000000000000000 ) ) ;
#521 = AXIS2_PLACEMENT_3D ( 'NONE', #461, #87, #181 ) ;
#522 = CARTESIAN_POINT ( 'NONE',  ( 19.99999999999998934, 16.00000000000000000, -5.000000000000000000 ) ) ;
#523 = FILL_AREA_STYLE_COLOUR ( '', #474 ) ;
#524 = CYLINDRICAL_SURFACE ( 'NONE', #382, 5.000000000000000888 ) ;
#525 = LINE ( 'NONE', #480, #135 ) ;
#526 = DIRECTION ( 'NONE',  ( -1.000000000000000000, 1.661005393010403502E-30, 6.183429423743666432E-33 ) ) ;
#527 = VERTEX_POINT ( 'NONE', #122 ) ;
#528 = ADVANCED_FACE ( 'NONE', ( #165 ), #376, .T. ) ;
#529 = EDGE_CURVE ( 'NONE', #455, #423, #451, .T. ) ;
#530 = ORIENTED_EDGE ( 'NONE', *, *, #281, .T. ) ;
#531 = AXIS2_PLACEMENT_3D ( 'NONE', #280, #29, #320 ) ;
#532 = DIRECTION ( 'NONE',  ( -1.000000000000000000, 0.000000000000000000, 0.000000000000000000 ) ) ;
#533 = DIRECTION ( 'NONE',  ( 1.000000000000000000, -1.661005393010403502E-30, -6.183429423743666432E-33 ) ) ;
#534 = ORIENTED_EDGE ( 'NONE', *, *, #529, .T. ) ;
#535 = AXIS2_PLACEMENT_3D ( 'NONE', #465, #6, #264 ) ;
#536 = AXIS2_PLACEMENT_3D ( 'NONE', #212, #487, #124 ) ;
#537 = FACE_BOUND ( 'NONE', #291, .T. ) ;
#538 = DIRECTION ( 'NONE',  ( -1.000000000000000000, 0.000000000000000000, 0.000000000000000000 ) ) ;
ENDSEC;
END-ISO-10303-21;
