ISO-10303-21;
HEADER;
FILE_DESCRIPTION (( 'STEP AP214' ),
    '1' );
FILE_NAME ('202400491_03_Anschlag 3D Scanner_V1.0.STEP',
    '2024-12-02T16:25:37',
    ( '' ),
    ( '' ),
    'SwSTEP 2.0',
    'SolidWorks 2021',
    '' );
FILE_SCHEMA (( 'AUTOMOTIVE_DESIGN' ));
ENDSEC;

DATA;
#1 = FILL_AREA_STYLE_COLOUR ( '', #423 ) ;
#2 = ORIENTED_EDGE ( 'NONE', *, *, #410, .T. ) ;
#3 = PRESENTATION_STYLE_ASSIGNMENT (( #400 ) ) ;
#4 = ORIENTED_EDGE ( 'NONE', *, *, #501, .F. ) ;
#5 = DIRECTION ( 'NONE',  ( -0.000000000000000000, -1.000000000000000000, -0.000000000000000000 ) ) ;
#6 = AXIS2_PLACEMENT_3D ( 'NONE', #98, #643, #495 ) ;
#7 = DIRECTION ( 'NONE',  ( 0.000000000000000000, 0.000000000000000000, 1.000000000000000000 ) ) ;
#8 = CARTESIAN_POINT ( 'NONE',  ( -17.50000000000000000, 18.00000000000000355, -5.000000000000000000 ) ) ;
#9 = ORIENTED_EDGE ( 'NONE', *, *, #509, .F. ) ;
#10 = CARTESIAN_POINT ( 'NONE',  ( 27.50000000000000000, 2.939152317953647106E-16, -3.000000000000000000 ) ) ;
#11 = CARTESIAN_POINT ( 'NONE',  ( 17.50000000000000000, 0.000000000000000000, -5.000000000000000000 ) ) ;
#12 = EDGE_CURVE ( 'NONE', #370, #399, #465, .T. ) ;
#13 = VERTEX_POINT ( 'NONE', #565 ) ;
#14 = AXIS2_PLACEMENT_3D ( 'NONE', #8, #58, #120 ) ;
#15 = AXIS2_PLACEMENT_3D ( 'NONE', #631, #486, #385 ) ;
#16 = CARTESIAN_POINT ( 'NONE',  ( -27.50000000000000000, 0.000000000000000000, 0.000000000000000000 ) ) ;
#17 = LINE ( 'NONE', #285, #420 ) ;
#18 =( NAMED_UNIT ( * ) PLANE_ANGLE_UNIT ( ) SI_UNIT ( $, .RADIAN. ) );
#19 = CARTESIAN_POINT ( 'NONE',  ( -17.50000000000000000, 18.00000000000000355, -2.900000000000004352 ) ) ;
#20 = DIRECTION ( 'NONE',  ( 0.000000000000000000, -0.000000000000000000, -1.000000000000000000 ) ) ;
#21 = EDGE_CURVE ( 'NONE', #408, #544, #510, .T. ) ;
#22 = CARTESIAN_POINT ( 'NONE',  ( -24.50000000000000355, 50.00000000000000000, -2.999999999999995559 ) ) ;
#23 = DIRECTION ( 'NONE',  ( 0.000000000000000000, 9.797174393178824918E-17, -1.000000000000000000 ) ) ;
#24 = ORIENTED_EDGE ( 'NONE', *, *, #288, .F. ) ;
#25 = PRODUCT_RELATED_PRODUCT_CATEGORY ( 'part', '', ( #567 ) ) ;
#26 = DIRECTION ( 'NONE',  ( -0.000000000000000000, -1.000000000000000000, -0.000000000000000000 ) ) ;
#27 =( GEOMETRIC_REPRESENTATION_CONTEXT ( 3 ) GLOBAL_UNCERTAINTY_ASSIGNED_CONTEXT ( ( #441 ) ) GLOBAL_UNIT_ASSIGNED_CONTEXT ( ( #601, #18, #220 ) ) REPRESENTATION_CONTEXT ( 'NONE', 'WORKASPACE' ) );
#28 = DIRECTION ( 'NONE',  ( 0.000000000000000000, 0.000000000000000000, 1.000000000000000000 ) ) ;
#29 = ORIENTED_EDGE ( 'NONE', *, *, #388, .F. ) ;
#30 = CARTESIAN_POINT ( 'NONE',  ( -17.50000000000000000, 2.081899558550502745E-16, -7.099999999999999645 ) ) ;
#31 = DIRECTION ( 'NONE',  ( -1.000000000000000000, 0.000000000000000000, 0.000000000000000000 ) ) ;
#32 = ORIENTED_EDGE ( 'NONE', *, *, #317, .T. ) ;
#33 = DIRECTION ( 'NONE',  ( 0.000000000000000000, 9.797174393178824918E-17, -1.000000000000000000 ) ) ;
#34 = EDGE_CURVE ( 'NONE', #399, #156, #561, .T. ) ;
#35 = CARTESIAN_POINT ( 'NONE',  ( 27.50000000000000000, 38.80384757729348166, 3.801680618410737713E-15 ) ) ;
#36 = AXIS2_PLACEMENT_3D ( 'NONE', #619, #526, #218 ) ;
#37 = PRESENTATION_LAYER_ASSIGNMENT (  '', '', ( #46 ) ) ;
#38 = DIRECTION ( 'NONE',  ( 0.000000000000000000, 0.000000000000000000, -1.000000000000000000 ) ) ;
#39 = ORIENTED_EDGE ( 'NONE', *, *, #461, .F. ) ;
#40 =( NAMED_UNIT ( * ) SI_UNIT ( $, .STERADIAN. ) SOLID_ANGLE_UNIT ( ) );
#41 = ORIENTED_EDGE ( 'NONE', *, *, #144, .F. ) ;
#42 = ADVANCED_FACE ( 'NONE', ( #363 ), #560, .F. ) ;
#43 =( LENGTH_UNIT ( ) NAMED_UNIT ( * ) SI_UNIT ( .MILLI., .METRE. ) );
#44 = LINE ( 'NONE', #252, #542 ) ;
#45 = EDGE_LOOP ( 'NONE', ( #499, #32, #97, #283 ) ) ;
#46 = STYLED_ITEM ( 'NONE', ( #133 ), #257 ) ;
#47 = ORIENTED_EDGE ( 'NONE', *, *, #89, .F. ) ;
#48 = CARTESIAN_POINT ( 'NONE',  ( -17.50000000000000000, 18.00000000000000355, -5.000000000000000000 ) ) ;
#49 = FILL_AREA_STYLE ('',( #503 ) ) ;
#50 = EDGE_LOOP ( 'NONE', ( #286, #538, #95, #194 ) ) ;
#51 = APPLICATION_PROTOCOL_DEFINITION ( 'draft international standard', 'automotive_design', 1998, #259 ) ;
#52 = DIRECTION ( 'NONE',  ( 0.000000000000000000, 0.000000000000000000, 1.000000000000000000 ) ) ;
#53 = ORIENTED_EDGE ( 'NONE', *, *, #144, .T. ) ;
#54 = DIRECTION ( 'NONE',  ( 1.000000000000000000, 0.000000000000000000, 0.000000000000000000 ) ) ;
#55 =( GEOMETRIC_REPRESENTATION_CONTEXT ( 3 ) GLOBAL_UNCERTAINTY_ASSIGNED_CONTEXT ( ( #593 ) ) GLOBAL_UNIT_ASSIGNED_CONTEXT ( ( #376, #126, #482 ) ) REPRESENTATION_CONTEXT ( 'NONE', 'WORKASPACE' ) );
#56 = SURFACE_STYLE_USAGE ( .BOTH. , #118 ) ;
#57 = AXIS2_PLACEMENT_3D ( 'NONE', #453, #590, #310 ) ;
#58 = DIRECTION ( 'NONE',  ( -0.000000000000000000, -1.000000000000000000, -0.000000000000000000 ) ) ;
#59 = VERTEX_POINT ( 'NONE', #127 ) ;
#60 = EDGE_CURVE ( 'NONE', #306, #85, #235, .T. ) ;
#61 = LINE ( 'NONE', #71, #424 ) ;
#62 = FILL_AREA_STYLE_COLOUR ( '', #66 ) ;
#63 = DIRECTION ( 'NONE',  ( 0.000000000000000000, -1.000000000000000000, 0.000000000000000000 ) ) ;
#64 =( LENGTH_UNIT ( ) NAMED_UNIT ( * ) SI_UNIT ( .MILLI., .METRE. ) );
#65 = DIRECTION ( 'NONE',  ( -1.000000000000000000, -0.000000000000000000, -0.000000000000000000 ) ) ;
#66 = COLOUR_RGB ( '',0.7921568627450980005, 0.8196078431372548767, 0.9333333333333333481 ) ;
#67 = CARTESIAN_POINT ( 'NONE',  ( 27.50000000000000000, 47.00000000000000000, -9.999999999999994671 ) ) ;
#68 = ADVANCED_FACE ( 'NONE', ( #232 ), #428, .F. ) ;
#69 = FILL_AREA_STYLE ('',( #231 ) ) ;
#70 = CARTESIAN_POINT ( 'NONE',  ( -17.50000000000000000, 0.000000000000000000, -5.000000000000000000 ) ) ;
#71 = CARTESIAN_POINT ( 'NONE',  ( -27.50000000000000000, 47.00000000000000000, 0.000000000000000000 ) ) ;
#72 = LINE ( 'NONE', #19, #498 ) ;
#73 = CARTESIAN_POINT ( 'NONE',  ( 27.12079468642654234, 42.25785665064442753, -0.9254989418541647028 ) ) ;
#74 = CARTESIAN_POINT ( 'NONE',  ( 27.50000000000000000, 50.00000000000000000, -9.999999999999994671 ) ) ;
#75 = VECTOR ( 'NONE', #134, 1000.000000000000000 ) ;
#76 = EDGE_LOOP ( 'NONE', ( #263, #585, #589, #360 ) ) ;
#77 = VECTOR ( 'NONE', #256, 1000.000000000000000 ) ;
#78 = FACE_OUTER_BOUND ( 'NONE', #50, .T. ) ;
#79 = CARTESIAN_POINT ( 'NONE',  ( 17.50000000000000000, 2.081899558550502745E-16, -5.000000000000000000 ) ) ;
#80 = DIRECTION ( 'NONE',  ( 0.000000000000000000, -1.000000000000000000, 0.000000000000000000 ) ) ;
#81 = VERTEX_POINT ( 'NONE', #326 ) ;
#82 = EDGE_CURVE ( 'NONE', #277, #113, #17, .T. ) ;
#83 = CARTESIAN_POINT ( 'NONE',  ( 17.50000000000000000, 0.000000000000000000, -2.900000000000000799 ) ) ;
#84 = FACE_OUTER_BOUND ( 'NONE', #639, .T. ) ;
#85 = VERTEX_POINT ( 'NONE', #181 ) ;
#86 = FACE_OUTER_BOUND ( 'NONE', #159, .T. ) ;
#87 = ORIENTED_EDGE ( 'NONE', *, *, #461, .T. ) ;
#88 = VECTOR ( 'NONE', #226, 1000.000000000000000 ) ;
#89 = EDGE_CURVE ( 'NONE', #202, #254, #543, .T. ) ;
#90 = EDGE_LOOP ( 'NONE', ( #320, #39, #463, #47, #251 ) ) ;
#91 = CIRCLE ( 'NONE', #125, 2.099999999999999645 ) ;
#92 = FACE_OUTER_BOUND ( 'NONE', #442, .T. ) ;
#93 = DIRECTION ( 'NONE',  ( -0.000000000000000000, -1.000000000000000000, -0.000000000000000000 ) ) ;
#94 = UNCERTAINTY_MEASURE_WITH_UNIT (LENGTH_MEASURE( 1.000000000000000082E-05 ), #398, 'distance_accuracy_value', 'NONE');
#95 = ORIENTED_EDGE ( 'NONE', *, *, #197, .T. ) ;
#96 =( NAMED_UNIT ( * ) SI_UNIT ( $, .STERADIAN. ) SOLID_ANGLE_UNIT ( ) );
#97 = ORIENTED_EDGE ( 'NONE', *, *, #625, .T. ) ;
#98 = CARTESIAN_POINT ( 'NONE',  ( -24.50000000000000000, 47.00000000000000000, -9.999999999999994671 ) ) ;
#99 = CARTESIAN_POINT ( 'NONE',  ( -17.50000000000000000, 0.000000000000000000, -7.099999999999997868 ) ) ;
#100 = EDGE_LOOP ( 'NONE', ( #603, #154, #433, #138 ) ) ;
#101 =( NAMED_UNIT ( * ) SI_UNIT ( $, .STERADIAN. ) SOLID_ANGLE_UNIT ( ) );
#102 =( GEOMETRIC_REPRESENTATION_CONTEXT ( 3 ) GLOBAL_UNCERTAINTY_ASSIGNED_CONTEXT ( ( #242 ) ) GLOBAL_UNIT_ASSIGNED_CONTEXT ( ( #187, #443, #101 ) ) REPRESENTATION_CONTEXT ( 'NONE', 'WORKASPACE' ) );
#103 = ADVANCED_FACE ( 'NONE', ( #622 ), #584, .T. ) ;
#104 = CARTESIAN_POINT ( 'NONE',  ( 17.50000000000000000, 0.000000000000000000, -5.000000000000000000 ) ) ;
#105 = ORIENTED_EDGE ( 'NONE', *, *, #596, .F. ) ;
#106 = FACE_OUTER_BOUND ( 'NONE', #76, .T. ) ;
#107 = SURFACE_STYLE_FILL_AREA ( #214 ) ;
#108 = DIRECTION ( 'NONE',  ( -0.000000000000000000, 1.000000000000000000, 9.797174393178824918E-17 ) ) ;
#109 = VECTOR ( 'NONE', #517, 1000.000000000000000 ) ;
#110 = VECTOR ( 'NONE', #151, 1000.000000000000000 ) ;
#111 = ADVANCED_FACE ( 'NONE', ( #475 ), #533, .T. ) ;
#112 = VECTOR ( 'NONE', #108, 1000.000000000000000 ) ;
#113 = VERTEX_POINT ( 'NONE', #478 ) ;
#114 = DIRECTION ( 'NONE',  ( 0.000000000000000000, 0.000000000000000000, 1.000000000000000000 ) ) ;
#115 = CARTESIAN_POINT ( 'NONE',  ( 17.50000000000000000, 0.000000000000000000, -7.099999999999999645 ) ) ;
#116 = DIRECTION ( 'NONE',  ( 0.000000000000000000, 0.000000000000000000, -1.000000000000000000 ) ) ;
#117 = CARTESIAN_POINT ( 'NONE',  ( 27.43224763813585554, 47.63397459621556607, -2.366025403784429937 ) ) ;
#118 = SURFACE_SIDE_STYLE ('',( #107 ) ) ;
#119 = EDGE_CURVE ( 'NONE', #411, #550, #628, .T. ) ;
#120 = DIRECTION ( 'NONE',  ( 0.000000000000000000, 0.000000000000000000, -1.000000000000000000 ) ) ;
#121 = CARTESIAN_POINT ( 'NONE',  ( 27.47733030794671549, 47.42545906126691335, -2.574540938733082651 ) ) ;
#122 = DIRECTION ( 'NONE',  ( -0.000000000000000000, -1.000000000000000000, -0.000000000000000000 ) ) ;
#123 = PRESENTATION_LAYER_ASSIGNMENT (  '', '', ( #582 ) ) ;
#124 = EDGE_LOOP ( 'NONE', ( #554, #587 ) ) ;
#125 = AXIS2_PLACEMENT_3D ( 'NONE', #230, #586, #429 ) ;
#126 =( NAMED_UNIT ( * ) PLANE_ANGLE_UNIT ( ) SI_UNIT ( $, .RADIAN. ) );
#127 = CARTESIAN_POINT ( 'NONE',  ( 24.50000000000000000, 50.00000000000000000, -9.999999999999994671 ) ) ;
#128 = CARTESIAN_POINT ( 'NONE',  ( -27.43224763813585909, 47.63397459621555896, -2.366025403784426384 ) ) ;
#129 = SURFACE_STYLE_FILL_AREA ( #578 ) ;
#130 = DIRECTION ( 'NONE',  ( 0.000000000000000000, 0.000000000000000000, -1.000000000000000000 ) ) ;
#131 = VERTEX_POINT ( 'NONE', #174 ) ;
#132 = CARTESIAN_POINT ( 'NONE',  ( 24.50000000000000000, 2.939152317953647106E-16, -3.000000000000000000 ) ) ;
#133 = PRESENTATION_STYLE_ASSIGNMENT (( #164 ) ) ;
#134 = DIRECTION ( 'NONE',  ( 0.000000000000000000, -0.5150380749100560429, -0.8571673007021112234 ) ) ;
#135 = ADVANCED_FACE ( 'NONE', ( #170, #329, #84 ), #487, .T. ) ;
#136 =( BOUNDED_CURVE ( )  B_SPLINE_CURVE ( 3, ( #183, #234, #140, #128 ),
 .UNSPECIFIED., .F., .T. ) 
 B_SPLINE_CURVE_WITH_KNOTS ( ( 4, 4 ),
 ( 1.156482317317870542E-15, 1.357866087508641018 ),
 .UNSPECIFIED. ) 
 CURVE ( )  GEOMETRIC_REPRESENTATION_ITEM ( )  RATIONAL_B_SPLINE_CURVE ( ( 1.000000000000000000, 0.8521621137834688442, 0.8521621137834688442, 1.000000000000000000 ) ) 
 REPRESENTATION_ITEM ( '' )  );
#137 = AXIS2_PLACEMENT_3D ( 'NONE', #79, #293, #422 ) ;
#138 = ORIENTED_EDGE ( 'NONE', *, *, #34, .T. ) ;
#139 = VECTOR ( 'NONE', #54, 1000.000000000000000 ) ;
#140 = CARTESIAN_POINT ( 'NONE',  ( -27.12079468642654589, 49.07450105814582031, -2.752013305934308818 ) ) ;
#141 = CARTESIAN_POINT ( 'NONE',  ( -24.50000000000000355, -2.939152317953647106E-16, 0.000000000000000000 ) ) ;
#142 = EDGE_LOOP ( 'NONE', ( #165, #41, #402, #641, #630 ) ) ;
#143 = DIRECTION ( 'NONE',  ( -1.000000000000000000, 0.000000000000000000, 0.000000000000000000 ) ) ;
#144 = EDGE_CURVE ( 'NONE', #412, #81, #471, .T. ) ;
#145 = ORIENTED_EDGE ( 'NONE', *, *, #82, .F. ) ;
#146 = DIRECTION ( 'NONE',  ( 1.000000000000000000, 0.000000000000000000, 0.000000000000000000 ) ) ;
#147 = FILL_AREA_STYLE ('',( #1 ) ) ;
#148 = ORIENTED_EDGE ( 'NONE', *, *, #89, .T. ) ;
#149 = DIRECTION ( 'NONE',  ( 0.000000000000000000, 0.000000000000000000, -1.000000000000000000 ) ) ;
#150 = ORIENTED_EDGE ( 'NONE', *, *, #388, .T. ) ;
#151 = DIRECTION ( 'NONE',  ( -0.000000000000000000, 1.000000000000000000, 9.797174393178824918E-17 ) ) ;
#152 = ORIENTED_EDGE ( 'NONE', *, *, #153, .F. ) ;
#153 = EDGE_CURVE ( 'NONE', #575, #411, #600, .T. ) ;
#154 = ORIENTED_EDGE ( 'NONE', *, *, #485, .T. ) ;
#155 = LINE ( 'NONE', #508, #139 ) ;
#156 = VERTEX_POINT ( 'NONE', #572 ) ;
#157 = CARTESIAN_POINT ( 'NONE',  ( 17.50000000000000000, 18.00000000000000355, -7.099999999999997868 ) ) ;
#158 = ADVANCED_FACE ( 'NONE', ( #322 ), #466, .F. ) ;
#159 = EDGE_LOOP ( 'NONE', ( #148, #245, #24, #211, #460, #377 ) ) ;
#160 = LINE ( 'NONE', #10, #250 ) ;
#161 = CLOSED_SHELL ( 'NONE', ( #42, #308, #367, #206, #68, #135, #642, #551, #276, #455, #569, #404, #257, #158, #247, #559, #415, #111, #103 ) ) ;
#162 = ORIENTED_EDGE ( 'NONE', *, *, #577, .T. ) ;
#163 = CARTESIAN_POINT ( 'NONE',  ( 24.50000000000000000, 47.00000000000000000, 4.898587196589412237E-15 ) ) ;
#164 = SURFACE_STYLE_USAGE ( .BOTH. , #383 ) ;
#165 = ORIENTED_EDGE ( 'NONE', *, *, #217, .T. ) ;
#166 = DIRECTION ( 'NONE',  ( -0.000000000000000000, -1.000000000000000000, -0.000000000000000000 ) ) ;
#167 = CYLINDRICAL_SURFACE ( 'NONE', #613, 2.099999999999997868 ) ;
#168 = CARTESIAN_POINT ( 'NONE',  ( -17.50000000000000000, 18.00000000000000355, -7.099999999999996092 ) ) ;
#169 = DIRECTION ( 'NONE',  ( -0.000000000000000000, -1.000000000000000000, -0.000000000000000000 ) ) ;
#170 = FACE_BOUND ( 'NONE', #438, .T. ) ;
#171 = VECTOR ( 'NONE', #253, 1000.000000000000000 ) ;
#172 = DIRECTION ( 'NONE',  ( 0.000000000000000000, 0.000000000000000000, -1.000000000000000000 ) ) ;
#173 = CARTESIAN_POINT ( 'NONE',  ( 24.50000000000000355, 38.80384757729348166, 3.801680618410737713E-15 ) ) ;
#174 = CARTESIAN_POINT ( 'NONE',  ( 27.50000000000000000, 0.000000000000000000, -3.000000000000000000 ) ) ;
#175 = CYLINDRICAL_SURFACE ( 'NONE', #314, 3.000000000000000000 ) ;
#176 = EDGE_CURVE ( 'NONE', #113, #408, #246, .T. ) ;
#177 = SURFACE_STYLE_USAGE ( .BOTH. , #571 ) ;
#178 = CARTESIAN_POINT ( 'NONE',  ( -27.12079468642654234, 42.25785665064442043, -0.9254989418541619273 ) ) ;
#179 = ORIENTED_EDGE ( 'NONE', *, *, #297, .F. ) ;
#180 = DIRECTION ( 'NONE',  ( 0.000000000000000000, -1.000000000000000000, -9.797174393178824918E-17 ) ) ;
#181 = CARTESIAN_POINT ( 'NONE',  ( -17.50000000000000000, 18.00000000000000355, -7.099999999999996092 ) ) ;
#182 = ORIENTED_EDGE ( 'NONE', *, *, #12, .T. ) ;
#183 = CARTESIAN_POINT ( 'NONE',  ( -24.50000000000000355, 50.00000000000000000, -2.999999999999995559 ) ) ;
#184 = AXIS2_PLACEMENT_3D ( 'NONE', #621, #169, #524 ) ;
#185 = VERTEX_POINT ( 'NONE', #198 ) ;
#186 = EDGE_CURVE ( 'NONE', #85, #608, #552, .T. ) ;
#187 =( LENGTH_UNIT ( ) NAMED_UNIT ( * ) SI_UNIT ( .MILLI., .METRE. ) );
#188 = ORIENTED_EDGE ( 'NONE', *, *, #229, .T. ) ;
#189 = CYLINDRICAL_SURFACE ( 'NONE', #397, 2.099999999999999645 ) ;
#190 = MANIFOLD_SOLID_BREP ( 'Verrundung2', #161 ) ;
#191 = ORIENTED_EDGE ( 'NONE', *, *, #485, .F. ) ;
#192 = DIRECTION ( 'NONE',  ( -1.000000000000000000, 0.000000000000000000, 0.000000000000000000 ) ) ;
#193 = AXIS2_PLACEMENT_3D ( 'NONE', #35, #540, #382 ) ;
#194 = ORIENTED_EDGE ( 'NONE', *, *, #501, .T. ) ;
#195 =( NAMED_UNIT ( * ) PLANE_ANGLE_UNIT ( ) SI_UNIT ( $, .RADIAN. ) );
#196 = SURFACE_STYLE_FILL_AREA ( #147 ) ;
#197 = EDGE_CURVE ( 'NONE', #59, #351, #303, .T. ) ;
#198 = CARTESIAN_POINT ( 'NONE',  ( 24.50000000000000000, 50.00000000000000000, -2.999999999999995559 ) ) ;
#199 = ORIENTED_EDGE ( 'NONE', *, *, #237, .T. ) ;
#200 = SHAPE_DEFINITION_REPRESENTATION ( #430, #305 ) ;
#201 = CARTESIAN_POINT ( 'NONE',  ( 17.49999999999999645, 19.26180729995787999, -5.000000000000000000 ) ) ;
#202 = VERTEX_POINT ( 'NONE', #173 ) ;
#203 = CARTESIAN_POINT ( 'NONE',  ( 24.50000000000000000, 50.00000000000000000, 4.898587196589412237E-15 ) ) ;
#204 = CIRCLE ( 'NONE', #6, 3.000000000000002665 ) ;
#205 = EDGE_LOOP ( 'NONE', ( #539, #152, #315, #610, #458 ) ) ;
#206 = ADVANCED_FACE ( 'NONE', ( #274 ), #623, .F. ) ;
#207 = PRESENTATION_LAYER_ASSIGNMENT (  '', '', ( #484 ) ) ;
#208 = CARTESIAN_POINT ( 'NONE',  ( -27.50000000000000000, 0.000000000000000000, -10.00000000000000000 ) ) ;
#209 = ORIENTED_EDGE ( 'NONE', *, *, #348, .T. ) ;
#210 = CARTESIAN_POINT ( 'NONE',  ( -27.50000000000000000, 47.00000000000000000, -2.999999999999995559 ) ) ;
#211 = ORIENTED_EDGE ( 'NONE', *, *, #596, .T. ) ;
#212 = FACE_OUTER_BOUND ( 'NONE', #142, .T. ) ;
#213 = COLOUR_RGB ( '',0.7921568627450980005, 0.8196078431372548767, 0.9333333333333333481 ) ;
#214 = FILL_AREA_STYLE ('',( #62 ) ) ;
#215 = CIRCLE ( 'NONE', #607, 2.099999999999997868 ) ;
#216 = DIRECTION ( 'NONE',  ( 0.000000000000000000, 0.000000000000000000, 1.000000000000000000 ) ) ;
#217 = EDGE_CURVE ( 'NONE', #254, #81, #445, .T. ) ;
#218 = DIRECTION ( 'NONE',  ( 0.000000000000000000, 0.000000000000000000, -1.000000000000000000 ) ) ;
#219 = DIRECTION ( 'NONE',  ( 0.000000000000000000, 1.000000000000000000, 9.797174393178824918E-17 ) ) ;
#220 =( NAMED_UNIT ( * ) SI_UNIT ( $, .STERADIAN. ) SOLID_ANGLE_UNIT ( ) );
#221 = PRESENTATION_STYLE_ASSIGNMENT (( #177 ) ) ;
#222 = DIRECTION ( 'NONE',  ( -0.000000000000000000, -1.000000000000000000, -0.000000000000000000 ) ) ;
#223 = CARTESIAN_POINT ( 'NONE',  ( 17.50000000000000000, 2.081899558550502745E-16, -7.100000000000001421 ) ) ;
#224 = MECHANICAL_DESIGN_GEOMETRIC_PRESENTATION_REPRESENTATION (  '', ( #365 ), #279 ) ;
#225 = DIRECTION ( 'NONE',  ( -0.000000000000000000, -1.000000000000000000, -0.000000000000000000 ) ) ;
#226 = DIRECTION ( 'NONE',  ( 0.000000000000000000, -1.000000000000000000, -9.797174393178824918E-17 ) ) ;
#227 = STYLED_ITEM ( 'NONE', ( #3 ), #367 ) ;
#228 = VECTOR ( 'NONE', #480, 1000.000000000000000 ) ;
#229 = EDGE_CURVE ( 'NONE', #544, #392, #553, .T. ) ;
#230 = CARTESIAN_POINT ( 'NONE',  ( -17.50000000000000000, 2.081899558550502745E-16, -5.000000000000000000 ) ) ;
#231 = FILL_AREA_STYLE_COLOUR ( '', #213 ) ;
#232 = FACE_OUTER_BOUND ( 'NONE', #406, .T. ) ;
#233 = ORIENTED_EDGE ( 'NONE', *, *, #617, .F. ) ;
#234 = CARTESIAN_POINT ( 'NONE',  ( -25.97381119165576635, 50.00000000000000711, -2.999999999999995115 ) ) ;
#235 = LINE ( 'NONE', #168, #75 ) ;
#236 = DIRECTION ( 'NONE',  ( 0.000000000000000000, 1.000000000000000000, 9.797174393178824918E-17 ) ) ;
#237 = EDGE_CURVE ( 'NONE', #306, #479, #72, .T. ) ;
#238 = CARTESIAN_POINT ( 'NONE',  ( 24.50000000000000000, 50.00000000000000000, -2.999999999999995559 ) ) ;
#239 = AXIS2_PLACEMENT_3D ( 'NONE', #163, #563, #316 ) ;
#240 = ORIENTED_EDGE ( 'NONE', *, *, #395, .T. ) ;
#241 = ORIENTED_EDGE ( 'NONE', *, *, #325, .F. ) ;
#242 = UNCERTAINTY_MEASURE_WITH_UNIT (LENGTH_MEASURE( 1.000000000000000082E-05 ), #187, 'distance_accuracy_value', 'NONE');
#243 = APPLICATION_PROTOCOL_DEFINITION ( 'draft international standard', 'automotive_design', 1998, #281 ) ;
#244 = CARTESIAN_POINT ( 'NONE',  ( -17.50000000000000000, 18.00000000000000355, -5.000000000000000000 ) ) ;
#245 = ORIENTED_EDGE ( 'NONE', *, *, #605, .T. ) ;
#246 = CIRCLE ( 'NONE', #612, 2.099999999999997868 ) ;
#247 = ADVANCED_FACE ( 'NONE', ( #271 ), #167, .F. ) ;
#248 = AXIS2_PLACEMENT_3D ( 'NONE', #48, #606, #361 ) ;
#249 = CARTESIAN_POINT ( 'NONE',  ( -17.50000000000000355, 19.26180729995787999, -5.000000000000000000 ) ) ;
#250 = VECTOR ( 'NONE', #574, 1000.000000000000000 ) ;
#251 = ORIENTED_EDGE ( 'NONE', *, *, #267, .F. ) ;
#252 = CARTESIAN_POINT ( 'NONE',  ( -27.50000000000000000, 50.00000000000000000, -9.999999999999994671 ) ) ;
#253 = DIRECTION ( 'NONE',  ( -0.000000000000000000, -1.000000000000000000, -0.000000000000000000 ) ) ;
#254 = VERTEX_POINT ( 'NONE', #371 ) ;
#255 =( NAMED_UNIT ( * ) SI_UNIT ( $, .STERADIAN. ) SOLID_ANGLE_UNIT ( ) );
#256 = DIRECTION ( 'NONE',  ( -0.000000000000000000, -1.000000000000000000, -0.000000000000000000 ) ) ;
#257 = ADVANCED_FACE ( 'NONE', ( #627 ), #427, .F. ) ;
#258 = ORIENTED_EDGE ( 'NONE', *, *, #470, .F. ) ;
#259 = APPLICATION_CONTEXT ( 'automotive_design' ) ;
#260 = DIRECTION ( 'NONE',  ( -0.000000000000000000, -1.000000000000000000, -0.000000000000000000 ) ) ;
#261 = CIRCLE ( 'NONE', #57, 3.000000000000002665 ) ;
#262 = DIRECTION ( 'NONE',  ( -0.000000000000000000, -1.000000000000000000, -0.000000000000000000 ) ) ;
#263 = ORIENTED_EDGE ( 'NONE', *, *, #176, .F. ) ;
#264 = CARTESIAN_POINT ( 'NONE',  ( 17.50000000000000000, 2.081899558550502745E-16, -5.000000000000000000 ) ) ;
#265 = ORIENTED_EDGE ( 'NONE', *, *, #395, .F. ) ;
#266 = FACE_OUTER_BOUND ( 'NONE', #456, .T. ) ;
#267 = EDGE_CURVE ( 'NONE', #340, #202, #640, .T. ) ;
#268 = AXIS2_PLACEMENT_3D ( 'NONE', #464, #262, #516 ) ;
#269 = CARTESIAN_POINT ( 'NONE',  ( -27.50000000000000000, 0.000000000000000000, -10.00000000000000000 ) ) ;
#270 = DIRECTION ( 'NONE',  ( -1.000000000000000000, 0.000000000000000000, 0.000000000000000000 ) ) ;
#271 = FACE_OUTER_BOUND ( 'NONE', #353, .T. ) ;
#272 = DIRECTION ( 'NONE',  ( 0.000000000000000000, 1.000000000000000000, 9.797174393178824918E-17 ) ) ;
#273 = PLANE ( 'NONE',  #15 ) ;
#274 = FACE_OUTER_BOUND ( 'NONE', #330, .T. ) ;
#275 = DIRECTION ( 'NONE',  ( 1.049727191138617586E-16, -0.5150380749100555988, 0.8571673007021114454 ) ) ;
#276 = ADVANCED_FACE ( 'NONE', ( #92 ), #302, .F. ) ;
#277 = VERTEX_POINT ( 'NONE', #201 ) ;
#278 = DIRECTION ( 'NONE',  ( 0.000000000000000000, -1.000000000000000000, -9.797174393178823685E-17 ) ) ;
#279 =( GEOMETRIC_REPRESENTATION_CONTEXT ( 3 ) GLOBAL_UNCERTAINTY_ASSIGNED_CONTEXT ( ( #350 ) ) GLOBAL_UNIT_ASSIGNED_CONTEXT ( ( #611, #384, #634 ) ) REPRESENTATION_CONTEXT ( 'NONE', 'WORKASPACE' ) );
#280 = SURFACE_STYLE_FILL_AREA ( #69 ) ;
#281 = APPLICATION_CONTEXT ( 'automotive_design' ) ;
#282 = CARTESIAN_POINT ( 'NONE',  ( 24.50000000000000355, 38.80384757729348166, 3.801680618410737713E-15 ) ) ;
#283 = ORIENTED_EDGE ( 'NONE', *, *, #186, .F. ) ;
#284 = CARTESIAN_POINT ( 'NONE',  ( -27.50000000000000000, 38.80384757729348166, 3.801680618410737713E-15 ) ) ;
#285 = CARTESIAN_POINT ( 'NONE',  ( 17.50000000000000000, 18.00000000000000355, -2.900000000000002576 ) ) ;
#286 = ORIENTED_EDGE ( 'NONE', *, *, #288, .T. ) ;
#287 = LINE ( 'NONE', #580, #545 ) ;
#288 = EDGE_CURVE ( 'NONE', #529, #185, #155, .T. ) ;
#289 = ORIENTED_EDGE ( 'NONE', *, *, #431, .T. ) ;
#290 = CIRCLE ( 'NONE', #583, 2.099999999999996092 ) ;
#291 = DIRECTION ( 'NONE',  ( 0.000000000000000000, 0.000000000000000000, 1.000000000000000000 ) ) ;
#292 = AXIS2_PLACEMENT_3D ( 'NONE', #566, #63, #116 ) ;
#293 = DIRECTION ( 'NONE',  ( -0.000000000000000000, -1.000000000000000000, -0.000000000000000000 ) ) ;
#294 = ORIENTED_EDGE ( 'NONE', *, *, #237, .F. ) ;
#295 = CARTESIAN_POINT ( 'NONE',  ( 0.000000000000000000, 0.000000000000000000, 0.000000000000000000 ) ) ;
#296 = ORIENTED_EDGE ( 'NONE', *, *, #176, .T. ) ;
#297 = EDGE_CURVE ( 'NONE', #13, #351, #204, .T. ) ;
#298 = CARTESIAN_POINT ( 'NONE',  ( -17.50000000000000000, 0.000000000000000000, -2.900000000000002576 ) ) ;
#299 = VERTEX_POINT ( 'NONE', #502 ) ;
#300 = MECHANICAL_DESIGN_GEOMETRIC_PRESENTATION_REPRESENTATION (  '', ( #46 ), #345 ) ;
#301 = CIRCLE ( 'NONE', #14, 2.099999999999996092 ) ;
#302 = PLANE ( 'NONE',  #421 ) ;
#303 = LINE ( 'NONE', #328, #343 ) ;
#304 = AXIS2_PLACEMENT_3D ( 'NONE', #264, #166, #535 ) ;
#305 = ADVANCED_BREP_SHAPE_REPRESENTATION ( '202400491_03_Anschlag 3D Scanner_V1.0', ( #190, #349 ), #102 ) ;
#306 = VERTEX_POINT ( 'NONE', #249 ) ;
#307 = CARTESIAN_POINT ( 'NONE',  ( 27.50000000000000000, 0.000000000000000000, 0.000000000000000000 ) ) ;
#308 = ADVANCED_FACE ( 'NONE', ( #595 ), #481, .F. ) ;
#309 = ORIENTED_EDGE ( 'NONE', *, *, #338, .T. ) ;
#310 = DIRECTION ( 'NONE',  ( 0.000000000000000000, 1.000000000000000000, 0.000000000000000000 ) ) ;
#311 = ORIENTED_EDGE ( 'NONE', *, *, #12, .F. ) ;
#312 = VECTOR ( 'NONE', #65, 1000.000000000000000 ) ;
#313 = LINE ( 'NONE', #324, #112 ) ;
#314 = AXIS2_PLACEMENT_3D ( 'NONE', #132, #180, #341 ) ;
#315 = ORIENTED_EDGE ( 'NONE', *, *, #431, .F. ) ;
#316 = DIRECTION ( 'NONE',  ( 1.000000000000000000, 0.000000000000000000, 0.000000000000000000 ) ) ;
#317 = EDGE_CURVE ( 'NONE', #479, #299, #558, .T. ) ;
#318 = FACE_OUTER_BOUND ( 'NONE', #100, .T. ) ;
#319 = DIRECTION ( 'NONE',  ( -1.000000000000000000, -0.000000000000000000, -0.000000000000000000 ) ) ;
#320 = ORIENTED_EDGE ( 'NONE', *, *, #439, .F. ) ;
#321 =( GEOMETRIC_REPRESENTATION_CONTEXT ( 3 ) GLOBAL_UNCERTAINTY_ASSIGNED_CONTEXT ( ( #496 ) ) GLOBAL_UNIT_ASSIGNED_CONTEXT ( ( #64, #522, #40 ) ) REPRESENTATION_CONTEXT ( 'NONE', 'WORKASPACE' ) );
#322 = FACE_OUTER_BOUND ( 'NONE', #599, .T. ) ;
#323 = VECTOR ( 'NONE', #143, 1000.000000000000000 ) ;
#324 = CARTESIAN_POINT ( 'NONE',  ( -27.50000000000000000, 38.80384757729348166, -2.999999999999996447 ) ) ;
#325 = EDGE_CURVE ( 'NONE', #13, #399, #44, .T. ) ;
#326 = CARTESIAN_POINT ( 'NONE',  ( 27.50000000000000000, 47.00000000000000000, -2.999999999999995115 ) ) ;
#327 = LINE ( 'NONE', #74, #564 ) ;
#328 = CARTESIAN_POINT ( 'NONE',  ( 27.50000000000000000, 50.00000000000000000, -9.999999999999994671 ) ) ;
#329 = FACE_BOUND ( 'NONE', #124, .T. ) ;
#330 = EDGE_LOOP ( 'NONE', ( #29, #396, #296 ) ) ;
#331 = FACE_OUTER_BOUND ( 'NONE', #90, .T. ) ;
#332 = PRESENTATION_LAYER_ASSIGNMENT (  '', '', ( #435 ) ) ;
#333 = CARTESIAN_POINT ( 'NONE',  ( 27.50000000000000355, 47.21333348408582964, -2.786666515914165920 ) ) ;
#334 = CARTESIAN_POINT ( 'NONE',  ( 27.50000000000000000, 50.00000000000000000, 4.898587196589412237E-15 ) ) ;
#335 = VECTOR ( 'NONE', #570, 1000.000000000000000 ) ;
#336 = ORIENTED_EDGE ( 'NONE', *, *, #439, .T. ) ;
#337 = CARTESIAN_POINT ( 'NONE',  ( 27.50000000000000000, 50.00000000000000000, -9.999999999999994671 ) ) ;
#338 = EDGE_CURVE ( 'NONE', #479, #85, #290, .T. ) ;
#339 = DIRECTION ( 'NONE',  ( -0.000000000000000000, -0.000000000000000000, 1.000000000000000000 ) ) ;
#340 = VERTEX_POINT ( 'NONE', #549 ) ;
#341 = DIRECTION ( 'NONE',  ( 0.000000000000000000, 9.797174393178823685E-17, -1.000000000000000000 ) ) ;
#342 = MECHANICAL_DESIGN_GEOMETRIC_PRESENTATION_REPRESENTATION (  '', ( #582 ), #55 ) ;
#343 = VECTOR ( 'NONE', #319, 1000.000000000000000 ) ;
#344 = ORIENTED_EDGE ( 'NONE', *, *, #410, .F. ) ;
#345 =( GEOMETRIC_REPRESENTATION_CONTEXT ( 3 ) GLOBAL_UNCERTAINTY_ASSIGNED_CONTEXT ( ( #94 ) ) GLOBAL_UNIT_ASSIGNED_CONTEXT ( ( #398, #359, #96 ) ) REPRESENTATION_CONTEXT ( 'NONE', 'WORKASPACE' ) );
#346 = SURFACE_STYLE_FILL_AREA ( #500 ) ;
#347 = SURFACE_SIDE_STYLE ('',( #196 ) ) ;
#348 = EDGE_CURVE ( 'NONE', #340, #550, #451, .T. ) ;
#349 = AXIS2_PLACEMENT_3D ( 'NONE', #295, #291, #146 ) ;
#350 = UNCERTAINTY_MEASURE_WITH_UNIT (LENGTH_MEASURE( 1.000000000000000082E-05 ), #611, 'distance_accuracy_value', 'NONE');
#351 = VERTEX_POINT ( 'NONE', #444 ) ;
#352 = DIRECTION ( 'NONE',  ( 0.000000000000000000, -1.000000000000000000, -9.797174393178823685E-17 ) ) ;
#353 = EDGE_LOOP ( 'NONE', ( #389, #265, #534, #2 ) ) ;
#354 = ORIENTED_EDGE ( 'NONE', *, *, #60, .F. ) ;
#355 = COLOUR_RGB ( '',0.8980392156862745390, 0.9176470588235293713, 0.9294117647058823817 ) ;
#356 = EDGE_CURVE ( 'NONE', #59, #412, #261, .T. ) ;
#357 = PRODUCT_CONTEXT ( 'NONE', #281, 'mechanical' ) ;
#358 = CIRCLE ( 'NONE', #292, 3.000000000000000000 ) ;
#359 =( NAMED_UNIT ( * ) PLANE_ANGLE_UNIT ( ) SI_UNIT ( $, .RADIAN. ) );
#360 = ORIENTED_EDGE ( 'NONE', *, *, #21, .F. ) ;
#361 = DIRECTION ( 'NONE',  ( 0.000000000000000000, 0.000000000000000000, -1.000000000000000000 ) ) ;
#362 =( BOUNDED_CURVE ( )  B_SPLINE_CURVE ( 3, ( #419, #525, #390, #238 ),
 .UNSPECIFIED., .F., .T. ) 
 B_SPLINE_CURVE_WITH_KNOTS ( ( 4, 4 ),
 ( 1.783726566081154763, 3.141592653589793116 ),
 .UNSPECIFIED. ) 
 CURVE ( )  GEOMETRIC_REPRESENTATION_ITEM ( )  RATIONAL_B_SPLINE_CURVE ( ( 1.000000000000000000, 0.8521621137834691773, 0.8521621137834691773, 1.000000000000000000 ) ) 
 REPRESENTATION_ITEM ( '' )  );
#363 = FACE_OUTER_BOUND ( 'NONE', #45, .T. ) ;
#364 = CARTESIAN_POINT ( 'NONE',  ( 27.50000000000000000, 0.000000000000000000, -10.00000000000000000 ) ) ;
#365 = STYLED_ITEM ( 'NONE', ( #568 ), #42 ) ;
#366 = LINE ( 'NONE', #413, #614 ) ;
#367 = ADVANCED_FACE ( 'NONE', ( #106 ), #189, .F. ) ;
#368 = ORIENTED_EDGE ( 'NONE', *, *, #625, .F. ) ;
#369 = PRESENTATION_STYLE_ASSIGNMENT (( #474 ) ) ;
#370 = VERTEX_POINT ( 'NONE', #609 ) ;
#371 = CARTESIAN_POINT ( 'NONE',  ( 27.43224763813585554, 47.63397459621556607, -2.366025403784429937 ) ) ;
#372 = CARTESIAN_POINT ( 'NONE',  ( -24.50000000000000355, 38.80384757729348166, 3.801680618410737713E-15 ) ) ;
#373 = EDGE_CURVE ( 'NONE', #156, #546, #313, .T. ) ;
#374 = PLANE ( 'NONE',  #450 ) ;
#375 = VECTOR ( 'NONE', #7, 1000.000000000000000 ) ;
#376 =( LENGTH_UNIT ( ) NAMED_UNIT ( * ) SI_UNIT ( .MILLI., .METRE. ) );
#377 = ORIENTED_EDGE ( 'NONE', *, *, #577, .F. ) ;
#378 = DIRECTION ( 'NONE',  ( -0.000000000000000000, -1.000000000000000000, -0.000000000000000000 ) ) ;
#379 = FILL_AREA_STYLE_COLOUR ( '', #636 ) ;
#380 = CARTESIAN_POINT ( 'NONE',  ( 25.97381119165576635, 38.80384757729348877, 1.765010369738546639E-15 ) ) ;
#381 = EDGE_LOOP ( 'NONE', ( #354, #199, #309 ) ) ;
#382 = DIRECTION ( 'NONE',  ( 1.000000000000000000, 0.000000000000000000, 0.000000000000000000 ) ) ;
#383 = SURFACE_SIDE_STYLE ('',( #129 ) ) ;
#384 =( NAMED_UNIT ( * ) PLANE_ANGLE_UNIT ( ) SI_UNIT ( $, .RADIAN. ) );
#385 = DIRECTION ( 'NONE',  ( 0.000000000000000000, -0.000000000000000000, 1.000000000000000000 ) ) ;
#386 = PRESENTATION_LAYER_ASSIGNMENT (  '', '', ( #365 ) ) ;
#387 = CARTESIAN_POINT ( 'NONE',  ( -24.50000000000000000, 47.00000000000000000, 0.000000000000000000 ) ) ;
#388 = EDGE_CURVE ( 'NONE', #277, #408, #416, .T. ) ;
#389 = ORIENTED_EDGE ( 'NONE', *, *, #317, .F. ) ;
#390 = CARTESIAN_POINT ( 'NONE',  ( 25.97381119165576280, 50.00000000000000000, -2.999999999999995115 ) ) ;
#391 = AXIS2_PLACEMENT_3D ( 'NONE', #337, #33, #236 ) ;
#392 = VERTEX_POINT ( 'NONE', #512 ) ;
#393 = CARTESIAN_POINT ( 'NONE',  ( 17.50000000000000000, 18.00000000000000355, -5.000000000000000000 ) ) ;
#394 = ORIENTED_EDGE ( 'NONE', *, *, #637, .F. ) ;
#395 = EDGE_CURVE ( 'NONE', #85, #479, #301, .T. ) ;
#396 = ORIENTED_EDGE ( 'NONE', *, *, #82, .T. ) ;
#397 = AXIS2_PLACEMENT_3D ( 'NONE', #11, #518, #615 ) ;
#398 =( LENGTH_UNIT ( ) NAMED_UNIT ( * ) SI_UNIT ( .MILLI., .METRE. ) );
#399 = VERTEX_POINT ( 'NONE', #208 ) ;
#400 = SURFACE_STYLE_USAGE ( .BOTH. , #347 ) ;
#401 = SURFACE_SIDE_STYLE ('',( #454 ) ) ;
#402 = ORIENTED_EDGE ( 'NONE', *, *, #356, .F. ) ;
#403 = EDGE_LOOP ( 'NONE', ( #505, #425, #594, #182, #241, #557 ) ) ;
#404 = ADVANCED_FACE ( 'NONE', ( #266 ), #468, .F. ) ;
#405 = CARTESIAN_POINT ( 'NONE',  ( 27.50000000000000000, 0.000000000000000000, 0.000000000000000000 ) ) ;
#406 = EDGE_LOOP ( 'NONE', ( #519, #492, #162, #597 ) ) ;
#407 = CARTESIAN_POINT ( 'NONE',  ( -27.50000000000000355, 47.21333348408582964, -2.786666515914168141 ) ) ;
#408 = VERTEX_POINT ( 'NONE', #409 ) ;
#409 = CARTESIAN_POINT ( 'NONE',  ( 17.50000000000000000, 18.00000000000000355, -7.099999999999997868 ) ) ;
#410 = EDGE_CURVE ( 'NONE', #608, #299, #555, .T. ) ;
#411 = VERTEX_POINT ( 'NONE', #520 ) ;
#412 = VERTEX_POINT ( 'NONE', #67 ) ;
#413 = CARTESIAN_POINT ( 'NONE',  ( 27.50000000000000000, 0.000000000000000000, -10.00000000000000000 ) ) ;
#414 = CARTESIAN_POINT ( 'NONE',  ( -27.43224763813585909, 47.63397459621555896, -2.366025403784426384 ) ) ;
#415 = ADVANCED_FACE ( 'NONE', ( #212 ), #467, .T. ) ;
#416 = LINE ( 'NONE', #157, #335 ) ;
#417 = DIRECTION ( 'NONE',  ( 0.000000000000000000, 0.000000000000000000, -1.000000000000000000 ) ) ;
#418 = DIRECTION ( 'NONE',  ( 0.000000000000000000, 0.000000000000000000, -1.000000000000000000 ) ) ;
#419 = CARTESIAN_POINT ( 'NONE',  ( 27.43224763813585554, 47.63397459621556607, -2.366025403784429937 ) ) ;
#420 = VECTOR ( 'NONE', #275, 1000.000000000000000 ) ;
#421 = AXIS2_PLACEMENT_3D ( 'NONE', #405, #192, #52 ) ;
#422 = DIRECTION ( 'NONE',  ( 0.000000000000000000, 0.000000000000000000, -1.000000000000000000 ) ) ;
#423 = COLOUR_RGB ( '',0.7921568627450980005, 0.8196078431372548767, 0.9333333333333333481 ) ;
#424 = VECTOR ( 'NONE', #459, 1000.000000000000000 ) ;
#425 = ORIENTED_EDGE ( 'NONE', *, *, #356, .T. ) ;
#426 = DIRECTION ( 'NONE',  ( 0.000000000000000000, -1.000000000000000000, 0.000000000000000000 ) ) ;
#427 = CYLINDRICAL_SURFACE ( 'NONE', #447, 2.099999999999999645 ) ;
#428 = PLANE ( 'NONE',  #602 ) ;
#429 = DIRECTION ( 'NONE',  ( 0.000000000000000000, 0.000000000000000000, -1.000000000000000000 ) ) ;
#430 = PRODUCT_DEFINITION_SHAPE ( 'NONE', 'NONE',  #515 ) ;
#431 = EDGE_CURVE ( 'NONE', #546, #575, #536, .T. ) ;
#432 = CARTESIAN_POINT ( 'NONE',  ( 27.50000000000000000, 47.00000000000000000, -2.999999999999995559 ) ) ;
#433 = ORIENTED_EDGE ( 'NONE', *, *, #325, .T. ) ;
#434 = CARTESIAN_POINT ( 'NONE',  ( -24.50000000000000355, 0.000000000000000000, 0.000000000000000000 ) ) ;
#435 = STYLED_ITEM ( 'NONE', ( #369 ), #190 ) ;
#436 = MECHANICAL_DESIGN_GEOMETRIC_PRESENTATION_REPRESENTATION (  '', ( #227 ), #27 ) ;
#437 = FACE_OUTER_BOUND ( 'NONE', #403, .T. ) ;
#438 = EDGE_LOOP ( 'NONE', ( #344, #368 ) ) ;
#439 = EDGE_CURVE ( 'NONE', #131, #340, #358, .T. ) ;
#440 = CARTESIAN_POINT ( 'NONE',  ( -17.50000000000000000, 0.000000000000000000, -5.000000000000000000 ) ) ;
#441 = UNCERTAINTY_MEASURE_WITH_UNIT (LENGTH_MEASURE( 1.000000000000000082E-05 ), #601, 'distance_accuracy_value', 'NONE');
#442 = EDGE_LOOP ( 'NONE', ( #394, #53, #87, #258 ) ) ;
#443 =( NAMED_UNIT ( * ) PLANE_ANGLE_UNIT ( ) SI_UNIT ( $, .RADIAN. ) );
#444 = CARTESIAN_POINT ( 'NONE',  ( -24.50000000000000355, 50.00000000000000000, -9.999999999999994671 ) ) ;
#445 =( BOUNDED_CURVE ( )  B_SPLINE_CURVE ( 3, ( #117, #121, #333, #532 ),
 .UNSPECIFIED., .F., .T. ) 
 B_SPLINE_CURVE_WITH_KNOTS ( ( 4, 4 ),
 ( 4.499458741098431247, 4.712388980384689674 ),
 .UNSPECIFIED. ) 
 CURVE ( )  GEOMETRIC_REPRESENTATION_ITEM ( )  RATIONAL_B_SPLINE_CURVE ( ( 1.000000000000000000, 0.9962252935900757222, 0.9962252935900757222, 1.000000000000000000 ) ) 
 REPRESENTATION_ITEM ( '' )  );
#446 = AXIS2_PLACEMENT_3D ( 'NONE', #483, #219, #28 ) ;
#447 = AXIS2_PLACEMENT_3D ( 'NONE', #104, #5, #149 ) ;
#448 = EDGE_LOOP ( 'NONE', ( #9, #233, #638, #188 ) ) ;
#449 = UNCERTAINTY_MEASURE_WITH_UNIT (LENGTH_MEASURE( 1.000000000000000082E-05 ), #43, 'distance_accuracy_value', 'NONE');
#450 = AXIS2_PLACEMENT_3D ( 'NONE', #16, #270, #216 ) ;
#451 = LINE ( 'NONE', #307, #562 ) ;
#452 = ORIENTED_EDGE ( 'NONE', *, *, #34, .F. ) ;
#453 = CARTESIAN_POINT ( 'NONE',  ( 24.50000000000000000, 47.00000000000000000, -9.999999999999994671 ) ) ;
#454 = SURFACE_STYLE_FILL_AREA ( #49 ) ;
#455 = ADVANCED_FACE ( 'NONE', ( #318 ), #374, .T. ) ;
#456 = EDGE_LOOP ( 'NONE', ( #145, #150, #645 ) ) ;
#457 = SURFACE_SIDE_STYLE ('',( #346 ) ) ;
#458 = ORIENTED_EDGE ( 'NONE', *, *, #528, .F. ) ;
#459 = DIRECTION ( 'NONE',  ( 0.000000000000000000, 0.000000000000000000, -1.000000000000000000 ) ) ;
#460 = ORIENTED_EDGE ( 'NONE', *, *, #153, .T. ) ;
#461 = EDGE_CURVE ( 'NONE', #81, #131, #160, .T. ) ;
#462 = CARTESIAN_POINT ( 'NONE',  ( -27.47733030794671549, 47.42545906126691335, -2.574540938733086204 ) ) ;
#463 = ORIENTED_EDGE ( 'NONE', *, *, #217, .F. ) ;
#464 = CARTESIAN_POINT ( 'NONE',  ( -17.50000000000000000, 2.081899558550502745E-16, -5.000000000000000000 ) ) ;
#465 = LINE ( 'NONE', #364, #312 ) ;
#466 = CONICAL_SURFACE ( 'NONE', #624, 2.099999999999996092, 1.029744258676652313 ) ;
#467 = CYLINDRICAL_SURFACE ( 'NONE', #239, 2.999999999999999112 ) ;
#468 = CONICAL_SURFACE ( 'NONE', #184, 2.099999999999997868, 1.029744258676652757 ) ;
#469 = AXIS2_PLACEMENT_3D ( 'NONE', #635, #426, #172 ) ;
#470 = EDGE_CURVE ( 'NONE', #370, #131, #366, .T. ) ;
#471 = LINE ( 'NONE', #432, #591 ) ;
#472 =( GEOMETRIC_REPRESENTATION_CONTEXT ( 3 ) GLOBAL_UNCERTAINTY_ASSIGNED_CONTEXT ( ( #449 ) ) GLOBAL_UNIT_ASSIGNED_CONTEXT ( ( #43, #195, #255 ) ) REPRESENTATION_CONTEXT ( 'NONE', 'WORKASPACE' ) );
#473 = CARTESIAN_POINT ( 'NONE',  ( -27.43224763813585909, 47.63397459621555896, -2.366025403784426384 ) ) ;
#474 = SURFACE_STYLE_USAGE ( .BOTH. , #401 ) ;
#475 = FACE_OUTER_BOUND ( 'NONE', #205, .T. ) ;
#476 = CARTESIAN_POINT ( 'NONE',  ( 24.50000000000000000, 50.00000000000000000, -9.999999999999994671 ) ) ;
#477 = DIRECTION ( 'NONE',  ( 1.049727191138617340E-16, -0.5150380749100560429, 0.8571673007021112234 ) ) ;
#478 = CARTESIAN_POINT ( 'NONE',  ( 17.50000000000000000, 18.00000000000000355, -2.900000000000002576 ) ) ;
#479 = VERTEX_POINT ( 'NONE', #618 ) ;
#480 = DIRECTION ( 'NONE',  ( 0.000000000000000000, 0.000000000000000000, -1.000000000000000000 ) ) ;
#481 = CONICAL_SURFACE ( 'NONE', #248, 2.099999999999996092, 1.029744258676652313 ) ;
#482 =( NAMED_UNIT ( * ) SI_UNIT ( $, .STERADIAN. ) SOLID_ANGLE_UNIT ( ) );
#483 = CARTESIAN_POINT ( 'NONE',  ( -24.50000000000000355, 50.00000000000000000, -2.999999999999995115 ) ) ;
#484 = STYLED_ITEM ( 'NONE', ( #548 ), #305 ) ;
#485 = EDGE_CURVE ( 'NONE', #546, #13, #61, .T. ) ;
#486 = DIRECTION ( 'NONE',  ( -0.000000000000000000, 1.000000000000000000, 0.000000000000000000 ) ) ;
#487 = PLANE ( 'NONE',  #531 ) ;
#488 = CARTESIAN_POINT ( 'NONE',  ( -27.50000000000000000, 47.00000000000000000, -2.999999999999995559 ) ) ;
#489 = PLANE ( 'NONE',  #193 ) ;
#490 = EDGE_CURVE ( 'NONE', #392, #544, #604, .T. ) ;
#491 = CARTESIAN_POINT ( 'NONE',  ( 17.50000000000000000, 18.00000000000000355, -5.000000000000000000 ) ) ;
#492 = ORIENTED_EDGE ( 'NONE', *, *, #267, .T. ) ;
#493 = SURFACE_STYLE_USAGE ( .BOTH. , #457 ) ;
#494 = ORIENTED_EDGE ( 'NONE', *, *, #60, .T. ) ;
#495 = DIRECTION ( 'NONE',  ( 0.000000000000000000, 1.000000000000000000, 0.000000000000000000 ) ) ;
#496 = UNCERTAINTY_MEASURE_WITH_UNIT (LENGTH_MEASURE( 1.000000000000000082E-05 ), #64, 'distance_accuracy_value', 'NONE');
#497 = ORIENTED_EDGE ( 'NONE', *, *, #528, .T. ) ;
#498 = VECTOR ( 'NONE', #477, 1000.000000000000000 ) ;
#499 = ORIENTED_EDGE ( 'NONE', *, *, #338, .F. ) ;
#500 = FILL_AREA_STYLE ('',( #598 ) ) ;
#501 = EDGE_CURVE ( 'NONE', #351, #529, #287, .T. ) ;
#502 = CARTESIAN_POINT ( 'NONE',  ( -17.50000000000000000, 2.081899558550502745E-16, -2.900000000000000799 ) ) ;
#503 = FILL_AREA_STYLE_COLOUR ( '', #355 ) ;
#504 = PRODUCT_DEFINITION_FORMATION_WITH_SPECIFIED_SOURCE ( 'ANY', '', #567, .NOT_KNOWN. ) ;
#505 = ORIENTED_EDGE ( 'NONE', *, *, #197, .F. ) ;
#506 = DIRECTION ( 'NONE',  ( -1.000000000000000000, -0.000000000000000000, -0.000000000000000000 ) ) ;
#507 = ORIENTED_EDGE ( 'NONE', *, *, #470, .T. ) ;
#508 = CARTESIAN_POINT ( 'NONE',  ( 27.50000000000000000, 50.00000000000000000, -2.999999999999995559 ) ) ;
#509 = EDGE_CURVE ( 'NONE', #113, #392, #576, .T. ) ;
#510 = LINE ( 'NONE', #115, #109 ) ;
#511 = PRESENTATION_LAYER_ASSIGNMENT (  '', '', ( #227 ) ) ;
#512 = CARTESIAN_POINT ( 'NONE',  ( 17.50000000000000000, 2.081899558550502745E-16, -2.899999999999999023 ) ) ;
#513 = VECTOR ( 'NONE', #26, 1000.000000000000000 ) ;
#514 = EDGE_LOOP ( 'NONE', ( #105, #4, #179, #191, #289 ) ) ;
#515 = PRODUCT_DEFINITION ( 'UNKNOWN', '', #504, #547 ) ;
#516 = DIRECTION ( 'NONE',  ( 0.000000000000000000, 0.000000000000000000, -1.000000000000000000 ) ) ;
#517 = DIRECTION ( 'NONE',  ( -0.000000000000000000, -1.000000000000000000, -0.000000000000000000 ) ) ;
#518 = DIRECTION ( 'NONE',  ( -0.000000000000000000, -1.000000000000000000, -0.000000000000000000 ) ) ;
#519 = ORIENTED_EDGE ( 'NONE', *, *, #348, .F. ) ;
#520 = CARTESIAN_POINT ( 'NONE',  ( -24.50000000000000355, 38.80384757729348166, 3.801680618410737713E-15 ) ) ;
#521 = EDGE_CURVE ( 'NONE', #185, #59, #581, .T. ) ;
#522 =( NAMED_UNIT ( * ) PLANE_ANGLE_UNIT ( ) SI_UNIT ( $, .RADIAN. ) );
#523 = CARTESIAN_POINT ( 'NONE',  ( -17.50000000000000000, 18.00000000000000355, -5.000000000000000000 ) ) ;
#524 = DIRECTION ( 'NONE',  ( 0.000000000000000000, 0.000000000000000000, -1.000000000000000000 ) ) ;
#525 = CARTESIAN_POINT ( 'NONE',  ( 27.12079468642654234, 49.07450105814583452, -2.752013305934310150 ) ) ;
#526 = DIRECTION ( 'NONE',  ( -0.000000000000000000, -1.000000000000000000, -0.000000000000000000 ) ) ;
#527 = CARTESIAN_POINT ( 'NONE',  ( 27.50000000000000000, 0.000000000000000000, -10.00000000000000000 ) ) ;
#528 = EDGE_CURVE ( 'NONE', #550, #156, #592, .T. ) ;
#529 = VERTEX_POINT ( 'NONE', #22 ) ;
#530 = LINE ( 'NONE', #284, #323 ) ;
#531 = AXIS2_PLACEMENT_3D ( 'NONE', #527, #80, #20 ) ;
#532 = CARTESIAN_POINT ( 'NONE',  ( 27.50000000000000000, 47.00000000000000000, -2.999999999999995115 ) ) ;
#533 = CYLINDRICAL_SURFACE ( 'NONE', #446, 3.000000000000000000 ) ;
#534 = ORIENTED_EDGE ( 'NONE', *, *, #186, .T. ) ;
#535 = DIRECTION ( 'NONE',  ( 0.000000000000000000, 0.000000000000000000, -1.000000000000000000 ) ) ;
#536 =( BOUNDED_CURVE ( )  B_SPLINE_CURVE ( 3, ( #210, #407, #462, #473 ),
 .UNSPECIFIED., .F., .T. ) 
 B_SPLINE_CURVE_WITH_KNOTS ( ( 4, 4 ),
 ( 1.570796326794896558, 1.783726566081153875 ),
 .UNSPECIFIED. ) 
 CURVE ( )  GEOMETRIC_REPRESENTATION_ITEM ( )  RATIONAL_B_SPLINE_CURVE ( ( 1.000000000000000000, 0.9962252935900757222, 0.9962252935900757222, 1.000000000000000000 ) ) 
 REPRESENTATION_ITEM ( '' )  );
#537 = DIRECTION ( 'NONE',  ( 0.000000000000000000, 0.000000000000000000, -1.000000000000000000 ) ) ;
#538 = ORIENTED_EDGE ( 'NONE', *, *, #521, .T. ) ;
#539 = ORIENTED_EDGE ( 'NONE', *, *, #119, .F. ) ;
#540 = DIRECTION ( 'NONE',  ( -0.000000000000000000, 0.2588190451025231265, 0.9659258262890676461 ) ) ;
#541 = AXIS2_PLACEMENT_3D ( 'NONE', #70, #122, #537 ) ;
#542 = VECTOR ( 'NONE', #352, 1000.000000000000000 ) ;
#543 =( BOUNDED_CURVE ( )  B_SPLINE_CURVE ( 3, ( #282, #380, #73, #579 ),
 .UNSPECIFIED., .F., .T. ) 
 B_SPLINE_CURVE_WITH_KNOTS ( ( 4, 4 ),
 ( 1.156482317317871922E-15, 1.357866087508638575 ),
 .UNSPECIFIED. ) 
 CURVE ( )  GEOMETRIC_REPRESENTATION_ITEM ( )  RATIONAL_B_SPLINE_CURVE ( ( 1.000000000000000000, 0.8521621137834692883, 0.8521621137834692883, 1.000000000000000000 ) ) 
 REPRESENTATION_ITEM ( '' )  );
#544 = VERTEX_POINT ( 'NONE', #223 ) ;
#545 = VECTOR ( 'NONE', #339, 1000.000000000000000 ) ;
#546 = VERTEX_POINT ( 'NONE', #488 ) ;
#547 = PRODUCT_DEFINITION_CONTEXT ( 'detailed design', #259, 'design' ) ;
#548 = PRESENTATION_STYLE_ASSIGNMENT (( #493 ) ) ;
#549 = CARTESIAN_POINT ( 'NONE',  ( 24.50000000000000000, 0.000000000000000000, 0.000000000000000000 ) ) ;
#550 = VERTEX_POINT ( 'NONE', #434 ) ;
#551 = ADVANCED_FACE ( 'NONE', ( #78 ), #273, .T. ) ;
#552 = LINE ( 'NONE', #99, #171 ) ;
#553 = CIRCLE ( 'NONE', #137, 2.100000000000000977 ) ;
#554 = ORIENTED_EDGE ( 'NONE', *, *, #229, .F. ) ;
#555 = CIRCLE ( 'NONE', #268, 2.099999999999999645 ) ;
#556 = DIRECTION ( 'NONE',  ( 0.000000000000000000, 0.000000000000000000, -1.000000000000000000 ) ) ;
#557 = ORIENTED_EDGE ( 'NONE', *, *, #297, .T. ) ;
#558 = LINE ( 'NONE', #298, #77 ) ;
#559 = ADVANCED_FACE ( 'NONE', ( #331 ), #175, .T. ) ;
#560 = CYLINDRICAL_SURFACE ( 'NONE', #541, 2.099999999999997868 ) ;
#561 = LINE ( 'NONE', #269, #375 ) ;
#562 = VECTOR ( 'NONE', #506, 1000.000000000000000 ) ;
#563 = DIRECTION ( 'NONE',  ( 0.000000000000000000, 0.000000000000000000, 1.000000000000000000 ) ) ;
#564 = VECTOR ( 'NONE', #278, 1000.000000000000000 ) ;
#565 = CARTESIAN_POINT ( 'NONE',  ( -27.50000000000000000, 47.00000000000000000, -9.999999999999994671 ) ) ;
#566 = CARTESIAN_POINT ( 'NONE',  ( 24.50000000000000000, 0.000000000000000000, -3.000000000000000000 ) ) ;
#567 = PRODUCT ( '202400491_03_Anschlag 3D Scanner_V1.0', '202400491_03_Anschlag 3D Scanner_V1.0', '', ( #357 ) ) ;
#568 = PRESENTATION_STYLE_ASSIGNMENT (( #56 ) ) ;
#569 = ADVANCED_FACE ( 'NONE', ( #86 ), #489, .T. ) ;
#570 = DIRECTION ( 'NONE',  ( 0.000000000000000000, -0.5150380749100555988, -0.8571673007021114454 ) ) ;
#571 = SURFACE_SIDE_STYLE ('',( #280 ) ) ;
#572 = CARTESIAN_POINT ( 'NONE',  ( -27.50000000000000000, 0.000000000000000000, -3.000000000000000888 ) ) ;
#573 = MECHANICAL_DESIGN_GEOMETRIC_PRESENTATION_REPRESENTATION (  '', ( #435 ), #321 ) ;
#574 = DIRECTION ( 'NONE',  ( 0.000000000000000000, -1.000000000000000000, -9.797174393178824918E-17 ) ) ;
#575 = VERTEX_POINT ( 'NONE', #588 ) ;
#576 = LINE ( 'NONE', #83, #513 ) ;
#577 = EDGE_CURVE ( 'NONE', #202, #411, #530, .T. ) ;
#578 = FILL_AREA_STYLE ('',( #379 ) ) ;
#579 = CARTESIAN_POINT ( 'NONE',  ( 27.43224763813585554, 47.63397459621556607, -2.366025403784429937 ) ) ;
#580 = CARTESIAN_POINT ( 'NONE',  ( -24.50000000000000355, 50.00000000000000000, 4.898587196589412237E-15 ) ) ;
#581 = LINE ( 'NONE', #476, #228 ) ;
#582 = STYLED_ITEM ( 'NONE', ( #221 ), #247 ) ;
#583 = AXIS2_PLACEMENT_3D ( 'NONE', #244, #260, #556 ) ;
#584 = CYLINDRICAL_SURFACE ( 'NONE', #644, 2.999999999999999112 ) ;
#585 = ORIENTED_EDGE ( 'NONE', *, *, #509, .T. ) ;
#586 = DIRECTION ( 'NONE',  ( -0.000000000000000000, -1.000000000000000000, -0.000000000000000000 ) ) ;
#587 = ORIENTED_EDGE ( 'NONE', *, *, #490, .F. ) ;
#588 = CARTESIAN_POINT ( 'NONE',  ( -27.43224763813585909, 47.63397459621555896, -2.366025403784426384 ) ) ;
#589 = ORIENTED_EDGE ( 'NONE', *, *, #490, .T. ) ;
#590 = DIRECTION ( 'NONE',  ( 0.000000000000000000, 9.797174393178824918E-17, -1.000000000000000000 ) ) ;
#591 = VECTOR ( 'NONE', #632, 1000.000000000000000 ) ;
#592 = CIRCLE ( 'NONE', #469, 3.000000000000000000 ) ;
#593 = UNCERTAINTY_MEASURE_WITH_UNIT (LENGTH_MEASURE( 1.000000000000000082E-05 ), #376, 'distance_accuracy_value', 'NONE');
#594 = ORIENTED_EDGE ( 'NONE', *, *, #637, .T. ) ;
#595 = FACE_OUTER_BOUND ( 'NONE', #381, .T. ) ;
#596 = EDGE_CURVE ( 'NONE', #529, #575, #136, .T. ) ;
#597 = ORIENTED_EDGE ( 'NONE', *, *, #119, .T. ) ;
#598 = FILL_AREA_STYLE_COLOUR ( '', #629 ) ;
#599 = EDGE_LOOP ( 'NONE', ( #294, #494, #240 ) ) ;
#600 =( BOUNDED_CURVE ( )  B_SPLINE_CURVE ( 3, ( #414, #178, #620, #372 ),
 .UNSPECIFIED., .F., .T. ) 
 B_SPLINE_CURVE_WITH_KNOTS ( ( 4, 4 ),
 ( 1.783726566081155873, 3.141592653589793116 ),
 .UNSPECIFIED. ) 
 CURVE ( )  GEOMETRIC_REPRESENTATION_ITEM ( )  RATIONAL_B_SPLINE_CURVE ( ( 1.000000000000000000, 0.8521621137834692883, 0.8521621137834692883, 1.000000000000000000 ) ) 
 REPRESENTATION_ITEM ( '' )  );
#601 =( LENGTH_UNIT ( ) NAMED_UNIT ( * ) SI_UNIT ( .MILLI., .METRE. ) );
#602 = AXIS2_PLACEMENT_3D ( 'NONE', #334, #23, #272 ) ;
#603 = ORIENTED_EDGE ( 'NONE', *, *, #373, .T. ) ;
#604 = CIRCLE ( 'NONE', #304, 2.100000000000000977 ) ;
#605 = EDGE_CURVE ( 'NONE', #254, #185, #362, .T. ) ;
#606 = DIRECTION ( 'NONE',  ( -0.000000000000000000, -1.000000000000000000, -0.000000000000000000 ) ) ;
#607 = AXIS2_PLACEMENT_3D ( 'NONE', #393, #378, #626 ) ;
#608 = VERTEX_POINT ( 'NONE', #30 ) ;
#609 = CARTESIAN_POINT ( 'NONE',  ( 27.50000000000000000, 0.000000000000000000, -10.00000000000000000 ) ) ;
#610 = ORIENTED_EDGE ( 'NONE', *, *, #373, .F. ) ;
#611 =( LENGTH_UNIT ( ) NAMED_UNIT ( * ) SI_UNIT ( .MILLI., .METRE. ) );
#612 = AXIS2_PLACEMENT_3D ( 'NONE', #491, #93, #38 ) ;
#613 = AXIS2_PLACEMENT_3D ( 'NONE', #440, #225, #417 ) ;
#614 = VECTOR ( 'NONE', #114, 1000.000000000000000 ) ;
#615 = DIRECTION ( 'NONE',  ( 0.000000000000000000, 0.000000000000000000, -1.000000000000000000 ) ) ;
#616 = MECHANICAL_DESIGN_GEOMETRIC_PRESENTATION_REPRESENTATION (  '', ( #484 ), #472 ) ;
#617 = EDGE_CURVE ( 'NONE', #408, #113, #215, .T. ) ;
#618 = CARTESIAN_POINT ( 'NONE',  ( -17.50000000000000000, 18.00000000000000355, -2.900000000000004352 ) ) ;
#619 = CARTESIAN_POINT ( 'NONE',  ( 17.50000000000000000, 18.00000000000000355, -5.000000000000000000 ) ) ;
#620 = CARTESIAN_POINT ( 'NONE',  ( -25.97381119165576635, 38.80384757729347456, 3.288957136112736255E-15 ) ) ;
#621 = CARTESIAN_POINT ( 'NONE',  ( 17.50000000000000000, 18.00000000000000355, -5.000000000000000000 ) ) ;
#622 = FACE_OUTER_BOUND ( 'NONE', #514, .T. ) ;
#623 = CONICAL_SURFACE ( 'NONE', #36, 2.099999999999997868, 1.029744258676652757 ) ;
#624 = AXIS2_PLACEMENT_3D ( 'NONE', #523, #222, #418 ) ;
#625 = EDGE_CURVE ( 'NONE', #299, #608, #91, .T. ) ;
#626 = DIRECTION ( 'NONE',  ( 0.000000000000000000, 0.000000000000000000, -1.000000000000000000 ) ) ;
#627 = FACE_OUTER_BOUND ( 'NONE', #448, .T. ) ;
#628 = LINE ( 'NONE', #141, #88 ) ;
#629 = COLOUR_RGB ( '',0.8980392156862745390, 0.9176470588235293713, 0.9294117647058823817 ) ;
#630 = ORIENTED_EDGE ( 'NONE', *, *, #605, .F. ) ;
#631 = CARTESIAN_POINT ( 'NONE',  ( 27.50000000000000000, 50.00000000000000000, 4.898587196589412237E-15 ) ) ;
#632 = DIRECTION ( 'NONE',  ( -0.000000000000000000, -0.000000000000000000, 1.000000000000000000 ) ) ;
#633 = PLANE ( 'NONE',  #391 ) ;
#634 =( NAMED_UNIT ( * ) SI_UNIT ( $, .STERADIAN. ) SOLID_ANGLE_UNIT ( ) );
#635 = CARTESIAN_POINT ( 'NONE',  ( -24.50000000000000355, 0.000000000000000000, -3.000000000000000000 ) ) ;
#636 = COLOUR_RGB ( '',0.7921568627450980005, 0.8196078431372548767, 0.9333333333333333481 ) ;
#637 = EDGE_CURVE ( 'NONE', #412, #370, #327, .T. ) ;
#638 = ORIENTED_EDGE ( 'NONE', *, *, #21, .T. ) ;
#639 = EDGE_LOOP ( 'NONE', ( #507, #336, #209, #497, #452, #311 ) ) ;
#640 = LINE ( 'NONE', #203, #110 ) ;
#641 = ORIENTED_EDGE ( 'NONE', *, *, #521, .F. ) ;
#642 = ADVANCED_FACE ( 'NONE', ( #437 ), #633, .T. ) ;
#643 = DIRECTION ( 'NONE',  ( 0.000000000000000000, 9.797174393178824918E-17, -1.000000000000000000 ) ) ;
#644 = AXIS2_PLACEMENT_3D ( 'NONE', #387, #130, #31 ) ;
#645 = ORIENTED_EDGE ( 'NONE', *, *, #617, .T. ) ;
ENDSEC;
END-ISO-10303-21;
