ISO-10303-21;
HEADER;
FILE_DESCRIPTION (( 'STEP AP214' ),
    '1' );
FILE_NAME ('03_Deckelanschlag.STEP',
    '2022-08-12T06:51:10',
    ( '' ),
    ( '' ),
    'SwSTEP 2.0',
    'SolidWorks 2018',
    '' );
FILE_SCHEMA (( 'AUTOMOTIVE_DESIGN' ));
ENDSEC;

DATA;
#1 = STYLED_ITEM ( 'NONE', ( #200 ), #960 ) ;
#2 = DIRECTION ( 'NONE',  ( -0.000000000000000000, -0.000000000000000000, 1.000000000000000000 ) ) ;
#3 = LINE ( 'NONE', #488, #592 ) ;
#4 = CARTESIAN_POINT ( 'NONE',  ( 25.99999999999998579, 22.00000000000000000, -16.95000000000000284 ) ) ;
#5 = AXIS2_PLACEMENT_3D ( 'NONE', #1179, #1071, #1285 ) ;
#6 = LINE ( 'NONE', #958, #483 ) ;
#7 = EDGE_CURVE ( 'NONE', #1258, #336, #1291, .T. ) ;
#8 = DIRECTION ( 'NONE',  ( 1.000000000000000000, -0.000000000000000000, -1.982541115402065110E-16 ) ) ;
#9 = VERTEX_POINT ( 'NONE', #737 ) ;
#10 = DIRECTION ( 'NONE',  ( -0.000000000000000000, -0.000000000000000000, 1.000000000000000000 ) ) ;
#11 = ORIENTED_EDGE ( 'NONE', *, *, #211, .T. ) ;
#12 = VERTEX_POINT ( 'NONE', #851 ) ;
#13 =( LENGTH_UNIT ( ) NAMED_UNIT ( * ) SI_UNIT ( .MILLI., .METRE. ) );
#14 = ORIENTED_EDGE ( 'NONE', *, *, #84, .T. ) ;
#15 = PRODUCT_DEFINITION_CONTEXT ( 'detailed design', #508, 'design' ) ;
#16 = EDGE_CURVE ( 'NONE', #463, #939, #949, .T. ) ;
#17 = EDGE_CURVE ( 'NONE', #701, #78, #514, .T. ) ;
#18 = DIRECTION ( 'NONE',  ( 1.000000000000000000, 0.000000000000000000, 0.000000000000000000 ) ) ;
#19 = DIRECTION ( 'NONE',  ( 1.000000000000000000, 0.000000000000000000, 0.000000000000000000 ) ) ;
#20 = VECTOR ( 'NONE', #495, 1000.000000000000000 ) ;
#21 = EDGE_CURVE ( 'NONE', #1070, #1068, #1117, .T. ) ;
#22 = LINE ( 'NONE', #485, #1064 ) ;
#23 = ORIENTED_EDGE ( 'NONE', *, *, #494, .F. ) ;
#24 = SURFACE_STYLE_FILL_AREA ( #353 ) ;
#25 = AXIS2_PLACEMENT_3D ( 'NONE', #947, #723, #419 ) ;
#26 = VERTEX_POINT ( 'NONE', #319 ) ;
#27 =( GEOMETRIC_REPRESENTATION_CONTEXT ( 3 ) GLOBAL_UNCERTAINTY_ASSIGNED_CONTEXT ( ( #872 ) ) GLOBAL_UNIT_ASSIGNED_CONTEXT ( ( #747, #244, #877 ) ) REPRESENTATION_CONTEXT ( 'NONE', 'WORKASPACE' ) );
#28 = ORIENTED_EDGE ( 'NONE', *, *, #220, .F. ) ;
#29 = ORIENTED_EDGE ( 'NONE', *, *, #1130, .F. ) ;
#30 = DIRECTION ( 'NONE',  ( 1.000000000000000000, 0.000000000000000000, -0.000000000000000000 ) ) ;
#31 = CARTESIAN_POINT ( 'NONE',  ( 4.000000000000005329, 11.00000000000000000, 40.00000000000000711 ) ) ;
#32 = UNCERTAINTY_MEASURE_WITH_UNIT (LENGTH_MEASURE( 1.000000000000000082E-05 ), #126, 'distance_accuracy_value', 'NONE');
#33 = CARTESIAN_POINT ( 'NONE',  ( 35.00000000000002132, 2.000000000000000000, -4.400000000000008349 ) ) ;
#34 = FACE_OUTER_BOUND ( 'NONE', #72, .T. ) ;
#35 = LINE ( 'NONE', #643, #914 ) ;
#36 = DIRECTION ( 'NONE',  ( -1.000000000000000000, 0.000000000000000000, -0.000000000000000000 ) ) ;
#37 = DIRECTION ( 'NONE',  ( -1.000000000000000000, -0.000000000000000000, -2.478176394252581387E-17 ) ) ;
#38 = EDGE_CURVE ( 'NONE', #106, #355, #88, .T. ) ;
#39 = ORIENTED_EDGE ( 'NONE', *, *, #1093, .T. ) ;
#40 = EDGE_LOOP ( 'NONE', ( #356, #1066, #306, #486, #235, #805, #480, #516 ) ) ;
#41 = ORIENTED_EDGE ( 'NONE', *, *, #614, .T. ) ;
#42 = CARTESIAN_POINT ( 'NONE',  ( 21.49999999999997513, 11.00000000000000000, -40.00000000000001421 ) ) ;
#43 = VERTEX_POINT ( 'NONE', #726 ) ;
#44 = FILL_AREA_STYLE ('',( #1057 ) ) ;
#45 = EDGE_CURVE ( 'NONE', #953, #302, #330, .T. ) ;
#46 = AXIS2_PLACEMENT_3D ( 'NONE', #267, #201, #1220 ) ;
#47 = CIRCLE ( 'NONE', #279, 2.100000000000000977 ) ;
#48 = CARTESIAN_POINT ( 'NONE',  ( 35.00000000000002132, 22.00000000000000000, 39.99999999999999289 ) ) ;
#49 = EDGE_CURVE ( 'NONE', #247, #838, #474, .T. ) ;
#50 = VECTOR ( 'NONE', #873, 1000.000000000000000 ) ;
#51 = DIRECTION ( 'NONE',  ( 1.176024739753907999E-16, 0.000000000000000000, 1.000000000000000000 ) ) ;
#52 = FACE_OUTER_BOUND ( 'NONE', #1146, .T. ) ;
#53 = LINE ( 'NONE', #1252, #115 ) ;
#54 = ADVANCED_FACE ( 'NONE', ( #1162 ), #894, .F. ) ;
#55 = PLANE ( 'NONE',  #683 ) ;
#56 = VERTEX_POINT ( 'NONE', #225 ) ;
#57 = VERTEX_POINT ( 'NONE', #936 ) ;
#58 = UNCERTAINTY_MEASURE_WITH_UNIT (LENGTH_MEASURE( 1.000000000000000082E-05 ), #1110, 'distance_accuracy_value', 'NONE');
#59 = VERTEX_POINT ( 'NONE', #1041 ) ;
#60 = DIRECTION ( 'NONE',  ( 0.000000000000000000, -0.000000000000000000, -1.000000000000000000 ) ) ;
#61 = DIRECTION ( 'NONE',  ( -0.000000000000000000, -0.000000000000000000, 1.000000000000000000 ) ) ;
#62 = FACE_OUTER_BOUND ( 'NONE', #1083, .T. ) ;
#63 = EDGE_CURVE ( 'NONE', #1088, #57, #53, .T. ) ;
#64 = DIRECTION ( 'NONE',  ( -0.000000000000000000, -1.000000000000000000, -0.000000000000000000 ) ) ;
#65 = EDGE_CURVE ( 'NONE', #810, #899, #159, .T. ) ;
#66 = VECTOR ( 'NONE', #1008, 1000.000000000000000 ) ;
#67 = DIRECTION ( 'NONE',  ( -8.673617379884035472E-17, -0.000000000000000000, -1.000000000000000000 ) ) ;
#68 = VECTOR ( 'NONE', #534, 1000.000000000000000 ) ;
#69 = PRESENTATION_LAYER_ASSIGNMENT (  '', '', ( #1 ) ) ;
#70 = PLANE ( 'NONE',  #1246 ) ;
#71 = AXIS2_PLACEMENT_3D ( 'NONE', #94, #1193, #1190 ) ;
#72 = EDGE_LOOP ( 'NONE', ( #352, #586, #291, #1090, #720, #383 ) ) ;
#73 = SHAPE_DEFINITION_REPRESENTATION ( #735, #288 ) ;
#74 = AXIS2_PLACEMENT_3D ( 'NONE', #663, #459, #1297 ) ;
#75 = CARTESIAN_POINT ( 'NONE',  ( 21.50000000000001066, 13.99999999999999822, 11.49999999999997335 ) ) ;
#76 = ORIENTED_EDGE ( 'NONE', *, *, #162, .T. ) ;
#77 = CARTESIAN_POINT ( 'NONE',  ( 4.000000000000004441, 11.00000000000000000, 32.62463017427758416 ) ) ;
#78 = VERTEX_POINT ( 'NONE', #1074 ) ;
#79 = CARTESIAN_POINT ( 'NONE',  ( 18.00000000000000711, 5.499999999999998224, 28.00000000000000000 ) ) ;
#80 = ORIENTED_EDGE ( 'NONE', *, *, #91, .T. ) ;
#81 = CARTESIAN_POINT ( 'NONE',  ( -26.00000000000003197, 22.00000000000000000, -16.95000000000000995 ) ) ;
#82 = DIRECTION ( 'NONE',  ( -1.000000000000000000, -0.000000000000000000, 1.613696256722613131E-16 ) ) ;
#83 = CARTESIAN_POINT ( 'NONE',  ( -34.99999999999999289, 22.00000000000000000, -10.00000000000000888 ) ) ;
#84 = EDGE_CURVE ( 'NONE', #1088, #1244, #1214, .T. ) ;
#85 = SURFACE_STYLE_USAGE ( .BOTH. , #108 ) ;
#86 = VECTOR ( 'NONE', #254, 1000.000000000000000 ) ;
#87 = DIRECTION ( 'NONE',  ( 1.000000000000000000, 0.000000000000000000, -4.956352788505162775E-17 ) ) ;
#88 = LINE ( 'NONE', #140, #729 ) ;
#89 = ORIENTED_EDGE ( 'NONE', *, *, #236, .T. ) ;
#90 = CARTESIAN_POINT ( 'NONE',  ( 4.000000000000005329, 22.00000000000000000, 40.00000000000000711 ) ) ;
#91 = EDGE_CURVE ( 'NONE', #899, #1311, #294, .T. ) ;
#92 = ORIENTED_EDGE ( 'NONE', *, *, #1270, .F. ) ;
#93 = ORIENTED_EDGE ( 'NONE', *, *, #1058, .T. ) ;
#94 = CARTESIAN_POINT ( 'NONE',  ( 0.000000000000000000, 13.99999999999999822, 0.000000000000000000 ) ) ;
#95 = MECHANICAL_DESIGN_GEOMETRIC_PRESENTATION_REPRESENTATION (  '', ( #1063 ), #293 ) ;
#96 = AXIS2_PLACEMENT_3D ( 'NONE', #1237, #412, #19 ) ;
#97 = VECTOR ( 'NONE', #87, 1000.000000000000000 ) ;
#98 = DIRECTION ( 'NONE',  ( 1.000000000000000000, 0.000000000000000000, 0.000000000000000000 ) ) ;
#99 = VECTOR ( 'NONE', #798, 1000.000000000000000 ) ;
#100 = CARTESIAN_POINT ( 'NONE',  ( 15.90000000000000391, 5.499999999999998224, 40.00000000000000000 ) ) ;
#101 =( LENGTH_UNIT ( ) NAMED_UNIT ( * ) SI_UNIT ( .MILLI., .METRE. ) );
#102 = ORIENTED_EDGE ( 'NONE', *, *, #1209, .F. ) ;
#103 = EDGE_LOOP ( 'NONE', ( #179, #1230, #441, #369 ) ) ;
#104 = CARTESIAN_POINT ( 'NONE',  ( -34.99999999999998579, 13.99999999999999822, 29.99999999999999645 ) ) ;
#105 = VERTEX_POINT ( 'NONE', #982 ) ;
#106 = VERTEX_POINT ( 'NONE', #1175 ) ;
#107 = EDGE_CURVE ( 'NONE', #1068, #1085, #1155, .T. ) ;
#108 = SURFACE_SIDE_STYLE ('',( #454 ) ) ;
#109 = VECTOR ( 'NONE', #1294, 1000.000000000000000 ) ;
#110 = MECHANICAL_DESIGN_GEOMETRIC_PRESENTATION_REPRESENTATION (  '', ( #759 ), #450 ) ;
#111 = DIRECTION ( 'NONE',  ( -0.000000000000000000, -1.000000000000000000, -0.000000000000000000 ) ) ;
#112 = VECTOR ( 'NONE', #1314, 1000.000000000000000 ) ;
#113 = FILL_AREA_STYLE_COLOUR ( '', #998 ) ;
#114 = EDGE_CURVE ( 'NONE', #1166, #547, #925, .T. ) ;
#115 = VECTOR ( 'NONE', #833, 1000.000000000000000 ) ;
#116 = CARTESIAN_POINT ( 'NONE',  ( 4.000000000000005329, 0.1190037190440702830, 40.00000000000000711 ) ) ;
#117 = ORIENTED_EDGE ( 'NONE', *, *, #614, .F. ) ;
#118 = FACE_OUTER_BOUND ( 'NONE', #388, .T. ) ;
#119 = ORIENTED_EDGE ( 'NONE', *, *, #532, .T. ) ;
#120 = DIRECTION ( 'NONE',  ( 1.000000000000000000, 0.000000000000000000, 0.000000000000000000 ) ) ;
#121 = ORIENTED_EDGE ( 'NONE', *, *, #973, .F. ) ;
#122 = FILL_AREA_STYLE_COLOUR ( '', #785 ) ;
#123 = ORIENTED_EDGE ( 'NONE', *, *, #1073, .T. ) ;
#124 = FACE_OUTER_BOUND ( 'NONE', #423, .T. ) ;
#125 =( NAMED_UNIT ( * ) SI_UNIT ( $, .STERADIAN. ) SOLID_ANGLE_UNIT ( ) );
#126 =( LENGTH_UNIT ( ) NAMED_UNIT ( * ) SI_UNIT ( .MILLI., .METRE. ) );
#127 = EDGE_CURVE ( 'NONE', #1122, #355, #47, .T. ) ;
#128 = EDGE_LOOP ( 'NONE', ( #601, #792, #775, #787, #692, #955, #651, #1144, #413, #905, #517, #500 ) ) ;
#129 = ORIENTED_EDGE ( 'NONE', *, *, #940, .F. ) ;
#130 = AXIS2_PLACEMENT_3D ( 'NONE', #476, #1114, #202 ) ;
#131 = ORIENTED_EDGE ( 'NONE', *, *, #1017, .T. ) ;
#132 = DIRECTION ( 'NONE',  ( -0.000000000000000000, -0.000000000000000000, 1.000000000000000000 ) ) ;
#133 = ADVANCED_FACE ( 'NONE', ( #911 ), #650, .F. ) ;
#134 = CARTESIAN_POINT ( 'NONE',  ( -10.95445115010327974, 11.00000000000000000, 29.99999999999999289 ) ) ;
#135 = DIRECTION ( 'NONE',  ( -7.129000586206058052E-16, 0.000000000000000000, -1.000000000000000000 ) ) ;
#136 = EDGE_CURVE ( 'NONE', #105, #1085, #184, .T. ) ;
#137 = ADVANCED_FACE ( 'NONE', ( #883 ), #151, .F. ) ;
#138 = DIRECTION ( 'NONE',  ( 1.000000000000000000, 0.000000000000000000, 0.000000000000000000 ) ) ;
#139 = LINE ( 'NONE', #922, #725 ) ;
#140 = CARTESIAN_POINT ( 'NONE',  ( 15.90000000000000391, 5.499999999999998224, 40.00000000000000000 ) ) ;
#141 = VECTOR ( 'NONE', #51, 1000.000000000000000 ) ;
#142 = CYLINDRICAL_SURFACE ( 'NONE', #277, 21.50000000000000000 ) ;
#143 = CARTESIAN_POINT ( 'NONE',  ( 18.00000000000000711, 16.49999999999999645, 29.99999999999999289 ) ) ;
#144 = EDGE_CURVE ( 'NONE', #1131, #223, #1109, .T. ) ;
#145 = ORIENTED_EDGE ( 'NONE', *, *, #696, .T. ) ;
#146 = DIRECTION ( 'NONE',  ( 0.000000000000000000, -0.000000000000000000, -1.000000000000000000 ) ) ;
#147 = EDGE_LOOP ( 'NONE', ( #565, #731, #1171, #316 ) ) ;
#148 = EDGE_LOOP ( 'NONE', ( #1231, #180, #670, #249 ) ) ;
#149 = ADVANCED_FACE ( 'NONE', ( #739 ), #830, .F. ) ;
#150 = UNCERTAINTY_MEASURE_WITH_UNIT (LENGTH_MEASURE( 1.000000000000000082E-05 ), #213, 'distance_accuracy_value', 'NONE');
#151 = PLANE ( 'NONE',  #659 ) ;
#152 = CARTESIAN_POINT ( 'NONE',  ( 21.49999999999997513, 11.00000000000000000, -40.00000000000001421 ) ) ;
#153 = ADVANCED_FACE ( 'NONE', ( #575 ), #252, .F. ) ;
#154 = AXIS2_PLACEMENT_3D ( 'NONE', #259, #359, #370 ) ;
#155 = DIRECTION ( 'NONE',  ( 1.000000000000000000, -0.000000000000000000, -1.982541115402065110E-16 ) ) ;
#156 = LINE ( 'NONE', #724, #1177 ) ;
#157 = AXIS2_PLACEMENT_3D ( 'NONE', #842, #409, #326 ) ;
#158 = VECTOR ( 'NONE', #308, 1000.000000000000000 ) ;
#159 = LINE ( 'NONE', #543, #970 ) ;
#160 = CARTESIAN_POINT ( 'NONE',  ( -21.49999999999997513, 11.00000000000000000, -40.00000000000000711 ) ) ;
#161 = DIRECTION ( 'NONE',  ( -1.000000000000000000, 0.000000000000000000, 0.000000000000000000 ) ) ;
#162 = EDGE_CURVE ( 'NONE', #615, #993, #962, .T. ) ;
#163 = EDGE_LOOP ( 'NONE', ( #1202, #193 ) ) ;
#164 = VERTEX_POINT ( 'NONE', #1208 ) ;
#165 = ORIENTED_EDGE ( 'NONE', *, *, #21, .F. ) ;
#166 = CARTESIAN_POINT ( 'NONE',  ( -10.95445115010327974, 22.00000000000000000, 29.99999999999999289 ) ) ;
#167 = DIRECTION ( 'NONE',  ( 0.000000000000000000, 0.000000000000000000, -1.000000000000000000 ) ) ;
#168 =( NAMED_UNIT ( * ) SI_UNIT ( $, .STERADIAN. ) SOLID_ANGLE_UNIT ( ) );
#169 = DIRECTION ( 'NONE',  ( -0.000000000000000000, -0.000000000000000000, -1.000000000000000000 ) ) ;
#170 = PLANE ( 'NONE',  #154 ) ;
#171 = VECTOR ( 'NONE', #8, 1000.000000000000000 ) ;
#172 = SURFACE_SIDE_STYLE ('',( #24 ) ) ;
#173 = DIRECTION ( 'NONE',  ( -8.673617379884035472E-17, 0.000000000000000000, -1.000000000000000000 ) ) ;
#174 = CIRCLE ( 'NONE', #182, 2.499999999999998668 ) ;
#175 = DIRECTION ( 'NONE',  ( 1.000000000000000000, 0.000000000000000000, 0.000000000000000000 ) ) ;
#176 = EDGE_CURVE ( 'NONE', #1307, #1244, #343, .T. ) ;
#177 = EDGE_LOOP ( 'NONE', ( #117, #653, #1107, #129 ) ) ;
#178 = SURFACE_SIDE_STYLE ('',( #426 ) ) ;
#179 = ORIENTED_EDGE ( 'NONE', *, *, #1058, .F. ) ;
#180 = ORIENTED_EDGE ( 'NONE', *, *, #740, .F. ) ;
#181 = ORIENTED_EDGE ( 'NONE', *, *, #1047, .T. ) ;
#182 = AXIS2_PLACEMENT_3D ( 'NONE', #1108, #281, #999 ) ;
#183 = DIRECTION ( 'NONE',  ( 0.000000000000000000, -0.000000000000000000, 1.000000000000000000 ) ) ;
#184 = LINE ( 'NONE', #639, #640 ) ;
#185 = FACE_BOUND ( 'NONE', #224, .T. ) ;
#186 =( NAMED_UNIT ( * ) PLANE_ANGLE_UNIT ( ) SI_UNIT ( $, .RADIAN. ) );
#187 =( LENGTH_UNIT ( ) NAMED_UNIT ( * ) SI_UNIT ( .MILLI., .METRE. ) );
#188 = ORIENTED_EDGE ( 'NONE', *, *, #494, .T. ) ;
#189 = VERTEX_POINT ( 'NONE', #470 ) ;
#190 = DIRECTION ( 'NONE',  ( 1.734723475976806848E-16, 0.000000000000000000, 1.000000000000000000 ) ) ;
#191 = ORIENTED_EDGE ( 'NONE', *, *, #38, .T. ) ;
#192 = PRODUCT_DEFINITION_FORMATION_WITH_SPECIFIED_SOURCE ( 'ANY', '', #623, .NOT_KNOWN. ) ;
#193 = ORIENTED_EDGE ( 'NONE', *, *, #681, .F. ) ;
#194 = EDGE_CURVE ( 'NONE', #1131, #717, #376, .T. ) ;
#195 = ORIENTED_EDGE ( 'NONE', *, *, #900, .T. ) ;
#196 = AXIS2_PLACEMENT_3D ( 'NONE', #515, #847, #1059 ) ;
#197 = DIRECTION ( 'NONE',  ( 1.176024739753907999E-16, 0.000000000000000000, 1.000000000000000000 ) ) ;
#198 = MECHANICAL_DESIGN_GEOMETRIC_PRESENTATION_REPRESENTATION (  '', ( #1043 ), #391 ) ;
#199 = LINE ( 'NONE', #652, #913 ) ;
#200 = PRESENTATION_STYLE_ASSIGNMENT (( #85 ) ) ;
#201 = DIRECTION ( 'NONE',  ( -0.000000000000000000, -0.000000000000000000, 1.000000000000000000 ) ) ;
#202 = DIRECTION ( 'NONE',  ( 0.000000000000000000, 0.000000000000000000, -1.000000000000000000 ) ) ;
#203 = UNCERTAINTY_MEASURE_WITH_UNIT (LENGTH_MEASURE( 1.000000000000000082E-05 ), #13, 'distance_accuracy_value', 'NONE');
#204 = CIRCLE ( 'NONE', #1272, 2.100000000000000977 ) ;
#205 =( NAMED_UNIT ( * ) PLANE_ANGLE_UNIT ( ) SI_UNIT ( $, .RADIAN. ) );
#206 = ORIENTED_EDGE ( 'NONE', *, *, #341, .T. ) ;
#207 = CARTESIAN_POINT ( 'NONE',  ( -34.99999999999998579, 13.99999999999999822, 29.99999999999999645 ) ) ;
#208 = CARTESIAN_POINT ( 'NONE',  ( 35.00000000000002132, 0.000000000000000000, -4.400000000000008349 ) ) ;
#209 = ORIENTED_EDGE ( 'NONE', *, *, #668, .T. ) ;
#210 = EDGE_LOOP ( 'NONE', ( #1219, #654 ) ) ;
#211 = EDGE_CURVE ( 'NONE', #1309, #387, #1026, .T. ) ;
#212 = DIRECTION ( 'NONE',  ( -0.000000000000000000, 1.000000000000000000, -0.000000000000000000 ) ) ;
#213 =( LENGTH_UNIT ( ) NAMED_UNIT ( * ) SI_UNIT ( .MILLI., .METRE. ) );
#214 = VECTOR ( 'NONE', #661, 1000.000000000000000 ) ;
#215 = SURFACE_STYLE_USAGE ( .BOTH. , #819 ) ;
#216 = CARTESIAN_POINT ( 'NONE',  ( 18.00000000000000711, 5.499999999999998224, 28.00000000000000000 ) ) ;
#217 = PLANE ( 'NONE',  #478 ) ;
#218 = FACE_OUTER_BOUND ( 'NONE', #287, .T. ) ;
#219 = CARTESIAN_POINT ( 'NONE',  ( 35.00000000000002132, 2.000000000000000000, -24.50000000000000711 ) ) ;
#220 = EDGE_CURVE ( 'NONE', #1070, #105, #588, .T. ) ;
#221 = ORIENTED_EDGE ( 'NONE', *, *, #437, .F. ) ;
#222 = ORIENTED_EDGE ( 'NONE', *, *, #1281, .F. ) ;
#223 = VERTEX_POINT ( 'NONE', #375 ) ;
#224 = EDGE_LOOP ( 'NONE', ( #1106, #400 ) ) ;
#225 = CARTESIAN_POINT ( 'NONE',  ( -34.99999999999999289, 2.000000000000000000, -4.400000000000008349 ) ) ;
#226 = ADVANCED_FACE ( 'NONE', ( #124 ), #1302, .T. ) ;
#227 = CARTESIAN_POINT ( 'NONE',  ( 18.00000000000000711, 16.49999999999999645, 40.00000000000000000 ) ) ;
#228 = VECTOR ( 'NONE', #1011, 1000.000000000000000 ) ;
#229 = DIRECTION ( 'NONE',  ( -7.129000586206057066E-16, -0.000000000000000000, -1.000000000000000000 ) ) ;
#230 = COLOUR_RGB ( '',0.2509803921568627416, 0.2509803921568627416, 0.2509803921568627416 ) ;
#231 = ORIENTED_EDGE ( 'NONE', *, *, #341, .F. ) ;
#232 = CARTESIAN_POINT ( 'NONE',  ( 21.49999999999999645, 11.00000000000000000, -10.00000000000000888 ) ) ;
#233 = ORIENTED_EDGE ( 'NONE', *, *, #1251, .F. ) ;
#234 = ORIENTED_EDGE ( 'NONE', *, *, #1251, .T. ) ;
#235 = ORIENTED_EDGE ( 'NONE', *, *, #887, .F. ) ;
#236 = EDGE_CURVE ( 'NONE', #993, #247, #537, .T. ) ;
#237 = EDGE_LOOP ( 'NONE', ( #425, #1005, #503 ) ) ;
#238 = AXIS2_PLACEMENT_3D ( 'NONE', #1137, #402, #120 ) ;
#239 = DIRECTION ( 'NONE',  ( -0.000000000000000000, -1.000000000000000000, -0.000000000000000000 ) ) ;
#240 = DIRECTION ( 'NONE',  ( 1.000000000000000000, 0.000000000000000000, 0.000000000000000000 ) ) ;
#241 = VECTOR ( 'NONE', #229, 1000.000000000000000 ) ;
#242 = LINE ( 'NONE', #581, #648 ) ;
#243 = ADVANCED_FACE ( 'NONE', ( #523 ), #266, .F. ) ;
#244 =( NAMED_UNIT ( * ) PLANE_ANGLE_UNIT ( ) SI_UNIT ( $, .RADIAN. ) );
#245 = EDGE_LOOP ( 'NONE', ( #757, #699, #1151, #273, #195, #794, #1229, #826 ) ) ;
#246 = FACE_OUTER_BOUND ( 'NONE', #1021, .T. ) ;
#247 = VERTEX_POINT ( 'NONE', #1306 ) ;
#248 = DIRECTION ( 'NONE',  ( -1.000000000000000000, 0.000000000000000000, 0.000000000000000000 ) ) ;
#249 = ORIENTED_EDGE ( 'NONE', *, *, #969, .F. ) ;
#250 = DIRECTION ( 'NONE',  ( 0.000000000000000000, 0.000000000000000000, 1.000000000000000000 ) ) ;
#251 = CARTESIAN_POINT ( 'NONE',  ( -34.99999999999999289, 2.000000000000000000, -4.400000000000008349 ) ) ;
#252 = PLANE ( 'NONE',  #539 ) ;
#253 = AXIS2_PLACEMENT_3D ( 'NONE', #403, #1135, #831 ) ;
#254 = DIRECTION ( 'NONE',  ( -8.673617379884035472E-17, -0.000000000000000000, -1.000000000000000000 ) ) ;
#255 = VECTOR ( 'NONE', #303, 1000.000000000000000 ) ;
#256 = VECTOR ( 'NONE', #161, 1000.000000000000000 ) ;
#257 = VECTOR ( 'NONE', #1149, 1000.000000000000000 ) ;
#258 = ORIENTED_EDGE ( 'NONE', *, *, #636, .T. ) ;
#259 = CARTESIAN_POINT ( 'NONE',  ( -34.99999999999999289, 13.99999999999999822, -10.00000000000000888 ) ) ;
#260 = EDGE_CURVE ( 'NONE', #272, #1168, #466, .T. ) ;
#261 = ORIENTED_EDGE ( 'NONE', *, *, #127, .F. ) ;
#262 =( NAMED_UNIT ( * ) SI_UNIT ( $, .STERADIAN. ) SOLID_ANGLE_UNIT ( ) );
#263 = ORIENTED_EDGE ( 'NONE', *, *, #655, .T. ) ;
#264 = SURFACE_STYLE_USAGE ( .BOTH. , #1023 ) ;
#265 = CARTESIAN_POINT ( 'NONE',  ( -34.99999999999998579, 13.99999999999999822, 29.99999999999999645 ) ) ;
#266 = CYLINDRICAL_SURFACE ( 'NONE', #389, 21.50000000000000000 ) ;
#267 = CARTESIAN_POINT ( 'NONE',  ( 18.00000000000000711, 5.499999999999998224, 28.00000000000000000 ) ) ;
#268 = CARTESIAN_POINT ( 'NONE',  ( 15.90000000000000391, 16.49999999999999645, 40.00000000000000000 ) ) ;
#269 = VECTOR ( 'NONE', #190, 1000.000000000000000 ) ;
#270 = SURFACE_SIDE_STYLE ('',( #392 ) ) ;
#271 = EDGE_CURVE ( 'NONE', #860, #78, #1136, .T. ) ;
#272 = VERTEX_POINT ( 'NONE', #1200 ) ;
#273 = ORIENTED_EDGE ( 'NONE', *, *, #1101, .T. ) ;
#274 = ORIENTED_EDGE ( 'NONE', *, *, #765, .F. ) ;
#275 = CARTESIAN_POINT ( 'NONE',  ( 18.00000000000000711, 16.49999999999999645, 40.00000000000000000 ) ) ;
#276 = ORIENTED_EDGE ( 'NONE', *, *, #681, .T. ) ;
#277 = AXIS2_PLACEMENT_3D ( 'NONE', #489, #590, #1004 ) ;
#278 = DIRECTION ( 'NONE',  ( -0.000000000000000000, 1.000000000000000000, -0.000000000000000000 ) ) ;
#279 = AXIS2_PLACEMENT_3D ( 'NONE', #1062, #61, #1069 ) ;
#280 = CONICAL_SURFACE ( 'NONE', #1292, 2.099999999999997868, 1.029744258676652757 ) ;
#281 = DIRECTION ( 'NONE',  ( -0.000000000000000000, -1.000000000000000000, -0.000000000000000000 ) ) ;
#282 = CARTESIAN_POINT ( 'NONE',  ( 0.000000000000000000, 13.99999999999999822, 0.000000000000000000 ) ) ;
#283 = PRESENTATION_STYLE_ASSIGNMENT (( #264 ) ) ;
#284 = CARTESIAN_POINT ( 'NONE',  ( -34.99999999999998579, 0.000000000000000000, 40.00000000000000711 ) ) ;
#285 = VECTOR ( 'NONE', #169, 1000.000000000000000 ) ;
#286 = CARTESIAN_POINT ( 'NONE',  ( 35.00000000000002132, 2.000000000000000000, -4.400000000000008349 ) ) ;
#287 = EDGE_LOOP ( 'NONE', ( #1282, #396, #571, #430, #919, #1182, #23, #1215, #841, #771, #119, #28 ) ) ;
#288 = ADVANCED_BREP_SHAPE_REPRESENTATION ( '03_Deckelanschlag', ( #1010, #804 ), #562 ) ;
#289 = EDGE_LOOP ( 'NONE', ( #321, #334, #875, #1133 ) ) ;
#290 = VERTEX_POINT ( 'NONE', #90 ) ;
#291 = ORIENTED_EDGE ( 'NONE', *, *, #1017, .F. ) ;
#292 = DIRECTION ( 'NONE',  ( -0.000000000000000000, 1.000000000000000000, 0.000000000000000000 ) ) ;
#293 =( GEOMETRIC_REPRESENTATION_CONTEXT ( 3 ) GLOBAL_UNCERTAINTY_ASSIGNED_CONTEXT ( ( #32 ) ) GLOBAL_UNIT_ASSIGNED_CONTEXT ( ( #126, #522, #1263 ) ) REPRESENTATION_CONTEXT ( 'NONE', 'WORKASPACE' ) );
#294 = CIRCLE ( 'NONE', #978, 2.499999999999998668 ) ;
#295 = DIRECTION ( 'NONE',  ( -0.000000000000000000, -0.000000000000000000, 1.000000000000000000 ) ) ;
#296 = VECTOR ( 'NONE', #349, 1000.000000000000000 ) ;
#297 = VECTOR ( 'NONE', #806, 1000.000000000000000 ) ;
#298 = DIRECTION ( 'NONE',  ( -1.000000000000000000, -0.000000000000000000, -0.000000000000000000 ) ) ;
#299 = FILL_AREA_STYLE ('',( #122 ) ) ;
#300 = VECTOR ( 'NONE', #1037, 1000.000000000000000 ) ;
#301 = EDGE_LOOP ( 'NONE', ( #749, #808, #354, #580 ) ) ;
#302 = VERTEX_POINT ( 'NONE', #676 ) ;
#303 = DIRECTION ( 'NONE',  ( -0.000000000000000000, -1.000000000000000000, -0.000000000000000000 ) ) ;
#304 = VECTOR ( 'NONE', #901, 1000.000000000000000 ) ;
#305 = ORIENTED_EDGE ( 'NONE', *, *, #220, .T. ) ;
#306 = ORIENTED_EDGE ( 'NONE', *, *, #194, .F. ) ;
#307 = PLANE ( 'NONE',  #1227 ) ;
#308 = DIRECTION ( 'NONE',  ( -0.000000000000000000, -1.000000000000000000, -0.000000000000000000 ) ) ;
#309 = VECTOR ( 'NONE', #563, 1000.000000000000000 ) ;
#310 = CARTESIAN_POINT ( 'NONE',  ( -34.99999999999998579, 22.00000000000000000, 29.99999999999999645 ) ) ;
#311 = DIRECTION ( 'NONE',  ( -0.000000000000000000, 1.000000000000000000, -0.000000000000000000 ) ) ;
#312 = CONICAL_SURFACE ( 'NONE', #629, 2.099999999999997868, 1.029744258676652757 ) ;
#313 = VECTOR ( 'NONE', #64, 1000.000000000000000 ) ;
#314 = CARTESIAN_POINT ( 'NONE',  ( 35.00000000000001421, 0.000000000000000000, -40.00000000000000711 ) ) ;
#315 = CARTESIAN_POINT ( 'NONE',  ( 18.00000000000000711, 5.499999999999998224, 28.00000000000000000 ) ) ;
#316 = ORIENTED_EDGE ( 'NONE', *, *, #604, .F. ) ;
#317 = ADVANCED_FACE ( 'NONE', ( #62 ), #280, .F. ) ;
#318 = PRESENTATION_LAYER_ASSIGNMENT (  '', '', ( #759 ) ) ;
#319 = CARTESIAN_POINT ( 'NONE',  ( 35.00000000000002132, 0.000000000000000000, 39.99999999999999289 ) ) ;
#320 = ORIENTED_EDGE ( 'NONE', *, *, #773, .F. ) ;
#321 = ORIENTED_EDGE ( 'NONE', *, *, #703, .T. ) ;
#322 = DIRECTION ( 'NONE',  ( 0.000000000000000000, 1.000000000000000000, 0.000000000000000000 ) ) ;
#323 = VERTEX_POINT ( 'NONE', #557 ) ;
#324 = DIRECTION ( 'NONE',  ( 0.000000000000000000, -1.000000000000000000, 0.000000000000000000 ) ) ;
#325 = CARTESIAN_POINT ( 'NONE',  ( 35.00000000000001421, 0.000000000000000000, -40.00000000000000711 ) ) ;
#326 = DIRECTION ( 'NONE',  ( 0.000000000000000000, 0.000000000000000000, -1.000000000000000000 ) ) ;
#327 = DIRECTION ( 'NONE',  ( 0.000000000000000000, 0.000000000000000000, 1.000000000000000000 ) ) ;
#328 = VECTOR ( 'NONE', #1080, 1000.000000000000000 ) ;
#329 = ADVANCED_FACE ( 'NONE', ( #1223 ), #368, .F. ) ;
#330 = LINE ( 'NONE', #416, #803 ) ;
#331 = DIRECTION ( 'NONE',  ( -0.000000000000000000, 1.000000000000000000, -0.000000000000000000 ) ) ;
#332 = DIRECTION ( 'NONE',  ( 1.000000000000000000, 0.000000000000000000, -0.000000000000000000 ) ) ;
#333 = EDGE_LOOP ( 'NONE', ( #736, #374 ) ) ;
#334 = ORIENTED_EDGE ( 'NONE', *, *, #552, .T. ) ;
#335 = DIRECTION ( 'NONE',  ( -1.000000000000000000, 0.000000000000000000, 1.176024739753907999E-16 ) ) ;
#336 = VERTEX_POINT ( 'NONE', #986 ) ;
#337 = ADVANCED_FACE ( 'NONE', ( #628 ), #170, .F. ) ;
#338 = PRODUCT_RELATED_PRODUCT_CATEGORY ( 'part', '', ( #623 ) ) ;
#339 = FACE_BOUND ( 'NONE', #920, .T. ) ;
#340 = DIRECTION ( 'NONE',  ( 0.000000000000000000, 0.000000000000000000, 1.000000000000000000 ) ) ;
#341 = EDGE_CURVE ( 'NONE', #302, #1122, #22, .T. ) ;
#342 = DIRECTION ( 'NONE',  ( -0.000000000000000000, -1.000000000000000000, -0.000000000000000000 ) ) ;
#343 = LINE ( 'NONE', #1089, #813 ) ;
#344 = CARTESIAN_POINT ( 'NONE',  ( -34.99999999999999289, 13.99999999999999822, -10.00000000000000888 ) ) ;
#345 = CARTESIAN_POINT ( 'NONE',  ( -26.00000000000003197, 22.00000000000000000, -11.95000000000001883 ) ) ;
#346 = ADVANCED_FACE ( 'NONE', ( #682, #339, #529 ), #994, .F. ) ;
#347 = DIRECTION ( 'NONE',  ( 0.000000000000000000, 0.000000000000000000, -1.000000000000000000 ) ) ;
#348 = FACE_OUTER_BOUND ( 'NONE', #410, .T. ) ;
#349 = DIRECTION ( 'NONE',  ( -1.000000000000000000, 0.000000000000000000, 0.000000000000000000 ) ) ;
#350 = LINE ( 'NONE', #812, #112 ) ;
#351 = DIRECTION ( 'NONE',  ( -0.000000000000000000, -1.000000000000000000, -0.000000000000000000 ) ) ;
#352 = ORIENTED_EDGE ( 'NONE', *, *, #497, .T. ) ;
#353 = FILL_AREA_STYLE ('',( #770 ) ) ;
#354 = ORIENTED_EDGE ( 'NONE', *, *, #1266, .F. ) ;
#355 = VERTEX_POINT ( 'NONE', #100 ) ;
#356 = ORIENTED_EDGE ( 'NONE', *, *, #1197, .F. ) ;
#357 = CARTESIAN_POINT ( 'NONE',  ( 2.775557561562891351E-14, 13.99999999999999822, 11.49999999999998579 ) ) ;
#358 = DIRECTION ( 'NONE',  ( 0.000000000000000000, 0.000000000000000000, -1.000000000000000000 ) ) ;
#359 = DIRECTION ( 'NONE',  ( 2.478176394252581387E-17, 0.000000000000000000, -1.000000000000000000 ) ) ;
#360 = DIRECTION ( 'NONE',  ( 1.000000000000000000, 0.000000000000000000, -4.956352788505162775E-17 ) ) ;
#361 = VECTOR ( 'NONE', #709, 1000.000000000000000 ) ;
#362 = LINE ( 'NONE', #538, #1113 ) ;
#363 = CARTESIAN_POINT ( 'NONE',  ( -34.99999999999999289, 2.000000000000000000, -24.50000000000000711 ) ) ;
#364 = EDGE_CURVE ( 'NONE', #717, #979, #561, .T. ) ;
#365 = AXIS2_PLACEMENT_3D ( 'NONE', #160, #1075, #1277 ) ;
#366 = DIRECTION ( 'NONE',  ( 1.000000000000000000, 0.000000000000000000, -4.956352788505162775E-17 ) ) ;
#367 = EDGE_CURVE ( 'NONE', #860, #753, #527, .T. ) ;
#368 = CYLINDRICAL_SURFACE ( 'NONE', #1301, 2.100000000000000977 ) ;
#369 = ORIENTED_EDGE ( 'NONE', *, *, #887, .T. ) ;
#370 = DIRECTION ( 'NONE',  ( -1.000000000000000000, 0.000000000000000000, -2.478176394252581387E-17 ) ) ;
#371 = CYLINDRICAL_SURFACE ( 'NONE', #74, 2.499999999999998668 ) ;
#372 = ORIENTED_EDGE ( 'NONE', *, *, #65, .F. ) ;
#373 = UNCERTAINTY_MEASURE_WITH_UNIT (LENGTH_MEASURE( 1.000000000000000082E-05 ), #671, 'distance_accuracy_value', 'NONE');
#374 = ORIENTED_EDGE ( 'NONE', *, *, #91, .F. ) ;
#375 = CARTESIAN_POINT ( 'NONE',  ( 21.49999999999997513, 22.00000000000000000, -40.00000000000001421 ) ) ;
#376 = LINE ( 'NONE', #458, #401 ) ;
#377 = EDGE_CURVE ( 'NONE', #1050, #272, #1305, .T. ) ;
#378 = CARTESIAN_POINT ( 'NONE',  ( 0.000000000000000000, 11.00000000000000000, 0.000000000000000000 ) ) ;
#379 = FACE_BOUND ( 'NONE', #876, .T. ) ;
#380 = PRESENTATION_STYLE_ASSIGNMENT (( #829 ) ) ;
#381 = CARTESIAN_POINT ( 'NONE',  ( 35.00000000000002132, 13.99999999999999822, -10.00000000000000711 ) ) ;
#382 = CARTESIAN_POINT ( 'NONE',  ( -21.49999999999997513, 11.00000000000000000, -40.00000000000000711 ) ) ;
#383 = ORIENTED_EDGE ( 'NONE', *, *, #1313, .T. ) ;
#384 = ORIENTED_EDGE ( 'NONE', *, *, #1189, .T. ) ;
#385 = CARTESIAN_POINT ( 'NONE',  ( 25.99999999999998579, 2.000000000000000000, -11.95000000000001172 ) ) ;
#386 = DIRECTION ( 'NONE',  ( -1.982541115402065110E-16, 0.000000000000000000, -1.000000000000000000 ) ) ;
#387 = VERTEX_POINT ( 'NONE', #1216 ) ;
#388 = EDGE_LOOP ( 'NONE', ( #121, #822, #1262, #989 ) ) ;
#389 = AXIS2_PLACEMENT_3D ( 'NONE', #467, #1098, #675 ) ;
#390 = DIRECTION ( 'NONE',  ( 0.000000000000000000, 0.000000000000000000, 1.000000000000000000 ) ) ;
#391 =( GEOMETRIC_REPRESENTATION_CONTEXT ( 3 ) GLOBAL_UNCERTAINTY_ASSIGNED_CONTEXT ( ( #853 ) ) GLOBAL_UNIT_ASSIGNED_CONTEXT ( ( #187, #781, #577 ) ) REPRESENTATION_CONTEXT ( 'NONE', 'WORKASPACE' ) );
#392 = SURFACE_STYLE_FILL_AREA ( #898 ) ;
#393 = VECTOR ( 'NONE', #1036, 1000.000000000000000 ) ;
#394 = LINE ( 'NONE', #734, #141 ) ;
#395 = FACE_OUTER_BOUND ( 'NONE', #1293, .T. ) ;
#396 = ORIENTED_EDGE ( 'NONE', *, *, #773, .T. ) ;
#397 = ORIENTED_EDGE ( 'NONE', *, *, #741, .F. ) ;
#398 = VERTEX_POINT ( 'NONE', #990 ) ;
#399 = DIRECTION ( 'NONE',  ( 0.000000000000000000, -0.000000000000000000, -1.000000000000000000 ) ) ;
#400 = ORIENTED_EDGE ( 'NONE', *, *, #818, .T. ) ;
#401 = VECTOR ( 'NONE', #82, 1000.000000000000000 ) ;
#402 = DIRECTION ( 'NONE',  ( -0.000000000000000000, -0.000000000000000000, 1.000000000000000000 ) ) ;
#403 = CARTESIAN_POINT ( 'NONE',  ( 0.000000000000000000, 0.000000000000000000, 0.000000000000000000 ) ) ;
#404 = VECTOR ( 'NONE', #331, 1000.000000000000000 ) ;
#405 = CARTESIAN_POINT ( 'NONE',  ( 25.99999999999998579, 2.000000000000000000, -16.95000000000000639 ) ) ;
#406 = PRESENTATION_LAYER_ASSIGNMENT (  '', '', ( #1063 ) ) ;
#407 = LINE ( 'NONE', #1225, #892 ) ;
#408 = AXIS2_PLACEMENT_3D ( 'NONE', #1094, #386, #1111 ) ;
#409 = DIRECTION ( 'NONE',  ( -0.000000000000000000, -1.000000000000000000, -0.000000000000000000 ) ) ;
#410 = EDGE_LOOP ( 'NONE', ( #14, #1034, #789, #1312 ) ) ;
#411 = PRESENTATION_STYLE_ASSIGNMENT (( #1289 ) ) ;
#412 = DIRECTION ( 'NONE',  ( -0.000000000000000000, -0.000000000000000000, 1.000000000000000000 ) ) ;
#413 = ORIENTED_EDGE ( 'NONE', *, *, #895, .F. ) ;
#414 = EDGE_LOOP ( 'NONE', ( #1038, #828, #617, #582, #444, #690 ) ) ;
#415 = DIRECTION ( 'NONE',  ( -8.673617379884035472E-17, -0.000000000000000000, -1.000000000000000000 ) ) ;
#416 = CARTESIAN_POINT ( 'NONE',  ( 20.10000000000000497, 5.499999999999998224, 28.00000000000000000 ) ) ;
#417 = FACE_OUTER_BOUND ( 'NONE', #147, .T. ) ;
#418 = ADVANCED_FACE ( 'NONE', ( #626, #728 ), #903, .F. ) ;
#419 = DIRECTION ( 'NONE',  ( 0.000000000000000000, 0.000000000000000000, -1.000000000000000000 ) ) ;
#420 = VECTOR ( 'NONE', #429, 1000.000000000000000 ) ;
#421 = LINE ( 'NONE', #910, #946 ) ;
#422 = DIRECTION ( 'NONE',  ( 1.000000000000000000, 0.000000000000000000, -1.176024739753907999E-16 ) ) ;
#423 = EDGE_LOOP ( 'NONE', ( #131, #1003, #188, #1275, #234 ) ) ;
#424 = SURFACE_SIDE_STYLE ('',( #1102 ) ) ;
#425 = ORIENTED_EDGE ( 'NONE', *, *, #668, .F. ) ;
#426 = SURFACE_STYLE_FILL_AREA ( #554 ) ;
#427 = VERTEX_POINT ( 'NONE', #284 ) ;
#428 = STYLED_ITEM ( 'NONE', ( #411 ), #1255 ) ;
#429 = DIRECTION ( 'NONE',  ( 1.000000000000000000, 0.000000000000000000, -4.956352788505162775E-17 ) ) ;
#430 = ORIENTED_EDGE ( 'NONE', *, *, #1101, .F. ) ;
#431 = VECTOR ( 'NONE', #570, 1000.000000000000000 ) ;
#432 = DIRECTION ( 'NONE',  ( 1.176024739753907999E-16, 0.000000000000000000, 1.000000000000000000 ) ) ;
#433 = CARTESIAN_POINT ( 'NONE',  ( 35.00000000000001421, 22.00000000000000000, -40.00000000000000711 ) ) ;
#434 = LINE ( 'NONE', #134, #666 ) ;
#435 = FACE_OUTER_BOUND ( 'NONE', #896, .T. ) ;
#436 = DIRECTION ( 'NONE',  ( 0.000000000000000000, 0.000000000000000000, -1.000000000000000000 ) ) ;
#437 = EDGE_CURVE ( 'NONE', #939, #463, #695, .T. ) ;
#438 = ORIENTED_EDGE ( 'NONE', *, *, #45, .F. ) ;
#439 = ADVANCED_FACE ( 'NONE', ( #435 ), #807, .T. ) ;
#440 = CARTESIAN_POINT ( 'NONE',  ( 2.775557561562891351E-14, 11.00000000000000000, 11.49999999999998579 ) ) ;
#441 = ORIENTED_EDGE ( 'NONE', *, *, #795, .T. ) ;
#442 = ORIENTED_EDGE ( 'NONE', *, *, #1130, .T. ) ;
#443 = CARTESIAN_POINT ( 'NONE',  ( -26.00000000000003197, 2.000000000000000000, -14.45000000000001528 ) ) ;
#444 = ORIENTED_EDGE ( 'NONE', *, *, #558, .F. ) ;
#445 = DIRECTION ( 'NONE',  ( -1.000000000000000000, 0.000000000000000000, 0.000000000000000000 ) ) ;
#446 = DIRECTION ( 'NONE',  ( -0.000000000000000000, -0.000000000000000000, 1.000000000000000000 ) ) ;
#447 = DIRECTION ( 'NONE',  ( -0.000000000000000000, 1.000000000000000000, -0.000000000000000000 ) ) ;
#448 = CARTESIAN_POINT ( 'NONE',  ( -34.99999999999999289, 22.00000000000000000, -10.00000000000000888 ) ) ;
#449 = AXIS2_PLACEMENT_3D ( 'NONE', #315, #1250, #1259 ) ;
#450 =( GEOMETRIC_REPRESENTATION_CONTEXT ( 3 ) GLOBAL_UNCERTAINTY_ASSIGNED_CONTEXT ( ( #373 ) ) GLOBAL_UNIT_ASSIGNED_CONTEXT ( ( #671, #186, #1104 ) ) REPRESENTATION_CONTEXT ( 'NONE', 'WORKASPACE' ) );
#451 = DIRECTION ( 'NONE',  ( -0.000000000000000000, 1.000000000000000000, -0.000000000000000000 ) ) ;
#452 = VECTOR ( 'NONE', #67, 1000.000000000000000 ) ;
#453 = AXIS2_PLACEMENT_3D ( 'NONE', #1308, #473, #1100 ) ;
#454 = SURFACE_STYLE_FILL_AREA ( #462 ) ;
#455 = CARTESIAN_POINT ( 'NONE',  ( -34.99999999999998579, 22.00000000000000000, 29.99999999999999645 ) ) ;
#456 = EDGE_CURVE ( 'NONE', #635, #769, #407, .T. ) ;
#457 = FACE_BOUND ( 'NONE', #163, .T. ) ;
#458 = CARTESIAN_POINT ( 'NONE',  ( -21.49999999999997513, 11.00000000000000000, -40.00000000000000711 ) ) ;
#459 = DIRECTION ( 'NONE',  ( -0.000000000000000000, -1.000000000000000000, -0.000000000000000000 ) ) ;
#460 = EDGE_LOOP ( 'NONE', ( #221, #713, #276, #1221 ) ) ;
#461 = VECTOR ( 'NONE', #366, 1000.000000000000000 ) ;
#462 = FILL_AREA_STYLE ('',( #555 ) ) ;
#463 = VERTEX_POINT ( 'NONE', #4 ) ;
#464 = CLOSED_SHELL ( 'NONE', ( #622, #960, #317, #1265, #54, #137, #1048, #418, #1163, #844, #346, #133, #1147, #849, #624, #1172, #738, #439, #243, #521, #226, #950, #337, #642, #966, #1278, #745, #1056, #632, #1267, #149, #153, #755, #1051, #1255, #329 ) ) ;
#465 =( NAMED_UNIT ( * ) SI_UNIT ( $, .STERADIAN. ) SOLID_ANGLE_UNIT ( ) );
#466 = LINE ( 'NONE', #780, #214 ) ;
#467 = CARTESIAN_POINT ( 'NONE',  ( 1.242822435528589013E-14, 11.00000000000000000, 11.49999999999998934 ) ) ;
#468 =( NAMED_UNIT ( * ) PLANE_ANGLE_UNIT ( ) SI_UNIT ( $, .RADIAN. ) );
#469 = LINE ( 'NONE', #433, #86 ) ;
#470 = CARTESIAN_POINT ( 'NONE',  ( -21.49999999999997513, 22.00000000000000000, -40.00000000000000711 ) ) ;
#471 = EDGE_CURVE ( 'NONE', #530, #12, #350, .T. ) ;
#472 = FACE_OUTER_BOUND ( 'NONE', #177, .T. ) ;
#473 = DIRECTION ( 'NONE',  ( -0.000000000000000000, -1.000000000000000000, -0.000000000000000000 ) ) ;
#474 = CIRCLE ( 'NONE', #996, 21.50000000000000000 ) ;
#475 = ORIENTED_EDGE ( 'NONE', *, *, #765, .T. ) ;
#476 = CARTESIAN_POINT ( 'NONE',  ( 25.99999999999998579, 22.00000000000000000, -14.45000000000000817 ) ) ;
#477 = ORIENTED_EDGE ( 'NONE', *, *, #867, .T. ) ;
#478 = AXIS2_PLACEMENT_3D ( 'NONE', #501, #605, #1245 ) ;
#479 = CARTESIAN_POINT ( 'NONE',  ( 10.95445115010332238, 13.99999999999999822, 29.99999999999999645 ) ) ;
#480 = ORIENTED_EDGE ( 'NONE', *, *, #1206, .T. ) ;
#481 = CARTESIAN_POINT ( 'NONE',  ( 1.242822435528589013E-14, 11.00000000000000000, 11.49999999999998934 ) ) ;
#482 = CYLINDRICAL_SURFACE ( 'NONE', #1186, 2.100000000000000977 ) ;
#483 = VECTOR ( 'NONE', #620, 1000.000000000000000 ) ;
#484 = DIRECTION ( 'NONE',  ( 8.673617379884034239E-17, 0.000000000000000000, 1.000000000000000000 ) ) ;
#485 = CARTESIAN_POINT ( 'NONE',  ( 20.10000000000000853, 5.499999999999998224, 40.00000000000000000 ) ) ;
#486 = ORIENTED_EDGE ( 'NONE', *, *, #144, .T. ) ;
#487 = ORIENTED_EDGE ( 'NONE', *, *, #520, .T. ) ;
#488 = CARTESIAN_POINT ( 'NONE',  ( -34.99999999999999289, 0.000000000000000000, -40.00000000000000711 ) ) ;
#489 = CARTESIAN_POINT ( 'NONE',  ( 2.775557561562891351E-14, 11.00000000000000000, 11.49999999999998579 ) ) ;
#490 = ORIENTED_EDGE ( 'NONE', *, *, #1093, .F. ) ;
#491 = ORIENTED_EDGE ( 'NONE', *, *, #38, .F. ) ;
#492 = ORIENTED_EDGE ( 'NONE', *, *, #665, .T. ) ;
#493 = CARTESIAN_POINT ( 'NONE',  ( -3.999999999999995559, 11.00000000000000000, 32.62463017427758416 ) ) ;
#494 = EDGE_CURVE ( 'NONE', #1307, #971, #746, .T. ) ;
#495 = DIRECTION ( 'NONE',  ( -0.000000000000000000, 1.000000000000000000, -0.000000000000000000 ) ) ;
#496 = VECTOR ( 'NONE', #447, 1000.000000000000000 ) ;
#497 = EDGE_CURVE ( 'NONE', #189, #937, #242, .T. ) ;
#498 = VECTOR ( 'NONE', #37, 1000.000000000000000 ) ;
#499 = CARTESIAN_POINT ( 'NONE',  ( 21.49999999999997513, 11.00000000000000000, -40.00000000000001421 ) ) ;
#500 = ORIENTED_EDGE ( 'NONE', *, *, #748, .T. ) ;
#501 = CARTESIAN_POINT ( 'NONE',  ( -34.99999999999999289, 13.99999999999999822, -10.00000000000000888 ) ) ;
#502 = EDGE_CURVE ( 'NONE', #1068, #1035, #421, .T. ) ;
#503 = ORIENTED_EDGE ( 'NONE', *, *, #644, .T. ) ;
#504 = CYLINDRICAL_SURFACE ( 'NONE', #944, 2.499999999999998668 ) ;
#505 = ORIENTED_EDGE ( 'NONE', *, *, #627, .T. ) ;
#506 = ORIENTED_EDGE ( 'NONE', *, *, #644, .F. ) ;
#507 = DIRECTION ( 'NONE',  ( -8.673617379884035472E-17, -0.000000000000000000, -1.000000000000000000 ) ) ;
#508 = APPLICATION_CONTEXT ( 'automotive_design' ) ;
#509 = VECTOR ( 'NONE', #1145, 1000.000000000000000 ) ;
#510 = CARTESIAN_POINT ( 'NONE',  ( 20.10000000000000853, 5.499999999999998224, 40.00000000000000000 ) ) ;
#511 = FACE_OUTER_BOUND ( 'NONE', #1001, .T. ) ;
#512 = AXIS2_PLACEMENT_3D ( 'NONE', #1028, #1234, #816 ) ;
#513 = CARTESIAN_POINT ( 'NONE',  ( 2.775557561562891351E-14, 22.00000000000000000, 11.49999999999998579 ) ) ;
#514 = CIRCLE ( 'NONE', #923, 21.50000000000000000 ) ;
#515 = CARTESIAN_POINT ( 'NONE',  ( 25.99999999999998579, 2.000000000000000000, -14.45000000000000817 ) ) ;
#516 = ORIENTED_EDGE ( 'NONE', *, *, #63, .F. ) ;
#517 = ORIENTED_EDGE ( 'NONE', *, *, #1189, .F. ) ;
#518 = DIRECTION ( 'NONE',  ( 0.000000000000000000, 0.000000000000000000, -1.000000000000000000 ) ) ;
#519 = EDGE_LOOP ( 'NONE', ( #752, #1264, #824, #258 ) ) ;
#520 = EDGE_CURVE ( 'NONE', #1311, #899, #174, .T. ) ;
#521 = ADVANCED_FACE ( 'NONE', ( #395 ), #142, .F. ) ;
#522 =( NAMED_UNIT ( * ) PLANE_ANGLE_UNIT ( ) SI_UNIT ( $, .RADIAN. ) );
#523 = FACE_OUTER_BOUND ( 'NONE', #414, .T. ) ;
#524 = CARTESIAN_POINT ( 'NONE',  ( -21.49999999999997513, 11.00000000000000000, -40.00000000000000711 ) ) ;
#525 = LINE ( 'NONE', #763, #50 ) ;
#526 = CARTESIAN_POINT ( 'NONE',  ( -26.00000000000003197, 2.000000000000000000, -14.45000000000001528 ) ) ;
#527 = CIRCLE ( 'NONE', #1040, 21.50000000000000000 ) ;
#528 = CARTESIAN_POINT ( 'NONE',  ( 21.49999999999997513, 11.00000000000000000, -40.00000000000001421 ) ) ;
#529 = FACE_OUTER_BOUND ( 'NONE', #245, .T. ) ;
#530 = VERTEX_POINT ( 'NONE', #208 ) ;
#531 = LINE ( 'NONE', #382, #1310 ) ;
#532 = EDGE_CURVE ( 'NONE', #57, #105, #1199, .T. ) ;
#533 = VERTEX_POINT ( 'NONE', #381 ) ;
#534 = DIRECTION ( 'NONE',  ( 0.000000000000000000, 0.000000000000000000, -1.000000000000000000 ) ) ;
#535 = ORIENTED_EDGE ( 'NONE', *, *, #846, .T. ) ;
#536 = CARTESIAN_POINT ( 'NONE',  ( 25.99999999999998579, 2.000000000000000000, -14.45000000000000817 ) ) ;
#537 = LINE ( 'NONE', #882, #431 ) ;
#538 = CARTESIAN_POINT ( 'NONE',  ( -21.49999999999997158, 11.00000000000000000, 11.49999999999998757 ) ) ;
#539 = AXIS2_PLACEMENT_3D ( 'NONE', #857, #335, #432 ) ;
#540 = DIRECTION ( 'NONE',  ( 0.000000000000000000, -0.000000000000000000, -1.000000000000000000 ) ) ;
#541 = SURFACE_STYLE_USAGE ( .BOTH. , #172 ) ;
#542 = LINE ( 'NONE', #977, #799 ) ;
#543 = CARTESIAN_POINT ( 'NONE',  ( -26.00000000000003197, 2.000000000000000000, -11.95000000000001705 ) ) ;
#544 = CARTESIAN_POINT ( 'NONE',  ( 35.00000000000001421, 0.000000000000000000, -40.00000000000000711 ) ) ;
#545 = CARTESIAN_POINT ( 'NONE',  ( 35.00000000000001421, 22.00000000000000000, -40.00000000000000711 ) ) ;
#546 = ORIENTED_EDGE ( 'NONE', *, *, #1009, .T. ) ;
#547 = VERTEX_POINT ( 'NONE', #576 ) ;
#548 = CARTESIAN_POINT ( 'NONE',  ( -3.999999999999995559, 11.00000000000000000, 32.62463017427758416 ) ) ;
#549 = ORIENTED_EDGE ( 'NONE', *, *, #236, .F. ) ;
#550 = PLANE ( 'NONE',  #365 ) ;
#551 = ORIENTED_EDGE ( 'NONE', *, *, #817, .F. ) ;
#552 = EDGE_CURVE ( 'NONE', #631, #290, #1288, .T. ) ;
#553 = SURFACE_STYLE_USAGE ( .BOTH. , #270 ) ;
#554 = FILL_AREA_STYLE ('',( #754 ) ) ;
#555 = FILL_AREA_STYLE_COLOUR ( '', #230 ) ;
#556 = AXIS2_PLACEMENT_3D ( 'NONE', #1283, #1164, #1274 ) ;
#557 = CARTESIAN_POINT ( 'NONE',  ( 20.10000000000000853, 16.49999999999999645, 29.99999999999999289 ) ) ;
#558 = EDGE_CURVE ( 'NONE', #1187, #1309, #679, .T. ) ;
#559 = SURFACE_STYLE_FILL_AREA ( #1091 ) ;
#560 = VECTOR ( 'NONE', #774, 1000.000000000000000 ) ;
#561 = LINE ( 'NONE', #1120, #99 ) ;
#562 =( GEOMETRIC_REPRESENTATION_CONTEXT ( 3 ) GLOBAL_UNCERTAINTY_ASSIGNED_CONTEXT ( ( #58 ) ) GLOBAL_UNIT_ASSIGNED_CONTEXT ( ( #1110, #468, #465 ) ) REPRESENTATION_CONTEXT ( 'NONE', 'WORKASPACE' ) );
#563 = DIRECTION ( 'NONE',  ( -0.000000000000000000, -1.000000000000000000, -0.000000000000000000 ) ) ;
#564 = EDGE_CURVE ( 'NONE', #463, #1166, #1178, .T. ) ;
#565 = ORIENTED_EDGE ( 'NONE', *, *, #948, .T. ) ;
#566 = CARTESIAN_POINT ( 'NONE',  ( -34.99999999999998579, 13.99999999999999822, 29.99999999999999645 ) ) ;
#567 = ORIENTED_EDGE ( 'NONE', *, *, #1009, .F. ) ;
#568 = CIRCLE ( 'NONE', #453, 2.499999999999995115 ) ;
#569 = ORIENTED_EDGE ( 'NONE', *, *, #65, .T. ) ;
#570 = DIRECTION ( 'NONE',  ( -0.000000000000000000, 1.000000000000000000, -0.000000000000000000 ) ) ;
#571 = ORIENTED_EDGE ( 'NONE', *, *, #969, .T. ) ;
#572 = AXIS2_PLACEMENT_3D ( 'NONE', #357, #1195, #250 ) ;
#573 = APPLICATION_PROTOCOL_DEFINITION ( 'draft international standard', 'automotive_design', 1998, #1211 ) ;
#574 = EDGE_CURVE ( 'NONE', #387, #43, #712, .T. ) ;
#575 = FACE_OUTER_BOUND ( 'NONE', #878, .T. ) ;
#576 = CARTESIAN_POINT ( 'NONE',  ( 25.99999999999998579, 2.000000000000000000, -11.95000000000000995 ) ) ;
#577 =( NAMED_UNIT ( * ) SI_UNIT ( $, .STERADIAN. ) SOLID_ANGLE_UNIT ( ) );
#578 = FACE_OUTER_BOUND ( 'NONE', #237, .T. ) ;
#579 = VECTOR ( 'NONE', #248, 1000.000000000000000 ) ;
#580 = ORIENTED_EDGE ( 'NONE', *, *, #929, .F. ) ;
#581 = CARTESIAN_POINT ( 'NONE',  ( -21.49999999999997513, 22.00000000000000000, -40.00000000000000711 ) ) ;
#582 = ORIENTED_EDGE ( 'NONE', *, *, #604, .T. ) ;
#583 = ORIENTED_EDGE ( 'NONE', *, *, #959, .T. ) ;
#584 = DIRECTION ( 'NONE',  ( 0.000000000000000000, 0.000000000000000000, 1.000000000000000000 ) ) ;
#585 = CARTESIAN_POINT ( 'NONE',  ( 35.00000000000002132, 22.00000000000000000, -10.00000000000000711 ) ) ;
#586 = ORIENTED_EDGE ( 'NONE', *, *, #929, .T. ) ;
#587 = DIRECTION ( 'NONE',  ( -0.000000000000000000, -0.000000000000000000, 1.000000000000000000 ) ) ;
#588 = LINE ( 'NONE', #363, #309 ) ;
#589 = DIRECTION ( 'NONE',  ( 4.956352788505162775E-17, 0.000000000000000000, 1.000000000000000000 ) ) ;
#590 = DIRECTION ( 'NONE',  ( 0.000000000000000000, -1.000000000000000000, 0.000000000000000000 ) ) ;
#591 =( NAMED_UNIT ( * ) SI_UNIT ( $, .STERADIAN. ) SOLID_ANGLE_UNIT ( ) );
#592 = VECTOR ( 'NONE', #484, 1000.000000000000000 ) ;
#593 = LINE ( 'NONE', #1060, #498 ) ;
#594 =( NAMED_UNIT ( * ) PLANE_ANGLE_UNIT ( ) SI_UNIT ( $, .RADIAN. ) );
#595 =( NAMED_UNIT ( * ) PLANE_ANGLE_UNIT ( ) SI_UNIT ( $, .RADIAN. ) );
#596 = VECTOR ( 'NONE', #600, 1000.000000000000000 ) ;
#597 = ORIENTED_EDGE ( 'NONE', *, *, #260, .T. ) ;
#598 = ORIENTED_EDGE ( 'NONE', *, *, #144, .F. ) ;
#599 = LINE ( 'NONE', #448, #1276 ) ;
#600 = DIRECTION ( 'NONE',  ( 0.000000000000000000, -1.000000000000000000, 0.000000000000000000 ) ) ;
#601 = ORIENTED_EDGE ( 'NONE', *, *, #740, .T. ) ;
#602 = ORIENTED_EDGE ( 'NONE', *, *, #532, .F. ) ;
#603 = PLANE ( 'NONE',  #612 ) ;
#604 = EDGE_CURVE ( 'NONE', #701, #1309, #1015, .T. ) ;
#605 = DIRECTION ( 'NONE',  ( 2.478176394252581387E-17, 0.000000000000000000, -1.000000000000000000 ) ) ;
#606 = CARTESIAN_POINT ( 'NONE',  ( 35.00000000000002132, 0.000000000000000000, -24.50000000000000711 ) ) ;
#607 = DIRECTION ( 'NONE',  ( 0.000000000000000000, -0.000000000000000000, -1.000000000000000000 ) ) ;
#608 = AXIS2_PLACEMENT_3D ( 'NONE', #42, #942, #135 ) ;
#609 = FACE_OUTER_BOUND ( 'NONE', #40, .T. ) ;
#610 = CIRCLE ( 'NONE', #449, 2.099999999999997868 ) ;
#611 = DIRECTION ( 'NONE',  ( 0.000000000000000000, -1.000000000000000000, 0.000000000000000000 ) ) ;
#612 = AXIS2_PLACEMENT_3D ( 'NONE', #926, #611, #399 ) ;
#613 = DIRECTION ( 'NONE',  ( 8.673617379884034239E-17, 0.000000000000000000, 1.000000000000000000 ) ) ;
#614 = EDGE_CURVE ( 'NONE', #164, #323, #967, .T. ) ;
#615 = VERTEX_POINT ( 'NONE', #711 ) ;
#616 = UNCERTAINTY_MEASURE_WITH_UNIT (LENGTH_MEASURE( 1.000000000000000082E-05 ), #1084, 'distance_accuracy_value', 'NONE');
#617 = ORIENTED_EDGE ( 'NONE', *, *, #17, .F. ) ;
#618 = CARTESIAN_POINT ( 'NONE',  ( 21.50000000000000355, 22.00000000000000000, -10.00000000000000711 ) ) ;
#619 = ORIENTED_EDGE ( 'NONE', *, *, #1150, .F. ) ;
#620 = DIRECTION ( 'NONE',  ( -0.8571673007021114454, 1.049727191138617586E-16, 0.5150380749100555988 ) ) ;
#621 = EDGE_LOOP ( 'NONE', ( #1217, #191, #442, #231 ) ) ;
#622 = ADVANCED_FACE ( 'NONE', ( #472 ), #930, .F. ) ;
#623 = PRODUCT ( '03_Deckelanschlag', '03_Deckelanschlag', '', ( #797 ) ) ;
#624 = ADVANCED_FACE ( 'NONE', ( #1271 ), #702, .T. ) ;
#625 = LINE ( 'NONE', #1286, #579 ) ;
#626 = FACE_BOUND ( 'NONE', #733, .T. ) ;
#627 = EDGE_CURVE ( 'NONE', #1035, #530, #1099, .T. ) ;
#628 = FACE_OUTER_BOUND ( 'NONE', #301, .T. ) ;
#629 = AXIS2_PLACEMENT_3D ( 'NONE', #216, #1127, #917 ) ;
#630 = CARTESIAN_POINT ( 'NONE',  ( -34.99999999999998579, 22.00000000000000000, 29.99999999999999645 ) ) ;
#631 = VERTEX_POINT ( 'NONE', #31 ) ;
#632 = ADVANCED_FACE ( 'NONE', ( #820, #457, #52 ), #716, .T. ) ;
#633 = ORIENTED_EDGE ( 'NONE', *, *, #703, .F. ) ;
#634 = SURFACE_SIDE_STYLE ('',( #1207 ) ) ;
#635 = VERTEX_POINT ( 'NONE', #1025 ) ;
#636 = EDGE_CURVE ( 'NONE', #336, #1258, #1213, .T. ) ;
#637 = AXIS2_PLACEMENT_3D ( 'NONE', #1138, #1125, #918 ) ;
#638 = CARTESIAN_POINT ( 'NONE',  ( -34.99999999999999289, 2.000000000000000000, -4.400000000000008349 ) ) ;
#639 = CARTESIAN_POINT ( 'NONE',  ( -34.99999999999999289, -0.000000000000000000, -24.50000000000000711 ) ) ;
#640 = VECTOR ( 'NONE', #240, 1000.000000000000000 ) ;
#641 = PRESENTATION_LAYER_ASSIGNMENT (  '', '', ( #428 ) ) ;
#642 = ADVANCED_FACE ( 'NONE', ( #904 ), #217, .F. ) ;
#643 = CARTESIAN_POINT ( 'NONE',  ( 35.00000000000002132, 0.000000000000000000, 39.99999999999999289 ) ) ;
#644 = EDGE_CURVE ( 'NONE', #302, #106, #610, .T. ) ;
#645 = DIRECTION ( 'NONE',  ( 8.673617379884034239E-17, 0.000000000000000000, 1.000000000000000000 ) ) ;
#646 = LINE ( 'NONE', #1243, #693 ) ;
#647 = DIRECTION ( 'NONE',  ( -0.000000000000000000, -1.000000000000000000, -0.000000000000000000 ) ) ;
#648 = VECTOR ( 'NONE', #801, 1000.000000000000000 ) ;
#649 = CARTESIAN_POINT ( 'NONE',  ( -26.00000000000003197, 2.000000000000000000, -16.95000000000001350 ) ) ;
#650 = PLANE ( 'NONE',  #556 ) ;
#651 = ORIENTED_EDGE ( 'NONE', *, *, #795, .F. ) ;
#652 = CARTESIAN_POINT ( 'NONE',  ( 35.00000000000001421, 22.00000000000000000, -40.00000000000000711 ) ) ;
#653 = ORIENTED_EDGE ( 'NONE', *, *, #1300, .T. ) ;
#654 = ORIENTED_EDGE ( 'NONE', *, *, #7, .F. ) ;
#655 = EDGE_CURVE ( 'NONE', #1055, #1148, #1256, .T. ) ;
#656 = CARTESIAN_POINT ( 'NONE',  ( 35.00000000000002132, 2.000000000000000000, -24.50000000000000711 ) ) ;
#657 = ORIENTED_EDGE ( 'NONE', *, *, #782, .F. ) ;
#658 = PLANE ( 'NONE',  #802 ) ;
#659 = AXIS2_PLACEMENT_3D ( 'NONE', #964, #1077, #540 ) ;
#660 = COLOUR_RGB ( '',0.2509803921568627416, 0.2509803921568627416, 0.2509803921568627416 ) ;
#661 = DIRECTION ( 'NONE',  ( 1.000000000000000000, -0.000000000000000000, -1.982541115402065110E-16 ) ) ;
#662 = AXIS2_PLACEMENT_3D ( 'NONE', #104, #589, #360 ) ;
#663 = CARTESIAN_POINT ( 'NONE',  ( -26.00000000000003197, 2.000000000000000000, -14.45000000000001528 ) ) ;
#664 = CARTESIAN_POINT ( 'NONE',  ( -26.00000000000003197, 22.00000000000000000, -14.45000000000001528 ) ) ;
#665 = EDGE_CURVE ( 'NONE', #323, #164, #204, .T. ) ;
#666 = VECTOR ( 'NONE', #212, 1000.000000000000000 ) ;
#667 = VECTOR ( 'NONE', #239, 1000.000000000000000 ) ;
#668 = EDGE_CURVE ( 'NONE', #953, #106, #6, .T. ) ;
#669 = VECTOR ( 'NONE', #613, 1000.000000000000000 ) ;
#670 = ORIENTED_EDGE ( 'NONE', *, *, #900, .F. ) ;
#671 =( LENGTH_UNIT ( ) NAMED_UNIT ( * ) SI_UNIT ( .MILLI., .METRE. ) );
#672 = ORIENTED_EDGE ( 'NONE', *, *, #21, .T. ) ;
#673 = ORIENTED_EDGE ( 'NONE', *, *, #1169, .T. ) ;
#674 = ORIENTED_EDGE ( 'NONE', *, *, #1073, .F. ) ;
#675 = DIRECTION ( 'NONE',  ( 0.000000000000000000, 0.000000000000000000, -1.000000000000000000 ) ) ;
#676 = CARTESIAN_POINT ( 'NONE',  ( 20.10000000000000497, 5.499999999999998224, 28.00000000000000000 ) ) ;
#677 = FILL_AREA_STYLE_COLOUR ( '', #1105 ) ;
#678 = LINE ( 'NONE', #1159, #404 ) ;
#679 = CIRCLE ( 'NONE', #637, 21.50000000000000000 ) ;
#680 = CARTESIAN_POINT ( 'NONE',  ( 0.000000000000000000, 22.00000000000000000, 0.000000000000000000 ) ) ;
#681 = EDGE_CURVE ( 'NONE', #547, #1166, #1097, .T. ) ;
#682 = FACE_BOUND ( 'NONE', #210, .T. ) ;
#683 = AXIS2_PLACEMENT_3D ( 'NONE', #1049, #327, #332 ) ;
#684 = DIRECTION ( 'NONE',  ( 0.000000000000000000, 0.000000000000000000, -1.000000000000000000 ) ) ;
#685 = ORIENTED_EDGE ( 'NONE', *, *, #502, .T. ) ;
#686 = AXIS2_PLACEMENT_3D ( 'NONE', #526, #342, #347 ) ;
#687 = CYLINDRICAL_SURFACE ( 'NONE', #5, 2.100000000000000977 ) ;
#688 = ORIENTED_EDGE ( 'NONE', *, *, #706, .F. ) ;
#689 = DIRECTION ( 'NONE',  ( 8.673617379884034239E-17, 0.000000000000000000, 1.000000000000000000 ) ) ;
#690 = ORIENTED_EDGE ( 'NONE', *, *, #1134, .F. ) ;
#691 = MECHANICAL_DESIGN_GEOMETRIC_PRESENTATION_REPRESENTATION (  '', ( #1115 ), #761 ) ;
#692 = ORIENTED_EDGE ( 'NONE', *, *, #1116, .T. ) ;
#693 = VECTOR ( 'NONE', #1233, 1000.000000000000000 ) ;
#694 = CARTESIAN_POINT ( 'NONE',  ( -34.99999999999999289, 22.00000000000000000, -40.00000000000000711 ) ) ;
#695 = CIRCLE ( 'NONE', #130, 2.499999999999995115 ) ;
#696 = EDGE_CURVE ( 'NONE', #1050, #838, #783, .T. ) ;
#697 = CARTESIAN_POINT ( 'NONE',  ( -34.99999999999998579, 13.99999999999999822, 29.99999999999999645 ) ) ;
#698 = CARTESIAN_POINT ( 'NONE',  ( -34.99999999999999289, 0.000000000000000000, -40.00000000000000711 ) ) ;
#699 = ORIENTED_EDGE ( 'NONE', *, *, #1124, .T. ) ;
#700 = ORIENTED_EDGE ( 'NONE', *, *, #16, .T. ) ;
#701 = VERTEX_POINT ( 'NONE', #1254 ) ;
#702 = PLANE ( 'NONE',  #253 ) ;
#703 = EDGE_CURVE ( 'NONE', #860, #631, #394, .T. ) ;
#704 = STYLED_ITEM ( 'NONE', ( #788 ), #288 ) ;
#705 = PLANE ( 'NONE',  #836 ) ;
#706 = EDGE_CURVE ( 'NONE', #533, #1055, #593, .T. ) ;
#707 = CARTESIAN_POINT ( 'NONE',  ( 25.99999999999998579, 2.000000000000000000, -16.95000000000000639 ) ) ;
#708 = LINE ( 'NONE', #938, #255 ) ;
#709 = DIRECTION ( 'NONE',  ( -0.000000000000000000, 1.000000000000000000, -0.000000000000000000 ) ) ;
#710 = MECHANICAL_DESIGN_GEOMETRIC_PRESENTATION_REPRESENTATION (  '', ( #428 ), #791 ) ;
#711 = CARTESIAN_POINT ( 'NONE',  ( -3.999999999999994671, 11.00000000000000000, 40.00000000000000711 ) ) ;
#712 = LINE ( 'NONE', #927, #1160 ) ;
#713 = ORIENTED_EDGE ( 'NONE', *, *, #973, .T. ) ;
#714 = ORIENTED_EDGE ( 'NONE', *, *, #706, .T. ) ;
#715 = CARTESIAN_POINT ( 'NONE',  ( 0.000000000000000000, 22.00000000000000000, 0.000000000000000000 ) ) ;
#716 = PLANE ( 'NONE',  #1095 ) ;
#717 = VERTEX_POINT ( 'NONE', #524 ) ;
#718 = ORIENTED_EDGE ( 'NONE', *, *, #846, .F. ) ;
#719 = DIRECTION ( 'NONE',  ( 0.8571673007021114454, 0.000000000000000000, 0.5150380749100555988 ) ) ;
#720 = ORIENTED_EDGE ( 'NONE', *, *, #364, .F. ) ;
#721 = CARTESIAN_POINT ( 'NONE',  ( 21.49999999999997513, 22.00000000000000000, -40.00000000000001421 ) ) ;
#722 = CARTESIAN_POINT ( 'NONE',  ( 10.95445115010332238, 11.00000000000000000, 29.99999999999999645 ) ) ;
#723 = DIRECTION ( 'NONE',  ( -0.000000000000000000, -1.000000000000000000, -0.000000000000000000 ) ) ;
#724 = CARTESIAN_POINT ( 'NONE',  ( -34.99999999999999289, 2.000000000000000000, -4.400000000000008349 ) ) ;
#725 = VECTOR ( 'NONE', #1236, 1000.000000000000000 ) ;
#726 = CARTESIAN_POINT ( 'NONE',  ( 35.00000000000002132, 22.00000000000000000, 29.99999999999999289 ) ) ;
#727 = LINE ( 'NONE', #811, #297 ) ;
#728 = FACE_OUTER_BOUND ( 'NONE', #103, .T. ) ;
#729 = VECTOR ( 'NONE', #132, 1000.000000000000000 ) ;
#730 = DIRECTION ( 'NONE',  ( 0.000000000000000000, -1.000000000000000000, 0.000000000000000000 ) ) ;
#731 = ORIENTED_EDGE ( 'NONE', *, *, #574, .F. ) ;
#732 = LINE ( 'NONE', #566, #461 ) ;
#733 = EDGE_LOOP ( 'NONE', ( #700, #840 ) ) ;
#734 = CARTESIAN_POINT ( 'NONE',  ( 4.000000000000004441, 11.00000000000000000, 32.62463017427758416 ) ) ;
#735 = PRODUCT_DEFINITION_SHAPE ( 'NONE', 'NONE',  #1204 ) ;
#736 = ORIENTED_EDGE ( 'NONE', *, *, #520, .F. ) ;
#737 = CARTESIAN_POINT ( 'NONE',  ( -21.49999999999997158, 13.99999999999999822, -10.00000000000000888 ) ) ;
#738 = ADVANCED_FACE ( 'NONE', ( #511 ), #854, .F. ) ;
#739 = FACE_OUTER_BOUND ( 'NONE', #1296, .T. ) ;
#740 = EDGE_CURVE ( 'NONE', #26, #530, #1030, .T. ) ;
#741 = EDGE_CURVE ( 'NONE', #753, #1131, #1079, .T. ) ;
#742 = DIRECTION ( 'NONE',  ( -0.000000000000000000, -1.000000000000000000, -0.000000000000000000 ) ) ;
#743 = CARTESIAN_POINT ( 'NONE',  ( 35.00000000000001421, 0.000000000000000000, -40.00000000000000711 ) ) ;
#744 = FACE_OUTER_BOUND ( 'NONE', #956, .T. ) ;
#745 = ADVANCED_FACE ( 'NONE', ( #744 ), #55, .F. ) ;
#746 = LINE ( 'NONE', #1013, #269 ) ;
#747 =( LENGTH_UNIT ( ) NAMED_UNIT ( * ) SI_UNIT ( .MILLI., .METRE. ) );
#748 = EDGE_CURVE ( 'NONE', #398, #26, #985, .T. ) ;
#749 = ORIENTED_EDGE ( 'NONE', *, *, #1261, .T. ) ;
#750 = ORIENTED_EDGE ( 'NONE', *, *, #17, .T. ) ;
#751 = SURFACE_STYLE_FILL_AREA ( #793 ) ;
#752 = ORIENTED_EDGE ( 'NONE', *, *, #1300, .F. ) ;
#753 = VERTEX_POINT ( 'NONE', #1054 ) ;
#754 = FILL_AREA_STYLE_COLOUR ( '', #772 ) ;
#755 = ADVANCED_FACE ( 'NONE', ( #1158 ), #952, .F. ) ;
#756 = AXIS2_PLACEMENT_3D ( 'NONE', #440, #874, #340 ) ;
#757 = ORIENTED_EDGE ( 'NONE', *, *, #782, .T. ) ;
#758 = DIRECTION ( 'NONE',  ( 0.000000000000000000, -1.000000000000000000, 0.000000000000000000 ) ) ;
#759 = STYLED_ITEM ( 'NONE', ( #1191 ), #329 ) ;
#760 = DIRECTION ( 'NONE',  ( -0.000000000000000000, -1.000000000000000000, -0.000000000000000000 ) ) ;
#761 =( GEOMETRIC_REPRESENTATION_CONTEXT ( 3 ) GLOBAL_UNCERTAINTY_ASSIGNED_CONTEXT ( ( #995 ) ) GLOBAL_UNIT_ASSIGNED_CONTEXT ( ( #974, #884, #262 ) ) REPRESENTATION_CONTEXT ( 'NONE', 'WORKASPACE' ) );
#762 = AXIS2_PLACEMENT_3D ( 'NONE', #1141, #1248, #30 ) ;
#763 = CARTESIAN_POINT ( 'NONE',  ( 4.000000000000004441, 22.00000000000000000, 32.62463017427758416 ) ) ;
#764 = FILL_AREA_STYLE ('',( #1183 ) ) ;
#765 = EDGE_CURVE ( 'NONE', #979, #993, #1269, .T. ) ;
#766 = LINE ( 'NONE', #909, #171 ) ;
#767 = FILL_AREA_STYLE_COLOUR ( '', #848 ) ;
#768 = FACE_OUTER_BOUND ( 'NONE', #908, .T. ) ;
#769 = VERTEX_POINT ( 'NONE', #743 ) ;
#770 = FILL_AREA_STYLE_COLOUR ( '', #1067 ) ;
#771 = ORIENTED_EDGE ( 'NONE', *, *, #63, .T. ) ;
#772 = COLOUR_RGB ( '',0.2509803921568627416, 0.2509803921568627416, 0.2509803921568627416 ) ;
#773 = EDGE_CURVE ( 'NONE', #56, #12, #1061, .T. ) ;
#774 = DIRECTION ( 'NONE',  ( 1.000000000000000000, 0.000000000000000000, -4.956352788505162775E-17 ) ) ;
#775 = ORIENTED_EDGE ( 'NONE', *, *, #502, .F. ) ;
#776 = DIRECTION ( 'NONE',  ( -0.000000000000000000, 1.000000000000000000, -0.000000000000000000 ) ) ;
#777 = ORIENTED_EDGE ( 'NONE', *, *, #1124, .F. ) ;
#778 =( LENGTH_UNIT ( ) NAMED_UNIT ( * ) SI_UNIT ( .MILLI., .METRE. ) );
#779 = VECTOR ( 'NONE', #776, 1000.000000000000000 ) ;
#780 = CARTESIAN_POINT ( 'NONE',  ( 35.00000000000002132, 22.00000000000000000, 39.99999999999999289 ) ) ;
#781 =( NAMED_UNIT ( * ) PLANE_ANGLE_UNIT ( ) SI_UNIT ( $, .RADIAN. ) );
#782 = EDGE_CURVE ( 'NONE', #631, #615, #625, .T. ) ;
#783 = LINE ( 'NONE', #630, #420 ) ;
#784 = CARTESIAN_POINT ( 'NONE',  ( 4.000000000000004441, 0.1190037190440702830, 32.62463017427758416 ) ) ;
#785 = COLOUR_RGB ( '',0.2509803921568627416, 0.2509803921568627416, 0.2509803921568627416 ) ;
#786 = AXIS2_PLACEMENT_3D ( 'NONE', #378, #1222, #912 ) ;
#787 = ORIENTED_EDGE ( 'NONE', *, *, #107, .T. ) ;
#788 = PRESENTATION_STYLE_ASSIGNMENT (( #215 ) ) ;
#789 = ORIENTED_EDGE ( 'NONE', *, *, #497, .F. ) ;
#790 = DIRECTION ( 'NONE',  ( 1.000000000000000000, 0.000000000000000000, 0.000000000000000000 ) ) ;
#791 =( GEOMETRIC_REPRESENTATION_CONTEXT ( 3 ) GLOBAL_UNCERTAINTY_ASSIGNED_CONTEXT ( ( #616 ) ) GLOBAL_UNIT_ASSIGNED_CONTEXT ( ( #1084, #864, #168 ) ) REPRESENTATION_CONTEXT ( 'NONE', 'WORKASPACE' ) );
#792 = ORIENTED_EDGE ( 'NONE', *, *, #627, .F. ) ;
#793 = FILL_AREA_STYLE ('',( #677 ) ) ;
#794 = ORIENTED_EDGE ( 'NONE', *, *, #748, .F. ) ;
#795 = EDGE_CURVE ( 'NONE', #1039, #635, #469, .T. ) ;
#796 = PLANE ( 'NONE',  #886 ) ;
#797 = PRODUCT_CONTEXT ( 'NONE', #1211, 'mechanical' ) ;
#798 = DIRECTION ( 'NONE',  ( 4.752667057470704875E-17, 0.000000000000000000, 1.000000000000000000 ) ) ;
#799 = VECTOR ( 'NONE', #866, 1000.000000000000000 ) ;
#800 =( NAMED_UNIT ( * ) PLANE_ANGLE_UNIT ( ) SI_UNIT ( $, .RADIAN. ) );
#801 = DIRECTION ( 'NONE',  ( 4.752667057470704875E-17, 0.000000000000000000, 1.000000000000000000 ) ) ;
#802 = AXIS2_PLACEMENT_3D ( 'NONE', #968, #758, #60 ) ;
#803 = VECTOR ( 'NONE', #719, 1000.000000000000000 ) ;
#804 = AXIS2_PLACEMENT_3D ( 'NONE', #1303, #584, #98 ) ;
#805 = ORIENTED_EDGE ( 'NONE', *, *, #456, .T. ) ;
#806 = DIRECTION ( 'NONE',  ( -1.000000000000000000, -0.000000000000000000, -2.478176394252581387E-17 ) ) ;
#807 = PLANE ( 'NONE',  #786 ) ;
#808 = ORIENTED_EDGE ( 'NONE', *, *, #176, .F. ) ;
#809 = PRESENTATION_LAYER_ASSIGNMENT (  '', '', ( #1000 ) ) ;
#810 = VERTEX_POINT ( 'NONE', #345 ) ;
#811 = CARTESIAN_POINT ( 'NONE',  ( -34.99999999999999289, 22.00000000000000000, -10.00000000000000888 ) ) ;
#812 = CARTESIAN_POINT ( 'NONE',  ( -34.99999999999999289, -0.000000000000000000, -4.400000000000008349 ) ) ;
#813 = VECTOR ( 'NONE', #451, 1000.000000000000000 ) ;
#814 = CARTESIAN_POINT ( 'NONE',  ( -3.999999999999995559, 22.00000000000000000, 32.62463017427758416 ) ) ;
#815 = FACE_OUTER_BOUND ( 'NONE', #957, .T. ) ;
#816 = DIRECTION ( 'NONE',  ( 1.000000000000000000, 0.000000000000000000, 0.000000000000000000 ) ) ;
#817 = EDGE_CURVE ( 'NONE', #880, #979, #362, .T. ) ;
#818 = EDGE_CURVE ( 'NONE', #810, #1241, #1126, .T. ) ;
#819 = SURFACE_SIDE_STYLE ('',( #751 ) ) ;
#820 = FACE_BOUND ( 'NONE', #333, .T. ) ;
#821 = CARTESIAN_POINT ( 'NONE',  ( 35.00000000000002132, 13.99999999999999822, -10.00000000000000711 ) ) ;
#822 = ORIENTED_EDGE ( 'NONE', *, *, #16, .F. ) ;
#823 = SURFACE_SIDE_STYLE ('',( #1033 ) ) ;
#824 = ORIENTED_EDGE ( 'NONE', *, *, #940, .T. ) ;
#825 = PRESENTATION_STYLE_ASSIGNMENT (( #889 ) ) ;
#826 = ORIENTED_EDGE ( 'NONE', *, *, #552, .F. ) ;
#827 = CARTESIAN_POINT ( 'NONE',  ( 21.50000000000000355, 13.99999999999999822, -10.00000000000000711 ) ) ;
#828 = ORIENTED_EDGE ( 'NONE', *, *, #271, .T. ) ;
#829 = SURFACE_STYLE_USAGE ( .BOTH. , #823 ) ;
#830 = CYLINDRICAL_SURFACE ( 'NONE', #686, 2.499999999999998668 ) ;
#831 = DIRECTION ( 'NONE',  ( 0.000000000000000000, -0.000000000000000000, -1.000000000000000000 ) ) ;
#832 = AXIS2_PLACEMENT_3D ( 'NONE', #1044, #422, #1156 ) ;
#833 = DIRECTION ( 'NONE',  ( -0.000000000000000000, -1.000000000000000000, -0.000000000000000000 ) ) ;
#834 = LINE ( 'NONE', #1031, #509 ) ;
#835 = CARTESIAN_POINT ( 'NONE',  ( -34.99999999999999289, 2.000000000000000000, -24.50000000000000711 ) ) ;
#836 = AXIS2_PLACEMENT_3D ( 'NONE', #715, #324, #146 ) ;
#837 = FACE_OUTER_BOUND ( 'NONE', #1128, .T. ) ;
#838 = VERTEX_POINT ( 'NONE', #166 ) ;
#839 = DIRECTION ( 'NONE',  ( 1.000000000000000000, 0.000000000000000000, 0.000000000000000000 ) ) ;
#840 = ORIENTED_EDGE ( 'NONE', *, *, #437, .T. ) ;
#841 = ORIENTED_EDGE ( 'NONE', *, *, #84, .F. ) ;
#842 = CARTESIAN_POINT ( 'NONE',  ( 25.99999999999998579, 2.000000000000000000, -14.45000000000000817 ) ) ;
#843 = EDGE_LOOP ( 'NONE', ( #1121, #569, #80, #718 ) ) ;
#844 = ADVANCED_FACE ( 'NONE', ( #218 ), #1076, .F. ) ;
#845 = DIRECTION ( 'NONE',  ( 0.000000000000000000, 0.000000000000000000, -1.000000000000000000 ) ) ;
#846 = EDGE_CURVE ( 'NONE', #1241, #1311, #1287, .T. ) ;
#847 = DIRECTION ( 'NONE',  ( -0.000000000000000000, -1.000000000000000000, -0.000000000000000000 ) ) ;
#848 = COLOUR_RGB ( '',0.2509803921568627416, 0.2509803921568627416, 0.2509803921568627416 ) ;
#849 = ADVANCED_FACE ( 'NONE', ( #837 ), #658, .F. ) ;
#850 = STYLED_ITEM ( 'NONE', ( #1173 ), #149 ) ;
#851 = CARTESIAN_POINT ( 'NONE',  ( -34.99999999999999289, -0.000000000000000000, -4.400000000000008349 ) ) ;
#852 = LINE ( 'NONE', #981, #285 ) ;
#853 = UNCERTAINTY_MEASURE_WITH_UNIT (LENGTH_MEASURE( 1.000000000000000082E-05 ), #187, 'distance_accuracy_value', 'NONE');
#854 = PLANE ( 'NONE',  #608 ) ;
#855 = ORIENTED_EDGE ( 'NONE', *, *, #162, .F. ) ;
#856 = MECHANICAL_DESIGN_GEOMETRIC_PRESENTATION_REPRESENTATION (  '', ( #704 ), #921 ) ;
#857 = CARTESIAN_POINT ( 'NONE',  ( -3.999999999999995559, 0.1190037190440702830, 32.62463017427758416 ) ) ;
#858 = ORIENTED_EDGE ( 'NONE', *, *, #377, .T. ) ;
#859 = AXIS2_PLACEMENT_3D ( 'NONE', #227, #1154, #138 ) ;
#860 = VERTEX_POINT ( 'NONE', #77 ) ;
#861 = STYLED_ITEM ( 'NONE', ( #380 ), #622 ) ;
#862 = ORIENTED_EDGE ( 'NONE', *, *, #1206, .F. ) ;
#863 = EDGE_LOOP ( 'NONE', ( #1052, #602, #862, #934 ) ) ;
#864 =( NAMED_UNIT ( * ) PLANE_ANGLE_UNIT ( ) SI_UNIT ( $, .RADIAN. ) );
#865 = VECTOR ( 'NONE', #742, 1000.000000000000000 ) ;
#866 = DIRECTION ( 'NONE',  ( 0.000000000000000000, -1.000000000000000000, 0.000000000000000000 ) ) ;
#867 = EDGE_CURVE ( 'NONE', #56, #1070, #870, .T. ) ;
#868 = SURFACE_SIDE_STYLE ('',( #559 ) ) ;
#869 = FACE_OUTER_BOUND ( 'NONE', #992, .T. ) ;
#870 = LINE ( 'NONE', #251, #68 ) ;
#871 = DIRECTION ( 'NONE',  ( -0.000000000000000000, -1.000000000000000000, -0.000000000000000000 ) ) ;
#872 = UNCERTAINTY_MEASURE_WITH_UNIT (LENGTH_MEASURE( 1.000000000000000082E-05 ), #747, 'distance_accuracy_value', 'NONE');
#873 = DIRECTION ( 'NONE',  ( -1.176024739753907999E-16, -0.000000000000000000, -1.000000000000000000 ) ) ;
#874 = DIRECTION ( 'NONE',  ( -0.000000000000000000, 1.000000000000000000, 0.000000000000000000 ) ) ;
#875 = ORIENTED_EDGE ( 'NONE', *, *, #1209, .T. ) ;
#876 = EDGE_LOOP ( 'NONE', ( #492, #41 ) ) ;
#877 =( NAMED_UNIT ( * ) SI_UNIT ( $, .STERADIAN. ) SOLID_ANGLE_UNIT ( ) );
#878 = EDGE_LOOP ( 'NONE', ( #76, #89, #546, #777 ) ) ;
#879 = MECHANICAL_DESIGN_GEOMETRIC_PRESENTATION_REPRESENTATION (  '', ( #1 ), #1153 ) ;
#880 = VERTEX_POINT ( 'NONE', #881 ) ;
#881 = CARTESIAN_POINT ( 'NONE',  ( -21.49999999999997158, 13.99999999999999822, 11.49999999999998934 ) ) ;
#882 = CARTESIAN_POINT ( 'NONE',  ( -3.999999999999995559, 0.1190037190440702830, 32.62463017427758416 ) ) ;
#883 = FACE_OUTER_BOUND ( 'NONE', #897, .T. ) ;
#884 =( NAMED_UNIT ( * ) PLANE_ANGLE_UNIT ( ) SI_UNIT ( $, .RADIAN. ) );
#885 = FILL_AREA_STYLE ('',( #113 ) ) ;
#886 = AXIS2_PLACEMENT_3D ( 'NONE', #282, #1205, #183 ) ;
#887 = EDGE_CURVE ( 'NONE', #635, #223, #1143, .T. ) ;
#888 = CIRCLE ( 'NONE', #46, 2.099999999999997868 ) ;
#889 = SURFACE_STYLE_USAGE ( .BOTH. , #178 ) ;
#890 = FACE_OUTER_BOUND ( 'NONE', #621, .T. ) ;
#891 = DIRECTION ( 'NONE',  ( 1.000000000000000000, 0.000000000000000000, -4.956352788505162775E-17 ) ) ;
#892 = VECTOR ( 'NONE', #111, 1000.000000000000000 ) ;
#893 = DIRECTION ( 'NONE',  ( -0.000000000000000000, -0.000000000000000000, 1.000000000000000000 ) ) ;
#894 = CYLINDRICAL_SURFACE ( 'NONE', #157, 2.499999999999998668 ) ;
#895 = EDGE_CURVE ( 'NONE', #387, #533, #852, .T. ) ;
#896 = EDGE_LOOP ( 'NONE', ( #475, #855, #657, #633, #1022, #1203, #1118, #907 ) ) ;
#897 = EDGE_LOOP ( 'NONE', ( #597, #567, #1201, #1279, #858 ) ) ;
#898 = FILL_AREA_STYLE ('',( #1299 ) ) ;
#899 = VERTEX_POINT ( 'NONE', #1072 ) ;
#900 = EDGE_CURVE ( 'NONE', #427, #26, #35, .T. ) ;
#901 = DIRECTION ( 'NONE',  ( -0.000000000000000000, -0.000000000000000000, 1.000000000000000000 ) ) ;
#902 = LINE ( 'NONE', #721, #393 ) ;
#903 = PLANE ( 'NONE',  #924 ) ;
#904 = FACE_OUTER_BOUND ( 'NONE', #1232, .T. ) ;
#905 = ORIENTED_EDGE ( 'NONE', *, *, #574, .T. ) ;
#906 = DIRECTION ( 'NONE',  ( 0.000000000000000000, -1.000000000000000000, 0.000000000000000000 ) ) ;
#907 = ORIENTED_EDGE ( 'NONE', *, *, #364, .T. ) ;
#908 = EDGE_LOOP ( 'NONE', ( #222, #673, #145, #674 ) ) ;
#909 = CARTESIAN_POINT ( 'NONE',  ( 35.00000000000002132, 22.00000000000000000, 39.99999999999999289 ) ) ;
#910 = CARTESIAN_POINT ( 'NONE',  ( 35.00000000000002132, 2.000000000000000000, -4.400000000000008349 ) ) ;
#911 = FACE_OUTER_BOUND ( 'NONE', #128, .T. ) ;
#912 = DIRECTION ( 'NONE',  ( 0.000000000000000000, -0.000000000000000000, 1.000000000000000000 ) ) ;
#913 = VECTOR ( 'NONE', #445, 1000.000000000000000 ) ;
#914 = VECTOR ( 'NONE', #155, 1000.000000000000000 ) ;
#915 = CARTESIAN_POINT ( 'NONE',  ( -21.49999999999997158, 11.00000000000000000, 11.49999999999998934 ) ) ;
#916 = ORIENTED_EDGE ( 'NONE', *, *, #471, .T. ) ;
#917 = DIRECTION ( 'NONE',  ( 1.000000000000000000, 0.000000000000000000, 0.000000000000000000 ) ) ;
#918 = DIRECTION ( 'NONE',  ( -8.881784197001252323E-16, 0.000000000000000000, 1.000000000000000000 ) ) ;
#919 = ORIENTED_EDGE ( 'NONE', *, *, #377, .F. ) ;
#920 = EDGE_LOOP ( 'NONE', ( #261, #29 ) ) ;
#921 =( GEOMETRIC_REPRESENTATION_CONTEXT ( 3 ) GLOBAL_UNCERTAINTY_ASSIGNED_CONTEXT ( ( #972 ) ) GLOBAL_UNIT_ASSIGNED_CONTEXT ( ( #101, #205, #591 ) ) REPRESENTATION_CONTEXT ( 'NONE', 'WORKASPACE' ) );
#922 = CARTESIAN_POINT ( 'NONE',  ( 21.49999999999997513, 13.99999999999999822, -40.00000000000001421 ) ) ;
#923 = AXIS2_PLACEMENT_3D ( 'NONE', #1139, #941, #518 ) ;
#924 = AXIS2_PLACEMENT_3D ( 'NONE', #680, #906, #1019 ) ;
#925 = CIRCLE ( 'NONE', #1087, 2.499999999999998668 ) ;
#926 = CARTESIAN_POINT ( 'NONE',  ( 0.000000000000000000, 0.000000000000000000, 0.000000000000000000 ) ) ;
#927 = CARTESIAN_POINT ( 'NONE',  ( 35.00000000000002132, 13.99999999999999822, 29.99999999999999289 ) ) ;
#928 = VECTOR ( 'NONE', #507, 1000.000000000000000 ) ;
#929 = EDGE_CURVE ( 'NONE', #937, #9, #542, .T. ) ;
#930 = CYLINDRICAL_SURFACE ( 'NONE', #96, 2.100000000000000977 ) ;
#931 = DIRECTION ( 'NONE',  ( 0.000000000000000000, 0.000000000000000000, -1.000000000000000000 ) ) ;
#932 = VECTOR ( 'NONE', #645, 1000.000000000000000 ) ;
#933 = CARTESIAN_POINT ( 'NONE',  ( 18.00000000000000711, 16.49999999999999645, 40.00000000000000000 ) ) ;
#934 = ORIENTED_EDGE ( 'NONE', *, *, #1116, .F. ) ;
#935 = VECTOR ( 'NONE', #1176, 1000.000000000000000 ) ;
#936 = CARTESIAN_POINT ( 'NONE',  ( -34.99999999999999289, 0.000000000000000000, -40.00000000000000711 ) ) ;
#937 = VERTEX_POINT ( 'NONE', #1180 ) ;
#938 = CARTESIAN_POINT ( 'NONE',  ( -34.99999999999998579, 22.00000000000000000, 40.00000000000000711 ) ) ;
#939 = VERTEX_POINT ( 'NONE', #963 ) ;
#940 = EDGE_CURVE ( 'NONE', #323, #336, #1196, .T. ) ;
#941 = DIRECTION ( 'NONE',  ( 0.000000000000000000, -1.000000000000000000, 0.000000000000000000 ) ) ;
#942 = DIRECTION ( 'NONE',  ( 1.000000000000000000, 0.000000000000000000, -7.129000586206058052E-16 ) ) ;
#943 = AXIS2_PLACEMENT_3D ( 'NONE', #933, #295, #1142 ) ;
#944 = AXIS2_PLACEMENT_3D ( 'NONE', #536, #647, #684 ) ;
#945 = MECHANICAL_DESIGN_GEOMETRIC_PRESENTATION_REPRESENTATION (  '', ( #1000 ), #1020 ) ;
#946 = VECTOR ( 'NONE', #587, 1000.000000000000000 ) ;
#947 = CARTESIAN_POINT ( 'NONE',  ( 25.99999999999998579, 22.00000000000000000, -14.45000000000000817 ) ) ;
#948 = EDGE_CURVE ( 'NONE', #701, #43, #1014, .T. ) ;
#949 = CIRCLE ( 'NONE', #25, 2.499999999999995115 ) ;
#950 = ADVANCED_FACE ( 'NONE', ( #768 ), #70, .F. ) ;
#951 = UNCERTAINTY_MEASURE_WITH_UNIT (LENGTH_MEASURE( 1.000000000000000082E-05 ), #778, 'distance_accuracy_value', 'NONE');
#952 = PLANE ( 'NONE',  #832 ) ;
#953 = VERTEX_POINT ( 'NONE', #1284 ) ;
#954 = LINE ( 'NONE', #344, #935 ) ;
#955 = ORIENTED_EDGE ( 'NONE', *, *, #456, .F. ) ;
#956 = EDGE_LOOP ( 'NONE', ( #916, #320, #619, #505 ) ) ;
#957 = EDGE_LOOP ( 'NONE', ( #491, #506, #206, #1242 ) ) ;
#958 = CARTESIAN_POINT ( 'NONE',  ( 15.90000000000000746, 5.499999999999998224, 28.00000000000000000 ) ) ;
#959 = EDGE_CURVE ( 'NONE', #1039, #1148, #727, .T. ) ;
#960 = ADVANCED_FACE ( 'NONE', ( #890 ), #482, .F. ) ;
#961 = CARTESIAN_POINT ( 'NONE',  ( -34.99999999999999289, 22.00000000000000000, -40.00000000000000711 ) ) ;
#962 = LINE ( 'NONE', #548, #109 ) ;
#963 = CARTESIAN_POINT ( 'NONE',  ( 25.99999999999998579, 22.00000000000000000, -11.95000000000001350 ) ) ;
#964 = CARTESIAN_POINT ( 'NONE',  ( 0.000000000000000000, 22.00000000000000000, 0.000000000000000000 ) ) ;
#965 = VECTOR ( 'NONE', #197, 1000.000000000000000 ) ;
#966 = ADVANCED_FACE ( 'NONE', ( #379, #417 ), #1224, .F. ) ;
#967 = CIRCLE ( 'NONE', #512, 2.100000000000000977 ) ;
#968 = CARTESIAN_POINT ( 'NONE',  ( 0.000000000000000000, 22.00000000000000000, 0.000000000000000000 ) ) ;
#969 = EDGE_CURVE ( 'NONE', #12, #427, #3, .T. ) ;
#970 = VECTOR ( 'NONE', #871, 1000.000000000000000 ) ;
#971 = VERTEX_POINT ( 'NONE', #207 ) ;
#972 = UNCERTAINTY_MEASURE_WITH_UNIT (LENGTH_MEASURE( 1.000000000000000082E-05 ), #101, 'distance_accuracy_value', 'NONE');
#973 = EDGE_CURVE ( 'NONE', #939, #547, #1253, .T. ) ;
#974 =( LENGTH_UNIT ( ) NAMED_UNIT ( * ) SI_UNIT ( .MILLI., .METRE. ) );
#975 = ORIENTED_EDGE ( 'NONE', *, *, #1029, .T. ) ;
#976 = AXIS2_PLACEMENT_3D ( 'NONE', #1290, #1280, #173 ) ;
#977 = CARTESIAN_POINT ( 'NONE',  ( -21.49999999999997513, 11.00000000000000000, -10.00000000000000888 ) ) ;
#978 = AXIS2_PLACEMENT_3D ( 'NONE', #443, #760, #436 ) ;
#979 = VERTEX_POINT ( 'NONE', #915 ) ;
#980 = CARTESIAN_POINT ( 'NONE',  ( 15.90000000000000391, 16.49999999999999645, 40.00000000000000000 ) ) ;
#981 = CARTESIAN_POINT ( 'NONE',  ( 35.00000000000002132, 13.99999999999999822, -10.00000000000000711 ) ) ;
#982 = CARTESIAN_POINT ( 'NONE',  ( -34.99999999999999289, 0.000000000000000000, -24.50000000000000711 ) ) ;
#983 = CARTESIAN_POINT ( 'NONE',  ( 35.00000000000001421, 22.00000000000000000, -40.00000000000000711 ) ) ;
#984 = LINE ( 'NONE', #1092, #66 ) ;
#985 = LINE ( 'NONE', #48, #667 ) ;
#986 = CARTESIAN_POINT ( 'NONE',  ( 20.10000000000000853, 16.49999999999999645, 40.00000000000000000 ) ) ;
#987 = VECTOR ( 'NONE', #322, 1000.000000000000000 ) ;
#988 = CARTESIAN_POINT ( 'NONE',  ( -3.999999999999994671, 22.00000000000000000, 40.00000000000000711 ) ) ;
#989 = ORIENTED_EDGE ( 'NONE', *, *, #114, .T. ) ;
#990 = CARTESIAN_POINT ( 'NONE',  ( 35.00000000000002132, 22.00000000000000000, 39.99999999999999289 ) ) ;
#991 = PRESENTATION_STYLE_ASSIGNMENT (( #541 ) ) ;
#992 = EDGE_LOOP ( 'NONE', ( #1053, #1024, #165, #305 ) ) ;
#993 = VERTEX_POINT ( 'NONE', #493 ) ;
#994 = PLANE ( 'NONE',  #408 ) ;
#995 = UNCERTAINTY_MEASURE_WITH_UNIT (LENGTH_MEASURE( 1.000000000000000082E-05 ), #974, 'distance_accuracy_value', 'NONE');
#996 = AXIS2_PLACEMENT_3D ( 'NONE', #513, #730, #845 ) ;
#997 = MECHANICAL_DESIGN_GEOMETRIC_PRESENTATION_REPRESENTATION (  '', ( #861 ), #1161 ) ;
#998 = COLOUR_RGB ( '',0.8980392156862745390, 0.9176470588235293713, 0.9294117647058823817 ) ;
#999 = DIRECTION ( 'NONE',  ( 0.000000000000000000, 0.000000000000000000, -1.000000000000000000 ) ) ;
#1000 = STYLED_ITEM ( 'NONE', ( #283 ), #1010 ) ;
#1001 = EDGE_LOOP ( 'NONE', ( #490, #263, #93, #598, #397, #1006 ) ) ;
#1002 = FACE_OUTER_BOUND ( 'NONE', #843, .T. ) ;
#1003 = ORIENTED_EDGE ( 'NONE', *, *, #1266, .T. ) ;
#1004 = DIRECTION ( 'NONE',  ( 0.000000000000000000, 0.000000000000000000, -1.000000000000000000 ) ) ;
#1005 = ORIENTED_EDGE ( 'NONE', *, *, #45, .T. ) ;
#1006 = ORIENTED_EDGE ( 'NONE', *, *, #1134, .T. ) ;
#1007 = CARTESIAN_POINT ( 'NONE',  ( -26.00000000000003197, 2.000000000000000000, -16.95000000000001350 ) ) ;
#1008 = DIRECTION ( 'NONE',  ( -4.752667057470705491E-17, 0.000000000000000000, -1.000000000000000000 ) ) ;
#1009 = EDGE_CURVE ( 'NONE', #247, #1168, #1140, .T. ) ;
#1010 = MANIFOLD_SOLID_BREP ( 'M5 Gewindebohrung1', #464 ) ;
#1011 = DIRECTION ( 'NONE',  ( -0.000000000000000000, -1.000000000000000000, -0.000000000000000000 ) ) ;
#1012 = SURFACE_STYLE_FILL_AREA ( #885 ) ;
#1013 = CARTESIAN_POINT ( 'NONE',  ( -34.99999999999999289, 13.99999999999999822, -10.00000000000000888 ) ) ;
#1014 = LINE ( 'NONE', #455, #560 ) ;
#1015 = LINE ( 'NONE', #722, #596 ) ;
#1016 = DIRECTION ( 'NONE',  ( 4.956352788505162775E-17, 0.000000000000000000, 1.000000000000000000 ) ) ;
#1017 = EDGE_CURVE ( 'NONE', #880, #9, #984, .T. ) ;
#1018 = COLOUR_RGB ( '',0.2509803921568627416, 0.2509803921568627416, 0.2509803921568627416 ) ;
#1019 = DIRECTION ( 'NONE',  ( 0.000000000000000000, -0.000000000000000000, -1.000000000000000000 ) ) ;
#1020 =( GEOMETRIC_REPRESENTATION_CONTEXT ( 3 ) GLOBAL_UNCERTAINTY_ASSIGNED_CONTEXT ( ( #951 ) ) GLOBAL_UNIT_ASSIGNED_CONTEXT ( ( #778, #594, #1198 ) ) REPRESENTATION_CONTEXT ( 'NONE', 'WORKASPACE' ) );
#1021 = EDGE_LOOP ( 'NONE', ( #39, #1298, #11, #1129, #714 ) ) ;
#1022 = ORIENTED_EDGE ( 'NONE', *, *, #367, .T. ) ;
#1023 = SURFACE_SIDE_STYLE ('',( #1012 ) ) ;
#1024 = ORIENTED_EDGE ( 'NONE', *, *, #107, .F. ) ;
#1025 = CARTESIAN_POINT ( 'NONE',  ( 35.00000000000001421, 22.00000000000000000, -40.00000000000000711 ) ) ;
#1026 = LINE ( 'NONE', #265, #97 ) ;
#1027 = CARTESIAN_POINT ( 'NONE',  ( -34.99999999999999289, 2.000000000000000000, -24.50000000000000711 ) ) ;
#1028 = CARTESIAN_POINT ( 'NONE',  ( 18.00000000000000711, 16.49999999999999645, 29.99999999999999289 ) ) ;
#1029 = EDGE_CURVE ( 'NONE', #106, #302, #888, .T. ) ;
#1030 = LINE ( 'NONE', #325, #1304 ) ;
#1031 = CARTESIAN_POINT ( 'NONE',  ( -3.999999999999994671, 0.1190037190440702830, 40.00000000000000711 ) ) ;
#1032 = CARTESIAN_POINT ( 'NONE',  ( 0.000000000000000000, 2.000000000000000000, 0.000000000000000000 ) ) ;
#1033 = SURFACE_STYLE_FILL_AREA ( #299 ) ;
#1034 = ORIENTED_EDGE ( 'NONE', *, *, #1261, .F. ) ;
#1035 = VERTEX_POINT ( 'NONE', #286 ) ;
#1036 = DIRECTION ( 'NONE',  ( -7.129000586206057066E-16, -0.000000000000000000, -1.000000000000000000 ) ) ;
#1037 = DIRECTION ( 'NONE',  ( -0.000000000000000000, -1.000000000000000000, -0.000000000000000000 ) ) ;
#1038 = ORIENTED_EDGE ( 'NONE', *, *, #367, .F. ) ;
#1039 = VERTEX_POINT ( 'NONE', #585 ) ;
#1040 = AXIS2_PLACEMENT_3D ( 'NONE', #481, #292, #390 ) ;
#1041 = CARTESIAN_POINT ( 'NONE',  ( -10.95445115010327974, 13.99999999999999822, 29.99999999999999289 ) ) ;
#1042 = CARTESIAN_POINT ( 'NONE',  ( -34.99999999999999289, 22.00000000000000000, -40.00000000000000711 ) ) ;
#1043 = STYLED_ITEM ( 'NONE', ( #825 ), #1267 ) ;
#1044 = CARTESIAN_POINT ( 'NONE',  ( 4.000000000000004441, 0.1190037190440702830, 32.62463017427758416 ) ) ;
#1045 = LINE ( 'NONE', #544, #296 ) ;
#1046 = VECTOR ( 'NONE', #446, 1000.000000000000000 ) ;
#1047 = EDGE_CURVE ( 'NONE', #290, #398, #766, .T. ) ;
#1048 = ADVANCED_FACE ( 'NONE', ( #1112 ), #603, .T. ) ;
#1049 = CARTESIAN_POINT ( 'NONE',  ( -34.99999999999999289, 2.000000000000000000, -4.400000000000008349 ) ) ;
#1050 = VERTEX_POINT ( 'NONE', #310 ) ;
#1051 = ADVANCED_FACE ( 'NONE', ( #578 ), #312, .F. ) ;
#1052 = ORIENTED_EDGE ( 'NONE', *, *, #136, .F. ) ;
#1053 = ORIENTED_EDGE ( 'NONE', *, *, #136, .T. ) ;
#1054 = CARTESIAN_POINT ( 'NONE',  ( 21.50000000000001066, 11.00000000000000000, 11.49999999999997513 ) ) ;
#1055 = VERTEX_POINT ( 'NONE', #827 ) ;
#1056 = ADVANCED_FACE ( 'NONE', ( #869 ), #307, .F. ) ;
#1057 = FILL_AREA_STYLE_COLOUR ( '', #1018 ) ;
#1058 = EDGE_CURVE ( 'NONE', #1148, #223, #902, .T. ) ;
#1059 = DIRECTION ( 'NONE',  ( 0.000000000000000000, 0.000000000000000000, -1.000000000000000000 ) ) ;
#1060 = CARTESIAN_POINT ( 'NONE',  ( -34.99999999999999289, 13.99999999999999822, -10.00000000000000888 ) ) ;
#1061 = LINE ( 'NONE', #638, #328 ) ;
#1062 = CARTESIAN_POINT ( 'NONE',  ( 18.00000000000000711, 5.499999999999998224, 40.00000000000000000 ) ) ;
#1063 = STYLED_ITEM ( 'NONE', ( #1228 ), #54 ) ;
#1064 = VECTOR ( 'NONE', #10, 1000.000000000000000 ) ;
#1065 = DIRECTION ( 'NONE',  ( -0.000000000000000000, -1.000000000000000000, -0.000000000000000000 ) ) ;
#1066 = ORIENTED_EDGE ( 'NONE', *, *, #1313, .F. ) ;
#1067 = COLOUR_RGB ( '',0.2509803921568627416, 0.2509803921568627416, 0.2509803921568627416 ) ;
#1068 = VERTEX_POINT ( 'NONE', #219 ) ;
#1069 = DIRECTION ( 'NONE',  ( 1.000000000000000000, 0.000000000000000000, 0.000000000000000000 ) ) ;
#1070 = VERTEX_POINT ( 'NONE', #1027 ) ;
#1071 = DIRECTION ( 'NONE',  ( -0.000000000000000000, -0.000000000000000000, 1.000000000000000000 ) ) ;
#1072 = CARTESIAN_POINT ( 'NONE',  ( -26.00000000000003197, 2.000000000000000000, -11.95000000000001705 ) ) ;
#1073 = EDGE_CURVE ( 'NONE', #59, #838, #434, .T. ) ;
#1074 = CARTESIAN_POINT ( 'NONE',  ( 4.000000000000004441, 22.00000000000000000, 32.62463017427758416 ) ) ;
#1075 = DIRECTION ( 'NONE',  ( -1.000000000000000000, 0.000000000000000000, 4.752667057470705491E-17 ) ) ;
#1076 = PLANE ( 'NONE',  #976 ) ;
#1077 = DIRECTION ( 'NONE',  ( 0.000000000000000000, -1.000000000000000000, 0.000000000000000000 ) ) ;
#1078 = LINE ( 'NONE', #983, #452 ) ;
#1079 = LINE ( 'NONE', #528, #241 ) ;
#1080 = DIRECTION ( 'NONE',  ( -0.000000000000000000, -1.000000000000000000, -0.000000000000000000 ) ) ;
#1081 = EDGE_CURVE ( 'NONE', #533, #1039, #1212, .T. ) ;
#1082 = DIRECTION ( 'NONE',  ( -0.000000000000000000, -0.000000000000000000, 1.000000000000000000 ) ) ;
#1083 = EDGE_LOOP ( 'NONE', ( #438, #209, #975 ) ) ;
#1084 =( LENGTH_UNIT ( ) NAMED_UNIT ( * ) SI_UNIT ( .MILLI., .METRE. ) );
#1085 = VERTEX_POINT ( 'NONE', #606 ) ;
#1086 = AXIS2_PLACEMENT_3D ( 'NONE', #664, #1174, #358 ) ;
#1087 = AXIS2_PLACEMENT_3D ( 'NONE', #1268, #351, #167 ) ;
#1088 = VERTEX_POINT ( 'NONE', #1042 ) ;
#1089 = CARTESIAN_POINT ( 'NONE',  ( -34.99999999999999289, 13.99999999999999822, -10.00000000000000888 ) ) ;
#1090 = ORIENTED_EDGE ( 'NONE', *, *, #817, .T. ) ;
#1091 = FILL_AREA_STYLE ('',( #767 ) ) ;
#1092 = CARTESIAN_POINT ( 'NONE',  ( -21.49999999999997513, 13.99999999999999822, -40.00000000000000711 ) ) ;
#1093 = EDGE_CURVE ( 'NONE', #1055, #1187, #139, .T. ) ;
#1094 = CARTESIAN_POINT ( 'NONE',  ( 35.00000000000002132, 22.00000000000000000, 39.99999999999999289 ) ) ;
#1095 = AXIS2_PLACEMENT_3D ( 'NONE', #1032, #1240, #607 ) ;
#1096 = CIRCLE ( 'NONE', #572, 21.50000000000000000 ) ;
#1097 = CIRCLE ( 'NONE', #196, 2.499999999999998668 ) ;
#1098 = DIRECTION ( 'NONE',  ( 0.000000000000000000, -1.000000000000000000, 0.000000000000000000 ) ) ;
#1099 = LINE ( 'NONE', #33, #158 ) ;
#1100 = DIRECTION ( 'NONE',  ( 0.000000000000000000, 0.000000000000000000, -1.000000000000000000 ) ) ;
#1101 = EDGE_CURVE ( 'NONE', #272, #427, #708, .T. ) ;
#1102 = SURFACE_STYLE_FILL_AREA ( #44 ) ;
#1103 = ORIENTED_EDGE ( 'NONE', *, *, #1081, .T. ) ;
#1104 =( NAMED_UNIT ( * ) SI_UNIT ( $, .STERADIAN. ) SOLID_ANGLE_UNIT ( ) );
#1105 = COLOUR_RGB ( '',0.8980392156862745390, 0.9176470588235293713, 0.9294117647058823817 ) ;
#1106 = ORIENTED_EDGE ( 'NONE', *, *, #1270, .T. ) ;
#1107 = ORIENTED_EDGE ( 'NONE', *, *, #7, .T. ) ;
#1108 = CARTESIAN_POINT ( 'NONE',  ( -26.00000000000003197, 2.000000000000000000, -14.45000000000001528 ) ) ;
#1109 = LINE ( 'NONE', #152, #496 ) ;
#1110 =( LENGTH_UNIT ( ) NAMED_UNIT ( * ) SI_UNIT ( .MILLI., .METRE. ) );
#1111 = DIRECTION ( 'NONE',  ( -1.000000000000000000, 0.000000000000000000, 1.982541115402065110E-16 ) ) ;
#1112 = FACE_OUTER_BOUND ( 'NONE', #148, .T. ) ;
#1113 = VECTOR ( 'NONE', #1065, 1000.000000000000000 ) ;
#1114 = DIRECTION ( 'NONE',  ( -0.000000000000000000, -1.000000000000000000, -0.000000000000000000 ) ) ;
#1115 = STYLED_ITEM ( 'NONE', ( #991 ), #1265 ) ;
#1116 = EDGE_CURVE ( 'NONE', #1085, #769, #1194, .T. ) ;
#1117 = LINE ( 'NONE', #1257, #257 ) ;
#1118 = ORIENTED_EDGE ( 'NONE', *, *, #194, .T. ) ;
#1119 =( NAMED_UNIT ( * ) SI_UNIT ( $, .STERADIAN. ) SOLID_ANGLE_UNIT ( ) );
#1120 = CARTESIAN_POINT ( 'NONE',  ( -21.49999999999997513, 11.00000000000000000, -40.00000000000000711 ) ) ;
#1121 = ORIENTED_EDGE ( 'NONE', *, *, #818, .F. ) ;
#1122 = VERTEX_POINT ( 'NONE', #510 ) ;
#1123 = CARTESIAN_POINT ( 'NONE',  ( 18.00000000000000711, 5.499999999999998224, 40.00000000000000000 ) ) ;
#1124 = EDGE_CURVE ( 'NONE', #615, #1168, #834, .T. ) ;
#1125 = DIRECTION ( 'NONE',  ( 0.000000000000000000, -1.000000000000000000, -0.000000000000000000 ) ) ;
#1126 = CIRCLE ( 'NONE', #1086, 2.499999999999995115 ) ;
#1127 = DIRECTION ( 'NONE',  ( -0.000000000000000000, -0.000000000000000000, 1.000000000000000000 ) ) ;
#1128 = EDGE_LOOP ( 'NONE', ( #750, #102, #181, #384, #1165 ) ) ;
#1129 = ORIENTED_EDGE ( 'NONE', *, *, #895, .T. ) ;
#1130 = EDGE_CURVE ( 'NONE', #355, #1122, #1238, .T. ) ;
#1131 = VERTEX_POINT ( 'NONE', #499 ) ;
#1132 = PRESENTATION_LAYER_ASSIGNMENT (  '', '', ( #704 ) ) ;
#1133 = ORIENTED_EDGE ( 'NONE', *, *, #271, .F. ) ;
#1134 = EDGE_CURVE ( 'NONE', #753, #1187, #646, .T. ) ;
#1135 = DIRECTION ( 'NONE',  ( 0.000000000000000000, -1.000000000000000000, 0.000000000000000000 ) ) ;
#1136 = LINE ( 'NONE', #784, #779 ) ;
#1137 = CARTESIAN_POINT ( 'NONE',  ( 18.00000000000000711, 5.499999999999998224, 40.00000000000000000 ) ) ;
#1138 = CARTESIAN_POINT ( 'NONE',  ( 1.242822435528589013E-14, 13.99999999999999822, 11.49999999999998934 ) ) ;
#1139 = CARTESIAN_POINT ( 'NONE',  ( 1.242822435528589013E-14, 22.00000000000000000, 11.49999999999998934 ) ) ;
#1140 = LINE ( 'NONE', #814, #965 ) ;
#1141 = CARTESIAN_POINT ( 'NONE',  ( 35.00000000000001421, 22.00000000000000000, -40.00000000000000711 ) ) ;
#1142 = DIRECTION ( 'NONE',  ( 1.000000000000000000, 0.000000000000000000, 0.000000000000000000 ) ) ;
#1143 = LINE ( 'NONE', #545, #256 ) ;
#1144 = ORIENTED_EDGE ( 'NONE', *, *, #1081, .F. ) ;
#1145 = DIRECTION ( 'NONE',  ( -0.000000000000000000, 1.000000000000000000, -0.000000000000000000 ) ) ;
#1146 = EDGE_LOOP ( 'NONE', ( #477, #672, #685, #1260 ) ) ;
#1147 = ADVANCED_FACE ( 'NONE', ( #609 ), #1239, .F. ) ;
#1148 = VERTEX_POINT ( 'NONE', #618 ) ;
#1149 = DIRECTION ( 'NONE',  ( 1.000000000000000000, 0.000000000000000000, 0.000000000000000000 ) ) ;
#1150 = EDGE_CURVE ( 'NONE', #1035, #56, #156, .T. ) ;
#1151 = ORIENTED_EDGE ( 'NONE', *, *, #260, .F. ) ;
#1152 = DIRECTION ( 'NONE',  ( 4.956352788505162775E-17, 0.000000000000000000, 1.000000000000000000 ) ) ;
#1153 =( GEOMETRIC_REPRESENTATION_CONTEXT ( 3 ) GLOBAL_UNCERTAINTY_ASSIGNED_CONTEXT ( ( #203 ) ) GLOBAL_UNIT_ASSIGNED_CONTEXT ( ( #13, #800, #1119 ) ) REPRESENTATION_CONTEXT ( 'NONE', 'WORKASPACE' ) );
#1154 = DIRECTION ( 'NONE',  ( -0.000000000000000000, -0.000000000000000000, 1.000000000000000000 ) ) ;
#1155 = LINE ( 'NONE', #656, #865 ) ;
#1156 = DIRECTION ( 'NONE',  ( -1.176024739753907999E-16, 0.000000000000000000, -1.000000000000000000 ) ) ;
#1157 = SURFACE_STYLE_USAGE ( .BOTH. , #424 ) ;
#1158 = FACE_OUTER_BOUND ( 'NONE', #289, .T. ) ;
#1159 = CARTESIAN_POINT ( 'NONE',  ( -34.99999999999998579, 13.99999999999999822, 29.99999999999999645 ) ) ;
#1160 = VECTOR ( 'NONE', #311, 1000.000000000000000 ) ;
#1161 =( GEOMETRIC_REPRESENTATION_CONTEXT ( 3 ) GLOBAL_UNCERTAINTY_ASSIGNED_CONTEXT ( ( #150 ) ) GLOBAL_UNIT_ASSIGNED_CONTEXT ( ( #213, #595, #125 ) ) REPRESENTATION_CONTEXT ( 'NONE', 'WORKASPACE' ) );
#1162 = FACE_OUTER_BOUND ( 'NONE', #460, .T. ) ;
#1163 = ADVANCED_FACE ( 'NONE', ( #185, #348 ), #705, .F. ) ;
#1164 = DIRECTION ( 'NONE',  ( -1.000000000000000000, 0.000000000000000000, 8.673617379884035472E-17 ) ) ;
#1165 = ORIENTED_EDGE ( 'NONE', *, *, #948, .F. ) ;
#1166 = VERTEX_POINT ( 'NONE', #405 ) ;
#1167 = APPLICATION_PROTOCOL_DEFINITION ( 'draft international standard', 'automotive_design', 1998, #508 ) ;
#1168 = VERTEX_POINT ( 'NONE', #988 ) ;
#1169 = EDGE_CURVE ( 'NONE', #971, #1050, #678, .T. ) ;
#1170 = SURFACE_STYLE_USAGE ( .BOTH. , #634 ) ;
#1171 = ORIENTED_EDGE ( 'NONE', *, *, #211, .F. ) ;
#1172 = ADVANCED_FACE ( 'NONE', ( #34 ), #550, .F. ) ;
#1173 = PRESENTATION_STYLE_ASSIGNMENT (( #1170 ) ) ;
#1174 = DIRECTION ( 'NONE',  ( -0.000000000000000000, -1.000000000000000000, -0.000000000000000000 ) ) ;
#1175 = CARTESIAN_POINT ( 'NONE',  ( 15.90000000000000746, 5.499999999999998224, 28.00000000000000000 ) ) ;
#1176 = DIRECTION ( 'NONE',  ( -1.000000000000000000, -0.000000000000000000, -2.478176394252581387E-17 ) ) ;
#1177 = VECTOR ( 'NONE', #298, 1000.000000000000000 ) ;
#1178 = LINE ( 'NONE', #707, #300 ) ;
#1179 = CARTESIAN_POINT ( 'NONE',  ( 18.00000000000000711, 5.499999999999998224, 40.00000000000000000 ) ) ;
#1180 = CARTESIAN_POINT ( 'NONE',  ( -21.49999999999997158, 22.00000000000000000, -10.00000000000000888 ) ) ;
#1181 = ORIENTED_EDGE ( 'NONE', *, *, #655, .F. ) ;
#1182 = ORIENTED_EDGE ( 'NONE', *, *, #1169, .F. ) ;
#1183 = FILL_AREA_STYLE_COLOUR ( '', #1235 ) ;
#1184 = ORIENTED_EDGE ( 'NONE', *, *, #49, .F. ) ;
#1185 = PRESENTATION_LAYER_ASSIGNMENT (  '', '', ( #1043 ) ) ;
#1186 = AXIS2_PLACEMENT_3D ( 'NONE', #1123, #2, #18 ) ;
#1187 = VERTEX_POINT ( 'NONE', #75 ) ;
#1188 = CARTESIAN_POINT ( 'NONE',  ( 20.10000000000000853, 16.49999999999999645, 40.00000000000000000 ) ) ;
#1189 = EDGE_CURVE ( 'NONE', #398, #43, #1078, .T. ) ;
#1190 = DIRECTION ( 'NONE',  ( 0.000000000000000000, -0.000000000000000000, 1.000000000000000000 ) ) ;
#1191 = PRESENTATION_STYLE_ASSIGNMENT (( #553 ) ) ;
#1192 = DIRECTION ( 'NONE',  ( -1.000000000000000000, -0.000000000000000000, -2.478176394252581387E-17 ) ) ;
#1193 = DIRECTION ( 'NONE',  ( -0.000000000000000000, 1.000000000000000000, 0.000000000000000000 ) ) ;
#1194 = LINE ( 'NONE', #314, #928 ) ;
#1195 = DIRECTION ( 'NONE',  ( 0.000000000000000000, -1.000000000000000000, -0.000000000000000000 ) ) ;
#1196 = LINE ( 'NONE', #1188, #1046 ) ;
#1197 = EDGE_CURVE ( 'NONE', #189, #1088, #199, .T. ) ;
#1198 =( NAMED_UNIT ( * ) SI_UNIT ( $, .STERADIAN. ) SOLID_ANGLE_UNIT ( ) );
#1199 = LINE ( 'NONE', #698, #669 ) ;
#1200 = CARTESIAN_POINT ( 'NONE',  ( -34.99999999999998579, 22.00000000000000000, 40.00000000000000711 ) ) ;
#1201 = ORIENTED_EDGE ( 'NONE', *, *, #49, .T. ) ;
#1202 = ORIENTED_EDGE ( 'NONE', *, *, #114, .F. ) ;
#1203 = ORIENTED_EDGE ( 'NONE', *, *, #741, .T. ) ;
#1204 = PRODUCT_DEFINITION ( 'UNKNOWN', '', #192, #15 ) ;
#1205 = DIRECTION ( 'NONE',  ( -0.000000000000000000, 1.000000000000000000, 0.000000000000000000 ) ) ;
#1206 = EDGE_CURVE ( 'NONE', #769, #57, #1045, .T. ) ;
#1207 = SURFACE_STYLE_FILL_AREA ( #764 ) ;
#1208 = CARTESIAN_POINT ( 'NONE',  ( 15.90000000000000391, 16.49999999999999645, 29.99999999999999289 ) ) ;
#1209 = EDGE_CURVE ( 'NONE', #290, #78, #525, .T. ) ;
#1210 = PRESENTATION_LAYER_ASSIGNMENT (  '', '', ( #861 ) ) ;
#1211 = APPLICATION_CONTEXT ( 'automotive_design' ) ;
#1212 = LINE ( 'NONE', #821, #361 ) ;
#1213 = CIRCLE ( 'NONE', #943, 2.100000000000000977 ) ;
#1214 = LINE ( 'NONE', #961, #932 ) ;
#1215 = ORIENTED_EDGE ( 'NONE', *, *, #176, .T. ) ;
#1216 = CARTESIAN_POINT ( 'NONE',  ( 35.00000000000002132, 13.99999999999999822, 29.99999999999999289 ) ) ;
#1217 = ORIENTED_EDGE ( 'NONE', *, *, #1029, .F. ) ;
#1218 = CARTESIAN_POINT ( 'NONE',  ( -34.99999999999999289, 13.99999999999999822, -10.00000000000000888 ) ) ;
#1219 = ORIENTED_EDGE ( 'NONE', *, *, #636, .F. ) ;
#1220 = DIRECTION ( 'NONE',  ( 1.000000000000000000, 0.000000000000000000, 0.000000000000000000 ) ) ;
#1221 = ORIENTED_EDGE ( 'NONE', *, *, #564, .F. ) ;
#1222 = DIRECTION ( 'NONE',  ( -0.000000000000000000, 1.000000000000000000, 0.000000000000000000 ) ) ;
#1223 = FACE_OUTER_BOUND ( 'NONE', #519, .T. ) ;
#1224 = PLANE ( 'NONE',  #662 ) ;
#1225 = CARTESIAN_POINT ( 'NONE',  ( 35.00000000000001421, 22.00000000000000000, -40.00000000000000711 ) ) ;
#1226 = VECTOR ( 'NONE', #689, 1000.000000000000000 ) ;
#1227 = AXIS2_PLACEMENT_3D ( 'NONE', #835, #931, #36 ) ;
#1228 = PRESENTATION_STYLE_ASSIGNMENT (( #1157 ) ) ;
#1229 = ORIENTED_EDGE ( 'NONE', *, *, #1047, .F. ) ;
#1230 = ORIENTED_EDGE ( 'NONE', *, *, #959, .F. ) ;
#1231 = ORIENTED_EDGE ( 'NONE', *, *, #471, .F. ) ;
#1232 = EDGE_LOOP ( 'NONE', ( #688, #1103, #583, #1181 ) ) ;
#1233 = DIRECTION ( 'NONE',  ( -0.000000000000000000, 1.000000000000000000, 0.000000000000000000 ) ) ;
#1234 = DIRECTION ( 'NONE',  ( 4.956352788505162775E-17, 0.000000000000000000, 1.000000000000000000 ) ) ;
#1235 = COLOUR_RGB ( '',0.2509803921568627416, 0.2509803921568627416, 0.2509803921568627416 ) ;
#1236 = DIRECTION ( 'NONE',  ( 7.129000586206058052E-16, 0.000000000000000000, 1.000000000000000000 ) ) ;
#1237 = CARTESIAN_POINT ( 'NONE',  ( 18.00000000000000711, 16.49999999999999645, 40.00000000000000000 ) ) ;
#1238 = CIRCLE ( 'NONE', #238, 2.100000000000000977 ) ;
#1239 = PLANE ( 'NONE',  #762 ) ;
#1240 = DIRECTION ( 'NONE',  ( 0.000000000000000000, -1.000000000000000000, 0.000000000000000000 ) ) ;
#1241 = VERTEX_POINT ( 'NONE', #81 ) ;
#1242 = ORIENTED_EDGE ( 'NONE', *, *, #127, .T. ) ;
#1243 = CARTESIAN_POINT ( 'NONE',  ( 21.50000000000001066, 22.00000000000000000, 11.49999999999997335 ) ) ;
#1244 = VERTEX_POINT ( 'NONE', #83 ) ;
#1245 = DIRECTION ( 'NONE',  ( -1.000000000000000000, 0.000000000000000000, -2.478176394252581387E-17 ) ) ;
#1246 = AXIS2_PLACEMENT_3D ( 'NONE', #697, #1016, #891 ) ;
#1247 = MECHANICAL_DESIGN_GEOMETRIC_PRESENTATION_REPRESENTATION (  '', ( #850 ), #27 ) ;
#1248 = DIRECTION ( 'NONE',  ( 0.000000000000000000, -0.000000000000000000, 1.000000000000000000 ) ) ;
#1249 = PRESENTATION_LAYER_ASSIGNMENT (  '', '', ( #1115 ) ) ;
#1250 = DIRECTION ( 'NONE',  ( -0.000000000000000000, -0.000000000000000000, 1.000000000000000000 ) ) ;
#1251 = EDGE_CURVE ( 'NONE', #59, #880, #1096, .T. ) ;
#1252 = CARTESIAN_POINT ( 'NONE',  ( -34.99999999999999289, 22.00000000000000000, -40.00000000000000711 ) ) ;
#1253 = LINE ( 'NONE', #385, #228 ) ;
#1254 = CARTESIAN_POINT ( 'NONE',  ( 10.95445115010332238, 22.00000000000000000, 29.99999999999999645 ) ) ;
#1255 = ADVANCED_FACE ( 'NONE', ( #815 ), #687, .F. ) ;
#1256 = LINE ( 'NONE', #232, #987 ) ;
#1257 = CARTESIAN_POINT ( 'NONE',  ( -34.99999999999999289, 2.000000000000000000, -24.50000000000000711 ) ) ;
#1258 = VERTEX_POINT ( 'NONE', #980 ) ;
#1259 = DIRECTION ( 'NONE',  ( 1.000000000000000000, 0.000000000000000000, 0.000000000000000000 ) ) ;
#1260 = ORIENTED_EDGE ( 'NONE', *, *, #1150, .T. ) ;
#1261 = EDGE_CURVE ( 'NONE', #937, #1244, #599, .T. ) ;
#1262 = ORIENTED_EDGE ( 'NONE', *, *, #564, .T. ) ;
#1263 =( NAMED_UNIT ( * ) SI_UNIT ( $, .STERADIAN. ) SOLID_ANGLE_UNIT ( ) );
#1264 = ORIENTED_EDGE ( 'NONE', *, *, #665, .F. ) ;
#1265 = ADVANCED_FACE ( 'NONE', ( #1002 ), #371, .F. ) ;
#1266 = EDGE_CURVE ( 'NONE', #9, #1307, #954, .T. ) ;
#1267 = ADVANCED_FACE ( 'NONE', ( #118 ), #504, .F. ) ;
#1268 = CARTESIAN_POINT ( 'NONE',  ( 25.99999999999998579, 2.000000000000000000, -14.45000000000000817 ) ) ;
#1269 = CIRCLE ( 'NONE', #756, 21.50000000000000000 ) ;
#1270 = EDGE_CURVE ( 'NONE', #1241, #810, #568, .T. ) ;
#1271 = FACE_OUTER_BOUND ( 'NONE', #863, .T. ) ;
#1272 = AXIS2_PLACEMENT_3D ( 'NONE', #143, #1152, #839 ) ;
#1273 = PRESENTATION_LAYER_ASSIGNMENT (  '', '', ( #850 ) ) ;
#1274 = DIRECTION ( 'NONE',  ( 8.673617379884035472E-17, 0.000000000000000000, 1.000000000000000000 ) ) ;
#1275 = ORIENTED_EDGE ( 'NONE', *, *, #1281, .T. ) ;
#1276 = VECTOR ( 'NONE', #1192, 1000.000000000000000 ) ;
#1277 = DIRECTION ( 'NONE',  ( 4.752667057470705491E-17, 0.000000000000000000, 1.000000000000000000 ) ) ;
#1278 = ADVANCED_FACE ( 'NONE', ( #246 ), #796, .T. ) ;
#1279 = ORIENTED_EDGE ( 'NONE', *, *, #696, .F. ) ;
#1280 = DIRECTION ( 'NONE',  ( 1.000000000000000000, 0.000000000000000000, -8.673617379884035472E-17 ) ) ;
#1281 = EDGE_CURVE ( 'NONE', #971, #59, #732, .T. ) ;
#1282 = ORIENTED_EDGE ( 'NONE', *, *, #867, .F. ) ;
#1283 = CARTESIAN_POINT ( 'NONE',  ( 35.00000000000001421, 22.00000000000000000, -40.00000000000000711 ) ) ;
#1284 = CARTESIAN_POINT ( 'NONE',  ( 18.00000000000000355, 5.499999999999998224, 26.73819270004212356 ) ) ;
#1285 = DIRECTION ( 'NONE',  ( 1.000000000000000000, 0.000000000000000000, 0.000000000000000000 ) ) ;
#1286 = CARTESIAN_POINT ( 'NONE',  ( -3.999999999999994671, 11.00000000000000000, 40.00000000000000711 ) ) ;
#1287 = LINE ( 'NONE', #649, #313 ) ;
#1288 = LINE ( 'NONE', #116, #20 ) ;
#1289 = SURFACE_STYLE_USAGE ( .BOTH. , #868 ) ;
#1290 = CARTESIAN_POINT ( 'NONE',  ( -34.99999999999999289, 22.00000000000000000, -40.00000000000000711 ) ) ;
#1291 = CIRCLE ( 'NONE', #859, 2.100000000000000977 ) ;
#1292 = AXIS2_PLACEMENT_3D ( 'NONE', #79, #893, #790 ) ;
#1293 = EDGE_LOOP ( 'NONE', ( #1184, #549, #274, #551, #233, #123 ) ) ;
#1294 = DIRECTION ( 'NONE',  ( -1.176024739753907999E-16, 0.000000000000000000, -1.000000000000000000 ) ) ;
#1295 = LINE ( 'NONE', #268, #304 ) ;
#1296 = EDGE_LOOP ( 'NONE', ( #372, #92, #535, #487 ) ) ;
#1297 = DIRECTION ( 'NONE',  ( 0.000000000000000000, 0.000000000000000000, -1.000000000000000000 ) ) ;
#1298 = ORIENTED_EDGE ( 'NONE', *, *, #558, .T. ) ;
#1299 = FILL_AREA_STYLE_COLOUR ( '', #660 ) ;
#1300 = EDGE_CURVE ( 'NONE', #164, #1258, #1295, .T. ) ;
#1301 = AXIS2_PLACEMENT_3D ( 'NONE', #275, #1082, #175 ) ;
#1302 = PLANE ( 'NONE',  #71 ) ;
#1303 = CARTESIAN_POINT ( 'NONE',  ( 0.000000000000000000, 0.000000000000000000, 0.000000000000000000 ) ) ;
#1304 = VECTOR ( 'NONE', #415, 1000.000000000000000 ) ;
#1305 = LINE ( 'NONE', #694, #1226 ) ;
#1306 = CARTESIAN_POINT ( 'NONE',  ( -3.999999999999995559, 22.00000000000000000, 32.62463017427758416 ) ) ;
#1307 = VERTEX_POINT ( 'NONE', #1218 ) ;
#1308 = CARTESIAN_POINT ( 'NONE',  ( -26.00000000000003197, 22.00000000000000000, -14.45000000000001528 ) ) ;
#1309 = VERTEX_POINT ( 'NONE', #479 ) ;
#1310 = VECTOR ( 'NONE', #278, 1000.000000000000000 ) ;
#1311 = VERTEX_POINT ( 'NONE', #1007 ) ;
#1312 = ORIENTED_EDGE ( 'NONE', *, *, #1197, .T. ) ;
#1313 = EDGE_CURVE ( 'NONE', #717, #189, #531, .T. ) ;
#1314 = DIRECTION ( 'NONE',  ( -1.000000000000000000, -0.000000000000000000, -0.000000000000000000 ) ) ;
ENDSEC;
END-ISO-10303-21;
