ISO-10303-21;
HEADER;
FILE_DESCRIPTION (( 'STEP AP214' ),
    '1' );
FILE_NAME ('03_Zylinderbacke.STEP',
    '2022-08-12T06:48:14',
    ( '' ),
    ( '' ),
    'SwSTEP 2.0',
    'SolidWorks 2018',
    '' );
FILE_SCHEMA (( 'AUTOMOTIVE_DESIGN' ));
ENDSEC;

DATA;
#1 = DIRECTION ( 'NONE',  ( 1.000000000000000000, 0.000000000000000000, 0.000000000000000000 ) ) ;
#2 = CARTESIAN_POINT ( 'NONE',  ( -4.242640687119290988, 9.507359312880721447, -5.000000000000004441 ) ) ;
#3 = CYLINDRICAL_SURFACE ( 'NONE', #619, 6.000000000000000000 ) ;
#4 = DIRECTION ( 'NONE',  ( 0.000000000000000000, -1.000000000000000000, 0.000000000000000000 ) ) ;
#5 = VECTOR ( 'NONE', #833, 1000.000000000000000 ) ;
#6 = CARTESIAN_POINT ( 'NONE',  ( 10.09999999999999432, 21.75000000000000000, -14.00000000000000000 ) ) ;
#7 = CYLINDRICAL_SURFACE ( 'NONE', #796, 2.099999999999992539 ) ;
#8 = EDGE_LOOP ( 'NONE', ( #41, #53, #43, #792 ) ) ;
#9 = PRESENTATION_LAYER_ASSIGNMENT (  '', '', ( #741 ) ) ;
#10 = ORIENTED_EDGE ( 'NONE', *, *, #345, .F. ) ;
#11 = AXIS2_PLACEMENT_3D ( 'NONE', #989, #54, #205 ) ;
#12 = CARTESIAN_POINT ( 'NONE',  ( -13.98316004771431587, 0.000000000000000000, -18.54327719506771999 ) ) ;
#13 = EDGE_CURVE ( 'NONE', #578, #200, #911, .T. ) ;
#14 = CARTESIAN_POINT ( 'NONE',  ( 16.27926064190486244, -0.000000000000000000, -19.00000000000000000 ) ) ;
#15 = FILL_AREA_STYLE ('',( #958 ) ) ;
#16 = CIRCLE ( 'NONE', #151, 5.999999999999998224 ) ;
#17 = ADVANCED_FACE ( 'NONE', ( #745 ), #260, .T. ) ;
#18 = VECTOR ( 'NONE', #274, 1000.000000000000000 ) ;
#19 = FACE_OUTER_BOUND ( 'NONE', #716, .T. ) ;
#20 = FILL_AREA_STYLE ('',( #635 ) ) ;
#21 = EDGE_LOOP ( 'NONE', ( #77, #285, #178 ) ) ;
#22 = VERTEX_POINT ( 'NONE', #603 ) ;
#23 = CARTESIAN_POINT ( 'NONE',  ( -17.50000000000000355, 45.00000000000000000, 0.000000000000000000 ) ) ;
#24 = VERTEX_POINT ( 'NONE', #774 ) ;
#25 = ADVANCED_FACE ( 'NONE', ( #139 ), #693, .T. ) ;
#26 = CARTESIAN_POINT ( 'NONE',  ( 7.999999999999998224, 21.75000000000000000, 1.298125607096191229E-15 ) ) ;
#27 = CARTESIAN_POINT ( 'NONE',  ( -17.50000000000000000, 0.000000000000000000, -20.00000000000000000 ) ) ;
#28 = EDGE_CURVE ( 'NONE', #200, #24, #753, .T. ) ;
#29 = AXIS2_PLACEMENT_3D ( 'NONE', #455, #65, #381 ) ;
#30 =( LENGTH_UNIT ( ) NAMED_UNIT ( * ) SI_UNIT ( .MILLI., .METRE. ) );
#31 = LINE ( 'NONE', #100, #451 ) ;
#32 = EDGE_LOOP ( 'NONE', ( #791, #465, #199, #973 ) ) ;
#33 = DIRECTION ( 'NONE',  ( 0.8571673007021113344, 0.000000000000000000, 0.5150380749100558209 ) ) ;
#34 = ORIENTED_EDGE ( 'NONE', *, *, #251, .T. ) ;
#35 = ORIENTED_EDGE ( 'NONE', *, *, #446, .F. ) ;
#36 = CARTESIAN_POINT ( 'NONE',  ( -8.000000000000000000, 5.749999999999998224, -14.00000000000000000 ) ) ;
#37 = DIRECTION ( 'NONE',  ( 1.000000000000000000, 0.000000000000000000, 0.000000000000000000 ) ) ;
#38 = FACE_OUTER_BOUND ( 'NONE', #222, .T. ) ;
#39 =( GEOMETRIC_REPRESENTATION_CONTEXT ( 3 ) GLOBAL_UNCERTAINTY_ASSIGNED_CONTEXT ( ( #308 ) ) GLOBAL_UNIT_ASSIGNED_CONTEXT ( ( #654, #826, #979 ) ) REPRESENTATION_CONTEXT ( 'NONE', 'WORKASPACE' ) );
#40 = PRESENTATION_STYLE_ASSIGNMENT (( #836 ) ) ;
#41 = ORIENTED_EDGE ( 'NONE', *, *, #639, .F. ) ;
#42 = DIRECTION ( 'NONE',  ( 1.734723475976807587E-16, 0.000000000000000000, 1.000000000000000000 ) ) ;
#43 = ORIENTED_EDGE ( 'NONE', *, *, #712, .F. ) ;
#44 = VERTEX_POINT ( 'NONE', #680 ) ;
#45 = EDGE_CURVE ( 'NONE', #862, #115, #418, .T. ) ;
#46 = AXIS2_PLACEMENT_3D ( 'NONE', #734, #822, #344 ) ;
#47 = CARTESIAN_POINT ( 'NONE',  ( -2.492640687119290988, 9.507359312880721447, 0.000000000000000000 ) ) ;
#48 = DIRECTION ( 'NONE',  ( 1.000000000000000000, 0.000000000000000000, 0.000000000000000000 ) ) ;
#49 = VECTOR ( 'NONE', #590, 1000.000000000000000 ) ;
#50 = LINE ( 'NONE', #628, #646 ) ;
#51 = ORIENTED_EDGE ( 'NONE', *, *, #45, .F. ) ;
#52 = EDGE_LOOP ( 'NONE', ( #117, #188, #877, #505 ) ) ;
#53 = ORIENTED_EDGE ( 'NONE', *, *, #60, .F. ) ;
#54 = DIRECTION ( 'NONE',  ( -0.000000000000000000, -0.000000000000000000, 1.000000000000000000 ) ) ;
#55 = AXIS2_PLACEMENT_3D ( 'NONE', #695, #144, #218 ) ;
#56 = DIRECTION ( 'NONE',  ( 0.000000000000000000, 0.000000000000000000, -1.000000000000000000 ) ) ;
#57 = STYLED_ITEM ( 'NONE', ( #514 ), #408 ) ;
#58 = CARTESIAN_POINT ( 'NONE',  ( -5.742640687119284770, 9.507359312880721447, 0.000000000000000000 ) ) ;
#59 = DIRECTION ( 'NONE',  ( 0.000000000000000000, 0.000000000000000000, 1.000000000000000000 ) ) ;
#60 = EDGE_CURVE ( 'NONE', #359, #116, #318, .T. ) ;
#61 = LINE ( 'NONE', #752, #244 ) ;
#62 = DIRECTION ( 'NONE',  ( -0.000000000000000000, -0.000000000000000000, 1.000000000000000000 ) ) ;
#63 = CARTESIAN_POINT ( 'NONE',  ( 7.999999999999998224, 21.75000000000000000, -14.00000000000000000 ) ) ;
#64 = ORIENTED_EDGE ( 'NONE', *, *, #849, .F. ) ;
#65 = DIRECTION ( 'NONE',  ( -0.000000000000000000, -0.000000000000000000, 1.000000000000000000 ) ) ;
#66 = EDGE_LOOP ( 'NONE', ( #960, #262, #419, #863 ) ) ;
#67 = VERTEX_POINT ( 'NONE', #928 ) ;
#68 = DIRECTION ( 'NONE',  ( -0.9238795325112864054, -0.000000000000000000, 0.3826834323650905589 ) ) ;
#69 = DIRECTION ( 'NONE',  ( 1.000000000000000000, 0.000000000000000000, 0.000000000000000000 ) ) ;
#70 = SURFACE_SIDE_STYLE ('',( #462 ) ) ;
#71 = LINE ( 'NONE', #594, #512 ) ;
#72 = FACE_OUTER_BOUND ( 'NONE', #301, .T. ) ;
#73 = VECTOR ( 'NONE', #940, 1000.000000000000114 ) ;
#74 = EDGE_CURVE ( 'NONE', #492, #232, #102, .T. ) ;
#75 = VERTEX_POINT ( 'NONE', #841 ) ;
#76 =( GEOMETRIC_REPRESENTATION_CONTEXT ( 3 ) GLOBAL_UNCERTAINTY_ASSIGNED_CONTEXT ( ( #689 ) ) GLOBAL_UNIT_ASSIGNED_CONTEXT ( ( #595, #993, #919 ) ) REPRESENTATION_CONTEXT ( 'NONE', 'WORKASPACE' ) );
#77 = ORIENTED_EDGE ( 'NONE', *, *, #251, .F. ) ;
#78 = EDGE_LOOP ( 'NONE', ( #912, #943, #434, #161 ) ) ;
#79 = CARTESIAN_POINT ( 'NONE',  ( -2.296100594190541244, 45.00000000000000000, -13.70233866515746612 ) ) ;
#80 = CARTESIAN_POINT ( 'NONE',  ( 5.900000000000002132, 21.75000000000000000, -14.00000000000000000 ) ) ;
#81 = EDGE_CURVE ( 'NONE', #24, #200, #648, .T. ) ;
#82 = DIRECTION ( 'NONE',  ( 0.8571673007021113344, 0.000000000000000000, 0.5150380749100558209 ) ) ;
#83 = PRODUCT_DEFINITION ( 'UNKNOWN', '', #106, #884 ) ;
#84 = DIRECTION ( 'NONE',  ( -0.7071067811865474617, 8.659560562354932858E-17, 0.7071067811865474617 ) ) ;
#85 = CONICAL_SURFACE ( 'NONE', #970, 1.749999999999999778, 0.7853981633974482790 ) ;
#86 = CIRCLE ( 'NONE', #204, 6.000000000000000000 ) ;
#87 = FACE_OUTER_BOUND ( 'NONE', #66, .T. ) ;
#88 = CARTESIAN_POINT ( 'NONE',  ( -17.50000000000000000, 45.00000000000000000, -20.00000000000000000 ) ) ;
#89 = ORIENTED_EDGE ( 'NONE', *, *, #738, .T. ) ;
#90 = ADVANCED_FACE ( 'NONE', ( #957 ), #701, .F. ) ;
#91 = ORIENTED_EDGE ( 'NONE', *, *, #585, .F. ) ;
#92 = ORIENTED_EDGE ( 'NONE', *, *, #201, .T. ) ;
#93 = DIRECTION ( 'NONE',  ( -0.000000000000000000, 1.000000000000000000, -0.000000000000000000 ) ) ;
#94 = ADVANCED_FACE ( 'NONE', ( #284 ), #778, .F. ) ;
#95 = EDGE_CURVE ( 'NONE', #987, #67, #985, .T. ) ;
#96 = CARTESIAN_POINT ( 'NONE',  ( -4.242640687119290988, 9.507359312880721447, -5.000000000000004441 ) ) ;
#97 = MECHANICAL_DESIGN_GEOMETRIC_PRESENTATION_REPRESENTATION (  '', ( #600 ), #76 ) ;
#98 = FACE_OUTER_BOUND ( 'NONE', #454, .T. ) ;
#99 = ADVANCED_FACE ( 'NONE', ( #441 ), #292, .F. ) ;
#100 = CARTESIAN_POINT ( 'NONE',  ( -10.09999999999999787, 5.749999999999998224, -14.00000000000000000 ) ) ;
#101 = ADVANCED_BREP_SHAPE_REPRESENTATION ( '03_Zylinderbacke', ( #281, #467 ), #899 ) ;
#102 = LINE ( 'NONE', #366, #176 ) ;
#103 = ORIENTED_EDGE ( 'NONE', *, *, #143, .T. ) ;
#104 = ORIENTED_EDGE ( 'NONE', *, *, #534, .F. ) ;
#105 = DIRECTION ( 'NONE',  ( 0.000000000000000000, 0.000000000000000000, -1.000000000000000000 ) ) ;
#106 = PRODUCT_DEFINITION_FORMATION_WITH_SPECIFIED_SOURCE ( 'ANY', '', #503, .NOT_KNOWN. ) ;
#107 = SURFACE_STYLE_USAGE ( .BOTH. , #348 ) ;
#108 = AXIS2_PLACEMENT_3D ( 'NONE', #887, #722, #255 ) ;
#109 = CARTESIAN_POINT ( 'NONE',  ( 2.742640687119305198, 17.99264068711928033, -5.000000000000004441 ) ) ;
#110 = AXIS2_PLACEMENT_3D ( 'NONE', #718, #229, #481 ) ;
#111 = DIRECTION ( 'NONE',  ( -0.000000000000000000, 1.000000000000000000, -0.000000000000000000 ) ) ;
#112 = CONICAL_SURFACE ( 'NONE', #162, 1.499999999999987566, 1.029744258676652535 ) ;
#113 = VECTOR ( 'NONE', #445, 1000.000000000000000 ) ;
#114 = CARTESIAN_POINT ( 'NONE',  ( 1.734723475976807094E-15, 45.00000000000000000, -13.24561586022518256 ) ) ;
#115 = VERTEX_POINT ( 'NONE', #400 ) ;
#116 = VERTEX_POINT ( 'NONE', #631 ) ;
#117 = ORIENTED_EDGE ( 'NONE', *, *, #181, .F. ) ;
#118 = EDGE_CURVE ( 'NONE', #932, #67, #209, .T. ) ;
#119 = VERTEX_POINT ( 'NONE', #544 ) ;
#120 = DIRECTION ( 'NONE',  ( -1.000000000000000000, 0.000000000000000000, 1.734723475976807587E-16 ) ) ;
#121 = DIRECTION ( 'NONE',  ( 1.000000000000000000, 0.000000000000000000, 0.000000000000000000 ) ) ;
#122 = CIRCLE ( 'NONE', #360, 1.499999999999987566 ) ;
#123 = CYLINDRICAL_SURFACE ( 'NONE', #108, 1.499999999999993561 ) ;
#124 = VECTOR ( 'NONE', #458, 1000.000000000000000 ) ;
#125 = UNCERTAINTY_MEASURE_WITH_UNIT (LENGTH_MEASURE( 1.000000000000000082E-05 ), #963, 'distance_accuracy_value', 'NONE');
#126 = ORIENTED_EDGE ( 'NONE', *, *, #904, .F. ) ;
#127 = DIRECTION ( 'NONE',  ( -0.000000000000000000, -0.000000000000000000, 1.000000000000000000 ) ) ;
#128 = ORIENTED_EDGE ( 'NONE', *, *, #832, .T. ) ;
#129 = EDGE_CURVE ( 'NONE', #236, #525, #333, .T. ) ;
#130 = AXIS2_PLACEMENT_3D ( 'NONE', #610, #685, #375 ) ;
#131 = DIRECTION ( 'NONE',  ( 1.000000000000000000, 0.000000000000000000, 0.000000000000000000 ) ) ;
#132 = CARTESIAN_POINT ( 'NONE',  ( -5.742640687119290099, 9.507359312880721447, -0.2500000000000002220 ) ) ;
#133 = EDGE_CURVE ( 'NONE', #507, #641, #638, .T. ) ;
#134 = CONICAL_SURFACE ( 'NONE', #798, 2.099999999999996980, 1.029744258676653201 ) ;
#135 = DIRECTION ( 'NONE',  ( -0.000000000000000000, -0.000000000000000000, 1.000000000000000000 ) ) ;
#136 = CIRCLE ( 'NONE', #992, 6.000000000000000000 ) ;
#137 = APPLICATION_CONTEXT ( 'automotive_design' ) ;
#138 = LINE ( 'NONE', #582, #751 ) ;
#139 = FACE_OUTER_BOUND ( 'NONE', #322, .T. ) ;
#140 = ORIENTED_EDGE ( 'NONE', *, *, #187, .T. ) ;
#141 = ORIENTED_EDGE ( 'NONE', *, *, #904, .T. ) ;
#142 = ORIENTED_EDGE ( 'NONE', *, *, #13, .F. ) ;
#143 = EDGE_CURVE ( 'NONE', #559, #862, #221, .T. ) ;
#144 = DIRECTION ( 'NONE',  ( -0.000000000000000000, -0.000000000000000000, 1.000000000000000000 ) ) ;
#145 = CARTESIAN_POINT ( 'NONE',  ( -5.992640687119290988, 9.507359312880721447, 0.000000000000000000 ) ) ;
#146 = CARTESIAN_POINT ( 'NONE',  ( 16.27926064190486244, 45.00000000000000000, -13.00000000000000000 ) ) ;
#147 = PRODUCT_DEFINITION_SHAPE ( 'NONE', 'NONE',  #83 ) ;
#148 = COLOUR_RGB ( '',0.6980392156862744724, 0.6980392156862744724, 0.6980392156862744724 ) ;
#149 = EDGE_CURVE ( 'NONE', #768, #119, #846, .T. ) ;
#150 = CARTESIAN_POINT ( 'NONE',  ( -17.50000000000000355, 45.00000000000000000, 0.000000000000000000 ) ) ;
#151 = AXIS2_PLACEMENT_3D ( 'NONE', #538, #450, #769 ) ;
#152 = ORIENTED_EDGE ( 'NONE', *, *, #118, .F. ) ;
#153 = ORIENTED_EDGE ( 'NONE', *, *, #696, .F. ) ;
#154 = DIRECTION ( 'NONE',  ( 1.000000000000000000, 0.000000000000000000, 0.000000000000000000 ) ) ;
#155 = ORIENTED_EDGE ( 'NONE', *, *, #133, .T. ) ;
#156 = DIRECTION ( 'NONE',  ( 0.3826834323650905589, -0.000000000000000000, 0.9238795325112865164 ) ) ;
#157 = CARTESIAN_POINT ( 'NONE',  ( -2.742640687119291432, 9.507359312880721447, -0.2500000000000002220 ) ) ;
#158 = CIRCLE ( 'NONE', #130, 6.000000000000000000 ) ;
#159 = LINE ( 'NONE', #659, #475 ) ;
#160 = AXIS2_PLACEMENT_3D ( 'NONE', #809, #725, #404 ) ;
#161 = ORIENTED_EDGE ( 'NONE', *, *, #345, .T. ) ;
#162 = AXIS2_PLACEMENT_3D ( 'NONE', #853, #461, #1 ) ;
#163 = ORIENTED_EDGE ( 'NONE', *, *, #237, .T. ) ;
#164 = ORIENTED_EDGE ( 'NONE', *, *, #823, .T. ) ;
#165 = CARTESIAN_POINT ( 'NONE',  ( 0.000000000000000000, 0.000000000000000000, -19.00000000000000000 ) ) ;
#166 = DIRECTION ( 'NONE',  ( -0.8571673007021115565, 1.049727191138617710E-16, 0.5150380749100554878 ) ) ;
#167 = ADVANCED_FACE ( 'NONE', ( #502 ), #357, .F. ) ;
#168 = EDGE_CURVE ( 'NONE', #731, #492, #406, .T. ) ;
#169 = CARTESIAN_POINT ( 'NONE',  ( 16.27926064190486244, 45.00000000000000000, -19.00000000000000000 ) ) ;
#170 = DIRECTION ( 'NONE',  ( 1.000000000000000000, 0.000000000000000000, 0.000000000000000000 ) ) ;
#171 = DIRECTION ( 'NONE',  ( -0.9238795325112864054, -0.000000000000000000, -0.3826834323650905589 ) ) ;
#172 = LINE ( 'NONE', #238, #981 ) ;
#173 =( NAMED_UNIT ( * ) PLANE_ANGLE_UNIT ( ) SI_UNIT ( $, .RADIAN. ) );
#174 = LINE ( 'NONE', #584, #775 ) ;
#175 = LINE ( 'NONE', #721, #539 ) ;
#176 = VECTOR ( 'NONE', #524, 1000.000000000000000 ) ;
#177 = CARTESIAN_POINT ( 'NONE',  ( 7.999999999999998224, 21.75000000000000000, -14.00000000000000000 ) ) ;
#178 = ORIENTED_EDGE ( 'NONE', *, *, #923, .T. ) ;
#179 = ORIENTED_EDGE ( 'NONE', *, *, #668, .F. ) ;
#180 = DIRECTION ( 'NONE',  ( -0.000000000000000000, -0.000000000000000000, 1.000000000000000000 ) ) ;
#181 = EDGE_CURVE ( 'NONE', #359, #491, #777, .T. ) ;
#182 = AXIS2_PLACEMENT_3D ( 'NONE', #399, #627, #946 ) ;
#183 = CIRCLE ( 'NONE', #459, 1.499999999999999556 ) ;
#184 = FACE_BOUND ( 'NONE', #234, .T. ) ;
#185 = CONICAL_SURFACE ( 'NONE', #938, 1.749999999999999778, 0.7853981633974482790 ) ;
#186 = ORIENTED_EDGE ( 'NONE', *, *, #639, .T. ) ;
#187 = EDGE_CURVE ( 'NONE', #889, #75, #463, .T. ) ;
#188 = ORIENTED_EDGE ( 'NONE', *, *, #60, .T. ) ;
#189 = PLANE ( 'NONE',  #949 ) ;
#190 = EDGE_LOOP ( 'NONE', ( #504, #444, #272, #482 ) ) ;
#191 = DIRECTION ( 'NONE',  ( 0.9238795325112864054, 0.000000000000000000, 0.3826834323650905034 ) ) ;
#192 = PRODUCT_RELATED_PRODUCT_CATEGORY ( 'part', '', ( #503 ) ) ;
#193 = CARTESIAN_POINT ( 'NONE',  ( 4.242640687119292764, 17.99264068711928033, 0.000000000000000000 ) ) ;
#194 = DIRECTION ( 'NONE',  ( 1.000000000000000000, 0.000000000000000000, 0.000000000000000000 ) ) ;
#195 = CIRCLE ( 'NONE', #253, 1.499999999999987566 ) ;
#196 = LINE ( 'NONE', #744, #790 ) ;
#197 = LINE ( 'NONE', #797, #73 ) ;
#198 = DIRECTION ( 'NONE',  ( -0.8571673007021113344, 1.049727191138617463E-16, 0.5150380749100558209 ) ) ;
#199 = ORIENTED_EDGE ( 'NONE', *, *, #45, .T. ) ;
#200 = VERTEX_POINT ( 'NONE', #787 ) ;
#201 = EDGE_CURVE ( 'NONE', #531, #528, #50, .T. ) ;
#202 = ORIENTED_EDGE ( 'NONE', *, *, #771, .T. ) ;
#203 = DIRECTION ( 'NONE',  ( 0.000000000000000000, 1.000000000000000000, 0.000000000000000000 ) ) ;
#204 = AXIS2_PLACEMENT_3D ( 'NONE', #588, #111, #813 ) ;
#205 = DIRECTION ( 'NONE',  ( 1.000000000000000000, 0.000000000000000000, 0.000000000000000000 ) ) ;
#206 = CARTESIAN_POINT ( 'NONE',  ( -4.242640687119290988, 9.507359312880721447, 0.000000000000000000 ) ) ;
#207 = VECTOR ( 'NONE', #917, 1000.000000000000000 ) ;
#208 = FACE_OUTER_BOUND ( 'NONE', #530, .T. ) ;
#209 = LINE ( 'NONE', #150, #817 ) ;
#210 = DIRECTION ( 'NONE',  ( -0.000000000000000000, -1.000000000000000000, -0.000000000000000000 ) ) ;
#211 = VERTEX_POINT ( 'NONE', #6 ) ;
#212 = DIRECTION ( 'NONE',  ( -0.000000000000000000, -0.000000000000000000, 1.000000000000000000 ) ) ;
#213 = ORIENTED_EDGE ( 'NONE', *, *, #129, .T. ) ;
#214 = AXIS2_PLACEMENT_3D ( 'NONE', #729, #490, #321 ) ;
#215 = CARTESIAN_POINT ( 'NONE',  ( 0.000000000000000000, 0.000000000000000000, 0.000000000000000000 ) ) ;
#216 = CARTESIAN_POINT ( 'NONE',  ( -2.710505431213761085E-17, 45.00000000000000000, -12.75126265847081797 ) ) ;
#217 = EDGE_CURVE ( 'NONE', #432, #615, #613, .T. ) ;
#218 = DIRECTION ( 'NONE',  ( 1.000000000000000000, 0.000000000000000000, 0.000000000000000000 ) ) ;
#219 = CIRCLE ( 'NONE', #11, 2.099999999999996092 ) ;
#220 = DIRECTION ( 'NONE',  ( 1.000000000000000000, 0.000000000000000000, 0.000000000000000000 ) ) ;
#221 = LINE ( 'NONE', #855, #983 ) ;
#222 = EDGE_LOOP ( 'NONE', ( #901, #420, #890, #519 ) ) ;
#223 = ORIENTED_EDGE ( 'NONE', *, *, #305, .F. ) ;
#224 = ORIENTED_EDGE ( 'NONE', *, *, #168, .F. ) ;
#225 = EDGE_CURVE ( 'NONE', #115, #768, #430, .T. ) ;
#226 = CARTESIAN_POINT ( 'NONE',  ( 4.242640687119292764, 17.99264068711928033, -0.2500000000000002220 ) ) ;
#227 = DIRECTION ( 'NONE',  ( -0.000000000000000000, -0.000000000000000000, 1.000000000000000000 ) ) ;
#228 = LINE ( 'NONE', #109, #597 ) ;
#229 = DIRECTION ( 'NONE',  ( -0.000000000000000000, -0.000000000000000000, 1.000000000000000000 ) ) ;
#230 = EDGE_CURVE ( 'NONE', #593, #641, #197, .T. ) ;
#231 = CARTESIAN_POINT ( 'NONE',  ( -4.242640687119290988, 9.507359312880721447, 0.000000000000000000 ) ) ;
#232 = VERTEX_POINT ( 'NONE', #157 ) ;
#233 = CARTESIAN_POINT ( 'NONE',  ( -17.50000000000000355, 45.00000000000000000, 0.000000000000000000 ) ) ;
#234 = EDGE_LOOP ( 'NONE', ( #688, #518 ) ) ;
#235 = DIRECTION ( 'NONE',  ( -0.000000000000000000, -0.000000000000000000, 1.000000000000000000 ) ) ;
#236 = VERTEX_POINT ( 'NONE', #12 ) ;
#237 = EDGE_CURVE ( 'NONE', #22, #754, #859, .T. ) ;
#238 = CARTESIAN_POINT ( 'NONE',  ( 16.27926064190486244, 0.000000000000000000, -19.00000000000000000 ) ) ;
#239 = DIRECTION ( 'NONE',  ( 1.000000000000000000, -0.000000000000000000, 1.734723475976807587E-16 ) ) ;
#240 = DIRECTION ( 'NONE',  ( 1.000000000000000000, 0.000000000000000000, 0.000000000000000000 ) ) ;
#241 = ADVANCED_FACE ( 'NONE', ( #1011 ), #7, .F. ) ;
#242 = CARTESIAN_POINT ( 'NONE',  ( 5.992640687119292764, 17.99264068711928033, 0.000000000000000000 ) ) ;
#243 = CARTESIAN_POINT ( 'NONE',  ( 0.000000000000000000, 45.00000000000000000, 0.000000000000000000 ) ) ;
#244 = VECTOR ( 'NONE', #368, 1000.000000000000227 ) ;
#245 = CYLINDRICAL_SURFACE ( 'NONE', #967, 1.499999999999993561 ) ;
#246 = DIRECTION ( 'NONE',  ( -0.8571673007021116675, 1.049727191138617833E-16, 0.5150380749100552658 ) ) ;
#247 = ORIENTED_EDGE ( 'NONE', *, *, #895, .F. ) ;
#248 = ORIENTED_EDGE ( 'NONE', *, *, #803, .T. ) ;
#249 = VERTEX_POINT ( 'NONE', #948 ) ;
#250 = SURFACE_SIDE_STYLE ('',( #835 ) ) ;
#251 = EDGE_CURVE ( 'NONE', #249, #578, #31, .T. ) ;
#252 = DIRECTION ( 'NONE',  ( -0.8571673007021113344, 1.049727191138617463E-16, 0.5150380749100558209 ) ) ;
#253 = AXIS2_PLACEMENT_3D ( 'NONE', #950, #325, #240 ) ;
#254 = ADVANCED_FACE ( 'NONE', ( #87 ), #245, .F. ) ;
#255 = DIRECTION ( 'NONE',  ( 1.000000000000000000, 0.000000000000000000, 0.000000000000000000 ) ) ;
#256 = LINE ( 'NONE', #114, #587 ) ;
#257 = VECTOR ( 'NONE', #212, 1000.000000000000000 ) ;
#258 = ADVANCED_FACE ( 'NONE', ( #898 ), #931, .F. ) ;
#259 = VECTOR ( 'NONE', #699, 1000.000000000000114 ) ;
#260 = CYLINDRICAL_SURFACE ( 'NONE', #580, 6.000000000000000000 ) ;
#261 = ORIENTED_EDGE ( 'NONE', *, *, #738, .F. ) ;
#262 = ORIENTED_EDGE ( 'NONE', *, *, #747, .F. ) ;
#263 = ADVANCED_FACE ( 'NONE', ( #910 ), #477, .T. ) ;
#264 = STYLED_ITEM ( 'NONE', ( #282 ), #281 ) ;
#265 = DIRECTION ( 'NONE',  ( -0.000000000000000000, -0.000000000000000000, 1.000000000000000000 ) ) ;
#266 = AXIS2_PLACEMENT_3D ( 'NONE', #226, #304, #842 ) ;
#267 = PLANE ( 'NONE',  #743 ) ;
#268 = ADVANCED_FACE ( 'NONE', ( #19 ), #123, .F. ) ;
#269 = CIRCLE ( 'NONE', #182, 1.499999999999999556 ) ;
#270 = CARTESIAN_POINT ( 'NONE',  ( -2.296100594190541244, 0.000000000000000000, -13.70233866515746612 ) ) ;
#271 = EDGE_CURVE ( 'NONE', #67, #999, #175, .T. ) ;
#272 = ORIENTED_EDGE ( 'NONE', *, *, #990, .F. ) ;
#273 = EDGE_LOOP ( 'NONE', ( #1003, #666, #163, #664 ) ) ;
#274 = DIRECTION ( 'NONE',  ( 1.000000000000000000, 0.000000000000000000, 0.000000000000000000 ) ) ;
#275 = ORIENTED_EDGE ( 'NONE', *, *, #133, .F. ) ;
#276 = CARTESIAN_POINT ( 'NONE',  ( -5.900000000000007461, 5.749999999999998224, 0.000000000000000000 ) ) ;
#277 = ADVANCED_FACE ( 'NONE', ( #379 ), #886, .F. ) ;
#278 = DIRECTION ( 'NONE',  ( 0.000000000000000000, 0.000000000000000000, -1.000000000000000000 ) ) ;
#279 = FILL_AREA_STYLE ('',( #438 ) ) ;
#280 = LINE ( 'NONE', #760, #207 ) ;
#281 = MANIFOLD_SOLID_BREP ( 'M5 Gewindebohrung2', #902 ) ;
#282 = PRESENTATION_STYLE_ASSIGNMENT (( #805 ) ) ;
#283 = CARTESIAN_POINT ( 'NONE',  ( 10.09999999999999076, 21.75000000000000000, 0.000000000000000000 ) ) ;
#284 = FACE_OUTER_BOUND ( 'NONE', #380, .T. ) ;
#285 = ORIENTED_EDGE ( 'NONE', *, *, #305, .T. ) ;
#286 = AXIS2_PLACEMENT_3D ( 'NONE', #386, #624, #784 ) ;
#287 = ORIENTED_EDGE ( 'NONE', *, *, #143, .F. ) ;
#288 = SURFACE_SIDE_STYLE ('',( #661 ) ) ;
#289 = SURFACE_SIDE_STYLE ('',( #953 ) ) ;
#290 = CARTESIAN_POINT ( 'NONE',  ( -10.09999999999999787, 5.749999999999998224, -14.00000000000000000 ) ) ;
#291 = EDGE_CURVE ( 'NONE', #350, #370, #331, .T. ) ;
#292 = PLANE ( 'NONE',  #371 ) ;
#293 = FILL_AREA_STYLE_COLOUR ( '', #148 ) ;
#294 = VECTOR ( 'NONE', #84, 1000.000000000000114 ) ;
#295 = DIRECTION ( 'NONE',  ( -1.000000000000000000, 0.000000000000000000, 0.000000000000000000 ) ) ;
#296 = DIRECTION ( 'NONE',  ( -0.000000000000000000, -1.000000000000000000, -0.000000000000000000 ) ) ;
#297 = DIRECTION ( 'NONE',  ( 1.000000000000000000, 0.000000000000000000, 0.000000000000000000 ) ) ;
#298 = EDGE_LOOP ( 'NONE', ( #705, #589, #888 ) ) ;
#299 = CARTESIAN_POINT ( 'NONE',  ( 17.50000000000000355, 45.00000000000000000, 0.000000000000000000 ) ) ;
#300 = ORIENTED_EDGE ( 'NONE', *, *, #217, .F. ) ;
#301 = EDGE_LOOP ( 'NONE', ( #820, #644, #567, #926 ) ) ;
#302 = CARTESIAN_POINT ( 'NONE',  ( -2.710505431213761085E-17, 45.00000000000000000, -12.75126265847081797 ) ) ;
#303 = DIRECTION ( 'NONE',  ( -0.000000000000000000, -0.000000000000000000, 1.000000000000000000 ) ) ;
#304 = DIRECTION ( 'NONE',  ( -0.000000000000000000, -0.000000000000000000, 1.000000000000000000 ) ) ;
#305 = EDGE_CURVE ( 'NONE', #249, #851, #488, .T. ) ;
#306 = VECTOR ( 'NONE', #171, 1000.000000000000227 ) ;
#307 = AXIS2_PLACEMENT_3D ( 'NONE', #875, #556, #858 ) ;
#308 = UNCERTAINTY_MEASURE_WITH_UNIT (LENGTH_MEASURE( 1.000000000000000082E-05 ), #654, 'distance_accuracy_value', 'NONE');
#309 = ORIENTED_EDGE ( 'NONE', *, *, #771, .F. ) ;
#310 = DIRECTION ( 'NONE',  ( -0.000000000000000000, -0.000000000000000000, 1.000000000000000000 ) ) ;
#311 = ORIENTED_EDGE ( 'NONE', *, *, #376, .F. ) ;
#312 = ORIENTED_EDGE ( 'NONE', *, *, #168, .T. ) ;
#313 = DIRECTION ( 'NONE',  ( 0.000000000000000000, -0.000000000000000000, -1.000000000000000000 ) ) ;
#314 = CARTESIAN_POINT ( 'NONE',  ( 1.734723475976807094E-15, 45.00000000000000000, -19.24561586022518256 ) ) ;
#315 = MECHANICAL_DESIGN_GEOMETRIC_PRESENTATION_REPRESENTATION (  '', ( #264 ), #423 ) ;
#316 = CARTESIAN_POINT ( 'NONE',  ( -17.50000000000000000, 0.000000000000000000, -20.00000000000000000 ) ) ;
#317 = MECHANICAL_DESIGN_GEOMETRIC_PRESENTATION_REPRESENTATION (  '', ( #57 ), #39 ) ;
#318 = LINE ( 'NONE', #1004, #614 ) ;
#319 = DIRECTION ( 'NONE',  ( -0.000000000000000000, -0.000000000000000000, 1.000000000000000000 ) ) ;
#320 = ORIENTED_EDGE ( 'NONE', *, *, #74, .F. ) ;
#321 = DIRECTION ( 'NONE',  ( 1.000000000000000000, 0.000000000000000000, 0.000000000000000000 ) ) ;
#322 = EDGE_LOOP ( 'NONE', ( #934, #186, #1001, #602, #616, #878, #89, #153, #311, #397, #489 ) ) ;
#323 = VERTEX_POINT ( 'NONE', #483 ) ;
#324 = EDGE_CURVE ( 'NONE', #838, #453, #86, .T. ) ;
#325 = DIRECTION ( 'NONE',  ( -0.000000000000000000, -0.000000000000000000, 1.000000000000000000 ) ) ;
#326 = ADVANCED_FACE ( 'NONE', ( #500 ), #378, .F. ) ;
#327 = CARTESIAN_POINT ( 'NONE',  ( 5.742640687119280329, 17.99264068711928033, -5.000000000000004441 ) ) ;
#328 = DIRECTION ( 'NONE',  ( -0.000000000000000000, -0.000000000000000000, 1.000000000000000000 ) ) ;
#329 = LINE ( 'NONE', #498, #49 ) ;
#330 = VECTOR ( 'NONE', #342, 1000.000000000000000 ) ;
#331 = CIRCLE ( 'NONE', #470, 5.999999999999998224 ) ;
#332 = SURFACE_SIDE_STYLE ('',( #662 ) ) ;
#333 = LINE ( 'NONE', #868, #124 ) ;
#334 = EDGE_LOOP ( 'NONE', ( #1015, #202, #652, #959 ) ) ;
#335 = DIRECTION ( 'NONE',  ( -0.9238795325112864054, -0.000000000000000000, -0.3826834323650905589 ) ) ;
#336 = EDGE_LOOP ( 'NONE', ( #361, #808, #261, #807 ) ) ;
#337 = ADVANCED_FACE ( 'NONE', ( #982 ), #819, .F. ) ;
#338 = CARTESIAN_POINT ( 'NONE',  ( -4.242640687119290988, 9.507359312880721447, 0.000000000000000000 ) ) ;
#339 = AXIS2_PLACEMENT_3D ( 'NONE', #1008, #772, #677 ) ;
#340 = AXIS2_PLACEMENT_3D ( 'NONE', #550, #319, #795 ) ;
#341 = UNCERTAINTY_MEASURE_WITH_UNIT (LENGTH_MEASURE( 1.000000000000000082E-05 ), #605, 'distance_accuracy_value', 'NONE');
#342 = DIRECTION ( 'NONE',  ( -0.000000000000000000, 1.000000000000000000, -0.000000000000000000 ) ) ;
#343 = VECTOR ( 'NONE', #335, 1000.000000000000227 ) ;
#344 = DIRECTION ( 'NONE',  ( 0.000000000000000000, 0.000000000000000000, 1.000000000000000000 ) ) ;
#345 = EDGE_CURVE ( 'NONE', #396, #432, #346, .T. ) ;
#346 = LINE ( 'NONE', #977, #330 ) ;
#347 = ORIENTED_EDGE ( 'NONE', *, *, #13, .T. ) ;
#348 = SURFACE_SIDE_STYLE ('',( #971 ) ) ;
#349 = ORIENTED_EDGE ( 'NONE', *, *, #657, .T. ) ;
#350 = VERTEX_POINT ( 'NONE', #270 ) ;
#351 = ORIENTED_EDGE ( 'NONE', *, *, #534, .T. ) ;
#352 = CARTESIAN_POINT ( 'NONE',  ( 13.98316004771431942, 45.00000000000000000, -18.54327719506771999 ) ) ;
#353 = FILL_AREA_STYLE_COLOUR ( '', #612 ) ;
#354 = CARTESIAN_POINT ( 'NONE',  ( 4.242640687119292764, 17.99264068711928033, 0.000000000000000000 ) ) ;
#355 = LINE ( 'NONE', #532, #697 ) ;
#356 = CARTESIAN_POINT ( 'NONE',  ( 1.734723475976807094E-15, 45.00000000000000000, -13.24561586022518256 ) ) ;
#357 = CYLINDRICAL_SURFACE ( 'NONE', #706, 1.499999999999993561 ) ;
#358 = EDGE_CURVE ( 'NONE', #987, #116, #576, .T. ) ;
#359 = VERTEX_POINT ( 'NONE', #749 ) ;
#360 = AXIS2_PLACEMENT_3D ( 'NONE', #893, #968, #655 ) ;
#361 = ORIENTED_EDGE ( 'NONE', *, *, #324, .F. ) ;
#362 = CARTESIAN_POINT ( 'NONE',  ( -4.242640687119290988, 9.507359312880721447, 0.000000000000000000 ) ) ;
#363 = ORIENTED_EDGE ( 'NONE', *, *, #237, .F. ) ;
#364 = CARTESIAN_POINT ( 'NONE',  ( -17.50000000000000355, 0.000000000000000000, -19.00000000000000000 ) ) ;
#365 =( NAMED_UNIT ( * ) SI_UNIT ( $, .STERADIAN. ) SOLID_ANGLE_UNIT ( ) );
#366 = CARTESIAN_POINT ( 'NONE',  ( -2.742640687119297205, 9.507359312880721447, 0.000000000000000000 ) ) ;
#367 = FACE_OUTER_BOUND ( 'NONE', #687, .T. ) ;
#368 = DIRECTION ( 'NONE',  ( -0.9238795325112864054, -0.000000000000000000, 0.3826834323650905589 ) ) ;
#369 = VECTOR ( 'NONE', #62, 1000.000000000000000 ) ;
#370 = VERTEX_POINT ( 'NONE', #965 ) ;
#371 = AXIS2_PLACEMENT_3D ( 'NONE', #710, #239, #471 ) ;
#372 = ORIENTED_EDGE ( 'NONE', *, *, #990, .T. ) ;
#373 = DIRECTION ( 'NONE',  ( -0.000000000000000000, -0.000000000000000000, 1.000000000000000000 ) ) ;
#374 = AXIS2_PLACEMENT_3D ( 'NONE', #824, #894, #509 ) ;
#375 = DIRECTION ( 'NONE',  ( 4.625929269271485322E-15, 0.000000000000000000, -1.000000000000000000 ) ) ;
#376 = EDGE_CURVE ( 'NONE', #999, #323, #159, .T. ) ;
#377 = DIRECTION ( 'NONE',  ( 0.000000000000000000, -0.000000000000000000, -1.000000000000000000 ) ) ;
#378 = CYLINDRICAL_SURFACE ( 'NONE', #46, 6.000000000000000000 ) ;
#379 = FACE_OUTER_BOUND ( 'NONE', #298, .T. ) ;
#380 = EDGE_LOOP ( 'NONE', ( #223, #34, #351 ) ) ;
#381 = DIRECTION ( 'NONE',  ( 1.000000000000000000, 0.000000000000000000, 0.000000000000000000 ) ) ;
#382 = EDGE_LOOP ( 'NONE', ( #126, #103, #517 ) ) ;
#383 = DIRECTION ( 'NONE',  ( 1.000000000000000000, 0.000000000000000000, 0.000000000000000000 ) ) ;
#384 = ORIENTED_EDGE ( 'NONE', *, *, #181, .T. ) ;
#385 = FILL_AREA_STYLE_COLOUR ( '', #634 ) ;
#386 = CARTESIAN_POINT ( 'NONE',  ( 4.242640687119292764, 17.99264068711928033, 0.000000000000000000 ) ) ;
#387 = DIRECTION ( 'NONE',  ( 1.000000000000000000, 0.000000000000000000, 0.000000000000000000 ) ) ;
#388 = AXIS2_PLACEMENT_3D ( 'NONE', #608, #303, #69 ) ;
#389 = FACE_OUTER_BOUND ( 'NONE', #717, .T. ) ;
#390 = STYLED_ITEM ( 'NONE', ( #854 ), #101 ) ;
#391 = FACE_BOUND ( 'NONE', #900, .T. ) ;
#392 = CARTESIAN_POINT ( 'NONE',  ( 16.27926064190486244, 0.000000000000000000, -13.00000000000000000 ) ) ;
#393 = FACE_OUTER_BOUND ( 'NONE', #334, .T. ) ;
#394 = ORIENTED_EDGE ( 'NONE', *, *, #1012, .T. ) ;
#395 = DIRECTION ( 'NONE',  ( -0.000000000000000000, -0.000000000000000000, 1.000000000000000000 ) ) ;
#396 = VERTEX_POINT ( 'NONE', #891 ) ;
#397 = ORIENTED_EDGE ( 'NONE', *, *, #271, .F. ) ;
#398 = EDGE_CURVE ( 'NONE', #860, #492, #636, .T. ) ;
#399 = CARTESIAN_POINT ( 'NONE',  ( -4.242640687119290988, 9.507359312880721447, -0.2500000000000002220 ) ) ;
#400 = CARTESIAN_POINT ( 'NONE',  ( 5.742640687119291876, 17.99264068711928033, -0.2500000000000002220 ) ) ;
#401 = CARTESIAN_POINT ( 'NONE',  ( 2.492640687119292764, 17.99264068711928033, 0.000000000000000000 ) ) ;
#402 = DIRECTION ( 'NONE',  ( -0.000000000000000000, -0.000000000000000000, 1.000000000000000000 ) ) ;
#403 = CARTESIAN_POINT ( 'NONE',  ( -4.242640687119290988, 9.507359312880721447, 0.000000000000000000 ) ) ;
#404 = DIRECTION ( 'NONE',  ( 0.000000000000000000, 0.000000000000000000, 1.000000000000000000 ) ) ;
#405 = CYLINDRICAL_SURFACE ( 'NONE', #374, 2.099999999999992539 ) ;
#406 = CIRCLE ( 'NONE', #916, 1.499999999999987566 ) ;
#407 = EDGE_LOOP ( 'NONE', ( #770, #213, #64, #452 ) ) ;
#408 = ADVANCED_FACE ( 'NONE', ( #714 ), #405, .F. ) ;
#409 =( NAMED_UNIT ( * ) PLANE_ANGLE_UNIT ( ) SI_UNIT ( $, .RADIAN. ) );
#410 = ORIENTED_EDGE ( 'NONE', *, *, #81, .T. ) ;
#411 = ORIENTED_EDGE ( 'NONE', *, *, #882, .F. ) ;
#412 = AXIS2_PLACEMENT_3D ( 'NONE', #302, #156, #702 ) ;
#413 = DIRECTION ( 'NONE',  ( 1.000000000000000000, 0.000000000000000000, 0.000000000000000000 ) ) ;
#414 = UNCERTAINTY_MEASURE_WITH_UNIT (LENGTH_MEASURE( 1.000000000000000082E-05 ), #682, 'distance_accuracy_value', 'NONE');
#415 = LINE ( 'NONE', #651, #856 ) ;
#416 = DIRECTION ( 'NONE',  ( -0.000000000000000000, -0.000000000000000000, 1.000000000000000000 ) ) ;
#417 = CIRCLE ( 'NONE', #548, 6.000000000000000000 ) ;
#418 = LINE ( 'NONE', #925, #369 ) ;
#419 = ORIENTED_EDGE ( 'NONE', *, *, #74, .T. ) ;
#420 = ORIENTED_EDGE ( 'NONE', *, *, #978, .F. ) ;
#421 = DIRECTION ( 'NONE',  ( -0.3826834323650905589, 0.000000000000000000, 0.9238795325112865164 ) ) ;
#422 = ADVANCED_FACE ( 'NONE', ( #908 ), #267, .F. ) ;
#423 =( GEOMETRIC_REPRESENTATION_CONTEXT ( 3 ) GLOBAL_UNCERTAINTY_ASSIGNED_CONTEXT ( ( #785 ) ) GLOBAL_UNIT_ASSIGNED_CONTEXT ( ( #30, #409, #955 ) ) REPRESENTATION_CONTEXT ( 'NONE', 'WORKASPACE' ) );
#424 = CARTESIAN_POINT ( 'NONE',  ( -4.242640687119290988, 9.507359312880721447, -0.2500000000000002220 ) ) ;
#425 = AXIS2_PLACEMENT_3D ( 'NONE', #1017, #227, #782 ) ;
#426 = CARTESIAN_POINT ( 'NONE',  ( 0.000000000000000000, 0.000000000000000000, -19.00000000000000000 ) ) ;
#427 = CARTESIAN_POINT ( 'NONE',  ( 17.50000000000000000, 45.00000000000000000, -20.00000000000000000 ) ) ;
#428 = PRESENTATION_STYLE_ASSIGNMENT (( #694 ) ) ;
#429 = EDGE_CURVE ( 'NONE', #75, #22, #553, .T. ) ;
#430 = LINE ( 'NONE', #242, #259 ) ;
#431 = CARTESIAN_POINT ( 'NONE',  ( 17.50000000000000355, 45.00000000000000000, -19.00000000000000000 ) ) ;
#432 = VERTEX_POINT ( 'NONE', #506 ) ;
#433 = ORIENTED_EDGE ( 'NONE', *, *, #398, .T. ) ;
#434 = ORIENTED_EDGE ( 'NONE', *, *, #555, .T. ) ;
#435 = DIRECTION ( 'NONE',  ( 0.000000000000000000, 0.000000000000000000, 1.000000000000000000 ) ) ;
#436 = DIRECTION ( 'NONE',  ( -0.000000000000000000, -0.000000000000000000, 1.000000000000000000 ) ) ;
#437 = DIRECTION ( 'NONE',  ( 1.000000000000000000, 0.000000000000000000, 0.000000000000000000 ) ) ;
#438 = FILL_AREA_STYLE_COLOUR ( '', #897 ) ;
#439 = CARTESIAN_POINT ( 'NONE',  ( -17.50000000000000355, 45.00000000000000000, 0.000000000000000000 ) ) ;
#440 = COLOUR_RGB ( '',0.6980392156862744724, 0.6980392156862744724, 0.6980392156862744724 ) ;
#441 = FACE_OUTER_BOUND ( 'NONE', #626, .T. ) ;
#442 = PRESENTATION_LAYER_ASSIGNMENT (  '', '', ( #390 ) ) ;
#443 = ORIENTED_EDGE ( 'NONE', *, *, #429, .F. ) ;
#444 = ORIENTED_EDGE ( 'NONE', *, *, #726, .T. ) ;
#445 = DIRECTION ( 'NONE',  ( 0.8571673007021115565, 0.000000000000000000, 0.5150380749100554878 ) ) ;
#446 = EDGE_CURVE ( 'NONE', #860, #731, #174, .T. ) ;
#447 =( NAMED_UNIT ( * ) PLANE_ANGLE_UNIT ( ) SI_UNIT ( $, .RADIAN. ) );
#448 = CARTESIAN_POINT ( 'NONE',  ( -8.000000000000000000, 5.749999999999998224, -14.00000000000000000 ) ) ;
#449 = CYLINDRICAL_SURFACE ( 'NONE', #527, 1.499999999999993561 ) ;
#450 = DIRECTION ( 'NONE',  ( -0.000000000000000000, 1.000000000000000000, -0.000000000000000000 ) ) ;
#451 = VECTOR ( 'NONE', #246, 1000.000000000000000 ) ;
#452 = ORIENTED_EDGE ( 'NONE', *, *, #480, .T. ) ;
#453 = VERTEX_POINT ( 'NONE', #352 ) ;
#454 = EDGE_LOOP ( 'NONE', ( #464, #828, #312 ) ) ;
#455 = CARTESIAN_POINT ( 'NONE',  ( 4.242640687119292764, 17.99264068711928033, -0.2500000000000002220 ) ) ;
#456 =( NAMED_UNIT ( * ) PLANE_ANGLE_UNIT ( ) SI_UNIT ( $, .RADIAN. ) );
#457 = EDGE_CURVE ( 'NONE', #491, #987, #196, .T. ) ;
#458 = DIRECTION ( 'NONE',  ( 0.000000000000000000, 1.000000000000000000, 0.000000000000000000 ) ) ;
#459 = AXIS2_PLACEMENT_3D ( 'NONE', #424, #988, #508 ) ;
#460 = FACE_OUTER_BOUND ( 'NONE', #554, .T. ) ;
#461 = DIRECTION ( 'NONE',  ( -0.000000000000000000, -0.000000000000000000, 1.000000000000000000 ) ) ;
#462 = SURFACE_STYLE_FILL_AREA ( #776 ) ;
#463 = LINE ( 'NONE', #80, #562 ) ;
#464 = ORIENTED_EDGE ( 'NONE', *, *, #398, .F. ) ;
#465 = ORIENTED_EDGE ( 'NONE', *, *, #892, .F. ) ;
#466 = ORIENTED_EDGE ( 'NONE', *, *, #783, .F. ) ;
#467 = AXIS2_PLACEMENT_3D ( 'NONE', #526, #59, #297 ) ;
#468 = DIRECTION ( 'NONE',  ( 0.000000000000000000, 0.000000000000000000, -1.000000000000000000 ) ) ;
#469 = DIRECTION ( 'NONE',  ( 0.000000000000000000, -1.000000000000000000, 0.000000000000000000 ) ) ;
#470 = AXIS2_PLACEMENT_3D ( 'NONE', #873, #93, #105 ) ;
#471 = DIRECTION ( 'NONE',  ( 1.734723475976807587E-16, 0.000000000000000000, -1.000000000000000000 ) ) ;
#472 = AXIS2_PLACEMENT_3D ( 'NONE', #354, #746, #437 ) ;
#473 = CIRCLE ( 'NONE', #581, 1.749999999999999778 ) ;
#474 = CARTESIAN_POINT ( 'NONE',  ( -5.900000000000003020, 5.749999999999998224, -14.00000000000000000 ) ) ;
#475 = VECTOR ( 'NONE', #656, 1000.000000000000000 ) ;
#476 = ADVANCED_FACE ( 'NONE', ( #393 ), #185, .F. ) ;
#477 = CYLINDRICAL_SURFACE ( 'NONE', #160, 6.000000000000000000 ) ;
#478 = EDGE_LOOP ( 'NONE', ( #623, #604, #300, #10 ) ) ;
#479 = VERTEX_POINT ( 'NONE', #431 ) ;
#480 = EDGE_CURVE ( 'NONE', #780, #350, #138, .T. ) ;
#481 = DIRECTION ( 'NONE',  ( 1.000000000000000000, 0.000000000000000000, 0.000000000000000000 ) ) ;
#482 = ORIENTED_EDGE ( 'NONE', *, *, #978, .T. ) ;
#483 = CARTESIAN_POINT ( 'NONE',  ( 17.50000000000000000, 0.000000000000000000, -19.00000000000000000 ) ) ;
#484 = EDGE_CURVE ( 'NONE', #731, #593, #942, .T. ) ;
#485 = LINE ( 'NONE', #27, #343 ) ;
#486 = CARTESIAN_POINT ( 'NONE',  ( -5.900000000000003020, 5.749999999999998224, -14.00000000000000000 ) ) ;
#487 = LINE ( 'NONE', #439, #802 ) ;
#488 = LINE ( 'NONE', #486, #686 ) ;
#489 = ORIENTED_EDGE ( 'NONE', *, *, #95, .F. ) ;
#490 = DIRECTION ( 'NONE',  ( -0.000000000000000000, -0.000000000000000000, 1.000000000000000000 ) ) ;
#491 = VERTEX_POINT ( 'NONE', #907 ) ;
#492 = VERTEX_POINT ( 'NONE', #601 ) ;
#493 = AXIS2_PLACEMENT_3D ( 'NONE', #592, #522, #48 ) ;
#494 = CARTESIAN_POINT ( 'NONE',  ( -17.50000000000000000, 45.00000000000000000, -20.00000000000000000 ) ) ;
#495 = CARTESIAN_POINT ( 'NONE',  ( 7.999999999999994671, 21.75000000000000000, -15.26180729995787644 ) ) ;
#496 = CARTESIAN_POINT ( 'NONE',  ( -17.50000000000000355, 0.000000000000000000, -19.00000000000000000 ) ) ;
#497 = EDGE_CURVE ( 'NONE', #211, #75, #219, .T. ) ;
#498 = CARTESIAN_POINT ( 'NONE',  ( 13.98316004771431764, 45.00000000000000000, -18.54327719506771643 ) ) ;
#499 = LINE ( 'NONE', #521, #845 ) ;
#500 = FACE_OUTER_BOUND ( 'NONE', #478, .T. ) ;
#501 = DIRECTION ( 'NONE',  ( -0.000000000000000000, 0.000000000000000000, 1.000000000000000000 ) ) ;
#502 = FACE_OUTER_BOUND ( 'NONE', #32, .T. ) ;
#503 = PRODUCT ( '03_Zylinderbacke', '03_Zylinderbacke', '', ( #1005 ) ) ;
#504 = ORIENTED_EDGE ( 'NONE', *, *, #376, .T. ) ;
#505 = ORIENTED_EDGE ( 'NONE', *, *, #457, .F. ) ;
#506 = CARTESIAN_POINT ( 'NONE',  ( 2.296100594190543909, 45.00000000000000000, -13.70233866515746612 ) ) ;
#507 = VERTEX_POINT ( 'NONE', #47 ) ;
#508 = DIRECTION ( 'NONE',  ( 1.000000000000000000, 0.000000000000000000, 0.000000000000000000 ) ) ;
#509 = DIRECTION ( 'NONE',  ( 1.000000000000000000, 0.000000000000000000, 0.000000000000000000 ) ) ;
#510 = DIRECTION ( 'NONE',  ( 0.000000000000000000, -1.000000000000000000, 0.000000000000000000 ) ) ;
#511 = DIRECTION ( 'NONE',  ( -0.000000000000000000, -0.000000000000000000, 1.000000000000000000 ) ) ;
#512 = VECTOR ( 'NONE', #671, 1000.000000000000000 ) ;
#513 = EDGE_CURVE ( 'NONE', #889, #211, #1010, .T. ) ;
#514 = PRESENTATION_STYLE_ASSIGNMENT (( #107 ) ) ;
#515 = CARTESIAN_POINT ( 'NONE',  ( 1.734723475976807094E-15, 45.00000000000000000, -19.24561586022518256 ) ) ;
#516 = CARTESIAN_POINT ( 'NONE',  ( 4.242640687119290988, 17.99264068711928033, -5.901290928541340186 ) ) ;
#517 = ORIENTED_EDGE ( 'NONE', *, *, #892, .T. ) ;
#518 = ORIENTED_EDGE ( 'NONE', *, *, #28, .F. ) ;
#519 = ORIENTED_EDGE ( 'NONE', *, *, #118, .T. ) ;
#520 = DIRECTION ( 'NONE',  ( 1.000000000000000000, 0.000000000000000000, 0.000000000000000000 ) ) ;
#521 = CARTESIAN_POINT ( 'NONE',  ( -2.492640687119290988, 9.507359312880721447, 0.000000000000000000 ) ) ;
#522 = DIRECTION ( 'NONE',  ( -0.000000000000000000, -0.000000000000000000, 1.000000000000000000 ) ) ;
#523 =( GEOMETRIC_REPRESENTATION_CONTEXT ( 3 ) GLOBAL_UNCERTAINTY_ASSIGNED_CONTEXT ( ( #125 ) ) GLOBAL_UNIT_ASSIGNED_CONTEXT ( ( #963, #173, #569 ) ) REPRESENTATION_CONTEXT ( 'NONE', 'WORKASPACE' ) );
#524 = DIRECTION ( 'NONE',  ( -0.000000000000000000, -0.000000000000000000, 1.000000000000000000 ) ) ;
#525 = VERTEX_POINT ( 'NONE', #1002 ) ;
#526 = CARTESIAN_POINT ( 'NONE',  ( 0.000000000000000000, 0.000000000000000000, 0.000000000000000000 ) ) ;
#527 = AXIS2_PLACEMENT_3D ( 'NONE', #362, #764, #915 ) ;
#528 = VERTEX_POINT ( 'NONE', #673 ) ;
#529 = CARTESIAN_POINT ( 'NONE',  ( 17.50000000000000355, 45.00000000000000000, -19.00000000000000000 ) ) ;
#530 = EDGE_LOOP ( 'NONE', ( #443, #739, #563, #128 ) ) ;
#531 = VERTEX_POINT ( 'NONE', #840 ) ;
#532 = CARTESIAN_POINT ( 'NONE',  ( 17.50000000000000355, 45.00000000000000000, 0.000000000000000000 ) ) ;
#533 = DIRECTION ( 'NONE',  ( -0.000000000000000000, 1.000000000000000000, -0.000000000000000000 ) ) ;
#534 = EDGE_CURVE ( 'NONE', #578, #851, #804, .T. ) ;
#535 = CARTESIAN_POINT ( 'NONE',  ( 0.000000000000000000, -0.000000000000000000, -19.00000000000000000 ) ) ;
#536 = DIRECTION ( 'NONE',  ( 0.000000000000000000, -1.000000000000000000, 0.000000000000000000 ) ) ;
#537 = CONICAL_SURFACE ( 'NONE', #918, 1.499999999999987566, 1.029744258676652535 ) ;
#538 = CARTESIAN_POINT ( 'NONE',  ( 1.734723475976807094E-15, 0.000000000000000000, -19.24561586022518256 ) ) ;
#539 = VECTOR ( 'NONE', #572, 1000.000000000000000 ) ;
#540 = ORIENTED_EDGE ( 'NONE', *, *, #803, .F. ) ;
#541 = ORIENTED_EDGE ( 'NONE', *, *, #712, .T. ) ;
#542 = MECHANICAL_DESIGN_GEOMETRIC_PRESENTATION_REPRESENTATION (  '', ( #390 ), #676 ) ;
#543 = EDGE_LOOP ( 'NONE', ( #781, #140, #394 ) ) ;
#544 = CARTESIAN_POINT ( 'NONE',  ( 2.492640687119292764, 17.99264068711928033, 0.000000000000000000 ) ) ;
#545 = CARTESIAN_POINT ( 'NONE',  ( 10.09999999999998721, 21.75000000000000000, 1.298125607096191229E-15 ) ) ;
#546 = MECHANICAL_DESIGN_GEOMETRIC_PRESENTATION_REPRESENTATION (  '', ( #741 ), #523 ) ;
#547 = CARTESIAN_POINT ( 'NONE',  ( -17.50000000000000355, 45.00000000000000000, -19.00000000000000000 ) ) ;
#548 = AXIS2_PLACEMENT_3D ( 'NONE', #392, #4, #713 ) ;
#549 = CONICAL_SURFACE ( 'NONE', #762, 1.499999999999987566, 1.029744258676652535 ) ;
#550 = CARTESIAN_POINT ( 'NONE',  ( -4.242640687119290988, 9.507359312880721447, 0.000000000000000000 ) ) ;
#551 = CIRCLE ( 'NONE', #29, 1.499999999999999556 ) ;
#552 = CARTESIAN_POINT ( 'NONE',  ( -8.000000000000000000, 5.749999999999998224, 0.000000000000000000 ) ) ;
#553 = LINE ( 'NONE', #980, #765 ) ;
#554 = EDGE_LOOP ( 'NONE', ( #287, #141, #248 ) ) ;
#555 = EDGE_CURVE ( 'NONE', #44, #396, #61, .T. ) ;
#556 = DIRECTION ( 'NONE',  ( -0.000000000000000000, -0.000000000000000000, 1.000000000000000000 ) ) ;
#557 = ORIENTED_EDGE ( 'NONE', *, *, #726, .F. ) ;
#558 = DIRECTION ( 'NONE',  ( -1.734723475976807094E-16, 0.000000000000000000, 1.000000000000000000 ) ) ;
#559 = VERTEX_POINT ( 'NONE', #516 ) ;
#560 = ADVANCED_FACE ( 'NONE', ( #736 ), #449, .F. ) ;
#561 = ADVANCED_FACE ( 'NONE', ( #922 ), #711, .F. ) ;
#562 = VECTOR ( 'NONE', #166, 1000.000000000000000 ) ;
#563 = ORIENTED_EDGE ( 'NONE', *, *, #607, .T. ) ;
#564 = ADVANCED_FACE ( 'NONE', ( #72 ), #85, .F. ) ;
#565 = ORIENTED_EDGE ( 'NONE', *, *, #230, .F. ) ;
#566 = EDGE_CURVE ( 'NONE', #232, #507, #499, .T. ) ;
#567 = ORIENTED_EDGE ( 'NONE', *, *, #783, .T. ) ;
#568 = AXIS2_PLACEMENT_3D ( 'NONE', #233, #468, #788 ) ;
#569 =( NAMED_UNIT ( * ) SI_UNIT ( $, .STERADIAN. ) SOLID_ANGLE_UNIT ( ) );
#570 = CARTESIAN_POINT ( 'NONE',  ( 4.242640687119292764, 17.99264068711928033, -5.000000000000004441 ) ) ;
#571 = UNCERTAINTY_MEASURE_WITH_UNIT (LENGTH_MEASURE( 1.000000000000000082E-05 ), #930, 'distance_accuracy_value', 'NONE');
#572 = DIRECTION ( 'NONE',  ( 1.000000000000000000, 0.000000000000000000, 0.000000000000000000 ) ) ;
#573 = FACE_OUTER_BOUND ( 'NONE', #21, .T. ) ;
#574 = DIRECTION ( 'NONE',  ( 0.000000000000000000, -1.000000000000000000, 0.000000000000000000 ) ) ;
#575 = LINE ( 'NONE', #401, #294 ) ;
#576 = LINE ( 'NONE', #496, #18 ) ;
#577 = VECTOR ( 'NONE', #779, 1000.000000000000000 ) ;
#578 = VERTEX_POINT ( 'NONE', #290 ) ;
#579 = EDGE_LOOP ( 'NONE', ( #142, #937, #756, #410 ) ) ;
#580 = AXIS2_PLACEMENT_3D ( 'NONE', #146, #536, #56 ) ;
#581 = AXIS2_PLACEMENT_3D ( 'NONE', #403, #939, #629 ) ;
#582 = CARTESIAN_POINT ( 'NONE',  ( -2.296100594190541244, 0.000000000000000000, -13.70233866515746612 ) ) ;
#583 = DIRECTION ( 'NONE',  ( 1.000000000000000000, 0.000000000000000000, 0.000000000000000000 ) ) ;
#584 = CARTESIAN_POINT ( 'NONE',  ( -5.742640687119278553, 9.507359312880721447, -5.000000000000004441 ) ) ;
#585 = EDGE_CURVE ( 'NONE', #851, #24, #969, .T. ) ;
#586 = CARTESIAN_POINT ( 'NONE',  ( -8.000000000000000000, 5.749999999999998224, -14.00000000000000000 ) ) ;
#587 = VECTOR ( 'NONE', #203, 1000.000000000000000 ) ;
#588 = CARTESIAN_POINT ( 'NONE',  ( 16.27926064190486244, 45.00000000000000000, -13.00000000000000000 ) ) ;
#589 = ORIENTED_EDGE ( 'NONE', *, *, #513, .T. ) ;
#590 = DIRECTION ( 'NONE',  ( 0.000000000000000000, -1.000000000000000000, 0.000000000000000000 ) ) ;
#591 = ORIENTED_EDGE ( 'NONE', *, *, #457, .T. ) ;
#592 = CARTESIAN_POINT ( 'NONE',  ( -8.000000000000000000, 5.749999999999998224, -14.00000000000000000 ) ) ;
#593 = VERTEX_POINT ( 'NONE', #132 ) ;
#594 = CARTESIAN_POINT ( 'NONE',  ( 17.50000000000000000, 45.00000000000000000, -20.00000000000000000 ) ) ;
#595 =( LENGTH_UNIT ( ) NAMED_UNIT ( * ) SI_UNIT ( .MILLI., .METRE. ) );
#596 = CARTESIAN_POINT ( 'NONE',  ( 4.242640687119292764, 17.99264068711928033, 0.000000000000000000 ) ) ;
#597 = VECTOR ( 'NONE', #252, 1000.000000000000000 ) ;
#598 = PRESENTATION_LAYER_ASSIGNMENT (  '', '', ( #264 ) ) ;
#599 = CYLINDRICAL_SURFACE ( 'NONE', #425, 2.099999999999992539 ) ;
#600 = STYLED_ITEM ( 'NONE', ( #40 ), #561 ) ;
#601 = CARTESIAN_POINT ( 'NONE',  ( -2.742640687119303422, 9.507359312880721447, -5.000000000000004441 ) ) ;
#602 = ORIENTED_EDGE ( 'NONE', *, *, #291, .T. ) ;
#603 = CARTESIAN_POINT ( 'NONE',  ( 5.900000000000009237, 21.75000000000000000, 1.298125607096191229E-15 ) ) ;
#604 = ORIENTED_EDGE ( 'NONE', *, *, #961, .T. ) ;
#605 =( LENGTH_UNIT ( ) NAMED_UNIT ( * ) SI_UNIT ( .MILLI., .METRE. ) );
#606 = DIRECTION ( 'NONE',  ( 1.000000000000000000, 0.000000000000000000, 0.000000000000000000 ) ) ;
#607 = EDGE_CURVE ( 'NONE', #211, #754, #941, .T. ) ;
#608 = CARTESIAN_POINT ( 'NONE',  ( -8.000000000000000000, 5.749999999999998224, 1.298125607096191229E-15 ) ) ;
#609 = APPLICATION_CONTEXT ( 'automotive_design' ) ;
#610 = CARTESIAN_POINT ( 'NONE',  ( -16.27926064190485889, 45.00000000000000000, -13.00000000000000000 ) ) ;
#611 = APPLICATION_PROTOCOL_DEFINITION ( 'draft international standard', 'automotive_design', 1998, #137 ) ;
#612 = COLOUR_RGB ( '',0.6980392156862744724, 0.6980392156862744724, 0.6980392156862744724 ) ;
#613 = CIRCLE ( 'NONE', #816, 5.999999999999998224 ) ;
#614 = VECTOR ( 'NONE', #296, 1000.000000000000000 ) ;
#615 = VERTEX_POINT ( 'NONE', #356 ) ;
#616 = ORIENTED_EDGE ( 'NONE', *, *, #692, .T. ) ;
#617 = DIRECTION ( 'NONE',  ( 0.000000000000000000, -1.000000000000000000, 0.000000000000000000 ) ) ;
#618 = EDGE_CURVE ( 'NONE', #932, #690, #487, .T. ) ;
#619 = AXIS2_PLACEMENT_3D ( 'NONE', #825, #905, #435 ) ;
#620 = DIRECTION ( 'NONE',  ( -0.000000000000000000, -0.000000000000000000, 1.000000000000000000 ) ) ;
#621 = LINE ( 'NONE', #88, #306 ) ;
#622 = FACE_OUTER_BOUND ( 'NONE', #78, .T. ) ;
#623 = ORIENTED_EDGE ( 'NONE', *, *, #692, .F. ) ;
#624 = DIRECTION ( 'NONE',  ( -0.000000000000000000, -0.000000000000000000, 1.000000000000000000 ) ) ;
#625 = ORIENTED_EDGE ( 'NONE', *, *, #997, .F. ) ;
#626 = EDGE_LOOP ( 'NONE', ( #625, #591, #1016, #152 ) ) ;
#627 = DIRECTION ( 'NONE',  ( -0.000000000000000000, -0.000000000000000000, 1.000000000000000000 ) ) ;
#628 = CARTESIAN_POINT ( 'NONE',  ( 2.742640687119298981, 17.99264068711928033, 0.000000000000000000 ) ) ;
#629 = DIRECTION ( 'NONE',  ( 1.000000000000000000, 0.000000000000000000, 0.000000000000000000 ) ) ;
#630 = AXIS2_PLACEMENT_3D ( 'NONE', #448, #135, #850 ) ;
#631 = CARTESIAN_POINT ( 'NONE',  ( -16.27926064190485889, 0.000000000000000000, -19.00000000000000000 ) ) ;
#632 = AXIS2_PLACEMENT_3D ( 'NONE', #586, #265, #583 ) ;
#633 = PLANE ( 'NONE',  #1006 ) ;
#634 = COLOUR_RGB ( '',0.6980392156862744724, 0.6980392156862744724, 0.6980392156862744724 ) ;
#635 = FILL_AREA_STYLE_COLOUR ( '', #440 ) ;
#636 = LINE ( 'NONE', #903, #815 ) ;
#637 = ADVANCED_FACE ( 'NONE', ( #367 ), #660, .F. ) ;
#638 = CIRCLE ( 'NONE', #679, 1.749999999999999778 ) ;
#639 = EDGE_CURVE ( 'NONE', #116, #236, #136, .T. ) ;
#640 = CARTESIAN_POINT ( 'NONE',  ( -4.242640687119292764, 9.507359312880721447, -5.901290928541340186 ) ) ;
#641 = VERTEX_POINT ( 'NONE', #145 ) ;
#642 = DIRECTION ( 'NONE',  ( 1.000000000000000000, 0.000000000000000000, 0.000000000000000000 ) ) ;
#643 = ORIENTED_EDGE ( 'NONE', *, *, #480, .F. ) ;
#644 = ORIENTED_EDGE ( 'NONE', *, *, #230, .T. ) ;
#645 = CONICAL_SURFACE ( 'NONE', #340, 1.749999999999999778, 0.7853981633974482790 ) ;
#646 = VECTOR ( 'NONE', #395, 1000.000000000000000 ) ;
#647 = DIRECTION ( 'NONE',  ( 0.8571673007021116675, 0.000000000000000000, 0.5150380749100552658 ) ) ;
#648 = CIRCLE ( 'NONE', #55, 2.099999999999988987 ) ;
#649 = ORIENTED_EDGE ( 'NONE', *, *, #961, .F. ) ;
#650 = AXIS2_PLACEMENT_3D ( 'NONE', #26, #402, #413 ) ;
#651 = CARTESIAN_POINT ( 'NONE',  ( -17.50000000000000355, 45.00000000000000000, -19.00000000000000000 ) ) ;
#652 = ORIENTED_EDGE ( 'NONE', *, *, #895, .T. ) ;
#653 =( GEOMETRIC_REPRESENTATION_CONTEXT ( 3 ) GLOBAL_UNCERTAINTY_ASSIGNED_CONTEXT ( ( #571 ) ) GLOBAL_UNIT_ASSIGNED_CONTEXT ( ( #930, #456, #933 ) ) REPRESENTATION_CONTEXT ( 'NONE', 'WORKASPACE' ) );
#654 =( LENGTH_UNIT ( ) NAMED_UNIT ( * ) SI_UNIT ( .MILLI., .METRE. ) );
#655 = DIRECTION ( 'NONE',  ( 1.000000000000000000, 0.000000000000000000, 0.000000000000000000 ) ) ;
#656 = DIRECTION ( 'NONE',  ( -1.734723475976807094E-16, -0.000000000000000000, -1.000000000000000000 ) ) ;
#657 = EDGE_CURVE ( 'NONE', #528, #115, #551, .T. ) ;
#658 = DIRECTION ( 'NONE',  ( -0.000000000000000000, -0.000000000000000000, 1.000000000000000000 ) ) ;
#659 = CARTESIAN_POINT ( 'NONE',  ( 17.50000000000000000, 0.000000000000000000, -20.00000000000000000 ) ) ;
#660 = CONICAL_SURFACE ( 'NONE', #708, 1.749999999999999778, 0.7853981633974482790 ) ;
#661 = SURFACE_STYLE_FILL_AREA ( #279 ) ;
#662 = SURFACE_STYLE_FILL_AREA ( #20 ) ;
#663 = DIRECTION ( 'NONE',  ( -0.000000000000000000, -0.000000000000000000, 1.000000000000000000 ) ) ;
#664 = ORIENTED_EDGE ( 'NONE', *, *, #607, .F. ) ;
#665 = EDGE_LOOP ( 'NONE', ( #35, #433, #670 ) ) ;
#666 = ORIENTED_EDGE ( 'NONE', *, *, #429, .T. ) ;
#667 = CARTESIAN_POINT ( 'NONE',  ( 7.999999999999998224, 21.75000000000000000, 0.000000000000000000 ) ) ;
#668 = EDGE_CURVE ( 'NONE', #115, #528, #735, .T. ) ;
#669 = AXIS2_PLACEMENT_3D ( 'NONE', #667, #758, #606 ) ;
#670 = ORIENTED_EDGE ( 'NONE', *, *, #747, .T. ) ;
#671 = DIRECTION ( 'NONE',  ( -1.734723475976807094E-16, -0.000000000000000000, -1.000000000000000000 ) ) ;
#672 = ORIENTED_EDGE ( 'NONE', *, *, #832, .F. ) ;
#673 = CARTESIAN_POINT ( 'NONE',  ( 2.742640687119293208, 17.99264068711928033, -0.2500000000000002220 ) ) ;
#674 = ORIENTED_EDGE ( 'NONE', *, *, #696, .T. ) ;
#675 = EDGE_CURVE ( 'NONE', #453, #432, #883, .T. ) ;
#676 =( GEOMETRIC_REPRESENTATION_CONTEXT ( 3 ) GLOBAL_UNCERTAINTY_ASSIGNED_CONTEXT ( ( #414 ) ) GLOBAL_UNIT_ASSIGNED_CONTEXT ( ( #682, #678, #991 ) ) REPRESENTATION_CONTEXT ( 'NONE', 'WORKASPACE' ) );
#677 = DIRECTION ( 'NONE',  ( 1.000000000000000000, 0.000000000000000000, 0.000000000000000000 ) ) ;
#678 =( NAMED_UNIT ( * ) PLANE_ANGLE_UNIT ( ) SI_UNIT ( $, .RADIAN. ) );
#679 = AXIS2_PLACEMENT_3D ( 'NONE', #231, #620, #936 ) ;
#680 = CARTESIAN_POINT ( 'NONE',  ( 13.98316004771431942, 0.000000000000000000, -18.54327719506771999 ) ) ;
#681 = FACE_BOUND ( 'NONE', #821, .T. ) ;
#682 =( LENGTH_UNIT ( ) NAMED_UNIT ( * ) SI_UNIT ( .MILLI., .METRE. ) );
#683 = STYLED_ITEM ( 'NONE', ( #428 ), #720 ) ;
#684 = VECTOR ( 'NONE', #127, 1000.000000000000000 ) ;
#685 = DIRECTION ( 'NONE',  ( -0.000000000000000000, 1.000000000000000000, -0.000000000000000000 ) ) ;
#686 = VECTOR ( 'NONE', #647, 1000.000000000000000 ) ;
#687 = EDGE_LOOP ( 'NONE', ( #309, #179, #829, #848 ) ) ;
#688 = ORIENTED_EDGE ( 'NONE', *, *, #81, .F. ) ;
#689 = UNCERTAINTY_MEASURE_WITH_UNIT (LENGTH_MEASURE( 1.000000000000000082E-05 ), #595, 'distance_accuracy_value', 'NONE');
#690 = VERTEX_POINT ( 'NONE', #299 ) ;
#691 = PLANE ( 'NONE',  #412 ) ;
#692 = EDGE_CURVE ( 'NONE', #370, #396, #16, .T. ) ;
#693 = PLANE ( 'NONE',  #759 ) ;
#694 = SURFACE_STYLE_USAGE ( .BOTH. , #70 ) ;
#695 = CARTESIAN_POINT ( 'NONE',  ( -8.000000000000000000, 5.749999999999998224, 1.298125607096191229E-15 ) ) ;
#696 = EDGE_CURVE ( 'NONE', #323, #847, #871, .T. ) ;
#697 = VECTOR ( 'NONE', #210, 1000.000000000000000 ) ;
#698 = DIRECTION ( 'NONE',  ( 0.000000000000000000, 0.000000000000000000, -1.000000000000000000 ) ) ;
#699 = DIRECTION ( 'NONE',  ( 0.7071067811865474617, 0.000000000000000000, 0.7071067811865474617 ) ) ;
#700 = COLOUR_RGB ( '',0.6980392156862744724, 0.6980392156862744724, 0.6980392156862744724 ) ;
#701 = CONICAL_SURFACE ( 'NONE', #339, 1.499999999999987566, 1.029744258676652535 ) ;
#702 = DIRECTION ( 'NONE',  ( 0.9238795325112864054, 0.000000000000000000, -0.3826834323650905034 ) ) ;
#703 = ORIENTED_EDGE ( 'NONE', *, *, #935, .F. ) ;
#704 = DIRECTION ( 'NONE',  ( 0.000000000000000000, 0.000000000000000000, -1.000000000000000000 ) ) ;
#705 = ORIENTED_EDGE ( 'NONE', *, *, #187, .F. ) ;
#706 = AXIS2_PLACEMENT_3D ( 'NONE', #707, #861, #154 ) ;
#707 = CARTESIAN_POINT ( 'NONE',  ( 4.242640687119292764, 17.99264068711928033, 0.000000000000000000 ) ) ;
#708 = AXIS2_PLACEMENT_3D ( 'NONE', #596, #436, #220 ) ;
#709 = DIRECTION ( 'NONE',  ( -0.000000000000000000, 0.000000000000000000, 1.000000000000000000 ) ) ;
#710 = CARTESIAN_POINT ( 'NONE',  ( -17.50000000000000000, 45.00000000000000000, -20.00000000000000000 ) ) ;
#711 = CYLINDRICAL_SURFACE ( 'NONE', #669, 2.099999999999992539 ) ;
#712 = EDGE_CURVE ( 'NONE', #525, #359, #158, .T. ) ;
#713 = DIRECTION ( 'NONE',  ( 0.000000000000000000, 0.000000000000000000, -1.000000000000000000 ) ) ;
#714 = FACE_OUTER_BOUND ( 'NONE', #947, .T. ) ;
#715 = DIRECTION ( 'NONE',  ( 0.000000000000000000, -1.000000000000000000, 0.000000000000000000 ) ) ;
#716 = EDGE_LOOP ( 'NONE', ( #540, #92, #349, #51 ) ) ;
#717 = EDGE_LOOP ( 'NONE', ( #649, #740, #643, #703 ) ) ;
#718 = CARTESIAN_POINT ( 'NONE',  ( 7.999999999999998224, 21.75000000000000000, 1.298125607096191229E-15 ) ) ;
#719 = ORIENTED_EDGE ( 'NONE', *, *, #149, .F. ) ;
#720 = ADVANCED_FACE ( 'NONE', ( #208 ), #599, .F. ) ;
#721 = CARTESIAN_POINT ( 'NONE',  ( -17.50000000000000355, 0.000000000000000000, 0.000000000000000000 ) ) ;
#722 = DIRECTION ( 'NONE',  ( -0.000000000000000000, -0.000000000000000000, 1.000000000000000000 ) ) ;
#723 = ADVANCED_FACE ( 'NONE', ( #857 ), #112, .F. ) ;
#724 = CIRCLE ( 'NONE', #632, 2.099999999999996980 ) ;
#725 = DIRECTION ( 'NONE',  ( 0.000000000000000000, 1.000000000000000000, 0.000000000000000000 ) ) ;
#726 = EDGE_CURVE ( 'NONE', #323, #479, #996, .T. ) ;
#727 = DIRECTION ( 'NONE',  ( 1.000000000000000000, 0.000000000000000000, 0.000000000000000000 ) ) ;
#728 = EDGE_LOOP ( 'NONE', ( #275, #466 ) ) ;
#729 = CARTESIAN_POINT ( 'NONE',  ( 7.999999999999998224, 21.75000000000000000, -14.00000000000000000 ) ) ;
#730 = ORIENTED_EDGE ( 'NONE', *, *, #566, .T. ) ;
#731 = VERTEX_POINT ( 'NONE', #1007 ) ;
#732 = ADVANCED_FACE ( 'NONE', ( #622 ), #691, .F. ) ;
#733 = DIRECTION ( 'NONE',  ( -1.000000000000000000, -0.000000000000000000, -0.000000000000000000 ) ) ;
#734 = CARTESIAN_POINT ( 'NONE',  ( 1.734723475976807094E-15, 45.00000000000000000, -19.24561586022518256 ) ) ;
#735 = CIRCLE ( 'NONE', #266, 1.499999999999999556 ) ;
#736 = FACE_OUTER_BOUND ( 'NONE', #876, .T. ) ;
#737 = FILL_AREA_STYLE ('',( #353 ) ) ;
#738 = EDGE_CURVE ( 'NONE', #44, #847, #417, .T. ) ;
#739 = ORIENTED_EDGE ( 'NONE', *, *, #497, .F. ) ;
#740 = ORIENTED_EDGE ( 'NONE', *, *, #291, .F. ) ;
#741 = STYLED_ITEM ( 'NONE', ( #874 ), #241 ) ;
#742 = ORIENTED_EDGE ( 'NONE', *, *, #675, .T. ) ;
#743 = AXIS2_PLACEMENT_3D ( 'NONE', #426, #501, #37 ) ;
#744 = CARTESIAN_POINT ( 'NONE',  ( -17.50000000000000355, 45.00000000000000000, -19.00000000000000000 ) ) ;
#745 = FACE_OUTER_BOUND ( 'NONE', #336, .T. ) ;
#746 = DIRECTION ( 'NONE',  ( -0.000000000000000000, -0.000000000000000000, 1.000000000000000000 ) ) ;
#747 = EDGE_CURVE ( 'NONE', #492, #731, #195, .T. ) ;
#748 = ADVANCED_FACE ( 'NONE', ( #1009 ), #645, .F. ) ;
#749 = CARTESIAN_POINT ( 'NONE',  ( -16.27926064190485889, 45.00000000000000000, -19.00000000000000000 ) ) ;
#750 = FACE_OUTER_BOUND ( 'NONE', #190, .T. ) ;
#751 = VECTOR ( 'NONE', #831, 1000.000000000000000 ) ;
#752 = CARTESIAN_POINT ( 'NONE',  ( -2.710505431213761085E-17, 0.000000000000000000, -12.75126265847081797 ) ) ;
#753 = CIRCLE ( 'NONE', #388, 2.099999999999988987 ) ;
#754 = VERTEX_POINT ( 'NONE', #545 ) ;
#755 = ADVANCED_FACE ( 'NONE', ( #789 ), #867, .F. ) ;
#756 = ORIENTED_EDGE ( 'NONE', *, *, #585, .T. ) ;
#757 = SURFACE_STYLE_USAGE ( .BOTH. , #289 ) ;
#758 = DIRECTION ( 'NONE',  ( -0.000000000000000000, -0.000000000000000000, 1.000000000000000000 ) ) ;
#759 = AXIS2_PLACEMENT_3D ( 'NONE', #215, #920, #377 ) ;
#760 = CARTESIAN_POINT ( 'NONE',  ( -17.50000000000000000, 45.00000000000000000, -20.00000000000000000 ) ) ;
#761 = FACE_OUTER_BOUND ( 'NONE', #52, .T. ) ;
#762 = AXIS2_PLACEMENT_3D ( 'NONE', #570, #416, #964 ) ;
#763 = VECTOR ( 'NONE', #295, 1000.000000000000000 ) ;
#764 = DIRECTION ( 'NONE',  ( -0.000000000000000000, -0.000000000000000000, 1.000000000000000000 ) ) ;
#765 = VECTOR ( 'NONE', #972, 1000.000000000000000 ) ;
#766 = DIRECTION ( 'NONE',  ( -0.000000000000000000, -1.000000000000000000, -0.000000000000000000 ) ) ;
#767 = ORIENTED_EDGE ( 'NONE', *, *, #909, .F. ) ;
#768 = VERTEX_POINT ( 'NONE', #800 ) ;
#769 = DIRECTION ( 'NONE',  ( 0.000000000000000000, 0.000000000000000000, -1.000000000000000000 ) ) ;
#770 = ORIENTED_EDGE ( 'NONE', *, *, #869, .T. ) ;
#771 = EDGE_CURVE ( 'NONE', #528, #119, #575, .T. ) ;
#772 = DIRECTION ( 'NONE',  ( -0.000000000000000000, -0.000000000000000000, 1.000000000000000000 ) ) ;
#773 = DIRECTION ( 'NONE',  ( 1.000000000000000000, 0.000000000000000000, 0.000000000000000000 ) ) ;
#774 = CARTESIAN_POINT ( 'NONE',  ( -5.900000000000011013, 5.749999999999998224, 1.298125607096191229E-15 ) ) ;
#775 = VECTOR ( 'NONE', #198, 1000.000000000000000 ) ;
#776 = FILL_AREA_STYLE ('',( #385 ) ) ;
#777 = LINE ( 'NONE', #547, #827 ) ;
#778 = CONICAL_SURFACE ( 'NONE', #630, 2.099999999999996980, 1.029744258676653201 ) ;
#779 = DIRECTION ( 'NONE',  ( -0.000000000000000000, -0.000000000000000000, 1.000000000000000000 ) ) ;
#780 = VERTEX_POINT ( 'NONE', #79 ) ;
#781 = ORIENTED_EDGE ( 'NONE', *, *, #513, .F. ) ;
#782 = DIRECTION ( 'NONE',  ( 1.000000000000000000, 0.000000000000000000, 0.000000000000000000 ) ) ;
#783 = EDGE_CURVE ( 'NONE', #641, #507, #473, .T. ) ;
#784 = DIRECTION ( 'NONE',  ( 1.000000000000000000, 0.000000000000000000, 0.000000000000000000 ) ) ;
#785 = UNCERTAINTY_MEASURE_WITH_UNIT (LENGTH_MEASURE( 1.000000000000000082E-05 ), #30, 'distance_accuracy_value', 'NONE');
#786 = PLANE ( 'NONE',  #568 ) ;
#787 = CARTESIAN_POINT ( 'NONE',  ( -10.09999999999998899, 5.749999999999998224, 1.298125607096191229E-15 ) ) ;
#788 = DIRECTION ( 'NONE',  ( -1.000000000000000000, 0.000000000000000000, -0.000000000000000000 ) ) ;
#789 = FACE_OUTER_BOUND ( 'NONE', #837, .T. ) ;
#790 = VECTOR ( 'NONE', #574, 1000.000000000000000 ) ;
#791 = ORIENTED_EDGE ( 'NONE', *, *, #201, .F. ) ;
#792 = ORIENTED_EDGE ( 'NONE', *, *, #129, .F. ) ;
#793 = ORIENTED_EDGE ( 'NONE', *, *, #324, .T. ) ;
#794 = EDGE_CURVE ( 'NONE', #593, #232, #269, .T. ) ;
#795 = DIRECTION ( 'NONE',  ( 1.000000000000000000, 0.000000000000000000, 0.000000000000000000 ) ) ;
#796 = AXIS2_PLACEMENT_3D ( 'NONE', #552, #310, #642 ) ;
#797 = CARTESIAN_POINT ( 'NONE',  ( -5.992640687119290988, 9.507359312880721447, 0.000000000000000000 ) ) ;
#798 = AXIS2_PLACEMENT_3D ( 'NONE', #36, #658, #121 ) ;
#799 = ADVANCED_FACE ( 'NONE', ( #184, #681, #921, #391, #38 ), #786, .F. ) ;
#800 = CARTESIAN_POINT ( 'NONE',  ( 5.992640687119292764, 17.99264068711928033, 0.000000000000000000 ) ) ;
#801 = DIRECTION ( 'NONE',  ( 1.000000000000000000, 0.000000000000000000, 0.000000000000000000 ) ) ;
#802 = VECTOR ( 'NONE', #131, 1000.000000000000000 ) ;
#803 = EDGE_CURVE ( 'NONE', #531, #862, #881, .T. ) ;
#804 = CIRCLE ( 'NONE', #493, 2.099999999999996980 ) ;
#805 = SURFACE_STYLE_USAGE ( .BOTH. , #250 ) ;
#806 = ORIENTED_EDGE ( 'NONE', *, *, #997, .T. ) ;
#807 = ORIENTED_EDGE ( 'NONE', *, *, #952, .F. ) ;
#808 = ORIENTED_EDGE ( 'NONE', *, *, #823, .F. ) ;
#809 = CARTESIAN_POINT ( 'NONE',  ( -16.27926064190485889, 45.00000000000000000, -13.00000000000000000 ) ) ;
#810 = ADVANCED_FACE ( 'NONE', ( #761 ), #633, .F. ) ;
#811 = SHAPE_DEFINITION_REPRESENTATION ( #147, #101 ) ;
#812 = CIRCLE ( 'NONE', #818, 5.999999999999998224 ) ;
#813 = DIRECTION ( 'NONE',  ( 0.000000000000000000, 0.000000000000000000, -1.000000000000000000 ) ) ;
#814 = VECTOR ( 'NONE', #68, 1000.000000000000227 ) ;
#815 = VECTOR ( 'NONE', #33, 1000.000000000000000 ) ;
#816 = AXIS2_PLACEMENT_3D ( 'NONE', #314, #715, #704 ) ;
#817 = VECTOR ( 'NONE', #766, 1000.000000000000000 ) ;
#818 = AXIS2_PLACEMENT_3D ( 'NONE', #515, #510, #278 ) ;
#819 = PLANE ( 'NONE',  #866 ) ;
#820 = ORIENTED_EDGE ( 'NONE', *, *, #794, .F. ) ;
#821 = EDGE_LOOP ( 'NONE', ( #672, #363 ) ) ;
#822 = DIRECTION ( 'NONE',  ( 0.000000000000000000, 1.000000000000000000, 0.000000000000000000 ) ) ;
#823 = EDGE_CURVE ( 'NONE', #847, #838, #172, .T. ) ;
#824 = CARTESIAN_POINT ( 'NONE',  ( -8.000000000000000000, 5.749999999999998224, 0.000000000000000000 ) ) ;
#825 = CARTESIAN_POINT ( 'NONE',  ( 1.734723475976807094E-15, 45.00000000000000000, -19.24561586022518256 ) ) ;
#826 =( NAMED_UNIT ( * ) PLANE_ANGLE_UNIT ( ) SI_UNIT ( $, .RADIAN. ) );
#827 = VECTOR ( 'NONE', #865, 1000.000000000000000 ) ;
#828 = ORIENTED_EDGE ( 'NONE', *, *, #446, .T. ) ;
#829 = ORIENTED_EDGE ( 'NONE', *, *, #225, .T. ) ;
#830 = EDGE_LOOP ( 'NONE', ( #565, #767, #730, #155 ) ) ;
#831 = DIRECTION ( 'NONE',  ( 0.000000000000000000, -1.000000000000000000, 0.000000000000000000 ) ) ;
#832 = EDGE_CURVE ( 'NONE', #754, #22, #966, .T. ) ;
#833 = DIRECTION ( 'NONE',  ( -0.000000000000000000, -0.000000000000000000, 1.000000000000000000 ) ) ;
#834 = CIRCLE ( 'NONE', #472, 1.749999999999999778 ) ;
#835 = SURFACE_STYLE_FILL_AREA ( #15 ) ;
#836 = SURFACE_STYLE_USAGE ( .BOTH. , #288 ) ;
#837 = EDGE_LOOP ( 'NONE', ( #945, #541, #384, #806, #986, #372, #944, #793, #742, #914, #975 ) ) ;
#838 = VERTEX_POINT ( 'NONE', #169 ) ;
#839 = EDGE_LOOP ( 'NONE', ( #674, #164, #411, #557 ) ) ;
#840 = CARTESIAN_POINT ( 'NONE',  ( 2.742640687119305198, 17.99264068711928033, -5.000000000000004441 ) ) ;
#841 = CARTESIAN_POINT ( 'NONE',  ( 5.900000000000002132, 21.75000000000000000, -14.00000000000000000 ) ) ;
#842 = DIRECTION ( 'NONE',  ( 1.000000000000000000, 0.000000000000000000, 0.000000000000000000 ) ) ;
#843 = APPLICATION_PROTOCOL_DEFINITION ( 'draft international standard', 'automotive_design', 1998, #609 ) ;
#844 = AXIS2_PLACEMENT_3D ( 'NONE', #63, #373, #773 ) ;
#845 = VECTOR ( 'NONE', #913, 1000.000000000000114 ) ;
#846 = CIRCLE ( 'NONE', #286, 1.749999999999999778 ) ;
#847 = VERTEX_POINT ( 'NONE', #14 ) ;
#848 = ORIENTED_EDGE ( 'NONE', *, *, #149, .T. ) ;
#849 = EDGE_CURVE ( 'NONE', #780, #525, #621, .T. ) ;
#850 = DIRECTION ( 'NONE',  ( 1.000000000000000000, 0.000000000000000000, 0.000000000000000000 ) ) ;
#851 = VERTEX_POINT ( 'NONE', #474 ) ;
#852 = PRESENTATION_LAYER_ASSIGNMENT (  '', '', ( #683 ) ) ;
#853 = CARTESIAN_POINT ( 'NONE',  ( 4.242640687119292764, 17.99264068711928033, -5.000000000000004441 ) ) ;
#854 = PRESENTATION_STYLE_ASSIGNMENT (( #757 ) ) ;
#855 = CARTESIAN_POINT ( 'NONE',  ( 5.742640687119280329, 17.99264068711928033, -5.000000000000004441 ) ) ;
#856 = VECTOR ( 'NONE', #733, 1000.000000000000000 ) ;
#857 = FACE_OUTER_BOUND ( 'NONE', #382, .T. ) ;
#858 = DIRECTION ( 'NONE',  ( 1.000000000000000000, 0.000000000000000000, 0.000000000000000000 ) ) ;
#859 = CIRCLE ( 'NONE', #650, 2.099999999999988987 ) ;
#860 = VERTEX_POINT ( 'NONE', #640 ) ;
#861 = DIRECTION ( 'NONE',  ( -0.000000000000000000, -0.000000000000000000, 1.000000000000000000 ) ) ;
#862 = VERTEX_POINT ( 'NONE', #327 ) ;
#863 = ORIENTED_EDGE ( 'NONE', *, *, #909, .T. ) ;
#864 = AXIS2_PLACEMENT_3D ( 'NONE', #177, #328, #170 ) ;
#865 = DIRECTION ( 'NONE',  ( -1.000000000000000000, -0.000000000000000000, -0.000000000000000000 ) ) ;
#866 = AXIS2_PLACEMENT_3D ( 'NONE', #494, #421, #191 ) ;
#867 = PLANE ( 'NONE',  #906 ) ;
#868 = CARTESIAN_POINT ( 'NONE',  ( -13.98316004771431587, 45.00000000000000000, -18.54327719506771643 ) ) ;
#869 = EDGE_CURVE ( 'NONE', #350, #236, #485, .T. ) ;
#870 = DIRECTION ( 'NONE',  ( -0.000000000000000000, 1.000000000000000000, -0.000000000000000000 ) ) ;
#871 = LINE ( 'NONE', #535, #763 ) ;
#872 = ADVANCED_FACE ( 'NONE', ( #98 ), #537, .F. ) ;
#873 = CARTESIAN_POINT ( 'NONE',  ( 1.734723475976807094E-15, 0.000000000000000000, -19.24561586022518256 ) ) ;
#874 = PRESENTATION_STYLE_ASSIGNMENT (( #951 ) ) ;
#875 = CARTESIAN_POINT ( 'NONE',  ( 4.242640687119292764, 17.99264068711928033, -5.000000000000004441 ) ) ;
#876 = EDGE_LOOP ( 'NONE', ( #224, #974, #924, #320 ) ) ;
#877 = ORIENTED_EDGE ( 'NONE', *, *, #358, .F. ) ;
#878 = ORIENTED_EDGE ( 'NONE', *, *, #555, .F. ) ;
#879 = ADVANCED_FACE ( 'NONE', ( #460 ), #549, .F. ) ;
#880 = DIRECTION ( 'NONE',  ( -0.000000000000000000, -0.000000000000000000, 1.000000000000000000 ) ) ;
#881 = CIRCLE ( 'NONE', #307, 1.499999999999987566 ) ;
#882 = EDGE_CURVE ( 'NONE', #479, #838, #415, .T. ) ;
#883 = LINE ( 'NONE', #216, #814 ) ;
#884 = PRODUCT_DEFINITION_CONTEXT ( 'detailed design', #609, 'design' ) ;
#885 = PRESENTATION_LAYER_ASSIGNMENT (  '', '', ( #57 ) ) ;
#886 = CONICAL_SURFACE ( 'NONE', #214, 2.099999999999996092, 1.029744258676652979 ) ;
#887 = CARTESIAN_POINT ( 'NONE',  ( 4.242640687119292764, 17.99264068711928033, 0.000000000000000000 ) ) ;
#888 = ORIENTED_EDGE ( 'NONE', *, *, #497, .T. ) ;
#889 = VERTEX_POINT ( 'NONE', #495 ) ;
#890 = ORIENTED_EDGE ( 'NONE', *, *, #618, .F. ) ;
#891 = CARTESIAN_POINT ( 'NONE',  ( 2.296100594190543909, 0.000000000000000000, -13.70233866515746612 ) ) ;
#892 = EDGE_CURVE ( 'NONE', #862, #531, #122, .T. ) ;
#893 = CARTESIAN_POINT ( 'NONE',  ( 4.242640687119292764, 17.99264068711928033, -5.000000000000004441 ) ) ;
#894 = DIRECTION ( 'NONE',  ( -0.000000000000000000, -0.000000000000000000, 1.000000000000000000 ) ) ;
#895 = EDGE_CURVE ( 'NONE', #119, #768, #834, .T. ) ;
#896 = VECTOR ( 'NONE', #533, 1000.000000000000000 ) ;
#897 = COLOUR_RGB ( '',0.6980392156862744724, 0.6980392156862744724, 0.6980392156862744724 ) ;
#898 = FACE_OUTER_BOUND ( 'NONE', #543, .T. ) ;
#899 =( GEOMETRIC_REPRESENTATION_CONTEXT ( 3 ) GLOBAL_UNCERTAINTY_ASSIGNED_CONTEXT ( ( #341 ) ) GLOBAL_UNIT_ASSIGNED_CONTEXT ( ( #605, #447, #365 ) ) REPRESENTATION_CONTEXT ( 'NONE', 'WORKASPACE' ) );
#900 = EDGE_LOOP ( 'NONE', ( #719, #247 ) ) ;
#901 = ORIENTED_EDGE ( 'NONE', *, *, #271, .T. ) ;
#902 = CLOSED_SHELL ( 'NONE', ( #408, #94, #561, #258, #326, #564, #560, #872, #476, #268, #879, #732, #337, #99, #799, #956, #755, #25, #810, #422, #723, #167, #637, #90, #254, #748, #263, #17, #976, #277, #720, #962, #241 ) ) ;
#903 = CARTESIAN_POINT ( 'NONE',  ( -2.742640687119303422, 9.507359312880721447, -5.000000000000004441 ) ) ;
#904 = EDGE_CURVE ( 'NONE', #559, #531, #228, .T. ) ;
#905 = DIRECTION ( 'NONE',  ( 0.000000000000000000, 1.000000000000000000, 0.000000000000000000 ) ) ;
#906 = AXIS2_PLACEMENT_3D ( 'NONE', #243, #469, #313 ) ;
#907 = CARTESIAN_POINT ( 'NONE',  ( -17.50000000000000355, 45.00000000000000000, -19.00000000000000000 ) ) ;
#908 = FACE_OUTER_BOUND ( 'NONE', #839, .T. ) ;
#909 = EDGE_CURVE ( 'NONE', #232, #593, #183, .T. ) ;
#910 = FACE_OUTER_BOUND ( 'NONE', #8, .T. ) ;
#911 = LINE ( 'NONE', #998, #577 ) ;
#912 = ORIENTED_EDGE ( 'NONE', *, *, #675, .F. ) ;
#913 = DIRECTION ( 'NONE',  ( 0.7071067811865474617, 0.000000000000000000, 0.7071067811865474617 ) ) ;
#914 = ORIENTED_EDGE ( 'NONE', *, *, #217, .T. ) ;
#915 = DIRECTION ( 'NONE',  ( 1.000000000000000000, 0.000000000000000000, 0.000000000000000000 ) ) ;
#916 = AXIS2_PLACEMENT_3D ( 'NONE', #2, #235, #383 ) ;
#917 = DIRECTION ( 'NONE',  ( -1.734723475976807094E-16, 0.000000000000000000, 1.000000000000000000 ) ) ;
#918 = AXIS2_PLACEMENT_3D ( 'NONE', #96, #880, #727 ) ;
#919 =( NAMED_UNIT ( * ) SI_UNIT ( $, .STERADIAN. ) SOLID_ANGLE_UNIT ( ) );
#920 = DIRECTION ( 'NONE',  ( 0.000000000000000000, -1.000000000000000000, 0.000000000000000000 ) ) ;
#921 = FACE_BOUND ( 'NONE', #728, .T. ) ;
#922 = FACE_OUTER_BOUND ( 'NONE', #273, .T. ) ;
#923 = EDGE_CURVE ( 'NONE', #851, #578, #724, .T. ) ;
#924 = ORIENTED_EDGE ( 'NONE', *, *, #794, .T. ) ;
#925 = CARTESIAN_POINT ( 'NONE',  ( 5.742640687119286547, 17.99264068711928033, 0.000000000000000000 ) ) ;
#926 = ORIENTED_EDGE ( 'NONE', *, *, #566, .F. ) ;
#927 = ORIENTED_EDGE ( 'NONE', *, *, #28, .T. ) ;
#928 = CARTESIAN_POINT ( 'NONE',  ( -17.50000000000000355, 0.000000000000000000, 0.000000000000000000 ) ) ;
#929 = CARTESIAN_POINT ( 'NONE',  ( -16.27926064190485889, 0.000000000000000000, -13.00000000000000000 ) ) ;
#930 =( LENGTH_UNIT ( ) NAMED_UNIT ( * ) SI_UNIT ( .MILLI., .METRE. ) );
#931 = CONICAL_SURFACE ( 'NONE', #864, 2.099999999999996092, 1.029744258676652979 ) ;
#932 = VERTEX_POINT ( 'NONE', #23 ) ;
#933 =( NAMED_UNIT ( * ) SI_UNIT ( $, .STERADIAN. ) SOLID_ANGLE_UNIT ( ) );
#934 = ORIENTED_EDGE ( 'NONE', *, *, #358, .T. ) ;
#935 = EDGE_CURVE ( 'NONE', #615, #780, #812, .T. ) ;
#936 = DIRECTION ( 'NONE',  ( 1.000000000000000000, 0.000000000000000000, 0.000000000000000000 ) ) ;
#937 = ORIENTED_EDGE ( 'NONE', *, *, #923, .F. ) ;
#938 = AXIS2_PLACEMENT_3D ( 'NONE', #193, #663, #194 ) ;
#939 = DIRECTION ( 'NONE',  ( -0.000000000000000000, -0.000000000000000000, 1.000000000000000000 ) ) ;
#940 = DIRECTION ( 'NONE',  ( -0.7071067811865474617, 8.659560562354932858E-17, 0.7071067811865474617 ) ) ;
#941 = LINE ( 'NONE', #283, #257 ) ;
#942 = LINE ( 'NONE', #58, #684 ) ;
#943 = ORIENTED_EDGE ( 'NONE', *, *, #952, .T. ) ;
#944 = ORIENTED_EDGE ( 'NONE', *, *, #882, .T. ) ;
#945 = ORIENTED_EDGE ( 'NONE', *, *, #849, .T. ) ;
#946 = DIRECTION ( 'NONE',  ( 1.000000000000000000, 0.000000000000000000, 0.000000000000000000 ) ) ;
#947 = EDGE_LOOP ( 'NONE', ( #104, #347, #927, #91 ) ) ;
#948 = CARTESIAN_POINT ( 'NONE',  ( -8.000000000000003553, 5.749999999999998224, -15.26180729995787644 ) ) ;
#949 = AXIS2_PLACEMENT_3D ( 'NONE', #427, #120, #42 ) ;
#950 = CARTESIAN_POINT ( 'NONE',  ( -4.242640687119290988, 9.507359312880721447, -5.000000000000004441 ) ) ;
#951 = SURFACE_STYLE_USAGE ( .BOTH. , #332 ) ;
#952 = EDGE_CURVE ( 'NONE', #453, #44, #329, .T. ) ;
#953 = SURFACE_STYLE_FILL_AREA ( #994 ) ;
#954 = PRESENTATION_LAYER_ASSIGNMENT (  '', '', ( #600 ) ) ;
#955 =( NAMED_UNIT ( * ) SI_UNIT ( $, .STERADIAN. ) SOLID_ANGLE_UNIT ( ) );
#956 = ADVANCED_FACE ( 'NONE', ( #750 ), #189, .F. ) ;
#957 = FACE_OUTER_BOUND ( 'NONE', #665, .T. ) ;
#958 = FILL_AREA_STYLE_COLOUR ( '', #700 ) ;
#959 = ORIENTED_EDGE ( 'NONE', *, *, #225, .F. ) ;
#960 = ORIENTED_EDGE ( 'NONE', *, *, #484, .F. ) ;
#961 = EDGE_CURVE ( 'NONE', #370, #615, #256, .T. ) ;
#962 = ADVANCED_FACE ( 'NONE', ( #573 ), #134, .F. ) ;
#963 =( LENGTH_UNIT ( ) NAMED_UNIT ( * ) SI_UNIT ( .MILLI., .METRE. ) );
#964 = DIRECTION ( 'NONE',  ( 1.000000000000000000, 0.000000000000000000, 0.000000000000000000 ) ) ;
#965 = CARTESIAN_POINT ( 'NONE',  ( 1.734723475976807094E-15, 0.000000000000000000, -13.24561586022518256 ) ) ;
#966 = CIRCLE ( 'NONE', #110, 2.099999999999988987 ) ;
#967 = AXIS2_PLACEMENT_3D ( 'NONE', #338, #180, #801 ) ;
#968 = DIRECTION ( 'NONE',  ( -0.000000000000000000, -0.000000000000000000, 1.000000000000000000 ) ) ;
#969 = LINE ( 'NONE', #276, #5 ) ;
#970 = AXIS2_PLACEMENT_3D ( 'NONE', #206, #511, #520 ) ;
#971 = SURFACE_STYLE_FILL_AREA ( #737 ) ;
#972 = DIRECTION ( 'NONE',  ( -0.000000000000000000, -0.000000000000000000, 1.000000000000000000 ) ) ;
#973 = ORIENTED_EDGE ( 'NONE', *, *, #668, .T. ) ;
#974 = ORIENTED_EDGE ( 'NONE', *, *, #484, .T. ) ;
#975 = ORIENTED_EDGE ( 'NONE', *, *, #935, .T. ) ;
#976 = ADVANCED_FACE ( 'NONE', ( #389 ), #3, .F. ) ;
#977 = CARTESIAN_POINT ( 'NONE',  ( 2.296100594190543909, 45.00000000000000000, -13.70233866515746612 ) ) ;
#978 = EDGE_CURVE ( 'NONE', #690, #999, #355, .T. ) ;
#979 =( NAMED_UNIT ( * ) SI_UNIT ( $, .STERADIAN. ) SOLID_ANGLE_UNIT ( ) );
#980 = CARTESIAN_POINT ( 'NONE',  ( 5.900000000000005684, 21.75000000000000000, 0.000000000000000000 ) ) ;
#981 = VECTOR ( 'NONE', #870, 1000.000000000000000 ) ;
#982 = FACE_OUTER_BOUND ( 'NONE', #407, .T. ) ;
#983 = VECTOR ( 'NONE', #82, 1000.000000000000000 ) ;
#984 = CARTESIAN_POINT ( 'NONE',  ( 10.09999999999999432, 21.75000000000000000, -14.00000000000000000 ) ) ;
#985 = LINE ( 'NONE', #316, #1013 ) ;
#986 = ORIENTED_EDGE ( 'NONE', *, *, #618, .T. ) ;
#987 = VERTEX_POINT ( 'NONE', #364 ) ;
#988 = DIRECTION ( 'NONE',  ( -0.000000000000000000, -0.000000000000000000, 1.000000000000000000 ) ) ;
#989 = CARTESIAN_POINT ( 'NONE',  ( 7.999999999999998224, 21.75000000000000000, -14.00000000000000000 ) ) ;
#990 = EDGE_CURVE ( 'NONE', #690, #479, #71, .T. ) ;
#991 =( NAMED_UNIT ( * ) SI_UNIT ( $, .STERADIAN. ) SOLID_ANGLE_UNIT ( ) );
#992 = AXIS2_PLACEMENT_3D ( 'NONE', #929, #617, #698 ) ;
#993 =( NAMED_UNIT ( * ) PLANE_ANGLE_UNIT ( ) SI_UNIT ( $, .RADIAN. ) );
#994 = FILL_AREA_STYLE ('',( #293 ) ) ;
#995 = CIRCLE ( 'NONE', #844, 2.099999999999996092 ) ;
#996 = LINE ( 'NONE', #529, #896 ) ;
#997 = EDGE_CURVE ( 'NONE', #491, #932, #280, .T. ) ;
#998 = CARTESIAN_POINT ( 'NONE',  ( -10.09999999999999254, 5.749999999999998224, 0.000000000000000000 ) ) ;
#999 = VERTEX_POINT ( 'NONE', #1000 ) ;
#1000 = CARTESIAN_POINT ( 'NONE',  ( 17.50000000000000355, 0.000000000000000000, 0.000000000000000000 ) ) ;
#1001 = ORIENTED_EDGE ( 'NONE', *, *, #869, .F. ) ;
#1002 = CARTESIAN_POINT ( 'NONE',  ( -13.98316004771431587, 45.00000000000000000, -18.54327719506771999 ) ) ;
#1003 = ORIENTED_EDGE ( 'NONE', *, *, #1012, .F. ) ;
#1004 = CARTESIAN_POINT ( 'NONE',  ( -16.27926064190485889, 0.000000000000000000, -19.00000000000000000 ) ) ;
#1005 = PRODUCT_CONTEXT ( 'NONE', #137, 'mechanical' ) ;
#1006 = AXIS2_PLACEMENT_3D ( 'NONE', #165, #709, #387 ) ;
#1007 = CARTESIAN_POINT ( 'NONE',  ( -5.742640687119278553, 9.507359312880721447, -5.000000000000004441 ) ) ;
#1008 = CARTESIAN_POINT ( 'NONE',  ( -4.242640687119290988, 9.507359312880721447, -5.000000000000004441 ) ) ;
#1009 = FACE_OUTER_BOUND ( 'NONE', #830, .T. ) ;
#1010 = LINE ( 'NONE', #984, #113 ) ;
#1011 = FACE_OUTER_BOUND ( 'NONE', #579, .T. ) ;
#1012 = EDGE_CURVE ( 'NONE', #75, #211, #995, .T. ) ;
#1013 = VECTOR ( 'NONE', #558, 1000.000000000000000 ) ;
#1014 = MECHANICAL_DESIGN_GEOMETRIC_PRESENTATION_REPRESENTATION (  '', ( #683 ), #653 ) ;
#1015 = ORIENTED_EDGE ( 'NONE', *, *, #657, .F. ) ;
#1016 = ORIENTED_EDGE ( 'NONE', *, *, #95, .T. ) ;
#1017 = CARTESIAN_POINT ( 'NONE',  ( 7.999999999999998224, 21.75000000000000000, 0.000000000000000000 ) ) ;
ENDSEC;
END-ISO-10303-21;
