ISO-10303-21;
HEADER;
FILE_DESCRIPTION (( 'STEP AP203' ),
    '1' );
FILE_NAME ('logiBOT_02_Dämpfhalter_V1.0.STEP',
    '2024-07-10T09:44:19',
    ( '' ),
    ( '' ),
    'SwSTEP 2.0',
    'SolidWorks 2021',
    '' );
FILE_SCHEMA (( 'CONFIG_CONTROL_DESIGN' ));
ENDSEC;

DATA;
#1 = ADVANCED_FACE ( 'NONE', ( #746 ), #880, .T. ) ;
#2 = ORIENTED_EDGE ( 'NONE', *, *, #209, .T. ) ;
#3 = ORIENTED_EDGE ( 'NONE', *, *, #461, .F. ) ;
#4 = CYLINDRICAL_SURFACE ( 'NONE', #222, 3.000000000000000000 ) ;
#5 = AXIS2_PLACEMENT_3D ( 'NONE', #687, #205, #555 ) ;
#6 = CARTESIAN_POINT ( 'NONE',  ( 3.000000000000000000, 6.000000000000000000, 40.00000000000000000 ) ) ;
#7 = ORIENTED_EDGE ( 'NONE', *, *, #682, .T. ) ;
#8 = DIRECTION ( 'NONE',  ( 0.000000000000000000, 0.000000000000000000, 1.000000000000000000 ) ) ;
#9 = LINE ( 'NONE', #285, #781 ) ;
#10 = EDGE_LOOP ( 'NONE', ( #109, #798, #409, #875, #106, #626 ) ) ;
#11 = EDGE_CURVE ( 'NONE', #703, #586, #556, .T. ) ;
#12 = VERTEX_POINT ( 'NONE', #61 ) ;
#13 = PERSON_AND_ORGANIZATION ( #729, #60 ) ;
#14 = CARTESIAN_POINT ( 'NONE',  ( 5.999999999999999112, 6.000000000000000000, 40.00000000000000000 ) ) ;
#15 = FACE_OUTER_BOUND ( 'NONE', #229, .T. ) ;
#16 = ORIENTED_EDGE ( 'NONE', *, *, #668, .T. ) ;
#17 = CARTESIAN_POINT ( 'NONE',  ( 3.000000000000000000, 6.000000000000000000, 40.00000000000000000 ) ) ;
#18 = FACE_OUTER_BOUND ( 'NONE', #576, .T. ) ;
#19 = DIRECTION ( 'NONE',  ( 0.000000000000000000, 0.000000000000000000, 1.000000000000000000 ) ) ;
#20 = ORIENTED_EDGE ( 'NONE', *, *, #141, .T. ) ;
#21 = CARTESIAN_POINT ( 'NONE',  ( 1.110223024625156540E-15, 20.00000000000000000, 20.00000000000000000 ) ) ;
#22 = EDGE_CURVE ( 'NONE', #733, #349, #48, .T. ) ;
#23 = FACE_OUTER_BOUND ( 'NONE', #502, .T. ) ;
#24 = ORIENTED_EDGE ( 'NONE', *, *, #403, .F. ) ;
#25 = LINE ( 'NONE', #449, #279 ) ;
#26 = ADVANCED_FACE ( 'NONE', ( #544, #354, #819 ), #148, .F. ) ;
#27 = LINE ( 'NONE', #782, #424 ) ;
#28 = ORIENTED_EDGE ( 'NONE', *, *, #97, .F. ) ;
#29 = CALENDAR_DATE ( 2024, 10, 7 ) ;
#30 = DIRECTION ( 'NONE',  ( 0.000000000000000000, 0.000000000000000000, 1.000000000000000000 ) ) ;
#31 = DIRECTION ( 'NONE',  ( -1.000000000000000000, 0.000000000000000000, 0.000000000000000000 ) ) ;
#32 = ORIENTED_EDGE ( 'NONE', *, *, #246, .T. ) ;
#33 = APPROVAL_DATE_TIME ( #630, #861 ) ;
#34 = CARTESIAN_POINT ( 'NONE',  ( 3.000000000000000000, 25.00000000000000000, 40.00000000000000000 ) ) ;
#35 = CIRCLE ( 'NONE', #853, 9.499999999999998224 ) ;
#36 = CIRCLE ( 'NONE', #881, 2.749999999999999112 ) ;
#37 = EDGE_CURVE ( 'NONE', #365, #225, #814, .T. ) ;
#38 = ORIENTED_EDGE ( 'NONE', *, *, #655, .T. ) ;
#39 = DATE_AND_TIME ( #29, #513 ) ;
#40 = FACE_OUTER_BOUND ( 'NONE', #491, .T. ) ;
#41 = ORIENTED_EDGE ( 'NONE', *, *, #635, .F. ) ;
#42 = CARTESIAN_POINT ( 'NONE',  ( 0.000000000000000000, 6.000000000000000000, 40.00000000000000000 ) ) ;
#43 = ORIENTED_EDGE ( 'NONE', *, *, #197, .T. ) ;
#44 = DIRECTION ( 'NONE',  ( 0.000000000000000000, 0.000000000000000000, 1.000000000000000000 ) ) ;
#45 = EDGE_CURVE ( 'NONE', #155, #49, #866, .T. ) ;
#46 = CARTESIAN_POINT ( 'NONE',  ( 3.000000000000000000, 35.00000000000000000, 10.00000000000000178 ) ) ;
#47 = CC_DESIGN_APPROVAL ( #398, ( #191 ) ) ;
#48 = CIRCLE ( 'NONE', #391, 2.750000000000002665 ) ;
#49 = VERTEX_POINT ( 'NONE', #6 ) ;
#50 = CARTESIAN_POINT ( 'NONE',  ( 0.000000000000000000, 0.000000000000000000, 0.000000000000000000 ) ) ;
#51 = CYLINDRICAL_SURFACE ( 'NONE', #380, 9.499999999999998224 ) ;
#52 = CC_DESIGN_PERSON_AND_ORGANIZATION_ASSIGNMENT ( #311, #94, ( #821 ) ) ;
#53 = VERTEX_POINT ( 'NONE', #490 ) ;
#54 = DIRECTION ( 'NONE',  ( -1.000000000000000000, 0.000000000000000000, 0.000000000000000000 ) ) ;
#55 = CARTESIAN_POINT ( 'NONE',  ( 35.25000000000000000, 2.999999999999999112, 30.00000000000000000 ) ) ;
#56 = CARTESIAN_POINT ( 'NONE',  ( 5.999999999999998224, -1.469576158976821827E-16, 0.000000000000000000 ) ) ;
#57 = LINE ( 'NONE', #50, #764 ) ;
#58 = LINE ( 'NONE', #406, #62 ) ;
#59 = AXIS2_PLACEMENT_3D ( 'NONE', #412, #551, #756 ) ;
#60 = ORGANIZATION ( 'UNSPECIFIED', 'UNSPECIFIED', '' ) ;
#61 = CARTESIAN_POINT ( 'NONE',  ( 20.74999999999999645, 2.999999999999999556, 32.75000000000000000 ) ) ;
#62 = VECTOR ( 'NONE', #667, 1000.000000000000000 ) ;
#63 = ORIENTED_EDGE ( 'NONE', *, *, #605, .F. ) ;
#64 = CARTESIAN_POINT ( 'NONE',  ( 50.00000000000000000, 2.999999999999998668, 0.000000000000000000 ) ) ;
#65 = APPROVAL ( #345, 'UNSPECIFIED' ) ;
#66 = DIRECTION ( 'NONE',  ( 0.000000000000000000, 0.000000000000000000, 1.000000000000000000 ) ) ;
#67 = ORIENTED_EDGE ( 'NONE', *, *, #422, .F. ) ;
#68 = FACE_BOUND ( 'NONE', #208, .T. ) ;
#69 = CARTESIAN_POINT ( 'NONE',  ( 40.00000000000000000, -9.797174393178815797E-16, 0.000000000000000000 ) ) ;
#70 = VERTEX_POINT ( 'NONE', #69 ) ;
#71 = CARTESIAN_POINT ( 'NONE',  ( 35.25000000000000000, 2.999999999999998668, 27.25000000000000000 ) ) ;
#72 = LINE ( 'NONE', #771, #789 ) ;
#73 = EDGE_CURVE ( 'NONE', #753, #155, #495, .T. ) ;
#74 = EDGE_CURVE ( 'NONE', #53, #856, #348, .T. ) ;
#75 = CIRCLE ( 'NONE', #59, 10.00000000000000178 ) ;
#76 = CARTESIAN_POINT ( 'NONE',  ( 20.74999999999999645, 2.999999999999999112, 12.75000000000000178 ) ) ;
#77 = VECTOR ( 'NONE', #462, 1000.000000000000000 ) ;
#78 = ORIENTED_EDGE ( 'NONE', *, *, #112, .T. ) ;
#79 = DIRECTION ( 'NONE',  ( 0.000000000000000000, 0.000000000000000000, 1.000000000000000000 ) ) ;
#80 = AXIS2_PLACEMENT_3D ( 'NONE', #333, #624, #809 ) ;
#81 = CARTESIAN_POINT ( 'NONE',  ( 20.74999999999999645, 2.999999999999999112, 27.25000000000000000 ) ) ;
#82 = LINE ( 'NONE', #170, #168 ) ;
#83 = CC_DESIGN_PERSON_AND_ORGANIZATION_ASSIGNMENT ( #361, #277, ( #364 ) ) ;
#84 = ORIENTED_EDGE ( 'NONE', *, *, #711, .T. ) ;
#85 = CALENDAR_DATE ( 2024, 10, 7 ) ;
#86 = DIRECTION ( 'NONE',  ( -1.000000000000000000, 0.000000000000000000, 0.000000000000000000 ) ) ;
#87 = DIRECTION ( 'NONE',  ( -1.000000000000000000, 0.000000000000000000, 0.000000000000000000 ) ) ;
#88 = EDGE_CURVE ( 'NONE', #309, #150, #679, .T. ) ;
#89 = EDGE_LOOP ( 'NONE', ( #120 ) ) ;
#90 = CARTESIAN_POINT ( 'NONE',  ( 50.00000000000000000, -1.224646799147352073E-15, 0.000000000000000000 ) ) ;
#91 = LINE ( 'NONE', #432, #766 ) ;
#92 = VECTOR ( 'NONE', #366, 1000.000000000000000 ) ;
#93 = EDGE_LOOP ( 'NONE', ( #434, #127, #291, #123 ) ) ;
#94 = PERSON_AND_ORGANIZATION_ROLE ( 'creator' ) ;
#95 = APPROVAL_PERSON_ORGANIZATION ( #827, #65, #886 ) ;
#96 = CARTESIAN_POINT ( 'NONE',  ( 5.999999999999999112, 6.000000000000000000, 0.000000000000000000 ) ) ;
#97 = EDGE_CURVE ( 'NONE', #339, #884, #213, .T. ) ;
#98 = DIRECTION ( 'NONE',  ( 0.000000000000000000, 0.000000000000000000, -1.000000000000000000 ) ) ;
#99 = ORIENTED_EDGE ( 'NONE', *, *, #876, .T. ) ;
#100 = DIRECTION ( 'NONE',  ( 0.000000000000000000, -1.000000000000000000, 0.000000000000000000 ) ) ;
#101 = CARTESIAN_POINT ( 'NONE',  ( 5.999999999999998224, -1.469576158976821827E-16, 0.000000000000000000 ) ) ;
#102 = EDGE_LOOP ( 'NONE', ( #41, #665, #810, #28 ) ) ;
#103 = LINE ( 'NONE', #379, #620 ) ;
#104 = EDGE_CURVE ( 'NONE', #699, #282, #275, .T. ) ;
#105 = ADVANCED_FACE ( 'NONE', ( #757 ), #684, .F. ) ;
#106 = ORIENTED_EDGE ( 'NONE', *, *, #73, .F. ) ;
#107 = DIRECTION ( 'NONE',  ( 1.000000000000000000, -4.336808689942017120E-17, 0.000000000000000000 ) ) ;
#108 = AXIS2_PLACEMENT_3D ( 'NONE', #76, #834, #307 ) ;
#109 = ORIENTED_EDGE ( 'NONE', *, *, #747, .T. ) ;
#110 = CARTESIAN_POINT ( 'NONE',  ( 5.999999999999999112, 6.000000000000000000, 0.000000000000000000 ) ) ;
#111 = ORIENTED_EDGE ( 'NONE', *, *, #293, .T. ) ;
#112 = EDGE_CURVE ( 'NONE', #155, #586, #91, .T. ) ;
#113 = CYLINDRICAL_SURFACE ( 'NONE', #133, 10.00000000000000178 ) ;
#114 = FACE_OUTER_BOUND ( 'NONE', #532, .T. ) ;
#115 = ORIENTED_EDGE ( 'NONE', *, *, #371, .T. ) ;
#116 = FACE_OUTER_BOUND ( 'NONE', #355, .T. ) ;
#117 = VECTOR ( 'NONE', #574, 1000.000000000000000 ) ;
#118 = CARTESIAN_POINT ( 'NONE',  ( 20.74999999999999645, -2.168404344971008868E-15, 32.75000000000000000 ) ) ;
#119 = VECTOR ( 'NONE', #372, 1000.000000000000000 ) ;
#120 = ORIENTED_EDGE ( 'NONE', *, *, #303, .F. ) ;
#121 = CARTESIAN_POINT ( 'NONE',  ( 0.000000000000000000, 25.00000000000000000, 30.00000000000000000 ) ) ;
#122 = FACE_OUTER_BOUND ( 'NONE', #447, .T. ) ;
#123 = ORIENTED_EDGE ( 'NONE', *, *, #553, .F. ) ;
#124 = FACE_OUTER_BOUND ( 'NONE', #181, .T. ) ;
#125 = CYLINDRICAL_SURFACE ( 'NONE', #567, 10.00000000000000000 ) ;
#126 = EDGE_CURVE ( 'NONE', #529, #774, #698, .T. ) ;
#127 = ORIENTED_EDGE ( 'NONE', *, *, #126, .F. ) ;
#128 = CC_DESIGN_PERSON_AND_ORGANIZATION_ASSIGNMENT ( #13, #136, ( #479 ) ) ;
#129 = ORIENTED_EDGE ( 'NONE', *, *, #347, .F. ) ;
#130 = CYLINDRICAL_SURFACE ( 'NONE', #865, 2.749999999999999112 ) ;
#131 = FACE_OUTER_BOUND ( 'NONE', #159, .T. ) ;
#132 = AXIS2_PLACEMENT_3D ( 'NONE', #497, #346, #765 ) ;
#133 = AXIS2_PLACEMENT_3D ( 'NONE', #121, #182, #200 ) ;
#134 = CARTESIAN_POINT ( 'NONE',  ( 35.25000000000000000, 2.999999999999999112, 27.25000000000000000 ) ) ;
#135 = VERTEX_POINT ( 'NONE', #428 ) ;
#136 = PERSON_AND_ORGANIZATION_ROLE ( 'creator' ) ;
#137 = CYLINDRICAL_SURFACE ( 'NONE', #649, 2.750000000000002665 ) ;
#138 = DIRECTION ( 'NONE',  ( -0.000000000000000000, 1.000000000000000000, -0.000000000000000000 ) ) ;
#139 = EDGE_LOOP ( 'NONE', ( #557, #662, #261, #830, #804, #783 ) ) ;
#140 = DIRECTION ( 'NONE',  ( -0.000000000000000000, -0.000000000000000000, -1.000000000000000000 ) ) ;
#141 = EDGE_CURVE ( 'NONE', #225, #703, #323, .T. ) ;
#142 = DIRECTION ( 'NONE',  ( 0.000000000000000000, 0.000000000000000000, 1.000000000000000000 ) ) ;
#143 = CARTESIAN_POINT ( 'NONE',  ( 50.00000000000000000, -1.224646799147352073E-15, 40.00000000000000000 ) ) ;
#144 = ORIENTED_EDGE ( 'NONE', *, *, #565, .T. ) ;
#145 = CARTESIAN_POINT ( 'NONE',  ( 0.000000000000000000, 35.00000000000000000, 40.00000000000000000 ) ) ;
#146 = EDGE_CURVE ( 'NONE', #699, #884, #693, .T. ) ;
#147 = CIRCLE ( 'NONE', #879, 10.00000000000000000 ) ;
#148 = PLANE ( 'NONE',  #80 ) ;
#149 = AXIS2_PLACEMENT_3D ( 'NONE', #754, #79, #770 ) ;
#150 = VERTEX_POINT ( 'NONE', #640 ) ;
#151 = COORDINATED_UNIVERSAL_TIME_OFFSET ( 1, 0, .AHEAD. ) ;
#152 = CIRCLE ( 'NONE', #280, 10.00000000000000178 ) ;
#153 = LINE ( 'NONE', #362, #178 ) ;
#154 = CARTESIAN_POINT ( 'NONE',  ( 20.75000000000000000, 2.999999999999999112, 27.25000000000000000 ) ) ;
#155 = VERTEX_POINT ( 'NONE', #841 ) ;
#156 = MECHANICAL_CONTEXT ( 'NONE', #373, 'mechanical' ) ;
#157 = DIRECTION ( 'NONE',  ( -0.000000000000000000, -0.000000000000000000, -1.000000000000000000 ) ) ;
#158 = DIRECTION ( 'NONE',  ( 1.000000000000000000, 0.000000000000000000, -0.000000000000000000 ) ) ;
#159 = EDGE_LOOP ( 'NONE', ( #177, #609, #63, #429 ) ) ;
#160 = ADVANCED_FACE ( 'NONE', ( #183 ), #632, .T. ) ;
#161 = CARTESIAN_POINT ( 'NONE',  ( 40.00000000000000000, 2.999999999999999112, 0.000000000000000000 ) ) ;
#162 = MANIFOLD_SOLID_BREP ( 'Verrundung3', #207 ) ;
#163 = DIRECTION ( 'NONE',  ( -0.000000000000000000, 1.000000000000000000, -0.000000000000000000 ) ) ;
#164 = AXIS2_PLACEMENT_3D ( 'NONE', #14, #683, #503 ) ;
#165 = ORIENTED_EDGE ( 'NONE', *, *, #747, .F. ) ;
#166 = DATE_TIME_ROLE ( 'classification_date' ) ;
#167 = CIRCLE ( 'NONE', #661, 2.750000000000002665 ) ;
#168 = VECTOR ( 'NONE', #243, 1000.000000000000000 ) ;
#169 = CARTESIAN_POINT ( 'NONE',  ( 35.25000000000000000, 2.999999999999999112, 12.75000000000000000 ) ) ;
#170 = CARTESIAN_POINT ( 'NONE',  ( 5.999999999999998224, -1.469576158976821827E-16, 40.00000000000000000 ) ) ;
#171 = ORIENTED_EDGE ( 'NONE', *, *, #422, .T. ) ;
#172 = LINE ( 'NONE', #169, #436 ) ;
#173 = EDGE_CURVE ( 'NONE', #680, #849, #823, .T. ) ;
#174 = PRODUCT_RELATED_PRODUCT_CATEGORY ( 'detail', '', ( #364 ) ) ;
#175 = ORIENTED_EDGE ( 'NONE', *, *, #358, .T. ) ;
#176 = DIRECTION ( 'NONE',  ( 2.449293598294704381E-17, 1.000000000000000000, -0.000000000000000000 ) ) ;
#177 = ORIENTED_EDGE ( 'NONE', *, *, #173, .F. ) ;
#178 = VECTOR ( 'NONE', #631, 1000.000000000000000 ) ;
#179 = DIRECTION ( 'NONE',  ( -0.000000000000000000, -0.000000000000000000, -1.000000000000000000 ) ) ;
#180 = ADVANCED_FACE ( 'NONE', ( #628 ), #645, .F. ) ;
#181 = EDGE_LOOP ( 'NONE', ( #198, #871, #99, #641 ) ) ;
#182 = DIRECTION ( 'NONE',  ( 1.000000000000000000, 0.000000000000000000, -0.000000000000000000 ) ) ;
#183 = FACE_OUTER_BOUND ( 'NONE', #629, .T. ) ;
#184 = EDGE_LOOP ( 'NONE', ( #522 ) ) ;
#185 = PLANE ( 'NONE',  #566 ) ;
#186 = DIRECTION ( 'NONE',  ( -0.000000000000000000, 1.000000000000000000, -0.000000000000000000 ) ) ;
#187 = EDGE_LOOP ( 'NONE', ( #287, #318, #193, #685 ) ) ;
#188 = DIRECTION ( 'NONE',  ( 0.000000000000000000, 0.000000000000000000, 1.000000000000000000 ) ) ;
#189 = VECTOR ( 'NONE', #317, 1000.000000000000000 ) ;
#190 = CARTESIAN_POINT ( 'NONE',  ( 20.75000000000000000, 2.999999999999999112, 10.00000000000000355 ) ) ;
#191 = SECURITY_CLASSIFICATION ( '', '', #382 ) ;
#192 = AXIS2_PLACEMENT_3D ( 'NONE', #486, #217, #417 ) ;
#193 = ORIENTED_EDGE ( 'NONE', *, *, #240, .T. ) ;
#194 = CARTESIAN_POINT ( 'NONE',  ( 20.75000000000000000, 2.999999999999999112, 7.250000000000004441 ) ) ;
#195 = ADVANCED_FACE ( 'NONE', ( #23 ), #568, .T. ) ;
#196 = PLANE ( 'NONE',  #677 ) ;
#197 = EDGE_CURVE ( 'NONE', #135, #862, #27, .T. ) ;
#198 = ORIENTED_EDGE ( 'NONE', *, *, #470, .F. ) ;
#199 = ORIENTED_EDGE ( 'NONE', *, *, #452, .F. ) ;
#200 = DIRECTION ( 'NONE',  ( 0.000000000000000000, 0.000000000000000000, -1.000000000000000000 ) ) ;
#201 = CARTESIAN_POINT ( 'NONE',  ( 35.25000000000000000, -8.633759933988831100E-16, 32.75000000000000000 ) ) ;
#202 = ORIENTED_EDGE ( 'NONE', *, *, #470, .T. ) ;
#203 = ORIENTED_EDGE ( 'NONE', *, *, #112, .F. ) ;
#204 = CALENDAR_DATE ( 2024, 10, 7 ) ;
#205 = DIRECTION ( 'NONE',  ( -0.000000000000000000, 1.000000000000000000, -0.000000000000000000 ) ) ;
#206 = VECTOR ( 'NONE', #420, 1000.000000000000000 ) ;
#207 = CLOSED_SHELL ( 'NONE', ( #494, #26, #616, #160, #254, #195, #870, #832, #249, #274, #528, #433, #262, #736, #376, #330, #521, #492, #180, #850, #264, #341, #105, #1, #558, #799, #310 ) ) ;
#208 = EDGE_LOOP ( 'NONE', ( #115, #325, #526, #344 ) ) ;
#209 = EDGE_CURVE ( 'NONE', #386, #862, #36, .T. ) ;
#210 = AXIS2_PLACEMENT_3D ( 'NONE', #368, #87, #694 ) ;
#211 = ORIENTED_EDGE ( 'NONE', *, *, #22, .F. ) ;
#212 = CARTESIAN_POINT ( 'NONE',  ( 0.000000000000000000, 25.00000000000000000, 30.00000000000000000 ) ) ;
#213 = LINE ( 'NONE', #134, #468 ) ;
#214 = ORIENTED_EDGE ( 'NONE', *, *, #295, .T. ) ;
#215 = COORDINATED_UNIVERSAL_TIME_OFFSET ( 1, 0, .AHEAD. ) ;
#216 = DIRECTION ( 'NONE',  ( -1.000000000000000000, -0.000000000000000000, -0.000000000000000000 ) ) ;
#217 = DIRECTION ( 'NONE',  ( -0.000000000000000000, -0.000000000000000000, -1.000000000000000000 ) ) ;
#218 = UNCERTAINTY_MEASURE_WITH_UNIT (LENGTH_MEASURE( 1.000000000000000082E-05 ), #272, 'distance_accuracy_value', 'NONE');
#219 = ORIENTED_EDGE ( 'NONE', *, *, #452, .T. ) ;
#220 = APPROVAL_STATUS ( 'not_yet_approved' ) ;
#221 = CARTESIAN_POINT ( 'NONE',  ( 3.000000000000000000, 35.00000000000000000, 30.00000000000000000 ) ) ;
#222 = AXIS2_PLACEMENT_3D ( 'NONE', #351, #157, #86 ) ;
#223 = CARTESIAN_POINT ( 'NONE',  ( 5.999999999999998224, 25.00000000000000000, 40.00000000000000000 ) ) ;
#224 = AXIS2_PLACEMENT_3D ( 'NONE', #476, #796, #806 ) ;
#225 = VERTEX_POINT ( 'NONE', #845 ) ;
#226 = VECTOR ( 'NONE', #671, 1000.000000000000000 ) ;
#227 = DIRECTION ( 'NONE',  ( 0.000000000000000000, 0.000000000000000000, 1.000000000000000000 ) ) ;
#228 = CARTESIAN_POINT ( 'NONE',  ( 3.000000000000000000, 6.000000000000000000, 0.000000000000000000 ) ) ;
#229 = EDGE_LOOP ( 'NONE', ( #32, #669, #202, #329, #758, #769 ) ) ;
#230 = LINE ( 'NONE', #596, #421 ) ;
#231 = CARTESIAN_POINT ( 'NONE',  ( 0.000000000000000000, 0.000000000000000000, 40.00000000000000000 ) ) ;
#232 = VERTEX_POINT ( 'NONE', #794 ) ;
#233 = COORDINATED_UNIVERSAL_TIME_OFFSET ( 1, 0, .AHEAD. ) ;
#234 = DIRECTION ( 'NONE',  ( -1.000000000000000000, 0.000000000000000000, -0.000000000000000000 ) ) ;
#235 = DIRECTION ( 'NONE',  ( -1.000000000000000000, 0.000000000000000000, 0.000000000000000000 ) ) ;
#236 = AXIS2_PLACEMENT_3D ( 'NONE', #212, #489, #427 ) ;
#237 = EDGE_CURVE ( 'NONE', #586, #53, #82, .T. ) ;
#238 = ORIENTED_EDGE ( 'NONE', *, *, #844, .F. ) ;
#239 = VECTOR ( 'NONE', #256, 1000.000000000000000 ) ;
#240 = EDGE_CURVE ( 'NONE', #584, #733, #707, .T. ) ;
#241 = AXIS2_PLACEMENT_3D ( 'NONE', #548, #402, #752 ) ;
#242 = LINE ( 'NONE', #508, #512 ) ;
#243 = DIRECTION ( 'NONE',  ( -0.000000000000000000, -0.000000000000000000, -1.000000000000000000 ) ) ;
#244 = ORIENTED_EDGE ( 'NONE', *, *, #872, .F. ) ;
#245 = LINE ( 'NONE', #520, #465 ) ;
#246 = EDGE_CURVE ( 'NONE', #399, #774, #357, .T. ) ;
#247 = ORIENTED_EDGE ( 'NONE', *, *, #246, .F. ) ;
#248 = LINE ( 'NONE', #517, #864 ) ;
#249 = ADVANCED_FACE ( 'NONE', ( #776, #15 ), #575, .T. ) ;
#250 = ORIENTED_EDGE ( 'NONE', *, *, #644, .T. ) ;
#251 = LINE ( 'NONE', #64, #77 ) ;
#252 = APPROVAL_PERSON_ORGANIZATION ( #448, #398, #859 ) ;
#253 = VECTOR ( 'NONE', #608, 1000.000000000000000 ) ;
#254 = ADVANCED_FACE ( 'NONE', ( #443 ), #712, .T. ) ;
#255 = VERTEX_POINT ( 'NONE', #290 ) ;
#256 = DIRECTION ( 'NONE',  ( -0.000000000000000000, -0.000000000000000000, -1.000000000000000000 ) ) ;
#257 = CARTESIAN_POINT ( 'NONE',  ( 35.25000000000000000, -8.673617379884035472E-16, 27.25000000000000000 ) ) ;
#258 = ORIENTED_EDGE ( 'NONE', *, *, #371, .F. ) ;
#259 = CARTESIAN_POINT ( 'NONE',  ( 5.999999999999999112, 6.000000000000000000, 0.000000000000000000 ) ) ;
#260 = CARTESIAN_POINT ( 'NONE',  ( 3.000000000000000000, 20.00000000000000000, 20.00000000000000000 ) ) ;
#261 = ORIENTED_EDGE ( 'NONE', *, *, #820, .F. ) ;
#262 = ADVANCED_FACE ( 'NONE', ( #327 ), #342, .T. ) ;
#263 = CARTESIAN_POINT ( 'NONE',  ( 50.00000000000000000, 2.999999999999998668, 40.00000000000000000 ) ) ;
#264 = ADVANCED_FACE ( 'NONE', ( #114 ), #802, .F. ) ;
#265 = AXIS2_PLACEMENT_3D ( 'NONE', #705, #176, #107 ) ;
#266 = CARTESIAN_POINT ( 'NONE',  ( 3.000000000000000000, 0.000000000000000000, 0.000000000000000000 ) ) ;
#267 = LOCAL_TIME ( 11, 44, 19.00000000000000000, #151 ) ;
#268 = DIRECTION ( 'NONE',  ( 0.000000000000000000, 0.000000000000000000, 1.000000000000000000 ) ) ;
#269 = CARTESIAN_POINT ( 'NONE',  ( 3.000000000000000000, 0.000000000000000000, 40.00000000000000000 ) ) ;
#270 = DIRECTION ( 'NONE',  ( 0.000000000000000000, 0.000000000000000000, 1.000000000000000000 ) ) ;
#271 = DIRECTION ( 'NONE',  ( -1.000000000000000000, 2.449293598294704072E-17, 0.000000000000000000 ) ) ;
#272 =( LENGTH_UNIT ( ) NAMED_UNIT ( * ) SI_UNIT ( .MILLI., .METRE. ) );
#273 = CARTESIAN_POINT ( 'NONE',  ( 20.74999999999999645, 2.999999999999999112, 7.250000000000004441 ) ) ;
#274 = ADVANCED_FACE ( 'NONE', ( #122 ), #540, .T. ) ;
#275 = LINE ( 'NONE', #689, #592 ) ;
#276 = ORIENTED_EDGE ( 'NONE', *, *, #820, .T. ) ;
#277 = PERSON_AND_ORGANIZATION_ROLE ( 'design_owner' ) ;
#278 = CARTESIAN_POINT ( 'NONE',  ( 20.74999999999999645, 2.999999999999998668, 7.250000000000004441 ) ) ;
#279 = VECTOR ( 'NONE', #100, 1000.000000000000000 ) ;
#280 = AXIS2_PLACEMENT_3D ( 'NONE', #874, #812, #611 ) ;
#281 = VERTEX_POINT ( 'NONE', #678 ) ;
#282 = VERTEX_POINT ( 'NONE', #201 ) ;
#283 = LINE ( 'NONE', #288, #674 ) ;
#284 = PRODUCT_DEFINITION_SHAPE ( 'NONE', 'NONE',  #479 ) ;
#285 = CARTESIAN_POINT ( 'NONE',  ( 35.25000000000000000, 2.999999999999999112, 7.250000000000000888 ) ) ;
#286 = EDGE_LOOP ( 'NONE', ( #395, #305, #378, #867 ) ) ;
#287 = ORIENTED_EDGE ( 'NONE', *, *, #97, .T. ) ;
#288 = CARTESIAN_POINT ( 'NONE',  ( 3.000000000000000000, 35.00000000000000000, 40.00000000000000000 ) ) ;
#289 = FACE_OUTER_BOUND ( 'NONE', #842, .T. ) ;
#290 = CARTESIAN_POINT ( 'NONE',  ( 35.25000000000000000, 2.999999999999999112, 7.250000000000002665 ) ) ;
#291 = ORIENTED_EDGE ( 'NONE', *, *, #801, .F. ) ;
#292 = CARTESIAN_POINT ( 'NONE',  ( 2.264452632821536416E-15, 20.00000000000000000, 29.50000000000000000 ) ) ;
#293 = EDGE_CURVE ( 'NONE', #70, #309, #152, .T. ) ;
#294 = CARTESIAN_POINT ( 'NONE',  ( 35.25000000000000000, 2.999999999999999112, 12.74999999999996980 ) ) ;
#295 = EDGE_CURVE ( 'NONE', #349, #282, #745, .T. ) ;
#296 = CIRCLE ( 'NONE', #691, 3.000000000000000000 ) ;
#297 = DIRECTION ( 'NONE',  ( 0.000000000000000000, 0.000000000000000000, 1.000000000000000000 ) ) ;
#298 = ORIENTED_EDGE ( 'NONE', *, *, #450, .T. ) ;
#299 = FACE_OUTER_BOUND ( 'NONE', #187, .T. ) ;
#300 = DIRECTION ( 'NONE',  ( -1.000000000000000000, 0.000000000000000000, 0.000000000000000000 ) ) ;
#301 = ORIENTED_EDGE ( 'NONE', *, *, #328, .F. ) ;
#302 = DIRECTION ( 'NONE',  ( 1.000000000000000000, 0.000000000000000000, -0.000000000000000000 ) ) ;
#303 = EDGE_CURVE ( 'NONE', #837, #837, #337, .T. ) ;
#304 = DIRECTION ( 'NONE',  ( -0.000000000000000000, 1.000000000000000000, -0.000000000000000000 ) ) ;
#305 = ORIENTED_EDGE ( 'NONE', *, *, #554, .F. ) ;
#306 = DIRECTION ( 'NONE',  ( 0.000000000000000000, -0.000000000000000000, 1.000000000000000000 ) ) ;
#307 = DIRECTION ( 'NONE',  ( 1.000000000000000000, 0.000000000000000000, -2.392722035830077986E-16 ) ) ;
#308 = CIRCLE ( 'NONE', #803, 6.000000000000000888 ) ;
#309 = VERTEX_POINT ( 'NONE', #469 ) ;
#310 = ADVANCED_FACE ( 'NONE', ( #131 ), #125, .T. ) ;
#311 = PERSON_AND_ORGANIZATION ( #729, #60 ) ;
#312 = CC_DESIGN_SECURITY_CLASSIFICATION ( #191, ( #821 ) ) ;
#313 = VECTOR ( 'NONE', #271, 1000.000000000000000 ) ;
#314 = DIRECTION ( 'NONE',  ( -0.000000000000000000, 1.000000000000000000, -0.000000000000000000 ) ) ;
#315 = ORIENTED_EDGE ( 'NONE', *, *, #209, .F. ) ;
#316 = PERSON_AND_ORGANIZATION_ROLE ( 'classification_officer' ) ;
#317 = DIRECTION ( 'NONE',  ( 1.000000000000000000, 0.000000000000000000, 0.000000000000000000 ) ) ;
#318 = ORIENTED_EDGE ( 'NONE', *, *, #588, .F. ) ;
#319 = DIRECTION ( 'NONE',  ( 1.000000000000000000, 0.000000000000000000, 0.000000000000000000 ) ) ;
#320 = VERTEX_POINT ( 'NONE', #46 ) ;
#321 = CIRCLE ( 'NONE', #5, 2.749999999999999112 ) ;
#322 = DIRECTION ( 'NONE',  ( 0.000000000000000000, 1.000000000000000000, 0.000000000000000000 ) ) ;
#323 = CIRCLE ( 'NONE', #407, 10.00000000000000178 ) ;
#324 = FACE_OUTER_BOUND ( 'NONE', #184, .T. ) ;
#325 = ORIENTED_EDGE ( 'NONE', *, *, #755, .T. ) ;
#326 = DIRECTION ( 'NONE',  ( -0.000000000000000000, 1.000000000000000000, 0.000000000000000000 ) ) ;
#327 = FACE_OUTER_BOUND ( 'NONE', #815, .T. ) ;
#328 = EDGE_CURVE ( 'NONE', #862, #475, #58, .T. ) ;
#329 = ORIENTED_EDGE ( 'NONE', *, *, #173, .T. ) ;
#330 = ADVANCED_FACE ( 'NONE', ( #887 ), #459, .F. ) ;
#331 = CARTESIAN_POINT ( 'NONE',  ( 3.000000000000000000, 6.000000000000000000, 0.000000000000000000 ) ) ;
#332 = FACE_OUTER_BOUND ( 'NONE', #595, .T. ) ;
#333 = CARTESIAN_POINT ( 'NONE',  ( 50.00000000000000000, 2.999999999999998668, 40.00000000000000000 ) ) ;
#334 = LINE ( 'NONE', #194, #467 ) ;
#335 = AXIS2_PLACEMENT_3D ( 'NONE', #81, #571, #356 ) ;
#336 = DIRECTION ( 'NONE',  ( -1.000000000000000000, 0.000000000000000000, 2.392722035830077986E-16 ) ) ;
#337 = CIRCLE ( 'NONE', #840, 9.499999999999998224 ) ;
#338 = DIRECTION ( 'NONE',  ( -0.000000000000000000, 1.000000000000000000, -0.000000000000000000 ) ) ;
#339 = VERTEX_POINT ( 'NONE', #257 ) ;
#340 = DIRECTION ( 'NONE',  ( -0.000000000000000000, -0.000000000000000000, -1.000000000000000000 ) ) ;
#341 = ADVANCED_FACE ( 'NONE', ( #332 ), #196, .F. ) ;
#342 = PLANE ( 'NONE',  #734 ) ;
#343 = ORIENTED_EDGE ( 'NONE', *, *, #565, .F. ) ;
#344 = ORIENTED_EDGE ( 'NONE', *, *, #358, .F. ) ;
#345 = APPROVAL_STATUS ( 'not_yet_approved' ) ;
#346 = DIRECTION ( 'NONE',  ( -2.449293598294704072E-17, -1.000000000000000000, 0.000000000000000000 ) ) ;
#347 = EDGE_CURVE ( 'NONE', #475, #255, #536, .T. ) ;
#348 = LINE ( 'NONE', #56, #500 ) ;
#349 = VERTEX_POINT ( 'NONE', #730 ) ;
#350 = PLANE ( 'NONE',  #538 ) ;
#351 = CARTESIAN_POINT ( 'NONE',  ( 5.999999999999999112, 6.000000000000000000, 40.00000000000000000 ) ) ;
#352 = VECTOR ( 'NONE', #751, 1000.000000000000000 ) ;
#353 = VECTOR ( 'NONE', #601, 1000.000000000000000 ) ;
#354 = FACE_BOUND ( 'NONE', #573, .T. ) ;
#355 = EDGE_LOOP ( 'NONE', ( #84, #298, #633, #836 ) ) ;
#356 = DIRECTION ( 'NONE',  ( -1.000000000000000000, 0.000000000000000000, 0.000000000000000000 ) ) ;
#357 = LINE ( 'NONE', #231, #721 ) ;
#358 = EDGE_CURVE ( 'NONE', #739, #825, #607, .T. ) ;
#359 = ORIENTED_EDGE ( 'NONE', *, *, #240, .F. ) ;
#360 = EDGE_CURVE ( 'NONE', #232, #281, #393, .T. ) ;
#361 = PERSON_AND_ORGANIZATION ( #729, #60 ) ;
#362 = CARTESIAN_POINT ( 'NONE',  ( 20.74999999999999645, 2.999999999999999112, 32.75000000000001421 ) ) ;
#363 = CARTESIAN_POINT ( 'NONE',  ( 35.25000000000000000, 2.999999999999998668, 30.00000000000000000 ) ) ;
#364 = PRODUCT ( 'logiBOT_02_Dämpfhalter_V1.0', 'logiBOT_02_Dämpfhalter_V1.0', '', ( #156 ) ) ;
#365 = VERTEX_POINT ( 'NONE', #659 ) ;
#366 = DIRECTION ( 'NONE',  ( -0.000000000000000000, 1.000000000000000000, -0.000000000000000000 ) ) ;
#367 = AXIS2_PLACEMENT_3D ( 'NONE', #511, #577, #442 ) ;
#368 = CARTESIAN_POINT ( 'NONE',  ( 0.000000000000000000, 25.00000000000000000, 10.00000000000000000 ) ) ;
#369 = ORIENTED_EDGE ( 'NONE', *, *, #303, .T. ) ;
#370 = CARTESIAN_POINT ( 'NONE',  ( 5.999999999999998224, -1.469576158976821827E-16, 40.00000000000000000 ) ) ;
#371 = EDGE_CURVE ( 'NONE', #739, #135, #719, .T. ) ;
#372 = DIRECTION ( 'NONE',  ( 0.000000000000000000, -1.000000000000000000, 0.000000000000000000 ) ) ;
#373 = APPLICATION_CONTEXT ( 'configuration controlled 3d designs of mechanical parts and assemblies' ) ;
#374 = EDGE_LOOP ( 'NONE', ( #695, #638, #457, #673 ) ) ;
#375 = CARTESIAN_POINT ( 'NONE',  ( 3.000000000000000000, 25.00000000000000000, 10.00000000000000000 ) ) ;
#376 = ADVANCED_FACE ( 'NONE', ( #477, #324 ), #51, .F. ) ;
#377 = CARTESIAN_POINT ( 'NONE',  ( 40.00000000000000000, -8.673617379884035472E-16, 30.00000000000000000 ) ) ;
#378 = ORIENTED_EDGE ( 'NONE', *, *, #141, .F. ) ;
#379 = CARTESIAN_POINT ( 'NONE',  ( 50.00000000000000000, -1.224646799147352073E-15, 40.00000000000000000 ) ) ;
#380 = AXIS2_PLACEMENT_3D ( 'NONE', #21, #216, #142 ) ;
#381 = ORIENTED_EDGE ( 'NONE', *, *, #394, .F. ) ;
#382 = SECURITY_CLASSIFICATION_LEVEL ( 'unclassified' ) ;
#383 = LINE ( 'NONE', #583, #117 ) ;
#384 = ORIENTED_EDGE ( 'NONE', *, *, #328, .T. ) ;
#385 = DIRECTION ( 'NONE',  ( -0.000000000000000000, 0.000000000000000000, -1.000000000000000000 ) ) ;
#386 = VERTEX_POINT ( 'NONE', #278 ) ;
#387 = DIRECTION ( 'NONE',  ( 0.000000000000000000, -1.000000000000000000, 0.000000000000000000 ) ) ;
#388 = DIRECTION ( 'NONE',  ( -0.000000000000000000, 1.000000000000000000, 0.000000000000000000 ) ) ;
#389 = ORIENTED_EDGE ( 'NONE', *, *, #504, .F. ) ;
#390 = DIRECTION ( 'NONE',  ( 1.000000000000000000, -0.000000000000000000, -2.392722035830077986E-16 ) ) ;
#391 = AXIS2_PLACEMENT_3D ( 'NONE', #617, #829, #268 ) ;
#392 = EDGE_CURVE ( 'NONE', #753, #365, #75, .T. ) ;
#393 = LINE ( 'NONE', #266, #451 ) ;
#394 = EDGE_CURVE ( 'NONE', #460, #825, #321, .T. ) ;
#395 = ORIENTED_EDGE ( 'NONE', *, *, #392, .F. ) ;
#396 = PLANE ( 'NONE',  #224 ) ;
#397 = DIRECTION ( 'NONE',  ( -1.000000000000000000, -0.000000000000000000, 0.000000000000000000 ) ) ;
#398 = APPROVAL ( #441, 'UNSPECIFIED' ) ;
#399 = VERTEX_POINT ( 'NONE', #824 ) ;
#400 = DIRECTION ( 'NONE',  ( 1.000000000000000000, 0.000000000000000000, -0.000000000000000000 ) ) ;
#401 = DIRECTION ( 'NONE',  ( 1.000000000000000000, 0.000000000000000000, -0.000000000000000000 ) ) ;
#402 = DIRECTION ( 'NONE',  ( 0.000000000000000000, -1.000000000000000000, 0.000000000000000000 ) ) ;
#403 = EDGE_CURVE ( 'NONE', #70, #53, #615, .T. ) ;
#404 = ORIENTED_EDGE ( 'NONE', *, *, #767, .F. ) ;
#405 = CARTESIAN_POINT ( 'NONE',  ( 2.264452632821536416E-15, 20.00000000000000000, 20.00000000000000000 ) ) ;
#406 = CARTESIAN_POINT ( 'NONE',  ( 20.74999999999999645, 2.999999999999999112, 12.74999999999997335 ) ) ;
#407 = AXIS2_PLACEMENT_3D ( 'NONE', #377, #560, #579 ) ;
#408 = ORIENTED_EDGE ( 'NONE', *, *, #45, .T. ) ;
#409 = ORIENTED_EDGE ( 'NONE', *, *, #777, .T. ) ;
#410 = VERTEX_POINT ( 'NONE', #292 ) ;
#411 = EDGE_CURVE ( 'NONE', #774, #480, #550, .T. ) ;
#412 = CARTESIAN_POINT ( 'NONE',  ( 40.00000000000000000, 2.999999999999999112, 30.00000000000000000 ) ) ;
#413 = DIRECTION ( 'NONE',  ( 0.000000000000000000, -1.000000000000000000, 0.000000000000000000 ) ) ;
#414 = ORIENTED_EDGE ( 'NONE', *, *, #646, .F. ) ;
#415 = DATE_AND_TIME ( #488, #732 ) ;
#416 = FACE_OUTER_BOUND ( 'NONE', #885, .T. ) ;
#417 = DIRECTION ( 'NONE',  ( 1.000000000000000000, 8.673617379884035472E-16, 0.000000000000000000 ) ) ;
#418 = ORIENTED_EDGE ( 'NONE', *, *, #88, .T. ) ;
#419 = FACE_OUTER_BOUND ( 'NONE', #139, .T. ) ;
#420 = DIRECTION ( 'NONE',  ( -0.000000000000000000, -0.000000000000000000, -1.000000000000000000 ) ) ;
#421 = VECTOR ( 'NONE', #527, 1000.000000000000000 ) ;
#422 = EDGE_CURVE ( 'NONE', #586, #399, #524, .T. ) ;
#423 = EDGE_CURVE ( 'NONE', #155, #856, #72, .T. ) ;
#424 = VECTOR ( 'NONE', #163, 1000.000000000000000 ) ;
#425 = EDGE_LOOP ( 'NONE', ( #487 ) ) ;
#426 = ORIENTED_EDGE ( 'NONE', *, *, #11, .F. ) ;
#427 = DIRECTION ( 'NONE',  ( 0.000000000000000000, 0.000000000000000000, 1.000000000000000000 ) ) ;
#428 = CARTESIAN_POINT ( 'NONE',  ( 20.74999999999999645, -2.168404344971008868E-15, 12.75000000000000178 ) ) ;
#429 = ORIENTED_EDGE ( 'NONE', *, *, #450, .F. ) ;
#430 = CARTESIAN_POINT ( 'NONE',  ( 3.000000000000000000, 20.00000000000000000, 29.50000000000000000 ) ) ;
#431 = DIRECTION ( 'NONE',  ( -0.000000000000000000, -0.000000000000000000, -1.000000000000000000 ) ) ;
#432 = CARTESIAN_POINT ( 'NONE',  ( 5.999999999999998224, 3.000000000000000000, 40.00000000000000000 ) ) ;
#433 = ADVANCED_FACE ( 'NONE', ( #416 ), #4, .F. ) ;
#434 = ORIENTED_EDGE ( 'NONE', *, *, #411, .F. ) ;
#435 = CYLINDRICAL_SURFACE ( 'NONE', #578, 10.00000000000000178 ) ;
#436 = VECTOR ( 'NONE', #710, 1000.000000000000000 ) ;
#437 = AXIS2_PLACEMENT_3D ( 'NONE', #587, #400, #542 ) ;
#438 = DIRECTION ( 'NONE',  ( 0.000000000000000000, -1.000000000000000000, 0.000000000000000000 ) ) ;
#439 = AXIS2_PLACEMENT_3D ( 'NONE', #637, #19, #158 ) ;
#440 = ORIENTED_EDGE ( 'NONE', *, *, #738, .T. ) ;
#441 = APPROVAL_STATUS ( 'not_yet_approved' ) ;
#442 = DIRECTION ( 'NONE',  ( -0.000000000000000000, 0.000000000000000000, -1.000000000000000000 ) ) ;
#443 = FACE_OUTER_BOUND ( 'NONE', #561, .T. ) ;
#444 = ORIENTED_EDGE ( 'NONE', *, *, #37, .T. ) ;
#445 = CALENDAR_DATE ( 2024, 10, 7 ) ;
#446 = CARTESIAN_POINT ( 'NONE',  ( 0.000000000000000000, 35.00000000000000000, 10.00000000000000000 ) ) ;
#447 = EDGE_LOOP ( 'NONE', ( #657, #826, #171, #250 ) ) ;
#448 = PERSON_AND_ORGANIZATION ( #729, #60 ) ;
#449 = CARTESIAN_POINT ( 'NONE',  ( 40.00000000000000000, 6.000000000000000000, 0.000000000000000000 ) ) ;
#450 = EDGE_CURVE ( 'NONE', #849, #281, #484, .T. ) ;
#451 = VECTOR ( 'NONE', #388, 1000.000000000000000 ) ;
#452 = EDGE_CURVE ( 'NONE', #825, #255, #9, .T. ) ;
#453 = ORIENTED_EDGE ( 'NONE', *, *, #11, .T. ) ;
#454 = APPROVAL_DATE_TIME ( #779, #398 ) ;
#455 = VECTOR ( 'NONE', #390, 1000.000000000000000 ) ;
#456 = FACE_OUTER_BOUND ( 'NONE', #722, .T. ) ;
#457 = ORIENTED_EDGE ( 'NONE', *, *, #461, .T. ) ;
#458 = FACE_OUTER_BOUND ( 'NONE', #582, .T. ) ;
#459 = CYLINDRICAL_SURFACE ( 'NONE', #498, 2.750000000000002665 ) ;
#460 = VERTEX_POINT ( 'NONE', #701 ) ;
#461 = EDGE_CURVE ( 'NONE', #349, #12, #760, .T. ) ;
#462 = DIRECTION ( 'NONE',  ( -1.000000000000000000, 2.449293598294704072E-17, 0.000000000000000000 ) ) ;
#463 = DIRECTION ( 'NONE',  ( -0.000000000000000000, 1.000000000000000000, -0.000000000000000000 ) ) ;
#464 = ORIENTED_EDGE ( 'NONE', *, *, #73, .T. ) ;
#465 = VECTOR ( 'NONE', #179, 1000.000000000000000 ) ;
#466 = DIRECTION ( 'NONE',  ( 1.000000000000000000, 0.000000000000000000, -0.000000000000000000 ) ) ;
#467 = VECTOR ( 'NONE', #387, 1000.000000000000000 ) ;
#468 = VECTOR ( 'NONE', #338, 1000.000000000000000 ) ;
#469 = CARTESIAN_POINT ( 'NONE',  ( 50.00000000000000000, -1.224646799147352073E-15, 10.00000000000000178 ) ) ;
#470 = EDGE_CURVE ( 'NONE', #480, #680, #697, .T. ) ;
#471 = VERTEX_POINT ( 'NONE', #221 ) ;
#472 = CARTESIAN_POINT ( 'NONE',  ( 0.000000000000000000, 25.00000000000000000, 0.000000000000000000 ) ) ;
#473 = CARTESIAN_POINT ( 'NONE',  ( 5.999999999999999112, 6.000000000000000000, 40.00000000000000000 ) ) ;
#474 = DIRECTION ( 'NONE',  ( 0.000000000000000000, 1.000000000000000000, 0.000000000000000000 ) ) ;
#475 = VERTEX_POINT ( 'NONE', #294 ) ;
#476 = CARTESIAN_POINT ( 'NONE',  ( 0.000000000000000000, 35.00000000000000000, 40.00000000000000000 ) ) ;
#477 = FACE_OUTER_BOUND ( 'NONE', #89, .T. ) ;
#478 = EDGE_LOOP ( 'NONE', ( #369 ) ) ;
#479 = PRODUCT_DEFINITION ( 'UNKNOWN', '', #821, #773 ) ;
#480 = VERTEX_POINT ( 'NONE', #634 ) ;
#481 = APPLICATION_CONTEXT ( 'configuration controlled 3d designs of mechanical parts and assemblies' ) ;
#482 = APPROVAL_DATE_TIME ( #614, #65 ) ;
#483 = VECTOR ( 'NONE', #807, 1000.000000000000000 ) ;
#484 = LINE ( 'NONE', #622, #852 ) ;
#485 = VECTOR ( 'NONE', #138, 1000.000000000000000 ) ;
#486 = CARTESIAN_POINT ( 'NONE',  ( 5.999999999999999112, 6.000000000000000000, 40.00000000000000000 ) ) ;
#487 = ORIENTED_EDGE ( 'NONE', *, *, #791, .F. ) ;
#488 = CALENDAR_DATE ( 2024, 10, 7 ) ;
#489 = DIRECTION ( 'NONE',  ( -1.000000000000000000, 0.000000000000000000, 0.000000000000000000 ) ) ;
#490 = CARTESIAN_POINT ( 'NONE',  ( 5.999999999999998224, -1.469576158976821827E-16, 0.000000000000000000 ) ) ;
#491 = EDGE_LOOP ( 'NONE', ( #749, #67, #203, #408 ) ) ;
#492 = ADVANCED_FACE ( 'NONE', ( #299 ), #692, .F. ) ;
#493 = DIRECTION ( 'NONE',  ( -0.000000000000000000, 1.000000000000000000, -0.000000000000000000 ) ) ;
#494 = ADVANCED_FACE ( 'NONE', ( #627, #289, #68 ), #559, .T. ) ;
#495 = LINE ( 'NONE', #761, #353 ) ;
#496 = APPROVAL_ROLE ( '' ) ;
#497 = CARTESIAN_POINT ( 'NONE',  ( 50.00000000000000000, -1.224646799147352073E-15, 40.00000000000000000 ) ) ;
#498 = AXIS2_PLACEMENT_3D ( 'NONE', #55, #463, #817 ) ;
#499 =( GEOMETRIC_REPRESENTATION_CONTEXT ( 3 ) GLOBAL_UNCERTAINTY_ASSIGNED_CONTEXT ( ( #218 ) ) GLOBAL_UNIT_ASSIGNED_CONTEXT ( ( #272, #816, #546 ) ) REPRESENTATION_CONTEXT ( 'NONE', 'WORKASPACE' ) );
#500 = VECTOR ( 'NONE', #474, 1000.000000000000000 ) ;
#501 = CARTESIAN_POINT ( 'NONE',  ( 5.999999999999998224, 3.000000000000000000, 40.00000000000000000 ) ) ;
#502 = EDGE_LOOP ( 'NONE', ( #519, #535, #549, #510 ) ) ;
#503 = DIRECTION ( 'NONE',  ( 1.000000000000000000, 0.000000000000000000, 0.000000000000000000 ) ) ;
#504 = EDGE_CURVE ( 'NONE', #12, #699, #153, .T. ) ;
#505 = CARTESIAN_POINT ( 'NONE',  ( 20.75000000000000000, 2.999999999999998668, 10.00000000000000355 ) ) ;
#506 = ORIENTED_EDGE ( 'NONE', *, *, #146, .F. ) ;
#507 = PERSON_AND_ORGANIZATION ( #729, #60 ) ;
#508 = CARTESIAN_POINT ( 'NONE',  ( 0.000000000000000000, 35.00000000000000000, 30.00000000000000000 ) ) ;
#509 = DIRECTION ( 'NONE',  ( 0.000000000000000000, 1.000000000000000000, 0.000000000000000000 ) ) ;
#510 = ORIENTED_EDGE ( 'NONE', *, *, #74, .T. ) ;
#511 = CARTESIAN_POINT ( 'NONE',  ( 50.00000000000000000, 2.999999999999998668, 40.00000000000000000 ) ) ;
#512 = VECTOR ( 'NONE', #302, 1000.000000000000000 ) ;
#513 = LOCAL_TIME ( 11, 44, 19.00000000000000000, #233 ) ;
#514 = DIRECTION ( 'NONE',  ( 0.000000000000000000, 0.000000000000000000, 1.000000000000000000 ) ) ;
#515 = AXIS2_PLACEMENT_3D ( 'NONE', #363, #702, #297 ) ;
#516 = ORIENTED_EDGE ( 'NONE', *, *, #738, .F. ) ;
#517 = CARTESIAN_POINT ( 'NONE',  ( 40.00000000000000000, 6.000000000000000000, 40.00000000000000000 ) ) ;
#518 = DIRECTION ( 'NONE',  ( 0.000000000000000000, 0.000000000000000000, -1.000000000000000000 ) ) ;
#519 = ORIENTED_EDGE ( 'NONE', *, *, #777, .F. ) ;
#520 = CARTESIAN_POINT ( 'NONE',  ( 0.000000000000000000, 6.000000000000000000, 40.00000000000000000 ) ) ;
#521 = ADVANCED_FACE ( 'NONE', ( #18 ), #137, .F. ) ;
#522 = ORIENTED_EDGE ( 'NONE', *, *, #791, .T. ) ;
#523 = CARTESIAN_POINT ( 'NONE',  ( 40.00000000000000000, 2.999999999999998668, 30.00000000000000000 ) ) ;
#524 = CIRCLE ( 'NONE', #164, 6.000000000000000888 ) ;
#525 = LOCAL_TIME ( 11, 44, 19.00000000000000000, #704 ) ;
#526 = ORIENTED_EDGE ( 'NONE', *, *, #394, .T. ) ;
#527 = DIRECTION ( 'NONE',  ( 1.000000000000000000, -0.000000000000000000, -0.000000000000000000 ) ) ;
#528 = ADVANCED_FACE ( 'NONE', ( #456 ), #843, .T. ) ;
#529 = VERTEX_POINT ( 'NONE', #34 ) ;
#530 = CARTESIAN_POINT ( 'NONE',  ( 35.25000000000000000, -8.673617379884035472E-16, 7.250000000000000888 ) ) ;
#531 = DIRECTION ( 'NONE',  ( -2.392722035830077986E-16, 0.000000000000000000, -1.000000000000000000 ) ) ;
#532 = EDGE_LOOP ( 'NONE', ( #2, #822, #258, #238 ) ) ;
#533 = CARTESIAN_POINT ( 'NONE',  ( 20.74999999999999645, -5.082284216461509240E-16, 7.250000000000006217 ) ) ;
#534 = DIRECTION ( 'NONE',  ( 0.000000000000000000, 0.000000000000000000, 1.000000000000000000 ) ) ;
#535 = ORIENTED_EDGE ( 'NONE', *, *, #581, .T. ) ;
#536 = CIRCLE ( 'NONE', #818, 2.749999999999999112 ) ;
#537 = CARTESIAN_POINT ( 'NONE',  ( 20.75000000000000000, 2.999999999999998668, 30.00000000000000000 ) ) ;
#538 = AXIS2_PLACEMENT_3D ( 'NONE', #562, #750, #8 ) ;
#539 = AXIS2_PLACEMENT_3D ( 'NONE', #190, #600, #878 ) ;
#540 = CYLINDRICAL_SURFACE ( 'NONE', #651, 6.000000000000000000 ) ;
#541 = CARTESIAN_POINT ( 'NONE',  ( 50.00000000000000000, 2.999999999999998668, 30.00000000000000000 ) ) ;
#542 = DIRECTION ( 'NONE',  ( 0.000000000000000000, 0.000000000000000000, 1.000000000000000000 ) ) ;
#543 = CARTESIAN_POINT ( 'NONE',  ( 20.74999999999999645, -8.673617379884035472E-16, 7.250000000000004441 ) ) ;
#544 = FACE_OUTER_BOUND ( 'NONE', #10, .T. ) ;
#545 = VERTEX_POINT ( 'NONE', #161 ) ;
#546 =( NAMED_UNIT ( * ) SI_UNIT ( $, .STERADIAN. ) SOLID_ANGLE_UNIT ( ) );
#547 = CARTESIAN_POINT ( 'NONE',  ( 35.25000000000000000, 2.999999999999998668, 10.00000000000000000 ) ) ;
#548 = CARTESIAN_POINT ( 'NONE',  ( 40.00000000000000000, 6.000000000000000000, 10.00000000000000000 ) ) ;
#549 = ORIENTED_EDGE ( 'NONE', *, *, #403, .T. ) ;
#550 = CIRCLE ( 'NONE', #236, 10.00000000000000178 ) ;
#551 = DIRECTION ( 'NONE',  ( 2.449293598294704381E-17, 1.000000000000000000, -0.000000000000000000 ) ) ;
#552 = ORIENTED_EDGE ( 'NONE', *, *, #74, .F. ) ;
#553 = EDGE_CURVE ( 'NONE', #480, #471, #242, .T. ) ;
#554 = EDGE_CURVE ( 'NONE', #703, #753, #248, .T. ) ;
#555 = DIRECTION ( 'NONE',  ( 0.000000000000000000, 0.000000000000000000, 1.000000000000000000 ) ) ;
#556 = LINE ( 'NONE', #143, #313 ) ;
#557 = ORIENTED_EDGE ( 'NONE', *, *, #876, .F. ) ;
#558 = ADVANCED_FACE ( 'NONE', ( #851 ), #435, .T. ) ;
#559 = PLANE ( 'NONE',  #132 ) ;
#560 = DIRECTION ( 'NONE',  ( -2.449293598294704381E-17, -1.000000000000000000, 0.000000000000000000 ) ) ;
#561 = EDGE_LOOP ( 'NONE', ( #552, #7, #717, #714 ) ) ;
#562 = CARTESIAN_POINT ( 'NONE',  ( 3.000000000000000000, 0.000000000000000000, 40.00000000000000000 ) ) ;
#563 = CARTESIAN_POINT ( 'NONE',  ( 20.75000000000000000, 2.999999999999999112, 30.00000000000000000 ) ) ;
#564 = AXIS2_PLACEMENT_3D ( 'NONE', #648, #314, #857 ) ;
#565 = EDGE_CURVE ( 'NONE', #475, #460, #172, .T. ) ;
#566 = AXIS2_PLACEMENT_3D ( 'NONE', #259, #666, #466 ) ;
#567 = AXIS2_PLACEMENT_3D ( 'NONE', #737, #869, #66 ) ;
#568 = PLANE ( 'NONE',  #854 ) ;
#569 = ORIENTED_EDGE ( 'NONE', *, *, #22, .T. ) ;
#570 = SHAPE_DEFINITION_REPRESENTATION ( #284, #713 ) ;
#571 = DIRECTION ( 'NONE',  ( -0.000000000000000000, 0.000000000000000000, -1.000000000000000000 ) ) ;
#572 = DIRECTION ( 'NONE',  ( 0.000000000000000000, 0.000000000000000000, 1.000000000000000000 ) ) ;
#573 = EDGE_LOOP ( 'NONE', ( #654, #506, #389, #404 ) ) ;
#574 = DIRECTION ( 'NONE',  ( 1.000000000000000000, -0.000000000000000000, -0.000000000000000000 ) ) ;
#575 = PLANE ( 'NONE',  #623 ) ;
#576 = EDGE_LOOP ( 'NONE', ( #724, #3, #211, #359 ) ) ;
#577 = DIRECTION ( 'NONE',  ( 1.000000000000000000, 0.000000000000000000, -0.000000000000000000 ) ) ;
#578 = AXIS2_PLACEMENT_3D ( 'NONE', #523, #784, #786 ) ;
#579 = DIRECTION ( 'NONE',  ( 1.000000000000000000, -2.449293598294704381E-17, 0.000000000000000000 ) ) ;
#580 = VECTOR ( 'NONE', #772, 1000.000000000000000 ) ;
#581 = EDGE_CURVE ( 'NONE', #545, #70, #25, .T. ) ;
#582 = EDGE_LOOP ( 'NONE', ( #381, #343, #598, #199 ) ) ;
#583 = CARTESIAN_POINT ( 'NONE',  ( 20.74999999999999645, 2.999999999999998668, 27.25000000000000000 ) ) ;
#584 = VERTEX_POINT ( 'NONE', #780 ) ;
#585 = DIRECTION ( 'NONE',  ( -0.000000000000000000, -0.000000000000000000, -1.000000000000000000 ) ) ;
#586 = VERTEX_POINT ( 'NONE', #370 ) ;
#587 = CARTESIAN_POINT ( 'NONE',  ( 3.000000000000000000, 25.00000000000000000, 30.00000000000000000 ) ) ;
#588 = EDGE_CURVE ( 'NONE', #584, #884, #383, .T. ) ;
#589 = AXIS2_PLACEMENT_3D ( 'NONE', #664, #883, #270 ) ;
#590 = LOCAL_TIME ( 11, 44, 19.00000000000000000, #759 ) ;
#591 = ORIENTED_EDGE ( 'NONE', *, *, #423, .T. ) ;
#592 = VECTOR ( 'NONE', #413, 1000.000000000000000 ) ;
#593 = CARTESIAN_POINT ( 'NONE',  ( 20.74999999999999645, -8.673617379884035472E-16, 27.25000000000000000 ) ) ;
#594 = CARTESIAN_POINT ( 'NONE',  ( 5.999999999999999112, 6.000000000000000000, 40.00000000000000000 ) ) ;
#595 = EDGE_LOOP ( 'NONE', ( #219, #516, #652, #175 ) ) ;
#596 = CARTESIAN_POINT ( 'NONE',  ( 20.74999999999999645, -8.673617379884035472E-16, 27.25000000000000000 ) ) ;
#597 = DIRECTION ( 'NONE',  ( -0.000000000000000000, -0.000000000000000000, -1.000000000000000000 ) ) ;
#598 = ORIENTED_EDGE ( 'NONE', *, *, #347, .T. ) ;
#599 = LINE ( 'NONE', #735, #621 ) ;
#600 = DIRECTION ( 'NONE',  ( -0.000000000000000000, 1.000000000000000000, -0.000000000000000000 ) ) ;
#601 = DIRECTION ( 'NONE',  ( -1.000000000000000000, 2.449293598294704072E-17, 0.000000000000000000 ) ) ;
#602 = EDGE_CURVE ( 'NONE', #320, #680, #847, .T. ) ;
#603 = CARTESIAN_POINT ( 'NONE',  ( 20.74999999999999645, -2.168404344971008868E-15, 12.75000000000000178 ) ) ;
#604 = VECTOR ( 'NONE', #54, 1000.000000000000000 ) ;
#605 = EDGE_CURVE ( 'NONE', #281, #320, #147, .T. ) ;
#606 = AXIS2_PLACEMENT_3D ( 'NONE', #101, #518, #31 ) ;
#607 = LINE ( 'NONE', #543, #483 ) ;
#608 = DIRECTION ( 'NONE',  ( 0.000000000000000000, -1.000000000000000000, 0.000000000000000000 ) ) ;
#609 = ORIENTED_EDGE ( 'NONE', *, *, #602, .F. ) ;
#610 = APPLICATION_PROTOCOL_DEFINITION ( 'international standard', 'config_control_design', 1994, #481 ) ;
#611 = DIRECTION ( 'NONE',  ( 1.000000000000000000, -2.449293598294704381E-17, 0.000000000000000000 ) ) ;
#612 = ORIENTED_EDGE ( 'NONE', *, *, #625, .T. ) ;
#613 = VERTEX_POINT ( 'NONE', #656 ) ;
#614 = DATE_AND_TIME ( #204, #267 ) ;
#615 = LINE ( 'NONE', #90, #352 ) ;
#616 = ADVANCED_FACE ( 'NONE', ( #40 ), #639, .T. ) ;
#617 = CARTESIAN_POINT ( 'NONE',  ( 20.75000000000000000, -8.673617379884035472E-16, 30.00000000000000000 ) ) ;
#618 = ORIENTED_EDGE ( 'NONE', *, *, #635, .T. ) ;
#619 = CARTESIAN_POINT ( 'NONE',  ( 20.75000000000000000, 2.999999999999998668, 12.75000000000000178 ) ) ;
#620 = VECTOR ( 'NONE', #788, 1000.000000000000000 ) ;
#621 = VECTOR ( 'NONE', #744, 1000.000000000000000 ) ;
#622 = CARTESIAN_POINT ( 'NONE',  ( 3.000000000000000000, 25.00000000000000000, 0.000000000000000000 ) ) ;
#623 = AXIS2_PLACEMENT_3D ( 'NONE', #848, #235, #514 ) ;
#624 = DIRECTION ( 'NONE',  ( -2.449293598294704072E-17, -1.000000000000000000, 0.000000000000000000 ) ) ;
#625 = EDGE_CURVE ( 'NONE', #225, #309, #103, .T. ) ;
#626 = ORIENTED_EDGE ( 'NONE', *, *, #392, .T. ) ;
#627 = FACE_BOUND ( 'NONE', #708, .T. ) ;
#628 = FACE_OUTER_BOUND ( 'NONE', #374, .T. ) ;
#629 = EDGE_LOOP ( 'NONE', ( #276, #846, #247, #38 ) ) ;
#630 = DATE_AND_TIME ( #85, #590 ) ;
#631 = DIRECTION ( 'NONE',  ( 1.000000000000000000, -0.000000000000000000, -0.000000000000000000 ) ) ;
#632 = PLANE ( 'NONE',  #805 ) ;
#633 = ORIENTED_EDGE ( 'NONE', *, *, #360, .F. ) ;
#634 = CARTESIAN_POINT ( 'NONE',  ( 0.000000000000000000, 35.00000000000000000, 30.00000000000000000 ) ) ;
#635 = EDGE_CURVE ( 'NONE', #282, #339, #731, .T. ) ;
#636 = CC_DESIGN_APPROVAL ( #65, ( #479 ) ) ;
#637 = CARTESIAN_POINT ( 'NONE',  ( 20.74999999999999645, 2.999999999999999112, 32.75000000000000000 ) ) ;
#638 = ORIENTED_EDGE ( 'NONE', *, *, #295, .F. ) ;
#639 = PLANE ( 'NONE',  #838 ) ;
#640 = CARTESIAN_POINT ( 'NONE',  ( 50.00000000000000000, 2.999999999999998668, 10.00000000000000178 ) ) ;
#641 = ORIENTED_EDGE ( 'NONE', *, *, #602, .T. ) ;
#642 = PERSON_AND_ORGANIZATION ( #729, #60 ) ;
#643 = DIRECTION ( 'NONE',  ( 1.000000000000000000, 0.000000000000000000, -0.000000000000000000 ) ) ;
#644 = EDGE_CURVE ( 'NONE', #399, #613, #245, .T. ) ;
#645 = PLANE ( 'NONE',  #439 ) ;
#646 = EDGE_CURVE ( 'NONE', #150, #545, #835, .T. ) ;
#647 = ORIENTED_EDGE ( 'NONE', *, *, #88, .F. ) ;
#648 = CARTESIAN_POINT ( 'NONE',  ( 35.25000000000000000, -8.673617379884035472E-16, 30.00000000000000000 ) ) ;
#649 = AXIS2_PLACEMENT_3D ( 'NONE', #563, #839, #227 ) ;
#650 = VECTOR ( 'NONE', #326, 1000.000000000000000 ) ;
#651 = AXIS2_PLACEMENT_3D ( 'NONE', #594, #597, #741 ) ;
#652 = ORIENTED_EDGE ( 'NONE', *, *, #844, .T. ) ;
#653 = CARTESIAN_POINT ( 'NONE',  ( 0.000000000000000000, 6.000000000000000000, 40.00000000000000000 ) ) ;
#654 = ORIENTED_EDGE ( 'NONE', *, *, #588, .T. ) ;
#655 = EDGE_CURVE ( 'NONE', #399, #49, #775, .T. ) ;
#656 = CARTESIAN_POINT ( 'NONE',  ( 0.000000000000000000, 6.000000000000000000, 0.000000000000000000 ) ) ;
#657 = ORIENTED_EDGE ( 'NONE', *, *, #682, .F. ) ;
#658 = DIRECTION ( 'NONE',  ( -1.000000000000000000, -0.000000000000000000, -0.000000000000000000 ) ) ;
#659 = CARTESIAN_POINT ( 'NONE',  ( 50.00000000000000000, 2.999999999999998668, 30.00000000000000000 ) ) ;
#660 = CC_DESIGN_DATE_AND_TIME_ASSIGNMENT ( #39, #166, ( #191 ) ) ;
#661 = AXIS2_PLACEMENT_3D ( 'NONE', #537, #793, #44 ) ;
#662 = ORIENTED_EDGE ( 'NONE', *, *, #801, .T. ) ;
#663 = LINE ( 'NONE', #263, #239 ) ;
#664 = CARTESIAN_POINT ( 'NONE',  ( 20.75000000000000000, -8.673617379884035472E-16, 10.00000000000000355 ) ) ;
#665 = ORIENTED_EDGE ( 'NONE', *, *, #104, .F. ) ;
#666 = DIRECTION ( 'NONE',  ( 0.000000000000000000, -0.000000000000000000, 1.000000000000000000 ) ) ;
#667 = DIRECTION ( 'NONE',  ( 1.000000000000000000, -0.000000000000000000, -2.392722035830077986E-16 ) ) ;
#668 = EDGE_CURVE ( 'NONE', #856, #232, #296, .T. ) ;
#669 = ORIENTED_EDGE ( 'NONE', *, *, #411, .T. ) ;
#670 = LINE ( 'NONE', #331, #604 ) ;
#671 = DIRECTION ( 'NONE',  ( 1.000000000000000000, -0.000000000000000000, -0.000000000000000000 ) ) ;
#672 = VECTOR ( 'NONE', #234, 1000.000000000000000 ) ;
#673 = ORIENTED_EDGE ( 'NONE', *, *, #504, .T. ) ;
#674 = VECTOR ( 'NONE', #140, 1000.000000000000000 ) ;
#675 = ORIENTED_EDGE ( 'NONE', *, *, #581, .F. ) ;
#676 = DIRECTION ( 'NONE',  ( 0.000000000000000000, 0.000000000000000000, 1.000000000000000000 ) ) ;
#677 = AXIS2_PLACEMENT_3D ( 'NONE', #273, #531, #336 ) ;
#678 = CARTESIAN_POINT ( 'NONE',  ( 3.000000000000000000, 25.00000000000000000, 0.000000000000000000 ) ) ;
#679 = LINE ( 'NONE', #742, #485 ) ;
#680 = VERTEX_POINT ( 'NONE', #723 ) ;
#681 = FACE_BOUND ( 'NONE', #478, .T. ) ;
#682 = EDGE_CURVE ( 'NONE', #53, #613, #308, .T. ) ;
#683 = DIRECTION ( 'NONE',  ( -0.000000000000000000, 0.000000000000000000, -1.000000000000000000 ) ) ;
#684 = PLANE ( 'NONE',  #108 ) ;
#685 = ORIENTED_EDGE ( 'NONE', *, *, #688, .T. ) ;
#686 = PERSON_AND_ORGANIZATION ( #729, #60 ) ;
#687 = CARTESIAN_POINT ( 'NONE',  ( 35.25000000000000000, -8.673617379884035472E-16, 10.00000000000000000 ) ) ;
#688 = EDGE_CURVE ( 'NONE', #733, #339, #230, .T. ) ;
#689 = CARTESIAN_POINT ( 'NONE',  ( 35.25000000000000000, 2.999999999999999112, 32.75000000000000000 ) ) ;
#690 = ORIENTED_EDGE ( 'NONE', *, *, #237, .T. ) ;
#691 = AXIS2_PLACEMENT_3D ( 'NONE', #96, #585, #860 ) ;
#692 = PLANE ( 'NONE',  #335 ) ;
#693 = CIRCLE ( 'NONE', #515, 2.750000000000002665 ) ;
#694 = DIRECTION ( 'NONE',  ( 0.000000000000000000, 0.000000000000000000, 1.000000000000000000 ) ) ;
#695 = ORIENTED_EDGE ( 'NONE', *, *, #104, .T. ) ;
#696 = LINE ( 'NONE', #17, #790 ) ;
#697 = LINE ( 'NONE', #145, #206 ) ;
#698 = LINE ( 'NONE', #223, #580 ) ;
#699 = VERTEX_POINT ( 'NONE', #882 ) ;
#700 = CC_DESIGN_PERSON_AND_ORGANIZATION_ASSIGNMENT ( #642, #709, ( #821 ) ) ;
#701 = CARTESIAN_POINT ( 'NONE',  ( 35.25000000000000000, -2.168404344971008868E-15, 12.75000000000000000 ) ) ;
#702 = DIRECTION ( 'NONE',  ( -0.000000000000000000, 1.000000000000000000, -0.000000000000000000 ) ) ;
#703 = VERTEX_POINT ( 'NONE', #877 ) ;
#704 = COORDINATED_UNIVERSAL_TIME_OFFSET ( 1, 0, .AHEAD. ) ;
#705 = CARTESIAN_POINT ( 'NONE',  ( 40.00000000000000000, 2.999999999999999112, 10.00000000000000000 ) ) ;
#706 = APPROVAL_PERSON_ORGANIZATION ( #686, #861, #496 ) ;
#707 = LINE ( 'NONE', #154, #119 ) ;
#708 = EDGE_LOOP ( 'NONE', ( #785, #569, #214, #618 ) ) ;
#709 = PERSON_AND_ORGANIZATION_ROLE ( 'design_supplier' ) ;
#710 = DIRECTION ( 'NONE',  ( 0.000000000000000000, -1.000000000000000000, 0.000000000000000000 ) ) ;
#711 = EDGE_CURVE ( 'NONE', #613, #849, #57, .T. ) ;
#712 = PLANE ( 'NONE',  #606 ) ;
#713 = ADVANCED_BREP_SHAPE_REPRESENTATION ( 'logiBOT_02_Dõmpfhalter_V1.0', ( #162, #149 ), #499 ) ;
#714 = ORIENTED_EDGE ( 'NONE', *, *, #668, .F. ) ;
#715 = DIRECTION ( 'NONE',  ( 1.000000000000000000, 0.000000000000000000, -0.000000000000000000 ) ) ;
#716 = CC_DESIGN_DATE_AND_TIME_ASSIGNMENT ( #415, #831, ( #479 ) ) ;
#717 = ORIENTED_EDGE ( 'NONE', *, *, #813, .F. ) ;
#718 = DIRECTION ( 'NONE',  ( -0.000000000000000000, 1.000000000000000000, -0.000000000000000000 ) ) ;
#719 = CIRCLE ( 'NONE', #589, 2.749999999999999112 ) ;
#720 = CC_DESIGN_APPROVAL ( #861, ( #821 ) ) ;
#721 = VECTOR ( 'NONE', #509, 1000.000000000000000 ) ;
#722 = EDGE_LOOP ( 'NONE', ( #612, #418, #165, #444 ) ) ;
#723 = CARTESIAN_POINT ( 'NONE',  ( 0.000000000000000000, 35.00000000000000000, 10.00000000000000178 ) ) ;
#724 = ORIENTED_EDGE ( 'NONE', *, *, #767, .T. ) ;
#725 = CARTESIAN_POINT ( 'NONE',  ( 0.000000000000000000, 25.00000000000000000, 40.00000000000000000 ) ) ;
#726 = DIRECTION ( 'NONE',  ( 0.000000000000000000, -0.000000000000000000, 1.000000000000000000 ) ) ;
#727 = EDGE_LOOP ( 'NONE', ( #301, #315, #440, #129 ) ) ;
#728 = LINE ( 'NONE', #269, #650 ) ;
#729 = PERSON ( 'UNSPECIFIED', 'UNSPECIFIED', 'UNSPECIFIED', ('UNSPECIFIED'), ('UNSPECIFIED'), ('UNSPECIFIED') ) ;
#730 = CARTESIAN_POINT ( 'NONE',  ( 20.74999999999999645, -2.168404344971008868E-15, 32.75000000000000000 ) ) ;
#731 = CIRCLE ( 'NONE', #564, 2.750000000000002665 ) ;
#732 = LOCAL_TIME ( 11, 44, 19.00000000000000000, #215 ) ;
#733 = VERTEX_POINT ( 'NONE', #593 ) ;
#734 = AXIS2_PLACEMENT_3D ( 'NONE', #473, #726, #401 ) ;
#735 = CARTESIAN_POINT ( 'NONE',  ( 20.74999999999999645, 2.999999999999998668, 7.250000000000004441 ) ) ;
#736 = ADVANCED_FACE ( 'NONE', ( #116 ), #185, .F. ) ;
#737 = CARTESIAN_POINT ( 'NONE',  ( 5.999999999999999112, 25.00000000000000000, 10.00000000000000000 ) ) ;
#738 = EDGE_CURVE ( 'NONE', #386, #255, #599, .T. ) ;
#739 = VERTEX_POINT ( 'NONE', #533 ) ;
#740 = CARTESIAN_POINT ( 'NONE',  ( 35.25000000000000000, 2.999999999999999112, 10.00000000000000000 ) ) ;
#741 = DIRECTION ( 'NONE',  ( -1.000000000000000000, 0.000000000000000000, 0.000000000000000000 ) ) ;
#742 = CARTESIAN_POINT ( 'NONE',  ( 50.00000000000000000, 2.999999999999998668, 10.00000000000000178 ) ) ;
#743 = ORIENTED_EDGE ( 'NONE', *, *, #625, .F. ) ;
#744 = DIRECTION ( 'NONE',  ( 1.000000000000000000, -0.000000000000000000, -2.392722035830077986E-16 ) ) ;
#745 = LINE ( 'NONE', #118, #226 ) ;
#746 = FACE_OUTER_BOUND ( 'NONE', #795, .T. ) ;
#747 = EDGE_CURVE ( 'NONE', #365, #150, #663, .T. ) ;
#748 = CIRCLE ( 'NONE', #437, 10.00000000000000178 ) ;
#749 = ORIENTED_EDGE ( 'NONE', *, *, #655, .F. ) ;
#750 = DIRECTION ( 'NONE',  ( -1.000000000000000000, -0.000000000000000000, 0.000000000000000000 ) ) ;
#751 = DIRECTION ( 'NONE',  ( -1.000000000000000000, 2.449293598294704072E-17, 0.000000000000000000 ) ) ;
#752 = DIRECTION ( 'NONE',  ( 0.000000000000000000, 0.000000000000000000, -1.000000000000000000 ) ) ;
#753 = VERTEX_POINT ( 'NONE', #873 ) ;
#754 = CARTESIAN_POINT ( 'NONE',  ( 0.000000000000000000, 0.000000000000000000, 0.000000000000000000 ) ) ;
#755 = EDGE_CURVE ( 'NONE', #135, #460, #800, .T. ) ;
#756 = DIRECTION ( 'NONE',  ( 1.000000000000000000, -4.336808689942017120E-17, 0.000000000000000000 ) ) ;
#757 = FACE_OUTER_BOUND ( 'NONE', #778, .T. ) ;
#758 = ORIENTED_EDGE ( 'NONE', *, *, #711, .F. ) ;
#759 = COORDINATED_UNIVERSAL_TIME_OFFSET ( 1, 0, .AHEAD. ) ;
#760 = LINE ( 'NONE', #833, #92 ) ;
#761 = CARTESIAN_POINT ( 'NONE',  ( 50.00000000000000000, 2.999999999999998668, 40.00000000000000000 ) ) ;
#762 = ORIENTED_EDGE ( 'NONE', *, *, #293, .F. ) ;
#763 = APPLICATION_PROTOCOL_DEFINITION ( 'international standard', 'config_control_design', 1994, #373 ) ;
#764 = VECTOR ( 'NONE', #322, 1000.000000000000000 ) ;
#765 = DIRECTION ( 'NONE',  ( 1.000000000000000000, -2.449293598294704072E-17, 0.000000000000000000 ) ) ;
#766 = VECTOR ( 'NONE', #438, 1000.000000000000000 ) ;
#767 = EDGE_CURVE ( 'NONE', #584, #12, #167, .T. ) ;
#768 = DIRECTION ( 'NONE',  ( 1.000000000000000000, 0.000000000000000000, -0.000000000000000000 ) ) ;
#769 = ORIENTED_EDGE ( 'NONE', *, *, #644, .F. ) ;
#770 = DIRECTION ( 'NONE',  ( 1.000000000000000000, 0.000000000000000000, 0.000000000000000000 ) ) ;
#771 = CARTESIAN_POINT ( 'NONE',  ( 5.999999999999998224, 3.000000000000000000, 40.00000000000000000 ) ) ;
#772 = DIRECTION ( 'NONE',  ( -1.000000000000000000, -0.000000000000000000, -0.000000000000000000 ) ) ;
#773 = DESIGN_CONTEXT ( 'detailed design', #481, 'design' ) ;
#774 = VERTEX_POINT ( 'NONE', #725 ) ;
#775 = LINE ( 'NONE', #653, #189 ) ;
#776 = FACE_BOUND ( 'NONE', #425, .T. ) ;
#777 = EDGE_CURVE ( 'NONE', #545, #856, #251, .T. ) ;
#778 = EDGE_LOOP ( 'NONE', ( #144, #792, #43, #384 ) ) ;
#779 = DATE_AND_TIME ( #445, #525 ) ;
#780 = CARTESIAN_POINT ( 'NONE',  ( 20.74999999999999645, 2.999999999999998668, 27.25000000000000000 ) ) ;
#781 = VECTOR ( 'NONE', #493, 1000.000000000000000 ) ;
#782 = CARTESIAN_POINT ( 'NONE',  ( 20.75000000000000000, 2.999999999999999112, 12.75000000000000178 ) ) ;
#783 = ORIENTED_EDGE ( 'NONE', *, *, #605, .T. ) ;
#784 = DIRECTION ( 'NONE',  ( 0.000000000000000000, -1.000000000000000000, 0.000000000000000000 ) ) ;
#785 = ORIENTED_EDGE ( 'NONE', *, *, #688, .F. ) ;
#786 = DIRECTION ( 'NONE',  ( 0.000000000000000000, 0.000000000000000000, -1.000000000000000000 ) ) ;
#787 = ORIENTED_EDGE ( 'NONE', *, *, #554, .T. ) ;
#788 = DIRECTION ( 'NONE',  ( -0.000000000000000000, -0.000000000000000000, -1.000000000000000000 ) ) ;
#789 = VECTOR ( 'NONE', #431, 1000.000000000000000 ) ;
#790 = VECTOR ( 'NONE', #340, 1000.000000000000000 ) ;
#791 = EDGE_CURVE ( 'NONE', #410, #410, #35, .T. ) ;
#792 = ORIENTED_EDGE ( 'NONE', *, *, #755, .F. ) ;
#793 = DIRECTION ( 'NONE',  ( -0.000000000000000000, 1.000000000000000000, -0.000000000000000000 ) ) ;
#794 = CARTESIAN_POINT ( 'NONE',  ( 3.000000000000000000, 6.000000000000000000, 0.000000000000000000 ) ) ;
#795 = EDGE_LOOP ( 'NONE', ( #414, #647, #762, #675 ) ) ;
#796 = DIRECTION ( 'NONE',  ( 0.000000000000000000, 1.000000000000000000, 0.000000000000000000 ) ) ;
#797 = DIRECTION ( 'NONE',  ( 0.000000000000000000, 0.000000000000000000, 1.000000000000000000 ) ) ;
#798 = ORIENTED_EDGE ( 'NONE', *, *, #646, .T. ) ;
#799 = ADVANCED_FACE ( 'NONE', ( #868 ), #113, .T. ) ;
#800 = LINE ( 'NONE', #603, #455 ) ;
#801 = EDGE_CURVE ( 'NONE', #471, #529, #748, .T. ) ;
#802 = CYLINDRICAL_SURFACE ( 'NONE', #539, 2.749999999999999112 ) ;
#803 = AXIS2_PLACEMENT_3D ( 'NONE', #110, #385, #319 ) ;
#804 = ORIENTED_EDGE ( 'NONE', *, *, #360, .T. ) ;
#805 = AXIS2_PLACEMENT_3D ( 'NONE', #501, #855, #768 ) ;
#806 = DIRECTION ( 'NONE',  ( 0.000000000000000000, -0.000000000000000000, 1.000000000000000000 ) ) ;
#807 = DIRECTION ( 'NONE',  ( 1.000000000000000000, -0.000000000000000000, -2.392722035830077986E-16 ) ) ;
#808 = CC_DESIGN_PERSON_AND_ORGANIZATION_ASSIGNMENT ( #507, #316, ( #191 ) ) ;
#809 = DIRECTION ( 'NONE',  ( 1.000000000000000000, -2.449293598294704072E-17, 0.000000000000000000 ) ) ;
#810 = ORIENTED_EDGE ( 'NONE', *, *, #146, .T. ) ;
#811 = DIRECTION ( 'NONE',  ( -0.000000000000000000, 1.000000000000000000, -0.000000000000000000 ) ) ;
#812 = DIRECTION ( 'NONE',  ( -2.449293598294704381E-17, -1.000000000000000000, 0.000000000000000000 ) ) ;
#813 = EDGE_CURVE ( 'NONE', #232, #613, #670, .T. ) ;
#814 = LINE ( 'NONE', #541, #253 ) ;
#815 = EDGE_LOOP ( 'NONE', ( #426, #787, #464, #78 ) ) ;
#816 =( NAMED_UNIT ( * ) PLANE_ANGLE_UNIT ( ) SI_UNIT ( $, .RADIAN. ) );
#817 = DIRECTION ( 'NONE',  ( 0.000000000000000000, 0.000000000000000000, 1.000000000000000000 ) ) ;
#818 = AXIS2_PLACEMENT_3D ( 'NONE', #547, #186, #797 ) ;
#819 = FACE_BOUND ( 'NONE', #727, .T. ) ;
#820 = EDGE_CURVE ( 'NONE', #49, #529, #728, .T. ) ;
#821 = PRODUCT_DEFINITION_FORMATION_WITH_SPECIFIED_SOURCE ( 'ANY', '', #364, .NOT_KNOWN. ) ;
#822 = ORIENTED_EDGE ( 'NONE', *, *, #197, .F. ) ;
#823 = CIRCLE ( 'NONE', #210, 10.00000000000000000 ) ;
#824 = CARTESIAN_POINT ( 'NONE',  ( 0.000000000000000000, 6.000000000000000000, 40.00000000000000000 ) ) ;
#825 = VERTEX_POINT ( 'NONE', #530 ) ;
#826 = ORIENTED_EDGE ( 'NONE', *, *, #237, .F. ) ;
#827 = PERSON_AND_ORGANIZATION ( #729, #60 ) ;
#828 = DIRECTION ( 'NONE',  ( 1.000000000000000000, 0.000000000000000000, -0.000000000000000000 ) ) ;
#829 = DIRECTION ( 'NONE',  ( -0.000000000000000000, 1.000000000000000000, -0.000000000000000000 ) ) ;
#830 = ORIENTED_EDGE ( 'NONE', *, *, #872, .T. ) ;
#831 = DATE_TIME_ROLE ( 'creation_date' ) ;
#832 = ADVANCED_FACE ( 'NONE', ( #124 ), #396, .T. ) ;
#833 = CARTESIAN_POINT ( 'NONE',  ( 20.75000000000000000, 2.999999999999999112, 32.75000000000000000 ) ) ;
#834 = DIRECTION ( 'NONE',  ( 2.392722035830077986E-16, 0.000000000000000000, 1.000000000000000000 ) ) ;
#835 = CIRCLE ( 'NONE', #265, 10.00000000000000178 ) ;
#836 = ORIENTED_EDGE ( 'NONE', *, *, #813, .T. ) ;
#837 = VERTEX_POINT ( 'NONE', #430 ) ;
#838 = AXIS2_PLACEMENT_3D ( 'NONE', #42, #306, #715 ) ;
#839 = DIRECTION ( 'NONE',  ( -0.000000000000000000, 1.000000000000000000, -0.000000000000000000 ) ) ;
#840 = AXIS2_PLACEMENT_3D ( 'NONE', #260, #397, #534 ) ;
#841 = CARTESIAN_POINT ( 'NONE',  ( 5.999999999999998224, 3.000000000000000000, 40.00000000000000000 ) ) ;
#842 = EDGE_LOOP ( 'NONE', ( #24, #111, #743, #20, #453, #690 ) ) ;
#843 = PLANE ( 'NONE',  #367 ) ;
#844 = EDGE_CURVE ( 'NONE', #386, #739, #334, .T. ) ;
#845 = CARTESIAN_POINT ( 'NONE',  ( 50.00000000000000000, -1.224646799147352073E-15, 30.00000000000000000 ) ) ;
#846 = ORIENTED_EDGE ( 'NONE', *, *, #126, .T. ) ;
#847 = LINE ( 'NONE', #446, #672 ) ;
#848 = CARTESIAN_POINT ( 'NONE',  ( 0.000000000000000000, 0.000000000000000000, 40.00000000000000000 ) ) ;
#849 = VERTEX_POINT ( 'NONE', #472 ) ;
#850 = ADVANCED_FACE ( 'NONE', ( #458 ), #130, .F. ) ;
#851 = FACE_OUTER_BOUND ( 'NONE', #286, .T. ) ;
#852 = VECTOR ( 'NONE', #828, 1000.000000000000000 ) ;
#853 = AXIS2_PLACEMENT_3D ( 'NONE', #405, #658, #188 ) ;
#854 = AXIS2_PLACEMENT_3D ( 'NONE', #228, #98, #300 ) ;
#855 = DIRECTION ( 'NONE',  ( 0.000000000000000000, -0.000000000000000000, 1.000000000000000000 ) ) ;
#856 = VERTEX_POINT ( 'NONE', #863 ) ;
#857 = DIRECTION ( 'NONE',  ( 0.000000000000000000, 0.000000000000000000, 1.000000000000000000 ) ) ;
#858 = ORIENTED_EDGE ( 'NONE', *, *, #45, .F. ) ;
#859 = APPROVAL_ROLE ( '' ) ;
#860 = DIRECTION ( 'NONE',  ( 1.000000000000000000, 8.673617379884035472E-16, 0.000000000000000000 ) ) ;
#861 = APPROVAL ( #220, 'UNSPECIFIED' ) ;
#862 = VERTEX_POINT ( 'NONE', #619 ) ;
#863 = CARTESIAN_POINT ( 'NONE',  ( 5.999999999999998224, 3.000000000000000000, 0.000000000000000000 ) ) ;
#864 = VECTOR ( 'NONE', #718, 1000.000000000000000 ) ;
#865 = AXIS2_PLACEMENT_3D ( 'NONE', #740, #811, #676 ) ;
#866 = CIRCLE ( 'NONE', #192, 3.000000000000000000 ) ;
#867 = ORIENTED_EDGE ( 'NONE', *, *, #37, .F. ) ;
#868 = FACE_OUTER_BOUND ( 'NONE', #93, .T. ) ;
#869 = DIRECTION ( 'NONE',  ( -1.000000000000000000, 0.000000000000000000, 0.000000000000000000 ) ) ;
#870 = ADVANCED_FACE ( 'NONE', ( #681, #419 ), #350, .F. ) ;
#871 = ORIENTED_EDGE ( 'NONE', *, *, #553, .T. ) ;
#872 = EDGE_CURVE ( 'NONE', #49, #232, #696, .T. ) ;
#873 = CARTESIAN_POINT ( 'NONE',  ( 40.00000000000000000, 2.999999999999999112, 40.00000000000000000 ) ) ;
#874 = CARTESIAN_POINT ( 'NONE',  ( 40.00000000000000000, -8.673617379884035472E-16, 10.00000000000000000 ) ) ;
#875 = ORIENTED_EDGE ( 'NONE', *, *, #423, .F. ) ;
#876 = EDGE_CURVE ( 'NONE', #471, #320, #283, .T. ) ;
#877 = CARTESIAN_POINT ( 'NONE',  ( 40.00000000000000000, -9.797174393178815797E-16, 40.00000000000000000 ) ) ;
#878 = DIRECTION ( 'NONE',  ( 0.000000000000000000, 0.000000000000000000, 1.000000000000000000 ) ) ;
#879 = AXIS2_PLACEMENT_3D ( 'NONE', #375, #643, #30 ) ;
#880 = CYLINDRICAL_SURFACE ( 'NONE', #241, 10.00000000000000000 ) ;
#881 = AXIS2_PLACEMENT_3D ( 'NONE', #505, #304, #572 ) ;
#882 = CARTESIAN_POINT ( 'NONE',  ( 35.25000000000000000, 2.999999999999999112, 32.75000000000001421 ) ) ;
#883 = DIRECTION ( 'NONE',  ( -0.000000000000000000, 1.000000000000000000, -0.000000000000000000 ) ) ;
#884 = VERTEX_POINT ( 'NONE', #71 ) ;
#885 = EDGE_LOOP ( 'NONE', ( #16, #244, #858, #591 ) ) ;
#886 = APPROVAL_ROLE ( '' ) ;
#887 = FACE_OUTER_BOUND ( 'NONE', #102, .T. ) ;
ENDSEC;
END-ISO-10303-21;
