ISO-10303-21;
HEADER;
FILE_DESCRIPTION (( 'STEP AP203' ),
    '1' );
FILE_NAME ('logiBOT_02_AbdeckblechOben_V1.0.STEP',
    '2024-07-10T07:58:31',
    ( '' ),
    ( '' ),
    'SwSTEP 2.0',
    'SolidWorks 2021',
    '' );
FILE_SCHEMA (( 'CONFIG_CONTROL_DESIGN' ));
ENDSEC;

DATA;
#1 = ORIENTED_EDGE ( 'NONE', *, *, #24, .T. ) ;
#2 = AXIS2_PLACEMENT_3D ( 'NONE', #42, #45, #16 ) ;
#3 = ORIENTED_EDGE ( 'NONE', *, *, #69, .F. ) ;
#4 = SECURITY_CLASSIFICATION ( '', '', #290 ) ;
#5 = CALENDAR_DATE ( 2024, 10, 7 ) ;
#6 = ORIENTED_EDGE ( 'NONE', *, *, #337, .F. ) ;
#7 = CARTESIAN_POINT ( 'NONE',  ( 0.000000000000000000, 0.000000000000000000, 0.000000000000000000 ) ) ;
#8 = CARTESIAN_POINT ( 'NONE',  ( 0.000000000000000000, 0.000000000000000000, -2.000000000000000000 ) ) ;
#9 = CLOSED_SHELL ( 'NONE', ( #135, #40, #229, #349, #211, #296, #113, #284, #302, #11, #172 ) ) ;
#10 = AXIS2_PLACEMENT_3D ( 'NONE', #206, #177, #146 ) ;
#11 = ADVANCED_FACE ( 'NONE', ( #336, #280 ), #311, .F. ) ;
#12 = EDGE_LOOP ( 'NONE', ( #28 ) ) ;
#13 = DIRECTION ( 'NONE',  ( -0.000000000000000000, -0.000000000000000000, 1.000000000000000000 ) ) ;
#14 = FACE_BOUND ( 'NONE', #82, .T. ) ;
#15 = CC_DESIGN_PERSON_AND_ORGANIZATION_ASSIGNMENT ( #97, #122, ( #204 ) ) ;
#16 = DIRECTION ( 'NONE',  ( 1.000000000000000000, 0.000000000000000000, 0.000000000000000000 ) ) ;
#17 = DIRECTION ( 'NONE',  ( 1.000000000000000000, 0.000000000000000000, 0.000000000000000000 ) ) ;
#18 = CARTESIAN_POINT ( 'NONE',  ( 0.000000000000000000, 30.00000000000000000, -1.770000000000001128 ) ) ;
#19 = DIRECTION ( 'NONE',  ( 0.000000000000000000, 0.000000000000000000, 1.000000000000000000 ) ) ;
#20 = APPROVAL ( #56, 'UNSPECIFIED' ) ;
#21 = DIRECTION ( 'NONE',  ( -0.000000000000000000, -0.000000000000000000, 1.000000000000000000 ) ) ;
#22 =( NAMED_UNIT ( * ) SI_UNIT ( $, .STERADIAN. ) SOLID_ANGLE_UNIT ( ) );
#23 = ORIENTED_EDGE ( 'NONE', *, *, #62, .T. ) ;
#24 = EDGE_CURVE ( 'NONE', #180, #180, #116, .T. ) ;
#25 = ORIENTED_EDGE ( 'NONE', *, *, #123, .F. ) ;
#26 = CARTESIAN_POINT ( 'NONE',  ( 39.00000000000000000, 0.000000000000000000, 0.000000000000000000 ) ) ;
#27 = EDGE_LOOP ( 'NONE', ( #214 ) ) ;
#28 = ORIENTED_EDGE ( 'NONE', *, *, #275, .T. ) ;
#29 = COORDINATED_UNIVERSAL_TIME_OFFSET ( 1, 0, .AHEAD. ) ;
#30 = CARTESIAN_POINT ( 'NONE',  ( 1.699999999999999956, -30.00000000000000000, -1.999999999999999556 ) ) ;
#31 = EDGE_LOOP ( 'NONE', ( #52 ) ) ;
#32 = COORDINATED_UNIVERSAL_TIME_OFFSET ( 1, 0, .AHEAD. ) ;
#33 = DIRECTION ( 'NONE',  ( 0.000000000000000000, 0.000000000000000000, 1.000000000000000000 ) ) ;
#34 = FACE_OUTER_BOUND ( 'NONE', #121, .T. ) ;
#35 = MANIFOLD_SOLID_BREP ( 'Formsenkung für M3 Senkschraube mit Innensechskant1', #9 ) ;
#36 = DIRECTION ( 'NONE',  ( 1.000000000000000000, 0.000000000000000000, -0.000000000000000000 ) ) ;
#37 = DIRECTION ( 'NONE',  ( 1.000000000000000000, 0.000000000000000000, 0.000000000000000000 ) ) ;
#38 = ADVANCED_BREP_SHAPE_REPRESENTATION ( 'logiBOT_02_AbdeckblechOben_V1.0', ( #35, #10 ), #331 ) ;
#39 = DIRECTION ( 'NONE',  ( 1.000000000000000000, 0.000000000000000000, 0.000000000000000000 ) ) ;
#40 = ADVANCED_FACE ( 'NONE', ( #14, #276, #250, #338, #66 ), #84, .F. ) ;
#41 = FACE_BOUND ( 'NONE', #55, .T. ) ;
#42 = CARTESIAN_POINT ( 'NONE',  ( 30.00000000000000000, 0.000000000000000000, 0.000000000000000000 ) ) ;
#43 = DESIGN_CONTEXT ( 'detailed design', #147, 'design' ) ;
#44 = DIRECTION ( 'NONE',  ( -0.000000000000000000, -0.000000000000000000, 1.000000000000000000 ) ) ;
#45 = DIRECTION ( 'NONE',  ( -0.000000000000000000, -0.000000000000000000, 1.000000000000000000 ) ) ;
#46 = VERTEX_POINT ( 'NONE', #324 ) ;
#47 = VERTEX_POINT ( 'NONE', #26 ) ;
#48 = ORIENTED_EDGE ( 'NONE', *, *, #233, .F. ) ;
#49 = PERSON_AND_ORGANIZATION_ROLE ( 'classification_officer' ) ;
#50 = VERTEX_POINT ( 'NONE', #299 ) ;
#51 = APPROVAL_PERSON_ORGANIZATION ( #218, #105, #351 ) ;
#52 = ORIENTED_EDGE ( 'NONE', *, *, #233, .T. ) ;
#53 = SHAPE_DEFINITION_REPRESENTATION ( #115, #38 ) ;
#54 = VERTEX_POINT ( 'NONE', #30 ) ;
#55 = EDGE_LOOP ( 'NONE', ( #75 ) ) ;
#56 = APPROVAL_STATUS ( 'not_yet_approved' ) ;
#57 =( NAMED_UNIT ( * ) PLANE_ANGLE_UNIT ( ) SI_UNIT ( $, .RADIAN. ) );
#58 = DATE_AND_TIME ( #5, #196 ) ;
#59 = AXIS2_PLACEMENT_3D ( 'NONE', #335, #106, #198 ) ;
#60 = EDGE_LOOP ( 'NONE', ( #104 ) ) ;
#61 = DIRECTION ( 'NONE',  ( -0.000000000000000000, -0.000000000000000000, 1.000000000000000000 ) ) ;
#62 = EDGE_CURVE ( 'NONE', #320, #320, #164, .T. ) ;
#63 = FACE_OUTER_BOUND ( 'NONE', #350, .T. ) ;
#64 = EDGE_LOOP ( 'NONE', ( #127 ) ) ;
#65 = AXIS2_PLACEMENT_3D ( 'NONE', #7, #170, #39 ) ;
#66 = FACE_OUTER_BOUND ( 'NONE', #325, .T. ) ;
#67 = FACE_BOUND ( 'NONE', #167, .T. ) ;
#68 = UNCERTAINTY_MEASURE_WITH_UNIT (LENGTH_MEASURE( 1.000000000000000082E-05 ), #150, 'distance_accuracy_value', 'NONE');
#69 = EDGE_CURVE ( 'NONE', #47, #47, #100, .T. ) ;
#70 = DIRECTION ( 'NONE',  ( 1.000000000000000000, 0.000000000000000000, 0.000000000000000000 ) ) ;
#71 = DIRECTION ( 'NONE',  ( 1.000000000000000000, 0.000000000000000000, 0.000000000000000000 ) ) ;
#72 = AXIS2_PLACEMENT_3D ( 'NONE', #219, #253, #110 ) ;
#73 = APPROVAL_PERSON_ORGANIZATION ( #321, #20, #265 ) ;
#74 = PERSON_AND_ORGANIZATION ( #152, #133 ) ;
#75 = ORIENTED_EDGE ( 'NONE', *, *, #24, .F. ) ;
#76 = APPLICATION_PROTOCOL_DEFINITION ( 'international standard', 'config_control_design', 1994, #147 ) ;
#77 = EDGE_LOOP ( 'NONE', ( #6 ) ) ;
#78 = DIRECTION ( 'NONE',  ( -0.000000000000000000, -0.000000000000000000, 1.000000000000000000 ) ) ;
#79 = ORIENTED_EDGE ( 'NONE', *, *, #220, .F. ) ;
#80 = CALENDAR_DATE ( 2024, 10, 7 ) ;
#81 = CIRCLE ( 'NONE', #59, 3.470000000000000639 ) ;
#82 = EDGE_LOOP ( 'NONE', ( #333 ) ) ;
#83 = ORIENTED_EDGE ( 'NONE', *, *, #268, .T. ) ;
#84 = PLANE ( 'NONE',  #286 ) ;
#85 = CARTESIAN_POINT ( 'NONE',  ( -30.00000000000000000, 0.000000000000000000, 0.000000000000000000 ) ) ;
#86 = CONICAL_SURFACE ( 'NONE', #288, 3.470000000000000639, 0.7853981633974481680 ) ;
#87 = FACE_BOUND ( 'NONE', #96, .T. ) ;
#88 = CARTESIAN_POINT ( 'NONE',  ( 0.000000000000000000, -30.00000000000000000, 0.000000000000000000 ) ) ;
#89 = DIRECTION ( 'NONE',  ( -0.000000000000000000, -0.000000000000000000, 1.000000000000000000 ) ) ;
#90 = DIRECTION ( 'NONE',  ( 1.000000000000000000, 0.000000000000000000, 0.000000000000000000 ) ) ;
#91 = DIRECTION ( 'NONE',  ( 0.000000000000000000, 0.000000000000000000, 1.000000000000000000 ) ) ;
#92 = APPROVAL_DATE_TIME ( #209, #105 ) ;
#93 = AXIS2_PLACEMENT_3D ( 'NONE', #112, #341, #70 ) ;
#94 = CIRCLE ( 'NONE', #236, 1.699999999999999956 ) ;
#95 = DATE_AND_TIME ( #185, #251 ) ;
#96 = EDGE_LOOP ( 'NONE', ( #48 ) ) ;
#97 = PERSON_AND_ORGANIZATION ( #152, #133 ) ;
#98 = CARTESIAN_POINT ( 'NONE',  ( 3.470000000000000639, 30.00000000000000000, 0.000000000000000000 ) ) ;
#99 = CC_DESIGN_PERSON_AND_ORGANIZATION_ASSIGNMENT ( #74, #49, ( #4 ) ) ;
#100 = CIRCLE ( 'NONE', #65, 39.00000000000000000 ) ;
#101 = LOCAL_TIME ( 9, 58, 31.00000000000000000, #183 ) ;
#102 = CARTESIAN_POINT ( 'NONE',  ( 31.69999999999999929, 0.000000000000000000, -1.999999999999999556 ) ) ;
#103 = PERSON_AND_ORGANIZATION ( #152, #133 ) ;
#104 = ORIENTED_EDGE ( 'NONE', *, *, #326, .F. ) ;
#105 = APPROVAL ( #232, 'UNSPECIFIED' ) ;
#106 = DIRECTION ( 'NONE',  ( -0.000000000000000000, -0.000000000000000000, 1.000000000000000000 ) ) ;
#107 = DIRECTION ( 'NONE',  ( 0.000000000000000000, 0.000000000000000000, 1.000000000000000000 ) ) ;
#108 = CC_DESIGN_APPROVAL ( #105, ( #204 ) ) ;
#109 = EDGE_LOOP ( 'NONE', ( #269 ) ) ;
#110 = DIRECTION ( 'NONE',  ( 1.000000000000000000, 0.000000000000000000, 0.000000000000000000 ) ) ;
#111 = EDGE_LOOP ( 'NONE', ( #151 ) ) ;
#112 = CARTESIAN_POINT ( 'NONE',  ( -30.00000000000000000, 0.000000000000000000, -1.770000000000001128 ) ) ;
#113 = ADVANCED_FACE ( 'NONE', ( #254, #277 ), #315, .F. ) ;
#114 = CARTESIAN_POINT ( 'NONE',  ( 0.000000000000000000, 30.00000000000000000, -1.999999999999999556 ) ) ;
#115 = PRODUCT_DEFINITION_SHAPE ( 'NONE', 'NONE',  #204 ) ;
#116 = CIRCLE ( 'NONE', #264, 1.700000000000000178 ) ;
#117 = PLANE ( 'NONE',  #195 ) ;
#118 = CARTESIAN_POINT ( 'NONE',  ( 1.699999999999999956, 30.00000000000000000, -1.770000000000001128 ) ) ;
#119 = ORIENTED_EDGE ( 'NONE', *, *, #310, .F. ) ;
#120 = CARTESIAN_POINT ( 'NONE',  ( -26.52999999999999758, 0.000000000000000000, 0.000000000000000000 ) ) ;
#121 = EDGE_LOOP ( 'NONE', ( #3 ) ) ;
#122 = PERSON_AND_ORGANIZATION_ROLE ( 'creator' ) ;
#123 = EDGE_CURVE ( 'NONE', #54, #54, #329, .T. ) ;
#124 = VERTEX_POINT ( 'NONE', #98 ) ;
#125 = PERSON_AND_ORGANIZATION_ROLE ( 'design_owner' ) ;
#126 = VERTEX_POINT ( 'NONE', #102 ) ;
#127 = ORIENTED_EDGE ( 'NONE', *, *, #181, .F. ) ;
#128 = COORDINATED_UNIVERSAL_TIME_OFFSET ( 1, 0, .AHEAD. ) ;
#129 = CIRCLE ( 'NONE', #93, 1.700000000000000178 ) ;
#130 = EDGE_LOOP ( 'NONE', ( #1 ) ) ;
#131 = DIRECTION ( 'NONE',  ( 1.000000000000000000, 0.000000000000000000, 0.000000000000000000 ) ) ;
#132 = CYLINDRICAL_SURFACE ( 'NONE', #201, 39.00000000000000000 ) ;
#133 = ORGANIZATION ( 'UNSPECIFIED', 'UNSPECIFIED', '' ) ;
#134 = FACE_OUTER_BOUND ( 'NONE', #12, .T. ) ;
#135 = ADVANCED_FACE ( 'NONE', ( #134, #34 ), #132, .T. ) ;
#136 = DIRECTION ( 'NONE',  ( -0.000000000000000000, -0.000000000000000000, 1.000000000000000000 ) ) ;
#137 = CARTESIAN_POINT ( 'NONE',  ( 0.000000000000000000, 0.000000000000000000, -2.000000000000000000 ) ) ;
#138 = CARTESIAN_POINT ( 'NONE',  ( 30.00000000000000000, 0.000000000000000000, 0.000000000000000000 ) ) ;
#139 = CIRCLE ( 'NONE', #282, 39.00000000000000000 ) ;
#140 = CC_DESIGN_APPROVAL ( #314, ( #4 ) ) ;
#141 = DIRECTION ( 'NONE',  ( 1.000000000000000000, 0.000000000000000000, 0.000000000000000000 ) ) ;
#142 = CYLINDRICAL_SURFACE ( 'NONE', #293, 1.700000000000000178 ) ;
#143 = APPLICATION_PROTOCOL_DEFINITION ( 'international standard', 'config_control_design', 1994, #239 ) ;
#144 = AXIS2_PLACEMENT_3D ( 'NONE', #114, #89, #317 ) ;
#145 = CARTESIAN_POINT ( 'NONE',  ( 30.00000000000000000, 0.000000000000000000, 0.000000000000000000 ) ) ;
#146 = DIRECTION ( 'NONE',  ( 1.000000000000000000, 0.000000000000000000, 0.000000000000000000 ) ) ;
#147 = APPLICATION_CONTEXT ( 'configuration controlled 3d designs of mechanical parts and assemblies' ) ;
#148 = VERTEX_POINT ( 'NONE', #118 ) ;
#149 = DATE_AND_TIME ( #301, #274 ) ;
#150 =( LENGTH_UNIT ( ) NAMED_UNIT ( * ) SI_UNIT ( .MILLI., .METRE. ) );
#151 = ORIENTED_EDGE ( 'NONE', *, *, #337, .T. ) ;
#152 = PERSON ( 'UNSPECIFIED', 'UNSPECIFIED', 'UNSPECIFIED', ('UNSPECIFIED'), ('UNSPECIFIED'), ('UNSPECIFIED') ) ;
#153 = DATE_AND_TIME ( #80, #316 ) ;
#154 = CC_DESIGN_PERSON_AND_ORGANIZATION_ASSIGNMENT ( #188, #125, ( #342 ) ) ;
#155 = AXIS2_PLACEMENT_3D ( 'NONE', #166, #191, #307 ) ;
#156 = CIRCLE ( 'NONE', #339, 1.700000000000000178 ) ;
#157 = CARTESIAN_POINT ( 'NONE',  ( -28.29999999999999716, 0.000000000000000000, -1.999999999999999556 ) ) ;
#158 = ORIENTED_EDGE ( 'NONE', *, *, #220, .T. ) ;
#159 = VERTEX_POINT ( 'NONE', #161 ) ;
#160 = APPROVAL_DATE_TIME ( #149, #20 ) ;
#161 = CARTESIAN_POINT ( 'NONE',  ( 1.699999999999999956, 30.00000000000000000, -1.999999999999999556 ) ) ;
#162 = EDGE_LOOP ( 'NONE', ( #240 ) ) ;
#163 = APPROVAL_ROLE ( '' ) ;
#164 = CIRCLE ( 'NONE', #292, 3.470000000000000639 ) ;
#165 = ORIENTED_EDGE ( 'NONE', *, *, #243, .T. ) ;
#166 = CARTESIAN_POINT ( 'NONE',  ( 0.000000000000000000, -30.00000000000000000, 0.000000000000000000 ) ) ;
#167 = EDGE_LOOP ( 'NONE', ( #79 ) ) ;
#168 = CC_DESIGN_DATE_AND_TIME_ASSIGNMENT ( #153, #348, ( #204 ) ) ;
#169 = FACE_OUTER_BOUND ( 'NONE', #234, .T. ) ;
#170 = DIRECTION ( 'NONE',  ( 0.000000000000000000, 0.000000000000000000, 1.000000000000000000 ) ) ;
#171 = FACE_OUTER_BOUND ( 'NONE', #267, .T. ) ;
#172 = ADVANCED_FACE ( 'NONE', ( #87, #63 ), #208, .F. ) ;
#173 = FACE_OUTER_BOUND ( 'NONE', #130, .T. ) ;
#174 = DIRECTION ( 'NONE',  ( -0.000000000000000000, -0.000000000000000000, 1.000000000000000000 ) ) ;
#175 = CYLINDRICAL_SURFACE ( 'NONE', #210, 1.699999999999999956 ) ;
#176 = AXIS2_PLACEMENT_3D ( 'NONE', #306, #340, #194 ) ;
#177 = DIRECTION ( 'NONE',  ( 0.000000000000000000, 0.000000000000000000, 1.000000000000000000 ) ) ;
#178 = CARTESIAN_POINT ( 'NONE',  ( 39.00000000000000000, 0.000000000000000000, -2.000000000000000000 ) ) ;
#179 = COORDINATED_UNIVERSAL_TIME_OFFSET ( 1, 0, .AHEAD. ) ;
#180 = VERTEX_POINT ( 'NONE', #263 ) ;
#181 = EDGE_CURVE ( 'NONE', #124, #124, #81, .T. ) ;
#182 = ORIENTED_EDGE ( 'NONE', *, *, #268, .F. ) ;
#183 = COORDINATED_UNIVERSAL_TIME_OFFSET ( 1, 0, .AHEAD. ) ;
#184 = EDGE_LOOP ( 'NONE', ( #165 ) ) ;
#185 = CALENDAR_DATE ( 2024, 10, 7 ) ;
#186 = CARTESIAN_POINT ( 'NONE',  ( -28.29999999999999716, 0.000000000000000000, -1.770000000000001128 ) ) ;
#187 = ORIENTED_EDGE ( 'NONE', *, *, #123, .T. ) ;
#188 = PERSON_AND_ORGANIZATION ( #152, #133 ) ;
#189 = EDGE_LOOP ( 'NONE', ( #119 ) ) ;
#190 = AXIS2_PLACEMENT_3D ( 'NONE', #279, #136, #131 ) ;
#191 = DIRECTION ( 'NONE',  ( -0.000000000000000000, -0.000000000000000000, 1.000000000000000000 ) ) ;
#192 = DIRECTION ( 'NONE',  ( -0.000000000000000000, -0.000000000000000000, 1.000000000000000000 ) ) ;
#193 = CC_DESIGN_PERSON_AND_ORGANIZATION_ASSIGNMENT ( #244, #323, ( #255 ) ) ;
#194 = DIRECTION ( 'NONE',  ( 1.000000000000000000, 0.000000000000000000, 0.000000000000000000 ) ) ;
#195 = AXIS2_PLACEMENT_3D ( 'NONE', #347, #19, #287 ) ;
#196 = LOCAL_TIME ( 9, 58, 31.00000000000000000, #179 ) ;
#197 = DIRECTION ( 'NONE',  ( 1.000000000000000000, 0.000000000000000000, 0.000000000000000000 ) ) ;
#198 = DIRECTION ( 'NONE',  ( 1.000000000000000000, 0.000000000000000000, 0.000000000000000000 ) ) ;
#199 = CARTESIAN_POINT ( 'NONE',  ( 0.000000000000000000, -30.00000000000000000, -1.770000000000001128 ) ) ;
#200 = DIRECTION ( 'NONE',  ( 1.000000000000000000, 0.000000000000000000, 0.000000000000000000 ) ) ;
#201 = AXIS2_PLACEMENT_3D ( 'NONE', #8, #107, #312 ) ;
#202 = CIRCLE ( 'NONE', #144, 1.699999999999999956 ) ;
#203 = FACE_OUTER_BOUND ( 'NONE', #27, .T. ) ;
#204 = PRODUCT_DEFINITION ( 'UNKNOWN', '', #255, #43 ) ;
#205 = FACE_OUTER_BOUND ( 'NONE', #289, .T. ) ;
#206 = CARTESIAN_POINT ( 'NONE',  ( 0.000000000000000000, 0.000000000000000000, 0.000000000000000000 ) ) ;
#207 = FACE_BOUND ( 'NONE', #242, .T. ) ;
#208 = CONICAL_SURFACE ( 'NONE', #217, 3.470000000000000639, 0.7853981633974481680 ) ;
#209 = DATE_AND_TIME ( #332, #101 ) ;
#210 = AXIS2_PLACEMENT_3D ( 'NONE', #88, #21, #231 ) ;
#211 = ADVANCED_FACE ( 'NONE', ( #252, #169 ), #344, .F. ) ;
#212 = EDGE_CURVE ( 'NONE', #237, #237, #224, .T. ) ;
#213 = ORIENTED_EDGE ( 'NONE', *, *, #69, .T. ) ;
#214 = ORIENTED_EDGE ( 'NONE', *, *, #212, .F. ) ;
#215 = DATE_TIME_ROLE ( 'classification_date' ) ;
#216 = EDGE_LOOP ( 'NONE', ( #187 ) ) ;
#217 = AXIS2_PLACEMENT_3D ( 'NONE', #221, #13, #308 ) ;
#218 = PERSON_AND_ORGANIZATION ( #152, #133 ) ;
#219 = CARTESIAN_POINT ( 'NONE',  ( -30.00000000000000000, 0.000000000000000000, -1.999999999999999556 ) ) ;
#220 = EDGE_CURVE ( 'NONE', #46, #46, #309, .T. ) ;
#221 = CARTESIAN_POINT ( 'NONE',  ( 0.000000000000000000, 30.00000000000000000, 0.000000000000000000 ) ) ;
#222 = ORIENTED_EDGE ( 'NONE', *, *, #275, .F. ) ;
#223 = EDGE_LOOP ( 'NONE', ( #213 ) ) ;
#224 = CIRCLE ( 'NONE', #72, 1.700000000000000178 ) ;
#225 = DIRECTION ( 'NONE',  ( -0.000000000000000000, -0.000000000000000000, 1.000000000000000000 ) ) ;
#226 = CARTESIAN_POINT ( 'NONE',  ( 0.000000000000000000, -30.00000000000000000, 0.000000000000000000 ) ) ;
#227 = DIRECTION ( 'NONE',  ( 1.000000000000000000, 0.000000000000000000, 0.000000000000000000 ) ) ;
#228 = DIRECTION ( 'NONE',  ( -0.000000000000000000, -0.000000000000000000, 1.000000000000000000 ) ) ;
#229 = ADVANCED_FACE ( 'NONE', ( #258, #67, #207, #318, #319 ), #117, .T. ) ;
#230 = CARTESIAN_POINT ( 'NONE',  ( 0.000000000000000000, 0.000000000000000000, -2.000000000000000000 ) ) ;
#231 = DIRECTION ( 'NONE',  ( 1.000000000000000000, 0.000000000000000000, 0.000000000000000000 ) ) ;
#232 = APPROVAL_STATUS ( 'not_yet_approved' ) ;
#233 = EDGE_CURVE ( 'NONE', #148, #148, #245, .T. ) ;
#234 = EDGE_LOOP ( 'NONE', ( #23 ) ) ;
#235 = AXIS2_PLACEMENT_3D ( 'NONE', #18, #343, #141 ) ;
#236 = AXIS2_PLACEMENT_3D ( 'NONE', #199, #283, #256 ) ;
#237 = VERTEX_POINT ( 'NONE', #157 ) ;
#238 = PERSON_AND_ORGANIZATION ( #152, #133 ) ;
#239 = APPLICATION_CONTEXT ( 'configuration controlled 3d designs of mechanical parts and assemblies' ) ;
#240 = ORIENTED_EDGE ( 'NONE', *, *, #62, .F. ) ;
#241 = DIRECTION ( 'NONE',  ( 1.000000000000000000, 0.000000000000000000, 0.000000000000000000 ) ) ;
#242 = EDGE_LOOP ( 'NONE', ( #182 ) ) ;
#243 = EDGE_CURVE ( 'NONE', #271, #271, #129, .T. ) ;
#244 = PERSON_AND_ORGANIZATION ( #152, #133 ) ;
#245 = CIRCLE ( 'NONE', #235, 1.699999999999999956 ) ;
#246 = CARTESIAN_POINT ( 'NONE',  ( 1.699999999999999956, -30.00000000000000000, -1.770000000000001128 ) ) ;
#247 = ORIENTED_EDGE ( 'NONE', *, *, #243, .F. ) ;
#248 = CARTESIAN_POINT ( 'NONE',  ( 0.000000000000000000, 30.00000000000000000, 0.000000000000000000 ) ) ;
#249 = CC_DESIGN_PERSON_AND_ORGANIZATION_ASSIGNMENT ( #238, #272, ( #255 ) ) ;
#250 = FACE_BOUND ( 'NONE', #216, .T. ) ;
#251 = LOCAL_TIME ( 9, 58, 31.00000000000000000, #32 ) ;
#252 = FACE_BOUND ( 'NONE', #298, .T. ) ;
#253 = DIRECTION ( 'NONE',  ( -0.000000000000000000, -0.000000000000000000, 1.000000000000000000 ) ) ;
#254 = FACE_BOUND ( 'NONE', #189, .T. ) ;
#255 = PRODUCT_DEFINITION_FORMATION_WITH_SPECIFIED_SOURCE ( 'ANY', '', #342, .NOT_KNOWN. ) ;
#256 = DIRECTION ( 'NONE',  ( 1.000000000000000000, 0.000000000000000000, 0.000000000000000000 ) ) ;
#257 = CC_DESIGN_DATE_AND_TIME_ASSIGNMENT ( #58, #215, ( #4 ) ) ;
#258 = FACE_BOUND ( 'NONE', #64, .T. ) ;
#259 = AXIS2_PLACEMENT_3D ( 'NONE', #248, #61, #37 ) ;
#260 = AXIS2_PLACEMENT_3D ( 'NONE', #291, #78, #241 ) ;
#261 = FACE_OUTER_BOUND ( 'NONE', #322, .T. ) ;
#262 = VERTEX_POINT ( 'NONE', #178 ) ;
#263 = CARTESIAN_POINT ( 'NONE',  ( 31.69999999999999929, 0.000000000000000000, -1.770000000000001128 ) ) ;
#264 = AXIS2_PLACEMENT_3D ( 'NONE', #278, #225, #334 ) ;
#265 = APPROVAL_ROLE ( '' ) ;
#266 = FACE_OUTER_BOUND ( 'NONE', #184, .T. ) ;
#267 = EDGE_LOOP ( 'NONE', ( #158 ) ) ;
#268 = EDGE_CURVE ( 'NONE', #50, #50, #273, .T. ) ;
#269 = ORIENTED_EDGE ( 'NONE', *, *, #212, .T. ) ;
#270 = MECHANICAL_CONTEXT ( 'NONE', #239, 'mechanical' ) ;
#271 = VERTEX_POINT ( 'NONE', #186 ) ;
#272 = PERSON_AND_ORGANIZATION_ROLE ( 'design_supplier' ) ;
#273 = CIRCLE ( 'NONE', #304, 3.470000000000000639 ) ;
#274 = LOCAL_TIME ( 9, 58, 31.00000000000000000, #128 ) ;
#275 = EDGE_CURVE ( 'NONE', #262, #262, #139, .T. ) ;
#276 = FACE_BOUND ( 'NONE', #111, .T. ) ;
#277 = FACE_OUTER_BOUND ( 'NONE', #330, .T. ) ;
#278 = CARTESIAN_POINT ( 'NONE',  ( 30.00000000000000000, 0.000000000000000000, -1.770000000000001128 ) ) ;
#279 = CARTESIAN_POINT ( 'NONE',  ( -30.00000000000000000, 0.000000000000000000, 0.000000000000000000 ) ) ;
#280 = FACE_OUTER_BOUND ( 'NONE', #31, .T. ) ;
#281 = FACE_OUTER_BOUND ( 'NONE', #77, .T. ) ;
#282 = AXIS2_PLACEMENT_3D ( 'NONE', #230, #91, #17 ) ;
#283 = DIRECTION ( 'NONE',  ( -0.000000000000000000, -0.000000000000000000, 1.000000000000000000 ) ) ;
#284 = ADVANCED_FACE ( 'NONE', ( #281, #173 ), #142, .F. ) ;
#285 = CARTESIAN_POINT ( 'NONE',  ( 30.00000000000000000, 0.000000000000000000, -1.999999999999999556 ) ) ;
#286 = AXIS2_PLACEMENT_3D ( 'NONE', #137, #33, #36 ) ;
#287 = DIRECTION ( 'NONE',  ( 1.000000000000000000, 0.000000000000000000, -0.000000000000000000 ) ) ;
#288 = AXIS2_PLACEMENT_3D ( 'NONE', #138, #174, #227 ) ;
#289 = EDGE_LOOP ( 'NONE', ( #300 ) ) ;
#290 = SECURITY_CLASSIFICATION_LEVEL ( 'unclassified' ) ;
#291 = CARTESIAN_POINT ( 'NONE',  ( -30.00000000000000000, 0.000000000000000000, 0.000000000000000000 ) ) ;
#292 = AXIS2_PLACEMENT_3D ( 'NONE', #85, #192, #197 ) ;
#293 = AXIS2_PLACEMENT_3D ( 'NONE', #145, #228, #200 ) ;
#294 = APPROVAL_DATE_TIME ( #95, #314 ) ;
#295 = CC_DESIGN_SECURITY_CLASSIFICATION ( #4, ( #255 ) ) ;
#296 = ADVANCED_FACE ( 'NONE', ( #261, #205 ), #175, .F. ) ;
#297 = VERTEX_POINT ( 'NONE', #246 ) ;
#298 = EDGE_LOOP ( 'NONE', ( #247 ) ) ;
#299 = CARTESIAN_POINT ( 'NONE',  ( 3.470000000000000639, -30.00000000000000000, 0.000000000000000000 ) ) ;
#300 = ORIENTED_EDGE ( 'NONE', *, *, #310, .T. ) ;
#301 = CALENDAR_DATE ( 2024, 10, 7 ) ;
#302 = ADVANCED_FACE ( 'NONE', ( #41, #171 ), #86, .F. ) ;
#303 = ORIENTED_EDGE ( 'NONE', *, *, #181, .T. ) ;
#304 = AXIS2_PLACEMENT_3D ( 'NONE', #226, #44, #71 ) ;
#305 = CC_DESIGN_APPROVAL ( #20, ( #255 ) ) ;
#306 = CARTESIAN_POINT ( 'NONE',  ( 0.000000000000000000, -30.00000000000000000, -1.999999999999999556 ) ) ;
#307 = DIRECTION ( 'NONE',  ( 1.000000000000000000, 0.000000000000000000, 0.000000000000000000 ) ) ;
#308 = DIRECTION ( 'NONE',  ( 1.000000000000000000, 0.000000000000000000, 0.000000000000000000 ) ) ;
#309 = CIRCLE ( 'NONE', #2, 3.470000000000000639 ) ;
#310 = EDGE_CURVE ( 'NONE', #297, #297, #94, .T. ) ;
#311 = CYLINDRICAL_SURFACE ( 'NONE', #259, 1.699999999999999956 ) ;
#312 = DIRECTION ( 'NONE',  ( 1.000000000000000000, 0.000000000000000000, 0.000000000000000000 ) ) ;
#313 = PRODUCT_RELATED_PRODUCT_CATEGORY ( 'detail', '', ( #342 ) ) ;
#314 = APPROVAL ( #327, 'UNSPECIFIED' ) ;
#315 = CONICAL_SURFACE ( 'NONE', #155, 3.470000000000000639, 0.7853981633974481680 ) ;
#316 = LOCAL_TIME ( 9, 58, 31.00000000000000000, #29 ) ;
#317 = DIRECTION ( 'NONE',  ( 1.000000000000000000, 0.000000000000000000, 0.000000000000000000 ) ) ;
#318 = FACE_BOUND ( 'NONE', #162, .T. ) ;
#319 = FACE_OUTER_BOUND ( 'NONE', #223, .T. ) ;
#320 = VERTEX_POINT ( 'NONE', #120 ) ;
#321 = PERSON_AND_ORGANIZATION ( #152, #133 ) ;
#322 = EDGE_LOOP ( 'NONE', ( #25 ) ) ;
#323 = PERSON_AND_ORGANIZATION_ROLE ( 'creator' ) ;
#324 = CARTESIAN_POINT ( 'NONE',  ( 33.46999999999999886, 0.000000000000000000, 0.000000000000000000 ) ) ;
#325 = EDGE_LOOP ( 'NONE', ( #222 ) ) ;
#326 = EDGE_CURVE ( 'NONE', #159, #159, #202, .T. ) ;
#327 = APPROVAL_STATUS ( 'not_yet_approved' ) ;
#328 = CYLINDRICAL_SURFACE ( 'NONE', #260, 1.700000000000000178 ) ;
#329 = CIRCLE ( 'NONE', #176, 1.699999999999999956 ) ;
#330 = EDGE_LOOP ( 'NONE', ( #83 ) ) ;
#331 =( GEOMETRIC_REPRESENTATION_CONTEXT ( 3 ) GLOBAL_UNCERTAINTY_ASSIGNED_CONTEXT ( ( #68 ) ) GLOBAL_UNIT_ASSIGNED_CONTEXT ( ( #150, #57, #22 ) ) REPRESENTATION_CONTEXT ( 'NONE', 'WORKASPACE' ) );
#332 = CALENDAR_DATE ( 2024, 10, 7 ) ;
#333 = ORIENTED_EDGE ( 'NONE', *, *, #326, .T. ) ;
#334 = DIRECTION ( 'NONE',  ( 1.000000000000000000, 0.000000000000000000, 0.000000000000000000 ) ) ;
#335 = CARTESIAN_POINT ( 'NONE',  ( 0.000000000000000000, 30.00000000000000000, 0.000000000000000000 ) ) ;
#336 = FACE_OUTER_BOUND ( 'NONE', #60, .T. ) ;
#337 = EDGE_CURVE ( 'NONE', #126, #126, #156, .T. ) ;
#338 = FACE_BOUND ( 'NONE', #109, .T. ) ;
#339 = AXIS2_PLACEMENT_3D ( 'NONE', #285, #346, #90 ) ;
#340 = DIRECTION ( 'NONE',  ( -0.000000000000000000, -0.000000000000000000, 1.000000000000000000 ) ) ;
#341 = DIRECTION ( 'NONE',  ( -0.000000000000000000, -0.000000000000000000, 1.000000000000000000 ) ) ;
#342 = PRODUCT ( 'logiBOT_02_AbdeckblechOben_V1.0', 'logiBOT_02_AbdeckblechOben_V1.0', '', ( #270 ) ) ;
#343 = DIRECTION ( 'NONE',  ( -0.000000000000000000, -0.000000000000000000, 1.000000000000000000 ) ) ;
#344 = CONICAL_SURFACE ( 'NONE', #190, 3.470000000000000639, 0.7853981633974481680 ) ;
#345 = APPROVAL_PERSON_ORGANIZATION ( #103, #314, #163 ) ;
#346 = DIRECTION ( 'NONE',  ( -0.000000000000000000, -0.000000000000000000, 1.000000000000000000 ) ) ;
#347 = CARTESIAN_POINT ( 'NONE',  ( 0.000000000000000000, 0.000000000000000000, 0.000000000000000000 ) ) ;
#348 = DATE_TIME_ROLE ( 'creation_date' ) ;
#349 = ADVANCED_FACE ( 'NONE', ( #203, #266 ), #328, .F. ) ;
#350 = EDGE_LOOP ( 'NONE', ( #303 ) ) ;
#351 = APPROVAL_ROLE ( '' ) ;
ENDSEC;
END-ISO-10303-21;
