ISO-10303-21;
HEADER;
FILE_DESCRIPTION (( 'STEP AP214' ),
    '1' );
FILE_NAME ('21631_03_089_gripper bracket_1 2K.STEP',
    '2021-07-29T06:24:55',
    ( '' ),
    ( '' ),
    'SwSTEP 2.0',
    'SolidWorks 2018',
    '' );
FILE_SCHEMA (( 'AUTOMOTIVE_DESIGN' ));
ENDSEC;

DATA;
#1 = DIRECTION ( 'NONE',  ( -0.000000000000000000, -1.000000000000000000, 0.000000000000000000 ) ) ;
#2 = CARTESIAN_POINT ( 'NONE',  ( -34.63188015908392714, 10.00000000000000000, 21.49999999999999645 ) ) ;
#3 = DIRECTION ( 'NONE',  ( -1.000000000000000000, -0.000000000000000000, -0.000000000000000000 ) ) ;
#4 = ORIENTED_EDGE ( 'NONE', *, *, #477, .T. ) ;
#5 = SURFACE_SIDE_STYLE ('',( #164 ) ) ;
#6 = ORIENTED_EDGE ( 'NONE', *, *, #832, .T. ) ;
#7 = AXIS2_PLACEMENT_3D ( 'NONE', #714, #427, #785 ) ;
#8 = EDGE_LOOP ( 'NONE', ( #784, #565, #115, #159 ) ) ;
#9 = DIRECTION ( 'NONE',  ( 0.000000000000000000, 0.000000000000000000, 1.000000000000000000 ) ) ;
#10 = ADVANCED_FACE ( 'NONE', ( #840 ), #679, .T. ) ;
#11 = FACE_BOUND ( 'NONE', #897, .T. ) ;
#12 = LINE ( 'NONE', #572, #349 ) ;
#13 = VECTOR ( 'NONE', #490, 1000.000000000000000 ) ;
#14 = DIRECTION ( 'NONE',  ( 1.000000000000000000, 0.000000000000000000, 0.000000000000000000 ) ) ;
#15 = EDGE_CURVE ( 'NONE', #284, #887, #864, .T. ) ;
#16 =( NAMED_UNIT ( * ) PLANE_ANGLE_UNIT ( ) SI_UNIT ( $, .RADIAN. ) );
#17 = DIRECTION ( 'NONE',  ( -1.000000000000000000, -0.000000000000000000, -0.000000000000000000 ) ) ;
#18 = PRESENTATION_LAYER_ASSIGNMENT (  '', '', ( #395 ) ) ;
#19 = ORIENTED_EDGE ( 'NONE', *, *, #313, .F. ) ;
#20 = EDGE_LOOP ( 'NONE', ( #777, #810, #315, #503, #241, #355, #198, #63 ) ) ;
#21 = CARTESIAN_POINT ( 'NONE',  ( -31.63188015908393425, 1.000000000000000222, -4.000000000000010658 ) ) ;
#22 = EDGE_CURVE ( 'NONE', #451, #629, #496, .T. ) ;
#23 = CARTESIAN_POINT ( 'NONE',  ( -34.63188015908392714, 1.000000000000000222, 17.99999999999999289 ) ) ;
#24 = LINE ( 'NONE', #199, #648 ) ;
#25 = ADVANCED_FACE ( 'NONE', ( #712 ), #290, .F. ) ;
#26 = DIRECTION ( 'NONE',  ( 0.000000000000000000, 0.000000000000000000, 1.000000000000000000 ) ) ;
#27 = DIRECTION ( 'NONE',  ( 0.000000000000000000, 0.000000000000000000, 1.000000000000000000 ) ) ;
#28 = ORIENTED_EDGE ( 'NONE', *, *, #383, .F. ) ;
#29 = ORIENTED_EDGE ( 'NONE', *, *, #220, .T. ) ;
#30 = SURFACE_STYLE_FILL_AREA ( #289 ) ;
#31 = EDGE_CURVE ( 'NONE', #709, #158, #311, .T. ) ;
#32 = LINE ( 'NONE', #692, #870 ) ;
#33 = LINE ( 'NONE', #128, #634 ) ;
#34 = DIRECTION ( 'NONE',  ( 0.000000000000000000, 0.000000000000000000, 1.000000000000000000 ) ) ;
#35 = STYLED_ITEM ( 'NONE', ( #197 ), #316 ) ;
#36 = UNCERTAINTY_MEASURE_WITH_UNIT (LENGTH_MEASURE( 1.000000000000000082E-05 ), #499, 'distance_accuracy_value', 'NONE');
#37 = DIRECTION ( 'NONE',  ( 0.000000000000000000, 0.000000000000000000, 1.000000000000000000 ) ) ;
#38 = ORIENTED_EDGE ( 'NONE', *, *, #702, .F. ) ;
#39 = ORIENTED_EDGE ( 'NONE', *, *, #400, .T. ) ;
#40 = EDGE_LOOP ( 'NONE', ( #294, #577, #98, #4 ) ) ;
#41 = CARTESIAN_POINT ( 'NONE',  ( -29.63188015908391293, 5.000000000000000000, 54.00000000000000711 ) ) ;
#42 = LINE ( 'NONE', #722, #862 ) ;
#43 =( GEOMETRIC_REPRESENTATION_CONTEXT ( 3 ) GLOBAL_UNCERTAINTY_ASSIGNED_CONTEXT ( ( #847 ) ) GLOBAL_UNIT_ASSIGNED_CONTEXT ( ( #422, #130, #73 ) ) REPRESENTATION_CONTEXT ( 'NONE', 'WORKASPACE' ) );
#44 = VERTEX_POINT ( 'NONE', #393 ) ;
#45 =( NAMED_UNIT ( * ) SI_UNIT ( $, .STERADIAN. ) SOLID_ANGLE_UNIT ( ) );
#46 = CARTESIAN_POINT ( 'NONE',  ( -31.63188015908393425, 2.449293598294712824E-16, -4.000000000000010658 ) ) ;
#47 = COLOUR_RGB ( '',0.6470588235294117974, 0.6196078431372549211, 0.5882352941176470784 ) ;
#48 = ORIENTED_EDGE ( 'NONE', *, *, #801, .F. ) ;
#49 = ORIENTED_EDGE ( 'NONE', *, *, #99, .T. ) ;
#50 = CARTESIAN_POINT ( 'NONE',  ( -29.63188015908391648, 5.000000000000000000, 40.50000000000000711 ) ) ;
#51 = CARTESIAN_POINT ( 'NONE',  ( -29.63188015908391293, 5.000000000000000000, 61.25000000000000000 ) ) ;
#52 = FACE_BOUND ( 'NONE', #575, .T. ) ;
#53 = DIRECTION ( 'NONE',  ( -1.000000000000000000, 0.000000000000000000, 0.000000000000000000 ) ) ;
#54 = CIRCLE ( 'NONE', #749, 1.500000000000001332 ) ;
#55 = AXIS2_PLACEMENT_3D ( 'NONE', #492, #564, #367 ) ;
#56 = CARTESIAN_POINT ( 'NONE',  ( -39.63188015908392003, 5.000000000000000000, 49.25000000000000000 ) ) ;
#57 = AXIS2_PLACEMENT_3D ( 'NONE', #759, #677, #883 ) ;
#58 = AXIS2_PLACEMENT_3D ( 'NONE', #166, #9, #850 ) ;
#59 = DIRECTION ( 'NONE',  ( -0.000000000000000000, -1.000000000000000000, -0.000000000000000000 ) ) ;
#60 = ORIENTED_EDGE ( 'NONE', *, *, #517, .T. ) ;
#61 = EDGE_CURVE ( 'NONE', #726, #384, #904, .T. ) ;
#62 = CARTESIAN_POINT ( 'NONE',  ( -34.63188015908392714, 10.00000000000000000, 17.99999999999999289 ) ) ;
#63 = ORIENTED_EDGE ( 'NONE', *, *, #775, .T. ) ;
#64 = AXIS2_PLACEMENT_3D ( 'NONE', #405, #200, #668 ) ;
#65 = ORIENTED_EDGE ( 'NONE', *, *, #246, .T. ) ;
#66 = CARTESIAN_POINT ( 'NONE',  ( 0.000000000000000000, 0.000000000000000000, 0.000000000000000000 ) ) ;
#67 = SURFACE_STYLE_USAGE ( .BOTH. , #900 ) ;
#68 = CIRCLE ( 'NONE', #779, 1.500000000000001332 ) ;
#69 = MANIFOLD_SOLID_BREP ( 'M3 Gewindebohrung1', #755 ) ;
#70 = DIRECTION ( 'NONE',  ( 0.000000000000000000, 0.000000000000000000, 1.000000000000000000 ) ) ;
#71 = EDGE_CURVE ( 'NONE', #451, #739, #662, .T. ) ;
#72 = CARTESIAN_POINT ( 'NONE',  ( -34.63188015908392714, 10.00000000000000000, 35.99999999999999289 ) ) ;
#73 =( NAMED_UNIT ( * ) SI_UNIT ( $, .STERADIAN. ) SOLID_ANGLE_UNIT ( ) );
#74 = ORIENTED_EDGE ( 'NONE', *, *, #464, .F. ) ;
#75 = CARTESIAN_POINT ( 'NONE',  ( -31.63188015908392714, 1.000000000000000222, 40.99999999999999289 ) ) ;
#76 = ORIENTED_EDGE ( 'NONE', *, *, #344, .T. ) ;
#77 = DIRECTION ( 'NONE',  ( -1.000000000000000000, -0.000000000000000000, -0.000000000000000000 ) ) ;
#78 =( LENGTH_UNIT ( ) NAMED_UNIT ( * ) SI_UNIT ( .MILLI., .METRE. ) );
#79 = FACE_BOUND ( 'NONE', #409, .T. ) ;
#80 = VECTOR ( 'NONE', #141, 1000.000000000000000 ) ;
#81 = CIRCLE ( 'NONE', #154, 1.500000000000001332 ) ;
#82 = EDGE_CURVE ( 'NONE', #284, #467, #363, .T. ) ;
#83 = ORIENTED_EDGE ( 'NONE', *, *, #477, .F. ) ;
#84 = CARTESIAN_POINT ( 'NONE',  ( -29.63188015908391648, 5.000000000000000000, 43.50000000000001421 ) ) ;
#85 = CIRCLE ( 'NONE', #111, 1.700000000000000178 ) ;
#86 =( NAMED_UNIT ( * ) SI_UNIT ( $, .STERADIAN. ) SOLID_ANGLE_UNIT ( ) );
#87 = DIRECTION ( 'NONE',  ( -1.000000000000000000, -0.000000000000000000, -0.000000000000000000 ) ) ;
#88 = ORIENTED_EDGE ( 'NONE', *, *, #895, .F. ) ;
#89 = AXIS2_PLACEMENT_3D ( 'NONE', #96, #176, #306 ) ;
#90 = EDGE_LOOP ( 'NONE', ( #229, #619, #214, #38 ) ) ;
#91 = CARTESIAN_POINT ( 'NONE',  ( -29.63188015908391293, 5.000000000000000000, 48.00000000000000000 ) ) ;
#92 = VECTOR ( 'NONE', #87, 1000.000000000000000 ) ;
#93 = LINE ( 'NONE', #636, #599 ) ;
#94 = DIRECTION ( 'NONE',  ( -1.005636797667714163E-16, -0.000000000000000000, -1.000000000000000000 ) ) ;
#95 = VECTOR ( 'NONE', #350, 1000.000000000000000 ) ;
#96 = CARTESIAN_POINT ( 'NONE',  ( -39.63188015908392003, 5.000000000000000000, 48.00000000000000000 ) ) ;
#97 = AXIS2_PLACEMENT_3D ( 'NONE', #437, #440, #371 ) ;
#98 = ORIENTED_EDGE ( 'NONE', *, *, #702, .T. ) ;
#99 = EDGE_CURVE ( 'NONE', #305, #578, #85, .T. ) ;
#100 = EDGE_LOOP ( 'NONE', ( #770, #699, #330, #276 ) ) ;
#101 = ORIENTED_EDGE ( 'NONE', *, *, #374, .T. ) ;
#102 = DIRECTION ( 'NONE',  ( 0.000000000000000000, -1.000000000000000000, 0.000000000000000000 ) ) ;
#103 = AXIS2_PLACEMENT_3D ( 'NONE', #157, #781, #484 ) ;
#104 = AXIS2_PLACEMENT_3D ( 'NONE', #401, #892, #338 ) ;
#105 = CARTESIAN_POINT ( 'NONE',  ( -29.63188015908391293, 5.000000000000000000, 49.25000000000000000 ) ) ;
#106 = ORIENTED_EDGE ( 'NONE', *, *, #693, .T. ) ;
#107 = ORIENTED_EDGE ( 'NONE', *, *, #15, .F. ) ;
#108 = CARTESIAN_POINT ( 'NONE',  ( -37.63188015908393425, 1.000000000000000222, 40.99999999999999289 ) ) ;
#109 = EDGE_CURVE ( 'NONE', #887, #653, #339, .T. ) ;
#110 = FACE_BOUND ( 'NONE', #442, .T. ) ;
#111 = AXIS2_PLACEMENT_3D ( 'NONE', #62, #616, #828 ) ;
#112 = FACE_OUTER_BOUND ( 'NONE', #811, .T. ) ;
#113 = LINE ( 'NONE', #271, #331 ) ;
#114 = CARTESIAN_POINT ( 'NONE',  ( -29.63188015908391293, 10.00000000000000000, 65.00000000000000000 ) ) ;
#115 = ORIENTED_EDGE ( 'NONE', *, *, #137, .T. ) ;
#116 = ORIENTED_EDGE ( 'NONE', *, *, #569, .F. ) ;
#117 = CARTESIAN_POINT ( 'NONE',  ( -39.63188015908392003, 5.000000000000000000, 40.50000000000000711 ) ) ;
#118 = EDGE_CURVE ( 'NONE', #288, #664, #685, .T. ) ;
#119 = PLANE ( 'NONE',  #406 ) ;
#120 = VERTEX_POINT ( 'NONE', #620 ) ;
#121 = SURFACE_STYLE_USAGE ( .BOTH. , #192 ) ;
#122 = ORIENTED_EDGE ( 'NONE', *, *, #895, .T. ) ;
#123 = ORIENTED_EDGE ( 'NONE', *, *, #147, .T. ) ;
#124 = VECTOR ( 'NONE', #771, 1000.000000000000000 ) ;
#125 = CARTESIAN_POINT ( 'NONE',  ( -39.63188015908392003, 10.00000000000000000, -4.000000000000003553 ) ) ;
#126 = CARTESIAN_POINT ( 'NONE',  ( -39.63188015908392003, 0.000000000000000000, -4.000000000000003553 ) ) ;
#127 = FACE_OUTER_BOUND ( 'NONE', #407, .T. ) ;
#128 = CARTESIAN_POINT ( 'NONE',  ( -39.63188015908392003, 5.000000000000000000, 46.75000000000000000 ) ) ;
#129 = EDGE_CURVE ( 'NONE', #135, #384, #804, .T. ) ;
#130 =( NAMED_UNIT ( * ) PLANE_ANGLE_UNIT ( ) SI_UNIT ( $, .RADIAN. ) );
#131 = EDGE_LOOP ( 'NONE', ( #546, #886, #394, #539 ) ) ;
#132 = CARTESIAN_POINT ( 'NONE',  ( -37.63188015908393425, 2.449293598294712824E-16, 40.99999999999999289 ) ) ;
#133 = VERTEX_POINT ( 'NONE', #134 ) ;
#134 = CARTESIAN_POINT ( 'NONE',  ( -29.63188015908391293, 5.000000000000000000, 58.75000000000000000 ) ) ;
#135 = VERTEX_POINT ( 'NONE', #211 ) ;
#136 = DIRECTION ( 'NONE',  ( -1.000000000000000000, -0.000000000000000000, -0.000000000000000000 ) ) ;
#137 = EDGE_CURVE ( 'NONE', #324, #428, #792, .T. ) ;
#138 = ORIENTED_EDGE ( 'NONE', *, *, #325, .F. ) ;
#139 = LINE ( 'NONE', #529, #381 ) ;
#140 = AXIS2_PLACEMENT_3D ( 'NONE', #795, #449, #26 ) ;
#141 = DIRECTION ( 'NONE',  ( -1.000000000000000000, 0.000000000000000000, 0.000000000000000000 ) ) ;
#142 = AXIS2_PLACEMENT_3D ( 'NONE', #764, #136, #70 ) ;
#143 = DIRECTION ( 'NONE',  ( 0.000000000000000000, 0.000000000000000000, 1.000000000000000000 ) ) ;
#144 = ORIENTED_EDGE ( 'NONE', *, *, #807, .F. ) ;
#145 = ORIENTED_EDGE ( 'NONE', *, *, #129, .F. ) ;
#146 = CARTESIAN_POINT ( 'NONE',  ( -31.63188015908393425, 1.000000000000000222, -4.000000000000010658 ) ) ;
#147 = EDGE_CURVE ( 'NONE', #512, #596, #610, .T. ) ;
#148 = CARTESIAN_POINT ( 'NONE',  ( -29.63188015908392003, 10.00000000000000000, -4.000000000000005329 ) ) ;
#149 =( NAMED_UNIT ( * ) PLANE_ANGLE_UNIT ( ) SI_UNIT ( $, .RADIAN. ) );
#150 = COLOUR_RGB ( '',0.5019607843137254832, 0.5019607843137254832, 0.5019607843137254832 ) ;
#151 = DIRECTION ( 'NONE',  ( 0.000000000000000000, 0.000000000000000000, 1.000000000000000000 ) ) ;
#152 = MECHANICAL_DESIGN_GEOMETRIC_PRESENTATION_REPRESENTATION (  '', ( #35 ), #389 ) ;
#153 = PLANE ( 'NONE',  #738 ) ;
#154 = AXIS2_PLACEMENT_3D ( 'NONE', #41, #890, #753 ) ;
#155 = EDGE_LOOP ( 'NONE', ( #39, #656, #489, #754, #145, #116, #65, #122 ) ) ;
#156 = AXIS2_PLACEMENT_3D ( 'NONE', #631, #642, #493 ) ;
#157 = CARTESIAN_POINT ( 'NONE',  ( -34.63188015908392714, 14.80832611206852256, 17.99999999999999289 ) ) ;
#158 = VERTEX_POINT ( 'NONE', #341 ) ;
#159 = ORIENTED_EDGE ( 'NONE', *, *, #485, .T. ) ;
#160 = APPLICATION_CONTEXT ( 'automotive_design' ) ;
#161 = FACE_BOUND ( 'NONE', #868, .T. ) ;
#162 = DIRECTION ( 'NONE',  ( 0.000000000000000000, 0.000000000000000000, 1.000000000000000000 ) ) ;
#163 = FACE_OUTER_BOUND ( 'NONE', #327, .T. ) ;
#164 = SURFACE_STYLE_FILL_AREA ( #848 ) ;
#165 = EDGE_CURVE ( 'NONE', #378, #324, #278, .T. ) ;
#166 = CARTESIAN_POINT ( 'NONE',  ( 0.000000000000000000, 0.000000000000000000, 0.000000000000000000 ) ) ;
#167 = ADVANCED_FACE ( 'NONE', ( #127 ), #375, .F. ) ;
#168 =( LENGTH_UNIT ( ) NAMED_UNIT ( * ) SI_UNIT ( .MILLI., .METRE. ) );
#169 = AXIS2_PLACEMENT_3D ( 'NONE', #896, #411, #282 ) ;
#170 = AXIS2_PLACEMENT_3D ( 'NONE', #587, #592, #181 ) ;
#171 = FILL_AREA_STYLE_COLOUR ( '', #178 ) ;
#172 = ADVANCED_FACE ( 'NONE', ( #291, #821, #760, #112 ), #417, .T. ) ;
#173 = EDGE_LOOP ( 'NONE', ( #101, #262 ) ) ;
#174 = VERTEX_POINT ( 'NONE', #51 ) ;
#175 = UNCERTAINTY_MEASURE_WITH_UNIT (LENGTH_MEASURE( 1.000000000000000082E-05 ), #603, 'distance_accuracy_value', 'NONE');
#176 = DIRECTION ( 'NONE',  ( -1.000000000000000000, -0.000000000000000000, -0.000000000000000000 ) ) ;
#177 = VECTOR ( 'NONE', #841, 1000.000000000000000 ) ;
#178 = COLOUR_RGB ( '',0.6470588235294117974, 0.6196078431372549211, 0.5882352941176470784 ) ;
#179 = DIRECTION ( 'NONE',  ( -0.000000000000000000, -0.000000000000000000, -1.000000000000000000 ) ) ;
#180 = PRODUCT_DEFINITION ( 'UNKNOWN', '', #319, #885 ) ;
#181 = DIRECTION ( 'NONE',  ( 0.000000000000000000, 0.000000000000000000, -1.000000000000000000 ) ) ;
#182 = VERTEX_POINT ( 'NONE', #906 ) ;
#183 = CARTESIAN_POINT ( 'NONE',  ( -39.63188015908392003, 5.000000000000000000, 60.00000000000000000 ) ) ;
#184 = VERTEX_POINT ( 'NONE', #56 ) ;
#185 = AXIS2_PLACEMENT_3D ( 'NONE', #456, #460, #34 ) ;
#186 = CARTESIAN_POINT ( 'NONE',  ( -34.63188015908392714, 1.000000000000000222, 22.49999999999999289 ) ) ;
#187 = VECTOR ( 'NONE', #3, 1000.000000000000000 ) ;
#188 = CIRCLE ( 'NONE', #207, 1.700000000000000178 ) ;
#189 = CIRCLE ( 'NONE', #97, 1.700000000000000178 ) ;
#190 = EDGE_CURVE ( 'NONE', #288, #44, #888, .T. ) ;
#191 = CARTESIAN_POINT ( 'NONE',  ( -39.63188015908392003, 5.000000000000000000, 60.00000000000000000 ) ) ;
#192 = SURFACE_SIDE_STYLE ('',( #212 ) ) ;
#193 = ORIENTED_EDGE ( 'NONE', *, *, #118, .F. ) ;
#194 = CARTESIAN_POINT ( 'NONE',  ( -34.63188015908392714, 1.000000000000000222, 34.29999999999999005 ) ) ;
#195 = VECTOR ( 'NONE', #535, 1000.000000000000000 ) ;
#196 = DIRECTION ( 'NONE',  ( -1.000000000000000000, -0.000000000000000000, 1.734723475976806848E-16 ) ) ;
#197 = PRESENTATION_STYLE_ASSIGNMENT (( #786 ) ) ;
#198 = ORIENTED_EDGE ( 'NONE', *, *, #22, .T. ) ;
#199 = CARTESIAN_POINT ( 'NONE',  ( -25.38923947196462194, 5.000000000000000000, 55.50000000000000711 ) ) ;
#200 = DIRECTION ( 'NONE',  ( 1.000000000000000000, -0.000000000000000000, 0.000000000000000000 ) ) ;
#201 = ORIENTED_EDGE ( 'NONE', *, *, #165, .F. ) ;
#202 = DIRECTION ( 'NONE',  ( -1.005636797667714163E-16, -0.000000000000000000, -1.000000000000000000 ) ) ;
#203 = ORIENTED_EDGE ( 'NONE', *, *, #743, .T. ) ;
#204 = CARTESIAN_POINT ( 'NONE',  ( -34.63188015908392714, 14.80832611206852256, 21.49999999999999645 ) ) ;
#205 = AXIS2_PLACEMENT_3D ( 'NONE', #91, #576, #310 ) ;
#206 = DIRECTION ( 'NONE',  ( 0.000000000000000000, 0.000000000000000000, 1.000000000000000000 ) ) ;
#207 = AXIS2_PLACEMENT_3D ( 'NONE', #72, #704, #361 ) ;
#208 = PRESENTATION_STYLE_ASSIGNMENT (( #717 ) ) ;
#209 =( GEOMETRIC_REPRESENTATION_CONTEXT ( 3 ) GLOBAL_UNCERTAINTY_ASSIGNED_CONTEXT ( ( #36 ) ) GLOBAL_UNIT_ASSIGNED_CONTEXT ( ( #499, #16, #86 ) ) REPRESENTATION_CONTEXT ( 'NONE', 'WORKASPACE' ) );
#210 = CARTESIAN_POINT ( 'NONE',  ( -39.63188015908392003, 10.00000000000000000, -4.000000000000003553 ) ) ;
#211 = CARTESIAN_POINT ( 'NONE',  ( -39.63188015908392003, 0.000000000000000000, -4.000000000000003553 ) ) ;
#212 = SURFACE_STYLE_FILL_AREA ( #882 ) ;
#213 = DIRECTION ( 'NONE',  ( -0.000000000000000000, -1.000000000000000000, -0.000000000000000000 ) ) ;
#214 = ORIENTED_EDGE ( 'NONE', *, *, #448, .T. ) ;
#215 =( GEOMETRIC_REPRESENTATION_CONTEXT ( 3 ) GLOBAL_UNCERTAINTY_ASSIGNED_CONTEXT ( ( #175 ) ) GLOBAL_UNIT_ASSIGNED_CONTEXT ( ( #603, #402, #472 ) ) REPRESENTATION_CONTEXT ( 'NONE', 'WORKASPACE' ) );
#216 = EDGE_LOOP ( 'NONE', ( #419, #531 ) ) ;
#217 = CARTESIAN_POINT ( 'NONE',  ( -29.63188015908391648, 5.000000000000000000, 42.00000000000000711 ) ) ;
#218 = PRESENTATION_STYLE_ASSIGNMENT (( #67 ) ) ;
#219 = CARTESIAN_POINT ( 'NONE',  ( -39.63188015908392003, 10.00000000000000000, 65.00000000000000000 ) ) ;
#220 = EDGE_CURVE ( 'NONE', #467, #653, #433, .T. ) ;
#221 = EDGE_LOOP ( 'NONE', ( #601, #379, #245, #522 ) ) ;
#222 = LINE ( 'NONE', #789, #879 ) ;
#223 = FILL_AREA_STYLE_COLOUR ( '', #317 ) ;
#224 = EDGE_LOOP ( 'NONE', ( #49, #767 ) ) ;
#225 = CARTESIAN_POINT ( 'NONE',  ( -39.63188015908392003, 5.000000000000000000, 61.25000000000000000 ) ) ;
#226 = VERTEX_POINT ( 'NONE', #354 ) ;
#227 = PLANE ( 'NONE',  #7 ) ;
#228 = ADVANCED_FACE ( 'NONE', ( #574 ), #773, .F. ) ;
#229 = ORIENTED_EDGE ( 'NONE', *, *, #711, .F. ) ;
#230 = CARTESIAN_POINT ( 'NONE',  ( -29.63188015908391293, 10.00000000000000000, 65.00000000000000000 ) ) ;
#231 = EDGE_CURVE ( 'NONE', #578, #305, #189, .T. ) ;
#232 = FACE_OUTER_BOUND ( 'NONE', #320, .T. ) ;
#233 = CARTESIAN_POINT ( 'NONE',  ( -34.63188015908392714, 1.000000000000000222, 37.69999999999998863 ) ) ;
#234 = ADVANCED_FACE ( 'NONE', ( #660 ), #698, .F. ) ;
#235 = CARTESIAN_POINT ( 'NONE',  ( -34.63188015908392714, 10.00000000000000000, 16.29999999999999005 ) ) ;
#236 = ADVANCED_FACE ( 'NONE', ( #793 ), #227, .F. ) ;
#237 = AXIS2_PLACEMENT_3D ( 'NONE', #734, #728, #515 ) ;
#238 = VERTEX_POINT ( 'NONE', #2 ) ;
#239 = CARTESIAN_POINT ( 'NONE',  ( -37.63188015908393425, 1.000000000000000222, 40.99999999999999289 ) ) ;
#240 = VERTEX_POINT ( 'NONE', #845 ) ;
#241 = ORIENTED_EDGE ( 'NONE', *, *, #607, .F. ) ;
#242 = FILL_AREA_STYLE ('',( #171 ) ) ;
#243 = CYLINDRICAL_SURFACE ( 'NONE', #249, 1.500000000000001332 ) ;
#244 = CIRCLE ( 'NONE', #55, 1.700000000000000178 ) ;
#245 = ORIENTED_EDGE ( 'NONE', *, *, #590, .F. ) ;
#246 = EDGE_CURVE ( 'NONE', #283, #746, #93, .T. ) ;
#247 = ORIENTED_EDGE ( 'NONE', *, *, #333, .T. ) ;
#248 = ADVANCED_FACE ( 'NONE', ( #891 ), #914, .F. ) ;
#249 = AXIS2_PLACEMENT_3D ( 'NONE', #667, #745, #27 ) ;
#250 = ORIENTED_EDGE ( 'NONE', *, *, #641, .F. ) ;
#251 = CARTESIAN_POINT ( 'NONE',  ( -39.63188015908392003, 0.000000000000000000, -4.000000000000003553 ) ) ;
#252 = COLOUR_RGB ( '',0.6470588235294117974, 0.6196078431372549211, 0.5882352941176470784 ) ;
#253 = FACE_OUTER_BOUND ( 'NONE', #221, .T. ) ;
#254 = VECTOR ( 'NONE', #275, 1000.000000000000000 ) ;
#255 = AXIS2_PLACEMENT_3D ( 'NONE', #640, #628, #796 ) ;
#256 = AXIS2_PLACEMENT_3D ( 'NONE', #908, #487, #560 ) ;
#257 = STYLED_ITEM ( 'NONE', ( #208 ), #557 ) ;
#258 = CARTESIAN_POINT ( 'NONE',  ( -34.63188015908392714, 1.000000000000000222, 40.99999999999999289 ) ) ;
#259 = VECTOR ( 'NONE', #469, 1000.000000000000000 ) ;
#260 = PLANE ( 'NONE',  #285 ) ;
#261 = ORIENTED_EDGE ( 'NONE', *, *, #842, .T. ) ;
#262 = ORIENTED_EDGE ( 'NONE', *, *, #678, .T. ) ;
#263 = CARTESIAN_POINT ( 'NONE',  ( -39.63188015908392003, 5.000000000000000000, 42.00000000000000711 ) ) ;
#264 = ORIENTED_EDGE ( 'NONE', *, *, #429, .F. ) ;
#265 = FACE_OUTER_BOUND ( 'NONE', #538, .T. ) ;
#266 = DIRECTION ( 'NONE',  ( -0.000000000000000000, -1.000000000000000000, -0.000000000000000000 ) ) ;
#267 = EDGE_CURVE ( 'NONE', #653, #887, #244, .T. ) ;
#268 = EDGE_CURVE ( 'NONE', #305, #596, #510, .T. ) ;
#269 = SURFACE_SIDE_STYLE ('',( #322 ) ) ;
#270 = VECTOR ( 'NONE', #594, 1000.000000000000000 ) ;
#271 = CARTESIAN_POINT ( 'NONE',  ( -29.63188015908392003, 10.00000000000000000, -4.000000000000005329 ) ) ;
#272 = DIRECTION ( 'NONE',  ( -1.000000000000000000, -0.000000000000000000, -0.000000000000000000 ) ) ;
#273 = ORIENTED_EDGE ( 'NONE', *, *, #790, .T. ) ;
#274 = ORIENTED_EDGE ( 'NONE', *, *, #842, .F. ) ;
#275 = DIRECTION ( 'NONE',  ( -0.000000000000000000, -1.000000000000000000, 0.000000000000000000 ) ) ;
#276 = ORIENTED_EDGE ( 'NONE', *, *, #325, .T. ) ;
#277 = VECTOR ( 'NONE', #418, 1000.000000000000000 ) ;
#278 = LINE ( 'NONE', #545, #80 ) ;
#279 = FACE_OUTER_BOUND ( 'NONE', #90, .T. ) ;
#280 = PLANE ( 'NONE',  #686 ) ;
#281 = EDGE_CURVE ( 'NONE', #471, #898, #839, .T. ) ;
#282 = DIRECTION ( 'NONE',  ( 0.000000000000000000, 0.000000000000000000, -1.000000000000000000 ) ) ;
#283 = VERTEX_POINT ( 'NONE', #854 ) ;
#284 = VERTEX_POINT ( 'NONE', #432 ) ;
#285 = AXIS2_PLACEMENT_3D ( 'NONE', #396, #742, #671 ) ;
#286 = FACE_OUTER_BOUND ( 'NONE', #715, .T. ) ;
#287 = FACE_OUTER_BOUND ( 'NONE', #100, .T. ) ;
#288 = VERTEX_POINT ( 'NONE', #84 ) ;
#289 = FILL_AREA_STYLE ('',( #420 ) ) ;
#290 = CYLINDRICAL_SURFACE ( 'NONE', #673, 1.250000000000001110 ) ;
#291 = FACE_BOUND ( 'NONE', #216, .T. ) ;
#292 = CARTESIAN_POINT ( 'NONE',  ( -39.63188015908392003, 5.000000000000000000, 54.00000000000000711 ) ) ;
#293 = ORIENTED_EDGE ( 'NONE', *, *, #308, .T. ) ;
#294 = ORIENTED_EDGE ( 'NONE', *, *, #615, .F. ) ;
#295 = LINE ( 'NONE', #639, #187 ) ;
#296 = DIRECTION ( 'NONE',  ( -1.000000000000000000, -0.000000000000000000, -0.000000000000000000 ) ) ;
#297 = LINE ( 'NONE', #872, #682 ) ;
#298 =( LENGTH_UNIT ( ) NAMED_UNIT ( * ) SI_UNIT ( .MILLI., .METRE. ) );
#299 = EDGE_CURVE ( 'NONE', #536, #226, #721, .T. ) ;
#300 = AXIS2_PLACEMENT_3D ( 'NONE', #863, #17, #504 ) ;
#301 = APPLICATION_PROTOCOL_DEFINITION ( 'draft international standard', 'automotive_design', 1998, #160 ) ;
#302 = MECHANICAL_DESIGN_GEOMETRIC_PRESENTATION_REPRESENTATION (  '', ( #257 ), #497 ) ;
#303 = CARTESIAN_POINT ( 'NONE',  ( -39.63188015908392003, 5.000000000000000000, 60.00000000000000000 ) ) ;
#304 = ORIENTED_EDGE ( 'NONE', *, *, #757, .F. ) ;
#305 = VERTEX_POINT ( 'NONE', #235 ) ;
#306 = DIRECTION ( 'NONE',  ( 0.000000000000000000, 0.000000000000000000, 1.000000000000000000 ) ) ;
#307 = VECTOR ( 'NONE', #774, 1000.000000000000000 ) ;
#308 = EDGE_CURVE ( 'NONE', #120, #378, #542, .T. ) ;
#309 = CYLINDRICAL_SURFACE ( 'NONE', #459, 3.000000000000002665 ) ;
#310 = DIRECTION ( 'NONE',  ( 0.000000000000000000, 0.000000000000000000, 1.000000000000000000 ) ) ;
#311 = CIRCLE ( 'NONE', #834, 1.250000000000001110 ) ;
#312 = DIRECTION ( 'NONE',  ( 1.000000000000000000, -0.000000000000000000, -1.005636797667714040E-16 ) ) ;
#313 = EDGE_CURVE ( 'NONE', #664, #288, #423, .T. ) ;
#314 = ORIENTED_EDGE ( 'NONE', *, *, #129, .T. ) ;
#315 = ORIENTED_EDGE ( 'NONE', *, *, #665, .T. ) ;
#316 = ADVANCED_FACE ( 'NONE', ( #817 ), #670, .F. ) ;
#317 = COLOUR_RGB ( '',0.6470588235294117974, 0.6196078431372549211, 0.5882352941176470784 ) ;
#318 = AXIS2_PLACEMENT_3D ( 'NONE', #391, #455, #881 ) ;
#319 = PRODUCT_DEFINITION_FORMATION_WITH_SPECIFIED_SOURCE ( 'ANY', '', #798, .NOT_KNOWN. ) ;
#320 = EDGE_LOOP ( 'NONE', ( #907, #48, #585, #201 ) ) ;
#321 = CARTESIAN_POINT ( 'NONE',  ( -25.38923947196462194, 5.000000000000000000, 42.00000000000000711 ) ) ;
#322 = SURFACE_STYLE_FILL_AREA ( #818 ) ;
#323 = CARTESIAN_POINT ( 'NONE',  ( -34.63188015908392714, 1.000000000000000222, 21.49999999999999645 ) ) ;
#324 = VERTEX_POINT ( 'NONE', #725 ) ;
#325 = EDGE_CURVE ( 'NONE', #596, #512, #516, .T. ) ;
#326 = ORIENTED_EDGE ( 'NONE', *, *, #732, .T. ) ;
#327 = EDGE_LOOP ( 'NONE', ( #88, #356, #727, #858 ) ) ;
#328 = DIRECTION ( 'NONE',  ( 0.000000000000000000, -1.000000000000000000, 0.000000000000000000 ) ) ;
#329 = ORIENTED_EDGE ( 'NONE', *, *, #82, .F. ) ;
#330 = ORIENTED_EDGE ( 'NONE', *, *, #268, .T. ) ;
#331 = VECTOR ( 'NONE', #202, 1000.000000000000000 ) ;
#332 = DIRECTION ( 'NONE',  ( -1.000000000000000000, -0.000000000000000000, -0.000000000000000000 ) ) ;
#333 = EDGE_CURVE ( 'NONE', #184, #386, #871, .T. ) ;
#334 = DIRECTION ( 'NONE',  ( -1.000000000000000000, -0.000000000000000000, -0.000000000000000000 ) ) ;
#335 = CARTESIAN_POINT ( 'NONE',  ( -29.63188015908391293, 5.000000000000000000, 60.00000000000000000 ) ) ;
#336 = ORIENTED_EDGE ( 'NONE', *, *, #281, .F. ) ;
#337 = CARTESIAN_POINT ( 'NONE',  ( -34.63188015908392714, 1.000000000000000222, 16.29999999999999005 ) ) ;
#338 = DIRECTION ( 'NONE',  ( 0.000000000000000000, 0.000000000000000000, -1.000000000000000000 ) ) ;
#339 = CIRCLE ( 'NONE', #169, 1.700000000000000178 ) ;
#340 = CARTESIAN_POINT ( 'NONE',  ( -37.63188015908393425, 1.000000000000000222, -4.000000000000010658 ) ) ;
#341 = CARTESIAN_POINT ( 'NONE',  ( -39.63188015908392003, 5.000000000000000000, 58.75000000000000000 ) ) ;
#342 = EDGE_LOOP ( 'NONE', ( #107, #705, #29, #478 ) ) ;
#343 = CARTESIAN_POINT ( 'NONE',  ( -39.63188015908392003, 5.000000000000000000, 61.25000000000000000 ) ) ;
#344 = EDGE_CURVE ( 'NONE', #384, #898, #297, .T. ) ;
#345 = AXIS2_PLACEMENT_3D ( 'NONE', #292, #360, #913 ) ;
#346 = EDGE_LOOP ( 'NONE', ( #358, #548, #293, #6 ) ) ;
#347 = PRESENTATION_LAYER_ASSIGNMENT (  '', '', ( #257 ) ) ;
#348 = LINE ( 'NONE', #353, #307 ) ;
#349 = VECTOR ( 'NONE', #179, 1000.000000000000000 ) ;
#350 = DIRECTION ( 'NONE',  ( -1.000000000000000000, -0.000000000000000000, -0.000000000000000000 ) ) ;
#351 = CARTESIAN_POINT ( 'NONE',  ( -25.38923947196462194, 5.000000000000000000, 43.50000000000001421 ) ) ;
#352 = PRESENTATION_LAYER_ASSIGNMENT (  '', '', ( #534 ) ) ;
#353 = CARTESIAN_POINT ( 'NONE',  ( -39.63188015908392003, 5.000000000000000000, 58.75000000000000000 ) ) ;
#354 = CARTESIAN_POINT ( 'NONE',  ( -39.63188015908392003, 5.000000000000000000, 52.50000000000000711 ) ) ;
#355 = ORIENTED_EDGE ( 'NONE', *, *, #71, .F. ) ;
#356 = ORIENTED_EDGE ( 'NONE', *, *, #485, .F. ) ;
#357 = EDGE_CURVE ( 'NONE', #806, #182, #669, .T. ) ;
#358 = ORIENTED_EDGE ( 'NONE', *, *, #400, .F. ) ;
#359 = DIRECTION ( 'NONE',  ( -1.000000000000000000, -0.000000000000000000, 1.734723475976806848E-16 ) ) ;
#360 = DIRECTION ( 'NONE',  ( -1.000000000000000000, 0.000000000000000000, 0.000000000000000000 ) ) ;
#361 = DIRECTION ( 'NONE',  ( 0.000000000000000000, 0.000000000000000000, 1.000000000000000000 ) ) ;
#362 = DIRECTION ( 'NONE',  ( -1.000000000000000000, 0.000000000000000000, 1.005636797667714040E-16 ) ) ;
#363 = CIRCLE ( 'NONE', #591, 1.700000000000000178 ) ;
#364 = PRODUCT_RELATED_PRODUCT_CATEGORY ( 'part', '', ( #798 ) ) ;
#365 = VECTOR ( 'NONE', #533, 1000.000000000000000 ) ;
#366 = ORIENTED_EDGE ( 'NONE', *, *, #853, .F. ) ;
#367 = DIRECTION ( 'NONE',  ( 0.000000000000000000, 0.000000000000000000, -1.000000000000000000 ) ) ;
#368 = ORIENTED_EDGE ( 'NONE', *, *, #765, .T. ) ;
#369 = FILL_AREA_STYLE_COLOUR ( '', #849 ) ;
#370 = VECTOR ( 'NONE', #776, 1000.000000000000000 ) ;
#371 = DIRECTION ( 'NONE',  ( 0.000000000000000000, 0.000000000000000000, 1.000000000000000000 ) ) ;
#372 = LINE ( 'NONE', #125, #195 ) ;
#373 = DIRECTION ( 'NONE',  ( 1.005636797667714040E-16, 0.000000000000000000, 1.000000000000000000 ) ) ;
#374 = EDGE_CURVE ( 'NONE', #174, #133, #901, .T. ) ;
#375 = CYLINDRICAL_SURFACE ( 'NONE', #819, 1.700000000000000178 ) ;
#376 = ADVANCED_FACE ( 'NONE', ( #287 ), #588, .F. ) ;
#377 = SURFACE_SIDE_STYLE ('',( #902 ) ) ;
#378 = VERTEX_POINT ( 'NONE', #21 ) ;
#379 = ORIENTED_EDGE ( 'NONE', *, *, #22, .F. ) ;
#380 = DIRECTION ( 'NONE',  ( 0.000000000000000000, -1.000000000000000000, 0.000000000000000000 ) ) ;
#381 = VECTOR ( 'NONE', #37, 1000.000000000000000 ) ;
#382 = CARTESIAN_POINT ( 'NONE',  ( -25.38923947196462194, 5.000000000000000000, 52.50000000000000711 ) ) ;
#383 = EDGE_CURVE ( 'NONE', #726, #471, #42, .T. ) ;
#384 = VERTEX_POINT ( 'NONE', #441 ) ;
#385 = CARTESIAN_POINT ( 'NONE',  ( -34.63188015908392714, 1.000000000000000222, 22.49999999999999289 ) ) ;
#386 = VERTEX_POINT ( 'NONE', #658 ) ;
#387 = SURFACE_STYLE_FILL_AREA ( #562 ) ;
#388 = CYLINDRICAL_SURFACE ( 'NONE', #318, 0.9999999999999974465 ) ;
#389 =( GEOMETRIC_REPRESENTATION_CONTEXT ( 3 ) GLOBAL_UNCERTAINTY_ASSIGNED_CONTEXT ( ( #654 ) ) GLOBAL_UNIT_ASSIGNED_CONTEXT ( ( #168, #447, #647 ) ) REPRESENTATION_CONTEXT ( 'NONE', 'WORKASPACE' ) );
#390 = ORIENTED_EDGE ( 'NONE', *, *, #651, .F. ) ;
#391 = CARTESIAN_POINT ( 'NONE',  ( -34.63188015908392714, 14.80832611206852256, 22.49999999999999289 ) ) ;
#392 = EDGE_LOOP ( 'NONE', ( #813, #368, #60, #144 ) ) ;
#393 = CARTESIAN_POINT ( 'NONE',  ( -39.63188015908392003, 5.000000000000000000, 43.50000000000001421 ) ) ;
#394 = ORIENTED_EDGE ( 'NONE', *, *, #807, .T. ) ;
#395 = STYLED_ITEM ( 'NONE', ( #495 ), #69 ) ;
#396 = CARTESIAN_POINT ( 'NONE',  ( -39.63188015908392003, 10.00000000000000000, -4.000000000000003553 ) ) ;
#397 = VECTOR ( 'NONE', #843, 1000.000000000000000 ) ;
#398 = VECTOR ( 'NONE', #196, 1000.000000000000000 ) ;
#399 = DIRECTION ( 'NONE',  ( 0.000000000000000000, 1.000000000000000000, 0.000000000000000000 ) ) ;
#400 = EDGE_CURVE ( 'NONE', #240, #676, #12, .T. ) ;
#401 = CARTESIAN_POINT ( 'NONE',  ( -34.63188015908392714, 14.80832611206852256, 22.49999999999999289 ) ) ;
#402 =( NAMED_UNIT ( * ) PLANE_ANGLE_UNIT ( ) SI_UNIT ( $, .RADIAN. ) );
#403 = ORIENTED_EDGE ( 'NONE', *, *, #607, .T. ) ;
#404 = DIRECTION ( 'NONE',  ( -1.000000000000000000, -0.000000000000000000, -0.000000000000000000 ) ) ;
#405 = CARTESIAN_POINT ( 'NONE',  ( -37.63188015908393425, 1.000000000000000222, -4.000000000000010658 ) ) ;
#406 = AXIS2_PLACEMENT_3D ( 'NONE', #543, #399, #680 ) ;
#407 = EDGE_LOOP ( 'NONE', ( #329, #547, #758, #833 ) ) ;
#408 = AXIS2_PLACEMENT_3D ( 'NONE', #148, #362, #373 ) ;
#409 = EDGE_LOOP ( 'NONE', ( #823, #657 ) ) ;
#410 = DIRECTION ( 'NONE',  ( 0.000000000000000000, 0.000000000000000000, 1.000000000000000000 ) ) ;
#411 = DIRECTION ( 'NONE',  ( 0.000000000000000000, -1.000000000000000000, 0.000000000000000000 ) ) ;
#412 = FACE_OUTER_BOUND ( 'NONE', #155, .T. ) ;
#413 = CARTESIAN_POINT ( 'NONE',  ( -39.63188015908392003, 5.000000000000000000, 48.00000000000000000 ) ) ;
#414 = EDGE_CURVE ( 'NONE', #182, #226, #466, .T. ) ;
#415 = DIRECTION ( 'NONE',  ( 0.000000000000000000, 0.000000000000000000, -1.000000000000000000 ) ) ;
#416 = DIRECTION ( 'NONE',  ( -1.000000000000000000, -0.000000000000000000, -0.000000000000000000 ) ) ;
#417 = PLANE ( 'NONE',  #865 ) ;
#418 = DIRECTION ( 'NONE',  ( -1.000000000000000000, -0.000000000000000000, -0.000000000000000000 ) ) ;
#419 = ORIENTED_EDGE ( 'NONE', *, *, #730, .T. ) ;
#420 = FILL_AREA_STYLE_COLOUR ( '', #252 ) ;
#421 = FACE_OUTER_BOUND ( 'NONE', #20, .T. ) ;
#422 =( LENGTH_UNIT ( ) NAMED_UNIT ( * ) SI_UNIT ( .MILLI., .METRE. ) );
#423 = CIRCLE ( 'NONE', #808, 1.500000000000001332 ) ;
#424 = CARTESIAN_POINT ( 'NONE',  ( -29.63188015908391293, 5.000000000000000000, 55.50000000000000711 ) ) ;
#425 = UNCERTAINTY_MEASURE_WITH_UNIT (LENGTH_MEASURE( 1.000000000000000082E-05 ), #820, 'distance_accuracy_value', 'NONE');
#426 = APPLICATION_CONTEXT ( 'automotive_design' ) ;
#427 = DIRECTION ( 'NONE',  ( 0.000000000000000000, 0.000000000000000000, -1.000000000000000000 ) ) ;
#428 = VERTEX_POINT ( 'NONE', #239 ) ;
#429 = EDGE_CURVE ( 'NONE', #617, #458, #559, .T. ) ;
#430 = ORIENTED_EDGE ( 'NONE', *, *, #299, .T. ) ;
#431 = DIRECTION ( 'NONE',  ( -1.000000000000000000, 0.000000000000000000, 0.000000000000000000 ) ) ;
#432 = CARTESIAN_POINT ( 'NONE',  ( -34.63188015908392714, 10.00000000000000000, 37.69999999999998863 ) ) ;
#433 = LINE ( 'NONE', #608, #681 ) ;
#434 = LINE ( 'NONE', #225, #277 ) ;
#435 = CYLINDRICAL_SURFACE ( 'NONE', #104, 0.9999999999999974465 ) ;
#436 = PLANE ( 'NONE',  #408 ) ;
#437 = CARTESIAN_POINT ( 'NONE',  ( -34.63188015908392714, 10.00000000000000000, 17.99999999999999289 ) ) ;
#438 = EDGE_CURVE ( 'NONE', #898, #629, #222, .T. ) ;
#439 = DIRECTION ( 'NONE',  ( 0.000000000000000000, 0.000000000000000000, 1.000000000000000000 ) ) ;
#440 = DIRECTION ( 'NONE',  ( -0.000000000000000000, -1.000000000000000000, -0.000000000000000000 ) ) ;
#441 = CARTESIAN_POINT ( 'NONE',  ( -39.63188015908392003, 0.000000000000000000, 65.00000000000000000 ) ) ;
#442 = EDGE_LOOP ( 'NONE', ( #326, #637 ) ) ;
#443 = CARTESIAN_POINT ( 'NONE',  ( -34.63188015908392714, 10.00000000000000000, 34.29999999999999005 ) ) ;
#444 = AXIS2_PLACEMENT_3D ( 'NONE', #217, #769, #910 ) ;
#445 = CYLINDRICAL_SURFACE ( 'NONE', #170, 1.700000000000000178 ) ;
#446 = ADVANCED_FACE ( 'NONE', ( #421 ), #260, .F. ) ;
#447 =( NAMED_UNIT ( * ) PLANE_ANGLE_UNIT ( ) SI_UNIT ( $, .RADIAN. ) );
#448 = EDGE_CURVE ( 'NONE', #683, #563, #815, .T. ) ;
#449 = DIRECTION ( 'NONE',  ( 1.000000000000000000, -0.000000000000000000, -1.005636797667714040E-16 ) ) ;
#450 = EDGE_LOOP ( 'NONE', ( #193, #19 ) ) ;
#451 = VERTEX_POINT ( 'NONE', #589 ) ;
#452 = AXIS2_PLACEMENT_3D ( 'NONE', #555, #624, #768 ) ;
#453 = LINE ( 'NONE', #618, #124 ) ;
#454 = LINE ( 'NONE', #340, #254 ) ;
#455 = DIRECTION ( 'NONE',  ( -0.000000000000000000, -1.000000000000000000, -0.000000000000000000 ) ) ;
#456 = CARTESIAN_POINT ( 'NONE',  ( -39.63188015908392003, 5.000000000000000000, 54.00000000000000711 ) ) ;
#457 = EDGE_CURVE ( 'NONE', #44, #605, #68, .T. ) ;
#458 = VERTEX_POINT ( 'NONE', #105 ) ;
#459 = AXIS2_PLACEMENT_3D ( 'NONE', #258, #799, #805 ) ;
#460 = DIRECTION ( 'NONE',  ( -1.000000000000000000, 0.000000000000000000, 0.000000000000000000 ) ) ;
#461 = ORIENTED_EDGE ( 'NONE', *, *, #853, .T. ) ;
#462 = ORIENTED_EDGE ( 'NONE', *, *, #357, .T. ) ;
#463 = DIRECTION ( 'NONE',  ( -0.000000000000000000, -1.000000000000000000, 0.000000000000000000 ) ) ;
#464 = EDGE_CURVE ( 'NONE', #739, #726, #139, .T. ) ;
#465 = CARTESIAN_POINT ( 'NONE',  ( -29.63188015908392003, 10.00000000000000000, -4.000000000000005329 ) ) ;
#466 = LINE ( 'NONE', #382, #92 ) ;
#467 = VERTEX_POINT ( 'NONE', #443 ) ;
#468 = VECTOR ( 'NONE', #206, 1000.000000000000000 ) ;
#469 = DIRECTION ( 'NONE',  ( -1.000000000000000000, -0.000000000000000000, 1.734723475976806848E-16 ) ) ;
#470 = ORIENTED_EDGE ( 'NONE', *, *, #267, .F. ) ;
#471 = VERTEX_POINT ( 'NONE', #114 ) ;
#472 =( NAMED_UNIT ( * ) SI_UNIT ( $, .STERADIAN. ) SOLID_ANGLE_UNIT ( ) );
#473 = CARTESIAN_POINT ( 'NONE',  ( -34.63188015908392714, 14.80832611206852256, 37.69999999999998863 ) ) ;
#474 = CARTESIAN_POINT ( 'NONE',  ( -39.63188015908392003, 5.000000000000000000, 42.00000000000000711 ) ) ;
#475 = DIRECTION ( 'NONE',  ( 0.000000000000000000, 0.000000000000000000, -1.000000000000000000 ) ) ;
#476 = CARTESIAN_POINT ( 'NONE',  ( -25.38923947196462194, 5.000000000000000000, 54.00000000000000711 ) ) ;
#477 = EDGE_CURVE ( 'NONE', #563, #683, #741, .T. ) ;
#478 = ORIENTED_EDGE ( 'NONE', *, *, #267, .T. ) ;
#479 = ORIENTED_EDGE ( 'NONE', *, *, #517, .F. ) ;
#480 = DIRECTION ( 'NONE',  ( 0.000000000000000000, 0.000000000000000000, -1.000000000000000000 ) ) ;
#481 = FACE_OUTER_BOUND ( 'NONE', #346, .T. ) ;
#482 = CIRCLE ( 'NONE', #185, 1.500000000000001332 ) ;
#483 = DIRECTION ( 'NONE',  ( 0.000000000000000000, -0.000000000000000000, 1.000000000000000000 ) ) ;
#484 = DIRECTION ( 'NONE',  ( 0.000000000000000000, 0.000000000000000000, -1.000000000000000000 ) ) ;
#485 = EDGE_CURVE ( 'NONE', #428, #746, #719, .T. ) ;
#486 = ORIENTED_EDGE ( 'NONE', *, *, #457, .F. ) ;
#487 = DIRECTION ( 'NONE',  ( 0.000000000000000000, 1.000000000000000000, 0.000000000000000000 ) ) ;
#488 = EDGE_CURVE ( 'NONE', #226, #536, #482, .T. ) ;
#489 = ORIENTED_EDGE ( 'NONE', *, *, #438, .F. ) ;
#490 = DIRECTION ( 'NONE',  ( -0.000000000000000000, -1.000000000000000000, -0.000000000000000000 ) ) ;
#491 = CIRCLE ( 'NONE', #142, 1.250000000000001110 ) ;
#492 = CARTESIAN_POINT ( 'NONE',  ( -34.63188015908392714, 1.000000000000000222, 35.99999999999999289 ) ) ;
#493 = DIRECTION ( 'NONE',  ( 0.000000000000000000, 0.000000000000000000, 1.000000000000000000 ) ) ;
#494 = ADVANCED_FACE ( 'NONE', ( #163 ), #309, .F. ) ;
#495 = PRESENTATION_STYLE_ASSIGNMENT (( #121 ) ) ;
#496 = LINE ( 'NONE', #465, #365 ) ;
#497 =( GEOMETRIC_REPRESENTATION_CONTEXT ( 3 ) GLOBAL_UNCERTAINTY_ASSIGNED_CONTEXT ( ( #556 ) ) GLOBAL_UNIT_ASSIGNED_CONTEXT ( ( #78, #561, #635 ) ) REPRESENTATION_CONTEXT ( 'NONE', 'WORKASPACE' ) );
#498 = SURFACE_STYLE_USAGE ( .BOTH. , #5 ) ;
#499 =( LENGTH_UNIT ( ) NAMED_UNIT ( * ) SI_UNIT ( .MILLI., .METRE. ) );
#500 = EDGE_LOOP ( 'NONE', ( #874, #273, #123, #763 ) ) ;
#501 = ADVANCED_FACE ( 'NONE', ( #622 ), #445, .F. ) ;
#502 = ORIENTED_EDGE ( 'NONE', *, *, #757, .T. ) ;
#503 = ORIENTED_EDGE ( 'NONE', *, *, #569, .T. ) ;
#504 = DIRECTION ( 'NONE',  ( 0.000000000000000000, 0.000000000000000000, 1.000000000000000000 ) ) ;
#505 = AXIS2_PLACEMENT_3D ( 'NONE', #558, #77, #706 ) ;
#506 = AXIS2_PLACEMENT_3D ( 'NONE', #183, #332, #661 ) ;
#507 = VECTOR ( 'NONE', #1, 1000.000000000000000 ) ;
#508 = VECTOR ( 'NONE', #266, 1000.000000000000000 ) ;
#509 = ADVANCED_FACE ( 'NONE', ( #791 ), #697, .F. ) ;
#510 = LINE ( 'NONE', #710, #13 ) ;
#511 = ORIENTED_EDGE ( 'NONE', *, *, #118, .T. ) ;
#512 = VERTEX_POINT ( 'NONE', #875 ) ;
#513 = ORIENTED_EDGE ( 'NONE', *, *, #581, .T. ) ;
#514 = ADVANCED_FACE ( 'NONE', ( #265 ), #243, .F. ) ;
#515 = DIRECTION ( 'NONE',  ( 0.000000000000000000, 0.000000000000000000, -1.000000000000000000 ) ) ;
#516 = CIRCLE ( 'NONE', #526, 1.700000000000000178 ) ;
#517 = EDGE_CURVE ( 'NONE', #158, #709, #825, .T. ) ;
#518 = VECTOR ( 'NONE', #544, 1000.000000000000000 ) ;
#519 = ADVANCED_FACE ( 'NONE', ( #802 ), #388, .F. ) ;
#520 = AXIS2_PLACEMENT_3D ( 'NONE', #321, #334, #816 ) ;
#521 = CARTESIAN_POINT ( 'NONE',  ( -34.63188015908392714, 10.00000000000000000, 19.69999999999999218 ) ) ;
#522 = ORIENTED_EDGE ( 'NONE', *, *, #281, .T. ) ;
#523 = EDGE_LOOP ( 'NONE', ( #511, #502, #106, #856 ) ) ;
#524 = ORIENTED_EDGE ( 'NONE', *, *, #190, .T. ) ;
#525 = EDGE_LOOP ( 'NONE', ( #470, #583 ) ) ;
#526 = AXIS2_PLACEMENT_3D ( 'NONE', #23, #380, #869 ) ;
#527 = CIRCLE ( 'NONE', #687, 1.250000000000001110 ) ;
#528 = FACE_BOUND ( 'NONE', #830, .T. ) ;
#529 = CARTESIAN_POINT ( 'NONE',  ( -39.63188015908392003, 10.00000000000000000, -4.000000000000003553 ) ) ;
#530 = PRESENTATION_STYLE_ASSIGNMENT (( #498 ) ) ;
#531 = ORIENTED_EDGE ( 'NONE', *, *, #82, .T. ) ;
#532 = CARTESIAN_POINT ( 'NONE',  ( -29.63188015908391293, 5.000000000000000000, 46.75000000000000000 ) ) ;
#533 = DIRECTION ( 'NONE',  ( -0.000000000000000000, -1.000000000000000000, -0.000000000000000000 ) ) ;
#534 = STYLED_ITEM ( 'NONE', ( #894 ), #25 ) ;
#535 = DIRECTION ( 'NONE',  ( -0.000000000000000000, -1.000000000000000000, -0.000000000000000000 ) ) ;
#536 = VERTEX_POINT ( 'NONE', #812 ) ;
#537 = CARTESIAN_POINT ( 'NONE',  ( -39.63188015908392003, 10.00000000000000000, -4.000000000000003553 ) ) ;
#538 = EDGE_LOOP ( 'NONE', ( #666, #593, #513, #430 ) ) ;
#539 = ORIENTED_EDGE ( 'NONE', *, *, #31, .T. ) ;
#540 = FACE_OUTER_BOUND ( 'NONE', #586, .T. ) ;
#541 = ORIENTED_EDGE ( 'NONE', *, *, #31, .F. ) ;
#542 = LINE ( 'NONE', #718, #650 ) ;
#543 = CARTESIAN_POINT ( 'NONE',  ( -34.63188015908392714, 1.000000000000000222, 40.99999999999999289 ) ) ;
#544 = DIRECTION ( 'NONE',  ( -0.000000000000000000, -1.000000000000000000, -0.000000000000000000 ) ) ;
#545 = CARTESIAN_POINT ( 'NONE',  ( -31.63188015908393425, 1.000000000000000222, -4.000000000000010658 ) ) ;
#546 = ORIENTED_EDGE ( 'NONE', *, *, #765, .F. ) ;
#547 = ORIENTED_EDGE ( 'NONE', *, *, #15, .T. ) ;
#548 = ORIENTED_EDGE ( 'NONE', *, *, #884, .F. ) ;
#549 = DIRECTION ( 'NONE',  ( 0.000000000000000000, -0.000000000000000000, 1.000000000000000000 ) ) ;
#550 = CIRCLE ( 'NONE', #156, 3.000000000000002665 ) ;
#551 = FACE_BOUND ( 'NONE', #876, .T. ) ;
#552 = DIRECTION ( 'NONE',  ( -0.000000000000000000, -1.000000000000000000, -0.000000000000000000 ) ) ;
#553 =( GEOMETRIC_REPRESENTATION_CONTEXT ( 3 ) GLOBAL_UNCERTAINTY_ASSIGNED_CONTEXT ( ( #425 ) ) GLOBAL_UNIT_ASSIGNED_CONTEXT ( ( #820, #893, #45 ) ) REPRESENTATION_CONTEXT ( 'NONE', 'WORKASPACE' ) );
#554 = CARTESIAN_POINT ( 'NONE',  ( -37.63188015908393425, 1.000000000000000222, -4.000000000000010658 ) ) ;
#555 = CARTESIAN_POINT ( 'NONE',  ( -34.63188015908392714, 10.00000000000000000, 22.49999999999999289 ) ) ;
#556 = UNCERTAINTY_MEASURE_WITH_UNIT (LENGTH_MEASURE( 1.000000000000000082E-05 ), #78, 'distance_accuracy_value', 'NONE');
#557 = ADVANCED_BREP_SHAPE_REPRESENTATION ( '21631_03_089_gripper bracket_1 2K', ( #69, #58 ), #209 ) ;
#558 = CARTESIAN_POINT ( 'NONE',  ( -39.63188015908392003, 5.000000000000000000, 48.00000000000000000 ) ) ;
#559 = CIRCLE ( 'NONE', #205, 1.250000000000001110 ) ;
#560 = DIRECTION ( 'NONE',  ( 0.000000000000000000, 0.000000000000000000, 1.000000000000000000 ) ) ;
#561 =( NAMED_UNIT ( * ) PLANE_ANGLE_UNIT ( ) SI_UNIT ( $, .RADIAN. ) );
#562 = FILL_AREA_STYLE ('',( #369 ) ) ;
#563 = VERTEX_POINT ( 'NONE', #323 ) ;
#564 = DIRECTION ( 'NONE',  ( 0.000000000000000000, -1.000000000000000000, 0.000000000000000000 ) ) ;
#565 = ORIENTED_EDGE ( 'NONE', *, *, #665, .F. ) ;
#566 = CYLINDRICAL_SURFACE ( 'NONE', #645, 1.500000000000001332 ) ;
#567 = DIRECTION ( 'NONE',  ( -0.000000000000000000, -1.000000000000000000, -0.000000000000000000 ) ) ;
#568 = CIRCLE ( 'NONE', #452, 0.9999999999999974465 ) ;
#569 = EDGE_CURVE ( 'NONE', #283, #135, #598, .T. ) ;
#570 = AXIS2_PLACEMENT_3D ( 'NONE', #186, #102, #877 ) ;
#571 = SURFACE_SIDE_STYLE ('',( #387 ) ) ;
#572 = CARTESIAN_POINT ( 'NONE',  ( -31.63188015908393425, 2.449293598294712824E-16, -4.000000000000010658 ) ) ;
#573 = CARTESIAN_POINT ( 'NONE',  ( -29.63188015908391293, 0.000000000000000000, 65.00000000000000000 ) ) ;
#574 = FACE_OUTER_BOUND ( 'NONE', #655, .T. ) ;
#575 = EDGE_LOOP ( 'NONE', ( #606, #390 ) ) ;
#576 = DIRECTION ( 'NONE',  ( -1.000000000000000000, -0.000000000000000000, -0.000000000000000000 ) ) ;
#577 = ORIENTED_EDGE ( 'NONE', *, *, #743, .F. ) ;
#578 = VERTEX_POINT ( 'NONE', #521 ) ;
#579 = AXIS2_PLACEMENT_3D ( 'NONE', #762, #694, #475 ) ;
#580 = VECTOR ( 'NONE', #463, 1000.000000000000000 ) ;
#581 = EDGE_CURVE ( 'NONE', #806, #536, #24, .T. ) ;
#582 = DIRECTION ( 'NONE',  ( 1.000000000000000000, 0.000000000000000000, 0.000000000000000000 ) ) ;
#583 = ORIENTED_EDGE ( 'NONE', *, *, #109, .F. ) ;
#584 = ADVANCED_FACE ( 'NONE', ( #772, #528, #551, #232 ), #119, .F. ) ;
#585 = ORIENTED_EDGE ( 'NONE', *, *, #137, .F. ) ;
#586 = EDGE_LOOP ( 'NONE', ( #314, #778, #74, #403 ) ) ;
#587 = CARTESIAN_POINT ( 'NONE',  ( -34.63188015908392714, 14.80832611206852256, 35.99999999999999289 ) ) ;
#588 = CYLINDRICAL_SURFACE ( 'NONE', #237, 1.700000000000000178 ) ;
#589 = CARTESIAN_POINT ( 'NONE',  ( -29.63188015908392003, 10.00000000000000000, -4.000000000000005329 ) ) ;
#590 = EDGE_CURVE ( 'NONE', #471, #451, #113, .T. ) ;
#591 = AXIS2_PLACEMENT_3D ( 'NONE', #689, #700, #613 ) ;
#592 = DIRECTION ( 'NONE',  ( -0.000000000000000000, -1.000000000000000000, -0.000000000000000000 ) ) ;
#593 = ORIENTED_EDGE ( 'NONE', *, *, #651, .T. ) ;
#594 = DIRECTION ( 'NONE',  ( -0.000000000000000000, -1.000000000000000000, -0.000000000000000000 ) ) ;
#595 = ORIENTED_EDGE ( 'NONE', *, *, #488, .T. ) ;
#596 = VERTEX_POINT ( 'NONE', #337 ) ;
#597 = EDGE_LOOP ( 'NONE', ( #304, #627, #524, #716 ) ) ;
#598 = LINE ( 'NONE', #251, #398 ) ;
#599 = VECTOR ( 'NONE', #859, 1000.000000000000000 ) ;
#600 = CARTESIAN_POINT ( 'NONE',  ( -39.63188015908392003, 10.00000000000000000, 65.00000000000000000 ) ) ;
#601 = ORIENTED_EDGE ( 'NONE', *, *, #438, .T. ) ;
#602 = CARTESIAN_POINT ( 'NONE',  ( -34.63188015908392714, 10.00000000000000000, 23.49999999999998934 ) ) ;
#603 =( LENGTH_UNIT ( ) NAMED_UNIT ( * ) SI_UNIT ( .MILLI., .METRE. ) );
#604 = CARTESIAN_POINT ( 'NONE',  ( -29.63188015908392003, 0.000000000000000000, -4.000000000000005329 ) ) ;
#605 = VERTEX_POINT ( 'NONE', #117 ) ;
#606 = ORIENTED_EDGE ( 'NONE', *, *, #357, .F. ) ;
#607 = EDGE_CURVE ( 'NONE', #739, #135, #372, .T. ) ;
#608 = CARTESIAN_POINT ( 'NONE',  ( -34.63188015908392714, 14.80832611206852256, 34.29999999999999005 ) ) ;
#609 = CIRCLE ( 'NONE', #256, 3.000000000000002665 ) ;
#610 = CIRCLE ( 'NONE', #579, 1.700000000000000178 ) ;
#611 = LINE ( 'NONE', #204, #782 ) ;
#612 = DIRECTION ( 'NONE',  ( 0.000000000000000000, 0.000000000000000000, 1.000000000000000000 ) ) ;
#613 = DIRECTION ( 'NONE',  ( 0.000000000000000000, 0.000000000000000000, 1.000000000000000000 ) ) ;
#614 = DIRECTION ( 'NONE',  ( 0.000000000000000000, 0.000000000000000000, 1.000000000000000000 ) ) ;
#615 = EDGE_CURVE ( 'NONE', #724, #683, #761, .T. ) ;
#616 = DIRECTION ( 'NONE',  ( -0.000000000000000000, -1.000000000000000000, -0.000000000000000000 ) ) ;
#617 = VERTEX_POINT ( 'NONE', #532 ) ;
#618 = CARTESIAN_POINT ( 'NONE',  ( -25.38923947196462194, 5.000000000000000000, 40.50000000000000711 ) ) ;
#619 = ORIENTED_EDGE ( 'NONE', *, *, #615, .T. ) ;
#620 = CARTESIAN_POINT ( 'NONE',  ( -31.63188015908392714, 1.000000000000000222, 40.99999999999999289 ) ) ;
#621 = DIRECTION ( 'NONE',  ( 0.000000000000000000, 1.000000000000000000, 0.000000000000000000 ) ) ;
#622 = FACE_OUTER_BOUND ( 'NONE', #342, .T. ) ;
#623 = MECHANICAL_DESIGN_GEOMETRIC_PRESENTATION_REPRESENTATION (  '', ( #534 ), #553 ) ;
#624 = DIRECTION ( 'NONE',  ( -0.000000000000000000, -1.000000000000000000, -0.000000000000000000 ) ) ;
#625 = DIRECTION ( 'NONE',  ( -0.000000000000000000, -0.000000000000000000, -1.000000000000000000 ) ) ;
#626 = CARTESIAN_POINT ( 'NONE',  ( -39.63188015908392003, 10.00000000000000000, -4.000000000000003553 ) ) ;
#627 = ORIENTED_EDGE ( 'NONE', *, *, #313, .T. ) ;
#628 = DIRECTION ( 'NONE',  ( -1.000000000000000000, -0.000000000000000000, -0.000000000000000000 ) ) ;
#629 = VERTEX_POINT ( 'NONE', #604 ) ;
#630 = ORIENTED_EDGE ( 'NONE', *, *, #61, .T. ) ;
#631 = CARTESIAN_POINT ( 'NONE',  ( -34.63188015908392714, 2.449293598294712824E-16, 40.99999999999999289 ) ) ;
#632 =( NAMED_UNIT ( * ) SI_UNIT ( $, .STERADIAN. ) SOLID_ANGLE_UNIT ( ) );
#633 = CIRCLE ( 'NONE', #844, 0.9999999999999974465 ) ;
#634 = VECTOR ( 'NONE', #756, 1000.000000000000000 ) ;
#635 =( NAMED_UNIT ( * ) SI_UNIT ( $, .STERADIAN. ) SOLID_ANGLE_UNIT ( ) );
#636 = CARTESIAN_POINT ( 'NONE',  ( -37.63188015908393425, 2.449293598294712824E-16, -4.000000000000010658 ) ) ;
#637 = ORIENTED_EDGE ( 'NONE', *, *, #429, .T. ) ;
#638 = ADVANCED_FACE ( 'NONE', ( #751 ), #912, .F. ) ;
#639 = CARTESIAN_POINT ( 'NONE',  ( -39.63188015908392003, 5.000000000000000000, 49.25000000000000000 ) ) ;
#640 = CARTESIAN_POINT ( 'NONE',  ( -39.63188015908392003, 5.000000000000000000, 48.00000000000000000 ) ) ;
#641 = EDGE_CURVE ( 'NONE', #617, #386, #33, .T. ) ;
#642 = DIRECTION ( 'NONE',  ( 0.000000000000000000, 1.000000000000000000, 0.000000000000000000 ) ) ;
#643 = ORIENTED_EDGE ( 'NONE', *, *, #590, .T. ) ;
#644 = MECHANICAL_DESIGN_GEOMETRIC_PRESENTATION_REPRESENTATION (  '', ( #395 ), #215 ) ;
#645 = AXIS2_PLACEMENT_3D ( 'NONE', #476, #905, #614 ) ;
#646 = ORIENTED_EDGE ( 'NONE', *, *, #732, .F. ) ;
#647 =( NAMED_UNIT ( * ) SI_UNIT ( $, .STERADIAN. ) SOLID_ANGLE_UNIT ( ) );
#648 = VECTOR ( 'NONE', #404, 1000.000000000000000 ) ;
#649 = ADVANCED_FACE ( 'NONE', ( #279 ), #435, .F. ) ;
#650 = VECTOR ( 'NONE', #625, 1000.000000000000000 ) ;
#651 = EDGE_CURVE ( 'NONE', #182, #806, #81, .T. ) ;
#652 = PRODUCT_DEFINITION_SHAPE ( 'NONE', 'NONE',  #180 ) ;
#653 = VERTEX_POINT ( 'NONE', #194 ) ;
#654 = UNCERTAINTY_MEASURE_WITH_UNIT (LENGTH_MEASURE( 1.000000000000000082E-05 ), #168, 'distance_accuracy_value', 'NONE');
#655 = EDGE_LOOP ( 'NONE', ( #250, #646, #461, #247 ) ) ;
#656 = ORIENTED_EDGE ( 'NONE', *, *, #775, .F. ) ;
#657 = ORIENTED_EDGE ( 'NONE', *, *, #488, .F. ) ;
#658 = CARTESIAN_POINT ( 'NONE',  ( -39.63188015908392003, 5.000000000000000000, 46.75000000000000000 ) ) ;
#659 = FACE_BOUND ( 'NONE', #173, .T. ) ;
#660 = FACE_OUTER_BOUND ( 'NONE', #392, .T. ) ;
#661 = DIRECTION ( 'NONE',  ( 0.000000000000000000, 0.000000000000000000, 1.000000000000000000 ) ) ;
#662 = LINE ( 'NONE', #537, #259 ) ;
#663 = DIRECTION ( 'NONE',  ( -1.000000000000000000, 0.000000000000000000, 0.000000000000000000 ) ) ;
#664 = VERTEX_POINT ( 'NONE', #50 ) ;
#665 = EDGE_CURVE ( 'NONE', #324, #283, #454, .T. ) ;
#666 = ORIENTED_EDGE ( 'NONE', *, *, #414, .F. ) ;
#667 = CARTESIAN_POINT ( 'NONE',  ( -25.38923947196462194, 5.000000000000000000, 54.00000000000000711 ) ) ;
#668 = DIRECTION ( 'NONE',  ( 0.000000000000000000, 0.000000000000000000, -1.000000000000000000 ) ) ;
#669 = CIRCLE ( 'NONE', #140, 1.500000000000001332 ) ;
#670 = CYLINDRICAL_SURFACE ( 'NONE', #255, 1.250000000000001110 ) ;
#671 = DIRECTION ( 'NONE',  ( 1.000000000000000000, 0.000000000000000000, -1.734723475976806848E-16 ) ) ;
#672 = SURFACE_STYLE_USAGE ( .BOTH. , #269 ) ;
#673 = AXIS2_PLACEMENT_3D ( 'NONE', #752, #272, #675 ) ;
#674 = DIRECTION ( 'NONE',  ( -0.000000000000000000, -1.000000000000000000, -0.000000000000000000 ) ) ;
#675 = DIRECTION ( 'NONE',  ( 0.000000000000000000, 0.000000000000000000, 1.000000000000000000 ) ) ;
#676 = VERTEX_POINT ( 'NONE', #46 ) ;
#677 = DIRECTION ( 'NONE',  ( -1.000000000000000000, -0.000000000000000000, -0.000000000000000000 ) ) ;
#678 = EDGE_CURVE ( 'NONE', #133, #174, #837, .T. ) ;
#679 = PLANE ( 'NONE',  #64 ) ;
#680 = DIRECTION ( 'NONE',  ( 0.000000000000000000, -0.000000000000000000, 1.000000000000000000 ) ) ;
#681 = VECTOR ( 'NONE', #552, 1000.000000000000000 ) ;
#682 = VECTOR ( 'NONE', #14, 1000.000000000000000 ) ;
#683 = VERTEX_POINT ( 'NONE', #824 ) ;
#684 = AXIS2_PLACEMENT_3D ( 'NONE', #385, #328, #735 ) ;
#685 = CIRCLE ( 'NONE', #444, 1.500000000000001332 ) ;
#686 = AXIS2_PLACEMENT_3D ( 'NONE', #66, #621, #483 ) ;
#687 = AXIS2_PLACEMENT_3D ( 'NONE', #413, #416, #903 ) ;
#688 = EDGE_LOOP ( 'NONE', ( #203, #852 ) ) ;
#689 = CARTESIAN_POINT ( 'NONE',  ( -34.63188015908392714, 10.00000000000000000, 35.99999999999999289 ) ) ;
#690 = ORIENTED_EDGE ( 'NONE', *, *, #641, .T. ) ;
#691 = ORIENTED_EDGE ( 'NONE', *, *, #383, .T. ) ;
#692 = CARTESIAN_POINT ( 'NONE',  ( -39.63188015908392003, 0.000000000000000000, -4.000000000000003553 ) ) ;
#693 = EDGE_CURVE ( 'NONE', #605, #44, #54, .T. ) ;
#694 = DIRECTION ( 'NONE',  ( 0.000000000000000000, -1.000000000000000000, 0.000000000000000000 ) ) ;
#695 = LINE ( 'NONE', #75, #507 ) ;
#696 = STYLED_ITEM ( 'NONE', ( #218 ), #228 ) ;
#697 = CYLINDRICAL_SURFACE ( 'NONE', #520, 1.500000000000001332 ) ;
#698 = CYLINDRICAL_SURFACE ( 'NONE', #720, 1.250000000000001110 ) ;
#699 = ORIENTED_EDGE ( 'NONE', *, *, #99, .F. ) ;
#700 = DIRECTION ( 'NONE',  ( -0.000000000000000000, -1.000000000000000000, -0.000000000000000000 ) ) ;
#701 = CARTESIAN_POINT ( 'NONE',  ( -34.63188015908392714, 10.00000000000000000, 22.49999999999999289 ) ) ;
#702 = EDGE_CURVE ( 'NONE', #238, #563, #611, .T. ) ;
#703 = CARTESIAN_POINT ( 'NONE',  ( -34.63188015908392714, 14.80832611206852256, 35.99999999999999289 ) ) ;
#704 = DIRECTION ( 'NONE',  ( -0.000000000000000000, -1.000000000000000000, -0.000000000000000000 ) ) ;
#705 = ORIENTED_EDGE ( 'NONE', *, *, #730, .F. ) ;
#706 = DIRECTION ( 'NONE',  ( 0.000000000000000000, 0.000000000000000000, 1.000000000000000000 ) ) ;
#707 = PLANE ( 'NONE',  #780 ) ;
#708 = PRODUCT_CONTEXT ( 'NONE', #160, 'mechanical' ) ;
#709 = VERTEX_POINT ( 'NONE', #343 ) ;
#710 = CARTESIAN_POINT ( 'NONE',  ( -34.63188015908392714, 14.80832611206852256, 16.29999999999999005 ) ) ;
#711 = EDGE_CURVE ( 'NONE', #724, #238, #568, .T. ) ;
#712 = FACE_OUTER_BOUND ( 'NONE', #131, .T. ) ;
#713 = ADVANCED_FACE ( 'NONE', ( #412 ), #280, .F. ) ;
#714 = CARTESIAN_POINT ( 'NONE',  ( -39.63188015908392003, 10.00000000000000000, 65.00000000000000000 ) ) ;
#715 = EDGE_LOOP ( 'NONE', ( #462, #846, #595, #836 ) ) ;
#716 = ORIENTED_EDGE ( 'NONE', *, *, #457, .T. ) ;
#717 = SURFACE_STYLE_USAGE ( .BOTH. , #571 ) ;
#718 = CARTESIAN_POINT ( 'NONE',  ( -31.63188015908393425, 1.000000000000000222, -4.000000000000010658 ) ) ;
#719 = LINE ( 'NONE', #108, #580 ) ;
#720 = AXIS2_PLACEMENT_3D ( 'NONE', #303, #296, #151 ) ;
#721 = CIRCLE ( 'NONE', #345, 1.500000000000001332 ) ;
#722 = CARTESIAN_POINT ( 'NONE',  ( -39.63188015908392003, 10.00000000000000000, 65.00000000000000000 ) ) ;
#723 = UNCERTAINTY_MEASURE_WITH_UNIT (LENGTH_MEASURE( 1.000000000000000082E-05 ), #298, 'distance_accuracy_value', 'NONE');
#724 = VERTEX_POINT ( 'NONE', #602 ) ;
#725 = CARTESIAN_POINT ( 'NONE',  ( -37.63188015908393425, 1.000000000000000222, -4.000000000000010658 ) ) ;
#726 = VERTEX_POINT ( 'NONE', #219 ) ;
#727 = ORIENTED_EDGE ( 'NONE', *, *, #801, .T. ) ;
#728 = DIRECTION ( 'NONE',  ( -0.000000000000000000, -1.000000000000000000, -0.000000000000000000 ) ) ;
#729 = SHAPE_DEFINITION_REPRESENTATION ( #652, #557 ) ;
#730 = EDGE_CURVE ( 'NONE', #467, #284, #188, .T. ) ;
#731 = VECTOR ( 'NONE', #567, 1000.000000000000000 ) ;
#732 = EDGE_CURVE ( 'NONE', #458, #617, #491, .T. ) ;
#733 = ADVANCED_FACE ( 'NONE', ( #286 ), #566, .F. ) ;
#734 = CARTESIAN_POINT ( 'NONE',  ( -34.63188015908392714, 14.80832611206852256, 17.99999999999999289 ) ) ;
#735 = DIRECTION ( 'NONE',  ( 0.000000000000000000, 0.000000000000000000, -1.000000000000000000 ) ) ;
#736 = MECHANICAL_DESIGN_GEOMETRIC_PRESENTATION_REPRESENTATION (  '', ( #787 ), #861 ) ;
#737 = ORIENTED_EDGE ( 'NONE', *, *, #71, .T. ) ;
#738 = AXIS2_PLACEMENT_3D ( 'NONE', #857, #431, #439 ) ;
#739 = VERTEX_POINT ( 'NONE', #626 ) ;
#740 = LINE ( 'NONE', #146, #370 ) ;
#741 = CIRCLE ( 'NONE', #570, 0.9999999999999974465 ) ;
#742 = DIRECTION ( 'NONE',  ( 1.734723475976806848E-16, -0.000000000000000000, 1.000000000000000000 ) ) ;
#743 = EDGE_CURVE ( 'NONE', #238, #724, #633, .T. ) ;
#744 = PRESENTATION_LAYER_ASSIGNMENT (  '', '', ( #696 ) ) ;
#745 = DIRECTION ( 'NONE',  ( -1.000000000000000000, -0.000000000000000000, -0.000000000000000000 ) ) ;
#746 = VERTEX_POINT ( 'NONE', #132 ) ;
#747 = ORIENTED_EDGE ( 'NONE', *, *, #464, .T. ) ;
#748 = FILL_AREA_STYLE_COLOUR ( '', #47 ) ;
#749 = AXIS2_PLACEMENT_3D ( 'NONE', #474, #53, #612 ) ;
#750 = FILL_AREA_STYLE_COLOUR ( '', #150 ) ;
#751 = FACE_OUTER_BOUND ( 'NONE', #597, .T. ) ;
#752 = CARTESIAN_POINT ( 'NONE',  ( -39.63188015908392003, 5.000000000000000000, 60.00000000000000000 ) ) ;
#753 = DIRECTION ( 'NONE',  ( 0.000000000000000000, 0.000000000000000000, 1.000000000000000000 ) ) ;
#754 = ORIENTED_EDGE ( 'NONE', *, *, #344, .F. ) ;
#755 = CLOSED_SHELL ( 'NONE', ( #316, #234, #733, #509, #167, #248, #649, #851, #446, #236, #873, #172, #713, #855, #10, #494, #584, #519, #376, #501, #638, #514, #25, #228 ) ) ;
#756 = DIRECTION ( 'NONE',  ( -1.000000000000000000, -0.000000000000000000, -0.000000000000000000 ) ) ;
#757 = EDGE_CURVE ( 'NONE', #664, #605, #453, .T. ) ;
#758 = ORIENTED_EDGE ( 'NONE', *, *, #109, .T. ) ;
#759 = CARTESIAN_POINT ( 'NONE',  ( -25.38923947196462194, 5.000000000000000000, 42.00000000000000711 ) ) ;
#760 = FACE_BOUND ( 'NONE', #688, .T. ) ;
#761 = LINE ( 'NONE', #829, #508 ) ;
#762 = CARTESIAN_POINT ( 'NONE',  ( -34.63188015908392714, 1.000000000000000222, 17.99999999999999289 ) ) ;
#763 = ORIENTED_EDGE ( 'NONE', *, *, #268, .F. ) ;
#764 = CARTESIAN_POINT ( 'NONE',  ( -29.63188015908391293, 5.000000000000000000, 48.00000000000000000 ) ) ;
#765 = EDGE_CURVE ( 'NONE', #133, #158, #348, .T. ) ;
#766 = CARTESIAN_POINT ( 'NONE',  ( 0.000000000000000000, 10.00000000000000000, 0.000000000000000000 ) ) ;
#767 = ORIENTED_EDGE ( 'NONE', *, *, #231, .T. ) ;
#768 = DIRECTION ( 'NONE',  ( 0.000000000000000000, 0.000000000000000000, 1.000000000000000000 ) ) ;
#769 = DIRECTION ( 'NONE',  ( 1.000000000000000000, -0.000000000000000000, -1.005636797667714040E-16 ) ) ;
#770 = ORIENTED_EDGE ( 'NONE', *, *, #790, .F. ) ;
#771 = DIRECTION ( 'NONE',  ( -1.000000000000000000, -0.000000000000000000, -0.000000000000000000 ) ) ;
#772 = FACE_BOUND ( 'NONE', #525, .T. ) ;
#773 = CYLINDRICAL_SURFACE ( 'NONE', #505, 1.250000000000001110 ) ;
#774 = DIRECTION ( 'NONE',  ( -1.000000000000000000, -0.000000000000000000, -0.000000000000000000 ) ) ;
#775 = EDGE_CURVE ( 'NONE', #629, #676, #32, .T. ) ;
#776 = DIRECTION ( 'NONE',  ( -0.000000000000000000, -1.000000000000000000, 0.000000000000000000 ) ) ;
#777 = ORIENTED_EDGE ( 'NONE', *, *, #832, .F. ) ;
#778 = ORIENTED_EDGE ( 'NONE', *, *, #61, .F. ) ;
#779 = AXIS2_PLACEMENT_3D ( 'NONE', #263, #663, #803 ) ;
#780 = AXIS2_PLACEMENT_3D ( 'NONE', #210, #831, #480 ) ;
#781 = DIRECTION ( 'NONE',  ( -0.000000000000000000, -1.000000000000000000, -0.000000000000000000 ) ) ;
#782 = VECTOR ( 'NONE', #674, 1000.000000000000000 ) ;
#783 = APPLICATION_PROTOCOL_DEFINITION ( 'draft international standard', 'automotive_design', 1998, #426 ) ;
#784 = ORIENTED_EDGE ( 'NONE', *, *, #246, .F. ) ;
#785 = DIRECTION ( 'NONE',  ( -1.000000000000000000, 0.000000000000000000, -0.000000000000000000 ) ) ;
#786 = SURFACE_STYLE_USAGE ( .BOTH. , #377 ) ;
#787 = STYLED_ITEM ( 'NONE', ( #530 ), #234 ) ;
#788 = ORIENTED_EDGE ( 'NONE', *, *, #693, .F. ) ;
#789 = CARTESIAN_POINT ( 'NONE',  ( -29.63188015908392003, 0.000000000000000000, -4.000000000000005329 ) ) ;
#790 = EDGE_CURVE ( 'NONE', #578, #512, #800, .T. ) ;
#791 = FACE_OUTER_BOUND ( 'NONE', #523, .T. ) ;
#792 = LINE ( 'NONE', #554, #468 ) ;
#793 = FACE_OUTER_BOUND ( 'NONE', #866, .T. ) ;
#794 = CARTESIAN_POINT ( 'NONE',  ( -29.63188015908391648, 5.000000000000000000, 42.00000000000000711 ) ) ;
#795 = CARTESIAN_POINT ( 'NONE',  ( -29.63188015908391293, 5.000000000000000000, 54.00000000000000711 ) ) ;
#796 = DIRECTION ( 'NONE',  ( 0.000000000000000000, 0.000000000000000000, 1.000000000000000000 ) ) ;
#797 = EDGE_LOOP ( 'NONE', ( #541, #479 ) ) ;
#798 = PRODUCT ( '21631_03_089_gripper bracket_1 2K', '21631_03_089_gripper bracket_1 2K', '', ( #708 ) ) ;
#799 = DIRECTION ( 'NONE',  ( -0.000000000000000000, -1.000000000000000000, 0.000000000000000000 ) ) ;
#800 = LINE ( 'NONE', #835, #177 ) ;
#801 = EDGE_CURVE ( 'NONE', #428, #120, #609, .T. ) ;
#802 = FACE_OUTER_BOUND ( 'NONE', #40, .T. ) ;
#803 = DIRECTION ( 'NONE',  ( 0.000000000000000000, 0.000000000000000000, 1.000000000000000000 ) ) ;
#804 = LINE ( 'NONE', #126, #397 ) ;
#805 = DIRECTION ( 'NONE',  ( 0.000000000000000000, 0.000000000000000000, -1.000000000000000000 ) ) ;
#806 = VERTEX_POINT ( 'NONE', #424 ) ;
#807 = EDGE_CURVE ( 'NONE', #174, #709, #434, .T. ) ;
#808 = AXIS2_PLACEMENT_3D ( 'NONE', #794, #312, #162 ) ;
#809 = AXIS2_PLACEMENT_3D ( 'NONE', #335, #826, #410 ) ;
#810 = ORIENTED_EDGE ( 'NONE', *, *, #165, .T. ) ;
#811 = EDGE_LOOP ( 'NONE', ( #747, #691, #643, #737 ) ) ;
#812 = CARTESIAN_POINT ( 'NONE',  ( -39.63188015908392003, 5.000000000000000000, 55.50000000000000711 ) ) ;
#813 = ORIENTED_EDGE ( 'NONE', *, *, #678, .F. ) ;
#814 = DIRECTION ( 'NONE',  ( 0.000000000000000000, 0.000000000000000000, 1.000000000000000000 ) ) ;
#815 = CIRCLE ( 'NONE', #684, 0.9999999999999974465 ) ;
#816 = DIRECTION ( 'NONE',  ( 0.000000000000000000, 0.000000000000000000, 1.000000000000000000 ) ) ;
#817 = FACE_OUTER_BOUND ( 'NONE', #860, .T. ) ;
#818 = FILL_AREA_STYLE ('',( #748 ) ) ;
#819 = AXIS2_PLACEMENT_3D ( 'NONE', #703, #213, #415 ) ;
#820 =( LENGTH_UNIT ( ) NAMED_UNIT ( * ) SI_UNIT ( .MILLI., .METRE. ) );
#821 = FACE_BOUND ( 'NONE', #224, .T. ) ;
#822 = DIRECTION ( 'NONE',  ( -1.000000000000000000, -0.000000000000000000, -0.000000000000000000 ) ) ;
#823 = ORIENTED_EDGE ( 'NONE', *, *, #299, .F. ) ;
#824 = CARTESIAN_POINT ( 'NONE',  ( -34.63188015908392714, 1.000000000000000222, 23.49999999999998934 ) ) ;
#825 = CIRCLE ( 'NONE', #506, 1.250000000000001110 ) ;
#826 = DIRECTION ( 'NONE',  ( -1.000000000000000000, -0.000000000000000000, -0.000000000000000000 ) ) ;
#827 = PRESENTATION_LAYER_ASSIGNMENT (  '', '', ( #35 ) ) ;
#828 = DIRECTION ( 'NONE',  ( 0.000000000000000000, 0.000000000000000000, 1.000000000000000000 ) ) ;
#829 = CARTESIAN_POINT ( 'NONE',  ( -34.63188015908392714, 14.80832611206852256, 23.49999999999998934 ) ) ;
#830 = EDGE_LOOP ( 'NONE', ( #138, #899 ) ) ;
#831 = DIRECTION ( 'NONE',  ( 1.000000000000000000, 0.000000000000000000, 0.000000000000000000 ) ) ;
#832 = EDGE_CURVE ( 'NONE', #378, #676, #740, .T. ) ;
#833 = ORIENTED_EDGE ( 'NONE', *, *, #220, .F. ) ;
#834 = AXIS2_PLACEMENT_3D ( 'NONE', #191, #822, #814 ) ;
#835 = CARTESIAN_POINT ( 'NONE',  ( -34.63188015908392714, 14.80832611206852256, 19.69999999999999218 ) ) ;
#836 = ORIENTED_EDGE ( 'NONE', *, *, #581, .F. ) ;
#837 = CIRCLE ( 'NONE', #809, 1.250000000000001110 ) ;
#838 = DIRECTION ( 'NONE',  ( 0.000000000000000000, 1.000000000000000000, 0.000000000000000000 ) ) ;
#839 = LINE ( 'NONE', #230, #731 ) ;
#840 = FACE_OUTER_BOUND ( 'NONE', #8, .T. ) ;
#841 = DIRECTION ( 'NONE',  ( -0.000000000000000000, -1.000000000000000000, -0.000000000000000000 ) ) ;
#842 = EDGE_CURVE ( 'NONE', #386, #184, #527, .T. ) ;
#843 = DIRECTION ( 'NONE',  ( 0.000000000000000000, 0.000000000000000000, 1.000000000000000000 ) ) ;
#844 = AXIS2_PLACEMENT_3D ( 'NONE', #701, #59, #143 ) ;
#845 = CARTESIAN_POINT ( 'NONE',  ( -31.63188015908392714, 0.000000000000000000, 40.99999999999999289 ) ) ;
#846 = ORIENTED_EDGE ( 'NONE', *, *, #414, .T. ) ;
#847 = UNCERTAINTY_MEASURE_WITH_UNIT (LENGTH_MEASURE( 1.000000000000000082E-05 ), #422, 'distance_accuracy_value', 'NONE');
#848 = FILL_AREA_STYLE ('',( #223 ) ) ;
#849 = COLOUR_RGB ( '',0.5019607843137254832, 0.5019607843137254832, 0.5019607843137254832 ) ;
#850 = DIRECTION ( 'NONE',  ( 1.000000000000000000, 0.000000000000000000, 0.000000000000000000 ) ) ;
#851 = ADVANCED_FACE ( 'NONE', ( #889, #79, #161, #540, #11 ), #707, .F. ) ;
#852 = ORIENTED_EDGE ( 'NONE', *, *, #711, .T. ) ;
#853 = EDGE_CURVE ( 'NONE', #458, #184, #295, .T. ) ;
#854 = CARTESIAN_POINT ( 'NONE',  ( -37.63188015908393425, 2.449293598294712824E-16, -4.000000000000010658 ) ) ;
#855 = ADVANCED_FACE ( 'NONE', ( #481 ), #153, .T. ) ;
#856 = ORIENTED_EDGE ( 'NONE', *, *, #190, .F. ) ;
#857 = CARTESIAN_POINT ( 'NONE',  ( -31.63188015908393425, 1.000000000000000222, -4.000000000000010658 ) ) ;
#858 = ORIENTED_EDGE ( 'NONE', *, *, #884, .T. ) ;
#859 = DIRECTION ( 'NONE',  ( 0.000000000000000000, 0.000000000000000000, 1.000000000000000000 ) ) ;
#860 = EDGE_LOOP ( 'NONE', ( #264, #690, #261, #366 ) ) ;
#861 =( GEOMETRIC_REPRESENTATION_CONTEXT ( 3 ) GLOBAL_UNCERTAINTY_ASSIGNED_CONTEXT ( ( #723 ) ) GLOBAL_UNIT_ASSIGNED_CONTEXT ( ( #298, #149, #632 ) ) REPRESENTATION_CONTEXT ( 'NONE', 'WORKASPACE' ) );
#862 = VECTOR ( 'NONE', #582, 1000.000000000000000 ) ;
#863 = CARTESIAN_POINT ( 'NONE',  ( -29.63188015908391293, 5.000000000000000000, 60.00000000000000000 ) ) ;
#864 = LINE ( 'NONE', #473, #270 ) ;
#865 = AXIS2_PLACEMENT_3D ( 'NONE', #766, #838, #549 ) ;
#866 = EDGE_LOOP ( 'NONE', ( #76, #336, #28, #630 ) ) ;
#867 = ORIENTED_EDGE ( 'NONE', *, *, #333, .F. ) ;
#868 = EDGE_LOOP ( 'NONE', ( #486, #788 ) ) ;
#869 = DIRECTION ( 'NONE',  ( 0.000000000000000000, 0.000000000000000000, -1.000000000000000000 ) ) ;
#870 = VECTOR ( 'NONE', #359, 1000.000000000000000 ) ;
#871 = CIRCLE ( 'NONE', #89, 1.250000000000001110 ) ;
#872 = CARTESIAN_POINT ( 'NONE',  ( -39.63188015908392003, 0.000000000000000000, 65.00000000000000000 ) ) ;
#873 = ADVANCED_FACE ( 'NONE', ( #110, #659, #52, #878, #253 ), #436, .F. ) ;
#874 = ORIENTED_EDGE ( 'NONE', *, *, #231, .F. ) ;
#875 = CARTESIAN_POINT ( 'NONE',  ( -34.63188015908392714, 1.000000000000000222, 19.69999999999999218 ) ) ;
#876 = EDGE_LOOP ( 'NONE', ( #83, #909 ) ) ;
#877 = DIRECTION ( 'NONE',  ( 0.000000000000000000, 0.000000000000000000, -1.000000000000000000 ) ) ;
#878 = FACE_BOUND ( 'NONE', #450, .T. ) ;
#879 = VECTOR ( 'NONE', #94, 1000.000000000000000 ) ;
#880 = PRESENTATION_LAYER_ASSIGNMENT (  '', '', ( #787 ) ) ;
#881 = DIRECTION ( 'NONE',  ( 0.000000000000000000, 0.000000000000000000, -1.000000000000000000 ) ) ;
#882 = FILL_AREA_STYLE ('',( #750 ) ) ;
#883 = DIRECTION ( 'NONE',  ( 0.000000000000000000, 0.000000000000000000, 1.000000000000000000 ) ) ;
#884 = EDGE_CURVE ( 'NONE', #120, #240, #695, .T. ) ;
#885 = PRODUCT_DEFINITION_CONTEXT ( 'detailed design', #426, 'design' ) ;
#886 = ORIENTED_EDGE ( 'NONE', *, *, #374, .F. ) ;
#887 = VERTEX_POINT ( 'NONE', #233 ) ;
#888 = LINE ( 'NONE', #351, #95 ) ;
#889 = FACE_BOUND ( 'NONE', #797, .T. ) ;
#890 = DIRECTION ( 'NONE',  ( 1.000000000000000000, -0.000000000000000000, -1.005636797667714040E-16 ) ) ;
#891 = FACE_OUTER_BOUND ( 'NONE', #500, .T. ) ;
#892 = DIRECTION ( 'NONE',  ( -0.000000000000000000, -1.000000000000000000, -0.000000000000000000 ) ) ;
#893 =( NAMED_UNIT ( * ) PLANE_ANGLE_UNIT ( ) SI_UNIT ( $, .RADIAN. ) );
#894 = PRESENTATION_STYLE_ASSIGNMENT (( #672 ) ) ;
#895 = EDGE_CURVE ( 'NONE', #746, #240, #550, .T. ) ;
#896 = CARTESIAN_POINT ( 'NONE',  ( -34.63188015908392714, 1.000000000000000222, 35.99999999999999289 ) ) ;
#897 = EDGE_LOOP ( 'NONE', ( #867, #274 ) ) ;
#898 = VERTEX_POINT ( 'NONE', #573 ) ;
#899 = ORIENTED_EDGE ( 'NONE', *, *, #147, .F. ) ;
#900 = SURFACE_SIDE_STYLE ('',( #30 ) ) ;
#901 = CIRCLE ( 'NONE', #300, 1.250000000000001110 ) ;
#902 = SURFACE_STYLE_FILL_AREA ( #242 ) ;
#903 = DIRECTION ( 'NONE',  ( 0.000000000000000000, 0.000000000000000000, 1.000000000000000000 ) ) ;
#904 = LINE ( 'NONE', #600, #518 ) ;
#905 = DIRECTION ( 'NONE',  ( -1.000000000000000000, -0.000000000000000000, -0.000000000000000000 ) ) ;
#906 = CARTESIAN_POINT ( 'NONE',  ( -29.63188015908391293, 5.000000000000000000, 52.50000000000000711 ) ) ;
#907 = ORIENTED_EDGE ( 'NONE', *, *, #308, .F. ) ;
#908 = CARTESIAN_POINT ( 'NONE',  ( -34.63188015908392714, 1.000000000000000222, 40.99999999999999289 ) ) ;
#909 = ORIENTED_EDGE ( 'NONE', *, *, #448, .F. ) ;
#910 = DIRECTION ( 'NONE',  ( 0.000000000000000000, 0.000000000000000000, 1.000000000000000000 ) ) ;
#911 = MECHANICAL_DESIGN_GEOMETRIC_PRESENTATION_REPRESENTATION (  '', ( #696 ), #43 ) ;
#912 = CYLINDRICAL_SURFACE ( 'NONE', #57, 1.500000000000001332 ) ;
#913 = DIRECTION ( 'NONE',  ( 0.000000000000000000, 0.000000000000000000, 1.000000000000000000 ) ) ;
#914 = CYLINDRICAL_SURFACE ( 'NONE', #103, 1.700000000000000178 ) ;
ENDSEC;
END-ISO-10303-21;
