ISO-10303-21;
HEADER;
FILE_DESCRIPTION (( 'STEP AP214' ),
    '1' );
FILE_NAME ('21631_03_088_gripper bracket_2 3K.STEP',
    '2021-07-29T06:43:46',
    ( '' ),
    ( '' ),
    'SwSTEP 2.0',
    'SolidWorks 2018',
    '' );
FILE_SCHEMA (( 'AUTOMOTIVE_DESIGN' ));
ENDSEC;

DATA;
#1 = CARTESIAN_POINT ( 'NONE',  ( -39.63188015908393425, 0.000000000000000000, 0.000000000000000000 ) ) ;
#2 = DIRECTION ( 'NONE',  ( -0.000000000000000000, -1.000000000000000000, -0.000000000000000000 ) ) ;
#3 = DIRECTION ( 'NONE',  ( 0.000000000000000000, -1.000000000000000000, 0.000000000000000000 ) ) ;
#4 = VECTOR ( 'NONE', #457, 1000.000000000000000 ) ;
#5 = LINE ( 'NONE', #126, #672 ) ;
#6 = ORIENTED_EDGE ( 'NONE', *, *, #130, .T. ) ;
#7 = DIRECTION ( 'NONE',  ( 0.000000000000000000, 0.000000000000000000, -1.000000000000000000 ) ) ;
#8 = DIRECTION ( 'NONE',  ( 5.337610695313252124E-17, 0.000000000000000000, 1.000000000000000000 ) ) ;
#9 = EDGE_LOOP ( 'NONE', ( #675, #331 ) ) ;
#10 = CARTESIAN_POINT ( 'NONE',  ( -29.63188015908393425, 1.000000000000000000, 39.99999999999999289 ) ) ;
#11 = PLANE ( 'NONE',  #720 ) ;
#12 = EDGE_CURVE ( 'NONE', #321, #44, #291, .T. ) ;
#13 = DIRECTION ( 'NONE',  ( -0.000000000000000000, 1.000000000000000000, -0.000000000000000000 ) ) ;
#14 = CARTESIAN_POINT ( 'NONE',  ( -29.63188015908393425, 10.00000000000000000, 20.29999999999999361 ) ) ;
#15 = VECTOR ( 'NONE', #121, 1000.000000000000000 ) ;
#16 = ORIENTED_EDGE ( 'NONE', *, *, #231, .F. ) ;
#17 = CARTESIAN_POINT ( 'NONE',  ( -31.63188015908393425, 10.00000000000000178, 124.5000000000000000 ) ) ;
#18 = PRODUCT_DEFINITION_FORMATION_WITH_SPECIFIED_SOURCE ( 'ANY', '', #429, .NOT_KNOWN. ) ;
#19 = DIRECTION ( 'NONE',  ( -0.000000000000000000, -1.000000000000000000, -0.000000000000000000 ) ) ;
#20 = CARTESIAN_POINT ( 'NONE',  ( -26.63188015908393780, 0.000000000000000000, 0.000000000000000000 ) ) ;
#21 = CARTESIAN_POINT ( 'NONE',  ( -29.63188015908393425, 14.80832611206852434, 39.99999999999999289 ) ) ;
#22 = AXIS2_PLACEMENT_3D ( 'NONE', #583, #413, #232 ) ;
#23 = CIRCLE ( 'NONE', #622, 1.249999999999973355 ) ;
#24 = FILL_AREA_STYLE ('',( #667 ) ) ;
#25 = CYLINDRICAL_SURFACE ( 'NONE', #39, 3.000000000000002665 ) ;
#26 = SURFACE_STYLE_USAGE ( .BOTH. , #376 ) ;
#27 = VERTEX_POINT ( 'NONE', #229 ) ;
#28 = ORIENTED_EDGE ( 'NONE', *, *, #563, .T. ) ;
#29 =( LENGTH_UNIT ( ) NAMED_UNIT ( * ) SI_UNIT ( .MILLI., .METRE. ) );
#30 = STYLED_ITEM ( 'NONE', ( #694 ), #743 ) ;
#31 = EDGE_CURVE ( 'NONE', #228, #601, #175, .T. ) ;
#32 = FILL_AREA_STYLE ('',( #377 ) ) ;
#33 = APPLICATION_PROTOCOL_DEFINITION ( 'draft international standard', 'automotive_design', 1998, #380 ) ;
#34 = PRESENTATION_STYLE_ASSIGNMENT (( #104 ) ) ;
#35 =( NAMED_UNIT ( * ) PLANE_ANGLE_UNIT ( ) SI_UNIT ( $, .RADIAN. ) );
#36 = LINE ( 'NONE', #66, #587 ) ;
#37 = ORIENTED_EDGE ( 'NONE', *, *, #154, .T. ) ;
#38 = ORIENTED_EDGE ( 'NONE', *, *, #533, .F. ) ;
#39 = AXIS2_PLACEMENT_3D ( 'NONE', #355, #410, #7 ) ;
#40 = LINE ( 'NONE', #531, #607 ) ;
#41 = EDGE_CURVE ( 'NONE', #447, #321, #488, .T. ) ;
#42 = VECTOR ( 'NONE', #394, 1000.000000000000000 ) ;
#43 = VERTEX_POINT ( 'NONE', #712 ) ;
#44 = VERTEX_POINT ( 'NONE', #527 ) ;
#45 = ORIENTED_EDGE ( 'NONE', *, *, #443, .F. ) ;
#46 = ADVANCED_FACE ( 'NONE', ( #128 ), #25, .F. ) ;
#47 = CARTESIAN_POINT ( 'NONE',  ( -39.63188015908392714, 10.00000000000000000, 130.0000000000000000 ) ) ;
#48 = STYLED_ITEM ( 'NONE', ( #34 ), #749 ) ;
#49 = ADVANCED_FACE ( 'NONE', ( #473 ), #11, .T. ) ;
#50 = DIRECTION ( 'NONE',  ( -0.000000000000000000, -1.000000000000000000, -0.000000000000000000 ) ) ;
#51 = CIRCLE ( 'NONE', #646, 0.9999999999999974465 ) ;
#52 = VERTEX_POINT ( 'NONE', #65 ) ;
#53 = ORIENTED_EDGE ( 'NONE', *, *, #283, .T. ) ;
#54 = CARTESIAN_POINT ( 'NONE',  ( -29.63188015908393425, 14.80832611206852434, 21.99999999999999645 ) ) ;
#55 = DIRECTION ( 'NONE',  ( 0.000000000000000000, 0.000000000000000000, -1.000000000000000000 ) ) ;
#56 = EDGE_CURVE ( 'NONE', #576, #148, #673, .T. ) ;
#57 = PRESENTATION_LAYER_ASSIGNMENT (  '', '', ( #30 ) ) ;
#58 = DIRECTION ( 'NONE',  ( 0.000000000000000000, 0.000000000000000000, 1.000000000000000000 ) ) ;
#59 = APPLICATION_CONTEXT ( 'automotive_design' ) ;
#60 = CIRCLE ( 'NONE', #378, 1.700000000000000178 ) ;
#61 = CARTESIAN_POINT ( 'NONE',  ( -32.63188015908393425, 1.000000000000000000, 0.000000000000000000 ) ) ;
#62 = FACE_BOUND ( 'NONE', #9, .T. ) ;
#63 = EDGE_LOOP ( 'NONE', ( #133, #553, #501, #363 ) ) ;
#64 = ORIENTED_EDGE ( 'NONE', *, *, #706, .F. ) ;
#65 = CARTESIAN_POINT ( 'NONE',  ( -32.63188015908393425, 0.000000000000000000, 0.000000000000000000 ) ) ;
#66 = CARTESIAN_POINT ( 'NONE',  ( -39.63188015908393425, 10.00000000000000000, 0.000000000000000000 ) ) ;
#67 = AXIS2_PLACEMENT_3D ( 'NONE', #243, #204, #609 ) ;
#68 = EDGE_CURVE ( 'NONE', #621, #188, #512, .T. ) ;
#69 = COLOUR_RGB ( '',0.5019607843137254832, 0.5019607843137254832, 0.5019607843137254832 ) ;
#70 = CIRCLE ( 'NONE', #388, 1.250000000000001110 ) ;
#71 = ORIENTED_EDGE ( 'NONE', *, *, #41, .F. ) ;
#72 = ORIENTED_EDGE ( 'NONE', *, *, #12, .T. ) ;
#73 = DIRECTION ( 'NONE',  ( -0.000000000000000000, -1.000000000000000000, 0.000000000000000000 ) ) ;
#74 = PRESENTATION_LAYER_ASSIGNMENT (  '', '', ( #48 ) ) ;
#75 = FILL_AREA_STYLE_COLOUR ( '', #588 ) ;
#76 = EDGE_CURVE ( 'NONE', #44, #321, #626, .T. ) ;
#77 = DIRECTION ( 'NONE',  ( 0.000000000000000000, 0.000000000000000000, 1.000000000000000000 ) ) ;
#78 = SURFACE_STYLE_FILL_AREA ( #555 ) ;
#79 = VERTEX_POINT ( 'NONE', #699 ) ;
#80 = EDGE_LOOP ( 'NONE', ( #383, #114 ) ) ;
#81 = CARTESIAN_POINT ( 'NONE',  ( -29.63188015908393425, 1.000000000000000000, 27.49999999999984368 ) ) ;
#82 = EDGE_CURVE ( 'NONE', #701, #465, #51, .T. ) ;
#83 =( NAMED_UNIT ( * ) PLANE_ANGLE_UNIT ( ) SI_UNIT ( $, .RADIAN. ) );
#84 = CARTESIAN_POINT ( 'NONE',  ( -26.63188015908393780, 1.000000000000000000, 45.00000000000000000 ) ) ;
#85 = DIRECTION ( 'NONE',  ( -0.000000000000000000, 1.000000000000000000, -0.000000000000000000 ) ) ;
#86 = CYLINDRICAL_SURFACE ( 'NONE', #357, 1.250000000000001110 ) ;
#87 = VERTEX_POINT ( 'NONE', #1 ) ;
#88 = ORIENTED_EDGE ( 'NONE', *, *, #100, .T. ) ;
#89 =( NAMED_UNIT ( * ) SI_UNIT ( $, .STERADIAN. ) SOLID_ANGLE_UNIT ( ) );
#90 = CARTESIAN_POINT ( 'NONE',  ( -32.63188015908393425, 1.000000000000000000, 0.000000000000000000 ) ) ;
#91 = EDGE_CURVE ( 'NONE', #209, #414, #653, .T. ) ;
#92 = PRESENTATION_STYLE_ASSIGNMENT (( #728 ) ) ;
#93 = CIRCLE ( 'NONE', #99, 3.000000000000002665 ) ;
#94 = EDGE_LOOP ( 'NONE', ( #103, #655, #454, #455 ) ) ;
#95 = ORIENTED_EDGE ( 'NONE', *, *, #352, .F. ) ;
#96 = VERTEX_POINT ( 'NONE', #643 ) ;
#97 = ADVANCED_FACE ( 'NONE', ( #498 ), #285, .F. ) ;
#98 = CYLINDRICAL_SURFACE ( 'NONE', #747, 1.700000000000000178 ) ;
#99 = AXIS2_PLACEMENT_3D ( 'NONE', #456, #513, #753 ) ;
#100 = EDGE_CURVE ( 'NONE', #96, #621, #732, .T. ) ;
#101 = DIRECTION ( 'NONE',  ( 0.000000000000000000, 1.000000000000000000, 0.000000000000000000 ) ) ;
#102 = VERTEX_POINT ( 'NONE', #530 ) ;
#103 = ORIENTED_EDGE ( 'NONE', *, *, #431, .F. ) ;
#104 = SURFACE_STYLE_USAGE ( .BOTH. , #206 ) ;
#105 = DIRECTION ( 'NONE',  ( 0.000000000000000000, 0.000000000000000000, 1.000000000000000000 ) ) ;
#106 = COLOUR_RGB ( '',0.5019607843137254832, 0.5019607843137254832, 0.5019607843137254832 ) ;
#107 = CARTESIAN_POINT ( 'NONE',  ( -26.63188015908393780, 1.000000000000000000, 0.000000000000000000 ) ) ;
#108 = PRESENTATION_LAYER_ASSIGNMENT (  '', '', ( #662 ) ) ;
#109 = LINE ( 'NONE', #484, #382 ) ;
#110 = EDGE_LOOP ( 'NONE', ( #189, #733, #478, #45 ) ) ;
#111 = DIRECTION ( 'NONE',  ( -0.000000000000000000, 1.000000000000000000, -0.000000000000000000 ) ) ;
#112 = ORIENTED_EDGE ( 'NONE', *, *, #735, .T. ) ;
#113 = CARTESIAN_POINT ( 'NONE',  ( -19.63188015908393425, 10.00000000000000000, 0.000000000000000000 ) ) ;
#114 = ORIENTED_EDGE ( 'NONE', *, *, #31, .T. ) ;
#115 = CARTESIAN_POINT ( 'NONE',  ( -39.63188015908392714, 10.00000000000000000, 130.0000000000000000 ) ) ;
#116 = CARTESIAN_POINT ( 'NONE',  ( -29.63188015908393425, 1.000000000000000000, 21.99999999999999645 ) ) ;
#117 = EDGE_CURVE ( 'NONE', #576, #700, #633, .T. ) ;
#118 = DIRECTION ( 'NONE',  ( 0.000000000000000000, 1.000000000000000000, 0.000000000000000000 ) ) ;
#119 = DIRECTION ( 'NONE',  ( -0.000000000000000000, 1.000000000000000000, -0.000000000000000000 ) ) ;
#120 = FACE_BOUND ( 'NONE', #725, .T. ) ;
#121 = DIRECTION ( 'NONE',  ( 0.000000000000000000, 0.000000000000000000, 1.000000000000000000 ) ) ;
#122 = CIRCLE ( 'NONE', #446, 1.700000000000000178 ) ;
#123 = CARTESIAN_POINT ( 'NONE',  ( -29.63188015908393425, 1.000000000000000000, 25.49999999999985079 ) ) ;
#124 = DIRECTION ( 'NONE',  ( -0.000000000000000000, 1.000000000000000000, -0.000000000000000000 ) ) ;
#125 = MECHANICAL_DESIGN_GEOMETRIC_PRESENTATION_REPRESENTATION (  '', ( #205 ), #748 ) ;
#126 = CARTESIAN_POINT ( 'NONE',  ( -31.63188015908393425, 10.00000000000000000, 123.2500000000000142 ) ) ;
#127 = FACE_OUTER_BOUND ( 'NONE', #262, .T. ) ;
#128 = FACE_OUTER_BOUND ( 'NONE', #679, .T. ) ;
#129 = ORIENTED_EDGE ( 'NONE', *, *, #416, .T. ) ;
#130 = EDGE_CURVE ( 'NONE', #79, #332, #574, .T. ) ;
#131 = PLANE ( 'NONE',  #151 ) ;
#132 = ORIENTED_EDGE ( 'NONE', *, *, #337, .F. ) ;
#133 = ORIENTED_EDGE ( 'NONE', *, *, #599, .F. ) ;
#134 = CARTESIAN_POINT ( 'NONE',  ( -31.63188015908392714, 0.000000000000000000, 111.2500000000000000 ) ) ;
#135 = CARTESIAN_POINT ( 'NONE',  ( -26.63188015908393780, 0.000000000000000000, 45.00000000000000000 ) ) ;
#136 = DIRECTION ( 'NONE',  ( -1.334402673828313093E-16, -0.000000000000000000, -1.000000000000000000 ) ) ;
#137 = FILL_AREA_STYLE ('',( #604 ) ) ;
#138 = AXIS2_PLACEMENT_3D ( 'NONE', #539, #297, #366 ) ;
#139 = PRODUCT_DEFINITION_CONTEXT ( 'detailed design', #59, 'design' ) ;
#140 = FACE_BOUND ( 'NONE', #302, .T. ) ;
#141 = DIRECTION ( 'NONE',  ( -0.000000000000000000, -1.000000000000000000, 0.000000000000000000 ) ) ;
#142 = SURFACE_STYLE_USAGE ( .BOTH. , #492 ) ;
#143 = AXIS2_PLACEMENT_3D ( 'NONE', #222, #452, #759 ) ;
#144 = EDGE_CURVE ( 'NONE', #228, #464, #462, .T. ) ;
#145 = DIRECTION ( 'NONE',  ( 0.000000000000000000, 0.000000000000000000, 1.000000000000000000 ) ) ;
#146 =( LENGTH_UNIT ( ) NAMED_UNIT ( * ) SI_UNIT ( .MILLI., .METRE. ) );
#147 = LINE ( 'NONE', #20, #750 ) ;
#148 = VERTEX_POINT ( 'NONE', #134 ) ;
#149 = ORIENTED_EDGE ( 'NONE', *, *, #756, .T. ) ;
#150 = ORIENTED_EDGE ( 'NONE', *, *, #56, .T. ) ;
#151 = AXIS2_PLACEMENT_3D ( 'NONE', #538, #298, #482 ) ;
#152 = AXIS2_PLACEMENT_3D ( 'NONE', #10, #295, #406 ) ;
#153 = ADVANCED_FACE ( 'NONE', ( #268 ), #684, .F. ) ;
#154 = EDGE_CURVE ( 'NONE', #332, #167, #109, .T. ) ;
#155 = ADVANCED_FACE ( 'NONE', ( #722 ), #86, .F. ) ;
#156 = COLOUR_RGB ( '',0.5019607843137254832, 0.5019607843137254832, 0.5019607843137254832 ) ;
#157 = VECTOR ( 'NONE', #402, 1000.000000000000000 ) ;
#158 = EDGE_LOOP ( 'NONE', ( #280, #132, #390, #72 ) ) ;
#159 = ORIENTED_EDGE ( 'NONE', *, *, #294, .F. ) ;
#160 = AXIS2_PLACEMENT_3D ( 'NONE', #435, #729, #145 ) ;
#161 = AXIS2_PLACEMENT_3D ( 'NONE', #171, #111, #58 ) ;
#162 = DIRECTION ( 'NONE',  ( 0.000000000000000000, 0.000000000000000000, -1.000000000000000000 ) ) ;
#163 = AXIS2_PLACEMENT_3D ( 'NONE', #571, #565, #692 ) ;
#164 = FACE_OUTER_BOUND ( 'NONE', #554, .T. ) ;
#165 = VECTOR ( 'NONE', #275, 1000.000000000000000 ) ;
#166 = VERTEX_POINT ( 'NONE', #308 ) ;
#167 = VERTEX_POINT ( 'NONE', #542 ) ;
#168 = CARTESIAN_POINT ( 'NONE',  ( -29.63188015908393780, 1.000000000000000000, 45.00000000000000000 ) ) ;
#169 = EDGE_CURVE ( 'NONE', #522, #464, #122, .T. ) ;
#170 = CARTESIAN_POINT ( 'NONE',  ( -29.63188015908393425, 1.000000000000000000, 20.29999999999999361 ) ) ;
#171 = CARTESIAN_POINT ( 'NONE',  ( -31.63188015908392714, 0.000000000000000000, 112.5000000000000000 ) ) ;
#172 = VECTOR ( 'NONE', #419, 1000.000000000000000 ) ;
#173 = CARTESIAN_POINT ( 'NONE',  ( -26.63188015908393780, 1.000000000000000000, 0.000000000000000000 ) ) ;
#174 = AXIS2_PLACEMENT_3D ( 'NONE', #90, #210, #674 ) ;
#175 = CIRCLE ( 'NONE', #409, 1.700000000000000178 ) ;
#176 = DIRECTION ( 'NONE',  ( -0.000000000000000000, -1.000000000000000000, -0.000000000000000000 ) ) ;
#177 = ORIENTED_EDGE ( 'NONE', *, *, #669, .T. ) ;
#178 = DIRECTION ( 'NONE',  ( -0.000000000000000000, -1.000000000000000000, -0.000000000000000000 ) ) ;
#179 = AXIS2_PLACEMENT_3D ( 'NONE', #585, #351, #581 ) ;
#180 = EDGE_CURVE ( 'NONE', #79, #43, #393, .T. ) ;
#181 = DIRECTION ( 'NONE',  ( 0.000000000000000000, 0.000000000000000000, -1.000000000000000000 ) ) ;
#182 = CARTESIAN_POINT ( 'NONE',  ( -39.63188015908393425, 0.000000000000000000, 0.000000000000000000 ) ) ;
#183 = SURFACE_STYLE_FILL_AREA ( #496 ) ;
#184 =( NAMED_UNIT ( * ) SI_UNIT ( $, .STERADIAN. ) SOLID_ANGLE_UNIT ( ) );
#185 = CYLINDRICAL_SURFACE ( 'NONE', #317, 1.700000000000000178 ) ;
#186 = DIRECTION ( 'NONE',  ( -0.000000000000000000, -1.000000000000000000, 0.000000000000000000 ) ) ;
#187 = ORIENTED_EDGE ( 'NONE', *, *, #309, .T. ) ;
#188 = VERTEX_POINT ( 'NONE', #192 ) ;
#189 = ORIENTED_EDGE ( 'NONE', *, *, #31, .F. ) ;
#190 = CARTESIAN_POINT ( 'NONE',  ( -29.63188015908393425, 14.80832611206852434, 23.69999999999999574 ) ) ;
#191 = CARTESIAN_POINT ( 'NONE',  ( -31.63188015908392714, 10.00000000000000178, 112.5000000000000000 ) ) ;
#192 = CARTESIAN_POINT ( 'NONE',  ( -26.63188015908393780, 1.000000000000000000, 45.00000000000000000 ) ) ;
#193 = DIRECTION ( 'NONE',  ( 0.000000000000000000, -0.000000000000000000, 1.000000000000000000 ) ) ;
#194 = PRESENTATION_LAYER_ASSIGNMENT (  '', '', ( #205 ) ) ;
#195 = CARTESIAN_POINT ( 'NONE',  ( -29.63188015908393425, 10.00000000000000000, 23.69999999999999574 ) ) ;
#196 = CYLINDRICAL_SURFACE ( 'NONE', #160, 1.249999999999987121 ) ;
#197 = CARTESIAN_POINT ( 'NONE',  ( -32.63188015908393425, 0.000000000000000000, 45.00000000000000000 ) ) ;
#198 = CYLINDRICAL_SURFACE ( 'NONE', #179, 0.9999999999999974465 ) ;
#199 = LINE ( 'NONE', #648, #290 ) ;
#200 = EDGE_LOOP ( 'NONE', ( #744, #500, #448, #508 ) ) ;
#201 = EDGE_CURVE ( 'NONE', #391, #27, #412, .T. ) ;
#202 = DIRECTION ( 'NONE',  ( 0.000000000000000000, 0.000000000000000000, 1.000000000000000000 ) ) ;
#203 = EDGE_LOOP ( 'NONE', ( #589, #642 ) ) ;
#204 = DIRECTION ( 'NONE',  ( -0.000000000000000000, 1.000000000000000000, -0.000000000000000000 ) ) ;
#205 = STYLED_ITEM ( 'NONE', ( #610 ), #155 ) ;
#206 = SURFACE_SIDE_STYLE ('',( #183 ) ) ;
#207 = EDGE_LOOP ( 'NONE', ( #475, #16, #634, #666 ) ) ;
#208 = VERTEX_POINT ( 'NONE', #469 ) ;
#209 = VERTEX_POINT ( 'NONE', #81 ) ;
#210 = DIRECTION ( 'NONE',  ( 1.000000000000000000, -0.000000000000000000, 0.000000000000000000 ) ) ;
#211 = EDGE_CURVE ( 'NONE', #166, #404, #5, .T. ) ;
#212 = CIRCLE ( 'NONE', #504, 1.249999999999973355 ) ;
#213 = FACE_BOUND ( 'NONE', #664, .T. ) ;
#214 = ORIENTED_EDGE ( 'NONE', *, *, #201, .T. ) ;
#215 = CARTESIAN_POINT ( 'NONE',  ( -29.63188015908393425, 14.80832611206852434, 25.49999999999985079 ) ) ;
#216 = VECTOR ( 'NONE', #421, 1000.000000000000000 ) ;
#217 = CARTESIAN_POINT ( 'NONE',  ( -31.63188015908393425, 0.000000000000000000, 125.7500000000000000 ) ) ;
#218 = ORIENTED_EDGE ( 'NONE', *, *, #201, .F. ) ;
#219 = EDGE_LOOP ( 'NONE', ( #397, #680 ) ) ;
#220 = DIRECTION ( 'NONE',  ( 0.000000000000000000, 0.000000000000000000, 1.000000000000000000 ) ) ;
#221 = PRESENTATION_LAYER_ASSIGNMENT (  '', '', ( #631 ) ) ;
#222 = CARTESIAN_POINT ( 'NONE',  ( -39.63188015908393425, 10.00000000000000000, 0.000000000000000000 ) ) ;
#223 = CARTESIAN_POINT ( 'NONE',  ( -29.63188015908393425, 10.00000000000000000, 39.99999999999999289 ) ) ;
#224 = VECTOR ( 'NONE', #305, 1000.000000000000000 ) ;
#225 = LINE ( 'NONE', #215, #389 ) ;
#226 = ORIENTED_EDGE ( 'NONE', *, *, #727, .F. ) ;
#227 = EDGE_LOOP ( 'NONE', ( #261, #740 ) ) ;
#228 = VERTEX_POINT ( 'NONE', #195 ) ;
#229 = CARTESIAN_POINT ( 'NONE',  ( -26.63188015908393780, 0.000000000000000000, 0.000000000000000000 ) ) ;
#230 = CARTESIAN_POINT ( 'NONE',  ( -29.63188015908393425, 10.00000000000000000, 38.29999999999999716 ) ) ;
#231 = EDGE_CURVE ( 'NONE', #292, #166, #708, .T. ) ;
#232 = DIRECTION ( 'NONE',  ( 1.334402673828313093E-16, 0.000000000000000000, 1.000000000000000000 ) ) ;
#233 = DIRECTION ( 'NONE',  ( -0.000000000000000000, -1.000000000000000000, -0.000000000000000000 ) ) ;
#234 = DIRECTION ( 'NONE',  ( 0.000000000000000000, 0.000000000000000000, 1.000000000000000000 ) ) ;
#235 = PRESENTATION_STYLE_ASSIGNMENT (( #26 ) ) ;
#236 = MECHANICAL_DESIGN_GEOMETRIC_PRESENTATION_REPRESENTATION (  '', ( #48 ), #760 ) ;
#237 = ORIENTED_EDGE ( 'NONE', *, *, #180, .F. ) ;
#238 = ORIENTED_EDGE ( 'NONE', *, *, #154, .F. ) ;
#239 = DIRECTION ( 'NONE',  ( -1.000000000000000000, 0.000000000000000000, 0.000000000000000000 ) ) ;
#240 = ORIENTED_EDGE ( 'NONE', *, *, #259, .T. ) ;
#241 = AXIS2_PLACEMENT_3D ( 'NONE', #399, #569, #220 ) ;
#242 = EDGE_CURVE ( 'NONE', #208, #447, #258, .T. ) ;
#243 = CARTESIAN_POINT ( 'NONE',  ( -31.63188015908392714, 10.00000000000000000, 112.5000000000000000 ) ) ;
#244 =( NAMED_UNIT ( * ) PLANE_ANGLE_UNIT ( ) SI_UNIT ( $, .RADIAN. ) );
#245 = VECTOR ( 'NONE', #638, 1000.000000000000000 ) ;
#246 = CARTESIAN_POINT ( 'NONE',  ( -29.63188015908393425, 14.80832611206852434, 27.49999999999984368 ) ) ;
#247 = LINE ( 'NONE', #656, #487 ) ;
#248 = ORIENTED_EDGE ( 'NONE', *, *, #169, .T. ) ;
#249 = ORIENTED_EDGE ( 'NONE', *, *, #211, .T. ) ;
#250 = SURFACE_SIDE_STYLE ('',( #318 ) ) ;
#251 = ORIENTED_EDGE ( 'NONE', *, *, #337, .T. ) ;
#252 = SURFACE_SIDE_STYLE ('',( #277 ) ) ;
#253 =( NAMED_UNIT ( * ) PLANE_ANGLE_UNIT ( ) SI_UNIT ( $, .RADIAN. ) );
#254 = UNCERTAINTY_MEASURE_WITH_UNIT (LENGTH_MEASURE( 1.000000000000000082E-05 ), #474, 'distance_accuracy_value', 'NONE');
#255 = CARTESIAN_POINT ( 'NONE',  ( -31.63188015908392714, 10.00000000000000000, 111.2500000000000142 ) ) ;
#256 = SURFACE_SIDE_STYLE ('',( #78 ) ) ;
#257 = FACE_OUTER_BOUND ( 'NONE', #340, .T. ) ;
#258 = CIRCLE ( 'NONE', #343, 1.700000000000000178 ) ;
#259 = EDGE_CURVE ( 'NONE', #43, #405, #247, .T. ) ;
#260 = FILL_AREA_STYLE_COLOUR ( '', #69 ) ;
#261 = ORIENTED_EDGE ( 'NONE', *, *, #169, .F. ) ;
#262 = EDGE_LOOP ( 'NONE', ( #440, #28, #507, #71 ) ) ;
#263 = CARTESIAN_POINT ( 'NONE',  ( -29.63188015908393425, 10.00000000000000000, 25.49999999999985079 ) ) ;
#264 = AXIS2_PLACEMENT_3D ( 'NONE', #549, #691, #636 ) ;
#265 = FILL_AREA_STYLE_COLOUR ( '', #106 ) ;
#266 = CIRCLE ( 'NONE', #558, 0.9999999999999974465 ) ;
#267 = ADVANCED_FACE ( 'NONE', ( #564 ), #551, .F. ) ;
#268 = FACE_OUTER_BOUND ( 'NONE', #158, .T. ) ;
#269 = CLOSED_SHELL ( 'NONE', ( #743, #267, #566, #324, #444, #624, #272, #329, #97, #562, #322, #49, #751, #46, #334, #685, #681, #153, #746, #155 ) ) ;
#270 = ORIENTED_EDGE ( 'NONE', *, *, #180, .T. ) ;
#271 = EDGE_CURVE ( 'NONE', #148, #403, #640, .T. ) ;
#272 = ADVANCED_FACE ( 'NONE', ( #348 ), #696, .F. ) ;
#273 = FACE_OUTER_BOUND ( 'NONE', #94, .T. ) ;
#274 = DIRECTION ( 'NONE',  ( 0.000000000000000000, 0.000000000000000000, 1.000000000000000000 ) ) ;
#275 = DIRECTION ( 'NONE',  ( -0.000000000000000000, -1.000000000000000000, -0.000000000000000000 ) ) ;
#276 = DIRECTION ( 'NONE',  ( -0.000000000000000000, -1.000000000000000000, -0.000000000000000000 ) ) ;
#277 = SURFACE_STYLE_FILL_AREA ( #137 ) ;
#278 = CARTESIAN_POINT ( 'NONE',  ( -31.63188015908393425, 0.000000000000000000, 124.5000000000000000 ) ) ;
#279 = EDGE_LOOP ( 'NONE', ( #177, #64, #349, #560 ) ) ;
#280 = ORIENTED_EDGE ( 'NONE', *, *, #563, .F. ) ;
#281 = ORIENTED_EDGE ( 'NONE', *, *, #651, .F. ) ;
#282 = DIRECTION ( 'NONE',  ( -0.000000000000000000, -1.000000000000000000, -0.000000000000000000 ) ) ;
#283 = EDGE_CURVE ( 'NONE', #578, #620, #93, .T. ) ;
#284 = UNCERTAINTY_MEASURE_WITH_UNIT (LENGTH_MEASURE( 1.000000000000000082E-05 ), #146, 'distance_accuracy_value', 'NONE');
#285 = PLANE ( 'NONE',  #22 ) ;
#286 = CARTESIAN_POINT ( 'NONE',  ( -31.63188015908393425, 10.00000000000000000, 125.7500000000000000 ) ) ;
#287 = PRODUCT_RELATED_PRODUCT_CATEGORY ( 'part', '', ( #429 ) ) ;
#288 = LINE ( 'NONE', #407, #445 ) ;
#289 = DIRECTION ( 'NONE',  ( -0.000000000000000000, -1.000000000000000000, -0.000000000000000000 ) ) ;
#290 = VECTOR ( 'NONE', #592, 1000.000000000000000 ) ;
#291 = CIRCLE ( 'NONE', #330, 1.700000000000000178 ) ;
#292 = VERTEX_POINT ( 'NONE', #217 ) ;
#293 = DIRECTION ( 'NONE',  ( 0.000000000000000000, 0.000000000000000000, 1.000000000000000000 ) ) ;
#294 = EDGE_CURVE ( 'NONE', #166, #292, #70, .T. ) ;
#295 = DIRECTION ( 'NONE',  ( 0.000000000000000000, -1.000000000000000000, 0.000000000000000000 ) ) ;
#296 = UNCERTAINTY_MEASURE_WITH_UNIT (LENGTH_MEASURE( 1.000000000000000082E-05 ), #315, 'distance_accuracy_value', 'NONE');
#297 = DIRECTION ( 'NONE',  ( -0.000000000000000000, -1.000000000000000000, -0.000000000000000000 ) ) ;
#298 = DIRECTION ( 'NONE',  ( 0.000000000000000000, 0.000000000000000000, 1.000000000000000000 ) ) ;
#299 = FACE_BOUND ( 'NONE', #203, .T. ) ;
#300 = ORIENTED_EDGE ( 'NONE', *, *, #706, .T. ) ;
#301 = DIRECTION ( 'NONE',  ( 0.000000000000000000, 0.000000000000000000, 1.000000000000000000 ) ) ;
#302 = EDGE_LOOP ( 'NONE', ( #251, #755 ) ) ;
#303 = DIRECTION ( 'NONE',  ( -1.000000000000000000, -0.000000000000000000, -0.000000000000000000 ) ) ;
#304 = ORIENTED_EDGE ( 'NONE', *, *, #463, .F. ) ;
#305 = DIRECTION ( 'NONE',  ( -0.000000000000000000, -1.000000000000000000, -0.000000000000000000 ) ) ;
#306 = CARTESIAN_POINT ( 'NONE',  ( -31.63188015908393425, 10.00000000000000000, 124.5000000000000000 ) ) ;
#307 = DIRECTION ( 'NONE',  ( 0.000000000000000000, 0.000000000000000000, 1.000000000000000000 ) ) ;
#308 = CARTESIAN_POINT ( 'NONE',  ( -31.63188015908393425, 0.000000000000000000, 123.2500000000000000 ) ) ;
#309 = EDGE_CURVE ( 'NONE', #148, #576, #359, .T. ) ;
#310 = LINE ( 'NONE', #347, #157 ) ;
#311 = VECTOR ( 'NONE', #537, 1000.000000000000000 ) ;
#312 = ORIENTED_EDGE ( 'NONE', *, *, #323, .F. ) ;
#313 = DIRECTION ( 'NONE',  ( -0.000000000000000000, 1.000000000000000000, -0.000000000000000000 ) ) ;
#314 = DIRECTION ( 'NONE',  ( 0.000000000000000000, 0.000000000000000000, 1.000000000000000000 ) ) ;
#315 =( LENGTH_UNIT ( ) NAMED_UNIT ( * ) SI_UNIT ( .MILLI., .METRE. ) );
#316 = FACE_OUTER_BOUND ( 'NONE', #711, .T. ) ;
#317 = AXIS2_PLACEMENT_3D ( 'NONE', #54, #276, #55 ) ;
#318 = SURFACE_STYLE_FILL_AREA ( #368 ) ;
#319 = CARTESIAN_POINT ( 'NONE',  ( -31.63188015908393425, 10.00000000000000000, 124.5000000000000000 ) ) ;
#320 = ORIENTED_EDGE ( 'NONE', *, *, #688, .F. ) ;
#321 = VERTEX_POINT ( 'NONE', #758 ) ;
#322 = ADVANCED_FACE ( 'NONE', ( #62, #625, #652 ), #761, .F. ) ;
#323 = EDGE_CURVE ( 'NONE', #403, #700, #511, .T. ) ;
#324 = ADVANCED_FACE ( 'NONE', ( #371 ), #185, .F. ) ;
#325 = COLOUR_RGB ( '',0.5019607843137254832, 0.5019607843137254832, 0.5019607843137254832 ) ;
#326 = APPLICATION_PROTOCOL_DEFINITION ( 'draft international standard', 'automotive_design', 1998, #59 ) ;
#327 = LINE ( 'NONE', #524, #660 ) ;
#328 = EDGE_LOOP ( 'NONE', ( #523, #270, #240, #535 ) ) ;
#329 = ADVANCED_FACE ( 'NONE', ( #541 ), #686, .F. ) ;
#330 = AXIS2_PLACEMENT_3D ( 'NONE', #467, #702, #181 ) ;
#331 = ORIENTED_EDGE ( 'NONE', *, *, #294, .T. ) ;
#332 = VERTEX_POINT ( 'NONE', #338 ) ;
#333 = CARTESIAN_POINT ( 'NONE',  ( -29.63188015908393425, 14.80832611206852434, 38.29999999999999716 ) ) ;
#334 = ADVANCED_FACE ( 'NONE', ( #213, #461, #731, #632 ), #517, .F. ) ;
#335 = DIRECTION ( 'NONE',  ( -0.000000000000000000, 1.000000000000000000, -0.000000000000000000 ) ) ;
#336 = AXIS2_PLACEMENT_3D ( 'NONE', #223, #282, #274 ) ;
#337 = EDGE_CURVE ( 'NONE', #447, #208, #497, .T. ) ;
#338 = CARTESIAN_POINT ( 'NONE',  ( -39.63188015908392714, 0.000000000000000000, 130.0000000000000000 ) ) ;
#339 = LINE ( 'NONE', #107, #42 ) ;
#340 = EDGE_LOOP ( 'NONE', ( #350, #320, #441, #248 ) ) ;
#341 = DIRECTION ( 'NONE',  ( -0.000000000000000000, 1.000000000000000000, -0.000000000000000000 ) ) ;
#342 = ORIENTED_EDGE ( 'NONE', *, *, #130, .F. ) ;
#343 = AXIS2_PLACEMENT_3D ( 'NONE', #364, #602, #301 ) ;
#344 = CARTESIAN_POINT ( 'NONE',  ( -29.63188015908393425, 1.000000000000000000, 26.49999999999984723 ) ) ;
#345 = VECTOR ( 'NONE', #141, 1000.000000000000000 ) ;
#346 = VECTOR ( 'NONE', #616, 1000.000000000000000 ) ;
#347 = CARTESIAN_POINT ( 'NONE',  ( -39.63188015908393425, 10.00000000000000000, 0.000000000000000000 ) ) ;
#348 = FACE_OUTER_BOUND ( 'NONE', #627, .T. ) ;
#349 = ORIENTED_EDGE ( 'NONE', *, *, #259, .F. ) ;
#350 = ORIENTED_EDGE ( 'NONE', *, *, #144, .F. ) ;
#351 = DIRECTION ( 'NONE',  ( -0.000000000000000000, -1.000000000000000000, -0.000000000000000000 ) ) ;
#352 = EDGE_CURVE ( 'NONE', #188, #543, #339, .T. ) ;
#353 = DIRECTION ( 'NONE',  ( -0.000000000000000000, -1.000000000000000000, -0.000000000000000000 ) ) ;
#354 = CARTESIAN_POINT ( 'NONE',  ( -31.63188015908393425, 10.00000000000000178, 123.2500000000000142 ) ) ;
#355 = CARTESIAN_POINT ( 'NONE',  ( -29.63188015908393780, 1.000000000000000000, 45.00000000000000000 ) ) ;
#356 = CARTESIAN_POINT ( 'NONE',  ( -29.63188015908393425, 1.000000000000000000, 23.69999999999999574 ) ) ;
#357 = AXIS2_PLACEMENT_3D ( 'NONE', #306, #13, #77 ) ;
#358 = DIRECTION ( 'NONE',  ( -1.000000000000000000, 0.000000000000000000, 0.000000000000000000 ) ) ;
#359 = CIRCLE ( 'NONE', #628, 1.250000000000001110 ) ;
#360 = DIRECTION ( 'NONE',  ( 0.000000000000000000, 0.000000000000000000, -1.000000000000000000 ) ) ;
#361 = ORIENTED_EDGE ( 'NONE', *, *, #379, .F. ) ;
#362 = EDGE_LOOP ( 'NONE', ( #724, #545, #654, #532 ) ) ;
#363 = ORIENTED_EDGE ( 'NONE', *, *, #629, .T. ) ;
#364 = CARTESIAN_POINT ( 'NONE',  ( -29.63188015908393425, 10.00000000000000000, 39.99999999999999289 ) ) ;
#365 = DIRECTION ( 'NONE',  ( 0.000000000000000000, 0.000000000000000000, -1.000000000000000000 ) ) ;
#366 = DIRECTION ( 'NONE',  ( 0.000000000000000000, 0.000000000000000000, -1.000000000000000000 ) ) ;
#367 = CARTESIAN_POINT ( 'NONE',  ( -29.63188015908393425, 14.80832611206852434, 21.99999999999999645 ) ) ;
#368 = FILL_AREA_STYLE ('',( #75 ) ) ;
#369 = EDGE_CURVE ( 'NONE', #701, #414, #225, .T. ) ;
#370 = FACE_OUTER_BOUND ( 'NONE', #546, .T. ) ;
#371 = FACE_OUTER_BOUND ( 'NONE', #110, .T. ) ;
#372 = ORIENTED_EDGE ( 'NONE', *, *, #629, .F. ) ;
#373 = PRODUCT_DEFINITION_SHAPE ( 'NONE', 'NONE',  #645 ) ;
#374 = ORIENTED_EDGE ( 'NONE', *, *, #449, .T. ) ;
#375 = SURFACE_STYLE_USAGE ( .BOTH. , #250 ) ;
#376 = SURFACE_SIDE_STYLE ('',( #450 ) ) ;
#377 = FILL_AREA_STYLE_COLOUR ( '', #325 ) ;
#378 = AXIS2_PLACEMENT_3D ( 'NONE', #116, #408, #415 ) ;
#379 = EDGE_CURVE ( 'NONE', #102, #79, #310, .T. ) ;
#380 = APPLICATION_CONTEXT ( 'automotive_design' ) ;
#381 = VECTOR ( 'NONE', #85, 1000.000000000000000 ) ;
#382 = VECTOR ( 'NONE', #717, 1000.000000000000000 ) ;
#383 = ORIENTED_EDGE ( 'NONE', *, *, #688, .T. ) ;
#384 = ORIENTED_EDGE ( 'NONE', *, *, #12, .F. ) ;
#385 = CARTESIAN_POINT ( 'NONE',  ( -31.63188015908393425, 10.00000000000000178, 124.5000000000000000 ) ) ;
#386 = CARTESIAN_POINT ( 'NONE',  ( -39.63188015908393425, 0.000000000000000000, 0.000000000000000000 ) ) ;
#387 = VECTOR ( 'NONE', #73, 1000.000000000000000 ) ;
#388 = AXIS2_PLACEMENT_3D ( 'NONE', #278, #341, #690 ) ;
#389 = VECTOR ( 'NONE', #50, 1000.000000000000000 ) ;
#390 = ORIENTED_EDGE ( 'NONE', *, *, #41, .T. ) ;
#391 = VERTEX_POINT ( 'NONE', #704 ) ;
#392 = EDGE_CURVE ( 'NONE', #87, #332, #401, .T. ) ;
#393 = LINE ( 'NONE', #726, #216 ) ;
#394 = DIRECTION ( 'NONE',  ( -0.000000000000000000, -0.000000000000000000, -1.000000000000000000 ) ) ;
#395 = ORIENTED_EDGE ( 'NONE', *, *, #521, .T. ) ;
#396 = ORIENTED_EDGE ( 'NONE', *, *, #100, .F. ) ;
#397 = ORIENTED_EDGE ( 'NONE', *, *, #481, .F. ) ;
#398 = PRODUCT_CONTEXT ( 'NONE', #380, 'mechanical' ) ;
#399 = CARTESIAN_POINT ( 'NONE',  ( -31.63188015908392714, 10.00000000000000178, 112.5000000000000000 ) ) ;
#400 = LINE ( 'NONE', #476, #387 ) ;
#401 = LINE ( 'NONE', #182, #663 ) ;
#402 = DIRECTION ( 'NONE',  ( 5.337610695313252124E-17, 0.000000000000000000, 1.000000000000000000 ) ) ;
#403 = VERTEX_POINT ( 'NONE', #466 ) ;
#404 = VERTEX_POINT ( 'NONE', #354 ) ;
#405 = VERTEX_POINT ( 'NONE', #113 ) ;
#406 = DIRECTION ( 'NONE',  ( 0.000000000000000000, 0.000000000000000000, -1.000000000000000000 ) ) ;
#407 = CARTESIAN_POINT ( 'NONE',  ( -19.63188015908391648, 10.00000000000000000, 130.0000000000000000 ) ) ;
#408 = DIRECTION ( 'NONE',  ( 0.000000000000000000, -1.000000000000000000, 0.000000000000000000 ) ) ;
#409 = AXIS2_PLACEMENT_3D ( 'NONE', #518, #178, #293 ) ;
#410 = DIRECTION ( 'NONE',  ( -0.000000000000000000, -1.000000000000000000, 0.000000000000000000 ) ) ;
#411 = FACE_OUTER_BOUND ( 'NONE', #328, .T. ) ;
#412 = LINE ( 'NONE', #595, #752 ) ;
#413 = DIRECTION ( 'NONE',  ( -1.000000000000000000, 0.000000000000000000, 1.334402673828313093E-16 ) ) ;
#414 = VERTEX_POINT ( 'NONE', #123 ) ;
#415 = DIRECTION ( 'NONE',  ( 0.000000000000000000, 0.000000000000000000, -1.000000000000000000 ) ) ;
#416 = EDGE_CURVE ( 'NONE', #102, #87, #36, .T. ) ;
#417 = ORIENTED_EDGE ( 'NONE', *, *, #570, .T. ) ;
#418 = DIRECTION ( 'NONE',  ( 0.000000000000000000, -1.000000000000000000, 0.000000000000000000 ) ) ;
#419 = DIRECTION ( 'NONE',  ( -0.000000000000000000, -1.000000000000000000, -0.000000000000000000 ) ) ;
#420 = CARTESIAN_POINT ( 'NONE',  ( -32.63188015908393425, 1.000000000000000000, 45.00000000000000000 ) ) ;
#421 = DIRECTION ( 'NONE',  ( 1.000000000000000000, 0.000000000000000000, 0.000000000000000000 ) ) ;
#422 = LINE ( 'NONE', #246, #224 ) ;
#423 = VECTOR ( 'NONE', #289, 1000.000000000000000 ) ;
#424 = EDGE_LOOP ( 'NONE', ( #567, #218, #689, #238, #439, #687, #577, #53 ) ) ;
#425 = DIRECTION ( 'NONE',  ( -0.000000000000000000, 1.000000000000000000, -0.000000000000000000 ) ) ;
#426 = ORIENTED_EDGE ( 'NONE', *, *, #392, .T. ) ;
#427 = DIRECTION ( 'NONE',  ( -0.000000000000000000, -0.000000000000000000, -1.000000000000000000 ) ) ;
#428 = MECHANICAL_DESIGN_GEOMETRIC_PRESENTATION_REPRESENTATION (  '', ( #662 ), #754 ) ;
#429 = PRODUCT ( '21631_03_088_gripper bracket_2 3K', '21631_03_088_gripper bracket_2 3K', '', ( #398 ) ) ;
#430 = CARTESIAN_POINT ( 'NONE',  ( -32.63188015908393425, 1.000000000000000000, 45.00000000000000000 ) ) ;
#431 = EDGE_CURVE ( 'NONE', #465, #701, #608, .T. ) ;
#432 = LINE ( 'NONE', #590, #4 ) ;
#433 =( NAMED_UNIT ( * ) SI_UNIT ( $, .STERADIAN. ) SOLID_ANGLE_UNIT ( ) );
#434 = EDGE_LOOP ( 'NONE', ( #37, #635, #237, #6 ) ) ;
#435 = CARTESIAN_POINT ( 'NONE',  ( -31.63188015908392714, 10.00000000000000000, 112.5000000000000000 ) ) ;
#436 = MECHANICAL_DESIGN_GEOMETRIC_PRESENTATION_REPRESENTATION (  '', ( #631 ), #597 ) ;
#437 =( NAMED_UNIT ( * ) SI_UNIT ( $, .STERADIAN. ) SOLID_ANGLE_UNIT ( ) );
#438 = CYLINDRICAL_SURFACE ( 'NONE', #705, 0.9999999999999974465 ) ;
#439 = ORIENTED_EDGE ( 'NONE', *, *, #392, .F. ) ;
#440 = ORIENTED_EDGE ( 'NONE', *, *, #242, .F. ) ;
#441 = ORIENTED_EDGE ( 'NONE', *, *, #443, .T. ) ;
#442 =( NAMED_UNIT ( * ) PLANE_ANGLE_UNIT ( ) SI_UNIT ( $, .RADIAN. ) );
#443 = EDGE_CURVE ( 'NONE', #601, #522, #199, .T. ) ;
#444 = ADVANCED_FACE ( 'NONE', ( #273 ), #198, .F. ) ;
#445 = VECTOR ( 'NONE', #233, 1000.000000000000000 ) ;
#446 = AXIS2_PLACEMENT_3D ( 'NONE', #603, #418, #723 ) ;
#447 = VERTEX_POINT ( 'NONE', #230 ) ;
#448 = ORIENTED_EDGE ( 'NONE', *, *, #117, .T. ) ;
#449 = EDGE_CURVE ( 'NONE', #96, #52, #432, .T. ) ;
#450 = SURFACE_STYLE_FILL_AREA ( #32 ) ;
#451 = FACE_BOUND ( 'NONE', #534, .T. ) ;
#452 = DIRECTION ( 'NONE',  ( 1.000000000000000000, 0.000000000000000000, -5.337610695313252124E-17 ) ) ;
#453 = EDGE_LOOP ( 'NONE', ( #304, #745, #88, #417 ) ) ;
#454 = ORIENTED_EDGE ( 'NONE', *, *, #91, .T. ) ;
#455 = ORIENTED_EDGE ( 'NONE', *, *, #369, .F. ) ;
#456 = CARTESIAN_POINT ( 'NONE',  ( -29.63188015908393780, 0.000000000000000000, 45.00000000000000000 ) ) ;
#457 = DIRECTION ( 'NONE',  ( -0.000000000000000000, -1.000000000000000000, 0.000000000000000000 ) ) ;
#458 = AXIS2_PLACEMENT_3D ( 'NONE', #736, #730, #671 ) ;
#459 = CARTESIAN_POINT ( 'NONE',  ( -29.63188015908393780, 1.000000000000000000, 45.00000000000000000 ) ) ;
#460 = LINE ( 'NONE', #430, #559 ) ;
#461 = FACE_BOUND ( 'NONE', #227, .T. ) ;
#462 = LINE ( 'NONE', #190, #619 ) ;
#463 = EDGE_CURVE ( 'NONE', #52, #578, #739, .T. ) ;
#464 = VERTEX_POINT ( 'NONE', #356 ) ;
#465 = VERTEX_POINT ( 'NONE', #644 ) ;
#466 = CARTESIAN_POINT ( 'NONE',  ( -31.63188015908392714, 10.00000000000000178, 111.2500000000000142 ) ) ;
#467 = CARTESIAN_POINT ( 'NONE',  ( -29.63188015908393425, 1.000000000000000000, 39.99999999999999289 ) ) ;
#468 = DIRECTION ( 'NONE',  ( 0.000000000000000000, 0.000000000000000000, -1.000000000000000000 ) ) ;
#469 = CARTESIAN_POINT ( 'NONE',  ( -29.63188015908393425, 10.00000000000000000, 41.69999999999999574 ) ) ;
#470 = CARTESIAN_POINT ( 'NONE',  ( -29.63188015908393425, 14.80832611206852434, 26.49999999999984723 ) ) ;
#471 = FACE_BOUND ( 'NONE', #80, .T. ) ;
#472 = FACE_OUTER_BOUND ( 'NONE', #453, .T. ) ;
#473 = FACE_OUTER_BOUND ( 'NONE', #63, .T. ) ;
#474 =( LENGTH_UNIT ( ) NAMED_UNIT ( * ) SI_UNIT ( .MILLI., .METRE. ) );
#475 = ORIENTED_EDGE ( 'NONE', *, *, #211, .F. ) ;
#476 = CARTESIAN_POINT ( 'NONE',  ( -26.63188015908393780, 1.000000000000000000, 0.000000000000000000 ) ) ;
#477 = AXIS2_PLACEMENT_3D ( 'NONE', #168, #101, #575 ) ;
#478 = ORIENTED_EDGE ( 'NONE', *, *, #509, .T. ) ;
#479 = DIRECTION ( 'NONE',  ( -1.000000000000000000, -0.000000000000000000, -0.000000000000000000 ) ) ;
#480 = DIRECTION ( 'NONE',  ( -0.000000000000000000, -1.000000000000000000, -0.000000000000000000 ) ) ;
#481 = EDGE_CURVE ( 'NONE', #414, #209, #266, .T. ) ;
#482 = DIRECTION ( 'NONE',  ( 1.000000000000000000, 0.000000000000000000, -0.000000000000000000 ) ) ;
#483 = CYLINDRICAL_SURFACE ( 'NONE', #715, 1.250000000000001110 ) ;
#484 = CARTESIAN_POINT ( 'NONE',  ( -39.63188015908392714, 0.000000000000000000, 130.0000000000000000 ) ) ;
#485 = CIRCLE ( 'NONE', #765, 1.249999999999987121 ) ;
#486 = CARTESIAN_POINT ( 'NONE',  ( -29.63188015908393425, 14.80832611206852434, 41.69999999999999574 ) ) ;
#487 = VECTOR ( 'NONE', #136, 1000.000000000000000 ) ;
#488 = LINE ( 'NONE', #333, #165 ) ;
#489 =( NAMED_UNIT ( * ) SI_UNIT ( $, .STERADIAN. ) SOLID_ANGLE_UNIT ( ) );
#490 = PLANE ( 'NONE',  #174 ) ;
#491 = MECHANICAL_DESIGN_GEOMETRIC_PRESENTATION_REPRESENTATION (  '', ( #741 ), #573 ) ;
#492 = SURFACE_SIDE_STYLE ('',( #697 ) ) ;
#493 =( LENGTH_UNIT ( ) NAMED_UNIT ( * ) SI_UNIT ( .MILLI., .METRE. ) );
#494 = AXIS2_PLACEMENT_3D ( 'NONE', #21, #716, #365 ) ;
#495 = EDGE_CURVE ( 'NONE', #43, #167, #288, .T. ) ;
#496 = FILL_AREA_STYLE ('',( #260 ) ) ;
#497 = CIRCLE ( 'NONE', #336, 1.700000000000000178 ) ;
#498 = FACE_OUTER_BOUND ( 'NONE', #279, .T. ) ;
#499 = CARTESIAN_POINT ( 'NONE',  ( -19.63188015908393425, 10.00000000000000000, 0.000000000000000000 ) ) ;
#500 = ORIENTED_EDGE ( 'NONE', *, *, #56, .F. ) ;
#501 = ORIENTED_EDGE ( 'NONE', *, *, #352, .T. ) ;
#502 = CARTESIAN_POINT ( 'NONE',  ( -31.63188015908393425, 10.00000000000000178, 125.7499999999999716 ) ) ;
#503 =( NAMED_UNIT ( * ) SI_UNIT ( $, .STERADIAN. ) SOLID_ANGLE_UNIT ( ) );
#504 = AXIS2_PLACEMENT_3D ( 'NONE', #385, #313, #314 ) ;
#505 = AXIS2_PLACEMENT_3D ( 'NONE', #582, #3, #639 ) ;
#506 = LINE ( 'NONE', #286, #695 ) ;
#507 = ORIENTED_EDGE ( 'NONE', *, *, #76, .T. ) ;
#508 = ORIENTED_EDGE ( 'NONE', *, *, #617, .T. ) ;
#509 = EDGE_CURVE ( 'NONE', #464, #522, #60, .T. ) ;
#510 =( GEOMETRIC_REPRESENTATION_CONTEXT ( 3 ) GLOBAL_UNCERTAINTY_ASSIGNED_CONTEXT ( ( #296 ) ) GLOBAL_UNIT_ASSIGNED_CONTEXT ( ( #315, #35, #437 ) ) REPRESENTATION_CONTEXT ( 'NONE', 'WORKASPACE' ) );
#511 = CIRCLE ( 'NONE', #241, 1.249999999999987121 ) ;
#512 = CIRCLE ( 'NONE', #766, 3.000000000000002665 ) ;
#513 = DIRECTION ( 'NONE',  ( 0.000000000000000000, 1.000000000000000000, 0.000000000000000000 ) ) ;
#514 = ORIENTED_EDGE ( 'NONE', *, *, #369, .T. ) ;
#515 = DIRECTION ( 'NONE',  ( -1.000000000000000000, 0.000000000000000000, -0.000000000000000000 ) ) ;
#516 = AXIS2_PLACEMENT_3D ( 'NONE', #528, #2, #703 ) ;
#517 = PLANE ( 'NONE',  #477 ) ;
#518 = CARTESIAN_POINT ( 'NONE',  ( -29.63188015908393425, 10.00000000000000000, 21.99999999999999645 ) ) ;
#519 = VECTOR ( 'NONE', #676, 1000.000000000000000 ) ;
#520 = DIRECTION ( 'NONE',  ( 0.000000000000000000, -1.000000000000000000, 0.000000000000000000 ) ) ;
#521 = EDGE_CURVE ( 'NONE', #543, #96, #40, .T. ) ;
#522 = VERTEX_POINT ( 'NONE', #170 ) ;
#523 = ORIENTED_EDGE ( 'NONE', *, *, #379, .T. ) ;
#524 = CARTESIAN_POINT ( 'NONE',  ( -39.63188015908393425, 10.00000000000000000, 0.000000000000000000 ) ) ;
#525 = UNCERTAINTY_MEASURE_WITH_UNIT (LENGTH_MEASURE( 1.000000000000000082E-05 ), #493, 'distance_accuracy_value', 'NONE');
#526 = PLANE ( 'NONE',  #719 ) ;
#527 = CARTESIAN_POINT ( 'NONE',  ( -29.63188015908393425, 1.000000000000000000, 41.69999999999999574 ) ) ;
#528 = CARTESIAN_POINT ( 'NONE',  ( -29.63188015908393425, 10.00000000000000000, 26.49999999999984723 ) ) ;
#529 = FACE_OUTER_BOUND ( 'NONE', #200, .T. ) ;
#530 = CARTESIAN_POINT ( 'NONE',  ( -39.63188015908393425, 10.00000000000000000, 0.000000000000000000 ) ) ;
#531 = CARTESIAN_POINT ( 'NONE',  ( -26.63188015908393780, 1.000000000000000000, 0.000000000000000000 ) ) ;
#532 = ORIENTED_EDGE ( 'NONE', *, *, #117, .F. ) ;
#533 = EDGE_CURVE ( 'NONE', #292, #710, #506, .T. ) ;
#534 = EDGE_LOOP ( 'NONE', ( #226, #281 ) ) ;
#535 = ORIENTED_EDGE ( 'NONE', *, *, #548, .T. ) ;
#536 = DIRECTION ( 'NONE',  ( -1.334402673828313093E-16, -0.000000000000000000, -1.000000000000000000 ) ) ;
#537 = DIRECTION ( 'NONE',  ( -0.000000000000000000, 1.000000000000000000, -0.000000000000000000 ) ) ;
#538 = CARTESIAN_POINT ( 'NONE',  ( -39.63188015908393425, 10.00000000000000000, 0.000000000000000000 ) ) ;
#539 = CARTESIAN_POINT ( 'NONE',  ( -29.63188015908393425, 14.80832611206852434, 39.99999999999999289 ) ) ;
#540 = LINE ( 'NONE', #386, #346 ) ;
#541 = FACE_OUTER_BOUND ( 'NONE', #434, .T. ) ;
#542 = CARTESIAN_POINT ( 'NONE',  ( -19.63188015908391648, 0.000000000000000000, 130.0000000000000000 ) ) ;
#543 = VERTEX_POINT ( 'NONE', #173 ) ;
#544 = DIRECTION ( 'NONE',  ( 0.000000000000000000, 1.000000000000000000, 0.000000000000000000 ) ) ;
#545 = ORIENTED_EDGE ( 'NONE', *, *, #271, .T. ) ;
#546 = EDGE_LOOP ( 'NONE', ( #372, #395, #374, #112, #742, #568, #300, #214 ) ) ;
#547 = DIRECTION ( 'NONE',  ( -0.000000000000000000, 1.000000000000000000, -0.000000000000000000 ) ) ;
#548 = EDGE_CURVE ( 'NONE', #405, #102, #327, .T. ) ;
#549 = CARTESIAN_POINT ( 'NONE',  ( 0.000000000000000000, 0.000000000000000000, 0.000000000000000000 ) ) ;
#550 = VECTOR ( 'NONE', #536, 1000.000000000000000 ) ;
#551 = CYLINDRICAL_SURFACE ( 'NONE', #67, 1.249999999999987121 ) ;
#552 = ORIENTED_EDGE ( 'NONE', *, *, #481, .T. ) ;
#553 = ORIENTED_EDGE ( 'NONE', *, *, #756, .F. ) ;
#554 = EDGE_LOOP ( 'NONE', ( #159, #249, #561, #38 ) ) ;
#555 = FILL_AREA_STYLE ('',( #265 ) ) ;
#556 = MECHANICAL_DESIGN_GEOMETRIC_PRESENTATION_REPRESENTATION (  '', ( #30 ), #510 ) ;
#557 = SURFACE_STYLE_USAGE ( .BOTH. , #256 ) ;
#558 = AXIS2_PLACEMENT_3D ( 'NONE', #344, #520, #468 ) ;
#559 = VECTOR ( 'NONE', #186, 1000.000000000000000 ) ;
#560 = ORIENTED_EDGE ( 'NONE', *, *, #495, .T. ) ;
#561 = ORIENTED_EDGE ( 'NONE', *, *, #651, .T. ) ;
#562 = ADVANCED_FACE ( 'NONE', ( #451, #120, #140, #471, #299, #411 ), #526, .T. ) ;
#563 = EDGE_CURVE ( 'NONE', #208, #44, #762, .T. ) ;
#564 = FACE_OUTER_BOUND ( 'NONE', #362, .T. ) ;
#565 = DIRECTION ( 'NONE',  ( 0.000000000000000000, 1.000000000000000000, 0.000000000000000000 ) ) ;
#566 = ADVANCED_FACE ( 'NONE', ( #127 ), #623, .F. ) ;
#567 = ORIENTED_EDGE ( 'NONE', *, *, #599, .T. ) ;
#568 = ORIENTED_EDGE ( 'NONE', *, *, #548, .F. ) ;
#569 = DIRECTION ( 'NONE',  ( -0.000000000000000000, 1.000000000000000000, -0.000000000000000000 ) ) ;
#570 = EDGE_CURVE ( 'NONE', #621, #578, #460, .T. ) ;
#571 = CARTESIAN_POINT ( 'NONE',  ( 0.000000000000000000, 0.000000000000000000, 0.000000000000000000 ) ) ;
#572 = CARTESIAN_POINT ( 'NONE',  ( -31.63188015908392714, 0.000000000000000000, 112.5000000000000000 ) ) ;
#573 =( GEOMETRIC_REPRESENTATION_CONTEXT ( 3 ) GLOBAL_UNCERTAINTY_ASSIGNED_CONTEXT ( ( #525 ) ) GLOBAL_UNIT_ASSIGNED_CONTEXT ( ( #493, #734, #89 ) ) REPRESENTATION_CONTEXT ( 'NONE', 'WORKASPACE' ) );
#574 = LINE ( 'NONE', #115, #423 ) ;
#575 = DIRECTION ( 'NONE',  ( 0.000000000000000000, -0.000000000000000000, 1.000000000000000000 ) ) ;
#576 = VERTEX_POINT ( 'NONE', #714 ) ;
#577 = ORIENTED_EDGE ( 'NONE', *, *, #463, .T. ) ;
#578 = VERTEX_POINT ( 'NONE', #197 ) ;
#579 = CARTESIAN_POINT ( 'NONE',  ( -29.63188015908393425, 10.00000000000000000, 26.49999999999984723 ) ) ;
#580 =( LENGTH_UNIT ( ) NAMED_UNIT ( * ) SI_UNIT ( .MILLI., .METRE. ) );
#581 = DIRECTION ( 'NONE',  ( 0.000000000000000000, 0.000000000000000000, -1.000000000000000000 ) ) ;
#582 = CARTESIAN_POINT ( 'NONE',  ( -29.63188015908393425, 1.000000000000000000, 26.49999999999984723 ) ) ;
#583 = CARTESIAN_POINT ( 'NONE',  ( -19.63188015908393425, 10.00000000000000000, 0.000000000000000000 ) ) ;
#584 = UNCERTAINTY_MEASURE_WITH_UNIT (LENGTH_MEASURE( 1.000000000000000082E-05 ), #29, 'distance_accuracy_value', 'NONE');
#585 = CARTESIAN_POINT ( 'NONE',  ( -29.63188015908393425, 14.80832611206852434, 26.49999999999984723 ) ) ;
#586 = EDGE_CURVE ( 'NONE', #465, #209, #422, .T. ) ;
#587 = VECTOR ( 'NONE', #176, 1000.000000000000000 ) ;
#588 = COLOUR_RGB ( '',0.5019607843137254832, 0.5019607843137254832, 0.5019607843137254832 ) ;
#589 = ORIENTED_EDGE ( 'NONE', *, *, #82, .T. ) ;
#590 = CARTESIAN_POINT ( 'NONE',  ( -32.63188015908393425, 1.000000000000000000, 0.000000000000000000 ) ) ;
#591 = CARTESIAN_POINT ( 'NONE',  ( -26.63188015908393780, 1.000000000000000000, 0.000000000000000000 ) ) ;
#592 = DIRECTION ( 'NONE',  ( -0.000000000000000000, -1.000000000000000000, -0.000000000000000000 ) ) ;
#593 = DIRECTION ( 'NONE',  ( 0.000000000000000000, 0.000000000000000000, 1.000000000000000000 ) ) ;
#594 = CARTESIAN_POINT ( 'NONE',  ( -31.63188015908392714, 10.00000000000000178, 113.7499999999999858 ) ) ;
#595 = CARTESIAN_POINT ( 'NONE',  ( -39.63188015908393425, 0.000000000000000000, 0.000000000000000000 ) ) ;
#596 = DIRECTION ( 'NONE',  ( -0.000000000000000000, -1.000000000000000000, -0.000000000000000000 ) ) ;
#597 =( GEOMETRIC_REPRESENTATION_CONTEXT ( 3 ) GLOBAL_UNCERTAINTY_ASSIGNED_CONTEXT ( ( #584 ) ) GLOBAL_UNIT_ASSIGNED_CONTEXT ( ( #29, #83, #489 ) ) REPRESENTATION_CONTEXT ( 'NONE', 'WORKASPACE' ) );
#598 = ORIENTED_EDGE ( 'NONE', *, *, #68, .T. ) ;
#599 = EDGE_CURVE ( 'NONE', #620, #27, #147, .T. ) ;
#600 = ORIENTED_EDGE ( 'NONE', *, *, #283, .F. ) ;
#601 = VERTEX_POINT ( 'NONE', #14 ) ;
#602 = DIRECTION ( 'NONE',  ( -0.000000000000000000, -1.000000000000000000, -0.000000000000000000 ) ) ;
#603 = CARTESIAN_POINT ( 'NONE',  ( -29.63188015908393425, 1.000000000000000000, 21.99999999999999645 ) ) ;
#604 = FILL_AREA_STYLE_COLOUR ( '', #156 ) ;
#605 = CARTESIAN_POINT ( 'NONE',  ( -31.63188015908393425, 0.000000000000000000, 124.5000000000000000 ) ) ;
#606 =( LENGTH_UNIT ( ) NAMED_UNIT ( * ) SI_UNIT ( .MILLI., .METRE. ) );
#607 = VECTOR ( 'NONE', #239, 1000.000000000000000 ) ;
#608 = CIRCLE ( 'NONE', #516, 0.9999999999999974465 ) ;
#609 = DIRECTION ( 'NONE',  ( 0.000000000000000000, 0.000000000000000000, 1.000000000000000000 ) ) ;
#610 = PRESENTATION_STYLE_ASSIGNMENT (( #375 ) ) ;
#611 =( NAMED_UNIT ( * ) PLANE_ANGLE_UNIT ( ) SI_UNIT ( $, .RADIAN. ) );
#612 =( GEOMETRIC_REPRESENTATION_CONTEXT ( 3 ) GLOBAL_UNCERTAINTY_ASSIGNED_CONTEXT ( ( #284 ) ) GLOBAL_UNIT_ASSIGNED_CONTEXT ( ( #146, #611, #433 ) ) REPRESENTATION_CONTEXT ( 'NONE', 'WORKASPACE' ) );
#613 = AXIS2_PLACEMENT_3D ( 'NONE', #605, #124, #593 ) ;
#614 = ORIENTED_EDGE ( 'NONE', *, *, #68, .F. ) ;
#615 = ORIENTED_EDGE ( 'NONE', *, *, #617, .F. ) ;
#616 = DIRECTION ( 'NONE',  ( -1.000000000000000000, -0.000000000000000000, -0.000000000000000000 ) ) ;
#617 = EDGE_CURVE ( 'NONE', #700, #403, #485, .T. ) ;
#618 = SHAPE_DEFINITION_REPRESENTATION ( #373, #749 ) ;
#619 = VECTOR ( 'NONE', #19, 1000.000000000000000 ) ;
#620 = VERTEX_POINT ( 'NONE', #135 ) ;
#621 = VERTEX_POINT ( 'NONE', #420 ) ;
#622 = AXIS2_PLACEMENT_3D ( 'NONE', #17, #547, #202 ) ;
#623 = CYLINDRICAL_SURFACE ( 'NONE', #494, 1.700000000000000178 ) ;
#624 = ADVANCED_FACE ( 'NONE', ( #370 ), #131, .F. ) ;
#625 = FACE_BOUND ( 'NONE', #698, .T. ) ;
#626 = CIRCLE ( 'NONE', #152, 1.700000000000000178 ) ;
#627 = EDGE_LOOP ( 'NONE', ( #426, #342, #361, #129 ) ) ;
#628 = AXIS2_PLACEMENT_3D ( 'NONE', #572, #335, #105 ) ;
#629 = EDGE_CURVE ( 'NONE', #543, #27, #400, .T. ) ;
#630 = ORIENTED_EDGE ( 'NONE', *, *, #570, .F. ) ;
#631 = STYLED_ITEM ( 'NONE', ( #683 ), #267 ) ;
#632 = FACE_OUTER_BOUND ( 'NONE', #641, .T. ) ;
#633 = LINE ( 'NONE', #658, #311 ) ;
#634 = ORIENTED_EDGE ( 'NONE', *, *, #533, .T. ) ;
#635 = ORIENTED_EDGE ( 'NONE', *, *, #495, .F. ) ;
#636 = DIRECTION ( 'NONE',  ( 1.000000000000000000, 0.000000000000000000, 0.000000000000000000 ) ) ;
#637 = DIRECTION ( 'NONE',  ( 0.000000000000000000, 0.000000000000000000, 1.000000000000000000 ) ) ;
#638 = DIRECTION ( 'NONE',  ( 0.000000000000000000, 0.000000000000000000, 1.000000000000000000 ) ) ;
#639 = DIRECTION ( 'NONE',  ( 0.000000000000000000, 0.000000000000000000, -1.000000000000000000 ) ) ;
#640 = LINE ( 'NONE', #255, #381 ) ;
#641 = EDGE_LOOP ( 'NONE', ( #95, #614, #396, #763 ) ) ;
#642 = ORIENTED_EDGE ( 'NONE', *, *, #431, .T. ) ;
#643 = CARTESIAN_POINT ( 'NONE',  ( -32.63188015908393425, 1.000000000000000000, 0.000000000000000000 ) ) ;
#644 = CARTESIAN_POINT ( 'NONE',  ( -29.63188015908393425, 10.00000000000000000, 27.49999999999984368 ) ) ;
#645 = PRODUCT_DEFINITION ( 'UNKNOWN', '', #18, #139 ) ;
#646 = AXIS2_PLACEMENT_3D ( 'NONE', #579, #353, #637 ) ;
#647 = DIRECTION ( 'NONE',  ( 0.000000000000000000, 0.000000000000000000, 1.000000000000000000 ) ) ;
#648 = CARTESIAN_POINT ( 'NONE',  ( -29.63188015908393425, 14.80832611206852434, 20.29999999999999361 ) ) ;
#649 = CARTESIAN_POINT ( 'NONE',  ( -32.63188015908393425, 0.000000000000000000, 0.000000000000000000 ) ) ;
#650 = AXIS2_PLACEMENT_3D ( 'NONE', #47, #162, #515 ) ;
#651 = EDGE_CURVE ( 'NONE', #404, #710, #23, .T. ) ;
#652 = FACE_OUTER_BOUND ( 'NONE', #424, .T. ) ;
#653 = CIRCLE ( 'NONE', #505, 0.9999999999999974465 ) ;
#654 = ORIENTED_EDGE ( 'NONE', *, *, #323, .T. ) ;
#655 = ORIENTED_EDGE ( 'NONE', *, *, #586, .T. ) ;
#656 = CARTESIAN_POINT ( 'NONE',  ( -19.63188015908393425, 10.00000000000000000, 0.000000000000000000 ) ) ;
#657 = DIRECTION ( 'NONE',  ( 0.000000000000000000, 0.000000000000000000, -1.000000000000000000 ) ) ;
#658 = CARTESIAN_POINT ( 'NONE',  ( -31.63188015908392714, 10.00000000000000000, 113.7499999999999858 ) ) ;
#659 = CARTESIAN_POINT ( 'NONE',  ( 0.000000000000000000, 10.00000000000000000, 0.000000000000000000 ) ) ;
#660 = VECTOR ( 'NONE', #303, 1000.000000000000000 ) ;
#661 = DIRECTION ( 'NONE',  ( -0.000000000000000000, 1.000000000000000000, -0.000000000000000000 ) ) ;
#662 = STYLED_ITEM ( 'NONE', ( #92 ), #665 ) ;
#663 = VECTOR ( 'NONE', #8, 1000.000000000000000 ) ;
#664 = EDGE_LOOP ( 'NONE', ( #384, #757 ) ) ;
#665 = MANIFOLD_SOLID_BREP ( 'M3 Gewindebohrung1', #269 ) ;
#666 = ORIENTED_EDGE ( 'NONE', *, *, #727, .T. ) ;
#667 = FILL_AREA_STYLE_COLOUR ( '', #678 ) ;
#668 =( NAMED_UNIT ( * ) SI_UNIT ( $, .STERADIAN. ) SOLID_ANGLE_UNIT ( ) );
#669 = EDGE_CURVE ( 'NONE', #167, #391, #707, .T. ) ;
#670 = DIRECTION ( 'NONE',  ( 0.000000000000000000, 0.000000000000000000, 1.000000000000000000 ) ) ;
#671 = DIRECTION ( 'NONE',  ( 0.000000000000000000, 0.000000000000000000, 1.000000000000000000 ) ) ;
#672 = VECTOR ( 'NONE', #425, 1000.000000000000000 ) ;
#673 = CIRCLE ( 'NONE', #161, 1.250000000000001110 ) ;
#674 = DIRECTION ( 'NONE',  ( 0.000000000000000000, 0.000000000000000000, -1.000000000000000000 ) ) ;
#675 = ORIENTED_EDGE ( 'NONE', *, *, #231, .T. ) ;
#676 = DIRECTION ( 'NONE',  ( -0.000000000000000000, -1.000000000000000000, -0.000000000000000000 ) ) ;
#677 = LINE ( 'NONE', #499, #519 ) ;
#678 = COLOUR_RGB ( '',0.5019607843137254832, 0.5019607843137254832, 0.5019607843137254832 ) ;
#679 = EDGE_LOOP ( 'NONE', ( #600, #630, #598, #149 ) ) ;
#680 = ORIENTED_EDGE ( 'NONE', *, *, #91, .F. ) ;
#681 = ADVANCED_FACE ( 'NONE', ( #257 ), #98, .F. ) ;
#682 = LINE ( 'NONE', #84, #345 ) ;
#683 = PRESENTATION_STYLE_ASSIGNMENT (( #142 ) ) ;
#684 = CYLINDRICAL_SURFACE ( 'NONE', #138, 1.700000000000000178 ) ;
#685 = ADVANCED_FACE ( 'NONE', ( #316 ), #438, .F. ) ;
#686 = PLANE ( 'NONE',  #650 ) ;
#687 = ORIENTED_EDGE ( 'NONE', *, *, #735, .F. ) ;
#688 = EDGE_CURVE ( 'NONE', #601, #228, #721, .T. ) ;
#689 = ORIENTED_EDGE ( 'NONE', *, *, #669, .F. ) ;
#690 = DIRECTION ( 'NONE',  ( 0.000000000000000000, 0.000000000000000000, 1.000000000000000000 ) ) ;
#691 = DIRECTION ( 'NONE',  ( 0.000000000000000000, 0.000000000000000000, 1.000000000000000000 ) ) ;
#692 = DIRECTION ( 'NONE',  ( 0.000000000000000000, -0.000000000000000000, 1.000000000000000000 ) ) ;
#693 = PRESENTATION_LAYER_ASSIGNMENT (  '', '', ( #741 ) ) ;
#694 = PRESENTATION_STYLE_ASSIGNMENT (( #557 ) ) ;
#695 = VECTOR ( 'NONE', #119, 1000.000000000000000 ) ;
#696 = PLANE ( 'NONE',  #143 ) ;
#697 = SURFACE_STYLE_FILL_AREA ( #24 ) ;
#698 = EDGE_LOOP ( 'NONE', ( #150, #187 ) ) ;
#699 = CARTESIAN_POINT ( 'NONE',  ( -39.63188015908392714, 10.00000000000000000, 130.0000000000000000 ) ) ;
#700 = VERTEX_POINT ( 'NONE', #594 ) ;
#701 = VERTEX_POINT ( 'NONE', #263 ) ;
#702 = DIRECTION ( 'NONE',  ( 0.000000000000000000, -1.000000000000000000, 0.000000000000000000 ) ) ;
#703 = DIRECTION ( 'NONE',  ( 0.000000000000000000, 0.000000000000000000, 1.000000000000000000 ) ) ;
#704 = CARTESIAN_POINT ( 'NONE',  ( -19.63188015908393425, 0.000000000000000000, 0.000000000000000000 ) ) ;
#705 = AXIS2_PLACEMENT_3D ( 'NONE', #470, #596, #657 ) ;
#706 = EDGE_CURVE ( 'NONE', #405, #391, #677, .T. ) ;
#707 = LINE ( 'NONE', #718, #550 ) ;
#708 = CIRCLE ( 'NONE', #613, 1.250000000000001110 ) ;
#709 = ORIENTED_EDGE ( 'NONE', *, *, #82, .F. ) ;
#710 = VERTEX_POINT ( 'NONE', #502 ) ;
#711 = EDGE_LOOP ( 'NONE', ( #764, #709, #514, #552 ) ) ;
#712 = CARTESIAN_POINT ( 'NONE',  ( -19.63188015908391648, 10.00000000000000000, 130.0000000000000000 ) ) ;
#713 = UNCERTAINTY_MEASURE_WITH_UNIT (LENGTH_MEASURE( 1.000000000000000082E-05 ), #580, 'distance_accuracy_value', 'NONE');
#714 = CARTESIAN_POINT ( 'NONE',  ( -31.63188015908392714, 0.000000000000000000, 113.7500000000000000 ) ) ;
#715 = AXIS2_PLACEMENT_3D ( 'NONE', #319, #737, #670 ) ;
#716 = DIRECTION ( 'NONE',  ( -0.000000000000000000, -1.000000000000000000, -0.000000000000000000 ) ) ;
#717 = DIRECTION ( 'NONE',  ( 1.000000000000000000, 0.000000000000000000, 0.000000000000000000 ) ) ;
#718 = CARTESIAN_POINT ( 'NONE',  ( -19.63188015908393425, 0.000000000000000000, 0.000000000000000000 ) ) ;
#719 = AXIS2_PLACEMENT_3D ( 'NONE', #659, #544, #193 ) ;
#720 = AXIS2_PLACEMENT_3D ( 'NONE', #591, #358, #234 ) ;
#721 = CIRCLE ( 'NONE', #458, 1.700000000000000178 ) ;
#722 = FACE_OUTER_BOUND ( 'NONE', #207, .T. ) ;
#723 = DIRECTION ( 'NONE',  ( 0.000000000000000000, 0.000000000000000000, -1.000000000000000000 ) ) ;
#724 = ORIENTED_EDGE ( 'NONE', *, *, #309, .F. ) ;
#725 = EDGE_LOOP ( 'NONE', ( #615, #312 ) ) ;
#726 = CARTESIAN_POINT ( 'NONE',  ( -39.63188015908392714, 10.00000000000000000, 130.0000000000000000 ) ) ;
#727 = EDGE_CURVE ( 'NONE', #710, #404, #212, .T. ) ;
#728 = SURFACE_STYLE_USAGE ( .BOTH. , #252 ) ;
#729 = DIRECTION ( 'NONE',  ( -0.000000000000000000, 1.000000000000000000, -0.000000000000000000 ) ) ;
#730 = DIRECTION ( 'NONE',  ( -0.000000000000000000, -1.000000000000000000, -0.000000000000000000 ) ) ;
#731 = FACE_BOUND ( 'NONE', #219, .T. ) ;
#732 = LINE ( 'NONE', #61, #15 ) ;
#733 = ORIENTED_EDGE ( 'NONE', *, *, #144, .T. ) ;
#734 =( NAMED_UNIT ( * ) PLANE_ANGLE_UNIT ( ) SI_UNIT ( $, .RADIAN. ) );
#735 = EDGE_CURVE ( 'NONE', #52, #87, #540, .T. ) ;
#736 = CARTESIAN_POINT ( 'NONE',  ( -29.63188015908393425, 10.00000000000000000, 21.99999999999999645 ) ) ;
#737 = DIRECTION ( 'NONE',  ( -0.000000000000000000, 1.000000000000000000, -0.000000000000000000 ) ) ;
#738 = UNCERTAINTY_MEASURE_WITH_UNIT (LENGTH_MEASURE( 1.000000000000000082E-05 ), #606, 'distance_accuracy_value', 'NONE');
#739 = LINE ( 'NONE', #649, #245 ) ;
#740 = ORIENTED_EDGE ( 'NONE', *, *, #509, .F. ) ;
#741 = STYLED_ITEM ( 'NONE', ( #235 ), #746 ) ;
#742 = ORIENTED_EDGE ( 'NONE', *, *, #416, .F. ) ;
#743 = ADVANCED_FACE ( 'NONE', ( #164 ), #483, .F. ) ;
#744 = ORIENTED_EDGE ( 'NONE', *, *, #271, .F. ) ;
#745 = ORIENTED_EDGE ( 'NONE', *, *, #449, .F. ) ;
#746 = ADVANCED_FACE ( 'NONE', ( #529 ), #196, .F. ) ;
#747 = AXIS2_PLACEMENT_3D ( 'NONE', #367, #480, #360 ) ;
#748 =( GEOMETRIC_REPRESENTATION_CONTEXT ( 3 ) GLOBAL_UNCERTAINTY_ASSIGNED_CONTEXT ( ( #254 ) ) GLOBAL_UNIT_ASSIGNED_CONTEXT ( ( #474, #244, #184 ) ) REPRESENTATION_CONTEXT ( 'NONE', 'WORKASPACE' ) );
#749 = ADVANCED_BREP_SHAPE_REPRESENTATION ( '21631_03_088_gripper bracket_2 3K', ( #665, #264 ), #612 ) ;
#750 = VECTOR ( 'NONE', #427, 1000.000000000000000 ) ;
#751 = ADVANCED_FACE ( 'NONE', ( #472 ), #490, .T. ) ;
#752 = VECTOR ( 'NONE', #479, 1000.000000000000000 ) ;
#753 = DIRECTION ( 'NONE',  ( 0.000000000000000000, 0.000000000000000000, 1.000000000000000000 ) ) ;
#754 =( GEOMETRIC_REPRESENTATION_CONTEXT ( 3 ) GLOBAL_UNCERTAINTY_ASSIGNED_CONTEXT ( ( #738 ) ) GLOBAL_UNIT_ASSIGNED_CONTEXT ( ( #606, #253, #668 ) ) REPRESENTATION_CONTEXT ( 'NONE', 'WORKASPACE' ) );
#755 = ORIENTED_EDGE ( 'NONE', *, *, #242, .T. ) ;
#756 = EDGE_CURVE ( 'NONE', #188, #620, #682, .T. ) ;
#757 = ORIENTED_EDGE ( 'NONE', *, *, #76, .F. ) ;
#758 = CARTESIAN_POINT ( 'NONE',  ( -29.63188015908393425, 1.000000000000000000, 38.29999999999999716 ) ) ;
#759 = DIRECTION ( 'NONE',  ( -5.337610695313252124E-17, 0.000000000000000000, -1.000000000000000000 ) ) ;
#760 =( GEOMETRIC_REPRESENTATION_CONTEXT ( 3 ) GLOBAL_UNCERTAINTY_ASSIGNED_CONTEXT ( ( #713 ) ) GLOBAL_UNIT_ASSIGNED_CONTEXT ( ( #580, #442, #503 ) ) REPRESENTATION_CONTEXT ( 'NONE', 'WORKASPACE' ) );
#761 = PLANE ( 'NONE',  #163 ) ;
#762 = LINE ( 'NONE', #486, #172 ) ;
#763 = ORIENTED_EDGE ( 'NONE', *, *, #521, .F. ) ;
#764 = ORIENTED_EDGE ( 'NONE', *, *, #586, .F. ) ;
#765 = AXIS2_PLACEMENT_3D ( 'NONE', #191, #661, #307 ) ;
#766 = AXIS2_PLACEMENT_3D ( 'NONE', #459, #118, #647 ) ;
ENDSEC;
END-ISO-10303-21;
