ISO-10303-21;
HEADER;
FILE_DESCRIPTION (( 'STEP AP214' ),
    '1' );
FILE_NAME ('21631_03_087_gripper finger_2 2K.STEP',
    '2021-07-29T06:37:47',
    ( '' ),
    ( '' ),
    'SwSTEP 2.0',
    'SolidWorks 2018',
    '' );
FILE_SCHEMA (( 'AUTOMOTIVE_DESIGN' ));
ENDSEC;

DATA;
#1 = ORIENTED_EDGE ( 'NONE', *, *, #875, .T. ) ;
#2 = ORIENTED_EDGE ( 'NONE', *, *, #107, .F. ) ;
#3 = EDGE_CURVE ( 'NONE', #653, #86, #304, .T. ) ;
#4 = VERTEX_POINT ( 'NONE', #921 ) ;
#5 = AXIS2_PLACEMENT_3D ( 'NONE', #955, #630, #941 ) ;
#6 = CARTESIAN_POINT ( 'NONE',  ( 10.35035424146125749, -5.000000000000004441, -21.50000000000000000 ) ) ;
#7 = VECTOR ( 'NONE', #532, 1000.000000000000000 ) ;
#8 = VECTOR ( 'NONE', #640, 1000.000000000000000 ) ;
#9 = CIRCLE ( 'NONE', #340, 1.700000000000000178 ) ;
#10 = CARTESIAN_POINT ( 'NONE',  ( 16.64360147529087186, -5.000000000000004441, -14.00000000000000178 ) ) ;
#11 = AXIS2_PLACEMENT_3D ( 'NONE', #495, #927, #93 ) ;
#12 = ORIENTED_EDGE ( 'NONE', *, *, #328, .T. ) ;
#13 = ORIENTED_EDGE ( 'NONE', *, *, #598, .T. ) ;
#14 = EDGE_CURVE ( 'NONE', #353, #331, #805, .T. ) ;
#15 = ORIENTED_EDGE ( 'NONE', *, *, #987, .F. ) ;
#16 = ORIENTED_EDGE ( 'NONE', *, *, #244, .T. ) ;
#17 = FACE_OUTER_BOUND ( 'NONE', #488, .T. ) ;
#18 = CARTESIAN_POINT ( 'NONE',  ( 18.00000000000000355, 60.00000000000000000, -4.000000000000000000 ) ) ;
#19 = CARTESIAN_POINT ( 'NONE',  ( 19.85135395620649135, -3.835258168640738319, -10.04228256474413961 ) ) ;
#20 = FACE_OUTER_BOUND ( 'NONE', #549, .T. ) ;
#21 = LINE ( 'NONE', #375, #1065 ) ;
#22 = CARTESIAN_POINT ( 'NONE',  ( 18.00000000000000355, 0.000000000000000000, -9.272059531467590432 ) ) ;
#23 = PRESENTATION_LAYER_ASSIGNMENT (  '', '', ( #128 ) ) ;
#24 = CYLINDRICAL_SURFACE ( 'NONE', #903, 1.500000000000001332 ) ;
#25 = CARTESIAN_POINT ( 'NONE',  ( 0.000000000000000000, -10.00000000000000000, -29.06805748150731361 ) ) ;
#26 = CARTESIAN_POINT ( 'NONE',  ( 19.96719969592653854, -4.352137017746405157, -9.636962309101084756 ) ) ;
#27 = CARTESIAN_POINT ( 'NONE',  ( 17.00000000000000000, -5.000000000000003553, -3.299999999999998490 ) ) ;
#28 = VERTEX_POINT ( 'NONE', #1070 ) ;
#29 = CARTESIAN_POINT ( 'NONE',  ( 0.000000000000000000, -10.00000000000000000, 0.000000000000000000 ) ) ;
#30 = DIRECTION ( 'NONE',  ( 0.000000000000000000, 0.000000000000000000, 1.000000000000000000 ) ) ;
#31 = ORIENTED_EDGE ( 'NONE', *, *, #951, .F. ) ;
#32 = B_SPLINE_CURVE_WITH_KNOTS ( 'NONE', 3,
 ( #522, #1013, #518, #19, #604, #840, #26, #95, #688, #1007 ),
 .UNSPECIFIED., .F., .F.,
 ( 4, 2, 2, 2, 4 ),
 ( 0.000000000000000000, 0.0004980729305732349088, 0.0009961458611464698177, 0.001494218791719702667, 0.001992291722292935732 ),
 .UNSPECIFIED. ) ;
#33 = CARTESIAN_POINT ( 'NONE',  ( 17.00000000000000000, -5.000000000000003553, -4.999999999999999112 ) ) ;
#34 = ORIENTED_EDGE ( 'NONE', *, *, #697, .F. ) ;
#35 = DIRECTION ( 'NONE',  ( -1.000000000000000000, -0.000000000000000000, -0.000000000000000000 ) ) ;
#36 = LINE ( 'NONE', #528, #1080 ) ;
#37 = DIRECTION ( 'NONE',  ( -1.000000000000000000, 0.000000000000000000, 0.000000000000000000 ) ) ;
#38 = ORIENTED_EDGE ( 'NONE', *, *, #465, .F. ) ;
#39 = ORIENTED_EDGE ( 'NONE', *, *, #198, .F. ) ;
#40 =( BOUNDED_CURVE ( )  B_SPLINE_CURVE ( 3, ( #310, #307, #920, #839 ),
 .UNSPECIFIED., .F., .T. ) 
 B_SPLINE_CURVE_WITH_KNOTS ( ( 4, 4 ),
 ( 4.712388980384689674, 7.853981633974482790 ),
 .UNSPECIFIED. ) 
 CURVE ( )  GEOMETRIC_REPRESENTATION_ITEM ( )  RATIONAL_B_SPLINE_CURVE ( ( 1.000000000000000000, 0.3333333333333333703, 0.3333333333333333703, 1.000000000000000000 ) ) 
 REPRESENTATION_ITEM ( '' )  );
#41 = AXIS2_PLACEMENT_3D ( 'NONE', #557, #227, #148 ) ;
#42 = DIRECTION ( 'NONE',  ( -1.000000000000000000, -0.000000000000000000, -0.000000000000000000 ) ) ;
#43 = ORIENTED_EDGE ( 'NONE', *, *, #334, .T. ) ;
#44 = DIRECTION ( 'NONE',  ( 1.000000000000000000, -0.000000000000000000, -0.000000000000000000 ) ) ;
#45 = CARTESIAN_POINT ( 'NONE',  ( 0.000000000000000000, -10.00000000000000000, -29.06805748150731361 ) ) ;
#46 = FACE_BOUND ( 'NONE', #271, .T. ) ;
#47 = CIRCLE ( 'NONE', #171, 1.499999999999999556 ) ;
#48 = DIRECTION ( 'NONE',  ( 0.000000000000000000, 0.000000000000000000, 1.000000000000000000 ) ) ;
#49 = VECTOR ( 'NONE', #937, 1000.000000000000000 ) ;
#50 = DIRECTION ( 'NONE',  ( 0.000000000000000000, 0.000000000000000000, 1.000000000000000000 ) ) ;
#51 = DIRECTION ( 'NONE',  ( 0.000000000000000000, 0.000000000000000000, -1.000000000000000000 ) ) ;
#52 = CARTESIAN_POINT ( 'NONE',  ( 20.00000000000000000, -5.000000000000004441, -23.19999999999999929 ) ) ;
#53 = ORIENTED_EDGE ( 'NONE', *, *, #485, .F. ) ;
#54 = CARTESIAN_POINT ( 'NONE',  ( 0.000000000000000000, 48.65743636076459921, -4.000000000000000000 ) ) ;
#55 = AXIS2_PLACEMENT_3D ( 'NONE', #952, #633, #116 ) ;
#56 = AXIS2_PLACEMENT_3D ( 'NONE', #22, #350, #440 ) ;
#57 = LINE ( 'NONE', #466, #658 ) ;
#58 = ADVANCED_FACE ( 'NONE', ( #368 ), #916, .F. ) ;
#59 = CARTESIAN_POINT ( 'NONE',  ( 19.72301629658349142, -6.334157257011310271, -10.29752810228610116 ) ) ;
#60 = SURFACE_STYLE_FILL_AREA ( #628 ) ;
#61 = DIRECTION ( 'NONE',  ( -1.000000000000000000, 0.000000000000000000, 0.000000000000000000 ) ) ;
#62 = PLANE ( 'NONE',  #1036 ) ;
#63 = ORIENTED_EDGE ( 'NONE', *, *, #252, .T. ) ;
#64 = EDGE_LOOP ( 'NONE', ( #511, #16, #303, #966 ) ) ;
#65 = AXIS2_PLACEMENT_3D ( 'NONE', #33, #612, #1033 ) ;
#66 = CARTESIAN_POINT ( 'NONE',  ( 0.000000000000000000, 0.000000000000000000, -9.000000000000001776 ) ) ;
#67 = VERTEX_POINT ( 'NONE', #848 ) ;
#68 = EDGE_CURVE ( 'NONE', #1062, #767, #482, .T. ) ;
#69 = ADVANCED_FACE ( 'NONE', ( #275 ), #173, .F. ) ;
#70 = LINE ( 'NONE', #944, #7 ) ;
#71 = DIRECTION ( 'NONE',  ( 1.000000000000000000, -0.000000000000000000, -0.000000000000000000 ) ) ;
#72 = FACE_OUTER_BOUND ( 'NONE', #589, .T. ) ;
#73 = DIRECTION ( 'NONE',  ( 0.000000000000000000, 0.000000000000000000, 1.000000000000000000 ) ) ;
#74 = ADVANCED_FACE ( 'NONE', ( #241 ), #714, .F. ) ;
#75 =( GEOMETRIC_REPRESENTATION_CONTEXT ( 3 ) GLOBAL_UNCERTAINTY_ASSIGNED_CONTEXT ( ( #810 ) ) GLOBAL_UNIT_ASSIGNED_CONTEXT ( ( #537, #799, #721 ) ) REPRESENTATION_CONTEXT ( 'NONE', 'WORKASPACE' ) );
#76 = VERTEX_POINT ( 'NONE', #595 ) ;
#77 = DIRECTION ( 'NONE',  ( -1.000000000000000000, -0.000000000000000000, -0.000000000000000000 ) ) ;
#78 = DIRECTION ( 'NONE',  ( 0.000000000000000000, 0.000000000000000000, 1.000000000000000000 ) ) ;
#79 = ORIENTED_EDGE ( 'NONE', *, *, #168, .F. ) ;
#80 = ADVANCED_FACE ( 'NONE', ( #753 ), #506, .T. ) ;
#81 = LINE ( 'NONE', #993, #609 ) ;
#82 = VECTOR ( 'NONE', #217, 1000.000000000000000 ) ;
#83 = EDGE_CURVE ( 'NONE', #735, #692, #998, .T. ) ;
#84 = VERTEX_POINT ( 'NONE', #187 ) ;
#85 = VERTEX_POINT ( 'NONE', #437 ) ;
#86 = VERTEX_POINT ( 'NONE', #940 ) ;
#87 = DIRECTION ( 'NONE',  ( 0.1736481776669304977, -0.9848077530122080203, -0.000000000000000000 ) ) ;
#88 = CARTESIAN_POINT ( 'NONE',  ( 8.923884868459879272, -3.500000000000003997, -23.19999999999999929 ) ) ;
#89 = LINE ( 'NONE', #443, #357 ) ;
#90 = DIRECTION ( 'NONE',  ( 0.000000000000000000, 1.000000000000000000, 0.000000000000000000 ) ) ;
#91 = LINE ( 'NONE', #1001, #1076 ) ;
#92 = CARTESIAN_POINT ( 'NONE',  ( 0.000000000000000000, 48.65743636076459921, 0.000000000000000000 ) ) ;
#93 = DIRECTION ( 'NONE',  ( 0.000000000000000000, 0.000000000000000000, 1.000000000000000000 ) ) ;
#94 = ORIENTED_EDGE ( 'NONE', *, *, #306, .T. ) ;
#95 = CARTESIAN_POINT ( 'NONE',  ( 19.98428960529919962, -4.666095779739639404, -9.528230261801152068 ) ) ;
#96 = CARTESIAN_POINT ( 'NONE',  ( 0.000000000000000000, -10.00000000000000000, -29.06805748150731361 ) ) ;
#97 = ORIENTED_EDGE ( 'NONE', *, *, #594, .F. ) ;
#98 = CARTESIAN_POINT ( 'NONE',  ( -0.000000000000000000, -5.000000000000003553, -4.999999999999999112 ) ) ;
#99 = ORIENTED_EDGE ( 'NONE', *, *, #300, .F. ) ;
#100 = DIRECTION ( 'NONE',  ( -1.000000000000000000, -0.000000000000000000, -0.000000000000000000 ) ) ;
#101 = CARTESIAN_POINT ( 'NONE',  ( 10.00000000000000000, -5.000000000000004441, -14.00000000000000178 ) ) ;
#102 = FACE_OUTER_BOUND ( 'NONE', #219, .T. ) ;
#103 = VECTOR ( 'NONE', #450, 1000.000000000000000 ) ;
#104 = DIRECTION ( 'NONE',  ( -1.000000000000000000, 0.000000000000000000, 0.000000000000000000 ) ) ;
#105 = DIRECTION ( 'NONE',  ( 1.000000000000000000, 0.000000000000000000, 0.000000000000000000 ) ) ;
#106 = DIRECTION ( 'NONE',  ( -1.000000000000000000, 0.000000000000000000, 0.000000000000000000 ) ) ;
#107 = EDGE_CURVE ( 'NONE', #735, #109, #1037, .T. ) ;
#108 = DIRECTION ( 'NONE',  ( 0.000000000000000000, 0.000000000000000000, 1.000000000000000000 ) ) ;
#109 = VERTEX_POINT ( 'NONE', #101 ) ;
#110 = ORIENTED_EDGE ( 'NONE', *, *, #390, .T. ) ;
#111 = CARTESIAN_POINT ( 'NONE',  ( 20.00000000000000000, -10.00000000000000000, -10.00000000000000000 ) ) ;
#112 = CARTESIAN_POINT ( 'NONE',  ( 20.00000000000000000, -5.000000000000003553, -4.999999999999999112 ) ) ;
#113 = ORIENTED_EDGE ( 'NONE', *, *, #394, .T. ) ;
#114 = CARTESIAN_POINT ( 'NONE',  ( 9.829004570337421143, -6.500000000000005329, -22.12132034355964194 ) ) ;
#115 = ORIENTED_EDGE ( 'NONE', *, *, #987, .T. ) ;
#116 = DIRECTION ( 'NONE',  ( 0.000000000000000000, 0.000000000000000000, 1.000000000000000000 ) ) ;
#117 = AXIS2_PLACEMENT_3D ( 'NONE', #588, #422, #417 ) ;
#118 = CIRCLE ( 'NONE', #150, 3.000000000000001332 ) ;
#119 = EDGE_CURVE ( 'NONE', #724, #255, #873, .T. ) ;
#120 = DIRECTION ( 'NONE',  ( 0.000000000000000000, -0.000000000000000000, 1.000000000000000000 ) ) ;
#121 = CARTESIAN_POINT ( 'NONE',  ( 0.000000000000000000, 0.000000000000000000, 0.000000000000000000 ) ) ;
#122 = VERTEX_POINT ( 'NONE', #701 ) ;
#123 = EDGE_CURVE ( 'NONE', #491, #877, #151, .T. ) ;
#124 = SURFACE_STYLE_USAGE ( .BOTH. , #544 ) ;
#125 = EDGE_LOOP ( 'NONE', ( #279, #1017 ) ) ;
#126 = AXIS2_PLACEMENT_3D ( 'NONE', #395, #988, #499 ) ;
#127 = ORIENTED_EDGE ( 'NONE', *, *, #465, .T. ) ;
#128 = STYLED_ITEM ( 'NONE', ( #629 ), #290 ) ;
#129 = DIRECTION ( 'NONE',  ( 0.000000000000000000, 0.000000000000000000, 1.000000000000000000 ) ) ;
#130 = ORIENTED_EDGE ( 'NONE', *, *, #484, .T. ) ;
#131 = LINE ( 'NONE', #819, #208 ) ;
#132 = CARTESIAN_POINT ( 'NONE',  ( 20.00000000000000000, -5.000000000000004441, -17.00000000000000000 ) ) ;
#133 = CYLINDRICAL_SURFACE ( 'NONE', #301, 2.999999999999999112 ) ;
#134 = DIRECTION ( 'NONE',  ( -0.7660444431189772363, 0.000000000000000000, 0.6427876096865402511 ) ) ;
#135 = CARTESIAN_POINT ( 'NONE',  ( 20.00000000000000000, -5.000000000000003553, -8.000000000000000000 ) ) ;
#136 =( BOUNDED_CURVE ( )  B_SPLINE_CURVE ( 3, ( #378, #986, #403, #415 ),
 .UNSPECIFIED., .F., .F. ) 
 B_SPLINE_CURVE_WITH_KNOTS ( ( 4, 4 ),
 ( 0.000000000000000000, 1.870157828878474149 ),
 .UNSPECIFIED. ) 
 CURVE ( )  GEOMETRIC_REPRESENTATION_ITEM ( )  RATIONAL_B_SPLINE_CURVE ( ( 1.000000000000000000, 0.7291699533600475291, 0.7291699533600475291, 1.000000000000000000 ) ) 
 REPRESENTATION_ITEM ( '' )  );
#137 = EDGE_LOOP ( 'NONE', ( #38, #130, #181, #548, #947, #430, #922 ) ) ;
#138 = VERTEX_POINT ( 'NONE', #704 ) ;
#139 = CARTESIAN_POINT ( 'NONE',  ( 17.00000000000000000, -5.000000000000003553, -4.999999999999999112 ) ) ;
#140 = EDGE_LOOP ( 'NONE', ( #53, #649 ) ) ;
#141 = EDGE_LOOP ( 'NONE', ( #907, #256, #329, #338 ) ) ;
#142 = ADVANCED_FACE ( 'NONE', ( #498, #1011 ), #786, .F. ) ;
#143 = VECTOR ( 'NONE', #706, 1000.000000000000000 ) ;
#144 = FILL_AREA_STYLE ('',( #570 ) ) ;
#145 = CARTESIAN_POINT ( 'NONE',  ( 3.067384683690003389, 0.000000000000000000, -27.06805748150731361 ) ) ;
#146 = AXIS2_PLACEMENT_3D ( 'NONE', #611, #519, #108 ) ;
#147 = VECTOR ( 'NONE', #100, 1000.000000000000000 ) ;
#148 = DIRECTION ( 'NONE',  ( 0.000000000000000000, 0.000000000000000000, 1.000000000000000000 ) ) ;
#149 = DIRECTION ( 'NONE',  ( -0.9848077530122080203, -0.1736481776669304977, -0.000000000000000000 ) ) ;
#150 = AXIS2_PLACEMENT_3D ( 'NONE', #581, #677, #1012 ) ;
#151 = LINE ( 'NONE', #183, #49 ) ;
#152 = AXIS2_PLACEMENT_3D ( 'NONE', #725, #803, #50 ) ;
#153 = CARTESIAN_POINT ( 'NONE',  ( 28.48528137423857487, -5.000000000000003553, -8.000000000000000000 ) ) ;
#154 = CARTESIAN_POINT ( 'NONE',  ( 20.00000000000000000, -6.500000000000005329, -23.19999999999999929 ) ) ;
#155 = EDGE_LOOP ( 'NONE', ( #245, #592, #1004, #313 ) ) ;
#156 = VERTEX_POINT ( 'NONE', #192 ) ;
#157 = CARTESIAN_POINT ( 'NONE',  ( 9.091704794695335323, -3.500000000000003997, -23.00000000000000000 ) ) ;
#158 = ORIENTED_EDGE ( 'NONE', *, *, #83, .F. ) ;
#159 = ORIENTED_EDGE ( 'NONE', *, *, #1081, .T. ) ;
#160 = CARTESIAN_POINT ( 'NONE',  ( 20.00000000000000000, -3.500000000000003997, -23.00000000000000000 ) ) ;
#161 = VECTOR ( 'NONE', #205, 1000.000000000000000 ) ;
#162 = LINE ( 'NONE', #18, #728 ) ;
#163 = ADVANCED_FACE ( 'NONE', ( #251 ), #24, .F. ) ;
#164 = VECTOR ( 'NONE', #809, 1000.000000000000000 ) ;
#165 = ORIENTED_EDGE ( 'NONE', *, *, #534, .F. ) ;
#166 = ORIENTED_EDGE ( 'NONE', *, *, #83, .T. ) ;
#167 = DIRECTION ( 'NONE',  ( 1.000000000000000000, 0.000000000000000000, 0.000000000000000000 ) ) ;
#168 = EDGE_CURVE ( 'NONE', #868, #994, #210, .T. ) ;
#169 = ORIENTED_EDGE ( 'NONE', *, *, #445, .T. ) ;
#170 = ORIENTED_EDGE ( 'NONE', *, *, #902, .F. ) ;
#171 = AXIS2_PLACEMENT_3D ( 'NONE', #386, #61, #895 ) ;
#172 = LINE ( 'NONE', #904, #164 ) ;
#173 = PLANE ( 'NONE',  #1002 ) ;
#174 = CARTESIAN_POINT ( 'NONE',  ( 9.091704794695335323, -6.500000000000005329, -23.00000000000000000 ) ) ;
#175 = EDGE_CURVE ( 'NONE', #255, #724, #467, .T. ) ;
#176 = ORIENTED_EDGE ( 'NONE', *, *, #660, .F. ) ;
#177 = CARTESIAN_POINT ( 'NONE',  ( 16.64360147529087186, 0.9999999999999932276, -14.00000000000000178 ) ) ;
#178 = EDGE_LOOP ( 'NONE', ( #429, #801, #683, #113 ) ) ;
#179 = DIRECTION ( 'NONE',  ( 0.9848077530122080203, -0.1736481776669304977, 0.000000000000000000 ) ) ;
#180 = EDGE_CURVE ( 'NONE', #410, #76, #845, .T. ) ;
#181 = ORIENTED_EDGE ( 'NONE', *, *, #297, .T. ) ;
#182 = CYLINDRICAL_SURFACE ( 'NONE', #5, 1.500000000000001332 ) ;
#183 = CARTESIAN_POINT ( 'NONE',  ( 20.00000000000000000, 0.000000000000000000, 0.000000000000000000 ) ) ;
#184 = VECTOR ( 'NONE', #844, 1000.000000000000000 ) ;
#185 = CARTESIAN_POINT ( 'NONE',  ( 18.00000000000000355, 60.00000000000000000, -9.272059531467590432 ) ) ;
#186 = EDGE_CURVE ( 'NONE', #67, #868, #36, .T. ) ;
#187 = CARTESIAN_POINT ( 'NONE',  ( 0.000000000000000000, -10.00000000000000000, 0.000000000000000000 ) ) ;
#188 = ORIENTED_EDGE ( 'NONE', *, *, #1035, .F. ) ;
#189 = DIRECTION ( 'NONE',  ( 0.000000000000000000, 0.000000000000000000, -1.000000000000000000 ) ) ;
#190 = ORIENTED_EDGE ( 'NONE', *, *, #792, .F. ) ;
#191 = ORIENTED_EDGE ( 'NONE', *, *, #985, .F. ) ;
#192 = CARTESIAN_POINT ( 'NONE',  ( 19.53208888623795758, -6.433287475120121002, -10.55763475084066982 ) ) ;
#193 = DIRECTION ( 'NONE',  ( 0.000000000000000000, 1.000000000000000000, 0.000000000000000000 ) ) ;
#194 = LINE ( 'NONE', #463, #638 ) ;
#195 = FACE_BOUND ( 'NONE', #351, .T. ) ;
#196 = CARTESIAN_POINT ( 'NONE',  ( 28.48528137423857487, -5.000000000000003553, -4.999999999999999112 ) ) ;
#197 = VECTOR ( 'NONE', #713, 1000.000000000000000 ) ;
#198 = EDGE_CURVE ( 'NONE', #491, #1074, #888, .T. ) ;
#199 = AXIS2_PLACEMENT_3D ( 'NONE', #523, #783, #268 ) ;
#200 = ORIENTED_EDGE ( 'NONE', *, *, #983, .F. ) ;
#201 = AXIS2_PLACEMENT_3D ( 'NONE', #607, #315, #775 ) ;
#202 = ORIENTED_EDGE ( 'NONE', *, *, #119, .F. ) ;
#203 = CARTESIAN_POINT ( 'NONE',  ( -0.000000000000000000, -5.000000000000004441, -23.00000000000000000 ) ) ;
#204 = ORIENTED_EDGE ( 'NONE', *, *, #399, .F. ) ;
#205 = DIRECTION ( 'NONE',  ( 1.000000000000000000, 0.000000000000000000, 0.000000000000000000 ) ) ;
#206 = DIRECTION ( 'NONE',  ( 0.000000000000000000, 1.000000000000000000, 0.000000000000000000 ) ) ;
#207 = FACE_BOUND ( 'NONE', #717, .T. ) ;
#208 = VECTOR ( 'NONE', #910, 1000.000000000000000 ) ;
#209 = CIRCLE ( 'NONE', #565, 2.000000000000001776 ) ;
#210 = CIRCLE ( 'NONE', #199, 1.700000000000000178 ) ;
#211 = CARTESIAN_POINT ( 'NONE',  ( 4.599473569927951644, -10.00000000000000000, -28.35363270088040011 ) ) ;
#212 = CARTESIAN_POINT ( 'NONE',  ( 0.000000000000000000, -10.00000000000000000, -29.06805748150731361 ) ) ;
#213 = EDGE_LOOP ( 'NONE', ( #909, #984, #379, #278 ) ) ;
#214 = PRESENTATION_LAYER_ASSIGNMENT (  '', '', ( #669 ) ) ;
#215 = DIRECTION ( 'NONE',  ( 0.6427876096865403621, -0.000000000000000000, 0.7660444431189772363 ) ) ;
#216 = EDGE_LOOP ( 'NONE', ( #790, #812, #414, #652 ) ) ;
#217 = DIRECTION ( 'NONE',  ( -1.000000000000000000, 0.000000000000000000, 0.000000000000000000 ) ) ;
#218 = DIRECTION ( 'NONE',  ( 1.000000000000000000, 0.000000000000000000, 0.000000000000000000 ) ) ;
#219 = EDGE_LOOP ( 'NONE', ( #771, #826, #39, #1014, #15, #31, #559 ) ) ;
#220 = EDGE_CURVE ( 'NONE', #1062, #269, #571, .T. ) ;
#221 = CARTESIAN_POINT ( 'NONE',  ( 19.53208888623795758, -3.566712524879887436, -10.55763475084066982 ) ) ;
#222 = ORIENTED_EDGE ( 'NONE', *, *, #864, .F. ) ;
#223 = VECTOR ( 'NONE', #35, 1000.000000000000000 ) ;
#224 = AXIS2_PLACEMENT_3D ( 'NONE', #1063, #261, #693 ) ;
#225 = ADVANCED_FACE ( 'NONE', ( #676 ), #659, .F. ) ;
#226 = VECTOR ( 'NONE', #736, 1000.000000000000000 ) ;
#227 = DIRECTION ( 'NONE',  ( -1.000000000000000000, -0.000000000000000000, -0.000000000000000000 ) ) ;
#228 = VERTEX_POINT ( 'NONE', #447 ) ;
#229 =( LENGTH_UNIT ( ) NAMED_UNIT ( * ) SI_UNIT ( .MILLI., .METRE. ) );
#230 = VERTEX_POINT ( 'NONE', #708 ) ;
#231 = CARTESIAN_POINT ( 'NONE',  ( 19.53208888623795758, -6.433287475120121002, -10.55763475084066982 ) ) ;
#232 = EDGE_CURVE ( 'NONE', #776, #767, #1068, .T. ) ;
#233 = ORIENTED_EDGE ( 'NONE', *, *, #328, .F. ) ;
#234 = PLANE ( 'NONE',  #906 ) ;
#235 = PRODUCT_DEFINITION_CONTEXT ( 'detailed design', #566, 'design' ) ;
#236 = LINE ( 'NONE', #715, #143 ) ;
#237 = SURFACE_STYLE_USAGE ( .BOTH. , #744 ) ;
#238 = CIRCLE ( 'NONE', #126, 1.700000000000000178 ) ;
#239 = CARTESIAN_POINT ( 'NONE',  ( 11.60900368822717965, -5.000000000000004441, -20.00000000000000000 ) ) ;
#240 = CIRCLE ( 'NONE', #689, 2.999999999999999112 ) ;
#241 = FACE_OUTER_BOUND ( 'NONE', #722, .T. ) ;
#242 = ADVANCED_FACE ( 'NONE', ( #900 ), #854, .F. ) ;
#243 = EDGE_LOOP ( 'NONE', ( #982, #793, #668, #599 ) ) ;
#244 = EDGE_CURVE ( 'NONE', #67, #1028, #9, .T. ) ;
#245 = ORIENTED_EDGE ( 'NONE', *, *, #707, .F. ) ;
#246 = ORIENTED_EDGE ( 'NONE', *, *, #1038, .T. ) ;
#247 = CARTESIAN_POINT ( 'NONE',  ( 10.35035424146125749, -4.121320343559646382, -21.49999999999999645 ) ) ;
#248 = LINE ( 'NONE', #270, #223 ) ;
#249 = CARTESIAN_POINT ( 'NONE',  ( 0.000000000000000000, 4.999999999999997335, -9.000000000000001776 ) ) ;
#250 = LINE ( 'NONE', #949, #103 ) ;
#251 = FACE_OUTER_BOUND ( 'NONE', #663, .T. ) ;
#252 = EDGE_CURVE ( 'NONE', #769, #353, #644, .T. ) ;
#253 = ORIENTED_EDGE ( 'NONE', *, *, #390, .F. ) ;
#254 = CARTESIAN_POINT ( 'NONE',  ( 3.067384683690003389, -10.00000000000000000, -29.06805748150731361 ) ) ;
#255 = VERTEX_POINT ( 'NONE', #878 ) ;
#256 = ORIENTED_EDGE ( 'NONE', *, *, #614, .T. ) ;
#257 = AXIS2_PLACEMENT_3D ( 'NONE', #876, #454, #449 ) ;
#258 = PLANE ( 'NONE',  #404 ) ;
#259 = CARTESIAN_POINT ( 'NONE',  ( 11.60900368822718143, 0.9999999999999932276, -20.00000000000000000 ) ) ;
#260 = CYLINDRICAL_SURFACE ( 'NONE', #702, 1.700000000000000178 ) ;
#261 = DIRECTION ( 'NONE',  ( -1.000000000000000000, -0.000000000000000000, -0.000000000000000000 ) ) ;
#262 = CARTESIAN_POINT ( 'NONE',  ( 9.091704794695335323, -3.500000000000003997, -23.00000000000000000 ) ) ;
#263 = VECTOR ( 'NONE', #791, 999.9999999999998863 ) ;
#264 = DIRECTION ( 'NONE',  ( -1.000000000000000000, -0.000000000000000000, -0.000000000000000000 ) ) ;
#265 = DIRECTION ( 'NONE',  ( -0.000000000000000000, -1.000000000000000000, -0.000000000000000000 ) ) ;
#266 = ORIENTED_EDGE ( 'NONE', *, *, #580, .F. ) ;
#267 = CARTESIAN_POINT ( 'NONE',  ( 20.00000000000000000, 0.000000000000000000, -9.272059531467590432 ) ) ;
#268 = DIRECTION ( 'NONE',  ( 0.000000000000000000, 0.000000000000000000, 1.000000000000000000 ) ) ;
#269 = VERTEX_POINT ( 'NONE', #547 ) ;
#270 = CARTESIAN_POINT ( 'NONE',  ( 20.00000000000000000, -5.000000000000003553, -6.699999999999999289 ) ) ;
#271 = EDGE_LOOP ( 'NONE', ( #818, #919, #695, #905, #169 ) ) ;
#272 = CARTESIAN_POINT ( 'NONE',  ( -0.000000000000000000, -5.000000000000003553, -4.999999999999999112 ) ) ;
#273 = EDGE_CURVE ( 'NONE', #1028, #67, #686, .T. ) ;
#274 = DIRECTION ( 'NONE',  ( 0.000000000000000000, 0.000000000000000000, 1.000000000000000000 ) ) ;
#275 = FACE_OUTER_BOUND ( 'NONE', #520, .T. ) ;
#276 = AXIS2_PLACEMENT_3D ( 'NONE', #185, #847, #782 ) ;
#277 = ORIENTED_EDGE ( 'NONE', *, *, #456, .T. ) ;
#278 = ORIENTED_EDGE ( 'NONE', *, *, #743, .F. ) ;
#279 = ORIENTED_EDGE ( 'NONE', *, *, #822, .T. ) ;
#280 = DIRECTION ( 'NONE',  ( 0.000000000000000000, -0.000000000000000000, -1.000000000000000000 ) ) ;
#281 = EDGE_CURVE ( 'NONE', #632, #724, #448, .T. ) ;
#282 = CARTESIAN_POINT ( 'NONE',  ( 10.00000000000000000, -5.000000000000004441, -15.30000000000000071 ) ) ;
#283 = FACE_BOUND ( 'NONE', #364, .T. ) ;
#284 = VECTOR ( 'NONE', #950, 1000.000000000000000 ) ;
#285 = EDGE_CURVE ( 'NONE', #994, #868, #311, .T. ) ;
#286 = ORIENTED_EDGE ( 'NONE', *, *, #560, .F. ) ;
#287 = CARTESIAN_POINT ( 'NONE',  ( 20.00000000000000000, 0.000000000000000000, -10.00000000000000000 ) ) ;
#288 = CARTESIAN_POINT ( 'NONE',  ( 4.599473569927956973, -10.00000000000000000, -28.35363270088040011 ) ) ;
#289 = ORIENTED_EDGE ( 'NONE', *, *, #853, .F. ) ;
#290 = MANIFOLD_SOLID_BREP ( 'Schnitt-Linear austragen3', #879 ) ;
#291 = CARTESIAN_POINT ( 'NONE',  ( 17.90225092205679402, -5.000000000000004441, -12.50000000000000000 ) ) ;
#292 = LINE ( 'NONE', #435, #585 ) ;
#293 =( LENGTH_UNIT ( ) NAMED_UNIT ( * ) SI_UNIT ( .MILLI., .METRE. ) );
#294 = VECTOR ( 'NONE', #367, 1000.000000000000000 ) ;
#295 = DIRECTION ( 'NONE',  ( 0.000000000000000000, 0.000000000000000000, 1.000000000000000000 ) ) ;
#296 = DIRECTION ( 'NONE',  ( 1.000000000000000000, 0.000000000000000000, 0.000000000000000000 ) ) ;
#297 = EDGE_CURVE ( 'NONE', #122, #76, #808, .T. ) ;
#298 = ORIENTED_EDGE ( 'NONE', *, *, #985, .T. ) ;
#299 = ORIENTED_EDGE ( 'NONE', *, *, #841, .F. ) ;
#300 = EDGE_CURVE ( 'NONE', #138, #324, #739, .T. ) ;
#301 = AXIS2_PLACEMENT_3D ( 'NONE', #667, #1064, #295 ) ;
#302 = DIRECTION ( 'NONE',  ( 0.000000000000000000, 0.000000000000000000, 1.000000000000000000 ) ) ;
#303 = ORIENTED_EDGE ( 'NONE', *, *, #743, .T. ) ;
#304 = CIRCLE ( 'NONE', #1067, 3.000000000000001332 ) ;
#305 = ADVANCED_FACE ( 'NONE', ( #586 ), #1022, .F. ) ;
#306 = EDGE_CURVE ( 'NONE', #692, #705, #913, .T. ) ;
#307 = CARTESIAN_POINT ( 'NONE',  ( 6.406585974928032279, -3.500000000000003997, -26.20000000000000639 ) ) ;
#308 = PLANE ( 'NONE',  #1025 ) ;
#309 = AXIS2_PLACEMENT_3D ( 'NONE', #469, #51, #555 ) ;
#310 = CARTESIAN_POINT ( 'NONE',  ( 8.923884868459879272, -3.500000000000003997, -23.19999999999999929 ) ) ;
#311 = CIRCLE ( 'NONE', #55, 1.700000000000000178 ) ;
#312 = CARTESIAN_POINT ( 'NONE',  ( 9.829004570337421143, -3.500000000000003553, -22.12132034355964194 ) ) ;
#313 = ORIENTED_EDGE ( 'NONE', *, *, #281, .F. ) ;
#314 = EDGE_LOOP ( 'NONE', ( #246, #813, #990, #115, #411, #13, #1032 ) ) ;
#315 = DIRECTION ( 'NONE',  ( 0.000000000000000000, 1.000000000000000000, 0.000000000000000000 ) ) ;
#316 = ADVANCED_FACE ( 'NONE', ( #344 ), #1053, .F. ) ;
#317 = VERTEX_POINT ( 'NONE', #1045 ) ;
#318 = LINE ( 'NONE', #601, #284 ) ;
#319 = VECTOR ( 'NONE', #862, 1000.000000000000000 ) ;
#320 = ORIENTED_EDGE ( 'NONE', *, *, #343, .T. ) ;
#321 = EDGE_LOOP ( 'NONE', ( #166, #298 ) ) ;
#322 = AXIS2_PLACEMENT_3D ( 'NONE', #203, #438, #1039 ) ;
#323 = DIRECTION ( 'NONE',  ( 0.000000000000000000, -0.1736481776669304977, -0.9848077530122080203 ) ) ;
#324 = VERTEX_POINT ( 'NONE', #360 ) ;
#325 = B_SPLINE_CURVE_WITH_KNOTS ( 'NONE', 3,
 ( #1050, #733, #806, #646, #480, #661, #741, #59, #489, #231 ),
 .UNSPECIFIED., .F., .F.,
 ( 4, 2, 2, 2, 4 ),
 ( 0.001992291722292935732, 0.002490534327922945719, 0.002988776933552956139, 0.003487019539182966560, 0.003985262144812976547 ),
 .UNSPECIFIED. ) ;
#326 = CYLINDRICAL_SURFACE ( 'NONE', #201, 2.000000000000001776 ) ;
#327 = DIRECTION ( 'NONE',  ( -0.000000000000000000, 0.000000000000000000, 1.000000000000000000 ) ) ;
#328 = EDGE_CURVE ( 'NONE', #85, #969, #821, .T. ) ;
#329 = ORIENTED_EDGE ( 'NONE', *, *, #300, .T. ) ;
#330 = CARTESIAN_POINT ( 'NONE',  ( 1.999999999999998224, 60.00000000000000000, -4.000000000000000000 ) ) ;
#331 = VERTEX_POINT ( 'NONE', #963 ) ;
#332 = CARTESIAN_POINT ( 'NONE',  ( 0.000000000000000000, 60.00000000000000000, 0.000000000000000000 ) ) ;
#333 = EDGE_CURVE ( 'NONE', #228, #156, #325, .T. ) ;
#334 = EDGE_CURVE ( 'NONE', #122, #324, #57, .T. ) ;
#335 = ORIENTED_EDGE ( 'NONE', *, *, #685, .T. ) ;
#336 = AXIS2_PLACEMENT_3D ( 'NONE', #374, #476, #1060 ) ;
#337 = DIRECTION ( 'NONE',  ( -1.000000000000000000, -0.000000000000000000, -0.000000000000000000 ) ) ;
#338 = ORIENTED_EDGE ( 'NONE', *, *, #928, .T. ) ;
#339 = CARTESIAN_POINT ( 'NONE',  ( 0.000000000000000000, 60.00000000000000000, -4.000000000000000000 ) ) ;
#340 = AXIS2_PLACEMENT_3D ( 'NONE', #872, #44, #129 ) ;
#341 = FACE_OUTER_BOUND ( 'NONE', #155, .T. ) ;
#342 = VECTOR ( 'NONE', #883, 1000.000000000000000 ) ;
#343 = EDGE_CURVE ( 'NONE', #705, #109, #240, .T. ) ;
#344 = FACE_OUTER_BOUND ( 'NONE', #591, .T. ) ;
#345 = CARTESIAN_POINT ( 'NONE',  ( 20.00000000000000000, 4.999999999999997335, -9.000000000000001776 ) ) ;
#346 = PLANE ( 'NONE',  #496 ) ;
#347 = EDGE_LOOP ( 'NONE', ( #335, #938, #777, #286 ) ) ;
#348 = EDGE_LOOP ( 'NONE', ( #647, #576, #742, #964, #159, #392, #849 ) ) ;
#349 = DIRECTION ( 'NONE',  ( 1.000000000000000000, -0.000000000000000000, 0.000000000000000000 ) ) ;
#350 = DIRECTION ( 'NONE',  ( 0.000000000000000000, 1.000000000000000000, 0.000000000000000000 ) ) ;
#351 = EDGE_LOOP ( 'NONE', ( #1071, #867 ) ) ;
#352 = EDGE_CURVE ( 'NONE', #269, #85, #446, .T. ) ;
#353 = VERTEX_POINT ( 'NONE', #892 ) ;
#354 = CARTESIAN_POINT ( 'NONE',  ( 20.00000000000000000, -3.500000000000003997, -23.19999999999999929 ) ) ;
#355 = CARTESIAN_POINT ( 'NONE',  ( 10.00000000000000000, -5.000000000000004441, -17.00000000000000000 ) ) ;
#356 = CARTESIAN_POINT ( 'NONE',  ( 10.00000000000000000, -5.000000000000004441, -17.00000000000000000 ) ) ;
#357 = VECTOR ( 'NONE', #105, 1000.000000000000000 ) ;
#358 = LINE ( 'NONE', #473, #997 ) ;
#359 = EDGE_CURVE ( 'NONE', #362, #838, #21, .T. ) ;
#360 = CARTESIAN_POINT ( 'NONE',  ( 18.00000000000000355, 60.00000000000000000, -1.999999999999998224 ) ) ;
#361 =( GEOMETRIC_REPRESENTATION_CONTEXT ( 3 ) GLOBAL_UNCERTAINTY_ASSIGNED_CONTEXT ( ( #398 ) ) GLOBAL_UNIT_ASSIGNED_CONTEXT ( ( #293, #740, #914 ) ) REPRESENTATION_CONTEXT ( 'NONE', 'WORKASPACE' ) );
#362 = VERTEX_POINT ( 'NONE', #384 ) ;
#363 = CARTESIAN_POINT ( 'NONE',  ( 20.00000000000000000, -5.000000000000004441, -20.00000000000000000 ) ) ;
#364 = EDGE_LOOP ( 'NONE', ( #564, #79 ) ) ;
#365 = CARTESIAN_POINT ( 'NONE',  ( 20.00000000000000000, -10.00000000000000000, -10.00000000000000000 ) ) ;
#366 = ORIENTED_EDGE ( 'NONE', *, *, #967, .T. ) ;
#367 = DIRECTION ( 'NONE',  ( -1.000000000000000000, -0.000000000000000000, -0.000000000000000000 ) ) ;
#368 = FACE_OUTER_BOUND ( 'NONE', #758, .T. ) ;
#369 = CARTESIAN_POINT ( 'NONE',  ( 16.64360147529087186, -11.00000000000000355, -14.00000000000000178 ) ) ;
#370 = CIRCLE ( 'NONE', #600, 1.499999999999999556 ) ;
#371 = FACE_BOUND ( 'NONE', #1072, .T. ) ;
#372 = CARTESIAN_POINT ( 'NONE',  ( 0.000000000000000000, 60.00000000000000000, -1.999999999999998224 ) ) ;
#373 = FACE_OUTER_BOUND ( 'NONE', #690, .T. ) ;
#374 = CARTESIAN_POINT ( 'NONE',  ( 18.00000000000000355, -9.999999999999994671, -9.272059531467590432 ) ) ;
#375 = CARTESIAN_POINT ( 'NONE',  ( 3.067384683690003389, -10.00000000000000000, -29.06805748150731361 ) ) ;
#376 = VERTEX_POINT ( 'NONE', #824 ) ;
#377 = ORIENTED_EDGE ( 'NONE', *, *, #306, .F. ) ;
#378 = CARTESIAN_POINT ( 'NONE',  ( 17.90225092205679402, -5.000000000000004441, -12.50000000000000000 ) ) ;
#379 = ORIENTED_EDGE ( 'NONE', *, *, #168, .T. ) ;
#380 = ADVANCED_FACE ( 'NONE', ( #406 ), #308, .F. ) ;
#381 = ORIENTED_EDGE ( 'NONE', *, *, #697, .T. ) ;
#382 =( NAMED_UNIT ( * ) SI_UNIT ( $, .STERADIAN. ) SOLID_ANGLE_UNIT ( ) );
#383 = CARTESIAN_POINT ( 'NONE',  ( 0.000000000000000000, -5.000000000000003553, -3.299999999999998934 ) ) ;
#384 = CARTESIAN_POINT ( 'NONE',  ( 3.067384683690003389, 0.000000000000000000, -29.06805748150731361 ) ) ;
#385 =( GEOMETRIC_REPRESENTATION_CONTEXT ( 3 ) GLOBAL_UNCERTAINTY_ASSIGNED_CONTEXT ( ( #954 ) ) GLOBAL_UNIT_ASSIGNED_CONTEXT ( ( #229, #665, #382 ) ) REPRESENTATION_CONTEXT ( 'NONE', 'WORKASPACE' ) );
#386 = CARTESIAN_POINT ( 'NONE',  ( -0.000000000000000000, -5.000000000000004441, -11.00000000000000178 ) ) ;
#387 = ADVANCED_FACE ( 'NONE', ( #642 ), #133, .F. ) ;
#388 = DIRECTION ( 'NONE',  ( -0.000000000000000000, 1.000000000000000000, -0.000000000000000000 ) ) ;
#389 = COLOUR_RGB ( '',0.5019607843137254832, 0.5019607843137254832, 0.5019607843137254832 ) ;
#390 = EDGE_CURVE ( 'NONE', #85, #877, #596, .T. ) ;
#391 = DIRECTION ( 'NONE',  ( -0.1710878697460356257, 0.9702875252478138091, -0.1710878697460356257 ) ) ;
#392 = ORIENTED_EDGE ( 'NONE', *, *, #424, .T. ) ;
#393 = ORIENTED_EDGE ( 'NONE', *, *, #682, .F. ) ;
#394 = EDGE_CURVE ( 'NONE', #1059, #969, #887, .T. ) ;
#395 = CARTESIAN_POINT ( 'NONE',  ( 17.00000000000000000, -5.000000000000003553, -4.999999999999999112 ) ) ;
#396 = DIRECTION ( 'NONE',  ( -1.000000000000000000, -0.000000000000000000, -0.000000000000000000 ) ) ;
#397 = ORIENTED_EDGE ( 'NONE', *, *, #719, .F. ) ;
#398 = UNCERTAINTY_MEASURE_WITH_UNIT (LENGTH_MEASURE( 1.000000000000000082E-05 ), #293, 'distance_accuracy_value', 'NONE');
#399 = EDGE_CURVE ( 'NONE', #936, #269, #172, .T. ) ;
#400 = DIRECTION ( 'NONE',  ( 0.000000000000000000, 0.000000000000000000, 1.000000000000000000 ) ) ;
#401 = ADVANCED_FACE ( 'NONE', ( #434 ), #62, .F. ) ;
#402 = VECTOR ( 'NONE', #215, 999.9999999999998863 ) ;
#403 = CARTESIAN_POINT ( 'NONE',  ( 18.64731634732598664, -6.758723631235823426, -11.61206560271770805 ) ) ;
#404 = AXIS2_PLACEMENT_3D ( 'NONE', #25, #327, #935 ) ;
#405 = FACE_OUTER_BOUND ( 'NONE', #552, .T. ) ;
#406 = FACE_OUTER_BOUND ( 'NONE', #347, .T. ) ;
#407 = AXIS2_PLACEMENT_3D ( 'NONE', #356, #794, #48 ) ;
#408 = EDGE_CURVE ( 'NONE', #86, #230, #464, .T. ) ;
#409 = ADVANCED_FACE ( 'NONE', ( #373 ), #684, .F. ) ;
#410 = VERTEX_POINT ( 'NONE', #975 ) ;
#411 = ORIENTED_EDGE ( 'NONE', *, *, #180, .T. ) ;
#412 = CARTESIAN_POINT ( 'NONE',  ( 0.000000000000000000, 60.00000000000000000, -1.999999999999998224 ) ) ;
#413 = VERTEX_POINT ( 'NONE', #1000 ) ;
#414 = ORIENTED_EDGE ( 'NONE', *, *, #622, .F. ) ;
#415 = CARTESIAN_POINT ( 'NONE',  ( 19.53208888623795758, -6.433287475120121002, -10.55763475084066982 ) ) ;
#416 = ORIENTED_EDGE ( 'NONE', *, *, #802, .T. ) ;
#417 = DIRECTION ( 'NONE',  ( 0.000000000000000000, 0.000000000000000000, 1.000000000000000000 ) ) ;
#418 = CYLINDRICAL_SURFACE ( 'NONE', #654, 1.700000000000000178 ) ;
#419 = DIRECTION ( 'NONE',  ( 0.000000000000000000, 0.000000000000000000, 1.000000000000000000 ) ) ;
#420 = VECTOR ( 'NONE', #945, 1000.000000000000000 ) ;
#421 = CARTESIAN_POINT ( 'NONE',  ( 17.00000000000000000, -5.000000000000003553, -6.699999999999999289 ) ) ;
#422 = DIRECTION ( 'NONE',  ( -1.000000000000000000, 0.000000000000000000, 0.000000000000000000 ) ) ;
#423 = ORIENTED_EDGE ( 'NONE', *, *, #765, .F. ) ;
#424 = EDGE_CURVE ( 'NONE', #992, #156, #136, .T. ) ;
#425 = AXIS2_PLACEMENT_3D ( 'NONE', #691, #90, #694 ) ;
#426 = ORIENTED_EDGE ( 'NONE', *, *, #527, .F. ) ;
#427 = PRODUCT_DEFINITION ( 'UNKNOWN', '', #991, #235 ) ;
#428 = CARTESIAN_POINT ( 'NONE',  ( 11.60900368822717965, -5.000000000000004441, -20.00000000000000000 ) ) ;
#429 = ORIENTED_EDGE ( 'NONE', *, *, #902, .T. ) ;
#430 = ORIENTED_EDGE ( 'NONE', *, *, #123, .T. ) ;
#431 = DIRECTION ( 'NONE',  ( 0.000000000000000000, 0.000000000000000000, 1.000000000000000000 ) ) ;
#432 = FACE_OUTER_BOUND ( 'NONE', #314, .T. ) ;
#433 = CYLINDRICAL_SURFACE ( 'NONE', #843, 1.700000000000000178 ) ;
#434 = FACE_OUTER_BOUND ( 'NONE', #243, .T. ) ;
#435 = CARTESIAN_POINT ( 'NONE',  ( 20.00000000000000000, -3.500000000000003997, -10.00000000000000000 ) ) ;
#436 = VECTOR ( 'NONE', #265, 1000.000000000000000 ) ;
#437 = CARTESIAN_POINT ( 'NONE',  ( 0.000000000000000000, 0.000000000000000000, -9.000000000000001776 ) ) ;
#438 = DIRECTION ( 'NONE',  ( -1.000000000000000000, 0.000000000000000000, 0.000000000000000000 ) ) ;
#439 = VERTEX_POINT ( 'NONE', #828 ) ;
#440 = DIRECTION ( 'NONE',  ( 0.000000000000000000, 0.000000000000000000, 1.000000000000000000 ) ) ;
#441 = EDGE_LOOP ( 'NONE', ( #202, #619 ) ) ;
#442 = DIRECTION ( 'NONE',  ( -1.000000000000000000, 0.000000000000000000, 0.000000000000000000 ) ) ;
#443 = CARTESIAN_POINT ( 'NONE',  ( 0.000000000000000000, 0.000000000000000000, -29.06805748150731361 ) ) ;
#444 = LINE ( 'NONE', #882, #698 ) ;
#445 = EDGE_CURVE ( 'NONE', #616, #745, #1029, .T. ) ;
#446 = CIRCLE ( 'NONE', #470, 5.000000000000000888 ) ;
#447 = CARTESIAN_POINT ( 'NONE',  ( 19.98696832959290859, -5.000000000000004441, -9.500000000000001776 ) ) ;
#448 = LINE ( 'NONE', #1054, #226 ) ;
#449 = DIRECTION ( 'NONE',  ( 0.000000000000000000, 0.000000000000000000, 1.000000000000000000 ) ) ;
#450 = DIRECTION ( 'NONE',  ( -0.000000000000000000, -1.000000000000000000, -0.000000000000000000 ) ) ;
#451 = DIRECTION ( 'NONE',  ( 0.000000000000000000, -1.000000000000000000, 0.000000000000000000 ) ) ;
#452 = EDGE_LOOP ( 'NONE', ( #734, #768, #63, #1058 ) ) ;
#453 = VERTEX_POINT ( 'NONE', #88 ) ;
#454 = DIRECTION ( 'NONE',  ( -1.000000000000000000, 0.000000000000000000, 0.000000000000000000 ) ) ;
#455 = DIRECTION ( 'NONE',  ( 1.000000000000000000, 0.000000000000000000, 0.000000000000000000 ) ) ;
#456 = EDGE_CURVE ( 'NONE', #28, #228, #32, .T. ) ;
#457 = AXIS2_PLACEMENT_3D ( 'NONE', #621, #106, #526 ) ;
#458 = ORIENTED_EDGE ( 'NONE', *, *, #770, .F. ) ;
#459 = EDGE_CURVE ( 'NONE', #439, #230, #999, .T. ) ;
#460 = DIRECTION ( 'NONE',  ( -0.000000000000000000, -0.000000000000000000, -1.000000000000000000 ) ) ;
#461 = FACE_OUTER_BOUND ( 'NONE', #452, .T. ) ;
#462 = VECTOR ( 'NONE', #608, 1000.000000000000000 ) ;
#463 = CARTESIAN_POINT ( 'NONE',  ( -0.000000000000000000, -6.500000000000005329, -23.19999999999999929 ) ) ;
#464 = LINE ( 'NONE', #475, #82 ) ;
#465 = EDGE_CURVE ( 'NONE', #567, #936, #250, .T. ) ;
#466 = CARTESIAN_POINT ( 'NONE',  ( 18.05854211834847334, 59.66799114852839381, -1.941457881651525552 ) ) ;
#467 = CIRCLE ( 'NONE', #666, 1.700000000000000178 ) ;
#468 = AXIS2_PLACEMENT_3D ( 'NONE', #354, #193, #120 ) ;
#469 = CARTESIAN_POINT ( 'NONE',  ( 0.000000000000000000, 60.00000000000000000, 0.000000000000000000 ) ) ;
#470 = AXIS2_PLACEMENT_3D ( 'NONE', #1073, #908, #573 ) ;
#471 = MECHANICAL_DESIGN_GEOMETRIC_PRESENTATION_REPRESENTATION (  '', ( #128 ), #75 ) ;
#472 = ORIENTED_EDGE ( 'NONE', *, *, #841, .T. ) ;
#473 = CARTESIAN_POINT ( 'NONE',  ( 20.00000000000000000, -6.500000000000005329, -10.00000000000000000 ) ) ;
#474 = ORIENTED_EDGE ( 'NONE', *, *, #232, .F. ) ;
#475 = CARTESIAN_POINT ( 'NONE',  ( 28.48528137423857487, -5.000000000000003553, -1.999999999999997780 ) ) ;
#476 = DIRECTION ( 'NONE',  ( -0.000000000000000000, -1.000000000000000000, -0.000000000000000000 ) ) ;
#477 = CARTESIAN_POINT ( 'NONE',  ( 0.000000000000000000, 48.65743636076459921, 0.000000000000000000 ) ) ;
#478 = ORIENTED_EDGE ( 'NONE', *, *, #394, .F. ) ;
#479 = CIRCLE ( 'NONE', #643, 2.000000000000001776 ) ;
#480 = CARTESIAN_POINT ( 'NONE',  ( 19.95234988421434963, -5.796496738942178872, -9.718488001508465146 ) ) ;
#481 = FACE_OUTER_BOUND ( 'NONE', #140, .T. ) ;
#482 = LINE ( 'NONE', #510, #835 ) ;
#483 = CARTESIAN_POINT ( 'NONE',  ( 0.000000000000000000, -5.000000000000004441, -12.50000000000000000 ) ) ;
#484 = EDGE_CURVE ( 'NONE', #567, #122, #842, .T. ) ;
#485 = EDGE_CURVE ( 'NONE', #109, #705, #712, .T. ) ;
#486 = ADVANCED_FACE ( 'NONE', ( #675 ), #418, .F. ) ;
#487 = PRODUCT_CONTEXT ( 'NONE', #981, 'mechanical' ) ;
#488 = EDGE_LOOP ( 'NONE', ( #817, #781, #846, #501 ) ) ;
#489 = CARTESIAN_POINT ( 'NONE',  ( 19.63746559894275734, -6.394527917359740243, -10.43205167489895580 ) ) ;
#490 = EDGE_CURVE ( 'NONE', #1074, #28, #973, .T. ) ;
#491 = VERTEX_POINT ( 'NONE', #267 ) ;
#492 = CARTESIAN_POINT ( 'NONE',  ( 20.00000000000000000, 48.65743636076459921, -4.000000000000000000 ) ) ;
#493 = CARTESIAN_POINT ( 'NONE',  ( 1.941457881651525552, 59.66799114852839381, -1.941457881651525330 ) ) ;
#494 = DIRECTION ( 'NONE',  ( -1.000000000000000000, -0.000000000000000000, -0.000000000000000000 ) ) ;
#495 = CARTESIAN_POINT ( 'NONE',  ( -0.000000000000000000, -5.000000000000004441, -23.00000000000000000 ) ) ;
#496 = AXIS2_PLACEMENT_3D ( 'NONE', #355, #37, #627 ) ;
#497 = LINE ( 'NONE', #92, #184 ) ;
#498 = FACE_BOUND ( 'NONE', #125, .T. ) ;
#499 = DIRECTION ( 'NONE',  ( 0.000000000000000000, 0.000000000000000000, -1.000000000000000000 ) ) ;
#500 = CARTESIAN_POINT ( 'NONE',  ( 1.999999999999998224, 60.00000000000000000, 0.000000000000000000 ) ) ;
#501 = ORIENTED_EDGE ( 'NONE', *, *, #598, .F. ) ;
#502 = ADVANCED_FACE ( 'NONE', ( #481, #195 ), #346, .F. ) ;
#503 = ORIENTED_EDGE ( 'NONE', *, *, #707, .T. ) ;
#504 = ORIENTED_EDGE ( 'NONE', *, *, #14, .F. ) ;
#505 = LINE ( 'NONE', #931, #923 ) ;
#506 = PLANE ( 'NONE',  #425 ) ;
#507 = VECTOR ( 'NONE', #206, 1000.000000000000000 ) ;
#508 = AXIS2_PLACEMENT_3D ( 'NONE', #272, #1026, #605 ) ;
#509 = ORIENTED_EDGE ( 'NONE', *, *, #119, .T. ) ;
#510 = CARTESIAN_POINT ( 'NONE',  ( 1.999999999999998224, 60.00000000000000000, -4.000000000000000000 ) ) ;
#511 = ORIENTED_EDGE ( 'NONE', *, *, #186, .F. ) ;
#512 = ORIENTED_EDGE ( 'NONE', *, *, #107, .T. ) ;
#513 = CARTESIAN_POINT ( 'NONE',  ( 20.00000000000000000, -5.000000000000004441, -15.30000000000000071 ) ) ;
#514 = FACE_OUTER_BOUND ( 'NONE', #930, .T. ) ;
#515 = DIRECTION ( 'NONE',  ( -1.000000000000000000, -0.000000000000000000, -0.000000000000000000 ) ) ;
#516 = FACE_OUTER_BOUND ( 'NONE', #64, .T. ) ;
#517 = CARTESIAN_POINT ( 'NONE',  ( 16.64360147529087186, -5.000000000000004441, -14.00000000000000178 ) ) ;
#518 = CARTESIAN_POINT ( 'NONE',  ( 19.72185060057260131, -3.664565378633358961, -10.29967108329977421 ) ) ;
#519 = DIRECTION ( 'NONE',  ( -1.000000000000000000, 0.000000000000000000, 0.000000000000000000 ) ) ;
#520 = EDGE_LOOP ( 'NONE', ( #43, #99, #800, #165 ) ) ;
#521 =( BOUNDED_CURVE ( )  B_SPLINE_CURVE ( 3, ( #1043, #732, #369, #645 ),
 .UNSPECIFIED., .F., .T. ) 
 B_SPLINE_CURVE_WITH_KNOTS ( ( 4, 4 ),
 ( 0.000000000000000000, 3.141592653589793116 ),
 .UNSPECIFIED. ) 
 CURVE ( )  GEOMETRIC_REPRESENTATION_ITEM ( )  RATIONAL_B_SPLINE_CURVE ( ( 1.000000000000000000, 0.3333333333333333703, 0.3333333333333333703, 1.000000000000000000 ) ) 
 REPRESENTATION_ITEM ( '' )  );
#522 = CARTESIAN_POINT ( 'NONE',  ( 19.53208888623795758, -3.566712524879887436, -10.55763475084066982 ) ) ;
#523 = CARTESIAN_POINT ( 'NONE',  ( -0.000000000000000000, -5.000000000000004441, -17.00000000000000000 ) ) ;
#524 = EDGE_LOOP ( 'NONE', ( #377, #158, #512, #575 ) ) ;
#525 = CARTESIAN_POINT ( 'NONE',  ( 10.35035424146125749, -5.000000000000004441, -21.50000000000000000 ) ) ;
#526 = DIRECTION ( 'NONE',  ( 0.000000000000000000, 0.000000000000000000, 1.000000000000000000 ) ) ;
#527 = EDGE_CURVE ( 'NONE', #536, #413, #1079, .T. ) ;
#528 = CARTESIAN_POINT ( 'NONE',  ( 20.00000000000000000, -5.000000000000004441, -18.70000000000000284 ) ) ;
#529 = LINE ( 'NONE', #989, #833 ) ;
#530 = VECTOR ( 'NONE', #388, 1000.000000000000000 ) ;
#531 = DIRECTION ( 'NONE',  ( -1.000000000000000000, -0.000000000000000000, -0.000000000000000000 ) ) ;
#532 = DIRECTION ( 'NONE',  ( -0.000000000000000000, -1.000000000000000000, -0.000000000000000000 ) ) ;
#533 = VERTEX_POINT ( 'NONE', #962 ) ;
#534 = EDGE_CURVE ( 'NONE', #122, #376, #943, .T. ) ;
#535 = CARTESIAN_POINT ( 'NONE',  ( 0.000000000000000000, -5.000000000000004441, -18.70000000000000284 ) ) ;
#536 = VERTEX_POINT ( 'NONE', #211 ) ;
#537 =( LENGTH_UNIT ( ) NAMED_UNIT ( * ) SI_UNIT ( .MILLI., .METRE. ) );
#538 = CARTESIAN_POINT ( 'NONE',  ( 0.000000000000000000, -3.500000000000003997, -23.00000000000000000 ) ) ;
#539 = CARTESIAN_POINT ( 'NONE',  ( 20.00000000000000000, 48.65743636076459921, 0.000000000000000000 ) ) ;
#540 = VECTOR ( 'NONE', #42, 1000.000000000000000 ) ;
#541 = ADVANCED_BREP_SHAPE_REPRESENTATION ( '21631_03_087_gripper finger_2 2K', ( #290, #934 ), #361 ) ;
#542 = EDGE_CURVE ( 'NONE', #413, #362, #209, .T. ) ;
#543 = CIRCLE ( 'NONE', #624, 5.000000000000000000 ) ;
#544 = SURFACE_SIDE_STYLE ('',( #60 ) ) ;
#545 = AXIS2_PLACEMENT_3D ( 'NONE', #139, #218, #820 ) ;
#546 = CARTESIAN_POINT ( 'NONE',  ( 10.35035424146125749, -5.000000000000004441, -21.50000000000000000 ) ) ;
#547 = CARTESIAN_POINT ( 'NONE',  ( 0.000000000000000000, 4.999999999999997335, -4.000000000000000000 ) ) ;
#548 = ORIENTED_EDGE ( 'NONE', *, *, #180, .F. ) ;
#549 = EDGE_LOOP ( 'NONE', ( #1006, #366, #579, #266 ) ) ;
#550 = CARTESIAN_POINT ( 'NONE',  ( -0.000000000000000000, -5.000000000000004441, -11.00000000000000178 ) ) ;
#551 = FILL_AREA_STYLE_COLOUR ( '', #389 ) ;
#552 = EDGE_LOOP ( 'NONE', ( #893, #458, #703, #582 ) ) ;
#553 = DIRECTION ( 'NONE',  ( 0.000000000000000000, 0.000000000000000000, 1.000000000000000000 ) ) ;
#554 = VECTOR ( 'NONE', #655, 1000.000000000000000 ) ;
#555 = DIRECTION ( 'NONE',  ( -1.000000000000000000, 0.000000000000000000, -0.000000000000000000 ) ) ;
#556 = DIRECTION ( 'NONE',  ( 0.000000000000000000, 0.000000000000000000, 1.000000000000000000 ) ) ;
#557 = CARTESIAN_POINT ( 'NONE',  ( 20.00000000000000000, -5.000000000000004441, -17.00000000000000000 ) ) ;
#558 = ORIENTED_EDGE ( 'NONE', *, *, #220, .F. ) ;
#559 = ORIENTED_EDGE ( 'NONE', *, *, #333, .F. ) ;
#560 = EDGE_CURVE ( 'NONE', #827, #769, #358, .T. ) ;
#561 = DIRECTION ( 'NONE',  ( 0.000000000000000000, 0.000000000000000000, 1.000000000000000000 ) ) ;
#562 = ADVANCED_FACE ( 'NONE', ( #20 ), #763, .F. ) ;
#563 = CARTESIAN_POINT ( 'NONE',  ( 10.00000000000000000, -5.000000000000004441, -17.00000000000000000 ) ) ;
#564 = ORIENTED_EDGE ( 'NONE', *, *, #285, .F. ) ;
#565 = AXIS2_PLACEMENT_3D ( 'NONE', #145, #670, #815 ) ;
#566 = APPLICATION_CONTEXT ( 'automotive_design' ) ;
#567 = VERTEX_POINT ( 'NONE', #492 ) ;
#568 = CARTESIAN_POINT ( 'NONE',  ( 18.00000000000000355, 60.00000000000000000, 0.000000000000000000 ) ) ;
#569 = LINE ( 'NONE', #153, #738 ) ;
#570 = FILL_AREA_STYLE_COLOUR ( '', #726 ) ;
#571 = LINE ( 'NONE', #779, #436 ) ;
#572 = DIRECTION ( 'NONE',  ( 0.1710878697460356257, 0.9702875252478138091, -0.1710878697460356257 ) ) ;
#573 = DIRECTION ( 'NONE',  ( 0.000000000000000000, 0.000000000000000000, -1.000000000000000000 ) ) ;
#574 = EDGE_CURVE ( 'NONE', #632, #760, #238, .T. ) ;
#575 = ORIENTED_EDGE ( 'NONE', *, *, #485, .T. ) ;
#576 = ORIENTED_EDGE ( 'NONE', *, *, #527, .T. ) ;
#577 = DIRECTION ( 'NONE',  ( -1.000000000000000000, 0.000000000000000000, 0.000000000000000000 ) ) ;
#578 = CARTESIAN_POINT ( 'NONE',  ( 0.000000000000000000, 60.00000000000000000, -4.000000000000000000 ) ) ;
#579 = ORIENTED_EDGE ( 'NONE', *, *, #685, .F. ) ;
#580 = EDGE_CURVE ( 'NONE', #453, #827, #40, .T. ) ;
#581 = CARTESIAN_POINT ( 'NONE',  ( 20.00000000000000000, -5.000000000000003553, -4.999999999999999112 ) ) ;
#582 = ORIENTED_EDGE ( 'NONE', *, *, #614, .F. ) ;
#583 = ADVANCED_FACE ( 'NONE', ( #942, #371 ), #234, .T. ) ;
#584 = LINE ( 'NONE', #798, #540 ) ;
#585 = VECTOR ( 'NONE', #926, 1000.000000000000000 ) ;
#586 = FACE_OUTER_BOUND ( 'NONE', #213, .T. ) ;
#587 = EDGE_CURVE ( 'NONE', #410, #491, #886, .T. ) ;
#588 = CARTESIAN_POINT ( 'NONE',  ( 28.48528137423857487, -5.000000000000003553, -4.999999999999999112 ) ) ;
#589 = EDGE_LOOP ( 'NONE', ( #558, #1030, #474, #615, #127, #759 ) ) ;
#590 = DIRECTION ( 'NONE',  ( 0.1736481776669304977, 0.9848077530122080203, -0.000000000000000000 ) ) ;
#591 = EDGE_LOOP ( 'NONE', ( #97, #681, #277, #381, #662 ) ) ;
#592 = ORIENTED_EDGE ( 'NONE', *, *, #983, .T. ) ;
#593 = ORIENTED_EDGE ( 'NONE', *, *, #445, .F. ) ;
#594 = EDGE_CURVE ( 'NONE', #992, #680, #699, .T. ) ;
#595 = CARTESIAN_POINT ( 'NONE',  ( 20.00000000000000000, -10.00000000000000000, 0.000000000000000000 ) ) ;
#596 = LINE ( 'NONE', #66, #834 ) ;
#597 = DIRECTION ( 'NONE',  ( -0.000000000000000000, -0.000000000000000000, -1.000000000000000000 ) ) ;
#598 = EDGE_CURVE ( 'NONE', #76, #84, #91, .T. ) ;
#599 = ORIENTED_EDGE ( 'NONE', *, *, #484, .F. ) ;
#600 = AXIS2_PLACEMENT_3D ( 'NONE', #550, #965, #553 ) ;
#601 = CARTESIAN_POINT ( 'NONE',  ( 1.999999999999998224, 60.00000000000000000, 0.000000000000000000 ) ) ;
#602 = ORIENTED_EDGE ( 'NONE', *, *, #459, .T. ) ;
#603 = ORIENTED_EDGE ( 'NONE', *, *, #408, .T. ) ;
#604 = CARTESIAN_POINT ( 'NONE',  ( 19.89466838069571608, -3.944935140297315623, -9.921178980674389081 ) ) ;
#605 = DIRECTION ( 'NONE',  ( 0.000000000000000000, 0.000000000000000000, 1.000000000000000000 ) ) ;
#606 = CIRCLE ( 'NONE', #336, 2.000000000000000000 ) ;
#607 = CARTESIAN_POINT ( 'NONE',  ( 3.067384683690003389, -10.00000000000000000, -27.06805748150731361 ) ) ;
#608 = DIRECTION ( 'NONE',  ( -0.000000000000000000, -0.000000000000000000, -1.000000000000000000 ) ) ;
#609 = VECTOR ( 'NONE', #77, 1000.000000000000000 ) ;
#610 = VECTOR ( 'NONE', #455, 1000.000000000000000 ) ;
#611 = CARTESIAN_POINT ( 'NONE',  ( 20.00000000000000000, 60.00000000000000000, 0.000000000000000000 ) ) ;
#612 = DIRECTION ( 'NONE',  ( 1.000000000000000000, 0.000000000000000000, 0.000000000000000000 ) ) ;
#613 = EDGE_CURVE ( 'NONE', #84, #1059, #1021, .T. ) ;
#614 = EDGE_CURVE ( 'NONE', #767, #138, #318, .T. ) ;
#615 = ORIENTED_EDGE ( 'NONE', *, *, #754, .T. ) ;
#616 = VERTEX_POINT ( 'NONE', #546 ) ;
#617 = PLANE ( 'NONE',  #687 ) ;
#618 = EDGE_LOOP ( 'NONE', ( #191, #94, #320, #2 ) ) ;
#619 = ORIENTED_EDGE ( 'NONE', *, *, #175, .F. ) ;
#620 = CARTESIAN_POINT ( 'NONE',  ( 20.00000000000000000, 4.999999999999997335, -4.000000000000000000 ) ) ;
#621 = CARTESIAN_POINT ( 'NONE',  ( 10.00000000000000000, -5.000000000000004441, -17.00000000000000000 ) ) ;
#622 = EDGE_CURVE ( 'NONE', #230, #439, #674, .T. ) ;
#623 = CARTESIAN_POINT ( 'NONE',  ( 20.00000000000000000, -10.00000000000000000, 0.000000000000000000 ) ) ;
#624 = AXIS2_PLACEMENT_3D ( 'NONE', #345, #939, #710 ) ;
#625 = VECTOR ( 'NONE', #460, 1000.000000000000000 ) ;
#626 = PLANE ( 'NONE',  #1023 ) ;
#627 = DIRECTION ( 'NONE',  ( 0.000000000000000000, 0.000000000000000000, 1.000000000000000000 ) ) ;
#628 = FILL_AREA_STYLE ('',( #551 ) ) ;
#629 = PRESENTATION_STYLE_ASSIGNMENT (( #124 ) ) ;
#630 = DIRECTION ( 'NONE',  ( -1.000000000000000000, -0.000000000000000000, -0.000000000000000000 ) ) ;
#631 = DIRECTION ( 'NONE',  ( 0.000000000000000000, 0.000000000000000000, 1.000000000000000000 ) ) ;
#632 = VERTEX_POINT ( 'NONE', #27 ) ;
#633 = DIRECTION ( 'NONE',  ( -1.000000000000000000, 0.000000000000000000, 0.000000000000000000 ) ) ;
#634 = ORIENTED_EDGE ( 'NONE', *, *, #853, .T. ) ;
#635 = PLANE ( 'NONE',  #795 ) ;
#636 = ORIENTED_EDGE ( 'NONE', *, *, #594, .T. ) ;
#637 = DIRECTION ( 'NONE',  ( -0.000000000000000000, -1.000000000000000000, -0.000000000000000000 ) ) ;
#638 = VECTOR ( 'NONE', #1048, 1000.000000000000000 ) ;
#639 = CYLINDRICAL_SURFACE ( 'NONE', #276, 2.000000000000000000 ) ;
#640 = DIRECTION ( 'NONE',  ( -0.000000000000000000, -1.000000000000000000, -0.000000000000000000 ) ) ;
#641 = PLANE ( 'NONE',  #774 ) ;
#642 = FACE_OUTER_BOUND ( 'NONE', #618, .T. ) ;
#643 = AXIS2_PLACEMENT_3D ( 'NONE', #1009, #700, #1077 ) ;
#644 = LINE ( 'NONE', #730, #960 ) ;
#645 = CARTESIAN_POINT ( 'NONE',  ( 16.64360147529087186, -5.000000000000004441, -14.00000000000000178 ) ) ;
#646 = CARTESIAN_POINT ( 'NONE',  ( 19.96723012694933885, -5.647379364862874063, -9.636777412017616840 ) ) ;
#647 = ORIENTED_EDGE ( 'NONE', *, *, #874, .F. ) ;
#648 = CARTESIAN_POINT ( 'NONE',  ( 18.64731634732598664, -3.241276368764185012, -11.61206560271770805 ) ) ;
#649 = ORIENTED_EDGE ( 'NONE', *, *, #343, .F. ) ;
#650 = ORIENTED_EDGE ( 'NONE', *, *, #198, .T. ) ;
#651 = ORIENTED_EDGE ( 'NONE', *, *, #967, .F. ) ;
#652 = ORIENTED_EDGE ( 'NONE', *, *, #408, .F. ) ;
#653 = VERTEX_POINT ( 'NONE', #135 ) ;
#654 = AXIS2_PLACEMENT_3D ( 'NONE', #112, #1024, #30 ) ;
#655 = DIRECTION ( 'NONE',  ( -1.000000000000000000, -0.000000000000000000, -0.000000000000000000 ) ) ;
#656 = ADVANCED_FACE ( 'NONE', ( #72 ), #641, .F. ) ;
#657 = APPLICATION_PROTOCOL_DEFINITION ( 'draft international standard', 'automotive_design', 1998, #566 ) ;
#658 = VECTOR ( 'NONE', #391, 1000.000000000000114 ) ;
#659 = CYLINDRICAL_SURFACE ( 'NONE', #1049, 3.000000000000001332 ) ;
#660 = EDGE_CURVE ( 'NONE', #317, #680, #47, .T. ) ;
#661 = CARTESIAN_POINT ( 'NONE',  ( 19.89504527815956081, -6.053654765356157874, -9.919957550433517568 ) ) ;
#662 = ORIENTED_EDGE ( 'NONE', *, *, #660, .T. ) ;
#663 = EDGE_LOOP ( 'NONE', ( #593, #1, #634, #299 ) ) ;
#664 = EDGE_CURVE ( 'NONE', #376, #138, #751, .T. ) ;
#665 =( NAMED_UNIT ( * ) PLANE_ANGLE_UNIT ( ) SI_UNIT ( $, .RADIAN. ) );
#666 = AXIS2_PLACEMENT_3D ( 'NONE', #98, #442, #870 ) ;
#667 = CARTESIAN_POINT ( 'NONE',  ( 20.00000000000000000, -5.000000000000004441, -17.00000000000000000 ) ) ;
#668 = ORIENTED_EDGE ( 'NONE', *, *, #334, .F. ) ;
#669 = STYLED_ITEM ( 'NONE', ( #1018 ), #541 ) ;
#670 = DIRECTION ( 'NONE',  ( 0.000000000000000000, 1.000000000000000000, 0.000000000000000000 ) ) ;
#671 = CARTESIAN_POINT ( 'NONE',  ( 20.00000000000000000, -5.000000000000004441, -17.00000000000000000 ) ) ;
#672 = FACE_BOUND ( 'NONE', #321, .T. ) ;
#673 = CARTESIAN_POINT ( 'NONE',  ( 20.00000000000000000, -5.000000000000003553, -4.999999999999999112 ) ) ;
#674 = CIRCLE ( 'NONE', #545, 3.000000000000000888 ) ;
#675 = FACE_OUTER_BOUND ( 'NONE', #1027, .T. ) ;
#676 = FACE_OUTER_BOUND ( 'NONE', #216, .T. ) ;
#677 = DIRECTION ( 'NONE',  ( -1.000000000000000000, 0.000000000000000000, 0.000000000000000000 ) ) ;
#678 = ADVANCED_FACE ( 'NONE', ( #796 ), #807, .F. ) ;
#679 = CARTESIAN_POINT ( 'NONE',  ( 20.00000000000000000, 60.00000000000000000, -9.272059531467590432 ) ) ;
#680 = VERTEX_POINT ( 'NONE', #483 ) ;
#681 = ORIENTED_EDGE ( 'NONE', *, *, #1081, .F. ) ;
#682 = EDGE_CURVE ( 'NONE', #653, #439, #569, .T. ) ;
#683 = ORIENTED_EDGE ( 'NONE', *, *, #1038, .F. ) ;
#684 = CYLINDRICAL_SURFACE ( 'NONE', #780, 1.499999999999999556 ) ;
#685 = EDGE_CURVE ( 'NONE', #827, #4, #529, .T. ) ;
#686 = CIRCLE ( 'NONE', #407, 1.700000000000000178 ) ;
#687 = AXIS2_PLACEMENT_3D ( 'NONE', #29, #787, #869 ) ;
#688 = CARTESIAN_POINT ( 'NONE',  ( 19.98696832959290504, -4.833961398723968017, -9.499999999999998224 ) ) ;
#689 = AXIS2_PLACEMENT_3D ( 'NONE', #563, #1057, #302 ) ;
#690 = EDGE_LOOP ( 'NONE', ( #718, #636, #924, #34, #852 ) ) ;
#691 = CARTESIAN_POINT ( 'NONE',  ( 0.000000000000000000, 0.000000000000000000, 0.000000000000000000 ) ) ;
#692 = VERTEX_POINT ( 'NONE', #239 ) ;
#693 = DIRECTION ( 'NONE',  ( 0.000000000000000000, 0.000000000000000000, -1.000000000000000000 ) ) ;
#694 = DIRECTION ( 'NONE',  ( 0.000000000000000000, -0.000000000000000000, 1.000000000000000000 ) ) ;
#695 = ORIENTED_EDGE ( 'NONE', *, *, #560, .T. ) ;
#696 = CARTESIAN_POINT ( 'NONE',  ( 18.00000000000000355, 60.00000000000000000, -4.000000000000000000 ) ) ;
#697 = EDGE_CURVE ( 'NONE', #228, #317, #131, .T. ) ;
#698 = VECTOR ( 'NONE', #637, 1000.000000000000000 ) ;
#699 = LINE ( 'NONE', #995, #554 ) ;
#700 = DIRECTION ( 'NONE',  ( -0.000000000000000000, -1.000000000000000000, -0.000000000000000000 ) ) ;
#701 = CARTESIAN_POINT ( 'NONE',  ( 20.00000000000000000, 48.65743636076459921, 0.000000000000000000 ) ) ;
#702 = AXIS2_PLACEMENT_3D ( 'NONE', #889, #729, #556 ) ;
#703 = ORIENTED_EDGE ( 'NONE', *, *, #664, .T. ) ;
#704 = CARTESIAN_POINT ( 'NONE',  ( 1.999999999999998224, 60.00000000000000000, -1.999999999999998224 ) ) ;
#705 = VERTEX_POINT ( 'NONE', #823 ) ;
#706 = DIRECTION ( 'NONE',  ( 0.000000000000000000, 0.000000000000000000, -1.000000000000000000 ) ) ;
#707 = EDGE_CURVE ( 'NONE', #760, #632, #933, .T. ) ;
#708 = CARTESIAN_POINT ( 'NONE',  ( 17.00000000000000000, -5.000000000000003553, -1.999999999999997780 ) ) ;
#709 = ORIENTED_EDGE ( 'NONE', *, *, #1020, .F. ) ;
#710 = DIRECTION ( 'NONE',  ( 0.000000000000000000, 0.000000000000000000, 1.000000000000000000 ) ) ;
#711 = LINE ( 'NONE', #160, #1010 ) ;
#712 = CIRCLE ( 'NONE', #457, 2.999999999999999112 ) ;
#713 = DIRECTION ( 'NONE',  ( -1.000000000000000000, -0.000000000000000000, -0.000000000000000000 ) ) ;
#714 = CYLINDRICAL_SURFACE ( 'NONE', #727, 5.000000000000000000 ) ;
#715 = CARTESIAN_POINT ( 'NONE',  ( 18.00000000000000355, 60.00000000000000000, 0.000000000000000000 ) ) ;
#716 = CARTESIAN_POINT ( 'NONE',  ( 19.53208888623795758, -10.00000000000000000, -10.55763475084066982 ) ) ;
#717 = EDGE_LOOP ( 'NONE', ( #176, #188 ) ) ;
#718 = ORIENTED_EDGE ( 'NONE', *, *, #424, .F. ) ;
#719 = EDGE_CURVE ( 'NONE', #838, #536, #479, .T. ) ;
#720 = CARTESIAN_POINT ( 'NONE',  ( 20.00000000000000000, 0.000000000000000000, -9.000000000000001776 ) ) ;
#721 =( NAMED_UNIT ( * ) SI_UNIT ( $, .STERADIAN. ) SOLID_ANGLE_UNIT ( ) );
#722 = EDGE_LOOP ( 'NONE', ( #222, #253, #830, #204 ) ) ;
#723 = DIRECTION ( 'NONE',  ( 0.000000000000000000, 0.000000000000000000, -1.000000000000000000 ) ) ;
#724 = VERTEX_POINT ( 'NONE', #383 ) ;
#725 = CARTESIAN_POINT ( 'NONE',  ( 20.00000000000000000, -5.000000000000004441, -11.00000000000000178 ) ) ;
#726 = COLOUR_RGB ( '',0.5019607843137254832, 0.5019607843137254832, 0.5019607843137254832 ) ;
#727 = AXIS2_PLACEMENT_3D ( 'NONE', #249, #1005, #419 ) ;
#728 = VECTOR ( 'NONE', #87, 1000.000000000000114 ) ;
#729 = DIRECTION ( 'NONE',  ( -1.000000000000000000, -0.000000000000000000, -0.000000000000000000 ) ) ;
#730 = CARTESIAN_POINT ( 'NONE',  ( 20.00000000000000000, -6.500000000000005329, -23.00000000000000000 ) ) ;
#731 = VECTOR ( 'NONE', #859, 1000.000000000000000 ) ;
#732 = CARTESIAN_POINT ( 'NONE',  ( 11.60900368822718143, -11.00000000000000355, -20.00000000000000000 ) ) ;
#733 = CARTESIAN_POINT ( 'NONE',  ( 19.98696832959290504, -5.166095164496742775, -9.500000000000001776 ) ) ;
#734 = ORIENTED_EDGE ( 'NONE', *, *, #875, .F. ) ;
#735 = VERTEX_POINT ( 'NONE', #517 ) ;
#736 = DIRECTION ( 'NONE',  ( -1.000000000000000000, -0.000000000000000000, -0.000000000000000000 ) ) ;
#737 = ORIENTED_EDGE ( 'NONE', *, *, #542, .F. ) ;
#738 = VECTOR ( 'NONE', #577, 1000.000000000000000 ) ;
#739 = LINE ( 'NONE', #372, #610 ) ;
#740 =( NAMED_UNIT ( * ) PLANE_ANGLE_UNIT ( ) SI_UNIT ( $, .RADIAN. ) );
#741 = CARTESIAN_POINT ( 'NONE',  ( 19.85117575492644804, -6.164715618969963451, -10.04246155145544250 ) ) ;
#742 = ORIENTED_EDGE ( 'NONE', *, *, #1008, .T. ) ;
#743 = EDGE_CURVE ( 'NONE', #1028, #994, #911, .T. ) ;
#744 = SURFACE_SIDE_STYLE ('',( #772 ) ) ;
#745 = VERTEX_POINT ( 'NONE', #157 ) ;
#746 = ADVANCED_FACE ( 'NONE', ( #516 ), #433, .F. ) ;
#747 = ORIENTED_EDGE ( 'NONE', *, *, #770, .T. ) ;
#748 = DIRECTION ( 'NONE',  ( 0.000000000000000000, 0.000000000000000000, 1.000000000000000000 ) ) ;
#749 = DIRECTION ( 'NONE',  ( 0.000000000000000000, 0.000000000000000000, -1.000000000000000000 ) ) ;
#750 =( BOUNDED_CURVE ( )  B_SPLINE_CURVE ( 3, ( #221, #648, #894, #974 ),
 .UNSPECIFIED., .F., .F. ) 
 B_SPLINE_CURVE_WITH_KNOTS ( ( 4, 4 ),
 ( 4.413027478301112083, 6.283185307179586232 ),
 .UNSPECIFIED. ) 
 CURVE ( )  GEOMETRIC_REPRESENTATION_ITEM ( )  RATIONAL_B_SPLINE_CURVE ( ( 1.000000000000000000, 0.7291699533600475291, 0.7291699533600475291, 1.000000000000000000 ) ) 
 REPRESENTATION_ITEM ( '' )  );
#751 = LINE ( 'NONE', #493, #856 ) ;
#752 = ADVANCED_FACE ( 'NONE', ( #102 ), #639, .T. ) ;
#753 = FACE_OUTER_BOUND ( 'NONE', #836, .T. ) ;
#754 = EDGE_CURVE ( 'NONE', #776, #567, #162, .T. ) ;
#755 = DIRECTION ( 'NONE',  ( -1.000000000000000000, 0.000000000000000000, 0.000000000000000000 ) ) ;
#756 = ORIENTED_EDGE ( 'NONE', *, *, #622, .T. ) ;
#757 = CARTESIAN_POINT ( 'NONE',  ( 19.53208888623795758, -10.00000000000000000, -10.55763475084066982 ) ) ;
#758 = EDGE_LOOP ( 'NONE', ( #393, #1046, #603, #860 ) ) ;
#759 = ORIENTED_EDGE ( 'NONE', *, *, #399, .T. ) ;
#760 = VERTEX_POINT ( 'NONE', #421 ) ;
#761 = ADVANCED_FACE ( 'NONE', ( #971 ), #258, .F. ) ;
#762 = DIRECTION ( 'NONE',  ( 0.000000000000000000, 1.000000000000000000, 0.000000000000000000 ) ) ;
#763 = CYLINDRICAL_SURFACE ( 'NONE', #857, 1.500000000000001332 ) ;
#764 = SHAPE_DEFINITION_REPRESENTATION ( #851, #541 ) ;
#765 = EDGE_CURVE ( 'NONE', #745, #453, #292, .T. ) ;
#766 = CARTESIAN_POINT ( 'NONE',  ( 17.00000000000000000, -5.000000000000003553, -4.999999999999999112 ) ) ;
#767 = VERTEX_POINT ( 'NONE', #330 ) ;
#768 = ORIENTED_EDGE ( 'NONE', *, *, #932, .F. ) ;
#769 = VERTEX_POINT ( 'NONE', #174 ) ;
#770 = EDGE_CURVE ( 'NONE', #376, #1062, #497, .T. ) ;
#771 = ORIENTED_EDGE ( 'NONE', *, *, #456, .F. ) ;
#772 = SURFACE_STYLE_FILL_AREA ( #144 ) ;
#773 = CIRCLE ( 'NONE', #322, 1.500000000000001332 ) ;
#774 = AXIS2_PLACEMENT_3D ( 'NONE', #578, #73, #831 ) ;
#775 = DIRECTION ( 'NONE',  ( 0.000000000000000000, 0.000000000000000000, 1.000000000000000000 ) ) ;
#776 = VERTEX_POINT ( 'NONE', #696 ) ;
#777 = ORIENTED_EDGE ( 'NONE', *, *, #252, .F. ) ;
#778 = PLANE ( 'NONE',  #953 ) ;
#779 = CARTESIAN_POINT ( 'NONE',  ( 0.000000000000000000, 60.00000000000000000, -4.000000000000000000 ) ) ;
#780 = AXIS2_PLACEMENT_3D ( 'NONE', #972, #494, #896 ) ;
#781 = ORIENTED_EDGE ( 'NONE', *, *, #534, .T. ) ;
#782 = DIRECTION ( 'NONE',  ( 0.000000000000000000, 0.000000000000000000, 1.000000000000000000 ) ) ;
#783 = DIRECTION ( 'NONE',  ( -1.000000000000000000, 0.000000000000000000, 0.000000000000000000 ) ) ;
#784 = FACE_OUTER_BOUND ( 'NONE', #897, .T. ) ;
#785 = CARTESIAN_POINT ( 'NONE',  ( 9.091704794695335323, -6.500000000000005329, -23.00000000000000000 ) ) ;
#786 = PLANE ( 'NONE',  #146 ) ;
#787 = DIRECTION ( 'NONE',  ( 0.000000000000000000, 1.000000000000000000, 0.000000000000000000 ) ) ;
#788 = ORIENTED_EDGE ( 'NONE', *, *, #220, .T. ) ;
#789 = CARTESIAN_POINT ( 'NONE',  ( 20.00000000000000000, -5.000000000000004441, -14.00000000000000178 ) ) ;
#790 = ORIENTED_EDGE ( 'NONE', *, *, #3, .F. ) ;
#791 = DIRECTION ( 'NONE',  ( 0.6427876096865403621, -0.000000000000000000, 0.7660444431189772363 ) ) ;
#792 = EDGE_CURVE ( 'NONE', #453, #533, #81, .T. ) ;
#793 = ORIENTED_EDGE ( 'NONE', *, *, #928, .F. ) ;
#794 = DIRECTION ( 'NONE',  ( 1.000000000000000000, -0.000000000000000000, -0.000000000000000000 ) ) ;
#795 = AXIS2_PLACEMENT_3D ( 'NONE', #365, #134, #958 ) ;
#796 = FACE_OUTER_BOUND ( 'NONE', #524, .T. ) ;
#797 = DIRECTION ( 'NONE',  ( -1.000000000000000000, -0.000000000000000000, -0.000000000000000000 ) ) ;
#798 = CARTESIAN_POINT ( 'NONE',  ( 20.00000000000000000, -5.000000000000004441, -21.50000000000000000 ) ) ;
#799 =( NAMED_UNIT ( * ) PLANE_ANGLE_UNIT ( ) SI_UNIT ( $, .RADIAN. ) );
#800 = ORIENTED_EDGE ( 'NONE', *, *, #664, .F. ) ;
#801 = ORIENTED_EDGE ( 'NONE', *, *, #359, .T. ) ;
#802 = EDGE_CURVE ( 'NONE', #946, #533, #505, .T. ) ;
#803 = DIRECTION ( 'NONE',  ( -1.000000000000000000, -0.000000000000000000, -0.000000000000000000 ) ) ;
#804 = ORIENTED_EDGE ( 'NONE', *, *, #574, .F. ) ;
#805 = CIRCLE ( 'NONE', #11, 1.500000000000001332 ) ;
#806 = CARTESIAN_POINT ( 'NONE',  ( 19.98427449081718166, -5.334106389644545310, -9.528317701800309791 ) ) ;
#807 = CYLINDRICAL_SURFACE ( 'NONE', #41, 2.999999999999999112 ) ;
#808 = LINE ( 'NONE', #881, #8 ) ;
#809 = DIRECTION ( 'NONE',  ( -1.000000000000000000, 0.000000000000000000, 0.000000000000000000 ) ) ;
#810 = UNCERTAINTY_MEASURE_WITH_UNIT (LENGTH_MEASURE( 1.000000000000000082E-05 ), #537, 'distance_accuracy_value', 'NONE');
#811 = DIRECTION ( 'NONE',  ( 0.000000000000000000, -0.000000000000000000, -1.000000000000000000 ) ) ;
#812 = ORIENTED_EDGE ( 'NONE', *, *, #682, .T. ) ;
#813 = ORIENTED_EDGE ( 'NONE', *, *, #719, .T. ) ;
#814 = ADVANCED_FACE ( 'NONE', ( #405 ), #778, .F. ) ;
#815 = DIRECTION ( 'NONE',  ( 0.000000000000000000, 0.000000000000000000, 1.000000000000000000 ) ) ;
#816 = ORIENTED_EDGE ( 'NONE', *, *, #281, .T. ) ;
#817 = ORIENTED_EDGE ( 'NONE', *, *, #297, .F. ) ;
#818 = ORIENTED_EDGE ( 'NONE', *, *, #765, .T. ) ;
#819 = CARTESIAN_POINT ( 'NONE',  ( 20.00000000000000000, -5.000000000000004441, -9.500000000000001776 ) ) ;
#820 = DIRECTION ( 'NONE',  ( 0.000000000000000000, 0.000000000000000000, -1.000000000000000000 ) ) ;
#821 = LINE ( 'NONE', #959, #625 ) ;
#822 = EDGE_CURVE ( 'NONE', #86, #653, #118, .T. ) ;
#823 = CARTESIAN_POINT ( 'NONE',  ( 10.00000000000000000, -5.000000000000004441, -20.00000000000000000 ) ) ;
#824 = CARTESIAN_POINT ( 'NONE',  ( 0.000000000000000000, 48.65743636076459921, 0.000000000000000000 ) ) ;
#825 = ADVANCED_FACE ( 'NONE', ( #784 ), #326, .T. ) ;
#826 = ORIENTED_EDGE ( 'NONE', *, *, #490, .F. ) ;
#827 = VERTEX_POINT ( 'NONE', #917 ) ;
#828 = CARTESIAN_POINT ( 'NONE',  ( 17.00000000000000000, -5.000000000000003553, -8.000000000000000000 ) ) ;
#829 = MECHANICAL_DESIGN_GEOMETRIC_PRESENTATION_REPRESENTATION (  '', ( #669 ), #385 ) ;
#830 = ORIENTED_EDGE ( 'NONE', *, *, #352, .F. ) ;
#831 = DIRECTION ( 'NONE',  ( 1.000000000000000000, 0.000000000000000000, -0.000000000000000000 ) ) ;
#832 = FACE_OUTER_BOUND ( 'NONE', #1041, .T. ) ;
#833 = VECTOR ( 'NONE', #396, 1000.000000000000000 ) ;
#834 = VECTOR ( 'NONE', #71, 1000.000000000000000 ) ;
#835 = VECTOR ( 'NONE', #590, 1000.000000000000114 ) ;
#836 = EDGE_LOOP ( 'NONE', ( #233, #110, #1061, #650, #1003, #977, #170 ) ) ;
#837 = VERTEX_POINT ( 'NONE', #757 ) ;
#838 = VERTEX_POINT ( 'NONE', #254 ) ;
#839 = CARTESIAN_POINT ( 'NONE',  ( 8.923884868459879272, -6.500000000000005329, -23.19999999999999929 ) ) ;
#840 = CARTESIAN_POINT ( 'NONE',  ( 19.95243316565817437, -4.203597161993659626, -9.718298330525527717 ) ) ;
#841 = EDGE_CURVE ( 'NONE', #745, #946, #711, .T. ) ;
#842 = LINE ( 'NONE', #539, #898 ) ;
#843 = AXIS2_PLACEMENT_3D ( 'NONE', #671, #337, #431 ) ;
#844 = DIRECTION ( 'NONE',  ( 0.000000000000000000, 0.000000000000000000, -1.000000000000000000 ) ) ;
#845 = LINE ( 'NONE', #623, #731 ) ;
#846 = ORIENTED_EDGE ( 'NONE', *, *, #1044, .T. ) ;
#847 = DIRECTION ( 'NONE',  ( 0.000000000000000000, 1.000000000000000000, 0.000000000000000000 ) ) ;
#848 = CARTESIAN_POINT ( 'NONE',  ( 10.00000000000000000, -5.000000000000004441, -18.70000000000000284 ) ) ;
#849 = ORIENTED_EDGE ( 'NONE', *, *, #951, .T. ) ;
#850 = ORIENTED_EDGE ( 'NONE', *, *, #359, .F. ) ;
#851 = PRODUCT_DEFINITION_SHAPE ( 'NONE', 'NONE',  #427 ) ;
#852 = ORIENTED_EDGE ( 'NONE', *, *, #333, .T. ) ;
#853 = EDGE_CURVE ( 'NONE', #331, #946, #773, .T. ) ;
#854 = PLANE ( 'NONE',  #885 ) ;
#855 = LINE ( 'NONE', #287, #402 ) ;
#856 = VECTOR ( 'NONE', #572, 1000.000000000000114 ) ;
#857 = AXIS2_PLACEMENT_3D ( 'NONE', #52, #915, #748 ) ;
#858 = CARTESIAN_POINT ( 'NONE',  ( 10.35035424146125749, -5.878679656440362500, -21.49999999999999645 ) ) ;
#859 = DIRECTION ( 'NONE',  ( -0.000000000000000000, -0.000000000000000000, 1.000000000000000000 ) ) ;
#860 = ORIENTED_EDGE ( 'NONE', *, *, #459, .F. ) ;
#861 = PRODUCT ( '21631_03_087_gripper finger_2 2K', '21631_03_087_gripper finger_2 2K', '', ( #487 ) ) ;
#862 = DIRECTION ( 'NONE',  ( -0.000000000000000000, -1.000000000000000000, -0.000000000000000000 ) ) ;
#863 = DIRECTION ( 'NONE',  ( -1.000000000000000000, -0.000000000000000000, -0.000000000000000000 ) ) ;
#864 = EDGE_CURVE ( 'NONE', #877, #936, #543, .T. ) ;
#865 = DIRECTION ( 'NONE',  ( 0.000000000000000000, 0.000000000000000000, 1.000000000000000000 ) ) ;
#866 = EDGE_LOOP ( 'NONE', ( #756, #602 ) ) ;
#867 = ORIENTED_EDGE ( 'NONE', *, *, #244, .F. ) ;
#868 = VERTEX_POINT ( 'NONE', #535 ) ;
#869 = DIRECTION ( 'NONE',  ( 0.000000000000000000, -0.000000000000000000, 1.000000000000000000 ) ) ;
#870 = DIRECTION ( 'NONE',  ( 0.000000000000000000, 0.000000000000000000, 1.000000000000000000 ) ) ;
#871 = PLANE ( 'NONE',  #468 ) ;
#872 = CARTESIAN_POINT ( 'NONE',  ( 10.00000000000000000, -5.000000000000004441, -17.00000000000000000 ) ) ;
#873 = CIRCLE ( 'NONE', #508, 1.700000000000000178 ) ;
#874 = EDGE_CURVE ( 'NONE', #536, #837, #957, .T. ) ;
#875 = EDGE_CURVE ( 'NONE', #616, #331, #584, .T. ) ;
#876 = CARTESIAN_POINT ( 'NONE',  ( -0.000000000000000000, -5.000000000000004441, -23.19999999999999929 ) ) ;
#877 = VERTEX_POINT ( 'NONE', #720 ) ;
#878 = CARTESIAN_POINT ( 'NONE',  ( 0.000000000000000000, -5.000000000000003553, -6.699999999999999289 ) ) ;
#879 = CLOSED_SHELL ( 'NONE', ( #225, #387, #305, #409, #163, #1069, #486, #918, #1078, #142, #656, #242, #80, #761, #996, #901, #562, #912, #978, #380, #316, #746, #678, #502, #825, #752, #74, #401, #69, #814, #583, #58 ) ) ;
#880 = ORIENTED_EDGE ( 'NONE', *, *, #574, .T. ) ;
#881 = CARTESIAN_POINT ( 'NONE',  ( 20.00000000000000000, 60.00000000000000000, 0.000000000000000000 ) ) ;
#882 = CARTESIAN_POINT ( 'NONE',  ( 0.000000000000000000, 60.00000000000000000, 0.000000000000000000 ) ) ;
#883 = DIRECTION ( 'NONE',  ( -1.000000000000000000, 0.000000000000000000, 0.000000000000000000 ) ) ;
#884 = FACE_BOUND ( 'NONE', #980, .T. ) ;
#885 = AXIS2_PLACEMENT_3D ( 'NONE', #332, #451, #280 ) ;
#886 = LINE ( 'NONE', #679, #1052 ) ;
#887 = LINE ( 'NONE', #212, #530 ) ;
#888 = CIRCLE ( 'NONE', #56, 2.000000000000000000 ) ;
#889 = CARTESIAN_POINT ( 'NONE',  ( 20.00000000000000000, -5.000000000000003553, -4.999999999999999112 ) ) ;
#890 = ORIENTED_EDGE ( 'NONE', *, *, #1044, .F. ) ;
#891 = CARTESIAN_POINT ( 'NONE',  ( 19.53208888623795758, 0.000000000000000000, -10.55763475084066982 ) ) ;
#892 = CARTESIAN_POINT ( 'NONE',  ( -0.000000000000000000, -6.500000000000005329, -23.00000000000000000 ) ) ;
#893 = ORIENTED_EDGE ( 'NONE', *, *, #68, .F. ) ;
#894 = CARTESIAN_POINT ( 'NONE',  ( 17.90225092205679402, -3.896490546892555251, -12.49999999999999822 ) ) ;
#895 = DIRECTION ( 'NONE',  ( 0.000000000000000000, 0.000000000000000000, 1.000000000000000000 ) ) ;
#896 = DIRECTION ( 'NONE',  ( 0.000000000000000000, 0.000000000000000000, 1.000000000000000000 ) ) ;
#897 = EDGE_LOOP ( 'NONE', ( #397, #850, #737, #426 ) ) ;
#898 = VECTOR ( 'NONE', #631, 1000.000000000000000 ) ;
#899 = DIRECTION ( 'NONE',  ( -0.000000000000000000, -1.000000000000000000, -0.000000000000000000 ) ) ;
#900 = FACE_OUTER_BOUND ( 'NONE', #141, .T. ) ;
#901 = ADVANCED_FACE ( 'NONE', ( #432 ), #617, .F. ) ;
#902 = EDGE_CURVE ( 'NONE', #969, #362, #89, .T. ) ;
#903 = AXIS2_PLACEMENT_3D ( 'NONE', #1019, #264, #865 ) ;
#904 = CARTESIAN_POINT ( 'NONE',  ( 0.000000000000000000, 4.999999999999997335, -4.000000000000000000 ) ) ;
#905 = ORIENTED_EDGE ( 'NONE', *, *, #932, .T. ) ;
#906 = AXIS2_PLACEMENT_3D ( 'NONE', #766, #296, #189 ) ;
#907 = ORIENTED_EDGE ( 'NONE', *, *, #232, .T. ) ;
#908 = DIRECTION ( 'NONE',  ( 1.000000000000000000, -0.000000000000000000, 0.000000000000000000 ) ) ;
#909 = ORIENTED_EDGE ( 'NONE', *, *, #273, .T. ) ;
#910 = DIRECTION ( 'NONE',  ( -1.000000000000000000, -0.000000000000000000, -0.000000000000000000 ) ) ;
#911 = LINE ( 'NONE', #513, #147 ) ;
#912 = ADVANCED_FACE ( 'NONE', ( #514 ), #871, .F. ) ;
#913 = LINE ( 'NONE', #363, #294 ) ;
#914 =( NAMED_UNIT ( * ) SI_UNIT ( $, .STERADIAN. ) SOLID_ANGLE_UNIT ( ) );
#915 = DIRECTION ( 'NONE',  ( -1.000000000000000000, -0.000000000000000000, -0.000000000000000000 ) ) ;
#916 = CYLINDRICAL_SURFACE ( 'NONE', #117, 3.000000000000001332 ) ;
#917 = CARTESIAN_POINT ( 'NONE',  ( 8.923884868459879272, -6.500000000000005329, -23.19999999999999929 ) ) ;
#918 = ADVANCED_FACE ( 'NONE', ( #956, #283, #207, #884, #832 ), #626, .F. ) ;
#919 = ORIENTED_EDGE ( 'NONE', *, *, #580, .T. ) ;
#920 = CARTESIAN_POINT ( 'NONE',  ( 6.406585974928032279, -6.500000000000005329, -26.20000000000000639 ) ) ;
#921 = CARTESIAN_POINT ( 'NONE',  ( 0.000000000000000000, -6.500000000000005329, -23.19999999999999929 ) ) ;
#922 = ORIENTED_EDGE ( 'NONE', *, *, #864, .T. ) ;
#923 = VECTOR ( 'NONE', #597, 1000.000000000000000 ) ;
#924 = ORIENTED_EDGE ( 'NONE', *, *, #1035, .T. ) ;
#925 = ORIENTED_EDGE ( 'NONE', *, *, #352, .T. ) ;
#926 = DIRECTION ( 'NONE',  ( -0.6427876096865402511, 0.000000000000000000, -0.7660444431189772363 ) ) ;
#927 = DIRECTION ( 'NONE',  ( -1.000000000000000000, 0.000000000000000000, 0.000000000000000000 ) ) ;
#928 = EDGE_CURVE ( 'NONE', #324, #776, #236, .T. ) ;
#929 =( BOUNDED_CURVE ( )  B_SPLINE_CURVE ( 3, ( #785, #114, #858, #525 ),
 .UNSPECIFIED., .F., .F. ) 
 B_SPLINE_CURVE_WITH_KNOTS ( ( 4, 4 ),
 ( 1.570796326794896558, 3.141592653589793116 ),
 .UNSPECIFIED. ) 
 CURVE ( )  GEOMETRIC_REPRESENTATION_ITEM ( )  RATIONAL_B_SPLINE_CURVE ( ( 1.000000000000000000, 0.8047378541243649375, 0.8047378541243649375, 1.000000000000000000 ) ) 
 REPRESENTATION_ITEM ( '' )  );
#930 = EDGE_LOOP ( 'NONE', ( #472, #416, #190, #423 ) ) ;
#931 = CARTESIAN_POINT ( 'NONE',  ( -0.000000000000000000, -3.500000000000003997, -23.19999999999999929 ) ) ;
#932 = EDGE_CURVE ( 'NONE', #769, #616, #929, .T. ) ;
#933 = CIRCLE ( 'NONE', #224, 1.700000000000000178 ) ;
#934 = AXIS2_PLACEMENT_3D ( 'NONE', #121, #561, #976 ) ;
#935 = DIRECTION ( 'NONE',  ( 1.000000000000000000, 0.000000000000000000, 0.000000000000000000 ) ) ;
#936 = VERTEX_POINT ( 'NONE', #620 ) ;
#937 = DIRECTION ( 'NONE',  ( -0.000000000000000000, -0.000000000000000000, 1.000000000000000000 ) ) ;
#938 = ORIENTED_EDGE ( 'NONE', *, *, #1020, .T. ) ;
#939 = DIRECTION ( 'NONE',  ( -1.000000000000000000, 0.000000000000000000, 0.000000000000000000 ) ) ;
#940 = CARTESIAN_POINT ( 'NONE',  ( 20.00000000000000000, -5.000000000000003553, -1.999999999999997780 ) ) ;
#941 = DIRECTION ( 'NONE',  ( 0.000000000000000000, 0.000000000000000000, 1.000000000000000000 ) ) ;
#942 = FACE_OUTER_BOUND ( 'NONE', #866, .T. ) ;
#943 = LINE ( 'NONE', #477, #342 ) ;
#944 = CARTESIAN_POINT ( 'NONE',  ( 19.53208888623795758, -8.216643737560064054, -10.55763475084066982 ) ) ;
#945 = DIRECTION ( 'NONE',  ( -1.000000000000000000, -0.000000000000000000, -0.000000000000000000 ) ) ;
#946 = VERTEX_POINT ( 'NONE', #538 ) ;
#947 = ORIENTED_EDGE ( 'NONE', *, *, #587, .T. ) ;
#948 = CARTESIAN_POINT ( 'NONE',  ( 0.000000000000000000, 60.00000000000000000, 0.000000000000000000 ) ) ;
#949 = CARTESIAN_POINT ( 'NONE',  ( 20.00000000000000000, 60.00000000000000000, -4.000000000000000000 ) ) ;
#950 = DIRECTION ( 'NONE',  ( 0.000000000000000000, 0.000000000000000000, 1.000000000000000000 ) ) ;
#951 = EDGE_CURVE ( 'NONE', #156, #837, #70, .T. ) ;
#952 = CARTESIAN_POINT ( 'NONE',  ( -0.000000000000000000, -5.000000000000004441, -17.00000000000000000 ) ) ;
#953 = AXIS2_PLACEMENT_3D ( 'NONE', #500, #179, #400 ) ;
#954 = UNCERTAINTY_MEASURE_WITH_UNIT (LENGTH_MEASURE( 1.000000000000000082E-05 ), #229, 'distance_accuracy_value', 'NONE');
#955 = CARTESIAN_POINT ( 'NONE',  ( 20.00000000000000000, -5.000000000000004441, -23.00000000000000000 ) ) ;
#956 = FACE_BOUND ( 'NONE', #441, .T. ) ;
#957 = LINE ( 'NONE', #111, #263 ) ;
#958 = DIRECTION ( 'NONE',  ( 0.6427876096865402511, 0.000000000000000000, 0.7660444431189772363 ) ) ;
#959 = CARTESIAN_POINT ( 'NONE',  ( 0.000000000000000000, 0.000000000000000000, -29.06805748150731361 ) ) ;
#960 = VECTOR ( 'NONE', #1040, 1000.000000000000000 ) ;
#961 = CARTESIAN_POINT ( 'NONE',  ( 0.000000000000000000, -5.000000000000004441, -15.30000000000000071 ) ) ;
#962 = CARTESIAN_POINT ( 'NONE',  ( -0.000000000000000000, -3.500000000000003997, -23.19999999999999929 ) ) ;
#963 = CARTESIAN_POINT ( 'NONE',  ( 0.000000000000000000, -5.000000000000004441, -21.50000000000000000 ) ) ;
#964 = ORIENTED_EDGE ( 'NONE', *, *, #490, .T. ) ;
#965 = DIRECTION ( 'NONE',  ( -1.000000000000000000, 0.000000000000000000, 0.000000000000000000 ) ) ;
#966 = ORIENTED_EDGE ( 'NONE', *, *, #285, .T. ) ;
#967 = EDGE_CURVE ( 'NONE', #533, #4, #1075, .T. ) ;
#968 = DIRECTION ( 'NONE',  ( 0.000000000000000000, 0.000000000000000000, 1.000000000000000000 ) ) ;
#969 = VERTEX_POINT ( 'NONE', #1031 ) ;
#970 = CARTESIAN_POINT ( 'NONE',  ( 0.000000000000000000, -10.00000000000000000, -29.06805748150731361 ) ) ;
#971 = FACE_OUTER_BOUND ( 'NONE', #178, .T. ) ;
#972 = CARTESIAN_POINT ( 'NONE',  ( 20.00000000000000000, -5.000000000000004441, -11.00000000000000178 ) ) ;
#973 = LINE ( 'NONE', #716, #319 ) ;
#974 = CARTESIAN_POINT ( 'NONE',  ( 17.90225092205679402, -5.000000000000004441, -12.50000000000000000 ) ) ;
#975 = CARTESIAN_POINT ( 'NONE',  ( 20.00000000000000000, -10.00000000000000000, -9.272059531467590432 ) ) ;
#976 = DIRECTION ( 'NONE',  ( 1.000000000000000000, 0.000000000000000000, 0.000000000000000000 ) ) ;
#977 = ORIENTED_EDGE ( 'NONE', *, *, #542, .T. ) ;
#978 = ADVANCED_FACE ( 'NONE', ( #461 ), #182, .F. ) ;
#979 = DIRECTION ( 'NONE',  ( 0.000000000000000000, -1.000000000000000000, 0.000000000000000000 ) ) ;
#980 = EDGE_LOOP ( 'NONE', ( #709, #651, #1042, #289, #504 ) ) ;
#981 = APPLICATION_CONTEXT ( 'automotive_design' ) ;
#982 = ORIENTED_EDGE ( 'NONE', *, *, #754, .F. ) ;
#983 = EDGE_CURVE ( 'NONE', #760, #255, #248, .T. ) ;
#984 = ORIENTED_EDGE ( 'NONE', *, *, #186, .T. ) ;
#985 = EDGE_CURVE ( 'NONE', #692, #735, #521, .T. ) ;
#986 = CARTESIAN_POINT ( 'NONE',  ( 17.90225092205679402, -6.103509453107452742, -12.49999999999999822 ) ) ;
#987 = EDGE_CURVE ( 'NONE', #837, #410, #606, .T. ) ;
#988 = DIRECTION ( 'NONE',  ( -1.000000000000000000, -0.000000000000000000, -0.000000000000000000 ) ) ;
#989 = CARTESIAN_POINT ( 'NONE',  ( 20.00000000000000000, -6.500000000000005329, -23.19999999999999929 ) ) ;
#990 = ORIENTED_EDGE ( 'NONE', *, *, #874, .T. ) ;
#991 = PRODUCT_DEFINITION_FORMATION_WITH_SPECIFIED_SOURCE ( 'ANY', '', #861, .NOT_KNOWN. ) ;
#992 = VERTEX_POINT ( 'NONE', #291 ) ;
#993 = CARTESIAN_POINT ( 'NONE',  ( 20.00000000000000000, -3.500000000000003997, -23.19999999999999929 ) ) ;
#994 = VERTEX_POINT ( 'NONE', #961 ) ;
#995 = CARTESIAN_POINT ( 'NONE',  ( 20.00000000000000000, -5.000000000000004441, -12.50000000000000000 ) ) ;
#996 = ADVANCED_FACE ( 'NONE', ( #672, #46, #1034 ), #635, .F. ) ;
#997 = VECTOR ( 'NONE', #1056, 1000.000000000000000 ) ;
#998 =( BOUNDED_CURVE ( )  B_SPLINE_CURVE ( 3, ( #10, #177, #259, #428 ),
 .UNSPECIFIED., .F., .F. ) 
 B_SPLINE_CURVE_WITH_KNOTS ( ( 4, 4 ),
 ( 3.141592653589793116, 6.283185307179586232 ),
 .UNSPECIFIED. ) 
 CURVE ( )  GEOMETRIC_REPRESENTATION_ITEM ( )  RATIONAL_B_SPLINE_CURVE ( ( 1.000000000000000000, 0.3333333333333333703, 0.3333333333333333703, 1.000000000000000000 ) ) 
 REPRESENTATION_ITEM ( '' )  );
#999 = CIRCLE ( 'NONE', #65, 3.000000000000000888 ) ;
#1000 = CARTESIAN_POINT ( 'NONE',  ( 4.599473569927951644, 0.000000000000000000, -28.35363270088040011 ) ) ;
#1001 = CARTESIAN_POINT ( 'NONE',  ( 0.000000000000000000, -10.00000000000000000, 0.000000000000000000 ) ) ;
#1002 = AXIS2_PLACEMENT_3D ( 'NONE', #412, #323, #167 ) ;
#1003 = ORIENTED_EDGE ( 'NONE', *, *, #1008, .F. ) ;
#1004 = ORIENTED_EDGE ( 'NONE', *, *, #175, .T. ) ;
#1005 = DIRECTION ( 'NONE',  ( -1.000000000000000000, 0.000000000000000000, 0.000000000000000000 ) ) ;
#1006 = ORIENTED_EDGE ( 'NONE', *, *, #792, .T. ) ;
#1007 = CARTESIAN_POINT ( 'NONE',  ( 19.98696832959290859, -5.000000000000004441, -9.500000000000001776 ) ) ;
#1008 = EDGE_CURVE ( 'NONE', #413, #1074, #855, .T. ) ;
#1009 = CARTESIAN_POINT ( 'NONE',  ( 3.067384683690003389, -10.00000000000000000, -27.06805748150731361 ) ) ;
#1010 = VECTOR ( 'NONE', #515, 1000.000000000000000 ) ;
#1011 = FACE_OUTER_BOUND ( 'NONE', #137, .T. ) ;
#1012 = DIRECTION ( 'NONE',  ( 0.000000000000000000, 0.000000000000000000, 1.000000000000000000 ) ) ;
#1013 = CARTESIAN_POINT ( 'NONE',  ( 19.63734919051679739, -3.605429265408700790, -10.43219040505880990 ) ) ;
#1014 = ORIENTED_EDGE ( 'NONE', *, *, #587, .F. ) ;
#1015 = ORIENTED_EDGE ( 'NONE', *, *, #613, .F. ) ;
#1016 = AXIS2_PLACEMENT_3D ( 'NONE', #132, #797, #968 ) ;
#1017 = ORIENTED_EDGE ( 'NONE', *, *, #3, .T. ) ;
#1018 = PRESENTATION_STYLE_ASSIGNMENT (( #237 ) ) ;
#1019 = CARTESIAN_POINT ( 'NONE',  ( 20.00000000000000000, -5.000000000000004441, -23.00000000000000000 ) ) ;
#1020 = EDGE_CURVE ( 'NONE', #4, #353, #194, .T. ) ;
#1021 = LINE ( 'NONE', #96, #462 ) ;
#1022 = CYLINDRICAL_SURFACE ( 'NONE', #1016, 1.700000000000000178 ) ;
#1023 = AXIS2_PLACEMENT_3D ( 'NONE', #948, #349, #723 ) ;
#1024 = DIRECTION ( 'NONE',  ( -1.000000000000000000, -0.000000000000000000, -0.000000000000000000 ) ) ;
#1025 = AXIS2_PLACEMENT_3D ( 'NONE', #154, #979, #811 ) ;
#1026 = DIRECTION ( 'NONE',  ( -1.000000000000000000, 0.000000000000000000, 0.000000000000000000 ) ) ;
#1027 = EDGE_LOOP ( 'NONE', ( #200, #804, #816, #509 ) ) ;
#1028 = VERTEX_POINT ( 'NONE', #282 ) ;
#1029 =( BOUNDED_CURVE ( )  B_SPLINE_CURVE ( 3, ( #6, #247, #312, #262 ),
 .UNSPECIFIED., .F., .F. ) 
 B_SPLINE_CURVE_WITH_KNOTS ( ( 4, 4 ),
 ( 3.141592653589793116, 4.712388980384689674 ),
 .UNSPECIFIED. ) 
 CURVE ( )  GEOMETRIC_REPRESENTATION_ITEM ( )  RATIONAL_B_SPLINE_CURVE ( ( 1.000000000000000000, 0.8047378541243649375, 0.8047378541243649375, 1.000000000000000000 ) ) 
 REPRESENTATION_ITEM ( '' )  );
#1030 = ORIENTED_EDGE ( 'NONE', *, *, #68, .T. ) ;
#1031 = CARTESIAN_POINT ( 'NONE',  ( 0.000000000000000000, 0.000000000000000000, -29.06805748150731361 ) ) ;
#1032 = ORIENTED_EDGE ( 'NONE', *, *, #613, .T. ) ;
#1033 = DIRECTION ( 'NONE',  ( 0.000000000000000000, 0.000000000000000000, -1.000000000000000000 ) ) ;
#1034 = FACE_OUTER_BOUND ( 'NONE', #348, .T. ) ;
#1035 = EDGE_CURVE ( 'NONE', #680, #317, #370, .T. ) ;
#1036 = AXIS2_PLACEMENT_3D ( 'NONE', #568, #149, #749 ) ;
#1037 = LINE ( 'NONE', #789, #197 ) ;
#1038 = EDGE_CURVE ( 'NONE', #1059, #838, #1051, .T. ) ;
#1039 = DIRECTION ( 'NONE',  ( 0.000000000000000000, 0.000000000000000000, 1.000000000000000000 ) ) ;
#1040 = DIRECTION ( 'NONE',  ( -1.000000000000000000, -0.000000000000000000, -0.000000000000000000 ) ) ;
#1041 = EDGE_LOOP ( 'NONE', ( #890, #747, #788, #925, #12, #478, #1015 ) ) ;
#1042 = ORIENTED_EDGE ( 'NONE', *, *, #802, .F. ) ;
#1043 = CARTESIAN_POINT ( 'NONE',  ( 11.60900368822717965, -5.000000000000004441, -20.00000000000000000 ) ) ;
#1044 = EDGE_CURVE ( 'NONE', #376, #84, #444, .T. ) ;
#1045 = CARTESIAN_POINT ( 'NONE',  ( 0.000000000000000000, -5.000000000000004441, -9.500000000000001776 ) ) ;
#1046 = ORIENTED_EDGE ( 'NONE', *, *, #822, .F. ) ;
#1047 = PRODUCT_RELATED_PRODUCT_CATEGORY ( 'part', '', ( #861 ) ) ;
#1048 = DIRECTION ( 'NONE',  ( 0.000000000000000000, 0.000000000000000000, 1.000000000000000000 ) ) ;
#1049 = AXIS2_PLACEMENT_3D ( 'NONE', #196, #104, #274 ) ;
#1050 = CARTESIAN_POINT ( 'NONE',  ( 19.98696832959290859, -5.000000000000004441, -9.500000000000001776 ) ) ;
#1051 = LINE ( 'NONE', #970, #161 ) ;
#1052 = VECTOR ( 'NONE', #762, 1000.000000000000000 ) ;
#1053 = CYLINDRICAL_SURFACE ( 'NONE', #152, 1.499999999999999556 ) ;
#1054 = CARTESIAN_POINT ( 'NONE',  ( 20.00000000000000000, -5.000000000000003553, -3.299999999999998934 ) ) ;
#1055 = PLANE ( 'NONE',  #309 ) ;
#1056 = DIRECTION ( 'NONE',  ( 0.6427876096865402511, 0.000000000000000000, 0.7660444431189772363 ) ) ;
#1057 = DIRECTION ( 'NONE',  ( -1.000000000000000000, 0.000000000000000000, 0.000000000000000000 ) ) ;
#1058 = ORIENTED_EDGE ( 'NONE', *, *, #14, .T. ) ;
#1059 = VERTEX_POINT ( 'NONE', #45 ) ;
#1060 = DIRECTION ( 'NONE',  ( 3.469446951953614189E-15, 0.000000000000000000, 1.000000000000000000 ) ) ;
#1061 = ORIENTED_EDGE ( 'NONE', *, *, #123, .F. ) ;
#1062 = VERTEX_POINT ( 'NONE', #54 ) ;
#1063 = CARTESIAN_POINT ( 'NONE',  ( 17.00000000000000000, -5.000000000000003553, -4.999999999999999112 ) ) ;
#1064 = DIRECTION ( 'NONE',  ( -1.000000000000000000, -0.000000000000000000, -0.000000000000000000 ) ) ;
#1065 = VECTOR ( 'NONE', #899, 1000.000000000000000 ) ;
#1066 = APPLICATION_PROTOCOL_DEFINITION ( 'draft international standard', 'automotive_design', 1998, #981 ) ;
#1067 = AXIS2_PLACEMENT_3D ( 'NONE', #673, #755, #78 ) ;
#1068 = LINE ( 'NONE', #339, #420 ) ;
#1069 = ADVANCED_FACE ( 'NONE', ( #341 ), #260, .F. ) ;
#1070 = CARTESIAN_POINT ( 'NONE',  ( 19.53208888623795758, -3.566712524879887436, -10.55763475084066982 ) ) ;
#1071 = ORIENTED_EDGE ( 'NONE', *, *, #273, .F. ) ;
#1072 = EDGE_LOOP ( 'NONE', ( #880, #503 ) ) ;
#1073 = CARTESIAN_POINT ( 'NONE',  ( 0.000000000000000000, 4.999999999999997335, -9.000000000000001776 ) ) ;
#1074 = VERTEX_POINT ( 'NONE', #891 ) ;
#1075 = CIRCLE ( 'NONE', #257, 1.500000000000001332 ) ;
#1076 = VECTOR ( 'NONE', #863, 1000.000000000000000 ) ;
#1077 = DIRECTION ( 'NONE',  ( -3.469446951953611033E-15, 0.000000000000000000, 1.000000000000000000 ) ) ;
#1078 = ADVANCED_FACE ( 'NONE', ( #17 ), #1055, .F. ) ;
#1079 = LINE ( 'NONE', #288, #507 ) ;
#1080 = VECTOR ( 'NONE', #531, 1000.000000000000000 ) ;
#1081 = EDGE_CURVE ( 'NONE', #28, #992, #750, .T. ) ;
ENDSEC;
END-ISO-10303-21;
