ISO-10303-21;
HEADER;
FILE_DESCRIPTION (( 'STEP AP214' ),
    '1' );
FILE_NAME ('03_027_bracket centering bush.STEP',
    '2020-09-16T11:24:41',
    ( '' ),
    ( '' ),
    'SwSTEP 2.0',
    'SolidWorks 2018',
    '' );
FILE_SCHEMA (( 'AUTOMOTIVE_DESIGN' ));
ENDSEC;

DATA;
#1 = DIRECTION ( 'NONE',  ( -0.0000000000000000000, -0.0000000000000000000, -1.000000000000000000 ) ) ;
#2 = FACE_OUTER_BOUND ( 'NONE', #1272, .T. ) ;
#3 = SURFACE_SIDE_STYLE ('',( #1028 ) ) ;
#4 = MECHANICAL_DESIGN_GEOMETRIC_PRESENTATION_REPRESENTATION (  '', ( #277 ), #835 ) ;
#5 = AXIS2_PLACEMENT_3D ( 'NONE', #404, #1200, #439 ) ;
#6 = CARTESIAN_POINT ( 'NONE',  ( 50.00000000000000000, 90.00000000000000000, 33.00000000000000000 ) ) ;
#7 = CARTESIAN_POINT ( 'NONE',  ( -32.50000000000000000, 55.00000000000000711, 48.00000000000000000 ) ) ;
#8 = CARTESIAN_POINT ( 'NONE',  ( -15.00000000000000711, 67.00000000000000000, 40.00000000000000000 ) ) ;
#9 = EDGE_CURVE ( 'NONE', #953, #24, #680, .T. ) ;
#10 = ORIENTED_EDGE ( 'NONE', *, *, #828, .F. ) ;
#11 = MECHANICAL_DESIGN_GEOMETRIC_PRESENTATION_REPRESENTATION (  '', ( #400 ), #932 ) ;
#12 = AXIS2_PLACEMENT_3D ( 'NONE', #509, #434, #617 ) ;
#13 = DIRECTION ( 'NONE',  ( -0.0000000000000000000, 1.000000000000000000, -0.0000000000000000000 ) ) ;
#14 = CARTESIAN_POINT ( 'NONE',  ( -49.99999999999998579, 28.00000000000000000, 40.00000000000000000 ) ) ;
#15 = ORIENTED_EDGE ( 'NONE', *, *, #98, .T. ) ;
#16 = EDGE_CURVE ( 'NONE', #904, #363, #216, .T. ) ;
#17 = FACE_OUTER_BOUND ( 'NONE', #466, .T. ) ;
#18 = CARTESIAN_POINT ( 'NONE',  ( -37.50000000000000711, 55.00000000000000711, 40.00000000000000000 ) ) ;
#19 = ORIENTED_EDGE ( 'NONE', *, *, #1096, .F. ) ;
#20 = FACE_OUTER_BOUND ( 'NONE', #139, .T. ) ;
#21 = SURFACE_STYLE_USAGE ( .BOTH. , #130 ) ;
#22 = CARTESIAN_POINT ( 'NONE',  ( 35.00000000000000000, 55.00000000000000711, 48.00000000000000000 ) ) ;
#23 = AXIS2_PLACEMENT_3D ( 'NONE', #189, #1010, #1007 ) ;
#24 = VERTEX_POINT ( 'NONE', #1211 ) ;
#25 = VERTEX_POINT ( 'NONE', #717 ) ;
#26 = SURFACE_SIDE_STYLE ('',( #790 ) ) ;
#27 = LINE ( 'NONE', #1174, #148 ) ;
#28 = ORIENTED_EDGE ( 'NONE', *, *, #777, .T. ) ;
#29 = LINE ( 'NONE', #81, #334 ) ;
#30 = VECTOR ( 'NONE', #145, 1000.000000000000000 ) ;
#31 = CIRCLE ( 'NONE', #1107, 2.500000000000002220 ) ;
#32 = CIRCLE ( 'NONE', #698, 4.249999999999996447 ) ;
#33 = ADVANCED_FACE ( 'NONE', ( #517 ), #742, .F. ) ;
#34 = CARTESIAN_POINT ( 'NONE',  ( -37.50000000000000711, 34.00000000000000711, 48.00000000000000000 ) ) ;
#35 = EDGE_CURVE ( 'NONE', #133, #977, #1177, .T. ) ;
#36 = CIRCLE ( 'NONE', #5, 13.00000000000000178 ) ;
#37 = EDGE_CURVE ( 'NONE', #235, #133, #653, .T. ) ;
#38 = ORIENTED_EDGE ( 'NONE', *, *, #923, .T. ) ;
#39 = DIRECTION ( 'NONE',  ( 0.0000000000000000000, -0.9045256429962996725, -0.4264192316982555742 ) ) ;
#40 = AXIS2_PLACEMENT_3D ( 'NONE', #101, #1277, #892 ) ;
#41 = EDGE_CURVE ( 'NONE', #284, #776, #31, .T. ) ;
#42 = ADVANCED_FACE ( 'NONE', ( #1265 ), #881, .F. ) ;
#43 = DIRECTION ( 'NONE',  ( 0.0000000000000000000, 0.0000000000000000000, -1.000000000000000000 ) ) ;
#44 = SURFACE_STYLE_FILL_AREA ( #1061 ) ;
#45 = FACE_OUTER_BOUND ( 'NONE', #1156, .T. ) ;
#46 = EDGE_LOOP ( 'NONE', ( #1024, #1231, #458, #789 ) ) ;
#47 = LINE ( 'NONE', #1157, #622 ) ;
#48 = AXIS2_PLACEMENT_3D ( 'NONE', #34, #809, #1202 ) ;
#49 = CARTESIAN_POINT ( 'NONE',  ( 32.50000000000000000, 55.00000000000000711, 48.00000000000000000 ) ) ;
#50 = EDGE_CURVE ( 'NONE', #904, #451, #1239, .T. ) ;
#51 = EDGE_CURVE ( 'NONE', #1194, #132, #985, .T. ) ;
#52 = DIRECTION ( 'NONE',  ( 0.0000000000000000000, -0.0000000000000000000, -1.000000000000000000 ) ) ;
#53 = CARTESIAN_POINT ( 'NONE',  ( 37.49999999999999289, 74.00000000000000000, 48.00000000000000000 ) ) ;
#54 = EDGE_CURVE ( 'NONE', #1278, #293, #550, .T. ) ;
#55 = ADVANCED_FACE ( 'NONE', ( #1253 ), #897, .T. ) ;
#56 = DIRECTION ( 'NONE',  ( -1.000000000000000000, -0.0000000000000000000, -0.0000000000000000000 ) ) ;
#57 = CARTESIAN_POINT ( 'NONE',  ( 49.99999999999998579, 23.31370849898475228, 1.562176863807106297 ) ) ;
#58 = ORIENTED_EDGE ( 'NONE', *, *, #1021, .T. ) ;
#59 = LINE ( 'NONE', #1170, #168 ) ;
#60 = FACE_OUTER_BOUND ( 'NONE', #417, .T. ) ;
#61 = CARTESIAN_POINT ( 'NONE',  ( -37.50000000000000711, 74.00000000000001421, 40.00000000000000000 ) ) ;
#62 = VERTEX_POINT ( 'NONE', #203 ) ;
#63 = ORIENTED_EDGE ( 'NONE', *, *, #50, .T. ) ;
#64 = EDGE_LOOP ( 'NONE', ( #149, #642, #1034, #570, #1274, #1110 ) ) ;
#65 = DIRECTION ( 'NONE',  ( -0.0000000000000000000, -0.0000000000000000000, -1.000000000000000000 ) ) ;
#66 = ORIENTED_EDGE ( 'NONE', *, *, #1226, .F. ) ;
#67 = AXIS2_PLACEMENT_3D ( 'NONE', #384, #77, #769 ) ;
#68 = ORIENTED_EDGE ( 'NONE', *, *, #716, .T. ) ;
#69 = CARTESIAN_POINT ( 'NONE',  ( 60.00000000000000711, 0.0000000000000000000, 0.0000000000000000000 ) ) ;
#70 = AXIS2_PLACEMENT_3D ( 'NONE', #1023, #1018, #805 ) ;
#71 = DIRECTION ( 'NONE',  ( -1.000000000000000000, 0.0000000000000000000, 0.0000000000000000000 ) ) ;
#72 = VECTOR ( 'NONE', #261, 1000.000000000000000 ) ;
#73 = CIRCLE ( 'NONE', #530, 2.500000000000002220 ) ;
#74 = ORIENTED_EDGE ( 'NONE', *, *, #847, .T. ) ;
#75 = DIRECTION ( 'NONE',  ( -1.000000000000000000, 0.0000000000000000000, 0.0000000000000000000 ) ) ;
#76 = CARTESIAN_POINT ( 'NONE',  ( 33.24999999999999289, 33.99999999999999289, 48.00000000000000000 ) ) ;
#77 = DIRECTION ( 'NONE',  ( -0.0000000000000000000, -0.0000000000000000000, -1.000000000000000000 ) ) ;
#78 = ORIENTED_EDGE ( 'NONE', *, *, #366, .F. ) ;
#79 = CARTESIAN_POINT ( 'NONE',  ( 60.00000000000000711, 90.00000000000000000, 48.00000000000000000 ) ) ;
#80 = EDGE_CURVE ( 'NONE', #776, #234, #1082, .T. ) ;
#81 = CARTESIAN_POINT ( 'NONE',  ( -50.00000000000000000, 90.00000000000000000, 33.00000000000000000 ) ) ;
#82 = AXIS2_PLACEMENT_3D ( 'NONE', #793, #799, #1275 ) ;
#83 = CARTESIAN_POINT ( 'NONE',  ( 0.0000000000000000000, 20.00000000000000000, 33.00000000000000000 ) ) ;
#84 = VERTEX_POINT ( 'NONE', #479 ) ;
#85 = ORIENTED_EDGE ( 'NONE', *, *, #925, .F. ) ;
#86 = VERTEX_POINT ( 'NONE', #703 ) ;
#87 = PLANE ( 'NONE',  #40 ) ;
#88 = ORIENTED_EDGE ( 'NONE', *, *, #16, .T. ) ;
#89 = AXIS2_PLACEMENT_3D ( 'NONE', #499, #1038, #128 ) ;
#90 = VECTOR ( 'NONE', #65, 1000.000000000000000 ) ;
#91 = DIRECTION ( 'NONE',  ( -0.0000000000000000000, -0.0000000000000000000, -1.000000000000000000 ) ) ;
#92 = VERTEX_POINT ( 'NONE', #399 ) ;
#93 = DIRECTION ( 'NONE',  ( -1.000000000000000000, 0.0000000000000000000, 0.0000000000000000000 ) ) ;
#94 = EDGE_LOOP ( 'NONE', ( #998, #262 ) ) ;
#95 = VECTOR ( 'NONE', #599, 1000.000000000000000 ) ;
#96 = CARTESIAN_POINT ( 'NONE',  ( 0.0000000000000000000, 85.00000000000000000, 48.00000000000000000 ) ) ;
#97 = DIRECTION ( 'NONE',  ( 0.0000000000000000000, -1.000000000000000000, -0.0000000000000000000 ) ) ;
#98 = EDGE_CURVE ( 'NONE', #1194, #967, #727, .T. ) ;
#99 = AXIS2_PLACEMENT_3D ( 'NONE', #473, #1172, #574 ) ;
#100 =( NAMED_UNIT ( * ) SI_UNIT ( $, .STERADIAN. ) SOLID_ANGLE_UNIT ( ) );
#101 = CARTESIAN_POINT ( 'NONE',  ( 0.0000000000000000000, 0.0000000000000000000, 40.00000000000000000 ) ) ;
#102 = CARTESIAN_POINT ( 'NONE',  ( 60.00000000000000711, -20.00000000000000000, 48.00000000000000000 ) ) ;
#103 = CARTESIAN_POINT ( 'NONE',  ( -35.00000000000000000, 55.00000000000000711, 48.00000000000000000 ) ) ;
#104 = EDGE_CURVE ( 'NONE', #284, #372, #770, .T. ) ;
#105 = ORIENTED_EDGE ( 'NONE', *, *, #882, .F. ) ;
#106 = DIRECTION ( 'NONE',  ( 0.0000000000000000000, 0.0000000000000000000, 1.000000000000000000 ) ) ;
#107 = VECTOR ( 'NONE', #1240, 1000.000000000000000 ) ;
#108 = FACE_OUTER_BOUND ( 'NONE', #756, .T. ) ;
#109 = AXIS2_PLACEMENT_3D ( 'NONE', #160, #551, #657 ) ;
#110 = ORIENTED_EDGE ( 'NONE', *, *, #753, .T. ) ;
#111 = FACE_BOUND ( 'NONE', #538, .T. ) ;
#112 = DIRECTION ( 'NONE',  ( 0.0000000000000000000, 0.0000000000000000000, 1.000000000000000000 ) ) ;
#113 = DIRECTION ( 'NONE',  ( -1.000000000000000000, 0.0000000000000000000, 0.0000000000000000000 ) ) ;
#114 = AXIS2_PLACEMENT_3D ( 'NONE', #797, #598, #398 ) ;
#115 = ORIENTED_EDGE ( 'NONE', *, *, #896, .F. ) ;
#116 = CARTESIAN_POINT ( 'NONE',  ( 41.74999999999998579, 33.99999999999999289, 48.00000000000000000 ) ) ;
#117 = CARTESIAN_POINT ( 'NONE',  ( -32.50000000000000000, 55.00000000000000711, 48.00000000000000000 ) ) ;
#118 = COLOUR_RGB ( '',0.5019607843137254832, 0.5019607843137254832, 0.5019607843137254832 ) ;
#119 = ORIENTED_EDGE ( 'NONE', *, *, #9, .T. ) ;
#120 = VECTOR ( 'NONE', #471, 1000.000000000000000 ) ;
#121 = DIRECTION ( 'NONE',  ( -1.000000000000000000, 0.0000000000000000000, 0.0000000000000000000 ) ) ;
#122 = CIRCLE ( 'NONE', #157, 4.249999999999996447 ) ;
#123 = CARTESIAN_POINT ( 'NONE',  ( -1.649999999999988587, 85.00000000000000000, 48.00000000000000000 ) ) ;
#124 = ORIENTED_EDGE ( 'NONE', *, *, #360, .T. ) ;
#125 = CYLINDRICAL_SURFACE ( 'NONE', #801, 4.249999999999996447 ) ;
#126 = CIRCLE ( 'NONE', #613, 2.099999999999997868 ) ;
#127 = EDGE_CURVE ( 'NONE', #960, #709, #1005, .T. ) ;
#128 = DIRECTION ( 'NONE',  ( -1.000000000000000000, 0.0000000000000000000, 0.0000000000000000000 ) ) ;
#129 = ADVANCED_FACE ( 'NONE', ( #285 ), #549, .F. ) ;
#130 = SURFACE_SIDE_STYLE ('',( #407 ) ) ;
#131 = DIRECTION ( 'NONE',  ( -1.000000000000000000, 1.387778780781445676E-16, 0.0000000000000000000 ) ) ;
#132 = VERTEX_POINT ( 'NONE', #696 ) ;
#133 = VERTEX_POINT ( 'NONE', #604 ) ;
#134 =( GEOMETRIC_REPRESENTATION_CONTEXT ( 3 ) GLOBAL_UNCERTAINTY_ASSIGNED_CONTEXT ( ( #190 ) ) GLOBAL_UNIT_ASSIGNED_CONTEXT ( ( #839, #1003, #100 ) ) REPRESENTATION_CONTEXT ( 'NONE', 'WORKASPACE' ) );
#135 = DIRECTION ( 'NONE',  ( 0.0000000000000000000, -0.0000000000000000000, 1.000000000000000000 ) ) ;
#136 = VERTEX_POINT ( 'NONE', #581 ) ;
#137 = DIRECTION ( 'NONE',  ( -0.0000000000000000000, -0.0000000000000000000, 1.000000000000000000 ) ) ;
#138 = VERTEX_POINT ( 'NONE', #591 ) ;
#139 = EDGE_LOOP ( 'NONE', ( #944, #958, #161, #869 ) ) ;
#140 = UNCERTAINTY_MEASURE_WITH_UNIT (LENGTH_MEASURE( 1.000000000000000082E-05 ), #794, 'distance_accuracy_value', 'NONE');
#141 = VECTOR ( 'NONE', #743, 1000.000000000000000 ) ;
#142 = CIRCLE ( 'NONE', #759, 2.500000000000002220 ) ;
#143 = DIRECTION ( 'NONE',  ( -1.000000000000000000, 0.0000000000000000000, 0.0000000000000000000 ) ) ;
#144 = ORIENTED_EDGE ( 'NONE', *, *, #704, .F. ) ;
#145 = DIRECTION ( 'NONE',  ( -0.0000000000000000000, -0.0000000000000000000, -1.000000000000000000 ) ) ;
#146 = ADVANCED_FACE ( 'NONE', ( #443 ), #1091, .T. ) ;
#147 =( NAMED_UNIT ( * ) PLANE_ANGLE_UNIT ( ) SI_UNIT ( $, .RADIAN. ) );
#148 = VECTOR ( 'NONE', #1266, 1000.000000000000000 ) ;
#149 = ORIENTED_EDGE ( 'NONE', *, *, #343, .T. ) ;
#150 = CARTESIAN_POINT ( 'NONE',  ( -50.00000000000000000, 20.00000000000000000, 40.00000000000000000 ) ) ;
#151 = LINE ( 'NONE', #784, #950 ) ;
#152 =( NAMED_UNIT ( * ) PLANE_ANGLE_UNIT ( ) SI_UNIT ( $, .RADIAN. ) );
#153 = VECTOR ( 'NONE', #824, 1000.000000000000000 ) ;
#154 = ADVANCED_FACE ( 'NONE', ( #2 ), #588, .F. ) ;
#155 = VERTEX_POINT ( 'NONE', #14 ) ;
#156 = DIRECTION ( 'NONE',  ( 1.000000000000000000, -0.0000000000000000000, -0.0000000000000000000 ) ) ;
#157 = AXIS2_PLACEMENT_3D ( 'NONE', #735, #637, #143 ) ;
#158 = AXIS2_PLACEMENT_3D ( 'NONE', #689, #903, #1193 ) ;
#159 = DIRECTION ( 'NONE',  ( 0.0000000000000000000, 0.0000000000000000000, -1.000000000000000000 ) ) ;
#160 = CARTESIAN_POINT ( 'NONE',  ( 15.00000000000000711, 67.00000000000000000, 40.00000000000000000 ) ) ;
#161 = ORIENTED_EDGE ( 'NONE', *, *, #1229, .F. ) ;
#162 = DIRECTION ( 'NONE',  ( -1.000000000000000000, 0.0000000000000000000, 0.0000000000000000000 ) ) ;
#163 = EDGE_CURVE ( 'NONE', #259, #136, #818, .T. ) ;
#164 = CARTESIAN_POINT ( 'NONE',  ( 60.00000000000000711, 19.99999999999997868, 0.0000000000000000000 ) ) ;
#165 = EDGE_LOOP ( 'NONE', ( #1246, #66 ) ) ;
#166 = SURFACE_SIDE_STYLE ('',( #442 ) ) ;
#167 = VERTEX_POINT ( 'NONE', #1197 ) ;
#168 = VECTOR ( 'NONE', #1186, 1000.000000000000000 ) ;
#169 = CIRCLE ( 'NONE', #1248, 2.099999999999997868 ) ;
#170 = CIRCLE ( 'NONE', #607, 4.249999999999996447 ) ;
#171 = ORIENTED_EDGE ( 'NONE', *, *, #1146, .F. ) ;
#172 = CARTESIAN_POINT ( 'NONE',  ( 1.592040838891559293E-15, -20.00000000000000000, 6.999999999999999112 ) ) ;
#173 = AXIS2_PLACEMENT_3D ( 'NONE', #8, #1, #202 ) ;
#174 = CARTESIAN_POINT ( 'NONE',  ( 50.00000000000000000, 90.00000000000000000, 40.00000000000000000 ) ) ;
#175 = DIRECTION ( 'NONE',  ( -1.000000000000000000, 0.0000000000000000000, 0.0000000000000000000 ) ) ;
#176 = DIRECTION ( 'NONE',  ( 0.0000000000000000000, 1.000000000000000000, 0.0000000000000000000 ) ) ;
#177 = ORIENTED_EDGE ( 'NONE', *, *, #287, .T. ) ;
#178 = SURFACE_STYLE_USAGE ( .BOTH. , #3 ) ;
#179 = AXIS2_PLACEMENT_3D ( 'NONE', #817, #609, #113 ) ;
#180 = ORIENTED_EDGE ( 'NONE', *, *, #247, .F. ) ;
#181 = CARTESIAN_POINT ( 'NONE',  ( -41.75000000000000000, 74.00000000000001421, 48.00000000000000000 ) ) ;
#182 = PRESENTATION_STYLE_ASSIGNMENT (( #192 ) ) ;
#183 =( NAMED_UNIT ( * ) PLANE_ANGLE_UNIT ( ) SI_UNIT ( $, .RADIAN. ) );
#184 = ORIENTED_EDGE ( 'NONE', *, *, #370, .F. ) ;
#185 = FACE_OUTER_BOUND ( 'NONE', #664, .T. ) ;
#186 = EDGE_CURVE ( 'NONE', #992, #1241, #36, .T. ) ;
#187 = ORIENTED_EDGE ( 'NONE', *, *, #51, .T. ) ;
#188 = DIRECTION ( 'NONE',  ( -1.000000000000000000, 0.0000000000000000000, 0.0000000000000000000 ) ) ;
#189 = CARTESIAN_POINT ( 'NONE',  ( -37.50000000000000711, 34.00000000000000711, 48.00000000000000000 ) ) ;
#190 = UNCERTAINTY_MEASURE_WITH_UNIT (LENGTH_MEASURE( 1.000000000000000082E-05 ), #839, 'distance_accuracy_value', 'NONE');
#191 = DIRECTION ( 'NONE',  ( 0.0000000000000000000, 0.0000000000000000000, 1.000000000000000000 ) ) ;
#192 = SURFACE_STYLE_USAGE ( .BOTH. , #1009 ) ;
#193 = ORIENTED_EDGE ( 'NONE', *, *, #871, .F. ) ;
#194 = ORIENTED_EDGE ( 'NONE', *, *, #882, .T. ) ;
#195 = LINE ( 'NONE', #1243, #695 ) ;
#196 = DIRECTION ( 'NONE',  ( -1.000000000000000000, 0.0000000000000000000, 0.0000000000000000000 ) ) ;
#197 = AXIS2_PLACEMENT_3D ( 'NONE', #1180, #674, #775 ) ;
#198 = LINE ( 'NONE', #854, #90 ) ;
#199 = LINE ( 'NONE', #302, #1261 ) ;
#200 = CARTESIAN_POINT ( 'NONE',  ( -60.00000000000000711, 90.00000000000000000, 33.00000000000000000 ) ) ;
#201 = ORIENTED_EDGE ( 'NONE', *, *, #1136, .T. ) ;
#202 = DIRECTION ( 'NONE',  ( -1.000000000000000000, 0.0000000000000000000, 0.0000000000000000000 ) ) ;
#203 = CARTESIAN_POINT ( 'NONE',  ( 60.00000000000000711, -20.00000000000000000, 48.00000000000000000 ) ) ;
#204 = AXIS2_PLACEMENT_3D ( 'NONE', #557, #450, #1137 ) ;
#205 = DIRECTION ( 'NONE',  ( 1.000000000000000000, -0.0000000000000000000, -0.0000000000000000000 ) ) ;
#206 = DIRECTION ( 'NONE',  ( -1.000000000000000000, 0.0000000000000000000, 0.0000000000000000000 ) ) ;
#207 = EDGE_CURVE ( 'NONE', #953, #715, #126, .T. ) ;
#208 = CARTESIAN_POINT ( 'NONE',  ( 37.49999999999999289, 74.00000000000000000, 48.00000000000000000 ) ) ;
#209 = CYLINDRICAL_SURFACE ( 'NONE', #173, 2.099999999999997868 ) ;
#210 = ORIENTED_EDGE ( 'NONE', *, *, #35, .F. ) ;
#211 =( LENGTH_UNIT ( ) NAMED_UNIT ( * ) SI_UNIT ( .MILLI., .METRE. ) );
#212 = FACE_OUTER_BOUND ( 'NONE', #64, .T. ) ;
#213 = FACE_BOUND ( 'NONE', #480, .T. ) ;
#214 = EDGE_LOOP ( 'NONE', ( #324, #58, #868, #579, #989 ) ) ;
#215 = CYLINDRICAL_SURFACE ( 'NONE', #241, 4.249999999999996447 ) ;
#216 = LINE ( 'NONE', #721, #310 ) ;
#217 = DIRECTION ( 'NONE',  ( -0.0000000000000000000, -0.0000000000000000000, -1.000000000000000000 ) ) ;
#218 = SURFACE_SIDE_STYLE ('',( #1208 ) ) ;
#219 = AXIS2_PLACEMENT_3D ( 'NONE', #345, #351, #75 ) ;
#220 = ADVANCED_FACE ( 'NONE', ( #185 ), #257, .F. ) ;
#221 = CARTESIAN_POINT ( 'NONE',  ( -35.00000000000000000, 55.00000000000000711, 40.00000000000000000 ) ) ;
#222 = FILL_AREA_STYLE_COLOUR ( '', #1053 ) ;
#223 = EDGE_LOOP ( 'NONE', ( #519, #392, #895, #810 ) ) ;
#224 = EDGE_LOOP ( 'NONE', ( #210, #751, #194, #313 ) ) ;
#225 = FACE_BOUND ( 'NONE', #650, .T. ) ;
#226 = EDGE_CURVE ( 'NONE', #340, #167, #282, .T. ) ;
#227 = CARTESIAN_POINT ( 'NONE',  ( 41.99999999999999289, 19.99999999999997868, 0.0000000000000000000 ) ) ;
#228 = MECHANICAL_DESIGN_GEOMETRIC_PRESENTATION_REPRESENTATION (  '', ( #1065 ), #781 ) ;
#229 = VECTOR ( 'NONE', #615, 1000.000000000000000 ) ;
#230 = ADVANCED_FACE ( 'NONE', ( #1052 ), #984, .F. ) ;
#231 = VECTOR ( 'NONE', #1118, 1000.000000000000000 ) ;
#232 = DIRECTION ( 'NONE',  ( -0.0000000000000000000, -1.000000000000000000, -0.0000000000000000000 ) ) ;
#233 = EDGE_CURVE ( 'NONE', #24, #25, #678, .T. ) ;
#234 = VERTEX_POINT ( 'NONE', #18 ) ;
#235 = VERTEX_POINT ( 'NONE', #123 ) ;
#236 = PRODUCT_DEFINITION ( 'UNKNOWN', '', #975, #893 ) ;
#237 = DIRECTION ( 'NONE',  ( -1.000000000000000000, 0.0000000000000000000, 0.0000000000000000000 ) ) ;
#238 = VERTEX_POINT ( 'NONE', #303 ) ;
#239 = CIRCLE ( 'NONE', #1195, 4.249999999999996447 ) ;
#240 = ORIENTED_EDGE ( 'NONE', *, *, #319, .T. ) ;
#241 = AXIS2_PLACEMENT_3D ( 'NONE', #53, #970, #965 ) ;
#242 =( LENGTH_UNIT ( ) NAMED_UNIT ( * ) SI_UNIT ( .MILLI., .METRE. ) );
#243 = ADVANCED_FACE ( 'NONE', ( #768 ), #586, .F. ) ;
#244 = DIRECTION ( 'NONE',  ( -1.000000000000000000, 0.0000000000000000000, 0.0000000000000000000 ) ) ;
#245 = ORIENTED_EDGE ( 'NONE', *, *, #328, .F. ) ;
#246 = ORIENTED_EDGE ( 'NONE', *, *, #927, .T. ) ;
#247 = EDGE_CURVE ( 'NONE', #715, #25, #954, .T. ) ;
#248 = AXIS2_PLACEMENT_3D ( 'NONE', #732, #1036, #1228 ) ;
#249 = PLANE ( 'NONE',  #1122 ) ;
#250 = ORIENTED_EDGE ( 'NONE', *, *, #762, .T. ) ;
#251 = VERTEX_POINT ( 'NONE', #410 ) ;
#252 = CARTESIAN_POINT ( 'NONE',  ( -1.649999999999989919, 85.00000000000000000, 40.00000000000000000 ) ) ;
#253 = VECTOR ( 'NONE', #553, 1000.000000000000000 ) ;
#254 = EDGE_LOOP ( 'NONE', ( #822, #78 ) ) ;
#255 = DIRECTION ( 'NONE',  ( -0.0000000000000000000, 0.0000000000000000000, -1.000000000000000000 ) ) ;
#256 = EDGE_CURVE ( 'NONE', #962, #833, #905, .T. ) ;
#257 = CYLINDRICAL_SURFACE ( 'NONE', #886, 2.500000000000002220 ) ;
#258 = FACE_OUTER_BOUND ( 'NONE', #677, .T. ) ;
#259 = VERTEX_POINT ( 'NONE', #49 ) ;
#260 = ORIENTED_EDGE ( 'NONE', *, *, #620, .T. ) ;
#261 = DIRECTION ( 'NONE',  ( -0.0000000000000000000, 1.000000000000000000, -0.0000000000000000000 ) ) ;
#262 = ORIENTED_EDGE ( 'NONE', *, *, #860, .T. ) ;
#263 = EDGE_CURVE ( 'NONE', #238, #1278, #47, .T. ) ;
#264 = AXIS2_PLACEMENT_3D ( 'NONE', #1164, #683, #874 ) ;
#265 = COLOUR_RGB ( '',0.7921568627450980005, 0.8196078431372548767, 0.9333333333333333481 ) ;
#266 = LINE ( 'NONE', #1081, #941 ) ;
#267 = ORIENTED_EDGE ( 'NONE', *, *, #840, .T. ) ;
#268 = FACE_OUTER_BOUND ( 'NONE', #1134, .T. ) ;
#269 = MANIFOLD_SOLID_BREP ( 'Schnitt-Linear austragen3', #1115 ) ;
#270 = CARTESIAN_POINT ( 'NONE',  ( -15.00000000000000711, 67.00000000000000000, 48.00000000000000000 ) ) ;
#271 = CARTESIAN_POINT ( 'NONE',  ( 12.90000000000000924, 67.00000000000000000, 40.00000000000000000 ) ) ;
#272 = FILL_AREA_STYLE_COLOUR ( '', #118 ) ;
#273 = PLANE ( 'NONE',  #626 ) ;
#274 = CARTESIAN_POINT ( 'NONE',  ( -33.25000000000000711, 74.00000000000001421, 40.00000000000000000 ) ) ;
#275 = SURFACE_SIDE_STYLE ('',( #391 ) ) ;
#276 = DIRECTION ( 'NONE',  ( -1.000000000000000000, 0.0000000000000000000, 0.0000000000000000000 ) ) ;
#277 = STYLED_ITEM ( 'NONE', ( #783 ), #1126 ) ;
#278 = ORIENTED_EDGE ( 'NONE', *, *, #1136, .F. ) ;
#279 = FILL_AREA_STYLE_COLOUR ( '', #500 ) ;
#280 = VECTOR ( 'NONE', #401, 1000.000000000000000 ) ;
#281 = VECTOR ( 'NONE', #137, 1000.000000000000000 ) ;
#282 = CIRCLE ( 'NONE', #12, 4.249999999999996447 ) ;
#283 = CYLINDRICAL_SURFACE ( 'NONE', #489, 13.00000000000000178 ) ;
#284 = VERTEX_POINT ( 'NONE', #117 ) ;
#285 = FACE_OUTER_BOUND ( 'NONE', #914, .T. ) ;
#286 = CARTESIAN_POINT ( 'NONE',  ( 41.74999999999998579, 33.99999999999999289, 40.00000000000000000 ) ) ;
#287 = EDGE_CURVE ( 'NONE', #1223, #749, #429, .T. ) ;
#288 = ORIENTED_EDGE ( 'NONE', *, *, #1234, .F. ) ;
#289 =( GEOMETRIC_REPRESENTATION_CONTEXT ( 3 ) GLOBAL_UNCERTAINTY_ASSIGNED_CONTEXT ( ( #746 ) ) GLOBAL_UNIT_ASSIGNED_CONTEXT ( ( #901, #907, #1192 ) ) REPRESENTATION_CONTEXT ( 'NONE', 'WORKASPACE' ) );
#290 = DIRECTION ( 'NONE',  ( 1.000000000000000000, 0.0000000000000000000, 0.0000000000000000000 ) ) ;
#291 = CARTESIAN_POINT ( 'NONE',  ( 1.592040838891559293E-15, 20.00000000000000000, 6.999999999999999112 ) ) ;
#292 = EDGE_LOOP ( 'NONE', ( #419, #383, #193, #1129, #1138 ) ) ;
#293 = VERTEX_POINT ( 'NONE', #444 ) ;
#294 = CARTESIAN_POINT ( 'NONE',  ( -37.50000000000000711, 74.00000000000001421, 48.00000000000000000 ) ) ;
#295 = MECHANICAL_DESIGN_GEOMETRIC_PRESENTATION_REPRESENTATION (  '', ( #686 ), #431 ) ;
#296 = CIRCLE ( 'NONE', #1219, 4.249999999999996447 ) ;
#297 = DIRECTION ( 'NONE',  ( -1.000000000000000000, 0.0000000000000000000, 0.0000000000000000000 ) ) ;
#298 = FACE_OUTER_BOUND ( 'NONE', #791, .T. ) ;
#299 = DIRECTION ( 'NONE',  ( -0.0000000000000000000, -0.0000000000000000000, -1.000000000000000000 ) ) ;
#300 = EDGE_LOOP ( 'NONE', ( #308, #379 ) ) ;
#301 = CIRCLE ( 'NONE', #720, 2.099999999999997868 ) ;
#302 = CARTESIAN_POINT ( 'NONE',  ( -42.00000000000000000, 20.00000000000000000, 40.00000000000000000 ) ) ;
#303 = CARTESIAN_POINT ( 'NONE',  ( -60.00000000000000711, -20.00000000000002132, 0.0000000000000000000 ) ) ;
#304 = AXIS2_PLACEMENT_3D ( 'NONE', #1279, #804, #297 ) ;
#305 = CARTESIAN_POINT ( 'NONE',  ( -41.75000000000000000, 74.00000000000001421, 48.00000000000000000 ) ) ;
#306 = VERTEX_POINT ( 'NONE', #858 ) ;
#307 = EDGE_CURVE ( 'NONE', #92, #155, #535, .T. ) ;
#308 = ORIENTED_EDGE ( 'NONE', *, *, #403, .T. ) ;
#309 = ADVANCED_FACE ( 'NONE', ( #922 ), #125, .F. ) ;
#310 = VECTOR ( 'NONE', #1111, 1000.000000000000000 ) ;
#311 = CARTESIAN_POINT ( 'NONE',  ( -37.50000000000000711, 74.00000000000001421, 48.00000000000000000 ) ) ;
#312 = ORIENTED_EDGE ( 'NONE', *, *, #247, .T. ) ;
#313 = ORIENTED_EDGE ( 'NONE', *, *, #823, .T. ) ;
#314 = AXIS2_PLACEMENT_3D ( 'NONE', #1225, #43, #237 ) ;
#315 = DIRECTION ( 'NONE',  ( 0.0000000000000000000, 0.0000000000000000000, 1.000000000000000000 ) ) ;
#316 = CARTESIAN_POINT ( 'NONE',  ( 41.74999999999998579, 33.99999999999999289, 48.00000000000000000 ) ) ;
#317 = ADVANCED_FACE ( 'NONE', ( #1116 ), #857, .T. ) ;
#318 = EDGE_LOOP ( 'NONE', ( #10, #1188, #267, #124 ) ) ;
#319 = EDGE_CURVE ( 'NONE', #749, #1149, #1244, .T. ) ;
#320 = PLANE ( 'NONE',  #510 ) ;
#321 = CIRCLE ( 'NONE', #358, 13.00000000000000178 ) ;
#322 = CYLINDRICAL_SURFACE ( 'NONE', #304, 2.099999999999997868 ) ;
#323 = ORIENTED_EDGE ( 'NONE', *, *, #847, .F. ) ;
#324 = ORIENTED_EDGE ( 'NONE', *, *, #1008, .T. ) ;
#325 = FACE_BOUND ( 'NONE', #441, .T. ) ;
#326 = EDGE_CURVE ( 'NONE', #1147, #251, #665, .T. ) ;
#327 = ADVANCED_FACE ( 'NONE', ( #268 ), #215, .F. ) ;
#328 = EDGE_CURVE ( 'NONE', #435, #138, #1041, .T. ) ;
#329 = CARTESIAN_POINT ( 'NONE',  ( 37.50000000000000711, 55.00000000000000711, 48.00000000000000000 ) ) ;
#330 = ORIENTED_EDGE ( 'NONE', *, *, #972, .F. ) ;
#331 = CARTESIAN_POINT ( 'NONE',  ( -15.00000000000000711, 67.00000000000000000, 48.00000000000000000 ) ) ;
#332 = ADVANCED_FACE ( 'NONE', ( #701, #1144, #397, #1130, #111, #606, #325, #1237, #834, #20 ), #249, .T. ) ;
#333 = DIRECTION ( 'NONE',  ( -1.000000000000000000, 0.0000000000000000000, 0.0000000000000000000 ) ) ;
#334 = VECTOR ( 'NONE', #1073, 1000.000000000000000 ) ;
#335 = ORIENTED_EDGE ( 'NONE', *, *, #370, .T. ) ;
#336 = LINE ( 'NONE', #640, #30 ) ;
#337 = CARTESIAN_POINT ( 'NONE',  ( -50.00000000000000000, 28.00000000000000000, 0.0000000000000000000 ) ) ;
#338 = ORIENTED_EDGE ( 'NONE', *, *, #163, .T. ) ;
#339 = PRESENTATION_LAYER_ASSIGNMENT (  '', '', ( #457 ) ) ;
#340 = VERTEX_POINT ( 'NONE', #750 ) ;
#341 = DIRECTION ( 'NONE',  ( 1.000000000000000000, 0.0000000000000000000, 0.0000000000000000000 ) ) ;
#342 = EDGE_LOOP ( 'NONE', ( #1076, #1015 ) ) ;
#343 = EDGE_CURVE ( 'NONE', #1223, #92, #803, .T. ) ;
#344 = VERTEX_POINT ( 'NONE', #552 ) ;
#345 = CARTESIAN_POINT ( 'NONE',  ( -35.00000000000000000, 55.00000000000000711, 48.00000000000000000 ) ) ;
#346 = AXIS2_PLACEMENT_3D ( 'NONE', #863, #176, #1256 ) ;
#347 = DIRECTION ( 'NONE',  ( 0.0000000000000000000, 0.0000000000000000000, -1.000000000000000000 ) ) ;
#348 = ORIENTED_EDGE ( 'NONE', *, *, #1032, .T. ) ;
#349 = UNCERTAINTY_MEASURE_WITH_UNIT (LENGTH_MEASURE( 1.000000000000000082E-05 ), #465, 'distance_accuracy_value', 'NONE');
#350 = ORIENTED_EDGE ( 'NONE', *, *, #1080, .F. ) ;
#351 = DIRECTION ( 'NONE',  ( 0.0000000000000000000, 0.0000000000000000000, -1.000000000000000000 ) ) ;
#352 = CARTESIAN_POINT ( 'NONE',  ( 41.99999999999999289, 20.00000000000000000, 40.00000000000000000 ) ) ;
#353 = LINE ( 'NONE', #329, #482 ) ;
#354 = VECTOR ( 'NONE', #667, 1000.000000000000000 ) ;
#355 = ORIENTED_EDGE ( 'NONE', *, *, #1216, .F. ) ;
#356 = PRESENTATION_STYLE_ASSIGNMENT (( #1245 ) ) ;
#357 = DIRECTION ( 'NONE',  ( 0.0000000000000000000, 1.000000000000000000, 0.0000000000000000000 ) ) ;
#358 = AXIS2_PLACEMENT_3D ( 'NONE', #1045, #357, #1257 ) ;
#359 = CARTESIAN_POINT ( 'NONE',  ( -32.50000000000000000, 55.00000000000000711, 40.00000000000000000 ) ) ;
#360 = EDGE_CURVE ( 'NONE', #138, #435, #1264, .T. ) ;
#361 = CARTESIAN_POINT ( 'NONE',  ( -60.00000000000000711, 90.00000000000000000, 48.00000000000000000 ) ) ;
#362 = VERTEX_POINT ( 'NONE', #1141 ) ;
#363 = VERTEX_POINT ( 'NONE', #274 ) ;
#364 = CARTESIAN_POINT ( 'NONE',  ( 15.00000000000000711, 67.00000000000000000, 48.00000000000000000 ) ) ;
#365 = EDGE_LOOP ( 'NONE', ( #529, #1198, #1117, #386 ) ) ;
#366 = EDGE_CURVE ( 'NONE', #25, #24, #301, .T. ) ;
#367 = DIRECTION ( 'NONE',  ( 0.0000000000000000000, 0.0000000000000000000, -1.000000000000000000 ) ) ;
#368 = CARTESIAN_POINT ( 'NONE',  ( -41.75000000000000000, 34.00000000000000711, 48.00000000000000000 ) ) ;
#369 = DIRECTION ( 'NONE',  ( -0.0000000000000000000, -0.0000000000000000000, -1.000000000000000000 ) ) ;
#370 = EDGE_CURVE ( 'NONE', #833, #962, #456, .T. ) ;
#371 = CIRCLE ( 'NONE', #597, 4.249999999999996447 ) ;
#372 = VERTEX_POINT ( 'NONE', #359 ) ;
#373 = EDGE_CURVE ( 'NONE', #1241, #992, #1020, .T. ) ;
#374 = VECTOR ( 'NONE', #156, 1000.000000000000000 ) ;
#375 = ORIENTED_EDGE ( 'NONE', *, *, #263, .F. ) ;
#376 = EDGE_CURVE ( 'NONE', #306, #344, #564, .T. ) ;
#377 = EDGE_CURVE ( 'NONE', #259, #1147, #440, .T. ) ;
#378 = PRESENTATION_STYLE_ASSIGNMENT (( #1204 ) ) ;
#379 = ORIENTED_EDGE ( 'NONE', *, *, #226, .T. ) ;
#380 = PRESENTATION_LAYER_ASSIGNMENT (  '', '', ( #1065 ) ) ;
#381 = CARTESIAN_POINT ( 'NONE',  ( 32.50000000000000000, 55.00000000000000711, 40.00000000000000000 ) ) ;
#382 = DIRECTION ( 'NONE',  ( 0.0000000000000000000, 0.0000000000000000000, -1.000000000000000000 ) ) ;
#383 = ORIENTED_EDGE ( 'NONE', *, *, #420, .T. ) ;
#384 = CARTESIAN_POINT ( 'NONE',  ( 0.0000000000000000000, 85.00000000000000000, 40.00000000000000000 ) ) ;
#385 = EDGE_LOOP ( 'NONE', ( #764, #898 ) ) ;
#386 = ORIENTED_EDGE ( 'NONE', *, *, #326, .T. ) ;
#387 = CARTESIAN_POINT ( 'NONE',  ( 0.0000000000000000000, -20.00000000000000000, 20.00000000000000000 ) ) ;
#388 = ORIENTED_EDGE ( 'NONE', *, *, #610, .F. ) ;
#389 = AXIS2_PLACEMENT_3D ( 'NONE', #448, #669, #175 ) ;
#390 = ORIENTED_EDGE ( 'NONE', *, *, #1022, .T. ) ;
#391 = SURFACE_STYLE_FILL_AREA ( #1189 ) ;
#392 = ORIENTED_EDGE ( 'NONE', *, *, #808, .F. ) ;
#393 = CARTESIAN_POINT ( 'NONE',  ( 60.00000000000000711, 90.00000000000000000, 33.00000000000000000 ) ) ;
#394 = LINE ( 'NONE', #1217, #845 ) ;
#395 = LINE ( 'NONE', #316, #229 ) ;
#396 = ORIENTED_EDGE ( 'NONE', *, *, #561, .F. ) ;
#397 = FACE_BOUND ( 'NONE', #300, .T. ) ;
#398 = DIRECTION ( 'NONE',  ( -1.000000000000000000, 0.0000000000000000000, 0.0000000000000000000 ) ) ;
#399 = CARTESIAN_POINT ( 'NONE',  ( -42.00000000000000000, 20.00000000000000000, 40.00000000000000000 ) ) ;
#400 = STYLED_ITEM ( 'NONE', ( #378 ), #243 ) ;
#401 = DIRECTION ( 'NONE',  ( -0.0000000000000000000, -1.000000000000000000, -0.0000000000000000000 ) ) ;
#402 = DIRECTION ( 'NONE',  ( 0.0000000000000000000, 0.0000000000000000000, -1.000000000000000000 ) ) ;
#403 = EDGE_CURVE ( 'NONE', #167, #340, #981, .T. ) ;
#404 = CARTESIAN_POINT ( 'NONE',  ( 0.0000000000000000000, -20.00000000000000000, 20.00000000000000000 ) ) ;
#405 = PRODUCT_CONTEXT ( 'NONE', #1276, 'mechanical' ) ;
#406 = ORIENTED_EDGE ( 'NONE', *, *, #537, .F. ) ;
#407 = SURFACE_STYLE_FILL_AREA ( #1215 ) ;
#408 = UNCERTAINTY_MEASURE_WITH_UNIT (LENGTH_MEASURE( 1.000000000000000082E-05 ), #211, 'distance_accuracy_value', 'NONE');
#409 = CARTESIAN_POINT ( 'NONE',  ( -33.25000000000000711, 34.00000000000000711, 40.00000000000000000 ) ) ;
#410 = CARTESIAN_POINT ( 'NONE',  ( 37.50000000000000711, 55.00000000000000711, 40.00000000000000000 ) ) ;
#411 = ORIENTED_EDGE ( 'NONE', *, *, #807, .T. ) ;
#412 = COLOUR_RGB ( '',0.5019607843137254832, 0.5019607843137254832, 0.5019607843137254832 ) ;
#413 = DIRECTION ( 'NONE',  ( -0.0000000000000000000, -0.0000000000000000000, -1.000000000000000000 ) ) ;
#414 = EDGE_LOOP ( 'NONE', ( #288, #184, #348, #884 ) ) ;
#415 =( BOUNDED_CURVE ( )  B_SPLINE_CURVE ( 3, ( #1262, #577, #976, #773 ),
 .UNSPECIFIED., .F., .T. ) 
 B_SPLINE_CURVE_WITH_KNOTS ( ( 4, 4 ),
 ( 4.712388980384690562, 6.283185307179586232 ),
 .UNSPECIFIED. ) 
 CURVE ( )  GEOMETRIC_REPRESENTATION_ITEM ( )  RATIONAL_B_SPLINE_CURVE ( ( 1.000000000000000000, 0.8047378541243652705, 0.8047378541243652705, 1.000000000000000000 ) ) 
 REPRESENTATION_ITEM ( '' )  );
#416 = CARTESIAN_POINT ( 'NONE',  ( 1.649999999999988587, 85.00000000000000000, 40.00000000000000000 ) ) ;
#417 = EDGE_LOOP ( 'NONE', ( #1043, #260, #859, #177 ) ) ;
#418 = EDGE_CURVE ( 'NONE', #573, #739, #1128, .T. ) ;
#419 = ORIENTED_EDGE ( 'NONE', *, *, #1160, .F. ) ;
#420 = EDGE_CURVE ( 'NONE', #935, #84, #415, .T. ) ;
#421 = EDGE_LOOP ( 'NONE', ( #1084, #659, #355, #1102 ) ) ;
#422 = AXIS2_PLACEMENT_3D ( 'NONE', #973, #867, #71 ) ;
#423 = FACE_BOUND ( 'NONE', #165, .T. ) ;
#424 = CYLINDRICAL_SURFACE ( 'NONE', #1125, 2.500000000000002220 ) ;
#425 = CYLINDRICAL_SURFACE ( 'NONE', #1013, 4.249999999999996447 ) ;
#426 = ADVANCED_FACE ( 'NONE', ( #1004 ), #1074, .F. ) ;
#427 = DIRECTION ( 'NONE',  ( -1.000000000000000000, 0.0000000000000000000, 0.0000000000000000000 ) ) ;
#428 = ORIENTED_EDGE ( 'NONE', *, *, #1206, .T. ) ;
#429 = LINE ( 'NONE', #352, #651 ) ;
#430 = EDGE_CURVE ( 'NONE', #960, #838, #766, .T. ) ;
#431 =( GEOMETRIC_REPRESENTATION_CONTEXT ( 3 ) GLOBAL_UNCERTAINTY_ASSIGNED_CONTEXT ( ( #567 ) ) GLOBAL_UNIT_ASSIGNED_CONTEXT ( ( #681, #990, #1077 ) ) REPRESENTATION_CONTEXT ( 'NONE', 'WORKASPACE' ) );
#432 = ADVANCED_FACE ( 'NONE', ( #1222 ), #1063, .F. ) ;
#433 = ORIENTED_EDGE ( 'NONE', *, *, #610, .T. ) ;
#434 = DIRECTION ( 'NONE',  ( 0.0000000000000000000, 0.0000000000000000000, -1.000000000000000000 ) ) ;
#435 = VERTEX_POINT ( 'NONE', #870 ) ;
#436 = VERTEX_POINT ( 'NONE', #271 ) ;
#437 = CARTESIAN_POINT ( 'NONE',  ( -33.25000000000000711, 74.00000000000001421, 48.00000000000000000 ) ) ;
#438 = AXIS2_PLACEMENT_3D ( 'NONE', #208, #894, #913 ) ;
#439 = DIRECTION ( 'NONE',  ( 0.0000000000000000000, 0.0000000000000000000, 1.000000000000000000 ) ) ;
#440 = LINE ( 'NONE', #1169, #1039 ) ;
#441 = EDGE_LOOP ( 'NONE', ( #1175, #811 ) ) ;
#442 = SURFACE_STYLE_FILL_AREA ( #755 ) ;
#443 = FACE_OUTER_BOUND ( 'NONE', #590, .T. ) ;
#444 = CARTESIAN_POINT ( 'NONE',  ( -60.00000000000000711, 90.00000000000000000, 33.00000000000000000 ) ) ;
#445 = ADVANCED_FACE ( 'NONE', ( #213, #298 ), #771, .F. ) ;
#446 = MECHANICAL_DESIGN_GEOMETRIC_PRESENTATION_REPRESENTATION (  '', ( #836 ), #556 ) ;
#447 = DIRECTION ( 'NONE',  ( -1.000000000000000000, -0.0000000000000000000, -0.0000000000000000000 ) ) ;
#448 = CARTESIAN_POINT ( 'NONE',  ( 15.00000000000000711, 67.00000000000000000, 40.00000000000000000 ) ) ;
#449 = EDGE_LOOP ( 'NONE', ( #1056, #240, #1064, #1199, #931 ) ) ;
#450 = DIRECTION ( 'NONE',  ( 0.0000000000000000000, 0.0000000000000000000, -1.000000000000000000 ) ) ;
#451 = VERTEX_POINT ( 'NONE', #181 ) ;
#452 = FACE_BOUND ( 'NONE', #342, .T. ) ;
#453 = LINE ( 'NONE', #1209, #663 ) ;
#454 = AXIS2_PLACEMENT_3D ( 'NONE', #1184, #779, #908 ) ;
#455 = CARTESIAN_POINT ( 'NONE',  ( -41.75000000000000000, 74.00000000000001421, 40.00000000000000000 ) ) ;
#456 = CIRCLE ( 'NONE', #670, 2.099999999999997868 ) ;
#457 = STYLED_ITEM ( 'NONE', ( #516 ), #1031 ) ;
#458 = ORIENTED_EDGE ( 'NONE', *, *, #420, .F. ) ;
#459 = VECTOR ( 'NONE', #495, 1000.000000000000000 ) ;
#460 = DIRECTION ( 'NONE',  ( -0.0000000000000000000, -0.0000000000000000000, 1.000000000000000000 ) ) ;
#461 = PRODUCT ( '03_027_bracket centering bush', '03_027_bracket centering bush', '', ( #405 ) ) ;
#462 = ORIENTED_EDGE ( 'NONE', *, *, #1008, .F. ) ;
#463 = DIRECTION ( 'NONE',  ( 0.0000000000000000000, 0.0000000000000000000, -1.000000000000000000 ) ) ;
#464 = AXIS2_PLACEMENT_3D ( 'NONE', #744, #255, #341 ) ;
#465 =( LENGTH_UNIT ( ) NAMED_UNIT ( * ) SI_UNIT ( .MILLI., .METRE. ) );
#466 = EDGE_LOOP ( 'NONE', ( #1178, #1158, #566, #38 ) ) ;
#467 = COLOUR_RGB ( '',0.7921568627450980005, 0.8196078431372548767, 0.9333333333333333481 ) ;
#468 = VECTOR ( 'NONE', #1187, 1000.000000000000000 ) ;
#469 = VERTEX_POINT ( 'NONE', #286 ) ;
#470 = ORIENTED_EDGE ( 'NONE', *, *, #1146, .T. ) ;
#471 = DIRECTION ( 'NONE',  ( 2.523234146875355998E-16, 1.000000000000000000, 0.0000000000000000000 ) ) ;
#472 = VECTOR ( 'NONE', #299, 1000.000000000000000 ) ;
#473 = CARTESIAN_POINT ( 'NONE',  ( -50.00000000000000000, -20.00000000000000000, 40.00000000000000000 ) ) ;
#474 =( NAMED_UNIT ( * ) SI_UNIT ( $, .STERADIAN. ) SOLID_ANGLE_UNIT ( ) );
#475 = DIRECTION ( 'NONE',  ( 1.000000000000000000, 0.0000000000000000000, -0.0000000000000000000 ) ) ;
#476 = EDGE_LOOP ( 'NONE', ( #1168, #1046, #470, #105 ) ) ;
#477 =( NAMED_UNIT ( * ) SI_UNIT ( $, .STERADIAN. ) SOLID_ANGLE_UNIT ( ) );
#478 = AXIS2_PLACEMENT_3D ( 'NONE', #270, #980, #276 ) ;
#479 = CARTESIAN_POINT ( 'NONE',  ( -42.00000000000000000, 20.00000000000000000, 0.0000000000000000000 ) ) ;
#480 = EDGE_LOOP ( 'NONE', ( #814, #1242 ) ) ;
#481 = DIRECTION ( 'NONE',  ( 1.000000000000000000, -1.387778780781445922E-16, -0.0000000000000000000 ) ) ;
#482 = VECTOR ( 'NONE', #525, 1000.000000000000000 ) ;
#483 = CARTESIAN_POINT ( 'NONE',  ( -37.50000000000000711, 74.00000000000001421, 48.00000000000000000 ) ) ;
#484 = EDGE_CURVE ( 'NONE', #293, #86, #266, .T. ) ;
#485 = LINE ( 'NONE', #102, #699 ) ;
#486 = ORIENTED_EDGE ( 'NONE', *, *, #774, .F. ) ;
#487 = CARTESIAN_POINT ( 'NONE',  ( -37.50000000000000711, 55.00000000000000711, 48.00000000000000000 ) ) ;
#488 = VECTOR ( 'NONE', #1083, 1000.000000000000000 ) ;
#489 = AXIS2_PLACEMENT_3D ( 'NONE', #387, #13, #112 ) ;
#490 = APPLICATION_PROTOCOL_DEFINITION ( 'draft international standard', 'automotive_design', 1998, #1276 ) ;
#491 = DIRECTION ( 'NONE',  ( -1.000000000000000000, 1.387778780781445922E-16, 0.0000000000000000000 ) ) ;
#492 = ORIENTED_EDGE ( 'NONE', *, *, #1206, .F. ) ;
#493 = PLANE ( 'NONE',  #583 ) ;
#494 = ORIENTED_EDGE ( 'NONE', *, *, #828, .T. ) ;
#495 = DIRECTION ( 'NONE',  ( -1.000000000000000000, -0.0000000000000000000, -0.0000000000000000000 ) ) ;
#496 = AXIS2_PLACEMENT_3D ( 'NONE', #772, #191, #997 ) ;
#497 = DIRECTION ( 'NONE',  ( -1.000000000000000000, 0.0000000000000000000, 0.0000000000000000000 ) ) ;
#498 = ORIENTED_EDGE ( 'NONE', *, *, #1032, .F. ) ;
#499 = CARTESIAN_POINT ( 'NONE',  ( 35.00000000000000000, 55.00000000000000711, 48.00000000000000000 ) ) ;
#500 = COLOUR_RGB ( '',0.7921568627450980005, 0.8196078431372548767, 0.9333333333333333481 ) ;
#501 = ORIENTED_EDGE ( 'NONE', *, *, #1270, .F. ) ;
#502 = VECTOR ( 'NONE', #447, 1000.000000000000000 ) ;
#503 = DIRECTION ( 'NONE',  ( -1.000000000000000000, 0.0000000000000000000, 0.0000000000000000000 ) ) ;
#504 = DIRECTION ( 'NONE',  ( -0.0000000000000000000, -0.0000000000000000000, -1.000000000000000000 ) ) ;
#505 = AXIS2_PLACEMENT_3D ( 'NONE', #1012, #1179, #1094 ) ;
#506 = CARTESIAN_POINT ( 'NONE',  ( 15.00000000000000711, 67.00000000000000000, 48.00000000000000000 ) ) ;
#507 = APPLICATION_PROTOCOL_DEFINITION ( 'draft international standard', 'automotive_design', 1998, #708 ) ;
#508 = DIRECTION ( 'NONE',  ( -1.000000000000000000, 0.0000000000000000000, 0.0000000000000000000 ) ) ;
#509 = CARTESIAN_POINT ( 'NONE',  ( 37.49999999999999289, 74.00000000000000000, 48.00000000000000000 ) ) ;
#510 = AXIS2_PLACEMENT_3D ( 'NONE', #150, #1230, #52 ) ;
#511 = ORIENTED_EDGE ( 'NONE', *, *, #263, .T. ) ;
#512 = VERTEX_POINT ( 'NONE', #83 ) ;
#513 = LINE ( 'NONE', #1259, #1190 ) ;
#514 = ADVANCED_FACE ( 'NONE', ( #787 ), #322, .F. ) ;
#515 = CARTESIAN_POINT ( 'NONE',  ( 37.49999999999999289, 33.99999999999999289, 48.00000000000000000 ) ) ;
#516 = PRESENTATION_STYLE_ASSIGNMENT (( #1148 ) ) ;
#517 = FACE_OUTER_BOUND ( 'NONE', #1058, .T. ) ;
#518 = LINE ( 'NONE', #687, #902 ) ;
#519 = ORIENTED_EDGE ( 'NONE', *, *, #1269, .F. ) ;
#520 = CARTESIAN_POINT ( 'NONE',  ( 0.0000000000000000000, 85.00000000000000000, 48.00000000000000000 ) ) ;
#521 = PRESENTATION_STYLE_ASSIGNMENT (( #1104 ) ) ;
#522 = ORIENTED_EDGE ( 'NONE', *, *, #923, .F. ) ;
#523 = DIRECTION ( 'NONE',  ( -0.0000000000000000000, -0.0000000000000000000, -1.000000000000000000 ) ) ;
#524 = MECHANICAL_DESIGN_GEOMETRIC_PRESENTATION_REPRESENTATION (  '', ( #889 ), #134 ) ;
#525 = DIRECTION ( 'NONE',  ( -0.0000000000000000000, -0.0000000000000000000, -1.000000000000000000 ) ) ;
#526 = EDGE_LOOP ( 'NONE', ( #846, #312, #629, #1258 ) ) ;
#527 = ADVANCED_FACE ( 'NONE', ( #108 ), #283, .F. ) ;
#528 = CARTESIAN_POINT ( 'NONE',  ( 12.90000000000000924, 67.00000000000000000, 48.00000000000000000 ) ) ;
#529 = ORIENTED_EDGE ( 'NONE', *, *, #848, .F. ) ;
#530 = AXIS2_PLACEMENT_3D ( 'NONE', #890, #402, #497 ) ;
#531 = FACE_BOUND ( 'NONE', #873, .T. ) ;
#532 = VECTOR ( 'NONE', #460, 1000.000000000000000 ) ;
#533 = CARTESIAN_POINT ( 'NONE',  ( 0.0000000000000000000, 85.00000000000000000, 40.00000000000000000 ) ) ;
#534 = ORIENTED_EDGE ( 'NONE', *, *, #848, .T. ) ;
#535 = CIRCLE ( 'NONE', #464, 8.000000000000000000 ) ;
#536 = ADVANCED_FACE ( 'NONE', ( #45 ), #493, .F. ) ;
#537 = EDGE_CURVE ( 'NONE', #1145, #1221, #518, .T. ) ;
#538 = EDGE_LOOP ( 'NONE', ( #734, #63 ) ) ;
#539 = CARTESIAN_POINT ( 'NONE',  ( 37.49999999999999289, 74.00000000000000000, 40.00000000000000000 ) ) ;
#540 = ADVANCED_FACE ( 'NONE', ( #17 ), #603, .F. ) ;
#541 = CARTESIAN_POINT ( 'NONE',  ( 35.00000000000000000, 55.00000000000000711, 48.00000000000000000 ) ) ;
#542 = UNCERTAINTY_MEASURE_WITH_UNIT (LENGTH_MEASURE( 1.000000000000000082E-05 ), #242, 'distance_accuracy_value', 'NONE');
#543 = CARTESIAN_POINT ( 'NONE',  ( 50.00000000000000000, 0.0000000000000000000, 0.0000000000000000000 ) ) ;
#544 = VECTOR ( 'NONE', #481, 1000.000000000000000 ) ;
#545 = EDGE_LOOP ( 'NONE', ( #501, #1218, #671, #605 ) ) ;
#546 = CARTESIAN_POINT ( 'NONE',  ( 41.99999999999999289, 28.00000000000000000, 40.00000000000000000 ) ) ;
#547 = AXIS2_PLACEMENT_3D ( 'NONE', #96, #1085, #290 ) ;
#548 = FACE_OUTER_BOUND ( 'NONE', #780, .T. ) ;
#549 = CYLINDRICAL_SURFACE ( 'NONE', #505, 2.500000000000002220 ) ;
#550 = LINE ( 'NONE', #200, #488 ) ;
#551 = DIRECTION ( 'NONE',  ( -0.0000000000000000000, -0.0000000000000000000, -1.000000000000000000 ) ) ;
#552 = CARTESIAN_POINT ( 'NONE',  ( 50.00000000000000000, 90.00000000000000000, 40.00000000000000000 ) ) ;
#553 = DIRECTION ( 'NONE',  ( -1.000000000000000000, -0.0000000000000000000, -0.0000000000000000000 ) ) ;
#554 = ORIENTED_EDGE ( 'NONE', *, *, #418, .F. ) ;
#555 = ORIENTED_EDGE ( 'NONE', *, *, #1090, .F. ) ;
#556 =( GEOMETRIC_REPRESENTATION_CONTEXT ( 3 ) GLOBAL_UNCERTAINTY_ASSIGNED_CONTEXT ( ( #408 ) ) GLOBAL_UNIT_ASSIGNED_CONTEXT ( ( #211, #147, #1214 ) ) REPRESENTATION_CONTEXT ( 'NONE', 'WORKASPACE' ) );
#557 = CARTESIAN_POINT ( 'NONE',  ( 35.00000000000000000, 55.00000000000000711, 40.00000000000000000 ) ) ;
#558 = ORIENTED_EDGE ( 'NONE', *, *, #1270, .T. ) ;
#559 = PLANE ( 'NONE',  #1152 ) ;
#560 = DIRECTION ( 'NONE',  ( -0.0000000000000000000, -0.0000000000000000000, -1.000000000000000000 ) ) ;
#561 = EDGE_CURVE ( 'NONE', #767, #967, #32, .T. ) ;
#562 = COLOUR_RGB ( '',0.7921568627450980005, 0.8196078431372548767, 0.9333333333333333481 ) ;
#563 = SURFACE_SIDE_STYLE ('',( #44 ) ) ;
#564 = LINE ( 'NONE', #174, #354 ) ;
#565 = AXIS2_PLACEMENT_3D ( 'NONE', #546, #463, #1166 ) ;
#566 = ORIENTED_EDGE ( 'NONE', *, *, #80, .T. ) ;
#567 = UNCERTAINTY_MEASURE_WITH_UNIT (LENGTH_MEASURE( 1.000000000000000082E-05 ), #681, 'distance_accuracy_value', 'NONE');
#568 = CARTESIAN_POINT ( 'NONE',  ( -50.00000000000000000, -19.99999999999998579, 40.00000000000000000 ) ) ;
#569 = DIRECTION ( 'NONE',  ( -0.0000000000000000000, -0.0000000000000000000, -1.000000000000000000 ) ) ;
#570 = ORIENTED_EDGE ( 'NONE', *, *, #376, .T. ) ;
#571 = CARTESIAN_POINT ( 'NONE',  ( -37.50000000000000711, 34.00000000000000711, 48.00000000000000000 ) ) ;
#572 = AXIS2_PLACEMENT_3D ( 'NONE', #729, #945, #39 ) ;
#573 = VERTEX_POINT ( 'NONE', #702 ) ;
#574 = DIRECTION ( 'NONE',  ( 0.0000000000000000000, -0.0000000000000000000, 1.000000000000000000 ) ) ;
#575 = FILL_AREA_STYLE_COLOUR ( '', #265 ) ;
#576 = ORIENTED_EDGE ( 'NONE', *, *, #418, .T. ) ;
#577 = CARTESIAN_POINT ( 'NONE',  ( -50.00000000000000000, 23.31370849898475939, 1.562176863807104077 ) ) ;
#578 = FACE_BOUND ( 'NONE', #936, .T. ) ;
#579 = ORIENTED_EDGE ( 'NONE', *, *, #688, .T. ) ;
#580 = EDGE_CURVE ( 'NONE', #136, #259, #73, .T. ) ;
#581 = CARTESIAN_POINT ( 'NONE',  ( 37.50000000000000711, 55.00000000000000711, 48.00000000000000000 ) ) ;
#582 = CIRCLE ( 'NONE', #852, 13.00000000000000178 ) ;
#583 = AXIS2_PLACEMENT_3D ( 'NONE', #589, #694, #106 ) ;
#584 = CARTESIAN_POINT ( 'NONE',  ( -60.00000000000000711, 19.99999999999997868, 0.0000000000000000000 ) ) ;
#585 = ORIENTED_EDGE ( 'NONE', *, *, #580, .T. ) ;
#586 = CYLINDRICAL_SURFACE ( 'NONE', #1051, 1.649999999999988587 ) ;
#587 = CARTESIAN_POINT ( 'NONE',  ( 0.0000000000000000000, 85.00000000000000000, 40.00000000000000000 ) ) ;
#588 = CYLINDRICAL_SURFACE ( 'NONE', #158, 4.249999999999996447 ) ;
#589 = CARTESIAN_POINT ( 'NONE',  ( -60.00000000000000711, 0.0000000000000000000, 0.0000000000000000000 ) ) ;
#590 = EDGE_LOOP ( 'NONE', ( #929, #388, #1119, #110, #690, #1236, #719, #684 ) ) ;
#591 = CARTESIAN_POINT ( 'NONE',  ( 33.24999999999999289, 74.00000000000000000, 40.00000000000000000 ) ) ;
#592 = CARTESIAN_POINT ( 'NONE',  ( 50.00000000000000000, 27.99999999999998934, 3.771428571428578458 ) ) ;
#593 = AXIS2_PLACEMENT_3D ( 'NONE', #294, #1100, #206 ) ;
#594 = EDGE_LOOP ( 'NONE', ( #115, #396 ) ) ;
#595 = CARTESIAN_POINT ( 'NONE',  ( 17.10000000000000497, 67.00000000000000000, 40.00000000000000000 ) ) ;
#596 = DIRECTION ( 'NONE',  ( -1.000000000000000000, 0.0000000000000000000, 0.0000000000000000000 ) ) ;
#597 = AXIS2_PLACEMENT_3D ( 'NONE', #978, #367, #596 ) ;
#598 = DIRECTION ( 'NONE',  ( -0.0000000000000000000, -0.0000000000000000000, -1.000000000000000000 ) ) ;
#599 = DIRECTION ( 'NONE',  ( -0.0000000000000000000, -0.0000000000000000000, -1.000000000000000000 ) ) ;
#600 = ORIENTED_EDGE ( 'NONE', *, *, #256, .T. ) ;
#601 = CARTESIAN_POINT ( 'NONE',  ( 50.00000000000000000, -20.00000000000000000, 40.00000000000000000 ) ) ;
#602 = LINE ( 'NONE', #971, #827 ) ;
#603 = CYLINDRICAL_SURFACE ( 'NONE', #114, 2.500000000000002220 ) ;
#604 = CARTESIAN_POINT ( 'NONE',  ( 1.649999999999988587, 85.00000000000000000, 48.00000000000000000 ) ) ;
#605 = ORIENTED_EDGE ( 'NONE', *, *, #98, .F. ) ;
#606 = FACE_BOUND ( 'NONE', #94, .T. ) ;
#607 = AXIS2_PLACEMENT_3D ( 'NONE', #311, #939, #623 ) ;
#608 = DIRECTION ( 'NONE',  ( -1.000000000000000000, 0.0000000000000000000, 0.0000000000000000000 ) ) ;
#609 = DIRECTION ( 'NONE',  ( -0.0000000000000000000, -0.0000000000000000000, -1.000000000000000000 ) ) ;
#610 = EDGE_CURVE ( 'NONE', #86, #306, #754, .T. ) ;
#611 = CARTESIAN_POINT ( 'NONE',  ( 33.24999999999999289, 33.99999999999999289, 40.00000000000000000 ) ) ;
#612 = DIRECTION ( 'NONE',  ( -1.000000000000000000, 0.0000000000000000000, 0.0000000000000000000 ) ) ;
#613 = AXIS2_PLACEMENT_3D ( 'NONE', #331, #737, #1114 ) ;
#614 = ADVANCED_FACE ( 'NONE', ( #1252 ), #1029, .F. ) ;
#615 = DIRECTION ( 'NONE',  ( -0.0000000000000000000, -0.0000000000000000000, -1.000000000000000000 ) ) ;
#616 = ORIENTED_EDGE ( 'NONE', *, *, #1167, .T. ) ;
#617 = DIRECTION ( 'NONE',  ( -1.000000000000000000, 0.0000000000000000000, 0.0000000000000000000 ) ) ;
#618 = LINE ( 'NONE', #1135, #374 ) ;
#619 = CARTESIAN_POINT ( 'NONE',  ( -17.10000000000000497, 67.00000000000000000, 40.00000000000000000 ) ) ;
#620 = EDGE_CURVE ( 'NONE', #84, #92, #199, .T. ) ;
#621 = VERTEX_POINT ( 'NONE', #786 ) ;
#622 = VECTOR ( 'NONE', #1055, 1000.000000000000000 ) ;
#623 = DIRECTION ( 'NONE',  ( -1.000000000000000000, 0.0000000000000000000, 0.0000000000000000000 ) ) ;
#624 = ORIENTED_EDGE ( 'NONE', *, *, #860, .F. ) ;
#625 = DIRECTION ( 'NONE',  ( -1.000000000000000000, 0.0000000000000000000, 0.0000000000000000000 ) ) ;
#626 = AXIS2_PLACEMENT_3D ( 'NONE', #986, #475, #1176 ) ;
#627 = DIRECTION ( 'NONE',  ( -0.0000000000000000000, -0.0000000000000000000, -1.000000000000000000 ) ) ;
#628 = ORIENTED_EDGE ( 'NONE', *, *, #51, .F. ) ;
#629 = ORIENTED_EDGE ( 'NONE', *, *, #366, .T. ) ;
#630 = ORIENTED_EDGE ( 'NONE', *, *, #226, .F. ) ;
#631 = ADVANCED_FACE ( 'NONE', ( #725 ), #425, .F. ) ;
#632 = CARTESIAN_POINT ( 'NONE',  ( 35.00000000000000000, 55.00000000000000711, 40.00000000000000000 ) ) ;
#633 = AXIS2_PLACEMENT_3D ( 'NONE', #982, #569, #188 ) ;
#634 = EDGE_LOOP ( 'NONE', ( #85, #350, #462, #492, #511, #909 ) ) ;
#635 = ADVANCED_BREP_SHAPE_REPRESENTATION ( '03_027_bracket centering bush', ( #269, #496 ), #641 ) ;
#636 = ORIENTED_EDGE ( 'NONE', *, *, #823, .F. ) ;
#637 = DIRECTION ( 'NONE',  ( 0.0000000000000000000, 0.0000000000000000000, -1.000000000000000000 ) ) ;
#638 = LINE ( 'NONE', #1132, #107 ) ;
#639 = ORIENTED_EDGE ( 'NONE', *, *, #1226, .T. ) ;
#640 = CARTESIAN_POINT ( 'NONE',  ( -1.649999999999988587, 85.00000000000000000, 40.00000000000000000 ) ) ;
#641 =( GEOMETRIC_REPRESENTATION_CONTEXT ( 3 ) GLOBAL_UNCERTAINTY_ASSIGNED_CONTEXT ( ( #140 ) ) GLOBAL_UNIT_ASSIGNED_CONTEXT ( ( #794, #183, #474 ) ) REPRESENTATION_CONTEXT ( 'NONE', 'WORKASPACE' ) );
#642 = ORIENTED_EDGE ( 'NONE', *, *, #307, .T. ) ;
#643 = CARTESIAN_POINT ( 'NONE',  ( 33.24999999999999289, 74.00000000000000000, 48.00000000000000000 ) ) ;
#644 = DIRECTION ( 'NONE',  ( -0.0000000000000000000, -0.0000000000000000000, -1.000000000000000000 ) ) ;
#645 = CARTESIAN_POINT ( 'NONE',  ( 41.74999999999998579, 74.00000000000000000, 48.00000000000000000 ) ) ;
#646 = ORIENTED_EDGE ( 'NONE', *, *, #41, .F. ) ;
#647 = LINE ( 'NONE', #337, #815 ) ;
#648 = VECTOR ( 'NONE', #916, 1000.000000000000000 ) ;
#649 = DIRECTION ( 'NONE',  ( -0.0000000000000000000, -0.0000000000000000000, -1.000000000000000000 ) ) ;
#650 = EDGE_LOOP ( 'NONE', ( #636, #171 ) ) ;
#651 = VECTOR ( 'NONE', #347, 1000.000000000000000 ) ;
#652 = DIRECTION ( 'NONE',  ( 0.0000000000000000000, 0.0000000000000000000, 1.000000000000000000 ) ) ;
#653 = CIRCLE ( 'NONE', #829, 1.649999999999988587 ) ;
#654 = DIRECTION ( 'NONE',  ( -1.000000000000000000, 0.0000000000000000000, 0.0000000000000000000 ) ) ;
#655 = AXIS2_PLACEMENT_3D ( 'NONE', #539, #159, #162 ) ;
#656 = ORIENTED_EDGE ( 'NONE', *, *, #104, .T. ) ;
#657 = DIRECTION ( 'NONE',  ( -1.000000000000000000, 0.0000000000000000000, 0.0000000000000000000 ) ) ;
#658 = CARTESIAN_POINT ( 'NONE',  ( 50.00000000000000000, 27.99999999999998934, 3.771428571428578458 ) ) ;
#659 = ORIENTED_EDGE ( 'NONE', *, *, #808, .T. ) ;
#660 = ORIENTED_EDGE ( 'NONE', *, *, #961, .T. ) ;
#661 = CARTESIAN_POINT ( 'NONE',  ( 1.649999999999989919, 85.00000000000000000, 40.00000000000000000 ) ) ;
#662 = FILL_AREA_STYLE_COLOUR ( '', #412 ) ;
#663 = VECTOR ( 'NONE', #131, 1000.000000000000000 ) ;
#664 = EDGE_LOOP ( 'NONE', ( #1105, #534, #411, #1027 ) ) ;
#665 = CIRCLE ( 'NONE', #204, 2.500000000000002220 ) ;
#666 = CARTESIAN_POINT ( 'NONE',  ( 17.10000000000000497, 67.00000000000000000, 48.00000000000000000 ) ) ;
#667 = DIRECTION ( 'NONE',  ( 1.000000000000000000, -1.387778780781445922E-16, -0.0000000000000000000 ) ) ;
#668 = EDGE_CURVE ( 'NONE', #709, #344, #830, .T. ) ;
#669 = DIRECTION ( 'NONE',  ( -0.0000000000000000000, -0.0000000000000000000, -1.000000000000000000 ) ) ;
#670 = AXIS2_PLACEMENT_3D ( 'NONE', #364, #369, #993 ) ;
#671 = ORIENTED_EDGE ( 'NONE', *, *, #561, .T. ) ;
#672 = SHAPE_DEFINITION_REPRESENTATION ( #760, #635 ) ;
#673 = ORIENTED_EDGE ( 'NONE', *, *, #328, .T. ) ;
#674 = DIRECTION ( 'NONE',  ( -0.0000000000000000000, 0.0000000000000000000, -1.000000000000000000 ) ) ;
#675 = FACE_BOUND ( 'NONE', #254, .T. ) ;
#676 = FACE_BOUND ( 'NONE', #1263, .T. ) ;
#677 = EDGE_LOOP ( 'NONE', ( #1070, #879, #576, #1207 ) ) ;
#678 = CIRCLE ( 'NONE', #70, 2.099999999999997868 ) ;
#679 = VERTEX_POINT ( 'NONE', #291 ) ;
#680 = LINE ( 'NONE', #619, #819 ) ;
#681 =( LENGTH_UNIT ( ) NAMED_UNIT ( * ) SI_UNIT ( .MILLI., .METRE. ) );
#682 = FILL_AREA_STYLE ('',( #888 ) ) ;
#683 = DIRECTION ( 'NONE',  ( 0.0000000000000000000, 0.0000000000000000000, -1.000000000000000000 ) ) ;
#684 = ORIENTED_EDGE ( 'NONE', *, *, #668, .T. ) ;
#685 = CARTESIAN_POINT ( 'NONE',  ( 60.00000000000000711, -20.00000000000002132, 0.0000000000000000000 ) ) ;
#686 = STYLED_ITEM ( 'NONE', ( #937 ), #635 ) ;
#687 = CARTESIAN_POINT ( 'NONE',  ( -60.00000000000000711, -20.00000000000000000, 48.00000000000000000 ) ) ;
#688 = EDGE_CURVE ( 'NONE', #838, #62, #485, .T. ) ;
#689 = CARTESIAN_POINT ( 'NONE',  ( -37.50000000000000711, 74.00000000000001421, 48.00000000000000000 ) ) ;
#690 = ORIENTED_EDGE ( 'NONE', *, *, #1229, .T. ) ;
#691 = CARTESIAN_POINT ( 'NONE',  ( 50.00000000000000000, 90.00000000000000000, 48.00000000000000000 ) ) ;
#692 = DIRECTION ( 'NONE',  ( 0.0000000000000000000, 0.0000000000000000000, -1.000000000000000000 ) ) ;
#693 = ORIENTED_EDGE ( 'NONE', *, *, #731, .T. ) ;
#694 = DIRECTION ( 'NONE',  ( 1.000000000000000000, 0.0000000000000000000, -0.0000000000000000000 ) ) ;
#695 = VECTOR ( 'NONE', #851, 1000.000000000000000 ) ;
#696 = CARTESIAN_POINT ( 'NONE',  ( -33.25000000000000711, 34.00000000000000711, 48.00000000000000000 ) ) ;
#697 = CYLINDRICAL_SURFACE ( 'NONE', #48, 4.249999999999996447 ) ;
#698 = AXIS2_PLACEMENT_3D ( 'NONE', #1089, #1092, #1099 ) ;
#699 = VECTOR ( 'NONE', #232, 1000.000000000000000 ) ;
#700 = VERTEX_POINT ( 'NONE', #116 ) ;
#701 = FACE_BOUND ( 'NONE', #849, .T. ) ;
#702 = CARTESIAN_POINT ( 'NONE',  ( 33.24999999999999289, 33.99999999999999289, 48.00000000000000000 ) ) ;
#703 = CARTESIAN_POINT ( 'NONE',  ( -50.00000000000000000, 90.00000000000000000, 33.00000000000000000 ) ) ;
#704 = EDGE_CURVE ( 'NONE', #451, #904, #170, .T. ) ;
#705 = VERTEX_POINT ( 'NONE', #595 ) ;
#706 = ORIENTED_EDGE ( 'NONE', *, *, #373, .F. ) ;
#707 = CARTESIAN_POINT ( 'NONE',  ( 0.0000000000000000000, 85.00000000000000000, 40.00000000000000000 ) ) ;
#708 = APPLICATION_CONTEXT ( 'automotive_design' ) ;
#709 = VERTEX_POINT ( 'NONE', #6 ) ;
#710 = CIRCLE ( 'NONE', #942, 1.649999999999989919 ) ;
#711 = DIRECTION ( 'NONE',  ( -1.000000000000000000, 0.0000000000000000000, 0.0000000000000000000 ) ) ;
#712 = CARTESIAN_POINT ( 'NONE',  ( -12.90000000000000924, 67.00000000000000000, 40.00000000000000000 ) ) ;
#713 = ORIENTED_EDGE ( 'NONE', *, *, #762, .F. ) ;
#714 = VECTOR ( 'NONE', #644, 1000.000000000000000 ) ;
#715 = VERTEX_POINT ( 'NONE', #1030 ) ;
#716 = EDGE_CURVE ( 'NONE', #700, #469, #395, .T. ) ;
#717 = CARTESIAN_POINT ( 'NONE',  ( -12.90000000000000746, 67.00000000000000000, 40.00000000000000000 ) ) ;
#718 = ADVANCED_FACE ( 'NONE', ( #258 ), #1017, .F. ) ;
#719 = ORIENTED_EDGE ( 'NONE', *, *, #127, .T. ) ;
#720 = AXIS2_PLACEMENT_3D ( 'NONE', #1062, #560, #761 ) ;
#721 = CARTESIAN_POINT ( 'NONE',  ( -33.25000000000000711, 74.00000000000001421, 48.00000000000000000 ) ) ;
#722 = DIRECTION ( 'NONE',  ( 0.0000000000000000000, 0.0000000000000000000, 1.000000000000000000 ) ) ;
#723 = VECTOR ( 'NONE', #649, 1000.000000000000000 ) ;
#724 = ORIENTED_EDGE ( 'NONE', *, *, #50, .F. ) ;
#725 = FACE_OUTER_BOUND ( 'NONE', #802, .T. ) ;
#726 = DIRECTION ( 'NONE',  ( 0.0000000000000000000, 0.0000000000000000000, 1.000000000000000000 ) ) ;
#727 = LINE ( 'NONE', #788, #850 ) ;
#728 = AXIS2_PLACEMENT_3D ( 'NONE', #1185, #878, #872 ) ;
#729 = CARTESIAN_POINT ( 'NONE',  ( 60.00000000000000711, 90.00000000000000000, 33.00000000000000000 ) ) ;
#730 = ORIENTED_EDGE ( 'NONE', *, *, #840, .F. ) ;
#731 = EDGE_CURVE ( 'NONE', #372, #234, #142, .T. ) ;
#732 = CARTESIAN_POINT ( 'NONE',  ( 37.49999999999999289, 33.99999999999999289, 40.00000000000000000 ) ) ;
#733 = PRESENTATION_LAYER_ASSIGNMENT (  '', '', ( #400 ) ) ;
#734 = ORIENTED_EDGE ( 'NONE', *, *, #704, .T. ) ;
#735 = CARTESIAN_POINT ( 'NONE',  ( -37.50000000000000711, 34.00000000000000711, 40.00000000000000000 ) ) ;
#736 = CYLINDRICAL_SURFACE ( 'NONE', #109, 2.099999999999997868 ) ;
#737 = DIRECTION ( 'NONE',  ( -0.0000000000000000000, -0.0000000000000000000, -1.000000000000000000 ) ) ;
#738 = EDGE_LOOP ( 'NONE', ( #949, #616 ) ) ;
#739 = VERTEX_POINT ( 'NONE', #611 ) ;
#740 = EDGE_CURVE ( 'NONE', #62, #1221, #453, .T. ) ;
#741 = COLOUR_RGB ( '',0.7921568627450980005, 0.8196078431372548767, 0.9333333333333333481 ) ;
#742 = CYLINDRICAL_SURFACE ( 'NONE', #906, 13.00000000000000178 ) ;
#743 = DIRECTION ( 'NONE',  ( -0.0000000000000000000, -0.0000000000000000000, -1.000000000000000000 ) ) ;
#744 = CARTESIAN_POINT ( 'NONE',  ( -42.00000000000000000, 28.00000000000000000, 40.00000000000000000 ) ) ;
#745 = EDGE_LOOP ( 'NONE', ( #1153, #1171, #1040, #433 ) ) ;
#746 = UNCERTAINTY_MEASURE_WITH_UNIT (LENGTH_MEASURE( 1.000000000000000082E-05 ), #901, 'distance_accuracy_value', 'NONE');
#747 = DIRECTION ( 'NONE',  ( -0.0000000000000000000, -0.0000000000000000000, -1.000000000000000000 ) ) ;
#748 = ORIENTED_EDGE ( 'NONE', *, *, #360, .F. ) ;
#749 = VERTEX_POINT ( 'NONE', #227 ) ;
#750 = CARTESIAN_POINT ( 'NONE',  ( 41.74999999999998579, 74.00000000000000000, 48.00000000000000000 ) ) ;
#751 = ORIENTED_EDGE ( 'NONE', *, *, #1224, .T. ) ;
#752 = FACE_BOUND ( 'NONE', #594, .T. ) ;
#753 = EDGE_CURVE ( 'NONE', #293, #1145, #394, .T. ) ;
#754 = LINE ( 'NONE', #1011, #1097 ) ;
#755 = FILL_AREA_STYLE ('',( #662 ) ) ;
#756 = EDGE_LOOP ( 'NONE', ( #921, #996, #911, #1106 ) ) ;
#757 = ORIENTED_EDGE ( 'NONE', *, *, #41, .T. ) ;
#758 = CARTESIAN_POINT ( 'NONE',  ( -17.10000000000000497, 67.00000000000000000, 48.00000000000000000 ) ) ;
#759 = AXIS2_PLACEMENT_3D ( 'NONE', #221, #1026, #121 ) ;
#760 = PRODUCT_DEFINITION_SHAPE ( 'NONE', 'NONE',  #236 ) ;
#761 = DIRECTION ( 'NONE',  ( -1.000000000000000000, 0.0000000000000000000, 0.0000000000000000000 ) ) ;
#762 = EDGE_CURVE ( 'NONE', #512, #679, #582, .T. ) ;
#763 = CARTESIAN_POINT ( 'NONE',  ( 60.00000000000000711, 90.00000000000000000, 33.00000000000000000 ) ) ;
#764 = ORIENTED_EDGE ( 'NONE', *, *, #326, .F. ) ;
#765 = AXIS2_PLACEMENT_3D ( 'NONE', #571, #1087, #782 ) ;
#766 = LINE ( 'NONE', #79, #532 ) ;
#767 = VERTEX_POINT ( 'NONE', #409 ) ;
#768 = FACE_OUTER_BOUND ( 'NONE', #476, .T. ) ;
#769 = DIRECTION ( 'NONE',  ( -1.000000000000000000, 0.0000000000000000000, 0.0000000000000000000 ) ) ;
#770 = LINE ( 'NONE', #7, #95 ) ;
#771 = PLANE ( 'NONE',  #99 ) ;
#772 = CARTESIAN_POINT ( 'NONE',  ( 0.0000000000000000000, 0.0000000000000000000, 0.0000000000000000000 ) ) ;
#773 = CARTESIAN_POINT ( 'NONE',  ( -42.00000000000000000, 20.00000000000000000, 0.0000000000000000000 ) ) ;
#774 = EDGE_CURVE ( 'NONE', #451, #1049, #1173, .T. ) ;
#775 = DIRECTION ( 'NONE',  ( 1.000000000000000000, 0.0000000000000000000, 0.0000000000000000000 ) ) ;
#776 = VERTEX_POINT ( 'NONE', #1123 ) ;
#777 = EDGE_CURVE ( 'NONE', #1241, #512, #1142, .T. ) ;
#778 = EDGE_CURVE ( 'NONE', #992, #679, #919, .T. ) ;
#779 = DIRECTION ( 'NONE',  ( 0.0000000000000000000, 0.4264192316982556297, -0.9045256429962997835 ) ) ;
#780 = EDGE_LOOP ( 'NONE', ( #876, #1165, #390, #498 ) ) ;
#781 =( GEOMETRIC_REPRESENTATION_CONTEXT ( 3 ) GLOBAL_UNCERTAINTY_ASSIGNED_CONTEXT ( ( #1069 ) ) GLOBAL_UNIT_ASSIGNED_CONTEXT ( ( #1044, #152, #1238 ) ) REPRESENTATION_CONTEXT ( 'NONE', 'WORKASPACE' ) );
#782 = DIRECTION ( 'NONE',  ( -1.000000000000000000, 0.0000000000000000000, 0.0000000000000000000 ) ) ;
#783 = PRESENTATION_STYLE_ASSIGNMENT (( #178 ) ) ;
#784 = CARTESIAN_POINT ( 'NONE',  ( 60.00000000000000711, -20.00000000000002132, 0.0000000000000000000 ) ) ;
#785 = LINE ( 'NONE', #934, #281 ) ;
#786 = CARTESIAN_POINT ( 'NONE',  ( 60.00000000000000711, 19.99999999999997868, 0.0000000000000000000 ) ) ;
#787 = FACE_OUTER_BOUND ( 'NONE', #526, .T. ) ;
#788 = CARTESIAN_POINT ( 'NONE',  ( -41.75000000000000000, 34.00000000000000711, 48.00000000000000000 ) ) ;
#789 = ORIENTED_EDGE ( 'NONE', *, *, #1071, .F. ) ;
#790 = SURFACE_STYLE_FILL_AREA ( #930 ) ;
#791 = EDGE_LOOP ( 'NONE', ( #428, #555, #1075, #201 ) ) ;
#792 = DIRECTION ( 'NONE',  ( -0.0000000000000000000, -4.336808689942017736E-16, -1.000000000000000000 ) ) ;
#793 = CARTESIAN_POINT ( 'NONE',  ( -42.00000000000000000, 28.00000000000000000, 0.0000000000000000000 ) ) ;
#794 =( LENGTH_UNIT ( ) NAMED_UNIT ( * ) SI_UNIT ( .MILLI., .METRE. ) );
#795 = PRODUCT_RELATED_PRODUCT_CATEGORY ( 'part', '', ( #461 ) ) ;
#796 = EDGE_LOOP ( 'NONE', ( #246, #757 ) ) ;
#797 = CARTESIAN_POINT ( 'NONE',  ( -35.00000000000000000, 55.00000000000000711, 48.00000000000000000 ) ) ;
#798 = EDGE_LOOP ( 'NONE', ( #1124, #628, #15, #826 ) ) ;
#799 = DIRECTION ( 'NONE',  ( 0.0000000000000000000, 0.0000000000000000000, -1.000000000000000000 ) ) ;
#800 = FACE_OUTER_BOUND ( 'NONE', #223, .T. ) ;
#801 = AXIS2_PLACEMENT_3D ( 'NONE', #1109, #959, #1250 ) ;
#802 = EDGE_LOOP ( 'NONE', ( #724, #88, #639, #486 ) ) ;
#803 = LINE ( 'NONE', #1048, #502 ) ;
#804 = DIRECTION ( 'NONE',  ( -0.0000000000000000000, -0.0000000000000000000, -1.000000000000000000 ) ) ;
#805 = DIRECTION ( 'NONE',  ( -1.000000000000000000, 0.0000000000000000000, 0.0000000000000000000 ) ) ;
#806 = EDGE_CURVE ( 'NONE', #436, #705, #169, .T. ) ;
#807 = EDGE_CURVE ( 'NONE', #251, #1147, #1282, .T. ) ;
#808 = EDGE_CURVE ( 'NONE', #1149, #362, #785, .T. ) ;
#809 = DIRECTION ( 'NONE',  ( -0.0000000000000000000, -0.0000000000000000000, -1.000000000000000000 ) ) ;
#810 = ORIENTED_EDGE ( 'NONE', *, *, #287, .F. ) ;
#811 = ORIENTED_EDGE ( 'NONE', *, *, #1224, .F. ) ;
#812 = FILL_AREA_STYLE ('',( #1133 ) ) ;
#813 = LINE ( 'NONE', #691, #544 ) ;
#814 = ORIENTED_EDGE ( 'NONE', *, *, #373, .T. ) ;
#815 = VECTOR ( 'NONE', #692, 1000.000000000000000 ) ;
#816 = CIRCLE ( 'NONE', #1227, 1.649999999999989919 ) ;
#817 = CARTESIAN_POINT ( 'NONE',  ( 15.00000000000000711, 67.00000000000000000, 40.00000000000000000 ) ) ;
#818 = CIRCLE ( 'NONE', #89, 2.500000000000002220 ) ;
#819 = VECTOR ( 'NONE', #627, 1000.000000000000000 ) ;
#820 = ADVANCED_FACE ( 'NONE', ( #1191 ), #697, .F. ) ;
#821 = DIRECTION ( 'NONE',  ( 0.0000000000000000000, 1.000000000000000000, 0.0000000000000000000 ) ) ;
#822 = ORIENTED_EDGE ( 'NONE', *, *, #233, .F. ) ;
#823 = EDGE_CURVE ( 'NONE', #1066, #977, #816, .T. ) ;
#824 = DIRECTION ( 'NONE',  ( -0.0000000000000000000, 1.000000000000000000, -0.0000000000000000000 ) ) ;
#825 = ADVANCED_FACE ( 'NONE', ( #877 ), #952, .F. ) ;
#826 = ORIENTED_EDGE ( 'NONE', *, *, #896, .T. ) ;
#827 = VECTOR ( 'NONE', #1151, 1000.000000000000000 ) ;
#828 = EDGE_CURVE ( 'NONE', #340, #435, #940, .T. ) ;
#829 = AXIS2_PLACEMENT_3D ( 'NONE', #520, #135, #920 ) ;
#830 = LINE ( 'NONE', #999, #468 ) ;
#831 = ADVANCED_FACE ( 'NONE', ( #676, #60 ), #320, .F. ) ;
#832 = CARTESIAN_POINT ( 'NONE',  ( -50.00000000000000000, 20.00000000000000000, 0.0000000000000000000 ) ) ;
#833 = VERTEX_POINT ( 'NONE', #528 ) ;
#834 = FACE_BOUND ( 'NONE', #738, .T. ) ;
#835 =( GEOMETRIC_REPRESENTATION_CONTEXT ( 3 ) GLOBAL_UNCERTAINTY_ASSIGNED_CONTEXT ( ( #349 ) ) GLOBAL_UNIT_ASSIGNED_CONTEXT ( ( #465, #974, #477 ) ) REPRESENTATION_CONTEXT ( 'NONE', 'WORKASPACE' ) );
#836 = STYLED_ITEM ( 'NONE', ( #521 ), #230 ) ;
#837 = DIRECTION ( 'NONE',  ( -0.0000000000000000000, -0.0000000000000000000, -1.000000000000000000 ) ) ;
#838 = VERTEX_POINT ( 'NONE', #1139 ) ;
#839 =( LENGTH_UNIT ( ) NAMED_UNIT ( * ) SI_UNIT ( .MILLI., .METRE. ) );
#840 = EDGE_CURVE ( 'NONE', #167, #138, #1161, .T. ) ;
#841 = ORIENTED_EDGE ( 'NONE', *, *, #753, .F. ) ;
#842 = CARTESIAN_POINT ( 'NONE',  ( -50.00000000000000000, 27.99999999999998934, 3.771428571428578458 ) ) ;
#843 = LINE ( 'NONE', #963, #253 ) ;
#844 = CARTESIAN_POINT ( 'NONE',  ( 41.99999999999999289, 19.99999999999997868, 0.0000000000000000000 ) ) ;
#845 = VECTOR ( 'NONE', #726, 1000.000000000000000 ) ;
#846 = ORIENTED_EDGE ( 'NONE', *, *, #1167, .F. ) ;
#847 = EDGE_CURVE ( 'NONE', #469, #739, #900, .T. ) ;
#848 = EDGE_CURVE ( 'NONE', #136, #251, #353, .T. ) ;
#849 = EDGE_LOOP ( 'NONE', ( #338, #585 ) ) ;
#850 = VECTOR ( 'NONE', #885, 1000.000000000000000 ) ;
#851 = DIRECTION ( 'NONE',  ( -0.0000000000000000000, -0.0000000000000000000, -1.000000000000000000 ) ) ;
#852 = AXIS2_PLACEMENT_3D ( 'NONE', #924, #821, #722 ) ;
#853 = EDGE_LOOP ( 'NONE', ( #624, #68, #74, #554 ) ) ;
#854 = CARTESIAN_POINT ( 'NONE',  ( -33.25000000000000711, 34.00000000000000711, 48.00000000000000000 ) ) ;
#855 = ORIENTED_EDGE ( 'NONE', *, *, #233, .T. ) ;
#856 = ORIENTED_EDGE ( 'NONE', *, *, #207, .F. ) ;
#857 = PLANE ( 'NONE',  #866 ) ;
#858 = CARTESIAN_POINT ( 'NONE',  ( -49.99999999999997158, 90.00000000000001421, 40.00000000000000000 ) ) ;
#859 = ORIENTED_EDGE ( 'NONE', *, *, #343, .F. ) ;
#860 = EDGE_CURVE ( 'NONE', #700, #573, #296, .T. ) ;
#861 = CIRCLE ( 'NONE', #1059, 4.249999999999996447 ) ;
#862 = SURFACE_STYLE_FILL_AREA ( #1006 ) ;
#863 = CARTESIAN_POINT ( 'NONE',  ( 0.0000000000000000000, -20.00000000000000000, 20.00000000000000000 ) ) ;
#864 = EDGE_LOOP ( 'NONE', ( #187, #558 ) ) ;
#865 =( LENGTH_UNIT ( ) NAMED_UNIT ( * ) SI_UNIT ( .MILLI., .METRE. ) );
#866 = AXIS2_PLACEMENT_3D ( 'NONE', #543, #244, #652 ) ;
#867 = DIRECTION ( 'NONE',  ( 0.0000000000000000000, 0.0000000000000000000, -1.000000000000000000 ) ) ;
#868 = ORIENTED_EDGE ( 'NONE', *, *, #430, .T. ) ;
#869 = ORIENTED_EDGE ( 'NONE', *, *, #537, .T. ) ;
#870 = CARTESIAN_POINT ( 'NONE',  ( 41.74999999999998579, 74.00000000000000000, 40.00000000000000000 ) ) ;
#871 = EDGE_CURVE ( 'NONE', #1278, #84, #618, .T. ) ;
#872 = DIRECTION ( 'NONE',  ( -1.000000000000000000, 0.0000000000000000000, 0.0000000000000000000 ) ) ;
#873 = EDGE_LOOP ( 'NONE', ( #19, #323 ) ) ;
#874 = DIRECTION ( 'NONE',  ( -1.000000000000000000, 0.0000000000000000000, 0.0000000000000000000 ) ) ;
#875 = FACE_OUTER_BOUND ( 'NONE', #224, .T. ) ;
#876 = ORIENTED_EDGE ( 'NONE', *, *, #256, .F. ) ;
#877 = FACE_OUTER_BOUND ( 'NONE', #449, .T. ) ;
#878 = DIRECTION ( 'NONE',  ( 0.0000000000000000000, 0.0000000000000000000, -1.000000000000000000 ) ) ;
#879 = ORIENTED_EDGE ( 'NONE', *, *, #1267, .F. ) ;
#880 = CARTESIAN_POINT ( 'NONE',  ( 37.49999999999999289, 33.99999999999999289, 40.00000000000000000 ) ) ;
#881 = CYLINDRICAL_SURFACE ( 'NONE', #82, 8.000000000000000000 ) ;
#882 = EDGE_CURVE ( 'NONE', #235, #1066, #336, .T. ) ;
#883 = DIRECTION ( 'NONE',  ( -0.0000000000000000000, 0.0000000000000000000, 1.000000000000000000 ) ) ;
#884 = ORIENTED_EDGE ( 'NONE', *, *, #806, .T. ) ;
#885 = DIRECTION ( 'NONE',  ( -0.0000000000000000000, -0.0000000000000000000, -1.000000000000000000 ) ) ;
#886 = AXIS2_PLACEMENT_3D ( 'NONE', #22, #504, #625 ) ;
#887 = CARTESIAN_POINT ( 'NONE',  ( -60.00000000000000711, -20.00000000000000000, 48.00000000000000000 ) ) ;
#888 = FILL_AREA_STYLE_COLOUR ( '', #467 ) ;
#889 = STYLED_ITEM ( 'NONE', ( #1037 ), #1220 ) ;
#890 = CARTESIAN_POINT ( 'NONE',  ( 35.00000000000000000, 55.00000000000000711, 48.00000000000000000 ) ) ;
#891 = CARTESIAN_POINT ( 'NONE',  ( 0.0000000000000000000, -20.00000000000000000, 33.00000000000000000 ) ) ;
#892 = DIRECTION ( 'NONE',  ( 1.000000000000000000, 0.0000000000000000000, -0.0000000000000000000 ) ) ;
#893 = PRODUCT_DEFINITION_CONTEXT ( 'detailed design', #708, 'design' ) ;
#894 = DIRECTION ( 'NONE',  ( -0.0000000000000000000, -0.0000000000000000000, -1.000000000000000000 ) ) ;
#895 = ORIENTED_EDGE ( 'NONE', *, *, #319, .F. ) ;
#896 = EDGE_CURVE ( 'NONE', #967, #767, #122, .T. ) ;
#897 = PLANE ( 'NONE',  #454 ) ;
#898 = ORIENTED_EDGE ( 'NONE', *, *, #807, .F. ) ;
#899 = AXIS2_PLACEMENT_3D ( 'NONE', #1273, #883, #1268 ) ;
#900 = CIRCLE ( 'NONE', #248, 4.249999999999996447 ) ;
#901 =( LENGTH_UNIT ( ) NAMED_UNIT ( * ) SI_UNIT ( .MILLI., .METRE. ) );
#902 = VECTOR ( 'NONE', #97, 1000.000000000000000 ) ;
#903 = DIRECTION ( 'NONE',  ( -0.0000000000000000000, -0.0000000000000000000, -1.000000000000000000 ) ) ;
#904 = VERTEX_POINT ( 'NONE', #437 ) ;
#905 = CIRCLE ( 'NONE', #1033, 2.099999999999997868 ) ;
#906 = AXIS2_PLACEMENT_3D ( 'NONE', #1025, #933, #315 ) ;
#907 =( NAMED_UNIT ( * ) PLANE_ANGLE_UNIT ( ) SI_UNIT ( $, .RADIAN. ) );
#908 = DIRECTION ( 'NONE',  ( 0.0000000000000000000, 0.9045256429962996725, 0.4264192316982555742 ) ) ;
#909 = ORIENTED_EDGE ( 'NONE', *, *, #871, .T. ) ;
#910 = PRESENTATION_LAYER_ASSIGNMENT (  '', '', ( #277 ) ) ;
#911 = ORIENTED_EDGE ( 'NONE', *, *, #972, .T. ) ;
#912 = EDGE_CURVE ( 'NONE', #1149, #709, #638, .T. ) ;
#913 = DIRECTION ( 'NONE',  ( -1.000000000000000000, 0.0000000000000000000, 0.0000000000000000000 ) ) ;
#914 = EDGE_LOOP ( 'NONE', ( #646, #656, #693, #1103 ) ) ;
#915 =( NAMED_UNIT ( * ) PLANE_ANGLE_UNIT ( ) SI_UNIT ( $, .RADIAN. ) );
#916 = DIRECTION ( 'NONE',  ( -0.0000000000000000000, 1.000000000000000000, -0.0000000000000000000 ) ) ;
#917 = EDGE_LOOP ( 'NONE', ( #180, #856, #119, #855 ) ) ;
#918 = MECHANICAL_DESIGN_GEOMETRIC_PRESENTATION_REPRESENTATION (  '', ( #457 ), #987 ) ;
#919 = LINE ( 'NONE', #1101, #648 ) ;
#920 = DIRECTION ( 'NONE',  ( 1.000000000000000000, 0.0000000000000000000, 0.0000000000000000000 ) ) ;
#921 = ORIENTED_EDGE ( 'NONE', *, *, #186, .F. ) ;
#922 = FACE_OUTER_BOUND ( 'NONE', #798, .T. ) ;
#923 = EDGE_CURVE ( 'NONE', #234, #372, #1079, .T. ) ;
#924 = CARTESIAN_POINT ( 'NONE',  ( 0.0000000000000000000, 20.00000000000000000, 20.00000000000000000 ) ) ;
#925 = EDGE_CURVE ( 'NONE', #749, #84, #1002, .T. ) ;
#926 =( NAMED_UNIT ( * ) SI_UNIT ( $, .STERADIAN. ) SOLID_ANGLE_UNIT ( ) );
#927 = EDGE_CURVE ( 'NONE', #776, #284, #1127, .T. ) ;
#928 = DIRECTION ( 'NONE',  ( -0.0000000000000000000, -0.0000000000000000000, -1.000000000000000000 ) ) ;
#929 = ORIENTED_EDGE ( 'NONE', *, *, #376, .F. ) ;
#930 = FILL_AREA_STYLE ('',( #222 ) ) ;
#931 = ORIENTED_EDGE ( 'NONE', *, *, #1021, .F. ) ;
#932 =( GEOMETRIC_REPRESENTATION_CONTEXT ( 3 ) GLOBAL_UNCERTAINTY_ASSIGNED_CONTEXT ( ( #542 ) ) GLOBAL_UNIT_ASSIGNED_CONTEXT ( ( #242, #915, #926 ) ) REPRESENTATION_CONTEXT ( 'NONE', 'WORKASPACE' ) );
#933 = DIRECTION ( 'NONE',  ( -0.0000000000000000000, 1.000000000000000000, -0.0000000000000000000 ) ) ;
#934 = CARTESIAN_POINT ( 'NONE',  ( 50.00000000000000000, 28.00000000000000000, 0.0000000000000000000 ) ) ;
#935 = VERTEX_POINT ( 'NONE', #842 ) ;
#936 = EDGE_LOOP ( 'NONE', ( #748, #245 ) ) ;
#937 = PRESENTATION_STYLE_ASSIGNMENT (( #1072 ) ) ;
#938 = ADVANCED_FACE ( 'NONE', ( #1050 ), #424, .F. ) ;
#939 = DIRECTION ( 'NONE',  ( 0.0000000000000000000, 0.0000000000000000000, -1.000000000000000000 ) ) ;
#940 = LINE ( 'NONE', #645, #141 ) ;
#941 = VECTOR ( 'NONE', #205, 1000.000000000000000 ) ;
#942 = AXIS2_PLACEMENT_3D ( 'NONE', #587, #1181, #991 ) ;
#943 = AXIS2_PLACEMENT_3D ( 'NONE', #1281, #1001, #491 ) ;
#944 = ORIENTED_EDGE ( 'NONE', *, *, #740, .F. ) ;
#945 = DIRECTION ( 'NONE',  ( 0.0000000000000000000, -0.4264192316982556297, 0.9045256429962997835 ) ) ;
#946 = DIRECTION ( 'NONE',  ( -1.000000000000000000, 0.0000000000000000000, 0.0000000000000000000 ) ) ;
#947 = STYLED_ITEM ( 'NONE', ( #182 ), #514 ) ;
#948 = DIRECTION ( 'NONE',  ( -1.000000000000000000, 0.0000000000000000000, 0.0000000000000000000 ) ) ;
#949 = ORIENTED_EDGE ( 'NONE', *, *, #207, .T. ) ;
#950 = VECTOR ( 'NONE', #792, 1000.000000000000000 ) ;
#951 = VECTOR ( 'NONE', #928, 1000.000000000000000 ) ;
#952 = PLANE ( 'NONE',  #572 ) ;
#953 = VERTEX_POINT ( 'NONE', #758 ) ;
#954 = LINE ( 'NONE', #712, #714 ) ;
#955 = DIRECTION ( 'NONE',  ( 0.0000000000000000000, -0.0000000000000000000, 1.000000000000000000 ) ) ;
#956 = ADVANCED_FACE ( 'NONE', ( #1251 ), #559, .F. ) ;
#957 = DIRECTION ( 'NONE',  ( 0.0000000000000000000, 0.0000000000000000000, -1.000000000000000000 ) ) ;
#958 = ORIENTED_EDGE ( 'NONE', *, *, #688, .F. ) ;
#959 = DIRECTION ( 'NONE',  ( -0.0000000000000000000, -0.0000000000000000000, -1.000000000000000000 ) ) ;
#960 = VERTEX_POINT ( 'NONE', #763 ) ;
#961 = EDGE_CURVE ( 'NONE', #1049, #363, #861, .T. ) ;
#962 = VERTEX_POINT ( 'NONE', #666 ) ;
#963 = CARTESIAN_POINT ( 'NONE',  ( 60.00000000000000711, 19.99999999999997868, 0.0000000000000000000 ) ) ;
#964 = CIRCLE ( 'NONE', #478, 2.099999999999997868 ) ;
#965 = DIRECTION ( 'NONE',  ( -1.000000000000000000, 0.0000000000000000000, 0.0000000000000000000 ) ) ;
#966 = CIRCLE ( 'NONE', #389, 2.099999999999997868 ) ;
#967 = VERTEX_POINT ( 'NONE', #968 ) ;
#968 = CARTESIAN_POINT ( 'NONE',  ( -41.75000000000000000, 34.00000000000000711, 40.00000000000000000 ) ) ;
#969 = PRESENTATION_LAYER_ASSIGNMENT (  '', '', ( #947 ) ) ;
#970 = DIRECTION ( 'NONE',  ( -0.0000000000000000000, -0.0000000000000000000, -1.000000000000000000 ) ) ;
#971 = CARTESIAN_POINT ( 'NONE',  ( 60.00000000000000711, 90.00000000000000000, 33.00000000000000000 ) ) ;
#972 = EDGE_CURVE ( 'NONE', #679, #512, #321, .T. ) ;
#973 = CARTESIAN_POINT ( 'NONE',  ( 37.49999999999999289, 74.00000000000000000, 48.00000000000000000 ) ) ;
#974 =( NAMED_UNIT ( * ) PLANE_ANGLE_UNIT ( ) SI_UNIT ( $, .RADIAN. ) );
#975 = PRODUCT_DEFINITION_FORMATION_WITH_SPECIFIED_SOURCE ( 'ANY', '', #461, .NOT_KNOWN. ) ;
#976 = CARTESIAN_POINT ( 'NONE',  ( -46.68629150101524061, 20.00000000000000000, 3.903127820947815962E-15 ) ) ;
#977 = VERTEX_POINT ( 'NONE', #661 ) ;
#978 = CARTESIAN_POINT ( 'NONE',  ( -37.50000000000000711, 74.00000000000001421, 40.00000000000000000 ) ) ;
#979 = FACE_OUTER_BOUND ( 'NONE', #917, .T. ) ;
#980 = DIRECTION ( 'NONE',  ( -0.0000000000000000000, -0.0000000000000000000, -1.000000000000000000 ) ) ;
#981 = CIRCLE ( 'NONE', #422, 4.249999999999996447 ) ;
#982 = CARTESIAN_POINT ( 'NONE',  ( 37.49999999999999289, 33.99999999999999289, 48.00000000000000000 ) ) ;
#983 = ORIENTED_EDGE ( 'NONE', *, *, #774, .T. ) ;
#984 = CYLINDRICAL_SURFACE ( 'NONE', #179, 2.099999999999997868 ) ;
#985 = CIRCLE ( 'NONE', #23, 4.249999999999996447 ) ;
#986 = CARTESIAN_POINT ( 'NONE',  ( -50.00000000000000000, 0.0000000000000000000, 0.0000000000000000000 ) ) ;
#987 =( GEOMETRIC_REPRESENTATION_CONTEXT ( 3 ) GLOBAL_UNCERTAINTY_ASSIGNED_CONTEXT ( ( #1154 ) ) GLOBAL_UNIT_ASSIGNED_CONTEXT ( ( #865, #1247, #1054 ) ) REPRESENTATION_CONTEXT ( 'NONE', 'WORKASPACE' ) );
#988 = DIRECTION ( 'NONE',  ( -0.0000000000000000000, -0.0000000000000000000, -1.000000000000000000 ) ) ;
#989 = ORIENTED_EDGE ( 'NONE', *, *, #1090, .T. ) ;
#990 =( NAMED_UNIT ( * ) PLANE_ANGLE_UNIT ( ) SI_UNIT ( $, .RADIAN. ) );
#991 = DIRECTION ( 'NONE',  ( -1.000000000000000000, 0.0000000000000000000, 0.0000000000000000000 ) ) ;
#992 = VERTEX_POINT ( 'NONE', #172 ) ;
#993 = DIRECTION ( 'NONE',  ( -1.000000000000000000, 0.0000000000000000000, 0.0000000000000000000 ) ) ;
#994 = EDGE_CURVE ( 'NONE', #132, #767, #198, .T. ) ;
#995 = PRESENTATION_LAYER_ASSIGNMENT (  '', '', ( #836 ) ) ;
#996 = ORIENTED_EDGE ( 'NONE', *, *, #778, .T. ) ;
#997 = DIRECTION ( 'NONE',  ( 1.000000000000000000, 0.0000000000000000000, 0.0000000000000000000 ) ) ;
#998 = ORIENTED_EDGE ( 'NONE', *, *, #1267, .T. ) ;
#999 = CARTESIAN_POINT ( 'NONE',  ( 50.00000000000000000, 90.00000000000000000, 48.00000000000000000 ) ) ;
#1000 = CYLINDRICAL_SURFACE ( 'NONE', #565, 8.000000000000000000 ) ;
#1001 = DIRECTION ( 'NONE',  ( 1.387778780781445922E-16, 1.000000000000000000, 0.0000000000000000000 ) ) ;
#1002 = LINE ( 'NONE', #832, #1095 ) ;
#1003 =( NAMED_UNIT ( * ) PLANE_ANGLE_UNIT ( ) SI_UNIT ( $, .RADIAN. ) );
#1004 = FACE_OUTER_BOUND ( 'NONE', #634, .T. ) ;
#1005 = LINE ( 'NONE', #393, #459 ) ;
#1006 = FILL_AREA_STYLE ('',( #279 ) ) ;
#1007 = DIRECTION ( 'NONE',  ( -1.000000000000000000, 0.0000000000000000000, 0.0000000000000000000 ) ) ;
#1008 = EDGE_CURVE ( 'NONE', #1088, #621, #1113, .T. ) ;
#1009 = SURFACE_SIDE_STYLE ('',( #862 ) ) ;
#1010 = DIRECTION ( 'NONE',  ( 0.0000000000000000000, 0.0000000000000000000, -1.000000000000000000 ) ) ;
#1011 = CARTESIAN_POINT ( 'NONE',  ( -50.00000000000000000, 90.00000000000000000, 48.00000000000000000 ) ) ;
#1012 = CARTESIAN_POINT ( 'NONE',  ( -35.00000000000000000, 55.00000000000000711, 48.00000000000000000 ) ) ;
#1013 = AXIS2_PLACEMENT_3D ( 'NONE', #483, #1196, #608 ) ;
#1014 = CIRCLE ( 'NONE', #547, 1.649999999999988587 ) ;
#1015 = ORIENTED_EDGE ( 'NONE', *, *, #1022, .F. ) ;
#1016 = DIRECTION ( 'NONE',  ( -0.0000000000000000000, -0.0000000000000000000, 1.000000000000000000 ) ) ;
#1017 = CYLINDRICAL_SURFACE ( 'NONE', #1260, 4.249999999999996447 ) ;
#1018 = DIRECTION ( 'NONE',  ( -0.0000000000000000000, -0.0000000000000000000, -1.000000000000000000 ) ) ;
#1019 = EDGE_LOOP ( 'NONE', ( #335, #600 ) ) ;
#1020 = CIRCLE ( 'NONE', #346, 13.00000000000000178 ) ;
#1021 = EDGE_CURVE ( 'NONE', #621, #960, #602, .T. ) ;
#1022 = EDGE_CURVE ( 'NONE', #705, #436, #966, .T. ) ;
#1023 = CARTESIAN_POINT ( 'NONE',  ( -15.00000000000000711, 67.00000000000000000, 40.00000000000000000 ) ) ;
#1024 = ORIENTED_EDGE ( 'NONE', *, *, #307, .F. ) ;
#1025 = CARTESIAN_POINT ( 'NONE',  ( 0.0000000000000000000, -20.00000000000000000, 20.00000000000000000 ) ) ;
#1026 = DIRECTION ( 'NONE',  ( 0.0000000000000000000, 0.0000000000000000000, -1.000000000000000000 ) ) ;
#1027 = ORIENTED_EDGE ( 'NONE', *, *, #377, .F. ) ;
#1028 = SURFACE_STYLE_FILL_AREA ( #682 ) ;
#1029 = CYLINDRICAL_SURFACE ( 'NONE', #438, 4.249999999999996447 ) ;
#1030 = CARTESIAN_POINT ( 'NONE',  ( -12.90000000000000924, 67.00000000000000000, 48.00000000000000000 ) ) ;
#1031 = ADVANCED_FACE ( 'NONE', ( #548 ), #736, .F. ) ;
#1032 = EDGE_CURVE ( 'NONE', #833, #436, #195, .T. ) ;
#1033 = AXIS2_PLACEMENT_3D ( 'NONE', #506, #1210, #333 ) ;
#1034 = ORIENTED_EDGE ( 'NONE', *, *, #1183, .T. ) ;
#1035 = DIRECTION ( 'NONE',  ( 0.0000000000000000000, 0.0000000000000000000, -1.000000000000000000 ) ) ;
#1036 = DIRECTION ( 'NONE',  ( 0.0000000000000000000, 0.0000000000000000000, -1.000000000000000000 ) ) ;
#1037 = PRESENTATION_STYLE_ASSIGNMENT (( #21 ) ) ;
#1038 = DIRECTION ( 'NONE',  ( 0.0000000000000000000, 0.0000000000000000000, -1.000000000000000000 ) ) ;
#1039 = VECTOR ( 'NONE', #988, 1000.000000000000000 ) ;
#1040 = ORIENTED_EDGE ( 'NONE', *, *, #1160, .T. ) ;
#1041 = CIRCLE ( 'NONE', #655, 4.249999999999996447 ) ;
#1042 = ADVANCED_FACE ( 'NONE', ( #800 ), #1000, .F. ) ;
#1043 = ORIENTED_EDGE ( 'NONE', *, *, #925, .T. ) ;
#1044 =( LENGTH_UNIT ( ) NAMED_UNIT ( * ) SI_UNIT ( .MILLI., .METRE. ) );
#1045 = CARTESIAN_POINT ( 'NONE',  ( 0.0000000000000000000, 20.00000000000000000, 20.00000000000000000 ) ) ;
#1046 = ORIENTED_EDGE ( 'NONE', *, *, #35, .T. ) ;
#1047 = CIRCLE ( 'NONE', #197, 8.000000000000000000 ) ;
#1048 = CARTESIAN_POINT ( 'NONE',  ( -50.00000000000000000, 20.00000000000000000, 40.00000000000000000 ) ) ;
#1049 = VERTEX_POINT ( 'NONE', #455 ) ;
#1050 = FACE_OUTER_BOUND ( 'NONE', #365, .T. ) ;
#1051 = AXIS2_PLACEMENT_3D ( 'NONE', #707, #413, #612 ) ;
#1052 = FACE_OUTER_BOUND ( 'NONE', #414, .T. ) ;
#1053 = COLOUR_RGB ( '',0.7921568627450980005, 0.8196078431372548767, 0.9333333333333333481 ) ;
#1054 =( NAMED_UNIT ( * ) SI_UNIT ( $, .STERADIAN. ) SOLID_ANGLE_UNIT ( ) );
#1055 = DIRECTION ( 'NONE',  ( 0.0000000000000000000, 1.000000000000000000, 0.0000000000000000000 ) ) ;
#1056 = ORIENTED_EDGE ( 'NONE', *, *, #1080, .T. ) ;
#1057 = DIRECTION ( 'NONE',  ( 0.0000000000000000000, 0.0000000000000000000, 1.000000000000000000 ) ) ;
#1058 = EDGE_LOOP ( 'NONE', ( #1112, #706, #28, #250 ) ) ;
#1059 = AXIS2_PLACEMENT_3D ( 'NONE', #61, #957, #654 ) ;
#1060 = DIRECTION ( 'NONE',  ( 1.000000000000000000, 0.0000000000000000000, -0.0000000000000000000 ) ) ;
#1061 = FILL_AREA_STYLE ('',( #1162 ) ) ;
#1062 = CARTESIAN_POINT ( 'NONE',  ( -15.00000000000000711, 67.00000000000000000, 40.00000000000000000 ) ) ;
#1063 = CYLINDRICAL_SURFACE ( 'NONE', #633, 4.249999999999996447 ) ;
#1064 = ORIENTED_EDGE ( 'NONE', *, *, #912, .T. ) ;
#1065 = STYLED_ITEM ( 'NONE', ( #356 ), #269 ) ;
#1066 = VERTEX_POINT ( 'NONE', #252 ) ;
#1067 = CARTESIAN_POINT ( 'NONE',  ( 41.99999999999999289, 20.00000000000000000, 40.00000000000000000 ) ) ;
#1068 = DIRECTION ( 'NONE',  ( 1.000000000000000000, 0.0000000000000000000, 0.0000000000000000000 ) ) ;
#1069 = UNCERTAINTY_MEASURE_WITH_UNIT (LENGTH_MEASURE( 1.000000000000000082E-05 ), #1044, 'distance_accuracy_value', 'NONE');
#1070 = ORIENTED_EDGE ( 'NONE', *, *, #716, .F. ) ;
#1071 = EDGE_CURVE ( 'NONE', #155, #935, #647, .T. ) ;
#1072 = SURFACE_STYLE_USAGE ( .BOTH. , #275 ) ;
#1073 = DIRECTION ( 'NONE',  ( 0.0000000000000000000, 0.9045256429962997835, 0.4264192316982555186 ) ) ;
#1074 = PLANE ( 'NONE',  #899 ) ;
#1075 = ORIENTED_EDGE ( 'NONE', *, *, #740, .T. ) ;
#1076 = ORIENTED_EDGE ( 'NONE', *, *, #806, .F. ) ;
#1077 =( NAMED_UNIT ( * ) SI_UNIT ( $, .STERADIAN. ) SOLID_ANGLE_UNIT ( ) );
#1078 = FACE_BOUND ( 'NONE', #1120, .T. ) ;
#1079 = CIRCLE ( 'NONE', #314, 2.500000000000002220 ) ;
#1080 = EDGE_CURVE ( 'NONE', #621, #749, #843, .T. ) ;
#1081 = CARTESIAN_POINT ( 'NONE',  ( -60.00000000000000711, 90.00000000000000000, 33.00000000000000000 ) ) ;
#1082 = LINE ( 'NONE', #487, #472 ) ;
#1083 = DIRECTION ( 'NONE',  ( 0.0000000000000000000, 0.9045256429962997835, 0.4264192316982555186 ) ) ;
#1084 = ORIENTED_EDGE ( 'NONE', *, *, #912, .F. ) ;
#1085 = DIRECTION ( 'NONE',  ( 0.0000000000000000000, -0.0000000000000000000, 1.000000000000000000 ) ) ;
#1086 = PRESENTATION_LAYER_ASSIGNMENT (  '', '', ( #686 ) ) ;
#1087 = DIRECTION ( 'NONE',  ( 0.0000000000000000000, 0.0000000000000000000, -1.000000000000000000 ) ) ;
#1088 = VERTEX_POINT ( 'NONE', #685 ) ;
#1089 = CARTESIAN_POINT ( 'NONE',  ( -37.50000000000000711, 34.00000000000000711, 40.00000000000000000 ) ) ;
#1090 = EDGE_CURVE ( 'NONE', #62, #1088, #151, .T. ) ;
#1091 = PLANE ( 'NONE',  #943 ) ;
#1092 = DIRECTION ( 'NONE',  ( 0.0000000000000000000, 0.0000000000000000000, -1.000000000000000000 ) ) ;
#1093 = CIRCLE ( 'NONE', #728, 4.249999999999996447 ) ;
#1094 = DIRECTION ( 'NONE',  ( -1.000000000000000000, 0.0000000000000000000, 0.0000000000000000000 ) ) ;
#1095 = VECTOR ( 'NONE', #56, 1000.000000000000000 ) ;
#1096 = EDGE_CURVE ( 'NONE', #739, #469, #239, .T. ) ;
#1097 = VECTOR ( 'NONE', #1182, 1000.000000000000000 ) ;
#1098 = ORIENTED_EDGE ( 'NONE', *, *, #16, .F. ) ;
#1099 = DIRECTION ( 'NONE',  ( -1.000000000000000000, 0.0000000000000000000, 0.0000000000000000000 ) ) ;
#1100 = DIRECTION ( 'NONE',  ( 0.0000000000000000000, 0.0000000000000000000, -1.000000000000000000 ) ) ;
#1101 = CARTESIAN_POINT ( 'NONE',  ( 1.592040838891559293E-15, -20.00000000000000000, 6.999999999999999112 ) ) ;
#1102 = ORIENTED_EDGE ( 'NONE', *, *, #668, .F. ) ;
#1103 = ORIENTED_EDGE ( 'NONE', *, *, #80, .F. ) ;
#1104 = SURFACE_STYLE_USAGE ( .BOTH. , #26 ) ;
#1105 = ORIENTED_EDGE ( 'NONE', *, *, #580, .F. ) ;
#1106 = ORIENTED_EDGE ( 'NONE', *, *, #777, .F. ) ;
#1107 = AXIS2_PLACEMENT_3D ( 'NONE', #103, #382, #93 ) ;
#1108 = CARTESIAN_POINT ( 'NONE',  ( 15.00000000000000711, 67.00000000000000000, 40.00000000000000000 ) ) ;
#1109 = CARTESIAN_POINT ( 'NONE',  ( -37.50000000000000711, 34.00000000000000711, 48.00000000000000000 ) ) ;
#1110 = ORIENTED_EDGE ( 'NONE', *, *, #1269, .T. ) ;
#1111 = DIRECTION ( 'NONE',  ( -0.0000000000000000000, -0.0000000000000000000, -1.000000000000000000 ) ) ;
#1112 = ORIENTED_EDGE ( 'NONE', *, *, #778, .F. ) ;
#1113 = LINE ( 'NONE', #164, #72 ) ;
#1114 = DIRECTION ( 'NONE',  ( -1.000000000000000000, 0.0000000000000000000, 0.0000000000000000000 ) ) ;
#1115 = CLOSED_SHELL ( 'NONE', ( #220, #129, #327, #820, #631, #432, #243, #1031, #514, #527, #831, #445, #426, #1131, #146, #332, #33, #317, #825, #956, #1220, #1212, #55, #536, #230, #42, #1042, #1126, #718, #154, #309, #614, #540, #938 ) ) ;
#1116 = FACE_OUTER_BOUND ( 'NONE', #421, .T. ) ;
#1117 = ORIENTED_EDGE ( 'NONE', *, *, #377, .T. ) ;
#1118 = DIRECTION ( 'NONE',  ( -0.0000000000000000000, -0.0000000000000000000, -1.000000000000000000 ) ) ;
#1119 = ORIENTED_EDGE ( 'NONE', *, *, #484, .F. ) ;
#1120 = EDGE_LOOP ( 'NONE', ( #522, #1143 ) ) ;
#1121 = CARTESIAN_POINT ( 'NONE',  ( 0.0000000000000000000, -20.00000000000000000, 33.00000000000000000 ) ) ;
#1122 = AXIS2_PLACEMENT_3D ( 'NONE', #1155, #955, #1060 ) ;
#1123 = CARTESIAN_POINT ( 'NONE',  ( -37.50000000000000711, 55.00000000000000711, 48.00000000000000000 ) ) ;
#1124 = ORIENTED_EDGE ( 'NONE', *, *, #994, .F. ) ;
#1125 = AXIS2_PLACEMENT_3D ( 'NONE', #541, #747, #946 ) ;
#1126 = ADVANCED_FACE ( 'NONE', ( #875 ), #1280, .F. ) ;
#1127 = CIRCLE ( 'NONE', #219, 2.500000000000002220 ) ;
#1128 = LINE ( 'NONE', #76, #1233 ) ;
#1129 = ORIENTED_EDGE ( 'NONE', *, *, #54, .T. ) ;
#1130 = FACE_BOUND ( 'NONE', #864, .T. ) ;
#1131 = ADVANCED_FACE ( 'NONE', ( #1140, #1078, #578, #752, #423, #531, #225, #452, #675, #212 ), #87, .F. ) ;
#1132 = CARTESIAN_POINT ( 'NONE',  ( 50.00000000000000000, 90.00000000000000000, 33.00000000000000000 ) ) ;
#1133 = FILL_AREA_STYLE_COLOUR ( '', #741 ) ;
#1134 = EDGE_LOOP ( 'NONE', ( #630, #494, #673, #730 ) ) ;
#1135 = CARTESIAN_POINT ( 'NONE',  ( -60.00000000000000711, 19.99999999999997868, 0.0000000000000000000 ) ) ;
#1136 = EDGE_CURVE ( 'NONE', #1221, #238, #59, .T. ) ;
#1137 = DIRECTION ( 'NONE',  ( -1.000000000000000000, 0.0000000000000000000, 0.0000000000000000000 ) ) ;
#1138 = ORIENTED_EDGE ( 'NONE', *, *, #484, .T. ) ;
#1139 = CARTESIAN_POINT ( 'NONE',  ( 60.00000000000000711, 90.00000000000000000, 48.00000000000000000 ) ) ;
#1140 = FACE_BOUND ( 'NONE', #385, .T. ) ;
#1141 = CARTESIAN_POINT ( 'NONE',  ( 50.00000000000000000, 28.00000000000000000, 40.00000000000000000 ) ) ;
#1142 = LINE ( 'NONE', #1121, #153 ) ;
#1143 = ORIENTED_EDGE ( 'NONE', *, *, #731, .F. ) ;
#1144 = FACE_BOUND ( 'NONE', #796, .T. ) ;
#1145 = VERTEX_POINT ( 'NONE', #361 ) ;
#1146 = EDGE_CURVE ( 'NONE', #977, #1066, #710, .T. ) ;
#1147 = VERTEX_POINT ( 'NONE', #381 ) ;
#1148 = SURFACE_STYLE_USAGE ( .BOTH. , #563 ) ;
#1149 = VERTEX_POINT ( 'NONE', #592 ) ;
#1150 = CARTESIAN_POINT ( 'NONE',  ( 46.68629150101523351, 20.00000000000000000, 7.372574772901430151E-15 ) ) ;
#1151 = DIRECTION ( 'NONE',  ( -0.0000000000000000000, 0.9045256429962997835, 0.4264192316982555186 ) ) ;
#1152 = AXIS2_PLACEMENT_3D ( 'NONE', #69, #1254, #1057 ) ;
#1153 = ORIENTED_EDGE ( 'NONE', *, *, #1183, .F. ) ;
#1154 = UNCERTAINTY_MEASURE_WITH_UNIT (LENGTH_MEASURE( 1.000000000000000082E-05 ), #865, 'distance_accuracy_value', 'NONE');
#1155 = CARTESIAN_POINT ( 'NONE',  ( 0.0000000000000000000, 0.0000000000000000000, 48.00000000000000000 ) ) ;
#1156 = EDGE_LOOP ( 'NONE', ( #375, #278, #406, #841, #1203 ) ) ;
#1157 = CARTESIAN_POINT ( 'NONE',  ( -60.00000000000000711, 19.99999999999997868, 0.0000000000000000000 ) ) ;
#1158 = ORIENTED_EDGE ( 'NONE', *, *, #927, .F. ) ;
#1159 = CIRCLE ( 'NONE', #765, 4.249999999999996447 ) ;
#1160 = EDGE_CURVE ( 'NONE', #935, #86, #29, .T. ) ;
#1161 = LINE ( 'NONE', #643, #723 ) ;
#1162 = FILL_AREA_STYLE_COLOUR ( '', #562 ) ;
#1163 = AXIS2_PLACEMENT_3D ( 'NONE', #632, #1213, #503 ) ;
#1164 = CARTESIAN_POINT ( 'NONE',  ( 37.49999999999999289, 74.00000000000000000, 40.00000000000000000 ) ) ;
#1165 = ORIENTED_EDGE ( 'NONE', *, *, #1234, .T. ) ;
#1166 = DIRECTION ( 'NONE',  ( -1.000000000000000000, 0.0000000000000000000, 0.0000000000000000000 ) ) ;
#1167 = EDGE_CURVE ( 'NONE', #715, #953, #964, .T. ) ;
#1168 = ORIENTED_EDGE ( 'NONE', *, *, #37, .T. ) ;
#1169 = CARTESIAN_POINT ( 'NONE',  ( 32.50000000000000000, 55.00000000000000711, 48.00000000000000000 ) ) ;
#1170 = CARTESIAN_POINT ( 'NONE',  ( -60.00000000000000711, -20.00000000000002132, 0.0000000000000000000 ) ) ;
#1171 = ORIENTED_EDGE ( 'NONE', *, *, #1071, .T. ) ;
#1172 = DIRECTION ( 'NONE',  ( 0.0000000000000000000, 1.000000000000000000, 0.0000000000000000000 ) ) ;
#1173 = LINE ( 'NONE', #305, #951 ) ;
#1174 = CARTESIAN_POINT ( 'NONE',  ( 17.10000000000000497, 67.00000000000000000, 40.00000000000000000 ) ) ;
#1175 = ORIENTED_EDGE ( 'NONE', *, *, #37, .F. ) ;
#1176 = DIRECTION ( 'NONE',  ( 0.0000000000000000000, 0.0000000000000000000, 1.000000000000000000 ) ) ;
#1177 = LINE ( 'NONE', #416, #231 ) ;
#1178 = ORIENTED_EDGE ( 'NONE', *, *, #104, .F. ) ;
#1179 = DIRECTION ( 'NONE',  ( -0.0000000000000000000, -0.0000000000000000000, -1.000000000000000000 ) ) ;
#1180 = CARTESIAN_POINT ( 'NONE',  ( 41.99999999999999289, 28.00000000000000000, 40.00000000000000000 ) ) ;
#1181 = DIRECTION ( 'NONE',  ( -0.0000000000000000000, -0.0000000000000000000, -1.000000000000000000 ) ) ;
#1182 = DIRECTION ( 'NONE',  ( 0.0000000000000000000, 0.0000000000000000000, 1.000000000000000000 ) ) ;
#1183 = EDGE_CURVE ( 'NONE', #155, #306, #1232, .T. ) ;
#1184 = CARTESIAN_POINT ( 'NONE',  ( -60.00000000000000711, 90.00000000000000000, 33.00000000000000000 ) ) ;
#1185 = CARTESIAN_POINT ( 'NONE',  ( 37.49999999999999289, 33.99999999999999289, 48.00000000000000000 ) ) ;
#1186 = DIRECTION ( 'NONE',  ( 0.0000000000000000000, -4.336808689942017736E-16, -1.000000000000000000 ) ) ;
#1187 = DIRECTION ( 'NONE',  ( -0.0000000000000000000, -0.0000000000000000000, 1.000000000000000000 ) ) ;
#1188 = ORIENTED_EDGE ( 'NONE', *, *, #403, .F. ) ;
#1189 = FILL_AREA_STYLE ('',( #272 ) ) ;
#1190 = VECTOR ( 'NONE', #1068, 1000.000000000000000 ) ;
#1191 = FACE_OUTER_BOUND ( 'NONE', #545, .T. ) ;
#1192 =( NAMED_UNIT ( * ) SI_UNIT ( $, .STERADIAN. ) SOLID_ANGLE_UNIT ( ) );
#1193 = DIRECTION ( 'NONE',  ( -1.000000000000000000, 0.0000000000000000000, 0.0000000000000000000 ) ) ;
#1194 = VERTEX_POINT ( 'NONE', #368 ) ;
#1195 = AXIS2_PLACEMENT_3D ( 'NONE', #880, #1271, #196 ) ;
#1196 = DIRECTION ( 'NONE',  ( -0.0000000000000000000, -0.0000000000000000000, -1.000000000000000000 ) ) ;
#1197 = CARTESIAN_POINT ( 'NONE',  ( 33.24999999999999289, 74.00000000000000000, 48.00000000000000000 ) ) ;
#1198 = ORIENTED_EDGE ( 'NONE', *, *, #163, .F. ) ;
#1199 = ORIENTED_EDGE ( 'NONE', *, *, #127, .F. ) ;
#1200 = DIRECTION ( 'NONE',  ( 0.0000000000000000000, 1.000000000000000000, 0.0000000000000000000 ) ) ;
#1201 = MECHANICAL_DESIGN_GEOMETRIC_PRESENTATION_REPRESENTATION (  '', ( #947 ), #289 ) ;
#1202 = DIRECTION ( 'NONE',  ( -1.000000000000000000, 0.0000000000000000000, 0.0000000000000000000 ) ) ;
#1203 = ORIENTED_EDGE ( 'NONE', *, *, #54, .F. ) ;
#1204 = SURFACE_STYLE_USAGE ( .BOTH. , #218 ) ;
#1205 = LINE ( 'NONE', #601, #280 ) ;
#1206 = EDGE_CURVE ( 'NONE', #238, #1088, #513, .T. ) ;
#1207 = ORIENTED_EDGE ( 'NONE', *, *, #1096, .T. ) ;
#1208 = SURFACE_STYLE_FILL_AREA ( #812 ) ;
#1209 = CARTESIAN_POINT ( 'NONE',  ( 50.00000000000000000, -20.00000000000000000, 48.00000000000000000 ) ) ;
#1210 = DIRECTION ( 'NONE',  ( -0.0000000000000000000, -0.0000000000000000000, -1.000000000000000000 ) ) ;
#1211 = CARTESIAN_POINT ( 'NONE',  ( -17.10000000000000497, 67.00000000000000000, 40.00000000000000000 ) ) ;
#1212 = ADVANCED_FACE ( 'NONE', ( #1249 ), #273, .T. ) ;
#1213 = DIRECTION ( 'NONE',  ( 0.0000000000000000000, 0.0000000000000000000, -1.000000000000000000 ) ) ;
#1214 =( NAMED_UNIT ( * ) SI_UNIT ( $, .STERADIAN. ) SOLID_ANGLE_UNIT ( ) );
#1215 = FILL_AREA_STYLE ('',( #575 ) ) ;
#1216 = EDGE_CURVE ( 'NONE', #344, #362, #1205, .T. ) ;
#1217 = CARTESIAN_POINT ( 'NONE',  ( -60.00000000000000711, 90.00000000000000000, 48.00000000000000000 ) ) ;
#1218 = ORIENTED_EDGE ( 'NONE', *, *, #994, .T. ) ;
#1219 = AXIS2_PLACEMENT_3D ( 'NONE', #1235, #1035, #427 ) ;
#1220 = ADVANCED_FACE ( 'NONE', ( #979 ), #209, .F. ) ;
#1221 = VERTEX_POINT ( 'NONE', #887 ) ;
#1222 = FACE_OUTER_BOUND ( 'NONE', #853, .T. ) ;
#1223 = VERTEX_POINT ( 'NONE', #1067 ) ;
#1224 = EDGE_CURVE ( 'NONE', #133, #235, #1014, .T. ) ;
#1225 = CARTESIAN_POINT ( 'NONE',  ( -35.00000000000000000, 55.00000000000000711, 40.00000000000000000 ) ) ;
#1226 = EDGE_CURVE ( 'NONE', #363, #1049, #371, .T. ) ;
#1227 = AXIS2_PLACEMENT_3D ( 'NONE', #533, #837, #948 ) ;
#1228 = DIRECTION ( 'NONE',  ( -1.000000000000000000, 0.0000000000000000000, 0.0000000000000000000 ) ) ;
#1229 = EDGE_CURVE ( 'NONE', #1145, #838, #813, .T. ) ;
#1230 = DIRECTION ( 'NONE',  ( 0.0000000000000000000, -1.000000000000000000, 0.0000000000000000000 ) ) ;
#1231 = ORIENTED_EDGE ( 'NONE', *, *, #620, .F. ) ;
#1232 = LINE ( 'NONE', #568, #120 ) ;
#1233 = VECTOR ( 'NONE', #91, 1000.000000000000000 ) ;
#1234 = EDGE_CURVE ( 'NONE', #962, #705, #27, .T. ) ;
#1235 = CARTESIAN_POINT ( 'NONE',  ( 37.49999999999999289, 33.99999999999999289, 48.00000000000000000 ) ) ;
#1236 = ORIENTED_EDGE ( 'NONE', *, *, #430, .F. ) ;
#1237 = FACE_BOUND ( 'NONE', #1019, .T. ) ;
#1238 =( NAMED_UNIT ( * ) SI_UNIT ( $, .STERADIAN. ) SOLID_ANGLE_UNIT ( ) );
#1239 = CIRCLE ( 'NONE', #593, 4.249999999999996447 ) ;
#1240 = DIRECTION ( 'NONE',  ( -0.0000000000000000000, 0.9045256429962997835, 0.4264192316982555186 ) ) ;
#1241 = VERTEX_POINT ( 'NONE', #891 ) ;
#1242 = ORIENTED_EDGE ( 'NONE', *, *, #186, .T. ) ;
#1243 = CARTESIAN_POINT ( 'NONE',  ( 12.90000000000000924, 67.00000000000000000, 40.00000000000000000 ) ) ;
#1244 =( BOUNDED_CURVE ( )  B_SPLINE_CURVE ( 3, ( #844, #1150, #57, #658 ),
 .UNSPECIFIED., .F., .T. ) 
 B_SPLINE_CURVE_WITH_KNOTS ( ( 4, 4 ),
 ( 0.0000000000000000000, 1.570796326794895448 ),
 .UNSPECIFIED. ) 
 CURVE ( )  GEOMETRIC_REPRESENTATION_ITEM ( )  RATIONAL_B_SPLINE_CURVE ( ( 1.000000000000000000, 0.8047378541243652705, 0.8047378541243652705, 1.000000000000000000 ) ) 
 REPRESENTATION_ITEM ( '' )  );
#1245 = SURFACE_STYLE_USAGE ( .BOTH. , #166 ) ;
#1246 = ORIENTED_EDGE ( 'NONE', *, *, #961, .F. ) ;
#1247 =( NAMED_UNIT ( * ) PLANE_ANGLE_UNIT ( ) SI_UNIT ( $, .RADIAN. ) );
#1248 = AXIS2_PLACEMENT_3D ( 'NONE', #1108, #523, #508 ) ;
#1249 = FACE_OUTER_BOUND ( 'NONE', #745, .T. ) ;
#1250 = DIRECTION ( 'NONE',  ( -1.000000000000000000, 0.0000000000000000000, 0.0000000000000000000 ) ) ;
#1251 = FACE_OUTER_BOUND ( 'NONE', #214, .T. ) ;
#1252 = FACE_OUTER_BOUND ( 'NONE', #318, .T. ) ;
#1253 = FACE_OUTER_BOUND ( 'NONE', #292, .T. ) ;
#1254 = DIRECTION ( 'NONE',  ( -1.000000000000000000, 0.0000000000000000000, 0.0000000000000000000 ) ) ;
#1255 = PRESENTATION_LAYER_ASSIGNMENT (  '', '', ( #889 ) ) ;
#1256 = DIRECTION ( 'NONE',  ( 0.0000000000000000000, 0.0000000000000000000, 1.000000000000000000 ) ) ;
#1257 = DIRECTION ( 'NONE',  ( 0.0000000000000000000, 0.0000000000000000000, 1.000000000000000000 ) ) ;
#1258 = ORIENTED_EDGE ( 'NONE', *, *, #9, .F. ) ;
#1259 = CARTESIAN_POINT ( 'NONE',  ( -50.00000000000000000, -20.00000000000000000, 0.0000000000000000000 ) ) ;
#1260 = AXIS2_PLACEMENT_3D ( 'NONE', #515, #217, #711 ) ;
#1261 = VECTOR ( 'NONE', #1016, 1000.000000000000000 ) ;
#1262 = CARTESIAN_POINT ( 'NONE',  ( -50.00000000000000000, 27.99999999999998934, 3.771428571428578458 ) ) ;
#1263 = EDGE_LOOP ( 'NONE', ( #713, #330 ) ) ;
#1264 = CIRCLE ( 'NONE', #264, 4.249999999999996447 ) ;
#1265 = FACE_OUTER_BOUND ( 'NONE', #46, .T. ) ;
#1266 = DIRECTION ( 'NONE',  ( -0.0000000000000000000, -0.0000000000000000000, -1.000000000000000000 ) ) ;
#1267 = EDGE_CURVE ( 'NONE', #573, #700, #1093, .T. ) ;
#1268 = DIRECTION ( 'NONE',  ( 1.000000000000000000, 0.0000000000000000000, 0.0000000000000000000 ) ) ;
#1269 = EDGE_CURVE ( 'NONE', #362, #1223, #1047, .T. ) ;
#1270 = EDGE_CURVE ( 'NONE', #132, #1194, #1159, .T. ) ;
#1271 = DIRECTION ( 'NONE',  ( 0.0000000000000000000, 0.0000000000000000000, -1.000000000000000000 ) ) ;
#1272 = EDGE_LOOP ( 'NONE', ( #1098, #144, #983, #660 ) ) ;
#1273 = CARTESIAN_POINT ( 'NONE',  ( 0.0000000000000000000, 0.0000000000000000000, 0.0000000000000000000 ) ) ;
#1274 = ORIENTED_EDGE ( 'NONE', *, *, #1216, .T. ) ;
#1275 = DIRECTION ( 'NONE',  ( -1.000000000000000000, 0.0000000000000000000, 0.0000000000000000000 ) ) ;
#1276 = APPLICATION_CONTEXT ( 'automotive_design' ) ;
#1277 = DIRECTION ( 'NONE',  ( 0.0000000000000000000, -0.0000000000000000000, 1.000000000000000000 ) ) ;
#1278 = VERTEX_POINT ( 'NONE', #584 ) ;
#1279 = CARTESIAN_POINT ( 'NONE',  ( -15.00000000000000711, 67.00000000000000000, 40.00000000000000000 ) ) ;
#1280 = CYLINDRICAL_SURFACE ( 'NONE', #67, 1.649999999999988587 ) ;
#1281 = CARTESIAN_POINT ( 'NONE',  ( 50.00000000000000000, 90.00000000000000000, 48.00000000000000000 ) ) ;
#1282 = CIRCLE ( 'NONE', #1163, 2.500000000000002220 ) ;
ENDSEC;
END-ISO-10303-21;
