ISO-10303-21;
HEADER;
FILE_DESCRIPTION (( 'STEP AP214' ),
    '1' );
FILE_NAME ('03_060_sheetmetal security cover.STEP',
    '2020-09-22T07:32:22',
    ( '' ),
    ( '' ),
    'SwSTEP 2.0',
    'SolidWorks 2018',
    '' );
FILE_SCHEMA (( 'AUTOMOTIVE_DESIGN' ));
ENDSEC;

DATA;
#1 = DIRECTION ( 'NONE',  ( -1.000000000000000000, -0.0000000000000000000, -0.0000000000000000000 ) ) ;
#2 = ADVANCED_FACE ( 'NONE', ( #788 ), #283, .F. ) ;
#3 = CARTESIAN_POINT ( 'NONE',  ( 0.0000000000000000000, 0.0000000000000000000, 0.0000000000000000000 ) ) ;
#4 = SURFACE_STYLE_FILL_AREA ( #358 ) ;
#5 = VECTOR ( 'NONE', #30, 1000.000000000000000 ) ;
#6 = AXIS2_PLACEMENT_3D ( 'NONE', #620, #301, #136 ) ;
#7 = FACE_OUTER_BOUND ( 'NONE', #904, .T. ) ;
#8 = ORIENTED_EDGE ( 'NONE', *, *, #1018, .F. ) ;
#9 = CARTESIAN_POINT ( 'NONE',  ( -694.7500000000000000, 0.0000000000000000000, 9.500000000000000000 ) ) ;
#10 = ORIENTED_EDGE ( 'NONE', *, *, #228, .F. ) ;
#11 = ORIENTED_EDGE ( 'NONE', *, *, #63, .F. ) ;
#12 = SURFACE_SIDE_STYLE ('',( #4 ) ) ;
#13 = CARTESIAN_POINT ( 'NONE',  ( -747.5000000000000000, 1.500000000000000000, 3.000000000000001776 ) ) ;
#14 = EDGE_CURVE ( 'NONE', #123, #469, #314, .T. ) ;
#15 = AXIS2_PLACEMENT_3D ( 'NONE', #952, #44, #135 ) ;
#16 = ADVANCED_FACE ( 'NONE', ( #566 ), #291, .T. ) ;
#17 = DIRECTION ( 'NONE',  ( 0.0000000000000000000, 0.0000000000000000000, 1.000000000000000000 ) ) ;
#18 = VECTOR ( 'NONE', #592, 1000.000000000000000 ) ;
#19 = DIRECTION ( 'NONE',  ( -0.0000000000000000000, -1.000000000000000000, 0.0000000000000000000 ) ) ;
#20 = VECTOR ( 'NONE', #548, 1000.000000000000000 ) ;
#21 = ADVANCED_FACE ( 'NONE', ( #259 ), #121, .F. ) ;
#22 = DIRECTION ( 'NONE',  ( -1.000000000000000000, 0.0000000000000000000, 3.180326372624146997E-16 ) ) ;
#23 = ORIENTED_EDGE ( 'NONE', *, *, #837, .F. ) ;
#24 = ORIENTED_EDGE ( 'NONE', *, *, #787, .F. ) ;
#25 = ORIENTED_EDGE ( 'NONE', *, *, #960, .F. ) ;
#26 = CARTESIAN_POINT ( 'NONE',  ( 2.749999999999997780, 0.0000000000000000000, 9.500000000000000000 ) ) ;
#27 = VERTEX_POINT ( 'NONE', #378 ) ;
#28 = AXIS2_PLACEMENT_3D ( 'NONE', #636, #488, #632 ) ;
#29 = VECTOR ( 'NONE', #250, 1000.000000000000000 ) ;
#30 = DIRECTION ( 'NONE',  ( -0.0000000000000000000, 1.000000000000000000, -0.0000000000000000000 ) ) ;
#31 = CARTESIAN_POINT ( 'NONE',  ( -742.5000000000000000, 1.500000000000000000, 35.00000000000000000 ) ) ;
#32 = LINE ( 'NONE', #575, #386 ) ;
#33 = VECTOR ( 'NONE', #598, 1000.000000000000000 ) ;
#34 = EDGE_CURVE ( 'NONE', #212, #1027, #941, .T. ) ;
#35 = ORIENTED_EDGE ( 'NONE', *, *, #449, .T. ) ;
#36 = ORIENTED_EDGE ( 'NONE', *, *, #104, .F. ) ;
#37 = ORIENTED_EDGE ( 'NONE', *, *, #160, .F. ) ;
#38 = DIRECTION ( 'NONE',  ( 0.0000000000000000000, 1.000000000000000000, 0.0000000000000000000 ) ) ;
#39 = DIRECTION ( 'NONE',  ( -1.000000000000000000, 0.0000000000000000000, -0.0000000000000000000 ) ) ;
#40 = DIRECTION ( 'NONE',  ( 0.0000000000000000000, 0.0000000000000000000, 1.000000000000000000 ) ) ;
#41 = AXIS2_PLACEMENT_3D ( 'NONE', #1006, #96, #653 ) ;
#42 = CIRCLE ( 'NONE', #1039, 3.000000000000000444 ) ;
#43 = CARTESIAN_POINT ( 'NONE',  ( 747.5000000000000000, 0.0000000000000000000, 1.500000000000000000 ) ) ;
#44 = DIRECTION ( 'NONE',  ( -0.0000000000000000000, 1.000000000000000000, -0.0000000000000000000 ) ) ;
#45 = FACE_OUTER_BOUND ( 'NONE', #317, .T. ) ;
#46 = EDGE_LOOP ( 'NONE', ( #509, #678, #722, #483 ) ) ;
#47 = VERTEX_POINT ( 'NONE', #606 ) ;
#48 = EDGE_CURVE ( 'NONE', #908, #159, #246, .T. ) ;
#49 = DIRECTION ( 'NONE',  ( 0.0000000000000000000, 1.000000000000000000, -5.782411586589356653E-16 ) ) ;
#50 = EDGE_LOOP ( 'NONE', ( #498, #267, #156, #765 ) ) ;
#51 = ORIENTED_EDGE ( 'NONE', *, *, #614, .T. ) ;
#52 = CARTESIAN_POINT ( 'NONE',  ( -694.7500000000000000, 0.0000000000000000000, 24.50000000000000000 ) ) ;
#53 = CARTESIAN_POINT ( 'NONE',  ( -697.5000000000000000, 0.0000000000000000000, 9.500000000000001776 ) ) ;
#54 = EDGE_CURVE ( 'NONE', #1025, #433, #421, .T. ) ;
#55 = CARTESIAN_POINT ( 'NONE',  ( -700.2500000000000000, 0.0000000000000000000, 9.500000000000003553 ) ) ;
#56 = CARTESIAN_POINT ( 'NONE',  ( 694.7500000000000000, 0.0000000000000000000, 9.500000000000003553 ) ) ;
#57 = FACE_OUTER_BOUND ( 'NONE', #249, .T. ) ;
#58 = FACE_OUTER_BOUND ( 'NONE', #205, .T. ) ;
#59 = LINE ( 'NONE', #438, #594 ) ;
#60 = DIRECTION ( 'NONE',  ( -3.180326372624146504E-16, -0.0000000000000000000, -1.000000000000000000 ) ) ;
#61 = CARTESIAN_POINT ( 'NONE',  ( -742.5000000000000000, 20.00000000000000000, 3.000000000000001776 ) ) ;
#62 = VERTEX_POINT ( 'NONE', #769 ) ;
#63 = EDGE_CURVE ( 'NONE', #62, #27, #842, .T. ) ;
#64 = ORIENTED_EDGE ( 'NONE', *, *, #828, .F. ) ;
#65 = MECHANICAL_DESIGN_GEOMETRIC_PRESENTATION_REPRESENTATION (  '', ( #313 ), #635 ) ;
#66 = PLANE ( 'NONE',  #266 ) ;
#67 = ORIENTED_EDGE ( 'NONE', *, *, #416, .F. ) ;
#68 = DIRECTION ( 'NONE',  ( 0.0000000000000000000, 0.0000000000000000000, 1.000000000000000000 ) ) ;
#69 = CARTESIAN_POINT ( 'NONE',  ( -747.5000000000000000, 3.000000000000000000, 0.0000000000000000000 ) ) ;
#70 = DIRECTION ( 'NONE',  ( 0.0000000000000000000, 0.0000000000000000000, 1.000000000000000000 ) ) ;
#71 = AXIS2_PLACEMENT_3D ( 'NONE', #525, #206, #860 ) ;
#72 = FACE_OUTER_BOUND ( 'NONE', #456, .T. ) ;
#73 = CARTESIAN_POINT ( 'NONE',  ( 1.959434878635764737E-15, 0.0000000000000000000, 24.50000000000000000 ) ) ;
#74 = LINE ( 'NONE', #698, #610 ) ;
#75 = FACE_OUTER_BOUND ( 'NONE', #870, .T. ) ;
#76 = ORIENTED_EDGE ( 'NONE', *, *, #115, .F. ) ;
#77 = CARTESIAN_POINT ( 'NONE',  ( -697.5000000000000000, 0.0000000000000000000, 24.50000000000000000 ) ) ;
#78 = ORIENTED_EDGE ( 'NONE', *, *, #247, .T. ) ;
#79 = DIRECTION ( 'NONE',  ( -0.0000000000000000000, 1.000000000000000000, 0.0000000000000000000 ) ) ;
#80 = ORIENTED_EDGE ( 'NONE', *, *, #537, .T. ) ;
#81 = CARTESIAN_POINT ( 'NONE',  ( 747.5000000000000000, 0.0000000000000000000, 40.00000000000000000 ) ) ;
#82 = EDGE_CURVE ( 'NONE', #1047, #174, #761, .T. ) ;
#83 = ORIENTED_EDGE ( 'NONE', *, *, #858, .T. ) ;
#84 = DIRECTION ( 'NONE',  ( -0.0000000000000000000, 1.000000000000000000, -0.0000000000000000000 ) ) ;
#85 = CARTESIAN_POINT ( 'NONE',  ( 747.5000000000000000, 0.0000000000000000000, 3.000000000000002665 ) ) ;
#86 = CARTESIAN_POINT ( 'NONE',  ( 1.959434878635764737E-15, 0.0000000000000000000, 24.50000000000000000 ) ) ;
#87 = DIRECTION ( 'NONE',  ( 0.0000000000000000000, 0.0000000000000000000, 1.000000000000000000 ) ) ;
#88 = CIRCLE ( 'NONE', #1020, 2.750000000000000888 ) ;
#89 = AXIS2_PLACEMENT_3D ( 'NONE', #825, #913, #261 ) ;
#90 = CYLINDRICAL_SURFACE ( 'NONE', #754, 5.000000000000004441 ) ;
#91 = DIRECTION ( 'NONE',  ( 0.0000000000000000000, 0.0000000000000000000, 1.000000000000000000 ) ) ;
#92 = DIRECTION ( 'NONE',  ( 0.0000000000000000000, 0.0000000000000000000, 1.000000000000000000 ) ) ;
#93 = ORIENTED_EDGE ( 'NONE', *, *, #926, .T. ) ;
#94 = VERTEX_POINT ( 'NONE', #684 ) ;
#95 = ORIENTED_EDGE ( 'NONE', *, *, #562, .T. ) ;
#96 = DIRECTION ( 'NONE',  ( 0.0000000000000000000, 1.000000000000000000, 0.0000000000000000000 ) ) ;
#97 = DIRECTION ( 'NONE',  ( 0.0000000000000000000, -0.0000000000000000000, 1.000000000000000000 ) ) ;
#98 = VERTEX_POINT ( 'NONE', #671 ) ;
#99 = ORIENTED_EDGE ( 'NONE', *, *, #416, .T. ) ;
#100 = AXIS2_PLACEMENT_3D ( 'NONE', #487, #505, #17 ) ;
#101 = ADVANCED_FACE ( 'NONE', ( #7 ), #222, .T. ) ;
#102 = APPLICATION_PROTOCOL_DEFINITION ( 'draft international standard', 'automotive_design', 1998, #580 ) ;
#103 = COLOUR_RGB ( '',0.5294117647058823595, 0.5490196078431373028, 0.5490196078431373028 ) ;
#104 = EDGE_CURVE ( 'NONE', #332, #1025, #201, .T. ) ;
#105 = DIRECTION ( 'NONE',  ( 0.0000000000000000000, 1.000000000000000000, 0.0000000000000000000 ) ) ;
#106 = AXIS2_PLACEMENT_3D ( 'NONE', #478, #91, #324 ) ;
#107 = VECTOR ( 'NONE', #387, 1000.000000000000000 ) ;
#108 =( NAMED_UNIT ( * ) SI_UNIT ( $, .STERADIAN. ) SOLID_ANGLE_UNIT ( ) );
#109 = ORIENTED_EDGE ( 'NONE', *, *, #828, .T. ) ;
#110 = DIRECTION ( 'NONE',  ( 0.0000000000000000000, 0.0000000000000000000, -1.000000000000000000 ) ) ;
#111 = ORIENTED_EDGE ( 'NONE', *, *, #185, .T. ) ;
#112 = CARTESIAN_POINT ( 'NONE',  ( -700.2500000000000000, 0.0000000000000000000, 9.500000000000003553 ) ) ;
#113 = ORIENTED_EDGE ( 'NONE', *, *, #934, .F. ) ;
#114 = DIRECTION ( 'NONE',  ( 0.0000000000000000000, 0.0000000000000000000, 1.000000000000000000 ) ) ;
#115 = EDGE_CURVE ( 'NONE', #332, #933, #59, .T. ) ;
#116 = CARTESIAN_POINT ( 'NONE',  ( -697.5000000000000000, 0.0000000000000000000, 27.25000000000000000 ) ) ;
#117 = FACE_OUTER_BOUND ( 'NONE', #529, .T. ) ;
#118 = VECTOR ( 'NONE', #268, 1000.000000000000000 ) ;
#119 = CARTESIAN_POINT ( 'NONE',  ( -697.5000000000000000, 0.0000000000000000000, 24.50000000000000000 ) ) ;
#120 = CARTESIAN_POINT ( 'NONE',  ( 1.959434878635764737E-15, 0.0000000000000000000, 24.50000000000000000 ) ) ;
#121 = CYLINDRICAL_SURFACE ( 'NONE', #665, 2.749999999999999112 ) ;
#122 = EDGE_LOOP ( 'NONE', ( #133, #280, #238, #717 ) ) ;
#123 = VERTEX_POINT ( 'NONE', #680 ) ;
#124 = CARTESIAN_POINT ( 'NONE',  ( -700.2500000000000000, 1.500000000000000000, 9.500000000000003553 ) ) ;
#125 = CARTESIAN_POINT ( 'NONE',  ( 747.5000000000000000, 25.00000000000000000, 1.500000000000000000 ) ) ;
#126 = PRODUCT_DEFINITION_FORMATION_WITH_SPECIFIED_SOURCE ( 'ANY', '', #650, .NOT_KNOWN. ) ;
#127 = DIRECTION ( 'NONE',  ( 0.0000000000000000000, 0.0000000000000000000, -1.000000000000000000 ) ) ;
#128 = LINE ( 'NONE', #622, #950 ) ;
#129 = AXIS2_PLACEMENT_3D ( 'NONE', #53, #465, #783 ) ;
#130 = ORIENTED_EDGE ( 'NONE', *, *, #439, .T. ) ;
#131 = CARTESIAN_POINT ( 'NONE',  ( 747.5000000000000000, 0.0000000000000000000, 3.000000000000002665 ) ) ;
#132 = EDGE_LOOP ( 'NONE', ( #11, #618, #692, #179 ) ) ;
#133 = ORIENTED_EDGE ( 'NONE', *, *, #153, .F. ) ;
#134 = ORIENTED_EDGE ( 'NONE', *, *, #916, .F. ) ;
#135 = DIRECTION ( 'NONE',  ( 0.0000000000000000000, 0.0000000000000000000, 1.000000000000000000 ) ) ;
#136 = DIRECTION ( 'NONE',  ( -2.220446049250314343E-14, 0.0000000000000000000, 1.000000000000000000 ) ) ;
#137 = EDGE_CURVE ( 'NONE', #888, #264, #289, .T. ) ;
#138 = CARTESIAN_POINT ( 'NONE',  ( 700.2500000000000000, 1.500000000000000000, 9.500000000000000000 ) ) ;
#139 = LINE ( 'NONE', #670, #243 ) ;
#140 = DIRECTION ( 'NONE',  ( 0.0000000000000000000, 0.0000000000000000000, -1.000000000000000000 ) ) ;
#141 = CYLINDRICAL_SURFACE ( 'NONE', #166, 3.000000000000000444 ) ;
#142 = CYLINDRICAL_SURFACE ( 'NONE', #15, 2.749999999999999112 ) ;
#143 = VERTEX_POINT ( 'NONE', #855 ) ;
#144 = PRESENTATION_LAYER_ASSIGNMENT (  '', '', ( #313 ) ) ;
#145 = ORIENTED_EDGE ( 'NONE', *, *, #1031, .F. ) ;
#146 = CARTESIAN_POINT ( 'NONE',  ( 747.5000000000000000, 3.000000000000000000, 3.000000000000001332 ) ) ;
#147 = ORIENTED_EDGE ( 'NONE', *, *, #1055, .F. ) ;
#148 = SURFACE_SIDE_STYLE ('',( #397 ) ) ;
#149 = VERTEX_POINT ( 'NONE', #296 ) ;
#150 = DIRECTION ( 'NONE',  ( 0.0000000000000000000, 0.0000000000000000000, 1.000000000000000000 ) ) ;
#151 = DIRECTION ( 'NONE',  ( -3.180326372624146504E-16, -0.0000000000000000000, -1.000000000000000000 ) ) ;
#152 = CARTESIAN_POINT ( 'NONE',  ( 742.5000000000000000, 25.00000000000000000, 0.0000000000000000000 ) ) ;
#153 = EDGE_CURVE ( 'NONE', #857, #414, #388, .T. ) ;
#154 = DIRECTION ( 'NONE',  ( 1.000000000000000000, 0.0000000000000000000, -0.0000000000000000000 ) ) ;
#155 = FACE_OUTER_BOUND ( 'NONE', #872, .T. ) ;
#156 = ORIENTED_EDGE ( 'NONE', *, *, #673, .F. ) ;
#157 = DIRECTION ( 'NONE',  ( 0.0000000000000000000, 1.000000000000000000, 0.0000000000000000000 ) ) ;
#158 = CARTESIAN_POINT ( 'NONE',  ( -747.5000000000000000, 3.000000000000000000, 0.0000000000000000000 ) ) ;
#159 = VERTEX_POINT ( 'NONE', #958 ) ;
#160 = EDGE_CURVE ( 'NONE', #468, #123, #1002, .T. ) ;
#161 = ORIENTED_EDGE ( 'NONE', *, *, #208, .F. ) ;
#162 = ORIENTED_EDGE ( 'NONE', *, *, #178, .F. ) ;
#163 = CARTESIAN_POINT ( 'NONE',  ( -700.2500000000000000, 1.500000000000000000, 24.50000000000000000 ) ) ;
#164 = DIRECTION ( 'NONE',  ( -0.0000000000000000000, 1.000000000000000000, -0.0000000000000000000 ) ) ;
#165 = CARTESIAN_POINT ( 'NONE',  ( 2.749999999999997780, 1.500000000000000000, 9.500000000000000000 ) ) ;
#166 = AXIS2_PLACEMENT_3D ( 'NONE', #556, #239, #643 ) ;
#167 = CARTESIAN_POINT ( 'NONE',  ( 2.750000000000002665, 1.500000000000000000, 24.50000000000000000 ) ) ;
#168 = CARTESIAN_POINT ( 'NONE',  ( 747.5000000000000000, 25.00000000000000000, 1.500000000000000000 ) ) ;
#169 = VECTOR ( 'NONE', #271, 1000.000000000000000 ) ;
#170 = ADVANCED_FACE ( 'NONE', ( #801 ), #965, .T. ) ;
#171 = VECTOR ( 'NONE', #499, 1000.000000000000000 ) ;
#172 = LINE ( 'NONE', #385, #703 ) ;
#173 = DIRECTION ( 'NONE',  ( 0.0000000000000000000, 0.0000000000000000000, 1.000000000000000000 ) ) ;
#174 = VERTEX_POINT ( 'NONE', #880 ) ;
#175 = CARTESIAN_POINT ( 'NONE',  ( 742.5000000000000000, 20.00000000000000000, 0.0000000000000000000 ) ) ;
#176 = ORIENTED_EDGE ( 'NONE', *, *, #137, .F. ) ;
#177 = CARTESIAN_POINT ( 'NONE',  ( 697.5000000000000000, 0.0000000000000000000, 9.500000000000001776 ) ) ;
#178 = EDGE_CURVE ( 'NONE', #955, #679, #728, .T. ) ;
#179 = ORIENTED_EDGE ( 'NONE', *, *, #457, .T. ) ;
#180 = ADVANCED_FACE ( 'NONE', ( #210 ), #142, .F. ) ;
#181 =( NAMED_UNIT ( * ) PLANE_ANGLE_UNIT ( ) SI_UNIT ( $, .RADIAN. ) );
#182 = DIRECTION ( 'NONE',  ( -0.0000000000000000000, -0.0000000000000000000, -1.000000000000000000 ) ) ;
#183 = CARTESIAN_POINT ( 'NONE',  ( 747.5000000000000000, 1.500000000000000000, 35.00000000000000000 ) ) ;
#184 = CARTESIAN_POINT ( 'NONE',  ( -742.5000000000001137, 25.00000000000000000, 1.500000000000000000 ) ) ;
#185 = EDGE_CURVE ( 'NONE', #516, #857, #655, .T. ) ;
#186 = CIRCLE ( 'NONE', #89, 2.750000000000000888 ) ;
#187 = AXIS2_PLACEMENT_3D ( 'NONE', #86, #724, #723 ) ;
#188 = COLOUR_RGB ( '',0.5294117647058823595, 0.5490196078431373028, 0.5490196078431373028 ) ;
#189 = LINE ( 'NONE', #309, #1022 ) ;
#190 = ORIENTED_EDGE ( 'NONE', *, *, #898, .F. ) ;
#191 = ADVANCED_FACE ( 'NONE', ( #541 ), #443, .T. ) ;
#192 = ORIENTED_EDGE ( 'NONE', *, *, #694, .T. ) ;
#193 = DIRECTION ( 'NONE',  ( 0.0000000000000000000, 0.0000000000000000000, 1.000000000000000000 ) ) ;
#194 = EDGE_LOOP ( 'NONE', ( #824, #659, #803, #568, #434, #871 ) ) ;
#195 = DIRECTION ( 'NONE',  ( 1.000000000000000000, 0.0000000000000000000, 0.0000000000000000000 ) ) ;
#196 = EDGE_CURVE ( 'NONE', #202, #557, #172, .T. ) ;
#197 = CARTESIAN_POINT ( 'NONE',  ( 1.959434878635764737E-15, 0.0000000000000000000, 27.25000000000000000 ) ) ;
#198 = PLANE ( 'NONE',  #217 ) ;
#199 = ADVANCED_FACE ( 'NONE', ( #1011 ), #902, .F. ) ;
#200 = FACE_OUTER_BOUND ( 'NONE', #615, .T. ) ;
#201 = CIRCLE ( 'NONE', #651, 3.000000000000000444 ) ;
#202 = VERTEX_POINT ( 'NONE', #619 ) ;
#203 = CARTESIAN_POINT ( 'NONE',  ( 694.7500000000000000, 1.500000000000000000, 9.500000000000003553 ) ) ;
#204 = ORIENTED_EDGE ( 'NONE', *, *, #512, .T. ) ;
#205 = EDGE_LOOP ( 'NONE', ( #480, #989, #8, #1005 ) ) ;
#206 = DIRECTION ( 'NONE',  ( 0.0000000000000000000, 1.000000000000000000, 0.0000000000000000000 ) ) ;
#207 = VECTOR ( 'NONE', #859, 1000.000000000000000 ) ;
#208 = EDGE_CURVE ( 'NONE', #202, #303, #1058, .T. ) ;
#209 = CARTESIAN_POINT ( 'NONE',  ( 697.5000000000000000, 0.0000000000000000000, 9.500000000000001776 ) ) ;
#210 = FACE_OUTER_BOUND ( 'NONE', #813, .T. ) ;
#211 = EDGE_LOOP ( 'NONE', ( #93, #885, #688, #226 ) ) ;
#212 = VERTEX_POINT ( 'NONE', #962 ) ;
#213 = ORIENTED_EDGE ( 'NONE', *, *, #82, .F. ) ;
#214 = ORIENTED_EDGE ( 'NONE', *, *, #733, .F. ) ;
#215 = CARTESIAN_POINT ( 'NONE',  ( 747.5000000000000000, 3.000000000000000000, 3.000000000000001332 ) ) ;
#216 = CARTESIAN_POINT ( 'NONE',  ( -747.5000000000000000, 1.500000000000000000, 35.00000000000000000 ) ) ;
#217 = AXIS2_PLACEMENT_3D ( 'NONE', #510, #928, #427 ) ;
#218 = DIRECTION ( 'NONE',  ( 0.0000000000000000000, 1.000000000000000000, 0.0000000000000000000 ) ) ;
#219 = LINE ( 'NONE', #363, #623 ) ;
#220 = VECTOR ( 'NONE', #737, 1000.000000000000000 ) ;
#221 = AXIS2_PLACEMENT_3D ( 'NONE', #890, #1048, #1043 ) ;
#222 = CYLINDRICAL_SURFACE ( 'NONE', #71, 4.999999999999997335 ) ;
#223 = EDGE_LOOP ( 'NONE', ( #234, #681, #644, #111, #290 ) ) ;
#224 = CARTESIAN_POINT ( 'NONE',  ( -2.750000000000002665, 0.0000000000000000000, 9.500000000000003553 ) ) ;
#225 = ORIENTED_EDGE ( 'NONE', *, *, #587, .T. ) ;
#226 = ORIENTED_EDGE ( 'NONE', *, *, #34, .T. ) ;
#227 = DIRECTION ( 'NONE',  ( -0.0000000000000000000, 1.000000000000000000, -0.0000000000000000000 ) ) ;
#228 = EDGE_CURVE ( 'NONE', #123, #557, #233, .T. ) ;
#229 = CARTESIAN_POINT ( 'NONE',  ( 747.5000000000000000, 0.0000000000000000000, 3.000000000000002665 ) ) ;
#230 = DIRECTION ( 'NONE',  ( 0.0000000000000000000, 1.000000000000000000, 0.0000000000000000000 ) ) ;
#231 = LINE ( 'NONE', #846, #5 ) ;
#232 =( LENGTH_UNIT ( ) NAMED_UNIT ( * ) SI_UNIT ( .MILLI., .METRE. ) );
#233 = LINE ( 'NONE', #969, #1045 ) ;
#234 = ORIENTED_EDGE ( 'NONE', *, *, #934, .T. ) ;
#235 = AXIS2_PLACEMENT_3D ( 'NONE', #359, #750, #663 ) ;
#236 = ORIENTED_EDGE ( 'NONE', *, *, #608, .T. ) ;
#237 = DIRECTION ( 'NONE',  ( 0.0000000000000000000, 1.000000000000000000, 0.0000000000000000000 ) ) ;
#238 = ORIENTED_EDGE ( 'NONE', *, *, #1012, .T. ) ;
#239 = DIRECTION ( 'NONE',  ( -1.000000000000000000, -0.0000000000000000000, -0.0000000000000000000 ) ) ;
#240 = EDGE_CURVE ( 'NONE', #496, #923, #398, .T. ) ;
#241 = DIRECTION ( 'NONE',  ( 0.0000000000000000000, 0.0000000000000000000, 1.000000000000000000 ) ) ;
#242 = CARTESIAN_POINT ( 'NONE',  ( -742.5000000000000000, 20.00000000000000000, 1.500000000000000000 ) ) ;
#243 = VECTOR ( 'NONE', #753, 1000.000000000000000 ) ;
#244 = CYLINDRICAL_SURFACE ( 'NONE', #695, 2.749999999999999112 ) ;
#245 = CARTESIAN_POINT ( 'NONE',  ( 747.5000000000000000, 0.0000000000000000000, 40.00000000000000000 ) ) ;
#246 = CIRCLE ( 'NONE', #593, 2.750000000000000888 ) ;
#247 = EDGE_CURVE ( 'NONE', #908, #605, #189, .T. ) ;
#248 = ORIENTED_EDGE ( 'NONE', *, *, #960, .T. ) ;
#249 = EDGE_LOOP ( 'NONE', ( #278, #992, #83, #802 ) ) ;
#250 = DIRECTION ( 'NONE',  ( -3.180326372624146504E-16, -0.0000000000000000000, -1.000000000000000000 ) ) ;
#251 = EDGE_LOOP ( 'NONE', ( #412, #377, #471, #37 ) ) ;
#252 = DIRECTION ( 'NONE',  ( -3.180326372624146504E-16, 0.0000000000000000000, -1.000000000000000000 ) ) ;
#253 = ADVANCED_FACE ( 'NONE', ( #600 ), #453, .F. ) ;
#254 = PLANE ( 'NONE',  #1050 ) ;
#255 = PRODUCT_DEFINITION ( 'UNKNOWN', '', #126, #697 ) ;
#256 = LINE ( 'NONE', #712, #29 ) ;
#257 = DIRECTION ( 'NONE',  ( 3.180326372624146997E-16, 0.0000000000000000000, 1.000000000000000000 ) ) ;
#258 = LINE ( 'NONE', #1037, #107 ) ;
#259 = FACE_OUTER_BOUND ( 'NONE', #856, .T. ) ;
#260 = ADVANCED_FACE ( 'NONE', ( #676 ), #804, .T. ) ;
#261 = DIRECTION ( 'NONE',  ( 0.0000000000000000000, 0.0000000000000000000, 1.000000000000000000 ) ) ;
#262 = EDGE_LOOP ( 'NONE', ( #248, #762, #351, #236 ) ) ;
#263 = CARTESIAN_POINT ( 'NONE',  ( -742.5000000000001137, 1.500000000000000000, 40.00000000000000000 ) ) ;
#264 = VERTEX_POINT ( 'NONE', #381 ) ;
#265 = CARTESIAN_POINT ( 'NONE',  ( 747.5000000000000000, 3.000000000000000000, 1.500000000000000000 ) ) ;
#266 = AXIS2_PLACEMENT_3D ( 'NONE', #325, #894, #408 ) ;
#267 = ORIENTED_EDGE ( 'NONE', *, *, #528, .F. ) ;
#268 = DIRECTION ( 'NONE',  ( 0.0000000000000000000, -1.000000000000000000, 5.782411586589356653E-16 ) ) ;
#269 = ADVANCED_FACE ( 'NONE', ( #373, #869, #613, #411 ), #66, .F. ) ;
#270 = SURFACE_STYLE_USAGE ( .BOTH. , #12 ) ;
#271 = DIRECTION ( 'NONE',  ( 3.180326372624146997E-16, 0.0000000000000000000, 1.000000000000000000 ) ) ;
#272 = LINE ( 'NONE', #333, #298 ) ;
#273 = AXIS2_PLACEMENT_3D ( 'NONE', #435, #22, #518 ) ;
#274 = ADVANCED_FACE ( 'NONE', ( #1035 ), #403, .T. ) ;
#275 = CIRCLE ( 'NONE', #773, 5.000000000000004441 ) ;
#276 = LINE ( 'NONE', #896, #727 ) ;
#277 = DIRECTION ( 'NONE',  ( 1.000000000000000000, 0.0000000000000000000, 0.0000000000000000000 ) ) ;
#278 = ORIENTED_EDGE ( 'NONE', *, *, #767, .F. ) ;
#279 = EDGE_LOOP ( 'NONE', ( #1003, #1029, #906, #887, #917 ) ) ;
#280 = ORIENTED_EDGE ( 'NONE', *, *, #185, .F. ) ;
#281 = ORIENTED_EDGE ( 'NONE', *, *, #115, .T. ) ;
#282 = AXIS2_PLACEMENT_3D ( 'NONE', #61, #140, #886 ) ;
#283 = PLANE ( 'NONE',  #821 ) ;
#284 = EDGE_CURVE ( 'NONE', #581, #149, #276, .T. ) ;
#285 = VECTOR ( 'NONE', #19, 1000.000000000000000 ) ;
#286 = CARTESIAN_POINT ( 'NONE',  ( 697.5000000000000000, 1.500000000000000000, 24.50000000000000000 ) ) ;
#287 = VECTOR ( 'NONE', #1051, 1000.000000000000000 ) ;
#288 = FACE_OUTER_BOUND ( 'NONE', #627, .T. ) ;
#289 = CIRCLE ( 'NONE', #718, 2.749999999999999112 ) ;
#290 = ORIENTED_EDGE ( 'NONE', *, *, #767, .T. ) ;
#291 = PLANE ( 'NONE',  #507 ) ;
#292 = EDGE_LOOP ( 'NONE', ( #993, #80, #966, #99 ) ) ;
#293 = ORIENTED_EDGE ( 'NONE', *, *, #196, .F. ) ;
#294 = EDGE_CURVE ( 'NONE', #977, #1049, #452, .T. ) ;
#295 = EDGE_LOOP ( 'NONE', ( #192, #455, #1023, #78 ) ) ;
#296 = CARTESIAN_POINT ( 'NONE',  ( 742.5000000000000000, 1.500000000000000000, 40.00000000000000000 ) ) ;
#297 = AXIS2_PLACEMENT_3D ( 'NONE', #1000, #574, #661 ) ;
#298 = VECTOR ( 'NONE', #84, 1000.000000000000000 ) ;
#299 = LINE ( 'NONE', #691, #1021 ) ;
#300 = DIRECTION ( 'NONE',  ( 1.000000000000000000, 0.0000000000000000000, 0.0000000000000000000 ) ) ;
#301 = DIRECTION ( 'NONE',  ( 0.0000000000000000000, -1.000000000000000000, -0.0000000000000000000 ) ) ;
#302 = ORIENTED_EDGE ( 'NONE', *, *, #673, .T. ) ;
#303 = VERTEX_POINT ( 'NONE', #976 ) ;
#304 = ORIENTED_EDGE ( 'NONE', *, *, #54, .F. ) ;
#305 = DIRECTION ( 'NONE',  ( 0.0000000000000000000, -1.000000000000000000, 0.0000000000000000000 ) ) ;
#306 = EDGE_CURVE ( 'NONE', #62, #705, #988, .T. ) ;
#307 = DIRECTION ( 'NONE',  ( 0.0000000000000000000, 0.0000000000000000000, 1.000000000000000000 ) ) ;
#308 = DIRECTION ( 'NONE',  ( 1.000000000000000000, 0.0000000000000000000, 0.0000000000000000000 ) ) ;
#309 = CARTESIAN_POINT ( 'NONE',  ( 700.2500000000000000, 0.0000000000000000000, 9.500000000000000000 ) ) ;
#310 = CARTESIAN_POINT ( 'NONE',  ( -747.5000000000000000, 0.0000000000000000000, 40.00000000000000000 ) ) ;
#311 = LINE ( 'NONE', #706, #699 ) ;
#312 = LINE ( 'NONE', #335, #760 ) ;
#313 = STYLED_ITEM ( 'NONE', ( #948 ), #481 ) ;
#314 = CIRCLE ( 'NONE', #927, 4.999999999999997335 ) ;
#315 = CARTESIAN_POINT ( 'NONE',  ( 2.749999999999997780, 1.500000000000000000, 9.500000000000000000 ) ) ;
#316 = DIRECTION ( 'NONE',  ( 1.000000000000000000, 0.0000000000000000000, 0.0000000000000000000 ) ) ;
#317 = EDGE_LOOP ( 'NONE', ( #145, #176, #95, #204 ) ) ;
#318 = ORIENTED_EDGE ( 'NONE', *, *, #971, .T. ) ;
#319 = ORIENTED_EDGE ( 'NONE', *, *, #1024, .T. ) ;
#320 = CARTESIAN_POINT ( 'NONE',  ( -747.5000000000000000, 3.000000000000000000, 1.500000000000000000 ) ) ;
#321 = ORIENTED_EDGE ( 'NONE', *, *, #725, .F. ) ;
#322 = EDGE_CURVE ( 'NONE', #557, #937, #1056, .T. ) ;
#323 = CARTESIAN_POINT ( 'NONE',  ( -2.632990618166809630E-15, 0.0000000000000000000, 9.500000000000001776 ) ) ;
#324 = DIRECTION ( 'NONE',  ( 1.000000000000000000, 0.0000000000000000000, -0.0000000000000000000 ) ) ;
#325 = CARTESIAN_POINT ( 'NONE',  ( 747.5000000000000000, 0.0000000000000000000, 40.00000000000000000 ) ) ;
#326 = LINE ( 'NONE', #315, #726 ) ;
#327 = VECTOR ( 'NONE', #911, 1000.000000000000000 ) ;
#328 = EDGE_CURVE ( 'NONE', #954, #628, #867, .T. ) ;
#329 = VERTEX_POINT ( 'NONE', #165 ) ;
#330 = DIRECTION ( 'NONE',  ( 3.180326372624146997E-16, 0.0000000000000000000, 1.000000000000000000 ) ) ;
#331 = ORIENTED_EDGE ( 'NONE', *, *, #926, .F. ) ;
#332 = VERTEX_POINT ( 'NONE', #85 ) ;
#333 = CARTESIAN_POINT ( 'NONE',  ( -700.2500000000000000, 0.0000000000000000000, 24.50000000000000000 ) ) ;
#334 = CARTESIAN_POINT ( 'NONE',  ( -747.5000000000000000, 20.00000000000000000, 3.000000000000001776 ) ) ;
#335 = CARTESIAN_POINT ( 'NONE',  ( -2.750000000000002665, 0.0000000000000000000, 9.500000000000003553 ) ) ;
#336 = VECTOR ( 'NONE', #1, 1000.000000000000000 ) ;
#337 = CYLINDRICAL_SURFACE ( 'NONE', #235, 1.500000000000000000 ) ;
#338 = ORIENTED_EDGE ( 'NONE', *, *, #1026, .T. ) ;
#339 = DIRECTION ( 'NONE',  ( 0.0000000000000000000, 0.0000000000000000000, 1.000000000000000000 ) ) ;
#340 = ORIENTED_EDGE ( 'NONE', *, *, #396, .F. ) ;
#341 = ORIENTED_EDGE ( 'NONE', *, *, #449, .F. ) ;
#342 =( NAMED_UNIT ( * ) PLANE_ANGLE_UNIT ( ) SI_UNIT ( $, .RADIAN. ) );
#343 = DIRECTION ( 'NONE',  ( 1.000000000000000000, 0.0000000000000000000, 0.0000000000000000000 ) ) ;
#344 = ADVANCED_FACE ( 'NONE', ( #75 ), #141, .T. ) ;
#345 = ORIENTED_EDGE ( 'NONE', *, *, #587, .F. ) ;
#346 = DIRECTION ( 'NONE',  ( 0.0000000000000000000, 1.000000000000000000, 0.0000000000000000000 ) ) ;
#347 = PRODUCT_RELATED_PRODUCT_CATEGORY ( 'part', '', ( #650 ) ) ;
#348 = PLANE ( 'NONE',  #884 ) ;
#349 = LINE ( 'NONE', #56, #477 ) ;
#350 =( NAMED_UNIT ( * ) SI_UNIT ( $, .STERADIAN. ) SOLID_ANGLE_UNIT ( ) );
#351 = ORIENTED_EDGE ( 'NONE', *, *, #240, .F. ) ;
#352 = ADVANCED_FACE ( 'NONE', ( #900 ), #244, .F. ) ;
#353 = ORIENTED_EDGE ( 'NONE', *, *, #528, .T. ) ;
#354 = DIRECTION ( 'NONE',  ( -3.180326372624146504E-16, -0.0000000000000000000, -1.000000000000000000 ) ) ;
#355 = AXIS2_PLACEMENT_3D ( 'NONE', #242, #905, #561 ) ;
#356 = ORIENTED_EDGE ( 'NONE', *, *, #898, .T. ) ;
#357 = VERTEX_POINT ( 'NONE', #163 ) ;
#358 = FILL_AREA_STYLE ('',( #749 ) ) ;
#359 = CARTESIAN_POINT ( 'NONE',  ( 747.5000000000000000, 3.000000000000000000, 3.000000000000001332 ) ) ;
#360 = ADVANCED_FACE ( 'NONE', ( #45 ), #744, .F. ) ;
#361 = DIRECTION ( 'NONE',  ( 0.0000000000000000000, 0.0000000000000000000, 1.000000000000000000 ) ) ;
#362 = LINE ( 'NONE', #406, #20 ) ;
#363 = CARTESIAN_POINT ( 'NONE',  ( -747.5000000000000000, 0.0000000000000000000, 0.0000000000000000000 ) ) ;
#364 = ORIENTED_EDGE ( 'NONE', *, *, #322, .T. ) ;
#365 = VERTEX_POINT ( 'NONE', #485 ) ;
#366 = ORIENTED_EDGE ( 'NONE', *, *, #558, .T. ) ;
#367 = CARTESIAN_POINT ( 'NONE',  ( 700.2500000000000000, 0.0000000000000000000, 9.500000000000000000 ) ) ;
#368 = DIRECTION ( 'NONE',  ( 0.0000000000000000000, 0.0000000000000000000, 1.000000000000000000 ) ) ;
#369 = AXIS2_PLACEMENT_3D ( 'NONE', #73, #633, #984 ) ;
#370 = CIRCLE ( 'NONE', #41, 2.749999999999999112 ) ;
#371 = DIRECTION ( 'NONE',  ( -0.0000000000000000000, 0.0000000000000000000, 1.000000000000000000 ) ) ;
#372 = FACE_OUTER_BOUND ( 'NONE', #194, .T. ) ;
#373 = FACE_BOUND ( 'NONE', #223, .T. ) ;
#374 = ORIENTED_EDGE ( 'NONE', *, *, #973, .F. ) ;
#375 = DIRECTION ( 'NONE',  ( 0.0000000000000000000, 1.000000000000000000, 0.0000000000000000000 ) ) ;
#376 = EDGE_LOOP ( 'NONE', ( #668, #553, #319, #356 ) ) ;
#377 = ORIENTED_EDGE ( 'NONE', *, *, #1063, .F. ) ;
#378 = CARTESIAN_POINT ( 'NONE',  ( -742.5000000000001137, 25.00000000000000000, 1.500000000000000000 ) ) ;
#379 = AXIS2_PLACEMENT_3D ( 'NONE', #229, #308, #460 ) ;
#380 =( NAMED_UNIT ( * ) SI_UNIT ( $, .STERADIAN. ) SOLID_ANGLE_UNIT ( ) );
#381 = CARTESIAN_POINT ( 'NONE',  ( 1.959434878635764737E-15, 0.0000000000000000000, 27.25000000000000000 ) ) ;
#382 = PRESENTATION_STYLE_ASSIGNMENT (( #708 ) ) ;
#383 = AXIS2_PLACEMENT_3D ( 'NONE', #1057, #715, #70 ) ;
#384 = CARTESIAN_POINT ( 'NONE',  ( -694.7500000000000000, 0.0000000000000000000, 9.500000000000000000 ) ) ;
#385 = CARTESIAN_POINT ( 'NONE',  ( 747.5000000000000000, 1.500000000000000000, 3.000000000000001776 ) ) ;
#386 = VECTOR ( 'NONE', #426, 1000.000000000000000 ) ;
#387 = DIRECTION ( 'NONE',  ( -0.0000000000000000000, 1.000000000000000000, -0.0000000000000000000 ) ) ;
#388 = LINE ( 'NONE', #1028, #915 ) ;
#389 = ORIENTED_EDGE ( 'NONE', *, *, #428, .F. ) ;
#390 = VERTEX_POINT ( 'NONE', #812 ) ;
#391 = DIRECTION ( 'NONE',  ( 0.0000000000000000000, 1.000000000000000000, -0.0000000000000000000 ) ) ;
#392 = FILL_AREA_STYLE_COLOUR ( '', #188 ) ;
#393 = DIRECTION ( 'NONE',  ( 1.000000000000000000, 0.0000000000000000000, -0.0000000000000000000 ) ) ;
#394 = DIRECTION ( 'NONE',  ( -1.000000000000000000, 0.0000000000000000000, -0.0000000000000000000 ) ) ;
#395 = SHAPE_DEFINITION_REPRESENTATION ( #736, #481 ) ;
#396 = EDGE_CURVE ( 'NONE', #27, #47, #666, .T. ) ;
#397 = SURFACE_STYLE_FILL_AREA ( #868 ) ;
#398 = CIRCLE ( 'NONE', #956, 2.750000000000000888 ) ;
#399 = DIRECTION ( 'NONE',  ( -0.0000000000000000000, 0.0000000000000000000, 1.000000000000000000 ) ) ;
#400 = ORIENTED_EDGE ( 'NONE', *, *, #306, .F. ) ;
#401 = ORIENTED_EDGE ( 'NONE', *, *, #996, .F. ) ;
#402 = VERTEX_POINT ( 'NONE', #721 ) ;
#403 = PLANE ( 'NONE',  #544 ) ;
#404 = AXIS2_PLACEMENT_3D ( 'NONE', #731, #994, #87 ) ;
#405 = PLANE ( 'NONE',  #604 ) ;
#406 = CARTESIAN_POINT ( 'NONE',  ( 747.5000000000000000, 3.000000000000000000, 1.500000000000000000 ) ) ;
#407 = DIRECTION ( 'NONE',  ( 1.000000000000000000, 0.0000000000000000000, -3.180326372624146504E-16 ) ) ;
#408 = DIRECTION ( 'NONE',  ( 0.0000000000000000000, -0.0000000000000000000, 1.000000000000000000 ) ) ;
#409 = FACE_OUTER_BOUND ( 'NONE', #46, .T. ) ;
#410 = LINE ( 'NONE', #13, #118 ) ;
#411 = FACE_OUTER_BOUND ( 'NONE', #945, .T. ) ;
#412 = ORIENTED_EDGE ( 'NONE', *, *, #629, .F. ) ;
#413 = CARTESIAN_POINT ( 'NONE',  ( -700.2500000000000000, 1.500000000000000000, 9.500000000000005329 ) ) ;
#414 = VERTEX_POINT ( 'NONE', #806 ) ;
#415 = DIRECTION ( 'NONE',  ( -0.0000000000000000000, 1.000000000000000000, 0.0000000000000000000 ) ) ;
#416 = EDGE_CURVE ( 'NONE', #303, #1025, #362, .T. ) ;
#417 = CARTESIAN_POINT ( 'NONE',  ( -742.5000000000001137, 25.00000000000000000, 0.0000000000000000000 ) ) ;
#418 = AXIS2_PLACEMENT_3D ( 'NONE', #807, #899, #68 ) ;
#419 = PRODUCT_CONTEXT ( 'NONE', #729, 'mechanical' ) ;
#420 = DIRECTION ( 'NONE',  ( 1.000000000000000000, 0.0000000000000000000, -3.180326372624146504E-16 ) ) ;
#421 = LINE ( 'NONE', #772, #33 ) ;
#422 = AXIS2_PLACEMENT_3D ( 'NONE', #9, #420, #252 ) ;
#423 = ORIENTED_EDGE ( 'NONE', *, *, #328, .F. ) ;
#424 = ORIENTED_EDGE ( 'NONE', *, *, #294, .F. ) ;
#425 = PLANE ( 'NONE',  #297 ) ;
#426 = DIRECTION ( 'NONE',  ( -0.0000000000000000000, 1.000000000000000000, -0.0000000000000000000 ) ) ;
#427 = DIRECTION ( 'NONE',  ( -3.180326372624146504E-16, 0.0000000000000000000, -1.000000000000000000 ) ) ;
#428 = EDGE_CURVE ( 'NONE', #705, #517, #591, .T. ) ;
#429 = AXIS2_PLACEMENT_3D ( 'NONE', #119, #589, #114 ) ;
#430 = VECTOR ( 'NONE', #559, 1000.000000000000000 ) ;
#431 = CARTESIAN_POINT ( 'NONE',  ( -747.5000000000000000, 3.000000000000000000, 3.000000000000001332 ) ) ;
#432 = VECTOR ( 'NONE', #985, 1000.000000000000000 ) ;
#433 = VERTEX_POINT ( 'NONE', #470 ) ;
#434 = ORIENTED_EDGE ( 'NONE', *, *, #947, .F. ) ;
#435 = CARTESIAN_POINT ( 'NONE',  ( 694.7500000000000000, 0.0000000000000000000, 9.500000000000003553 ) ) ;
#436 = AXIS2_PLACEMENT_3D ( 'NONE', #617, #535, #307 ) ;
#437 = ORIENTED_EDGE ( 'NONE', *, *, #725, .T. ) ;
#438 = CARTESIAN_POINT ( 'NONE',  ( 747.5000000000000000, 0.0000000000000000000, 3.000000000000002665 ) ) ;
#439 = EDGE_CURVE ( 'NONE', #174, #581, #466, .T. ) ;
#440 = DIRECTION ( 'NONE',  ( -0.0000000000000000000, 1.000000000000000000, -0.0000000000000000000 ) ) ;
#441 = LINE ( 'NONE', #936, #207 ) ;
#442 = DIRECTION ( 'NONE',  ( 0.0000000000000000000, 1.000000000000000000, 0.0000000000000000000 ) ) ;
#443 = CYLINDRICAL_SURFACE ( 'NONE', #901, 5.000000000000000888 ) ;
#444 = EDGE_LOOP ( 'NONE', ( #751, #437, #51, #1017, #10, #991 ) ) ;
#445 = ORIENTED_EDGE ( 'NONE', *, *, #1055, .T. ) ;
#446 = DIRECTION ( 'NONE',  ( -0.0000000000000000000, 1.000000000000000000, -0.0000000000000000000 ) ) ;
#447 = EDGE_LOOP ( 'NONE', ( #616, #511, #1059, #546 ) ) ;
#448 = DIRECTION ( 'NONE',  ( -1.000000000000000000, -0.0000000000000000000, -0.0000000000000000000 ) ) ;
#449 = EDGE_CURVE ( 'NONE', #628, #888, #312, .T. ) ;
#450 = VECTOR ( 'NONE', #554, 1000.000000000000000 ) ;
#451 = FACE_OUTER_BOUND ( 'NONE', #376, .T. ) ;
#452 = LINE ( 'NONE', #637, #963 ) ;
#453 = CYLINDRICAL_SURFACE ( 'NONE', #646, 2.749999999999999112 ) ;
#454 = DIRECTION ( 'NONE',  ( -0.0000000000000000000, 1.000000000000000000, -0.0000000000000000000 ) ) ;
#455 = ORIENTED_EDGE ( 'NONE', *, *, #710, .F. ) ;
#456 = EDGE_LOOP ( 'NONE', ( #1004, #764, #401, #630, #109, #953 ) ) ;
#457 = EDGE_CURVE ( 'NONE', #747, #27, #639, .T. ) ;
#458 = EDGE_LOOP ( 'NONE', ( #979, #829, #35, #891, #748 ) ) ;
#459 = CARTESIAN_POINT ( 'NONE',  ( -742.5000000000000000, 3.000000000000000000, 35.00000000000000000 ) ) ;
#460 = DIRECTION ( 'NONE',  ( 0.0000000000000000000, 0.0000000000000000000, -1.000000000000000000 ) ) ;
#461 = DIRECTION ( 'NONE',  ( 0.0000000000000000000, 0.0000000000000000000, -1.000000000000000000 ) ) ;
#462 = DIRECTION ( 'NONE',  ( 1.000000000000000000, 0.0000000000000000000, 0.0000000000000000000 ) ) ;
#463 = CYLINDRICAL_SURFACE ( 'NONE', #621, 2.749999999999999112 ) ;
#464 = CYLINDRICAL_SURFACE ( 'NONE', #532, 2.750000000000000888 ) ;
#465 = DIRECTION ( 'NONE',  ( -0.0000000000000000000, 1.000000000000000000, -0.0000000000000000000 ) ) ;
#466 = CIRCLE ( 'NONE', #404, 4.999999999999997335 ) ;
#467 = VECTOR ( 'NONE', #151, 1000.000000000000000 ) ;
#468 = VERTEX_POINT ( 'NONE', #490 ) ;
#469 = VERTEX_POINT ( 'NONE', #263 ) ;
#470 = CARTESIAN_POINT ( 'NONE',  ( -747.5000000000000000, 3.000000000000000000, 0.0000000000000000000 ) ) ;
#471 = ORIENTED_EDGE ( 'NONE', *, *, #14, .F. ) ;
#472 = CARTESIAN_POINT ( 'NONE',  ( 2.749999999999997780, 0.0000000000000000000, 9.500000000000000000 ) ) ;
#473 = CARTESIAN_POINT ( 'NONE',  ( 747.5000000000000000, 1.500000000000000000, 40.00000000000000000 ) ) ;
#474 = LINE ( 'NONE', #197, #838 ) ;
#475 = VECTOR ( 'NONE', #756, 1000.000000000000000 ) ;
#476 = AXIS2_PLACEMENT_3D ( 'NONE', #286, #841, #361 ) ;
#477 = VECTOR ( 'NONE', #533, 1000.000000000000000 ) ;
#478 = CARTESIAN_POINT ( 'NONE',  ( 747.5000000000000000, 0.0000000000000000000, 0.0000000000000000000 ) ) ;
#479 = DIRECTION ( 'NONE',  ( -0.0000000000000000000, 1.000000000000000000, -0.0000000000000000000 ) ) ;
#480 = ORIENTED_EDGE ( 'NONE', *, *, #500, .T. ) ;
#481 = ADVANCED_BREP_SHAPE_REPRESENTATION ( '03_060_sheetmetal security cover', ( #693, #1033 ), #851 ) ;
#482 = VERTEX_POINT ( 'NONE', #820 ) ;
#483 = ORIENTED_EDGE ( 'NONE', *, *, #1063, .T. ) ;
#484 = DIRECTION ( 'NONE',  ( -1.000000000000000000, 0.0000000000000000000, 3.180326372624146997E-16 ) ) ;
#485 = CARTESIAN_POINT ( 'NONE',  ( 694.7500000000000000, 0.0000000000000000000, 24.50000000000000000 ) ) ;
#486 = AXIS2_PLACEMENT_3D ( 'NONE', #146, #316, #877 ) ;
#487 = CARTESIAN_POINT ( 'NONE',  ( 697.5000000000000000, 1.500000000000000000, 24.50000000000000000 ) ) ;
#488 = DIRECTION ( 'NONE',  ( 0.0000000000000000000, 1.000000000000000000, 0.0000000000000000000 ) ) ;
#489 = FACE_OUTER_BOUND ( 'NONE', #1016, .T. ) ;
#490 = CARTESIAN_POINT ( 'NONE',  ( -747.5000000000000000, 0.0000000000000000000, 35.00000000000000000 ) ) ;
#491 = CIRCLE ( 'NONE', #28, 2.749999999999999112 ) ;
#492 = FACE_OUTER_BOUND ( 'NONE', #815, .T. ) ;
#493 = VECTOR ( 'NONE', #850, 1000.000000000000000 ) ;
#494 = VERTEX_POINT ( 'NONE', #413 ) ;
#495 = ORIENTED_EDGE ( 'NONE', *, *, #607, .F. ) ;
#496 = VERTEX_POINT ( 'NONE', #914 ) ;
#497 = ADVANCED_FACE ( 'NONE', ( #526 ), #922, .F. ) ;
#498 = ORIENTED_EDGE ( 'NONE', *, *, #864, .T. ) ;
#499 = DIRECTION ( 'NONE',  ( -0.0000000000000000000, -0.0000000000000000000, 1.000000000000000000 ) ) ;
#500 = EDGE_CURVE ( 'NONE', #1049, #605, #810, .T. ) ;
#501 = PRESENTATION_LAYER_ASSIGNMENT (  '', '', ( #660 ) ) ;
#502 = CARTESIAN_POINT ( 'NONE',  ( -742.5000000000001137, 0.0000000000000000000, 40.00000000000000000 ) ) ;
#503 = ADVANCED_FACE ( 'NONE', ( #1010, #701, #939, #840 ), #348, .T. ) ;
#504 = CARTESIAN_POINT ( 'NONE',  ( 747.5000000000000000, 0.0000000000000000000, 1.500000000000000000 ) ) ;
#505 = DIRECTION ( 'NONE',  ( 0.0000000000000000000, 1.000000000000000000, 0.0000000000000000000 ) ) ;
#506 = CIRCLE ( 'NONE', #6, 4.999999999999997335 ) ;
#507 = AXIS2_PLACEMENT_3D ( 'NONE', #675, #39, #371 ) ;
#508 = VERTEX_POINT ( 'NONE', #572 ) ;
#509 = ORIENTED_EDGE ( 'NONE', *, *, #780, .F. ) ;
#510 = CARTESIAN_POINT ( 'NONE',  ( 700.2500000000000000, 0.0000000000000000000, 9.500000000000000000 ) ) ;
#511 = ORIENTED_EDGE ( 'NONE', *, *, #160, .T. ) ;
#512 = EDGE_CURVE ( 'NONE', #935, #402, #552, .T. ) ;
#513 = CARTESIAN_POINT ( 'NONE',  ( -697.5000000000000000, 1.500000000000000000, 24.50000000000000000 ) ) ;
#514 = LINE ( 'NONE', #473, #287 ) ;
#515 = VECTOR ( 'NONE', #794, 1000.000000000000000 ) ;
#516 = VERTEX_POINT ( 'NONE', #654 ) ;
#517 = VERTEX_POINT ( 'NONE', #649 ) ;
#518 = DIRECTION ( 'NONE',  ( 3.180326372624146997E-16, 0.0000000000000000000, 1.000000000000000000 ) ) ;
#519 = CARTESIAN_POINT ( 'NONE',  ( 2.750000000000002665, 0.0000000000000000000, 24.50000000000000000 ) ) ;
#520 = ORIENTED_EDGE ( 'NONE', *, *, #947, .T. ) ;
#521 = CARTESIAN_POINT ( 'NONE',  ( 747.5000000000000000, 3.000000000000000000, 3.000000000000001332 ) ) ;
#522 = EDGE_CURVE ( 'NONE', #402, #1027, #611, .T. ) ;
#523 = LINE ( 'NONE', #334, #430 ) ;
#524 = CIRCLE ( 'NONE', #892, 2.749999999999999112 ) ;
#525 = CARTESIAN_POINT ( 'NONE',  ( 742.5000000000000000, 0.0000000000000000000, 35.00000000000000000 ) ) ;
#526 = FACE_OUTER_BOUND ( 'NONE', #779, .T. ) ;
#527 = VERTEX_POINT ( 'NONE', #502 ) ;
#528 = EDGE_CURVE ( 'NONE', #365, #143, #32, .T. ) ;
#529 = EDGE_LOOP ( 'NONE', ( #789, #657, #341, #225 ) ) ;
#530 = PLANE ( 'NONE',  #866 ) ;
#531 = EDGE_LOOP ( 'NONE', ( #340, #555, #495, #777 ) ) ;
#532 = AXIS2_PLACEMENT_3D ( 'NONE', #323, #227, #150 ) ;
#533 = DIRECTION ( 'NONE',  ( 3.180326372624146997E-16, 0.0000000000000000000, 1.000000000000000000 ) ) ;
#534 = CARTESIAN_POINT ( 'NONE',  ( -2.750000000000035083, 0.0000000000000000000, 24.50000000000000000 ) ) ;
#535 = DIRECTION ( 'NONE',  ( 0.0000000000000000000, 1.000000000000000000, 0.0000000000000000000 ) ) ;
#536 = PLANE ( 'NONE',  #571 ) ;
#537 = EDGE_CURVE ( 'NONE', #517, #508, #540, .T. ) ;
#538 = CARTESIAN_POINT ( 'NONE',  ( -694.7500000000000000, 1.500000000000000000, 9.500000000000000000 ) ) ;
#539 = LINE ( 'NONE', #720, #336 ) ;
#540 = LINE ( 'NONE', #1001, #171 ) ;
#541 = FACE_OUTER_BOUND ( 'NONE', #251, .T. ) ;
#542 = ORIENTED_EDGE ( 'NONE', *, *, #629, .T. ) ;
#543 = ORIENTED_EDGE ( 'NONE', *, *, #795, .F. ) ;
#544 = AXIS2_PLACEMENT_3D ( 'NONE', #168, #79, #631 ) ;
#545 = ORIENTED_EDGE ( 'NONE', *, *, #1026, .F. ) ;
#546 = ORIENTED_EDGE ( 'NONE', *, *, #549, .T. ) ;
#547 = DIRECTION ( 'NONE',  ( -0.0000000000000000000, 1.000000000000000000, -0.0000000000000000000 ) ) ;
#548 = DIRECTION ( 'NONE',  ( 0.0000000000000000000, 0.0000000000000000000, -1.000000000000000000 ) ) ;
#549 = EDGE_CURVE ( 'NONE', #557, #933, #410, .T. ) ;
#550 = AXIS2_PLACEMENT_3D ( 'NONE', #81, #798, #154 ) ;
#551 = CARTESIAN_POINT ( 'NONE',  ( -747.5000000000000000, 0.0000000000000000000, 3.000000000000002665 ) ) ;
#552 = CIRCLE ( 'NONE', #944, 2.749999999999999112 ) ;
#553 = ORIENTED_EDGE ( 'NONE', *, *, #82, .T. ) ;
#554 = DIRECTION ( 'NONE',  ( 0.0000000000000000000, 1.000000000000000000, 0.0000000000000000000 ) ) ;
#555 = ORIENTED_EDGE ( 'NONE', *, *, #457, .F. ) ;
#556 = CARTESIAN_POINT ( 'NONE',  ( 747.5000000000000000, 3.000000000000000000, 3.000000000000001332 ) ) ;
#557 = VERTEX_POINT ( 'NONE', #662 ) ;
#558 = EDGE_CURVE ( 'NONE', #482, #1049, #714, .T. ) ;
#559 = DIRECTION ( 'NONE',  ( 0.0000000000000000000, 0.0000000000000000000, -1.000000000000000000 ) ) ;
#560 = DIRECTION ( 'NONE',  ( 0.0000000000000000000, 0.0000000000000000000, -1.000000000000000000 ) ) ;
#561 = DIRECTION ( 'NONE',  ( 1.000000000000000000, 0.0000000000000000000, 0.0000000000000000000 ) ) ;
#562 = EDGE_CURVE ( 'NONE', #888, #935, #786, .T. ) ;
#563 = CIRCLE ( 'NONE', #476, 2.749999999999999112 ) ;
#564 = LINE ( 'NONE', #964, #515 ) ;
#565 = CARTESIAN_POINT ( 'NONE',  ( 700.2500000000000000, 1.500000000000000000, 9.500000000000000000 ) ) ;
#566 = FACE_OUTER_BOUND ( 'NONE', #805, .T. ) ;
#567 = DIRECTION ( 'NONE',  ( 0.0000000000000000000, 0.0000000000000000000, -1.000000000000000000 ) ) ;
#568 = ORIENTED_EDGE ( 'NONE', *, *, #396, .T. ) ;
#569 = ORIENTED_EDGE ( 'NONE', *, *, #687, .T. ) ;
#570 = EDGE_LOOP ( 'NONE', ( #147, #331, #1060, #595, #826 ) ) ;
#571 = AXIS2_PLACEMENT_3D ( 'NONE', #612, #407, #907 ) ;
#572 = CARTESIAN_POINT ( 'NONE',  ( 747.5000000000000000, 20.00000000000000000, 1.500000000000000000 ) ) ;
#573 = ADVANCED_FACE ( 'NONE', ( #200 ), #90, .T. ) ;
#574 = DIRECTION ( 'NONE',  ( -1.000000000000000000, 0.0000000000000000000, 3.180326372624146997E-16 ) ) ;
#575 = CARTESIAN_POINT ( 'NONE',  ( 694.7500000000000000, 0.0000000000000000000, 24.50000000000000000 ) ) ;
#576 = CARTESIAN_POINT ( 'NONE',  ( -747.5000000000000000, 3.000000000000000000, 3.000000000000001332 ) ) ;
#577 = LINE ( 'NONE', #124, #169 ) ;
#578 = VECTOR ( 'NONE', #448, 1000.000000000000000 ) ;
#579 = ADVANCED_FACE ( 'NONE', ( #288 ), #337, .F. ) ;
#580 = APPLICATION_CONTEXT ( 'automotive_design' ) ;
#581 = VERTEX_POINT ( 'NONE', #834 ) ;
#582 = ORIENTED_EDGE ( 'NONE', *, *, #34, .F. ) ;
#583 = DIRECTION ( 'NONE',  ( -0.0000000000000000000, 1.000000000000000000, -0.0000000000000000000 ) ) ;
#584 = EDGE_LOOP ( 'NONE', ( #214, #1036, #968, #582 ) ) ;
#585 = CARTESIAN_POINT ( 'NONE',  ( 742.5000000000000000, 20.00000000000000000, 1.500000000000000000 ) ) ;
#586 = ADVANCED_FACE ( 'NONE', ( #58 ), #198, .F. ) ;
#587 = EDGE_CURVE ( 'NONE', #628, #844, #258, .T. ) ;
#588 = CARTESIAN_POINT ( 'NONE',  ( -700.2500000000000000, 0.0000000000000000000, 9.500000000000003553 ) ) ;
#589 = DIRECTION ( 'NONE',  ( 0.0000000000000000000, 1.000000000000000000, 0.0000000000000000000 ) ) ;
#590 = LINE ( 'NONE', #26, #823 ) ;
#591 = CIRCLE ( 'NONE', #1041, 5.000000000000004441 ) ;
#592 = DIRECTION ( 'NONE',  ( 3.180326372624146997E-16, 0.0000000000000000000, 1.000000000000000000 ) ) ;
#593 = AXIS2_PLACEMENT_3D ( 'NONE', #209, #442, #40 ) ;
#594 = VECTOR ( 'NONE', #1019, 1000.000000000000000 ) ;
#595 = ORIENTED_EDGE ( 'NONE', *, *, #512, .F. ) ;
#596 = PLANE ( 'NONE',  #273 ) ;
#597 = DIRECTION ( 'NONE',  ( 0.0000000000000000000, 0.0000000000000000000, 1.000000000000000000 ) ) ;
#598 = DIRECTION ( 'NONE',  ( -1.000000000000000000, -0.0000000000000000000, -0.0000000000000000000 ) ) ;
#599 = VECTOR ( 'NONE', #49, 1000.000000000000000 ) ;
#600 = FACE_OUTER_BOUND ( 'NONE', #584, .T. ) ;
#601 = EDGE_CURVE ( 'NONE', #303, #937, #975, .T. ) ;
#602 = ORIENTED_EDGE ( 'NONE', *, *, #916, .T. ) ;
#603 = CARTESIAN_POINT ( 'NONE',  ( 747.5000000000000000, 3.000000000000000000, 35.00000000000000000 ) ) ;
#604 = AXIS2_PLACEMENT_3D ( 'NONE', #893, #484, #330 ) ;
#605 = VERTEX_POINT ( 'NONE', #138 ) ;
#606 = CARTESIAN_POINT ( 'NONE',  ( -747.5000000000000000, 20.00000000000000000, 1.500000000000000000 ) ) ;
#607 = EDGE_CURVE ( 'NONE', #1038, #747, #686, .T. ) ;
#608 = EDGE_CURVE ( 'NONE', #496, #679, #564, .T. ) ;
#609 = CARTESIAN_POINT ( 'NONE',  ( 697.5000000000000000, 1.500000000000000000, 9.500000000000001776 ) ) ;
#610 = VECTOR ( 'NONE', #547, 1000.000000000000000 ) ;
#611 = CIRCLE ( 'NONE', #704, 2.749999999999999112 ) ;
#612 = CARTESIAN_POINT ( 'NONE',  ( 2.749999999999997780, 0.0000000000000000000, 9.500000000000000000 ) ) ;
#613 = FACE_BOUND ( 'NONE', #458, .T. ) ;
#614 = EDGE_CURVE ( 'NONE', #1047, #202, #128, .T. ) ;
#615 = EDGE_LOOP ( 'NONE', ( #707, #775, #389, #400 ) ) ;
#616 = ORIENTED_EDGE ( 'NONE', *, *, #687, .F. ) ;
#617 = CARTESIAN_POINT ( 'NONE',  ( -697.5000000000000000, 0.0000000000000000000, 24.50000000000000000 ) ) ;
#618 = ORIENTED_EDGE ( 'NONE', *, *, #306, .T. ) ;
#619 = CARTESIAN_POINT ( 'NONE',  ( 747.5000000000000000, 1.500000000000000000, 3.000000000000001776 ) ) ;
#620 = CARTESIAN_POINT ( 'NONE',  ( -742.5000000000000000, 0.0000000000000000000, 35.00000000000000000 ) ) ;
#621 = AXIS2_PLACEMENT_3D ( 'NONE', #77, #164, #173 ) ;
#622 = CARTESIAN_POINT ( 'NONE',  ( 747.5000000000000000, 1.500000000000000000, 40.00000000000000000 ) ) ;
#623 = VECTOR ( 'NONE', #757, 1000.000000000000000 ) ;
#624 = VECTOR ( 'NONE', #861, 1000.000000000000000 ) ;
#625 = CARTESIAN_POINT ( 'NONE',  ( -694.7500000000000000, 1.500000000000000000, 24.50000000000000000 ) ) ;
#626 = CARTESIAN_POINT ( 'NONE',  ( 742.5000000000000000, 25.00000000000000000, 1.500000000000000000 ) ) ;
#627 = EDGE_LOOP ( 'NONE', ( #656, #293, #938, #818 ) ) ;
#628 = VERTEX_POINT ( 'NONE', #224 ) ;
#629 = EDGE_CURVE ( 'NONE', #527, #468, #506, .T. ) ;
#630 = ORIENTED_EDGE ( 'NONE', *, *, #54, .T. ) ;
#631 = DIRECTION ( 'NONE',  ( 0.0000000000000000000, -0.0000000000000000000, 1.000000000000000000 ) ) ;
#632 = DIRECTION ( 'NONE',  ( 0.0000000000000000000, 0.0000000000000000000, 1.000000000000000000 ) ) ;
#633 = DIRECTION ( 'NONE',  ( -0.0000000000000000000, 1.000000000000000000, -0.0000000000000000000 ) ) ;
#634 = EDGE_CURVE ( 'NONE', #94, #955, #1034, .T. ) ;
#635 =( GEOMETRIC_REPRESENTATION_CONTEXT ( 3 ) GLOBAL_UNCERTAINTY_ASSIGNED_CONTEXT ( ( #682 ) ) GLOBAL_UNIT_ASSIGNED_CONTEXT ( ( #743, #342, #350 ) ) REPRESENTATION_CONTEXT ( 'NONE', 'WORKASPACE' ) );
#636 = CARTESIAN_POINT ( 'NONE',  ( 697.5000000000000000, 0.0000000000000000000, 24.50000000000000000 ) ) ;
#637 = CARTESIAN_POINT ( 'NONE',  ( 700.2500000000000000, 0.0000000000000000000, 24.50000000000000000 ) ) ;
#638 = LINE ( 'NONE', #310, #800 ) ;
#639 = LINE ( 'NONE', #184, #220 ) ;
#640 = ORIENTED_EDGE ( 'NONE', *, *, #971, .F. ) ;
#641 = CARTESIAN_POINT ( 'NONE',  ( 747.5000000000000000, 0.0000000000000000000, 0.0000000000000000000 ) ) ;
#642 = ORIENTED_EDGE ( 'NONE', *, *, #795, .T. ) ;
#643 = DIRECTION ( 'NONE',  ( 0.0000000000000000000, 0.0000000000000000000, 1.000000000000000000 ) ) ;
#644 = ORIENTED_EDGE ( 'NONE', *, *, #787, .T. ) ;
#645 = ORIENTED_EDGE ( 'NONE', *, *, #770, .T. ) ;
#646 = AXIS2_PLACEMENT_3D ( 'NONE', #1030, #454, #1032 ) ;
#647 = CARTESIAN_POINT ( 'NONE',  ( -747.5000000000000000, 20.00000000000000000, 0.0000000000000000000 ) ) ;
#648 =( LENGTH_UNIT ( ) NAMED_UNIT ( * ) SI_UNIT ( .MILLI., .METRE. ) );
#649 = CARTESIAN_POINT ( 'NONE',  ( 747.5000000000000000, 20.00000000000000000, 0.0000000000000000000 ) ) ;
#650 = PRODUCT ( '03_060_sheetmetal security cover', '03_060_sheetmetal security cover', '', ( #419 ) ) ;
#651 = AXIS2_PLACEMENT_3D ( 'NONE', #521, #778, #940 ) ;
#652 = FACE_OUTER_BOUND ( 'NONE', #295, .T. ) ;
#653 = DIRECTION ( 'NONE',  ( 0.0000000000000000000, 0.0000000000000000000, 1.000000000000000000 ) ) ;
#654 = CARTESIAN_POINT ( 'NONE',  ( -700.2500000000000000, 0.0000000000000000000, 24.50000000000000000 ) ) ;
#655 = CIRCLE ( 'NONE', #436, 2.749999999999999112 ) ;
#656 = ORIENTED_EDGE ( 'NONE', *, *, #322, .F. ) ;
#657 = ORIENTED_EDGE ( 'NONE', *, *, #562, .F. ) ;
#658 = ADVANCED_FACE ( 'NONE', ( #492 ), #970, .T. ) ;
#659 = ORIENTED_EDGE ( 'NONE', *, *, #808, .T. ) ;
#660 = STYLED_ITEM ( 'NONE', ( #382 ), #693 ) ;
#661 = DIRECTION ( 'NONE',  ( 3.180326372624146997E-16, 0.0000000000000000000, 1.000000000000000000 ) ) ;
#662 = CARTESIAN_POINT ( 'NONE',  ( -747.5000000000000000, 1.500000000000000000, 3.000000000000001776 ) ) ;
#663 = DIRECTION ( 'NONE',  ( 0.0000000000000000000, 0.0000000000000000000, 1.000000000000000000 ) ) ;
#664 = CARTESIAN_POINT ( 'NONE',  ( 742.5000000000000000, 20.00000000000000000, 1.500000000000000000 ) ) ;
#665 = AXIS2_PLACEMENT_3D ( 'NONE', #1015, #446, #368 ) ;
#666 = CIRCLE ( 'NONE', #355, 5.000000000000004441 ) ;
#667 = VECTOR ( 'NONE', #391, 1000.000000000000000 ) ;
#668 = ORIENTED_EDGE ( 'NONE', *, *, #614, .F. ) ;
#669 = ORIENTED_EDGE ( 'NONE', *, *, #608, .F. ) ;
#670 = CARTESIAN_POINT ( 'NONE',  ( 747.5000000000000000, 0.0000000000000000000, 40.00000000000000000 ) ) ;
#671 = CARTESIAN_POINT ( 'NONE',  ( 697.5000000000000000, 0.0000000000000000000, 27.25000000000000000 ) ) ;
#672 = VECTOR ( 'NONE', #967, 1000.000000000000000 ) ;
#673 = EDGE_CURVE ( 'NONE', #159, #365, #349, .T. ) ;
#674 = DIRECTION ( 'NONE',  ( 0.0000000000000000000, 0.0000000000000000000, 1.000000000000000000 ) ) ;
#675 = CARTESIAN_POINT ( 'NONE',  ( -747.5000000000000000, 1.500000000000000000, 3.000000000000001776 ) ) ;
#676 = FACE_OUTER_BOUND ( 'NONE', #1013, .T. ) ;
#677 = ORIENTED_EDGE ( 'NONE', *, *, #837, .T. ) ;
#678 = ORIENTED_EDGE ( 'NONE', *, *, #284, .T. ) ;
#679 = VERTEX_POINT ( 'NONE', #538 ) ;
#680 = CARTESIAN_POINT ( 'NONE',  ( -747.5000000000000000, 1.500000000000000000, 35.00000000000000000 ) ) ;
#681 = ORIENTED_EDGE ( 'NONE', *, *, #240, .T. ) ;
#682 = UNCERTAINTY_MEASURE_WITH_UNIT (LENGTH_MEASURE( 1.000000000000000082E-05 ), #743, 'distance_accuracy_value', 'NONE');
#683 = EDGE_CURVE ( 'NONE', #98, #482, #74, .T. ) ;
#684 = CARTESIAN_POINT ( 'NONE',  ( -694.7500000000000000, 0.0000000000000000000, 24.50000000000000000 ) ) ;
#685 = LINE ( 'NONE', #504, #742 ) ;
#686 = CIRCLE ( 'NONE', #689, 5.000000000000004441 ) ;
#687 = EDGE_CURVE ( 'NONE', #468, #933, #638, .T. ) ;
#688 = ORIENTED_EDGE ( 'NONE', *, *, #847, .F. ) ;
#689 = AXIS2_PLACEMENT_3D ( 'NONE', #959, #790, #462 ) ;
#690 = ORIENTED_EDGE ( 'NONE', *, *, #858, .F. ) ;
#691 = CARTESIAN_POINT ( 'NONE',  ( 694.7500000000000000, 0.0000000000000000000, 9.500000000000003553 ) ) ;
#692 = ORIENTED_EDGE ( 'NONE', *, *, #983, .T. ) ;
#693 = MANIFOLD_SOLID_BREP ( 'Verrundung1', #734 ) ;
#694 = EDGE_CURVE ( 'NONE', #605, #390, #897, .T. ) ;
#695 = AXIS2_PLACEMENT_3D ( 'NONE', #1052, #479, #972 ) ;
#696 = DIRECTION ( 'NONE',  ( 0.0000000000000000000, 0.0000000000000000000, 1.000000000000000000 ) ) ;
#697 = PRODUCT_DEFINITION_CONTEXT ( 'detailed design', #580, 'design' ) ;
#698 = CARTESIAN_POINT ( 'NONE',  ( 697.5000000000000000, 0.0000000000000000000, 27.25000000000000000 ) ) ;
#699 = VECTOR ( 'NONE', #799, 1000.000000000000000 ) ;
#700 = CARTESIAN_POINT ( 'NONE',  ( -697.5000000000000000, 0.0000000000000000000, 9.500000000000001776 ) ) ;
#701 = FACE_BOUND ( 'NONE', #279, .T. ) ;
#702 = DIRECTION ( 'NONE',  ( -1.000000000000000000, -0.0000000000000000000, -0.0000000000000000000 ) ) ;
#703 = VECTOR ( 'NONE', #797, 1000.000000000000000 ) ;
#704 = AXIS2_PLACEMENT_3D ( 'NONE', #740, #827, #925 ) ;
#705 = VERTEX_POINT ( 'NONE', #152 ) ;
#706 = CARTESIAN_POINT ( 'NONE',  ( -747.5000000000000000, 0.0000000000000000000, 1.500000000000000000 ) ) ;
#707 = ORIENTED_EDGE ( 'NONE', *, *, #808, .F. ) ;
#708 = SURFACE_STYLE_USAGE ( .BOTH. , #148 ) ;
#709 = DIRECTION ( 'NONE',  ( 0.0000000000000000000, 0.0000000000000000000, -1.000000000000000000 ) ) ;
#710 = EDGE_CURVE ( 'NONE', #159, #390, #299, .T. ) ;
#711 = AXIS2_PLACEMENT_3D ( 'NONE', #177, #583, #339 ) ;
#712 = CARTESIAN_POINT ( 'NONE',  ( 700.2500000000000000, 0.0000000000000000000, 9.500000000000000000 ) ) ;
#713 = FACE_OUTER_BOUND ( 'NONE', #211, .T. ) ;
#714 = CIRCLE ( 'NONE', #100, 2.749999999999999112 ) ;
#715 = DIRECTION ( 'NONE',  ( 0.0000000000000000000, 1.000000000000000000, 0.0000000000000000000 ) ) ;
#716 = ORIENTED_EDGE ( 'NONE', *, *, #549, .F. ) ;
#717 = ORIENTED_EDGE ( 'NONE', *, *, #973, .T. ) ;
#718 = AXIS2_PLACEMENT_3D ( 'NONE', #120, #375, #763 ) ;
#719 = ORIENTED_EDGE ( 'NONE', *, *, #1018, .T. ) ;
#720 = CARTESIAN_POINT ( 'NONE',  ( 747.5000000000000000, 25.00000000000000000, 0.0000000000000000000 ) ) ;
#721 = CARTESIAN_POINT ( 'NONE',  ( 1.959434878635764737E-15, 1.500000000000000000, 27.25000000000000000 ) ) ;
#722 = ORIENTED_EDGE ( 'NONE', *, *, #974, .T. ) ;
#723 = DIRECTION ( 'NONE',  ( 0.0000000000000000000, 0.0000000000000000000, 1.000000000000000000 ) ) ;
#724 = DIRECTION ( 'NONE',  ( 0.0000000000000000000, 1.000000000000000000, 0.0000000000000000000 ) ) ;
#725 = EDGE_CURVE ( 'NONE', #149, #1047, #949, .T. ) ;
#726 = VECTOR ( 'NONE', #60, 1000.000000000000000 ) ;
#727 = VECTOR ( 'NONE', #237, 1000.000000000000000 ) ;
#728 = LINE ( 'NONE', #792, #467 ) ;
#729 = APPLICATION_CONTEXT ( 'automotive_design' ) ;
#730 = ORIENTED_EDGE ( 'NONE', *, *, #284, .F. ) ;
#731 = CARTESIAN_POINT ( 'NONE',  ( 742.5000000000000000, 0.0000000000000000000, 35.00000000000000000 ) ) ;
#732 = ADVANCED_FACE ( 'NONE', ( #713 ), #536, .F. ) ;
#733 = EDGE_CURVE ( 'NONE', #264, #212, #1009, .T. ) ;
#734 = CLOSED_SHELL ( 'NONE', ( #990, #21, #253, #658, #755, #260, #16, #998, #274, #919, #579, #503, #738, #269, #344, #909, #2, #932, #732, #360, #995, #745, #586, #180, #831, #199, #497, #352, #1062, #101, #573, #191, #170 ) ) ;
#735 = CARTESIAN_POINT ( 'NONE',  ( -742.5000000000000000, 0.0000000000000000000, 40.00000000000000000 ) ) ;
#736 = PRODUCT_DEFINITION_SHAPE ( 'NONE', 'NONE',  #255 ) ;
#737 = DIRECTION ( 'NONE',  ( -0.0000000000000000000, -0.0000000000000000000, 1.000000000000000000 ) ) ;
#738 = ADVANCED_FACE ( 'NONE', ( #409 ), #1053, .T. ) ;
#739 = DIRECTION ( 'NONE',  ( -0.0000000000000000000, 1.000000000000000000, -0.0000000000000000000 ) ) ;
#740 = CARTESIAN_POINT ( 'NONE',  ( 1.959434878635764737E-15, 1.500000000000000000, 24.50000000000000000 ) ) ;
#741 = AXIS2_PLACEMENT_3D ( 'NONE', #158, #394, #399 ) ;
#742 = VECTOR ( 'NONE', #105, 1000.000000000000000 ) ;
#743 =( LENGTH_UNIT ( ) NAMED_UNIT ( * ) SI_UNIT ( .MILLI., .METRE. ) );
#744 = CYLINDRICAL_SURFACE ( 'NONE', #369, 2.749999999999999112 ) ;
#745 = ADVANCED_FACE ( 'NONE', ( #652 ), #930, .F. ) ;
#746 = DIRECTION ( 'NONE',  ( 0.0000000000000000000, 0.0000000000000000000, -1.000000000000000000 ) ) ;
#747 = VERTEX_POINT ( 'NONE', #417 ) ;
#748 = ORIENTED_EDGE ( 'NONE', *, *, #733, .T. ) ;
#749 = FILL_AREA_STYLE_COLOUR ( '', #103 ) ;
#750 = DIRECTION ( 'NONE',  ( -1.000000000000000000, -0.0000000000000000000, -0.0000000000000000000 ) ) ;
#751 = ORIENTED_EDGE ( 'NONE', *, *, #974, .F. ) ;
#752 = EDGE_CURVE ( 'NONE', #303, #508, #685, .T. ) ;
#753 = DIRECTION ( 'NONE',  ( -1.000000000000000000, -0.0000000000000000000, -0.0000000000000000000 ) ) ;
#754 = AXIS2_PLACEMENT_3D ( 'NONE', #585, #110, #1007 ) ;
#755 = ADVANCED_FACE ( 'NONE', ( #451 ), #254, .T. ) ;
#756 = DIRECTION ( 'NONE',  ( -0.0000000000000000000, 1.000000000000000000, -0.0000000000000000000 ) ) ;
#757 = DIRECTION ( 'NONE',  ( 0.0000000000000000000, 1.000000000000000000, 0.0000000000000000000 ) ) ;
#758 = LINE ( 'NONE', #112, #475 ) ;
#759 =( GEOMETRIC_REPRESENTATION_CONTEXT ( 3 ) GLOBAL_UNCERTAINTY_ASSIGNED_CONTEXT ( ( #889 ) ) GLOBAL_UNIT_ASSIGNED_CONTEXT ( ( #232, #862, #380 ) ) REPRESENTATION_CONTEXT ( 'NONE', 'WORKASPACE' ) );
#760 = VECTOR ( 'NONE', #257, 1000.000000000000000 ) ;
#761 = LINE ( 'NONE', #603, #493 ) ;
#762 = ORIENTED_EDGE ( 'NONE', *, *, #770, .F. ) ;
#763 = DIRECTION ( 'NONE',  ( 0.0000000000000000000, 0.0000000000000000000, 1.000000000000000000 ) ) ;
#764 = ORIENTED_EDGE ( 'NONE', *, *, #428, .T. ) ;
#765 = ORIENTED_EDGE ( 'NONE', *, *, #710, .T. ) ;
#766 = ORIENTED_EDGE ( 'NONE', *, *, #780, .T. ) ;
#767 = EDGE_CURVE ( 'NONE', #857, #94, #809, .T. ) ;
#768 = DIRECTION ( 'NONE',  ( -0.0000000000000000000, 1.000000000000000000, 0.0000000000000000000 ) ) ;
#769 = CARTESIAN_POINT ( 'NONE',  ( 742.5000000000000000, 25.00000000000000000, 1.500000000000000000 ) ) ;
#770 = EDGE_CURVE ( 'NONE', #923, #494, #758, .T. ) ;
#771 = VECTOR ( 'NONE', #876, 1000.000000000000000 ) ;
#772 = CARTESIAN_POINT ( 'NONE',  ( 747.5000000000000000, 3.000000000000000000, 0.0000000000000000000 ) ) ;
#773 = AXIS2_PLACEMENT_3D ( 'NONE', #664, #1014, #277 ) ;
#774 = VECTOR ( 'NONE', #709, 1000.000000000000000 ) ;
#775 = ORIENTED_EDGE ( 'NONE', *, *, #537, .F. ) ;
#776 = ORIENTED_EDGE ( 'NONE', *, *, #439, .F. ) ;
#777 = ORIENTED_EDGE ( 'NONE', *, *, #1008, .F. ) ;
#778 = DIRECTION ( 'NONE',  ( 1.000000000000000000, -0.0000000000000000000, -0.0000000000000000000 ) ) ;
#779 = EDGE_LOOP ( 'NONE', ( #854, #669, #113, #791 ) ) ;
#780 = EDGE_CURVE ( 'NONE', #581, #527, #139, .T. ) ;
#781 = DIRECTION ( 'NONE',  ( 0.0000000000000000000, 0.0000000000000000000, 1.000000000000000000 ) ) ;
#782 = DIRECTION ( 'NONE',  ( 0.0000000000000000000, 0.0000000000000000000, 1.000000000000000000 ) ) ;
#783 = DIRECTION ( 'NONE',  ( 0.0000000000000000000, 0.0000000000000000000, 1.000000000000000000 ) ) ;
#784 = CARTESIAN_POINT ( 'NONE',  ( 747.5000000000000000, 3.000000000000000000, 1.500000000000000000 ) ) ;
#785 = LINE ( 'NONE', #588, #18 ) ;
#786 = LINE ( 'NONE', #832, #327 ) ;
#787 = EDGE_CURVE ( 'NONE', #923, #516, #785, .T. ) ;
#788 = FACE_OUTER_BOUND ( 'NONE', #447, .T. ) ;
#789 = ORIENTED_EDGE ( 'NONE', *, *, #874, .T. ) ;
#790 = DIRECTION ( 'NONE',  ( -0.0000000000000000000, -0.0000000000000000000, -1.000000000000000000 ) ) ;
#791 = ORIENTED_EDGE ( 'NONE', *, *, #634, .T. ) ;
#792 = CARTESIAN_POINT ( 'NONE',  ( -694.7500000000000000, 1.500000000000000000, 9.500000000000000000 ) ) ;
#793 = EDGE_LOOP ( 'NONE', ( #719, #853, #302, #318, #338 ) ) ;
#794 = DIRECTION ( 'NONE',  ( -0.0000000000000000000, 1.000000000000000000, -0.0000000000000000000 ) ) ;
#795 = EDGE_CURVE ( 'NONE', #494, #357, #577, .T. ) ;
#796 = CARTESIAN_POINT ( 'NONE',  ( 700.2500000000000000, 0.0000000000000000000, 24.50000000000000000 ) ) ;
#797 = DIRECTION ( 'NONE',  ( -1.000000000000000000, -0.0000000000000000000, -0.0000000000000000000 ) ) ;
#798 = DIRECTION ( 'NONE',  ( 0.0000000000000000000, 0.0000000000000000000, 1.000000000000000000 ) ) ;
#799 = DIRECTION ( 'NONE',  ( 0.0000000000000000000, 1.000000000000000000, 0.0000000000000000000 ) ) ;
#800 = VECTOR ( 'NONE', #878, 1000.000000000000000 ) ;
#801 = FACE_OUTER_BOUND ( 'NONE', #531, .T. ) ;
#802 = ORIENTED_EDGE ( 'NONE', *, *, #634, .F. ) ;
#803 = ORIENTED_EDGE ( 'NONE', *, *, #63, .T. ) ;
#804 = PLANE ( 'NONE',  #741 ) ;
#805 = EDGE_LOOP ( 'NONE', ( #520, #978, #64, #602 ) ) ;
#806 = CARTESIAN_POINT ( 'NONE',  ( -697.5000000000000000, 1.500000000000000000, 27.25000000000000000 ) ) ;
#807 = CARTESIAN_POINT ( 'NONE',  ( 742.5000000000000000, 1.500000000000000000, 35.00000000000000000 ) ) ;
#808 = EDGE_CURVE ( 'NONE', #508, #62, #275, .T. ) ;
#809 = CIRCLE ( 'NONE', #429, 2.749999999999999112 ) ;
#810 = LINE ( 'NONE', #565, #432 ) ;
#811 = CARTESIAN_POINT ( 'NONE',  ( -697.5000000000000000, 1.500000000000000000, 24.50000000000000000 ) ) ;
#812 = CARTESIAN_POINT ( 'NONE',  ( 694.7500000000000000, 1.500000000000000000, 9.500000000000005329 ) ) ;
#813 = EDGE_LOOP ( 'NONE', ( #943, #640, #353, #1061 ) ) ;
#814 = AXIS2_PLACEMENT_3D ( 'NONE', #43, #696, #393 ) ;
#815 = EDGE_LOOP ( 'NONE', ( #190, #951, #67, #161 ) ) ;
#816 = DIRECTION ( 'NONE',  ( 0.0000000000000000000, 1.000000000000000000, 0.0000000000000000000 ) ) ;
#817 = CARTESIAN_POINT ( 'NONE',  ( 747.5000000000000000, 1.500000000000000000, 40.00000000000000000 ) ) ;
#818 = ORIENTED_EDGE ( 'NONE', *, *, #601, .T. ) ;
#819 = APPLICATION_PROTOCOL_DEFINITION ( 'draft international standard', 'automotive_design', 1998, #729 ) ;
#820 = CARTESIAN_POINT ( 'NONE',  ( 697.5000000000000000, 1.500000000000000000, 27.25000000000000000 ) ) ;
#821 = AXIS2_PLACEMENT_3D ( 'NONE', #576, #195, #746 ) ;
#822 = LINE ( 'NONE', #735, #285 ) ;
#823 = VECTOR ( 'NONE', #354, 1000.000000000000000 ) ;
#824 = ORIENTED_EDGE ( 'NONE', *, *, #752, .T. ) ;
#825 = CARTESIAN_POINT ( 'NONE',  ( -2.632990618166809630E-15, 1.500000000000000000, 9.500000000000001776 ) ) ;
#826 = ORIENTED_EDGE ( 'NONE', *, *, #874, .F. ) ;
#827 = DIRECTION ( 'NONE',  ( 0.0000000000000000000, 1.000000000000000000, 0.0000000000000000000 ) ) ;
#828 = EDGE_CURVE ( 'NONE', #433, #1038, #219, .T. ) ;
#829 = ORIENTED_EDGE ( 'NONE', *, *, #328, .T. ) ;
#830 = AXIS2_PLACEMENT_3D ( 'NONE', #811, #816, #910 ) ;
#831 = ADVANCED_FACE ( 'NONE', ( #986 ), #596, .F. ) ;
#832 = CARTESIAN_POINT ( 'NONE',  ( -2.749999999999998224, 0.0000000000000000000, 24.50000000000000000 ) ) ;
#833 = DIRECTION ( 'NONE',  ( 1.000000000000000000, -0.0000000000000000000, -0.0000000000000000000 ) ) ;
#834 = CARTESIAN_POINT ( 'NONE',  ( 742.5000000000000000, 0.0000000000000000000, 40.00000000000000000 ) ) ;
#835 = EDGE_CURVE ( 'NONE', #143, #482, #563, .T. ) ;
#836 = CARTESIAN_POINT ( 'NONE',  ( -2.750000000000039524, 1.500000000000000000, 9.500000000000005329 ) ) ;
#837 = EDGE_CURVE ( 'NONE', #933, #433, #42, .T. ) ;
#838 = VECTOR ( 'NONE', #739, 1000.000000000000000 ) ;
#839 = LINE ( 'NONE', #203, #1044 ) ;
#840 = FACE_OUTER_BOUND ( 'NONE', #444, .T. ) ;
#841 = DIRECTION ( 'NONE',  ( 0.0000000000000000000, 1.000000000000000000, 0.0000000000000000000 ) ) ;
#842 = LINE ( 'NONE', #125, #578 ) ;
#843 = ORIENTED_EDGE ( 'NONE', *, *, #1024, .F. ) ;
#844 = VERTEX_POINT ( 'NONE', #836 ) ;
#845 = EDGE_CURVE ( 'NONE', #954, #329, #231, .T. ) ;
#846 = CARTESIAN_POINT ( 'NONE',  ( 2.749999999999997780, 0.0000000000000000000, 9.500000000000000000 ) ) ;
#847 = EDGE_CURVE ( 'NONE', #212, #954, #590, .T. ) ;
#848 = VECTOR ( 'NONE', #560, 1000.000000000000000 ) ;
#849 = DIRECTION ( 'NONE',  ( 0.0000000000000000000, 0.0000000000000000000, 1.000000000000000000 ) ) ;
#850 = DIRECTION ( 'NONE',  ( 0.0000000000000000000, -1.000000000000000000, -0.0000000000000000000 ) ) ;
#851 =( GEOMETRIC_REPRESENTATION_CONTEXT ( 3 ) GLOBAL_UNCERTAINTY_ASSIGNED_CONTEXT ( ( #863 ) ) GLOBAL_UNIT_ASSIGNED_CONTEXT ( ( #648, #181, #108 ) ) REPRESENTATION_CONTEXT ( 'NONE', 'WORKASPACE' ) );
#852 = FACE_OUTER_BOUND ( 'NONE', #292, .T. ) ;
#853 = ORIENTED_EDGE ( 'NONE', *, *, #48, .T. ) ;
#854 = ORIENTED_EDGE ( 'NONE', *, *, #178, .T. ) ;
#855 = CARTESIAN_POINT ( 'NONE',  ( 694.7500000000000000, 1.500000000000000000, 24.50000000000000000 ) ) ;
#856 = EDGE_LOOP ( 'NONE', ( #545, #982, #366, #424 ) ) ;
#857 = VERTEX_POINT ( 'NONE', #116 ) ;
#858 = EDGE_CURVE ( 'NONE', #414, #955, #524, .T. ) ;
#859 = DIRECTION ( 'NONE',  ( 3.180326372624146997E-16, 0.0000000000000000000, 1.000000000000000000 ) ) ;
#860 = DIRECTION ( 'NONE',  ( 0.0000000000000000000, 0.0000000000000000000, 1.000000000000000000 ) ) ;
#861 = DIRECTION ( 'NONE',  ( -0.0000000000000000000, 1.000000000000000000, -0.0000000000000000000 ) ) ;
#862 =( NAMED_UNIT ( * ) PLANE_ANGLE_UNIT ( ) SI_UNIT ( $, .RADIAN. ) );
#863 = UNCERTAINTY_MEASURE_WITH_UNIT (LENGTH_MEASURE( 1.000000000000000082E-05 ), #648, 'distance_accuracy_value', 'NONE');
#864 = EDGE_CURVE ( 'NONE', #390, #143, #839, .T. ) ;
#865 = DIRECTION ( 'NONE',  ( -0.0000000000000000000, 1.000000000000000000, -0.0000000000000000000 ) ) ;
#866 = AXIS2_PLACEMENT_3D ( 'NONE', #215, #300, #127 ) ;
#867 = CIRCLE ( 'NONE', #383, 2.750000000000000888 ) ;
#868 = FILL_AREA_STYLE ('',( #392 ) ) ;
#869 = FACE_BOUND ( 'NONE', #793, .T. ) ;
#870 = EDGE_LOOP ( 'NONE', ( #677, #304, #36, #281 ) ) ;
#871 = ORIENTED_EDGE ( 'NONE', *, *, #601, .F. ) ;
#872 = EDGE_LOOP ( 'NONE', ( #445, #345, #423, #920 ) ) ;
#873 = DIRECTION ( 'NONE',  ( -0.0000000000000000000, 1.000000000000000000, -0.0000000000000000000 ) ) ;
#874 = EDGE_CURVE ( 'NONE', #844, #935, #441, .T. ) ;
#875 = MECHANICAL_DESIGN_GEOMETRIC_PRESENTATION_REPRESENTATION (  '', ( #660 ), #759 ) ;
#876 = DIRECTION ( 'NONE',  ( 0.0000000000000000000, 0.0000000000000000000, 1.000000000000000000 ) ) ;
#877 = DIRECTION ( 'NONE',  ( 0.0000000000000000000, 0.0000000000000000000, -1.000000000000000000 ) ) ;
#878 = DIRECTION ( 'NONE',  ( 0.0000000000000000000, 0.0000000000000000000, -1.000000000000000000 ) ) ;
#879 = CARTESIAN_POINT ( 'NONE',  ( -2.749999999999998224, 1.500000000000000000, 24.50000000000000000 ) ) ;
#880 = CARTESIAN_POINT ( 'NONE',  ( 747.5000000000000000, 0.0000000000000000000, 35.00000000000000000 ) ) ;
#881 = LINE ( 'NONE', #245, #848 ) ;
#882 = DIRECTION ( 'NONE',  ( 0.0000000000000000000, 0.0000000000000000000, -1.000000000000000000 ) ) ;
#883 = VECTOR ( 'NONE', #702, 1000.000000000000000 ) ;
#884 = AXIS2_PLACEMENT_3D ( 'NONE', #817, #415, #97 ) ;
#885 = ORIENTED_EDGE ( 'NONE', *, *, #845, .F. ) ;
#886 = DIRECTION ( 'NONE',  ( -1.000000000000000000, 0.0000000000000000000, 0.0000000000000000000 ) ) ;
#887 = ORIENTED_EDGE ( 'NONE', *, *, #835, .F. ) ;
#888 = VERTEX_POINT ( 'NONE', #534 ) ;
#889 = UNCERTAINTY_MEASURE_WITH_UNIT (LENGTH_MEASURE( 1.000000000000000082E-05 ), #232, 'distance_accuracy_value', 'NONE');
#890 = CARTESIAN_POINT ( 'NONE',  ( -747.5000000000000000, 3.000000000000000000, 3.000000000000001332 ) ) ;
#891 = ORIENTED_EDGE ( 'NONE', *, *, #137, .T. ) ;
#892 = AXIS2_PLACEMENT_3D ( 'NONE', #513, #38, #849 ) ;
#893 = CARTESIAN_POINT ( 'NONE',  ( -2.750000000000002665, 0.0000000000000000000, 9.500000000000003553 ) ) ;
#894 = DIRECTION ( 'NONE',  ( -0.0000000000000000000, 1.000000000000000000, 0.0000000000000000000 ) ) ;
#895 = PLANE ( 'NONE',  #106 ) ;
#896 = CARTESIAN_POINT ( 'NONE',  ( 742.5000000000000000, 0.0000000000000000000, 40.00000000000000000 ) ) ;
#897 = CIRCLE ( 'NONE', #918, 2.750000000000000888 ) ;
#898 = EDGE_CURVE ( 'NONE', #332, #202, #1054, .T. ) ;
#899 = DIRECTION ( 'NONE',  ( -0.0000000000000000000, 1.000000000000000000, 0.0000000000000000000 ) ) ;
#900 = FACE_OUTER_BOUND ( 'NONE', #122, .T. ) ;
#901 = AXIS2_PLACEMENT_3D ( 'NONE', #459, #305, #461 ) ;
#902 = CYLINDRICAL_SURFACE ( 'NONE', #129, 2.750000000000000888 ) ;
#903 = CARTESIAN_POINT ( 'NONE',  ( 747.5000000000000000, 3.000000000000000000, 0.0000000000000000000 ) ) ;
#904 = EDGE_LOOP ( 'NONE', ( #776, #213, #321, #730 ) ) ;
#905 = DIRECTION ( 'NONE',  ( 0.0000000000000000000, 0.0000000000000000000, 1.000000000000000000 ) ) ;
#906 = ORIENTED_EDGE ( 'NONE', *, *, #558, .F. ) ;
#907 = DIRECTION ( 'NONE',  ( -3.180326372624146504E-16, 0.0000000000000000000, -1.000000000000000000 ) ) ;
#908 = VERTEX_POINT ( 'NONE', #367 ) ;
#909 = ADVANCED_FACE ( 'NONE', ( #852 ), #530, .T. ) ;
#910 = DIRECTION ( 'NONE',  ( 0.0000000000000000000, 0.0000000000000000000, 1.000000000000000000 ) ) ;
#911 = DIRECTION ( 'NONE',  ( -0.0000000000000000000, 1.000000000000000000, -0.0000000000000000000 ) ) ;
#912 = CIRCLE ( 'NONE', #830, 2.749999999999999112 ) ;
#913 = DIRECTION ( 'NONE',  ( 0.0000000000000000000, 1.000000000000000000, 0.0000000000000000000 ) ) ;
#914 = CARTESIAN_POINT ( 'NONE',  ( -694.7500000000000000, 0.0000000000000000000, 9.500000000000000000 ) ) ;
#915 = VECTOR ( 'NONE', #440, 1000.000000000000000 ) ;
#916 = EDGE_CURVE ( 'NONE', #433, #937, #999, .T. ) ;
#917 = ORIENTED_EDGE ( 'NONE', *, *, #864, .F. ) ;
#918 = AXIS2_PLACEMENT_3D ( 'NONE', #609, #218, #782 ) ;
#919 = ADVANCED_FACE ( 'NONE', ( #372 ), #946, .T. ) ;
#920 = ORIENTED_EDGE ( 'NONE', *, *, #845, .T. ) ;
#921 = DIRECTION ( 'NONE',  ( 1.000000000000000000, 0.0000000000000000000, 0.0000000000000000000 ) ) ;
#922 = PLANE ( 'NONE',  #422 ) ;
#923 = VERTEX_POINT ( 'NONE', #55 ) ;
#924 = CARTESIAN_POINT ( 'NONE',  ( 700.2500000000000000, 1.500000000000000000, 24.50000000000000000 ) ) ;
#925 = DIRECTION ( 'NONE',  ( 0.0000000000000000000, 0.0000000000000000000, 1.000000000000000000 ) ) ;
#926 = EDGE_CURVE ( 'NONE', #1027, #329, #326, .T. ) ;
#927 = AXIS2_PLACEMENT_3D ( 'NONE', #31, #768, #597 ) ;
#928 = DIRECTION ( 'NONE',  ( 1.000000000000000000, 0.0000000000000000000, -3.180326372624146504E-16 ) ) ;
#929 = DIRECTION ( 'NONE',  ( 3.180326372624146997E-16, 0.0000000000000000000, 1.000000000000000000 ) ) ;
#930 = CYLINDRICAL_SURFACE ( 'NONE', #711, 2.750000000000000888 ) ;
#931 = VECTOR ( 'NONE', #873, 1000.000000000000000 ) ;
#932 = ADVANCED_FACE ( 'NONE', ( #155 ), #464, .F. ) ;
#933 = VERTEX_POINT ( 'NONE', #551 ) ;
#934 = EDGE_CURVE ( 'NONE', #94, #496, #961, .T. ) ;
#935 = VERTEX_POINT ( 'NONE', #879 ) ;
#936 = CARTESIAN_POINT ( 'NONE',  ( -2.750000000000002665, 1.500000000000000000, 9.500000000000003553 ) ) ;
#937 = VERTEX_POINT ( 'NONE', #320 ) ;
#938 = ORIENTED_EDGE ( 'NONE', *, *, #208, .T. ) ;
#939 = FACE_BOUND ( 'NONE', #570, .T. ) ;
#940 = DIRECTION ( 'NONE',  ( 0.0000000000000000000, 0.0000000000000000000, 1.000000000000000000 ) ) ;
#941 = LINE ( 'NONE', #519, #624 ) ;
#942 = EDGE_LOOP ( 'NONE', ( #25, #162, #690, #374, #543 ) ) ;
#943 = ORIENTED_EDGE ( 'NONE', *, *, #683, .F. ) ;
#944 = AXIS2_PLACEMENT_3D ( 'NONE', #997, #346, #92 ) ;
#945 = EDGE_LOOP ( 'NONE', ( #843, #130, #766, #542, #569, #76 ) ) ;
#946 = PLANE ( 'NONE',  #814 ) ;
#947 = EDGE_CURVE ( 'NONE', #937, #47, #311, .T. ) ;
#948 = PRESENTATION_STYLE_ASSIGNMENT (( #270 ) ) ;
#949 = CIRCLE ( 'NONE', #418, 4.999999999999997335 ) ;
#950 = VECTOR ( 'NONE', #882, 1000.000000000000000 ) ;
#951 = ORIENTED_EDGE ( 'NONE', *, *, #104, .T. ) ;
#952 = CARTESIAN_POINT ( 'NONE',  ( 697.5000000000000000, 0.0000000000000000000, 24.50000000000000000 ) ) ;
#953 = ORIENTED_EDGE ( 'NONE', *, *, #607, .T. ) ;
#954 = VERTEX_POINT ( 'NONE', #472 ) ;
#955 = VERTEX_POINT ( 'NONE', #625 ) ;
#956 = AXIS2_PLACEMENT_3D ( 'NONE', #700, #230, #781 ) ;
#957 = DIRECTION ( 'NONE',  ( -0.0000000000000000000, 1.000000000000000000, -0.0000000000000000000 ) ) ;
#958 = CARTESIAN_POINT ( 'NONE',  ( 694.7500000000000000, 0.0000000000000000000, 9.500000000000003553 ) ) ;
#959 = CARTESIAN_POINT ( 'NONE',  ( -742.5000000000000000, 20.00000000000000000, 0.0000000000000000000 ) ) ;
#960 = EDGE_CURVE ( 'NONE', #679, #494, #88, .T. ) ;
#961 = LINE ( 'NONE', #384, #672 ) ;
#962 = CARTESIAN_POINT ( 'NONE',  ( 2.750000000000002665, 0.0000000000000000000, 24.50000000000000000 ) ) ;
#963 = VECTOR ( 'NONE', #981, 1000.000000000000000 ) ;
#964 = CARTESIAN_POINT ( 'NONE',  ( -694.7500000000000000, 0.0000000000000000000, 9.500000000000000000 ) ) ;
#965 = CYLINDRICAL_SURFACE ( 'NONE', #282, 5.000000000000004441 ) ;
#966 = ORIENTED_EDGE ( 'NONE', *, *, #752, .F. ) ;
#967 = DIRECTION ( 'NONE',  ( -3.180326372624146504E-16, -0.0000000000000000000, -1.000000000000000000 ) ) ;
#968 = ORIENTED_EDGE ( 'NONE', *, *, #522, .T. ) ;
#969 = CARTESIAN_POINT ( 'NONE',  ( -747.5000000000000000, 1.500000000000000000, 40.00000000000000000 ) ) ;
#970 = PLANE ( 'NONE',  #379 ) ;
#971 = EDGE_CURVE ( 'NONE', #365, #98, #491, .T. ) ;
#972 = DIRECTION ( 'NONE',  ( 0.0000000000000000000, 0.0000000000000000000, 1.000000000000000000 ) ) ;
#973 = EDGE_CURVE ( 'NONE', #357, #414, #912, .T. ) ;
#974 = EDGE_CURVE ( 'NONE', #149, #469, #514, .T. ) ;
#975 = LINE ( 'NONE', #784, #883 ) ;
#976 = CARTESIAN_POINT ( 'NONE',  ( 747.5000000000000000, 3.000000000000000000, 1.500000000000000000 ) ) ;
#977 = VERTEX_POINT ( 'NONE', #796 ) ;
#978 = ORIENTED_EDGE ( 'NONE', *, *, #1008, .T. ) ;
#979 = ORIENTED_EDGE ( 'NONE', *, *, #847, .T. ) ;
#980 = CARTESIAN_POINT ( 'NONE',  ( -697.5000000000000000, 1.500000000000000000, 9.500000000000001776 ) ) ;
#981 = DIRECTION ( 'NONE',  ( -0.0000000000000000000, 1.000000000000000000, -0.0000000000000000000 ) ) ;
#982 = ORIENTED_EDGE ( 'NONE', *, *, #683, .T. ) ;
#983 = EDGE_CURVE ( 'NONE', #705, #747, #539, .T. ) ;
#984 = DIRECTION ( 'NONE',  ( 0.0000000000000000000, 0.0000000000000000000, 1.000000000000000000 ) ) ;
#985 = DIRECTION ( 'NONE',  ( -3.180326372624146504E-16, -0.0000000000000000000, -1.000000000000000000 ) ) ;
#986 = FACE_OUTER_BOUND ( 'NONE', #50, .T. ) ;
#987 = DIRECTION ( 'NONE',  ( 1.000000000000000000, 0.0000000000000000000, 0.0000000000000000000 ) ) ;
#988 = LINE ( 'NONE', #626, #774 ) ;
#989 = ORIENTED_EDGE ( 'NONE', *, *, #247, .F. ) ;
#990 = ADVANCED_FACE ( 'NONE', ( #57 ), #463, .F. ) ;
#991 = ORIENTED_EDGE ( 'NONE', *, *, #14, .T. ) ;
#992 = ORIENTED_EDGE ( 'NONE', *, *, #153, .T. ) ;
#993 = ORIENTED_EDGE ( 'NONE', *, *, #996, .T. ) ;
#994 = DIRECTION ( 'NONE',  ( 0.0000000000000000000, -1.000000000000000000, -0.0000000000000000000 ) ) ;
#995 = ADVANCED_FACE ( 'NONE', ( #117 ), #405, .F. ) ;
#996 = EDGE_CURVE ( 'NONE', #1025, #517, #1042, .T. ) ;
#997 = CARTESIAN_POINT ( 'NONE',  ( 1.959434878635764737E-15, 1.500000000000000000, 24.50000000000000000 ) ) ;
#998 = ADVANCED_FACE ( 'NONE', ( #72 ), #895, .F. ) ;
#999 = LINE ( 'NONE', #69, #771 ) ;
#1000 = CARTESIAN_POINT ( 'NONE',  ( -700.2500000000000000, 0.0000000000000000000, 9.500000000000003553 ) ) ;
#1001 = CARTESIAN_POINT ( 'NONE',  ( 747.5000000000000000, 20.00000000000000000, 3.000000000000001332 ) ) ;
#1002 = LINE ( 'NONE', #216, #667 ) ;
#1003 = ORIENTED_EDGE ( 'NONE', *, *, #694, .F. ) ;
#1004 = ORIENTED_EDGE ( 'NONE', *, *, #983, .F. ) ;
#1005 = ORIENTED_EDGE ( 'NONE', *, *, #294, .T. ) ;
#1006 = CARTESIAN_POINT ( 'NONE',  ( 697.5000000000000000, 0.0000000000000000000, 24.50000000000000000 ) ) ;
#1007 = DIRECTION ( 'NONE',  ( -1.000000000000000000, 0.0000000000000000000, 0.0000000000000000000 ) ) ;
#1008 = EDGE_CURVE ( 'NONE', #47, #1038, #523, .T. ) ;
#1009 = CIRCLE ( 'NONE', #187, 2.749999999999999112 ) ;
#1010 = FACE_BOUND ( 'NONE', #942, .T. ) ;
#1011 = FACE_OUTER_BOUND ( 'NONE', #262, .T. ) ;
#1012 = EDGE_CURVE ( 'NONE', #516, #357, #272, .T. ) ;
#1013 = EDGE_LOOP ( 'NONE', ( #134, #23, #716, #364 ) ) ;
#1014 = DIRECTION ( 'NONE',  ( 0.0000000000000000000, 0.0000000000000000000, 1.000000000000000000 ) ) ;
#1015 = CARTESIAN_POINT ( 'NONE',  ( 697.5000000000000000, 0.0000000000000000000, 24.50000000000000000 ) ) ;
#1016 = EDGE_LOOP ( 'NONE', ( #642, #1046, #24, #645 ) ) ;
#1017 = ORIENTED_EDGE ( 'NONE', *, *, #196, .T. ) ;
#1018 = EDGE_CURVE ( 'NONE', #977, #908, #256, .T. ) ;
#1019 = DIRECTION ( 'NONE',  ( -1.000000000000000000, -0.0000000000000000000, -0.0000000000000000000 ) ) ;
#1020 = AXIS2_PLACEMENT_3D ( 'NONE', #980, #157, #241 ) ;
#1021 = VECTOR ( 'NONE', #957, 1000.000000000000000 ) ;
#1022 = VECTOR ( 'NONE', #865, 1000.000000000000000 ) ;
#1023 = ORIENTED_EDGE ( 'NONE', *, *, #48, .F. ) ;
#1024 = EDGE_CURVE ( 'NONE', #174, #332, #881, .T. ) ;
#1025 = VERTEX_POINT ( 'NONE', #903 ) ;
#1026 = EDGE_CURVE ( 'NONE', #98, #977, #370, .T. ) ;
#1027 = VERTEX_POINT ( 'NONE', #167 ) ;
#1028 = CARTESIAN_POINT ( 'NONE',  ( -697.5000000000000000, 0.0000000000000000000, 27.25000000000000000 ) ) ;
#1029 = ORIENTED_EDGE ( 'NONE', *, *, #500, .F. ) ;
#1030 = CARTESIAN_POINT ( 'NONE',  ( 1.959434878635764737E-15, 0.0000000000000000000, 24.50000000000000000 ) ) ;
#1031 = EDGE_CURVE ( 'NONE', #264, #402, #474, .T. ) ;
#1032 = DIRECTION ( 'NONE',  ( 0.0000000000000000000, 0.0000000000000000000, 1.000000000000000000 ) ) ;
#1033 = AXIS2_PLACEMENT_3D ( 'NONE', #3, #193, #921 ) ;
#1034 = LINE ( 'NONE', #52, #931 ) ;
#1035 = FACE_OUTER_BOUND ( 'NONE', #132, .T. ) ;
#1036 = ORIENTED_EDGE ( 'NONE', *, *, #1031, .T. ) ;
#1037 = CARTESIAN_POINT ( 'NONE',  ( -2.750000000000002665, 0.0000000000000000000, 9.500000000000003553 ) ) ;
#1038 = VERTEX_POINT ( 'NONE', #647 ) ;
#1039 = AXIS2_PLACEMENT_3D ( 'NONE', #431, #833, #674 ) ;
#1040 = DIRECTION ( 'NONE',  ( 0.0000000000000000000, 0.0000000000000000000, -1.000000000000000000 ) ) ;
#1041 = AXIS2_PLACEMENT_3D ( 'NONE', #175, #182, #343 ) ;
#1042 = LINE ( 'NONE', #641, #450 ) ;
#1043 = DIRECTION ( 'NONE',  ( 0.0000000000000000000, 0.0000000000000000000, -1.000000000000000000 ) ) ;
#1044 = VECTOR ( 'NONE', #929, 1000.000000000000000 ) ;
#1045 = VECTOR ( 'NONE', #1040, 1000.000000000000000 ) ;
#1046 = ORIENTED_EDGE ( 'NONE', *, *, #1012, .F. ) ;
#1047 = VERTEX_POINT ( 'NONE', #183 ) ;
#1048 = DIRECTION ( 'NONE',  ( 1.000000000000000000, 0.0000000000000000000, 0.0000000000000000000 ) ) ;
#1049 = VERTEX_POINT ( 'NONE', #924 ) ;
#1050 = AXIS2_PLACEMENT_3D ( 'NONE', #265, #987, #567 ) ;
#1051 = DIRECTION ( 'NONE',  ( -1.000000000000000000, -0.0000000000000000000, -0.0000000000000000000 ) ) ;
#1052 = CARTESIAN_POINT ( 'NONE',  ( -697.5000000000000000, 0.0000000000000000000, 24.50000000000000000 ) ) ;
#1053 = PLANE ( 'NONE',  #550 ) ;
#1054 = LINE ( 'NONE', #131, #599 ) ;
#1055 = EDGE_CURVE ( 'NONE', #329, #844, #186, .T. ) ;
#1056 = CIRCLE ( 'NONE', #221, 1.500000000000000000 ) ;
#1057 = CARTESIAN_POINT ( 'NONE',  ( -2.632990618166809630E-15, 0.0000000000000000000, 9.500000000000001776 ) ) ;
#1058 = CIRCLE ( 'NONE', #486, 1.500000000000000000 ) ;
#1059 = ORIENTED_EDGE ( 'NONE', *, *, #228, .T. ) ;
#1060 = ORIENTED_EDGE ( 'NONE', *, *, #522, .F. ) ;
#1061 = ORIENTED_EDGE ( 'NONE', *, *, #835, .T. ) ;
#1062 = ADVANCED_FACE ( 'NONE', ( #489 ), #425, .F. ) ;
#1063 = EDGE_CURVE ( 'NONE', #469, #527, #822, .T. ) ;
ENDSEC;
END-ISO-10303-21;
