ISO-10303-21;
HEADER;
FILE_DESCRIPTION (( 'STEP AP214' ),
    '1' );
FILE_NAME ('03_028_sheetmetal handle.STEP',
    '2020-09-16T14:23:20',
    ( '' ),
    ( '' ),
    'SwSTEP 2.0',
    'SolidWorks 2018',
    '' );
FILE_SCHEMA (( 'AUTOMOTIVE_DESIGN' ));
ENDSEC;

DATA;
#1 = PRODUCT_RELATED_PRODUCT_CATEGORY ( 'part', '', ( #408 ) ) ;
#2 = DIRECTION ( 'NONE',  ( -0.7431448254773931339, -0.0000000000000000000, -0.6691306063588593478 ) ) ;
#3 = LINE ( 'NONE', #142, #325 ) ;
#4 = CARTESIAN_POINT ( 'NONE',  ( 0.0000000000000000000, -3.000000000000000000, 0.0000000000000000000 ) ) ;
#5 = SURFACE_STYLE_FILL_AREA ( #551 ) ;
#6 = CARTESIAN_POINT ( 'NONE',  ( 9.000000000000001776, -3.000000000000000000, -2.249999999999999556 ) ) ;
#7 = FACE_OUTER_BOUND ( 'NONE', #129, .T. ) ;
#8 = CIRCLE ( 'NONE', #500, 1.000000000000000888 ) ;
#9 = CARTESIAN_POINT ( 'NONE',  ( 17.99999999999998934, 0.0000000000000000000, -17.50000000000000000 ) ) ;
#10 = CARTESIAN_POINT ( 'NONE',  ( 20.99999999999999289, -3.000000000000000000, -9.250000000000000000 ) ) ;
#11 = ADVANCED_FACE ( 'NONE', ( #468 ), #692, .T. ) ;
#12 = VERTEX_POINT ( 'NONE', #64 ) ;
#13 = DIRECTION ( 'NONE',  ( 0.0000000000000000000, 0.0000000000000000000, -1.000000000000000000 ) ) ;
#14 = EDGE_CURVE ( 'NONE', #58, #164, #239, .T. ) ;
#15 = ORIENTED_EDGE ( 'NONE', *, *, #748, .F. ) ;
#16 = CARTESIAN_POINT ( 'NONE',  ( 17.99999999999998934, -3.000000000000000000, -17.50000000000000000 ) ) ;
#17 = CARTESIAN_POINT ( 'NONE',  ( 1.000000000000002665, 0.0000000000000000000, 17.50000000000000000 ) ) ;
#18 = PLANE ( 'NONE',  #193 ) ;
#19 = FACE_OUTER_BOUND ( 'NONE', #652, .T. ) ;
#20 = DIRECTION ( 'NONE',  ( 0.0000000000000000000, 0.0000000000000000000, -1.000000000000000000 ) ) ;
#21 = CARTESIAN_POINT ( 'NONE',  ( 19.99999999999999645, 0.0000000000000000000, -9.250000000000000000 ) ) ;
#22 = CARTESIAN_POINT ( 'NONE',  ( 9.000000000000001776, -3.000000000000000000, -2.249999999999999556 ) ) ;
#23 = VERTEX_POINT ( 'NONE', #123 ) ;
#24 = AXIS2_PLACEMENT_3D ( 'NONE', #10, #653, #651 ) ;
#25 = DIRECTION ( 'NONE',  ( -0.6691306063588594588, 0.0000000000000000000, 0.7431448254773930229 ) ) ;
#26 = DIRECTION ( 'NONE',  ( -0.0000000000000000000, 1.000000000000000000, 0.0000000000000000000 ) ) ;
#27 = FACE_OUTER_BOUND ( 'NONE', #525, .T. ) ;
#28 = DIRECTION ( 'NONE',  ( 0.0000000000000000000, 0.0000000000000000000, -1.000000000000000000 ) ) ;
#29 = EDGE_CURVE ( 'NONE', #597, #495, #740, .T. ) ;
#30 = ORIENTED_EDGE ( 'NONE', *, *, #654, .T. ) ;
#31 = ORIENTED_EDGE ( 'NONE', *, *, #517, .T. ) ;
#32 = PLANE ( 'NONE',  #539 ) ;
#33 = ADVANCED_FACE ( 'NONE', ( #143 ), #168, .F. ) ;
#34 =( NAMED_UNIT ( * ) SI_UNIT ( $, .STERADIAN. ) SOLID_ANGLE_UNIT ( ) );
#35 = ORIENTED_EDGE ( 'NONE', *, *, #210, .T. ) ;
#36 = CARTESIAN_POINT ( 'NONE',  ( 10.00000000000000178, -3.000000000000000000, -3.249999999999999556 ) ) ;
#37 = APPLICATION_CONTEXT ( 'automotive_design' ) ;
#38 = PLANE ( 'NONE',  #629 ) ;
#39 = VECTOR ( 'NONE', #255, 1000.000000000000000 ) ;
#40 = ORIENTED_EDGE ( 'NONE', *, *, #120, .F. ) ;
#41 =( LENGTH_UNIT ( ) NAMED_UNIT ( * ) SI_UNIT ( .MILLI., .METRE. ) );
#42 = AXIS2_PLACEMENT_3D ( 'NONE', #727, #300, #499 ) ;
#43 = ORIENTED_EDGE ( 'NONE', *, *, #733, .F. ) ;
#44 = DIRECTION ( 'NONE',  ( 0.0000000000000000000, 0.0000000000000000000, -1.000000000000000000 ) ) ;
#45 = DIRECTION ( 'NONE',  ( -0.0000000000000000000, -1.000000000000000000, 0.0000000000000000000 ) ) ;
#46 = EDGE_CURVE ( 'NONE', #537, #138, #713, .T. ) ;
#47 = LINE ( 'NONE', #542, #739 ) ;
#48 = ORIENTED_EDGE ( 'NONE', *, *, #358, .T. ) ;
#49 = PLANE ( 'NONE',  #585 ) ;
#50 = AXIS2_PLACEMENT_3D ( 'NONE', #111, #520, #716 ) ;
#51 = VERTEX_POINT ( 'NONE', #412 ) ;
#52 = DIRECTION ( 'NONE',  ( 0.0000000000000000000, 1.000000000000000000, 0.0000000000000000000 ) ) ;
#53 = CIRCLE ( 'NONE', #690, 4.250000000000000000 ) ;
#54 = EDGE_CURVE ( 'NONE', #231, #597, #649, .T. ) ;
#55 = FACE_OUTER_BOUND ( 'NONE', #410, .T. ) ;
#56 = ORIENTED_EDGE ( 'NONE', *, *, #454, .T. ) ;
#57 = CLOSED_SHELL ( 'NONE', ( #427, #70, #11, #762, #284, #717, #131, #443, #599, #584, #481, #490, #532, #406, #355, #610, #340, #60, #33, #292, #349, #642 ) ) ;
#58 = VERTEX_POINT ( 'NONE', #9 ) ;
#59 = ORIENTED_EDGE ( 'NONE', *, *, #343, .T. ) ;
#60 = ADVANCED_FACE ( 'NONE', ( #19 ), #723, .F. ) ;
#61 = DIRECTION ( 'NONE',  ( -0.0000000000000000000, -1.000000000000000000, 0.0000000000000000000 ) ) ;
#62 = VECTOR ( 'NONE', #541, 1000.000000000000000 ) ;
#63 = EDGE_CURVE ( 'NONE', #12, #548, #409, .T. ) ;
#64 = CARTESIAN_POINT ( 'NONE',  ( 13.75391214795814676, -3.000000000000000000, 28.98367407864090595 ) ) ;
#65 = DIRECTION ( 'NONE',  ( 0.0000000000000000000, 1.000000000000000000, -0.0000000000000000000 ) ) ;
#66 = VERTEX_POINT ( 'NONE', #285 ) ;
#67 = DIRECTION ( 'NONE',  ( 0.0000000000000000000, 0.0000000000000000000, -1.000000000000000000 ) ) ;
#68 = EDGE_CURVE ( 'NONE', #170, #151, #96, .T. ) ;
#69 = CARTESIAN_POINT ( 'NONE',  ( 85.35144164312221449, -3.000000000000000000, 73.26588825372506619 ) ) ;
#70 = ADVANCED_FACE ( 'NONE', ( #640 ), #368, .T. ) ;
#71 = VERTEX_POINT ( 'NONE', #645 ) ;
#72 = CARTESIAN_POINT ( 'NONE',  ( 8.999999999999998224, 0.0000000000000000000, -9.250000000000000000 ) ) ;
#73 = VECTOR ( 'NONE', #2, 1000.000000000000227 ) ;
#74 = FACE_OUTER_BOUND ( 'NONE', #99, .T. ) ;
#75 = DIRECTION ( 'NONE',  ( 0.0000000000000000000, -1.000000000000000000, -0.0000000000000000000 ) ) ;
#76 = DIRECTION ( 'NONE',  ( -0.0000000000000000000, -1.000000000000000000, 0.0000000000000000000 ) ) ;
#77 = EDGE_LOOP ( 'NONE', ( #661, #637 ) ) ;
#78 = AXIS2_PLACEMENT_3D ( 'NONE', #69, #479, #240 ) ;
#79 = VERTEX_POINT ( 'NONE', #341 ) ;
#80 = DIRECTION ( 'NONE',  ( -0.0000000000000000000, -1.000000000000000000, -0.0000000000000000000 ) ) ;
#81 = ORIENTED_EDGE ( 'NONE', *, *, #695, .T. ) ;
#82 = DIRECTION ( 'NONE',  ( -0.7431448254773931339, -0.0000000000000000000, -0.6691306063588593478 ) ) ;
#83 = CARTESIAN_POINT ( 'NONE',  ( -33.08523029716201336, -3.000000000000000000, 81.00381186205839867 ) ) ;
#84 = VECTOR ( 'NONE', #75, 1000.000000000000000 ) ;
#85 = VECTOR ( 'NONE', #591, 1000.000000000000000 ) ;
#86 = DIRECTION ( 'NONE',  ( -1.000000000000000000, -0.0000000000000000000, -0.0000000000000000000 ) ) ;
#87 = VERTEX_POINT ( 'NONE', #588 ) ;
#88 =( LENGTH_UNIT ( ) NAMED_UNIT ( * ) SI_UNIT ( .MILLI., .METRE. ) );
#89 = UNCERTAINTY_MEASURE_WITH_UNIT (LENGTH_MEASURE( 1.000000000000000082E-05 ), #88, 'distance_accuracy_value', 'NONE');
#90 = ORIENTED_EDGE ( 'NONE', *, *, #327, .F. ) ;
#91 = CARTESIAN_POINT ( 'NONE',  ( 0.0000000000000000000, -3.000000000000000000, -17.50000000000000000 ) ) ;
#92 = AXIS2_PLACEMENT_3D ( 'NONE', #453, #45, #691 ) ;
#93 =( NAMED_UNIT ( * ) PLANE_ANGLE_UNIT ( ) SI_UNIT ( $, .RADIAN. ) );
#94 = DIRECTION ( 'NONE',  ( 0.0000000000000000000, 1.000000000000000000, -0.0000000000000000000 ) ) ;
#95 = EDGE_CURVE ( 'NONE', #548, #401, #158, .T. ) ;
#96 = CIRCLE ( 'NONE', #414, 15.00000000000001421 ) ;
#97 = ORIENTED_EDGE ( 'NONE', *, *, #370, .T. ) ;
#98 = ORIENTED_EDGE ( 'NONE', *, *, #358, .F. ) ;
#99 = EDGE_LOOP ( 'NONE', ( #31, #573, #312, #337 ) ) ;
#100 = EDGE_CURVE ( 'NONE', #241, #567, #423, .T. ) ;
#101 = SURFACE_SIDE_STYLE ('',( #236 ) ) ;
#102 = AXIS2_PLACEMENT_3D ( 'NONE', #209, #441, #505 ) ;
#103 = FACE_OUTER_BOUND ( 'NONE', #550, .T. ) ;
#104 = VECTOR ( 'NONE', #710, 1000.000000000000114 ) ;
#105 = DIRECTION ( 'NONE',  ( 0.0000000000000000000, 1.000000000000000000, -0.0000000000000000000 ) ) ;
#106 = AXIS2_PLACEMENT_3D ( 'NONE', #680, #157, #445 ) ;
#107 = ORIENTED_EDGE ( 'NONE', *, *, #442, .T. ) ;
#108 = CARTESIAN_POINT ( 'NONE',  ( 0.0000000000000000000, -3.000000000000000000, 0.0000000000000000000 ) ) ;
#109 = VERTEX_POINT ( 'NONE', #126 ) ;
#110 = VECTOR ( 'NONE', #137, 1000.000000000000000 ) ;
#111 = CARTESIAN_POINT ( 'NONE',  ( -33.08523029716201336, 0.0000000000000000000, 81.00381186205839867 ) ) ;
#112 = ORIENTED_EDGE ( 'NONE', *, *, #397, .F. ) ;
#113 = ORIENTED_EDGE ( 'NONE', *, *, #180, .F. ) ;
#114 = FACE_OUTER_BOUND ( 'NONE', #465, .T. ) ;
#115 = AXIS2_PLACEMENT_3D ( 'NONE', #175, #249, #656 ) ;
#116 = VECTOR ( 'NONE', #372, 1000.000000000000000 ) ;
#117 = DIRECTION ( 'NONE',  ( 0.0000000000000000000, -1.000000000000000000, 0.0000000000000000000 ) ) ;
#118 = ORIENTED_EDGE ( 'NONE', *, *, #134, .T. ) ;
#119 = CARTESIAN_POINT ( 'NONE',  ( 8.999999999999998224, 0.0000000000000000000, -9.250000000000000000 ) ) ;
#120 = EDGE_CURVE ( 'NONE', #730, #261, #47, .T. ) ;
#121 = ORIENTED_EDGE ( 'NONE', *, *, #530, .F. ) ;
#122 = ORIENTED_EDGE ( 'NONE', *, *, #199, .F. ) ;
#123 = CARTESIAN_POINT ( 'NONE',  ( 95.38840073850509782, 0.0000000000000000000, 62.11871587156415586 ) ) ;
#124 = CARTESIAN_POINT ( 'NONE',  ( 9.000000000000001776, 0.0000000000000000000, -3.249999999999999556 ) ) ;
#125 = AXIS2_PLACEMENT_3D ( 'NONE', #36, #508, #373 ) ;
#126 = CARTESIAN_POINT ( 'NONE',  ( 20.00000000000000000, 0.0000000000000000000, -2.249999999999999556 ) ) ;
#127 = CYLINDRICAL_SURFACE ( 'NONE', #125, 1.000000000000000000 ) ;
#128 = FACE_OUTER_BOUND ( 'NONE', #402, .T. ) ;
#129 = EDGE_LOOP ( 'NONE', ( #154, #621, #48, #59 ) ) ;
#130 = CARTESIAN_POINT ( 'NONE',  ( 1.000000000000002665, -3.000000000000000000, 17.50000000000000000 ) ) ;
#131 = ADVANCED_FACE ( 'NONE', ( #55 ), #345, .T. ) ;
#132 = VERTEX_POINT ( 'NONE', #607 ) ;
#133 = CARTESIAN_POINT ( 'NONE',  ( 0.0000000000000000000, 0.0000000000000000000, 0.0000000000000000000 ) ) ;
#134 = EDGE_CURVE ( 'NONE', #132, #66, #515, .T. ) ;
#135 = DIRECTION ( 'NONE',  ( 0.0000000000000000000, 1.000000000000000000, -0.0000000000000000000 ) ) ;
#136 = ORIENTED_EDGE ( 'NONE', *, *, #46, .F. ) ;
#137 = DIRECTION ( 'NONE',  ( 1.000000000000000000, 0.0000000000000000000, 0.0000000000000000000 ) ) ;
#138 = VERTEX_POINT ( 'NONE', #359 ) ;
#139 = DIRECTION ( 'NONE',  ( -0.0000000000000000000, -1.000000000000000000, -0.0000000000000000000 ) ) ;
#140 = EDGE_CURVE ( 'NONE', #730, #51, #758, .T. ) ;
#141 = CIRCLE ( 'NONE', #650, 4.250000000000000000 ) ;
#142 = CARTESIAN_POINT ( 'NONE',  ( 0.0000000000000000000, 0.001000000000000132727, -4.250000000000000000 ) ) ;
#143 = FACE_OUTER_BOUND ( 'NONE', #323, .T. ) ;
#144 = CARTESIAN_POINT ( 'NONE',  ( 0.0000000000000000000, -3.000000000000000000, -17.50000000000000000 ) ) ;
#145 = CARTESIAN_POINT ( 'NONE',  ( 75.31448254773931694, -3.000000000000000000, 84.41306063588596942 ) ) ;
#146 = AXIS2_PLACEMENT_3D ( 'NONE', #472, #536, #177 ) ;
#147 = CARTESIAN_POINT ( 'NONE',  ( 33.61738787282279617, 0.0000000000000000000, 6.499846066929714006 ) ) ;
#148 = CIRCLE ( 'NONE', #750, 1.000000000000000888 ) ;
#149 = ORIENTED_EDGE ( 'NONE', *, *, #397, .T. ) ;
#150 = FILL_AREA_STYLE_COLOUR ( '', #266 ) ;
#151 = VERTEX_POINT ( 'NONE', #303 ) ;
#152 = DIRECTION ( 'NONE',  ( 0.0000000000000000000, 0.0000000000000000000, -1.000000000000000000 ) ) ;
#153 = APPLICATION_CONTEXT ( 'automotive_design' ) ;
#154 = ORIENTED_EDGE ( 'NONE', *, *, #391, .F. ) ;
#155 = CARTESIAN_POINT ( 'NONE',  ( 8.999999999999998224, -3.000000000000000000, -9.250000000000000000 ) ) ;
#156 = DIRECTION ( 'NONE',  ( 0.0000000000000000000, 1.000000000000000000, -0.0000000000000000000 ) ) ;
#157 = DIRECTION ( 'NONE',  ( -0.0000000000000000000, -1.000000000000000000, 0.0000000000000000000 ) ) ;
#158 = CIRCLE ( 'NONE', #78, 15.00000000000001421 ) ;
#159 = DIRECTION ( 'NONE',  ( -1.000000000000000000, -0.0000000000000000000, -0.0000000000000000000 ) ) ;
#160 = DIRECTION ( 'NONE',  ( 0.0000000000000000000, 1.000000000000000000, 0.0000000000000000000 ) ) ;
#161 = EDGE_CURVE ( 'NONE', #527, #224, #380, .T. ) ;
#162 = DIRECTION ( 'NONE',  ( 0.0000000000000000000, -1.000000000000000000, 0.0000000000000000000 ) ) ;
#163 = COLOUR_RGB ( '',0.5294117647058823595, 0.5490196078431373028, 0.5490196078431373028 ) ;
#164 = VERTEX_POINT ( 'NONE', #558 ) ;
#165 = AXIS2_PLACEMENT_3D ( 'NONE', #620, #206, #265 ) ;
#166 = ORIENTED_EDGE ( 'NONE', *, *, #420, .F. ) ;
#167 = EDGE_CURVE ( 'NONE', #87, #51, #452, .T. ) ;
#168 = CYLINDRICAL_SURFACE ( 'NONE', #458, 1.000000000000000888 ) ;
#169 = EDGE_CURVE ( 'NONE', #567, #241, #524, .T. ) ;
#170 = VERTEX_POINT ( 'NONE', #194 ) ;
#171 =( GEOMETRIC_REPRESENTATION_CONTEXT ( 3 ) GLOBAL_UNCERTAINTY_ASSIGNED_CONTEXT ( ( #334 ) ) GLOBAL_UNIT_ASSIGNED_CONTEXT ( ( #263, #93, #677 ) ) REPRESENTATION_CONTEXT ( 'NONE', 'WORKASPACE' ) );
#172 = ORIENTED_EDGE ( 'NONE', *, *, #462, .T. ) ;
#173 = ORIENTED_EDGE ( 'NONE', *, *, #331, .T. ) ;
#174 = ORIENTED_EDGE ( 'NONE', *, *, #644, .F. ) ;
#175 = CARTESIAN_POINT ( 'NONE',  ( -33.08523029716201336, -3.000000000000000000, 81.00381186205839867 ) ) ;
#176 = EDGE_CURVE ( 'NONE', #23, #224, #669, .T. ) ;
#177 = DIRECTION ( 'NONE',  ( 0.0000000000000000000, 0.0000000000000000000, -1.000000000000000000 ) ) ;
#178 = VECTOR ( 'NONE', #390, 1000.000000000000000 ) ;
#179 = DIRECTION ( 'NONE',  ( 1.000000000000000000, 0.0000000000000000000, 0.0000000000000000000 ) ) ;
#180 = EDGE_CURVE ( 'NONE', #495, #463, #267, .T. ) ;
#181 = EDGE_LOOP ( 'NONE', ( #538, #470, #35, #222 ) ) ;
#182 = ORIENTED_EDGE ( 'NONE', *, *, #590, .T. ) ;
#183 = DIRECTION ( 'NONE',  ( 0.0000000000000000000, -1.000000000000000000, -0.0000000000000000000 ) ) ;
#184 = ORIENTED_EDGE ( 'NONE', *, *, #673, .T. ) ;
#185 = DIRECTION ( 'NONE',  ( -0.0000000000000000000, 0.0000000000000000000, 1.000000000000000000 ) ) ;
#186 = PRODUCT_DEFINITION_FORMATION_WITH_SPECIFIED_SOURCE ( 'ANY', '', #408, .NOT_KNOWN. ) ;
#187 = LINE ( 'NONE', #396, #419 ) ;
#188 = VECTOR ( 'NONE', #82, 1000.000000000000227 ) ;
#189 = CARTESIAN_POINT ( 'NONE',  ( 8.999999999999998224, -3.000000000000000000, -9.250000000000000000 ) ) ;
#190 = ORIENTED_EDGE ( 'NONE', *, *, #405, .T. ) ;
#191 = CARTESIAN_POINT ( 'NONE',  ( 0.0000000000000000000, 0.0000000000000000000, 0.0000000000000000000 ) ) ;
#192 = EDGE_LOOP ( 'NONE', ( #466, #113, #424, #678 ) ) ;
#193 = AXIS2_PLACEMENT_3D ( 'NONE', #369, #252, #496 ) ;
#194 = CARTESIAN_POINT ( 'NONE',  ( 75.31448254773931694, 0.0000000000000000000, 84.41306063588596942 ) ) ;
#195 = ORIENTED_EDGE ( 'NONE', *, *, #243, .F. ) ;
#196 = FILL_AREA_STYLE_COLOUR ( '', #163 ) ;
#197 = CARTESIAN_POINT ( 'NONE',  ( 0.0000000000000000000, -3.000000000000000000, -4.250000000000000000 ) ) ;
#198 = DIRECTION ( 'NONE',  ( 0.0000000000000000000, 0.0000000000000000000, -1.000000000000000000 ) ) ;
#199 = EDGE_CURVE ( 'NONE', #250, #567, #696, .T. ) ;
#200 = CIRCLE ( 'NONE', #487, 9.000000000000000000 ) ;
#201 = LINE ( 'NONE', #744, #277 ) ;
#202 = CARTESIAN_POINT ( 'NONE',  ( 5.204748896376249713E-16, 0.001000000000000132727, 4.250000000000000000 ) ) ;
#203 = SURFACE_STYLE_USAGE ( .BOTH. , #256 ) ;
#204 = DIRECTION ( 'NONE',  ( -0.0000000000000000000, -1.000000000000000000, 0.0000000000000000000 ) ) ;
#205 = AXIS2_PLACEMENT_3D ( 'NONE', #456, #513, #636 ) ;
#206 = DIRECTION ( 'NONE',  ( 0.0000000000000000000, 1.000000000000000000, -0.0000000000000000000 ) ) ;
#207 = CARTESIAN_POINT ( 'NONE',  ( 85.35144164312221449, 0.0000000000000000000, 73.26588825372506619 ) ) ;
#208 = CARTESIAN_POINT ( 'NONE',  ( 10.00000000000000178, 0.0000000000000000000, -2.249999999999999556 ) ) ;
#209 = CARTESIAN_POINT ( 'NONE',  ( 85.35144164312221449, -3.000000000000000000, 73.26588825372506619 ) ) ;
#210 = EDGE_CURVE ( 'NONE', #261, #87, #639, .T. ) ;
#211 = FACE_OUTER_BOUND ( 'NONE', #351, .T. ) ;
#212 = ORIENTED_EDGE ( 'NONE', *, *, #633, .F. ) ;
#213 = VERTEX_POINT ( 'NONE', #430 ) ;
#214 = EDGE_CURVE ( 'NONE', #231, #463, #624, .T. ) ;
#215 = AXIS2_PLACEMENT_3D ( 'NONE', #318, #313, #732 ) ;
#216 = CARTESIAN_POINT ( 'NONE',  ( 13.75391214795814676, 0.0000000000000000000, 28.98367407864090595 ) ) ;
#217 = CYLINDRICAL_SURFACE ( 'NONE', #102, 15.00000000000001421 ) ;
#218 = AXIS2_PLACEMENT_3D ( 'NONE', #306, #135, #28 ) ;
#219 = VECTOR ( 'NONE', #601, 1000.000000000000000 ) ;
#220 = ORIENTED_EDGE ( 'NONE', *, *, #54, .F. ) ;
#221 = DIRECTION ( 'NONE',  ( -0.0000000000000000000, -1.000000000000000000, 0.0000000000000000000 ) ) ;
#222 = ORIENTED_EDGE ( 'NONE', *, *, #167, .T. ) ;
#223 = CARTESIAN_POINT ( 'NONE',  ( 26.99999999999998934, 0.0000000000000000000, -17.50000000000000000 ) ) ;
#224 = VERTEX_POINT ( 'NONE', #361 ) ;
#225 = ORIENTED_EDGE ( 'NONE', *, *, #214, .F. ) ;
#226 = CARTESIAN_POINT ( 'NONE',  ( 10.00000000000000178, -3.000000000000000000, -2.249999999999999556 ) ) ;
#227 = CIRCLE ( 'NONE', #92, 1.000000000000000000 ) ;
#228 = MECHANICAL_DESIGN_GEOMETRIC_PRESENTATION_REPRESENTATION (  '', ( #407 ), #171 ) ;
#229 = ORIENTED_EDGE ( 'NONE', *, *, #54, .T. ) ;
#230 = ORIENTED_EDGE ( 'NONE', *, *, #530, .T. ) ;
#231 = VERTEX_POINT ( 'NONE', #611 ) ;
#232 = ORIENTED_EDGE ( 'NONE', *, *, #180, .T. ) ;
#233 = STYLED_ITEM ( 'NONE', ( #749 ), #630 ) ;
#234 = ORIENTED_EDGE ( 'NONE', *, *, #63, .F. ) ;
#235 = VECTOR ( 'NONE', #183, 1000.000000000000000 ) ;
#236 = SURFACE_STYLE_FILL_AREA ( #374 ) ;
#237 = CARTESIAN_POINT ( 'NONE',  ( 6.962858476916555794, -3.000000000000000000, -17.50000000000000000 ) ) ;
#238 = EDGE_CURVE ( 'NONE', #79, #734, #273, .T. ) ;
#239 = LINE ( 'NONE', #16, #518 ) ;
#240 = DIRECTION ( 'NONE',  ( 0.0000000000000000000, 0.0000000000000000000, -1.000000000000000000 ) ) ;
#241 = VERTEX_POINT ( 'NONE', #197 ) ;
#242 = EDGE_LOOP ( 'NONE', ( #670, #745, #671, #269 ) ) ;
#243 = EDGE_CURVE ( 'NONE', #51, #79, #501, .T. ) ;
#244 = DIRECTION ( 'NONE',  ( 0.0000000000000000000, 0.0000000000000000000, 1.000000000000000000 ) ) ;
#245 = DIRECTION ( 'NONE',  ( 0.0000000000000000000, 0.0000000000000000000, -1.000000000000000000 ) ) ;
#246 = LINE ( 'NONE', #582, #581 ) ;
#247 = VECTOR ( 'NONE', #367, 1000.000000000000000 ) ;
#248 = VECTOR ( 'NONE', #475, 1000.000000000000000 ) ;
#249 = DIRECTION ( 'NONE',  ( 0.0000000000000000000, 1.000000000000000000, 0.0000000000000000000 ) ) ;
#250 = VERTEX_POINT ( 'NONE', #299 ) ;
#251 = DIRECTION ( 'NONE',  ( 0.0000000000000000000, -1.000000000000000000, 0.0000000000000000000 ) ) ;
#252 = DIRECTION ( 'NONE',  ( 0.0000000000000000000, -1.000000000000000000, 0.0000000000000000000 ) ) ;
#253 = ORIENTED_EDGE ( 'NONE', *, *, #707, .T. ) ;
#254 = DIRECTION ( 'NONE',  ( -0.0000000000000000000, 1.000000000000000000, 0.0000000000000000000 ) ) ;
#255 = DIRECTION ( 'NONE',  ( -9.912705577010326536E-16, -0.0000000000000000000, -1.000000000000000000 ) ) ;
#256 = SURFACE_SIDE_STYLE ('',( #5 ) ) ;
#257 = DIRECTION ( 'NONE',  ( 0.0000000000000000000, 0.0000000000000000000, -1.000000000000000000 ) ) ;
#258 = UNCERTAINTY_MEASURE_WITH_UNIT (LENGTH_MEASURE( 1.000000000000000082E-05 ), #41, 'distance_accuracy_value', 'NONE');
#259 = VERTEX_POINT ( 'NONE', #553 ) ;
#260 = AXIS2_PLACEMENT_3D ( 'NONE', #594, #531, #540 ) ;
#261 = VERTEX_POINT ( 'NONE', #687 ) ;
#262 = ORIENTED_EDGE ( 'NONE', *, *, #514, .T. ) ;
#263 =( LENGTH_UNIT ( ) NAMED_UNIT ( * ) SI_UNIT ( .MILLI., .METRE. ) );
#264 = LINE ( 'NONE', #387, #460 ) ;
#265 = DIRECTION ( 'NONE',  ( 0.0000000000000000000, 0.0000000000000000000, -1.000000000000000000 ) ) ;
#266 = COLOUR_RGB ( '',0.5294117647058823595, 0.5490196078431373028, 0.5490196078431373028 ) ;
#267 = LINE ( 'NONE', #492, #681 ) ;
#268 = ORIENTED_EDGE ( 'NONE', *, *, #238, .F. ) ;
#269 = ORIENTED_EDGE ( 'NONE', *, *, #462, .F. ) ;
#270 = CARTESIAN_POINT ( 'NONE',  ( 46.99999999999998579, -3.000000000000000000, -8.363050442618147784 ) ) ;
#271 = CIRCLE ( 'NONE', #602, 1.000000000000000000 ) ;
#272 = PRESENTATION_LAYER_ASSIGNMENT (  '', '', ( #233 ) ) ;
#273 = LINE ( 'NONE', #302, #523 ) ;
#274 = SHAPE_DEFINITION_REPRESENTATION ( #529, #362 ) ;
#275 = CARTESIAN_POINT ( 'NONE',  ( 8.999999999999998224, -3.000000000000000000, -9.250000000000000000 ) ) ;
#276 = ORIENTED_EDGE ( 'NONE', *, *, #370, .F. ) ;
#277 = VECTOR ( 'NONE', #628, 1000.000000000000000 ) ;
#278 = EDGE_CURVE ( 'NONE', #164, #693, #721, .T. ) ;
#279 = VECTOR ( 'NONE', #504, 1000.000000000000000 ) ;
#280 = ORIENTED_EDGE ( 'NONE', *, *, #521, .F. ) ;
#281 = ORIENTED_EDGE ( 'NONE', *, *, #437, .T. ) ;
#282 = ORIENTED_EDGE ( 'NONE', *, *, #494, .T. ) ;
#283 = CIRCLE ( 'NONE', #42, 15.00000000000001421 ) ;
#284 = ADVANCED_FACE ( 'NONE', ( #421 ), #38, .T. ) ;
#285 = CARTESIAN_POINT ( 'NONE',  ( -6.617046059432402316, 0.0000000000000000000, 16.20076237241168116 ) ) ;
#286 = PLANE ( 'NONE',  #568 ) ;
#287 = AXIS2_PLACEMENT_3D ( 'NONE', #4, #251, #20 ) ;
#288 = LINE ( 'NONE', #413, #498 ) ;
#289 = LINE ( 'NONE', #571, #333 ) ;
#290 = CARTESIAN_POINT ( 'NONE',  ( 26.99999999999998934, -3.000000000000000000, -17.50000000000000000 ) ) ;
#291 = EDGE_CURVE ( 'NONE', #213, #87, #335, .T. ) ;
#292 = ADVANCED_FACE ( 'NONE', ( #211 ), #738, .F. ) ;
#293 = DIRECTION ( 'NONE',  ( 0.0000000000000000000, -1.000000000000000000, 0.0000000000000000000 ) ) ;
#294 = ORIENTED_EDGE ( 'NONE', *, *, #473, .T. ) ;
#295 = PLANE ( 'NONE',  #24 ) ;
#296 = VERTEX_POINT ( 'NONE', #625 ) ;
#297 = PLANE ( 'NONE',  #314 ) ;
#298 = ORIENTED_EDGE ( 'NONE', *, *, #364, .T. ) ;
#299 = CARTESIAN_POINT ( 'NONE',  ( 5.204748896376249713E-16, 0.0000000000000000000, 4.250000000000000000 ) ) ;
#300 = DIRECTION ( 'NONE',  ( 0.0000000000000000000, 1.000000000000000000, -0.0000000000000000000 ) ) ;
#301 = AXIS2_PLACEMENT_3D ( 'NONE', #489, #26, #554 ) ;
#302 = CARTESIAN_POINT ( 'NONE',  ( 8.999999999999998224, -3.000000000000000000, -9.250000000000000000 ) ) ;
#303 = CARTESIAN_POINT ( 'NONE',  ( 85.35144164312221449, 0.0000000000000000000, 88.26588825372508040 ) ) ;
#304 = EDGE_CURVE ( 'NONE', #403, #12, #309, .T. ) ;
#305 = CIRCLE ( 'NONE', #146, 9.000000000000000000 ) ;
#306 = CARTESIAN_POINT ( 'NONE',  ( 0.0000000000000000000, 0.0000000000000000000, 0.0000000000000000000 ) ) ;
#307 = DIRECTION ( 'NONE',  ( 1.149873846933197823E-14, 0.0000000000000000000, -1.000000000000000000 ) ) ;
#308 = VECTOR ( 'NONE', #105, 1000.000000000000000 ) ;
#309 = LINE ( 'NONE', #384, #279 ) ;
#310 = EDGE_LOOP ( 'NONE', ( #426, #383, #754, #294, #608, #118, #56, #709, #448, #617 ) ) ;
#311 = DIRECTION ( 'NONE',  ( -0.0000000000000000000, 1.000000000000000000, 0.0000000000000000000 ) ) ;
#312 = ORIENTED_EDGE ( 'NONE', *, *, #169, .T. ) ;
#313 = DIRECTION ( 'NONE',  ( 0.0000000000000000000, 0.0000000000000000000, 1.000000000000000000 ) ) ;
#314 = AXIS2_PLACEMENT_3D ( 'NONE', #290, #705, #245 ) ;
#315 = DIRECTION ( 'NONE',  ( 0.0000000000000000000, 0.0000000000000000000, 1.000000000000000000 ) ) ;
#316 = ORIENTED_EDGE ( 'NONE', *, *, #375, .F. ) ;
#317 = CARTESIAN_POINT ( 'NONE',  ( 9.999999999999998224, -3.000000000000000000, -8.250000000000000000 ) ) ;
#318 = CARTESIAN_POINT ( 'NONE',  ( 0.0000000000000000000, 0.0000000000000000000, 0.0000000000000000000 ) ) ;
#319 = AXIS2_PLACEMENT_3D ( 'NONE', #726, #657, #257 ) ;
#320 = DIRECTION ( 'NONE',  ( 0.0000000000000000000, 0.0000000000000000000, -1.000000000000000000 ) ) ;
#321 = CARTESIAN_POINT ( 'NONE',  ( 9.999999999999998224, -3.000000000000000000, -9.250000000000000000 ) ) ;
#322 = DIRECTION ( 'NONE',  ( 0.0000000000000000000, 1.000000000000000000, -0.0000000000000000000 ) ) ;
#323 = EDGE_LOOP ( 'NONE', ( #195, #569, #606, #212 ) ) ;
#324 = ORIENTED_EDGE ( 'NONE', *, *, #210, .F. ) ;
#325 = VECTOR ( 'NONE', #666, 1000.000000000000000 ) ;
#326 = DIRECTION ( 'NONE',  ( 4.956352788505163268E-16, 0.0000000000000000000, 1.000000000000000000 ) ) ;
#327 = EDGE_CURVE ( 'NONE', #138, #527, #477, .T. ) ;
#328 = LINE ( 'NONE', #516, #178 ) ;
#329 = CARTESIAN_POINT ( 'NONE',  ( 10.00000000000000178, 0.0000000000000000000, -2.249999999999999556 ) ) ;
#330 = ORIENTED_EDGE ( 'NONE', *, *, #331, .F. ) ;
#331 = EDGE_CURVE ( 'NONE', #597, #259, #8, .T. ) ;
#332 = VERTEX_POINT ( 'NONE', #208 ) ;
#333 = VECTOR ( 'NONE', #160, 1000.000000000000000 ) ;
#334 = UNCERTAINTY_MEASURE_WITH_UNIT (LENGTH_MEASURE( 1.000000000000000082E-05 ), #263, 'distance_accuracy_value', 'NONE');
#335 = CIRCLE ( 'NONE', #106, 1.000000000000000888 ) ;
#336 = EDGE_LOOP ( 'NONE', ( #743, #190, #411, #641 ) ) ;
#337 = ORIENTED_EDGE ( 'NONE', *, *, #707, .F. ) ;
#338 =( GEOMETRIC_REPRESENTATION_CONTEXT ( 3 ) GLOBAL_UNCERTAINTY_ASSIGNED_CONTEXT ( ( #89 ) ) GLOBAL_UNIT_ASSIGNED_CONTEXT ( ( #88, #493, #556 ) ) REPRESENTATION_CONTEXT ( 'NONE', 'WORKASPACE' ) );
#339 = ORIENTED_EDGE ( 'NONE', *, *, #243, .T. ) ;
#340 = ADVANCED_FACE ( 'NONE', ( #635 ), #509, .F. ) ;
#341 = CARTESIAN_POINT ( 'NONE',  ( 19.99999999999999645, -3.000000000000000000, -9.250000000000000000 ) ) ;
#342 = FACE_BOUND ( 'NONE', #715, .T. ) ;
#343 = EDGE_CURVE ( 'NONE', #71, #395, #752, .T. ) ;
#344 = PRESENTATION_STYLE_ASSIGNMENT (( #511 ) ) ;
#345 = PLANE ( 'NONE',  #702 ) ;
#346 = CARTESIAN_POINT ( 'NONE',  ( 8.999999999999998224, 0.0000000000000000000, -8.250000000000000000 ) ) ;
#347 = ORIENTED_EDGE ( 'NONE', *, *, #343, .F. ) ;
#348 = CARTESIAN_POINT ( 'NONE',  ( 85.35144164312221449, -3.000000000000000000, 73.26588825372506619 ) ) ;
#349 = ADVANCED_FACE ( 'NONE', ( #615 ), #127, .F. ) ;
#350 = CARTESIAN_POINT ( 'NONE',  ( 17.99999999999998934, 0.0000000000000000000, -8.500000000000001776 ) ) ;
#351 = EDGE_LOOP ( 'NONE', ( #478, #121, #330, #220 ) ) ;
#352 = EDGE_CURVE ( 'NONE', #463, #392, #534, .T. ) ;
#353 = CARTESIAN_POINT ( 'NONE',  ( 8.999999999999998224, 0.0000000000000000000, -8.250000000000000000 ) ) ;
#354 = DIRECTION ( 'NONE',  ( 0.0000000000000000000, 0.0000000000000000000, -1.000000000000000000 ) ) ;
#355 = ADVANCED_FACE ( 'NONE', ( #128 ), #32, .F. ) ;
#356 = CARTESIAN_POINT ( 'NONE',  ( 26.99999999999998934, -3.000000000000000000, -8.363050442618147784 ) ) ;
#357 = CARTESIAN_POINT ( 'NONE',  ( 0.0000000000000000000, -3.000000000000000000, -17.50000000000000000 ) ) ;
#358 = EDGE_CURVE ( 'NONE', #138, #71, #201, .T. ) ;
#359 = CARTESIAN_POINT ( 'NONE',  ( 26.99999999999999645, -3.000000000000000000, -8.363050442618147784 ) ) ;
#360 = CARTESIAN_POINT ( 'NONE',  ( 95.38840073850509782, -3.000000000000000000, 62.11871587156415586 ) ) ;
#361 = CARTESIAN_POINT ( 'NONE',  ( 33.61738787282280327, 0.0000000000000000000, 6.499846066929725552 ) ) ;
#362 = ADVANCED_BREP_SHAPE_REPRESENTATION ( '03_028_sheetmetal handle', ( #630, #215 ), #467 ) ;
#363 = ORIENTED_EDGE ( 'NONE', *, *, #506, .T. ) ;
#364 = EDGE_CURVE ( 'NONE', #693, #741, #648, .T. ) ;
#365 = ORIENTED_EDGE ( 'NONE', *, *, #140, .T. ) ;
#366 = CARTESIAN_POINT ( 'NONE',  ( 20.99999999999999289, -3.000000000000000000, -8.250000000000001776 ) ) ;
#367 = DIRECTION ( 'NONE',  ( -0.0000000000000000000, -1.000000000000000000, -0.0000000000000000000 ) ) ;
#368 = CYLINDRICAL_SURFACE ( 'NONE', #686, 15.00000000000001421 ) ;
#369 = CARTESIAN_POINT ( 'NONE',  ( 0.0000000000000000000, 0.0000000000000000000, 0.0000000000000000000 ) ) ;
#370 = EDGE_CURVE ( 'NONE', #261, #109, #227, .T. ) ;
#371 = ORIENTED_EDGE ( 'NONE', *, *, #238, .T. ) ;
#372 = DIRECTION ( 'NONE',  ( 4.956352788505163268E-16, 0.0000000000000000000, 1.000000000000000000 ) ) ;
#373 = DIRECTION ( 'NONE',  ( 0.0000000000000000000, 0.0000000000000000000, -1.000000000000000000 ) ) ;
#374 = FILL_AREA_STYLE ('',( #150 ) ) ;
#375 = EDGE_CURVE ( 'NONE', #332, #109, #328, .T. ) ;
#376 = DIRECTION ( 'NONE',  ( 0.0000000000000000000, 0.0000000000000000000, -1.000000000000000000 ) ) ;
#377 = FACE_OUTER_BOUND ( 'NONE', #181, .T. ) ;
#378 = DIRECTION ( 'NONE',  ( 0.0000000000000000000, 0.0000000000000000000, -1.000000000000000000 ) ) ;
#379 = FACE_OUTER_BOUND ( 'NONE', #627, .T. ) ;
#380 = LINE ( 'NONE', #147, #605 ) ;
#381 = PRODUCT_CONTEXT ( 'NONE', #153, 'mechanical' ) ;
#382 = CARTESIAN_POINT ( 'NONE',  ( -6.617046059432402316, -3.000000000000000000, 16.20076237241168116 ) ) ;
#383 = ORIENTED_EDGE ( 'NONE', *, *, #521, .T. ) ;
#384 = CARTESIAN_POINT ( 'NONE',  ( 13.75391214795814321, -3.000000000000000000, 28.98367407864090239 ) ) ;
#385 = MECHANICAL_DESIGN_GEOMETRIC_PRESENTATION_REPRESENTATION (  '', ( #233 ), #338 ) ;
#386 = LINE ( 'NONE', #543, #235 ) ;
#387 = CARTESIAN_POINT ( 'NONE',  ( 0.0000000000000000000, 0.0000000000000000000, -17.50000000000000000 ) ) ;
#388 = LINE ( 'NONE', #329, #308 ) ;
#389 = ORIENTED_EDGE ( 'NONE', *, *, #619, .T. ) ;
#390 = DIRECTION ( 'NONE',  ( 1.000000000000000000, 0.0000000000000000000, 0.0000000000000000000 ) ) ;
#391 = EDGE_CURVE ( 'NONE', #537, #395, #634, .T. ) ;
#392 = VERTEX_POINT ( 'NONE', #226 ) ;
#393 = VERTEX_POINT ( 'NONE', #753 ) ;
#394 = DIRECTION ( 'NONE',  ( -0.0000000000000000000, -0.0000000000000000000, -1.000000000000000000 ) ) ;
#395 = VERTEX_POINT ( 'NONE', #638 ) ;
#396 = CARTESIAN_POINT ( 'NONE',  ( -6.617046059432402316, -3.000000000000000000, 16.20076237241168116 ) ) ;
#397 = EDGE_CURVE ( 'NONE', #109, #393, #751, .T. ) ;
#398 = VECTOR ( 'NONE', #221, 1000.000000000000000 ) ;
#399 = AXIS2_PLACEMENT_3D ( 'NONE', #711, #598, #244 ) ;
#400 = EDGE_LOOP ( 'NONE', ( #298, #172, #756, #575 ) ) ;
#401 = VERTEX_POINT ( 'NONE', #632 ) ;
#402 = EDGE_LOOP ( 'NONE', ( #268, #429, #363, #230 ) ) ;
#403 = VERTEX_POINT ( 'NONE', #216 ) ;
#404 = FACE_OUTER_BOUND ( 'NONE', #595, .T. ) ;
#405 = EDGE_CURVE ( 'NONE', #401, #151, #246, .T. ) ;
#406 = ADVANCED_FACE ( 'NONE', ( #103 ), #49, .F. ) ;
#407 = STYLED_ITEM ( 'NONE', ( #344 ), #362 ) ;
#408 = PRODUCT ( '03_028_sheetmetal handle', '03_028_sheetmetal handle', '', ( #381 ) ) ;
#409 = LINE ( 'NONE', #130, #104 ) ;
#410 = EDGE_LOOP ( 'NONE', ( #43, #587, #507, #184 ) ) ;
#411 = ORIENTED_EDGE ( 'NONE', *, *, #68, .F. ) ;
#412 = CARTESIAN_POINT ( 'NONE',  ( 20.99999999999999289, -3.000000000000000000, -8.250000000000001776 ) ) ;
#413 = CARTESIAN_POINT ( 'NONE',  ( 95.38840073850509782, -3.000000000000000000, 62.11871587156415586 ) ) ;
#414 = AXIS2_PLACEMENT_3D ( 'NONE', #704, #535, #13 ) ;
#415 = DIRECTION ( 'NONE',  ( 0.0000000000000000000, 1.000000000000000000, -0.0000000000000000000 ) ) ;
#416 = DIRECTION ( 'NONE',  ( 0.0000000000000000000, 0.0000000000000000000, -1.000000000000000000 ) ) ;
#417 = LINE ( 'NONE', #237, #73 ) ;
#418 = CARTESIAN_POINT ( 'NONE',  ( 46.99999999999998579, 0.0000000000000000000, -8.363050442618147784 ) ) ;
#419 = VECTOR ( 'NONE', #52, 1000.000000000000000 ) ;
#420 = EDGE_CURVE ( 'NONE', #58, #132, #264, .T. ) ;
#421 = FACE_OUTER_BOUND ( 'NONE', #438, .T. ) ;
#422 = DIRECTION ( 'NONE',  ( 0.0000000000000000000, 1.000000000000000000, 0.0000000000000000000 ) ) ;
#423 = CIRCLE ( 'NONE', #287, 4.250000000000000000 ) ;
#424 = ORIENTED_EDGE ( 'NONE', *, *, #689, .F. ) ;
#425 = DIRECTION ( 'NONE',  ( 0.0000000000000000000, 1.000000000000000000, -0.0000000000000000000 ) ) ;
#426 = ORIENTED_EDGE ( 'NONE', *, *, #176, .T. ) ;
#427 = ADVANCED_FACE ( 'NONE', ( #74 ), #476, .F. ) ;
#428 = AXIS2_PLACEMENT_3D ( 'NONE', #207, #156, #378 ) ;
#429 = ORIENTED_EDGE ( 'NONE', *, *, #633, .T. ) ;
#430 = CARTESIAN_POINT ( 'NONE',  ( 19.99999999999999645, 0.0000000000000000000, -9.250000000000000000 ) ) ;
#431 = FACE_OUTER_BOUND ( 'NONE', #242, .T. ) ;
#432 = DIRECTION ( 'NONE',  ( -9.912705577010326536E-16, -0.0000000000000000000, -1.000000000000000000 ) ) ;
#433 = AXIS2_PLACEMENT_3D ( 'NONE', #270, #322, #623 ) ;
#434 = CIRCLE ( 'NONE', #428, 15.00000000000001421 ) ;
#435 = CARTESIAN_POINT ( 'NONE',  ( 0.0000000000000000000, 0.001000000000000132727, 0.0000000000000000000 ) ) ;
#436 = CARTESIAN_POINT ( 'NONE',  ( 19.99999999999999645, -3.000000000000000000, -8.250000000000000000 ) ) ;
#437 = EDGE_CURVE ( 'NONE', #392, #332, #388, .T. ) ;
#438 = EDGE_LOOP ( 'NONE', ( #262, #626, #570, #579 ) ) ;
#439 = DIRECTION ( 'NONE',  ( -1.000000000000000000, 0.0000000000000000000, -0.0000000000000000000 ) ) ;
#440 = VECTOR ( 'NONE', #311, 1000.000000000000000 ) ;
#441 = DIRECTION ( 'NONE',  ( 0.0000000000000000000, 1.000000000000000000, 0.0000000000000000000 ) ) ;
#442 = EDGE_CURVE ( 'NONE', #693, #132, #289, .T. ) ;
#443 = ADVANCED_FACE ( 'NONE', ( #486, #712, #701 ), #461, .T. ) ;
#444 = ORIENTED_EDGE ( 'NONE', *, *, #29, .T. ) ;
#445 = DIRECTION ( 'NONE',  ( 0.0000000000000000000, 0.0000000000000000000, -1.000000000000000000 ) ) ;
#446 = CARTESIAN_POINT ( 'NONE',  ( 21.00000000000000000, -3.000000000000000000, -3.250000000000000444 ) ) ;
#447 = ORIENTED_EDGE ( 'NONE', *, *, #405, .F. ) ;
#448 = ORIENTED_EDGE ( 'NONE', *, *, #68, .T. ) ;
#449 = AXIS2_PLACEMENT_3D ( 'NONE', #317, #683, #320 ) ;
#450 =( NAMED_UNIT ( * ) PLANE_ANGLE_UNIT ( ) SI_UNIT ( $, .RADIAN. ) );
#451 = VECTOR ( 'NONE', #432, 1000.000000000000000 ) ;
#452 = LINE ( 'NONE', #366, #84 ) ;
#453 = CARTESIAN_POINT ( 'NONE',  ( 20.00000000000000000, 0.0000000000000000000, -3.249999999999999556 ) ) ;
#454 = EDGE_CURVE ( 'NONE', #66, #403, #522, .T. ) ;
#455 = ORIENTED_EDGE ( 'NONE', *, *, #14, .T. ) ;
#456 = CARTESIAN_POINT ( 'NONE',  ( 0.0000000000000000000, 0.001000000000000132727, 0.0000000000000000000 ) ) ;
#457 = CARTESIAN_POINT ( 'NONE',  ( 20.00000000000000000, -3.000000000000000000, -2.249999999999999556 ) ) ;
#458 = AXIS2_PLACEMENT_3D ( 'NONE', #544, #293, #416 ) ;
#459 = LINE ( 'NONE', #22, #110 ) ;
#460 = VECTOR ( 'NONE', #159, 1000.000000000000000 ) ;
#461 = PLANE ( 'NONE',  #757 ) ;
#462 = EDGE_CURVE ( 'NONE', #741, #66, #187, .T. ) ;
#463 = VERTEX_POINT ( 'NONE', #580 ) ;
#464 = ORIENTED_EDGE ( 'NONE', *, *, #689, .T. ) ;
#465 = EDGE_LOOP ( 'NONE', ( #122, #663, #253, #510 ) ) ;
#466 = ORIENTED_EDGE ( 'NONE', *, *, #352, .F. ) ;
#467 =( GEOMETRIC_REPRESENTATION_CONTEXT ( 3 ) GLOBAL_UNCERTAINTY_ASSIGNED_CONTEXT ( ( #258 ) ) GLOBAL_UNIT_ASSIGNED_CONTEXT ( ( #41, #450, #34 ) ) REPRESENTATION_CONTEXT ( 'NONE', 'WORKASPACE' ) );
#468 = FACE_OUTER_BOUND ( 'NONE', #400, .T. ) ;
#469 = AXIS2_PLACEMENT_3D ( 'NONE', #560, #614, #315 ) ;
#470 = ORIENTED_EDGE ( 'NONE', *, *, #120, .T. ) ;
#471 = DIRECTION ( 'NONE',  ( 0.0000000000000000000, 1.000000000000000000, -0.0000000000000000000 ) ) ;
#472 = CARTESIAN_POINT ( 'NONE',  ( 17.99999999999998934, -3.000000000000000000, -8.500000000000001776 ) ) ;
#473 = EDGE_CURVE ( 'NONE', #395, #58, #200, .T. ) ;
#474 = CIRCLE ( 'NONE', #526, 20.00000000000000000 ) ;
#475 = DIRECTION ( 'NONE',  ( 0.0000000000000000000, 1.000000000000000000, 0.0000000000000000000 ) ) ;
#476 = CYLINDRICAL_SURFACE ( 'NONE', #205, 4.250000000000000000 ) ;
#477 = CIRCLE ( 'NONE', #433, 20.00000000000000000 ) ;
#478 = ORIENTED_EDGE ( 'NONE', *, *, #695, .F. ) ;
#479 = DIRECTION ( 'NONE',  ( 0.0000000000000000000, 1.000000000000000000, -0.0000000000000000000 ) ) ;
#480 = CARTESIAN_POINT ( 'NONE',  ( 75.31448254773931694, -3.000000000000000000, 84.41306063588596942 ) ) ;
#481 = ADVANCED_FACE ( 'NONE', ( #7 ), #297, .T. ) ;
#482 = EDGE_CURVE ( 'NONE', #609, #23, #288, .T. ) ;
#483 = DIRECTION ( 'NONE',  ( 0.0000000000000000000, 1.000000000000000000, 0.0000000000000000000 ) ) ;
#484 = ORIENTED_EDGE ( 'NONE', *, *, #482, .T. ) ;
#485 = DIRECTION ( 'NONE',  ( 0.0000000000000000000, 0.0000000000000000000, -1.000000000000000000 ) ) ;
#486 = FACE_BOUND ( 'NONE', #77, .T. ) ;
#487 = AXIS2_PLACEMENT_3D ( 'NONE', #350, #65, #67 ) ;
#488 = CARTESIAN_POINT ( 'NONE',  ( 20.99999999999999289, 0.0000000000000000000, -9.250000000000000000 ) ) ;
#489 = CARTESIAN_POINT ( 'NONE',  ( 17.99999999999998934, -3.000000000000000000, -8.500000000000001776 ) ) ;
#490 = ADVANCED_FACE ( 'NONE', ( #377 ), #295, .F. ) ;
#491 = ORIENTED_EDGE ( 'NONE', *, *, #327, .T. ) ;
#492 = CARTESIAN_POINT ( 'NONE',  ( 9.000000000000001776, -3.000000000000000000, -3.249999999999999112 ) ) ;
#493 =( NAMED_UNIT ( * ) PLANE_ANGLE_UNIT ( ) SI_UNIT ( $, .RADIAN. ) );
#494 = EDGE_CURVE ( 'NONE', #164, #71, #305, .T. ) ;
#495 = VERTEX_POINT ( 'NONE', #124 ) ;
#496 = DIRECTION ( 'NONE',  ( 0.0000000000000000000, -0.0000000000000000000, -1.000000000000000000 ) ) ;
#497 = DIRECTION ( 'NONE',  ( -0.0000000000000000000, 1.000000000000000000, -0.0000000000000000000 ) ) ;
#498 = VECTOR ( 'NONE', #483, 1000.000000000000000 ) ;
#499 = DIRECTION ( 'NONE',  ( 0.0000000000000000000, 0.0000000000000000000, -1.000000000000000000 ) ) ;
#500 = AXIS2_PLACEMENT_3D ( 'NONE', #502, #204, #376 ) ;
#501 = CIRCLE ( 'NONE', #742, 1.000000000000000888 ) ;
#502 = CARTESIAN_POINT ( 'NONE',  ( 9.999999999999998224, 0.0000000000000000000, -8.250000000000000000 ) ) ;
#503 = DIRECTION ( 'NONE',  ( 0.0000000000000000000, 0.0000000000000000000, -1.000000000000000000 ) ) ;
#504 = DIRECTION ( 'NONE',  ( 0.0000000000000000000, -1.000000000000000000, 0.0000000000000000000 ) ) ;
#505 = DIRECTION ( 'NONE',  ( 0.0000000000000000000, 0.0000000000000000000, 1.000000000000000000 ) ) ;
#506 = EDGE_CURVE ( 'NONE', #213, #259, #562, .T. ) ;
#507 = ORIENTED_EDGE ( 'NONE', *, *, #63, .T. ) ;
#508 = DIRECTION ( 'NONE',  ( 0.0000000000000000000, -1.000000000000000000, 0.0000000000000000000 ) ) ;
#509 = CYLINDRICAL_SURFACE ( 'NONE', #469, 20.00000000000000000 ) ;
#510 = ORIENTED_EDGE ( 'NONE', *, *, #100, .T. ) ;
#511 = SURFACE_STYLE_USAGE ( .BOTH. , #101 ) ;
#512 = ORIENTED_EDGE ( 'NONE', *, *, #214, .T. ) ;
#513 = DIRECTION ( 'NONE',  ( -0.0000000000000000000, -1.000000000000000000, -0.0000000000000000000 ) ) ;
#514 = EDGE_CURVE ( 'NONE', #609, #527, #417, .T. ) ;
#515 = CIRCLE ( 'NONE', #218, 17.50000000000000000 ) ;
#516 = CARTESIAN_POINT ( 'NONE',  ( 9.000000000000001776, 0.0000000000000000000, -2.249999999999999556 ) ) ;
#517 = EDGE_CURVE ( 'NONE', #296, #250, #141, .T. ) ;
#518 = VECTOR ( 'NONE', #647, 1000.000000000000000 ) ;
#519 = DIRECTION ( 'NONE',  ( 0.0000000000000000000, 1.000000000000000000, 0.0000000000000000000 ) ) ;
#520 = DIRECTION ( 'NONE',  ( -0.0000000000000000000, -1.000000000000000000, 0.0000000000000000000 ) ) ;
#521 = EDGE_CURVE ( 'NONE', #224, #537, #474, .T. ) ;
#522 = CIRCLE ( 'NONE', #50, 70.00000000000000000 ) ;
#523 = VECTOR ( 'NONE', #86, 1000.000000000000000 ) ;
#524 = CIRCLE ( 'NONE', #319, 4.250000000000000000 ) ;
#525 = EDGE_LOOP ( 'NONE', ( #545, #561, #698, #347 ) ) ;
#526 = AXIS2_PLACEMENT_3D ( 'NONE', #418, #61, #589 ) ;
#527 = VERTEX_POINT ( 'NONE', #646 ) ;
#528 = ORIENTED_EDGE ( 'NONE', *, *, #375, .T. ) ;
#529 = PRODUCT_DEFINITION_SHAPE ( 'NONE', 'NONE',  #699 ) ;
#530 = EDGE_CURVE ( 'NONE', #259, #734, #386, .T. ) ;
#531 = DIRECTION ( 'NONE',  ( 0.0000000000000000000, -1.000000000000000000, 0.0000000000000000000 ) ) ;
#532 = ADVANCED_FACE ( 'NONE', ( #667 ), #286, .F. ) ;
#533 = DIRECTION ( 'NONE',  ( 0.0000000000000000000, 0.0000000000000000000, -1.000000000000000000 ) ) ;
#534 = CIRCLE ( 'NONE', #165, 1.000000000000000000 ) ;
#535 = DIRECTION ( 'NONE',  ( 0.0000000000000000000, 1.000000000000000000, -0.0000000000000000000 ) ) ;
#536 = DIRECTION ( 'NONE',  ( -0.0000000000000000000, -1.000000000000000000, 0.0000000000000000000 ) ) ;
#537 = VERTEX_POINT ( 'NONE', #593 ) ;
#538 = ORIENTED_EDGE ( 'NONE', *, *, #140, .F. ) ;
#539 = AXIS2_PLACEMENT_3D ( 'NONE', #155, #566, #439 ) ;
#540 = DIRECTION ( 'NONE',  ( 0.0000000000000000000, 0.0000000000000000000, -1.000000000000000000 ) ) ;
#541 = DIRECTION ( 'NONE',  ( -1.000000000000000000, -0.0000000000000000000, -0.0000000000000000000 ) ) ;
#542 = CARTESIAN_POINT ( 'NONE',  ( 21.00000000000000000, 0.0000000000000000000, -3.250000000000000444 ) ) ;
#543 = CARTESIAN_POINT ( 'NONE',  ( 9.999999999999998224, -3.000000000000000000, -9.250000000000000000 ) ) ;
#544 = CARTESIAN_POINT ( 'NONE',  ( 19.99999999999999645, -3.000000000000000000, -8.250000000000000000 ) ) ;
#545 = ORIENTED_EDGE ( 'NONE', *, *, #494, .F. ) ;
#546 = CARTESIAN_POINT ( 'NONE',  ( 20.99999999999999289, -3.000000000000000000, -9.250000000000000000 ) ) ;
#547 = DIRECTION ( 'NONE',  ( -0.0000000000000000000, 1.000000000000000000, 0.0000000000000000000 ) ) ;
#548 = VERTEX_POINT ( 'NONE', #480 ) ;
#549 = AXIS2_PLACEMENT_3D ( 'NONE', #435, #139, #198 ) ;
#550 = EDGE_LOOP ( 'NONE', ( #225, #229, #444, #232 ) ) ;
#551 = FILL_AREA_STYLE ('',( #196 ) ) ;
#552 = ORIENTED_EDGE ( 'NONE', *, *, #559, .T. ) ;
#553 = CARTESIAN_POINT ( 'NONE',  ( 9.999999999999998224, 0.0000000000000000000, -9.250000000000000000 ) ) ;
#554 = DIRECTION ( 'NONE',  ( 0.0000000000000000000, 0.0000000000000000000, 1.000000000000000000 ) ) ;
#555 = VECTOR ( 'NONE', #720, 1000.000000000000114 ) ;
#556 =( NAMED_UNIT ( * ) SI_UNIT ( $, .STERADIAN. ) SOLID_ANGLE_UNIT ( ) );
#557 = ORIENTED_EDGE ( 'NONE', *, *, #278, .F. ) ;
#558 = CARTESIAN_POINT ( 'NONE',  ( 17.99999999999998934, -3.000000000000000000, -17.50000000000000000 ) ) ;
#559 = EDGE_CURVE ( 'NONE', #393, #730, #271, .T. ) ;
#560 = CARTESIAN_POINT ( 'NONE',  ( 46.99999999999998579, -3.000000000000000000, -8.363050442618147784 ) ) ;
#561 = ORIENTED_EDGE ( 'NONE', *, *, #14, .F. ) ;
#562 = LINE ( 'NONE', #119, #62 ) ;
#563 = APPLICATION_PROTOCOL_DEFINITION ( 'draft international standard', 'automotive_design', 1998, #37 ) ;
#564 = VECTOR ( 'NONE', #117, 1000.000000000000000 ) ;
#565 = ORIENTED_EDGE ( 'NONE', *, *, #278, .T. ) ;
#566 = DIRECTION ( 'NONE',  ( 0.0000000000000000000, 0.0000000000000000000, -1.000000000000000000 ) ) ;
#567 = VERTEX_POINT ( 'NONE', #586 ) ;
#568 = AXIS2_PLACEMENT_3D ( 'NONE', #6, #185, #179 ) ;
#569 = ORIENTED_EDGE ( 'NONE', *, *, #167, .F. ) ;
#570 = ORIENTED_EDGE ( 'NONE', *, *, #176, .F. ) ;
#571 = CARTESIAN_POINT ( 'NONE',  ( 0.0000000000000000000, -3.000000000000000000, -17.50000000000000000 ) ) ;
#572 = VECTOR ( 'NONE', #719, 1000.000000000000000 ) ;
#573 = ORIENTED_EDGE ( 'NONE', *, *, #199, .T. ) ;
#574 = CARTESIAN_POINT ( 'NONE',  ( 0.0000000000000000000, -3.000000000000000000, 0.0000000000000000000 ) ) ;
#575 = ORIENTED_EDGE ( 'NONE', *, *, #442, .F. ) ;
#576 = DIRECTION ( 'NONE',  ( 0.0000000000000000000, 1.000000000000000000, -0.0000000000000000000 ) ) ;
#577 = ORIENTED_EDGE ( 'NONE', *, *, #29, .F. ) ;
#578 = AXIS2_PLACEMENT_3D ( 'NONE', #574, #576, #44 ) ;
#579 = ORIENTED_EDGE ( 'NONE', *, *, #482, .F. ) ;
#580 = CARTESIAN_POINT ( 'NONE',  ( 9.000000000000001776, -3.000000000000000000, -3.249999999999999556 ) ) ;
#581 = VECTOR ( 'NONE', #519, 1000.000000000000000 ) ;
#582 = CARTESIAN_POINT ( 'NONE',  ( 85.35144164312221449, -3.000000000000000000, 88.26588825372508040 ) ) ;
#583 = AXIS2_PLACEMENT_3D ( 'NONE', #662, #76, #485 ) ;
#584 = ADVANCED_FACE ( 'NONE', ( #431 ), #737, .F. ) ;
#585 = AXIS2_PLACEMENT_3D ( 'NONE', #275, #688, #326 ) ;
#586 = CARTESIAN_POINT ( 'NONE',  ( 5.204748896376249713E-16, -3.000000000000000000, 4.250000000000000000 ) ) ;
#587 = ORIENTED_EDGE ( 'NONE', *, *, #304, .T. ) ;
#588 = CARTESIAN_POINT ( 'NONE',  ( 20.99999999999999289, 0.0000000000000000000, -8.250000000000001776 ) ) ;
#589 = DIRECTION ( 'NONE',  ( 0.0000000000000000000, 0.0000000000000000000, -1.000000000000000000 ) ) ;
#590 = EDGE_CURVE ( 'NONE', #401, #609, #283, .T. ) ;
#591 = DIRECTION ( 'NONE',  ( 4.956352788505163268E-16, 0.0000000000000000000, 1.000000000000000000 ) ) ;
#592 = CYLINDRICAL_SURFACE ( 'NONE', #301, 9.000000000000000000 ) ;
#593 = CARTESIAN_POINT ( 'NONE',  ( 26.99999999999998934, 0.0000000000000000000, -8.363050442618147784 ) ) ;
#594 = CARTESIAN_POINT ( 'NONE',  ( 20.00000000000000000, -3.000000000000000000, -3.249999999999999556 ) ) ;
#595 = EDGE_LOOP ( 'NONE', ( #447, #182, #484, #15 ) ) ;
#596 = EDGE_LOOP ( 'NONE', ( #682, #714, #324, #97, #316, #464, #577, #173 ) ) ;
#597 = VERTEX_POINT ( 'NONE', #346 ) ;
#598 = DIRECTION ( 'NONE',  ( 0.0000000000000000000, 1.000000000000000000, 0.0000000000000000000 ) ) ;
#599 = ADVANCED_FACE ( 'NONE', ( #342, #631, #603 ), #18, .F. ) ;
#600 = DIRECTION ( 'NONE',  ( 0.7431448254773930229, 0.0000000000000000000, 0.6691306063588594588 ) ) ;
#601 = DIRECTION ( 'NONE',  ( 0.0000000000000000000, 1.000000000000000000, 0.0000000000000000000 ) ) ;
#602 = AXIS2_PLACEMENT_3D ( 'NONE', #761, #471, #533 ) ;
#603 = FACE_OUTER_BOUND ( 'NONE', #310, .T. ) ;
#604 = CIRCLE ( 'NONE', #583, 1.000000000000000000 ) ;
#605 = VECTOR ( 'NONE', #497, 1000.000000000000000 ) ;
#606 = ORIENTED_EDGE ( 'NONE', *, *, #291, .F. ) ;
#607 = CARTESIAN_POINT ( 'NONE',  ( 0.0000000000000000000, 0.0000000000000000000, -17.50000000000000000 ) ) ;
#608 = ORIENTED_EDGE ( 'NONE', *, *, #420, .T. ) ;
#609 = VERTEX_POINT ( 'NONE', #360 ) ;
#610 = ADVANCED_FACE ( 'NONE', ( #27 ), #592, .T. ) ;
#611 = CARTESIAN_POINT ( 'NONE',  ( 8.999999999999998224, -3.000000000000000000, -8.250000000000000000 ) ) ;
#612 = DIRECTION ( 'NONE',  ( 0.0000000000000000000, 0.0000000000000000000, -1.000000000000000000 ) ) ;
#613 = VECTOR ( 'NONE', #394, 1000.000000000000000 ) ;
#614 = DIRECTION ( 'NONE',  ( -0.0000000000000000000, 1.000000000000000000, 0.0000000000000000000 ) ) ;
#615 = FACE_OUTER_BOUND ( 'NONE', #192, .T. ) ;
#616 = EDGE_LOOP ( 'NONE', ( #389, #552, #365, #339, #371, #81, #512, #674 ) ) ;
#617 = ORIENTED_EDGE ( 'NONE', *, *, #748, .T. ) ;
#618 = DIRECTION ( 'NONE',  ( -1.000000000000000000, 0.0000000000000000000, -0.0000000000000000000 ) ) ;
#619 = EDGE_CURVE ( 'NONE', #392, #393, #459, .T. ) ;
#620 = CARTESIAN_POINT ( 'NONE',  ( 10.00000000000000178, -3.000000000000000000, -3.249999999999999556 ) ) ;
#621 = ORIENTED_EDGE ( 'NONE', *, *, #46, .T. ) ;
#622 = APPLICATION_PROTOCOL_DEFINITION ( 'draft international standard', 'automotive_design', 1998, #153 ) ;
#623 = DIRECTION ( 'NONE',  ( 0.0000000000000000000, 0.0000000000000000000, -1.000000000000000000 ) ) ;
#624 = LINE ( 'NONE', #189, #116 ) ;
#625 = CARTESIAN_POINT ( 'NONE',  ( 0.0000000000000000000, 0.0000000000000000000, -4.250000000000000000 ) ) ;
#626 = ORIENTED_EDGE ( 'NONE', *, *, #161, .T. ) ;
#627 = EDGE_LOOP ( 'NONE', ( #166, #455, #565, #107 ) ) ;
#628 = DIRECTION ( 'NONE',  ( -1.095614826932720249E-15, 0.0000000000000000000, -1.000000000000000000 ) ) ;
#629 = AXIS2_PLACEMENT_3D ( 'NONE', #729, #731, #736 ) ;
#630 = MANIFOLD_SOLID_BREP ( 'Schnitt-Linear austragen3', #57 ) ;
#631 = FACE_BOUND ( 'NONE', #596, .T. ) ;
#632 = CARTESIAN_POINT ( 'NONE',  ( 85.35144164312221449, -3.000000000000000000, 88.26588825372508040 ) ) ;
#633 = EDGE_CURVE ( 'NONE', #79, #213, #700, .T. ) ;
#634 = LINE ( 'NONE', #223, #613 ) ;
#635 = FACE_OUTER_BOUND ( 'NONE', #664, .T. ) ;
#636 = DIRECTION ( 'NONE',  ( 0.0000000000000000000, 0.0000000000000000000, -1.000000000000000000 ) ) ;
#637 = ORIENTED_EDGE ( 'NONE', *, *, #169, .F. ) ;
#638 = CARTESIAN_POINT ( 'NONE',  ( 26.99999999999998934, 0.0000000000000000000, -8.500000000000001776 ) ) ;
#639 = LINE ( 'NONE', #488, #451 ) ;
#640 = FACE_OUTER_BOUND ( 'NONE', #336, .T. ) ;
#641 = ORIENTED_EDGE ( 'NONE', *, *, #673, .F. ) ;
#642 = ADVANCED_FACE ( 'NONE', ( #114 ), #746, .F. ) ;
#643 = EDGE_LOOP ( 'NONE', ( #528, #149, #706, #281 ) ) ;
#644 = EDGE_CURVE ( 'NONE', #250, #296, #53, .T. ) ;
#645 = CARTESIAN_POINT ( 'NONE',  ( 26.99999999999999645, -3.000000000000000000, -8.500000000000003553 ) ) ;
#646 = CARTESIAN_POINT ( 'NONE',  ( 33.61738787282280327, -3.000000000000000000, 6.499846066929725552 ) ) ;
#647 = DIRECTION ( 'NONE',  ( -0.0000000000000000000, -1.000000000000000000, -0.0000000000000000000 ) ) ;
#648 = CIRCLE ( 'NONE', #578, 17.50000000000000000 ) ;
#649 = LINE ( 'NONE', #353, #248 ) ;
#650 = AXIS2_PLACEMENT_3D ( 'NONE', #133, #415, #354 ) ;
#651 = DIRECTION ( 'NONE',  ( -9.912705577010326536E-16, 0.0000000000000000000, -1.000000000000000000 ) ) ;
#652 = EDGE_LOOP ( 'NONE', ( #759, #112, #276, #40 ) ) ;
#653 = DIRECTION ( 'NONE',  ( 1.000000000000000000, 0.0000000000000000000, -9.912705577010326536E-16 ) ) ;
#654 = EDGE_CURVE ( 'NONE', #12, #741, #728, .T. ) ;
#655 = DIRECTION ( 'NONE',  ( 0.0000000000000000000, 0.0000000000000000000, 1.000000000000000000 ) ) ;
#656 = DIRECTION ( 'NONE',  ( 0.0000000000000000000, 0.0000000000000000000, 1.000000000000000000 ) ) ;
#657 = DIRECTION ( 'NONE',  ( 0.0000000000000000000, -1.000000000000000000, 0.0000000000000000000 ) ) ;
#658 = DIRECTION ( 'NONE',  ( 0.0000000000000000000, 1.000000000000000000, -0.0000000000000000000 ) ) ;
#659 = ORIENTED_EDGE ( 'NONE', *, *, #364, .F. ) ;
#660 = AXIS2_PLACEMENT_3D ( 'NONE', #91, #503, #618 ) ;
#661 = ORIENTED_EDGE ( 'NONE', *, *, #100, .F. ) ;
#662 = CARTESIAN_POINT ( 'NONE',  ( 10.00000000000000178, 0.0000000000000000000, -3.249999999999999556 ) ) ;
#663 = ORIENTED_EDGE ( 'NONE', *, *, #644, .T. ) ;
#664 = EDGE_LOOP ( 'NONE', ( #280, #665, #90, #136 ) ) ;
#665 = ORIENTED_EDGE ( 'NONE', *, *, #161, .F. ) ;
#666 = DIRECTION ( 'NONE',  ( -0.0000000000000000000, -1.000000000000000000, -0.0000000000000000000 ) ) ;
#667 = FACE_OUTER_BOUND ( 'NONE', #643, .T. ) ;
#668 = CARTESIAN_POINT ( 'NONE',  ( 6.962858476916555794, 0.0000000000000000000, -17.50000000000000000 ) ) ;
#669 = LINE ( 'NONE', #668, #188 ) ;
#670 = ORIENTED_EDGE ( 'NONE', *, *, #654, .F. ) ;
#671 = ORIENTED_EDGE ( 'NONE', *, *, #454, .F. ) ;
#672 = DIRECTION ( 'NONE',  ( 0.0000000000000000000, 1.000000000000000000, -0.0000000000000000000 ) ) ;
#673 = EDGE_CURVE ( 'NONE', #548, #170, #703, .T. ) ;
#674 = ORIENTED_EDGE ( 'NONE', *, *, #352, .T. ) ;
#675 = AXIS2_PLACEMENT_3D ( 'NONE', #83, #672, #307 ) ;
#676 = CARTESIAN_POINT ( 'NONE',  ( 26.99999999999998934, -3.000000000000000000, -8.500000000000001776 ) ) ;
#677 =( NAMED_UNIT ( * ) SI_UNIT ( $, .STERADIAN. ) SOLID_ANGLE_UNIT ( ) );
#678 = ORIENTED_EDGE ( 'NONE', *, *, #437, .F. ) ;
#679 = VECTOR ( 'NONE', #547, 1000.000000000000000 ) ;
#680 = CARTESIAN_POINT ( 'NONE',  ( 19.99999999999999645, 0.0000000000000000000, -8.250000000000000000 ) ) ;
#681 = VECTOR ( 'NONE', #80, 1000.000000000000000 ) ;
#682 = ORIENTED_EDGE ( 'NONE', *, *, #506, .F. ) ;
#683 = DIRECTION ( 'NONE',  ( 0.0000000000000000000, -1.000000000000000000, 0.0000000000000000000 ) ) ;
#684 = ORIENTED_EDGE ( 'NONE', *, *, #517, .F. ) ;
#685 = DIRECTION ( 'NONE',  ( 0.0000000000000000000, 0.0000000000000000000, -1.000000000000000000 ) ) ;
#686 = AXIS2_PLACEMENT_3D ( 'NONE', #348, #422, #655 ) ;
#687 = CARTESIAN_POINT ( 'NONE',  ( 21.00000000000000000, 0.0000000000000000000, -3.250000000000000444 ) ) ;
#688 = DIRECTION ( 'NONE',  ( -1.000000000000000000, 0.0000000000000000000, 4.956352788505163268E-16 ) ) ;
#689 = EDGE_CURVE ( 'NONE', #332, #495, #604, .T. ) ;
#690 = AXIS2_PLACEMENT_3D ( 'NONE', #191, #425, #612 ) ;
#691 = DIRECTION ( 'NONE',  ( 0.0000000000000000000, 0.0000000000000000000, -1.000000000000000000 ) ) ;
#692 = CYLINDRICAL_SURFACE ( 'NONE', #399, 17.50000000000000000 ) ;
#693 = VERTEX_POINT ( 'NONE', #357 ) ;
#694 = LINE ( 'NONE', #17, #555 ) ;
#695 = EDGE_CURVE ( 'NONE', #734, #231, #148, .T. ) ;
#696 = LINE ( 'NONE', #202, #247 ) ;
#697 = ORIENTED_EDGE ( 'NONE', *, *, #590, .F. ) ;
#698 = ORIENTED_EDGE ( 'NONE', *, *, #473, .F. ) ;
#699 = PRODUCT_DEFINITION ( 'UNKNOWN', '', #186, #708 ) ;
#700 = LINE ( 'NONE', #21, #679 ) ;
#701 = FACE_OUTER_BOUND ( 'NONE', #718, .T. ) ;
#702 = AXIS2_PLACEMENT_3D ( 'NONE', #722, #25, #600 ) ;
#703 = LINE ( 'NONE', #145, #219 ) ;
#704 = CARTESIAN_POINT ( 'NONE',  ( 85.35144164312221449, 0.0000000000000000000, 73.26588825372506619 ) ) ;
#705 = DIRECTION ( 'NONE',  ( 1.000000000000000000, 0.0000000000000000000, 0.0000000000000000000 ) ) ;
#706 = ORIENTED_EDGE ( 'NONE', *, *, #619, .F. ) ;
#707 = EDGE_CURVE ( 'NONE', #296, #241, #3, .T. ) ;
#708 = PRODUCT_DEFINITION_CONTEXT ( 'detailed design', #37, 'design' ) ;
#709 = ORIENTED_EDGE ( 'NONE', *, *, #733, .T. ) ;
#710 = DIRECTION ( 'NONE',  ( 0.7431448254773930229, 0.0000000000000000000, 0.6691306063588595698 ) ) ;
#711 = CARTESIAN_POINT ( 'NONE',  ( 0.0000000000000000000, -3.000000000000000000, 0.0000000000000000000 ) ) ;
#712 = FACE_BOUND ( 'NONE', #616, .T. ) ;
#713 = LINE ( 'NONE', #356, #564 ) ;
#714 = ORIENTED_EDGE ( 'NONE', *, *, #291, .T. ) ;
#715 = EDGE_LOOP ( 'NONE', ( #684, #174 ) ) ;
#716 = DIRECTION ( 'NONE',  ( 0.0000000000000000000, 0.0000000000000000000, -1.000000000000000000 ) ) ;
#717 = ADVANCED_FACE ( 'NONE', ( #404 ), #217, .T. ) ;
#718 = EDGE_LOOP ( 'NONE', ( #557, #282, #98, #491, #760, #697, #755, #234, #30, #659 ) ) ;
#719 = DIRECTION ( 'NONE',  ( -1.000000000000000000, -0.0000000000000000000, -0.0000000000000000000 ) ) ;
#720 = DIRECTION ( 'NONE',  ( 0.7431448254773930229, 0.0000000000000000000, 0.6691306063588595698 ) ) ;
#721 = LINE ( 'NONE', #144, #572 ) ;
#722 = CARTESIAN_POINT ( 'NONE',  ( 1.000000000000002665, -3.000000000000000000, 17.50000000000000000 ) ) ;
#723 = CYLINDRICAL_SURFACE ( 'NONE', #260, 1.000000000000000000 ) ;
#724 = CARTESIAN_POINT ( 'NONE',  ( 9.999999999999998224, -3.000000000000000000, -8.250000000000000000 ) ) ;
#725 = PRESENTATION_LAYER_ASSIGNMENT (  '', '', ( #407 ) ) ;
#726 = CARTESIAN_POINT ( 'NONE',  ( 0.0000000000000000000, -3.000000000000000000, 0.0000000000000000000 ) ) ;
#727 = CARTESIAN_POINT ( 'NONE',  ( 85.35144164312221449, -3.000000000000000000, 73.26588825372506619 ) ) ;
#728 = CIRCLE ( 'NONE', #675, 70.00000000000000000 ) ;
#729 = CARTESIAN_POINT ( 'NONE',  ( 6.962858476916555794, -3.000000000000000000, -17.50000000000000000 ) ) ;
#730 = VERTEX_POINT ( 'NONE', #446 ) ;
#731 = DIRECTION ( 'NONE',  ( 0.6691306063588594588, 0.0000000000000000000, -0.7431448254773932449 ) ) ;
#732 = DIRECTION ( 'NONE',  ( 1.000000000000000000, 0.0000000000000000000, 0.0000000000000000000 ) ) ;
#733 = EDGE_CURVE ( 'NONE', #403, #170, #694, .T. ) ;
#734 = VERTEX_POINT ( 'NONE', #321 ) ;
#735 = PLANE ( 'NONE',  #660 ) ;
#736 = DIRECTION ( 'NONE',  ( -0.7431448254773931339, 0.0000000000000000000, -0.6691306063588593478 ) ) ;
#737 = CYLINDRICAL_SURFACE ( 'NONE', #115, 70.00000000000000000 ) ;
#738 = CYLINDRICAL_SURFACE ( 'NONE', #449, 1.000000000000000888 ) ;
#739 = VECTOR ( 'NONE', #254, 1000.000000000000000 ) ;
#740 = LINE ( 'NONE', #72, #85 ) ;
#741 = VERTEX_POINT ( 'NONE', #382 ) ;
#742 = AXIS2_PLACEMENT_3D ( 'NONE', #436, #94, #152 ) ;
#743 = ORIENTED_EDGE ( 'NONE', *, *, #95, .T. ) ;
#744 = CARTESIAN_POINT ( 'NONE',  ( 27.00000000000001066, -3.000000000000000000, 3.750000000000000888 ) ) ;
#745 = ORIENTED_EDGE ( 'NONE', *, *, #304, .F. ) ;
#746 = CYLINDRICAL_SURFACE ( 'NONE', #549, 4.250000000000000000 ) ;
#747 = DIRECTION ( 'NONE',  ( 0.0000000000000000000, -0.0000000000000000000, -1.000000000000000000 ) ) ;
#748 = EDGE_CURVE ( 'NONE', #151, #23, #434, .T. ) ;
#749 = PRESENTATION_STYLE_ASSIGNMENT (( #203 ) ) ;
#750 = AXIS2_PLACEMENT_3D ( 'NONE', #724, #658, #685 ) ;
#751 = LINE ( 'NONE', #457, #398 ) ;
#752 = LINE ( 'NONE', #676, #440 ) ;
#753 = CARTESIAN_POINT ( 'NONE',  ( 20.00000000000000000, -3.000000000000000000, -2.249999999999999556 ) ) ;
#754 = ORIENTED_EDGE ( 'NONE', *, *, #391, .T. ) ;
#755 = ORIENTED_EDGE ( 'NONE', *, *, #95, .F. ) ;
#756 = ORIENTED_EDGE ( 'NONE', *, *, #134, .F. ) ;
#757 = AXIS2_PLACEMENT_3D ( 'NONE', #108, #162, #747 ) ;
#758 = LINE ( 'NONE', #546, #39 ) ;
#759 = ORIENTED_EDGE ( 'NONE', *, *, #559, .F. ) ;
#760 = ORIENTED_EDGE ( 'NONE', *, *, #514, .F. ) ;
#761 = CARTESIAN_POINT ( 'NONE',  ( 20.00000000000000000, -3.000000000000000000, -3.249999999999999556 ) ) ;
#762 = ADVANCED_FACE ( 'NONE', ( #379 ), #735, .T. ) ;
ENDSEC;
END-ISO-10303-21;
