ISO-10303-21;
HEADER;
FILE_DESCRIPTION (( 'STEP AP214' ),
    '1' );
FILE_NAME ('03_059_sheetmetal security cover.STEP',
    '2020-09-22T07:13:43',
    ( '' ),
    ( '' ),
    'SwSTEP 2.0',
    'SolidWorks 2018',
    '' );
FILE_SCHEMA (( 'AUTOMOTIVE_DESIGN' ));
ENDSEC;

DATA;
#1 = VERTEX_POINT ( 'NONE', #658 ) ;
#2 = DIRECTION ( 'NONE',  ( 0.0000000000000000000, -1.000000000000000000, 0.0000000000000000000 ) ) ;
#3 = DIRECTION ( 'NONE',  ( 0.0000000000000000000, -1.000000000000000000, -0.0000000000000000000 ) ) ;
#4 = VERTEX_POINT ( 'NONE', #80 ) ;
#5 = EDGE_LOOP ( 'NONE', ( #452, #500, #844, #857, #1053, #417 ) ) ;
#6 = ORIENTED_EDGE ( 'NONE', *, *, #321, .T. ) ;
#7 = CARTESIAN_POINT ( 'NONE',  ( -372.4999999999999432, 0.0000000000000000000, 27.25000000000000000 ) ) ;
#8 = AXIS2_PLACEMENT_3D ( 'NONE', #86, #728, #388 ) ;
#9 = EDGE_CURVE ( 'NONE', #982, #305, #462, .T. ) ;
#10 = FACE_OUTER_BOUND ( 'NONE', #185, .T. ) ;
#11 = CARTESIAN_POINT ( 'NONE',  ( 369.7499999999998863, 1.500000000000000000, 9.500000000000003553 ) ) ;
#12 = CARTESIAN_POINT ( 'NONE',  ( 369.7499999999998863, 0.0000000000000000000, 9.500000000000003553 ) ) ;
#13 = ORIENTED_EDGE ( 'NONE', *, *, #539, .T. ) ;
#14 = ORIENTED_EDGE ( 'NONE', *, *, #913, .T. ) ;
#15 = PLANE ( 'NONE',  #235 ) ;
#16 = CARTESIAN_POINT ( 'NONE',  ( -497.4999999999999432, 1.500000000000000000, 35.00000000000000000 ) ) ;
#17 = PRODUCT ( '03_059_sheetmetal security cover', '03_059_sheetmetal security cover', '', ( #627 ) ) ;
#18 = CIRCLE ( 'NONE', #337, 1.500000000000000000 ) ;
#19 = EDGE_LOOP ( 'NONE', ( #1012, #98, #146, #980 ) ) ;
#20 = ORIENTED_EDGE ( 'NONE', *, *, #672, .F. ) ;
#21 = EDGE_CURVE ( 'NONE', #855, #793, #208, .T. ) ;
#22 = DIRECTION ( 'NONE',  ( 0.0000000000000000000, 0.0000000000000000000, 1.000000000000000000 ) ) ;
#23 = AXIS2_PLACEMENT_3D ( 'NONE', #330, #582, #95 ) ;
#24 = CARTESIAN_POINT ( 'NONE',  ( 375.2499999999999432, 0.0000000000000000000, 9.500000000000000000 ) ) ;
#25 = CIRCLE ( 'NONE', #1033, 2.750000000000000888 ) ;
#26 = DIRECTION ( 'NONE',  ( 0.0000000000000000000, 0.0000000000000000000, 1.000000000000000000 ) ) ;
#27 = FACE_OUTER_BOUND ( 'NONE', #595, .T. ) ;
#28 = DIRECTION ( 'NONE',  ( 0.0000000000000000000, 1.000000000000000000, 0.0000000000000000000 ) ) ;
#29 = LINE ( 'NONE', #261, #771 ) ;
#30 = CARTESIAN_POINT ( 'NONE',  ( 372.4999999999999432, 0.0000000000000000000, 24.50000000000000000 ) ) ;
#31 = VERTEX_POINT ( 'NONE', #868 ) ;
#32 = DIRECTION ( 'NONE',  ( 1.000000000000000000, 0.0000000000000000000, 0.0000000000000000000 ) ) ;
#33 = AXIS2_PLACEMENT_3D ( 'NONE', #176, #329, #900 ) ;
#34 = DIRECTION ( 'NONE',  ( 0.0000000000000000000, 0.0000000000000000000, 1.000000000000000000 ) ) ;
#35 = DIRECTION ( 'NONE',  ( 0.0000000000000000000, 1.000000000000000000, 0.0000000000000000000 ) ) ;
#36 = EDGE_CURVE ( 'NONE', #513, #968, #584, .T. ) ;
#37 = ORIENTED_EDGE ( 'NONE', *, *, #468, .F. ) ;
#38 = DIRECTION ( 'NONE',  ( 0.0000000000000000000, 1.000000000000000000, 0.0000000000000000000 ) ) ;
#39 = CYLINDRICAL_SURFACE ( 'NONE', #803, 2.750000000000000888 ) ;
#40 = VECTOR ( 'NONE', #357, 1000.000000000000000 ) ;
#41 = FACE_OUTER_BOUND ( 'NONE', #389, .T. ) ;
#42 = CARTESIAN_POINT ( 'NONE',  ( -502.4999999999999432, 3.000000000000000000, 0.0000000000000000000 ) ) ;
#43 = AXIS2_PLACEMENT_3D ( 'NONE', #478, #718, #707 ) ;
#44 = LINE ( 'NONE', #704, #674 ) ;
#45 = DIRECTION ( 'NONE',  ( 0.0000000000000000000, 0.0000000000000000000, 1.000000000000000000 ) ) ;
#46 = ORIENTED_EDGE ( 'NONE', *, *, #573, .T. ) ;
#47 = EDGE_CURVE ( 'NONE', #1026, #842, #29, .T. ) ;
#48 = EDGE_LOOP ( 'NONE', ( #37, #1037, #870, #101 ) ) ;
#49 = ORIENTED_EDGE ( 'NONE', *, *, #130, .T. ) ;
#50 = ADVANCED_FACE ( 'NONE', ( #156 ), #137, .F. ) ;
#51 = EDGE_CURVE ( 'NONE', #120, #4, #839, .T. ) ;
#52 = ADVANCED_FACE ( 'NONE', ( #27 ), #652, .T. ) ;
#53 = CARTESIAN_POINT ( 'NONE',  ( -2.632990618166809630E-15, 0.0000000000000000000, 9.500000000000001776 ) ) ;
#54 = DIRECTION ( 'NONE',  ( 0.0000000000000000000, -1.000000000000000000, -0.0000000000000000000 ) ) ;
#55 = ORIENTED_EDGE ( 'NONE', *, *, #177, .T. ) ;
#56 = CARTESIAN_POINT ( 'NONE',  ( -497.4999999999999432, 50.00000000000000000, 0.0000000000000000000 ) ) ;
#57 = ORIENTED_EDGE ( 'NONE', *, *, #312, .F. ) ;
#58 = EDGE_LOOP ( 'NONE', ( #348, #590, #739, #738 ) ) ;
#59 = DIRECTION ( 'NONE',  ( 1.000000000000000000, 0.0000000000000000000, -3.180326372624146504E-16 ) ) ;
#60 = EDGE_LOOP ( 'NONE', ( #821, #161, #871, #752, #795 ) ) ;
#61 = CARTESIAN_POINT ( 'NONE',  ( -2.750000000000002665, 0.0000000000000000000, 9.500000000000003553 ) ) ;
#62 = CARTESIAN_POINT ( 'NONE',  ( -372.4999999999999432, 0.0000000000000000000, 24.50000000000000000 ) ) ;
#63 = DIRECTION ( 'NONE',  ( -0.0000000000000000000, 1.000000000000000000, -0.0000000000000000000 ) ) ;
#64 = LINE ( 'NONE', #647, #629 ) ;
#65 = LINE ( 'NONE', #1040, #992 ) ;
#66 = CARTESIAN_POINT ( 'NONE',  ( 502.4999999999999432, 0.0000000000000000000, 0.0000000000000000000 ) ) ;
#67 = CIRCLE ( 'NONE', #927, 2.749999999999999112 ) ;
#68 = LINE ( 'NONE', #983, #853 ) ;
#69 = AXIS2_PLACEMENT_3D ( 'NONE', #201, #919, #926 ) ;
#70 = DIRECTION ( 'NONE',  ( 0.0000000000000000000, 0.0000000000000000000, 1.000000000000000000 ) ) ;
#71 = FACE_BOUND ( 'NONE', #785, .T. ) ;
#72 = ORIENTED_EDGE ( 'NONE', *, *, #732, .F. ) ;
#73 = PLANE ( 'NONE',  #506 ) ;
#74 = CARTESIAN_POINT ( 'NONE',  ( 1.959434878635764737E-15, 0.0000000000000000000, 24.50000000000000000 ) ) ;
#75 = VERTEX_POINT ( 'NONE', #809 ) ;
#76 = AXIS2_PLACEMENT_3D ( 'NONE', #977, #166, #813 ) ;
#77 = VERTEX_POINT ( 'NONE', #987 ) ;
#78 = ORIENTED_EDGE ( 'NONE', *, *, #702, .T. ) ;
#79 = DIRECTION ( 'NONE',  ( -1.000000000000000000, 0.0000000000000000000, -0.0000000000000000000 ) ) ;
#80 = CARTESIAN_POINT ( 'NONE',  ( 369.7499999999998863, 0.0000000000000000000, 9.500000000000003553 ) ) ;
#81 = ADVANCED_FACE ( 'NONE', ( #966 ), #411, .F. ) ;
#82 = AXIS2_PLACEMENT_3D ( 'NONE', #412, #183, #819 ) ;
#83 = ORIENTED_EDGE ( 'NONE', *, *, #520, .T. ) ;
#84 = STYLED_ITEM ( 'NONE', ( #257 ), #470 ) ;
#85 = DIRECTION ( 'NONE',  ( 1.000000000000000000, 0.0000000000000000000, -0.0000000000000000000 ) ) ;
#86 = CARTESIAN_POINT ( 'NONE',  ( 372.4999999999999432, 1.500000000000000000, 24.50000000000000000 ) ) ;
#87 = CARTESIAN_POINT ( 'NONE',  ( 502.4999999999999432, 0.0000000000000000000, 35.00000000000000000 ) ) ;
#88 = VECTOR ( 'NONE', #586, 1000.000000000000000 ) ;
#89 = VERTEX_POINT ( 'NONE', #171 ) ;
#90 = VERTEX_POINT ( 'NONE', #279 ) ;
#91 = CARTESIAN_POINT ( 'NONE',  ( 1.959434878635764737E-15, 0.0000000000000000000, 27.25000000000000000 ) ) ;
#92 = ORIENTED_EDGE ( 'NONE', *, *, #205, .F. ) ;
#93 = CARTESIAN_POINT ( 'NONE',  ( 2.749999999999997780, 1.500000000000000000, 9.500000000000000000 ) ) ;
#94 = VERTEX_POINT ( 'NONE', #398 ) ;
#95 = DIRECTION ( 'NONE',  ( 1.000000000000000000, 0.0000000000000000000, 0.0000000000000000000 ) ) ;
#96 = CARTESIAN_POINT ( 'NONE',  ( 502.4999999999999432, 3.000000000000000000, 1.500000000000000000 ) ) ;
#97 = LINE ( 'NONE', #132, #491 ) ;
#98 = ORIENTED_EDGE ( 'NONE', *, *, #947, .F. ) ;
#99 = CARTESIAN_POINT ( 'NONE',  ( 2.750000000000002665, 1.500000000000000000, 24.50000000000000000 ) ) ;
#100 = AXIS2_PLACEMENT_3D ( 'NONE', #385, #236, #787 ) ;
#101 = ORIENTED_EDGE ( 'NONE', *, *, #21, .T. ) ;
#102 = DIRECTION ( 'NONE',  ( 1.000000000000000000, 0.0000000000000000000, 0.0000000000000000000 ) ) ;
#103 = AXIS2_PLACEMENT_3D ( 'NONE', #480, #1061, #976 ) ;
#104 = ORIENTED_EDGE ( 'NONE', *, *, #9, .T. ) ;
#105 = DIRECTION ( 'NONE',  ( -1.000000000000000000, -0.0000000000000000000, -0.0000000000000000000 ) ) ;
#106 = EDGE_CURVE ( 'NONE', #444, #231, #372, .T. ) ;
#107 = ORIENTED_EDGE ( 'NONE', *, *, #915, .F. ) ;
#108 = VERTEX_POINT ( 'NONE', #99 ) ;
#109 = FILL_AREA_STYLE ('',( #993 ) ) ;
#110 = VECTOR ( 'NONE', #408, 1000.000000000000000 ) ;
#111 = DIRECTION ( 'NONE',  ( 1.000000000000000000, 0.0000000000000000000, -3.180326372624146504E-16 ) ) ;
#112 = AXIS2_PLACEMENT_3D ( 'NONE', #1058, #568, #85 ) ;
#113 = SURFACE_STYLE_USAGE ( .BOTH. , #1005 ) ;
#114 = VECTOR ( 'NONE', #676, 1000.000000000000000 ) ;
#115 = ORIENTED_EDGE ( 'NONE', *, *, #47, .F. ) ;
#116 = CARTESIAN_POINT ( 'NONE',  ( -375.2500000000000000, 0.0000000000000000000, 24.50000000000000000 ) ) ;
#117 = AXIS2_PLACEMENT_3D ( 'NONE', #959, #59, #531 ) ;
#118 = DIRECTION ( 'NONE',  ( 0.0000000000000000000, 0.0000000000000000000, 1.000000000000000000 ) ) ;
#119 = EDGE_CURVE ( 'NONE', #186, #549, #265, .T. ) ;
#120 = VERTEX_POINT ( 'NONE', #191 ) ;
#121 = CARTESIAN_POINT ( 'NONE',  ( -2.632990618166809630E-15, 0.0000000000000000000, 9.500000000000001776 ) ) ;
#122 = DIRECTION ( 'NONE',  ( -3.180326372624146504E-16, -0.0000000000000000000, -1.000000000000000000 ) ) ;
#123 = VECTOR ( 'NONE', #939, 1000.000000000000000 ) ;
#124 = FACE_OUTER_BOUND ( 'NONE', #1004, .T. ) ;
#125 = LINE ( 'NONE', #61, #802 ) ;
#126 = DIRECTION ( 'NONE',  ( -1.000000000000000000, -0.0000000000000000000, -0.0000000000000000000 ) ) ;
#127 = ORIENTED_EDGE ( 'NONE', *, *, #603, .T. ) ;
#128 = VERTEX_POINT ( 'NONE', #828 ) ;
#129 = DIRECTION ( 'NONE',  ( 0.0000000000000000000, 0.0000000000000000000, 1.000000000000000000 ) ) ;
#130 = EDGE_CURVE ( 'NONE', #141, #270, #548, .T. ) ;
#131 = ORIENTED_EDGE ( 'NONE', *, *, #1023, .F. ) ;
#132 = CARTESIAN_POINT ( 'NONE',  ( -502.4999999999999432, 0.0000000000000000000, 0.0000000000000000000 ) ) ;
#133 = CARTESIAN_POINT ( 'NONE',  ( -372.4999999999999432, 1.500000000000000000, 24.50000000000000000 ) ) ;
#134 = EDGE_CURVE ( 'NONE', #1, #855, #237, .T. ) ;
#135 = FACE_OUTER_BOUND ( 'NONE', #173, .T. ) ;
#136 = DIRECTION ( 'NONE',  ( -1.000000000000000000, 0.0000000000000000000, -0.0000000000000000000 ) ) ;
#137 = CYLINDRICAL_SURFACE ( 'NONE', #860, 2.749999999999999112 ) ;
#138 = EDGE_CURVE ( 'NONE', #90, #108, #761, .T. ) ;
#139 = ORIENTED_EDGE ( 'NONE', *, *, #341, .T. ) ;
#140 = ADVANCED_FACE ( 'NONE', ( #155 ), #510, .F. ) ;
#141 = VERTEX_POINT ( 'NONE', #344 ) ;
#142 = EDGE_LOOP ( 'NONE', ( #46, #482, #924, #55, #753 ) ) ;
#143 = DIRECTION ( 'NONE',  ( -3.180326372624146504E-16, -0.0000000000000000000, -1.000000000000000000 ) ) ;
#144 = EDGE_LOOP ( 'NONE', ( #774, #301, #938, #327, #495, #606 ) ) ;
#145 = AXIS2_PLACEMENT_3D ( 'NONE', #812, #804, #807 ) ;
#146 = ORIENTED_EDGE ( 'NONE', *, *, #1030, .F. ) ;
#147 = ORIENTED_EDGE ( 'NONE', *, *, #751, .T. ) ;
#148 = EDGE_CURVE ( 'NONE', #94, #90, #414, .T. ) ;
#149 = DIRECTION ( 'NONE',  ( -1.000000000000000000, -0.0000000000000000000, -0.0000000000000000000 ) ) ;
#150 = DIRECTION ( 'NONE',  ( 0.0000000000000000000, 0.0000000000000000000, 1.000000000000000000 ) ) ;
#151 = DIRECTION ( 'NONE',  ( -0.0000000000000000000, 1.000000000000000000, -0.0000000000000000000 ) ) ;
#152 = VECTOR ( 'NONE', #827, 1000.000000000000000 ) ;
#153 = DIRECTION ( 'NONE',  ( -0.0000000000000000000, -1.000000000000000000, 0.0000000000000000000 ) ) ;
#154 = CIRCLE ( 'NONE', #937, 3.000000000000000444 ) ;
#155 = FACE_OUTER_BOUND ( 'NONE', #723, .T. ) ;
#156 = FACE_OUTER_BOUND ( 'NONE', #914, .T. ) ;
#157 = ORIENTED_EDGE ( 'NONE', *, *, #668, .T. ) ;
#158 = EDGE_CURVE ( 'NONE', #550, #842, #657, .T. ) ;
#159 = APPLICATION_CONTEXT ( 'automotive_design' ) ;
#160 = DIRECTION ( 'NONE',  ( 0.0000000000000000000, 1.000000000000000000, 0.0000000000000000000 ) ) ;
#161 = ORIENTED_EDGE ( 'NONE', *, *, #489, .T. ) ;
#162 = VERTEX_POINT ( 'NONE', #116 ) ;
#163 = FILL_AREA_STYLE ('',( #551 ) ) ;
#164 =( GEOMETRIC_REPRESENTATION_CONTEXT ( 3 ) GLOBAL_UNCERTAINTY_ASSIGNED_CONTEXT ( ( #741 ) ) GLOBAL_UNIT_ASSIGNED_CONTEXT ( ( #873, #476, #391 ) ) REPRESENTATION_CONTEXT ( 'NONE', 'WORKASPACE' ) );
#165 = CARTESIAN_POINT ( 'NONE',  ( -497.4999999999999432, 1.500000000000000000, 40.00000000000000000 ) ) ;
#166 = DIRECTION ( 'NONE',  ( 1.000000000000000000, 0.0000000000000000000, 0.0000000000000000000 ) ) ;
#167 = EDGE_CURVE ( 'NONE', #923, #77, #818, .T. ) ;
#168 = CARTESIAN_POINT ( 'NONE',  ( 1.959434878635764737E-15, 0.0000000000000000000, 24.50000000000000000 ) ) ;
#169 = FACE_OUTER_BOUND ( 'NONE', #338, .T. ) ;
#170 = DIRECTION ( 'NONE',  ( 1.000000000000000000, 0.0000000000000000000, 0.0000000000000000000 ) ) ;
#171 = CARTESIAN_POINT ( 'NONE',  ( -502.4999999999999432, 3.000000000000000000, 1.500000000000000000 ) ) ;
#172 = EDGE_LOOP ( 'NONE', ( #343, #698, #300, #786 ) ) ;
#173 = EDGE_LOOP ( 'NONE', ( #720, #347, #889, #523 ) ) ;
#174 = ORIENTED_EDGE ( 'NONE', *, *, #167, .F. ) ;
#175 = CARTESIAN_POINT ( 'NONE',  ( 375.2499999999999432, 0.0000000000000000000, 9.500000000000000000 ) ) ;
#176 = CARTESIAN_POINT ( 'NONE',  ( 369.7499999999998863, 0.0000000000000000000, 9.500000000000003553 ) ) ;
#177 = EDGE_CURVE ( 'NONE', #162, #903, #519, .T. ) ;
#178 = CARTESIAN_POINT ( 'NONE',  ( 502.4999999999999432, 55.00000000000000000, 0.0000000000000000000 ) ) ;
#179 = FACE_OUTER_BOUND ( 'NONE', #442, .T. ) ;
#180 = DIRECTION ( 'NONE',  ( -0.0000000000000000000, 1.000000000000000000, -0.0000000000000000000 ) ) ;
#181 = EDGE_CURVE ( 'NONE', #305, #214, #693, .T. ) ;
#182 = EDGE_LOOP ( 'NONE', ( #597, #127, #92, #406 ) ) ;
#183 = DIRECTION ( 'NONE',  ( 1.000000000000000000, 0.0000000000000000000, 0.0000000000000000000 ) ) ;
#184 = ORIENTED_EDGE ( 'NONE', *, *, #1028, .T. ) ;
#185 = EDGE_LOOP ( 'NONE', ( #736, #622, #115, #834 ) ) ;
#186 = VERTEX_POINT ( 'NONE', #293 ) ;
#187 = DIRECTION ( 'NONE',  ( 0.0000000000000000000, 0.0000000000000000000, 1.000000000000000000 ) ) ;
#188 = CYLINDRICAL_SURFACE ( 'NONE', #289, 2.749999999999999112 ) ;
#189 = AXIS2_PLACEMENT_3D ( 'NONE', #727, #255, #393 ) ;
#190 = FACE_OUTER_BOUND ( 'NONE', #172, .T. ) ;
#191 = CARTESIAN_POINT ( 'NONE',  ( 375.2499999999999432, 0.0000000000000000000, 9.500000000000000000 ) ) ;
#192 = AXIS2_PLACEMENT_3D ( 'NONE', #1031, #856, #379 ) ;
#193 = EDGE_LOOP ( 'NONE', ( #888, #326, #1052, #859 ) ) ;
#194 =( NAMED_UNIT ( * ) PLANE_ANGLE_UNIT ( ) SI_UNIT ( $, .RADIAN. ) );
#195 = ORIENTED_EDGE ( 'NONE', *, *, #292, .F. ) ;
#196 = MECHANICAL_DESIGN_GEOMETRIC_PRESENTATION_REPRESENTATION (  '', ( #84 ), #644 ) ;
#197 = EDGE_CURVE ( 'NONE', #969, #316, #978, .T. ) ;
#198 = DIRECTION ( 'NONE',  ( -0.0000000000000000000, 1.000000000000000000, 0.0000000000000000000 ) ) ;
#199 = VERTEX_POINT ( 'NONE', #1024 ) ;
#200 = DIRECTION ( 'NONE',  ( -0.0000000000000000000, 1.000000000000000000, 0.0000000000000000000 ) ) ;
#201 = CARTESIAN_POINT ( 'NONE',  ( 1.959434878635764737E-15, 0.0000000000000000000, 24.50000000000000000 ) ) ;
#202 = LINE ( 'NONE', #624, #907 ) ;
#203 = CARTESIAN_POINT ( 'NONE',  ( 372.4999999999999432, 0.0000000000000000000, 24.50000000000000000 ) ) ;
#204 = ADVANCED_FACE ( 'NONE', ( #682 ), #400, .T. ) ;
#205 = EDGE_CURVE ( 'NONE', #747, #419, #97, .T. ) ;
#206 = PLANE ( 'NONE',  #1003 ) ;
#207 = CYLINDRICAL_SURFACE ( 'NONE', #600, 2.749999999999999112 ) ;
#208 = LINE ( 'NONE', #464, #1022 ) ;
#209 = AXIS2_PLACEMENT_3D ( 'NONE', #922, #111, #355 ) ;
#210 = ORIENTED_EDGE ( 'NONE', *, *, #524, .T. ) ;
#211 = ORIENTED_EDGE ( 'NONE', *, *, #148, .F. ) ;
#212 = DIRECTION ( 'NONE',  ( 0.0000000000000000000, 0.0000000000000000000, 1.000000000000000000 ) ) ;
#213 = ORIENTED_EDGE ( 'NONE', *, *, #382, .T. ) ;
#214 = VERTEX_POINT ( 'NONE', #840 ) ;
#215 = DIRECTION ( 'NONE',  ( 1.000000000000000000, 0.0000000000000000000, -0.0000000000000000000 ) ) ;
#216 = ADVANCED_FACE ( 'NONE', ( #781 ), #866, .F. ) ;
#217 = LINE ( 'NONE', #569, #625 ) ;
#218 = AXIS2_PLACEMENT_3D ( 'NONE', #53, #623, #441 ) ;
#219 = VECTOR ( 'NONE', #284, 1000.000000000000000 ) ;
#220 = AXIS2_PLACEMENT_3D ( 'NONE', #223, #945, #621 ) ;
#221 = CYLINDRICAL_SURFACE ( 'NONE', #696, 2.750000000000000888 ) ;
#222 = PRODUCT_DEFINITION_CONTEXT ( 'detailed design', #159, 'design' ) ;
#223 = CARTESIAN_POINT ( 'NONE',  ( -502.4999999999999432, 3.000000000000000000, 3.000000000000001332 ) ) ;
#224 = ADVANCED_FACE ( 'NONE', ( #169 ), #459, .F. ) ;
#225 = DIRECTION ( 'NONE',  ( 0.0000000000000000000, 1.000000000000000000, 0.0000000000000000000 ) ) ;
#226 = DIRECTION ( 'NONE',  ( 1.000000000000000000, -0.0000000000000000000, -0.0000000000000000000 ) ) ;
#227 = DIRECTION ( 'NONE',  ( -1.000000000000000000, -0.0000000000000000000, -0.0000000000000000000 ) ) ;
#228 = DIRECTION ( 'NONE',  ( 0.0000000000000000000, 0.0000000000000000000, 1.000000000000000000 ) ) ;
#229 = ORIENTED_EDGE ( 'NONE', *, *, #233, .F. ) ;
#230 = ORIENTED_EDGE ( 'NONE', *, *, #387, .F. ) ;
#231 = VERTEX_POINT ( 'NONE', #708 ) ;
#232 = DIRECTION ( 'NONE',  ( 3.180326372624146997E-16, 0.0000000000000000000, 1.000000000000000000 ) ) ;
#233 = EDGE_CURVE ( 'NONE', #419, #305, #547, .T. ) ;
#234 = LINE ( 'NONE', #988, #546 ) ;
#235 = AXIS2_PLACEMENT_3D ( 'NONE', #579, #331, #490 ) ;
#236 = DIRECTION ( 'NONE',  ( 0.0000000000000000000, 0.0000000000000000000, -1.000000000000000000 ) ) ;
#237 = CIRCLE ( 'NONE', #494, 4.999999999999997335 ) ;
#238 = CARTESIAN_POINT ( 'NONE',  ( 502.4999999999999432, 0.0000000000000000000, 1.500000000000000000 ) ) ;
#239 = CARTESIAN_POINT ( 'NONE',  ( 502.4999999999999432, 3.000000000000000000, 1.500000000000000000 ) ) ;
#240 = VERTEX_POINT ( 'NONE', #239 ) ;
#241 = ORIENTED_EDGE ( 'NONE', *, *, #636, .F. ) ;
#242 = DIRECTION ( 'NONE',  ( 0.0000000000000000000, 0.0000000000000000000, 1.000000000000000000 ) ) ;
#243 = DIRECTION ( 'NONE',  ( 0.0000000000000000000, 0.0000000000000000000, 1.000000000000000000 ) ) ;
#244 = CARTESIAN_POINT ( 'NONE',  ( -372.4999999999999432, 0.0000000000000000000, 24.50000000000000000 ) ) ;
#245 = CARTESIAN_POINT ( 'NONE',  ( -369.7499999999998863, 0.0000000000000000000, 24.50000000000000000 ) ) ;
#246 = LINE ( 'NONE', #334, #639 ) ;
#247 = LINE ( 'NONE', #540, #449 ) ;
#248 = FACE_BOUND ( 'NONE', #567, .T. ) ;
#249 = CARTESIAN_POINT ( 'NONE',  ( 502.4999999999999432, 0.0000000000000000000, 3.000000000000002665 ) ) ;
#250 = EDGE_CURVE ( 'NONE', #968, #240, #18, .T. ) ;
#251 = ORIENTED_EDGE ( 'NONE', *, *, #571, .F. ) ;
#252 = EDGE_CURVE ( 'NONE', #598, #141, #912, .T. ) ;
#253 = PLANE ( 'NONE',  #973 ) ;
#254 = ORIENTED_EDGE ( 'NONE', *, *, #587, .T. ) ;
#255 = DIRECTION ( 'NONE',  ( 0.0000000000000000000, 1.000000000000000000, 0.0000000000000000000 ) ) ;
#256 = PLANE ( 'NONE',  #854 ) ;
#257 = PRESENTATION_STYLE_ASSIGNMENT (( #964 ) ) ;
#258 = SURFACE_STYLE_FILL_AREA ( #163 ) ;
#259 = DIRECTION ( 'NONE',  ( -0.0000000000000000000, 1.000000000000000000, 0.0000000000000000000 ) ) ;
#260 = LINE ( 'NONE', #12, #910 ) ;
#261 = CARTESIAN_POINT ( 'NONE',  ( -502.4999999999999432, 1.500000000000000000, 3.000000000000001776 ) ) ;
#262 = VECTOR ( 'NONE', #180, 1000.000000000000000 ) ;
#263 = DIRECTION ( 'NONE',  ( 0.0000000000000000000, 1.000000000000000000, 0.0000000000000000000 ) ) ;
#264 = AXIS2_PLACEMENT_3D ( 'NONE', #731, #79, #798 ) ;
#265 = CIRCLE ( 'NONE', #831, 2.749999999999999112 ) ;
#266 = CARTESIAN_POINT ( 'NONE',  ( -372.4999999999999432, 0.0000000000000000000, 27.25000000000000000 ) ) ;
#267 = CARTESIAN_POINT ( 'NONE',  ( 1.959434878635764737E-15, 1.500000000000000000, 24.50000000000000000 ) ) ;
#268 = ORIENTED_EDGE ( 'NONE', *, *, #382, .F. ) ;
#269 = EDGE_LOOP ( 'NONE', ( #377, #772, #498, #522 ) ) ;
#270 = VERTEX_POINT ( 'NONE', #875 ) ;
#271 = AXIS2_PLACEMENT_3D ( 'NONE', #1057, #170, #981 ) ;
#272 = EDGE_CURVE ( 'NONE', #776, #392, #715, .T. ) ;
#273 = CARTESIAN_POINT ( 'NONE',  ( 502.4999999999999432, 3.000000000000000000, 3.000000000000001332 ) ) ;
#274 = CIRCLE ( 'NONE', #773, 3.000000000000000444 ) ;
#275 = CIRCLE ( 'NONE', #801, 2.749999999999999112 ) ;
#276 = LINE ( 'NONE', #965, #626 ) ;
#277 = CARTESIAN_POINT ( 'NONE',  ( -372.4999999999999432, 1.500000000000000000, 9.500000000000001776 ) ) ;
#278 = EDGE_LOOP ( 'NONE', ( #481, #588, #13, #984 ) ) ;
#279 = CARTESIAN_POINT ( 'NONE',  ( 2.750000000000002665, 0.0000000000000000000, 24.50000000000000000 ) ) ;
#280 = ORIENTED_EDGE ( 'NONE', *, *, #283, .F. ) ;
#281 = ORIENTED_EDGE ( 'NONE', *, *, #730, .F. ) ;
#282 = ORIENTED_EDGE ( 'NONE', *, *, #51, .F. ) ;
#283 = EDGE_CURVE ( 'NONE', #810, #842, #276, .T. ) ;
#284 = DIRECTION ( 'NONE',  ( -0.0000000000000000000, 1.000000000000000000, -0.0000000000000000000 ) ) ;
#285 = LINE ( 'NONE', #933, #864 ) ;
#286 = FACE_OUTER_BOUND ( 'NONE', #677, .T. ) ;
#287 = CARTESIAN_POINT ( 'NONE',  ( 502.4999999999999432, 1.500000000000000000, 3.000000000000001776 ) ) ;
#288 = ADVANCED_FACE ( 'NONE', ( #656 ), #817, .T. ) ;
#289 = AXIS2_PLACEMENT_3D ( 'NONE', #203, #432, #26 ) ;
#290 = FACE_BOUND ( 'NONE', #894, .T. ) ;
#291 = ORIENTED_EDGE ( 'NONE', *, *, #9, .F. ) ;
#292 = EDGE_CURVE ( 'NONE', #4, #833, #44, .T. ) ;
#293 = CARTESIAN_POINT ( 'NONE',  ( -2.749999999999998224, 1.500000000000000000, 24.50000000000000000 ) ) ;
#294 = ORIENTED_EDGE ( 'NONE', *, *, #1023, .T. ) ;
#295 = CIRCLE ( 'NONE', #404, 4.999999999999997335 ) ;
#296 = VECTOR ( 'NONE', #878, 1000.000000000000000 ) ;
#297 = VECTOR ( 'NONE', #758, 1000.000000000000000 ) ;
#298 = ADVANCED_FACE ( 'NONE', ( #434 ), #221, .F. ) ;
#299 = EDGE_LOOP ( 'NONE', ( #241, #612, #901, #669 ) ) ;
#300 = ORIENTED_EDGE ( 'NONE', *, *, #904, .T. ) ;
#301 = ORIENTED_EDGE ( 'NONE', *, *, #830, .T. ) ;
#302 = ORIENTED_EDGE ( 'NONE', *, *, #283, .T. ) ;
#303 = ORIENTED_EDGE ( 'NONE', *, *, #345, .F. ) ;
#304 = DIRECTION ( 'NONE',  ( 3.180326372624146997E-16, 0.0000000000000000000, 1.000000000000000000 ) ) ;
#305 = VERTEX_POINT ( 'NONE', #466 ) ;
#306 = ORIENTED_EDGE ( 'NONE', *, *, #423, .T. ) ;
#307 = DIRECTION ( 'NONE',  ( 0.0000000000000000000, 0.0000000000000000000, 1.000000000000000000 ) ) ;
#308 = FACE_OUTER_BOUND ( 'NONE', #299, .T. ) ;
#309 = DIRECTION ( 'NONE',  ( 0.0000000000000000000, 0.0000000000000000000, 1.000000000000000000 ) ) ;
#310 = CYLINDRICAL_SURFACE ( 'NONE', #543, 2.749999999999999112 ) ;
#311 = CARTESIAN_POINT ( 'NONE',  ( -2.749999999999998224, 0.0000000000000000000, 24.50000000000000000 ) ) ;
#312 = EDGE_CURVE ( 'NONE', #688, #941, #125, .T. ) ;
#313 = CARTESIAN_POINT ( 'NONE',  ( 502.4999999999999432, 1.500000000000000000, 40.00000000000000000 ) ) ;
#314 = APPLICATION_PROTOCOL_DEFINITION ( 'draft international standard', 'automotive_design', 1998, #159 ) ;
#315 = ORIENTED_EDGE ( 'NONE', *, *, #233, .T. ) ;
#316 = VERTEX_POINT ( 'NONE', #1043 ) ;
#317 = DIRECTION ( 'NONE',  ( 0.0000000000000000000, -0.0000000000000000000, 1.000000000000000000 ) ) ;
#318 = ADVANCED_FACE ( 'NONE', ( #779 ), #944, .F. ) ;
#319 = CARTESIAN_POINT ( 'NONE',  ( 372.4999999999999432, 0.0000000000000000000, 27.25000000000000000 ) ) ;
#320 = VECTOR ( 'NONE', #63, 1000.000000000000000 ) ;
#321 = EDGE_CURVE ( 'NONE', #316, #982, #1021, .T. ) ;
#322 = CARTESIAN_POINT ( 'NONE',  ( 502.4999999999999432, 1.500000000000000000, 40.00000000000000000 ) ) ;
#323 = CARTESIAN_POINT ( 'NONE',  ( 2.749999999999997780, 0.0000000000000000000, 9.500000000000000000 ) ) ;
#324 = CARTESIAN_POINT ( 'NONE',  ( -502.4999999999999432, 0.0000000000000000000, 3.000000000000002665 ) ) ;
#325 = DIRECTION ( 'NONE',  ( 0.0000000000000000000, 0.0000000000000000000, -1.000000000000000000 ) ) ;
#326 = ORIENTED_EDGE ( 'NONE', *, *, #555, .T. ) ;
#327 = ORIENTED_EDGE ( 'NONE', *, *, #799, .T. ) ;
#328 = PRESENTATION_LAYER_ASSIGNMENT (  '', '', ( #454 ) ) ;
#329 = DIRECTION ( 'NONE',  ( -1.000000000000000000, 0.0000000000000000000, 3.180326372624146997E-16 ) ) ;
#330 = CARTESIAN_POINT ( 'NONE',  ( -497.4999999999999432, 50.00000000000000000, 1.500000000000000000 ) ) ;
#331 = DIRECTION ( 'NONE',  ( 1.000000000000000000, 0.0000000000000000000, 0.0000000000000000000 ) ) ;
#332 = CARTESIAN_POINT ( 'NONE',  ( -2.750000000000002665, 1.500000000000000000, 9.500000000000003553 ) ) ;
#333 = VECTOR ( 'NONE', #700, 1000.000000000000000 ) ;
#334 = CARTESIAN_POINT ( 'NONE',  ( -502.4999999999999432, 3.000000000000000000, 0.0000000000000000000 ) ) ;
#335 = CARTESIAN_POINT ( 'NONE',  ( 502.4999999999999432, 55.00000000000000000, 1.500000000000000000 ) ) ;
#336 = EDGE_LOOP ( 'NONE', ( #775, #303, #675, #213 ) ) ;
#337 = AXIS2_PLACEMENT_3D ( 'NONE', #473, #957, #469 ) ;
#338 = EDGE_LOOP ( 'NONE', ( #699, #846, #690, #78 ) ) ;
#339 = EDGE_CURVE ( 'NONE', #240, #969, #535, .T. ) ;
#340 = VECTOR ( 'NONE', #501, 1000.000000000000000 ) ;
#341 = EDGE_CURVE ( 'NONE', #842, #747, #154, .T. ) ;
#342 = DIRECTION ( 'NONE',  ( 0.0000000000000000000, -0.0000000000000000000, 1.000000000000000000 ) ) ;
#343 = ORIENTED_EDGE ( 'NONE', *, *, #158, .F. ) ;
#344 = CARTESIAN_POINT ( 'NONE',  ( 369.7499999999998863, 1.500000000000000000, 9.500000000000005329 ) ) ;
#345 = EDGE_CURVE ( 'NONE', #479, #358, #617, .T. ) ;
#346 = ORIENTED_EDGE ( 'NONE', *, *, #21, .F. ) ;
#347 = ORIENTED_EDGE ( 'NONE', *, *, #751, .F. ) ;
#348 = ORIENTED_EDGE ( 'NONE', *, *, #197, .F. ) ;
#349 = DIRECTION ( 'NONE',  ( 0.0000000000000000000, 0.0000000000000000000, 1.000000000000000000 ) ) ;
#350 = CARTESIAN_POINT ( 'NONE',  ( 375.2499999999999432, 1.500000000000000000, 9.500000000000000000 ) ) ;
#351 = LINE ( 'NONE', #589, #963 ) ;
#352 = VECTOR ( 'NONE', #420, 1000.000000000000000 ) ;
#353 = SURFACE_STYLE_FILL_AREA ( #109 ) ;
#354 = CARTESIAN_POINT ( 'NONE',  ( -369.7499999999998863, 1.500000000000000000, 24.50000000000000000 ) ) ;
#355 = DIRECTION ( 'NONE',  ( -3.180326372624146504E-16, 0.0000000000000000000, -1.000000000000000000 ) ) ;
#356 = VECTOR ( 'NONE', #325, 1000.000000000000000 ) ;
#357 = DIRECTION ( 'NONE',  ( 0.0000000000000000000, 0.0000000000000000000, -1.000000000000000000 ) ) ;
#358 = VERTEX_POINT ( 'NONE', #554 ) ;
#359 = VERTEX_POINT ( 'NONE', #1047 ) ;
#360 = DIRECTION ( 'NONE',  ( 0.0000000000000000000, 1.000000000000000000, 0.0000000000000000000 ) ) ;
#361 = EDGE_CURVE ( 'NONE', #982, #392, #507, .T. ) ;
#362 = ORIENTED_EDGE ( 'NONE', *, *, #252, .F. ) ;
#363 = AXIS2_PLACEMENT_3D ( 'NONE', #788, #929, #212 ) ;
#364 = CARTESIAN_POINT ( 'NONE',  ( -502.4999999999999432, 1.500000000000000000, 3.000000000000001776 ) ) ;
#365 = FACE_OUTER_BOUND ( 'NONE', #431, .T. ) ;
#366 = CIRCLE ( 'NONE', #218, 2.750000000000000888 ) ;
#367 = CARTESIAN_POINT ( 'NONE',  ( 497.4999999999999432, 55.00000000000000000, 0.0000000000000000000 ) ) ;
#368 = CIRCLE ( 'NONE', #145, 2.749999999999999112 ) ;
#369 = FACE_OUTER_BOUND ( 'NONE', #193, .T. ) ;
#370 = PLANE ( 'NONE',  #650 ) ;
#371 = ADVANCED_FACE ( 'NONE', ( #41 ), #310, .F. ) ;
#372 = LINE ( 'NONE', #503, #114 ) ;
#373 = ORIENTED_EDGE ( 'NONE', *, *, #524, .F. ) ;
#374 = EDGE_CURVE ( 'NONE', #810, #968, #884, .T. ) ;
#375 = ORIENTED_EDGE ( 'NONE', *, *, #636, .T. ) ;
#376 = CARTESIAN_POINT ( 'NONE',  ( 497.4999999999999432, 55.00000000000000000, 1.500000000000000000 ) ) ;
#377 = ORIENTED_EDGE ( 'NONE', *, *, #997, .F. ) ;
#378 = ADVANCED_FACE ( 'NONE', ( #383 ), #995, .F. ) ;
#379 = DIRECTION ( 'NONE',  ( 3.180326372624146997E-16, 0.0000000000000000000, 1.000000000000000000 ) ) ;
#380 = CARTESIAN_POINT ( 'NONE',  ( -372.4999999999999432, 0.0000000000000000000, 9.500000000000001776 ) ) ;
#381 = FACE_OUTER_BOUND ( 'NONE', #5, .T. ) ;
#382 = EDGE_CURVE ( 'NONE', #832, #77, #68, .T. ) ;
#383 = FACE_OUTER_BOUND ( 'NONE', #1034, .T. ) ;
#384 = APPLICATION_PROTOCOL_DEFINITION ( 'draft international standard', 'automotive_design', 1998, #635 ) ;
#385 = CARTESIAN_POINT ( 'NONE',  ( 497.4999999999999432, 50.00000000000000000, 1.500000000000000000 ) ) ;
#386 = VECTOR ( 'NONE', #763, 1000.000000000000000 ) ;
#387 = EDGE_CURVE ( 'NONE', #240, #776, #826, .T. ) ;
#388 = DIRECTION ( 'NONE',  ( 0.0000000000000000000, 0.0000000000000000000, 1.000000000000000000 ) ) ;
#389 = EDGE_LOOP ( 'NONE', ( #281, #471, #608, #750 ) ) ;
#390 = ORIENTED_EDGE ( 'NONE', *, *, #345, .T. ) ;
#391 =( NAMED_UNIT ( * ) SI_UNIT ( $, .STERADIAN. ) SOLID_ANGLE_UNIT ( ) );
#392 = VERTEX_POINT ( 'NONE', #665 ) ;
#393 = DIRECTION ( 'NONE',  ( 0.0000000000000000000, 0.0000000000000000000, 1.000000000000000000 ) ) ;
#394 = PRODUCT_DEFINITION_SHAPE ( 'NONE', 'NONE',  #891 ) ;
#395 = CYLINDRICAL_SURFACE ( 'NONE', #561, 5.000000000000000888 ) ;
#396 = CIRCLE ( 'NONE', #920, 2.749999999999999112 ) ;
#397 = EDGE_CURVE ( 'NONE', #316, #214, #458, .T. ) ;
#398 = CARTESIAN_POINT ( 'NONE',  ( 1.959434878635764737E-15, 0.0000000000000000000, 27.25000000000000000 ) ) ;
#399 = LINE ( 'NONE', #749, #838 ) ;
#400 = CYLINDRICAL_SURFACE ( 'NONE', #783, 5.000000000000004441 ) ;
#401 = EDGE_CURVE ( 'NONE', #4, #141, #260, .T. ) ;
#402 = CARTESIAN_POINT ( 'NONE',  ( 502.4999999999999432, 3.000000000000000000, 0.0000000000000000000 ) ) ;
#403 = CARTESIAN_POINT ( 'NONE',  ( 1.959434878635764737E-15, 1.500000000000000000, 27.25000000000000000 ) ) ;
#404 = AXIS2_PLACEMENT_3D ( 'NONE', #1042, #54, #972 ) ;
#405 = EDGE_LOOP ( 'NONE', ( #49, #902, #195, #861 ) ) ;
#406 = ORIENTED_EDGE ( 'NONE', *, *, #447, .T. ) ;
#407 = EDGE_LOOP ( 'NONE', ( #706, #6, #104, #925 ) ) ;
#408 = DIRECTION ( 'NONE',  ( -0.0000000000000000000, -0.0000000000000000000, 1.000000000000000000 ) ) ;
#409 = PLANE ( 'NONE',  #33 ) ;
#410 = DIRECTION ( 'NONE',  ( 1.000000000000000000, 0.0000000000000000000, -3.180326372624146504E-16 ) ) ;
#411 = PLANE ( 'NONE',  #112 ) ;
#412 = CARTESIAN_POINT ( 'NONE',  ( 502.4999999999999432, 3.000000000000000000, 1.500000000000000000 ) ) ;
#413 = COLOUR_RGB ( '',0.5294117647058823595, 0.5490196078431373028, 0.5490196078431373028 ) ;
#414 = CIRCLE ( 'NONE', #69, 2.749999999999999112 ) ;
#415 = DIRECTION ( 'NONE',  ( 0.0000000000000000000, 0.0000000000000000000, 1.000000000000000000 ) ) ;
#416 = ORIENTED_EDGE ( 'NONE', *, *, #703, .F. ) ;
#417 = ORIENTED_EDGE ( 'NONE', *, *, #1017, .F. ) ;
#418 = DIRECTION ( 'NONE',  ( 3.180326372624146997E-16, 0.0000000000000000000, 1.000000000000000000 ) ) ;
#419 = VERTEX_POINT ( 'NONE', #487 ) ;
#420 = DIRECTION ( 'NONE',  ( -3.180326372624146504E-16, -0.0000000000000000000, -1.000000000000000000 ) ) ;
#421 = CARTESIAN_POINT ( 'NONE',  ( 502.4999999999999432, 3.000000000000000000, 3.000000000000001332 ) ) ;
#422 = CARTESIAN_POINT ( 'NONE',  ( 2.750000000000002665, 0.0000000000000000000, 24.50000000000000000 ) ) ;
#423 = EDGE_CURVE ( 'NONE', #108, #231, #837, .T. ) ;
#424 = FACE_BOUND ( 'NONE', #613, .T. ) ;
#425 = LINE ( 'NONE', #245, #320 ) ;
#426 = AXIS2_PLACEMENT_3D ( 'NONE', #662, #742, #905 ) ;
#427 = VECTOR ( 'NONE', #733, 1000.000000000000000 ) ;
#428 = VECTOR ( 'NONE', #1063, 1000.000000000000000 ) ;
#429 = ORIENTED_EDGE ( 'NONE', *, *, #401, .F. ) ;
#430 = DIRECTION ( 'NONE',  ( -0.0000000000000000000, 1.000000000000000000, -0.0000000000000000000 ) ) ;
#431 = EDGE_LOOP ( 'NONE', ( #952, #429, #282, #847 ) ) ;
#432 = DIRECTION ( 'NONE',  ( -0.0000000000000000000, 1.000000000000000000, -0.0000000000000000000 ) ) ;
#433 = COLOUR_RGB ( '',0.5294117647058823595, 0.5490196078431373028, 0.5490196078431373028 ) ;
#434 = FACE_OUTER_BOUND ( 'NONE', #336, .T. ) ;
#435 = CARTESIAN_POINT ( 'NONE',  ( -502.4999999999999432, 0.0000000000000000000, 40.00000000000000000 ) ) ;
#436 = EDGE_CURVE ( 'NONE', #833, #541, #275, .T. ) ;
#437 = PRODUCT_RELATED_PRODUCT_CATEGORY ( 'part', '', ( #17 ) ) ;
#438 = ADVANCED_FACE ( 'NONE', ( #655 ), #409, .F. ) ;
#439 = CARTESIAN_POINT ( 'NONE',  ( 497.4999999999999432, 50.00000000000000000, 1.500000000000000000 ) ) ;
#440 = DIRECTION ( 'NONE',  ( 0.0000000000000000000, 1.000000000000000000, 0.0000000000000000000 ) ) ;
#441 = DIRECTION ( 'NONE',  ( 0.0000000000000000000, 0.0000000000000000000, 1.000000000000000000 ) ) ;
#442 = EDGE_LOOP ( 'NONE', ( #791, #346, #916, #666 ) ) ;
#443 = DIRECTION ( 'NONE',  ( 0.0000000000000000000, 0.0000000000000000000, 1.000000000000000000 ) ) ;
#444 = VERTEX_POINT ( 'NONE', #323 ) ;
#445 = CARTESIAN_POINT ( 'NONE',  ( -372.4999999999999432, 0.0000000000000000000, 24.50000000000000000 ) ) ;
#446 = LINE ( 'NONE', #350, #556 ) ;
#447 = EDGE_CURVE ( 'NONE', #747, #89, #246, .T. ) ;
#448 = CARTESIAN_POINT ( 'NONE',  ( 375.2500000000000000, 1.500000000000000000, 24.50000000000000000 ) ) ;
#449 = VECTOR ( 'NONE', #126, 1000.000000000000000 ) ;
#450 = ADVANCED_FACE ( 'NONE', ( #994 ), #188, .F. ) ;
#451 = CARTESIAN_POINT ( 'NONE',  ( -502.4999999999999432, 1.500000000000000000, 3.000000000000001776 ) ) ;
#452 = ORIENTED_EDGE ( 'NONE', *, *, #339, .T. ) ;
#453 = CARTESIAN_POINT ( 'NONE',  ( -375.2500000000000000, 1.500000000000000000, 9.500000000000003553 ) ) ;
#454 = STYLED_ITEM ( 'NONE', ( #816 ), #663 ) ;
#455 = PLANE ( 'NONE',  #264 ) ;
#456 = ADVANCED_FACE ( 'NONE', ( #286 ), #935, .F. ) ;
#457 = CARTESIAN_POINT ( 'NONE',  ( 372.4999999999999432, 1.500000000000000000, 27.25000000000000000 ) ) ;
#458 = LINE ( 'NONE', #335, #505 ) ;
#459 = CYLINDRICAL_SURFACE ( 'NONE', #585, 2.749999999999999112 ) ;
#460 = EDGE_CURVE ( 'NONE', #832, #479, #602, .T. ) ;
#461 = DIRECTION ( 'NONE',  ( 0.0000000000000000000, 1.000000000000000000, 0.0000000000000000000 ) ) ;
#462 = LINE ( 'NONE', #178, #560 ) ;
#463 = DIRECTION ( 'NONE',  ( -0.0000000000000000000, -0.0000000000000000000, -1.000000000000000000 ) ) ;
#464 = CARTESIAN_POINT ( 'NONE',  ( -497.4999999999999432, 0.0000000000000000000, 40.00000000000000000 ) ) ;
#465 = ORIENTED_EDGE ( 'NONE', *, *, #913, .F. ) ;
#466 = CARTESIAN_POINT ( 'NONE',  ( -497.4999999999999432, 55.00000000000000000, 0.0000000000000000000 ) ) ;
#467 =( NAMED_UNIT ( * ) PLANE_ANGLE_UNIT ( ) SI_UNIT ( $, .RADIAN. ) );
#468 = EDGE_CURVE ( 'NONE', #75, #793, #825, .T. ) ;
#469 = DIRECTION ( 'NONE',  ( 0.0000000000000000000, 0.0000000000000000000, -1.000000000000000000 ) ) ;
#470 = ADVANCED_BREP_SHAPE_REPRESENTATION ( '03_059_sheetmetal security cover', ( #663, #975 ), #164 ) ;
#471 = ORIENTED_EDGE ( 'NONE', *, *, #835, .T. ) ;
#472 = CARTESIAN_POINT ( 'NONE',  ( -372.4999999999999432, 1.500000000000000000, 27.25000000000000000 ) ) ;
#473 = CARTESIAN_POINT ( 'NONE',  ( 502.4999999999999432, 3.000000000000000000, 3.000000000000001332 ) ) ;
#474 = FACE_OUTER_BOUND ( 'NONE', #19, .T. ) ;
#475 = CARTESIAN_POINT ( 'NONE',  ( 497.4999999999999432, 50.00000000000000000, 0.0000000000000000000 ) ) ;
#476 =( NAMED_UNIT ( * ) PLANE_ANGLE_UNIT ( ) SI_UNIT ( $, .RADIAN. ) );
#477 = DIRECTION ( 'NONE',  ( 0.0000000000000000000, 0.0000000000000000000, 1.000000000000000000 ) ) ;
#478 = CARTESIAN_POINT ( 'NONE',  ( 502.4999999999999432, 0.0000000000000000000, 1.500000000000000000 ) ) ;
#479 = VERTEX_POINT ( 'NONE', #869 ) ;
#480 = CARTESIAN_POINT ( 'NONE',  ( -2.750000000000002665, 0.0000000000000000000, 9.500000000000003553 ) ) ;
#481 = ORIENTED_EDGE ( 'NONE', *, *, #587, .F. ) ;
#482 = ORIENTED_EDGE ( 'NONE', *, *, #460, .T. ) ;
#483 = EDGE_CURVE ( 'NONE', #75, #128, #671, .T. ) ;
#484 = ORIENTED_EDGE ( 'NONE', *, *, #539, .F. ) ;
#485 = UNCERTAINTY_MEASURE_WITH_UNIT (LENGTH_MEASURE( 1.000000000000000082E-05 ), #960, 'distance_accuracy_value', 'NONE');
#486 = DIRECTION ( 'NONE',  ( -0.0000000000000000000, 1.000000000000000000, 0.0000000000000000000 ) ) ;
#487 = CARTESIAN_POINT ( 'NONE',  ( -502.4999999999999432, 50.00000000000000000, 0.0000000000000000000 ) ) ;
#488 = CARTESIAN_POINT ( 'NONE',  ( 369.7499999999998863, 0.0000000000000000000, 24.50000000000000000 ) ) ;
#489 = EDGE_CURVE ( 'NONE', #444, #688, #366, .T. ) ;
#490 = DIRECTION ( 'NONE',  ( 0.0000000000000000000, 0.0000000000000000000, -1.000000000000000000 ) ) ;
#491 = VECTOR ( 'NONE', #950, 1000.000000000000000 ) ;
#492 = ORIENTED_EDGE ( 'NONE', *, *, #374, .F. ) ;
#493 = CARTESIAN_POINT ( 'NONE',  ( 502.4999999999999432, 1.500000000000000000, 3.000000000000001776 ) ) ;
#494 = AXIS2_PLACEMENT_3D ( 'NONE', #16, #198, #349 ) ;
#495 = ORIENTED_EDGE ( 'NONE', *, *, #904, .F. ) ;
#496 = EDGE_LOOP ( 'NONE', ( #291, #631, #986, #576, #872, #315 ) ) ;
#497 = DIRECTION ( 'NONE',  ( 0.0000000000000000000, 0.0000000000000000000, -1.000000000000000000 ) ) ;
#498 = ORIENTED_EDGE ( 'NONE', *, *, #250, .T. ) ;
#499 = PLANE ( 'NONE',  #82 ) ;
#500 = ORIENTED_EDGE ( 'NONE', *, *, #197, .T. ) ;
#501 = DIRECTION ( 'NONE',  ( 0.0000000000000000000, 1.000000000000000000, -5.782411586589356653E-16 ) ) ;
#502 = DIRECTION ( 'NONE',  ( 3.180326372624146997E-16, 0.0000000000000000000, 1.000000000000000000 ) ) ;
#503 = CARTESIAN_POINT ( 'NONE',  ( 2.749999999999997780, 0.0000000000000000000, 9.500000000000000000 ) ) ;
#504 = LINE ( 'NONE', #534, #297 ) ;
#505 = VECTOR ( 'NONE', #820, 1000.000000000000000 ) ;
#506 = AXIS2_PLACEMENT_3D ( 'NONE', #175, #410, #985 ) ;
#507 = CIRCLE ( 'NONE', #756, 5.000000000000004441 ) ;
#508 = DIRECTION ( 'NONE',  ( 0.0000000000000000000, 0.0000000000000000000, 1.000000000000000000 ) ) ;
#509 = VECTOR ( 'NONE', #962, 1000.000000000000000 ) ;
#510 = PLANE ( 'NONE',  #209 ) ;
#511 = PLANE ( 'NONE',  #1048 ) ;
#512 = ORIENTED_EDGE ( 'NONE', *, *, #468, .T. ) ;
#513 = VERTEX_POINT ( 'NONE', #711 ) ;
#514 = DIRECTION ( 'NONE',  ( 0.0000000000000000000, 1.000000000000000000, 0.0000000000000000000 ) ) ;
#515 = EDGE_CURVE ( 'NONE', #717, #598, #446, .T. ) ;
#516 = CARTESIAN_POINT ( 'NONE',  ( -2.750000000000035083, 0.0000000000000000000, 24.50000000000000000 ) ) ;
#517 = FACE_OUTER_BOUND ( 'NONE', #754, .T. ) ;
#518 = MECHANICAL_DESIGN_GEOMETRIC_PRESENTATION_REPRESENTATION (  '', ( #454 ), #765 ) ;
#519 = CIRCLE ( 'NONE', #991, 2.749999999999999112 ) ;
#520 = EDGE_CURVE ( 'NONE', #793, #550, #295, .T. ) ;
#521 = DIRECTION ( 'NONE',  ( 0.0000000000000000000, 0.0000000000000000000, -1.000000000000000000 ) ) ;
#522 = ORIENTED_EDGE ( 'NONE', *, *, #1017, .T. ) ;
#523 = ORIENTED_EDGE ( 'NONE', *, *, #106, .T. ) ;
#524 = EDGE_CURVE ( 'NONE', #270, #970, #906, .T. ) ;
#525 = ORIENTED_EDGE ( 'NONE', *, *, #724, .F. ) ;
#526 = ADVANCED_FACE ( 'NONE', ( #931 ), #256, .T. ) ;
#527 = CARTESIAN_POINT ( 'NONE',  ( -497.4999999999999432, 55.00000000000000000, 1.500000000000000000 ) ) ;
#528 = ORIENTED_EDGE ( 'NONE', *, *, #710, .F. ) ;
#529 = DIRECTION ( 'NONE',  ( 0.0000000000000000000, 0.0000000000000000000, 1.000000000000000000 ) ) ;
#530 = VECTOR ( 'NONE', #936, 1000.000000000000000 ) ;
#531 = DIRECTION ( 'NONE',  ( -3.180326372624146504E-16, 0.0000000000000000000, -1.000000000000000000 ) ) ;
#532 = CIRCLE ( 'NONE', #611, 2.750000000000000888 ) ;
#533 = AXIS2_PLACEMENT_3D ( 'NONE', #56, #463, #790 ) ;
#534 = CARTESIAN_POINT ( 'NONE',  ( 502.4999999999999432, 1.500000000000000000, 40.00000000000000000 ) ) ;
#535 = LINE ( 'NONE', #238, #604 ) ;
#536 = DIRECTION ( 'NONE',  ( -0.0000000000000000000, -0.0000000000000000000, 1.000000000000000000 ) ) ;
#537 = DIRECTION ( 'NONE',  ( 0.0000000000000000000, 0.0000000000000000000, 1.000000000000000000 ) ) ;
#538 = ADVANCED_FACE ( 'NONE', ( #580 ), #207, .F. ) ;
#539 = EDGE_CURVE ( 'NONE', #941, #186, #928, .T. ) ;
#540 = CARTESIAN_POINT ( 'NONE',  ( 502.4999999999999432, 3.000000000000000000, 0.0000000000000000000 ) ) ;
#541 = VERTEX_POINT ( 'NONE', #319 ) ;
#542 = DIRECTION ( 'NONE',  ( 0.0000000000000000000, 1.000000000000000000, 0.0000000000000000000 ) ) ;
#543 = AXIS2_PLACEMENT_3D ( 'NONE', #244, #1060, #129 ) ;
#544 = ADVANCED_FACE ( 'NONE', ( #290, #248, #71, #881 ), #253, .T. ) ;
#545 = DIRECTION ( 'NONE',  ( 0.0000000000000000000, 0.0000000000000000000, 1.000000000000000000 ) ) ;
#546 = VECTOR ( 'NONE', #760, 1000.000000000000000 ) ;
#547 = CIRCLE ( 'NONE', #533, 5.000000000000004441 ) ;
#548 = LINE ( 'NONE', #11, #1062 ) ;
#549 = VERTEX_POINT ( 'NONE', #403 ) ;
#550 = VERTEX_POINT ( 'NONE', #641 ) ;
#551 = FILL_AREA_STYLE_COLOUR ( '', #433 ) ;
#552 = ORIENTED_EDGE ( 'NONE', *, *, #158, .T. ) ;
#553 = ORIENTED_EDGE ( 'NONE', *, *, #515, .F. ) ;
#554 = CARTESIAN_POINT ( 'NONE',  ( -375.2500000000000000, 1.500000000000000000, 9.500000000000005329 ) ) ;
#555 = EDGE_CURVE ( 'NONE', #513, #808, #712, .T. ) ;
#556 = VECTOR ( 'NONE', #122, 1000.000000000000000 ) ;
#557 = DIRECTION ( 'NONE',  ( -0.0000000000000000000, 1.000000000000000000, -0.0000000000000000000 ) ) ;
#558 = CARTESIAN_POINT ( 'NONE',  ( 375.2499999999999432, 1.500000000000000000, 9.500000000000000000 ) ) ;
#559 = DIRECTION ( 'NONE',  ( 1.000000000000000000, 0.0000000000000000000, 0.0000000000000000000 ) ) ;
#560 = VECTOR ( 'NONE', #578, 1000.000000000000000 ) ;
#561 = AXIS2_PLACEMENT_3D ( 'NONE', #640, #2, #990 ) ;
#562 = DIRECTION ( 'NONE',  ( 0.0000000000000000000, -0.0000000000000000000, 1.000000000000000000 ) ) ;
#563 = VERTEX_POINT ( 'NONE', #472 ) ;
#564 = VERTEX_POINT ( 'NONE', #876 ) ;
#565 = ORIENTED_EDGE ( 'NONE', *, *, #130, .F. ) ;
#566 = CARTESIAN_POINT ( 'NONE',  ( -369.7499999999999432, 0.0000000000000000000, 9.500000000000000000 ) ) ;
#567 = EDGE_LOOP ( 'NONE', ( #362, #553, #72, #373, #565 ) ) ;
#568 = DIRECTION ( 'NONE',  ( 0.0000000000000000000, 0.0000000000000000000, 1.000000000000000000 ) ) ;
#569 = CARTESIAN_POINT ( 'NONE',  ( -375.2499999999999432, 0.0000000000000000000, 24.50000000000000000 ) ) ;
#570 = AXIS2_PLACEMENT_3D ( 'NONE', #848, #360, #1027 ) ;
#571 = EDGE_CURVE ( 'NONE', #549, #108, #1007, .T. ) ;
#572 = VECTOR ( 'NONE', #865, 1000.000000000000000 ) ;
#573 = EDGE_CURVE ( 'NONE', #359, #832, #64, .T. ) ;
#574 = EDGE_CURVE ( 'NONE', #231, #199, #25, .T. ) ;
#575 = AXIS2_PLACEMENT_3D ( 'NONE', #649, #729, #811 ) ;
#576 = ORIENTED_EDGE ( 'NONE', *, *, #737, .T. ) ;
#577 = DIRECTION ( 'NONE',  ( -1.000000000000000000, -0.0000000000000000000, -0.0000000000000000000 ) ) ;
#578 = DIRECTION ( 'NONE',  ( -1.000000000000000000, -0.0000000000000000000, -0.0000000000000000000 ) ) ;
#579 = CARTESIAN_POINT ( 'NONE',  ( -502.4999999999999432, 3.000000000000000000, 3.000000000000001332 ) ) ;
#580 = FACE_OUTER_BOUND ( 'NONE', #278, .T. ) ;
#581 = VECTOR ( 'NONE', #971, 1000.000000000000000 ) ;
#582 = DIRECTION ( 'NONE',  ( 0.0000000000000000000, 0.0000000000000000000, 1.000000000000000000 ) ) ;
#583 = LINE ( 'NONE', #895, #110 ) ;
#584 = LINE ( 'NONE', #313, #356 ) ;
#585 = AXIS2_PLACEMENT_3D ( 'NONE', #62, #867, #242 ) ;
#586 = DIRECTION ( 'NONE',  ( -0.0000000000000000000, 1.000000000000000000, -0.0000000000000000000 ) ) ;
#587 = EDGE_CURVE ( 'NONE', #94, #549, #1010, .T. ) ;
#588 = ORIENTED_EDGE ( 'NONE', *, *, #768, .F. ) ;
#589 = CARTESIAN_POINT ( 'NONE',  ( -502.4999999999999432, 1.500000000000000000, 40.00000000000000000 ) ) ;
#590 = ORIENTED_EDGE ( 'NONE', *, *, #607, .F. ) ;
#591 = CARTESIAN_POINT ( 'NONE',  ( -2.632990618166809630E-15, 1.500000000000000000, 9.500000000000001776 ) ) ;
#592 = ORIENTED_EDGE ( 'NONE', *, *, #574, .F. ) ;
#593 = VECTOR ( 'NONE', #502, 1000.000000000000000 ) ;
#594 = CIRCLE ( 'NONE', #1009, 2.749999999999999112 ) ;
#595 = EDGE_LOOP ( 'NONE', ( #492, #14, #230, #841 ) ) ;
#596 = CARTESIAN_POINT ( 'NONE',  ( -2.750000000000002665, 0.0000000000000000000, 9.500000000000003553 ) ) ;
#597 = ORIENTED_EDGE ( 'NONE', *, *, #874, .T. ) ;
#598 = VERTEX_POINT ( 'NONE', #558 ) ;
#599 = DIRECTION ( 'NONE',  ( 0.0000000000000000000, 0.0000000000000000000, 1.000000000000000000 ) ) ;
#600 = AXIS2_PLACEMENT_3D ( 'NONE', #168, #1051, #243 ) ;
#601 = DIRECTION ( 'NONE',  ( 0.0000000000000000000, 1.000000000000000000, 0.0000000000000000000 ) ) ;
#602 = CIRCLE ( 'NONE', #363, 2.750000000000000888 ) ;
#603 = EDGE_CURVE ( 'NONE', #31, #419, #399, .T. ) ;
#604 = VECTOR ( 'NONE', #461, 1000.000000000000000 ) ;
#605 = DIRECTION ( 'NONE',  ( 0.0000000000000000000, 0.0000000000000000000, -1.000000000000000000 ) ) ;
#606 = ORIENTED_EDGE ( 'NONE', *, *, #134, .T. ) ;
#607 = EDGE_CURVE ( 'NONE', #392, #969, #583, .T. ) ;
#608 = ORIENTED_EDGE ( 'NONE', *, *, #724, .T. ) ;
#609 = EDGE_LOOP ( 'NONE', ( #634, #484, #57, #147 ) ) ;
#610 = DIRECTION ( 'NONE',  ( 0.0000000000000000000, 0.0000000000000000000, 1.000000000000000000 ) ) ;
#611 = AXIS2_PLACEMENT_3D ( 'NONE', #277, #514, #22 ) ;
#612 = ORIENTED_EDGE ( 'NONE', *, *, #555, .F. ) ;
#613 = EDGE_LOOP ( 'NONE', ( #1036, #667, #823, #661, #806 ) ) ;
#614 = DIRECTION ( 'NONE',  ( -0.0000000000000000000, 1.000000000000000000, -0.0000000000000000000 ) ) ;
#615 = LINE ( 'NONE', #777, #40 ) ;
#616 = ADVANCED_FACE ( 'NONE', ( #190 ), #15, .F. ) ;
#617 = LINE ( 'NONE', #780, #572 ) ;
#618 = CARTESIAN_POINT ( 'NONE',  ( 375.2500000000000000, 0.0000000000000000000, 24.50000000000000000 ) ) ;
#619 = EDGE_CURVE ( 'NONE', #90, #444, #1045, .T. ) ;
#620 = ADVANCED_FACE ( 'NONE', ( #369 ), #499, .T. ) ;
#621 = DIRECTION ( 'NONE',  ( 0.0000000000000000000, 0.0000000000000000000, -1.000000000000000000 ) ) ;
#622 = ORIENTED_EDGE ( 'NONE', *, *, #341, .F. ) ;
#623 = DIRECTION ( 'NONE',  ( 0.0000000000000000000, 1.000000000000000000, 0.0000000000000000000 ) ) ;
#624 = CARTESIAN_POINT ( 'NONE',  ( 375.2499999999999432, 0.0000000000000000000, 9.500000000000000000 ) ) ;
#625 = VECTOR ( 'NONE', #789, 1000.000000000000000 ) ;
#626 = VECTOR ( 'NONE', #1044, 1000.000000000000000 ) ;
#627 = PRODUCT_CONTEXT ( 'NONE', #635, 'mechanical' ) ;
#628 = AXIS2_PLACEMENT_3D ( 'NONE', #273, #105, #187 ) ;
#629 = VECTOR ( 'NONE', #805, 1000.000000000000000 ) ;
#630 = CARTESIAN_POINT ( 'NONE',  ( 502.4999999999999432, 0.0000000000000000000, 40.00000000000000000 ) ) ;
#631 = ORIENTED_EDGE ( 'NONE', *, *, #361, .T. ) ;
#632 = CARTESIAN_POINT ( 'NONE',  ( 372.4999999999999432, 1.500000000000000000, 9.500000000000001776 ) ) ;
#633 = EDGE_LOOP ( 'NONE', ( #184, #1038, #705, #390 ) ) ;
#634 = ORIENTED_EDGE ( 'NONE', *, *, #915, .T. ) ;
#635 = APPLICATION_CONTEXT ( 'automotive_design' ) ;
#636 = EDGE_CURVE ( 'NONE', #808, #75, #897, .T. ) ;
#637 = SURFACE_SIDE_STYLE ('',( #258 ) ) ;
#638 = LINE ( 'NONE', #332, #593 ) ;
#639 = VECTOR ( 'NONE', #118, 1000.000000000000000 ) ;
#640 = CARTESIAN_POINT ( 'NONE',  ( -497.4999999999999432, 3.000000000000000000, 35.00000000000000000 ) ) ;
#641 = CARTESIAN_POINT ( 'NONE',  ( -502.4999999999999432, 0.0000000000000000000, 35.00000000000000000 ) ) ;
#642 = VECTOR ( 'NONE', #536, 1000.000000000000000 ) ;
#643 = DIRECTION ( 'NONE',  ( 0.0000000000000000000, 0.0000000000000000000, 1.000000000000000000 ) ) ;
#644 =( GEOMETRIC_REPRESENTATION_CONTEXT ( 3 ) GLOBAL_UNCERTAINTY_ASSIGNED_CONTEXT ( ( #485 ) ) GLOBAL_UNIT_ASSIGNED_CONTEXT ( ( #960, #467, #885 ) ) REPRESENTATION_CONTEXT ( 'NONE', 'WORKASPACE' ) );
#645 = ORIENTED_EDGE ( 'NONE', *, *, #603, .F. ) ;
#646 = DIRECTION ( 'NONE',  ( -0.0000000000000000000, 1.000000000000000000, -0.0000000000000000000 ) ) ;
#647 = CARTESIAN_POINT ( 'NONE',  ( -369.7499999999999432, 0.0000000000000000000, 9.500000000000000000 ) ) ;
#648 = PLANE ( 'NONE',  #271 ) ;
#649 = CARTESIAN_POINT ( 'NONE',  ( 372.4999999999999432, 0.0000000000000000000, 24.50000000000000000 ) ) ;
#650 = AXIS2_PLACEMENT_3D ( 'NONE', #946, #545, #215 ) ;
#651 = CARTESIAN_POINT ( 'NONE',  ( 497.4999999999999432, 1.500000000000000000, 35.00000000000000000 ) ) ;
#652 = PLANE ( 'NONE',  #76 ) ;
#653 = CARTESIAN_POINT ( 'NONE',  ( 2.749999999999997780, 0.0000000000000000000, 9.500000000000000000 ) ) ;
#654 = CARTESIAN_POINT ( 'NONE',  ( 502.4999999999999432, 0.0000000000000000000, 3.000000000000002665 ) ) ;
#655 = FACE_OUTER_BOUND ( 'NONE', #405, .T. ) ;
#656 = FACE_OUTER_BOUND ( 'NONE', #58, .T. ) ;
#657 = LINE ( 'NONE', #435, #996 ) ;
#658 = CARTESIAN_POINT ( 'NONE',  ( -502.4999999999999432, 1.500000000000000000, 35.00000000000000000 ) ) ;
#659 = ORIENTED_EDGE ( 'NONE', *, *, #732, .T. ) ;
#660 = ORIENTED_EDGE ( 'NONE', *, *, #737, .F. ) ;
#661 = ORIENTED_EDGE ( 'NONE', *, *, #436, .T. ) ;
#662 = CARTESIAN_POINT ( 'NONE',  ( 497.4999999999999432, 0.0000000000000000000, 35.00000000000000000 ) ) ;
#663 = MANIFOLD_SOLID_BREP ( 'Verrundung1', #740 ) ;
#664 = EDGE_LOOP ( 'NONE', ( #528, #375, #512, #83, #552, #280 ) ) ;
#665 = CARTESIAN_POINT ( 'NONE',  ( 502.4999999999999432, 50.00000000000000000, 0.0000000000000000000 ) ) ;
#666 = ORIENTED_EDGE ( 'NONE', *, *, #1015, .F. ) ;
#667 = ORIENTED_EDGE ( 'NONE', *, *, #51, .T. ) ;
#668 = EDGE_CURVE ( 'NONE', #833, #270, #234, .T. ) ;
#669 = ORIENTED_EDGE ( 'NONE', *, *, #483, .F. ) ;
#670 = FACE_OUTER_BOUND ( 'NONE', #664, .T. ) ;
#671 = LINE ( 'NONE', #954, #800 ) ;
#672 = EDGE_CURVE ( 'NONE', #541, #940, #836, .T. ) ;
#673 = DIRECTION ( 'NONE',  ( 0.0000000000000000000, 1.000000000000000000, 0.0000000000000000000 ) ) ;
#674 = VECTOR ( 'NONE', #304, 1000.000000000000000 ) ;
#675 = ORIENTED_EDGE ( 'NONE', *, *, #460, .F. ) ;
#676 = DIRECTION ( 'NONE',  ( -0.0000000000000000000, 1.000000000000000000, -0.0000000000000000000 ) ) ;
#677 = EDGE_LOOP ( 'NONE', ( #858, #268, #886, #792 ) ) ;
#678 = CARTESIAN_POINT ( 'NONE',  ( -502.4999999999999432, 1.500000000000000000, 35.00000000000000000 ) ) ;
#679 = AXIS2_PLACEMENT_3D ( 'NONE', #30, #601, #34 ) ;
#680 = VECTOR ( 'NONE', #149, 1000.000000000000000 ) ;
#681 = CARTESIAN_POINT ( 'NONE',  ( 502.4999999999999432, 0.0000000000000000000, 40.00000000000000000 ) ) ;
#682 = FACE_OUTER_BOUND ( 'NONE', #822, .T. ) ;
#683 = EDGE_LOOP ( 'NONE', ( #131, #734, #157, #210 ) ) ;
#684 = CARTESIAN_POINT ( 'NONE',  ( 497.4999999999999432, 0.0000000000000000000, 35.00000000000000000 ) ) ;
#685 = CARTESIAN_POINT ( 'NONE',  ( 502.4999999999999432, 3.000000000000000000, 3.000000000000001332 ) ) ;
#686 = ORIENTED_EDGE ( 'NONE', *, *, #106, .F. ) ;
#687 = ORIENTED_EDGE ( 'NONE', *, *, #607, .T. ) ;
#688 = VERTEX_POINT ( 'NONE', #596 ) ;
#689 = CARTESIAN_POINT ( 'NONE',  ( -372.4999999999999432, 0.0000000000000000000, 24.50000000000000000 ) ) ;
#690 = ORIENTED_EDGE ( 'NONE', *, *, #1049, .T. ) ;
#691 = CARTESIAN_POINT ( 'NONE',  ( -497.4999999999999432, 50.00000000000000000, 3.000000000000001776 ) ) ;
#692 = VECTOR ( 'NONE', #1025, 1000.000000000000000 ) ;
#693 = LINE ( 'NONE', #527, #642 ) ;
#694 = CARTESIAN_POINT ( 'NONE',  ( 502.4999999999999432, 50.00000000000000000, 1.500000000000000000 ) ) ;
#695 = ADVANCED_FACE ( 'NONE', ( #1029 ), #511, .T. ) ;
#696 = AXIS2_PLACEMENT_3D ( 'NONE', #380, #151, #150 ) ;
#697 = ORIENTED_EDGE ( 'NONE', *, *, #890, .F. ) ;
#698 = ORIENTED_EDGE ( 'NONE', *, *, #1015, .T. ) ;
#699 = ORIENTED_EDGE ( 'NONE', *, *, #835, .F. ) ;
#700 = DIRECTION ( 'NONE',  ( 0.0000000000000000000, 0.0000000000000000000, -1.000000000000000000 ) ) ;
#701 = DIRECTION ( 'NONE',  ( -0.0000000000000000000, 0.0000000000000000000, 1.000000000000000000 ) ) ;
#702 = EDGE_CURVE ( 'NONE', #564, #563, #67, .T. ) ;
#703 = EDGE_CURVE ( 'NONE', #940, #717, #759, .T. ) ;
#704 = CARTESIAN_POINT ( 'NONE',  ( 369.7499999999998863, 0.0000000000000000000, 9.500000000000003553 ) ) ;
#705 = ORIENTED_EDGE ( 'NONE', *, *, #1041, .F. ) ;
#706 = ORIENTED_EDGE ( 'NONE', *, *, #397, .F. ) ;
#707 = DIRECTION ( 'NONE',  ( 1.000000000000000000, 0.0000000000000000000, -0.0000000000000000000 ) ) ;
#708 = CARTESIAN_POINT ( 'NONE',  ( 2.749999999999997780, 1.500000000000000000, 9.500000000000000000 ) ) ;
#709 = ORIENTED_EDGE ( 'NONE', *, *, #339, .F. ) ;
#710 = EDGE_CURVE ( 'NONE', #808, #810, #615, .T. ) ;
#711 = CARTESIAN_POINT ( 'NONE',  ( 502.4999999999999432, 1.500000000000000000, 35.00000000000000000 ) ) ;
#712 = LINE ( 'NONE', #893, #989 ) ;
#713 = LINE ( 'NONE', #1032, #296 ) ;
#714 = CYLINDRICAL_SURFACE ( 'NONE', #628, 3.000000000000000444 ) ;
#715 = LINE ( 'NONE', #66, #509 ) ;
#716 = ORIENTED_EDGE ( 'NONE', *, *, #571, .T. ) ;
#717 = VERTEX_POINT ( 'NONE', #448 ) ;
#718 = DIRECTION ( 'NONE',  ( 0.0000000000000000000, 0.0000000000000000000, 1.000000000000000000 ) ) ;
#719 = ADVANCED_FACE ( 'NONE', ( #883 ), #370, .T. ) ;
#720 = ORIENTED_EDGE ( 'NONE', *, *, #574, .T. ) ;
#721 = ORIENTED_EDGE ( 'NONE', *, *, #119, .F. ) ;
#722 = CARTESIAN_POINT ( 'NONE',  ( 502.4999999999999432, 55.00000000000000000, 1.500000000000000000 ) ) ;
#723 = EDGE_LOOP ( 'NONE', ( #306, #686, #1050, #958 ) ) ;
#724 = EDGE_CURVE ( 'NONE', #563, #923, #396, .T. ) ;
#725 = VECTOR ( 'NONE', #577, 1000.000000000000000 ) ;
#726 = CARTESIAN_POINT ( 'NONE',  ( -497.4999999999999432, 0.0000000000000000000, 40.00000000000000000 ) ) ;
#727 = CARTESIAN_POINT ( 'NONE',  ( 372.4999999999999432, 0.0000000000000000000, 9.500000000000001776 ) ) ;
#728 = DIRECTION ( 'NONE',  ( 0.0000000000000000000, 1.000000000000000000, 0.0000000000000000000 ) ) ;
#729 = DIRECTION ( 'NONE',  ( -0.0000000000000000000, 1.000000000000000000, -0.0000000000000000000 ) ) ;
#730 = EDGE_CURVE ( 'NONE', #903, #359, #594, .T. ) ;
#731 = CARTESIAN_POINT ( 'NONE',  ( -502.4999999999999432, 3.000000000000000000, 0.0000000000000000000 ) ) ;
#732 = EDGE_CURVE ( 'NONE', #970, #717, #911, .T. ) ;
#733 = DIRECTION ( 'NONE',  ( -3.180326372624146504E-16, -0.0000000000000000000, -1.000000000000000000 ) ) ;
#734 = ORIENTED_EDGE ( 'NONE', *, *, #436, .F. ) ;
#735 = CARTESIAN_POINT ( 'NONE',  ( 372.4999999999999432, 0.0000000000000000000, 24.50000000000000000 ) ) ;
#736 = ORIENTED_EDGE ( 'NONE', *, *, #447, .F. ) ;
#737 = EDGE_CURVE ( 'NONE', #776, #747, #247, .T. ) ;
#738 = ORIENTED_EDGE ( 'NONE', *, *, #321, .F. ) ;
#739 = ORIENTED_EDGE ( 'NONE', *, *, #361, .F. ) ;
#740 = CLOSED_SHELL ( 'NONE', ( #371, #378, #50, #52, #620, #778, #695, #81, #526, #1035, #216, #544, #719, #949, #880, #784, #616, #942, #140, #538, #849, #961, #843, #450, #438, #298, #456, #224, #318, #1020, #288, #862, #204 ) ) ;
#741 = UNCERTAINTY_MEASURE_WITH_UNIT (LENGTH_MEASURE( 1.000000000000000082E-05 ), #873, 'distance_accuracy_value', 'NONE');
#742 = DIRECTION ( 'NONE',  ( 0.0000000000000000000, -1.000000000000000000, -0.0000000000000000000 ) ) ;
#743 = DIRECTION ( 'NONE',  ( -0.0000000000000000000, -0.0000000000000000000, -1.000000000000000000 ) ) ;
#744 = AXIS2_PLACEMENT_3D ( 'NONE', #685, #227, #307 ) ;
#745 = DIRECTION ( 'NONE',  ( 0.0000000000000000000, 0.0000000000000000000, -1.000000000000000000 ) ) ;
#746 = ORIENTED_EDGE ( 'NONE', *, *, #181, .F. ) ;
#747 = VERTEX_POINT ( 'NONE', #42 ) ;
#748 = PRODUCT_DEFINITION_FORMATION_WITH_SPECIFIED_SOURCE ( 'ANY', '', #17, .NOT_KNOWN. ) ;
#749 = CARTESIAN_POINT ( 'NONE',  ( -502.4999999999999432, 50.00000000000000000, 3.000000000000001776 ) ) ;
#750 = ORIENTED_EDGE ( 'NONE', *, *, #770, .F. ) ;
#751 = EDGE_CURVE ( 'NONE', #688, #199, #285, .T. ) ;
#752 = ORIENTED_EDGE ( 'NONE', *, *, #768, .T. ) ;
#753 = ORIENTED_EDGE ( 'NONE', *, *, #730, .T. ) ;
#754 = EDGE_LOOP ( 'NONE', ( #955, #687, #709, #999 ) ) ;
#755 = CARTESIAN_POINT ( 'NONE',  ( -502.4999999999999432, 0.0000000000000000000, 1.500000000000000000 ) ) ;
#756 = AXIS2_PLACEMENT_3D ( 'NONE', #475, #743, #102 ) ;
#757 = PRESENTATION_LAYER_ASSIGNMENT (  '', '', ( #84 ) ) ;
#758 = DIRECTION ( 'NONE',  ( -1.000000000000000000, -0.0000000000000000000, -0.0000000000000000000 ) ) ;
#759 = LINE ( 'NONE', #618, #692 ) ;
#760 = DIRECTION ( 'NONE',  ( -0.0000000000000000000, 1.000000000000000000, -0.0000000000000000000 ) ) ;
#761 = LINE ( 'NONE', #422, #88 ) ;
#762 = DIRECTION ( 'NONE',  ( 0.0000000000000000000, 0.0000000000000000000, 1.000000000000000000 ) ) ;
#763 = DIRECTION ( 'NONE',  ( -3.180326372624146504E-16, -0.0000000000000000000, -1.000000000000000000 ) ) ;
#764 = DIRECTION ( 'NONE',  ( -1.000000000000000000, 0.0000000000000000000, 0.0000000000000000000 ) ) ;
#765 =( GEOMETRIC_REPRESENTATION_CONTEXT ( 3 ) GLOBAL_UNCERTAINTY_ASSIGNED_CONTEXT ( ( #1016 ) ) GLOBAL_UNIT_ASSIGNED_CONTEXT ( ( #766, #194, #1018 ) ) REPRESENTATION_CONTEXT ( 'NONE', 'WORKASPACE' ) );
#766 =( LENGTH_UNIT ( ) NAMED_UNIT ( * ) SI_UNIT ( .MILLI., .METRE. ) );
#767 = LINE ( 'NONE', #453, #877 ) ;
#768 = EDGE_CURVE ( 'NONE', #941, #94, #368, .T. ) ;
#769 = LINE ( 'NONE', #755, #152 ) ;
#770 = EDGE_CURVE ( 'NONE', #359, #923, #425, .T. ) ;
#771 = VECTOR ( 'NONE', #796, 1000.000000000000000 ) ;
#772 = ORIENTED_EDGE ( 'NONE', *, *, #799, .F. ) ;
#773 = AXIS2_PLACEMENT_3D ( 'NONE', #421, #1000, #508 ) ;
#774 = ORIENTED_EDGE ( 'NONE', *, *, #930, .F. ) ;
#775 = ORIENTED_EDGE ( 'NONE', *, *, #890, .T. ) ;
#776 = VERTEX_POINT ( 'NONE', #402 ) ;
#777 = CARTESIAN_POINT ( 'NONE',  ( 502.4999999999999432, 0.0000000000000000000, 40.00000000000000000 ) ) ;
#778 = ADVANCED_FACE ( 'NONE', ( #10 ), #455, .T. ) ;
#779 = FACE_OUTER_BOUND ( 'NONE', #633, .T. ) ;
#780 = CARTESIAN_POINT ( 'NONE',  ( -375.2500000000000000, 0.0000000000000000000, 9.500000000000003553 ) ) ;
#781 = FACE_OUTER_BOUND ( 'NONE', #269, .T. ) ;
#782 = CARTESIAN_POINT ( 'NONE',  ( -372.4999999999999432, 1.500000000000000000, 24.50000000000000000 ) ) ;
#783 = AXIS2_PLACEMENT_3D ( 'NONE', #691, #605, #764 ) ;
#784 = ADVANCED_FACE ( 'NONE', ( #517 ), #648, .T. ) ;
#785 = EDGE_LOOP ( 'NONE', ( #592, #845, #251, #721, #107 ) ) ;
#786 = ORIENTED_EDGE ( 'NONE', *, *, #47, .T. ) ;
#787 = DIRECTION ( 'NONE',  ( -1.000000000000000000, 0.0000000000000000000, 0.0000000000000000000 ) ) ;
#788 = CARTESIAN_POINT ( 'NONE',  ( -372.4999999999999432, 0.0000000000000000000, 9.500000000000001776 ) ) ;
#789 = DIRECTION ( 'NONE',  ( -0.0000000000000000000, 1.000000000000000000, -0.0000000000000000000 ) ) ;
#790 = DIRECTION ( 'NONE',  ( 1.000000000000000000, 0.0000000000000000000, 0.0000000000000000000 ) ) ;
#791 = ORIENTED_EDGE ( 'NONE', *, *, #520, .F. ) ;
#792 = ORIENTED_EDGE ( 'NONE', *, *, #770, .T. ) ;
#793 = VERTEX_POINT ( 'NONE', #726 ) ;
#794 = ORIENTED_EDGE ( 'NONE', *, *, #1028, .F. ) ;
#795 = ORIENTED_EDGE ( 'NONE', *, *, #148, .T. ) ;
#796 = DIRECTION ( 'NONE',  ( 0.0000000000000000000, -1.000000000000000000, 5.782411586589356653E-16 ) ) ;
#797 = CARTESIAN_POINT ( 'NONE',  ( 0.0000000000000000000, 0.0000000000000000000, 0.0000000000000000000 ) ) ;
#798 = DIRECTION ( 'NONE',  ( -0.0000000000000000000, 0.0000000000000000000, 1.000000000000000000 ) ) ;
#799 = EDGE_CURVE ( 'NONE', #968, #1026, #1008, .T. ) ;
#800 = VECTOR ( 'NONE', #35, 1000.000000000000000 ) ;
#801 = AXIS2_PLACEMENT_3D ( 'NONE', #735, #263, #814 ) ;
#802 = VECTOR ( 'NONE', #863, 1000.000000000000000 ) ;
#803 = AXIS2_PLACEMENT_3D ( 'NONE', #1011, #921, #762 ) ;
#804 = DIRECTION ( 'NONE',  ( 0.0000000000000000000, 1.000000000000000000, 0.0000000000000000000 ) ) ;
#805 = DIRECTION ( 'NONE',  ( -3.180326372624146504E-16, -0.0000000000000000000, -1.000000000000000000 ) ) ;
#806 = ORIENTED_EDGE ( 'NONE', *, *, #672, .T. ) ;
#807 = DIRECTION ( 'NONE',  ( 0.0000000000000000000, 0.0000000000000000000, 1.000000000000000000 ) ) ;
#808 = VERTEX_POINT ( 'NONE', #87 ) ;
#809 = CARTESIAN_POINT ( 'NONE',  ( 497.4999999999999432, 0.0000000000000000000, 40.00000000000000000 ) ) ;
#810 = VERTEX_POINT ( 'NONE', #249 ) ;
#811 = DIRECTION ( 'NONE',  ( 0.0000000000000000000, 0.0000000000000000000, 1.000000000000000000 ) ) ;
#812 = CARTESIAN_POINT ( 'NONE',  ( 1.959434878635764737E-15, 0.0000000000000000000, 24.50000000000000000 ) ) ;
#813 = DIRECTION ( 'NONE',  ( 0.0000000000000000000, 0.0000000000000000000, -1.000000000000000000 ) ) ;
#814 = DIRECTION ( 'NONE',  ( 0.0000000000000000000, 0.0000000000000000000, 1.000000000000000000 ) ) ;
#815 = LINE ( 'NONE', #678, #530 ) ;
#816 = PRESENTATION_STYLE_ASSIGNMENT (( #113 ) ) ;
#817 = CYLINDRICAL_SURFACE ( 'NONE', #100, 5.000000000000004441 ) ;
#818 = LINE ( 'NONE', #1013, #386 ) ;
#819 = DIRECTION ( 'NONE',  ( 0.0000000000000000000, 0.0000000000000000000, -1.000000000000000000 ) ) ;
#820 = DIRECTION ( 'NONE',  ( -1.000000000000000000, -0.0000000000000000000, -0.0000000000000000000 ) ) ;
#821 = ORIENTED_EDGE ( 'NONE', *, *, #619, .T. ) ;
#822 = EDGE_LOOP ( 'NONE', ( #953, #746, #229, #645 ) ) ;
#823 = ORIENTED_EDGE ( 'NONE', *, *, #292, .T. ) ;
#824 = FACE_OUTER_BOUND ( 'NONE', #609, .T. ) ;
#825 = LINE ( 'NONE', #630, #680 ) ;
#826 = LINE ( 'NONE', #96, #934 ) ;
#827 = DIRECTION ( 'NONE',  ( 0.0000000000000000000, 1.000000000000000000, 0.0000000000000000000 ) ) ;
#828 = CARTESIAN_POINT ( 'NONE',  ( 497.4999999999999432, 1.500000000000000000, 40.00000000000000000 ) ) ;
#829 = AXIS2_PLACEMENT_3D ( 'NONE', #651, #259, #477 ) ;
#830 = EDGE_CURVE ( 'NONE', #128, #513, #918, .T. ) ;
#831 = AXIS2_PLACEMENT_3D ( 'NONE', #267, #1001, #415 ) ;
#832 = VERTEX_POINT ( 'NONE', #566 ) ;
#833 = VERTEX_POINT ( 'NONE', #488 ) ;
#834 = ORIENTED_EDGE ( 'NONE', *, *, #997, .T. ) ;
#835 = EDGE_CURVE ( 'NONE', #903, #563, #852, .T. ) ;
#836 = CIRCLE ( 'NONE', #679, 2.749999999999999112 ) ;
#837 = LINE ( 'NONE', #93, #352 ) ;
#838 = VECTOR ( 'NONE', #998, 1000.000000000000000 ) ;
#839 = CIRCLE ( 'NONE', #189, 2.750000000000000888 ) ;
#840 = CARTESIAN_POINT ( 'NONE',  ( -497.4999999999999432, 55.00000000000000000, 1.500000000000000000 ) ) ;
#841 = ORIENTED_EDGE ( 'NONE', *, *, #250, .F. ) ;
#842 = VERTEX_POINT ( 'NONE', #324 ) ;
#843 = ADVANCED_FACE ( 'NONE', ( #474 ), #73, .F. ) ;
#844 = ORIENTED_EDGE ( 'NONE', *, *, #397, .T. ) ;
#845 = ORIENTED_EDGE ( 'NONE', *, *, #423, .F. ) ;
#846 = ORIENTED_EDGE ( 'NONE', *, *, #177, .F. ) ;
#847 = ORIENTED_EDGE ( 'NONE', *, *, #947, .T. ) ;
#848 = CARTESIAN_POINT ( 'NONE',  ( 372.4999999999999432, 1.500000000000000000, 24.50000000000000000 ) ) ;
#849 = ADVANCED_FACE ( 'NONE', ( #824 ), #887, .F. ) ;
#850 = FACE_BOUND ( 'NONE', #142, .T. ) ;
#851 = CARTESIAN_POINT ( 'NONE',  ( 502.4999999999999432, 3.000000000000000000, 1.500000000000000000 ) ) ;
#852 = LINE ( 'NONE', #7, #581 ) ;
#853 = VECTOR ( 'NONE', #896, 1000.000000000000000 ) ;
#854 = AXIS2_PLACEMENT_3D ( 'NONE', #722, #486, #317 ) ;
#855 = VERTEX_POINT ( 'NONE', #165 ) ;
#856 = DIRECTION ( 'NONE',  ( -1.000000000000000000, 0.0000000000000000000, 3.180326372624146997E-16 ) ) ;
#857 = ORIENTED_EDGE ( 'NONE', *, *, #898, .T. ) ;
#858 = ORIENTED_EDGE ( 'NONE', *, *, #167, .T. ) ;
#859 = ORIENTED_EDGE ( 'NONE', *, *, #374, .T. ) ;
#860 = AXIS2_PLACEMENT_3D ( 'NONE', #74, #646, #892 ) ;
#861 = ORIENTED_EDGE ( 'NONE', *, *, #401, .T. ) ;
#862 = ADVANCED_FACE ( 'NONE', ( #179 ), #395, .T. ) ;
#863 = DIRECTION ( 'NONE',  ( 3.180326372624146997E-16, 0.0000000000000000000, 1.000000000000000000 ) ) ;
#864 = VECTOR ( 'NONE', #557, 1000.000000000000000 ) ;
#865 = DIRECTION ( 'NONE',  ( -0.0000000000000000000, 1.000000000000000000, -0.0000000000000000000 ) ) ;
#866 = CYLINDRICAL_SURFACE ( 'NONE', #744, 1.500000000000000000 ) ;
#867 = DIRECTION ( 'NONE',  ( -0.0000000000000000000, 1.000000000000000000, -0.0000000000000000000 ) ) ;
#868 = CARTESIAN_POINT ( 'NONE',  ( -502.4999999999999432, 50.00000000000000000, 1.500000000000000000 ) ) ;
#869 = CARTESIAN_POINT ( 'NONE',  ( -375.2500000000000000, 0.0000000000000000000, 9.500000000000003553 ) ) ;
#870 = ORIENTED_EDGE ( 'NONE', *, *, #930, .T. ) ;
#871 = ORIENTED_EDGE ( 'NONE', *, *, #312, .T. ) ;
#872 = ORIENTED_EDGE ( 'NONE', *, *, #205, .T. ) ;
#873 =( LENGTH_UNIT ( ) NAMED_UNIT ( * ) SI_UNIT ( .MILLI., .METRE. ) );
#874 = EDGE_CURVE ( 'NONE', #89, #31, #769, .T. ) ;
#875 = CARTESIAN_POINT ( 'NONE',  ( 369.7499999999999432, 1.500000000000000000, 24.50000000000000000 ) ) ;
#876 = CARTESIAN_POINT ( 'NONE',  ( -375.2499999999999432, 1.500000000000000000, 24.50000000000000000 ) ) ;
#877 = VECTOR ( 'NONE', #232, 1000.000000000000000 ) ;
#878 = DIRECTION ( 'NONE',  ( 3.180326372624146997E-16, 0.0000000000000000000, 1.000000000000000000 ) ) ;
#879 = FACE_BOUND ( 'NONE', #60, .T. ) ;
#880 = ADVANCED_FACE ( 'NONE', ( #124 ), #714, .T. ) ;
#881 = FACE_OUTER_BOUND ( 'NONE', #144, .T. ) ;
#882 = AXIS2_PLACEMENT_3D ( 'NONE', #121, #430, #443 ) ;
#883 = FACE_OUTER_BOUND ( 'NONE', #48, .T. ) ;
#884 = LINE ( 'NONE', #654, #340 ) ;
#885 =( NAMED_UNIT ( * ) SI_UNIT ( $, .STERADIAN. ) SOLID_ANGLE_UNIT ( ) );
#886 = ORIENTED_EDGE ( 'NONE', *, *, #573, .F. ) ;
#887 = PLANE ( 'NONE',  #103 ) ;
#888 = ORIENTED_EDGE ( 'NONE', *, *, #36, .F. ) ;
#889 = ORIENTED_EDGE ( 'NONE', *, *, #489, .F. ) ;
#890 = EDGE_CURVE ( 'NONE', #77, #358, #532, .T. ) ;
#891 = PRODUCT_DEFINITION ( 'UNKNOWN', '', #748, #222 ) ;
#892 = DIRECTION ( 'NONE',  ( 0.0000000000000000000, 0.0000000000000000000, 1.000000000000000000 ) ) ;
#893 = CARTESIAN_POINT ( 'NONE',  ( 502.4999999999999432, 3.000000000000000000, 35.00000000000000000 ) ) ;
#894 = EDGE_LOOP ( 'NONE', ( #697, #174, #525, #1002, #794 ) ) ;
#895 = CARTESIAN_POINT ( 'NONE',  ( 502.4999999999999432, 50.00000000000000000, 3.000000000000001332 ) ) ;
#896 = DIRECTION ( 'NONE',  ( -0.0000000000000000000, 1.000000000000000000, -0.0000000000000000000 ) ) ;
#897 = CIRCLE ( 'NONE', #426, 4.999999999999997335 ) ;
#898 = EDGE_CURVE ( 'NONE', #214, #31, #908, .T. ) ;
#899 = DIRECTION ( 'NONE',  ( 0.0000000000000000000, 0.0000000000000000000, 1.000000000000000000 ) ) ;
#900 = DIRECTION ( 'NONE',  ( 3.180326372624146997E-16, 0.0000000000000000000, 1.000000000000000000 ) ) ;
#901 = ORIENTED_EDGE ( 'NONE', *, *, #830, .F. ) ;
#902 = ORIENTED_EDGE ( 'NONE', *, *, #668, .F. ) ;
#903 = VERTEX_POINT ( 'NONE', #266 ) ;
#904 = EDGE_CURVE ( 'NONE', #1, #1026, #351, .T. ) ;
#905 = DIRECTION ( 'NONE',  ( 0.0000000000000000000, 0.0000000000000000000, 1.000000000000000000 ) ) ;
#906 = CIRCLE ( 'NONE', #8, 2.749999999999999112 ) ;
#907 = VECTOR ( 'NONE', #143, 1000.000000000000000 ) ;
#908 = CIRCLE ( 'NONE', #23, 5.000000000000004441 ) ;
#909 = CARTESIAN_POINT ( 'NONE',  ( 375.2500000000000000, 0.0000000000000000000, 24.50000000000000000 ) ) ;
#910 = VECTOR ( 'NONE', #979, 1000.000000000000000 ) ;
#911 = CIRCLE ( 'NONE', #570, 2.749999999999999112 ) ;
#912 = CIRCLE ( 'NONE', #1014, 2.750000000000000888 ) ;
#913 = EDGE_CURVE ( 'NONE', #810, #776, #274, .T. ) ;
#914 = EDGE_LOOP ( 'NONE', ( #211, #254, #716, #943 ) ) ;
#915 = EDGE_CURVE ( 'NONE', #199, #186, #638, .T. ) ;
#916 = ORIENTED_EDGE ( 'NONE', *, *, #134, .F. ) ;
#917 = SHAPE_DEFINITION_REPRESENTATION ( #394, #470 ) ;
#918 = CIRCLE ( 'NONE', #829, 4.999999999999997335 ) ;
#919 = DIRECTION ( 'NONE',  ( 0.0000000000000000000, 1.000000000000000000, 0.0000000000000000000 ) ) ;
#920 = AXIS2_PLACEMENT_3D ( 'NONE', #782, #440, #537 ) ;
#921 = DIRECTION ( 'NONE',  ( -0.0000000000000000000, 1.000000000000000000, -0.0000000000000000000 ) ) ;
#922 = CARTESIAN_POINT ( 'NONE',  ( 2.749999999999997780, 0.0000000000000000000, 9.500000000000000000 ) ) ;
#923 = VERTEX_POINT ( 'NONE', #354 ) ;
#924 = ORIENTED_EDGE ( 'NONE', *, *, #1041, .T. ) ;
#925 = ORIENTED_EDGE ( 'NONE', *, *, #181, .T. ) ;
#926 = DIRECTION ( 'NONE',  ( 0.0000000000000000000, 0.0000000000000000000, 1.000000000000000000 ) ) ;
#927 = AXIS2_PLACEMENT_3D ( 'NONE', #133, #225, #228 ) ;
#928 = LINE ( 'NONE', #311, #428 ) ;
#929 = DIRECTION ( 'NONE',  ( 0.0000000000000000000, 1.000000000000000000, 0.0000000000000000000 ) ) ;
#930 = EDGE_CURVE ( 'NONE', #128, #855, #504, .T. ) ;
#931 = FACE_OUTER_BOUND ( 'NONE', #407, .T. ) ;
#932 = CYLINDRICAL_SURFACE ( 'NONE', #1056, 4.999999999999997335 ) ;
#933 = CARTESIAN_POINT ( 'NONE',  ( -2.750000000000002665, 0.0000000000000000000, 9.500000000000003553 ) ) ;
#934 = VECTOR ( 'NONE', #745, 1000.000000000000000 ) ;
#935 = PLANE ( 'NONE',  #117 ) ;
#936 = DIRECTION ( 'NONE',  ( 0.0000000000000000000, 1.000000000000000000, -0.0000000000000000000 ) ) ;
#937 = AXIS2_PLACEMENT_3D ( 'NONE', #951, #226, #1039 ) ;
#938 = ORIENTED_EDGE ( 'NONE', *, *, #36, .T. ) ;
#939 = DIRECTION ( 'NONE',  ( -1.000000000000000000, -0.0000000000000000000, -0.0000000000000000000 ) ) ;
#940 = VERTEX_POINT ( 'NONE', #909 ) ;
#941 = VERTEX_POINT ( 'NONE', #516 ) ;
#942 = ADVANCED_FACE ( 'NONE', ( #135 ), #948, .F. ) ;
#943 = ORIENTED_EDGE ( 'NONE', *, *, #138, .F. ) ;
#944 = PLANE ( 'NONE',  #192 ) ;
#945 = DIRECTION ( 'NONE',  ( 1.000000000000000000, 0.0000000000000000000, 0.0000000000000000000 ) ) ;
#946 = CARTESIAN_POINT ( 'NONE',  ( 502.4999999999999432, 0.0000000000000000000, 40.00000000000000000 ) ) ;
#947 = EDGE_CURVE ( 'NONE', #120, #598, #974, .T. ) ;
#948 = CYLINDRICAL_SURFACE ( 'NONE', #882, 2.750000000000000888 ) ;
#949 = ADVANCED_FACE ( 'NONE', ( #850, #424, #879, #670 ), #206, .F. ) ;
#950 = DIRECTION ( 'NONE',  ( 0.0000000000000000000, 1.000000000000000000, 0.0000000000000000000 ) ) ;
#951 = CARTESIAN_POINT ( 'NONE',  ( -502.4999999999999432, 3.000000000000000000, 3.000000000000001332 ) ) ;
#952 = ORIENTED_EDGE ( 'NONE', *, *, #252, .T. ) ;
#953 = ORIENTED_EDGE ( 'NONE', *, *, #898, .F. ) ;
#954 = CARTESIAN_POINT ( 'NONE',  ( 497.4999999999999432, 0.0000000000000000000, 40.00000000000000000 ) ) ;
#955 = ORIENTED_EDGE ( 'NONE', *, *, #272, .T. ) ;
#956 = PLANE ( 'NONE',  #43 ) ;
#957 = DIRECTION ( 'NONE',  ( 1.000000000000000000, 0.0000000000000000000, 0.0000000000000000000 ) ) ;
#958 = ORIENTED_EDGE ( 'NONE', *, *, #138, .T. ) ;
#959 = CARTESIAN_POINT ( 'NONE',  ( -369.7499999999999432, 0.0000000000000000000, 9.500000000000000000 ) ) ;
#960 =( LENGTH_UNIT ( ) NAMED_UNIT ( * ) SI_UNIT ( .MILLI., .METRE. ) );
#961 = ADVANCED_FACE ( 'NONE', ( #365 ), #39, .F. ) ;
#962 = DIRECTION ( 'NONE',  ( 0.0000000000000000000, 1.000000000000000000, 0.0000000000000000000 ) ) ;
#963 = VECTOR ( 'NONE', #497, 1000.000000000000000 ) ;
#964 = SURFACE_STYLE_USAGE ( .BOTH. , #637 ) ;
#965 = CARTESIAN_POINT ( 'NONE',  ( 502.4999999999999432, 0.0000000000000000000, 3.000000000000002665 ) ) ;
#966 = FACE_OUTER_BOUND ( 'NONE', #496, .T. ) ;
#967 = CARTESIAN_POINT ( 'NONE',  ( 1.959434878635764737E-15, 1.500000000000000000, 24.50000000000000000 ) ) ;
#968 = VERTEX_POINT ( 'NONE', #287 ) ;
#969 = VERTEX_POINT ( 'NONE', #694 ) ;
#970 = VERTEX_POINT ( 'NONE', #457 ) ;
#971 = DIRECTION ( 'NONE',  ( -0.0000000000000000000, 1.000000000000000000, -0.0000000000000000000 ) ) ;
#972 = DIRECTION ( 'NONE',  ( 0.0000000000000000000, 0.0000000000000000000, 1.000000000000000000 ) ) ;
#973 = AXIS2_PLACEMENT_3D ( 'NONE', #322, #1059, #562 ) ;
#974 = LINE ( 'NONE', #24, #219 ) ;
#975 = AXIS2_PLACEMENT_3D ( 'NONE', #797, #643, #559 ) ;
#976 = DIRECTION ( 'NONE',  ( 3.180326372624146997E-16, 0.0000000000000000000, 1.000000000000000000 ) ) ;
#977 = CARTESIAN_POINT ( 'NONE',  ( 502.4999999999999432, 0.0000000000000000000, 3.000000000000002665 ) ) ;
#978 = CIRCLE ( 'NONE', #1046, 5.000000000000004441 ) ;
#979 = DIRECTION ( 'NONE',  ( -0.0000000000000000000, 1.000000000000000000, -0.0000000000000000000 ) ) ;
#980 = ORIENTED_EDGE ( 'NONE', *, *, #703, .T. ) ;
#981 = DIRECTION ( 'NONE',  ( 0.0000000000000000000, 0.0000000000000000000, -1.000000000000000000 ) ) ;
#982 = VERTEX_POINT ( 'NONE', #367 ) ;
#983 = CARTESIAN_POINT ( 'NONE',  ( -369.7499999999999432, 0.0000000000000000000, 9.500000000000000000 ) ) ;
#984 = ORIENTED_EDGE ( 'NONE', *, *, #119, .T. ) ;
#985 = DIRECTION ( 'NONE',  ( -3.180326372624146504E-16, 0.0000000000000000000, -1.000000000000000000 ) ) ;
#986 = ORIENTED_EDGE ( 'NONE', *, *, #272, .F. ) ;
#987 = CARTESIAN_POINT ( 'NONE',  ( -369.7499999999999432, 1.500000000000000000, 9.500000000000000000 ) ) ;
#988 = CARTESIAN_POINT ( 'NONE',  ( 369.7499999999999432, 0.0000000000000000000, 24.50000000000000000 ) ) ;
#989 = VECTOR ( 'NONE', #3, 1000.000000000000000 ) ;
#990 = DIRECTION ( 'NONE',  ( 0.0000000000000000000, 0.0000000000000000000, -1.000000000000000000 ) ) ;
#991 = AXIS2_PLACEMENT_3D ( 'NONE', #689, #28, #599 ) ;
#992 = VECTOR ( 'NONE', #614, 1000.000000000000000 ) ;
#993 = FILL_AREA_STYLE_COLOUR ( '', #413 ) ;
#994 = FACE_OUTER_BOUND ( 'NONE', #683, .T. ) ;
#995 = CYLINDRICAL_SURFACE ( 'NONE', #575, 2.749999999999999112 ) ;
#996 = VECTOR ( 'NONE', #521, 1000.000000000000000 ) ;
#997 = EDGE_CURVE ( 'NONE', #1026, #89, #1006, .T. ) ;
#998 = DIRECTION ( 'NONE',  ( 0.0000000000000000000, 0.0000000000000000000, -1.000000000000000000 ) ) ;
#999 = ORIENTED_EDGE ( 'NONE', *, *, #387, .T. ) ;
#1000 = DIRECTION ( 'NONE',  ( 1.000000000000000000, -0.0000000000000000000, -0.0000000000000000000 ) ) ;
#1001 = DIRECTION ( 'NONE',  ( 0.0000000000000000000, 1.000000000000000000, 0.0000000000000000000 ) ) ;
#1002 = ORIENTED_EDGE ( 'NONE', *, *, #702, .F. ) ;
#1003 = AXIS2_PLACEMENT_3D ( 'NONE', #681, #200, #342 ) ;
#1004 = EDGE_LOOP ( 'NONE', ( #139, #660, #465, #302 ) ) ;
#1005 = SURFACE_SIDE_STYLE ('',( #353 ) ) ;
#1006 = CIRCLE ( 'NONE', #220, 1.500000000000000000 ) ;
#1007 = CIRCLE ( 'NONE', #1055, 2.749999999999999112 ) ;
#1008 = LINE ( 'NONE', #493, #725 ) ;
#1009 = AXIS2_PLACEMENT_3D ( 'NONE', #445, #38, #610 ) ;
#1010 = LINE ( 'NONE', #91, #262 ) ;
#1011 = CARTESIAN_POINT ( 'NONE',  ( 372.4999999999999432, 0.0000000000000000000, 9.500000000000001776 ) ) ;
#1012 = ORIENTED_EDGE ( 'NONE', *, *, #515, .T. ) ;
#1013 = CARTESIAN_POINT ( 'NONE',  ( -369.7499999999999432, 1.500000000000000000, 9.500000000000000000 ) ) ;
#1014 = AXIS2_PLACEMENT_3D ( 'NONE', #632, #160, #309 ) ;
#1015 = EDGE_CURVE ( 'NONE', #550, #1, #815, .T. ) ;
#1016 = UNCERTAINTY_MEASURE_WITH_UNIT (LENGTH_MEASURE( 1.000000000000000082E-05 ), #766, 'distance_accuracy_value', 'NONE');
#1017 = EDGE_CURVE ( 'NONE', #240, #89, #1019, .T. ) ;
#1018 =( NAMED_UNIT ( * ) SI_UNIT ( $, .STERADIAN. ) SOLID_ANGLE_UNIT ( ) );
#1019 = LINE ( 'NONE', #851, #123 ) ;
#1020 = ADVANCED_FACE ( 'NONE', ( #308 ), #932, .T. ) ;
#1021 = LINE ( 'NONE', #376, #333 ) ;
#1022 = VECTOR ( 'NONE', #153, 1000.000000000000000 ) ;
#1023 = EDGE_CURVE ( 'NONE', #541, #970, #65, .T. ) ;
#1024 = CARTESIAN_POINT ( 'NONE',  ( -2.750000000000039524, 1.500000000000000000, 9.500000000000005329 ) ) ;
#1025 = DIRECTION ( 'NONE',  ( -0.0000000000000000000, 1.000000000000000000, -0.0000000000000000000 ) ) ;
#1026 = VERTEX_POINT ( 'NONE', #451 ) ;
#1027 = DIRECTION ( 'NONE',  ( 0.0000000000000000000, 0.0000000000000000000, 1.000000000000000000 ) ) ;
#1028 = EDGE_CURVE ( 'NONE', #358, #564, #767, .T. ) ;
#1029 = FACE_OUTER_BOUND ( 'NONE', #182, .T. ) ;
#1030 = EDGE_CURVE ( 'NONE', #940, #120, #202, .T. ) ;
#1031 = CARTESIAN_POINT ( 'NONE',  ( -375.2500000000000000, 0.0000000000000000000, 9.500000000000003553 ) ) ;
#1032 = CARTESIAN_POINT ( 'NONE',  ( -375.2500000000000000, 0.0000000000000000000, 9.500000000000003553 ) ) ;
#1033 = AXIS2_PLACEMENT_3D ( 'NONE', #591, #673, #899 ) ;
#1034 = EDGE_LOOP ( 'NONE', ( #20, #294, #659, #416 ) ) ;
#1035 = ADVANCED_FACE ( 'NONE', ( #381 ), #956, .T. ) ;
#1036 = ORIENTED_EDGE ( 'NONE', *, *, #1030, .T. ) ;
#1037 = ORIENTED_EDGE ( 'NONE', *, *, #483, .T. ) ;
#1038 = ORIENTED_EDGE ( 'NONE', *, *, #1049, .F. ) ;
#1039 = DIRECTION ( 'NONE',  ( 0.0000000000000000000, 0.0000000000000000000, 1.000000000000000000 ) ) ;
#1040 = CARTESIAN_POINT ( 'NONE',  ( 372.4999999999999432, 0.0000000000000000000, 27.25000000000000000 ) ) ;
#1041 = EDGE_CURVE ( 'NONE', #479, #162, #713, .T. ) ;
#1042 = CARTESIAN_POINT ( 'NONE',  ( -497.4999999999999432, 0.0000000000000000000, 35.00000000000000000 ) ) ;
#1043 = CARTESIAN_POINT ( 'NONE',  ( 497.4999999999999432, 55.00000000000000000, 1.500000000000000000 ) ) ;
#1044 = DIRECTION ( 'NONE',  ( -1.000000000000000000, -0.0000000000000000000, -0.0000000000000000000 ) ) ;
#1045 = LINE ( 'NONE', #653, #427 ) ;
#1046 = AXIS2_PLACEMENT_3D ( 'NONE', #439, #529, #32 ) ;
#1047 = CARTESIAN_POINT ( 'NONE',  ( -369.7499999999998863, 0.0000000000000000000, 24.50000000000000000 ) ) ;
#1048 = AXIS2_PLACEMENT_3D ( 'NONE', #364, #136, #701 ) ;
#1049 = EDGE_CURVE ( 'NONE', #162, #564, #217, .T. ) ;
#1050 = ORIENTED_EDGE ( 'NONE', *, *, #619, .F. ) ;
#1051 = DIRECTION ( 'NONE',  ( -0.0000000000000000000, 1.000000000000000000, -0.0000000000000000000 ) ) ;
#1052 = ORIENTED_EDGE ( 'NONE', *, *, #710, .T. ) ;
#1053 = ORIENTED_EDGE ( 'NONE', *, *, #874, .F. ) ;
#1054 = DIRECTION ( 'NONE',  ( 0.0000000000000000000, 1.000000000000000000, 0.0000000000000000000 ) ) ;
#1055 = AXIS2_PLACEMENT_3D ( 'NONE', #967, #1054, #70 ) ;
#1056 = AXIS2_PLACEMENT_3D ( 'NONE', #684, #542, #45 ) ;
#1057 = CARTESIAN_POINT ( 'NONE',  ( 502.4999999999999432, 3.000000000000000000, 3.000000000000001332 ) ) ;
#1058 = CARTESIAN_POINT ( 'NONE',  ( 502.4999999999999432, 0.0000000000000000000, 0.0000000000000000000 ) ) ;
#1059 = DIRECTION ( 'NONE',  ( -0.0000000000000000000, 1.000000000000000000, 0.0000000000000000000 ) ) ;
#1060 = DIRECTION ( 'NONE',  ( -0.0000000000000000000, 1.000000000000000000, -0.0000000000000000000 ) ) ;
#1061 = DIRECTION ( 'NONE',  ( -1.000000000000000000, 0.0000000000000000000, 3.180326372624146997E-16 ) ) ;
#1062 = VECTOR ( 'NONE', #418, 1000.000000000000000 ) ;
#1063 = DIRECTION ( 'NONE',  ( -0.0000000000000000000, 1.000000000000000000, -0.0000000000000000000 ) ) ;
ENDSEC;
END-ISO-10303-21;
