ISO-10303-21;
HEADER;
FILE_DESCRIPTION (( 'STEP AP214' ),
    '1' );
FILE_NAME ('03_081_sheetmetall_sensor holder.STEP',
    '2020-09-23T11:48:31',
    ( '' ),
    ( '' ),
    'SwSTEP 2.0',
    'SolidWorks 2018',
    '' );
FILE_SCHEMA (( 'AUTOMOTIVE_DESIGN' ));
ENDSEC;

DATA;
#1 = FACE_OUTER_BOUND ( 'NONE', #358, .T. ) ;
#2 = DIRECTION ( 'NONE',  ( 0.0000000000000000000, -1.000000000000000000, -0.0000000000000000000 ) ) ;
#3 =( NAMED_UNIT ( * ) SI_UNIT ( $, .STERADIAN. ) SOLID_ANGLE_UNIT ( ) );
#4 = CYLINDRICAL_SURFACE ( 'NONE', #757, 4.000000000000003553 ) ;
#5 = ORIENTED_EDGE ( 'NONE', *, *, #362, .F. ) ;
#6 = ORIENTED_EDGE ( 'NONE', *, *, #697, .T. ) ;
#7 = ORIENTED_EDGE ( 'NONE', *, *, #325, .T. ) ;
#8 = PLANE ( 'NONE',  #443 ) ;
#9 = DIRECTION ( 'NONE',  ( 0.0000000000000000000, 0.0000000000000000000, 1.000000000000000000 ) ) ;
#10 = EDGE_LOOP ( 'NONE', ( #599, #31, #813, #492 ) ) ;
#11 = CARTESIAN_POINT ( 'NONE',  ( -7.500000000000006217, 0.0000000000000000000, 16.75000000000000000 ) ) ;
#12 = DIRECTION ( 'NONE',  ( -0.0000000000000000000, 0.0000000000000000000, 1.000000000000000000 ) ) ;
#13 = CARTESIAN_POINT ( 'NONE',  ( 25.00000000000000000, 0.0000000000000000000, 21.00000000000000000 ) ) ;
#14 = EDGE_CURVE ( 'NONE', #734, #277, #452, .T. ) ;
#15 = CIRCLE ( 'NONE', #737, 4.000000000000000000 ) ;
#16 = VECTOR ( 'NONE', #803, 1000.000000000000000 ) ;
#17 = CIRCLE ( 'NONE', #196, 2.749999999999999112 ) ;
#18 = VERTEX_POINT ( 'NONE', #624 ) ;
#19 = ORIENTED_EDGE ( 'NONE', *, *, #867, .T. ) ;
#20 = ORIENTED_EDGE ( 'NONE', *, *, #542, .T. ) ;
#21 = DIRECTION ( 'NONE',  ( -0.0000000000000000000, -1.000000000000000000, 3.491481338843133355E-15 ) ) ;
#22 = CARTESIAN_POINT ( 'NONE',  ( -7.500000000000007105, 0.0000000000000000000, 14.00000000000000178 ) ) ;
#23 = EDGE_CURVE ( 'NONE', #906, #895, #287, .T. ) ;
#24 = VECTOR ( 'NONE', #881, 1000.000000000000000 ) ;
#25 = AXIS2_PLACEMENT_3D ( 'NONE', #945, #209, #572 ) ;
#26 = VERTEX_POINT ( 'NONE', #724 ) ;
#27 = CARTESIAN_POINT ( 'NONE',  ( 20.99999999999999645, 0.0000000000000000000, 25.00000000000000000 ) ) ;
#28 = ORIENTED_EDGE ( 'NONE', *, *, #900, .T. ) ;
#29 = EDGE_LOOP ( 'NONE', ( #97, #708, #706, #291 ) ) ;
#30 = DIRECTION ( 'NONE',  ( 0.0000000000000000000, -1.000000000000000000, 3.491481338843133355E-15 ) ) ;
#31 = ORIENTED_EDGE ( 'NONE', *, *, #278, .T. ) ;
#32 = CARTESIAN_POINT ( 'NONE',  ( -25.00000000000000000, -1.500000000000000000, 21.00000000000000000 ) ) ;
#33 = CARTESIAN_POINT ( 'NONE',  ( -16.50000000000000355, 0.0000000000000000000, 16.75000000000000000 ) ) ;
#34 = AXIS2_PLACEMENT_3D ( 'NONE', #768, #541, #746 ) ;
#35 = DIRECTION ( 'NONE',  ( 0.0000000000000000000, -0.0000000000000000000, 1.000000000000000000 ) ) ;
#36 = CARTESIAN_POINT ( 'NONE',  ( 20.99999999999999645, 0.0000000000000000000, 21.00000000000000000 ) ) ;
#37 = FACE_OUTER_BOUND ( 'NONE', #731, .T. ) ;
#38 = EDGE_CURVE ( 'NONE', #657, #559, #904, .T. ) ;
#39 = VECTOR ( 'NONE', #920, 1000.000000000000000 ) ;
#40 = CARTESIAN_POINT ( 'NONE',  ( 20.99999999999999645, -1.500000000000000000, 25.00000000000000000 ) ) ;
#41 = ORIENTED_EDGE ( 'NONE', *, *, #418, .F. ) ;
#42 = ORIENTED_EDGE ( 'NONE', *, *, #527, .T. ) ;
#43 = ORIENTED_EDGE ( 'NONE', *, *, #763, .T. ) ;
#44 = DIRECTION ( 'NONE',  ( 1.000000000000000000, 0.0000000000000000000, -0.0000000000000000000 ) ) ;
#45 = ADVANCED_FACE ( 'NONE', ( #877 ), #457, .F. ) ;
#46 = CARTESIAN_POINT ( 'NONE',  ( 25.00000000000000000, 96.00000000000000000, -3.351822085289408021E-13 ) ) ;
#47 = AXIS2_PLACEMENT_3D ( 'NONE', #758, #910, #918 ) ;
#48 = LINE ( 'NONE', #545, #861 ) ;
#49 = VERTEX_POINT ( 'NONE', #568 ) ;
#50 = AXIS2_PLACEMENT_3D ( 'NONE', #199, #125, #793 ) ;
#51 = ORIENTED_EDGE ( 'NONE', *, *, #258, .T. ) ;
#52 = VERTEX_POINT ( 'NONE', #341 ) ;
#53 = ORIENTED_EDGE ( 'NONE', *, *, #123, .F. ) ;
#54 = ADVANCED_FACE ( 'NONE', ( #163 ), #565, .F. ) ;
#55 = CARTESIAN_POINT ( 'NONE',  ( 16.49999999999998934, 0.0000000000000000000, 11.24999999999999645 ) ) ;
#56 = UNCERTAINTY_MEASURE_WITH_UNIT (LENGTH_MEASURE( 1.000000000000000082E-05 ), #366, 'distance_accuracy_value', 'NONE');
#57 = DIRECTION ( 'NONE',  ( -0.0000000000000000000, -1.000000000000000000, 0.0000000000000000000 ) ) ;
#58 = VECTOR ( 'NONE', #634, 1000.000000000000000 ) ;
#59 = CARTESIAN_POINT ( 'NONE',  ( 16.49999999999999289, -1.500000000000000000, 16.74999999999999289 ) ) ;
#60 = CIRCLE ( 'NONE', #246, 2.749999999999999112 ) ;
#61 = AXIS2_PLACEMENT_3D ( 'NONE', #147, #66, #884 ) ;
#62 = DIRECTION ( 'NONE',  ( 1.156482317317871725E-16, -1.000000000000000000, 0.0000000000000000000 ) ) ;
#63 = ORIENTED_EDGE ( 'NONE', *, *, #622, .T. ) ;
#64 = CARTESIAN_POINT ( 'NONE',  ( 0.0000000000000000000, 85.00000000000000000, -2.967759925206732777E-13 ) ) ;
#65 = CARTESIAN_POINT ( 'NONE',  ( -25.00000000000000000, -1.767775056311086436E-15, -1.211350928885223128E-29 ) ) ;
#66 = DIRECTION ( 'NONE',  ( 0.0000000000000000000, 0.0000000000000000000, 1.000000000000000000 ) ) ;
#67 = CARTESIAN_POINT ( 'NONE',  ( -25.00000000000000000, -1.500000000000000000, 25.00000000000000000 ) ) ;
#68 = ADVANCED_FACE ( 'NONE', ( #402 ), #4, .T. ) ;
#69 = CARTESIAN_POINT ( 'NONE',  ( -20.99999999999998224, 100.0000000000000000, -3.491481338843133355E-13 ) ) ;
#70 = CARTESIAN_POINT ( 'NONE',  ( -25.00000000000000000, 1.499999999999984235, 2.999999999999994671 ) ) ;
#71 = PRESENTATION_STYLE_ASSIGNMENT (( #453 ) ) ;
#72 = VECTOR ( 'NONE', #525, 1000.000000000000000 ) ;
#73 = LINE ( 'NONE', #759, #589 ) ;
#74 = DIRECTION ( 'NONE',  ( 0.0000000000000000000, 1.000000000000000000, 0.0000000000000000000 ) ) ;
#75 = ORIENTED_EDGE ( 'NONE', *, *, #270, .T. ) ;
#76 = ORIENTED_EDGE ( 'NONE', *, *, #171, .F. ) ;
#77 = DIRECTION ( 'NONE',  ( -0.0000000000000000000, -0.0000000000000000000, 1.000000000000000000 ) ) ;
#78 = EDGE_CURVE ( 'NONE', #265, #834, #775, .T. ) ;
#79 = ORIENTED_EDGE ( 'NONE', *, *, #460, .F. ) ;
#80 = DIRECTION ( 'NONE',  ( -1.261617073437678245E-15, 0.0000000000000000000, 1.000000000000000000 ) ) ;
#81 = DIRECTION ( 'NONE',  ( 0.0000000000000000000, 0.0000000000000000000, -1.000000000000000000 ) ) ;
#82 = CARTESIAN_POINT ( 'NONE',  ( 25.00000000000000000, 96.00000000000000000, 1.499999999999664713 ) ) ;
#83 = EDGE_CURVE ( 'NONE', #18, #395, #390, .T. ) ;
#84 = DIRECTION ( 'NONE',  ( 8.758115402030106693E-47, -3.491481338843133355E-15, -1.000000000000000000 ) ) ;
#85 = VECTOR ( 'NONE', #673, 1000.000000000000000 ) ;
#86 = CARTESIAN_POINT ( 'NONE',  ( -6.250000000000000000, 85.00000000000000000, 1.499999999999703126 ) ) ;
#87 = DIRECTION ( 'NONE',  ( 1.156482317317871725E-16, -1.000000000000000000, 3.491481338843133355E-15 ) ) ;
#88 = VECTOR ( 'NONE', #352, 1000.000000000000000 ) ;
#89 = ORIENTED_EDGE ( 'NONE', *, *, #493, .T. ) ;
#90 = EDGE_LOOP ( 'NONE', ( #562, #202, #954, #785 ) ) ;
#91 = ADVANCED_BREP_SHAPE_REPRESENTATION ( '03_081_sheetmetall_sensor holder', ( #944, #628 ), #249 ) ;
#92 = EDGE_CURVE ( 'NONE', #866, #299, #17, .T. ) ;
#93 = PRESENTATION_STYLE_ASSIGNMENT (( #221 ) ) ;
#94 = CARTESIAN_POINT ( 'NONE',  ( 6.250000000000000000, 85.00000000000000000, -2.444037336337030741E-13 ) ) ;
#95 = LINE ( 'NONE', #40, #641 ) ;
#96 = LINE ( 'NONE', #441, #826 ) ;
#97 = ORIENTED_EDGE ( 'NONE', *, *, #426, .F. ) ;
#98 = ORIENTED_EDGE ( 'NONE', *, *, #909, .T. ) ;
#99 = AXIS2_PLACEMENT_3D ( 'NONE', #871, #138, #80 ) ;
#100 = DIRECTION ( 'NONE',  ( 0.0000000000000000000, 1.000000000000000000, 0.0000000000000000000 ) ) ;
#101 = EDGE_CURVE ( 'NONE', #601, #569, #60, .T. ) ;
#102 = PLANE ( 'NONE',  #689 ) ;
#103 = FACE_OUTER_BOUND ( 'NONE', #394, .T. ) ;
#104 = AXIS2_PLACEMENT_3D ( 'NONE', #890, #231, #658 ) ;
#105 = VECTOR ( 'NONE', #623, 1000.000000000000000 ) ;
#106 = CARTESIAN_POINT ( 'NONE',  ( -25.00000000000000000, -1.500000000000015765, 2.999999999999995115 ) ) ;
#107 = ORIENTED_EDGE ( 'NONE', *, *, #380, .T. ) ;
#108 = ORIENTED_EDGE ( 'NONE', *, *, #714, .T. ) ;
#109 = PLANE ( 'NONE',  #34 ) ;
#110 = VERTEX_POINT ( 'NONE', #69 ) ;
#111 = DIRECTION ( 'NONE',  ( 0.0000000000000000000, 1.000000000000000000, 0.0000000000000000000 ) ) ;
#112 = AXIS2_PLACEMENT_3D ( 'NONE', #528, #838, #302 ) ;
#113 = CARTESIAN_POINT ( 'NONE',  ( -20.99999999999998224, 100.0000000000000000, 1.499999999999650946 ) ) ;
#114 = ADVANCED_FACE ( 'NONE', ( #761 ), #8, .T. ) ;
#115 = EDGE_CURVE ( 'NONE', #609, #657, #579, .T. ) ;
#116 = CIRCLE ( 'NONE', #717, 4.000000000000000000 ) ;
#117 = CIRCLE ( 'NONE', #61, 6.250000000000000000 ) ;
#118 = ORIENTED_EDGE ( 'NONE', *, *, #348, .T. ) ;
#119 = EDGE_LOOP ( 'NONE', ( #719, #495, #864, #645 ) ) ;
#120 = VERTEX_POINT ( 'NONE', #293 ) ;
#121 = ORIENTED_EDGE ( 'NONE', *, *, #146, .F. ) ;
#122 = DIRECTION ( 'NONE',  ( -1.156482317317871725E-16, 1.000000000000000000, -3.491481338843133355E-15 ) ) ;
#123 = EDGE_CURVE ( 'NONE', #609, #866, #507, .T. ) ;
#124 = CARTESIAN_POINT ( 'NONE',  ( -25.00000000000000000, 1.499999999999984235, 2.999999999999994671 ) ) ;
#125 = DIRECTION ( 'NONE',  ( 0.0000000000000000000, 3.491481338843133355E-15, 1.000000000000000000 ) ) ;
#126 = CARTESIAN_POINT ( 'NONE',  ( 6.250000000000003553, 55.00000000000001421, -0.001000000000349245827 ) ) ;
#127 = LINE ( 'NONE', #800, #294 ) ;
#128 = FACE_OUTER_BOUND ( 'NONE', #561, .T. ) ;
#129 = EDGE_CURVE ( 'NONE', #657, #633, #558, .T. ) ;
#130 = CARTESIAN_POINT ( 'NONE',  ( -16.50000000000000711, -1.500000000000000000, 11.25000000000000533 ) ) ;
#131 = ORIENTED_EDGE ( 'NONE', *, *, #656, .T. ) ;
#132 = ORIENTED_EDGE ( 'NONE', *, *, #939, .F. ) ;
#133 = EDGE_LOOP ( 'NONE', ( #181, #878, #63, #597 ) ) ;
#134 = EDGE_CURVE ( 'NONE', #266, #120, #951, .T. ) ;
#135 = CARTESIAN_POINT ( 'NONE',  ( -16.50000000000000711, -1.500000000000000000, 14.00000000000000533 ) ) ;
#136 = FACE_BOUND ( 'NONE', #312, .T. ) ;
#137 = CIRCLE ( 'NONE', #455, 2.749999999999995559 ) ;
#138 = DIRECTION ( 'NONE',  ( -0.0000000000000000000, -1.000000000000000000, -0.0000000000000000000 ) ) ;
#139 = LINE ( 'NONE', #590, #261 ) ;
#140 = ORIENTED_EDGE ( 'NONE', *, *, #123, .T. ) ;
#141 = ORIENTED_EDGE ( 'NONE', *, *, #500, .F. ) ;
#142 = AXIS2_PLACEMENT_3D ( 'NONE', #239, #449, #314 ) ;
#143 = ORIENTED_EDGE ( 'NONE', *, *, #900, .F. ) ;
#144 = DIRECTION ( 'NONE',  ( 0.0000000000000000000, 0.0000000000000000000, 1.000000000000000000 ) ) ;
#145 = DIRECTION ( 'NONE',  ( 0.0000000000000000000, 0.0000000000000000000, 1.000000000000000000 ) ) ;
#146 = EDGE_CURVE ( 'NONE', #422, #734, #309, .T. ) ;
#147 = CARTESIAN_POINT ( 'NONE',  ( 3.469446951953614189E-15, 55.00000000000001421, 1.500000000000000000 ) ) ;
#148 = CARTESIAN_POINT ( 'NONE',  ( 25.00000000000000000, -5.237222008264700033E-15, 0.0000000000000000000 ) ) ;
#149 = FACE_OUTER_BOUND ( 'NONE', #762, .T. ) ;
#150 = FACE_BOUND ( 'NONE', #547, .T. ) ;
#151 = LINE ( 'NONE', #185, #105 ) ;
#152 = EDGE_LOOP ( 'NONE', ( #471, #6, #118, #177 ) ) ;
#153 = CARTESIAN_POINT ( 'NONE',  ( 0.0000000000000000000, -1.500000000000000000, 0.0000000000000000000 ) ) ;
#154 = EDGE_CURVE ( 'NONE', #787, #846, #139, .T. ) ;
#155 = EDGE_LOOP ( 'NONE', ( #630, #423, #671, #53 ) ) ;
#156 = DIRECTION ( 'NONE',  ( 0.0000000000000000000, -0.0000000000000000000, 1.000000000000000000 ) ) ;
#157 =( LENGTH_UNIT ( ) NAMED_UNIT ( * ) SI_UNIT ( .MILLI., .METRE. ) );
#158 = AXIS2_PLACEMENT_3D ( 'NONE', #172, #550, #613 ) ;
#159 = CARTESIAN_POINT ( 'NONE',  ( 25.00000000000000000, 96.00000000000000000, -3.351822085289408021E-13 ) ) ;
#160 = CIRCLE ( 'NONE', #25, 6.250000000000000000 ) ;
#161 = CARTESIAN_POINT ( 'NONE',  ( -25.00000000000000000, -1.500000000000000000, 25.00000000000000000 ) ) ;
#162 = FACE_OUTER_BOUND ( 'NONE', #526, .T. ) ;
#163 = FACE_OUTER_BOUND ( 'NONE', #805, .T. ) ;
#164 = VERTEX_POINT ( 'NONE', #807 ) ;
#165 = FILL_AREA_STYLE_COLOUR ( '', #430 ) ;
#166 = ORIENTED_EDGE ( 'NONE', *, *, #887, .T. ) ;
#167 = ORIENTED_EDGE ( 'NONE', *, *, #500, .T. ) ;
#168 = DIRECTION ( 'NONE',  ( -1.000000000000000000, 0.0000000000000000000, 0.0000000000000000000 ) ) ;
#169 = APPLICATION_PROTOCOL_DEFINITION ( 'draft international standard', 'automotive_design', 1998, #529 ) ;
#170 = CARTESIAN_POINT ( 'NONE',  ( 16.49999999999998934, -1.500000000000000000, 11.24999999999999645 ) ) ;
#171 = EDGE_CURVE ( 'NONE', #425, #787, #117, .T. ) ;
#172 = CARTESIAN_POINT ( 'NONE',  ( 21.00000000000000000, 96.00000000000000000, -3.351822085289408021E-13 ) ) ;
#173 = DIRECTION ( 'NONE',  ( -0.0000000000000000000, -0.0000000000000000000, 1.000000000000000000 ) ) ;
#174 = FACE_OUTER_BOUND ( 'NONE', #917, .T. ) ;
#175 = VECTOR ( 'NONE', #620, 1000.000000000000000 ) ;
#176 = DIRECTION ( 'NONE',  ( 0.0000000000000000000, 0.0000000000000000000, 1.000000000000000000 ) ) ;
#177 = ORIENTED_EDGE ( 'NONE', *, *, #714, .F. ) ;
#178 = ORIENTED_EDGE ( 'NONE', *, *, #183, .F. ) ;
#179 = ORIENTED_EDGE ( 'NONE', *, *, #316, .F. ) ;
#180 = CARTESIAN_POINT ( 'NONE',  ( 6.250000000000003553, 55.00000000000001421, 1.500000000000000000 ) ) ;
#181 = ORIENTED_EDGE ( 'NONE', *, *, #675, .T. ) ;
#182 = CARTESIAN_POINT ( 'NONE',  ( 16.49999999999998934, -1.500000000000000000, 11.24999999999999645 ) ) ;
#183 = EDGE_CURVE ( 'NONE', #226, #235, #96, .T. ) ;
#184 = DIRECTION ( 'NONE',  ( 0.0000000000000000000, 1.000000000000000000, 0.0000000000000000000 ) ) ;
#185 = CARTESIAN_POINT ( 'NONE',  ( -16.50000000000000355, 0.0000000000000000000, 16.75000000000000000 ) ) ;
#186 = DIRECTION ( 'NONE',  ( 0.0000000000000000000, -1.000000000000000000, 3.491481338843127044E-15 ) ) ;
#187 = LINE ( 'NONE', #383, #85 ) ;
#188 = VECTOR ( 'NONE', #716, 1000.000000000000000 ) ;
#189 = VECTOR ( 'NONE', #283, 1000.000000000000000 ) ;
#190 = ADVANCED_FACE ( 'NONE', ( #618 ), #435, .F. ) ;
#191 = ORIENTED_EDGE ( 'NONE', *, *, #92, .F. ) ;
#192 = DIRECTION ( 'NONE',  ( -1.000000000000000000, 0.0000000000000000000, 0.0000000000000000000 ) ) ;
#193 = AXIS2_PLACEMENT_3D ( 'NONE', #161, #672, #908 ) ;
#194 = DIRECTION ( 'NONE',  ( -0.0000000000000000000, 0.0000000000000000000, -1.000000000000000000 ) ) ;
#195 = PRODUCT_DEFINITION_SHAPE ( 'NONE', 'NONE',  #837 ) ;
#196 = AXIS2_PLACEMENT_3D ( 'NONE', #219, #74, #227 ) ;
#197 = LINE ( 'NONE', #349, #210 ) ;
#198 = VECTOR ( 'NONE', #292, 1000.000000000000000 ) ;
#199 = CARTESIAN_POINT ( 'NONE',  ( 21.00000000000000000, 96.00000000000000000, 1.499999999999664713 ) ) ;
#200 = ORIENTED_EDGE ( 'NONE', *, *, #205, .T. ) ;
#201 = EDGE_LOOP ( 'NONE', ( #953, #535, #200, #600 ) ) ;
#202 = ORIENTED_EDGE ( 'NONE', *, *, #527, .F. ) ;
#203 = CARTESIAN_POINT ( 'NONE',  ( 16.49999999999998934, -1.501000000000015877, 11.24999999999999645 ) ) ;
#204 = EDGE_LOOP ( 'NONE', ( #41, #696, #98, #804 ) ) ;
#205 = EDGE_CURVE ( 'NONE', #235, #836, #853, .T. ) ;
#206 = DIRECTION ( 'NONE',  ( -1.000000000000000000, 0.0000000000000000000, 3.854941057726239083E-16 ) ) ;
#207 = MECHANICAL_DESIGN_GEOMETRIC_PRESENTATION_REPRESENTATION (  '', ( #539 ), #797 ) ;
#208 = DIRECTION ( 'NONE',  ( -3.854941057726239083E-16, 0.0000000000000000000, -1.000000000000000000 ) ) ;
#209 = DIRECTION ( 'NONE',  ( 0.0000000000000000000, 0.0000000000000000000, 1.000000000000000000 ) ) ;
#210 = VECTOR ( 'NONE', #576, 1000.000000000000000 ) ;
#211 = LINE ( 'NONE', #257, #39 ) ;
#212 = CARTESIAN_POINT ( 'NONE',  ( 20.99999999999999645, -1.500000000000000000, 21.00000000000000000 ) ) ;
#213 = VECTOR ( 'NONE', #799, 1000.000000000000000 ) ;
#214 = DIRECTION ( 'NONE',  ( -0.0000000000000000000, 1.000000000000000000, -0.0000000000000000000 ) ) ;
#215 = ORIENTED_EDGE ( 'NONE', *, *, #727, .T. ) ;
#216 = ORIENTED_EDGE ( 'NONE', *, *, #205, .F. ) ;
#217 = DIRECTION ( 'NONE',  ( 0.0000000000000000000, 0.0000000000000000000, 1.000000000000000000 ) ) ;
#218 = DIRECTION ( 'NONE',  ( -0.0000000000000000000, 1.000000000000000000, -0.0000000000000000000 ) ) ;
#219 = CARTESIAN_POINT ( 'NONE',  ( -16.50000000000000711, 0.0000000000000000000, 14.00000000000000533 ) ) ;
#220 = VECTOR ( 'NONE', #756, 1000.000000000000000 ) ;
#221 = SURFACE_STYLE_USAGE ( .BOTH. , #229 ) ;
#222 = EDGE_CURVE ( 'NONE', #854, #601, #73, .T. ) ;
#223 = EDGE_LOOP ( 'NONE', ( #356, #855, #610, #896 ) ) ;
#224 = EDGE_LOOP ( 'NONE', ( #289, #721, #438, #5 ) ) ;
#225 = ORIENTED_EDGE ( 'NONE', *, *, #946, .F. ) ;
#226 = VERTEX_POINT ( 'NONE', #13 ) ;
#227 = DIRECTION ( 'NONE',  ( 0.0000000000000000000, 0.0000000000000000000, 1.000000000000000000 ) ) ;
#228 = DIRECTION ( 'NONE',  ( -0.0000000000000000000, 6.982962677686266711E-15, -1.000000000000000000 ) ) ;
#229 = SURFACE_SIDE_STYLE ('',( #307 ) ) ;
#230 = EDGE_CURVE ( 'NONE', #743, #226, #274, .T. ) ;
#231 = DIRECTION ( 'NONE',  ( 1.000000000000000000, 0.0000000000000000000, -0.0000000000000000000 ) ) ;
#232 = FACE_BOUND ( 'NONE', #591, .T. ) ;
#233 = VECTOR ( 'NONE', #469, 1000.000000000000000 ) ;
#234 = VECTOR ( 'NONE', #122, 1000.000000000000000 ) ;
#235 = VERTEX_POINT ( 'NONE', #319 ) ;
#236 = ORIENTED_EDGE ( 'NONE', *, *, #530, .T. ) ;
#237 =( LENGTH_UNIT ( ) NAMED_UNIT ( * ) SI_UNIT ( .MILLI., .METRE. ) );
#238 = AXIS2_PLACEMENT_3D ( 'NONE', #521, #509, #876 ) ;
#239 = CARTESIAN_POINT ( 'NONE',  ( -16.50000000000000711, -1.501000000000015877, 11.25000000000000533 ) ) ;
#240 = VECTOR ( 'NONE', #897, 1000.000000000000000 ) ;
#241 = ORIENTED_EDGE ( 'NONE', *, *, #847, .T. ) ;
#242 = EDGE_LOOP ( 'NONE', ( #406, #692, #411, #643 ) ) ;
#243 = ORIENTED_EDGE ( 'NONE', *, *, #92, .T. ) ;
#244 = CARTESIAN_POINT ( 'NONE',  ( 7.499999999999992895, -1.500000000000000000, 16.74999999999999289 ) ) ;
#245 = ORIENTED_EDGE ( 'NONE', *, *, #710, .F. ) ;
#246 = AXIS2_PLACEMENT_3D ( 'NONE', #653, #952, #81 ) ;
#247 = DIRECTION ( 'NONE',  ( 1.000000000000000000, 0.0000000000000000000, 0.0000000000000000000 ) ) ;
#248 = DIRECTION ( 'NONE',  ( 1.000000000000000000, 0.0000000000000000000, 0.0000000000000000000 ) ) ;
#249 =( GEOMETRIC_REPRESENTATION_CONTEXT ( 3 ) GLOBAL_UNCERTAINTY_ASSIGNED_CONTEXT ( ( #636 ) ) GLOBAL_UNIT_ASSIGNED_CONTEXT ( ( #237, #899, #669 ) ) REPRESENTATION_CONTEXT ( 'NONE', 'WORKASPACE' ) );
#250 = CARTESIAN_POINT ( 'NONE',  ( 25.00000000000000000, 100.0000000000000000, -3.491130995403324278E-13 ) ) ;
#251 = VECTOR ( 'NONE', #218, 1000.000000000000000 ) ;
#252 = LINE ( 'NONE', #126, #321 ) ;
#253 = VECTOR ( 'NONE', #295, 1000.000000000000000 ) ;
#254 = ORIENTED_EDGE ( 'NONE', *, *, #542, .F. ) ;
#255 = CARTESIAN_POINT ( 'NONE',  ( -25.00000000000000000, 1.499999999999984235, 2.999999999999994671 ) ) ;
#256 = AXIS2_PLACEMENT_3D ( 'NONE', #464, #769, #327 ) ;
#257 = CARTESIAN_POINT ( 'NONE',  ( 16.49999999999999289, -1.500000000000000000, 16.74999999999999289 ) ) ;
#258 = EDGE_CURVE ( 'NONE', #120, #854, #369, .T. ) ;
#259 = DIRECTION ( 'NONE',  ( 0.0000000000000000000, 0.0000000000000000000, 1.000000000000000000 ) ) ;
#260 = FACE_OUTER_BOUND ( 'NONE', #439, .T. ) ;
#261 = VECTOR ( 'NONE', #956, 1000.000000000000000 ) ;
#262 = ORIENTED_EDGE ( 'NONE', *, *, #460, .T. ) ;
#263 = DIRECTION ( 'NONE',  ( -0.0000000000000000000, -3.491481338843133355E-15, -1.000000000000000000 ) ) ;
#264 = ORIENTED_EDGE ( 'NONE', *, *, #154, .T. ) ;
#265 = VERTEX_POINT ( 'NONE', #182 ) ;
#266 = VERTEX_POINT ( 'NONE', #377 ) ;
#267 = EDGE_CURVE ( 'NONE', #836, #26, #925, .T. ) ;
#268 = CARTESIAN_POINT ( 'NONE',  ( 25.00000000000000000, 1.499999999999978906, 1.499999999999994893 ) ) ;
#269 = DIRECTION ( 'NONE',  ( -0.0000000000000000000, -1.000000000000000000, -0.0000000000000000000 ) ) ;
#270 = EDGE_CURVE ( 'NONE', #778, #707, #730, .T. ) ;
#271 = LINE ( 'NONE', #808, #251 ) ;
#272 = DIRECTION ( 'NONE',  ( 1.000000000000000000, -0.0000000000000000000, -0.0000000000000000000 ) ) ;
#273 = DIRECTION ( 'NONE',  ( 0.0000000000000000000, 3.491481338843133355E-15, 1.000000000000000000 ) ) ;
#274 = CIRCLE ( 'NONE', #306, 4.000000000000000000 ) ;
#275 = VERTEX_POINT ( 'NONE', #244 ) ;
#276 = DIRECTION ( 'NONE',  ( 0.0000000000000000000, 0.0000000000000000000, 1.000000000000000000 ) ) ;
#277 = VERTEX_POINT ( 'NONE', #317 ) ;
#278 = EDGE_CURVE ( 'NONE', #668, #846, #298, .T. ) ;
#279 = ADVANCED_FACE ( 'NONE', ( #162 ), #109, .F. ) ;
#280 = DIRECTION ( 'NONE',  ( -0.0000000000000000000, -0.0000000000000000000, 1.000000000000000000 ) ) ;
#281 = DIRECTION ( 'NONE',  ( 0.0000000000000000000, 0.0000000000000000000, 1.000000000000000000 ) ) ;
#282 = CARTESIAN_POINT ( 'NONE',  ( -7.500000000000007105, 0.0000000000000000000, 11.25000000000000178 ) ) ;
#283 = DIRECTION ( 'NONE',  ( -0.0000000000000000000, 1.000000000000000000, -0.0000000000000000000 ) ) ;
#284 = ADVANCED_FACE ( 'NONE', ( #773, #128 ), #102, .T. ) ;
#285 = LINE ( 'NONE', #817, #851 ) ;
#286 = LINE ( 'NONE', #792, #652 ) ;
#287 = CIRCLE ( 'NONE', #50, 4.000000000000003553 ) ;
#288 = CARTESIAN_POINT ( 'NONE',  ( -7.500000000000007105, -1.500000000000000000, 14.00000000000000178 ) ) ;
#289 = ORIENTED_EDGE ( 'NONE', *, *, #270, .F. ) ;
#290 = ORIENTED_EDGE ( 'NONE', *, *, #328, .F. ) ;
#291 = ORIENTED_EDGE ( 'NONE', *, *, #872, .F. ) ;
#292 = DIRECTION ( 'NONE',  ( -0.0000000000000000000, -0.0000000000000000000, -1.000000000000000000 ) ) ;
#293 = CARTESIAN_POINT ( 'NONE',  ( 7.499999999999992006, 0.0000000000000000000, 11.25000000000000000 ) ) ;
#294 = VECTOR ( 'NONE', #942, 1000.000000000000000 ) ;
#295 = DIRECTION ( 'NONE',  ( -0.0000000000000000000, 1.000000000000000000, -0.0000000000000000000 ) ) ;
#296 = DIRECTION ( 'NONE',  ( 0.0000000000000000000, 1.000000000000000000, -0.0000000000000000000 ) ) ;
#297 = EDGE_CURVE ( 'NONE', #384, #52, #891, .T. ) ;
#298 = LINE ( 'NONE', #911, #233 ) ;
#299 = VERTEX_POINT ( 'NONE', #33 ) ;
#300 = DIRECTION ( 'NONE',  ( 0.0000000000000000000, -3.469446951953614189E-15, -1.000000000000000000 ) ) ;
#301 = ORIENTED_EDGE ( 'NONE', *, *, #297, .F. ) ;
#302 = DIRECTION ( 'NONE',  ( 0.0000000000000000000, 0.0000000000000000000, -1.000000000000000000 ) ) ;
#303 = APPLICATION_CONTEXT ( 'automotive_design' ) ;
#304 = VERTEX_POINT ( 'NONE', #11 ) ;
#305 = CARTESIAN_POINT ( 'NONE',  ( 0.0000000000000000000, 0.0000000000000000000, 0.0000000000000000000 ) ) ;
#306 = AXIS2_PLACEMENT_3D ( 'NONE', #36, #100, #176 ) ;
#307 = SURFACE_STYLE_FILL_AREA ( #733 ) ;
#308 = FACE_OUTER_BOUND ( 'NONE', #732, .T. ) ;
#309 = CIRCLE ( 'NONE', #825, 6.249999999999998224 ) ;
#310 = PLANE ( 'NONE',  #193 ) ;
#311 = EDGE_CURVE ( 'NONE', #345, #694, #555, .T. ) ;
#312 = EDGE_LOOP ( 'NONE', ( #709, #776, #370, #941 ) ) ;
#313 = ORIENTED_EDGE ( 'NONE', *, *, #710, .T. ) ;
#314 = DIRECTION ( 'NONE',  ( -1.000000000000000000, 0.0000000000000000000, 3.854941057726238097E-16 ) ) ;
#315 = CARTESIAN_POINT ( 'NONE',  ( 0.0000000000000000000, 0.0000000000000000000, 0.0000000000000000000 ) ) ;
#316 = EDGE_CURVE ( 'NONE', #734, #425, #596, .T. ) ;
#317 = CARTESIAN_POINT ( 'NONE',  ( -6.250000000000000000, 85.00000000000000000, -2.967759925206732777E-13 ) ) ;
#318 = AXIS2_PLACEMENT_3D ( 'NONE', #64, #347, #860 ) ;
#319 = CARTESIAN_POINT ( 'NONE',  ( 25.00000000000000000, -1.500000000000000000, 21.00000000000000000 ) ) ;
#320 = FACE_OUTER_BOUND ( 'NONE', #680, .T. ) ;
#321 = VECTOR ( 'NONE', #791, 1000.000000000000000 ) ;
#322 = CARTESIAN_POINT ( 'NONE',  ( -6.249999999999996447, 55.00000000000001421, -1.920314736363724229E-13 ) ) ;
#323 = ORIENTED_EDGE ( 'NONE', *, *, #413, .T. ) ;
#324 = VERTEX_POINT ( 'NONE', #86 ) ;
#325 = EDGE_CURVE ( 'NONE', #110, #778, #522, .T. ) ;
#326 = CARTESIAN_POINT ( 'NONE',  ( 21.00000000000000000, 100.0000000000000000, -3.491130995403324278E-13 ) ) ;
#327 = DIRECTION ( 'NONE',  ( 0.0000000000000000000, -1.000000000000000000, 3.469446951953611033E-15 ) ) ;
#328 = EDGE_CURVE ( 'NONE', #359, #18, #691, .T. ) ;
#329 = VECTOR ( 'NONE', #228, 1000.000000000000000 ) ;
#330 = FACE_OUTER_BOUND ( 'NONE', #204, .T. ) ;
#331 = DIRECTION ( 'NONE',  ( 0.0000000000000000000, -1.000000000000000000, 0.0000000000000000000 ) ) ;
#332 = ORIENTED_EDGE ( 'NONE', *, *, #222, .T. ) ;
#333 = ORIENTED_EDGE ( 'NONE', *, *, #83, .F. ) ;
#334 = EDGE_LOOP ( 'NONE', ( #849, #786, #682, #629 ) ) ;
#335 = ORIENTED_EDGE ( 'NONE', *, *, #316, .T. ) ;
#336 = CARTESIAN_POINT ( 'NONE',  ( -25.00000000000000000, 1.499999999999978906, 1.499999999999994893 ) ) ;
#337 = AXIS2_PLACEMENT_3D ( 'NONE', #70, #654, #145 ) ;
#338 = CARTESIAN_POINT ( 'NONE',  ( 7.499999999999992895, -1.501000000000015877, 13.99999999999999822 ) ) ;
#339 = AXIS2_PLACEMENT_3D ( 'NONE', #823, #667, #608 ) ;
#340 = DIRECTION ( 'NONE',  ( 0.0000000000000000000, 0.0000000000000000000, 1.000000000000000000 ) ) ;
#341 = CARTESIAN_POINT ( 'NONE',  ( -25.00000000000000000, 1.500000000000005107, -5.212433323013999648E-15 ) ) ;
#342 = ADVANCED_FACE ( 'NONE', ( #330 ), #556, .F. ) ;
#343 = LINE ( 'NONE', #685, #626 ) ;
#344 = VECTOR ( 'NONE', #563, 1000.000000000000000 ) ;
#345 = VERTEX_POINT ( 'NONE', #113 ) ;
#346 = EDGE_LOOP ( 'NONE', ( #485, #108, #313, #524 ) ) ;
#347 = DIRECTION ( 'NONE',  ( -0.0000000000000000000, -3.491481338843133355E-15, -1.000000000000000000 ) ) ;
#348 = EDGE_CURVE ( 'NONE', #299, #304, #151, .T. ) ;
#349 = CARTESIAN_POINT ( 'NONE',  ( 16.49999999999998934, 0.0000000000000000000, 11.24999999999999645 ) ) ;
#350 = ADVANCED_FACE ( 'NONE', ( #421 ), #936, .F. ) ;
#351 = VECTOR ( 'NONE', #466, 1000.000000000000000 ) ;
#352 = DIRECTION ( 'NONE',  ( 1.000000000000000000, -0.0000000000000000000, -0.0000000000000000000 ) ) ;
#353 = LINE ( 'NONE', #726, #16 ) ;
#354 = CARTESIAN_POINT ( 'NONE',  ( -20.99999999999998224, 96.00000000000000000, -3.351471741849598943E-13 ) ) ;
#355 = ORIENTED_EDGE ( 'NONE', *, *, #790, .T. ) ;
#356 = ORIENTED_EDGE ( 'NONE', *, *, #530, .F. ) ;
#357 = DIRECTION ( 'NONE',  ( 1.387778780781445429E-16, 1.000000000000000000, -3.491481338843133355E-15 ) ) ;
#358 = EDGE_LOOP ( 'NONE', ( #167, #43, #814, #938 ) ) ;
#359 = VERTEX_POINT ( 'NONE', #564 ) ;
#360 = CARTESIAN_POINT ( 'NONE',  ( 3.469446951953614189E-15, 55.00000000000001421, -1.920314747467328706E-13 ) ) ;
#361 = CARTESIAN_POINT ( 'NONE',  ( 7.499999999999992895, 0.0000000000000000000, 16.74999999999999289 ) ) ;
#362 = EDGE_CURVE ( 'NONE', #707, #906, #913, .T. ) ;
#363 = CARTESIAN_POINT ( 'NONE',  ( -16.50000000000000711, -1.500000000000000000, 11.25000000000000533 ) ) ;
#364 = DIRECTION ( 'NONE',  ( 0.0000000000000000000, 0.0000000000000000000, 1.000000000000000000 ) ) ;
#365 = CARTESIAN_POINT ( 'NONE',  ( 7.499999999999992006, -1.501000000000015877, 11.25000000000000000 ) ) ;
#366 =( LENGTH_UNIT ( ) NAMED_UNIT ( * ) SI_UNIT ( .MILLI., .METRE. ) );
#367 = EDGE_CURVE ( 'NONE', #834, #275, #211, .T. ) ;
#368 = CYLINDRICAL_SURFACE ( 'NONE', #47, 1.500000000000000000 ) ;
#369 = CIRCLE ( 'NONE', #112, 2.749999999999997335 ) ;
#370 = ORIENTED_EDGE ( 'NONE', *, *, #675, .F. ) ;
#371 = CARTESIAN_POINT ( 'NONE',  ( -16.50000000000000711, 0.0000000000000000000, 11.25000000000000533 ) ) ;
#372 = ORIENTED_EDGE ( 'NONE', *, *, #230, .F. ) ;
#373 = CARTESIAN_POINT ( 'NONE',  ( -6.249999999999996447, 55.00000000000001421, -0.001000000000349245827 ) ) ;
#374 = PLANE ( 'NONE',  #238 ) ;
#375 = EDGE_CURVE ( 'NONE', #265, #569, #751, .T. ) ;
#376 = CARTESIAN_POINT ( 'NONE',  ( -7.500000000000006217, -1.501000000000015877, 16.75000000000000000 ) ) ;
#377 = CARTESIAN_POINT ( 'NONE',  ( 7.499999999999992006, -1.500000000000000000, 11.25000000000000000 ) ) ;
#378 = CARTESIAN_POINT ( 'NONE',  ( -25.00000000000000000, -1.500000000000000000, 21.00000000000000000 ) ) ;
#379 = VECTOR ( 'NONE', #612, 1000.000000000000000 ) ;
#380 = EDGE_CURVE ( 'NONE', #359, #777, #903, .T. ) ;
#381 = FACE_OUTER_BOUND ( 'NONE', #472, .T. ) ;
#382 = ORIENTED_EDGE ( 'NONE', *, *, #780, .F. ) ;
#383 = CARTESIAN_POINT ( 'NONE',  ( 25.00000000000000000, 1.499999999999994671, 1.499999999999994893 ) ) ;
#384 = VERTEX_POINT ( 'NONE', #336 ) ;
#385 = EDGE_LOOP ( 'NONE', ( #132, #333, #705, #403 ) ) ;
#386 = AXIS2_PLACEMENT_3D ( 'NONE', #153, #745, #156 ) ;
#387 = SURFACE_STYLE_FILL_AREA ( #829 ) ;
#388 = DIRECTION ( 'NONE',  ( 0.0000000000000000000, -3.491481338843133355E-15, -1.000000000000000000 ) ) ;
#389 = CYLINDRICAL_SURFACE ( 'NONE', #517, 3.000000000000000000 ) ;
#390 = CIRCLE ( 'NONE', #770, 1.500000000000000444 ) ;
#391 = AXIS2_PLACEMENT_3D ( 'NONE', #820, #451, #248 ) ;
#392 = ORIENTED_EDGE ( 'NONE', *, *, #129, .F. ) ;
#393 = ORIENTED_EDGE ( 'NONE', *, *, #362, .T. ) ;
#394 = EDGE_LOOP ( 'NONE', ( #801, #393, #789, #916 ) ) ;
#395 = VERTEX_POINT ( 'NONE', #268 ) ;
#396 = DIRECTION ( 'NONE',  ( 0.0000000000000000000, -1.000000000000000000, 3.491481338843133355E-15 ) ) ;
#397 = EDGE_CURVE ( 'NONE', #18, #836, #798, .T. ) ;
#398 = DIRECTION ( 'NONE',  ( 1.453621114662267789E-30, 6.982962677686266711E-15, -1.000000000000000000 ) ) ;
#399 = AXIS2_PLACEMENT_3D ( 'NONE', #540, #173, #247 ) ;
#400 = VECTOR ( 'NONE', #687, 1000.000000000000000 ) ;
#401 = LINE ( 'NONE', #935, #188 ) ;
#402 = FACE_OUTER_BOUND ( 'NONE', #29, .T. ) ;
#403 = ORIENTED_EDGE ( 'NONE', *, *, #267, .T. ) ;
#404 = DIRECTION ( 'NONE',  ( -0.0000000000000000000, -1.000000000000000000, -0.0000000000000000000 ) ) ;
#405 = VERTEX_POINT ( 'NONE', #711 ) ;
#406 = ORIENTED_EDGE ( 'NONE', *, *, #101, .F. ) ;
#407 = CARTESIAN_POINT ( 'NONE',  ( 7.499999999999992895, -1.500000000000000000, 13.99999999999999822 ) ) ;
#408 = FACE_OUTER_BOUND ( 'NONE', #788, .T. ) ;
#409 = CARTESIAN_POINT ( 'NONE',  ( 25.00000000000000000, -5.237222008264700033E-15, 0.0000000000000000000 ) ) ;
#410 = ORIENTED_EDGE ( 'NONE', *, *, #487, .T. ) ;
#411 = ORIENTED_EDGE ( 'NONE', *, *, #258, .F. ) ;
#412 = ORIENTED_EDGE ( 'NONE', *, *, #14, .F. ) ;
#413 = EDGE_CURVE ( 'NONE', #275, #266, #137, .T. ) ;
#414 = ORIENTED_EDGE ( 'NONE', *, *, #794, .F. ) ;
#415 = DIRECTION ( 'NONE',  ( 0.0000000000000000000, 0.0000000000000000000, -1.000000000000000000 ) ) ;
#416 = DIRECTION ( 'NONE',  ( -8.758115402030106693E-47, 3.491481338843133355E-15, 1.000000000000000000 ) ) ;
#417 = DIRECTION ( 'NONE',  ( -1.000000000000000000, 0.0000000000000000000, -0.0000000000000000000 ) ) ;
#418 = EDGE_CURVE ( 'NONE', #384, #359, #577, .T. ) ;
#419 = DIRECTION ( 'NONE',  ( -0.0000000000000000000, -1.000000000000000000, -0.0000000000000000000 ) ) ;
#420 = CYLINDRICAL_SURFACE ( 'NONE', #432, 2.749999999999999112 ) ;
#421 = FACE_OUTER_BOUND ( 'NONE', #334, .T. ) ;
#422 = VERTEX_POINT ( 'NONE', #848 ) ;
#423 = ORIENTED_EDGE ( 'NONE', *, *, #38, .T. ) ;
#424 = ORIENTED_EDGE ( 'NONE', *, *, #818, .F. ) ;
#425 = VERTEX_POINT ( 'NONE', #781 ) ;
#426 = EDGE_CURVE ( 'NONE', #766, #110, #491, .T. ) ;
#427 = CARTESIAN_POINT ( 'NONE',  ( 25.00000000000000000, -1.500000000000000000, 0.0000000000000000000 ) ) ;
#428 = CARTESIAN_POINT ( 'NONE',  ( -7.500000000000007105, -1.500000000000000000, 11.25000000000000178 ) ) ;
#429 = DIRECTION ( 'NONE',  ( -1.000000000000000000, 0.0000000000000000000, -0.0000000000000000000 ) ) ;
#430 = COLOUR_RGB ( '',0.6470588235294117974, 0.6196078431372549211, 0.5882352941176470784 ) ;
#431 = ADVANCED_FACE ( 'NONE', ( #381 ), #718, .F. ) ;
#432 = AXIS2_PLACEMENT_3D ( 'NONE', #806, #735, #433 ) ;
#433 = DIRECTION ( 'NONE',  ( 0.0000000000000000000, 0.0000000000000000000, 1.000000000000000000 ) ) ;
#434 = FACE_OUTER_BOUND ( 'NONE', #223, .T. ) ;
#435 = PLANE ( 'NONE',  #391 ) ;
#436 = PLANE ( 'NONE',  #684 ) ;
#437 = ORIENTED_EDGE ( 'NONE', *, *, #780, .T. ) ;
#438 = ORIENTED_EDGE ( 'NONE', *, *, #23, .F. ) ;
#439 = EDGE_LOOP ( 'NONE', ( #744, #560, #20, #179 ) ) ;
#440 = ORIENTED_EDGE ( 'NONE', *, *, #887, .F. ) ;
#441 = CARTESIAN_POINT ( 'NONE',  ( 25.00000000000000000, -1.500000000000000000, 21.00000000000000000 ) ) ;
#442 = CARTESIAN_POINT ( 'NONE',  ( -6.250000000000000000, 85.00000000000000000, -0.001000000000349245827 ) ) ;
#443 = AXIS2_PLACEMENT_3D ( 'NONE', #520, #739, #585 ) ;
#444 = CARTESIAN_POINT ( 'NONE',  ( 21.00000000000000000, 100.0000000000000000, 1.499999999999650946 ) ) ;
#445 = CARTESIAN_POINT ( 'NONE',  ( -25.00000000000000000, -1.500000000000000000, 0.0000000000000000000 ) ) ;
#446 = EDGE_CURVE ( 'NONE', #707, #26, #874, .T. ) ;
#447 = CYLINDRICAL_SURFACE ( 'NONE', #602, 4.000000000000000000 ) ;
#448 = AXIS2_PLACEMENT_3D ( 'NONE', #796, #488, #62 ) ;
#449 = DIRECTION ( 'NONE',  ( -3.854941057726238097E-16, 0.0000000000000000000, -1.000000000000000000 ) ) ;
#450 = CIRCLE ( 'NONE', #605, 4.000000000000000000 ) ;
#451 = DIRECTION ( 'NONE',  ( -0.0000000000000000000, 0.0000000000000000000, 1.000000000000000000 ) ) ;
#452 = LINE ( 'NONE', #929, #234 ) ;
#453 = SURFACE_STYLE_USAGE ( .BOTH. , #604 ) ;
#454 = CLOSED_SHELL ( 'NONE', ( #114, #948, #771, #475, #957, #637, #342, #700, #729, #882, #869, #713, #284, #725, #779, #279, #499, #587, #554, #850, #841, #68, #350, #54, #431, #478, #646, #703, #45, #190 ) ) ;
#455 = AXIS2_PLACEMENT_3D ( 'NONE', #407, #404, #479 ) ;
#456 = AXIS2_PLACEMENT_3D ( 'NONE', #255, #44, #194 ) ;
#457 = CYLINDRICAL_SURFACE ( 'NONE', #958, 2.749999999999999112 ) ;
#458 = EDGE_LOOP ( 'NONE', ( #619, #894, #683, #392 ) ) ;
#459 = PLANE ( 'NONE',  #767 ) ;
#460 = EDGE_CURVE ( 'NONE', #828, #743, #95, .T. ) ;
#461 = CARTESIAN_POINT ( 'NONE',  ( 0.0000000000000000000, 0.0000000000000000000, 1.500000000000000000 ) ) ;
#462 = PRODUCT_RELATED_PRODUCT_CATEGORY ( 'part', '', ( #928 ) ) ;
#463 = PLANE ( 'NONE',  #698 ) ;
#464 = CARTESIAN_POINT ( 'NONE',  ( -20.99999999999998224, 96.00000000000000000, 1.499999999999664713 ) ) ;
#465 = VECTOR ( 'NONE', #736, 1000.000000000000000 ) ;
#466 = DIRECTION ( 'NONE',  ( -0.0000000000000000000, -3.491481338843133355E-15, -1.000000000000000000 ) ) ;
#467 = FACE_OUTER_BOUND ( 'NONE', #224, .T. ) ;
#468 = VECTOR ( 'NONE', #331, 1000.000000000000000 ) ;
#469 = DIRECTION ( 'NONE',  ( -0.0000000000000000000, -0.0000000000000000000, 1.000000000000000000 ) ) ;
#470 = AXIS2_PLACEMENT_3D ( 'NONE', #578, #635, #859 ) ;
#471 = ORIENTED_EDGE ( 'NONE', *, *, #811, .T. ) ;
#472 = EDGE_LOOP ( 'NONE', ( #323, #655, #51, #930 ) ) ;
#473 = ORIENTED_EDGE ( 'NONE', *, *, #697, .F. ) ;
#474 = ORIENTED_EDGE ( 'NONE', *, *, #154, .F. ) ;
#475 = ADVANCED_FACE ( 'NONE', ( #740 ), #552, .T. ) ;
#476 = EDGE_CURVE ( 'NONE', #49, #693, #450, .T. ) ;
#477 = CARTESIAN_POINT ( 'NONE',  ( 16.49999999999998934, -1.501000000000015877, 11.24999999999999645 ) ) ;
#478 = ADVANCED_FACE ( 'NONE', ( #679 ), #870, .F. ) ;
#479 = DIRECTION ( 'NONE',  ( 0.0000000000000000000, 0.0000000000000000000, 1.000000000000000000 ) ) ;
#480 = VECTOR ( 'NONE', #77, 1000.000000000000000 ) ;
#481 = LINE ( 'NONE', #65, #617 ) ;
#482 = ORIENTED_EDGE ( 'NONE', *, *, #946, .T. ) ;
#483 = DIRECTION ( 'NONE',  ( 1.000000000000000000, 0.0000000000000000000, -0.0000000000000000000 ) ) ;
#484 = ORIENTED_EDGE ( 'NONE', *, *, #580, .F. ) ;
#485 = ORIENTED_EDGE ( 'NONE', *, *, #129, .T. ) ;
#486 = CARTESIAN_POINT ( 'NONE',  ( 25.00000000000000000, -1.582935171828836474E-14, 2.999999999999994671 ) ) ;
#487 = EDGE_CURVE ( 'NONE', #422, #787, #252, .T. ) ;
#488 = DIRECTION ( 'NONE',  ( -1.000000000000000000, -1.156482317317871725E-16, 0.0000000000000000000 ) ) ;
#489 = CYLINDRICAL_SURFACE ( 'NONE', #399, 6.250000000000000000 ) ;
#490 = DIRECTION ( 'NONE',  ( 1.000000000000000000, 0.0000000000000000000, 0.0000000000000000000 ) ) ;
#491 = CIRCLE ( 'NONE', #512, 4.000000000000003553 ) ;
#492 = ORIENTED_EDGE ( 'NONE', *, *, #921, .F. ) ;
#493 = EDGE_CURVE ( 'NONE', #52, #766, #481, .T. ) ;
#494 = ORIENTED_EDGE ( 'NONE', *, *, #487, .F. ) ;
#495 = ORIENTED_EDGE ( 'NONE', *, *, #83, .T. ) ;
#496 = AXIS2_PLACEMENT_3D ( 'NONE', #22, #830, #901 ) ;
#497 = CARTESIAN_POINT ( 'NONE',  ( -7.500000000000007105, -1.501000000000015877, 14.00000000000000178 ) ) ;
#498 = CARTESIAN_POINT ( 'NONE',  ( -24.99999999999998579, 96.00000000000000000, -3.351471741849598943E-13 ) ) ;
#499 = ADVANCED_FACE ( 'NONE', ( #704 ), #924, .F. ) ;
#500 = EDGE_CURVE ( 'NONE', #345, #895, #401, .T. ) ;
#501 = DIRECTION ( 'NONE',  ( -0.0000000000000000000, -1.000000000000000000, -0.0000000000000000000 ) ) ;
#502 = DIRECTION ( 'NONE',  ( 0.0000000000000000000, 0.0000000000000000000, 1.000000000000000000 ) ) ;
#503 = CARTESIAN_POINT ( 'NONE',  ( 25.00000000000000000, -1.500000000000000000, 2.999999999999994671 ) ) ;
#504 = FACE_OUTER_BOUND ( 'NONE', #534, .T. ) ;
#505 = LINE ( 'NONE', #581, #88 ) ;
#506 = CARTESIAN_POINT ( 'NONE',  ( -21.00000000000000000, 0.0000000000000000000, 25.00000000000000000 ) ) ;
#507 = LINE ( 'NONE', #516, #189 ) ;
#508 = ORIENTED_EDGE ( 'NONE', *, *, #615, .T. ) ;
#509 = DIRECTION ( 'NONE',  ( 1.000000000000000000, -1.387778780781445429E-16, 4.845403715540893213E-31 ) ) ;
#510 = ORIENTED_EDGE ( 'NONE', *, *, #723, .F. ) ;
#511 = ORIENTED_EDGE ( 'NONE', *, *, #23, .T. ) ;
#512 = AXIS2_PLACEMENT_3D ( 'NONE', #627, #263, #186 ) ;
#513 = DIRECTION ( 'NONE',  ( 0.0000000000000000000, 8.673617379884032514E-16, 1.000000000000000000 ) ) ;
#514 = DIRECTION ( 'NONE',  ( 0.0000000000000000000, 1.000000000000000000, 0.0000000000000000000 ) ) ;
#515 = CARTESIAN_POINT ( 'NONE',  ( -7.500000000000006217, -1.500000000000000000, 16.75000000000000000 ) ) ;
#516 = CARTESIAN_POINT ( 'NONE',  ( -16.50000000000000711, -1.501000000000015877, 11.25000000000000533 ) ) ;
#517 = AXIS2_PLACEMENT_3D ( 'NONE', #598, #168, #300 ) ;
#518 = CARTESIAN_POINT ( 'NONE',  ( -24.99999999999998579, 100.0000000000000000, 1.499999999999650946 ) ) ;
#519 = FACE_OUTER_BOUND ( 'NONE', #10, .T. ) ;
#520 = CARTESIAN_POINT ( 'NONE',  ( -25.00000000000000000, -1.500000000000000000, 0.0000000000000000000 ) ) ;
#521 = CARTESIAN_POINT ( 'NONE',  ( -24.99999999999998579, 100.0000000000000000, -3.491130995403324278E-13 ) ) ;
#522 = LINE ( 'NONE', #688, #533 ) ;
#523 = ORIENTED_EDGE ( 'NONE', *, *, #311, .T. ) ;
#524 = ORIENTED_EDGE ( 'NONE', *, *, #38, .F. ) ;
#525 = DIRECTION ( 'NONE',  ( -8.758115402030106693E-47, 3.491481338843133355E-15, 1.000000000000000000 ) ) ;
#526 = EDGE_LOOP ( 'NONE', ( #166, #410, #264, #742 ) ) ;
#527 = EDGE_CURVE ( 'NONE', #631, #49, #852, .T. ) ;
#528 = CARTESIAN_POINT ( 'NONE',  ( 7.499999999999992895, 0.0000000000000000000, 13.99999999999999822 ) ) ;
#529 = APPLICATION_CONTEXT ( 'automotive_design' ) ;
#530 = EDGE_CURVE ( 'NONE', #777, #836, #505, .T. ) ;
#531 = LINE ( 'NONE', #660, #329 ) ;
#532 = PLANE ( 'NONE',  #955 ) ;
#533 = VECTOR ( 'NONE', #483, 1000.000000000000000 ) ;
#534 = EDGE_LOOP ( 'NONE', ( #216, #567, #802, #607, #225, #236 ) ) ;
#535 = ORIENTED_EDGE ( 'NONE', *, *, #183, .T. ) ;
#536 = ORIENTED_EDGE ( 'NONE', *, *, #594, .T. ) ;
#537 = CARTESIAN_POINT ( 'NONE',  ( -24.99999999999998579, 96.00000000000000000, 1.499999999999664713 ) ) ;
#538 = DIRECTION ( 'NONE',  ( 1.000000000000000000, 0.0000000000000000000, 0.0000000000000000000 ) ) ;
#539 = STYLED_ITEM ( 'NONE', ( #93 ), #944 ) ;
#540 = CARTESIAN_POINT ( 'NONE',  ( 0.0000000000000000000, 85.00000000000000000, -0.001000000000349245827 ) ) ;
#541 = DIRECTION ( 'NONE',  ( 1.000000000000000000, 1.156482317317871725E-16, 0.0000000000000000000 ) ) ;
#542 = EDGE_CURVE ( 'NONE', #324, #425, #353, .T. ) ;
#543 = FACE_OUTER_BOUND ( 'NONE', #119, .T. ) ;
#544 = VECTOR ( 'NONE', #548, 1000.000000000000000 ) ;
#545 = CARTESIAN_POINT ( 'NONE',  ( -16.50000000000000355, -1.500000000000000000, 16.75000000000000000 ) ) ;
#546 = ORIENTED_EDGE ( 'NONE', *, *, #446, .T. ) ;
#547 = EDGE_LOOP ( 'NONE', ( #191, #424, #245, #754 ) ) ;
#548 = DIRECTION ( 'NONE',  ( -0.0000000000000000000, -0.0000000000000000000, 1.000000000000000000 ) ) ;
#549 = CARTESIAN_POINT ( 'NONE',  ( 25.00000000000000000, 0.0000000000000000000, 0.0000000000000000000 ) ) ;
#550 = DIRECTION ( 'NONE',  ( -0.0000000000000000000, -3.491481338843133355E-15, -1.000000000000000000 ) ) ;
#551 = AXIS2_PLACEMENT_3D ( 'NONE', #135, #269, #651 ) ;
#552 = PLANE ( 'NONE',  #662 ) ;
#553 = FACE_BOUND ( 'NONE', #242, .T. ) ;
#554 = ADVANCED_FACE ( 'NONE', ( #308 ), #824, .T. ) ;
#555 = CIRCLE ( 'NONE', #256, 4.000000000000003553 ) ;
#556 = PLANE ( 'NONE',  #456 ) ;
#557 = PRESENTATION_LAYER_ASSIGNMENT (  '', '', ( #783 ) ) ;
#558 = CIRCLE ( 'NONE', #670, 2.749999999999999112 ) ;
#559 = VERTEX_POINT ( 'NONE', #282 ) ;
#560 = ORIENTED_EDGE ( 'NONE', *, *, #921, .T. ) ;
#561 = EDGE_LOOP ( 'NONE', ( #510, #511, #141, #523, #582, #907 ) ) ;
#562 = ORIENTED_EDGE ( 'NONE', *, *, #476, .F. ) ;
#563 = DIRECTION ( 'NONE',  ( 1.000000000000000000, -0.0000000000000000000, -0.0000000000000000000 ) ) ;
#564 = CARTESIAN_POINT ( 'NONE',  ( -25.00000000000000000, 0.0000000000000000000, 2.999999999999994671 ) ) ;
#565 = PLANE ( 'NONE',  #470 ) ;
#566 = VECTOR ( 'NONE', #827, 1000.000000000000000 ) ;
#567 = ORIENTED_EDGE ( 'NONE', *, *, #580, .T. ) ;
#568 = CARTESIAN_POINT ( 'NONE',  ( -21.00000000000000000, -1.500000000000000000, 25.00000000000000000 ) ) ;
#569 = VERTEX_POINT ( 'NONE', #55 ) ;
#570 = EDGE_LOOP ( 'NONE', ( #632, #335, #755, #494 ) ) ;
#571 = CARTESIAN_POINT ( 'NONE',  ( 25.00000000000000000, -1.500000000000000000, 0.0000000000000000000 ) ) ;
#572 = DIRECTION ( 'NONE',  ( 1.000000000000000000, 0.0000000000000000000, 0.0000000000000000000 ) ) ;
#573 = EDGE_CURVE ( 'NONE', #52, #26, #286, .T. ) ;
#574 = CARTESIAN_POINT ( 'NONE',  ( -21.00000000000000000, -1.500000000000000000, 21.00000000000000000 ) ) ;
#575 = LINE ( 'NONE', #32, #379 ) ;
#576 = DIRECTION ( 'NONE',  ( -1.000000000000000000, 0.0000000000000000000, 3.854941057726239083E-16 ) ) ;
#577 = CIRCLE ( 'NONE', #741, 1.500000000000000444 ) ;
#578 = CARTESIAN_POINT ( 'NONE',  ( 16.49999999999999289, -1.501000000000015877, 16.74999999999999289 ) ) ;
#579 = LINE ( 'NONE', #363, #752 ) ;
#580 = EDGE_CURVE ( 'NONE', #235, #828, #116, .T. ) ;
#581 = CARTESIAN_POINT ( 'NONE',  ( -25.00000000000000000, -1.500000000000015765, 2.999999999999995115 ) ) ;
#582 = ORIENTED_EDGE ( 'NONE', *, *, #656, .F. ) ;
#583 = DIRECTION ( 'NONE',  ( 0.0000000000000000000, -1.000000000000000000, 3.491481338843127044E-15 ) ) ;
#584 = CARTESIAN_POINT ( 'NONE',  ( -21.00000000000000000, 0.0000000000000000000, 21.00000000000000000 ) ) ;
#585 = DIRECTION ( 'NONE',  ( 0.0000000000000000000, 0.0000000000000000000, 1.000000000000000000 ) ) ;
#586 = SHAPE_DEFINITION_REPRESENTATION ( #195, #91 ) ;
#587 = ADVANCED_FACE ( 'NONE', ( #260 ), #858, .F. ) ;
#588 = LINE ( 'NONE', #498, #934 ) ;
#589 = VECTOR ( 'NONE', #686, 1000.000000000000000 ) ;
#590 = CARTESIAN_POINT ( 'NONE',  ( 6.250000000000000000, 85.00000000000000000, 1.500000000000000000 ) ) ;
#591 = EDGE_LOOP ( 'NONE', ( #440, #414, #412, #121 ) ) ;
#592 = PLANE ( 'NONE',  #386 ) ;
#593 = ORIENTED_EDGE ( 'NONE', *, *, #493, .F. ) ;
#594 = EDGE_CURVE ( 'NONE', #275, #854, #784, .T. ) ;
#595 = LINE ( 'NONE', #815, #72 ) ;
#596 = LINE ( 'NONE', #373, #544 ) ;
#597 = ORIENTED_EDGE ( 'NONE', *, *, #134, .F. ) ;
#598 = CARTESIAN_POINT ( 'NONE',  ( -25.00000000000000000, 1.499999999999984235, 2.999999999999994671 ) ) ;
#599 = ORIENTED_EDGE ( 'NONE', *, *, #794, .T. ) ;
#600 = ORIENTED_EDGE ( 'NONE', *, *, #397, .F. ) ;
#601 = VERTEX_POINT ( 'NONE', #947 ) ;
#602 = AXIS2_PLACEMENT_3D ( 'NONE', #574, #296, #9 ) ;
#603 = CARTESIAN_POINT ( 'NONE',  ( 0.0000000000000000000, -5.237222008264700033E-15, 0.0000000000000000000 ) ) ;
#604 = SURFACE_SIDE_STYLE ('',( #387 ) ) ;
#605 = AXIS2_PLACEMENT_3D ( 'NONE', #647, #501, #340 ) ;
#606 = VECTOR ( 'NONE', #357, 1000.000000000000000 ) ;
#607 = ORIENTED_EDGE ( 'NONE', *, *, #476, .T. ) ;
#608 = DIRECTION ( 'NONE',  ( 0.0000000000000000000, 0.0000000000000000000, 1.000000000000000000 ) ) ;
#609 = VERTEX_POINT ( 'NONE', #130 ) ;
#610 = ORIENTED_EDGE ( 'NONE', *, *, #573, .T. ) ;
#611 = AXIS2_PLACEMENT_3D ( 'NONE', #338, #857, #931 ) ;
#612 = DIRECTION ( 'NONE',  ( 0.0000000000000000000, 1.000000000000000000, -0.0000000000000000000 ) ) ;
#613 = DIRECTION ( 'NONE',  ( 0.0000000000000000000, -1.000000000000000000, 3.491481338843127044E-15 ) ) ;
#614 = DIRECTION ( 'NONE',  ( 0.0000000000000000000, 3.491481338843133355E-15, 1.000000000000000000 ) ) ;
#615 = EDGE_CURVE ( 'NONE', #694, #766, #588, .T. ) ;
#616 = LINE ( 'NONE', #832, #220 ) ;
#617 = VECTOR ( 'NONE', #943, 1000.000000000000000 ) ;
#618 = FACE_OUTER_BOUND ( 'NONE', #152, .T. ) ;
#619 = ORIENTED_EDGE ( 'NONE', *, *, #115, .F. ) ;
#620 = DIRECTION ( 'NONE',  ( 0.0000000000000000000, 3.491481338843133355E-15, 1.000000000000000000 ) ) ;
#621 = ORIENTED_EDGE ( 'NONE', *, *, #748, .T. ) ;
#622 = EDGE_CURVE ( 'NONE', #569, #120, #197, .T. ) ;
#623 = DIRECTION ( 'NONE',  ( 1.000000000000000000, 0.0000000000000000000, 0.0000000000000000000 ) ) ;
#624 = CARTESIAN_POINT ( 'NONE',  ( 25.00000000000000000, -1.582935171828836474E-14, 2.999999999999994671 ) ) ;
#625 = LINE ( 'NONE', #445, #465 ) ;
#626 = VECTOR ( 'NONE', #21, 1000.000000000000000 ) ;
#627 = CARTESIAN_POINT ( 'NONE',  ( -20.99999999999998224, 96.00000000000000000, -3.351822085289408021E-13 ) ) ;
#628 = AXIS2_PLACEMENT_3D ( 'NONE', #305, #747, #538 ) ;
#629 = ORIENTED_EDGE ( 'NONE', *, *, #375, .F. ) ;
#630 = ORIENTED_EDGE ( 'NONE', *, *, #115, .T. ) ;
#631 = VERTEX_POINT ( 'NONE', #506 ) ;
#632 = ORIENTED_EDGE ( 'NONE', *, *, #146, .T. ) ;
#633 = VERTEX_POINT ( 'NONE', #515 ) ;
#634 = DIRECTION ( 'NONE',  ( -0.0000000000000000000, 1.000000000000000000, -0.0000000000000000000 ) ) ;
#635 = DIRECTION ( 'NONE',  ( 0.0000000000000000000, 0.0000000000000000000, 1.000000000000000000 ) ) ;
#636 = UNCERTAINTY_MEASURE_WITH_UNIT (LENGTH_MEASURE( 1.000000000000000082E-05 ), #237, 'distance_accuracy_value', 'NONE');
#637 = ADVANCED_FACE ( 'NONE', ( #843 ), #665, .T. ) ;
#638 = CARTESIAN_POINT ( 'NONE',  ( 7.499999999999992895, -1.501000000000015877, 16.74999999999999289 ) ) ;
#639 = CARTESIAN_POINT ( 'NONE',  ( 21.00000000000000000, 96.00000000000000000, -3.351822085289408021E-13 ) ) ;
#640 = LINE ( 'NONE', #549, #400 ) ;
#641 = VECTOR ( 'NONE', #111, 1000.000000000000000 ) ;
#642 = DIRECTION ( 'NONE',  ( 0.0000000000000000000, 1.000000000000000000, 0.0000000000000000000 ) ) ;
#643 = ORIENTED_EDGE ( 'NONE', *, *, #622, .F. ) ;
#644 = AXIS2_PLACEMENT_3D ( 'NONE', #203, #208, #206 ) ;
#645 = ORIENTED_EDGE ( 'NONE', *, *, #418, .T. ) ;
#646 = ADVANCED_FACE ( 'NONE', ( #320 ), #420, .F. ) ;
#647 = CARTESIAN_POINT ( 'NONE',  ( -21.00000000000000000, -1.500000000000000000, 21.00000000000000000 ) ) ;
#648 = CARTESIAN_POINT ( 'NONE',  ( -7.500000000000007105, -1.501000000000015877, 11.25000000000000178 ) ) ;
#649 = AXIS2_PLACEMENT_3D ( 'NONE', #868, #280, #490 ) ;
#650 = CARTESIAN_POINT ( 'NONE',  ( -21.00000000000000000, -1.500000000000000000, 25.00000000000000000 ) ) ;
#651 = DIRECTION ( 'NONE',  ( 0.0000000000000000000, 0.0000000000000000000, 1.000000000000000000 ) ) ;
#652 = VECTOR ( 'NONE', #272, 1000.000000000000000 ) ;
#653 = CARTESIAN_POINT ( 'NONE',  ( 16.49999999999998934, 0.0000000000000000000, 13.99999999999999467 ) ) ;
#654 = DIRECTION ( 'NONE',  ( -1.000000000000000000, 0.0000000000000000000, 0.0000000000000000000 ) ) ;
#655 = ORIENTED_EDGE ( 'NONE', *, *, #134, .T. ) ;
#656 = EDGE_CURVE ( 'NONE', #384, #694, #888, .T. ) ;
#657 = VERTEX_POINT ( 'NONE', #428 ) ;
#658 = DIRECTION ( 'NONE',  ( -0.0000000000000000000, 0.0000000000000000000, -1.000000000000000000 ) ) ;
#659 = CARTESIAN_POINT ( 'NONE',  ( 25.00000000000000000, 1.499999999999984235, 2.999999999999994671 ) ) ;
#660 = CARTESIAN_POINT ( 'NONE',  ( 25.00000000000000000, 1.500000000000005107, 1.047444401652947106E-14 ) ) ;
#661 = EDGE_CURVE ( 'NONE', #395, #384, #187, .T. ) ;
#662 = AXIS2_PLACEMENT_3D ( 'NONE', #571, #940, #415 ) ;
#663 = DIRECTION ( 'NONE',  ( 1.000000000000000000, 0.0000000000000000000, -3.854941057726238097E-16 ) ) ;
#664 = CYLINDRICAL_SURFACE ( 'NONE', #749, 4.000000000000003553 ) ;
#665 = PLANE ( 'NONE',  #104 ) ;
#666 = VECTOR ( 'NONE', #712, 1000.000000000000000 ) ;
#667 = DIRECTION ( 'NONE',  ( 1.000000000000000000, -0.0000000000000000000, -0.0000000000000000000 ) ) ;
#668 = VERTEX_POINT ( 'NONE', #94 ) ;
#669 =( NAMED_UNIT ( * ) SI_UNIT ( $, .STERADIAN. ) SOLID_ANGLE_UNIT ( ) );
#670 = AXIS2_PLACEMENT_3D ( 'NONE', #288, #809, #502 ) ;
#671 = ORIENTED_EDGE ( 'NONE', *, *, #818, .T. ) ;
#672 = DIRECTION ( 'NONE',  ( 0.0000000000000000000, 0.0000000000000000000, 1.000000000000000000 ) ) ;
#673 = DIRECTION ( 'NONE',  ( -1.000000000000000000, 0.0000000000000000000, 0.0000000000000000000 ) ) ;
#674 =( NAMED_UNIT ( * ) PLANE_ANGLE_UNIT ( ) SI_UNIT ( $, .RADIAN. ) );
#675 = EDGE_CURVE ( 'NONE', #266, #265, #949, .T. ) ;
#676 = DIRECTION ( 'NONE',  ( 0.0000000000000000000, 3.491481338843133355E-15, 1.000000000000000000 ) ) ;
#677 = CIRCLE ( 'NONE', #337, 3.000000000000000000 ) ;
#678 = APPLICATION_PROTOCOL_DEFINITION ( 'draft international standard', 'automotive_design', 1998, #303 ) ;
#679 = FACE_OUTER_BOUND ( 'NONE', #133, .T. ) ;
#680 = EDGE_LOOP ( 'NONE', ( #355, #140, #243, #473 ) ) ;
#681 = PLANE ( 'NONE',  #142 ) ;
#682 = ORIENTED_EDGE ( 'NONE', *, *, #101, .T. ) ;
#683 = ORIENTED_EDGE ( 'NONE', *, *, #811, .F. ) ;
#684 = AXIS2_PLACEMENT_3D ( 'NONE', #148, #429, #12 ) ;
#685 = CARTESIAN_POINT ( 'NONE',  ( 25.00000000000000000, 0.0000000000000000000, 1.500000000000000000 ) ) ;
#686 = DIRECTION ( 'NONE',  ( 1.000000000000000000, -0.0000000000000000000, -0.0000000000000000000 ) ) ;
#687 = DIRECTION ( 'NONE',  ( -0.0000000000000000000, -0.0000000000000000000, -1.000000000000000000 ) ) ;
#688 = CARTESIAN_POINT ( 'NONE',  ( 0.0000000000000000000, 100.0000000000000000, -3.491481338843133355E-13 ) ) ;
#689 = AXIS2_PLACEMENT_3D ( 'NONE', #461, #614, #30 ) ;
#690 = CIRCLE ( 'NONE', #318, 6.250000000000005329 ) ;
#691 = LINE ( 'NONE', #919, #344 ) ;
#692 = ORIENTED_EDGE ( 'NONE', *, *, #222, .F. ) ;
#693 = VERTEX_POINT ( 'NONE', #378 ) ;
#694 = VERTEX_POINT ( 'NONE', #537 ) ;
#695 = CARTESIAN_POINT ( 'NONE',  ( 21.00000000000000000, 100.0000000000000000, -3.491481338843133355E-13 ) ) ;
#696 = ORIENTED_EDGE ( 'NONE', *, *, #297, .T. ) ;
#697 = EDGE_CURVE ( 'NONE', #405, #299, #616, .T. ) ;
#698 = AXIS2_PLACEMENT_3D ( 'NONE', #250, #396, #388 ) ;
#699 = UNCERTAINTY_MEASURE_WITH_UNIT (LENGTH_MEASURE( 1.000000000000000082E-05 ), #157, 'distance_accuracy_value', 'NONE');
#700 = ADVANCED_FACE ( 'NONE', ( #434 ), #389, .T. ) ;
#701 = MECHANICAL_DESIGN_GEOMETRIC_PRESENTATION_REPRESENTATION (  '', ( #783 ), #819 ) ;
#702 = VECTOR ( 'NONE', #87, 1000.000000000000000 ) ;
#703 = ADVANCED_FACE ( 'NONE', ( #772 ), #681, .F. ) ;
#704 = FACE_OUTER_BOUND ( 'NONE', #570, .T. ) ;
#705 = ORIENTED_EDGE ( 'NONE', *, *, #397, .T. ) ;
#706 = ORIENTED_EDGE ( 'NONE', *, *, #311, .F. ) ;
#707 = VERTEX_POINT ( 'NONE', #159 ) ;
#708 = ORIENTED_EDGE ( 'NONE', *, *, #615, .F. ) ;
#709 = ORIENTED_EDGE ( 'NONE', *, *, #367, .F. ) ;
#710 = EDGE_CURVE ( 'NONE', #304, #559, #738, .T. ) ;
#711 = CARTESIAN_POINT ( 'NONE',  ( -16.50000000000000355, -1.500000000000000000, 16.75000000000000000 ) ) ;
#712 = DIRECTION ( 'NONE',  ( 0.0000000000000000000, -1.000000000000000000, 3.491481338843133355E-15 ) ) ;
#713 = ADVANCED_FACE ( 'NONE', ( #232, #174 ), #532, .F. ) ;
#714 = EDGE_CURVE ( 'NONE', #633, #304, #750, .T. ) ;
#715 = CIRCLE ( 'NONE', #551, 2.749999999999999112 ) ;
#716 = DIRECTION ( 'NONE',  ( 1.000000000000000000, -0.0000000000000000000, -0.0000000000000000000 ) ) ;
#717 = AXIS2_PLACEMENT_3D ( 'NONE', #863, #419, #276 ) ;
#718 = CYLINDRICAL_SURFACE ( 'NONE', #611, 2.749999999999995559 ) ;
#719 = ORIENTED_EDGE ( 'NONE', *, *, #328, .T. ) ;
#720 = ORIENTED_EDGE ( 'NONE', *, *, #856, .F. ) ;
#721 = ORIENTED_EDGE ( 'NONE', *, *, #763, .F. ) ;
#722 = CARTESIAN_POINT ( 'NONE',  ( 20.99999999999999645, -1.500000000000000000, 25.00000000000000000 ) ) ;
#723 = EDGE_CURVE ( 'NONE', #906, #395, #343, .T. ) ;
#724 = CARTESIAN_POINT ( 'NONE',  ( 25.00000000000000000, 1.499999999999973799, -5.204170427930421283E-15 ) ) ;
#725 = ADVANCED_FACE ( 'NONE', ( #1 ), #463, .F. ) ;
#726 = CARTESIAN_POINT ( 'NONE',  ( -6.250000000000000000, 85.00000000000000000, 1.500000000000000000 ) ) ;
#727 = EDGE_CURVE ( 'NONE', #693, #164, #575, .T. ) ;
#728 = VECTOR ( 'NONE', #57, 1000.000000000000000 ) ;
#729 = ADVANCED_FACE ( 'NONE', ( #543 ), #368, .F. ) ;
#730 = CIRCLE ( 'NONE', #158, 4.000000000000003553 ) ;
#731 = EDGE_LOOP ( 'NONE', ( #437, #816, #621, #290, #28, #19 ) ) ;
#732 = EDGE_LOOP ( 'NONE', ( #484, #178, #372, #79 ) ) ;
#733 = FILL_AREA_STYLE ('',( #893 ) ) ;
#734 = VERTEX_POINT ( 'NONE', #322 ) ;
#735 = DIRECTION ( 'NONE',  ( -0.0000000000000000000, 1.000000000000000000, -0.0000000000000000000 ) ) ;
#736 = DIRECTION ( 'NONE',  ( 0.0000000000000000000, 0.0000000000000000000, 1.000000000000000000 ) ) ;
#737 = AXIS2_PLACEMENT_3D ( 'NONE', #584, #514, #364 ) ;
#738 = CIRCLE ( 'NONE', #496, 2.749999999999999112 ) ;
#739 = DIRECTION ( 'NONE',  ( -1.000000000000000000, 0.0000000000000000000, 0.0000000000000000000 ) ) ;
#740 = FACE_OUTER_BOUND ( 'NONE', #201, .T. ) ;
#741 = AXIS2_PLACEMENT_3D ( 'NONE', #124, #192, #259 ) ;
#742 = ORIENTED_EDGE ( 'NONE', *, *, #278, .F. ) ;
#743 = VERTEX_POINT ( 'NONE', #27 ) ;
#744 = ORIENTED_EDGE ( 'NONE', *, *, #14, .T. ) ;
#745 = DIRECTION ( 'NONE',  ( 0.0000000000000000000, 1.000000000000000000, 0.0000000000000000000 ) ) ;
#746 = DIRECTION ( 'NONE',  ( -1.156482317317871725E-16, 1.000000000000000000, 0.0000000000000000000 ) ) ;
#747 = DIRECTION ( 'NONE',  ( 0.0000000000000000000, 0.0000000000000000000, 1.000000000000000000 ) ) ;
#748 = EDGE_CURVE ( 'NONE', #226, #18, #640, .T. ) ;
#749 = AXIS2_PLACEMENT_3D ( 'NONE', #639, #273, #583 ) ;
#750 = LINE ( 'NONE', #376, #240 ) ;
#751 = LINE ( 'NONE', #477, #58 ) ;
#752 = VECTOR ( 'NONE', #663, 1000.000000000000000 ) ;
#753 =( NAMED_UNIT ( * ) SI_UNIT ( $, .STERADIAN. ) SOLID_ANGLE_UNIT ( ) );
#754 = ORIENTED_EDGE ( 'NONE', *, *, #348, .F. ) ;
#755 = ORIENTED_EDGE ( 'NONE', *, *, #171, .T. ) ;
#756 = DIRECTION ( 'NONE',  ( -0.0000000000000000000, 1.000000000000000000, -0.0000000000000000000 ) ) ;
#757 = AXIS2_PLACEMENT_3D ( 'NONE', #354, #416, #937 ) ;
#758 = CARTESIAN_POINT ( 'NONE',  ( -25.00000000000000000, 1.499999999999984235, 2.999999999999994671 ) ) ;
#759 = CARTESIAN_POINT ( 'NONE',  ( 16.49999999999999289, 0.0000000000000000000, 16.74999999999999289 ) ) ;
#760 = VECTOR ( 'NONE', #842, 1000.000000000000000 ) ;
#761 = FACE_OUTER_BOUND ( 'NONE', #764, .T. ) ;
#762 = EDGE_LOOP ( 'NONE', ( #241, #262, #382, #42 ) ) ;
#763 = EDGE_CURVE ( 'NONE', #895, #778, #912, .T. ) ;
#764 = EDGE_LOOP ( 'NONE', ( #482, #215, #143, #107 ) ) ;
#765 = EDGE_LOOP ( 'NONE', ( #892, #474, #76, #254 ) ) ;
#766 = VERTEX_POINT ( 'NONE', #845 ) ;
#767 = AXIS2_PLACEMENT_3D ( 'NONE', #315, #184, #35 ) ;
#768 = CARTESIAN_POINT ( 'NONE',  ( 6.250000000000000000, 85.00000000000000000, -0.001000000000349245827 ) ) ;
#769 = DIRECTION ( 'NONE',  ( 0.0000000000000000000, 3.491481338843133355E-15, 1.000000000000000000 ) ) ;
#770 = AXIS2_PLACEMENT_3D ( 'NONE', #659, #885, #513 ) ;
#771 = ADVANCED_FACE ( 'NONE', ( #150, #553, #37 ), #459, .T. ) ;
#772 = FACE_OUTER_BOUND ( 'NONE', #155, .T. ) ;
#773 = FACE_BOUND ( 'NONE', #765, .T. ) ;
#774 = DIRECTION ( 'NONE',  ( 0.0000000000000000000, -1.000000000000000000, 0.0000000000000000000 ) ) ;
#775 = CIRCLE ( 'NONE', #99, 2.749999999999999112 ) ;
#776 = ORIENTED_EDGE ( 'NONE', *, *, #78, .F. ) ;
#777 = VERTEX_POINT ( 'NONE', #106 ) ;
#778 = VERTEX_POINT ( 'NONE', #695 ) ;
#779 = ADVANCED_FACE ( 'NONE', ( #519 ), #489, .F. ) ;
#780 = EDGE_CURVE ( 'NONE', #631, #743, #795, .T. ) ;
#781 = CARTESIAN_POINT ( 'NONE',  ( -6.249999999999996447, 55.00000000000001421, 1.500000000000000000 ) ) ;
#782 = CARTESIAN_POINT ( 'NONE',  ( -25.00000000000000000, -1.582935171828836474E-14, 2.999999999999994671 ) ) ;
#783 = STYLED_ITEM ( 'NONE', ( #71 ), #91 ) ;
#784 = LINE ( 'NONE', #638, #822 ) ;
#785 = ORIENTED_EDGE ( 'NONE', *, *, #727, .F. ) ;
#786 = ORIENTED_EDGE ( 'NONE', *, *, #856, .T. ) ;
#787 = VERTEX_POINT ( 'NONE', #180 ) ;
#788 = EDGE_LOOP ( 'NONE', ( #131, #508, #593, #301 ) ) ;
#789 = ORIENTED_EDGE ( 'NONE', *, *, #723, .T. ) ;
#790 = EDGE_CURVE ( 'NONE', #405, #609, #715, .T. ) ;
#791 = DIRECTION ( 'NONE',  ( -0.0000000000000000000, -0.0000000000000000000, 1.000000000000000000 ) ) ;
#792 = CARTESIAN_POINT ( 'NONE',  ( 25.00000000000000000, 1.500000000000005107, -5.204170427930421283E-15 ) ) ;
#793 = DIRECTION ( 'NONE',  ( 0.0000000000000000000, -1.000000000000000000, 3.469446951953611033E-15 ) ) ;
#794 = EDGE_CURVE ( 'NONE', #277, #668, #690, .T. ) ;
#795 = LINE ( 'NONE', #839, #760 ) ;
#796 = CARTESIAN_POINT ( 'NONE',  ( -6.250000000000000000, 85.00000000000000000, -0.001000000000349245827 ) ) ;
#797 =( GEOMETRIC_REPRESENTATION_CONTEXT ( 3 ) GLOBAL_UNCERTAINTY_ASSIGNED_CONTEXT ( ( #56 ) ) GLOBAL_UNIT_ASSIGNED_CONTEXT ( ( #366, #821, #3 ) ) REPRESENTATION_CONTEXT ( 'NONE', 'WORKASPACE' ) );
#798 = LINE ( 'NONE', #486, #468 ) ;
#799 = DIRECTION ( 'NONE',  ( -0.0000000000000000000, 1.000000000000000000, -0.0000000000000000000 ) ) ;
#800 = CARTESIAN_POINT ( 'NONE',  ( -16.50000000000000711, 0.0000000000000000000, 11.25000000000000533 ) ) ;
#801 = ORIENTED_EDGE ( 'NONE', *, *, #446, .F. ) ;
#802 = ORIENTED_EDGE ( 'NONE', *, *, #847, .F. ) ;
#803 = DIRECTION ( 'NONE',  ( 1.156482317317871725E-16, -1.000000000000000000, 0.0000000000000000000 ) ) ;
#804 = ORIENTED_EDGE ( 'NONE', *, *, #380, .F. ) ;
#805 = EDGE_LOOP ( 'NONE', ( #914, #536, #332, #720 ) ) ;
#806 = CARTESIAN_POINT ( 'NONE',  ( -16.50000000000000711, -1.501000000000015877, 14.00000000000000533 ) ) ;
#807 = CARTESIAN_POINT ( 'NONE',  ( -25.00000000000000000, 0.0000000000000000000, 21.00000000000000000 ) ) ;
#808 = CARTESIAN_POINT ( 'NONE',  ( 16.49999999999999289, -1.501000000000015877, 16.74999999999999289 ) ) ;
#809 = DIRECTION ( 'NONE',  ( -0.0000000000000000000, -1.000000000000000000, -0.0000000000000000000 ) ) ;
#810 = CARTESIAN_POINT ( 'NONE',  ( 6.250000000000000000, 85.00000000000000000, -2.967759925206732777E-13 ) ) ;
#811 = EDGE_CURVE ( 'NONE', #633, #405, #48, .T. ) ;
#812 = LINE ( 'NONE', #67, #24 ) ;
#813 = ORIENTED_EDGE ( 'NONE', *, *, #831, .T. ) ;
#814 = ORIENTED_EDGE ( 'NONE', *, *, #325, .F. ) ;
#815 = CARTESIAN_POINT ( 'NONE',  ( -20.99999999999998224, 100.0000000000000000, -3.491130995403324278E-13 ) ) ;
#816 = ORIENTED_EDGE ( 'NONE', *, *, #230, .T. ) ;
#817 = CARTESIAN_POINT ( 'NONE',  ( -25.00000000000000000, 0.0000000000000000000, 0.0000000000000000000 ) ) ;
#818 = EDGE_CURVE ( 'NONE', #559, #866, #127, .T. ) ;
#819 =( GEOMETRIC_REPRESENTATION_CONTEXT ( 3 ) GLOBAL_UNCERTAINTY_ASSIGNED_CONTEXT ( ( #699 ) ) GLOBAL_UNIT_ASSIGNED_CONTEXT ( ( #157, #674, #753 ) ) REPRESENTATION_CONTEXT ( 'NONE', 'WORKASPACE' ) );
#820 = CARTESIAN_POINT ( 'NONE',  ( -16.50000000000000355, -1.501000000000015877, 16.75000000000000000 ) ) ;
#821 =( NAMED_UNIT ( * ) PLANE_ANGLE_UNIT ( ) SI_UNIT ( $, .RADIAN. ) );
#822 = VECTOR ( 'NONE', #950, 1000.000000000000000 ) ;
#823 = CARTESIAN_POINT ( 'NONE',  ( 25.00000000000000000, 1.499999999999984235, 2.999999999999994671 ) ) ;
#824 = CYLINDRICAL_SURFACE ( 'NONE', #883, 4.000000000000000000 ) ;
#825 = AXIS2_PLACEMENT_3D ( 'NONE', #360, #875, #880 ) ;
#826 = VECTOR ( 'NONE', #2, 1000.000000000000000 ) ;
#827 = DIRECTION ( 'NONE',  ( 1.000000000000000000, 0.0000000000000000000, -3.854941057726239083E-16 ) ) ;
#828 = VERTEX_POINT ( 'NONE', #722 ) ;
#829 = FILL_AREA_STYLE ('',( #165 ) ) ;
#830 = DIRECTION ( 'NONE',  ( 0.0000000000000000000, 1.000000000000000000, 0.0000000000000000000 ) ) ;
#831 = EDGE_CURVE ( 'NONE', #846, #324, #160, .T. ) ;
#832 = CARTESIAN_POINT ( 'NONE',  ( -16.50000000000000355, -1.501000000000015877, 16.75000000000000000 ) ) ;
#833 = FACE_OUTER_BOUND ( 'NONE', #90, .T. ) ;
#834 = VERTEX_POINT ( 'NONE', #59 ) ;
#835 = PRODUCT_CONTEXT ( 'NONE', #529, 'mechanical' ) ;
#836 = VERTEX_POINT ( 'NONE', #503 ) ;
#837 = PRODUCT_DEFINITION ( 'UNKNOWN', '', #933, #889 ) ;
#838 = DIRECTION ( 'NONE',  ( 0.0000000000000000000, 1.000000000000000000, -0.0000000000000000000 ) ) ;
#839 = CARTESIAN_POINT ( 'NONE',  ( -25.00000000000000000, 0.0000000000000000000, 25.00000000000000000 ) ) ;
#840 = AXIS2_PLACEMENT_3D ( 'NONE', #932, #922, #926 ) ;
#841 = ADVANCED_FACE ( 'NONE', ( #467 ), #664, .T. ) ;
#842 = DIRECTION ( 'NONE',  ( 1.000000000000000000, 0.0000000000000000000, 0.0000000000000000000 ) ) ;
#843 = FACE_OUTER_BOUND ( 'NONE', #385, .T. ) ;
#844 = VECTOR ( 'NONE', #398, 1000.000000000000000 ) ;
#845 = CARTESIAN_POINT ( 'NONE',  ( -24.99999999999998579, 96.00000000000000000, -3.351822085289408021E-13 ) ) ;
#846 = VERTEX_POINT ( 'NONE', #865 ) ;
#847 = EDGE_CURVE ( 'NONE', #49, #828, #812, .T. ) ;
#848 = CARTESIAN_POINT ( 'NONE',  ( 6.250000000000003553, 55.00000000000001421, -1.702097884430939581E-13 ) ) ;
#849 = ORIENTED_EDGE ( 'NONE', *, *, #78, .T. ) ;
#850 = ADVANCED_FACE ( 'NONE', ( #833 ), #447, .T. ) ;
#851 = VECTOR ( 'NONE', #144, 1000.000000000000000 ) ;
#852 = LINE ( 'NONE', #650, #728 ) ;
#853 = LINE ( 'NONE', #427, #198 ) ;
#854 = VERTEX_POINT ( 'NONE', #361 ) ;
#855 = ORIENTED_EDGE ( 'NONE', *, *, #909, .F. ) ;
#856 = EDGE_CURVE ( 'NONE', #834, #601, #271, .T. ) ;
#857 = DIRECTION ( 'NONE',  ( -0.0000000000000000000, 1.000000000000000000, -0.0000000000000000000 ) ) ;
#858 = PLANE ( 'NONE',  #448 ) ;
#859 = DIRECTION ( 'NONE',  ( 1.000000000000000000, 0.0000000000000000000, -0.0000000000000000000 ) ) ;
#860 = DIRECTION ( 'NONE',  ( 0.0000000000000000000, -1.000000000000000000, 3.491481338843130200E-15 ) ) ;
#861 = VECTOR ( 'NONE', #417, 1000.000000000000000 ) ;
#862 = VECTOR ( 'NONE', #774, 1000.000000000000000 ) ;
#863 = CARTESIAN_POINT ( 'NONE',  ( 20.99999999999999645, -1.500000000000000000, 21.00000000000000000 ) ) ;
#864 = ORIENTED_EDGE ( 'NONE', *, *, #661, .T. ) ;
#865 = CARTESIAN_POINT ( 'NONE',  ( 6.250000000000000000, 85.00000000000000000, 1.500000000000000000 ) ) ;
#866 = VERTEX_POINT ( 'NONE', #371 ) ;
#867 = EDGE_CURVE ( 'NONE', #164, #631, #15, .T. ) ;
#868 = CARTESIAN_POINT ( 'NONE',  ( 3.469446951953614189E-15, 55.00000000000001421, -0.001000000000349245827 ) ) ;
#869 = ADVANCED_FACE ( 'NONE', ( #408 ), #374, .F. ) ;
#870 = PLANE ( 'NONE',  #644 ) ;
#871 = CARTESIAN_POINT ( 'NONE',  ( 16.49999999999998934, -1.500000000000000000, 13.99999999999999467 ) ) ;
#872 = EDGE_CURVE ( 'NONE', #110, #345, #595, .T. ) ;
#873 = LINE ( 'NONE', #810, #702 ) ;
#874 = LINE ( 'NONE', #409, #666 ) ;
#875 = DIRECTION ( 'NONE',  ( -0.0000000000000000000, -3.491481338843133355E-15, -1.000000000000000000 ) ) ;
#876 = DIRECTION ( 'NONE',  ( 1.387778780781445429E-16, 1.000000000000000000, 0.0000000000000000000 ) ) ;
#877 = FACE_OUTER_BOUND ( 'NONE', #346, .T. ) ;
#878 = ORIENTED_EDGE ( 'NONE', *, *, #375, .T. ) ;
#879 = ORIENTED_EDGE ( 'NONE', *, *, #573, .F. ) ;
#880 = DIRECTION ( 'NONE',  ( 0.0000000000000000000, -1.000000000000000000, 3.491481338843134539E-15 ) ) ;
#881 = DIRECTION ( 'NONE',  ( 1.000000000000000000, 0.0000000000000000000, 0.0000000000000000000 ) ) ;
#882 = ADVANCED_FACE ( 'NONE', ( #103 ), #436, .F. ) ;
#883 = AXIS2_PLACEMENT_3D ( 'NONE', #212, #642, #217 ) ;
#884 = DIRECTION ( 'NONE',  ( 1.000000000000000000, 0.0000000000000000000, 0.0000000000000000000 ) ) ;
#885 = DIRECTION ( 'NONE',  ( 1.000000000000000000, -0.0000000000000000000, -0.0000000000000000000 ) ) ;
#886 = FACE_BOUND ( 'NONE', #458, .T. ) ;
#887 = EDGE_CURVE ( 'NONE', #668, #422, #873, .T. ) ;
#888 = LINE ( 'NONE', #518, #606 ) ;
#889 = PRODUCT_DEFINITION_CONTEXT ( 'detailed design', #303, 'design' ) ;
#890 = CARTESIAN_POINT ( 'NONE',  ( 25.00000000000000000, 1.499999999999984235, 2.999999999999994671 ) ) ;
#891 = LINE ( 'NONE', #898, #844 ) ;
#892 = ORIENTED_EDGE ( 'NONE', *, *, #831, .F. ) ;
#893 = FILL_AREA_STYLE_COLOUR ( '', #902 ) ;
#894 = ORIENTED_EDGE ( 'NONE', *, *, #790, .F. ) ;
#895 = VERTEX_POINT ( 'NONE', #444 ) ;
#896 = ORIENTED_EDGE ( 'NONE', *, *, #267, .F. ) ;
#897 = DIRECTION ( 'NONE',  ( -0.0000000000000000000, 1.000000000000000000, -0.0000000000000000000 ) ) ;
#898 = CARTESIAN_POINT ( 'NONE',  ( -25.00000000000000000, 1.499999999999994671, 1.499999999999994893 ) ) ;
#899 =( NAMED_UNIT ( * ) PLANE_ANGLE_UNIT ( ) SI_UNIT ( $, .RADIAN. ) );
#900 = EDGE_CURVE ( 'NONE', #359, #164, #285, .T. ) ;
#901 = DIRECTION ( 'NONE',  ( 0.0000000000000000000, 0.0000000000000000000, 1.000000000000000000 ) ) ;
#902 = COLOUR_RGB ( '',0.6470588235294117974, 0.6196078431372549211, 0.5882352941176470784 ) ;
#903 = LINE ( 'NONE', #782, #862 ) ;
#904 = LINE ( 'NONE', #648, #213 ) ;
#905 = DIRECTION ( 'NONE',  ( 0.0000000000000000000, -1.000000000000000000, 3.491481338843133355E-15 ) ) ;
#906 = VERTEX_POINT ( 'NONE', #82 ) ;
#907 = ORIENTED_EDGE ( 'NONE', *, *, #661, .F. ) ;
#908 = DIRECTION ( 'NONE',  ( 1.000000000000000000, 0.0000000000000000000, -0.0000000000000000000 ) ) ;
#909 = EDGE_CURVE ( 'NONE', #52, #777, #677, .T. ) ;
#910 = DIRECTION ( 'NONE',  ( -1.000000000000000000, 0.0000000000000000000, 0.0000000000000000000 ) ) ;
#911 = CARTESIAN_POINT ( 'NONE',  ( 6.250000000000000000, 85.00000000000000000, -0.001000000000349245827 ) ) ;
#912 = LINE ( 'NONE', #326, #351 ) ;
#913 = LINE ( 'NONE', #46, #175 ) ;
#914 = ORIENTED_EDGE ( 'NONE', *, *, #367, .T. ) ;
#915 = PRESENTATION_LAYER_ASSIGNMENT (  '', '', ( #539 ) ) ;
#916 = ORIENTED_EDGE ( 'NONE', *, *, #939, .T. ) ;
#917 = EDGE_LOOP ( 'NONE', ( #7, #75, #546, #879, #89, #927 ) ) ;
#918 = DIRECTION ( 'NONE',  ( 0.0000000000000000000, -3.469446951953614189E-15, -1.000000000000000000 ) ) ;
#919 = CARTESIAN_POINT ( 'NONE',  ( -25.00000000000000000, -1.582935171828836474E-14, 2.999999999999994671 ) ) ;
#920 = DIRECTION ( 'NONE',  ( -1.000000000000000000, 0.0000000000000000000, 0.0000000000000000000 ) ) ;
#921 = EDGE_CURVE ( 'NONE', #277, #324, #923, .T. ) ;
#922 = DIRECTION ( 'NONE',  ( -0.0000000000000000000, 1.000000000000000000, -0.0000000000000000000 ) ) ;
#923 = LINE ( 'NONE', #442, #480 ) ;
#924 = CYLINDRICAL_SURFACE ( 'NONE', #649, 6.250000000000000000 ) ;
#925 = CIRCLE ( 'NONE', #339, 3.000000000000000000 ) ;
#926 = DIRECTION ( 'NONE',  ( 0.0000000000000000000, 0.0000000000000000000, 1.000000000000000000 ) ) ;
#927 = ORIENTED_EDGE ( 'NONE', *, *, #426, .T. ) ;
#928 = PRODUCT ( '03_081_sheetmetall_sensor holder', '03_081_sheetmetall_sensor holder', '', ( #835 ) ) ;
#929 = CARTESIAN_POINT ( 'NONE',  ( -6.250000000000000000, 85.00000000000000000, -2.967759925206732777E-13 ) ) ;
#930 = ORIENTED_EDGE ( 'NONE', *, *, #594, .F. ) ;
#931 = DIRECTION ( 'NONE',  ( 0.0000000000000000000, 0.0000000000000000000, 1.000000000000000000 ) ) ;
#932 = CARTESIAN_POINT ( 'NONE',  ( 16.49999999999998934, -1.501000000000015877, 13.99999999999999467 ) ) ;
#933 = PRODUCT_DEFINITION_FORMATION_WITH_SPECIFIED_SOURCE ( 'ANY', '', #928, .NOT_KNOWN. ) ;
#934 = VECTOR ( 'NONE', #84, 1000.000000000000000 ) ;
#935 = CARTESIAN_POINT ( 'NONE',  ( 25.00000000000000000, 100.0000000000000000, 1.499999999999650946 ) ) ;
#936 = CYLINDRICAL_SURFACE ( 'NONE', #840, 2.749999999999999112 ) ;
#937 = DIRECTION ( 'NONE',  ( 0.0000000000000000000, -1.000000000000000000, 3.491481338843127044E-15 ) ) ;
#938 = ORIENTED_EDGE ( 'NONE', *, *, #872, .T. ) ;
#939 = EDGE_CURVE ( 'NONE', #395, #26, #531, .T. ) ;
#940 = DIRECTION ( 'NONE',  ( 1.000000000000000000, 0.0000000000000000000, 0.0000000000000000000 ) ) ;
#941 = ORIENTED_EDGE ( 'NONE', *, *, #413, .F. ) ;
#942 = DIRECTION ( 'NONE',  ( -1.000000000000000000, -0.0000000000000000000, 3.854941057726237604E-16 ) ) ;
#943 = DIRECTION ( 'NONE',  ( 1.387778780781445429E-16, 1.000000000000000000, -3.491481338843133355E-15 ) ) ;
#944 = MANIFOLD_SOLID_BREP ( 'Schnitt-Linear austragen2', #454 ) ;
#945 = CARTESIAN_POINT ( 'NONE',  ( 0.0000000000000000000, 85.00000000000000000, 1.500000000000000000 ) ) ;
#946 = EDGE_CURVE ( 'NONE', #777, #693, #625, .T. ) ;
#947 = CARTESIAN_POINT ( 'NONE',  ( 16.49999999999999289, 0.0000000000000000000, 16.74999999999999289 ) ) ;
#948 = ADVANCED_FACE ( 'NONE', ( #886, #136, #504 ), #592, .F. ) ;
#949 = LINE ( 'NONE', #170, #566 ) ;
#950 = DIRECTION ( 'NONE',  ( -0.0000000000000000000, 1.000000000000000000, -0.0000000000000000000 ) ) ;
#951 = LINE ( 'NONE', #365, #253 ) ;
#952 = DIRECTION ( 'NONE',  ( 0.0000000000000000000, 1.000000000000000000, -0.0000000000000000000 ) ) ;
#953 = ORIENTED_EDGE ( 'NONE', *, *, #748, .F. ) ;
#954 = ORIENTED_EDGE ( 'NONE', *, *, #867, .F. ) ;
#955 = AXIS2_PLACEMENT_3D ( 'NONE', #603, #676, #905 ) ;
#956 = DIRECTION ( 'NONE',  ( -1.156482317317871725E-16, 1.000000000000000000, -0.0000000000000000000 ) ) ;
#957 = ADVANCED_FACE ( 'NONE', ( #149 ), #310, .T. ) ;
#958 = AXIS2_PLACEMENT_3D ( 'NONE', #497, #214, #281 ) ;
ENDSEC;
END-ISO-10303-21;
