ISO-10303-21;
HEADER;
FILE_DESCRIPTION (( 'STEP AP214' ),
    '1' );
FILE_NAME ('03_022_sheetmetal backfill logo.STEP',
    '2020-10-07T15:42:12',
    ( '' ),
    ( '' ),
    'SwSTEP 2.0',
    'SolidWorks 2018',
    '' );
FILE_SCHEMA (( 'AUTOMOTIVE_DESIGN' ));
ENDSEC;

DATA;
#1 = VERTEX_POINT ( 'NONE', #66 ) ;
#2 = PRESENTATION_STYLE_ASSIGNMENT (( #169 ) ) ;
#3 = AXIS2_PLACEMENT_3D ( 'NONE', #290, #346, #212 ) ;
#4 = VERTEX_POINT ( 'NONE', #296 ) ;
#5 = CARTESIAN_POINT ( 'NONE',  ( 40.00000000000000000, -45.00000000000000000, -1.000000000000000000 ) ) ;
#6 = CARTESIAN_POINT ( 'NONE',  ( -44.99999999999999289, 45.00000000000000000, -1.000000000000000000 ) ) ;
#7 = STYLED_ITEM ( 'NONE', ( #2 ), #277 ) ;
#8 = CARTESIAN_POINT ( 'NONE',  ( -33.99999999999998579, 37.00000000000000000, 0.0000000000000000000 ) ) ;
#9 = VECTOR ( 'NONE', #159, 1000.000000000000000 ) ;
#10 = VERTEX_POINT ( 'NONE', #134 ) ;
#11 = APPLICATION_PROTOCOL_DEFINITION ( 'draft international standard', 'automotive_design', 1998, #173 ) ;
#12 = ORIENTED_EDGE ( 'NONE', *, *, #97, .T. ) ;
#13 = CARTESIAN_POINT ( 'NONE',  ( -36.99999999999999289, 37.00000000000000000, 0.0000000000000000000 ) ) ;
#14 = DIRECTION ( 'NONE',  ( -0.0000000000000000000, -0.0000000000000000000, -1.000000000000000000 ) ) ;
#15 = LINE ( 'NONE', #166, #322 ) ;
#16 = PRODUCT_DEFINITION_CONTEXT ( 'detailed design', #164, 'design' ) ;
#17 = DIRECTION ( 'NONE',  ( 1.000000000000000000, 0.0000000000000000000, 0.0000000000000000000 ) ) ;
#18 = CARTESIAN_POINT ( 'NONE',  ( 0.0000000000000000000, 0.0000000000000000000, 0.0000000000000000000 ) ) ;
#19 = CARTESIAN_POINT ( 'NONE',  ( -44.99999999999997868, -39.99999999999996447, 0.0000000000000000000 ) ) ;
#20 = DIRECTION ( 'NONE',  ( -1.000000000000000000, 0.0000000000000000000, 0.0000000000000000000 ) ) ;
#21 = ORIENTED_EDGE ( 'NONE', *, *, #243, .F. ) ;
#22 = ORIENTED_EDGE ( 'NONE', *, *, #67, .T. ) ;
#23 =( GEOMETRIC_REPRESENTATION_CONTEXT ( 3 ) GLOBAL_UNCERTAINTY_ASSIGNED_CONTEXT ( ( #101 ) ) GLOBAL_UNIT_ASSIGNED_CONTEXT ( ( #268, #145, #204 ) ) REPRESENTATION_CONTEXT ( 'NONE', 'WORKASPACE' ) );
#24 = ORIENTED_EDGE ( 'NONE', *, *, #123, .T. ) ;
#25 = ORIENTED_EDGE ( 'NONE', *, *, #184, .T. ) ;
#26 = EDGE_CURVE ( 'NONE', #270, #211, #361, .T. ) ;
#27 = ADVANCED_FACE ( 'NONE', ( #191 ), #60, .F. ) ;
#28 = CARTESIAN_POINT ( 'NONE',  ( -39.99999999999999289, 40.00000000000000000, 0.0000000000000000000 ) ) ;
#29 = DIRECTION ( 'NONE',  ( 0.0000000000000000000, 0.0000000000000000000, -1.000000000000000000 ) ) ;
#30 = AXIS2_PLACEMENT_3D ( 'NONE', #115, #231, #313 ) ;
#31 = VERTEX_POINT ( 'NONE', #79 ) ;
#32 = EDGE_LOOP ( 'NONE', ( #390, #369, #42, #120 ) ) ;
#33 = ADVANCED_FACE ( 'NONE', ( #269, #177 ), #399, .T. ) ;
#34 = ORIENTED_EDGE ( 'NONE', *, *, #383, .F. ) ;
#35 = LINE ( 'NONE', #41, #367 ) ;
#36 = ORIENTED_EDGE ( 'NONE', *, *, #234, .F. ) ;
#37 = DIRECTION ( 'NONE',  ( 0.0000000000000000000, 0.0000000000000000000, 1.000000000000000000 ) ) ;
#38 = COLOUR_RGB ( '',0.5294117647058823595, 0.5490196078431373028, 0.5490196078431373028 ) ;
#39 = ORIENTED_EDGE ( 'NONE', *, *, #217, .F. ) ;
#40 = CARTESIAN_POINT ( 'NONE',  ( 40.00000000000002842, -45.00000000000000000, -1.000000000000000000 ) ) ;
#41 = CARTESIAN_POINT ( 'NONE',  ( 45.00000000000000711, 40.00000000000000000, -1.000000000000000000 ) ) ;
#42 = ORIENTED_EDGE ( 'NONE', *, *, #52, .F. ) ;
#43 = AXIS2_PLACEMENT_3D ( 'NONE', #143, #365, #406 ) ;
#44 = CIRCLE ( 'NONE', #30, 4.999999999999997335 ) ;
#45 = CARTESIAN_POINT ( 'NONE',  ( -36.99999999999999289, 37.00000000000000000, 0.0000000000000000000 ) ) ;
#46 = CARTESIAN_POINT ( 'NONE',  ( 45.00000000000000711, 45.00000000000000000, -1.000000000000000000 ) ) ;
#47 = FILL_AREA_STYLE_COLOUR ( '', #83 ) ;
#48 = CARTESIAN_POINT ( 'NONE',  ( 45.00000000000002132, -39.99999999999996447, -1.000000000000000000 ) ) ;
#49 = DIRECTION ( 'NONE',  ( 1.000000000000000000, 0.0000000000000000000, 0.0000000000000000000 ) ) ;
#50 = ORIENTED_EDGE ( 'NONE', *, *, #151, .F. ) ;
#51 = DIRECTION ( 'NONE',  ( -1.541976423090495387E-16, 1.000000000000000000, -0.0000000000000000000 ) ) ;
#52 = EDGE_CURVE ( 'NONE', #323, #278, #233, .T. ) ;
#53 = ORIENTED_EDGE ( 'NONE', *, *, #194, .T. ) ;
#54 = DIRECTION ( 'NONE',  ( 0.0000000000000000000, -0.0000000000000000000, -1.000000000000000000 ) ) ;
#55 = DIRECTION ( 'NONE',  ( 1.000000000000000000, 0.0000000000000000000, 0.0000000000000000000 ) ) ;
#56 = CARTESIAN_POINT ( 'NONE',  ( -44.99999999999999289, 45.00000000000000000, -1.000000000000000000 ) ) ;
#57 = VERTEX_POINT ( 'NONE', #274 ) ;
#58 = UNCERTAINTY_MEASURE_WITH_UNIT (LENGTH_MEASURE( 1.000000000000000082E-05 ), #81, 'distance_accuracy_value', 'NONE');
#59 = EDGE_LOOP ( 'NONE', ( #180, #216, #141, #185, #300, #245, #39, #12 ) ) ;
#60 = CYLINDRICAL_SURFACE ( 'NONE', #118, 3.000000000000002665 ) ;
#61 = VERTEX_POINT ( 'NONE', #140 ) ;
#62 = PLANE ( 'NONE',  #77 ) ;
#63 = CYLINDRICAL_SURFACE ( 'NONE', #263, 4.999999999999997335 ) ;
#64 = ORIENTED_EDGE ( 'NONE', *, *, #135, .T. ) ;
#65 = ORIENTED_EDGE ( 'NONE', *, *, #380, .F. ) ;
#66 = CARTESIAN_POINT ( 'NONE',  ( -39.99999999999999289, 37.00000000000000000, -1.000000000000000000 ) ) ;
#67 = EDGE_CURVE ( 'NONE', #356, #10, #15, .T. ) ;
#68 = VECTOR ( 'NONE', #337, 1000.000000000000000 ) ;
#69 = VECTOR ( 'NONE', #223, 1000.000000000000000 ) ;
#70 = DIRECTION ( 'NONE',  ( 0.0000000000000000000, 0.0000000000000000000, 1.000000000000000000 ) ) ;
#71 = EDGE_LOOP ( 'NONE', ( #36, #22, #94, #250 ) ) ;
#72 = PRODUCT_DEFINITION_SHAPE ( 'NONE', 'NONE',  #150 ) ;
#73 = DIRECTION ( 'NONE',  ( 1.000000000000000000, 0.0000000000000000000, 0.0000000000000000000 ) ) ;
#74 = ORIENTED_EDGE ( 'NONE', *, *, #52, .T. ) ;
#75 = ORIENTED_EDGE ( 'NONE', *, *, #383, .T. ) ;
#76 = SURFACE_SIDE_STYLE ('',( #183 ) ) ;
#77 = AXIS2_PLACEMENT_3D ( 'NONE', #6, #93, #302 ) ;
#78 = FILL_AREA_STYLE ('',( #47 ) ) ;
#79 = CARTESIAN_POINT ( 'NONE',  ( 45.00000000000000711, 40.00000000000000000, -1.000000000000000000 ) ) ;
#80 =( NAMED_UNIT ( * ) SI_UNIT ( $, .STERADIAN. ) SOLID_ANGLE_UNIT ( ) );
#81 =( LENGTH_UNIT ( ) NAMED_UNIT ( * ) SI_UNIT ( .MILLI., .METRE. ) );
#82 = EDGE_CURVE ( 'NONE', #391, #326, #350, .T. ) ;
#83 = COLOUR_RGB ( '',0.5294117647058823595, 0.5490196078431373028, 0.5490196078431373028 ) ;
#84 = AXIS2_PLACEMENT_3D ( 'NONE', #87, #408, #342 ) ;
#85 = FACE_OUTER_BOUND ( 'NONE', #59, .T. ) ;
#86 = EDGE_CURVE ( 'NONE', #270, #31, #91, .T. ) ;
#87 = CARTESIAN_POINT ( 'NONE',  ( -44.99999999999997868, -45.00000000000000000, -1.000000000000000000 ) ) ;
#88 = ORIENTED_EDGE ( 'NONE', *, *, #135, .F. ) ;
#89 = VECTOR ( 'NONE', #363, 1000.000000000000000 ) ;
#90 = CLOSED_SHELL ( 'NONE', ( #381, #372, #99, #224, #316, #397, #33, #415, #288, #92, #182, #27 ) ) ;
#91 = LINE ( 'NONE', #237, #294 ) ;
#92 = ADVANCED_FACE ( 'NONE', ( #149 ), #257, .T. ) ;
#93 = DIRECTION ( 'NONE',  ( -1.000000000000000000, -1.541976423090495633E-16, 0.0000000000000000000 ) ) ;
#94 = ORIENTED_EDGE ( 'NONE', *, *, #133, .T. ) ;
#95 = AXIS2_PLACEMENT_3D ( 'NONE', #310, #304, #111 ) ;
#96 = CARTESIAN_POINT ( 'NONE',  ( -33.99999999999998579, 37.00000000000000000, -1.000000000000000000 ) ) ;
#97 = EDGE_CURVE ( 'NONE', #4, #391, #218, .T. ) ;
#98 = VECTOR ( 'NONE', #210, 1000.000000000000000 ) ;
#99 = ADVANCED_FACE ( 'NONE', ( #385 ), #376, .T. ) ;
#100 = ORIENTED_EDGE ( 'NONE', *, *, #283, .F. ) ;
#101 = UNCERTAINTY_MEASURE_WITH_UNIT (LENGTH_MEASURE( 1.000000000000000082E-05 ), #268, 'distance_accuracy_value', 'NONE');
#102 = AXIS2_PLACEMENT_3D ( 'NONE', #106, #14, #108 ) ;
#103 = DIRECTION ( 'NONE',  ( 0.0000000000000000000, 0.0000000000000000000, 1.000000000000000000 ) ) ;
#104 = LINE ( 'NONE', #235, #226 ) ;
#105 = ORIENTED_EDGE ( 'NONE', *, *, #234, .T. ) ;
#106 = CARTESIAN_POINT ( 'NONE',  ( -36.99999999999999289, 37.00000000000000000, 0.0000000000000000000 ) ) ;
#107 = DIRECTION ( 'NONE',  ( -0.0000000000000000000, 0.0000000000000000000, 1.000000000000000000 ) ) ;
#108 = DIRECTION ( 'NONE',  ( -1.000000000000000000, 0.0000000000000000000, 0.0000000000000000000 ) ) ;
#109 = FILL_AREA_STYLE_COLOUR ( '', #38 ) ;
#110 = SURFACE_STYLE_USAGE ( .BOTH. , #76 ) ;
#111 = DIRECTION ( 'NONE',  ( 1.000000000000000000, 0.0000000000000000000, 0.0000000000000000000 ) ) ;
#112 = FACE_OUTER_BOUND ( 'NONE', #286, .T. ) ;
#113 = DIRECTION ( 'NONE',  ( -0.0000000000000000000, 0.0000000000000000000, -1.000000000000000000 ) ) ;
#114 = SURFACE_STYLE_FILL_AREA ( #116 ) ;
#115 = CARTESIAN_POINT ( 'NONE',  ( 40.00000000000002842, -40.00000000000000000, 0.0000000000000000000 ) ) ;
#116 = FILL_AREA_STYLE ('',( #109 ) ) ;
#117 = ORIENTED_EDGE ( 'NONE', *, *, #222, .T. ) ;
#118 = AXIS2_PLACEMENT_3D ( 'NONE', #193, #352, #355 ) ;
#119 = DIRECTION ( 'NONE',  ( -0.0000000000000000000, 0.0000000000000000000, 1.000000000000000000 ) ) ;
#120 = ORIENTED_EDGE ( 'NONE', *, *, #301, .T. ) ;
#121 = FACE_OUTER_BOUND ( 'NONE', #71, .T. ) ;
#122 = LINE ( 'NONE', #178, #136 ) ;
#123 = EDGE_CURVE ( 'NONE', #57, #282, #122, .T. ) ;
#124 = CARTESIAN_POINT ( 'NONE',  ( -44.99999999999999289, 45.00000000000000000, -1.000000000000000000 ) ) ;
#125 = STYLED_ITEM ( 'NONE', ( #327 ), #175 ) ;
#126 = CIRCLE ( 'NONE', #198, 3.000000000000002665 ) ;
#127 = ORIENTED_EDGE ( 'NONE', *, *, #194, .F. ) ;
#128 = DIRECTION ( 'NONE',  ( -0.0000000000000000000, 0.0000000000000000000, 1.000000000000000000 ) ) ;
#129 = EDGE_CURVE ( 'NONE', #10, #31, #379, .T. ) ;
#130 = DIRECTION ( 'NONE',  ( -1.000000000000000000, 0.0000000000000000000, 0.0000000000000000000 ) ) ;
#131 = ORIENTED_EDGE ( 'NONE', *, *, #225, .F. ) ;
#132 = ORIENTED_EDGE ( 'NONE', *, *, #222, .F. ) ;
#133 = EDGE_CURVE ( 'NONE', #10, #391, #281, .T. ) ;
#134 = CARTESIAN_POINT ( 'NONE',  ( 39.99999999999997158, 45.00000000000000000, -1.000000000000000000 ) ) ;
#135 = EDGE_CURVE ( 'NONE', #326, #57, #148, .T. ) ;
#136 = VECTOR ( 'NONE', #144, 1000.000000000000000 ) ;
#137 = DIRECTION ( 'NONE',  ( -1.541976423090495387E-16, 1.000000000000000000, -0.0000000000000000000 ) ) ;
#138 = PLANE ( 'NONE',  #349 ) ;
#139 = DIRECTION ( 'NONE',  ( 0.0000000000000000000, -0.0000000000000000000, 1.000000000000000000 ) ) ;
#140 = CARTESIAN_POINT ( 'NONE',  ( -44.99999999999997868, -39.99999999999996447, -1.000000000000000000 ) ) ;
#141 = ORIENTED_EDGE ( 'NONE', *, *, #86, .F. ) ;
#142 = CARTESIAN_POINT ( 'NONE',  ( -39.99999999999997868, -39.99999999999999289, -1.000000000000000000 ) ) ;
#143 = CARTESIAN_POINT ( 'NONE',  ( 40.00000000000000711, 40.00000000000000000, -1.000000000000000000 ) ) ;
#144 = DIRECTION ( 'NONE',  ( 1.541976423090495387E-16, -1.000000000000000000, 0.0000000000000000000 ) ) ;
#145 =( NAMED_UNIT ( * ) PLANE_ANGLE_UNIT ( ) SI_UNIT ( $, .RADIAN. ) );
#146 = SURFACE_SIDE_STYLE ('',( #114 ) ) ;
#147 = VERTEX_POINT ( 'NONE', #186 ) ;
#148 = CIRCLE ( 'NONE', #154, 4.999999999999997335 ) ;
#149 = FACE_OUTER_BOUND ( 'NONE', #396, .T. ) ;
#150 = PRODUCT_DEFINITION ( 'UNKNOWN', '', #190, #16 ) ;
#151 = EDGE_CURVE ( 'NONE', #1, #328, #126, .T. ) ;
#152 = ORIENTED_EDGE ( 'NONE', *, *, #225, .T. ) ;
#153 = VERTEX_POINT ( 'NONE', #377 ) ;
#154 = AXIS2_PLACEMENT_3D ( 'NONE', #28, #249, #317 ) ;
#155 = FACE_OUTER_BOUND ( 'NONE', #32, .T. ) ;
#156 = CARTESIAN_POINT ( 'NONE',  ( -39.99999999999999289, 40.00000000000000000, -1.000000000000000000 ) ) ;
#157 = CYLINDRICAL_SURFACE ( 'NONE', #95, 4.999999999999997335 ) ;
#158 = ORIENTED_EDGE ( 'NONE', *, *, #259, .F. ) ;
#159 = DIRECTION ( 'NONE',  ( -0.0000000000000000000, -0.0000000000000000000, -1.000000000000000000 ) ) ;
#160 = EDGE_LOOP ( 'NONE', ( #242, #348, #312, #21 ) ) ;
#161 = AXIS2_PLACEMENT_3D ( 'NONE', #13, #264, #299 ) ;
#162 = LINE ( 'NONE', #271, #359 ) ;
#163 = EDGE_CURVE ( 'NONE', #387, #153, #410, .T. ) ;
#164 = APPLICATION_CONTEXT ( 'automotive_design' ) ;
#165 = ORIENTED_EDGE ( 'NONE', *, *, #97, .F. ) ;
#166 = CARTESIAN_POINT ( 'NONE',  ( 40.00000000000000000, 45.00000000000000000, -1.000000000000000000 ) ) ;
#167 = APPLICATION_PROTOCOL_DEFINITION ( 'draft international standard', 'automotive_design', 1998, #164 ) ;
#168 = ORIENTED_EDGE ( 'NONE', *, *, #217, .T. ) ;
#169 = SURFACE_STYLE_USAGE ( .BOTH. , #146 ) ;
#170 = DIRECTION ( 'NONE',  ( 0.0000000000000000000, -0.0000000000000000000, -1.000000000000000000 ) ) ;
#171 = DIRECTION ( 'NONE',  ( 0.0000000000000000000, 0.0000000000000000000, -1.000000000000000000 ) ) ;
#172 = AXIS2_PLACEMENT_3D ( 'NONE', #142, #280, #360 ) ;
#173 = APPLICATION_CONTEXT ( 'automotive_design' ) ;
#174 = EDGE_LOOP ( 'NONE', ( #165, #65, #88, #221 ) ) ;
#175 = ADVANCED_BREP_SHAPE_REPRESENTATION ( '03_022_sheetmetal backfill logo', ( #277, #287 ), #345 ) ;
#176 = DIRECTION ( 'NONE',  ( 0.0000000000000000000, -0.0000000000000000000, -1.000000000000000000 ) ) ;
#177 = FACE_OUTER_BOUND ( 'NONE', #357, .T. ) ;
#178 = CARTESIAN_POINT ( 'NONE',  ( -44.99999999999999289, 45.00000000000000000, 0.0000000000000000000 ) ) ;
#179 = ORIENTED_EDGE ( 'NONE', *, *, #129, .F. ) ;
#180 = ORIENTED_EDGE ( 'NONE', *, *, #133, .F. ) ;
#181 = PRESENTATION_LAYER_ASSIGNMENT (  '', '', ( #7 ) ) ;
#182 = ADVANCED_FACE ( 'NONE', ( #389 ), #63, .T. ) ;
#183 = SURFACE_STYLE_FILL_AREA ( #78 ) ;
#184 = EDGE_CURVE ( 'NONE', #282, #387, #347, .T. ) ;
#185 = ORIENTED_EDGE ( 'NONE', *, *, #26, .T. ) ;
#186 = CARTESIAN_POINT ( 'NONE',  ( 40.00000000000000000, -45.00000000000000000, 0.0000000000000000000 ) ) ;
#187 = PRODUCT ( '03_022_sheetmetal backfill logo', '03_022_sheetmetal backfill logo', '', ( #303 ) ) ;
#188 = CARTESIAN_POINT ( 'NONE',  ( 45.00000000000002132, -39.99999999999999289, -1.000000000000000000 ) ) ;
#189 = DIRECTION ( 'NONE',  ( 0.0000000000000000000, 1.000000000000000000, 0.0000000000000000000 ) ) ;
#190 = PRODUCT_DEFINITION_FORMATION_WITH_SPECIFIED_SOURCE ( 'ANY', '', #187, .NOT_KNOWN. ) ;
#191 = FACE_OUTER_BOUND ( 'NONE', #362, .T. ) ;
#192 = DIRECTION ( 'NONE',  ( 1.000000000000000000, 0.0000000000000000000, 0.0000000000000000000 ) ) ;
#193 = CARTESIAN_POINT ( 'NONE',  ( -36.99999999999999289, 37.00000000000000000, 0.0000000000000000000 ) ) ;
#194 = EDGE_CURVE ( 'NONE', #328, #1, #240, .T. ) ;
#195 = CARTESIAN_POINT ( 'NONE',  ( -36.99999999999999289, 37.00000000000000000, -1.000000000000000000 ) ) ;
#196 = LINE ( 'NONE', #267, #89 ) ;
#197 = LINE ( 'NONE', #256, #208 ) ;
#198 = AXIS2_PLACEMENT_3D ( 'NONE', #289, #29, #130 ) ;
#199 = SHAPE_DEFINITION_REPRESENTATION ( #72, #175 ) ;
#200 = CARTESIAN_POINT ( 'NONE',  ( -44.99999999999999289, 45.00000000000000000, 0.0000000000000000000 ) ) ;
#201 = ORIENTED_EDGE ( 'NONE', *, *, #184, .F. ) ;
#202 = CARTESIAN_POINT ( 'NONE',  ( 0.0000000000000000000, 0.0000000000000000000, 0.0000000000000000000 ) ) ;
#203 = DIRECTION ( 'NONE',  ( 1.000000000000000000, 0.0000000000000000000, 0.0000000000000000000 ) ) ;
#204 =( NAMED_UNIT ( * ) SI_UNIT ( $, .STERADIAN. ) SOLID_ANGLE_UNIT ( ) );
#205 = AXIS2_PLACEMENT_3D ( 'NONE', #202, #107, #17 ) ;
#206 = CARTESIAN_POINT ( 'NONE',  ( 40.00000000000000711, 40.00000000000000000, 0.0000000000000000000 ) ) ;
#207 = CARTESIAN_POINT ( 'NONE',  ( -44.99999999999999289, 40.00000000000000000, -1.000000000000000000 ) ) ;
#208 = VECTOR ( 'NONE', #295, 1000.000000000000000 ) ;
#209 = AXIS2_PLACEMENT_3D ( 'NONE', #46, #230, #305 ) ;
#210 = DIRECTION ( 'NONE',  ( -1.000000000000000000, -0.0000000000000000000, -0.0000000000000000000 ) ) ;
#211 = VERTEX_POINT ( 'NONE', #5 ) ;
#212 = DIRECTION ( 'NONE',  ( 1.000000000000000000, 0.0000000000000000000, 0.0000000000000000000 ) ) ;
#213 = AXIS2_PLACEMENT_3D ( 'NONE', #124, #189, #315 ) ;
#214 = FACE_OUTER_BOUND ( 'NONE', #246, .T. ) ;
#215 = CARTESIAN_POINT ( 'NONE',  ( 45.00000000000002132, -39.99999999999996447, 0.0000000000000000000 ) ) ;
#216 = ORIENTED_EDGE ( 'NONE', *, *, #129, .T. ) ;
#217 = EDGE_CURVE ( 'NONE', #4, #61, #197, .T. ) ;
#218 = CIRCLE ( 'NONE', #229, 4.999999999999997335 ) ;
#219 = DIRECTION ( 'NONE',  ( -1.000000000000000000, 0.0000000000000000000, 0.0000000000000000000 ) ) ;
#220 = DIRECTION ( 'NONE',  ( 0.0000000000000000000, 0.0000000000000000000, -1.000000000000000000 ) ) ;
#221 = ORIENTED_EDGE ( 'NONE', *, *, #82, .F. ) ;
#222 = EDGE_CURVE ( 'NONE', #387, #147, #409, .T. ) ;
#223 = DIRECTION ( 'NONE',  ( 1.000000000000000000, 0.0000000000000000000, 0.0000000000000000000 ) ) ;
#224 = ADVANCED_FACE ( 'NONE', ( #228 ), #62, .T. ) ;
#225 = EDGE_CURVE ( 'NONE', #306, #329, #262, .T. ) ;
#226 = VECTOR ( 'NONE', #331, 1000.000000000000000 ) ;
#227 = EDGE_LOOP ( 'NONE', ( #332, #411, #132, #370 ) ) ;
#228 = FACE_OUTER_BOUND ( 'NONE', #298, .T. ) ;
#229 = AXIS2_PLACEMENT_3D ( 'NONE', #375, #176, #55 ) ;
#230 = DIRECTION ( 'NONE',  ( 1.000000000000000000, 1.541976423090495633E-16, -0.0000000000000000000 ) ) ;
#231 = DIRECTION ( 'NONE',  ( -0.0000000000000000000, 0.0000000000000000000, 1.000000000000000000 ) ) ;
#232 = CARTESIAN_POINT ( 'NONE',  ( -39.99999999999997868, -45.00000000000000000, 0.0000000000000000000 ) ) ;
#233 = LINE ( 'NONE', #400, #241 ) ;
#234 = EDGE_CURVE ( 'NONE', #356, #326, #333, .T. ) ;
#235 = CARTESIAN_POINT ( 'NONE',  ( -39.99999999999999289, 37.00000000000000000, 0.0000000000000000000 ) ) ;
#236 = CARTESIAN_POINT ( 'NONE',  ( 45.00000000000000711, 40.00000000000000000, 0.0000000000000000000 ) ) ;
#237 = CARTESIAN_POINT ( 'NONE',  ( 45.00000000000000711, 45.00000000000000000, -1.000000000000000000 ) ) ;
#238 = PLANE ( 'NONE',  #209 ) ;
#239 = EDGE_CURVE ( 'NONE', #306, #328, #291, .T. ) ;
#240 = CIRCLE ( 'NONE', #405, 3.000000000000002665 ) ;
#241 = VECTOR ( 'NONE', #51, 1000.000000000000000 ) ;
#242 = ORIENTED_EDGE ( 'NONE', *, *, #26, .F. ) ;
#243 = EDGE_CURVE ( 'NONE', #211, #147, #403, .T. ) ;
#244 = CIRCLE ( 'NONE', #364, 4.999999999999997335 ) ;
#245 = ORIENTED_EDGE ( 'NONE', *, *, #283, .T. ) ;
#246 = EDGE_LOOP ( 'NONE', ( #131, #334, #53, #34 ) ) ;
#247 = ORIENTED_EDGE ( 'NONE', *, *, #330, .T. ) ;
#248 = EDGE_CURVE ( 'NONE', #278, #356, #244, .T. ) ;
#249 = DIRECTION ( 'NONE',  ( -0.0000000000000000000, 0.0000000000000000000, 1.000000000000000000 ) ) ;
#250 = ORIENTED_EDGE ( 'NONE', *, *, #82, .T. ) ;
#251 = VECTOR ( 'NONE', #70, 1000.000000000000000 ) ;
#252 = ORIENTED_EDGE ( 'NONE', *, *, #398, .F. ) ;
#253 = CARTESIAN_POINT ( 'NONE',  ( -39.99999999999997868, -45.00000000000000000, -1.000000000000000000 ) ) ;
#254 = MECHANICAL_DESIGN_GEOMETRIC_PRESENTATION_REPRESENTATION (  '', ( #125 ), #23 ) ;
#255 = CYLINDRICAL_SURFACE ( 'NONE', #102, 3.000000000000002665 ) ;
#256 = CARTESIAN_POINT ( 'NONE',  ( -44.99999999999999289, 45.00000000000000000, -1.000000000000000000 ) ) ;
#257 = CYLINDRICAL_SURFACE ( 'NONE', #172, 4.999999999999997335 ) ;
#258 = UNCERTAINTY_MEASURE_WITH_UNIT (LENGTH_MEASURE( 1.000000000000000082E-05 ), #404, 'distance_accuracy_value', 'NONE');
#259 = EDGE_CURVE ( 'NONE', #31, #278, #35, .T. ) ;
#260 = CARTESIAN_POINT ( 'NONE',  ( -39.99999999999999289, 37.00000000000000000, 0.0000000000000000000 ) ) ;
#261 = ORIENTED_EDGE ( 'NONE', *, *, #67, .F. ) ;
#262 = CIRCLE ( 'NONE', #161, 3.000000000000002665 ) ;
#263 = AXIS2_PLACEMENT_3D ( 'NONE', #156, #37, #386 ) ;
#264 = DIRECTION ( 'NONE',  ( 0.0000000000000000000, 0.0000000000000000000, -1.000000000000000000 ) ) ;
#265 = EDGE_CURVE ( 'NONE', #61, #282, #196, .T. ) ;
#266 = FACE_BOUND ( 'NONE', #407, .T. ) ;
#267 = CARTESIAN_POINT ( 'NONE',  ( -44.99999999999997868, -39.99999999999999289, -1.000000000000000000 ) ) ;
#268 =( LENGTH_UNIT ( ) NAMED_UNIT ( * ) SI_UNIT ( .MILLI., .METRE. ) );
#269 = FACE_BOUND ( 'NONE', #319, .T. ) ;
#270 = VERTEX_POINT ( 'NONE', #48 ) ;
#271 = CARTESIAN_POINT ( 'NONE',  ( -44.99999999999997868, -45.00000000000000000, -1.000000000000000000 ) ) ;
#272 = DIRECTION ( 'NONE',  ( 0.0000000000000000000, 0.0000000000000000000, 1.000000000000000000 ) ) ;
#273 =( NAMED_UNIT ( * ) SI_UNIT ( $, .STERADIAN. ) SOLID_ANGLE_UNIT ( ) );
#274 = CARTESIAN_POINT ( 'NONE',  ( -44.99999999999999289, 40.00000000000000000, 0.0000000000000000000 ) ) ;
#275 = AXIS2_PLACEMENT_3D ( 'NONE', #338, #54, #416 ) ;
#276 =( NAMED_UNIT ( * ) PLANE_ANGLE_UNIT ( ) SI_UNIT ( $, .RADIAN. ) );
#277 = MANIFOLD_SOLID_BREP ( 'Aufhängeloch', #90 ) ;
#278 = VERTEX_POINT ( 'NONE', #236 ) ;
#279 =( NAMED_UNIT ( * ) PLANE_ANGLE_UNIT ( ) SI_UNIT ( $, .RADIAN. ) );
#280 = DIRECTION ( 'NONE',  ( 0.0000000000000000000, 0.0000000000000000000, 1.000000000000000000 ) ) ;
#281 = LINE ( 'NONE', #56, #98 ) ;
#282 = VERTEX_POINT ( 'NONE', #19 ) ;
#283 = EDGE_CURVE ( 'NONE', #153, #61, #318, .T. ) ;
#284 = ORIENTED_EDGE ( 'NONE', *, *, #248, .T. ) ;
#285 = VECTOR ( 'NONE', #293, 1000.000000000000000 ) ;
#286 = EDGE_LOOP ( 'NONE', ( #179, #261, #384, #158 ) ) ;
#287 = AXIS2_PLACEMENT_3D ( 'NONE', #18, #272, #73 ) ;
#288 = ADVANCED_FACE ( 'NONE', ( #308 ), #157, .T. ) ;
#289 = CARTESIAN_POINT ( 'NONE',  ( -36.99999999999999289, 37.00000000000000000, -1.000000000000000000 ) ) ;
#290 = CARTESIAN_POINT ( 'NONE',  ( 40.00000000000000711, 40.00000000000000000, -1.000000000000000000 ) ) ;
#291 = LINE ( 'NONE', #8, #340 ) ;
#292 = AXIS2_PLACEMENT_3D ( 'NONE', #45, #171, #20 ) ;
#293 = DIRECTION ( 'NONE',  ( -0.0000000000000000000, -0.0000000000000000000, -1.000000000000000000 ) ) ;
#294 = VECTOR ( 'NONE', #137, 1000.000000000000000 ) ;
#295 = DIRECTION ( 'NONE',  ( 1.541976423090495387E-16, -1.000000000000000000, 0.0000000000000000000 ) ) ;
#296 = CARTESIAN_POINT ( 'NONE',  ( -44.99999999999999289, 40.00000000000000000, -1.000000000000000000 ) ) ;
#297 = AXIS2_PLACEMENT_3D ( 'NONE', #351, #128, #192 ) ;
#298 = EDGE_LOOP ( 'NONE', ( #168, #412, #335, #343 ) ) ;
#299 = DIRECTION ( 'NONE',  ( -1.000000000000000000, 0.0000000000000000000, 0.0000000000000000000 ) ) ;
#300 = ORIENTED_EDGE ( 'NONE', *, *, #394, .F. ) ;
#301 = EDGE_CURVE ( 'NONE', #323, #270, #353, .T. ) ;
#302 = DIRECTION ( 'NONE',  ( 1.541976423090495633E-16, -1.000000000000000000, 0.0000000000000000000 ) ) ;
#303 = PRODUCT_CONTEXT ( 'NONE', #173, 'mechanical' ) ;
#304 = DIRECTION ( 'NONE',  ( 0.0000000000000000000, 0.0000000000000000000, 1.000000000000000000 ) ) ;
#305 = DIRECTION ( 'NONE',  ( -1.541976423090495633E-16, 1.000000000000000000, 0.0000000000000000000 ) ) ;
#306 = VERTEX_POINT ( 'NONE', #382 ) ;
#307 = CARTESIAN_POINT ( 'NONE',  ( 40.00000000000002842, -40.00000000000000000, -1.000000000000000000 ) ) ;
#308 = FACE_OUTER_BOUND ( 'NONE', #160, .T. ) ;
#309 = VECTOR ( 'NONE', #392, 1000.000000000000000 ) ;
#310 = CARTESIAN_POINT ( 'NONE',  ( 40.00000000000002842, -40.00000000000000000, -1.000000000000000000 ) ) ;
#311 = CARTESIAN_POINT ( 'NONE',  ( -39.99999999999999289, 45.00000000000000000, -1.000000000000000000 ) ) ;
#312 = ORIENTED_EDGE ( 'NONE', *, *, #330, .F. ) ;
#313 = DIRECTION ( 'NONE',  ( 1.000000000000000000, 0.0000000000000000000, 0.0000000000000000000 ) ) ;
#314 = AXIS2_PLACEMENT_3D ( 'NONE', #307, #170, #203 ) ;
#315 = DIRECTION ( 'NONE',  ( 0.0000000000000000000, -0.0000000000000000000, 1.000000000000000000 ) ) ;
#316 = ADVANCED_FACE ( 'NONE', ( #121 ), #373, .T. ) ;
#317 = DIRECTION ( 'NONE',  ( 1.000000000000000000, 0.0000000000000000000, 0.0000000000000000000 ) ) ;
#318 = CIRCLE ( 'NONE', #275, 4.999999999999997335 ) ;
#319 = EDGE_LOOP ( 'NONE', ( #325, #152 ) ) ;
#320 = MECHANICAL_DESIGN_GEOMETRIC_PRESENTATION_REPRESENTATION (  '', ( #7 ), #354 ) ;
#321 = CIRCLE ( 'NONE', #292, 3.000000000000002665 ) ;
#322 = VECTOR ( 'NONE', #113, 1000.000000000000000 ) ;
#323 = VERTEX_POINT ( 'NONE', #215 ) ;
#324 = CARTESIAN_POINT ( 'NONE',  ( -44.99999999999997868, -45.00000000000000000, 0.0000000000000000000 ) ) ;
#325 = ORIENTED_EDGE ( 'NONE', *, *, #398, .T. ) ;
#326 = VERTEX_POINT ( 'NONE', #388 ) ;
#327 = PRESENTATION_STYLE_ASSIGNMENT (( #110 ) ) ;
#328 = VERTEX_POINT ( 'NONE', #96 ) ;
#329 = VERTEX_POINT ( 'NONE', #260 ) ;
#330 = EDGE_CURVE ( 'NONE', #147, #323, #44, .T. ) ;
#331 = DIRECTION ( 'NONE',  ( -0.0000000000000000000, -0.0000000000000000000, -1.000000000000000000 ) ) ;
#332 = ORIENTED_EDGE ( 'NONE', *, *, #394, .T. ) ;
#333 = LINE ( 'NONE', #200, #309 ) ;
#334 = ORIENTED_EDGE ( 'NONE', *, *, #239, .T. ) ;
#335 = ORIENTED_EDGE ( 'NONE', *, *, #123, .F. ) ;
#336 = CARTESIAN_POINT ( 'NONE',  ( -39.99999999999999289, 45.00000000000000000, -1.000000000000000000 ) ) ;
#337 = DIRECTION ( 'NONE',  ( -0.0000000000000000000, -0.0000000000000000000, -1.000000000000000000 ) ) ;
#338 = CARTESIAN_POINT ( 'NONE',  ( -39.99999999999997868, -39.99999999999999289, -1.000000000000000000 ) ) ;
#339 = DIRECTION ( 'NONE',  ( 1.000000000000000000, 0.0000000000000000000, 0.0000000000000000000 ) ) ;
#340 = VECTOR ( 'NONE', #358, 1000.000000000000000 ) ;
#341 = DIRECTION ( 'NONE',  ( 1.000000000000000000, 0.0000000000000000000, 0.0000000000000000000 ) ) ;
#342 = DIRECTION ( 'NONE',  ( 0.0000000000000000000, -0.0000000000000000000, -1.000000000000000000 ) ) ;
#343 = ORIENTED_EDGE ( 'NONE', *, *, #380, .T. ) ;
#344 = CARTESIAN_POINT ( 'NONE',  ( 39.99999999999997158, 45.00000000000000000, 0.0000000000000000000 ) ) ;
#345 =( GEOMETRIC_REPRESENTATION_CONTEXT ( 3 ) GLOBAL_UNCERTAINTY_ASSIGNED_CONTEXT ( ( #258 ) ) GLOBAL_UNIT_ASSIGNED_CONTEXT ( ( #404, #276, #80 ) ) REPRESENTATION_CONTEXT ( 'NONE', 'WORKASPACE' ) );
#346 = DIRECTION ( 'NONE',  ( 0.0000000000000000000, -0.0000000000000000000, -1.000000000000000000 ) ) ;
#347 = CIRCLE ( 'NONE', #297, 4.999999999999997335 ) ;
#348 = ORIENTED_EDGE ( 'NONE', *, *, #301, .F. ) ;
#349 = AXIS2_PLACEMENT_3D ( 'NONE', #402, #368, #49 ) ;
#350 = LINE ( 'NONE', #336, #395 ) ;
#351 = CARTESIAN_POINT ( 'NONE',  ( -39.99999999999997868, -39.99999999999999289, 0.0000000000000000000 ) ) ;
#352 = DIRECTION ( 'NONE',  ( -0.0000000000000000000, -0.0000000000000000000, -1.000000000000000000 ) ) ;
#353 = LINE ( 'NONE', #188, #285 ) ;
#354 =( GEOMETRIC_REPRESENTATION_CONTEXT ( 3 ) GLOBAL_UNCERTAINTY_ASSIGNED_CONTEXT ( ( #58 ) ) GLOBAL_UNIT_ASSIGNED_CONTEXT ( ( #81, #279, #273 ) ) REPRESENTATION_CONTEXT ( 'NONE', 'WORKASPACE' ) );
#355 = DIRECTION ( 'NONE',  ( -1.000000000000000000, 0.0000000000000000000, 0.0000000000000000000 ) ) ;
#356 = VERTEX_POINT ( 'NONE', #344 ) ;
#357 = EDGE_LOOP ( 'NONE', ( #74, #284, #105, #64, #24, #25, #117, #247 ) ) ;
#358 = DIRECTION ( 'NONE',  ( -0.0000000000000000000, -0.0000000000000000000, -1.000000000000000000 ) ) ;
#359 = VECTOR ( 'NONE', #339, 1000.000000000000000 ) ;
#360 = DIRECTION ( 'NONE',  ( 1.000000000000000000, 0.0000000000000000000, 0.0000000000000000000 ) ) ;
#361 = CIRCLE ( 'NONE', #314, 4.999999999999997335 ) ;
#362 = EDGE_LOOP ( 'NONE', ( #401, #252, #75, #414 ) ) ;
#363 = DIRECTION ( 'NONE',  ( 0.0000000000000000000, 0.0000000000000000000, 1.000000000000000000 ) ) ;
#364 = AXIS2_PLACEMENT_3D ( 'NONE', #206, #119, #341 ) ;
#365 = DIRECTION ( 'NONE',  ( 0.0000000000000000000, -0.0000000000000000000, 1.000000000000000000 ) ) ;
#366 = ORIENTED_EDGE ( 'NONE', *, *, #163, .F. ) ;
#367 = VECTOR ( 'NONE', #103, 1000.000000000000000 ) ;
#368 = DIRECTION ( 'NONE',  ( -0.0000000000000000000, 0.0000000000000000000, 1.000000000000000000 ) ) ;
#369 = ORIENTED_EDGE ( 'NONE', *, *, #259, .T. ) ;
#370 = ORIENTED_EDGE ( 'NONE', *, *, #163, .T. ) ;
#371 = PRESENTATION_LAYER_ASSIGNMENT (  '', '', ( #125 ) ) ;
#372 = ADVANCED_FACE ( 'NONE', ( #155 ), #238, .T. ) ;
#373 = PLANE ( 'NONE',  #213 ) ;
#374 = LINE ( 'NONE', #207, #68 ) ;
#375 = CARTESIAN_POINT ( 'NONE',  ( -39.99999999999999289, 40.00000000000000000, -1.000000000000000000 ) ) ;
#376 = PLANE ( 'NONE',  #84 ) ;
#377 = CARTESIAN_POINT ( 'NONE',  ( -39.99999999999997868, -45.00000000000000000, -1.000000000000000000 ) ) ;
#378 = ORIENTED_EDGE ( 'NONE', *, *, #265, .F. ) ;
#379 = CIRCLE ( 'NONE', #3, 4.999999999999997335 ) ;
#380 = EDGE_CURVE ( 'NONE', #57, #4, #374, .T. ) ;
#381 = ADVANCED_FACE ( 'NONE', ( #214 ), #255, .F. ) ;
#382 = CARTESIAN_POINT ( 'NONE',  ( -33.99999999999998579, 37.00000000000000000, 0.0000000000000000000 ) ) ;
#383 = EDGE_CURVE ( 'NONE', #329, #1, #104, .T. ) ;
#384 = ORIENTED_EDGE ( 'NONE', *, *, #248, .F. ) ;
#385 = FACE_OUTER_BOUND ( 'NONE', #227, .T. ) ;
#386 = DIRECTION ( 'NONE',  ( 1.000000000000000000, 0.0000000000000000000, 0.0000000000000000000 ) ) ;
#387 = VERTEX_POINT ( 'NONE', #232 ) ;
#388 = CARTESIAN_POINT ( 'NONE',  ( -39.99999999999999289, 45.00000000000000000, 0.0000000000000000000 ) ) ;
#389 = FACE_OUTER_BOUND ( 'NONE', #174, .T. ) ;
#390 = ORIENTED_EDGE ( 'NONE', *, *, #86, .T. ) ;
#391 = VERTEX_POINT ( 'NONE', #311 ) ;
#392 = DIRECTION ( 'NONE',  ( -1.000000000000000000, -0.0000000000000000000, -0.0000000000000000000 ) ) ;
#393 = CYLINDRICAL_SURFACE ( 'NONE', #43, 4.999999999999997335 ) ;
#394 = EDGE_CURVE ( 'NONE', #153, #211, #162, .T. ) ;
#395 = VECTOR ( 'NONE', #139, 1000.000000000000000 ) ;
#396 = EDGE_LOOP ( 'NONE', ( #100, #366, #201, #378 ) ) ;
#397 = ADVANCED_FACE ( 'NONE', ( #266, #85 ), #138, .F. ) ;
#398 = EDGE_CURVE ( 'NONE', #329, #306, #321, .T. ) ;
#399 = PLANE ( 'NONE',  #205 ) ;
#400 = CARTESIAN_POINT ( 'NONE',  ( 45.00000000000000711, 45.00000000000000000, 0.0000000000000000000 ) ) ;
#401 = ORIENTED_EDGE ( 'NONE', *, *, #239, .F. ) ;
#402 = CARTESIAN_POINT ( 'NONE',  ( 0.0000000000000000000, 0.0000000000000000000, -1.000000000000000000 ) ) ;
#403 = LINE ( 'NONE', #40, #251 ) ;
#404 =( LENGTH_UNIT ( ) NAMED_UNIT ( * ) SI_UNIT ( .MILLI., .METRE. ) );
#405 = AXIS2_PLACEMENT_3D ( 'NONE', #195, #220, #219 ) ;
#406 = DIRECTION ( 'NONE',  ( 1.000000000000000000, 0.0000000000000000000, 0.0000000000000000000 ) ) ;
#407 = EDGE_LOOP ( 'NONE', ( #50, #127 ) ) ;
#408 = DIRECTION ( 'NONE',  ( 0.0000000000000000000, -1.000000000000000000, 0.0000000000000000000 ) ) ;
#409 = LINE ( 'NONE', #324, #69 ) ;
#410 = LINE ( 'NONE', #253, #9 ) ;
#411 = ORIENTED_EDGE ( 'NONE', *, *, #243, .T. ) ;
#412 = ORIENTED_EDGE ( 'NONE', *, *, #265, .T. ) ;
#413 = PRODUCT_RELATED_PRODUCT_CATEGORY ( 'part', '', ( #187 ) ) ;
#414 = ORIENTED_EDGE ( 'NONE', *, *, #151, .T. ) ;
#415 = ADVANCED_FACE ( 'NONE', ( #112 ), #393, .T. ) ;
#416 = DIRECTION ( 'NONE',  ( 1.000000000000000000, 0.0000000000000000000, 0.0000000000000000000 ) ) ;
ENDSEC;
END-ISO-10303-21;
