ISO-10303-21;
HEADER;
FILE_DESCRIPTION (( 'STEP AP214' ),
    '1' );
FILE_NAME ('03_121_sheetmetal distributor_holder.STEP',
    '2020-10-07T15:23:58',
    ( '' ),
    ( '' ),
    'SwSTEP 2.0',
    'SolidWorks 2018',
    '' );
FILE_SCHEMA (( 'AUTOMOTIVE_DESIGN' ));
ENDSEC;

DATA;
#1 =( NAMED_UNIT ( * ) SI_UNIT ( $, .STERADIAN. ) SOLID_ANGLE_UNIT ( ) );
#2 = FACE_BOUND ( 'NONE', #327, .T. ) ;
#3 = CIRCLE ( 'NONE', #196, 3.250000000000002665 ) ;
#4 = CARTESIAN_POINT ( 'NONE',  ( 122.0000000000000000, 12.00000000000000355, -8.000000000000000000 ) ) ;
#5 = AXIS2_PLACEMENT_3D ( 'NONE', #316, #147, #711 ) ;
#6 = DIRECTION ( 'NONE',  ( 0.0000000000000000000, 0.0000000000000000000, 1.000000000000000000 ) ) ;
#7 = DIRECTION ( 'NONE',  ( 0.0000000000000000000, 0.0000000000000000000, -1.000000000000000000 ) ) ;
#8 = ORIENTED_EDGE ( 'NONE', *, *, #829, .T. ) ;
#9 = PRESENTATION_STYLE_ASSIGNMENT (( #101 ) ) ;
#10 = DIRECTION ( 'NONE',  ( -1.000000000000000000, 0.0000000000000000000, 0.0000000000000000000 ) ) ;
#11 = CYLINDRICAL_SURFACE ( 'NONE', #107, 3.250000000000002665 ) ;
#12 = CARTESIAN_POINT ( 'NONE',  ( 4.750000000000000888, 0.0000000000000000000, 0.0000000000000000000 ) ) ;
#13 = DIRECTION ( 'NONE',  ( -0.0000000000000000000, -0.0000000000000000000, 1.000000000000000000 ) ) ;
#14 = VECTOR ( 'NONE', #706, 1000.000000000000000 ) ;
#15 = CARTESIAN_POINT ( 'NONE',  ( 0.0000000000000000000, 24.00000000000000000, 0.0000000000000000000 ) ) ;
#16 = ORIENTED_EDGE ( 'NONE', *, *, #264, .F. ) ;
#17 = CARTESIAN_POINT ( 'NONE',  ( 7.999999999999998224, 12.00000000000000355, -8.000000000000000000 ) ) ;
#18 = EDGE_CURVE ( 'NONE', #735, #40, #790, .T. ) ;
#19 = ORIENTED_EDGE ( 'NONE', *, *, #756, .F. ) ;
#20 = VERTEX_POINT ( 'NONE', #229 ) ;
#21 = CARTESIAN_POINT ( 'NONE',  ( 130.0000000000000000, 0.0000000000000000000, 0.0000000000000000000 ) ) ;
#22 = DIRECTION ( 'NONE',  ( 1.000000000000000000, 0.0000000000000000000, 0.0000000000000000000 ) ) ;
#23 = SURFACE_SIDE_STYLE ('',( #742 ) ) ;
#24 = CARTESIAN_POINT ( 'NONE',  ( 35.50000000000001421, 8.500000000000000000, 0.0000000000000000000 ) ) ;
#25 = LINE ( 'NONE', #688, #257 ) ;
#26 =( GEOMETRIC_REPRESENTATION_CONTEXT ( 3 ) GLOBAL_UNCERTAINTY_ASSIGNED_CONTEXT ( ( #797 ) ) GLOBAL_UNIT_ASSIGNED_CONTEXT ( ( #96, #596, #660 ) ) REPRESENTATION_CONTEXT ( 'NONE', 'WORKASPACE' ) );
#27 = EDGE_LOOP ( 'NONE', ( #520, #437, #371, #276 ) ) ;
#28 = CARTESIAN_POINT ( 'NONE',  ( 4.750000000000000888, 12.00000000000000355, 0.0000000000000000000 ) ) ;
#29 = ORIENTED_EDGE ( 'NONE', *, *, #475, .F. ) ;
#30 = VECTOR ( 'NONE', #794, 1000.000000000000000 ) ;
#31 = LINE ( 'NONE', #617, #473 ) ;
#32 = DIRECTION ( 'NONE',  ( -0.0000000000000000000, -0.0000000000000000000, 1.000000000000000000 ) ) ;
#33 = PRESENTATION_STYLE_ASSIGNMENT (( #717 ) ) ;
#34 = VECTOR ( 'NONE', #200, 1000.000000000000000 ) ;
#35 = DIRECTION ( 'NONE',  ( -1.000000000000000000, -2.602085213965211135E-16, 0.0000000000000000000 ) ) ;
#36 = FACE_BOUND ( 'NONE', #53, .T. ) ;
#37 = CARTESIAN_POINT ( 'NONE',  ( 118.7500000000000000, 12.00000000000000178, -8.000000000000000000 ) ) ;
#38 = EDGE_CURVE ( 'NONE', #401, #781, #243, .T. ) ;
#39 = FACE_OUTER_BOUND ( 'NONE', #168, .T. ) ;
#40 = VERTEX_POINT ( 'NONE', #37 ) ;
#41 = ORIENTED_EDGE ( 'NONE', *, *, #405, .F. ) ;
#42 = ORIENTED_EDGE ( 'NONE', *, *, #491, .T. ) ;
#43 = ORIENTED_EDGE ( 'NONE', *, *, #700, .T. ) ;
#44 = VECTOR ( 'NONE', #528, 1000.000000000000000 ) ;
#45 = CARTESIAN_POINT ( 'NONE',  ( 0.0000000000000000000, 0.0000000000000000000, -8.000000000000000000 ) ) ;
#46 = EDGE_CURVE ( 'NONE', #89, #686, #657, .T. ) ;
#47 = DIRECTION ( 'NONE',  ( 0.0000000000000000000, 0.0000000000000000000, -1.000000000000000000 ) ) ;
#48 = DIRECTION ( 'NONE',  ( -0.0000000000000000000, -1.000000000000000000, -0.0000000000000000000 ) ) ;
#49 = AXIS2_PLACEMENT_3D ( 'NONE', #584, #93, #537 ) ;
#50 = FACE_OUTER_BOUND ( 'NONE', #713, .T. ) ;
#51 = DIRECTION ( 'NONE',  ( -0.0000000000000000000, -0.0000000000000000000, 1.000000000000000000 ) ) ;
#52 = ORIENTED_EDGE ( 'NONE', *, *, #46, .F. ) ;
#53 = EDGE_LOOP ( 'NONE', ( #247, #174, #504, #489 ) ) ;
#54 = PLANE ( 'NONE',  #97 ) ;
#55 = CARTESIAN_POINT ( 'NONE',  ( 118.7500000000000000, 22.00000000000000000, -8.000000000000000000 ) ) ;
#56 = ORIENTED_EDGE ( 'NONE', *, *, #397, .T. ) ;
#57 = EDGE_CURVE ( 'NONE', #201, #123, #450, .T. ) ;
#58 = CARTESIAN_POINT ( 'NONE',  ( 125.2500000000000000, 12.00000000000000355, -8.000000000000000000 ) ) ;
#59 = FACE_OUTER_BOUND ( 'NONE', #568, .T. ) ;
#60 = AXIS2_PLACEMENT_3D ( 'NONE', #696, #328, #453 ) ;
#61 = CARTESIAN_POINT ( 'NONE',  ( 125.2500000000000000, 22.00000000000000000, -8.000000000000000000 ) ) ;
#62 = ORIENTED_EDGE ( 'NONE', *, *, #226, .F. ) ;
#63 = ORIENTED_EDGE ( 'NONE', *, *, #805, .T. ) ;
#64 = DIRECTION ( 'NONE',  ( -0.0000000000000000000, -0.0000000000000000000, 1.000000000000000000 ) ) ;
#65 = ORIENTED_EDGE ( 'NONE', *, *, #57, .F. ) ;
#66 = FACE_OUTER_BOUND ( 'NONE', #27, .T. ) ;
#67 = DIRECTION ( 'NONE',  ( -0.0000000000000000000, -0.0000000000000000000, 1.000000000000000000 ) ) ;
#68 = AXIS2_PLACEMENT_3D ( 'NONE', #130, #567, #633 ) ;
#69 = ORIENTED_EDGE ( 'NONE', *, *, #405, .T. ) ;
#70 = CARTESIAN_POINT ( 'NONE',  ( 130.0000000000000000, 0.0000000000000000000, -8.000000000000000000 ) ) ;
#71 = CARTESIAN_POINT ( 'NONE',  ( 125.2500000000000000, 22.00000000000000000, -8.000000000000000000 ) ) ;
#72 = CARTESIAN_POINT ( 'NONE',  ( 0.0000000000000000000, 10.00000000000000000, -8.000000000000000000 ) ) ;
#73 = DIRECTION ( 'NONE',  ( 1.000000000000000000, 0.0000000000000000000, 0.0000000000000000000 ) ) ;
#74 = DIRECTION ( 'NONE',  ( 1.000000000000000000, 0.0000000000000000000, 0.0000000000000000000 ) ) ;
#75 = ORIENTED_EDGE ( 'NONE', *, *, #370, .T. ) ;
#76 = VECTOR ( 'NONE', #500, 1000.000000000000000 ) ;
#77 = DIRECTION ( 'NONE',  ( -0.0000000000000000000, -0.0000000000000000000, 1.000000000000000000 ) ) ;
#78 = ORIENTED_EDGE ( 'NONE', *, *, #256, .F. ) ;
#79 = PLANE ( 'NONE',  #800 ) ;
#80 = VERTEX_POINT ( 'NONE', #61 ) ;
#81 = FACE_OUTER_BOUND ( 'NONE', #167, .T. ) ;
#82 = CARTESIAN_POINT ( 'NONE',  ( 30.50000000000001421, 8.500000000000000000, -2.571758278209442450E-16 ) ) ;
#83 = DIRECTION ( 'NONE',  ( 1.000000000000000000, 3.469446951953614682E-16, 0.0000000000000000000 ) ) ;
#84 = DIRECTION ( 'NONE',  ( 0.0000000000000000000, 0.0000000000000000000, -1.000000000000000000 ) ) ;
#85 = STYLED_ITEM ( 'NONE', ( #438 ), #158 ) ;
#86 = ADVANCED_FACE ( 'NONE', ( #413 ), #360, .F. ) ;
#87 = EDGE_LOOP ( 'NONE', ( #574, #425, #623, #589 ) ) ;
#88 = LINE ( 'NONE', #658, #562 ) ;
#89 = VERTEX_POINT ( 'NONE', #176 ) ;
#90 = EDGE_CURVE ( 'NONE', #601, #508, #432, .T. ) ;
#91 = ORIENTED_EDGE ( 'NONE', *, *, #127, .T. ) ;
#92 = DIRECTION ( 'NONE',  ( 0.0000000000000000000, 0.0000000000000000000, 1.000000000000000000 ) ) ;
#93 = DIRECTION ( 'NONE',  ( 0.0000000000000000000, -0.0000000000000000000, 1.000000000000000000 ) ) ;
#94 = VECTOR ( 'NONE', #445, 1000.000000000000000 ) ;
#95 = DIRECTION ( 'NONE',  ( 1.000000000000000000, 0.0000000000000000000, 0.0000000000000000000 ) ) ;
#96 =( LENGTH_UNIT ( ) NAMED_UNIT ( * ) SI_UNIT ( .MILLI., .METRE. ) );
#97 = AXIS2_PLACEMENT_3D ( 'NONE', #70, #400, #250 ) ;
#98 = EDGE_LOOP ( 'NONE', ( #808, #770, #56, #100 ) ) ;
#99 = CIRCLE ( 'NONE', #695, 2.500000000000002220 ) ;
#100 = ORIENTED_EDGE ( 'NONE', *, *, #668, .F. ) ;
#101 = SURFACE_STYLE_USAGE ( .BOTH. , #415 ) ;
#102 = ORIENTED_EDGE ( 'NONE', *, *, #46, .T. ) ;
#103 = ORIENTED_EDGE ( 'NONE', *, *, #499, .T. ) ;
#104 = LINE ( 'NONE', #639, #303 ) ;
#105 = DIRECTION ( 'NONE',  ( -0.0000000000000000000, -0.0000000000000000000, 1.000000000000000000 ) ) ;
#106 = EDGE_CURVE ( 'NONE', #428, #80, #629, .T. ) ;
#107 = AXIS2_PLACEMENT_3D ( 'NONE', #184, #77, #396 ) ;
#108 = VERTEX_POINT ( 'NONE', #178 ) ;
#109 = ORIENTED_EDGE ( 'NONE', *, *, #357, .F. ) ;
#110 = COLOUR_RGB ( '',0.6470588235294117974, 0.6196078431372549211, 0.5882352941176470784 ) ;
#111 = CIRCLE ( 'NONE', #320, 2.499999999999995115 ) ;
#112 = STYLED_ITEM ( 'NONE', ( #612 ), #275 ) ;
#113 = ORIENTED_EDGE ( 'NONE', *, *, #709, .T. ) ;
#114 = AXIS2_PLACEMENT_3D ( 'NONE', #414, #151, #536 ) ;
#115 = ORIENTED_EDGE ( 'NONE', *, *, #675, .T. ) ;
#116 = VECTOR ( 'NONE', #379, 1000.000000000000000 ) ;
#117 = LINE ( 'NONE', #611, #697 ) ;
#118 =( LENGTH_UNIT ( ) NAMED_UNIT ( * ) SI_UNIT ( .MILLI., .METRE. ) );
#119 = DIRECTION ( 'NONE',  ( 0.0000000000000000000, 0.0000000000000000000, -1.000000000000000000 ) ) ;
#120 = CARTESIAN_POINT ( 'NONE',  ( 120.0000000000000142, 24.00000000000000000, -8.000000000000000000 ) ) ;
#121 = SURFACE_STYLE_USAGE ( .BOTH. , #177 ) ;
#122 = DIRECTION ( 'NONE',  ( 0.0000000000000000000, 0.0000000000000000000, -1.000000000000000000 ) ) ;
#123 = VERTEX_POINT ( 'NONE', #554 ) ;
#124 = FILL_AREA_STYLE ('',( #687 ) ) ;
#125 = EDGE_LOOP ( 'NONE', ( #113, #772, #825, #63 ) ) ;
#126 = CARTESIAN_POINT ( 'NONE',  ( 130.0000000000000000, 24.00000000000000000, 0.0000000000000000000 ) ) ;
#127 = EDGE_CURVE ( 'NONE', #787, #762, #739, .T. ) ;
#128 = SURFACE_STYLE_USAGE ( .BOTH. , #830 ) ;
#129 = DIRECTION ( 'NONE',  ( -0.0000000000000000000, -0.0000000000000000000, 1.000000000000000000 ) ) ;
#130 = CARTESIAN_POINT ( 'NONE',  ( 120.0000000000000142, 10.00000000000000000, 0.0000000000000000000 ) ) ;
#131 = ORIENTED_EDGE ( 'NONE', *, *, #90, .F. ) ;
#132 = FACE_OUTER_BOUND ( 'NONE', #98, .T. ) ;
#133 = DIRECTION ( 'NONE',  ( 0.0000000000000000000, 0.0000000000000000000, -1.000000000000000000 ) ) ;
#134 = ORIENTED_EDGE ( 'NONE', *, *, #57, .T. ) ;
#135 = CARTESIAN_POINT ( 'NONE',  ( 4.749999999999998224, 22.00000000000000000, -8.000000000000000000 ) ) ;
#136 = AXIS2_PLACEMENT_3D ( 'NONE', #439, #51, #366 ) ;
#137 = CARTESIAN_POINT ( 'NONE',  ( 35.50000000000001421, 8.500000000000000000, -2.571758278209442450E-16 ) ) ;
#138 = CARTESIAN_POINT ( 'NONE',  ( 11.24999999999999289, 0.0000000000000000000, 0.0000000000000000000 ) ) ;
#139 = ADVANCED_FACE ( 'NONE', ( #59 ), #274, .T. ) ;
#140 = PLANE ( 'NONE',  #150 ) ;
#141 = FACE_BOUND ( 'NONE', #784, .T. ) ;
#142 = EDGE_CURVE ( 'NONE', #694, #401, #31, .T. ) ;
#143 = CARTESIAN_POINT ( 'NONE',  ( 4.749999999999999112, 22.00000000000000000, 0.0000000000000000000 ) ) ;
#144 = CARTESIAN_POINT ( 'NONE',  ( 7.999999999999996447, 22.00000000000000355, -8.000000000000000000 ) ) ;
#145 = ORIENTED_EDGE ( 'NONE', *, *, #640, .F. ) ;
#146 = COLOUR_RGB ( '',0.6470588235294117974, 0.6196078431372549211, 0.5882352941176470784 ) ;
#147 = DIRECTION ( 'NONE',  ( -0.0000000000000000000, -0.0000000000000000000, 1.000000000000000000 ) ) ;
#148 = ORIENTED_EDGE ( 'NONE', *, *, #529, .F. ) ;
#149 = ORIENTED_EDGE ( 'NONE', *, *, #530, .T. ) ;
#150 = AXIS2_PLACEMENT_3D ( 'NONE', #335, #466, #577 ) ;
#151 = DIRECTION ( 'NONE',  ( -0.0000000000000000000, -0.0000000000000000000, 1.000000000000000000 ) ) ;
#152 = FACE_BOUND ( 'NONE', #125, .T. ) ;
#153 = FILL_AREA_STYLE_COLOUR ( '', #782 ) ;
#154 = EDGE_LOOP ( 'NONE', ( #516, #249, #232, #677 ) ) ;
#155 = CARTESIAN_POINT ( 'NONE',  ( 4.749999999999998224, 22.00000000000000000, -8.000000000000000000 ) ) ;
#156 = VECTOR ( 'NONE', #774, 1000.000000000000000 ) ;
#157 = CARTESIAN_POINT ( 'NONE',  ( 11.24999999999999289, 22.00000000000000355, -8.000000000000000000 ) ) ;
#158 = ADVANCED_FACE ( 'NONE', ( #546 ), #703, .F. ) ;
#159 = CIRCLE ( 'NONE', #60, 3.249999999999997780 ) ;
#160 = VECTOR ( 'NONE', #6, 1000.000000000000000 ) ;
#161 =( NAMED_UNIT ( * ) SI_UNIT ( $, .STERADIAN. ) SOLID_ANGLE_UNIT ( ) );
#162 = DIRECTION ( 'NONE',  ( -3.469446951953614682E-16, 1.000000000000000000, -0.0000000000000000000 ) ) ;
#163 = COLOUR_RGB ( '',0.6470588235294117974, 0.6196078431372549211, 0.5882352941176470784 ) ;
#164 = ADVANCED_BREP_SHAPE_REPRESENTATION ( '03_121_sheetmetal distributor_holder', ( #820, #550 ), #26 ) ;
#165 = ORIENTED_EDGE ( 'NONE', *, *, #264, .T. ) ;
#166 = PRODUCT_DEFINITION_SHAPE ( 'NONE', 'NONE',  #385 ) ;
#167 = EDGE_LOOP ( 'NONE', ( #148, #220, #91, #410 ) ) ;
#168 = EDGE_LOOP ( 'NONE', ( #664, #416, #75, #384, #246, #103, #543, #427 ) ) ;
#169 = CARTESIAN_POINT ( 'NONE',  ( 118.7500000000000000, 22.00000000000000000, -8.000000000000000000 ) ) ;
#170 = PRESENTATION_LAYER_ASSIGNMENT (  '', '', ( #278 ) ) ;
#171 = VERTEX_POINT ( 'NONE', #622 ) ;
#172 = EDGE_CURVE ( 'NONE', #762, #787, #691, .T. ) ;
#173 = VECTOR ( 'NONE', #634, 1000.000000000000000 ) ;
#174 = ORIENTED_EDGE ( 'NONE', *, *, #18, .T. ) ;
#175 = CARTESIAN_POINT ( 'NONE',  ( 130.0000000000000000, 24.00000000000000000, -8.000000000000000000 ) ) ;
#176 = CARTESIAN_POINT ( 'NONE',  ( 120.0000000000000142, 34.00000000000000000, -8.000000000000000000 ) ) ;
#177 = SURFACE_SIDE_STYLE ('',( #267 ) ) ;
#178 = CARTESIAN_POINT ( 'NONE',  ( 125.2500000000000000, 12.00000000000000355, 0.0000000000000000000 ) ) ;
#179 = ORIENTED_EDGE ( 'NONE', *, *, #475, .T. ) ;
#180 = DIRECTION ( 'NONE',  ( -0.0000000000000000000, -0.0000000000000000000, 1.000000000000000000 ) ) ;
#181 = PLANE ( 'NONE',  #480 ) ;
#182 = DIRECTION ( 'NONE',  ( 1.000000000000000000, 0.0000000000000000000, 0.0000000000000000000 ) ) ;
#183 = CARTESIAN_POINT ( 'NONE',  ( 11.24999999999999289, 22.00000000000000355, -8.000000000000000000 ) ) ;
#184 = CARTESIAN_POINT ( 'NONE',  ( 122.0000000000000000, 12.00000000000000355, -8.000000000000000000 ) ) ;
#185 = AXIS2_PLACEMENT_3D ( 'NONE', #635, #67, #74 ) ;
#186 = DIRECTION ( 'NONE',  ( -0.0000000000000000000, -0.0000000000000000000, 1.000000000000000000 ) ) ;
#187 = VERTEX_POINT ( 'NONE', #505 ) ;
#188 = ORIENTED_EDGE ( 'NONE', *, *, #768, .F. ) ;
#189 = CARTESIAN_POINT ( 'NONE',  ( 35.50000000000001421, 8.500000000000000000, -8.000000000000000000 ) ) ;
#190 = DIRECTION ( 'NONE',  ( 0.0000000000000000000, -0.0000000000000000000, 1.000000000000000000 ) ) ;
#191 = VECTOR ( 'NONE', #293, 1000.000000000000000 ) ;
#192 = FILL_AREA_STYLE ('',( #206 ) ) ;
#193 = ORIENTED_EDGE ( 'NONE', *, *, #431, .F. ) ;
#194 =( NAMED_UNIT ( * ) PLANE_ANGLE_UNIT ( ) SI_UNIT ( $, .RADIAN. ) );
#195 = LINE ( 'NONE', #793, #618 ) ;
#196 = AXIS2_PLACEMENT_3D ( 'NONE', #698, #7, #73 ) ;
#197 = FACE_OUTER_BOUND ( 'NONE', #154, .T. ) ;
#198 = ADVANCED_FACE ( 'NONE', ( #380 ), #54, .T. ) ;
#199 = ORIENTED_EDGE ( 'NONE', *, *, #748, .F. ) ;
#200 = DIRECTION ( 'NONE',  ( -0.0000000000000000000, -1.000000000000000000, -0.0000000000000000000 ) ) ;
#201 = VERTEX_POINT ( 'NONE', #740 ) ;
#202 = CARTESIAN_POINT ( 'NONE',  ( 0.0000000000000000000, 0.0000000000000000000, -8.000000000000000000 ) ) ;
#203 = DIRECTION ( 'NONE',  ( 1.000000000000000000, 0.0000000000000000000, 0.0000000000000000000 ) ) ;
#204 = VECTOR ( 'NONE', #676, 1000.000000000000000 ) ;
#205 = CARTESIAN_POINT ( 'NONE',  ( 0.0000000000000000000, 34.00000000000000000, 0.0000000000000000000 ) ) ;
#206 = FILL_AREA_STYLE_COLOUR ( '', #110 ) ;
#207 = ADVANCED_FACE ( 'NONE', ( #545 ), #527, .T. ) ;
#208 = ORIENTED_EDGE ( 'NONE', *, *, #492, .T. ) ;
#209 = LINE ( 'NONE', #202, #14 ) ;
#210 = APPLICATION_PROTOCOL_DEFINITION ( 'draft international standard', 'automotive_design', 1998, #586 ) ;
#211 = DIRECTION ( 'NONE',  ( 0.0000000000000000000, 1.000000000000000000, 0.0000000000000000000 ) ) ;
#212 = ADVANCED_FACE ( 'NONE', ( #515 ), #11, .F. ) ;
#213 = ORIENTED_EDGE ( 'NONE', *, *, #491, .F. ) ;
#214 = VECTOR ( 'NONE', #440, 1000.000000000000000 ) ;
#215 = CARTESIAN_POINT ( 'NONE',  ( 7.999999999999996447, 22.00000000000000355, -8.000000000000000000 ) ) ;
#216 = CARTESIAN_POINT ( 'NONE',  ( 0.0000000000000000000, 10.00000000000000000, -8.000000000000000000 ) ) ;
#217 = VERTEX_POINT ( 'NONE', #626 ) ;
#218 = SURFACE_SIDE_STYLE ('',( #263 ) ) ;
#219 =( NAMED_UNIT ( * ) SI_UNIT ( $, .STERADIAN. ) SOLID_ANGLE_UNIT ( ) );
#220 = ORIENTED_EDGE ( 'NONE', *, *, #588, .T. ) ;
#221 = ORIENTED_EDGE ( 'NONE', *, *, #487, .F. ) ;
#222 = FACE_OUTER_BOUND ( 'NONE', #462, .T. ) ;
#223 = AXIS2_PLACEMENT_3D ( 'NONE', #55, #555, #606 ) ;
#224 = ORIENTED_EDGE ( 'NONE', *, *, #228, .F. ) ;
#225 = CARTESIAN_POINT ( 'NONE',  ( 10.00000000000000000, 10.00000000000000000, 0.0000000000000000000 ) ) ;
#226 = EDGE_CURVE ( 'NONE', #602, #795, #493, .T. ) ;
#227 = FILL_AREA_STYLE ('',( #802 ) ) ;
#228 = EDGE_CURVE ( 'NONE', #420, #217, #501, .T. ) ;
#229 = CARTESIAN_POINT ( 'NONE',  ( 11.24999999999999289, 22.00000000000000355, 0.0000000000000000000 ) ) ;
#230 = AXIS2_PLACEMENT_3D ( 'NONE', #277, #786, #722 ) ;
#231 = ORIENTED_EDGE ( 'NONE', *, *, #778, .F. ) ;
#232 = ORIENTED_EDGE ( 'NONE', *, *, #314, .T. ) ;
#233 = AXIS2_PLACEMENT_3D ( 'NONE', #773, #513, #765 ) ;
#234 = CARTESIAN_POINT ( 'NONE',  ( 10.00000000000000000, 0.0000000000000000000, -8.000000000000000000 ) ) ;
#235 = VECTOR ( 'NONE', #412, 1000.000000000000000 ) ;
#236 = CARTESIAN_POINT ( 'NONE',  ( 11.24999999999999467, 12.00000000000000355, 0.0000000000000000000 ) ) ;
#237 = CIRCLE ( 'NONE', #595, 3.249999999999997780 ) ;
#238 = DIRECTION ( 'NONE',  ( -1.000000000000000000, 0.0000000000000000000, 0.0000000000000000000 ) ) ;
#239 = VERTEX_POINT ( 'NONE', #189 ) ;
#240 = AXIS2_PLACEMENT_3D ( 'NONE', #144, #654, #329 ) ;
#241 = DIRECTION ( 'NONE',  ( -0.0000000000000000000, 0.0000000000000000000, -1.000000000000000000 ) ) ;
#242 =( NAMED_UNIT ( * ) PLANE_ANGLE_UNIT ( ) SI_UNIT ( $, .RADIAN. ) );
#243 = LINE ( 'NONE', #547, #191 ) ;
#244 = CARTESIAN_POINT ( 'NONE',  ( 0.0000000000000000000, 0.0000000000000000000, -8.000000000000000000 ) ) ;
#245 = CIRCLE ( 'NONE', #672, 2.499999999999995115 ) ;
#246 = ORIENTED_EDGE ( 'NONE', *, *, #756, .T. ) ;
#247 = ORIENTED_EDGE ( 'NONE', *, *, #417, .T. ) ;
#248 = CARTESIAN_POINT ( 'NONE',  ( 11.24999999999999289, 22.00000000000000355, -8.000000000000000000 ) ) ;
#249 = ORIENTED_EDGE ( 'NONE', *, *, #142, .F. ) ;
#250 = DIRECTION ( 'NONE',  ( 0.0000000000000000000, 0.0000000000000000000, -1.000000000000000000 ) ) ;
#251 = CARTESIAN_POINT ( 'NONE',  ( 107.0000000000000142, 25.50000000000000355, -8.000000000000000000 ) ) ;
#252 = EDGE_CURVE ( 'NONE', #601, #826, #828, .T. ) ;
#253 = VECTOR ( 'NONE', #273, 1000.000000000000000 ) ;
#254 = DIRECTION ( 'NONE',  ( 1.000000000000000000, 0.0000000000000000000, 0.0000000000000000000 ) ) ;
#255 = CARTESIAN_POINT ( 'NONE',  ( 118.7500000000000000, 22.00000000000000000, 0.0000000000000000000 ) ) ;
#256 = EDGE_CURVE ( 'NONE', #326, #201, #104, .T. ) ;
#257 = VECTOR ( 'NONE', #48, 1000.000000000000000 ) ;
#258 = ORIENTED_EDGE ( 'NONE', *, *, #709, .F. ) ;
#259 = CARTESIAN_POINT ( 'NONE',  ( 118.7500000000000000, 0.0000000000000000000, 0.0000000000000000000 ) ) ;
#260 = ORIENTED_EDGE ( 'NONE', *, *, #406, .F. ) ;
#261 = VECTOR ( 'NONE', #704, 1000.000000000000000 ) ;
#262 = DIRECTION ( 'NONE',  ( 1.000000000000000000, 0.0000000000000000000, 0.0000000000000000000 ) ) ;
#263 = SURFACE_STYLE_FILL_AREA ( #720 ) ;
#264 = EDGE_CURVE ( 'NONE', #317, #20, #159, .T. ) ;
#265 = ORIENTED_EDGE ( 'NONE', *, *, #127, .F. ) ;
#266 = CARTESIAN_POINT ( 'NONE',  ( 130.0000000000000000, 24.00000000000000000, -8.000000000000000000 ) ) ;
#267 = SURFACE_STYLE_FILL_AREA ( #481 ) ;
#268 = EDGE_LOOP ( 'NONE', ( #43, #669, #286, #463 ) ) ;
#269 = DIRECTION ( 'NONE',  ( 1.000000000000000000, 0.0000000000000000000, 0.0000000000000000000 ) ) ;
#270 =( LENGTH_UNIT ( ) NAMED_UNIT ( * ) SI_UNIT ( .MILLI., .METRE. ) );
#271 = CARTESIAN_POINT ( 'NONE',  ( 130.0000000000000000, 10.00000000000000000, -8.000000000000000000 ) ) ;
#272 = CYLINDRICAL_SURFACE ( 'NONE', #185, 2.500000000000002220 ) ;
#273 = DIRECTION ( 'NONE',  ( -0.0000000000000000000, -0.0000000000000000000, 1.000000000000000000 ) ) ;
#274 = CYLINDRICAL_SURFACE ( 'NONE', #552, 9.999999999999994671 ) ;
#275 = ADVANCED_FACE ( 'NONE', ( #81 ), #272, .F. ) ;
#276 = ORIENTED_EDGE ( 'NONE', *, *, #435, .F. ) ;
#277 = CARTESIAN_POINT ( 'NONE',  ( 122.0000000000000000, 22.00000000000000000, -8.000000000000000000 ) ) ;
#278 = STYLED_ITEM ( 'NONE', ( #733 ), #820 ) ;
#279 = EDGE_LOOP ( 'NONE', ( #387, #715, #8, #429 ) ) ;
#280 = PRODUCT_CONTEXT ( 'NONE', #670, 'mechanical' ) ;
#281 = CARTESIAN_POINT ( 'NONE',  ( 130.0000000000000000, 10.00000000000000000, -8.000000000000000000 ) ) ;
#282 = ADVANCED_FACE ( 'NONE', ( #471 ), #331, .T. ) ;
#283 = VERTEX_POINT ( 'NONE', #137 ) ;
#284 = VECTOR ( 'NONE', #693, 1000.000000000000000 ) ;
#285 = VECTOR ( 'NONE', #241, 1000.000000000000000 ) ;
#286 = ORIENTED_EDGE ( 'NONE', *, *, #252, .F. ) ;
#287 = AXIS2_PLACEMENT_3D ( 'NONE', #404, #467, #649 ) ;
#288 = CIRCLE ( 'NONE', #625, 10.00000000000000000 ) ;
#289 = SHAPE_DEFINITION_REPRESENTATION ( #166, #164 ) ;
#290 = VECTOR ( 'NONE', #64, 1000.000000000000000 ) ;
#291 = VERTEX_POINT ( 'NONE', #564 ) ;
#292 = ORIENTED_EDGE ( 'NONE', *, *, #370, .F. ) ;
#293 = DIRECTION ( 'NONE',  ( -0.0000000000000000000, -0.0000000000000000000, 1.000000000000000000 ) ) ;
#294 = MECHANICAL_DESIGN_GEOMETRIC_PRESENTATION_REPRESENTATION (  '', ( #557 ), #743 ) ;
#295 = DIRECTION ( 'NONE',  ( 0.0000000000000000000, -0.0000000000000000000, 1.000000000000000000 ) ) ;
#296 = ORIENTED_EDGE ( 'NONE', *, *, #627, .F. ) ;
#297 = DIRECTION ( 'NONE',  ( 0.0000000000000000000, 1.000000000000000000, 0.0000000000000000000 ) ) ;
#298 = LINE ( 'NONE', #183, #116 ) ;
#299 = AXIS2_PLACEMENT_3D ( 'NONE', #449, #630, #514 ) ;
#300 = DIRECTION ( 'NONE',  ( 1.000000000000000000, 0.0000000000000000000, 0.0000000000000000000 ) ) ;
#301 = EDGE_CURVE ( 'NONE', #826, #777, #764, .T. ) ;
#302 = CARTESIAN_POINT ( 'NONE',  ( 10.00000000000000000, 24.00000000000000000, -8.000000000000000000 ) ) ;
#303 = VECTOR ( 'NONE', #457, 1000.000000000000000 ) ;
#304 = PLANE ( 'NONE',  #223 ) ;
#305 = AXIS2_PLACEMENT_3D ( 'NONE', #587, #535, #718 ) ;
#306 = UNCERTAINTY_MEASURE_WITH_UNIT (LENGTH_MEASURE( 1.000000000000000082E-05 ), #495, 'distance_accuracy_value', 'NONE');
#307 = DIRECTION ( 'NONE',  ( 0.0000000000000000000, 0.0000000000000000000, -1.000000000000000000 ) ) ;
#308 = ORIENTED_EDGE ( 'NONE', *, *, #778, .T. ) ;
#309 = CARTESIAN_POINT ( 'NONE',  ( 120.0000000000000142, 0.0000000000000000000, -8.000000000000000000 ) ) ;
#310 = EDGE_LOOP ( 'NONE', ( #19, #42, #732, #149 ) ) ;
#311 = EDGE_CURVE ( 'NONE', #239, #187, #111, .T. ) ;
#312 = ORIENTED_EDGE ( 'NONE', *, *, #444, .F. ) ;
#313 = DIRECTION ( 'NONE',  ( 1.000000000000000000, 0.0000000000000000000, 0.0000000000000000000 ) ) ;
#314 = EDGE_CURVE ( 'NONE', #694, #317, #585, .T. ) ;
#315 = FILL_AREA_STYLE ('',( #572 ) ) ;
#316 = CARTESIAN_POINT ( 'NONE',  ( 33.00000000000001421, 8.500000000000000000, -2.571758278209442450E-16 ) ) ;
#317 = VERTEX_POINT ( 'NONE', #143 ) ;
#318 = CARTESIAN_POINT ( 'NONE',  ( 10.00000000000000000, 34.00000000000000000, -8.000000000000000000 ) ) ;
#319 = CARTESIAN_POINT ( 'NONE',  ( 0.0000000000000000000, 34.00000000000000000, -8.000000000000000000 ) ) ;
#320 = AXIS2_PLACEMENT_3D ( 'NONE', #472, #652, #269 ) ;
#321 = CIRCLE ( 'NONE', #114, 2.500000000000002220 ) ;
#322 = ORIENTED_EDGE ( 'NONE', *, *, #588, .F. ) ;
#323 = MECHANICAL_DESIGN_GEOMETRIC_PRESENTATION_REPRESENTATION (  '', ( #278 ), #754 ) ;
#324 = EDGE_LOOP ( 'NONE', ( #65, #78, #608, #719 ) ) ;
#325 = AXIS2_PLACEMENT_3D ( 'NONE', #4, #395, #203 ) ;
#326 = VERTEX_POINT ( 'NONE', #15 ) ;
#327 = EDGE_LOOP ( 'NONE', ( #188, #145 ) ) ;
#328 = DIRECTION ( 'NONE',  ( 0.0000000000000000000, 0.0000000000000000000, -1.000000000000000000 ) ) ;
#329 = DIRECTION ( 'NONE',  ( 1.000000000000000000, 0.0000000000000000000, 0.0000000000000000000 ) ) ;
#330 = CARTESIAN_POINT ( 'NONE',  ( 120.0000000000000142, 0.0000000000000000000, -8.000000000000000000 ) ) ;
#331 = PLANE ( 'NONE',  #233 ) ;
#332 = CARTESIAN_POINT ( 'NONE',  ( 10.00000000000000000, 34.00000000000000000, 0.0000000000000000000 ) ) ;
#333 = CARTESIAN_POINT ( 'NONE',  ( 130.0000000000000000, 10.00000000000000000, 0.0000000000000000000 ) ) ;
#334 = ORIENTED_EDGE ( 'NONE', *, *, #724, .T. ) ;
#335 = CARTESIAN_POINT ( 'NONE',  ( 0.0000000000000000000, 0.0000000000000000000, -8.000000000000000000 ) ) ;
#336 = CYLINDRICAL_SURFACE ( 'NONE', #49, 10.00000000000000000 ) ;
#337 = DIRECTION ( 'NONE',  ( -3.469446951953614682E-16, 1.000000000000000000, 0.0000000000000000000 ) ) ;
#338 = EDGE_LOOP ( 'NONE', ( #563, #109, #115, #377 ) ) ;
#339 = DIRECTION ( 'NONE',  ( 0.0000000000000000000, 1.000000000000000000, 0.0000000000000000000 ) ) ;
#340 =( LENGTH_UNIT ( ) NAMED_UNIT ( * ) SI_UNIT ( .MILLI., .METRE. ) );
#341 = ADVANCED_FACE ( 'NONE', ( #738 ), #140, .T. ) ;
#342 = FACE_BOUND ( 'NONE', #279, .T. ) ;
#343 = DIRECTION ( 'NONE',  ( -0.0000000000000000000, -1.000000000000000000, -0.0000000000000000000 ) ) ;
#344 = VERTEX_POINT ( 'NONE', #82 ) ;
#345 = CARTESIAN_POINT ( 'NONE',  ( 120.0000000000000142, 34.00000000000000000, 0.0000000000000000000 ) ) ;
#346 = SURFACE_STYLE_FILL_AREA ( #192 ) ;
#347 = UNCERTAINTY_MEASURE_WITH_UNIT (LENGTH_MEASURE( 1.000000000000000082E-05 ), #340, 'distance_accuracy_value', 'NONE');
#348 = EDGE_CURVE ( 'NONE', #239, #283, #566, .T. ) ;
#349 = CARTESIAN_POINT ( 'NONE',  ( 0.0000000000000000000, 0.0000000000000000000, 0.0000000000000000000 ) ) ;
#350 = AXIS2_PLACEMENT_3D ( 'NONE', #375, #682, #300 ) ;
#351 = AXIS2_PLACEMENT_3D ( 'NONE', #604, #755, #503 ) ;
#352 = APPLICATION_PROTOCOL_DEFINITION ( 'draft international standard', 'automotive_design', 1998, #670 ) ;
#353 = VECTOR ( 'NONE', #190, 1000.000000000000000 ) ;
#354 = ORIENTED_EDGE ( 'NONE', *, *, #748, .T. ) ;
#355 = PRESENTATION_LAYER_ASSIGNMENT (  '', '', ( #557 ) ) ;
#356 = AXIS2_PLACEMENT_3D ( 'NONE', #45, #119, #751 ) ;
#357 = EDGE_CURVE ( 'NONE', #40, #428, #702, .T. ) ;
#358 = EDGE_CURVE ( 'NONE', #89, #123, #368, .T. ) ;
#359 = ORIENTED_EDGE ( 'NONE', *, *, #487, .T. ) ;
#360 = PLANE ( 'NONE',  #736 ) ;
#361 = ORIENTED_EDGE ( 'NONE', *, *, #492, .F. ) ;
#362 = VECTOR ( 'NONE', #162, 1000.000000000000000 ) ;
#363 = EDGE_LOOP ( 'NONE', ( #231, #796, #689, #619 ) ) ;
#364 = VECTOR ( 'NONE', #531, 1000.000000000000000 ) ;
#365 = CIRCLE ( 'NONE', #643, 10.00000000000000000 ) ;
#366 = DIRECTION ( 'NONE',  ( 1.000000000000000000, 0.0000000000000000000, 0.0000000000000000000 ) ) ;
#367 = FACE_OUTER_BOUND ( 'NONE', #324, .T. ) ;
#368 = LINE ( 'NONE', #319, #448 ) ;
#369 = DIRECTION ( 'NONE',  ( 0.0000000000000000000, 0.0000000000000000000, 1.000000000000000000 ) ) ;
#370 = EDGE_CURVE ( 'NONE', #777, #602, #809, .T. ) ;
#371 = ORIENTED_EDGE ( 'NONE', *, *, #38, .T. ) ;
#372 = DIRECTION ( 'NONE',  ( -0.0000000000000000000, -0.0000000000000000000, 1.000000000000000000 ) ) ;
#373 = DIRECTION ( 'NONE',  ( 1.000000000000000000, 0.0000000000000000000, 0.0000000000000000000 ) ) ;
#374 = LINE ( 'NONE', #318, #353 ) ;
#375 = CARTESIAN_POINT ( 'NONE',  ( 33.00000000000001421, 8.500000000000000000, 0.0000000000000000000 ) ) ;
#376 = PLANE ( 'NONE',  #356 ) ;
#377 = ORIENTED_EDGE ( 'NONE', *, *, #571, .F. ) ;
#378 = CARTESIAN_POINT ( 'NONE',  ( 125.2500000000000000, 22.00000000000000000, -8.000000000000000000 ) ) ;
#379 = DIRECTION ( 'NONE',  ( -0.0000000000000000000, -0.0000000000000000000, 1.000000000000000000 ) ) ;
#380 = FACE_OUTER_BOUND ( 'NONE', #409, .T. ) ;
#381 = MECHANICAL_DESIGN_GEOMETRIC_PRESENTATION_REPRESENTATION (  '', ( #458 ), #799 ) ;
#382 = DIRECTION ( 'NONE',  ( -1.000000000000000000, 0.0000000000000000000, 0.0000000000000000000 ) ) ;
#383 = CARTESIAN_POINT ( 'NONE',  ( 10.00000000000000000, 10.00000000000000000, -8.000000000000000000 ) ) ;
#384 = ORIENTED_EDGE ( 'NONE', *, *, #226, .T. ) ;
#385 = PRODUCT_DEFINITION ( 'UNKNOWN', '', #804, #776 ) ;
#386 = LINE ( 'NONE', #680, #285 ) ;
#387 = ORIENTED_EDGE ( 'NONE', *, *, #668, .T. ) ;
#388 = EDGE_CURVE ( 'NONE', #610, #762, #737, .T. ) ;
#389 = CARTESIAN_POINT ( 'NONE',  ( 0.0000000000000000000, 0.0000000000000000000, 0.0000000000000000000 ) ) ;
#390 = EDGE_LOOP ( 'NONE', ( #424, #394, #436, #785 ) ) ;
#391 = CARTESIAN_POINT ( 'NONE',  ( 122.0000000000000000, 22.00000000000000000, 0.0000000000000000000 ) ) ;
#392 = ORIENTED_EDGE ( 'NONE', *, *, #801, .F. ) ;
#393 = DIRECTION ( 'NONE',  ( -0.0000000000000000000, -0.0000000000000000000, 1.000000000000000000 ) ) ;
#394 = ORIENTED_EDGE ( 'NONE', *, *, #228, .T. ) ;
#395 = DIRECTION ( 'NONE',  ( 0.0000000000000000000, 0.0000000000000000000, 1.000000000000000000 ) ) ;
#396 = DIRECTION ( 'NONE',  ( 1.000000000000000000, 0.0000000000000000000, 0.0000000000000000000 ) ) ;
#397 = EDGE_CURVE ( 'NONE', #735, #593, #817, .T. ) ;
#398 = DIRECTION ( 'NONE',  ( -0.0000000000000000000, -0.0000000000000000000, 1.000000000000000000 ) ) ;
#399 = PRESENTATION_LAYER_ASSIGNMENT (  '', '', ( #85 ) ) ;
#400 = DIRECTION ( 'NONE',  ( 1.000000000000000000, 0.0000000000000000000, 0.0000000000000000000 ) ) ;
#401 = VERTEX_POINT ( 'NONE', #637 ) ;
#402 = ADVANCED_FACE ( 'NONE', ( #468 ), #699, .F. ) ;
#403 = CARTESIAN_POINT ( 'NONE',  ( 7.999999999999998224, 12.00000000000000355, -8.000000000000000000 ) ) ;
#404 = CARTESIAN_POINT ( 'NONE',  ( 120.0000000000000142, 10.00000000000000000, -8.000000000000000000 ) ) ;
#405 = EDGE_CURVE ( 'NONE', #777, #464, #690, .T. ) ;
#406 = EDGE_CURVE ( 'NONE', #217, #601, #525, .T. ) ;
#407 = DIRECTION ( 'NONE',  ( 0.0000000000000000000, 0.0000000000000000000, 1.000000000000000000 ) ) ;
#408 = LINE ( 'NONE', #479, #362 ) ;
#409 = EDGE_LOOP ( 'NONE', ( #292, #69, #208, #179 ) ) ;
#410 = ORIENTED_EDGE ( 'NONE', *, *, #388, .F. ) ;
#411 =( NAMED_UNIT ( * ) SI_UNIT ( $, .STERADIAN. ) SOLID_ANGLE_UNIT ( ) );
#412 = DIRECTION ( 'NONE',  ( -0.0000000000000000000, 0.0000000000000000000, 1.000000000000000000 ) ) ;
#413 = FACE_OUTER_BOUND ( 'NONE', #87, .T. ) ;
#414 = CARTESIAN_POINT ( 'NONE',  ( 33.00000000000001421, 8.500000000000000000, -2.571758278209442450E-16 ) ) ;
#415 = SURFACE_SIDE_STYLE ('',( #346 ) ) ;
#416 = ORIENTED_EDGE ( 'NONE', *, *, #301, .T. ) ;
#417 = EDGE_CURVE ( 'NONE', #80, #735, #710, .T. ) ;
#418 = COLOUR_RGB ( '',0.6470588235294117974, 0.6196078431372549211, 0.5882352941176470784 ) ;
#419 = ADVANCED_FACE ( 'NONE', ( #721 ), #422, .T. ) ;
#420 = VERTEX_POINT ( 'NONE', #216 ) ;
#421 = FILL_AREA_STYLE_COLOUR ( '', #163 ) ;
#422 = PLANE ( 'NONE',  #494 ) ;
#423 = ORIENTED_EDGE ( 'NONE', *, *, #358, .F. ) ;
#424 = ORIENTED_EDGE ( 'NONE', *, *, #603, .T. ) ;
#425 = ORIENTED_EDGE ( 'NONE', *, *, #106, .F. ) ;
#426 = PLANE ( 'NONE',  #526 ) ;
#427 = ORIENTED_EDGE ( 'NONE', *, *, #406, .T. ) ;
#428 = VERTEX_POINT ( 'NONE', #666 ) ;
#429 = ORIENTED_EDGE ( 'NONE', *, *, #571, .T. ) ;
#430 = FACE_BOUND ( 'NONE', #452, .T. ) ;
#431 = EDGE_CURVE ( 'NONE', #592, #826, #597, .T. ) ;
#432 = LINE ( 'NONE', #734, #556 ) ;
#433 = CIRCLE ( 'NONE', #5, 2.500000000000002220 ) ;
#434 = CARTESIAN_POINT ( 'NONE',  ( 104.5000000000000142, 25.50000000000000355, -8.000000000000000000 ) ) ;
#435 = EDGE_CURVE ( 'NONE', #490, #781, #723, .T. ) ;
#436 = ORIENTED_EDGE ( 'NONE', *, *, #507, .F. ) ;
#437 = ORIENTED_EDGE ( 'NONE', *, *, #655, .F. ) ;
#438 = PRESENTATION_STYLE_ASSIGNMENT (( #441 ) ) ;
#439 = CARTESIAN_POINT ( 'NONE',  ( 33.00000000000001421, 8.500000000000000000, 0.0000000000000000000 ) ) ;
#440 = DIRECTION ( 'NONE',  ( -0.0000000000000000000, -0.0000000000000000000, 1.000000000000000000 ) ) ;
#441 = SURFACE_STYLE_USAGE ( .BOTH. , #559 ) ;
#442 = AXIS2_PLACEMENT_3D ( 'NONE', #391, #133, #767 ) ;
#443 = ORIENTED_EDGE ( 'NONE', *, *, #700, .F. ) ;
#444 = EDGE_CURVE ( 'NONE', #508, #420, #288, .T. ) ;
#445 = DIRECTION ( 'NONE',  ( -0.0000000000000000000, 1.000000000000000000, -0.0000000000000000000 ) ) ;
#446 = ORIENTED_EDGE ( 'NONE', *, *, #529, .T. ) ;
#447 =( LENGTH_UNIT ( ) NAMED_UNIT ( * ) SI_UNIT ( .MILLI., .METRE. ) );
#448 = VECTOR ( 'NONE', #581, 1000.000000000000000 ) ;
#449 = CARTESIAN_POINT ( 'NONE',  ( 122.0000000000000000, 22.00000000000000000, -8.000000000000000000 ) ) ;
#450 = CIRCLE ( 'NONE', #683, 10.00000000000000000 ) ;
#451 =( GEOMETRIC_REPRESENTATION_CONTEXT ( 3 ) GLOBAL_UNCERTAINTY_ASSIGNED_CONTEXT ( ( #766 ) ) GLOBAL_UNIT_ASSIGNED_CONTEXT ( ( #447, #194, #1 ) ) REPRESENTATION_CONTEXT ( 'NONE', 'WORKASPACE' ) );
#452 = EDGE_LOOP ( 'NONE', ( #583, #265 ) ) ;
#453 = DIRECTION ( 'NONE',  ( 1.000000000000000000, 0.0000000000000000000, 0.0000000000000000000 ) ) ;
#454 = DIRECTION ( 'NONE',  ( 1.000000000000000000, 0.0000000000000000000, 0.0000000000000000000 ) ) ;
#455 = LINE ( 'NONE', #71, #173 ) ;
#456 = FACE_OUTER_BOUND ( 'NONE', #679, .T. ) ;
#457 = DIRECTION ( 'NONE',  ( -0.0000000000000000000, -0.0000000000000000000, -1.000000000000000000 ) ) ;
#458 = STYLED_ITEM ( 'NONE', ( #9 ), #402 ) ;
#459 = CARTESIAN_POINT ( 'NONE',  ( 4.749999999999998224, 22.00000000000000000, -8.000000000000000000 ) ) ;
#460 = ADVANCED_FACE ( 'NONE', ( #367 ), #336, .T. ) ;
#461 = UNCERTAINTY_MEASURE_WITH_UNIT (LENGTH_MEASURE( 1.000000000000000082E-05 ), #485, 'distance_accuracy_value', 'NONE');
#462 = EDGE_LOOP ( 'NONE', ( #644, #816, #798, #199 ) ) ;
#463 = ORIENTED_EDGE ( 'NONE', *, *, #90, .T. ) ;
#464 = VERTEX_POINT ( 'NONE', #281 ) ;
#465 = VERTEX_POINT ( 'NONE', #157 ) ;
#466 = DIRECTION ( 'NONE',  ( 0.0000000000000000000, -1.000000000000000000, 0.0000000000000000000 ) ) ;
#467 = DIRECTION ( 'NONE',  ( -0.0000000000000000000, 0.0000000000000000000, 1.000000000000000000 ) ) ;
#468 = FACE_OUTER_BOUND ( 'NONE', #791, .T. ) ;
#469 = DIRECTION ( 'NONE',  ( -1.000000000000000000, 0.0000000000000000000, 0.0000000000000000000 ) ) ;
#470 = ADVANCED_FACE ( 'NONE', ( #456 ), #823, .F. ) ;
#471 = FACE_OUTER_BOUND ( 'NONE', #390, .T. ) ;
#472 = CARTESIAN_POINT ( 'NONE',  ( 33.00000000000001421, 8.500000000000000000, -8.000000000000000000 ) ) ;
#473 = VECTOR ( 'NONE', #757, 1000.000000000000000 ) ;
#474 = CARTESIAN_POINT ( 'NONE',  ( 0.0000000000000000000, 34.00000000000000000, -8.000000000000000000 ) ) ;
#475 = EDGE_CURVE ( 'NONE', #686, #602, #648, .T. ) ;
#476 = ADVANCED_FACE ( 'NONE', ( #132 ), #304, .F. ) ;
#477 = DIRECTION ( 'NONE',  ( 0.0000000000000000000, 0.0000000000000000000, -1.000000000000000000 ) ) ;
#478 = ORIENTED_EDGE ( 'NONE', *, *, #311, .T. ) ;
#479 = CARTESIAN_POINT ( 'NONE',  ( 11.24999999999999289, 22.00000000000000355, -8.000000000000000000 ) ) ;
#480 = AXIS2_PLACEMENT_3D ( 'NONE', #248, #83, #337 ) ;
#481 = FILL_AREA_STYLE ('',( #153 ) ) ;
#482 = VECTOR ( 'NONE', #650, 1000.000000000000000 ) ;
#483 =( NAMED_UNIT ( * ) PLANE_ANGLE_UNIT ( ) SI_UNIT ( $, .RADIAN. ) );
#484 = MECHANICAL_DESIGN_GEOMETRIC_PRESENTATION_REPRESENTATION (  '', ( #112 ), #451 ) ;
#485 =( LENGTH_UNIT ( ) NAMED_UNIT ( * ) SI_UNIT ( .MILLI., .METRE. ) );
#486 = PRESENTATION_LAYER_ASSIGNMENT (  '', '', ( #570 ) ) ;
#487 = EDGE_CURVE ( 'NONE', #464, #592, #807, .T. ) ;
#488 = LINE ( 'NONE', #590, #806 ) ;
#489 = ORIENTED_EDGE ( 'NONE', *, *, #106, .T. ) ;
#490 = VERTEX_POINT ( 'NONE', #236 ) ;
#491 = EDGE_CURVE ( 'NONE', #795, #89, #386, .T. ) ;
#492 = EDGE_CURVE ( 'NONE', #464, #686, #117, .T. ) ;
#493 = CIRCLE ( 'NONE', #759, 9.999999999999994671 ) ;
#494 = AXIS2_PLACEMENT_3D ( 'NONE', #474, #211, #295 ) ;
#495 =( LENGTH_UNIT ( ) NAMED_UNIT ( * ) SI_UNIT ( .MILLI., .METRE. ) );
#496 = FACE_BOUND ( 'NONE', #651, .T. ) ;
#497 = EDGE_LOOP ( 'NONE', ( #361, #359, #443, #615, #681, #134, #423, #102 ) ) ;
#498 = DIRECTION ( 'NONE',  ( -0.0000000000000000000, -0.0000000000000000000, 1.000000000000000000 ) ) ;
#499 = EDGE_CURVE ( 'NONE', #705, #326, #365, .T. ) ;
#500 = DIRECTION ( 'NONE',  ( -0.0000000000000000000, -0.0000000000000000000, 1.000000000000000000 ) ) ;
#501 = LINE ( 'NONE', #72, #160 ) ;
#502 = PRESENTATION_LAYER_ASSIGNMENT (  '', '', ( #458 ) ) ;
#503 = DIRECTION ( 'NONE',  ( -1.000000000000000000, 0.0000000000000000000, 0.0000000000000000000 ) ) ;
#504 = ORIENTED_EDGE ( 'NONE', *, *, #357, .T. ) ;
#505 = CARTESIAN_POINT ( 'NONE',  ( 30.50000000000002132, 8.500000000000000000, -8.000000000000000000 ) ) ;
#506 = AXIS2_PLACEMENT_3D ( 'NONE', #540, #728, #22 ) ;
#507 = EDGE_CURVE ( 'NONE', #326, #217, #25, .T. ) ;
#508 = VERTEX_POINT ( 'NONE', #234 ) ;
#509 = CARTESIAN_POINT ( 'NONE',  ( 104.5000000000000142, 25.50000000000000355, 0.0000000000000000000 ) ) ;
#510 = LINE ( 'NONE', #205, #580 ) ;
#511 = EDGE_CURVE ( 'NONE', #291, #490, #512, .T. ) ;
#512 = LINE ( 'NONE', #811, #76 ) ;
#513 = DIRECTION ( 'NONE',  ( -1.000000000000000000, 0.0000000000000000000, 0.0000000000000000000 ) ) ;
#514 = DIRECTION ( 'NONE',  ( 1.000000000000000000, 0.0000000000000000000, 0.0000000000000000000 ) ) ;
#515 = FACE_OUTER_BOUND ( 'NONE', #338, .T. ) ;
#516 = ORIENTED_EDGE ( 'NONE', *, *, #38, .F. ) ;
#517 = CARTESIAN_POINT ( 'NONE',  ( 118.7500000000000000, 22.00000000000000000, -8.000000000000000000 ) ) ;
#518 = AXIS2_PLACEMENT_3D ( 'NONE', #383, #569, #254 ) ;
#519 = CARTESIAN_POINT ( 'NONE',  ( 120.0000000000000142, 24.00000000000000000, 0.0000000000000000000 ) ) ;
#520 = ORIENTED_EDGE ( 'NONE', *, *, #511, .F. ) ;
#521 = ADVANCED_FACE ( 'NONE', ( #152, #36, #745, #141, #678 ), #376, .T. ) ;
#522 = LINE ( 'NONE', #138, #34 ) ;
#523 = EDGE_LOOP ( 'NONE', ( #750, #541, #565, #684 ) ) ;
#524 = VERTEX_POINT ( 'NONE', #434 ) ;
#525 = CIRCLE ( 'NONE', #822, 10.00000000000000000 ) ;
#526 = AXIS2_PLACEMENT_3D ( 'NONE', #155, #35, #665 ) ;
#527 = CYLINDRICAL_SURFACE ( 'NONE', #518, 10.00000000000000000 ) ;
#528 = DIRECTION ( 'NONE',  ( -0.0000000000000000000, -0.0000000000000000000, 1.000000000000000000 ) ) ;
#529 = EDGE_CURVE ( 'NONE', #524, #610, #542, .T. ) ;
#530 = EDGE_CURVE ( 'NONE', #123, #705, #374, .T. ) ;
#531 = DIRECTION ( 'NONE',  ( 0.0000000000000000000, 1.000000000000000000, 0.0000000000000000000 ) ) ;
#532 = ORIENTED_EDGE ( 'NONE', *, *, #801, .T. ) ;
#533 = CIRCLE ( 'NONE', #442, 3.250000000000002665 ) ;
#534 = DIRECTION ( 'NONE',  ( 1.000000000000000000, 0.0000000000000000000, 0.0000000000000000000 ) ) ;
#535 = DIRECTION ( 'NONE',  ( -0.0000000000000000000, -0.0000000000000000000, 1.000000000000000000 ) ) ;
#536 = DIRECTION ( 'NONE',  ( 1.000000000000000000, 0.0000000000000000000, 0.0000000000000000000 ) ) ;
#537 = DIRECTION ( 'NONE',  ( 1.000000000000000000, 0.0000000000000000000, 0.0000000000000000000 ) ) ;
#538 = ADVANCED_FACE ( 'NONE', ( #730 ), #582, .F. ) ;
#539 = CARTESIAN_POINT ( 'NONE',  ( 104.5000000000000142, 25.50000000000000355, -2.571758278209442450E-16 ) ) ;
#540 = CARTESIAN_POINT ( 'NONE',  ( 7.999999999999998224, 12.00000000000000355, 0.0000000000000000000 ) ) ;
#541 = ORIENTED_EDGE ( 'NONE', *, *, #417, .F. ) ;
#542 = CIRCLE ( 'NONE', #771, 2.500000000000002220 ) ;
#543 = ORIENTED_EDGE ( 'NONE', *, *, #507, .T. ) ;
#544 = CARTESIAN_POINT ( 'NONE',  ( 33.00000000000001421, 8.500000000000000000, -8.000000000000000000 ) ) ;
#545 = FACE_OUTER_BOUND ( 'NONE', #803, .T. ) ;
#546 = FACE_OUTER_BOUND ( 'NONE', #363, .T. ) ;
#547 = CARTESIAN_POINT ( 'NONE',  ( 4.750000000000000888, 12.00000000000000178, -8.000000000000000000 ) ) ;
#548 = PRODUCT ( '03_121_sheetmetal distributor_holder', '03_121_sheetmetal distributor_holder', '', ( #280 ) ) ;
#549 = LINE ( 'NONE', #244, #284 ) ;
#550 = AXIS2_PLACEMENT_3D ( 'NONE', #349, #92, #534 ) ;
#551 = ORIENTED_EDGE ( 'NONE', *, *, #348, .F. ) ;
#552 = AXIS2_PLACEMENT_3D ( 'NONE', #609, #369, #613 ) ;
#553 = LINE ( 'NONE', #259, #364 ) ;
#554 = CARTESIAN_POINT ( 'NONE',  ( 10.00000000000000000, 34.00000000000000000, -8.000000000000000000 ) ) ;
#555 = DIRECTION ( 'NONE',  ( -1.000000000000000000, 0.0000000000000000000, -0.0000000000000000000 ) ) ;
#556 = VECTOR ( 'NONE', #827, 1000.000000000000000 ) ;
#557 = STYLED_ITEM ( 'NONE', ( #33 ), #164 ) ;
#558 = EDGE_CURVE ( 'NONE', #80, #599, #455, .T. ) ;
#559 = SURFACE_SIDE_STYLE ('',( #614 ) ) ;
#560 = DIRECTION ( 'NONE',  ( -0.0000000000000000000, -0.0000000000000000000, 1.000000000000000000 ) ) ;
#561 = AXIS2_PLACEMENT_3D ( 'NONE', #120, #47, #818 ) ;
#562 = VECTOR ( 'NONE', #398, 1000.000000000000000 ) ;
#563 = ORIENTED_EDGE ( 'NONE', *, *, #616, .F. ) ;
#564 = CARTESIAN_POINT ( 'NONE',  ( 11.24999999999999645, 12.00000000000000355, -8.000000000000000000 ) ) ;
#565 = ORIENTED_EDGE ( 'NONE', *, *, #558, .T. ) ;
#566 = LINE ( 'NONE', #24, #214 ) ;
#567 = DIRECTION ( 'NONE',  ( -0.0000000000000000000, -0.0000000000000000000, 1.000000000000000000 ) ) ;
#568 = EDGE_LOOP ( 'NONE', ( #52, #213, #62, #29 ) ) ;
#569 = DIRECTION ( 'NONE',  ( 0.0000000000000000000, 0.0000000000000000000, 1.000000000000000000 ) ) ;
#570 = STYLED_ITEM ( 'NONE', ( #749 ), #470 ) ;
#571 = EDGE_CURVE ( 'NONE', #108, #171, #3, .T. ) ;
#572 = FILL_AREA_STYLE_COLOUR ( '', #146 ) ;
#573 = UNCERTAINTY_MEASURE_WITH_UNIT (LENGTH_MEASURE( 1.000000000000000082E-05 ), #118, 'distance_accuracy_value', 'NONE');
#574 = ORIENTED_EDGE ( 'NONE', *, *, #558, .F. ) ;
#575 = DIRECTION ( 'NONE',  ( -1.000000000000000000, 0.0000000000000000000, -0.0000000000000000000 ) ) ;
#576 = EDGE_CURVE ( 'NONE', #593, #599, #533, .T. ) ;
#577 = DIRECTION ( 'NONE',  ( 0.0000000000000000000, -0.0000000000000000000, -1.000000000000000000 ) ) ;
#578 = DIRECTION ( 'NONE',  ( 1.000000000000000000, 0.0000000000000000000, 0.0000000000000000000 ) ) ;
#579 = CARTESIAN_POINT ( 'NONE',  ( 118.7500000000000000, 22.00000000000000000, -8.000000000000000000 ) ) ;
#580 = VECTOR ( 'NONE', #642, 1000.000000000000000 ) ;
#581 = DIRECTION ( 'NONE',  ( -1.000000000000000000, -0.0000000000000000000, -0.0000000000000000000 ) ) ;
#582 = CYLINDRICAL_SURFACE ( 'NONE', #299, 3.250000000000002665 ) ;
#583 = ORIENTED_EDGE ( 'NONE', *, *, #172, .F. ) ;
#584 = CARTESIAN_POINT ( 'NONE',  ( 10.00000000000000000, 24.00000000000000000, -8.000000000000000000 ) ) ;
#585 = LINE ( 'NONE', #135, #253 ) ;
#586 = APPLICATION_CONTEXT ( 'automotive_design' ) ;
#587 = CARTESIAN_POINT ( 'NONE',  ( 107.0000000000000142, 25.50000000000000355, 0.0000000000000000000 ) ) ;
#588 = EDGE_CURVE ( 'NONE', #524, #787, #813, .T. ) ;
#589 = ORIENTED_EDGE ( 'NONE', *, *, #829, .F. ) ;
#590 = CARTESIAN_POINT ( 'NONE',  ( 30.50000000000001776, 8.500000000000000000, 0.0000000000000000000 ) ) ;
#591 = CARTESIAN_POINT ( 'NONE',  ( 10.00000000000000000, 10.00000000000000000, -8.000000000000000000 ) ) ;
#592 = VERTEX_POINT ( 'NONE', #309 ) ;
#593 = VERTEX_POINT ( 'NONE', #255 ) ;
#594 = LINE ( 'NONE', #58, #661 ) ;
#595 = AXIS2_PLACEMENT_3D ( 'NONE', #403, #407, #262 ) ;
#596 =( NAMED_UNIT ( * ) PLANE_ANGLE_UNIT ( ) SI_UNIT ( $, .RADIAN. ) );
#597 = LINE ( 'NONE', #330, #235 ) ;
#598 = MECHANICAL_DESIGN_GEOMETRIC_PRESENTATION_REPRESENTATION (  '', ( #570 ), #607 ) ;
#599 = VERTEX_POINT ( 'NONE', #701 ) ;
#600 = EDGE_LOOP ( 'NONE', ( #779, #258, #631, #16 ) ) ;
#601 = VERTEX_POINT ( 'NONE', #758 ) ;
#602 = VERTEX_POINT ( 'NONE', #126 ) ;
#603 = EDGE_CURVE ( 'NONE', #201, #420, #549, .T. ) ;
#604 = CARTESIAN_POINT ( 'NONE',  ( 120.0000000000000142, 10.00000000000000000, -8.000000000000000000 ) ) ;
#605 = MECHANICAL_DESIGN_GEOMETRIC_PRESENTATION_REPRESENTATION (  '', ( #85 ), #821 ) ;
#606 = DIRECTION ( 'NONE',  ( -0.0000000000000000000, 0.0000000000000000000, 1.000000000000000000 ) ) ;
#607 =( GEOMETRIC_REPRESENTATION_CONTEXT ( 3 ) GLOBAL_UNCERTAINTY_ASSIGNED_CONTEXT ( ( #306 ) ) GLOBAL_UNIT_ASSIGNED_CONTEXT ( ( #495, #242, #819 ) ) REPRESENTATION_CONTEXT ( 'NONE', 'WORKASPACE' ) );
#608 = ORIENTED_EDGE ( 'NONE', *, *, #499, .F. ) ;
#609 = CARTESIAN_POINT ( 'NONE',  ( 120.0000000000000142, 24.00000000000000000, -8.000000000000000000 ) ) ;
#610 = VERTEX_POINT ( 'NONE', #628 ) ;
#611 = CARTESIAN_POINT ( 'NONE',  ( 130.0000000000000000, 0.0000000000000000000, -8.000000000000000000 ) ) ;
#612 = PRESENTATION_STYLE_ASSIGNMENT (( #128 ) ) ;
#613 = DIRECTION ( 'NONE',  ( 1.000000000000000000, 0.0000000000000000000, 0.0000000000000000000 ) ) ;
#614 = SURFACE_STYLE_FILL_AREA ( #124 ) ;
#615 = ORIENTED_EDGE ( 'NONE', *, *, #444, .T. ) ;
#616 = EDGE_CURVE ( 'NONE', #428, #108, #594, .T. ) ;
#617 = CARTESIAN_POINT ( 'NONE',  ( 4.749999999999998224, 22.00000000000000000, -8.000000000000000000 ) ) ;
#618 = VECTOR ( 'NONE', #343, 1000.000000000000000 ) ;
#619 = ORIENTED_EDGE ( 'NONE', *, *, #768, .T. ) ;
#620 = FACE_OUTER_BOUND ( 'NONE', #600, .T. ) ;
#621 = AXIS2_PLACEMENT_3D ( 'NONE', #815, #498, #769 ) ;
#622 = CARTESIAN_POINT ( 'NONE',  ( 118.7500000000000000, 12.00000000000000355, 0.0000000000000000000 ) ) ;
#623 = ORIENTED_EDGE ( 'NONE', *, *, #616, .T. ) ;
#624 = CARTESIAN_POINT ( 'NONE',  ( 107.0000000000000142, 25.50000000000000355, -8.000000000000000000 ) ) ;
#625 = AXIS2_PLACEMENT_3D ( 'NONE', #591, #477, #469 ) ;
#626 = CARTESIAN_POINT ( 'NONE',  ( 0.0000000000000000000, 10.00000000000000000, 0.0000000000000000000 ) ) ;
#627 = EDGE_CURVE ( 'NONE', #610, #524, #99, .T. ) ;
#628 = CARTESIAN_POINT ( 'NONE',  ( 109.5000000000000142, 25.50000000000000355, -8.000000000000000000 ) ) ;
#629 = LINE ( 'NONE', #378, #94 ) ;
#630 = DIRECTION ( 'NONE',  ( -0.0000000000000000000, -0.0000000000000000000, 1.000000000000000000 ) ) ;
#631 = ORIENTED_EDGE ( 'NONE', *, *, #632, .T. ) ;
#632 = EDGE_CURVE ( 'NONE', #465, #20, #298, .T. ) ;
#633 = DIRECTION ( 'NONE',  ( -1.000000000000000000, 0.0000000000000000000, 0.0000000000000000000 ) ) ;
#634 = DIRECTION ( 'NONE',  ( -0.0000000000000000000, -0.0000000000000000000, 1.000000000000000000 ) ) ;
#635 = CARTESIAN_POINT ( 'NONE',  ( 107.0000000000000142, 25.50000000000000355, 0.0000000000000000000 ) ) ;
#636 = ORIENTED_EDGE ( 'NONE', *, *, #435, .T. ) ;
#637 = CARTESIAN_POINT ( 'NONE',  ( 4.750000000000000888, 12.00000000000000178, -8.000000000000000000 ) ) ;
#638 = AXIS2_PLACEMENT_3D ( 'NONE', #17, #13, #578 ) ;
#639 = CARTESIAN_POINT ( 'NONE',  ( 0.0000000000000000000, 24.00000000000000000, -8.000000000000000000 ) ) ;
#640 = EDGE_CURVE ( 'NONE', #344, #283, #433, .T. ) ;
#641 = CARTESIAN_POINT ( 'NONE',  ( 109.5000000000000142, 25.50000000000000355, 0.0000000000000000000 ) ) ;
#642 = DIRECTION ( 'NONE',  ( -1.000000000000000000, -0.0000000000000000000, -0.0000000000000000000 ) ) ;
#643 = AXIS2_PLACEMENT_3D ( 'NONE', #741, #372, #238 ) ;
#644 = ORIENTED_EDGE ( 'NONE', *, *, #632, .F. ) ;
#645 = ADVANCED_FACE ( 'NONE', ( #222 ), #181, .F. ) ;
#646 = LINE ( 'NONE', #12, #716 ) ;
#647 = ORIENTED_EDGE ( 'NONE', *, *, #172, .T. ) ;
#648 = LINE ( 'NONE', #175, #707 ) ;
#649 = DIRECTION ( 'NONE',  ( 1.000000000000000000, 0.0000000000000000000, 0.0000000000000000000 ) ) ;
#650 = DIRECTION ( 'NONE',  ( -0.0000000000000000000, -0.0000000000000000000, 1.000000000000000000 ) ) ;
#651 = EDGE_LOOP ( 'NONE', ( #334, #165, #354, #636 ) ) ;
#652 = DIRECTION ( 'NONE',  ( -0.0000000000000000000, -0.0000000000000000000, 1.000000000000000000 ) ) ;
#653 = ADVANCED_FACE ( 'NONE', ( #66 ), #729, .F. ) ;
#654 = DIRECTION ( 'NONE',  ( 0.0000000000000000000, 0.0000000000000000000, 1.000000000000000000 ) ) ;
#655 = EDGE_CURVE ( 'NONE', #401, #291, #237, .T. ) ;
#656 = AXIS2_PLACEMENT_3D ( 'NONE', #746, #180, #182 ) ;
#657 = CIRCLE ( 'NONE', #561, 9.999999999999994671 ) ;
#658 = CARTESIAN_POINT ( 'NONE',  ( 118.7500000000000000, 12.00000000000000178, -8.000000000000000000 ) ) ;
#659 = ORIENTED_EDGE ( 'NONE', *, *, #388, .T. ) ;
#660 =( NAMED_UNIT ( * ) SI_UNIT ( $, .STERADIAN. ) SOLID_ANGLE_UNIT ( ) );
#661 = VECTOR ( 'NONE', #560, 1000.000000000000000 ) ;
#662 = DIRECTION ( 'NONE',  ( -0.0000000000000000000, -0.0000000000000000000, 1.000000000000000000 ) ) ;
#663 = DIRECTION ( 'NONE',  ( -0.0000000000000000000, -0.0000000000000000000, 1.000000000000000000 ) ) ;
#664 = ORIENTED_EDGE ( 'NONE', *, *, #252, .T. ) ;
#665 = DIRECTION ( 'NONE',  ( 2.602085213965211135E-16, -1.000000000000000000, 0.0000000000000000000 ) ) ;
#666 = CARTESIAN_POINT ( 'NONE',  ( 125.2500000000000000, 12.00000000000000355, -8.000000000000000000 ) ) ;
#667 = ADVANCED_FACE ( 'NONE', ( #50 ), #744, .T. ) ;
#668 = EDGE_CURVE ( 'NONE', #171, #593, #553, .T. ) ;
#669 = ORIENTED_EDGE ( 'NONE', *, *, #431, .T. ) ;
#670 = APPLICATION_CONTEXT ( 'automotive_design' ) ;
#671 = UNCERTAINTY_MEASURE_WITH_UNIT (LENGTH_MEASURE( 1.000000000000000082E-05 ), #270, 'distance_accuracy_value', 'NONE');
#672 = AXIS2_PLACEMENT_3D ( 'NONE', #544, #32, #731 ) ;
#673 = EDGE_LOOP ( 'NONE', ( #478, #532 ) ) ;
#674 = CLOSED_SHELL ( 'NONE', ( #470, #275, #282, #419, #198, #341, #521, #712, #402, #158, #538, #86, #212, #476, #792, #645, #653, #775, #667, #139, #207, #460 ) ) ;
#675 = EDGE_CURVE ( 'NONE', #40, #171, #88, .T. ) ;
#676 = DIRECTION ( 'NONE',  ( 0.0000000000000000000, -1.000000000000000000, 0.0000000000000000000 ) ) ;
#677 = ORIENTED_EDGE ( 'NONE', *, *, #724, .F. ) ;
#678 = FACE_OUTER_BOUND ( 'NONE', #497, .T. ) ;
#679 = EDGE_LOOP ( 'NONE', ( #392, #308, #685, #551 ) ) ;
#680 = CARTESIAN_POINT ( 'NONE',  ( 120.0000000000000142, 34.00000000000000000, -8.000000000000000000 ) ) ;
#681 = ORIENTED_EDGE ( 'NONE', *, *, #603, .F. ) ;
#682 = DIRECTION ( 'NONE',  ( -0.0000000000000000000, -0.0000000000000000000, 1.000000000000000000 ) ) ;
#683 = AXIS2_PLACEMENT_3D ( 'NONE', #302, #307, #382 ) ;
#684 = ORIENTED_EDGE ( 'NONE', *, *, #576, .F. ) ;
#685 = ORIENTED_EDGE ( 'NONE', *, *, #640, .T. ) ;
#686 = VERTEX_POINT ( 'NONE', #266 ) ;
#687 = FILL_AREA_STYLE_COLOUR ( '', #692 ) ;
#688 = CARTESIAN_POINT ( 'NONE',  ( 0.0000000000000000000, 0.0000000000000000000, 0.0000000000000000000 ) ) ;
#689 = ORIENTED_EDGE ( 'NONE', *, *, #348, .T. ) ;
#690 = LINE ( 'NONE', #271, #30 ) ;
#691 = CIRCLE ( 'NONE', #621, 2.500000000000002220 ) ;
#692 = COLOUR_RGB ( '',0.6470588235294117974, 0.6196078431372549211, 0.5882352941176470784 ) ;
#693 = DIRECTION ( 'NONE',  ( -0.0000000000000000000, -1.000000000000000000, -0.0000000000000000000 ) ) ;
#694 = VERTEX_POINT ( 'NONE', #459 ) ;
#695 = AXIS2_PLACEMENT_3D ( 'NONE', #624, #129, #313 ) ;
#696 = CARTESIAN_POINT ( 'NONE',  ( 7.999999999999996447, 22.00000000000000355, 0.0000000000000000000 ) ) ;
#697 = VECTOR ( 'NONE', #297, 1000.000000000000000 ) ;
#698 = CARTESIAN_POINT ( 'NONE',  ( 122.0000000000000000, 12.00000000000000355, 0.0000000000000000000 ) ) ;
#699 = CYLINDRICAL_SURFACE ( 'NONE', #305, 2.500000000000002220 ) ;
#700 = EDGE_CURVE ( 'NONE', #508, #592, #209, .T. ) ;
#701 = CARTESIAN_POINT ( 'NONE',  ( 125.2500000000000000, 22.00000000000000000, 0.0000000000000000000 ) ) ;
#702 = CIRCLE ( 'NONE', #325, 3.250000000000002665 ) ;
#703 = CYLINDRICAL_SURFACE ( 'NONE', #350, 2.500000000000002220 ) ;
#704 = DIRECTION ( 'NONE',  ( 1.000000000000000000, 0.0000000000000000000, 0.0000000000000000000 ) ) ;
#705 = VERTEX_POINT ( 'NONE', #332 ) ;
#706 = DIRECTION ( 'NONE',  ( 1.000000000000000000, 0.0000000000000000000, 0.0000000000000000000 ) ) ;
#707 = VECTOR ( 'NONE', #814, 1000.000000000000000 ) ;
#708 = CARTESIAN_POINT ( 'NONE',  ( 109.5000000000000142, 25.50000000000000355, -2.571758278209442450E-16 ) ) ;
#709 = EDGE_CURVE ( 'NONE', #465, #694, #761, .T. ) ;
#710 = CIRCLE ( 'NONE', #230, 3.250000000000002665 ) ;
#711 = DIRECTION ( 'NONE',  ( 1.000000000000000000, 0.0000000000000000000, 0.0000000000000000000 ) ) ;
#712 = ADVANCED_FACE ( 'NONE', ( #496, #342, #2, #430, #39 ), #79, .F. ) ;
#713 = EDGE_LOOP ( 'NONE', ( #221, #41, #747, #193 ) ) ;
#714 = CARTESIAN_POINT ( 'NONE',  ( 0.0000000000000000000, 0.0000000000000000000, 0.0000000000000000000 ) ) ;
#715 = ORIENTED_EDGE ( 'NONE', *, *, #576, .T. ) ;
#716 = VECTOR ( 'NONE', #339, 1000.000000000000000 ) ;
#717 = SURFACE_STYLE_USAGE ( .BOTH. , #23 ) ;
#718 = DIRECTION ( 'NONE',  ( 1.000000000000000000, 0.0000000000000000000, 0.0000000000000000000 ) ) ;
#719 = ORIENTED_EDGE ( 'NONE', *, *, #530, .F. ) ;
#720 = FILL_AREA_STYLE ('',( #421 ) ) ;
#721 = FACE_OUTER_BOUND ( 'NONE', #310, .T. ) ;
#722 = DIRECTION ( 'NONE',  ( 1.000000000000000000, 0.0000000000000000000, 0.0000000000000000000 ) ) ;
#723 = CIRCLE ( 'NONE', #506, 3.249999999999997780 ) ;
#724 = EDGE_CURVE ( 'NONE', #781, #317, #646, .T. ) ;
#725 = CARTESIAN_POINT ( 'NONE',  ( 120.0000000000000142, 0.0000000000000000000, 0.0000000000000000000 ) ) ;
#726 =( NAMED_UNIT ( * ) PLANE_ANGLE_UNIT ( ) SI_UNIT ( $, .RADIAN. ) );
#727 = SURFACE_STYLE_USAGE ( .BOTH. , #218 ) ;
#728 = DIRECTION ( 'NONE',  ( 0.0000000000000000000, 0.0000000000000000000, -1.000000000000000000 ) ) ;
#729 = CYLINDRICAL_SURFACE ( 'NONE', #638, 3.249999999999997780 ) ;
#730 = FACE_OUTER_BOUND ( 'NONE', #523, .T. ) ;
#731 = DIRECTION ( 'NONE',  ( 1.000000000000000000, 0.0000000000000000000, 0.0000000000000000000 ) ) ;
#732 = ORIENTED_EDGE ( 'NONE', *, *, #358, .T. ) ;
#733 = PRESENTATION_STYLE_ASSIGNMENT (( #727 ) ) ;
#734 = CARTESIAN_POINT ( 'NONE',  ( 10.00000000000000000, 0.0000000000000000000, -8.000000000000000000 ) ) ;
#735 = VERTEX_POINT ( 'NONE', #579 ) ;
#736 = AXIS2_PLACEMENT_3D ( 'NONE', #824, #373, #122 ) ;
#737 = LINE ( 'NONE', #641, #482 ) ;
#738 = FACE_OUTER_BOUND ( 'NONE', #268, .T. ) ;
#739 = CIRCLE ( 'NONE', #656, 2.500000000000002220 ) ;
#740 = CARTESIAN_POINT ( 'NONE',  ( 0.0000000000000000000, 24.00000000000000000, -8.000000000000000000 ) ) ;
#741 = CARTESIAN_POINT ( 'NONE',  ( 10.00000000000000000, 24.00000000000000000, 0.0000000000000000000 ) ) ;
#742 = SURFACE_STYLE_FILL_AREA ( #227 ) ;
#743 =( GEOMETRIC_REPRESENTATION_CONTEXT ( 3 ) GLOBAL_UNCERTAINTY_ASSIGNED_CONTEXT ( ( #347 ) ) GLOBAL_UNIT_ASSIGNED_CONTEXT ( ( #340, #788, #411 ) ) REPRESENTATION_CONTEXT ( 'NONE', 'WORKASPACE' ) );
#744 = CYLINDRICAL_SURFACE ( 'NONE', #287, 9.999999999999994671 ) ;
#745 = FACE_BOUND ( 'NONE', #673, .T. ) ;
#746 = CARTESIAN_POINT ( 'NONE',  ( 107.0000000000000142, 25.50000000000000355, -2.571758278209442450E-16 ) ) ;
#747 = ORIENTED_EDGE ( 'NONE', *, *, #301, .F. ) ;
#748 = EDGE_CURVE ( 'NONE', #20, #490, #522, .T. ) ;
#749 = PRESENTATION_STYLE_ASSIGNMENT (( #121 ) ) ;
#750 = ORIENTED_EDGE ( 'NONE', *, *, #397, .F. ) ;
#751 = DIRECTION ( 'NONE',  ( -1.000000000000000000, 0.0000000000000000000, -0.0000000000000000000 ) ) ;
#752 =( NAMED_UNIT ( * ) SI_UNIT ( $, .STERADIAN. ) SOLID_ANGLE_UNIT ( ) );
#753 = SURFACE_STYLE_FILL_AREA ( #315 ) ;
#754 =( GEOMETRIC_REPRESENTATION_CONTEXT ( 3 ) GLOBAL_UNCERTAINTY_ASSIGNED_CONTEXT ( ( #671 ) ) GLOBAL_UNIT_ASSIGNED_CONTEXT ( ( #270, #483, #161 ) ) REPRESENTATION_CONTEXT ( 'NONE', 'WORKASPACE' ) );
#755 = DIRECTION ( 'NONE',  ( 0.0000000000000000000, 0.0000000000000000000, -1.000000000000000000 ) ) ;
#756 = EDGE_CURVE ( 'NONE', #795, #705, #510, .T. ) ;
#757 = DIRECTION ( 'NONE',  ( 2.602085213965211135E-16, -1.000000000000000000, 0.0000000000000000000 ) ) ;
#758 = CARTESIAN_POINT ( 'NONE',  ( 10.00000000000000000, 0.0000000000000000000, 0.0000000000000000000 ) ) ;
#759 = AXIS2_PLACEMENT_3D ( 'NONE', #519, #186, #10 ) ;
#760 =( NAMED_UNIT ( * ) PLANE_ANGLE_UNIT ( ) SI_UNIT ( $, .RADIAN. ) );
#761 = CIRCLE ( 'NONE', #240, 3.249999999999997780 ) ;
#762 = VERTEX_POINT ( 'NONE', #708 ) ;
#763 = PRESENTATION_LAYER_ASSIGNMENT (  '', '', ( #112 ) ) ;
#764 = CIRCLE ( 'NONE', #68, 9.999999999999994671 ) ;
#765 = DIRECTION ( 'NONE',  ( 0.0000000000000000000, 0.0000000000000000000, 1.000000000000000000 ) ) ;
#766 = UNCERTAINTY_MEASURE_WITH_UNIT (LENGTH_MEASURE( 1.000000000000000082E-05 ), #447, 'distance_accuracy_value', 'NONE');
#767 = DIRECTION ( 'NONE',  ( 1.000000000000000000, 0.0000000000000000000, 0.0000000000000000000 ) ) ;
#768 = EDGE_CURVE ( 'NONE', #283, #344, #321, .T. ) ;
#769 = DIRECTION ( 'NONE',  ( 1.000000000000000000, 0.0000000000000000000, 0.0000000000000000000 ) ) ;
#770 = ORIENTED_EDGE ( 'NONE', *, *, #18, .F. ) ;
#771 = AXIS2_PLACEMENT_3D ( 'NONE', #251, #393, #454 ) ;
#772 = ORIENTED_EDGE ( 'NONE', *, *, #142, .T. ) ;
#773 = CARTESIAN_POINT ( 'NONE',  ( 0.0000000000000000000, 0.0000000000000000000, -8.000000000000000000 ) ) ;
#774 = DIRECTION ( 'NONE',  ( 0.0000000000000000000, 1.000000000000000000, 0.0000000000000000000 ) ) ;
#775 = ADVANCED_FACE ( 'NONE', ( #197 ), #426, .F. ) ;
#776 = PRODUCT_DEFINITION_CONTEXT ( 'detailed design', #586, 'design' ) ;
#777 = VERTEX_POINT ( 'NONE', #333 ) ;
#778 = EDGE_CURVE ( 'NONE', #187, #344, #488, .T. ) ;
#779 = ORIENTED_EDGE ( 'NONE', *, *, #314, .F. ) ;
#780 = CYLINDRICAL_SURFACE ( 'NONE', #812, 3.249999999999997780 ) ;
#781 = VERTEX_POINT ( 'NONE', #28 ) ;
#782 = COLOUR_RGB ( '',0.6470588235294117974, 0.6196078431372549211, 0.5882352941176470784 ) ;
#783 = PRODUCT_RELATED_PRODUCT_CATEGORY ( 'part', '', ( #548 ) ) ;
#784 = EDGE_LOOP ( 'NONE', ( #810, #446 ) ) ;
#785 = ORIENTED_EDGE ( 'NONE', *, *, #256, .T. ) ;
#786 = DIRECTION ( 'NONE',  ( 0.0000000000000000000, 0.0000000000000000000, 1.000000000000000000 ) ) ;
#787 = VERTEX_POINT ( 'NONE', #539 ) ;
#788 =( NAMED_UNIT ( * ) PLANE_ANGLE_UNIT ( ) SI_UNIT ( $, .RADIAN. ) );
#789 = DIRECTION ( 'NONE',  ( -1.000000000000000000, 0.0000000000000000000, 0.0000000000000000000 ) ) ;
#790 = LINE ( 'NONE', #169, #204 ) ;
#791 = EDGE_LOOP ( 'NONE', ( #322, #296, #659, #647 ) ) ;
#792 = ADVANCED_FACE ( 'NONE', ( #620 ), #780, .F. ) ;
#793 = CARTESIAN_POINT ( 'NONE',  ( 125.2500000000000000, 0.0000000000000000000, 0.0000000000000000000 ) ) ;
#794 = DIRECTION ( 'NONE',  ( 0.0000000000000000000, -0.0000000000000000000, -1.000000000000000000 ) ) ;
#795 = VERTEX_POINT ( 'NONE', #345 ) ;
#796 = ORIENTED_EDGE ( 'NONE', *, *, #311, .F. ) ;
#797 = UNCERTAINTY_MEASURE_WITH_UNIT (LENGTH_MEASURE( 1.000000000000000082E-05 ), #96, 'distance_accuracy_value', 'NONE');
#798 = ORIENTED_EDGE ( 'NONE', *, *, #511, .T. ) ;
#799 =( GEOMETRIC_REPRESENTATION_CONTEXT ( 3 ) GLOBAL_UNCERTAINTY_ASSIGNED_CONTEXT ( ( #461 ) ) GLOBAL_UNIT_ASSIGNED_CONTEXT ( ( #485, #726, #219 ) ) REPRESENTATION_CONTEXT ( 'NONE', 'WORKASPACE' ) );
#800 = AXIS2_PLACEMENT_3D ( 'NONE', #714, #84, #575 ) ;
#801 = EDGE_CURVE ( 'NONE', #187, #239, #245, .T. ) ;
#802 = FILL_AREA_STYLE_COLOUR ( '', #418 ) ;
#803 = EDGE_LOOP ( 'NONE', ( #312, #131, #260, #224 ) ) ;
#804 = PRODUCT_DEFINITION_FORMATION_WITH_SPECIFIED_SOURCE ( 'ANY', '', #548, .NOT_KNOWN. ) ;
#805 = EDGE_CURVE ( 'NONE', #291, #465, #408, .T. ) ;
#806 = VECTOR ( 'NONE', #105, 1000.000000000000000 ) ;
#807 = CIRCLE ( 'NONE', #351, 9.999999999999994671 ) ;
#808 = ORIENTED_EDGE ( 'NONE', *, *, #675, .F. ) ;
#809 = LINE ( 'NONE', #21, #156 ) ;
#810 = ORIENTED_EDGE ( 'NONE', *, *, #627, .T. ) ;
#811 = CARTESIAN_POINT ( 'NONE',  ( 11.24999999999999645, 12.00000000000000355, -8.000000000000000000 ) ) ;
#812 = AXIS2_PLACEMENT_3D ( 'NONE', #215, #662, #95 ) ;
#813 = LINE ( 'NONE', #509, #290 ) ;
#814 = DIRECTION ( 'NONE',  ( 0.0000000000000000000, 0.0000000000000000000, 1.000000000000000000 ) ) ;
#815 = CARTESIAN_POINT ( 'NONE',  ( 107.0000000000000142, 25.50000000000000355, -2.571758278209442450E-16 ) ) ;
#816 = ORIENTED_EDGE ( 'NONE', *, *, #805, .F. ) ;
#817 = LINE ( 'NONE', #517, #44 ) ;
#818 = DIRECTION ( 'NONE',  ( -1.000000000000000000, 0.0000000000000000000, 0.0000000000000000000 ) ) ;
#819 =( NAMED_UNIT ( * ) SI_UNIT ( $, .STERADIAN. ) SOLID_ANGLE_UNIT ( ) );
#820 = MANIFOLD_SOLID_BREP ( 'Verrundung1', #674 ) ;
#821 =( GEOMETRIC_REPRESENTATION_CONTEXT ( 3 ) GLOBAL_UNCERTAINTY_ASSIGNED_CONTEXT ( ( #573 ) ) GLOBAL_UNIT_ASSIGNED_CONTEXT ( ( #118, #760, #752 ) ) REPRESENTATION_CONTEXT ( 'NONE', 'WORKASPACE' ) );
#822 = AXIS2_PLACEMENT_3D ( 'NONE', #225, #663, #789 ) ;
#823 = CYLINDRICAL_SURFACE ( 'NONE', #136, 2.500000000000002220 ) ;
#824 = CARTESIAN_POINT ( 'NONE',  ( 125.2500000000000000, 22.00000000000000000, -8.000000000000000000 ) ) ;
#825 = ORIENTED_EDGE ( 'NONE', *, *, #655, .T. ) ;
#826 = VERTEX_POINT ( 'NONE', #725 ) ;
#827 = DIRECTION ( 'NONE',  ( -0.0000000000000000000, -0.0000000000000000000, -1.000000000000000000 ) ) ;
#828 = LINE ( 'NONE', #389, #261 ) ;
#829 = EDGE_CURVE ( 'NONE', #599, #108, #195, .T. ) ;
#830 = SURFACE_SIDE_STYLE ('',( #753 ) ) ;
ENDSEC;
END-ISO-10303-21;
