ISO-10303-21;
HEADER;
FILE_DESCRIPTION (( 'STEP AP214' ),
    '1' );
FILE_NAME ('202500220_02_Deckel Ø325_V1.0.step',
    '2025-04-24T08:35:09',
    ( '' ),
    ( '' ),
    'SwSTEP 2.0',
    'SolidWorks 2021',
    '' );
FILE_SCHEMA (( 'AUTOMOTIVE_DESIGN' ));
ENDSEC;

DATA;
#1 = EDGE_CURVE ( 'NONE', #634, #447, #365, .T. ) ;
#2 = FACE_OUTER_BOUND ( 'NONE', #383, .T. ) ;
#3 = CARTESIAN_POINT ( 'NONE',  ( 265.0000000000000000, 0.000000000000000000, -229.9999999999999432 ) ) ;
#4 = ORIENTED_EDGE ( 'NONE', *, *, #626, .F. ) ;
#5 = AXIS2_PLACEMENT_3D ( 'NONE', #20, #271, #201 ) ;
#6 = AXIS2_PLACEMENT_3D ( 'NONE', #214, #780, #455 ) ;
#7 = CYLINDRICAL_SURFACE ( 'NONE', #238, 4.500000000000003553 ) ;
#8 = CARTESIAN_POINT ( 'NONE',  ( 158.3863946177196453, 0.000000000000000000, -229.9999999999999432 ) ) ;
#9 = ORIENTED_EDGE ( 'NONE', *, *, #723, .T. ) ;
#10 = DIRECTION ( 'NONE',  ( -0.000000000000000000, 1.000000000000000000, -0.000000000000000000 ) ) ;
#11 = EDGE_CURVE ( 'NONE', #811, #423, #612, .T. ) ;
#12 = CARTESIAN_POINT ( 'NONE',  ( 157.3871113709201381, 3.000000000000000000, -229.0378548895898518 ) ) ;
#13 = ORIENTED_EDGE ( 'NONE', *, *, #364, .F. ) ;
#14 = CARTESIAN_POINT ( 'NONE',  ( 157.3871113709201381, 3.000000000000000000, -229.0378548895898518 ) ) ;
#15 = CYLINDRICAL_SURFACE ( 'NONE', #566, 10.00000000000000000 ) ;
#16 = VERTEX_POINT ( 'NONE', #664 ) ;
#17 = ORIENTED_EDGE ( 'NONE', *, *, #713, .F. ) ;
#18 = AXIS2_PLACEMENT_3D ( 'NONE', #310, #10, #132 ) ;
#19 = MECHANICAL_DESIGN_GEOMETRIC_PRESENTATION_REPRESENTATION (  '', ( #667 ), #331 ) ;
#20 = CARTESIAN_POINT ( 'NONE',  ( 170.0000000000000000, -4.336808689942017736E-16, -169.9999999999999432 ) ) ;
#21 = CARTESIAN_POINT ( 'NONE',  ( 0.000000000000000000, 3.000000000000000000, -234.9999999999999716 ) ) ;
#22 = ORIENTED_EDGE ( 'NONE', *, *, #211, .F. ) ;
#23 = ORIENTED_EDGE ( 'NONE', *, *, #516, .T. ) ;
#24 = ADVANCED_FACE ( 'NONE', ( #105 ), #355, .T. ) ;
#25 = CARTESIAN_POINT ( 'NONE',  ( 158.3863946177196453, 0.000000000000000000, -228.9999999999999432 ) ) ;
#26 = AXIS2_PLACEMENT_3D ( 'NONE', #369, #417, #363 ) ;
#27 = DIRECTION ( 'NONE',  ( -0.000000000000000000, 1.000000000000000000, -0.000000000000000000 ) ) ;
#28 = ORIENTED_EDGE ( 'NONE', *, *, #284, .F. ) ;
#29 = ORIENTED_EDGE ( 'NONE', *, *, #359, .F. ) ;
#30 = ADVANCED_FACE ( 'NONE', ( #669 ), #103, .F. ) ;
#31 = CARTESIAN_POINT ( 'NONE',  ( -265.0000000000000000, 3.000000000000000000, -9.999999999999928946 ) ) ;
#32 = VERTEX_POINT ( 'NONE', #747 ) ;
#33 = ORIENTED_EDGE ( 'NONE', *, *, #72, .F. ) ;
#34 = DIRECTION ( 'NONE',  ( 0.000000000000000000, 1.000000000000000000, 0.000000000000000000 ) ) ;
#35 = AXIS2_PLACEMENT_3D ( 'NONE', #77, #500, #323 ) ;
#36 = CARTESIAN_POINT ( 'NONE',  ( -170.0000000000000000, -4.336808689942017736E-16, -169.9999999999999432 ) ) ;
#37 = EDGE_CURVE ( 'NONE', #476, #349, #599, .T. ) ;
#38 = ORIENTED_EDGE ( 'NONE', *, *, #706, .F. ) ;
#39 = ORIENTED_EDGE ( 'NONE', *, *, #489, .F. ) ;
#40 = DIRECTION ( 'NONE',  ( 0.000000000000000000, 0.000000000000000000, 1.000000000000000000 ) ) ;
#41 = EDGE_CURVE ( 'NONE', #99, #556, #739, .T. ) ;
#42 = AXIS2_PLACEMENT_3D ( 'NONE', #66, #624, #319 ) ;
#43 = ORIENTED_EDGE ( 'NONE', *, *, #180, .F. ) ;
#44 = VERTEX_POINT ( 'NONE', #429 ) ;
#45 = AXIS2_PLACEMENT_3D ( 'NONE', #260, #770, #513 ) ;
#46 = CARTESIAN_POINT ( 'NONE',  ( 0.000000000000000000, 0.000000000000000000, 0.000000000000000000 ) ) ;
#47 = DIRECTION ( 'NONE',  ( 0.000000000000000000, 1.000000000000000000, 0.000000000000000000 ) ) ;
#48 = CARTESIAN_POINT ( 'NONE',  ( 0.000000000000000000, 3.000000000000000000, -234.9999999999999716 ) ) ;
#49 = CIRCLE ( 'NONE', #5, 4.500000000000003553 ) ;
#50 = DIRECTION ( 'NONE',  ( 0.000000000000000000, 1.000000000000000000, 0.000000000000000000 ) ) ;
#51 = AXIS2_PLACEMENT_3D ( 'NONE', #273, #277, #587 ) ;
#52 = CARTESIAN_POINT ( 'NONE',  ( 275.0000000000000000, 3.000000000000000000, -219.9999999999998863 ) ) ;
#53 = LINE ( 'NONE', #488, #391 ) ;
#54 = FACE_OUTER_BOUND ( 'NONE', #178, .T. ) ;
#55 = DIRECTION ( 'NONE',  ( 0.000000000000000000, 1.000000000000000000, 0.000000000000000000 ) ) ;
#56 = CARTESIAN_POINT ( 'NONE',  ( 0.000000000000000000, 0.000000000000000000, -229.9999999999999432 ) ) ;
#57 = CARTESIAN_POINT ( 'NONE',  ( 275.0000000000000000, 3.000000000000000000, 7.041719095097281116E-14 ) ) ;
#58 = AXIS2_PLACEMENT_3D ( 'NONE', #714, #768, #327 ) ;
#59 = EDGE_CURVE ( 'NONE', #213, #407, #296, .T. ) ;
#60 = CARTESIAN_POINT ( 'NONE',  ( -265.0000000000000000, 0.000000000000000000, -9.999999999999928946 ) ) ;
#61 = DIRECTION ( 'NONE',  ( 0.000000000000000000, 1.000000000000000000, 0.000000000000000000 ) ) ;
#62 = ORIENTED_EDGE ( 'NONE', *, *, #740, .F. ) ;
#63 = CIRCLE ( 'NONE', #685, 157.5000000000000284 ) ;
#64 = CARTESIAN_POINT ( 'NONE',  ( 0.000000000000000000, 0.000000000000000000, 0.000000000000000000 ) ) ;
#65 = DIRECTION ( 'NONE',  ( -0.000000000000000000, 1.000000000000000000, -0.000000000000000000 ) ) ;
#66 = CARTESIAN_POINT ( 'NONE',  ( 170.0000000000000000, 2.999999999999999556, -169.9999999999999432 ) ) ;
#67 = EDGE_CURVE ( 'NONE', #594, #683, #53, .T. ) ;
#68 = DIRECTION ( 'NONE',  ( 0.000000000000000000, 1.000000000000000000, 0.000000000000000000 ) ) ;
#69 = CARTESIAN_POINT ( 'NONE',  ( 0.000000000000000000, 3.000000000000000000, -77.49999999999992895 ) ) ;
#70 = ORIENTED_EDGE ( 'NONE', *, *, #660, .F. ) ;
#71 = VECTOR ( 'NONE', #585, 1000.000000000000000 ) ;
#72 = EDGE_CURVE ( 'NONE', #32, #423, #542, .T. ) ;
#73 = DIRECTION ( 'NONE',  ( 0.000000000000000000, 0.000000000000000000, 1.000000000000000000 ) ) ;
#74 = LINE ( 'NONE', #12, #140 ) ;
#75 = ORIENTED_EDGE ( 'NONE', *, *, #699, .T. ) ;
#76 = EDGE_LOOP ( 'NONE', ( #335, #134, #89, #514 ) ) ;
#77 = CARTESIAN_POINT ( 'NONE',  ( 75.00000000000001421, 2.999999999999999556, -59.99999999999992895 ) ) ;
#78 = CARTESIAN_POINT ( 'NONE',  ( 0.000000000000000000, 3.000000000000000000, -234.9999999999999716 ) ) ;
#79 = ORIENTED_EDGE ( 'NONE', *, *, #37, .T. ) ;
#80 = CARTESIAN_POINT ( 'NONE',  ( 265.0000000000000000, 3.000000000000000000, -219.9999999999999432 ) ) ;
#81 = DIRECTION ( 'NONE',  ( 0.000000000000000000, 0.000000000000000000, 1.000000000000000000 ) ) ;
#82 = ORIENTED_EDGE ( 'NONE', *, *, #72, .T. ) ;
#83 = LINE ( 'NONE', #206, #135 ) ;
#84 = CIRCLE ( 'NONE', #261, 4.500000000000003553 ) ;
#85 = DIRECTION ( 'NONE',  ( 0.000000000000000000, 1.000000000000000000, 0.000000000000000000 ) ) ;
#86 = ORIENTED_EDGE ( 'NONE', *, *, #284, .T. ) ;
#87 = DIRECTION ( 'NONE',  ( 0.000000000000000000, 1.000000000000000000, 0.000000000000000000 ) ) ;
#88 = DIRECTION ( 'NONE',  ( 0.000000000000000000, 0.000000000000000000, 1.000000000000000000 ) ) ;
#89 = ORIENTED_EDGE ( 'NONE', *, *, #626, .T. ) ;
#90 = VERTEX_POINT ( 'NONE', #299 ) ;
#91 = LINE ( 'NONE', #704, #527 ) ;
#92 = DIRECTION ( 'NONE',  ( 0.000000000000000000, 1.000000000000000000, 0.000000000000000000 ) ) ;
#93 = ORIENTED_EDGE ( 'NONE', *, *, #670, .T. ) ;
#94 = EDGE_LOOP ( 'NONE', ( #145, #38, #129, #408 ) ) ;
#95 = DIRECTION ( 'NONE',  ( 0.000000000000000000, 0.000000000000000000, 1.000000000000000000 ) ) ;
#96 = ADVANCED_FACE ( 'NONE', ( #545, #305, #801, #235, #485 ), #367, .T. ) ;
#97 = LINE ( 'NONE', #151, #658 ) ;
#98 = CIRCLE ( 'NONE', #332, 1.000000000000000888 ) ;
#99 = VERTEX_POINT ( 'NONE', #803 ) ;
#100 = CARTESIAN_POINT ( 'NONE',  ( -265.0000000000000000, 3.000000000000000000, -229.9999999999999432 ) ) ;
#101 = DIRECTION ( 'NONE',  ( 0.000000000000000000, 1.000000000000000000, 0.000000000000000000 ) ) ;
#102 = FACE_OUTER_BOUND ( 'NONE', #144, .T. ) ;
#103 = CYLINDRICAL_SURFACE ( 'NONE', #192, 4.500000000000003553 ) ;
#104 = DIRECTION ( 'NONE',  ( 0.000000000000000000, 0.000000000000000000, 1.000000000000000000 ) ) ;
#105 = FACE_OUTER_BOUND ( 'NONE', #463, .T. ) ;
#106 = SURFACE_SIDE_STYLE ('',( #737 ) ) ;
#107 = CARTESIAN_POINT ( 'NONE',  ( -157.3871113709201381, 3.000000000000000000, -229.0378548895898518 ) ) ;
#108 = DIRECTION ( 'NONE',  ( -1.000000000000000000, 0.000000000000000000, 0.000000000000000000 ) ) ;
#109 = CIRCLE ( 'NONE', #45, 10.00000000000000000 ) ;
#110 = CARTESIAN_POINT ( 'NONE',  ( -158.3863946177196453, 0.000000000000000000, -229.9999999999999432 ) ) ;
#111 = EDGE_CURVE ( 'NONE', #320, #330, #743, .T. ) ;
#112 = ORIENTED_EDGE ( 'NONE', *, *, #230, .F. ) ;
#113 =( NAMED_UNIT ( * ) SI_UNIT ( $, .STERADIAN. ) SOLID_ANGLE_UNIT ( ) );
#114 = ADVANCED_FACE ( 'NONE', ( #182 ), #633, .T. ) ;
#115 = DIRECTION ( 'NONE',  ( 0.000000000000000000, 0.000000000000000000, 1.000000000000000000 ) ) ;
#116 = EDGE_CURVE ( 'NONE', #562, #466, #480, .T. ) ;
#117 = LINE ( 'NONE', #620, #552 ) ;
#118 = VECTOR ( 'NONE', #395, 1000.000000000000000 ) ;
#119 = ORIENTED_EDGE ( 'NONE', *, *, #211, .T. ) ;
#120 = CIRCLE ( 'NONE', #540, 10.00000000000000000 ) ;
#121 = DIRECTION ( 'NONE',  ( 1.000000000000000000, 0.000000000000000000, 0.000000000000000000 ) ) ;
#122 = DIRECTION ( 'NONE',  ( 0.000000000000000000, 0.000000000000000000, 1.000000000000000000 ) ) ;
#123 = CARTESIAN_POINT ( 'NONE',  ( 170.0000000000000000, -4.336808689942017736E-16, -165.4999999999999147 ) ) ;
#124 = VERTEX_POINT ( 'NONE', #691 ) ;
#125 = EDGE_LOOP ( 'NONE', ( #217, #86, #212, #415 ) ) ;
#126 = EDGE_CURVE ( 'NONE', #504, #592, #245, .T. ) ;
#127 = CARTESIAN_POINT ( 'NONE',  ( -157.3871113709201381, 0.000000000000000000, -229.0378548895898518 ) ) ;
#128 = DIRECTION ( 'NONE',  ( 0.000000000000000000, 1.000000000000000000, 0.000000000000000000 ) ) ;
#129 = ORIENTED_EDGE ( 'NONE', *, *, #632, .T. ) ;
#130 = ORIENTED_EDGE ( 'NONE', *, *, #298, .F. ) ;
#131 = APPLICATION_CONTEXT ( 'automotive_design' ) ;
#132 = DIRECTION ( 'NONE',  ( 0.000000000000000000, 0.000000000000000000, 1.000000000000000000 ) ) ;
#133 = CARTESIAN_POINT ( 'NONE',  ( 265.0000000000000000, 3.000000000000000000, -9.999999999999928946 ) ) ;
#134 = ORIENTED_EDGE ( 'NONE', *, *, #655, .T. ) ;
#135 = VECTOR ( 'NONE', #718, 1000.000000000000000 ) ;
#136 = ADVANCED_FACE ( 'NONE', ( #324 ), #15, .T. ) ;
#137 = DIRECTION ( 'NONE',  ( 0.000000000000000000, 0.000000000000000000, 1.000000000000000000 ) ) ;
#138 = CARTESIAN_POINT ( 'NONE',  ( -275.0000000000000000, 3.000000000000000000, -219.9999999999998863 ) ) ;
#139 = ORIENTED_EDGE ( 'NONE', *, *, #195, .T. ) ;
#140 = VECTOR ( 'NONE', #257, 1000.000000000000000 ) ;
#141 = CARTESIAN_POINT ( 'NONE',  ( -75.00000000000001421, 2.999999999999999556, -59.99999999999992895 ) ) ;
#142 = ADVANCED_FACE ( 'NONE', ( #496 ), #755, .T. ) ;
#143 = FACE_OUTER_BOUND ( 'NONE', #689, .T. ) ;
#144 = EDGE_LOOP ( 'NONE', ( #520, #716, #191, #420 ) ) ;
#145 = ORIENTED_EDGE ( 'NONE', *, *, #126, .F. ) ;
#146 = CARTESIAN_POINT ( 'NONE',  ( -265.0000000000000000, 0.000000000000000000, -229.9999999999999432 ) ) ;
#147 = LINE ( 'NONE', #523, #228 ) ;
#148 = ORIENTED_EDGE ( 'NONE', *, *, #736, .F. ) ;
#149 = EDGE_LOOP ( 'NONE', ( #651, #275 ) ) ;
#150 = CIRCLE ( 'NONE', #464, 1.000000000000000888 ) ;
#151 = CARTESIAN_POINT ( 'NONE',  ( -75.00000000000001421, 2.999999999999999556, -64.49999999999992895 ) ) ;
#152 = ORIENTED_EDGE ( 'NONE', *, *, #195, .F. ) ;
#153 = LINE ( 'NONE', #772, #118 ) ;
#154 = VECTOR ( 'NONE', #697, 1000.000000000000000 ) ;
#155 = LINE ( 'NONE', #334, #449 ) ;
#156 = UNCERTAINTY_MEASURE_WITH_UNIT (LENGTH_MEASURE( 1.000000000000000082E-05 ), #412, 'distance_accuracy_value', 'NONE');
#157 = ORIENTED_EDGE ( 'NONE', *, *, #713, .T. ) ;
#158 = EDGE_CURVE ( 'NONE', #592, #698, #595, .T. ) ;
#159 = CARTESIAN_POINT ( 'NONE',  ( 275.0000000000000000, 0.000000000000000000, 0.000000000000000000 ) ) ;
#160 = CARTESIAN_POINT ( 'NONE',  ( -170.0000000000000000, -4.336808689942017736E-16, -165.4999999999999147 ) ) ;
#161 = ORIENTED_EDGE ( 'NONE', *, *, #59, .T. ) ;
#162 = CIRCLE ( 'NONE', #6, 4.500000000000003553 ) ;
#163 = DIRECTION ( 'NONE',  ( 0.000000000000000000, -0.000000000000000000, 1.000000000000000000 ) ) ;
#164 = AXIS2_PLACEMENT_3D ( 'NONE', #48, #598, #231 ) ;
#165 = ORIENTED_EDGE ( 'NONE', *, *, #444, .F. ) ;
#166 = DIRECTION ( 'NONE',  ( 0.000000000000000000, 1.000000000000000000, 0.000000000000000000 ) ) ;
#167 = EDGE_CURVE ( 'NONE', #405, #592, #63, .T. ) ;
#168 = ORIENTED_EDGE ( 'NONE', *, *, #158, .F. ) ;
#169 = CARTESIAN_POINT ( 'NONE',  ( 75.00000000000001421, 2.999999999999999556, -59.99999999999992895 ) ) ;
#170 = EDGE_CURVE ( 'NONE', #232, #390, #117, .T. ) ;
#171 = ORIENTED_EDGE ( 'NONE', *, *, #632, .F. ) ;
#172 = PRODUCT_DEFINITION_SHAPE ( 'NONE', 'NONE',  #729 ) ;
#173 = CARTESIAN_POINT ( 'NONE',  ( 0.000000000000000000, 0.000000000000000000, -77.49999999999992895 ) ) ;
#174 = AXIS2_PLACEMENT_3D ( 'NONE', #64, #243, #121 ) ;
#175 = VERTEX_POINT ( 'NONE', #123 ) ;
#176 = EDGE_CURVE ( 'NONE', #722, #498, #446, .T. ) ;
#177 = DIRECTION ( 'NONE',  ( 0.000000000000000000, 1.000000000000000000, 0.000000000000000000 ) ) ;
#178 = EDGE_LOOP ( 'NONE', ( #452, #473, #221, #765 ) ) ;
#179 = AXIS2_PLACEMENT_3D ( 'NONE', #190, #682, #438 ) ;
#180 = EDGE_CURVE ( 'NONE', #594, #702, #336, .T. ) ;
#181 = DIRECTION ( 'NONE',  ( 0.000000000000000000, 0.000000000000000000, 1.000000000000000000 ) ) ;
#182 = FACE_OUTER_BOUND ( 'NONE', #125, .T. ) ;
#183 = EDGE_LOOP ( 'NONE', ( #643, #9, #254, #684, #434, #350, #43, #578, #720, #559, #28, #621, #751 ) ) ;
#184 = DIRECTION ( 'NONE',  ( 0.000000000000000000, 1.000000000000000000, 0.000000000000000000 ) ) ;
#185 = CIRCLE ( 'NONE', #579, 4.500000000000003553 ) ;
#186 = DIRECTION ( 'NONE',  ( 0.000000000000000000, 1.000000000000000000, 0.000000000000000000 ) ) ;
#187 = ORIENTED_EDGE ( 'NONE', *, *, #564, .F. ) ;
#188 = CIRCLE ( 'NONE', #644, 4.500000000000003553 ) ;
#189 = CARTESIAN_POINT ( 'NONE',  ( -157.3871113709201381, 3.000000000000000000, -229.0378548895898518 ) ) ;
#190 = CARTESIAN_POINT ( 'NONE',  ( -265.0000000000000000, 3.000000000000000000, -219.9999999999999432 ) ) ;
#191 = ORIENTED_EDGE ( 'NONE', *, *, #158, .T. ) ;
#192 = AXIS2_PLACEMENT_3D ( 'NONE', #239, #47, #357 ) ;
#193 = LINE ( 'NONE', #189, #399 ) ;
#194 = DIRECTION ( 'NONE',  ( 0.000000000000000000, 1.000000000000000000, 0.000000000000000000 ) ) ;
#195 = EDGE_CURVE ( 'NONE', #175, #562, #809, .T. ) ;
#196 = CYLINDRICAL_SURFACE ( 'NONE', #512, 1.000000000000000888 ) ;
#197 = DIRECTION ( 'NONE',  ( 0.000000000000000000, 0.000000000000000000, 1.000000000000000000 ) ) ;
#198 = EDGE_LOOP ( 'NONE', ( #13, #23, #269, #152 ) ) ;
#199 = VERTEX_POINT ( 'NONE', #749 ) ;
#200 = VECTOR ( 'NONE', #675, 1000.000000000000000 ) ;
#201 = DIRECTION ( 'NONE',  ( 0.000000000000000000, 0.000000000000000000, 1.000000000000000000 ) ) ;
#202 = CARTESIAN_POINT ( 'NONE',  ( -265.0000000000000000, 3.000000000000000000, -9.999999999999928946 ) ) ;
#203 = VERTEX_POINT ( 'NONE', #138 ) ;
#204 = VERTEX_POINT ( 'NONE', #3 ) ;
#205 = VECTOR ( 'NONE', #311, 1000.000000000000000 ) ;
#206 = CARTESIAN_POINT ( 'NONE',  ( 0.000000000000000000, 0.000000000000000000, 7.041719095097281116E-14 ) ) ;
#207 = DIRECTION ( 'NONE',  ( 0.000000000000000000, 1.000000000000000000, 0.000000000000000000 ) ) ;
#208 = ORIENTED_EDGE ( 'NONE', *, *, #740, .T. ) ;
#209 = SURFACE_SIDE_STYLE ('',( #776 ) ) ;
#210 = DIRECTION ( 'NONE',  ( 0.000000000000000000, 0.000000000000000000, 1.000000000000000000 ) ) ;
#211 = EDGE_CURVE ( 'NONE', #443, #44, #373, .T. ) ;
#212 = ORIENTED_EDGE ( 'NONE', *, *, #601, .T. ) ;
#213 = VERTEX_POINT ( 'NONE', #381 ) ;
#214 = CARTESIAN_POINT ( 'NONE',  ( 75.00000000000001421, -4.336808689942017736E-16, -59.99999999999992895 ) ) ;
#215 = DIRECTION ( 'NONE',  ( 0.000000000000000000, 1.000000000000000000, 0.000000000000000000 ) ) ;
#216 = EDGE_CURVE ( 'NONE', #683, #811, #109, .T. ) ;
#217 = ORIENTED_EDGE ( 'NONE', *, *, #312, .F. ) ;
#218 = DIRECTION ( 'NONE',  ( -1.000000000000000000, 0.000000000000000000, 0.000000000000000000 ) ) ;
#219 = CIRCLE ( 'NONE', #454, 10.00000000000000000 ) ;
#220 = DIRECTION ( 'NONE',  ( 0.000000000000000000, 1.000000000000000000, 0.000000000000000000 ) ) ;
#221 = ORIENTED_EDGE ( 'NONE', *, *, #501, .T. ) ;
#222 = EDGE_LOOP ( 'NONE', ( #467, #756, #727, #274 ) ) ;
#223 = CARTESIAN_POINT ( 'NONE',  ( 275.0000000000000000, 3.000000000000000000, 7.041719095097281116E-14 ) ) ;
#224 = ORIENTED_EDGE ( 'NONE', *, *, #348, .F. ) ;
#225 = CIRCLE ( 'NONE', #329, 10.00000000000000888 ) ;
#226 = AXIS2_PLACEMENT_3D ( 'NONE', #450, #34, #280 ) ;
#227 = CYLINDRICAL_SURFACE ( 'NONE', #796, 4.500000000000003553 ) ;
#228 = VECTOR ( 'NONE', #328, 1000.000000000000000 ) ;
#229 = EDGE_LOOP ( 'NONE', ( #157, #340 ) ) ;
#230 = EDGE_CURVE ( 'NONE', #476, #320, #351, .T. ) ;
#231 = DIRECTION ( 'NONE',  ( 0.000000000000000000, 0.000000000000000000, 1.000000000000000000 ) ) ;
#232 = VERTEX_POINT ( 'NONE', #8 ) ;
#233 =( NAMED_UNIT ( * ) SI_UNIT ( $, .STERADIAN. ) SOLID_ANGLE_UNIT ( ) );
#234 = DIRECTION ( 'NONE',  ( 0.000000000000000000, 1.000000000000000000, 0.000000000000000000 ) ) ;
#235 = FACE_BOUND ( 'NONE', #788, .T. ) ;
#236 = SURFACE_STYLE_USAGE ( .BOTH. , #106 ) ;
#237 = LINE ( 'NONE', #730, #725 ) ;
#238 = AXIS2_PLACEMENT_3D ( 'NONE', #252, #681, #181 ) ;
#239 = CARTESIAN_POINT ( 'NONE',  ( -75.00000000000001421, 2.999999999999999556, -59.99999999999992895 ) ) ;
#240 = EDGE_CURVE ( 'NONE', #203, #16, #253, .T. ) ;
#241 = CARTESIAN_POINT ( 'NONE',  ( 75.00000000000001421, 2.999999999999999556, -55.49999999999992184 ) ) ;
#242 = DIRECTION ( 'NONE',  ( 0.000000000000000000, 1.000000000000000000, 0.000000000000000000 ) ) ;
#243 = DIRECTION ( 'NONE',  ( 0.000000000000000000, 0.000000000000000000, 1.000000000000000000 ) ) ;
#244 = CARTESIAN_POINT ( 'NONE',  ( 275.0000000000000000, 3.000000000000000000, -229.9999999999999432 ) ) ;
#245 = LINE ( 'NONE', #69, #732 ) ;
#246 = EDGE_LOOP ( 'NONE', ( #112, #79, #750, #435 ) ) ;
#247 = CYLINDRICAL_SURFACE ( 'NONE', #35, 4.500000000000003553 ) ;
#248 = EDGE_CURVE ( 'NONE', #448, #698, #74, .T. ) ;
#249 = CIRCLE ( 'NONE', #753, 4.500000000000003553 ) ;
#250 = DIRECTION ( 'NONE',  ( 0.000000000000000000, 0.000000000000000000, 1.000000000000000000 ) ) ;
#251 = ORIENTED_EDGE ( 'NONE', *, *, #264, .F. ) ;
#252 = CARTESIAN_POINT ( 'NONE',  ( 170.0000000000000000, 2.999999999999999556, -169.9999999999999432 ) ) ;
#253 = LINE ( 'NONE', #506, #568 ) ;
#254 = ORIENTED_EDGE ( 'NONE', *, *, #694, .F. ) ;
#255 = AXIS2_PLACEMENT_3D ( 'NONE', #608, #55, #548 ) ;
#256 = CARTESIAN_POINT ( 'NONE',  ( -275.0000000000000000, 3.000000000000000000, -219.9999999999998863 ) ) ;
#257 = DIRECTION ( 'NONE',  ( 0.000000000000000000, 1.000000000000000000, 0.000000000000000000 ) ) ;
#258 = ADVANCED_FACE ( 'NONE', ( #510 ), #763, .T. ) ;
#259 = CARTESIAN_POINT ( 'NONE',  ( -275.0000000000000000, 0.000000000000000000, -9.999999999999925393 ) ) ;
#260 = CARTESIAN_POINT ( 'NONE',  ( 265.0000000000000000, 3.000000000000000000, -9.999999999999928946 ) ) ;
#261 = AXIS2_PLACEMENT_3D ( 'NONE', #603, #483, #738 ) ;
#262 = ORIENTED_EDGE ( 'NONE', *, *, #736, .T. ) ;
#263 = VERTEX_POINT ( 'NONE', #456 ) ;
#264 = EDGE_CURVE ( 'NONE', #16, #44, #219, .T. ) ;
#265 = VECTOR ( 'NONE', #581, 1000.000000000000000 ) ;
#266 = CIRCLE ( 'NONE', #728, 4.500000000000003553 ) ;
#267 = CARTESIAN_POINT ( 'NONE',  ( 275.0000000000000000, 0.000000000000000000, -9.999999999999925393 ) ) ;
#268 = CARTESIAN_POINT ( 'NONE',  ( -265.0000000000000000, 0.000000000000000000, -219.9999999999999432 ) ) ;
#269 = ORIENTED_EDGE ( 'NONE', *, *, #573, .T. ) ;
#270 = VECTOR ( 'NONE', #242, 1000.000000000000000 ) ;
#271 = DIRECTION ( 'NONE',  ( -0.000000000000000000, 1.000000000000000000, -0.000000000000000000 ) ) ;
#272 = EDGE_CURVE ( 'NONE', #577, #556, #662, .T. ) ;
#273 = CARTESIAN_POINT ( 'NONE',  ( 275.0000000000000000, 3.000000000000000000, -229.9999999999999432 ) ) ;
#274 = ORIENTED_EDGE ( 'NONE', *, *, #216, .F. ) ;
#275 = ORIENTED_EDGE ( 'NONE', *, *, #230, .T. ) ;
#276 =( NAMED_UNIT ( * ) PLANE_ANGLE_UNIT ( ) SI_UNIT ( $, .RADIAN. ) );
#277 = DIRECTION ( 'NONE',  ( 0.000000000000000000, 0.000000000000000000, -1.000000000000000000 ) ) ;
#278 = ORIENTED_EDGE ( 'NONE', *, *, #549, .T. ) ;
#279 = AXIS2_PLACEMENT_3D ( 'NONE', #374, #385, #137 ) ;
#280 = DIRECTION ( 'NONE',  ( 0.000000000000000000, 0.000000000000000000, 1.000000000000000000 ) ) ;
#281 = DIRECTION ( 'NONE',  ( 0.000000000000000000, 1.000000000000000000, 0.000000000000000000 ) ) ;
#282 = ORIENTED_EDGE ( 'NONE', *, *, #549, .F. ) ;
#283 = EDGE_LOOP ( 'NONE', ( #130, #764, #538, #70 ) ) ;
#284 = EDGE_CURVE ( 'NONE', #731, #263, #353, .T. ) ;
#285 = CARTESIAN_POINT ( 'NONE',  ( 275.0000000000000000, 3.000000000000000000, -9.999999999999925393 ) ) ;
#286 = DIRECTION ( 'NONE',  ( -0.000000000000000000, 1.000000000000000000, -0.000000000000000000 ) ) ;
#287 = ORIENTED_EDGE ( 'NONE', *, *, #272, .T. ) ;
#288 = ORIENTED_EDGE ( 'NONE', *, *, #424, .T. ) ;
#289 = ADVANCED_FACE ( 'NONE', ( #637 ), #782, .F. ) ;
#290 = PLANE ( 'NONE',  #358 ) ;
#291 = ORIENTED_EDGE ( 'NONE', *, *, #586, .T. ) ;
#292 = EDGE_CURVE ( 'NONE', #320, #476, #346, .T. ) ;
#293 = AXIS2_PLACEMENT_3D ( 'NONE', #268, #518, #343 ) ;
#294 = CARTESIAN_POINT ( 'NONE',  ( 170.0000000000000000, 2.999999999999999556, -169.9999999999999432 ) ) ;
#295 = CIRCLE ( 'NONE', #401, 4.500000000000003553 ) ;
#296 = LINE ( 'NONE', #735, #583 ) ;
#297 = FACE_BOUND ( 'NONE', #229, .T. ) ;
#298 = EDGE_CURVE ( 'NONE', #204, #90, #710, .T. ) ;
#299 = CARTESIAN_POINT ( 'NONE',  ( 265.0000000000000000, 3.000000000000000000, -229.9999999999999432 ) ) ;
#300 = EDGE_CURVE ( 'NONE', #702, #811, #155, .T. ) ;
#301 = FACE_OUTER_BOUND ( 'NONE', #642, .T. ) ;
#302 = CARTESIAN_POINT ( 'NONE',  ( 75.00000000000001421, 2.999999999999999556, -55.49999999999992184 ) ) ;
#303 = FACE_BOUND ( 'NONE', #149, .T. ) ;
#304 = CIRCLE ( 'NONE', #226, 157.5000000000000284 ) ;
#305 = FACE_BOUND ( 'NONE', #321, .T. ) ;
#306 = AXIS2_PLACEMENT_3D ( 'NONE', #21, #777, #593 ) ;
#307 = CARTESIAN_POINT ( 'NONE',  ( 265.0000000000000000, 0.000000000000000000, -219.9999999999999432 ) ) ;
#308 = DIRECTION ( 'NONE',  ( 0.000000000000000000, 1.000000000000000000, 0.000000000000000000 ) ) ;
#309 = ORIENTED_EDGE ( 'NONE', *, *, #694, .T. ) ;
#310 = CARTESIAN_POINT ( 'NONE',  ( 170.0000000000000000, 2.999999999999999556, -169.9999999999999432 ) ) ;
#311 = DIRECTION ( 'NONE',  ( 0.000000000000000000, 1.000000000000000000, 0.000000000000000000 ) ) ;
#312 = EDGE_CURVE ( 'NONE', #731, #407, #147, .T. ) ;
#313 = FACE_OUTER_BOUND ( 'NONE', #394, .T. ) ;
#314 = CIRCLE ( 'NONE', #781, 10.00000000000000888 ) ;
#315 = CARTESIAN_POINT ( 'NONE',  ( -170.0000000000000000, -4.336808689942017736E-16, -169.9999999999999432 ) ) ;
#316 = ORIENTED_EDGE ( 'NONE', *, *, #564, .T. ) ;
#317 = CARTESIAN_POINT ( 'NONE',  ( 158.3863946177196453, 3.000000000000000000, -228.9999999999999432 ) ) ;
#318 = ADVANCED_FACE ( 'NONE', ( #143 ), #471, .T. ) ;
#319 = DIRECTION ( 'NONE',  ( 0.000000000000000000, 0.000000000000000000, 1.000000000000000000 ) ) ;
#320 = VERTEX_POINT ( 'NONE', #160 ) ;
#321 = EDGE_LOOP ( 'NONE', ( #569, #711 ) ) ;
#322 = VECTOR ( 'NONE', #666, 1000.000000000000000 ) ;
#323 = DIRECTION ( 'NONE',  ( 0.000000000000000000, 0.000000000000000000, 1.000000000000000000 ) ) ;
#324 = FACE_OUTER_BOUND ( 'NONE', #222, .T. ) ;
#325 = EDGE_LOOP ( 'NONE', ( #22, #462, #759, #148 ) ) ;
#326 = PRODUCT ( '202500220_02_Deckel Ø325_V1.0', '202500220_02_Deckel Ø325_V1.0', '', ( #436 ) ) ;
#327 = DIRECTION ( 'NONE',  ( 0.000000000000000000, 0.000000000000000000, 1.000000000000000000 ) ) ;
#328 = DIRECTION ( 'NONE',  ( 0.000000000000000000, 1.000000000000000000, 0.000000000000000000 ) ) ;
#329 = AXIS2_PLACEMENT_3D ( 'NONE', #307, #184, #557 ) ;
#330 = VERTEX_POINT ( 'NONE', #773 ) ;
#331 =( GEOMETRIC_REPRESENTATION_CONTEXT ( 3 ) GLOBAL_UNCERTAINTY_ASSIGNED_CONTEXT ( ( #721 ) ) GLOBAL_UNIT_ASSIGNED_CONTEXT ( ( #402, #276, #649 ) ) REPRESENTATION_CONTEXT ( 'NONE', 'WORKASPACE' ) );
#332 = AXIS2_PLACEMENT_3D ( 'NONE', #663, #416, #802 ) ;
#333 = FILL_AREA_STYLE_COLOUR ( '', #461 ) ;
#334 = CARTESIAN_POINT ( 'NONE',  ( 275.0000000000000000, 3.000000000000000000, -9.999999999999925393 ) ) ;
#335 = ORIENTED_EDGE ( 'NONE', *, *, #601, .F. ) ;
#336 = CIRCLE ( 'NONE', #799, 10.00000000000000000 ) ;
#337 = LINE ( 'NONE', #159, #71 ) ;
#338 = ADVANCED_BREP_SHAPE_REPRESENTATION ( '202500220_02_Deckel Ï325_V1.0', ( #810, #174 ), #752 ) ;
#339 = CYLINDRICAL_SURFACE ( 'NONE', #306, 157.5000000000000284 ) ;
#340 = ORIENTED_EDGE ( 'NONE', *, *, #364, .T. ) ;
#341 = ORIENTED_EDGE ( 'NONE', *, *, #170, .F. ) ;
#342 = DIRECTION ( 'NONE',  ( 0.000000000000000000, 1.000000000000000000, 0.000000000000000000 ) ) ;
#343 = DIRECTION ( 'NONE',  ( 0.000000000000000000, 0.000000000000000000, 1.000000000000000000 ) ) ;
#344 = ORIENTED_EDGE ( 'NONE', *, *, #248, .T. ) ;
#345 = PRESENTATION_LAYER_ASSIGNMENT (  '', '', ( #794 ) ) ;
#346 = CIRCLE ( 'NONE', #696, 4.500000000000003553 ) ;
#347 = DIRECTION ( 'NONE',  ( 0.000000000000000000, 1.000000000000000000, 0.000000000000000000 ) ) ;
#348 = EDGE_CURVE ( 'NONE', #447, #213, #641, .T. ) ;
#349 = VERTEX_POINT ( 'NONE', #396 ) ;
#350 = ORIENTED_EDGE ( 'NONE', *, *, #766, .F. ) ;
#351 = CIRCLE ( 'NONE', #492, 4.500000000000003553 ) ;
#352 = CYLINDRICAL_SURFACE ( 'NONE', #164, 157.5000000000000284 ) ;
#353 = CIRCLE ( 'NONE', #293, 10.00000000000000888 ) ;
#354 = ADVANCED_FACE ( 'NONE', ( #530 ), #393, .T. ) ;
#355 = PLANE ( 'NONE',  #534 ) ;
#356 = DIRECTION ( 'NONE',  ( 0.000000000000000000, 0.000000000000000000, 1.000000000000000000 ) ) ;
#357 = DIRECTION ( 'NONE',  ( 0.000000000000000000, 0.000000000000000000, 1.000000000000000000 ) ) ;
#358 = AXIS2_PLACEMENT_3D ( 'NONE', #46, #177, #425 ) ;
#359 = EDGE_CURVE ( 'NONE', #791, #124, #97, .T. ) ;
#360 = PRESENTATION_STYLE_ASSIGNMENT (( #236 ) ) ;
#361 = AXIS2_PLACEMENT_3D ( 'NONE', #141, #700, #392 ) ;
#362 = CARTESIAN_POINT ( 'NONE',  ( -75.00000000000001421, 2.999999999999999556, -55.49999999999992184 ) ) ;
#363 = DIRECTION ( 'NONE',  ( 0.000000000000000000, 0.000000000000000000, 1.000000000000000000 ) ) ;
#364 = EDGE_CURVE ( 'NONE', #584, #175, #185, .T. ) ;
#365 = CIRCLE ( 'NONE', #26, 1.000000000000000888 ) ;
#366 = DIRECTION ( 'NONE',  ( 0.000000000000000000, 0.000000000000000000, 1.000000000000000000 ) ) ;
#367 = PLANE ( 'NONE',  #255 ) ;
#368 = CARTESIAN_POINT ( 'NONE',  ( 157.3871113709201381, 0.000000000000000000, -229.0378548895898518 ) ) ;
#369 = CARTESIAN_POINT ( 'NONE',  ( -158.3863946177196453, 0.000000000000000000, -228.9999999999999432 ) ) ;
#370 = CIRCLE ( 'NONE', #18, 4.500000000000003553 ) ;
#371 = CARTESIAN_POINT ( 'NONE',  ( -275.0000000000000000, 3.000000000000000000, -9.999999999999925393 ) ) ;
#372 = PRESENTATION_LAYER_ASSIGNMENT (  '', '', ( #667 ) ) ;
#373 = LINE ( 'NONE', #687, #469 ) ;
#374 = CARTESIAN_POINT ( 'NONE',  ( -170.0000000000000000, 2.999999999999999556, -169.9999999999999432 ) ) ;
#375 = VECTOR ( 'NONE', #795, 1000.000000000000000 ) ;
#376 = CARTESIAN_POINT ( 'NONE',  ( -275.0000000000000000, 3.000000000000000000, 7.041719095097281116E-14 ) ) ;
#377 = ADVANCED_FACE ( 'NONE', ( #654 ), #339, .F. ) ;
#378 = ORIENTED_EDGE ( 'NONE', *, *, #292, .F. ) ;
#379 = ORIENTED_EDGE ( 'NONE', *, *, #37, .F. ) ;
#380 = CARTESIAN_POINT ( 'NONE',  ( 170.0000000000000000, 2.999999999999999556, -165.4999999999999147 ) ) ;
#381 = CARTESIAN_POINT ( 'NONE',  ( -158.3863946177196453, 3.000000000000000000, -229.9999999999999432 ) ) ;
#382 = ORIENTED_EDGE ( 'NONE', *, *, #300, .F. ) ;
#383 = EDGE_LOOP ( 'NONE', ( #532, #282, #784, #525 ) ) ;
#384 = EDGE_CURVE ( 'NONE', #791, #722, #249, .T. ) ;
#385 = DIRECTION ( 'NONE',  ( 0.000000000000000000, 1.000000000000000000, 0.000000000000000000 ) ) ;
#386 = DIRECTION ( 'NONE',  ( 0.000000000000000000, 0.000000000000000000, 1.000000000000000000 ) ) ;
#387 = ADVANCED_FACE ( 'NONE', ( #460 ), #790, .T. ) ;
#388 = DIRECTION ( 'NONE',  ( 0.000000000000000000, 0.000000000000000000, 1.000000000000000000 ) ) ;
#389 = DIRECTION ( 'NONE',  ( 0.000000000000000000, 1.000000000000000000, 0.000000000000000000 ) ) ;
#390 = VERTEX_POINT ( 'NONE', #526 ) ;
#391 = VECTOR ( 'NONE', #50, 1000.000000000000000 ) ;
#392 = DIRECTION ( 'NONE',  ( 0.000000000000000000, 0.000000000000000000, 1.000000000000000000 ) ) ;
#393 = CYLINDRICAL_SURFACE ( 'NONE', #499, 10.00000000000000888 ) ;
#394 = EDGE_LOOP ( 'NONE', ( #379, #378, #563, #778 ) ) ;
#395 = DIRECTION ( 'NONE',  ( 0.000000000000000000, 1.000000000000000000, 0.000000000000000000 ) ) ;
#396 = CARTESIAN_POINT ( 'NONE',  ( -170.0000000000000000, 2.999999999999999556, -174.4999999999999432 ) ) ;
#397 = VECTOR ( 'NONE', #207, 1000.000000000000000 ) ;
#398 = ORIENTED_EDGE ( 'NONE', *, *, #670, .F. ) ;
#399 = VECTOR ( 'NONE', #686, 1000.000000000000000 ) ;
#400 = ADVANCED_FACE ( 'NONE', ( #301 ), #547, .F. ) ;
#401 = AXIS2_PLACEMENT_3D ( 'NONE', #690, #748, #122 ) ;
#402 =( LENGTH_UNIT ( ) NAMED_UNIT ( * ) SI_UNIT ( .MILLI., .METRE. ) );
#403 = CARTESIAN_POINT ( 'NONE',  ( 265.0000000000000000, 3.000000000000000000, -229.9999999999999432 ) ) ;
#404 = ORIENTED_EDGE ( 'NONE', *, *, #660, .T. ) ;
#405 = VERTEX_POINT ( 'NONE', #107 ) ;
#406 = CARTESIAN_POINT ( 'NONE',  ( -158.3863946177196453, 3.000000000000000000, -228.9999999999999432 ) ) ;
#407 = VERTEX_POINT ( 'NONE', #100 ) ;
#408 = ORIENTED_EDGE ( 'NONE', *, *, #167, .T. ) ;
#409 = DIRECTION ( 'NONE',  ( 0.000000000000000000, 1.000000000000000000, 0.000000000000000000 ) ) ;
#410 = CARTESIAN_POINT ( 'NONE',  ( 170.0000000000000000, -4.336808689942017736E-16, -169.9999999999999432 ) ) ;
#411 = ORIENTED_EDGE ( 'NONE', *, *, #116, .T. ) ;
#412 =( LENGTH_UNIT ( ) NAMED_UNIT ( * ) SI_UNIT ( .MILLI., .METRE. ) );
#413 = CIRCLE ( 'NONE', #515, 4.500000000000003553 ) ;
#414 = DIRECTION ( 'NONE',  ( 1.000000000000000000, -0.000000000000000000, -0.000000000000000000 ) ) ;
#415 = ORIENTED_EDGE ( 'NONE', *, *, #636, .F. ) ;
#416 = DIRECTION ( 'NONE',  ( 0.000000000000000000, 1.000000000000000000, 0.000000000000000000 ) ) ;
#417 = DIRECTION ( 'NONE',  ( 0.000000000000000000, 1.000000000000000000, 0.000000000000000000 ) ) ;
#418 = EDGE_CURVE ( 'NONE', #405, #213, #98, .T. ) ;
#419 = DIRECTION ( 'NONE',  ( -0.000000000000000000, 1.000000000000000000, -0.000000000000000000 ) ) ;
#420 = ORIENTED_EDGE ( 'NONE', *, *, #248, .F. ) ;
#421 = CIRCLE ( 'NONE', #58, 4.500000000000003553 ) ;
#422 = LINE ( 'NONE', #668, #503 ) ;
#423 = VERTEX_POINT ( 'NONE', #52 ) ;
#424 = EDGE_CURVE ( 'NONE', #447, #731, #237, .T. ) ;
#425 = DIRECTION ( 'NONE',  ( 0.000000000000000000, -0.000000000000000000, 1.000000000000000000 ) ) ;
#426 = ORIENTED_EDGE ( 'NONE', *, *, #167, .F. ) ;
#427 = CARTESIAN_POINT ( 'NONE',  ( 265.0000000000000000, 0.000000000000000000, 7.041719095097281116E-14 ) ) ;
#428 = EDGE_CURVE ( 'NONE', #204, #232, #541, .T. ) ;
#429 = CARTESIAN_POINT ( 'NONE',  ( -265.0000000000000000, 3.000000000000000000, 7.041719095097281116E-14 ) ) ;
#430 = AXIS2_PLACEMENT_3D ( 'NONE', #406, #281, #582 ) ;
#431 = CARTESIAN_POINT ( 'NONE',  ( 0.000000000000000000, 3.000000000000000000, -77.49999999999992895 ) ) ;
#432 = MECHANICAL_DESIGN_GEOMETRIC_PRESENTATION_REPRESENTATION (  '', ( #794 ), #539 ) ;
#433 = DIRECTION ( 'NONE',  ( 0.000000000000000000, 1.000000000000000000, 0.000000000000000000 ) ) ;
#434 = ORIENTED_EDGE ( 'NONE', *, *, #586, .F. ) ;
#435 = ORIENTED_EDGE ( 'NONE', *, *, #111, .F. ) ;
#436 = PRODUCT_CONTEXT ( 'NONE', #131, 'mechanical' ) ;
#437 = PLANE ( 'NONE',  #678 ) ;
#438 = DIRECTION ( 'NONE',  ( 0.000000000000000000, 0.000000000000000000, 1.000000000000000000 ) ) ;
#439 = ORIENTED_EDGE ( 'NONE', *, *, #489, .T. ) ;
#440 = ADVANCED_FACE ( 'NONE', ( #303, #297, #544, #487, #742 ), #290, .F. ) ;
#441 = CYLINDRICAL_SURFACE ( 'NONE', #477, 4.500000000000003553 ) ;
#442 = CARTESIAN_POINT ( 'NONE',  ( 170.0000000000000000, 2.999999999999999556, -165.4999999999999147 ) ) ;
#443 = VERTEX_POINT ( 'NONE', #659 ) ;
#444 = EDGE_CURVE ( 'NONE', #330, #349, #413, .T. ) ;
#445 = DIRECTION ( 'NONE',  ( -1.000000000000000000, 0.000000000000000000, 0.000000000000000000 ) ) ;
#446 = LINE ( 'NONE', #628, #205 ) ;
#447 = VERTEX_POINT ( 'NONE', #110 ) ;
#448 = VERTEX_POINT ( 'NONE', #368 ) ;
#449 = VECTOR ( 'NONE', #701, 1000.000000000000000 ) ;
#450 = CARTESIAN_POINT ( 'NONE',  ( 0.000000000000000000, 0.000000000000000000, -234.9999999999999716 ) ) ;
#451 = DIRECTION ( 'NONE',  ( 0.000000000000000000, 0.000000000000000000, 1.000000000000000000 ) ) ;
#452 = ORIENTED_EDGE ( 'NONE', *, *, #384, .F. ) ;
#453 = ORIENTED_EDGE ( 'NONE', *, *, #216, .T. ) ;
#454 = AXIS2_PLACEMENT_3D ( 'NONE', #31, #92, #650 ) ;
#455 = DIRECTION ( 'NONE',  ( 0.000000000000000000, 0.000000000000000000, 1.000000000000000000 ) ) ;
#456 = CARTESIAN_POINT ( 'NONE',  ( -275.0000000000000000, 0.000000000000000000, -219.9999999999998863 ) ) ;
#457 = ORIENTED_EDGE ( 'NONE', *, *, #636, .T. ) ;
#458 = SURFACE_STYLE_USAGE ( .BOTH. , #209 ) ;
#459 = ADVANCED_FACE ( 'NONE', ( #102 ), #352, .F. ) ;
#460 = FACE_OUTER_BOUND ( 'NONE', #283, .T. ) ;
#461 = COLOUR_RGB ( '',0.5294117647058823595, 0.5490196078431373028, 0.5490196078431373028 ) ;
#462 = ORIENTED_EDGE ( 'NONE', *, *, #761, .T. ) ;
#463 = EDGE_LOOP ( 'NONE', ( #382, #775, #82, #472 ) ) ;
#464 = AXIS2_PLACEMENT_3D ( 'NONE', #25, #409, #570 ) ;
#465 = DIRECTION ( 'NONE',  ( 0.000000000000000000, 0.000000000000000000, 1.000000000000000000 ) ) ;
#466 = VERTEX_POINT ( 'NONE', #481 ) ;
#467 = ORIENTED_EDGE ( 'NONE', *, *, #67, .F. ) ;
#468 = ADVANCED_FACE ( 'NONE', ( #550 ), #537, .T. ) ;
#469 = VECTOR ( 'NONE', #128, 1000.000000000000000 ) ;
#470 = CARTESIAN_POINT ( 'NONE',  ( -75.00000000000001421, -4.336808689942017736E-16, -64.49999999999992895 ) ) ;
#471 = CYLINDRICAL_SURFACE ( 'NONE', #430, 1.000000000000000888 ) ;
#472 = ORIENTED_EDGE ( 'NONE', *, *, #11, .F. ) ;
#473 = ORIENTED_EDGE ( 'NONE', *, *, #359, .T. ) ;
#474 = ORIENTED_EDGE ( 'NONE', *, *, #176, .T. ) ;
#475 = DIRECTION ( 'NONE',  ( 0.000000000000000000, 0.000000000000000000, 1.000000000000000000 ) ) ;
#476 = VERTEX_POINT ( 'NONE', #793 ) ;
#477 = AXIS2_PLACEMENT_3D ( 'NONE', #808, #68, #115 ) ;
#478 = CARTESIAN_POINT ( 'NONE',  ( -170.0000000000000000, 2.999999999999999556, -169.9999999999999432 ) ) ;
#479 = ORIENTED_EDGE ( 'NONE', *, *, #384, .T. ) ;
#480 = CIRCLE ( 'NONE', #42, 4.500000000000003553 ) ;
#481 = CARTESIAN_POINT ( 'NONE',  ( 170.0000000000000000, 2.999999999999999556, -174.4999999999999432 ) ) ;
#482 = ORIENTED_EDGE ( 'NONE', *, *, #418, .T. ) ;
#483 = DIRECTION ( 'NONE',  ( -0.000000000000000000, 1.000000000000000000, -0.000000000000000000 ) ) ;
#484 = ADVANCED_FACE ( 'NONE', ( #800 ), #227, .F. ) ;
#485 = FACE_OUTER_BOUND ( 'NONE', #629, .T. ) ;
#486 =( LENGTH_UNIT ( ) NAMED_UNIT ( * ) SI_UNIT ( .MILLI., .METRE. ) );
#487 = FACE_BOUND ( 'NONE', #588, .T. ) ;
#488 = CARTESIAN_POINT ( 'NONE',  ( 265.0000000000000000, 3.000000000000000000, 7.041719095097281116E-14 ) ) ;
#489 = EDGE_CURVE ( 'NONE', #390, #698, #805, .T. ) ;
#490 = APPLICATION_PROTOCOL_DEFINITION ( 'draft international standard', 'automotive_design', 1998, #508 ) ;
#491 = FACE_OUTER_BOUND ( 'NONE', #707, .T. ) ;
#492 = AXIS2_PLACEMENT_3D ( 'NONE', #315, #561, #567 ) ;
#493 = DIRECTION ( 'NONE',  ( 0.000000000000000000, 0.000000000000000000, -1.000000000000000000 ) ) ;
#494 = EDGE_CURVE ( 'NONE', #556, #577, #266, .T. ) ;
#495 = FACE_OUTER_BOUND ( 'NONE', #657, .T. ) ;
#496 = FACE_OUTER_BOUND ( 'NONE', #76, .T. ) ;
#497 = EDGE_LOOP ( 'NONE', ( #316, #479 ) ) ;
#498 = VERTEX_POINT ( 'NONE', #362 ) ;
#499 = AXIS2_PLACEMENT_3D ( 'NONE', #576, #347, #40 ) ;
#500 = DIRECTION ( 'NONE',  ( 0.000000000000000000, 1.000000000000000000, 0.000000000000000000 ) ) ;
#501 = EDGE_CURVE ( 'NONE', #124, #498, #84, .T. ) ;
#502 = DIRECTION ( 'NONE',  ( 0.000000000000000000, 1.000000000000000000, 0.000000000000000000 ) ) ;
#503 = VECTOR ( 'NONE', #606, 1000.000000000000000 ) ;
#504 = VERTEX_POINT ( 'NONE', #173 ) ;
#505 = DIRECTION ( 'NONE',  ( 0.000000000000000000, 0.000000000000000000, -1.000000000000000000 ) ) ;
#506 = CARTESIAN_POINT ( 'NONE',  ( -275.0000000000000000, 3.000000000000000000, 7.041719095097281116E-14 ) ) ;
#507 = ORIENTED_EDGE ( 'NONE', *, *, #531, .T. ) ;
#508 = APPLICATION_CONTEXT ( 'automotive_design' ) ;
#509 = CARTESIAN_POINT ( 'NONE',  ( 170.0000000000000000, -4.336808689942017736E-16, -174.4999999999999432 ) ) ;
#510 = FACE_OUTER_BOUND ( 'NONE', #648, .T. ) ;
#511 = CARTESIAN_POINT ( 'NONE',  ( 0.000000000000000000, 0.000000000000000000, -234.9999999999999716 ) ) ;
#512 = AXIS2_PLACEMENT_3D ( 'NONE', #317, #762, #388 ) ;
#513 = DIRECTION ( 'NONE',  ( 0.000000000000000000, 0.000000000000000000, 1.000000000000000000 ) ) ;
#514 = ORIENTED_EDGE ( 'NONE', *, *, #240, .F. ) ;
#515 = AXIS2_PLACEMENT_3D ( 'NONE', #797, #673, #366 ) ;
#516 = EDGE_CURVE ( 'NONE', #584, #466, #422, .T. ) ;
#517 = LINE ( 'NONE', #529, #709 ) ;
#518 = DIRECTION ( 'NONE',  ( 0.000000000000000000, 1.000000000000000000, 0.000000000000000000 ) ) ;
#519 = ORIENTED_EDGE ( 'NONE', *, *, #240, .T. ) ;
#520 = ORIENTED_EDGE ( 'NONE', *, *, #723, .F. ) ;
#521 = ADVANCED_FACE ( 'NONE', ( #54 ), #441, .F. ) ;
#522 = FILL_AREA_STYLE ('',( #635 ) ) ;
#523 = CARTESIAN_POINT ( 'NONE',  ( -265.0000000000000000, 3.000000000000000000, -229.9999999999999432 ) ) ;
#524 = ORIENTED_EDGE ( 'NONE', *, *, #11, .T. ) ;
#525 = ORIENTED_EDGE ( 'NONE', *, *, #494, .T. ) ;
#526 = CARTESIAN_POINT ( 'NONE',  ( 158.3863946177196453, 3.000000000000000000, -229.9999999999999432 ) ) ;
#527 = VECTOR ( 'NONE', #218, 1000.000000000000000 ) ;
#528 = ORIENTED_EDGE ( 'NONE', *, *, #312, .T. ) ;
#529 = CARTESIAN_POINT ( 'NONE',  ( 275.0000000000000000, 3.000000000000000000, 7.041719095097281116E-14 ) ) ;
#530 = FACE_OUTER_BOUND ( 'NONE', #692, .T. ) ;
#531 = EDGE_CURVE ( 'NONE', #703, #443, #120, .T. ) ;
#532 = ORIENTED_EDGE ( 'NONE', *, *, #789, .F. ) ;
#533 = ORIENTED_EDGE ( 'NONE', *, *, #699, .F. ) ;
#534 = AXIS2_PLACEMENT_3D ( 'NONE', #597, #807, #493 ) ;
#535 = CARTESIAN_POINT ( 'NONE',  ( -75.00000000000001421, -4.336808689942017736E-16, -59.99999999999992895 ) ) ;
#536 = EDGE_LOOP ( 'NONE', ( #165, #774 ) ) ;
#537 = PLANE ( 'NONE',  #614 ) ;
#538 = ORIENTED_EDGE ( 'NONE', *, *, #170, .T. ) ;
#539 =( GEOMETRIC_REPRESENTATION_CONTEXT ( 3 ) GLOBAL_UNCERTAINTY_ASSIGNED_CONTEXT ( ( #580 ) ) GLOBAL_UNIT_ASSIGNED_CONTEXT ( ( #486, #605, #113 ) ) REPRESENTATION_CONTEXT ( 'NONE', 'WORKASPACE' ) );
#540 = AXIS2_PLACEMENT_3D ( 'NONE', #60, #615, #73 ) ;
#541 = LINE ( 'NONE', #56, #680 ) ;
#542 = LINE ( 'NONE', #798, #646 ) ;
#543 = ADVANCED_FACE ( 'NONE', ( #495 ), #437, .T. ) ;
#544 = FACE_BOUND ( 'NONE', #497, .T. ) ;
#545 = FACE_BOUND ( 'NONE', #536, .T. ) ;
#546 = APPLICATION_PROTOCOL_DEFINITION ( 'draft international standard', 'automotive_design', 1998, #131 ) ;
#547 = CYLINDRICAL_SURFACE ( 'NONE', #769, 4.500000000000003553 ) ;
#548 = DIRECTION ( 'NONE',  ( 0.000000000000000000, -0.000000000000000000, 1.000000000000000000 ) ) ;
#549 = EDGE_CURVE ( 'NONE', #99, #199, #188, .T. ) ;
#550 = FACE_OUTER_BOUND ( 'NONE', #325, .T. ) ;
#551 = CARTESIAN_POINT ( 'NONE',  ( -170.0000000000000000, 2.999999999999999556, -165.4999999999999147 ) ) ;
#552 = VECTOR ( 'NONE', #502, 1000.000000000000000 ) ;
#553 = AXIS2_PLACEMENT_3D ( 'NONE', #202, #61, #81 ) ;
#554 = CYLINDRICAL_SURFACE ( 'NONE', #279, 4.500000000000003553 ) ;
#555 = DIRECTION ( 'NONE',  ( -0.000000000000000000, -0.000000000000000000, 1.000000000000000000 ) ) ;
#556 = VERTEX_POINT ( 'NONE', #241 ) ;
#557 = DIRECTION ( 'NONE',  ( 0.000000000000000000, 0.000000000000000000, 1.000000000000000000 ) ) ;
#558 = CARTESIAN_POINT ( 'NONE',  ( 265.0000000000000000, 0.000000000000000000, -9.999999999999928946 ) ) ;
#559 = ORIENTED_EDGE ( 'NONE', *, *, #655, .F. ) ;
#560 = DIRECTION ( 'NONE',  ( 0.000000000000000000, 1.000000000000000000, 0.000000000000000000 ) ) ;
#561 = DIRECTION ( 'NONE',  ( -0.000000000000000000, 1.000000000000000000, -0.000000000000000000 ) ) ;
#562 = VERTEX_POINT ( 'NONE', #380 ) ;
#563 = ORIENTED_EDGE ( 'NONE', *, *, #111, .T. ) ;
#564 = EDGE_CURVE ( 'NONE', #722, #791, #295, .T. ) ;
#565 = CARTESIAN_POINT ( 'NONE',  ( 75.00000000000001421, 2.999999999999999556, -64.49999999999992895 ) ) ;
#566 = AXIS2_PLACEMENT_3D ( 'NONE', #133, #308, #197 ) ;
#567 = DIRECTION ( 'NONE',  ( 0.000000000000000000, 0.000000000000000000, 1.000000000000000000 ) ) ;
#568 = VECTOR ( 'NONE', #758, 1000.000000000000000 ) ;
#569 = ORIENTED_EDGE ( 'NONE', *, *, #116, .F. ) ;
#570 = DIRECTION ( 'NONE',  ( 0.000000000000000000, 0.000000000000000000, 1.000000000000000000 ) ) ;
#571 = DIRECTION ( 'NONE',  ( -1.000000000000000000, 0.000000000000000000, 0.000000000000000000 ) ) ;
#572 = ORIENTED_EDGE ( 'NONE', *, *, #501, .F. ) ;
#573 = EDGE_CURVE ( 'NONE', #466, #562, #370, .T. ) ;
#574 = CARTESIAN_POINT ( 'NONE',  ( -275.0000000000000000, 0.000000000000000000, 0.000000000000000000 ) ) ;
#575 = VECTOR ( 'NONE', #220, 1000.000000000000000 ) ;
#576 = CARTESIAN_POINT ( 'NONE',  ( 265.0000000000000000, 3.000000000000000000, -219.9999999999999432 ) ) ;
#577 = VERTEX_POINT ( 'NONE', #565 ) ;
#578 = ORIENTED_EDGE ( 'NONE', *, *, #761, .F. ) ;
#579 = AXIS2_PLACEMENT_3D ( 'NONE', #410, #286, #88 ) ;
#580 = UNCERTAINTY_MEASURE_WITH_UNIT (LENGTH_MEASURE( 1.000000000000000082E-05 ), #486, 'distance_accuracy_value', 'NONE');
#581 = DIRECTION ( 'NONE',  ( 0.000000000000000000, -0.000000000000000000, 1.000000000000000000 ) ) ;
#582 = DIRECTION ( 'NONE',  ( 0.000000000000000000, 0.000000000000000000, 1.000000000000000000 ) ) ;
#583 = VECTOR ( 'NONE', #108, 1000.000000000000000 ) ;
#584 = VERTEX_POINT ( 'NONE', #509 ) ;
#585 = DIRECTION ( 'NONE',  ( -0.000000000000000000, 0.000000000000000000, -1.000000000000000000 ) ) ;
#586 = EDGE_CURVE ( 'NONE', #32, #204, #225, .T. ) ;
#587 = DIRECTION ( 'NONE',  ( -1.000000000000000000, 0.000000000000000000, 0.000000000000000000 ) ) ;
#588 = EDGE_LOOP ( 'NONE', ( #278, #75 ) ) ;
#589 = CARTESIAN_POINT ( 'NONE',  ( 265.0000000000000000, 3.000000000000000000, 7.041719095097281116E-14 ) ) ;
#590 = ADVANCED_FACE ( 'NONE', ( #491 ), #196, .T. ) ;
#591 = CARTESIAN_POINT ( 'NONE',  ( 75.00000000000001421, 2.999999999999999556, -59.99999999999992895 ) ) ;
#592 = VERTEX_POINT ( 'NONE', #431 ) ;
#593 = DIRECTION ( 'NONE',  ( 0.000000000000000000, 0.000000000000000000, 1.000000000000000000 ) ) ;
#594 = VERTEX_POINT ( 'NONE', #427 ) ;
#595 = CIRCLE ( 'NONE', #744, 157.5000000000000284 ) ;
#596 = DIRECTION ( 'NONE',  ( 0.000000000000000000, 1.000000000000000000, 0.000000000000000000 ) ) ;
#597 = CARTESIAN_POINT ( 'NONE',  ( 275.0000000000000000, 3.000000000000000000, 7.041719095097281116E-14 ) ) ;
#598 = DIRECTION ( 'NONE',  ( 0.000000000000000000, 1.000000000000000000, 0.000000000000000000 ) ) ;
#599 = LINE ( 'NONE', #604, #375 ) ;
#600 = AXIS2_PLACEMENT_3D ( 'NONE', #591, #215, #451 ) ;
#601 = EDGE_CURVE ( 'NONE', #263, #203, #746, .T. ) ;
#602 = AXIS2_PLACEMENT_3D ( 'NONE', #734, #234, #356 ) ;
#603 = CARTESIAN_POINT ( 'NONE',  ( -75.00000000000001421, 2.999999999999999556, -59.99999999999992895 ) ) ;
#604 = CARTESIAN_POINT ( 'NONE',  ( -170.0000000000000000, 2.999999999999999556, -174.4999999999999432 ) ) ;
#605 =( NAMED_UNIT ( * ) PLANE_ANGLE_UNIT ( ) SI_UNIT ( $, .RADIAN. ) );
#606 = DIRECTION ( 'NONE',  ( 0.000000000000000000, 1.000000000000000000, 0.000000000000000000 ) ) ;
#607 = ADVANCED_FACE ( 'NONE', ( #695 ), #7, .F. ) ;
#608 = CARTESIAN_POINT ( 'NONE',  ( 0.000000000000000000, 3.000000000000000000, 0.000000000000000000 ) ) ;
#609 = ADVANCED_FACE ( 'NONE', ( #313 ), #554, .F. ) ;
#610 = DIRECTION ( 'NONE',  ( -1.000000000000000000, -0.000000000000000000, 0.000000000000000000 ) ) ;
#611 = ADVANCED_FACE ( 'NONE', ( #2 ), #247, .F. ) ;
#612 = LINE ( 'NONE', #57, #322 ) ;
#613 = COLOUR_RGB ( '',0.5294117647058823595, 0.5490196078431373028, 0.5490196078431373028 ) ;
#614 = AXIS2_PLACEMENT_3D ( 'NONE', #223, #163, #414 ) ;
#615 = DIRECTION ( 'NONE',  ( 0.000000000000000000, 1.000000000000000000, 0.000000000000000000 ) ) ;
#616 = DIRECTION ( 'NONE',  ( 0.000000000000000000, 0.000000000000000000, 1.000000000000000000 ) ) ;
#617 = ORIENTED_EDGE ( 'NONE', *, *, #264, .T. ) ;
#618 = VECTOR ( 'NONE', #674, 1000.000000000000000 ) ;
#619 = DIRECTION ( 'NONE',  ( 0.000000000000000000, 0.000000000000000000, 1.000000000000000000 ) ) ;
#620 = CARTESIAN_POINT ( 'NONE',  ( 158.3863946177196453, 3.000000000000000000, -229.9999999999999432 ) ) ;
#621 = ORIENTED_EDGE ( 'NONE', *, *, #424, .F. ) ;
#622 = ORIENTED_EDGE ( 'NONE', *, *, #494, .F. ) ;
#623 = CARTESIAN_POINT ( 'NONE',  ( -265.0000000000000000, 3.000000000000000000, -219.9999999999999432 ) ) ;
#624 = DIRECTION ( 'NONE',  ( -0.000000000000000000, 1.000000000000000000, -0.000000000000000000 ) ) ;
#625 = ORIENTED_EDGE ( 'NONE', *, *, #298, .T. ) ;
#626 = EDGE_CURVE ( 'NONE', #703, #16, #754, .T. ) ;
#627 = LINE ( 'NONE', #574, #265 ) ;
#628 = CARTESIAN_POINT ( 'NONE',  ( -75.00000000000001421, 2.999999999999999556, -55.49999999999992184 ) ) ;
#629 = EDGE_LOOP ( 'NONE', ( #426, #482, #161, #457, #519, #617, #262, #453, #524, #93, #404, #439, #168 ) ) ;
#630 = DIRECTION ( 'NONE',  ( 0.000000000000000000, 1.000000000000000000, 0.000000000000000000 ) ) ;
#631 = AXIS2_PLACEMENT_3D ( 'NONE', #376, #571, #555 ) ;
#632 = EDGE_CURVE ( 'NONE', #634, #405, #193, .T. ) ;
#633 = CYLINDRICAL_SURFACE ( 'NONE', #179, 10.00000000000000888 ) ;
#634 = VERTEX_POINT ( 'NONE', #127 ) ;
#635 = FILL_AREA_STYLE_COLOUR ( '', #613 ) ;
#636 = EDGE_CURVE ( 'NONE', #407, #203, #741, .T. ) ;
#637 = FACE_OUTER_BOUND ( 'NONE', #787, .T. ) ;
#638 = EDGE_LOOP ( 'NONE', ( #62, #572 ) ) ;
#639 = DIRECTION ( 'NONE',  ( 0.000000000000000000, 0.000000000000000000, 1.000000000000000000 ) ) ;
#640 = PRODUCT_DEFINITION_CONTEXT ( 'detailed design', #508, 'design' ) ;
#641 = LINE ( 'NONE', #705, #397 ) ;
#642 = EDGE_LOOP ( 'NONE', ( #712, #17, #139, #411 ) ) ;
#643 = ORIENTED_EDGE ( 'NONE', *, *, #706, .T. ) ;
#644 = AXIS2_PLACEMENT_3D ( 'NONE', #806, #65, #619 ) ;
#645 = DIRECTION ( 'NONE',  ( -0.000000000000000000, 1.000000000000000000, -0.000000000000000000 ) ) ;
#646 = VECTOR ( 'NONE', #101, 1000.000000000000000 ) ;
#647 = ORIENTED_EDGE ( 'NONE', *, *, #789, .T. ) ;
#648 = EDGE_LOOP ( 'NONE', ( #4, #507, #119, #251 ) ) ;
#649 =( NAMED_UNIT ( * ) SI_UNIT ( $, .STERADIAN. ) SOLID_ANGLE_UNIT ( ) );
#650 = DIRECTION ( 'NONE',  ( 0.000000000000000000, 0.000000000000000000, 1.000000000000000000 ) ) ;
#651 = ORIENTED_EDGE ( 'NONE', *, *, #292, .T. ) ;
#652 = ORIENTED_EDGE ( 'NONE', *, *, #272, .F. ) ;
#653 = CARTESIAN_POINT ( 'NONE',  ( -75.00000000000001421, -4.336808689942017736E-16, -55.49999999999992184 ) ) ;
#654 = FACE_OUTER_BOUND ( 'NONE', #94, .T. ) ;
#655 = EDGE_CURVE ( 'NONE', #263, #703, #627, .T. ) ;
#656 = CIRCLE ( 'NONE', #726, 157.5000000000000284 ) ;
#657 = EDGE_LOOP ( 'NONE', ( #224, #288, #528, #760 ) ) ;
#658 = VECTOR ( 'NONE', #85, 1000.000000000000000 ) ;
#659 = CARTESIAN_POINT ( 'NONE',  ( -265.0000000000000000, 0.000000000000000000, 7.041719095097281116E-14 ) ) ;
#660 = EDGE_CURVE ( 'NONE', #90, #390, #91, .T. ) ;
#661 = EDGE_LOOP ( 'NONE', ( #29, #187, #474, #208 ) ) ;
#662 = CIRCLE ( 'NONE', #672, 4.500000000000003553 ) ;
#663 = CARTESIAN_POINT ( 'NONE',  ( -158.3863946177196453, 3.000000000000000000, -228.9999999999999432 ) ) ;
#664 = CARTESIAN_POINT ( 'NONE',  ( -275.0000000000000000, 3.000000000000000000, -9.999999999999925393 ) ) ;
#665 = DIRECTION ( 'NONE',  ( 0.000000000000000000, 0.000000000000000000, 1.000000000000000000 ) ) ;
#666 = DIRECTION ( 'NONE',  ( 0.000000000000000000, 0.000000000000000000, -1.000000000000000000 ) ) ;
#667 = STYLED_ITEM ( 'NONE', ( #708 ), #810 ) ;
#668 = CARTESIAN_POINT ( 'NONE',  ( 170.0000000000000000, 2.999999999999999556, -174.4999999999999432 ) ) ;
#669 = FACE_OUTER_BOUND ( 'NONE', #661, .T. ) ;
#670 = EDGE_CURVE ( 'NONE', #423, #90, #314, .T. ) ;
#671 = CLOSED_SHELL ( 'NONE', ( #289, #521, #607, #484, #459, #543, #114, #142, #258, #468, #136, #24, #354, #387, #590, #377, #609, #400, #30, #611, #318, #96, #440 ) ) ;
#672 = AXIS2_PLACEMENT_3D ( 'NONE', #719, #786, #465 ) ;
#673 = DIRECTION ( 'NONE',  ( -0.000000000000000000, 1.000000000000000000, -0.000000000000000000 ) ) ;
#674 = DIRECTION ( 'NONE',  ( 0.000000000000000000, 1.000000000000000000, 0.000000000000000000 ) ) ;
#675 = DIRECTION ( 'NONE',  ( 0.000000000000000000, 1.000000000000000000, 0.000000000000000000 ) ) ;
#676 = CARTESIAN_POINT ( 'NONE',  ( 0.000000000000000000, 3.000000000000000000, -234.9999999999999716 ) ) ;
#677 = ORIENTED_EDGE ( 'NONE', *, *, #348, .T. ) ;
#678 = AXIS2_PLACEMENT_3D ( 'NONE', #244, #505, #445 ) ;
#679 = PRODUCT_DEFINITION_FORMATION_WITH_SPECIFIED_SOURCE ( 'ANY', '', #326, .NOT_KNOWN. ) ;
#680 = VECTOR ( 'NONE', #724, 1000.000000000000000 ) ;
#681 = DIRECTION ( 'NONE',  ( 0.000000000000000000, 1.000000000000000000, 0.000000000000000000 ) ) ;
#682 = DIRECTION ( 'NONE',  ( 0.000000000000000000, 1.000000000000000000, 0.000000000000000000 ) ) ;
#683 = VERTEX_POINT ( 'NONE', #589 ) ;
#684 = ORIENTED_EDGE ( 'NONE', *, *, #428, .F. ) ;
#685 = AXIS2_PLACEMENT_3D ( 'NONE', #676, #433, #386 ) ;
#686 = DIRECTION ( 'NONE',  ( 0.000000000000000000, 1.000000000000000000, 0.000000000000000000 ) ) ;
#687 = CARTESIAN_POINT ( 'NONE',  ( -265.0000000000000000, 3.000000000000000000, 7.041719095097281116E-14 ) ) ;
#688 = PRODUCT_RELATED_PRODUCT_CATEGORY ( 'part', '', ( #326 ) ) ;
#689 = EDGE_LOOP ( 'NONE', ( #783, #677, #779, #171 ) ) ;
#690 = CARTESIAN_POINT ( 'NONE',  ( -75.00000000000001421, -4.336808689942017736E-16, -59.99999999999992895 ) ) ;
#691 = CARTESIAN_POINT ( 'NONE',  ( -75.00000000000001421, 2.999999999999999556, -64.49999999999992895 ) ) ;
#692 = EDGE_LOOP ( 'NONE', ( #33, #291, #625, #398 ) ) ;
#693 = AXIS2_PLACEMENT_3D ( 'NONE', #623, #560, #757 ) ;
#694 = EDGE_CURVE ( 'NONE', #232, #448, #150, .T. ) ;
#695 = FACE_OUTER_BOUND ( 'NONE', #198, .T. ) ;
#696 = AXIS2_PLACEMENT_3D ( 'NONE', #36, #645, #715 ) ;
#697 = DIRECTION ( 'NONE',  ( 0.000000000000000000, 1.000000000000000000, 0.000000000000000000 ) ) ;
#698 = VERTEX_POINT ( 'NONE', #14 ) ;
#699 = EDGE_CURVE ( 'NONE', #199, #99, #162, .T. ) ;
#700 = DIRECTION ( 'NONE',  ( -0.000000000000000000, 1.000000000000000000, -0.000000000000000000 ) ) ;
#701 = DIRECTION ( 'NONE',  ( 0.000000000000000000, 1.000000000000000000, 0.000000000000000000 ) ) ;
#702 = VERTEX_POINT ( 'NONE', #267 ) ;
#703 = VERTEX_POINT ( 'NONE', #259 ) ;
#704 = CARTESIAN_POINT ( 'NONE',  ( 275.0000000000000000, 3.000000000000000000, -229.9999999999999432 ) ) ;
#705 = CARTESIAN_POINT ( 'NONE',  ( -158.3863946177196453, 3.000000000000000000, -229.9999999999999432 ) ) ;
#706 = EDGE_CURVE ( 'NONE', #634, #504, #656, .T. ) ;
#707 = EDGE_LOOP ( 'NONE', ( #341, #309, #344, #39 ) ) ;
#708 = PRESENTATION_STYLE_ASSIGNMENT (( #458 ) ) ;
#709 = VECTOR ( 'NONE', #785, 1000.000000000000000 ) ;
#710 = LINE ( 'NONE', #403, #575 ) ;
#711 = ORIENTED_EDGE ( 'NONE', *, *, #573, .F. ) ;
#712 = ORIENTED_EDGE ( 'NONE', *, *, #516, .F. ) ;
#713 = EDGE_CURVE ( 'NONE', #175, #584, #49, .T. ) ;
#714 = CARTESIAN_POINT ( 'NONE',  ( -170.0000000000000000, 2.999999999999999556, -169.9999999999999432 ) ) ;
#715 = DIRECTION ( 'NONE',  ( 0.000000000000000000, 0.000000000000000000, 1.000000000000000000 ) ) ;
#716 = ORIENTED_EDGE ( 'NONE', *, *, #126, .T. ) ;
#717 = EDGE_CURVE ( 'NONE', #349, #330, #421, .T. ) ;
#718 = DIRECTION ( 'NONE',  ( 1.000000000000000000, 0.000000000000000000, -0.000000000000000000 ) ) ;
#719 = CARTESIAN_POINT ( 'NONE',  ( 75.00000000000001421, 2.999999999999999556, -59.99999999999992895 ) ) ;
#720 = ORIENTED_EDGE ( 'NONE', *, *, #531, .F. ) ;
#721 = UNCERTAINTY_MEASURE_WITH_UNIT (LENGTH_MEASURE( 1.000000000000000082E-05 ), #402, 'distance_accuracy_value', 'NONE');
#722 = VERTEX_POINT ( 'NONE', #653 ) ;
#723 = EDGE_CURVE ( 'NONE', #504, #448, #304, .T. ) ;
#724 = DIRECTION ( 'NONE',  ( -1.000000000000000000, -0.000000000000000000, 0.000000000000000000 ) ) ;
#725 = VECTOR ( 'NONE', #610, 1000.000000000000000 ) ;
#726 = AXIS2_PLACEMENT_3D ( 'NONE', #511, #342, #639 ) ;
#727 = ORIENTED_EDGE ( 'NONE', *, *, #300, .T. ) ;
#728 = AXIS2_PLACEMENT_3D ( 'NONE', #169, #419, #665 ) ;
#729 = PRODUCT_DEFINITION ( 'UNKNOWN', '', #679, #640 ) ;
#730 = CARTESIAN_POINT ( 'NONE',  ( 0.000000000000000000, 0.000000000000000000, -229.9999999999999432 ) ) ;
#731 = VERTEX_POINT ( 'NONE', #146 ) ;
#732 = VECTOR ( 'NONE', #186, 1000.000000000000000 ) ;
#733 = FILL_AREA_STYLE ('',( #333 ) ) ;
#734 = CARTESIAN_POINT ( 'NONE',  ( 158.3863946177196453, 3.000000000000000000, -228.9999999999999432 ) ) ;
#735 = CARTESIAN_POINT ( 'NONE',  ( 275.0000000000000000, 3.000000000000000000, -229.9999999999999432 ) ) ;
#736 = EDGE_CURVE ( 'NONE', #44, #683, #517, .T. ) ;
#737 = SURFACE_STYLE_FILL_AREA ( #733 ) ;
#738 = DIRECTION ( 'NONE',  ( 0.000000000000000000, 0.000000000000000000, 1.000000000000000000 ) ) ;
#739 = LINE ( 'NONE', #302, #618 ) ;
#740 = EDGE_CURVE ( 'NONE', #498, #124, #767, .T. ) ;
#741 = CIRCLE ( 'NONE', #693, 10.00000000000000888 ) ;
#742 = FACE_OUTER_BOUND ( 'NONE', #183, .T. ) ;
#743 = LINE ( 'NONE', #551, #270 ) ;
#744 = AXIS2_PLACEMENT_3D ( 'NONE', #78, #389, #250 ) ;
#745 = SHAPE_DEFINITION_REPRESENTATION ( #172, #338 ) ;
#746 = LINE ( 'NONE', #256, #804 ) ;
#747 = CARTESIAN_POINT ( 'NONE',  ( 275.0000000000000000, 0.000000000000000000, -219.9999999999998863 ) ) ;
#748 = DIRECTION ( 'NONE',  ( -0.000000000000000000, 1.000000000000000000, -0.000000000000000000 ) ) ;
#749 = CARTESIAN_POINT ( 'NONE',  ( 75.00000000000001421, -4.336808689942017736E-16, -64.49999999999992895 ) ) ;
#750 = ORIENTED_EDGE ( 'NONE', *, *, #717, .T. ) ;
#751 = ORIENTED_EDGE ( 'NONE', *, *, #1, .F. ) ;
#752 =( GEOMETRIC_REPRESENTATION_CONTEXT ( 3 ) GLOBAL_UNCERTAINTY_ASSIGNED_CONTEXT ( ( #156 ) ) GLOBAL_UNIT_ASSIGNED_CONTEXT ( ( #412, #792, #233 ) ) REPRESENTATION_CONTEXT ( 'NONE', 'WORKASPACE' ) );
#753 = AXIS2_PLACEMENT_3D ( 'NONE', #535, #27, #210 ) ;
#754 = LINE ( 'NONE', #371, #200 ) ;
#755 = PLANE ( 'NONE',  #631 ) ;
#756 = ORIENTED_EDGE ( 'NONE', *, *, #180, .T. ) ;
#757 = DIRECTION ( 'NONE',  ( 0.000000000000000000, 0.000000000000000000, 1.000000000000000000 ) ) ;
#758 = DIRECTION ( 'NONE',  ( -0.000000000000000000, -0.000000000000000000, 1.000000000000000000 ) ) ;
#759 = ORIENTED_EDGE ( 'NONE', *, *, #67, .T. ) ;
#760 = ORIENTED_EDGE ( 'NONE', *, *, #59, .F. ) ;
#761 = EDGE_CURVE ( 'NONE', #443, #594, #83, .T. ) ;
#762 = DIRECTION ( 'NONE',  ( 0.000000000000000000, 1.000000000000000000, 0.000000000000000000 ) ) ;
#763 = CYLINDRICAL_SURFACE ( 'NONE', #553, 10.00000000000000000 ) ;
#764 = ORIENTED_EDGE ( 'NONE', *, *, #428, .T. ) ;
#765 = ORIENTED_EDGE ( 'NONE', *, *, #176, .F. ) ;
#766 = EDGE_CURVE ( 'NONE', #702, #32, #337, .T. ) ;
#767 = CIRCLE ( 'NONE', #361, 4.500000000000003553 ) ;
#768 = DIRECTION ( 'NONE',  ( -0.000000000000000000, 1.000000000000000000, -0.000000000000000000 ) ) ;
#769 = AXIS2_PLACEMENT_3D ( 'NONE', #294, #596, #475 ) ;
#770 = DIRECTION ( 'NONE',  ( 0.000000000000000000, 1.000000000000000000, 0.000000000000000000 ) ) ;
#771 = ORIENTED_EDGE ( 'NONE', *, *, #41, .F. ) ;
#772 = CARTESIAN_POINT ( 'NONE',  ( 75.00000000000001421, 2.999999999999999556, -64.49999999999992895 ) ) ;
#773 = CARTESIAN_POINT ( 'NONE',  ( -170.0000000000000000, 2.999999999999999556, -165.4999999999999147 ) ) ;
#774 = ORIENTED_EDGE ( 'NONE', *, *, #717, .F. ) ;
#775 = ORIENTED_EDGE ( 'NONE', *, *, #766, .T. ) ;
#776 = SURFACE_STYLE_FILL_AREA ( #522 ) ;
#777 = DIRECTION ( 'NONE',  ( 0.000000000000000000, 1.000000000000000000, 0.000000000000000000 ) ) ;
#778 = ORIENTED_EDGE ( 'NONE', *, *, #444, .T. ) ;
#779 = ORIENTED_EDGE ( 'NONE', *, *, #418, .F. ) ;
#780 = DIRECTION ( 'NONE',  ( -0.000000000000000000, 1.000000000000000000, -0.000000000000000000 ) ) ;
#781 = AXIS2_PLACEMENT_3D ( 'NONE', #80, #87, #95 ) ;
#782 = CYLINDRICAL_SURFACE ( 'NONE', #600, 4.500000000000003553 ) ;
#783 = ORIENTED_EDGE ( 'NONE', *, *, #1, .T. ) ;
#784 = ORIENTED_EDGE ( 'NONE', *, *, #41, .T. ) ;
#785 = DIRECTION ( 'NONE',  ( 1.000000000000000000, -0.000000000000000000, -0.000000000000000000 ) ) ;
#786 = DIRECTION ( 'NONE',  ( -0.000000000000000000, 1.000000000000000000, -0.000000000000000000 ) ) ;
#787 = EDGE_LOOP ( 'NONE', ( #533, #647, #287, #771 ) ) ;
#788 = EDGE_LOOP ( 'NONE', ( #622, #652 ) ) ;
#789 = EDGE_CURVE ( 'NONE', #199, #577, #153, .T. ) ;
#790 = PLANE ( 'NONE',  #51 ) ;
#791 = VERTEX_POINT ( 'NONE', #470 ) ;
#792 =( NAMED_UNIT ( * ) PLANE_ANGLE_UNIT ( ) SI_UNIT ( $, .RADIAN. ) );
#793 = CARTESIAN_POINT ( 'NONE',  ( -170.0000000000000000, -4.336808689942017736E-16, -174.4999999999999432 ) ) ;
#794 = STYLED_ITEM ( 'NONE', ( #360 ), #338 ) ;
#795 = DIRECTION ( 'NONE',  ( 0.000000000000000000, 1.000000000000000000, 0.000000000000000000 ) ) ;
#796 = AXIS2_PLACEMENT_3D ( 'NONE', #478, #166, #104 ) ;
#797 = CARTESIAN_POINT ( 'NONE',  ( -170.0000000000000000, 2.999999999999999556, -169.9999999999999432 ) ) ;
#798 = CARTESIAN_POINT ( 'NONE',  ( 275.0000000000000000, 3.000000000000000000, -219.9999999999998863 ) ) ;
#799 = AXIS2_PLACEMENT_3D ( 'NONE', #558, #194, #616 ) ;
#800 = FACE_OUTER_BOUND ( 'NONE', #246, .T. ) ;
#801 = FACE_BOUND ( 'NONE', #638, .T. ) ;
#802 = DIRECTION ( 'NONE',  ( 0.000000000000000000, 0.000000000000000000, 1.000000000000000000 ) ) ;
#803 = CARTESIAN_POINT ( 'NONE',  ( 75.00000000000001421, -4.336808689942017736E-16, -55.49999999999992184 ) ) ;
#804 = VECTOR ( 'NONE', #630, 1000.000000000000000 ) ;
#805 = CIRCLE ( 'NONE', #602, 1.000000000000000888 ) ;
#806 = CARTESIAN_POINT ( 'NONE',  ( 75.00000000000001421, -4.336808689942017736E-16, -59.99999999999992895 ) ) ;
#807 = DIRECTION ( 'NONE',  ( 1.000000000000000000, -0.000000000000000000, 0.000000000000000000 ) ) ;
#808 = CARTESIAN_POINT ( 'NONE',  ( -75.00000000000001421, 2.999999999999999556, -59.99999999999992895 ) ) ;
#809 = LINE ( 'NONE', #442, #154 ) ;
#810 = MANIFOLD_SOLID_BREP ( 'Volumenkörper umwandeln1', #671 ) ;
#811 = VERTEX_POINT ( 'NONE', #285 ) ;
ENDSEC;
END-ISO-10303-21;
