ISO-10303-21;
HEADER;
FILE_DESCRIPTION (( 'STEP AP214' ),
    '1' );
FILE_NAME ('202500220_02_Deckel Ø470_V1.0.step',
    '2025-04-24T08:34:59',
    ( '' ),
    ( '' ),
    'SwSTEP 2.0',
    'SolidWorks 2021',
    '' );
FILE_SCHEMA (( 'AUTOMOTIVE_DESIGN' ));
ENDSEC;

DATA;
#1 = DIRECTION ( 'NONE',  ( 0.000000000000000000, 1.000000000000000000, 0.000000000000000000 ) ) ;
#2 = ORIENTED_EDGE ( 'NONE', *, *, #664, .T. ) ;
#3 = DIRECTION ( 'NONE',  ( -0.000000000000000000, 1.000000000000000000, -0.000000000000000000 ) ) ;
#4 = EDGE_LOOP ( 'NONE', ( #185, #235 ) ) ;
#5 = AXIS2_PLACEMENT_3D ( 'NONE', #672, #246, #495 ) ;
#6 = AXIS2_PLACEMENT_3D ( 'NONE', #550, #302, #48 ) ;
#7 = VECTOR ( 'NONE', #427, 1000.000000000000000 ) ;
#8 = CARTESIAN_POINT ( 'NONE',  ( 265.0000000000000000, 4.000000000000000000, 6.551860375438340524E-14 ) ) ;
#9 = VERTEX_POINT ( 'NONE', #38 ) ;
#10 = DIRECTION ( 'NONE',  ( -0.000000000000000000, 1.000000000000000000, -0.000000000000000000 ) ) ;
#11 = VERTEX_POINT ( 'NONE', #665 ) ;
#12 = AXIS2_PLACEMENT_3D ( 'NONE', #526, #768, #148 ) ;
#13 = FACE_OUTER_BOUND ( 'NONE', #362, .T. ) ;
#14 = VERTEX_POINT ( 'NONE', #211 ) ;
#15 = CARTESIAN_POINT ( 'NONE',  ( -265.0000000000000000, 1.000000000000000000, 6.551860375438340524E-14 ) ) ;
#16 = EDGE_CURVE ( 'NONE', #401, #793, #705, .T. ) ;
#17 = ORIENTED_EDGE ( 'NONE', *, *, #45, .T. ) ;
#18 = VERTEX_POINT ( 'NONE', #332 ) ;
#19 = CARTESIAN_POINT ( 'NONE',  ( 240.0000000000000000, 4.000000000000000000, -209.9999999999999716 ) ) ;
#20 = VERTEX_POINT ( 'NONE', #464 ) ;
#21 = EDGE_LOOP ( 'NONE', ( #194, #245, #567, #509 ) ) ;
#22 = EDGE_CURVE ( 'NONE', #807, #18, #618, .T. ) ;
#23 = AXIS2_PLACEMENT_3D ( 'NONE', #342, #93, #471 ) ;
#24 = CARTESIAN_POINT ( 'NONE',  ( 230.9220647751097886, 4.000000000000000000, -278.9999999999999432 ) ) ;
#25 = CARTESIAN_POINT ( 'NONE',  ( 230.9220647751097886, 1.000000000000000000, -278.9999999999999432 ) ) ;
#26 = VECTOR ( 'NONE', #220, 1000.000000000000000 ) ;
#27 = EDGE_CURVE ( 'NONE', #66, #143, #217, .T. ) ;
#28 = CARTESIAN_POINT ( 'NONE',  ( 240.0000000000000000, 4.000000000000000000, -214.4999999999999716 ) ) ;
#29 = DIRECTION ( 'NONE',  ( 0.000000000000000000, 1.000000000000000000, 0.000000000000000000 ) ) ;
#30 = DIRECTION ( 'NONE',  ( 0.000000000000000000, 0.000000000000000000, 1.000000000000000000 ) ) ;
#31 = CARTESIAN_POINT ( 'NONE',  ( 240.0000000000000000, 4.000000000000000000, -209.9999999999999716 ) ) ;
#32 = PRODUCT_CONTEXT ( 'NONE', #605, 'mechanical' ) ;
#33 = FACE_BOUND ( 'NONE', #4, .T. ) ;
#34 = DIRECTION ( 'NONE',  ( 0.000000000000000000, 1.000000000000000000, 0.000000000000000000 ) ) ;
#35 = AXIS2_PLACEMENT_3D ( 'NONE', #395, #227, #675 ) ;
#36 = CARTESIAN_POINT ( 'NONE',  ( 230.9220647751097886, 1.000000000000000000, -279.9999999999999432 ) ) ;
#37 = AXIS2_PLACEMENT_3D ( 'NONE', #126, #264, #243 ) ;
#38 = CARTESIAN_POINT ( 'NONE',  ( -275.0000000000000000, 4.000000000000000000, -269.9999999999999432 ) ) ;
#39 = EDGE_CURVE ( 'NONE', #797, #648, #159, .T. ) ;
#40 = DIRECTION ( 'NONE',  ( 0.000000000000000000, 0.000000000000000000, 1.000000000000000000 ) ) ;
#41 = CYLINDRICAL_SURFACE ( 'NONE', #44, 10.00000000000000888 ) ;
#42 = DIRECTION ( 'NONE',  ( 0.000000000000000000, 1.000000000000000000, 0.000000000000000000 ) ) ;
#43 = DIRECTION ( 'NONE',  ( 0.000000000000000000, 1.000000000000000000, 0.000000000000000000 ) ) ;
#44 = AXIS2_PLACEMENT_3D ( 'NONE', #432, #237, #53 ) ;
#45 = EDGE_CURVE ( 'NONE', #417, #143, #711, .T. ) ;
#46 = CARTESIAN_POINT ( 'NONE',  ( 240.0000000000000000, 4.000000000000000000, -205.4999999999999716 ) ) ;
#47 = AXIS2_PLACEMENT_3D ( 'NONE', #24, #462, #272 ) ;
#48 = DIRECTION ( 'NONE',  ( 0.000000000000000000, 0.000000000000000000, 1.000000000000000000 ) ) ;
#49 = EDGE_LOOP ( 'NONE', ( #630, #643 ) ) ;
#50 = ORIENTED_EDGE ( 'NONE', *, *, #496, .T. ) ;
#51 = CARTESIAN_POINT ( 'NONE',  ( -240.0000000000000000, 1.000000000000000000, -214.4999999999999716 ) ) ;
#52 = ORIENTED_EDGE ( 'NONE', *, *, #329, .T. ) ;
#53 = DIRECTION ( 'NONE',  ( 0.000000000000000000, 0.000000000000000000, 1.000000000000000000 ) ) ;
#54 = VERTEX_POINT ( 'NONE', #703 ) ;
#55 = EDGE_LOOP ( 'NONE', ( #239, #122, #315, #78 ) ) ;
#56 = CARTESIAN_POINT ( 'NONE',  ( 240.0000000000000000, 1.000000000000000000, -214.4999999999999716 ) ) ;
#57 =( NAMED_UNIT ( * ) PLANE_ANGLE_UNIT ( ) SI_UNIT ( $, .RADIAN. ) );
#58 = VECTOR ( 'NONE', #81, 1000.000000000000000 ) ;
#59 = ORIENTED_EDGE ( 'NONE', *, *, #728, .F. ) ;
#60 = CARTESIAN_POINT ( 'NONE',  ( -100.0000000000000000, 1.000000000000000000, -45.49999999999993605 ) ) ;
#61 = EDGE_LOOP ( 'NONE', ( #116, #267, #757, #196 ) ) ;
#62 = CARTESIAN_POINT ( 'NONE',  ( -229.9224021570357479, 1.000000000000000000, -279.0259740259739942 ) ) ;
#63 = ORIENTED_EDGE ( 'NONE', *, *, #242, .F. ) ;
#64 = EDGE_CURVE ( 'NONE', #573, #257, #551, .T. ) ;
#65 = DIRECTION ( 'NONE',  ( 0.000000000000000000, 1.000000000000000000, 0.000000000000000000 ) ) ;
#66 = VERTEX_POINT ( 'NONE', #340 ) ;
#67 = DIRECTION ( 'NONE',  ( 0.000000000000000000, 1.000000000000000000, 0.000000000000000000 ) ) ;
#68 = ORIENTED_EDGE ( 'NONE', *, *, #180, .F. ) ;
#69 = VERTEX_POINT ( 'NONE', #783 ) ;
#70 = VERTEX_POINT ( 'NONE', #591 ) ;
#71 = DIRECTION ( 'NONE',  ( 0.000000000000000000, 0.000000000000000000, 1.000000000000000000 ) ) ;
#72 = ORIENTED_EDGE ( 'NONE', *, *, #446, .F. ) ;
#73 = VECTOR ( 'NONE', #115, 1000.000000000000000 ) ;
#74 = CARTESIAN_POINT ( 'NONE',  ( 275.0000000000000000, 4.000000000000000000, -9.999999999999934275 ) ) ;
#75 = ORIENTED_EDGE ( 'NONE', *, *, #180, .T. ) ;
#76 = EDGE_CURVE ( 'NONE', #392, #369, #762, .T. ) ;
#77 = LINE ( 'NONE', #810, #466 ) ;
#78 = ORIENTED_EDGE ( 'NONE', *, *, #585, .F. ) ;
#79 = VECTOR ( 'NONE', #782, 1000.000000000000000 ) ;
#80 = CARTESIAN_POINT ( 'NONE',  ( 240.0000000000000000, 1.000000000000000000, -209.9999999999999716 ) ) ;
#81 = DIRECTION ( 'NONE',  ( 0.000000000000000000, 1.000000000000000000, 0.000000000000000000 ) ) ;
#82 = ORIENTED_EDGE ( 'NONE', *, *, #329, .F. ) ;
#83 = CARTESIAN_POINT ( 'NONE',  ( 275.0000000000000000, 4.000000000000000000, -279.9999999999999432 ) ) ;
#84 = ORIENTED_EDGE ( 'NONE', *, *, #719, .F. ) ;
#85 = EDGE_CURVE ( 'NONE', #364, #14, #588, .T. ) ;
#86 = CARTESIAN_POINT ( 'NONE',  ( -240.0000000000000000, 4.000000000000000000, -214.4999999999999716 ) ) ;
#87 = FACE_OUTER_BOUND ( 'NONE', #737, .T. ) ;
#88 = DIRECTION ( 'NONE',  ( 1.000000000000000000, 0.000000000000000000, 0.000000000000000000 ) ) ;
#89 = CARTESIAN_POINT ( 'NONE',  ( 0.000000000000000000, 1.000000000000000000, -279.9999999999999432 ) ) ;
#90 = DIRECTION ( 'NONE',  ( -0.000000000000000000, 1.000000000000000000, -0.000000000000000000 ) ) ;
#91 = ADVANCED_FACE ( 'NONE', ( #87 ), #412, .F. ) ;
#92 = CARTESIAN_POINT ( 'NONE',  ( -230.9220647751097886, 1.000000000000000000, -279.9999999999999432 ) ) ;
#93 = DIRECTION ( 'NONE',  ( 0.000000000000000000, 1.000000000000000000, 0.000000000000000000 ) ) ;
#94 = AXIS2_PLACEMENT_3D ( 'NONE', #469, #654, #158 ) ;
#95 = AXIS2_PLACEMENT_3D ( 'NONE', #487, #347, #548 ) ;
#96 = CYLINDRICAL_SURFACE ( 'NONE', #12, 1.000000000000000888 ) ;
#97 = ADVANCED_FACE ( 'NONE', ( #584 ), #660, .F. ) ;
#98 = ORIENTED_EDGE ( 'NONE', *, *, #460, .F. ) ;
#99 = VECTOR ( 'NONE', #309, 1000.000000000000000 ) ;
#100 = LINE ( 'NONE', #300, #345 ) ;
#101 = CARTESIAN_POINT ( 'NONE',  ( -100.0000000000000000, 4.000000000000000000, -49.99999999999994316 ) ) ;
#102 = EDGE_CURVE ( 'NONE', #257, #18, #409, .T. ) ;
#103 = LINE ( 'NONE', #353, #337 ) ;
#104 = CARTESIAN_POINT ( 'NONE',  ( -265.0000000000000000, 4.000000000000000000, -269.9999999999999432 ) ) ;
#105 = EDGE_CURVE ( 'NONE', #417, #69, #170, .T. ) ;
#106 = DIRECTION ( 'NONE',  ( -0.000000000000000000, 1.000000000000000000, -0.000000000000000000 ) ) ;
#107 = CIRCLE ( 'NONE', #503, 10.00000000000000888 ) ;
#108 = CARTESIAN_POINT ( 'NONE',  ( 0.000000000000000000, 4.000000000000000000, -285.0000000000000000 ) ) ;
#109 = ORIENTED_EDGE ( 'NONE', *, *, #625, .F. ) ;
#110 = LINE ( 'NONE', #609, #652 ) ;
#111 = AXIS2_PLACEMENT_3D ( 'NONE', #789, #541, #222 ) ;
#112 = FILL_AREA_STYLE ('',( #297 ) ) ;
#113 = VERTEX_POINT ( 'NONE', #163 ) ;
#114 = DIRECTION ( 'NONE',  ( 0.000000000000000000, 1.000000000000000000, 0.000000000000000000 ) ) ;
#115 = DIRECTION ( 'NONE',  ( 0.000000000000000000, 1.000000000000000000, 0.000000000000000000 ) ) ;
#116 = ORIENTED_EDGE ( 'NONE', *, *, #664, .F. ) ;
#117 = FACE_BOUND ( 'NONE', #379, .T. ) ;
#118 = ADVANCED_FACE ( 'NONE', ( #274 ), #525, .F. ) ;
#119 = DIRECTION ( 'NONE',  ( 0.000000000000000000, 1.000000000000000000, 0.000000000000000000 ) ) ;
#120 = ORIENTED_EDGE ( 'NONE', *, *, #400, .T. ) ;
#121 = LINE ( 'NONE', #8, #418 ) ;
#122 = ORIENTED_EDGE ( 'NONE', *, *, #771, .T. ) ;
#123 = DIRECTION ( 'NONE',  ( 0.000000000000000000, -0.000000000000000000, 1.000000000000000000 ) ) ;
#124 = EDGE_LOOP ( 'NONE', ( #263, #372, #440, #725 ) ) ;
#125 = EDGE_CURVE ( 'NONE', #681, #66, #651, .T. ) ;
#126 = CARTESIAN_POINT ( 'NONE',  ( -275.0000000000000000, 4.000000000000000000, 6.551860375438340524E-14 ) ) ;
#127 = ORIENTED_EDGE ( 'NONE', *, *, #76, .F. ) ;
#128 = CARTESIAN_POINT ( 'NONE',  ( 229.9224021570357479, 4.000000000000000000, -279.0259740259739942 ) ) ;
#129 = ORIENTED_EDGE ( 'NONE', *, *, #615, .T. ) ;
#130 = EDGE_CURVE ( 'NONE', #606, #70, #607, .T. ) ;
#131 = FACE_BOUND ( 'NONE', #49, .T. ) ;
#132 = EDGE_LOOP ( 'NONE', ( #436, #326, #755, #323 ) ) ;
#133 = CARTESIAN_POINT ( 'NONE',  ( -229.9224021570357479, 4.000000000000000000, -279.0259740259739942 ) ) ;
#134 = ORIENTED_EDGE ( 'NONE', *, *, #554, .F. ) ;
#135 = CIRCLE ( 'NONE', #95, 1.000000000000000888 ) ;
#136 = LINE ( 'NONE', #803, #489 ) ;
#137 = EDGE_LOOP ( 'NONE', ( #134, #735, #50, #168 ) ) ;
#138 = LINE ( 'NONE', #389, #597 ) ;
#139 = VECTOR ( 'NONE', #119, 1000.000000000000000 ) ;
#140 = ORIENTED_EDGE ( 'NONE', *, *, #479, .T. ) ;
#141 = PRODUCT_DEFINITION_CONTEXT ( 'detailed design', #723, 'design' ) ;
#142 = CARTESIAN_POINT ( 'NONE',  ( 265.0000000000000000, 1.000000000000000000, -269.9999999999999432 ) ) ;
#143 = VERTEX_POINT ( 'NONE', #539 ) ;
#144 = SURFACE_STYLE_USAGE ( .BOTH. , #656 ) ;
#145 = DIRECTION ( 'NONE',  ( 0.000000000000000000, 0.000000000000000000, 1.000000000000000000 ) ) ;
#146 = DIRECTION ( 'NONE',  ( 0.000000000000000000, 1.000000000000000000, 0.000000000000000000 ) ) ;
#147 = CIRCLE ( 'NONE', #160, 230.0000000000000000 ) ;
#148 = DIRECTION ( 'NONE',  ( 0.000000000000000000, 0.000000000000000000, 1.000000000000000000 ) ) ;
#149 = DIRECTION ( 'NONE',  ( -1.000000000000000000, 0.000000000000000000, 0.000000000000000000 ) ) ;
#150 = AXIS2_PLACEMENT_3D ( 'NONE', #459, #280, #145 ) ;
#151 = AXIS2_PLACEMENT_3D ( 'NONE', #402, #650, #343 ) ;
#152 = FILL_AREA_STYLE ('',( #701 ) ) ;
#153 = CARTESIAN_POINT ( 'NONE',  ( 265.0000000000000000, 4.000000000000000000, -9.999999999999934275 ) ) ;
#154 = DIRECTION ( 'NONE',  ( 0.000000000000000000, 1.000000000000000000, 0.000000000000000000 ) ) ;
#155 = EDGE_CURVE ( 'NONE', #257, #573, #465, .T. ) ;
#156 = MANIFOLD_SOLID_BREP ( 'Volumenkörper umwandeln1', #212 ) ;
#157 = PLANE ( 'NONE',  #626 ) ;
#158 = DIRECTION ( 'NONE',  ( 0.000000000000000000, 0.000000000000000000, 1.000000000000000000 ) ) ;
#159 = CIRCLE ( 'NONE', #743, 10.00000000000000000 ) ;
#160 = AXIS2_PLACEMENT_3D ( 'NONE', #747, #516, #328 ) ;
#161 = FACE_OUTER_BOUND ( 'NONE', #137, .T. ) ;
#162 = EDGE_CURVE ( 'NONE', #14, #580, #570, .T. ) ;
#163 = CARTESIAN_POINT ( 'NONE',  ( 275.0000000000000000, 4.000000000000000000, -269.9999999999999432 ) ) ;
#164 = FACE_OUTER_BOUND ( 'NONE', #439, .T. ) ;
#165 = EDGE_CURVE ( 'NONE', #542, #176, #775, .T. ) ;
#166 = DIRECTION ( 'NONE',  ( 0.000000000000000000, 1.000000000000000000, 0.000000000000000000 ) ) ;
#167 = CARTESIAN_POINT ( 'NONE',  ( 100.0000000000000000, 1.000000000000000000, -49.99999999999994316 ) ) ;
#168 = ORIENTED_EDGE ( 'NONE', *, *, #615, .F. ) ;
#169 = DIRECTION ( 'NONE',  ( 0.000000000000000000, 1.000000000000000000, 0.000000000000000000 ) ) ;
#170 = CIRCLE ( 'NONE', #256, 1.000000000000000888 ) ;
#171 =( GEOMETRIC_REPRESENTATION_CONTEXT ( 3 ) GLOBAL_UNCERTAINTY_ASSIGNED_CONTEXT ( ( #214 ) ) GLOBAL_UNIT_ASSIGNED_CONTEXT ( ( #350, #57, #434 ) ) REPRESENTATION_CONTEXT ( 'NONE', 'WORKASPACE' ) );
#172 = DIRECTION ( 'NONE',  ( 0.000000000000000000, 0.000000000000000000, 1.000000000000000000 ) ) ;
#173 = ORIENTED_EDGE ( 'NONE', *, *, #767, .F. ) ;
#174 = EDGE_CURVE ( 'NONE', #617, #752, #135, .T. ) ;
#175 = CARTESIAN_POINT ( 'NONE',  ( 100.0000000000000000, 4.000000000000000000, -45.49999999999993605 ) ) ;
#176 = VERTEX_POINT ( 'NONE', #805 ) ;
#177 = CIRCLE ( 'NONE', #47, 1.000000000000000888 ) ;
#178 = CARTESIAN_POINT ( 'NONE',  ( 265.0000000000000000, 4.000000000000000000, -279.9999999999999432 ) ) ;
#179 = ORIENTED_EDGE ( 'NONE', *, *, #560, .F. ) ;
#180 = EDGE_CURVE ( 'NONE', #378, #9, #107, .T. ) ;
#181 = DIRECTION ( 'NONE',  ( 1.000000000000000000, -0.000000000000000000, 0.000000000000000000 ) ) ;
#182 = SURFACE_STYLE_FILL_AREA ( #112 ) ;
#183 = EDGE_LOOP ( 'NONE', ( #688, #198, #545, #760 ) ) ;
#184 = CARTESIAN_POINT ( 'NONE',  ( -240.0000000000000000, 4.000000000000000000, -209.9999999999999716 ) ) ;
#185 = ORIENTED_EDGE ( 'NONE', *, *, #356, .F. ) ;
#186 = CARTESIAN_POINT ( 'NONE',  ( 265.0000000000000000, 4.000000000000000000, -269.9999999999999432 ) ) ;
#187 = VERTEX_POINT ( 'NONE', #553 ) ;
#188 = LINE ( 'NONE', #259, #663 ) ;
#189 = ORIENTED_EDGE ( 'NONE', *, *, #254, .F. ) ;
#190 = DIRECTION ( 'NONE',  ( 0.000000000000000000, 0.000000000000000000, 1.000000000000000000 ) ) ;
#191 = ADVANCED_FACE ( 'NONE', ( #601 ), #41, .T. ) ;
#192 = ORIENTED_EDGE ( 'NONE', *, *, #593, .T. ) ;
#193 = FACE_OUTER_BOUND ( 'NONE', #265, .T. ) ;
#194 = ORIENTED_EDGE ( 'NONE', *, *, #740, .F. ) ;
#195 = CARTESIAN_POINT ( 'NONE',  ( -100.0000000000000000, 4.000000000000000000, -45.49999999999993605 ) ) ;
#196 = ORIENTED_EDGE ( 'NONE', *, *, #505, .F. ) ;
#197 = FACE_OUTER_BOUND ( 'NONE', #183, .T. ) ;
#198 = ORIENTED_EDGE ( 'NONE', *, *, #155, .F. ) ;
#199 = CARTESIAN_POINT ( 'NONE',  ( -100.0000000000000000, 1.000000000000000000, -49.99999999999994316 ) ) ;
#200 = EDGE_LOOP ( 'NONE', ( #59, #765, #445, #270 ) ) ;
#201 = AXIS2_PLACEMENT_3D ( 'NONE', #404, #90, #221 ) ;
#202 = PRESENTATION_STYLE_ASSIGNMENT (( #144 ) ) ;
#203 = DIRECTION ( 'NONE',  ( 0.000000000000000000, 0.000000000000000000, 1.000000000000000000 ) ) ;
#204 = ORIENTED_EDGE ( 'NONE', *, *, #569, .T. ) ;
#205 = CIRCLE ( 'NONE', #709, 4.500000000000003553 ) ;
#206 =( NAMED_UNIT ( * ) SI_UNIT ( $, .STERADIAN. ) SOLID_ANGLE_UNIT ( ) );
#207 = ADVANCED_FACE ( 'NONE', ( #424 ), #676, .F. ) ;
#208 = LINE ( 'NONE', #86, #390 ) ;
#209 = CARTESIAN_POINT ( 'NONE',  ( 0.000000000000000000, 1.000000000000000000, -285.0000000000000000 ) ) ;
#210 = DIRECTION ( 'NONE',  ( -1.000000000000000000, -0.000000000000000000, 0.000000000000000000 ) ) ;
#211 = CARTESIAN_POINT ( 'NONE',  ( -100.0000000000000000, 4.000000000000000000, -54.49999999999994316 ) ) ;
#212 = CLOSED_SHELL ( 'NONE', ( #368, #784, #118, #714, #238, #476, #191, #795, #602, #490, #281, #683, #348, #437, #581, #97, #698, #207, #589, #91, #472, #534, #761 ) ) ;
#213 = AXIS2_PLACEMENT_3D ( 'NONE', #255, #67, #203 ) ;
#214 = UNCERTAINTY_MEASURE_WITH_UNIT (LENGTH_MEASURE( 1.000000000000000082E-05 ), #350, 'distance_accuracy_value', 'NONE');
#215 =( NAMED_UNIT ( * ) PLANE_ANGLE_UNIT ( ) SI_UNIT ( $, .RADIAN. ) );
#216 = DIRECTION ( 'NONE',  ( 0.000000000000000000, 0.000000000000000000, 1.000000000000000000 ) ) ;
#217 = LINE ( 'NONE', #536, #399 ) ;
#218 = EDGE_CURVE ( 'NONE', #384, #538, #595, .T. ) ;
#219 = AXIS2_PLACEMENT_3D ( 'NONE', #561, #371, #641 ) ;
#220 = DIRECTION ( 'NONE',  ( 0.000000000000000000, 1.000000000000000000, 0.000000000000000000 ) ) ;
#221 = DIRECTION ( 'NONE',  ( 0.000000000000000000, 0.000000000000000000, 1.000000000000000000 ) ) ;
#222 = DIRECTION ( 'NONE',  ( 0.000000000000000000, 0.000000000000000000, 1.000000000000000000 ) ) ;
#223 = CARTESIAN_POINT ( 'NONE',  ( 0.000000000000000000, 4.000000000000000000, -285.0000000000000000 ) ) ;
#224 = VECTOR ( 'NONE', #29, 1000.000000000000000 ) ;
#225 = EDGE_CURVE ( 'NONE', #562, #378, #720, .T. ) ;
#226 = AXIS2_PLACEMENT_3D ( 'NONE', #753, #10, #71 ) ;
#227 = DIRECTION ( 'NONE',  ( 0.000000000000000000, 1.000000000000000000, 0.000000000000000000 ) ) ;
#228 = CARTESIAN_POINT ( 'NONE',  ( -100.0000000000000000, 4.000000000000000000, -49.99999999999994316 ) ) ;
#229 = AXIS2_PLACEMENT_3D ( 'NONE', #83, #287, #587 ) ;
#230 = AXIS2_PLACEMENT_3D ( 'NONE', #431, #114, #40 ) ;
#231 = COLOUR_RGB ( '',0.5294117647058823595, 0.5490196078431373028, 0.5490196078431373028 ) ;
#232 = CARTESIAN_POINT ( 'NONE',  ( -100.0000000000000000, 4.000000000000000000, -45.49999999999993605 ) ) ;
#233 = ORIENTED_EDGE ( 'NONE', *, *, #790, .T. ) ;
#234 = CARTESIAN_POINT ( 'NONE',  ( -265.0000000000000000, 4.000000000000000000, -279.9999999999999432 ) ) ;
#235 = ORIENTED_EDGE ( 'NONE', *, *, #425, .F. ) ;
#236 = CARTESIAN_POINT ( 'NONE',  ( -265.0000000000000000, 4.000000000000000000, -9.999999999999934275 ) ) ;
#237 = DIRECTION ( 'NONE',  ( 0.000000000000000000, 1.000000000000000000, 0.000000000000000000 ) ) ;
#238 = ADVANCED_FACE ( 'NONE', ( #420 ), #480, .F. ) ;
#239 = ORIENTED_EDGE ( 'NONE', *, *, #165, .F. ) ;
#240 = DIRECTION ( 'NONE',  ( 0.000000000000000000, 1.000000000000000000, 0.000000000000000000 ) ) ;
#241 = DIRECTION ( 'NONE',  ( 0.000000000000000000, 0.000000000000000000, 1.000000000000000000 ) ) ;
#242 = EDGE_CURVE ( 'NONE', #617, #11, #413, .T. ) ;
#243 = DIRECTION ( 'NONE',  ( -0.000000000000000000, -0.000000000000000000, 1.000000000000000000 ) ) ;
#244 = VECTOR ( 'NONE', #482, 1000.000000000000000 ) ;
#245 = ORIENTED_EDGE ( 'NONE', *, *, #85, .T. ) ;
#246 = DIRECTION ( 'NONE',  ( -0.000000000000000000, 1.000000000000000000, -0.000000000000000000 ) ) ;
#247 = ORIENTED_EDGE ( 'NONE', *, *, #708, .F. ) ;
#248 = DIRECTION ( 'NONE',  ( 0.000000000000000000, 0.000000000000000000, 1.000000000000000000 ) ) ;
#249 = ORIENTED_EDGE ( 'NONE', *, *, #174, .F. ) ;
#250 = CARTESIAN_POINT ( 'NONE',  ( 265.0000000000000000, 4.000000000000000000, -269.9999999999999432 ) ) ;
#251 = ORIENTED_EDGE ( 'NONE', *, *, #174, .T. ) ;
#252 = DIRECTION ( 'NONE',  ( 0.000000000000000000, 0.000000000000000000, 1.000000000000000000 ) ) ;
#253 = ORIENTED_EDGE ( 'NONE', *, *, #308, .T. ) ;
#254 = EDGE_CURVE ( 'NONE', #70, #351, #77, .T. ) ;
#255 = CARTESIAN_POINT ( 'NONE',  ( 265.0000000000000000, 4.000000000000000000, -9.999999999999934275 ) ) ;
#256 = AXIS2_PLACEMENT_3D ( 'NONE', #25, #716, #474 ) ;
#257 = VERTEX_POINT ( 'NONE', #374 ) ;
#258 = AXIS2_PLACEMENT_3D ( 'NONE', #250, #367, #634 ) ;
#259 = CARTESIAN_POINT ( 'NONE',  ( -275.0000000000000000, 4.000000000000000000, 6.551860375438340524E-14 ) ) ;
#260 = EDGE_LOOP ( 'NONE', ( #453, #481 ) ) ;
#261 = CYLINDRICAL_SURFACE ( 'NONE', #544, 4.500000000000003553 ) ;
#262 = CIRCLE ( 'NONE', #546, 4.500000000000003553 ) ;
#263 = ORIENTED_EDGE ( 'NONE', *, *, #85, .F. ) ;
#264 = DIRECTION ( 'NONE',  ( -1.000000000000000000, 0.000000000000000000, 0.000000000000000000 ) ) ;
#265 = EDGE_LOOP ( 'NONE', ( #109, #317, #253, #84 ) ) ;
#266 = CARTESIAN_POINT ( 'NONE',  ( 240.0000000000000000, 1.000000000000000000, -205.4999999999999716 ) ) ;
#267 = ORIENTED_EDGE ( 'NONE', *, *, #560, .T. ) ;
#268 = APPLICATION_PROTOCOL_DEFINITION ( 'draft international standard', 'automotive_design', 1998, #605 ) ;
#269 = FACE_OUTER_BOUND ( 'NONE', #700, .T. ) ;
#270 = ORIENTED_EDGE ( 'NONE', *, *, #631, .F. ) ;
#271 = EDGE_CURVE ( 'NONE', #18, #807, #366, .T. ) ;
#272 = DIRECTION ( 'NONE',  ( 0.000000000000000000, 0.000000000000000000, 1.000000000000000000 ) ) ;
#273 = CIRCLE ( 'NONE', #150, 4.500000000000003553 ) ;
#274 = FACE_OUTER_BOUND ( 'NONE', #21, .T. ) ;
#275 = AXIS2_PLACEMENT_3D ( 'NONE', #236, #166, #475 ) ;
#276 = EDGE_CURVE ( 'NONE', #69, #428, #687, .T. ) ;
#277 = DIRECTION ( 'NONE',  ( 0.000000000000000000, 0.000000000000000000, 1.000000000000000000 ) ) ;
#278 = DIRECTION ( 'NONE',  ( 0.000000000000000000, 0.000000000000000000, 1.000000000000000000 ) ) ;
#279 = CARTESIAN_POINT ( 'NONE',  ( 0.000000000000000000, 0.000000000000000000, 0.000000000000000000 ) ) ;
#280 = DIRECTION ( 'NONE',  ( -0.000000000000000000, 1.000000000000000000, -0.000000000000000000 ) ) ;
#281 = ADVANCED_FACE ( 'NONE', ( #269 ), #312, .T. ) ;
#282 = DIRECTION ( 'NONE',  ( 0.000000000000000000, 0.000000000000000000, 1.000000000000000000 ) ) ;
#283 = AXIS2_PLACEMENT_3D ( 'NONE', #19, #3, #758 ) ;
#284 = DIRECTION ( 'NONE',  ( 0.000000000000000000, -0.000000000000000000, 1.000000000000000000 ) ) ;
#285 = ORIENTED_EDGE ( 'NONE', *, *, #647, .F. ) ;
#286 = VECTOR ( 'NONE', #415, 1000.000000000000000 ) ;
#287 = DIRECTION ( 'NONE',  ( 0.000000000000000000, 0.000000000000000000, -1.000000000000000000 ) ) ;
#288 = DIRECTION ( 'NONE',  ( 0.000000000000000000, 0.000000000000000000, 1.000000000000000000 ) ) ;
#289 = CARTESIAN_POINT ( 'NONE',  ( 275.0000000000000000, 4.000000000000000000, 6.551860375438340524E-14 ) ) ;
#290 = DIRECTION ( 'NONE',  ( 0.000000000000000000, 1.000000000000000000, 0.000000000000000000 ) ) ;
#291 = VECTOR ( 'NONE', #504, 1000.000000000000000 ) ;
#292 = DIRECTION ( 'NONE',  ( -1.000000000000000000, 0.000000000000000000, 0.000000000000000000 ) ) ;
#293 = DIRECTION ( 'NONE',  ( 0.000000000000000000, 0.000000000000000000, 1.000000000000000000 ) ) ;
#294 = VECTOR ( 'NONE', #473, 1000.000000000000000 ) ;
#295 = LINE ( 'NONE', #614, #697 ) ;
#296 = PRODUCT_DEFINITION_SHAPE ( 'NONE', 'NONE',  #540 ) ;
#297 = FILL_AREA_STYLE_COLOUR ( '', #529 ) ;
#298 = ORIENTED_EDGE ( 'NONE', *, *, #388, .F. ) ;
#299 = ORIENTED_EDGE ( 'NONE', *, *, #505, .T. ) ;
#300 = CARTESIAN_POINT ( 'NONE',  ( 275.0000000000000000, 4.000000000000000000, -9.999999999999934275 ) ) ;
#301 = EDGE_CURVE ( 'NONE', #802, #580, #621, .T. ) ;
#302 = DIRECTION ( 'NONE',  ( 0.000000000000000000, 1.000000000000000000, 0.000000000000000000 ) ) ;
#303 = ORIENTED_EDGE ( 'NONE', *, *, #380, .T. ) ;
#304 = ORIENTED_EDGE ( 'NONE', *, *, #102, .F. ) ;
#305 = CARTESIAN_POINT ( 'NONE',  ( 100.0000000000000000, 1.000000000000000000, -54.49999999999994316 ) ) ;
#306 = AXIS2_PLACEMENT_3D ( 'NONE', #108, #354, #610 ) ;
#307 = ORIENTED_EDGE ( 'NONE', *, *, #380, .F. ) ;
#308 = EDGE_CURVE ( 'NONE', #392, #797, #510, .T. ) ;
#309 = DIRECTION ( 'NONE',  ( 0.000000000000000000, 1.000000000000000000, 0.000000000000000000 ) ) ;
#310 = AXIS2_PLACEMENT_3D ( 'NONE', #666, #169, #671 ) ;
#311 = ORIENTED_EDGE ( 'NONE', *, *, #356, .T. ) ;
#312 = CYLINDRICAL_SURFACE ( 'NONE', #213, 10.00000000000000000 ) ;
#313 = EDGE_CURVE ( 'NONE', #793, #69, #147, .T. ) ;
#314 = DIRECTION ( 'NONE',  ( 0.000000000000000000, 0.000000000000000000, 1.000000000000000000 ) ) ;
#315 = ORIENTED_EDGE ( 'NONE', *, *, #425, .T. ) ;
#316 = CARTESIAN_POINT ( 'NONE',  ( -275.0000000000000000, 4.000000000000000000, -9.999999999999934275 ) ) ;
#317 = ORIENTED_EDGE ( 'NONE', *, *, #338, .T. ) ;
#318 = CYLINDRICAL_SURFACE ( 'NONE', #357, 4.500000000000003553 ) ;
#319 = ORIENTED_EDGE ( 'NONE', *, *, #522, .T. ) ;
#320 = CARTESIAN_POINT ( 'NONE',  ( -100.0000000000000000, 1.000000000000000000, -54.49999999999994316 ) ) ;
#321 = ORIENTED_EDGE ( 'NONE', *, *, #593, .F. ) ;
#322 = PLANE ( 'NONE',  #37 ) ;
#323 = ORIENTED_EDGE ( 'NONE', *, *, #511, .F. ) ;
#324 = DIRECTION ( 'NONE',  ( 0.000000000000000000, 0.000000000000000000, 1.000000000000000000 ) ) ;
#325 = ORIENTED_EDGE ( 'NONE', *, *, #421, .T. ) ;
#326 = ORIENTED_EDGE ( 'NONE', *, *, #105, .T. ) ;
#327 = PLANE ( 'NONE',  #779 ) ;
#328 = DIRECTION ( 'NONE',  ( 0.000000000000000000, 0.000000000000000000, 1.000000000000000000 ) ) ;
#329 = EDGE_CURVE ( 'NONE', #448, #658, #638, .T. ) ;
#330 = ORIENTED_EDGE ( 'NONE', *, *, #16, .T. ) ;
#331 = CARTESIAN_POINT ( 'NONE',  ( 0.000000000000000000, 4.000000000000000000, -285.0000000000000000 ) ) ;
#332 = CARTESIAN_POINT ( 'NONE',  ( -240.0000000000000000, 4.000000000000000000, -205.4999999999999716 ) ) ;
#333 = EDGE_CURVE ( 'NONE', #802, #364, #788, .T. ) ;
#334 = SURFACE_STYLE_FILL_AREA ( #152 ) ;
#335 = CARTESIAN_POINT ( 'NONE',  ( 275.0000000000000000, 4.000000000000000000, -269.9999999999999432 ) ) ;
#336 = CARTESIAN_POINT ( 'NONE',  ( 230.9220647751097886, 4.000000000000000000, -279.9999999999999432 ) ) ;
#337 = VECTOR ( 'NONE', #349, 1000.000000000000000 ) ;
#338 = EDGE_CURVE ( 'NONE', #54, #392, #377, .T. ) ;
#339 = LINE ( 'NONE', #335, #26 ) ;
#340 = CARTESIAN_POINT ( 'NONE',  ( 265.0000000000000000, 4.000000000000000000, -279.9999999999999432 ) ) ;
#341 = DIRECTION ( 'NONE',  ( 0.000000000000000000, 0.000000000000000000, 1.000000000000000000 ) ) ;
#342 = CARTESIAN_POINT ( 'NONE',  ( -265.0000000000000000, 1.000000000000000000, -9.999999999999934275 ) ) ;
#343 = DIRECTION ( 'NONE',  ( -1.000000000000000000, 0.000000000000000000, 0.000000000000000000 ) ) ;
#344 = ORIENTED_EDGE ( 'NONE', *, *, #460, .T. ) ;
#345 = VECTOR ( 'NONE', #240, 1000.000000000000000 ) ;
#346 = DIRECTION ( 'NONE',  ( 0.000000000000000000, 1.000000000000000000, 0.000000000000000000 ) ) ;
#347 = DIRECTION ( 'NONE',  ( 0.000000000000000000, 1.000000000000000000, 0.000000000000000000 ) ) ;
#348 = ADVANCED_FACE ( 'NONE', ( #639 ), #577, .T. ) ;
#349 = DIRECTION ( 'NONE',  ( 0.000000000000000000, 1.000000000000000000, 0.000000000000000000 ) ) ;
#350 =( LENGTH_UNIT ( ) NAMED_UNIT ( * ) SI_UNIT ( .MILLI., .METRE. ) );
#351 = VERTEX_POINT ( 'NONE', #764 ) ;
#352 = AXIS2_PLACEMENT_3D ( 'NONE', #461, #146, #398 ) ;
#353 = CARTESIAN_POINT ( 'NONE',  ( 240.0000000000000000, 4.000000000000000000, -214.4999999999999716 ) ) ;
#354 = DIRECTION ( 'NONE',  ( 0.000000000000000000, 1.000000000000000000, 0.000000000000000000 ) ) ;
#355 = VECTOR ( 'NONE', #210, 1000.000000000000000 ) ;
#356 = EDGE_CURVE ( 'NONE', #20, #187, #583, .T. ) ;
#357 = AXIS2_PLACEMENT_3D ( 'NONE', #693, #497, #252 ) ;
#358 = CARTESIAN_POINT ( 'NONE',  ( -265.0000000000000000, 1.000000000000000000, -269.9999999999999432 ) ) ;
#359 = SURFACE_SIDE_STYLE ('',( #182 ) ) ;
#360 = ORIENTED_EDGE ( 'NONE', *, *, #16, .F. ) ;
#361 = DIRECTION ( 'NONE',  ( 1.000000000000000000, 0.000000000000000000, -0.000000000000000000 ) ) ;
#362 = EDGE_LOOP ( 'NONE', ( #330, #517, #623, #686, #696, #189, #742, #179, #127, #370, #684, #72, #622 ) ) ;
#363 = DIRECTION ( 'NONE',  ( 0.000000000000000000, 1.000000000000000000, 0.000000000000000000 ) ) ;
#364 = VERTEX_POINT ( 'NONE', #320 ) ;
#365 = VECTOR ( 'NONE', #530, 1000.000000000000000 ) ;
#366 = CIRCLE ( 'NONE', #744, 4.500000000000003553 ) ;
#367 = DIRECTION ( 'NONE',  ( 0.000000000000000000, 1.000000000000000000, 0.000000000000000000 ) ) ;
#368 = ADVANCED_FACE ( 'NONE', ( #563 ), #261, .F. ) ;
#369 = VERTEX_POINT ( 'NONE', #15 ) ;
#370 = ORIENTED_EDGE ( 'NONE', *, *, #338, .F. ) ;
#371 = DIRECTION ( 'NONE',  ( 0.000000000000000000, 1.000000000000000000, 0.000000000000000000 ) ) ;
#372 = ORIENTED_EDGE ( 'NONE', *, *, #333, .F. ) ;
#373 = PRODUCT_DEFINITION_FORMATION_WITH_SPECIFIED_SOURCE ( 'ANY', '', #604, .NOT_KNOWN. ) ;
#374 = CARTESIAN_POINT ( 'NONE',  ( -240.0000000000000000, 1.000000000000000000, -205.4999999999999716 ) ) ;
#375 = ORIENTED_EDGE ( 'NONE', *, *, #22, .F. ) ;
#376 = ORIENTED_EDGE ( 'NONE', *, *, #125, .T. ) ;
#377 = LINE ( 'NONE', #558, #670 ) ;
#378 = VERTEX_POINT ( 'NONE', #678 ) ;
#379 = EDGE_LOOP ( 'NONE', ( #391, #608 ) ) ;
#380 = EDGE_CURVE ( 'NONE', #401, #617, #691, .T. ) ;
#381 = DIRECTION ( 'NONE',  ( 0.000000000000000000, 0.000000000000000000, 1.000000000000000000 ) ) ;
#382 = ORIENTED_EDGE ( 'NONE', *, *, #767, .T. ) ;
#383 = DIRECTION ( 'NONE',  ( 0.000000000000000000, 1.000000000000000000, 0.000000000000000000 ) ) ;
#384 = VERTEX_POINT ( 'NONE', #266 ) ;
#385 = ORIENTED_EDGE ( 'NONE', *, *, #225, .F. ) ;
#386 = DIRECTION ( 'NONE',  ( -0.000000000000000000, -0.000000000000000000, 1.000000000000000000 ) ) ;
#387 = EDGE_LOOP ( 'NONE', ( #628, #360, #303, #498 ) ) ;
#388 = EDGE_CURVE ( 'NONE', #384, #658, #454, .T. ) ;
#389 = CARTESIAN_POINT ( 'NONE',  ( 0.000000000000000000, 4.000000000000000000, -54.99999999999996447 ) ) ;
#390 = VECTOR ( 'NONE', #408, 1000.000000000000000 ) ;
#391 = ORIENTED_EDGE ( 'NONE', *, *, #155, .T. ) ;
#392 = VERTEX_POINT ( 'NONE', #695 ) ;
#393 = STYLED_ITEM ( 'NONE', ( #202 ), #778 ) ;
#394 = APPLICATION_PROTOCOL_DEFINITION ( 'draft international standard', 'automotive_design', 1998, #723 ) ;
#395 = CARTESIAN_POINT ( 'NONE',  ( 0.000000000000000000, 4.000000000000000000, 0.000000000000000000 ) ) ;
#396 = ORIENTED_EDGE ( 'NONE', *, *, #308, .F. ) ;
#397 = DIRECTION ( 'NONE',  ( 0.000000000000000000, 0.000000000000000000, 1.000000000000000000 ) ) ;
#398 = DIRECTION ( 'NONE',  ( 0.000000000000000000, 0.000000000000000000, 1.000000000000000000 ) ) ;
#399 = VECTOR ( 'NONE', #149, 1000.000000000000000 ) ;
#400 = EDGE_CURVE ( 'NONE', #793, #11, #138, .T. ) ;
#401 = VERTEX_POINT ( 'NONE', #62 ) ;
#402 = CARTESIAN_POINT ( 'NONE',  ( 275.0000000000000000, 4.000000000000000000, -279.9999999999999432 ) ) ;
#403 = AXIS2_PLACEMENT_3D ( 'NONE', #331, #596, #30 ) ;
#404 = CARTESIAN_POINT ( 'NONE',  ( -240.0000000000000000, 1.000000000000000000, -209.9999999999999716 ) ) ;
#405 = AXIS2_PLACEMENT_3D ( 'NONE', #142, #653, #341 ) ;
#406 = UNCERTAINTY_MEASURE_WITH_UNIT (LENGTH_MEASURE( 1.000000000000000082E-05 ), #467, 'distance_accuracy_value', 'NONE');
#407 =( NAMED_UNIT ( * ) SI_UNIT ( $, .STERADIAN. ) SOLID_ANGLE_UNIT ( ) );
#408 = DIRECTION ( 'NONE',  ( 0.000000000000000000, 1.000000000000000000, 0.000000000000000000 ) ) ;
#409 = LINE ( 'NONE', #777, #484 ) ;
#410 =( NAMED_UNIT ( * ) PLANE_ANGLE_UNIT ( ) SI_UNIT ( $, .RADIAN. ) );
#411 = LINE ( 'NONE', #89, #355 ) ;
#412 = CYLINDRICAL_SURFACE ( 'NONE', #786, 4.500000000000003553 ) ;
#413 = CIRCLE ( 'NONE', #763, 230.0000000000000000 ) ;
#414 = UNCERTAINTY_MEASURE_WITH_UNIT (LENGTH_MEASURE( 1.000000000000000082E-05 ), #435, 'distance_accuracy_value', 'NONE');
#415 = DIRECTION ( 'NONE',  ( 0.000000000000000000, 1.000000000000000000, 0.000000000000000000 ) ) ;
#416 = EDGE_CURVE ( 'NONE', #113, #66, #624, .T. ) ;
#417 = VERTEX_POINT ( 'NONE', #36 ) ;
#418 = VECTOR ( 'NONE', #363, 1000.000000000000000 ) ;
#419 = LINE ( 'NONE', #289, #244 ) ;
#420 = FACE_OUTER_BOUND ( 'NONE', #564, .T. ) ;
#421 = EDGE_CURVE ( 'NONE', #11, #428, #662, .T. ) ;
#422 = ORIENTED_EDGE ( 'NONE', *, *, #728, .T. ) ;
#423 = CARTESIAN_POINT ( 'NONE',  ( 265.0000000000000000, 1.000000000000000000, 6.551860375438340524E-14 ) ) ;
#424 = FACE_OUTER_BOUND ( 'NONE', #124, .T. ) ;
#425 = EDGE_CURVE ( 'NONE', #187, #20, #273, .T. ) ;
#426 = CARTESIAN_POINT ( 'NONE',  ( 0.000000000000000000, 1.000000000000000000, 6.551860375438340524E-14 ) ) ;
#427 = DIRECTION ( 'NONE',  ( 0.000000000000000000, 1.000000000000000000, 0.000000000000000000 ) ) ;
#428 = VERTEX_POINT ( 'NONE', #532 ) ;
#429 = CIRCLE ( 'NONE', #733, 10.00000000000000000 ) ;
#430 =( GEOMETRIC_REPRESENTATION_CONTEXT ( 3 ) GLOBAL_UNCERTAINTY_ASSIGNED_CONTEXT ( ( #406 ) ) GLOBAL_UNIT_ASSIGNED_CONTEXT ( ( #467, #215, #206 ) ) REPRESENTATION_CONTEXT ( 'NONE', 'WORKASPACE' ) );
#431 = CARTESIAN_POINT ( 'NONE',  ( 100.0000000000000000, 4.000000000000000000, -49.99999999999994316 ) ) ;
#432 = CARTESIAN_POINT ( 'NONE',  ( -265.0000000000000000, 4.000000000000000000, -269.9999999999999432 ) ) ;
#433 = CYLINDRICAL_SURFACE ( 'NONE', #750, 4.500000000000003553 ) ;
#434 =( NAMED_UNIT ( * ) SI_UNIT ( $, .STERADIAN. ) SOLID_ANGLE_UNIT ( ) );
#435 =( LENGTH_UNIT ( ) NAMED_UNIT ( * ) SI_UNIT ( .MILLI., .METRE. ) );
#436 = ORIENTED_EDGE ( 'NONE', *, *, #45, .F. ) ;
#437 = ADVANCED_FACE ( 'NONE', ( #780 ), #776, .T. ) ;
#438 = DIRECTION ( 'NONE',  ( -0.000000000000000000, 1.000000000000000000, -0.000000000000000000 ) ) ;
#439 = EDGE_LOOP ( 'NONE', ( #396, #494, #2, #811 ) ) ;
#440 = ORIENTED_EDGE ( 'NONE', *, *, #301, .T. ) ;
#441 = FACE_BOUND ( 'NONE', #772, .T. ) ;
#442 = AXIS2_PLACEMENT_3D ( 'NONE', #668, #106, #613 ) ;
#443 = VERTEX_POINT ( 'NONE', #706 ) ;
#444 = DIRECTION ( 'NONE',  ( 0.000000000000000000, 1.000000000000000000, 0.000000000000000000 ) ) ;
#445 = ORIENTED_EDGE ( 'NONE', *, *, #225, .T. ) ;
#446 = EDGE_CURVE ( 'NONE', #458, #562, #411, .T. ) ;
#447 = CARTESIAN_POINT ( 'NONE',  ( -230.9220647751097886, 4.000000000000000000, -279.9999999999999432 ) ) ;
#448 = VERTEX_POINT ( 'NONE', #28 ) ;
#449 = CARTESIAN_POINT ( 'NONE',  ( 240.0000000000000000, 4.000000000000000000, -209.9999999999999716 ) ) ;
#450 = ORIENTED_EDGE ( 'NONE', *, *, #388, .T. ) ;
#451 = EDGE_CURVE ( 'NONE', #443, #748, #429, .T. ) ;
#452 = LINE ( 'NONE', #685, #673 ) ;
#453 = ORIENTED_EDGE ( 'NONE', *, *, #674, .F. ) ;
#454 = LINE ( 'NONE', #579, #139 ) ;
#455 = ORIENTED_EDGE ( 'NONE', *, *, #130, .T. ) ;
#456 = AXIS2_PLACEMENT_3D ( 'NONE', #358, #346, #537 ) ;
#457 = CARTESIAN_POINT ( 'NONE',  ( 275.0000000000000000, 4.000000000000000000, 6.551860375438340524E-14 ) ) ;
#458 = VERTEX_POINT ( 'NONE', #92 ) ;
#459 = CARTESIAN_POINT ( 'NONE',  ( 100.0000000000000000, 4.000000000000000000, -49.99999999999994316 ) ) ;
#460 = EDGE_CURVE ( 'NONE', #658, #448, #262, .T. ) ;
#461 = CARTESIAN_POINT ( 'NONE',  ( -100.0000000000000000, 4.000000000000000000, -49.99999999999994316 ) ) ;
#462 = DIRECTION ( 'NONE',  ( 0.000000000000000000, 1.000000000000000000, 0.000000000000000000 ) ) ;
#463 = STYLED_ITEM ( 'NONE', ( #799 ), #156 ) ;
#464 = CARTESIAN_POINT ( 'NONE',  ( 100.0000000000000000, 4.000000000000000000, -45.49999999999993605 ) ) ;
#465 = CIRCLE ( 'NONE', #5, 4.500000000000003553 ) ;
#466 = VECTOR ( 'NONE', #629, 1000.000000000000000 ) ;
#467 =( LENGTH_UNIT ( ) NAMED_UNIT ( * ) SI_UNIT ( .MILLI., .METRE. ) );
#468 = CARTESIAN_POINT ( 'NONE',  ( 240.0000000000000000, 4.000000000000000000, -209.9999999999999716 ) ) ;
#469 = CARTESIAN_POINT ( 'NONE',  ( -240.0000000000000000, 4.000000000000000000, -209.9999999999999716 ) ) ;
#470 = FACE_BOUND ( 'NONE', #620, .T. ) ;
#471 = DIRECTION ( 'NONE',  ( 0.000000000000000000, 0.000000000000000000, 1.000000000000000000 ) ) ;
#472 = ADVANCED_FACE ( 'NONE', ( #528 ), #96, .T. ) ;
#473 = DIRECTION ( 'NONE',  ( 0.000000000000000000, 1.000000000000000000, 0.000000000000000000 ) ) ;
#474 = DIRECTION ( 'NONE',  ( 0.000000000000000000, 0.000000000000000000, 1.000000000000000000 ) ) ;
#475 = DIRECTION ( 'NONE',  ( 0.000000000000000000, 0.000000000000000000, 1.000000000000000000 ) ) ;
#476 = ADVANCED_FACE ( 'NONE', ( #582 ), #524, .T. ) ;
#477 = CARTESIAN_POINT ( 'NONE',  ( 240.0000000000000000, 1.000000000000000000, -209.9999999999999716 ) ) ;
#478 = LINE ( 'NONE', #722, #294 ) ;
#479 = EDGE_CURVE ( 'NONE', #351, #681, #598, .T. ) ;
#480 = CYLINDRICAL_SURFACE ( 'NONE', #306, 230.0000000000000000 ) ;
#481 = ORIENTED_EDGE ( 'NONE', *, *, #162, .F. ) ;
#482 = DIRECTION ( 'NONE',  ( 0.000000000000000000, 0.000000000000000000, -1.000000000000000000 ) ) ;
#483 = DIRECTION ( 'NONE',  ( 0.000000000000000000, 1.000000000000000000, 0.000000000000000000 ) ) ;
#484 = VECTOR ( 'NONE', #34, 1000.000000000000000 ) ;
#485 = AXIS2_PLACEMENT_3D ( 'NONE', #167, #792, #727 ) ;
#486 = LINE ( 'NONE', #426, #508 ) ;
#487 = CARTESIAN_POINT ( 'NONE',  ( -230.9220647751097886, 4.000000000000000000, -278.9999999999999432 ) ) ;
#488 = VECTOR ( 'NONE', #383, 1000.000000000000000 ) ;
#489 = VECTOR ( 'NONE', #566, 1000.000000000000000 ) ;
#490 = ADVANCED_FACE ( 'NONE', ( #646 ), #157, .T. ) ;
#491 = AXIS2_PLACEMENT_3D ( 'NONE', #279, #704, #88 ) ;
#492 = MECHANICAL_DESIGN_GEOMETRIC_PRESENTATION_REPRESENTATION (  '', ( #393 ), #430 ) ;
#493 = FACE_OUTER_BOUND ( 'NONE', #55, .T. ) ;
#494 = ORIENTED_EDGE ( 'NONE', *, *, #76, .T. ) ;
#495 = DIRECTION ( 'NONE',  ( 0.000000000000000000, 0.000000000000000000, 1.000000000000000000 ) ) ;
#496 = EDGE_CURVE ( 'NONE', #351, #113, #339, .T. ) ;
#497 = DIRECTION ( 'NONE',  ( 0.000000000000000000, 1.000000000000000000, 0.000000000000000000 ) ) ;
#498 = ORIENTED_EDGE ( 'NONE', *, *, #242, .T. ) ;
#499 = CARTESIAN_POINT ( 'NONE',  ( -240.0000000000000000, 4.000000000000000000, -209.9999999999999716 ) ) ;
#500 = ORIENTED_EDGE ( 'NONE', *, *, #276, .F. ) ;
#501 = CARTESIAN_POINT ( 'NONE',  ( -230.9220647751097886, 4.000000000000000000, -279.9999999999999432 ) ) ;
#502 = ORIENTED_EDGE ( 'NONE', *, *, #416, .T. ) ;
#503 = AXIS2_PLACEMENT_3D ( 'NONE', #104, #290, #730 ) ;
#504 = DIRECTION ( 'NONE',  ( 0.000000000000000000, 1.000000000000000000, 0.000000000000000000 ) ) ;
#505 = EDGE_CURVE ( 'NONE', #648, #443, #710, .T. ) ;
#506 = ORIENTED_EDGE ( 'NONE', *, *, #416, .F. ) ;
#507 = LINE ( 'NONE', #447, #99 ) ;
#508 = VECTOR ( 'NONE', #361, 1000.000000000000000 ) ;
#509 = ORIENTED_EDGE ( 'NONE', *, *, #301, .F. ) ;
#510 = LINE ( 'NONE', #316, #519 ) ;
#511 = EDGE_CURVE ( 'NONE', #143, #428, #177, .T. ) ;
#512 = ORIENTED_EDGE ( 'NONE', *, *, #511, .T. ) ;
#513 = EDGE_LOOP ( 'NONE', ( #809, #557 ) ) ;
#514 = CYLINDRICAL_SURFACE ( 'NONE', #612, 4.500000000000003553 ) ;
#515 = ORIENTED_EDGE ( 'NONE', *, *, #125, .F. ) ;
#516 = DIRECTION ( 'NONE',  ( 0.000000000000000000, 1.000000000000000000, 0.000000000000000000 ) ) ;
#517 = ORIENTED_EDGE ( 'NONE', *, *, #313, .T. ) ;
#518 = DIRECTION ( 'NONE',  ( 0.000000000000000000, 0.000000000000000000, 1.000000000000000000 ) ) ;
#519 = VECTOR ( 'NONE', #444, 1000.000000000000000 ) ;
#520 = ORIENTED_EDGE ( 'NONE', *, *, #421, .F. ) ;
#521 = ORIENTED_EDGE ( 'NONE', *, *, #719, .T. ) ;
#522 = EDGE_CURVE ( 'NONE', #573, #807, #208, .T. ) ;
#523 = CIRCLE ( 'NONE', #111, 4.500000000000003553 ) ;
#524 = PLANE ( 'NONE',  #151 ) ;
#525 = CYLINDRICAL_SURFACE ( 'NONE', #352, 4.500000000000003553 ) ;
#526 = CARTESIAN_POINT ( 'NONE',  ( -230.9220647751097886, 4.000000000000000000, -278.9999999999999432 ) ) ;
#527 = ORIENTED_EDGE ( 'NONE', *, *, #451, .T. ) ;
#528 = FACE_OUTER_BOUND ( 'NONE', #707, .T. ) ;
#529 = COLOUR_RGB ( '',0.5294117647058823595, 0.5490196078431373028, 0.5490196078431373028 ) ;
#530 = DIRECTION ( 'NONE',  ( 0.000000000000000000, 1.000000000000000000, 0.000000000000000000 ) ) ;
#531 = AXIS2_PLACEMENT_3D ( 'NONE', #228, #43, #293 ) ;
#532 = CARTESIAN_POINT ( 'NONE',  ( 229.9224021570357479, 4.000000000000000000, -279.0259740259739942 ) ) ;
#533 = CARTESIAN_POINT ( 'NONE',  ( -265.0000000000000000, 4.000000000000000000, -9.999999999999934275 ) ) ;
#534 = ADVANCED_FACE ( 'NONE', ( #657, #592, #33, #470, #712 ), #699, .T. ) ;
#535 = DIRECTION ( 'NONE',  ( -0.000000000000000000, 1.000000000000000000, -0.000000000000000000 ) ) ;
#536 = CARTESIAN_POINT ( 'NONE',  ( 275.0000000000000000, 4.000000000000000000, -279.9999999999999432 ) ) ;
#537 = DIRECTION ( 'NONE',  ( 0.000000000000000000, 0.000000000000000000, 1.000000000000000000 ) ) ;
#538 = VERTEX_POINT ( 'NONE', #56 ) ;
#539 = CARTESIAN_POINT ( 'NONE',  ( 230.9220647751097886, 4.000000000000000000, -279.9999999999999432 ) ) ;
#540 = PRODUCT_DEFINITION ( 'UNKNOWN', '', #373, #141 ) ;
#541 = DIRECTION ( 'NONE',  ( -0.000000000000000000, 1.000000000000000000, -0.000000000000000000 ) ) ;
#542 = VERTEX_POINT ( 'NONE', #305 ) ;
#543 = DIRECTION ( 'NONE',  ( -0.000000000000000000, 1.000000000000000000, -0.000000000000000000 ) ) ;
#544 = AXIS2_PLACEMENT_3D ( 'NONE', #449, #571, #741 ) ;
#545 = ORIENTED_EDGE ( 'NONE', *, *, #102, .T. ) ;
#546 = AXIS2_PLACEMENT_3D ( 'NONE', #468, #535, #397 ) ;
#547 = CYLINDRICAL_SURFACE ( 'NONE', #275, 10.00000000000000000 ) ;
#548 = DIRECTION ( 'NONE',  ( 0.000000000000000000, 0.000000000000000000, 1.000000000000000000 ) ) ;
#549 = FACE_OUTER_BOUND ( 'NONE', #132, .T. ) ;
#550 = CARTESIAN_POINT ( 'NONE',  ( 265.0000000000000000, 1.000000000000000000, -9.999999999999934275 ) ) ;
#551 = CIRCLE ( 'NONE', #201, 4.500000000000003553 ) ;
#552 = LINE ( 'NONE', #175, #286 ) ;
#553 = CARTESIAN_POINT ( 'NONE',  ( 100.0000000000000000, 4.000000000000000000, -54.49999999999994316 ) ) ;
#554 = EDGE_CURVE ( 'NONE', #70, #748, #100, .T. ) ;
#555 = ORIENTED_EDGE ( 'NONE', *, *, #218, .T. ) ;
#556 = CARTESIAN_POINT ( 'NONE',  ( 275.0000000000000000, 4.000000000000000000, 6.551860375438340524E-14 ) ) ;
#557 = ORIENTED_EDGE ( 'NONE', *, *, #740, .T. ) ;
#558 = CARTESIAN_POINT ( 'NONE',  ( -275.0000000000000000, 1.000000000000000000, 0.000000000000000000 ) ) ;
#559 = ORIENTED_EDGE ( 'NONE', *, *, #554, .T. ) ;
#560 = EDGE_CURVE ( 'NONE', #369, #606, #486, .T. ) ;
#561 = CARTESIAN_POINT ( 'NONE',  ( 0.000000000000000000, 1.000000000000000000, 0.000000000000000000 ) ) ;
#562 = VERTEX_POINT ( 'NONE', #661 ) ;
#563 = FACE_OUTER_BOUND ( 'NONE', #746, .T. ) ;
#564 = EDGE_LOOP ( 'NONE', ( #690, #120, #325, #500 ) ) ;
#565 = PRESENTATION_LAYER_ASSIGNMENT (  '', '', ( #463 ) ) ;
#566 = DIRECTION ( 'NONE',  ( -1.000000000000000000, -0.000000000000000000, 0.000000000000000000 ) ) ;
#567 = ORIENTED_EDGE ( 'NONE', *, *, #162, .T. ) ;
#568 = AXIS2_PLACEMENT_3D ( 'NONE', #477, #543, #172 ) ;
#569 = EDGE_CURVE ( 'NONE', #401, #458, #806, .T. ) ;
#570 = CIRCLE ( 'NONE', #801, 4.500000000000003553 ) ;
#571 = DIRECTION ( 'NONE',  ( 0.000000000000000000, 1.000000000000000000, 0.000000000000000000 ) ) ;
#572 = ORIENTED_EDGE ( 'NONE', *, *, #451, .F. ) ;
#573 = VERTEX_POINT ( 'NONE', #51 ) ;
#574 = PRODUCT_RELATED_PRODUCT_CATEGORY ( 'part', '', ( #604 ) ) ;
#575 = CARTESIAN_POINT ( 'NONE',  ( -100.0000000000000000, 1.000000000000000000, -49.99999999999994316 ) ) ;
#576 = ORIENTED_EDGE ( 'NONE', *, *, #771, .F. ) ;
#577 = CYLINDRICAL_SURFACE ( 'NONE', #258, 10.00000000000000888 ) ;
#578 = EDGE_LOOP ( 'NONE', ( #515, #233, #17, #754 ) ) ;
#579 = CARTESIAN_POINT ( 'NONE',  ( 240.0000000000000000, 4.000000000000000000, -205.4999999999999716 ) ) ;
#580 = VERTEX_POINT ( 'NONE', #232 ) ;
#581 = ADVANCED_FACE ( 'NONE', ( #549 ), #729, .T. ) ;
#582 = FACE_OUTER_BOUND ( 'NONE', #200, .T. ) ;
#583 = CIRCLE ( 'NONE', #226, 4.500000000000003553 ) ;
#584 = FACE_OUTER_BOUND ( 'NONE', #387, .T. ) ;
#585 = EDGE_CURVE ( 'NONE', #176, #20, #552, .T. ) ;
#586 = AXIS2_PLACEMENT_3D ( 'NONE', #718, #600, #798 ) ;
#587 = DIRECTION ( 'NONE',  ( -1.000000000000000000, 0.000000000000000000, 0.000000000000000000 ) ) ;
#588 = LINE ( 'NONE', #713, #224 ) ;
#589 = ADVANCED_FACE ( 'NONE', ( #785 ), #794, .F. ) ;
#590 = DIRECTION ( 'NONE',  ( 0.000000000000000000, 1.000000000000000000, 0.000000000000000000 ) ) ;
#591 = CARTESIAN_POINT ( 'NONE',  ( 275.0000000000000000, 1.000000000000000000, -9.999999999999934275 ) ) ;
#592 = FACE_BOUND ( 'NONE', #260, .T. ) ;
#593 = EDGE_CURVE ( 'NONE', #538, #448, #103, .T. ) ;
#594 = DIRECTION ( 'NONE',  ( 0.000000000000000000, 0.000000000000000000, 1.000000000000000000 ) ) ;
#595 = CIRCLE ( 'NONE', #568, 4.500000000000003553 ) ;
#596 = DIRECTION ( 'NONE',  ( 0.000000000000000000, 1.000000000000000000, 0.000000000000000000 ) ) ;
#597 = VECTOR ( 'NONE', #644, 1000.000000000000000 ) ;
#598 = CIRCLE ( 'NONE', #405, 10.00000000000000888 ) ;
#599 = DIRECTION ( 'NONE',  ( 0.000000000000000000, 1.000000000000000000, 0.000000000000000000 ) ) ;
#600 = DIRECTION ( 'NONE',  ( 0.000000000000000000, 1.000000000000000000, 0.000000000000000000 ) ) ;
#601 = FACE_OUTER_BOUND ( 'NONE', #732, .T. ) ;
#602 = ADVANCED_FACE ( 'NONE', ( #164 ), #547, .T. ) ;
#603 = CARTESIAN_POINT ( 'NONE',  ( -229.9224021570357479, 4.000000000000000000, -279.0259740259739942 ) ) ;
#604 = PRODUCT ( '202500220_02_Deckel Ø470_V1.0', '202500220_02_Deckel Ø470_V1.0', '', ( #32 ) ) ;
#605 = APPLICATION_CONTEXT ( 'automotive_design' ) ;
#606 = VERTEX_POINT ( 'NONE', #423 ) ;
#607 = CIRCLE ( 'NONE', #6, 10.00000000000000000 ) ;
#608 = ORIENTED_EDGE ( 'NONE', *, *, #64, .T. ) ;
#609 = CARTESIAN_POINT ( 'NONE',  ( 275.0000000000000000, 4.000000000000000000, -279.9999999999999432 ) ) ;
#610 = DIRECTION ( 'NONE',  ( 0.000000000000000000, 0.000000000000000000, 1.000000000000000000 ) ) ;
#611 = ORIENTED_EDGE ( 'NONE', *, *, #22, .T. ) ;
#612 = AXIS2_PLACEMENT_3D ( 'NONE', #756, #65, #636 ) ;
#613 = DIRECTION ( 'NONE',  ( 0.000000000000000000, 0.000000000000000000, 1.000000000000000000 ) ) ;
#614 = CARTESIAN_POINT ( 'NONE',  ( -275.0000000000000000, 4.000000000000000000, -269.9999999999999432 ) ) ;
#615 = EDGE_CURVE ( 'NONE', #748, #113, #419, .T. ) ;
#616 = ORIENTED_EDGE ( 'NONE', *, *, #218, .F. ) ;
#617 = VERTEX_POINT ( 'NONE', #603 ) ;
#618 = CIRCLE ( 'NONE', #94, 4.500000000000003553 ) ;
#619 = CARTESIAN_POINT ( 'NONE',  ( -275.0000000000000000, 4.000000000000000000, -9.999999999999934275 ) ) ;
#620 = EDGE_LOOP ( 'NONE', ( #98, #82 ) ) ;
#621 = LINE ( 'NONE', #195, #58 ) ;
#622 = ORIENTED_EDGE ( 'NONE', *, *, #569, .F. ) ;
#623 = ORIENTED_EDGE ( 'NONE', *, *, #105, .F. ) ;
#624 = CIRCLE ( 'NONE', #749, 10.00000000000000888 ) ;
#625 = EDGE_CURVE ( 'NONE', #54, #9, #295, .T. ) ;
#626 = AXIS2_PLACEMENT_3D ( 'NONE', #770, #284, #659 ) ;
#627 = DIRECTION ( 'NONE',  ( -0.000000000000000000, 1.000000000000000000, -0.000000000000000000 ) ) ;
#628 = ORIENTED_EDGE ( 'NONE', *, *, #400, .F. ) ;
#629 = DIRECTION ( 'NONE',  ( -0.000000000000000000, 0.000000000000000000, -1.000000000000000000 ) ) ;
#630 = ORIENTED_EDGE ( 'NONE', *, *, #647, .T. ) ;
#631 = EDGE_CURVE ( 'NONE', #752, #378, #110, .T. ) ;
#632 = FACE_OUTER_BOUND ( 'NONE', #633, .T. ) ;
#633 = EDGE_LOOP ( 'NONE', ( #736, #319, #611, #304 ) ) ;
#634 = DIRECTION ( 'NONE',  ( 0.000000000000000000, 0.000000000000000000, 1.000000000000000000 ) ) ;
#635 = EDGE_LOOP ( 'NONE', ( #576, #285, #679, #311 ) ) ;
#636 = DIRECTION ( 'NONE',  ( 0.000000000000000000, 0.000000000000000000, 1.000000000000000000 ) ) ;
#637 = ORIENTED_EDGE ( 'NONE', *, *, #271, .F. ) ;
#638 = CIRCLE ( 'NONE', #283, 4.500000000000003553 ) ;
#639 = FACE_OUTER_BOUND ( 'NONE', #739, .T. ) ;
#640 = EDGE_LOOP ( 'NONE', ( #63, #251, #759, #75, #521, #645, #299, #527, #129, #502, #694, #512, #520 ) ) ;
#641 = DIRECTION ( 'NONE',  ( 0.000000000000000000, -0.000000000000000000, 1.000000000000000000 ) ) ;
#642 = CIRCLE ( 'NONE', #456, 10.00000000000000888 ) ;
#643 = ORIENTED_EDGE ( 'NONE', *, *, #165, .T. ) ;
#644 = DIRECTION ( 'NONE',  ( 0.000000000000000000, 1.000000000000000000, 0.000000000000000000 ) ) ;
#645 = ORIENTED_EDGE ( 'NONE', *, *, #39, .T. ) ;
#646 = FACE_OUTER_BOUND ( 'NONE', #61, .T. ) ;
#647 = EDGE_CURVE ( 'NONE', #176, #542, #523, .T. ) ;
#648 = VERTEX_POINT ( 'NONE', #726 ) ;
#649 = AXIS2_PLACEMENT_3D ( 'NONE', #223, #769, #282 ) ;
#650 = DIRECTION ( 'NONE',  ( 0.000000000000000000, 0.000000000000000000, -1.000000000000000000 ) ) ;
#651 = LINE ( 'NONE', #178, #73 ) ;
#652 = VECTOR ( 'NONE', #292, 1000.000000000000000 ) ;
#653 = DIRECTION ( 'NONE',  ( 0.000000000000000000, 1.000000000000000000, 0.000000000000000000 ) ) ;
#654 = DIRECTION ( 'NONE',  ( -0.000000000000000000, 1.000000000000000000, -0.000000000000000000 ) ) ;
#655 = EDGE_CURVE ( 'NONE', #562, #54, #642, .T. ) ;
#656 = SURFACE_SIDE_STYLE ('',( #334 ) ) ;
#657 = FACE_BOUND ( 'NONE', #724, .T. ) ;
#658 = VERTEX_POINT ( 'NONE', #46 ) ;
#659 = DIRECTION ( 'NONE',  ( 1.000000000000000000, -0.000000000000000000, -0.000000000000000000 ) ) ;
#660 = CYLINDRICAL_SURFACE ( 'NONE', #649, 230.0000000000000000 ) ;
#661 = CARTESIAN_POINT ( 'NONE',  ( -265.0000000000000000, 1.000000000000000000, -279.9999999999999432 ) ) ;
#662 = CIRCLE ( 'NONE', #403, 230.0000000000000000 ) ;
#663 = VECTOR ( 'NONE', #386, 1000.000000000000000 ) ;
#664 = EDGE_CURVE ( 'NONE', #369, #648, #478, .T. ) ;
#665 = CARTESIAN_POINT ( 'NONE',  ( 0.000000000000000000, 4.000000000000000000, -54.99999999999996447 ) ) ;
#666 = CARTESIAN_POINT ( 'NONE',  ( 230.9220647751097886, 4.000000000000000000, -278.9999999999999432 ) ) ;
#667 = ORIENTED_EDGE ( 'NONE', *, *, #496, .F. ) ;
#668 = CARTESIAN_POINT ( 'NONE',  ( -100.0000000000000000, 4.000000000000000000, -49.99999999999994316 ) ) ;
#669 = DIRECTION ( 'NONE',  ( -0.000000000000000000, 1.000000000000000000, -0.000000000000000000 ) ) ;
#670 = VECTOR ( 'NONE', #123, 1000.000000000000000 ) ;
#671 = DIRECTION ( 'NONE',  ( 0.000000000000000000, 0.000000000000000000, 1.000000000000000000 ) ) ;
#672 = CARTESIAN_POINT ( 'NONE',  ( -240.0000000000000000, 1.000000000000000000, -209.9999999999999716 ) ) ;
#673 = VECTOR ( 'NONE', #1, 1000.000000000000000 ) ;
#674 = EDGE_CURVE ( 'NONE', #580, #14, #791, .T. ) ;
#675 = DIRECTION ( 'NONE',  ( 0.000000000000000000, -0.000000000000000000, 1.000000000000000000 ) ) ;
#676 = CYLINDRICAL_SURFACE ( 'NONE', #531, 4.500000000000003553 ) ;
#677 = DIRECTION ( 'NONE',  ( -0.000000000000000000, 1.000000000000000000, -0.000000000000000000 ) ) ;
#678 = CARTESIAN_POINT ( 'NONE',  ( -265.0000000000000000, 4.000000000000000000, -279.9999999999999432 ) ) ;
#679 = ORIENTED_EDGE ( 'NONE', *, *, #585, .T. ) ;
#680 = PLANE ( 'NONE',  #219 ) ;
#681 = VERTEX_POINT ( 'NONE', #715 ) ;
#682 = DIRECTION ( 'NONE',  ( -0.000000000000000000, 1.000000000000000000, -0.000000000000000000 ) ) ;
#683 = ADVANCED_FACE ( 'NONE', ( #161 ), #327, .T. ) ;
#684 = ORIENTED_EDGE ( 'NONE', *, *, #655, .F. ) ;
#685 = CARTESIAN_POINT ( 'NONE',  ( 100.0000000000000000, 4.000000000000000000, -54.49999999999994316 ) ) ;
#686 = ORIENTED_EDGE ( 'NONE', *, *, #790, .F. ) ;
#687 = LINE ( 'NONE', #128, #291 ) ;
#688 = ORIENTED_EDGE ( 'NONE', *, *, #522, .F. ) ;
#689 = DIRECTION ( 'NONE',  ( 0.000000000000000000, 0.000000000000000000, -1.000000000000000000 ) ) ;
#690 = ORIENTED_EDGE ( 'NONE', *, *, #313, .F. ) ;
#691 = LINE ( 'NONE', #133, #488 ) ;
#692 = ORIENTED_EDGE ( 'NONE', *, *, #655, .T. ) ;
#693 = CARTESIAN_POINT ( 'NONE',  ( 100.0000000000000000, 4.000000000000000000, -49.99999999999994316 ) ) ;
#694 = ORIENTED_EDGE ( 'NONE', *, *, #27, .T. ) ;
#695 = CARTESIAN_POINT ( 'NONE',  ( -275.0000000000000000, 1.000000000000000000, -9.999999999999934275 ) ) ;
#696 = ORIENTED_EDGE ( 'NONE', *, *, #479, .F. ) ;
#697 = VECTOR ( 'NONE', #42, 1000.000000000000000 ) ;
#698 = ADVANCED_FACE ( 'NONE', ( #197 ), #514, .F. ) ;
#699 = PLANE ( 'NONE',  #35 ) ;
#700 = EDGE_LOOP ( 'NONE', ( #247, #455, #559, #572 ) ) ;
#701 = FILL_AREA_STYLE_COLOUR ( '', #231 ) ;
#702 = DIRECTION ( 'NONE',  ( 0.000000000000000000, 1.000000000000000000, 0.000000000000000000 ) ) ;
#703 = CARTESIAN_POINT ( 'NONE',  ( -275.0000000000000000, 1.000000000000000000, -269.9999999999999432 ) ) ;
#704 = DIRECTION ( 'NONE',  ( 0.000000000000000000, 0.000000000000000000, 1.000000000000000000 ) ) ;
#705 = CIRCLE ( 'NONE', #800, 230.0000000000000000 ) ;
#706 = CARTESIAN_POINT ( 'NONE',  ( 265.0000000000000000, 4.000000000000000000, 6.551860375438340524E-14 ) ) ;
#707 = EDGE_LOOP ( 'NONE', ( #204, #422, #249, #307 ) ) ;
#708 = EDGE_CURVE ( 'NONE', #606, #443, #121, .T. ) ;
#709 = AXIS2_PLACEMENT_3D ( 'NONE', #575, #677, #314 ) ;
#710 = LINE ( 'NONE', #457, #79 ) ;
#711 = LINE ( 'NONE', #336, #365 ) ;
#712 = FACE_OUTER_BOUND ( 'NONE', #640, .T. ) ;
#713 = CARTESIAN_POINT ( 'NONE',  ( -100.0000000000000000, 4.000000000000000000, -54.49999999999994316 ) ) ;
#714 = ADVANCED_FACE ( 'NONE', ( #632 ), #433, .F. ) ;
#715 = CARTESIAN_POINT ( 'NONE',  ( 265.0000000000000000, 1.000000000000000000, -279.9999999999999432 ) ) ;
#716 = DIRECTION ( 'NONE',  ( 0.000000000000000000, 1.000000000000000000, 0.000000000000000000 ) ) ;
#717 = AXIS2_PLACEMENT_3D ( 'NONE', #199, #682, #518 ) ;
#718 = CARTESIAN_POINT ( 'NONE',  ( -230.9220647751097886, 1.000000000000000000, -278.9999999999999432 ) ) ;
#719 = EDGE_CURVE ( 'NONE', #9, #797, #188, .T. ) ;
#720 = LINE ( 'NONE', #234, #7 ) ;
#721 = PRESENTATION_LAYER_ASSIGNMENT (  '', '', ( #393 ) ) ;
#722 = CARTESIAN_POINT ( 'NONE',  ( -265.0000000000000000, 4.000000000000000000, 6.551860375438340524E-14 ) ) ;
#723 = APPLICATION_CONTEXT ( 'automotive_design' ) ;
#724 = EDGE_LOOP ( 'NONE', ( #637, #375 ) ) ;
#725 = ORIENTED_EDGE ( 'NONE', *, *, #674, .T. ) ;
#726 = CARTESIAN_POINT ( 'NONE',  ( -265.0000000000000000, 4.000000000000000000, 6.551860375438340524E-14 ) ) ;
#727 = DIRECTION ( 'NONE',  ( 0.000000000000000000, 0.000000000000000000, 1.000000000000000000 ) ) ;
#728 = EDGE_CURVE ( 'NONE', #458, #752, #507, .T. ) ;
#729 = CYLINDRICAL_SURFACE ( 'NONE', #310, 1.000000000000000888 ) ;
#730 = DIRECTION ( 'NONE',  ( 0.000000000000000000, 0.000000000000000000, 1.000000000000000000 ) ) ;
#731 = AXIS2_PLACEMENT_3D ( 'NONE', #80, #627, #381 ) ;
#732 = EDGE_LOOP ( 'NONE', ( #385, #692, #804, #68 ) ) ;
#733 = AXIS2_PLACEMENT_3D ( 'NONE', #153, #590, #216 ) ;
#734 =( GEOMETRIC_REPRESENTATION_CONTEXT ( 3 ) GLOBAL_UNCERTAINTY_ASSIGNED_CONTEXT ( ( #414 ) ) GLOBAL_UNIT_ASSIGNED_CONTEXT ( ( #435, #410, #407 ) ) REPRESENTATION_CONTEXT ( 'NONE', 'WORKASPACE' ) );
#735 = ORIENTED_EDGE ( 'NONE', *, *, #254, .T. ) ;
#736 = ORIENTED_EDGE ( 'NONE', *, *, #64, .F. ) ;
#737 = EDGE_LOOP ( 'NONE', ( #321, #616, #450, #344 ) ) ;
#738 = CARTESIAN_POINT ( 'NONE',  ( -240.0000000000000000, 4.000000000000000000, -214.4999999999999716 ) ) ;
#739 = EDGE_LOOP ( 'NONE', ( #667, #140, #376, #506 ) ) ;
#740 = EDGE_CURVE ( 'NONE', #364, #802, #205, .T. ) ;
#741 = DIRECTION ( 'NONE',  ( 0.000000000000000000, 0.000000000000000000, 1.000000000000000000 ) ) ;
#742 = ORIENTED_EDGE ( 'NONE', *, *, #130, .F. ) ;
#743 = AXIS2_PLACEMENT_3D ( 'NONE', #533, #781, #278 ) ;
#744 = AXIS2_PLACEMENT_3D ( 'NONE', #499, #438, #324 ) ;
#745 = DIRECTION ( 'NONE',  ( 0.000000000000000000, 1.000000000000000000, 0.000000000000000000 ) ) ;
#746 = EDGE_LOOP ( 'NONE', ( #173, #192, #52, #298 ) ) ;
#747 = CARTESIAN_POINT ( 'NONE',  ( 0.000000000000000000, 1.000000000000000000, -285.0000000000000000 ) ) ;
#748 = VERTEX_POINT ( 'NONE', #74 ) ;
#749 = AXIS2_PLACEMENT_3D ( 'NONE', #186, #702, #277 ) ;
#750 = AXIS2_PLACEMENT_3D ( 'NONE', #184, #745, #248 ) ;
#751 = CARTESIAN_POINT ( 'NONE',  ( 0.000000000000000000, 1.000000000000000000, -54.99999999999996447 ) ) ;
#752 = VERTEX_POINT ( 'NONE', #501 ) ;
#753 = CARTESIAN_POINT ( 'NONE',  ( 100.0000000000000000, 4.000000000000000000, -49.99999999999994316 ) ) ;
#754 = ORIENTED_EDGE ( 'NONE', *, *, #27, .F. ) ;
#755 = ORIENTED_EDGE ( 'NONE', *, *, #276, .T. ) ;
#756 = CARTESIAN_POINT ( 'NONE',  ( -240.0000000000000000, 4.000000000000000000, -209.9999999999999716 ) ) ;
#757 = ORIENTED_EDGE ( 'NONE', *, *, #708, .T. ) ;
#758 = DIRECTION ( 'NONE',  ( 0.000000000000000000, 0.000000000000000000, 1.000000000000000000 ) ) ;
#759 = ORIENTED_EDGE ( 'NONE', *, *, #631, .T. ) ;
#760 = ORIENTED_EDGE ( 'NONE', *, *, #271, .T. ) ;
#761 = ADVANCED_FACE ( 'NONE', ( #117, #808, #131, #441, #13 ), #680, .F. ) ;
#762 = CIRCLE ( 'NONE', #23, 10.00000000000000000 ) ;
#763 = AXIS2_PLACEMENT_3D ( 'NONE', #796, #483, #190 ) ;
#764 = CARTESIAN_POINT ( 'NONE',  ( 275.0000000000000000, 1.000000000000000000, -269.9999999999999432 ) ) ;
#765 = ORIENTED_EDGE ( 'NONE', *, *, #446, .T. ) ;
#766 = CIRCLE ( 'NONE', #731, 4.500000000000003553 ) ;
#767 = EDGE_CURVE ( 'NONE', #538, #384, #766, .T. ) ;
#768 = DIRECTION ( 'NONE',  ( 0.000000000000000000, 1.000000000000000000, 0.000000000000000000 ) ) ;
#769 = DIRECTION ( 'NONE',  ( 0.000000000000000000, 1.000000000000000000, 0.000000000000000000 ) ) ;
#770 = CARTESIAN_POINT ( 'NONE',  ( 275.0000000000000000, 4.000000000000000000, 6.551860375438340524E-14 ) ) ;
#771 = EDGE_CURVE ( 'NONE', #542, #187, #452, .T. ) ;
#772 = EDGE_LOOP ( 'NONE', ( #555, #382 ) ) ;
#773 = SHAPE_DEFINITION_REPRESENTATION ( #296, #778 ) ;
#774 = MECHANICAL_DESIGN_GEOMETRIC_PRESENTATION_REPRESENTATION (  '', ( #463 ), #171 ) ;
#775 = CIRCLE ( 'NONE', #485, 4.500000000000003553 ) ;
#776 = PLANE ( 'NONE',  #229 ) ;
#777 = CARTESIAN_POINT ( 'NONE',  ( -240.0000000000000000, 4.000000000000000000, -205.4999999999999716 ) ) ;
#778 = ADVANCED_BREP_SHAPE_REPRESENTATION ( '202500220_02_Deckel Ï470_V1.0', ( #156, #491 ), #734 ) ;
#779 = AXIS2_PLACEMENT_3D ( 'NONE', #556, #181, #689 ) ;
#780 = FACE_OUTER_BOUND ( 'NONE', #578, .T. ) ;
#781 = DIRECTION ( 'NONE',  ( 0.000000000000000000, 1.000000000000000000, 0.000000000000000000 ) ) ;
#782 = DIRECTION ( 'NONE',  ( 1.000000000000000000, -0.000000000000000000, -0.000000000000000000 ) ) ;
#783 = CARTESIAN_POINT ( 'NONE',  ( 229.9224021570357479, 1.000000000000000000, -279.0259740259739942 ) ) ;
#784 = ADVANCED_FACE ( 'NONE', ( #493 ), #318, .F. ) ;
#785 = FACE_OUTER_BOUND ( 'NONE', #635, .T. ) ;
#786 = AXIS2_PLACEMENT_3D ( 'NONE', #31, #154, #594 ) ;
#787 = SURFACE_STYLE_USAGE ( .BOTH. , #359 ) ;
#788 = CIRCLE ( 'NONE', #717, 4.500000000000003553 ) ;
#789 = CARTESIAN_POINT ( 'NONE',  ( 100.0000000000000000, 1.000000000000000000, -49.99999999999994316 ) ) ;
#790 = EDGE_CURVE ( 'NONE', #681, #417, #136, .T. ) ;
#791 = CIRCLE ( 'NONE', #442, 4.500000000000003553 ) ;
#792 = DIRECTION ( 'NONE',  ( -0.000000000000000000, 1.000000000000000000, -0.000000000000000000 ) ) ;
#793 = VERTEX_POINT ( 'NONE', #751 ) ;
#794 = CYLINDRICAL_SURFACE ( 'NONE', #230, 4.500000000000003553 ) ;
#795 = ADVANCED_FACE ( 'NONE', ( #193 ), #322, .T. ) ;
#796 = CARTESIAN_POINT ( 'NONE',  ( 0.000000000000000000, 4.000000000000000000, -285.0000000000000000 ) ) ;
#797 = VERTEX_POINT ( 'NONE', #619 ) ;
#798 = DIRECTION ( 'NONE',  ( 0.000000000000000000, 0.000000000000000000, 1.000000000000000000 ) ) ;
#799 = PRESENTATION_STYLE_ASSIGNMENT (( #787 ) ) ;
#800 = AXIS2_PLACEMENT_3D ( 'NONE', #209, #599, #288 ) ;
#801 = AXIS2_PLACEMENT_3D ( 'NONE', #101, #669, #241 ) ;
#802 = VERTEX_POINT ( 'NONE', #60 ) ;
#803 = CARTESIAN_POINT ( 'NONE',  ( 0.000000000000000000, 1.000000000000000000, -279.9999999999999432 ) ) ;
#804 = ORIENTED_EDGE ( 'NONE', *, *, #625, .T. ) ;
#805 = CARTESIAN_POINT ( 'NONE',  ( 100.0000000000000000, 1.000000000000000000, -45.49999999999993605 ) ) ;
#806 = CIRCLE ( 'NONE', #586, 1.000000000000000888 ) ;
#807 = VERTEX_POINT ( 'NONE', #738 ) ;
#808 = FACE_BOUND ( 'NONE', #513, .T. ) ;
#809 = ORIENTED_EDGE ( 'NONE', *, *, #333, .T. ) ;
#810 = CARTESIAN_POINT ( 'NONE',  ( 275.0000000000000000, 1.000000000000000000, 0.000000000000000000 ) ) ;
#811 = ORIENTED_EDGE ( 'NONE', *, *, #39, .F. ) ;
ENDSEC;
END-ISO-10303-21;
