ISO-10303-21;
HEADER;
FILE_DESCRIPTION (( 'STEP AP214' ),
    '1' );
FILE_NAME ('21631_03_025-S_Rotary Support Rod 1_3K.STEP',
    '2021-11-04T14:46:20',
    ( '' ),
    ( '' ),
    'SwSTEP 2.0',
    'SolidWorks 2018',
    '' );
FILE_SCHEMA (( 'AUTOMOTIVE_DESIGN' ));
ENDSEC;

DATA;
#1 = DIRECTION ( 'NONE',  ( -1.000000000000000000, 0.000000000000000000, 0.000000000000000000 ) ) ;
#2 = VECTOR ( 'NONE', #160, 1000.000000000000000 ) ;
#3 = DIRECTION ( 'NONE',  ( 1.000000000000000000, 0.000000000000000000, 0.000000000000000000 ) ) ;
#4 = EDGE_LOOP ( 'NONE', ( #665, #430, #462, #328 ) ) ;
#5 = DIRECTION ( 'NONE',  ( 0.000000000000000000, 0.000000000000000000, 1.000000000000000000 ) ) ;
#6 = ORIENTED_EDGE ( 'NONE', *, *, #529, .F. ) ;
#7 = VECTOR ( 'NONE', #54, 1000.000000000000000 ) ;
#8 = ORIENTED_EDGE ( 'NONE', *, *, #811, .F. ) ;
#9 = VERTEX_POINT ( 'NONE', #62 ) ;
#10 = VECTOR ( 'NONE', #34, 1000.000000000000000 ) ;
#11 = AXIS2_PLACEMENT_3D ( 'NONE', #68, #78, #429 ) ;
#12 = DIRECTION ( 'NONE',  ( -0.000000000000000000, -0.000000000000000000, -1.000000000000000000 ) ) ;
#13 = CARTESIAN_POINT ( 'NONE',  ( 16.99999999999999645, 12.49999999999998046, 21.00000000000000000 ) ) ;
#14 = DIRECTION ( 'NONE',  ( -1.000000000000000000, 0.000000000000000000, 0.000000000000000000 ) ) ;
#15 = LINE ( 'NONE', #918, #822 ) ;
#16 = ADVANCED_FACE ( 'NONE', ( #494 ), #839, .F. ) ;
#17 = VECTOR ( 'NONE', #600, 1000.000000000000000 ) ;
#18 = CARTESIAN_POINT ( 'NONE',  ( 4.999999999999973355, 70.00000000000000000, 21.00000000000000000 ) ) ;
#19 = CARTESIAN_POINT ( 'NONE',  ( 13.00000000000000533, 5.699999999999985079, 0.000000000000000000 ) ) ;
#20 = EDGE_CURVE ( 'NONE', #222, #76, #55, .T. ) ;
#21 = ORIENTED_EDGE ( 'NONE', *, *, #134, .T. ) ;
#22 = DIRECTION ( 'NONE',  ( 0.000000000000000000, -0.000000000000000000, -1.000000000000000000 ) ) ;
#23 = EDGE_LOOP ( 'NONE', ( #485, #64, #899, #655 ) ) ;
#24 = ORIENTED_EDGE ( 'NONE', *, *, #493, .F. ) ;
#25 = DIRECTION ( 'NONE',  ( 0.000000000000000000, 1.000000000000000000, 0.000000000000000000 ) ) ;
#26 = CYLINDRICAL_SURFACE ( 'NONE', #311, 5.000000000000000000 ) ;
#27 = DIRECTION ( 'NONE',  ( 0.4999999999999953371, 0.8660254037844413721, 0.000000000000000000 ) ) ;
#28 = EDGE_CURVE ( 'NONE', #925, #601, #642, .T. ) ;
#29 = CARTESIAN_POINT ( 'NONE',  ( 4.999999999999973355, 20.00000000000000355, 21.00000000000000000 ) ) ;
#30 = VECTOR ( 'NONE', #870, 1000.000000000000000 ) ;
#31 = PLANE ( 'NONE',  #333 ) ;
#32 = VECTOR ( 'NONE', #808, 1000.000000000000000 ) ;
#33 = AXIS2_PLACEMENT_3D ( 'NONE', #698, #646, #780 ) ;
#34 = DIRECTION ( 'NONE',  ( 0.000000000000000000, -1.000000000000000000, -0.000000000000000000 ) ) ;
#35 = ORIENTED_EDGE ( 'NONE', *, *, #857, .T. ) ;
#36 = ORIENTED_EDGE ( 'NONE', *, *, #680, .T. ) ;
#37 = EDGE_CURVE ( 'NONE', #489, #898, #701, .T. ) ;
#38 = DIRECTION ( 'NONE',  ( -0.000000000000000000, -0.000000000000000000, -1.000000000000000000 ) ) ;
#39 = DIRECTION ( 'NONE',  ( 1.000000000000000000, 0.000000000000000000, 0.000000000000000000 ) ) ;
#40 = PRODUCT_DEFINITION_FORMATION_WITH_SPECIFIED_SOURCE ( 'ANY', '', #562, .NOT_KNOWN. ) ;
#41 = CARTESIAN_POINT ( 'NONE',  ( 10.00000000000000533, 3.999999999999985345, 21.00000000000000000 ) ) ;
#42 = EDGE_CURVE ( 'NONE', #497, #230, #849, .T. ) ;
#43 = LINE ( 'NONE', #146, #107 ) ;
#44 = DIRECTION ( 'NONE',  ( -1.000000000000000000, -1.734723475976807834E-16, 0.000000000000000000 ) ) ;
#45 = ORIENTED_EDGE ( 'NONE', *, *, #564, .F. ) ;
#46 = DIRECTION ( 'NONE',  ( 0.000000000000000000, 0.000000000000000000, 1.000000000000000000 ) ) ;
#47 = ORIENTED_EDGE ( 'NONE', *, *, #529, .T. ) ;
#48 = EDGE_CURVE ( 'NONE', #87, #124, #673, .T. ) ;
#49 = EDGE_LOOP ( 'NONE', ( #419, #272, #303, #888, #488, #744, #542 ) ) ;
#50 = ADVANCED_FACE ( 'NONE', ( #582 ), #364, .F. ) ;
#51 = CARTESIAN_POINT ( 'NONE',  ( 10.00000000000000533, 14.30000000000000782, 0.000000000000000000 ) ) ;
#52 = EDGE_CURVE ( 'NONE', #346, #200, #753, .T. ) ;
#53 = LINE ( 'NONE', #374, #283 ) ;
#54 = DIRECTION ( 'NONE',  ( 0.000000000000000000, -0.000000000000000000, -1.000000000000000000 ) ) ;
#55 = LINE ( 'NONE', #205, #768 ) ;
#56 = SURFACE_SIDE_STYLE ('',( #447 ) ) ;
#57 = ORIENTED_EDGE ( 'NONE', *, *, #903, .F. ) ;
#58 = ORIENTED_EDGE ( 'NONE', *, *, #583, .T. ) ;
#59 = DIRECTION ( 'NONE',  ( 0.000000000000000000, 0.000000000000000000, 1.000000000000000000 ) ) ;
#60 = ORIENTED_EDGE ( 'NONE', *, *, #469, .T. ) ;
#61 = EDGE_CURVE ( 'NONE', #73, #500, #428, .T. ) ;
#62 = CARTESIAN_POINT ( 'NONE',  ( 14.49999999999997868, 21.44337567297407787, 16.00000000000000000 ) ) ;
#63 = DIRECTION ( 'NONE',  ( 0.000000000000000000, -0.000000000000000000, -1.000000000000000000 ) ) ;
#64 = ORIENTED_EDGE ( 'NONE', *, *, #638, .T. ) ;
#65 = EDGE_LOOP ( 'NONE', ( #96, #261, #175, #486 ) ) ;
#66 = EDGE_CURVE ( 'NONE', #460, #291, #538, .T. ) ;
#67 = CARTESIAN_POINT ( 'NONE',  ( 0.000000000000000000, 70.00000000000000000, 0.000000000000000000 ) ) ;
#68 = CARTESIAN_POINT ( 'NONE',  ( 13.00000000000000533, 3.999999999999999112, 16.00000000000000000 ) ) ;
#69 = AXIS2_PLACEMENT_3D ( 'NONE', #767, #59, #399 ) ;
#70 = VECTOR ( 'NONE', #502, 1000.000000000000000 ) ;
#71 = EDGE_LOOP ( 'NONE', ( #95, #704, #614, #814 ) ) ;
#72 = DIRECTION ( 'NONE',  ( 1.000000000000000000, 0.000000000000000000, 0.000000000000000000 ) ) ;
#73 = VERTEX_POINT ( 'NONE', #232 ) ;
#74 = VERTEX_POINT ( 'NONE', #861 ) ;
#75 = CYLINDRICAL_SURFACE ( 'NONE', #644, 1.700000000000010614 ) ;
#76 = VERTEX_POINT ( 'NONE', #801 ) ;
#77 = AXIS2_PLACEMENT_3D ( 'NONE', #810, #593, #243 ) ;
#78 = DIRECTION ( 'NONE',  ( -0.000000000000000000, -0.000000000000000000, -1.000000000000000000 ) ) ;
#79 = CYLINDRICAL_SURFACE ( 'NONE', #900, 5.000000000000000000 ) ;
#80 = AXIS2_PLACEMENT_3D ( 'NONE', #512, #506, #81 ) ;
#81 = DIRECTION ( 'NONE',  ( 0.000000000000000000, 0.000000000000000000, -1.000000000000000000 ) ) ;
#82 = CARTESIAN_POINT ( 'NONE',  ( 16.99999999999999645, 12.49999999999998046, 16.00000000000000000 ) ) ;
#83 = FACE_OUTER_BOUND ( 'NONE', #675, .T. ) ;
#84 = EDGE_CURVE ( 'NONE', #722, #545, #526, .T. ) ;
#85 = DIRECTION ( 'NONE',  ( 0.000000000000000000, 0.000000000000000000, 1.000000000000000000 ) ) ;
#86 = EDGE_LOOP ( 'NONE', ( #576, #773, #217, #185, #307, #305 ) ) ;
#87 = VERTEX_POINT ( 'NONE', #804 ) ;
#88 = DIRECTION ( 'NONE',  ( 0.000000000000000000, 0.000000000000000000, -1.000000000000000000 ) ) ;
#89 = DIRECTION ( 'NONE',  ( 1.000000000000000000, 0.000000000000000000, 0.000000000000000000 ) ) ;
#90 = EDGE_CURVE ( 'NONE', #74, #521, #779, .T. ) ;
#91 = DIRECTION ( 'NONE',  ( -1.000000000000000000, 0.000000000000000000, 0.000000000000000000 ) ) ;
#92 = VECTOR ( 'NONE', #319, 1000.000000000000000 ) ;
#93 = CYLINDRICAL_SURFACE ( 'NONE', #416, 5.000000000000000000 ) ;
#94 = DIRECTION ( 'NONE',  ( 1.000000000000000000, 0.000000000000000000, 0.000000000000000000 ) ) ;
#95 = ORIENTED_EDGE ( 'NONE', *, *, #543, .F. ) ;
#96 = ORIENTED_EDGE ( 'NONE', *, *, #20, .T. ) ;
#97 = ORIENTED_EDGE ( 'NONE', *, *, #308, .T. ) ;
#98 = DIRECTION ( 'NONE',  ( -0.000000000000000000, -0.000000000000000000, -1.000000000000000000 ) ) ;
#99 = VERTEX_POINT ( 'NONE', #796 ) ;
#100 = LINE ( 'NONE', #331, #176 ) ;
#101 = ADVANCED_FACE ( 'NONE', ( #398 ), #93, .F. ) ;
#102 = VECTOR ( 'NONE', #532, 1000.000000000000000 ) ;
#103 = CARTESIAN_POINT ( 'NONE',  ( 9.999999999999971578, 2.500000000000009326, 21.00000000000000000 ) ) ;
#104 = VECTOR ( 'NONE', #511, 1000.000000000000000 ) ;
#105 = EDGE_CURVE ( 'NONE', #240, #695, #53, .T. ) ;
#106 = PLANE ( 'NONE',  #626 ) ;
#107 = VECTOR ( 'NONE', #571, 1000.000000000000000 ) ;
#108 = AXIS2_PLACEMENT_3D ( 'NONE', #186, #887, #314 ) ;
#109 = DIRECTION ( 'NONE',  ( -1.000000000000000000, 0.000000000000000000, 0.000000000000000000 ) ) ;
#110 = ORIENTED_EDGE ( 'NONE', *, *, #264, .F. ) ;
#111 = EDGE_LOOP ( 'NONE', ( #149, #110, #353, #597, #841 ) ) ;
#112 = CARTESIAN_POINT ( 'NONE',  ( 16.99999999999999289, 12.49999999999998046, 16.00000000000000000 ) ) ;
#113 = VERTEX_POINT ( 'NONE', #726 ) ;
#114 = CARTESIAN_POINT ( 'NONE',  ( 4.999999999999976907, 1.387778780781445676E-14, 16.00000000000000000 ) ) ;
#115 = DIRECTION ( 'NONE',  ( 0.000000000000000000, -1.000000000000000000, -0.000000000000000000 ) ) ;
#116 = LINE ( 'NONE', #177, #155 ) ;
#117 = DIRECTION ( 'NONE',  ( 0.000000000000000000, -0.000000000000000000, -1.000000000000000000 ) ) ;
#118 = LINE ( 'NONE', #401, #92 ) ;
#119 = CARTESIAN_POINT ( 'NONE',  ( 9.999999999999971578, 2.500000000000009326, 16.00000000000000000 ) ) ;
#120 = DIRECTION ( 'NONE',  ( 0.000000000000000000, -0.000000000000000000, -1.000000000000000000 ) ) ;
#121 = DIRECTION ( 'NONE',  ( -1.000000000000000000, 0.000000000000000000, 0.000000000000000000 ) ) ;
#122 = PRESENTATION_LAYER_ASSIGNMENT (  '', '', ( #778 ) ) ;
#123 = CARTESIAN_POINT ( 'NONE',  ( 10.00000000000000533, 5.699999999999985079, 21.00000000000000000 ) ) ;
#124 = VERTEX_POINT ( 'NONE', #369 ) ;
#125 = EDGE_CURVE ( 'NONE', #925, #240, #472, .T. ) ;
#126 = DIRECTION ( 'NONE',  ( -0.000000000000000000, 0.000000000000000000, 1.000000000000000000 ) ) ;
#127 = ORIENTED_EDGE ( 'NONE', *, *, #359, .T. ) ;
#128 = VECTOR ( 'NONE', #190, 1000.000000000000114 ) ;
#129 = DIRECTION ( 'NONE',  ( -0.000000000000000000, -0.000000000000000000, -1.000000000000000000 ) ) ;
#130 = AXIS2_PLACEMENT_3D ( 'NONE', #371, #22, #94 ) ;
#131 = LINE ( 'NONE', #82, #104 ) ;
#132 = CARTESIAN_POINT ( 'NONE',  ( 12.00000000000000178, 17.11324865405186912, 16.00000000000000000 ) ) ;
#133 = CARTESIAN_POINT ( 'NONE',  ( 2.499999999999986677, 70.00000000000000000, 21.00000000000000000 ) ) ;
#134 = EDGE_CURVE ( 'NONE', #229, #500, #375, .T. ) ;
#135 = VECTOR ( 'NONE', #336, 1000.000000000000000 ) ;
#136 = ORIENTED_EDGE ( 'NONE', *, *, #434, .T. ) ;
#137 = CARTESIAN_POINT ( 'NONE',  ( 10.00000000000000533, 16.00000000000001776, 16.00000000000000000 ) ) ;
#138 = VERTEX_POINT ( 'NONE', #13 ) ;
#139 = EDGE_CURVE ( 'NONE', #693, #852, #338, .T. ) ;
#140 = DIRECTION ( 'NONE',  ( 0.000000000000000000, 0.000000000000000000, 1.000000000000000000 ) ) ;
#141 = LINE ( 'NONE', #454, #831 ) ;
#142 = CARTESIAN_POINT ( 'NONE',  ( 9.999999999999971578, 17.49999999999998579, 21.00000000000000000 ) ) ;
#143 = SURFACE_SIDE_STYLE ('',( #286 ) ) ;
#144 = EDGE_CURVE ( 'NONE', #852, #545, #836, .T. ) ;
#145 = CIRCLE ( 'NONE', #503, 2.499999999999986677 ) ;
#146 = CARTESIAN_POINT ( 'NONE',  ( 0.000000000000000000, 0.000000000000000000, 21.00000000000000000 ) ) ;
#147 = ORIENTED_EDGE ( 'NONE', *, *, #409, .F. ) ;
#148 =( LENGTH_UNIT ( ) NAMED_UNIT ( * ) SI_UNIT ( .MILLI., .METRE. ) );
#149 = ORIENTED_EDGE ( 'NONE', *, *, #714, .F. ) ;
#150 = CARTESIAN_POINT ( 'NONE',  ( 4.999999999999973355, 29.81495457622360945, 0.000000000000000000 ) ) ;
#151 = ORIENTED_EDGE ( 'NONE', *, *, #340, .F. ) ;
#152 = ORIENTED_EDGE ( 'NONE', *, *, #252, .F. ) ;
#153 = ORIENTED_EDGE ( 'NONE', *, *, #105, .T. ) ;
#154 = CARTESIAN_POINT ( 'NONE',  ( 17.00000000000000000, 17.11324865405186912, 0.000000000000000000 ) ) ;
#155 = VECTOR ( 'NONE', #728, 1000.000000000000000 ) ;
#156 = DIRECTION ( 'NONE',  ( -1.000000000000000000, 0.000000000000000000, 0.000000000000000000 ) ) ;
#157 = LINE ( 'NONE', #674, #765 ) ;
#158 = EDGE_CURVE ( 'NONE', #531, #878, #388, .T. ) ;
#159 = VECTOR ( 'NONE', #833, 1000.000000000000000 ) ;
#160 = DIRECTION ( 'NONE',  ( 0.000000000000000000, 1.000000000000000000, 0.000000000000000000 ) ) ;
#161 = UNCERTAINTY_MEASURE_WITH_UNIT (LENGTH_MEASURE( 1.000000000000000082E-05 ), #148, 'distance_accuracy_value', 'NONE');
#162 = ORIENTED_EDGE ( 'NONE', *, *, #611, .F. ) ;
#163 = AXIS2_PLACEMENT_3D ( 'NONE', #742, #98, #324 ) ;
#164 = CARTESIAN_POINT ( 'NONE',  ( 10.00000000000000533, 16.00000000000001776, 21.00000000000000000 ) ) ;
#165 = FACE_OUTER_BOUND ( 'NONE', #792, .T. ) ;
#166 = ADVANCED_FACE ( 'NONE', ( #608 ), #31, .T. ) ;
#167 = CARTESIAN_POINT ( 'NONE',  ( 16.99999999999999645, 17.11324865405186912, 16.00000000000000000 ) ) ;
#168 = DIRECTION ( 'NONE',  ( 1.000000000000000000, 0.000000000000000000, 0.000000000000000000 ) ) ;
#169 = CARTESIAN_POINT ( 'NONE',  ( 9.999999999999971578, 12.49999999999998224, 16.00000000000000000 ) ) ;
#170 = VECTOR ( 'NONE', #668, 1000.000000000000000 ) ;
#171 = EDGE_CURVE ( 'NONE', #732, #691, #517, .T. ) ;
#172 = ORIENTED_EDGE ( 'NONE', *, *, #611, .T. ) ;
#173 = PLANE ( 'NONE',  #423 ) ;
#174 = ORIENTED_EDGE ( 'NONE', *, *, #605, .T. ) ;
#175 = ORIENTED_EDGE ( 'NONE', *, *, #42, .F. ) ;
#176 = VECTOR ( 'NONE', #832, 1000.000000000000000 ) ;
#177 = CARTESIAN_POINT ( 'NONE',  ( 13.00000000000000533, 14.29999999999999538, 16.00000000000000000 ) ) ;
#178 = ORIENTED_EDGE ( 'NONE', *, *, #916, .T. ) ;
#179 = ADVANCED_FACE ( 'NONE', ( #653 ), #326, .F. ) ;
#180 = VECTOR ( 'NONE', #873, 1000.000000000000000 ) ;
#181 = AXIS2_PLACEMENT_3D ( 'NONE', #813, #44, #748 ) ;
#182 = VECTOR ( 'NONE', #193, 1000.000000000000000 ) ;
#183 = PLANE ( 'NONE',  #181 ) ;
#184 = AXIS2_PLACEMENT_3D ( 'NONE', #384, #604, #610 ) ;
#185 = ORIENTED_EDGE ( 'NONE', *, *, #105, .F. ) ;
#186 = CARTESIAN_POINT ( 'NONE',  ( 0.000000000000000000, 0.000000000000000000, 16.00000000000000000 ) ) ;
#187 = ORIENTED_EDGE ( 'NONE', *, *, #340, .T. ) ;
#188 = CARTESIAN_POINT ( 'NONE',  ( 17.00000000000000000, 20.00000000000001776, -13.85640646055101577 ) ) ;
#189 = ORIENTED_EDGE ( 'NONE', *, *, #464, .T. ) ;
#190 = DIRECTION ( 'NONE',  ( 0.8660254037844413721, -0.4999999999999953371, 0.000000000000000000 ) ) ;
#191 = EDGE_CURVE ( 'NONE', #295, #229, #208, .T. ) ;
#192 = CARTESIAN_POINT ( 'NONE',  ( 17.00000000000000000, 20.00000000000001776, 16.00000000000000000 ) ) ;
#193 = DIRECTION ( 'NONE',  ( 0.000000000000000000, -0.000000000000000000, -1.000000000000000000 ) ) ;
#194 = LINE ( 'NONE', #860, #70 ) ;
#195 = LINE ( 'NONE', #463, #417 ) ;
#196 = CARTESIAN_POINT ( 'NONE',  ( 4.999999999999976907, 17.49999999999998579, 16.00000000000000000 ) ) ;
#197 = VERTEX_POINT ( 'NONE', #114 ) ;
#198 = EDGE_CURVE ( 'NONE', #572, #391, #766, .T. ) ;
#199 = CARTESIAN_POINT ( 'NONE',  ( 10.00000000000000533, 17.70000000000001705, 0.000000000000000000 ) ) ;
#200 = VERTEX_POINT ( 'NONE', #837 ) ;
#201 = ORIENTED_EDGE ( 'NONE', *, *, #158, .T. ) ;
#202 =( NAMED_UNIT ( * ) PLANE_ANGLE_UNIT ( ) SI_UNIT ( $, .RADIAN. ) );
#203 = CARTESIAN_POINT ( 'NONE',  ( 4.999999999999973355, 20.00000000000000355, 21.00000000000000000 ) ) ;
#204 = LINE ( 'NONE', #192, #102 ) ;
#205 = CARTESIAN_POINT ( 'NONE',  ( 13.00000000000000533, 14.29999999999999538, 21.00000000000000000 ) ) ;
#206 = ADVANCED_FACE ( 'NONE', ( #720 ), #891, .T. ) ;
#207 = CIRCLE ( 'NONE', #467, 1.700000000000010614 ) ;
#208 = LINE ( 'NONE', #633, #182 ) ;
#209 = DIRECTION ( 'NONE',  ( -0.000000000000000000, -0.000000000000000000, 1.000000000000000000 ) ) ;
#210 = ORIENTED_EDGE ( 'NONE', *, *, #761, .T. ) ;
#211 = DIRECTION ( 'NONE',  ( -0.000000000000000000, -0.000000000000000000, -1.000000000000000000 ) ) ;
#212 = ORIENTED_EDGE ( 'NONE', *, *, #66, .T. ) ;
#213 = ORIENTED_EDGE ( 'NONE', *, *, #66, .F. ) ;
#214 = AXIS2_PLACEMENT_3D ( 'NONE', #524, #890, #251 ) ;
#215 = DIRECTION ( 'NONE',  ( 1.000000000000000000, 0.000000000000000000, 0.000000000000000000 ) ) ;
#216 = VECTOR ( 'NONE', #487, 1000.000000000000000 ) ;
#217 = ORIENTED_EDGE ( 'NONE', *, *, #405, .F. ) ;
#218 = SHAPE_DEFINITION_REPRESENTATION ( #721, #220 ) ;
#219 = CARTESIAN_POINT ( 'NONE',  ( 5.000000000000004441, 0.000000000000000000, 0.000000000000000000 ) ) ;
#220 = ADVANCED_BREP_SHAPE_REPRESENTATION ( '21631_03_025-S_Rotary Support Rod 1_3K', ( #313, #33 ), #727 ) ;
#221 = EDGE_LOOP ( 'NONE', ( #498, #344, #452, #21 ) ) ;
#222 = VERTEX_POINT ( 'NONE', #762 ) ;
#223 = EDGE_CURVE ( 'NONE', #756, #925, #195, .T. ) ;
#224 = FACE_OUTER_BOUND ( 'NONE', #49, .T. ) ;
#225 = ORIENTED_EDGE ( 'NONE', *, *, #501, .F. ) ;
#226 = DIRECTION ( 'NONE',  ( -0.000000000000000000, -0.000000000000000000, -1.000000000000000000 ) ) ;
#227 = EDGE_CURVE ( 'NONE', #585, #250, #882, .T. ) ;
#228 = FACE_OUTER_BOUND ( 'NONE', #4, .T. ) ;
#229 = VERTEX_POINT ( 'NONE', #394 ) ;
#230 = VERTEX_POINT ( 'NONE', #51 ) ;
#231 = ORIENTED_EDGE ( 'NONE', *, *, #761, .F. ) ;
#232 = CARTESIAN_POINT ( 'NONE',  ( 14.70000000000001528, 15.99999999999999645, 16.00000000000000000 ) ) ;
#233 = CARTESIAN_POINT ( 'NONE',  ( 13.00000000000000533, 5.699999999999993072, 0.000000000000000000 ) ) ;
#234 = LINE ( 'NONE', #613, #560 ) ;
#235 = DIRECTION ( 'NONE',  ( -1.000000000000000000, -1.592659819528146756E-15, 0.000000000000000000 ) ) ;
#236 = AXIS2_PLACEMENT_3D ( 'NONE', #257, #764, #618 ) ;
#237 = CYLINDRICAL_SURFACE ( 'NONE', #553, 2.499999999999986677 ) ;
#238 = FACE_OUTER_BOUND ( 'NONE', #270, .T. ) ;
#239 = DIRECTION ( 'NONE',  ( 0.000000000000000000, 0.000000000000000000, 1.000000000000000000 ) ) ;
#240 = VERTEX_POINT ( 'NONE', #535 ) ;
#241 = ADVANCED_FACE ( 'NONE', ( #238, #709, #875 ), #322, .T. ) ;
#242 = ORIENTED_EDGE ( 'NONE', *, *, #227, .T. ) ;
#243 = DIRECTION ( 'NONE',  ( -1.000000000000000000, 0.000000000000000000, 0.000000000000000000 ) ) ;
#244 = EDGE_CURVE ( 'NONE', #438, #531, #834, .T. ) ;
#245 = CIRCLE ( 'NONE', #349, 1.700000000000010614 ) ;
#246 = VECTOR ( 'NONE', #297, 1000.000000000000000 ) ;
#247 = EDGE_CURVE ( 'NONE', #230, #258, #689, .T. ) ;
#248 = DIRECTION ( 'NONE',  ( -1.000000000000000000, 0.000000000000000000, 0.000000000000000000 ) ) ;
#249 = EDGE_LOOP ( 'NONE', ( #45, #231, #915, #794 ) ) ;
#250 = VERTEX_POINT ( 'NONE', #112 ) ;
#251 = DIRECTION ( 'NONE',  ( -0.000000000000000000, 0.000000000000000000, -1.000000000000000000 ) ) ;
#252 = EDGE_CURVE ( 'NONE', #354, #712, #921, .T. ) ;
#253 = CARTESIAN_POINT ( 'NONE',  ( 17.00000000000000000, 20.00000000000001776, 0.000000000000000000 ) ) ;
#254 = AXIS2_PLACEMENT_3D ( 'NONE', #321, #906, #752 ) ;
#255 = FACE_OUTER_BOUND ( 'NONE', #287, .T. ) ;
#256 = DIRECTION ( 'NONE',  ( 0.000000000000000000, 0.000000000000000000, 1.000000000000000000 ) ) ;
#257 = CARTESIAN_POINT ( 'NONE',  ( 12.00000000000000178, 17.11324865405186912, 0.000000000000000000 ) ) ;
#258 = VERTEX_POINT ( 'NONE', #199 ) ;
#259 = CARTESIAN_POINT ( 'NONE',  ( 14.49999999999997868, 21.44337567297407787, 16.00000000000000000 ) ) ;
#260 = ORIENTED_EDGE ( 'NONE', *, *, #292, .T. ) ;
#261 = ORIENTED_EDGE ( 'NONE', *, *, #592, .T. ) ;
#262 = DIRECTION ( 'NONE',  ( 1.000000000000000000, 2.081668171172168908E-15, 0.000000000000000000 ) ) ;
#263 = CARTESIAN_POINT ( 'NONE',  ( 9.999999999999971578, 12.49999999999998224, 16.00000000000000000 ) ) ;
#264 = EDGE_CURVE ( 'NONE', #240, #197, #118, .T. ) ;
#265 =( NAMED_UNIT ( * ) SI_UNIT ( $, .STERADIAN. ) SOLID_ANGLE_UNIT ( ) );
#266 = DIRECTION ( 'NONE',  ( 0.000000000000000000, 0.000000000000000000, 1.000000000000000000 ) ) ;
#267 = DIRECTION ( 'NONE',  ( 0.000000000000000000, -0.000000000000000000, -1.000000000000000000 ) ) ;
#268 = DIRECTION ( 'NONE',  ( -1.000000000000000000, 0.000000000000000000, 0.000000000000000000 ) ) ;
#269 = CARTESIAN_POINT ( 'NONE',  ( 4.999999999999973355, 70.00000000000000000, 21.00000000000000000 ) ) ;
#270 = EDGE_LOOP ( 'NONE', ( #127, #736, #530, #47, #757, #57, #412, #152 ) ) ;
#271 = FACE_OUTER_BOUND ( 'NONE', #886, .T. ) ;
#272 = ORIENTED_EDGE ( 'NONE', *, *, #227, .F. ) ;
#273 = CARTESIAN_POINT ( 'NONE',  ( 10.00000000000000533, 2.299999999999996270, 16.00000000000000000 ) ) ;
#274 = AXIS2_PLACEMENT_3D ( 'NONE', #621, #754, #687 ) ;
#275 = LINE ( 'NONE', #219, #135 ) ;
#276 = APPLICATION_PROTOCOL_DEFINITION ( 'draft international standard', 'automotive_design', 1998, #848 ) ;
#277 = EDGE_LOOP ( 'NONE', ( #36, #60, #439, #162 ) ) ;
#278 = EDGE_CURVE ( 'NONE', #878, #99, #323, .T. ) ;
#279 = CARTESIAN_POINT ( 'NONE',  ( 9.999999999999971578, 7.500000000000007994, 21.00000000000000000 ) ) ;
#280 = ORIENTED_EDGE ( 'NONE', *, *, #669, .F. ) ;
#281 =( NAMED_UNIT ( * ) SI_UNIT ( $, .STERADIAN. ) SOLID_ANGLE_UNIT ( ) );
#282 = CARTESIAN_POINT ( 'NONE',  ( 9.999999999999971578, 12.49999999999998224, 21.00000000000000000 ) ) ;
#283 = VECTOR ( 'NONE', #798, 1000.000000000000000 ) ;
#284 = ORIENTED_EDGE ( 'NONE', *, *, #320, .T. ) ;
#285 = EDGE_LOOP ( 'NONE', ( #315, #922, #913, #356, #414, #509 ) ) ;
#286 = SURFACE_STYLE_FILL_AREA ( #909 ) ;
#287 = EDGE_LOOP ( 'NONE', ( #879, #376, #24, #341 ) ) ;
#288 = AXIS2_PLACEMENT_3D ( 'NONE', #334, #772, #476 ) ;
#289 = PLANE ( 'NONE',  #615 ) ;
#290 = LINE ( 'NONE', #902, #589 ) ;
#291 = VERTEX_POINT ( 'NONE', #263 ) ;
#292 = EDGE_CURVE ( 'NONE', #572, #113, #730, .T. ) ;
#293 = AXIS2_PLACEMENT_3D ( 'NONE', #132, #829, #268 ) ;
#294 = DIRECTION ( 'NONE',  ( -0.000000000000000000, -0.000000000000000000, -1.000000000000000000 ) ) ;
#295 = VERTEX_POINT ( 'NONE', #821 ) ;
#296 = ORIENTED_EDGE ( 'NONE', *, *, #278, .F. ) ;
#297 = DIRECTION ( 'NONE',  ( 0.000000000000000000, -0.000000000000000000, -1.000000000000000000 ) ) ;
#298 = FACE_OUTER_BOUND ( 'NONE', #111, .T. ) ;
#299 = ADVANCED_FACE ( 'NONE', ( #866 ), #912, .F. ) ;
#300 = CARTESIAN_POINT ( 'NONE',  ( 4.999999999999973355, 17.49999999999998579, 21.00000000000000000 ) ) ;
#301 = FACE_OUTER_BOUND ( 'NONE', #249, .T. ) ;
#302 = ADVANCED_FACE ( 'NONE', ( #894 ), #705, .F. ) ;
#303 = ORIENTED_EDGE ( 'NONE', *, *, #857, .F. ) ;
#304 = ORIENTED_EDGE ( 'NONE', *, *, #548, .F. ) ;
#305 = ORIENTED_EDGE ( 'NONE', *, *, #325, .T. ) ;
#306 = ADVANCED_FACE ( 'NONE', ( #83 ), #662, .F. ) ;
#307 = ORIENTED_EDGE ( 'NONE', *, *, #264, .T. ) ;
#308 = EDGE_CURVE ( 'NONE', #497, #555, #245, .T. ) ;
#309 = LINE ( 'NONE', #29, #10 ) ;
#310 = STYLED_ITEM ( 'NONE', ( #351 ), #313 ) ;
#311 = AXIS2_PLACEMENT_3D ( 'NONE', #103, #620, #109 ) ;
#312 = CIRCLE ( 'NONE', #711, 2.499999999999986677 ) ;
#313 = MANIFOLD_SOLID_BREP ( '<21631_03_025_Rotary Support Rod 1>-<Verrundung2>', #402 ) ;
#314 = DIRECTION ( 'NONE',  ( -1.000000000000000000, 0.000000000000000000, 0.000000000000000000 ) ) ;
#315 = ORIENTED_EDGE ( 'NONE', *, *, #575, .T. ) ;
#316 = DIRECTION ( 'NONE',  ( 0.000000000000000000, 0.000000000000000000, 1.000000000000000000 ) ) ;
#317 = EDGE_LOOP ( 'NONE', ( #703, #702, #201, #392 ) ) ;
#318 = DIRECTION ( 'NONE',  ( 0.000000000000000000, -0.000000000000000000, -1.000000000000000000 ) ) ;
#319 = DIRECTION ( 'NONE',  ( -1.000000000000000000, 0.000000000000000000, 0.000000000000000000 ) ) ;
#320 = EDGE_CURVE ( 'NONE', #391, #460, #456, .T. ) ;
#321 = CARTESIAN_POINT ( 'NONE',  ( 0.000000000000000000, 0.000000000000000000, 16.00000000000000000 ) ) ;
#322 = PLANE ( 'NONE',  #455 ) ;
#323 = LINE ( 'NONE', #474, #396 ) ;
#324 = DIRECTION ( 'NONE',  ( -1.000000000000000000, 0.000000000000000000, 0.000000000000000000 ) ) ;
#325 = EDGE_CURVE ( 'NONE', #197, #87, #15, .T. ) ;
#326 = CYLINDRICAL_SURFACE ( 'NONE', #707, 1.699999999999994849 ) ;
#327 = DIRECTION ( 'NONE',  ( 0.000000000000000000, -0.000000000000000000, -1.000000000000000000 ) ) ;
#328 = ORIENTED_EDGE ( 'NONE', *, *, #308, .F. ) ;
#329 = ORIENTED_EDGE ( 'NONE', *, *, #651, .T. ) ;
#330 = ORIENTED_EDGE ( 'NONE', *, *, #564, .T. ) ;
#331 = CARTESIAN_POINT ( 'NONE',  ( 16.99999999999999645, 12.49999999999998046, 34.00000000000001421 ) ) ;
#332 = DIRECTION ( 'NONE',  ( 1.000000000000000000, 0.000000000000000000, 0.000000000000000000 ) ) ;
#333 = AXIS2_PLACEMENT_3D ( 'NONE', #188, #27, #523 ) ;
#334 = CARTESIAN_POINT ( 'NONE',  ( 0.000000000000000000, 0.000000000000000000, 21.00000000000000000 ) ) ;
#335 = CARTESIAN_POINT ( 'NONE',  ( 13.00000000000000533, 15.99999999999999645, 21.00000000000000000 ) ) ;
#336 = DIRECTION ( 'NONE',  ( -1.000000000000000000, 0.000000000000000000, 0.000000000000000000 ) ) ;
#337 = VECTOR ( 'NONE', #731, 1000.000000000000000 ) ;
#338 = LINE ( 'NONE', #433, #895 ) ;
#339 = VECTOR ( 'NONE', #807, 1000.000000000000000 ) ;
#340 = EDGE_CURVE ( 'NONE', #74, #572, #145, .T. ) ;
#341 = ORIENTED_EDGE ( 'NONE', *, *, #393, .F. ) ;
#342 = CARTESIAN_POINT ( 'NONE',  ( 17.00000000000000000, 17.11324865405186912, 0.000000000000000000 ) ) ;
#343 = ORIENTED_EDGE ( 'NONE', *, *, #843, .T. ) ;
#344 = ORIENTED_EDGE ( 'NONE', *, *, #717, .F. ) ;
#345 =( NAMED_UNIT ( * ) PLANE_ANGLE_UNIT ( ) SI_UNIT ( $, .RADIAN. ) );
#346 = VERTEX_POINT ( 'NONE', #273 ) ;
#347 = AXIS2_PLACEMENT_3D ( 'NONE', #835, #537, #262 ) ;
#348 = CARTESIAN_POINT ( 'NONE',  ( 4.999999999999973355, 17.49999999999998579, 21.00000000000000000 ) ) ;
#349 = AXIS2_PLACEMENT_3D ( 'NONE', #137, #129, #700 ) ;
#350 = APPLICATION_CONTEXT ( 'automotive_design' ) ;
#351 = PRESENTATION_STYLE_ASSIGNMENT (( #413 ) ) ;
#352 = DIRECTION ( 'NONE',  ( -2.891205793294673396E-16, -1.000000000000000000, 0.000000000000000000 ) ) ;
#353 = ORIENTED_EDGE ( 'NONE', *, *, #125, .F. ) ;
#354 = VERTEX_POINT ( 'NONE', #342 ) ;
#355 = CARTESIAN_POINT ( 'NONE',  ( 10.00000000000000533, 14.30000000000000782, 21.00000000000000000 ) ) ;
#356 = ORIENTED_EDGE ( 'NONE', *, *, #292, .F. ) ;
#357 = CARTESIAN_POINT ( 'NONE',  ( 16.99999999999999645, 7.500000000000007994, 21.00000000000000000 ) ) ;
#358 = CARTESIAN_POINT ( 'NONE',  ( 13.00000000000000533, 3.999999999999999112, 0.000000000000000000 ) ) ;
#359 = EDGE_CURVE ( 'NONE', #354, #695, #515, .T. ) ;
#360 = LINE ( 'NONE', #588, #2 ) ;
#361 = VECTOR ( 'NONE', #235, 1000.000000000000000 ) ;
#362 = AXIS2_PLACEMENT_3D ( 'NONE', #415, #643, #777 ) ;
#363 = CARTESIAN_POINT ( 'NONE',  ( 4.999999999999976907, 29.81495457622360945, 16.00000000000000000 ) ) ;
#364 = PLANE ( 'NONE',  #80 ) ;
#365 = ORIENTED_EDGE ( 'NONE', *, *, #125, .T. ) ;
#366 = ORIENTED_EDGE ( 'NONE', *, *, #223, .T. ) ;
#367 = CARTESIAN_POINT ( 'NONE',  ( 10.00000000000000533, 3.999999999999985345, 16.00000000000000000 ) ) ;
#368 = VECTOR ( 'NONE', #209, 1000.000000000000000 ) ;
#369 = CARTESIAN_POINT ( 'NONE',  ( 0.000000000000000000, 0.000000000000000000, 21.00000000000000000 ) ) ;
#370 = EDGE_LOOP ( 'NONE', ( #6, #901, #187, #260 ) ) ;
#371 = CARTESIAN_POINT ( 'NONE',  ( 13.00000000000000533, 15.99999999999999645, 21.00000000000000000 ) ) ;
#372 = DIRECTION ( 'NONE',  ( 0.000000000000000000, -0.000000000000000000, -1.000000000000000000 ) ) ;
#373 = VECTOR ( 'NONE', #156, 1000.000000000000000 ) ;
#374 = CARTESIAN_POINT ( 'NONE',  ( 17.00000000000000355, 1.911191783433776344E-14, 21.00000000000000000 ) ) ;
#375 = CIRCLE ( 'NONE', #184, 1.700000000000010614 ) ;
#376 = ORIENTED_EDGE ( 'NONE', *, *, #223, .F. ) ;
#377 = AXIS2_PLACEMENT_3D ( 'NONE', #164, #606, #168 ) ;
#378 = DIRECTION ( 'NONE',  ( -1.000000000000000000, 0.000000000000000000, 0.000000000000000000 ) ) ;
#379 = ADVANCED_FACE ( 'NONE', ( #255 ), #561, .F. ) ;
#380 = ORIENTED_EDGE ( 'NONE', *, *, #325, .F. ) ;
#381 = DIRECTION ( 'NONE',  ( 0.000000000000000000, -0.000000000000000000, -1.000000000000000000 ) ) ;
#382 = CARTESIAN_POINT ( 'NONE',  ( 10.00000000000000533, 3.999999999999985345, 0.000000000000000000 ) ) ;
#383 = ORIENTED_EDGE ( 'NONE', *, *, #640, .T. ) ;
#384 = CARTESIAN_POINT ( 'NONE',  ( 13.00000000000000533, 15.99999999999999645, 0.000000000000000000 ) ) ;
#385 = DIRECTION ( 'NONE',  ( 0.000000000000000000, 1.000000000000000000, 0.000000000000000000 ) ) ;
#386 = AXIS2_PLACEMENT_3D ( 'NONE', #395, #126, #470 ) ;
#387 = VECTOR ( 'NONE', #666, 1000.000000000000000 ) ;
#388 = CIRCLE ( 'NONE', #838, 5.000000000000000000 ) ;
#389 = CARTESIAN_POINT ( 'NONE',  ( 10.00000000000000533, 5.699999999999985079, 0.000000000000000000 ) ) ;
#390 = ADVANCED_FACE ( 'NONE', ( #301 ), #631, .F. ) ;
#391 = VERTEX_POINT ( 'NONE', #348 ) ;
#392 = ORIENTED_EDGE ( 'NONE', *, *, #278, .T. ) ;
#393 = EDGE_CURVE ( 'NONE', #601, #732, #483, .T. ) ;
#394 = CARTESIAN_POINT ( 'NONE',  ( 13.00000000000000533, 17.70000000000002061, 0.000000000000000000 ) ) ;
#395 = CARTESIAN_POINT ( 'NONE',  ( 9.999999999999971578, 2.500000000000009326, 21.00000000000000000 ) ) ;
#396 = VECTOR ( 'NONE', #697, 1000.000000000000000 ) ;
#397 = MECHANICAL_DESIGN_GEOMETRIC_PRESENTATION_REPRESENTATION (  '', ( #310 ), #649 ) ;
#398 = FACE_OUTER_BOUND ( 'NONE', #317, .T. ) ;
#399 = DIRECTION ( 'NONE',  ( -1.000000000000000000, 0.000000000000000000, 0.000000000000000000 ) ) ;
#400 = ORIENTED_EDGE ( 'NONE', *, *, #741, .F. ) ;
#401 = CARTESIAN_POINT ( 'NONE',  ( 16.99999999999998579, 1.387778780781445676E-14, 16.00000000000000000 ) ) ;
#402 = CLOSED_SHELL ( 'NONE', ( #306, #598, #299, #50, #815, #681, #733, #864, #594, #586, #738, #179, #206, #390, #670, #302, #241, #514, #16, #443, #166, #806, #101, #448, #379, #868, #667 ) ) ;
#403 = DIRECTION ( 'NONE',  ( 0.000000000000000000, 0.000000000000000000, -1.000000000000000000 ) ) ;
#404 = CYLINDRICAL_SURFACE ( 'NONE', #377, 1.700000000000010614 ) ;
#405 = EDGE_CURVE ( 'NONE', #695, #734, #275, .T. ) ;
#406 = CARTESIAN_POINT ( 'NONE',  ( 4.999999999999973355, 20.00000000000000355, 0.000000000000000000 ) ) ;
#407 = VECTOR ( 'NONE', #3, 1000.000000000000000 ) ;
#408 = PRODUCT_DEFINITION_CONTEXT ( 'detailed design', #350, 'design' ) ;
#409 = EDGE_CURVE ( 'NONE', #500, #76, #751, .T. ) ;
#410 = VECTOR ( 'NONE', #372, 1000.000000000000000 ) ;
#411 = DIRECTION ( 'NONE',  ( -1.000000000000000000, 2.891205793294673396E-16, 0.000000000000000000 ) ) ;
#412 = ORIENTED_EDGE ( 'NONE', *, *, #741, .T. ) ;
#413 = SURFACE_STYLE_USAGE ( .BOTH. , #56 ) ;
#414 = ORIENTED_EDGE ( 'NONE', *, *, #198, .T. ) ;
#415 = CARTESIAN_POINT ( 'NONE',  ( 16.99999999999999645, 7.500000000000007994, 34.00000000000001421 ) ) ;
#416 = AXIS2_PLACEMENT_3D ( 'NONE', #595, #239, #729 ) ;
#417 = VECTOR ( 'NONE', #117, 1000.000000000000000 ) ;
#418 = CARTESIAN_POINT ( 'NONE',  ( 4.999999999999973355, 20.00000000000000355, 21.00000000000000000 ) ) ;
#419 = ORIENTED_EDGE ( 'NONE', *, *, #658, .T. ) ;
#420 = APPLICATION_PROTOCOL_DEFINITION ( 'draft international standard', 'automotive_design', 1998, #350 ) ;
#421 = CIRCLE ( 'NONE', #347, 4.999999999999999112 ) ;
#422 = CARTESIAN_POINT ( 'NONE',  ( 13.00000000000000533, 15.99999999999999645, 0.000000000000000000 ) ) ;
#423 = AXIS2_PLACEMENT_3D ( 'NONE', #437, #25, #85 ) ;
#424 = DIRECTION ( 'NONE',  ( 0.000000000000000000, -0.000000000000000000, -1.000000000000000000 ) ) ;
#425 = CARTESIAN_POINT ( 'NONE',  ( 16.99999999999999645, 12.49999999999998046, 21.00000000000000000 ) ) ;
#426 = VECTOR ( 'NONE', #266, 1000.000000000000000 ) ;
#427 = CARTESIAN_POINT ( 'NONE',  ( 10.00000000000000533, 14.30000000000000782, 16.00000000000000000 ) ) ;
#428 = LINE ( 'NONE', #508, #246 ) ;
#429 = DIRECTION ( 'NONE',  ( -1.000000000000000000, 0.000000000000000000, 0.000000000000000000 ) ) ;
#430 = ORIENTED_EDGE ( 'NONE', *, *, #247, .T. ) ;
#431 = EDGE_LOOP ( 'NONE', ( #676, #151, #584, #599, #520, #745, #507, #189, #725, #663 ) ) ;
#432 = CARTESIAN_POINT ( 'NONE',  ( 5.000000000000004441, 0.000000000000000000, 21.00000000000000000 ) ) ;
#433 = CARTESIAN_POINT ( 'NONE',  ( 13.00000000000000533, 5.699999999999985079, 16.00000000000000000 ) ) ;
#434 = EDGE_CURVE ( 'NONE', #622, #910, #641, .T. ) ;
#435 = CARTESIAN_POINT ( 'NONE',  ( 14.69999999999999929, 3.999999999999999112, 16.00000000000000000 ) ) ;
#436 = AXIS2_PLACEMENT_3D ( 'NONE', #422, #226, #1 ) ;
#437 = CARTESIAN_POINT ( 'NONE',  ( 13.00000000000000533, 14.29999999999999538, 21.00000000000000000 ) ) ;
#438 = VERTEX_POINT ( 'NONE', #150 ) ;
#439 = ORIENTED_EDGE ( 'NONE', *, *, #52, .F. ) ;
#440 = CARTESIAN_POINT ( 'NONE',  ( 10.00000000000000533, 17.70000000000001705, 16.00000000000000000 ) ) ;
#441 = LINE ( 'NONE', #259, #368 ) ;
#442 = CARTESIAN_POINT ( 'NONE',  ( 17.00000000000000000, 20.00000000000001776, 16.00000000000000000 ) ) ;
#443 = ADVANCED_FACE ( 'NONE', ( #672 ), #237, .T. ) ;
#444 = CARTESIAN_POINT ( 'NONE',  ( 13.00000000000000533, 15.99999999999999645, 16.00000000000000000 ) ) ;
#445 = PRODUCT_RELATED_PRODUCT_CATEGORY ( 'part', '', ( #562 ) ) ;
#446 = EDGE_CURVE ( 'NONE', #124, #734, #43, .T. ) ;
#447 = SURFACE_STYLE_FILL_AREA ( #480 ) ;
#448 = ADVANCED_FACE ( 'NONE', ( #847 ), #289, .F. ) ;
#449 = ORIENTED_EDGE ( 'NONE', *, *, #717, .T. ) ;
#450 = ORIENTED_EDGE ( 'NONE', *, *, #548, .T. ) ;
#451 = EDGE_CURVE ( 'NONE', #734, #521, #800, .T. ) ;
#452 = ORIENTED_EDGE ( 'NONE', *, *, #191, .T. ) ;
#453 = DIRECTION ( 'NONE',  ( -0.000000000000000000, -0.000000000000000000, -1.000000000000000000 ) ) ;
#454 = CARTESIAN_POINT ( 'NONE',  ( 4.999999999999976907, 20.00000000000000355, 16.00000000000000000 ) ) ;
#455 = AXIS2_PLACEMENT_3D ( 'NONE', #533, #403, #830 ) ;
#456 = CIRCLE ( 'NONE', #885, 4.999999999999999112 ) ;
#457 = CARTESIAN_POINT ( 'NONE',  ( 9.999999999999971578, 7.500000000000007994, 21.00000000000000000 ) ) ;
#458 = VECTOR ( 'NONE', #424, 1000.000000000000000 ) ;
#459 = ORIENTED_EDGE ( 'NONE', *, *, #393, .T. ) ;
#460 = VERTEX_POINT ( 'NONE', #282 ) ;
#461 = PLANE ( 'NONE',  #214 ) ;
#462 = ORIENTED_EDGE ( 'NONE', *, *, #583, .F. ) ;
#463 = CARTESIAN_POINT ( 'NONE',  ( 16.99999999999999645, 7.500000000000007994, 34.00000000000001421 ) ) ;
#464 = EDGE_CURVE ( 'NONE', #756, #138, #492, .T. ) ;
#465 = LINE ( 'NONE', #253, #128 ) ;
#466 =( LENGTH_UNIT ( ) NAMED_UNIT ( * ) SI_UNIT ( .MILLI., .METRE. ) );
#467 = AXIS2_PLACEMENT_3D ( 'NONE', #444, #294, #799 ) ;
#468 = DIRECTION ( 'NONE',  ( 1.000000000000000000, -0.000000000000000000, -0.000000000000000000 ) ) ;
#469 = EDGE_CURVE ( 'NONE', #898, #200, #565, .T. ) ;
#470 = DIRECTION ( 'NONE',  ( 1.000000000000000000, 0.000000000000000000, 0.000000000000000000 ) ) ;
#471 = VECTOR ( 'NONE', #72, 1000.000000000000000 ) ;
#472 = LINE ( 'NONE', #442, #32 ) ;
#473 = PLANE ( 'NONE',  #254 ) ;
#474 = CARTESIAN_POINT ( 'NONE',  ( 7.499999999999991118, 25.48482755730140070, -13.85640646055101577 ) ) ;
#475 = EDGE_LOOP ( 'NONE', ( #759, #924, #280, #603, #724 ) ) ;
#476 = DIRECTION ( 'NONE',  ( 0.000000000000000000, 0.000000000000000000, 1.000000000000000000 ) ) ;
#477 = FACE_OUTER_BOUND ( 'NONE', #221, .T. ) ;
#478 = ORIENTED_EDGE ( 'NONE', *, *, #629, .T. ) ;
#479 = VECTOR ( 'NONE', #115, 1000.000000000000000 ) ;
#480 = FILL_AREA_STYLE ('',( #846 ) ) ;
#481 = EDGE_CURVE ( 'NONE', #691, #851, #194, .T. ) ;
#482 = DIRECTION ( 'NONE',  ( 1.000000000000000000, 0.000000000000000000, 0.000000000000000000 ) ) ;
#483 = LINE ( 'NONE', #279, #856 ) ;
#484 = DIRECTION ( 'NONE',  ( -0.000000000000000000, 0.000000000000000000, 1.000000000000000000 ) ) ;
#485 = ORIENTED_EDGE ( 'NONE', *, *, #52, .T. ) ;
#486 = ORIENTED_EDGE ( 'NONE', *, *, #629, .F. ) ;
#487 = DIRECTION ( 'NONE',  ( 1.734723475976807341E-16, -1.000000000000000000, -0.000000000000000000 ) ) ;
#488 = ORIENTED_EDGE ( 'NONE', *, *, #158, .F. ) ;
#489 = VERTEX_POINT ( 'NONE', #495 ) ;
#490 = DIRECTION ( 'NONE',  ( 0.000000000000000000, -0.000000000000000000, -1.000000000000000000 ) ) ;
#491 = DIRECTION ( 'NONE',  ( 0.000000000000000000, 1.000000000000000000, 0.000000000000000000 ) ) ;
#492 = LINE ( 'NONE', #425, #619 ) ;
#493 = EDGE_CURVE ( 'NONE', #732, #756, #874, .T. ) ;
#494 = FACE_OUTER_BOUND ( 'NONE', #541, .T. ) ;
#495 = CARTESIAN_POINT ( 'NONE',  ( 14.69999999999999929, 3.999999999999999112, 0.000000000000000000 ) ) ;
#496 = ORIENTED_EDGE ( 'NONE', *, *, #501, .T. ) ;
#497 = VERTEX_POINT ( 'NONE', #427 ) ;
#498 = ORIENTED_EDGE ( 'NONE', *, *, #61, .F. ) ;
#499 = DIRECTION ( 'NONE',  ( -1.000000000000000000, 2.891205793294673396E-16, 0.000000000000000000 ) ) ;
#500 = VERTEX_POINT ( 'NONE', #863 ) ;
#501 = EDGE_CURVE ( 'NONE', #555, #295, #536, .T. ) ;
#502 = DIRECTION ( 'NONE',  ( 0.000000000000000000, 0.000000000000000000, -1.000000000000000000 ) ) ;
#503 = AXIS2_PLACEMENT_3D ( 'NONE', #133, #211, #566 ) ;
#504 = DIRECTION ( 'NONE',  ( 1.000000000000000000, 0.000000000000000000, 0.000000000000000000 ) ) ;
#505 = VECTOR ( 'NONE', #539, 1000.000000000000000 ) ;
#506 = DIRECTION ( 'NONE',  ( -1.000000000000000000, 0.000000000000000000, 0.000000000000000000 ) ) ;
#507 = ORIENTED_EDGE ( 'NONE', *, *, #493, .T. ) ;
#508 = CARTESIAN_POINT ( 'NONE',  ( 14.70000000000001528, 15.99999999999999645, 21.00000000000000000 ) ) ;
#509 = ORIENTED_EDGE ( 'NONE', *, *, #640, .F. ) ;
#510 = UNCERTAINTY_MEASURE_WITH_UNIT (LENGTH_MEASURE( 1.000000000000000082E-05 ), #908, 'distance_accuracy_value', 'NONE');
#511 = DIRECTION ( 'NONE',  ( 1.000000000000000000, -2.891205793294673396E-16, -0.000000000000000000 ) ) ;
#512 = CARTESIAN_POINT ( 'NONE',  ( 4.999999999999973355, 20.00000000000000355, 21.00000000000000000 ) ) ;
#513 = AXIS2_PLACEMENT_3D ( 'NONE', #358, #580, #706 ) ;
#514 = ADVANCED_FACE ( 'NONE', ( #789 ), #719, .F. ) ;
#515 = LINE ( 'NONE', #917, #216 ) ;
#516 = AXIS2_PLACEMENT_3D ( 'NONE', #527, #38, #248 ) ;
#517 = CIRCLE ( 'NONE', #386, 4.999999999999999112 ) ;
#518 = CARTESIAN_POINT ( 'NONE',  ( 4.999999999999976907, 20.00000000000000355, 16.00000000000000000 ) ) ;
#519 = EDGE_CURVE ( 'NONE', #124, #74, #360, .T. ) ;
#520 = ORIENTED_EDGE ( 'NONE', *, *, #774, .F. ) ;
#521 = VERTEX_POINT ( 'NONE', #67 ) ;
#522 = EDGE_LOOP ( 'NONE', ( #172, #329, #771, #210, #136 ) ) ;
#523 = DIRECTION ( 'NONE',  ( 0.8660254037844413721, -0.4999999999999953371, 0.000000000000000000 ) ) ;
#524 = CARTESIAN_POINT ( 'NONE',  ( 13.00000000000000533, 17.70000000000001705, 21.00000000000000000 ) ) ;
#525 = LINE ( 'NONE', #518, #337 ) ;
#526 = LINE ( 'NONE', #19, #170 ) ;
#527 = CARTESIAN_POINT ( 'NONE',  ( 13.00000000000000533, 3.999999999999999112, 0.000000000000000000 ) ) ;
#528 = ORIENTED_EDGE ( 'NONE', *, *, #144, .F. ) ;
#529 = EDGE_CURVE ( 'NONE', #521, #113, #312, .T. ) ;
#530 = ORIENTED_EDGE ( 'NONE', *, *, #451, .T. ) ;
#531 = VERTEX_POINT ( 'NONE', #363 ) ;
#532 = DIRECTION ( 'NONE',  ( 0.8660254037844413721, -0.4999999999999953371, -0.000000000000000000 ) ) ;
#533 = CARTESIAN_POINT ( 'NONE',  ( 2.499999999999986677, 70.00000000000000000, 0.000000000000000000 ) ) ;
#534 = CARTESIAN_POINT ( 'NONE',  ( 10.00000000000000533, 5.699999999999985079, 16.00000000000000000 ) ) ;
#535 = CARTESIAN_POINT ( 'NONE',  ( 16.99999999999998579, 1.387778780781445676E-14, 16.00000000000000000 ) ) ;
#536 = LINE ( 'NONE', #654, #407 ) ;
#537 = DIRECTION ( 'NONE',  ( 0.000000000000000000, -0.000000000000000000, -1.000000000000000000 ) ) ;
#538 = LINE ( 'NONE', #169, #907 ) ;
#539 = DIRECTION ( 'NONE',  ( -6.938893903907227392E-16, -1.000000000000000000, 0.000000000000000000 ) ) ;
#540 = CARTESIAN_POINT ( 'NONE',  ( 7.499999999999994671, 25.48482755730139715, 16.00000000000000000 ) ) ;
#541 = EDGE_LOOP ( 'NONE', ( #769, #684, #803, #840 ) ) ;
#542 = ORIENTED_EDGE ( 'NONE', *, *, #605, .F. ) ;
#543 = EDGE_CURVE ( 'NONE', #73, #222, #207, .T. ) ;
#544 = CIRCLE ( 'NONE', #293, 5.000000000000000000 ) ;
#545 = VERTEX_POINT ( 'NONE', #233 ) ;
#546 = CARTESIAN_POINT ( 'NONE',  ( 13.00000000000000533, 2.299999999999996270, 0.000000000000000000 ) ) ;
#547 = CARTESIAN_POINT ( 'NONE',  ( 16.99999999999999645, 7.500000000000007994, 16.00000000000000000 ) ) ;
#548 = EDGE_CURVE ( 'NONE', #585, #354, #740, .T. ) ;
#549 = CARTESIAN_POINT ( 'NONE',  ( 13.00000000000000533, 3.999999999999999112, 21.00000000000000000 ) ) ;
#550 = LINE ( 'NONE', #671, #30 ) ;
#551 = DIRECTION ( 'NONE',  ( -1.000000000000000000, 0.000000000000000000, 0.000000000000000000 ) ) ;
#552 = FACE_OUTER_BOUND ( 'NONE', #65, .T. ) ;
#553 = AXIS2_PLACEMENT_3D ( 'NONE', #659, #710, #504 ) ;
#554 = ORIENTED_EDGE ( 'NONE', *, *, #714, .T. ) ;
#555 = VERTEX_POINT ( 'NONE', #440 ) ;
#556 =( NAMED_UNIT ( * ) PLANE_ANGLE_UNIT ( ) SI_UNIT ( $, .RADIAN. ) );
#557 = FACE_OUTER_BOUND ( 'NONE', #568, .T. ) ;
#558 = ORIENTED_EDGE ( 'NONE', *, *, #543, .T. ) ;
#559 = AXIS2_PLACEMENT_3D ( 'NONE', #775, #639, #332 ) ;
#560 = VECTOR ( 'NONE', #318, 1000.000000000000000 ) ;
#561 = PLANE ( 'NONE',  #362 ) ;
#562 = PRODUCT ( '21631_03_025-S_Rotary Support Rod 1_3K', '21631_03_025-S_Rotary Support Rod 1_3K', '', ( #563 ) ) ;
#563 = PRODUCT_CONTEXT ( 'NONE', #848, 'mechanical' ) ;
#564 = EDGE_CURVE ( 'NONE', #622, #489, #581, .T. ) ;
#565 = LINE ( 'NONE', #577, #373 ) ;
#566 = DIRECTION ( 'NONE',  ( 1.000000000000000000, 0.000000000000000000, 0.000000000000000000 ) ) ;
#567 = VECTOR ( 'NONE', #381, 1000.000000000000000 ) ;
#568 = EDGE_LOOP ( 'NONE', ( #242, #828, #923, #366, #365, #153, #587, #304 ) ) ;
#569 =( NAMED_UNIT ( * ) SI_UNIT ( $, .STERADIAN. ) SOLID_ANGLE_UNIT ( ) );
#570 = ORIENTED_EDGE ( 'NONE', *, *, #805, .F. ) ;
#571 = DIRECTION ( 'NONE',  ( 0.000000000000000000, -0.000000000000000000, -1.000000000000000000 ) ) ;
#572 = VERTEX_POINT ( 'NONE', #18 ) ;
#573 = AXIS2_PLACEMENT_3D ( 'NONE', #682, #453, #616 ) ;
#574 = ORIENTED_EDGE ( 'NONE', *, *, #481, .T. ) ;
#575 = EDGE_CURVE ( 'NONE', #816, #531, #525, .T. ) ;
#576 = ORIENTED_EDGE ( 'NONE', *, *, #48, .T. ) ;
#577 = CARTESIAN_POINT ( 'NONE',  ( 10.00000000000000533, 2.299999999999996270, 0.000000000000000000 ) ) ;
#578 = VECTOR ( 'NONE', #602, 1000.000000000000000 ) ;
#579 = CARTESIAN_POINT ( 'NONE',  ( 5.000000000000004441, 0.000000000000000000, 21.00000000000000000 ) ) ;
#580 = DIRECTION ( 'NONE',  ( -0.000000000000000000, -0.000000000000000000, -1.000000000000000000 ) ) ;
#581 = LINE ( 'NONE', #782, #180 ) ;
#582 = FACE_OUTER_BOUND ( 'NONE', #858, .T. ) ;
#583 = EDGE_CURVE ( 'NONE', #555, #258, #550, .T. ) ;
#584 = ORIENTED_EDGE ( 'NONE', *, *, #519, .F. ) ;
#585 = VERTEX_POINT ( 'NONE', #167 ) ;
#586 = ADVANCED_FACE ( 'NONE', ( #228 ), #404, .F. ) ;
#587 = ORIENTED_EDGE ( 'NONE', *, *, #359, .F. ) ;
#588 = CARTESIAN_POINT ( 'NONE',  ( 0.000000000000000000, 0.000000000000000000, 21.00000000000000000 ) ) ;
#589 = VECTOR ( 'NONE', #411, 1000.000000000000000 ) ;
#590 = PRODUCT_DEFINITION ( 'UNKNOWN', '', #40, #408 ) ;
#591 = CIRCLE ( 'NONE', #163, 1.699999999999994849 ) ;
#592 = EDGE_CURVE ( 'NONE', #76, #230, #157, .T. ) ;
#593 = DIRECTION ( 'NONE',  ( -0.000000000000000000, -0.000000000000000000, -1.000000000000000000 ) ) ;
#594 = ADVANCED_FACE ( 'NONE', ( #552 ), #173, .T. ) ;
#595 = CARTESIAN_POINT ( 'NONE',  ( 9.999999999999971578, 29.81495457622360945, 21.00000000000000000 ) ) ;
#596 = CARTESIAN_POINT ( 'NONE',  ( 10.00000000000000533, 2.299999999999996270, 21.00000000000000000 ) ) ;
#597 = ORIENTED_EDGE ( 'NONE', *, *, #28, .T. ) ;
#598 = ADVANCED_FACE ( 'NONE', ( #634 ), #905, .F. ) ;
#599 = ORIENTED_EDGE ( 'NONE', *, *, #48, .F. ) ;
#600 = DIRECTION ( 'NONE',  ( 0.000000000000000000, -0.000000000000000000, -1.000000000000000000 ) ) ;
#601 = VERTEX_POINT ( 'NONE', #872 ) ;
#602 = DIRECTION ( 'NONE',  ( 0.000000000000000000, -0.000000000000000000, 1.000000000000000000 ) ) ;
#603 = ORIENTED_EDGE ( 'NONE', *, *, #84, .F. ) ;
#604 = DIRECTION ( 'NONE',  ( -0.000000000000000000, -0.000000000000000000, -1.000000000000000000 ) ) ;
#605 = EDGE_CURVE ( 'NONE', #291, #816, #607, .T. ) ;
#606 = DIRECTION ( 'NONE',  ( 0.000000000000000000, -0.000000000000000000, -1.000000000000000000 ) ) ;
#607 = CIRCLE ( 'NONE', #77, 5.000000000000000000 ) ;
#608 = FACE_OUTER_BOUND ( 'NONE', #637, .T. ) ;
#609 = CARTESIAN_POINT ( 'NONE',  ( 10.00000000000000533, 2.299999999999996270, 21.00000000000000000 ) ) ;
#610 = DIRECTION ( 'NONE',  ( -1.000000000000000000, 0.000000000000000000, 0.000000000000000000 ) ) ;
#611 = EDGE_CURVE ( 'NONE', #910, #346, #718, .T. ) ;
#612 = EDGE_LOOP ( 'NONE', ( #859, #677, #783, #147, #743 ) ) ;
#613 = CARTESIAN_POINT ( 'NONE',  ( 13.00000000000000533, 2.299999999999996270, 21.00000000000000000 ) ) ;
#614 = ORIENTED_EDGE ( 'NONE', *, *, #409, .T. ) ;
#615 = AXIS2_PLACEMENT_3D ( 'NONE', #652, #352, #499 ) ;
#616 = DIRECTION ( 'NONE',  ( -1.000000000000000000, 0.000000000000000000, 0.000000000000000000 ) ) ;
#617 = CARTESIAN_POINT ( 'NONE',  ( 14.49999999999997868, 21.44337567297407787, 0.000000000000000000 ) ) ;
#618 = DIRECTION ( 'NONE',  ( 1.000000000000000000, 0.000000000000000000, 0.000000000000000000 ) ) ;
#619 = VECTOR ( 'NONE', #788, 1000.000000000000000 ) ;
#620 = DIRECTION ( 'NONE',  ( 0.000000000000000000, 0.000000000000000000, 1.000000000000000000 ) ) ;
#621 = CARTESIAN_POINT ( 'NONE',  ( 13.00000000000000533, 5.699999999999985079, 21.00000000000000000 ) ) ;
#622 = VERTEX_POINT ( 'NONE', #435 ) ;
#623 = CIRCLE ( 'NONE', #686, 5.000000000000000000 ) ;
#624 = CARTESIAN_POINT ( 'NONE',  ( 13.00000000000000533, 5.699999999999993072, 16.00000000000000000 ) ) ;
#625 = CARTESIAN_POINT ( 'NONE',  ( 17.00000000000000000, 20.00000000000001776, 16.00000000000000000 ) ) ;
#626 = AXIS2_PLACEMENT_3D ( 'NONE', #609, #385, #256 ) ;
#627 = DIRECTION ( 'NONE',  ( -0.000000000000000000, -0.000000000000000000, -1.000000000000000000 ) ) ;
#628 = LINE ( 'NONE', #300, #578 ) ;
#629 = EDGE_CURVE ( 'NONE', #222, #497, #116, .T. ) ;
#630 = DIRECTION ( 'NONE',  ( -0.000000000000000000, -0.000000000000000000, -1.000000000000000000 ) ) ;
#631 = CYLINDRICAL_SURFACE ( 'NONE', #746, 1.699999999999994849 ) ;
#632 = CARTESIAN_POINT ( 'NONE',  ( 13.00000000000000533, 2.299999999999996270, 16.00000000000000000 ) ) ;
#633 = CARTESIAN_POINT ( 'NONE',  ( 13.00000000000000533, 17.70000000000001705, 21.00000000000000000 ) ) ;
#634 = FACE_OUTER_BOUND ( 'NONE', #71, .T. ) ;
#635 = EDGE_LOOP ( 'NONE', ( #496, #449, #558, #478, #97 ) ) ;
#636 = EDGE_LOOP ( 'NONE', ( #570, #343, #656, #213 ) ) ;
#637 = EDGE_LOOP ( 'NONE', ( #400, #296, #869, #8 ) ) ;
#638 = EDGE_CURVE ( 'NONE', #200, #722, #787, .T. ) ;
#639 = DIRECTION ( 'NONE',  ( 0.000000000000000000, 0.000000000000000000, -1.000000000000000000 ) ) ;
#640 = EDGE_CURVE ( 'NONE', #816, #391, #628, .T. ) ;
#641 = CIRCLE ( 'NONE', #11, 1.699999999999994849 ) ;
#642 = LINE ( 'NONE', #914, #883 ) ;
#643 = DIRECTION ( 'NONE',  ( 0.000000000000000000, 1.000000000000000000, 0.000000000000000000 ) ) ;
#644 = AXIS2_PLACEMENT_3D ( 'NONE', #335, #842, #892 ) ;
#645 = ORIENTED_EDGE ( 'NONE', *, *, #811, .T. ) ;
#646 = DIRECTION ( 'NONE',  ( 0.000000000000000000, 0.000000000000000000, 1.000000000000000000 ) ) ;
#647 = LINE ( 'NONE', #896, #889 ) ;
#648 = DIRECTION ( 'NONE',  ( -0.000000000000000000, -0.000000000000000000, 1.000000000000000000 ) ) ;
#649 =( GEOMETRIC_REPRESENTATION_CONTEXT ( 3 ) GLOBAL_UNCERTAINTY_ASSIGNED_CONTEXT ( ( #510 ) ) GLOBAL_UNIT_ASSIGNED_CONTEXT ( ( #908, #345, #281 ) ) REPRESENTATION_CONTEXT ( 'NONE', 'WORKASPACE' ) );
#650 = CIRCLE ( 'NONE', #516, 1.699999999999994849 ) ;
#651 = EDGE_CURVE ( 'NONE', #346, #693, #809, .T. ) ;
#652 = CARTESIAN_POINT ( 'NONE',  ( 16.99999999999999645, 12.49999999999998046, 34.00000000000001421 ) ) ;
#653 = FACE_OUTER_BOUND ( 'NONE', #23, .T. ) ;
#654 = CARTESIAN_POINT ( 'NONE',  ( 13.00000000000000533, 17.70000000000001705, 16.00000000000000000 ) ) ;
#655 = ORIENTED_EDGE ( 'NONE', *, *, #651, .F. ) ;
#656 = ORIENTED_EDGE ( 'NONE', *, *, #658, .F. ) ;
#657 = ORIENTED_EDGE ( 'NONE', *, *, #434, .F. ) ;
#658 = EDGE_CURVE ( 'NONE', #291, #250, #131, .T. ) ;
#659 = CARTESIAN_POINT ( 'NONE',  ( 2.499999999999986677, 70.00000000000000000, 21.00000000000000000 ) ) ;
#660 = AXIS2_PLACEMENT_3D ( 'NONE', #549, #63, #482 ) ;
#661 = AXIS2_PLACEMENT_3D ( 'NONE', #579, #491, #5 ) ;
#662 = CYLINDRICAL_SURFACE ( 'NONE', #660, 1.699999999999994849 ) ;
#663 = ORIENTED_EDGE ( 'NONE', *, *, #320, .F. ) ;
#664 = EDGE_LOOP ( 'NONE', ( #685, #713, #528, #758 ) ) ;
#665 = ORIENTED_EDGE ( 'NONE', *, *, #42, .T. ) ;
#666 = DIRECTION ( 'NONE',  ( 0.000000000000000000, 0.000000000000000000, -1.000000000000000000 ) ) ;
#667 = ADVANCED_FACE ( 'NONE', ( #699 ), #26, .F. ) ;
#668 = DIRECTION ( 'NONE',  ( 1.000000000000000000, -0.000000000000000000, -0.000000000000000000 ) ) ;
#669 = EDGE_CURVE ( 'NONE', #545, #489, #650, .T. ) ;
#670 = ADVANCED_FACE ( 'NONE', ( #845 ), #106, .T. ) ;
#671 = CARTESIAN_POINT ( 'NONE',  ( 10.00000000000000533, 17.70000000000001705, 21.00000000000000000 ) ) ;
#672 = FACE_OUTER_BOUND ( 'NONE', #370, .T. ) ;
#673 = LINE ( 'NONE', #432, #361 ) ;
#674 = CARTESIAN_POINT ( 'NONE',  ( 13.00000000000000533, 14.29999999999999538, 0.000000000000000000 ) ) ;
#675 = EDGE_LOOP ( 'NONE', ( #657, #330, #790, #735 ) ) ;
#676 = ORIENTED_EDGE ( 'NONE', *, *, #198, .F. ) ;
#677 = ORIENTED_EDGE ( 'NONE', *, *, #247, .F. ) ;
#678 = PLANE ( 'NONE',  #108 ) ;
#679 = CARTESIAN_POINT ( 'NONE',  ( 13.00000000000000533, 5.699999999999993072, 21.00000000000000000 ) ) ;
#680 = EDGE_CURVE ( 'NONE', #910, #898, #234, .T. ) ;
#681 = ADVANCED_FACE ( 'NONE', ( #785, #298 ), #678, .T. ) ;
#682 = CARTESIAN_POINT ( 'NONE',  ( 13.00000000000000533, 15.99999999999999645, 16.00000000000000000 ) ) ;
#683 = CARTESIAN_POINT ( 'NONE',  ( 9.999999999999971578, 29.81495457622360945, 16.00000000000000000 ) ) ;
#684 = ORIENTED_EDGE ( 'NONE', *, *, #446, .F. ) ;
#685 = ORIENTED_EDGE ( 'NONE', *, *, #920, .T. ) ;
#686 = AXIS2_PLACEMENT_3D ( 'NONE', #119, #627, #690 ) ;
#687 = DIRECTION ( 'NONE',  ( -0.000000000000000000, 0.000000000000000000, -1.000000000000000000 ) ) ;
#688 = CARTESIAN_POINT ( 'NONE',  ( 4.999999999999973355, 29.81495457622360945, 21.00000000000000000 ) ) ;
#689 = CIRCLE ( 'NONE', #755, 1.700000000000010614 ) ;
#690 = DIRECTION ( 'NONE',  ( -1.000000000000000000, 0.000000000000000000, 0.000000000000000000 ) ) ;
#691 = VERTEX_POINT ( 'NONE', #750 ) ;
#692 = DIRECTION ( 'NONE',  ( -1.000000000000000000, 0.000000000000000000, 0.000000000000000000 ) ) ;
#693 = VERTEX_POINT ( 'NONE', #534 ) ;
#694 = COLOUR_RGB ( '',0.6980392156862744724, 0.6980392156862744724, 0.6980392156862744724 ) ;
#695 = VERTEX_POINT ( 'NONE', #739 ) ;
#696 = CARTESIAN_POINT ( 'NONE',  ( 4.999999999999976907, 2.500000000000009326, 16.00000000000000000 ) ) ;
#697 = DIRECTION ( 'NONE',  ( -0.000000000000000000, -0.000000000000000000, -1.000000000000000000 ) ) ;
#698 = CARTESIAN_POINT ( 'NONE',  ( 0.000000000000000000, 0.000000000000000000, 0.000000000000000000 ) ) ;
#699 = FACE_OUTER_BOUND ( 'NONE', #715, .T. ) ;
#700 = DIRECTION ( 'NONE',  ( -1.000000000000000000, 0.000000000000000000, 0.000000000000000000 ) ) ;
#701 = CIRCLE ( 'NONE', #513, 1.699999999999994849 ) ;
#702 = ORIENTED_EDGE ( 'NONE', *, *, #244, .T. ) ;
#703 = ORIENTED_EDGE ( 'NONE', *, *, #903, .T. ) ;
#704 = ORIENTED_EDGE ( 'NONE', *, *, #61, .T. ) ;
#705 = PLANE ( 'NONE',  #559 ) ;
#706 = DIRECTION ( 'NONE',  ( -1.000000000000000000, 0.000000000000000000, 0.000000000000000000 ) ) ;
#707 = AXIS2_PLACEMENT_3D ( 'NONE', #41, #327, #824 ) ;
#708 = DIRECTION ( 'NONE',  ( -1.000000000000000000, 0.000000000000000000, 0.000000000000000000 ) ) ;
#709 = FACE_BOUND ( 'NONE', #612, .T. ) ;
#710 = DIRECTION ( 'NONE',  ( 0.000000000000000000, -0.000000000000000000, -1.000000000000000000 ) ) ;
#711 = AXIS2_PLACEMENT_3D ( 'NONE', #723, #855, #89 ) ;
#712 = VERTEX_POINT ( 'NONE', #617 ) ;
#713 = ORIENTED_EDGE ( 'NONE', *, *, #84, .T. ) ;
#714 = EDGE_CURVE ( 'NONE', #197, #851, #141, .T. ) ;
#715 = EDGE_LOOP ( 'NONE', ( #818, #574, #178, #459 ) ) ;
#716 = PRESENTATION_LAYER_ASSIGNMENT (  '', '', ( #310 ) ) ;
#717 = EDGE_CURVE ( 'NONE', #295, #73, #795, .T. ) ;
#718 = LINE ( 'NONE', #877, #339 ) ;
#719 = PLANE ( 'NONE',  #661 ) ;
#720 = FACE_OUTER_BOUND ( 'NONE', #664, .T. ) ;
#721 = PRODUCT_DEFINITION_SHAPE ( 'NONE', 'NONE',  #590 ) ;
#722 = VERTEX_POINT ( 'NONE', #389 ) ;
#723 = CARTESIAN_POINT ( 'NONE',  ( 2.499999999999986677, 70.00000000000000000, 0.000000000000000000 ) ) ;
#724 = ORIENTED_EDGE ( 'NONE', *, *, #638, .F. ) ;
#725 = ORIENTED_EDGE ( 'NONE', *, *, #805, .T. ) ;
#726 = CARTESIAN_POINT ( 'NONE',  ( 4.999999999999973355, 70.00000000000000000, 0.000000000000000000 ) ) ;
#727 =( GEOMETRIC_REPRESENTATION_CONTEXT ( 3 ) GLOBAL_UNCERTAINTY_ASSIGNED_CONTEXT ( ( #911 ) ) GLOBAL_UNIT_ASSIGNED_CONTEXT ( ( #466, #202, #265 ) ) REPRESENTATION_CONTEXT ( 'NONE', 'WORKASPACE' ) );
#728 = DIRECTION ( 'NONE',  ( -1.000000000000000000, 0.000000000000000000, 0.000000000000000000 ) ) ;
#729 = DIRECTION ( 'NONE',  ( -1.000000000000000000, 0.000000000000000000, 0.000000000000000000 ) ) ;
#730 = LINE ( 'NONE', #269, #919 ) ;
#731 = DIRECTION ( 'NONE',  ( 0.000000000000000000, 1.000000000000000000, 0.000000000000000000 ) ) ;
#732 = VERTEX_POINT ( 'NONE', #457 ) ;
#733 = ADVANCED_FACE ( 'NONE', ( #557 ), #183, .F. ) ;
#734 = VERTEX_POINT ( 'NONE', #820 ) ;
#735 = ORIENTED_EDGE ( 'NONE', *, *, #680, .F. ) ;
#736 = ORIENTED_EDGE ( 'NONE', *, *, #405, .T. ) ;
#737 = EDGE_CURVE ( 'NONE', #878, #9, #204, .T. ) ;
#738 = ADVANCED_FACE ( 'NONE', ( #165 ), #461, .T. ) ;
#739 = CARTESIAN_POINT ( 'NONE',  ( 17.00000000000000355, 1.911191783433776344E-14, 0.000000000000000000 ) ) ;
#740 = LINE ( 'NONE', #154, #387 ) ;
#741 = EDGE_CURVE ( 'NONE', #99, #712, #465, .T. ) ;
#742 = CARTESIAN_POINT ( 'NONE',  ( 13.00000000000000533, 3.999999999999999112, 16.00000000000000000 ) ) ;
#743 = ORIENTED_EDGE ( 'NONE', *, *, #134, .F. ) ;
#744 = ORIENTED_EDGE ( 'NONE', *, *, #575, .F. ) ;
#745 = ORIENTED_EDGE ( 'NONE', *, *, #171, .F. ) ;
#746 = AXIS2_PLACEMENT_3D ( 'NONE', #850, #490, #215 ) ;
#747 = FACE_OUTER_BOUND ( 'NONE', #826, .T. ) ;
#748 = DIRECTION ( 'NONE',  ( -1.734723475976807834E-16, 1.000000000000000000, 0.000000000000000000 ) ) ;
#749 = AXIS2_PLACEMENT_3D ( 'NONE', #418, #708, #770 ) ;
#750 = CARTESIAN_POINT ( 'NONE',  ( 4.999999999999973355, 2.500000000000009326, 21.00000000000000000 ) ) ;
#751 = CIRCLE ( 'NONE', #436, 1.700000000000010614 ) ;
#752 = DIRECTION ( 'NONE',  ( -1.000000000000000000, 0.000000000000000000, 0.000000000000000000 ) ) ;
#753 = LINE ( 'NONE', #596, #17 ) ;
#754 = DIRECTION ( 'NONE',  ( 0.000000000000000000, -1.000000000000000000, -0.000000000000000000 ) ) ;
#755 = AXIS2_PLACEMENT_3D ( 'NONE', #893, #630, #692 ) ;
#756 = VERTEX_POINT ( 'NONE', #819 ) ;
#757 = ORIENTED_EDGE ( 'NONE', *, *, #862, .T. ) ;
#758 = ORIENTED_EDGE ( 'NONE', *, *, #139, .F. ) ;
#759 = ORIENTED_EDGE ( 'NONE', *, *, #469, .F. ) ;
#760 = AXIS2_PLACEMENT_3D ( 'NONE', #382, #802, #14 ) ;
#761 = EDGE_CURVE ( 'NONE', #852, #622, #591, .T. ) ;
#762 = CARTESIAN_POINT ( 'NONE',  ( 13.00000000000000533, 14.29999999999999538, 16.00000000000000000 ) ) ;
#763 = CARTESIAN_POINT ( 'NONE',  ( 12.00000000000000178, 17.11324865405186912, 21.00000000000000000 ) ) ;
#764 = DIRECTION ( 'NONE',  ( -0.000000000000000000, 0.000000000000000000, 1.000000000000000000 ) ) ;
#765 = VECTOR ( 'NONE', #378, 1000.000000000000000 ) ;
#766 = LINE ( 'NONE', #203, #159 ) ;
#767 = CARTESIAN_POINT ( 'NONE',  ( 9.999999999999971578, 17.49999999999998579, 34.00000000000001421 ) ) ;
#768 = VECTOR ( 'NONE', #267, 1000.000000000000000 ) ;
#769 = ORIENTED_EDGE ( 'NONE', *, *, #451, .F. ) ;
#770 = DIRECTION ( 'NONE',  ( 0.000000000000000000, 0.000000000000000000, -1.000000000000000000 ) ) ;
#771 = ORIENTED_EDGE ( 'NONE', *, *, #139, .T. ) ;
#772 = DIRECTION ( 'NONE',  ( 1.000000000000000000, 0.000000000000000000, -0.000000000000000000 ) ) ;
#773 = ORIENTED_EDGE ( 'NONE', *, *, #446, .T. ) ;
#774 = EDGE_CURVE ( 'NONE', #691, #87, #309, .T. ) ;
#775 = CARTESIAN_POINT ( 'NONE',  ( 2.499999999999986677, 70.00000000000000000, 21.00000000000000000 ) ) ;
#776 = VECTOR ( 'NONE', #793, 1000.000000000000000 ) ;
#777 = DIRECTION ( 'NONE',  ( 0.000000000000000000, 0.000000000000000000, 1.000000000000000000 ) ) ;
#778 = STYLED_ITEM ( 'NONE', ( #781 ), #220 ) ;
#779 = LINE ( 'NONE', #865, #410 ) ;
#780 = DIRECTION ( 'NONE',  ( 1.000000000000000000, 0.000000000000000000, 0.000000000000000000 ) ) ;
#781 = PRESENTATION_STYLE_ASSIGNMENT (( #854 ) ) ;
#782 = CARTESIAN_POINT ( 'NONE',  ( 14.69999999999999929, 3.999999999999999112, 21.00000000000000000 ) ) ;
#783 = ORIENTED_EDGE ( 'NONE', *, *, #592, .F. ) ;
#784 = FACE_BOUND ( 'NONE', #635, .T. ) ;
#785 = FACE_BOUND ( 'NONE', #522, .T. ) ;
#786 = CARTESIAN_POINT ( 'NONE',  ( 0.000000000000000000, 0.000000000000000000, 0.000000000000000000 ) ) ;
#787 = CIRCLE ( 'NONE', #760, 1.699999999999994849 ) ;
#788 = DIRECTION ( 'NONE',  ( 0.000000000000000000, 1.000000000000000000, 0.000000000000000000 ) ) ;
#789 = FACE_OUTER_BOUND ( 'NONE', #86, .T. ) ;
#790 = ORIENTED_EDGE ( 'NONE', *, *, #37, .T. ) ;
#791 = LINE ( 'NONE', #123, #7 ) ;
#792 = EDGE_LOOP ( 'NONE', ( #58, #853, #876, #225 ) ) ;
#793 = DIRECTION ( 'NONE',  ( 0.000000000000000000, 1.000000000000000000, 0.000000000000000000 ) ) ;
#794 = ORIENTED_EDGE ( 'NONE', *, *, #669, .T. ) ;
#795 = CIRCLE ( 'NONE', #573, 1.700000000000010614 ) ;
#796 = CARTESIAN_POINT ( 'NONE',  ( 7.499999999999989342, 25.48482755730140070, 0.000000000000000000 ) ) ;
#797 = AXIS2_PLACEMENT_3D ( 'NONE', #367, #12, #817 ) ;
#798 = DIRECTION ( 'NONE',  ( 0.000000000000000000, -0.000000000000000000, -1.000000000000000000 ) ) ;
#799 = DIRECTION ( 'NONE',  ( -1.000000000000000000, 0.000000000000000000, 0.000000000000000000 ) ) ;
#800 = LINE ( 'NONE', #786, #776 ) ;
#801 = CARTESIAN_POINT ( 'NONE',  ( 13.00000000000000533, 14.29999999999999538, 0.000000000000000000 ) ) ;
#802 = DIRECTION ( 'NONE',  ( -0.000000000000000000, -0.000000000000000000, -1.000000000000000000 ) ) ;
#803 = ORIENTED_EDGE ( 'NONE', *, *, #519, .T. ) ;
#804 = CARTESIAN_POINT ( 'NONE',  ( 4.999999999999976907, 1.387778780781445676E-14, 21.00000000000000000 ) ) ;
#805 = EDGE_CURVE ( 'NONE', #138, #460, #290, .T. ) ;
#806 = ADVANCED_FACE ( 'NONE', ( #747 ), #79, .T. ) ;
#807 = DIRECTION ( 'NONE',  ( -1.000000000000000000, 0.000000000000000000, 0.000000000000000000 ) ) ;
#808 = DIRECTION ( 'NONE',  ( -6.938893903907227392E-16, -1.000000000000000000, 0.000000000000000000 ) ) ;
#809 = CIRCLE ( 'NONE', #797, 1.699999999999994849 ) ;
#810 = CARTESIAN_POINT ( 'NONE',  ( 9.999999999999971578, 17.49999999999998579, 16.00000000000000000 ) ) ;
#811 = EDGE_CURVE ( 'NONE', #712, #9, #441, .T. ) ;
#812 = COLOUR_RGB ( '',0.6980392156862744724, 0.6980392156862744724, 0.6980392156862744724 ) ;
#813 = CARTESIAN_POINT ( 'NONE',  ( 17.00000000000000355, 1.911191783433776344E-14, 21.00000000000000000 ) ) ;
#814 = ORIENTED_EDGE ( 'NONE', *, *, #20, .F. ) ;
#815 = ADVANCED_FACE ( 'NONE', ( #784, #224 ), #473, .T. ) ;
#816 = VERTEX_POINT ( 'NONE', #196 ) ;
#817 = DIRECTION ( 'NONE',  ( -1.000000000000000000, 0.000000000000000000, 0.000000000000000000 ) ) ;
#818 = ORIENTED_EDGE ( 'NONE', *, *, #171, .T. ) ;
#819 = CARTESIAN_POINT ( 'NONE',  ( 16.99999999999999645, 7.500000000000007994, 21.00000000000000000 ) ) ;
#820 = CARTESIAN_POINT ( 'NONE',  ( 0.000000000000000000, 0.000000000000000000, 0.000000000000000000 ) ) ;
#821 = CARTESIAN_POINT ( 'NONE',  ( 13.00000000000000533, 17.70000000000001705, 16.00000000000000000 ) ) ;
#822 = VECTOR ( 'NONE', #140, 1000.000000000000000 ) ;
#823 = DIRECTION ( 'NONE',  ( 0.000000000000000000, 1.000000000000000000, 0.000000000000000000 ) ) ;
#824 = DIRECTION ( 'NONE',  ( 1.000000000000000000, 0.000000000000000000, 0.000000000000000000 ) ) ;
#825 = CYLINDRICAL_SURFACE ( 'NONE', #69, 5.000000000000000000 ) ;
#826 = EDGE_LOOP ( 'NONE', ( #35, #450, #884, #645 ) ) ;
#827 = MECHANICAL_DESIGN_GEOMETRIC_PRESENTATION_REPRESENTATION (  '', ( #778 ), #871 ) ;
#828 = ORIENTED_EDGE ( 'NONE', *, *, #843, .F. ) ;
#829 = DIRECTION ( 'NONE',  ( -0.000000000000000000, -0.000000000000000000, -1.000000000000000000 ) ) ;
#830 = DIRECTION ( 'NONE',  ( 1.000000000000000000, 0.000000000000000000, 0.000000000000000000 ) ) ;
#831 = VECTOR ( 'NONE', #823, 1000.000000000000000 ) ;
#832 = DIRECTION ( 'NONE',  ( 0.000000000000000000, -0.000000000000000000, -1.000000000000000000 ) ) ;
#833 = DIRECTION ( 'NONE',  ( 0.000000000000000000, -1.000000000000000000, -0.000000000000000000 ) ) ;
#834 = LINE ( 'NONE', #688, #426 ) ;
#835 = CARTESIAN_POINT ( 'NONE',  ( 9.999999999999971578, 29.81495457622360945, 0.000000000000000000 ) ) ;
#836 = LINE ( 'NONE', #679, #567 ) ;
#837 = CARTESIAN_POINT ( 'NONE',  ( 10.00000000000000533, 2.299999999999996270, 0.000000000000000000 ) ) ;
#838 = AXIS2_PLACEMENT_3D ( 'NONE', #683, #316, #91 ) ;
#839 = PLANE ( 'NONE',  #288 ) ;
#840 = ORIENTED_EDGE ( 'NONE', *, *, #90, .T. ) ;
#841 = ORIENTED_EDGE ( 'NONE', *, *, #916, .F. ) ;
#842 = DIRECTION ( 'NONE',  ( 0.000000000000000000, -0.000000000000000000, -1.000000000000000000 ) ) ;
#843 = EDGE_CURVE ( 'NONE', #138, #250, #100, .T. ) ;
#844 = DIRECTION ( 'NONE',  ( 1.000000000000000000, 0.000000000000000000, 0.000000000000000000 ) ) ;
#845 = FACE_OUTER_BOUND ( 'NONE', #277, .T. ) ;
#846 = FILL_AREA_STYLE_COLOUR ( '', #812 ) ;
#847 = FACE_OUTER_BOUND ( 'NONE', #636, .T. ) ;
#848 = APPLICATION_CONTEXT ( 'automotive_design' ) ;
#849 = LINE ( 'NONE', #355, #458 ) ;
#850 = CARTESIAN_POINT ( 'NONE',  ( 13.00000000000000533, 3.999999999999999112, 21.00000000000000000 ) ) ;
#851 = VERTEX_POINT ( 'NONE', #696 ) ;
#852 = VERTEX_POINT ( 'NONE', #624 ) ;
#853 = ORIENTED_EDGE ( 'NONE', *, *, #867, .T. ) ;
#854 = SURFACE_STYLE_USAGE ( .BOTH. , #143 ) ;
#855 = DIRECTION ( 'NONE',  ( -0.000000000000000000, -0.000000000000000000, -1.000000000000000000 ) ) ;
#856 = VECTOR ( 'NONE', #648, 1000.000000000000000 ) ;
#857 = EDGE_CURVE ( 'NONE', #9, #585, #544, .T. ) ;
#858 = EDGE_LOOP ( 'NONE', ( #897, #380, #554, #880 ) ) ;
#859 = ORIENTED_EDGE ( 'NONE', *, *, #867, .F. ) ;
#860 = CARTESIAN_POINT ( 'NONE',  ( 4.999999999999973355, 2.500000000000009326, 16.00000000000000000 ) ) ;
#861 = CARTESIAN_POINT ( 'NONE',  ( 0.000000000000000000, 70.00000000000000000, 21.00000000000000000 ) ) ;
#862 = EDGE_CURVE ( 'NONE', #113, #438, #881, .T. ) ;
#863 = CARTESIAN_POINT ( 'NONE',  ( 14.70000000000001528, 15.99999999999999645, 0.000000000000000000 ) ) ;
#864 = ADVANCED_FACE ( 'NONE', ( #477 ), #75, .F. ) ;
#865 = CARTESIAN_POINT ( 'NONE',  ( 0.000000000000000000, 70.00000000000000000, 21.00000000000000000 ) ) ;
#866 = FACE_OUTER_BOUND ( 'NONE', #285, .T. ) ;
#867 = EDGE_CURVE ( 'NONE', #258, #229, #647, .T. ) ;
#868 = ADVANCED_FACE ( 'NONE', ( #271 ), #825, .F. ) ;
#869 = ORIENTED_EDGE ( 'NONE', *, *, #737, .T. ) ;
#870 = DIRECTION ( 'NONE',  ( 0.000000000000000000, -0.000000000000000000, -1.000000000000000000 ) ) ;
#871 =( GEOMETRIC_REPRESENTATION_CONTEXT ( 3 ) GLOBAL_UNCERTAINTY_ASSIGNED_CONTEXT ( ( #161 ) ) GLOBAL_UNIT_ASSIGNED_CONTEXT ( ( #148, #556, #569 ) ) REPRESENTATION_CONTEXT ( 'NONE', 'WORKASPACE' ) );
#872 = CARTESIAN_POINT ( 'NONE',  ( 9.999999999999971578, 7.500000000000007994, 16.00000000000000000 ) ) ;
#873 = DIRECTION ( 'NONE',  ( 0.000000000000000000, -0.000000000000000000, -1.000000000000000000 ) ) ;
#874 = LINE ( 'NONE', #357, #471 ) ;
#875 = FACE_BOUND ( 'NONE', #475, .T. ) ;
#876 = ORIENTED_EDGE ( 'NONE', *, *, #191, .F. ) ;
#877 = CARTESIAN_POINT ( 'NONE',  ( 10.00000000000000533, 2.299999999999996270, 16.00000000000000000 ) ) ;
#878 = VERTEX_POINT ( 'NONE', #540 ) ;
#879 = ORIENTED_EDGE ( 'NONE', *, *, #28, .F. ) ;
#880 = ORIENTED_EDGE ( 'NONE', *, *, #481, .F. ) ;
#881 = LINE ( 'NONE', #406, #479 ) ;
#882 = LINE ( 'NONE', #625, #505 ) ;
#883 = VECTOR ( 'NONE', #121, 1000.000000000000000 ) ;
#884 = ORIENTED_EDGE ( 'NONE', *, *, #252, .T. ) ;
#885 = AXIS2_PLACEMENT_3D ( 'NONE', #142, #484, #844 ) ;
#886 = EDGE_LOOP ( 'NONE', ( #284, #212, #174, #383 ) ) ;
#887 = DIRECTION ( 'NONE',  ( 0.000000000000000000, 0.000000000000000000, 1.000000000000000000 ) ) ;
#888 = ORIENTED_EDGE ( 'NONE', *, *, #737, .F. ) ;
#889 = VECTOR ( 'NONE', #468, 1000.000000000000000 ) ;
#890 = DIRECTION ( 'NONE',  ( 0.000000000000000000, -1.000000000000000000, -0.000000000000000000 ) ) ;
#891 = PLANE ( 'NONE',  #274 ) ;
#892 = DIRECTION ( 'NONE',  ( 1.000000000000000000, 0.000000000000000000, 0.000000000000000000 ) ) ;
#893 = CARTESIAN_POINT ( 'NONE',  ( 10.00000000000000533, 16.00000000000001776, 0.000000000000000000 ) ) ;
#894 = FACE_OUTER_BOUND ( 'NONE', #431, .T. ) ;
#895 = VECTOR ( 'NONE', #39, 1000.000000000000000 ) ;
#896 = CARTESIAN_POINT ( 'NONE',  ( 13.00000000000000533, 17.70000000000001705, 0.000000000000000000 ) ) ;
#897 = ORIENTED_EDGE ( 'NONE', *, *, #774, .T. ) ;
#898 = VERTEX_POINT ( 'NONE', #546 ) ;
#899 = ORIENTED_EDGE ( 'NONE', *, *, #920, .F. ) ;
#900 = AXIS2_PLACEMENT_3D ( 'NONE', #763, #46, #551 ) ;
#901 = ORIENTED_EDGE ( 'NONE', *, *, #90, .F. ) ;
#902 = CARTESIAN_POINT ( 'NONE',  ( 16.99999999999999645, 12.49999999999998046, 21.00000000000000000 ) ) ;
#903 = EDGE_CURVE ( 'NONE', #99, #438, #421, .T. ) ;
#904 = FILL_AREA_STYLE_COLOUR ( '', #694 ) ;
#905 = CYLINDRICAL_SURFACE ( 'NONE', #130, 1.700000000000010614 ) ;
#906 = DIRECTION ( 'NONE',  ( 0.000000000000000000, 0.000000000000000000, 1.000000000000000000 ) ) ;
#907 = VECTOR ( 'NONE', #88, 1000.000000000000000 ) ;
#908 =( LENGTH_UNIT ( ) NAMED_UNIT ( * ) SI_UNIT ( .MILLI., .METRE. ) );
#909 = FILL_AREA_STYLE ('',( #904 ) ) ;
#910 = VERTEX_POINT ( 'NONE', #632 ) ;
#911 = UNCERTAINTY_MEASURE_WITH_UNIT (LENGTH_MEASURE( 1.000000000000000082E-05 ), #466, 'distance_accuracy_value', 'NONE');
#912 = PLANE ( 'NONE',  #749 ) ;
#913 = ORIENTED_EDGE ( 'NONE', *, *, #862, .F. ) ;
#914 = CARTESIAN_POINT ( 'NONE',  ( 16.99999999999999645, 7.500000000000007994, 16.00000000000000000 ) ) ;
#915 = ORIENTED_EDGE ( 'NONE', *, *, #144, .T. ) ;
#916 = EDGE_CURVE ( 'NONE', #851, #601, #623, .T. ) ;
#917 = CARTESIAN_POINT ( 'NONE',  ( 17.00000000000000355, 1.911191783433776344E-14, 0.000000000000000000 ) ) ;
#918 = CARTESIAN_POINT ( 'NONE',  ( 4.999999999999976907, 1.387778780781445676E-14, 16.00000000000000000 ) ) ;
#919 = VECTOR ( 'NONE', #120, 1000.000000000000000 ) ;
#920 = EDGE_CURVE ( 'NONE', #693, #722, #791, .T. ) ;
#921 = CIRCLE ( 'NONE', #236, 4.999999999999999112 ) ;
#922 = ORIENTED_EDGE ( 'NONE', *, *, #244, .F. ) ;
#923 = ORIENTED_EDGE ( 'NONE', *, *, #464, .F. ) ;
#924 = ORIENTED_EDGE ( 'NONE', *, *, #37, .F. ) ;
#925 = VERTEX_POINT ( 'NONE', #547 ) ;
ENDSEC;
END-ISO-10303-21;
