ISO-10303-21;
HEADER;
FILE_DESCRIPTION (( 'STEP AP214' ),
    '1' );
FILE_NAME ('21631_03_191_rotary support rod 6.STEP',
    '2021-11-04T14:42:54',
    ( '' ),
    ( '' ),
    'SwSTEP 2.0',
    'SolidWorks 2018',
    '' );
FILE_SCHEMA (( 'AUTOMOTIVE_DESIGN' ));
ENDSEC;

DATA;
#1 = VECTOR ( 'NONE', #537, 1000.000000000000000 ) ;
#2 = EDGE_LOOP ( 'NONE', ( #658, #24, #101, #603 ) ) ;
#3 = DIRECTION ( 'NONE',  ( -1.000000000000000000, 0.000000000000000000, 0.000000000000000000 ) ) ;
#4 = DIRECTION ( 'NONE',  ( -0.000000000000000000, -0.000000000000000000, -1.000000000000000000 ) ) ;
#5 = CARTESIAN_POINT ( 'NONE',  ( -7.000000000000006217, 16.00000000000001421, 16.00000000000000000 ) ) ;
#6 = FILL_AREA_STYLE_COLOUR ( '', #82 ) ;
#7 = CARTESIAN_POINT ( 'NONE',  ( -12.70000000000003126, 4.000000000000017764, 10.90000000000000036 ) ) ;
#8 = VECTOR ( 'NONE', #201, 1000.000000000000000 ) ;
#9 = EDGE_LOOP ( 'NONE', ( #443, #16, #613, #221 ) ) ;
#10 = ORIENTED_EDGE ( 'NONE', *, *, #89, .F. ) ;
#11 = CARTESIAN_POINT ( 'NONE',  ( -4.000000000000003553, 16.00000000000001421, 0.000000000000000000 ) ) ;
#12 = DIRECTION ( 'NONE',  ( 0.000000000000000000, 0.000000000000000000, 1.000000000000000000 ) ) ;
#13 = AXIS2_PLACEMENT_3D ( 'NONE', #355, #213, #573 ) ;
#14 = CARTESIAN_POINT ( 'NONE',  ( -2.500000000000002220, 65.00000000000000000, 10.90000000000000036 ) ) ;
#15 = FACE_OUTER_BOUND ( 'NONE', #275, .T. ) ;
#16 = ORIENTED_EDGE ( 'NONE', *, *, #352, .F. ) ;
#17 = EDGE_CURVE ( 'NONE', #304, #277, #83, .T. ) ;
#18 = ORIENTED_EDGE ( 'NONE', *, *, #234, .T. ) ;
#19 = EDGE_CURVE ( 'NONE', #466, #208, #396, .T. ) ;
#20 = ADVANCED_FACE ( 'NONE', ( #255, #540, #263 ), #121, .T. ) ;
#21 = CARTESIAN_POINT ( 'NONE',  ( -11.00000000000001066, 2.299999999999996270, 10.90000000000000036 ) ) ;
#22 = CIRCLE ( 'NONE', #585, 8.000000000000000000 ) ;
#23 = VECTOR ( 'NONE', #88, 1000.000000000000000 ) ;
#24 = ORIENTED_EDGE ( 'NONE', *, *, #536, .F. ) ;
#25 = ORIENTED_EDGE ( 'NONE', *, *, #280, .F. ) ;
#26 = CARTESIAN_POINT ( 'NONE',  ( -8.000000000000007105, 2.299999999999996270, 16.00000000000000000 ) ) ;
#27 = CARTESIAN_POINT ( 'NONE',  ( -5.000000000000004441, 65.00000000000000000, 0.000000000000000000 ) ) ;
#28 = EDGE_CURVE ( 'NONE', #650, #624, #434, .T. ) ;
#29 = DIRECTION ( 'NONE',  ( 1.000000000000000000, 0.000000000000000000, 0.000000000000000000 ) ) ;
#30 = AXIS2_PLACEMENT_3D ( 'NONE', #535, #494, #652 ) ;
#31 = VECTOR ( 'NONE', #206, 999.9999999999998863 ) ;
#32 = ORIENTED_EDGE ( 'NONE', *, *, #386, .T. ) ;
#33 = VERTEX_POINT ( 'NONE', #240 ) ;
#34 = EDGE_CURVE ( 'NONE', #466, #330, #387, .T. ) ;
#35 = CARTESIAN_POINT ( 'NONE',  ( -11.00000000000001066, 4.000000000000017764, 16.00000000000000000 ) ) ;
#36 = ORIENTED_EDGE ( 'NONE', *, *, #141, .F. ) ;
#37 = CARTESIAN_POINT ( 'NONE',  ( -11.00000000000001066, 4.000000000000017764, 16.00000000000000000 ) ) ;
#38 = PRESENTATION_LAYER_ASSIGNMENT (  '', '', ( #541 ) ) ;
#39 = CARTESIAN_POINT ( 'NONE',  ( -4.000000000000003553, 14.29999999999999361, 0.000000000000000000 ) ) ;
#40 = CARTESIAN_POINT ( 'NONE',  ( -15.00000000000001421, 20.00000000000001776, 0.000000000000000000 ) ) ;
#41 = VECTOR ( 'NONE', #474, 1000.000000000000000 ) ;
#42 = PLANE ( 'NONE',  #428 ) ;
#43 = LINE ( 'NONE', #442, #145 ) ;
#44 = ORIENTED_EDGE ( 'NONE', *, *, #460, .T. ) ;
#45 = ORIENTED_EDGE ( 'NONE', *, *, #154, .T. ) ;
#46 = CARTESIAN_POINT ( 'NONE',  ( -7.000000000000013323, 16.68629150101522995, 10.90000000000000036 ) ) ;
#47 = CARTESIAN_POINT ( 'NONE',  ( -11.00000000000001066, 4.000000000000017764, 0.000000000000000000 ) ) ;
#48 = CARTESIAN_POINT ( 'NONE',  ( -12.70000000000003126, 4.000000000000017764, 16.00000000000000000 ) ) ;
#49 = VECTOR ( 'NONE', #94, 1000.000000000000000 ) ;
#50 = CARTESIAN_POINT ( 'NONE',  ( -7.000000000000006217, 16.00000000000001421, 0.000000000000000000 ) ) ;
#51 = ORIENTED_EDGE ( 'NONE', *, *, #333, .T. ) ;
#52 = VERTEX_POINT ( 'NONE', #7 ) ;
#53 = EDGE_LOOP ( 'NONE', ( #51, #487, #375, #241 ) ) ;
#54 = DIRECTION ( 'NONE',  ( -1.000000000000000000, 0.000000000000000000, 0.000000000000000000 ) ) ;
#55 = EDGE_CURVE ( 'NONE', #343, #650, #647, .T. ) ;
#56 = PLANE ( 'NONE',  #214 ) ;
#57 = EDGE_CURVE ( 'NONE', #601, #473, #172, .T. ) ;
#58 = FILL_AREA_STYLE_COLOUR ( '', #441 ) ;
#59 = VECTOR ( 'NONE', #276, 1000.000000000000000 ) ;
#60 = CIRCLE ( 'NONE', #392, 1.700000000000021050 ) ;
#61 = APPLICATION_CONTEXT ( 'automotive_design' ) ;
#62 = DIRECTION ( 'NONE',  ( -0.000000000000000000, -0.000000000000000000, -1.000000000000000000 ) ) ;
#63 = DIRECTION ( 'NONE',  ( 1.000000000000000000, -0.000000000000000000, -0.000000000000000000 ) ) ;
#64 = CARTESIAN_POINT ( 'NONE',  ( -5.000000000000004441, 20.00000000000001776, 10.90000000000000036 ) ) ;
#65 = DIRECTION ( 'NONE',  ( 1.000000000000000000, 0.000000000000000000, 0.000000000000000000 ) ) ;
#66 = EDGE_CURVE ( 'NONE', #588, #650, #500, .T. ) ;
#67 = VERTEX_POINT ( 'NONE', #591 ) ;
#68 = VERTEX_POINT ( 'NONE', #438 ) ;
#69 = PLANE ( 'NONE',  #223 ) ;
#70 = EDGE_CURVE ( 'NONE', #67, #198, #656, .T. ) ;
#71 = DIRECTION ( 'NONE',  ( -1.000000000000000000, 0.000000000000000000, 0.000000000000000000 ) ) ;
#72 = CYLINDRICAL_SURFACE ( 'NONE', #661, 1.700000000000027933 ) ;
#73 = CARTESIAN_POINT ( 'NONE',  ( -11.00000000000001066, 4.000000000000017764, 10.90000000000000036 ) ) ;
#74 = VECTOR ( 'NONE', #462, 1000.000000000000000 ) ;
#75 = ADVANCED_FACE ( 'NONE', ( #412 ), #507, .T. ) ;
#76 = FACE_OUTER_BOUND ( 'NONE', #53, .T. ) ;
#77 = ORIENTED_EDGE ( 'NONE', *, *, #70, .F. ) ;
#78 = CARTESIAN_POINT ( 'NONE',  ( -8.000000000000007105, 2.299999999999996270, 10.90000000000000036 ) ) ;
#79 = ORIENTED_EDGE ( 'NONE', *, *, #599, .F. ) ;
#80 = ADVANCED_FACE ( 'NONE', ( #76 ), #510, .F. ) ;
#81 = EDGE_CURVE ( 'NONE', #376, #624, #374, .T. ) ;
#82 = COLOUR_RGB ( '',0.6980392156862744724, 0.6980392156862744724, 0.6980392156862744724 ) ;
#83 = LINE ( 'NONE', #389, #1 ) ;
#84 = CARTESIAN_POINT ( 'NONE',  ( -13.00000000000000533, 33.31370849898470965, 16.00000000000000000 ) ) ;
#85 = CLOSED_SHELL ( 'NONE', ( #409, #80, #561, #550, #521, #496, #108, #630, #615, #448, #566, #357, #20, #258, #415, #300, #625, #75, #604, #187 ) ) ;
#86 = DIRECTION ( 'NONE',  ( 1.000000000000000000, 0.000000000000000000, 0.000000000000000000 ) ) ;
#87 = ORIENTED_EDGE ( 'NONE', *, *, #677, .F. ) ;
#88 = DIRECTION ( 'NONE',  ( 1.000000000000000000, 0.000000000000000000, 0.000000000000000000 ) ) ;
#89 = EDGE_CURVE ( 'NONE', #330, #349, #127, .T. ) ;
#90 = CIRCLE ( 'NONE', #288, 8.000000000000000000 ) ;
#91 = LINE ( 'NONE', #148, #427 ) ;
#92 = ORIENTED_EDGE ( 'NONE', *, *, #125, .F. ) ;
#93 = EDGE_CURVE ( 'NONE', #349, #384, #567, .T. ) ;
#94 = DIRECTION ( 'NONE',  ( -0.000000000000000000, -0.000000000000000000, -1.000000000000000000 ) ) ;
#95 = ORIENTED_EDGE ( 'NONE', *, *, #93, .F. ) ;
#96 = DIRECTION ( 'NONE',  ( -0.000000000000000000, -0.000000000000000000, 1.000000000000000000 ) ) ;
#97 = DIRECTION ( 'NONE',  ( -0.000000000000000000, -0.000000000000000000, -1.000000000000000000 ) ) ;
#98 = CARTESIAN_POINT ( 'NONE',  ( -12.65685424949236548, 22.34314575050764162, 10.90000000000000036 ) ) ;
#99 = DIRECTION ( 'NONE',  ( -0.000000000000000000, -1.000000000000000000, -0.000000000000000000 ) ) ;
#100 = VECTOR ( 'NONE', #534, 1000.000000000000000 ) ;
#101 = ORIENTED_EDGE ( 'NONE', *, *, #626, .T. ) ;
#102 = ORIENTED_EDGE ( 'NONE', *, *, #219, .T. ) ;
#103 = EDGE_CURVE ( 'NONE', #68, #473, #91, .T. ) ;
#104 = ORIENTED_EDGE ( 'NONE', *, *, #280, .T. ) ;
#105 = CARTESIAN_POINT ( 'NONE',  ( -8.000000000000007105, 4.000000000000031086, 16.00000000000000000 ) ) ;
#106 = DIRECTION ( 'NONE',  ( -1.000000000000000000, 0.000000000000000000, 0.000000000000000000 ) ) ;
#107 = CARTESIAN_POINT ( 'NONE',  ( -7.000000000000013323, 16.68629150101522995, 16.00000000000000000 ) ) ;
#108 = ADVANCED_FACE ( 'NONE', ( #629 ), #382, .F. ) ;
#109 = DIRECTION ( 'NONE',  ( 0.000000000000000000, -1.000000000000000000, 0.000000000000000000 ) ) ;
#110 = CYLINDRICAL_SURFACE ( 'NONE', #571, 8.000000000000000000 ) ;
#111 = FACE_OUTER_BOUND ( 'NONE', #525, .T. ) ;
#112 = VECTOR ( 'NONE', #195, 1000.000000000000000 ) ;
#113 = ORIENTED_EDGE ( 'NONE', *, *, #431, .F. ) ;
#114 = ORIENTED_EDGE ( 'NONE', *, *, #70, .T. ) ;
#115 = CARTESIAN_POINT ( 'NONE',  ( -4.000000000000003553, 16.00000000000001421, 16.00000000000000000 ) ) ;
#116 = CARTESIAN_POINT ( 'NONE',  ( -4.000000000000003553, 14.29999999999999361, 16.00000000000000000 ) ) ;
#117 = CARTESIAN_POINT ( 'NONE',  ( -8.000000000000007105, 5.700000000000038369, 16.00000000000000000 ) ) ;
#118 = PRODUCT_RELATED_PRODUCT_CATEGORY ( 'part', '', ( #170 ) ) ;
#119 = VECTOR ( 'NONE', #670, 1000.000000000000000 ) ;
#120 =( NAMED_UNIT ( * ) SI_UNIT ( $, .STERADIAN. ) SOLID_ANGLE_UNIT ( ) );
#121 = PLANE ( 'NONE',  #390 ) ;
#122 = VERTEX_POINT ( 'NONE', #558 ) ;
#123 = DIRECTION ( 'NONE',  ( 0.000000000000000000, 0.000000000000000000, -1.000000000000000000 ) ) ;
#124 = DIRECTION ( 'NONE',  ( -0.000000000000000000, 0.000000000000000000, 1.000000000000000000 ) ) ;
#125 = EDGE_CURVE ( 'NONE', #52, #343, #290, .T. ) ;
#126 = LINE ( 'NONE', #543, #509 ) ;
#127 = LINE ( 'NONE', #665, #23 ) ;
#128 = VERTEX_POINT ( 'NONE', #560 ) ;
#129 = ORIENTED_EDGE ( 'NONE', *, *, #19, .T. ) ;
#131 = EDGE_CURVE ( 'NONE', #33, #649, #681, .T. ) ;
#130 = ADVANCED_BREP_SHAPE_REPRESENTATION ( '21631_03_191_rotary support rod 6', ( #583, #564 ), #312 ) ;
#132 = CARTESIAN_POINT ( 'NONE',  ( -7.343145750507652281, 27.65685424949230153, 10.90000000000000036 ) ) ;
#133 =( GEOMETRIC_REPRESENTATION_CONTEXT ( 3 ) GLOBAL_UNCERTAINTY_ASSIGNED_CONTEXT ( ( #627 ) ) GLOBAL_UNIT_ASSIGNED_CONTEXT ( ( #590, #341, #120 ) ) REPRESENTATION_CONTEXT ( 'NONE', 'WORKASPACE' ) );
#134 = CIRCLE ( 'NONE', #592, 2.500000000000002220 ) ;
#135 = VERTEX_POINT ( 'NONE', #672 ) ;
#136 = CARTESIAN_POINT ( 'NONE',  ( -7.343145750507650504, 27.65685424949230153, -14.14213562373088706 ) ) ;
#137 = EDGE_LOOP ( 'NONE', ( #311, #173, #79, #423 ) ) ;
#138 = DIRECTION ( 'NONE',  ( -0.000000000000000000, -0.000000000000000000, -1.000000000000000000 ) ) ;
#139 = STYLED_ITEM ( 'NONE', ( #171 ), #583 ) ;
#140 = DIRECTION ( 'NONE',  ( 0.000000000000000000, -0.000000000000000000, 1.000000000000000000 ) ) ;
#141 = EDGE_CURVE ( 'NONE', #649, #339, #247, .T. ) ;
#142 = CARTESIAN_POINT ( 'NONE',  ( -15.00000000000001421, 20.00000000000001776, -14.14213562373088706 ) ) ;
#143 = PRODUCT_DEFINITION ( 'UNKNOWN', '', #482, #322 ) ;
#144 = LINE ( 'NONE', #136, #74 ) ;
#145 = VECTOR ( 'NONE', #245, 1000.000000000000000 ) ;
#146 = ORIENTED_EDGE ( 'NONE', *, *, #361, .T. ) ;
#147 = ORIENTED_EDGE ( 'NONE', *, *, #28, .T. ) ;
#148 = CARTESIAN_POINT ( 'NONE',  ( -4.000000000000003553, 17.70000000000004903, 16.00000000000000000 ) ) ;
#149 = CARTESIAN_POINT ( 'NONE',  ( -15.00000000000001421, 20.00000000000001776, 10.90000000000000036 ) ) ;
#150 = SURFACE_STYLE_USAGE ( .BOTH. , #370 ) ;
#151 = AXIS2_PLACEMENT_3D ( 'NONE', #105, #576, #106 ) ;
#152 = CARTESIAN_POINT ( 'NONE',  ( -11.00000000000001066, 5.700000000000038369, 10.90000000000000036 ) ) ;
#153 = ORIENTED_EDGE ( 'NONE', *, *, #484, .T. ) ;
#154 = EDGE_CURVE ( 'NONE', #238, #135, #640, .T. ) ;
#155 = CARTESIAN_POINT ( 'NONE',  ( -4.000000000000003553, 14.29999999999999361, 10.90000000000000036 ) ) ;
#156 = ORIENTED_EDGE ( 'NONE', *, *, #460, .F. ) ;
#157 = DIRECTION ( 'NONE',  ( 0.000000000000000000, 1.000000000000000000, 0.000000000000000000 ) ) ;
#158 = CARTESIAN_POINT ( 'NONE',  ( 0.000000000000000000, 0.000000000000000000, 10.90000000000000036 ) ) ;
#159 = SURFACE_STYLE_FILL_AREA ( #190 ) ;
#160 = EDGE_LOOP ( 'NONE', ( #580, #594, #405, #388 ) ) ;
#161 = CARTESIAN_POINT ( 'NONE',  ( -8.000000000000007105, 2.299999999999996270, 16.00000000000000000 ) ) ;
#162 = ORIENTED_EDGE ( 'NONE', *, *, #361, .F. ) ;
#163 = AXIS2_PLACEMENT_3D ( 'NONE', #461, #203, #414 ) ;
#164 = EDGE_LOOP ( 'NONE', ( #436, #272, #488, #266 ) ) ;
#165 = DIRECTION ( 'NONE',  ( -0.000000000000000000, -0.000000000000000000, -1.000000000000000000 ) ) ;
#166 =( NAMED_UNIT ( * ) PLANE_ANGLE_UNIT ( ) SI_UNIT ( $, .RADIAN. ) );
#167 = AXIS2_PLACEMENT_3D ( 'NONE', #358, #551, #451 ) ;
#168 = PLANE ( 'NONE',  #513 ) ;
#169 = EDGE_CURVE ( 'NONE', #68, #33, #493, .T. ) ;
#170 = PRODUCT ( '21631_03_191_rotary support rod 6', '21631_03_191_rotary support rod 6', '', ( #385 ) ) ;
#171 = PRESENTATION_STYLE_ASSIGNMENT (( #150 ) ) ;
#172 = CIRCLE ( 'NONE', #202, 1.700000000000027933 ) ;
#173 = ORIENTED_EDGE ( 'NONE', *, *, #687, .F. ) ;
#174 = ORIENTED_EDGE ( 'NONE', *, *, #687, .T. ) ;
#175 = DIRECTION ( 'NONE',  ( 0.000000000000000000, 0.000000000000000000, 1.000000000000000000 ) ) ;
#176 = AXIS2_PLACEMENT_3D ( 'NONE', #379, #4, #54 ) ;
#177 = EDGE_CURVE ( 'NONE', #470, #122, #364, .T. ) ;
#178 = CIRCLE ( 'NONE', #606, 1.700000000000027933 ) ;
#179 = ORIENTED_EDGE ( 'NONE', *, *, #251, .T. ) ;
#180 = AXIS2_PLACEMENT_3D ( 'NONE', #73, #660, #400 ) ;
#181 = EDGE_LOOP ( 'NONE', ( #232, #407, #472, #259 ) ) ;
#182 = VERTEX_POINT ( 'NONE', #27 ) ;
#183 = CARTESIAN_POINT ( 'NONE',  ( -15.00000000000001421, 1.387778780781445676E-14, 10.90000000000000036 ) ) ;
#184 = PLANE ( 'NONE',  #688 ) ;
#185 = MECHANICAL_DESIGN_GEOMETRIC_PRESENTATION_REPRESENTATION (  '', ( #541 ), #133 ) ;
#186 = VECTOR ( 'NONE', #325, 1000.000000000000000 ) ;
#187 = ADVANCED_FACE ( 'NONE', ( #230 ), #319, .F. ) ;
#188 = FACE_OUTER_BOUND ( 'NONE', #676, .T. ) ;
#189 = ORIENTED_EDGE ( 'NONE', *, *, #663, .F. ) ;
#190 = FILL_AREA_STYLE ('',( #6 ) ) ;
#191 = ORIENTED_EDGE ( 'NONE', *, *, #536, .T. ) ;
#192 = CARTESIAN_POINT ( 'NONE',  ( -4.000000000000003553, 14.29999999999999361, 10.90000000000000036 ) ) ;
#193 = DIRECTION ( 'NONE',  ( -0.000000000000000000, 0.000000000000000000, 1.000000000000000000 ) ) ;
#194 = CARTESIAN_POINT ( 'NONE',  ( -8.000000000000007105, 4.000000000000031086, 0.000000000000000000 ) ) ;
#195 = DIRECTION ( 'NONE',  ( -0.000000000000000000, -0.000000000000000000, -1.000000000000000000 ) ) ;
#196 = LINE ( 'NONE', #40, #31 ) ;
#197 = EDGE_LOOP ( 'NONE', ( #548, #292, #32, #129, #191, #25, #102, #666 ) ) ;
#198 = VERTEX_POINT ( 'NONE', #152 ) ;
#199 = DIRECTION ( 'NONE',  ( -0.000000000000000000, -0.000000000000000000, -1.000000000000000000 ) ) ;
#200 = ORIENTED_EDGE ( 'NONE', *, *, #545, .F. ) ;
#201 = DIRECTION ( 'NONE',  ( -0.000000000000000000, -0.000000000000000000, -1.000000000000000000 ) ) ;
#202 = AXIS2_PLACEMENT_3D ( 'NONE', #11, #12, #65 ) ;
#203 = DIRECTION ( 'NONE',  ( 0.000000000000000000, 0.000000000000000000, 1.000000000000000000 ) ) ;
#204 = LINE ( 'NONE', #149, #539 ) ;
#205 = EDGE_CURVE ( 'NONE', #384, #182, #134, .T. ) ;
#206 = DIRECTION ( 'NONE',  ( -0.7071067811865512365, -0.7071067811865439090, 0.000000000000000000 ) ) ;
#207 = VECTOR ( 'NONE', #486, 1000.000000000000000 ) ;
#208 = VERTEX_POINT ( 'NONE', #368 ) ;
#209 = ORIENTED_EDGE ( 'NONE', *, *, #491, .T. ) ;
#210 = CARTESIAN_POINT ( 'NONE',  ( -7.000000000000006217, 17.70000000000004903, 16.00000000000000000 ) ) ;
#211 = DIRECTION ( 'NONE',  ( 1.000000000000000000, -0.000000000000000000, -0.000000000000000000 ) ) ;
#212 = DIRECTION ( 'NONE',  ( -0.000000000000000000, 0.000000000000000000, 1.000000000000000000 ) ) ;
#213 = DIRECTION ( 'NONE',  ( -0.000000000000000000, 0.000000000000000000, 1.000000000000000000 ) ) ;
#214 = AXIS2_PLACEMENT_3D ( 'NONE', #468, #157, #634 ) ;
#215 = LINE ( 'NONE', #39, #373 ) ;
#216 = FACE_OUTER_BOUND ( 'NONE', #137, .T. ) ;
#217 = DIRECTION ( 'NONE',  ( 0.000000000000000000, -0.000000000000000000, 1.000000000000000000 ) ) ;
#218 = VERTEX_POINT ( 'NONE', #617 ) ;
#219 = EDGE_CURVE ( 'NONE', #231, #429, #620, .T. ) ;
#220 = PRODUCT_DEFINITION_SHAPE ( 'NONE', 'NONE',  #143 ) ;
#221 = ORIENTED_EDGE ( 'NONE', *, *, #689, .F. ) ;
#222 = ORIENTED_EDGE ( 'NONE', *, *, #81, .F. ) ;
#223 = AXIS2_PLACEMENT_3D ( 'NONE', #291, #398, #654 ) ;
#224 = DIRECTION ( 'NONE',  ( -0.000000000000000000, 0.000000000000000000, 1.000000000000000000 ) ) ;
#225 = EDGE_CURVE ( 'NONE', #362, #601, #301, .T. ) ;
#226 = DIRECTION ( 'NONE',  ( 0.000000000000000000, -0.000000000000000000, 1.000000000000000000 ) ) ;
#227 = CIRCLE ( 'NONE', #439, 1.700000000000027933 ) ;
#228 = DIRECTION ( 'NONE',  ( 1.000000000000000000, 0.000000000000000000, 0.000000000000000000 ) ) ;
#229 = CIRCLE ( 'NONE', #180, 1.700000000000021050 ) ;
#230 = FACE_OUTER_BOUND ( 'NONE', #9, .T. ) ;
#231 = VERTEX_POINT ( 'NONE', #657 ) ;
#232 = ORIENTED_EDGE ( 'NONE', *, *, #103, .F. ) ;
#233 = CARTESIAN_POINT ( 'NONE',  ( -7.000000000000006217, 17.70000000000004192, 0.000000000000000000 ) ) ;
#234 = EDGE_CURVE ( 'NONE', #473, #649, #43, .T. ) ;
#235 = DIRECTION ( 'NONE',  ( -0.000000000000000000, -0.000000000000000000, -1.000000000000000000 ) ) ;
#236 = CARTESIAN_POINT ( 'NONE',  ( -11.00000000000001066, 2.299999999999996270, 16.00000000000000000 ) ) ;
#237 = VECTOR ( 'NONE', #404, 1000.000000000000000 ) ;
#238 = VERTEX_POINT ( 'NONE', #242 ) ;
#239 = ORIENTED_EDGE ( 'NONE', *, *, #653, .F. ) ;
#240 = CARTESIAN_POINT ( 'NONE',  ( -7.000000000000006217, 17.70000000000004192, 10.90000000000000036 ) ) ;
#241 = ORIENTED_EDGE ( 'NONE', *, *, #305, .F. ) ;
#242 = CARTESIAN_POINT ( 'NONE',  ( -15.00000000000001421, 16.68629150101522995, 10.90000000000000036 ) ) ;
#243 = DIRECTION ( 'NONE',  ( -0.000000000000000000, 0.000000000000000000, -1.000000000000000000 ) ) ;
#244 = DIRECTION ( 'NONE',  ( -0.000000000000000000, -0.000000000000000000, -1.000000000000000000 ) ) ;
#245 = DIRECTION ( 'NONE',  ( -1.000000000000000000, -0.000000000000000000, -0.000000000000000000 ) ) ;
#246 = FACE_OUTER_BOUND ( 'NONE', #344, .T. ) ;
#247 = CIRCLE ( 'NONE', #554, 1.700000000000027933 ) ;
#248 = AXIS2_PLACEMENT_3D ( 'NONE', #622, #512, #605 ) ;
#249 = ORIENTED_EDGE ( 'NONE', *, *, #177, .T. ) ;
#250 = VERTEX_POINT ( 'NONE', #346 ) ;
#251 = EDGE_CURVE ( 'NONE', #376, #67, #60, .T. ) ;
#252 = APPLICATION_PROTOCOL_DEFINITION ( 'draft international standard', 'automotive_design', 1998, #61 ) ;
#253 = CARTESIAN_POINT ( 'NONE',  ( 0.000000000000000000, 0.000000000000000000, 0.000000000000000000 ) ) ;
#254 = LINE ( 'NONE', #117, #401 ) ;
#255 = FACE_OUTER_BOUND ( 'NONE', #669, .T. ) ;
#256 = DIRECTION ( 'NONE',  ( -0.000000000000000000, -0.000000000000000000, -1.000000000000000000 ) ) ;
#257 = EDGE_LOOP ( 'NONE', ( #611, #686, #18, #270, #480 ) ) ;
#258 = ADVANCED_FACE ( 'NONE', ( #479 ), #184, .F. ) ;
#259 = ORIENTED_EDGE ( 'NONE', *, *, #234, .F. ) ;
#260 = DIRECTION ( 'NONE',  ( 1.000000000000000000, 0.000000000000000000, 0.000000000000000000 ) ) ;
#261 = CARTESIAN_POINT ( 'NONE',  ( -15.00000000000001421, 16.68629150101522995, 0.000000000000000000 ) ) ;
#262 = LINE ( 'NONE', #684, #309 ) ;
#263 = FACE_BOUND ( 'NONE', #257, .T. ) ;
#264 = ORIENTED_EDGE ( 'NONE', *, *, #572, .T. ) ;
#265 = CARTESIAN_POINT ( 'NONE',  ( -7.000000000000006217, 17.70000000000004192, 16.00000000000000000 ) ) ;
#266 = ORIENTED_EDGE ( 'NONE', *, *, #28, .F. ) ;
#267 = DIRECTION ( 'NONE',  ( 0.000000000000000000, 0.000000000000000000, 1.000000000000000000 ) ) ;
#268 = DIRECTION ( 'NONE',  ( 1.000000000000000000, 0.000000000000000000, 0.000000000000000000 ) ) ;
#269 = VECTOR ( 'NONE', #345, 1000.000000000000000 ) ;
#270 = ORIENTED_EDGE ( 'NONE', *, *, #141, .T. ) ;
#271 =( NAMED_UNIT ( * ) SI_UNIT ( $, .STERADIAN. ) SOLID_ANGLE_UNIT ( ) );
#272 = ORIENTED_EDGE ( 'NONE', *, *, #614, .T. ) ;
#273 =( LENGTH_UNIT ( ) NAMED_UNIT ( * ) SI_UNIT ( .MILLI., .METRE. ) );
#274 = FACE_OUTER_BOUND ( 'NONE', #160, .T. ) ;
#275 = EDGE_LOOP ( 'NONE', ( #582, #632, #36, #569 ) ) ;
#276 = DIRECTION ( 'NONE',  ( -0.000000000000000000, 1.000000000000000000, -0.000000000000000000 ) ) ;
#277 = VERTEX_POINT ( 'NONE', #597 ) ;
#278 = ORIENTED_EDGE ( 'NONE', *, *, #599, .T. ) ;
#279 = AXIS2_PLACEMENT_3D ( 'NONE', #47, #563, #498 ) ;
#280 = EDGE_CURVE ( 'NONE', #231, #437, #547, .T. ) ;
#281 = FACE_OUTER_BOUND ( 'NONE', #683, .T. ) ;
#282 = ORIENTED_EDGE ( 'NONE', *, *, #219, .F. ) ;
#283 = ORIENTED_EDGE ( 'NONE', *, *, #491, .F. ) ;
#284 = EDGE_CURVE ( 'NONE', #353, #128, #587, .T. ) ;
#285 = DIRECTION ( 'NONE',  ( 0.000000000000000000, 0.000000000000000000, 1.000000000000000000 ) ) ;
#286 = SHAPE_DEFINITION_REPRESENTATION ( #220, #130 ) ;
#287 = CARTESIAN_POINT ( 'NONE',  ( -15.00000000000001421, 1.387778780781445676E-14, 16.00000000000000000 ) ) ;
#288 = AXIS2_PLACEMENT_3D ( 'NONE', #46, #212, #317 ) ;
#289 = CYLINDRICAL_SURFACE ( 'NONE', #151, 1.700000000000021050 ) ;
#290 = CIRCLE ( 'NONE', #490, 1.700000000000021050 ) ;
#291 = CARTESIAN_POINT ( 'NONE',  ( -5.000000000000004441, 20.00000000000001776, 16.00000000000000000 ) ) ;
#292 = ORIENTED_EDGE ( 'NONE', *, *, #371, .T. ) ;
#293 = EDGE_CURVE ( 'NONE', #429, #353, #421, .T. ) ;
#294 = CARTESIAN_POINT ( 'NONE',  ( 0.000000000000000000, 0.000000000000000000, 16.00000000000000000 ) ) ;
#295 = CARTESIAN_POINT ( 'NONE',  ( -8.700000000000034817, 16.00000000000001421, 16.00000000000000000 ) ) ;
#296 = DIRECTION ( 'NONE',  ( 0.000000000000000000, 0.000000000000000000, 1.000000000000000000 ) ) ;
#297 = CARTESIAN_POINT ( 'NONE',  ( -8.000000000000007105, 4.000000000000031086, 10.90000000000000036 ) ) ;
#298 = UNCERTAINTY_MEASURE_WITH_UNIT (LENGTH_MEASURE( 1.000000000000000082E-05 ), #334, 'distance_accuracy_value', 'NONE');
#299 = LINE ( 'NONE', #192, #348 ) ;
#300 = ADVANCED_FACE ( 'NONE', ( #188 ), #69, .F. ) ;
#301 = LINE ( 'NONE', #116, #464 ) ;
#302 = EDGE_LOOP ( 'NONE', ( #239, #114, #495, #568 ) ) ;
#303 = CARTESIAN_POINT ( 'NONE',  ( -11.00000000000001066, 5.700000000000038369, 16.00000000000000000 ) ) ;
#304 = VERTEX_POINT ( 'NONE', #354 ) ;
#305 = EDGE_CURVE ( 'NONE', #198, #277, #126, .T. ) ;
#306 = CARTESIAN_POINT ( 'NONE',  ( -15.00000000000001421, 1.387778780781445676E-14, 10.90000000000000036 ) ) ;
#307 = CARTESIAN_POINT ( 'NONE',  ( -7.000000000000006217, 16.00000000000001421, 0.000000000000000000 ) ) ;
#308 = FACE_OUTER_BOUND ( 'NONE', #164, .T. ) ;
#309 = VECTOR ( 'NONE', #97, 1000.000000000000000 ) ;
#310 = DIRECTION ( 'NONE',  ( -0.7071067811865512365, -0.7071067811865439090, 0.000000000000000000 ) ) ;
#311 = ORIENTED_EDGE ( 'NONE', *, *, #371, .F. ) ;
#312 =( GEOMETRIC_REPRESENTATION_CONTEXT ( 3 ) GLOBAL_UNCERTAINTY_ASSIGNED_CONTEXT ( ( #298 ) ) GLOBAL_UNIT_ASSIGNED_CONTEXT ( ( #334, #166, #271 ) ) REPRESENTATION_CONTEXT ( 'NONE', 'WORKASPACE' ) );
#313 = ORIENTED_EDGE ( 'NONE', *, *, #614, .F. ) ;
#314 = DIRECTION ( 'NONE',  ( -0.000000000000000000, 0.000000000000000000, 1.000000000000000000 ) ) ;
#315 = ORIENTED_EDGE ( 'NONE', *, *, #579, .T. ) ;
#316 = DIRECTION ( 'NONE',  ( -1.000000000000000000, 1.734723475976807094E-15, 0.000000000000000000 ) ) ;
#317 = DIRECTION ( 'NONE',  ( 1.000000000000000000, 0.000000000000000000, 0.000000000000000000 ) ) ;
#318 = CIRCLE ( 'NONE', #447, 1.700000000000021050 ) ;
#319 = CYLINDRICAL_SURFACE ( 'NONE', #651, 8.000000000000000000 ) ;
#320 = ORIENTED_EDGE ( 'NONE', *, *, #103, .T. ) ;
#321 = DIRECTION ( 'NONE',  ( -0.000000000000000000, -0.000000000000000000, -1.000000000000000000 ) ) ;
#322 = PRODUCT_DEFINITION_CONTEXT ( 'detailed design', #61, 'design' ) ;
#323 = ORIENTED_EDGE ( 'NONE', *, *, #545, .T. ) ;
#324 = CARTESIAN_POINT ( 'NONE',  ( -5.000000000000004441, 65.00000000000000000, 16.00000000000000000 ) ) ;
#325 = DIRECTION ( 'NONE',  ( -0.000000000000000000, -0.000000000000000000, -1.000000000000000000 ) ) ;
#326 = EDGE_CURVE ( 'NONE', #470, #339, #523, .T. ) ;
#327 = CIRCLE ( 'NONE', #13, 1.700000000000027933 ) ;
#328 = EDGE_LOOP ( 'NONE', ( #313, #92, #556, #77, #399 ) ) ;
#329 = CARTESIAN_POINT ( 'NONE',  ( -4.000000000000003553, 14.29999999999999361, 0.000000000000000000 ) ) ;
#330 = VERTEX_POINT ( 'NONE', #393 ) ;
#331 = ORIENTED_EDGE ( 'NONE', *, *, #559, .T. ) ;
#332 = CARTESIAN_POINT ( 'NONE',  ( -8.000000000000007105, 2.299999999999996270, 10.90000000000000036 ) ) ;
#333 = EDGE_CURVE ( 'NONE', #198, #52, #229, .T. ) ;
#334 =( LENGTH_UNIT ( ) NAMED_UNIT ( * ) SI_UNIT ( .MILLI., .METRE. ) );
#335 = FACE_OUTER_BOUND ( 'NONE', #531, .T. ) ;
#336 = APPLICATION_PROTOCOL_DEFINITION ( 'draft international standard', 'automotive_design', 1998, #533 ) ;
#337 = DIRECTION ( 'NONE',  ( 0.000000000000000000, 1.000000000000000000, -0.000000000000000000 ) ) ;
#338 = ORIENTED_EDGE ( 'NONE', *, *, #205, .F. ) ;
#339 = VERTEX_POINT ( 'NONE', #598 ) ;
#340 =( GEOMETRIC_REPRESENTATION_CONTEXT ( 3 ) GLOBAL_UNCERTAINTY_ASSIGNED_CONTEXT ( ( #662 ) ) GLOBAL_UNIT_ASSIGNED_CONTEXT ( ( #273, #631, #562 ) ) REPRESENTATION_CONTEXT ( 'NONE', 'WORKASPACE' ) );
#341 =( NAMED_UNIT ( * ) PLANE_ANGLE_UNIT ( ) SI_UNIT ( $, .RADIAN. ) );
#342 = DIRECTION ( 'NONE',  ( -0.000000000000000000, -0.000000000000000000, -1.000000000000000000 ) ) ;
#343 = VERTEX_POINT ( 'NONE', #21 ) ;
#344 = EDGE_LOOP ( 'NONE', ( #222, #179, #359, #659 ) ) ;
#345 = DIRECTION ( 'NONE',  ( 1.000000000000000000, 0.000000000000000000, 0.000000000000000000 ) ) ;
#346 = CARTESIAN_POINT ( 'NONE',  ( -7.343145750507651393, 27.65685424949230153, 0.000000000000000000 ) ) ;
#347 = AXIS2_PLACEMENT_3D ( 'NONE', #210, #424, #668 ) ;
#348 = VECTOR ( 'NONE', #268, 1000.000000000000000 ) ;
#349 = VERTEX_POINT ( 'NONE', #253 ) ;
#350 = DIRECTION ( 'NONE',  ( 1.000000000000000000, 0.000000000000000000, 0.000000000000000000 ) ) ;
#351 = ORIENTED_EDGE ( 'NONE', *, *, #225, .T. ) ;
#352 = EDGE_CURVE ( 'NONE', #353, #250, #144, .T. ) ;
#353 = VERTEX_POINT ( 'NONE', #132 ) ;
#354 = CARTESIAN_POINT ( 'NONE',  ( -8.000000000000007105, 5.700000000000038369, 0.000000000000000000 ) ) ;
#355 = CARTESIAN_POINT ( 'NONE',  ( -4.000000000000003553, 16.00000000000001421, 10.90000000000000036 ) ) ;
#356 = DIRECTION ( 'NONE',  ( -0.7071067811865439090, 0.7071067811865512365, 0.000000000000000000 ) ) ;
#357 = ADVANCED_FACE ( 'NONE', ( #111 ), #42, .T. ) ;
#358 = CARTESIAN_POINT ( 'NONE',  ( -7.000000000000006217, 16.00000000000001421, 16.00000000000000000 ) ) ;
#359 = ORIENTED_EDGE ( 'NONE', *, *, #653, .T. ) ;
#360 = ORIENTED_EDGE ( 'NONE', *, *, #395, .F. ) ;
#361 = EDGE_CURVE ( 'NONE', #122, #511, #619, .T. ) ;
#362 = VERTEX_POINT ( 'NONE', #155 ) ;
#363 = LINE ( 'NONE', #581, #59 ) ;
#364 = CIRCLE ( 'NONE', #673, 1.700000000000027933 ) ;
#365 = ORIENTED_EDGE ( 'NONE', *, *, #125, .T. ) ;
#366 = CARTESIAN_POINT ( 'NONE',  ( -7.000000000000006217, 16.00000000000001421, 10.90000000000000036 ) ) ;
#367 = DIRECTION ( 'NONE',  ( 0.000000000000000000, -1.000000000000000000, 0.000000000000000000 ) ) ;
#368 = CARTESIAN_POINT ( 'NONE',  ( 0.000000000000000000, 1.387778780781445676E-14, 10.90000000000000036 ) ) ;
#369 = PLANE ( 'NONE',  #417 ) ;
#370 = SURFACE_SIDE_STYLE ('',( #469 ) ) ;
#371 = EDGE_CURVE ( 'NONE', #128, #238, #90, .T. ) ;
#372 = CARTESIAN_POINT ( 'NONE',  ( 0.000000000000000000, 65.00000000000000000, 0.000000000000000000 ) ) ;
#373 = VECTOR ( 'NONE', #211, 1000.000000000000000 ) ;
#374 = LINE ( 'NONE', #26, #8 ) ;
#375 = ORIENTED_EDGE ( 'NONE', *, *, #484, .F. ) ;
#376 = VERTEX_POINT ( 'NONE', #78 ) ;
#377 = ORIENTED_EDGE ( 'NONE', *, *, #431, .T. ) ;
#378 = DIRECTION ( 'NONE',  ( 1.000000000000000000, 0.000000000000000000, 0.000000000000000000 ) ) ;
#379 = CARTESIAN_POINT ( 'NONE',  ( -7.000000000000013323, 16.68629150101522995, 0.000000000000000000 ) ) ;
#380 = CARTESIAN_POINT ( 'NONE',  ( -5.000000000000004441, 20.00000000000001776, 0.000000000000000000 ) ) ;
#381 = LINE ( 'NONE', #48, #186 ) ;
#382 = CYLINDRICAL_SURFACE ( 'NONE', #635, 1.700000000000021050 ) ;
#383 = DIRECTION ( 'NONE',  ( 1.000000000000000000, 0.000000000000000000, 0.000000000000000000 ) ) ;
#384 = VERTEX_POINT ( 'NONE', #372 ) ;
#385 = PRODUCT_CONTEXT ( 'NONE', #533, 'mechanical' ) ;
#386 = EDGE_CURVE ( 'NONE', #238, #466, #204, .T. ) ;
#387 = LINE ( 'NONE', #287, #100 ) ;
#388 = ORIENTED_EDGE ( 'NONE', *, *, #626, .F. ) ;
#389 = CARTESIAN_POINT ( 'NONE',  ( -11.00000000000001066, 5.700000000000038369, 0.000000000000000000 ) ) ;
#390 = AXIS2_PLACEMENT_3D ( 'NONE', #444, #243, #595 ) ;
#391 = DIRECTION ( 'NONE',  ( -0.7071067811865512365, -0.7071067811865439090, -0.000000000000000000 ) ) ;
#392 = AXIS2_PLACEMENT_3D ( 'NONE', #297, #124, #350 ) ;
#393 = CARTESIAN_POINT ( 'NONE',  ( -15.00000000000001421, 1.387778780781445676E-14, 0.000000000000000000 ) ) ;
#394 = FACE_OUTER_BOUND ( 'NONE', #302, .T. ) ;
#395 = EDGE_CURVE ( 'NONE', #122, #362, #299, .T. ) ;
#396 = LINE ( 'NONE', #183, #269 ) ;
#397 = ORIENTED_EDGE ( 'NONE', *, *, #205, .T. ) ;
#398 = DIRECTION ( 'NONE',  ( 1.000000000000000000, 0.000000000000000000, 0.000000000000000000 ) ) ;
#399 = ORIENTED_EDGE ( 'NONE', *, *, #251, .F. ) ;
#400 = DIRECTION ( 'NONE',  ( 1.000000000000000000, 0.000000000000000000, 0.000000000000000000 ) ) ;
#401 = VECTOR ( 'NONE', #644, 1000.000000000000000 ) ;
#402 = VECTOR ( 'NONE', #453, 1000.000000000000000 ) ;
#403 = CARTESIAN_POINT ( 'NONE',  ( -7.000000000000006217, 14.29999999999999361, 16.00000000000000000 ) ) ;
#404 = DIRECTION ( 'NONE',  ( 0.000000000000000000, 1.000000000000000000, 0.000000000000000000 ) ) ;
#405 = ORIENTED_EDGE ( 'NONE', *, *, #89, .T. ) ;
#406 = EDGE_CURVE ( 'NONE', #437, #384, #262, .T. ) ;
#407 = ORIENTED_EDGE ( 'NONE', *, *, #169, .T. ) ;
#408 = DIRECTION ( 'NONE',  ( 0.000000000000000000, 0.000000000000000000, 1.000000000000000000 ) ) ;
#409 = ADVANCED_FACE ( 'NONE', ( #15 ), #463, .F. ) ;
#410 = DIRECTION ( 'NONE',  ( 1.000000000000000000, 0.000000000000000000, 0.000000000000000000 ) ) ;
#411 = PRESENTATION_STYLE_ASSIGNMENT (( #435 ) ) ;
#412 = FACE_OUTER_BOUND ( 'NONE', #456, .T. ) ;
#413 = ORIENTED_EDGE ( 'NONE', *, *, #352, .T. ) ;
#414 = DIRECTION ( 'NONE',  ( 1.000000000000000000, 0.000000000000000000, 0.000000000000000000 ) ) ;
#415 = ADVANCED_FACE ( 'NONE', ( #335 ), #674, .T. ) ;
#416 = CARTESIAN_POINT ( 'NONE',  ( -4.000000000000003553, 14.29999999999999361, 16.00000000000000000 ) ) ;
#417 = AXIS2_PLACEMENT_3D ( 'NONE', #303, #109, #475 ) ;
#418 = DIRECTION ( 'NONE',  ( 1.000000000000000000, 0.000000000000000000, 0.000000000000000000 ) ) ;
#419 = DIRECTION ( 'NONE',  ( 0.000000000000000000, 0.000000000000000000, 1.000000000000000000 ) ) ;
#420 = CARTESIAN_POINT ( 'NONE',  ( -8.700000000000034817, 16.00000000000001421, 10.90000000000000036 ) ) ;
#421 = CIRCLE ( 'NONE', #30, 8.000000000000000000 ) ;
#422 = ORIENTED_EDGE ( 'NONE', *, *, #169, .F. ) ;
#423 = ORIENTED_EDGE ( 'NONE', *, *, #154, .F. ) ;
#424 = DIRECTION ( 'NONE',  ( 0.000000000000000000, -1.000000000000000000, 0.000000000000000000 ) ) ;
#425 = CARTESIAN_POINT ( 'NONE',  ( -15.00000000000001421, 1.387778780781445676E-14, 16.00000000000000000 ) ) ;
#426 = DIRECTION ( 'NONE',  ( 0.000000000000000000, 0.000000000000000000, 1.000000000000000000 ) ) ;
#427 = VECTOR ( 'NONE', #256, 1000.000000000000000 ) ;
#428 = AXIS2_PLACEMENT_3D ( 'NONE', #416, #514, #419 ) ;
#429 = VERTEX_POINT ( 'NONE', #679 ) ;
#430 = ORIENTED_EDGE ( 'NONE', *, *, #34, .F. ) ;
#431 = EDGE_CURVE ( 'NONE', #231, #182, #546, .T. ) ;
#432 = DIRECTION ( 'NONE',  ( 0.000000000000000000, 0.000000000000000000, 1.000000000000000000 ) ) ;
#433 = CYLINDRICAL_SURFACE ( 'NONE', #544, 1.700000000000027933 ) ;
#434 = LINE ( 'NONE', #485, #515 ) ;
#435 = SURFACE_STYLE_USAGE ( .BOTH. , #602 ) ;
#436 = ORIENTED_EDGE ( 'NONE', *, *, #55, .F. ) ;
#437 = VERTEX_POINT ( 'NONE', #680 ) ;
#438 = CARTESIAN_POINT ( 'NONE',  ( -4.000000000000003553, 17.70000000000004903, 10.90000000000000036 ) ) ;
#439 = AXIS2_PLACEMENT_3D ( 'NONE', #366, #314, #418 ) ;
#440 = FACE_OUTER_BOUND ( 'NONE', #197, .T. ) ;
#441 = COLOUR_RGB ( '',0.6980392156862744724, 0.6980392156862744724, 0.6980392156862744724 ) ;
#442 = CARTESIAN_POINT ( 'NONE',  ( -7.000000000000006217, 17.70000000000004903, 0.000000000000000000 ) ) ;
#443 = ORIENTED_EDGE ( 'NONE', *, *, #579, .F. ) ;
#444 = CARTESIAN_POINT ( 'NONE',  ( -2.500000000000002220, 65.00000000000000000, 0.000000000000000000 ) ) ;
#445 = DIRECTION ( 'NONE',  ( -0.000000000000000000, -0.000000000000000000, -1.000000000000000000 ) ) ;
#446 = DIRECTION ( 'NONE',  ( -1.000000000000000000, 0.000000000000000000, 0.000000000000000000 ) ) ;
#447 = AXIS2_PLACEMENT_3D ( 'NONE', #194, #608, #86 ) ;
#448 = ADVANCED_FACE ( 'NONE', ( #637 ), #664, .T. ) ;
#449 = VECTOR ( 'NONE', #99, 1000.000000000000000 ) ;
#450 = VECTOR ( 'NONE', #391, 1000.000000000000000 ) ;
#451 = DIRECTION ( 'NONE',  ( -1.000000000000000000, 0.000000000000000000, 0.000000000000000000 ) ) ;
#452 = ORIENTED_EDGE ( 'NONE', *, *, #177, .F. ) ;
#453 = DIRECTION ( 'NONE',  ( 0.000000000000000000, 0.000000000000000000, -1.000000000000000000 ) ) ;
#454 = CIRCLE ( 'NONE', #176, 8.000000000000000000 ) ;
#455 = CARTESIAN_POINT ( 'NONE',  ( 0.000000000000000000, 0.000000000000000000, 0.000000000000000000 ) ) ;
#456 = EDGE_LOOP ( 'NONE', ( #44, #174, #457, #413 ) ) ;
#457 = ORIENTED_EDGE ( 'NONE', *, *, #284, .F. ) ;
#458 = EDGE_LOOP ( 'NONE', ( #648, #45, #331, #430 ) ) ;
#459 = DIRECTION ( 'NONE',  ( -1.000000000000000000, 0.000000000000000000, 0.000000000000000000 ) ) ;
#460 = EDGE_CURVE ( 'NONE', #250, #218, #196, .T. ) ;
#461 = CARTESIAN_POINT ( 'NONE',  ( -11.00000000000001066, 4.000000000000017764, 0.000000000000000000 ) ) ;
#462 = DIRECTION ( 'NONE',  ( -0.000000000000000000, -0.000000000000000000, -1.000000000000000000 ) ) ;
#463 = CYLINDRICAL_SURFACE ( 'NONE', #167, 1.700000000000027933 ) ;
#464 = VECTOR ( 'NONE', #235, 1000.000000000000000 ) ;
#465 = ORIENTED_EDGE ( 'NONE', *, *, #66, .F. ) ;
#466 = VERTEX_POINT ( 'NONE', #306 ) ;
#467 = CARTESIAN_POINT ( 'NONE',  ( -5.000000000000004441, 33.31370849898470965, 0.000000000000000000 ) ) ;
#468 = CARTESIAN_POINT ( 'NONE',  ( -5.000000000000004441, 0.000000000000000000, 16.00000000000000000 ) ) ;
#469 = SURFACE_STYLE_FILL_AREA ( #682 ) ;
#470 = VERTEX_POINT ( 'NONE', #420 ) ;
#471 = DIRECTION ( 'NONE',  ( 1.000000000000000000, 0.000000000000000000, 0.000000000000000000 ) ) ;
#472 = ORIENTED_EDGE ( 'NONE', *, *, #131, .T. ) ;
#473 = VERTEX_POINT ( 'NONE', #570 ) ;
#474 = DIRECTION ( 'NONE',  ( -0.000000000000000000, -1.000000000000000000, -0.000000000000000000 ) ) ;
#475 = DIRECTION ( 'NONE',  ( 0.000000000000000000, -0.000000000000000000, -1.000000000000000000 ) ) ;
#476 = FACE_BOUND ( 'NONE', #328, .T. ) ;
#477 = VECTOR ( 'NONE', #445, 1000.000000000000000 ) ;
#478 = CARTESIAN_POINT ( 'NONE',  ( -8.000000000000007105, 2.299999999999996270, 0.000000000000000000 ) ) ;
#479 = FACE_OUTER_BOUND ( 'NONE', #2, .T. ) ;
#480 = ORIENTED_EDGE ( 'NONE', *, *, #639, .T. ) ;
#481 = CARTESIAN_POINT ( 'NONE',  ( -2.500000000000002220, 65.00000000000000000, 0.000000000000000000 ) ) ;
#482 = PRODUCT_DEFINITION_FORMATION_WITH_SPECIFIED_SOURCE ( 'ANY', '', #170, .NOT_KNOWN. ) ;
#483 = ORIENTED_EDGE ( 'NONE', *, *, #66, .T. ) ;
#484 = EDGE_CURVE ( 'NONE', #277, #588, #655, .T. ) ;
#485 = CARTESIAN_POINT ( 'NONE',  ( -8.000000000000007105, 2.299999999999996270, 0.000000000000000000 ) ) ;
#486 = DIRECTION ( 'NONE',  ( -0.000000000000000000, -1.000000000000000000, -0.000000000000000000 ) ) ;
#487 = ORIENTED_EDGE ( 'NONE', *, *, #505, .T. ) ;
#488 = ORIENTED_EDGE ( 'NONE', *, *, #81, .T. ) ;
#489 = EDGE_LOOP ( 'NONE', ( #147, #264, #557, #153, #483 ) ) ;
#490 = AXIS2_PLACEMENT_3D ( 'NONE', #499, #193, #610 ) ;
#491 = EDGE_CURVE ( 'NONE', #362, #68, #327, .T. ) ;
#492 = VECTOR ( 'NONE', #321, 1000.000000000000000 ) ;
#493 = LINE ( 'NONE', #506, #119 ) ;
#494 = DIRECTION ( 'NONE',  ( 0.000000000000000000, -0.000000000000000000, -1.000000000000000000 ) ) ;
#495 = ORIENTED_EDGE ( 'NONE', *, *, #305, .T. ) ;
#496 = ADVANCED_FACE ( 'NONE', ( #394 ), #369, .T. ) ;
#497 = EDGE_LOOP ( 'NONE', ( #516, #249, #146, #667 ) ) ;
#498 = DIRECTION ( 'NONE',  ( 1.000000000000000000, 0.000000000000000000, 0.000000000000000000 ) ) ;
#499 = CARTESIAN_POINT ( 'NONE',  ( -11.00000000000001066, 4.000000000000017764, 10.90000000000000036 ) ) ;
#500 = CIRCLE ( 'NONE', #163, 1.700000000000021050 ) ;
#501 = ORIENTED_EDGE ( 'NONE', *, *, #406, .T. ) ;
#502 = VERTEX_POINT ( 'NONE', #467 ) ;
#503 = CARTESIAN_POINT ( 'NONE',  ( -7.000000000000006217, 16.00000000000001421, 10.90000000000000036 ) ) ;
#504 = ORIENTED_EDGE ( 'NONE', *, *, #505, .F. ) ;
#505 = EDGE_CURVE ( 'NONE', #52, #588, #381, .T. ) ;
#506 = CARTESIAN_POINT ( 'NONE',  ( -7.000000000000006217, 17.70000000000004903, 10.90000000000000036 ) ) ;
#507 = PLANE ( 'NONE',  #518 ) ;
#508 = LINE ( 'NONE', #98, #646 ) ;
#509 = VECTOR ( 'NONE', #244, 1000.000000000000000 ) ;
#510 = CYLINDRICAL_SURFACE ( 'NONE', #596, 1.700000000000021050 ) ;
#511 = VERTEX_POINT ( 'NONE', #526 ) ;
#512 = DIRECTION ( 'NONE',  ( -0.000000000000000000, -0.000000000000000000, -1.000000000000000000 ) ) ;
#513 = AXIS2_PLACEMENT_3D ( 'NONE', #425, #228, #522 ) ;
#514 = DIRECTION ( 'NONE',  ( 0.000000000000000000, 1.000000000000000000, -0.000000000000000000 ) ) ;
#515 = VECTOR ( 'NONE', #63, 1000.000000000000000 ) ;
#516 = ORIENTED_EDGE ( 'NONE', *, *, #326, .F. ) ;
#517 = ORIENTED_EDGE ( 'NONE', *, *, #57, .F. ) ;
#518 = AXIS2_PLACEMENT_3D ( 'NONE', #142, #356, #310 ) ;
#519 = CARTESIAN_POINT ( 'NONE',  ( -15.00000000000001421, 1.387778780781445676E-14, 0.000000000000000000 ) ) ;
#520 = PLANE ( 'NONE',  #645 ) ;
#521 = ADVANCED_FACE ( 'NONE', ( #246 ), #289, .F. ) ;
#522 = DIRECTION ( 'NONE',  ( 0.000000000000000000, 0.000000000000000000, -1.000000000000000000 ) ) ;
#523 = LINE ( 'NONE', #295, #477 ) ;
#524 = VECTOR ( 'NONE', #616, 1000.000000000000000 ) ;
#525 = EDGE_LOOP ( 'NONE', ( #162, #641, #351, #87 ) ) ;
#526 = CARTESIAN_POINT ( 'NONE',  ( -7.000000000000006217, 14.29999999999999361, 0.000000000000000000 ) ) ;
#527 = PLANE ( 'NONE',  #685 ) ;
#528 = DIRECTION ( 'NONE',  ( -1.000000000000000000, 0.000000000000000000, 0.000000000000000000 ) ) ;
#529 = VECTOR ( 'NONE', #643, 1000.000000000000000 ) ;
#530 = PRESENTATION_LAYER_ASSIGNMENT (  '', '', ( #139 ) ) ;
#531 = EDGE_LOOP ( 'NONE', ( #113, #104, #501, #397 ) ) ;
#532 = ORIENTED_EDGE ( 'NONE', *, *, #689, .T. ) ;
#533 = APPLICATION_CONTEXT ( 'automotive_design' ) ;
#534 = DIRECTION ( 'NONE',  ( -0.000000000000000000, -0.000000000000000000, -1.000000000000000000 ) ) ;
#535 = CARTESIAN_POINT ( 'NONE',  ( -13.00000000000000533, 33.31370849898470965, 10.90000000000000036 ) ) ;
#536 = EDGE_CURVE ( 'NONE', #208, #437, #363, .T. ) ;
#537 = DIRECTION ( 'NONE',  ( -1.000000000000000000, -0.000000000000000000, -0.000000000000000000 ) ) ;
#538 = CARTESIAN_POINT ( 'NONE',  ( -15.00000000000001421, 20.00000000000001776, 10.90000000000000036 ) ) ;
#539 = VECTOR ( 'NONE', #367, 1000.000000000000000 ) ;
#540 = FACE_BOUND ( 'NONE', #489, .T. ) ;
#541 = STYLED_ITEM ( 'NONE', ( #411 ), #130 ) ;
#542 = EDGE_LOOP ( 'NONE', ( #360, #452, #189, #422, #283 ) ) ;
#543 = CARTESIAN_POINT ( 'NONE',  ( -11.00000000000001066, 5.700000000000038369, 16.00000000000000000 ) ) ;
#544 = AXIS2_PLACEMENT_3D ( 'NONE', #5, #165, #3 ) ;
#545 = EDGE_CURVE ( 'NONE', #182, #502, #586, .T. ) ;
#546 = LINE ( 'NONE', #324, #492 ) ;
#547 = CIRCLE ( 'NONE', #612, 2.500000000000002220 ) ;
#548 = ORIENTED_EDGE ( 'NONE', *, *, #284, .T. ) ;
#549 = EDGE_LOOP ( 'NONE', ( #504, #365, #633, #465 ) ) ;
#550 = ADVANCED_FACE ( 'NONE', ( #274 ), #56, .F. ) ;
#551 = DIRECTION ( 'NONE',  ( -0.000000000000000000, -0.000000000000000000, -1.000000000000000000 ) ) ;
#552 = DIRECTION ( 'NONE',  ( -1.000000000000000000, 0.000000000000000000, 0.000000000000000000 ) ) ;
#553 = LINE ( 'NONE', #565, #577 ) ;
#554 = AXIS2_PLACEMENT_3D ( 'NONE', #307, #408, #410 ) ;
#555 = FACE_OUTER_BOUND ( 'NONE', #497, .T. ) ;
#556 = ORIENTED_EDGE ( 'NONE', *, *, #333, .F. ) ;
#557 = ORIENTED_EDGE ( 'NONE', *, *, #17, .T. ) ;
#558 = CARTESIAN_POINT ( 'NONE',  ( -7.000000000000006217, 14.29999999999999361, 10.90000000000000036 ) ) ;
#559 = EDGE_CURVE ( 'NONE', #135, #330, #600, .T. ) ;
#560 = CARTESIAN_POINT ( 'NONE',  ( -12.65685424949236548, 22.34314575050764162, 10.90000000000000036 ) ) ;
#561 = ADVANCED_FACE ( 'NONE', ( #609 ), #168, .F. ) ;
#562 =( NAMED_UNIT ( * ) SI_UNIT ( $, .STERADIAN. ) SOLID_ANGLE_UNIT ( ) );
#563 = DIRECTION ( 'NONE',  ( 0.000000000000000000, 0.000000000000000000, 1.000000000000000000 ) ) ;
#564 = AXIS2_PLACEMENT_3D ( 'NONE', #574, #296, #642 ) ;
#565 = CARTESIAN_POINT ( 'NONE',  ( -5.000000000000004441, 33.31370849898470965, 16.00000000000000000 ) ) ;
#566 = ADVANCED_FACE ( 'NONE', ( #555 ), #433, .F. ) ;
#567 = LINE ( 'NONE', #455, #237 ) ;
#568 = ORIENTED_EDGE ( 'NONE', *, *, #17, .F. ) ;
#569 = ORIENTED_EDGE ( 'NONE', *, *, #131, .F. ) ;
#570 = CARTESIAN_POINT ( 'NONE',  ( -4.000000000000003553, 17.70000000000004903, 0.000000000000000000 ) ) ;
#571 = AXIS2_PLACEMENT_3D ( 'NONE', #107, #226, #638 ) ;
#572 = EDGE_CURVE ( 'NONE', #624, #304, #318, .T. ) ;
#573 = DIRECTION ( 'NONE',  ( 1.000000000000000000, 0.000000000000000000, 0.000000000000000000 ) ) ;
#574 = CARTESIAN_POINT ( 'NONE',  ( 0.000000000000000000, 0.000000000000000000, 0.000000000000000000 ) ) ;
#575 = CARTESIAN_POINT ( 'NONE',  ( -13.00000000000000533, 33.31370849898470965, 0.000000000000000000 ) ) ;
#576 = DIRECTION ( 'NONE',  ( -0.000000000000000000, -0.000000000000000000, -1.000000000000000000 ) ) ;
#577 = VECTOR ( 'NONE', #217, 1000.000000000000000 ) ;
#578 = LINE ( 'NONE', #332, #628 ) ;
#579 = EDGE_CURVE ( 'NONE', #250, #502, #22, .T. ) ;
#580 = ORIENTED_EDGE ( 'NONE', *, *, #19, .F. ) ;
#581 = CARTESIAN_POINT ( 'NONE',  ( 0.000000000000000000, 20.00000000000001776, 10.90000000000000036 ) ) ;
#582 = ORIENTED_EDGE ( 'NONE', *, *, #663, .T. ) ;
#583 = MANIFOLD_SOLID_BREP ( 'Verrundung1', #85 ) ;
#584 = CARTESIAN_POINT ( 'NONE',  ( 0.000000000000000000, 0.000000000000000000, 16.00000000000000000 ) ) ;
#585 = AXIS2_PLACEMENT_3D ( 'NONE', #575, #267, #316 ) ;
#586 = LINE ( 'NONE', #380, #449 ) ;
#587 = LINE ( 'NONE', #538, #450 ) ;
#588 = VERTEX_POINT ( 'NONE', #678 ) ;
#589 = DIRECTION ( 'NONE',  ( -1.000000000000000000, 0.000000000000000000, 0.000000000000000000 ) ) ;
#590 =( LENGTH_UNIT ( ) NAMED_UNIT ( * ) SI_UNIT ( .MILLI., .METRE. ) );
#591 = CARTESIAN_POINT ( 'NONE',  ( -8.000000000000007105, 5.700000000000038369, 10.90000000000000036 ) ) ;
#592 = AXIS2_PLACEMENT_3D ( 'NONE', #481, #175, #589 ) ;
#593 = ORIENTED_EDGE ( 'NONE', *, *, #225, .F. ) ;
#594 = ORIENTED_EDGE ( 'NONE', *, *, #34, .T. ) ;
#595 = DIRECTION ( 'NONE',  ( -1.000000000000000000, 0.000000000000000000, 0.000000000000000000 ) ) ;
#596 = AXIS2_PLACEMENT_3D ( 'NONE', #35, #199, #552 ) ;
#597 = CARTESIAN_POINT ( 'NONE',  ( -11.00000000000001066, 5.700000000000038369, 0.000000000000000000 ) ) ;
#598 = CARTESIAN_POINT ( 'NONE',  ( -8.700000000000034817, 16.00000000000001421, 0.000000000000000000 ) ) ;
#599 = EDGE_CURVE ( 'NONE', #135, #218, #454, .T. ) ;
#600 = LINE ( 'NONE', #519, #41 ) ;
#601 = VERTEX_POINT ( 'NONE', #329 ) ;
#602 = SURFACE_SIDE_STYLE ('',( #159 ) ) ;
#603 = ORIENTED_EDGE ( 'NONE', *, *, #93, .T. ) ;
#604 = ADVANCED_FACE ( 'NONE', ( #216 ), #110, .T. ) ;
#605 = DIRECTION ( 'NONE',  ( -1.000000000000000000, 0.000000000000000000, 0.000000000000000000 ) ) ;
#606 = AXIS2_PLACEMENT_3D ( 'NONE', #50, #426, #471 ) ;
#607 = CARTESIAN_POINT ( 'NONE',  ( -11.00000000000001066, 5.700000000000038369, 10.90000000000000036 ) ) ;
#608 = DIRECTION ( 'NONE',  ( 0.000000000000000000, 0.000000000000000000, 1.000000000000000000 ) ) ;
#609 = FACE_OUTER_BOUND ( 'NONE', #458, .T. ) ;
#610 = DIRECTION ( 'NONE',  ( 1.000000000000000000, 0.000000000000000000, 0.000000000000000000 ) ) ;
#611 = ORIENTED_EDGE ( 'NONE', *, *, #677, .T. ) ;
#612 = AXIS2_PLACEMENT_3D ( 'NONE', #14, #123, #446 ) ;
#613 = ORIENTED_EDGE ( 'NONE', *, *, #293, .F. ) ;
#614 = EDGE_CURVE ( 'NONE', #343, #376, #578, .T. ) ;
#615 = ADVANCED_FACE ( 'NONE', ( #281 ), #72, .F. ) ;
#616 = DIRECTION ( 'NONE',  ( -1.000000000000000000, 0.000000000000000000, 0.000000000000000000 ) ) ;
#617 = CARTESIAN_POINT ( 'NONE',  ( -12.65685424949236548, 22.34314575050764162, 0.000000000000000000 ) ) ;
#618 = LINE ( 'NONE', #584, #529 ) ;
#619 = LINE ( 'NONE', #403, #49 ) ;
#620 = LINE ( 'NONE', #64, #207 ) ;
#621 = ORIENTED_EDGE ( 'NONE', *, *, #559, .F. ) ;
#622 = CARTESIAN_POINT ( 'NONE',  ( -2.500000000000002220, 65.00000000000000000, 16.00000000000000000 ) ) ;
#623 = MECHANICAL_DESIGN_GEOMETRIC_PRESENTATION_REPRESENTATION (  '', ( #139 ), #340 ) ;
#624 = VERTEX_POINT ( 'NONE', #478 ) ;
#625 = ADVANCED_FACE ( 'NONE', ( #476, #690, #440 ), #520, .T. ) ;
#626 = EDGE_CURVE ( 'NONE', #208, #349, #618, .T. ) ;
#627 = UNCERTAINTY_MEASURE_WITH_UNIT (LENGTH_MEASURE( 1.000000000000000082E-05 ), #590, 'distance_accuracy_value', 'NONE');
#628 = VECTOR ( 'NONE', #383, 1000.000000000000000 ) ;
#629 = FACE_OUTER_BOUND ( 'NONE', #549, .T. ) ;
#630 = ADVANCED_FACE ( 'NONE', ( #308 ), #527, .T. ) ;
#631 =( NAMED_UNIT ( * ) PLANE_ANGLE_UNIT ( ) SI_UNIT ( $, .RADIAN. ) );
#632 = ORIENTED_EDGE ( 'NONE', *, *, #326, .T. ) ;
#633 = ORIENTED_EDGE ( 'NONE', *, *, #55, .T. ) ;
#634 = DIRECTION ( 'NONE',  ( 0.000000000000000000, -0.000000000000000000, 1.000000000000000000 ) ) ;
#635 = AXIS2_PLACEMENT_3D ( 'NONE', #37, #138, #459 ) ;
#636 = CARTESIAN_POINT ( 'NONE',  ( -11.00000000000001066, 2.299999999999996270, 0.000000000000000000 ) ) ;
#637 = FACE_OUTER_BOUND ( 'NONE', #181, .T. ) ;
#638 = DIRECTION ( 'NONE',  ( 1.000000000000000000, 0.000000000000000000, 0.000000000000000000 ) ) ;
#639 = EDGE_CURVE ( 'NONE', #339, #511, #178, .T. ) ;
#640 = LINE ( 'NONE', #261, #402 ) ;
#641 = ORIENTED_EDGE ( 'NONE', *, *, #395, .T. ) ;
#642 = DIRECTION ( 'NONE',  ( 1.000000000000000000, 0.000000000000000000, 0.000000000000000000 ) ) ;
#643 = DIRECTION ( 'NONE',  ( -0.000000000000000000, -0.000000000000000000, -1.000000000000000000 ) ) ;
#644 = DIRECTION ( 'NONE',  ( -0.000000000000000000, -0.000000000000000000, -1.000000000000000000 ) ) ;
#645 = AXIS2_PLACEMENT_3D ( 'NONE', #158, #224, #378 ) ;
#646 = VECTOR ( 'NONE', #96, 1000.000000000000000 ) ;
#647 = LINE ( 'NONE', #236, #675 ) ;
#648 = ORIENTED_EDGE ( 'NONE', *, *, #386, .F. ) ;
#649 = VERTEX_POINT ( 'NONE', #233 ) ;
#650 = VERTEX_POINT ( 'NONE', #636 ) ;
#651 = AXIS2_PLACEMENT_3D ( 'NONE', #84, #140, #29 ) ;
#652 = DIRECTION ( 'NONE',  ( 1.000000000000000000, 0.000000000000000000, 0.000000000000000000 ) ) ;
#653 = EDGE_CURVE ( 'NONE', #67, #304, #254, .T. ) ;
#654 = DIRECTION ( 'NONE',  ( 0.000000000000000000, 0.000000000000000000, -1.000000000000000000 ) ) ;
#655 = CIRCLE ( 'NONE', #279, 1.700000000000021050 ) ;
#656 = LINE ( 'NONE', #607, #524 ) ;
#657 = CARTESIAN_POINT ( 'NONE',  ( -5.000000000000004441, 65.00000000000000000, 10.90000000000000036 ) ) ;
#658 = ORIENTED_EDGE ( 'NONE', *, *, #406, .F. ) ;
#659 = ORIENTED_EDGE ( 'NONE', *, *, #572, .F. ) ;
#660 = DIRECTION ( 'NONE',  ( -0.000000000000000000, 0.000000000000000000, 1.000000000000000000 ) ) ;
#661 = AXIS2_PLACEMENT_3D ( 'NONE', #115, #62, #528 ) ;
#662 = UNCERTAINTY_MEASURE_WITH_UNIT (LENGTH_MEASURE( 1.000000000000000082E-05 ), #273, 'distance_accuracy_value', 'NONE');
#663 = EDGE_CURVE ( 'NONE', #33, #470, #227, .T. ) ;
#664 = PLANE ( 'NONE',  #347 ) ;
#665 = CARTESIAN_POINT ( 'NONE',  ( -5.000000000000004441, 0.000000000000000000, 0.000000000000000000 ) ) ;
#666 = ORIENTED_EDGE ( 'NONE', *, *, #293, .T. ) ;
#667 = ORIENTED_EDGE ( 'NONE', *, *, #639, .F. ) ;
#668 = DIRECTION ( 'NONE',  ( 0.000000000000000000, -0.000000000000000000, -1.000000000000000000 ) ) ;
#669 = EDGE_LOOP ( 'NONE', ( #621, #278, #156, #315, #200, #338, #95, #10 ) ) ;
#670 = DIRECTION ( 'NONE',  ( -1.000000000000000000, 0.000000000000000000, 0.000000000000000000 ) ) ;
#671 = DIRECTION ( 'NONE',  ( -0.000000000000000000, 0.000000000000000000, 1.000000000000000000 ) ) ;
#672 = CARTESIAN_POINT ( 'NONE',  ( -15.00000000000001421, 16.68629150101522995, 0.000000000000000000 ) ) ;
#673 = AXIS2_PLACEMENT_3D ( 'NONE', #503, #671, #260 ) ;
#674 = CYLINDRICAL_SURFACE ( 'NONE', #248, 2.500000000000002220 ) ;
#675 = VECTOR ( 'NONE', #342, 1000.000000000000000 ) ;
#676 = EDGE_LOOP ( 'NONE', ( #323, #532, #282, #377 ) ) ;
#677 = EDGE_CURVE ( 'NONE', #511, #601, #215, .T. ) ;
#678 = CARTESIAN_POINT ( 'NONE',  ( -12.70000000000003126, 4.000000000000017764, 0.000000000000000000 ) ) ;
#679 = CARTESIAN_POINT ( 'NONE',  ( -5.000000000000004441, 33.31370849898470965, 10.90000000000000036 ) ) ;
#680 = CARTESIAN_POINT ( 'NONE',  ( 0.000000000000000000, 65.00000000000000000, 10.90000000000000036 ) ) ;
#681 = LINE ( 'NONE', #265, #112 ) ;
#682 = FILL_AREA_STYLE ('',( #58 ) ) ;
#683 = EDGE_LOOP ( 'NONE', ( #593, #209, #320, #517 ) ) ;
#684 = CARTESIAN_POINT ( 'NONE',  ( 0.000000000000000000, 65.00000000000000000, 16.00000000000000000 ) ) ;
#685 = AXIS2_PLACEMENT_3D ( 'NONE', #161, #337, #432 ) ;
#686 = ORIENTED_EDGE ( 'NONE', *, *, #57, .T. ) ;
#687 = EDGE_CURVE ( 'NONE', #218, #128, #508, .T. ) ;
#688 = AXIS2_PLACEMENT_3D ( 'NONE', #294, #71, #285 ) ;
#689 = EDGE_CURVE ( 'NONE', #502, #429, #553, .T. ) ;
#690 = FACE_BOUND ( 'NONE', #542, .T. ) ;
ENDSEC;
END-ISO-10303-21;
