ISO-10303-21;
HEADER;
FILE_DESCRIPTION (( 'STEP AP214' ),
    '1' );
FILE_NAME ('21631_03_025_Rotary Support Rod 1-3K.STEP',
    '2021-11-04T14:49:52',
    ( '' ),
    ( '' ),
    'SwSTEP 2.0',
    'SolidWorks 2018',
    '' );
FILE_SCHEMA (( 'AUTOMOTIVE_DESIGN' ));
ENDSEC;

DATA;
#1 = CARTESIAN_POINT ( 'NONE',  ( 0.000000000000000000, 68.00000000000000000, 21.00000000000000000 ) ) ;
#2 = MECHANICAL_DESIGN_GEOMETRIC_PRESENTATION_REPRESENTATION (  '', ( #635 ), #182 ) ;
#3 = CARTESIAN_POINT ( 'NONE',  ( 0.000000000000000000, 0.000000000000000000, 21.00000000000000000 ) ) ;
#4 = VECTOR ( 'NONE', #351, 1000.000000000000000 ) ;
#5 =( LENGTH_UNIT ( ) NAMED_UNIT ( * ) SI_UNIT ( .MILLI., .METRE. ) );
#6 = LINE ( 'NONE', #420, #825 ) ;
#7 = CARTESIAN_POINT ( 'NONE',  ( -9.999999999999971578, 17.49999999999998579, 21.00000000000000000 ) ) ;
#8 = ORIENTED_EDGE ( 'NONE', *, *, #622, .F. ) ;
#9 = EDGE_LOOP ( 'NONE', ( #731, #357, #249, #916 ) ) ;
#10 = CARTESIAN_POINT ( 'NONE',  ( 0.000000000000000000, 0.000000000000000000, 16.00000000000000000 ) ) ;
#11 = ORIENTED_EDGE ( 'NONE', *, *, #449, .F. ) ;
#12 = EDGE_LOOP ( 'NONE', ( #129, #686, #711, #32 ) ) ;
#13 = CIRCLE ( 'NONE', #207, 2.499999999999986677 ) ;
#14 =( LENGTH_UNIT ( ) NAMED_UNIT ( * ) SI_UNIT ( .MILLI., .METRE. ) );
#15 = CIRCLE ( 'NONE', #175, 4.999999999999999112 ) ;
#16 = ADVANCED_FACE ( 'NONE', ( #890 ), #615, .F. ) ;
#17 = LINE ( 'NONE', #198, #868 ) ;
#18 = CARTESIAN_POINT ( 'NONE',  ( -16.99999999999999645, 7.500000000000007994, 21.00000000000000000 ) ) ;
#19 = ORIENTED_EDGE ( 'NONE', *, *, #698, .T. ) ;
#20 = DIRECTION ( 'NONE',  ( 1.000000000000000000, 0.000000000000000000, 0.000000000000000000 ) ) ;
#21 = ORIENTED_EDGE ( 'NONE', *, *, #64, .T. ) ;
#22 = CARTESIAN_POINT ( 'NONE',  ( -13.00000000000000533, 3.999999999999999112, 21.00000000000000000 ) ) ;
#23 = AXIS2_PLACEMENT_3D ( 'NONE', #195, #58, #759 ) ;
#24 = LINE ( 'NONE', #773, #533 ) ;
#25 = CARTESIAN_POINT ( 'NONE',  ( -4.999999999999976907, 20.00000000000000355, 16.00000000000000000 ) ) ;
#26 = AXIS2_PLACEMENT_3D ( 'NONE', #515, #97, #586 ) ;
#27 = DIRECTION ( 'NONE',  ( 0.000000000000000000, 0.000000000000000000, 1.000000000000000000 ) ) ;
#28 = DIRECTION ( 'NONE',  ( 0.000000000000000000, 0.000000000000000000, 1.000000000000000000 ) ) ;
#29 = VECTOR ( 'NONE', #482, 1000.000000000000114 ) ;
#30 = ORIENTED_EDGE ( 'NONE', *, *, #218, .T. ) ;
#31 = ORIENTED_EDGE ( 'NONE', *, *, #852, .T. ) ;
#32 = ORIENTED_EDGE ( 'NONE', *, *, #312, .F. ) ;
#33 = EDGE_CURVE ( 'NONE', #779, #436, #84, .T. ) ;
#34 = CIRCLE ( 'NONE', #410, 1.700000000000010614 ) ;
#35 = FILL_AREA_STYLE_COLOUR ( '', #366 ) ;
#36 = LINE ( 'NONE', #125, #79 ) ;
#37 = CIRCLE ( 'NONE', #719, 1.699999999999994849 ) ;
#38 = EDGE_CURVE ( 'NONE', #205, #516, #915, .T. ) ;
#39 = ORIENTED_EDGE ( 'NONE', *, *, #492, .F. ) ;
#40 = ORIENTED_EDGE ( 'NONE', *, *, #898, .T. ) ;
#41 = PRODUCT ( '21631_03_025_Rotary Support Rod 1-3K', '21631_03_025_Rotary Support Rod 1-3K', '', ( #83 ) ) ;
#42 = ORIENTED_EDGE ( 'NONE', *, *, #119, .F. ) ;
#43 = SURFACE_SIDE_STYLE ('',( #763 ) ) ;
#44 = VECTOR ( 'NONE', #277, 1000.000000000000000 ) ;
#45 = EDGE_CURVE ( 'NONE', #653, #73, #338, .T. ) ;
#46 = DIRECTION ( 'NONE',  ( -0.000000000000000000, -0.000000000000000000, 1.000000000000000000 ) ) ;
#47 = AXIS2_PLACEMENT_3D ( 'NONE', #471, #751, #53 ) ;
#48 = CARTESIAN_POINT ( 'NONE',  ( -13.00000000000000533, 5.699999999999985079, 16.00000000000000000 ) ) ;
#49 = EDGE_LOOP ( 'NONE', ( #457, #548, #602, #531, #113, #810, #344, #614 ) ) ;
#50 = DIRECTION ( 'NONE',  ( -0.000000000000000000, -1.000000000000000000, -0.000000000000000000 ) ) ;
#51 = VERTEX_POINT ( 'NONE', #606 ) ;
#52 = EDGE_CURVE ( 'NONE', #324, #100, #272, .T. ) ;
#53 = DIRECTION ( 'NONE',  ( 1.000000000000000000, 0.000000000000000000, 0.000000000000000000 ) ) ;
#54 = LINE ( 'NONE', #82, #234 ) ;
#55 = CARTESIAN_POINT ( 'NONE',  ( -4.999999999999976907, 17.49999999999998579, 16.00000000000000000 ) ) ;
#56 = ORIENTED_EDGE ( 'NONE', *, *, #390, .F. ) ;
#57 = PRODUCT_DEFINITION_SHAPE ( 'NONE', 'NONE',  #880 ) ;
#58 = DIRECTION ( 'NONE',  ( -0.000000000000000000, 0.000000000000000000, 1.000000000000000000 ) ) ;
#59 = VERTEX_POINT ( 'NONE', #815 ) ;
#60 = DIRECTION ( 'NONE',  ( -1.000000000000000000, -0.000000000000000000, -0.000000000000000000 ) ) ;
#61 = DIRECTION ( 'NONE',  ( 1.000000000000000000, 0.000000000000000000, 0.000000000000000000 ) ) ;
#62 = DIRECTION ( 'NONE',  ( 1.000000000000000000, 0.000000000000000000, 0.000000000000000000 ) ) ;
#63 = PLANE ( 'NONE',  #329 ) ;
#64 = EDGE_CURVE ( 'NONE', #674, #411, #470, .T. ) ;
#65 = DIRECTION ( 'NONE',  ( 1.000000000000000000, 2.891205793294673396E-16, 0.000000000000000000 ) ) ;
#66 = STYLED_ITEM ( 'NONE', ( #376 ), #468 ) ;
#67 = FACE_OUTER_BOUND ( 'NONE', #682, .T. ) ;
#68 = ORIENTED_EDGE ( 'NONE', *, *, #657, .F. ) ;
#69 = CARTESIAN_POINT ( 'NONE',  ( -10.00000000000000533, 14.30000000000000782, 16.00000000000000000 ) ) ;
#70 = ORIENTED_EDGE ( 'NONE', *, *, #394, .T. ) ;
#71 = CARTESIAN_POINT ( 'NONE',  ( -9.999999999999971578, 7.500000000000007994, 16.00000000000000000 ) ) ;
#72 = ADVANCED_FACE ( 'NONE', ( #310 ), #545, .F. ) ;
#73 = VERTEX_POINT ( 'NONE', #840 ) ;
#74 = DIRECTION ( 'NONE',  ( 0.000000000000000000, 0.000000000000000000, -1.000000000000000000 ) ) ;
#75 = ORIENTED_EDGE ( 'NONE', *, *, #33, .F. ) ;
#76 = ORIENTED_EDGE ( 'NONE', *, *, #541, .F. ) ;
#77 = CARTESIAN_POINT ( 'NONE',  ( 0.000000000000000000, 0.000000000000000000, 16.00000000000000000 ) ) ;
#78 = ADVANCED_FACE ( 'NONE', ( #621 ), #764, .F. ) ;
#79 = VECTOR ( 'NONE', #328, 1000.000000000000000 ) ;
#80 = CARTESIAN_POINT ( 'NONE',  ( -14.69999999999999929, 3.999999999999999112, 0.000000000000000000 ) ) ;
#81 = EDGE_CURVE ( 'NONE', #738, #559, #609, .T. ) ;
#82 = CARTESIAN_POINT ( 'NONE',  ( -13.00000000000000533, 17.70000000000001705, 16.00000000000000000 ) ) ;
#83 = PRODUCT_CONTEXT ( 'NONE', #388, 'mechanical' ) ;
#84 = LINE ( 'NONE', #894, #419 ) ;
#85 = EDGE_LOOP ( 'NONE', ( #809, #562, #301, #56 ) ) ;
#86 = PLANE ( 'NONE',  #819 ) ;
#87 = ORIENTED_EDGE ( 'NONE', *, *, #613, .F. ) ;
#88 = EDGE_CURVE ( 'NONE', #386, #671, #286, .T. ) ;
#89 = CARTESIAN_POINT ( 'NONE',  ( 0.000000000000000000, 68.00000000000000000, 21.00000000000000000 ) ) ;
#90 = CARTESIAN_POINT ( 'NONE',  ( -4.999999999999973355, 2.500000000000009326, 21.00000000000000000 ) ) ;
#91 = DIRECTION ( 'NONE',  ( -0.8660254037844413721, -0.4999999999999953371, 0.000000000000000000 ) ) ;
#92 = DIRECTION ( 'NONE',  ( 1.000000000000000000, 2.891205793294673396E-16, 0.000000000000000000 ) ) ;
#93 = AXIS2_PLACEMENT_3D ( 'NONE', #505, #851, #792 ) ;
#94 = ORIENTED_EDGE ( 'NONE', *, *, #613, .T. ) ;
#95 = DIRECTION ( 'NONE',  ( -0.000000000000000000, -0.000000000000000000, -1.000000000000000000 ) ) ;
#96 = CARTESIAN_POINT ( 'NONE',  ( -13.00000000000000533, 15.99999999999999645, 0.000000000000000000 ) ) ;
#97 = DIRECTION ( 'NONE',  ( -0.000000000000000000, 0.000000000000000000, 1.000000000000000000 ) ) ;
#98 = ADVANCED_FACE ( 'NONE', ( #695 ), #628, .F. ) ;
#99 = FACE_OUTER_BOUND ( 'NONE', #373, .T. ) ;
#100 = VERTEX_POINT ( 'NONE', #833 ) ;
#101 = ORIENTED_EDGE ( 'NONE', *, *, #746, .T. ) ;
#102 = DIRECTION ( 'NONE',  ( -0.000000000000000000, -0.000000000000000000, -1.000000000000000000 ) ) ;
#103 = SHAPE_DEFINITION_REPRESENTATION ( #57, #468 ) ;
#104 = PRODUCT_DEFINITION_FORMATION_WITH_SPECIFIED_SOURCE ( 'ANY', '', #41, .NOT_KNOWN. ) ;
#105 =( LENGTH_UNIT ( ) NAMED_UNIT ( * ) SI_UNIT ( .MILLI., .METRE. ) );
#106 = EDGE_CURVE ( 'NONE', #733, #51, #298, .T. ) ;
#107 = VERTEX_POINT ( 'NONE', #553 ) ;
#108 = DIRECTION ( 'NONE',  ( 0.000000000000000000, 0.000000000000000000, 1.000000000000000000 ) ) ;
#109 = VECTOR ( 'NONE', #122, 1000.000000000000000 ) ;
#110 = AXIS2_PLACEMENT_3D ( 'NONE', #77, #636, #508 ) ;
#111 = FACE_BOUND ( 'NONE', #465, .T. ) ;
#112 = PLANE ( 'NONE',  #318 ) ;
#113 = ORIENTED_EDGE ( 'NONE', *, *, #64, .F. ) ;
#114 = VERTEX_POINT ( 'NONE', #341 ) ;
#115 = EDGE_CURVE ( 'NONE', #217, #655, #729, .T. ) ;
#116 = ORIENTED_EDGE ( 'NONE', *, *, #564, .F. ) ;
#117 = VECTOR ( 'NONE', #194, 1000.000000000000000 ) ;
#118 = CARTESIAN_POINT ( 'NONE',  ( -17.00000000000000000, 17.11324865405186912, 0.000000000000000000 ) ) ;
#119 = EDGE_CURVE ( 'NONE', #886, #779, #514, .T. ) ;
#120 = VERTEX_POINT ( 'NONE', #830 ) ;
#121 = DIRECTION ( 'NONE',  ( -0.000000000000000000, -1.000000000000000000, -0.000000000000000000 ) ) ;
#122 = DIRECTION ( 'NONE',  ( -0.000000000000000000, -0.000000000000000000, -1.000000000000000000 ) ) ;
#123 = EDGE_CURVE ( 'NONE', #549, #384, #454, .T. ) ;
#124 = ORIENTED_EDGE ( 'NONE', *, *, #106, .F. ) ;
#125 = CARTESIAN_POINT ( 'NONE',  ( -16.99999999999999645, 12.49999999999998046, 34.00000000000001421 ) ) ;
#126 = LINE ( 'NONE', #203, #631 ) ;
#127 = LINE ( 'NONE', #132, #673 ) ;
#128 = CARTESIAN_POINT ( 'NONE',  ( -4.999999999999976907, 29.81495457622360945, 16.00000000000000000 ) ) ;
#129 = ORIENTED_EDGE ( 'NONE', *, *, #912, .F. ) ;
#130 = ORIENTED_EDGE ( 'NONE', *, *, #677, .T. ) ;
#131 = VERTEX_POINT ( 'NONE', #475 ) ;
#132 = CARTESIAN_POINT ( 'NONE',  ( -17.00000000000000000, 20.00000000000001776, 16.00000000000000000 ) ) ;
#133 = ORIENTED_EDGE ( 'NONE', *, *, #168, .T. ) ;
#134 = ADVANCED_FACE ( 'NONE', ( #590 ), #869, .F. ) ;
#135 = CARTESIAN_POINT ( 'NONE',  ( -13.00000000000000533, 15.99999999999999645, 16.00000000000000000 ) ) ;
#136 = AXIS2_PLACEMENT_3D ( 'NONE', #704, #654, #282 ) ;
#137 = CARTESIAN_POINT ( 'NONE',  ( -10.00000000000000533, 3.999999999999985345, 21.00000000000000000 ) ) ;
#138 = PRODUCT_RELATED_PRODUCT_CATEGORY ( 'part', '', ( #41 ) ) ;
#139 = ADVANCED_FACE ( 'NONE', ( #111, #853 ), #571, .T. ) ;
#140 = DIRECTION ( 'NONE',  ( 1.000000000000000000, 0.000000000000000000, 0.000000000000000000 ) ) ;
#141 = DIRECTION ( 'NONE',  ( 0.000000000000000000, 0.000000000000000000, 1.000000000000000000 ) ) ;
#142 = ORIENTED_EDGE ( 'NONE', *, *, #780, .T. ) ;
#143 = ORIENTED_EDGE ( 'NONE', *, *, #726, .T. ) ;
#144 = CARTESIAN_POINT ( 'NONE',  ( -13.00000000000000533, 3.999999999999999112, 0.000000000000000000 ) ) ;
#145 = DIRECTION ( 'NONE',  ( -1.000000000000000000, 0.000000000000000000, 0.000000000000000000 ) ) ;
#146 = PLANE ( 'NONE',  #838 ) ;
#147 = DIRECTION ( 'NONE',  ( -1.000000000000000000, 0.000000000000000000, 0.000000000000000000 ) ) ;
#148 = DIRECTION ( 'NONE',  ( -0.8660254037844413721, -0.4999999999999953371, -0.000000000000000000 ) ) ;
#149 = CYLINDRICAL_SURFACE ( 'NONE', #304, 1.700000000000010614 ) ;
#150 = CARTESIAN_POINT ( 'NONE',  ( -4.999999999999973355, 68.00000000000000000, 0.000000000000000000 ) ) ;
#151 = FACE_OUTER_BOUND ( 'NONE', #160, .T. ) ;
#152 = CARTESIAN_POINT ( 'NONE',  ( -10.00000000000000533, 17.70000000000001705, 0.000000000000000000 ) ) ;
#153 = ORIENTED_EDGE ( 'NONE', *, *, #885, .T. ) ;
#154 = ADVANCED_FACE ( 'NONE', ( #884 ), #86, .T. ) ;
#155 = ORIENTED_EDGE ( 'NONE', *, *, #356, .F. ) ;
#156 = EDGE_CURVE ( 'NONE', #739, #532, #127, .T. ) ;
#157 = DIRECTION ( 'NONE',  ( -0.000000000000000000, -0.000000000000000000, -1.000000000000000000 ) ) ;
#158 = ORIENTED_EDGE ( 'NONE', *, *, #269, .F. ) ;
#159 = AXIS2_PLACEMENT_3D ( 'NONE', #372, #891, #741 ) ;
#160 = EDGE_LOOP ( 'NONE', ( #265, #365, #187, #70, #177, #596 ) ) ;
#161 = VERTEX_POINT ( 'NONE', #360 ) ;
#162 = CARTESIAN_POINT ( 'NONE',  ( -17.00000000000000355, 1.911191783433776344E-14, 21.00000000000000000 ) ) ;
#163 = LINE ( 'NONE', #25, #270 ) ;
#164 = DIRECTION ( 'NONE',  ( 0.000000000000000000, 0.000000000000000000, 1.000000000000000000 ) ) ;
#165 = SURFACE_STYLE_FILL_AREA ( #785 ) ;
#166 = ORIENTED_EDGE ( 'NONE', *, *, #730, .F. ) ;
#167 = ORIENTED_EDGE ( 'NONE', *, *, #804, .F. ) ;
#168 = EDGE_CURVE ( 'NONE', #59, #738, #320, .T. ) ;
#169 = VERTEX_POINT ( 'NONE', #843 ) ;
#170 = ORIENTED_EDGE ( 'NONE', *, *, #835, .T. ) ;
#171 = LINE ( 'NONE', #831, #566 ) ;
#172 = VECTOR ( 'NONE', #148, 1000.000000000000000 ) ;
#173 = DIRECTION ( 'NONE',  ( 0.000000000000000000, 1.000000000000000000, -0.000000000000000000 ) ) ;
#174 = LINE ( 'NONE', #469, #692 ) ;
#175 = AXIS2_PLACEMENT_3D ( 'NONE', #290, #862, #226 ) ;
#176 = EDGE_LOOP ( 'NONE', ( #124, #19, #11, #676, #8, #642, #275, #213 ) ) ;
#177 = ORIENTED_EDGE ( 'NONE', *, *, #622, .T. ) ;
#178 = ORIENTED_EDGE ( 'NONE', *, *, #356, .T. ) ;
#179 = VERTEX_POINT ( 'NONE', #646 ) ;
#180 = LINE ( 'NONE', #624, #325 ) ;
#181 = LINE ( 'NONE', #382, #462 ) ;
#182 =( GEOMETRIC_REPRESENTATION_CONTEXT ( 3 ) GLOBAL_UNCERTAINTY_ASSIGNED_CONTEXT ( ( #512 ) ) GLOBAL_UNIT_ASSIGNED_CONTEXT ( ( #14, #790, #240 ) ) REPRESENTATION_CONTEXT ( 'NONE', 'WORKASPACE' ) );
#183 = DIRECTION ( 'NONE',  ( -0.000000000000000000, -0.000000000000000000, -1.000000000000000000 ) ) ;
#184 = VECTOR ( 'NONE', #199, 1000.000000000000000 ) ;
#185 = CARTESIAN_POINT ( 'NONE',  ( -13.00000000000000533, 3.999999999999999112, 16.00000000000000000 ) ) ;
#186 = AXIS2_PLACEMENT_3D ( 'NONE', #850, #141, #283 ) ;
#187 = ORIENTED_EDGE ( 'NONE', *, *, #772, .F. ) ;
#188 = EDGE_LOOP ( 'NONE', ( #170, #259, #504, #166 ) ) ;
#189 = ORIENTED_EDGE ( 'NONE', *, *, #502, .F. ) ;
#190 = EDGE_CURVE ( 'NONE', #169, #886, #6, .T. ) ;
#191 = ORIENTED_EDGE ( 'NONE', *, *, #322, .T. ) ;
#192 = DIRECTION ( 'NONE',  ( -1.000000000000000000, 0.000000000000000000, 0.000000000000000000 ) ) ;
#193 = AXIS2_PLACEMENT_3D ( 'NONE', #650, #364, #589 ) ;
#194 = DIRECTION ( 'NONE',  ( 1.000000000000000000, -1.592659819528146756E-15, -0.000000000000000000 ) ) ;
#195 = CARTESIAN_POINT ( 'NONE',  ( -9.999999999999971578, 17.49999999999998579, 16.00000000000000000 ) ) ;
#196 = DIRECTION ( 'NONE',  ( -1.000000000000000000, 0.000000000000000000, 0.000000000000000000 ) ) ;
#197 = FACE_OUTER_BOUND ( 'NONE', #409, .T. ) ;
#198 = CARTESIAN_POINT ( 'NONE',  ( -10.00000000000000533, 17.70000000000001705, 21.00000000000000000 ) ) ;
#199 = DIRECTION ( 'NONE',  ( -1.734723475976807341E-16, -1.000000000000000000, -0.000000000000000000 ) ) ;
#200 = ORIENTED_EDGE ( 'NONE', *, *, #390, .T. ) ;
#201 = DIRECTION ( 'NONE',  ( 0.000000000000000000, 0.000000000000000000, 1.000000000000000000 ) ) ;
#202 = ORIENTED_EDGE ( 'NONE', *, *, #52, .F. ) ;
#203 = CARTESIAN_POINT ( 'NONE',  ( -16.99999999999999645, 7.500000000000007994, 21.00000000000000000 ) ) ;
#204 = EDGE_CURVE ( 'NONE', #811, #107, #393, .T. ) ;
#205 = VERTEX_POINT ( 'NONE', #494 ) ;
#206 = FACE_OUTER_BOUND ( 'NONE', #406, .T. ) ;
#207 = AXIS2_PLACEMENT_3D ( 'NONE', #595, #28, #667 ) ;
#208 = ADVANCED_FACE ( 'NONE', ( #570 ), #483, .F. ) ;
#209 = DIRECTION ( 'NONE',  ( -0.000000000000000000, -0.000000000000000000, -1.000000000000000000 ) ) ;
#210 = FACE_OUTER_BOUND ( 'NONE', #742, .T. ) ;
#211 = CARTESIAN_POINT ( 'NONE',  ( -7.499999999999989342, 25.48482755730140070, 0.000000000000000000 ) ) ;
#212 = PLANE ( 'NONE',  #459 ) ;
#213 = ORIENTED_EDGE ( 'NONE', *, *, #575, .F. ) ;
#214 = APPLICATION_CONTEXT ( 'automotive_design' ) ;
#215 = VERTEX_POINT ( 'NONE', #710 ) ;
#216 = CARTESIAN_POINT ( 'NONE',  ( -16.99999999999999289, 12.49999999999998046, 16.00000000000000000 ) ) ;
#217 = VERTEX_POINT ( 'NONE', #3 ) ;
#218 = EDGE_CURVE ( 'NONE', #653, #385, #430, .T. ) ;
#219 = ADVANCED_FACE ( 'NONE', ( #67 ), #212, .F. ) ;
#220 = DIRECTION ( 'NONE',  ( 0.000000000000000000, 0.000000000000000000, -1.000000000000000000 ) ) ;
#221 = CARTESIAN_POINT ( 'NONE',  ( -17.00000000000000000, 20.00000000000001776, 16.00000000000000000 ) ) ;
#222 = CIRCLE ( 'NONE', #250, 1.700000000000010614 ) ;
#223 = CARTESIAN_POINT ( 'NONE',  ( -4.999999999999976907, 20.00000000000000355, 16.00000000000000000 ) ) ;
#224 = ORIENTED_EDGE ( 'NONE', *, *, #492, .T. ) ;
#225 = ADVANCED_FACE ( 'NONE', ( #256 ), #358, .T. ) ;
#226 = DIRECTION ( 'NONE',  ( -1.000000000000000000, 0.000000000000000000, 0.000000000000000000 ) ) ;
#227 = ORIENTED_EDGE ( 'NONE', *, *, #750, .F. ) ;
#228 = VECTOR ( 'NONE', #715, 1000.000000000000000 ) ;
#229 = CARTESIAN_POINT ( 'NONE',  ( -13.00000000000000533, 2.299999999999996270, 16.00000000000000000 ) ) ;
#230 = EDGE_CURVE ( 'NONE', #549, #466, #495, .T. ) ;
#231 = CARTESIAN_POINT ( 'NONE',  ( -14.49999999999997868, 21.44337567297407787, 16.00000000000000000 ) ) ;
#232 = CARTESIAN_POINT ( 'NONE',  ( -4.999999999999973355, 29.81495457622360945, 21.00000000000000000 ) ) ;
#233 = LINE ( 'NONE', #757, #44 ) ;
#234 = VECTOR ( 'NONE', #145, 1000.000000000000000 ) ;
#235 = VECTOR ( 'NONE', #330, 1000.000000000000000 ) ;
#236 = VERTEX_POINT ( 'NONE', #18 ) ;
#237 = EDGE_CURVE ( 'NONE', #674, #445, #669, .T. ) ;
#238 = DIRECTION ( 'NONE',  ( 1.000000000000000000, 0.000000000000000000, 0.000000000000000000 ) ) ;
#239 = UNCERTAINTY_MEASURE_WITH_UNIT (LENGTH_MEASURE( 1.000000000000000082E-05 ), #5, 'distance_accuracy_value', 'NONE');
#240 =( NAMED_UNIT ( * ) SI_UNIT ( $, .STERADIAN. ) SOLID_ANGLE_UNIT ( ) );
#241 = EDGE_LOOP ( 'NONE', ( #828, #405, #889, #251 ) ) ;
#242 = EDGE_CURVE ( 'NONE', #530, #131, #54, .T. ) ;
#243 = LINE ( 'NONE', #557, #117 ) ;
#244 = LINE ( 'NONE', #718, #813 ) ;
#245 = VECTOR ( 'NONE', #788, 1000.000000000000000 ) ;
#246 = EDGE_LOOP ( 'NONE', ( #675, #40, #31, #873 ) ) ;
#247 = ORIENTED_EDGE ( 'NONE', *, *, #644, .T. ) ;
#248 = MANIFOLD_SOLID_BREP ( 'Verrundung2', #923 ) ;
#249 = ORIENTED_EDGE ( 'NONE', *, *, #486, .T. ) ;
#250 = AXIS2_PLACEMENT_3D ( 'NONE', #96, #164, #871 ) ;
#251 = ORIENTED_EDGE ( 'NONE', *, *, #726, .F. ) ;
#252 = ORIENTED_EDGE ( 'NONE', *, *, #526, .T. ) ;
#253 = CARTESIAN_POINT ( 'NONE',  ( -10.00000000000000533, 2.299999999999996270, 21.00000000000000000 ) ) ;
#254 = CIRCLE ( 'NONE', #897, 5.000000000000000000 ) ;
#255 =( NAMED_UNIT ( * ) SI_UNIT ( $, .STERADIAN. ) SOLID_ANGLE_UNIT ( ) );
#256 = FACE_OUTER_BOUND ( 'NONE', #485, .T. ) ;
#257 = AXIS2_PLACEMENT_3D ( 'NONE', #547, #620, #196 ) ;
#258 = ORIENTED_EDGE ( 'NONE', *, *, #907, .T. ) ;
#259 = ORIENTED_EDGE ( 'NONE', *, *, #190, .T. ) ;
#260 = AXIS2_PLACEMENT_3D ( 'NONE', #683, #472, #550 ) ;
#261 = LINE ( 'NONE', #687, #744 ) ;
#262 = VECTOR ( 'NONE', #60, 1000.000000000000000 ) ;
#263 = CARTESIAN_POINT ( 'NONE',  ( -13.00000000000000533, 17.70000000000001705, 21.00000000000000000 ) ) ;
#264 = ORIENTED_EDGE ( 'NONE', *, *, #564, .T. ) ;
#265 = ORIENTED_EDGE ( 'NONE', *, *, #306, .F. ) ;
#266 = DIRECTION ( 'NONE',  ( 0.000000000000000000, 1.000000000000000000, 0.000000000000000000 ) ) ;
#267 = DIRECTION ( 'NONE',  ( -0.000000000000000000, -0.000000000000000000, -1.000000000000000000 ) ) ;
#268 = CARTESIAN_POINT ( 'NONE',  ( -10.00000000000000533, 14.30000000000000782, 0.000000000000000000 ) ) ;
#269 = EDGE_CURVE ( 'NONE', #671, #739, #336, .T. ) ;
#270 = VECTOR ( 'NONE', #369, 1000.000000000000000 ) ;
#271 = DIRECTION ( 'NONE',  ( 0.000000000000000000, 1.000000000000000000, 0.000000000000000000 ) ) ;
#272 = LINE ( 'NONE', #542, #444 ) ;
#273 = DIRECTION ( 'NONE',  ( 1.000000000000000000, 0.000000000000000000, 0.000000000000000000 ) ) ;
#274 = ORIENTED_EDGE ( 'NONE', *, *, #230, .T. ) ;
#275 = ORIENTED_EDGE ( 'NONE', *, *, #791, .F. ) ;
#276 = DIRECTION ( 'NONE',  ( -0.000000000000000000, 1.000000000000000000, -0.000000000000000000 ) ) ;
#277 = DIRECTION ( 'NONE',  ( 0.000000000000000000, 0.000000000000000000, -1.000000000000000000 ) ) ;
#278 = EDGE_CURVE ( 'NONE', #537, #592, #568, .T. ) ;
#279 = ADVANCED_FACE ( 'NONE', ( #608 ), #381, .F. ) ;
#280 = DIRECTION ( 'NONE',  ( -0.000000000000000000, -0.000000000000000000, -1.000000000000000000 ) ) ;
#281 = VERTEX_POINT ( 'NONE', #150 ) ;
#282 = DIRECTION ( 'NONE',  ( 0.000000000000000000, -0.000000000000000000, -1.000000000000000000 ) ) ;
#283 = DIRECTION ( 'NONE',  ( 1.000000000000000000, 0.000000000000000000, 0.000000000000000000 ) ) ;
#284 = CARTESIAN_POINT ( 'NONE',  ( -10.00000000000000533, 17.70000000000001705, 16.00000000000000000 ) ) ;
#285 = ADVANCED_FACE ( 'NONE', ( #600 ), #680, .F. ) ;
#286 = LINE ( 'NONE', #696, #786 ) ;
#287 = DIRECTION ( 'NONE',  ( 1.000000000000000000, 0.000000000000000000, 0.000000000000000000 ) ) ;
#288 = ORIENTED_EDGE ( 'NONE', *, *, #190, .F. ) ;
#289 = FILL_AREA_STYLE_COLOUR ( '', #632 ) ;
#290 = CARTESIAN_POINT ( 'NONE',  ( -9.999999999999971578, 2.500000000000009326, 21.00000000000000000 ) ) ;
#291 = ORIENTED_EDGE ( 'NONE', *, *, #349, .F. ) ;
#292 = CIRCLE ( 'NONE', #697, 4.999999999999999112 ) ;
#293 = DIRECTION ( 'NONE',  ( -1.000000000000000000, 0.000000000000000000, 0.000000000000000000 ) ) ;
#294 = AXIS2_PLACEMENT_3D ( 'NONE', #802, #513, #795 ) ;
#295 = ADVANCED_FACE ( 'NONE', ( #151 ), #663, .F. ) ;
#296 = VECTOR ( 'NONE', #707, 1000.000000000000000 ) ;
#297 = DIRECTION ( 'NONE',  ( 1.000000000000000000, 0.000000000000000000, 0.000000000000000000 ) ) ;
#298 = LINE ( 'NONE', #487, #184 ) ;
#299 = AXIS2_PLACEMENT_3D ( 'NONE', #618, #484, #192 ) ;
#300 = ADVANCED_FACE ( 'NONE', ( #892 ), #525, .F. ) ;
#301 = ORIENTED_EDGE ( 'NONE', *, *, #907, .F. ) ;
#302 = CARTESIAN_POINT ( 'NONE',  ( -13.00000000000000533, 15.99999999999999645, 21.00000000000000000 ) ) ;
#303 = DIRECTION ( 'NONE',  ( -0.000000000000000000, 0.000000000000000000, 1.000000000000000000 ) ) ;
#304 = AXIS2_PLACEMENT_3D ( 'NONE', #510, #496, #658 ) ;
#305 = ORIENTED_EDGE ( 'NONE', *, *, #652, .F. ) ;
#306 = EDGE_CURVE ( 'NONE', #779, #433, #163, .T. ) ;
#307 = LINE ( 'NONE', #877, #535 ) ;
#308 = DIRECTION ( 'NONE',  ( -0.4999999999999953371, 0.8660254037844413721, 0.000000000000000000 ) ) ;
#309 = AXIS2_PLACEMENT_3D ( 'NONE', #666, #308, #91 ) ;
#310 = FACE_OUTER_BOUND ( 'NONE', #604, .T. ) ;
#311 = ORIENTED_EDGE ( 'NONE', *, *, #560, .T. ) ;
#312 = EDGE_CURVE ( 'NONE', #520, #433, #913, .T. ) ;
#313 = EDGE_LOOP ( 'NONE', ( #331, #782, #855, #191, #573, #910 ) ) ;
#314 = ORIENTED_EDGE ( 'NONE', *, *, #371, .T. ) ;
#315 = LINE ( 'NONE', #345, #228 ) ;
#316 = LINE ( 'NONE', #761, #598 ) ;
#317 = DIRECTION ( 'NONE',  ( 0.000000000000000000, 0.000000000000000000, 1.000000000000000000 ) ) ;
#318 = AXIS2_PLACEMENT_3D ( 'NONE', #458, #173, #317 ) ;
#319 = LINE ( 'NONE', #771, #350 ) ;
#320 = LINE ( 'NONE', #577, #904 ) ;
#321 = ORIENTED_EDGE ( 'NONE', *, *, #698, .F. ) ;
#322 = EDGE_CURVE ( 'NONE', #411, #51, #728, .T. ) ;
#323 = ORIENTED_EDGE ( 'NONE', *, *, #45, .F. ) ;
#324 = VERTEX_POINT ( 'NONE', #229 ) ;
#325 = VECTOR ( 'NONE', #92, 1000.000000000000000 ) ;
#326 = VECTOR ( 'NONE', #909, 1000.000000000000000 ) ;
#327 = EDGE_CURVE ( 'NONE', #561, #107, #222, .T. ) ;
#328 = DIRECTION ( 'NONE',  ( -0.000000000000000000, -0.000000000000000000, -1.000000000000000000 ) ) ;
#329 = AXIS2_PLACEMENT_3D ( 'NONE', #335, #271, #343 ) ;
#330 = DIRECTION ( 'NONE',  ( -1.000000000000000000, 0.000000000000000000, 0.000000000000000000 ) ) ;
#331 = ORIENTED_EDGE ( 'NONE', *, *, #717, .F. ) ;
#332 = EDGE_LOOP ( 'NONE', ( #178, #826, #539, #258, #798 ) ) ;
#333 = DIRECTION ( 'NONE',  ( -0.000000000000000000, -0.000000000000000000, -1.000000000000000000 ) ) ;
#334 = DIRECTION ( 'NONE',  ( -0.000000000000000000, -0.000000000000000000, -1.000000000000000000 ) ) ;
#335 = CARTESIAN_POINT ( 'NONE',  ( -16.99999999999999645, 7.500000000000007994, 34.00000000000001421 ) ) ;
#336 = CIRCLE ( 'NONE', #551, 5.000000000000000000 ) ;
#337 = DIRECTION ( 'NONE',  ( 0.000000000000000000, 0.000000000000000000, 1.000000000000000000 ) ) ;
#338 = LINE ( 'NONE', #48, #235 ) ;
#339 = DIRECTION ( 'NONE',  ( -0.000000000000000000, 0.000000000000000000, 1.000000000000000000 ) ) ;
#340 = EDGE_LOOP ( 'NONE', ( #640, #423, #732, #252 ) ) ;
#341 = CARTESIAN_POINT ( 'NONE',  ( -16.99999999999999645, 12.49999999999998046, 21.00000000000000000 ) ) ;
#342 = ORIENTED_EDGE ( 'NONE', *, *, #408, .T. ) ;
#343 = DIRECTION ( 'NONE',  ( 0.000000000000000000, -0.000000000000000000, 1.000000000000000000 ) ) ;
#344 = ORIENTED_EDGE ( 'NONE', *, *, #455, .T. ) ;
#345 = CARTESIAN_POINT ( 'NONE',  ( -13.00000000000000533, 14.29999999999999538, 16.00000000000000000 ) ) ;
#346 = AXIS2_PLACEMENT_3D ( 'NONE', #135, #339, #914 ) ;
#347 = CARTESIAN_POINT ( 'NONE',  ( -16.99999999999999645, 12.49999999999998046, 21.00000000000000000 ) ) ;
#348 = CYLINDRICAL_SURFACE ( 'NONE', #47, 5.000000000000000000 ) ;
#349 = EDGE_CURVE ( 'NONE', #516, #385, #837, .T. ) ;
#350 = VECTOR ( 'NONE', #839, 1000.000000000000000 ) ;
#351 = DIRECTION ( 'NONE',  ( -0.000000000000000000, -0.000000000000000000, -1.000000000000000000 ) ) ;
#352 = VERTEX_POINT ( 'NONE', #874 ) ;
#353 = CARTESIAN_POINT ( 'NONE',  ( -13.00000000000000533, 5.699999999999985079, 0.000000000000000000 ) ) ;
#354 = ADVANCED_FACE ( 'NONE', ( #197 ), #727, .F. ) ;
#355 = DIRECTION ( 'NONE',  ( 1.000000000000000000, 0.000000000000000000, 0.000000000000000000 ) ) ;
#356 = EDGE_CURVE ( 'NONE', #100, #516, #737, .T. ) ;
#357 = ORIENTED_EDGE ( 'NONE', *, *, #429, .T. ) ;
#358 = PLANE ( 'NONE',  #136 ) ;
#359 = DIRECTION ( 'NONE',  ( 0.000000000000000000, 0.000000000000000000, 1.000000000000000000 ) ) ;
#360 = CARTESIAN_POINT ( 'NONE',  ( 0.000000000000000000, 68.00000000000000000, 0.000000000000000000 ) ) ;
#361 = VECTOR ( 'NONE', #102, 1000.000000000000000 ) ;
#362 = DIRECTION ( 'NONE',  ( -0.000000000000000000, 0.000000000000000000, 1.000000000000000000 ) ) ;
#363 = ORIENTED_EDGE ( 'NONE', *, *, #797, .F. ) ;
#364 = DIRECTION ( 'NONE',  ( -0.000000000000000000, -0.000000000000000000, -1.000000000000000000 ) ) ;
#365 = ORIENTED_EDGE ( 'NONE', *, *, #33, .T. ) ;
#366 = COLOUR_RGB ( '',0.6980392156862744724, 0.6980392156862744724, 0.6980392156862744724 ) ;
#367 = ADVANCED_FACE ( 'NONE', ( #99 ), #448, .T. ) ;
#368 = EDGE_CURVE ( 'NONE', #352, #425, #181, .T. ) ;
#369 = DIRECTION ( 'NONE',  ( -0.000000000000000000, 1.000000000000000000, -0.000000000000000000 ) ) ;
#370 = CARTESIAN_POINT ( 'NONE',  ( -14.69999999999999929, 3.999999999999999112, 21.00000000000000000 ) ) ;
#371 = EDGE_CURVE ( 'NONE', #433, #352, #536, .T. ) ;
#372 = CARTESIAN_POINT ( 'NONE',  ( -13.00000000000000533, 15.99999999999999645, 16.00000000000000000 ) ) ;
#373 = EDGE_LOOP ( 'NONE', ( #870, #820, #87, #758 ) ) ;
#374 = CARTESIAN_POINT ( 'NONE',  ( -13.00000000000000533, 3.999999999999999112, 0.000000000000000000 ) ) ;
#375 = ORIENTED_EDGE ( 'NONE', *, *, #677, .F. ) ;
#376 = PRESENTATION_STYLE_ASSIGNMENT (( #925 ) ) ;
#377 = EDGE_LOOP ( 'NONE', ( #227, #375, #305, #323, #801 ) ) ;
#378 = CYLINDRICAL_SURFACE ( 'NONE', #605, 5.000000000000000000 ) ;
#379 = LINE ( 'NONE', #755, #899 ) ;
#380 = FACE_OUTER_BOUND ( 'NONE', #921, .T. ) ;
#381 = CYLINDRICAL_SURFACE ( 'NONE', #193, 1.699999999999994849 ) ;
#382 = CARTESIAN_POINT ( 'NONE',  ( -7.499999999999991118, 25.48482755730140070, -13.85640646055101577 ) ) ;
#383 = ORIENTED_EDGE ( 'NONE', *, *, #237, .T. ) ;
#384 = VERTEX_POINT ( 'NONE', #581 ) ;
#385 = VERTEX_POINT ( 'NONE', #808 ) ;
#386 = VERTEX_POINT ( 'NONE', #400 ) ;
#387 = DIRECTION ( 'NONE',  ( -1.000000000000000000, -2.891205793294673396E-16, -0.000000000000000000 ) ) ;
#388 = APPLICATION_CONTEXT ( 'automotive_design' ) ;
#389 = CIRCLE ( 'NONE', #26, 1.699999999999994849 ) ;
#390 = EDGE_CURVE ( 'NONE', #73, #906, #174, .T. ) ;
#391 = AXIS2_PLACEMENT_3D ( 'NONE', #766, #842, #555 ) ;
#392 = FACE_OUTER_BOUND ( 'NONE', #246, .T. ) ;
#393 = LINE ( 'NONE', #774, #245 ) ;
#394 = EDGE_CURVE ( 'NONE', #215, #281, #556, .T. ) ;
#395 = DIRECTION ( 'NONE',  ( 1.734723475976807834E-16, 1.000000000000000000, 0.000000000000000000 ) ) ;
#396 = DIRECTION ( 'NONE',  ( -0.000000000000000000, -0.000000000000000000, -1.000000000000000000 ) ) ;
#397 = CARTESIAN_POINT ( 'NONE',  ( -17.00000000000000000, 20.00000000000001776, 16.00000000000000000 ) ) ;
#398 = DIRECTION ( 'NONE',  ( -1.000000000000000000, 0.000000000000000000, 0.000000000000000000 ) ) ;
#399 = CIRCLE ( 'NONE', #426, 2.499999999999986677 ) ;
#400 = CARTESIAN_POINT ( 'NONE',  ( -14.49999999999997868, 21.44337567297407787, 0.000000000000000000 ) ) ;
#401 = EDGE_CURVE ( 'NONE', #120, #236, #126, .T. ) ;
#402 = CARTESIAN_POINT ( 'NONE',  ( -13.00000000000000533, 15.99999999999999645, 21.00000000000000000 ) ) ;
#403 = CARTESIAN_POINT ( 'NONE',  ( -12.00000000000000178, 17.11324865405186912, 21.00000000000000000 ) ) ;
#404 = DIRECTION ( 'NONE',  ( -0.000000000000000000, -0.000000000000000000, 1.000000000000000000 ) ) ;
#405 = ORIENTED_EDGE ( 'NONE', *, *, #242, .T. ) ;
#406 = EDGE_LOOP ( 'NONE', ( #116, #75, #42, #288 ) ) ;
#407 = CARTESIAN_POINT ( 'NONE',  ( -4.999999999999976907, 2.500000000000009326, 16.00000000000000000 ) ) ;
#408 = EDGE_CURVE ( 'NONE', #411, #549, #319, .T. ) ;
#409 = EDGE_LOOP ( 'NONE', ( #473, #776, #844, #311 ) ) ;
#410 = AXIS2_PLACEMENT_3D ( 'NONE', #716, #859, #864 ) ;
#411 = VERTEX_POINT ( 'NONE', #922 ) ;
#412 = CARTESIAN_POINT ( 'NONE',  ( -9.999999999999971578, 29.81495457622360945, 21.00000000000000000 ) ) ;
#413 = EDGE_CURVE ( 'NONE', #236, #674, #481, .T. ) ;
#414 = DIRECTION ( 'NONE',  ( -1.000000000000000000, 0.000000000000000000, 0.000000000000000000 ) ) ;
#415 = CIRCLE ( 'NONE', #346, 1.700000000000010614 ) ;
#416 =( NAMED_UNIT ( * ) SI_UNIT ( $, .STERADIAN. ) SOLID_ANGLE_UNIT ( ) );
#417 = VECTOR ( 'NONE', #276, 1000.000000000000000 ) ;
#418 = DIRECTION ( 'NONE',  ( -0.000000000000000000, -0.000000000000000000, -1.000000000000000000 ) ) ;
#419 = VECTOR ( 'NONE', #538, 1000.000000000000000 ) ;
#420 = CARTESIAN_POINT ( 'NONE',  ( -9.999999999999971578, 12.49999999999998224, 16.00000000000000000 ) ) ;
#421 = ORIENTED_EDGE ( 'NONE', *, *, #429, .F. ) ;
#422 = DIRECTION ( 'NONE',  ( -0.000000000000000000, -0.000000000000000000, -1.000000000000000000 ) ) ;
#423 = ORIENTED_EDGE ( 'NONE', *, *, #394, .F. ) ;
#424 = AXIS2_PLACEMENT_3D ( 'NONE', #611, #903, #395 ) ;
#425 = VERTEX_POINT ( 'NONE', #211 ) ;
#426 = AXIS2_PLACEMENT_3D ( 'NONE', #554, #201, #829 ) ;
#427 = DIRECTION ( 'NONE',  ( 6.938893903907227392E-16, -1.000000000000000000, 0.000000000000000000 ) ) ;
#428 = FACE_OUTER_BOUND ( 'NONE', #9, .T. ) ;
#429 = EDGE_CURVE ( 'NONE', #803, #530, #672, .T. ) ;
#430 = LINE ( 'NONE', #491, #661 ) ;
#431 = SURFACE_STYLE_USAGE ( .BOTH. , #858 ) ;
#432 = VECTOR ( 'NONE', #743, 1000.000000000000000 ) ;
#433 = VERTEX_POINT ( 'NONE', #128 ) ;
#434 = CARTESIAN_POINT ( 'NONE',  ( -10.00000000000000533, 5.699999999999985079, 16.00000000000000000 ) ) ;
#435 = ORIENTED_EDGE ( 'NONE', *, *, #327, .F. ) ;
#436 = VERTEX_POINT ( 'NONE', #476 ) ;
#437 = CARTESIAN_POINT ( 'NONE',  ( -13.00000000000000533, 17.70000000000002061, 0.000000000000000000 ) ) ;
#438 = ORIENTED_EDGE ( 'NONE', *, *, #717, .T. ) ;
#439 = DIRECTION ( 'NONE',  ( -1.000000000000000000, 0.000000000000000000, 0.000000000000000000 ) ) ;
#440 = ORIENTED_EDGE ( 'NONE', *, *, #797, .T. ) ;
#441 = LINE ( 'NONE', #501, #866 ) ;
#442 = VECTOR ( 'NONE', #762, 1000.000000000000000 ) ;
#443 = AXIS2_PLACEMENT_3D ( 'NONE', #626, #768, #62 ) ;
#444 = VECTOR ( 'NONE', #183, 1000.000000000000000 ) ;
#445 = VERTEX_POINT ( 'NONE', #71 ) ;
#446 = CARTESIAN_POINT ( 'NONE',  ( 0.000000000000000000, 0.000000000000000000, 21.00000000000000000 ) ) ;
#447 = ORIENTED_EDGE ( 'NONE', *, *, #88, .F. ) ;
#448 = PLANE ( 'NONE',  #309 ) ;
#449 = EDGE_CURVE ( 'NONE', #425, #386, #902, .T. ) ;
#450 = ORIENTED_EDGE ( 'NONE', *, *, #204, .T. ) ;
#451 = DIRECTION ( 'NONE',  ( 1.000000000000000000, -0.000000000000000000, -0.000000000000000000 ) ) ;
#452 = VECTOR ( 'NONE', #822, 1000.000000000000000 ) ;
#453 = LINE ( 'NONE', #263, #326 ) ;
#454 = LINE ( 'NONE', #477, #464 ) ;
#455 = EDGE_CURVE ( 'NONE', #236, #114, #814, .T. ) ;
#456 = ORIENTED_EDGE ( 'NONE', *, *, #401, .F. ) ;
#457 = ORIENTED_EDGE ( 'NONE', *, *, #156, .F. ) ;
#458 = CARTESIAN_POINT ( 'NONE',  ( -10.00000000000000533, 2.299999999999996270, 21.00000000000000000 ) ) ;
#459 = AXIS2_PLACEMENT_3D ( 'NONE', #777, #699, #220 ) ;
#460 = AXIS2_PLACEMENT_3D ( 'NONE', #403, #337, #748 ) ;
#461 = CIRCLE ( 'NONE', #713, 4.999999999999999112 ) ;
#462 = VECTOR ( 'NONE', #333, 1000.000000000000000 ) ;
#463 = APPLICATION_PROTOCOL_DEFINITION ( 'draft international standard', 'automotive_design', 1998, #388 ) ;
#464 = VECTOR ( 'NONE', #404, 1000.000000000000000 ) ;
#465 = EDGE_LOOP ( 'NONE', ( #920, #421, #875, #712, #68 ) ) ;
#466 = VERTEX_POINT ( 'NONE', #407 ) ;
#467 = ORIENTED_EDGE ( 'NONE', *, *, #750, .T. ) ;
#468 = ADVANCED_BREP_SHAPE_REPRESENTATION ( '21631_03_025_Rotary Support Rod 1-3K', ( #248, #186 ), #543 ) ;
#469 = CARTESIAN_POINT ( 'NONE',  ( -13.00000000000000533, 5.699999999999993072, 21.00000000000000000 ) ) ;
#470 = LINE ( 'NONE', #397, #807 ) ;
#471 = CARTESIAN_POINT ( 'NONE',  ( -9.999999999999971578, 2.500000000000009326, 21.00000000000000000 ) ) ;
#472 = DIRECTION ( 'NONE',  ( 0.000000000000000000, -0.000000000000000000, -1.000000000000000000 ) ) ;
#473 = ORIENTED_EDGE ( 'NONE', *, *, #791, .T. ) ;
#474 = EDGE_CURVE ( 'NONE', #811, #498, #415, .T. ) ;
#475 = CARTESIAN_POINT ( 'NONE',  ( -13.00000000000000533, 17.70000000000001705, 16.00000000000000000 ) ) ;
#476 = CARTESIAN_POINT ( 'NONE',  ( -4.999999999999973355, 17.49999999999998579, 21.00000000000000000 ) ) ;
#477 = CARTESIAN_POINT ( 'NONE',  ( -4.999999999999976907, 1.387778780781445676E-14, 16.00000000000000000 ) ) ;
#478 = CIRCLE ( 'NONE', #159, 1.700000000000010614 ) ;
#479 = LINE ( 'NONE', #221, #172 ) ;
#480 = LINE ( 'NONE', #353, #296 ) ;
#481 = LINE ( 'NONE', #832, #109 ) ;
#482 = DIRECTION ( 'NONE',  ( -0.8660254037844413721, -0.4999999999999953371, 0.000000000000000000 ) ) ;
#483 = CYLINDRICAL_SURFACE ( 'NONE', #599, 1.699999999999994849 ) ;
#484 = DIRECTION ( 'NONE',  ( -0.000000000000000000, 0.000000000000000000, -1.000000000000000000 ) ) ;
#485 = EDGE_LOOP ( 'NONE', ( #724, #895, #200, #76 ) ) ;
#486 = EDGE_CURVE ( 'NONE', #530, #559, #17, .T. ) ;
#487 = CARTESIAN_POINT ( 'NONE',  ( -17.00000000000000355, 1.911191783433776344E-14, 0.000000000000000000 ) ) ;
#488 = ORIENTED_EDGE ( 'NONE', *, *, #306, .T. ) ;
#489 = CARTESIAN_POINT ( 'NONE',  ( -10.00000000000000533, 2.299999999999996270, 0.000000000000000000 ) ) ;
#490 = CARTESIAN_POINT ( 'NONE',  ( -17.00000000000000000, 17.11324865405186912, 0.000000000000000000 ) ) ;
#491 = CARTESIAN_POINT ( 'NONE',  ( -10.00000000000000533, 5.699999999999985079, 21.00000000000000000 ) ) ;
#492 = EDGE_CURVE ( 'NONE', #919, #466, #233, .T. ) ;
#493 = FACE_BOUND ( 'NONE', #377, .T. ) ;
#494 = CARTESIAN_POINT ( 'NONE',  ( -10.00000000000000533, 2.299999999999996270, 16.00000000000000000 ) ) ;
#495 = LINE ( 'NONE', #223, #417 ) ;
#496 = DIRECTION ( 'NONE',  ( -0.000000000000000000, -0.000000000000000000, -1.000000000000000000 ) ) ;
#497 = ORIENTED_EDGE ( 'NONE', *, *, #327, .T. ) ;
#498 = VERTEX_POINT ( 'NONE', #629 ) ;
#499 = DIRECTION ( 'NONE',  ( 1.000000000000000000, 0.000000000000000000, 0.000000000000000000 ) ) ;
#500 = ADVANCED_FACE ( 'NONE', ( #392 ), #565, .T. ) ;
#501 = CARTESIAN_POINT ( 'NONE',  ( -4.999999999999973355, 20.00000000000000355, 0.000000000000000000 ) ) ;
#502 = EDGE_CURVE ( 'NONE', #466, #445, #254, .T. ) ;
#503 = DIRECTION ( 'NONE',  ( 0.000000000000000000, -0.000000000000000000, -1.000000000000000000 ) ) ;
#504 = ORIENTED_EDGE ( 'NONE', *, *, #679, .T. ) ;
#505 = CARTESIAN_POINT ( 'NONE',  ( -5.000000000000004441, 0.000000000000000000, 21.00000000000000000 ) ) ;
#506 = ADVANCED_FACE ( 'NONE', ( #210 ), #63, .F. ) ;
#507 = FACE_BOUND ( 'NONE', #332, .T. ) ;
#508 = DIRECTION ( 'NONE',  ( 1.000000000000000000, 0.000000000000000000, 0.000000000000000000 ) ) ;
#509 = AXIS2_PLACEMENT_3D ( 'NONE', #633, #918, #688 ) ;
#510 = CARTESIAN_POINT ( 'NONE',  ( -10.00000000000000533, 16.00000000000001776, 21.00000000000000000 ) ) ;
#511 = VECTOR ( 'NONE', #794, 1000.000000000000000 ) ;
#512 = UNCERTAINTY_MEASURE_WITH_UNIT (LENGTH_MEASURE( 1.000000000000000082E-05 ), #14, 'distance_accuracy_value', 'NONE');
#513 = DIRECTION ( 'NONE',  ( 1.000000000000000000, 0.000000000000000000, 0.000000000000000000 ) ) ;
#514 = CIRCLE ( 'NONE', #23, 5.000000000000000000 ) ;
#515 = CARTESIAN_POINT ( 'NONE',  ( -10.00000000000000533, 3.999999999999985345, 16.00000000000000000 ) ) ;
#516 = VERTEX_POINT ( 'NONE', #489 ) ;
#517 = DIRECTION ( 'NONE',  ( 1.000000000000000000, 0.000000000000000000, 0.000000000000000000 ) ) ;
#518 = EDGE_LOOP ( 'NONE', ( #670, #450, #435, #734 ) ) ;
#519 = EDGE_LOOP ( 'NONE', ( #143, #497, #540, #133, #582 ) ) ;
#520 = VERTEX_POINT ( 'NONE', #558 ) ;
#521 = CIRCLE ( 'NONE', #660, 1.699999999999994849 ) ;
#522 = DIRECTION ( 'NONE',  ( 0.000000000000000000, 0.000000000000000000, 1.000000000000000000 ) ) ;
#523 = ORIENTED_EDGE ( 'NONE', *, *, #52, .T. ) ;
#524 = DIRECTION ( 'NONE',  ( -1.000000000000000000, 0.000000000000000000, 0.000000000000000000 ) ) ;
#525 = CYLINDRICAL_SURFACE ( 'NONE', #534, 1.700000000000010614 ) ;
#526 = EDGE_CURVE ( 'NONE', #655, #161, #770, .T. ) ;
#527 = EDGE_LOOP ( 'NONE', ( #749, #860, #30, #291 ) ) ;
#528 = AXIS2_PLACEMENT_3D ( 'NONE', #691, #396, #398 ) ;
#529 = EDGE_LOOP ( 'NONE', ( #665, #130, #523, #634 ) ) ;
#530 = VERTEX_POINT ( 'NONE', #284 ) ;
#531 = ORIENTED_EDGE ( 'NONE', *, *, #322, .F. ) ;
#532 = VERTEX_POINT ( 'NONE', #216 ) ;
#533 = VECTOR ( 'NONE', #280, 1000.000000000000000 ) ;
#534 = AXIS2_PLACEMENT_3D ( 'NONE', #302, #720, #524 ) ;
#535 = VECTOR ( 'NONE', #387, 1000.000000000000000 ) ;
#536 = CIRCLE ( 'NONE', #260, 5.000000000000000000 ) ;
#537 = VERTEX_POINT ( 'NONE', #714 ) ;
#538 = DIRECTION ( 'NONE',  ( -0.000000000000000000, 0.000000000000000000, 1.000000000000000000 ) ) ;
#539 = ORIENTED_EDGE ( 'NONE', *, *, #541, .T. ) ;
#540 = ORIENTED_EDGE ( 'NONE', *, *, #804, .T. ) ;
#541 = EDGE_CURVE ( 'NONE', #385, #906, #480, .T. ) ;
#542 = CARTESIAN_POINT ( 'NONE',  ( -13.00000000000000533, 2.299999999999996270, 21.00000000000000000 ) ) ;
#543 =( GEOMETRIC_REPRESENTATION_CONTEXT ( 3 ) GLOBAL_UNCERTAINTY_ASSIGNED_CONTEXT ( ( #901 ) ) GLOBAL_UNIT_ASSIGNED_CONTEXT ( ( #105, #607, #255 ) ) REPRESENTATION_CONTEXT ( 'NONE', 'WORKASPACE' ) );
#544 = VECTOR ( 'NONE', #451, 1000.000000000000000 ) ;
#545 = CYLINDRICAL_SURFACE ( 'NONE', #893, 1.700000000000010614 ) ;
#546 = EDGE_LOOP ( 'NONE', ( #576, #264, #664, #601, #456, #247, #142, #438, #908, #101 ) ) ;
#547 = CARTESIAN_POINT ( 'NONE',  ( -2.499999999999986677, 68.00000000000000000, 0.000000000000000000 ) ) ;
#548 = ORIENTED_EDGE ( 'NONE', *, *, #861, .T. ) ;
#549 = VERTEX_POINT ( 'NONE', #574 ) ;
#550 = DIRECTION ( 'NONE',  ( 1.000000000000000000, 0.000000000000000000, 0.000000000000000000 ) ) ;
#551 = AXIS2_PLACEMENT_3D ( 'NONE', #867, #587, #517 ) ;
#552 = FACE_BOUND ( 'NONE', #519, .T. ) ;
#553 = CARTESIAN_POINT ( 'NONE',  ( -14.70000000000001528, 15.99999999999999645, 0.000000000000000000 ) ) ;
#554 = CARTESIAN_POINT ( 'NONE',  ( -2.499999999999986677, 68.00000000000000000, 21.00000000000000000 ) ) ;
#555 = DIRECTION ( 'NONE',  ( 0.000000000000000000, -0.000000000000000000, 1.000000000000000000 ) ) ;
#556 = LINE ( 'NONE', #569, #4 ) ;
#557 = CARTESIAN_POINT ( 'NONE',  ( -5.000000000000004441, 0.000000000000000000, 21.00000000000000000 ) ) ;
#558 = CARTESIAN_POINT ( 'NONE',  ( -4.999999999999973355, 29.81495457622360945, 0.000000000000000000 ) ) ;
#559 = VERTEX_POINT ( 'NONE', #152 ) ;
#560 = EDGE_CURVE ( 'NONE', #217, #179, #756, .T. ) ;
#561 = VERTEX_POINT ( 'NONE', #437 ) ;
#562 = ORIENTED_EDGE ( 'NONE', *, *, #278, .T. ) ;
#563 = CARTESIAN_POINT ( 'NONE',  ( 0.000000000000000000, 0.000000000000000000, 21.00000000000000000 ) ) ;
#564 = EDGE_CURVE ( 'NONE', #436, #169, #461, .T. ) ;
#565 = PLANE ( 'NONE',  #391 ) ;
#566 = VECTOR ( 'NONE', #46, 1000.000000000000000 ) ;
#567 = DIRECTION ( 'NONE',  ( 0.000000000000000000, -1.000000000000000000, 0.000000000000000000 ) ) ;
#568 = LINE ( 'NONE', #370, #511 ) ;
#569 = CARTESIAN_POINT ( 'NONE',  ( -4.999999999999973355, 68.00000000000000000, 21.00000000000000000 ) ) ;
#570 = FACE_OUTER_BOUND ( 'NONE', #527, .T. ) ;
#571 = PLANE ( 'NONE',  #110 ) ;
#572 = ADVANCED_FACE ( 'NONE', ( #805 ), #781, .F. ) ;
#573 = ORIENTED_EDGE ( 'NONE', *, *, #575, .T. ) ;
#574 = CARTESIAN_POINT ( 'NONE',  ( -4.999999999999976907, 1.387778780781445676E-14, 16.00000000000000000 ) ) ;
#575 = EDGE_CURVE ( 'NONE', #51, #179, #244, .T. ) ;
#576 = ORIENTED_EDGE ( 'NONE', *, *, #772, .T. ) ;
#577 = CARTESIAN_POINT ( 'NONE',  ( -13.00000000000000533, 14.29999999999999538, 0.000000000000000000 ) ) ;
#578 = ADVANCED_FACE ( 'NONE', ( #619 ), #834, .T. ) ;
#579 = CARTESIAN_POINT ( 'NONE',  ( -2.499999999999986677, 68.00000000000000000, 21.00000000000000000 ) ) ;
#580 = ORIENTED_EDGE ( 'NONE', *, *, #269, .T. ) ;
#581 = CARTESIAN_POINT ( 'NONE',  ( -4.999999999999976907, 1.387778780781445676E-14, 21.00000000000000000 ) ) ;
#582 = ORIENTED_EDGE ( 'NONE', *, *, #81, .T. ) ;
#583 = DIRECTION ( 'NONE',  ( -0.000000000000000000, -1.000000000000000000, -0.000000000000000000 ) ) ;
#584 = ADVANCED_FACE ( 'NONE', ( #428 ), #149, .F. ) ;
#585 = DIRECTION ( 'NONE',  ( 0.000000000000000000, -0.000000000000000000, 1.000000000000000000 ) ) ;
#586 = DIRECTION ( 'NONE',  ( 1.000000000000000000, 0.000000000000000000, 0.000000000000000000 ) ) ;
#587 = DIRECTION ( 'NONE',  ( -0.000000000000000000, 0.000000000000000000, 1.000000000000000000 ) ) ;
#588 = VECTOR ( 'NONE', #422, 1000.000000000000000 ) ;
#589 = DIRECTION ( 'NONE',  ( -1.000000000000000000, 0.000000000000000000, 0.000000000000000000 ) ) ;
#590 = FACE_OUTER_BOUND ( 'NONE', #12, .T. ) ;
#591 = MECHANICAL_DESIGN_GEOMETRIC_PRESENTATION_REPRESENTATION (  '', ( #66 ), #637 ) ;
#592 = VERTEX_POINT ( 'NONE', #80 ) ;
#593 = CARTESIAN_POINT ( 'NONE',  ( -10.00000000000000533, 3.999999999999985345, 0.000000000000000000 ) ) ;
#594 = ORIENTED_EDGE ( 'NONE', *, *, #474, .T. ) ;
#595 = CARTESIAN_POINT ( 'NONE',  ( -2.499999999999986677, 68.00000000000000000, 0.000000000000000000 ) ) ;
#596 = ORIENTED_EDGE ( 'NONE', *, *, #312, .T. ) ;
#597 = CYLINDRICAL_SURFACE ( 'NONE', #460, 5.000000000000000000 ) ;
#598 = VECTOR ( 'NONE', #50, 1000.000000000000000 ) ;
#599 = AXIS2_PLACEMENT_3D ( 'NONE', #137, #641, #147 ) ;
#600 = FACE_OUTER_BOUND ( 'NONE', #85, .T. ) ;
#601 = ORIENTED_EDGE ( 'NONE', *, *, #455, .F. ) ;
#602 = ORIENTED_EDGE ( 'NONE', *, *, #106, .T. ) ;
#603 = EDGE_CURVE ( 'NONE', #592, #100, #37, .T. ) ;
#604 = EDGE_LOOP ( 'NONE', ( #725, #594, #153, #167 ) ) ;
#605 = AXIS2_PLACEMENT_3D ( 'NONE', #723, #303, #355 ) ;
#606 = CARTESIAN_POINT ( 'NONE',  ( -17.00000000000000355, 1.911191783433776344E-14, 0.000000000000000000 ) ) ;
#607 =( NAMED_UNIT ( * ) PLANE_ANGLE_UNIT ( ) SI_UNIT ( $, .RADIAN. ) );
#608 = FACE_OUTER_BOUND ( 'NONE', #529, .T. ) ;
#609 = CIRCLE ( 'NONE', #443, 1.700000000000010614 ) ;
#610 = ORIENTED_EDGE ( 'NONE', *, *, #156, .T. ) ;
#611 = CARTESIAN_POINT ( 'NONE',  ( -17.00000000000000355, 1.911191783433776344E-14, 21.00000000000000000 ) ) ;
#612 = PLANE ( 'NONE',  #257 ) ;
#613 = EDGE_CURVE ( 'NONE', #352, #671, #479, .T. ) ;
#614 = ORIENTED_EDGE ( 'NONE', *, *, #730, .T. ) ;
#615 = PLANE ( 'NONE',  #424 ) ;
#616 = LINE ( 'NONE', #681, #452 ) ;
#617 = CIRCLE ( 'NONE', #528, 4.999999999999999112 ) ;
#618 = CARTESIAN_POINT ( 'NONE',  ( -2.499999999999986677, 68.00000000000000000, 21.00000000000000000 ) ) ;
#619 = FACE_OUTER_BOUND ( 'NONE', #340, .T. ) ;
#620 = DIRECTION ( 'NONE',  ( -0.000000000000000000, 0.000000000000000000, -1.000000000000000000 ) ) ;
#621 = FACE_OUTER_BOUND ( 'NONE', #188, .T. ) ;
#622 = EDGE_CURVE ( 'NONE', #281, #520, #441, .T. ) ;
#623 = ORIENTED_EDGE ( 'NONE', *, *, #780, .F. ) ;
#624 = CARTESIAN_POINT ( 'NONE',  ( -16.99999999999999645, 12.49999999999998046, 21.00000000000000000 ) ) ;
#625 = ORIENTED_EDGE ( 'NONE', *, *, #413, .T. ) ;
#626 = CARTESIAN_POINT ( 'NONE',  ( -10.00000000000000533, 16.00000000000001776, 0.000000000000000000 ) ) ;
#627 = DIRECTION ( 'NONE',  ( -0.000000000000000000, 0.000000000000000000, 1.000000000000000000 ) ) ;
#628 = PLANE ( 'NONE',  #299 ) ;
#629 = CARTESIAN_POINT ( 'NONE',  ( -13.00000000000000533, 14.29999999999999538, 16.00000000000000000 ) ) ;
#630 = DIRECTION ( 'NONE',  ( 0.000000000000000000, -0.000000000000000000, 1.000000000000000000 ) ) ;
#631 = VECTOR ( 'NONE', #414, 1000.000000000000000 ) ;
#632 = COLOUR_RGB ( '',0.6980392156862744724, 0.6980392156862744724, 0.6980392156862744724 ) ;
#633 = CARTESIAN_POINT ( 'NONE',  ( -10.00000000000000533, 16.00000000000001776, 16.00000000000000000 ) ) ;
#634 = ORIENTED_EDGE ( 'NONE', *, *, #603, .F. ) ;
#635 = STYLED_ITEM ( 'NONE', ( #796 ), #248 ) ;
#636 = DIRECTION ( 'NONE',  ( -0.000000000000000000, 0.000000000000000000, 1.000000000000000000 ) ) ;
#637 =( GEOMETRIC_REPRESENTATION_CONTEXT ( 3 ) GLOBAL_UNCERTAINTY_ASSIGNED_CONTEXT ( ( #239 ) ) GLOBAL_UNIT_ASSIGNED_CONTEXT ( ( #5, #769, #416 ) ) REPRESENTATION_CONTEXT ( 'NONE', 'WORKASPACE' ) );
#638 = CARTESIAN_POINT ( 'NONE',  ( -17.00000000000000000, 20.00000000000001776, 0.000000000000000000 ) ) ;
#639 = DIRECTION ( 'NONE',  ( -0.000000000000000000, -0.000000000000000000, -1.000000000000000000 ) ) ;
#640 = ORIENTED_EDGE ( 'NONE', *, *, #841, .T. ) ;
#641 = DIRECTION ( 'NONE',  ( -0.000000000000000000, -0.000000000000000000, -1.000000000000000000 ) ) ;
#642 = ORIENTED_EDGE ( 'NONE', *, *, #841, .F. ) ;
#643 = VECTOR ( 'NONE', #639, 1000.000000000000000 ) ;
#644 = EDGE_CURVE ( 'NONE', #120, #919, #15, .T. ) ;
#645 = DIRECTION ( 'NONE',  ( -1.000000000000000000, 0.000000000000000000, 0.000000000000000000 ) ) ;
#646 = CARTESIAN_POINT ( 'NONE',  ( 0.000000000000000000, 0.000000000000000000, 0.000000000000000000 ) ) ;
#647 = ADVANCED_FACE ( 'NONE', ( #493, #380 ), #146, .T. ) ;
#648 = DIRECTION ( 'NONE',  ( -0.000000000000000000, -0.000000000000000000, -1.000000000000000000 ) ) ;
#649 = VECTOR ( 'NONE', #266, 1000.000000000000000 ) ;
#650 = CARTESIAN_POINT ( 'NONE',  ( -13.00000000000000533, 3.999999999999999112, 21.00000000000000000 ) ) ;
#651 = ORIENTED_EDGE ( 'NONE', *, *, #119, .T. ) ;
#652 = EDGE_CURVE ( 'NONE', #73, #537, #659, .T. ) ;
#653 = VERTEX_POINT ( 'NONE', #434 ) ;
#654 = DIRECTION ( 'NONE',  ( 0.000000000000000000, -1.000000000000000000, 0.000000000000000000 ) ) ;
#655 = VERTEX_POINT ( 'NONE', #89 ) ;
#656 = ORIENTED_EDGE ( 'NONE', *, *, #679, .F. ) ;
#657 = EDGE_CURVE ( 'NONE', #131, #811, #478, .T. ) ;
#658 = DIRECTION ( 'NONE',  ( -1.000000000000000000, 0.000000000000000000, 0.000000000000000000 ) ) ;
#659 = CIRCLE ( 'NONE', #775, 1.699999999999994849 ) ;
#660 = AXIS2_PLACEMENT_3D ( 'NONE', #374, #108, #238 ) ;
#661 = VECTOR ( 'NONE', #209, 1000.000000000000000 ) ;
#662 = ADVANCED_FACE ( 'NONE', ( #882 ), #112, .T. ) ;
#663 = PLANE ( 'NONE',  #294 ) ;
#664 = ORIENTED_EDGE ( 'NONE', *, *, #835, .F. ) ;
#665 = ORIENTED_EDGE ( 'NONE', *, *, #278, .F. ) ;
#666 = CARTESIAN_POINT ( 'NONE',  ( -17.00000000000000000, 20.00000000000001776, -13.85640646055101577 ) ) ;
#667 = DIRECTION ( 'NONE',  ( -1.000000000000000000, 0.000000000000000000, 0.000000000000000000 ) ) ;
#668 = AXIS2_PLACEMENT_3D ( 'NONE', #412, #630, #273 ) ;
#669 = LINE ( 'NONE', #854, #816 ) ;
#670 = ORIENTED_EDGE ( 'NONE', *, *, #657, .T. ) ;
#671 = VERTEX_POINT ( 'NONE', #231 ) ;
#672 = CIRCLE ( 'NONE', #509, 1.700000000000010614 ) ;
#673 = VECTOR ( 'NONE', #427, 1000.000000000000000 ) ;
#674 = VERTEX_POINT ( 'NONE', #812 ) ;
#675 = ORIENTED_EDGE ( 'NONE', *, *, #885, .F. ) ;
#676 = ORIENTED_EDGE ( 'NONE', *, *, #912, .T. ) ;
#677 = EDGE_CURVE ( 'NONE', #537, #324, #702, .T. ) ;
#678 = VECTOR ( 'NONE', #74, 1000.000000000000000 ) ;
#679 = EDGE_CURVE ( 'NONE', #886, #532, #307, .T. ) ;
#680 = CYLINDRICAL_SURFACE ( 'NONE', #736, 1.699999999999994849 ) ;
#681 = CARTESIAN_POINT ( 'NONE',  ( -10.00000000000000533, 2.299999999999996270, 16.00000000000000000 ) ) ;
#682 = EDGE_LOOP ( 'NONE', ( #623, #224, #887, #709 ) ) ;
#683 = CARTESIAN_POINT ( 'NONE',  ( -9.999999999999971578, 29.81495457622360945, 16.00000000000000000 ) ) ;
#684 = EDGE_LOOP ( 'NONE', ( #202, #467, #760, #155 ) ) ;
#685 = DIRECTION ( 'NONE',  ( 0.000000000000000000, 1.000000000000000000, 0.000000000000000000 ) ) ;
#686 = ORIENTED_EDGE ( 'NONE', *, *, #368, .F. ) ;
#687 = CARTESIAN_POINT ( 'NONE',  ( -4.999999999999973355, 20.00000000000000355, 21.00000000000000000 ) ) ;
#688 = DIRECTION ( 'NONE',  ( 1.000000000000000000, 0.000000000000000000, 0.000000000000000000 ) ) ;
#689 = FACE_OUTER_BOUND ( 'NONE', #787, .T. ) ;
#690 = DIRECTION ( 'NONE',  ( 2.891205793294673396E-16, -1.000000000000000000, 0.000000000000000000 ) ) ;
#691 = CARTESIAN_POINT ( 'NONE',  ( -12.00000000000000178, 17.11324865405186912, 0.000000000000000000 ) ) ;
#692 = VECTOR ( 'NONE', #418, 1000.000000000000000 ) ;
#693 = DIRECTION ( 'NONE',  ( -0.000000000000000000, 0.000000000000000000, 1.000000000000000000 ) ) ;
#694 = EDGE_CURVE ( 'NONE', #131, #561, #453, .T. ) ;
#695 = FACE_OUTER_BOUND ( 'NONE', #546, .T. ) ;
#696 = CARTESIAN_POINT ( 'NONE',  ( -14.49999999999997868, 21.44337567297407787, 16.00000000000000000 ) ) ;
#697 = AXIS2_PLACEMENT_3D ( 'NONE', #735, #818, #896 ) ;
#698 = EDGE_CURVE ( 'NONE', #733, #386, #617, .T. ) ;
#699 = DIRECTION ( 'NONE',  ( 1.000000000000000000, 0.000000000000000000, 0.000000000000000000 ) ) ;
#700 = AXIS2_PLACEMENT_3D ( 'NONE', #446, #722, #27 ) ;
#701 = CARTESIAN_POINT ( 'NONE',  ( 0.000000000000000000, 0.000000000000000000, 21.00000000000000000 ) ) ;
#702 = CIRCLE ( 'NONE', #806, 1.699999999999994849 ) ;
#703 = CARTESIAN_POINT ( 'NONE',  ( -9.999999999999971578, 12.49999999999998224, 16.00000000000000000 ) ) ;
#704 = CARTESIAN_POINT ( 'NONE',  ( -13.00000000000000533, 5.699999999999985079, 21.00000000000000000 ) ) ;
#705 = VECTOR ( 'NONE', #95, 1000.000000000000000 ) ;
#706 = APPLICATION_PROTOCOL_DEFINITION ( 'draft international standard', 'automotive_design', 1998, #214 ) ;
#707 = DIRECTION ( 'NONE',  ( -1.000000000000000000, -0.000000000000000000, -0.000000000000000000 ) ) ;
#708 = ADVANCED_FACE ( 'NONE', ( #689 ), #348, .F. ) ;
#709 = ORIENTED_EDGE ( 'NONE', *, *, #123, .T. ) ;
#710 = CARTESIAN_POINT ( 'NONE',  ( -4.999999999999973355, 68.00000000000000000, 21.00000000000000000 ) ) ;
#711 = ORIENTED_EDGE ( 'NONE', *, *, #371, .F. ) ;
#712 = ORIENTED_EDGE ( 'NONE', *, *, #474, .F. ) ;
#713 = AXIS2_PLACEMENT_3D ( 'NONE', #7, #784, #645 ) ;
#714 = CARTESIAN_POINT ( 'NONE',  ( -14.69999999999999929, 3.999999999999999112, 16.00000000000000000 ) ) ;
#715 = DIRECTION ( 'NONE',  ( 1.000000000000000000, -0.000000000000000000, 0.000000000000000000 ) ) ;
#716 = CARTESIAN_POINT ( 'NONE',  ( -13.00000000000000533, 15.99999999999999645, 0.000000000000000000 ) ) ;
#717 = EDGE_CURVE ( 'NONE', #384, #217, #243, .T. ) ;
#718 = CARTESIAN_POINT ( 'NONE',  ( -5.000000000000004441, 0.000000000000000000, 0.000000000000000000 ) ) ;
#719 = AXIS2_PLACEMENT_3D ( 'NONE', #144, #359, #287 ) ;
#720 = DIRECTION ( 'NONE',  ( -0.000000000000000000, -0.000000000000000000, -1.000000000000000000 ) ) ;
#721 = ORIENTED_EDGE ( 'NONE', *, *, #502, .T. ) ;
#722 = DIRECTION ( 'NONE',  ( -1.000000000000000000, 0.000000000000000000, 0.000000000000000000 ) ) ;
#723 = CARTESIAN_POINT ( 'NONE',  ( -9.999999999999971578, 17.49999999999998579, 34.00000000000001421 ) ) ;
#724 = ORIENTED_EDGE ( 'NONE', *, *, #218, .F. ) ;
#725 = ORIENTED_EDGE ( 'NONE', *, *, #204, .F. ) ;
#726 = EDGE_CURVE ( 'NONE', #559, #561, #848, .T. ) ;
#727 = PLANE ( 'NONE',  #700 ) ;
#728 = LINE ( 'NONE', #162, #361 ) ;
#729 = LINE ( 'NONE', #563, #649 ) ;
#730 = EDGE_CURVE ( 'NONE', #114, #532, #36, .T. ) ;
#731 = ORIENTED_EDGE ( 'NONE', *, *, #852, .F. ) ;
#732 = ORIENTED_EDGE ( 'NONE', *, *, #746, .F. ) ;
#733 = VERTEX_POINT ( 'NONE', #118 ) ;
#734 = ORIENTED_EDGE ( 'NONE', *, *, #694, .F. ) ;
#735 = CARTESIAN_POINT ( 'NONE',  ( -9.999999999999971578, 29.81495457622360945, 0.000000000000000000 ) ) ;
#736 = AXIS2_PLACEMENT_3D ( 'NONE', #22, #157, #439 ) ;
#737 = LINE ( 'NONE', #883, #544 ) ;
#738 = VERTEX_POINT ( 'NONE', #268 ) ;
#739 = VERTEX_POINT ( 'NONE', #754 ) ;
#740 = AXIS2_PLACEMENT_3D ( 'NONE', #827, #690, #65 ) ;
#741 = DIRECTION ( 'NONE',  ( 1.000000000000000000, 0.000000000000000000, 0.000000000000000000 ) ) ;
#742 = EDGE_LOOP ( 'NONE', ( #383, #440, #911, #625 ) ) ;
#743 = DIRECTION ( 'NONE',  ( -0.000000000000000000, -0.000000000000000000, -1.000000000000000000 ) ) ;
#744 = VECTOR ( 'NONE', #121, 1000.000000000000000 ) ;
#745 = FILL_AREA_STYLE ('',( #35 ) ) ;
#746 = EDGE_CURVE ( 'NONE', #655, #215, #399, .T. ) ;
#747 = VECTOR ( 'NONE', #585, 1000.000000000000000 ) ;
#748 = DIRECTION ( 'NONE',  ( 1.000000000000000000, 0.000000000000000000, 0.000000000000000000 ) ) ;
#749 = ORIENTED_EDGE ( 'NONE', *, *, #38, .F. ) ;
#750 = EDGE_CURVE ( 'NONE', #324, #205, #616, .T. ) ;
#751 = DIRECTION ( 'NONE',  ( 0.000000000000000000, 0.000000000000000000, 1.000000000000000000 ) ) ;
#752 = AXIS2_PLACEMENT_3D ( 'NONE', #579, #648, #293 ) ;
#753 = DIRECTION ( 'NONE',  ( -1.000000000000000000, 0.000000000000000000, 0.000000000000000000 ) ) ;
#754 = CARTESIAN_POINT ( 'NONE',  ( -16.99999999999999645, 17.11324865405186912, 16.00000000000000000 ) ) ;
#755 = CARTESIAN_POINT ( 'NONE',  ( 0.000000000000000000, 0.000000000000000000, 0.000000000000000000 ) ) ;
#756 = LINE ( 'NONE', #701, #588 ) ;
#757 = CARTESIAN_POINT ( 'NONE',  ( -4.999999999999973355, 2.500000000000009326, 16.00000000000000000 ) ) ;
#758 = ORIENTED_EDGE ( 'NONE', *, *, #368, .T. ) ;
#759 = DIRECTION ( 'NONE',  ( 1.000000000000000000, 0.000000000000000000, 0.000000000000000000 ) ) ;
#760 = ORIENTED_EDGE ( 'NONE', *, *, #38, .T. ) ;
#761 = CARTESIAN_POINT ( 'NONE',  ( -4.999999999999973355, 20.00000000000000355, 21.00000000000000000 ) ) ;
#762 = DIRECTION ( 'NONE',  ( 0.000000000000000000, 1.000000000000000000, 0.000000000000000000 ) ) ;
#763 = SURFACE_STYLE_FILL_AREA ( #745 ) ;
#764 = PLANE ( 'NONE',  #740 ) ;
#765 = FACE_OUTER_BOUND ( 'NONE', #800, .T. ) ;
#766 = CARTESIAN_POINT ( 'NONE',  ( -13.00000000000000533, 14.29999999999999538, 21.00000000000000000 ) ) ;
#767 = CARTESIAN_POINT ( 'NONE',  ( -10.00000000000000533, 14.30000000000000782, 21.00000000000000000 ) ) ;
#768 = DIRECTION ( 'NONE',  ( 0.000000000000000000, 0.000000000000000000, 1.000000000000000000 ) ) ;
#769 =( NAMED_UNIT ( * ) PLANE_ANGLE_UNIT ( ) SI_UNIT ( $, .RADIAN. ) );
#770 = LINE ( 'NONE', #1, #705 ) ;
#771 = CARTESIAN_POINT ( 'NONE',  ( -16.99999999999998579, 1.387778780781445676E-14, 16.00000000000000000 ) ) ;
#772 = EDGE_CURVE ( 'NONE', #215, #436, #316, .T. ) ;
#773 = CARTESIAN_POINT ( 'NONE',  ( -13.00000000000000533, 14.29999999999999538, 21.00000000000000000 ) ) ;
#774 = CARTESIAN_POINT ( 'NONE',  ( -14.70000000000001528, 15.99999999999999645, 21.00000000000000000 ) ) ;
#775 = AXIS2_PLACEMENT_3D ( 'NONE', #789, #362, #865 ) ;
#776 = ORIENTED_EDGE ( 'NONE', *, *, #526, .F. ) ;
#777 = CARTESIAN_POINT ( 'NONE',  ( -4.999999999999973355, 20.00000000000000355, 21.00000000000000000 ) ) ;
#778 = ADVANCED_FACE ( 'NONE', ( #879, #552, #507 ), #612, .T. ) ;
#779 = VERTEX_POINT ( 'NONE', #55 ) ;
#780 = EDGE_CURVE ( 'NONE', #919, #384, #261, .T. ) ;
#781 = PLANE ( 'NONE',  #93 ) ;
#782 = ORIENTED_EDGE ( 'NONE', *, *, #123, .F. ) ;
#783 = CARTESIAN_POINT ( 'NONE',  ( -13.00000000000000533, 5.699999999999993072, 0.000000000000000000 ) ) ;
#784 = DIRECTION ( 'NONE',  ( -0.000000000000000000, -0.000000000000000000, -1.000000000000000000 ) ) ;
#785 = FILL_AREA_STYLE ('',( #289 ) ) ;
#786 = VECTOR ( 'NONE', #924, 1000.000000000000000 ) ;
#787 = EDGE_LOOP ( 'NONE', ( #817, #363, #189, #39 ) ) ;
#788 = DIRECTION ( 'NONE',  ( -0.000000000000000000, -0.000000000000000000, -1.000000000000000000 ) ) ;
#789 = CARTESIAN_POINT ( 'NONE',  ( -13.00000000000000533, 3.999999999999999112, 16.00000000000000000 ) ) ;
#790 =( NAMED_UNIT ( * ) PLANE_ANGLE_UNIT ( ) SI_UNIT ( $, .RADIAN. ) );
#791 = EDGE_CURVE ( 'NONE', #179, #161, #379, .T. ) ;
#792 = DIRECTION ( 'NONE',  ( 0.000000000000000000, -0.000000000000000000, 1.000000000000000000 ) ) ;
#793 = ADVANCED_FACE ( 'NONE', ( #765 ), #597, .T. ) ;
#794 = DIRECTION ( 'NONE',  ( -0.000000000000000000, -0.000000000000000000, -1.000000000000000000 ) ) ;
#795 = DIRECTION ( 'NONE',  ( 0.000000000000000000, 0.000000000000000000, -1.000000000000000000 ) ) ;
#796 = PRESENTATION_STYLE_ASSIGNMENT (( #431 ) ) ;
#797 = EDGE_CURVE ( 'NONE', #445, #120, #171, .T. ) ;
#798 = ORIENTED_EDGE ( 'NONE', *, *, #603, .T. ) ;
#799 = DIRECTION ( 'NONE',  ( 1.000000000000000000, 0.000000000000000000, 0.000000000000000000 ) ) ;
#800 = EDGE_LOOP ( 'NONE', ( #158, #447, #321, #857 ) ) ;
#801 = ORIENTED_EDGE ( 'NONE', *, *, #823, .F. ) ;
#802 = CARTESIAN_POINT ( 'NONE',  ( -4.999999999999973355, 20.00000000000000355, 21.00000000000000000 ) ) ;
#803 = VERTEX_POINT ( 'NONE', #69 ) ;
#804 = EDGE_CURVE ( 'NONE', #107, #59, #34, .T. ) ;
#805 = FACE_OUTER_BOUND ( 'NONE', #313, .T. ) ;
#806 = AXIS2_PLACEMENT_3D ( 'NONE', #185, #627, #824 ) ;
#807 = VECTOR ( 'NONE', #836, 1000.000000000000000 ) ;
#808 = CARTESIAN_POINT ( 'NONE',  ( -10.00000000000000533, 5.699999999999985079, 0.000000000000000000 ) ) ;
#809 = ORIENTED_EDGE ( 'NONE', *, *, #652, .T. ) ;
#810 = ORIENTED_EDGE ( 'NONE', *, *, #413, .F. ) ;
#811 = VERTEX_POINT ( 'NONE', #900 ) ;
#812 = CARTESIAN_POINT ( 'NONE',  ( -16.99999999999999645, 7.500000000000007994, 16.00000000000000000 ) ) ;
#813 = VECTOR ( 'NONE', #20, 1000.000000000000000 ) ;
#814 = LINE ( 'NONE', #347, #442 ) ;
#815 = CARTESIAN_POINT ( 'NONE',  ( -13.00000000000000533, 14.29999999999999538, 0.000000000000000000 ) ) ;
#816 = VECTOR ( 'NONE', #499, 1000.000000000000000 ) ;
#817 = ORIENTED_EDGE ( 'NONE', *, *, #644, .F. ) ;
#818 = DIRECTION ( 'NONE',  ( 0.000000000000000000, 0.000000000000000000, 1.000000000000000000 ) ) ;
#819 = AXIS2_PLACEMENT_3D ( 'NONE', #863, #567, #503 ) ;
#820 = ORIENTED_EDGE ( 'NONE', *, *, #88, .T. ) ;
#821 = PRESENTATION_LAYER_ASSIGNMENT (  '', '', ( #66 ) ) ;
#822 = DIRECTION ( 'NONE',  ( 1.000000000000000000, 0.000000000000000000, 0.000000000000000000 ) ) ;
#823 = EDGE_CURVE ( 'NONE', #205, #653, #389, .T. ) ;
#824 = DIRECTION ( 'NONE',  ( 1.000000000000000000, 0.000000000000000000, 0.000000000000000000 ) ) ;
#825 = VECTOR ( 'NONE', #849, 1000.000000000000000 ) ;
#826 = ORIENTED_EDGE ( 'NONE', *, *, #349, .T. ) ;
#827 = CARTESIAN_POINT ( 'NONE',  ( -16.99999999999999645, 12.49999999999998046, 34.00000000000001421 ) ) ;
#828 = ORIENTED_EDGE ( 'NONE', *, *, #486, .F. ) ;
#829 = DIRECTION ( 'NONE',  ( -1.000000000000000000, 0.000000000000000000, 0.000000000000000000 ) ) ;
#830 = CARTESIAN_POINT ( 'NONE',  ( -9.999999999999971578, 7.500000000000007994, 21.00000000000000000 ) ) ;
#831 = CARTESIAN_POINT ( 'NONE',  ( -9.999999999999971578, 7.500000000000007994, 21.00000000000000000 ) ) ;
#832 = CARTESIAN_POINT ( 'NONE',  ( -16.99999999999999645, 7.500000000000007994, 34.00000000000001421 ) ) ;
#833 = CARTESIAN_POINT ( 'NONE',  ( -13.00000000000000533, 2.299999999999996270, 0.000000000000000000 ) ) ;
#834 = CYLINDRICAL_SURFACE ( 'NONE', #752, 2.499999999999986677 ) ;
#835 = EDGE_CURVE ( 'NONE', #114, #169, #180, .T. ) ;
#836 = DIRECTION ( 'NONE',  ( 6.938893903907227392E-16, -1.000000000000000000, 0.000000000000000000 ) ) ;
#837 = CIRCLE ( 'NONE', #872, 1.699999999999994849 ) ;
#838 = AXIS2_PLACEMENT_3D ( 'NONE', #10, #856, #297 ) ;
#839 = DIRECTION ( 'NONE',  ( 1.000000000000000000, 0.000000000000000000, 0.000000000000000000 ) ) ;
#840 = CARTESIAN_POINT ( 'NONE',  ( -13.00000000000000533, 5.699999999999993072, 16.00000000000000000 ) ) ;
#841 = EDGE_CURVE ( 'NONE', #161, #281, #13, .T. ) ;
#842 = DIRECTION ( 'NONE',  ( 0.000000000000000000, 1.000000000000000000, 0.000000000000000000 ) ) ;
#843 = CARTESIAN_POINT ( 'NONE',  ( -9.999999999999971578, 12.49999999999998224, 21.00000000000000000 ) ) ;
#844 = ORIENTED_EDGE ( 'NONE', *, *, #115, .F. ) ;
#845 = LINE ( 'NONE', #767, #643 ) ;
#846 = CARTESIAN_POINT ( 'NONE',  ( -9.999999999999971578, 2.500000000000009326, 16.00000000000000000 ) ) ;
#847 = ADVANCED_FACE ( 'NONE', ( #206 ), #378, .F. ) ;
#848 = LINE ( 'NONE', #905, #262 ) ;
#849 = DIRECTION ( 'NONE',  ( 0.000000000000000000, 0.000000000000000000, -1.000000000000000000 ) ) ;
#850 = CARTESIAN_POINT ( 'NONE',  ( 0.000000000000000000, 0.000000000000000000, 0.000000000000000000 ) ) ;
#851 = DIRECTION ( 'NONE',  ( 0.000000000000000000, 1.000000000000000000, 0.000000000000000000 ) ) ;
#852 = EDGE_CURVE ( 'NONE', #803, #738, #845, .T. ) ;
#853 = FACE_OUTER_BOUND ( 'NONE', #917, .T. ) ;
#854 = CARTESIAN_POINT ( 'NONE',  ( -16.99999999999999645, 7.500000000000007994, 16.00000000000000000 ) ) ;
#855 = ORIENTED_EDGE ( 'NONE', *, *, #408, .F. ) ;
#856 = DIRECTION ( 'NONE',  ( -0.000000000000000000, 0.000000000000000000, 1.000000000000000000 ) ) ;
#857 = ORIENTED_EDGE ( 'NONE', *, *, #861, .F. ) ;
#858 = SURFACE_SIDE_STYLE ('',( #165 ) ) ;
#859 = DIRECTION ( 'NONE',  ( 0.000000000000000000, 0.000000000000000000, 1.000000000000000000 ) ) ;
#860 = ORIENTED_EDGE ( 'NONE', *, *, #823, .T. ) ;
#861 = EDGE_CURVE ( 'NONE', #739, #733, #878, .T. ) ;
#862 = DIRECTION ( 'NONE',  ( -0.000000000000000000, -0.000000000000000000, -1.000000000000000000 ) ) ;
#863 = CARTESIAN_POINT ( 'NONE',  ( -13.00000000000000533, 17.70000000000001705, 21.00000000000000000 ) ) ;
#864 = DIRECTION ( 'NONE',  ( 1.000000000000000000, 0.000000000000000000, 0.000000000000000000 ) ) ;
#865 = DIRECTION ( 'NONE',  ( 1.000000000000000000, 0.000000000000000000, 0.000000000000000000 ) ) ;
#866 = VECTOR ( 'NONE', #583, 1000.000000000000000 ) ;
#867 = CARTESIAN_POINT ( 'NONE',  ( -12.00000000000000178, 17.11324865405186912, 16.00000000000000000 ) ) ;
#868 = VECTOR ( 'NONE', #267, 1000.000000000000000 ) ;
#869 = CYLINDRICAL_SURFACE ( 'NONE', #668, 5.000000000000000000 ) ;
#870 = ORIENTED_EDGE ( 'NONE', *, *, #449, .T. ) ;
#871 = DIRECTION ( 'NONE',  ( 1.000000000000000000, 0.000000000000000000, 0.000000000000000000 ) ) ;
#872 = AXIS2_PLACEMENT_3D ( 'NONE', #593, #522, #799 ) ;
#873 = ORIENTED_EDGE ( 'NONE', *, *, #168, .F. ) ;
#874 = CARTESIAN_POINT ( 'NONE',  ( -7.499999999999994671, 25.48482755730139715, 16.00000000000000000 ) ) ;
#875 = ORIENTED_EDGE ( 'NONE', *, *, #898, .F. ) ;
#876 = PRESENTATION_LAYER_ASSIGNMENT (  '', '', ( #635 ) ) ;
#877 = CARTESIAN_POINT ( 'NONE',  ( -16.99999999999999645, 12.49999999999998046, 16.00000000000000000 ) ) ;
#878 = LINE ( 'NONE', #490, #678 ) ;
#879 = FACE_OUTER_BOUND ( 'NONE', #176, .T. ) ;
#880 = PRODUCT_DEFINITION ( 'UNKNOWN', '', #104, #881 ) ;
#881 = PRODUCT_DEFINITION_CONTEXT ( 'detailed design', #214, 'design' ) ;
#882 = FACE_OUTER_BOUND ( 'NONE', #684, .T. ) ;
#883 = CARTESIAN_POINT ( 'NONE',  ( -10.00000000000000533, 2.299999999999996270, 0.000000000000000000 ) ) ;
#884 = FACE_OUTER_BOUND ( 'NONE', #241, .T. ) ;
#885 = EDGE_CURVE ( 'NONE', #498, #59, #24, .T. ) ;
#886 = VERTEX_POINT ( 'NONE', #703 ) ;
#887 = ORIENTED_EDGE ( 'NONE', *, *, #230, .F. ) ;
#888 = ORIENTED_EDGE ( 'NONE', *, *, #237, .F. ) ;
#889 = ORIENTED_EDGE ( 'NONE', *, *, #694, .T. ) ;
#890 = FACE_OUTER_BOUND ( 'NONE', #49, .T. ) ;
#891 = DIRECTION ( 'NONE',  ( -0.000000000000000000, 0.000000000000000000, 1.000000000000000000 ) ) ;
#892 = FACE_OUTER_BOUND ( 'NONE', #518, .T. ) ;
#893 = AXIS2_PLACEMENT_3D ( 'NONE', #402, #334, #753 ) ;
#894 = CARTESIAN_POINT ( 'NONE',  ( -4.999999999999973355, 17.49999999999998579, 21.00000000000000000 ) ) ;
#895 = ORIENTED_EDGE ( 'NONE', *, *, #45, .T. ) ;
#896 = DIRECTION ( 'NONE',  ( -1.000000000000000000, 2.081668171172168908E-15, 0.000000000000000000 ) ) ;
#897 = AXIS2_PLACEMENT_3D ( 'NONE', #846, #693, #61 ) ;
#898 = EDGE_CURVE ( 'NONE', #498, #803, #315, .T. ) ;
#899 = VECTOR ( 'NONE', #685, 1000.000000000000000 ) ;
#900 = CARTESIAN_POINT ( 'NONE',  ( -14.70000000000001528, 15.99999999999999645, 16.00000000000000000 ) ) ;
#901 = UNCERTAINTY_MEASURE_WITH_UNIT (LENGTH_MEASURE( 1.000000000000000082E-05 ), #105, 'distance_accuracy_value', 'NONE');
#902 = LINE ( 'NONE', #638, #29 ) ;
#903 = DIRECTION ( 'NONE',  ( 1.000000000000000000, -1.734723475976807834E-16, 0.000000000000000000 ) ) ;
#904 = VECTOR ( 'NONE', #140, 1000.000000000000000 ) ;
#905 = CARTESIAN_POINT ( 'NONE',  ( -13.00000000000000533, 17.70000000000001705, 0.000000000000000000 ) ) ;
#906 = VERTEX_POINT ( 'NONE', #783 ) ;
#907 = EDGE_CURVE ( 'NONE', #906, #592, #521, .T. ) ;
#908 = ORIENTED_EDGE ( 'NONE', *, *, #115, .T. ) ;
#909 = DIRECTION ( 'NONE',  ( -0.000000000000000000, -0.000000000000000000, -1.000000000000000000 ) ) ;
#910 = ORIENTED_EDGE ( 'NONE', *, *, #560, .F. ) ;
#911 = ORIENTED_EDGE ( 'NONE', *, *, #401, .T. ) ;
#912 = EDGE_CURVE ( 'NONE', #425, #520, #292, .T. ) ;
#913 = LINE ( 'NONE', #232, #747 ) ;
#914 = DIRECTION ( 'NONE',  ( 1.000000000000000000, 0.000000000000000000, 0.000000000000000000 ) ) ;
#915 = LINE ( 'NONE', #253, #432 ) ;
#916 = ORIENTED_EDGE ( 'NONE', *, *, #81, .F. ) ;
#917 = EDGE_LOOP ( 'NONE', ( #656, #651, #488, #314, #94, #580, #610 ) ) ;
#918 = DIRECTION ( 'NONE',  ( -0.000000000000000000, 0.000000000000000000, 1.000000000000000000 ) ) ;
#919 = VERTEX_POINT ( 'NONE', #90 ) ;
#920 = ORIENTED_EDGE ( 'NONE', *, *, #242, .F. ) ;
#921 = EDGE_LOOP ( 'NONE', ( #274, #721, #888, #21, #342 ) ) ;
#922 = CARTESIAN_POINT ( 'NONE',  ( -16.99999999999998579, 1.387778780781445676E-14, 16.00000000000000000 ) ) ;
#923 = CLOSED_SHELL ( 'NONE', ( #285, #300, #295, #219, #139, #647, #16, #72, #500, #584, #154, #208, #225, #279, #662, #98, #778, #572, #354, #578, #367, #793, #134, #78, #506, #847, #708 ) ) ;
#924 = DIRECTION ( 'NONE',  ( -0.000000000000000000, -0.000000000000000000, 1.000000000000000000 ) ) ;
#925 = SURFACE_STYLE_USAGE ( .BOTH. , #43 ) ;
ENDSEC;
END-ISO-10303-21;
