ISO-10303-21;
HEADER;
FILE_DESCRIPTION (( 'STEP AP214' ),
    '1' );
FILE_NAME ('21631_03_192_Nut Shuttle spacer.STEP',
    '2021-11-05T09:28:13',
    ( '' ),
    ( '' ),
    'SwSTEP 2.0',
    'SolidWorks 2018',
    '' );
FILE_SCHEMA (( 'AUTOMOTIVE_DESIGN' ));
ENDSEC;

DATA;
#1 = COLOUR_RGB ( '',0.6980392156862744724, 0.6980392156862744724, 0.6980392156862744724 ) ;
#2 = LINE ( 'NONE', #522, #727 ) ;
#3 = EDGE_CURVE ( 'NONE', #860, #568, #890, .T. ) ;
#4 = VERTEX_POINT ( 'NONE', #600 ) ;
#5 = EDGE_LOOP ( 'NONE', ( #437, #18, #134, #283 ) ) ;
#6 = CARTESIAN_POINT ( 'NONE',  ( 7.224621179626957712, -31.00000000000000355, 20.00000000000000000 ) ) ;
#7 = ORIENTED_EDGE ( 'NONE', *, *, #775, .F. ) ;
#8 = AXIS2_PLACEMENT_3D ( 'NONE', #468, #121, #63 ) ;
#9 = EDGE_CURVE ( 'NONE', #388, #4, #377, .T. ) ;
#10 = DIRECTION ( 'NONE',  ( -0.000000000000000000, -0.000000000000000000, 1.000000000000000000 ) ) ;
#11 = AXIS2_PLACEMENT_3D ( 'NONE', #599, #736, #813 ) ;
#12 = CARTESIAN_POINT ( 'NONE',  ( 1.914293821956972064, -33.00000000000002132, 20.00000000000000000 ) ) ;
#13 = DIRECTION ( 'NONE',  ( -0.000000000000000000, -0.000000000000000000, 1.000000000000000000 ) ) ;
#14 = LINE ( 'NONE', #559, #363 ) ;
#15 = VERTEX_POINT ( 'NONE', #390 ) ;
#16 = ORIENTED_EDGE ( 'NONE', *, *, #51, .F. ) ;
#17 = PLANE ( 'NONE',  #714 ) ;
#18 = ORIENTED_EDGE ( 'NONE', *, *, #768, .T. ) ;
#19 = AXIS2_PLACEMENT_3D ( 'NONE', #465, #748, #258 ) ;
#20 = DIRECTION ( 'NONE',  ( 0.000000000000000000, 0.000000000000000000, 1.000000000000000000 ) ) ;
#21 = ADVANCED_FACE ( 'NONE', ( #739 ), #280, .F. ) ;
#22 = CIRCLE ( 'NONE', #744, 3.099999999999998757 ) ;
#23 = CIRCLE ( 'NONE', #102, 14.50000000000000711 ) ;
#24 = ORIENTED_EDGE ( 'NONE', *, *, #705, .T. ) ;
#25 = ORIENTED_EDGE ( 'NONE', *, *, #182, .F. ) ;
#26 = ORIENTED_EDGE ( 'NONE', *, *, #901, .F. ) ;
#27 = CARTESIAN_POINT ( 'NONE',  ( 10.94999999999879670, -3.000000000000002220, 4.000000000000000000 ) ) ;
#28 = PRODUCT_DEFINITION_FORMATION_WITH_SPECIFIED_SOURCE ( 'ANY', '', #537, .NOT_KNOWN. ) ;
#29 = APPLICATION_CONTEXT ( 'automotive_design' ) ;
#30 = CARTESIAN_POINT ( 'NONE',  ( 12.79999999999879812, -3.000000000000002665, 0.000000000000000000 ) ) ;
#31 = VECTOR ( 'NONE', #869, 1000.000000000000000 ) ;
#32 = VECTOR ( 'NONE', #812, 1000.000000000000000 ) ;
#33 = AXIS2_PLACEMENT_3D ( 'NONE', #254, #323, #128 ) ;
#34 = APPLICATION_PROTOCOL_DEFINITION ( 'draft international standard', 'automotive_design', 1998, #885 ) ;
#35 = LINE ( 'NONE', #428, #583 ) ;
#36 = ORIENTED_EDGE ( 'NONE', *, *, #521, .T. ) ;
#37 = ORIENTED_EDGE ( 'NONE', *, *, #665, .T. ) ;
#38 = DIRECTION ( 'NONE',  ( -0.000000000000000000, -0.000000000000000000, 1.000000000000000000 ) ) ;
#39 = ORIENTED_EDGE ( 'NONE', *, *, #674, .T. ) ;
#40 = DIRECTION ( 'NONE',  ( -0.000000000000000000, -0.000000000000000000, -1.000000000000000000 ) ) ;
#41 = AXIS2_PLACEMENT_3D ( 'NONE', #722, #717, #513 ) ;
#42 = CARTESIAN_POINT ( 'NONE',  ( 13.34778213239989775, -28.65262182623524723, 0.000000000000000000 ) ) ;
#43 = EDGE_CURVE ( 'NONE', #441, #168, #166, .T. ) ;
#44 = FILL_AREA_STYLE_COLOUR ( '', #1 ) ;
#45 = LINE ( 'NONE', #829, #448 ) ;
#46 = DIRECTION ( 'NONE',  ( -1.000000000000000000, 0.000000000000000000, 0.000000000000000000 ) ) ;
#47 = VECTOR ( 'NONE', #473, 1000.000000000000000 ) ;
#48 = ORIENTED_EDGE ( 'NONE', *, *, #240, .T. ) ;
#49 = VERTEX_POINT ( 'NONE', #839 ) ;
#50 = CARTESIAN_POINT ( 'NONE',  ( 14.64999999999879954, -3.000000000000002665, 0.000000000000000000 ) ) ;
#51 = EDGE_CURVE ( 'NONE', #168, #661, #188, .T. ) ;
#52 = CARTESIAN_POINT ( 'NONE',  ( 1.628420336452701012, -0.3237407955512116575, 20.00000000000000000 ) ) ;
#53 = STYLED_ITEM ( 'NONE', ( #759 ), #394 ) ;
#54 = CYLINDRICAL_SURFACE ( 'NONE', #847, 14.50000000000000711 ) ;
#55 = LINE ( 'NONE', #560, #279 ) ;
#56 = CARTESIAN_POINT ( 'NONE',  ( 13.34778213239989775, -28.65262182623524723, 0.000000000000000000 ) ) ;
#57 = EDGE_LOOP ( 'NONE', ( #463, #751, #894, #407, #333, #135, #660, #883, #808, #273, #144, #550, #617, #192 ) ) ;
#58 = DIRECTION ( 'NONE',  ( 0.000000000000000000, 0.000000000000000000, 1.000000000000000000 ) ) ;
#59 = ORIENTED_EDGE ( 'NONE', *, *, #791, .F. ) ;
#60 = ORIENTED_EDGE ( 'NONE', *, *, #901, .T. ) ;
#61 = ORIENTED_EDGE ( 'NONE', *, *, #828, .T. ) ;
#62 = EDGE_CURVE ( 'NONE', #797, #440, #341, .T. ) ;
#63 = DIRECTION ( 'NONE',  ( -1.000000000000000000, 0.000000000000000000, 0.000000000000000000 ) ) ;
#64 = PRESENTATION_LAYER_ASSIGNMENT (  '', '', ( #53 ) ) ;
#65 = EDGE_CURVE ( 'NONE', #860, #850, #132, .T. ) ;
#66 = DIRECTION ( 'NONE',  ( -0.6062460722566654914, 0.7952771214321243676, 0.000000000000000000 ) ) ;
#67 = FACE_OUTER_BOUND ( 'NONE', #794, .T. ) ;
#68 = FACE_OUTER_BOUND ( 'NONE', #309, .T. ) ;
#69 = ORIENTED_EDGE ( 'NONE', *, *, #136, .F. ) ;
#70 = CARTESIAN_POINT ( 'NONE',  ( 3.149999999998754241, -25.50000000000002132, 0.000000000000000000 ) ) ;
#71 = ORIENTED_EDGE ( 'NONE', *, *, #101, .T. ) ;
#72 = VERTEX_POINT ( 'NONE', #359 ) ;
#73 = EDGE_CURVE ( 'NONE', #512, #450, #375, .T. ) ;
#74 = DIRECTION ( 'NONE',  ( 0.000000000000000000, 0.000000000000000000, 1.000000000000000000 ) ) ;
#75 = FACE_OUTER_BOUND ( 'NONE', #239, .T. ) ;
#76 = LINE ( 'NONE', #329, #32 ) ;
#77 = EDGE_LOOP ( 'NONE', ( #16, #89 ) ) ;
#78 = ORIENTED_EDGE ( 'NONE', *, *, #612, .T. ) ;
#79 = ORIENTED_EDGE ( 'NONE', *, *, #286, .F. ) ;
#80 = CARTESIAN_POINT ( 'NONE',  ( 16.29999999999877502, -0.6000000000000033085, 20.00000000000000000 ) ) ;
#81 = AXIS2_PLACEMENT_3D ( 'NONE', #561, #499, #569 ) ;
#82 = CARTESIAN_POINT ( 'NONE',  ( 1.628420336452701012, -0.3237407955512116575, 20.00000000000000000 ) ) ;
#83 =( GEOMETRIC_REPRESENTATION_CONTEXT ( 3 ) GLOBAL_UNCERTAINTY_ASSIGNED_CONTEXT ( ( #234 ) ) GLOBAL_UNIT_ASSIGNED_CONTEXT ( ( #529, #666, #256 ) ) REPRESENTATION_CONTEXT ( 'NONE', 'WORKASPACE' ) );
#84 = LINE ( 'NONE', #294, #623 ) ;
#85 = CARTESIAN_POINT ( 'NONE',  ( 13.34778213239989775, -28.65262182623524723, 20.00000000000000000 ) ) ;
#86 = CIRCLE ( 'NONE', #680, 0.6000000000000288436 ) ;
#87 = ORIENTED_EDGE ( 'NONE', *, *, #51, .T. ) ;
#88 = ORIENTED_EDGE ( 'NONE', *, *, #425, .T. ) ;
#89 = ORIENTED_EDGE ( 'NONE', *, *, #366, .F. ) ;
#90 = CARTESIAN_POINT ( 'NONE',  ( 16.29999999999877502, -0.6000000000000033085, 0.000000000000000000 ) ) ;
#91 = AXIS2_PLACEMENT_3D ( 'NONE', #30, #455, #248 ) ;
#92 = DIRECTION ( 'NONE',  ( 0.000000000000000000, 0.000000000000000000, 1.000000000000000000 ) ) ;
#93 = VECTOR ( 'NONE', #810, 1000.000000000000000 ) ;
#94 = CYLINDRICAL_SURFACE ( 'NONE', #684, 0.6000000000000137446 ) ;
#95 = ORIENTED_EDGE ( 'NONE', *, *, #726, .T. ) ;
#96 = DIRECTION ( 'NONE',  ( -9.743766476457807860E-16, 1.000000000000000000, 0.000000000000000000 ) ) ;
#97 = ORIENTED_EDGE ( 'NONE', *, *, #791, .T. ) ;
#98 = CARTESIAN_POINT ( 'NONE',  ( 16.29999999999877502, -1.734723475976807094E-15, 20.00000000000000000 ) ) ;
#99 = ORIENTED_EDGE ( 'NONE', *, *, #796, .F. ) ;
#100 = ORIENTED_EDGE ( 'NONE', *, *, #859, .T. ) ;
#101 = EDGE_CURVE ( 'NONE', #219, #525, #23, .T. ) ;
#102 = AXIS2_PLACEMENT_3D ( 'NONE', #577, #645, #227 ) ;
#103 = PLANE ( 'NONE',  #276 ) ;
#104 = CARTESIAN_POINT ( 'NONE',  ( 16.89999999999879776, -6.100000000000001421, -9.436630754670868981 ) ) ;
#105 = CARTESIAN_POINT ( 'NONE',  ( 6.849999999998757971, -25.50000000000002132, 0.000000000000000000 ) ) ;
#106 = DIRECTION ( 'NONE',  ( 1.000000000000000000, 0.000000000000000000, 0.000000000000000000 ) ) ;
#107 = CIRCLE ( 'NONE', #177, 0.6000000000000137446 ) ;
#108 = VECTOR ( 'NONE', #570, 1000.000000000000227 ) ;
#109 = ORIENTED_EDGE ( 'NONE', *, *, #603, .T. ) ;
#110 = FILL_AREA_STYLE_COLOUR ( '', #636 ) ;
#111 = EDGE_LOOP ( 'NONE', ( #336, #786 ) ) ;
#112 = CARTESIAN_POINT ( 'NONE',  ( 16.89999999999881197, -21.96410161513770376, 20.00000000000000000 ) ) ;
#113 = ADVANCED_FACE ( 'NONE', ( #814 ), #17, .F. ) ;
#114 = ORIENTED_EDGE ( 'NONE', *, *, #252, .T. ) ;
#115 =( LENGTH_UNIT ( ) NAMED_UNIT ( * ) SI_UNIT ( .MILLI., .METRE. ) );
#116 = DIRECTION ( 'NONE',  ( -0.000000000000000000, -0.000000000000000000, -1.000000000000000000 ) ) ;
#117 = EDGE_CURVE ( 'NONE', #4, #158, #35, .T. ) ;
#118 = LINE ( 'NONE', #433, #530 ) ;
#119 = CARTESIAN_POINT ( 'NONE',  ( -1.240327285323417073E-12, -6.999999999999997335, 0.000000000000000000 ) ) ;
#120 = CYLINDRICAL_SURFACE ( 'NONE', #817, 1.850000000000001865 ) ;
#121 = DIRECTION ( 'NONE',  ( 0.000000000000000000, 0.000000000000000000, 1.000000000000000000 ) ) ;
#122 = EDGE_LOOP ( 'NONE', ( #523, #858, #99, #618, #641, #61, #664, #302, #745, #250, #609, #109, #275, #544, #206, #311 ) ) ;
#123 = PRODUCT_RELATED_PRODUCT_CATEGORY ( 'part', '', ( #537 ) ) ;
#124 = EDGE_LOOP ( 'NONE', ( #169, #474, #69, #365 ) ) ;
#125 = DIRECTION ( 'NONE',  ( -1.000000000000000000, 0.000000000000000000, 0.000000000000000000 ) ) ;
#126 = DIRECTION ( 'NONE',  ( -0.7952771214321243676, -0.6062460722566654914, 0.000000000000000000 ) ) ;
#127 = EDGE_CURVE ( 'NONE', #49, #533, #749, .T. ) ;
#128 = DIRECTION ( 'NONE',  ( -1.000000000000000000, 0.000000000000000000, 0.000000000000000000 ) ) ;
#129 = LINE ( 'NONE', #393, #562 ) ;
#130 = CIRCLE ( 'NONE', #290, 2.000000000000038192 ) ;
#131 = CARTESIAN_POINT ( 'NONE',  ( 9.699999999998798472, -9.249628732243218494E-16, 20.00000000000000000 ) ) ;
#132 = LINE ( 'NONE', #457, #673 ) ;
#133 = DIRECTION ( 'NONE',  ( -0.000000000000000000, -0.000000000000000000, -1.000000000000000000 ) ) ;
#134 = ORIENTED_EDGE ( 'NONE', *, *, #585, .T. ) ;
#135 = ORIENTED_EDGE ( 'NONE', *, *, #101, .F. ) ;
#136 = EDGE_CURVE ( 'NONE', #741, #588, #563, .T. ) ;
#137 = DIRECTION ( 'NONE',  ( 0.000000000000000000, 0.000000000000000000, 1.000000000000000000 ) ) ;
#138 = DIRECTION ( 'NONE',  ( -1.000000000000000000, -3.920037374278832208E-15, 0.000000000000000000 ) ) ;
#139 = VECTOR ( 'NONE', #723, 1000.000000000000000 ) ;
#140 = EDGE_CURVE ( 'NONE', #440, #743, #300, .T. ) ;
#141 = LINE ( 'NONE', #704, #228 ) ;
#142 = DIRECTION ( 'NONE',  ( -1.000000000000000000, 0.000000000000000000, 0.000000000000000000 ) ) ;
#143 = ORIENTED_EDGE ( 'NONE', *, *, #293, .T. ) ;
#144 = ORIENTED_EDGE ( 'NONE', *, *, #150, .F. ) ;
#145 = MECHANICAL_DESIGN_GEOMETRIC_PRESENTATION_REPRESENTATION (  '', ( #53 ), #196 ) ;
#146 = DIRECTION ( 'NONE',  ( -1.000000000000000000, 0.000000000000000000, 0.000000000000000000 ) ) ;
#147 = EDGE_LOOP ( 'NONE', ( #795, #100, #26, #502 ) ) ;
#148 = ADVANCED_FACE ( 'NONE', ( #485 ), #737, .F. ) ;
#149 = CARTESIAN_POINT ( 'NONE',  ( 12.79999999999879812, -6.100000000000001421, -9.436630754670868981 ) ) ;
#150 = EDGE_CURVE ( 'NONE', #183, #172, #889, .T. ) ;
#151 = DIRECTION ( 'NONE',  ( 0.000000000000000000, 0.000000000000000000, 1.000000000000000000 ) ) ;
#152 = CARTESIAN_POINT ( 'NONE',  ( 9.699999999998798472, -1.774098415141103416E-15, -9.436630754670868981 ) ) ;
#153 = DIRECTION ( 'NONE',  ( -0.000000000000000000, -0.000000000000000000, -1.000000000000000000 ) ) ;
#154 = FACE_OUTER_BOUND ( 'NONE', #5, .T. ) ;
#155 = EDGE_CURVE ( 'NONE', #743, #204, #86, .T. ) ;
#156 = CYLINDRICAL_SURFACE ( 'NONE', #243, 2.000000000000000000 ) ;
#157 = VECTOR ( 'NONE', #479, 1000.000000000000000 ) ;
#158 = VERTEX_POINT ( 'NONE', #27 ) ;
#159 = DIRECTION ( 'NONE',  ( 0.000000000000000000, -1.000000000000000000, 0.000000000000000000 ) ) ;
#160 = CARTESIAN_POINT ( 'NONE',  ( 12.82822346934435487, -29.24317606909949419, 20.00000000000000000 ) ) ;
#161 = AXIS2_PLACEMENT_3D ( 'NONE', #347, #496, #418 ) ;
#162 = DIRECTION ( 'NONE',  ( -9.743766476457807860E-16, 1.000000000000000000, 0.000000000000000000 ) ) ;
#163 = DIRECTION ( 'NONE',  ( -1.000000000000000000, 0.000000000000000000, 0.000000000000000000 ) ) ;
#164 = CARTESIAN_POINT ( 'NONE',  ( 8.437113324140291581, -32.59055424286425051, 20.00000000000000000 ) ) ;
#165 = LINE ( 'NONE', #56, #669 ) ;
#166 = LINE ( 'NONE', #105, #881 ) ;
#167 = EDGE_CURVE ( 'NONE', #525, #851, #532, .T. ) ;
#168 = VERTEX_POINT ( 'NONE', #729 ) ;
#169 = ORIENTED_EDGE ( 'NONE', *, *, #383, .T. ) ;
#170 = DIRECTION ( 'NONE',  ( -1.000000000000000000, 0.000000000000000000, 0.000000000000000000 ) ) ;
#171 = DIRECTION ( 'NONE',  ( 0.000000000000000000, 0.000000000000000000, 1.000000000000000000 ) ) ;
#172 = VERTEX_POINT ( 'NONE', #444 ) ;
#173 = PLANE ( 'NONE',  #430 ) ;
#174 = CARTESIAN_POINT ( 'NONE',  ( 16.89999999999877645, -0.6000000000000033085, 0.000000000000000000 ) ) ;
#175 = EDGE_CURVE ( 'NONE', #752, #272, #214, .T. ) ;
#176 = DIRECTION ( 'NONE',  ( 1.000000000000000000, 8.006416042969877077E-16, -0.000000000000000000 ) ) ;
#177 = AXIS2_PLACEMENT_3D ( 'NONE', #514, #171, #371 ) ;
#178 =( NAMED_UNIT ( * ) SI_UNIT ( $, .STERADIAN. ) SOLID_ANGLE_UNIT ( ) );
#179 = LINE ( 'NONE', #373, #803 ) ;
#180 = CYLINDRICAL_SURFACE ( 'NONE', #724, 1.850000000000000977 ) ;
#181 = LINE ( 'NONE', #819, #625 ) ;
#182 = EDGE_CURVE ( 'NONE', #15, #72, #2, .T. ) ;
#183 = VERTEX_POINT ( 'NONE', #174 ) ;
#184 = DIRECTION ( 'NONE',  ( -0.000000000000000000, -0.000000000000000000, 1.000000000000000000 ) ) ;
#185 = VERTEX_POINT ( 'NONE', #191 ) ;
#186 = DIRECTION ( 'NONE',  ( -0.000000000000000000, -0.000000000000000000, -1.000000000000000000 ) ) ;
#187 = SURFACE_STYLE_USAGE ( .BOTH. , #540 ) ;
#188 = CIRCLE ( 'NONE', #372, 1.850000000000002309 ) ;
#189 = ORIENTED_EDGE ( 'NONE', *, *, #193, .T. ) ;
#190 = PLANE ( 'NONE',  #475 ) ;
#191 = CARTESIAN_POINT ( 'NONE',  ( 12.82822346934435487, -29.24317606909949419, 0.000000000000000000 ) ) ;
#192 = ORIENTED_EDGE ( 'NONE', *, *, #750, .F. ) ;
#193 = EDGE_CURVE ( 'NONE', #752, #237, #181, .T. ) ;
#194 = VERTEX_POINT ( 'NONE', #265 ) ;
#195 = CARTESIAN_POINT ( 'NONE',  ( 16.29999999999877502, -8.673617379884035472E-16, 20.00000000000000000 ) ) ;
#196 =( GEOMETRIC_REPRESENTATION_CONTEXT ( 3 ) GLOBAL_UNCERTAINTY_ASSIGNED_CONTEXT ( ( #882 ) ) GLOBAL_UNIT_ASSIGNED_CONTEXT ( ( #115, #534, #755 ) ) REPRESENTATION_CONTEXT ( 'NONE', 'WORKASPACE' ) );
#197 = DIRECTION ( 'NONE',  ( -1.000000000000000000, 0.000000000000000000, 0.000000000000000000 ) ) ;
#198 = DIRECTION ( 'NONE',  ( -1.000000000000000000, 1.226910004170436388E-16, 0.000000000000000000 ) ) ;
#199 = SURFACE_STYLE_FILL_AREA ( #266 ) ;
#200 = CARTESIAN_POINT ( 'NONE',  ( 12.79999999999879812, -6.100000000000001421, 4.000000000000000000 ) ) ;
#201 = VECTOR ( 'NONE', #611, 1000.000000000000000 ) ;
#202 = ORIENTED_EDGE ( 'NONE', *, *, #828, .F. ) ;
#203 = DIRECTION ( 'NONE',  ( 0.000000000000000000, 0.000000000000000000, 1.000000000000000000 ) ) ;
#204 = VERTEX_POINT ( 'NONE', #331 ) ;
#205 = CARTESIAN_POINT ( 'NONE',  ( 14.49999999999877254, -6.999999999999999112, 20.00000000000000000 ) ) ;
#206 = ORIENTED_EDGE ( 'NONE', *, *, #127, .T. ) ;
#207 = ADVANCED_FACE ( 'NONE', ( #856 ), #103, .F. ) ;
#208 = CARTESIAN_POINT ( 'NONE',  ( 9.699999999998798472, -1.774098415141103416E-15, 4.000000000000000000 ) ) ;
#209 = DIRECTION ( 'NONE',  ( -1.000000000000000000, 0.000000000000000000, 0.000000000000000000 ) ) ;
#210 = EDGE_CURVE ( 'NONE', #204, #246, #699, .T. ) ;
#211 = DIRECTION ( 'NONE',  ( -1.000000000000000000, 0.000000000000000000, 0.000000000000000000 ) ) ;
#212 = FACE_BOUND ( 'NONE', #676, .T. ) ;
#213 = CARTESIAN_POINT ( 'NONE',  ( -1.243796732275370687E-12, -6.999999999999997335, 0.000000000000000000 ) ) ;
#214 = CIRCLE ( 'NONE', #551, 0.6000000000000033085 ) ;
#215 = DIRECTION ( 'NONE',  ( 0.000000000000000000, 0.000000000000000000, 1.000000000000000000 ) ) ;
#216 = ORIENTED_EDGE ( 'NONE', *, *, #613, .T. ) ;
#217 = VERTEX_POINT ( 'NONE', #317 ) ;
#218 = ADVANCED_FACE ( 'NONE', ( #415 ), #351, .T. ) ;
#219 = VERTEX_POINT ( 'NONE', #547 ) ;
#220 = EDGE_CURVE ( 'NONE', #172, #464, #236, .T. ) ;
#221 = DIRECTION ( 'NONE',  ( -1.000000000000000000, 0.000000000000000000, 0.000000000000000000 ) ) ;
#222 = UNCERTAINTY_MEASURE_WITH_UNIT (LENGTH_MEASURE( 1.000000000000000082E-05 ), #531, 'distance_accuracy_value', 'NONE');
#223 = ADVANCED_FACE ( 'NONE', ( #708, #541, #518 ), #694, .T. ) ;
#224 = STYLED_ITEM ( 'NONE', ( #725 ), #443 ) ;
#225 = LINE ( 'NONE', #346, #31 ) ;
#226 = VECTOR ( 'NONE', #40, 1000.000000000000000 ) ;
#227 = DIRECTION ( 'NONE',  ( 1.000000000000000000, 0.000000000000000000, 0.000000000000000000 ) ) ;
#228 = VECTOR ( 'NONE', #778, 1000.000000000000000 ) ;
#229 = DIRECTION ( 'NONE',  ( -0.000000000000000000, 0.000000000000000000, -1.000000000000000000 ) ) ;
#230 = ORIENTED_EDGE ( 'NONE', *, *, #241, .F. ) ;
#231 = AXIS2_PLACEMENT_3D ( 'NONE', #342, #703, #412 ) ;
#232 = DIRECTION ( 'NONE',  ( -0.000000000000000000, -0.000000000000000000, 1.000000000000000000 ) ) ;
#233 = ORIENTED_EDGE ( 'NONE', *, *, #492, .F. ) ;
#234 = UNCERTAINTY_MEASURE_WITH_UNIT (LENGTH_MEASURE( 1.000000000000000082E-05 ), #529, 'distance_accuracy_value', 'NONE');
#235 = CIRCLE ( 'NONE', #633, 1.850000000000002309 ) ;
#236 = LINE ( 'NONE', #754, #436 ) ;
#237 = VERTEX_POINT ( 'NONE', #208 ) ;
#238 = EDGE_LOOP ( 'NONE', ( #827, #114, #453, #335 ) ) ;
#239 = EDGE_LOOP ( 'NONE', ( #71, #861, #586, #700 ) ) ;
#240 = EDGE_CURVE ( 'NONE', #788, #158, #549, .T. ) ;
#241 = EDGE_CURVE ( 'NONE', #850, #49, #868, .T. ) ;
#242 = DIRECTION ( 'NONE',  ( 1.000000000000000000, 0.000000000000000000, 0.000000000000000000 ) ) ;
#243 = AXIS2_PLACEMENT_3D ( 'NONE', #558, #621, #209 ) ;
#244 = CYLINDRICAL_SURFACE ( 'NONE', #897, 2.000000000000000000 ) ;
#245 = FILL_AREA_STYLE ('',( #44 ) ) ;
#246 = VERTEX_POINT ( 'NONE', #277 ) ;
#247 = ORIENTED_EDGE ( 'NONE', *, *, #690, .T. ) ;
#248 = DIRECTION ( 'NONE',  ( 1.000000000000000000, 0.000000000000000000, 0.000000000000000000 ) ) ;
#249 = PRODUCT_CONTEXT ( 'NONE', #29, 'mechanical' ) ;
#250 = ORIENTED_EDGE ( 'NONE', *, *, #155, .T. ) ;
#251 = CARTESIAN_POINT ( 'NONE',  ( 1.914293821956972064, -32.39999999999999858, 20.00000000000000000 ) ) ;
#252 = EDGE_CURVE ( 'NONE', #777, #282, #330, .T. ) ;
#253 = DIRECTION ( 'NONE',  ( -1.000000000000000000, 0.000000000000000000, 0.000000000000000000 ) ) ;
#254 = CARTESIAN_POINT ( 'NONE',  ( 14.89999999999877289, -21.96410161513770376, 20.00000000000000000 ) ) ;
#255 = AXIS2_PLACEMENT_3D ( 'NONE', #695, #696, #556 ) ;
#256 =( NAMED_UNIT ( * ) SI_UNIT ( $, .STERADIAN. ) SOLID_ANGLE_UNIT ( ) );
#257 = DIRECTION ( 'NONE',  ( 8.006416042969877077E-16, -1.000000000000000000, 0.000000000000000000 ) ) ;
#258 = DIRECTION ( 'NONE',  ( 1.000000000000000000, 0.000000000000000000, 0.000000000000000000 ) ) ;
#259 = PRODUCT_DEFINITION_SHAPE ( 'NONE', 'NONE',  #767 ) ;
#260 = LINE ( 'NONE', #195, #201 ) ;
#261 = EDGE_CURVE ( 'NONE', #741, #906, #760, .T. ) ;
#262 = EDGE_LOOP ( 'NONE', ( #7, #651, #872, #693 ) ) ;
#263 = DIRECTION ( 'NONE',  ( -0.000000000000000000, -0.000000000000000000, 1.000000000000000000 ) ) ;
#264 = DIRECTION ( 'NONE',  ( -0.000000000000000000, -0.000000000000000000, -1.000000000000000000 ) ) ;
#265 = CARTESIAN_POINT ( 'NONE',  ( 2.399999999998755129, -25.50000000000002132, 20.00000000000000000 ) ) ;
#266 = FILL_AREA_STYLE ('',( #110 ) ) ;
#267 = VECTOR ( 'NONE', #757, 1000.000000000000000 ) ;
#268 = FACE_OUTER_BOUND ( 'NONE', #837, .T. ) ;
#269 = DIRECTION ( 'NONE',  ( 1.000000000000000000, 0.000000000000000000, 0.000000000000000000 ) ) ;
#270 = ORIENTED_EDGE ( 'NONE', *, *, #734, .T. ) ;
#271 = CARTESIAN_POINT ( 'NONE',  ( 2.161037320745670787, 0.000000000000000000, 0.000000000000000000 ) ) ;
#272 = VERTEX_POINT ( 'NONE', #622 ) ;
#273 = ORIENTED_EDGE ( 'NONE', *, *, #220, .F. ) ;
#274 = DIRECTION ( 'NONE',  ( -0.000000000000000000, -0.000000000000000000, 1.000000000000000000 ) ) ;
#275 = ORIENTED_EDGE ( 'NONE', *, *, #65, .T. ) ;
#276 = AXIS2_PLACEMENT_3D ( 'NONE', #667, #459, #675 ) ;
#277 = CARTESIAN_POINT ( 'NONE',  ( 7.224621179626955936, -33.00000000000000000, 20.00000000000000000 ) ) ;
#278 = CARTESIAN_POINT ( 'NONE',  ( 16.29999999999877502, -9.297378334699153227E-16, 4.000000000000000000 ) ) ;
#279 = VECTOR ( 'NONE', #555, 1000.000000000000000 ) ;
#280 = CYLINDRICAL_SURFACE ( 'NONE', #909, 3.099999999999998757 ) ;
#281 = ORIENTED_EDGE ( 'NONE', *, *, #648, .T. ) ;
#282 = VERTEX_POINT ( 'NONE', #406 ) ;
#283 = ORIENTED_EDGE ( 'NONE', *, *, #798, .F. ) ;
#284 = DIRECTION ( 'NONE',  ( 0.7952771214321243676, 0.6062460722566654914, 0.000000000000000000 ) ) ;
#285 = ADVANCED_FACE ( 'NONE', ( #716 ), #308, .T. ) ;
#286 = EDGE_CURVE ( 'NONE', #237, #777, #686, .T. ) ;
#287 = CIRCLE ( 'NONE', #505, 1.850000000000001865 ) ;
#288 = FACE_OUTER_BOUND ( 'NONE', #262, .T. ) ;
#289 = CARTESIAN_POINT ( 'NONE',  ( 11.61573132483102100, -27.65262182623524723, 4.000000000000000000 ) ) ;
#290 = AXIS2_PLACEMENT_3D ( 'NONE', #571, #151, #642 ) ;
#291 = EDGE_LOOP ( 'NONE', ( #429, #389, #904, #488 ) ) ;
#292 = ORIENTED_EDGE ( 'NONE', *, *, #654, .T. ) ;
#293 = EDGE_CURVE ( 'NONE', #424, #464, #141, .T. ) ;
#294 = CARTESIAN_POINT ( 'NONE',  ( 9.699999999998798472, -1.774098415141103416E-15, 4.000000000000000000 ) ) ;
#295 = EDGE_CURVE ( 'NONE', #4, #388, #574, .T. ) ;
#296 = CARTESIAN_POINT ( 'NONE',  ( 2.161037320745670787, -0.6000000000000033085, 20.00000000000000000 ) ) ;
#297 = VECTOR ( 'NONE', #713, 1000.000000000000000 ) ;
#298 = LINE ( 'NONE', #709, #423 ) ;
#299 = CARTESIAN_POINT ( 'NONE',  ( 13.34778213239989775, -28.65262182623524723, 20.00000000000000000 ) ) ;
#300 = CIRCLE ( 'NONE', #356, 14.50000000000000711 ) ;
#301 = ORIENTED_EDGE ( 'NONE', *, *, #3, .F. ) ;
#302 = ORIENTED_EDGE ( 'NONE', *, *, #62, .T. ) ;
#303 = EDGE_CURVE ( 'NONE', #49, #367, #509, .T. ) ;
#304 = CARTESIAN_POINT ( 'NONE',  ( -1.243796732275370687E-12, -6.999999999999997335, 20.00000000000000000 ) ) ;
#305 = DIRECTION ( 'NONE',  ( -1.000000000000000000, 0.000000000000000000, 0.000000000000000000 ) ) ;
#306 = EDGE_CURVE ( 'NONE', #568, #185, #835, .T. ) ;
#307 = FACE_OUTER_BOUND ( 'NONE', #147, .T. ) ;
#308 = CYLINDRICAL_SURFACE ( 'NONE', #832, 14.50000000000001243 ) ;
#309 = EDGE_LOOP ( 'NONE', ( #552, #566, #416, #871 ) ) ;
#310 = DIRECTION ( 'NONE',  ( 0.000000000000000000, 0.000000000000000000, 1.000000000000000000 ) ) ;
#311 = ORIENTED_EDGE ( 'NONE', *, *, #578, .T. ) ;
#312 = DIRECTION ( 'NONE',  ( -0.000000000000000000, -0.000000000000000000, -1.000000000000000000 ) ) ;
#313 = DIRECTION ( 'NONE',  ( -0.000000000000000000, -0.000000000000000000, 1.000000000000000000 ) ) ;
#314 = AXIS2_PLACEMENT_3D ( 'NONE', #905, #203, #764 ) ;
#315 = CARTESIAN_POINT ( 'NONE',  ( 12.79999999999879812, -3.000000000000002665, 0.000000000000000000 ) ) ;
#316 = FACE_OUTER_BOUND ( 'NONE', #122, .T. ) ;
#317 = CARTESIAN_POINT ( 'NONE',  ( 2.399999999998755129, -25.50000000000002132, 4.000000000000000000 ) ) ;
#318 = CIRCLE ( 'NONE', #884, 2.600000000000000533 ) ;
#319 = EDGE_CURVE ( 'NONE', #440, #219, #14, .T. ) ;
#320 = CYLINDRICAL_SURFACE ( 'NONE', #396, 0.6000000000000288436 ) ;
#321 = VERTEX_POINT ( 'NONE', #742 ) ;
#322 = DIRECTION ( 'NONE',  ( -0.000000000000000000, 0.000000000000000000, 1.000000000000000000 ) ) ;
#323 = DIRECTION ( 'NONE',  ( -0.000000000000000000, -0.000000000000000000, -1.000000000000000000 ) ) ;
#324 = DIRECTION ( 'NONE',  ( -0.000000000000000000, -0.000000000000000000, 1.000000000000000000 ) ) ;
#325 = ADVANCED_FACE ( 'NONE', ( #68 ), #320, .T. ) ;
#326 = DIRECTION ( 'NONE',  ( -1.000000000000000000, 0.000000000000000000, 0.000000000000000000 ) ) ;
#327 = PRESENTATION_LAYER_ASSIGNMENT (  '', '', ( #224 ) ) ;
#328 = FACE_OUTER_BOUND ( 'NONE', #852, .T. ) ;
#329 = CARTESIAN_POINT ( 'NONE',  ( 9.699999999998800249, -3.000000000000002220, -9.436630754670868981 ) ) ;
#330 = LINE ( 'NONE', #896, #47 ) ;
#331 = CARTESIAN_POINT ( 'NONE',  ( 1.914293821956972064, -33.00000000000002842, 20.00000000000000000 ) ) ;
#332 = ORIENTED_EDGE ( 'NONE', *, *, #295, .F. ) ;
#333 = ORIENTED_EDGE ( 'NONE', *, *, #167, .F. ) ;
#334 = DIRECTION ( 'NONE',  ( -3.920037374278832208E-15, 1.000000000000000000, 0.000000000000000000 ) ) ;
#335 = ORIENTED_EDGE ( 'NONE', *, *, #608, .F. ) ;
#336 = ORIENTED_EDGE ( 'NONE', *, *, #392, .T. ) ;
#337 = DIRECTION ( 'NONE',  ( -0.000000000000000000, -0.000000000000000000, -1.000000000000000000 ) ) ;
#338 = FACE_OUTER_BOUND ( 'NONE', #408, .T. ) ;
#339 = LINE ( 'NONE', #891, #698 ) ;
#340 = EDGE_CURVE ( 'NONE', #752, #172, #260, .T. ) ;
#341 = LINE ( 'NONE', #879, #903 ) ;
#342 = CARTESIAN_POINT ( 'NONE',  ( 4.999999999998756550, -25.50000000000002132, 0.000000000000000000 ) ) ;
#343 = ORIENTED_EDGE ( 'NONE', *, *, #62, .F. ) ;
#344 = CARTESIAN_POINT ( 'NONE',  ( 4.999999999998756550, -25.50000000000002132, 0.000000000000000000 ) ) ;
#345 = AXIS2_PLACEMENT_3D ( 'NONE', #801, #446, #526 ) ;
#346 = CARTESIAN_POINT ( 'NONE',  ( 7.599999999998757083, -25.50000000000002132, -9.436630754670868981 ) ) ;
#347 = CARTESIAN_POINT ( 'NONE',  ( 12.79999999999879812, -3.000000000000002665, 0.000000000000000000 ) ) ;
#348 = ADVANCED_FACE ( 'NONE', ( #387 ), #190, .F. ) ;
#349 = LINE ( 'NONE', #840, #866 ) ;
#350 = DIRECTION ( 'NONE',  ( -0.000000000000000000, -0.000000000000000000, 1.000000000000000000 ) ) ;
#351 = CYLINDRICAL_SURFACE ( 'NONE', #33, 2.000000000000038192 ) ;
#352 = VERTEX_POINT ( 'NONE', #52 ) ;
#353 = EDGE_CURVE ( 'NONE', #797, #450, #615, .T. ) ;
#354 = EDGE_LOOP ( 'NONE', ( #454, #640, #630, #97 ) ) ;
#355 = EDGE_LOOP ( 'NONE', ( #575, #233, #610, #87 ) ) ;
#356 = AXIS2_PLACEMENT_3D ( 'NONE', #516, #596, #374 ) ;
#357 = CARTESIAN_POINT ( 'NONE',  ( 8.437113324140291581, -32.59055424286425051, 0.000000000000000000 ) ) ;
#358 = PLANE ( 'NONE',  #644 ) ;
#359 = CARTESIAN_POINT ( 'NONE',  ( 16.89999999999879776, -6.100000000000001421, 20.00000000000000000 ) ) ;
#360 = CIRCLE ( 'NONE', #11, 14.50000000000001066 ) ;
#361 = CIRCLE ( 'NONE', #772, 2.600000000000000533 ) ;
#362 = AXIS2_PLACEMENT_3D ( 'NONE', #90, #380, #242 ) ;
#363 = VECTOR ( 'NONE', #153, 1000.000000000000000 ) ;
#364 = DIRECTION ( 'NONE',  ( -1.000000000000000000, 0.000000000000000000, 0.000000000000000000 ) ) ;
#365 = ORIENTED_EDGE ( 'NONE', *, *, #734, .F. ) ;
#366 = EDGE_CURVE ( 'NONE', #661, #168, #235, .T. ) ;
#367 = VERTEX_POINT ( 'NONE', #42 ) ;
#368 = CARTESIAN_POINT ( 'NONE',  ( 7.599999999998757083, -25.50000000000002132, 20.00000000000000000 ) ) ;
#369 = ADVANCED_FACE ( 'NONE', ( #821 ), #594, .F. ) ;
#370 = DIRECTION ( 'NONE',  ( 0.000000000000000000, 0.000000000000000000, 1.000000000000000000 ) ) ;
#371 = DIRECTION ( 'NONE',  ( 1.000000000000000000, 0.000000000000000000, 0.000000000000000000 ) ) ;
#372 = AXIS2_PLACEMENT_3D ( 'NONE', #554, #849, #211 ) ;
#373 = CARTESIAN_POINT ( 'NONE',  ( 12.79999999999879812, -6.100000000000001421, 20.00000000000000000 ) ) ;
#374 = DIRECTION ( 'NONE',  ( 1.000000000000000000, 0.000000000000000000, 0.000000000000000000 ) ) ;
#375 = CIRCLE ( 'NONE', #545, 14.50000000000001066 ) ;
#376 = CARTESIAN_POINT ( 'NONE',  ( 14.64999999999879954, -3.000000000000002665, 0.000000000000000000 ) ) ;
#377 = CIRCLE ( 'NONE', #895, 1.850000000000000977 ) ;
#378 = ORIENTED_EDGE ( 'NONE', *, *, #775, .T. ) ;
#379 = EDGE_CURVE ( 'NONE', #272, #183, #386, .T. ) ;
#380 = DIRECTION ( 'NONE',  ( 0.000000000000000000, 0.000000000000000000, 1.000000000000000000 ) ) ;
#381 = ORIENTED_EDGE ( 'NONE', *, *, #175, .T. ) ;
#382 = DIRECTION ( 'NONE',  ( 1.000000000000000000, 0.000000000000000000, 0.000000000000000000 ) ) ;
#383 = EDGE_CURVE ( 'NONE', #321, #282, #76, .T. ) ;
#384 = AXIS2_PLACEMENT_3D ( 'NONE', #80, #634, #221 ) ;
#385 = DIRECTION ( 'NONE',  ( 0.000000000000000000, 0.000000000000000000, 1.000000000000000000 ) ) ;
#386 = LINE ( 'NONE', #886, #226 ) ;
#387 = FACE_OUTER_BOUND ( 'NONE', #238, .T. ) ;
#388 = VERTEX_POINT ( 'NONE', #50 ) ;
#389 = ORIENTED_EDGE ( 'NONE', *, *, #690, .F. ) ;
#390 = CARTESIAN_POINT ( 'NONE',  ( 16.89999999999881197, -21.96410161513770376, 20.00000000000000000 ) ) ;
#391 = ORIENTED_EDGE ( 'NONE', *, *, #379, .T. ) ;
#392 = EDGE_CURVE ( 'NONE', #718, #217, #771, .T. ) ;
#393 = CARTESIAN_POINT ( 'NONE',  ( 1.914293821956972064, -33.00000000000002842, 20.00000000000000000 ) ) ;
#394 = MANIFOLD_SOLID_BREP ( 'Schnitt-Linear austragen2', #692 ) ;
#395 = DIRECTION ( 'NONE',  ( 1.000000000000000000, 0.000000000000000000, 0.000000000000000000 ) ) ;
#396 = AXIS2_PLACEMENT_3D ( 'NONE', #251, #519, #170 ) ;
#397 = DIRECTION ( 'NONE',  ( 0.000000000000000000, 0.000000000000000000, 1.000000000000000000 ) ) ;
#398 = VECTOR ( 'NONE', #484, 1000.000000000000000 ) ;
#399 = EDGE_LOOP ( 'NONE', ( #189, #815, #270, #637, #78, #638 ) ) ;
#400 = CARTESIAN_POINT ( 'NONE',  ( 7.599999999998757083, -25.50000000000002132, 4.000000000000000000 ) ) ;
#401 = ORIENTED_EDGE ( 'NONE', *, *, #193, .F. ) ;
#402 = CARTESIAN_POINT ( 'NONE',  ( 4.999999999998756550, -25.50000000000002132, 4.000000000000000000 ) ) ;
#403 = DIRECTION ( 'NONE',  ( -1.000000000000000000, 0.000000000000000000, 0.000000000000000000 ) ) ;
#404 = DIRECTION ( 'NONE',  ( -1.000000000000000000, 0.000000000000000000, 0.000000000000000000 ) ) ;
#405 = LINE ( 'NONE', #213, #267 ) ;
#406 = CARTESIAN_POINT ( 'NONE',  ( 9.699999999998800249, -3.000000000000002220, 20.00000000000000000 ) ) ;
#407 = ORIENTED_EDGE ( 'NONE', *, *, #425, .F. ) ;
#408 = EDGE_LOOP ( 'NONE', ( #500, #471, #60, #25, #281, #427 ) ) ;
#409 = PLANE ( 'NONE',  #602 ) ;
#410 = EDGE_LOOP ( 'NONE', ( #79, #401, #627, #565, #824, #762 ) ) ;
#411 = DIRECTION ( 'NONE',  ( -0.000000000000000000, 0.000000000000000000, -1.000000000000000000 ) ) ;
#412 = DIRECTION ( 'NONE',  ( 1.000000000000000000, 0.000000000000000000, 0.000000000000000000 ) ) ;
#413 = VECTOR ( 'NONE', #679, 1000.000000000000000 ) ;
#414 = CARTESIAN_POINT ( 'NONE',  ( 16.63205080756765497, -22.96410161513780324, 20.00000000000000000 ) ) ;
#415 = FACE_OUTER_BOUND ( 'NONE', #354, .T. ) ;
#416 = ORIENTED_EDGE ( 'NONE', *, *, #155, .F. ) ;
#417 = EDGE_LOOP ( 'NONE', ( #332, #826, #37, #805 ) ) ;
#418 = DIRECTION ( 'NONE',  ( 1.000000000000000000, 0.000000000000000000, 0.000000000000000000 ) ) ;
#419 = ORIENTED_EDGE ( 'NONE', *, *, #494, .T. ) ;
#420 = CARTESIAN_POINT ( 'NONE',  ( 14.64999999999879954, -3.000000000000002665, 4.000000000000000000 ) ) ;
#421 = AXIS2_PLACEMENT_3D ( 'NONE', #12, #334, #138 ) ;
#422 = LINE ( 'NONE', #82, #593 ) ;
#423 = VECTOR ( 'NONE', #426, 1000.000000000000000 ) ;
#424 = VERTEX_POINT ( 'NONE', #818 ) ;
#425 = EDGE_CURVE ( 'NONE', #851, #841, #339, .T. ) ;
#426 = DIRECTION ( 'NONE',  ( -0.000000000000000000, -0.000000000000000000, 1.000000000000000000 ) ) ;
#427 = ORIENTED_EDGE ( 'NONE', *, *, #843, .T. ) ;
#428 = CARTESIAN_POINT ( 'NONE',  ( 10.94999999999879670, -3.000000000000002220, 0.000000000000000000 ) ) ;
#429 = ORIENTED_EDGE ( 'NONE', *, *, #306, .T. ) ;
#430 = AXIS2_PLACEMENT_3D ( 'NONE', #515, #855, #653 ) ;
#431 = DIRECTION ( 'NONE',  ( 1.000000000000000000, 0.000000000000000000, 0.000000000000000000 ) ) ;
#432 = DIRECTION ( 'NONE',  ( -0.5000000000000023315, -0.8660254037844372643, 0.000000000000000000 ) ) ;
#433 = CARTESIAN_POINT ( 'NONE',  ( 16.89999999999879776, -21.96410161513770376, 0.000000000000000000 ) ) ;
#434 = LINE ( 'NONE', #112, #413 ) ;
#435 = AXIS2_PLACEMENT_3D ( 'NONE', #6, #74, #142 ) ;
#436 = VECTOR ( 'NONE', #198, 1000.000000000000000 ) ;
#437 = ORIENTED_EDGE ( 'NONE', *, *, #689, .F. ) ;
#438 = ADVANCED_FACE ( 'NONE', ( #658 ), #180, .F. ) ;
#439 = CARTESIAN_POINT ( 'NONE',  ( 1.914293821956972064, -32.39999999999999858, 20.00000000000000000 ) ) ;
#440 = VERTEX_POINT ( 'NONE', #746 ) ;
#441 = VERTEX_POINT ( 'NONE', #607 ) ;
#442 = DIRECTION ( 'NONE',  ( 0.000000000000000000, 0.000000000000000000, 1.000000000000000000 ) ) ;
#443 = ADVANCED_BREP_SHAPE_REPRESENTATION ( '21631_03_192_Nut Shuttle spacer', ( #394, #670 ), #480 ) ;
#444 = CARTESIAN_POINT ( 'NONE',  ( 16.29999999999877502, -8.673617379884035472E-16, 0.000000000000000000 ) ) ;
#445 = PLANE ( 'NONE',  #41 ) ;
#446 = DIRECTION ( 'NONE',  ( 0.000000000000000000, 0.000000000000000000, 1.000000000000000000 ) ) ;
#447 = PLANE ( 'NONE',  #421 ) ;
#448 = VECTOR ( 'NONE', #546, 1000.000000000000000 ) ;
#449 = CARTESIAN_POINT ( 'NONE',  ( 0.000000000000000000, 0.000000000000000000, 0.000000000000000000 ) ) ;
#450 = VERTEX_POINT ( 'NONE', #119 ) ;
#451 = ORIENTED_EDGE ( 'NONE', *, *, #117, .F. ) ;
#452 = DIRECTION ( 'NONE',  ( -0.000000000000000000, -0.000000000000000000, -1.000000000000000000 ) ) ;
#453 = ORIENTED_EDGE ( 'NONE', *, *, #383, .F. ) ;
#454 = ORIENTED_EDGE ( 'NONE', *, *, #747, .T. ) ;
#455 = DIRECTION ( 'NONE',  ( 0.000000000000000000, 0.000000000000000000, 1.000000000000000000 ) ) ;
#456 = AXIS2_PLACEMENT_3D ( 'NONE', #487, #476, #269 ) ;
#457 = CARTESIAN_POINT ( 'NONE',  ( 8.437113324140293358, -32.59055424286425051, 20.00000000000000000 ) ) ;
#458 = CARTESIAN_POINT ( 'NONE',  ( 12.79999999999879812, -3.000000000000002665, 0.000000000000000000 ) ) ;
#459 = DIRECTION ( 'NONE',  ( -1.226910004170436388E-16, -1.000000000000000000, 0.000000000000000000 ) ) ;
#460 = CARTESIAN_POINT ( 'NONE',  ( 4.999999999998756550, -25.50000000000002132, 4.000000000000000000 ) ) ;
#461 = VECTOR ( 'NONE', #452, 1000.000000000000000 ) ;
#462 = ADVANCED_FACE ( 'NONE', ( #785 ), #244, .T. ) ;
#463 = ORIENTED_EDGE ( 'NONE', *, *, #521, .F. ) ;
#464 = VERTEX_POINT ( 'NONE', #271 ) ;
#465 = CARTESIAN_POINT ( 'NONE',  ( 4.999999999998756550, -25.50000000000002132, -9.436630754670868981 ) ) ;
#466 = DIRECTION ( 'NONE',  ( 1.000000000000000000, 0.000000000000000000, 0.000000000000000000 ) ) ;
#467 = ADVANCED_FACE ( 'NONE', ( #671, #647 ), #620, .F. ) ;
#468 = CARTESIAN_POINT ( 'NONE',  ( 11.61573132483102100, -27.65262182623524723, 20.00000000000000000 ) ) ;
#469 = LINE ( 'NONE', #98, #93 ) ;
#470 = FACE_OUTER_BOUND ( 'NONE', #355, .T. ) ;
#471 = ORIENTED_EDGE ( 'NONE', *, *, #612, .F. ) ;
#472 = CARTESIAN_POINT ( 'NONE',  ( 11.61573132483102100, -27.65262182623524723, 4.000000000000000000 ) ) ;
#473 = DIRECTION ( 'NONE',  ( 0.000000000000000000, -1.000000000000000000, 0.000000000000000000 ) ) ;
#474 = ORIENTED_EDGE ( 'NONE', *, *, #796, .T. ) ;
#475 = AXIS2_PLACEMENT_3D ( 'NONE', #683, #672, #322 ) ;
#476 = DIRECTION ( 'NONE',  ( 0.000000000000000000, 0.000000000000000000, 1.000000000000000000 ) ) ;
#477 = ORIENTED_EDGE ( 'NONE', *, *, #876, .T. ) ;
#478 = EDGE_CURVE ( 'NONE', #743, #525, #45, .T. ) ;
#479 = DIRECTION ( 'NONE',  ( 1.000000000000000000, 3.920037374278832208E-15, 0.000000000000000000 ) ) ;
#480 =( GEOMETRIC_REPRESENTATION_CONTEXT ( 3 ) GLOBAL_UNCERTAINTY_ASSIGNED_CONTEXT ( ( #222 ) ) GLOBAL_UNIT_ASSIGNED_CONTEXT ( ( #531, #807, #178 ) ) REPRESENTATION_CONTEXT ( 'NONE', 'WORKASPACE' ) );
#481 = CARTESIAN_POINT ( 'NONE',  ( 12.79999999999879812, -6.100000000000001421, 3.999999999999996447 ) ) ;
#482 = VECTOR ( 'NONE', #38, 1000.000000000000000 ) ;
#483 = CIRCLE ( 'NONE', #81, 2.000000000000000000 ) ;
#484 = DIRECTION ( 'NONE',  ( 1.000000000000000000, 0.000000000000000000, 0.000000000000000000 ) ) ;
#485 = FACE_OUTER_BOUND ( 'NONE', #765, .T. ) ;
#486 = ORIENTED_EDGE ( 'NONE', *, *, #319, .F. ) ;
#487 = CARTESIAN_POINT ( 'NONE',  ( 14.89999999999877289, -21.96410161513770376, 0.000000000000000000 ) ) ;
#488 = ORIENTED_EDGE ( 'NONE', *, *, #3, .T. ) ;
#489 = AXIS2_PLACEMENT_3D ( 'NONE', #655, #733, #576 ) ;
#490 = ORIENTED_EDGE ( 'NONE', *, *, #392, .F. ) ;
#491 = ADVANCED_FACE ( 'NONE', ( #738 ), #409, .F. ) ;
#492 = EDGE_CURVE ( 'NONE', #441, #721, #605, .T. ) ;
#493 = CARTESIAN_POINT ( 'NONE',  ( -1.240327285323417073E-12, -6.999999999999997335, 20.00000000000000000 ) ) ;
#494 = EDGE_CURVE ( 'NONE', #816, #194, #361, .T. ) ;
#495 = CARTESIAN_POINT ( 'NONE',  ( 8.437113324140293358, -32.59055424286425051, 0.000000000000000000 ) ) ;
#496 = DIRECTION ( 'NONE',  ( -0.000000000000000000, -0.000000000000000000, 1.000000000000000000 ) ) ;
#497 = ADVANCED_FACE ( 'NONE', ( #268 ), #156, .T. ) ;
#498 = LINE ( 'NONE', #104, #482 ) ;
#499 = DIRECTION ( 'NONE',  ( 0.000000000000000000, 0.000000000000000000, 1.000000000000000000 ) ) ;
#500 = ORIENTED_EDGE ( 'NONE', *, *, #379, .F. ) ;
#501 = ORIENTED_EDGE ( 'NONE', *, *, #750, .T. ) ;
#502 = ORIENTED_EDGE ( 'NONE', *, *, #261, .F. ) ;
#503 = ORIENTED_EDGE ( 'NONE', *, *, #295, .T. ) ;
#504 = CARTESIAN_POINT ( 'NONE',  ( 16.63205080756765497, -22.96410161513780324, 20.00000000000000000 ) ) ;
#505 = AXIS2_PLACEMENT_3D ( 'NONE', #344, #834, #825 ) ;
#506 = SHAPE_DEFINITION_REPRESENTATION ( #259, #443 ) ;
#507 = CIRCLE ( 'NONE', #435, 2.000000000000000000 ) ;
#508 = CARTESIAN_POINT ( 'NONE',  ( 14.49999999999877254, -6.999999999999999112, 0.000000000000000000 ) ) ;
#509 = LINE ( 'NONE', #846, #461 ) ;
#510 = ORIENTED_EDGE ( 'NONE', *, *, #9, .F. ) ;
#511 = DIRECTION ( 'NONE',  ( -0.000000000000000000, -0.000000000000000000, -1.000000000000000000 ) ) ;
#512 = VERTEX_POINT ( 'NONE', #632 ) ;
#513 = DIRECTION ( 'NONE',  ( 9.743766476457807860E-16, -1.000000000000000000, 0.000000000000000000 ) ) ;
#514 = CARTESIAN_POINT ( 'NONE',  ( 2.161037320745670787, -0.6000000000000033085, 0.000000000000000000 ) ) ;
#515 = CARTESIAN_POINT ( 'NONE',  ( 12.79999999999879812, -6.100000000000001421, -9.436630754670868981 ) ) ;
#516 = CARTESIAN_POINT ( 'NONE',  ( 14.49999999999877254, -26.50000000000000355, 20.00000000000000000 ) ) ;
#517 = LINE ( 'NONE', #857, #888 ) ;
#518 = FACE_OUTER_BOUND ( 'NONE', #57, .T. ) ;
#519 = DIRECTION ( 'NONE',  ( -0.000000000000000000, -0.000000000000000000, -1.000000000000000000 ) ) ;
#520 = ORIENTED_EDGE ( 'NONE', *, *, #210, .F. ) ;
#521 = EDGE_CURVE ( 'NONE', #185, #367, #483, .T. ) ;
#522 = CARTESIAN_POINT ( 'NONE',  ( 16.89999999999879776, -21.96410161513770376, 20.00000000000000000 ) ) ;
#523 = ORIENTED_EDGE ( 'NONE', *, *, #182, .T. ) ;
#524 = EDGE_LOOP ( 'NONE', ( #787, #598 ) ) ;
#525 = VERTEX_POINT ( 'NONE', #844 ) ;
#526 = DIRECTION ( 'NONE',  ( 1.000000000000000000, 0.000000000000000000, 0.000000000000000000 ) ) ;
#527 = AXIS2_PLACEMENT_3D ( 'NONE', #809, #324, #466 ) ;
#528 = EDGE_CURVE ( 'NONE', #721, #661, #298, .T. ) ;
#529 =( LENGTH_UNIT ( ) NAMED_UNIT ( * ) SI_UNIT ( .MILLI., .METRE. ) );
#530 = VECTOR ( 'NONE', #162, 1000.000000000000000 ) ;
#531 =( LENGTH_UNIT ( ) NAMED_UNIT ( * ) SI_UNIT ( .MILLI., .METRE. ) );
#532 = CIRCLE ( 'NONE', #345, 0.6000000000000288436 ) ;
#533 = VERTEX_POINT ( 'NONE', #504 ) ;
#534 =( NAMED_UNIT ( * ) PLANE_ANGLE_UNIT ( ) SI_UNIT ( $, .RADIAN. ) );
#535 = ORIENTED_EDGE ( 'NONE', *, *, #127, .F. ) ;
#536 = CARTESIAN_POINT ( 'NONE',  ( -1.240327285323417073E-12, -6.999999999999997335, 20.00000000000000000 ) ) ;
#537 = PRODUCT ( '21631_03_192_Nut Shuttle spacer', '21631_03_192_Nut Shuttle spacer', '', ( #249 ) ) ;
#538 = AXIS2_PLACEMENT_3D ( 'NONE', #304, #176, #591 ) ;
#539 = SURFACE_SIDE_STYLE ('',( #635 ) ) ;
#540 = SURFACE_SIDE_STYLE ('',( #199 ) ) ;
#541 = FACE_BOUND ( 'NONE', #730, .T. ) ;
#542 = ORIENTED_EDGE ( 'NONE', *, *, #492, .T. ) ;
#543 = ORIENTED_EDGE ( 'NONE', *, *, #798, .T. ) ;
#544 = ORIENTED_EDGE ( 'NONE', *, *, #241, .T. ) ;
#545 = AXIS2_PLACEMENT_3D ( 'NONE', #508, #370, #863 ) ;
#546 = DIRECTION ( 'NONE',  ( -0.000000000000000000, -0.000000000000000000, -1.000000000000000000 ) ) ;
#547 = CARTESIAN_POINT ( 'NONE',  ( -1.228184220991579423E-12, -26.50000000000000355, 0.000000000000000000 ) ) ;
#548 = VECTOR ( 'NONE', #337, 1000.000000000000000 ) ;
#549 = CIRCLE ( 'NONE', #662, 1.850000000000000977 ) ;
#550 = ORIENTED_EDGE ( 'NONE', *, *, #843, .F. ) ;
#551 = AXIS2_PLACEMENT_3D ( 'NONE', #735, #312, #253 ) ;
#552 = ORIENTED_EDGE ( 'NONE', *, *, #167, .T. ) ;
#553 = ADVANCED_FACE ( 'NONE', ( #878 ), #573, .T. ) ;
#554 = CARTESIAN_POINT ( 'NONE',  ( 4.999999999998756550, -25.50000000000002132, 4.000000000000000000 ) ) ;
#555 = DIRECTION ( 'NONE',  ( 0.000000000000000000, 1.000000000000000000, 0.000000000000000000 ) ) ;
#556 = DIRECTION ( 'NONE',  ( -1.000000000000000000, 0.000000000000000000, 0.000000000000000000 ) ) ;
#557 = EDGE_LOOP ( 'NONE', ( #451, #510, #477, #48 ) ) ;
#558 = CARTESIAN_POINT ( 'NONE',  ( 7.224621179626957712, -31.00000000000000355, 20.00000000000000000 ) ) ;
#559 = CARTESIAN_POINT ( 'NONE',  ( -1.228184220991579423E-12, -26.50000000000000355, 20.00000000000000000 ) ) ;
#560 = CARTESIAN_POINT ( 'NONE',  ( 16.89999999999879776, -6.100000000000001421, 4.000000000000000000 ) ) ;
#561 = CARTESIAN_POINT ( 'NONE',  ( 11.61573132483102100, -27.65262182623524723, 0.000000000000000000 ) ) ;
#562 = VECTOR ( 'NONE', #822, 1000.000000000000000 ) ;
#563 = LINE ( 'NONE', #149, #793 ) ;
#564 = ADVANCED_FACE ( 'NONE', ( #212, #581 ), #358, .F. ) ;
#565 = ORIENTED_EDGE ( 'NONE', *, *, #220, .T. ) ;
#566 = ORIENTED_EDGE ( 'NONE', *, *, #674, .F. ) ;
#567 = MECHANICAL_DESIGN_GEOMETRIC_PRESENTATION_REPRESENTATION (  '', ( #224 ), #83 ) ;
#568 = VERTEX_POINT ( 'NONE', #357 ) ;
#569 = DIRECTION ( 'NONE',  ( -1.000000000000000000, 0.000000000000000000, 0.000000000000000000 ) ) ;
#570 = DIRECTION ( 'NONE',  ( 0.5000000000000023315, 0.8660254037844372643, 0.000000000000000000 ) ) ;
#571 = CARTESIAN_POINT ( 'NONE',  ( 14.89999999999877289, -21.96410161513770376, 20.00000000000000000 ) ) ;
#572 = CIRCLE ( 'NONE', #255, 2.000000000000000000 ) ;
#573 = CYLINDRICAL_SURFACE ( 'NONE', #384, 0.6000000000000033085 ) ;
#574 = CIRCLE ( 'NONE', #91, 1.850000000000000977 ) ;
#575 = ORIENTED_EDGE ( 'NONE', *, *, #528, .F. ) ;
#576 = DIRECTION ( 'NONE',  ( -1.000000000000000000, 0.000000000000000000, 0.000000000000000000 ) ) ;
#577 = CARTESIAN_POINT ( 'NONE',  ( 14.49999999999877254, -26.50000000000000355, 0.000000000000000000 ) ) ;
#578 = EDGE_CURVE ( 'NONE', #533, #15, #130, .T. ) ;
#579 = CARTESIAN_POINT ( 'NONE',  ( 14.49999999999877254, -26.50000000000000355, 20.00000000000000000 ) ) ;
#580 = AXIS2_PLACEMENT_3D ( 'NONE', #472, #830, #125 ) ;
#581 = FACE_OUTER_BOUND ( 'NONE', #399, .T. ) ;
#582 = DIRECTION ( 'NONE',  ( 1.000000000000000000, 0.000000000000000000, 0.000000000000000000 ) ) ;
#583 = VECTOR ( 'NONE', #232, 1000.000000000000000 ) ;
#584 = CARTESIAN_POINT ( 'NONE',  ( 1.914293821956972064, -33.00000000000002842, 0.000000000000000000 ) ) ;
#585 = EDGE_CURVE ( 'NONE', #194, #816, #318, .T. ) ;
#586 = ORIENTED_EDGE ( 'NONE', *, *, #140, .F. ) ;
#587 = VERTEX_POINT ( 'NONE', #631 ) ;
#588 = VERTEX_POINT ( 'NONE', #782 ) ;
#589 = DIRECTION ( 'NONE',  ( 0.7952771214321243676, 0.6062460722566654914, 0.000000000000000000 ) ) ;
#590 = ADVANCED_FACE ( 'NONE', ( #848 ), #833, .F. ) ;
#591 = DIRECTION ( 'NONE',  ( -8.006416042969877077E-16, 1.000000000000000000, 0.000000000000000000 ) ) ;
#592 = CARTESIAN_POINT ( 'NONE',  ( 16.89999999999879776, -6.100000000000001421, 4.000000000000000000 ) ) ;
#593 = VECTOR ( 'NONE', #776, 1000.000000000000000 ) ;
#594 = CYLINDRICAL_SURFACE ( 'NONE', #19, 2.600000000000000533 ) ;
#595 = ORIENTED_EDGE ( 'NONE', *, *, #873, .F. ) ;
#596 = DIRECTION ( 'NONE',  ( 0.000000000000000000, 0.000000000000000000, 1.000000000000000000 ) ) ;
#597 = CARTESIAN_POINT ( 'NONE',  ( 7.224621179626955936, -33.00000000000000000, 20.00000000000000000 ) ) ;
#598 = ORIENTED_EDGE ( 'NONE', *, *, #585, .F. ) ;
#599 = CARTESIAN_POINT ( 'NONE',  ( 14.49999999999877254, -6.999999999999999112, 20.00000000000000000 ) ) ;
#600 = CARTESIAN_POINT ( 'NONE',  ( 10.94999999999879670, -3.000000000000002220, 0.000000000000000000 ) ) ;
#601 = ORIENTED_EDGE ( 'NONE', *, *, #665, .F. ) ;
#602 = AXIS2_PLACEMENT_3D ( 'NONE', #899, #66, #126 ) ;
#603 = EDGE_CURVE ( 'NONE', #246, #860, #507, .T. ) ;
#604 = DIRECTION ( 'NONE',  ( -0.000000000000000000, -0.000000000000000000, 1.000000000000000000 ) ) ;
#605 = CIRCLE ( 'NONE', #231, 1.850000000000001865 ) ;
#606 = ORIENTED_EDGE ( 'NONE', *, *, #240, .F. ) ;
#607 = CARTESIAN_POINT ( 'NONE',  ( 6.849999999998757971, -25.50000000000002132, 0.000000000000000000 ) ) ;
#608 = EDGE_CURVE ( 'NONE', #237, #321, #84, .T. ) ;
#609 = ORIENTED_EDGE ( 'NONE', *, *, #210, .T. ) ;
#610 = ORIENTED_EDGE ( 'NONE', *, *, #43, .T. ) ;
#611 = DIRECTION ( 'NONE',  ( -0.000000000000000000, -0.000000000000000000, -1.000000000000000000 ) ) ;
#612 = EDGE_CURVE ( 'NONE', #906, #272, #55, .T. ) ;
#613 = EDGE_CURVE ( 'NONE', #464, #512, #107, .T. ) ;
#614 = LINE ( 'NONE', #414, #297 ) ;
#615 = LINE ( 'NONE', #536, #900 ) ;
#616 = EDGE_LOOP ( 'NONE', ( #501, #59, #535, #728 ) ) ;
#617 = ORIENTED_EDGE ( 'NONE', *, *, #747, .F. ) ;
#618 = ORIENTED_EDGE ( 'NONE', *, *, #252, .F. ) ;
#619 = EDGE_LOOP ( 'NONE', ( #870, #732, #595, #24 ) ) ;
#620 = PLANE ( 'NONE',  #580 ) ;
#621 = DIRECTION ( 'NONE',  ( -0.000000000000000000, -0.000000000000000000, -1.000000000000000000 ) ) ;
#622 = CARTESIAN_POINT ( 'NONE',  ( 16.89999999999879776, -0.6000000000000033085, 4.000000000000000000 ) ) ;
#623 = VECTOR ( 'NONE', #159, 1000.000000000000000 ) ;
#624 = CARTESIAN_POINT ( 'NONE',  ( 11.61573132483102100, -27.65262182623524723, 20.00000000000000000 ) ) ;
#625 = VECTOR ( 'NONE', #877, 1000.000000000000000 ) ;
#626 = DIRECTION ( 'NONE',  ( 1.000000000000000000, 0.000000000000000000, 0.000000000000000000 ) ) ;
#627 = ORIENTED_EDGE ( 'NONE', *, *, #340, .T. ) ;
#628 = AXIS2_PLACEMENT_3D ( 'NONE', #862, #20, #364 ) ;
#629 = CARTESIAN_POINT ( 'NONE',  ( 1.371025929379590336, -32.65467625899278659, 20.00000000000000000 ) ) ;
#630 = ORIENTED_EDGE ( 'NONE', *, *, #578, .F. ) ;
#631 = CARTESIAN_POINT ( 'NONE',  ( 16.89999999999881197, -21.96410161513770376, 0.000000000000000000 ) ) ;
#632 = CARTESIAN_POINT ( 'NONE',  ( 1.628420336452701012, -0.3237407955512116575, 0.000000000000000000 ) ) ;
#633 = AXIS2_PLACEMENT_3D ( 'NONE', #460, #753, #326 ) ;
#634 = DIRECTION ( 'NONE',  ( -0.000000000000000000, -0.000000000000000000, -1.000000000000000000 ) ) ;
#635 = SURFACE_STYLE_FILL_AREA ( #245 ) ;
#636 = COLOUR_RGB ( '',0.6980392156862744724, 0.6980392156862744724, 0.6980392156862744724 ) ;
#637 = ORIENTED_EDGE ( 'NONE', *, *, #261, .T. ) ;
#638 = ORIENTED_EDGE ( 'NONE', *, *, #175, .F. ) ;
#639 = ADVANCED_FACE ( 'NONE', ( #470 ), #120, .F. ) ;
#640 = ORIENTED_EDGE ( 'NONE', *, *, #648, .F. ) ;
#641 = ORIENTED_EDGE ( 'NONE', *, *, #908, .T. ) ;
#642 = DIRECTION ( 'NONE',  ( 1.000000000000000000, 0.000000000000000000, 0.000000000000000000 ) ) ;
#643 = ADVANCED_FACE ( 'NONE', ( #67 ), #94, .T. ) ;
#644 = AXIS2_PLACEMENT_3D ( 'NONE', #289, #229, #770 ) ;
#645 = DIRECTION ( 'NONE',  ( 0.000000000000000000, 0.000000000000000000, 1.000000000000000000 ) ) ;
#646 = CARTESIAN_POINT ( 'NONE',  ( 7.224621179626955936, -33.00000000000000000, 0.000000000000000000 ) ) ;
#647 = FACE_BOUND ( 'NONE', #77, .T. ) ;
#648 = EDGE_CURVE ( 'NONE', #15, #587, #434, .T. ) ;
#649 = ADVANCED_FACE ( 'NONE', ( #288 ), #715, .F. ) ;
#650 = VECTOR ( 'NONE', #589, 999.9999999999998863 ) ;
#651 = ORIENTED_EDGE ( 'NONE', *, *, #528, .T. ) ;
#652 = PRODUCT_DEFINITION_CONTEXT ( 'detailed design', #885, 'design' ) ;
#653 = DIRECTION ( 'NONE',  ( 0.000000000000000000, -0.000000000000000000, -1.000000000000000000 ) ) ;
#654 = EDGE_CURVE ( 'NONE', #246, #841, #707, .T. ) ;
#655 = CARTESIAN_POINT ( 'NONE',  ( 4.999999999998756550, -25.50000000000002132, 4.000000000000000000 ) ) ;
#656 = CIRCLE ( 'NONE', #731, 0.6000000000000137446 ) ;
#657 = CARTESIAN_POINT ( 'NONE',  ( 2.161037320745670787, -0.6000000000000033085, 20.00000000000000000 ) ) ;
#658 = FACE_OUTER_BOUND ( 'NONE', #557, .T. ) ;
#659 = ORIENTED_EDGE ( 'NONE', *, *, #768, .F. ) ;
#660 = ORIENTED_EDGE ( 'NONE', *, *, #781, .F. ) ;
#661 = VERTEX_POINT ( 'NONE', #902 ) ;
#662 = AXIS2_PLACEMENT_3D ( 'NONE', #701, #58, #403 ) ;
#663 = SURFACE_STYLE_USAGE ( .BOTH. , #539 ) ;
#664 = ORIENTED_EDGE ( 'NONE', *, *, #873, .T. ) ;
#665 = EDGE_CURVE ( 'NONE', #158, #788, #845, .T. ) ;
#666 =( NAMED_UNIT ( * ) PLANE_ANGLE_UNIT ( ) SI_UNIT ( $, .RADIAN. ) );
#667 = CARTESIAN_POINT ( 'NONE',  ( 16.29999999999877502, -1.734723475976807094E-15, 20.00000000000000000 ) ) ;
#668 = DIRECTION ( 'NONE',  ( 1.000000000000000000, 0.000000000000000000, 0.000000000000000000 ) ) ;
#669 = VECTOR ( 'NONE', #898, 1000.000000000000227 ) ;
#670 = AXIS2_PLACEMENT_3D ( 'NONE', #449, #385, #874 ) ;
#671 = FACE_OUTER_BOUND ( 'NONE', #111, .T. ) ;
#672 = DIRECTION ( 'NONE',  ( -1.000000000000000000, 0.000000000000000000, -0.000000000000000000 ) ) ;
#673 = VECTOR ( 'NONE', #284, 999.9999999999998863 ) ;
#674 = EDGE_CURVE ( 'NONE', #204, #851, #129, .T. ) ;
#675 = DIRECTION ( 'NONE',  ( 1.000000000000000000, -1.226910004170436388E-16, 0.000000000000000000 ) ) ;
#676 = EDGE_LOOP ( 'NONE', ( #606, #601 ) ) ;
#677 = VERTEX_POINT ( 'NONE', #887 ) ;
#678 = ORIENTED_EDGE ( 'NONE', *, *, #654, .F. ) ;
#679 = DIRECTION ( 'NONE',  ( -0.000000000000000000, -0.000000000000000000, -1.000000000000000000 ) ) ;
#680 = AXIS2_PLACEMENT_3D ( 'NONE', #439, #310, #865 ) ;
#681 = DIRECTION ( 'NONE',  ( 0.000000000000000000, 0.000000000000000000, 1.000000000000000000 ) ) ;
#682 = CARTESIAN_POINT ( 'NONE',  ( 8.437113324140291581, -32.59055424286425051, 20.00000000000000000 ) ) ;
#683 = CARTESIAN_POINT ( 'NONE',  ( 9.699999999998798472, -1.774098415141103416E-15, -9.436630754670868981 ) ) ;
#684 = AXIS2_PLACEMENT_3D ( 'NONE', #657, #867, #163 ) ;
#685 = FACE_BOUND ( 'NONE', #524, .T. ) ;
#686 = LINE ( 'NONE', #152, #773 ) ;
#687 = EDGE_LOOP ( 'NONE', ( #36, #892, #230, #247 ) ) ;
#688 = DIRECTION ( 'NONE',  ( 1.000000000000000000, 3.920037374278832208E-15, 0.000000000000000000 ) ) ;
#689 = EDGE_CURVE ( 'NONE', #217, #718, #784, .T. ) ;
#690 = EDGE_CURVE ( 'NONE', #850, #185, #517, .T. ) ;
#691 = ORIENTED_EDGE ( 'NONE', *, *, #150, .T. ) ;
#692 = CLOSED_SHELL ( 'NONE', ( #910, #590, #649, #462, #113, #218, #800, #553, #207, #643, #285, #148, #838, #325, #720, #497, #491, #780, #223, #639, #438, #564, #21, #831, #348, #467, #369 ) ) ;
#693 = ORIENTED_EDGE ( 'NONE', *, *, #43, .F. ) ;
#694 = PLANE ( 'NONE',  #853 ) ;
#695 = CARTESIAN_POINT ( 'NONE',  ( 7.224621179626957712, -31.00000000000000355, 0.000000000000000000 ) ) ;
#696 = DIRECTION ( 'NONE',  ( 0.000000000000000000, 0.000000000000000000, 1.000000000000000000 ) ) ;
#697 = CIRCLE ( 'NONE', #314, 3.099999999999998757 ) ;
#698 = VECTOR ( 'NONE', #688, 1000.000000000000000 ) ;
#699 = LINE ( 'NONE', #761, #157 ) ;
#700 = ORIENTED_EDGE ( 'NONE', *, *, #319, .T. ) ;
#701 = CARTESIAN_POINT ( 'NONE',  ( 12.79999999999879812, -3.000000000000002665, 4.000000000000000000 ) ) ;
#702 = DIRECTION ( 'NONE',  ( -0.000000000000000000, 0.000000000000000000, -1.000000000000000000 ) ) ;
#703 = DIRECTION ( 'NONE',  ( 0.000000000000000000, 0.000000000000000000, 1.000000000000000000 ) ) ;
#704 = CARTESIAN_POINT ( 'NONE',  ( 2.161037320745670787, 0.000000000000000000, 20.00000000000000000 ) ) ;
#705 = EDGE_CURVE ( 'NONE', #352, #512, #422, .T. ) ;
#706 = DIRECTION ( 'NONE',  ( 1.000000000000000000, 0.000000000000000000, 0.000000000000000000 ) ) ;
#707 = LINE ( 'NONE', #597, #548 ) ;
#708 = FACE_BOUND ( 'NONE', #774, .T. ) ;
#709 = CARTESIAN_POINT ( 'NONE',  ( 3.149999999998754241, -25.50000000000002132, 0.000000000000000000 ) ) ;
#710 = VECTOR ( 'NONE', #186, 1000.000000000000000 ) ;
#711 = EDGE_LOOP ( 'NONE', ( #659, #490, #543, #419 ) ) ;
#712 = EDGE_LOOP ( 'NONE', ( #836, #381, #391, #691 ) ) ;
#713 = DIRECTION ( 'NONE',  ( -0.000000000000000000, -0.000000000000000000, -1.000000000000000000 ) ) ;
#714 = AXIS2_PLACEMENT_3D ( 'NONE', #299, #792, #432 ) ;
#715 = CYLINDRICAL_SURFACE ( 'NONE', #527, 1.850000000000001865 ) ;
#716 = FACE_OUTER_BOUND ( 'NONE', #619, .T. ) ;
#717 = DIRECTION ( 'NONE',  ( -1.000000000000000000, -9.743766476457807860E-16, 0.000000000000000000 ) ) ;
#718 = VERTEX_POINT ( 'NONE', #400 ) ;
#719 = ORIENTED_EDGE ( 'NONE', *, *, #9, .T. ) ;
#720 = ADVANCED_FACE ( 'NONE', ( #328 ), #447, .F. ) ;
#721 = VERTEX_POINT ( 'NONE', #70 ) ;
#722 = CARTESIAN_POINT ( 'NONE',  ( 16.89999999999879776, -21.96410161513770376, 20.00000000000000000 ) ) ;
#723 = DIRECTION ( 'NONE',  ( -0.000000000000000000, -0.000000000000000000, 1.000000000000000000 ) ) ;
#724 = AXIS2_PLACEMENT_3D ( 'NONE', #458, #263, #106 ) ;
#725 = PRESENTATION_STYLE_ASSIGNMENT (( #663 ) ) ;
#726 = EDGE_CURVE ( 'NONE', #841, #568, #572, .T. ) ;
#727 = VECTOR ( 'NONE', #96, 1000.000000000000000 ) ;
#728 = ORIENTED_EDGE ( 'NONE', *, *, #303, .T. ) ;
#729 = CARTESIAN_POINT ( 'NONE',  ( 6.849999999998757971, -25.50000000000002132, 4.000000000000000000 ) ) ;
#730 = EDGE_LOOP ( 'NONE', ( #542, #378 ) ) ;
#731 = AXIS2_PLACEMENT_3D ( 'NONE', #296, #442, #431 ) ;
#732 = ORIENTED_EDGE ( 'NONE', *, *, #353, .F. ) ;
#733 = DIRECTION ( 'NONE',  ( 0.000000000000000000, 0.000000000000000000, 1.000000000000000000 ) ) ;
#734 = EDGE_CURVE ( 'NONE', #321, #741, #697, .T. ) ;
#735 = CARTESIAN_POINT ( 'NONE',  ( 16.29999999999877502, -0.6000000000000033085, 4.000000000000000000 ) ) ;
#736 = DIRECTION ( 'NONE',  ( 0.000000000000000000, 0.000000000000000000, 1.000000000000000000 ) ) ;
#737 = PLANE ( 'NONE',  #538 ) ;
#738 = FACE_OUTER_BOUND ( 'NONE', #291, .T. ) ;
#739 = FACE_OUTER_BOUND ( 'NONE', #124, .T. ) ;
#740 = CARTESIAN_POINT ( 'NONE',  ( 12.79999999999879812, -3.000000000000002665, -9.436630754670868981 ) ) ;
#741 = VERTEX_POINT ( 'NONE', #481 ) ;
#742 = CARTESIAN_POINT ( 'NONE',  ( 9.699999999998800249, -3.000000000000002665, 4.000000000000000000 ) ) ;
#743 = VERTEX_POINT ( 'NONE', #629 ) ;
#744 = AXIS2_PLACEMENT_3D ( 'NONE', #799, #92, #382 ) ;
#745 = ORIENTED_EDGE ( 'NONE', *, *, #140, .T. ) ;
#746 = CARTESIAN_POINT ( 'NONE',  ( -1.228184220991579423E-12, -26.50000000000000355, 20.00000000000000000 ) ) ;
#747 = EDGE_CURVE ( 'NONE', #677, #587, #854, .T. ) ;
#748 = DIRECTION ( 'NONE',  ( -0.000000000000000000, -0.000000000000000000, 1.000000000000000000 ) ) ;
#749 = LINE ( 'NONE', #85, #108 ) ;
#750 = EDGE_CURVE ( 'NONE', #367, #677, #165, .T. ) ;
#751 = ORIENTED_EDGE ( 'NONE', *, *, #306, .F. ) ;
#752 = VERTEX_POINT ( 'NONE', #278 ) ;
#753 = DIRECTION ( 'NONE',  ( 0.000000000000000000, 0.000000000000000000, 1.000000000000000000 ) ) ;
#754 = CARTESIAN_POINT ( 'NONE',  ( 16.29999999999877502, -1.734723475976807094E-15, 0.000000000000000000 ) ) ;
#755 =( NAMED_UNIT ( * ) SI_UNIT ( $, .STERADIAN. ) SOLID_ANGLE_UNIT ( ) );
#756 = CARTESIAN_POINT ( 'NONE',  ( 11.61573132483102100, -27.65262182623524723, 0.000000000000000000 ) ) ;
#757 = DIRECTION ( 'NONE',  ( 8.006416042969877077E-16, -1.000000000000000000, 0.000000000000000000 ) ) ;
#758 = CYLINDRICAL_SURFACE ( 'NONE', #893, 2.600000000000000533 ) ;
#759 = PRESENTATION_STYLE_ASSIGNMENT (( #187 ) ) ;
#760 = LINE ( 'NONE', #200, #398 ) ;
#761 = CARTESIAN_POINT ( 'NONE',  ( 1.914293821956972064, -33.00000000000002132, 20.00000000000000000 ) ) ;
#762 = ORIENTED_EDGE ( 'NONE', *, *, #908, .F. ) ;
#763 = ORIENTED_EDGE ( 'NONE', *, *, #781, .T. ) ;
#764 = DIRECTION ( 'NONE',  ( -1.000000000000000000, 0.000000000000000000, 0.000000000000000000 ) ) ;
#765 = EDGE_LOOP ( 'NONE', ( #763, #486, #343, #779 ) ) ;
#766 = CARTESIAN_POINT ( 'NONE',  ( 4.999999999998756550, -25.50000000000002132, 20.00000000000000000 ) ) ;
#767 = PRODUCT_DEFINITION ( 'UNKNOWN', '', #28, #652 ) ;
#768 = EDGE_CURVE ( 'NONE', #217, #194, #349, .T. ) ;
#769 = DIRECTION ( 'NONE',  ( -1.000000000000000000, 0.000000000000000000, 0.000000000000000000 ) ) ;
#770 = DIRECTION ( 'NONE',  ( -1.000000000000000000, 0.000000000000000000, 0.000000000000000000 ) ) ;
#771 = CIRCLE ( 'NONE', #806, 2.600000000000000977 ) ;
#772 = AXIS2_PLACEMENT_3D ( 'NONE', #766, #137, #626 ) ;
#773 = VECTOR ( 'NONE', #350, 1000.000000000000000 ) ;
#774 = EDGE_LOOP ( 'NONE', ( #719, #503 ) ) ;
#775 = EDGE_CURVE ( 'NONE', #721, #441, #287, .T. ) ;
#776 = DIRECTION ( 'NONE',  ( -0.000000000000000000, -0.000000000000000000, -1.000000000000000000 ) ) ;
#777 = VERTEX_POINT ( 'NONE', #131 ) ;
#778 = DIRECTION ( 'NONE',  ( -0.000000000000000000, -0.000000000000000000, -1.000000000000000000 ) ) ;
#779 = ORIENTED_EDGE ( 'NONE', *, *, #353, .T. ) ;
#780 = ADVANCED_FACE ( 'NONE', ( #685, #316 ), #907, .F. ) ;
#781 = EDGE_CURVE ( 'NONE', #450, #219, #405, .T. ) ;
#782 = CARTESIAN_POINT ( 'NONE',  ( 12.79999999999879812, -6.100000000000001421, 20.00000000000000000 ) ) ;
#783 = CARTESIAN_POINT ( 'NONE',  ( 4.999999999998756550, -25.50000000000002132, 0.000000000000000000 ) ) ;
#784 = CIRCLE ( 'NONE', #489, 2.600000000000000977 ) ;
#785 = FACE_OUTER_BOUND ( 'NONE', #687, .T. ) ;
#786 = ORIENTED_EDGE ( 'NONE', *, *, #689, .T. ) ;
#787 = ORIENTED_EDGE ( 'NONE', *, *, #494, .F. ) ;
#788 = VERTEX_POINT ( 'NONE', #420 ) ;
#789 = AXIS2_PLACEMENT_3D ( 'NONE', #624, #702, #769 ) ;
#790 = DIRECTION ( 'NONE',  ( -0.000000000000000000, -0.000000000000000000, -1.000000000000000000 ) ) ;
#791 = EDGE_CURVE ( 'NONE', #533, #677, #614, .T. ) ;
#792 = DIRECTION ( 'NONE',  ( -0.8660254037844373753, 0.5000000000000024425, 0.000000000000000000 ) ) ;
#793 = VECTOR ( 'NONE', #13, 1000.000000000000000 ) ;
#794 = EDGE_LOOP ( 'NONE', ( #216, #804, #202, #143 ) ) ;
#795 = ORIENTED_EDGE ( 'NONE', *, *, #136, .T. ) ;
#796 = EDGE_CURVE ( 'NONE', #282, #588, #22, .T. ) ;
#797 = VERTEX_POINT ( 'NONE', #493 ) ;
#798 = EDGE_CURVE ( 'NONE', #718, #816, #225, .T. ) ;
#799 = CARTESIAN_POINT ( 'NONE',  ( 12.79999999999879812, -3.000000000000002665, 20.00000000000000000 ) ) ;
#800 = ADVANCED_FACE ( 'NONE', ( #338 ), #445, .F. ) ;
#801 = CARTESIAN_POINT ( 'NONE',  ( 1.914293821956972064, -32.39999999999999858, 0.000000000000000000 ) ) ;
#802 = CARTESIAN_POINT ( 'NONE',  ( 4.999999999998756550, -25.50000000000002132, -9.436630754670868981 ) ) ;
#803 = VECTOR ( 'NONE', #864, 1000.000000000000000 ) ;
#804 = ORIENTED_EDGE ( 'NONE', *, *, #705, .F. ) ;
#805 = ORIENTED_EDGE ( 'NONE', *, *, #876, .F. ) ;
#806 = AXIS2_PLACEMENT_3D ( 'NONE', #402, #397, #46 ) ;
#807 =( NAMED_UNIT ( * ) PLANE_ANGLE_UNIT ( ) SI_UNIT ( $, .RADIAN. ) );
#808 = ORIENTED_EDGE ( 'NONE', *, *, #613, .F. ) ;
#809 = CARTESIAN_POINT ( 'NONE',  ( 4.999999999998756550, -25.50000000000002132, 0.000000000000000000 ) ) ;
#810 = DIRECTION ( 'NONE',  ( -1.000000000000000000, 1.226910004170436388E-16, 0.000000000000000000 ) ) ;
#811 = DIRECTION ( 'NONE',  ( 1.000000000000000000, 0.000000000000000000, 0.000000000000000000 ) ) ;
#812 = DIRECTION ( 'NONE',  ( -0.000000000000000000, -0.000000000000000000, 1.000000000000000000 ) ) ;
#813 = DIRECTION ( 'NONE',  ( 1.000000000000000000, 0.000000000000000000, 0.000000000000000000 ) ) ;
#814 = FACE_OUTER_BOUND ( 'NONE', #616, .T. ) ;
#815 = ORIENTED_EDGE ( 'NONE', *, *, #608, .T. ) ;
#816 = VERTEX_POINT ( 'NONE', #368 ) ;
#817 = AXIS2_PLACEMENT_3D ( 'NONE', #783, #10, #582 ) ;
#818 = CARTESIAN_POINT ( 'NONE',  ( 2.161037320745670787, 0.000000000000000000, 20.00000000000000000 ) ) ;
#819 = CARTESIAN_POINT ( 'NONE',  ( 9.699999999998798472, -1.774098415141103416E-15, 4.000000000000000000 ) ) ;
#820 = LINE ( 'NONE', #376, #139 ) ;
#821 = FACE_OUTER_BOUND ( 'NONE', #711, .T. ) ;
#822 = DIRECTION ( 'NONE',  ( -0.000000000000000000, -0.000000000000000000, -1.000000000000000000 ) ) ;
#823 = ORIENTED_EDGE ( 'NONE', *, *, #603, .F. ) ;
#824 = ORIENTED_EDGE ( 'NONE', *, *, #293, .F. ) ;
#825 = DIRECTION ( 'NONE',  ( 1.000000000000000000, 0.000000000000000000, 0.000000000000000000 ) ) ;
#826 = ORIENTED_EDGE ( 'NONE', *, *, #117, .T. ) ;
#827 = ORIENTED_EDGE ( 'NONE', *, *, #286, .T. ) ;
#828 = EDGE_CURVE ( 'NONE', #424, #352, #656, .T. ) ;
#829 = CARTESIAN_POINT ( 'NONE',  ( 1.371025929379590336, -32.65467625899278659, 20.00000000000000000 ) ) ;
#830 = DIRECTION ( 'NONE',  ( -0.000000000000000000, 0.000000000000000000, -1.000000000000000000 ) ) ;
#831 = ADVANCED_FACE ( 'NONE', ( #307 ), #173, .F. ) ;
#832 = AXIS2_PLACEMENT_3D ( 'NONE', #205, #133, #146 ) ;
#833 = CYLINDRICAL_SURFACE ( 'NONE', #161, 1.850000000000000977 ) ;
#834 = DIRECTION ( 'NONE',  ( 0.000000000000000000, 0.000000000000000000, 1.000000000000000000 ) ) ;
#835 = LINE ( 'NONE', #495, #650 ) ;
#836 = ORIENTED_EDGE ( 'NONE', *, *, #340, .F. ) ;
#837 = EDGE_LOOP ( 'NONE', ( #95, #301, #823, #292 ) ) ;
#838 = ADVANCED_FACE ( 'NONE', ( #75 ), #54, .T. ) ;
#839 = CARTESIAN_POINT ( 'NONE',  ( 13.34778213239989775, -28.65262182623524723, 20.00000000000000000 ) ) ;
#840 = CARTESIAN_POINT ( 'NONE',  ( 2.399999999998755129, -25.50000000000002132, -9.436630754670868981 ) ) ;
#841 = VERTEX_POINT ( 'NONE', #646 ) ;
#842 = CARTESIAN_POINT ( 'NONE',  ( 4.999999999998756550, -25.50000000000002132, 20.00000000000000000 ) ) ;
#843 = EDGE_CURVE ( 'NONE', #587, #183, #118, .T. ) ;
#844 = CARTESIAN_POINT ( 'NONE',  ( 1.371025929379590336, -32.65467625899278659, 0.000000000000000000 ) ) ;
#845 = CIRCLE ( 'NONE', #628, 1.850000000000000977 ) ;
#846 = CARTESIAN_POINT ( 'NONE',  ( 13.34778213239989775, -28.65262182623524723, 20.00000000000000000 ) ) ;
#847 = AXIS2_PLACEMENT_3D ( 'NONE', #579, #790, #305 ) ;
#848 = FACE_OUTER_BOUND ( 'NONE', #417, .T. ) ;
#849 = DIRECTION ( 'NONE',  ( 0.000000000000000000, 0.000000000000000000, 1.000000000000000000 ) ) ;
#850 = VERTEX_POINT ( 'NONE', #160 ) ;
#851 = VERTEX_POINT ( 'NONE', #584 ) ;
#852 = EDGE_LOOP ( 'NONE', ( #88, #678, #520, #39 ) ) ;
#853 = AXIS2_PLACEMENT_3D ( 'NONE', #756, #411, #404 ) ;
#854 = CIRCLE ( 'NONE', #456, 2.000000000000038192 ) ;
#855 = DIRECTION ( 'NONE',  ( 0.000000000000000000, -1.000000000000000000, 0.000000000000000000 ) ) ;
#856 = FACE_OUTER_BOUND ( 'NONE', #410, .T. ) ;
#857 = CARTESIAN_POINT ( 'NONE',  ( 12.82822346934435487, -29.24317606909949419, 20.00000000000000000 ) ) ;
#858 = ORIENTED_EDGE ( 'NONE', *, *, #859, .F. ) ;
#859 = EDGE_CURVE ( 'NONE', #588, #72, #179, .T. ) ;
#860 = VERTEX_POINT ( 'NONE', #164 ) ;
#861 = ORIENTED_EDGE ( 'NONE', *, *, #478, .F. ) ;
#862 = CARTESIAN_POINT ( 'NONE',  ( 12.79999999999879812, -3.000000000000002665, 4.000000000000000000 ) ) ;
#863 = DIRECTION ( 'NONE',  ( 1.000000000000000000, 0.000000000000000000, 0.000000000000000000 ) ) ;
#864 = DIRECTION ( 'NONE',  ( 1.000000000000000000, 0.000000000000000000, 0.000000000000000000 ) ) ;
#865 = DIRECTION ( 'NONE',  ( 1.000000000000000000, 0.000000000000000000, 0.000000000000000000 ) ) ;
#866 = VECTOR ( 'NONE', #274, 1000.000000000000000 ) ;
#867 = DIRECTION ( 'NONE',  ( -0.000000000000000000, -0.000000000000000000, -1.000000000000000000 ) ) ;
#868 = CIRCLE ( 'NONE', #8, 2.000000000000000000 ) ;
#869 = DIRECTION ( 'NONE',  ( -0.000000000000000000, -0.000000000000000000, 1.000000000000000000 ) ) ;
#870 = ORIENTED_EDGE ( 'NONE', *, *, #73, .T. ) ;
#871 = ORIENTED_EDGE ( 'NONE', *, *, #478, .T. ) ;
#872 = ORIENTED_EDGE ( 'NONE', *, *, #366, .T. ) ;
#873 = EDGE_CURVE ( 'NONE', #352, #797, #360, .T. ) ;
#874 = DIRECTION ( 'NONE',  ( 1.000000000000000000, 0.000000000000000000, 0.000000000000000000 ) ) ;
#875 = APPLICATION_PROTOCOL_DEFINITION ( 'draft international standard', 'automotive_design', 1998, #29 ) ;
#876 = EDGE_CURVE ( 'NONE', #388, #788, #820, .T. ) ;
#877 = DIRECTION ( 'NONE',  ( -1.000000000000000000, -1.279334214653320239E-16, 0.000000000000000000 ) ) ;
#878 = FACE_OUTER_BOUND ( 'NONE', #712, .T. ) ;
#879 = CARTESIAN_POINT ( 'NONE',  ( -1.243796732275370687E-12, -6.999999999999997335, 20.00000000000000000 ) ) ;
#880 = CARTESIAN_POINT ( 'NONE',  ( 11.61573132483102100, -27.65262182623524723, 20.00000000000000000 ) ) ;
#881 = VECTOR ( 'NONE', #184, 1000.000000000000000 ) ;
#882 = UNCERTAINTY_MEASURE_WITH_UNIT (LENGTH_MEASURE( 1.000000000000000082E-05 ), #115, 'distance_accuracy_value', 'NONE');
#883 = ORIENTED_EDGE ( 'NONE', *, *, #73, .F. ) ;
#884 = AXIS2_PLACEMENT_3D ( 'NONE', #842, #215, #706 ) ;
#885 = APPLICATION_CONTEXT ( 'automotive_design' ) ;
#886 = CARTESIAN_POINT ( 'NONE',  ( 16.89999999999877645, -0.6000000000000033085, 20.00000000000000000 ) ) ;
#887 = CARTESIAN_POINT ( 'NONE',  ( 16.63205080756765497, -22.96410161513780324, 0.000000000000000000 ) ) ;
#888 = VECTOR ( 'NONE', #511, 1000.000000000000000 ) ;
#889 = CIRCLE ( 'NONE', #362, 0.6000000000000033085 ) ;
#890 = LINE ( 'NONE', #682, #710 ) ;
#891 = CARTESIAN_POINT ( 'NONE',  ( 1.914293821956972064, -33.00000000000002132, 0.000000000000000000 ) ) ;
#892 = ORIENTED_EDGE ( 'NONE', *, *, #303, .F. ) ;
#893 = AXIS2_PLACEMENT_3D ( 'NONE', #802, #313, #668 ) ;
#894 = ORIENTED_EDGE ( 'NONE', *, *, #726, .F. ) ;
#895 = AXIS2_PLACEMENT_3D ( 'NONE', #315, #681, #811 ) ;
#896 = CARTESIAN_POINT ( 'NONE',  ( 9.699999999998798472, -1.774098415141103416E-15, 20.00000000000000000 ) ) ;
#897 = AXIS2_PLACEMENT_3D ( 'NONE', #880, #116, #197 ) ;
#898 = DIRECTION ( 'NONE',  ( 0.5000000000000023315, 0.8660254037844372643, 0.000000000000000000 ) ) ;
#899 = CARTESIAN_POINT ( 'NONE',  ( 8.437113324140293358, -32.59055424286425051, 20.00000000000000000 ) ) ;
#900 = VECTOR ( 'NONE', #264, 1000.000000000000000 ) ;
#901 = EDGE_CURVE ( 'NONE', #906, #72, #498, .T. ) ;
#902 = CARTESIAN_POINT ( 'NONE',  ( 3.149999999998754241, -25.50000000000002132, 4.000000000000000000 ) ) ;
#903 = VECTOR ( 'NONE', #257, 1000.000000000000000 ) ;
#904 = ORIENTED_EDGE ( 'NONE', *, *, #65, .F. ) ;
#905 = CARTESIAN_POINT ( 'NONE',  ( 12.79999999999879812, -3.000000000000002665, 4.000000000000000000 ) ) ;
#906 = VERTEX_POINT ( 'NONE', #592 ) ;
#907 = PLANE ( 'NONE',  #789 ) ;
#908 = EDGE_CURVE ( 'NONE', #777, #424, #469, .T. ) ;
#909 = AXIS2_PLACEMENT_3D ( 'NONE', #740, #604, #395 ) ;
#910 = ADVANCED_FACE ( 'NONE', ( #154 ), #758, .F. ) ;
ENDSEC;
END-ISO-10303-21;
