ISO-10303-21;
HEADER;
FILE_DESCRIPTION (( 'STEP AP214' ),
    '1' );
FILE_NAME ('202500220_03_Spannscheibe_V1.1.STEP',
    '2025-09-29T13:25:27',
    ( '' ),
    ( '' ),
    'SwSTEP 2.0',
    'SolidWorks 2021',
    '' );
FILE_SCHEMA (( 'AUTOMOTIVE_DESIGN' ));
ENDSEC;

DATA;
#1 = EDGE_LOOP ( 'NONE', ( #358, #434, #130, #592 ) ) ;
#2 = DIRECTION ( 'NONE',  ( 0.000000000000000000, 0.000000000000000000, 1.000000000000000000 ) ) ;
#3 = CIRCLE ( 'NONE', #97, 51.99999999999999289 ) ;
#4 = AXIS2_PLACEMENT_3D ( 'NONE', #218, #552, #365 ) ;
#5 = COLOUR_RGB ( '',0.6470588235294117974, 0.6196078431372549211, 0.5882352941176470784 ) ;
#6 = CIRCLE ( 'NONE', #106, 38.04877047096733378 ) ;
#7 = DIRECTION ( 'NONE',  ( 0.000000000000000000, 0.000000000000000000, 1.000000000000000000 ) ) ;
#8 = ORIENTED_EDGE ( 'NONE', *, *, #280, .F. ) ;
#9 = ORIENTED_EDGE ( 'NONE', *, *, #393, .F. ) ;
#10 = FACE_OUTER_BOUND ( 'NONE', #1, .T. ) ;
#11 = EDGE_CURVE ( 'NONE', #236, #217, #363, .T. ) ;
#12 = EDGE_LOOP ( 'NONE', ( #578, #521 ) ) ;
#13 = CARTESIAN_POINT ( 'NONE',  ( -5.209813981864140855E-18, 0.000000000000000000, 33.00000000000000000 ) ) ;
#14 = CARTESIAN_POINT ( 'NONE',  ( 0.000000000000000000, 0.000000000000000000, 3.000000000000000000 ) ) ;
#15 = VECTOR ( 'NONE', #606, 1000.000000000000000 ) ;
#16 = CIRCLE ( 'NONE', #301, 53.00000000000000711 ) ;
#17 = EDGE_CURVE ( 'NONE', #174, #476, #314, .T. ) ;
#18 = EDGE_LOOP ( 'NONE', ( #390, #600, #226, #108 ) ) ;
#19 = CARTESIAN_POINT ( 'NONE',  ( 12.69999999999999929, 0.000000000000000000, 11.99999999999999289 ) ) ;
#20 = PLANE ( 'NONE',  #293 ) ;
#21 = ORIENTED_EDGE ( 'NONE', *, *, #178, .F. ) ;
#22 = CARTESIAN_POINT ( 'NONE',  ( 0.000000000000000000, 0.000000000000000000, 11.99999999999999289 ) ) ;
#23 = CARTESIAN_POINT ( 'NONE',  ( -12.69999999999999929, 1.555301434917138433E-15, 11.99999999999999289 ) ) ;
#24 = ORIENTED_EDGE ( 'NONE', *, *, #382, .F. ) ;
#25 = CARTESIAN_POINT ( 'NONE',  ( -38.04877047096733378, -4.665829017811700350E-15, 32.00000609234219695 ) ) ;
#26 = CARTESIAN_POINT ( 'NONE',  ( -52.00000000000000711, 0.000000000000000000, 3.000000000000000000 ) ) ;
#27 = EDGE_CURVE ( 'NONE', #34, #399, #45, .T. ) ;
#28 = VECTOR ( 'NONE', #183, 1000.000000000000114 ) ;
#29 = CIRCLE ( 'NONE', #4, 52.00000000000000711 ) ;
#30 = ORIENTED_EDGE ( 'NONE', *, *, #479, .T. ) ;
#31 = FACE_OUTER_BOUND ( 'NONE', #412, .T. ) ;
#32 = CARTESIAN_POINT ( 'NONE',  ( -53.00000000000000711, 0.000000000000000000, 3.000000000000000000 ) ) ;
#33 = APPLICATION_CONTEXT ( 'automotive_design' ) ;
#34 = VERTEX_POINT ( 'NONE', #449 ) ;
#35 = DIRECTION ( 'NONE',  ( -1.000000000000000000, 0.000000000000000000, 0.000000000000000000 ) ) ;
#36 = CARTESIAN_POINT ( 'NONE',  ( 0.000000000000000000, 0.000000000000000000, 0.000000000000000000 ) ) ;
#37 = VERTEX_POINT ( 'NONE', #318 ) ;
#38 = ADVANCED_FACE ( 'NONE', ( #556 ), #64, .F. ) ;
#39 = SHAPE_DEFINITION_REPRESENTATION ( #353, #207 ) ;
#40 = DIRECTION ( 'NONE',  ( -0.000000000000000000, -0.000000000000000000, -1.000000000000000000 ) ) ;
#41 = ORIENTED_EDGE ( 'NONE', *, *, #72, .F. ) ;
#42 = EDGE_CURVE ( 'NONE', #486, #306, #6, .T. ) ;
#43 = CONICAL_SURFACE ( 'NONE', #52, 12.69999999999999929, 0.7853981633974473908 ) ;
#44 = DIRECTION ( 'NONE',  ( -1.000000000000000000, 0.000000000000000000, 0.000000000000000000 ) ) ;
#45 = CIRCLE ( 'NONE', #583, 12.69999999999999929 ) ;
#46 = DIRECTION ( 'NONE',  ( 0.000000000000000000, 0.000000000000000000, 1.000000000000000000 ) ) ;
#47 = CARTESIAN_POINT ( 'NONE',  ( -5.209813981864140855E-18, 0.000000000000000000, 33.00000000000000000 ) ) ;
#48 = UNCERTAINTY_MEASURE_WITH_UNIT (LENGTH_MEASURE( 1.000000000000000082E-05 ), #561, 'distance_accuracy_value', 'NONE');
#49 = DIRECTION ( 'NONE',  ( 0.003490651415223739937, 0.000000000000000000, -0.9999939076577903929 ) ) ;
#50 = ORIENTED_EDGE ( 'NONE', *, *, #471, .F. ) ;
#51 = DIRECTION ( 'NONE',  ( 0.000000000000000000, 0.000000000000000000, 1.000000000000000000 ) ) ;
#52 = AXIS2_PLACEMENT_3D ( 'NONE', #352, #214, #159 ) ;
#53 = ADVANCED_FACE ( 'NONE', ( #228 ), #415, .T. ) ;
#54 = CARTESIAN_POINT ( 'NONE',  ( 52.00000000000000711, 6.429395695523605533E-15, 3.000000000000000000 ) ) ;
#55 = CARTESIAN_POINT ( 'NONE',  ( -5.209813981864140855E-18, 0.000000000000000000, 3.000000000000000000 ) ) ;
#56 = ORIENTED_EDGE ( 'NONE', *, *, #421, .T. ) ;
#57 = AXIS2_PLACEMENT_3D ( 'NONE', #333, #326, #523 ) ;
#58 = AXIS2_PLACEMENT_3D ( 'NONE', #380, #424, #35 ) ;
#59 = ORIENTED_EDGE ( 'NONE', *, *, #272, .F. ) ;
#60 = SURFACE_STYLE_FILL_AREA ( #491 ) ;
#61 = EDGE_CURVE ( 'NONE', #299, #253, #385, .T. ) ;
#62 = ORIENTED_EDGE ( 'NONE', *, *, #534, .T. ) ;
#63 = DIRECTION ( 'NONE',  ( 1.000000000000000000, 0.000000000000000000, 0.000000000000000000 ) ) ;
#64 = CYLINDRICAL_SURFACE ( 'NONE', #94, 12.69999999999999929 ) ;
#65 = ORIENTED_EDGE ( 'NONE', *, *, #243, .T. ) ;
#66 = FACE_OUTER_BOUND ( 'NONE', #545, .T. ) ;
#67 = DIRECTION ( 'NONE',  ( 1.000000000000000000, 0.000000000000000000, 0.000000000000000000 ) ) ;
#68 = CIRCLE ( 'NONE', #211, 34.00000000000000000 ) ;
#69 = AXIS2_PLACEMENT_3D ( 'NONE', #136, #425, #196 ) ;
#70 = AXIS2_PLACEMENT_3D ( 'NONE', #222, #590, #63 ) ;
#71 = ORIENTED_EDGE ( 'NONE', *, *, #531, .F. ) ;
#72 = EDGE_CURVE ( 'NONE', #236, #589, #80, .T. ) ;
#73 = FACE_OUTER_BOUND ( 'NONE', #519, .T. ) ;
#74 = CARTESIAN_POINT ( 'NONE',  ( 13.70000000000001705, 1.677766114831876145E-15, 0.000000000000000000 ) ) ;
#75 = ORIENTED_EDGE ( 'NONE', *, *, #603, .T. ) ;
#76 = PLANE ( 'NONE',  #489 ) ;
#77 = DIRECTION ( 'NONE',  ( -0.000000000000000000, -0.000000000000000000, -1.000000000000000000 ) ) ;
#79 = CARTESIAN_POINT ( 'NONE',  ( -51.99999999999999289, 6.429395695523603956E-15, 0.000000000000000000 ) ) ;
#78 = PRODUCT_DEFINITION_CONTEXT ( 'detailed design', #309, 'design' ) ;
#80 = LINE ( 'NONE', #32, #184 ) ;
#81 = CIRCLE ( 'NONE', #339, 38.15000000000000568 ) ;
#82 = MECHANICAL_DESIGN_GEOMETRIC_PRESENTATION_REPRESENTATION (  '', ( #107 ), #150 ) ;
#83 = CARTESIAN_POINT ( 'NONE',  ( -5.209813981864140855E-18, 0.000000000000000000, 33.00000000000000000 ) ) ;
#84 = EDGE_CURVE ( 'NONE', #310, #302, #321, .T. ) ;
#85 = ORIENTED_EDGE ( 'NONE', *, *, #17, .T. ) ;
#86 = DIRECTION ( 'NONE',  ( 1.000000000000000000, 0.000000000000000000, 0.000000000000000000 ) ) ;
#87 = CARTESIAN_POINT ( 'NONE',  ( -53.00000000000000711, 0.000000000000000000, 1.999999999999978462 ) ) ;
#88 = ORIENTED_EDGE ( 'NONE', *, *, #280, .T. ) ;
#89 = CARTESIAN_POINT ( 'NONE',  ( 0.000000000000000000, 0.000000000000000000, 0.000000000000000000 ) ) ;
#90 = APPLICATION_PROTOCOL_DEFINITION ( 'draft international standard', 'automotive_design', 1998, #309 ) ;
#91 = EDGE_CURVE ( 'NONE', #229, #253, #595, .T. ) ;
#92 = CARTESIAN_POINT ( 'NONE',  ( -12.69999999999999929, 0.000000000000000000, 1.000000000000030420 ) ) ;
#93 =( GEOMETRIC_REPRESENTATION_CONTEXT ( 3 ) GLOBAL_UNCERTAINTY_ASSIGNED_CONTEXT ( ( #282 ) ) GLOBAL_UNIT_ASSIGNED_CONTEXT ( ( #571, #289, #377 ) ) REPRESENTATION_CONTEXT ( 'NONE', 'WORKASPACE' ) );
#94 = AXIS2_PLACEMENT_3D ( 'NONE', #14, #503, #494 ) ;
#95 = DIRECTION ( 'NONE',  ( -0.000000000000000000, -0.000000000000000000, -1.000000000000000000 ) ) ;
#96 = CARTESIAN_POINT ( 'NONE',  ( 0.000000000000000000, 0.000000000000000000, 1.000000000000014655 ) ) ;
#97 = AXIS2_PLACEMENT_3D ( 'NONE', #36, #95, #381 ) ;
#98 = AXIS2_PLACEMENT_3D ( 'NONE', #109, #493, #303 ) ;
#99 = ADVANCED_FACE ( 'NONE', ( #268 ), #562, .T. ) ;
#100 = CARTESIAN_POINT ( 'NONE',  ( -38.15000000000000568, -4.672027538747153160E-15, 3.000000000000000000 ) ) ;
#101 = CARTESIAN_POINT ( 'NONE',  ( -13.70000000000001705, 0.000000000000000000, 0.000000000000000000 ) ) ;
#102 = ORIENTED_EDGE ( 'NONE', *, *, #430, .F. ) ;
#103 = ORIENTED_EDGE ( 'NONE', *, *, #421, .F. ) ;
#104 = DIRECTION ( 'NONE',  ( 0.000000000000000000, 0.000000000000000000, -1.000000000000000000 ) ) ;
#105 = EDGE_CURVE ( 'NONE', #379, #217, #543, .T. ) ;
#106 = AXIS2_PLACEMENT_3D ( 'NONE', #164, #180, #274 ) ;
#107 = STYLED_ITEM ( 'NONE', ( #338 ), #391 ) ;
#108 = ORIENTED_EDGE ( 'NONE', *, *, #195, .F. ) ;
#109 = CARTESIAN_POINT ( 'NONE',  ( 0.000000000000000000, 0.000000000000000000, 13.00000000000000178 ) ) ;
#110 = VERTEX_POINT ( 'NONE', #271 ) ;
#111 = ORIENTED_EDGE ( 'NONE', *, *, #615, .F. ) ;
#112 = DIRECTION ( 'NONE',  ( 1.000000000000000000, 0.000000000000000000, 0.000000000000000000 ) ) ;
#113 = DIRECTION ( 'NONE',  ( 0.000000000000000000, 0.000000000000000000, -1.000000000000000000 ) ) ;
#114 = ORIENTED_EDGE ( 'NONE', *, *, #225, .T. ) ;
#115 = CARTESIAN_POINT ( 'NONE',  ( 12.69999999999999929, 1.555301434917138433E-15, 3.000000000000000000 ) ) ;
#116 = DIRECTION ( 'NONE',  ( 1.000000000000000000, 0.000000000000000000, 0.000000000000000000 ) ) ;
#117 = CONICAL_SURFACE ( 'NONE', #473, 52.00000000000000711, 0.7853981633974378429 ) ;
#118 = AXIS2_PLACEMENT_3D ( 'NONE', #487, #7, #209 ) ;
#119 = ORIENTED_EDGE ( 'NONE', *, *, #567, .T. ) ;
#120 = FACE_OUTER_BOUND ( 'NONE', #351, .T. ) ;
#121 = DIRECTION ( 'NONE',  ( -0.000000000000000000, -0.000000000000000000, 1.000000000000000000 ) ) ;
#122 = ORIENTED_EDGE ( 'NONE', *, *, #243, .F. ) ;
#123 = DIRECTION ( 'NONE',  ( 1.000000000000000000, 0.000000000000000000, 0.000000000000000000 ) ) ;
#124 = DIRECTION ( 'NONE',  ( -0.000000000000000000, -0.000000000000000000, -1.000000000000000000 ) ) ;
#125 = ORIENTED_EDGE ( 'NONE', *, *, #203, .F. ) ;
#126 =( NAMED_UNIT ( * ) SI_UNIT ( $, .STERADIAN. ) SOLID_ANGLE_UNIT ( ) );
#127 = CARTESIAN_POINT ( 'NONE',  ( 0.000000000000000000, 0.000000000000000000, 1.000000000000030420 ) ) ;
#128 = AXIS2_PLACEMENT_3D ( 'NONE', #392, #152, #300 ) ;
#129 = CONICAL_SURFACE ( 'NONE', #58, 37.04177080567227875, 0.7888888219014386083 ) ;
#130 = ORIENTED_EDGE ( 'NONE', *, *, #11, .F. ) ;
#131 = SURFACE_STYLE_USAGE ( .BOTH. , #179 ) ;
#132 = DIRECTION ( 'NONE',  ( 0.000000000000000000, 0.000000000000000000, 1.000000000000000000 ) ) ;
#133 = EDGE_CURVE ( 'NONE', #507, #162, #419, .T. ) ;
#134 = ORIENTED_EDGE ( 'NONE', *, *, #291, .T. ) ;
#135 = CARTESIAN_POINT ( 'NONE',  ( -53.00000000000000711, 0.000000000000000000, 1.000000000000014655 ) ) ;
#136 = CARTESIAN_POINT ( 'NONE',  ( 0.000000000000000000, 0.000000000000000000, 13.00000000000000178 ) ) ;
#137 = EDGE_CURVE ( 'NONE', #399, #476, #458, .T. ) ;
#138 = ORIENTED_EDGE ( 'NONE', *, *, #178, .T. ) ;
#139 = DIRECTION ( 'NONE',  ( 0.000000000000000000, 0.000000000000000000, 1.000000000000000000 ) ) ;
#140 = DIRECTION ( 'NONE',  ( -0.000000000000000000, -0.000000000000000000, 1.000000000000000000 ) ) ;
#141 = AXIS2_PLACEMENT_3D ( 'NONE', #283, #388, #372 ) ;
#142 = CIRCLE ( 'NONE', #474, 53.00000000000000711 ) ;
#143 = CARTESIAN_POINT ( 'NONE',  ( -13.70000000000001705, 0.000000000000000000, 0.000000000000000000 ) ) ;
#144 = DIRECTION ( 'NONE',  ( 1.000000000000000000, 0.000000000000000000, 0.000000000000000000 ) ) ;
#145 = DIRECTION ( 'NONE',  ( 1.000000000000000000, 0.000000000000000000, 0.000000000000000000 ) ) ;
#146 = ADVANCED_FACE ( 'NONE', ( #461 ), #528, .F. ) ;
#147 = AXIS2_PLACEMENT_3D ( 'NONE', #239, #132, #517 ) ;
#148 = ORIENTED_EDGE ( 'NONE', *, *, #27, .F. ) ;
#149 = DIRECTION ( 'NONE',  ( -0.000000000000000000, -0.000000000000000000, -1.000000000000000000 ) ) ;
#150 =( GEOMETRIC_REPRESENTATION_CONTEXT ( 3 ) GLOBAL_UNCERTAINTY_ASSIGNED_CONTEXT ( ( #617 ) ) GLOBAL_UNIT_ASSIGNED_CONTEXT ( ( #204, #294, #485 ) ) REPRESENTATION_CONTEXT ( 'NONE', 'WORKASPACE' ) );
#151 = AXIS2_PLACEMENT_3D ( 'NONE', #512, #46, #240 ) ;
#152 = DIRECTION ( 'NONE',  ( -0.000000000000000000, -0.000000000000000000, -1.000000000000000000 ) ) ;
#153 = VERTEX_POINT ( 'NONE', #26 ) ;
#154 = ADVANCED_FACE ( 'NONE', ( #263, #454 ), #20, .T. ) ;
#155 = EDGE_LOOP ( 'NONE', ( #560, #269, #551, #355 ) ) ;
#156 = DIRECTION ( 'NONE',  ( 1.000000000000000000, 0.000000000000000000, 0.000000000000000000 ) ) ;
#157 = ADVANCED_FACE ( 'NONE', ( #509, #361 ), #223, .T. ) ;
#158 = ORIENTED_EDGE ( 'NONE', *, *, #61, .F. ) ;
#159 = DIRECTION ( 'NONE',  ( 1.000000000000000000, 0.000000000000000000, 0.000000000000000000 ) ) ;
#160 = AXIS2_PLACEMENT_3D ( 'NONE', #389, #576, #249 ) ;
#161 = AXIS2_PLACEMENT_3D ( 'NONE', #438, #2, #156 ) ;
#162 = VERTEX_POINT ( 'NONE', #611 ) ;
#163 = DIRECTION ( 'NONE',  ( 1.000000000000000000, 0.000000000000000000, 0.000000000000000000 ) ) ;
#164 = CARTESIAN_POINT ( 'NONE',  ( -5.209813981864140855E-18, 0.000000000000000000, 32.00000609234219695 ) ) ;
#165 = EDGE_LOOP ( 'NONE', ( #516, #367 ) ) ;
#166 = FACE_OUTER_BOUND ( 'NONE', #266, .T. ) ;
#167 = CARTESIAN_POINT ( 'NONE',  ( 34.00000000000000000, 0.000000000000000000, 13.00000000000000178 ) ) ;
#168 = EDGE_CURVE ( 'NONE', #217, #162, #194, .T. ) ;
#169 = ORIENTED_EDGE ( 'NONE', *, *, #305, .F. ) ;
#170 = DIRECTION ( 'NONE',  ( 0.000000000000000000, 0.000000000000000000, 1.000000000000000000 ) ) ;
#171 = DIRECTION ( 'NONE',  ( 0.000000000000000000, 0.000000000000000000, 1.000000000000000000 ) ) ;
#172 = CIRCLE ( 'NONE', #69, 13.70000000000000639 ) ;
#173 =( GEOMETRIC_REPRESENTATION_CONTEXT ( 3 ) GLOBAL_UNCERTAINTY_ASSIGNED_CONTEXT ( ( #48 ) ) GLOBAL_UNIT_ASSIGNED_CONTEXT ( ( #561, #608, #126 ) ) REPRESENTATION_CONTEXT ( 'NONE', 'WORKASPACE' ) );
#174 = VERTEX_POINT ( 'NONE', #616 ) ;
#175 = DIRECTION ( 'NONE',  ( 0.7071067811865469066, 0.000000000000000000, 0.7071067811865482389 ) ) ;
#176 = CARTESIAN_POINT ( 'NONE',  ( 53.00000000000000711, 0.000000000000000000, 1.000000000000014655 ) ) ;
#177 = ORIENTED_EDGE ( 'NONE', *, *, #133, .T. ) ;
#178 = EDGE_CURVE ( 'NONE', #189, #486, #233, .T. ) ;
#179 = SURFACE_SIDE_STYLE ('',( #422 ) ) ;
#180 = DIRECTION ( 'NONE',  ( -0.000000000000000000, -0.000000000000000000, -1.000000000000000000 ) ) ;
#181 = ORIENTED_EDGE ( 'NONE', *, *, #518, .F. ) ;
#182 = DIRECTION ( 'NONE',  ( 0.000000000000000000, 0.000000000000000000, 1.000000000000000000 ) ) ;
#183 = DIRECTION ( 'NONE',  ( -0.7095707365365221397, 0.000000000000000000, -0.7046342099635934941 ) ) ;
#184 = VECTOR ( 'NONE', #124, 1000.000000000000000 ) ;
#185 = AXIS2_PLACEMENT_3D ( 'NONE', #555, #320, #317 ) ;
#186 = EDGE_LOOP ( 'NONE', ( #71, #538, #248, #533 ) ) ;
#187 = DIRECTION ( 'NONE',  ( 0.000000000000000000, 0.000000000000000000, 1.000000000000000000 ) ) ;
#188 = ADVANCED_FACE ( 'NONE', ( #330 ), #374, .F. ) ;
#189 = VERTEX_POINT ( 'NONE', #242 ) ;
#190 = CARTESIAN_POINT ( 'NONE',  ( 53.00000000000000711, 6.490628035480973107E-15, 1.999999999999978462 ) ) ;
#191 = PRODUCT_DEFINITION ( 'UNKNOWN', '', #623, #78 ) ;
#192 = DIRECTION ( 'NONE',  ( -0.7071067811865432429, 0.000000000000000000, -0.7071067811865517916 ) ) ;
#193 = CIRCLE ( 'NONE', #70, 51.99999999999999289 ) ;
#194 = LINE ( 'NONE', #423, #345 ) ;
#195 = EDGE_CURVE ( 'NONE', #306, #37, #566, .T. ) ;
#196 = DIRECTION ( 'NONE',  ( 1.000000000000000000, 0.000000000000000000, 0.000000000000000000 ) ) ;
#197 = EDGE_LOOP ( 'NONE', ( #278, #205, #177, #604 ) ) ;
#198 = FACE_OUTER_BOUND ( 'NONE', #346, .T. ) ;
#199 = VECTOR ( 'NONE', #497, 1000.000000000000114 ) ;
#200 = FACE_OUTER_BOUND ( 'NONE', #447, .T. ) ;
#201 = AXIS2_PLACEMENT_3D ( 'NONE', #456, #262, #112 ) ;
#202 = AXIS2_PLACEMENT_3D ( 'NONE', #259, #553, #369 ) ;
#203 = EDGE_CURVE ( 'NONE', #557, #507, #3, .T. ) ;
#204 =( LENGTH_UNIT ( ) NAMED_UNIT ( * ) SI_UNIT ( .MILLI., .METRE. ) );
#205 = ORIENTED_EDGE ( 'NONE', *, *, #457, .F. ) ;
#206 = CARTESIAN_POINT ( 'NONE',  ( 38.04877047096733378, 0.000000000000000000, 32.00000609234219695 ) ) ;
#207 = ADVANCED_BREP_SHAPE_REPRESENTATION ( '202500220_03_Spannscheibe_V1.1', ( #391, #529 ), #173 ) ;
#208 = VERTEX_POINT ( 'NONE', #92 ) ;
#209 = DIRECTION ( 'NONE',  ( 1.000000000000000000, 0.000000000000000000, 0.000000000000000000 ) ) ;
#210 = CARTESIAN_POINT ( 'NONE',  ( 0.000000000000000000, 0.000000000000000000, 1.999999999999978462 ) ) ;
#211 = AXIS2_PLACEMENT_3D ( 'NONE', #535, #482, #292 ) ;
#212 = VECTOR ( 'NONE', #522, 1000.000000000000000 ) ;
#213 = ORIENTED_EDGE ( 'NONE', *, *, #27, .T. ) ;
#214 = DIRECTION ( 'NONE',  ( 0.000000000000000000, 0.000000000000000000, 1.000000000000000000 ) ) ;
#215 = ADVANCED_FACE ( 'NONE', ( #384, #428 ), #613, .F. ) ;
#216 = DIRECTION ( 'NONE',  ( 1.000000000000000000, 0.000000000000000000, 0.000000000000000000 ) ) ;
#217 = VERTEX_POINT ( 'NONE', #190 ) ;
#218 = CARTESIAN_POINT ( 'NONE',  ( 0.000000000000000000, 0.000000000000000000, 3.000000000000000000 ) ) ;
#219 = CARTESIAN_POINT ( 'NONE',  ( 0.000000000000000000, 0.000000000000000000, 33.00000000000000000 ) ) ;
#220 = EDGE_CURVE ( 'NONE', #189, #246, #264, .T. ) ;
#221 = ORIENTED_EDGE ( 'NONE', *, *, #195, .T. ) ;
#222 = CARTESIAN_POINT ( 'NONE',  ( 0.000000000000000000, 0.000000000000000000, 0.000000000000000000 ) ) ;
#223 = PLANE ( 'NONE',  #284 ) ;
#224 = AXIS2_PLACEMENT_3D ( 'NONE', #530, #104, #256 ) ;
#225 = EDGE_CURVE ( 'NONE', #557, #589, #472, .T. ) ;
#226 = ORIENTED_EDGE ( 'NONE', *, *, #398, .T. ) ;
#227 = CARTESIAN_POINT ( 'NONE',  ( 0.000000000000000000, 0.000000000000000000, 3.000000000000000000 ) ) ;
#228 = FACE_OUTER_BOUND ( 'NONE', #155, .T. ) ;
#229 = VERTEX_POINT ( 'NONE', #520 ) ;
#230 = CARTESIAN_POINT ( 'NONE',  ( 37.04177080567227875, 4.597969551033945916E-15, 33.00000000000000000 ) ) ;
#231 = ORIENTED_EDGE ( 'NONE', *, *, #430, .T. ) ;
#232 = FILL_AREA_STYLE_COLOUR ( '', #5 ) ;
#233 = LINE ( 'NONE', #277, #28 ) ;
#234 = AXIS2_PLACEMENT_3D ( 'NONE', #584, #149, #145 ) ;
#235 = CONICAL_SURFACE ( 'NONE', #581, 38.15000000000000568, 0.003490658503988666988 ) ;
#236 = VERTEX_POINT ( 'NONE', #87 ) ;
#237 = FACE_OUTER_BOUND ( 'NONE', #197, .T. ) ;
#238 = STYLED_ITEM ( 'NONE', ( #558 ), #207 ) ;
#239 = CARTESIAN_POINT ( 'NONE',  ( 0.000000000000000000, 0.000000000000000000, 0.000000000000000000 ) ) ;
#240 = DIRECTION ( 'NONE',  ( 1.000000000000000000, 0.000000000000000000, 0.000000000000000000 ) ) ;
#241 = DIRECTION ( 'NONE',  ( 1.000000000000000000, 0.000000000000000000, -0.000000000000000000 ) ) ;
#242 = CARTESIAN_POINT ( 'NONE',  ( -37.04177080567227875, 0.000000000000000000, 33.00000000000000000 ) ) ;
#243 = EDGE_CURVE ( 'NONE', #208, #402, #397, .T. ) ;
#244 = CIRCLE ( 'NONE', #440, 13.70000000000001705 ) ;
#245 = AXIS2_PLACEMENT_3D ( 'NONE', #227, #332, #368 ) ;
#246 = VERTEX_POINT ( 'NONE', #230 ) ;
#247 = FILL_AREA_STYLE_COLOUR ( '', #433 ) ;
#248 = ORIENTED_EDGE ( 'NONE', *, *, #17, .F. ) ;
#249 = DIRECTION ( 'NONE',  ( -1.000000000000000000, 0.000000000000000000, 0.000000000000000000 ) ) ;
#250 = DIRECTION ( 'NONE',  ( -0.003490651415223739937, -4.274815082592931898E-19, -0.9999939076577903929 ) ) ;
#251 = DIRECTION ( 'NONE',  ( 1.000000000000000000, 0.000000000000000000, 0.000000000000000000 ) ) ;
#252 = CIRCLE ( 'NONE', #245, 52.00000000000000711 ) ;
#253 = VERTEX_POINT ( 'NONE', #618 ) ;
#254 = PRODUCT_RELATED_PRODUCT_CATEGORY ( 'part', '', ( #548 ) ) ;
#255 = ORIENTED_EDGE ( 'NONE', *, *, #291, .F. ) ;
#256 = DIRECTION ( 'NONE',  ( -1.000000000000000000, 0.000000000000000000, 0.000000000000000000 ) ) ;
#257 = ORIENTED_EDGE ( 'NONE', *, *, #316, .T. ) ;
#258 = FACE_OUTER_BOUND ( 'NONE', #500, .T. ) ;
#259 = CARTESIAN_POINT ( 'NONE',  ( 0.000000000000000000, 0.000000000000000000, 13.00000000000000178 ) ) ;
#260 = ADVANCED_FACE ( 'NONE', ( #288 ), #117, .T. ) ;
#261 = ORIENTED_EDGE ( 'NONE', *, *, #444, .F. ) ;
#262 = DIRECTION ( 'NONE',  ( -0.000000000000000000, -0.000000000000000000, 1.000000000000000000 ) ) ;
#263 = FACE_OUTER_BOUND ( 'NONE', #495, .T. ) ;
#264 = CIRCLE ( 'NONE', #141, 37.04177080567227875 ) ;
#265 = AXIS2_PLACEMENT_3D ( 'NONE', #287, #140, #383 ) ;
#266 = EDGE_LOOP ( 'NONE', ( #59, #119, #466, #21 ) ) ;
#267 = CYLINDRICAL_SURFACE ( 'NONE', #201, 34.00000000000000000 ) ;
#268 = FACE_OUTER_BOUND ( 'NONE', #18, .T. ) ;
#269 = ORIENTED_EDGE ( 'NONE', *, *, #518, .T. ) ;
#270 = CARTESIAN_POINT ( 'NONE',  ( 37.04177080567227875, 4.536308605191643503E-15, 33.00000000000000000 ) ) ;
#271 = CARTESIAN_POINT ( 'NONE',  ( -34.00000000000000000, 4.163799117101000559E-15, 13.00000000000000178 ) ) ;
#272 = EDGE_CURVE ( 'NONE', #246, #189, #360, .T. ) ;
#273 = CARTESIAN_POINT ( 'NONE',  ( 0.000000000000000000, 0.000000000000000000, 1.000000000000014655 ) ) ;
#274 = DIRECTION ( 'NONE',  ( -1.000000000000000000, 0.000000000000000000, 0.000000000000000000 ) ) ;
#275 = AXIS2_PLACEMENT_3D ( 'NONE', #47, #187, #563 ) ;
#276 = EDGE_LOOP ( 'NONE', ( #331, #315, #221, #257 ) ) ;
#277 = CARTESIAN_POINT ( 'NONE',  ( -37.04177080567227875, 0.000000000000000000, 33.00000000000000000 ) ) ;
#278 = ORIENTED_EDGE ( 'NONE', *, *, #225, .F. ) ;
#279 = DIRECTION ( 'NONE',  ( 0.000000000000000000, 0.000000000000000000, 1.000000000000000000 ) ) ;
#280 = EDGE_CURVE ( 'NONE', #302, #402, #244, .T. ) ;
#282 = UNCERTAINTY_MEASURE_WITH_UNIT (LENGTH_MEASURE( 1.000000000000000082E-05 ), #571, 'distance_accuracy_value', 'NONE');
#281 = PRODUCT_CONTEXT ( 'NONE', #33, 'mechanical' ) ;
#283 = CARTESIAN_POINT ( 'NONE',  ( -5.209813981864140855E-18, 0.000000000000000000, 33.00000000000000000 ) ) ;
#284 = AXIS2_PLACEMENT_3D ( 'NONE', #83, #139, #241 ) ;
#285 = AXIS2_PLACEMENT_3D ( 'NONE', #593, #170, #123 ) ;
#286 = ORIENTED_EDGE ( 'NONE', *, *, #567, .F. ) ;
#287 = CARTESIAN_POINT ( 'NONE',  ( 0.000000000000000000, 0.000000000000000000, 1.000000000000014655 ) ) ;
#288 = FACE_OUTER_BOUND ( 'NONE', #490, .T. ) ;
#289 =( NAMED_UNIT ( * ) PLANE_ANGLE_UNIT ( ) SI_UNIT ( $, .RADIAN. ) );
#290 = DIRECTION ( 'NONE',  ( 0.000000000000000000, 0.000000000000000000, -1.000000000000000000 ) ) ;
#291 = EDGE_CURVE ( 'NONE', #310, #208, #401, .T. ) ;
#292 = DIRECTION ( 'NONE',  ( 1.000000000000000000, 0.000000000000000000, 0.000000000000000000 ) ) ;
#293 = AXIS2_PLACEMENT_3D ( 'NONE', #602, #357, #547 ) ;
#294 =( NAMED_UNIT ( * ) PLANE_ANGLE_UNIT ( ) SI_UNIT ( $, .RADIAN. ) );
#295 = ADVANCED_FACE ( 'NONE', ( #478 ), #429, .T. ) ;
#296 = ORIENTED_EDGE ( 'NONE', *, *, #387, .F. ) ;
#297 = DIRECTION ( 'NONE',  ( 1.000000000000000000, 0.000000000000000000, 0.000000000000000000 ) ) ;
#298 = AXIS2_PLACEMENT_3D ( 'NONE', #598, #559, #308 ) ;
#299 = VERTEX_POINT ( 'NONE', #323 ) ;
#300 = DIRECTION ( 'NONE',  ( -1.000000000000000000, 0.000000000000000000, 0.000000000000000000 ) ) ;
#301 = AXIS2_PLACEMENT_3D ( 'NONE', #410, #307, #359 ) ;
#302 = VERTEX_POINT ( 'NONE', #514 ) ;
#303 = DIRECTION ( 'NONE',  ( 1.000000000000000000, 0.000000000000000000, 0.000000000000000000 ) ) ;
#304 = DIRECTION ( 'NONE',  ( 0.000000000000000000, 0.000000000000000000, 1.000000000000000000 ) ) ;
#305 = EDGE_CURVE ( 'NONE', #476, #174, #172, .T. ) ;
#306 = VERTEX_POINT ( 'NONE', #206 ) ;
#307 = DIRECTION ( 'NONE',  ( 0.000000000000000000, 0.000000000000000000, -1.000000000000000000 ) ) ;
#308 = DIRECTION ( 'NONE',  ( -1.000000000000000000, 0.000000000000000000, 0.000000000000000000 ) ) ;
#309 = APPLICATION_CONTEXT ( 'automotive_design' ) ;
#310 = VERTEX_POINT ( 'NONE', #337 ) ;
#311 = CARTESIAN_POINT ( 'NONE',  ( -12.69999999999999929, 0.000000000000000000, 3.000000000000000000 ) ) ;
#312 = DIRECTION ( 'NONE',  ( 1.000000000000000000, 0.000000000000000000, 0.000000000000000000 ) ) ;
#313 = CONICAL_SURFACE ( 'NONE', #185, 13.70000000000001705, 0.7853981633974422838 ) ;
#314 = CIRCLE ( 'NONE', #202, 13.70000000000000639 ) ;
#315 = ORIENTED_EDGE ( 'NONE', *, *, #42, .T. ) ;
#316 = EDGE_CURVE ( 'NONE', #37, #343, #81, .T. ) ;
#317 = DIRECTION ( 'NONE',  ( -1.000000000000000000, 0.000000000000000000, 0.000000000000000000 ) ) ;
#318 = CARTESIAN_POINT ( 'NONE',  ( 38.15000000000000568, 0.000000000000000000, 3.000000000000000000 ) ) ;
#319 = ORIENTED_EDGE ( 'NONE', *, *, #137, .F. ) ;
#320 = DIRECTION ( 'NONE',  ( -0.000000000000000000, -0.000000000000000000, -1.000000000000000000 ) ) ;
#321 = LINE ( 'NONE', #74, #426 ) ;
#322 = EDGE_LOOP ( 'NONE', ( #103, #158 ) ) ;
#323 = CARTESIAN_POINT ( 'NONE',  ( -34.00000000000000000, 4.163799117101000559E-15, 33.00000000000000000 ) ) ;
#324 = CONICAL_SURFACE ( 'NONE', #483, 53.00000000000000711, 0.7853981633974482790 ) ;
#325 = ORIENTED_EDGE ( 'NONE', *, *, #316, .F. ) ;
#326 = DIRECTION ( 'NONE',  ( -0.000000000000000000, -0.000000000000000000, -1.000000000000000000 ) ) ;
#327 = ADVANCED_FACE ( 'NONE', ( #10 ), #432, .T. ) ;
#328 = ORIENTED_EDGE ( 'NONE', *, *, #91, .T. ) ;
#329 = DIRECTION ( 'NONE',  ( -0.000000000000000000, -0.000000000000000000, -1.000000000000000000 ) ) ;
#330 = FACE_OUTER_BOUND ( 'NONE', #585, .T. ) ;
#331 = ORIENTED_EDGE ( 'NONE', *, *, #335, .F. ) ;
#332 = DIRECTION ( 'NONE',  ( 0.000000000000000000, 0.000000000000000000, 1.000000000000000000 ) ) ;
#333 = CARTESIAN_POINT ( 'NONE',  ( 0.000000000000000000, 0.000000000000000000, 0.000000000000000000 ) ) ;
#334 = FACE_OUTER_BOUND ( 'NONE', #276, .T. ) ;
#335 = EDGE_CURVE ( 'NONE', #486, #343, #579, .T. ) ;
#336 = CARTESIAN_POINT ( 'NONE',  ( 0.000000000000000000, 0.000000000000000000, 3.000000000000000000 ) ) ;
#337 = CARTESIAN_POINT ( 'NONE',  ( 12.69999999999999929, 1.555301434917138433E-15, 1.000000000000030420 ) ) ;
#338 = PRESENTATION_STYLE_ASSIGNMENT (( #435 ) ) ;
#339 = AXIS2_PLACEMENT_3D ( 'NONE', #55, #51, #251 ) ;
#340 = AXIS2_PLACEMENT_3D ( 'NONE', #336, #40, #480 ) ;
#341 = CIRCLE ( 'NONE', #151, 13.70000000000001705 ) ;
#342 = EDGE_CURVE ( 'NONE', #306, #486, #621, .T. ) ;
#343 = VERTEX_POINT ( 'NONE', #344 ) ;
#344 = CARTESIAN_POINT ( 'NONE',  ( -38.15000000000000568, -4.672027538747153160E-15, 3.000000000000000000 ) ) ;
#345 = VECTOR ( 'NONE', #378, 1000.000000000000000 ) ;
#346 = EDGE_LOOP ( 'NONE', ( #437, #231, #134, #596 ) ) ;
#347 = DIRECTION ( 'NONE',  ( 1.000000000000000000, 0.000000000000000000, 0.000000000000000000 ) ) ;
#348 = PRESENTATION_LAYER_ASSIGNMENT (  '', '', ( #107 ) ) ;
#349 = ADVANCED_FACE ( 'NONE', ( #198 ), #527, .F. ) ;
#350 = EDGE_LOOP ( 'NONE', ( #85, #420 ) ) ;
#351 = EDGE_LOOP ( 'NONE', ( #255, #610, #111, #122 ) ) ;
#352 = CARTESIAN_POINT ( 'NONE',  ( 0.000000000000000000, 0.000000000000000000, 11.99999999999999289 ) ) ;
#353 = PRODUCT_DEFINITION_SHAPE ( 'NONE', 'NONE',  #191 ) ;
#354 = DIRECTION ( 'NONE',  ( 1.000000000000000000, 0.000000000000000000, 0.000000000000000000 ) ) ;
#355 = ORIENTED_EDGE ( 'NONE', *, *, #408, .T. ) ;
#356 = DIRECTION ( 'NONE',  ( -0.000000000000000000, -0.000000000000000000, -1.000000000000000000 ) ) ;
#357 = DIRECTION ( 'NONE',  ( 0.000000000000000000, 0.000000000000000000, 1.000000000000000000 ) ) ;
#358 = ORIENTED_EDGE ( 'NONE', *, *, #599, .F. ) ;
#359 = DIRECTION ( 'NONE',  ( 1.000000000000000000, 0.000000000000000000, 0.000000000000000000 ) ) ;
#360 = CIRCLE ( 'NONE', #275, 37.04177080567227875 ) ;
#361 = FACE_BOUND ( 'NONE', #322, .T. ) ;
#362 = MECHANICAL_DESIGN_GEOMETRIC_PRESENTATION_REPRESENTATION (  '', ( #238 ), #93 ) ;
#363 = CIRCLE ( 'NONE', #554, 53.00000000000000711 ) ;
#364 = ORIENTED_EDGE ( 'NONE', *, *, #220, .F. ) ;
#365 = DIRECTION ( 'NONE',  ( 1.000000000000000000, 0.000000000000000000, 0.000000000000000000 ) ) ;
#366 = CARTESIAN_POINT ( 'NONE',  ( 0.000000000000000000, 0.000000000000000000, 11.99999999999999289 ) ) ;
#367 = ORIENTED_EDGE ( 'NONE', *, *, #203, .T. ) ;
#368 = DIRECTION ( 'NONE',  ( 1.000000000000000000, 0.000000000000000000, 0.000000000000000000 ) ) ;
#369 = DIRECTION ( 'NONE',  ( 1.000000000000000000, 0.000000000000000000, 0.000000000000000000 ) ) ;
#370 = ORIENTED_EDGE ( 'NONE', *, *, #84, .F. ) ;
#371 = LINE ( 'NONE', #477, #212 ) ;
#372 = DIRECTION ( 'NONE',  ( 1.000000000000000000, 0.000000000000000000, 0.000000000000000000 ) ) ;
#373 = ADVANCED_FACE ( 'NONE', ( #200 ), #324, .T. ) ;
#374 = CONICAL_SURFACE ( 'NONE', #57, 13.70000000000001705, 0.7853981633974422838 ) ;
#375 = VECTOR ( 'NONE', #175, 999.9999999999998863 ) ;
#376 = EDGE_LOOP ( 'NONE', ( #451, #443, #459, #41 ) ) ;
#377 =( NAMED_UNIT ( * ) SI_UNIT ( $, .STERADIAN. ) SOLID_ANGLE_UNIT ( ) );
#378 = DIRECTION ( 'NONE',  ( -0.000000000000000000, -0.000000000000000000, -1.000000000000000000 ) ) ;
#379 = VERTEX_POINT ( 'NONE', #54 ) ;
#380 = CARTESIAN_POINT ( 'NONE',  ( -5.209813981864140855E-18, 0.000000000000000000, 33.00000000000000000 ) ) ;
#381 = DIRECTION ( 'NONE',  ( 1.000000000000000000, 0.000000000000000000, 0.000000000000000000 ) ) ;
#382 = EDGE_CURVE ( 'NONE', #229, #110, #68, .T. ) ;
#383 = DIRECTION ( 'NONE',  ( 1.000000000000000000, 0.000000000000000000, 0.000000000000000000 ) ) ;
#384 = FACE_BOUND ( 'NONE', #492, .T. ) ;
#385 = CIRCLE ( 'NONE', #580, 34.00000000000000000 ) ;
#386 = AXIS2_PLACEMENT_3D ( 'NONE', #13, #496, #452 ) ;
#387 = EDGE_CURVE ( 'NONE', #208, #310, #499, .T. ) ;
#388 = DIRECTION ( 'NONE',  ( 0.000000000000000000, 0.000000000000000000, 1.000000000000000000 ) ) ;
#389 = CARTESIAN_POINT ( 'NONE',  ( -5.209813981864140855E-18, 0.000000000000000000, 32.00000609234219695 ) ) ;
#390 = ORIENTED_EDGE ( 'NONE', *, *, #342, .T. ) ;
#391 = MANIFOLD_SOLID_BREP ( 'Fase2', #475 ) ;
#392 = CARTESIAN_POINT ( 'NONE',  ( 0.000000000000000000, 0.000000000000000000, 3.000000000000000000 ) ) ;
#393 = EDGE_CURVE ( 'NONE', #110, #299, #396, .T. ) ;
#394 = CIRCLE ( 'NONE', #465, 53.00000000000000711 ) ;
#395 = DIRECTION ( 'NONE',  ( -0.000000000000000000, -0.000000000000000000, 1.000000000000000000 ) ) ;
#396 = LINE ( 'NONE', #439, #591 ) ;
#397 = LINE ( 'NONE', #143, #612 ) ;
#398 = EDGE_CURVE ( 'NONE', #343, #37, #550, .T. ) ;
#399 = VERTEX_POINT ( 'NONE', #532 ) ;
#400 = CARTESIAN_POINT ( 'NONE',  ( 0.000000000000000000, 0.000000000000000000, 13.00000000000000178 ) ) ;
#401 = CIRCLE ( 'NONE', #488, 12.69999999999999929 ) ;
#402 = VERTEX_POINT ( 'NONE', #101 ) ;
#403 = LINE ( 'NONE', #115, #574 ) ;
#404 = DIRECTION ( 'NONE',  ( 0.7071067811865432429, 8.659560562354879857E-17, -0.7071067811865517916 ) ) ;
#405 = EDGE_LOOP ( 'NONE', ( #102, #213, #30, #565 ) ) ;
#406 = LINE ( 'NONE', #270, #441 ) ;
#407 = CARTESIAN_POINT ( 'NONE',  ( 52.00000000000000711, 6.368163355566237170E-15, 3.000000000000000000 ) ) ;
#408 = EDGE_CURVE ( 'NONE', #589, #162, #394, .T. ) ;
#409 = ORIENTED_EDGE ( 'NONE', *, *, #544, .F. ) ;
#410 = CARTESIAN_POINT ( 'NONE',  ( 0.000000000000000000, 0.000000000000000000, 1.999999999999978462 ) ) ;
#411 = DIRECTION ( 'NONE',  ( -0.7071067811865469066, 8.659560562354926695E-17, 0.7071067811865482389 ) ) ;
#412 = EDGE_LOOP ( 'NONE', ( #9, #24, #328, #56 ) ) ;
#413 = CARTESIAN_POINT ( 'NONE',  ( -13.70000000000000639, 1.677766114831874567E-15, 13.00000000000000178 ) ) ;
#414 = VECTOR ( 'NONE', #49, 1000.000000000000000 ) ;
#415 = CYLINDRICAL_SURFACE ( 'NONE', #298, 53.00000000000000711 ) ;
#416 = CIRCLE ( 'NONE', #118, 34.00000000000000000 ) ;
#417 = ORIENTED_EDGE ( 'NONE', *, *, #393, .T. ) ;
#418 = CARTESIAN_POINT ( 'NONE',  ( 0.000000000000000000, 0.000000000000000000, 0.000000000000000000 ) ) ;
#419 = LINE ( 'NONE', #176, #199 ) ;
#420 = ORIENTED_EDGE ( 'NONE', *, *, #305, .T. ) ;
#421 = EDGE_CURVE ( 'NONE', #253, #299, #416, .T. ) ;
#422 = SURFACE_STYLE_FILL_AREA ( #525 ) ;
#423 = CARTESIAN_POINT ( 'NONE',  ( 53.00000000000000711, 6.490628035480973107E-15, 3.000000000000000000 ) ) ;
#424 = DIRECTION ( 'NONE',  ( 0.000000000000000000, 0.000000000000000000, -1.000000000000000000 ) ) ;
#425 = DIRECTION ( 'NONE',  ( -0.000000000000000000, -0.000000000000000000, -1.000000000000000000 ) ) ;
#426 = VECTOR ( 'NONE', #404, 1000.000000000000000 ) ;
#427 = ORIENTED_EDGE ( 'NONE', *, *, #133, .F. ) ;
#428 = FACE_OUTER_BOUND ( 'NONE', #165, .T. ) ;
#429 = CYLINDRICAL_SURFACE ( 'NONE', #340, 53.00000000000000711 ) ;
#430 = EDGE_CURVE ( 'NONE', #34, #310, #403, .T. ) ;
#431 = CARTESIAN_POINT ( 'NONE',  ( 0.000000000000000000, 0.000000000000000000, 3.000000000000000000 ) ) ;
#432 = CONICAL_SURFACE ( 'NONE', #224, 52.00000000000000711, 0.7853981633974378429 ) ;
#433 = COLOUR_RGB ( '',0.6470588235294117974, 0.6196078431372549211, 0.5882352941176470784 ) ;
#434 = ORIENTED_EDGE ( 'NONE', *, *, #105, .T. ) ;
#435 = SURFACE_STYLE_USAGE ( .BOTH. , #446 ) ;
#436 = ORIENTED_EDGE ( 'NONE', *, *, #105, .F. ) ;
#437 = ORIENTED_EDGE ( 'NONE', *, *, #531, .T. ) ;
#438 = CARTESIAN_POINT ( 'NONE',  ( -5.209813981864140855E-18, 0.000000000000000000, 3.000000000000000000 ) ) ;
#439 = CARTESIAN_POINT ( 'NONE',  ( -34.00000000000000000, 4.163799117101000559E-15, 13.00000000000000178 ) ) ;
#440 = AXIS2_PLACEMENT_3D ( 'NONE', #89, #279, #469 ) ;
#441 = VECTOR ( 'NONE', #462, 1000.000000000000114 ) ;
#442 = CARTESIAN_POINT ( 'NONE',  ( 0.000000000000000000, 0.000000000000000000, 1.000000000000014655 ) ) ;
#443 = ORIENTED_EDGE ( 'NONE', *, *, #168, .T. ) ;
#444 = EDGE_CURVE ( 'NONE', #110, #229, #515, .T. ) ;
#445 = EDGE_LOOP ( 'NONE', ( #319, #148, #62, #169 ) ) ;
#446 = SURFACE_SIDE_STYLE ('',( #60 ) ) ;
#447 = EDGE_LOOP ( 'NONE', ( #125, #114, #50, #427 ) ) ;
#448 = FACE_OUTER_BOUND ( 'NONE', #186, .T. ) ;
#449 = CARTESIAN_POINT ( 'NONE',  ( 12.69999999999999929, 1.555301434917138433E-15, 11.99999999999999289 ) ) ;
#450 = AXIS2_PLACEMENT_3D ( 'NONE', #366, #304, #67 ) ;
#451 = ORIENTED_EDGE ( 'NONE', *, *, #11, .T. ) ;
#452 = DIRECTION ( 'NONE',  ( -1.000000000000000000, 0.000000000000000000, 0.000000000000000000 ) ) ;
#453 = AXIS2_PLACEMENT_3D ( 'NONE', #22, #605, #347 ) ;
#454 = FACE_BOUND ( 'NONE', #587, .T. ) ;
#455 = ORIENTED_EDGE ( 'NONE', *, *, #599, .T. ) ;
#456 = CARTESIAN_POINT ( 'NONE',  ( 0.000000000000000000, 0.000000000000000000, 13.00000000000000178 ) ) ;
#457 = EDGE_CURVE ( 'NONE', #507, #557, #193, .T. ) ;
#458 = LINE ( 'NONE', #23, #536 ) ;
#459 = ORIENTED_EDGE ( 'NONE', *, *, #471, .T. ) ;
#460 = DIRECTION ( 'NONE',  ( 1.000000000000000000, 0.000000000000000000, -0.000000000000000000 ) ) ;
#461 = FACE_OUTER_BOUND ( 'NONE', #445, .T. ) ;
#462 = DIRECTION ( 'NONE',  ( 0.7095707365365221397, 8.689735312680816808E-17, -0.7046342099635934941 ) ) ;
#463 = VECTOR ( 'NONE', #121, 1000.000000000000000 ) ;
#464 = CARTESIAN_POINT ( 'NONE',  ( -5.209813981864140855E-18, 0.000000000000000000, 3.000000000000000000 ) ) ;
#465 = AXIS2_PLACEMENT_3D ( 'NONE', #442, #395, #297 ) ;
#466 = ORIENTED_EDGE ( 'NONE', *, *, #42, .F. ) ;
#467 = DIRECTION ( 'NONE',  ( -0.7071067811865474617, 8.659560562354932858E-17, 0.7071067811865474617 ) ) ;
#468 = APPLICATION_PROTOCOL_DEFINITION ( 'draft international standard', 'automotive_design', 1998, #33 ) ;
#469 = DIRECTION ( 'NONE',  ( 1.000000000000000000, 0.000000000000000000, 0.000000000000000000 ) ) ;
#470 = CARTESIAN_POINT ( 'NONE',  ( -5.209813981864140855E-18, 0.000000000000000000, 3.000000000000000000 ) ) ;
#471 = EDGE_CURVE ( 'NONE', #162, #589, #142, .T. ) ;
#472 = LINE ( 'NONE', #570, #524 ) ;
#473 = AXIS2_PLACEMENT_3D ( 'NONE', #431, #290, #44 ) ;
#474 = AXIS2_PLACEMENT_3D ( 'NONE', #273, #505, #163 ) ;
#475 = CLOSED_SHELL ( 'NONE', ( #549, #498, #373, #327, #586, #510, #99, #295, #349, #38, #154, #215, #53, #157, #619, #575, #484, #582, #260, #594, #146, #188 ) ) ;
#476 = VERTEX_POINT ( 'NONE', #413 ) ;
#477 = CARTESIAN_POINT ( 'NONE',  ( -52.00000000000000711, 0.000000000000000000, 3.000000000000000000 ) ) ;
#478 = FACE_OUTER_BOUND ( 'NONE', #376, .T. ) ;
#479 = EDGE_CURVE ( 'NONE', #399, #208, #546, .T. ) ;
#480 = DIRECTION ( 'NONE',  ( -1.000000000000000000, 0.000000000000000000, 0.000000000000000000 ) ) ;
#481 = ORIENTED_EDGE ( 'NONE', *, *, #544, .T. ) ;
#482 = DIRECTION ( 'NONE',  ( 0.000000000000000000, 0.000000000000000000, 1.000000000000000000 ) ) ;
#483 = AXIS2_PLACEMENT_3D ( 'NONE', #96, #577, #144 ) ;
#484 = ADVANCED_FACE ( 'NONE', ( #501, #66 ), #76, .T. ) ;
#485 =( NAMED_UNIT ( * ) SI_UNIT ( $, .STERADIAN. ) SOLID_ANGLE_UNIT ( ) );
#486 = VERTEX_POINT ( 'NONE', #25 ) ;
#487 = CARTESIAN_POINT ( 'NONE',  ( 0.000000000000000000, 0.000000000000000000, 33.00000000000000000 ) ) ;
#488 = AXIS2_PLACEMENT_3D ( 'NONE', #127, #620, #572 ) ;
#489 = AXIS2_PLACEMENT_3D ( 'NONE', #400, #508, #460 ) ;
#490 = EDGE_LOOP ( 'NONE', ( #436, #409, #75, #181 ) ) ;
#491 = FILL_AREA_STYLE ('',( #247 ) ) ;
#492 = EDGE_LOOP ( 'NONE', ( #504, #88 ) ) ;
#493 = DIRECTION ( 'NONE',  ( -0.000000000000000000, -0.000000000000000000, 1.000000000000000000 ) ) ;
#494 = DIRECTION ( 'NONE',  ( -1.000000000000000000, 0.000000000000000000, 0.000000000000000000 ) ) ;
#495 = EDGE_LOOP ( 'NONE', ( #481, #455 ) ) ;
#496 = DIRECTION ( 'NONE',  ( 0.000000000000000000, 0.000000000000000000, -1.000000000000000000 ) ) ;
#497 = DIRECTION ( 'NONE',  ( 0.7071067811865474617, 0.000000000000000000, 0.7071067811865474617 ) ) ;
#498 = ADVANCED_FACE ( 'NONE', ( #448 ), #43, .F. ) ;
#499 = CIRCLE ( 'NONE', #234, 12.69999999999999929 ) ;
#500 = EDGE_LOOP ( 'NONE', ( #286, #364, #138, #568 ) ) ;
#501 = FACE_BOUND ( 'NONE', #350, .T. ) ;
#502 = PRESENTATION_LAYER_ASSIGNMENT (  '', '', ( #238 ) ) ;
#503 = DIRECTION ( 'NONE',  ( -0.000000000000000000, -0.000000000000000000, -1.000000000000000000 ) ) ;
#504 = ORIENTED_EDGE ( 'NONE', *, *, #615, .T. ) ;
#505 = DIRECTION ( 'NONE',  ( -0.000000000000000000, -0.000000000000000000, 1.000000000000000000 ) ) ;
#506 = DIRECTION ( 'NONE',  ( 0.000000000000000000, 0.000000000000000000, 1.000000000000000000 ) ) ;
#507 = VERTEX_POINT ( 'NONE', #542 ) ;
#508 = DIRECTION ( 'NONE',  ( 0.000000000000000000, 0.000000000000000000, 1.000000000000000000 ) ) ;
#509 = FACE_OUTER_BOUND ( 'NONE', #12, .T. ) ;
#510 = ADVANCED_FACE ( 'NONE', ( #73 ), #267, .F. ) ;
#511 = ORIENTED_EDGE ( 'NONE', *, *, #382, .T. ) ;
#512 = CARTESIAN_POINT ( 'NONE',  ( 0.000000000000000000, 0.000000000000000000, 0.000000000000000000 ) ) ;
#513 = AXIS2_PLACEMENT_3D ( 'NONE', #464, #77, #354 ) ;
#514 = CARTESIAN_POINT ( 'NONE',  ( 13.70000000000001705, 1.677766114831876145E-15, 0.000000000000000000 ) ) ;
#515 = CIRCLE ( 'NONE', #285, 34.00000000000000000 ) ;
#516 = ORIENTED_EDGE ( 'NONE', *, *, #457, .T. ) ;
#517 = DIRECTION ( 'NONE',  ( 1.000000000000000000, 0.000000000000000000, -0.000000000000000000 ) ) ;
#518 = EDGE_CURVE ( 'NONE', #217, #236, #16, .T. ) ;
#519 = EDGE_LOOP ( 'NONE', ( #261, #417, #624, #541 ) ) ;
#520 = CARTESIAN_POINT ( 'NONE',  ( 34.00000000000000000, 0.000000000000000000, 13.00000000000000178 ) ) ;
#521 = ORIENTED_EDGE ( 'NONE', *, *, #272, .T. ) ;
#522 = DIRECTION ( 'NONE',  ( -0.7071067811865401342, 0.000000000000000000, -0.7071067811865549002 ) ) ;
#523 = DIRECTION ( 'NONE',  ( -1.000000000000000000, 0.000000000000000000, 0.000000000000000000 ) ) ;
#524 = VECTOR ( 'NONE', #467, 1000.000000000000114 ) ;
#525 = FILL_AREA_STYLE ('',( #232 ) ) ;
#526 = CARTESIAN_POINT ( 'NONE',  ( 38.15000000000000568, 0.000000000000000000, 3.000000000000000000 ) ) ;
#527 = CYLINDRICAL_SURFACE ( 'NONE', #128, 12.69999999999999929 ) ;
#528 = CONICAL_SURFACE ( 'NONE', #450, 12.69999999999999929, 0.7853981633974473908 ) ;
#529 = AXIS2_PLACEMENT_3D ( 'NONE', #418, #182, #86 ) ;
#530 = CARTESIAN_POINT ( 'NONE',  ( 0.000000000000000000, 0.000000000000000000, 3.000000000000000000 ) ) ;
#531 = EDGE_CURVE ( 'NONE', #399, #34, #564, .T. ) ;
#532 = CARTESIAN_POINT ( 'NONE',  ( -12.69999999999999929, 0.000000000000000000, 11.99999999999999289 ) ) ;
#533 = ORIENTED_EDGE ( 'NONE', *, *, #534, .F. ) ;
#534 = EDGE_CURVE ( 'NONE', #34, #174, #601, .T. ) ;
#535 = CARTESIAN_POINT ( 'NONE',  ( 0.000000000000000000, 0.000000000000000000, 13.00000000000000178 ) ) ;
#536 = VECTOR ( 'NONE', #411, 999.9999999999998863 ) ;
#537 = VECTOR ( 'NONE', #597, 1000.000000000000000 ) ;
#538 = ORIENTED_EDGE ( 'NONE', *, *, #137, .T. ) ;
#539 = CYLINDRICAL_SURFACE ( 'NONE', #98, 34.00000000000000000 ) ;
#540 = ORIENTED_EDGE ( 'NONE', *, *, #398, .F. ) ;
#541 = ORIENTED_EDGE ( 'NONE', *, *, #91, .F. ) ;
#542 = CARTESIAN_POINT ( 'NONE',  ( 51.99999999999999289, 0.000000000000000000, 0.000000000000000000 ) ) ;
#543 = LINE ( 'NONE', #407, #15 ) ;
#544 = EDGE_CURVE ( 'NONE', #153, #379, #29, .T. ) ;
#545 = EDGE_LOOP ( 'NONE', ( #511, #607 ) ) ;
#546 = LINE ( 'NONE', #311, #537 ) ;
#547 = DIRECTION ( 'NONE',  ( 1.000000000000000000, 0.000000000000000000, -0.000000000000000000 ) ) ;
#548 = PRODUCT ( '202500220_03_Spannscheibe_V1.1', '202500220_03_Spannscheibe_V1.1', '', ( #281 ) ) ;
#549 = ADVANCED_FACE ( 'NONE', ( #120 ), #313, .F. ) ;
#550 = CIRCLE ( 'NONE', #161, 38.15000000000000568 ) ;
#551 = ORIENTED_EDGE ( 'NONE', *, *, #72, .T. ) ;
#552 = DIRECTION ( 'NONE',  ( 0.000000000000000000, 0.000000000000000000, 1.000000000000000000 ) ) ;
#553 = DIRECTION ( 'NONE',  ( -0.000000000000000000, -0.000000000000000000, -1.000000000000000000 ) ) ;
#554 = AXIS2_PLACEMENT_3D ( 'NONE', #210, #113, #116 ) ;
#555 = CARTESIAN_POINT ( 'NONE',  ( 0.000000000000000000, 0.000000000000000000, 0.000000000000000000 ) ) ;
#556 = FACE_OUTER_BOUND ( 'NONE', #405, .T. ) ;
#557 = VERTEX_POINT ( 'NONE', #79 ) ;
#558 = PRESENTATION_STYLE_ASSIGNMENT (( #131 ) ) ;
#559 = DIRECTION ( 'NONE',  ( -0.000000000000000000, -0.000000000000000000, -1.000000000000000000 ) ) ;
#560 = ORIENTED_EDGE ( 'NONE', *, *, #168, .F. ) ;
#561 =( LENGTH_UNIT ( ) NAMED_UNIT ( * ) SI_UNIT ( .MILLI., .METRE. ) );
#562 = CONICAL_SURFACE ( 'NONE', #513, 38.15000000000000568, 0.003490658503988666988 ) ;
#563 = DIRECTION ( 'NONE',  ( 1.000000000000000000, 0.000000000000000000, 0.000000000000000000 ) ) ;
#564 = CIRCLE ( 'NONE', #453, 12.69999999999999929 ) ;
#565 = ORIENTED_EDGE ( 'NONE', *, *, #387, .T. ) ;
#566 = LINE ( 'NONE', #526, #414 ) ;
#567 = EDGE_CURVE ( 'NONE', #246, #306, #406, .T. ) ;
#568 = ORIENTED_EDGE ( 'NONE', *, *, #342, .F. ) ;
#569 = DIRECTION ( 'NONE',  ( 1.000000000000000000, 0.000000000000000000, 0.000000000000000000 ) ) ;
#570 = CARTESIAN_POINT ( 'NONE',  ( -53.00000000000000711, 6.490628035480973107E-15, 1.000000000000014655 ) ) ;
#571 =( LENGTH_UNIT ( ) NAMED_UNIT ( * ) SI_UNIT ( .MILLI., .METRE. ) );
#572 = DIRECTION ( 'NONE',  ( 1.000000000000000000, 0.000000000000000000, 0.000000000000000000 ) ) ;
#573 = VECTOR ( 'NONE', #250, 1000.000000000000000 ) ;
#574 = VECTOR ( 'NONE', #356, 1000.000000000000000 ) ;
#575 = ADVANCED_FACE ( 'NONE', ( #31 ), #539, .F. ) ;
#576 = DIRECTION ( 'NONE',  ( -0.000000000000000000, -0.000000000000000000, -1.000000000000000000 ) ) ;
#577 = DIRECTION ( 'NONE',  ( -0.000000000000000000, -0.000000000000000000, 1.000000000000000000 ) ) ;
#578 = ORIENTED_EDGE ( 'NONE', *, *, #220, .T. ) ;
#579 = LINE ( 'NONE', #100, #573 ) ;
#580 = AXIS2_PLACEMENT_3D ( 'NONE', #219, #506, #216 ) ;
#581 = AXIS2_PLACEMENT_3D ( 'NONE', #470, #329, #569 ) ;
#582 = ADVANCED_FACE ( 'NONE', ( #258 ), #622, .T. ) ;
#583 = AXIS2_PLACEMENT_3D ( 'NONE', #609, #171, #312 ) ;
#584 = CARTESIAN_POINT ( 'NONE',  ( 0.000000000000000000, 0.000000000000000000, 1.000000000000030420 ) ) ;
#585 = EDGE_LOOP ( 'NONE', ( #370, #296, #65, #8 ) ) ;
#586 = ADVANCED_FACE ( 'NONE', ( #166 ), #129, .T. ) ;
#587 = EDGE_LOOP ( 'NONE', ( #325, #540 ) ) ;
#588 = DIRECTION ( 'NONE',  ( -0.000000000000000000, -0.000000000000000000, 1.000000000000000000 ) ) ;
#589 = VERTEX_POINT ( 'NONE', #135 ) ;
#590 = DIRECTION ( 'NONE',  ( -0.000000000000000000, -0.000000000000000000, -1.000000000000000000 ) ) ;
#591 = VECTOR ( 'NONE', #588, 1000.000000000000000 ) ;
#592 = ORIENTED_EDGE ( 'NONE', *, *, #603, .F. ) ;
#593 = CARTESIAN_POINT ( 'NONE',  ( 0.000000000000000000, 0.000000000000000000, 13.00000000000000178 ) ) ;
#594 = ADVANCED_FACE ( 'NONE', ( #237 ), #614, .T. ) ;
#595 = LINE ( 'NONE', #167, #463 ) ;
#596 = ORIENTED_EDGE ( 'NONE', *, *, #479, .F. ) ;
#597 = DIRECTION ( 'NONE',  ( -0.000000000000000000, -0.000000000000000000, -1.000000000000000000 ) ) ;
#598 = CARTESIAN_POINT ( 'NONE',  ( 0.000000000000000000, 0.000000000000000000, 3.000000000000000000 ) ) ;
#599 = EDGE_CURVE ( 'NONE', #379, #153, #252, .T. ) ;
#600 = ORIENTED_EDGE ( 'NONE', *, *, #335, .T. ) ;
#601 = LINE ( 'NONE', #19, #375 ) ;
#602 = CARTESIAN_POINT ( 'NONE',  ( 0.000000000000000000, 0.000000000000000000, 3.000000000000000000 ) ) ;
#603 = EDGE_CURVE ( 'NONE', #153, #236, #371, .T. ) ;
#604 = ORIENTED_EDGE ( 'NONE', *, *, #408, .F. ) ;
#605 = DIRECTION ( 'NONE',  ( 0.000000000000000000, 0.000000000000000000, 1.000000000000000000 ) ) ;
#606 = DIRECTION ( 'NONE',  ( 0.7071067811865401342, 8.659560562354842879E-17, -0.7071067811865549002 ) ) ;
#607 = ORIENTED_EDGE ( 'NONE', *, *, #444, .T. ) ;
#608 =( NAMED_UNIT ( * ) PLANE_ANGLE_UNIT ( ) SI_UNIT ( $, .RADIAN. ) );
#609 = CARTESIAN_POINT ( 'NONE',  ( 0.000000000000000000, 0.000000000000000000, 11.99999999999999289 ) ) ;
#610 = ORIENTED_EDGE ( 'NONE', *, *, #84, .T. ) ;
#611 = CARTESIAN_POINT ( 'NONE',  ( 53.00000000000000711, 6.490628035480973107E-15, 1.000000000000014655 ) ) ;
#612 = VECTOR ( 'NONE', #192, 1000.000000000000000 ) ;
#613 = PLANE ( 'NONE',  #147 ) ;
#614 = CONICAL_SURFACE ( 'NONE', #265, 53.00000000000000711, 0.7853981633974482790 ) ;
#615 = EDGE_CURVE ( 'NONE', #402, #302, #341, .T. ) ;
#616 = CARTESIAN_POINT ( 'NONE',  ( 13.70000000000000639, 0.000000000000000000, 13.00000000000000178 ) ) ;
#617 = UNCERTAINTY_MEASURE_WITH_UNIT (LENGTH_MEASURE( 1.000000000000000082E-05 ), #204, 'distance_accuracy_value', 'NONE');
#618 = CARTESIAN_POINT ( 'NONE',  ( 34.00000000000000000, 0.000000000000000000, 33.00000000000000000 ) ) ;
#619 = ADVANCED_FACE ( 'NONE', ( #334 ), #235, .T. ) ;
#620 = DIRECTION ( 'NONE',  ( -0.000000000000000000, -0.000000000000000000, -1.000000000000000000 ) ) ;
#621 = CIRCLE ( 'NONE', #160, 38.04877047096733378 ) ;
#622 = CONICAL_SURFACE ( 'NONE', #386, 37.04177080567227875, 0.7888888219014386083 ) ;
#623 = PRODUCT_DEFINITION_FORMATION_WITH_SPECIFIED_SOURCE ( 'ANY', '', #548, .NOT_KNOWN. ) ;
#624 = ORIENTED_EDGE ( 'NONE', *, *, #61, .T. ) ;
ENDSEC;
END-ISO-10303-21;
