ISO-10303-21;
HEADER;
FILE_DESCRIPTION (( 'STEP AP214' ),
    '1' );
FILE_NAME ('202500220_03_Spannscheibe_Alu_V1.1.STEP',
    '2025-09-30T11:44:39',
    ( '' ),
    ( '' ),
    'SwSTEP 2.0',
    'SolidWorks 2021',
    '' );
FILE_SCHEMA (( 'AUTOMOTIVE_DESIGN' ));
ENDSEC;

DATA;
#1 = EDGE_LOOP ( 'NONE', ( #189, #448, #525, #431 ) ) ;
#2 = DIRECTION ( 'NONE',  ( -0.000000000000000000, -0.000000000000000000, -1.000000000000000000 ) ) ;
#3 = ORIENTED_EDGE ( 'NONE', *, *, #63, .F. ) ;
#4 = DIRECTION ( 'NONE',  ( 1.000000000000000000, 0.000000000000000000, 0.000000000000000000 ) ) ;
#5 = AXIS2_PLACEMENT_3D ( 'NONE', #41, #248, #83 ) ;
#6 = AXIS2_PLACEMENT_3D ( 'NONE', #103, #608, #360 ) ;
#7 = VERTEX_POINT ( 'NONE', #367 ) ;
#8 = DIRECTION ( 'NONE',  ( 0.7071067811865500152, 0.000000000000000000, 0.7071067811865451302 ) ) ;
#9 = FACE_OUTER_BOUND ( 'NONE', #534, .T. ) ;
#10 = EDGE_CURVE ( 'NONE', #60, #396, #236, .T. ) ;
#11 = ORIENTED_EDGE ( 'NONE', *, *, #235, .F. ) ;
#12 = DIRECTION ( 'NONE',  ( -0.000000000000000000, -0.000000000000000000, -1.000000000000000000 ) ) ;
#13 = FACE_OUTER_BOUND ( 'NONE', #553, .T. ) ;
#14 = ORIENTED_EDGE ( 'NONE', *, *, #420, .T. ) ;
#15 = PRESENTATION_STYLE_ASSIGNMENT (( #336 ) ) ;
#16 = CARTESIAN_POINT ( 'NONE',  ( -30.00000000000000000, 3.673940397442059178E-15, 17.99999999999999645 ) ) ;
#17 = ORIENTED_EDGE ( 'NONE', *, *, #527, .F. ) ;
#18 = EDGE_CURVE ( 'NONE', #178, #453, #146, .T. ) ;
#19 = CARTESIAN_POINT ( 'NONE',  ( 0.000000000000000000, 0.000000000000000000, 1.000000000000007772 ) ) ;
#20 =( GEOMETRIC_REPRESENTATION_CONTEXT ( 3 ) GLOBAL_UNCERTAINTY_ASSIGNED_CONTEXT ( ( #623 ) ) GLOBAL_UNIT_ASSIGNED_CONTEXT ( ( #355, #135, #36 ) ) REPRESENTATION_CONTEXT ( 'NONE', 'WORKASPACE' ) );
#21 = FACE_OUTER_BOUND ( 'NONE', #301, .T. ) ;
#22 = ORIENTED_EDGE ( 'NONE', *, *, #272, .F. ) ;
#23 = EDGE_CURVE ( 'NONE', #453, #237, #602, .T. ) ;
#24 = CARTESIAN_POINT ( 'NONE',  ( 0.000000000000000000, 0.000000000000000000, 3.999999999999964473 ) ) ;
#25 = VERTEX_POINT ( 'NONE', #155 ) ;
#26 = DIRECTION ( 'NONE',  ( 0.000000000000000000, 0.000000000000000000, 1.000000000000000000 ) ) ;
#27 = ORIENTED_EDGE ( 'NONE', *, *, #654, .T. ) ;
#28 = SURFACE_SIDE_STYLE ('',( #544 ) ) ;
#29 = STYLED_ITEM ( 'NONE', ( #15 ), #612 ) ;
#30 = LINE ( 'NONE', #130, #354 ) ;
#31 = COLOUR_RGB ( '',0.8980392156862745390, 0.9176470588235293713, 0.9294117647058823817 ) ;
#32 = ADVANCED_FACE ( 'NONE', ( #304 ), #538, .T. ) ;
#33 = ORIENTED_EDGE ( 'NONE', *, *, #412, .T. ) ;
#34 = CARTESIAN_POINT ( 'NONE',  ( 0.000000000000000000, 0.000000000000000000, 5.000000000000000000 ) ) ;
#35 = DIRECTION ( 'NONE',  ( 1.000000000000000000, 0.000000000000000000, 0.000000000000000000 ) ) ;
#36 =( NAMED_UNIT ( * ) SI_UNIT ( $, .STERADIAN. ) SOLID_ANGLE_UNIT ( ) );
#37 = CARTESIAN_POINT ( 'NONE',  ( -30.00000000000000000, 3.673940397442059178E-15, 33.99999999999995737 ) ) ;
#38 = DIRECTION ( 'NONE',  ( -0.000000000000000000, -0.000000000000000000, -1.000000000000000000 ) ) ;
#39 = CLOSED_SHELL ( 'NONE', ( #479, #172, #519, #350, #372, #32, #475, #102, #250, #618, #581, #186, #672, #395, #261, #180, #424, #400, #152, #196, #93, #104, #294, #138 ) ) ;
#40 = VECTOR ( 'NONE', #8, 1000.000000000000114 ) ;
#41 = CARTESIAN_POINT ( 'NONE',  ( 0.000000000000000000, 0.000000000000000000, 1.000000000000007772 ) ) ;
#42 = DIRECTION ( 'NONE',  ( 1.000000000000000000, 0.000000000000000000, 0.000000000000000000 ) ) ;
#43 = CARTESIAN_POINT ( 'NONE',  ( 53.00000000000000711, 6.490628035480973107E-15, 1.000000000000007772 ) ) ;
#44 = EDGE_LOOP ( 'NONE', ( #27, #455 ) ) ;
#45 = CARTESIAN_POINT ( 'NONE',  ( 12.69999999999999929, 1.555301434917138433E-15, 16.99999999999998579 ) ) ;
#46 = DIRECTION ( 'NONE',  ( 0.003490651415223739937, 0.000000000000000000, -0.9999939076577903929 ) ) ;
#47 = CONICAL_SURFACE ( 'NONE', #319, 38.15000000000000568, 0.003490658503988666988 ) ;
#48 = CARTESIAN_POINT ( 'NONE',  ( 0.000000000000000000, 0.000000000000000000, 0.000000000000000000 ) ) ;
#49 = AXIS2_PLACEMENT_3D ( 'NONE', #48, #90, #315 ) ;
#50 = AXIS2_PLACEMENT_3D ( 'NONE', #399, #498, #299 ) ;
#51 =( GEOMETRIC_REPRESENTATION_CONTEXT ( 3 ) GLOBAL_UNCERTAINTY_ASSIGNED_CONTEXT ( ( #467 ) ) GLOBAL_UNIT_ASSIGNED_CONTEXT ( ( #379, #106, #222 ) ) REPRESENTATION_CONTEXT ( 'NONE', 'WORKASPACE' ) );
#52 = CARTESIAN_POINT ( 'NONE',  ( 0.000000000000000000, 0.000000000000000000, 33.99999999999995737 ) ) ;
#53 = ORIENTED_EDGE ( 'NONE', *, *, #457, .T. ) ;
#54 = DIRECTION ( 'NONE',  ( 0.7071067811865500152, 0.000000000000000000, 0.7071067811865451302 ) ) ;
#55 = VERTEX_POINT ( 'NONE', #43 ) ;
#56 = EDGE_CURVE ( 'NONE', #118, #178, #311, .T. ) ;
#57 = CARTESIAN_POINT ( 'NONE',  ( -53.00000000000000711, 6.490628035480973107E-15, 1.000000000000007772 ) ) ;
#58 = AXIS2_PLACEMENT_3D ( 'NONE', #470, #91, #140 ) ;
#59 = CIRCLE ( 'NONE', #385, 51.99999999999999289 ) ;
#60 = VERTEX_POINT ( 'NONE', #566 ) ;
#61 = VECTOR ( 'NONE', #328, 1000.000000000000000 ) ;
#62 = CARTESIAN_POINT ( 'NONE',  ( -51.99999999999999289, 0.000000000000000000, 5.000000000000000000 ) ) ;
#63 = EDGE_CURVE ( 'NONE', #416, #178, #327, .T. ) ;
#64 = DIRECTION ( 'NONE',  ( 0.000000000000000000, 0.000000000000000000, 1.000000000000000000 ) ) ;
#65 = ORIENTED_EDGE ( 'NONE', *, *, #286, .T. ) ;
#66 = LINE ( 'NONE', #16, #624 ) ;
#67 = ORIENTED_EDGE ( 'NONE', *, *, #63, .T. ) ;
#68 = FACE_OUTER_BOUND ( 'NONE', #151, .T. ) ;
#69 = CARTESIAN_POINT ( 'NONE',  ( 0.000000000000000000, 0.000000000000000000, 16.99999999999998579 ) ) ;
#70 = EDGE_CURVE ( 'NONE', #537, #277, #306, .T. ) ;
#71 = ORIENTED_EDGE ( 'NONE', *, *, #107, .F. ) ;
#72 = AXIS2_PLACEMENT_3D ( 'NONE', #278, #485, #109 ) ;
#73 = LINE ( 'NONE', #444, #40 ) ;
#74 = DIRECTION ( 'NONE',  ( 0.000000000000000000, 0.000000000000000000, -1.000000000000000000 ) ) ;
#75 = ORIENTED_EDGE ( 'NONE', *, *, #412, .F. ) ;
#76 = CARTESIAN_POINT ( 'NONE',  ( 0.000000000000000000, 0.000000000000000000, 1.000000000000002665 ) ) ;
#77 = ORIENTED_EDGE ( 'NONE', *, *, #300, .T. ) ;
#78 = DIRECTION ( 'NONE',  ( -0.7095707365365269137, 0.000000000000000000, -0.7046342099635886091 ) ) ;
#79 = EDGE_LOOP ( 'NONE', ( #523, #641 ) ) ;
#80 = CIRCLE ( 'NONE', #468, 30.00000000000000000 ) ;
#81 = VECTOR ( 'NONE', #54, 1000.000000000000114 ) ;
#82 = PLANE ( 'NONE',  #541 ) ;
#83 = DIRECTION ( 'NONE',  ( 1.000000000000000000, 0.000000000000000000, 0.000000000000000000 ) ) ;
#84 =( LENGTH_UNIT ( ) NAMED_UNIT ( * ) SI_UNIT ( .MILLI., .METRE. ) );
#85 = DIRECTION ( 'NONE',  ( -1.000000000000000000, 0.000000000000000000, 0.000000000000000000 ) ) ;
#86 = CARTESIAN_POINT ( 'NONE',  ( 0.000000000000000000, 0.000000000000000000, 17.99999999999999645 ) ) ;
#87 = CARTESIAN_POINT ( 'NONE',  ( -5.209813981864140855E-18, 0.000000000000000000, 34.99999999999999289 ) ) ;
#88 = FACE_OUTER_BOUND ( 'NONE', #380, .T. ) ;
#89 = EDGE_CURVE ( 'NONE', #396, #60, #80, .T. ) ;
#90 = DIRECTION ( 'NONE',  ( -0.000000000000000000, -0.000000000000000000, -1.000000000000000000 ) ) ;
#91 = DIRECTION ( 'NONE',  ( 0.000000000000000000, 0.000000000000000000, -1.000000000000000000 ) ) ;
#92 = EDGE_LOOP ( 'NONE', ( #33, #114 ) ) ;
#93 = ADVANCED_FACE ( 'NONE', ( #88 ), #469, .T. ) ;
#94 = DIRECTION ( 'NONE',  ( 0.000000000000000000, 0.000000000000000000, 1.000000000000000000 ) ) ;
#95 = CARTESIAN_POINT ( 'NONE',  ( 0.000000000000000000, 0.000000000000000000, 0.000000000000000000 ) ) ;
#96 = LINE ( 'NONE', #425, #258 ) ;
#97 = EDGE_CURVE ( 'NONE', #101, #7, #524, .T. ) ;
#98 = DIRECTION ( 'NONE',  ( -0.000000000000000000, -0.000000000000000000, -1.000000000000000000 ) ) ;
#99 = DIRECTION ( 'NONE',  ( 0.000000000000000000, 0.000000000000000000, 1.000000000000000000 ) ) ;
#100 = CIRCLE ( 'NONE', #517, 38.04877047096734088 ) ;
#101 = VERTEX_POINT ( 'NONE', #664 ) ;
#102 = ADVANCED_FACE ( 'NONE', ( #208 ), #560, .T. ) ;
#103 = CARTESIAN_POINT ( 'NONE',  ( 0.000000000000000000, 0.000000000000000000, 17.99999999999999645 ) ) ;
#104 = ADVANCED_FACE ( 'NONE', ( #243 ), #578, .F. ) ;
#105 = EDGE_LOOP ( 'NONE', ( #507, #382 ) ) ;
#106 =( NAMED_UNIT ( * ) PLANE_ANGLE_UNIT ( ) SI_UNIT ( $, .RADIAN. ) );
#107 = EDGE_CURVE ( 'NONE', #277, #537, #361, .T. ) ;
#108 = ORIENTED_EDGE ( 'NONE', *, *, #631, .F. ) ;
#109 = DIRECTION ( 'NONE',  ( 1.000000000000000000, 0.000000000000000000, 0.000000000000000000 ) ) ;
#110 = ADVANCED_BREP_SHAPE_REPRESENTATION ( '202500220_03_Spannscheibe_Alu_V1.1', ( #612, #461 ), #136 ) ;
#111 = FACE_OUTER_BOUND ( 'NONE', #481, .T. ) ;
#112 = CIRCLE ( 'NONE', #497, 51.99999999999999289 ) ;
#113 = CONICAL_SURFACE ( 'NONE', #321, 30.00000000000000000, 0.7853981633974517207 ) ;
#114 = ORIENTED_EDGE ( 'NONE', *, *, #190, .T. ) ;
#115 = CYLINDRICAL_SURFACE ( 'NONE', #430, 12.69999999999999929 ) ;
#116 = EDGE_CURVE ( 'NONE', #477, #101, #568, .T. ) ;
#117 = DIRECTION ( 'NONE',  ( -0.000000000000000000, -0.000000000000000000, -1.000000000000000000 ) ) ;
#118 = VERTEX_POINT ( 'NONE', #216 ) ;
#119 = DIRECTION ( 'NONE',  ( 1.000000000000000000, 0.000000000000000000, 0.000000000000000000 ) ) ;
#120 = DIRECTION ( 'NONE',  ( 0.7071067811865517916, 0.000000000000000000, 0.7071067811865432429 ) ) ;
#121 = ORIENTED_EDGE ( 'NONE', *, *, #550, .T. ) ;
#122 = CARTESIAN_POINT ( 'NONE',  ( -13.70000000000001883, 1.677766114831876342E-15, 17.99999999999999645 ) ) ;
#123 = FACE_OUTER_BOUND ( 'NONE', #414, .T. ) ;
#124 = VERTEX_POINT ( 'NONE', #281 ) ;
#125 = CIRCLE ( 'NONE', #224, 53.00000000000000711 ) ;
#126 = CIRCLE ( 'NONE', #508, 31.00000000000004263 ) ;
#127 = CARTESIAN_POINT ( 'NONE',  ( 13.70000000000001883, 0.000000000000000000, 17.99999999999999645 ) ) ;
#128 = ORIENTED_EDGE ( 'NONE', *, *, #437, .F. ) ;
#129 = EDGE_CURVE ( 'NONE', #229, #496, #318, .T. ) ;
#130 = CARTESIAN_POINT ( 'NONE',  ( 13.70000000000000462, 1.677766114831874370E-15, 0.000000000000000000 ) ) ;
#131 = ORIENTED_EDGE ( 'NONE', *, *, #300, .F. ) ;
#132 = DIRECTION ( 'NONE',  ( -0.000000000000000000, -0.000000000000000000, -1.000000000000000000 ) ) ;
#133 = AXIS2_PLACEMENT_3D ( 'NONE', #174, #98, #483 ) ;
#134 = ORIENTED_EDGE ( 'NONE', *, *, #505, .F. ) ;
#135 =( NAMED_UNIT ( * ) PLANE_ANGLE_UNIT ( ) SI_UNIT ( $, .RADIAN. ) );
#136 =( GEOMETRIC_REPRESENTATION_CONTEXT ( 3 ) GLOBAL_UNCERTAINTY_ASSIGNED_CONTEXT ( ( #530 ) ) GLOBAL_UNIT_ASSIGNED_CONTEXT ( ( #84, #410, #184 ) ) REPRESENTATION_CONTEXT ( 'NONE', 'WORKASPACE' ) );
#137 = CARTESIAN_POINT ( 'NONE',  ( 0.000000000000000000, 0.000000000000000000, 5.000000000000000000 ) ) ;
#138 = ADVANCED_FACE ( 'NONE', ( #111 ), #611, .F. ) ;
#139 = VECTOR ( 'NONE', #270, 1000.000000000000114 ) ;
#140 = DIRECTION ( 'NONE',  ( -1.000000000000000000, 0.000000000000000000, 0.000000000000000000 ) ) ;
#141 = APPLICATION_PROTOCOL_DEFINITION ( 'draft international standard', 'automotive_design', 1998, #343 ) ;
#142 = DIRECTION ( 'NONE',  ( 1.000000000000000000, 0.000000000000000000, 0.000000000000000000 ) ) ;
#143 = EDGE_CURVE ( 'NONE', #226, #477, #112, .T. ) ;
#144 = ORIENTED_EDGE ( 'NONE', *, *, #316, .T. ) ;
#145 = DIRECTION ( 'NONE',  ( -0.7071067811865482389, 0.000000000000000000, -0.7071067811865469066 ) ) ;
#146 = LINE ( 'NONE', #245, #181 ) ;
#147 = VECTOR ( 'NONE', #447, 1000.000000000000114 ) ;
#148 = LINE ( 'NONE', #366, #376 ) ;
#149 = AXIS2_PLACEMENT_3D ( 'NONE', #667, #202, #415 ) ;
#150 = CIRCLE ( 'NONE', #528, 30.00000000000000000 ) ;
#151 = EDGE_LOOP ( 'NONE', ( #626, #182, #264, #144 ) ) ;
#152 = ADVANCED_FACE ( 'NONE', ( #123 ), #657, .T. ) ;
#153 = ORIENTED_EDGE ( 'NONE', *, *, #597, .F. ) ;
#154 = DIRECTION ( 'NONE',  ( -0.000000000000000000, -0.000000000000000000, 1.000000000000000000 ) ) ;
#155 = CARTESIAN_POINT ( 'NONE',  ( 30.00000000000000000, 0.000000000000000000, 33.99999999999995737 ) ) ;
#156 = LINE ( 'NONE', #616, #518 ) ;
#157 = ORIENTED_EDGE ( 'NONE', *, *, #631, .T. ) ;
#158 = FACE_OUTER_BOUND ( 'NONE', #546, .T. ) ;
#159 = AXIS2_PLACEMENT_3D ( 'NONE', #567, #375, #263 ) ;
#160 = ORIENTED_EDGE ( 'NONE', *, *, #89, .F. ) ;
#161 = DIRECTION ( 'NONE',  ( -0.000000000000000000, -0.000000000000000000, -1.000000000000000000 ) ) ;
#162 = ORIENTED_EDGE ( 'NONE', *, *, #259, .T. ) ;
#163 = DIRECTION ( 'NONE',  ( -1.000000000000000000, 0.000000000000000000, 0.000000000000000000 ) ) ;
#164 = DIRECTION ( 'NONE',  ( 0.000000000000000000, 0.000000000000000000, 1.000000000000000000 ) ) ;
#165 = ORIENTED_EDGE ( 'NONE', *, *, #505, .T. ) ;
#166 = EDGE_CURVE ( 'NONE', #472, #170, #340, .T. ) ;
#167 = DIRECTION ( 'NONE',  ( 1.000000000000000000, 0.000000000000000000, -0.000000000000000000 ) ) ;
#168 = DIRECTION ( 'NONE',  ( -1.000000000000000000, 0.000000000000000000, 0.000000000000000000 ) ) ;
#169 = AXIS2_PLACEMENT_3D ( 'NONE', #310, #520, #313 ) ;
#170 = VERTEX_POINT ( 'NONE', #267 ) ;
#171 = AXIS2_PLACEMENT_3D ( 'NONE', #587, #12, #119 ) ;
#172 = ADVANCED_FACE ( 'NONE', ( #334 ), #668, .F. ) ;
#173 = LINE ( 'NONE', #62, #139 ) ;
#174 = CARTESIAN_POINT ( 'NONE',  ( 0.000000000000000000, 0.000000000000000000, 34.99999999999999289 ) ) ;
#175 = EDGE_LOOP ( 'NONE', ( #636, #474, #3, #620 ) ) ;
#176 = FACE_OUTER_BOUND ( 'NONE', #215, .T. ) ;
#177 = DIRECTION ( 'NONE',  ( 0.000000000000000000, 0.000000000000000000, -1.000000000000000000 ) ) ;
#178 = VERTEX_POINT ( 'NONE', #480 ) ;
#179 = DIRECTION ( 'NONE',  ( -1.000000000000000000, 0.000000000000000000, 0.000000000000000000 ) ) ;
#180 = ADVANCED_FACE ( 'NONE', ( #13 ), #47, .T. ) ;
#181 = VECTOR ( 'NONE', #46, 1000.000000000000000 ) ;
#182 = ORIENTED_EDGE ( 'NONE', *, *, #437, .T. ) ;
#183 = AXIS2_PLACEMENT_3D ( 'NONE', #287, #429, #4 ) ;
#184 =( NAMED_UNIT ( * ) SI_UNIT ( $, .STERADIAN. ) SOLID_ANGLE_UNIT ( ) );
#185 = FACE_OUTER_BOUND ( 'NONE', #362, .T. ) ;
#186 = ADVANCED_FACE ( 'NONE', ( #9, #577 ), #630, .T. ) ;
#187 = ORIENTED_EDGE ( 'NONE', *, *, #279, .T. ) ;
#188 = PLANE ( 'NONE',  #297 ) ;
#189 = ORIENTED_EDGE ( 'NONE', *, *, #286, .F. ) ;
#190 = EDGE_CURVE ( 'NONE', #118, #307, #282, .T. ) ;
#191 = CARTESIAN_POINT ( 'NONE',  ( -37.04177080567228586, 0.000000000000000000, 34.99999999999999289 ) ) ;
#192 = AXIS2_PLACEMENT_3D ( 'NONE', #463, #254, #670 ) ;
#193 = DIRECTION ( 'NONE',  ( 0.000000000000000000, 0.000000000000000000, 1.000000000000000000 ) ) ;
#194 = DIRECTION ( 'NONE',  ( 0.000000000000000000, 0.000000000000000000, 1.000000000000000000 ) ) ;
#195 = AXIS2_PLACEMENT_3D ( 'NONE', #510, #154, #572 ) ;
#196 = ADVANCED_FACE ( 'NONE', ( #634 ), #206, .T. ) ;
#197 = CARTESIAN_POINT ( 'NONE',  ( 51.99999999999999289, 0.000000000000000000, 0.000000000000000000 ) ) ;
#198 = DIRECTION ( 'NONE',  ( 0.000000000000000000, 0.000000000000000000, 1.000000000000000000 ) ) ;
#199 = CARTESIAN_POINT ( 'NONE',  ( -5.209813981864140855E-18, 0.000000000000000000, 34.99999999999999289 ) ) ;
#200 = ORIENTED_EDGE ( 'NONE', *, *, #597, .T. ) ;
#201 = EDGE_LOOP ( 'NONE', ( #269, #160, #335, #593 ) ) ;
#202 = DIRECTION ( 'NONE',  ( 0.000000000000000000, 0.000000000000000000, 1.000000000000000000 ) ) ;
#203 = EDGE_CURVE ( 'NONE', #178, #416, #100, .T. ) ;
#204 = DIRECTION ( 'NONE',  ( 1.000000000000000000, 0.000000000000000000, 0.000000000000000000 ) ) ;
#205 = DIRECTION ( 'NONE',  ( -0.000000000000000000, -0.000000000000000000, -1.000000000000000000 ) ) ;
#206 = CONICAL_SURFACE ( 'NONE', #329, 51.99999999999999289, 0.7853981633974380649 ) ;
#207 = CIRCLE ( 'NONE', #72, 13.70000000000001883 ) ;
#208 = FACE_OUTER_BOUND ( 'NONE', #285, .T. ) ;
#209 = DIRECTION ( 'NONE',  ( -1.000000000000000000, 0.000000000000000000, 0.000000000000000000 ) ) ;
#210 = ORIENTED_EDGE ( 'NONE', *, *, #363, .F. ) ;
#211 = DIRECTION ( 'NONE',  ( 1.000000000000000000, 0.000000000000000000, 0.000000000000000000 ) ) ;
#212 = ORIENTED_EDGE ( 'NONE', *, *, #143, .F. ) ;
#213 = DIRECTION ( 'NONE',  ( -1.000000000000000000, 0.000000000000000000, 0.000000000000000000 ) ) ;
#214 = COLOUR_RGB ( '',0.8980392156862745390, 0.9176470588235293713, 0.9294117647058823817 ) ;
#215 = EDGE_LOOP ( 'NONE', ( #632, #121, #187, #210 ) ) ;
#216 = CARTESIAN_POINT ( 'NONE',  ( 37.04177080567228586, 4.597969551033946705E-15, 34.99999999999999289 ) ) ;
#217 = EDGE_LOOP ( 'NONE', ( #644, #628, #326, #22 ) ) ;
#218 = DIRECTION ( 'NONE',  ( 0.000000000000000000, 0.000000000000000000, 1.000000000000000000 ) ) ;
#219 = DIRECTION ( 'NONE',  ( -0.000000000000000000, -0.000000000000000000, -1.000000000000000000 ) ) ;
#220 = EDGE_CURVE ( 'NONE', #60, #555, #66, .T. ) ;
#221 = ORIENTED_EDGE ( 'NONE', *, *, #279, .F. ) ;
#222 =( NAMED_UNIT ( * ) SI_UNIT ( $, .STERADIAN. ) SOLID_ANGLE_UNIT ( ) );
#223 = CARTESIAN_POINT ( 'NONE',  ( 51.99999999999999289, 6.368163355566235593E-15, 5.000000000000000000 ) ) ;
#224 = AXIS2_PLACEMENT_3D ( 'NONE', #659, #450, #554 ) ;
#225 = VECTOR ( 'NONE', #2, 1000.000000000000000 ) ;
#226 = VERTEX_POINT ( 'NONE', #486 ) ;
#227 = PLANE ( 'NONE',  #673 ) ;
#228 = DIRECTION ( 'NONE',  ( 1.000000000000000000, 0.000000000000000000, 0.000000000000000000 ) ) ;
#229 = VERTEX_POINT ( 'NONE', #288 ) ;
#230 = EDGE_CURVE ( 'NONE', #7, #101, #580, .T. ) ;
#231 = DIRECTION ( 'NONE',  ( 0.000000000000000000, 0.000000000000000000, -1.000000000000000000 ) ) ;
#232 = EDGE_LOOP ( 'NONE', ( #492, #419, #433, #11 ) ) ;
#233 = PRODUCT_CONTEXT ( 'NONE', #343, 'mechanical' ) ;
#234 = DIRECTION ( 'NONE',  ( 1.000000000000000000, 0.000000000000000000, -0.000000000000000000 ) ) ;
#235 = EDGE_CURVE ( 'NONE', #543, #388, #607, .T. ) ;
#236 = CIRCLE ( 'NONE', #418, 30.00000000000000000 ) ;
#237 = VERTEX_POINT ( 'NONE', #536 ) ;
#238 = AXIS2_PLACEMENT_3D ( 'NONE', #291, #132, #351 ) ;
#239 = PRODUCT_DEFINITION_FORMATION_WITH_SPECIFIED_SOURCE ( 'ANY', '', #392, .NOT_KNOWN. ) ;
#240 = DIRECTION ( 'NONE',  ( -0.000000000000000000, -0.000000000000000000, -1.000000000000000000 ) ) ;
#241 = ORIENTED_EDGE ( 'NONE', *, *, #341, .T. ) ;
#242 = DIRECTION ( 'NONE',  ( 0.000000000000000000, 0.000000000000000000, 1.000000000000000000 ) ) ;
#243 = FACE_OUTER_BOUND ( 'NONE', #406, .T. ) ;
#244 = CARTESIAN_POINT ( 'NONE',  ( -37.04177080567228586, 0.000000000000000000, 34.99999999999999289 ) ) ;
#245 = CARTESIAN_POINT ( 'NONE',  ( 38.15000000000000568, 0.000000000000000000, 5.000000000000000000 ) ) ;
#246 = AXIS2_PLACEMENT_3D ( 'NONE', #665, #522, #211 ) ;
#247 = DIRECTION ( 'NONE',  ( -0.000000000000000000, -0.000000000000000000, 1.000000000000000000 ) ) ;
#248 = DIRECTION ( 'NONE',  ( -0.000000000000000000, -0.000000000000000000, 1.000000000000000000 ) ) ;
#249 = FACE_OUTER_BOUND ( 'NONE', #201, .T. ) ;
#250 = ADVANCED_FACE ( 'NONE', ( #21 ), #643, .T. ) ;
#251 = CARTESIAN_POINT ( 'NONE',  ( 37.04177080567228586, 4.536308605191644292E-15, 34.99999999999999289 ) ) ;
#252 = ORIENTED_EDGE ( 'NONE', *, *, #487, .F. ) ;
#253 = DIRECTION ( 'NONE',  ( 1.000000000000000000, 0.000000000000000000, -0.000000000000000000 ) ) ;
#254 = DIRECTION ( 'NONE',  ( 0.000000000000000000, 0.000000000000000000, -1.000000000000000000 ) ) ;
#255 = AXIS2_PLACEMENT_3D ( 'NONE', #317, #74, #168 ) ;
#256 = VECTOR ( 'NONE', #78, 1000.000000000000114 ) ;
#257 = CARTESIAN_POINT ( 'NONE',  ( 12.69999999999999929, 1.555301434917138433E-15, 1.000000000000002665 ) ) ;
#258 = VECTOR ( 'NONE', #145, 999.9999999999998863 ) ;
#259 = EDGE_CURVE ( 'NONE', #55, #170, #125, .T. ) ;
#260 = DIRECTION ( 'NONE',  ( 0.000000000000000000, 0.000000000000000000, 1.000000000000000000 ) ) ;
#261 = ADVANCED_FACE ( 'NONE', ( #402, #603 ), #188, .T. ) ;
#262 = ORIENTED_EDGE ( 'NONE', *, *, #143, .T. ) ;
#263 = DIRECTION ( 'NONE',  ( 1.000000000000000000, 0.000000000000000000, 0.000000000000000000 ) ) ;
#264 = ORIENTED_EDGE ( 'NONE', *, *, #363, .T. ) ;
#265 = AXIS2_PLACEMENT_3D ( 'NONE', #423, #617, #35 ) ;
#266 = AXIS2_PLACEMENT_3D ( 'NONE', #34, #345, #85 ) ;
#267 = CARTESIAN_POINT ( 'NONE',  ( -53.00000000000000711, 0.000000000000000000, 1.000000000000007772 ) ) ;
#268 = CONICAL_SURFACE ( 'NONE', #551, 13.70000000000000462, 0.7853981633974491672 ) ;
#269 = ORIENTED_EDGE ( 'NONE', *, *, #220, .F. ) ;
#270 = DIRECTION ( 'NONE',  ( -0.7071067811865402453, 0.000000000000000000, -0.7071067811865549002 ) ) ;
#271 = DIRECTION ( 'NONE',  ( 0.000000000000000000, 0.000000000000000000, 1.000000000000000000 ) ) ;
#272 = EDGE_CURVE ( 'NONE', #396, #25, #459, .T. ) ;
#273 = ORIENTED_EDGE ( 'NONE', *, *, #70, .F. ) ;
#274 = PRODUCT_DEFINITION_SHAPE ( 'NONE', 'NONE',  #451 ) ;
#275 = DIRECTION ( 'NONE',  ( -0.000000000000000000, -0.000000000000000000, -1.000000000000000000 ) ) ;
#276 = DIRECTION ( 'NONE',  ( -0.000000000000000000, -0.000000000000000000, 1.000000000000000000 ) ) ;
#277 = VERTEX_POINT ( 'NONE', #655 ) ;
#278 = CARTESIAN_POINT ( 'NONE',  ( 0.000000000000000000, 0.000000000000000000, 17.99999999999999645 ) ) ;
#279 = EDGE_CURVE ( 'NONE', #458, #289, #364, .T. ) ;
#280 = AXIS2_PLACEMENT_3D ( 'NONE', #95, #198, #359 ) ;
#281 = CARTESIAN_POINT ( 'NONE',  ( -12.69999999999999929, 0.000000000000000000, 16.99999999999998579 ) ) ;
#282 = CIRCLE ( 'NONE', #561, 37.04177080567228586 ) ;
#283 = AXIS2_PLACEMENT_3D ( 'NONE', #24, #231, #640 ) ;
#284 = CIRCLE ( 'NONE', #169, 12.69999999999999929 ) ;
#285 = EDGE_LOOP ( 'NONE', ( #342, #165, #426, #651 ) ) ;
#286 = EDGE_CURVE ( 'NONE', #477, #226, #59, .T. ) ;
#287 = CARTESIAN_POINT ( 'NONE',  ( 0.000000000000000000, 0.000000000000000000, 0.000000000000000000 ) ) ;
#288 = CARTESIAN_POINT ( 'NONE',  ( -31.00000000000004263, 3.796405077356799848E-15, 34.99999999999999289 ) ) ;
#289 = VERTEX_POINT ( 'NONE', #652 ) ;
#290 = EDGE_CURVE ( 'NONE', #307, #416, #649, .T. ) ;
#291 = CARTESIAN_POINT ( 'NONE',  ( 0.000000000000000000, 0.000000000000000000, 5.000000000000000000 ) ) ;
#292 = ORIENTED_EDGE ( 'NONE', *, *, #592, .F. ) ;
#293 = CARTESIAN_POINT ( 'NONE',  ( -12.69999999999999929, 0.000000000000000000, 5.000000000000000000 ) ) ;
#294 = ADVANCED_FACE ( 'NONE', ( #348 ), #409, .F. ) ;
#295 = AXIS2_PLACEMENT_3D ( 'NONE', #516, #117, #179 ) ;
#296 = ORIENTED_EDGE ( 'NONE', *, *, #235, .T. ) ;
#297 = AXIS2_PLACEMENT_3D ( 'NONE', #87, #242, #234 ) ;
#298 = STYLED_ITEM ( 'NONE', ( #347 ), #110 ) ;
#299 = DIRECTION ( 'NONE',  ( 1.000000000000000000, 0.000000000000000000, 0.000000000000000000 ) ) ;
#300 = EDGE_CURVE ( 'NONE', #555, #229, #503, .T. ) ;
#301 = EDGE_LOOP ( 'NONE', ( #531, #465, #162, #403 ) ) ;
#302 = DIRECTION ( 'NONE',  ( 1.000000000000000000, 0.000000000000000000, 0.000000000000000000 ) ) ;
#303 = DIRECTION ( 'NONE',  ( -0.000000000000000000, -0.000000000000000000, -1.000000000000000000 ) ) ;
#304 = FACE_OUTER_BOUND ( 'NONE', #175, .T. ) ;
#305 = FACE_OUTER_BOUND ( 'NONE', #105, .T. ) ;
#306 = CIRCLE ( 'NONE', #280, 13.70000000000000462 ) ;
#307 = VERTEX_POINT ( 'NONE', #244 ) ;
#308 = MECHANICAL_DESIGN_GEOMETRIC_PRESENTATION_REPRESENTATION (  '', ( #29 ), #51 ) ;
#309 = CIRCLE ( 'NONE', #171, 13.70000000000001883 ) ;
#310 = CARTESIAN_POINT ( 'NONE',  ( 0.000000000000000000, 0.000000000000000000, 16.99999999999998579 ) ) ;
#311 = LINE ( 'NONE', #251, #383 ) ;
#312 = PRODUCT_RELATED_PRODUCT_CATEGORY ( 'part', '', ( #392 ) ) ;
#313 = DIRECTION ( 'NONE',  ( 1.000000000000000000, 0.000000000000000000, 0.000000000000000000 ) ) ;
#314 = DIRECTION ( 'NONE',  ( 0.000000000000000000, 0.000000000000000000, 1.000000000000000000 ) ) ;
#315 = DIRECTION ( 'NONE',  ( 1.000000000000000000, 0.000000000000000000, 0.000000000000000000 ) ) ;
#316 = EDGE_CURVE ( 'NONE', #289, #458, #583, .T. ) ;
#317 = CARTESIAN_POINT ( 'NONE',  ( -5.209813981864140855E-18, 0.000000000000000000, 34.99999999999999289 ) ) ;
#318 = CIRCLE ( 'NONE', #133, 31.00000000000004263 ) ;
#319 = AXIS2_PLACEMENT_3D ( 'NONE', #390, #219, #493 ) ;
#320 = CARTESIAN_POINT ( 'NONE',  ( 30.00000000000000000, 0.000000000000000000, 33.99999999999995737 ) ) ;
#321 = AXIS2_PLACEMENT_3D ( 'NONE', #52, #260, #417 ) ;
#322 = EDGE_LOOP ( 'NONE', ( #488, #212, #579, #443 ) ) ;
#323 = FACE_OUTER_BOUND ( 'NONE', #353, .T. ) ;
#324 = ORIENTED_EDGE ( 'NONE', *, *, #513, .F. ) ;
#325 = SURFACE_SIDE_STYLE ('',( #642 ) ) ;
#326 = ORIENTED_EDGE ( 'NONE', *, *, #513, .T. ) ;
#327 = CIRCLE ( 'NONE', #398, 38.04877047096734088 ) ;
#328 = DIRECTION ( 'NONE',  ( -0.7071067811865517916, 8.659560562354984627E-17, 0.7071067811865432429 ) ) ;
#329 = AXIS2_PLACEMENT_3D ( 'NONE', #542, #177, #585 ) ;
#330 = DIRECTION ( 'NONE',  ( -0.7071067811865500152, 8.659560562354963673E-17, 0.7071067811865451302 ) ) ;
#331 = CIRCLE ( 'NONE', #246, 30.00000000000000000 ) ;
#332 = EDGE_LOOP ( 'NONE', ( #571, #14 ) ) ;
#333 = DIRECTION ( 'NONE',  ( 1.000000000000000000, 0.000000000000000000, 0.000000000000000000 ) ) ;
#334 = FACE_OUTER_BOUND ( 'NONE', #232, .T. ) ;
#335 = ORIENTED_EDGE ( 'NONE', *, *, #272, .T. ) ;
#336 = SURFACE_STYLE_USAGE ( .BOTH. , #325 ) ;
#337 = DIRECTION ( 'NONE',  ( 1.000000000000000000, 0.000000000000000000, 0.000000000000000000 ) ) ;
#338 = ORIENTED_EDGE ( 'NONE', *, *, #203, .F. ) ;
#339 = CARTESIAN_POINT ( 'NONE',  ( 0.000000000000000000, 0.000000000000000000, 0.000000000000000000 ) ) ;
#340 = LINE ( 'NONE', #57, #373 ) ;
#341 = EDGE_CURVE ( 'NONE', #458, #537, #30, .T. ) ;
#342 = ORIENTED_EDGE ( 'NONE', *, *, #203, .T. ) ;
#343 = APPLICATION_CONTEXT ( 'automotive_design' ) ;
#344 = SHAPE_DEFINITION_REPRESENTATION ( #274, #110 ) ;
#345 = DIRECTION ( 'NONE',  ( -0.000000000000000000, -0.000000000000000000, -1.000000000000000000 ) ) ;
#346 = ORIENTED_EDGE ( 'NONE', *, *, #573, .F. ) ;
#347 = PRESENTATION_STYLE_ASSIGNMENT (( #397 ) ) ;
#348 = FACE_OUTER_BOUND ( 'NONE', #446, .T. ) ;
#349 = ORIENTED_EDGE ( 'NONE', *, *, #166, .T. ) ;
#350 = ADVANCED_FACE ( 'NONE', ( #185 ), #452, .T. ) ;
#351 = DIRECTION ( 'NONE',  ( -1.000000000000000000, 0.000000000000000000, 0.000000000000000000 ) ) ;
#352 = AXIS2_PLACEMENT_3D ( 'NONE', #532, #164, #435 ) ;
#353 = EDGE_LOOP ( 'NONE', ( #221, #241, #71, #252 ) ) ;
#354 = VECTOR ( 'NONE', #358, 999.9999999999998863 ) ;
#355 =( LENGTH_UNIT ( ) NAMED_UNIT ( * ) SI_UNIT ( .MILLI., .METRE. ) );
#356 = DIRECTION ( 'NONE',  ( -0.7071067811865500152, 8.659560562354963673E-17, 0.7071067811865451302 ) ) ;
#357 = DIRECTION ( 'NONE',  ( -1.000000000000000000, 0.000000000000000000, 0.000000000000000000 ) ) ;
#358 = DIRECTION ( 'NONE',  ( 0.7071067811865482389, 8.659560562354941486E-17, -0.7071067811865469066 ) ) ;
#359 = DIRECTION ( 'NONE',  ( 1.000000000000000000, 0.000000000000000000, 0.000000000000000000 ) ) ;
#360 = DIRECTION ( 'NONE',  ( 1.000000000000000000, 0.000000000000000000, 0.000000000000000000 ) ) ;
#361 = CIRCLE ( 'NONE', #570, 13.70000000000000462 ) ;
#362 = EDGE_LOOP ( 'NONE', ( #548, #349, #500, #292 ) ) ;
#363 = EDGE_CURVE ( 'NONE', #124, #289, #454, .T. ) ;
#364 = CIRCLE ( 'NONE', #637, 12.69999999999999929 ) ;
#365 = MECHANICAL_DESIGN_GEOMETRIC_PRESENTATION_REPRESENTATION (  '', ( #298 ), #20 ) ;
#366 = CARTESIAN_POINT ( 'NONE',  ( 12.69999999999999929, 1.555301434917138433E-15, 5.000000000000000000 ) ) ;
#367 = CARTESIAN_POINT ( 'NONE',  ( -53.00000000000000711, 0.000000000000000000, 3.999999999999964473 ) ) ;
#368 = VERTEX_POINT ( 'NONE', #197 ) ;
#369 = DIRECTION ( 'NONE',  ( -0.000000000000000000, -0.000000000000000000, -1.000000000000000000 ) ) ;
#370 = CARTESIAN_POINT ( 'NONE',  ( 0.000000000000000000, 0.000000000000000000, 17.99999999999999645 ) ) ;
#371 = LINE ( 'NONE', #569, #660 ) ;
#372 = ADVANCED_FACE ( 'NONE', ( #606 ), #421, .T. ) ;
#373 = VECTOR ( 'NONE', #330, 1000.000000000000114 ) ;
#374 = ORIENTED_EDGE ( 'NONE', *, *, #457, .F. ) ;
#375 = DIRECTION ( 'NONE',  ( 0.000000000000000000, 0.000000000000000000, 1.000000000000000000 ) ) ;
#376 = VECTOR ( 'NONE', #627, 1000.000000000000000 ) ;
#377 = ORIENTED_EDGE ( 'NONE', *, *, #18, .T. ) ;
#378 = APPLICATION_CONTEXT ( 'automotive_design' ) ;
#379 =( LENGTH_UNIT ( ) NAMED_UNIT ( * ) SI_UNIT ( .MILLI., .METRE. ) );
#380 = EDGE_LOOP ( 'NONE', ( #589, #346, #609, #108 ) ) ;
#381 = CARTESIAN_POINT ( 'NONE',  ( 0.000000000000000000, 0.000000000000000000, 0.000000000000000000 ) ) ;
#382 = ORIENTED_EDGE ( 'NONE', *, *, #10, .T. ) ;
#383 = VECTOR ( 'NONE', #504, 1000.000000000000114 ) ;
#384 = FILL_AREA_STYLE_COLOUR ( '', #214 ) ;
#385 = AXIS2_PLACEMENT_3D ( 'NONE', #137, #26, #407 ) ;
#386 = DIRECTION ( 'NONE',  ( 1.000000000000000000, 0.000000000000000000, 0.000000000000000000 ) ) ;
#387 = CIRCLE ( 'NONE', #639, 37.04177080567228586 ) ;
#388 = VERTEX_POINT ( 'NONE', #127 ) ;
#389 = LINE ( 'NONE', #638, #61 ) ;
#390 = CARTESIAN_POINT ( 'NONE',  ( -5.209813981864140855E-18, 0.000000000000000000, 5.000000000000000000 ) ) ;
#391 = EDGE_LOOP ( 'NONE', ( #494, #586 ) ) ;
#392 = PRODUCT ( '202500220_03_Spannscheibe_Alu_V1.1', '202500220_03_Spannscheibe_Alu_V1.1', '', ( #233 ) ) ;
#393 = CARTESIAN_POINT ( 'NONE',  ( 0.000000000000000000, 0.000000000000000000, 33.99999999999995737 ) ) ;
#394 = CARTESIAN_POINT ( 'NONE',  ( 12.69999999999999929, 0.000000000000000000, 16.99999999999998579 ) ) ;
#395 = ADVANCED_FACE ( 'NONE', ( #495 ), #545, .T. ) ;
#396 = VERTEX_POINT ( 'NONE', #501 ) ;
#397 = SURFACE_STYLE_USAGE ( .BOTH. , #28 ) ;
#398 = AXIS2_PLACEMENT_3D ( 'NONE', #558, #38, #357 ) ;
#399 = CARTESIAN_POINT ( 'NONE',  ( 0.000000000000000000, 0.000000000000000000, 16.99999999999998579 ) ) ;
#400 = ADVANCED_FACE ( 'NONE', ( #557, #305 ), #82, .T. ) ;
#401 = ORIENTED_EDGE ( 'NONE', *, *, #316, .F. ) ;
#402 = FACE_BOUND ( 'NONE', #575, .T. ) ;
#403 = ORIENTED_EDGE ( 'NONE', *, *, #509, .F. ) ;
#404 = EDGE_CURVE ( 'NONE', #124, #543, #671, .T. ) ;
#405 = CARTESIAN_POINT ( 'NONE',  ( 0.000000000000000000, 0.000000000000000000, 1.000000000000002665 ) ) ;
#406 = EDGE_LOOP ( 'NONE', ( #131, #613, #53, #484 ) ) ;
#407 = DIRECTION ( 'NONE',  ( 1.000000000000000000, 0.000000000000000000, 0.000000000000000000 ) ) ;
#408 = DIRECTION ( 'NONE',  ( 1.000000000000000000, 0.000000000000000000, 0.000000000000000000 ) ) ;
#409 = CONICAL_SURFACE ( 'NONE', #50, 12.69999999999999929, 0.7853981633974543852 ) ;
#410 =( NAMED_UNIT ( * ) PLANE_ANGLE_UNIT ( ) SI_UNIT ( $, .RADIAN. ) );
#411 = CARTESIAN_POINT ( 'NONE',  ( 30.00000000000000000, 0.000000000000000000, 17.99999999999999645 ) ) ;
#412 = EDGE_CURVE ( 'NONE', #307, #118, #387, .T. ) ;
#413 = PRODUCT_DEFINITION_CONTEXT ( 'detailed design', #378, 'design' ) ;
#414 = EDGE_LOOP ( 'NONE', ( #653, #75, #428, #338 ) ) ;
#415 = DIRECTION ( 'NONE',  ( 1.000000000000000000, 0.000000000000000000, 0.000000000000000000 ) ) ;
#416 = VERTEX_POINT ( 'NONE', #619 ) ;
#417 = DIRECTION ( 'NONE',  ( 1.000000000000000000, 0.000000000000000000, 0.000000000000000000 ) ) ;
#418 = AXIS2_PLACEMENT_3D ( 'NONE', #86, #460, #204 ) ;
#419 = ORIENTED_EDGE ( 'NONE', *, *, #622, .T. ) ;
#420 = EDGE_CURVE ( 'NONE', #472, #368, #614, .T. ) ;
#421 = CONICAL_SURFACE ( 'NONE', #440, 51.99999999999999289, 0.7853981633974380649 ) ;
#422 = CARTESIAN_POINT ( 'NONE',  ( 31.00000000000004263, 0.000000000000000000, 34.99999999999999289 ) ) ;
#423 = CARTESIAN_POINT ( 'NONE',  ( -5.209813981864140855E-18, 0.000000000000000000, 5.000000000000000000 ) ) ;
#424 = ADVANCED_FACE ( 'NONE', ( #249 ), #621, .F. ) ;
#425 = CARTESIAN_POINT ( 'NONE',  ( -13.70000000000000462, 0.000000000000000000, 0.000000000000000000 ) ) ;
#426 = ORIENTED_EDGE ( 'NONE', *, *, #533, .T. ) ;
#427 = CARTESIAN_POINT ( 'NONE',  ( 38.15000000000000568, 0.000000000000000000, 5.000000000000000000 ) ) ;
#428 = ORIENTED_EDGE ( 'NONE', *, *, #290, .T. ) ;
#429 = DIRECTION ( 'NONE',  ( -0.000000000000000000, -0.000000000000000000, -1.000000000000000000 ) ) ;
#430 = AXIS2_PLACEMENT_3D ( 'NONE', #478, #275, #213 ) ;
#431 = ORIENTED_EDGE ( 'NONE', *, *, #650, .F. ) ;
#432 = DIRECTION ( 'NONE',  ( 0.000000000000000000, 0.000000000000000000, 1.000000000000000000 ) ) ;
#433 = ORIENTED_EDGE ( 'NONE', *, *, #654, .F. ) ;
#434 = FACE_OUTER_BOUND ( 'NONE', #332, .T. ) ;
#435 = DIRECTION ( 'NONE',  ( 1.000000000000000000, 0.000000000000000000, -0.000000000000000000 ) ) ;
#436 = EDGE_LOOP ( 'NONE', ( #17, #605, #601, #157 ) ) ;
#437 = EDGE_CURVE ( 'NONE', #543, #124, #284, .T. ) ;
#438 = AXIS2_PLACEMENT_3D ( 'NONE', #562, #502, #662 ) ;
#439 = FILL_AREA_STYLE ('',( #384 ) ) ;
#440 = AXIS2_PLACEMENT_3D ( 'NONE', #549, #462, #663 ) ;
#441 = DIRECTION ( 'NONE',  ( -0.000000000000000000, -0.000000000000000000, -1.000000000000000000 ) ) ;
#442 = AXIS2_PLACEMENT_3D ( 'NONE', #576, #539, #163 ) ;
#443 = ORIENTED_EDGE ( 'NONE', *, *, #97, .F. ) ;
#444 = CARTESIAN_POINT ( 'NONE',  ( 53.00000000000000711, 0.000000000000000000, 1.000000000000007772 ) ) ;
#445 = CARTESIAN_POINT ( 'NONE',  ( -5.209813981864140855E-18, 0.000000000000000000, 34.00000609234221116 ) ) ;
#446 = EDGE_LOOP ( 'NONE', ( #646, #128, #296, #511 ) ) ;
#447 = DIRECTION ( 'NONE',  ( 0.7071067811865402453, 8.659560562354844111E-17, -0.7071067811865549002 ) ) ;
#448 = ORIENTED_EDGE ( 'NONE', *, *, #116, .T. ) ;
#449 = FILL_AREA_STYLE ('',( #594 ) ) ;
#450 = DIRECTION ( 'NONE',  ( -0.000000000000000000, -0.000000000000000000, 1.000000000000000000 ) ) ;
#451 = PRODUCT_DEFINITION ( 'UNKNOWN', '', #239, #413 ) ;
#452 = CONICAL_SURFACE ( 'NONE', #490, 53.00000000000000711, 0.7853981633974517207 ) ;
#453 = VERTEX_POINT ( 'NONE', #427 ) ;
#454 = LINE ( 'NONE', #293, #604 ) ;
#455 = ORIENTED_EDGE ( 'NONE', *, *, #564, .T. ) ;
#456 = DIRECTION ( 'NONE',  ( -0.000000000000000000, -0.000000000000000000, 1.000000000000000000 ) ) ;
#457 = EDGE_CURVE ( 'NONE', #25, #496, #515, .T. ) ;
#458 = VERTEX_POINT ( 'NONE', #257 ) ;
#459 = LINE ( 'NONE', #411, #669 ) ;
#460 = DIRECTION ( 'NONE',  ( 0.000000000000000000, 0.000000000000000000, 1.000000000000000000 ) ) ;
#461 = AXIS2_PLACEMENT_3D ( 'NONE', #658, #194, #302 ) ;
#462 = DIRECTION ( 'NONE',  ( 0.000000000000000000, 0.000000000000000000, -1.000000000000000000 ) ) ;
#463 = CARTESIAN_POINT ( 'NONE',  ( 0.000000000000000000, 0.000000000000000000, 3.999999999999964473 ) ) ;
#464 = DIRECTION ( 'NONE',  ( -0.003490651415223739937, -4.274815082592931898E-19, -0.9999939076577903929 ) ) ;
#465 = ORIENTED_EDGE ( 'NONE', *, *, #527, .T. ) ;
#466 = CYLINDRICAL_SURFACE ( 'NONE', #195, 30.00000000000000000 ) ;
#467 = UNCERTAINTY_MEASURE_WITH_UNIT (LENGTH_MEASURE( 1.000000000000000082E-05 ), #379, 'distance_accuracy_value', 'NONE');
#468 = AXIS2_PLACEMENT_3D ( 'NONE', #370, #314, #514 ) ;
#469 = CONICAL_SURFACE ( 'NONE', #5, 53.00000000000000711, 0.7853981633974517207 ) ;
#470 = CARTESIAN_POINT ( 'NONE',  ( -5.209813981864140855E-18, 0.000000000000000000, 34.99999999999999289 ) ) ;
#471 = FACE_OUTER_BOUND ( 'NONE', #217, .T. ) ;
#472 = VERTEX_POINT ( 'NONE', #565 ) ;
#473 = LINE ( 'NONE', #610, #225 ) ;
#474 = ORIENTED_EDGE ( 'NONE', *, *, #56, .T. ) ;
#475 = ADVANCED_FACE ( 'NONE', ( #471 ), #466, .F. ) ;
#476 = CARTESIAN_POINT ( 'NONE',  ( 13.70000000000000462, 1.677766114831874370E-15, 0.000000000000000000 ) ) ;
#477 = VERTEX_POINT ( 'NONE', #674 ) ;
#478 = CARTESIAN_POINT ( 'NONE',  ( 0.000000000000000000, 0.000000000000000000, 5.000000000000000000 ) ) ;
#479 = ADVANCED_FACE ( 'NONE', ( #323 ), #268, .F. ) ;
#480 = CARTESIAN_POINT ( 'NONE',  ( 38.04877047096734088, 0.000000000000000000, 34.00000609234221116 ) ) ;
#481 = EDGE_LOOP ( 'NONE', ( #521, #401, #574, #273 ) ) ;
#482 = DIRECTION ( 'NONE',  ( -0.000000000000000000, -0.000000000000000000, 1.000000000000000000 ) ) ;
#483 = DIRECTION ( 'NONE',  ( 1.000000000000000000, 0.000000000000000000, 0.000000000000000000 ) ) ;
#484 = ORIENTED_EDGE ( 'NONE', *, *, #129, .F. ) ;
#485 = DIRECTION ( 'NONE',  ( -0.000000000000000000, -0.000000000000000000, -1.000000000000000000 ) ) ;
#486 = CARTESIAN_POINT ( 'NONE',  ( -51.99999999999999289, 0.000000000000000000, 5.000000000000000000 ) ) ;
#487 = EDGE_CURVE ( 'NONE', #289, #277, #96, .T. ) ;
#488 = ORIENTED_EDGE ( 'NONE', *, *, #116, .F. ) ;
#489 = FACE_BOUND ( 'NONE', #79, .T. ) ;
#490 = AXIS2_PLACEMENT_3D ( 'NONE', #547, #247, #506 ) ;
#491 = DIRECTION ( 'NONE',  ( -1.000000000000000000, 0.000000000000000000, 0.000000000000000000 ) ) ;
#492 = ORIENTED_EDGE ( 'NONE', *, *, #404, .F. ) ;
#493 = DIRECTION ( 'NONE',  ( 1.000000000000000000, 0.000000000000000000, 0.000000000000000000 ) ) ;
#494 = ORIENTED_EDGE ( 'NONE', *, *, #23, .F. ) ;
#495 = FACE_OUTER_BOUND ( 'NONE', #436, .T. ) ;
#496 = VERTEX_POINT ( 'NONE', #422 ) ;
#497 = AXIS2_PLACEMENT_3D ( 'NONE', #645, #432, #337 ) ;
#498 = DIRECTION ( 'NONE',  ( 0.000000000000000000, 0.000000000000000000, 1.000000000000000000 ) ) ;
#499 = CIRCLE ( 'NONE', #159, 38.15000000000000568 ) ;
#500 = ORIENTED_EDGE ( 'NONE', *, *, #259, .F. ) ;
#501 = CARTESIAN_POINT ( 'NONE',  ( 30.00000000000000000, 0.000000000000000000, 17.99999999999999645 ) ) ;
#502 = DIRECTION ( 'NONE',  ( 0.000000000000000000, 0.000000000000000000, 1.000000000000000000 ) ) ;
#503 = LINE ( 'NONE', #37, #563 ) ;
#504 = DIRECTION ( 'NONE',  ( 0.7095707365365269137, 8.689735312680875973E-17, -0.7046342099635886091 ) ) ;
#505 = EDGE_CURVE ( 'NONE', #416, #237, #156, .T. ) ;
#506 = DIRECTION ( 'NONE',  ( 1.000000000000000000, 0.000000000000000000, 0.000000000000000000 ) ) ;
#507 = ORIENTED_EDGE ( 'NONE', *, *, #89, .T. ) ;
#508 = AXIS2_PLACEMENT_3D ( 'NONE', #582, #161, #333 ) ;
#509 = EDGE_CURVE ( 'NONE', #7, #170, #371, .T. ) ;
#510 = CARTESIAN_POINT ( 'NONE',  ( 0.000000000000000000, 0.000000000000000000, 17.99999999999999645 ) ) ;
#511 = ORIENTED_EDGE ( 'NONE', *, *, #564, .F. ) ;
#512 = CARTESIAN_POINT ( 'NONE',  ( 0.000000000000000000, 0.000000000000000000, 0.000000000000000000 ) ) ;
#513 = EDGE_CURVE ( 'NONE', #555, #25, #331, .T. ) ;
#514 = DIRECTION ( 'NONE',  ( 1.000000000000000000, 0.000000000000000000, 0.000000000000000000 ) ) ;
#515 = LINE ( 'NONE', #320, #81 ) ;
#516 = CARTESIAN_POINT ( 'NONE',  ( 0.000000000000000000, 0.000000000000000000, 0.000000000000000000 ) ) ;
#517 = AXIS2_PLACEMENT_3D ( 'NONE', #445, #441, #491 ) ;
#518 = VECTOR ( 'NONE', #464, 1000.000000000000000 ) ;
#519 = ADVANCED_FACE ( 'NONE', ( #158 ), #113, .F. ) ;
#520 = DIRECTION ( 'NONE',  ( 0.000000000000000000, 0.000000000000000000, 1.000000000000000000 ) ) ;
#521 = ORIENTED_EDGE ( 'NONE', *, *, #341, .F. ) ;
#522 = DIRECTION ( 'NONE',  ( 0.000000000000000000, 0.000000000000000000, 1.000000000000000000 ) ) ;
#523 = ORIENTED_EDGE ( 'NONE', *, *, #107, .T. ) ;
#524 = CIRCLE ( 'NONE', #192, 53.00000000000000711 ) ;
#525 = ORIENTED_EDGE ( 'NONE', *, *, #230, .F. ) ;
#526 = DIRECTION ( 'NONE',  ( 1.000000000000000000, 0.000000000000000000, 0.000000000000000000 ) ) ;
#527 = EDGE_CURVE ( 'NONE', #101, #55, #473, .T. ) ;
#528 = AXIS2_PLACEMENT_3D ( 'NONE', #393, #218, #535 ) ;
#529 = DIRECTION ( 'NONE',  ( 0.000000000000000000, 0.000000000000000000, 1.000000000000000000 ) ) ;
#530 = UNCERTAINTY_MEASURE_WITH_UNIT (LENGTH_MEASURE( 1.000000000000000082E-05 ), #84, 'distance_accuracy_value', 'NONE');
#531 = ORIENTED_EDGE ( 'NONE', *, *, #230, .T. ) ;
#532 = CARTESIAN_POINT ( 'NONE',  ( 0.000000000000000000, 0.000000000000000000, 5.000000000000000000 ) ) ;
#533 = EDGE_CURVE ( 'NONE', #237, #453, #499, .T. ) ;
#534 = EDGE_LOOP ( 'NONE', ( #262, #65 ) ) ;
#535 = DIRECTION ( 'NONE',  ( 1.000000000000000000, 0.000000000000000000, 0.000000000000000000 ) ) ;
#536 = CARTESIAN_POINT ( 'NONE',  ( -38.15000000000000568, -4.672027538747153160E-15, 5.000000000000000000 ) ) ;
#537 = VERTEX_POINT ( 'NONE', #476 ) ;
#538 = CONICAL_SURFACE ( 'NONE', #58, 37.04177080567228586, 0.7888888219014454917 ) ;
#539 = DIRECTION ( 'NONE',  ( -0.000000000000000000, -0.000000000000000000, -1.000000000000000000 ) ) ;
#540 = VECTOR ( 'NONE', #120, 1000.000000000000000 ) ;
#541 = AXIS2_PLACEMENT_3D ( 'NONE', #559, #94, #253 ) ;
#542 = CARTESIAN_POINT ( 'NONE',  ( 0.000000000000000000, 0.000000000000000000, 5.000000000000000000 ) ) ;
#543 = VERTEX_POINT ( 'NONE', #45 ) ;
#544 = SURFACE_STYLE_FILL_AREA ( #449 ) ;
#545 = CYLINDRICAL_SURFACE ( 'NONE', #238, 53.00000000000000711 ) ;
#546 = EDGE_LOOP ( 'NONE', ( #324, #77, #153, #374 ) ) ;
#547 = CARTESIAN_POINT ( 'NONE',  ( 0.000000000000000000, 0.000000000000000000, 1.000000000000007772 ) ) ;
#548 = ORIENTED_EDGE ( 'NONE', *, *, #420, .F. ) ;
#549 = CARTESIAN_POINT ( 'NONE',  ( 0.000000000000000000, 0.000000000000000000, 5.000000000000000000 ) ) ;
#550 = EDGE_CURVE ( 'NONE', #543, #458, #148, .T. ) ;
#551 = AXIS2_PLACEMENT_3D ( 'NONE', #512, #205, #209 ) ;
#552 = CIRCLE ( 'NONE', #584, 53.00000000000000711 ) ;
#553 = EDGE_LOOP ( 'NONE', ( #134, #67, #377, #600 ) ) ;
#554 = DIRECTION ( 'NONE',  ( 1.000000000000000000, 0.000000000000000000, 0.000000000000000000 ) ) ;
#555 = VERTEX_POINT ( 'NONE', #590 ) ;
#556 = APPLICATION_PROTOCOL_DEFINITION ( 'draft international standard', 'automotive_design', 1998, #378 ) ;
#557 = FACE_BOUND ( 'NONE', #44, .T. ) ;
#558 = CARTESIAN_POINT ( 'NONE',  ( -5.209813981864140855E-18, 0.000000000000000000, 34.00000609234221116 ) ) ;
#559 = CARTESIAN_POINT ( 'NONE',  ( 0.000000000000000000, 0.000000000000000000, 17.99999999999999645 ) ) ;
#560 = CONICAL_SURFACE ( 'NONE', #265, 38.15000000000000568, 0.003490658503988666988 ) ;
#561 = AXIS2_PLACEMENT_3D ( 'NONE', #588, #271, #386 ) ;
#562 = CARTESIAN_POINT ( 'NONE',  ( -5.209813981864140855E-18, 0.000000000000000000, 5.000000000000000000 ) ) ;
#563 = VECTOR ( 'NONE', #356, 1000.000000000000114 ) ;
#564 = EDGE_CURVE ( 'NONE', #666, #388, #207, .T. ) ;
#565 = CARTESIAN_POINT ( 'NONE',  ( -51.99999999999999289, 6.429395695523603956E-15, 0.000000000000000000 ) ) ;
#566 = CARTESIAN_POINT ( 'NONE',  ( -30.00000000000000000, 3.673940397442059178E-15, 17.99999999999999645 ) ) ;
#567 = CARTESIAN_POINT ( 'NONE',  ( -5.209813981864140855E-18, 0.000000000000000000, 5.000000000000000000 ) ) ;
#568 = LINE ( 'NONE', #223, #147 ) ;
#569 = CARTESIAN_POINT ( 'NONE',  ( -53.00000000000000711, 0.000000000000000000, 5.000000000000000000 ) ) ;
#570 = AXIS2_PLACEMENT_3D ( 'NONE', #381, #529, #228 ) ;
#571 = ORIENTED_EDGE ( 'NONE', *, *, #573, .T. ) ;
#572 = DIRECTION ( 'NONE',  ( 1.000000000000000000, 0.000000000000000000, 0.000000000000000000 ) ) ;
#573 = EDGE_CURVE ( 'NONE', #368, #472, #625, .T. ) ;
#574 = ORIENTED_EDGE ( 'NONE', *, *, #487, .T. ) ;
#575 = EDGE_LOOP ( 'NONE', ( #200, #598 ) ) ;
#576 = CARTESIAN_POINT ( 'NONE',  ( 0.000000000000000000, 0.000000000000000000, 5.000000000000000000 ) ) ;
#577 = FACE_BOUND ( 'NONE', #391, .T. ) ;
#578 = CONICAL_SURFACE ( 'NONE', #647, 30.00000000000000000, 0.7853981633974517207 ) ;
#579 = ORIENTED_EDGE ( 'NONE', *, *, #650, .T. ) ;
#580 = CIRCLE ( 'NONE', #283, 53.00000000000000711 ) ;
#581 = ADVANCED_FACE ( 'NONE', ( #68 ), #115, .F. ) ;
#582 = CARTESIAN_POINT ( 'NONE',  ( 0.000000000000000000, 0.000000000000000000, 34.99999999999999289 ) ) ;
#583 = CIRCLE ( 'NONE', #648, 12.69999999999999929 ) ;
#584 = AXIS2_PLACEMENT_3D ( 'NONE', #19, #482, #526 ) ;
#585 = DIRECTION ( 'NONE',  ( -1.000000000000000000, 0.000000000000000000, 0.000000000000000000 ) ) ;
#586 = ORIENTED_EDGE ( 'NONE', *, *, #533, .F. ) ;
#587 = CARTESIAN_POINT ( 'NONE',  ( 0.000000000000000000, 0.000000000000000000, 17.99999999999999645 ) ) ;
#588 = CARTESIAN_POINT ( 'NONE',  ( -5.209813981864140855E-18, 0.000000000000000000, 34.99999999999999289 ) ) ;
#589 = ORIENTED_EDGE ( 'NONE', *, *, #166, .F. ) ;
#590 = CARTESIAN_POINT ( 'NONE',  ( -30.00000000000000000, 3.673940397442059178E-15, 33.99999999999995737 ) ) ;
#591 = DIRECTION ( 'NONE',  ( 1.000000000000000000, 0.000000000000000000, 0.000000000000000000 ) ) ;
#592 = EDGE_CURVE ( 'NONE', #368, #55, #73, .T. ) ;
#593 = ORIENTED_EDGE ( 'NONE', *, *, #661, .T. ) ;
#594 = FILL_AREA_STYLE_COLOUR ( '', #31 ) ;
#595 = PRESENTATION_LAYER_ASSIGNMENT (  '', '', ( #29 ) ) ;
#596 = DIRECTION ( 'NONE',  ( 1.000000000000000000, 0.000000000000000000, 0.000000000000000000 ) ) ;
#597 = EDGE_CURVE ( 'NONE', #496, #229, #126, .T. ) ;
#598 = ORIENTED_EDGE ( 'NONE', *, *, #129, .T. ) ;
#599 = DIRECTION ( 'NONE',  ( -0.000000000000000000, -0.000000000000000000, -1.000000000000000000 ) ) ;
#600 = ORIENTED_EDGE ( 'NONE', *, *, #23, .T. ) ;
#601 = ORIENTED_EDGE ( 'NONE', *, *, #509, .T. ) ;
#602 = CIRCLE ( 'NONE', #438, 38.15000000000000568 ) ;
#603 = FACE_OUTER_BOUND ( 'NONE', #92, .T. ) ;
#604 = VECTOR ( 'NONE', #240, 1000.000000000000000 ) ;
#605 = ORIENTED_EDGE ( 'NONE', *, *, #97, .T. ) ;
#606 = FACE_OUTER_BOUND ( 'NONE', #1, .T. ) ;
#607 = LINE ( 'NONE', #394, #540 ) ;
#608 = DIRECTION ( 'NONE',  ( -0.000000000000000000, -0.000000000000000000, 1.000000000000000000 ) ) ;
#609 = ORIENTED_EDGE ( 'NONE', *, *, #592, .T. ) ;
#610 = CARTESIAN_POINT ( 'NONE',  ( 53.00000000000000711, 6.490628035480973107E-15, 5.000000000000000000 ) ) ;
#611 = CONICAL_SURFACE ( 'NONE', #295, 13.70000000000000462, 0.7853981633974491672 ) ;
#612 = MANIFOLD_SOLID_BREP ( 'Fase2', #39 ) ;
#613 = ORIENTED_EDGE ( 'NONE', *, *, #661, .F. ) ;
#614 = CIRCLE ( 'NONE', #49, 51.99999999999999289 ) ;
#615 = PRESENTATION_LAYER_ASSIGNMENT (  '', '', ( #298 ) ) ;
#616 = CARTESIAN_POINT ( 'NONE',  ( -38.15000000000000568, -4.672027538747153160E-15, 5.000000000000000000 ) ) ;
#617 = DIRECTION ( 'NONE',  ( -0.000000000000000000, -0.000000000000000000, -1.000000000000000000 ) ) ;
#618 = ADVANCED_FACE ( 'NONE', ( #176 ), #629, .F. ) ;
#619 = CARTESIAN_POINT ( 'NONE',  ( -38.04877047096734088, -4.665829017811700350E-15, 34.00000609234221116 ) ) ;
#620 = ORIENTED_EDGE ( 'NONE', *, *, #290, .F. ) ;
#621 = CYLINDRICAL_SURFACE ( 'NONE', #6, 30.00000000000000000 ) ;
#622 = EDGE_CURVE ( 'NONE', #124, #666, #389, .T. ) ;
#623 = UNCERTAINTY_MEASURE_WITH_UNIT (LENGTH_MEASURE( 1.000000000000000082E-05 ), #355, 'distance_accuracy_value', 'NONE');
#624 = VECTOR ( 'NONE', #276, 1000.000000000000000 ) ;
#625 = CIRCLE ( 'NONE', #183, 51.99999999999999289 ) ;
#626 = ORIENTED_EDGE ( 'NONE', *, *, #550, .F. ) ;
#627 = DIRECTION ( 'NONE',  ( -0.000000000000000000, -0.000000000000000000, -1.000000000000000000 ) ) ;
#628 = ORIENTED_EDGE ( 'NONE', *, *, #220, .T. ) ;
#629 = CYLINDRICAL_SURFACE ( 'NONE', #442, 12.69999999999999929 ) ;
#630 = PLANE ( 'NONE',  #352 ) ;
#631 = EDGE_CURVE ( 'NONE', #170, #55, #552, .T. ) ;
#632 = ORIENTED_EDGE ( 'NONE', *, *, #404, .T. ) ;
#633 = DIRECTION ( 'NONE',  ( 0.000000000000000000, 0.000000000000000000, 1.000000000000000000 ) ) ;
#634 = FACE_OUTER_BOUND ( 'NONE', #322, .T. ) ;
#635 = AXIS2_PLACEMENT_3D ( 'NONE', #69, #64, #591 ) ;
#636 = ORIENTED_EDGE ( 'NONE', *, *, #190, .F. ) ;
#637 = AXIS2_PLACEMENT_3D ( 'NONE', #76, #303, #142 ) ;
#638 = CARTESIAN_POINT ( 'NONE',  ( -12.69999999999999929, 1.555301434917138433E-15, 16.99999999999998579 ) ) ;
#639 = AXIS2_PLACEMENT_3D ( 'NONE', #199, #99, #42 ) ;
#640 = DIRECTION ( 'NONE',  ( 1.000000000000000000, 0.000000000000000000, 0.000000000000000000 ) ) ;
#641 = ORIENTED_EDGE ( 'NONE', *, *, #70, .T. ) ;
#642 = SURFACE_STYLE_FILL_AREA ( #439 ) ;
#643 = CYLINDRICAL_SURFACE ( 'NONE', #266, 53.00000000000000711 ) ;
#644 = ORIENTED_EDGE ( 'NONE', *, *, #10, .F. ) ;
#645 = CARTESIAN_POINT ( 'NONE',  ( 0.000000000000000000, 0.000000000000000000, 5.000000000000000000 ) ) ;
#646 = ORIENTED_EDGE ( 'NONE', *, *, #622, .F. ) ;
#647 = AXIS2_PLACEMENT_3D ( 'NONE', #656, #193, #408 ) ;
#648 = AXIS2_PLACEMENT_3D ( 'NONE', #405, #599, #596 ) ;
#649 = LINE ( 'NONE', #191, #256 ) ;
#650 = EDGE_CURVE ( 'NONE', #226, #7, #173, .T. ) ;
#651 = ORIENTED_EDGE ( 'NONE', *, *, #18, .F. ) ;
#652 = CARTESIAN_POINT ( 'NONE',  ( -12.69999999999999929, 0.000000000000000000, 1.000000000000002665 ) ) ;
#653 = ORIENTED_EDGE ( 'NONE', *, *, #56, .F. ) ;
#654 = EDGE_CURVE ( 'NONE', #388, #666, #309, .T. ) ;
#655 = CARTESIAN_POINT ( 'NONE',  ( -13.70000000000000462, 0.000000000000000000, 0.000000000000000000 ) ) ;
#656 = CARTESIAN_POINT ( 'NONE',  ( 0.000000000000000000, 0.000000000000000000, 33.99999999999995737 ) ) ;
#657 = CONICAL_SURFACE ( 'NONE', #255, 37.04177080567228586, 0.7888888219014454917 ) ;
#658 = CARTESIAN_POINT ( 'NONE',  ( 0.000000000000000000, 0.000000000000000000, 0.000000000000000000 ) ) ;
#659 = CARTESIAN_POINT ( 'NONE',  ( 0.000000000000000000, 0.000000000000000000, 1.000000000000007772 ) ) ;
#660 = VECTOR ( 'NONE', #369, 1000.000000000000000 ) ;
#661 = EDGE_CURVE ( 'NONE', #25, #555, #150, .T. ) ;
#662 = DIRECTION ( 'NONE',  ( 1.000000000000000000, 0.000000000000000000, 0.000000000000000000 ) ) ;
#663 = DIRECTION ( 'NONE',  ( -1.000000000000000000, 0.000000000000000000, 0.000000000000000000 ) ) ;
#664 = CARTESIAN_POINT ( 'NONE',  ( 53.00000000000000711, 6.490628035480973107E-15, 3.999999999999964473 ) ) ;
#665 = CARTESIAN_POINT ( 'NONE',  ( 0.000000000000000000, 0.000000000000000000, 33.99999999999995737 ) ) ;
#666 = VERTEX_POINT ( 'NONE', #122 ) ;
#667 = CARTESIAN_POINT ( 'NONE',  ( 0.000000000000000000, 0.000000000000000000, 16.99999999999998579 ) ) ;
#668 = CONICAL_SURFACE ( 'NONE', #635, 12.69999999999999929, 0.7853981633974543852 ) ;
#669 = VECTOR ( 'NONE', #456, 1000.000000000000000 ) ;
#670 = DIRECTION ( 'NONE',  ( 1.000000000000000000, 0.000000000000000000, 0.000000000000000000 ) ) ;
#671 = CIRCLE ( 'NONE', #149, 12.69999999999999929 ) ;
#672 = ADVANCED_FACE ( 'NONE', ( #489, #434 ), #227, .F. ) ;
#673 = AXIS2_PLACEMENT_3D ( 'NONE', #339, #633, #167 ) ;
#674 = CARTESIAN_POINT ( 'NONE',  ( 51.99999999999999289, 6.429395695523603956E-15, 5.000000000000000000 ) ) ;
ENDSEC;
END-ISO-10303-21;
